<?xml version="1.0" encoding="iso-8859-1"?>
<!-- Generator: Adobe Illustrator 16.0.0, SVG Export Plug-In . SVG Version: 6.00 Build 0)  -->
<!DOCTYPE svg PUBLIC "-//W3C//DTD SVG 1.1//EN" "http://www.w3.org/Graphics/SVG/1.1/DTD/svg11.dtd">
<svg version="1.1" id="Layer_1" xmlns="http://www.w3.org/2000/svg" xmlns:xlink="http://www.w3.org/1999/xlink" x="0px" y="0px"
	 width="19px" height="19px" viewBox="0 0 19 19" style="enable-background:new 0 0 19 19;" xml:space="preserve">
<g id="running_icon_10_">
	<g>
		<g>
			<path style="fill:#273031;" d="M17.791,7.454c-0.437-0.57-0.982-0.177-1.503,0.187c-0.696,0.49-1.312,0.931-2.086,1.503
				c-0.474-0.859-0.885-1.747-1.223-2.355c-0.215-0.388-0.588-0.535-0.995-0.707c-0.388-0.165-1.015-0.437-1.924-0.724
				C9.52,5.186,9.239,5.21,8.845,5.456C8.558,5.635,5.894,7.36,5.576,7.589C4.817,8.138,5.211,9.814,6.62,8.957l2.666-1.9
				c0.451,0.49,0.297,0.896-0.184,1.238c-2.605,1.853-4.461,3.219-7.055,5.09c-0.613,0.443-1.099,0.973-0.552,1.727
				c0.544,0.751,1.026,0.231,1.633-0.215c1.567-1.151,2.438-1.743,3.958-2.956c0.807-0.643,1.844-0.227,2.636,0.451
				c-0.454,0.35-0.84,0.646-1.226,0.944c-0.572,0.44-1.073,0.908-0.592,1.539c0.452,0.592,1.05,0.48,1.58,0.094
				c0.932-0.678,1.291-1.008,2.187-1.736c0.854-0.696,0.742-1.487-0.252-2.012c-0.51-0.27-1.211-0.725-1.876-1.043
				c0.689-0.527,1.685-1.221,2.309-1.698c0.215,0.454,1.062,1.778,1.228,2.066c0.495,0.847,1.011,0.839,1.807,0.245
				c0.948-0.711,1.585-1.16,2.498-1.917C17.824,8.51,18.258,8.063,17.791,7.454z"/>
			<path style="fill:#273031;" d="M2.079,15.728c-0.288,0-0.541-0.155-0.774-0.477c-0.302-0.416-0.362-0.826-0.183-1.219
				c0.166-0.358,0.508-0.637,0.787-0.84c0.904-0.651,1.718-1.242,2.504-1.813c1.474-1.068,2.854-2.069,4.553-3.277
				c0.218-0.156,0.336-0.307,0.352-0.449C9.325,7.57,9.3,7.479,9.239,7.381L6.757,9.149c-0.826,0.504-1.521,0.29-1.738-0.38
				C4.88,8.339,4.979,7.73,5.437,7.398c0.318-0.23,2.967-1.945,3.283-2.143c0.473-0.294,0.775-0.326,1.414-0.123
				c0.874,0.277,1.481,0.536,1.884,0.707l0.104,0.043c0.402,0.17,0.818,0.346,1.065,0.791c0.157,0.285,0.33,0.628,0.519,1.002
				c0.18,0.354,0.371,0.736,0.575,1.118c0.677-0.498,1.24-0.902,1.871-1.346c0.373-0.261,0.74-0.517,1.126-0.517
				c0.271,0,0.509,0.128,0.703,0.38c0.644,0.844-0.118,1.475-0.444,1.746c-0.72,0.595-1.278,1.01-1.927,1.492l-0.582,0.433
				c-0.427,0.319-0.771,0.468-1.084,0.468l0,0c-0.547,0-0.87-0.447-1.067-0.784c-0.049-0.086-0.159-0.263-0.294-0.481
				c-0.263-0.424-0.603-0.972-0.81-1.347c-0.264,0.196-0.568,0.417-0.88,0.643c-0.308,0.223-0.62,0.449-0.903,0.66
				c0.304,0.16,0.607,0.337,0.883,0.499c0.239,0.14,0.463,0.271,0.658,0.374c0.726,0.383,0.916,0.837,0.946,1.15
				c0.03,0.304-0.059,0.767-0.654,1.253c-0.228,0.186-0.421,0.345-0.597,0.49c-0.523,0.433-0.9,0.744-1.602,1.254
				c-0.723,0.528-1.438,0.473-1.906-0.141c-0.663-0.869,0.182-1.521,0.635-1.87l0.987-0.761c-0.788-0.582-1.56-0.697-2.104-0.262
				c-1.119,0.892-1.877,1.441-2.835,2.137c-0.345,0.249-0.713,0.517-1.132,0.824c-0.066,0.05-0.132,0.1-0.196,0.148
				C2.743,15.489,2.432,15.728,2.079,15.728z M9.319,6.743L9.46,6.897c0.245,0.266,0.355,0.537,0.327,0.806
				C9.757,7.986,9.573,8.25,9.239,8.487c-1.697,1.207-3.076,2.207-4.549,3.275c-0.787,0.57-1.6,1.161-2.504,1.813
				c-0.215,0.155-0.514,0.392-0.635,0.654c-0.067,0.146-0.126,0.381,0.136,0.743c0.204,0.281,0.345,0.281,0.392,0.281
				c0.191,0,0.441-0.191,0.705-0.395c0.066-0.051,0.135-0.103,0.205-0.155c0.419-0.308,0.788-0.575,1.134-0.826
				c0.953-0.69,1.706-1.237,2.816-2.123c0.773-0.615,1.896-0.434,2.938,0.455l0.221,0.189l-1.456,1.122
				c-0.71,0.548-0.838,0.83-0.549,1.209c0.32,0.42,0.746,0.417,1.253,0.046c0.689-0.501,1.063-0.81,1.579-1.236
				c0.177-0.146,0.369-0.306,0.598-0.492c0.24-0.194,0.518-0.499,0.483-0.84c-0.028-0.279-0.275-0.557-0.697-0.779
				c-0.2-0.105-0.43-0.241-0.675-0.384c-0.373-0.219-0.795-0.465-1.192-0.654l-0.349-0.167L9.4,9.99
				c0.354-0.271,0.791-0.587,1.216-0.895c0.4-0.291,0.79-0.572,1.093-0.804l0.232-0.178l0.125,0.265
				c0.145,0.306,0.609,1.057,0.917,1.555c0.139,0.224,0.252,0.405,0.302,0.493c0.286,0.492,0.513,0.548,0.658,0.548
				c0.203,0,0.464-0.121,0.801-0.374l0.584-0.434c0.668-0.497,1.196-0.888,1.906-1.476c0.559-0.463,0.648-0.729,0.37-1.094
				c-0.135-0.175-0.251-0.195-0.327-0.195c-0.237,0-0.541,0.213-0.836,0.418c-0.712,0.501-1.325,0.942-2.1,1.512l-0.216,0.161
				l-0.131-0.236c-0.256-0.464-0.494-0.937-0.712-1.371c-0.185-0.367-0.356-0.705-0.51-0.984c-0.168-0.302-0.463-0.427-0.837-0.584
				l-0.104-0.044c-0.395-0.168-0.989-0.421-1.844-0.691C9.503,5.428,9.327,5.434,8.97,5.656C8.664,5.847,6.015,7.563,5.715,7.781
				C5.442,7.978,5.384,8.363,5.469,8.623C5.519,8.777,5.635,8.96,5.905,8.96c0.166,0,0.371-0.071,0.592-0.205L9.319,6.743z"/>
		</g>
		<g>
			<ellipse style="fill:#273031;" cx="13.345" cy="4.267" rx="1.9" ry="1.91"/>
			<path style="fill:#273031;" d="M13.345,6.414c-1.178,0-2.137-0.964-2.137-2.148c0-1.183,0.959-2.146,2.137-2.146
				c1.179,0,2.137,0.963,2.137,2.146C15.481,5.45,14.523,6.414,13.345,6.414z M13.345,2.592c-0.918,0-1.664,0.751-1.664,1.673
				c0,0.923,0.746,1.674,1.664,1.674s1.664-0.751,1.664-1.674C15.009,3.343,14.263,2.592,13.345,2.592z"/>
		</g>
	</g>
</g>
</svg>
