<?xml version="1.0" encoding="iso-8859-1"?>
<!-- Generator: Adobe Illustrator 16.0.0, SVG Export Plug-In . SVG Version: 6.00 Build 0)  -->
<!DOCTYPE svg PUBLIC "-//W3C//DTD SVG 1.1//EN" "http://www.w3.org/Graphics/SVG/1.1/DTD/svg11.dtd">
<svg version="1.1" id="Layer_1" xmlns="http://www.w3.org/2000/svg" xmlns:xlink="http://www.w3.org/1999/xlink" x="0px" y="0px"
	 width="19px" height="19px" viewBox="0 0 19 19" style="enable-background:new 0 0 19 19;" xml:space="preserve">
<g>
	<path style="fill-rule:evenodd;clip-rule:evenodd;fill:#273031;" d="M9.041,3.464C5.736,3.438,3.02,6.151,3,9.495
		c-0.02,3.299,2.69,6.023,6.012,6.041c3.299,0.02,6.028-2.68,6.05-5.982C15.083,6.2,12.403,3.489,9.041,3.464z M9.033,14.595
		c-2.91-0.014-5.143-2.404-5.094-5.184C3.988,6.63,6.298,4.38,9.096,4.405c2.75,0.027,5.029,2.313,5.03,5.096
		C14.128,12.3,11.834,14.595,9.033,14.595z"/>
	<path style="fill-rule:evenodd;clip-rule:evenodd;fill:#273031;" d="M12.232,8.632c0.208-0.164,0.398-0.355,0.594-0.533
		c-0.011-0.021-0.023-0.045-0.036-0.068c-0.098,0.016-0.194,0.023-0.29,0.049c-0.516,0.143-1.031,0.279-1.543,0.438
		c-0.734,0.227-1.469,0.463-2.199,0.707C8.264,9.388,8.01,9.774,8.079,10.222c0.108,0.707,0.882,0.986,1.491,0.518
		C10.465,10.048,11.35,9.339,12.232,8.632z"/>
	<circle style="fill-rule:evenodd;clip-rule:evenodd;fill:#273031;" cx="9.031" cy="5.9" r="0.606"/>
	<circle style="fill-rule:evenodd;clip-rule:evenodd;fill:#273031;" cx="6.477" cy="7.264" r="0.606"/>
	<circle style="fill-rule:evenodd;clip-rule:evenodd;fill:#273031;" cx="5.427" cy="9.635" r="0.606"/>
	<circle style="fill-rule:evenodd;clip-rule:evenodd;fill:#273031;" cx="12.682" cy="9.635" r="0.606"/>
	<circle style="fill-rule:evenodd;clip-rule:evenodd;fill:#273031;" cx="11.641" cy="7.264" r="0.606"/>
</g>
</svg>
