<?xml version="1.0" encoding="iso-8859-1"?>
<!-- Generator: Adobe Illustrator 16.0.0, SVG Export Plug-In . SVG Version: 6.00 Build 0)  -->
<!DOCTYPE svg PUBLIC "-//W3C//DTD SVG 1.1//EN" "http://www.w3.org/Graphics/SVG/1.1/DTD/svg11.dtd">
<svg version="1.1" id="Layer_1" xmlns="http://www.w3.org/2000/svg" xmlns:xlink="http://www.w3.org/1999/xlink" x="0px" y="0px"
	 width="19px" height="19px" viewBox="0 0 19 19" style="enable-background:new 0 0 19 19;" xml:space="preserve">
<rect x="2.602" y="4.497" style="fill:none;stroke:#FFFFFF;stroke-miterlimit:10;" width="14.086" height="9.342"/>
<path style="fill:#FFFFFF;" d="M7.828,8.112c0,0.526-0.414,0.952-0.925,0.952l0,0c-0.511,0-0.925-0.426-0.925-0.952V5.049
	c0-0.526,0.414-0.952,0.925-0.952l0,0c0.511,0,0.925,0.426,0.925,0.952V8.112z"/>
<path style="fill:#FFFFFF;" d="M13.183,8.112c0,0.526-0.414,0.952-0.925,0.952l0,0c-0.511,0-0.925-0.426-0.925-0.952V5.049
	c0-0.526,0.414-0.952,0.925-0.952l0,0c0.511,0,0.925,0.426,0.925,0.952V8.112z"/>
<path style="fill:#FFFFFF;" d="M10.425,8.981c0,0.691-0.414,1.253-0.925,1.253l0,0c-0.511,0-0.925-0.562-0.925-1.253V4.95
	c0-0.692,0.415-0.853,0.925-0.853h0.146c0.511,0,0.779,0.161,0.779,0.853V8.981z"/>
</svg>
