<?xml version="1.0" encoding="iso-8859-1"?>
<!-- Generator: Adobe Illustrator 16.0.0, SVG Export Plug-In . SVG Version: 6.00 Build 0)  -->
<!DOCTYPE svg PUBLIC "-//W3C//DTD SVG 1.1//EN" "http://www.w3.org/Graphics/SVG/1.1/DTD/svg11.dtd">
<svg version="1.1" id="Layer_1" xmlns="http://www.w3.org/2000/svg" xmlns:xlink="http://www.w3.org/1999/xlink" x="0px" y="0px"
	 width="19px" height="19px" viewBox="0 0 19 19" style="enable-background:new 0 0 19 19;" xml:space="preserve">
<g>
	<path style="fill:#FFFFFF;" d="M7.269,9.19c0,0.769-0.717,3.268-1.604,3.268l0,0c-0.886,0-1.604-2.5-1.604-3.268l0,0
		c0-0.769,0.718-1.392,1.604-1.392l0,0C6.551,7.798,7.269,8.421,7.269,9.19L7.269,9.19z"/>
	<path style="fill:#FFFFFF;" d="M1.594,14.859v-1.078c0,0,2.219-1.688,3.844-1.875h0.781c0,0-0.719,0.844-0.781,1.219
		s-0.031,1.734-0.031,1.734H1.594z"/>
</g>
<g>
	<path style="fill:#FFFFFF;" d="M6.469,14.859h10.75v-1.621c0,0-2.5-2.558-5.299-2.543c-2.827,0.015-5.451,1.786-5.451,2.482
		S6.469,14.859,6.469,14.859z"/>
	<path style="fill:#FFFFFF;" d="M14.1,6.947c0,1.045-0.976,4.443-2.18,4.443l0,0c-1.205,0-2.181-3.398-2.181-4.443l0,0
		c0-1.045,0.976-1.892,2.181-1.892l0,0C13.124,5.055,14.1,5.902,14.1,6.947L14.1,6.947z"/>
</g>
</svg>
