<?xml version="1.0" encoding="iso-8859-1"?>
<!-- Generator: Adobe Illustrator 16.0.0, SVG Export Plug-In . SVG Version: 6.00 Build 0)  -->
<!DOCTYPE svg PUBLIC "-//W3C//DTD SVG 1.1//EN" "http://www.w3.org/Graphics/SVG/1.1/DTD/svg11.dtd">
<svg version="1.1" id="Layer_1" xmlns="http://www.w3.org/2000/svg" xmlns:xlink="http://www.w3.org/1999/xlink" x="0px" y="0px"
	 width="19px" height="19px" viewBox="0 0 19 19" style="enable-background:new 0 0 19 19;" xml:space="preserve">
<circle style="fill:#FFFFFF;" cx="9.688" cy="9.5" r="5.313"/>
<g>
	<circle style="fill:#809F2D;" cx="9.549" cy="9.384" r="3.437"/>
	<g>
		<path style="fill:#809F2D;" d="M9.57,3.446c-3.28-0.012-5.947,2.637-5.959,5.917c-0.012,3.28,2.637,5.948,5.917,5.96
			c3.281,0.013,5.948-2.636,5.96-5.916C15.499,6.125,12.852,3.458,9.57,3.446z M9.533,13.839c-2.456-0.009-4.447-2.015-4.438-4.47
			c0.01-2.457,2.015-4.448,4.471-4.438c2.455,0.009,4.445,2.014,4.437,4.47C13.993,11.857,11.989,13.848,9.533,13.839z"/>
	</g>
	<g>
		<path style="fill:#FFFFFF;" d="M12.412,10.626L10.067,9.03l0.01-2.731c0-0.065-0.024-0.128-0.07-0.175
			C9.96,6.077,9.896,6.05,9.831,6.05L9.182,6.048C9.116,6.047,9.054,6.074,9.007,6.12S8.933,6.229,8.933,6.295L8.921,9.521
			c0,0.064,0.026,0.128,0.072,0.176c0.019,0.018,0.04,0.033,0.064,0.046l2.73,1.842c0.041,0.029,0.089,0.043,0.137,0.044
			c0.017,0,0.035-0.002,0.052-0.006c0.065-0.014,0.122-0.053,0.158-0.109l0.348-0.551C12.553,10.85,12.521,10.701,12.412,10.626z"/>
	</g>
</g>
</svg>
