<?xml version="1.0" encoding="iso-8859-1"?>
<!-- Generator: Adobe Illustrator 16.0.0, SVG Export Plug-In . SVG Version: 6.00 Build 0)  -->
<!DOCTYPE svg PUBLIC "-//W3C//DTD SVG 1.1//EN" "http://www.w3.org/Graphics/SVG/1.1/DTD/svg11.dtd">
<svg version="1.1" id="Layer_1" xmlns="http://www.w3.org/2000/svg" xmlns:xlink="http://www.w3.org/1999/xlink" x="0px" y="0px"
	 width="19px" height="19px" viewBox="0 0 19 19" style="enable-background:new 0 0 19 19;" xml:space="preserve">
<g>
	<path style="fill:#FFFFFF;" d="M7.269,9.19c0,0.769-0.717,3.268-1.604,3.268l0,0c-0.886,0-1.604-2.5-1.604-3.268l0,0
		c0-0.769,0.718-1.392,1.604-1.392l0,0C6.551,7.798,7.269,8.421,7.269,9.19L7.269,9.19z"/>
	<path style="fill:#FFFFFF;" d="M1.594,14.859v-1.078c0,0,2.219-1.688,3.844-1.875h0.781c0,0-0.719,0.844-0.781,1.219
		s-0.031,1.734-0.031,1.734H1.594z"/>
</g>
<g>
	<path style="fill:#FFFFFF;" d="M6.469,14.859h10.75v-1.621c0,0-2.5-2.558-5.299-2.543c-2.827,0.015-5.451,1.786-5.451,2.482
		S6.469,14.859,6.469,14.859z"/>
	<path style="fill:#FFFFFF;" d="M14.1,6.947c0,1.045-0.976,4.443-2.18,4.443l0,0c-1.205,0-2.181-3.398-2.181-4.443l0,0
		c0-1.045,0.976-1.892,2.181-1.892l0,0C13.124,5.055,14.1,5.902,14.1,6.947L14.1,6.947z"/>
</g>
<g>
	<path style="fill:#FFFFFF;" d="M18.248,7.841l-2.759-0.507c-0.267-0.05-0.362-0.275-0.211-0.5l1.583-2.347
		c0.151-0.225,0.118-0.567-0.073-0.76l-1.518-1.515c-0.192-0.194-0.533-0.228-0.761-0.074l-2.346,1.584
		c-0.226,0.15-0.45,0.056-0.5-0.212l-0.506-2.76c-0.051-0.267-0.314-0.484-0.584-0.484H8.426c-0.271,0-0.536,0.217-0.584,0.484
		L7.334,3.51c-0.05,0.268-0.275,0.363-0.5,0.209L4.488,2.139c-0.225-0.154-0.567-0.12-0.759,0.074L2.211,3.73
		C2.019,3.921,1.986,4.265,2.138,4.488l1.583,2.347c0.151,0.225,0.057,0.45-0.211,0.5L0.751,7.841
		c-0.268,0.05-0.485,0.314-0.485,0.585v2.144c0,0.273,0.218,0.535,0.485,0.586l2.76,0.508c0.266,0.051,0.361,0.275,0.21,0.502
		l-1.583,2.348c-0.152,0.225-0.119,0.566,0.074,0.756l1.518,1.518c0.192,0.193,0.534,0.229,0.759,0.074l2.346-1.582
		c0.225-0.152,0.45-0.057,0.5,0.211l0.507,2.76c0.048,0.264,0.313,0.484,0.584,0.484h2.148c0.27,0,0.533-0.221,0.584-0.484
		l0.506-2.76c0.05-0.268,0.274-0.363,0.5-0.213l2.346,1.584c0.228,0.154,0.568,0.119,0.761-0.074l1.518-1.518
		c0.191-0.189,0.225-0.531,0.073-0.756l-1.583-2.348c-0.151-0.227-0.056-0.451,0.209-0.502l2.761-0.508
		c0.269-0.051,0.485-0.313,0.485-0.586V8.426C18.733,8.156,18.517,7.891,18.248,7.841z M9.498,12.844
		c-1.842,0-3.336-1.494-3.336-3.336c0-1.842,1.494-3.338,3.336-3.338c1.844,0,3.337,1.496,3.337,3.338
		C12.835,11.35,11.342,12.844,9.498,12.844z"/>
</g>
</svg>
