<?xml version="1.0" encoding="iso-8859-1"?>
<!-- Generator: Adobe Illustrator 16.0.0, SVG Export Plug-In . SVG Version: 6.00 Build 0)  -->
<!DOCTYPE svg PUBLIC "-//W3C//DTD SVG 1.1//EN" "http://www.w3.org/Graphics/SVG/1.1/DTD/svg11.dtd">
<svg version="1.1" id="Layer_1" xmlns="http://www.w3.org/2000/svg" xmlns:xlink="http://www.w3.org/1999/xlink" x="0px" y="0px"
	 width="19px" height="19px" viewBox="0 0 19 19" style="enable-background:new 0 0 19 19;" xml:space="preserve">
<g id="running_icon_10_">
	<g>
		<path style="fill:#FFFFFF;" d="M18.145,8.758c-0.462-0.604-1.041-0.188-1.592,0.197c-0.737,0.518-1.388,0.986-2.208,1.591
			c-0.501-0.909-0.938-1.849-1.294-2.494c-0.229-0.41-0.624-0.565-1.055-0.748c-0.41-0.175-1.073-0.462-2.036-0.767
			C9.387,6.356,9.089,6.383,8.672,6.642c-0.304,0.19-3.124,2.016-3.46,2.259c-0.804,0.581-0.386,2.355,1.104,1.447L9.14,8.337
			c0.477,0.518,0.314,0.948-0.194,1.31c-2.759,1.962-4.723,3.407-7.468,5.389c-0.649,0.47-1.164,1.029-0.584,1.829
			c0.577,0.793,1.086,0.245,1.729-0.229c1.659-1.219,2.581-1.846,4.189-3.129c0.854-0.681,1.953-0.24,2.791,0.477
			c-0.481,0.37-0.889,0.686-1.298,1c-0.605,0.467-1.136,0.962-0.627,1.63c0.479,0.627,1.112,0.509,1.673,0.099
			c0.987-0.718,1.368-1.065,2.315-1.838c0.903-0.737,0.786-1.573-0.268-2.13c-0.538-0.284-1.281-0.767-1.986-1.104
			c0.731-0.559,1.784-1.293,2.445-1.798c0.227,0.481,1.124,1.882,1.299,2.187c0.523,0.897,1.07,0.89,1.912,0.261
			c1.005-0.753,1.678-1.229,2.646-2.03C18.179,9.876,18.638,9.403,18.145,8.758z"/>
		<path style="fill:#FFFFFF;" d="M1.51,17.517c-0.305,0-0.573-0.165-0.819-0.505c-0.319-0.44-0.384-0.874-0.193-1.29
			c0.175-0.38,0.538-0.674,0.834-0.889c0.956-0.689,1.818-1.315,2.651-1.919c1.56-1.132,3.021-2.191,4.819-3.471
			c0.23-0.164,0.356-0.324,0.372-0.475C9.182,8.881,9.154,8.784,9.09,8.68l-2.627,1.873c-0.874,0.533-1.61,0.307-1.84-0.402
			C4.475,9.694,4.58,9.05,5.065,8.699c0.336-0.244,3.14-2.06,3.475-2.269c0.5-0.312,0.821-0.345,1.497-0.13
			c0.925,0.293,1.569,0.567,1.995,0.749l0.108,0.046c0.427,0.18,0.867,0.367,1.128,0.837c0.167,0.301,0.351,0.665,0.55,1.06
			c0.188,0.375,0.393,0.779,0.609,1.183c0.716-0.526,1.313-0.955,1.981-1.424c0.395-0.276,0.782-0.548,1.19-0.548
			c0.289,0,0.539,0.136,0.744,0.403c0.682,0.893-0.125,1.562-0.47,1.847c-0.763,0.631-1.354,1.07-2.04,1.579l-0.616,0.459
			c-0.452,0.338-0.817,0.496-1.147,0.496l0,0c-0.578,0-0.922-0.475-1.13-0.831c-0.053-0.091-0.169-0.278-0.312-0.51
			c-0.278-0.449-0.637-1.029-0.856-1.425c-0.279,0.207-0.602,0.441-0.931,0.68c-0.326,0.235-0.657,0.475-0.958,0.698
			c0.322,0.17,0.642,0.357,0.934,0.528c0.254,0.148,0.49,0.287,0.697,0.396c0.769,0.405,0.97,0.887,1.003,1.218
			c0.031,0.321-0.063,0.812-0.694,1.327c-0.24,0.195-0.444,0.364-0.631,0.519c-0.554,0.457-0.953,0.788-1.695,1.327
			c-0.766,0.559-1.523,0.5-2.019-0.148c-0.702-0.92,0.192-1.609,0.673-1.98l1.045-0.806c-0.834-0.616-1.65-0.737-2.229-0.276
			c-1.184,0.943-1.986,1.525-3,2.262c-0.365,0.265-0.755,0.547-1.198,0.873c-0.071,0.052-0.14,0.105-0.208,0.157
			C2.213,17.264,1.884,17.517,1.51,17.517z M9.175,8.005l0.149,0.163C9.583,8.45,9.7,8.737,9.67,9.021
			c-0.031,0.3-0.227,0.58-0.58,0.831c-1.797,1.277-3.256,2.337-4.815,3.467c-0.833,0.604-1.695,1.23-2.651,1.92
			c-0.227,0.165-0.544,0.415-0.672,0.693c-0.071,0.154-0.133,0.404,0.144,0.787c0.216,0.297,0.365,0.297,0.414,0.297
			c0.204,0,0.468-0.202,0.747-0.417c0.071-0.054,0.143-0.109,0.217-0.164c0.444-0.325,0.834-0.608,1.2-0.874
			c1.009-0.732,1.807-1.311,2.982-2.248c0.819-0.652,2.007-0.46,3.109,0.481l0.234,0.2l-1.542,1.188
			c-0.751,0.579-0.887,0.879-0.581,1.279c0.339,0.445,0.789,0.441,1.327,0.049c0.729-0.53,1.125-0.857,1.67-1.309
			c0.188-0.154,0.393-0.324,0.634-0.521c0.254-0.206,0.548-0.528,0.512-0.889c-0.029-0.297-0.291-0.59-0.738-0.825
			c-0.212-0.112-0.455-0.255-0.716-0.406c-0.394-0.23-0.84-0.491-1.261-0.693L8.936,11.69l0.325-0.248
			c0.376-0.287,0.837-0.621,1.287-0.947c0.424-0.307,0.837-0.605,1.157-0.85l0.246-0.188l0.132,0.28
			c0.153,0.323,0.646,1.119,0.972,1.646c0.146,0.237,0.266,0.43,0.319,0.522c0.304,0.521,0.543,0.581,0.696,0.581
			c0.214,0,0.491-0.13,0.848-0.396l0.618-0.46c0.707-0.525,1.267-0.94,2.019-1.562c0.592-0.49,0.687-0.772,0.391-1.158
			c-0.142-0.185-0.265-0.207-0.346-0.207c-0.25,0-0.573,0.226-0.885,0.444c-0.754,0.53-1.403,0.997-2.222,1.601l-0.229,0.169
			l-0.139-0.25c-0.271-0.491-0.523-0.991-0.754-1.45c-0.196-0.389-0.376-0.747-0.54-1.042c-0.177-0.32-0.49-0.452-0.886-0.619
			l-0.109-0.047c-0.418-0.178-1.048-0.446-1.951-0.732C9.369,6.613,9.183,6.62,8.805,6.854c-0.324,0.203-3.128,2.019-3.446,2.25
			C5.07,9.313,5.009,9.72,5.099,9.996c0.053,0.162,0.176,0.356,0.462,0.356c0.176,0,0.393-0.075,0.626-0.218L9.175,8.005z"/>
	</g>
	<g>
		<path style="fill:#FFFFFF;" d="M13.437,7.406c1.111,0,2.012-0.903,2.012-2.023c0-1.115-0.9-2.021-2.012-2.021
			s-2.012,0.906-2.012,2.021C11.425,6.502,12.325,7.406,13.437,7.406z"/>
		<path style="fill:#FFFFFF;" d="M13.437,7.656c-1.247,0-2.262-1.02-2.262-2.273c0-1.253,1.015-2.272,2.262-2.272
			c1.248,0,2.263,1.019,2.263,2.272C15.699,6.636,14.685,7.656,13.437,7.656z M13.437,3.611c-0.971,0-1.761,0.795-1.761,1.771
			c0,0.978,0.79,1.772,1.761,1.772c0.972,0,1.762-0.795,1.762-1.772C15.198,4.406,14.408,3.611,13.437,3.611z"/>
	</g>
</g>
</svg>
