<?xml version="1.0" encoding="iso-8859-1"?>
<!-- Generator: Adobe Illustrator 16.0.0, SVG Export Plug-In . SVG Version: 6.00 Build 0)  -->
<!DOCTYPE svg PUBLIC "-//W3C//DTD SVG 1.1//EN" "http://www.w3.org/Graphics/SVG/1.1/DTD/svg11.dtd">
<svg version="1.1" id="Layer_1" xmlns="http://www.w3.org/2000/svg" xmlns:xlink="http://www.w3.org/1999/xlink" x="0px" y="0px"
	 width="19px" height="19px" viewBox="0 0 19 19" style="enable-background:new 0 0 19 19;" xml:space="preserve">
<g>
	<path style="fill:#FFFFFF;" d="M10.316,10.309l2.938,1.094c0,0,3.688-4.215,0.313-6.311C13.566,5.092,9.879,3.34,10.316,10.309z"/>
	<path style="fill:#FFFFFF;" d="M11.035,14.087c1.48,0.259,1.978-2.399,1.978-2.399l-2.732-0.963
		C10.28,10.725,9.785,13.868,11.035,14.087z"/>
</g>
<g>
	<path style="fill:#FFFFFF;" d="M5.134,13.558l3.053-0.708c0,0,0.751-5.55-3.22-5.436C4.967,7.414,0.925,7.986,5.134,13.558z"/>
	<path style="fill:#FFFFFF;" d="M7.817,16.313c1.377-0.601,0.426-3.094,0.426-3.094l-2.911,0.706
		C5.333,13.925,6.654,16.819,7.817,16.313z"/>
</g>
</svg>
