<?xml version="1.0" encoding="iso-8859-1"?>
<!-- Generator: Adobe Illustrator 16.0.0, SVG Export Plug-In . SVG Version: 6.00 Build 0)  -->
<!DOCTYPE svg PUBLIC "-//W3C//DTD SVG 1.1//EN" "http://www.w3.org/Graphics/SVG/1.1/DTD/svg11.dtd">
<svg version="1.1" id="Layer_1" xmlns="http://www.w3.org/2000/svg" xmlns:xlink="http://www.w3.org/1999/xlink" x="0px" y="0px"
	 width="19px" height="19px" viewBox="0 0 19 19" style="enable-background:new 0 0 19 19;" xml:space="preserve">
<g id="icon_-_activity_3_">
	<path style="fill:#FFFFFF;" d="M4.094,11.555c0.288,0.216,0.713,0.176,0.948-0.091v-0.001l0.687-0.779l1.094,1.364
		c0.146,0.182,0.388,0.277,0.631,0.248c0.243-0.03,0.449-0.18,0.539-0.391l1.04-2.444l1.508,3.273
		c0.105,0.231,0.35,0.378,0.62,0.378c0.013,0,0.025,0,0.038-0.001c0.285-0.015,0.528-0.191,0.607-0.442l1.436-4.452l0.634,1.198
		c0.162,0.308,0.566,0.437,0.9,0.287c0.335-0.149,0.475-0.522,0.313-0.831l-1.392-2.634c-0.122-0.231-0.384-0.369-0.661-0.348
		c-0.278,0.022-0.512,0.195-0.592,0.442l-1.396,4.326l-1.42-3.084C9.521,7.34,9.273,7.191,8.998,7.195
		C8.724,7.198,8.48,7.354,8.38,7.59l-1.197,2.816L6.295,9.299C6.171,9.145,5.978,9.053,5.769,9.048
		C5.559,9.043,5.362,9.127,5.23,9.278l-1.236,1.403C3.76,10.946,3.804,11.338,4.094,11.555z"/>
</g>
</svg>
