<?xml version="1.0" encoding="iso-8859-1"?>
<!-- Generator: Adobe Illustrator 16.0.0, SVG Export Plug-In . SVG Version: 6.00 Build 0)  -->
<!DOCTYPE svg PUBLIC "-//W3C//DTD SVG 1.1//EN" "http://www.w3.org/Graphics/SVG/1.1/DTD/svg11.dtd">
<svg version="1.1" id="Layer_1" xmlns="http://www.w3.org/2000/svg" xmlns:xlink="http://www.w3.org/1999/xlink" x="0px" y="0px"
	 width="68px" height="59px" viewBox="0 0 68 59" style="enable-background:new 0 0 68 59;" xml:space="preserve">
<g>
	<path style="fill:#FFFFFF;stroke:#0F4260;stroke-width:0.5;stroke-miterlimit:10;" d="M66,52c0,2.762-2.238,5-5,5H6
		c-2.761,0-5-2.238-5-5V6c0-2.762,2.239-5,5-5h55c2.762,0,5,2.238,5,5V52z"/>
	<g>
		<path style="fill:#43AEEC;" d="M45.512,27.35c0-3.313-1.529-6.291-3.963-8.35V9.336H25.5v9.625
			c-2.463,2.061-4.011,5.055-4.011,8.389c0,3.335,1.548,6.329,4.011,8.39v9.612h16.049v-9.652
			C43.982,33.641,45.512,30.663,45.512,27.35z M24.495,27.35c0-4.652,4.038-8.439,9.005-8.439c4.965,0,9.006,3.787,9.006,8.439
			c0,4.653-4.041,8.438-9.006,8.438C28.533,35.788,24.495,32.003,24.495,27.35z"/>
		<path style="fill:#43AEEC;" d="M32.536,28.22l5.535,3.474c0.084,0.052,0.182,0.079,0.281,0.079c0.031,0,0.068-0.004,0.102-0.011
			c0.139-0.026,0.25-0.102,0.322-0.21l0.695-1.044c0.143-0.214,0.082-0.496-0.146-0.637l-4.75-3.006v-5.176
			c0-0.123-0.049-0.244-0.145-0.332c-0.094-0.087-0.221-0.138-0.355-0.138h-1.313c-0.131,0-0.257,0.051-0.356,0.138
			c-0.09,0.088-0.145,0.209-0.145,0.332v6.111c0,0.124,0.055,0.244,0.145,0.332C32.446,28.168,32.489,28.197,32.536,28.22z"/>
	</g>
</g>
</svg>
