<?xml version="1.0" encoding="utf-8"?>
<!-- Generator: Adobe Illustrator 16.0.0, SVG Export Plug-In . SVG Version: 6.00 Build 0)  -->
<!DOCTYPE svg PUBLIC "-//W3C//DTD SVG 1.1//EN" "http://www.w3.org/Graphics/SVG/1.1/DTD/svg11.dtd">
<svg version="1.1" id="Layer_1" xmlns="http://www.w3.org/2000/svg" xmlns:xlink="http://www.w3.org/1999/xlink" x="0px" y="0px"
	 width="240px" height="195px" viewBox="0 0 240 195" enable-background="new 0 0 240 195" xml:space="preserve">
<path fill="none" d="M78.63-2257.76"/>
<path fill="none" d="M78.63,987.837"/>
<path fill="none" d="M51.764,1616.837"/>
<path fill="none" d="M51.764-1628.76"/>
<line fill="#929497" x1="1530.52" y1="-66.557" x2="1530.52" y2="-65.807"/>
<line fill="#929497" x1="-611.484" y1="-65.807" x2="-611.484" y2="-66.557"/>
<path fill="#F26D7C" d="M188.404,92.942c-10.149-32.988-1.838-41.102-0.034-42.34h-67.367H52.521
	c1.803,1.238,10.366,9.352,0.216,42.34c-14.918,48.48,55.285,74.916,67.834,79.934c0.136-0.055,0.282-0.112,0.432-0.172
	C134.641,167.278,203.16,140.896,188.404,92.942"/>
<g opacity="0.5">
	<g>
		<g>
			<defs>
				<rect id="SVGID_1_" x="121" y="50.6" width="69.471" height="122.101"/>
			</defs>
			<clipPath id="SVGID_2_">
				<use xlink:href="#SVGID_1_"  overflow="visible"/>
			</clipPath>
			<path clip-path="url(#SVGID_2_)" fill="#DF2F55" d="M188.404,92.942c-10.149-32.988-1.838-41.102-0.034-42.34h-67.367v122.102
				C134.641,167.278,203.16,140.896,188.404,92.942"/>
		</g>
	</g>
</g>
<g opacity="0.4">
	<g>
		<g>
			<defs>
				<rect id="SVGID_3_" x="50.67" y="4.82" width="139.801" height="168.06"/>
			</defs>
			<clipPath id="SVGID_4_">
				<use xlink:href="#SVGID_3_"  overflow="visible"/>
			</clipPath>
			<path clip-path="url(#SVGID_4_)" fill="#FFFFFF" d="M120.571,18.885c8.376,4.037,25.287,10.076,54.197,12.174v14.625
				c-1.492,2.458-2.888,5.657-3.813,9.77c-2.388,10.613-0.951,24.591,4.267,41.547c2.327,7.568,1.854,14.6-1.445,21.499
				c-3.051,6.373-8.519,12.725-16.252,18.875c-12.736,10.132-28.211,17.049-36.952,20.637c-8.741-3.588-24.216-10.505-36.952-20.637
				c-7.733-6.15-13.201-12.502-16.251-18.875c-3.301-6.898-3.773-13.931-1.445-21.499c5.23-17.001,6.614-31.021,4.109-41.675
				c-0.963-4.099-2.39-7.283-3.909-9.729V31.054C88.262,29.416,107.699,25.09,120.571,18.885 M120.571,4.824
				c-1.726,0-3.453,0.347-4.795,1.037c-9.941,5.12-29.271,10.588-57.983,11.864c-3.017,0.135-5.465,2.57-5.465,5.59v27.16
				c0,0,11.263,7.193,0.41,42.467c-14.917,48.481,55.285,74.915,67.834,79.934c12.548-5.019,82.751-31.451,67.833-79.934
				c-10.853-35.272,0.159-42.467,0.159-42.467v-27.16c0-3.02-2.448-5.455-5.465-5.59c-28.713-1.275-47.791-6.744-57.733-11.864
				C124.023,5.171,122.297,4.824,120.571,4.824"/>
		</g>
	</g>
</g>
<path fill="#191818" d="M188.564,23.315c0-3.021-2.449-5.456-5.467-5.591c-28.712-1.274-47.791-6.743-57.732-11.864
	c-2.686-1.382-6.905-1.382-9.589,0c-9.942,5.121-29.271,10.589-57.984,11.864c-3.016,0.135-5.465,2.57-5.465,5.591v27.159
	c0,0,0.068,0.042,0.193,0.128h135.85c0.124-0.086,0.194-0.128,0.194-0.128V23.315z"/>
<path fill="#191818" d="M120.571,13.19c0.527,0,0.894,0.091,1.006,0.13c13.141,6.754,34.396,11.326,58.621,12.638v21.353
	c-1.468,2.076-2.989,5.088-3.944,9.333c-2.179,9.68-0.779,22.719,4.155,38.759c5.108,16.6-1.272,31.719-19.505,46.221
	c-14.387,11.444-31.922,18.869-40.333,22.248c-8.412-3.379-25.946-10.804-40.333-22.248c-18.232-14.502-24.613-29.621-19.505-46.221
	c4.943-16.066,6.294-29.134,4.013-38.836c-0.997-4.241-2.555-7.243-4.053-9.313V25.958c24.394-1.318,45.743-5.89,58.872-12.638
	C119.677,13.281,120.044,13.19,120.571,13.19 M120.571,4.824c-1.726,0-3.453,0.346-4.795,1.037
	c-9.941,5.12-29.271,10.588-57.983,11.864c-3.017,0.135-5.465,2.57-5.465,5.59v27.16c0,0,11.263,7.193,0.41,42.467
	c-14.917,48.481,55.285,74.915,67.834,79.934c12.548-5.019,82.751-31.451,67.833-79.934c-10.853-35.272,0.159-42.467,0.159-42.467
	v-27.16c0-3.02-2.448-5.455-5.465-5.59c-28.713-1.275-47.791-6.744-57.733-11.864C124.023,5.17,122.297,4.824,120.571,4.824"/>
<path fill="#FFFFFF" d="M97.282,41.771V38.52c7.346-7.136,8.881-8.729,8.881-11.019c0-1.536-1.174-2.529-2.679-2.529
	c-1.776,0-3.191,0.813-4.275,2.259l-2.408-2.529c1.625-2.167,4.003-3.313,6.743-3.313c3.884,0,6.714,2.35,6.714,6.082
	c0,3.04-2.047,5.63-7.015,10.747h7.104v3.553H97.282V41.771z"/>
<path fill="#FFFFFF" d="M112.604,31.745c0-5.178,2.137-10.355,7.104-10.355c4.998,0,7.104,5.179,7.104,10.355
	c0,5.147-2.076,10.388-7.104,10.388C114.74,42.133,112.604,36.894,112.604,31.745 M122.721,31.745c0-3.883-0.664-6.772-3.013-6.772
	c-2.317,0-2.979,2.891-2.979,6.772c0,3.854,0.662,6.805,2.979,6.805C122.057,38.55,122.721,35.6,122.721,31.745"/>
<path fill="#FFFFFF" d="M128.768,31.745c0-5.178,2.139-10.355,7.104-10.355c4.998,0,7.104,5.179,7.104,10.355
	c0,5.147-2.076,10.388-7.104,10.388C130.904,42.133,128.768,36.894,128.768,31.745 M138.884,31.745c0-3.883-0.663-6.772-3.012-6.772
	c-2.317,0-2.979,2.891-2.979,6.772c0,3.854,0.662,6.805,2.979,6.805C138.221,38.55,138.884,35.6,138.884,31.745"/>
<path fill="#FFFFFF" d="M138.551,109.436l-11.009-11.009l11.009-11.009c5.4-5.4,7.742-12.699,7.029-19.747H96.976
	c-0.713,7.048,1.629,14.347,7.029,19.747l11.009,11.009l-11.009,11.009c-3.358,3.357-5.532,7.449-6.526,11.759
	c-0.605,2.621-0.773,5.322-0.503,7.988h48.604c0.518-5.126-0.581-10.383-3.295-14.947
	C141.268,112.523,140.023,110.909,138.551,109.436"/>
<path fill="#F26D7C" d="M94.196,132.701h54.164c0.578-5.711-0.646-11.571-3.67-16.657l-6.307-7.107c-8.05,0-8.584,7.598-24.15,8.051
	c-9.589,0.278-16.1,5.968-16.1,5.968l-3.378,0.845C94.082,126.72,93.895,129.73,94.196,132.701"/>
<path fill="#F26D7C" d="M103.928,83.107c0,0,6.282-4.429,18.356-2.415c12.075,2.012,16.1,0,18.112,0L134.2,87.46l-12.923,12.212
	L103.928,83.107z"/>
<path fill="#FFFFFF" d="M142.689,70.681c-0.133,5.473-2.344,10.685-6.269,14.609l-11.008,11.009l-2.13,2.128l2.13,2.129
	l11.008,11.01c1.265,1.264,2.367,2.681,3.274,4.209c1.863,3.131,2.892,6.744,2.988,10.398H99.866
	c0.036-1.446,0.218-2.885,0.545-4.302c0.899-3.899,2.877-7.463,5.722-10.307l11.009-11.01l2.128-2.129l-2.128-2.128l-11.009-11.009
	c-3.925-3.925-6.135-9.137-6.268-14.609L142.689,70.681 M145.58,67.671H96.976c-0.714,7.048,1.628,14.347,7.028,19.747
	l11.009,11.009l-11.009,11.009c-3.357,3.358-5.531,7.449-6.525,11.759c-0.605,2.622-0.773,5.322-0.503,7.988h48.604
	c0.52-5.125-0.58-10.383-3.295-14.947c-1.018-1.711-2.262-3.326-3.734-4.8l-11.01-11.009l11.01-11.009
	C143.95,82.018,146.293,74.719,145.58,67.671"/>
<path fill="#191818" d="M145.58,67.671c0.713,7.048-1.629,14.348-7.029,19.747l-11.009,11.009l11.009,11.009
	c1.473,1.473,2.717,3.089,3.734,4.8c2.715,4.563,3.813,9.82,3.295,14.947H96.976c-0.27-2.666-0.101-5.367,0.503-7.988
	c0.994-4.311,3.168-8.401,6.526-11.759l11.009-11.009l-11.009-11.009c-5.4-5.399-7.742-12.699-7.029-19.747H145.58 M148.835,64.069
	h-3.255H96.976h-3.255l-0.328,3.238c-0.852,8.421,2.087,16.679,8.065,22.657l8.462,8.462l-8.462,8.461
	c-3.721,3.723-6.31,8.39-7.488,13.496c-0.694,3.008-0.888,6.09-0.577,9.161l0.328,3.238h3.255h48.604h3.255l0.328-3.238
	c0.603-5.946-0.741-12.038-3.782-17.15c-1.191-2.002-2.632-3.854-4.283-5.507l-8.463-8.461l8.463-8.463
	c5.979-5.978,8.918-14.233,8.065-22.656L148.835,64.069z"/>
<path fill="#F26D7C" d="M122.954,102.88c0,0.926-0.75,1.677-1.677,1.677c-0.925,0-1.676-0.751-1.676-1.677s0.751-1.676,1.676-1.676
	C122.204,101.204,122.954,101.954,122.954,102.88"/>
<path fill="#F26D7C" d="M122.954,108.356c0,0.926-0.75,1.676-1.677,1.676c-0.925,0-1.676-0.75-1.676-1.676
	c0-0.927,0.751-1.678,1.676-1.678C122.204,106.68,122.954,107.431,122.954,108.356"/>
<path fill="#191818" d="M151.809,67.722H90.747c-1.385,0-2.508-1.123-2.508-2.508c0-1.386,1.123-2.509,2.508-2.509h61.062
	c1.385,0,2.508,1.123,2.508,2.509C154.316,66.599,153.193,67.722,151.809,67.722"/>
<path fill="#191818" d="M151.809,133.95H90.747c-1.385,0-2.508-1.123-2.508-2.508c0-1.387,1.123-2.51,2.508-2.51h61.062
	c1.385,0,2.508,1.123,2.508,2.51C154.316,132.827,153.193,133.95,151.809,133.95"/>
<polygon fill="#FFFFFF" points="91.517,29.988 84.059,28.857 80.737,21.76 77.417,28.857 69.958,29.988 75.348,35.522 74,43.317 
	80.737,39.637 87.474,43.317 86.127,35.522 "/>
<polygon fill="#FFFFFF" points="171.184,29.988 163.725,28.857 160.404,21.76 157.084,28.857 149.625,29.988 155.016,35.522 
	153.667,43.317 160.404,39.637 167.141,43.317 165.794,35.522 "/>
<path fill="#1A1A19" d="M120.544,177.469c-3.51-1.402-11.533-5.483-20.94-10.254v14.698c11.415,7.015,20.567,11.113,20.567,11.113
	l0.399-0.001l0.398,0.001c0,0,9.153-4.1,20.568-11.113v-14.727c-9.063,4.598-16.849,8.633-20.561,10.109
	C120.826,177.356,120.68,177.415,120.544,177.469"/>
<path fill="#FFFFFF" d="M67.274,156.546c8.119,9.569,19.146,17.858,29.014,24.17v-15.223c-9.689-5.162-20.402-12.018-29.014-20.576
	V156.546L67.274,156.546z"/>
<path fill="#FFFFFF" d="M144.854,180.717c9.869-6.313,20.896-14.602,29.015-24.17V144.86c-8.606,8.569-19.317,15.433-29.015,20.603
	V180.717z"/>
</svg>
