<?xml version="1.0" encoding="utf-8"?>
<!-- Generator: Adobe Illustrator 16.0.0, SVG Export Plug-In . SVG Version: 6.00 Build 0)  -->
<!DOCTYPE svg PUBLIC "-//W3C//DTD SVG 1.1//EN" "http://www.w3.org/Graphics/SVG/1.1/DTD/svg11.dtd">
<svg version="1.1" id="Layer_1" xmlns="http://www.w3.org/2000/svg" xmlns:xlink="http://www.w3.org/1999/xlink" x="0px" y="0px"
	 width="612px" height="792px" viewBox="0 0 612 792" enable-background="new 0 0 612 792" xml:space="preserve">
<path fill="#F26C7C" d="M370.006,386.942c-10.15-32.988-1.838-41.101-0.035-42.339h-67.367h-68.481
	c1.804,1.238,10.366,9.351,0.216,42.339c-14.918,48.481,55.285,74.916,67.834,79.934c0.137-0.055,0.282-0.112,0.432-0.172
	C316.241,461.278,384.762,434.896,370.006,386.942"/>
<g opacity="0.5">
	<g>
		<defs>
			<rect id="SVGID_1_" x="260.95" y="344.6" width="111.13" height="122.1"/>
		</defs>
		<clipPath id="SVGID_2_">
			<use xlink:href="#SVGID_1_"  overflow="visible"/>
		</clipPath>
		<path clip-path="url(#SVGID_2_)" fill="#DF2E54" d="M370.006,386.942c-10.15-32.988-1.838-41.102-0.035-42.339h-67.367v8.929
			c-0.086-0.001-0.172-0.005-0.258-0.005h-0.001c-5.468,0-10.817,1.073-15.899,3.188c-5.156,2.147-9.742,5.243-13.629,9.202
			c-3.752,3.821-6.691,8.278-8.738,13.246c-2.047,4.969-3.102,10.203-3.131,15.557c-0.032,5.546,1.041,10.975,3.188,16.132
			c3.205,7.696,8.574,14.17,15.527,18.72c6.779,4.435,14.632,6.778,22.71,6.778c0.077,0,0.155-0.002,0.231-0.002v30.354
			C316.24,461.278,384.761,434.896,370.006,386.942 M302.372,428.325c-13.075,0-25.487-7.733-30.826-20.558
			c-7.085-17.018,0.967-36.557,17.983-43.641c4.194-1.746,8.541-2.573,12.815-2.573c0.087,0,0.173,0.004,0.259,0.005v66.763
			C302.527,428.323,302.449,428.325,302.372,428.325"/>
	</g>
</g>
<path fill="#FFFFFF" d="M315.453,425.268c-17.018,7.086-36.556-0.967-43.641-17.984s0.967-36.556,17.984-43.642
	c17.018-7.085,36.557,0.967,43.642,17.985C340.522,398.645,332.471,418.183,315.453,425.268"/>
<g opacity="0.4">
	<g>
		<defs>
			<rect id="SVGID_3_" x="232.27" y="298.82" width="139.811" height="168.06"/>
		</defs>
		<clipPath id="SVGID_4_">
			<use xlink:href="#SVGID_3_"  overflow="visible"/>
		</clipPath>
		<path clip-path="url(#SVGID_4_)" fill="#FFFFFF" d="M302.172,312.885c8.377,4.037,25.287,10.076,54.196,12.174v14.625
			c-1.491,2.458-2.888,5.657-3.813,9.769c-2.387,10.613-0.951,24.591,4.265,41.547c2.329,7.568,1.856,14.6-1.444,21.499
			c-3.051,6.373-8.518,12.725-16.251,18.875c-12.737,10.132-28.211,17.049-36.952,20.637c-8.742-3.588-24.216-10.505-36.951-20.637
			c-7.733-6.15-13.201-12.502-16.252-18.875c-3.301-6.898-3.773-13.931-1.445-21.499c5.231-17.001,6.613-31.022,4.109-41.675
			c-0.963-4.098-2.39-7.283-3.908-9.729v-14.542C269.863,323.416,289.301,319.09,302.172,312.885 M302.172,298.824
			c-1.727,0-3.453,0.347-4.795,1.037c-9.941,5.12-29.271,10.588-57.984,11.864c-3.016,0.134-5.465,2.57-5.465,5.589v27.161
			c0,0,11.264,7.193,0.41,42.466c-14.918,48.482,55.285,74.915,67.834,79.934c12.549-5.019,82.752-31.451,67.834-79.934
			c-10.854-35.272,0.159-42.466,0.159-42.466v-27.161c0-3.019-2.448-5.455-5.465-5.589c-28.713-1.276-47.791-6.744-57.733-11.864
			C305.624,299.171,303.898,298.824,302.172,298.824"/>
	</g>
</g>
<polygon fill="#F26C7C" points="302.445,361.887 301.818,391.361 306.709,395.501 334.554,395.877 335.307,388.602 327.781,373.802 
	314.988,364.145 "/>
<path fill="#191818" d="M302.117,370.255c0,0-0.001,0.02-0.004,0.053h0.01C302.119,370.275,302.117,370.255,302.117,370.255"/>
<path fill="#191818" d="M302.121,370.282c0,0.014,0.536,0.026,1.195,0.026c0.658,0,1.193-0.561,1.193-1.254v-5.77
	c0-0.692-0.563-1.254-1.256-1.254h-1.636c-0.692,0-1.254,0.562-1.254,1.254v5.77c0,0.693,0.392,1.254,0.874,1.254
	c0.484,0,0.876-0.012,0.877-0.026C302.116,370.267,302.119,370.267,302.121,370.282"/>
<path fill="#191818" d="M335.298,395.709v-1.636c0-0.693-0.562-1.255-1.255-1.255h-5.686c-0.693,0-1.254,0.562-1.254,1.255v1.636
	c0,0.693,0.561,1.254,1.254,1.254h5.686C334.736,396.963,335.298,396.402,335.298,395.709"/>
<path fill="#191818" d="M269.576,394.073v1.636c0,0.693,0.561,1.255,1.254,1.255h5.519c0.692,0,1.254-0.562,1.254-1.255v-1.636
	c0-0.693-0.562-1.254-1.254-1.254h-5.519C270.137,392.819,269.576,393.38,269.576,394.073"/>
<path fill="#191818" d="M301.619,427.752h1.635c0.693,0,1.256-0.562,1.256-1.254v-5.436c0-0.692-0.563-1.254-1.256-1.254h-1.635
	c-0.693,0-1.255,0.562-1.255,1.254v5.436C300.364,427.19,300.926,427.752,301.619,427.752"/>
<path fill="#191818" d="M286.006,366.433c-0.6,0.346-0.806,1.113-0.459,1.713l2.85,4.936c0.346,0.6,1.115,0.808,1.717,0.466
	c0.602-0.343,0.811-1.107,0.463-1.707l-2.857-4.948C287.373,366.292,286.605,366.087,286.006,366.433"/>
<path fill="#191818" d="M273.979,378.46c-0.347,0.6-0.142,1.367,0.459,1.713l4.867,2.811c0.6,0.346,1.363,0.138,1.705-0.464
	c0.344-0.602,0.134-1.371-0.467-1.718l-4.852-2.801C275.092,377.655,274.324,377.86,273.979,378.46"/>
<path fill="#191818" d="M273.979,411.321c0.346,0.601,1.113,0.806,1.713,0.46l4.719-2.726c0.601-0.346,0.805-1.112,0.457-1.711
	c-0.349-0.599-1.117-0.804-1.717-0.458l-4.713,2.722C273.837,409.955,273.632,410.722,273.979,411.321"/>
<path fill="#191818" d="M286.006,423.35c0.6,0.346,1.367,0.141,1.713-0.459l2.711-4.693c0.346-0.601,0.14-1.365-0.461-1.709
	c-0.602-0.346-1.369-0.138-1.717,0.463l-2.705,4.686C285.2,422.236,285.406,423.004,286.006,423.35"/>
<path fill="#191818" d="M318.867,423.35c0.6-0.346,0.806-1.113,0.459-1.713l-2.745-4.755c-0.347-0.601-1.115-0.808-1.718-0.466
	c-0.602,0.343-0.809,1.106-0.463,1.707l2.754,4.768C317.5,423.49,318.268,423.695,318.867,423.35"/>
<path fill="#191818" d="M330.895,411.321c0.348-0.6,0.141-1.366-0.459-1.713l-4.85-2.801c-0.6-0.346-1.364-0.139-1.706,0.464
	c-0.343,0.602-0.134,1.371,0.467,1.719l4.835,2.791C329.781,412.127,330.549,411.922,330.895,411.321"/>
<path fill="#191818" d="M330.895,378.46c-0.346-0.6-1.113-0.805-1.713-0.459l-4.99,2.881c-0.6,0.346-0.804,1.113-0.455,1.712
	c0.348,0.598,1.115,0.803,1.715,0.457l4.984-2.878C331.035,379.828,331.242,379.061,330.895,378.46"/>
<path fill="#191818" d="M318.867,366.433c-0.6-0.346-1.367-0.141-1.713,0.459l-2.897,5.017c-0.346,0.6-0.14,1.365,0.462,1.71
	c0.602,0.344,1.369,0.137,1.715-0.463l2.893-5.01C319.673,367.546,319.467,366.779,318.867,366.433"/>
<path fill="#191818" d="M302.372,430.398c-14.367,0-27.218-8.57-32.74-21.834c-7.513-18.045,1.056-38.838,19.101-46.351
	c4.354-1.813,8.934-2.732,13.613-2.732c14.365,0,27.217,8.57,32.738,21.833c3.641,8.741,3.657,18.376,0.049,27.13
	c-3.607,8.756-10.408,15.582-19.148,19.221C311.629,429.479,307.05,430.398,302.372,430.398 M302.346,363.627
	c-4.13,0-8.174,0.812-12.02,2.413c-15.936,6.635-23.502,24.997-16.868,40.932c4.877,11.713,16.226,19.281,28.914,19.281
	c4.128,0,8.172-0.812,12.019-2.413c7.719-3.214,13.726-9.242,16.91-16.973c3.188-7.731,3.172-16.24-0.043-23.959
	C326.381,371.195,315.033,363.627,302.346,363.627"/>
<rect x="292.997" y="391.5" transform="matrix(0.544 0.8391 -0.8391 0.544 470.1779 -64.5804)" fill="#F26C7C" width="3.011" height="17.534"/>
<path fill="#191818" d="M297.975,395.621c0.008,2.295,1.873,4.151,4.168,4.146c2.295-0.007,4.151-1.873,4.146-4.168
	c-0.007-2.296-4.025-18.447-4.025-18.447S297.969,393.326,297.975,395.621"/>
<path fill="#191818" d="M302.825,391.594c-2.296-0.029-4.179,1.808-4.208,4.103c-0.03,2.296,1.807,4.18,4.103,4.209
	c2.294,0.029,18.511-4.04,18.511-4.04S305.12,391.623,302.825,391.594"/>
<path fill="#191818" d="M302.172,307.19c0.527,0,0.895,0.091,1.006,0.13c13.142,6.754,34.396,11.326,58.621,12.638v21.353
	c-1.469,2.076-2.99,5.087-3.945,9.333c-2.178,9.679-0.778,22.718,4.156,38.758c5.107,16.6-1.272,31.719-19.505,46.221
	c-14.388,11.444-31.921,18.869-40.333,22.248c-8.412-3.379-25.945-10.804-40.332-22.248c-18.232-14.502-24.613-29.621-19.506-46.221
	c4.943-16.066,6.294-29.133,4.014-38.836c-0.998-4.241-2.556-7.243-4.054-9.313v-21.295c24.394-1.318,45.743-5.89,58.872-12.638
	C301.278,307.281,301.645,307.19,302.172,307.19 M302.172,298.824c-1.727,0-3.453,0.346-4.795,1.037
	c-9.941,5.12-29.271,10.588-57.984,11.864c-3.016,0.134-5.465,2.57-5.465,5.589v27.161c0,0,11.264,7.193,0.41,42.466
	c-14.918,48.482,55.285,74.915,67.834,79.934c12.549-5.019,82.752-31.451,67.834-79.934c-10.854-35.272,0.159-42.466,0.159-42.466
	v-27.161c0-3.019-2.448-5.455-5.465-5.589c-28.713-1.276-47.791-6.744-57.733-11.864
	C305.624,299.17,303.898,298.824,302.172,298.824"/>
<path fill="#191818" d="M370.166,317.315c0-3.02-2.449-5.456-5.466-5.59c-28.713-1.275-47.791-6.743-57.733-11.864
	c-2.685-1.382-6.905-1.382-9.59,0c-9.941,5.121-29.271,10.589-57.984,11.864c-3.016,0.134-5.465,2.57-5.465,5.59v27.16
	c0,0,0.069,0.042,0.194,0.128h135.849c0.125-0.086,0.195-0.128,0.195-0.128V317.315z"/>
<path fill="#FFFFFF" d="M278.611,332.971l2.439-2.589c1.053,1.385,2.469,2.168,4.185,2.168c1.927,0,3.04-1.475,3.04-3.162
	c0-1.986-1.054-3.161-2.859-3.161c-1.355,0-2.379,0.482-3.313,1.656l-2.92-0.783v-11.409h12.043v3.551h-8.009v5.149
	c0.784-0.963,2.138-1.656,3.673-1.656c3.041,0,5.48,2.379,5.48,6.533c0,4.034-2.74,6.864-7.016,6.864
	C282.256,336.132,280.117,334.988,278.611,332.971"/>
<path fill="#FFFFFF" d="M294.295,325.745c0-5.178,2.137-10.355,7.104-10.355c4.997,0,7.104,5.178,7.104,10.355
	c0,5.148-2.076,10.388-7.104,10.388C296.432,336.133,294.295,330.894,294.295,325.745 M304.41,325.745
	c0-3.883-0.662-6.772-3.011-6.772c-2.317,0-2.979,2.89-2.979,6.772c0,3.854,0.662,6.805,2.979,6.805
	C303.748,332.55,304.41,329.6,304.41,325.745"/>
<path fill="#FFFFFF" d="M310.459,325.745c0-5.178,2.137-10.355,7.104-10.355c4.998,0,7.106,5.178,7.106,10.355
	c0,5.148-2.078,10.388-7.106,10.388C312.596,336.133,310.459,330.894,310.459,325.745 M320.574,325.745
	c0-3.883-0.662-6.772-3.011-6.772c-2.317,0-2.979,2.89-2.979,6.772c0,3.854,0.662,6.805,2.979,6.805
	C319.912,332.55,320.574,329.6,320.574,325.745"/>
<polygon fill="#FFFFFF" points="273.117,323.988 265.66,322.857 262.338,315.76 259.019,322.857 251.56,323.988 256.949,329.522 
	255.602,337.317 262.338,333.637 269.075,337.317 267.729,329.522 "/>
<polygon fill="#FFFFFF" points="352.785,323.988 345.325,322.857 342.006,315.76 338.685,322.857 331.227,323.988 336.615,329.522 
	335.269,337.317 342.006,333.637 348.742,337.317 347.395,329.522 "/>
<path fill="#010101" d="M394.813,379.329c0.146,1.75-0.152,3.623,0.188,5.469c0.328,0.773,0.592,1.553,0.873,2.348
	c0.818,2.085,1.732,3.99,3.31,4.866c1.284-2.557,2.463-5.286,2.743-8.496c-0.084-2.099-0.51-4.063-1.249-5.929
	c-1.149-2.939-3.062-5.579-5.612-7.85c-0.082-0.08-0.144-0.111-0.187-0.171l-0.415-0.012c0.093,0.273,0.165,0.577,0.247,0.886
	C395.388,373.326,395.093,376.118,394.813,379.329"/>
<path fill="#010101" d="M395.012,397.108c-1.818-3.577-5.513-6.851-6.38-10.245l-0.532-0.223c-1.336,3.336-1.192,7.327-0.168,10.951
	c1.108,4.704,3.424,8.369,4.508,12.994c0.193,0.89,0.354,1.775,0.459,2.742c6.955-5.049,13.369-10.809,15.182-19.897l-12.193,6.129
	C395.723,398.713,395.395,397.874,395.012,397.108"/>
<path fill="#010101" d="M375.408,438.267c-0.916-0.018-1.783-0.026-2.638,0.015c3.211-4.571,2.29-10.164,4.058-15.119l-0.017-0.22
	c-5.329,2.009-8.124,6.7-10.731,11.657c-1.861,3.592-3.683,7.274-6.339,9.994c1.109,0.08,2.153,0.229,3.234,0.388
	c1.122,0.163,2.274,0.386,3.435,0.692c2.307,0.135,4.581,0.238,6.732,0.167c4.035-0.171,7.795-0.854,11.037-2.606
	c1.501-0.798,2.902-1.849,4.131-3.16c-0.949-0.154-1.992-0.343-3.028-0.525C382.018,438.994,378.584,438.425,375.408,438.267"/>
<path fill="#010101" d="M388.408,422.693c-1.494-5.036-4.273-10.122-3.865-15.642l-0.142-0.219l-0.374,0.165
	c-0.045,0.036-0.097,0.107-0.102,0.145c-0.291,0.5-0.6,0.785-1.135,1.299c-3.806,6.707-3.23,14.78-1.276,21.921
	c0.321,1.176,0.653,2.295,1.063,3.425c3.422-2.676,7.644-3.359,11.441-5.307c0.342-0.207,0.677-0.369,1.029-0.582
	c3.66-2.641,5.887-7.006,6.842-11.183c-2.373,0.757-4.7,1.368-6.876,2.187C392.67,419.748,390.406,420.89,388.408,422.693"/>
<path fill="#010101" d="M209.609,379.459c-0.24,1.74-0.044,3.626-0.482,5.45c-0.369,0.755-0.674,1.52-0.997,2.299
	c-0.931,2.037-1.947,3.89-3.568,4.679c-1.146-2.621-2.175-5.409-2.28-8.631c0.196-2.091,0.726-4.029,1.565-5.853
	c1.308-2.873,3.358-5.406,6.028-7.536c0.086-0.075,0.148-0.104,0.195-0.161l0.414,0.011c-0.107,0.267-0.195,0.567-0.295,0.871
	C209.359,373.434,209.502,376.237,209.609,379.459"/>
<path fill="#010101" d="M209.333,397.108c1.817-3.577,5.513-6.851,6.379-10.245l0.532-0.223c1.336,3.336,1.192,7.327,0.168,10.951
	c-1.108,4.704-3.424,8.369-4.508,12.994c-0.193,0.89-0.354,1.775-0.459,2.742c-6.955-5.049-13.369-10.809-15.182-19.897
	l12.194,6.129C208.621,398.713,208.951,397.874,209.333,397.108"/>
<path fill="#010101" d="M228.936,438.267c0.916-0.018,1.783-0.026,2.638,0.015c-3.211-4.571-2.29-10.164-4.058-15.119l0.017-0.22
	c5.329,2.009,8.124,6.7,10.731,11.657c1.861,3.592,3.683,7.274,6.339,9.994c-1.109,0.08-2.153,0.229-3.234,0.388
	c-1.122,0.163-2.274,0.386-3.435,0.692c-2.307,0.135-4.581,0.238-6.732,0.167c-4.035-0.171-7.795-0.854-11.037-2.606
	c-1.501-0.798-2.902-1.849-4.131-3.16c0.949-0.154,1.992-0.343,3.028-0.525C222.326,438.994,225.76,438.425,228.936,438.267"/>
<path fill="#010101" d="M215.936,422.693c1.494-5.036,4.274-10.122,3.864-15.642l0.144-0.219l0.373,0.165
	c0.045,0.036,0.098,0.107,0.101,0.145c0.293,0.5,0.602,0.785,1.137,1.299c3.806,6.707,3.229,14.78,1.274,21.921
	c-0.319,1.176-0.652,2.295-1.062,3.425c-3.423-2.676-7.644-3.359-11.442-5.307c-0.342-0.207-0.678-0.369-1.03-0.582
	c-3.659-2.641-5.886-7.006-6.841-11.183c2.373,0.757,4.701,1.368,6.875,2.187C211.675,419.748,213.938,420.89,215.936,422.693"/>
<path fill="#1A1A19" d="M302.146,471.469c-3.511-1.403-11.533-5.484-20.94-10.254v14.698c11.415,7.015,20.567,11.113,20.567,11.113
	l0.399-0.001l0.398,0.001c0,0,9.152-4.099,20.568-11.113v-14.726c-9.063,4.597-16.848,8.632-20.561,10.109
	C302.428,471.356,302.282,471.415,302.146,471.469"/>
<path fill="#1A1A19" d="M248.875,450.546c8.119,9.569,19.146,17.858,29.014,24.17v-15.223c-9.688-5.162-20.401-12.017-29.014-20.576
	V450.546z"/>
<path fill="#1A1A19" d="M326.455,474.717c9.868-6.313,20.895-14.602,29.014-24.17V438.86c-8.606,8.57-19.317,15.433-29.014,20.603
	V474.717z"/>
</svg>
