<?xml version="1.0" encoding="utf-8"?>
<!-- Generator: Adobe Illustrator 16.0.0, SVG Export Plug-In . SVG Version: 6.00 Build 0)  -->
<!DOCTYPE svg PUBLIC "-//W3C//DTD SVG 1.1//EN" "http://www.w3.org/Graphics/SVG/1.1/DTD/svg11.dtd">
<svg version="1.1" id="Layer_1" xmlns="http://www.w3.org/2000/svg" xmlns:xlink="http://www.w3.org/1999/xlink" x="0px" y="0px"
	 width="240px" height="195px" viewBox="0 0 240 195" enable-background="new 0 0 240 195" xml:space="preserve">
<path fill="none" d="M78.63-2257.76"/>
<path fill="none" d="M78.63,987.837"/>
<path fill="none" d="M51.764,1616.837"/>
<path fill="none" d="M51.764-1628.76"/>
<line fill="#929497" x1="1530.52" y1="-66.557" x2="1530.52" y2="-65.807"/>
<line fill="#929497" x1="-611.484" y1="-65.807" x2="-611.484" y2="-66.557"/>
<path fill="#F26D7C" d="M188.006,92.942c-10.15-32.988-1.838-41.102-0.035-42.34h-67.367H52.123
	c1.804,1.238,10.366,9.352,0.216,42.34c-14.918,48.48,55.285,74.916,67.834,79.934c0.137-0.055,0.282-0.112,0.432-0.172
	C134.241,167.278,202.762,140.896,188.006,92.942"/>
<g opacity="0.5">
	<g>
		<g>
			<defs>
				<rect id="SVGID_1_" x="78.95" y="50.6" width="111.13" height="122.101"/>
			</defs>
			<clipPath id="SVGID_2_">
				<use xlink:href="#SVGID_1_"  overflow="visible"/>
			</clipPath>
			<path clip-path="url(#SVGID_2_)" fill="#DF2F55" d="M188.006,92.942c-10.15-32.988-1.838-41.103-0.035-42.34h-67.367v8.93
				c-0.086-0.001-0.172-0.005-0.258-0.005h-0.001c-5.468,0-10.817,1.072-15.899,3.188c-5.156,2.147-9.742,5.243-13.629,9.202
				c-3.752,3.821-6.691,8.278-8.738,13.246c-2.047,4.969-3.102,10.203-3.131,15.557c-0.032,5.546,1.041,10.976,3.188,16.132
				c3.205,7.696,8.574,14.17,15.527,18.721c6.779,4.435,14.632,6.777,22.71,6.777c0.077,0,0.155-0.002,0.231-0.002v30.354
				C134.24,167.278,202.761,140.896,188.006,92.942 M120.372,134.325c-13.075,0-25.487-7.733-30.826-20.559
				c-7.085-17.018,0.967-36.557,17.983-43.641c4.194-1.746,8.541-2.573,12.815-2.573c0.087,0,0.173,0.004,0.259,0.005v66.764
				C120.527,134.323,120.449,134.325,120.372,134.325"/>
		</g>
	</g>
</g>
<path fill="#FFFFFF" d="M133.453,131.268c-17.018,7.086-36.556-0.967-43.641-17.983c-7.085-17.018,0.967-36.557,17.984-43.643
	c17.019-7.085,36.558,0.968,43.642,17.985S150.471,124.183,133.453,131.268"/>
<g opacity="0.4">
	<g>
		<g>
			<defs>
				<rect id="SVGID_3_" x="50.27" y="4.82" width="139.811" height="168.06"/>
			</defs>
			<clipPath id="SVGID_4_">
				<use xlink:href="#SVGID_3_"  overflow="visible"/>
			</clipPath>
			<path clip-path="url(#SVGID_4_)" fill="#FFFFFF" d="M120.172,18.885c8.377,4.037,25.287,10.076,54.196,12.174v14.625
				c-1.491,2.458-2.888,5.657-3.813,9.77c-2.387,10.613-0.951,24.591,4.266,41.547c2.328,7.568,1.855,14.6-1.444,21.499
				c-3.051,6.373-8.519,12.725-16.251,18.875c-12.736,10.132-28.211,17.049-36.952,20.637c-8.742-3.588-24.216-10.505-36.951-20.637
				c-7.733-6.15-13.201-12.502-16.252-18.875c-3.301-6.898-3.773-13.931-1.445-21.499c5.231-17.001,6.613-31.021,4.109-41.675
				c-0.963-4.099-2.39-7.283-3.908-9.729V31.054C87.863,29.416,107.301,25.09,120.172,18.885 M120.172,4.824
				c-1.727,0-3.453,0.347-4.795,1.037c-9.941,5.12-29.271,10.588-57.984,11.864c-3.016,0.135-5.465,2.57-5.465,5.59v27.16
				c0,0,11.264,7.193,0.41,42.467c-14.918,48.481,55.285,74.915,67.834,79.934c12.549-5.019,82.752-31.451,67.834-79.934
				c-10.854-35.272,0.159-42.467,0.159-42.467v-27.16c0-3.02-2.448-5.455-5.465-5.59c-28.714-1.275-47.791-6.744-57.733-11.864
				C123.624,5.171,121.898,4.824,120.172,4.824"/>
		</g>
	</g>
</g>
<polygon fill="#F26D7C" points="120.445,67.887 119.818,97.361 124.709,101.501 152.555,101.877 153.307,94.602 145.781,79.802 
	132.988,70.145 "/>
<path fill="#191818" d="M120.117,76.255c0,0-0.001,0.021-0.004,0.053h0.01C120.119,76.275,120.117,76.255,120.117,76.255"/>
<path fill="#191818" d="M120.121,76.282c0,0.014,0.536,0.025,1.195,0.025c0.658,0,1.192-0.561,1.192-1.254v-5.77
	c0-0.692-0.563-1.254-1.256-1.254h-1.636c-0.692,0-1.254,0.562-1.254,1.254v5.77c0,0.693,0.392,1.254,0.874,1.254
	c0.484,0,0.876-0.012,0.877-0.025C120.116,76.267,120.119,76.267,120.121,76.282"/>
<path fill="#191818" d="M153.298,101.709v-1.636c0-0.693-0.562-1.255-1.255-1.255h-5.686c-0.693,0-1.254,0.562-1.254,1.255v1.636
	c0,0.693,0.561,1.254,1.254,1.254h5.686C152.736,102.963,153.298,102.402,153.298,101.709"/>
<path fill="#191818" d="M87.576,100.073v1.636c0,0.693,0.561,1.255,1.254,1.255h5.519c0.692,0,1.254-0.562,1.254-1.255v-1.636
	c0-0.693-0.562-1.254-1.254-1.254H88.83C88.137,98.819,87.576,99.38,87.576,100.073"/>
<path fill="#191818" d="M119.619,133.752h1.635c0.693,0,1.256-0.562,1.256-1.254v-5.436c0-0.692-0.563-1.255-1.256-1.255h-1.635
	c-0.693,0-1.255,0.563-1.255,1.255v5.436C118.364,133.19,118.926,133.752,119.619,133.752"/>
<path fill="#191818" d="M104.006,72.433c-0.6,0.347-0.806,1.113-0.459,1.714l2.85,4.936c0.346,0.6,1.115,0.808,1.717,0.466
	c0.602-0.343,0.811-1.106,0.463-1.707l-2.857-4.948C105.373,72.292,104.605,72.087,104.006,72.433"/>
<path fill="#191818" d="M91.979,84.46c-0.347,0.6-0.142,1.367,0.459,1.713l4.867,2.812c0.6,0.346,1.363,0.138,1.705-0.465
	c0.344-0.602,0.134-1.37-0.467-1.718l-4.852-2.801C93.092,83.655,92.324,83.86,91.979,84.46"/>
<path fill="#191818" d="M91.979,117.321c0.346,0.601,1.113,0.806,1.713,0.46l4.719-2.727c0.601-0.346,0.805-1.111,0.457-1.711
	c-0.349-0.599-1.117-0.804-1.717-0.458l-4.713,2.723C91.837,115.955,91.632,116.722,91.979,117.321"/>
<path fill="#191818" d="M104.006,129.35c0.6,0.347,1.367,0.142,1.713-0.459l2.711-4.692c0.346-0.602,0.14-1.365-0.461-1.709
	c-0.602-0.347-1.369-0.139-1.717,0.463l-2.705,4.686C103.2,128.236,103.406,129.004,104.006,129.35"/>
<path fill="#191818" d="M136.867,129.35c0.6-0.346,0.806-1.112,0.459-1.713l-2.745-4.755c-0.347-0.601-1.115-0.808-1.718-0.466
	c-0.602,0.343-0.809,1.105-0.463,1.707l2.754,4.768C135.5,129.49,136.268,129.695,136.867,129.35"/>
<path fill="#191818" d="M148.895,117.321c0.349-0.601,0.142-1.366-0.459-1.713l-4.85-2.802c-0.6-0.346-1.363-0.139-1.706,0.465
	c-0.343,0.602-0.134,1.37,0.468,1.719l4.834,2.791C147.781,118.127,148.549,117.922,148.895,117.321"/>
<path fill="#191818" d="M148.895,84.46c-0.346-0.6-1.112-0.805-1.713-0.459l-4.99,2.881c-0.6,0.346-0.803,1.113-0.455,1.712
	c0.349,0.599,1.115,0.804,1.716,0.457l4.983-2.878C149.035,85.828,149.242,85.061,148.895,84.46"/>
<path fill="#191818" d="M136.867,72.433c-0.6-0.346-1.367-0.141-1.713,0.459l-2.897,5.018c-0.346,0.6-0.14,1.365,0.462,1.71
	c0.602,0.344,1.369,0.137,1.715-0.463l2.894-5.01C137.673,73.546,137.467,72.779,136.867,72.433"/>
<path fill="#191818" d="M120.372,136.398c-14.367,0-27.218-8.57-32.74-21.834c-7.513-18.046,1.056-38.839,19.101-46.352
	c4.354-1.813,8.934-2.731,13.613-2.731c14.365,0,27.216,8.569,32.738,21.833c3.641,8.74,3.657,18.376,0.049,27.13
	c-3.607,8.756-10.408,15.582-19.148,19.221C129.629,135.479,125.05,136.398,120.372,136.398 M120.346,69.627
	c-4.13,0-8.174,0.813-12.02,2.413c-15.936,6.635-23.502,24.997-16.868,40.932c4.877,11.713,16.226,19.281,28.914,19.281
	c4.128,0,8.172-0.812,12.019-2.413c7.719-3.214,13.727-9.242,16.91-16.973c3.188-7.731,3.172-16.24-0.043-23.959
	C144.381,77.195,133.033,69.627,120.346,69.627"/>
<rect x="111.017" y="97.515" transform="matrix(-0.5439 -0.8391 0.8391 -0.5439 84.5412 258.5128)" fill="#F26D7C" width="3.012" height="17.534"/>
<path fill="#191818" d="M115.975,101.621c0.008,2.295,1.873,4.151,4.168,4.146c2.294-0.007,4.151-1.873,4.146-4.168
	c-0.007-2.296-4.025-18.446-4.025-18.446S115.969,99.326,115.975,101.621"/>
<path fill="#191818" d="M120.825,97.594c-2.296-0.028-4.179,1.809-4.208,4.104c-0.03,2.296,1.807,4.18,4.103,4.209
	c2.293,0.028,18.51-4.04,18.51-4.04S123.12,97.623,120.825,97.594"/>
<path fill="#191818" d="M120.172,13.19c0.527,0,0.895,0.091,1.006,0.13c13.143,6.754,34.396,11.326,58.621,12.638v21.353
	c-1.469,2.076-2.99,5.088-3.945,9.333c-2.178,9.68-0.777,22.719,4.156,38.759c5.107,16.6-1.271,31.719-19.505,46.221
	c-14.388,11.444-31.921,18.869-40.333,22.248c-8.412-3.379-25.945-10.804-40.332-22.248c-18.232-14.502-24.613-29.621-19.506-46.221
	c4.943-16.066,6.294-29.134,4.014-38.836c-0.998-4.241-2.556-7.243-4.054-9.313V25.958c24.394-1.318,45.743-5.89,58.872-12.638
	C119.278,13.281,119.645,13.19,120.172,13.19 M120.172,4.824c-1.727,0-3.453,0.346-4.795,1.037
	c-9.941,5.12-29.271,10.588-57.984,11.864c-3.016,0.135-5.465,2.57-5.465,5.59v27.16c0,0,11.264,7.193,0.41,42.467
	c-14.918,48.481,55.285,74.915,67.834,79.934c12.549-5.019,82.752-31.451,67.834-79.934c-10.854-35.272,0.159-42.467,0.159-42.467
	v-27.16c0-3.02-2.448-5.455-5.465-5.59c-28.714-1.275-47.791-6.744-57.733-11.864C123.624,5.17,121.898,4.824,120.172,4.824"/>
<path fill="#191818" d="M188.166,23.315c0-3.021-2.449-5.456-5.466-5.591c-28.714-1.274-47.791-6.743-57.733-11.864
	c-2.685-1.382-6.905-1.382-9.59,0c-9.941,5.121-29.271,10.589-57.984,11.864c-3.016,0.135-5.465,2.57-5.465,5.591v27.159
	c0,0,0.069,0.042,0.194,0.128h135.849c0.125-0.086,0.195-0.128,0.195-0.128V23.315z"/>
<path fill="#FFFFFF" d="M96.611,38.971l2.439-2.589c1.053,1.385,2.469,2.168,4.185,2.168c1.927,0,3.04-1.475,3.04-3.162
	c0-1.985-1.054-3.161-2.859-3.161c-1.355,0-2.379,0.482-3.313,1.656l-2.92-0.783V21.691h12.043v3.551h-8.009v5.148
	c0.784-0.963,2.138-1.655,3.673-1.655c3.041,0,5.48,2.379,5.48,6.532c0,4.034-2.74,6.864-7.016,6.864
	C100.256,42.132,98.117,40.988,96.611,38.971"/>
<path fill="#FFFFFF" d="M112.295,31.745c0-5.178,2.137-10.355,7.104-10.355c4.998,0,7.104,5.179,7.104,10.355
	c0,5.147-2.075,10.388-7.104,10.388C114.432,42.133,112.295,36.894,112.295,31.745 M122.41,31.745c0-3.883-0.662-6.772-3.011-6.772
	c-2.317,0-2.979,2.891-2.979,6.772c0,3.854,0.662,6.805,2.979,6.805C121.748,38.55,122.41,35.6,122.41,31.745"/>
<path fill="#FFFFFF" d="M128.459,31.745c0-5.178,2.137-10.355,7.104-10.355c4.998,0,7.106,5.179,7.106,10.355
	c0,5.147-2.078,10.388-7.106,10.388C130.596,42.133,128.459,36.894,128.459,31.745 M138.574,31.745c0-3.883-0.662-6.772-3.012-6.772
	c-2.316,0-2.979,2.891-2.979,6.772c0,3.854,0.662,6.805,2.979,6.805C137.912,38.55,138.574,35.6,138.574,31.745"/>
<polygon fill="#FFFFFF" points="91.117,29.988 83.66,28.857 80.338,21.76 77.019,28.857 69.56,29.988 74.949,35.522 73.602,43.317 
	80.338,39.637 87.075,43.317 85.729,35.522 "/>
<polygon fill="#FFFFFF" points="170.785,29.988 163.325,28.857 160.006,21.76 156.686,28.857 149.227,29.988 154.615,35.522 
	153.27,43.317 160.006,39.637 166.742,43.317 165.395,35.522 "/>
<path fill="#020202" d="M212.813,85.329c0.146,1.75-0.151,3.623,0.188,5.469c0.328,0.773,0.592,1.553,0.873,2.349
	c0.818,2.085,1.731,3.989,3.31,4.865c1.284-2.557,2.463-5.286,2.743-8.496c-0.084-2.099-0.51-4.063-1.249-5.929
	c-1.148-2.938-3.062-5.579-5.611-7.85c-0.082-0.08-0.145-0.111-0.188-0.171l-0.415-0.013c0.093,0.273,0.165,0.577,0.247,0.887
	C213.389,79.326,213.093,82.118,212.813,85.329"/>
<path fill="#020202" d="M213.012,103.108c-1.818-3.577-5.513-6.852-6.38-10.245L206.1,92.64c-1.336,3.336-1.191,7.327-0.168,10.951
	c1.108,4.704,3.424,8.369,4.508,12.994c0.193,0.89,0.354,1.775,0.459,2.742c6.955-5.049,13.369-10.81,15.183-19.897l-12.192,6.129
	C213.723,104.713,213.395,103.874,213.012,103.108"/>
<path fill="#020202" d="M193.408,144.267c-0.916-0.018-1.783-0.025-2.639,0.016c3.211-4.571,2.291-10.164,4.059-15.119l-0.018-0.22
	c-5.328,2.009-8.123,6.699-10.73,11.656c-1.861,3.593-3.684,7.274-6.339,9.994c1.108,0.08,2.153,0.229,3.233,0.389
	c1.123,0.162,2.274,0.386,3.436,0.691c2.307,0.135,4.581,0.238,6.732,0.167c4.035-0.171,7.795-0.854,11.037-2.605
	c1.5-0.798,2.901-1.85,4.131-3.16c-0.949-0.154-1.992-0.343-3.028-0.525C200.018,144.994,196.584,144.425,193.408,144.267"/>
<path fill="#020202" d="M206.408,128.693c-1.494-5.036-4.273-10.122-3.865-15.643l-0.143-0.219l-0.373,0.165
	c-0.045,0.036-0.098,0.106-0.103,0.145c-0.291,0.5-0.6,0.785-1.135,1.3c-3.806,6.707-3.229,14.779-1.276,21.921
	c0.321,1.176,0.653,2.295,1.063,3.425c3.422-2.676,7.644-3.359,11.44-5.307c0.342-0.207,0.678-0.369,1.029-0.582
	c3.66-2.642,5.887-7.007,6.842-11.184c-2.373,0.757-4.699,1.368-6.875,2.188C210.67,125.748,208.406,126.89,206.408,128.693"/>
<path fill="#020202" d="M27.609,85.459c-0.24,1.74-0.044,3.626-0.482,5.45c-0.369,0.755-0.674,1.52-0.997,2.299
	c-0.931,2.037-1.947,3.89-3.568,4.679c-1.146-2.621-2.175-5.408-2.28-8.631c0.196-2.091,0.726-4.029,1.565-5.853
	c1.308-2.873,3.358-5.406,6.028-7.536c0.086-0.075,0.148-0.104,0.195-0.161l0.414,0.011c-0.107,0.268-0.195,0.567-0.295,0.871
	C27.359,79.434,27.502,82.237,27.609,85.459"/>
<path fill="#020202" d="M27.333,103.108c1.817-3.577,5.513-6.852,6.379-10.245l0.532-0.224c1.336,3.336,1.192,7.327,0.168,10.951
	c-1.108,4.704-3.424,8.369-4.508,12.994c-0.193,0.89-0.354,1.775-0.459,2.742c-6.955-5.049-13.369-10.81-15.182-19.897l12.194,6.129
	C26.621,104.713,26.951,103.874,27.333,103.108"/>
<path fill="#020202" d="M46.936,144.267c0.916-0.018,1.783-0.025,2.638,0.016c-3.211-4.571-2.29-10.164-4.058-15.119l0.017-0.22
	c5.329,2.009,8.124,6.699,10.731,11.656c1.861,3.593,3.683,7.274,6.339,9.994c-1.109,0.08-2.153,0.229-3.234,0.389
	c-1.122,0.162-2.274,0.386-3.435,0.691c-2.307,0.135-4.581,0.238-6.732,0.167c-4.035-0.171-7.795-0.854-11.037-2.605
	c-1.501-0.798-2.902-1.85-4.131-3.16c0.949-0.154,1.992-0.343,3.028-0.525C40.326,144.994,43.76,144.425,46.936,144.267"/>
<path fill="#020202" d="M33.936,128.693c1.494-5.036,4.274-10.122,3.864-15.643l0.144-0.219l0.373,0.165
	c0.045,0.036,0.098,0.106,0.101,0.145c0.293,0.5,0.602,0.785,1.137,1.3c3.806,6.707,3.229,14.779,1.274,21.921
	c-0.319,1.176-0.652,2.295-1.062,3.425c-3.423-2.676-7.644-3.359-11.442-5.307c-0.342-0.207-0.678-0.369-1.03-0.582
	c-3.659-2.642-5.886-7.007-6.841-11.184c2.373,0.757,4.701,1.368,6.875,2.188C29.675,125.748,31.938,126.89,33.936,128.693"/>
<path fill="#1A1A19" d="M120.146,177.469c-3.511-1.402-11.533-5.483-20.94-10.254v14.698c11.415,7.015,20.567,11.113,20.567,11.113
	l0.399-0.001l0.398,0.001c0,0,9.153-4.1,20.569-11.113v-14.727c-9.063,4.598-16.849,8.633-20.562,10.109
	C120.428,177.356,120.282,177.415,120.146,177.469"/>
<path fill="#1A1A19" d="M66.875,156.546c8.119,9.569,19.146,17.858,29.014,24.17v-15.223c-9.688-5.162-20.401-12.018-29.014-20.576
	V156.546z"/>
<path fill="#1A1A19" d="M144.455,180.717c9.868-6.313,20.895-14.602,29.014-24.17V144.86c-8.605,8.569-19.316,15.433-29.014,20.603
	V180.717z"/>
</svg>
