<?xml version="1.0" encoding="utf-8"?>
<!-- Generator: Adobe Illustrator 16.0.0, SVG Export Plug-In . SVG Version: 6.00 Build 0)  -->
<!DOCTYPE svg PUBLIC "-//W3C//DTD SVG 1.1//EN" "http://www.w3.org/Graphics/SVG/1.1/DTD/svg11.dtd">
<svg version="1.1" id="Layer_1" xmlns="http://www.w3.org/2000/svg" xmlns:xlink="http://www.w3.org/1999/xlink" x="0px" y="0px"
	 width="612px" height="792px" viewBox="0 0 612 792" enable-background="new 0 0 612 792" xml:space="preserve">
<path fill="none" d="M346.63,60"/>
<path fill="none" d="M346.63,3305.597"/>
<polygon fill="#F26C7C" points="326.977,304.653 326.557,294.38 302.237,284.945 277.916,294.38 277.498,304.653 261.563,310.104 
	264.709,321.006 302.237,315.765 339.766,321.006 342.91,307.595 "/>
<path fill="#010101" d="M262.235,334.265l-3.846-28.632l16.332-5.587l0.414-7.681l27.101-10.513l27.102,10.513l0.414,7.681
	l16.334,5.587l-3.848,28.632l-40.002-5.587L262.235,334.265z M302.236,322.853l35.057,4.896l2.442-18.19l-15.534-5.315l-0.425-7.848
	l-21.54-8.356l-21.539,8.356l-0.425,7.848l-15.534,5.315l2.442,18.19L302.236,322.853z"/>
<polygon fill="#010101" points="302.237,307.352 297.061,300.031 302.237,292.711 307.413,300.031 "/>
<polygon fill="#010101" points="329.771,296.207 323.445,313.626 324.107,295.105 "/>
<polygon fill="#010101" points="280.611,301.119 281.341,313.626 275.084,302.773 "/>
<path fill="#FFFFFF" d="M191.611,321.396c0.313-2.897,2.677-4.153,5.253-2.79l29.302,15.511l27.572,14.596
	c2.576,1.364,3.977,4.757,3.111,7.541l-4.1,13.18c-0.578,1.857-2.085,3.129-3.839,3.478l2.282,0.816
	c1.839,0.974,2.837,3.394,2.22,5.378l-2.974,9.538c-0.396,1.275-1.428,2.217-2.635,2.544l3.817,1.365
	c1.269,0.671,1.957,2.342,1.531,3.712l-2.119,6.769c-0.425,1.371-1.979,2.375-3.33,1.89c0,0-4.747-1.706-16.618-5.971
	c-11.871-4.267-11.633-15.437-11.633-15.437c0.072-0.681,0.4-1.238,0.859-1.564c-15.863-6.5-15.631-21.586-15.631-21.586
	c0.152-1.414,1.014-2.343,2.131-2.478C188.863,346.89,191.611,321.396,191.611,321.396"/>
<path fill="#FFFFFF" d="M412.863,321.396c-0.314-2.897-2.678-4.153-5.254-2.79l-29.301,15.511l-27.573,14.596
	c-2.577,1.364-3.976,4.757-3.11,7.541l4.099,13.18c0.578,1.857,2.085,3.129,3.839,3.478l-2.283,0.816
	c-1.837,0.974-2.836,3.394-2.218,5.378l2.972,9.538c0.397,1.275,1.43,2.217,2.635,2.544l-3.816,1.365
	c-1.268,0.671-1.957,2.342-1.531,3.712l2.119,6.769c0.426,1.371,1.98,2.375,3.331,1.89c0,0,4.746-1.706,16.617-5.971
	c11.871-4.267,11.633-15.437,11.633-15.437c-0.073-0.681-0.401-1.238-0.86-1.564c15.864-6.5,15.633-21.586,15.633-21.586
	c-0.153-1.414-1.015-2.343-2.131-2.478C415.61,346.89,412.863,321.396,412.863,321.396"/>
<polygon fill="#010101" points="200.74,350.695 248.93,379.914 199.043,353.695 "/>
<polygon fill="#010101" points="210.426,371.697 248.93,395.215 209.057,374.1 "/>
<path fill="#010101" d="M248.421,407.932c-0.581,0-1.149-0.1-1.693-0.294l-16.616-5.972c-10.936-3.929-13.641-13.631-13.543-18.21
	l0.002-0.057c-14.828-7.65-14.783-22.418-14.773-23.077l0.018-0.265c0.069-0.651,0.23-1.262,0.471-1.819
	c-6.383-5.057-10.721-12.639-12.633-22.152c-1.625-8.09-0.94-14.72-0.91-14.999c0.377-3.484,2.881-5.916,6.088-5.916
	c1.133,0,2.271,0.298,3.383,0.886l56.875,30.106c3.813,2.02,5.796,6.827,4.516,10.947l-3.574,11.49
	c0.746,0.281,1.67,0.565,2.174,0.721c1.852,0.571,3.951,1.217,3.828,3.618c-0.056,1.069-0.758,2.444-2.559,2.802l-0.259,0.039
	l-2.95,0.313c0.307,1.267,0.295,2.608-0.097,3.87l-2.974,9.54c-0.055,0.176-0.117,0.35-0.187,0.52
	c2.457,1.325,3.731,4.434,2.899,7.101l-2.119,6.771C253.062,406.231,250.804,407.932,248.421,407.932 M222.354,384.038
	c0.127,1.914,1.172,9.131,9.708,12.198l16.224,5.83l2.115-6.663c0.004-0.052-0.043-0.18-0.099-0.259l-12.128-4.337l8.877-2.404
	c0.223-0.06,0.523-0.258,0.634-0.616l2.974-9.54c0.203-0.654-0.207-1.649-0.814-1.97l-8.357-4.424l8.611-0.911
	c-0.307-0.757-0.346-1.584-0.104-2.364l4.1-13.182c0.451-1.451-0.361-3.422-1.705-4.134l-56.875-30.107
	c-0.367-0.195-0.602-0.216-0.684-0.216c-0.266,0-0.348,0.735-0.352,0.766c-0.006,0.057-0.621,6.152,0.861,13.399
	c1.92,9.385,6.286,16.223,12.979,20.323l7.068,4.331l-7.814,0.942c0.072,2.011,1.056,13.344,13.834,18.58l4.84,1.983
	L222.354,384.038z"/>
<path fill="#010101" d="M356.053,407.932L356.053,407.932c-2.381,0-4.64-1.699-5.367-4.04l-2.118-6.767
	c-0.83-2.67,0.442-5.778,2.899-7.103c-0.07-0.17-0.133-0.345-0.188-0.522l-2.972-9.536c-0.393-1.262-0.403-2.605-0.096-3.872
	L345,375.741c-1.8-0.358-2.503-1.733-2.558-2.802c-0.123-2.401,1.976-3.047,3.827-3.618c0.504-0.155,1.428-0.44,2.174-0.721
	l-3.574-11.49c-1.279-4.12,0.703-8.928,4.516-10.946l56.875-30.107c1.111-0.588,2.25-0.886,3.385-0.886
	c3.207,0,5.709,2.433,6.086,5.915c0.031,0.28,0.716,6.91-0.91,15c-1.911,9.513-6.249,17.095-12.631,22.151
	c0.238,0.557,0.4,1.168,0.471,1.818l0.018,0.267c0.009,0.659,0.053,15.428-14.774,23.077l0.001,0.057
	c0.098,4.58-2.607,14.282-13.541,18.211l-16.618,5.972C357.202,407.832,356.633,407.932,356.053,407.932 M354.166,395.146
	c-0.048,0.075-0.096,0.209-0.087,0.28l2.082,6.65l16.251-5.84c8.518-3.06,9.577-10.255,9.706-12.198l-3.892-2.773l4.84-1.983
	c12.722-5.212,13.753-16.611,13.834-18.58l-7.814-0.943l7.068-4.331c6.693-4.1,11.059-10.938,12.979-20.323
	c1.482-7.247,0.867-13.342,0.861-13.403c-0.003-0.027-0.086-0.762-0.35-0.762c-0.083,0-0.317,0.021-0.686,0.216l-56.875,30.107
	c-1.344,0.712-2.156,2.683-1.705,4.135l4.1,13.18c0.242,0.781,0.205,1.608-0.104,2.365l8.612,0.912l-8.358,4.423
	c-0.607,0.321-1.018,1.316-0.813,1.972l2.972,9.536c0.112,0.36,0.412,0.558,0.635,0.618l8.877,2.404L354.166,395.146z"/>
<polygon fill="#010101" points="405.431,353.696 355.545,379.913 403.734,350.696 "/>
<polygon fill="#010101" points="395.416,374.1 355.545,395.215 394.049,371.698 "/>
<path fill="#F26C7C" d="M370.071,398.941c-10.15-32.987-1.839-41.101-0.036-42.338h-67.366h-68.481
	c1.803,1.238,10.365,9.351,0.215,42.338c-14.918,48.481,55.285,74.916,67.834,79.935c0.137-0.055,0.283-0.112,0.433-0.172
	C316.307,473.278,384.826,446.896,370.071,398.941"/>
<g opacity="0.5">
	<g>
		<defs>
			<rect id="SVGID_1_" x="301.561" y="355.02" width="69.469" height="122.1"/>
		</defs>
		<clipPath id="SVGID_2_">
			<use xlink:href="#SVGID_1_"  overflow="visible"/>
		</clipPath>
		<path clip-path="url(#SVGID_2_)" fill="#DF2E54" d="M368.958,397.358c-10.15-32.988-1.839-41.101-0.036-42.339h-67.366v122.102
			C315.193,471.694,383.713,445.313,368.958,397.358"/>
	</g>
</g>
<path fill="#F26C7C" d="M324.945,440.504h-46.26c-4.697,0-8.504-3.807-8.504-8.503v-38.097c0-4.696,3.807-8.503,8.504-8.503h46.26
	c4.695,0,8.503,3.807,8.503,8.503v38.097C333.448,436.697,329.641,440.504,324.945,440.504"/>
<path fill="#191818" d="M324.945,442.511h-46.26c-5.796,0-10.511-4.715-10.511-10.51v-38.097c0-5.795,4.715-10.51,10.511-10.51
	h46.26c5.795,0,10.51,4.715,10.51,10.51v38.097C335.455,437.796,330.74,442.511,324.945,442.511 M278.686,387.408
	c-3.582,0-6.496,2.914-6.496,6.496v38.097c0,3.582,2.914,6.496,6.496,6.496h46.26c3.582,0,6.496-2.914,6.496-6.496v-38.097
	c0-3.582-2.914-6.496-6.496-6.496H278.686z"/>
<path fill="#F26C7C" d="M333.448,386.378c0-4.696-3.808-8.503-8.503-8.503h-46.26c-4.697,0-8.504,3.807-8.504,8.503v7.125h63.267
	V386.378z"/>
<path fill="#FFFFFF" d="M270.182,394.005v30.472c0,4.695,3.807,8.502,8.504,8.502h46.26c4.695,0,8.502-3.807,8.502-8.502v-30.472
	H270.182z"/>
<path fill="#191818" d="M324.945,434.985h-46.26c-5.796,0-10.511-4.715-10.511-10.51v-38.097c0-5.795,4.715-10.51,10.511-10.51
	h46.26c5.795,0,10.51,4.715,10.51,10.51v38.097C335.455,430.271,330.74,434.985,324.945,434.985 M278.686,379.883
	c-3.582,0-6.496,2.914-6.496,6.496v38.097c0,3.582,2.914,6.496,6.496,6.496h46.26c3.582,0,6.496-2.914,6.496-6.496v-38.097
	c0-3.582-2.914-6.496-6.496-6.496H278.686z"/>
<path fill="#FFFFFF" d="M318.057,365.503c-2.75,0-4.978,2.229-4.978,4.978v10.429c0,2.749,2.228,4.977,4.978,4.977
	c2.748,0,4.977-2.228,4.977-4.977V370.48C323.033,367.731,320.805,365.503,318.057,365.503"/>
<path fill="#191818" d="M318.057,387.642c-3.713,0-6.732-3.02-6.732-6.733V370.48c0-3.713,3.02-6.733,6.732-6.733
	c3.711,0,6.731,3.02,6.731,6.733v10.429C324.788,384.622,321.768,387.642,318.057,387.642 M318.057,367.259
	c-1.775,0-3.222,1.445-3.222,3.222v10.429c0,1.776,1.446,3.221,3.222,3.221c1.774,0,3.221-1.445,3.221-3.221V370.48
	C321.277,368.704,319.831,367.259,318.057,367.259"/>
<path fill="#FFFFFF" d="M285.691,365.503c-2.748,0-4.977,2.229-4.977,4.978v10.429c0,2.749,2.229,4.977,4.977,4.977
	s4.977-2.228,4.977-4.977V370.48C290.668,367.731,288.439,365.503,285.691,365.503"/>
<path fill="#191818" d="M285.691,387.642c-3.713,0-6.732-3.02-6.732-6.733V370.48c0-3.713,3.02-6.733,6.732-6.733
	c3.711,0,6.731,3.02,6.731,6.733v10.429C292.423,384.622,289.402,387.642,285.691,387.642 M285.691,367.259
	c-1.775,0-3.222,1.445-3.222,3.222v10.429c0,1.776,1.446,3.221,3.222,3.221c1.774,0,3.221-1.445,3.221-3.221V370.48
	C288.912,368.704,287.466,367.259,285.691,367.259"/>
<rect x="277.085" y="398.041" fill="#F26C7C" width="7.524" height="7.525"/>
<rect x="287.37" y="398.041" fill="#F26C7C" width="7.524" height="7.525"/>
<rect x="297.654" y="398.041" fill="#F26C7C" width="7.525" height="7.525"/>
<rect x="307.939" y="398.041" fill="#F26C7C" width="7.524" height="7.525"/>
<rect x="318.225" y="398.041" fill="#F26C7C" width="7.524" height="7.525"/>
<rect x="277.085" y="408.325" fill="#F26C7C" width="7.524" height="7.524"/>
<rect x="287.37" y="408.325" fill="#F26C7C" width="7.524" height="7.524"/>
<rect x="297.654" y="408.325" fill="#F26C7C" width="7.525" height="7.524"/>
<rect x="307.939" y="408.325" fill="#F26C7C" width="7.524" height="7.524"/>
<rect x="318.225" y="408.325" fill="#F26C7C" width="7.524" height="7.524"/>
<rect x="277.085" y="418.61" fill="#F26C7C" width="7.524" height="7.524"/>
<rect x="287.37" y="418.61" fill="#F26C7C" width="7.524" height="7.524"/>
<rect x="297.654" y="418.61" fill="#F26C7C" width="7.525" height="7.524"/>
<rect x="307.939" y="418.61" fill="#F26C7C" width="7.524" height="7.524"/>
<rect x="318.225" y="418.61" fill="#F26C7C" width="7.524" height="7.524"/>
<g opacity="0.4">
	<g>
		<defs>
			<rect id="SVGID_3_" x="232.33" y="310.82" width="139.811" height="168.06"/>
		</defs>
		<clipPath id="SVGID_4_">
			<use xlink:href="#SVGID_3_"  overflow="visible"/>
		</clipPath>
		<path clip-path="url(#SVGID_4_)" fill="#FFFFFF" d="M302.236,324.885c8.377,4.037,25.288,10.076,54.197,12.174v14.625
			c-1.492,2.458-2.889,5.657-3.813,9.769c-2.389,10.613-0.953,24.591,4.264,41.547c2.328,7.567,1.855,14.6-1.445,21.498
			c-3.05,6.373-8.518,12.725-16.251,18.875c-12.737,10.132-28.21,17.049-36.952,20.637c-8.74-3.588-24.215-10.505-36.951-20.637
			c-7.733-6.15-13.201-12.502-16.252-18.875c-3.3-6.898-3.772-13.931-1.443-21.498c5.229-17.001,6.613-31.022,4.109-41.676
			c-0.964-4.098-2.392-7.283-3.91-9.729v-14.542C269.928,335.416,289.365,331.09,302.236,324.885 M302.236,310.824
			c-1.726,0-3.453,0.347-4.794,1.037c-9.942,5.12-29.272,10.588-57.983,11.864c-3.018,0.134-5.467,2.57-5.467,5.589v27.161
			c0,0,11.264,7.193,0.41,42.466c-14.917,48.482,55.285,74.915,67.834,79.934c12.549-5.019,82.752-31.451,67.834-79.934
			c-10.853-35.272,0.159-42.466,0.159-42.466v-27.161c0-3.019-2.448-5.455-5.465-5.589c-28.712-1.276-47.791-6.744-57.733-11.864
			C305.689,311.171,303.963,310.824,302.236,310.824"/>
	</g>
</g>
<path fill="#191818" d="M302.236,319.19c0.527,0,0.895,0.091,1.006,0.13c13.143,6.754,34.396,11.326,58.621,12.638v21.353
	c-1.468,2.076-2.99,5.087-3.945,9.333c-2.178,9.679-0.778,22.718,4.156,38.758c5.108,16.6-1.272,31.719-19.505,46.221
	c-14.388,11.444-31.92,18.869-40.333,22.248c-8.412-3.379-25.945-10.804-40.332-22.248c-18.232-14.502-24.613-29.621-19.506-46.221
	c4.943-16.066,6.294-29.133,4.014-38.836c-0.998-4.241-2.556-7.243-4.053-9.313v-21.295c24.393-1.318,45.742-5.89,58.871-12.638
	C301.343,319.281,301.709,319.19,302.236,319.19 M302.236,310.824c-1.726,0-3.451,0.346-4.794,1.037
	c-9.942,5.12-29.272,10.588-57.983,11.864c-3.018,0.134-5.467,2.57-5.467,5.589v27.161c0,0,11.264,7.193,0.41,42.466
	c-14.917,48.482,55.285,74.915,67.834,79.934c12.549-5.019,82.752-31.451,67.834-79.934c-10.853-35.272,0.159-42.466,0.159-42.466
	v-27.161c0-3.019-2.448-5.455-5.465-5.589c-28.712-1.276-47.791-6.744-57.733-11.864
	C305.689,311.17,303.963,310.824,302.236,310.824"/>
<path fill="#191818" d="M370.23,329.315c0-3.02-2.449-5.456-5.465-5.59c-28.713-1.275-47.791-6.743-57.734-11.864
	c-2.684-1.382-6.904-1.382-9.589,0c-9.942,5.121-29.272,10.589-57.984,11.864c-3.017,0.134-5.465,2.57-5.465,5.59v27.16
	c0,0,0.069,0.042,0.194,0.128h135.848c0.125-0.086,0.195-0.128,0.195-0.128V329.315z"/>
<polygon fill="#FFFFFF" points="285.105,347.771 285.105,332.899 282.064,336.06 279.746,333.622 285.646,327.691 289.169,327.691 
	289.169,347.771 "/>
<path fill="#FFFFFF" d="M291.908,337.745c0-5.178,2.136-10.355,7.104-10.355c4.998,0,7.105,5.178,7.105,10.355
	c0,5.148-2.078,10.388-7.105,10.388C294.044,348.133,291.908,342.894,291.908,337.745 M302.023,337.745
	c0-3.883-0.662-6.772-3.012-6.772c-2.318,0-2.98,2.89-2.98,6.772c0,3.854,0.662,6.805,2.98,6.805
	C301.361,344.55,302.023,341.6,302.023,337.745"/>
<polygon fill="#FFFFFF" points="318.969,347.771 314.333,339.914 312.918,342.141 312.918,347.771 308.884,347.771 308.884,327.691 
	312.918,327.691 312.918,336.813 318.578,327.691 323.275,327.691 316.861,337.144 323.727,347.771 "/>
<polygon fill="#FFFFFF" points="273.183,335.988 265.725,334.857 262.403,327.76 259.084,334.857 251.625,335.988 257.014,341.522 
	255.666,349.317 262.403,345.637 269.141,349.317 267.793,341.522 "/>
<polygon fill="#FFFFFF" points="352.85,335.988 345.391,334.857 342.07,327.76 338.75,334.857 331.291,335.988 336.68,341.522 
	335.334,349.317 342.07,345.637 348.807,349.317 347.459,341.522 "/>
<path fill="#010101" d="M394.878,399.938c0.146,1.75-0.152,3.623,0.187,5.469c0.328,0.773,0.592,1.554,0.873,2.349
	c0.819,2.085,1.733,3.99,3.311,4.866c1.283-2.557,2.463-5.286,2.742-8.497c-0.084-2.099-0.509-4.062-1.248-5.928
	c-1.15-2.94-3.062-5.579-5.613-7.851c-0.082-0.079-0.143-0.11-0.186-0.17l-0.416-0.012c0.094,0.272,0.166,0.577,0.248,0.886
	C395.453,393.935,395.158,396.727,394.878,399.938"/>
<path fill="#010101" d="M395.076,417.718c-1.817-3.577-5.512-6.851-6.379-10.245l-0.532-0.223
	c-1.337,3.336-1.192,7.326-0.169,10.951c1.109,4.703,3.424,8.368,4.508,12.993c0.193,0.891,0.354,1.775,0.459,2.742
	c6.956-5.049,13.369-10.808,15.182-19.897l-12.193,6.13C395.788,419.321,395.459,418.482,395.076,417.718"/>
<path fill="#010101" d="M375.474,458.875c-0.916-0.017-1.783-0.026-2.638,0.015c3.211-4.571,2.289-10.163,4.058-15.119l-0.017-0.219
	c-5.33,2.008-8.125,6.701-10.731,11.657c-1.861,3.592-3.683,7.273-6.339,9.994c1.109,0.08,2.152,0.229,3.234,0.388
	c1.121,0.163,2.274,0.386,3.435,0.692c2.306,0.135,4.581,0.237,6.731,0.166c4.035-0.171,7.795-0.854,11.037-2.605
	c1.502-0.798,2.902-1.85,4.131-3.161c-0.949-0.154-1.992-0.342-3.027-0.524C382.082,459.604,378.648,459.033,375.474,458.875"/>
<path fill="#010101" d="M388.474,443.302c-1.495-5.036-4.274-10.122-3.865-15.641l-0.142-0.219l-0.375,0.165
	c-0.045,0.035-0.098,0.107-0.101,0.144c-0.292,0.5-0.601,0.786-1.136,1.3c-3.805,6.707-3.23,14.78-1.275,21.92
	c0.32,1.177,0.653,2.295,1.063,3.426c3.423-2.676,7.645-3.359,11.441-5.307c0.342-0.207,0.678-0.369,1.03-0.582
	c3.66-2.641,5.886-7.007,6.841-11.183c-2.373,0.757-4.699,1.368-6.875,2.187C392.734,440.357,390.471,441.499,388.474,443.302"/>
<path fill="#010101" d="M209.674,400.067c-0.24,1.74-0.043,3.626-0.482,5.45c-0.369,0.755-0.674,1.521-0.996,2.299
	c-0.932,2.037-1.947,3.891-3.568,4.681c-1.146-2.622-2.176-5.41-2.281-8.632c0.197-2.092,0.727-4.029,1.566-5.854
	c1.307-2.873,3.357-5.406,6.027-7.536c0.086-0.075,0.148-0.103,0.195-0.16l0.414,0.011c-0.107,0.266-0.195,0.566-0.295,0.871
	C209.424,394.043,209.566,396.847,209.674,400.067"/>
<path fill="#010101" d="M209.398,417.718c1.816-3.577,5.512-6.851,6.379-10.245l0.531-0.223c1.337,3.336,1.193,7.326,0.169,10.951
	c-1.108,4.703-3.424,8.368-4.508,12.993c-0.194,0.891-0.354,1.775-0.459,2.742c-6.956-5.049-13.369-10.808-15.183-19.897
	l12.195,6.13C208.686,419.321,209.016,418.482,209.398,417.718"/>
<path fill="#010101" d="M229,458.875c0.916-0.017,1.783-0.026,2.639,0.015c-3.211-4.571-2.291-10.163-4.059-15.119l0.018-0.219
	c5.328,2.008,8.123,6.701,10.73,11.657c1.861,3.592,3.684,7.273,6.34,9.994c-1.109,0.08-2.154,0.229-3.234,0.388
	c-1.123,0.163-2.275,0.386-3.436,0.692c-2.306,0.135-4.58,0.237-6.732,0.166c-4.034-0.171-7.795-0.854-11.037-2.605
	c-1.5-0.798-2.901-1.85-4.131-3.161c0.949-0.154,1.992-0.342,3.029-0.524C222.391,459.604,225.825,459.033,229,458.875"/>
<path fill="#010101" d="M216.001,443.302c1.493-5.036,4.274-10.122,3.864-15.641l0.143-0.219l0.374,0.165
	c0.044,0.035,0.097,0.107,0.101,0.144c0.293,0.5,0.602,0.786,1.137,1.3c3.805,6.707,3.229,14.78,1.274,21.92
	c-0.319,1.177-0.653,2.295-1.062,3.426c-3.424-2.676-7.645-3.359-11.443-5.307c-0.342-0.207-0.677-0.369-1.029-0.582
	c-3.66-2.641-5.886-7.007-6.842-11.183c2.373,0.757,4.701,1.368,6.876,2.187C211.74,440.357,214.002,441.499,216.001,443.302"/>
<polygon fill="#FFFFFF" points="355.229,487.988 302.936,502.172 250.643,486.483 250.643,458.963 302.936,474.65 355.229,458.963 
	"/>
<path fill="#010101" d="M302.935,503.096l-54.551-13.335v-33.674l54.551,13.334l54.552-13.334v33.674L302.935,503.096z
	 M252.9,486.216l50.034,12.231l50.035-12.231v-24.377l-50.035,12.23l-50.034-12.23V486.216z"/>
<polygon fill="#010101" points="331.715,465.15 357.553,456.172 344.479,446.391 323.465,464.402 "/>
<polygon fill="#010101" points="274.113,465.15 248.275,456.172 261.35,446.391 282.363,464.402 "/>
<polygon fill="#010101" points="274.785,475.576 272.195,470.039 269.605,475.576 263.786,476.459 267.99,480.775 266.939,486.856 
	272.195,483.984 277.449,486.856 276.398,480.775 280.604,476.459 "/>
<polygon fill="#010101" points="305.472,481.653 302.612,475.543 299.754,481.653 293.334,482.627 297.973,487.392 296.813,494.103 
	302.612,490.934 308.412,494.103 307.252,487.392 311.893,482.627 "/>
<polygon fill="#010101" points="335.809,475.576 333.219,470.039 330.629,475.576 324.811,476.459 329.015,480.775 327.964,486.856 
	333.219,483.984 338.475,486.856 337.423,480.775 341.627,476.459 "/>
</svg>
