<?xml version="1.0" encoding="utf-8"?>
<!-- Generator: Adobe Illustrator 16.0.0, SVG Export Plug-In . SVG Version: 6.00 Build 0)  -->
<!DOCTYPE svg PUBLIC "-//W3C//DTD SVG 1.1//EN" "http://www.w3.org/Graphics/SVG/1.1/DTD/svg11.dtd">
<svg version="1.1" id="Layer_1" xmlns="http://www.w3.org/2000/svg" xmlns:xlink="http://www.w3.org/1999/xlink" x="0px" y="0px"
	 width="612px" height="792px" viewBox="0 0 612 792" enable-background="new 0 0 612 792" xml:space="preserve">
<path fill="#F26C7C" d="M370.596,385.942c-10.15-32.988-1.838-41.101-0.036-42.339h-67.366h-68.482
	c1.803,1.238,10.366,9.351,0.216,42.339c-14.918,48.481,55.284,74.916,67.834,79.934c0.136-0.055,0.282-0.112,0.432-0.172
	C316.831,460.278,385.351,433.896,370.596,385.942"/>
<g opacity="0.5">
	<g>
		<defs>
			<rect id="SVGID_1_" x="303.19" y="343.6" width="69.48" height="122.1"/>
		</defs>
		<clipPath id="SVGID_2_">
			<use xlink:href="#SVGID_1_"  overflow="visible"/>
		</clipPath>
		<path clip-path="url(#SVGID_2_)" fill="#DF2E54" d="M370.596,385.942c-10.15-32.988-1.838-41.101-0.036-42.339h-67.366v122.101
			C316.831,460.278,385.351,433.896,370.596,385.942"/>
	</g>
</g>
<g opacity="0.4">
	<g>
		<defs>
			<rect id="SVGID_3_" x="232.86" y="297.82" width="139.81" height="168.06"/>
		</defs>
		<clipPath id="SVGID_4_">
			<use xlink:href="#SVGID_3_"  overflow="visible"/>
		</clipPath>
		<path clip-path="url(#SVGID_4_)" fill="#FFFFFF" d="M302.762,311.886c8.377,4.036,25.287,10.075,54.197,12.173v14.625
			c-1.492,2.458-2.889,5.657-3.814,9.769c-2.387,10.613-0.952,24.591,4.266,41.547c2.327,7.568,1.855,14.6-1.445,21.499
			c-3.051,6.373-8.519,12.725-16.251,18.875c-12.737,10.132-28.211,17.049-36.952,20.637c-8.741-3.588-24.216-10.505-36.952-20.637
			c-7.733-6.15-13.201-12.502-16.251-18.875c-3.301-6.898-3.773-13.931-1.445-21.499c5.231-17.001,6.614-31.022,4.109-41.675
			c-0.963-4.098-2.39-7.283-3.909-9.729v-14.542C270.453,322.416,289.89,318.09,302.762,311.886 M302.762,297.824
			c-1.726,0-3.453,0.347-4.795,1.037c-9.942,5.12-29.271,10.588-57.984,11.864c-3.016,0.134-5.465,2.57-5.465,5.589v27.161
			c0,0,11.263,7.193,0.41,42.466c-14.918,48.482,55.285,74.915,67.834,79.934c12.549-5.019,82.751-31.451,67.834-79.934
			c-10.854-35.272,0.159-42.466,0.159-42.466v-27.161c0-3.019-2.449-5.455-5.466-5.589c-28.711-1.276-47.791-6.744-57.732-11.864
			C306.215,298.171,304.487,297.824,302.762,297.824"/>
	</g>
</g>
<path fill="#191818" d="M370.755,316.315c0-3.02-2.449-5.456-5.465-5.59c-28.714-1.275-47.791-6.743-57.733-11.864
	c-2.685-1.382-6.906-1.382-9.59,0c-9.942,5.121-29.272,10.589-57.984,11.864c-3.016,0.134-5.465,2.57-5.465,5.59v27.16
	c0,0,0.069,0.042,0.194,0.128H370.56c0.125-0.086,0.195-0.128,0.195-0.128V316.315z"/>
<path fill="#191818" d="M302.762,306.19c0.527,0,0.894,0.091,1.006,0.13c13.143,6.754,34.396,11.326,58.621,12.638v21.353
	c-1.468,2.076-2.99,5.087-3.946,9.333c-2.177,9.679-0.778,22.718,4.157,38.758c5.107,16.6-1.273,31.719-19.505,46.221
	c-14.388,11.444-31.921,18.869-40.333,22.248c-8.412-3.379-25.946-10.804-40.333-22.248c-18.232-14.502-24.613-29.621-19.505-46.221
	c4.943-16.066,6.294-29.133,4.013-38.836c-0.997-4.241-2.555-7.243-4.053-9.313v-21.295c24.393-1.318,45.743-5.89,58.872-12.638
	C301.868,306.281,302.234,306.19,302.762,306.19 M302.762,297.824c-1.726,0-3.453,0.346-4.795,1.037
	c-9.942,5.12-29.271,10.588-57.984,11.864c-3.016,0.134-5.465,2.57-5.465,5.589v27.161c0,0,11.263,7.193,0.41,42.466
	c-14.918,48.482,55.285,74.915,67.834,79.934c12.549-5.019,82.751-31.451,67.834-79.934c-10.854-35.272,0.159-42.466,0.159-42.466
	v-27.161c0-3.019-2.449-5.455-5.466-5.589c-28.711-1.276-47.791-6.744-57.732-11.864
	C306.215,298.17,304.487,297.824,302.762,297.824"/>
<polygon fill="#FFFFFF" points="285.87,334.771 285.87,319.899 282.829,323.06 280.511,320.622 286.412,314.691 289.935,314.691 
	289.935,334.771 "/>
<path fill="#FFFFFF" d="M292.673,324.745c0-5.178,2.137-10.355,7.105-10.355c4.997,0,7.105,5.178,7.105,10.355
	c0,5.148-2.077,10.388-7.105,10.388C294.81,335.133,292.673,329.894,292.673,324.745 M302.788,324.745
	c0-3.883-0.662-6.772-3.01-6.772c-2.319,0-2.981,2.89-2.981,6.772c0,3.854,0.662,6.805,2.981,6.805
	C302.126,331.55,302.788,328.6,302.788,324.745"/>
<path fill="#FFFFFF" d="M308.836,324.745c0-5.178,2.139-10.355,7.105-10.355c4.998,0,7.105,5.178,7.105,10.355
	c0,5.148-2.078,10.388-7.105,10.388C310.975,335.133,308.836,329.894,308.836,324.745 M318.952,324.745
	c0-3.883-0.663-6.772-3.011-6.772c-2.318,0-2.98,2.89-2.98,6.772c0,3.854,0.662,6.805,2.98,6.805
	C318.289,331.55,318.952,328.6,318.952,324.745"/>
<path fill="#FFFFFF" d="M320.742,402.436l-11.01-11.009l11.01-11.009c5.399-5.4,7.741-12.699,7.028-19.747h-48.603
	c-0.714,7.048,1.628,14.347,7.028,19.747l11.009,11.009l-11.009,11.009c-3.356,3.357-5.532,7.449-6.525,11.758
	c-0.604,2.621-0.772,5.323-0.502,7.989h48.603c0.519-5.126-0.581-10.383-3.295-14.948
	C323.459,405.523,322.215,403.909,320.742,402.436"/>
<path fill="#F26C7C" d="M276.387,425.701h54.164c0.578-5.711-0.647-11.571-3.671-16.657l-6.306-7.107
	c-8.05,0-8.584,7.597-24.149,8.05c-9.589,0.279-16.099,5.968-16.099,5.968l-3.378,0.845
	C276.273,419.72,276.086,422.73,276.387,425.701"/>
<path fill="#F26C7C" d="M286.118,376.107c0,0,6.282-4.428,18.357-2.415c12.073,2.012,16.099,0,18.112,0l-6.197,6.768l-12.922,12.212
	L286.118,376.107z"/>
<path fill="#FFFFFF" d="M324.881,363.681c-0.133,5.472-2.344,10.684-6.268,14.609l-11.009,11.009l-2.129,2.128l2.129,2.129
	l11.009,11.009c1.264,1.264,2.366,2.681,3.275,4.209c1.861,3.131,2.891,6.745,2.986,10.399h-42.816
	c0.036-1.446,0.218-2.885,0.545-4.302c0.899-3.899,2.877-7.463,5.721-10.307l11.009-11.009l2.128-2.129l-2.128-2.128l-11.009-11.009
	c-3.925-3.925-6.136-9.137-6.267-14.609H324.881 M327.771,360.671h-48.603c-0.714,7.048,1.628,14.347,7.028,19.747l11.009,11.009
	l-11.009,11.009c-3.357,3.358-5.532,7.449-6.525,11.758c-0.605,2.622-0.773,5.323-0.503,7.989h48.603
	c0.519-5.125-0.58-10.383-3.294-14.948c-1.018-1.711-2.262-3.326-3.735-4.799l-11.009-11.009l11.009-11.009
	C326.142,375.018,328.483,367.719,327.771,360.671"/>
<path fill="#191818" d="M327.771,360.671c0.713,7.048-1.629,14.348-7.028,19.747l-11.01,11.009l11.01,11.009
	c1.473,1.472,2.716,3.088,3.733,4.799c2.714,4.563,3.813,9.821,3.295,14.948h-48.604c-0.271-2.666-0.102-5.368,0.503-7.989
	c0.994-4.31,3.168-8.401,6.526-11.758l11.009-11.009l-11.009-11.009c-5.4-5.399-7.742-12.699-7.029-19.747H327.771 M331.025,357.069
	h-3.255h-48.604h-3.255l-0.328,3.239c-0.853,8.421,2.087,16.678,8.064,22.657l8.462,8.462l-8.462,8.461
	c-3.721,3.722-6.31,8.389-7.488,13.496c-0.694,3.006-0.888,6.09-0.577,9.161l0.328,3.238h3.255h48.604h3.255l0.328-3.238
	c0.603-5.946-0.74-12.038-3.781-17.151c-1.191-2.001-2.633-3.854-4.284-5.506l-8.462-8.461l8.463-8.463
	c5.977-5.978,8.917-14.234,8.064-22.656L331.025,357.069z"/>
<path fill="#F26C7C" d="M305.146,395.88c0,0.926-0.751,1.677-1.677,1.677c-0.925,0-1.676-0.751-1.676-1.677s0.751-1.676,1.676-1.676
	C304.394,394.204,305.146,394.954,305.146,395.88"/>
<path fill="#F26C7C" d="M305.146,401.356c0,0.926-0.751,1.676-1.677,1.676c-0.925,0-1.676-0.75-1.676-1.676s0.751-1.677,1.676-1.677
	C304.394,399.68,305.146,400.431,305.146,401.356"/>
<path fill="#191818" d="M333.999,360.722h-61.061c-1.385,0-2.508-1.123-2.508-2.508c0-1.386,1.123-2.509,2.508-2.509h61.061
	c1.385,0,2.508,1.123,2.508,2.509C336.507,359.599,335.384,360.722,333.999,360.722"/>
<path fill="#191818" d="M333.999,426.95h-61.061c-1.385,0-2.508-1.123-2.508-2.508c0-1.386,1.123-2.509,2.508-2.509h61.061
	c1.385,0,2.508,1.123,2.508,2.509C336.507,425.827,335.384,426.95,333.999,426.95"/>
<polygon fill="#FFFFFF" points="271.868,324.578 260.128,327.287 249.292,324.578 249.292,318.256 260.128,320.966 271.868,318.256 
	"/>
<polygon fill="#FFFFFF" points="271.868,333.608 260.128,336.318 249.292,333.608 249.292,327.287 260.128,329.997 271.868,327.287 
	"/>
<polygon fill="#FFFFFF" points="356.232,324.578 344.492,327.287 333.656,324.578 333.656,318.256 344.492,320.966 356.232,318.256 
	"/>
<polygon fill="#FFFFFF" points="356.232,333.608 344.492,336.318 333.656,333.608 333.656,327.287 344.492,329.997 356.232,327.287 
	"/>
<path fill="#FFFFFF" d="M302.947,470.469c-3.51-1.403-11.533-4.484-20.94-9.254v14.698c11.415,7.015,20.567,11.113,20.567,11.113
	l0.399-0.001l0.399,0.001c0,0,9.153-4.099,20.568-11.113v-14.726c-9.063,4.597-16.849,7.632-20.562,9.109
	C303.229,470.356,303.083,470.415,302.947,470.469"/>
<path fill="#FFFFFF" d="M249.677,450.546c8.119,9.569,19.146,17.858,29.014,24.17v-15.223c-9.689-5.162-20.402-12.017-29.014-20.576
	V450.546z"/>
<path fill="#FFFFFF" d="M327.256,474.717c9.869-6.313,20.896-14.602,29.015-24.17V438.86c-8.607,8.57-19.317,15.433-29.015,20.603
	V474.717z"/>
</svg>
