<?xml version="1.0" encoding="utf-8"?>
<!-- Generator: Adobe Illustrator 16.0.0, SVG Export Plug-In . SVG Version: 6.00 Build 0)  -->
<!DOCTYPE svg PUBLIC "-//W3C//DTD SVG 1.1//EN" "http://www.w3.org/Graphics/SVG/1.1/DTD/svg11.dtd">
<svg version="1.1" id="Layer_1" xmlns="http://www.w3.org/2000/svg" xmlns:xlink="http://www.w3.org/1999/xlink" x="0px" y="0px"
	 width="612px" height="792px" viewBox="0 0 612 792" enable-background="new 0 0 612 792" xml:space="preserve">
<path fill="#F26C7C" d="M370.31,386.942c-10.15-32.988-1.839-41.101-0.036-42.339h-67.366h-68.481
	c1.803,1.238,10.365,9.351,0.215,42.339c-14.918,48.481,55.285,74.916,67.834,79.934c0.137-0.055,0.283-0.112,0.433-0.172
	C316.545,461.278,385.064,434.896,370.31,386.942"/>
<g opacity="0.5">
	<g>
		<defs>
			<rect id="SVGID_1_" x="261.25" y="344.6" width="111.13" height="122.1"/>
		</defs>
		<clipPath id="SVGID_2_">
			<use xlink:href="#SVGID_1_"  overflow="visible"/>
		</clipPath>
		<path clip-path="url(#SVGID_2_)" fill="#DF2E54" d="M370.309,386.942c-10.149-32.988-1.838-41.102-0.035-42.339h-67.366v8.929
			c-0.086-0.001-0.173-0.005-0.259-0.005l0,0c-5.469,0-10.817,1.073-15.9,3.188c-5.156,2.147-9.742,5.243-13.629,9.202
			c-3.751,3.821-6.691,8.278-8.738,13.246c-2.047,4.969-3.101,10.203-3.131,15.557c-0.031,5.546,1.041,10.975,3.188,16.132
			c3.205,7.696,8.574,14.17,15.528,18.72c6.779,4.435,14.632,6.778,22.71,6.778c0.077,0,0.154-0.002,0.231-0.002v30.354
			C316.544,461.278,385.064,434.896,370.309,386.942 M302.676,428.325c-13.076,0-25.488-7.733-30.826-20.558
			c-7.086-17.018,0.967-36.557,17.983-43.641c4.194-1.746,8.54-2.573,12.815-2.573c0.086,0,0.173,0.004,0.259,0.005v66.763
			C302.83,428.323,302.753,428.325,302.676,428.325"/>
	</g>
</g>
<path fill="#FFFFFF" d="M315.757,425.268c-17.019,7.086-36.556-0.967-43.642-17.984c-7.084-17.018,0.967-36.556,17.984-43.642
	c17.018-7.085,36.557,0.967,43.641,17.985C340.826,398.645,332.774,418.183,315.757,425.268"/>
<g opacity="0.4">
	<g>
		<defs>
			<rect id="SVGID_3_" x="232.57" y="298.82" width="139.81" height="168.06"/>
		</defs>
		<clipPath id="SVGID_4_">
			<use xlink:href="#SVGID_3_"  overflow="visible"/>
		</clipPath>
		<path clip-path="url(#SVGID_4_)" fill="#FFFFFF" d="M302.476,312.885c8.377,4.037,25.286,10.076,54.196,12.174v14.625
			c-1.492,2.458-2.888,5.657-3.813,9.769c-2.388,10.613-0.952,24.591,4.265,41.547c2.328,7.568,1.855,14.6-1.445,21.499
			c-3.051,6.373-8.518,12.725-16.25,18.875c-12.737,10.132-28.211,17.049-36.952,20.637c-8.742-3.588-24.216-10.505-36.952-20.637
			c-7.732-6.15-13.201-12.502-16.251-18.875c-3.302-6.898-3.774-13.931-1.445-21.499c5.231-17.001,6.613-31.022,4.109-41.675
			c-0.964-4.098-2.392-7.283-3.909-9.729v-14.542C270.166,323.416,289.604,319.09,302.476,312.885 M302.476,298.824
			c-1.728,0-3.453,0.347-4.796,1.037c-9.941,5.12-29.271,10.588-57.983,11.864c-3.017,0.134-5.465,2.57-5.465,5.589v27.161
			c0,0,11.263,7.193,0.409,42.466c-14.918,48.482,55.285,74.915,67.835,79.934c12.549-5.019,82.751-31.451,67.834-79.934
			c-10.854-35.272,0.159-42.466,0.159-42.466v-27.161c0-3.019-2.449-5.455-5.465-5.589c-28.713-1.276-47.791-6.744-57.734-11.864
			C305.928,299.171,304.201,298.824,302.476,298.824"/>
	</g>
</g>
<polygon fill="#F26C7C" points="302.749,361.887 302.121,391.361 307.013,395.501 334.857,395.877 335.609,388.602 328.084,373.802 
	315.291,364.145 "/>
<path fill="#191818" d="M302.421,370.255c0,0-0.001,0.02-0.005,0.053h0.011C302.423,370.275,302.421,370.255,302.421,370.255"/>
<path fill="#191818" d="M302.424,370.282c0.001,0.014,0.537,0.026,1.195,0.026s1.193-0.561,1.193-1.254v-5.77
	c0-0.692-0.563-1.254-1.255-1.254h-1.636c-0.693,0-1.254,0.562-1.254,1.254v5.77c0,0.693,0.391,1.254,0.873,1.254
	c0.484,0,0.877-0.012,0.877-0.026C302.42,370.267,302.422,370.267,302.424,370.282"/>
<path fill="#191818" d="M335.602,395.709v-1.636c0-0.693-0.563-1.255-1.255-1.255h-5.687c-0.692,0-1.254,0.562-1.254,1.255v1.636
	c0,0.693,0.562,1.254,1.254,1.254h5.687C335.039,396.963,335.602,396.402,335.602,395.709"/>
<path fill="#191818" d="M269.879,394.073v1.636c0,0.693,0.562,1.255,1.254,1.255h5.52c0.692,0,1.254-0.562,1.254-1.255v-1.636
	c0-0.693-0.562-1.254-1.254-1.254h-5.52C270.44,392.819,269.879,393.38,269.879,394.073"/>
<path fill="#191818" d="M301.922,427.752h1.636c0.692,0,1.255-0.562,1.255-1.254v-5.436c0-0.692-0.563-1.254-1.255-1.254h-1.636
	c-0.693,0-1.254,0.562-1.254,1.254v5.436C300.668,427.19,301.229,427.752,301.922,427.752"/>
<path fill="#191818" d="M286.31,366.433c-0.601,0.346-0.806,1.113-0.46,1.713l2.85,4.936c0.346,0.6,1.115,0.808,1.717,0.466
	c0.603-0.343,0.811-1.107,0.463-1.707l-2.856-4.948C287.676,366.292,286.909,366.087,286.31,366.433"/>
<path fill="#191818" d="M274.281,378.46c-0.346,0.6-0.141,1.367,0.459,1.713l4.867,2.811c0.601,0.346,1.363,0.138,1.705-0.464
	c0.344-0.602,0.135-1.371-0.467-1.718l-4.852-2.801C275.395,377.655,274.628,377.86,274.281,378.46"/>
<path fill="#191818" d="M274.281,411.321c0.347,0.601,1.113,0.806,1.713,0.46l4.72-2.726c0.601-0.346,0.804-1.112,0.456-1.711
	s-1.117-0.804-1.716-0.458l-4.714,2.722C274.141,409.955,273.936,410.722,274.281,411.321"/>
<path fill="#191818" d="M286.31,423.35c0.6,0.346,1.366,0.141,1.713-0.459l2.71-4.693c0.347-0.601,0.141-1.365-0.461-1.709
	c-0.602-0.346-1.369-0.138-1.717,0.463l-2.705,4.686C285.504,422.236,285.709,423.004,286.31,423.35"/>
<path fill="#191818" d="M319.17,423.35c0.6-0.346,0.807-1.113,0.459-1.713l-2.744-4.755c-0.347-0.601-1.115-0.808-1.718-0.466
	c-0.603,0.343-0.809,1.106-0.463,1.707l2.753,4.768C317.803,423.49,318.57,423.695,319.17,423.35"/>
<path fill="#191818" d="M331.198,411.321c0.347-0.6,0.141-1.366-0.46-1.713l-4.85-2.801c-0.6-0.346-1.363-0.139-1.705,0.464
	c-0.343,0.602-0.134,1.371,0.467,1.719l4.834,2.791C330.085,412.127,330.852,411.922,331.198,411.321"/>
<path fill="#191818" d="M331.198,378.46c-0.347-0.6-1.113-0.805-1.714-0.459l-4.989,2.881c-0.601,0.346-0.804,1.113-0.456,1.712
	c0.348,0.598,1.115,0.803,1.716,0.457l4.983-2.878C331.339,379.828,331.545,379.061,331.198,378.46"/>
<path fill="#191818" d="M319.17,366.433c-0.6-0.346-1.367-0.141-1.713,0.459l-2.896,5.017c-0.346,0.6-0.141,1.365,0.461,1.71
	c0.602,0.344,1.369,0.137,1.716-0.463l2.892-5.01C319.977,367.546,319.77,366.779,319.17,366.433"/>
<path fill="#191818" d="M302.675,430.398c-14.366,0-27.218-8.57-32.739-21.834c-3.64-8.742-3.656-18.377-0.049-27.132
	c3.607-8.754,10.408-15.58,19.15-19.219c4.354-1.813,8.933-2.732,13.611-2.732c14.366,0,27.219,8.57,32.739,21.833
	c7.513,18.044-1.056,38.837-19.101,46.351C311.932,429.479,307.353,430.398,302.675,430.398 M302.648,363.627
	c-4.129,0-8.173,0.812-12.019,2.413c-7.72,3.214-13.726,9.242-16.911,16.972c-3.186,7.731-3.171,16.24,0.043,23.96
	c4.877,11.713,16.227,19.281,28.913,19.281c4.128,0,8.172-0.812,12.019-2.413c15.936-6.635,23.502-24.997,16.868-40.932
	C326.685,371.195,315.337,363.627,302.648,363.627"/>
<rect x="293.3" y="391.499" transform="matrix(0.544 0.8391 -0.8391 0.544 470.3162 -64.8348)" fill="#F26C7C" width="3.011" height="17.534"/>
<path fill="#191818" d="M298.278,395.621c0.007,2.295,1.872,4.151,4.168,4.146c2.295-0.007,4.151-1.873,4.146-4.168
	c-0.008-2.296-4.025-18.447-4.025-18.447S298.271,393.326,298.278,395.621"/>
<path fill="#191818" d="M303.129,391.594c-2.296-0.029-4.18,1.808-4.209,4.103c-0.029,2.296,1.807,4.18,4.104,4.209
	c2.294,0.029,18.511-4.04,18.511-4.04S305.424,391.623,303.129,391.594"/>
<path fill="#191818" d="M302.476,307.19c0.526,0,0.894,0.091,1.006,0.13c13.142,6.754,34.396,11.326,58.621,12.638v21.353
	c-1.47,2.076-2.99,5.087-3.946,9.333c-2.177,9.679-0.777,22.718,4.157,38.758c5.106,16.6-1.272,31.719-19.505,46.221
	c-14.389,11.444-31.922,18.869-40.333,22.248c-8.413-3.379-25.946-10.804-40.333-22.248c-18.232-14.502-24.613-29.621-19.506-46.221
	c4.943-16.066,6.295-29.133,4.014-38.836c-0.997-4.241-2.555-7.243-4.053-9.313v-21.295c24.393-1.318,45.742-5.89,58.871-12.638
	C301.582,307.281,301.948,307.19,302.476,307.19 M302.476,298.824c-1.728,0-3.453,0.346-4.796,1.037
	c-9.941,5.12-29.271,10.588-57.983,11.864c-3.017,0.134-5.465,2.57-5.465,5.589v27.161c0,0,11.263,7.193,0.409,42.466
	c-14.918,48.482,55.285,74.915,67.835,79.934c12.549-5.019,82.751-31.451,67.834-79.934c-10.854-35.272,0.159-42.466,0.159-42.466
	v-27.161c0-3.019-2.449-5.455-5.465-5.589c-28.713-1.276-47.791-6.744-57.734-11.864
	C305.928,299.17,304.201,298.824,302.476,298.824"/>
<path fill="#191818" d="M370.469,317.315c0-3.02-2.449-5.456-5.465-5.59c-28.713-1.275-47.791-6.743-57.734-11.864
	c-2.684-1.382-6.904-1.382-9.589,0c-9.942,5.121-29.272,10.589-57.984,11.864c-3.017,0.134-5.465,2.57-5.465,5.59v27.16
	c0,0,0.069,0.042,0.194,0.128h135.848c0.125-0.086,0.195-0.128,0.195-0.128V317.315z"/>
<path fill="#FFFFFF" d="M279.338,335.771v-3.251c7.346-7.136,8.881-8.73,8.881-11.019c0-1.536-1.175-2.529-2.681-2.529
	c-1.776,0-3.19,0.813-4.274,2.258l-2.408-2.529c1.625-2.167,4.004-3.313,6.744-3.313c3.884,0,6.713,2.349,6.713,6.082
	c0,3.04-2.047,5.63-7.014,10.747h7.104v3.553H279.338z"/>
<path fill="#FFFFFF" d="M294.84,332.971l2.438-2.589c1.054,1.385,2.469,2.168,4.185,2.168c1.927,0,3.041-1.475,3.041-3.162
	c0-1.986-1.054-3.161-2.86-3.161c-1.354,0-2.377,0.482-3.312,1.656l-2.92-0.783v-11.409h12.042v3.551h-8.008v5.149
	c0.783-0.963,2.137-1.656,3.673-1.656c3.04,0,5.479,2.379,5.479,6.533c0,4.034-2.74,6.864-7.016,6.864
	C298.482,336.132,296.344,334.988,294.84,332.971"/>
<path fill="#FFFFFF" d="M310.521,325.745c0-5.178,2.138-10.355,7.105-10.355c4.997,0,7.105,5.178,7.105,10.355
	c0,5.148-2.078,10.388-7.105,10.388C312.659,336.133,310.521,330.894,310.521,325.745 M320.637,325.745
	c0-3.883-0.662-6.772-3.01-6.772c-2.318,0-2.98,2.89-2.98,6.772c0,3.854,0.662,6.805,2.98,6.805
	C319.975,332.55,320.637,329.6,320.637,325.745"/>
<path fill="#1A1A19" d="M302.449,470.469c-3.511-1.403-11.533-4.484-20.941-9.254v14.698c11.416,7.015,20.568,11.113,20.568,11.113
	l0.398-0.001l0.398,0.001c0,0,9.153-4.099,20.568-11.113v-14.726c-9.063,4.597-16.847,7.632-20.561,9.109
	C302.73,470.356,302.586,470.415,302.449,470.469"/>
<path fill="#1A1A19" d="M249.179,450.546c8.118,9.569,19.146,17.858,29.014,24.17v-15.223c-9.688-5.162-20.401-12.017-29.014-20.576
	V450.546z"/>
<path fill="#1A1A19" d="M326.758,474.717c9.869-6.313,20.895-14.602,29.014-24.17V438.86c-9.12,9.082-19.699,15.637-29.014,20.603
	V474.717z"/>
<polygon fill="#FFFFFF" points="273.421,323.988 265.963,322.857 262.642,315.76 259.322,322.857 251.863,323.988 257.252,329.522 
	255.904,337.317 262.642,333.637 269.379,337.317 268.031,329.522 "/>
<polygon fill="#FFFFFF" points="353.088,323.988 345.629,322.857 342.309,315.76 338.988,322.857 331.529,323.988 336.919,329.522 
	335.571,337.317 342.309,333.637 349.045,337.317 347.698,329.522 "/>
</svg>
