<?xml version="1.0" encoding="utf-8"?>
<!-- Generator: Adobe Illustrator 16.0.0, SVG Export Plug-In . SVG Version: 6.00 Build 0)  -->
<!DOCTYPE svg PUBLIC "-//W3C//DTD SVG 1.1//EN" "http://www.w3.org/Graphics/SVG/1.1/DTD/svg11.dtd">
<svg version="1.1" id="Layer_1" xmlns="http://www.w3.org/2000/svg" xmlns:xlink="http://www.w3.org/1999/xlink" x="0px" y="0px"
	 width="612px" height="792px" viewBox="0 0 612 792" enable-background="new 0 0 612 792" xml:space="preserve">
<line fill="none" x1="346.63" y1="3305.597" x2="346.63" y2="60"/>
<path fill="#F26C7C" d="M370.591,359.702c-10.15-32.988-1.839-41.101-0.036-42.339h-67.366h-68.481
	c1.803,1.238,10.365,9.351,0.215,42.339c-14.918,48.481,55.285,74.916,67.834,79.934c0.137-0.055,0.283-0.112,0.433-0.172
	C316.826,434.038,385.346,407.656,370.591,359.702"/>
<g opacity="0.5">
	<g>
		<defs>
			<rect id="SVGID_1_" x="302.08" y="315.78" width="69.47" height="122.1"/>
		</defs>
		<clipPath id="SVGID_2_">
			<use xlink:href="#SVGID_1_"  overflow="visible"/>
		</clipPath>
		<path clip-path="url(#SVGID_2_)" fill="#DF2E54" d="M369.478,358.118c-10.15-32.988-1.839-41.101-0.036-42.339h-67.366v122.102
			C315.713,432.454,384.232,406.072,369.478,358.118"/>
	</g>
</g>
<path fill="#F26C7C" d="M325.465,401.264h-46.262c-4.695,0-8.502-3.807-8.502-8.503v-38.097c0-4.696,3.807-8.503,8.502-8.503h46.262
	c4.695,0,8.503,3.807,8.503,8.503v38.097C333.968,397.457,330.16,401.264,325.465,401.264"/>
<path fill="#191818" d="M325.465,403.271h-46.26c-5.796,0-10.511-4.715-10.511-10.51v-38.097c0-5.795,4.715-10.51,10.511-10.51
	h46.26c5.795,0,10.51,4.715,10.51,10.51v38.097C335.975,398.556,331.26,403.271,325.465,403.271 M279.205,348.168
	c-3.582,0-6.496,2.914-6.496,6.496v38.097c0,3.582,2.914,6.496,6.496,6.496h46.26c3.582,0,6.496-2.914,6.496-6.496v-38.097
	c0-3.582-2.914-6.496-6.496-6.496H279.205z"/>
<path fill="#F26C7C" d="M333.968,347.138c0-4.696-3.808-8.503-8.503-8.503h-46.262c-4.695,0-8.502,3.807-8.502,8.503v7.125h63.267
	V347.138z"/>
<path fill="#FFFFFF" d="M270.701,354.765v30.472c0,4.696,3.807,8.502,8.502,8.502h46.262c4.695,0,8.502-3.806,8.502-8.502v-30.472
	H270.701z"/>
<path fill="#191818" d="M325.465,395.745h-46.26c-5.796,0-10.511-4.715-10.511-10.51v-38.097c0-5.795,4.715-10.51,10.511-10.51
	h46.26c5.795,0,10.51,4.715,10.51,10.51v38.097C335.975,391.03,331.26,395.745,325.465,395.745 M279.205,340.643
	c-3.582,0-6.496,2.914-6.496,6.496v38.097c0,3.582,2.914,6.496,6.496,6.496h46.26c3.582,0,6.496-2.914,6.496-6.496v-38.097
	c0-3.582-2.914-6.496-6.496-6.496H279.205z"/>
<path fill="#FFFFFF" d="M318.576,326.263c-2.75,0-4.978,2.229-4.978,4.978v10.429c0,2.749,2.228,4.977,4.978,4.977
	c2.748,0,4.977-2.228,4.977-4.977V331.24C323.553,328.491,321.324,326.263,318.576,326.263"/>
<path fill="#191818" d="M318.576,348.402c-3.713,0-6.732-3.02-6.732-6.733V331.24c0-3.713,3.02-6.733,6.732-6.733
	c3.711,0,6.731,3.02,6.731,6.733v10.429C325.308,345.382,322.287,348.402,318.576,348.402 M318.576,328.019
	c-1.775,0-3.222,1.445-3.222,3.222v10.429c0,1.776,1.446,3.221,3.222,3.221c1.774,0,3.221-1.445,3.221-3.221V331.24
	C321.797,329.464,320.351,328.019,318.576,328.019"/>
<path fill="#FFFFFF" d="M286.211,326.263c-2.75,0-4.978,2.229-4.978,4.978v10.429c0,2.749,2.228,4.977,4.978,4.977
	c2.748,0,4.977-2.228,4.977-4.977V331.24C291.188,328.491,288.959,326.263,286.211,326.263"/>
<path fill="#191818" d="M286.211,348.402c-3.713,0-6.732-3.02-6.732-6.733V331.24c0-3.713,3.02-6.733,6.732-6.733
	c3.711,0,6.731,3.02,6.731,6.733v10.429C292.942,345.382,289.922,348.402,286.211,348.402 M286.211,328.019
	c-1.775,0-3.222,1.445-3.222,3.222v10.429c0,1.776,1.446,3.221,3.222,3.221c1.774,0,3.221-1.445,3.221-3.221V331.24
	C289.432,329.464,287.985,328.019,286.211,328.019"/>
<rect x="277.604" y="358.801" fill="#F26C7C" width="7.525" height="7.525"/>
<rect x="287.889" y="358.801" fill="#F26C7C" width="7.525" height="7.525"/>
<rect x="298.174" y="358.801" fill="#F26C7C" width="7.525" height="7.525"/>
<rect x="308.458" y="358.801" fill="#F26C7C" width="7.524" height="7.525"/>
<rect x="318.743" y="358.801" fill="#F26C7C" width="7.524" height="7.525"/>
<rect x="277.604" y="369.085" fill="#F26C7C" width="7.525" height="7.525"/>
<rect x="287.889" y="369.085" fill="#F26C7C" width="7.525" height="7.525"/>
<rect x="298.174" y="369.085" fill="#F26C7C" width="7.525" height="7.525"/>
<rect x="308.458" y="369.085" fill="#F26C7C" width="7.524" height="7.525"/>
<rect x="318.743" y="369.085" fill="#F26C7C" width="7.524" height="7.525"/>
<rect x="277.604" y="379.37" fill="#F26C7C" width="7.525" height="7.524"/>
<rect x="287.889" y="379.37" fill="#F26C7C" width="7.525" height="7.524"/>
<rect x="298.174" y="379.37" fill="#F26C7C" width="7.525" height="7.524"/>
<rect x="308.458" y="379.37" fill="#F26C7C" width="7.524" height="7.524"/>
<rect x="318.743" y="379.37" fill="#F26C7C" width="7.524" height="7.524"/>
<g opacity="0.4">
	<g>
		<defs>
			<rect id="SVGID_3_" x="232.85" y="271.58" width="139.811" height="168.06"/>
		</defs>
		<clipPath id="SVGID_4_">
			<use xlink:href="#SVGID_3_"  overflow="visible"/>
		</clipPath>
		<path clip-path="url(#SVGID_4_)" fill="#FFFFFF" d="M302.757,285.646c8.377,4.036,25.286,10.075,54.196,12.173v14.625
			c-1.492,2.458-2.889,5.657-3.813,9.769c-2.388,10.613-0.953,24.591,4.265,41.547c2.328,7.568,1.855,14.6-1.445,21.498
			c-3.051,6.374-8.518,12.725-16.25,18.875c-12.737,10.132-28.211,17.049-36.952,20.637c-8.742-3.588-24.216-10.505-36.952-20.637
			c-7.734-6.15-13.201-12.501-16.251-18.875c-3.302-6.898-3.774-13.93-1.445-21.498c5.231-17.001,6.613-31.022,4.109-41.675
			c-0.964-4.098-2.392-7.283-3.909-9.729v-14.542C270.447,296.175,289.885,291.85,302.757,285.646 M302.757,271.584
			c-1.728,0-3.453,0.347-4.796,1.037c-9.941,5.12-29.271,10.588-57.983,11.864c-3.017,0.134-5.465,2.57-5.465,5.589v27.161
			c0,0,11.263,7.193,0.409,42.466c-14.918,48.482,55.285,74.915,67.835,79.934c12.549-5.019,82.751-31.451,67.834-79.934
			c-10.854-35.272,0.159-42.466,0.159-42.466v-27.161c0-3.019-2.449-5.455-5.465-5.589c-28.713-1.276-47.791-6.744-57.734-11.864
			C306.209,271.931,304.482,271.584,302.757,271.584"/>
	</g>
</g>
<path fill="#191818" d="M302.757,279.95c0.526,0,0.893,0.091,1.006,0.13c13.142,6.754,34.396,11.326,58.621,12.638v21.353
	c-1.47,2.076-2.99,5.087-3.946,9.333c-2.177,9.679-0.779,22.718,4.157,38.758c5.106,16.599-1.272,31.718-19.507,46.221
	c-14.387,11.444-31.92,18.869-40.331,22.248c-8.413-3.379-25.946-10.804-40.333-22.248c-18.232-14.502-24.613-29.622-19.506-46.221
	c4.943-16.066,6.295-29.133,4.014-38.836c-0.997-4.241-2.555-7.243-4.053-9.313v-21.295c24.393-1.318,45.742-5.89,58.871-12.638
	C301.863,280.041,302.229,279.95,302.757,279.95 M302.757,271.584c-1.728,0-3.453,0.346-4.796,1.037
	c-9.941,5.12-29.271,10.588-57.983,11.864c-3.017,0.134-5.465,2.57-5.465,5.589v27.161c0,0,11.263,7.193,0.409,42.466
	c-14.918,48.482,55.285,74.915,67.835,79.934c12.549-5.019,82.751-31.451,67.834-79.934c-10.854-35.272,0.159-42.466,0.159-42.466
	v-27.161c0-3.019-2.449-5.455-5.465-5.589c-28.713-1.276-47.791-6.744-57.734-11.864
	C306.209,271.93,304.482,271.584,302.757,271.584"/>
<path fill="#191818" d="M370.75,290.075c0-3.02-2.449-5.456-5.466-5.59c-28.712-1.275-47.791-6.743-57.733-11.864
	c-2.684-1.382-6.905-1.382-9.59,0c-9.941,5.121-29.271,10.589-57.982,11.864c-3.018,0.134-5.467,2.57-5.467,5.59v27.16
	c0,0,0.07,0.042,0.195,0.128h135.848c0.125-0.086,0.195-0.128,0.195-0.128V290.075z"/>
<polygon fill="#FFFFFF" points="281.982,308.53 281.982,293.659 278.941,296.819 276.623,294.382 282.523,288.451 286.046,288.451 
	286.046,308.53 "/>
<path fill="#FFFFFF" d="M289.266,306.543c0-1.264,1.083-2.348,2.348-2.348s2.318,1.084,2.318,2.348c0,1.266-1.054,2.318-2.318,2.318
	S289.266,307.809,289.266,306.543"/>
<path fill="#FFFFFF" d="M296.551,305.73l2.438-2.589c1.054,1.385,2.469,2.168,4.185,2.168c1.927,0,3.041-1.475,3.041-3.162
	c0-1.986-1.054-3.161-2.86-3.161c-1.354,0-2.377,0.482-3.312,1.656l-2.92-0.783v-11.409h12.042v3.551h-8.008v5.149
	c0.783-0.963,2.137-1.656,3.673-1.656c3.04,0,5.479,2.379,5.479,6.533c0,4.034-2.74,6.864-7.016,6.864
	C300.193,308.892,298.055,307.748,296.551,305.73"/>
<polygon fill="#FFFFFF" points="323.131,308.53 318.494,300.674 317.079,302.9 317.079,308.53 313.045,308.53 313.045,288.451 
	317.079,288.451 317.079,297.573 322.739,288.451 327.436,288.451 321.023,297.903 327.889,308.53 "/>
<polygon fill="#FFFFFF" points="273.702,296.748 266.244,295.617 262.923,288.52 259.604,295.617 252.145,296.748 257.533,302.282 
	256.186,310.077 262.923,306.396 269.66,310.077 268.313,302.282 "/>
<polygon fill="#FFFFFF" points="353.369,296.748 345.91,295.617 342.59,288.52 339.27,295.617 331.811,296.748 337.2,302.282 
	335.853,310.077 342.59,306.396 349.326,310.077 347.979,302.282 "/>
<polygon fill="#FFFFFF" points="355.07,448.748 302.777,462.932 250.484,447.243 250.484,419.723 302.777,435.41 355.07,419.723 "/>
<path fill="#010101" d="M302.777,463.855l-54.552-13.335v-33.674l54.552,13.334l54.551-13.334v33.674L302.777,463.855z
	 M252.742,446.976l50.035,12.231l50.035-12.231v-24.377l-50.035,12.23l-50.035-12.23V446.976z"/>
<polygon fill="#010101" points="331.558,425.91 357.395,416.932 344.321,407.15 323.308,425.162 "/>
<polygon fill="#010101" points="273.955,425.91 248.118,416.932 261.191,407.15 282.205,425.162 "/>
<polygon fill="#010101" points="274.627,436.336 272.037,430.799 269.447,436.336 263.629,437.219 267.833,441.535 266.782,447.616 
	272.037,444.744 277.292,447.616 276.241,441.535 280.445,437.219 "/>
<polygon fill="#010101" points="305.314,442.413 302.455,436.303 299.597,442.413 293.176,443.387 297.814,448.151 296.654,454.862 
	302.455,451.693 308.255,454.862 307.095,448.151 311.734,443.387 "/>
<polygon fill="#F26C7C" points="335.652,436.336 333.062,430.799 330.472,436.336 324.652,437.219 328.857,441.535 327.807,447.616 
	333.062,444.744 338.316,447.616 337.266,441.535 341.47,437.219 "/>
<path fill="#010101" d="M395.627,379c-1.816-3.577-5.512-6.851-6.379-10.245l-0.532-0.223c-1.337,3.336-1.192,7.327-0.168,10.951
	c1.108,4.704,3.424,8.369,4.508,12.994c0.192,0.89,0.353,1.775,0.458,2.742c6.956-5.049,13.369-10.808,15.182-19.897l-12.193,6.129
	C396.339,380.604,396.01,379.765,395.627,379"/>
<path fill="#010101" d="M392.492,337.217c0.577,1.658,0.758,3.546,1.547,5.248c0.51,0.668,0.961,1.357,1.432,2.056
	c1.314,1.815,2.676,3.431,4.42,3.885c0.605-2.796,1.064-5.733,0.533-8.912c-0.604-2.012-1.506-3.807-2.689-5.429
	c-1.848-2.559-4.357-4.637-7.396-6.199c-0.099-0.057-0.166-0.071-0.223-0.119l-0.404,0.093c0.158,0.24,0.304,0.516,0.461,0.796
	C391.549,331.261,391.961,334.038,392.492,337.217"/>
<path fill="#010101" d="M397.125,354.383c-2.652-3.01-7.049-5.257-8.736-8.326l-0.57-0.084c-0.461,3.564,0.675,7.393,2.572,10.646
	c2.248,4.278,5.406,7.249,7.611,11.456c0.41,0.813,0.785,1.631,1.129,2.54c5.475-6.626,10.246-13.805,9.729-23.058l-10.276,8.98
	C398.215,355.758,397.688,355.028,397.125,354.383"/>
<path fill="#010101" d="M209.887,379c1.815-3.577,5.512-6.851,6.379-10.245l0.531-0.223c1.337,3.336,1.193,7.327,0.168,10.951
	c-1.107,4.704-3.424,8.369-4.508,12.994c-0.193,0.89-0.354,1.775-0.458,2.742c-6.956-5.049-13.369-10.808-15.183-19.897
	l12.195,6.129C209.174,380.604,209.503,379.765,209.887,379"/>
<path fill="#010101" d="M213.021,337.217c-0.578,1.658-0.758,3.546-1.547,5.248c-0.512,0.668-0.961,1.357-1.432,2.056
	c-1.314,1.815-2.677,3.431-4.421,3.885c-0.604-2.796-1.065-5.733-0.534-8.912c0.606-2.012,1.508-3.807,2.69-5.429
	c1.849-2.559,4.358-4.637,7.396-6.199c0.1-0.057,0.168-0.071,0.224-0.119l0.403,0.093c-0.156,0.24-0.303,0.516-0.459,0.796
	C213.965,331.261,213.553,334.038,213.021,337.217"/>
<path fill="#010101" d="M208.388,354.383c2.653-3.01,7.049-5.257,8.735-8.326l0.571-0.084c0.461,3.564-0.675,7.393-2.573,10.646
	c-2.248,4.278-5.406,7.249-7.611,11.456c-0.409,0.813-0.784,1.631-1.127,2.54c-5.475-6.626-10.246-13.805-9.73-23.058l10.275,8.98
	C207.297,355.758,207.826,355.028,208.388,354.383"/>
<path fill="#010101" d="M376.024,420.157c-0.916-0.017-1.783-0.026-2.638,0.015c3.211-4.571,2.291-10.163,4.058-15.119l-0.017-0.219
	c-5.33,2.008-8.125,6.701-10.731,11.656c-1.861,3.592-3.683,7.274-6.339,9.994c1.109,0.08,2.152,0.229,3.234,0.389
	c1.121,0.164,2.274,0.386,3.435,0.691c2.306,0.135,4.581,0.238,6.731,0.167c4.036-0.171,7.795-0.854,11.037-2.606
	c1.502-0.797,2.902-1.849,4.131-3.16c-0.949-0.154-1.992-0.342-3.027-0.524C382.633,420.886,379.2,420.315,376.024,420.157"/>
<path fill="#010101" d="M389.024,404.584c-1.494-5.036-4.274-10.122-3.864-15.641l-0.143-0.219l-0.375,0.165
	c-0.043,0.036-0.096,0.108-0.101,0.144c-0.292,0.5-0.601,0.786-1.136,1.3c-3.805,6.707-3.23,14.78-1.275,21.92
	c0.32,1.177,0.653,2.295,1.063,3.425c3.423-2.676,7.645-3.358,11.443-5.306c0.34-0.207,0.676-0.37,1.028-0.582
	c3.66-2.641,5.886-7.007,6.841-11.183c-2.373,0.757-4.699,1.367-6.875,2.186C393.285,401.639,391.023,402.781,389.024,404.584"/>
<path fill="#010101" d="M229.552,420.157c0.915-0.017,1.782-0.026,2.638,0.015c-3.212-4.571-2.291-10.163-4.059-15.119l0.018-0.219
	c5.329,2.008,8.124,6.701,10.73,11.656c1.861,3.592,3.684,7.274,6.34,9.994c-1.109,0.08-2.153,0.229-3.234,0.389
	c-1.122,0.164-2.275,0.386-3.436,0.691c-2.305,0.135-4.58,0.238-6.731,0.167c-4.036-0.171-7.795-0.854-11.037-2.606
	c-1.502-0.797-2.901-1.849-4.131-3.16c0.949-0.154,1.992-0.342,3.028-0.524C222.942,420.886,226.375,420.315,229.552,420.157"/>
<path fill="#010101" d="M216.552,404.584c1.493-5.036,4.274-10.122,3.864-15.641l0.143-0.219l0.374,0.165
	c0.044,0.036,0.097,0.108,0.101,0.144c0.293,0.5,0.602,0.786,1.137,1.3c3.805,6.707,3.229,14.78,1.275,21.92
	c-0.32,1.177-0.654,2.295-1.063,3.425c-3.424-2.676-7.645-3.358-11.443-5.306c-0.341-0.207-0.677-0.37-1.029-0.582
	c-3.66-2.641-5.886-7.007-6.841-11.183c2.373,0.757,4.7,1.367,6.876,2.186C212.291,401.639,214.553,402.781,216.552,404.584"/>
</svg>
