<?xml version="1.0" encoding="utf-8"?>
<!-- Generator: Adobe Illustrator 16.0.0, SVG Export Plug-In . SVG Version: 6.00 Build 0)  -->
<!DOCTYPE svg PUBLIC "-//W3C//DTD SVG 1.1//EN" "http://www.w3.org/Graphics/SVG/1.1/DTD/svg11.dtd">
<svg version="1.1" id="Layer_1" xmlns="http://www.w3.org/2000/svg" xmlns:xlink="http://www.w3.org/1999/xlink" x="0px" y="0px"
	 width="612px" height="792px" viewBox="0 0 612 792" enable-background="new 0 0 612 792" xml:space="preserve">
<path fill="#F26C7C" d="M370.11,386.942c-10.15-32.988-1.839-41.101-0.036-42.339h-67.366h-68.481
	c1.802,1.238,10.365,9.351,0.215,42.339c-14.918,48.481,55.285,74.916,67.834,79.934c0.137-0.055,0.283-0.112,0.433-0.172
	C316.346,461.278,384.865,434.896,370.11,386.942"/>
<g opacity="0.5">
	<g>
		<defs>
			<rect id="SVGID_1_" x="261.05" y="344.6" width="111.13" height="122.1"/>
		</defs>
		<clipPath id="SVGID_2_">
			<use xlink:href="#SVGID_1_"  overflow="visible"/>
		</clipPath>
		<path clip-path="url(#SVGID_2_)" fill="#DF2E54" d="M370.109,386.942c-10.149-32.988-1.838-41.102-0.035-42.339h-67.366v8.929
			c-0.086-0.001-0.173-0.005-0.259-0.005l0,0c-5.469,0-10.817,1.073-15.9,3.188c-5.157,2.147-9.742,5.243-13.629,9.202
			c-3.751,3.821-6.691,8.278-8.738,13.246c-2.048,4.969-3.101,10.203-3.131,15.557c-0.031,5.546,1.041,10.975,3.188,16.132
			c3.205,7.696,8.574,14.17,15.528,18.72c6.778,4.435,14.632,6.778,22.71,6.778c0.077,0,0.154-0.002,0.231-0.002v30.354
			C316.345,461.278,384.865,434.896,370.109,386.942 M302.477,428.325c-13.076,0-25.488-7.733-30.826-20.558
			c-7.086-17.018,0.967-36.557,17.983-43.641c4.194-1.746,8.54-2.573,12.815-2.573c0.086,0,0.173,0.004,0.259,0.005v66.763
			C302.631,428.323,302.554,428.325,302.477,428.325"/>
	</g>
</g>
<path fill="#FFFFFF" d="M315.558,425.268c-17.019,7.086-36.558-0.967-43.642-17.984s0.967-36.556,17.984-43.642
	c17.018-7.085,36.557,0.967,43.641,17.985C340.627,398.645,332.575,418.183,315.558,425.268"/>
<g opacity="0.4">
	<g>
		<defs>
			<rect id="SVGID_3_" x="232.37" y="298.82" width="139.81" height="168.06"/>
		</defs>
		<clipPath id="SVGID_4_">
			<use xlink:href="#SVGID_3_"  overflow="visible"/>
		</clipPath>
		<path clip-path="url(#SVGID_4_)" fill="#FFFFFF" d="M302.275,312.885c8.377,4.037,25.288,10.076,54.197,12.174v14.625
			c-1.492,2.458-2.889,5.657-3.813,9.769c-2.389,10.613-0.953,24.591,4.264,41.547c2.328,7.568,1.855,14.6-1.445,21.499
			c-3.05,6.373-8.518,12.725-16.251,18.875c-12.737,10.132-28.21,17.049-36.952,20.637c-8.74-3.588-24.215-10.505-36.951-20.637
			c-7.733-6.15-13.201-12.502-16.252-18.875c-3.3-6.898-3.772-13.931-1.443-21.499c5.229-17.001,6.613-31.022,4.107-41.675
			c-0.962-4.098-2.39-7.283-3.908-9.729v-14.542C269.967,323.416,289.404,319.09,302.275,312.885 M302.275,298.824
			c-1.726,0-3.453,0.347-4.794,1.037c-9.942,5.12-29.272,10.588-57.983,11.864c-3.018,0.134-5.467,2.57-5.467,5.589v27.161
			c0,0,11.264,7.193,0.41,42.466c-14.917,48.482,55.285,74.915,67.834,79.934c12.549-5.019,82.752-31.451,67.834-79.934
			c-10.853-35.272,0.159-42.466,0.159-42.466v-27.161c0-3.019-2.448-5.455-5.465-5.589c-28.712-1.276-47.791-6.744-57.733-11.864
			C305.729,299.171,304.002,298.824,302.275,298.824"/>
	</g>
</g>
<polygon fill="#F26C7C" points="302.549,361.887 301.922,391.361 306.814,395.501 334.658,395.877 335.41,388.602 327.885,373.802 
	315.092,364.145 "/>
<path fill="#191818" d="M302.222,370.255c0,0-0.001,0.02-0.005,0.053h0.011C302.224,370.275,302.222,370.255,302.222,370.255"/>
<path fill="#191818" d="M302.225,370.282c0.001,0.014,0.537,0.026,1.195,0.026s1.193-0.561,1.193-1.254v-5.77
	c0-0.692-0.563-1.254-1.255-1.254h-1.636c-0.693,0-1.254,0.562-1.254,1.254v5.77c0,0.693,0.391,1.254,0.873,1.254
	c0.483,0,0.877-0.012,0.877-0.026C302.221,370.267,302.223,370.267,302.225,370.282"/>
<path fill="#191818" d="M335.402,395.709v-1.636c0-0.693-0.563-1.255-1.255-1.255h-5.687c-0.692,0-1.254,0.562-1.254,1.255v1.636
	c0,0.693,0.562,1.254,1.254,1.254h5.687C334.84,396.963,335.402,396.402,335.402,395.709"/>
<path fill="#191818" d="M269.68,394.073v1.636c0,0.693,0.562,1.255,1.254,1.255h5.52c0.691,0,1.254-0.562,1.254-1.255v-1.636
	c0-0.693-0.563-1.254-1.254-1.254h-5.52C270.241,392.819,269.68,393.38,269.68,394.073"/>
<path fill="#191818" d="M301.723,427.752h1.636c0.692,0,1.255-0.562,1.255-1.254v-5.436c0-0.692-0.563-1.254-1.255-1.254h-1.636
	c-0.693,0-1.254,0.562-1.254,1.254v5.436C300.469,427.19,301.029,427.752,301.723,427.752"/>
<path fill="#191818" d="M286.11,366.433c-0.601,0.346-0.806,1.113-0.46,1.713l2.85,4.936c0.346,0.6,1.115,0.808,1.717,0.466
	c0.603-0.343,0.811-1.107,0.463-1.707l-2.856-4.948C287.477,366.292,286.71,366.087,286.11,366.433"/>
<path fill="#191818" d="M274.082,378.46c-0.346,0.6-0.141,1.367,0.459,1.713l4.867,2.811c0.601,0.346,1.363,0.138,1.705-0.464
	c0.344-0.602,0.135-1.371-0.467-1.718l-4.852-2.801C275.195,377.655,274.428,377.86,274.082,378.46"/>
<path fill="#191818" d="M274.082,411.321c0.346,0.601,1.113,0.806,1.713,0.46l4.72-2.726c0.599-0.346,0.804-1.112,0.456-1.711
	s-1.117-0.804-1.717-0.458l-4.713,2.722C273.941,409.955,273.736,410.722,274.082,411.321"/>
<path fill="#191818" d="M286.11,423.35c0.6,0.346,1.366,0.141,1.713-0.459l2.71-4.693c0.347-0.601,0.141-1.365-0.461-1.709
	c-0.602-0.346-1.37-0.138-1.717,0.463l-2.705,4.686C285.305,422.236,285.51,423.004,286.11,423.35"/>
<path fill="#191818" d="M318.971,423.35c0.6-0.346,0.805-1.113,0.459-1.713l-2.744-4.755c-0.347-0.601-1.115-0.808-1.718-0.466
	c-0.603,0.343-0.809,1.106-0.463,1.707l2.753,4.768C317.604,423.49,318.371,423.695,318.971,423.35"/>
<path fill="#191818" d="M330.999,411.321c0.347-0.6,0.141-1.366-0.46-1.713l-4.85-2.801c-0.6-0.346-1.363-0.139-1.705,0.464
	c-0.343,0.602-0.134,1.371,0.467,1.719l4.834,2.791C329.886,412.127,330.652,411.922,330.999,411.321"/>
<path fill="#191818" d="M330.999,378.46c-0.347-0.6-1.113-0.805-1.714-0.459l-4.989,2.881c-0.601,0.346-0.804,1.113-0.456,1.712
	c0.348,0.598,1.115,0.803,1.716,0.457l4.983-2.878C331.14,379.828,331.346,379.061,330.999,378.46"/>
<path fill="#191818" d="M318.971,366.433c-0.6-0.346-1.367-0.141-1.713,0.459l-2.896,5.017c-0.348,0.6-0.141,1.365,0.461,1.71
	c0.602,0.344,1.369,0.137,1.716-0.463l2.892-5.01C319.775,367.546,319.57,366.779,318.971,366.433"/>
<path fill="#191818" d="M302.476,430.398c-14.366,0-27.218-8.57-32.739-21.834c-7.513-18.045,1.057-38.838,19.102-46.351
	c4.354-1.813,8.933-2.732,13.611-2.732c14.366,0,27.219,8.57,32.739,21.833c7.513,18.044-1.056,38.837-19.101,46.351
	C311.732,429.479,307.153,430.398,302.476,430.398 M302.449,363.627c-4.129,0-8.173,0.812-12.019,2.413
	c-15.935,6.634-23.503,24.996-16.868,40.932c4.877,11.713,16.227,19.281,28.913,19.281c4.128,0,8.172-0.812,12.019-2.413
	c15.934-6.634,23.502-24.997,16.868-40.932C326.485,371.195,315.138,363.627,302.449,363.627"/>
<rect x="293.101" y="391.499" transform="matrix(0.544 0.8391 -0.8391 0.544 470.2254 -64.6677)" fill="#F26C7C" width="3.011" height="17.534"/>
<path fill="#191818" d="M298.079,395.621c0.006,2.295,1.872,4.151,4.168,4.146c2.295-0.007,4.151-1.873,4.146-4.168
	c-0.008-2.296-4.025-18.447-4.025-18.447S298.072,393.326,298.079,395.621"/>
<path fill="#191818" d="M302.93,391.594c-2.296-0.029-4.181,1.808-4.209,4.103c-0.029,2.296,1.807,4.18,4.104,4.209
	c2.294,0.029,18.511-4.04,18.511-4.04S305.225,391.623,302.93,391.594"/>
<path fill="#191818" d="M302.275,307.19c0.527,0,0.895,0.091,1.006,0.13c13.142,6.754,34.396,11.326,58.621,12.638v21.353
	c-1.468,2.076-2.99,5.087-3.945,9.333c-2.178,9.679-0.778,22.718,4.156,38.758c5.108,16.6-1.272,31.719-19.505,46.221
	c-14.387,11.444-31.92,18.869-40.333,22.248c-8.412-3.379-25.945-10.804-40.332-22.248c-18.232-14.502-24.613-29.621-19.506-46.221
	c4.943-16.066,6.294-29.133,4.014-38.836c-0.998-4.241-2.556-7.243-4.054-9.313v-21.295c24.394-1.318,45.743-5.89,58.872-12.638
	C301.382,307.281,301.748,307.19,302.275,307.19 M302.275,298.824c-1.726,0-3.453,0.346-4.794,1.037
	c-9.942,5.12-29.272,10.588-57.983,11.864c-3.018,0.134-5.467,2.57-5.467,5.589v27.161c0,0,11.264,7.193,0.41,42.466
	c-14.917,48.482,55.285,74.915,67.834,79.934c12.549-5.019,82.752-31.451,67.834-79.934c-10.853-35.272,0.159-42.466,0.159-42.466
	v-27.161c0-3.019-2.448-5.455-5.465-5.589c-28.712-1.276-47.791-6.744-57.733-11.864
	C305.729,299.17,304.002,298.824,302.275,298.824"/>
<path fill="#191818" d="M370.27,317.315c0-3.02-2.449-5.456-5.466-5.59c-28.712-1.275-47.791-6.743-57.733-11.864
	c-2.685-1.382-6.905-1.382-9.59,0c-9.941,5.121-29.271,10.589-57.982,11.864c-3.018,0.134-5.467,2.57-5.467,5.59v27.16
	c0,0,0.07,0.042,0.195,0.128h135.848c0.125-0.086,0.195-0.128,0.195-0.128V317.315z"/>
<path fill="#FFFFFF" d="M286.559,335.771v-4.275h-8.188v-3.371l7.044-12.434h5.178v12.253h2.019v3.552h-2.019v4.275H286.559z
	 M286.559,319.784l-4.546,8.159h4.546V319.784z"/>
<path fill="#FFFFFF" d="M294.203,325.745c0-5.178,2.138-10.355,7.105-10.355c4.997,0,7.105,5.178,7.105,10.355
	c0,5.148-2.078,10.388-7.105,10.388C296.341,336.133,294.203,330.894,294.203,325.745 M304.318,325.745
	c0-3.883-0.662-6.772-3.01-6.772c-2.318,0-2.98,2.89-2.98,6.772c0,3.854,0.662,6.805,2.98,6.805
	C303.656,332.55,304.318,329.6,304.318,325.745"/>
<path fill="#FFFFFF" d="M310.367,325.745c0-5.178,2.138-10.355,7.105-10.355c4.997,0,7.105,5.178,7.105,10.355
	c0,5.148-2.078,10.388-7.105,10.388C312.505,336.133,310.367,330.894,310.367,325.745 M320.484,325.745
	c0-3.883-0.664-6.772-3.012-6.772c-2.318,0-2.98,2.89-2.98,6.772c0,3.854,0.662,6.805,2.98,6.805
	C319.82,332.55,320.484,329.6,320.484,325.745"/>
<polygon fill="#FFFFFF" points="273.222,323.988 265.764,322.857 262.442,315.76 259.121,322.857 251.664,323.988 257.053,329.522 
	255.705,337.317 262.442,333.637 269.18,337.317 267.832,329.522 "/>
<polygon fill="#FFFFFF" points="352.889,323.988 345.43,322.857 342.109,315.76 338.789,322.857 331.33,323.988 336.72,329.522 
	335.372,337.317 342.109,333.637 348.846,337.317 347.499,329.522 "/>
<path fill="#010101" d="M376.641,437.842c-0.916-0.018-1.783-0.027-2.638,0.014c3.212-4.571,2.291-10.163,4.058-15.119l-0.017-0.219
	c-5.329,2.008-8.124,6.701-10.731,11.656c-1.861,3.593-3.683,7.274-6.339,9.994c1.109,0.08,2.153,0.229,3.234,0.389
	c1.122,0.163,2.276,0.386,3.435,0.691c2.307,0.136,4.581,0.238,6.733,0.168c4.034-0.172,7.794-0.855,11.036-2.606
	c1.502-0.798,2.902-1.849,4.131-3.161c-0.948-0.154-1.992-0.342-3.028-0.523C383.251,438.569,379.816,438,376.641,437.842"/>
<path fill="#010101" d="M389.641,420.01c-1.494-5.035-4.273-10.121-3.863-15.641l-0.144-0.219l-0.374,0.165
	c-0.044,0.036-0.097,0.107-0.102,0.144c-0.291,0.501-0.6,0.786-1.135,1.3c-3.806,6.708-3.23,14.78-1.275,21.921
	c0.32,1.176,0.652,2.295,1.063,3.425c3.422-2.677,7.644-3.359,11.442-5.307c0.342-0.207,0.677-0.37,1.03-0.582
	c3.658-2.641,5.885-7.007,6.841-11.183c-2.373,0.757-4.701,1.368-6.877,2.186C393.902,417.065,391.64,418.207,389.641,420.01"/>
<path fill="#010101" d="M213.557,397.123c0.117,1.752,0.689,3.56,0.63,5.435c-0.208,0.813-0.353,1.625-0.513,2.452
	c-0.498,2.185-1.119,4.205-2.547,5.305c-1.651-2.336-3.224-4.857-3.979-7.992c-0.229-2.087-0.103-4.092,0.351-6.048
	c0.698-3.078,2.195-5.973,4.379-8.6c0.069-0.091,0.125-0.13,0.158-0.196l0.408-0.074c-0.051,0.283-0.077,0.595-0.111,0.913
	C212.092,391.272,212.801,393.989,213.557,397.123"/>
<path fill="#010101" d="M391.387,397.123c-0.117,1.752-0.69,3.56-0.631,5.435c0.209,0.813,0.354,1.625,0.513,2.452
	c0.499,2.185,1.119,4.205,2.547,5.305c1.651-2.336,3.224-4.857,3.979-7.992c0.23-2.087,0.104-4.092-0.351-6.048
	c-0.698-3.078-2.194-5.973-4.379-8.6c-0.069-0.091-0.125-0.13-0.157-0.196l-0.408-0.074c0.051,0.283,0.076,0.595,0.111,0.913
	C392.851,391.272,392.143,393.989,391.387,397.123"/>
<path fill="#010101" d="M227.91,437.842c0.916-0.018,1.783-0.027,2.639,0.014c-3.211-4.571-2.291-10.163-4.059-15.119l0.018-0.219
	c5.328,2.008,8.123,6.701,10.73,11.656c1.861,3.593,3.684,7.274,6.34,9.994c-1.109,0.08-2.154,0.229-3.234,0.389
	c-1.123,0.163-2.275,0.386-3.436,0.691c-2.306,0.136-4.58,0.238-6.732,0.168c-4.034-0.172-7.795-0.855-11.037-2.606
	c-1.5-0.798-2.901-1.849-4.131-3.161c0.949-0.154,1.992-0.342,3.029-0.523C221.301,438.569,224.735,438,227.91,437.842"/>
<path fill="#010101" d="M214.911,420.01c1.493-5.035,4.274-10.121,3.864-15.641l0.143-0.219l0.374,0.165
	c0.044,0.036,0.097,0.107,0.101,0.144c0.293,0.501,0.602,0.786,1.137,1.3c3.805,6.708,3.229,14.78,1.274,21.921
	c-0.319,1.176-0.653,2.295-1.062,3.425c-3.424-2.677-7.645-3.359-11.443-5.307c-0.342-0.207-0.677-0.37-1.029-0.582
	c-3.66-2.641-5.886-7.007-6.842-11.183c2.373,0.757,4.701,1.368,6.876,2.186C210.65,417.065,212.912,418.207,214.911,420.01"/>
<path fill="#1A1A19" d="M302.25,471.469c-3.511-1.403-11.533-5.484-20.941-10.254v14.698c11.416,7.015,20.568,11.113,20.568,11.113
	l0.398-0.001l0.398,0.001c0,0,9.153-4.099,20.568-11.113v-14.726c-9.063,4.597-16.848,8.632-20.561,10.109
	C302.531,471.356,302.385,471.415,302.25,471.469"/>
<path fill="#1A1A19" d="M248.979,450.546c8.118,9.569,19.146,17.858,29.014,24.17v-15.223c-9.688-5.162-20.401-12.017-29.014-20.576
	V450.546z"/>
<path fill="#1A1A19" d="M326.559,474.717c9.869-6.313,20.895-14.602,29.014-24.17V438.86c-8.607,8.57-19.316,15.433-29.014,20.603
	V474.717z"/>
</svg>
