<?xml version="1.0" encoding="utf-8"?>
<!-- Generator: Adobe Illustrator 16.0.0, SVG Export Plug-In . SVG Version: 6.00 Build 0)  -->
<!DOCTYPE svg PUBLIC "-//W3C//DTD SVG 1.1//EN" "http://www.w3.org/Graphics/SVG/1.1/DTD/svg11.dtd">
<svg version="1.1" id="Layer_1" xmlns="http://www.w3.org/2000/svg" xmlns:xlink="http://www.w3.org/1999/xlink" x="0px" y="0px"
	 width="612px" height="792px" viewBox="0 0 612 792" enable-background="new 0 0 612 792" xml:space="preserve">
<path fill="none" d="M346.63,60"/>
<path fill="none" d="M346.63,3305.597"/>
<path fill="#F26C7C" d="M370.486,384.942c-10.15-32.988-1.838-41.101-0.035-42.339h-67.367h-68.481
	c1.804,1.238,10.366,9.351,0.216,42.339c-14.918,48.481,55.285,74.916,67.834,79.934c0.137-0.055,0.282-0.112,0.432-0.172
	C316.722,459.278,385.242,432.896,370.486,384.942"/>
<g opacity="0.5">
	<g>
		<defs>
			<rect id="SVGID_1_" x="301.971" y="341.02" width="69.469" height="122.1"/>
		</defs>
		<clipPath id="SVGID_2_">
			<use xlink:href="#SVGID_1_"  overflow="visible"/>
		</clipPath>
		<path clip-path="url(#SVGID_2_)" fill="#DF2E54" d="M369.373,383.358c-10.15-32.988-1.838-41.101-0.035-42.339h-67.367v122.102
			C315.608,457.694,384.129,431.313,369.373,383.358"/>
	</g>
</g>
<path fill="#F26C7C" d="M325.361,426.504H279.1c-4.695,0-8.502-3.807-8.502-8.503v-38.097c0-4.696,3.807-8.503,8.502-8.503h46.262
	c4.695,0,8.502,3.807,8.502,8.503v38.097C333.863,422.697,330.057,426.504,325.361,426.504"/>
<path fill="#191818" d="M325.361,428.511H279.1c-5.795,0-10.51-4.715-10.51-10.51v-38.097c0-5.795,4.715-10.51,10.51-10.51h46.262
	c5.795,0,10.51,4.715,10.51,10.51v38.097C335.871,423.796,331.156,428.511,325.361,428.511 M279.1,373.408
	c-3.582,0-6.496,2.914-6.496,6.496v38.097c0,3.582,2.914,6.496,6.496,6.496h46.262c3.582,0,6.496-2.914,6.496-6.496v-38.097
	c0-3.582-2.914-6.496-6.496-6.496H279.1z"/>
<path fill="#F26C7C" d="M333.863,372.378c0-4.696-3.807-8.503-8.502-8.503h-46.261c-4.696,0-8.503,3.807-8.503,8.503v7.125h63.266
	V372.378z"/>
<path fill="#FFFFFF" d="M270.598,380.005v30.472c0,4.695,3.807,8.502,8.503,8.502h46.261c4.695,0,8.502-3.807,8.502-8.502v-30.472
	H270.598z"/>
<path fill="#191818" d="M325.361,420.985H279.1c-5.795,0-10.51-4.715-10.51-10.51v-38.097c0-5.795,4.715-10.51,10.51-10.51h46.262
	c5.795,0,10.51,4.715,10.51,10.51v38.097C335.871,416.271,331.156,420.985,325.361,420.985 M279.1,365.883
	c-3.582,0-6.496,2.914-6.496,6.496v38.097c0,3.582,2.914,6.496,6.496,6.496h46.262c3.582,0,6.496-2.914,6.496-6.496v-38.097
	c0-3.582-2.914-6.496-6.496-6.496H279.1z"/>
<path fill="#FFFFFF" d="M318.472,351.503c-2.749,0-4.978,2.229-4.978,4.978v10.429c0,2.749,2.229,4.977,4.978,4.977
	s4.977-2.228,4.977-4.977V356.48C323.448,353.731,321.221,351.503,318.472,351.503"/>
<path fill="#191818" d="M318.471,373.642c-3.712,0-6.732-3.02-6.732-6.733V356.48c0-3.713,3.021-6.733,6.732-6.733
	c3.713,0,6.732,3.02,6.732,6.733v10.429C325.203,370.622,322.184,373.642,318.471,373.642 M318.471,353.259
	c-1.775,0-3.221,1.445-3.221,3.222v10.429c0,1.776,1.445,3.221,3.221,3.221s3.221-1.445,3.221-3.221V356.48
	C321.691,354.704,320.246,353.259,318.471,353.259"/>
<path fill="#FFFFFF" d="M286.106,351.503c-2.748,0-4.976,2.229-4.976,4.978v10.429c0,2.749,2.228,4.977,4.976,4.977
	c2.749,0,4.977-2.228,4.977-4.977V356.48C291.083,353.731,288.855,351.503,286.106,351.503"/>
<path fill="#191818" d="M286.105,373.642c-3.712,0-6.73-3.02-6.73-6.733V356.48c0-3.713,3.019-6.733,6.73-6.733
	c3.713,0,6.732,3.02,6.732,6.733v10.429C292.838,370.622,289.818,373.642,286.105,373.642 M286.105,353.259
	c-1.775,0-3.22,1.445-3.22,3.222v10.429c0,1.776,1.444,3.221,3.22,3.221s3.221-1.445,3.221-3.221V356.48
	C289.326,354.704,287.881,353.259,286.105,353.259"/>
<rect x="277.5" y="384.041" fill="#F26C7C" width="7.525" height="7.525"/>
<rect x="287.785" y="384.041" fill="#F26C7C" width="7.525" height="7.525"/>
<rect x="298.07" y="384.041" fill="#F26C7C" width="7.525" height="7.525"/>
<rect x="308.354" y="384.041" fill="#F26C7C" width="7.525" height="7.525"/>
<rect x="318.639" y="384.041" fill="#F26C7C" width="7.525" height="7.525"/>
<rect x="277.5" y="394.325" fill="#F26C7C" width="7.525" height="7.524"/>
<rect x="287.785" y="394.325" fill="#F26C7C" width="7.525" height="7.524"/>
<rect x="298.07" y="394.325" fill="#F26C7C" width="7.525" height="7.524"/>
<rect x="308.354" y="394.325" fill="#F26C7C" width="7.525" height="7.524"/>
<rect x="318.639" y="394.325" fill="#F26C7C" width="7.525" height="7.524"/>
<rect x="277.5" y="404.61" fill="#F26C7C" width="7.525" height="7.524"/>
<rect x="287.785" y="404.61" fill="#F26C7C" width="7.525" height="7.524"/>
<rect x="298.07" y="404.61" fill="#F26C7C" width="7.525" height="7.524"/>
<rect x="308.354" y="404.61" fill="#F26C7C" width="7.525" height="7.524"/>
<rect x="318.639" y="404.61" fill="#F26C7C" width="7.525" height="7.524"/>
<g opacity="0.4">
	<g>
		<defs>
			<rect id="SVGID_3_" x="232.75" y="296.82" width="139.811" height="168.06"/>
		</defs>
		<clipPath id="SVGID_4_">
			<use xlink:href="#SVGID_3_"  overflow="visible"/>
		</clipPath>
		<path clip-path="url(#SVGID_4_)" fill="#FFFFFF" d="M302.652,310.885c8.377,4.037,25.287,10.076,54.196,12.174v14.625
			c-1.491,2.458-2.888,5.657-3.813,9.769c-2.387,10.613-0.951,24.591,4.265,41.547c2.329,7.568,1.856,14.6-1.444,21.499
			c-3.051,6.373-8.518,12.725-16.251,18.875c-12.737,10.132-28.211,17.049-36.952,20.637c-8.742-3.588-24.216-10.505-36.951-20.637
			c-7.733-6.151-13.201-12.502-16.252-18.875c-3.301-6.898-3.773-13.931-1.445-21.499c5.231-17.001,6.613-31.022,4.109-41.675
			c-0.963-4.098-2.39-7.283-3.908-9.729v-14.542C270.344,321.416,289.781,317.09,302.652,310.885 M302.652,296.824
			c-1.727,0-3.453,0.347-4.795,1.037c-9.941,5.12-29.271,10.588-57.984,11.864c-3.016,0.134-5.465,2.57-5.465,5.589v27.161
			c0,0,11.264,7.193,0.41,42.466c-14.918,48.482,55.285,74.915,67.834,79.934c12.549-5.019,82.752-31.451,67.834-79.934
			c-10.854-35.272,0.159-42.466,0.159-42.466v-27.161c0-3.019-2.448-5.455-5.465-5.589c-28.713-1.276-47.791-6.744-57.733-11.864
			C306.105,297.171,304.379,296.824,302.652,296.824"/>
	</g>
</g>
<path fill="#191818" d="M302.652,305.19c0.526,0,0.895,0.091,1.006,0.13c13.142,6.754,34.396,11.326,58.621,12.638v21.353
	c-1.469,2.076-2.99,5.087-3.945,9.333c-2.178,9.679-0.778,22.718,4.156,38.758c5.107,16.6-1.272,31.719-19.506,46.221
	c-14.387,11.444-31.92,18.869-40.332,22.248c-8.412-3.379-25.945-10.804-40.332-22.248c-18.232-14.502-24.613-29.621-19.506-46.221
	c4.943-16.066,6.294-29.133,4.014-38.836c-0.998-4.241-2.556-7.243-4.054-9.313v-21.295c24.394-1.318,45.743-5.89,58.872-12.638
	C301.759,305.281,302.125,305.19,302.652,305.19 M302.652,296.824c-1.727,0-3.453,0.346-4.795,1.037
	c-9.941,5.12-29.271,10.588-57.984,11.864c-3.016,0.134-5.465,2.57-5.465,5.589v27.161c0,0,11.264,7.193,0.41,42.466
	c-14.918,48.482,55.285,74.915,67.834,79.934c12.549-5.019,82.752-31.451,67.834-79.934c-10.854-35.272,0.159-42.466,0.159-42.466
	v-27.161c0-3.019-2.448-5.455-5.465-5.589c-28.713-1.276-47.791-6.744-57.733-11.864
	C306.105,297.17,304.379,296.824,302.652,296.824"/>
<path fill="#191818" d="M370.646,315.315c0-3.02-2.449-5.456-5.466-5.59c-28.713-1.275-47.791-6.743-57.733-11.864
	c-2.685-1.382-6.905-1.382-9.59,0c-9.941,5.121-29.271,10.589-57.984,11.864c-3.016,0.134-5.465,2.57-5.465,5.59v27.16
	c0,0,0.069,0.042,0.194,0.128h135.849c0.125-0.086,0.195-0.128,0.195-0.128V315.315z"/>
<path fill="#FFFFFF" d="M287.205,333.771v-3.251c7.346-7.136,8.881-8.73,8.881-11.019c0-1.536-1.174-2.529-2.679-2.529
	c-1.776,0-3.19,0.813-4.274,2.258l-2.408-2.529c1.625-2.167,4.003-3.313,6.742-3.313c3.885,0,6.715,2.349,6.715,6.082
	c0,3.04-2.047,5.63-7.016,10.747h7.105v3.553H287.205z"/>
<polygon fill="#FFFFFF" points="313.426,333.771 308.789,325.914 307.374,328.141 307.374,333.771 303.34,333.771 303.34,313.691 
	307.374,313.691 307.374,322.813 313.033,313.691 317.73,313.691 311.318,323.144 318.182,333.771 "/>
<polygon fill="#FFFFFF" points="273.598,321.988 266.141,320.857 262.818,313.76 259.499,320.857 252.04,321.988 257.43,327.522 
	256.082,335.317 262.818,331.637 269.556,335.317 268.209,327.522 "/>
<polygon fill="#FFFFFF" points="353.266,321.988 345.806,320.857 342.486,313.76 339.165,320.857 331.707,321.988 337.096,327.522 
	335.749,335.317 342.486,331.637 349.223,335.317 347.875,327.522 "/>
<polygon fill="#FFFFFF" points="354.967,473.988 302.674,488.172 250.381,472.483 250.381,444.963 302.674,460.65 354.967,444.963 
	"/>
<path fill="#010101" d="M302.673,489.096l-54.551-13.335v-33.674l54.551,13.334l54.552-13.334v33.674L302.673,489.096z
	 M252.639,472.216l50.034,12.231l50.035-12.231v-24.377l-50.035,12.23l-50.034-12.23V472.216z"/>
<polygon fill="#010101" points="331.453,451.15 357.291,442.172 344.217,432.391 323.203,450.402 "/>
<polygon fill="#010101" points="273.852,451.15 248.014,442.172 261.088,432.391 282.102,450.402 "/>
<polygon fill="#010101" points="274.523,461.576 271.934,456.039 269.344,461.576 263.525,462.459 267.729,466.775 266.678,472.856 
	271.934,469.984 277.188,472.856 276.137,466.775 280.342,462.459 "/>
<polygon fill="#010101" points="305.21,467.653 302.352,461.543 299.492,467.653 293.072,468.627 297.711,473.392 296.552,480.103 
	302.352,476.934 308.15,480.103 306.99,473.392 311.631,468.627 "/>
<polygon fill="#010101" points="335.548,461.576 332.957,456.039 330.367,461.576 324.549,462.459 328.754,466.775 327.703,472.856 
	332.957,469.984 338.213,472.856 337.162,466.775 341.365,462.459 "/>
<path fill="#010101" d="M395.523,404.24c-1.817-3.577-5.514-6.852-6.379-10.245l-0.532-0.223c-1.337,3.335-1.192,7.327-0.169,10.951
	c1.109,4.704,3.424,8.369,4.508,12.994c0.193,0.891,0.354,1.775,0.458,2.742c6.957-5.049,13.37-10.809,15.183-19.897l-12.193,6.13
	C396.235,405.844,395.905,405.005,395.523,404.24"/>
<path fill="#010101" d="M392.388,362.457c0.577,1.658,0.758,3.546,1.547,5.248c0.511,0.668,0.961,1.357,1.432,2.056
	c1.314,1.815,2.677,3.431,4.421,3.885c0.605-2.796,1.064-5.733,0.533-8.912c-0.605-2.012-1.507-3.807-2.689-5.429
	c-1.849-2.559-4.358-4.637-7.396-6.199c-0.1-0.057-0.167-0.071-0.223-0.119l-0.404,0.093c0.157,0.24,0.303,0.516,0.46,0.796
	C391.444,356.501,391.856,359.278,392.388,362.457"/>
<path fill="#010101" d="M397.021,379.624c-2.653-3.01-7.049-5.257-8.736-8.326l-0.57-0.084c-0.461,3.564,0.674,7.393,2.572,10.646
	c2.248,4.278,5.406,7.249,7.611,11.456c0.41,0.813,0.785,1.631,1.128,2.54c5.476-6.626,10.246-13.805,9.729-23.058l-10.275,8.98
	C398.111,380.999,397.583,380.269,397.021,379.624"/>
<path fill="#010101" d="M209.782,404.24c1.817-3.577,5.512-6.852,6.379-10.245l0.532-0.223c1.336,3.335,1.192,7.327,0.168,10.951
	c-1.108,4.704-3.424,8.369-4.508,12.994c-0.193,0.891-0.354,1.775-0.459,2.742c-6.955-5.049-13.369-10.809-15.182-19.897
	l12.194,6.13C209.07,405.844,209.398,405.005,209.782,404.24"/>
<path fill="#010101" d="M212.918,362.457c-0.579,1.658-0.758,3.546-1.549,5.248c-0.51,0.668-0.961,1.357-1.43,2.056
	c-1.314,1.815-2.677,3.431-4.421,3.885c-0.606-2.796-1.065-5.733-0.534-8.912c0.605-2.012,1.506-3.807,2.69-5.429
	c1.849-2.559,4.358-4.637,7.396-6.199c0.1-0.057,0.166-0.071,0.224-0.119l0.403,0.093c-0.158,0.24-0.304,0.516-0.461,0.796
	C213.861,356.501,213.449,359.278,212.918,362.457"/>
<path fill="#010101" d="M208.284,379.624c2.651-3.01,7.049-5.257,8.735-8.326l0.571-0.084c0.461,3.564-0.675,7.393-2.573,10.646
	c-2.248,4.278-5.406,7.249-7.611,11.456c-0.409,0.813-0.785,1.631-1.127,2.54c-5.476-6.626-10.246-13.805-9.731-23.058l10.276,8.98
	C207.193,380.999,207.723,380.269,208.284,379.624"/>
<path fill="#010101" d="M375.921,445.397c-0.916-0.017-1.783-0.026-2.638,0.015c3.211-4.571,2.289-10.163,4.058-15.119l-0.017-0.219
	c-5.33,2.008-8.125,6.701-10.731,11.656c-1.862,3.592-3.683,7.274-6.339,9.994c1.109,0.08,2.152,0.229,3.234,0.389
	c1.121,0.164,2.274,0.386,3.435,0.691c2.306,0.135,4.581,0.238,6.731,0.167c4.035-0.171,7.795-0.854,11.037-2.606
	c1.502-0.797,2.902-1.849,4.131-3.16c-0.949-0.154-1.992-0.342-3.027-0.524C382.529,446.126,379.096,445.556,375.921,445.397"/>
<path fill="#010101" d="M388.92,429.824c-1.494-5.036-4.273-10.122-3.863-15.641l-0.144-0.219l-0.374,0.164
	c-0.044,0.036-0.097,0.108-0.102,0.145c-0.291,0.5-0.6,0.786-1.135,1.3c-3.806,6.707-3.23,14.78-1.275,21.92
	c0.32,1.177,0.652,2.295,1.063,3.425c3.422-2.676,7.644-3.358,11.442-5.306c0.342-0.207,0.677-0.37,1.03-0.582
	c3.658-2.641,5.885-7.007,6.841-11.183c-2.373,0.757-4.701,1.367-6.877,2.186C393.182,426.879,390.919,428.021,388.92,429.824"/>
<path fill="#010101" d="M229.447,445.397c0.916-0.017,1.783-0.026,2.639,0.015c-3.213-4.571-2.291-10.163-4.059-15.119l0.018-0.219
	c5.328,2.008,8.123,6.701,10.73,11.656c1.861,3.592,3.684,7.274,6.34,9.994c-1.109,0.08-2.154,0.229-3.234,0.389
	c-1.123,0.164-2.275,0.386-3.436,0.691c-2.306,0.135-4.58,0.238-6.732,0.167c-4.034-0.171-7.795-0.854-11.037-2.606
	c-1.5-0.797-2.901-1.849-4.131-3.16c0.949-0.154,1.992-0.342,3.029-0.524C222.838,446.126,226.272,445.556,229.447,445.397"/>
<path fill="#010101" d="M216.447,429.824c1.494-5.036,4.274-10.122,3.865-15.641l0.143-0.219l0.373,0.164
	c0.045,0.036,0.098,0.108,0.102,0.145c0.292,0.5,0.601,0.786,1.136,1.3c3.806,6.707,3.229,14.78,1.276,21.92
	c-0.321,1.177-0.654,2.295-1.063,3.425c-3.423-2.676-7.644-3.358-11.442-5.306c-0.342-0.207-0.676-0.37-1.029-0.582
	c-3.66-2.641-5.887-7.007-6.842-11.183c2.373,0.757,4.701,1.367,6.877,2.186C212.187,426.879,214.449,428.021,216.447,429.824"/>
</svg>
