<?xml version="1.0" encoding="utf-8"?>
<!-- Generator: Adobe Illustrator 16.0.0, SVG Export Plug-In . SVG Version: 6.00 Build 0)  -->
<!DOCTYPE svg PUBLIC "-//W3C//DTD SVG 1.1//EN" "http://www.w3.org/Graphics/SVG/1.1/DTD/svg11.dtd">
<svg version="1.1" id="Layer_1" xmlns="http://www.w3.org/2000/svg" xmlns:xlink="http://www.w3.org/1999/xlink" x="0px" y="0px"
	 width="612px" height="792px" viewBox="0 0 612 792" enable-background="new 0 0 612 792" xml:space="preserve">
<path fill="#F26C7C" d="M369.882,396.942c-10.149-32.988-1.838-41.101-0.035-42.339H302.48h-68.482
	c1.803,1.238,10.366,9.351,0.216,42.339c-14.918,48.481,55.285,74.916,67.834,79.934c0.136-0.055,0.282-0.112,0.432-0.172
	C316.117,471.278,384.637,444.896,369.882,396.942"/>
<g opacity="0.5">
	<g>
		<defs>
			<rect id="SVGID_1_" x="302.48" y="354.6" width="69.47" height="122.1"/>
		</defs>
		<clipPath id="SVGID_2_">
			<use xlink:href="#SVGID_1_"  overflow="visible"/>
		</clipPath>
		<path clip-path="url(#SVGID_2_)" fill="#DF2E54" d="M369.882,396.942c-10.149-32.988-1.838-41.101-0.035-42.339H302.48v122.101
			C316.117,471.278,384.637,444.896,369.882,396.942"/>
	</g>
</g>
<g opacity="0.4">
	<g>
		<defs>
			<rect id="SVGID_3_" x="232.14" y="308.82" width="139.811" height="168.06"/>
		</defs>
		<clipPath id="SVGID_4_">
			<use xlink:href="#SVGID_3_"  overflow="visible"/>
		</clipPath>
		<path clip-path="url(#SVGID_4_)" fill="#FFFFFF" d="M302.048,322.886c8.377,4.036,25.288,10.075,54.196,12.173v14.625
			c-1.491,2.458-2.888,5.657-3.813,9.769c-2.388,10.613-0.953,24.591,4.264,41.547c2.329,7.567,1.856,14.6-1.444,21.498
			c-3.05,6.373-8.519,12.725-16.251,18.875c-12.737,10.132-28.21,17.049-36.952,20.637c-8.741-3.588-24.216-10.505-36.952-20.637
			c-7.733-6.151-13.201-12.502-16.251-18.875c-3.301-6.898-3.773-13.931-1.445-21.498c5.231-17.001,6.614-31.022,4.109-41.676
			c-0.963-4.098-2.39-7.283-3.908-9.729v-14.542C269.739,333.416,289.176,329.09,302.048,322.886 M302.048,308.824
			c-1.726,0-3.452,0.347-4.795,1.037c-9.942,5.12-29.271,10.588-57.984,11.864c-3.016,0.134-5.465,2.57-5.465,5.589v27.161
			c0,0,11.263,7.193,0.41,42.466c-14.917,48.482,55.285,74.915,67.834,79.934c12.549-5.019,82.752-31.451,67.834-79.934
			c-10.853-35.272,0.159-42.466,0.159-42.466v-27.161c0-3.019-2.449-5.455-5.465-5.589c-28.713-1.276-47.791-6.744-57.733-11.864
			C305.501,309.171,303.773,308.824,302.048,308.824"/>
	</g>
</g>
<path fill="#191818" d="M370.041,327.315c0-3.02-2.448-5.456-5.465-5.59c-28.712-1.275-47.791-6.743-57.733-11.864
	c-2.685-1.382-6.906-1.382-9.59,0c-9.942,5.121-29.271,10.589-57.984,11.864c-3.016,0.134-5.465,2.57-5.465,5.59v27.16
	c0,0,0.07,0.042,0.194,0.128h135.849c0.125-0.086,0.194-0.128,0.194-0.128V327.315z"/>
<path fill="#191818" d="M302.048,317.19c0.527,0,0.894,0.091,1.006,0.13c13.142,6.754,34.396,11.326,58.621,12.638v21.353
	c-1.468,2.076-2.99,5.087-3.945,9.333c-2.178,9.679-0.778,22.718,4.156,38.758c5.108,16.6-1.272,31.719-19.505,46.221
	c-14.387,11.444-31.921,18.869-40.333,22.248c-8.412-3.379-25.946-10.804-40.333-22.248c-18.232-14.502-24.612-29.621-19.505-46.221
	c4.944-16.066,6.294-29.133,4.013-38.836c-0.997-4.241-2.555-7.243-4.053-9.313v-21.295c24.393-1.318,45.743-5.89,58.872-12.638
	C301.154,317.281,301.521,317.19,302.048,317.19 M302.048,308.824c-1.726,0-3.452,0.346-4.795,1.037
	c-9.942,5.12-29.271,10.588-57.984,11.864c-3.016,0.134-5.465,2.57-5.465,5.589v27.161c0,0,11.263,7.193,0.41,42.466
	c-14.917,48.482,55.285,74.915,67.834,79.934c12.549-5.019,82.752-31.451,67.834-79.934c-10.853-35.272,0.159-42.466,0.159-42.466
	v-27.161c0-3.019-2.449-5.455-5.465-5.589c-28.713-1.276-47.791-6.744-57.733-11.864
	C305.501,309.17,303.773,308.824,302.048,308.824"/>
<polygon fill="#FFFFFF" points="293.239,345.771 293.239,330.899 290.198,334.06 287.881,331.622 293.781,325.691 297.303,325.691 
	297.303,345.771 "/>
<path fill="#FFFFFF" d="M300.041,335.745c0-5.178,2.138-10.355,7.104-10.355c4.998,0,7.105,5.178,7.105,10.355
	c0,5.148-2.077,10.388-7.105,10.388C302.179,346.133,300.041,340.894,300.041,335.745 M310.157,335.745
	c0-3.883-0.663-6.772-3.012-6.772c-2.317,0-2.979,2.89-2.979,6.772c0,3.854,0.662,6.805,2.979,6.805
	C309.494,342.55,310.157,339.6,310.157,335.745"/>
<path fill="#FFFFFF" d="M320.028,413.436l-11.009-11.009l11.009-11.009c5.399-5.4,7.741-12.699,7.028-19.747h-48.604
	c-0.713,7.048,1.629,14.347,7.029,19.747l11.009,11.009l-11.009,11.009c-3.357,3.357-5.532,7.449-6.526,11.758
	c-0.604,2.621-0.772,5.323-0.503,7.989h48.604c0.519-5.126-0.58-10.383-3.295-14.948
	C322.745,416.523,321.501,414.909,320.028,413.436"/>
<path fill="#F26C7C" d="M275.673,436.701h54.164c0.578-5.711-0.647-11.571-3.671-16.657l-6.305-7.107
	c-8.051,0-8.584,7.597-24.15,8.05c-9.589,0.279-16.1,5.968-16.1,5.968l-3.377,0.845C275.56,430.72,275.372,433.73,275.673,436.701"
	/>
<path fill="#F26C7C" d="M285.405,387.107c0,0,6.282-4.428,18.356-2.415c12.075,2.012,16.1,0,18.113,0l-6.197,6.768l-12.922,12.212
	L285.405,387.107z"/>
<path fill="#FFFFFF" d="M324.166,374.681c-0.132,5.472-2.343,10.684-6.267,14.609l-11.009,11.009l-2.128,2.128l2.128,2.129
	l11.009,11.009c1.265,1.264,2.366,2.681,3.275,4.209c1.862,3.131,2.891,6.745,2.987,10.399h-42.817
	c0.036-1.446,0.218-2.885,0.545-4.302c0.899-3.899,2.877-7.463,5.721-10.307l11.009-11.009l2.128-2.129l-2.128-2.128L287.61,389.29
	c-3.925-3.925-6.135-9.137-6.267-14.609H324.166 M327.057,371.671h-48.603c-0.714,7.048,1.628,14.347,7.028,19.747l11.009,11.009
	l-11.009,11.009c-3.357,3.358-5.531,7.449-6.525,11.758c-0.605,2.622-0.773,5.323-0.503,7.989h48.603
	c0.519-5.125-0.58-10.383-3.294-14.948c-1.019-1.711-2.263-3.326-3.735-4.799l-11.008-11.009l11.008-11.009
	C325.428,386.018,327.77,378.719,327.057,371.671"/>
<path fill="#191818" d="M327.057,371.671c0.713,7.048-1.629,14.348-7.029,19.747l-11.009,11.01l11.009,11.009
	c1.474,1.472,2.717,3.088,3.734,4.799c2.715,4.563,3.813,9.821,3.295,14.948h-48.604c-0.27-2.666-0.102-5.368,0.503-7.989
	c0.994-4.31,3.169-8.401,6.526-11.758l11.009-11.009l-11.009-11.01c-5.4-5.399-7.742-12.699-7.029-19.747H327.057 M330.313,368.069
	h-3.256h-48.604h-3.255l-0.328,3.239c-0.853,8.42,2.088,16.678,8.064,22.657l8.463,8.462l-8.463,8.461
	c-3.721,3.722-6.31,8.389-7.488,13.496c-0.694,3.008-0.888,6.09-0.577,9.161l0.328,3.238h3.255h48.604h3.256l0.327-3.238
	c0.603-5.946-0.741-12.038-3.782-17.151c-1.19-2.002-2.632-3.854-4.283-5.506l-8.461-8.461l8.462-8.464
	c5.977-5.978,8.917-14.234,8.064-22.656L330.313,368.069z"/>
<path fill="#F26C7C" d="M304.432,406.88c0,0.926-0.75,1.677-1.676,1.677s-1.677-0.751-1.677-1.677s0.751-1.676,1.677-1.676
	S304.432,405.954,304.432,406.88"/>
<path fill="#F26C7C" d="M304.432,412.356c0,0.926-0.75,1.676-1.676,1.676s-1.677-0.75-1.677-1.676s0.751-1.677,1.677-1.677
	S304.432,411.431,304.432,412.356"/>
<path fill="#191818" d="M333.285,371.722h-61.061c-1.385,0-2.508-1.123-2.508-2.508c0-1.386,1.123-2.509,2.508-2.509h61.061
	c1.385,0,2.508,1.123,2.508,2.509C335.793,370.599,334.67,371.722,333.285,371.722"/>
<path fill="#191818" d="M333.285,437.95h-61.061c-1.385,0-2.508-1.123-2.508-2.508c0-1.386,1.123-2.509,2.508-2.509h61.061
	c1.385,0,2.508,1.123,2.508,2.509C335.793,436.827,334.67,437.95,333.285,437.95"/>
<polygon fill="#F26C7C" points="271.154,335.578 259.414,338.287 248.578,335.578 248.578,329.256 259.414,331.966 271.154,329.256 
	"/>
<polygon fill="#F26C7C" points="271.154,344.608 259.414,347.318 248.578,344.608 248.578,338.287 259.414,340.997 271.154,338.287 
	"/>
<polygon fill="#676767" points="355.519,335.578 343.778,338.287 332.942,335.578 332.942,329.256 343.778,331.966 355.519,329.256 
	"/>
<polygon fill="#676767" points="355.519,344.608 343.778,347.318 332.942,344.608 332.942,338.287 343.778,340.997 355.519,338.287 
	"/>
</svg>
