<?xml version="1.0" encoding="utf-8"?>
<!-- Generator: Adobe Illustrator 16.0.0, SVG Export Plug-In . SVG Version: 6.00 Build 0)  -->
<!DOCTYPE svg PUBLIC "-//W3C//DTD SVG 1.1//EN" "http://www.w3.org/Graphics/SVG/1.1/DTD/svg11.dtd">
<svg version="1.1" id="Layer_1" xmlns="http://www.w3.org/2000/svg" xmlns:xlink="http://www.w3.org/1999/xlink" x="0px" y="0px"
	 width="240px" height="230px" viewBox="0 0 240 230" enable-background="new 0 0 240 230" xml:space="preserve">
<path fill="#FFFFFF" d="M9.715,30.396c0.313-2.897,2.678-4.153,5.254-2.791L44.27,43.117l27.572,14.596
	c2.577,1.364,3.977,4.757,3.111,7.541l-4.1,13.18c-0.578,1.857-2.084,3.129-3.838,3.479l2.282,0.815
	c1.837,0.975,2.837,3.395,2.218,5.378l-2.972,9.538c-0.397,1.275-1.429,2.218-2.635,2.544l3.817,1.365
	c1.268,0.671,1.957,2.342,1.531,3.712l-2.119,6.77c-0.427,1.371-1.98,2.375-3.332,1.89c0,0-4.746-1.706-16.617-5.971
	c-11.871-4.268-11.633-15.438-11.633-15.438c0.073-0.681,0.401-1.237,0.86-1.563c-15.864-6.5-15.632-21.586-15.632-21.586
	c0.152-1.414,1.014-2.343,2.131-2.479C6.967,55.89,9.715,30.396,9.715,30.396"/>
<path fill="#FFFFFF" d="M230.967,30.396c-0.313-2.897-2.678-4.153-5.254-2.791l-29.301,15.511L168.84,57.713
	c-2.576,1.364-3.977,4.757-3.111,7.541l4.101,13.18c0.578,1.857-7.916,3.129-6.162,3.479l7.718,0.815
	c-1.839,0.975-2.837,3.395-2.22,5.378l2.974,9.538c0.397,1.275,1.43,2.218,2.635,2.544l-3.816,1.365
	c-1.268,0.671-1.957,2.342-1.531,3.712l2.119,6.77c0.426,1.371,1.98,2.375,3.33,1.89c0,0,4.748-1.706,16.619-5.971
	c11.871-4.268,11.633-15.438,11.633-15.438c-0.072-0.681-0.4-1.237-0.859-1.563c15.863-6.5,15.632-21.586,15.632-21.586
	c-0.152-1.414-1.015-2.343-2.132-2.479C233.715,55.89,230.967,30.396,230.967,30.396"/>
<polygon fill="#020202" points="18.844,59.695 67.033,88.914 17.146,62.695 "/>
<polygon fill="#020202" points="28.529,80.697 67.033,104.215 27.161,83.1 "/>
<path fill="#020202" d="M66.525,116.932c-0.581,0-1.151-0.099-1.694-0.294l-16.616-5.971c-10.936-3.929-13.64-13.631-13.541-18.212
	v-0.056c-14.828-7.65-14.783-22.418-14.773-23.077l0.018-0.266c0.069-0.65,0.23-1.262,0.471-1.818
	c-6.383-5.058-10.721-12.64-12.633-22.152c-1.625-8.09-0.939-14.72-0.908-14.999c0.375-3.484,2.879-5.916,6.086-5.916
	c1.134,0,2.272,0.298,3.384,0.886l56.874,30.106c3.814,2.02,5.797,6.828,4.516,10.947L74.137,77.6
	c0.746,0.281,1.668,0.565,2.174,0.722c1.851,0.57,3.949,1.217,3.826,3.618c-0.055,1.068-0.758,2.443-2.558,2.802L77.32,84.78
	l-2.95,0.313c0.306,1.268,0.295,2.608-0.097,3.87l-2.975,9.54c-0.055,0.177-0.117,0.349-0.186,0.521
	c2.455,1.322,3.729,4.433,2.9,7.098l-2.121,6.774C71.165,115.231,68.907,116.932,66.525,116.932 M40.459,93.038
	c0.125,1.913,1.17,9.131,9.706,12.198l16.224,5.83l2.115-6.664c0.004-0.052-0.043-0.18-0.099-0.259l-12.123-4.335l8.872-2.405
	c0.223-0.061,0.523-0.259,0.634-0.616l2.976-9.54c0.203-0.653-0.209-1.649-0.815-1.97l-8.354-4.425l8.608-0.909
	c-0.308-0.76-0.346-1.586-0.103-2.367l4.098-13.18c0.452-1.452-0.359-3.423-1.705-4.135L13.619,30.155
	c-0.368-0.195-0.601-0.216-0.685-0.216c-0.264,0-0.348,0.733-0.35,0.766c-0.007,0.057-0.621,6.153,0.86,13.398
	c1.919,9.386,6.285,16.224,12.978,20.323l7.067,4.331L25.676,69.7c0.072,2.011,1.056,13.344,13.836,18.58l4.84,1.982L40.459,93.038z
	"/>
<path fill="#020202" d="M174.156,116.932L174.156,116.932c-2.383,0-4.641-1.699-5.367-4.042l-2.118-6.763
	c-0.83-2.671,0.444-5.781,2.899-7.104c-0.07-0.171-0.131-0.345-0.188-0.521l-2.973-9.536c-0.394-1.262-0.403-2.604-0.097-3.872
	l-3.211-0.351c-1.8-0.358-2.502-1.733-2.558-2.802c-0.123-2.401,1.976-3.048,3.827-3.618c0.505-0.155,1.428-0.44,2.174-0.722
	l-3.572-11.489c-1.281-4.119,0.701-8.929,4.516-10.946l56.874-30.107c1.11-0.588,2.25-0.886,3.385-0.886
	c3.207,0,5.71,2.433,6.086,5.916c0.031,0.279,0.716,6.909-0.909,14.999c-1.911,9.513-6.249,17.095-12.632,22.152
	c0.24,0.557,0.4,1.168,0.471,1.818l0.019,0.266c0.01,0.659,0.054,15.428-14.774,23.077l0.001,0.056
	c0.098,4.581-2.605,14.283-13.541,18.212l-16.617,5.972C175.307,116.832,174.736,116.932,174.156,116.932 M172.27,104.146
	c-0.047,0.074-0.096,0.21-0.086,0.279l2.082,6.649l16.25-5.839c8.521-3.062,9.577-10.255,9.707-12.198l-3.893-2.773l4.84-1.982
	c12.725-5.213,13.753-16.612,13.834-18.58l-7.813-0.943l7.066-4.331c6.692-4.1,11.061-10.938,12.979-20.322
	c1.481-7.246,0.866-13.343,0.86-13.403c-0.003-0.028-0.086-0.762-0.35-0.762c-0.084,0-0.317,0.021-0.687,0.216l-56.873,30.106
	c-1.346,0.712-2.158,2.683-1.705,4.135l4.099,13.181c0.241,0.78,0.205,1.607-0.104,2.366l8.608,0.911l-8.354,4.423
	c-0.605,0.32-1.018,1.316-0.813,1.972l2.973,9.536c0.112,0.361,0.412,0.558,0.637,0.618l8.871,2.406L172.27,104.146z"/>
<polygon fill="#020202" points="223.534,62.696 173.648,88.913 221.838,59.696 "/>
<polygon fill="#020202" points="213.521,83.1 173.648,104.215 212.152,80.698 "/>
<path fill="#F26D7C" d="M188.176,107.942c-10.15-32.988-1.839-41.102-0.037-42.34h-67.365H52.292
	c1.803,1.238,10.366,9.352,0.216,42.34c-14.918,48.48,55.285,74.916,67.834,79.934c0.136-0.055,0.282-0.112,0.433-0.172
	C134.41,182.278,202.93,155.896,188.176,107.942"/>
<g opacity="0.5">
	<g>
		<g>
			<defs>
				<rect id="SVGID_1_" x="119.66" y="64.02" width="69.47" height="122.101"/>
			</defs>
			<clipPath id="SVGID_2_">
				<use xlink:href="#SVGID_1_"  overflow="visible"/>
			</clipPath>
			<path clip-path="url(#SVGID_2_)" fill="#DF2F55" d="M187.063,106.358c-10.149-32.988-1.838-41.102-0.037-42.34H119.66v122.103
				C133.297,180.694,201.816,154.313,187.063,106.358"/>
		</g>
	</g>
</g>
<path fill="#F26D7C" d="M143.049,149.504H96.788c-4.696,0-8.502-3.807-8.502-8.503v-38.097c0-4.696,3.806-8.503,8.502-8.503h46.261
	c4.696,0,8.504,3.807,8.504,8.503v38.097C151.553,145.697,147.745,149.504,143.049,149.504"/>
<path fill="#191818" d="M143.049,151.511h-46.26c-5.796,0-10.511-4.715-10.511-10.51v-38.097c0-5.795,4.715-10.511,10.511-10.511
	h46.26c5.795,0,10.512,4.716,10.512,10.511v38.097C153.561,146.796,148.844,151.511,143.049,151.511 M96.789,96.408
	c-3.582,0-6.496,2.914-6.496,6.496v38.097c0,3.582,2.914,6.496,6.496,6.496h46.26c3.582,0,6.496-2.914,6.496-6.496v-38.097
	c0-3.582-2.914-6.496-6.496-6.496H96.789z"/>
<path fill="#F26D7C" d="M151.553,95.378c0-4.696-3.808-8.503-8.504-8.503H96.788c-4.695,0-8.502,3.807-8.502,8.503v7.125h63.267
	V95.378z"/>
<path fill="#FFFFFF" d="M88.286,103.005v30.472c0,4.695,3.807,8.502,8.502,8.502h46.261c4.696,0,8.503-3.807,8.503-8.502v-30.472
	H88.286z"/>
<path fill="#191818" d="M143.049,143.985h-46.26c-5.796,0-10.511-4.716-10.511-10.511V95.378c0-5.795,4.715-10.51,10.511-10.51
	h46.26c5.795,0,10.512,4.715,10.512,10.51v38.097C153.561,139.271,148.844,143.985,143.049,143.985 M96.789,88.883
	c-3.582,0-6.496,2.914-6.496,6.496v38.097c0,3.582,2.914,6.496,6.496,6.496h46.26c3.582,0,6.496-2.914,6.496-6.496V95.379
	c0-3.582-2.914-6.496-6.496-6.496H96.789L96.789,88.883z"/>
<path fill="#FFFFFF" d="M136.16,74.503c-2.749,0-4.977,2.229-4.977,4.979V89.91c0,2.749,2.228,4.977,4.977,4.977
	c2.748,0,4.977-2.228,4.977-4.977V79.48C141.137,76.731,138.908,74.503,136.16,74.503"/>
<path fill="#191818" d="M136.16,96.642c-3.713,0-6.732-3.02-6.732-6.732V79.48c0-3.714,3.021-6.733,6.732-6.733
	c3.711,0,6.73,3.02,6.73,6.733v10.429C142.893,93.622,139.871,96.642,136.16,96.642 M136.16,76.259
	c-1.775,0-3.223,1.445-3.223,3.223V89.91c0,1.775,1.446,3.221,3.223,3.221c1.773,0,3.221-1.445,3.221-3.221V79.48
	C139.381,77.704,137.936,76.259,136.16,76.259"/>
<path fill="#FFFFFF" d="M103.795,74.503c-2.749,0-4.977,2.229-4.977,4.979V89.91c0,2.749,2.228,4.977,4.977,4.977
	c2.748,0,4.977-2.228,4.977-4.977V79.48C108.771,76.731,106.543,74.503,103.795,74.503"/>
<path fill="#191818" d="M103.795,96.642c-3.713,0-6.732-3.02-6.732-6.732V79.48c0-3.714,3.02-6.733,6.732-6.733
	c3.711,0,6.731,3.02,6.731,6.733v10.429C110.526,93.622,107.506,96.642,103.795,96.642 M103.795,76.259
	c-1.775,0-3.222,1.445-3.222,3.223V89.91c0,1.775,1.446,3.221,3.222,3.221c1.774,0,3.221-1.445,3.221-3.221V79.48
	C107.016,77.704,105.569,76.259,103.795,76.259"/>
<rect x="95.188" y="107.041" fill="#F26D7C" width="7.525" height="7.525"/>
<rect x="105.473" y="107.041" fill="#F26D7C" width="7.525" height="7.525"/>
<rect x="115.758" y="107.041" fill="#F26D7C" width="7.525" height="7.525"/>
<rect x="126.043" y="107.041" fill="#F26D7C" width="7.525" height="7.525"/>
<rect x="136.328" y="107.041" fill="#F26D7C" width="7.525" height="7.525"/>
<rect x="95.188" y="117.325" fill="#F26D7C" width="7.525" height="7.523"/>
<rect x="105.473" y="117.325" fill="#F26D7C" width="7.525" height="7.523"/>
<rect x="115.758" y="117.325" fill="#F26D7C" width="7.525" height="7.523"/>
<rect x="126.043" y="117.325" fill="#F26D7C" width="7.525" height="7.523"/>
<rect x="136.328" y="117.325" fill="#F26D7C" width="7.525" height="7.523"/>
<rect x="95.188" y="127.61" fill="#F26D7C" width="7.525" height="7.523"/>
<rect x="105.473" y="127.61" fill="#F26D7C" width="7.525" height="7.523"/>
<rect x="115.758" y="127.61" fill="#F26D7C" width="7.525" height="7.523"/>
<rect x="126.043" y="127.61" fill="#F26D7C" width="7.525" height="7.523"/>
<rect x="136.328" y="127.61" fill="#F26D7C" width="7.525" height="7.523"/>
<g opacity="0.4">
	<g>
		<g>
			<defs>
				<rect id="SVGID_3_" x="50.439" y="19.82" width="139.801" height="168.06"/>
			</defs>
			<clipPath id="SVGID_4_">
				<use xlink:href="#SVGID_3_"  overflow="visible"/>
			</clipPath>
			<path clip-path="url(#SVGID_4_)" fill="#FFFFFF" d="M120.341,33.886c8.377,4.036,25.288,10.075,54.196,12.173v14.625
				c-1.492,2.458-2.889,5.657-3.813,9.77c-2.389,10.613-0.953,24.591,4.265,41.546c2.329,7.569,1.856,14.601-1.445,21.5
				c-3.049,6.373-8.519,12.725-16.25,18.875c-12.735,10.132-28.211,17.049-36.952,20.637c-8.741-3.588-24.216-10.505-36.952-20.637
				c-7.732-6.15-13.2-12.502-16.251-18.875c-3.3-6.898-3.772-13.931-1.444-21.499c5.23-17.001,6.613-31.022,4.108-41.675
				c-0.962-4.099-2.39-7.283-3.908-9.729V46.054C88.031,44.416,107.469,40.09,120.341,33.886 M120.341,19.824
				c-1.726,0-3.452,0.347-4.794,1.037c-9.943,5.12-29.272,10.588-57.984,11.864c-3.018,0.135-5.466,2.57-5.466,5.59v27.16
				c0,0,11.264,7.193,0.409,42.467c-14.916,48.481,55.285,74.915,67.835,79.934c12.55-5.019,82.751-31.451,67.834-79.934
				c-10.853-35.272,0.159-42.467,0.159-42.467v-27.16c0-3.02-2.449-5.455-5.465-5.59c-28.713-1.275-47.791-6.744-57.733-11.864
				C123.793,20.171,122.066,19.824,120.341,19.824"/>
		</g>
	</g>
</g>
<path fill="#191818" d="M120.341,28.19c0.526,0,0.894,0.091,1.007,0.13c13.142,6.754,34.396,11.327,58.62,12.638v21.353
	c-1.468,2.076-2.989,5.088-3.944,9.333c-2.178,9.68-0.778,22.719,4.156,38.759c5.107,16.6-1.272,31.719-19.506,46.221
	c-14.387,11.444-31.92,18.869-40.333,22.248c-8.412-3.379-25.946-10.804-40.333-22.248c-18.232-14.502-24.612-29.621-19.506-46.221
	c4.943-16.066,6.295-29.134,4.014-38.836c-0.997-4.241-2.555-7.243-4.053-9.313V40.958c24.393-1.318,45.742-5.89,58.871-12.638
	C119.447,28.281,119.813,28.19,120.341,28.19 M120.341,19.824c-1.726,0-3.452,0.346-4.794,1.037
	c-9.943,5.12-29.272,10.588-57.984,11.864c-3.018,0.135-5.466,2.57-5.466,5.59v27.16c0,0,11.264,7.193,0.409,42.467
	c-14.916,48.481,55.285,74.915,67.835,79.934c12.55-5.019,82.751-31.451,67.834-79.934c-10.853-35.272,0.159-42.467,0.159-42.467
	v-27.16c0-3.02-2.449-5.455-5.465-5.59c-28.713-1.275-47.791-6.744-57.733-11.864C123.793,20.17,122.066,19.824,120.341,19.824"/>
<path fill="#191818" d="M188.334,38.315c0-3.021-2.449-5.456-5.465-5.591c-28.713-1.274-47.791-6.743-57.732-11.864
	c-2.686-1.382-6.906-1.382-9.591,0c-9.942,5.121-29.271,10.589-57.983,11.864c-3.017,0.135-5.466,2.57-5.466,5.591v27.159
	c0,0,0.069,0.042,0.194,0.128h135.85c0.125-0.086,0.193-0.128,0.193-0.128V38.315z"/>
<polygon fill="#FFFFFF" points="96.799,56.771 102.819,40.243 94.51,40.243 94.51,36.691 107.395,36.691 107.395,39.491 
	101.163,56.771 "/>
<path fill="#FFFFFF" d="M106.941,54.783c0-1.265,1.084-2.349,2.35-2.349c1.264,0,2.316,1.084,2.316,2.349
	c0,1.266-1.053,2.317-2.316,2.317C108.025,57.102,106.941,56.049,106.941,54.783"/>
<path fill="#FFFFFF" d="M114.227,53.971l2.438-2.589c1.054,1.385,2.468,2.168,4.185,2.168c1.927,0,3.041-1.475,3.041-3.162
	c0-1.985-1.055-3.161-2.858-3.161c-1.356,0-2.379,0.482-3.313,1.656l-2.921-0.783V36.691h12.042v3.551h-8.008v5.148
	c0.783-0.963,2.138-1.655,3.673-1.655c3.041,0,5.479,2.379,5.479,6.532c0,4.034-2.74,6.864-7.016,6.864
	C117.869,57.132,115.732,55.988,114.227,53.971"/>
<polygon fill="#FFFFFF" points="140.807,56.771 136.171,48.914 134.756,51.141 134.756,56.771 130.723,56.771 130.723,36.691 
	134.756,36.691 134.756,45.813 140.416,36.691 145.113,36.691 138.699,46.144 145.564,56.771 "/>
<polygon fill="#FFFFFF" points="91.287,44.988 83.828,43.857 80.508,36.76 77.188,43.857 69.729,44.988 75.118,50.522 
	73.771,58.317 80.508,54.637 87.244,58.317 85.897,50.522 "/>
<polygon fill="#FFFFFF" points="170.953,44.988 163.495,43.857 160.174,36.76 156.854,43.857 149.395,44.988 154.785,50.522 
	153.438,58.317 160.174,54.637 166.91,58.317 165.564,50.522 "/>
<path fill="#020202" d="M212.982,108.938c0.146,1.75-0.152,3.623,0.186,5.469c0.328,0.773,0.592,1.554,0.873,2.349
	c0.82,2.085,1.734,3.99,3.31,4.866c1.285-2.557,2.465-5.286,2.744-8.497c-0.084-2.099-0.509-4.063-1.249-5.928
	c-1.149-2.94-3.063-5.579-5.613-7.852c-0.082-0.079-0.144-0.109-0.186-0.17l-0.415-0.012c0.093,0.271,0.165,0.577,0.247,0.886
	C213.557,102.935,213.262,105.727,212.982,108.938"/>
<path fill="#020202" d="M213.18,126.718c-1.816-3.577-5.513-6.851-6.379-10.245l-0.531-0.223c-1.338,3.336-1.192,7.326-0.17,10.951
	c1.109,4.703,3.424,8.368,4.508,12.993c0.194,0.891,0.354,1.774,0.459,2.741c6.958-5.049,13.369-10.808,15.184-19.896l-12.193,6.13
	C213.893,128.321,213.563,127.482,213.18,126.718"/>
<path fill="#020202" d="M193.578,167.875c-0.916-0.017-1.783-0.026-2.639,0.015c3.211-4.57,2.289-10.163,4.059-15.118l-0.018-0.22
	c-5.33,2.008-8.125,6.701-10.73,11.657c-1.863,3.592-3.684,7.273-6.34,9.994c1.109,0.08,2.152,0.229,3.234,0.388
	c1.121,0.163,2.274,0.386,3.436,0.692c2.305,0.135,4.58,0.236,6.73,0.166c4.034-0.171,7.795-0.854,11.037-2.605
	c1.502-0.798,2.901-1.85,4.131-3.161c-0.949-0.153-1.992-0.342-3.027-0.523C200.188,168.604,196.752,168.033,193.578,167.875"/>
<path fill="#020202" d="M206.577,152.302c-1.494-5.036-4.274-10.122-3.864-15.641l-0.143-0.219l-0.375,0.165
	c-0.043,0.034-0.096,0.106-0.101,0.144c-0.293,0.5-0.602,0.786-1.137,1.3c-3.806,6.707-3.229,14.78-1.274,21.92
	c0.319,1.178,0.652,2.295,1.063,3.427c3.423-2.677,7.645-3.359,11.443-5.308c0.342-0.207,0.676-0.369,1.028-0.582
	c3.659-2.641,5.885-7.007,6.842-11.183c-2.373,0.757-4.7,1.368-6.876,2.187C210.838,149.357,208.576,150.499,206.577,152.302"/>
<path fill="#020202" d="M27.777,109.067c-0.24,1.739-0.044,3.626-0.482,5.449c-0.368,0.756-0.674,1.521-0.996,2.3
	c-0.932,2.036-1.947,3.891-3.568,4.681c-1.145-2.622-2.175-5.41-2.281-8.632c0.197-2.091,0.727-4.029,1.566-5.854
	c1.307-2.873,3.357-5.405,6.027-7.536c0.086-0.074,0.149-0.103,0.195-0.159l0.414,0.011c-0.107,0.266-0.195,0.565-0.294,0.871
	C27.527,103.043,27.67,105.847,27.777,109.067"/>
<path fill="#020202" d="M27.502,126.718c1.816-3.577,5.512-6.851,6.379-10.245l0.531-0.223c1.338,3.336,1.193,7.326,0.17,10.951
	c-1.109,4.703-3.424,8.368-4.508,12.993c-0.194,0.891-0.354,1.774-0.459,2.741c-6.957-5.049-13.369-10.808-15.183-19.896
	l12.194,6.13C26.789,128.321,27.119,127.482,27.502,126.718"/>
<path fill="#020202" d="M47.104,167.875c0.915-0.017,1.782-0.026,2.638,0.015c-3.211-4.57-2.29-10.163-4.059-15.118l0.018-0.22
	c5.329,2.008,8.124,6.701,10.73,11.657c1.861,3.592,3.684,7.273,6.34,9.994c-1.109,0.08-2.153,0.229-3.234,0.388
	c-1.122,0.163-2.275,0.386-3.436,0.692c-2.305,0.135-4.58,0.236-6.731,0.166c-4.034-0.171-7.795-0.854-11.037-2.605
	c-1.501-0.798-2.901-1.85-4.131-3.161c0.949-0.153,1.992-0.342,3.028-0.523C40.495,168.604,43.93,168.033,47.104,167.875"/>
<path fill="#020202" d="M34.104,152.302c1.495-5.036,4.274-10.122,3.864-15.641l0.143-0.219l0.374,0.165
	c0.045,0.034,0.097,0.106,0.101,0.144c0.293,0.5,0.602,0.786,1.137,1.3c3.805,6.707,3.229,14.78,1.275,21.92
	c-0.32,1.178-0.654,2.295-1.063,3.427c-3.424-2.677-7.645-3.359-11.442-5.308c-0.342-0.207-0.677-0.369-1.03-0.582
	c-3.66-2.641-5.886-7.007-6.841-11.183c2.373,0.757,4.7,1.368,6.876,2.187C29.844,149.357,32.106,150.499,34.104,152.302"/>
<polygon fill="#FFFFFF" points="173.332,196.988 121.039,211.172 68.746,195.483 68.746,167.963 121.039,183.65 173.332,167.963 "/>
<path fill="#020202" d="M121.038,212.096l-54.551-13.335v-33.674l54.551,13.334l54.552-13.334v33.674L121.038,212.096z
	 M71.004,195.216l50.034,12.231l50.036-12.231v-24.377l-50.036,12.23l-50.034-12.23V195.216z"/>
<polygon fill="#020202" points="149.818,174.15 175.656,165.172 162.582,155.391 141.568,173.402 "/>
<polygon fill="#020202" points="92.217,174.15 66.38,165.172 79.453,155.391 100.467,173.402 "/>
<polygon fill="#020202" points="92.889,184.576 90.299,179.039 87.709,184.576 81.891,185.459 86.095,189.775 85.044,195.856 
	90.299,192.984 95.554,195.856 94.503,189.775 98.707,185.459 "/>
<polygon fill="#020202" points="123.576,190.653 120.717,184.543 117.858,190.653 111.437,191.627 116.076,196.392 114.916,203.103 
	120.717,199.934 126.518,203.103 125.355,196.392 129.996,191.627 "/>
<polygon fill="#020202" points="153.913,184.576 151.322,179.039 148.732,184.576 142.915,185.459 147.119,189.775 146.068,195.856 
	151.322,192.984 156.578,195.856 155.527,189.775 159.73,185.459 "/>
</svg>
