<?xml version="1.0" encoding="utf-8"?>
<!-- Generator: Adobe Illustrator 16.0.0, SVG Export Plug-In . SVG Version: 6.00 Build 0)  -->
<!DOCTYPE svg PUBLIC "-//W3C//DTD SVG 1.1//EN" "http://www.w3.org/Graphics/SVG/1.1/DTD/svg11.dtd">
<svg version="1.1" id="Layer_1" xmlns="http://www.w3.org/2000/svg" xmlns:xlink="http://www.w3.org/1999/xlink" x="0px" y="0px"
	 width="240px" height="195px" viewBox="0 0 240 195" enable-background="new 0 0 240 195" xml:space="preserve">
<path fill="none" d="M78.63-2257.76"/>
<path fill="none" d="M78.63,987.837"/>
<path fill="none" d="M51.764,1616.837"/>
<path fill="none" d="M51.764-1628.76"/>
<line fill="#929497" x1="1530.52" y1="-66.557" x2="1530.52" y2="-65.807"/>
<line fill="#929497" x1="-611.484" y1="-65.807" x2="-611.484" y2="-66.557"/>
<path fill="#F26C7C" d="M187.5,92.942c-10.149-32.988-1.838-41.102-0.035-42.34h-67.366H51.616
	c1.803,1.238,10.366,9.352,0.216,42.34c-14.918,48.48,55.285,74.915,67.834,79.934c0.137-0.055,0.282-0.112,0.433-0.172
	C133.735,167.278,202.255,140.896,187.5,92.942"/>
<g opacity="0.5">
	<g>
		<defs>
			<rect id="SVGID_1_" x="120.1" y="50.6" width="69.471" height="122.1"/>
		</defs>
		<clipPath id="SVGID_2_">
			<use xlink:href="#SVGID_1_"  overflow="visible"/>
		</clipPath>
		<path clip-path="url(#SVGID_2_)" fill="#DF2E54" d="M187.5,92.942c-10.149-32.988-1.838-41.102-0.035-42.34h-67.366v122.102
			C133.735,167.278,202.255,140.896,187.5,92.942"/>
	</g>
</g>
<g opacity="0.4">
	<g>
		<defs>
			<rect id="SVGID_3_" x="49.76" y="4.82" width="139.811" height="168.06"/>
		</defs>
		<clipPath id="SVGID_4_">
			<use xlink:href="#SVGID_3_"  overflow="visible"/>
		</clipPath>
		<path clip-path="url(#SVGID_4_)" fill="#FFFFFF" d="M119.666,18.885c8.377,4.037,25.287,10.076,54.197,12.174v14.625
			c-1.492,2.458-2.889,5.657-3.814,9.77c-2.387,10.612-0.951,24.591,4.266,41.547c2.327,7.567,1.855,14.6-1.445,21.498
			c-3.05,6.373-8.518,12.725-16.251,18.876c-12.737,10.131-28.211,17.048-36.952,20.636c-8.741-3.588-24.216-10.505-36.952-20.636
			c-7.732-6.151-13.201-12.503-16.251-18.876C63.162,111.6,62.69,104.567,65.018,97c5.231-17.001,6.614-31.022,4.109-41.676
			c-0.963-4.098-2.39-7.282-3.909-9.729V31.053C87.357,29.416,106.794,25.09,119.666,18.885 M119.666,4.824
			c-1.726,0-3.453,0.347-4.795,1.037c-9.942,5.12-29.271,10.588-57.984,11.864c-3.016,0.134-5.465,2.57-5.465,5.589v27.161
			c0,0,11.263,7.193,0.41,42.466c-14.917,48.482,55.285,74.915,67.834,79.935c12.549-5.02,82.751-31.452,67.834-79.935
			c-10.853-35.272,0.159-42.466,0.159-42.466V23.314c0-3.019-2.449-5.455-5.465-5.589c-28.713-1.276-47.791-6.744-57.733-11.864
			C123.119,5.171,121.392,4.824,119.666,4.824"/>
	</g>
</g>
<path fill="#191818" d="M187.659,23.315c0-3.02-2.449-5.456-5.465-5.589c-28.712-1.275-47.791-6.743-57.733-11.864
	c-2.685-1.383-6.905-1.383-9.59,0C104.929,10.982,85.6,16.45,56.887,17.726c-3.016,0.134-5.465,2.569-5.465,5.589v27.161
	c0,0,0.069,0.042,0.194,0.127h135.849c0.125-0.085,0.194-0.127,0.194-0.127V23.315z"/>
<path fill="#191818" d="M119.666,13.19c0.527,0,0.894,0.091,1.006,0.13c13.142,6.754,34.396,11.326,58.621,12.638v21.353
	c-1.468,2.076-2.99,5.087-3.945,9.333c-2.178,9.679-0.778,22.718,4.156,38.758c5.108,16.6-1.272,31.719-19.505,46.222
	c-14.387,11.443-31.921,18.869-40.333,22.247c-8.412-3.378-25.946-10.804-40.333-22.247c-18.232-14.503-24.613-29.622-19.505-46.222
	c4.943-16.066,6.294-29.133,4.013-38.836c-0.997-4.241-2.555-7.243-4.053-9.313V25.958c24.393-1.318,45.743-5.89,58.872-12.638
	C118.772,13.281,119.139,13.19,119.666,13.19 M119.666,4.824c-1.726,0-3.453,0.346-4.795,1.037
	c-9.942,5.12-29.271,10.588-57.984,11.864c-3.016,0.134-5.465,2.57-5.465,5.589v27.161c0,0,11.263,7.193,0.41,42.466
	c-14.917,48.482,55.285,74.915,67.834,79.935c12.549-5.02,82.751-31.452,67.834-79.935c-10.853-35.272,0.159-42.466,0.159-42.466
	V23.314c0-3.019-2.449-5.455-5.465-5.589c-28.712-1.276-47.791-6.744-57.733-11.864C123.119,5.17,121.392,4.824,119.666,4.824"/>
<polygon fill="#FFFFFF" points="102.926,41.771 102.926,26.899 99.885,30.06 97.566,27.622 103.468,21.691 106.989,21.691 
	106.989,41.771 "/>
<path fill="#FFFFFF" d="M109.908,38.971l2.438-2.589c1.054,1.386,2.469,2.168,4.185,2.168c1.927,0,3.041-1.475,3.041-3.162
	c0-1.986-1.054-3.161-2.86-3.161c-1.355,0-2.379,0.481-3.312,1.655l-2.92-0.783V21.691h12.042v3.551h-8.008v5.149
	c0.783-0.964,2.138-1.656,3.673-1.656c3.041,0,5.479,2.379,5.479,6.533c0,4.034-2.739,6.864-7.014,6.864
	C113.551,42.132,111.413,40.988,109.908,38.971"/>
<path fill="#FFFFFF" d="M125.591,31.745c0-5.178,2.137-10.355,7.104-10.355c4.998,0,7.105,5.178,7.105,10.355
	c0,5.148-2.077,10.388-7.105,10.388C127.728,42.133,125.591,36.894,125.591,31.745 M135.707,31.745c0-3.883-0.663-6.772-3.012-6.772
	c-2.317,0-2.979,2.89-2.979,6.772c0,3.854,0.662,6.805,2.979,6.805C135.044,38.55,135.707,35.6,135.707,31.745"/>
<path fill="#FFFFFF" d="M137.646,109.436l-11.01-11.009l11.01-11.009c5.399-5.4,7.741-12.699,7.028-19.747H96.072
	c-0.714,7.048,1.628,14.347,7.027,19.747l11.01,11.009l-11.01,11.009c-3.356,3.357-5.531,7.449-6.525,11.758
	c-0.604,2.621-0.772,5.323-0.502,7.989h48.603c0.52-5.126-0.581-10.383-3.294-14.948
	C140.363,112.524,139.119,110.909,137.646,109.436"/>
<path fill="#F26C7C" d="M93.292,132.701h54.164c0.578-5.711-0.646-11.571-3.672-16.657l-6.304-7.107c-8.05,0-8.584,7.597-24.15,8.05
	c-9.589,0.279-16.1,5.968-16.1,5.968l-3.378,0.845C93.178,126.72,92.99,129.73,93.292,132.701"/>
<path fill="#F26C7C" d="M103.022,83.107c0,0,6.282-4.428,18.357-2.415c12.074,2.012,16.099,0,18.112,0l-6.197,6.768l-12.922,12.213
	L103.022,83.107z"/>
<path fill="#FFFFFF" d="M141.785,70.681c-0.133,5.472-2.344,10.685-6.268,14.609l-11.009,11.009l-2.129,2.128l2.129,2.129
	l11.009,11.009c1.265,1.264,2.366,2.681,3.275,4.209c1.862,3.131,2.891,6.745,2.987,10.399H98.963
	c0.036-1.446,0.218-2.885,0.545-4.302c0.899-3.899,2.877-7.463,5.722-10.307l11.009-11.009l2.128-2.129l-2.128-2.128L105.229,85.29
	c-3.926-3.925-6.136-9.137-6.268-14.609H141.785 M144.675,67.671H96.072c-0.714,7.048,1.628,14.347,7.027,19.747l11.009,11.009
	L103.1,109.436c-3.356,3.358-5.531,7.449-6.524,11.758c-0.605,2.622-0.773,5.323-0.503,7.989h48.603
	c0.519-5.125-0.58-10.383-3.294-14.948c-1.018-1.711-2.262-3.325-3.734-4.799l-11.01-11.009l11.01-11.009
	C143.046,82.018,145.388,74.719,144.675,67.671"/>
<path fill="#191818" d="M144.675,67.671c0.713,7.048-1.628,14.348-7.028,19.747l-11.01,11.01l11.01,11.009
	c1.473,1.472,2.716,3.088,3.734,4.799c2.713,4.563,3.813,9.822,3.294,14.948H96.071c-0.271-2.666-0.101-5.368,0.503-7.989
	c0.994-4.31,3.168-8.401,6.526-11.758l11.009-11.009l-11.009-11.01c-5.4-5.399-7.742-12.699-7.029-19.747H144.675 M147.931,64.069
	h-3.256H96.071h-3.255l-0.328,3.239c-0.853,8.421,2.087,16.678,8.065,22.657l8.462,8.462l-8.462,8.462
	c-3.72,3.721-6.31,8.388-7.488,13.495c-0.694,3.008-0.889,6.09-0.577,9.161l0.328,3.238h3.255h48.604h3.256l0.327-3.238
	c0.603-5.946-0.74-12.037-3.781-17.151c-1.191-2.001-2.633-3.854-4.284-5.505l-8.462-8.462l8.463-8.464
	c5.977-5.978,8.917-14.234,8.064-22.656L147.931,64.069z"/>
<path fill="#F26C7C" d="M122.05,102.88c0,0.926-0.751,1.677-1.677,1.677c-0.925,0-1.676-0.751-1.676-1.677s0.751-1.676,1.676-1.676
	C121.299,101.204,122.05,101.954,122.05,102.88"/>
<path fill="#F26C7C" d="M122.05,108.356c0,0.926-0.751,1.676-1.677,1.676c-0.925,0-1.676-0.75-1.676-1.676s0.751-1.677,1.676-1.677
	C121.299,106.68,122.05,107.431,122.05,108.356"/>
<path fill="#191818" d="M150.903,67.722H89.843c-1.385,0-2.509-1.123-2.509-2.508c0-1.386,1.124-2.509,2.509-2.509h61.061
	c1.385,0,2.508,1.123,2.508,2.509C153.411,66.599,152.288,67.722,150.903,67.722"/>
<path fill="#191818" d="M150.903,133.95H89.843c-1.385,0-2.509-1.123-2.509-2.508c0-1.386,1.124-2.509,2.509-2.509h61.061
	c1.385,0,2.508,1.123,2.508,2.509C153.411,132.827,152.288,133.95,150.903,133.95"/>
<path fill="#1A1A19" d="M119.64,176.469c-3.51-1.403-11.533-4.484-20.94-9.254v14.698c11.415,7.015,20.567,11.113,20.567,11.113
	l0.399-0.001l0.399,0.001c0,0,9.153-4.099,20.568-11.113v-14.726c-9.063,4.597-16.849,7.632-20.562,9.11
	C119.922,176.356,119.775,176.415,119.64,176.469"/>
<path fill="#FFFFFF" d="M66.369,156.546c8.119,9.569,19.146,17.858,29.015,24.17v-15.223c-9.689-5.162-20.402-12.017-29.015-20.576
	V156.546z"/>
<path fill="#FFFFFF" d="M143.949,180.717c9.868-6.313,20.895-14.602,29.014-24.17V144.86c-8.607,8.57-19.317,15.434-29.014,20.603
	V180.717z"/>
<polygon fill="#FFFFFF" points="172.553,31.355 160.813,34.065 149.977,31.355 149.977,25.035 160.813,27.744 172.553,25.035 "/>
<polygon fill="#FFFFFF" points="172.553,40.387 160.813,43.096 149.977,40.387 149.977,34.065 160.813,36.774 172.553,34.065 "/>
<polygon fill="#FFFFFF" points="89.045,29.988 81.587,28.857 78.266,21.76 74.946,28.857 67.487,29.988 72.877,35.522 
	71.529,43.317 78.266,39.637 85.003,43.317 83.656,35.522 "/>
</svg>
