<?xml version="1.0" encoding="utf-8"?>
<!-- Generator: Adobe Illustrator 16.0.0, SVG Export Plug-In . SVG Version: 6.00 Build 0)  -->
<!DOCTYPE svg PUBLIC "-//W3C//DTD SVG 1.1//EN" "http://www.w3.org/Graphics/SVG/1.1/DTD/svg11.dtd">
<svg version="1.1" id="Layer_1" xmlns="http://www.w3.org/2000/svg" xmlns:xlink="http://www.w3.org/1999/xlink" x="0px" y="0px"
	 width="240px" height="195px" viewBox="0 0 240 195" enable-background="new 0 0 240 195" xml:space="preserve">
<path fill="none" d="M78.63-2257.76"/>
<path fill="none" d="M78.63,987.837"/>
<path fill="none" d="M51.764,1616.837"/>
<path fill="none" d="M51.764-1628.76"/>
<line fill="#929497" x1="1530.52" y1="-66.557" x2="1530.52" y2="-65.807"/>
<line fill="#929497" x1="-611.484" y1="-65.807" x2="-611.484" y2="-66.557"/>
<path fill="#F26D7C" d="M188.311,92.942c-10.15-32.988-1.84-41.102-0.037-42.34h-67.365H52.427
	c1.803,1.238,10.365,9.352,0.215,42.34c-14.918,48.48,55.285,74.916,67.834,79.934c0.137-0.055,0.283-0.112,0.433-0.172
	C134.545,167.278,203.064,140.896,188.311,92.942"/>
<g opacity="0.5">
	<g>
		<g>
			<defs>
				<rect id="SVGID_1_" x="79.25" y="50.6" width="111.13" height="122.101"/>
			</defs>
			<clipPath id="SVGID_2_">
				<use xlink:href="#SVGID_1_"  overflow="visible"/>
			</clipPath>
			<path clip-path="url(#SVGID_2_)" fill="#DF2F55" d="M188.309,92.942c-10.148-32.988-1.838-41.103-0.035-42.34h-67.365v8.93
				c-0.086-0.001-0.173-0.005-0.259-0.005l0,0c-5.469,0-10.817,1.072-15.9,3.188c-5.156,2.147-9.742,5.243-13.629,9.202
				c-3.751,3.821-6.691,8.278-8.738,13.246c-2.047,4.969-3.101,10.203-3.131,15.557c-0.031,5.546,1.041,10.976,3.188,16.132
				c3.205,7.696,8.574,14.17,15.528,18.721c6.779,4.435,14.632,6.777,22.71,6.777c0.077,0,0.154-0.002,0.231-0.002v30.354
				C134.544,167.278,203.064,140.896,188.309,92.942 M120.676,134.325c-13.076,0-25.488-7.733-30.826-20.559
				c-7.086-17.018,0.967-36.557,17.983-43.641c4.194-1.746,8.54-2.573,12.815-2.573c0.086,0,0.173,0.004,0.259,0.005v66.764
				C120.83,134.323,120.753,134.325,120.676,134.325"/>
		</g>
	</g>
</g>
<path fill="#FFFFFF" d="M133.757,131.268c-17.019,7.086-36.556-0.967-43.642-17.983c-7.084-17.019,0.967-36.557,17.984-43.643
	c17.018-7.085,36.557,0.968,43.641,17.985C158.826,104.645,150.773,124.183,133.757,131.268"/>
<g opacity="0.4">
	<g>
		<g>
			<defs>
				<rect id="SVGID_3_" x="50.57" y="4.82" width="139.81" height="168.06"/>
			</defs>
			<clipPath id="SVGID_4_">
				<use xlink:href="#SVGID_3_"  overflow="visible"/>
			</clipPath>
			<path clip-path="url(#SVGID_4_)" fill="#FFFFFF" d="M120.476,18.885c8.377,4.037,25.286,10.076,54.196,12.174v14.625
				c-1.492,2.458-2.888,5.657-3.813,9.77c-2.389,10.613-0.952,24.591,4.265,41.547c2.328,7.568,1.854,14.6-1.444,21.499
				c-3.052,6.373-8.519,12.725-16.25,18.875c-12.738,10.132-28.212,17.049-36.953,20.637c-8.742-3.588-24.216-10.505-36.952-20.637
				c-7.732-6.15-13.201-12.502-16.251-18.875C63.972,111.601,63.5,104.568,65.829,97c5.231-17.001,6.613-31.021,4.109-41.675
				c-0.964-4.099-2.392-7.283-3.909-9.729V31.054C88.166,29.416,107.604,25.09,120.476,18.885 M120.476,4.824
				c-1.728,0-3.453,0.347-4.796,1.037c-9.941,5.12-29.271,10.588-57.983,11.864c-3.017,0.135-5.465,2.57-5.465,5.59v27.16
				c0,0,11.263,7.193,0.409,42.467c-14.918,48.481,55.285,74.915,67.835,79.934c12.549-5.019,82.75-31.451,67.834-79.934
				c-10.854-35.272,0.158-42.467,0.158-42.467v-27.16c0-3.02-2.449-5.455-5.465-5.59c-28.713-1.275-47.791-6.744-57.734-11.864
				C123.928,5.171,122.201,4.824,120.476,4.824"/>
		</g>
	</g>
</g>
<polygon fill="#F26D7C" points="120.749,67.887 120.121,97.361 125.014,101.501 152.857,101.877 153.609,94.602 146.084,79.802 
	133.291,70.145 "/>
<path fill="#191818" d="M120.421,76.255c0,0-0.001,0.021-0.005,0.053h0.011C120.423,76.275,120.421,76.255,120.421,76.255"/>
<path fill="#191818" d="M120.424,76.282c0.001,0.014,0.537,0.025,1.195,0.025s1.193-0.561,1.193-1.254v-5.77
	c0-0.692-0.563-1.254-1.256-1.254h-1.636c-0.693,0-1.254,0.562-1.254,1.254v5.77c0,0.693,0.391,1.254,0.873,1.254
	c0.484,0,0.877-0.012,0.877-0.025C120.42,76.267,120.422,76.267,120.424,76.282"/>
<path fill="#191818" d="M153.602,101.709v-1.636c0-0.693-0.563-1.255-1.254-1.255h-5.688c-0.692,0-1.254,0.562-1.254,1.255v1.636
	c0,0.693,0.562,1.254,1.254,1.254h5.688C153.039,102.963,153.602,102.402,153.602,101.709"/>
<path fill="#191818" d="M87.879,100.073v1.636c0,0.693,0.562,1.255,1.254,1.255h5.52c0.692,0,1.254-0.562,1.254-1.255v-1.636
	c0-0.693-0.563-1.254-1.254-1.254h-5.52C88.44,98.819,87.879,99.38,87.879,100.073"/>
<path fill="#191818" d="M119.922,133.752h1.637c0.691,0,1.254-0.562,1.254-1.254v-5.436c0-0.692-0.563-1.255-1.254-1.255h-1.637
	c-0.693,0-1.254,0.563-1.254,1.255v5.436C118.668,133.19,119.229,133.752,119.922,133.752"/>
<path fill="#191818" d="M104.31,72.433c-0.601,0.347-0.806,1.113-0.46,1.714l2.85,4.936c0.346,0.6,1.115,0.808,1.717,0.466
	c0.603-0.343,0.811-1.106,0.463-1.707l-2.856-4.948C105.676,72.292,104.909,72.087,104.31,72.433"/>
<path fill="#191818" d="M92.281,84.46c-0.346,0.6-0.141,1.367,0.459,1.713l4.867,2.812c0.601,0.346,1.363,0.138,1.705-0.465
	c0.344-0.602,0.135-1.37-0.467-1.718l-4.852-2.801C93.395,83.655,92.628,83.86,92.281,84.46"/>
<path fill="#191818" d="M92.281,117.321c0.347,0.601,1.113,0.806,1.713,0.46l4.72-2.727c0.601-0.346,0.804-1.111,0.456-1.711
	c-0.348-0.599-1.117-0.804-1.716-0.458l-4.714,2.723C92.141,115.955,91.936,116.722,92.281,117.321"/>
<path fill="#191818" d="M104.31,129.35c0.6,0.347,1.366,0.142,1.713-0.459l2.71-4.692c0.347-0.602,0.141-1.365-0.461-1.709
	c-0.602-0.347-1.369-0.139-1.717,0.463l-2.705,4.686C103.504,128.236,103.709,129.004,104.31,129.35"/>
<path fill="#191818" d="M137.17,129.35c0.6-0.346,0.807-1.112,0.459-1.713l-2.744-4.755c-0.347-0.601-1.115-0.808-1.718-0.466
	c-0.603,0.343-0.81,1.105-0.463,1.707l2.753,4.768C135.803,129.49,136.57,129.695,137.17,129.35"/>
<path fill="#191818" d="M149.198,117.321c0.347-0.601,0.141-1.366-0.46-1.713l-4.85-2.802c-0.601-0.346-1.363-0.139-1.705,0.465
	c-0.344,0.602-0.135,1.37,0.467,1.719l4.834,2.791C148.085,118.127,148.852,117.922,149.198,117.321"/>
<path fill="#191818" d="M149.198,84.46c-0.347-0.6-1.113-0.805-1.714-0.459l-4.989,2.881c-0.601,0.346-0.804,1.113-0.456,1.712
	s1.115,0.804,1.716,0.457l4.983-2.878C149.339,85.828,149.545,85.061,149.198,84.46"/>
<path fill="#191818" d="M137.17,72.433c-0.6-0.346-1.367-0.141-1.713,0.459l-2.896,5.018c-0.346,0.6-0.141,1.365,0.461,1.71
	c0.603,0.344,1.369,0.137,1.717-0.463l2.892-5.01C137.977,73.546,137.77,72.779,137.17,72.433"/>
<path fill="#191818" d="M120.675,136.398c-14.366,0-27.218-8.57-32.739-21.834c-3.64-8.742-3.656-18.377-0.049-27.133
	c3.607-8.754,10.408-15.58,19.15-19.219c4.354-1.813,8.933-2.731,13.611-2.731c14.366,0,27.219,8.569,32.739,21.833
	c7.514,18.044-1.056,38.837-19.101,46.351C129.932,135.479,125.354,136.398,120.675,136.398 M120.648,69.627
	c-4.129,0-8.173,0.813-12.019,2.413c-7.72,3.214-13.726,9.242-16.911,16.972c-3.186,7.731-3.171,16.24,0.043,23.96
	c4.877,11.713,16.227,19.281,28.913,19.281c4.128,0,8.172-0.812,12.02-2.413c15.936-6.635,23.502-24.997,16.867-40.932
	C144.686,77.195,133.337,69.627,120.648,69.627"/>
<rect x="111.322" y="97.515" transform="matrix(-0.5438 -0.8392 0.8392 -0.5438 84.9967 258.7646)" fill="#F26D7C" width="3.01" height="17.533"/>
<path fill="#191818" d="M116.278,101.621c0.007,2.295,1.872,4.151,4.168,4.146c2.295-0.007,4.152-1.873,4.146-4.168
	c-0.008-2.296-4.025-18.446-4.025-18.446S116.271,99.326,116.278,101.621"/>
<path fill="#191818" d="M121.129,97.594c-2.296-0.028-4.18,1.809-4.209,4.104c-0.029,2.296,1.807,4.18,4.104,4.209
	c2.295,0.028,18.512-4.04,18.512-4.04S123.424,97.623,121.129,97.594"/>
<path fill="#191818" d="M120.476,13.19c0.526,0,0.894,0.091,1.006,0.13c13.142,6.754,34.396,11.326,58.621,12.638v21.353
	c-1.471,2.076-2.99,5.088-3.946,9.333c-2.177,9.68-0.777,22.719,4.157,38.759c5.105,16.6-1.272,31.719-19.506,46.221
	c-14.389,11.444-31.922,18.869-40.333,22.248c-8.413-3.379-25.946-10.804-40.333-22.248c-18.232-14.502-24.613-29.621-19.506-46.221
	c4.943-16.066,6.295-29.134,4.014-38.836c-0.997-4.241-2.555-7.243-4.053-9.313V25.958c24.393-1.318,45.742-5.89,58.871-12.638
	C119.582,13.281,119.948,13.19,120.476,13.19 M120.476,4.824c-1.728,0-3.453,0.346-4.796,1.037
	c-9.941,5.12-29.271,10.588-57.983,11.864c-3.017,0.135-5.465,2.57-5.465,5.59v27.16c0,0,11.263,7.193,0.409,42.467
	c-14.918,48.481,55.285,74.915,67.835,79.934c12.549-5.019,82.75-31.451,67.834-79.934c-10.854-35.272,0.158-42.467,0.158-42.467
	v-27.16c0-3.02-2.449-5.455-5.465-5.59c-28.713-1.275-47.791-6.744-57.734-11.864C123.928,5.17,122.201,4.824,120.476,4.824"/>
<path fill="#191818" d="M188.469,23.315c0-3.021-2.449-5.456-5.465-5.591c-28.713-1.274-47.791-6.743-57.734-11.864
	c-2.684-1.382-6.903-1.382-9.588,0c-9.942,5.121-29.272,10.589-57.984,11.864c-3.017,0.135-5.465,2.57-5.465,5.591v27.159
	c0,0,0.069,0.042,0.194,0.128h135.848c0.125-0.086,0.195-0.128,0.195-0.128V23.315z"/>
<path fill="#FFFFFF" d="M97.338,41.771V38.52c7.346-7.136,8.881-8.729,8.881-11.019c0-1.536-1.175-2.529-2.681-2.529
	c-1.776,0-3.19,0.813-4.274,2.259l-2.408-2.529c1.625-2.167,4.004-3.313,6.744-3.313c3.884,0,6.713,2.35,6.713,6.082
	c0,3.04-2.047,5.63-7.014,10.747h7.104v3.553H97.338V41.771z"/>
<path fill="#FFFFFF" d="M112.84,38.971l2.438-2.589c1.054,1.385,2.469,2.168,4.185,2.168c1.928,0,3.041-1.475,3.041-3.162
	c0-1.985-1.054-3.161-2.86-3.161c-1.354,0-2.377,0.482-3.312,1.656l-2.92-0.783V21.691h12.042v3.551h-8.008v5.148
	c0.783-0.963,2.137-1.655,3.673-1.655c3.04,0,5.479,2.379,5.479,6.532c0,4.034-2.74,6.864-7.016,6.864
	C116.482,42.132,114.344,40.988,112.84,38.971"/>
<path fill="#FFFFFF" d="M128.521,31.745c0-5.178,2.138-10.355,7.104-10.355c4.997,0,7.104,5.179,7.104,10.355
	c0,5.147-2.078,10.388-7.104,10.388C130.659,42.133,128.521,36.894,128.521,31.745 M138.637,31.745c0-3.883-0.662-6.772-3.01-6.772
	c-2.318,0-2.98,2.891-2.98,6.772c0,3.854,0.662,6.805,2.98,6.805C137.975,38.55,138.637,35.6,138.637,31.745"/>
<path fill="#1A1A19" d="M120.449,176.469c-3.511-1.402-11.533-4.483-20.941-9.254v14.698c11.416,7.015,20.568,11.113,20.568,11.113
	l0.398-0.001l0.398,0.001c0,0,9.153-4.1,20.567-11.113v-14.727c-9.063,4.598-16.847,7.633-20.561,9.109
	C120.73,176.356,120.586,176.415,120.449,176.469"/>
<path fill="#1A1A19" d="M67.179,156.546c8.118,9.569,19.146,17.858,29.014,24.17v-15.223c-9.688-5.162-20.401-12.018-29.014-20.576
	V156.546L67.179,156.546z"/>
<path fill="#1A1A19" d="M144.758,180.717c9.869-6.313,20.895-14.602,29.014-24.17V144.86c-9.119,9.082-19.698,15.637-29.014,20.603
	V180.717z"/>
<polygon fill="#FFFFFF" points="91.421,29.988 83.963,28.857 80.642,21.76 77.322,28.857 69.863,29.988 75.252,35.522 
	73.904,43.317 80.642,39.637 87.379,43.317 86.031,35.522 "/>
<polygon fill="#FFFFFF" points="171.088,29.988 163.629,28.857 160.309,21.76 156.988,28.857 149.529,29.988 154.919,35.522 
	153.57,43.317 160.309,39.637 167.045,43.317 165.698,35.522 "/>
</svg>
