<?xml version="1.0" encoding="utf-8"?>
<!-- Generator: Adobe Illustrator 16.0.0, SVG Export Plug-In . SVG Version: 6.00 Build 0)  -->
<!DOCTYPE svg PUBLIC "-//W3C//DTD SVG 1.1//EN" "http://www.w3.org/Graphics/SVG/1.1/DTD/svg11.dtd">
<svg version="1.1" id="Layer_1" xmlns="http://www.w3.org/2000/svg" xmlns:xlink="http://www.w3.org/1999/xlink" x="0px" y="0px"
	 width="240px" height="195px" viewBox="0 0 240 195" enable-background="new 0 0 240 195" xml:space="preserve">
<path fill="none" d="M78.63-2257.76"/>
<path fill="none" d="M78.63,987.837"/>
<path fill="none" d="M51.764,1616.837"/>
<path fill="none" d="M51.764-1628.76"/>
<line fill="#929497" x1="1530.52" y1="-66.557" x2="1530.52" y2="-65.807"/>
<line fill="#929497" x1="-611.484" y1="-65.807" x2="-611.484" y2="-66.557"/>
<path fill="#F26D7C" d="M188.215,92.942c-10.15-32.988-1.839-41.102-0.037-42.34h-67.365H52.33
	c1.803,1.238,10.365,9.352,0.216,42.34c-14.918,48.48,55.284,74.916,67.834,79.934c0.136-0.055,0.282-0.112,0.433-0.172
	C134.449,167.278,202.969,140.896,188.215,92.942"/>
<g opacity="0.5">
	<g>
		<g>
			<defs>
				<rect id="SVGID_1_" x="79.15" y="50.6" width="111.129" height="122.101"/>
			</defs>
			<clipPath id="SVGID_2_">
				<use xlink:href="#SVGID_1_"  overflow="visible"/>
			</clipPath>
			<path clip-path="url(#SVGID_2_)" fill="#DF2F55" d="M188.214,92.942c-10.149-32.988-1.838-41.103-0.034-42.34h-67.367v8.93
				c-0.086-0.001-0.173-0.005-0.26-0.005c-5.468,0-10.818,1.072-15.9,3.188c-5.156,2.147-9.742,5.243-13.629,9.202
				c-3.75,3.821-6.69,8.278-8.738,13.246c-2.047,4.969-3.1,10.203-3.131,15.557c-0.031,5.546,1.041,10.976,3.188,16.132
				c3.204,7.696,8.574,14.17,15.528,18.721c6.777,4.435,14.631,6.777,22.709,6.777c0.078,0,0.154-0.002,0.232-0.002v30.354
				C134.449,167.278,202.969,140.896,188.214,92.942 M120.58,134.325c-13.076,0-25.487-7.733-30.827-20.559
				c-7.084-17.018,0.968-36.557,17.985-43.641c4.192-1.746,8.539-2.573,12.814-2.573c0.087,0,0.174,0.004,0.26,0.005v66.764
				C120.734,134.323,120.656,134.325,120.58,134.325"/>
		</g>
	</g>
</g>
<path fill="#FFFFFF" d="M133.662,131.268c-17.019,7.086-36.558-0.967-43.643-17.983c-7.085-17.018,0.968-36.557,17.984-43.643
	c17.019-7.085,36.558,0.968,43.642,17.985C158.73,104.645,150.678,124.183,133.662,131.268"/>
<g opacity="0.4">
	<g>
		<g>
			<defs>
				<rect id="SVGID_3_" x="50.48" y="4.82" width="139.799" height="168.06"/>
			</defs>
			<clipPath id="SVGID_4_">
				<use xlink:href="#SVGID_3_"  overflow="visible"/>
			</clipPath>
			<path clip-path="url(#SVGID_4_)" fill="#FFFFFF" d="M120.38,18.885c8.377,4.037,25.288,10.076,54.196,12.174v14.625
				c-1.492,2.458-2.889,5.657-3.813,9.77c-2.389,10.613-0.953,24.591,4.264,41.547c2.33,7.568,1.856,14.6-1.444,21.499
				c-3.049,6.373-8.519,12.725-16.25,18.875c-12.737,10.132-28.211,17.049-36.952,20.637c-8.741-3.588-24.216-10.505-36.952-20.637
				c-7.732-6.15-13.201-12.502-16.251-18.875c-3.302-6.898-3.774-13.931-1.444-21.499c5.23-17.001,6.613-31.021,4.108-41.675
				c-0.962-4.099-2.39-7.283-3.908-9.729V31.054C88.07,29.416,107.508,25.09,120.38,18.885 M120.38,4.824
				c-1.726,0-3.453,0.347-4.796,1.037c-9.941,5.12-29.271,10.588-57.982,11.864c-3.018,0.135-5.466,2.57-5.466,5.59v27.16
				c0,0,11.263,7.193,0.409,42.467c-14.916,48.481,55.285,74.915,67.835,79.934c12.55-5.019,82.751-31.451,67.834-79.934
				c-10.853-35.272,0.159-42.467,0.159-42.467v-27.16c0-3.02-2.449-5.455-5.465-5.59c-28.713-1.275-47.791-6.744-57.733-11.864
				C123.832,5.171,122.105,4.824,120.38,4.824"/>
		</g>
	</g>
</g>
<polygon fill="#F26D7C" points="120.653,67.887 120.025,97.361 124.918,101.501 152.762,101.877 153.514,94.602 145.989,79.802 
	133.195,70.145 "/>
<path fill="#191818" d="M120.326,76.255c0,0-0.003,0.021-0.005,0.053h0.011C120.328,76.275,120.326,76.255,120.326,76.255"/>
<path fill="#191818" d="M120.328,76.282c0.002,0.014,0.537,0.025,1.195,0.025s1.192-0.561,1.192-1.254v-5.77
	c0-0.692-0.562-1.254-1.254-1.254h-1.637c-0.693,0-1.254,0.562-1.254,1.254v5.77c0,0.693,0.391,1.254,0.874,1.254
	c0.483,0,0.876-0.012,0.877-0.025C120.324,76.267,120.327,76.267,120.328,76.282"/>
<path fill="#191818" d="M153.506,101.709v-1.636c0-0.693-0.563-1.255-1.255-1.255h-5.687c-0.692,0-1.254,0.562-1.254,1.255v1.636
	c0,0.693,0.562,1.254,1.254,1.254h5.687C152.943,102.963,153.506,102.402,153.506,101.709"/>
<path fill="#191818" d="M87.783,100.073v1.636c0,0.693,0.563,1.255,1.254,1.255h5.52c0.691,0,1.254-0.562,1.254-1.255v-1.636
	c0-0.693-0.563-1.254-1.254-1.254h-5.52C88.346,98.819,87.783,99.38,87.783,100.073"/>
<path fill="#191818" d="M119.826,133.752h1.637c0.691,0,1.254-0.562,1.254-1.254v-5.436c0-0.692-0.563-1.255-1.254-1.255h-1.637
	c-0.692,0-1.254,0.563-1.254,1.255v5.436C118.572,133.19,119.134,133.752,119.826,133.752"/>
<path fill="#191818" d="M104.214,72.433c-0.601,0.347-0.806,1.113-0.46,1.714l2.85,4.936c0.346,0.6,1.115,0.808,1.717,0.466
	c0.603-0.343,0.811-1.106,0.463-1.707l-2.856-4.948C105.58,72.292,104.813,72.087,104.214,72.433"/>
<path fill="#191818" d="M92.186,84.46c-0.346,0.6-0.141,1.367,0.459,1.713l4.868,2.812c0.599,0.346,1.363,0.138,1.705-0.465
	c0.342-0.602,0.133-1.37-0.467-1.718l-4.853-2.801C93.299,83.655,92.531,83.86,92.186,84.46"/>
<path fill="#191818" d="M92.186,117.321c0.346,0.601,1.113,0.806,1.713,0.46l4.721-2.727c0.599-0.346,0.804-1.111,0.455-1.711
	c-0.348-0.599-1.116-0.804-1.717-0.458l-4.713,2.723C92.045,115.955,91.84,116.722,92.186,117.321"/>
<path fill="#191818" d="M104.214,129.35c0.6,0.347,1.366,0.142,1.713-0.459l2.71-4.692c0.347-0.602,0.141-1.365-0.461-1.709
	c-0.602-0.347-1.369-0.139-1.715,0.463l-2.707,4.686C103.408,128.236,103.613,129.004,104.214,129.35"/>
<path fill="#191818" d="M137.075,129.35c0.6-0.346,0.805-1.112,0.459-1.713l-2.745-4.755c-0.346-0.601-1.115-0.808-1.717-0.466
	c-0.604,0.343-0.809,1.105-0.463,1.707l2.752,4.768C135.708,129.49,136.475,129.695,137.075,129.35"/>
<path fill="#191818" d="M149.104,117.321c0.347-0.601,0.142-1.366-0.459-1.713l-4.852-2.802c-0.6-0.346-1.363-0.139-1.705,0.465
	c-0.342,0.602-0.133,1.37,0.467,1.719l4.836,2.791C147.99,118.127,148.757,117.922,149.104,117.321"/>
<path fill="#191818" d="M149.104,84.46c-0.347-0.6-1.112-0.805-1.713-0.459l-4.99,2.881c-0.601,0.346-0.805,1.113-0.457,1.712
	c0.349,0.599,1.117,0.804,1.718,0.457l4.983-2.878C149.244,85.828,149.449,85.061,149.104,84.46"/>
<path fill="#191818" d="M137.075,72.433c-0.601-0.346-1.367-0.141-1.714,0.459l-2.896,5.018c-0.347,0.6-0.14,1.365,0.461,1.71
	c0.602,0.344,1.37,0.137,1.717-0.463l2.893-5.01C137.88,73.546,137.675,72.779,137.075,72.433"/>
<path fill="#191818" d="M120.58,136.398c-14.367,0-27.219-8.57-32.74-21.834c-3.64-8.742-3.656-18.377-0.049-27.133
	c3.607-8.754,10.408-15.58,19.15-19.219c4.354-1.813,8.933-2.731,13.611-2.731c14.366,0,27.22,8.569,32.739,21.833
	c7.513,18.044-1.057,38.837-19.102,46.351C129.837,135.479,125.258,136.398,120.58,136.398 M120.553,69.627
	c-4.129,0-8.173,0.813-12.019,2.413c-7.72,3.214-13.726,9.242-16.911,16.972c-3.186,7.731-3.171,16.24,0.043,23.96
	c4.877,11.713,16.227,19.281,28.914,19.281c4.128,0,8.172-0.812,12.018-2.413c15.937-6.634,23.504-24.997,16.868-40.932
	C144.589,77.195,133.241,69.627,120.553,69.627"/>
<rect x="111.225" y="97.514" transform="matrix(-0.5439 -0.8391 0.8391 -0.5439 84.8632 258.6858)" fill="#F26D7C" width="3.012" height="17.534"/>
<path fill="#191818" d="M116.184,101.621c0.006,2.295,1.872,4.151,4.168,4.146c2.294-0.007,4.15-1.873,4.143-4.168
	c-0.007-2.296-4.023-18.446-4.023-18.446S116.177,99.326,116.184,101.621"/>
<path fill="#191818" d="M121.033,97.594c-2.295-0.028-4.18,1.809-4.209,4.104c-0.029,2.296,1.808,4.18,4.103,4.209
	c2.296,0.028,18.511-4.04,18.511-4.04S123.328,97.623,121.033,97.594"/>
<path fill="#191818" d="M120.38,13.19c0.526,0,0.894,0.091,1.007,0.13c13.141,6.754,34.396,11.326,58.62,12.638v21.353
	c-1.468,2.076-2.989,5.088-3.944,9.333c-2.179,9.68-0.778,22.719,4.155,38.759c5.106,16.6-1.272,31.719-19.505,46.221
	c-14.387,11.444-31.92,18.869-40.333,22.248c-8.412-3.379-25.946-10.804-40.333-22.248c-18.232-14.502-24.612-29.621-19.506-46.221
	c4.943-16.066,6.295-29.134,4.014-38.836c-0.997-4.241-2.555-7.243-4.053-9.313V25.958c24.393-1.318,45.742-5.89,58.871-12.638
	C119.486,13.281,119.853,13.19,120.38,13.19 M120.38,4.824c-1.726,0-3.453,0.346-4.796,1.037
	c-9.941,5.12-29.271,10.588-57.982,11.864c-3.018,0.135-5.466,2.57-5.466,5.59v27.16c0,0,11.264,7.193,0.409,42.467
	c-14.916,48.481,55.285,74.915,67.835,79.934c12.55-5.019,82.751-31.451,67.834-79.934c-10.853-35.272,0.159-42.467,0.159-42.467
	v-27.16c0-3.02-2.449-5.455-5.465-5.59c-28.713-1.275-47.791-6.744-57.733-11.864C123.832,5.17,122.105,4.824,120.38,4.824"/>
<path fill="#191818" d="M188.373,23.315c0-3.021-2.449-5.456-5.465-5.591c-28.713-1.274-47.791-6.743-57.733-11.864
	c-2.685-1.382-6.905-1.382-9.59,0c-9.942,5.121-29.272,10.589-57.983,11.864c-3.017,0.135-5.466,2.57-5.466,5.591v27.159
	c0,0,0.069,0.042,0.194,0.128h135.85c0.125-0.086,0.193-0.128,0.193-0.128V23.315z"/>
<path fill="#FFFFFF" d="M96.488,38.881l2.409-2.529c1.024,1.325,2.619,2.198,4.306,2.198c2.106,0,3.07-1.114,3.07-2.679
	c0-1.867-1.295-2.53-3.252-2.53c-0.662,0-1.564,0-1.865,0.062v-3.644c0.301,0.03,1.293,0.03,1.775,0.03
	c1.836,0,3.07-0.752,3.07-2.318c0-1.686-1.203-2.499-2.95-2.499c-1.565,0-2.98,0.724-4.003,2.018l-2.289-2.349
	c1.445-2.017,3.734-3.252,6.623-3.252c3.974,0,6.594,1.897,6.594,5.45c0,2.288-1.717,4.154-3.794,4.576
	c2.047,0.301,4.095,2.106,4.095,4.816c0,3.491-2.68,5.899-6.895,5.899C100.191,42.132,97.754,40.717,96.488,38.881"/>
<path fill="#FFFFFF" d="M112.293,31.745c0-5.178,2.137-10.355,7.104-10.355c4.998,0,7.105,5.179,7.105,10.355
	c0,5.147-2.078,10.388-7.105,10.388C114.43,42.133,112.293,36.894,112.293,31.745 M122.408,31.745c0-3.883-0.662-6.772-3.012-6.772
	c-2.318,0-2.98,2.891-2.98,6.772c0,3.854,0.662,6.805,2.98,6.805C121.746,38.55,122.408,35.6,122.408,31.745"/>
<path fill="#FFFFFF" d="M128.457,31.745c0-5.178,2.137-10.355,7.104-10.355c4.998,0,7.105,5.179,7.105,10.355
	c0,5.147-2.076,10.388-7.105,10.388C130.594,42.133,128.457,36.894,128.457,31.745 M138.572,31.745c0-3.883-0.662-6.772-3.012-6.772
	c-2.318,0-2.98,2.891-2.98,6.772c0,3.854,0.662,6.805,2.98,6.805C137.91,38.55,138.572,35.6,138.572,31.745"/>
<polygon fill="#FFFFFF" points="91.326,29.988 83.867,28.857 80.547,21.76 77.226,28.857 69.768,29.988 75.157,35.522 73.81,43.317 
	80.547,39.637 87.283,43.317 85.936,35.522 "/>
<polygon fill="#FFFFFF" points="170.992,29.988 163.534,28.857 160.213,21.76 156.893,28.857 149.434,29.988 154.824,35.522 
	153.477,43.317 160.213,39.637 166.949,43.317 165.604,35.522 "/>
<path fill="#020202" d="M44.605,143.842c0.915-0.018,1.782-0.026,2.637,0.015c-3.211-4.571-2.291-10.163-4.058-15.119l0.017-0.22
	c5.33,2.009,8.125,6.701,10.731,11.656c1.861,3.593,3.683,7.274,6.339,9.994c-1.109,0.08-2.152,0.229-3.234,0.389
	c-1.121,0.163-2.275,0.387-3.435,0.691c-2.306,0.136-4.581,0.238-6.733,0.168c-4.034-0.172-7.793-0.855-11.035-2.605
	c-1.502-0.799-2.902-1.85-4.131-3.161c0.947-0.154,1.992-0.343,3.027-0.523C37.994,144.569,41.429,144,44.605,143.842"/>
<path fill="#020202" d="M34.55,126.295c1.062,1.399,2.534,2.594,3.517,4.192c0.273,0.794,0.6,1.551,0.922,2.329
	c0.784,2.099,1.379,4.127,0.791,5.831c-2.664-1.041-5.365-2.283-7.72-4.483c-1.341-1.617-2.338-3.361-3.035-5.244
	c-1.11-2.955-1.454-6.194-1.075-9.59c0.008-0.113,0.032-0.178,0.024-0.252l0.3-0.285c0.113,0.265,0.264,0.539,0.409,0.824
	C30.108,122.215,32.194,124.096,34.55,126.295"/>
<path fill="#020202" d="M194.729,143.842c-0.916-0.018-1.783-0.026-2.638,0.015c3.212-4.571,2.291-10.163,4.058-15.119l-0.017-0.22
	c-5.329,2.009-8.124,6.701-10.731,11.656c-1.86,3.593-3.683,7.274-6.338,9.994c1.108,0.08,2.152,0.229,3.233,0.389
	c1.122,0.163,2.274,0.387,3.435,0.691c2.308,0.136,4.582,0.238,6.732,0.168c4.035-0.172,7.795-0.855,11.037-2.605
	c1.502-0.799,2.902-1.85,4.131-3.161c-0.949-0.154-1.992-0.343-3.027-0.523C201.338,144.569,197.904,144,194.729,143.842"/>
<path fill="#020202" d="M206.21,126.295c-1.062,1.399-2.535,2.594-3.517,4.192c-0.274,0.794-0.601,1.551-0.922,2.329
	c-0.785,2.099-1.379,4.127-0.793,5.831c2.664-1.041,5.365-2.283,7.721-4.483c1.342-1.617,2.34-3.361,3.035-5.244
	c1.111-2.955,1.453-6.194,1.076-9.59c-0.009-0.113-0.033-0.178-0.025-0.252l-0.299-0.285c-0.113,0.265-0.264,0.539-0.41,0.824
	C210.65,122.215,208.564,124.096,206.21,126.295"/>
<path fill="#1A1A19" d="M120.354,177.469c-3.51-1.402-11.533-5.483-20.94-10.254v14.698c11.415,7.015,20.567,11.113,20.567,11.113
	l0.398-0.001l0.399,0.001c0,0,9.154-4.1,20.567-11.113v-14.727c-9.063,4.598-16.848,8.633-20.561,10.109
	C120.635,177.356,120.489,177.415,120.354,177.469"/>
<path fill="#1A1A19" d="M67.084,156.546c8.118,9.569,19.146,17.858,29.014,24.17v-15.223c-9.689-5.162-20.402-12.018-29.014-20.576
	V156.546L67.084,156.546z"/>
<path fill="#1A1A19" d="M144.662,180.717c9.869-6.313,20.895-14.602,29.014-24.17V144.86c-8.605,8.569-19.316,15.433-29.014,20.603
	V180.717z"/>
</svg>
