<?xml version="1.0" encoding="utf-8"?>
<!-- Generator: Adobe Illustrator 16.0.0, SVG Export Plug-In . SVG Version: 6.00 Build 0)  -->
<!DOCTYPE svg PUBLIC "-//W3C//DTD SVG 1.1//EN" "http://www.w3.org/Graphics/SVG/1.1/DTD/svg11.dtd">
<svg version="1.1" id="Layer_1" xmlns="http://www.w3.org/2000/svg" xmlns:xlink="http://www.w3.org/1999/xlink" x="0px" y="0px"
	 width="612px" height="792px" viewBox="0 0 612 792" enable-background="new 0 0 612 792" xml:space="preserve">
<path fill="#F26C7C" d="M370.5,386.942c-10.149-32.988-1.838-41.101-0.035-42.339h-67.366h-68.482
	c1.803,1.238,10.366,9.351,0.216,42.339c-14.918,48.481,55.285,74.916,67.834,79.934c0.137-0.055,0.282-0.112,0.433-0.172
	C316.735,461.278,385.256,434.896,370.5,386.942"/>
<g opacity="0.5">
	<g>
		<defs>
			<rect id="SVGID_1_" x="303.1" y="344.6" width="69.47" height="122.1"/>
		</defs>
		<clipPath id="SVGID_2_">
			<use xlink:href="#SVGID_1_"  overflow="visible"/>
		</clipPath>
		<path clip-path="url(#SVGID_2_)" fill="#DF2E54" d="M370.5,386.942c-10.149-32.988-1.838-41.101-0.035-42.339h-67.366v122.101
			C316.735,461.278,385.256,434.896,370.5,386.942"/>
	</g>
</g>
<g opacity="0.4">
	<g>
		<defs>
			<rect id="SVGID_3_" x="232.76" y="298.82" width="139.811" height="168.06"/>
		</defs>
		<clipPath id="SVGID_4_">
			<use xlink:href="#SVGID_3_"  overflow="visible"/>
		</clipPath>
		<path clip-path="url(#SVGID_4_)" fill="#FFFFFF" d="M302.666,312.885c8.377,4.037,25.287,10.076,54.197,12.174v14.625
			c-1.492,2.458-2.889,5.657-3.814,9.769c-2.387,10.613-0.951,24.591,4.266,41.547c2.328,7.568,1.855,14.6-1.445,21.499
			c-3.05,6.373-8.518,12.725-16.251,18.875c-12.737,10.132-28.211,17.049-36.952,20.637c-8.741-3.588-24.216-10.505-36.952-20.637
			c-7.732-6.15-13.201-12.502-16.251-18.875c-3.301-6.898-3.772-13.931-1.445-21.499c5.231-17.001,6.614-31.022,4.109-41.675
			c-0.963-4.098-2.39-7.283-3.909-9.729v-14.542C270.357,323.416,289.794,319.09,302.666,312.885 M302.666,298.824
			c-1.726,0-3.453,0.347-4.795,1.037c-9.942,5.12-29.271,10.588-57.984,11.864c-3.016,0.134-5.465,2.57-5.465,5.589v27.161
			c0,0,11.263,7.193,0.41,42.466c-14.917,48.482,55.285,74.915,67.834,79.934c12.549-5.019,82.751-31.451,67.834-79.934
			c-10.853-35.272,0.159-42.466,0.159-42.466v-27.161c0-3.019-2.449-5.455-5.465-5.589c-28.713-1.276-47.791-6.744-57.733-11.864
			C306.119,299.171,304.392,298.824,302.666,298.824"/>
	</g>
</g>
<path fill="#191818" d="M370.659,317.315c0-3.02-2.449-5.456-5.465-5.59c-28.712-1.275-47.791-6.743-57.733-11.864
	c-2.685-1.382-6.905-1.382-9.59,0c-9.942,5.121-29.271,10.589-57.984,11.864c-3.016,0.134-5.465,2.57-5.465,5.59v27.16
	c0,0,0.069,0.042,0.194,0.128h135.849c0.125-0.086,0.194-0.128,0.194-0.128V317.315z"/>
<path fill="#191818" d="M302.666,307.19c0.527,0,0.894,0.091,1.006,0.13c13.142,6.754,34.396,11.326,58.621,12.638v21.353
	c-1.468,2.076-2.99,5.087-3.945,9.333c-2.178,9.679-0.778,22.718,4.156,38.758c5.108,16.6-1.272,31.719-19.505,46.221
	c-14.387,11.444-31.921,18.869-40.333,22.248c-8.412-3.379-25.946-10.804-40.333-22.248c-18.232-14.502-24.613-29.621-19.505-46.221
	c4.943-16.066,6.294-29.133,4.013-38.836c-0.997-4.241-2.555-7.243-4.053-9.313v-21.295c24.393-1.318,45.743-5.89,58.872-12.638
	C301.772,307.281,302.139,307.19,302.666,307.19 M302.666,298.824c-1.726,0-3.453,0.346-4.795,1.037
	c-9.942,5.12-29.271,10.588-57.984,11.864c-3.016,0.134-5.465,2.57-5.465,5.589v27.161c0,0,11.263,7.193,0.41,42.466
	c-14.917,48.482,55.285,74.915,67.834,79.934c12.549-5.019,82.751-31.451,67.834-79.934c-10.853-35.272,0.159-42.466,0.159-42.466
	v-27.161c0-3.019-2.449-5.455-5.465-5.589c-28.712-1.276-47.791-6.744-57.733-11.864
	C306.119,299.17,304.392,298.824,302.666,298.824"/>
<polygon fill="#FFFFFF" points="285.926,335.771 285.926,320.899 282.885,324.06 280.566,321.622 286.468,315.691 289.989,315.691 
	289.989,335.771 "/>
<path fill="#FFFFFF" d="M292.908,332.971l2.438-2.589c1.054,1.385,2.469,2.168,4.185,2.168c1.927,0,3.041-1.475,3.041-3.162
	c0-1.986-1.054-3.161-2.86-3.161c-1.355,0-2.379,0.482-3.312,1.656l-2.92-0.783v-11.409h12.042v3.551h-8.008v5.149
	c0.783-0.963,2.138-1.656,3.673-1.656c3.041,0,5.479,2.379,5.479,6.533c0,4.034-2.739,6.864-7.014,6.864
	C296.551,336.132,294.413,334.988,292.908,332.971"/>
<path fill="#FFFFFF" d="M308.591,325.745c0-5.178,2.137-10.355,7.104-10.355c4.998,0,7.105,5.178,7.105,10.355
	c0,5.148-2.077,10.388-7.105,10.388C310.728,336.133,308.591,330.894,308.591,325.745 M318.707,325.745
	c0-3.883-0.663-6.772-3.012-6.772c-2.317,0-2.979,2.89-2.979,6.772c0,3.854,0.662,6.805,2.979,6.805
	C318.044,332.55,318.707,329.6,318.707,325.745"/>
<path fill="#FFFFFF" d="M320.646,403.436l-11.01-11.009l11.01-11.009c5.399-5.4,7.742-12.699,7.028-19.747h-48.603
	c-0.714,7.048,1.628,14.347,7.028,19.747l11.009,11.009L286.1,403.436c-3.357,3.357-5.532,7.449-6.526,11.758
	c-0.604,2.621-0.772,5.323-0.502,7.989h48.603c0.52-5.126-0.581-10.383-3.294-14.948
	C323.363,406.523,322.119,404.909,320.646,403.436"/>
<path fill="#F26C7C" d="M276.292,426.701h54.164c0.578-5.711-0.646-11.571-3.672-16.657l-6.304-7.107
	c-8.05,0-8.584,7.597-24.15,8.05c-9.589,0.279-16.1,5.968-16.1,5.968l-3.378,0.845C276.178,420.72,275.99,423.73,276.292,426.701"/>
<path fill="#F26C7C" d="M286.023,377.107c0,0,6.282-4.428,18.357-2.415c12.074,2.012,16.099,0,18.112,0l-6.197,6.768l-12.922,12.212
	L286.023,377.107z"/>
<path fill="#FFFFFF" d="M324.785,364.681c-0.133,5.472-2.344,10.684-6.268,14.609l-11.009,11.009l-2.129,2.128l2.129,2.129
	l11.009,11.009c1.265,1.264,2.366,2.681,3.275,4.209c1.862,3.131,2.891,6.745,2.987,10.399h-42.817
	c0.036-1.446,0.218-2.885,0.545-4.302c0.899-3.899,2.877-7.463,5.721-10.307l11.009-11.009l2.128-2.129l-2.128-2.128l-11.009-11.009
	c-3.925-3.925-6.135-9.137-6.267-14.609H324.785 M327.675,361.671h-48.603c-0.714,7.048,1.628,14.347,7.027,19.747l11.009,11.009
	L286.1,403.436c-3.356,3.358-5.531,7.449-6.524,11.758c-0.605,2.622-0.773,5.323-0.503,7.989h48.603
	c0.519-5.125-0.58-10.383-3.294-14.948c-1.018-1.711-2.262-3.326-3.734-4.799l-11.01-11.009l11.01-11.009
	C326.046,376.018,328.388,368.719,327.675,361.671"/>
<path fill="#191818" d="M327.676,361.671c0.713,7.048-1.629,14.348-7.029,19.747l-11.01,11.009l11.01,11.009
	c1.473,1.472,2.716,3.088,3.734,4.799c2.713,4.563,3.813,9.821,3.295,14.948h-48.604c-0.27-2.666-0.101-5.368,0.503-7.989
	c0.994-4.31,3.168-8.401,6.526-11.758l11.009-11.009l-11.009-11.009c-5.4-5.399-7.742-12.699-7.029-19.747H327.676 M330.931,358.069
	h-3.255h-48.604h-3.255l-0.328,3.239c-0.852,8.421,2.087,16.678,8.065,22.657l8.462,8.462l-8.462,8.461
	c-3.72,3.722-6.31,8.389-7.488,13.496c-0.694,3.008-0.888,6.09-0.577,9.161l0.328,3.238h3.255h48.604h3.255l0.327-3.238
	c0.603-5.946-0.74-12.038-3.781-17.151c-1.191-2.001-2.633-3.854-4.284-5.506l-8.462-8.461l8.463-8.463
	c5.977-5.978,8.917-14.234,8.064-22.656L330.931,358.069z"/>
<path fill="#F26C7C" d="M305.05,396.88c0,0.926-0.751,1.677-1.677,1.677c-0.925,0-1.676-0.751-1.676-1.677s0.751-1.676,1.676-1.676
	C304.299,395.204,305.05,395.954,305.05,396.88"/>
<path fill="#F26C7C" d="M305.05,402.356c0,0.926-0.751,1.676-1.677,1.676c-0.925,0-1.676-0.75-1.676-1.676s0.751-1.677,1.676-1.677
	C304.299,400.68,305.05,401.431,305.05,402.356"/>
<path fill="#191818" d="M333.903,361.722h-61.061c-1.385,0-2.508-1.123-2.508-2.508c0-1.386,1.123-2.509,2.508-2.509h61.061
	c1.385,0,2.508,1.123,2.508,2.509C336.411,360.599,335.288,361.722,333.903,361.722"/>
<path fill="#191818" d="M333.903,427.95h-61.061c-1.385,0-2.508-1.123-2.508-2.508c0-1.386,1.123-2.509,2.508-2.509h61.061
	c1.385,0,2.508,1.123,2.508,2.509C336.411,426.827,335.288,427.95,333.903,427.95"/>
<path fill="#1A1A19" d="M302.64,470.469c-3.51-1.403-11.533-4.484-20.94-9.254v14.698c11.415,7.015,20.567,11.113,20.567,11.113
	l0.399-0.001l0.399,0.001c0,0,9.153-4.099,20.568-11.113v-14.726c-9.063,4.597-16.849,7.632-20.562,9.109
	C302.922,470.356,302.775,470.415,302.64,470.469"/>
<path fill="#FFFFFF" d="M249.37,450.546c8.119,9.569,19.146,17.858,29.014,24.17v-15.223c-9.689-5.162-20.402-12.017-29.014-20.576
	V450.546z"/>
<path fill="#FFFFFF" d="M326.949,474.717c9.868-6.313,20.895-14.602,29.014-24.17V438.86c-8.607,8.57-19.317,15.433-29.014,20.603
	V474.717z"/>
<polygon fill="#FFFFFF" points="355.553,325.355 343.813,328.065 332.977,325.355 332.977,319.035 343.813,321.744 355.553,319.035 
	"/>
<polygon fill="#FFFFFF" points="355.553,334.386 343.813,337.096 332.977,334.386 332.977,328.065 343.813,330.774 355.553,328.065 
	"/>
<polygon fill="#FFFFFF" points="272.045,323.988 264.587,322.857 261.266,315.76 257.946,322.857 250.487,323.988 255.877,329.522 
	254.529,337.317 261.266,333.637 268.003,337.317 266.656,329.522 "/>
</svg>
