<?xml version="1.0" encoding="utf-8"?>
<!-- Generator: Adobe Illustrator 16.0.0, SVG Export Plug-In . SVG Version: 6.00 Build 0)  -->
<!DOCTYPE svg PUBLIC "-//W3C//DTD SVG 1.1//EN" "http://www.w3.org/Graphics/SVG/1.1/DTD/svg11.dtd">
<svg version="1.1" id="Layer_1" xmlns="http://www.w3.org/2000/svg" xmlns:xlink="http://www.w3.org/1999/xlink" x="0px" y="0px"
	 width="612px" height="792px" viewBox="0 0 612 792" enable-background="new 0 0 612 792" xml:space="preserve">
<path fill="none" d="M346.63,60"/>
<path fill="none" d="M346.63,3305.597"/>
<path fill="#FFFFFF" d="M191.715,307.396c0.313-2.897,2.678-4.153,5.254-2.79l29.301,15.511l27.572,14.596
	c2.577,1.364,3.977,4.757,3.111,7.541l-4.1,13.18c-0.578,1.857-2.084,3.129-3.838,3.478l2.282,0.816
	c1.837,0.974,2.837,3.394,2.218,5.378l-2.972,9.538c-0.397,1.275-1.429,2.217-2.635,2.544l3.817,1.365
	c1.268,0.671,1.957,2.342,1.531,3.712l-2.119,6.769c-0.427,1.371-1.98,2.375-3.332,1.89c0,0-4.746-1.706-16.617-5.971
	c-11.871-4.267-11.633-15.437-11.633-15.437c0.073-0.681,0.401-1.238,0.86-1.564c-15.864-6.5-15.632-21.586-15.632-21.586
	c0.152-1.414,1.014-2.343,2.131-2.478C188.967,332.89,191.715,307.396,191.715,307.396"/>
<path fill="#FFFFFF" d="M412.967,307.396c-0.313-2.897-2.678-4.153-5.254-2.79l-29.301,15.511l-27.572,14.596
	c-2.577,1.364-3.977,4.757-3.111,7.541l4.1,13.18c0.578,1.857-7.916,3.129-6.162,3.478l7.718,0.816
	c-1.839,0.974-2.837,3.394-2.22,5.378l2.974,9.538c0.397,1.275,1.429,2.217,2.635,2.544l-3.817,1.365
	c-1.268,0.671-1.957,2.342-1.531,3.712l2.119,6.769c0.426,1.371,1.98,2.375,3.33,1.89c0,0,4.748-1.706,16.619-5.971
	c11.871-4.267,11.633-15.437,11.633-15.437c-0.073-0.681-0.401-1.238-0.86-1.564c15.864-6.5,15.632-21.586,15.632-21.586
	c-0.152-1.414-1.014-2.343-2.131-2.478C415.715,332.89,412.967,307.396,412.967,307.396"/>
<polygon fill="#010101" points="200.844,336.695 249.033,365.914 199.146,339.695 "/>
<polygon fill="#010101" points="210.529,357.697 249.033,381.215 209.161,360.1 "/>
<path fill="#010101" d="M248.525,393.932c-0.581,0-1.151-0.099-1.694-0.294l-16.616-5.971c-10.936-3.929-13.64-13.631-13.541-18.212
	v-0.056c-14.828-7.65-14.783-22.418-14.773-23.077l0.018-0.265c0.069-0.651,0.23-1.262,0.471-1.819
	c-6.383-5.057-10.721-12.639-12.633-22.152c-1.625-8.09-0.939-14.72-0.908-14.999c0.375-3.484,2.879-5.916,6.086-5.916
	c1.134,0,2.272,0.298,3.384,0.886l56.874,30.106c3.814,2.02,5.797,6.828,4.516,10.947l-3.572,11.49
	c0.746,0.281,1.668,0.565,2.174,0.721c1.851,0.571,3.949,1.217,3.826,3.618c-0.055,1.069-0.758,2.444-2.558,2.802l-0.259,0.039
	l-2.95,0.313c0.306,1.267,0.295,2.608-0.097,3.87l-2.975,9.54c-0.055,0.177-0.117,0.349-0.186,0.52
	c2.455,1.323,3.729,4.433,2.9,7.098l-2.121,6.775C253.165,392.231,250.907,393.932,248.525,393.932 M222.459,370.038
	c0.125,1.913,1.17,9.131,9.706,12.198l16.224,5.83l2.115-6.664c0.004-0.051-0.043-0.179-0.099-0.258l-12.123-4.335l8.872-2.406
	c0.223-0.06,0.523-0.258,0.634-0.616l2.976-9.54c0.203-0.653-0.209-1.649-0.815-1.97l-8.354-4.424l8.608-0.91
	c-0.308-0.759-0.346-1.586-0.103-2.367l4.098-13.179c0.452-1.453-0.359-3.423-1.705-4.135l-56.874-30.107
	c-0.368-0.195-0.601-0.216-0.685-0.216c-0.264,0-0.348,0.734-0.35,0.766c-0.007,0.057-0.621,6.153,0.86,13.399
	c1.919,9.385,6.285,16.223,12.978,20.323l7.067,4.331l-7.813,0.942c0.072,2.011,1.056,13.344,13.836,18.58l4.84,1.983
	L222.459,370.038z"/>
<path fill="#010101" d="M356.156,393.932L356.156,393.932c-2.383,0-4.641-1.7-5.367-4.042l-2.118-6.763
	c-0.83-2.671,0.444-5.781,2.899-7.105c-0.07-0.17-0.131-0.344-0.188-0.521l-2.973-9.536c-0.393-1.262-0.403-2.605-0.096-3.872
	l-3.211-0.351c-1.8-0.358-2.503-1.733-2.558-2.802c-0.123-2.401,1.976-3.047,3.827-3.618c0.505-0.155,1.428-0.44,2.174-0.721
	l-3.573-11.49c-1.28-4.119,0.702-8.928,4.517-10.946l56.873-30.107c1.111-0.588,2.25-0.886,3.385-0.886
	c3.207,0,5.71,2.433,6.086,5.916c0.031,0.279,0.716,6.909-0.909,14.999c-1.911,9.513-6.249,17.095-12.632,22.152
	c0.24,0.557,0.4,1.168,0.471,1.819l0.018,0.265c0.01,0.659,0.054,15.428-14.774,23.077l0.001,0.056
	c0.098,4.581-2.605,14.283-13.541,18.212l-16.618,5.972C357.307,393.832,356.736,393.932,356.156,393.932 M354.27,381.146
	c-0.048,0.075-0.096,0.21-0.086,0.28l2.082,6.649l16.25-5.839c8.52-3.061,9.577-10.255,9.706-12.198l-3.892-2.773l4.84-1.983
	c12.724-5.213,13.753-16.612,13.834-18.58l-7.813-0.943l7.067-4.331c6.692-4.1,11.06-10.938,12.978-20.323
	c1.482-7.246,0.867-13.342,0.861-13.403c-0.003-0.028-0.086-0.762-0.35-0.762c-0.084,0-0.317,0.021-0.686,0.216l-56.873,30.107
	c-1.346,0.712-2.158,2.682-1.705,4.134l4.098,13.181c0.242,0.78,0.205,1.608-0.104,2.366l8.608,0.911l-8.354,4.423
	c-0.606,0.321-1.018,1.317-0.813,1.972l2.973,9.536c0.112,0.361,0.412,0.558,0.636,0.618l8.871,2.406L354.27,381.146z"/>
<polygon fill="#010101" points="405.534,339.696 355.648,365.913 403.838,336.696 "/>
<polygon fill="#010101" points="395.521,360.1 355.648,381.215 394.152,357.698 "/>
<path fill="#F26C7C" d="M370.176,384.942c-10.15-32.988-1.839-41.101-0.037-42.339h-67.365h-68.482
	c1.803,1.238,10.366,9.351,0.216,42.339c-14.918,48.481,55.285,74.916,67.834,79.934c0.136-0.055,0.282-0.112,0.433-0.172
	C316.41,459.278,384.93,432.896,370.176,384.942"/>
<g opacity="0.5">
	<g>
		<defs>
			<rect id="SVGID_1_" x="301.66" y="341.02" width="69.47" height="122.1"/>
		</defs>
		<clipPath id="SVGID_2_">
			<use xlink:href="#SVGID_1_"  overflow="visible"/>
		</clipPath>
		<path clip-path="url(#SVGID_2_)" fill="#DF2E54" d="M369.063,383.358c-10.15-32.988-1.839-41.101-0.037-42.339H301.66v122.102
			C315.297,457.694,383.816,431.313,369.063,383.358"/>
	</g>
</g>
<path fill="#F26C7C" d="M325.049,426.504h-46.261c-4.696,0-8.502-3.807-8.502-8.503v-38.097c0-4.696,3.806-8.503,8.502-8.503h46.261
	c4.696,0,8.504,3.807,8.504,8.503v38.097C333.553,422.697,329.745,426.504,325.049,426.504"/>
<path fill="#191818" d="M325.049,428.511h-46.26c-5.796,0-10.511-4.715-10.511-10.51v-38.097c0-5.795,4.715-10.51,10.511-10.51
	h46.26c5.795,0,10.511,4.715,10.511,10.51v38.097C335.56,423.796,330.844,428.511,325.049,428.511 M278.789,373.408
	c-3.582,0-6.496,2.914-6.496,6.496v38.097c0,3.582,2.914,6.496,6.496,6.496h46.26c3.582,0,6.496-2.914,6.496-6.496v-38.097
	c0-3.582-2.914-6.496-6.496-6.496H278.789z"/>
<path fill="#F26C7C" d="M333.553,372.378c0-4.696-3.808-8.503-8.504-8.503h-46.261c-4.695,0-8.502,3.807-8.502,8.503v7.125h63.267
	V372.378z"/>
<path fill="#FFFFFF" d="M270.286,380.005v30.472c0,4.695,3.807,8.502,8.502,8.502h46.261c4.696,0,8.503-3.807,8.503-8.502v-30.472
	H270.286z"/>
<path fill="#191818" d="M325.049,420.985h-46.26c-5.796,0-10.511-4.715-10.511-10.51v-38.097c0-5.795,4.715-10.51,10.511-10.51
	h46.26c5.795,0,10.511,4.715,10.511,10.51v38.097C335.56,416.271,330.844,420.985,325.049,420.985 M278.789,365.883
	c-3.582,0-6.496,2.914-6.496,6.496v38.097c0,3.582,2.914,6.496,6.496,6.496h46.26c3.582,0,6.496-2.914,6.496-6.496v-38.097
	c0-3.582-2.914-6.496-6.496-6.496H278.789z"/>
<path fill="#FFFFFF" d="M318.16,351.503c-2.749,0-4.977,2.229-4.977,4.978v10.429c0,2.749,2.228,4.977,4.977,4.977
	c2.748,0,4.977-2.228,4.977-4.977V356.48C323.137,353.731,320.908,351.503,318.16,351.503"/>
<path fill="#191818" d="M318.16,373.642c-3.713,0-6.732-3.02-6.732-6.733V356.48c0-3.713,3.02-6.733,6.732-6.733
	c3.711,0,6.731,3.02,6.731,6.733v10.429C324.892,370.622,321.871,373.642,318.16,373.642 M318.16,353.259
	c-1.775,0-3.222,1.445-3.222,3.222v10.429c0,1.776,1.446,3.221,3.222,3.221c1.774,0,3.221-1.445,3.221-3.221V356.48
	C321.381,354.704,319.935,353.259,318.16,353.259"/>
<path fill="#FFFFFF" d="M285.795,351.503c-2.749,0-4.977,2.229-4.977,4.978v10.429c0,2.749,2.228,4.977,4.977,4.977
	c2.748,0,4.977-2.228,4.977-4.977V356.48C290.771,353.731,288.543,351.503,285.795,351.503"/>
<path fill="#191818" d="M285.795,373.642c-3.713,0-6.732-3.02-6.732-6.733V356.48c0-3.713,3.02-6.733,6.732-6.733
	c3.711,0,6.731,3.02,6.731,6.733v10.429C292.526,370.622,289.506,373.642,285.795,373.642 M285.795,353.259
	c-1.775,0-3.222,1.445-3.222,3.222v10.429c0,1.776,1.446,3.221,3.222,3.221c1.774,0,3.221-1.445,3.221-3.221V356.48
	C289.016,354.704,287.569,353.259,285.795,353.259"/>
<rect x="277.188" y="384.041" fill="#F26C7C" width="7.525" height="7.525"/>
<rect x="287.473" y="384.041" fill="#F26C7C" width="7.525" height="7.525"/>
<rect x="297.758" y="384.041" fill="#F26C7C" width="7.525" height="7.525"/>
<rect x="308.043" y="384.041" fill="#F26C7C" width="7.525" height="7.525"/>
<rect x="318.328" y="384.041" fill="#F26C7C" width="7.525" height="7.525"/>
<rect x="277.188" y="394.325" fill="#F26C7C" width="7.525" height="7.524"/>
<rect x="287.473" y="394.325" fill="#F26C7C" width="7.525" height="7.524"/>
<rect x="297.758" y="394.325" fill="#F26C7C" width="7.525" height="7.524"/>
<rect x="308.043" y="394.325" fill="#F26C7C" width="7.525" height="7.524"/>
<rect x="318.328" y="394.325" fill="#F26C7C" width="7.525" height="7.524"/>
<rect x="277.188" y="404.61" fill="#F26C7C" width="7.525" height="7.524"/>
<rect x="287.473" y="404.61" fill="#F26C7C" width="7.525" height="7.524"/>
<rect x="297.758" y="404.61" fill="#F26C7C" width="7.525" height="7.524"/>
<rect x="308.043" y="404.61" fill="#F26C7C" width="7.525" height="7.524"/>
<rect x="318.328" y="404.61" fill="#F26C7C" width="7.525" height="7.524"/>
<g opacity="0.4">
	<g>
		<defs>
			<rect id="SVGID_3_" x="232.439" y="296.82" width="139.801" height="168.06"/>
		</defs>
		<clipPath id="SVGID_4_">
			<use xlink:href="#SVGID_3_"  overflow="visible"/>
		</clipPath>
		<path clip-path="url(#SVGID_4_)" fill="#FFFFFF" d="M302.341,310.886c8.377,4.036,25.288,10.075,54.196,12.173v14.625
			c-1.492,2.458-2.888,5.657-3.813,9.769c-2.388,10.613-0.952,24.591,4.265,41.546c2.329,7.569,1.856,14.601-1.445,21.5
			c-3.049,6.373-8.518,12.725-16.25,18.875c-12.736,10.132-28.211,17.049-36.952,20.637c-8.741-3.588-24.216-10.505-36.952-20.637
			c-7.732-6.15-13.2-12.502-16.251-18.875c-3.3-6.898-3.772-13.931-1.444-21.499c5.23-17.001,6.613-31.022,4.108-41.675
			c-0.962-4.098-2.39-7.283-3.908-9.729v-14.542C270.031,321.416,289.469,317.09,302.341,310.886 M302.341,296.824
			c-1.726,0-3.452,0.347-4.794,1.037c-9.943,5.12-29.272,10.588-57.984,11.864c-3.018,0.134-5.466,2.57-5.466,5.589v27.161
			c0,0,11.264,7.193,0.409,42.466c-14.916,48.482,55.285,74.915,67.835,79.934c12.549-5.019,82.751-31.451,67.834-79.934
			c-10.853-35.272,0.159-42.466,0.159-42.466v-27.161c0-3.019-2.449-5.455-5.465-5.589c-28.713-1.276-47.791-6.744-57.733-11.864
			C305.793,297.171,304.067,296.824,302.341,296.824"/>
	</g>
</g>
<path fill="#191818" d="M302.341,305.19c0.526,0,0.894,0.091,1.006,0.13c13.142,6.754,34.396,11.326,58.621,12.638v21.353
	c-1.468,2.076-2.99,5.087-3.945,9.333c-2.178,9.679-0.778,22.718,4.156,38.758c5.108,16.6-1.272,31.719-19.505,46.221
	c-14.387,11.444-31.92,18.869-40.333,22.248c-8.412-3.379-25.946-10.804-40.333-22.248c-18.232-14.502-24.612-29.621-19.506-46.221
	c4.943-16.066,6.295-29.133,4.014-38.836c-0.997-4.241-2.555-7.243-4.053-9.313v-21.295c24.393-1.318,45.742-5.89,58.871-12.638
	C301.447,305.281,301.813,305.19,302.341,305.19 M302.341,296.824c-1.726,0-3.452,0.346-4.794,1.037
	c-9.943,5.12-29.272,10.588-57.984,11.864c-3.018,0.134-5.466,2.57-5.466,5.589v27.161c0,0,11.264,7.193,0.409,42.466
	c-14.916,48.482,55.285,74.915,67.835,79.934c12.549-5.019,82.751-31.451,67.834-79.934c-10.853-35.272,0.159-42.466,0.159-42.466
	v-27.161c0-3.019-2.449-5.455-5.465-5.589c-28.713-1.276-47.791-6.744-57.733-11.864
	C305.793,297.17,304.067,296.824,302.341,296.824"/>
<path fill="#191818" d="M370.334,315.315c0-3.02-2.449-5.456-5.465-5.59c-28.713-1.275-47.791-6.743-57.733-11.864
	c-2.685-1.382-6.905-1.382-9.59,0c-9.942,5.121-29.271,10.589-57.983,11.864c-3.017,0.134-5.466,2.57-5.466,5.59v27.16
	c0,0,0.069,0.042,0.194,0.128H370.14c0.125-0.086,0.194-0.128,0.194-0.128V315.315z"/>
<polygon fill="#FFFFFF" points="278.799,333.771 284.819,317.243 276.51,317.243 276.51,313.691 289.395,313.691 289.395,316.491 
	283.163,333.771 "/>
<path fill="#FFFFFF" d="M288.941,331.783c0-1.264,1.084-2.348,2.35-2.348c1.264,0,2.316,1.084,2.316,2.348
	c0,1.266-1.053,2.318-2.316,2.318C290.025,334.102,288.941,333.049,288.941,331.783"/>
<path fill="#FFFFFF" d="M296.227,330.971l2.438-2.589c1.054,1.385,2.468,2.168,4.185,2.168c1.928,0,3.04-1.475,3.04-3.162
	c0-1.986-1.054-3.161-2.858-3.161c-1.356,0-2.379,0.482-3.313,1.656l-2.921-0.783v-11.409h12.042v3.551h-8.008v5.149
	c0.783-0.963,2.138-1.656,3.673-1.656c3.041,0,5.479,2.379,5.479,6.533c0,4.034-2.74,6.864-7.015,6.864
	C299.869,334.132,297.732,332.988,296.227,330.971"/>
<polygon fill="#FFFFFF" points="322.807,333.771 318.171,325.914 316.756,328.141 316.756,333.771 312.722,333.771 312.722,313.691 
	316.756,313.691 316.756,322.813 322.416,313.691 327.113,313.691 320.699,323.144 327.564,333.771 "/>
<polygon fill="#FFFFFF" points="273.287,321.988 265.828,320.857 262.508,313.76 259.188,320.857 251.729,321.988 257.118,327.522 
	255.771,335.317 262.508,331.637 269.244,335.317 267.897,327.522 "/>
<polygon fill="#FFFFFF" points="352.953,321.988 345.495,320.857 342.174,313.76 338.854,320.857 331.395,321.988 336.785,327.522 
	335.438,335.317 342.174,331.637 348.91,335.317 347.564,327.522 "/>
<path fill="#010101" d="M394.982,385.938c0.146,1.75-0.152,3.623,0.186,5.468c0.328,0.774,0.592,1.554,0.873,2.349
	c0.82,2.085,1.734,3.99,3.31,4.866c1.285-2.557,2.464-5.286,2.744-8.497c-0.084-2.099-0.509-4.062-1.249-5.928
	c-1.15-2.94-3.063-5.579-5.613-7.851c-0.082-0.079-0.144-0.11-0.186-0.17l-0.415-0.012c0.093,0.272,0.165,0.577,0.247,0.886
	C395.556,379.935,395.262,382.727,394.982,385.938"/>
<path fill="#010101" d="M395.18,403.718c-1.816-3.577-5.513-6.851-6.379-10.245l-0.531-0.223c-1.338,3.336-1.193,7.326-0.17,10.951
	c1.109,4.703,3.424,8.368,4.508,12.993c0.194,0.891,0.354,1.775,0.459,2.742c6.957-5.049,13.369-10.808,15.183-19.897l-12.194,6.13
	C395.893,405.321,395.563,404.482,395.18,403.718"/>
<path fill="#010101" d="M375.578,444.875c-0.916-0.017-1.783-0.026-2.639,0.015c3.211-4.571,2.29-10.163,4.059-15.119l-0.018-0.219
	c-5.329,2.008-8.124,6.701-10.73,11.657c-1.863,3.592-3.684,7.273-6.34,9.994c1.109,0.08,2.153,0.229,3.234,0.388
	c1.122,0.163,2.275,0.386,3.436,0.692c2.305,0.135,4.58,0.237,6.731,0.166c4.034-0.171,7.795-0.854,11.037-2.605
	c1.501-0.798,2.901-1.85,4.131-3.161c-0.949-0.154-1.992-0.342-3.028-0.524C382.187,445.604,378.752,445.033,375.578,444.875"/>
<path fill="#010101" d="M388.577,429.302c-1.494-5.036-4.274-10.122-3.864-15.641l-0.143-0.219l-0.375,0.165
	c-0.043,0.035-0.096,0.107-0.1,0.144c-0.293,0.5-0.602,0.786-1.137,1.3c-3.805,6.707-3.23,14.78-1.275,21.92
	c0.32,1.177,0.653,2.295,1.063,3.426c3.423-2.676,7.645-3.359,11.443-5.307c0.342-0.207,0.676-0.369,1.029-0.582
	c3.659-2.641,5.885-7.007,6.842-11.183c-2.373,0.757-4.701,1.368-6.877,2.187C392.838,426.357,390.576,427.499,388.577,429.302"/>
<path fill="#010101" d="M209.777,386.067c-0.24,1.74-0.044,3.626-0.482,5.45c-0.368,0.755-0.674,1.521-0.996,2.299
	c-0.932,2.037-1.947,3.891-3.568,4.681c-1.145-2.622-2.175-5.41-2.281-8.632c0.197-2.091,0.727-4.029,1.566-5.853
	c1.307-2.873,3.357-5.406,6.027-7.536c0.086-0.075,0.149-0.103,0.195-0.16l0.414,0.011c-0.107,0.266-0.195,0.566-0.294,0.871
	C209.527,380.043,209.67,382.847,209.777,386.067"/>
<path fill="#010101" d="M209.502,403.718c1.816-3.577,5.512-6.851,6.379-10.245l0.531-0.223c1.338,3.336,1.193,7.326,0.17,10.951
	c-1.109,4.703-3.424,8.368-4.508,12.993c-0.194,0.891-0.354,1.775-0.459,2.742c-6.957-5.049-13.369-10.808-15.183-19.897
	l12.194,6.13C208.789,405.321,209.119,404.482,209.502,403.718"/>
<path fill="#010101" d="M229.104,444.875c0.915-0.017,1.782-0.026,2.638,0.015c-3.211-4.571-2.29-10.163-4.059-15.119l0.018-0.219
	c5.329,2.008,8.124,6.701,10.73,11.657c1.861,3.592,3.684,7.273,6.34,9.994c-1.109,0.08-2.153,0.229-3.234,0.388
	c-1.122,0.163-2.275,0.386-3.436,0.692c-2.305,0.135-4.58,0.237-6.731,0.166c-4.034-0.171-7.795-0.854-11.037-2.605
	c-1.501-0.798-2.901-1.85-4.131-3.161c0.949-0.154,1.992-0.342,3.028-0.524C222.495,445.604,225.93,445.033,229.104,444.875"/>
<path fill="#010101" d="M216.104,429.302c1.495-5.036,4.274-10.122,3.864-15.641l0.143-0.219l0.374,0.165
	c0.045,0.035,0.097,0.107,0.101,0.144c0.293,0.5,0.602,0.786,1.137,1.3c3.805,6.707,3.229,14.78,1.275,21.92
	c-0.32,1.177-0.654,2.295-1.063,3.426c-3.424-2.676-7.645-3.359-11.442-5.307c-0.342-0.207-0.677-0.369-1.03-0.582
	c-3.66-2.641-5.886-7.007-6.841-11.183c2.373,0.757,4.7,1.368,6.876,2.187C211.844,426.357,214.106,427.499,216.104,429.302"/>
<polygon fill="#FFFFFF" points="355.332,473.988 303.039,488.172 250.746,472.483 250.746,444.963 303.039,460.65 355.332,444.963 
	"/>
<path fill="#010101" d="M303.038,489.096l-54.551-13.335v-33.674l54.551,13.334l54.552-13.334v33.674L303.038,489.096z
	 M253.004,472.216l50.034,12.231l50.036-12.231v-24.377l-50.036,12.23l-50.034-12.23V472.216z"/>
<polygon fill="#010101" points="331.819,451.15 357.656,442.172 344.582,432.391 323.568,450.402 "/>
<polygon fill="#010101" points="274.217,451.15 248.38,442.172 261.453,432.391 282.467,450.402 "/>
<polygon fill="#010101" points="274.889,461.576 272.299,456.039 269.709,461.576 263.891,462.459 268.095,466.775 267.044,472.856 
	272.299,469.984 277.554,472.856 276.503,466.775 280.707,462.459 "/>
<polygon fill="#010101" points="305.576,467.653 302.717,461.543 299.858,467.653 293.437,468.627 298.076,473.392 296.916,480.103 
	302.717,476.934 308.517,480.103 307.356,473.392 311.996,468.627 "/>
<polygon fill="#010101" points="335.913,461.576 333.322,456.039 330.732,461.576 324.915,462.459 329.119,466.775 328.068,472.856 
	333.322,469.984 338.578,472.856 337.527,466.775 341.73,462.459 "/>
</svg>
