<?xml version="1.0" encoding="utf-8"?>
<!-- Generator: Adobe Illustrator 16.0.0, SVG Export Plug-In . SVG Version: 6.00 Build 0)  -->
<!DOCTYPE svg PUBLIC "-//W3C//DTD SVG 1.1//EN" "http://www.w3.org/Graphics/SVG/1.1/DTD/svg11.dtd">
<svg version="1.1" id="Layer_1" xmlns="http://www.w3.org/2000/svg" xmlns:xlink="http://www.w3.org/1999/xlink" x="0px" y="0px"
	 width="240px" height="195px" viewBox="0 0 240 195" enable-background="new 0 0 240 195" xml:space="preserve">
<path fill="none" d="M78.63-2257.76"/>
<path fill="none" d="M78.63,987.837"/>
<path fill="none" d="M51.764,1616.837"/>
<path fill="none" d="M51.764-1628.76"/>
<line fill="#929497" x1="1530.52" y1="-66.557" x2="1530.52" y2="-65.807"/>
<line fill="#929497" x1="-611.484" y1="-65.807" x2="-611.484" y2="-66.557"/>
<path fill="#F26D7C" d="M187.596,92.942c-10.15-32.988-1.838-41.102-0.035-42.34h-67.367H51.712
	c1.803,1.238,10.366,9.352,0.216,42.34c-14.918,48.48,55.284,74.916,67.834,79.934c0.136-0.055,0.282-0.112,0.432-0.172
	C133.831,167.278,202.352,140.896,187.596,92.942"/>
<g opacity="0.5">
	<g>
		<g>
			<defs>
				<rect id="SVGID_1_" x="120.19" y="50.6" width="69.48" height="122.101"/>
			</defs>
			<clipPath id="SVGID_2_">
				<use xlink:href="#SVGID_1_"  overflow="visible"/>
			</clipPath>
			<path clip-path="url(#SVGID_2_)" fill="#DF2F55" d="M187.596,92.942c-10.15-32.988-1.838-41.102-0.035-42.34h-67.367v122.102
				C133.831,167.278,202.352,140.896,187.596,92.942"/>
		</g>
	</g>
</g>
<g opacity="0.4">
	<g>
		<g>
			<defs>
				<rect id="SVGID_3_" x="49.86" y="4.82" width="139.81" height="168.06"/>
			</defs>
			<clipPath id="SVGID_4_">
				<use xlink:href="#SVGID_3_"  overflow="visible"/>
			</clipPath>
			<path clip-path="url(#SVGID_4_)" fill="#FFFFFF" d="M119.762,18.886c8.376,4.036,25.287,10.075,54.197,12.173v14.625
				c-1.492,2.458-2.889,5.657-3.814,9.77c-2.387,10.613-0.951,24.591,4.267,41.547c2.327,7.568,1.854,14.6-1.445,21.499
				c-3.051,6.373-8.519,12.725-16.251,18.875c-12.736,10.132-28.211,17.049-36.952,20.637c-8.741-3.588-24.216-10.505-36.952-20.637
				c-7.733-6.15-13.201-12.502-16.251-18.875c-3.301-6.898-3.773-13.931-1.445-21.499c5.231-17.001,6.614-31.022,4.109-41.675
				c-0.963-4.099-2.39-7.283-3.909-9.729V31.054C87.453,29.416,106.89,25.09,119.762,18.886 M119.762,4.824
				c-1.726,0-3.453,0.347-4.795,1.037c-9.942,5.12-29.271,10.588-57.984,11.864c-3.016,0.135-5.465,2.57-5.465,5.59v27.16
				c0,0,11.263,7.193,0.41,42.467c-14.918,48.481,55.285,74.915,67.834,79.934c12.549-5.019,82.752-31.451,67.834-79.934
				c-10.854-35.272,0.159-42.467,0.159-42.467v-27.16c0-3.02-2.448-5.455-5.466-5.59c-28.711-1.275-47.791-6.744-57.732-11.864
				C123.215,5.171,121.486,4.824,119.762,4.824"/>
		</g>
	</g>
</g>
<path fill="#191818" d="M187.755,23.315c0-3.021-2.448-5.456-5.465-5.591c-28.714-1.274-47.791-6.743-57.733-11.864
	c-2.685-1.382-6.906-1.382-9.59,0c-9.942,5.121-29.272,10.589-57.984,11.864c-3.016,0.135-5.465,2.57-5.465,5.591v27.159
	c0,0,0.069,0.042,0.194,0.128h135.849c0.125-0.086,0.194-0.128,0.194-0.128V23.315z"/>
<path fill="#191818" d="M119.762,13.19c0.527,0,0.894,0.091,1.006,0.13c13.143,6.754,34.396,11.327,58.621,12.638v21.353
	c-1.468,2.076-2.99,5.088-3.945,9.333c-2.178,9.68-0.778,22.719,4.156,38.759c5.107,16.6-1.272,31.719-19.504,46.221
	c-14.389,11.444-31.922,18.869-40.333,22.248c-8.412-3.379-25.946-10.804-40.333-22.248c-18.232-14.502-24.613-29.621-19.505-46.221
	c4.943-16.066,6.294-29.134,4.013-38.836c-0.997-4.241-2.555-7.243-4.053-9.313V25.958c24.393-1.318,45.743-5.89,58.872-12.638
	C118.868,13.281,119.234,13.19,119.762,13.19 M119.762,4.824c-1.726,0-3.453,0.346-4.795,1.037
	c-9.942,5.12-29.271,10.588-57.984,11.864c-3.016,0.135-5.465,2.57-5.465,5.59v27.16c0,0,11.263,7.193,0.41,42.467
	c-14.918,48.481,55.285,74.915,67.834,79.934c12.549-5.019,82.752-31.451,67.834-79.934c-10.854-35.272,0.159-42.467,0.159-42.467
	v-27.16c0-3.02-2.448-5.455-5.466-5.59c-28.711-1.275-47.791-6.744-57.732-11.864C123.215,5.17,121.486,4.824,119.762,4.824"/>
<polygon fill="#FFFFFF" points="102.87,41.771 102.87,26.899 99.829,30.06 97.511,27.622 103.412,21.691 106.935,21.691 
	106.935,41.771 "/>
<path fill="#FFFFFF" d="M109.673,31.745c0-5.178,2.137-10.355,7.105-10.355c4.998,0,7.105,5.179,7.105,10.355
	c0,5.147-2.076,10.388-7.105,10.388C111.81,42.133,109.673,36.894,109.673,31.745 M119.788,31.745c0-3.883-0.662-6.772-3.01-6.772
	c-2.319,0-2.981,2.891-2.981,6.772c0,3.854,0.662,6.805,2.981,6.805C119.126,38.55,119.788,35.6,119.788,31.745"/>
<path fill="#FFFFFF" d="M125.836,31.745c0-5.178,2.139-10.355,7.105-10.355c4.998,0,7.104,5.179,7.104,10.355
	c0,5.147-2.078,10.388-7.104,10.388C127.975,42.133,125.836,36.894,125.836,31.745 M135.952,31.745c0-3.883-0.663-6.772-3.011-6.772
	c-2.318,0-2.98,2.891-2.98,6.772c0,3.854,0.662,6.805,2.98,6.805C135.289,38.55,135.952,35.6,135.952,31.745"/>
<path fill="#FFFFFF" d="M137.742,109.436l-11.01-11.009l11.01-11.009c5.398-5.4,7.74-12.699,7.027-19.747H96.167
	c-0.714,7.048,1.628,14.347,7.028,19.747l11.009,11.009l-11.009,11.009c-3.356,3.357-5.532,7.449-6.525,11.759
	c-0.604,2.621-0.772,5.322-0.502,7.988h48.604c0.519-5.126-0.582-10.383-3.295-14.947
	C140.459,112.523,139.215,110.909,137.742,109.436"/>
<path fill="#F26D7C" d="M93.387,132.701h54.164c0.578-5.711-0.646-11.571-3.671-16.657l-6.306-7.107
	c-8.051,0-8.584,7.598-24.149,8.051c-9.589,0.278-16.099,5.968-16.099,5.968l-3.378,0.845
	C93.273,126.72,93.086,129.73,93.387,132.701"/>
<path fill="#F26D7C" d="M103.118,83.107c0,0,6.282-4.429,18.356-2.415c12.073,2.012,16.1,0,18.112,0l-6.196,6.768l-12.923,12.212
	L103.118,83.107z"/>
<path fill="#FFFFFF" d="M141.881,70.681c-0.133,5.473-2.344,10.685-6.268,14.609l-11.01,11.009l-2.129,2.128l2.129,2.129
	l11.01,11.01c1.264,1.264,2.365,2.681,3.275,4.209c1.86,3.131,2.891,6.744,2.985,10.398H99.058c0.036-1.446,0.218-2.885,0.545-4.302
	c0.899-3.899,2.877-7.463,5.721-10.307l11.009-11.01l2.128-2.129l-2.128-2.128l-11.009-11.009
	c-3.925-3.925-6.136-9.137-6.267-14.609L141.881,70.681 M144.771,67.671H96.168c-0.714,7.048,1.628,14.347,7.028,19.747
	l11.009,11.009l-11.009,11.009c-3.357,3.358-5.532,7.449-6.525,11.759c-0.605,2.622-0.773,5.322-0.503,7.988h48.604
	c0.519-5.125-0.58-10.383-3.295-14.947c-1.018-1.711-2.262-3.326-3.734-4.8l-11.01-11.009l11.01-11.009
	C143.143,82.018,145.482,74.719,144.771,67.671"/>
<path fill="#191818" d="M144.771,67.671c0.713,7.048-1.629,14.348-7.028,19.747l-11.011,11.009l11.011,11.009
	c1.473,1.473,2.716,3.089,3.733,4.8c2.713,4.563,3.813,9.82,3.295,14.947H96.167c-0.271-2.666-0.102-5.367,0.503-7.988
	c0.994-4.311,3.168-8.401,6.526-11.759l11.009-11.009l-11.009-11.009c-5.4-5.399-7.742-12.699-7.029-19.747H144.771 M148.025,64.069
	h-3.256H96.166h-3.255l-0.328,3.238c-0.853,8.421,2.087,16.679,8.064,22.657l8.462,8.462l-8.462,8.461
	c-3.721,3.723-6.31,8.39-7.488,13.496c-0.694,3.006-0.888,6.09-0.577,9.161l0.328,3.238h3.255h48.604h3.254l0.328-3.238
	c0.604-5.946-0.74-12.038-3.781-17.15c-1.19-2.002-2.633-3.854-4.283-5.507l-8.462-8.461l8.463-8.463
	c5.978-5.978,8.917-14.233,8.063-22.656L148.025,64.069z"/>
<path fill="#F26D7C" d="M122.146,102.88c0,0.926-0.752,1.677-1.678,1.677c-0.925,0-1.676-0.751-1.676-1.677s0.751-1.676,1.676-1.676
	C121.395,101.204,122.146,101.954,122.146,102.88"/>
<path fill="#F26D7C" d="M122.146,108.356c0,0.926-0.752,1.676-1.678,1.676c-0.925,0-1.676-0.75-1.676-1.676
	c0-0.927,0.751-1.678,1.676-1.678C121.395,106.68,122.146,107.431,122.146,108.356"/>
<path fill="#191818" d="M150.999,67.722H89.938c-1.385,0-2.508-1.123-2.508-2.508c0-1.386,1.123-2.509,2.508-2.509h61.061
	c1.385,0,2.508,1.123,2.508,2.509C153.507,66.599,152.384,67.722,150.999,67.722"/>
<path fill="#191818" d="M150.999,133.95H89.938c-1.385,0-2.508-1.123-2.508-2.508c0-1.387,1.123-2.51,2.508-2.51h61.061
	c1.385,0,2.508,1.123,2.508,2.51C153.507,132.827,152.384,133.95,150.999,133.95"/>
<polygon fill="#FFFFFF" points="88.868,31.578 77.128,34.287 66.292,31.578 66.292,25.256 77.128,27.966 88.868,25.256 "/>
<polygon fill="#FFFFFF" points="88.868,40.608 77.128,43.318 66.292,40.608 66.292,34.287 77.128,36.997 88.868,34.287 "/>
<polygon fill="#FFFFFF" points="173.232,31.578 161.492,34.287 150.656,31.578 150.656,25.256 161.492,27.966 173.232,25.256 "/>
<polygon fill="#FFFFFF" points="173.232,40.608 161.492,43.318 150.656,40.608 150.656,34.287 161.492,36.997 173.232,34.287 "/>
<path fill="#FFFFFF" d="M119.947,177.469c-3.51-1.402-11.533-4.483-20.94-9.254v14.698c11.415,7.015,20.567,11.113,20.567,11.113
	l0.399-0.001l0.399,0.001c0,0,9.153-4.1,20.567-11.113v-14.727c-9.063,4.598-16.849,7.633-20.562,9.109
	C120.229,177.356,120.083,177.415,119.947,177.469"/>
<path fill="#FFFFFF" d="M66.677,157.546c8.119,9.569,19.146,17.858,29.014,24.17v-15.223c-9.689-5.162-20.402-12.018-29.014-20.576
	V157.546z"/>
<path fill="#FFFFFF" d="M144.256,181.717c9.869-6.313,20.896-14.602,29.016-24.17V145.86c-8.607,8.569-19.317,15.433-29.016,20.603
	V181.717L144.256,181.717z"/>
</svg>
