<?xml version="1.0" encoding="utf-8"?>
<!-- Generator: Adobe Illustrator 16.0.0, SVG Export Plug-In . SVG Version: 6.00 Build 0)  -->
<!DOCTYPE svg PUBLIC "-//W3C//DTD SVG 1.1//EN" "http://www.w3.org/Graphics/SVG/1.1/DTD/svg11.dtd">
<svg version="1.1" id="Layer_1" xmlns="http://www.w3.org/2000/svg" xmlns:xlink="http://www.w3.org/1999/xlink" x="0px" y="0px"
	 width="240px" height="195px" viewBox="0 0 240 195" enable-background="new 0 0 240 195" xml:space="preserve">
<path fill="none" d="M78.63-2257.76"/>
<path fill="none" d="M78.63,987.837"/>
<path fill="none" d="M51.764,1616.837"/>
<path fill="none" d="M51.764-1628.76"/>
<line fill="#929497" x1="1530.52" y1="-66.557" x2="1530.52" y2="-65.807"/>
<line fill="#929497" x1="-611.484" y1="-65.807" x2="-611.484" y2="-66.557"/>
<path fill="#F26D7C" d="M187.882,103.942c-10.149-32.988-1.838-41.102-0.034-42.34H120.48H51.998
	c1.803,1.238,10.366,9.352,0.216,42.34c-14.918,48.48,55.285,74.916,67.834,79.934c0.136-0.055,0.282-0.112,0.432-0.172
	C134.117,178.278,202.637,151.896,187.882,103.942"/>
<g opacity="0.5">
	<g>
		<g>
			<defs>
				<rect id="SVGID_1_" x="120.48" y="61.6" width="69.47" height="122.101"/>
			</defs>
			<clipPath id="SVGID_2_">
				<use xlink:href="#SVGID_1_"  overflow="visible"/>
			</clipPath>
			<path clip-path="url(#SVGID_2_)" fill="#DF2F55" d="M187.882,103.942c-10.149-32.988-1.838-41.102-0.034-42.34H120.48v122.102
				C134.117,178.278,202.637,151.896,187.882,103.942"/>
		</g>
	</g>
</g>
<g opacity="0.4">
	<g>
		<g>
			<defs>
				<rect id="SVGID_3_" x="50.14" y="15.82" width="139.811" height="168.06"/>
			</defs>
			<clipPath id="SVGID_4_">
				<use xlink:href="#SVGID_3_"  overflow="visible"/>
			</clipPath>
			<path clip-path="url(#SVGID_4_)" fill="#FFFFFF" d="M120.048,29.886c8.377,4.036,25.288,10.075,54.196,12.173v14.625
				c-1.491,2.458-2.889,5.657-3.813,9.77c-2.389,10.613-0.953,24.591,4.264,41.547c2.328,7.567,1.855,14.6-1.444,21.498
				c-3.05,6.373-8.519,12.725-16.251,18.875c-12.736,10.132-28.21,17.049-36.952,20.637c-8.741-3.588-24.216-10.505-36.952-20.637
				c-7.733-6.151-13.201-12.502-16.251-18.875C63.544,122.6,63.072,115.567,65.4,108c5.231-17.001,6.614-31.022,4.109-41.676
				c-0.963-4.099-2.39-7.283-3.908-9.729V42.053C87.739,40.416,107.176,36.09,120.048,29.886 M120.048,15.824
				c-1.726,0-3.452,0.347-4.795,1.037c-9.942,5.12-29.271,10.588-57.984,11.863c-3.016,0.135-5.465,2.57-5.465,5.59v27.16
				c0,0,11.263,7.193,0.41,42.467c-14.917,48.481,55.285,74.915,67.834,79.934c12.55-5.019,82.752-31.451,67.834-79.934
				c-10.853-35.272,0.159-42.467,0.159-42.467v-27.16c0-3.02-2.449-5.455-5.465-5.59c-28.713-1.275-47.791-6.743-57.733-11.863
				C123.501,16.171,121.773,15.824,120.048,15.824"/>
		</g>
	</g>
</g>
<path fill="#191818" d="M188.041,34.315c0-3.021-2.448-5.456-5.465-5.591c-28.713-1.274-47.791-6.742-57.733-11.863
	c-2.685-1.383-6.906-1.383-9.59,0c-9.942,5.121-29.271,10.589-57.984,11.863c-3.016,0.135-5.465,2.57-5.465,5.591v27.159
	c0,0,0.07,0.042,0.194,0.128h135.85c0.125-0.086,0.193-0.128,0.193-0.128V34.315z"/>
<path fill="#191818" d="M120.048,24.19c0.527,0,0.894,0.091,1.007,0.13c13.141,6.754,34.396,11.326,58.62,12.638v21.353
	c-1.468,2.076-2.989,5.088-3.944,9.333c-2.179,9.68-0.778,22.719,4.156,38.759c5.107,16.6-1.272,31.719-19.506,46.221
	c-14.387,11.444-31.921,18.869-40.333,22.248c-8.412-3.379-25.946-10.804-40.333-22.248c-18.232-14.502-24.612-29.621-19.505-46.221
	c4.944-16.066,6.294-29.134,4.013-38.836c-0.997-4.241-2.555-7.243-4.053-9.313V36.958c24.393-1.318,45.743-5.89,58.872-12.638
	C119.154,24.281,119.521,24.19,120.048,24.19 M120.048,15.824c-1.726,0-3.452,0.346-4.795,1.037
	c-9.942,5.12-29.271,10.588-57.984,11.863c-3.016,0.135-5.465,2.57-5.465,5.59v27.16c0,0,11.263,7.193,0.41,42.467
	c-14.917,48.481,55.285,74.915,67.834,79.934c12.55-5.019,82.752-31.451,67.834-79.934c-10.853-35.272,0.159-42.467,0.159-42.467
	v-27.16c0-3.02-2.449-5.455-5.465-5.59c-28.713-1.275-47.791-6.743-57.733-11.863C123.501,16.17,121.773,15.824,120.048,15.824"/>
<polygon fill="#FFFFFF" points="111.239,52.771 111.239,37.899 108.198,41.06 105.881,38.622 111.781,32.691 115.303,32.691 
	115.303,52.771 "/>
<path fill="#FFFFFF" d="M118.041,42.745c0-5.178,2.138-10.355,7.104-10.355c4.998,0,7.105,5.179,7.105,10.355
	c0,5.147-2.077,10.388-7.105,10.388C120.179,53.133,118.041,47.894,118.041,42.745 M128.157,42.745c0-3.883-0.663-6.772-3.013-6.772
	c-2.316,0-2.979,2.891-2.979,6.772c0,3.854,0.662,6.805,2.979,6.805C127.494,49.55,128.157,46.6,128.157,42.745"/>
<path fill="#FFFFFF" d="M138.027,120.436l-11.008-11.009l11.008-11.009c5.399-5.4,7.742-12.699,7.029-19.747H96.452
	c-0.713,7.048,1.629,14.347,7.029,19.747l11.009,11.009l-11.009,11.009c-3.357,3.357-5.532,7.449-6.526,11.759
	c-0.604,2.621-0.772,5.322-0.503,7.988h48.604c0.519-5.126-0.58-10.383-3.295-14.947
	C140.745,123.523,139.501,121.909,138.027,120.436"/>
<path fill="#F26D7C" d="M93.673,143.701h54.164c0.578-5.711-0.647-11.571-3.671-16.657l-6.305-7.107
	c-8.051,0-8.584,7.598-24.15,8.051c-9.589,0.278-16.1,5.968-16.1,5.968l-3.377,0.845C93.56,137.72,93.372,140.73,93.673,143.701"/>
<path fill="#F26D7C" d="M103.405,94.107c0,0,6.282-4.429,18.356-2.415c12.075,2.012,16.101,0,18.113,0l-6.197,6.768l-12.922,12.212
	L103.405,94.107z"/>
<path fill="#FFFFFF" d="M142.166,81.681c-0.132,5.473-2.343,10.685-6.268,14.609l-11.008,11.009l-2.129,2.128l2.129,2.129
	l11.008,11.01c1.266,1.264,2.367,2.681,3.275,4.209c1.862,3.131,2.891,6.744,2.987,10.398H99.344
	c0.036-1.446,0.218-2.885,0.545-4.302c0.899-3.899,2.877-7.463,5.721-10.307l11.009-11.01l2.128-2.129l-2.128-2.128L105.61,96.29
	c-3.925-3.925-6.135-9.137-6.267-14.609H142.166 M145.057,78.671H96.454c-0.714,7.048,1.628,14.347,7.028,19.747l11.009,11.009
	l-11.009,11.009c-3.357,3.358-5.531,7.449-6.525,11.759c-0.605,2.622-0.773,5.322-0.503,7.988h48.603
	c0.52-5.125-0.58-10.383-3.293-14.947c-1.02-1.711-2.264-3.326-3.736-4.8l-11.008-11.009l11.008-11.009
	C143.428,93.018,145.77,85.719,145.057,78.671"/>
<path fill="#191818" d="M145.057,78.671c0.713,7.048-1.629,14.348-7.029,19.747l-11.008,11.01l11.008,11.01
	c1.475,1.472,2.718,3.088,3.734,4.799c2.715,4.563,3.813,9.82,3.295,14.947H96.453c-0.27-2.666-0.102-5.367,0.503-7.988
	c0.994-4.311,3.169-8.401,6.526-11.758l11.009-11.01l-11.009-11.01c-5.4-5.399-7.742-12.699-7.029-19.747H145.057 M148.313,75.069
	h-3.256H96.453h-3.255l-0.328,3.238c-0.853,8.421,2.088,16.679,8.064,22.657l8.463,8.462l-8.463,8.461
	c-3.721,3.723-6.31,8.39-7.488,13.496c-0.694,3.008-0.888,6.09-0.577,9.161l0.328,3.238h3.255h48.604h3.256l0.326-3.238
	c0.604-5.946-0.74-12.038-3.781-17.15c-1.19-2.003-2.633-3.854-4.283-5.507l-8.461-8.461l8.462-8.464
	c5.977-5.978,8.917-14.233,8.063-22.656L148.313,75.069z"/>
<path fill="#F26D7C" d="M122.432,113.88c0,0.926-0.75,1.677-1.676,1.677s-1.677-0.751-1.677-1.677s0.751-1.676,1.677-1.676
	S122.432,112.954,122.432,113.88"/>
<path fill="#F26D7C" d="M122.432,119.356c0,0.926-0.75,1.676-1.676,1.676s-1.677-0.75-1.677-1.676c0-0.927,0.751-1.678,1.677-1.678
	S122.432,118.431,122.432,119.356"/>
<path fill="#191818" d="M151.285,78.722H90.224c-1.385,0-2.508-1.123-2.508-2.508c0-1.386,1.123-2.509,2.508-2.509h61.061
	c1.385,0,2.508,1.123,2.508,2.509C153.793,77.599,152.67,78.722,151.285,78.722"/>
<path fill="#191818" d="M151.285,144.95H90.224c-1.385,0-2.508-1.123-2.508-2.508c0-1.387,1.123-2.51,2.508-2.51h61.061
	c1.385,0,2.508,1.123,2.508,2.51C153.793,143.827,152.67,144.95,151.285,144.95"/>
<polygon fill="#F26D7C" points="89.154,42.578 77.414,45.287 66.578,42.578 66.578,36.256 77.414,38.966 89.154,36.256 "/>
<polygon fill="#F26D7C" points="89.154,51.608 77.414,54.318 66.578,51.608 66.578,45.287 77.414,47.997 89.154,45.287 "/>
<polygon fill="#676868" points="173.52,42.578 161.777,45.287 150.941,42.578 150.941,36.256 161.777,38.966 173.52,36.256 "/>
<polygon fill="#676868" points="173.52,51.608 161.777,54.318 150.941,51.608 150.941,45.287 161.777,47.997 173.52,45.287 "/>
</svg>
