<?xml version="1.0" encoding="utf-8"?>
<!-- Generator: Adobe Illustrator 16.0.0, SVG Export Plug-In . SVG Version: 6.00 Build 0)  -->
<!DOCTYPE svg PUBLIC "-//W3C//DTD SVG 1.1//EN" "http://www.w3.org/Graphics/SVG/1.1/DTD/svg11.dtd">
<svg version="1.1" id="Layer_1" xmlns="http://www.w3.org/2000/svg" xmlns:xlink="http://www.w3.org/1999/xlink" x="0px" y="0px"
	 width="240px" height="230px" viewBox="0 0 240 230" enable-background="new 0 0 240 230" xml:space="preserve">
<path fill="none" d="M164.63-219.096"/>
<path fill="#F26D7C" d="M187.799,107.942c-10.15-32.988-1.839-41.102-0.035-42.34h-67.367H51.915
	c1.803,1.238,10.366,9.352,0.216,42.34c-14.917,48.48,55.285,74.916,67.834,79.934c0.138-0.055,0.282-0.112,0.433-0.172
	C134.033,182.278,202.553,155.896,187.799,107.942"/>
<g opacity="0.5">
	<g>
		<g>
			<defs>
				<rect id="SVGID_1_" x="78.74" y="65.6" width="111.13" height="122.101"/>
			</defs>
			<clipPath id="SVGID_2_">
				<use xlink:href="#SVGID_1_"  overflow="visible"/>
			</clipPath>
			<path clip-path="url(#SVGID_2_)" fill="#DF2F55" d="M187.799,107.942c-10.15-32.988-1.838-41.103-0.035-42.34h-67.367v8.93
				c-0.086-0.001-0.172-0.005-0.26-0.005c-5.467,0-10.817,1.072-15.899,3.188c-5.157,2.147-9.742,5.243-13.629,9.202
				c-3.751,3.821-6.69,8.278-8.738,13.246c-2.048,4.969-3.101,10.203-3.131,15.557c-0.032,5.546,1.041,10.976,3.188,16.132
				c3.203,7.696,8.574,14.17,15.527,18.721c6.778,4.435,14.631,6.777,22.709,6.777c0.078,0,0.155-0.002,0.232-0.002v30.354
				C134.033,182.278,202.553,155.896,187.799,107.942 M120.164,149.325c-13.076,0-25.486-7.733-30.826-20.559
				c-7.086-17.018,0.967-36.557,17.984-43.641c4.193-1.746,8.54-2.573,12.814-2.573c0.088,0,0.174,0.004,0.26,0.005v66.764
				C120.319,149.323,120.241,149.325,120.164,149.325"/>
		</g>
	</g>
</g>
<path fill="#FFFFFF" d="M133.246,146.268c-17.018,7.086-36.557-0.967-43.642-17.983c-7.085-17.018,0.967-36.557,17.985-43.643
	c17.017-7.085,36.556,0.968,43.642,17.985C158.314,119.644,150.264,139.183,133.246,146.268"/>
<g opacity="0.4">
	<g>
		<g>
			<defs>
				<rect id="SVGID_3_" x="50.061" y="19.82" width="139.81" height="168.06"/>
			</defs>
			<clipPath id="SVGID_4_">
				<use xlink:href="#SVGID_3_"  overflow="visible"/>
			</clipPath>
			<path clip-path="url(#SVGID_4_)" fill="#FFFFFF" d="M119.965,33.886c8.377,4.036,25.287,10.075,54.195,12.173v14.625
				c-1.491,2.458-2.887,5.657-3.813,9.77c-2.389,10.613-0.953,24.591,4.264,41.547c2.33,7.568,1.854,14.6-1.444,21.499
				c-3.05,6.373-8.519,12.725-16.251,18.875c-12.736,10.132-28.21,17.049-36.951,20.637c-8.742-3.588-24.217-10.505-36.953-20.637
				c-7.732-6.15-13.201-12.502-16.25-18.875c-3.302-6.898-3.774-13.931-1.445-21.499c5.23-17.001,6.613-31.022,4.109-41.675
				c-0.964-4.099-2.391-7.283-3.908-9.729V46.054C87.655,44.416,107.092,40.09,119.965,33.886 M119.965,19.824
				c-1.727,0-3.453,0.347-4.796,1.037c-9.942,5.12-29.271,10.588-57.983,11.864c-3.017,0.135-5.465,2.57-5.465,5.59v27.16
				c0,0,11.262,7.193,0.409,42.467c-14.917,48.481,55.285,74.915,67.835,79.934c12.549-5.019,82.75-31.451,67.834-79.934
				c-10.854-35.272,0.158-42.467,0.158-42.467v-27.16c0-3.02-2.449-5.455-5.465-5.59c-28.713-1.275-47.791-6.744-57.732-11.864
				C123.417,20.171,121.689,19.824,119.965,19.824"/>
		</g>
	</g>
</g>
<polygon fill="#F26D7C" points="120.238,82.887 119.61,112.361 124.502,116.501 152.346,116.877 153.1,109.602 145.572,94.802 
	132.779,85.145 "/>
<path fill="#191818" d="M119.91,91.255c0,0-0.002,0.021-0.004,0.053h0.01C119.912,91.275,119.91,91.255,119.91,91.255"/>
<path fill="#191818" d="M119.913,91.282c0.001,0.014,0.536,0.025,1.194,0.025s1.192-0.561,1.192-1.254v-5.77
	c0-0.692-0.562-1.254-1.254-1.254h-1.637c-0.692,0-1.254,0.562-1.254,1.254v5.77c0,0.693,0.392,1.254,0.875,1.254
	c0.482,0,0.875-0.012,0.877-0.025C119.908,91.267,119.91,91.267,119.913,91.282"/>
<path fill="#191818" d="M153.09,116.709v-1.636c0-0.693-0.563-1.255-1.254-1.255h-5.688c-0.691,0-1.254,0.562-1.254,1.255v1.636
	c0,0.693,0.563,1.254,1.254,1.254h5.688C152.527,117.963,153.09,117.402,153.09,116.709"/>
<path fill="#191818" d="M87.368,115.073v1.636c0,0.693,0.562,1.255,1.254,1.255h5.519c0.692,0,1.254-0.562,1.254-1.255v-1.636
	c0-0.693-0.562-1.254-1.254-1.254h-5.519C87.93,113.819,87.368,114.38,87.368,115.073"/>
<path fill="#191818" d="M119.41,148.752h1.637c0.691,0,1.254-0.562,1.254-1.254v-5.436c0-0.692-0.563-1.255-1.254-1.255h-1.637
	c-0.691,0-1.254,0.563-1.254,1.255v5.436C118.156,148.19,118.719,148.752,119.41,148.752"/>
<path fill="#191818" d="M103.799,87.433c-0.601,0.347-0.806,1.113-0.46,1.714l2.849,4.936c0.347,0.6,1.115,0.808,1.718,0.466
	c0.603-0.343,0.81-1.106,0.463-1.707l-2.856-4.948C105.165,87.292,104.398,87.087,103.799,87.433"/>
<path fill="#191818" d="M91.771,99.46c-0.347,0.6-0.142,1.367,0.459,1.713l4.868,2.812c0.599,0.346,1.363,0.138,1.705-0.465
	c0.342-0.602,0.133-1.37-0.467-1.718l-4.853-2.801C92.883,98.655,92.116,98.86,91.771,99.46"/>
<path fill="#191818" d="M91.771,132.321c0.346,0.601,1.112,0.806,1.713,0.46l4.72-2.727c0.6-0.346,0.803-1.111,0.456-1.711
	c-0.349-0.599-1.116-0.804-1.717-0.458l-4.713,2.723C91.629,130.955,91.424,131.722,91.771,132.321"/>
<path fill="#191818" d="M103.799,144.35c0.6,0.347,1.366,0.142,1.713-0.459l2.709-4.692c0.348-0.602,0.141-1.365-0.461-1.709
	c-0.601-0.347-1.369-0.139-1.715,0.463l-2.706,4.686C102.993,143.236,103.198,144.004,103.799,144.35"/>
<path fill="#191818" d="M136.66,144.35c0.6-0.346,0.805-1.112,0.459-1.713l-2.746-4.755c-0.346-0.601-1.115-0.808-1.717-0.466
	c-0.602,0.343-0.809,1.105-0.463,1.707l2.752,4.768C135.293,144.49,136.061,144.695,136.66,144.35"/>
<path fill="#191818" d="M148.688,132.321c0.347-0.601,0.142-1.366-0.459-1.713l-4.852-2.802c-0.6-0.346-1.363-0.139-1.705,0.465
	c-0.342,0.602-0.133,1.37,0.467,1.719l4.836,2.791C147.574,133.127,148.342,132.922,148.688,132.321"/>
<path fill="#191818" d="M148.688,99.46c-0.346-0.6-1.112-0.805-1.713-0.459l-4.99,2.881c-0.6,0.346-0.805,1.113-0.457,1.712
	c0.349,0.599,1.117,0.804,1.718,0.457l4.983-2.878C148.828,100.828,149.033,100.061,148.688,99.46"/>
<path fill="#191818" d="M136.66,87.433c-0.602-0.346-1.367-0.141-1.715,0.459l-2.896,5.018c-0.346,0.6-0.139,1.365,0.461,1.71
	c0.602,0.344,1.371,0.137,1.717-0.463l2.894-5.01C137.465,88.546,137.26,87.779,136.66,87.433"/>
<path fill="#191818" d="M120.164,151.398c-14.367,0-27.219-8.57-32.74-21.834c-7.512-18.047,1.059-38.839,19.102-46.352
	c4.354-1.813,8.934-2.731,13.611-2.731c14.367,0,27.218,8.569,32.739,21.833c7.513,18.044-1.056,38.837-19.101,46.351
	C129.421,150.479,124.842,151.398,120.164,151.398 M120.137,84.627c-4.128,0-8.172,0.813-12.018,2.413
	c-15.936,6.634-23.504,24.996-16.869,40.932c4.877,11.713,16.227,19.281,28.914,19.281c4.128,0,8.172-0.812,12.018-2.413
	c15.937-6.634,23.504-24.997,16.868-40.932C144.173,92.195,132.825,84.627,120.137,84.627"/>
<rect x="110.767" y="112.501" transform="matrix(-0.5436 -0.8393 0.8393 -0.5436 71.5196 281.425)" fill="#F26D7C" width="3.01" height="17.534"/>
<path fill="#191818" d="M115.768,116.621c0.006,2.295,1.873,4.151,4.168,4.146c2.294-0.007,4.15-1.873,4.144-4.168
	c-0.006-2.296-4.024-18.446-4.024-18.446S115.762,114.326,115.768,116.621"/>
<path fill="#191818" d="M120.617,112.594c-2.295-0.028-4.18,1.809-4.208,4.104c-0.029,2.295,1.808,4.18,4.103,4.209
	c2.294,0.028,18.511-4.04,18.511-4.04S122.912,112.623,120.617,112.594"/>
<path fill="#191818" d="M119.965,28.19c0.526,0,0.893,0.091,1.006,0.13c13.14,6.754,34.396,11.327,58.621,12.638v21.353
	c-1.469,2.076-2.99,5.088-3.945,9.333c-2.178,9.68-0.778,22.719,4.156,38.759c5.106,16.6-1.273,31.719-19.506,46.221
	c-14.388,11.444-31.921,18.869-40.332,22.248c-8.414-3.379-25.947-10.804-40.334-22.248c-18.232-14.502-24.611-29.621-19.505-46.221
	c4.943-16.066,6.294-29.134,4.013-38.836c-0.996-4.241-2.555-7.243-4.053-9.313V40.958c24.393-1.318,45.743-5.89,58.872-12.638
	C119.07,28.281,119.438,28.19,119.965,28.19 M119.965,19.824c-1.727,0-3.453,0.346-4.796,1.037
	c-9.942,5.12-29.271,10.588-57.983,11.864c-3.017,0.135-5.465,2.57-5.465,5.59v27.16c0,0,11.262,7.193,0.409,42.467
	c-14.917,48.481,55.285,74.915,67.835,79.934c12.549-5.019,82.75-31.451,67.834-79.934c-10.854-35.272,0.158-42.467,0.158-42.467
	v-27.16c0-3.02-2.449-5.455-5.465-5.59c-28.713-1.275-47.791-6.744-57.732-11.864C123.417,20.17,121.689,19.824,119.965,19.824"/>
<path fill="#191818" d="M187.957,38.315c0-3.021-2.449-5.456-5.465-5.591c-28.713-1.274-47.791-6.743-57.732-11.864
	c-2.686-1.382-6.906-1.382-9.59,0c-9.943,5.121-29.272,10.589-57.984,11.864c-3.016,0.135-5.465,2.57-5.465,5.591v27.159
	c0,0,0.069,0.042,0.193,0.128h135.85c0.125-0.086,0.193-0.128,0.193-0.128V38.315z"/>
<polygon fill="#FFFFFF" points="110.914,56.771 110.914,41.899 107.875,45.06 105.557,42.622 111.457,36.691 114.979,36.691 
	114.979,56.771 "/>
<polygon fill="#FFFFFF" points="128.615,56.771 123.979,48.914 122.563,51.141 122.563,56.771 118.529,56.771 118.529,36.691 
	122.563,36.691 122.563,45.813 128.225,36.691 132.92,36.691 126.508,46.144 133.371,56.771 "/>
<polygon fill="#FFFFFF" points="90.91,44.988 83.452,43.857 80.131,36.76 76.811,43.857 69.352,44.988 74.74,50.522 73.395,58.317 
	80.131,54.637 86.867,58.317 85.52,50.522 "/>
<polygon fill="#FFFFFF" points="170.576,44.988 163.119,43.857 159.797,36.76 156.479,43.857 149.02,44.988 154.408,50.522 
	153.061,58.317 159.797,54.637 166.534,58.317 165.188,50.522 "/>
<polygon fill="#FFFFFF" points="172.279,196.988 119.985,211.172 67.692,195.483 67.692,167.963 119.985,183.65 172.279,167.963 "/>
<path fill="#020202" d="M119.984,212.096l-54.551-13.335v-33.674l54.551,13.334l54.553-13.334v33.674L119.984,212.096z
	 M69.949,195.216l50.035,12.231l50.036-12.231v-24.377l-50.036,12.23l-50.035-12.23V195.216z"/>
<polygon fill="#020202" points="148.766,174.15 174.602,165.172 161.529,155.391 140.516,173.402 "/>
<polygon fill="#020202" points="91.164,174.15 65.326,165.172 78.399,155.391 99.414,173.402 "/>
<polygon fill="#F26D7C" points="91.835,184.576 89.244,179.039 86.654,184.576 80.837,185.459 85.041,189.775 83.99,195.856 
	89.244,192.984 94.5,195.856 93.449,189.775 97.652,185.459 "/>
<polygon fill="#F26D7C" points="122.521,190.653 119.663,184.543 116.805,190.653 110.383,191.627 115.022,196.392 113.863,203.103 
	119.663,199.934 125.463,203.103 124.303,196.392 128.941,191.627 "/>
<polygon fill="#F26D7C" points="152.859,184.576 150.27,179.039 147.68,184.576 141.861,185.459 146.064,189.775 145.014,195.856 
	150.27,192.984 155.523,195.856 154.473,189.775 158.678,185.459 "/>
<path fill="#020202" d="M212.835,127.24c-1.817-3.577-5.513-6.853-6.38-10.245l-0.531-0.223c-1.337,3.335-1.193,7.326-0.169,10.95
	c1.108,4.704,3.425,8.369,4.509,12.994c0.193,0.892,0.354,1.775,0.459,2.742c6.955-5.049,13.368-10.809,15.183-19.897l-12.194,6.131
	C213.547,128.844,213.218,128.005,212.835,127.24"/>
<path fill="#020202" d="M209.699,85.457c0.578,1.658,0.758,3.546,1.548,5.248c0.511,0.668,0.96,1.356,1.431,2.056
	c1.314,1.815,2.676,3.432,4.42,3.886c0.606-2.797,1.065-5.733,0.534-8.912c-0.604-2.013-1.507-3.808-2.689-5.43
	c-1.849-2.559-4.357-4.637-7.396-6.198c-0.099-0.059-0.166-0.071-0.224-0.119l-0.403,0.093c0.157,0.24,0.304,0.516,0.46,0.796
	C208.756,79.501,209.168,82.278,209.699,85.457"/>
<path fill="#020202" d="M214.333,102.624c-2.653-3.01-7.05-5.257-8.735-8.326l-0.572-0.084c-0.461,3.564,0.677,7.394,2.574,10.646
	c2.248,4.277,5.405,7.249,7.61,11.456c0.409,0.813,0.786,1.631,1.128,2.54c5.475-6.626,10.246-13.806,9.73-23.059l-10.276,8.98
	C215.423,103.999,214.895,103.269,214.333,102.624"/>
<path fill="#020202" d="M27.094,127.24c1.816-3.577,5.513-6.853,6.379-10.245l0.531-0.223c1.338,3.335,1.193,7.326,0.17,10.95
	c-1.109,4.704-3.424,8.369-4.508,12.994c-0.194,0.892-0.354,1.775-0.459,2.742c-6.957-5.049-13.369-10.809-15.183-19.897
	l12.194,6.131C26.381,128.844,26.711,128.005,27.094,127.24"/>
<path fill="#020202" d="M30.229,85.457c-0.578,1.658-0.759,3.546-1.548,5.248c-0.51,0.668-0.961,1.356-1.432,2.056
	c-1.314,1.815-2.676,3.432-4.42,3.886c-0.605-2.797-1.064-5.733-0.533-8.912c0.604-2.013,1.506-3.808,2.689-5.43
	c1.848-2.559,4.357-4.637,7.396-6.198c0.099-0.059,0.166-0.071,0.223-0.119l0.404,0.093c-0.158,0.24-0.304,0.516-0.461,0.796
	C31.172,79.501,30.76,82.278,30.229,85.457"/>
<path fill="#020202" d="M25.596,102.624c2.652-3.01,7.049-5.257,8.736-8.326l0.57-0.084c0.461,3.564-0.675,7.394-2.572,10.646
	c-2.248,4.277-5.406,7.249-7.611,11.456c-0.41,0.813-0.786,1.631-1.129,2.54c-5.475-6.626-10.246-13.806-9.73-23.059l10.277,8.98
	C24.506,103.999,25.033,103.269,25.596,102.624"/>
<path fill="#020202" d="M193.232,168.397c-0.916-0.018-1.783-0.026-2.64,0.015c3.212-4.571,2.291-10.163,4.06-15.119l-0.019-0.219
	c-5.327,2.008-8.123,6.701-10.729,11.656c-1.861,3.592-3.685,7.273-6.34,9.993c1.108,0.08,2.153,0.229,3.233,0.39
	c1.123,0.164,2.274,0.386,3.437,0.69c2.306,0.136,4.58,0.238,6.731,0.167c4.034-0.171,7.795-0.854,11.037-2.605
	c1.5-0.797,2.901-1.85,4.131-3.16c-0.948-0.154-1.991-0.342-3.028-0.524C199.842,169.126,196.407,168.556,193.232,168.397"/>
<path fill="#020202" d="M206.232,152.824c-1.496-5.036-4.274-10.122-3.865-15.642l-0.143-0.219l-0.373,0.164
	c-0.045,0.036-0.099,0.108-0.103,0.146c-0.292,0.5-0.601,0.785-1.136,1.3c-3.807,6.707-3.229,14.779-1.276,21.92
	c0.321,1.177,0.654,2.295,1.063,3.425c3.423-2.676,7.644-3.358,11.441-5.306c0.342-0.207,0.676-0.37,1.029-0.582
	c3.66-2.642,5.887-7.007,6.842-11.184c-2.373,0.757-4.701,1.367-6.877,2.187C210.493,149.879,208.23,151.021,206.232,152.824"/>
<path fill="#020202" d="M46.76,168.397c0.915-0.018,1.782-0.026,2.637,0.015c-3.211-4.571-2.289-10.163-4.058-15.119l0.017-0.219
	c5.33,2.008,8.125,6.701,10.731,11.656c1.861,3.592,3.683,7.273,6.339,9.993c-1.109,0.08-2.152,0.229-3.234,0.39
	c-1.121,0.164-2.274,0.386-3.435,0.69c-2.306,0.136-4.581,0.238-6.731,0.167c-4.035-0.171-7.795-0.854-11.037-2.605
	c-1.502-0.797-2.902-1.85-4.131-3.16c0.949-0.154,1.992-0.342,3.027-0.524C40.15,169.126,43.584,168.556,46.76,168.397"/>
<path fill="#020202" d="M33.76,152.824c1.494-5.036,4.273-10.122,3.864-15.642l0.142-0.219l0.375,0.164
	c0.045,0.036,0.098,0.108,0.101,0.146c0.292,0.5,0.601,0.785,1.136,1.3c3.805,6.707,3.23,14.779,1.275,21.92
	c-0.32,1.177-0.653,2.295-1.063,3.425c-3.422-2.676-7.645-3.358-11.441-5.306c-0.342-0.207-0.678-0.37-1.03-0.582
	c-3.66-2.642-5.886-7.007-6.841-11.184c2.373,0.757,4.699,1.367,6.875,2.187C29.498,149.879,31.762,151.021,33.76,152.824"/>
</svg>
