<?xml version="1.0" encoding="utf-8"?>
<!-- Generator: Adobe Illustrator 16.0.0, SVG Export Plug-In . SVG Version: 6.00 Build 0)  -->
<!DOCTYPE svg PUBLIC "-//W3C//DTD SVG 1.1//EN" "http://www.w3.org/Graphics/SVG/1.1/DTD/svg11.dtd">
<svg version="1.1" id="Layer_1" xmlns="http://www.w3.org/2000/svg" xmlns:xlink="http://www.w3.org/1999/xlink" x="0px" y="0px"
	 width="240px" height="230px" viewBox="0 0 240 230" enable-background="new 0 0 240 230" xml:space="preserve">
<path fill="none" d="M164.63-219.096"/>
<path fill="#F26D7C" d="M187.695,107.942c-10.15-32.988-1.84-41.102-0.037-42.34h-67.365H51.811
	c1.803,1.238,10.365,9.352,0.216,42.34c-14.918,48.48,55.285,74.916,67.834,79.934c0.136-0.055,0.282-0.112,0.433-0.172
	C133.93,182.278,202.449,155.896,187.695,107.942"/>
<g opacity="0.5">
	<g>
		<g>
			<defs>
				<rect id="SVGID_1_" x="78.63" y="65.6" width="111.13" height="122.101"/>
			</defs>
			<clipPath id="SVGID_2_">
				<use xlink:href="#SVGID_1_"  overflow="visible"/>
			</clipPath>
			<path clip-path="url(#SVGID_2_)" fill="#DF2F55" d="M187.693,107.942c-10.148-32.988-1.838-41.103-0.034-42.34h-67.366v8.93
				c-0.086-0.001-0.173-0.005-0.26-0.005c-5.468,0-10.816,1.072-15.9,3.188c-5.156,2.147-9.742,5.243-13.629,9.202
				c-3.75,3.821-6.69,8.278-8.738,13.246c-2.047,4.969-3.1,10.203-3.131,15.557c-0.031,5.546,1.041,10.976,3.188,16.132
				c3.204,7.696,8.574,14.17,15.528,18.721c6.777,4.435,14.631,6.777,22.709,6.777c0.078,0,0.154-0.002,0.232-0.002v30.354
				C133.93,182.278,202.449,155.896,187.693,107.942 M120.061,149.325c-13.076,0-25.487-7.733-30.826-20.559
				c-7.085-17.018,0.967-36.557,17.984-43.641c4.193-1.746,8.539-2.573,12.814-2.573c0.087,0,0.174,0.004,0.26,0.005v66.764
				C120.215,149.323,120.139,149.325,120.061,149.325"/>
		</g>
	</g>
</g>
<path fill="#FFFFFF" d="M133.143,146.268c-17.019,7.086-36.558-0.967-43.643-17.983c-7.084-17.019,0.968-36.557,17.984-43.643
	c17.019-7.085,36.557,0.968,43.642,17.985C158.211,119.644,150.16,139.183,133.143,146.268"/>
<g opacity="0.4">
	<g>
		<g>
			<defs>
				<rect id="SVGID_3_" x="49.96" y="19.82" width="139.8" height="168.06"/>
			</defs>
			<clipPath id="SVGID_4_">
				<use xlink:href="#SVGID_3_"  overflow="visible"/>
			</clipPath>
			<path clip-path="url(#SVGID_4_)" fill="#FFFFFF" d="M119.86,33.886c8.376,4.036,25.289,10.075,54.197,12.173v14.625
				c-1.492,2.458-2.889,5.657-3.813,9.77c-2.388,10.613-0.952,24.591,4.265,41.547c2.329,7.568,1.855,14.6-1.445,21.499
				c-3.049,6.373-8.518,12.725-16.25,18.875c-12.736,10.132-28.211,17.049-36.952,20.637c-8.741-3.588-24.216-10.505-36.952-20.637
				c-7.732-6.151-13.2-12.502-16.251-18.875c-3.3-6.898-3.772-13.931-1.444-21.499c5.23-17.001,6.613-31.022,4.108-41.675
				c-0.962-4.099-2.39-7.283-3.908-9.729V46.054C87.551,44.416,106.988,40.09,119.86,33.886 M119.86,19.824
				c-1.726,0-3.453,0.347-4.794,1.037c-9.943,5.12-29.272,10.588-57.984,11.864c-3.018,0.135-5.466,2.57-5.466,5.59v27.16
				c0,0,11.264,7.193,0.409,42.467c-14.916,48.481,55.285,74.915,67.835,79.934c12.549-5.019,82.751-31.451,67.833-79.934
				c-10.853-35.272,0.16-42.467,0.16-42.467v-27.16c0-3.02-2.449-5.455-5.465-5.59c-28.714-1.275-47.791-6.744-57.734-11.864
				C123.313,20.171,121.587,19.824,119.86,19.824"/>
		</g>
	</g>
</g>
<polygon fill="#F26D7C" points="120.134,82.887 119.506,112.361 124.398,116.501 152.242,116.877 152.994,109.602 145.471,94.802 
	132.676,85.145 "/>
<path fill="#191818" d="M119.807,91.255c0,0-0.002,0.021-0.005,0.053h0.011C119.809,91.275,119.807,91.255,119.807,91.255"/>
<path fill="#191818" d="M119.809,91.282c0.002,0.014,0.537,0.025,1.196,0.025c0.657,0,1.192-0.561,1.192-1.254v-5.77
	c0-0.692-0.563-1.254-1.254-1.254h-1.637c-0.693,0-1.254,0.562-1.254,1.254v5.77c0,0.693,0.391,1.254,0.874,1.254
	c0.483,0,0.876-0.012,0.877-0.025C119.805,91.267,119.808,91.267,119.809,91.282"/>
<path fill="#191818" d="M152.986,116.709v-1.636c0-0.693-0.563-1.255-1.254-1.255h-5.688c-0.691,0-1.254,0.562-1.254,1.255v1.636
	c0,0.693,0.563,1.254,1.254,1.254h5.688C152.424,117.963,152.986,117.402,152.986,116.709"/>
<path fill="#191818" d="M87.264,115.073v1.636c0,0.693,0.563,1.255,1.254,1.255h5.52c0.691,0,1.254-0.562,1.254-1.255v-1.636
	c0-0.693-0.563-1.254-1.254-1.254h-5.52C87.826,113.819,87.264,114.38,87.264,115.073"/>
<path fill="#191818" d="M119.307,148.752h1.637c0.692,0,1.254-0.562,1.254-1.254v-5.436c0-0.692-0.563-1.255-1.254-1.255h-1.637
	c-0.693,0-1.254,0.563-1.254,1.255v5.436C118.053,148.19,118.613,148.752,119.307,148.752"/>
<path fill="#191818" d="M103.695,87.433c-0.601,0.347-0.807,1.113-0.46,1.714l2.849,4.936c0.347,0.6,1.115,0.808,1.718,0.466
	c0.603-0.343,0.809-1.106,0.463-1.707l-2.856-4.948C105.062,87.292,104.295,87.087,103.695,87.433"/>
<path fill="#191818" d="M91.666,99.46c-0.346,0.6-0.141,1.367,0.459,1.713l4.868,2.812c0.599,0.346,1.363,0.138,1.705-0.465
	c0.343-0.602,0.134-1.37-0.467-1.718l-4.853-2.801C92.779,98.655,92.012,98.86,91.666,99.46"/>
<path fill="#191818" d="M91.666,132.321c0.346,0.601,1.113,0.806,1.713,0.46l4.721-2.727c0.599-0.346,0.804-1.111,0.455-1.711
	c-0.348-0.599-1.116-0.804-1.717-0.458l-4.713,2.723C91.525,130.955,91.32,131.722,91.666,132.321"/>
<path fill="#191818" d="M103.695,144.35c0.6,0.347,1.366,0.142,1.713-0.459l2.709-4.692c0.348-0.602,0.141-1.365-0.461-1.709
	c-0.602-0.347-1.369-0.139-1.716,0.463l-2.705,4.686C102.889,143.236,103.095,144.004,103.695,144.35"/>
<path fill="#191818" d="M136.557,144.35c0.6-0.346,0.805-1.112,0.459-1.713l-2.746-4.755c-0.346-0.601-1.114-0.808-1.717-0.466
	c-0.603,0.343-0.809,1.105-0.463,1.707l2.752,4.768C135.188,144.49,135.955,144.695,136.557,144.35"/>
<path fill="#191818" d="M148.584,132.321c0.346-0.601,0.141-1.366-0.46-1.713l-4.851-2.802c-0.601-0.346-1.363-0.139-1.705,0.465
	c-0.342,0.602-0.133,1.37,0.467,1.719l4.835,2.791C147.471,133.127,148.236,132.922,148.584,132.321"/>
<path fill="#191818" d="M148.584,99.46c-0.348-0.6-1.113-0.805-1.714-0.459l-4.989,2.881c-0.602,0.346-0.805,1.113-0.457,1.712
	s1.116,0.804,1.717,0.457l4.983-2.878C148.725,100.828,148.93,100.061,148.584,99.46"/>
<path fill="#191818" d="M136.557,87.433c-0.602-0.346-1.367-0.141-1.715,0.459l-2.896,5.018c-0.346,0.6-0.139,1.365,0.462,1.71
	h0.001c0.601,0.344,1.369,0.137,1.716-0.463l2.892-5.01C137.359,88.546,137.154,87.779,136.557,87.433"/>
<path fill="#191818" d="M120.061,151.398c-14.367,0-27.219-8.57-32.74-21.834c-3.64-8.742-3.656-18.377-0.049-27.133
	c3.607-8.754,10.408-15.58,19.15-19.219c4.354-1.813,8.933-2.731,13.611-2.731c14.365,0,27.219,8.569,32.738,21.833
	c7.514,18.044-1.056,38.837-19.101,46.351C129.316,150.479,124.738,151.398,120.061,151.398 M120.033,84.627
	c-4.129,0-8.173,0.813-12.019,2.413c-7.72,3.214-13.726,9.242-16.911,16.972c-3.186,7.731-3.171,16.24,0.043,23.96
	c4.877,11.713,16.227,19.281,28.914,19.281c4.127,0,8.172-0.812,12.018-2.413c15.936-6.634,23.504-24.997,16.867-40.932
	C144.068,92.195,132.723,84.627,120.033,84.627"/>
<rect x="110.664" y="112.501" transform="matrix(-0.5437 -0.8393 0.8393 -0.5437 71.3819 281.3439)" fill="#F26D7C" width="3.01" height="17.534"/>
<path fill="#191818" d="M115.664,116.621c0.006,2.295,1.872,4.151,4.168,4.146c2.295-0.007,4.15-1.873,4.143-4.168
	c-0.006-2.296-4.022-18.446-4.022-18.446S115.657,114.326,115.664,116.621"/>
<path fill="#191818" d="M120.514,112.594c-2.295-0.028-4.18,1.809-4.208,4.104c-0.03,2.295,1.807,4.18,4.103,4.209
	c2.295,0.028,18.51-4.04,18.51-4.04S122.809,112.623,120.514,112.594"/>
<path fill="#191818" d="M119.86,28.19c0.526,0,0.894,0.091,1.006,0.13c13.142,6.754,34.396,11.327,58.62,12.638v21.353
	c-1.467,2.076-2.989,5.088-3.944,9.333c-2.179,9.68-0.778,22.719,4.156,38.759c5.108,16.6-1.272,31.719-19.505,46.221
	c-14.387,11.444-31.92,18.869-40.333,22.248c-8.412-3.379-25.946-10.804-40.333-22.248c-18.232-14.502-24.612-29.621-19.506-46.221
	c4.943-16.066,6.295-29.134,4.014-38.836c-0.997-4.241-2.555-7.243-4.053-9.313V40.958c24.393-1.318,45.742-5.89,58.871-12.638
	C118.967,28.281,119.333,28.19,119.86,28.19 M119.86,19.824c-1.726,0-3.453,0.346-4.794,1.037
	c-9.943,5.12-29.272,10.588-57.984,11.864c-3.018,0.135-5.466,2.57-5.466,5.59v27.16c0,0,11.264,7.193,0.409,42.467
	c-14.916,48.481,55.285,74.915,67.835,79.934c12.549-5.019,82.751-31.451,67.833-79.934c-10.853-35.272,0.16-42.467,0.16-42.467
	v-27.16c0-3.02-2.449-5.455-5.465-5.59c-28.714-1.275-47.791-6.744-57.734-11.864C123.313,20.17,121.587,19.824,119.86,19.824"/>
<path fill="#191818" d="M187.854,38.315c0-3.021-2.449-5.456-5.465-5.591c-28.713-1.274-47.791-6.743-57.732-11.864
	c-2.686-1.382-6.905-1.382-9.59,0c-9.942,5.121-29.272,10.589-57.983,11.864c-3.017,0.135-5.466,2.57-5.466,5.591v27.159
	c0,0,0.069,0.042,0.194,0.128H187.66c0.125-0.086,0.193-0.128,0.193-0.128V38.315z"/>
<polygon fill="#FFFFFF" points="91.244,56.771 91.244,41.899 88.203,45.06 85.885,42.622 91.787,36.691 95.309,36.691 
	95.309,56.771 "/>
<path fill="#FFFFFF" d="M98.527,54.783c0-1.265,1.084-2.349,2.35-2.349c1.264,0,2.318,1.084,2.318,2.349
	c0,1.266-1.055,2.317-2.318,2.317C99.611,57.102,98.527,56.049,98.527,54.783"/>
<path fill="#FFFFFF" d="M105.994,56.771V53.52c7.346-7.136,8.881-8.729,8.881-11.019c0-1.536-1.175-2.529-2.681-2.529
	c-1.776,0-3.19,0.813-4.274,2.259l-2.408-2.529c1.625-2.167,4.004-3.313,6.744-3.313c3.884,0,6.713,2.35,6.713,6.082
	c0,3.04-2.047,5.63-7.014,10.747h7.104v3.553h-13.065V56.771z"/>
<path fill="#FFFFFF" d="M121.496,53.971l2.438-2.589c1.055,1.385,2.469,2.168,4.186,2.168c1.927,0,3.041-1.475,3.041-3.162
	c0-1.985-1.055-3.161-2.86-3.161c-1.354,0-2.377,0.482-3.312,1.656l-2.92-0.783V36.691h12.041v3.551h-8.008v5.148
	c0.783-0.963,2.137-1.655,3.674-1.655c3.039,0,5.479,2.379,5.479,6.532c0,4.034-2.74,6.864-7.016,6.864
	C125.139,57.132,123,55.988,121.496,53.971"/>
<polygon fill="#FFFFFF" points="148.076,56.771 143.439,48.914 142.025,51.141 142.025,56.771 137.99,56.771 137.99,36.691 
	142.025,36.691 142.025,45.813 147.686,36.691 152.381,36.691 145.969,46.144 152.834,56.771 "/>
<polygon fill="#FFFFFF" points="172.175,196.988 119.881,211.172 67.588,195.483 67.588,167.963 119.881,183.65 172.175,167.963 "/>
<path fill="#020202" d="M119.881,212.096L65.33,198.761v-33.674l54.551,13.334l54.551-13.334v33.674L119.881,212.096z
	 M69.846,195.216l50.035,12.231l50.035-12.231v-24.377l-50.035,12.23l-50.035-12.23V195.216L69.846,195.216z"/>
<polygon fill="#020202" points="148.662,174.15 174.498,165.172 161.424,155.391 140.412,173.402 "/>
<polygon fill="#020202" points="91.06,174.15 65.223,165.172 78.295,155.391 99.31,173.402 "/>
<polygon fill="#F26D7C" points="91.731,184.576 89.141,179.039 86.551,184.576 80.732,185.459 84.938,189.775 83.887,195.856 
	89.141,192.984 94.396,195.856 93.346,189.775 97.549,185.459 "/>
<polygon fill="#020202" points="122.418,190.653 119.559,184.543 116.701,190.653 110.279,191.627 114.919,196.392 113.759,203.103 
	119.559,199.934 125.359,203.103 124.199,196.392 128.839,191.627 "/>
<polygon fill="#F26D7C" points="152.756,184.576 150.165,179.039 147.575,184.576 141.758,185.459 145.961,189.775 144.91,195.856 
	150.165,192.984 155.42,195.856 154.369,189.775 158.573,185.459 "/>
<path fill="#020202" d="M212.73,127.24c-1.816-3.577-5.513-6.853-6.379-10.245l-0.531-0.223c-1.338,3.335-1.193,7.326-0.168,10.95
	c1.106,4.704,3.424,8.369,4.508,12.994c0.191,0.892,0.354,1.775,0.457,2.742c6.957-5.049,13.369-10.809,15.183-19.897l-12.193,6.131
	C213.443,128.844,213.113,128.005,212.73,127.24"/>
<path fill="#020202" d="M209.596,85.457c0.578,1.658,0.758,3.546,1.547,5.248c0.512,0.668,0.961,1.356,1.433,2.056
	c1.313,1.815,2.676,3.432,4.42,3.886c0.604-2.797,1.063-5.733,0.535-8.912c-0.606-2.013-1.508-3.808-2.691-5.43
	c-1.847-2.559-4.356-4.637-7.396-6.198c-0.1-0.059-0.166-0.071-0.223-0.119l-0.404,0.093c0.158,0.24,0.305,0.516,0.461,0.796
	C208.652,79.501,209.064,82.278,209.596,85.457"/>
<path fill="#020202" d="M214.229,102.624c-2.652-3.01-7.049-5.257-8.735-8.326l-0.571-0.084c-0.461,3.564,0.676,7.394,2.573,10.646
	c2.248,4.277,5.405,7.249,7.61,11.456c0.409,0.813,0.784,1.631,1.129,2.54c5.474-6.626,10.246-13.806,9.729-23.059l-10.276,8.98
	C215.319,103.999,214.791,103.269,214.229,102.624"/>
<path fill="#020202" d="M26.99,127.24c1.816-3.577,5.512-6.853,6.379-10.245l0.531-0.223c1.337,3.335,1.193,7.326,0.169,10.95
	c-1.108,4.704-3.424,8.369-4.508,12.994c-0.194,0.892-0.353,1.775-0.458,2.742c-6.957-5.049-13.37-10.809-15.182-19.897
	l12.193,6.131C26.277,128.844,26.607,128.005,26.99,127.24"/>
<path fill="#020202" d="M30.125,85.457c-0.578,1.658-0.758,3.546-1.547,5.248c-0.511,0.668-0.961,1.356-1.432,2.056
	c-1.314,1.815-2.676,3.432-4.42,3.886c-0.606-2.797-1.065-5.733-0.534-8.912c0.604-2.013,1.507-3.808,2.69-5.43
	c1.848-2.559,4.357-4.637,7.396-6.198c0.099-0.059,0.167-0.071,0.224-0.119l0.403,0.093c-0.157,0.24-0.304,0.516-0.46,0.796
	C31.068,79.501,30.656,82.278,30.125,85.457"/>
<path fill="#020202" d="M25.492,102.624c2.652-3.01,7.049-5.257,8.735-8.326l0.571-0.084c0.461,3.564-0.676,7.394-2.573,10.646
	c-2.248,4.277-5.406,7.249-7.611,11.456c-0.409,0.813-0.784,1.631-1.128,2.54c-5.475-6.626-10.246-13.806-9.73-23.059l10.276,8.98
	C24.401,103.999,24.93,103.269,25.492,102.624"/>
<path fill="#020202" d="M193.129,168.397c-0.916-0.018-1.783-0.026-2.639,0.015c3.212-4.571,2.289-10.163,4.059-15.119l-0.018-0.219
	c-5.329,2.008-8.124,6.701-10.73,11.656c-1.861,3.592-3.684,7.273-6.34,9.993c1.109,0.08,2.152,0.229,3.234,0.39
	c1.121,0.164,2.274,0.386,3.436,0.69c2.305,0.136,4.58,0.238,6.73,0.167c4.035-0.171,7.796-0.854,11.037-2.605
	c1.502-0.797,2.901-1.85,4.131-3.16c-0.948-0.154-1.991-0.342-3.027-0.524C199.736,169.126,196.303,168.556,193.129,168.397"/>
<path fill="#020202" d="M206.129,152.824c-1.494-5.036-4.275-10.122-3.865-15.642l-0.143-0.219l-0.374,0.164
	c-0.045,0.036-0.097,0.108-0.101,0.146c-0.293,0.5-0.603,0.785-1.138,1.3c-3.805,6.707-3.229,14.779-1.274,21.92
	c0.32,1.177,0.654,2.295,1.063,3.425c3.424-2.676,7.645-3.358,11.443-5.306c0.341-0.207,0.676-0.37,1.029-0.582
	c3.659-2.642,5.886-7.007,6.841-11.184c-2.373,0.757-4.7,1.367-6.876,2.187C210.389,149.879,208.127,151.021,206.129,152.824"/>
<path fill="#020202" d="M46.656,168.397c0.915-0.018,1.782-0.026,2.637,0.015c-3.211-4.571-2.291-10.163-4.058-15.119l0.017-0.219
	c5.33,2.008,8.125,6.701,10.731,11.656c1.861,3.592,3.683,7.273,6.339,9.993c-1.109,0.08-2.152,0.229-3.234,0.39
	c-1.121,0.164-2.275,0.386-3.435,0.69c-2.306,0.136-4.581,0.238-6.733,0.167c-4.034-0.171-7.793-0.854-11.035-2.605
	c-1.502-0.797-2.902-1.85-4.131-3.16c0.947-0.154,1.992-0.342,3.027-0.524C40.045,169.126,43.479,168.556,46.656,168.397"/>
<path fill="#020202" d="M33.656,152.824c1.493-5.036,4.273-10.122,3.863-15.642l0.143-0.219l0.375,0.164
	c0.043,0.036,0.096,0.108,0.101,0.146c0.292,0.5,0.601,0.785,1.136,1.3c3.805,6.707,3.23,14.779,1.275,21.92
	c-0.32,1.177-0.653,2.295-1.063,3.425c-3.423-2.676-7.645-3.358-11.443-5.306c-0.342-0.207-0.676-0.37-1.029-0.582
	c-3.659-2.642-5.885-7.007-6.842-11.184c2.373,0.757,4.701,1.367,6.877,2.187C29.395,149.879,31.656,151.021,33.656,152.824"/>
<polygon fill="#FFFFFF" points="83.307,44.149 75.848,43.019 72.527,35.921 69.206,43.019 61.748,44.149 67.138,49.684 
	65.79,57.479 72.527,53.798 79.264,57.479 77.916,49.684 "/>
<polygon fill="#FFFFFF" points="177.973,44.149 170.516,43.019 167.193,35.921 163.873,43.019 156.414,44.149 161.805,49.684 
	160.457,57.479 167.193,53.798 173.93,57.479 172.584,49.684 "/>
</svg>
