<?xml version="1.0" encoding="utf-8"?>
<!-- Generator: Adobe Illustrator 16.0.0, SVG Export Plug-In . SVG Version: 6.00 Build 0)  -->
<!DOCTYPE svg PUBLIC "-//W3C//DTD SVG 1.1//EN" "http://www.w3.org/Graphics/SVG/1.1/DTD/svg11.dtd">
<svg version="1.1" id="Layer_1" xmlns="http://www.w3.org/2000/svg" xmlns:xlink="http://www.w3.org/1999/xlink" x="0px" y="0px"
	 width="612px" height="792px" viewBox="0 0 612 792" enable-background="new 0 0 612 792" xml:space="preserve">
<path fill="none" d="M346.63,60"/>
<path fill="none" d="M346.63,3305.597"/>
<path fill="#FFFFFF" d="M263.324,360.046c0.865-2.783-0.535-6.177-3.111-7.541l-27.572-14.596l-29.303-15.511
	c-2.575-1.363-4.939-0.107-5.252,2.79c0,0-3.293,30.512,20.82,39.177c24.114,8.665,33.758,12.129,33.758,12.129
	c2.742,0.985,5.695-0.485,6.561-3.269L263.324,360.046z"/>
<path fill="#FFFFFF" d="M341.927,360.046c-0.866-2.783,0.534-6.177,3.11-7.541l27.572-14.596l29.303-15.511
	c2.575-1.363,4.939-0.107,5.252,2.79c0,0,3.293,30.512-20.82,39.177c-24.114,8.665-33.758,12.129-33.758,12.129
	c-2.742,0.985-5.695-0.485-6.561-3.269L341.927,360.046z"/>
<path fill="#010101" d="M254.406,379.687L254.406,379.687c-0.924-0.001-1.838-0.161-2.719-0.478l-33.756-12.13
	c-25.951-9.325-22.748-41.873-22.714-42.201c0.376-3.483,2.878-5.917,6.087-5.917c1.135,0,2.272,0.299,3.385,0.887l56.873,30.107
	c3.813,2.019,5.797,6.826,4.516,10.946l-4.098,13.18C260.938,377.435,257.893,379.687,254.406,379.687 M201.305,324.731
	c-0.265,0-0.348,0.734-0.351,0.766c-0.007,0.069-0.74,7.356,1.337,15.484c2.68,10.483,8.598,17.437,17.591,20.668l33.757,12.13
	c1.18,0.423,2.465-0.234,2.831-1.411l4.099-13.179c0.451-1.452-0.361-3.423-1.705-4.135l-56.873-30.107
	C201.621,324.752,201.387,324.731,201.305,324.731"/>
<path fill="#010101" d="M350.844,379.687c-3.487,0-6.531-2.252-7.574-5.604l-4.098-13.181c-1.281-4.12,0.703-8.928,4.515-10.946
	l56.875-30.107c1.112-0.588,2.25-0.887,3.384-0.887c3.207,0,5.711,2.433,6.088,5.916c0.034,0.329,3.235,32.877-22.715,42.202
	l-33.757,12.13C352.682,379.525,351.767,379.687,350.844,379.687 M403.945,324.731c-0.082,0-0.316,0.021-0.685,0.216l-56.875,30.107
	c-1.343,0.712-2.156,2.683-1.705,4.135l4.099,13.18c0.366,1.176,1.648,1.833,2.831,1.41l33.757-12.13
	c21.727-7.807,18.959-35.869,18.93-36.152C404.293,325.466,404.211,324.731,403.945,324.731"/>
<path fill="#F26C7C" d="M370.383,384.942c-10.15-32.988-1.838-41.101-0.035-42.339H302.98h-68.482
	c1.804,1.238,10.367,9.351,0.217,42.339c-14.918,48.481,55.285,74.916,67.834,79.934c0.137-0.055,0.281-0.112,0.432-0.172
	C316.617,459.278,385.138,432.896,370.383,384.942"/>
<g opacity="0.5">
	<g>
		<defs>
			<rect id="SVGID_1_" x="301.87" y="341.02" width="69.47" height="122.1"/>
		</defs>
		<clipPath id="SVGID_2_">
			<use xlink:href="#SVGID_1_"  overflow="visible"/>
		</clipPath>
		<path clip-path="url(#SVGID_2_)" fill="#DF2E54" d="M369.27,383.358c-10.15-32.988-1.838-41.101-0.035-42.339h-67.367v122.102
			C315.504,457.694,384.024,431.313,369.27,383.358"/>
	</g>
</g>
<path fill="#F26C7C" d="M325.258,426.504h-46.262c-4.695,0-8.503-3.807-8.503-8.503v-38.097c0-4.696,3.808-8.503,8.503-8.503h46.262
	c4.695,0,8.502,3.807,8.502,8.503v38.097C333.76,422.697,329.953,426.504,325.258,426.504"/>
<path fill="#191818" d="M325.258,428.511h-46.262c-5.795,0-10.51-4.715-10.51-10.51v-38.097c0-5.795,4.715-10.51,10.51-10.51h46.262
	c5.795,0,10.508,4.715,10.508,10.51v38.097C335.766,423.796,331.053,428.511,325.258,428.511 M278.996,373.408
	c-3.582,0-6.496,2.914-6.496,6.496v38.097c0,3.582,2.914,6.496,6.496,6.496h46.262c3.58,0,6.494-2.914,6.494-6.496v-38.097
	c0-3.582-2.914-6.496-6.494-6.496H278.996z"/>
<path fill="#F26C7C" d="M333.76,372.378c0-4.696-3.807-8.503-8.502-8.503h-46.262c-4.695,0-8.502,3.807-8.502,8.503v7.125h63.266
	V372.378z"/>
<path fill="#FFFFFF" d="M270.494,380.005v30.472c0,4.695,3.807,8.502,8.502,8.502h46.262c4.695,0,8.502-3.807,8.502-8.502v-30.472
	H270.494z"/>
<path fill="#191818" d="M325.258,420.985h-46.262c-5.795,0-10.51-4.715-10.51-10.51v-38.097c0-5.795,4.715-10.51,10.51-10.51h46.262
	c5.795,0,10.508,4.715,10.508,10.51v38.097C335.766,416.271,331.053,420.985,325.258,420.985 M278.996,365.883
	c-3.582,0-6.496,2.914-6.496,6.496v38.097c0,3.582,2.914,6.496,6.496,6.496h46.262c3.58,0,6.494-2.914,6.494-6.496v-38.097
	c0-3.582-2.914-6.496-6.494-6.496H278.996z"/>
<path fill="#FFFFFF" d="M318.367,351.503c-2.748,0-4.976,2.229-4.976,4.978v10.429c0,2.749,2.228,4.977,4.976,4.977
	c2.749,0,4.977-2.228,4.977-4.977V356.48C323.344,353.731,321.116,351.503,318.367,351.503"/>
<path fill="#191818" d="M318.367,373.642c-3.712,0-6.732-3.02-6.732-6.733V356.48c0-3.713,3.021-6.733,6.732-6.733
	c3.713,0,6.732,3.02,6.732,6.733v10.429C325.1,370.622,322.08,373.642,318.367,373.642 M318.367,353.259
	c-1.775,0-3.221,1.445-3.221,3.222v10.429c0,1.776,1.445,3.221,3.221,3.221s3.221-1.445,3.221-3.221V356.48
	C321.588,354.704,320.143,353.259,318.367,353.259"/>
<path fill="#FFFFFF" d="M286.003,351.503c-2.749,0-4.978,2.229-4.978,4.978v10.429c0,2.749,2.229,4.977,4.978,4.977
	c2.747,0,4.976-2.228,4.976-4.977V356.48C290.979,353.731,288.75,351.503,286.003,351.503"/>
<path fill="#191818" d="M286.002,373.642c-3.712,0-6.732-3.02-6.732-6.733V356.48c0-3.713,3.021-6.733,6.732-6.733
	c3.713,0,6.732,3.02,6.732,6.733v10.429C292.734,370.622,289.715,373.642,286.002,373.642 M286.002,353.259
	c-1.775,0-3.221,1.445-3.221,3.222v10.429c0,1.776,1.445,3.221,3.221,3.221s3.221-1.445,3.221-3.221V356.48
	C289.223,354.704,287.777,353.259,286.002,353.259"/>
<rect x="277.396" y="384.041" fill="#F26C7C" width="7.524" height="7.525"/>
<rect x="287.682" y="384.041" fill="#F26C7C" width="7.524" height="7.525"/>
<rect x="297.967" y="384.041" fill="#F26C7C" width="7.524" height="7.525"/>
<rect x="308.25" y="384.041" fill="#F26C7C" width="7.525" height="7.525"/>
<rect x="318.535" y="384.041" fill="#F26C7C" width="7.525" height="7.525"/>
<rect x="277.396" y="394.325" fill="#F26C7C" width="7.524" height="7.524"/>
<rect x="287.682" y="394.325" fill="#F26C7C" width="7.524" height="7.524"/>
<rect x="297.967" y="394.325" fill="#F26C7C" width="7.524" height="7.524"/>
<rect x="308.25" y="394.325" fill="#F26C7C" width="7.525" height="7.524"/>
<rect x="318.535" y="394.325" fill="#F26C7C" width="7.525" height="7.524"/>
<rect x="277.396" y="404.61" fill="#F26C7C" width="7.524" height="7.524"/>
<rect x="287.682" y="404.61" fill="#F26C7C" width="7.524" height="7.524"/>
<rect x="297.967" y="404.61" fill="#F26C7C" width="7.524" height="7.524"/>
<rect x="308.25" y="404.61" fill="#F26C7C" width="7.525" height="7.524"/>
<rect x="318.535" y="404.61" fill="#F26C7C" width="7.525" height="7.524"/>
<g opacity="0.4">
	<g>
		<defs>
			<rect id="SVGID_3_" x="232.65" y="296.82" width="139.8" height="168.06"/>
		</defs>
		<clipPath id="SVGID_4_">
			<use xlink:href="#SVGID_3_"  overflow="visible"/>
		</clipPath>
		<path clip-path="url(#SVGID_4_)" fill="#FFFFFF" d="M302.549,310.886c8.377,4.036,25.287,10.075,54.195,12.173v14.625
			c-1.49,2.458-2.887,5.657-3.813,9.769c-2.387,10.613-0.952,24.591,4.264,41.546c2.329,7.569,1.856,14.601-1.443,21.5
			c-3.051,6.373-8.519,12.725-16.252,18.875c-12.736,10.132-28.211,17.049-36.951,20.637c-8.742-3.588-24.217-10.505-36.952-20.637
			c-7.733-6.15-13.201-12.502-16.251-18.875c-3.301-6.898-3.773-13.931-1.445-21.499c5.23-17.001,6.614-31.022,4.109-41.675
			c-0.963-4.098-2.391-7.283-3.909-9.729v-14.542C270.238,321.416,289.677,317.09,302.549,310.886 M302.549,296.824
			c-1.727,0-3.453,0.347-4.795,1.037c-9.942,5.12-29.271,10.588-57.984,11.864c-3.016,0.134-5.465,2.57-5.465,5.589v27.161
			c0,0,11.263,7.193,0.41,42.466c-14.918,48.482,55.285,74.915,67.834,79.934c12.549-5.019,82.751-31.451,67.834-79.934
			c-10.854-35.272,0.158-42.466,0.158-42.466v-27.161c0-3.019-2.448-5.455-5.465-5.589c-28.713-1.276-47.791-6.744-57.733-11.864
			C306,297.171,304.274,296.824,302.549,296.824"/>
	</g>
</g>
<path fill="#191818" d="M302.549,305.19c0.525,0,0.894,0.091,1.006,0.13c13.141,6.754,34.396,11.326,58.621,12.638v21.353
	c-1.469,2.076-2.99,5.087-3.946,9.333c-2.177,9.679-0.778,22.718,4.157,38.758c5.107,16.6-1.273,31.719-19.506,46.221
	c-14.387,11.444-31.92,18.869-40.332,22.248c-8.413-3.379-25.946-10.804-40.333-22.248c-18.232-14.502-24.613-29.621-19.505-46.221
	c4.943-16.066,6.293-29.133,4.013-38.836c-0.997-4.241-2.556-7.243-4.054-9.313v-21.295c24.394-1.318,45.742-5.89,58.873-12.638
	C301.654,305.281,302.021,305.19,302.549,305.19 M302.549,296.824c-1.727,0-3.453,0.346-4.795,1.037
	c-9.942,5.12-29.271,10.588-57.984,11.864c-3.016,0.134-5.465,2.57-5.465,5.589v27.161c0,0,11.263,7.193,0.41,42.466
	c-14.918,48.482,55.285,74.915,67.834,79.934c12.549-5.019,82.751-31.451,67.834-79.934c-10.854-35.272,0.158-42.466,0.158-42.466
	v-27.161c0-3.019-2.448-5.455-5.465-5.589c-28.713-1.276-47.791-6.744-57.733-11.864C306,297.17,304.274,296.824,302.549,296.824"/>
<path fill="#191818" d="M370.542,315.315c0-3.02-2.449-5.456-5.466-5.59c-28.713-1.275-47.791-6.743-57.732-11.864
	c-2.686-1.382-6.906-1.382-9.59,0c-9.942,5.121-29.271,10.589-57.984,11.864c-3.016,0.134-5.465,2.57-5.465,5.59v27.16
	c0,0,0.07,0.042,0.193,0.128h135.85c0.124-0.086,0.194-0.128,0.194-0.128V315.315z"/>
<path fill="#FFFFFF" d="M275.377,333.771v-3.251c7.346-7.136,8.881-8.73,8.881-11.019c0-1.536-1.175-2.529-2.68-2.529
	c-1.775,0-3.191,0.813-4.275,2.258l-2.408-2.529c1.627-2.167,4.004-3.313,6.744-3.313c3.884,0,6.713,2.349,6.713,6.082
	c0,3.04-2.047,5.63-7.014,10.747h7.104v3.553H275.377z"/>
<path fill="#FFFFFF" d="M291.18,331.783c0-1.264,1.084-2.348,2.348-2.348c1.265,0,2.318,1.084,2.318,2.348
	c0,1.266-1.054,2.318-2.318,2.318C292.264,334.102,291.18,333.049,291.18,331.783"/>
<path fill="#FFFFFF" d="M298.465,330.971l2.438-2.589c1.054,1.385,2.469,2.168,4.185,2.168c1.927,0,3.041-1.475,3.041-3.162
	c0-1.986-1.054-3.161-2.86-3.161c-1.354,0-2.377,0.482-3.312,1.656l-2.92-0.783v-11.409h12.042v3.551h-8.008v5.149
	c0.783-0.963,2.138-1.656,3.673-1.656c3.04,0,5.479,2.379,5.479,6.533c0,4.034-2.74,6.864-7.015,6.864
	C302.107,334.132,299.969,332.988,298.465,330.971"/>
<polygon fill="#FFFFFF" points="325.045,333.771 320.408,325.914 318.994,328.141 318.994,333.771 314.96,333.771 314.96,313.691 
	318.994,313.691 318.994,322.813 324.653,313.691 329.35,313.691 322.938,323.144 329.803,333.771 "/>
<polygon fill="#FFFFFF" points="273.494,321.988 266.035,320.857 262.715,313.76 259.395,320.857 251.937,321.988 257.325,327.522 
	255.979,335.317 262.715,331.637 269.452,335.317 268.104,327.522 "/>
<polygon fill="#FFFFFF" points="353.161,321.988 345.703,320.857 342.382,313.76 339.061,320.857 331.604,321.988 336.992,327.522 
	335.645,335.317 342.382,331.637 349.119,335.317 347.771,327.522 "/>
<path fill="#010101" d="M395.189,385.938c0.146,1.75-0.152,3.623,0.187,5.468c0.328,0.774,0.593,1.554,0.873,2.349
	c0.819,2.085,1.733,3.99,3.31,4.866c1.285-2.557,2.463-5.286,2.744-8.497c-0.084-2.099-0.508-4.062-1.25-5.928
	c-1.149-2.94-3.061-5.579-5.612-7.851c-0.082-0.079-0.144-0.11-0.187-0.17l-0.414-0.012c0.094,0.272,0.164,0.577,0.248,0.886
	C395.764,379.935,395.469,382.727,395.189,385.938"/>
<path fill="#010101" d="M395.388,403.718c-1.816-3.577-5.513-6.851-6.38-10.245l-0.531-0.223c-1.337,3.336-1.193,7.326-0.168,10.951
	c1.107,4.703,3.424,8.368,4.508,12.993c0.193,0.891,0.354,1.775,0.458,2.742c6.956-5.049,13.369-10.808,15.183-19.897l-12.194,6.13
	C396.1,405.321,395.771,404.482,395.388,403.718"/>
<path fill="#010101" d="M375.785,444.875c-0.916-0.017-1.783-0.026-2.639,0.015c3.213-4.571,2.291-10.163,4.059-15.119l-0.018-0.219
	c-5.328,2.008-8.123,6.701-10.73,11.657c-1.861,3.592-3.684,7.273-6.34,9.994c1.109,0.08,2.154,0.229,3.234,0.388
	c1.123,0.163,2.275,0.386,3.436,0.692c2.306,0.135,4.58,0.237,6.732,0.166c4.035-0.171,7.795-0.854,11.037-2.605
	c1.502-0.798,2.901-1.85,4.131-3.161c-0.949-0.154-1.992-0.342-3.029-0.524C382.395,445.604,378.961,445.033,375.785,444.875"/>
<path fill="#010101" d="M388.785,429.302c-1.494-5.036-4.274-10.122-3.864-15.641l-0.144-0.219l-0.373,0.165
	c-0.045,0.035-0.098,0.107-0.102,0.144c-0.292,0.5-0.601,0.786-1.136,1.3c-3.806,6.707-3.229,14.78-1.276,21.92
	c0.321,1.177,0.654,2.295,1.063,3.426c3.423-2.676,7.644-3.359,11.442-5.307c0.342-0.207,0.678-0.369,1.029-0.582
	c3.66-2.641,5.887-7.007,6.842-11.183c-2.373,0.757-4.701,1.368-6.877,2.187C393.046,426.357,390.783,427.499,388.785,429.302"/>
<path fill="#010101" d="M209.985,386.067c-0.24,1.74-0.044,3.626-0.482,5.45c-0.368,0.755-0.674,1.521-0.997,2.299
	c-0.931,2.037-1.947,3.891-3.566,4.681c-1.146-2.622-2.176-5.41-2.282-8.632c0.196-2.091,0.726-4.029,1.567-5.853
	c1.306-2.873,3.356-5.406,6.026-7.536c0.086-0.075,0.149-0.103,0.195-0.16l0.415,0.011c-0.107,0.266-0.196,0.566-0.295,0.871
	C209.735,380.043,209.879,382.847,209.985,386.067"/>
<path fill="#010101" d="M209.71,403.718c1.815-3.577,5.512-6.851,6.379-10.245l0.53-0.223c1.338,3.336,1.194,7.326,0.17,10.951
	c-1.108,4.703-3.424,8.368-4.508,12.993c-0.193,0.891-0.354,1.775-0.459,2.742c-6.955-5.049-13.369-10.808-15.182-19.897
	l12.194,6.13C208.998,405.321,209.326,404.482,209.71,403.718"/>
<path fill="#010101" d="M229.313,444.875c0.916-0.017,1.783-0.026,2.638,0.015c-3.212-4.571-2.291-10.163-4.058-15.119l0.017-0.219
	c5.329,2.008,8.124,6.701,10.731,11.657c1.861,3.592,3.683,7.273,6.339,9.994c-1.109,0.08-2.153,0.229-3.234,0.388
	c-1.122,0.163-2.276,0.386-3.435,0.692c-2.307,0.135-4.581,0.237-6.732,0.166c-4.035-0.171-7.795-0.854-11.037-2.605
	c-1.502-0.798-2.902-1.85-4.131-3.161c0.949-0.154,1.992-0.342,3.028-0.524C222.703,445.604,226.137,445.033,229.313,444.875"/>
<path fill="#010101" d="M216.313,429.302c1.494-5.036,4.273-10.122,3.863-15.641l0.144-0.219l0.374,0.165
	c0.044,0.035,0.097,0.107,0.102,0.144c0.291,0.5,0.6,0.786,1.135,1.3c3.806,6.707,3.23,14.78,1.275,21.92
	c-0.32,1.177-0.652,2.295-1.063,3.426c-3.422-2.676-7.644-3.359-11.442-5.307c-0.341-0.207-0.677-0.369-1.028-0.582
	c-3.66-2.641-5.887-7.007-6.843-11.183c2.374,0.757,4.701,1.368,6.877,2.187C212.051,426.357,214.313,427.499,216.313,429.302"/>
<polygon fill="#FFFFFF" points="355.54,473.988 303.246,488.172 250.953,472.483 250.953,444.963 303.246,460.65 355.54,444.963 "/>
<path fill="#010101" d="M303.246,489.096l-54.551-13.335v-33.674l54.551,13.334l54.551-13.334v33.674L303.246,489.096z
	 M253.211,472.216l50.035,12.231l50.035-12.231v-24.377l-50.035,12.23l-50.035-12.23V472.216z"/>
<polygon fill="#010101" points="332.027,451.15 357.863,442.172 344.791,432.391 323.777,450.402 "/>
<polygon fill="#010101" points="274.425,451.15 248.588,442.172 261.662,432.391 282.675,450.402 "/>
<polygon fill="#010101" points="275.097,461.576 272.506,456.039 269.916,461.576 264.099,462.459 268.303,466.775 267.252,472.856 
	272.506,469.984 277.762,472.856 276.711,466.775 280.914,462.459 "/>
<polygon fill="#010101" points="305.783,467.653 302.925,461.543 300.066,467.653 293.645,468.627 298.284,473.392 297.125,480.103 
	302.925,476.934 308.725,480.103 307.564,473.392 312.204,468.627 "/>
<polygon fill="#010101" points="336.121,461.576 333.531,456.039 330.941,461.576 325.123,462.459 329.326,466.775 328.275,472.856 
	333.531,469.984 338.785,472.856 337.734,466.775 341.939,462.459 "/>
</svg>
