<?xml version="1.0" encoding="utf-8"?>
<!-- Generator: Adobe Illustrator 16.0.0, SVG Export Plug-In . SVG Version: 6.00 Build 0)  -->
<!DOCTYPE svg PUBLIC "-//W3C//DTD SVG 1.1//EN" "http://www.w3.org/Graphics/SVG/1.1/DTD/svg11.dtd">
<svg version="1.1" id="Layer_1" xmlns="http://www.w3.org/2000/svg" xmlns:xlink="http://www.w3.org/1999/xlink" x="0px" y="0px"
	 width="612px" height="792px" viewBox="0 0 612 792" enable-background="new 0 0 612 792" xml:space="preserve">
<path fill="#F26C7C" d="M370.691,396.942c-10.15-32.988-1.838-41.101-0.036-42.339h-67.366h-68.481
	c1.803,1.238,10.366,9.351,0.216,42.339c-14.918,48.481,55.284,74.916,67.834,79.934c0.136-0.055,0.282-0.112,0.432-0.172
	C316.926,471.278,385.446,444.896,370.691,396.942"/>
<g opacity="0.5">
	<g>
		<defs>
			<rect id="SVGID_1_" x="303.29" y="354.6" width="69.47" height="122.1"/>
		</defs>
		<clipPath id="SVGID_2_">
			<use xlink:href="#SVGID_1_"  overflow="visible"/>
		</clipPath>
		<path clip-path="url(#SVGID_2_)" fill="#DF2E54" d="M370.691,396.942c-10.15-32.988-1.838-41.101-0.036-42.339h-67.366v122.101
			C316.926,471.278,385.446,444.896,370.691,396.942"/>
	</g>
</g>
<g opacity="0.4">
	<g>
		<defs>
			<rect id="SVGID_3_" x="232.95" y="308.82" width="139.81" height="168.06"/>
		</defs>
		<clipPath id="SVGID_4_">
			<use xlink:href="#SVGID_3_"  overflow="visible"/>
		</clipPath>
		<path clip-path="url(#SVGID_4_)" fill="#FFFFFF" d="M302.857,322.885c8.377,4.037,25.287,10.076,54.196,12.174v14.625
			c-1.491,2.458-2.888,5.657-3.813,9.769c-2.387,10.613-0.952,24.591,4.265,41.547c2.328,7.567,1.856,14.6-1.444,21.498
			c-3.051,6.373-8.519,12.725-16.252,18.875c-12.736,10.132-28.211,17.049-36.951,20.637c-8.742-3.588-24.216-10.505-36.952-20.637
			c-7.733-6.15-13.201-12.502-16.251-18.875c-3.301-6.898-3.774-13.931-1.445-21.498c5.231-17.001,6.614-31.022,4.109-41.676
			c-0.963-4.098-2.391-7.283-3.909-9.729v-14.542C270.548,333.416,289.985,329.09,302.857,322.885 M302.857,308.824
			c-1.727,0-3.453,0.347-4.795,1.037c-9.942,5.12-29.271,10.588-57.984,11.864c-3.016,0.134-5.465,2.57-5.465,5.589v27.161
			c0,0,11.263,7.193,0.41,42.466c-14.918,48.482,55.285,74.915,67.834,79.934c12.549-5.019,82.751-31.451,67.834-79.934
			c-10.854-35.272,0.158-42.466,0.158-42.466v-27.161c0-3.019-2.448-5.455-5.465-5.589c-28.713-1.276-47.791-6.744-57.732-11.864
			C306.31,309.171,304.583,308.824,302.857,308.824"/>
	</g>
</g>
<path fill="#191818" d="M370.851,327.315c0-3.02-2.449-5.456-5.466-5.59c-28.713-1.275-47.791-6.743-57.732-11.864
	c-2.685-1.382-6.906-1.382-9.59,0c-9.942,5.121-29.272,10.589-57.984,11.864c-3.016,0.134-5.465,2.57-5.465,5.59v27.16
	c0,0,0.069,0.042,0.194,0.128h135.848c0.125-0.086,0.195-0.128,0.195-0.128V327.315z"/>
<path fill="#191818" d="M302.857,317.19c0.526,0,0.894,0.091,1.006,0.13c13.141,6.754,34.396,11.326,58.621,12.638v21.353
	c-1.469,2.076-2.99,5.087-3.946,9.333c-2.177,9.679-0.778,22.718,4.157,38.758c5.107,16.6-1.273,31.719-19.506,46.221
	c-14.387,11.444-31.92,18.869-40.332,22.248c-8.412-3.379-25.946-10.804-40.333-22.248c-18.232-14.502-24.613-29.621-19.505-46.221
	c4.943-16.066,6.294-29.133,4.013-38.836c-0.997-4.241-2.555-7.243-4.053-9.313v-21.295c24.393-1.318,45.743-5.89,58.872-12.638
	C301.963,317.281,302.33,317.19,302.857,317.19 M302.857,308.824c-1.727,0-3.453,0.346-4.795,1.037
	c-9.942,5.12-29.271,10.588-57.984,11.864c-3.016,0.134-5.465,2.57-5.465,5.589v27.161c0,0,11.263,7.193,0.41,42.466
	c-14.918,48.482,55.285,74.915,67.834,79.934c12.549-5.019,82.751-31.451,67.834-79.934c-10.854-35.272,0.158-42.466,0.158-42.466
	v-27.161c0-3.019-2.448-5.455-5.465-5.589c-28.713-1.276-47.791-6.744-57.732-11.864C306.31,309.17,304.583,308.824,302.857,308.824
	"/>
<path fill="#FFFFFF" d="M287.38,342.971l2.438-2.589c1.054,1.385,2.469,2.168,4.186,2.168c1.926,0,3.04-1.475,3.04-3.162
	c0-1.986-1.054-3.161-2.86-3.161c-1.355,0-2.378,0.482-3.312,1.656l-2.92-0.783v-11.409h12.042v3.551h-8.008v5.149
	c0.783-0.963,2.138-1.656,3.673-1.656c3.041,0,5.479,2.379,5.479,6.533c0,4.034-2.739,6.864-7.014,6.864
	C291.023,346.132,288.885,344.988,287.38,342.971"/>
<path fill="#FFFFFF" d="M303.063,335.745c0-5.178,2.137-10.355,7.104-10.355c4.998,0,7.105,5.178,7.105,10.355
	c0,5.148-2.077,10.388-7.105,10.388C305.2,346.133,303.063,340.894,303.063,335.745 M313.179,335.745
	c0-3.883-0.662-6.772-3.012-6.772c-2.317,0-2.979,2.89-2.979,6.772c0,3.854,0.662,6.805,2.979,6.805
	C312.517,342.55,313.179,339.6,313.179,335.745"/>
<path fill="#FFFFFF" d="M320.837,413.436l-11.009-11.009l11.009-11.009c5.4-5.4,7.742-12.699,7.029-19.747h-48.604
	c-0.714,7.048,1.628,14.347,7.028,19.747l11.009,11.009l-11.009,11.009c-3.357,3.357-5.532,7.449-6.526,11.758
	c-0.604,2.621-0.772,5.323-0.502,7.989h48.604c0.519-5.126-0.581-10.383-3.295-14.948
	C323.554,416.523,322.311,414.909,320.837,413.436"/>
<path fill="#F26C7C" d="M276.482,436.701h54.164c0.578-5.711-0.647-11.571-3.672-16.657l-6.305-7.107
	c-8.05,0-8.584,7.597-24.15,8.05c-9.589,0.279-16.099,5.968-16.099,5.968l-3.378,0.845
	C276.369,430.72,276.181,433.73,276.482,436.701"/>
<path fill="#F26C7C" d="M286.214,387.107c0,0,6.282-4.428,18.357-2.415c12.074,2.012,16.099,0,18.112,0l-6.196,6.768l-12.923,12.212
	L286.214,387.107z"/>
<path fill="#FFFFFF" d="M324.976,374.681c-0.132,5.472-2.343,10.684-6.267,14.609L307.7,400.299l-2.129,2.128l2.129,2.129
	l11.009,11.009c1.264,1.264,2.366,2.681,3.275,4.209c1.861,3.131,2.891,6.745,2.986,10.399h-42.817
	c0.036-1.446,0.218-2.885,0.545-4.302c0.899-3.899,2.877-7.463,5.721-10.307l11.009-11.009l2.128-2.129l-2.128-2.128L288.42,389.29
	c-3.925-3.925-6.136-9.137-6.267-14.609H324.976 M327.866,371.671h-48.604c-0.714,7.048,1.628,14.347,7.028,19.747l11.009,11.009
	l-11.009,11.009c-3.357,3.358-5.532,7.449-6.526,11.758c-0.604,2.622-0.771,5.323-0.502,7.989h48.604
	c0.519-5.125-0.58-10.383-3.294-14.948c-1.019-1.711-2.263-3.326-3.735-4.799l-11.009-11.009l11.009-11.009
	C326.236,386.018,328.579,378.719,327.866,371.671"/>
<path fill="#191818" d="M327.866,371.671c0.713,7.048-1.629,14.348-7.029,19.747l-11.009,11.01l11.009,11.009
	c1.474,1.472,2.716,3.088,3.734,4.799c2.714,4.563,3.813,9.821,3.295,14.948h-48.604c-0.27-2.666-0.101-5.368,0.503-7.989
	c0.994-4.31,3.168-8.401,6.526-11.758l11.009-11.009l-11.009-11.01c-5.4-5.399-7.742-12.699-7.029-19.747H327.866 M331.121,368.069
	h-3.255h-48.604h-3.255l-0.328,3.239c-0.852,8.421,2.087,16.678,8.065,22.657l8.462,8.462l-8.462,8.461
	c-3.721,3.722-6.31,8.389-7.488,13.496c-0.693,3.008-0.888,6.09-0.577,9.161l0.328,3.238h3.255h48.604h3.255l0.328-3.238
	c0.602-5.946-0.742-12.038-3.782-17.151c-1.19-2.001-2.632-3.854-4.284-5.506l-8.462-8.461l8.464-8.464
	c5.977-5.978,8.916-14.234,8.064-22.656L331.121,368.069z"/>
<path fill="#F26C7C" d="M305.24,406.88c0,0.926-0.75,1.677-1.676,1.677s-1.677-0.751-1.677-1.677s0.751-1.676,1.677-1.676
	S305.24,405.954,305.24,406.88"/>
<path fill="#F26C7C" d="M305.24,412.356c0,0.926-0.75,1.676-1.676,1.676s-1.677-0.75-1.677-1.676s0.751-1.677,1.677-1.677
	S305.24,411.431,305.24,412.356"/>
<path fill="#191818" d="M334.095,371.722h-61.062c-1.385,0-2.508-1.123-2.508-2.508c0-1.386,1.123-2.509,2.508-2.509h61.062
	c1.385,0,2.508,1.123,2.508,2.509C336.603,370.599,335.479,371.722,334.095,371.722"/>
<path fill="#191818" d="M334.095,437.95h-61.062c-1.385,0-2.508-1.123-2.508-2.508c0-1.386,1.123-2.509,2.508-2.509h61.062
	c1.385,0,2.508,1.123,2.508,2.509C336.603,436.827,335.479,437.95,334.095,437.95"/>
<polygon fill="#FFFFFF" points="271.963,335.578 260.223,338.287 249.387,335.578 249.387,329.256 260.223,331.966 271.963,329.256 
	"/>
<polygon fill="#FFFFFF" points="271.963,344.608 260.223,347.318 249.387,344.608 249.387,338.287 260.223,340.997 271.963,338.287 
	"/>
<polygon fill="#F26C7C" points="356.327,335.578 344.587,338.287 333.751,335.578 333.751,329.256 344.587,331.966 356.327,329.256 
	"/>
<polygon fill="#F26C7C" points="356.327,344.608 344.587,347.318 333.751,344.608 333.751,338.287 344.587,340.997 356.327,338.287 
	"/>
</svg>
