<?xml version="1.0" encoding="utf-8"?>
<!-- Generator: Adobe Illustrator 16.0.0, SVG Export Plug-In . SVG Version: 6.00 Build 0)  -->
<!DOCTYPE svg PUBLIC "-//W3C//DTD SVG 1.1//EN" "http://www.w3.org/Graphics/SVG/1.1/DTD/svg11.dtd">
<svg version="1.1" id="Layer_1" xmlns="http://www.w3.org/2000/svg" xmlns:xlink="http://www.w3.org/1999/xlink" x="0px" y="0px"
	 width="612px" height="792px" viewBox="0 0 612 792" enable-background="new 0 0 612 792" xml:space="preserve">
<path fill="none" d="M346.63,60"/>
<path fill="none" d="M346.63,3305.597"/>
<path fill="#FFFFFF" d="M407.189,315.377c-0.312-2.898-2.676-4.153-5.252-2.79l-29.302,15.511l-27.573,14.597
	c-2.576,1.363-3.976,4.756-3.109,7.54l4.098,13.18c0.578,1.858,2.085,3.129,3.84,3.478l-2.283,0.816
	c-1.838,0.973-2.837,3.393-2.219,5.378l2.973,9.538c0.396,1.275,1.43,2.217,2.635,2.544c0,0,27.951-8.91,27.492-9.237
	c15.863-6.499,15.631-21.585,15.631-21.585c-0.152-1.415-1.012-2.344-2.131-2.478C409.938,340.871,407.189,315.377,407.189,315.377"
	/>
<polygon fill="#010101" points="399.758,347.678 349.871,373.895 398.062,344.678 "/>
<path fill="#010101" d="M410.059,315.068c0.029,0.279,0.715,6.909-0.91,14.999c-1.912,9.513-6.25,17.095-12.631,22.151
	c0.238,0.557,0.399,1.169,0.47,1.82l0.017,0.264c0.012,0.697,0.061,17.136-17.423,24.3l-0.016-0.038
	c-2.628,1.363-9.439,3.535-27.694,9.354l-0.809,0.258l-0.822-0.222c-2.184-0.592-3.959-2.305-4.634-4.471l-2.972-9.537
	c-0.799-2.566-0.021-5.462,1.797-7.388c-0.491-0.685-0.877-1.455-1.135-2.287l-4.1-13.179c-1.281-4.119,0.701-8.928,4.516-10.946
	l56.875-30.107c1.11-0.588,2.25-0.887,3.383-0.887C407.18,309.151,409.682,311.584,410.059,315.068"/>
<path fill="#010101" d="M348.836,370.334c-0.539,0.38-0.884,1.286-0.693,1.897l2.972,9.536c0.035,0.111,0.088,0.207,0.151,0.288
	c9.338-2.983,19.336-6.253,23.681-7.789l2.448-1.003c12.72-5.212,13.752-16.609,13.834-18.58l-7.815-0.943l7.068-4.33
	c16.204-9.93,13.866-33.487,13.84-33.724c-0.003-0.032-0.086-0.766-0.351-0.766c-0.082,0-0.316,0.021-0.685,0.216l-56.875,30.107
	c-1.344,0.712-2.155,2.682-1.704,4.134l4.1,13.181c0.244,0.786,0.858,1.349,1.645,1.504l10.234,2.031L348.836,370.334z"/>
<path fill="#FFFFFF" d="M202.953,312.587l29.301,15.511l27.572,14.597c2.577,1.363,3.977,4.756,3.111,7.54l-4.1,13.18
	c-0.578,1.858-2.084,3.129-3.838,3.478l2.282,0.816c1.837,0.973,2.837,3.393,2.218,5.378l-2.972,9.538
	c-0.397,1.275-1.429,2.217-2.635,2.544c0,0-27.951-8.91-27.492-9.237c-15.864-6.499-15.632-21.585-15.632-21.585
	c0.152-1.415,1.014-2.344,2.131-2.478c-17.949-10.998-15.201-36.492-15.201-36.492"/>
<polygon fill="#010101" points="209.336,344.677 257.526,373.894 207.641,347.677 "/>
<path fill="#010101" d="M204.302,310.038l56.874,30.108c3.814,2.018,5.797,6.827,4.516,10.947l-4.099,13.179
	c-0.259,0.832-0.646,1.601-1.136,2.286c1.817,1.926,2.596,4.823,1.8,7.386l-2.976,9.54c-0.673,2.164-2.447,3.878-4.633,4.47
	l-0.82,0.223l-0.811-0.259c-18.255-5.819-25.066-7.99-27.693-9.354l-0.017,0.038c-17.483-7.163-17.433-23.603-17.423-24.299
	l0.017-0.265c0.07-0.651,0.231-1.262,0.47-1.819c-6.381-5.057-10.72-12.639-12.631-22.151"/>
<path fill="#010101" d="M200.567,315.687c-0.024,0.233-2.307,23.83,13.839,33.723l7.067,4.33l-7.813,0.943
	c0.072,2.013,1.056,13.345,13.836,18.58l2.447,1.003c4.346,1.537,14.342,4.807,23.682,7.79c0.061-0.081,0.113-0.176,0.147-0.287
	l2.976-9.54c0.188-0.609-0.155-1.514-0.694-1.895l-11.849-4.239l10.232-2.032c0.786-0.155,1.402-0.718,1.646-1.505l4.098-13.179
	c0.452-1.452-0.359-3.423-1.705-4.134l-56.874-30.107"/>
<path fill="#F26C7C" d="M370.279,384.942c-10.15-32.988-1.838-41.101-0.036-42.339h-67.366h-68.482
	c1.803,1.238,10.365,9.351,0.217,42.339c-14.918,48.481,55.283,74.916,67.834,79.934c0.136-0.055,0.281-0.112,0.432-0.172
	C316.514,459.278,385.034,432.896,370.279,384.942"/>
<g opacity="0.5">
	<g>
		<defs>
			<rect id="SVGID_1_" x="301.76" y="341.02" width="69.471" height="122.1"/>
		</defs>
		<clipPath id="SVGID_2_">
			<use xlink:href="#SVGID_1_"  overflow="visible"/>
		</clipPath>
		<path clip-path="url(#SVGID_2_)" fill="#DF2E54" d="M369.166,383.358c-10.15-32.988-1.838-41.101-0.036-42.339h-67.366v122.102
			C315.4,457.694,383.921,431.313,369.166,383.358"/>
	</g>
</g>
<path fill="#F26C7C" d="M325.153,426.504h-46.261c-4.696,0-8.502-3.807-8.502-8.503v-38.097c0-4.696,3.806-8.503,8.502-8.503h46.261
	c4.696,0,8.502,3.807,8.502,8.503v38.097C333.655,422.697,329.85,426.504,325.153,426.504"/>
<path fill="#191818" d="M325.152,428.511h-46.26c-5.796,0-10.51-4.715-10.51-10.51v-38.097c0-5.795,4.714-10.51,10.51-10.51h46.26
	c5.795,0,10.511,4.715,10.511,10.51v38.097C335.663,423.796,330.947,428.511,325.152,428.511 M278.893,373.408
	c-3.582,0-6.496,2.914-6.496,6.496v38.097c0,3.582,2.914,6.496,6.496,6.496h46.26c3.582,0,6.496-2.914,6.496-6.496v-38.097
	c0-3.582-2.914-6.496-6.496-6.496H278.893z"/>
<path fill="#F26C7C" d="M333.656,372.378c0-4.696-3.808-8.503-8.503-8.503h-46.261c-4.696,0-8.503,3.807-8.503,8.503v7.125h63.267
	V372.378z"/>
<path fill="#FFFFFF" d="M270.391,380.005v30.472c0,4.695,3.807,8.502,8.502,8.502h46.26c4.697,0,8.504-3.807,8.504-8.502v-30.472
	H270.391z"/>
<path fill="#191818" d="M325.152,420.985h-46.26c-5.796,0-10.51-4.715-10.51-10.51v-38.097c0-5.795,4.714-10.51,10.51-10.51h46.26
	c5.795,0,10.511,4.715,10.511,10.51v38.097C335.663,416.271,330.947,420.985,325.152,420.985 M278.893,365.883
	c-3.582,0-6.496,2.914-6.496,6.496v38.097c0,3.582,2.914,6.496,6.496,6.496h46.26c3.582,0,6.496-2.914,6.496-6.496v-38.097
	c0-3.582-2.914-6.496-6.496-6.496H278.893z"/>
<path fill="#FFFFFF" d="M318.264,351.503c-2.748,0-4.977,2.229-4.977,4.978v10.429c0,2.749,2.229,4.977,4.977,4.977
	s4.977-2.228,4.977-4.977V356.48C323.24,353.731,321.012,351.503,318.264,351.503"/>
<path fill="#191818" d="M318.264,373.642c-3.712,0-6.732-3.02-6.732-6.733V356.48c0-3.713,3.021-6.733,6.732-6.733
	c3.713,0,6.731,3.02,6.731,6.733v10.429C324.995,370.622,321.977,373.642,318.264,373.642 M318.264,353.259
	c-1.775,0-3.221,1.445-3.221,3.222v10.429c0,1.776,1.445,3.221,3.221,3.221s3.221-1.445,3.221-3.221V356.48
	C321.484,354.704,320.039,353.259,318.264,353.259"/>
<path fill="#FFFFFF" d="M285.898,351.503c-2.748,0-4.977,2.229-4.977,4.978v10.429c0,2.749,2.229,4.977,4.977,4.977
	c2.749,0,4.977-2.228,4.977-4.977V356.48C290.875,353.731,288.647,351.503,285.898,351.503"/>
<path fill="#191818" d="M285.898,373.642c-3.712,0-6.732-3.02-6.732-6.733V356.48c0-3.713,3.021-6.733,6.732-6.733
	c3.713,0,6.732,3.02,6.732,6.733v10.429C292.631,370.622,289.611,373.642,285.898,373.642 M285.898,353.259
	c-1.775,0-3.221,1.445-3.221,3.222v10.429c0,1.776,1.445,3.221,3.221,3.221s3.221-1.445,3.221-3.221V356.48
	C289.119,354.704,287.674,353.259,285.898,353.259"/>
<rect x="277.292" y="384.041" fill="#F26C7C" width="7.524" height="7.525"/>
<rect x="287.577" y="384.041" fill="#F26C7C" width="7.524" height="7.525"/>
<rect x="297.862" y="384.041" fill="#F26C7C" width="7.524" height="7.525"/>
<rect x="308.146" y="384.041" fill="#F26C7C" width="7.525" height="7.525"/>
<rect x="318.432" y="384.041" fill="#F26C7C" width="7.525" height="7.525"/>
<rect x="277.292" y="394.325" fill="#F26C7C" width="7.524" height="7.524"/>
<rect x="287.577" y="394.325" fill="#F26C7C" width="7.524" height="7.524"/>
<rect x="297.862" y="394.325" fill="#F26C7C" width="7.524" height="7.524"/>
<rect x="308.146" y="394.325" fill="#F26C7C" width="7.525" height="7.524"/>
<rect x="318.432" y="394.325" fill="#F26C7C" width="7.525" height="7.524"/>
<rect x="277.292" y="404.61" fill="#F26C7C" width="7.524" height="7.524"/>
<rect x="287.577" y="404.61" fill="#F26C7C" width="7.524" height="7.524"/>
<rect x="297.862" y="404.61" fill="#F26C7C" width="7.524" height="7.524"/>
<rect x="308.146" y="404.61" fill="#F26C7C" width="7.525" height="7.524"/>
<rect x="318.432" y="404.61" fill="#F26C7C" width="7.525" height="7.524"/>
<g opacity="0.4">
	<g>
		<defs>
			<rect id="SVGID_3_" x="232.54" y="296.82" width="139.81" height="168.06"/>
		</defs>
		<clipPath id="SVGID_4_">
			<use xlink:href="#SVGID_3_"  overflow="visible"/>
		</clipPath>
		<path clip-path="url(#SVGID_4_)" fill="#FFFFFF" d="M302.445,310.885c8.377,4.037,25.287,10.076,54.196,12.174v14.625
			c-1.492,2.458-2.888,5.657-3.813,9.769c-2.388,10.613-0.953,24.591,4.264,41.547c2.33,7.568,1.855,14.6-1.444,21.499
			c-3.051,6.373-8.519,12.725-16.251,18.875c-12.736,10.132-28.211,17.049-36.951,20.637c-8.742-3.588-24.217-10.505-36.953-20.637
			c-7.732-6.15-13.201-12.502-16.25-18.875c-3.302-6.898-3.774-13.931-1.445-21.499c5.23-17.001,6.613-31.022,4.109-41.675
			c-0.964-4.098-2.391-7.283-3.908-9.729v-14.542C270.136,321.416,289.572,317.09,302.445,310.885 M302.445,296.824
			c-1.727,0-3.453,0.347-4.796,1.037c-9.942,5.12-29.271,10.588-57.983,11.864c-3.017,0.134-5.465,2.57-5.465,5.589v27.161
			c0,0,11.262,7.193,0.409,42.466c-14.917,48.482,55.285,74.915,67.835,79.934c12.549-5.019,82.75-31.451,67.834-79.934
			c-10.854-35.272,0.158-42.466,0.158-42.466v-27.161c0-3.019-2.449-5.455-5.465-5.589c-28.713-1.276-47.791-6.744-57.732-11.864
			C305.897,297.171,304.172,296.824,302.445,296.824"/>
	</g>
</g>
<path fill="#191818" d="M302.445,305.19c0.526,0,0.893,0.091,1.006,0.13c13.141,6.754,34.396,11.326,58.621,12.638v21.353
	c-1.469,2.076-2.99,5.087-3.945,9.333c-2.178,9.678-0.779,22.718,4.156,38.758c5.106,16.6-1.273,31.719-19.507,46.221
	c-14.387,11.444-31.92,18.869-40.331,22.248c-8.414-3.379-25.947-10.804-40.334-22.248c-18.232-14.502-24.613-29.621-19.505-46.221
	c4.943-16.066,6.294-29.133,4.013-38.836c-0.996-4.241-2.555-7.243-4.053-9.313v-21.295c24.393-1.318,45.743-5.89,58.872-12.638
	C301.551,305.281,301.918,305.19,302.445,305.19 M302.445,296.824c-1.727,0-3.453,0.346-4.796,1.037
	c-9.942,5.12-29.271,10.588-57.983,11.864c-3.017,0.134-5.465,2.57-5.465,5.589v27.161c0,0,11.262,7.193,0.409,42.466
	c-14.917,48.482,55.285,74.915,67.835,79.934c12.549-5.019,82.75-31.451,67.834-79.934c-10.854-35.272,0.158-42.466,0.158-42.466
	v-27.161c0-3.019-2.449-5.455-5.465-5.589c-28.713-1.276-47.791-6.744-57.732-11.864C305.897,297.17,304.17,296.824,302.445,296.824
	"/>
<path fill="#191818" d="M370.438,315.315c0-3.02-2.449-5.456-5.465-5.59c-28.713-1.275-47.791-6.743-57.732-11.864
	c-2.686-1.382-6.906-1.382-9.59,0c-9.943,5.121-29.272,10.589-57.983,11.864c-3.017,0.134-5.466,2.57-5.466,5.59v27.16
	c0,0,0.069,0.042,0.194,0.128h135.849c0.125-0.086,0.193-0.128,0.193-0.128V315.315z"/>
<path fill="#FFFFFF" d="M286.729,330.971l2.438-2.589c1.054,1.385,2.469,2.168,4.185,2.168c1.927,0,3.04-1.475,3.04-3.162
	c0-1.986-1.053-3.161-2.859-3.161c-1.355,0-2.379,0.482-3.312,1.656l-2.921-0.783v-11.409h12.043v3.551h-8.009v5.149
	c0.784-0.963,2.138-1.656,3.673-1.656c3.041,0,5.48,2.379,5.48,6.533c0,4.034-2.74,6.864-7.016,6.864
	C290.371,334.132,288.232,332.988,286.729,330.971"/>
<polygon fill="#FFFFFF" points="313.309,333.771 308.672,325.914 307.257,328.141 307.257,333.771 303.223,333.771 303.223,313.691 
	307.257,313.691 307.257,322.813 312.917,313.691 317.613,313.691 311.201,323.144 318.064,333.771 "/>
<polygon fill="#FFFFFF" points="273.391,321.988 265.933,320.857 262.611,313.76 259.291,320.857 251.832,321.988 257.223,327.522 
	255.875,335.317 262.611,331.637 269.348,335.317 268,327.522 "/>
<polygon fill="#FFFFFF" points="353.057,321.988 345.6,320.857 342.277,313.76 338.958,320.857 331.499,321.988 336.889,327.522 
	335.541,335.317 342.277,331.637 349.015,335.317 347.668,327.522 "/>
<path fill="#010101" d="M395.086,385.938c0.146,1.75-0.152,3.623,0.186,5.468c0.328,0.774,0.593,1.554,0.873,2.349
	c0.82,2.085,1.734,3.99,3.311,4.866c1.284-2.557,2.463-5.286,2.743-8.497c-0.084-2.099-0.508-4.062-1.249-5.928
	c-1.15-2.94-3.061-5.579-5.613-7.851c-0.082-0.079-0.143-0.11-0.186-0.17l-0.414-0.012c0.093,0.272,0.165,0.577,0.247,0.886
	C395.66,379.935,395.365,382.727,395.086,385.938"/>
<path fill="#010101" d="M395.284,403.718c-1.817-3.577-5.513-6.851-6.38-10.245l-0.531-0.223c-1.337,3.336-1.193,7.326-0.169,10.951
	c1.108,4.703,3.424,8.368,4.508,12.993c0.194,0.891,0.353,1.775,0.458,2.742c6.957-5.049,13.37-10.808,15.182-19.897l-12.192,6.13
	C395.996,405.321,395.666,404.482,395.284,403.718"/>
<path fill="#010101" d="M375.682,444.875c-0.916-0.017-1.783-0.026-2.639,0.015c3.212-4.571,2.291-10.163,4.059-15.119l-0.018-0.219
	c-5.329,2.008-8.124,6.701-10.73,11.657c-1.861,3.592-3.684,7.273-6.34,9.994c1.109,0.08,2.153,0.229,3.234,0.388
	c1.122,0.163,2.275,0.386,3.436,0.692c2.305,0.135,4.58,0.237,6.732,0.166c4.035-0.171,7.794-0.854,11.036-2.605
	c1.502-0.798,2.901-1.85,4.131-3.161c-0.948-0.154-1.992-0.342-3.028-0.524C382.291,445.604,378.857,445.033,375.682,444.875"/>
<path fill="#010101" d="M388.682,429.302c-1.494-5.036-4.275-10.122-3.865-15.641l-0.143-0.219l-0.374,0.165
	c-0.044,0.035-0.097,0.107-0.101,0.144c-0.293,0.5-0.602,0.786-1.137,1.3c-3.805,6.707-3.229,14.78-1.274,21.92
	c0.319,1.177,0.653,2.295,1.062,3.426c3.424-2.676,7.645-3.359,11.443-5.307c0.342-0.207,0.677-0.369,1.029-0.582
	c3.66-2.641,5.886-7.007,6.842-11.183c-2.373,0.757-4.701,1.368-6.877,2.187C392.941,426.357,390.68,427.499,388.682,429.302"/>
<path fill="#010101" d="M204.12,384.012c1.306-2.873,3.356-5.406,6.026-7.536c0.086-0.075,0.15-0.103,0.195-0.16l0.416,0.011
	c-0.107,0.266-0.197,0.566-0.295,0.871c-0.832,2.845-0.688,5.649-0.582,8.87"/>
<path fill="#010101" d="M209.881,386.067c-0.24,1.74-0.043,3.626-0.48,5.45c-0.37,0.755-0.676,1.521-0.998,2.299
	c-0.932,2.037-1.947,3.891-3.567,4.681c-1.146-2.622-2.175-5.41-2.282-8.632"/>
<path fill="#010101" d="M196.537,400.039l12.193,6.13c0.163-0.848,0.492-1.687,0.875-2.451"/>
<path fill="#010101" d="M209.605,403.718c1.817-3.577,5.512-6.851,6.379-10.245l0.532-0.223c1.337,3.336,1.192,7.326,0.168,10.951
	c-1.108,4.703-3.424,8.368-4.508,12.993c-0.192,0.891-0.353,1.775-0.458,2.742c-6.956-5.049-13.369-10.808-15.182-19.897"/>
<path fill="#010101" d="M229.209,444.875c0.915-0.017,1.782-0.026,2.637,0.015c-3.211-4.571-2.289-10.163-4.058-15.119l0.017-0.219
	c5.33,2.008,8.125,6.701,10.731,11.657c1.861,3.592,3.683,7.273,6.339,9.994c-1.109,0.08-2.152,0.229-3.234,0.388
	c-1.121,0.163-2.274,0.386-3.435,0.692c-2.306,0.135-4.581,0.237-6.731,0.166c-4.036-0.171-7.795-0.854-11.037-2.605
	c-1.502-0.798-2.902-1.85-4.131-3.161c0.949-0.154,1.992-0.342,3.027-0.524C222.6,445.604,226.032,445.033,229.209,444.875"/>
<path fill="#010101" d="M202.727,423.325c2.373,0.757,4.699,1.368,6.875,2.187c2.346,0.846,4.607,1.987,6.607,3.79"/>
<path fill="#010101" d="M216.209,429.302c1.493-5.036,4.273-10.122,3.863-15.641l0.143-0.219l0.375,0.165
	c0.045,0.035,0.096,0.107,0.101,0.144c0.292,0.5,0.601,0.786,1.136,1.3c3.805,6.707,3.23,14.78,1.275,21.92
	c-0.32,1.177-0.653,2.295-1.063,3.426c-3.423-2.676-7.645-3.359-11.443-5.307c-0.34-0.207-0.676-0.369-1.028-0.582
	c-3.66-2.641-5.886-7.007-6.841-11.183"/>
<polygon fill="#FFFFFF" points="355.437,473.988 303.143,488.172 250.85,472.483 250.85,444.963 303.143,460.65 355.437,444.963 "/>
<path fill="#010101" d="M303.143,489.096l-54.551-13.335v-33.674l54.551,13.334l54.551-13.334v33.674L303.143,489.096z
	 M253.107,472.216l50.035,12.231l50.035-12.231v-24.377l-50.035,12.23l-50.035-12.23V472.216z"/>
<polygon fill="#010101" points="331.923,451.15 357.76,442.172 344.687,432.391 323.673,450.402 "/>
<polygon fill="#010101" points="274.321,451.15 248.484,442.172 261.557,432.391 282.571,450.402 "/>
<polygon fill="#010101" points="274.992,461.576 272.402,456.039 269.813,461.576 263.994,462.459 268.198,466.775 267.147,472.856 
	272.402,469.984 277.657,472.856 276.606,466.775 280.811,462.459 "/>
<polygon fill="#010101" points="305.68,467.653 302.82,461.543 299.962,467.653 293.541,468.627 298.18,473.392 297.021,480.103 
	302.82,476.934 308.62,480.103 307.461,473.392 312.1,468.627 "/>
<polygon fill="#010101" points="336.018,461.576 333.427,456.039 330.837,461.576 325.02,462.459 329.223,466.775 328.172,472.856 
	333.427,469.984 338.682,472.856 337.631,466.775 341.835,462.459 "/>
</svg>
