<?xml version="1.0" encoding="utf-8"?>
<!-- Generator: Adobe Illustrator 16.0.0, SVG Export Plug-In . SVG Version: 6.00 Build 0)  -->
<!DOCTYPE svg PUBLIC "-//W3C//DTD SVG 1.1//EN" "http://www.w3.org/Graphics/SVG/1.1/DTD/svg11.dtd">
<svg version="1.1" id="Layer_1" xmlns="http://www.w3.org/2000/svg" xmlns:xlink="http://www.w3.org/1999/xlink" x="0px" y="0px"
	 width="240px" height="195px" viewBox="0 0 240 195" enable-background="new 0 0 240 195" xml:space="preserve">
<path fill="none" d="M78.63-2257.76"/>
<path fill="none" d="M78.63,987.837"/>
<path fill="none" d="M51.764,1616.837"/>
<path fill="none" d="M51.764-1628.76"/>
<line fill="#929497" x1="1530.52" y1="-66.557" x2="1530.52" y2="-65.807"/>
<line fill="#929497" x1="-611.484" y1="-65.807" x2="-611.484" y2="-66.557"/>
<path fill="#F26D7C" d="M187.787,103.942c-10.15-32.988-1.839-41.102-0.035-42.34h-67.367H51.903
	c1.803,1.238,10.366,9.352,0.216,42.34c-14.918,48.48,55.285,74.916,67.834,79.934c0.137-0.055,0.282-0.112,0.433-0.172
	C134.021,178.278,202.541,151.896,187.787,103.942"/>
<g opacity="0.5">
	<g>
		<g>
			<defs>
				<rect id="SVGID_1_" x="120.38" y="61.6" width="69.479" height="122.101"/>
			</defs>
			<clipPath id="SVGID_2_">
				<use xlink:href="#SVGID_1_"  overflow="visible"/>
			</clipPath>
			<path clip-path="url(#SVGID_2_)" fill="#DF2F55" d="M187.787,103.942c-10.15-32.988-1.838-41.102-0.036-42.34h-67.366v122.102
				C134.021,178.278,202.542,151.896,187.787,103.942"/>
		</g>
	</g>
</g>
<g opacity="0.4">
	<g>
		<g>
			<defs>
				<rect id="SVGID_3_" x="50.05" y="15.82" width="139.812" height="168.06"/>
			</defs>
			<clipPath id="SVGID_4_">
				<use xlink:href="#SVGID_3_"  overflow="visible"/>
			</clipPath>
			<path clip-path="url(#SVGID_4_)" fill="#FFFFFF" d="M119.952,29.886c8.377,4.036,25.288,10.075,54.196,12.173v14.625
				c-1.491,2.458-2.888,5.657-3.813,9.77c-2.388,10.613-0.953,24.591,4.266,41.547c2.328,7.567,1.854,14.6-1.445,21.498
				c-3.051,6.373-8.52,12.725-16.252,18.875c-12.736,10.132-28.209,17.049-36.951,20.637c-8.741-3.588-24.216-10.505-36.952-20.637
				c-7.732-6.151-13.201-12.502-16.251-18.875c-3.301-6.898-3.772-13.931-1.445-21.498c5.231-17.001,6.614-31.022,4.109-41.676
				c-0.963-4.099-2.39-7.283-3.908-9.729V42.053C87.644,40.416,107.08,36.09,119.952,29.886 M119.952,15.824
				c-1.726,0-3.452,0.347-4.795,1.037c-9.942,5.12-29.271,10.588-57.984,11.863c-3.016,0.135-5.465,2.57-5.465,5.59v27.16
				c0,0,11.263,7.193,0.41,42.467c-14.917,48.481,55.285,74.915,67.834,79.934c12.549-5.019,82.752-31.451,67.834-79.934
				c-10.853-35.272,0.159-42.467,0.159-42.467v-27.16c0-3.02-2.448-5.455-5.465-5.59c-28.713-1.275-47.791-6.743-57.733-11.863
				C123.404,16.171,121.678,15.824,119.952,15.824"/>
		</g>
	</g>
</g>
<path fill="#191818" d="M187.945,34.315c0-3.021-2.449-5.456-5.465-5.591c-28.713-1.274-47.791-6.742-57.732-11.863
	c-2.686-1.383-6.906-1.383-9.59,0c-9.942,5.121-29.272,10.589-57.984,11.863c-3.016,0.135-5.465,2.57-5.465,5.591v27.159
	c0,0,0.068,0.042,0.193,0.128h135.849c0.125-0.086,0.194-0.128,0.194-0.128V34.315z"/>
<path fill="#191818" d="M119.952,24.19c0.527,0,0.894,0.091,1.006,0.13c13.144,6.754,34.396,11.326,58.621,12.638v21.353
	c-1.468,2.076-2.989,5.088-3.944,9.333c-2.179,9.679-0.779,22.719,4.155,38.759c5.108,16.6-1.272,31.719-19.505,46.221
	c-14.387,11.444-31.921,18.869-40.333,22.248c-8.412-3.379-25.946-10.804-40.333-22.248c-18.232-14.502-24.612-29.621-19.505-46.221
	c4.944-16.066,6.294-29.134,4.013-38.836c-0.997-4.241-2.555-7.243-4.053-9.313V36.958c24.393-1.318,45.743-5.89,58.872-12.638
	C119.059,24.281,119.425,24.19,119.952,24.19 M119.952,15.824c-1.726,0-3.452,0.346-4.795,1.037
	c-9.942,5.12-29.271,10.588-57.984,11.863c-3.016,0.135-5.465,2.57-5.465,5.59v27.16c0,0,11.263,7.193,0.41,42.467
	c-14.917,48.481,55.285,74.915,67.834,79.934c12.549-5.019,82.752-31.451,67.834-79.934c-10.853-35.272,0.159-42.467,0.159-42.467
	v-27.16c0-3.02-2.448-5.455-5.465-5.59c-28.713-1.275-47.791-6.743-57.733-11.863C123.404,16.17,121.678,15.824,119.952,15.824"/>
<path fill="#FFFFFF" d="M105.093,52.771V49.52c7.346-7.136,8.881-8.729,8.881-11.019c0-1.536-1.174-2.529-2.679-2.529
	c-1.777,0-3.192,0.813-4.275,2.259l-2.409-2.529c1.626-2.167,4.004-3.313,6.744-3.313c3.884,0,6.714,2.35,6.714,6.082
	c0,3.04-2.048,5.63-7.015,10.747h7.105v3.553h-13.066V52.771z"/>
<path fill="#FFFFFF" d="M128.242,52.771v-4.275h-8.188v-3.371l7.043-12.434h5.178v12.253h2.019v3.552h-2.019v4.275H128.242z
	 M128.242,36.784l-4.547,8.159h4.547V36.784z"/>
<path fill="#FFFFFF" d="M137.934,120.436l-11.01-11.009l11.01-11.009c5.398-5.4,7.741-12.699,7.027-19.747H96.357
	c-0.713,7.048,1.629,14.347,7.029,19.747l11.009,11.009l-11.009,11.009c-3.357,3.357-5.532,7.449-6.526,11.759
	c-0.604,2.621-0.772,5.322-0.503,7.988h48.604c0.52-5.126-0.58-10.383-3.295-14.947
	C140.648,123.523,139.404,121.909,137.934,120.436"/>
<path fill="#F26D7C" d="M93.578,143.701h54.164c0.578-5.711-0.646-11.571-3.672-16.657l-6.305-7.107
	c-8.05,0-8.584,7.598-24.149,8.051c-9.589,0.278-16.099,5.968-16.099,5.968l-3.378,0.845
	C93.465,137.72,93.276,140.73,93.578,143.701"/>
<path fill="#F26D7C" d="M103.31,94.107c0,0,6.282-4.429,18.355-2.415c12.075,2.012,16.101,0,18.112,0l-6.196,6.768l-12.922,12.212
	L103.31,94.107z"/>
<path fill="#FFFFFF" d="M142.07,81.681c-0.131,5.473-2.342,10.685-6.266,14.609l-11.011,11.009l-2.129,2.128l2.129,2.129
	l11.011,11.01c1.264,1.265,2.364,2.681,3.273,4.209c1.861,3.131,2.89,6.744,2.986,10.398H99.248
	c0.036-1.446,0.218-2.885,0.545-4.302c0.899-3.899,2.877-7.463,5.722-10.307l11.009-11.01l2.128-2.129l-2.128-2.128l-11.009-11.009
	c-3.925-3.925-6.136-9.137-6.268-14.609L142.07,81.681 M144.961,78.671H96.357c-0.713,7.048,1.629,14.347,7.029,19.747
	l11.009,11.009l-11.009,11.009c-3.357,3.358-5.532,7.449-6.526,11.759c-0.604,2.622-0.772,5.322-0.503,7.988h48.604
	c0.52-5.125-0.58-10.383-3.294-14.947c-1.019-1.711-2.263-3.326-3.733-4.8l-11.01-11.009l11.01-11.009
	C143.332,93.018,145.674,85.719,144.961,78.671"/>
<path fill="#191818" d="M144.962,78.671c0.713,7.048-1.629,14.348-7.028,19.747l-11.01,11.01l11.01,11.01
	c1.474,1.472,2.715,3.088,3.733,4.799c2.714,4.563,3.813,9.82,3.295,14.947H96.358c-0.27-2.666-0.101-5.367,0.503-7.988
	c0.994-4.311,3.168-8.401,6.526-11.758l11.009-11.01l-11.009-11.01c-5.4-5.399-7.742-12.699-7.029-19.747H144.962 M148.217,75.069
	h-3.255H96.358h-3.255l-0.328,3.238c-0.852,8.421,2.087,16.679,8.065,22.657l8.462,8.462l-8.462,8.461
	c-3.721,3.723-6.31,8.39-7.488,13.496c-0.694,3.008-0.888,6.09-0.577,9.161l0.328,3.238h3.255h48.604h3.255l0.328-3.238
	c0.602-5.946-0.742-12.038-3.781-17.15c-1.19-2.002-2.633-3.854-4.285-5.507l-8.461-8.461l8.463-8.464
	c5.978-5.978,8.916-14.233,8.064-22.656L148.217,75.069z"/>
<path fill="#F26D7C" d="M122.336,113.88c0,0.926-0.75,1.677-1.676,1.677c-0.926,0-1.677-0.751-1.677-1.677s0.751-1.676,1.677-1.676
	C121.586,112.204,122.336,112.954,122.336,113.88"/>
<path fill="#F26D7C" d="M122.336,119.356c0,0.926-0.75,1.676-1.676,1.676c-0.926,0-1.677-0.75-1.677-1.676
	c0-0.927,0.751-1.678,1.677-1.678C121.586,117.68,122.336,118.431,122.336,119.356"/>
<path fill="#191818" d="M151.189,78.722H90.128c-1.385,0-2.508-1.123-2.508-2.508c0-1.386,1.123-2.509,2.508-2.509h61.062
	c1.386,0,2.509,1.123,2.509,2.509C153.698,77.599,152.575,78.722,151.189,78.722"/>
<path fill="#191818" d="M151.189,144.95H90.128c-1.385,0-2.508-1.123-2.508-2.508c0-1.387,1.123-2.51,2.508-2.51h61.062
	c1.386,0,2.509,1.123,2.509,2.51C153.698,143.827,152.575,144.95,151.189,144.95"/>
<polygon fill="#F26D7C" points="89.059,42.578 77.318,45.287 66.482,42.578 66.482,36.256 77.318,38.966 89.059,36.256 "/>
<polygon fill="#F26D7C" points="89.059,51.608 77.318,54.318 66.482,51.608 66.482,45.287 77.318,47.997 89.059,45.287 "/>
<polygon fill="#F26D7C" points="173.423,42.578 161.684,45.287 150.848,42.578 150.848,36.256 161.684,38.966 173.423,36.256 "/>
<polygon fill="#F26D7C" points="173.423,51.608 161.684,54.318 150.848,51.608 150.848,45.287 161.684,47.997 173.423,45.287 "/>
</svg>
