<?xml version="1.0" encoding="utf-8"?>
<!-- Generator: Adobe Illustrator 16.0.0, SVG Export Plug-In . SVG Version: 6.00 Build 0)  -->
<!DOCTYPE svg PUBLIC "-//W3C//DTD SVG 1.1//EN" "http://www.w3.org/Graphics/SVG/1.1/DTD/svg11.dtd">
<svg version="1.1" id="Layer_1" xmlns="http://www.w3.org/2000/svg" xmlns:xlink="http://www.w3.org/1999/xlink" x="0px" y="0px"
	 width="612px" height="792px" viewBox="0 0 612 792" enable-background="new 0 0 612 792" xml:space="preserve">
<path fill="#F26C7C" d="M370.215,386.942c-10.15-32.988-1.839-41.101-0.037-42.339h-67.365H234.33
	c1.803,1.238,10.365,9.351,0.216,42.339c-14.918,48.481,55.284,74.916,67.834,79.934c0.136-0.055,0.282-0.112,0.433-0.172
	C316.449,461.278,384.969,434.896,370.215,386.942"/>
<g opacity="0.5">
	<g>
		<defs>
			<rect id="SVGID_1_" x="261.15" y="344.6" width="111.129" height="122.1"/>
		</defs>
		<clipPath id="SVGID_2_">
			<use xlink:href="#SVGID_1_"  overflow="visible"/>
		</clipPath>
		<path clip-path="url(#SVGID_2_)" fill="#DF2E54" d="M370.214,386.942c-10.149-32.988-1.838-41.102-0.035-42.339h-67.366v8.929
			c-0.086-0.001-0.173-0.005-0.26-0.005c-5.468,0-10.818,1.073-15.9,3.188c-5.156,2.147-9.742,5.243-13.629,9.202
			c-3.75,3.821-6.69,8.278-8.738,13.246c-2.047,4.969-3.1,10.203-3.131,15.557c-0.031,5.546,1.041,10.975,3.188,16.132
			c3.204,7.696,8.574,14.17,15.528,18.72c6.777,4.435,14.631,6.778,22.709,6.778c0.078,0,0.154-0.002,0.232-0.002v30.354
			C316.449,461.278,384.969,434.896,370.214,386.942 M302.58,428.325c-13.076,0-25.487-7.733-30.827-20.558
			c-7.084-17.018,0.968-36.557,17.985-43.641c4.192-1.746,8.539-2.573,12.814-2.573c0.087,0,0.174,0.004,0.26,0.005v66.763
			C302.734,428.323,302.656,428.325,302.58,428.325"/>
	</g>
</g>
<path fill="#FFFFFF" d="M315.662,425.268c-17.019,7.086-36.558-0.967-43.643-17.984s0.968-36.556,17.984-43.642
	c17.019-7.085,36.557,0.967,43.642,17.985C340.73,398.645,332.678,418.183,315.662,425.268"/>
<g opacity="0.4">
	<g>
		<defs>
			<rect id="SVGID_3_" x="232.48" y="298.82" width="139.799" height="168.06"/>
		</defs>
		<clipPath id="SVGID_4_">
			<use xlink:href="#SVGID_3_"  overflow="visible"/>
		</clipPath>
		<path clip-path="url(#SVGID_4_)" fill="#FFFFFF" d="M302.38,312.885c8.377,4.037,25.288,10.076,54.196,12.174v14.625
			c-1.492,2.458-2.888,5.657-3.813,9.769c-2.388,10.613-0.952,24.591,4.265,41.547c2.329,7.568,1.856,14.6-1.445,21.499
			c-3.049,6.373-8.518,12.725-16.25,18.875c-12.737,10.132-28.211,17.049-36.952,20.637c-8.741-3.588-24.216-10.505-36.952-20.637
			c-7.732-6.15-13.201-12.502-16.251-18.875c-3.302-6.898-3.774-13.931-1.444-21.499c5.23-17.001,6.613-31.022,4.108-41.675
			c-0.962-4.098-2.39-7.283-3.908-9.729v-14.542C270.07,323.416,289.508,319.09,302.38,312.885 M302.38,298.824
			c-1.726,0-3.453,0.347-4.796,1.037c-9.941,5.12-29.271,10.588-57.982,11.864c-3.018,0.134-5.466,2.57-5.466,5.589v27.161
			c0,0,11.263,7.193,0.409,42.466c-14.916,48.482,55.285,74.915,67.835,79.934c12.549-5.019,82.751-31.451,67.834-79.934
			c-10.853-35.272,0.159-42.466,0.159-42.466v-27.161c0-3.019-2.449-5.455-5.465-5.589c-28.713-1.276-47.791-6.744-57.733-11.864
			C305.832,299.171,304.106,298.824,302.38,298.824"/>
	</g>
</g>
<polygon fill="#F26C7C" points="302.653,361.887 302.025,391.361 306.918,395.501 334.762,395.877 335.514,388.602 327.989,373.802 
	315.195,364.145 "/>
<path fill="#191818" d="M302.326,370.255c0,0-0.003,0.02-0.005,0.053h0.011C302.328,370.275,302.326,370.255,302.326,370.255"/>
<path fill="#191818" d="M302.328,370.282c0.002,0.014,0.537,0.026,1.196,0.026c0.657,0,1.192-0.561,1.192-1.254v-5.77
	c0-0.692-0.562-1.254-1.254-1.254h-1.637c-0.693,0-1.254,0.562-1.254,1.254v5.77c0,0.693,0.391,1.254,0.874,1.254
	s0.876-0.012,0.877-0.026C302.324,370.267,302.327,370.267,302.328,370.282"/>
<path fill="#191818" d="M335.506,395.709v-1.636c0-0.693-0.563-1.255-1.255-1.255h-5.687c-0.692,0-1.254,0.562-1.254,1.255v1.636
	c0,0.693,0.562,1.254,1.254,1.254h5.687C334.943,396.963,335.506,396.402,335.506,395.709"/>
<path fill="#191818" d="M269.783,394.073v1.636c0,0.693,0.563,1.255,1.254,1.255h5.52c0.691,0,1.254-0.562,1.254-1.255v-1.636
	c0-0.693-0.563-1.254-1.254-1.254h-5.52C270.346,392.819,269.783,393.38,269.783,394.073"/>
<path fill="#191818" d="M301.826,427.752h1.637c0.691,0,1.254-0.562,1.254-1.254v-5.436c0-0.692-0.563-1.254-1.254-1.254h-1.637
	c-0.692,0-1.254,0.562-1.254,1.254v5.436C300.572,427.19,301.134,427.752,301.826,427.752"/>
<path fill="#191818" d="M286.214,366.433c-0.601,0.346-0.806,1.113-0.46,1.713l2.85,4.936c0.346,0.6,1.115,0.808,1.717,0.466
	c0.603-0.343,0.811-1.107,0.463-1.707l-2.856-4.948C287.58,366.292,286.813,366.087,286.214,366.433"/>
<path fill="#191818" d="M274.186,378.46c-0.346,0.6-0.141,1.367,0.459,1.713l4.868,2.811c0.599,0.346,1.363,0.138,1.705-0.464
	s0.133-1.371-0.467-1.718l-4.853-2.801C275.299,377.655,274.531,377.86,274.186,378.46"/>
<path fill="#191818" d="M274.186,411.321c0.346,0.601,1.113,0.806,1.713,0.46l4.721-2.726c0.599-0.346,0.804-1.112,0.455-1.711
	c-0.348-0.599-1.116-0.804-1.717-0.458l-4.713,2.722C274.045,409.955,273.84,410.722,274.186,411.321"/>
<path fill="#191818" d="M286.214,423.35c0.6,0.346,1.366,0.141,1.713-0.459l2.71-4.693c0.347-0.601,0.141-1.365-0.461-1.709
	c-0.602-0.346-1.369-0.138-1.715,0.463l-2.707,4.686C285.408,422.236,285.613,423.004,286.214,423.35"/>
<path fill="#191818" d="M319.075,423.35c0.6-0.346,0.805-1.113,0.459-1.713l-2.745-4.755c-0.346-0.601-1.115-0.808-1.717-0.466
	c-0.603,0.343-0.809,1.106-0.463,1.707l2.752,4.768C317.708,423.49,318.475,423.695,319.075,423.35"/>
<path fill="#191818" d="M331.104,411.321c0.346-0.6,0.141-1.366-0.46-1.713l-4.851-2.801c-0.6-0.346-1.363-0.139-1.705,0.464
	c-0.342,0.602-0.133,1.371,0.467,1.719l4.835,2.791C329.99,412.127,330.757,411.922,331.104,411.321"/>
<path fill="#191818" d="M331.104,378.46c-0.347-0.6-1.113-0.805-1.714-0.459l-4.989,2.881c-0.601,0.346-0.805,1.113-0.457,1.712
	c0.348,0.598,1.116,0.803,1.717,0.457l4.983-2.878C331.244,379.828,331.449,379.061,331.104,378.46"/>
<path fill="#191818" d="M319.075,366.433c-0.601-0.346-1.367-0.141-1.714,0.459l-2.896,5.017c-0.347,0.6-0.14,1.365,0.461,1.71
	c0.602,0.344,1.37,0.137,1.717-0.463l2.892-5.01C319.88,367.546,319.675,366.779,319.075,366.433"/>
<path fill="#191818" d="M302.58,430.398c-14.367,0-27.219-8.57-32.74-21.834c-3.64-8.742-3.656-18.377-0.049-27.132
	c3.607-8.754,10.408-15.58,19.15-19.219c4.354-1.813,8.933-2.732,13.611-2.732c14.366,0,27.219,8.57,32.739,21.833
	c7.513,18.044-1.056,38.837-19.101,46.351C311.837,429.479,307.258,430.398,302.58,430.398 M302.553,363.627
	c-4.129,0-8.173,0.812-12.019,2.413c-7.72,3.214-13.726,9.242-16.911,16.972c-3.186,7.731-3.171,16.24,0.043,23.96
	c4.877,11.713,16.227,19.281,28.914,19.281c4.128,0,8.172-0.812,12.018-2.413c15.936-6.634,23.504-24.997,16.868-40.932
	C326.589,371.195,315.241,363.627,302.553,363.627"/>
<rect x="293.204" y="391.499" transform="matrix(0.544 0.8391 -0.8391 0.544 470.2726 -64.7545)" fill="#F26C7C" width="3.011" height="17.534"/>
<path fill="#191818" d="M298.184,395.621c0.006,2.295,1.872,4.151,4.168,4.146c2.295-0.007,4.15-1.873,4.143-4.168
	c-0.006-2.296-4.023-18.447-4.023-18.447S298.177,393.326,298.184,395.621"/>
<path fill="#191818" d="M303.033,391.594c-2.295-0.029-4.18,1.808-4.209,4.103c-0.029,2.296,1.808,4.18,4.103,4.209
	c2.296,0.029,18.511-4.04,18.511-4.04S305.328,391.623,303.033,391.594"/>
<path fill="#191818" d="M302.38,307.19c0.526,0,0.894,0.091,1.006,0.13c13.142,6.754,34.396,11.326,58.621,12.638v21.353
	c-1.468,2.076-2.99,5.087-3.945,9.333c-2.178,9.679-0.778,22.718,4.156,38.758c5.106,16.6-1.272,31.719-19.505,46.221
	c-14.387,11.444-31.92,18.869-40.333,22.248c-8.412-3.379-25.946-10.804-40.333-22.248c-18.232-14.502-24.612-29.621-19.506-46.221
	c4.943-16.066,6.295-29.133,4.014-38.836c-0.997-4.241-2.555-7.243-4.053-9.313v-21.295c24.393-1.318,45.742-5.89,58.871-12.638
	C301.486,307.281,301.853,307.19,302.38,307.19 M302.38,298.824c-1.726,0-3.453,0.346-4.796,1.037
	c-9.941,5.12-29.271,10.588-57.982,11.864c-3.018,0.134-5.466,2.57-5.466,5.589v27.161c0,0,11.264,7.193,0.409,42.466
	c-14.916,48.482,55.285,74.915,67.835,79.934c12.549-5.019,82.751-31.451,67.834-79.934c-10.853-35.272,0.159-42.466,0.159-42.466
	v-27.161c0-3.019-2.449-5.455-5.465-5.589c-28.713-1.276-47.791-6.744-57.733-11.864C305.832,299.17,304.106,298.824,302.38,298.824
	"/>
<path fill="#191818" d="M370.373,317.315c0-3.02-2.449-5.456-5.465-5.59c-28.713-1.275-47.791-6.743-57.733-11.864
	c-2.685-1.382-6.905-1.382-9.59,0c-9.942,5.121-29.272,10.589-57.983,11.864c-3.017,0.134-5.466,2.57-5.466,5.59v27.16
	c0,0,0.069,0.042,0.194,0.128h135.849c0.125-0.086,0.194-0.128,0.194-0.128V317.315z"/>
<path fill="#FFFFFF" d="M278.488,332.881l2.409-2.529c1.024,1.325,2.619,2.198,4.306,2.198c2.106,0,3.07-1.114,3.07-2.679
	c0-1.867-1.295-2.53-3.252-2.53c-0.662,0-1.564,0-1.865,0.061v-3.643c0.301,0.03,1.293,0.03,1.775,0.03
	c1.836,0,3.07-0.752,3.07-2.318c0-1.686-1.203-2.499-2.95-2.499c-1.565,0-2.98,0.723-4.003,2.017l-2.289-2.348
	c1.445-2.017,3.734-3.252,6.623-3.252c3.974,0,6.594,1.897,6.594,5.45c0,2.288-1.717,4.154-3.794,4.576
	c2.047,0.301,4.095,2.106,4.095,4.816c0,3.492-2.68,5.9-6.895,5.9C282.191,336.132,279.754,334.717,278.488,332.881"/>
<path fill="#FFFFFF" d="M294.293,325.745c0-5.178,2.137-10.355,7.104-10.355c4.998,0,7.105,5.178,7.105,10.355
	c0,5.148-2.078,10.388-7.105,10.388C296.43,336.133,294.293,330.894,294.293,325.745 M304.408,325.745
	c0-3.883-0.662-6.772-3.012-6.772c-2.318,0-2.98,2.89-2.98,6.772c0,3.854,0.662,6.805,2.98,6.805
	C303.746,332.55,304.408,329.6,304.408,325.745"/>
<path fill="#FFFFFF" d="M310.457,325.745c0-5.178,2.137-10.355,7.104-10.355c4.998,0,7.105,5.178,7.105,10.355
	c0,5.148-2.076,10.388-7.105,10.388C312.594,336.133,310.457,330.894,310.457,325.745 M320.572,325.745
	c0-3.883-0.662-6.772-3.012-6.772c-2.318,0-2.98,2.89-2.98,6.772c0,3.854,0.662,6.805,2.98,6.805
	C319.91,332.55,320.572,329.6,320.572,325.745"/>
<polygon fill="#FFFFFF" points="273.326,323.988 265.867,322.857 262.547,315.76 259.226,322.857 251.768,323.988 257.157,329.522 
	255.81,337.317 262.547,333.637 269.283,337.317 267.936,329.522 "/>
<polygon fill="#FFFFFF" points="352.992,323.988 345.534,322.857 342.213,315.76 338.893,322.857 331.434,323.988 336.824,329.522 
	335.477,337.317 342.213,333.637 348.949,337.317 347.604,329.522 "/>
<path fill="#010101" d="M226.605,437.842c0.915-0.018,1.782-0.027,2.637,0.014c-3.211-4.571-2.291-10.163-4.058-15.119l0.017-0.219
	c5.33,2.008,8.125,6.701,10.731,11.656c1.861,3.593,3.683,7.274,6.339,9.994c-1.109,0.08-2.152,0.229-3.234,0.389
	c-1.121,0.163-2.275,0.386-3.435,0.691c-2.306,0.136-4.581,0.238-6.733,0.168c-4.034-0.172-7.793-0.855-11.035-2.606
	c-1.502-0.798-2.902-1.849-4.131-3.161c0.947-0.154,1.992-0.342,3.027-0.523C219.994,438.569,223.429,438,226.605,437.842"/>
<path fill="#010101" d="M216.55,420.295c1.062,1.399,2.534,2.594,3.517,4.192c0.273,0.794,0.6,1.551,0.922,2.329
	c0.784,2.099,1.379,4.127,0.791,5.831c-2.664-1.041-5.365-2.283-7.72-4.483c-1.341-1.617-2.338-3.361-3.035-5.244
	c-1.11-2.955-1.454-6.194-1.075-9.59c0.008-0.113,0.032-0.178,0.024-0.252l0.3-0.285c0.113,0.265,0.264,0.539,0.409,0.824
	C212.108,416.215,214.194,418.096,216.55,420.295"/>
<path fill="#010101" d="M376.729,437.842c-0.916-0.018-1.783-0.027-2.638,0.014c3.212-4.571,2.291-10.163,4.058-15.119l-0.017-0.219
	c-5.329,2.008-8.124,6.701-10.731,11.656c-1.861,3.593-3.683,7.274-6.339,9.994c1.109,0.08,2.153,0.229,3.234,0.389
	c1.122,0.163,2.274,0.386,3.435,0.691c2.307,0.136,4.581,0.238,6.732,0.168c4.035-0.172,7.795-0.855,11.037-2.606
	c1.502-0.798,2.902-1.849,4.131-3.161c-0.949-0.154-1.992-0.342-3.028-0.523C383.338,438.569,379.904,438,376.729,437.842"/>
<path fill="#010101" d="M388.21,420.295c-1.062,1.399-2.535,2.594-3.517,4.192c-0.274,0.794-0.6,1.551-0.922,2.329
	c-0.785,2.099-1.379,4.127-0.792,5.831c2.664-1.041,5.365-2.283,7.72-4.483c1.342-1.617,2.34-3.361,3.035-5.244
	c1.111-2.955,1.454-6.194,1.076-9.59c-0.008-0.113-0.033-0.178-0.025-0.252l-0.299-0.285c-0.113,0.265-0.264,0.539-0.41,0.824
	C392.65,416.215,390.564,418.096,388.21,420.295"/>
<path fill="#1A1A19" d="M302.354,471.469c-3.51-1.403-11.533-5.484-20.94-10.254v14.698c11.415,7.015,20.567,11.113,20.567,11.113
	l0.398-0.001l0.399,0.001c0,0,9.153-4.099,20.567-11.113v-14.726c-9.063,4.597-16.848,8.632-20.561,10.109
	C302.635,471.356,302.489,471.415,302.354,471.469"/>
<path fill="#1A1A19" d="M249.084,450.546c8.118,9.569,19.146,17.858,29.014,24.17v-15.223c-9.689-5.162-20.402-12.017-29.014-20.576
	V450.546z"/>
<path fill="#1A1A19" d="M326.662,474.717c9.869-6.313,20.895-14.602,29.014-24.17V438.86c-8.606,8.57-19.316,15.433-29.014,20.603
	V474.717z"/>
</svg>
