<?xml version="1.0" encoding="utf-8"?>
<!-- Generator: Adobe Illustrator 16.0.0, SVG Export Plug-In . SVG Version: 6.00 Build 0)  -->
<!DOCTYPE svg PUBLIC "-//W3C//DTD SVG 1.1//EN" "http://www.w3.org/Graphics/SVG/1.1/DTD/svg11.dtd">
<svg version="1.1" id="Layer_1" xmlns="http://www.w3.org/2000/svg" xmlns:xlink="http://www.w3.org/1999/xlink" x="0px" y="0px"
	 width="240px" height="230px" viewBox="0 0 240 230" enable-background="new 0 0 240 230" xml:space="preserve">
<path fill="#FFFFFF" d="M225.189,38.377c-0.313-2.898-2.677-4.153-5.253-2.79l-29.302,15.511l-27.572,14.598
	c-2.576,1.362-3.977,4.756-3.109,7.54l4.098,13.18c0.578,1.858,2.085,3.129,3.84,3.478l-2.283,0.816
	c-1.838,0.973-2.836,3.393-2.219,5.378l2.973,9.538c0.396,1.275,1.431,2.217,2.636,2.544c0,0,27.95-8.91,27.491-9.237
	c15.863-6.499,15.632-21.585,15.632-21.585c-0.152-1.415-1.012-2.344-2.132-2.478C227.938,63.871,225.189,38.377,225.189,38.377"/>
<polygon fill="#010101" points="217.758,70.678 167.871,96.895 216.063,67.678 "/>
<path fill="#010101" d="M169.063,111.176l-0.821-0.222c-2.185-0.592-3.959-2.305-4.634-4.471l-2.973-9.537
	c-0.799-2.566-0.021-5.462,1.797-7.389c-0.49-0.685-0.877-1.454-1.135-2.286l-4.1-13.18c-1.281-4.119,0.701-8.928,4.516-10.945
	l56.875-30.107c1.11-0.588,2.25-0.887,3.383-0.887c3.209,0,5.711,2.433,6.088,5.917c0.029,0.278,0.716,6.909-0.909,14.999
	c-1.912,9.513-6.25,17.095-12.632,22.15c0.238,0.558,0.399,1.169,0.471,1.82l0.017,0.264c0.012,0.697,0.062,17.137-17.423,24.301
	l-0.016-0.038c-2.629,1.362-9.439,3.534-27.694,9.354L169.063,111.176z M166.836,93.334c-0.539,0.38-0.884,1.286-0.693,1.897
	l2.973,9.535c0.035,0.111,0.088,0.207,0.15,0.288c9.338-2.982,19.336-6.253,23.682-7.789l2.447-1.003
	c12.721-5.212,13.752-16.608,13.834-18.58l-7.814-0.942l7.068-4.33c16.203-9.93,13.865-33.487,13.84-33.724
	c-0.003-0.032-0.086-0.767-0.352-0.767c-0.082,0-0.315,0.021-0.685,0.216l-56.875,30.107c-1.345,0.712-2.155,2.682-1.704,4.134
	l4.1,13.181c0.244,0.786,0.858,1.35,1.646,1.505l10.233,2.03L166.836,93.334z"/>
<path fill="#FFFFFF" d="M15.699,38.377c0.313-2.898,2.678-4.153,5.254-2.79l29.301,15.511l27.572,14.598
	c2.577,1.362,3.977,4.756,3.111,7.54l-4.1,13.18c-0.578,1.858-2.084,3.129-3.838,3.478l2.282,0.816
	c1.837,0.973,2.837,3.393,2.218,5.378l-2.972,9.538c-0.397,1.275-1.429,2.217-2.635,2.544c0,0-27.951-8.91-27.492-9.237
	c-15.864-6.499-15.632-21.585-15.632-21.585c0.152-1.415,1.014-2.344,2.131-2.478C12.951,63.871,15.699,38.377,15.699,38.377"/>
<polygon fill="#010101" points="27.336,67.677 75.526,96.894 25.641,70.677 "/>
<path fill="#010101" d="M71.828,111.177l-0.811-0.259c-18.255-5.819-25.066-7.99-27.693-9.354l-0.017,0.037
	c-17.483-7.162-17.433-23.603-17.423-24.299l0.017-0.265c0.07-0.651,0.231-1.262,0.47-1.819c-6.381-5.057-10.72-12.639-12.631-22.15
	c-1.625-8.092-0.939-14.722-0.908-14.999c0.375-3.484,2.879-5.917,6.086-5.917c1.134,0,2.272,0.298,3.384,0.886l56.874,30.107
	c3.814,2.019,5.797,6.827,4.516,10.947l-4.099,13.179c-0.259,0.832-0.646,1.602-1.136,2.286c1.817,1.927,2.596,4.823,1.8,7.387
	l-2.976,9.54c-0.673,2.164-2.447,3.878-4.633,4.47L71.828,111.177z M47.943,97.266c4.346,1.537,14.342,4.808,23.682,7.79
	c0.061-0.081,0.113-0.176,0.147-0.287l2.976-9.54c0.188-0.608-0.155-1.514-0.694-1.895l-11.849-4.239l10.232-2.032
	c0.786-0.154,1.402-0.718,1.646-1.505l4.098-13.179c0.452-1.452-0.359-3.423-1.705-4.134L19.602,38.138
	c-0.368-0.194-0.601-0.216-0.685-0.216c-0.264,0-0.348,0.735-0.351,0.766c-0.024,0.233-2.307,23.83,13.839,33.724l7.067,4.33
	l-7.813,0.942c0.072,2.014,1.056,13.346,13.836,18.58L47.943,97.266z"/>
<path fill="#F26C7C" d="M188.279,107.942c-10.15-32.988-1.838-41.102-0.036-42.34h-67.366H52.395
	c1.803,1.238,10.365,9.352,0.217,42.34c-14.918,48.48,55.283,74.916,67.834,79.934c0.136-0.055,0.281-0.112,0.432-0.172
	C134.514,182.278,203.034,155.896,188.279,107.942"/>
<g opacity="0.5">
	<g>
		<g>
			<defs>
				<rect id="SVGID_1_" x="119.76" y="64.02" width="69.471" height="122.101"/>
			</defs>
			<clipPath id="SVGID_2_">
				<use xlink:href="#SVGID_1_"  overflow="visible"/>
			</clipPath>
			<path clip-path="url(#SVGID_2_)" fill="#DF2E54" d="M187.166,106.358c-10.15-32.988-1.838-41.102-0.036-42.34h-67.366v122.103
				C133.4,180.694,201.921,154.313,187.166,106.358"/>
		</g>
	</g>
</g>
<path fill="#F26C7C" d="M143.152,149.504h-46.26c-4.696,0-8.502-3.807-8.502-8.503v-38.097c0-4.696,3.806-8.503,8.502-8.503h46.26
	c4.697,0,8.503,3.807,8.503,8.503v38.097C151.654,145.697,147.85,149.504,143.152,149.504"/>
<path fill="#191818" d="M143.152,151.511h-46.26c-5.796,0-10.51-4.715-10.51-10.51v-38.097c0-5.795,4.714-10.511,10.51-10.511h46.26
	c5.795,0,10.511,4.716,10.511,10.511v38.097C153.663,146.796,148.947,151.511,143.152,151.511 M96.893,96.408
	c-3.582,0-6.496,2.914-6.496,6.496v38.097c0,3.582,2.914,6.496,6.496,6.496h46.259c3.582,0,6.496-2.914,6.496-6.496v-38.097
	c0-3.582-2.914-6.496-6.496-6.496H96.893z"/>
<path fill="#F26C7C" d="M151.656,95.378c0-4.696-3.809-8.503-8.504-8.503h-46.26c-4.696,0-8.503,3.807-8.503,8.503v7.125h63.267
	V95.378L151.656,95.378z"/>
<path fill="#FFFFFF" d="M88.391,103.005v30.472c0,4.695,3.807,8.502,8.502,8.502h46.259c4.697,0,8.505-3.807,8.505-8.502v-30.472
	H88.391z"/>
<path fill="#191818" d="M143.152,143.985h-46.26c-5.796,0-10.51-4.716-10.51-10.511V95.378c0-5.795,4.714-10.51,10.51-10.51h46.26
	c5.795,0,10.511,4.715,10.511,10.51v38.097C153.663,139.271,148.947,143.985,143.152,143.985 M96.893,88.883
	c-3.582,0-6.496,2.914-6.496,6.496v38.097c0,3.582,2.914,6.496,6.496,6.496h46.259c3.582,0,6.496-2.914,6.496-6.496V95.379
	c0-3.582-2.914-6.496-6.496-6.496H96.893L96.893,88.883z"/>
<path fill="#FFFFFF" d="M136.264,74.503c-2.748,0-4.977,2.229-4.977,4.979V89.91c0,2.749,2.229,4.977,4.977,4.977
	s4.978-2.228,4.978-4.977V79.48C141.24,76.731,139.012,74.503,136.264,74.503"/>
<path fill="#191818" d="M136.264,96.642c-3.712,0-6.731-3.02-6.731-6.732V79.48c0-3.714,3.021-6.733,6.731-6.733
	c3.713,0,6.731,3.02,6.731,6.733v10.429C142.995,93.622,139.977,96.642,136.264,96.642 M136.264,76.259
	c-1.774,0-3.221,1.445-3.221,3.223V89.91c0,1.775,1.445,3.221,3.221,3.221c1.776,0,3.221-1.445,3.221-3.221V79.48
	C139.484,77.704,138.039,76.259,136.264,76.259"/>
<path fill="#FFFFFF" d="M103.898,74.503c-2.748,0-4.977,2.229-4.977,4.979V89.91c0,2.749,2.229,4.977,4.977,4.977
	c2.749,0,4.977-2.228,4.977-4.977V79.48C108.875,76.731,106.647,74.503,103.898,74.503"/>
<path fill="#191818" d="M103.898,96.642c-3.712,0-6.732-3.02-6.732-6.732V79.48c0-3.714,3.021-6.733,6.732-6.733
	c3.713,0,6.732,3.02,6.732,6.733v10.429C110.631,93.622,107.611,96.642,103.898,96.642 M103.898,76.259
	c-1.775,0-3.221,1.445-3.221,3.223V89.91c0,1.775,1.445,3.221,3.221,3.221s3.221-1.445,3.221-3.221V79.48
	C107.119,77.704,105.674,76.259,103.898,76.259"/>
<rect x="95.292" y="107.041" fill="#F26C7C" width="7.524" height="7.525"/>
<rect x="105.577" y="107.041" fill="#F26C7C" width="7.524" height="7.525"/>
<rect x="115.862" y="107.041" fill="#F26C7C" width="7.524" height="7.525"/>
<rect x="126.146" y="107.041" fill="#F26C7C" width="7.524" height="7.525"/>
<rect x="136.432" y="107.041" fill="#F26C7C" width="7.525" height="7.525"/>
<rect x="95.292" y="117.325" fill="#F26C7C" width="7.524" height="7.523"/>
<rect x="105.577" y="117.325" fill="#F26C7C" width="7.524" height="7.523"/>
<rect x="115.862" y="117.325" fill="#F26C7C" width="7.524" height="7.523"/>
<rect x="126.146" y="117.325" fill="#F26C7C" width="7.524" height="7.523"/>
<rect x="136.432" y="117.325" fill="#F26C7C" width="7.525" height="7.523"/>
<rect x="95.292" y="127.61" fill="#F26C7C" width="7.524" height="7.523"/>
<rect x="105.577" y="127.61" fill="#F26C7C" width="7.524" height="7.523"/>
<rect x="115.862" y="127.61" fill="#F26C7C" width="7.524" height="7.523"/>
<rect x="126.146" y="127.61" fill="#F26C7C" width="7.524" height="7.523"/>
<rect x="136.432" y="127.61" fill="#F26C7C" width="7.525" height="7.523"/>
<g opacity="0.4">
	<g>
		<g>
			<defs>
				<rect id="SVGID_3_" x="50.54" y="19.82" width="139.81" height="168.06"/>
			</defs>
			<clipPath id="SVGID_4_">
				<use xlink:href="#SVGID_3_"  overflow="visible"/>
			</clipPath>
			<path clip-path="url(#SVGID_4_)" fill="#FFFFFF" d="M120.445,33.885c8.377,4.037,25.288,10.076,54.196,12.174v14.625
				c-1.492,2.458-2.888,5.657-3.813,9.77c-2.389,10.613-0.953,24.591,4.264,41.547c2.33,7.568,1.855,14.6-1.443,21.499
				c-3.051,6.373-8.52,12.725-16.252,18.875c-12.735,10.132-28.211,17.049-36.951,20.637c-8.742-3.588-24.217-10.505-36.953-20.637
				c-7.732-6.15-13.201-12.502-16.25-18.875c-3.302-6.898-3.774-13.931-1.445-21.499c5.23-17.001,6.613-31.021,4.109-41.675
				c-0.964-4.099-2.391-7.283-3.908-9.729V46.054C88.136,44.416,107.572,40.09,120.445,33.885 M120.445,19.824
				c-1.727,0-3.453,0.347-4.796,1.037c-9.942,5.121-29.271,10.588-57.983,11.864c-3.017,0.135-5.465,2.57-5.465,5.59v27.16
				c0,0,11.262,7.193,0.409,42.467c-14.917,48.481,55.285,74.915,67.835,79.934c12.549-5.019,82.75-31.451,67.834-79.934
				c-10.854-35.272,0.158-42.467,0.158-42.467v-27.16c0-3.02-2.449-5.455-5.465-5.59c-28.714-1.275-47.791-6.743-57.732-11.864
				C123.896,20.171,122.172,19.824,120.445,19.824"/>
		</g>
	</g>
</g>
<path fill="#191818" d="M120.445,28.19c0.526,0,0.893,0.091,1.006,0.13c13.141,6.754,34.396,11.326,58.621,12.638v21.353
	c-1.469,2.076-2.99,5.088-3.945,9.333c-2.178,9.679-0.779,22.719,4.156,38.759c5.105,16.6-1.273,31.719-19.508,46.221
	c-14.387,11.444-31.92,18.869-40.331,22.248c-8.414-3.379-25.947-10.804-40.334-22.248c-18.232-14.502-24.613-29.621-19.505-46.221
	c4.943-16.066,6.294-29.134,4.013-38.836c-0.996-4.241-2.555-7.243-4.053-9.313V40.958c24.393-1.318,45.743-5.89,58.872-12.638
	C119.551,28.281,119.918,28.19,120.445,28.19 M120.445,19.824c-1.727,0-3.453,0.346-4.796,1.037
	c-9.942,5.121-29.271,10.588-57.983,11.864c-3.017,0.135-5.465,2.57-5.465,5.59v27.16c0,0,11.262,7.193,0.409,42.467
	c-14.917,48.481,55.285,74.915,67.835,79.934c12.549-5.019,82.75-31.451,67.834-79.934c-10.854-35.272,0.158-42.467,0.158-42.467
	v-27.16c0-3.02-2.449-5.455-5.465-5.59c-28.714-1.275-47.791-6.743-57.732-11.864C123.896,20.17,122.17,19.824,120.445,19.824"/>
<path fill="#191818" d="M188.438,38.315c0-3.021-2.449-5.456-5.465-5.591c-28.713-1.274-47.791-6.742-57.731-11.864
	c-2.687-1.382-6.906-1.382-9.59,0c-9.943,5.122-29.272,10.589-57.983,11.864c-3.017,0.135-5.466,2.57-5.466,5.591v27.159
	c0,0,0.069,0.042,0.194,0.128h135.849c0.125-0.086,0.192-0.128,0.192-0.128V38.315z"/>
<path fill="#FFFFFF" d="M104.729,53.971l2.438-2.589c1.054,1.385,2.469,2.168,4.185,2.168c1.927,0,3.04-1.475,3.04-3.162
	c0-1.985-1.053-3.161-2.859-3.161c-1.355,0-2.379,0.482-3.312,1.656L105.3,48.1V36.691h12.043v3.551h-8.009v5.148
	c0.784-0.963,2.138-1.655,3.673-1.655c3.041,0,5.48,2.379,5.48,6.532c0,4.034-2.74,6.864-7.016,6.864
	C108.371,57.132,106.232,55.988,104.729,53.971"/>
<polygon fill="#FFFFFF" points="131.309,56.771 126.672,48.914 125.257,51.141 125.257,56.771 121.223,56.771 121.223,36.691 
	125.257,36.691 125.257,45.813 130.917,36.691 135.613,36.691 129.201,46.144 136.064,56.771 "/>
<polygon fill="#FFFFFF" points="91.391,44.988 83.933,43.857 80.611,36.76 77.291,43.857 69.832,44.988 75.223,50.522 
	73.875,58.317 80.611,54.637 87.348,58.317 86,50.522 "/>
<polygon fill="#FFFFFF" points="171.057,44.988 163.6,43.857 160.277,36.76 156.958,43.857 149.499,44.988 154.889,50.522 
	153.541,58.317 160.277,54.637 167.016,58.317 165.668,50.522 "/>
<path fill="#010101" d="M213.086,108.938c0.146,1.75-0.152,3.623,0.187,5.469c0.327,0.773,0.593,1.554,0.872,2.349
	c0.82,2.085,1.734,3.99,3.312,4.866c1.284-2.557,2.463-5.286,2.743-8.497c-0.084-2.099-0.508-4.063-1.249-5.928
	c-1.15-2.94-3.062-5.579-5.613-7.852c-0.082-0.079-0.143-0.109-0.186-0.17l-0.414-0.012c0.093,0.271,0.165,0.577,0.247,0.886
	C213.66,102.935,213.365,105.727,213.086,108.938"/>
<path fill="#010101" d="M213.284,126.718c-1.817-3.577-5.513-6.851-6.38-10.245l-0.531-0.223c-1.337,3.336-1.193,7.326-0.169,10.951
	c1.108,4.703,3.424,8.368,4.508,12.993c0.194,0.891,0.354,1.774,0.458,2.741c6.957-5.049,13.37-10.808,15.182-19.896l-12.191,6.13
	C213.996,128.321,213.666,127.482,213.284,126.718"/>
<path fill="#010101" d="M193.682,167.875c-0.916-0.017-1.783-0.026-2.639,0.015c3.212-4.57,2.291-10.163,4.059-15.118l-0.018-0.22
	c-5.329,2.008-8.124,6.701-10.73,11.657c-1.86,3.592-3.684,7.273-6.34,9.994c1.109,0.08,2.153,0.229,3.234,0.388
	c1.122,0.163,2.275,0.386,3.436,0.692c2.305,0.135,4.58,0.236,6.732,0.166c4.035-0.171,7.794-0.854,11.036-2.605
	c1.502-0.798,2.901-1.85,4.131-3.161c-0.948-0.153-1.992-0.342-3.028-0.523C200.291,168.604,196.857,168.033,193.682,167.875"/>
<path fill="#010101" d="M206.682,152.302c-1.494-5.036-4.274-10.122-3.865-15.641l-0.143-0.219l-0.374,0.165
	c-0.044,0.034-0.097,0.106-0.101,0.144c-0.293,0.5-0.602,0.786-1.137,1.3c-3.806,6.707-3.229,14.78-1.274,21.92
	c0.319,1.178,0.653,2.295,1.062,3.427c3.424-2.677,7.646-3.359,11.443-5.308c0.342-0.207,0.677-0.369,1.029-0.582
	c3.66-2.641,5.886-7.007,6.842-11.183c-2.373,0.757-4.701,1.368-6.877,2.187C210.941,149.357,208.68,150.499,206.682,152.302"/>
<path fill="#010101" d="M27.881,109.067c-0.24,1.739-0.043,3.626-0.48,5.449c-0.37,0.756-0.676,1.521-0.998,2.3
	c-0.932,2.036-1.947,3.891-3.567,4.681c-1.146-2.622-2.175-5.41-2.282-8.632c0.197-2.091,0.727-4.029,1.567-5.854
	c1.306-2.873,3.356-5.405,6.026-7.536c0.086-0.074,0.15-0.103,0.195-0.159l0.416,0.011c-0.107,0.266-0.197,0.565-0.295,0.871
	C27.631,103.043,27.775,105.847,27.881,109.067"/>
<path fill="#010101" d="M27.605,126.718c1.817-3.577,5.512-6.851,6.379-10.245l0.532-0.223c1.337,3.336,1.192,7.326,0.168,10.951
	c-1.108,4.703-3.424,8.368-4.508,12.993c-0.192,0.891-0.353,1.774-0.458,2.741c-6.956-5.049-13.369-10.808-15.182-19.896
	l12.193,6.13C26.894,128.321,27.223,127.482,27.605,126.718"/>
<path fill="#010101" d="M47.209,167.875c0.915-0.017,1.782-0.026,2.637,0.015c-3.211-4.57-2.289-10.163-4.058-15.118l0.017-0.22
	c5.33,2.008,8.125,6.701,10.731,11.657c1.861,3.592,3.683,7.273,6.339,9.994c-1.109,0.08-2.152,0.229-3.234,0.388
	c-1.121,0.163-2.274,0.386-3.435,0.692c-2.306,0.135-4.581,0.236-6.731,0.166c-4.036-0.171-7.795-0.854-11.037-2.605
	c-1.502-0.798-2.902-1.85-4.131-3.161c0.949-0.153,1.992-0.342,3.027-0.523C40.6,168.604,44.032,168.033,47.209,167.875"/>
<path fill="#010101" d="M34.209,152.302c1.493-5.036,4.273-10.122,3.863-15.641l0.143-0.219l0.375,0.165
	c0.045,0.034,0.096,0.106,0.101,0.144c0.292,0.5,0.601,0.786,1.136,1.3c3.805,6.707,3.23,14.78,1.275,21.92
	c-0.32,1.178-0.653,2.295-1.063,3.427c-3.423-2.677-7.645-3.359-11.443-5.308c-0.34-0.207-0.676-0.369-1.028-0.582
	c-3.66-2.641-5.886-7.007-6.841-11.183c2.373,0.757,4.699,1.368,6.875,2.187C29.947,149.357,32.209,150.499,34.209,152.302"/>
<polygon fill="#FFFFFF" points="173.438,196.988 121.143,211.172 68.85,195.483 68.85,167.963 121.143,183.65 173.438,167.963 "/>
<path fill="#010101" d="M121.143,212.096l-54.551-13.335v-33.674l54.551,13.334l54.551-13.334v33.674L121.143,212.096z
	 M71.107,195.216l50.036,12.231l50.034-12.231v-24.377l-50.034,12.23l-50.036-12.23V195.216z"/>
<polygon fill="#010101" points="149.923,174.15 175.76,165.172 162.688,155.391 141.673,173.402 "/>
<polygon fill="#010101" points="92.321,174.15 66.484,165.172 79.557,155.391 100.571,173.402 "/>
<polygon fill="#010101" points="92.992,184.576 90.402,179.039 87.813,184.576 81.994,185.459 86.198,189.775 85.147,195.856 
	90.402,192.984 95.657,195.856 94.606,189.775 98.811,185.459 "/>
<polygon fill="#010101" points="123.68,190.653 120.82,184.543 117.962,190.653 111.541,191.627 116.18,196.392 115.021,203.103 
	120.82,199.934 126.62,203.103 125.461,196.392 130.1,191.627 "/>
<polygon fill="#010101" points="154.018,184.576 151.427,179.039 148.837,184.576 143.02,185.459 147.223,189.775 146.172,195.856 
	151.427,192.984 156.682,195.856 155.631,189.775 159.835,185.459 "/>
</svg>
