<?xml version="1.0" encoding="utf-8"?>
<!-- Generator: Adobe Illustrator 16.0.0, SVG Export Plug-In . SVG Version: 6.00 Build 0)  -->
<!DOCTYPE svg PUBLIC "-//W3C//DTD SVG 1.1//EN" "http://www.w3.org/Graphics/SVG/1.1/DTD/svg11.dtd">
<svg version="1.1" id="Layer_1" xmlns="http://www.w3.org/2000/svg" xmlns:xlink="http://www.w3.org/1999/xlink" x="0px" y="0px"
	 width="612px" height="792px" viewBox="0 0 612 792" enable-background="new 0 0 612 792" xml:space="preserve">
<path fill="#F26C7C" d="M370.787,396.942c-10.15-32.988-1.839-41.101-0.035-42.339h-67.367h-68.482
	c1.803,1.238,10.366,9.351,0.216,42.339c-14.918,48.481,55.285,74.916,67.834,79.934c0.137-0.055,0.282-0.112,0.433-0.172
	C317.021,471.278,385.541,444.896,370.787,396.942"/>
<g opacity="0.5">
	<g>
		<defs>
			<rect id="SVGID_1_" x="303.38" y="354.6" width="69.48" height="122.1"/>
		</defs>
		<clipPath id="SVGID_2_">
			<use xlink:href="#SVGID_1_"  overflow="visible"/>
		</clipPath>
		<path clip-path="url(#SVGID_2_)" fill="#DF2E54" d="M370.787,396.942c-10.15-32.988-1.838-41.101-0.036-42.339h-67.366v122.101
			C317.021,471.278,385.542,444.896,370.787,396.942"/>
	</g>
</g>
<g opacity="0.4">
	<g>
		<defs>
			<rect id="SVGID_3_" x="233.05" y="308.82" width="139.811" height="168.06"/>
		</defs>
		<clipPath id="SVGID_4_">
			<use xlink:href="#SVGID_3_"  overflow="visible"/>
		</clipPath>
		<path clip-path="url(#SVGID_4_)" fill="#FFFFFF" d="M302.952,322.886c8.377,4.036,25.288,10.075,54.197,12.173v14.625
			c-1.492,2.458-2.888,5.657-3.813,9.769c-2.388,10.613-0.953,24.591,4.265,41.547c2.329,7.567,1.855,14.6-1.445,21.498
			c-3.05,6.373-8.519,12.725-16.251,18.875c-12.737,10.132-28.21,17.049-36.952,20.637c-8.741-3.588-24.216-10.505-36.952-20.637
			c-7.732-6.151-13.201-12.502-16.251-18.875c-3.301-6.898-3.772-13.931-1.445-21.498c5.231-17.001,6.614-31.022,4.109-41.676
			c-0.963-4.098-2.39-7.283-3.908-9.729v-14.542C270.644,333.416,290.08,329.09,302.952,322.886 M302.952,308.824
			c-1.726,0-3.452,0.347-4.795,1.037c-9.942,5.12-29.271,10.588-57.984,11.864c-3.016,0.134-5.465,2.57-5.465,5.589v27.161
			c0,0,11.263,7.193,0.41,42.466c-14.917,48.482,55.285,74.915,67.834,79.934c12.549-5.019,82.752-31.451,67.834-79.934
			c-10.853-35.272,0.159-42.466,0.159-42.466v-27.161c0-3.019-2.448-5.455-5.465-5.589c-28.712-1.276-47.791-6.744-57.733-11.864
			C306.405,309.171,304.678,308.824,302.952,308.824"/>
	</g>
</g>
<path fill="#191818" d="M370.945,327.315c0-3.02-2.449-5.456-5.465-5.59c-28.713-1.275-47.791-6.743-57.732-11.864
	c-2.686-1.382-6.906-1.382-9.59,0c-9.942,5.121-29.272,10.589-57.984,11.864c-3.016,0.134-5.465,2.57-5.465,5.59v27.16
	c0,0,0.068,0.042,0.193,0.128h135.849c0.125-0.086,0.194-0.128,0.194-0.128V327.315z"/>
<path fill="#191818" d="M302.952,317.19c0.527,0,0.894,0.091,1.006,0.13c13.143,6.754,34.396,11.326,58.621,12.638v21.353
	c-1.468,2.076-2.989,5.087-3.944,9.333c-2.179,9.678-0.779,22.718,4.155,38.758c5.108,16.6-1.272,31.719-19.505,46.221
	c-14.387,11.444-31.921,18.869-40.333,22.248c-8.412-3.379-25.946-10.804-40.333-22.248c-18.232-14.502-24.612-29.621-19.505-46.221
	c4.944-16.066,6.294-29.133,4.013-38.836c-0.997-4.241-2.555-7.243-4.053-9.313v-21.295c24.393-1.318,45.743-5.89,58.872-12.638
	C302.059,317.281,302.425,317.19,302.952,317.19 M302.952,308.824c-1.726,0-3.452,0.346-4.795,1.037
	c-9.942,5.12-29.271,10.588-57.984,11.864c-3.016,0.134-5.465,2.57-5.465,5.589v27.161c0,0,11.263,7.193,0.41,42.466
	c-14.917,48.482,55.285,74.915,67.834,79.934c12.549-5.019,82.752-31.451,67.834-79.934c-10.853-35.272,0.159-42.466,0.159-42.466
	v-27.161c0-3.019-2.448-5.455-5.465-5.589c-28.712-1.276-47.791-6.744-57.733-11.864
	C306.405,309.17,304.678,308.824,302.952,308.824"/>
<path fill="#FFFFFF" d="M288.093,345.771v-3.251c7.346-7.136,8.881-8.73,8.881-11.019c0-1.536-1.174-2.529-2.679-2.529
	c-1.777,0-3.192,0.813-4.275,2.258l-2.409-2.529c1.626-2.167,4.004-3.313,6.744-3.313c3.884,0,6.714,2.349,6.714,6.082
	c0,3.04-2.048,5.63-7.015,10.747h7.105v3.553H288.093z"/>
<path fill="#FFFFFF" d="M311.242,345.771v-4.275h-8.188v-3.371l7.044-12.434h5.178v12.253h2.018v3.552h-2.018v4.275H311.242z
	 M311.242,329.784l-4.546,8.159h4.546V329.784z"/>
<path fill="#FFFFFF" d="M320.933,413.436l-11.009-11.009l11.009-11.009c5.399-5.4,7.742-12.699,7.028-19.747h-48.604
	c-0.713,7.048,1.629,14.347,7.029,19.747l11.009,11.009l-11.009,11.009c-3.357,3.357-5.532,7.449-6.526,11.758
	c-0.604,2.621-0.772,5.323-0.503,7.989h48.604c0.52-5.126-0.58-10.383-3.295-14.948
	C323.649,416.523,322.405,414.909,320.933,413.436"/>
<path fill="#F26C7C" d="M276.578,436.701h54.164c0.578-5.711-0.646-11.571-3.671-16.657l-6.305-7.107
	c-8.05,0-8.584,7.597-24.15,8.05c-9.589,0.279-16.099,5.968-16.099,5.968l-3.378,0.845
	C276.465,430.72,276.276,433.73,276.578,436.701"/>
<path fill="#F26C7C" d="M286.31,387.107c0,0,6.282-4.428,18.355-2.415c12.075,2.012,16.101,0,18.113,0l-6.197,6.768l-12.922,12.212
	L286.31,387.107z"/>
<path fill="#FFFFFF" d="M325.07,374.681c-0.131,5.472-2.342,10.684-6.266,14.609l-11.01,11.009l-2.129,2.128l2.129,2.129
	l11.01,11.009c1.264,1.265,2.365,2.681,3.274,4.209c1.862,3.131,2.89,6.745,2.987,10.399h-42.817
	c0.036-1.446,0.218-2.885,0.545-4.302c0.899-3.899,2.877-7.463,5.722-10.307l11.009-11.009l2.128-2.129l-2.128-2.128l-11.009-11.009
	c-3.925-3.925-6.136-9.137-6.268-14.609H325.07 M327.961,371.671h-48.604c-0.713,7.048,1.629,14.347,7.029,19.747l11.009,11.009
	l-11.009,11.009c-3.357,3.358-5.532,7.449-6.526,11.758c-0.604,2.622-0.772,5.323-0.503,7.989h48.604
	c0.52-5.125-0.58-10.383-3.294-14.948c-1.018-1.711-2.262-3.326-3.734-4.799l-11.009-11.009l11.009-11.009
	C326.332,386.018,328.674,378.719,327.961,371.671"/>
<path fill="#191818" d="M327.962,371.671c0.713,7.048-1.629,14.348-7.029,19.747l-11.009,11.01l11.009,11.009
	c1.474,1.472,2.716,3.088,3.734,4.799c2.714,4.563,3.813,9.821,3.295,14.948h-48.604c-0.27-2.666-0.101-5.368,0.503-7.989
	c0.994-4.31,3.168-8.401,6.526-11.758l11.009-11.009l-11.009-11.01c-5.4-5.399-7.742-12.699-7.029-19.747H327.962 M331.217,368.069
	h-3.255h-48.604h-3.255l-0.328,3.239c-0.852,8.421,2.087,16.678,8.065,22.657l8.462,8.462l-8.462,8.461
	c-3.721,3.722-6.31,8.389-7.488,13.496c-0.694,3.008-0.888,6.09-0.577,9.161l0.328,3.238h3.255h48.604h3.255l0.328-3.238
	c0.601-5.946-0.742-12.038-3.782-17.151c-1.19-2.001-2.632-3.854-4.284-5.506l-8.462-8.461l8.463-8.464
	c5.978-5.978,8.917-14.234,8.065-22.656L331.217,368.069z"/>
<path fill="#F26C7C" d="M305.336,406.88c0,0.926-0.75,1.677-1.676,1.677c-0.926,0-1.677-0.751-1.677-1.677s0.751-1.676,1.677-1.676
	C304.586,405.204,305.336,405.954,305.336,406.88"/>
<path fill="#F26C7C" d="M305.336,412.356c0,0.926-0.75,1.676-1.676,1.676c-0.926,0-1.677-0.75-1.677-1.676s0.751-1.677,1.677-1.677
	C304.586,410.68,305.336,411.431,305.336,412.356"/>
<path fill="#191818" d="M334.19,371.722h-61.062c-1.385,0-2.508-1.123-2.508-2.508c0-1.386,1.123-2.509,2.508-2.509h61.062
	c1.385,0,2.508,1.123,2.508,2.509C336.698,370.599,335.575,371.722,334.19,371.722"/>
<path fill="#191818" d="M334.19,437.95h-61.062c-1.385,0-2.508-1.123-2.508-2.508c0-1.386,1.123-2.509,2.508-2.509h61.062
	c1.385,0,2.508,1.123,2.508,2.509C336.698,436.827,335.575,437.95,334.19,437.95"/>
<polygon fill="#F26C7C" points="272.059,335.578 260.318,338.287 249.482,335.578 249.482,329.256 260.318,331.966 272.059,329.256 
	"/>
<polygon fill="#F26C7C" points="272.059,344.608 260.318,347.318 249.482,344.608 249.482,338.287 260.318,340.997 272.059,338.287 
	"/>
<polygon fill="#F26C7C" points="356.423,335.578 344.683,338.287 333.847,335.578 333.847,329.256 344.683,331.966 356.423,329.256 
	"/>
<polygon fill="#F26C7C" points="356.423,344.608 344.683,347.318 333.847,344.608 333.847,338.287 344.683,340.997 356.423,338.287 
	"/>
</svg>
