<?xml version="1.0" encoding="utf-8"?>
<!-- Generator: Adobe Illustrator 16.0.0, SVG Export Plug-In . SVG Version: 6.00 Build 0)  -->
<!DOCTYPE svg PUBLIC "-//W3C//DTD SVG 1.1//EN" "http://www.w3.org/Graphics/SVG/1.1/DTD/svg11.dtd">
<svg version="1.1" id="Layer_1" xmlns="http://www.w3.org/2000/svg" xmlns:xlink="http://www.w3.org/1999/xlink" x="0px" y="0px"
	 width="612px" height="792px" viewBox="0 0 612 792" enable-background="new 0 0 612 792" xml:space="preserve">
<path fill="#F26C7C" d="M370.799,384.942c-10.15-32.988-1.839-41.101-0.035-42.339h-67.367h-68.482
	c1.803,1.238,10.366,9.351,0.216,42.339c-14.917,48.481,55.285,74.916,67.834,79.934c0.138-0.055,0.282-0.112,0.433-0.172
	C317.033,459.278,385.553,432.896,370.799,384.942"/>
<g opacity="0.5">
	<g>
		<defs>
			<rect id="SVGID_1_" x="261.74" y="342.6" width="111.13" height="122.1"/>
		</defs>
		<clipPath id="SVGID_2_">
			<use xlink:href="#SVGID_1_"  overflow="visible"/>
		</clipPath>
		<path clip-path="url(#SVGID_2_)" fill="#DF2E54" d="M370.799,384.942c-10.15-32.988-1.838-41.102-0.035-42.339h-67.367v8.929
			c-0.086-0.001-0.172-0.005-0.26-0.005c-5.467,0-10.817,1.073-15.899,3.188c-5.157,2.147-9.742,5.243-13.629,9.202
			c-3.751,3.821-6.69,8.278-8.738,13.246c-2.048,4.969-3.101,10.203-3.131,15.557c-0.032,5.546,1.041,10.975,3.188,16.132
			c3.203,7.696,8.574,14.17,15.527,18.72c6.778,4.435,14.631,6.778,22.709,6.778c0.078,0,0.155-0.002,0.232-0.002v30.354
			C317.033,459.278,385.553,432.896,370.799,384.942 M303.164,426.325c-13.076,0-25.486-7.733-30.826-20.558
			c-7.086-17.018,0.967-36.557,17.984-43.641c4.193-1.746,8.54-2.573,12.814-2.573c0.088,0,0.174,0.004,0.26,0.005v66.763
			C303.319,426.323,303.241,426.325,303.164,426.325"/>
	</g>
</g>
<path fill="#FFFFFF" d="M316.246,423.268c-17.018,7.086-36.557-0.967-43.642-17.984s0.967-36.556,17.985-43.642
	c17.017-7.085,36.556,0.967,43.641,17.985C341.315,396.644,333.264,416.183,316.246,423.268"/>
<g opacity="0.4">
	<g>
		<defs>
			<rect id="SVGID_3_" x="233.061" y="296.82" width="139.81" height="168.06"/>
		</defs>
		<clipPath id="SVGID_4_">
			<use xlink:href="#SVGID_3_"  overflow="visible"/>
		</clipPath>
		<path clip-path="url(#SVGID_4_)" fill="#FFFFFF" d="M302.965,310.886c8.377,4.036,25.287,10.075,54.195,12.173v14.625
			c-1.491,2.458-2.887,5.657-3.813,9.769c-2.388,10.613-0.953,24.591,4.264,41.547c2.33,7.568,1.855,14.6-1.444,21.499
			c-3.05,6.373-8.519,12.725-16.251,18.875c-12.736,10.132-28.21,17.049-36.951,20.637c-8.742-3.588-24.217-10.505-36.953-20.637
			c-7.732-6.15-13.201-12.502-16.25-18.875c-3.302-6.898-3.774-13.931-1.445-21.499c5.23-17.001,6.613-31.022,4.109-41.675
			c-0.964-4.098-2.391-7.283-3.908-9.729v-14.542C270.655,321.416,290.092,317.09,302.965,310.886 M302.965,296.824
			c-1.727,0-3.453,0.347-4.796,1.037c-9.942,5.12-29.271,10.588-57.983,11.864c-3.017,0.134-5.465,2.57-5.465,5.589v27.161
			c0,0,11.262,7.193,0.409,42.466c-14.917,48.482,55.285,74.915,67.835,79.934c12.549-5.019,82.75-31.451,67.834-79.934
			c-10.854-35.272,0.158-42.466,0.158-42.466v-27.161c0-3.019-2.449-5.455-5.465-5.589c-28.713-1.276-47.791-6.744-57.732-11.864
			C306.417,297.171,304.689,296.824,302.965,296.824"/>
	</g>
</g>
<polygon fill="#F26C7C" points="303.238,359.887 302.61,389.361 307.502,393.501 335.346,393.877 336.099,386.602 328.572,371.802 
	315.779,362.145 "/>
<path fill="#191818" d="M302.91,368.255c0,0-0.002,0.02-0.004,0.053h0.01C302.912,368.275,302.91,368.255,302.91,368.255"/>
<path fill="#191818" d="M302.913,368.282c0.001,0.014,0.536,0.026,1.194,0.026c0.659,0,1.193-0.561,1.193-1.254v-5.77
	c0-0.692-0.561-1.254-1.254-1.254h-1.637c-0.692,0-1.254,0.562-1.254,1.254v5.77c0,0.693,0.392,1.254,0.875,1.254
	c0.482,0,0.875-0.012,0.877-0.026C302.908,368.267,302.91,368.267,302.913,368.282"/>
<path fill="#191818" d="M336.09,393.709v-1.636c0-0.693-0.563-1.255-1.254-1.255h-5.687c-0.692,0-1.254,0.562-1.254,1.255v1.636
	c0,0.693,0.562,1.254,1.254,1.254h5.687C335.527,394.963,336.09,394.402,336.09,393.709"/>
<path fill="#191818" d="M270.368,392.073v1.636c0,0.693,0.562,1.255,1.254,1.255h5.519c0.692,0,1.254-0.562,1.254-1.255v-1.636
	c0-0.693-0.562-1.254-1.254-1.254h-5.519C270.93,390.819,270.368,391.38,270.368,392.073"/>
<path fill="#191818" d="M302.41,425.752h1.637c0.692,0,1.254-0.562,1.254-1.254v-5.436c0-0.692-0.562-1.254-1.254-1.254h-1.637
	c-0.691,0-1.254,0.562-1.254,1.254v5.436C301.156,425.19,301.719,425.752,302.41,425.752"/>
<path fill="#191818" d="M286.799,364.433c-0.601,0.346-0.806,1.113-0.46,1.713l2.849,4.936c0.347,0.6,1.115,0.808,1.718,0.466
	c0.603-0.343,0.81-1.107,0.463-1.707l-2.856-4.948C288.165,364.292,287.398,364.087,286.799,364.433"/>
<path fill="#191818" d="M274.771,376.46c-0.347,0.6-0.142,1.367,0.459,1.713l4.868,2.811c0.599,0.346,1.363,0.138,1.705-0.464
	s0.133-1.371-0.467-1.718l-4.853-2.801C275.883,375.655,275.116,375.86,274.771,376.46"/>
<path fill="#191818" d="M274.771,409.321c0.346,0.601,1.112,0.806,1.713,0.46l4.72-2.726c0.6-0.346,0.803-1.112,0.456-1.711
	c-0.349-0.599-1.116-0.804-1.717-0.458l-4.713,2.722C274.629,407.955,274.424,408.722,274.771,409.321"/>
<path fill="#191818" d="M286.799,421.35c0.6,0.346,1.366,0.141,1.713-0.459l2.709-4.693c0.348-0.601,0.141-1.365-0.461-1.709
	c-0.601-0.346-1.369-0.138-1.715,0.463l-2.706,4.686C285.993,420.236,286.198,421.004,286.799,421.35"/>
<path fill="#191818" d="M319.66,421.35c0.6-0.346,0.805-1.113,0.459-1.713l-2.746-4.755c-0.346-0.601-1.115-0.808-1.717-0.466
	c-0.602,0.343-0.809,1.106-0.463,1.707l2.753,4.768C318.293,421.49,319.06,421.695,319.66,421.35"/>
<path fill="#191818" d="M331.688,409.321c0.346-0.6,0.141-1.366-0.459-1.713l-4.852-2.801c-0.599-0.346-1.363-0.139-1.705,0.464
	c-0.342,0.602-0.133,1.371,0.467,1.719l4.836,2.791C330.574,410.127,331.342,409.922,331.688,409.321"/>
<path fill="#191818" d="M331.688,376.46c-0.346-0.6-1.113-0.805-1.713-0.459l-4.99,2.881c-0.6,0.346-0.805,1.113-0.457,1.712
	c0.348,0.598,1.117,0.803,1.717,0.457l4.984-2.878C331.828,377.828,332.033,377.061,331.688,376.46"/>
<path fill="#191818" d="M319.66,364.433c-0.601-0.346-1.367-0.141-1.714,0.459l-2.897,5.017c-0.346,0.6-0.139,1.365,0.461,1.71
	c0.602,0.344,1.371,0.137,1.717-0.463l2.893-5.01C320.465,365.546,320.26,364.779,319.66,364.433"/>
<path fill="#191818" d="M303.164,428.398c-14.367,0-27.219-8.57-32.74-21.834c-7.512-18.046,1.059-38.838,19.102-46.351
	c4.354-1.813,8.934-2.732,13.611-2.732c14.367,0,27.219,8.57,32.739,21.833c7.513,18.044-1.056,38.837-19.101,46.351
	C312.421,427.479,307.842,428.398,303.164,428.398 M303.137,361.627c-4.128,0-8.172,0.812-12.018,2.413
	c-15.936,6.634-23.504,24.996-16.869,40.932c4.877,11.713,16.227,19.281,28.914,19.281c4.128,0,8.172-0.812,12.018-2.413
	c15.936-6.634,23.504-24.997,16.868-40.932C327.173,369.195,315.825,361.627,303.137,361.627"/>
<rect x="293.788" y="389.5" transform="matrix(0.5437 0.8393 -0.8393 0.5437 468.9871 -66.1094)" fill="#F26C7C" width="3.01" height="17.534"/>
<path fill="#191818" d="M298.768,393.621c0.006,2.295,1.873,4.151,4.168,4.146c2.295-0.007,4.15-1.873,4.144-4.168
	c-0.006-2.296-4.024-18.447-4.024-18.447S298.762,391.326,298.768,393.621"/>
<path fill="#191818" d="M303.617,389.594c-2.295-0.029-4.18,1.808-4.208,4.103c-0.029,2.295,1.808,4.18,4.103,4.209
	s18.512-4.04,18.512-4.04S305.912,389.623,303.617,389.594"/>
<path fill="#191818" d="M302.965,305.19c0.526,0,0.893,0.091,1.006,0.13c13.141,6.754,34.396,11.326,58.621,12.638v21.353
	c-1.469,2.076-2.99,5.087-3.945,9.333c-2.178,9.679-0.779,22.718,4.156,38.758c5.106,16.6-1.273,31.719-19.506,46.221
	c-14.388,11.444-31.921,18.869-40.332,22.248c-8.414-3.379-25.947-10.804-40.334-22.248c-18.232-14.502-24.611-29.621-19.505-46.221
	c4.943-16.066,6.294-29.133,4.013-38.836c-0.996-4.241-2.555-7.243-4.053-9.313v-21.295c24.393-1.318,45.743-5.89,58.872-12.638
	C302.07,305.281,302.438,305.19,302.965,305.19 M302.965,296.824c-1.727,0-3.453,0.346-4.796,1.037
	c-9.942,5.12-29.271,10.588-57.983,11.864c-3.017,0.134-5.465,2.57-5.465,5.589v27.161c0,0,11.262,7.193,0.409,42.466
	c-14.917,48.482,55.285,74.915,67.835,79.934c12.549-5.019,82.75-31.451,67.834-79.934c-10.854-35.272,0.158-42.466,0.158-42.466
	v-27.161c0-3.019-2.449-5.455-5.465-5.589c-28.713-1.276-47.791-6.744-57.732-11.864
	C306.417,297.17,304.689,296.824,302.965,296.824"/>
<path fill="#191818" d="M370.957,315.315c0-3.02-2.449-5.456-5.465-5.59c-28.713-1.275-47.791-6.743-57.732-11.864
	c-2.686-1.382-6.906-1.382-9.59,0c-9.943,5.121-29.272,10.589-57.984,11.864c-3.016,0.134-5.465,2.57-5.465,5.59v27.16
	c0,0,0.069,0.042,0.193,0.128h135.85c0.125-0.086,0.193-0.128,0.193-0.128V315.315z"/>
<polygon fill="#FFFFFF" points="293.914,333.771 293.914,318.899 290.875,322.06 288.557,319.622 294.457,313.691 297.979,313.691 
	297.979,333.771 "/>
<polygon fill="#FFFFFF" points="311.615,333.771 306.979,325.914 305.563,328.141 305.563,333.771 301.529,333.771 301.529,313.691 
	305.563,313.691 305.563,322.813 311.224,313.691 315.92,313.691 309.508,323.144 316.371,333.771 "/>
<polygon fill="#FFFFFF" points="273.91,321.988 266.452,320.857 263.131,313.76 259.811,320.857 252.352,321.988 257.74,327.522 
	256.395,335.317 263.131,331.637 269.867,335.317 268.52,327.522 "/>
<polygon fill="#FFFFFF" points="353.576,321.988 346.119,320.857 342.797,313.76 339.478,320.857 332.019,321.988 337.408,327.522 
	336.061,335.317 342.797,331.637 349.534,335.317 348.188,327.522 "/>
<polygon fill="#FFFFFF" points="355.279,473.988 302.985,488.172 250.692,472.483 250.692,444.963 302.985,460.65 355.279,444.963 
	"/>
<path fill="#010101" d="M302.984,489.096l-54.551-13.335v-33.674l54.551,13.334l54.553-13.334v33.674L302.984,489.096z
	 M252.949,472.216l50.035,12.231l50.036-12.231v-24.377l-50.036,12.23l-50.035-12.23V472.216z"/>
<polygon fill="#010101" points="331.766,451.15 357.602,442.172 344.529,432.391 323.516,450.402 "/>
<polygon fill="#010101" points="274.164,451.15 248.326,442.172 261.399,432.391 282.414,450.402 "/>
<polygon fill="#F26C7C" points="274.835,461.576 272.244,456.039 269.654,461.576 263.837,462.459 268.041,466.775 266.99,472.856 
	272.244,469.984 277.5,472.856 276.449,466.775 280.652,462.459 "/>
<polygon fill="#F26C7C" points="305.521,467.653 302.663,461.543 299.805,467.653 293.383,468.627 298.022,473.392 296.863,480.103 
	302.663,476.934 308.463,480.103 307.303,473.392 311.942,468.627 "/>
<polygon fill="#F26C7C" points="335.859,461.576 333.27,456.039 330.68,461.576 324.861,462.459 329.064,466.775 328.014,472.856 
	333.27,469.984 338.523,472.856 337.473,466.775 341.678,462.459 "/>
<path fill="#010101" d="M395.835,404.24c-1.817-3.577-5.513-6.852-6.38-10.245l-0.531-0.223c-1.337,3.335-1.193,7.327-0.169,10.951
	c1.108,4.704,3.424,8.369,4.508,12.994c0.194,0.891,0.354,1.775,0.459,2.742c6.956-5.049,13.369-10.809,15.183-19.897l-12.194,6.13
	C396.547,405.844,396.218,405.005,395.835,404.24"/>
<path fill="#010101" d="M392.699,362.457c0.578,1.658,0.758,3.546,1.548,5.248c0.511,0.668,0.96,1.357,1.431,2.056
	c1.314,1.815,2.676,3.431,4.42,3.885c0.606-2.796,1.065-5.733,0.534-8.912c-0.604-2.012-1.507-3.807-2.69-5.429
	c-1.848-2.559-4.357-4.637-7.396-6.199c-0.099-0.058-0.166-0.071-0.224-0.119l-0.403,0.093c0.157,0.24,0.304,0.516,0.46,0.796
	C391.756,356.501,392.168,359.278,392.699,362.457"/>
<path fill="#010101" d="M397.333,379.624c-2.653-3.01-7.05-5.257-8.736-8.326l-0.571-0.084c-0.461,3.564,0.676,7.393,2.573,10.646
	c2.248,4.278,5.406,7.249,7.611,11.456c0.409,0.813,0.786,1.631,1.128,2.54c5.475-6.626,10.246-13.805,9.73-23.058l-10.276,8.98
	C398.423,380.999,397.895,380.269,397.333,379.624"/>
<path fill="#010101" d="M210.094,404.24c1.816-3.577,5.513-6.852,6.379-10.245l0.531-0.223c1.338,3.335,1.193,7.327,0.17,10.951
	c-1.109,4.704-3.424,8.369-4.508,12.994c-0.194,0.891-0.354,1.775-0.459,2.742c-6.957-5.049-13.369-10.809-15.183-19.897
	l12.194,6.13C209.381,405.844,209.711,405.005,210.094,404.24"/>
<path fill="#010101" d="M213.229,362.457c-0.578,1.658-0.759,3.546-1.548,5.248c-0.51,0.668-0.961,1.357-1.432,2.056
	c-1.314,1.815-2.676,3.431-4.42,3.885c-0.605-2.796-1.064-5.733-0.533-8.912c0.604-2.012,1.506-3.807,2.689-5.429
	c1.848-2.559,4.357-4.637,7.396-6.199c0.099-0.058,0.166-0.071,0.223-0.119l0.404,0.093c-0.158,0.24-0.304,0.516-0.461,0.796
	C214.172,356.501,213.76,359.278,213.229,362.457"/>
<path fill="#010101" d="M208.596,379.624c2.652-3.01,7.049-5.257,8.736-8.326l0.57-0.084c0.461,3.564-0.675,7.393-2.572,10.646
	c-2.248,4.278-5.406,7.249-7.611,11.456c-0.41,0.813-0.786,1.631-1.129,2.54c-5.475-6.626-10.246-13.805-9.73-23.058l10.277,8.98
	C207.506,380.999,208.033,380.269,208.596,379.624"/>
<path fill="#010101" d="M376.232,445.397c-0.916-0.017-1.783-0.026-2.639,0.015c3.211-4.571,2.291-10.163,4.059-15.119l-0.018-0.219
	c-5.328,2.008-8.123,6.701-10.73,11.656c-1.861,3.592-3.684,7.274-6.34,9.994c1.109,0.08,2.154,0.229,3.234,0.389
	c1.123,0.164,2.275,0.386,3.436,0.691c2.306,0.135,4.58,0.238,6.732,0.167c4.034-0.171,7.795-0.854,11.037-2.606
	c1.5-0.797,2.901-1.849,4.131-3.16c-0.949-0.154-1.992-0.342-3.029-0.524C382.842,446.126,379.407,445.556,376.232,445.397"/>
<path fill="#010101" d="M389.232,429.824c-1.495-5.036-4.274-10.122-3.865-15.641l-0.143-0.219l-0.373,0.164
	c-0.045,0.036-0.098,0.108-0.102,0.145c-0.292,0.5-0.601,0.786-1.136,1.3c-3.806,6.707-3.229,14.78-1.276,21.92
	c0.321,1.177,0.654,2.295,1.063,3.425c3.423-2.676,7.644-3.358,11.442-5.306c0.342-0.207,0.676-0.37,1.029-0.582
	c3.66-2.641,5.887-7.007,6.842-11.183c-2.373,0.757-4.701,1.367-6.877,2.186C393.493,426.879,391.23,428.021,389.232,429.824"/>
<path fill="#010101" d="M229.76,445.397c0.915-0.017,1.782-0.026,2.637,0.015c-3.211-4.571-2.289-10.163-4.058-15.119l0.017-0.219
	c5.33,2.008,8.125,6.701,10.731,11.656c1.861,3.592,3.683,7.274,6.339,9.994c-1.109,0.08-2.152,0.229-3.234,0.389
	c-1.121,0.164-2.274,0.386-3.435,0.691c-2.306,0.135-4.581,0.238-6.731,0.167c-4.035-0.171-7.795-0.854-11.037-2.606
	c-1.502-0.797-2.902-1.849-4.131-3.16c0.949-0.154,1.992-0.342,3.027-0.524C223.15,446.126,226.584,445.556,229.76,445.397"/>
<path fill="#010101" d="M216.76,429.824c1.494-5.036,4.273-10.122,3.864-15.641l0.142-0.219l0.375,0.164
	c0.045,0.036,0.098,0.108,0.101,0.145c0.292,0.5,0.601,0.786,1.136,1.3c3.805,6.707,3.23,14.78,1.275,21.92
	c-0.32,1.177-0.653,2.295-1.063,3.425c-3.422-2.676-7.645-3.358-11.441-5.306c-0.342-0.207-0.678-0.37-1.03-0.582
	c-3.66-2.641-5.886-7.007-6.841-11.183c2.373,0.757,4.699,1.367,6.875,2.186C212.498,426.879,214.762,428.021,216.76,429.824"/>
</svg>
