<?xml version="1.0" encoding="utf-8"?>
<!-- Generator: Adobe Illustrator 16.0.0, SVG Export Plug-In . SVG Version: 6.00 Build 0)  -->
<!DOCTYPE svg PUBLIC "-//W3C//DTD SVG 1.1//EN" "http://www.w3.org/Graphics/SVG/1.1/DTD/svg11.dtd">
<svg version="1.1" id="Layer_1" xmlns="http://www.w3.org/2000/svg" xmlns:xlink="http://www.w3.org/1999/xlink" x="0px" y="0px"
	 width="612px" height="792px" viewBox="0 0 612 792" enable-background="new 0 0 612 792" xml:space="preserve">
<path fill="#F26C7C" d="M369.902,386.942c-10.15-32.988-1.838-41.101-0.035-42.339H302.5h-68.482
	c1.804,1.238,10.367,9.351,0.217,42.339c-14.918,48.481,55.285,74.916,67.834,79.934c0.136-0.055,0.281-0.112,0.432-0.172
	C316.137,461.278,384.657,434.896,369.902,386.942"/>
<g opacity="0.5">
	<g>
		<defs>
			<rect id="SVGID_1_" x="260.84" y="344.6" width="111.131" height="122.1"/>
		</defs>
		<clipPath id="SVGID_2_">
			<use xlink:href="#SVGID_1_"  overflow="visible"/>
		</clipPath>
		<path clip-path="url(#SVGID_2_)" fill="#DF2E54" d="M369.902,386.942c-10.15-32.988-1.838-41.102-0.035-42.339H302.5v8.929
			c-0.086-0.001-0.172-0.005-0.259-0.005c-5.468,0-10.817,1.073-15.899,3.188c-5.158,2.147-9.742,5.243-13.629,9.202
			c-3.752,3.821-6.691,8.278-8.738,13.246c-2.049,4.969-3.103,10.203-3.131,15.557c-0.032,5.546,1.041,10.975,3.188,16.132
			c3.204,7.696,8.573,14.17,15.527,18.72c6.779,4.435,14.632,6.778,22.71,6.778c0.077,0,0.155-0.002,0.231-0.002v30.354
			C316.137,461.278,384.657,434.896,369.902,386.942 M302.269,428.325c-13.076,0-25.487-7.733-30.827-20.558
			c-7.085-17.018,0.968-36.557,17.984-43.641c4.193-1.746,8.541-2.573,12.815-2.573c0.087,0,0.173,0.004,0.259,0.005v66.763
			C302.424,428.323,302.346,428.325,302.269,428.325"/>
	</g>
</g>
<path fill="#FFFFFF" d="M315.35,425.268c-17.018,7.086-36.557-0.967-43.641-17.984c-7.086-17.018,0.967-36.556,17.983-43.642
	c17.019-7.085,36.558,0.967,43.642,17.985C340.42,398.645,332.367,418.183,315.35,425.268"/>
<g opacity="0.4">
	<g>
		<defs>
			<rect id="SVGID_3_" x="232.16" y="298.82" width="139.811" height="168.06"/>
		</defs>
		<clipPath id="SVGID_4_">
			<use xlink:href="#SVGID_3_"  overflow="visible"/>
		</clipPath>
		<path clip-path="url(#SVGID_4_)" fill="#FFFFFF" d="M302.068,312.886c8.377,4.036,25.287,10.075,54.195,12.173v14.625
			c-1.49,2.458-2.887,5.657-3.813,9.769c-2.387,10.613-0.952,24.591,4.264,41.547c2.329,7.568,1.856,14.6-1.443,21.499
			c-3.051,6.373-8.519,12.725-16.252,18.875c-12.736,10.132-28.211,17.049-36.951,20.637c-8.742-3.588-24.217-10.505-36.952-20.637
			c-7.733-6.15-13.201-12.502-16.251-18.875c-3.301-6.898-3.773-13.931-1.445-21.499c5.23-17.001,6.613-31.022,4.109-41.675
			c-0.963-4.098-2.391-7.283-3.908-9.729v-14.542C269.76,323.416,289.196,319.09,302.068,312.886 M302.068,298.824
			c-1.727,0-3.453,0.347-4.795,1.037c-9.942,5.12-29.271,10.588-57.984,11.864c-3.016,0.134-5.465,2.57-5.465,5.589v27.161
			c0,0,11.263,7.193,0.41,42.466c-14.918,48.482,55.285,74.915,67.834,79.934c12.549-5.019,82.751-31.451,67.834-79.934
			c-10.854-35.272,0.158-42.466,0.158-42.466v-27.161c0-3.019-2.448-5.455-5.465-5.589c-28.713-1.276-47.791-6.744-57.732-11.864
			C305.521,299.171,303.794,298.824,302.068,298.824"/>
	</g>
</g>
<polygon fill="#F26C7C" points="302.342,361.887 301.715,391.361 306.605,395.501 334.449,395.877 335.203,388.602 327.677,373.802 
	314.884,364.145 "/>
<path fill="#191818" d="M302.014,370.255c0,0-0.002,0.02-0.004,0.053h0.01C302.016,370.275,302.014,370.255,302.014,370.255"/>
<path fill="#191818" d="M302.017,370.282c0.002,0.014,0.536,0.026,1.196,0.026c0.657,0,1.192-0.561,1.192-1.254v-5.77
	c0-0.692-0.562-1.254-1.255-1.254h-1.637c-0.692,0-1.254,0.562-1.254,1.254v5.77c0,0.693,0.392,1.254,0.875,1.254
	s0.875-0.012,0.877-0.026C302.014,370.267,302.016,370.267,302.017,370.282"/>
<path fill="#191818" d="M335.193,395.709v-1.636c0-0.693-0.562-1.255-1.254-1.255h-5.686c-0.693,0-1.254,0.562-1.254,1.255v1.636
	c0,0.693,0.561,1.254,1.254,1.254h5.686C334.632,396.963,335.193,396.402,335.193,395.709"/>
<path fill="#191818" d="M269.472,394.073v1.636c0,0.693,0.562,1.255,1.254,1.255h5.519c0.693,0,1.254-0.562,1.254-1.255v-1.636
	c0-0.693-0.561-1.254-1.254-1.254h-5.519C270.033,392.819,269.472,393.38,269.472,394.073"/>
<path fill="#191818" d="M301.515,427.752h1.636c0.693,0,1.255-0.562,1.255-1.254v-5.436c0-0.692-0.562-1.254-1.255-1.254h-1.636
	c-0.693,0-1.255,0.562-1.255,1.254v5.436C300.26,427.19,300.821,427.752,301.515,427.752"/>
<path fill="#191818" d="M285.902,366.433c-0.6,0.346-0.805,1.113-0.459,1.713l2.849,4.936c0.347,0.6,1.115,0.808,1.718,0.466
	c0.602-0.343,0.81-1.107,0.463-1.707l-2.857-4.948C287.27,366.292,286.502,366.087,285.902,366.433"/>
<path fill="#191818" d="M273.875,378.46c-0.348,0.6-0.142,1.367,0.459,1.713l4.866,2.811c0.601,0.346,1.364,0.138,1.706-0.464
	s0.133-1.371-0.467-1.718l-4.852-2.801C274.987,377.655,274.221,377.86,273.875,378.46"/>
<path fill="#191818" d="M273.875,411.321c0.346,0.601,1.112,0.806,1.713,0.46l4.719-2.726c0.6-0.346,0.804-1.112,0.457-1.711
	c-0.349-0.599-1.117-0.804-1.717-0.458l-4.713,2.722C273.733,409.955,273.527,410.722,273.875,411.321"/>
<path fill="#191818" d="M285.902,423.35c0.6,0.346,1.367,0.141,1.713-0.459l2.71-4.693c0.347-0.601,0.14-1.365-0.461-1.709
	c-0.601-0.346-1.369-0.138-1.716,0.463l-2.705,4.686C285.098,422.236,285.303,423.004,285.902,423.35"/>
<path fill="#191818" d="M318.764,423.35c0.6-0.346,0.805-1.113,0.459-1.713l-2.746-4.755c-0.346-0.601-1.115-0.808-1.717-0.466
	c-0.602,0.343-0.809,1.106-0.463,1.707l2.753,4.768C317.396,423.49,318.163,423.695,318.764,423.35"/>
<path fill="#191818" d="M330.791,411.321c0.346-0.6,0.141-1.366-0.459-1.713l-4.851-2.801c-0.601-0.346-1.363-0.139-1.705,0.464
	c-0.343,0.602-0.134,1.371,0.467,1.719l4.835,2.791C329.678,412.127,330.444,411.922,330.791,411.321"/>
<path fill="#191818" d="M330.791,378.46c-0.347-0.6-1.113-0.805-1.713-0.459l-4.99,2.881c-0.6,0.346-0.804,1.113-0.457,1.712
	c0.349,0.598,1.117,0.803,1.717,0.457l4.984-2.878C330.932,379.828,331.137,379.061,330.791,378.46"/>
<path fill="#191818" d="M318.764,366.433c-0.601-0.346-1.367-0.141-1.714,0.459l-2.897,5.017c-0.346,0.6-0.139,1.365,0.463,1.71
	c0.601,0.344,1.369,0.137,1.715-0.463l2.893-5.01C319.568,367.546,319.363,366.779,318.764,366.433"/>
<path fill="#191818" d="M302.268,430.398c-14.366,0-27.217-8.57-32.739-21.834c-7.513-18.045,1.056-38.838,19.101-46.351
	c4.354-1.813,8.934-2.732,13.613-2.732c14.365,0,27.217,8.57,32.738,21.833c3.641,8.741,3.657,18.376,0.049,27.13
	c-3.607,8.756-10.408,15.582-19.15,19.221C311.525,429.479,306.946,430.398,302.268,430.398 M302.242,363.627
	c-4.13,0-8.174,0.812-12.02,2.413c-15.936,6.634-23.502,24.996-16.868,40.932c4.877,11.713,16.226,19.281,28.913,19.281
	c4.129,0,8.172-0.812,12.018-2.413c7.721-3.214,13.727-9.242,16.912-16.973c3.186-7.731,3.172-16.24-0.043-23.959
	C326.277,371.195,314.93,363.627,302.242,363.627"/>
<rect x="292.892" y="391.499" transform="matrix(0.5437 0.8393 -0.8393 0.5437 470.2568 -64.4449)" fill="#F26C7C" width="3.01" height="17.534"/>
<path fill="#191818" d="M297.871,395.621c0.006,2.295,1.872,4.151,4.168,4.146c2.295-0.007,4.15-1.873,4.145-4.168
	c-0.006-2.296-4.025-18.447-4.025-18.447S297.864,393.326,297.871,395.621"/>
<path fill="#191818" d="M302.721,391.594c-2.295-0.029-4.179,1.808-4.207,4.103c-0.031,2.296,1.807,4.18,4.102,4.209
	c2.296,0.029,18.512-4.04,18.512-4.04S305.016,391.623,302.721,391.594"/>
<path fill="#191818" d="M302.068,307.19c0.527,0,0.894,0.091,1.006,0.13c13.141,6.754,34.396,11.326,58.621,12.638v21.353
	c-1.469,2.076-2.99,5.087-3.945,9.333c-2.178,9.679-0.779,22.718,4.156,38.758c5.107,16.6-1.273,31.719-19.506,46.221
	c-14.387,11.444-31.92,18.869-40.332,22.248c-8.413-3.379-25.946-10.804-40.333-22.248c-18.232-14.502-24.613-29.621-19.505-46.221
	c4.943-16.066,6.293-29.133,4.013-38.836c-0.997-4.241-2.556-7.243-4.054-9.313v-21.295c24.394-1.318,45.744-5.89,58.873-12.638
	C301.174,307.281,301.541,307.19,302.068,307.19 M302.068,298.824c-1.727,0-3.453,0.346-4.795,1.037
	c-9.942,5.12-29.271,10.588-57.984,11.864c-3.016,0.134-5.465,2.57-5.465,5.589v27.161c0,0,11.263,7.193,0.41,42.466
	c-14.918,48.482,55.285,74.915,67.834,79.934c12.549-5.019,82.751-31.451,67.834-79.934c-10.854-35.272,0.158-42.466,0.158-42.466
	v-27.161c0-3.019-2.448-5.455-5.465-5.589c-28.713-1.276-47.791-6.744-57.732-11.864
	C305.521,299.17,303.794,298.824,302.068,298.824"/>
<path fill="#191818" d="M370.062,317.315c0-3.02-2.449-5.456-5.466-5.59c-28.713-1.275-47.791-6.743-57.732-11.864
	c-2.686-1.382-6.906-1.382-9.59,0c-9.942,5.121-29.271,10.589-57.984,11.864c-3.017,0.134-5.465,2.57-5.465,5.59v27.16
	c0,0,0.068,0.042,0.193,0.128h135.85c0.124-0.086,0.194-0.128,0.194-0.128V317.315z"/>
<polygon fill="#FFFFFF" points="281.324,335.771 287.345,319.243 279.035,319.243 279.035,315.691 291.922,315.691 291.922,318.491 
	285.688,335.771 "/>
<path fill="#FFFFFF" d="M293.635,332.971l2.438-2.589c1.054,1.385,2.468,2.168,4.185,2.168c1.928,0,3.04-1.475,3.04-3.162
	c0-1.986-1.054-3.161-2.858-3.161c-1.356,0-2.379,0.482-3.313,1.656l-2.921-0.783v-11.409h12.042v3.551h-8.008v5.149
	c0.783-0.963,2.138-1.656,3.673-1.656c3.041,0,5.479,2.379,5.479,6.533c0,4.034-2.74,6.864-7.015,6.864
	C297.277,336.132,295.141,334.988,293.635,332.971"/>
<path fill="#FFFFFF" d="M309.318,325.745c0-5.178,2.136-10.355,7.104-10.355c4.998,0,7.105,5.178,7.105,10.355
	c0,5.148-2.078,10.388-7.105,10.388C311.454,336.133,309.318,330.894,309.318,325.745 M319.434,325.745
	c0-3.883-0.662-6.772-3.012-6.772c-2.318,0-2.98,2.89-2.98,6.772c0,3.854,0.662,6.805,2.98,6.805
	C318.771,332.55,319.434,329.6,319.434,325.745"/>
<polygon fill="#FFFFFF" points="273.014,323.988 265.556,322.857 262.234,315.76 258.914,322.857 251.455,323.988 256.846,329.522 
	255.498,337.317 262.234,333.637 268.971,337.317 267.625,329.522 "/>
<polygon fill="#FFFFFF" points="352.681,323.988 345.223,322.857 341.901,315.76 338.58,322.857 331.123,323.988 336.512,329.522 
	335.164,337.317 341.901,333.637 348.639,337.317 347.291,329.522 "/>
<path fill="#010101" d="M394.939,397.108c-1.818-3.577-5.514-6.851-6.38-10.245l-0.532-0.223c-1.336,3.336-1.192,7.327-0.168,10.951
	c1.108,4.704,3.424,8.369,4.508,12.994c0.193,0.89,0.354,1.775,0.457,2.742c6.957-5.049,13.371-10.809,15.184-19.897l-12.193,6.129
	C395.65,398.713,395.32,397.874,394.939,397.108"/>
<path fill="#010101" d="M391.803,355.326c0.578,1.658,0.758,3.546,1.549,5.248c0.51,0.668,0.959,1.357,1.43,2.056
	c1.314,1.814,2.677,3.431,4.421,3.885c0.606-2.796,1.065-5.733,0.534-8.912c-0.605-2.012-1.508-3.807-2.69-5.429
	c-1.849-2.559-4.358-4.637-7.396-6.199c-0.1-0.057-0.166-0.071-0.224-0.119l-0.403,0.093c0.156,0.24,0.303,0.516,0.459,0.795
	C390.859,349.37,391.271,352.147,391.803,355.326"/>
<path fill="#010101" d="M396.438,372.492c-2.654-3.01-7.05-5.257-8.736-8.326l-0.571-0.084c-0.461,3.565,0.675,7.394,2.573,10.646
	c2.248,4.278,5.406,7.249,7.611,11.456c0.409,0.813,0.784,1.631,1.127,2.54c5.476-6.626,10.246-13.806,9.73-23.059l-10.275,8.981
	C397.527,373.867,396.998,373.137,396.438,372.492"/>
<path fill="#010101" d="M209.197,397.108c1.817-3.577,5.512-6.851,6.379-10.245l0.532-0.223c1.337,3.336,1.192,7.327,0.169,10.951
	c-1.109,4.704-3.424,8.369-4.508,12.994c-0.193,0.89-0.354,1.775-0.459,2.742c-6.956-5.049-13.369-10.809-15.182-19.897
	l12.193,6.129C208.485,398.713,208.814,397.874,209.197,397.108"/>
<path fill="#010101" d="M212.334,355.326c-0.58,1.658-0.759,3.546-1.549,5.248c-0.511,0.668-0.96,1.357-1.431,2.056
	c-1.314,1.814-2.677,3.431-4.421,3.885c-0.605-2.796-1.064-5.733-0.533-8.912c0.605-2.012,1.507-3.807,2.689-5.429
	c1.849-2.559,4.358-4.637,7.396-6.199c0.1-0.057,0.166-0.071,0.223-0.119l0.404,0.093c-0.158,0.24-0.303,0.516-0.461,0.795
	C213.276,349.37,212.864,352.147,212.334,355.326"/>
<path fill="#010101" d="M207.699,372.492c2.653-3.01,7.049-5.257,8.736-8.326l0.57-0.084c0.461,3.565-0.674,7.394-2.572,10.646
	c-2.248,4.278-5.406,7.249-7.611,11.456c-0.41,0.813-0.785,1.631-1.128,2.54c-5.476-6.626-10.246-13.806-9.731-23.059l10.277,8.981
	C206.609,373.867,207.138,373.137,207.699,372.492"/>
<path fill="#010101" d="M375.336,438.267c-0.916-0.018-1.783-0.026-2.638,0.015c3.211-4.571,2.29-10.164,4.058-15.119l-0.017-0.22
	c-5.329,2.009-8.124,6.7-10.731,11.657c-1.861,3.592-3.683,7.274-6.339,9.994c1.109,0.08,2.153,0.229,3.234,0.388
	c1.122,0.163,2.274,0.386,3.435,0.692c2.307,0.135,4.581,0.238,6.732,0.167c4.035-0.171,7.795-0.854,11.037-2.606
	c1.501-0.798,2.902-1.849,4.131-3.16c-0.949-0.154-1.992-0.343-3.028-0.525C381.945,438.994,378.512,438.425,375.336,438.267"/>
<path fill="#010101" d="M388.336,422.693c-1.494-5.036-4.274-10.122-3.864-15.642l-0.144-0.219l-0.373,0.165
	c-0.045,0.036-0.098,0.107-0.101,0.145c-0.293,0.5-0.602,0.785-1.137,1.299c-3.806,6.707-3.229,14.78-1.274,21.921
	c0.319,1.176,0.652,2.295,1.062,3.425c3.423-2.676,7.644-3.359,11.442-5.307c0.342-0.207,0.678-0.369,1.03-0.582
	c3.659-2.641,5.886-7.006,6.841-11.183c-2.373,0.757-4.701,1.368-6.875,2.187C392.597,419.748,390.334,420.89,388.336,422.693"/>
<path fill="#010101" d="M228.863,438.267c0.916-0.018,1.783-0.026,2.638,0.015c-3.211-4.571-2.29-10.164-4.058-15.119l0.017-0.22
	c5.329,2.009,8.124,6.7,10.731,11.657c1.861,3.592,3.683,7.274,6.339,9.994c-1.109,0.08-2.153,0.229-3.234,0.388
	c-1.122,0.163-2.274,0.386-3.435,0.692c-2.307,0.135-4.581,0.238-6.732,0.167c-4.035-0.171-7.795-0.854-11.037-2.606
	c-1.501-0.798-2.902-1.849-4.131-3.16c0.949-0.154,1.992-0.343,3.028-0.525C222.254,438.994,225.688,438.425,228.863,438.267"/>
<path fill="#010101" d="M215.863,422.693c1.494-5.036,4.273-10.122,3.865-15.642l0.142-0.219l0.374,0.165
	c0.045,0.036,0.097,0.107,0.102,0.145c0.291,0.5,0.6,0.785,1.135,1.299c3.806,6.707,3.23,14.78,1.276,21.921
	c-0.321,1.176-0.653,2.295-1.063,3.425c-3.422-2.676-7.644-3.359-11.442-5.307c-0.341-0.207-0.676-0.369-1.028-0.582
	c-3.66-2.641-5.887-7.006-6.842-11.183c2.373,0.757,4.7,1.368,6.876,2.187C211.602,419.748,213.865,420.89,215.863,422.693"/>
<path fill="#1A1A19" d="M302.041,471.469c-3.51-1.403-11.533-5.484-20.939-10.254v14.698c11.414,7.015,20.566,11.113,20.566,11.113
	l0.399-0.001l0.399,0.001c0,0,9.152-4.099,20.567-11.113v-14.726c-9.062,4.597-16.847,8.632-20.56,10.109
	C302.323,471.356,302.178,471.415,302.041,471.469"/>
<path fill="#1A1A19" d="M248.771,450.546c8.119,9.569,19.146,17.858,29.014,24.17v-15.223c-9.689-5.162-20.402-12.017-29.014-20.576
	V450.546z"/>
<path fill="#1A1A19" d="M326.351,474.717c9.868-6.313,20.895-14.602,29.014-24.17V438.86c-8.606,8.57-19.317,15.433-29.014,20.603
	V474.717z"/>
</svg>
