<?xml version="1.0" encoding="utf-8"?>
<!-- Generator: Adobe Illustrator 16.0.0, SVG Export Plug-In . SVG Version: 6.00 Build 0)  -->
<!DOCTYPE svg PUBLIC "-//W3C//DTD SVG 1.1//EN" "http://www.w3.org/Graphics/SVG/1.1/DTD/svg11.dtd">
<svg version="1.1" id="Layer_1" xmlns="http://www.w3.org/2000/svg" xmlns:xlink="http://www.w3.org/1999/xlink" x="0px" y="0px"
	 width="240px" height="195px" viewBox="0 0 240 195" enable-background="new 0 0 240 195" xml:space="preserve">
<path fill="none" d="M78.63-2257.76"/>
<path fill="none" d="M78.63,987.837"/>
<path fill="none" d="M51.764,1616.837"/>
<path fill="none" d="M51.764-1628.76"/>
<line fill="#929497" x1="1530.52" y1="-66.557" x2="1530.52" y2="-65.807"/>
<line fill="#929497" x1="-611.484" y1="-65.807" x2="-611.484" y2="-66.557"/>
<path fill="#F26D7C" d="M187.902,92.942c-10.15-32.988-1.838-41.102-0.035-42.34H120.5H52.018c1.804,1.238,10.367,9.352,0.217,42.34
	c-14.918,48.48,55.285,74.916,67.834,79.934c0.136-0.055,0.281-0.112,0.432-0.172C134.137,167.278,202.657,140.896,187.902,92.942"
	/>
<g opacity="0.5">
	<g>
		<g>
			<defs>
				<rect id="SVGID_1_" x="78.84" y="50.6" width="111.131" height="122.101"/>
			</defs>
			<clipPath id="SVGID_2_">
				<use xlink:href="#SVGID_1_"  overflow="visible"/>
			</clipPath>
			<path clip-path="url(#SVGID_2_)" fill="#DF2F55" d="M187.902,92.942c-10.15-32.988-1.838-41.103-0.035-42.34H120.5v8.93
				c-0.086-0.001-0.172-0.005-0.259-0.005c-5.468,0-10.817,1.072-15.899,3.188c-5.158,2.147-9.742,5.243-13.629,9.202
				c-3.752,3.821-6.691,8.278-8.738,13.246c-2.049,4.969-3.103,10.203-3.131,15.557c-0.032,5.546,1.041,10.976,3.188,16.132
				c3.204,7.696,8.573,14.17,15.527,18.721c6.779,4.435,14.632,6.777,22.71,6.777c0.077,0,0.155-0.002,0.231-0.002v30.354
				C134.137,167.278,202.657,140.896,187.902,92.942 M120.269,134.325c-13.076,0-25.487-7.733-30.827-20.559
				c-7.085-17.018,0.968-36.557,17.984-43.641c4.193-1.746,8.541-2.573,12.815-2.573c0.087,0,0.173,0.004,0.259,0.005v66.764
				C120.424,134.323,120.346,134.325,120.269,134.325"/>
		</g>
	</g>
</g>
<path fill="#FFFFFF" d="M133.35,131.268c-17.018,7.086-36.557-0.967-43.641-17.983c-7.086-17.019,0.967-36.557,17.983-43.643
	c17.019-7.085,36.558,0.968,43.642,17.985C158.42,104.645,150.367,124.183,133.35,131.268"/>
<g opacity="0.4">
	<g>
		<g>
			<defs>
				<rect id="SVGID_3_" x="50.16" y="4.82" width="139.811" height="168.06"/>
			</defs>
			<clipPath id="SVGID_4_">
				<use xlink:href="#SVGID_3_"  overflow="visible"/>
			</clipPath>
			<path clip-path="url(#SVGID_4_)" fill="#FFFFFF" d="M120.068,18.886c8.377,4.036,25.288,10.075,54.196,12.173v14.625
				c-1.49,2.458-2.888,5.657-3.813,9.77c-2.388,10.613-0.952,24.591,4.264,41.547c2.329,7.568,1.856,14.6-1.442,21.499
				c-3.051,6.373-8.52,12.725-16.252,18.875c-12.736,10.132-28.211,17.049-36.952,20.637c-8.742-3.588-24.217-10.505-36.952-20.637
				c-7.733-6.15-13.201-12.502-16.251-18.875c-3.301-6.898-3.773-13.931-1.445-21.499c5.23-17.001,6.613-31.022,4.109-41.675
				c-0.963-4.099-2.391-7.283-3.908-9.729V31.054C87.76,29.416,107.196,25.09,120.068,18.886 M120.068,4.824
				c-1.727,0-3.453,0.347-4.795,1.037c-9.942,5.12-29.271,10.588-57.984,11.864c-3.016,0.135-5.465,2.57-5.465,5.59v27.16
				c0,0,11.263,7.193,0.41,42.467c-14.918,48.481,55.285,74.915,67.834,79.934c12.549-5.019,82.75-31.451,67.834-79.934
				c-10.854-35.272,0.158-42.467,0.158-42.467v-27.16c0-3.02-2.449-5.455-5.466-5.59c-28.713-1.275-47.791-6.744-57.731-11.864
				C123.521,5.171,121.794,4.824,120.068,4.824"/>
		</g>
	</g>
</g>
<polygon fill="#F26D7C" points="120.342,67.887 119.715,97.361 124.605,101.501 152.449,101.877 153.203,94.602 145.677,79.802 
	132.884,70.145 "/>
<path fill="#191818" d="M120.014,76.255c0,0-0.002,0.021-0.004,0.053h0.01C120.016,76.275,120.014,76.255,120.014,76.255"/>
<path fill="#191818" d="M120.017,76.282c0.002,0.014,0.536,0.025,1.196,0.025c0.657,0,1.191-0.561,1.191-1.254v-5.77
	c0-0.692-0.562-1.254-1.254-1.254h-1.637c-0.692,0-1.254,0.562-1.254,1.254v5.77c0,0.693,0.392,1.254,0.875,1.254
	c0.483,0,0.875-0.012,0.877-0.025C120.014,76.267,120.016,76.267,120.017,76.282"/>
<path fill="#191818" d="M153.193,101.709v-1.636c0-0.693-0.563-1.255-1.254-1.255h-5.687c-0.692,0-1.254,0.562-1.254,1.255v1.636
	c0,0.693,0.562,1.254,1.254,1.254h5.687C152.632,102.963,153.193,102.402,153.193,101.709"/>
<path fill="#191818" d="M87.472,100.073v1.636c0,0.693,0.562,1.255,1.254,1.255h5.519c0.693,0,1.254-0.562,1.254-1.255v-1.636
	c0-0.693-0.561-1.254-1.254-1.254h-5.519C88.033,98.819,87.472,99.38,87.472,100.073"/>
<path fill="#191818" d="M119.515,133.752h1.635c0.693,0,1.256-0.562,1.256-1.254v-5.436c0-0.692-0.563-1.255-1.256-1.255h-1.635
	c-0.693,0-1.255,0.563-1.255,1.255v5.436C118.26,133.19,118.821,133.752,119.515,133.752"/>
<path fill="#191818" d="M103.902,72.433c-0.6,0.347-0.805,1.113-0.459,1.714l2.849,4.936c0.347,0.6,1.115,0.808,1.718,0.466
	c0.602-0.343,0.81-1.106,0.463-1.707l-2.857-4.948C105.27,72.292,104.502,72.087,103.902,72.433"/>
<path fill="#191818" d="M91.875,84.46c-0.348,0.6-0.142,1.367,0.459,1.713l4.866,2.812c0.601,0.346,1.364,0.138,1.706-0.465
	c0.342-0.602,0.133-1.37-0.467-1.718l-4.852-2.801C92.987,83.655,92.221,83.86,91.875,84.46"/>
<path fill="#191818" d="M91.875,117.321c0.346,0.601,1.112,0.806,1.713,0.46l4.719-2.727c0.6-0.346,0.804-1.111,0.457-1.711
	c-0.349-0.599-1.117-0.804-1.717-0.458l-4.713,2.723C91.733,115.955,91.527,116.722,91.875,117.321"/>
<path fill="#191818" d="M103.902,129.35c0.6,0.347,1.367,0.142,1.713-0.459l2.71-4.692c0.347-0.602,0.14-1.365-0.461-1.709
	c-0.601-0.347-1.369-0.139-1.716,0.463l-2.705,4.686C103.098,128.236,103.303,129.004,103.902,129.35"/>
<path fill="#191818" d="M136.764,129.35c0.601-0.346,0.805-1.112,0.459-1.713l-2.746-4.755c-0.346-0.601-1.115-0.808-1.717-0.466
	c-0.602,0.343-0.809,1.105-0.463,1.707l2.753,4.768C135.396,129.49,136.163,129.695,136.764,129.35"/>
<path fill="#191818" d="M148.791,117.321c0.346-0.601,0.141-1.366-0.459-1.713l-4.852-2.802c-0.601-0.346-1.362-0.139-1.705,0.465
	c-0.342,0.602-0.133,1.37,0.468,1.719l4.835,2.791C147.678,118.127,148.443,117.922,148.791,117.321"/>
<path fill="#191818" d="M148.791,84.46c-0.348-0.6-1.113-0.805-1.713-0.459l-4.99,2.881c-0.6,0.346-0.804,1.113-0.457,1.712
	c0.35,0.599,1.117,0.804,1.717,0.457l4.984-2.878C148.932,85.828,149.137,85.061,148.791,84.46"/>
<path fill="#191818" d="M136.764,72.433c-0.601-0.346-1.367-0.141-1.714,0.459l-2.897,5.018c-0.346,0.6-0.139,1.365,0.464,1.71
	c0.601,0.344,1.368,0.137,1.715-0.463l2.894-5.01C137.568,73.546,137.363,72.779,136.764,72.433"/>
<path fill="#191818" d="M120.268,136.398c-14.366,0-27.217-8.57-32.739-21.834c-7.513-18.046,1.056-38.839,19.101-46.352
	c4.354-1.813,8.934-2.731,13.613-2.731c14.364,0,27.217,8.569,32.737,21.833c3.642,8.74,3.658,18.376,0.05,27.13
	c-3.607,8.756-10.408,15.582-19.15,19.221C129.525,135.479,124.945,136.398,120.268,136.398 M120.242,69.627
	c-4.13,0-8.174,0.813-12.02,2.413c-15.936,6.634-23.502,24.996-16.868,40.932c4.877,11.713,16.226,19.281,28.913,19.281
	c4.129,0,8.172-0.812,12.018-2.413c7.721-3.214,13.727-9.242,16.912-16.973c3.186-7.731,3.172-16.24-0.043-23.959
	C144.277,77.195,132.93,69.627,120.242,69.627"/>
<rect x="110.872" y="97.5" transform="matrix(-0.5437 -0.8393 0.8393 -0.5437 84.2928 258.3611)" fill="#F26D7C" width="3.01" height="17.534"/>
<path fill="#191818" d="M115.871,101.621c0.006,2.295,1.872,4.151,4.168,4.146c2.295-0.007,4.15-1.873,4.145-4.168
	c-0.006-2.296-4.024-18.446-4.024-18.446S115.864,99.326,115.871,101.621"/>
<path fill="#191818" d="M120.721,97.594c-2.295-0.028-4.179,1.809-4.207,4.104c-0.031,2.296,1.807,4.18,4.102,4.209
	c2.296,0.028,18.512-4.04,18.512-4.04S123.016,97.623,120.721,97.594"/>
<path fill="#191818" d="M120.068,13.19c0.527,0,0.894,0.091,1.006,0.13c13.141,6.754,34.396,11.326,58.621,12.638v21.353
	c-1.469,2.076-2.99,5.088-3.945,9.333c-2.178,9.68-0.779,22.719,4.156,38.759c5.107,16.6-1.273,31.719-19.506,46.221
	c-14.387,11.444-31.92,18.869-40.333,22.248c-8.413-3.379-25.946-10.804-40.333-22.248c-18.232-14.502-24.613-29.621-19.505-46.221
	c4.943-16.066,6.293-29.134,4.013-38.836c-0.997-4.241-2.556-7.243-4.054-9.313V25.958c24.394-1.318,45.744-5.89,58.873-12.638
	C119.174,13.281,119.541,13.19,120.068,13.19 M120.068,4.824c-1.727,0-3.453,0.346-4.795,1.037
	c-9.942,5.12-29.271,10.588-57.984,11.864c-3.016,0.135-5.465,2.57-5.465,5.59v27.16c0,0,11.263,7.193,0.41,42.467
	c-14.918,48.481,55.285,74.915,67.834,79.934c12.549-5.019,82.75-31.451,67.834-79.934c-10.854-35.272,0.158-42.467,0.158-42.467
	v-27.16c0-3.02-2.449-5.455-5.466-5.59c-28.713-1.275-47.791-6.744-57.731-11.864C123.521,5.17,121.794,4.824,120.068,4.824"/>
<path fill="#191818" d="M188.063,23.315c0-3.021-2.449-5.456-5.467-5.591c-28.713-1.274-47.791-6.743-57.731-11.864
	c-2.687-1.382-6.906-1.382-9.59,0c-9.942,5.121-29.271,10.589-57.984,11.864c-3.017,0.135-5.465,2.57-5.465,5.591v27.159
	c0,0,0.068,0.042,0.193,0.128h135.85c0.124-0.086,0.194-0.128,0.194-0.128V23.315z"/>
<polygon fill="#FFFFFF" points="99.324,41.771 105.345,25.243 97.035,25.243 97.035,21.691 109.922,21.691 109.922,24.491 
	103.688,41.771 "/>
<path fill="#FFFFFF" d="M111.635,38.971l2.438-2.589c1.054,1.385,2.468,2.168,4.185,2.168c1.928,0,3.04-1.475,3.04-3.162
	c0-1.985-1.054-3.161-2.858-3.161c-1.356,0-2.379,0.482-3.313,1.656l-2.921-0.783V21.691h12.042v3.551h-8.008v5.148
	c0.783-0.963,2.138-1.655,3.673-1.655c3.041,0,5.479,2.379,5.479,6.532c0,4.034-2.74,6.864-7.016,6.864
	C115.277,42.132,113.141,40.988,111.635,38.971"/>
<path fill="#FFFFFF" d="M127.318,31.745c0-5.178,2.136-10.355,7.104-10.355c4.998,0,7.105,5.179,7.105,10.355
	c0,5.147-2.078,10.388-7.105,10.388C129.454,42.133,127.318,36.894,127.318,31.745 M137.434,31.745c0-3.883-0.662-6.772-3.012-6.772
	c-2.318,0-2.98,2.891-2.98,6.772c0,3.854,0.662,6.805,2.98,6.805C136.771,38.55,137.434,35.6,137.434,31.745"/>
<polygon fill="#FFFFFF" points="91.014,29.988 83.556,28.857 80.234,21.76 76.914,28.857 69.455,29.988 74.846,35.522 
	73.498,43.317 80.234,39.637 86.971,43.317 85.625,35.522 "/>
<polygon fill="#FFFFFF" points="170.682,29.988 163.223,28.857 159.9,21.76 156.58,28.857 149.123,29.988 154.512,35.522 
	153.164,43.317 159.9,39.637 166.639,43.317 165.291,35.522 "/>
<path fill="#020202" d="M212.939,103.108c-1.818-3.577-5.515-6.852-6.381-10.245l-0.531-0.224
	c-1.336,3.336-1.192,7.327-0.168,10.951c1.107,4.704,3.424,8.369,4.508,12.994c0.193,0.89,0.354,1.775,0.457,2.742
	c6.957-5.049,13.371-10.81,15.184-19.897l-12.193,6.129C213.65,104.713,213.32,103.874,212.939,103.108"/>
<path fill="#020202" d="M209.803,61.326c0.578,1.658,0.758,3.546,1.549,5.248c0.51,0.668,0.959,1.356,1.431,2.056
	c1.313,1.814,2.677,3.431,4.421,3.885c0.605-2.796,1.064-5.732,0.534-8.912c-0.605-2.012-1.509-3.807-2.69-5.429
	c-1.849-2.559-4.357-4.637-7.396-6.199c-0.1-0.057-0.166-0.07-0.224-0.118l-0.403,0.093c0.156,0.24,0.304,0.516,0.459,0.795
	C208.859,55.37,209.271,58.147,209.803,61.326"/>
<path fill="#020202" d="M214.438,78.492c-2.653-3.01-7.049-5.257-8.735-8.326l-0.571-0.084c-0.461,3.565,0.676,7.394,2.573,10.646
	c2.248,4.278,5.405,7.249,7.611,11.456c0.408,0.813,0.783,1.632,1.127,2.54c5.476-6.626,10.245-13.806,9.729-23.059l-10.274,8.981
	C215.527,79.867,214.998,79.137,214.438,78.492"/>
<path fill="#020202" d="M27.197,103.108c1.817-3.577,5.512-6.852,6.379-10.245l0.532-0.224c1.337,3.336,1.192,7.327,0.169,10.951
	c-1.109,4.704-3.424,8.369-4.508,12.994c-0.193,0.89-0.354,1.775-0.459,2.742c-6.956-5.049-13.369-10.81-15.182-19.897l12.193,6.129
	C26.485,104.713,26.814,103.874,27.197,103.108"/>
<path fill="#020202" d="M30.334,61.326c-0.58,1.658-0.759,3.546-1.549,5.248c-0.511,0.668-0.96,1.356-1.431,2.056
	c-1.314,1.814-2.677,3.431-4.421,3.885c-0.605-2.796-1.064-5.732-0.533-8.912c0.605-2.012,1.507-3.807,2.689-5.429
	c1.849-2.559,4.358-4.637,7.396-6.199c0.1-0.057,0.166-0.07,0.223-0.118l0.404,0.093c-0.158,0.24-0.303,0.516-0.461,0.795
	C31.276,55.37,30.864,58.147,30.334,61.326"/>
<path fill="#020202" d="M25.699,78.492c2.653-3.01,7.049-5.257,8.736-8.326l0.57-0.084c0.461,3.565-0.674,7.394-2.572,10.646
	c-2.248,4.278-5.406,7.249-7.611,11.456c-0.41,0.813-0.785,1.632-1.128,2.54c-5.476-6.626-10.246-13.806-9.731-23.059l10.277,8.981
	C24.609,79.867,25.138,79.137,25.699,78.492"/>
<path fill="#020202" d="M193.336,144.267c-0.916-0.018-1.783-0.025-2.638,0.016c3.211-4.571,2.29-10.164,4.058-15.119l-0.017-0.22
	c-5.329,2.009-8.124,6.699-10.731,11.656c-1.861,3.593-3.683,7.274-6.339,9.994c1.108,0.08,2.153,0.229,3.233,0.389
	c1.123,0.162,2.275,0.386,3.436,0.691c2.307,0.135,4.581,0.238,6.732,0.167c4.035-0.171,7.795-0.854,11.037-2.605
	c1.5-0.798,2.901-1.85,4.131-3.16c-0.949-0.154-1.992-0.343-3.028-0.525C199.945,144.994,196.512,144.425,193.336,144.267"/>
<path fill="#020202" d="M206.336,128.693c-1.494-5.036-4.273-10.122-3.863-15.643l-0.145-0.219l-0.373,0.165
	c-0.045,0.036-0.098,0.106-0.102,0.145c-0.293,0.5-0.602,0.785-1.137,1.3c-3.806,6.707-3.229,14.779-1.273,21.921
	c0.318,1.176,0.652,2.295,1.062,3.425c3.423-2.676,7.644-3.359,11.442-5.307c0.342-0.207,0.678-0.369,1.029-0.582
	c3.659-2.642,5.887-7.007,6.842-11.184c-2.373,0.757-4.701,1.368-6.875,2.188C210.598,125.748,208.334,126.89,206.336,128.693"/>
<path fill="#020202" d="M46.863,144.267c0.916-0.018,1.783-0.025,2.638,0.016c-3.211-4.571-2.29-10.164-4.058-15.119l0.017-0.22
	c5.329,2.009,8.124,6.699,10.731,11.656c1.861,3.593,3.683,7.274,6.339,9.994c-1.109,0.08-2.153,0.229-3.234,0.389
	c-1.122,0.162-2.274,0.386-3.435,0.691c-2.307,0.135-4.581,0.238-6.732,0.167c-4.035-0.171-7.795-0.854-11.037-2.605
	c-1.501-0.798-2.902-1.85-4.131-3.16c0.949-0.154,1.992-0.343,3.028-0.525C40.254,144.994,43.688,144.425,46.863,144.267"/>
<path fill="#020202" d="M33.863,128.693c1.494-5.036,4.273-10.122,3.865-15.643l0.142-0.219l0.374,0.165
	c0.045,0.036,0.097,0.106,0.102,0.145c0.291,0.5,0.6,0.785,1.135,1.3c3.806,6.707,3.23,14.779,1.276,21.921
	c-0.321,1.176-0.653,2.295-1.063,3.425c-3.422-2.676-7.644-3.359-11.442-5.307c-0.341-0.207-0.676-0.369-1.028-0.582
	c-3.66-2.642-5.887-7.007-6.842-11.184c2.373,0.757,4.7,1.368,6.876,2.188C29.602,125.748,31.865,126.89,33.863,128.693"/>
<path fill="#1A1A19" d="M120.041,177.469c-3.51-1.402-11.533-5.483-20.939-10.254v14.698c11.414,7.015,20.566,11.113,20.566,11.113
	l0.399-0.001l0.399,0.001c0,0,9.152-4.1,20.567-11.113v-14.727c-9.063,4.598-16.848,8.633-20.56,10.109
	C120.323,177.356,120.178,177.415,120.041,177.469"/>
<path fill="#1A1A19" d="M66.771,156.546c8.119,9.569,19.146,17.858,29.014,24.17v-15.223c-9.689-5.162-20.402-12.018-29.014-20.576
	V156.546z"/>
<path fill="#1A1A19" d="M144.352,180.717c9.867-6.313,20.895-14.602,29.014-24.17V144.86c-8.606,8.569-19.317,15.433-29.014,20.603
	V180.717z"/>
</svg>
