<?xml version="1.0" encoding="utf-8"?>
<!-- Generator: Adobe Illustrator 16.0.0, SVG Export Plug-In . SVG Version: 6.00 Build 0)  -->
<!DOCTYPE svg PUBLIC "-//W3C//DTD SVG 1.1//EN" "http://www.w3.org/Graphics/SVG/1.1/DTD/svg11.dtd">
<svg version="1.1" id="Layer_1" xmlns="http://www.w3.org/2000/svg" xmlns:xlink="http://www.w3.org/1999/xlink" x="0px" y="0px"
	 width="240px" height="230px" viewBox="0 0 240 230" enable-background="new 0 0 240 230" xml:space="preserve">
<path fill="#F26D7C" d="M188.486,107.942c-10.15-32.988-1.838-41.102-0.035-42.34h-67.367H52.603
	c1.804,1.238,10.366,9.352,0.216,42.34c-14.918,48.48,55.285,74.916,67.834,79.934c0.137-0.055,0.282-0.112,0.432-0.172
	C134.723,182.278,203.242,155.896,188.486,107.942"/>
<g opacity="0.5">
	<g>
		<g>
			<defs>
				<rect id="SVGID_1_" x="119.971" y="64.02" width="69.468" height="122.101"/>
			</defs>
			<clipPath id="SVGID_2_">
				<use xlink:href="#SVGID_1_"  overflow="visible"/>
			</clipPath>
			<path clip-path="url(#SVGID_2_)" fill="#DF2F55" d="M187.373,106.358c-10.15-32.988-1.838-41.102-0.035-42.34h-67.367v122.103
				C133.607,180.694,202.129,154.313,187.373,106.358"/>
		</g>
	</g>
</g>
<path fill="#F26D7C" d="M143.361,149.504H97.1c-4.695,0-8.502-3.807-8.502-8.503v-38.097c0-4.696,3.807-8.503,8.502-8.503h46.261
	c4.695,0,8.503,3.807,8.503,8.503v38.097C151.863,145.697,148.057,149.504,143.361,149.504"/>
<path fill="#191818" d="M143.361,151.511H97.1c-5.795,0-10.51-4.715-10.51-10.51v-38.097c0-5.795,4.715-10.511,10.51-10.511h46.261
	c5.796,0,10.511,4.716,10.511,10.511v38.097C153.871,146.796,149.156,151.511,143.361,151.511 M97.1,96.408
	c-3.582,0-6.496,2.914-6.496,6.496v38.097c0,3.582,2.914,6.496,6.496,6.496h46.261c3.582,0,6.496-2.914,6.496-6.496v-38.097
	c0-3.582-2.914-6.496-6.496-6.496H97.1z"/>
<path fill="#F26D7C" d="M151.863,95.378c0-4.696-3.807-8.503-8.502-8.503H97.1c-4.696,0-8.503,3.807-8.503,8.503v7.125h63.266
	V95.378L151.863,95.378z"/>
<path fill="#FFFFFF" d="M88.598,103.005v30.472c0,4.695,3.807,8.502,8.503,8.502h46.26c4.695,0,8.503-3.807,8.503-8.502v-30.472
	H88.598z"/>
<path fill="#191818" d="M143.361,143.985H97.1c-5.795,0-10.51-4.716-10.51-10.511V95.378c0-5.795,4.715-10.51,10.51-10.51h46.261
	c5.796,0,10.511,4.715,10.511,10.51v38.097C153.871,139.271,149.156,143.985,143.361,143.985 M97.1,88.883
	c-3.582,0-6.496,2.914-6.496,6.496v38.097c0,3.582,2.914,6.496,6.496,6.496h46.261c3.582,0,6.496-2.914,6.496-6.496V95.379
	c0-3.582-2.914-6.496-6.496-6.496H97.1L97.1,88.883z"/>
<path fill="#FFFFFF" d="M136.473,74.503c-2.75,0-4.979,2.229-4.979,4.979V89.91c0,2.749,2.229,4.977,4.979,4.977
	c2.748,0,4.977-2.228,4.977-4.977V79.48C141.448,76.731,139.221,74.503,136.473,74.503"/>
<path fill="#191818" d="M136.471,96.642c-3.712,0-6.731-3.02-6.731-6.732V79.48c0-3.714,3.021-6.733,6.731-6.733
	c3.713,0,6.732,3.02,6.732,6.733v10.429C143.203,93.622,140.184,96.642,136.471,96.642 M136.471,76.259
	c-1.775,0-3.221,1.445-3.221,3.223V89.91c0,1.775,1.445,3.221,3.221,3.221c1.776,0,3.221-1.445,3.221-3.221V79.48
	C139.691,77.704,138.246,76.259,136.471,76.259"/>
<path fill="#FFFFFF" d="M104.106,74.503c-2.748,0-4.976,2.229-4.976,4.979V89.91c0,2.749,2.228,4.977,4.976,4.977
	c2.749,0,4.977-2.228,4.977-4.977V79.48C109.083,76.731,106.855,74.503,104.106,74.503"/>
<path fill="#191818" d="M104.105,96.642c-3.712,0-6.73-3.02-6.73-6.732V79.48c0-3.714,3.019-6.733,6.73-6.733
	c3.713,0,6.732,3.02,6.732,6.733v10.429C110.838,93.622,107.818,96.642,104.105,96.642 M104.105,76.259
	c-1.775,0-3.22,1.445-3.22,3.223V89.91c0,1.775,1.444,3.221,3.22,3.221s3.221-1.445,3.221-3.221V79.48
	C107.326,77.704,105.881,76.259,104.105,76.259"/>
<rect x="95.5" y="107.041" fill="#F26D7C" width="7.525" height="7.525"/>
<rect x="105.785" y="107.041" fill="#F26D7C" width="7.525" height="7.525"/>
<rect x="116.07" y="107.041" fill="#F26D7C" width="7.526" height="7.525"/>
<rect x="126.354" y="107.041" fill="#F26D7C" width="7.525" height="7.525"/>
<rect x="136.639" y="107.041" fill="#F26D7C" width="7.525" height="7.525"/>
<rect x="95.5" y="117.325" fill="#F26D7C" width="7.525" height="7.523"/>
<rect x="105.785" y="117.325" fill="#F26D7C" width="7.525" height="7.523"/>
<rect x="116.07" y="117.325" fill="#F26D7C" width="7.526" height="7.523"/>
<rect x="126.354" y="117.325" fill="#F26D7C" width="7.525" height="7.523"/>
<rect x="136.639" y="117.325" fill="#F26D7C" width="7.525" height="7.523"/>
<rect x="95.5" y="127.61" fill="#F26D7C" width="7.525" height="7.523"/>
<rect x="105.785" y="127.61" fill="#F26D7C" width="7.525" height="7.523"/>
<rect x="116.07" y="127.61" fill="#F26D7C" width="7.526" height="7.523"/>
<rect x="126.354" y="127.61" fill="#F26D7C" width="7.525" height="7.523"/>
<rect x="136.639" y="127.61" fill="#F26D7C" width="7.525" height="7.523"/>
<g opacity="0.4">
	<g>
		<g>
			<defs>
				<rect id="SVGID_3_" x="50.75" y="19.82" width="139.811" height="168.06"/>
			</defs>
			<clipPath id="SVGID_4_">
				<use xlink:href="#SVGID_3_"  overflow="visible"/>
			</clipPath>
			<path clip-path="url(#SVGID_4_)" fill="#FFFFFF" d="M120.652,33.885c8.377,4.037,25.288,10.076,54.196,12.174v14.625
				c-1.49,2.458-2.888,5.657-3.813,9.77c-2.387,10.613-0.951,24.591,4.265,41.547c2.329,7.568,1.856,14.6-1.444,21.499
				c-3.051,6.373-8.518,12.725-16.25,18.875c-12.737,10.132-28.211,17.049-36.953,20.637c-8.742-3.588-24.216-10.505-36.951-20.637
				c-7.733-6.151-13.201-12.502-16.252-18.875c-3.301-6.898-3.773-13.931-1.445-21.499c5.231-17.001,6.613-31.021,4.109-41.675
				c-0.963-4.099-2.39-7.283-3.908-9.729V46.054C88.344,44.416,107.781,40.09,120.652,33.885 M120.652,19.824
				c-1.727,0-3.453,0.347-4.795,1.037c-9.941,5.12-29.271,10.588-57.984,11.864c-3.016,0.135-5.465,2.57-5.465,5.59v27.16
				c0,0,11.264,7.193,0.41,42.467c-14.918,48.481,55.285,74.915,67.834,79.934c12.549-5.019,82.752-31.451,67.834-79.934
				c-10.854-35.272,0.158-42.467,0.158-42.467v-27.16c0-3.02-2.447-5.455-5.465-5.59c-28.713-1.275-47.791-6.744-57.732-11.864
				C124.105,20.171,122.379,19.824,120.652,19.824"/>
		</g>
	</g>
</g>
<path fill="#191818" d="M120.652,28.19c0.526,0,0.895,0.091,1.006,0.13c13.142,6.754,34.396,11.327,58.621,12.638v21.353
	c-1.469,2.076-2.99,5.088-3.945,9.333c-2.178,9.68-0.777,22.719,4.156,38.759c5.107,16.6-1.272,31.719-19.506,46.221
	c-14.387,11.444-31.92,18.869-40.333,22.248c-8.412-3.379-25.945-10.804-40.332-22.248c-18.232-14.502-24.613-29.621-19.506-46.221
	c4.943-16.066,6.294-29.134,4.014-38.836c-0.998-4.241-2.556-7.243-4.054-9.313V40.958c24.394-1.318,45.743-5.89,58.872-12.638
	C119.759,28.281,120.125,28.19,120.652,28.19 M120.652,19.824c-1.727,0-3.453,0.346-4.795,1.037
	c-9.941,5.12-29.271,10.588-57.984,11.864c-3.016,0.135-5.465,2.57-5.465,5.59v27.16c0,0,11.264,7.193,0.41,42.467
	c-14.918,48.481,55.285,74.915,67.834,79.934c12.549-5.019,82.752-31.451,67.834-79.934c-10.854-35.272,0.158-42.467,0.158-42.467
	v-27.16c0-3.02-2.447-5.455-5.465-5.59c-28.713-1.275-47.791-6.744-57.732-11.864C124.105,20.17,122.379,19.824,120.652,19.824"/>
<path fill="#191818" d="M188.646,38.315c0-3.021-2.449-5.456-5.467-5.591c-28.713-1.274-47.791-6.743-57.732-11.864
	c-2.686-1.382-6.905-1.382-9.59,0c-9.941,5.121-29.271,10.589-57.984,11.864c-3.016,0.135-5.465,2.57-5.465,5.591v27.159
	c0,0,0.069,0.042,0.194,0.128h135.849c0.125-0.086,0.195-0.128,0.195-0.128V38.315z"/>
<path fill="#FFFFFF" d="M105.205,56.771V53.52c7.346-7.136,8.881-8.729,8.881-11.019c0-1.536-1.174-2.529-2.679-2.529
	c-1.776,0-3.19,0.813-4.274,2.259l-2.408-2.529c1.625-2.167,4.003-3.313,6.742-3.313c3.885,0,6.715,2.35,6.715,6.082
	c0,3.04-2.047,5.63-7.016,10.747h7.105v3.553h-13.066V56.771z"/>
<polygon fill="#FFFFFF" points="131.426,56.771 126.789,48.914 125.374,51.141 125.374,56.771 121.34,56.771 121.34,36.691 
	125.374,36.691 125.374,45.813 131.033,36.691 135.73,36.691 129.318,46.144 136.182,56.771 "/>
<polygon fill="#FFFFFF" points="91.598,44.988 84.141,43.857 80.818,36.76 77.499,43.857 70.04,44.988 75.43,50.522 74.082,58.317 
	80.818,54.637 87.556,58.317 86.209,50.522 "/>
<polygon fill="#FFFFFF" points="171.266,44.988 163.807,43.857 160.486,36.76 157.165,43.857 149.707,44.988 155.096,50.522 
	153.749,58.317 160.486,54.637 167.223,58.317 165.875,50.522 "/>
<polygon fill="#FFFFFF" points="172.967,196.988 120.674,211.172 68.381,195.483 68.381,167.963 120.674,183.65 172.967,167.963 "/>
<path fill="#020202" d="M120.673,212.096l-54.551-13.335v-33.674l54.551,13.334l54.552-13.334v33.674L120.673,212.096z
	 M70.639,195.216l50.034,12.231l50.035-12.231v-24.377l-50.035,12.23l-50.034-12.23V195.216z"/>
<polygon fill="#020202" points="149.453,174.15 175.291,165.172 162.217,155.391 141.203,173.402 "/>
<polygon fill="#020202" points="91.852,174.15 66.014,165.172 79.088,155.391 100.102,173.402 "/>
<polygon fill="#020202" points="92.523,184.576 89.934,179.039 87.344,184.576 81.525,185.459 85.729,189.775 84.678,195.856 
	89.934,192.984 95.188,195.856 94.137,189.775 98.342,185.459 "/>
<polygon fill="#020202" points="123.21,190.653 120.352,184.543 117.492,190.653 111.072,191.627 115.711,196.392 114.552,203.103 
	120.352,199.934 126.15,203.103 124.99,196.392 129.631,191.627 "/>
<polygon fill="#020202" points="153.548,184.576 150.957,179.039 148.367,184.576 142.549,185.459 146.754,189.775 145.703,195.856 
	150.957,192.984 156.213,195.856 155.162,189.775 159.365,185.459 "/>
<path fill="#020202" d="M213.523,127.24c-1.817-3.577-5.515-6.853-6.379-10.245l-0.533-0.223c-1.336,3.335-1.191,7.326-0.168,10.95
	c1.108,4.704,3.424,8.369,4.508,12.994c0.193,0.892,0.354,1.775,0.458,2.742c6.957-5.049,13.37-10.809,15.183-19.897l-12.193,6.131
	C214.234,128.844,213.904,128.005,213.523,127.24"/>
<path fill="#020202" d="M210.389,85.457c0.576,1.658,0.758,3.546,1.547,5.248c0.51,0.668,0.961,1.356,1.432,2.056
	c1.313,1.815,2.677,3.432,4.421,3.886c0.604-2.797,1.063-5.733,0.533-8.912c-0.605-2.013-1.507-3.808-2.689-5.43
	c-1.849-2.559-4.358-4.637-7.396-6.198c-0.101-0.058-0.168-0.071-0.223-0.119l-0.404,0.093c0.156,0.24,0.303,0.516,0.459,0.796
	C209.443,79.501,209.855,82.278,210.389,85.457"/>
<path fill="#020202" d="M215.021,102.624c-2.653-3.01-7.049-5.257-8.736-8.326l-0.57-0.084c-0.461,3.564,0.674,7.394,2.572,10.646
	c2.248,4.277,5.406,7.249,7.611,11.456c0.409,0.813,0.784,1.631,1.128,2.54c5.476-6.626,10.245-13.806,9.729-23.059l-10.274,8.98
	C216.111,103.999,215.583,103.269,215.021,102.624"/>
<path fill="#020202" d="M27.782,127.24c1.817-3.577,5.512-6.853,6.379-10.245l0.532-0.223c1.336,3.335,1.192,7.326,0.168,10.95
	c-1.108,4.704-3.424,8.369-4.508,12.994c-0.193,0.892-0.354,1.775-0.459,2.742c-6.955-5.049-13.369-10.809-15.182-19.897
	l12.194,6.131C27.07,128.844,27.398,128.005,27.782,127.24"/>
<path fill="#020202" d="M30.918,85.457c-0.579,1.658-0.758,3.546-1.549,5.248c-0.51,0.668-0.961,1.356-1.43,2.056
	c-1.314,1.815-2.677,3.432-4.421,3.886c-0.606-2.797-1.065-5.733-0.534-8.912c0.605-2.013,1.506-3.808,2.69-5.43
	c1.849-2.559,4.358-4.637,7.396-6.198c0.1-0.058,0.166-0.071,0.224-0.119l0.403,0.093c-0.158,0.24-0.304,0.516-0.461,0.796
	C31.861,79.501,31.449,82.278,30.918,85.457"/>
<path fill="#020202" d="M26.284,102.624c2.651-3.01,7.049-5.257,8.735-8.326l0.571-0.084c0.461,3.564-0.675,7.394-2.573,10.646
	c-2.248,4.277-5.406,7.249-7.611,11.456c-0.409,0.813-0.785,1.631-1.127,2.54c-5.476-6.626-10.246-13.806-9.731-23.059l10.276,8.98
	C25.193,103.999,25.723,103.269,26.284,102.624"/>
<path fill="#020202" d="M193.921,168.397c-0.916-0.018-1.782-0.026-2.638,0.015c3.211-4.571,2.289-10.163,4.058-15.119l-0.017-0.219
	c-5.33,2.008-8.125,6.701-10.731,11.656c-1.862,3.592-3.683,7.273-6.339,9.993c1.109,0.08,2.152,0.229,3.234,0.39
	c1.121,0.164,2.273,0.386,3.435,0.69c2.306,0.136,4.581,0.238,6.731,0.167c4.035-0.171,7.795-0.854,11.037-2.605
	c1.502-0.797,2.901-1.85,4.131-3.16c-0.949-0.154-1.992-0.342-3.027-0.524C200.529,169.126,197.096,168.556,193.921,168.397"/>
<path fill="#020202" d="M206.92,152.824c-1.494-5.036-4.273-10.122-3.863-15.642l-0.144-0.219l-0.374,0.164
	c-0.044,0.036-0.098,0.108-0.102,0.146c-0.291,0.5-0.601,0.785-1.136,1.3c-3.806,6.707-3.229,14.779-1.274,21.92
	c0.32,1.177,0.652,2.295,1.063,3.425c3.422-2.676,7.645-3.358,11.442-5.306c0.342-0.207,0.677-0.37,1.03-0.582
	c3.657-2.642,5.885-7.007,6.841-11.184c-2.373,0.757-4.701,1.367-6.878,2.187C211.182,149.879,208.919,151.021,206.92,152.824"/>
<path fill="#020202" d="M47.447,168.397c0.916-0.018,1.783-0.026,2.639,0.015c-3.213-4.571-2.291-10.163-4.059-15.119l0.018-0.219
	c5.328,2.008,8.123,6.701,10.73,11.656c1.861,3.592,3.684,7.273,6.34,9.993c-1.109,0.08-2.154,0.229-3.234,0.39
	c-1.123,0.164-2.275,0.386-3.436,0.69c-2.306,0.136-4.58,0.238-6.732,0.167c-4.034-0.171-7.795-0.854-11.037-2.605
	c-1.5-0.797-2.901-1.85-4.131-3.16c0.949-0.154,1.992-0.342,3.029-0.524C40.838,169.126,44.272,168.556,47.447,168.397"/>
<path fill="#020202" d="M34.447,152.824c1.494-5.036,4.274-10.122,3.865-15.642l0.143-0.219l0.373,0.164
	c0.045,0.036,0.098,0.108,0.102,0.146c0.292,0.5,0.601,0.785,1.136,1.3c3.806,6.707,3.229,14.779,1.276,21.92
	c-0.321,1.177-0.654,2.295-1.063,3.425c-3.423-2.676-7.644-3.358-11.442-5.306c-0.342-0.207-0.676-0.37-1.029-0.582
	c-3.66-2.642-5.887-7.007-6.842-11.184c2.373,0.757,4.701,1.367,6.877,2.187C30.187,149.879,32.449,151.021,34.447,152.824"/>
</svg>
