<?xml version="1.0" encoding="utf-8"?>
<!-- Generator: Adobe Illustrator 16.0.0, SVG Export Plug-In . SVG Version: 6.00 Build 0)  -->
<!DOCTYPE svg PUBLIC "-//W3C//DTD SVG 1.1//EN" "http://www.w3.org/Graphics/SVG/1.1/DTD/svg11.dtd">
<svg version="1.1" id="Layer_1" xmlns="http://www.w3.org/2000/svg" xmlns:xlink="http://www.w3.org/1999/xlink" x="0px" y="0px"
	 width="240px" height="195px" viewBox="0 0 240 195" enable-background="new 0 0 240 195" xml:space="preserve">
<path fill="none" d="M78.63-2257.76"/>
<path fill="none" d="M78.63,987.837"/>
<path fill="none" d="M51.764,1616.837"/>
<path fill="none" d="M51.764-1628.76"/>
<line fill="#929497" x1="1530.52" y1="-66.557" x2="1530.52" y2="-65.807"/>
<line fill="#929497" x1="-611.484" y1="-65.807" x2="-611.484" y2="-66.557"/>
<path fill="#F26D7C" d="M187.691,103.942c-10.15-32.988-1.838-41.102-0.037-42.34h-67.365H51.808
	c1.803,1.238,10.366,9.352,0.216,42.34c-14.918,48.48,55.284,74.916,67.834,79.934c0.136-0.055,0.282-0.112,0.432-0.172
	C133.926,178.278,202.445,151.896,187.691,103.942"/>
<g opacity="0.5">
	<g>
		<g>
			<defs>
				<rect id="SVGID_1_" x="120.29" y="61.6" width="69.47" height="122.101"/>
			</defs>
			<clipPath id="SVGID_2_">
				<use xlink:href="#SVGID_1_"  overflow="visible"/>
			</clipPath>
			<path clip-path="url(#SVGID_2_)" fill="#DF2F55" d="M187.691,103.942c-10.15-32.988-1.838-41.102-0.037-42.34h-67.365v122.102
				C133.926,178.278,202.445,151.896,187.691,103.942"/>
		</g>
	</g>
</g>
<g opacity="0.4">
	<g>
		<g>
			<defs>
				<rect id="SVGID_3_" x="49.95" y="15.82" width="139.81" height="168.06"/>
			</defs>
			<clipPath id="SVGID_4_">
				<use xlink:href="#SVGID_3_"  overflow="visible"/>
			</clipPath>
			<path clip-path="url(#SVGID_4_)" fill="#FFFFFF" d="M119.857,29.885c8.377,4.037,25.288,10.076,54.196,12.174v14.625
				c-1.49,2.458-2.888,5.657-3.813,9.77c-2.387,10.613-0.952,24.591,4.265,41.547c2.328,7.567,1.856,14.6-1.444,21.498
				c-3.051,6.373-8.519,12.725-16.252,18.875c-12.735,10.132-28.211,17.049-36.951,20.637c-8.742-3.588-24.216-10.505-36.952-20.637
				c-7.733-6.15-13.201-12.502-16.251-18.875C63.354,122.6,62.881,115.567,65.21,108c5.231-17.001,6.614-31.021,4.109-41.676
				c-0.963-4.099-2.391-7.283-3.909-9.729V42.053C87.548,40.416,106.985,36.09,119.857,29.885 M119.857,15.824
				c-1.727,0-3.453,0.347-4.795,1.037c-9.942,5.12-29.271,10.588-57.984,11.863c-3.016,0.135-5.465,2.57-5.465,5.59v27.16
				c0,0,11.263,7.193,0.41,42.467c-14.918,48.481,55.285,74.915,67.834,79.934c12.549-5.019,82.75-31.451,67.834-79.934
				c-10.854-35.272,0.158-42.467,0.158-42.467v-27.16c0-3.02-2.449-5.455-5.466-5.59c-28.713-1.275-47.791-6.743-57.731-11.863
				C123.311,16.171,121.583,15.824,119.857,15.824"/>
		</g>
	</g>
</g>
<path fill="#191818" d="M187.852,34.315c0-3.021-2.449-5.456-5.467-5.591c-28.713-1.274-47.791-6.742-57.732-11.863
	c-2.685-1.383-6.905-1.383-9.589,0c-9.942,5.121-29.272,10.589-57.984,11.863c-3.016,0.135-5.465,2.57-5.465,5.591v27.159
	c0,0,0.069,0.042,0.194,0.128h135.848c0.125-0.086,0.195-0.128,0.195-0.128V34.315z"/>
<path fill="#191818" d="M119.857,24.19c0.526,0,0.894,0.091,1.006,0.13c13.141,6.754,34.396,11.326,58.622,12.638v21.353
	c-1.469,2.076-2.99,5.088-3.946,9.333c-2.177,9.68-0.778,22.719,4.157,38.759c5.106,16.6-1.273,31.719-19.506,46.221
	c-14.388,11.444-31.92,18.869-40.333,22.248c-8.412-3.379-25.946-10.804-40.333-22.248c-18.232-14.502-24.613-29.621-19.505-46.221
	c4.943-16.066,6.294-29.134,4.013-38.836c-0.997-4.241-2.555-7.243-4.053-9.313V36.958c24.393-1.318,45.743-5.89,58.872-12.638
	C118.963,24.281,119.33,24.19,119.857,24.19 M119.857,15.824c-1.727,0-3.453,0.346-4.795,1.037
	c-9.942,5.12-29.271,10.588-57.984,11.863c-3.016,0.135-5.465,2.57-5.465,5.59v27.16c0,0,11.263,7.193,0.41,42.467
	c-14.918,48.481,55.285,74.915,67.834,79.934c12.549-5.019,82.75-31.451,67.834-79.934c-10.854-35.272,0.158-42.467,0.158-42.467
	v-27.16c0-3.02-2.449-5.455-5.466-5.59c-28.713-1.275-47.791-6.743-57.731-11.863C123.311,16.17,121.583,15.824,119.857,15.824"/>
<path fill="#FFFFFF" d="M104.38,49.971l2.438-2.589c1.054,1.385,2.469,2.168,4.186,2.168c1.926,0,3.04-1.475,3.04-3.162
	c0-1.985-1.054-3.161-2.86-3.161c-1.355,0-2.378,0.482-3.312,1.656l-2.92-0.783V32.691h12.042v3.551h-8.008v5.148
	c0.783-0.963,2.138-1.655,3.673-1.655c3.041,0,5.479,2.379,5.479,6.532c0,4.034-2.739,6.864-7.014,6.864
	C108.023,53.132,105.885,51.988,104.38,49.971"/>
<path fill="#FFFFFF" d="M120.063,42.745c0-5.178,2.137-10.355,7.104-10.355c4.998,0,7.104,5.179,7.104,10.355
	c0,5.147-2.076,10.388-7.104,10.388C122.2,53.133,120.063,47.894,120.063,42.745 M130.18,42.745c0-3.883-0.662-6.772-3.013-6.772
	c-2.317,0-2.979,2.891-2.979,6.772c0,3.854,0.662,6.805,2.979,6.805C129.518,49.55,130.18,46.6,130.18,42.745"/>
<path fill="#FFFFFF" d="M137.837,120.436l-11.009-11.009l11.009-11.009c5.399-5.4,7.742-12.699,7.029-19.747H96.262
	c-0.714,7.048,1.628,14.347,7.028,19.747l11.009,11.009l-11.009,11.009c-3.357,3.357-5.532,7.449-6.526,11.759
	c-0.604,2.621-0.772,5.322-0.502,7.988h48.604c0.519-5.126-0.581-10.383-3.296-14.947
	C140.555,123.523,139.311,121.909,137.837,120.436"/>
<path fill="#F26D7C" d="M93.482,143.701h54.165c0.578-5.711-0.647-11.571-3.672-16.657l-6.306-7.107
	c-8.05,0-8.584,7.598-24.15,8.051c-9.589,0.278-16.099,5.968-16.099,5.968l-3.378,0.845C93.369,137.72,93.181,140.73,93.482,143.701
	"/>
<path fill="#F26D7C" d="M103.214,94.107c0,0,6.282-4.429,18.356-2.415c12.074,2.012,16.1,0,18.113,0l-6.197,6.768l-12.922,12.212
	L103.214,94.107z"/>
<path fill="#FFFFFF" d="M141.977,81.681c-0.133,5.473-2.344,10.685-6.268,14.609L124.7,107.299l-2.13,2.128l2.13,2.129l11.009,11.01
	c1.264,1.264,2.366,2.681,3.275,4.209c1.861,3.131,2.891,6.744,2.986,10.398H99.153c0.036-1.446,0.218-2.885,0.545-4.302
	c0.899-3.899,2.877-7.463,5.721-10.307l11.009-11.01l2.128-2.129l-2.128-2.128L105.42,96.29c-3.925-3.925-6.136-9.137-6.267-14.609
	H141.977 M144.866,78.671H96.262c-0.714,7.048,1.628,14.347,7.028,19.747l11.009,11.009l-11.009,11.009
	c-3.357,3.358-5.532,7.449-6.526,11.759c-0.604,2.622-0.771,5.322-0.502,7.988h48.604c0.519-5.125-0.58-10.383-3.294-14.947
	c-1.02-1.711-2.264-3.326-3.735-4.8l-11.009-11.009l11.009-11.009C143.236,93.018,145.579,85.719,144.866,78.671"/>
<path fill="#191818" d="M144.866,78.671c0.713,7.048-1.63,14.348-7.029,19.747l-11.009,11.01l11.009,11.01
	c1.474,1.472,2.716,3.088,3.733,4.799c2.715,4.563,3.813,9.82,3.296,14.947H96.262c-0.27-2.666-0.101-5.367,0.503-7.988
	c0.994-4.311,3.168-8.401,6.526-11.758l11.009-11.01l-11.009-11.01c-5.4-5.399-7.742-12.699-7.029-19.747H144.866 M148.121,75.069
	h-3.255H96.262h-3.255l-0.328,3.238c-0.852,8.421,2.087,16.679,8.065,22.657l8.462,8.462l-8.462,8.461
	c-3.721,3.723-6.31,8.39-7.488,13.496c-0.693,3.008-0.888,6.09-0.577,9.161l0.328,3.238h3.255h48.604h3.255l0.328-3.238
	c0.602-5.946-0.742-12.038-3.782-17.15c-1.19-2.002-2.632-3.854-4.284-5.507l-8.462-8.461l8.464-8.464
	c5.977-5.978,8.916-14.233,8.064-22.656L148.121,75.069z"/>
<path fill="#F26D7C" d="M122.24,113.88c0,0.926-0.75,1.677-1.676,1.677c-0.926,0-1.677-0.751-1.677-1.677s0.751-1.676,1.677-1.676
	C121.49,112.204,122.24,112.954,122.24,113.88"/>
<path fill="#F26D7C" d="M122.24,119.356c0,0.926-0.75,1.676-1.676,1.676c-0.926,0-1.677-0.75-1.677-1.676
	c0-0.927,0.751-1.678,1.677-1.678C121.49,117.679,122.24,118.431,122.24,119.356"/>
<path fill="#191818" d="M151.096,78.722H90.033c-1.385,0-2.508-1.123-2.508-2.508c0-1.386,1.123-2.509,2.508-2.509h61.063
	c1.385,0,2.508,1.123,2.508,2.509C153.604,77.599,152.479,78.722,151.096,78.722"/>
<path fill="#191818" d="M151.096,144.95H90.033c-1.385,0-2.508-1.123-2.508-2.508c0-1.387,1.123-2.51,2.508-2.51h61.063
	c1.385,0,2.508,1.123,2.508,2.51C153.604,143.827,152.479,144.95,151.096,144.95"/>
<polygon fill="#FFFFFF" points="88.963,42.578 77.223,45.287 66.387,42.578 66.387,36.256 77.223,38.966 88.963,36.256 "/>
<polygon fill="#FFFFFF" points="88.963,51.608 77.223,54.318 66.387,51.608 66.387,45.287 77.223,47.997 88.963,45.287 "/>
<polygon fill="#F26D7C" points="173.327,42.578 161.587,45.287 150.751,42.578 150.751,36.256 161.587,38.966 173.327,36.256 "/>
<polygon fill="#F26D7C" points="173.327,51.608 161.587,54.318 150.751,51.608 150.751,45.287 161.587,47.997 173.327,45.287 "/>
</svg>
