<?xml version="1.0" encoding="utf-8"?>
<!-- Generator: Adobe Illustrator 16.0.0, SVG Export Plug-In . SVG Version: 6.00 Build 0)  -->
<!DOCTYPE svg PUBLIC "-//W3C//DTD SVG 1.1//EN" "http://www.w3.org/Graphics/SVG/1.1/DTD/svg11.dtd">
<svg version="1.1" id="Layer_1" xmlns="http://www.w3.org/2000/svg" xmlns:xlink="http://www.w3.org/1999/xlink" x="0px" y="0px"
	 width="612px" height="792px" viewBox="0 0 612 792" enable-background="new 0 0 612 792" xml:space="preserve">
<path fill="#F26C7C" d="M370.695,384.942c-10.15-32.988-1.839-41.101-0.037-42.339h-67.365h-68.482
	c1.803,1.238,10.365,9.351,0.216,42.339c-14.918,48.481,55.285,74.916,67.834,79.934c0.136-0.055,0.282-0.112,0.433-0.172
	C316.93,459.278,385.449,432.896,370.695,384.942"/>
<g opacity="0.5">
	<g>
		<defs>
			<rect id="SVGID_1_" x="261.63" y="342.6" width="111.13" height="122.1"/>
		</defs>
		<clipPath id="SVGID_2_">
			<use xlink:href="#SVGID_1_"  overflow="visible"/>
		</clipPath>
		<path clip-path="url(#SVGID_2_)" fill="#DF2E54" d="M370.694,384.942c-10.149-32.988-1.838-41.102-0.035-42.339h-67.366v8.929
			c-0.086-0.001-0.173-0.005-0.26-0.005c-5.468,0-10.816,1.073-15.9,3.188c-5.156,2.147-9.742,5.243-13.629,9.202
			c-3.75,3.821-6.69,8.278-8.738,13.246c-2.047,4.969-3.1,10.203-3.131,15.557c-0.031,5.546,1.041,10.975,3.188,16.132
			c3.204,7.696,8.574,14.17,15.528,18.72c6.777,4.435,14.631,6.778,22.709,6.778c0.078,0,0.154-0.002,0.232-0.002v30.354
			C316.93,459.278,385.449,432.896,370.694,384.942 M303.061,426.325c-13.076,0-25.487-7.733-30.826-20.558
			c-7.085-17.018,0.967-36.557,17.984-43.641c4.193-1.746,8.539-2.573,12.814-2.573c0.087,0,0.174,0.004,0.26,0.005v66.763
			C303.215,426.323,303.139,426.325,303.061,426.325"/>
	</g>
</g>
<path fill="#FFFFFF" d="M316.143,423.268c-17.019,7.086-36.558-0.967-43.643-17.984c-7.084-17.018,0.968-36.556,17.984-43.642
	c17.019-7.085,36.557,0.967,43.642,17.985C341.211,396.644,333.16,416.183,316.143,423.268"/>
<g opacity="0.4">
	<g>
		<defs>
			<rect id="SVGID_3_" x="232.96" y="296.82" width="139.8" height="168.06"/>
		</defs>
		<clipPath id="SVGID_4_">
			<use xlink:href="#SVGID_3_"  overflow="visible"/>
		</clipPath>
		<path clip-path="url(#SVGID_4_)" fill="#FFFFFF" d="M302.86,310.886c8.377,4.036,25.288,10.075,54.196,12.173v14.625
			c-1.492,2.458-2.888,5.657-3.813,9.769c-2.388,10.613-0.952,24.591,4.265,41.547c2.329,7.568,1.856,14.6-1.445,21.499
			c-3.049,6.373-8.518,12.725-16.25,18.875c-12.737,10.132-28.211,17.049-36.952,20.637c-8.741-3.588-24.216-10.505-36.952-20.637
			c-7.732-6.151-13.2-12.502-16.251-18.875c-3.3-6.898-3.772-13.931-1.444-21.499c5.23-17.001,6.613-31.022,4.108-41.675
			c-0.962-4.098-2.39-7.283-3.908-9.729v-14.542C270.551,321.416,289.988,317.09,302.86,310.886 M302.86,296.824
			c-1.726,0-3.453,0.347-4.794,1.037c-9.943,5.12-29.272,10.588-57.984,11.864c-3.018,0.134-5.466,2.57-5.466,5.589v27.161
			c0,0,11.264,7.193,0.409,42.466c-14.916,48.482,55.285,74.915,67.835,79.934c12.549-5.019,82.751-31.451,67.834-79.934
			c-10.853-35.272,0.159-42.466,0.159-42.466v-27.161c0-3.019-2.449-5.455-5.465-5.589c-28.713-1.276-47.791-6.744-57.733-11.864
			C306.313,297.171,304.587,296.824,302.86,296.824"/>
	</g>
</g>
<polygon fill="#F26C7C" points="303.134,359.887 302.506,389.361 307.398,393.501 335.242,393.877 335.994,386.602 328.47,371.802 
	315.676,362.145 "/>
<path fill="#191818" d="M302.807,368.255c0,0-0.002,0.02-0.005,0.053h0.011C302.809,368.275,302.807,368.255,302.807,368.255"/>
<path fill="#191818" d="M302.809,368.282c0.002,0.014,0.537,0.026,1.196,0.026c0.657,0,1.192-0.561,1.192-1.254v-5.77
	c0-0.692-0.562-1.254-1.254-1.254h-1.637c-0.693,0-1.254,0.562-1.254,1.254v5.77c0,0.693,0.391,1.254,0.874,1.254
	s0.876-0.012,0.877-0.026C302.805,368.267,302.808,368.267,302.809,368.282"/>
<path fill="#191818" d="M335.986,393.709v-1.636c0-0.693-0.563-1.255-1.254-1.255h-5.687c-0.692,0-1.254,0.562-1.254,1.255v1.636
	c0,0.693,0.562,1.254,1.254,1.254h5.687C335.424,394.963,335.986,394.402,335.986,393.709"/>
<path fill="#191818" d="M270.264,392.073v1.636c0,0.693,0.563,1.255,1.254,1.255h5.52c0.691,0,1.254-0.562,1.254-1.255v-1.636
	c0-0.693-0.563-1.254-1.254-1.254h-5.52C270.826,390.819,270.264,391.38,270.264,392.073"/>
<path fill="#191818" d="M302.307,425.752h1.637c0.692,0,1.254-0.562,1.254-1.254v-5.436c0-0.692-0.562-1.254-1.254-1.254h-1.637
	c-0.693,0-1.254,0.562-1.254,1.254v5.436C301.053,425.19,301.613,425.752,302.307,425.752"/>
<path fill="#191818" d="M286.695,364.433c-0.601,0.346-0.807,1.113-0.46,1.713l2.849,4.936c0.347,0.6,1.115,0.808,1.718,0.466
	c0.603-0.343,0.809-1.107,0.463-1.707l-2.856-4.948C288.062,364.292,287.295,364.087,286.695,364.433"/>
<path fill="#191818" d="M274.666,376.46c-0.346,0.6-0.141,1.367,0.459,1.713l4.868,2.811c0.599,0.346,1.363,0.138,1.705-0.464
	c0.343-0.602,0.134-1.371-0.467-1.718l-4.853-2.801C275.779,375.655,275.012,375.86,274.666,376.46"/>
<path fill="#191818" d="M274.666,409.321c0.346,0.601,1.113,0.806,1.713,0.46l4.721-2.726c0.599-0.346,0.804-1.112,0.455-1.711
	c-0.348-0.599-1.116-0.804-1.717-0.458l-4.713,2.722C274.525,407.955,274.32,408.722,274.666,409.321"/>
<path fill="#191818" d="M286.695,421.35c0.6,0.346,1.366,0.141,1.713-0.459l2.709-4.693c0.348-0.601,0.141-1.365-0.461-1.709
	c-0.602-0.346-1.369-0.138-1.716,0.463l-2.705,4.686C285.889,420.236,286.095,421.004,286.695,421.35"/>
<path fill="#191818" d="M319.556,421.35c0.6-0.346,0.805-1.113,0.459-1.713l-2.745-4.755c-0.346-0.601-1.115-0.808-1.717-0.466
	c-0.603,0.343-0.809,1.106-0.463,1.707l2.752,4.768C318.188,421.49,318.955,421.695,319.556,421.35"/>
<path fill="#191818" d="M331.584,409.321c0.346-0.6,0.141-1.366-0.46-1.713l-4.851-2.801c-0.6-0.346-1.363-0.139-1.705,0.464
	c-0.342,0.602-0.133,1.371,0.467,1.719l4.835,2.791C330.471,410.127,331.237,409.922,331.584,409.321"/>
<path fill="#191818" d="M331.584,376.46c-0.347-0.6-1.113-0.805-1.714-0.459l-4.989,2.881c-0.601,0.346-0.805,1.113-0.457,1.712
	c0.348,0.598,1.116,0.803,1.717,0.457l4.983-2.878C331.725,377.828,331.93,377.061,331.584,376.46"/>
<path fill="#191818" d="M319.556,364.433c-0.601-0.346-1.367-0.141-1.714,0.459l-2.896,5.017c-0.347,0.6-0.14,1.365,0.461,1.71
	h0.001c0.601,0.344,1.369,0.137,1.716-0.463l2.892-5.01C320.36,365.546,320.155,364.779,319.556,364.433"/>
<path fill="#191818" d="M303.061,428.398c-14.367,0-27.219-8.57-32.74-21.834c-3.64-8.742-3.656-18.377-0.049-27.132
	c3.607-8.754,10.408-15.58,19.15-19.219c4.354-1.813,8.933-2.732,13.611-2.732c14.366,0,27.219,8.57,32.739,21.833
	c7.513,18.044-1.056,38.837-19.101,46.351C312.317,427.479,307.738,428.398,303.061,428.398 M303.033,361.627
	c-4.129,0-8.173,0.812-12.019,2.413c-7.72,3.214-13.726,9.242-16.911,16.972c-3.186,7.731-3.171,16.24,0.043,23.96
	c4.877,11.713,16.227,19.281,28.914,19.281c4.128,0,8.172-0.812,12.018-2.413c15.936-6.634,23.504-24.997,16.868-40.932
	C327.069,369.195,315.722,361.627,303.033,361.627"/>
<rect x="293.685" y="389.5" transform="matrix(0.5437 0.8393 -0.8393 0.5437 468.9399 -66.0225)" fill="#F26C7C" width="3.01" height="17.534"/>
<path fill="#191818" d="M298.664,393.621c0.006,2.295,1.872,4.151,4.168,4.146c2.295-0.007,4.15-1.873,4.143-4.168
	c-0.006-2.296-4.023-18.447-4.023-18.447S298.657,391.326,298.664,393.621"/>
<path fill="#191818" d="M303.514,389.594c-2.295-0.029-4.18,1.808-4.208,4.103c-0.03,2.295,1.807,4.18,4.103,4.209
	c2.295,0.029,18.51-4.04,18.51-4.04S305.809,389.623,303.514,389.594"/>
<path fill="#191818" d="M302.86,305.19c0.526,0,0.894,0.091,1.006,0.13c13.142,6.754,34.396,11.326,58.621,12.638v21.353
	c-1.468,2.076-2.99,5.087-3.945,9.333c-2.178,9.679-0.778,22.718,4.156,38.758c5.108,16.6-1.272,31.719-19.505,46.221
	c-14.387,11.444-31.92,18.869-40.333,22.248c-8.412-3.379-25.946-10.804-40.333-22.248c-18.232-14.502-24.612-29.621-19.506-46.221
	c4.943-16.066,6.295-29.133,4.014-38.836c-0.997-4.241-2.555-7.243-4.053-9.313v-21.295c24.393-1.318,45.742-5.89,58.871-12.638
	C301.967,305.281,302.333,305.19,302.86,305.19 M302.86,296.824c-1.726,0-3.453,0.346-4.794,1.037
	c-9.943,5.12-29.272,10.588-57.984,11.864c-3.018,0.134-5.466,2.57-5.466,5.589v27.161c0,0,11.264,7.193,0.409,42.466
	c-14.916,48.482,55.285,74.915,67.835,79.934c12.549-5.019,82.751-31.451,67.834-79.934c-10.853-35.272,0.159-42.466,0.159-42.466
	v-27.161c0-3.019-2.449-5.455-5.465-5.589c-28.713-1.276-47.791-6.744-57.733-11.864C306.313,297.17,304.587,296.824,302.86,296.824
	"/>
<path fill="#191818" d="M370.854,315.315c0-3.02-2.449-5.456-5.465-5.59c-28.713-1.275-47.791-6.743-57.733-11.864
	c-2.685-1.382-6.905-1.382-9.59,0c-9.942,5.121-29.272,10.589-57.983,11.864c-3.017,0.134-5.466,2.57-5.466,5.59v27.16
	c0,0,0.069,0.042,0.194,0.128h135.849c0.125-0.086,0.194-0.128,0.194-0.128V315.315z"/>
<polygon fill="#FFFFFF" points="274.244,333.771 274.244,318.899 271.203,322.06 268.885,319.622 274.787,313.691 278.309,313.691 
	278.309,333.771 "/>
<path fill="#FFFFFF" d="M281.527,331.783c0-1.264,1.084-2.348,2.35-2.348c1.264,0,2.318,1.084,2.318,2.348
	c0,1.266-1.055,2.318-2.318,2.318C282.611,334.102,281.527,333.049,281.527,331.783"/>
<path fill="#FFFFFF" d="M288.994,333.771v-3.251c7.346-7.136,8.881-8.73,8.881-11.019c0-1.536-1.175-2.529-2.681-2.529
	c-1.776,0-3.19,0.813-4.274,2.258l-2.408-2.529c1.625-2.167,4.004-3.313,6.744-3.313c3.884,0,6.713,2.349,6.713,6.082
	c0,3.04-2.047,5.63-7.014,10.747h7.104v3.553H288.994z"/>
<path fill="#FFFFFF" d="M304.496,330.971l2.438-2.589c1.054,1.385,2.469,2.168,4.185,2.168c1.927,0,3.041-1.475,3.041-3.162
	c0-1.986-1.054-3.161-2.86-3.161c-1.354,0-2.377,0.482-3.312,1.656l-2.92-0.783v-11.409h12.042v3.551h-8.008v5.149
	c0.783-0.963,2.137-1.656,3.673-1.656c3.04,0,5.479,2.379,5.479,6.533c0,4.034-2.74,6.864-7.016,6.864
	C308.139,334.132,306,332.988,304.496,330.971"/>
<polygon fill="#FFFFFF" points="331.076,333.771 326.439,325.914 325.025,328.141 325.025,333.771 320.99,333.771 320.99,313.691 
	325.025,313.691 325.025,322.813 330.685,313.691 335.381,313.691 328.969,323.144 335.834,333.771 "/>
<polygon fill="#FFFFFF" points="355.175,473.988 302.881,488.172 250.588,472.483 250.588,444.963 302.881,460.65 355.175,444.963 
	"/>
<path fill="#010101" d="M302.881,489.096l-54.551-13.335v-33.674l54.551,13.334l54.551-13.334v33.674L302.881,489.096z
	 M252.846,472.216l50.035,12.231l50.035-12.231v-24.377l-50.035,12.23l-50.035-12.23V472.216z"/>
<polygon fill="#010101" points="331.662,451.15 357.498,442.172 344.424,432.391 323.412,450.402 "/>
<polygon fill="#010101" points="274.06,451.15 248.223,442.172 261.295,432.391 282.31,450.402 "/>
<polygon fill="#F26C7C" points="274.731,461.576 272.141,456.039 269.551,461.576 263.732,462.459 267.938,466.775 266.887,472.856 
	272.141,469.984 277.396,472.856 276.346,466.775 280.549,462.459 "/>
<polygon fill="#010101" points="305.418,467.653 302.559,461.543 299.701,467.653 293.279,468.627 297.919,473.392 296.759,480.103 
	302.559,476.934 308.359,480.103 307.199,473.392 311.839,468.627 "/>
<polygon fill="#F26C7C" points="335.756,461.576 333.165,456.039 330.575,461.576 324.758,462.459 328.961,466.775 327.91,472.856 
	333.165,469.984 338.42,472.856 337.369,466.775 341.573,462.459 "/>
<path fill="#010101" d="M395.73,404.24c-1.816-3.577-5.512-6.852-6.379-10.245l-0.531-0.223c-1.338,3.335-1.193,7.327-0.168,10.951
	c1.107,4.704,3.424,8.369,4.508,12.994c0.192,0.891,0.353,1.775,0.457,2.742c6.957-5.049,13.369-10.809,15.183-19.897l-12.194,6.13
	C396.443,405.844,396.113,405.005,395.73,404.24"/>
<path fill="#010101" d="M392.596,362.457c0.578,1.658,0.758,3.546,1.547,5.248c0.512,0.668,0.961,1.357,1.432,2.056
	c1.314,1.815,2.676,3.431,4.42,3.885c0.605-2.796,1.064-5.733,0.535-8.912c-0.606-2.012-1.508-3.807-2.691-5.429
	c-1.847-2.559-4.357-4.637-7.396-6.199c-0.099-0.058-0.166-0.071-0.223-0.119l-0.404,0.093c0.158,0.24,0.305,0.516,0.461,0.796
	C391.652,356.501,392.064,359.278,392.596,362.457"/>
<path fill="#010101" d="M397.229,379.624c-2.653-3.01-7.05-5.257-8.736-8.326l-0.571-0.084c-0.461,3.564,0.676,7.393,2.573,10.646
	c2.248,4.278,5.405,7.249,7.61,11.456c0.41,0.813,0.785,1.631,1.129,2.54c5.474-6.626,10.246-13.805,9.73-23.058l-10.276,8.98
	C398.319,380.999,397.791,380.269,397.229,379.624"/>
<path fill="#010101" d="M209.99,404.24c1.816-3.577,5.512-6.852,6.379-10.245l0.531-0.223c1.337,3.335,1.193,7.327,0.169,10.951
	c-1.108,4.704-3.424,8.369-4.508,12.994c-0.194,0.891-0.353,1.775-0.458,2.742c-6.957-5.049-13.37-10.809-15.182-19.897l12.193,6.13
	C209.277,405.844,209.607,405.005,209.99,404.24"/>
<path fill="#010101" d="M213.125,362.457c-0.578,1.658-0.758,3.546-1.547,5.248c-0.511,0.668-0.961,1.357-1.432,2.056
	c-1.314,1.815-2.676,3.431-4.42,3.885c-0.606-2.796-1.065-5.733-0.534-8.912c0.604-2.012,1.507-3.807,2.69-5.429
	c1.848-2.559,4.357-4.637,7.396-6.199c0.099-0.058,0.167-0.071,0.224-0.119l0.403,0.093c-0.157,0.24-0.304,0.516-0.46,0.796
	C214.068,356.501,213.656,359.278,213.125,362.457"/>
<path fill="#010101" d="M208.492,379.624c2.652-3.01,7.049-5.257,8.735-8.326l0.571-0.084c0.461,3.564-0.676,7.393-2.573,10.646
	c-2.248,4.278-5.406,7.249-7.611,11.456c-0.409,0.813-0.784,1.631-1.128,2.54c-5.475-6.626-10.246-13.805-9.73-23.058l10.276,8.98
	C207.401,380.999,207.93,380.269,208.492,379.624"/>
<path fill="#010101" d="M376.129,445.397c-0.916-0.017-1.783-0.026-2.639,0.015c3.212-4.571,2.29-10.163,4.059-15.119l-0.018-0.219
	c-5.329,2.008-8.124,6.701-10.73,11.656c-1.861,3.592-3.684,7.274-6.34,9.994c1.109,0.08,2.153,0.229,3.234,0.389
	c1.122,0.164,2.275,0.386,3.436,0.691c2.305,0.135,4.58,0.238,6.731,0.167c4.034-0.171,7.795-0.854,11.037-2.606
	c1.501-0.797,2.901-1.849,4.131-3.16c-0.949-0.154-1.992-0.342-3.028-0.524C382.737,446.126,379.303,445.556,376.129,445.397"/>
<path fill="#010101" d="M389.129,429.824c-1.494-5.036-4.275-10.122-3.865-15.641l-0.143-0.219l-0.374,0.164
	c-0.045,0.036-0.097,0.108-0.101,0.145c-0.293,0.5-0.602,0.786-1.137,1.3c-3.805,6.707-3.229,14.78-1.275,21.92
	c0.32,1.177,0.654,2.295,1.063,3.425c3.424-2.676,7.645-3.358,11.443-5.306c0.341-0.207,0.676-0.37,1.029-0.582
	c3.66-2.641,5.886-7.007,6.841-11.183c-2.373,0.757-4.7,1.367-6.876,2.186C393.389,426.879,391.127,428.021,389.129,429.824"/>
<path fill="#010101" d="M229.656,445.397c0.915-0.017,1.782-0.026,2.637,0.015c-3.211-4.571-2.291-10.163-4.058-15.119l0.017-0.219
	c5.33,2.008,8.125,6.701,10.731,11.656c1.861,3.592,3.683,7.274,6.339,9.994c-1.109,0.08-2.152,0.229-3.234,0.389
	c-1.121,0.164-2.275,0.386-3.435,0.691c-2.306,0.135-4.581,0.238-6.733,0.167c-4.034-0.171-7.793-0.854-11.035-2.606
	c-1.502-0.797-2.902-1.849-4.131-3.16c0.947-0.154,1.992-0.342,3.027-0.524C223.045,446.126,226.479,445.556,229.656,445.397"/>
<path fill="#010101" d="M216.656,429.824c1.493-5.036,4.273-10.122,3.863-15.641l0.143-0.219l0.375,0.164
	c0.043,0.036,0.096,0.108,0.101,0.145c0.292,0.5,0.601,0.786,1.136,1.3c3.805,6.707,3.23,14.78,1.275,21.92
	c-0.32,1.177-0.653,2.295-1.063,3.425c-3.423-2.676-7.645-3.358-11.443-5.306c-0.342-0.207-0.676-0.37-1.029-0.582
	c-3.659-2.641-5.885-7.007-6.842-11.183c2.373,0.757,4.701,1.367,6.877,2.186C212.395,426.879,214.656,428.021,216.656,429.824"/>
<polygon fill="#FFFFFF" points="266.307,321.149 258.848,320.019 255.527,312.921 252.206,320.019 244.748,321.149 250.138,326.684 
	248.79,334.479 255.527,330.798 262.264,334.479 260.916,326.684 "/>
<polygon fill="#FFFFFF" points="360.973,321.149 353.515,320.019 350.193,312.921 346.873,320.019 339.414,321.149 344.805,326.684 
	343.457,334.479 350.193,330.798 356.93,334.479 355.584,326.684 "/>
</svg>
