<?xml version="1.0" encoding="utf-8"?>
<!-- Generator: Adobe Illustrator 16.0.0, SVG Export Plug-In . SVG Version: 6.00 Build 0)  -->
<!DOCTYPE svg PUBLIC "-//W3C//DTD SVG 1.1//EN" "http://www.w3.org/Graphics/SVG/1.1/DTD/svg11.dtd">
<svg version="1.1" id="Layer_1" xmlns="http://www.w3.org/2000/svg" xmlns:xlink="http://www.w3.org/1999/xlink" x="0px" y="0px"
	 width="240px" height="230px" viewBox="0 0 240 230" enable-background="new 0 0 240 230" xml:space="preserve">
<path fill="none" d="M164.63-219.096"/>
<path fill="#FFFFFF" d="M81.324,80.95c0.865-2.783-0.535-6.177-3.111-7.541L50.641,58.813L21.338,43.303
	c-2.575-1.363-4.939-0.107-5.252,2.79c0,0-3.293,30.512,20.82,39.177c24.114,8.665,33.758,12.129,33.758,12.129
	c2.742,0.984,5.695-0.485,6.561-3.27L81.324,80.95z"/>
<path fill="#FFFFFF" d="M159.927,80.95c-0.866-2.783,0.534-6.177,3.11-7.541l27.572-14.596l29.303-15.511
	c2.575-1.363,4.938-0.107,5.252,2.79c0,0,3.293,30.512-20.82,39.177s-33.758,12.129-33.758,12.129
	c-2.742,0.984-5.695-0.485-6.561-3.27L159.927,80.95z"/>
<path fill="#020202" d="M72.406,100.592L72.406,100.592c-0.924-0.002-1.838-0.161-2.719-0.479l-33.756-12.13
	C9.98,78.658,13.183,46.11,13.217,45.782c0.376-3.483,2.878-5.917,6.087-5.917c1.135,0,2.272,0.299,3.385,0.887l56.873,30.107
	c3.813,2.019,5.797,6.826,4.516,10.946l-4.098,13.18C78.938,98.339,75.893,100.592,72.406,100.592 M19.305,45.636
	c-0.265,0-0.348,0.733-0.351,0.766c-0.007,0.069-0.74,7.355,1.337,15.484c2.68,10.482,8.598,17.437,17.591,20.668l33.757,12.13
	c1.18,0.423,2.465-0.234,2.831-1.411l4.099-13.179c0.451-1.452-0.361-3.424-1.705-4.136L19.991,45.852
	C19.621,45.656,19.387,45.636,19.305,45.636"/>
<path fill="#020202" d="M168.844,100.592c-3.486,0-6.531-2.253-7.574-5.604l-4.098-13.181c-1.281-4.12,0.703-8.929,4.516-10.946
	l56.875-30.107c1.111-0.588,2.25-0.887,3.384-0.887c3.207,0,5.711,2.433,6.088,5.916c0.034,0.329,3.234,32.877-22.716,42.202
	l-33.756,12.13C170.682,100.43,169.768,100.592,168.844,100.592 M221.945,45.636c-0.082,0-0.316,0.021-0.686,0.216l-56.875,30.106
	c-1.343,0.712-2.156,2.684-1.705,4.136l4.1,13.18c0.365,1.176,1.648,1.833,2.83,1.41l33.758-12.13
	c21.727-7.808,18.959-35.869,18.93-36.152C222.293,46.37,222.211,45.636,221.945,45.636"/>
<path fill="#F26D7C" d="M188.383,105.847c-10.15-32.988-1.838-41.102-0.035-42.34H120.98H52.498
	c1.804,1.238,10.367,9.352,0.217,42.34c-14.918,48.48,55.285,74.916,67.834,79.934c0.137-0.055,0.281-0.112,0.432-0.172
	C134.617,180.183,203.139,153.801,188.383,105.847"/>
<g opacity="0.5">
	<g>
		<g>
			<defs>
				<rect id="SVGID_1_" x="119.87" y="61.924" width="69.47" height="122.101"/>
			</defs>
			<clipPath id="SVGID_2_">
				<use xlink:href="#SVGID_1_"  overflow="visible"/>
			</clipPath>
			<path clip-path="url(#SVGID_2_)" fill="#DF2F55" d="M187.27,104.263c-10.149-32.988-1.838-41.102-0.035-42.34h-67.366v122.103
				C133.504,178.599,202.023,152.217,187.27,104.263"/>
		</g>
	</g>
</g>
<path fill="#F26D7C" d="M143.258,147.408H96.996c-4.695,0-8.503-3.807-8.503-8.503v-38.097c0-4.696,3.808-8.503,8.503-8.503h46.262
	c4.695,0,8.502,3.807,8.502,8.503v38.097C151.76,143.602,147.953,147.408,143.258,147.408"/>
<path fill="#191818" d="M143.258,149.415H96.996c-5.795,0-10.51-4.715-10.51-10.51v-38.097c0-5.795,4.715-10.511,10.51-10.511
	h46.262c5.795,0,10.508,4.716,10.508,10.511v38.097C153.766,144.7,149.053,149.415,143.258,149.415 M96.996,94.313
	c-3.582,0-6.496,2.914-6.496,6.496v38.097c0,3.582,2.914,6.496,6.496,6.496h46.262c3.58,0,6.494-2.914,6.494-6.496v-38.097
	c0-3.582-2.914-6.496-6.494-6.496H96.996z"/>
<path fill="#F26D7C" d="M151.76,93.282c0-4.696-3.807-8.503-8.502-8.503H96.996c-4.695,0-8.502,3.807-8.502,8.503v7.125h63.266
	V93.282L151.76,93.282z"/>
<path fill="#FFFFFF" d="M88.494,100.909v30.472c0,4.695,3.807,8.502,8.502,8.502h46.262c4.695,0,8.502-3.807,8.502-8.502v-30.472
	H88.494z"/>
<path fill="#191818" d="M143.258,141.89H96.996c-5.795,0-10.51-4.716-10.51-10.511V93.282c0-5.795,4.715-10.51,10.51-10.51h46.262
	c5.795,0,10.508,4.715,10.508,10.51v38.097C153.766,137.176,149.053,141.89,143.258,141.89 M96.996,86.787
	c-3.582,0-6.496,2.914-6.496,6.496v38.097c0,3.582,2.914,6.496,6.496,6.496h46.262c3.58,0,6.494-2.914,6.494-6.496V93.283
	c0-3.582-2.914-6.496-6.494-6.496H96.996L96.996,86.787z"/>
<path fill="#FFFFFF" d="M136.367,72.407c-2.748,0-4.977,2.229-4.977,4.979v10.429c0,2.749,2.229,4.977,4.977,4.977
	c2.749,0,4.977-2.228,4.977-4.977v-10.43C141.344,74.636,139.116,72.407,136.367,72.407"/>
<path fill="#191818" d="M136.367,94.546c-3.713,0-6.732-3.02-6.732-6.732V77.385c0-3.714,3.021-6.733,6.732-6.733
	c3.713,0,6.732,3.02,6.732,6.733v10.429C143.1,91.526,140.08,94.546,136.367,94.546 M136.367,74.163
	c-1.775,0-3.221,1.445-3.221,3.223v10.429c0,1.775,1.444,3.221,3.221,3.221c1.775,0,3.221-1.445,3.221-3.221v-10.43
	C139.588,75.608,138.143,74.163,136.367,74.163"/>
<path fill="#FFFFFF" d="M104.003,72.407c-2.749,0-4.978,2.229-4.978,4.979v10.429c0,2.749,2.229,4.977,4.978,4.977
	c2.747,0,4.976-2.228,4.976-4.977v-10.43C108.979,74.636,106.75,72.407,104.003,72.407"/>
<path fill="#191818" d="M104.002,94.546c-3.712,0-6.732-3.02-6.732-6.732V77.385c0-3.714,3.021-6.733,6.732-6.733
	c3.713,0,6.732,3.02,6.732,6.733v10.429C110.734,91.526,107.715,94.546,104.002,94.546 M104.002,74.163
	c-1.775,0-3.221,1.445-3.221,3.223v10.429c0,1.775,1.445,3.221,3.221,3.221s3.221-1.445,3.221-3.221v-10.43
	C107.223,75.608,105.777,74.163,104.002,74.163"/>
<rect x="95.396" y="104.945" fill="#F26D7C" width="7.524" height="7.525"/>
<rect x="105.682" y="104.945" fill="#F26D7C" width="7.524" height="7.525"/>
<rect x="115.967" y="104.945" fill="#F26D7C" width="7.524" height="7.525"/>
<rect x="126.25" y="104.945" fill="#F26D7C" width="7.525" height="7.525"/>
<rect x="136.535" y="104.945" fill="#F26D7C" width="7.525" height="7.525"/>
<rect x="95.396" y="115.229" fill="#F26D7C" width="7.524" height="7.523"/>
<rect x="105.682" y="115.229" fill="#F26D7C" width="7.524" height="7.523"/>
<rect x="115.967" y="115.229" fill="#F26D7C" width="7.524" height="7.523"/>
<rect x="126.25" y="115.229" fill="#F26D7C" width="7.525" height="7.523"/>
<rect x="136.535" y="115.229" fill="#F26D7C" width="7.525" height="7.523"/>
<rect x="95.396" y="125.515" fill="#F26D7C" width="7.524" height="7.523"/>
<rect x="105.682" y="125.515" fill="#F26D7C" width="7.524" height="7.523"/>
<rect x="115.967" y="125.515" fill="#F26D7C" width="7.524" height="7.523"/>
<rect x="126.25" y="125.515" fill="#F26D7C" width="7.525" height="7.523"/>
<rect x="136.535" y="125.515" fill="#F26D7C" width="7.525" height="7.523"/>
<g opacity="0.4">
	<g>
		<g>
			<defs>
				<rect id="SVGID_3_" x="50.65" y="17.725" width="139.8" height="168.06"/>
			</defs>
			<clipPath id="SVGID_4_">
				<use xlink:href="#SVGID_3_"  overflow="visible"/>
			</clipPath>
			<path clip-path="url(#SVGID_4_)" fill="#FFFFFF" d="M120.549,31.79c8.377,4.036,25.287,10.075,54.195,12.173v14.625
				c-1.49,2.458-2.887,5.657-3.813,9.77c-2.388,10.613-0.953,24.591,4.264,41.546c2.328,7.569,1.855,14.601-1.443,21.5
				c-3.051,6.373-8.52,12.725-16.252,18.875c-12.736,10.132-28.211,17.049-36.951,20.637c-8.742-3.588-24.217-10.505-36.952-20.637
				c-7.733-6.15-13.201-12.502-16.251-18.875c-3.301-6.898-3.773-13.931-1.445-21.499c5.23-17.001,6.614-31.022,4.109-41.675
				c-0.963-4.099-2.391-7.283-3.909-9.729V43.958C88.238,42.32,107.677,37.994,120.549,31.79 M120.549,17.729
				c-1.727,0-3.453,0.347-4.795,1.037c-9.942,5.119-29.271,10.588-57.984,11.863c-3.016,0.135-5.465,2.57-5.465,5.59v27.16
				c0,0,11.263,7.193,0.41,42.467c-14.918,48.481,55.285,74.915,67.834,79.934c12.549-5.019,82.751-31.451,67.834-79.934
				c-10.854-35.272,0.158-42.467,0.158-42.467v-27.16c0-3.02-2.448-5.455-5.465-5.59c-28.713-1.275-47.791-6.744-57.733-11.863
				C124,18.075,122.273,17.729,120.549,17.729"/>
		</g>
	</g>
</g>
<path fill="#191818" d="M120.549,26.094c0.525,0,0.895,0.092,1.006,0.131c13.141,6.754,34.396,11.326,58.621,12.638v21.353
	c-1.469,2.076-2.99,5.088-3.945,9.333c-2.178,9.68-0.778,22.719,4.156,38.759c5.107,16.6-1.272,31.719-19.506,46.221
	c-14.387,11.444-31.92,18.869-40.332,22.248c-8.413-3.379-25.946-10.804-40.333-22.248c-18.232-14.502-24.613-29.621-19.505-46.221
	c4.943-16.066,6.293-29.134,4.013-38.836c-0.997-4.241-2.556-7.243-4.054-9.313V38.862c24.394-1.318,45.742-5.89,58.873-12.638
	C119.654,26.186,120.021,26.094,120.549,26.094 M120.549,17.729c-1.727,0-3.453,0.346-4.795,1.037
	c-9.942,5.119-29.271,10.588-57.984,11.863c-3.016,0.135-5.465,2.57-5.465,5.59v27.16c0,0,11.263,7.193,0.41,42.467
	c-14.918,48.481,55.285,74.915,67.834,79.934c12.549-5.019,82.751-31.451,67.834-79.934c-10.854-35.272,0.158-42.467,0.158-42.467
	v-27.16c0-3.02-2.448-5.455-5.465-5.59c-28.713-1.275-47.791-6.744-57.733-11.863C124,18.074,122.273,17.729,120.549,17.729"/>
<path fill="#191818" d="M188.542,36.22c0-3.021-2.449-5.456-5.466-5.591c-28.713-1.274-47.791-6.742-57.732-11.863
	c-2.686-1.383-6.906-1.383-9.59,0c-9.942,5.121-29.271,10.589-57.984,11.863c-3.016,0.135-5.465,2.57-5.465,5.591v27.159
	c0,0,0.07,0.042,0.193,0.128h135.85c0.125-0.086,0.194-0.128,0.194-0.128V36.22z"/>
<path fill="#FFFFFF" d="M93.377,54.676v-3.252c7.346-7.136,8.881-8.729,8.881-11.019c0-1.536-1.175-2.529-2.68-2.529
	c-1.775,0-3.191,0.813-4.275,2.259l-2.408-2.529c1.627-2.167,4.004-3.313,6.744-3.313c3.884,0,6.713,2.35,6.713,6.082
	c0,3.04-2.047,5.63-7.014,10.747h7.104v3.553H93.377V54.676z"/>
<path fill="#FFFFFF" d="M109.18,52.688c0-1.265,1.084-2.349,2.348-2.349c1.265,0,2.318,1.084,2.318,2.349
	c0,1.266-1.054,2.317-2.318,2.317C110.264,55.006,109.18,53.953,109.18,52.688"/>
<path fill="#FFFFFF" d="M116.465,51.875l2.438-2.589c1.054,1.385,2.469,2.168,4.185,2.168c1.928,0,3.041-1.475,3.041-3.162
	c0-1.985-1.054-3.161-2.859-3.161c-1.354,0-2.377,0.482-3.313,1.656l-2.92-0.783V34.596h12.042v3.551h-8.009v5.148
	c0.783-0.963,2.139-1.655,3.674-1.655c3.04,0,5.479,2.379,5.479,6.532c0,4.034-2.74,6.864-7.015,6.864
	C120.107,55.036,117.969,53.893,116.465,51.875"/>
<polygon fill="#FFFFFF" points="143.045,54.676 138.408,46.818 136.994,49.045 136.994,54.676 132.96,54.676 132.96,34.596 
	136.994,34.596 136.994,43.717 142.652,34.596 147.35,34.596 140.938,44.048 147.803,54.676 "/>
<polygon fill="#FFFFFF" points="91.494,42.893 84.035,41.762 80.715,34.664 77.395,41.762 69.937,42.893 75.325,48.427 
	73.979,56.222 80.715,52.541 87.452,56.222 86.104,48.427 "/>
<polygon fill="#FFFFFF" points="171.161,42.893 163.703,41.762 160.382,34.664 157.061,41.762 149.604,42.893 154.992,48.427 
	153.645,56.222 160.382,52.541 167.119,56.222 165.771,48.427 "/>
<path fill="#020202" d="M213.189,106.842c0.146,1.75-0.152,3.623,0.187,5.469c0.328,0.773,0.593,1.554,0.873,2.349
	c0.819,2.085,1.733,3.99,3.31,4.866c1.285-2.557,2.464-5.286,2.744-8.497c-0.084-2.099-0.508-4.063-1.25-5.928
	c-1.148-2.94-3.061-5.579-5.611-7.852c-0.082-0.079-0.145-0.109-0.188-0.17l-0.414-0.012c0.094,0.271,0.164,0.577,0.248,0.886
	C213.764,100.839,213.469,103.631,213.189,106.842"/>
<path fill="#020202" d="M213.389,124.622c-1.816-3.577-5.514-6.851-6.381-10.245l-0.531-0.223
	c-1.336,3.336-1.192,7.326-0.168,10.951c1.107,4.703,3.424,8.368,4.508,12.993c0.193,0.891,0.354,1.774,0.459,2.741
	c6.956-5.049,13.368-10.808,15.183-19.896l-12.194,6.13C214.1,126.226,213.771,125.387,213.389,124.622"/>
<path fill="#020202" d="M193.785,165.779c-0.916-0.017-1.783-0.026-2.639,0.015c3.213-4.57,2.291-10.163,4.059-15.118l-0.018-0.22
	c-5.328,2.008-8.123,6.701-10.73,11.657c-1.861,3.592-3.684,7.273-6.34,9.994c1.109,0.08,2.154,0.229,3.234,0.388
	c1.123,0.163,2.274,0.386,3.436,0.692c2.306,0.135,4.58,0.236,6.732,0.166c4.035-0.171,7.795-0.854,11.037-2.605
	c1.502-0.798,2.9-1.85,4.131-3.161c-0.949-0.153-1.992-0.342-3.029-0.523C200.395,166.508,196.961,165.938,193.785,165.779"/>
<path fill="#020202" d="M206.785,150.206c-1.494-5.036-4.273-10.122-3.864-15.641l-0.144-0.219l-0.373,0.165
	c-0.045,0.034-0.098,0.106-0.103,0.144c-0.292,0.5-0.601,0.786-1.136,1.3c-3.807,6.707-3.229,14.78-1.275,21.92
	c0.32,1.178,0.653,2.295,1.063,3.427c3.423-2.677,7.645-3.359,11.441-5.308c0.342-0.207,0.679-0.369,1.029-0.582
	c3.66-2.641,5.887-7.007,6.842-11.183c-2.373,0.757-4.7,1.368-6.877,2.187C211.046,147.262,208.783,148.403,206.785,150.206"/>
<path fill="#020202" d="M27.985,106.972c-0.24,1.739-0.044,3.626-0.482,5.449c-0.368,0.756-0.674,1.521-0.997,2.3
	c-0.931,2.036-1.947,3.891-3.566,4.681c-1.146-2.622-2.176-5.41-2.282-8.632c0.196-2.091,0.726-4.029,1.567-5.854
	c1.306-2.873,3.356-5.405,6.026-7.536c0.086-0.074,0.149-0.103,0.195-0.159l0.415,0.011c-0.107,0.266-0.196,0.565-0.295,0.871
	C27.735,100.947,27.879,103.751,27.985,106.972"/>
<path fill="#020202" d="M27.71,124.622c1.815-3.577,5.512-6.851,6.379-10.245l0.53-0.223c1.338,3.336,1.194,7.326,0.17,10.951
	c-1.108,4.703-3.424,8.368-4.508,12.993c-0.193,0.891-0.354,1.774-0.459,2.741c-6.955-5.049-13.369-10.808-15.182-19.896
	l12.194,6.13C26.998,126.226,27.326,125.387,27.71,124.622"/>
<path fill="#020202" d="M47.313,165.779c0.916-0.017,1.783-0.026,2.638,0.015c-3.212-4.57-2.291-10.163-4.058-15.118l0.017-0.22
	c5.329,2.008,8.124,6.701,10.731,11.657c1.861,3.592,3.683,7.273,6.339,9.994c-1.109,0.08-2.153,0.229-3.234,0.388
	c-1.122,0.163-2.276,0.386-3.435,0.692c-2.307,0.135-4.581,0.236-6.732,0.166c-4.035-0.171-7.795-0.854-11.037-2.605
	c-1.502-0.798-2.902-1.85-4.131-3.161c0.949-0.153,1.992-0.342,3.028-0.523C40.703,166.508,44.137,165.938,47.313,165.779"/>
<path fill="#020202" d="M34.313,150.206c1.494-5.036,4.273-10.122,3.863-15.641l0.144-0.219l0.374,0.165
	c0.044,0.034,0.097,0.106,0.102,0.144c0.291,0.5,0.6,0.786,1.135,1.3c3.806,6.707,3.23,14.78,1.275,21.92
	c-0.32,1.178-0.652,2.295-1.063,3.427c-3.422-2.677-7.644-3.359-11.442-5.308c-0.341-0.207-0.677-0.369-1.028-0.582
	c-3.66-2.641-5.887-7.007-6.843-11.183c2.374,0.757,4.701,1.368,6.877,2.187C30.051,147.262,32.313,148.403,34.313,150.206"/>
<polygon fill="#FFFFFF" points="173.54,194.893 121.246,209.076 68.953,193.388 68.953,165.867 121.246,181.555 173.54,165.867 "/>
<path fill="#020202" d="M121.246,210l-54.551-13.335v-33.674l54.551,13.334l54.551-13.334v33.674L121.246,210z M71.211,193.12
	l50.035,12.231l50.035-12.231v-24.377l-50.035,12.23l-50.035-12.23V193.12z"/>
<polygon fill="#020202" points="150.027,172.055 175.863,163.076 162.791,153.295 141.777,171.307 "/>
<polygon fill="#020202" points="92.425,172.055 66.588,163.076 79.662,153.295 100.675,171.307 "/>
<polygon fill="#020202" points="93.097,182.48 90.506,176.943 87.916,182.48 82.099,183.363 86.303,187.68 85.252,193.761 
	90.506,190.889 95.762,193.761 94.711,187.68 98.914,183.363 "/>
<polygon fill="#020202" points="123.783,188.558 120.925,182.447 118.066,188.558 111.645,189.531 116.284,194.296 115.125,201.007 
	120.925,197.838 126.725,201.007 125.564,194.296 130.204,189.531 "/>
<polygon fill="#020202" points="154.121,182.48 151.531,176.943 148.941,182.48 143.123,183.363 147.326,187.68 146.275,193.761 
	151.531,190.889 156.785,193.761 155.734,187.68 159.939,183.363 "/>
</svg>
