<?xml version="1.0" encoding="utf-8"?>
<!-- Generator: Adobe Illustrator 16.0.0, SVG Export Plug-In . SVG Version: 6.00 Build 0)  -->
<!DOCTYPE svg PUBLIC "-//W3C//DTD SVG 1.1//EN" "http://www.w3.org/Graphics/SVG/1.1/DTD/svg11.dtd">
<svg version="1.1" id="Layer_1" xmlns="http://www.w3.org/2000/svg" xmlns:xlink="http://www.w3.org/1999/xlink" x="0px" y="0px"
	 width="612px" height="792px" viewBox="0 0 612 792" enable-background="new 0 0 612 792" xml:space="preserve">
<path fill="none" d="M311.63-1226.76"/>
<path fill="none" d="M311.63,2018.837"/>
<path fill="none" d="M312.63-1225.76"/>
<path fill="none" d="M312.63,2019.837"/>
<path fill="#5F9AD2" d="M185.246,519.479"/>
<path fill="#FFFFFF" d="M185.246,519.729"/>
<path fill="#231F20" d="M185.246,519.73"/>
<path fill="#A6A8AC" d="M209.835,588.157l-1.519-3.771h-8.117l-1.518,3.771h-1.518l6.277-15.338h1.633l6.278,15.338H209.835z
	 M204.27,574.223l-3.633,8.968h7.243L204.27,574.223z"/>
<path fill="#A6A8AC" d="M216.369,588.158V572.82h5.748c2.943,0,4.623,2.068,4.623,4.483s-1.701,4.484-4.623,4.484h-4.438v6.37
	H216.369z M225.359,577.304c0-1.932-1.334-3.289-3.38-3.289h-4.3v6.577h4.3C224.025,580.592,225.359,579.213,225.359,577.304"/>
<path fill="#A6A8AC" d="M231.686,580.5c0-4.483,2.945-7.934,7.451-7.934c4.484,0,7.451,3.45,7.451,7.934
	c0,4.484-2.967,7.934-7.451,7.934C234.631,588.434,231.686,584.984,231.686,580.5 M245.207,580.5c0-3.886-2.392-6.737-6.07-6.737
	c-3.701,0-6.07,2.852-6.07,6.737c0,3.863,2.369,6.737,6.07,6.737C242.815,587.237,245.207,584.363,245.207,580.5"/>
<polygon fill="#A6A8AC" points="252.273,588.157 252.273,572.819 253.605,572.819 253.605,586.962 261.033,586.962 261.033,588.157 
	"/>
<polygon fill="#A6A8AC" points="266.164,588.157 266.164,572.819 267.497,572.819 267.497,586.962 274.926,586.962 274.926,588.157 
	"/>
<path fill="#A6A8AC" d="M278.951,580.5c0-4.483,2.945-7.934,7.451-7.934c4.484,0,7.451,3.45,7.451,7.934
	c0,4.484-2.967,7.934-7.451,7.934C281.896,588.434,278.951,584.984,278.951,580.5 M292.473,580.5c0-3.886-2.392-6.737-6.07-6.737
	c-3.701,0-6.07,2.852-6.07,6.737c0,3.863,2.369,6.737,6.07,6.737C290.081,587.237,292.473,584.363,292.473,580.5"/>
<polygon fill="#A6A8AC" points="310.531,588.157 310.531,574.613 308.07,577.234 307.266,576.385 310.646,572.819 311.842,572.819 
	311.842,588.157 "/>
<polygon fill="#A6A8AC" points="319.318,588.157 325.756,574.016 317.271,574.016 317.271,572.819 327.32,572.819 327.32,573.739 
	320.766,588.157 "/>
<path fill="#4A4A4A" d="M191.146,497.073l65.506,37.82c1.752,1.012,4.076,1.5,6.385,1.472c2.188-0.025,4.361-0.514,6.021-1.472
	l65.507-37.82c3.411-1.97,6.202-6.804,6.202-10.743v-75.641c0-3.939-2.791-8.773-6.202-10.743l-65.507-37.821
	c-1.659-0.958-3.833-1.446-6.021-1.472c-2.309-0.026-4.633,0.461-6.385,1.472l-65.506,37.821c-3.412,1.97-6.203,6.804-6.203,10.743
	v75.641C184.943,490.27,187.734,495.104,191.146,497.073"/>
<g opacity="0.6">
	<g>
		<defs>
			<rect id="SVGID_1_" x="262.971" y="362.02" width="77.25" height="173"/>
		</defs>
		<clipPath id="SVGID_2_">
			<use xlink:href="#SVGID_1_"  overflow="visible"/>
		</clipPath>
		<path clip-path="url(#SVGID_2_)" fill="#010101" d="M334.012,497.073c3.412-1.97,6.203-6.804,6.203-10.743v-75.641
			c0-3.939-2.791-8.773-6.203-10.743l-65.506-37.821c-1.537-0.887-3.516,4.136-5.536,4.048v165.772
			c2.021-0.088,3.999,3.834,5.536,2.947L334.012,497.073z"/>
	</g>
</g>
<g opacity="0.4">
	<g>
		<defs>
			<rect id="SVGID_3_" x="184.939" y="360.65" width="155.83" height="175.72"/>
		</defs>
		<clipPath id="SVGID_4_">
			<use xlink:href="#SVGID_3_"  overflow="visible"/>
		</clipPath>
		<path clip-path="url(#SVGID_4_)" fill="#FFFFFF" d="M262.854,376.073l62.731,36.219v72.436l-62.731,36.22l-62.731-36.219v-72.437
			L262.854,376.073 M262.854,360.652c-2.248,0-4.496,0.489-6.201,1.474l-65.507,37.819c-3.411,1.971-6.203,6.806-6.203,10.744
			v75.641c0,3.939,2.792,8.773,6.203,10.744l65.507,37.819c1.705,0.985,3.953,1.474,6.201,1.474c0.062,0,0.123,0,0.184-0.002
			c2.188-0.025,4.361-0.514,6.021-1.472l65.506-37.819c3.412-1.971,6.203-6.805,6.203-10.744v-75.641
			c0-3.938-2.791-8.773-6.203-10.744l-65.506-37.819c-1.66-0.958-3.834-1.446-6.021-1.472
			C262.977,360.652,262.915,360.652,262.854,360.652"/>
	</g>
</g>
<g>
	<defs>
		<path id="SVGID_5_" d="M255.893,465.242c-7.953,24.393-3.99,49.809,8.688,69.947c1.798-0.156,3.528-0.637,4.899-1.438
			l64.449-37.717c1.721-1.009,3.276-2.765,4.381-4.759c1.045-1.888,1.688-3.991,1.678-5.885l-0.441-74.671
			c-0.005-0.843-0.139-1.726-0.382-2.612c-1.479-0.08-2.956-0.12-4.429-0.12C299.807,407.99,267.311,430.23,255.893,465.242"/>
	</defs>
	<clipPath id="SVGID_6_">
		<use xlink:href="#SVGID_5_"  overflow="visible"/>
	</clipPath>
	<path clip-path="url(#SVGID_6_)" fill="#C8C7C7" d="M309.039,569.818c-43.555-14.203-67.348-61.023-53.146-104.577
		s61.022-67.347,104.577-53.146c43.554,14.203,67.347,61.024,53.145,104.577C399.412,560.227,352.592,584.021,309.039,569.818"/>
	<polygon clip-path="url(#SVGID_6_)" fill="#9B9C9C" points="417.141,504.763 406.439,506.362 405.953,498.933 410.468,487.316 
		405.167,479.045 403.523,495.232 389.75,495.104 392.751,485.902 391.622,480.444 391.451,454.212 381.15,450.125 380.906,446.41 
		394.223,443.481 390.65,432.138 385.165,428.894 381.507,437.881 376.878,432.009 366.361,428.58 362.475,436.037 362.304,443.253 
		342.973,462.398 328.756,461.398 320.111,476.758 308.053,471.371 307.768,461.098 298.966,452.41 299.752,438.852 
		290.309,432.137 287.393,421.007 266.59,415.677 271.947,399.246 302.41,410.634 319.083,419.707 325.656,421.85 340.244,412.791 
		352.745,419.05 361.104,426.864 368.076,423.321 376.62,426.107 379.878,422.808 386.408,418.393 405.896,423.293 431.814,441.925 
			"/>
	<polygon clip-path="url(#SVGID_6_)" fill="#9B9C9C" points="393.165,549.297 384.578,539.953 379.977,538.453 370.861,548.568 
		359.031,544.711 362.203,528.295 354.359,532.28 348.958,542.153 353.802,547.368 343.371,557.056 331.684,575.058 
		381.377,585.445 	"/>
	<polygon clip-path="url(#SVGID_6_)" fill="#9B9C9C" points="322.926,572.929 329.369,555.398 341.343,547.668 345.4,532.995 
		342.5,524.05 341.801,517.278 321.826,504.948 305.924,513.577 300.551,527.822 291.836,532.251 286.75,523.321 273.861,524.936 
		266.804,515.363 257.388,513.02 236.313,499.604 221.883,532.708 303.237,570.871 	"/>
	<polygon clip-path="url(#SVGID_6_)" fill="#9B9C9C" points="400.201,515.284 386.355,504.225 379.369,505.582 383.355,513.427 
		388.271,529.572 	"/>
	<polygon clip-path="url(#SVGID_6_)" fill="#9B9C9C" points="371.38,531.74 377.236,536.073 370.274,541.074 365.445,538.046 	"/>
	<polygon clip-path="url(#SVGID_6_)" fill="#9B9C9C" points="418.701,556.229 407.779,561.367 404.879,553.584 405.981,539.725 
		397.666,532.583 401.098,550.408 386.338,554.684 386.596,543.891 383.642,538.42 375.053,510.444 362.734,509.378 
		361.284,505.487 374.575,498.09 367.123,487.112 360.221,485.405 359.192,496.18 352.364,491.389 340.028,491.094 338.266,500.309 
		340.395,508.074 325.873,534.727 310.361,538.214 306.047,557.396 291.435,555.505 287.838,544.619 275.649,538.156 
		272.144,523.416 259.9,519.268 253.219,508.307 229.281,509.279 229.742,490.004 265.941,492.411 286.666,496.764 294.375,496.947 
		307.061,482.594 322.426,485.274 333.86,490.947 340.176,484.926 350.198,485.165 352.621,480.594 358.185,473.785 380.58,472.776 
		414.246,484.38 	"/>
</g>
<g>
	<defs>
		<path id="SVGID_7_" d="M256.227,363.269l-64.444,37.718c-1.634,0.954-3.114,2.581-4.204,4.444
			c-1.152,1.967-1.869,4.198-1.855,6.197l0.438,74.671c0.024,3.888,2.807,8.644,6.187,10.569l64.887,36.954
			c3.379,1.925,8.89,1.892,12.246-0.072l64.449-37.717c1.723-1.009,3.276-2.765,4.381-4.759c1.045-1.889,1.688-3.991,1.678-5.885
			l-0.44-74.671c-0.022-3.887-2.806-8.645-6.185-10.567l-64.889-36.954c-1.666-0.95-3.853-1.423-6.043-1.423
			C260.182,361.775,257.928,362.274,256.227,363.269"/>
	</defs>
	<clipPath id="SVGID_8_">
		<use xlink:href="#SVGID_7_"  overflow="visible"/>
	</clipPath>
	<path clip-path="url(#SVGID_8_)" fill="#C8C7C7" d="M360.471,412.097c-8.543-2.785-17.205-4.109-25.727-4.109v7.356
		c7.934,0,15.821,1.261,23.445,3.747c9.705,3.165,18.497,8.133,26.131,14.766c7.377,6.41,13.373,14.099,17.822,22.855
		c4.449,8.755,7.126,18.132,7.955,27.868c0.857,10.077-0.313,20.107-3.477,29.813c-5.045,15.468-14.687,28.626-27.886,38.049
		c-6.356,4.54-13.348,8.061-20.778,10.464c-7.52,2.433-15.319,3.665-23.187,3.665c-7.937,0-15.827-1.26-23.451-3.747
		c-9.705-3.165-18.497-8.133-26.131-14.766c-7.377-6.409-13.373-14.099-17.823-22.854c-4.449-8.756-7.125-18.132-7.953-27.869
		c-0.859-10.076,0.311-20.107,3.476-29.813c5.044-15.467,14.687-28.624,27.886-38.048c6.357-4.539,13.348-8.06,20.779-10.463
		c7.519-2.433,15.318-3.666,23.186-3.667l0.006-7.356h-0.006c-34.93,0.002-67.428,22.244-78.845,57.254
		c-14.202,43.554,9.591,90.374,53.146,104.577c8.543,2.786,17.207,4.109,25.731,4.109c34.931,0,67.428-22.244,78.845-57.254
		C427.817,473.119,404.024,426.3,360.471,412.097"/>
	<path clip-path="url(#SVGID_8_)" fill="#231F20" d="M334.738,407.987c8.523-0.001,17.188,1.323,25.732,4.11
		c43.554,14.201,67.347,61.022,53.145,104.576c-11.417,35.01-43.915,57.254-78.845,57.254c-8.524,0-17.188-1.323-25.731-4.109
		c-43.555-14.203-67.349-61.023-53.146-104.577C267.311,430.231,299.808,407.989,334.738,407.987 M334.744,403.232h-0.006
		c-18.355,0.001-35.992,5.667-51.003,16.385c-15.319,10.938-26.51,26.204-32.362,44.15c-7.263,22.271-5.418,46.039,5.195,66.923
		s28.725,36.386,50.996,43.647c8.839,2.883,17.992,4.345,27.206,4.345c18.354,0,35.991-5.665,51.003-16.384
		c15.318-10.938,26.51-26.205,32.361-44.151c14.994-45.976-10.213-95.578-56.19-110.571
		C353.105,404.694,343.953,403.232,334.744,403.232"/>
	<g opacity="0.9" clip-path="url(#SVGID_8_)">
		<g>
			<defs>
				<rect id="SVGID_9_" x="222.02" y="399.25" width="209.931" height="186.2"/>
			</defs>
			<clipPath id="SVGID_10_">
				<use xlink:href="#SVGID_9_"  overflow="visible"/>
			</clipPath>
			<path clip-path="url(#SVGID_10_)" fill="#66CDF4" d="M309.175,569.818c-43.554-14.203-67.347-61.023-53.146-104.577
				c14.203-43.554,61.024-67.347,104.578-53.146c43.553,14.203,67.348,61.024,53.145,104.577
				C399.55,560.227,352.729,584.021,309.175,569.818"/>
			<g clip-path="url(#SVGID_10_)">
				<defs>
					<path id="SVGID_11_" d="M309.175,569.818c-43.553-14.203-67.347-61.023-53.146-104.577
						c14.203-43.554,61.025-67.347,104.578-53.146c43.554,14.203,67.348,61.024,53.145,104.577
						C399.549,560.227,352.729,584.021,309.175,569.818"/>
				</defs>
				<clipPath id="SVGID_12_">
					<use xlink:href="#SVGID_11_"  overflow="visible"/>
				</clipPath>
				<path clip-path="url(#SVGID_12_)" fill="#66CDF4" d="M309.175,569.818c-43.554-14.203-67.347-61.023-53.146-104.577
					c14.203-43.554,61.024-67.347,104.578-53.146c43.553,14.203,67.348,61.024,53.145,104.577
					C399.55,560.227,352.729,584.021,309.175,569.818"/>
				<polygon clip-path="url(#SVGID_12_)" fill="#66CDF4" points="417.277,504.763 406.574,506.362 406.09,498.933 410.604,487.316 
					405.304,479.045 403.66,495.232 389.887,495.104 392.888,485.902 391.759,480.444 391.588,454.212 381.287,450.125 
					381.043,446.41 394.359,443.481 390.787,432.138 385.301,428.894 381.644,437.881 377.015,432.009 366.498,428.58 
					362.611,436.037 362.44,443.253 343.109,462.398 328.893,461.398 320.248,476.758 308.189,471.371 307.904,461.098 
					299.103,452.41 299.889,438.852 290.443,432.137 287.529,421.007 266.727,415.677 272.084,399.246 302.547,410.634 
					319.22,419.707 325.793,421.85 340.381,412.791 352.882,419.05 361.24,426.864 368.213,423.321 376.757,426.107 
					380.015,422.808 386.545,418.393 406.033,423.293 431.951,441.925 				"/>
				<polygon clip-path="url(#SVGID_12_)" fill="#66CDF4" points="393.302,549.297 384.715,539.953 380.113,538.453 370.998,548.568 
					359.168,544.711 362.34,528.295 354.496,532.28 349.095,542.153 353.938,547.368 343.508,557.056 331.82,575.058 
					381.514,585.445 				"/>
				<polygon clip-path="url(#SVGID_12_)" fill="#66CDF4" points="323.063,572.929 329.506,555.398 341.479,547.668 345.537,532.995 
					342.637,524.05 341.938,517.278 321.963,504.948 306.061,513.577 300.688,527.822 291.973,532.251 286.887,523.321 
					273.998,524.936 266.94,515.363 257.524,513.02 236.45,499.604 222.02,532.708 303.374,570.871 				"/>
				<polygon clip-path="url(#SVGID_12_)" fill="#66CDF4" points="400.338,515.284 386.492,504.225 379.506,505.582 383.492,513.427 
					388.406,529.572 				"/>
				<polygon clip-path="url(#SVGID_12_)" fill="#66CDF4" points="371.517,531.74 377.373,536.073 370.411,541.074 365.582,538.046 
									"/>
				<polygon clip-path="url(#SVGID_12_)" fill="#66CDF4" points="418.838,556.229 407.916,561.367 405.016,553.584 406.118,539.725 
					397.803,532.583 401.234,550.408 386.475,554.684 386.732,543.891 383.778,538.42 375.189,510.444 362.871,509.378 
					361.421,505.487 374.712,498.09 367.26,487.112 360.357,485.405 359.329,496.18 352.501,491.389 340.165,491.094 
					338.402,500.309 340.531,508.074 326.01,534.727 310.498,538.214 306.184,557.396 291.571,555.505 287.975,544.619 
					275.785,538.156 272.28,523.416 260.037,519.268 253.355,508.307 229.418,509.279 229.878,490.004 266.078,492.411 
					286.803,496.764 294.512,496.947 307.197,482.594 322.563,485.274 333.997,490.947 340.313,484.926 350.335,485.165 
					352.758,480.594 358.321,473.785 380.717,472.776 414.381,484.38 				"/>
			</g>
		</g>
	</g>
	
		<rect x="166.932" y="447.639" transform="matrix(0.8643 0.503 -0.503 0.8643 262.4286 -72.1812)" clip-path="url(#SVGID_8_)" fill="#FFFFFF" width="196.089" height="5.178"/>
</g>
<path fill="#1A1A19" d="M262.854,368.933l0.086,0.001c1.123,0.013,1.822,0.273,1.979,0.363l65.507,37.82
	c0.847,0.489,2.062,2.593,2.062,3.572v75.641c0,0.979-1.215,3.082-2.063,3.572l-65.506,37.82c-0.156,0.09-0.854,0.35-1.977,0.364
	h-0.088c-1.168,0-1.898-0.27-2.062-0.364l-65.507-37.82c-0.849-0.49-2.063-2.593-2.063-3.572v-75.641
	c0-0.979,1.214-3.083,2.063-3.572l65.507-37.82C260.955,369.203,261.686,368.933,262.854,368.933 M262.854,360.652
	c-2.248,0-4.496,0.489-6.201,1.474l-65.506,37.819c-3.412,1.971-6.203,6.806-6.203,10.744v75.641c0,3.939,2.791,8.773,6.203,10.744
	l65.506,37.819c1.705,0.985,3.953,1.474,6.201,1.474c0.061,0,0.122,0,0.184-0.002c2.188-0.025,4.361-0.514,6.021-1.472
	l65.507-37.819c3.411-1.971,6.202-6.805,6.202-10.744v-75.641c0-3.938-2.791-8.773-6.202-10.744l-65.507-37.819
	c-1.659-0.958-3.833-1.446-6.021-1.472C262.976,360.652,262.914,360.652,262.854,360.652"/>
<path fill="#FFFFFF" d="M227.777,416.682c0.52,0,1.045,0.132,1.528,0.409l4.914,2.823c0.146,0.083,0.291,0.173,0.438,0.268
	c2.373,1.521,5.119,4.504,6.31,6.897l2.003,4.028l6.146-10.701c0.762-1.324,2.146-2.065,3.571-2.065
	c0.695,0,1.399,0.176,2.046,0.547l39.824,22.875l5.012,2.958c0.896,0.756,1.406,1.843,1.454,2.973l0.261,0.531l-0.107,0.186
	l3.219,1.85c0.082,0.047,0.167,0.102,0.253,0.162c0.345,0.242,0.714,0.579,1.027,0.932c0.235,0.266,0.438,0.538,0.577,0.786
	l8.053,20.077c0.014,0.027,0.025,0.058,0.038,0.086c0.063,0.13,0.116,0.271,0.153,0.424c0.006,0.021,0.013,0.041,0.017,0.063
	c0.133,0.607,0.058,1.325-0.224,1.813l-3.551,6.184c-0.123,0.214-0.307,0.412-0.52,0.588c-0.061,0.049-0.122,0.097-0.188,0.142
	c-0.146,0.103-0.302,0.194-0.463,0.267c-0.099,0.045-0.197,0.084-0.297,0.115s-0.199,0.057-0.297,0.074s-0.195,0.027-0.29,0.029
	l-21.399,3.158c-0.019,0.002-0.037,0.002-0.056,0.002c-0.37,0-0.821-0.069-1.263-0.183c-0.232-0.059-0.46-0.131-0.672-0.212
	c-0.211-0.08-0.406-0.169-0.57-0.263l-3.219-1.849l-0.107,0.187l-0.556,0.024c-0.603,0.326-1.28,0.498-1.968,0.498
	c-0.551,0-1.108-0.111-1.639-0.345l-4.809-2.732l-39.824-22.875c-1.97-1.132-2.65-3.646-1.518-5.616l6.146-10.701l-4.488,0.299
	c-0.233,0.016-0.476,0.024-0.727,0.024c-2.621,0-6.121-0.827-8.411-1.998c-0.157-0.08-0.309-0.161-0.452-0.245l-4.914-2.822
	c-1.474-0.846-1.981-2.725-1.136-4.197l8.002-13.931C225.677,417.236,226.713,416.682,227.777,416.682 M227.777,410.775
	L227.777,410.775c-3.207,0-6.193,1.728-7.791,4.508l-8.001,13.932c-1.194,2.079-1.508,4.5-0.882,6.816
	c0.626,2.315,2.116,4.25,4.196,5.443l4.913,2.823c0.224,0.128,0.461,0.256,0.705,0.381c1.774,0.907,3.996,1.644,6.236,2.106
	l-1.188,2.07c-2.751,4.791-1.093,10.928,3.698,13.68l39.824,22.875l4.832,2.746l0.266,0.15l0.281,0.123
	c1.271,0.559,2.621,0.841,4.01,0.841c0.656,0,1.312-0.064,1.953-0.192l0.955,0.548c0.433,0.249,0.908,0.472,1.416,0.664
	c0.409,0.155,0.848,0.295,1.297,0.409c0.654,0.168,1.658,0.369,2.733,0.369l0.166-0.002l0.378-0.008l0.373-0.055l21.162-3.124
	c0.23-0.021,0.462-0.05,0.691-0.091c0.361-0.064,0.711-0.151,1.057-0.26c0.331-0.107,0.646-0.229,0.95-0.366
	c0.466-0.21,0.935-0.479,1.388-0.791c0.2-0.14,0.389-0.282,0.573-0.435c0.786-0.646,1.42-1.388,1.891-2.208l3.552-6.184
	c1.006-1.751,1.324-3.943,0.873-6.013l-0.039-0.184l-0.041-0.145c-0.119-0.457-0.277-0.9-0.472-1.323l-7.998-19.94l-0.141-0.35
	l-0.183-0.328c-0.344-0.615-0.787-1.23-1.316-1.828c-0.439-0.495-1.15-1.217-2.059-1.852c-0.226-0.158-0.463-0.311-0.699-0.446
	l-0.955-0.548c-0.586-1.691-1.618-3.215-3.008-4.385l-0.377-0.319l-0.426-0.251l-5.012-2.958l-0.029-0.019l-0.031-0.018
	l-39.824-22.874c-1.518-0.872-3.241-1.332-4.987-1.332c-3.579,0-6.909,1.927-8.692,5.03l-1.187,2.066
	c-1.517-1.69-3.261-3.23-4.962-4.321c-0.23-0.148-0.46-0.288-0.686-0.418l-4.914-2.822
	C230.888,411.188,229.343,410.775,227.777,410.775"/>
<path fill="#ABABAB" d="M308.687,482.002c0.757-0.014,1.677-0.559,2.054-1.215l1.775-3.092l-23.187-13.318l-3.073,5.351
	l21.403,12.294L308.687,482.002z"/>
<path fill="#010101" d="M284.727,484.504c0.656,0.378,1.803,0.672,2.56,0.658l20.373-3.141l-21.403-12.294l-6.762,11.772
	L284.727,484.504z"/>
<path fill="#878787" d="M314.292,474.604c0.377-0.657,0.384-1.725,0.015-2.386l-8.053-20.077c-0.369-0.662-1.201-1.504-1.858-1.881
	l-5.231-3.005l-9.834,17.122l23.186,13.318L314.292,474.604z"/>
<path fill="#231F20" d="M287.233,487.31c-1.142,0-2.612-0.388-3.578-0.943l-7.092-4.074l21.808-37.969l7.094,4.073
	c0.99,0.569,2.109,1.703,2.664,2.696l0.117,0.248l8.012,19.976c0.664,1.315,0.628,3.082-0.104,4.356l-3.552,6.183
	c-0.731,1.273-2.239,2.196-3.711,2.287L287.233,487.31z M282.427,480.707l3.368,1.935c0.293,0.168,0.951,0.345,1.351,0.37
	l21.499-3.158c0.039-0.012,0.204-0.109,0.259-0.176l3.526-6.144c0.009-0.039,0.01-0.231-0.02-0.313l-0.097-0.205l-7.989-19.917
	c-0.219-0.328-0.705-0.81-0.998-0.978l-3.369-1.935L282.427,480.707z"/>
<g opacity="0.6">
	<g>
		<defs>
			<rect id="SVGID_13_" x="223.609" y="420.18" width="23.98" height="21.24"/>
		</defs>
		<clipPath id="SVGID_14_">
			<use xlink:href="#SVGID_13_"  overflow="visible"/>
		</clipPath>
		<path clip-path="url(#SVGID_14_)" fill="#010101" d="M232.746,441.395l14.848-0.99l-6.625-13.325
			c-1.19-2.394-3.938-5.376-6.31-6.897l-11.051,19.239C226.118,440.703,230.078,441.573,232.746,441.395"/>
	</g>
</g>
<path fill="#878787" d="M225.108,418.226l-8.001,13.931c-0.846,1.473-0.338,3.352,1.134,4.197l4.914,2.822
	c0.146,0.084,0.296,0.165,0.453,0.245l11.051-19.239c-0.147-0.095-0.295-0.185-0.438-0.268l-4.914-2.823
	C227.833,416.246,225.954,416.754,225.108,418.226"/>
<path fill="#231F20" d="M232.018,443.565c-2.953,0-6.813-0.918-9.387-2.231c-0.189-0.098-0.371-0.195-0.544-0.295l-4.913-2.822
	c-2.498-1.436-3.363-4.633-1.929-7.131l8.001-13.93c0.928-1.617,2.665-2.622,4.531-2.622c0.908,0,1.808,0.24,2.599,0.695
	l4.913,2.822c0.174,0.098,0.354,0.209,0.535,0.325c2.732,1.754,5.708,5.013,7.066,7.746l8.061,16.209l-18.064,1.205
	C232.609,443.557,232.319,443.565,232.018,443.565 M227.777,418.829c-0.338,0-0.639,0.175-0.807,0.466l-8.002,13.931
	c-0.255,0.442-0.1,1.012,0.344,1.266l4.912,2.822c0.117,0.067,0.238,0.132,0.363,0.196c2.139,1.092,5.719,1.895,8.014,1.742
	l11.635-0.776l-5.19-10.44c-1.002-2.015-3.491-4.727-5.546-6.046c-0.119-0.077-0.232-0.146-0.345-0.211l-4.919-2.825
	C228.092,418.871,227.938,418.829,227.777,418.829"/>
<path fill="#010101" d="M276.838,482.82l-44.232-25.407c-1.971-1.132-2.649-3.646-1.519-5.616l18.031-31.391
	c1.132-1.97,3.646-2.65,5.616-1.518l44.232,25.406c1.971,1.131,2.65,3.646,1.519,5.616l-18.031,31.392
	C281.323,483.272,278.809,483.952,276.838,482.82"/>
<rect x="244.282" y="421.495" transform="matrix(0.8671 0.4981 -0.4981 0.8671 254.4992 -67.0818)" fill="#FFFFFF" width="17.417" height="44.021"/>
<path fill="#878787" d="M248.697,433.224l7.139-12.429l25.815,14.828c1.313,0.754,3.429-0.58,2.675,0.734l-6.07,10.682
	c-0.754,1.313-2.43,1.767-3.744,1.013L248.697,433.224z"/>
<polygon fill="#FFFFFF" points="281.4,482.842 276.277,483.063 272.187,480.713 294.803,441.338 299.132,443.824 301.285,448.225 
	"/>
<path fill="#231F20" d="M278.883,485.516c-1.09,0-2.166-0.289-3.113-0.834l-44.233-25.406c-1.45-0.833-2.489-2.182-2.926-3.795
	c-0.437-1.615-0.218-3.303,0.614-4.754l18.031-31.391c1.114-1.938,3.196-3.143,5.434-3.143c1.09,0,2.166,0.288,3.113,0.832
	l44.233,25.406c1.451,0.834,2.49,2.182,2.927,3.797c0.437,1.613,0.217,3.302-0.615,4.753l-18.03,31.39
	C283.203,484.311,281.121,485.516,278.883,485.516 M252.689,420.488c-0.704,0-1.359,0.378-1.709,0.988l-18.03,31.391
	c-0.263,0.455-0.33,0.984-0.194,1.492c0.137,0.507,0.463,0.93,0.918,1.191l44.234,25.407c0.922,0.528,2.164,0.183,2.684-0.726
	l18.031-31.392c0.262-0.456,0.33-0.984,0.193-1.491c-0.137-0.508-0.465-0.931-0.92-1.192l-44.231-25.407
	C253.362,420.576,253.034,420.488,252.689,420.488"/>
<rect x="256.841" y="422.792" transform="matrix(0.8608 0.509 -0.509 0.8608 253.9388 -71.7298)" fill="#231F20" width="2.485" height="11.03"/>
<rect x="261.446" y="425.394" transform="matrix(0.8609 0.5087 -0.5087 0.8609 255.7334 -73.7091)" fill="#231F20" width="2.484" height="11.03"/>
<rect x="266.052" y="427.996" transform="matrix(0.8609 0.5087 -0.5087 0.8609 257.6977 -75.6901)" fill="#231F20" width="2.484" height="11.03"/>
<rect x="270.657" y="430.599" transform="matrix(0.8609 0.5087 -0.5087 0.8609 259.662 -77.671)" fill="#231F20" width="2.484" height="11.03"/>
<rect x="275.262" y="433.201" transform="matrix(0.8609 0.5088 -0.5088 0.8609 261.6981 -79.6537)" fill="#231F20" width="2.485" height="11.03"/>
<path fill="#1A1A19" d="M262.854,368.933l0.086,0.001c1.123,0.013,1.822,0.273,1.979,0.363l65.507,37.82
	c0.847,0.489,2.062,2.593,2.062,3.572v75.641c0,0.979-1.215,3.082-2.063,3.572l-65.506,37.82c-0.156,0.09-0.854,0.35-1.977,0.364
	h-0.088c-1.168,0-1.898-0.27-2.062-0.364l-65.507-37.82c-0.849-0.49-2.063-2.593-2.063-3.572v-75.641
	c0-0.979,1.214-3.083,2.063-3.572l65.507-37.82C260.955,369.203,261.686,368.933,262.854,368.933 M262.854,360.652
	c-2.248,0-4.496,0.489-6.201,1.474l-65.506,37.819c-3.412,1.971-6.203,6.806-6.203,10.744v75.641c0,3.939,2.791,8.773,6.203,10.744
	l65.506,37.819c1.705,0.985,3.953,1.474,6.201,1.474c0.061,0,0.122,0,0.184-0.002c2.188-0.025,4.361-0.514,6.021-1.472
	l65.507-37.819c3.411-1.971,6.202-6.805,6.202-10.744v-75.641c0-3.938-2.791-8.773-6.202-10.744l-65.507-37.819
	c-1.659-0.958-3.833-1.446-6.021-1.472C262.976,360.652,262.914,360.652,262.854,360.652"/>
<g opacity="0.4">
	<g>
		<defs>
			<rect id="SVGID_15_" x="228.109" y="476.99" width="3.931" height="3.92"/>
		</defs>
		<clipPath id="SVGID_16_">
			<use xlink:href="#SVGID_15_"  overflow="visible"/>
		</clipPath>
		<path clip-path="url(#SVGID_16_)" fill="#FFFFFF" d="M231.872,478.162c0.434,0.993-0.019,2.148-1.011,2.583
			s-2.149-0.019-2.584-1.01c-0.435-0.993,0.019-2.15,1.012-2.585C230.281,476.717,231.438,477.169,231.872,478.162"/>
	</g>
</g>
<g opacity="0.4">
	<g>
		<defs>
			<rect id="SVGID_17_" x="210.689" y="459.4" width="8.621" height="8.619"/>
		</defs>
		<clipPath id="SVGID_18_">
			<use xlink:href="#SVGID_17_"  overflow="visible"/>
		</clipPath>
		<path clip-path="url(#SVGID_18_)" fill="#FFFFFF" d="M218.944,461.985c0.954,2.18-0.04,4.72-2.22,5.674
			c-2.181,0.954-4.721-0.04-5.676-2.22c-0.953-2.18,0.041-4.721,2.221-5.674C215.45,458.812,217.99,459.805,218.944,461.985"/>
	</g>
</g>
<g opacity="0.4">
	<g>
		<defs>
			<rect id="SVGID_19_" x="245.46" y="398.41" width="6.06" height="6.06"/>
		</defs>
		<clipPath id="SVGID_20_">
			<use xlink:href="#SVGID_19_"  overflow="visible"/>
		</clipPath>
		<path clip-path="url(#SVGID_20_)" fill="#FFFFFF" d="M251.264,400.223c0.67,1.531-0.028,3.317-1.561,3.988
			c-1.533,0.67-3.318-0.028-3.99-1.561c-0.67-1.532,0.029-3.318,1.562-3.989C248.807,397.991,250.594,398.69,251.264,400.223"/>
	</g>
</g>
<g opacity="0.4">
	<g>
		<defs>
			<rect id="SVGID_21_" x="269.9" y="394.4" width="8.619" height="8.62"/>
		</defs>
		<clipPath id="SVGID_22_">
			<use xlink:href="#SVGID_21_"  overflow="visible"/>
		</clipPath>
		<path clip-path="url(#SVGID_22_)" fill="#FFFFFF" d="M278.153,396.981c0.954,2.18-0.04,4.72-2.22,5.674
			c-2.181,0.954-4.721-0.04-5.674-2.22c-0.955-2.181,0.039-4.721,2.219-5.675C274.659,393.807,277.199,394.801,278.153,396.981"/>
	</g>
</g>
</svg>
