<?xml version="1.0" encoding="utf-8"?>
<!-- Generator: Adobe Illustrator 16.0.0, SVG Export Plug-In . SVG Version: 6.00 Build 0)  -->
<!DOCTYPE svg PUBLIC "-//W3C//DTD SVG 1.1//EN" "http://www.w3.org/Graphics/SVG/1.1/DTD/svg11.dtd">
<svg version="1.1" id="Layer_1" xmlns="http://www.w3.org/2000/svg" xmlns:xlink="http://www.w3.org/1999/xlink" x="0px" y="0px"
	 width="215px" height="195px" viewBox="0 0 215 195" enable-background="new 0 0 215 195" xml:space="preserve">
<path fill="#929497" d="M865.52-66.557"/>
<path fill="#929497" d="M-1276.484-66.557"/>
<path fill="#929497" d="M-1276.484-65.807"/>
<path fill="#929497" d="M865.52-65.807"/>
<path fill="#929497" d="M1187.52-65.557"/>
<path fill="#929497" d="M-954.484-65.557"/>
<path fill="#929497" d="M-954.484-64.807"/>
<path fill="#929497" d="M1187.52-64.807"/>
<path fill="none" d="M65.63-1567.76"/>
<path fill="none" d="M65.63,1677.837"/>
<path fill="#4A4A4A" d="M33.868,150.073l65.506,37.819c1.752,1.013,4.076,1.5,6.385,1.473c2.188-0.025,4.361-0.515,6.021-1.473
	l65.506-37.819c3.412-1.971,6.203-6.805,6.203-10.743V63.689c0-3.939-2.791-8.774-6.203-10.743L111.78,15.125
	c-1.66-0.958-3.834-1.446-6.021-1.472c-2.309-0.026-4.633,0.461-6.385,1.472L33.868,52.946c-3.412,1.969-6.203,6.804-6.203,10.743
	v75.641C27.665,143.27,30.456,148.104,33.868,150.073"/>
<g opacity="0.6">
	<g>
		<g>
			<defs>
				<rect id="SVGID_1_" x="105.692" y="15.02" width="77.25" height="173"/>
			</defs>
			<clipPath id="SVGID_2_">
				<use xlink:href="#SVGID_1_"  overflow="visible"/>
			</clipPath>
			<path clip-path="url(#SVGID_2_)" fill="#010101" d="M176.733,150.073c3.412-1.971,6.203-6.805,6.203-10.743V63.689
				c0-3.939-2.791-8.774-6.203-10.743l-65.506-37.821c-1.537-0.887-3.516,4.136-5.536,4.048v165.772
				c2.021-0.088,3.999,3.834,5.536,2.946L176.733,150.073z"/>
		</g>
	</g>
</g>
<g opacity="0.4">
	<g>
		<g>
			<defs>
				<rect id="SVGID_3_" x="27.661" y="13.65" width="155.831" height="175.72"/>
			</defs>
			<clipPath id="SVGID_4_">
				<use xlink:href="#SVGID_3_"  overflow="visible"/>
			</clipPath>
			<path clip-path="url(#SVGID_4_)" fill="#FFFFFF" d="M105.575,29.073l62.731,36.219v72.436l-62.731,36.221l-62.73-36.22V65.292
				L105.575,29.073 M105.575,13.652c-2.248,0-4.496,0.489-6.201,1.474l-65.506,37.82c-3.411,1.97-6.203,6.805-6.203,10.744v75.641
				c0,3.938,2.792,8.772,6.203,10.744l65.506,37.818c1.705,0.985,3.953,1.475,6.201,1.475c0.063,0,0.123,0,0.185-0.002
				c2.188-0.025,4.36-0.515,6.021-1.473l65.506-37.818c3.412-1.972,6.203-6.806,6.203-10.744V63.69
				c0-3.938-2.791-8.773-6.203-10.744l-65.506-37.82c-1.66-0.958-3.834-1.446-6.021-1.472
				C105.698,13.652,105.637,13.652,105.575,13.652"/>
		</g>
	</g>
</g>
<g>
	<g>
		<defs>
			<path id="SVGID_5_" d="M98.615,118.242c-7.953,24.393-3.99,49.809,8.688,69.947c1.798-0.156,3.528-0.638,4.899-1.438
				l64.449-37.717c1.721-1.009,3.275-2.766,4.381-4.759c1.045-1.889,1.688-3.991,1.678-5.886l-0.441-74.671
				c-0.005-0.843-0.139-1.726-0.382-2.612c-1.479-0.08-2.956-0.12-4.429-0.12C142.528,60.99,110.032,83.231,98.615,118.242"/>
		</defs>
		<clipPath id="SVGID_6_">
			<use xlink:href="#SVGID_5_"  overflow="visible"/>
		</clipPath>
		<path clip-path="url(#SVGID_6_)" fill="#C8C7C7" d="M151.761,222.818c-43.555-14.203-67.348-61.023-53.146-104.577
			c14.203-43.554,61.022-67.348,104.577-53.146c43.555,14.203,67.348,61.024,53.146,104.577
			C242.134,213.227,195.313,237.021,151.761,222.818"/>
	</g>
	<g>
		<defs>
			<path id="SVGID_7_" d="M98.615,118.242c-7.953,24.393-3.99,49.809,8.688,69.947c1.798-0.156,3.528-0.638,4.899-1.438
				l64.449-37.717c1.721-1.009,3.275-2.766,4.381-4.759c1.045-1.889,1.688-3.991,1.678-5.886l-0.441-74.671
				c-0.005-0.843-0.139-1.726-0.382-2.612c-1.479-0.08-2.956-0.12-4.429-0.12C142.528,60.99,110.032,83.231,98.615,118.242"/>
		</defs>
		<clipPath id="SVGID_8_">
			<use xlink:href="#SVGID_7_"  overflow="visible"/>
		</clipPath>
		<polygon clip-path="url(#SVGID_8_)" fill="#9B9C9C" points="259.862,157.763 249.161,159.362 248.675,151.933 253.189,140.316 
			247.889,132.045 246.245,148.232 232.472,148.104 235.473,138.902 234.344,133.444 234.173,107.212 223.872,103.125 
			223.628,99.411 236.944,96.481 233.372,85.138 227.887,81.894 224.229,90.881 219.6,85.009 209.083,81.58 205.196,89.038 
			205.025,96.253 185.694,115.398 171.478,114.398 162.833,129.758 150.774,124.371 150.489,114.098 141.688,105.41 142.474,91.852 
			133.03,85.137 130.114,74.007 109.312,68.677 114.669,52.246 145.132,63.634 161.805,72.707 168.378,74.85 182.966,65.792 
			195.467,72.05 203.825,79.864 210.798,76.321 219.342,79.107 222.6,75.808 229.13,71.393 248.618,76.293 274.536,94.925 		"/>
	</g>
	<g>
		<defs>
			<path id="SVGID_9_" d="M98.615,118.242c-7.953,24.393-3.99,49.809,8.688,69.947c1.798-0.156,3.528-0.638,4.899-1.438
				l64.449-37.717c1.721-1.009,3.275-2.766,4.381-4.759c1.045-1.889,1.688-3.991,1.678-5.886l-0.441-74.671
				c-0.005-0.843-0.139-1.726-0.382-2.612c-1.479-0.08-2.956-0.12-4.429-0.12C142.528,60.99,110.032,83.231,98.615,118.242"/>
		</defs>
		<clipPath id="SVGID_10_">
			<use xlink:href="#SVGID_9_"  overflow="visible"/>
		</clipPath>
		<polygon clip-path="url(#SVGID_10_)" fill="#9B9C9C" points="235.887,202.297 227.3,192.953 222.698,191.453 213.583,201.568 
			201.753,197.711 204.925,181.295 197.081,185.28 191.68,195.153 196.523,200.368 186.093,210.056 174.405,228.058 
			224.099,238.445 		"/>
	</g>
	<g>
		<defs>
			<path id="SVGID_11_" d="M98.615,118.242c-7.953,24.393-3.99,49.809,8.688,69.947c1.798-0.156,3.528-0.638,4.899-1.438
				l64.449-37.717c1.721-1.009,3.275-2.766,4.381-4.759c1.045-1.889,1.688-3.991,1.678-5.886l-0.441-74.671
				c-0.005-0.843-0.139-1.726-0.382-2.612c-1.479-0.08-2.956-0.12-4.429-0.12C142.528,60.99,110.032,83.231,98.615,118.242"/>
		</defs>
		<clipPath id="SVGID_12_">
			<use xlink:href="#SVGID_11_"  overflow="visible"/>
		</clipPath>
		<polygon clip-path="url(#SVGID_12_)" fill="#9B9C9C" points="165.647,225.929 172.091,208.398 184.064,200.668 188.122,185.995 
			185.222,177.05 184.522,170.278 164.548,157.948 148.646,166.577 143.272,180.822 134.558,185.251 129.472,176.321 
			116.583,177.936 109.526,168.363 100.11,166.02 79.035,152.604 64.604,185.708 145.958,223.871 		"/>
	</g>
	<g>
		<defs>
			<path id="SVGID_13_" d="M98.615,118.242c-7.953,24.393-3.99,49.809,8.688,69.947c1.798-0.156,3.528-0.638,4.899-1.438
				l64.449-37.717c1.721-1.009,3.275-2.766,4.381-4.759c1.045-1.889,1.688-3.991,1.678-5.886l-0.441-74.671
				c-0.005-0.843-0.139-1.726-0.382-2.612c-1.479-0.08-2.956-0.12-4.429-0.12C142.528,60.99,110.032,83.231,98.615,118.242"/>
		</defs>
		<clipPath id="SVGID_14_">
			<use xlink:href="#SVGID_13_"  overflow="visible"/>
		</clipPath>
		<polygon clip-path="url(#SVGID_14_)" fill="#9B9C9C" points="242.923,168.284 229.077,157.225 222.091,158.582 226.077,166.427 
			230.993,182.572 		"/>
	</g>
	<g>
		<defs>
			<path id="SVGID_15_" d="M98.615,118.242c-7.953,24.393-3.99,49.809,8.688,69.947c1.798-0.156,3.528-0.638,4.899-1.438
				l64.449-37.717c1.721-1.009,3.275-2.766,4.381-4.759c1.045-1.889,1.688-3.991,1.678-5.886l-0.441-74.671
				c-0.005-0.843-0.139-1.726-0.382-2.612c-1.479-0.08-2.956-0.12-4.429-0.12C142.528,60.99,110.032,83.231,98.615,118.242"/>
		</defs>
		<clipPath id="SVGID_16_">
			<use xlink:href="#SVGID_15_"  overflow="visible"/>
		</clipPath>
		<polygon clip-path="url(#SVGID_16_)" fill="#9B9C9C" points="214.102,184.74 219.958,189.073 212.996,194.074 208.167,191.046 		
			"/>
	</g>
	<g>
		<defs>
			<path id="SVGID_17_" d="M98.615,118.242c-7.953,24.393-3.99,49.809,8.688,69.947c1.798-0.156,3.528-0.638,4.899-1.438
				l64.449-37.717c1.721-1.009,3.275-2.766,4.381-4.759c1.045-1.889,1.688-3.991,1.678-5.886l-0.441-74.671
				c-0.005-0.843-0.139-1.726-0.382-2.612c-1.479-0.08-2.956-0.12-4.429-0.12C142.528,60.99,110.032,83.231,98.615,118.242"/>
		</defs>
		<clipPath id="SVGID_18_">
			<use xlink:href="#SVGID_17_"  overflow="visible"/>
		</clipPath>
		<polygon clip-path="url(#SVGID_18_)" fill="#9B9C9C" points="261.423,209.229 250.501,214.367 247.601,206.584 248.703,192.725 
			240.388,185.583 243.819,203.408 229.06,207.684 229.317,196.891 226.363,191.42 217.774,163.444 205.456,162.378 
			204.006,158.487 217.297,151.09 209.845,140.112 202.942,138.405 201.914,149.18 195.086,144.389 182.749,144.094 
			180.987,153.309 183.116,161.074 168.595,187.727 153.083,191.214 148.769,210.396 134.157,208.505 130.56,197.619 
			118.37,191.156 114.866,176.416 102.622,172.268 95.94,161.307 72.003,162.279 72.464,143.004 108.663,145.411 129.388,149.764 
			137.097,149.947 149.782,135.594 165.147,138.274 176.581,143.947 182.897,137.926 192.92,138.165 195.343,133.594 
			200.906,126.785 223.302,125.776 256.968,137.38 		"/>
	</g>
</g>
<g>
	<g>
		<defs>
			<path id="SVGID_19_" d="M98.949,16.269L34.505,53.987c-1.634,0.955-3.114,2.581-4.204,4.443
				c-1.152,1.967-1.869,4.198-1.855,6.197l0.438,74.671c0.024,3.888,2.807,8.645,6.187,10.569l64.887,36.954
				c3.379,1.925,8.89,1.892,12.246-0.072l64.449-37.717c1.723-1.009,3.275-2.766,4.381-4.759c1.045-1.89,1.688-3.991,1.678-5.886
				l-0.44-74.671c-0.022-3.887-2.806-8.645-6.185-10.566l-64.889-36.955c-1.666-0.95-3.854-1.423-6.043-1.423
				C102.903,14.775,100.649,15.274,98.949,16.269"/>
		</defs>
		<clipPath id="SVGID_20_">
			<use xlink:href="#SVGID_19_"  overflow="visible"/>
		</clipPath>
		<path clip-path="url(#SVGID_20_)" fill="#C8C7C7" d="M203.192,65.097c-8.543-2.785-17.205-4.108-25.727-4.108v7.355
			c7.934,0,15.821,1.261,23.445,3.747c9.704,3.165,18.496,8.133,26.131,14.767c7.377,6.409,13.373,14.099,17.821,22.854
			c4.449,8.755,7.126,18.132,7.955,27.868c0.857,10.077-0.313,20.106-3.477,29.813c-5.045,15.469-14.688,28.626-27.886,38.05
			c-6.356,4.54-13.349,8.061-20.778,10.464c-7.52,2.433-15.319,3.665-23.187,3.665c-7.938,0-15.828-1.261-23.451-3.747
			c-9.705-3.165-18.497-8.133-26.131-14.767c-7.377-6.408-13.373-14.099-17.823-22.854c-4.449-8.756-7.125-18.132-7.953-27.869
			c-0.858-10.076,0.312-20.107,3.476-29.813c5.045-15.468,14.688-28.624,27.887-38.049c6.356-4.539,13.348-8.059,20.779-10.463
			c7.519-2.433,15.317-3.666,23.186-3.667l0.006-7.355h-0.006c-34.93,0.002-67.428,22.244-78.845,57.254
			c-14.202,43.554,9.591,90.374,53.146,104.577c8.543,2.786,17.207,4.108,25.73,4.108c34.932,0,67.429-22.244,78.846-57.254
			C270.539,126.119,246.746,79.3,203.192,65.097"/>
	</g>
	<g>
		<defs>
			<path id="SVGID_21_" d="M98.949,16.269L34.505,53.987c-1.634,0.955-3.114,2.581-4.204,4.443
				c-1.152,1.967-1.869,4.198-1.855,6.197l0.438,74.671c0.024,3.888,2.807,8.645,6.187,10.569l64.887,36.954
				c3.379,1.925,8.89,1.892,12.246-0.072l64.449-37.717c1.723-1.009,3.275-2.766,4.381-4.759c1.045-1.89,1.688-3.991,1.678-5.886
				l-0.44-74.671c-0.022-3.887-2.806-8.645-6.185-10.566l-64.889-36.955c-1.666-0.95-3.854-1.423-6.043-1.423
				C102.903,14.775,100.649,15.274,98.949,16.269"/>
		</defs>
		<clipPath id="SVGID_22_">
			<use xlink:href="#SVGID_21_"  overflow="visible"/>
		</clipPath>
		<path clip-path="url(#SVGID_22_)" fill="#231F20" d="M177.46,60.987c8.523-0.001,17.188,1.322,25.731,4.109
			c43.555,14.202,67.348,61.022,53.146,104.576c-11.417,35.01-43.915,57.254-78.846,57.254c-8.523,0-17.188-1.323-25.73-4.108
			c-43.555-14.203-67.349-61.023-53.146-104.577C110.032,83.231,142.53,60.989,177.46,60.987 M177.466,56.232h-0.006
			c-18.355,0.001-35.992,5.667-51.004,16.385c-15.318,10.938-26.51,26.204-32.361,44.149c-7.263,22.271-5.418,46.039,5.195,66.924
			c10.613,20.884,28.725,36.386,50.996,43.646c8.838,2.883,17.992,4.345,27.205,4.345c18.354,0,35.991-5.665,51.004-16.384
			c15.317-10.938,26.51-26.205,32.36-44.15c14.994-45.977-10.213-95.578-56.189-110.571
			C195.827,57.694,186.675,56.232,177.466,56.232"/>
	</g>
	<g>
		<defs>
			<path id="SVGID_23_" d="M98.949,16.269L34.505,53.987c-1.634,0.955-3.114,2.581-4.204,4.443
				c-1.152,1.967-1.869,4.198-1.855,6.197l0.438,74.671c0.024,3.888,2.807,8.645,6.187,10.569l64.887,36.954
				c3.379,1.925,8.89,1.892,12.246-0.072l64.449-37.717c1.723-1.009,3.275-2.766,4.381-4.759c1.045-1.89,1.688-3.991,1.678-5.886
				l-0.44-74.671c-0.022-3.887-2.806-8.645-6.185-10.566l-64.889-36.955c-1.666-0.95-3.854-1.423-6.043-1.423
				C102.903,14.775,100.649,15.274,98.949,16.269"/>
		</defs>
		<clipPath id="SVGID_24_">
			<use xlink:href="#SVGID_23_"  overflow="visible"/>
		</clipPath>
		<g clip-path="url(#SVGID_24_)">
			<g>
				<g opacity="0.9">
					<defs>
						<rect id="SVGID_25_" x="64.742" y="52.25" opacity="0.9" width="209.931" height="186.2"/>
					</defs>
					<defs>
						<rect id="SVGID_26_" x="64.742" y="52.25" opacity="0.9" width="209.931" height="186.2"/>
					</defs>
					<clipPath id="SVGID_27_">
						<use xlink:href="#SVGID_25_"  overflow="visible"/>
					</clipPath>
					<clipPath id="SVGID_28_" clip-path="url(#SVGID_27_)">
						<use xlink:href="#SVGID_26_"  overflow="visible"/>
					</clipPath>
					<path clip-path="url(#SVGID_28_)" fill="#66CDF4" d="M151.896,222.818c-43.554-14.203-67.347-61.023-53.146-104.577
						c14.204-43.554,61.024-67.348,104.579-53.146c43.553,14.203,67.348,61.024,53.145,104.577
						C242.271,213.227,195.45,237.021,151.896,222.818"/>
					<g clip-path="url(#SVGID_28_)">
						<g>
							<defs>
								<path id="SVGID_29_" d="M151.896,222.818c-43.553-14.203-67.347-61.023-53.146-104.577
									c14.204-43.554,61.026-67.348,104.579-53.146c43.554,14.203,67.348,61.024,53.145,104.577
									C242.271,213.227,195.45,237.021,151.896,222.818"/>
							</defs>
							<defs>
								<path id="SVGID_30_" d="M151.896,222.818c-43.553-14.203-67.347-61.023-53.146-104.577
									c14.204-43.554,61.026-67.348,104.579-53.146c43.554,14.203,67.348,61.024,53.145,104.577
									C242.271,213.227,195.45,237.021,151.896,222.818"/>
							</defs>
							<defs>
								<path id="SVGID_31_" d="M151.896,222.818c-43.553-14.203-67.347-61.023-53.146-104.577
									c14.204-43.554,61.026-67.348,104.579-53.146c43.554,14.203,67.348,61.024,53.145,104.577
									C242.271,213.227,195.45,237.021,151.896,222.818"/>
							</defs>
							<defs>
								<path id="SVGID_32_" d="M151.896,222.818c-43.553-14.203-67.347-61.023-53.146-104.577
									c14.204-43.554,61.026-67.348,104.579-53.146c43.554,14.203,67.348,61.024,53.145,104.577
									C242.271,213.227,195.45,237.021,151.896,222.818"/>
							</defs>
							<defs>
								<path id="SVGID_33_" d="M151.896,222.818c-43.553-14.203-67.347-61.023-53.146-104.577
									c14.204-43.554,61.026-67.348,104.579-53.146c43.554,14.203,67.348,61.024,53.145,104.577
									C242.271,213.227,195.45,237.021,151.896,222.818"/>
							</defs>
							<defs>
								<path id="SVGID_34_" d="M151.896,222.818c-43.553-14.203-67.347-61.023-53.146-104.577
									c14.204-43.554,61.026-67.348,104.579-53.146c43.554,14.203,67.348,61.024,53.145,104.577
									C242.271,213.227,195.45,237.021,151.896,222.818"/>
							</defs>
							<defs>
								<path id="SVGID_35_" d="M151.896,222.818c-43.553-14.203-67.347-61.023-53.146-104.577
									c14.204-43.554,61.026-67.348,104.579-53.146c43.554,14.203,67.348,61.024,53.145,104.577
									C242.271,213.227,195.45,237.021,151.896,222.818"/>
							</defs>
							<clipPath id="SVGID_36_">
								<use xlink:href="#SVGID_29_"  overflow="visible"/>
							</clipPath>
							<clipPath id="SVGID_37_" clip-path="url(#SVGID_36_)">
								<use xlink:href="#SVGID_30_"  overflow="visible"/>
							</clipPath>
							<clipPath id="SVGID_38_" clip-path="url(#SVGID_37_)">
								<use xlink:href="#SVGID_31_"  overflow="visible"/>
							</clipPath>
							<clipPath id="SVGID_39_" clip-path="url(#SVGID_38_)">
								<use xlink:href="#SVGID_32_"  overflow="visible"/>
							</clipPath>
							<clipPath id="SVGID_40_" clip-path="url(#SVGID_39_)">
								<use xlink:href="#SVGID_33_"  overflow="visible"/>
							</clipPath>
							<clipPath id="SVGID_41_" clip-path="url(#SVGID_40_)">
								<use xlink:href="#SVGID_34_"  overflow="visible"/>
							</clipPath>
							<clipPath id="SVGID_42_" clip-path="url(#SVGID_41_)">
								<use xlink:href="#SVGID_35_"  overflow="visible"/>
							</clipPath>
							<path clip-path="url(#SVGID_42_)" fill="#66CDF4" d="M151.896,222.818c-43.554-14.203-67.347-61.023-53.146-104.577
								c14.204-43.554,61.024-67.348,104.579-53.146c43.553,14.203,67.348,61.024,53.145,104.577
								C242.271,213.227,195.45,237.021,151.896,222.818"/>
							<polygon clip-path="url(#SVGID_42_)" fill="#66CDF4" points="259.999,157.763 249.296,159.362 248.812,151.933 
								253.325,140.316 248.025,132.045 246.382,148.232 232.608,148.104 235.609,138.902 234.48,133.444 234.31,107.212 
								224.009,103.125 223.765,99.411 237.081,96.481 233.509,85.138 228.022,81.894 224.365,90.881 219.736,85.009 209.22,81.58 
								205.333,89.038 205.162,96.253 185.831,115.398 171.614,114.398 162.97,129.758 150.911,124.371 150.626,114.098 
								141.825,105.41 142.61,91.852 133.165,85.137 130.251,74.007 109.448,68.677 114.806,52.246 145.269,63.634 161.942,72.707 
								168.515,74.85 183.103,65.792 195.604,72.05 203.962,79.864 210.935,76.321 219.479,79.107 222.736,75.808 229.267,71.393 
								248.755,76.293 274.673,94.925 							"/>
							<polygon clip-path="url(#SVGID_42_)" fill="#66CDF4" points="236.023,202.297 227.437,192.953 222.835,191.453 
								213.72,201.568 201.89,197.711 205.062,181.295 197.218,185.28 191.816,195.153 196.659,200.368 186.229,210.056 
								174.542,228.058 224.235,238.445 							"/>
							<polygon clip-path="url(#SVGID_42_)" fill="#66CDF4" points="165.784,225.929 172.228,208.398 184.2,200.668 
								188.259,185.995 185.358,177.05 184.659,170.278 164.685,157.948 148.782,166.577 143.409,180.822 134.694,185.251 
								129.608,176.321 116.72,177.936 109.661,168.363 100.245,166.02 79.172,152.604 64.742,185.708 146.096,223.871 							"/>
							<polygon clip-path="url(#SVGID_42_)" fill="#66CDF4" points="243.06,168.284 229.214,157.225 222.228,158.582 
								226.214,166.427 231.128,182.572 							"/>
							<polygon clip-path="url(#SVGID_42_)" fill="#66CDF4" points="214.238,184.74 220.095,189.073 213.133,194.074 
								208.304,191.046 							"/>
							<polygon clip-path="url(#SVGID_42_)" fill="#66CDF4" points="261.56,209.229 250.638,214.367 247.737,206.584 
								248.84,192.725 240.524,185.583 243.956,203.408 229.196,207.684 229.454,196.891 226.5,191.42 217.911,163.444 
								205.593,162.378 204.143,158.487 217.434,151.09 209.981,140.112 203.079,138.405 202.051,149.18 195.223,144.389 
								182.887,144.094 181.124,153.309 183.253,161.074 168.731,187.727 153.22,191.214 148.905,210.396 134.292,208.505 
								130.696,197.619 118.507,191.156 115.001,176.416 102.759,172.268 96.077,161.307 72.14,162.279 72.6,143.004 108.8,145.411 
								129.524,149.764 137.233,149.947 149.919,135.594 165.284,138.274 176.719,143.947 183.034,137.926 193.057,138.165 
								195.479,133.594 201.043,126.785 223.438,125.776 257.103,137.38 							"/>
						</g>
					</g>
				</g>
				<g>
					<defs>
						<path id="SVGID_43_" d="M143.884,23.673l-74.671,0.185c-1.893,0.003-3.99,0.664-5.869,1.726
							c-1.985,1.12-3.727,2.688-4.721,4.423L21.442,94.765c-1.935,3.373-1.922,8.884,0.031,12.247l37.494,64.578
							c1.953,3.363,6.732,6.106,10.621,6.097l74.675-0.181c1.997-0.005,4.223-0.742,6.181-1.909c1.853-1.107,3.466-2.601,4.41-4.242
							l37.18-64.76c1.936-3.371,1.923-8.884-0.031-12.244l-37.495-64.579c-0.963-1.659-2.615-3.168-4.508-4.27
							C148.054,24.371,145.854,23.668,143.884,23.673"/>
					</defs>
					<clipPath id="SVGID_44_">
						<use xlink:href="#SVGID_43_"  overflow="visible"/>
					</clipPath>
					
						<rect x="9.659" y="100.645" transform="matrix(-0.8643 -0.503 0.503 -0.8643 148.8673 246.6319)" clip-path="url(#SVGID_44_)" fill="#FFFFFF" width="196.092" height="5.177"/>
				</g>
			</g>
			<path fill="#1A1A19" d="M105.575,21.933l0.086,0.001c1.123,0.013,1.822,0.273,1.979,0.363l65.507,37.82
				c0.848,0.49,2.063,2.593,2.063,3.573v75.641c0,0.979-1.215,3.082-2.063,3.572l-65.506,37.819
				c-0.155,0.091-0.854,0.351-1.978,0.364h-0.088c-1.168,0-1.897-0.27-2.062-0.364l-65.507-37.819
				c-0.849-0.49-2.063-2.594-2.063-3.572V63.69c0-0.979,1.214-3.083,2.063-3.573l65.507-37.82
				C103.677,22.203,104.407,21.933,105.575,21.933 M105.575,13.652c-2.248,0-4.496,0.489-6.201,1.474l-65.505,37.82
				c-3.412,1.97-6.203,6.805-6.203,10.744v75.641c0,3.938,2.791,8.772,6.203,10.744l65.505,37.818
				c1.705,0.985,3.953,1.475,6.201,1.475c0.062,0,0.123,0,0.185-0.002c2.188-0.025,4.36-0.515,6.021-1.473l65.508-37.818
				c3.41-1.972,6.201-6.806,6.201-10.744V63.69c0-3.938-2.791-8.773-6.201-10.744l-65.508-37.82
				c-1.658-0.958-3.832-1.446-6.021-1.472C105.698,13.652,105.636,13.652,105.575,13.652"/>
			<path fill="#FFFFFF" d="M70.499,69.682c0.52,0,1.045,0.133,1.528,0.409l4.914,2.823c0.146,0.083,0.291,0.173,0.438,0.268
				c2.373,1.521,5.119,4.504,6.31,6.897l2.003,4.028l6.146-10.702c0.762-1.324,2.146-2.065,3.571-2.065
				c0.695,0,1.399,0.176,2.046,0.547l39.824,22.875l5.012,2.958c0.896,0.756,1.406,1.843,1.455,2.974l0.261,0.53l-0.107,0.187
				l3.22,1.85c0.082,0.047,0.166,0.103,0.252,0.162c0.346,0.242,0.715,0.579,1.027,0.932c0.235,0.267,0.438,0.538,0.577,0.786
				l8.054,20.077c0.014,0.027,0.024,0.059,0.037,0.086c0.063,0.13,0.116,0.271,0.153,0.424c0.006,0.021,0.013,0.041,0.017,0.063
				c0.133,0.607,0.059,1.325-0.224,1.813l-3.551,6.185c-0.123,0.214-0.308,0.412-0.521,0.588c-0.061,0.049-0.121,0.097-0.188,0.142
				c-0.146,0.104-0.303,0.194-0.463,0.268c-0.1,0.045-0.197,0.084-0.297,0.115c-0.101,0.03-0.199,0.057-0.297,0.073
				c-0.099,0.018-0.195,0.027-0.291,0.029l-21.398,3.158c-0.02,0.002-0.037,0.002-0.057,0.002c-0.369,0-0.82-0.069-1.263-0.184
				c-0.231-0.059-0.46-0.131-0.672-0.212c-0.211-0.08-0.405-0.169-0.569-0.263l-3.22-1.849l-0.106,0.187l-0.557,0.024
				c-0.603,0.326-1.279,0.498-1.968,0.498c-0.551,0-1.108-0.111-1.64-0.346l-4.809-2.731l-39.824-22.875
				c-1.97-1.132-2.65-3.646-1.518-5.616l6.146-10.701l-4.488,0.299c-0.233,0.017-0.476,0.024-0.727,0.024
				c-2.621,0-6.121-0.827-8.411-1.998c-0.157-0.08-0.309-0.161-0.452-0.245l-4.914-2.822c-1.474-0.846-1.981-2.725-1.136-4.197
				l8.002-13.931C68.398,70.236,69.435,69.682,70.499,69.682 M70.499,63.775L70.499,63.775c-3.207,0-6.193,1.728-7.791,4.508
				l-8.001,13.931c-1.194,2.079-1.508,4.5-0.882,6.816c0.626,2.315,2.116,4.25,4.196,5.443l4.913,2.823
				c0.224,0.128,0.461,0.256,0.705,0.381c1.774,0.907,3.996,1.644,6.236,2.106l-1.188,2.071c-2.751,4.791-1.093,10.928,3.698,13.68
				l39.823,22.875l4.832,2.746l0.267,0.149l0.281,0.123c1.271,0.56,2.62,0.841,4.01,0.841c0.656,0,1.312-0.063,1.953-0.191
				l0.955,0.548c0.433,0.249,0.907,0.472,1.416,0.664c0.409,0.155,0.848,0.295,1.297,0.409c0.653,0.168,1.657,0.369,2.733,0.369
				l0.166-0.002l0.377-0.009l0.373-0.055l21.162-3.124c0.23-0.021,0.463-0.05,0.691-0.091c0.361-0.064,0.711-0.151,1.057-0.26
				c0.332-0.107,0.646-0.229,0.95-0.366c0.466-0.21,0.935-0.479,1.388-0.791c0.201-0.14,0.39-0.282,0.573-0.436
				c0.786-0.646,1.421-1.388,1.892-2.208l3.552-6.184c1.006-1.751,1.323-3.943,0.873-6.013l-0.039-0.185l-0.041-0.145
				c-0.119-0.457-0.277-0.9-0.472-1.323l-7.998-19.939l-0.142-0.351l-0.183-0.328c-0.344-0.614-0.787-1.229-1.316-1.828
				c-0.439-0.494-1.15-1.217-2.059-1.852c-0.227-0.158-0.463-0.312-0.699-0.446l-0.955-0.548c-0.586-1.69-1.617-3.215-3.008-4.385
				l-0.377-0.319l-0.426-0.251l-5.012-2.958l-0.029-0.018l-0.031-0.019l-39.824-22.874c-1.518-0.872-3.241-1.332-4.987-1.332
				c-3.579,0-6.909,1.928-8.692,5.03l-1.187,2.067c-1.517-1.691-3.261-3.231-4.962-4.322c-0.23-0.148-0.46-0.288-0.686-0.418
				l-4.914-2.822C73.61,64.188,72.064,63.775,70.499,63.775"/>
			<path fill="#ABABAB" d="M151.409,135.002c0.756-0.014,1.677-0.559,2.054-1.215l1.774-3.092l-23.187-13.318l-3.073,5.352
				l21.403,12.294L151.409,135.002z"/>
			<path fill="#010101" d="M127.448,137.504c0.656,0.378,1.803,0.672,2.561,0.658l20.373-3.141l-21.403-12.295l-6.762,11.772
				L127.448,137.504z"/>
			<path fill="#878787" d="M157.014,127.604c0.377-0.656,0.384-1.725,0.015-2.386l-8.053-20.077
				c-0.369-0.661-1.201-1.504-1.857-1.881l-5.231-3.005l-9.834,17.122l23.187,13.318L157.014,127.604z"/>
			<path fill="#231F20" d="M129.954,140.31c-1.142,0-2.611-0.388-3.578-0.942l-7.092-4.074l21.809-37.969l7.094,4.073
				c0.99,0.568,2.109,1.702,2.664,2.695l0.117,0.248l8.012,19.977c0.664,1.314,0.628,3.082-0.104,4.355l-3.553,6.184
				c-0.73,1.272-2.238,2.195-3.711,2.286L129.954,140.31z M125.148,133.707l3.368,1.935c0.293,0.168,0.951,0.346,1.352,0.37
				l21.498-3.158c0.039-0.012,0.205-0.108,0.26-0.176l3.525-6.144c0.01-0.039,0.01-0.231-0.02-0.313l-0.098-0.205l-7.988-19.917
				c-0.219-0.327-0.705-0.81-0.998-0.978l-3.369-1.936L125.148,133.707z"/>
			<g opacity="0.6">
				<g>
					<g>
						<defs>
							<rect id="SVGID_45_" x="66.331" y="73.18" width="23.98" height="21.24"/>
						</defs>
						<clipPath id="SVGID_46_">
							<use xlink:href="#SVGID_45_"  overflow="visible"/>
						</clipPath>
						<path clip-path="url(#SVGID_46_)" fill="#010101" d="M75.468,94.395l14.848-0.99L83.69,80.079
							c-1.19-2.395-3.938-5.376-6.31-6.898L66.33,92.421C68.84,93.703,72.8,94.573,75.468,94.395"/>
					</g>
				</g>
			</g>
			<path fill="#878787" d="M67.83,71.226l-8.001,13.931c-0.846,1.473-0.338,3.352,1.134,4.197l4.914,2.822
				c0.146,0.084,0.296,0.165,0.453,0.245l11.051-19.239c-0.147-0.095-0.295-0.185-0.438-0.268l-4.914-2.823
				C70.555,69.246,68.676,69.754,67.83,71.226"/>
			<path fill="#231F20" d="M74.74,96.565c-2.953,0-6.813-0.918-9.387-2.232c-0.189-0.097-0.371-0.195-0.544-0.295l-4.913-2.822
				c-2.498-1.436-3.363-4.633-1.929-7.13l8.001-13.93c0.928-1.618,2.665-2.622,4.531-2.622c0.908,0,1.808,0.24,2.599,0.694
				l4.913,2.822c0.174,0.099,0.354,0.209,0.535,0.326c2.732,1.753,5.708,5.012,7.066,7.745l8.061,16.21l-18.064,1.205
				C75.331,96.557,75.041,96.565,74.74,96.565 M70.499,71.829c-0.338,0-0.639,0.174-0.807,0.466l-8.002,13.93
				c-0.255,0.443-0.1,1.013,0.344,1.267l4.912,2.821c0.117,0.067,0.238,0.133,0.363,0.196c2.139,1.092,5.719,1.896,8.014,1.742
				l11.635-0.776l-5.19-10.439c-1.002-2.016-3.491-4.728-5.546-6.046c-0.119-0.077-0.232-0.146-0.345-0.211l-4.919-2.825
				C70.813,71.872,70.66,71.829,70.499,71.829"/>
			<path fill="#010101" d="M119.56,135.82l-44.232-25.407c-1.971-1.132-2.649-3.646-1.519-5.616L91.84,73.406
				c1.132-1.971,3.646-2.65,5.616-1.519l44.232,25.407c1.972,1.131,2.65,3.646,1.519,5.616l-18.03,31.392
				C124.045,136.272,121.53,136.952,119.56,135.82"/>
			
				<rect x="86.972" y="74.492" transform="matrix(-0.8671 -0.4981 0.4981 -0.8671 130.5734 227.841)" fill="#FFFFFF" width="17.417" height="44.02"/>
			<path fill="#878787" d="M91.418,86.224l7.139-12.429l25.814,14.828c1.313,0.754,3.43-0.579,2.676,0.735l-6.07,10.682
				c-0.754,1.313-2.43,1.767-3.744,1.013L91.418,86.224z"/>
			<polygon fill="#FFFFFF" points="124.122,135.842 118.999,136.063 114.909,133.713 137.524,94.338 141.854,96.824 
				144.007,101.225 			"/>
			<path fill="#231F20" d="M121.604,138.516c-1.09,0-2.166-0.289-3.113-0.834l-44.232-25.405c-1.45-0.833-2.489-2.183-2.926-3.796
				c-0.437-1.614-0.218-3.303,0.614-4.754l18.031-31.391c1.114-1.938,3.196-3.143,5.434-3.143c1.09,0,2.166,0.287,3.113,0.832
				l44.233,25.406c1.45,0.833,2.489,2.182,2.927,3.796c0.438,1.613,0.217,3.303-0.615,4.753l-18.029,31.391
				C125.925,137.311,123.843,138.516,121.604,138.516 M95.411,73.488c-0.704,0-1.359,0.378-1.709,0.987l-18.03,31.392
				c-0.263,0.455-0.33,0.983-0.194,1.492c0.137,0.507,0.463,0.93,0.918,1.19l44.234,25.407c0.922,0.528,2.164,0.183,2.684-0.726
				l18.031-31.393c0.262-0.456,0.33-0.983,0.193-1.491s-0.465-0.931-0.92-1.191L96.387,73.749
				C96.083,73.576,95.756,73.488,95.411,73.488"/>
			
				<rect x="99.582" y="75.786" transform="matrix(-0.8606 -0.5093 0.5093 -0.8606 146.189 202.6147)" fill="#231F20" width="2.485" height="11.028"/>
			
				<rect x="104.156" y="78.378" transform="matrix(-0.8611 -0.5084 0.5084 -0.8611 153.5045 209.7198)" fill="#231F20" width="2.484" height="11.03"/>
			
				<rect x="108.761" y="80.98" transform="matrix(-0.8609 -0.5087 0.5087 -0.8609 160.7088 216.9212)" fill="#231F20" width="2.484" height="11.03"/>
			
				<rect x="113.366" y="83.583" transform="matrix(-0.8609 -0.5087 0.5087 -0.8609 167.9554 224.1072)" fill="#231F20" width="2.484" height="11.03"/>
			
				<rect x="118" y="86.204" transform="matrix(-0.8609 -0.5088 0.5088 -0.8609 175.2275 231.3513)" fill="#231F20" width="2.485" height="11.031"/>
			<path fill="#1A1A19" d="M105.575,21.933l0.086,0.001c1.123,0.013,1.822,0.273,1.979,0.363l65.507,37.82
				c0.848,0.49,2.063,2.593,2.063,3.573v75.641c0,0.979-1.215,3.082-2.063,3.572l-65.506,37.819
				c-0.155,0.091-0.854,0.351-1.978,0.364h-0.088c-1.168,0-1.897-0.27-2.062-0.364l-65.507-37.819
				c-0.849-0.49-2.063-2.594-2.063-3.572V63.69c0-0.979,1.214-3.083,2.063-3.573l65.507-37.82
				C103.677,22.203,104.407,21.933,105.575,21.933 M105.575,13.652c-2.248,0-4.496,0.489-6.201,1.474l-65.505,37.82
				c-3.412,1.97-6.203,6.805-6.203,10.744v75.641c0,3.938,2.791,8.772,6.203,10.744l65.505,37.818
				c1.705,0.985,3.953,1.475,6.201,1.475c0.062,0,0.123,0,0.185-0.002c2.188-0.025,4.36-0.515,6.021-1.473l65.508-37.818
				c3.41-1.972,6.201-6.806,6.201-10.744V63.69c0-3.938-2.791-8.773-6.201-10.744l-65.508-37.82
				c-1.658-0.958-3.832-1.446-6.021-1.472C105.698,13.652,105.636,13.652,105.575,13.652"/>
			<g opacity="0.4">
				<g>
					<g>
						<defs>
							<rect id="SVGID_47_" x="70.831" y="129.99" width="3.931" height="3.92"/>
						</defs>
						<clipPath id="SVGID_48_">
							<use xlink:href="#SVGID_47_"  overflow="visible"/>
						</clipPath>
						<path clip-path="url(#SVGID_48_)" fill="#FFFFFF" d="M74.594,131.162c0.434,0.993-0.019,2.147-1.011,2.583
							c-0.992,0.435-2.149-0.02-2.584-1.01c-0.435-0.993,0.019-2.15,1.012-2.585C73.003,129.717,74.16,130.169,74.594,131.162"/>
					</g>
				</g>
			</g>
			<g opacity="0.4">
				<g>
					<g>
						<defs>
							<rect id="SVGID_49_" x="53.411" y="112.4" width="8.621" height="8.618"/>
						</defs>
						<clipPath id="SVGID_50_">
							<use xlink:href="#SVGID_49_"  overflow="visible"/>
						</clipPath>
						<path clip-path="url(#SVGID_50_)" fill="#FFFFFF" d="M61.666,114.985c0.954,2.18-0.04,4.72-2.22,5.674
							c-2.181,0.954-4.721-0.04-5.676-2.22c-0.953-2.181,0.041-4.722,2.221-5.675C58.172,111.813,60.712,112.805,61.666,114.985"/>
					</g>
				</g>
			</g>
			<g opacity="0.4">
				<g>
					<g>
						<defs>
							<rect id="SVGID_51_" x="88.182" y="51.41" width="6.06" height="6.06"/>
						</defs>
						<clipPath id="SVGID_52_">
							<use xlink:href="#SVGID_51_"  overflow="visible"/>
						</clipPath>
						<path clip-path="url(#SVGID_52_)" fill="#FFFFFF" d="M93.986,53.222c0.67,1.532-0.028,3.318-1.561,3.989
							c-1.533,0.67-3.318-0.028-3.99-1.561c-0.67-1.532,0.029-3.318,1.562-3.989C91.529,50.991,93.315,51.69,93.986,53.222"/>
					</g>
				</g>
			</g>
			<g opacity="0.4">
				<g>
					<g>
						<defs>
							<rect id="SVGID_53_" x="112.622" y="47.4" width="8.619" height="8.619"/>
						</defs>
						<clipPath id="SVGID_54_">
							<use xlink:href="#SVGID_53_"  overflow="visible"/>
						</clipPath>
						<path clip-path="url(#SVGID_54_)" fill="#FFFFFF" d="M120.874,49.981c0.955,2.18-0.039,4.72-2.219,5.674
							c-2.182,0.954-4.722-0.04-5.675-2.221c-0.954-2.18,0.039-4.72,2.22-5.674S119.921,47.801,120.874,49.981"/>
					</g>
				</g>
			</g>
		</g>
	</g>
</g>
</svg>
