<?xml version="1.0" encoding="utf-8"?>
<!-- Generator: Adobe Illustrator 16.0.0, SVG Export Plug-In . SVG Version: 6.00 Build 0)  -->
<!DOCTYPE svg PUBLIC "-//W3C//DTD SVG 1.1//EN" "http://www.w3.org/Graphics/SVG/1.1/DTD/svg11.dtd">
<svg version="1.1" id="Layer_1" xmlns="http://www.w3.org/2000/svg" xmlns:xlink="http://www.w3.org/1999/xlink" x="0px" y="0px"
	 width="215px" height="195px" viewBox="0 0 215 195" enable-background="new 0 0 215 195" xml:space="preserve">
<path fill="#929497" d="M865.52-66.557"/>
<path fill="#929497" d="M-1276.484-66.557"/>
<path fill="#929497" d="M-1276.484-65.807"/>
<path fill="#929497" d="M865.52-65.807"/>
<path fill="#929497" d="M1187.52-65.557"/>
<path fill="#929497" d="M-954.484-65.557"/>
<path fill="#929497" d="M-954.484-64.807"/>
<path fill="#929497" d="M1187.52-64.807"/>
<path fill="none" d="M65.63-1567.76"/>
<path fill="none" d="M65.63,1677.837"/>
<path fill="#EFDF5B" d="M39.35,150.3l64.76,37.39c1.732,1,4.03,1.482,6.313,1.455c2.164-0.024,4.311-0.508,5.953-1.455l64.76-37.39
	c3.373-1.947,6.133-6.728,6.133-10.621v-74.78c0-3.894-2.76-8.674-6.133-10.621l-64.76-37.39c-1.643-0.947-3.789-1.429-5.953-1.455
	c-2.282-0.026-4.58,0.455-6.313,1.455l-64.76,37.39c-3.373,1.947-6.133,6.728-6.133,10.621v74.78
	C33.217,143.572,35.977,148.353,39.35,150.3"/>
<path fill="#DDB926" d="M181.398,150.853c3.412-1.97,6.203-6.804,6.203-10.744v-75.64c0-3.939-2.791-8.774-6.203-10.743
	l-65.506-37.821c-1.537-0.887-3.515-1.366-5.535-1.453v175.676c2.021-0.089,3.998-0.567,5.535-1.454L181.398,150.853z"/>
<g opacity="0.4">
	<g>
		<defs>
			<rect id="SVGID_1_" x="32.33" y="14.43" width="155.82" height="175.721"/>
		</defs>
		<clipPath id="SVGID_2_">
			<use xlink:href="#SVGID_1_"  overflow="visible"/>
		</clipPath>
		<path clip-path="url(#SVGID_2_)" fill="#FFFFFF" d="M110.242,29.852l62.731,36.219v72.437l-62.731,36.219L47.51,138.508V66.07
			L110.242,29.852 M110.24,14.432c-2.248,0-4.496,0.489-6.201,1.473l-65.506,37.82c-3.412,1.97-6.203,6.805-6.203,10.744v75.64
			c0,3.939,2.791,8.774,6.203,10.744l65.506,37.82c1.705,0.985,3.953,1.473,6.201,1.473c0.061,0,0.123,0,0.184-0.001
			c2.188-0.025,4.361-0.514,6.021-1.472l65.507-37.82c3.411-1.97,6.201-6.805,6.201-10.744v-75.64c0-3.939-2.79-8.774-6.201-10.744
			l-65.507-37.82c-1.659-0.958-3.833-1.445-6.021-1.472C110.363,14.432,110.301,14.432,110.24,14.432"/>
	</g>
</g>
<path fill="#1A1A19" d="M110.24,22.712l0.086,0.001c1.125,0.013,1.823,0.272,1.979,0.363l65.507,37.819
	c0.849,0.49,2.062,2.593,2.062,3.573v75.64c0,0.98-1.215,3.083-2.063,3.573l-65.506,37.82c-0.156,0.09-0.854,0.35-1.977,0.363
	h-0.088c-1.168,0-1.898-0.269-2.062-0.363l-65.507-37.82c-0.848-0.49-2.063-2.593-2.063-3.573v-75.64
	c0-0.98,1.214-3.083,2.063-3.573l65.507-37.819C108.342,22.981,109.072,22.712,110.24,22.712 M110.24,14.432
	c-2.248,0-4.496,0.489-6.201,1.473l-65.506,37.82c-3.412,1.97-6.203,6.805-6.203,10.744v75.64c0,3.939,2.791,8.774,6.203,10.744
	l65.506,37.82c1.705,0.985,3.953,1.473,6.201,1.473c0.063,0,0.123,0,0.184-0.001c2.188-0.025,4.361-0.514,6.021-1.472l65.507-37.82
	c3.411-1.97,6.201-6.805,6.201-10.744v-75.64c0-3.939-2.79-8.774-6.201-10.744l-65.507-37.82c-1.659-0.958-3.833-1.445-6.021-1.472
	C110.363,14.432,110.301,14.432,110.24,14.432"/>
<g>
	<defs>
		<path id="SVGID_3_" d="M104.039,15.906L38.531,53.725c-3.409,1.971-6.2,6.804-6.2,10.744v75.64c0,3.94,2.791,8.773,6.2,10.745
			l65.508,37.818c1.752,1.014,4.074,1.501,6.385,1.473c2.188-0.024,4.361-0.513,6.021-1.473l65.506-37.818
			c3.41-1.972,6.203-6.805,6.203-10.745v-75.64c0-3.94-2.793-8.773-6.203-10.744l-65.506-37.818c-1.66-0.96-3.834-1.448-6.021-1.474
			c-0.064-0.001-0.128-0.001-0.191-0.001C107.986,14.432,105.742,14.921,104.039,15.906"/>
	</defs>
	<clipPath id="SVGID_4_">
		<use xlink:href="#SVGID_3_"  overflow="visible"/>
	</clipPath>
	<path clip-path="url(#SVGID_4_)" fill="#FFFFFF" d="M112.576,93.671c0-5.358-4.344-9.702-9.701-9.702
		c-0.631,0-1.246,0.063-1.844,0.177c-2.049-5.264-7.162-8.997-13.15-8.997c-5.924,0-10.99,3.651-13.084,8.824
		c-0.049-0.001-0.098-0.004-0.146-0.004c-3.799,0-7.086,2.186-8.678,5.367c-0.334-0.049-0.676-0.075-1.023-0.075
		c-3.896,0-7.056,3.159-7.056,7.056c0,3.897,3.159,7.057,7.056,7.057h38.807v-0.042C108.701,102.885,112.576,98.731,112.576,93.671"
		/>
	<rect x="27.574" y="123.565" clip-path="url(#SVGID_4_)" fill="#FFFFFF" width="172.242" height="82.809"/>
	<rect x="36.046" y="128.009" clip-path="url(#SVGID_4_)" fill="#EF8545" width="172.241" height="82.81"/>
	<path clip-path="url(#SVGID_4_)" fill="#FFFFFF" d="M110.467,2.997c0.129,0,0.262,0.327,0.365,0.981l5.398,34.16l1.787,3.054
		c0.672,1.146,1.213,3.148,1.213,4.476l-0.025,25.789l5.483,1.579c1.274,0.367,2.31,1.74,2.31,3.066v25.962l7.381,1.825
		c1.289,0.317,2.332,1.651,2.332,2.979v34.447l8.455,2.072c1.287,0.315,2.332,1.646,2.332,2.974v50.475l-74.088,0.239v-55.45
		c0-1.326,1.006-2.783,2.246-3.255l9.146-3.472V99.971c0-1.327,1.029-2.715,2.299-3.102l7.182-2.185V69.855
		c0-1.327,1.028-2.717,2.297-3.105l5.016-1.539V45.668c0-1.327,0.617-3.283,1.379-4.369l2.215-3.16l4.924-34.155
		C110.209,3.326,110.336,2.997,110.467,2.997 M110.467-3.351c-0.584,0-5.734,0.18-6.637,6.427l-4.709,32.658l-1.345,1.92
		c-1.513,2.157-2.528,5.378-2.528,8.014v14.85l-0.531,0.163c-3.93,1.206-6.781,5.063-6.781,9.175V89.98l-2.682,0.815
		c-3.939,1.198-6.799,5.058-6.799,9.175v30.548l-5.053,1.917c-3.732,1.418-6.34,5.197-6.34,9.189v55.45v6.368l6.368-0.021
		l74.087-0.24l6.329-0.021v-6.326v-50.475c0-4.277-3.015-8.121-7.17-9.14l-3.617-0.886v-29.468c0-4.271-3.011-8.116-7.157-9.142
		l-2.557-0.632V76.103c0-4.161-2.902-8.017-6.901-9.167l-0.887-0.255l0.021-21.007c0.002-2.47-0.834-5.56-2.082-7.689l-1.182-2.02
		l-5.213-32.978C116.129-3.173,111.043-3.351,110.467-3.351"/>
	<polygon clip-path="url(#SVGID_4_)" fill="#54BAD2" points="136.711,141.315 136.711,104.466 126.997,102.063 126.997,73.7 
		119.205,71.458 119.232,43.265 116.23,38.139 110.457,1.606 105.189,38.139 101.596,43.265 101.596,65.211 94.283,67.453 
		93.803,94.685 84.803,97.568 84.803,134.898 73.411,139.224 73.411,197.075 147.5,197.075 147.5,144.199 	"/>
	<polygon clip-path="url(#SVGID_4_)" fill="#FFFFFF" points="119.232,43.265 116.23,38.138 110.457,1.606 105.189,38.138 
		101.596,43.265 101.596,55.885 119.223,55.885 	"/>
	<rect x="109.993" y="87.361" clip-path="url(#SVGID_4_)" fill="#2C6C8F" width="1.382" height="110.385"/>
	<rect x="85.252" y="128.517" clip-path="url(#SVGID_4_)" fill="#2C6C8F" width="1.381" height="69.229"/>
	<rect x="125.127" y="102.094" clip-path="url(#SVGID_4_)" fill="#2C6C8F" width="1.38" height="95.652"/>
	<rect x="94.86" y="92.485" clip-path="url(#SVGID_4_)" fill="#2C6C8F" width="1.381" height="105.261"/>
	<rect x="102.066" y="66.063" clip-path="url(#SVGID_4_)" fill="#2C6C8F" width="1.381" height="20.498"/>
	<rect x="117.199" y="66.063" clip-path="url(#SVGID_4_)" fill="#2C6C8F" width="1.381" height="20.498"/>
	<rect x="134.734" y="126.115" clip-path="url(#SVGID_4_)" fill="#2C6C8F" width="1.381" height="69.229"/>
	<path clip-path="url(#SVGID_4_)" fill="#1A1A19" d="M110.627,162.042l-1.26-0.411c-0.09-0.028-9.279-3.001-17.854-3.274
		c-8.136-0.257-16.244,0.908-16.324,0.92l-1.199-8.193c0.359-0.052,8.9-1.287,17.787-1.002c7.879,0.251,15.873,2.396,18.908,3.293
		c3.044-0.854,11.066-2.895,19.02-3.098c9.06-0.228,17.66,0.995,18.021,1.046l-1.183,8.196c-0.082-0.013-8.283-1.177-16.627-0.964
		c-8.697,0.22-17.937,3.065-18.027,3.094L110.627,162.042z"/>
	<path clip-path="url(#SVGID_4_)" fill="#1A1A19" d="M110.627,128.413l-1.26-0.411c-0.09-0.028-9.279-3.001-17.854-3.274
		c-2.025-0.063-4.213-0.045-6.502,0.054l-0.361-8.271c2.496-0.109,4.896-0.13,7.125-0.059c7.881,0.251,15.875,2.396,18.91,3.293
		c3.044-0.854,11.066-2.895,19.02-3.099c2.093-0.051,4.348-0.03,6.699,0.064l-0.338,8.273c-2.17-0.09-4.238-0.107-6.152-0.06
		c-8.695,0.221-17.935,3.066-18.025,3.095L110.627,128.413z"/>
	<path clip-path="url(#SVGID_4_)" fill="#1A1A19" d="M110.625,93.966l-0.932-0.222c-0.078-0.018-7.949-1.882-16.025-2.523
		l0.654-8.254c7.145,0.566,13.935,1.973,16.363,2.513c2.418-0.499,9.137-1.793,16.273-2.323l0.613,8.258
		c-8.125,0.604-15.938,2.327-16.016,2.345L110.625,93.966z"/>
	<path clip-path="url(#SVGID_4_)" fill="#FFFFFF" d="M110.642,156.302l-0.63-0.206c-0.094-0.029-9.547-3.092-18.432-3.375
		c-8.328-0.264-16.607,0.929-16.689,0.939l-0.6-4.095c0.352-0.053,8.711-1.259,17.42-0.983c8.234,0.263,16.616,2.662,18.959,3.382
		c2.354-0.686,10.768-2.974,19.088-3.185c8.881-0.228,17.317,0.974,17.672,1.024l-0.592,4.099
		c-0.084-0.013-8.451-1.206-16.975-0.985c-9.002,0.229-18.496,3.158-18.591,3.188L110.642,156.302z"/>
	<path clip-path="url(#SVGID_4_)" fill="#FFFFFF" d="M110.642,122.673l-0.63-0.206c-0.094-0.029-9.547-3.092-18.432-3.375
		c-2.078-0.067-4.316-0.049-6.66,0.056l-0.179-4.138c2.443-0.105,4.787-0.123,6.97-0.057c8.234,0.263,16.616,2.662,18.959,3.382
		c2.354-0.686,10.768-2.974,19.088-3.186c2.057-0.052,4.265-0.031,6.563,0.063l-0.17,4.137c-2.208-0.093-4.327-0.113-6.287-0.063
		c-9.021,0.231-18.496,3.159-18.59,3.189L110.642,122.673z"/>
	<path clip-path="url(#SVGID_4_)" fill="#FFFFFF" d="M110.641,88.274l-0.467-0.109c-0.08-0.021-8.094-1.92-16.342-2.575l0.328-4.127
		c7.52,0.597,14.639,2.14,16.512,2.566c1.863-0.396,8.914-1.816,16.44-2.376l0.306,4.13c-8.285,0.613-16.232,2.37-16.312,2.388
		L110.641,88.274z"/>
	<rect x="101.494" y="52.734" clip-path="url(#SVGID_4_)" fill="#1A1918" width="18.256" height="5.52"/>
	<path clip-path="url(#SVGID_4_)" fill="#1A1918" d="M71.34,199.152v-57.527c0-2.185,1.541-4.415,3.582-5.189l7.812-2.965v-33.5
		c0-2.244,1.618-4.43,3.767-5.081l5.713-1.739V69.855c0-2.242,1.617-4.428,3.761-5.085l3.552-1.09V45.667
		c0-1.743,0.754-4.132,1.754-5.558l1.932-2.755l4.854-33.666c0.329-2.282,1.487-2.761,2.401-2.761c0.902,0,2.053,0.473,2.41,2.728
		l5.338,33.774l1.591,2.717c0.853,1.459,1.495,3.833,1.495,5.522l-0.024,24.23l3.985,1.147c2.17,0.625,3.805,2.8,3.805,5.057v24.34
		l5.811,1.436c2.227,0.554,3.904,2.697,3.904,4.989v32.823l6.877,1.685c2.23,0.548,3.91,2.691,3.91,4.985v52.537L71.34,199.152z
		 M110.551,15.459l-3.383,23.463l-2.498,3.564c-0.518,0.736-1.004,2.282-1.004,3.181V66.74l-6.479,1.988
		c-0.398,0.122-0.834,0.711-0.834,1.127v26.363l-8.65,2.632c-0.396,0.12-0.83,0.706-0.83,1.12v36.356l-10.482,3.979
		c-0.434,0.164-0.909,0.854-0.909,1.318v53.373l69.947-0.227v-48.41c0-0.371-0.396-0.876-0.757-0.964l-10.03-2.458v-36.071
		c0-0.373-0.397-0.881-0.761-0.971l-8.954-2.213V76.104c0-0.403-0.425-0.966-0.812-1.078l-6.982-2.01l0.027-27.351
		c0-0.963-0.441-2.597-0.928-3.429l-1.984-3.389L110.551,15.459z"/>
	<rect x="105.818" y="38.056" clip-path="url(#SVGID_4_)" fill="#1A1918" width="9.607" height="2.209"/>
</g>
<g>
	<defs>
		<path id="SVGID_5_" d="M108.594,14.52l-3.406,23.618l-2.213,3.16c-0.763,1.086-1.379,3.043-1.379,4.37v19.543l-5.016,1.538
			c-1.268,0.388-2.297,1.78-2.297,3.106v24.83l-7.182,2.185c-1.268,0.385-2.299,1.772-2.299,3.1v34.93l-9.146,3.471
			c-1.24,0.471-2.246,1.928-2.246,3.255v29.364l30.63,17.682c1.753,1.015,4.073,1.501,6.383,1.474
			c2.188-0.024,4.362-0.514,6.022-1.474l31.055-17.928v-24.382c0-1.326-1.047-2.658-2.332-2.975l-8.457-2.072v-34.447
			c0-1.326-1.043-2.659-2.331-2.978l-7.383-1.825V76.104c0-1.327-1.033-2.701-2.308-3.067l-5.484-1.578l0.025-25.79
			c0-1.327-0.541-3.332-1.211-4.476l-1.789-3.055l-3.719-23.537c-0.684-0.103-1.385-0.158-2.089-0.167
			c-0.063-0.002-0.127-0.002-0.192-0.002C109.684,14.432,109.135,14.462,108.594,14.52"/>
	</defs>
	<clipPath id="SVGID_6_">
		<use xlink:href="#SVGID_5_"  overflow="visible"/>
	</clipPath>
	<g opacity="0.1" clip-path="url(#SVGID_6_)">
		<g>
			<defs>
				<rect id="SVGID_7_" x="74.32" y="189.15" width="74.22" height="2.21"/>
			</defs>
			<clipPath id="SVGID_8_">
				<use xlink:href="#SVGID_7_"  overflow="visible"/>
			</clipPath>
			<rect x="74.322" y="189.15" clip-path="url(#SVGID_8_)" fill="#1A1918" width="74.221" height="2.209"/>
		</g>
	</g>
	<g opacity="0.1" clip-path="url(#SVGID_6_)">
		<g>
			<defs>
				<rect id="SVGID_9_" x="74.32" y="144.85" width="74.22" height="2.211"/>
			</defs>
			<clipPath id="SVGID_10_">
				<use xlink:href="#SVGID_9_"  overflow="visible"/>
			</clipPath>
			<rect x="74.322" y="144.854" clip-path="url(#SVGID_10_)" fill="#1A1918" width="74.221" height="2.209"/>
		</g>
	</g>
	<g opacity="0.1" clip-path="url(#SVGID_6_)">
		<g>
			<defs>
				<rect id="SVGID_11_" x="74.32" y="137.41" width="74.22" height="2.21"/>
			</defs>
			<clipPath id="SVGID_12_">
				<use xlink:href="#SVGID_11_"  overflow="visible"/>
			</clipPath>
			<rect x="74.322" y="137.406" clip-path="url(#SVGID_12_)" fill="#1A1918" width="74.221" height="2.209"/>
		</g>
	</g>
	<g opacity="0.1" clip-path="url(#SVGID_6_)">
		<g>
			<defs>
				<rect id="SVGID_13_" x="74.32" y="129.96" width="74.22" height="2.21"/>
			</defs>
			<clipPath id="SVGID_14_">
				<use xlink:href="#SVGID_13_"  overflow="visible"/>
			</clipPath>
			<rect x="74.322" y="129.96" clip-path="url(#SVGID_14_)" fill="#1A1918" width="74.221" height="2.209"/>
		</g>
	</g>
	<g opacity="0.1" clip-path="url(#SVGID_6_)">
		<g>
			<defs>
				<rect id="SVGID_15_" x="74.32" y="111.46" width="74.22" height="2.21"/>
			</defs>
			<clipPath id="SVGID_16_">
				<use xlink:href="#SVGID_15_"  overflow="visible"/>
			</clipPath>
			<rect x="74.322" y="111.464" clip-path="url(#SVGID_16_)" fill="#1A1918" width="74.221" height="2.209"/>
		</g>
	</g>
	<g opacity="0.1" clip-path="url(#SVGID_6_)">
		<g>
			<defs>
				<rect id="SVGID_17_" x="74.32" y="104.02" width="74.22" height="2.211"/>
			</defs>
			<clipPath id="SVGID_18_">
				<use xlink:href="#SVGID_17_"  overflow="visible"/>
			</clipPath>
			<rect x="74.322" y="104.018" clip-path="url(#SVGID_18_)" fill="#1A1918" width="74.221" height="2.209"/>
		</g>
	</g>
	<g opacity="0.1" clip-path="url(#SVGID_6_)">
		<g>
			<defs>
				<rect id="SVGID_19_" x="74.32" y="96.57" width="74.22" height="2.21"/>
			</defs>
			<clipPath id="SVGID_20_">
				<use xlink:href="#SVGID_19_"  overflow="visible"/>
			</clipPath>
			<rect x="74.322" y="96.571" clip-path="url(#SVGID_20_)" fill="#1A1918" width="74.221" height="2.209"/>
		</g>
	</g>
	<g opacity="0.1" clip-path="url(#SVGID_6_)">
		<g>
			<defs>
				<rect id="SVGID_21_" x="74.32" y="78.55" width="74.22" height="2.21"/>
			</defs>
			<clipPath id="SVGID_22_">
				<use xlink:href="#SVGID_21_"  overflow="visible"/>
			</clipPath>
			<rect x="74.322" y="78.555" clip-path="url(#SVGID_22_)" fill="#1A1918" width="74.221" height="2.209"/>
		</g>
	</g>
	<g opacity="0.1" clip-path="url(#SVGID_6_)">
		<g>
			<defs>
				<rect id="SVGID_23_" x="74.32" y="71.11" width="74.22" height="2.21"/>
			</defs>
			<clipPath id="SVGID_24_">
				<use xlink:href="#SVGID_23_"  overflow="visible"/>
			</clipPath>
			<rect x="74.322" y="71.109" clip-path="url(#SVGID_24_)" fill="#1A1918" width="74.221" height="2.209"/>
		</g>
	</g>
	<g opacity="0.1" clip-path="url(#SVGID_6_)">
		<g>
			<defs>
				<rect id="SVGID_25_" x="74.32" y="63.66" width="74.22" height="2.21"/>
			</defs>
			<clipPath id="SVGID_26_">
				<use xlink:href="#SVGID_25_"  overflow="visible"/>
			</clipPath>
			<rect x="74.322" y="63.662" clip-path="url(#SVGID_26_)" fill="#1A1918" width="74.221" height="2.209"/>
		</g>
	</g>
</g>
<g>
	<defs>
		<path id="SVGID_27_" d="M104.039,15.906L38.531,53.725c-3.409,1.971-6.2,6.804-6.2,10.744v75.64c0,3.94,2.791,8.773,6.2,10.745
			l65.508,37.818c1.752,1.014,4.074,1.501,6.385,1.473c2.188-0.024,4.361-0.513,6.021-1.473l65.506-37.818
			c3.41-1.972,6.203-6.805,6.203-10.745v-75.64c0-3.94-2.793-8.773-6.203-10.744l-65.506-37.818c-1.66-0.96-3.834-1.448-6.021-1.474
			c-0.064-0.001-0.128-0.001-0.191-0.001C107.986,14.432,105.742,14.921,104.039,15.906"/>
	</defs>
	<clipPath id="SVGID_28_">
		<use xlink:href="#SVGID_27_"  overflow="visible"/>
	</clipPath>
	<path clip-path="url(#SVGID_28_)" fill="#FFFFFF" d="M204.762,72.143c0-5.357-4.344-9.702-9.703-9.702
		c-0.629,0-1.244,0.063-1.842,0.178c-2.049-5.265-7.162-8.997-13.15-8.997c-5.924,0-10.991,3.65-13.084,8.823
		c-0.049-0.001-0.098-0.004-0.146-0.004c-3.801,0-7.086,2.187-8.679,5.367c-0.335-0.049-0.677-0.075-1.024-0.075
		c-3.896,0-7.055,3.159-7.055,7.057c0,3.896,3.158,7.056,7.055,7.056h38.809v-0.042C200.887,81.356,204.762,77.204,204.762,72.143"
		/>
</g>
<path fill="#1A1A19" d="M110.24,22.712l0.086,0.001c1.125,0.013,1.823,0.272,1.979,0.363l65.507,37.819
	c0.849,0.49,2.062,2.593,2.062,3.573v75.64c0,0.98-1.215,3.083-2.063,3.573l-65.506,37.82c-0.156,0.09-0.854,0.35-1.977,0.363
	h-0.088c-1.168,0-1.898-0.269-2.062-0.363l-65.507-37.82c-0.848-0.49-2.063-2.593-2.063-3.573v-75.64
	c0-0.98,1.214-3.083,2.063-3.573l65.507-37.819C108.342,22.981,109.072,22.712,110.24,22.712 M110.24,14.432
	c-2.248,0-4.496,0.489-6.201,1.473l-65.506,37.82c-3.412,1.97-6.203,6.805-6.203,10.744v75.64c0,3.939,2.791,8.774,6.203,10.744
	l65.506,37.82c1.705,0.985,3.953,1.473,6.201,1.473c0.063,0,0.123,0,0.184-0.001c2.188-0.025,4.361-0.514,6.021-1.472l65.507-37.82
	c3.411-1.97,6.201-6.805,6.201-10.744v-75.64c0-3.939-2.79-8.774-6.201-10.744l-65.507-37.82c-1.659-0.958-3.833-1.445-6.021-1.472
	C110.363,14.432,110.301,14.432,110.24,14.432"/>
</svg>
