<?xml version="1.0" encoding="utf-8"?>
<!-- Generator: Adobe Illustrator 16.0.0, SVG Export Plug-In . SVG Version: 6.00 Build 0)  -->
<!DOCTYPE svg PUBLIC "-//W3C//DTD SVG 1.1//EN" "http://www.w3.org/Graphics/SVG/1.1/DTD/svg11.dtd">
<svg version="1.1" id="Layer_1" xmlns="http://www.w3.org/2000/svg" xmlns:xlink="http://www.w3.org/1999/xlink" x="0px" y="0px"
	 width="612px" height="792px" viewBox="0 0 612 792" enable-background="new 0 0 612 792" xml:space="preserve">
<path fill="#A6A8AC" d="M214.852,521.157V505.82h6.301c2.576,0,4.231,1.495,4.231,3.908c0,1.932-1.31,3.243-2.69,3.519
	c1.633,0.253,2.99,1.955,2.99,3.772c0,2.553-1.656,4.138-4.393,4.138H214.852z M224.004,509.867c0-1.563-1.035-2.852-3.013-2.852
	h-4.828v5.681h4.828C222.969,512.696,224.004,511.453,224.004,509.867 M224.303,516.927c0-1.563-1.08-3.036-3.219-3.036h-4.921
	v6.071h4.921C223.107,519.962,224.303,518.789,224.303,516.927"/>
<path fill="#A6A8AC" d="M231.756,515.271v-9.45h1.334v9.429c0,3.104,1.633,4.989,4.645,4.989c3.013,0,4.646-1.886,4.646-4.989
	v-9.429h1.334v9.45c0,3.794-2.022,6.163-5.979,6.163C233.803,521.434,231.756,519.042,231.756,515.271"/>
<path fill="#A6A8AC" d="M259.285,521.158l-4.301-6.348h-3.379v6.348h-1.313V505.82h5.727c2.644,0,4.668,1.678,4.668,4.483
	c0,2.782-1.955,4.323-4.254,4.415l4.438,6.439H259.285z M259.309,510.304c0-1.932-1.357-3.288-3.404-3.288h-4.299v6.601h4.299
	C257.951,513.616,259.309,512.236,259.309,510.304"/>
<path fill="#A6A8AC" d="M265.131,519.548l0.805-1.012c0.688,0.92,1.633,1.701,3.058,1.701c2.092,0,3.403-1.448,3.403-3.517v-10.901
	h1.311v10.901c0,3.195-2.093,4.714-4.645,4.714C267.406,521.435,266.143,520.859,265.131,519.548"/>
<polygon fill="#A6A8AC" points="298.338,521.157 292.016,513.938 290.314,515.801 290.314,521.157 289.002,521.157 289.002,505.819 
	290.314,505.819 290.314,514.214 297.719,505.819 299.396,505.819 292.865,513.133 300.018,521.157 "/>
<polygon fill="#A6A8AC" points="316.277,521.157 316.277,513.868 306.551,513.868 306.551,521.157 305.24,521.157 305.24,505.819 
	306.551,505.819 306.551,512.673 316.277,512.673 316.277,505.819 317.588,505.819 317.588,521.157 "/>
<path fill="#A6A8AC" d="M335.276,521.158l-1.519-3.771h-8.117l-1.518,3.771h-1.518l6.277-15.338h1.633l6.278,15.338H335.276z
	 M329.711,507.223l-3.633,8.969h7.243L329.711,507.223z"/>
<polygon fill="#A6A8AC" points="341.488,521.157 341.488,505.819 342.821,505.819 342.821,519.963 350.25,519.963 350.25,521.157 
	"/>
<rect x="355.702" y="505.82" fill="#A6A8AC" width="1.312" height="15.338"/>
<polygon fill="#A6A8AC" points="363.59,521.157 363.59,505.819 373.318,505.819 373.318,507.016 364.902,507.016 364.902,512.695 
	373.156,512.695 373.156,513.891 364.902,513.891 364.902,521.157 "/>
<path fill="#A6A8AC" d="M389.165,521.158l-1.519-3.771h-8.117l-1.518,3.771h-1.518l6.277-15.338h1.633l6.278,15.338H389.165z
	 M383.6,507.223l-3.633,8.969h7.243L383.6,507.223z"/>
<path fill="#EFDF5B" d="M229.35,423.3l64.76,37.39c1.732,1,4.03,1.482,6.313,1.455c2.163-0.024,4.311-0.508,5.952-1.455
	l64.761-37.39c3.373-1.947,6.133-6.728,6.133-10.621v-74.78c0-3.894-2.76-8.674-6.133-10.621l-64.761-37.39
	c-1.642-0.947-3.789-1.429-5.952-1.455c-2.282-0.026-4.58,0.455-6.313,1.455l-64.76,37.39c-3.373,1.947-6.133,6.728-6.133,10.621
	v74.78C223.217,416.572,225.977,421.353,229.35,423.3"/>
<path fill="#DDB926" d="M371.399,423.853c3.411-1.97,6.202-6.804,6.202-10.744v-75.64c0-3.939-2.791-8.774-6.202-10.743
	l-65.507-37.821c-1.537-0.887-3.515-1.366-5.535-1.453v175.676c2.021-0.089,3.998-0.567,5.535-1.454L371.399,423.853z"/>
<g opacity="0.4">
	<g>
		<defs>
			<rect id="SVGID_1_" x="222.33" y="287.43" width="155.82" height="175.721"/>
		</defs>
		<clipPath id="SVGID_2_">
			<use xlink:href="#SVGID_1_"  overflow="visible"/>
		</clipPath>
		<path clip-path="url(#SVGID_2_)" fill="#FFFFFF" d="M300.242,302.852l62.731,36.219v72.437l-62.731,36.219l-62.732-36.218V339.07
			L300.242,302.852 M300.24,287.432c-2.248,0-4.496,0.489-6.201,1.473l-65.506,37.82c-3.412,1.97-6.203,6.805-6.203,10.744v75.64
			c0,3.939,2.791,8.774,6.203,10.744l65.506,37.82c1.705,0.985,3.953,1.473,6.201,1.473c0.061,0,0.123,0,0.184-0.001
			c2.188-0.025,4.361-0.514,6.021-1.472l65.507-37.82c3.411-1.97,6.202-6.805,6.202-10.744v-75.64c0-3.939-2.791-8.774-6.202-10.744
			l-65.507-37.82c-1.659-0.958-3.833-1.445-6.021-1.472C300.363,287.432,300.301,287.432,300.24,287.432"/>
	</g>
</g>
<path fill="#1A1A19" d="M300.24,295.712l0.086,0.001c1.125,0.013,1.823,0.272,1.979,0.363l65.507,37.819
	c0.849,0.49,2.062,2.593,2.062,3.573v75.64c0,0.98-1.215,3.083-2.063,3.573l-65.506,37.82c-0.156,0.09-0.854,0.35-1.977,0.363
	h-0.088c-1.168,0-1.898-0.269-2.062-0.363l-65.507-37.82c-0.848-0.49-2.063-2.593-2.063-3.573v-75.64
	c0-0.98,1.214-3.083,2.063-3.573l65.507-37.819C298.342,295.981,299.072,295.712,300.24,295.712 M300.24,287.432
	c-2.248,0-4.496,0.489-6.201,1.473l-65.506,37.82c-3.412,1.97-6.203,6.805-6.203,10.744v75.64c0,3.939,2.791,8.774,6.203,10.744
	l65.506,37.82c1.705,0.985,3.953,1.473,6.201,1.473c0.063,0,0.123,0,0.184-0.001c2.188-0.025,4.361-0.514,6.021-1.472l65.507-37.82
	c3.411-1.97,6.202-6.805,6.202-10.744v-75.64c0-3.939-2.791-8.774-6.202-10.744l-65.507-37.82c-1.659-0.958-3.833-1.445-6.021-1.472
	C300.363,287.432,300.301,287.432,300.24,287.432"/>
<g>
	<defs>
		<path id="SVGID_3_" d="M294.039,288.906l-65.507,37.818c-3.41,1.971-6.201,6.804-6.201,10.744v75.64
			c0,3.94,2.791,8.773,6.201,10.745l65.507,37.818c1.752,1.014,4.074,1.501,6.385,1.473c2.188-0.024,4.361-0.513,6.021-1.473
			l65.506-37.818c3.41-1.972,6.203-6.805,6.203-10.745v-75.64c0-3.94-2.793-8.773-6.203-10.744l-65.506-37.818
			c-1.66-0.96-3.834-1.448-6.021-1.474c-0.064-0.001-0.128-0.001-0.191-0.001C297.986,287.432,295.742,287.921,294.039,288.906"/>
	</defs>
	<clipPath id="SVGID_4_">
		<use xlink:href="#SVGID_3_"  overflow="visible"/>
	</clipPath>
	<path clip-path="url(#SVGID_4_)" fill="#FFFFFF" d="M302.576,366.671c0-5.358-4.344-9.702-9.701-9.702
		c-0.631,0-1.246,0.063-1.843,0.177c-2.049-5.264-7.163-8.997-13.151-8.997c-5.924,0-10.99,3.651-13.084,8.824
		c-0.049-0.001-0.097-0.004-0.146-0.004c-3.8,0-7.087,2.186-8.679,5.367c-0.334-0.049-0.676-0.075-1.023-0.075
		c-3.896,0-7.056,3.159-7.056,7.056c0,3.897,3.159,7.057,7.056,7.057h38.807v-0.042
		C298.701,375.885,302.576,371.731,302.576,366.671"/>
	<rect x="217.574" y="396.565" clip-path="url(#SVGID_4_)" fill="#FFFFFF" width="172.242" height="82.809"/>
	<rect x="226.046" y="401.009" clip-path="url(#SVGID_4_)" fill="#EF8545" width="172.242" height="82.81"/>
	<path clip-path="url(#SVGID_4_)" fill="#FFFFFF" d="M300.467,275.997c0.129,0,0.262,0.327,0.365,0.981l5.399,34.16l1.787,3.054
		c0.671,1.146,1.213,3.148,1.212,4.476l-0.025,25.789l5.483,1.579c1.274,0.367,2.31,1.74,2.31,3.066v25.962l7.381,1.825
		c1.289,0.317,2.332,1.651,2.332,2.979v34.447l8.455,2.072c1.287,0.315,2.332,1.646,2.332,2.974v50.475l-74.088,0.239v-55.45
		c0-1.326,1.006-2.783,2.246-3.255l9.146-3.472v-34.928c0-1.327,1.029-2.715,2.299-3.102l7.182-2.185v-24.829
		c0-1.327,1.028-2.717,2.297-3.105l5.016-1.539v-19.543c0-1.327,0.617-3.283,1.379-4.369l2.215-3.16l4.924-34.155
		C300.209,276.326,300.336,275.997,300.467,275.997 M300.467,269.649c-0.584,0-5.734,0.18-6.637,6.427l-4.709,32.658l-1.345,1.92
		c-1.513,2.157-2.528,5.378-2.528,8.014v14.85l-0.53,0.163c-3.931,1.206-6.782,5.063-6.782,9.175v20.125l-2.682,0.815
		c-3.939,1.198-6.799,5.058-6.799,9.175v30.548l-5.052,1.917c-3.733,1.418-6.341,5.197-6.341,9.189v55.45v6.368l6.368-0.021
		l74.088-0.24l6.328-0.021v-6.326v-50.475c0-4.277-3.015-8.121-7.17-9.14l-3.617-0.886v-29.468c0-4.271-3.011-8.116-7.156-9.142
		l-2.558-0.632v-20.992c0-4.161-2.902-8.017-6.901-9.167l-0.887-0.255l0.021-21.007c0.002-2.47-0.834-5.56-2.082-7.689l-1.182-2.02
		l-5.213-32.978C306.129,269.827,301.043,269.649,300.467,269.649"/>
	<polygon clip-path="url(#SVGID_4_)" fill="#54BAD2" points="326.711,414.315 326.711,377.466 316.997,375.063 316.997,346.7 
		309.205,344.458 309.232,316.265 306.23,311.139 300.457,274.606 295.189,311.139 291.596,316.265 291.596,338.211 
		284.283,340.453 283.803,367.685 274.803,370.568 274.803,407.898 263.411,412.224 263.411,470.075 337.499,470.075 
		337.499,417.199 	"/>
	<polygon clip-path="url(#SVGID_4_)" fill="#FFFFFF" points="309.232,316.265 306.231,311.138 300.457,274.606 295.189,311.138 
		291.596,316.265 291.596,328.885 309.223,328.885 	"/>
	<rect x="299.993" y="360.361" clip-path="url(#SVGID_4_)" fill="#2C6C8F" width="1.381" height="110.385"/>
	<rect x="275.252" y="401.517" clip-path="url(#SVGID_4_)" fill="#2C6C8F" width="1.381" height="69.229"/>
	<rect x="315.126" y="375.094" clip-path="url(#SVGID_4_)" fill="#2C6C8F" width="1.381" height="95.652"/>
	<rect x="284.86" y="365.485" clip-path="url(#SVGID_4_)" fill="#2C6C8F" width="1.381" height="105.261"/>
	<rect x="292.066" y="339.063" clip-path="url(#SVGID_4_)" fill="#2C6C8F" width="1.381" height="20.498"/>
	<rect x="307.199" y="339.063" clip-path="url(#SVGID_4_)" fill="#2C6C8F" width="1.381" height="20.498"/>
	<rect x="324.734" y="399.115" clip-path="url(#SVGID_4_)" fill="#2C6C8F" width="1.381" height="69.229"/>
	<path clip-path="url(#SVGID_4_)" fill="#1A1A19" d="M300.626,435.042l-1.259-0.411c-0.09-0.028-9.279-3.001-17.854-3.274
		c-8.136-0.257-16.243,0.908-16.324,0.92l-1.199-8.193c0.359-0.052,8.9-1.287,17.787-1.002c7.879,0.251,15.873,2.396,18.908,3.293
		c3.044-0.854,11.066-2.895,19.02-3.098c9.06-0.228,17.66,0.995,18.021,1.046l-1.183,8.196c-0.082-0.013-8.283-1.177-16.627-0.964
		c-8.697,0.22-17.937,3.065-18.027,3.094L300.626,435.042z"/>
	<path clip-path="url(#SVGID_4_)" fill="#1A1A19" d="M300.626,401.413l-1.259-0.411c-0.09-0.028-9.279-3.001-17.854-3.274
		c-2.025-0.063-4.212-0.045-6.502,0.054l-0.361-8.271c2.496-0.109,4.896-0.13,7.125-0.059c7.881,0.251,15.875,2.396,18.91,3.293
		c3.044-0.854,11.066-2.895,19.02-3.099c2.093-0.051,4.348-0.03,6.699,0.064l-0.338,8.273c-2.17-0.09-4.238-0.107-6.152-0.06
		c-8.695,0.221-17.935,3.066-18.025,3.095L300.626,401.413z"/>
	<path clip-path="url(#SVGID_4_)" fill="#1A1A19" d="M300.625,366.966l-0.932-0.222c-0.078-0.018-7.949-1.882-16.024-2.523
		l0.653-8.254c7.145,0.566,13.935,1.973,16.364,2.513c2.417-0.499,9.136-1.793,16.272-2.323l0.613,8.258
		c-8.125,0.604-15.938,2.327-16.016,2.345L300.625,366.966z"/>
	<path clip-path="url(#SVGID_4_)" fill="#FFFFFF" d="M300.642,429.302l-0.63-0.206c-0.094-0.029-9.547-3.092-18.432-3.375
		c-8.328-0.264-16.607,0.929-16.689,0.939l-0.6-4.095c0.352-0.053,8.711-1.259,17.42-0.983c8.234,0.263,16.616,2.662,18.959,3.382
		c2.354-0.686,10.768-2.974,19.088-3.185c8.881-0.228,17.317,0.974,17.672,1.024l-0.592,4.099
		c-0.084-0.013-8.451-1.206-16.975-0.985c-9.002,0.229-18.496,3.158-18.591,3.188L300.642,429.302z"/>
	<path clip-path="url(#SVGID_4_)" fill="#FFFFFF" d="M300.642,395.673l-0.63-0.206c-0.094-0.029-9.547-3.092-18.432-3.375
		c-2.078-0.067-4.316-0.049-6.66,0.056l-0.179-4.138c2.443-0.105,4.787-0.123,6.97-0.057c8.234,0.263,16.616,2.662,18.959,3.382
		c2.354-0.686,10.768-2.974,19.088-3.186c2.058-0.052,4.265-0.031,6.563,0.063l-0.17,4.137c-2.208-0.093-4.327-0.113-6.287-0.063
		c-9.021,0.231-18.495,3.159-18.59,3.189L300.642,395.673z"/>
	<path clip-path="url(#SVGID_4_)" fill="#FFFFFF" d="M300.641,361.274l-0.467-0.109c-0.08-0.021-8.094-1.92-16.342-2.575
		l0.328-4.127c7.52,0.597,14.639,2.14,16.512,2.566c1.863-0.396,8.914-1.816,16.44-2.376l0.306,4.13
		c-8.285,0.613-16.232,2.37-16.312,2.388L300.641,361.274z"/>
	<rect x="291.494" y="325.734" clip-path="url(#SVGID_4_)" fill="#1A1918" width="18.256" height="5.52"/>
	<path clip-path="url(#SVGID_4_)" fill="#1A1918" d="M261.34,472.152v-57.527c0-2.185,1.541-4.415,3.582-5.189l7.812-2.965v-33.5
		c0-2.244,1.619-4.43,3.767-5.081l5.713-1.739v-23.295c0-2.242,1.617-4.428,3.761-5.085l3.552-1.09v-18.014
		c0-1.743,0.754-4.132,1.754-5.558l1.932-2.755l4.854-33.666c0.329-2.282,1.487-2.761,2.401-2.761c0.902,0,2.054,0.473,2.41,2.728
		l5.338,33.774l1.591,2.717c0.853,1.459,1.496,3.833,1.495,5.522l-0.024,24.23l3.985,1.147c2.17,0.625,3.806,2.8,3.806,5.057v24.34
		l5.81,1.436c2.227,0.554,3.904,2.697,3.904,4.989v32.823l6.877,1.685c2.23,0.548,3.911,2.691,3.911,4.985v52.537L261.34,472.152z
		 M300.551,288.459l-3.383,23.463l-2.498,3.564c-0.517,0.736-1.004,2.282-1.004,3.181v21.073l-6.479,1.988
		c-0.398,0.122-0.833,0.711-0.833,1.127v26.363l-8.651,2.632c-0.396,0.12-0.83,0.706-0.83,1.12v36.356l-10.482,3.979
		c-0.434,0.164-0.909,0.854-0.909,1.318v53.373l69.947-0.227v-48.41c0-0.371-0.396-0.876-0.757-0.964l-10.03-2.458v-36.071
		c0-0.373-0.397-0.881-0.761-0.971l-8.954-2.213v-27.581c0-0.403-0.425-0.966-0.812-1.078l-6.982-2.01l0.027-27.351
		c0-0.963-0.441-2.597-0.928-3.429l-1.984-3.389L300.551,288.459z"/>
	<rect x="295.818" y="311.056" clip-path="url(#SVGID_4_)" fill="#1A1918" width="9.607" height="2.209"/>
</g>
<g>
	<defs>
		<path id="SVGID_5_" d="M298.594,287.52l-3.406,23.618l-2.213,3.16c-0.763,1.086-1.379,3.043-1.379,4.37v19.543l-5.016,1.538
			c-1.268,0.388-2.297,1.78-2.297,3.106v24.83l-7.182,2.185c-1.269,0.385-2.299,1.772-2.299,3.1v34.93l-9.146,3.471
			c-1.24,0.471-2.246,1.928-2.246,3.255v29.364l30.63,17.682c1.752,1.015,4.073,1.501,6.383,1.474
			c2.188-0.024,4.362-0.514,6.022-1.474l31.054-17.928v-24.382c0-1.326-1.045-2.658-2.332-2.975l-8.456-2.072v-34.447
			c0-1.326-1.043-2.659-2.331-2.978l-7.383-1.825v-25.961c0-1.327-1.033-2.701-2.308-3.067l-5.484-1.578l0.025-25.79
			c0-1.327-0.541-3.332-1.211-4.476l-1.789-3.055l-3.719-23.537c-0.684-0.103-1.386-0.158-2.089-0.167
			c-0.063-0.002-0.127-0.002-0.192-0.002C299.684,287.432,299.135,287.462,298.594,287.52"/>
	</defs>
	<clipPath id="SVGID_6_">
		<use xlink:href="#SVGID_5_"  overflow="visible"/>
	</clipPath>
	<g opacity="0.1" clip-path="url(#SVGID_6_)">
		<g>
			<defs>
				<rect id="SVGID_7_" x="264.32" y="462.15" width="74.22" height="2.21"/>
			</defs>
			<clipPath id="SVGID_8_">
				<use xlink:href="#SVGID_7_"  overflow="visible"/>
			</clipPath>
			<rect x="264.322" y="462.15" clip-path="url(#SVGID_8_)" fill="#1A1918" width="74.22" height="2.209"/>
		</g>
	</g>
	<g opacity="0.1" clip-path="url(#SVGID_6_)">
		<g>
			<defs>
				<rect id="SVGID_9_" x="264.32" y="417.85" width="74.22" height="2.211"/>
			</defs>
			<clipPath id="SVGID_10_">
				<use xlink:href="#SVGID_9_"  overflow="visible"/>
			</clipPath>
			<rect x="264.322" y="417.854" clip-path="url(#SVGID_10_)" fill="#1A1918" width="74.22" height="2.209"/>
		</g>
	</g>
	<g opacity="0.1" clip-path="url(#SVGID_6_)">
		<g>
			<defs>
				<rect id="SVGID_11_" x="264.32" y="410.41" width="74.22" height="2.21"/>
			</defs>
			<clipPath id="SVGID_12_">
				<use xlink:href="#SVGID_11_"  overflow="visible"/>
			</clipPath>
			<rect x="264.322" y="410.406" clip-path="url(#SVGID_12_)" fill="#1A1918" width="74.22" height="2.209"/>
		</g>
	</g>
	<g opacity="0.1" clip-path="url(#SVGID_6_)">
		<g>
			<defs>
				<rect id="SVGID_13_" x="264.32" y="402.96" width="74.22" height="2.21"/>
			</defs>
			<clipPath id="SVGID_14_">
				<use xlink:href="#SVGID_13_"  overflow="visible"/>
			</clipPath>
			<rect x="264.322" y="402.96" clip-path="url(#SVGID_14_)" fill="#1A1918" width="74.22" height="2.209"/>
		</g>
	</g>
	<g opacity="0.1" clip-path="url(#SVGID_6_)">
		<g>
			<defs>
				<rect id="SVGID_15_" x="264.32" y="384.46" width="74.22" height="2.21"/>
			</defs>
			<clipPath id="SVGID_16_">
				<use xlink:href="#SVGID_15_"  overflow="visible"/>
			</clipPath>
			<rect x="264.322" y="384.464" clip-path="url(#SVGID_16_)" fill="#1A1918" width="74.22" height="2.209"/>
		</g>
	</g>
	<g opacity="0.1" clip-path="url(#SVGID_6_)">
		<g>
			<defs>
				<rect id="SVGID_17_" x="264.32" y="377.02" width="74.22" height="2.211"/>
			</defs>
			<clipPath id="SVGID_18_">
				<use xlink:href="#SVGID_17_"  overflow="visible"/>
			</clipPath>
			<rect x="264.322" y="377.018" clip-path="url(#SVGID_18_)" fill="#1A1918" width="74.22" height="2.209"/>
		</g>
	</g>
	<g opacity="0.1" clip-path="url(#SVGID_6_)">
		<g>
			<defs>
				<rect id="SVGID_19_" x="264.32" y="369.57" width="74.22" height="2.21"/>
			</defs>
			<clipPath id="SVGID_20_">
				<use xlink:href="#SVGID_19_"  overflow="visible"/>
			</clipPath>
			<rect x="264.322" y="369.571" clip-path="url(#SVGID_20_)" fill="#1A1918" width="74.22" height="2.209"/>
		</g>
	</g>
	<g opacity="0.1" clip-path="url(#SVGID_6_)">
		<g>
			<defs>
				<rect id="SVGID_21_" x="264.32" y="351.55" width="74.22" height="2.21"/>
			</defs>
			<clipPath id="SVGID_22_">
				<use xlink:href="#SVGID_21_"  overflow="visible"/>
			</clipPath>
			<rect x="264.322" y="351.555" clip-path="url(#SVGID_22_)" fill="#1A1918" width="74.22" height="2.209"/>
		</g>
	</g>
	<g opacity="0.1" clip-path="url(#SVGID_6_)">
		<g>
			<defs>
				<rect id="SVGID_23_" x="264.32" y="344.11" width="74.22" height="2.21"/>
			</defs>
			<clipPath id="SVGID_24_">
				<use xlink:href="#SVGID_23_"  overflow="visible"/>
			</clipPath>
			<rect x="264.322" y="344.109" clip-path="url(#SVGID_24_)" fill="#1A1918" width="74.22" height="2.209"/>
		</g>
	</g>
	<g opacity="0.1" clip-path="url(#SVGID_6_)">
		<g>
			<defs>
				<rect id="SVGID_25_" x="264.32" y="336.66" width="74.22" height="2.21"/>
			</defs>
			<clipPath id="SVGID_26_">
				<use xlink:href="#SVGID_25_"  overflow="visible"/>
			</clipPath>
			<rect x="264.322" y="336.662" clip-path="url(#SVGID_26_)" fill="#1A1918" width="74.22" height="2.209"/>
		</g>
	</g>
</g>
<g>
	<defs>
		<path id="SVGID_27_" d="M294.039,288.906l-65.507,37.818c-3.41,1.971-6.201,6.804-6.201,10.744v75.64
			c0,3.94,2.791,8.773,6.201,10.745l65.507,37.818c1.752,1.014,4.074,1.501,6.385,1.473c2.188-0.024,4.361-0.513,6.021-1.473
			l65.506-37.818c3.41-1.972,6.203-6.805,6.203-10.745v-75.64c0-3.94-2.793-8.773-6.203-10.744l-65.506-37.818
			c-1.66-0.96-3.834-1.448-6.021-1.474c-0.064-0.001-0.128-0.001-0.191-0.001C297.986,287.432,295.742,287.921,294.039,288.906"/>
	</defs>
	<clipPath id="SVGID_28_">
		<use xlink:href="#SVGID_27_"  overflow="visible"/>
	</clipPath>
	<path clip-path="url(#SVGID_28_)" fill="#FFFFFF" d="M394.762,345.143c0-5.357-4.345-9.702-9.703-9.702
		c-0.629,0-1.244,0.063-1.842,0.178c-2.049-5.265-7.162-8.997-13.15-8.997c-5.924,0-10.991,3.65-13.084,8.823
		c-0.049-0.001-0.098-0.004-0.146-0.004c-3.8,0-7.087,2.187-8.679,5.367c-0.335-0.049-0.677-0.075-1.023-0.075
		c-3.897,0-7.056,3.159-7.056,7.057c0,3.896,3.158,7.056,7.056,7.056h38.808v-0.042
		C390.887,354.356,394.762,350.204,394.762,345.143"/>
</g>
<path fill="#1A1A19" d="M300.24,295.712l0.086,0.001c1.125,0.013,1.823,0.272,1.979,0.363l65.507,37.819
	c0.849,0.49,2.062,2.593,2.062,3.573v75.64c0,0.98-1.215,3.083-2.063,3.573l-65.506,37.82c-0.156,0.09-0.854,0.35-1.977,0.363
	h-0.088c-1.168,0-1.898-0.269-2.062-0.363l-65.507-37.82c-0.848-0.49-2.063-2.593-2.063-3.573v-75.64
	c0-0.98,1.214-3.083,2.063-3.573l65.507-37.819C298.342,295.981,299.072,295.712,300.24,295.712 M300.24,287.432
	c-2.248,0-4.496,0.489-6.201,1.473l-65.506,37.82c-3.412,1.97-6.203,6.805-6.203,10.744v75.64c0,3.939,2.791,8.774,6.203,10.744
	l65.506,37.82c1.705,0.985,3.953,1.473,6.201,1.473c0.063,0,0.123,0,0.184-0.001c2.188-0.025,4.361-0.514,6.021-1.472l65.507-37.82
	c3.411-1.97,6.202-6.805,6.202-10.744v-75.64c0-3.939-2.791-8.774-6.202-10.744l-65.507-37.82c-1.659-0.958-3.833-1.445-6.021-1.472
	C300.363,287.432,300.301,287.432,300.24,287.432"/>
</svg>
