<?xml version="1.0" encoding="utf-8"?>
<!-- Generator: Adobe Illustrator 16.0.0, SVG Export Plug-In . SVG Version: 6.00 Build 0)  -->
<!DOCTYPE svg PUBLIC "-//W3C//DTD SVG 1.1//EN" "http://www.w3.org/Graphics/SVG/1.1/DTD/svg11.dtd">
<svg version="1.1" id="Layer_1" xmlns="http://www.w3.org/2000/svg" xmlns:xlink="http://www.w3.org/1999/xlink" x="0px" y="0px"
	 width="215px" height="195px" viewBox="0 0 215 195" enable-background="new 0 0 215 195" xml:space="preserve">
<path fill="#929497" d="M865.52-66.557"/>
<path fill="#929497" d="M-1276.484-66.557"/>
<path fill="#929497" d="M-1276.484-65.807"/>
<path fill="#929497" d="M865.52-65.807"/>
<path fill="#929497" d="M1187.52-65.557"/>
<path fill="#929497" d="M-954.484-65.557"/>
<path fill="#929497" d="M-954.484-64.807"/>
<path fill="#929497" d="M1187.52-64.807"/>
<path fill="none" d="M65.63-1567.76"/>
<path fill="none" d="M65.63,1677.837"/>
<path fill="#FDD00F" d="M172.094,24.982h-64.791h-64.79c-4.155,0-7.524,3.369-7.524,7.525v110.344c0,3.656,2.591,8.144,5.757,9.973
	l60.801,35.104c1.584,0.914,3.672,1.364,5.758,1.364c0.059,0,0.113,0.003,0.172,0.003c2.027-0.024,4.047-0.478,5.588-1.367
	l60.801-35.104c3.166-1.829,5.758-6.315,5.758-9.973V32.508C179.619,28.352,176.25,24.982,172.094,24.982"/>
<g opacity="0.8">
	<g>
		<g>
			<g>
				<defs>
					<rect id="SVGID_1_" x="34.984" y="24.983" width="144.631" height="164.311"/>
				</defs>
				<clipPath id="SVGID_2_">
					<use xlink:href="#SVGID_1_"  overflow="visible"/>
				</clipPath>
				<path clip-path="url(#SVGID_2_)" fill="#FDD00F" d="M172.094,24.982h-64.791h-64.79c-4.155,0-7.524,3.369-7.524,7.525v110.344
					c0,3.656,2.591,8.144,5.757,9.973l60.801,35.104c1.584,0.914,3.672,1.364,5.758,1.364c0.059,0,0.113,0.003,0.172,0.003
					c2.027-0.024,4.047-0.478,5.588-1.367l60.801-35.104c3.166-1.829,5.758-6.315,5.758-9.973V32.508
					C179.619,28.352,176.25,24.982,172.094,24.982"/>
			</g>
		</g>
	</g>
</g>
<g>
	<g>
		<g>
			<defs>
				<path id="SVGID_3_" d="M44.305,27.254c-4.041,0-7.317,3.278-7.317,7.319v107.292c0,3.554,2.52,7.918,5.6,9.692l59.12,34.136
					c1.58,0.912,3.677,1.354,5.763,1.325c1.975-0.021,3.936-0.464,5.434-1.325l59.121-34.136c3.08-1.774,5.597-6.141,5.597-9.692
					V34.573c0-4.041-3.274-7.319-7.315-7.319H44.305z"/>
			</defs>
			<clipPath id="SVGID_4_">
				<use xlink:href="#SVGID_3_"  overflow="visible"/>
			</clipPath>
			<polygon clip-path="url(#SVGID_4_)" fill="#FDD00F" points="183.309,93.773 183.309,126.834 97.742,110.304 			"/>
		</g>
	</g>
	<g>
		<g>
			<defs>
				<path id="SVGID_5_" d="M44.305,27.254c-4.041,0-7.317,3.278-7.317,7.319v107.292c0,3.554,2.52,7.918,5.6,9.692l59.12,34.136
					c1.58,0.912,3.677,1.354,5.763,1.325c1.975-0.021,3.936-0.464,5.434-1.325l59.121-34.136c3.08-1.774,5.597-6.141,5.597-9.692
					V34.573c0-4.041-3.274-7.319-7.315-7.319H44.305z"/>
			</defs>
			<clipPath id="SVGID_6_">
				<use xlink:href="#SVGID_5_"  overflow="visible"/>
			</clipPath>
			<polygon clip-path="url(#SVGID_6_)" fill="#FDD00F" points="31.299,93.773 31.299,126.834 116.864,110.304 			"/>
		</g>
	</g>
	<g>
		<g>
			<defs>
				<path id="SVGID_7_" d="M44.305,27.254c-4.041,0-7.317,3.278-7.317,7.319v107.292c0,3.554,2.52,7.918,5.6,9.692l59.12,34.136
					c1.58,0.912,3.677,1.354,5.763,1.325c1.975-0.021,3.936-0.464,5.434-1.325l59.121-34.136c3.08-1.774,5.597-6.141,5.597-9.692
					V34.573c0-4.041-3.274-7.319-7.315-7.319H44.305z"/>
			</defs>
			<clipPath id="SVGID_8_">
				<use xlink:href="#SVGID_7_"  overflow="visible"/>
			</clipPath>
			<polygon clip-path="url(#SVGID_8_)" fill="#FDD00F" points="123.833,186.309 90.773,186.309 107.303,100.742 			"/>
		</g>
	</g>
	<g>
		<g>
			<defs>
				<path id="SVGID_9_" d="M44.305,27.254c-4.041,0-7.317,3.278-7.317,7.319v107.292c0,3.554,2.52,7.918,5.6,9.692l59.12,34.136
					c1.58,0.912,3.677,1.354,5.763,1.325c1.975-0.021,3.936-0.464,5.434-1.325l59.121-34.136c3.08-1.774,5.597-6.141,5.597-9.692
					V34.573c0-4.041-3.274-7.319-7.315-7.319H44.305z"/>
			</defs>
			<clipPath id="SVGID_10_">
				<use xlink:href="#SVGID_9_"  overflow="visible"/>
			</clipPath>
			<polygon clip-path="url(#SVGID_10_)" fill="#FDD00F" points="123.833,34.299 90.773,34.299 107.303,119.865 			"/>
		</g>
	</g>
	<g>
		<g>
			<defs>
				<path id="SVGID_11_" d="M44.305,27.254c-4.041,0-7.317,3.278-7.317,7.319v107.292c0,3.554,2.52,7.918,5.6,9.692l59.12,34.136
					c1.58,0.912,3.677,1.354,5.763,1.325c1.975-0.021,3.936-0.464,5.434-1.325l59.121-34.136c3.08-1.774,5.597-6.141,5.597-9.692
					V34.573c0-4.041-3.274-7.319-7.315-7.319H44.305z"/>
			</defs>
			<clipPath id="SVGID_12_">
				<use xlink:href="#SVGID_11_"  overflow="visible"/>
			</clipPath>
			<polygon clip-path="url(#SVGID_12_)" fill="#FDD00F" points="35.275,74.45 59.35,44.547 85.76,90.452 			"/>
		</g>
	</g>
	<g>
		<g>
			<defs>
				<path id="SVGID_13_" d="M44.305,27.254c-4.041,0-7.317,3.278-7.317,7.319v107.292c0,3.554,2.52,7.918,5.6,9.692l59.12,34.136
					c1.58,0.912,3.677,1.354,5.763,1.325c1.975-0.021,3.936-0.464,5.434-1.325l59.121-34.136c3.08-1.774,5.597-6.141,5.597-9.692
					V34.573c0-4.041-3.274-7.319-7.315-7.319H44.305z"/>
			</defs>
			<clipPath id="SVGID_14_">
				<use xlink:href="#SVGID_13_"  overflow="visible"/>
			</clipPath>
			<polygon clip-path="url(#SVGID_14_)" fill="#FDD00F" points="180.563,74.45 156.488,44.547 130.078,90.452 			"/>
		</g>
	</g>
	<g>
		<g>
			<defs>
				<path id="SVGID_15_" d="M44.305,27.254c-4.041,0-7.317,3.278-7.317,7.319v107.292c0,3.554,2.52,7.918,5.6,9.692l59.12,34.136
					c1.58,0.912,3.677,1.354,5.763,1.325c1.975-0.021,3.936-0.464,5.434-1.325l59.121-34.136c3.08-1.774,5.597-6.141,5.597-9.692
					V34.573c0-4.041-3.274-7.319-7.315-7.319H44.305z"/>
			</defs>
			<clipPath id="SVGID_16_">
				<use xlink:href="#SVGID_15_"  overflow="visible"/>
			</clipPath>
			<polygon clip-path="url(#SVGID_16_)" fill="#FDD00F" points="180.563,147.735 156.488,177.639 130.078,131.733 			"/>
		</g>
	</g>
	<g>
		<g>
			<defs>
				<path id="SVGID_17_" d="M44.305,27.254c-4.041,0-7.317,3.278-7.317,7.319v107.292c0,3.554,2.52,7.918,5.6,9.692l59.12,34.136
					c1.58,0.912,3.677,1.354,5.763,1.325c1.975-0.021,3.936-0.464,5.434-1.325l59.121-34.136c3.08-1.774,5.597-6.141,5.597-9.692
					V34.573c0-4.041-3.274-7.319-7.315-7.319H44.305z"/>
			</defs>
			<clipPath id="SVGID_18_">
				<use xlink:href="#SVGID_17_"  overflow="visible"/>
			</clipPath>
			<polygon clip-path="url(#SVGID_18_)" fill="#FDD00F" points="35.275,147.735 59.35,177.639 85.76,131.733 			"/>
		</g>
	</g>
</g>
<g opacity="0.5">
	<g>
		<g>
			<g>
				<defs>
					<rect id="SVGID_19_" x="34.984" y="24.983" width="144.631" height="164.311"/>
				</defs>
				<clipPath id="SVGID_20_">
					<use xlink:href="#SVGID_19_"  overflow="visible"/>
				</clipPath>
				<path clip-path="url(#SVGID_20_)" fill="#FFFFFF" d="M165.822,38.779v102.755l-58.521,33.785l-58.52-33.785V38.779H165.822
					 M172.094,24.982H42.513c-4.155,0-7.524,3.369-7.524,7.525V142.85c0,3.657,2.591,8.146,5.757,9.973l60.801,35.104
					c1.584,0.914,3.67,1.368,5.756,1.368c0.059,0,0.115,0,0.174-0.001c2.027-0.023,4.047-0.479,5.588-1.367l60.801-35.104
					c3.167-1.827,5.758-6.314,5.758-9.973V32.508C179.619,28.352,176.25,24.982,172.094,24.982"/>
			</g>
		</g>
	</g>
</g>
<rect x="38.439" y="29.999" fill="#191818" width="137.729" height="33.868"/>
<path fill="#FFFFFF" d="M75.336,52.516V35.173h7.176c3.096,0,4.576,2.056,4.576,4.421c0,2.186-1.195,3.588-2.781,3.979
	c1.77,0.287,3.068,2.105,3.068,4.265c0,2.626-1.482,4.68-4.628,4.68L75.336,52.516L75.336,52.516z M83.527,40.192
	c0-1.17-0.601-1.977-1.849-1.977h-2.857v3.979h2.857C82.928,42.194,83.527,41.388,83.527,40.192 M83.813,47.342
	c0-1.195-0.677-2.132-2.002-2.132h-2.989v4.264h2.989C83.111,49.474,83.813,48.694,83.813,47.342"/>
<path fill="#FFFFFF" d="M89.194,46.536V35.174h3.511v11.388c0,2.055,1.04,3.199,2.885,3.199c1.821,0,2.861-1.145,2.861-3.199V35.174
	h3.511v11.362c0,4.004-2.471,6.292-6.372,6.292C91.665,52.828,89.194,50.54,89.194,46.536"/>
<path fill="#FFFFFF" d="M112.387,52.517l-2.652-6.267h-1.871v6.267h-3.483V35.173h6.476c3.172,0,5.277,2.288,5.277,5.486
	c0,2.991-1.586,4.498-3.017,4.967l3.146,6.891H112.387z M112.568,40.712c0-1.509-0.885-2.471-2.235-2.471h-2.472v4.941h2.472
	C111.684,43.183,112.568,42.221,112.568,40.712"/>
<path fill="#FFFFFF" d="M116.938,50.592l1.717-2.678c0.962,1.066,2.47,1.846,4.186,1.846c1.535,0,2.367-0.856,2.367-1.924
	c0-3.042-7.749-2.002-7.749-7.879c0-2.729,2.132-5.069,5.72-5.069c2.106,0,3.928,0.677,5.252,1.925l-1.662,2.599
	c-1.039-0.988-2.365-1.456-3.719-1.456c-1.248,0-2.027,0.702-2.027,1.769c0,2.704,7.724,1.976,7.724,7.826
	c0,3.042-2.08,5.278-5.877,5.278C120.239,52.828,118.314,51.97,116.938,50.592"/>
<polygon fill="#FFFFFF" points="132.927,52.516 132.927,38.242 129.078,38.242 129.078,35.173 140.258,35.173 140.258,38.242 
	136.41,38.242 136.41,52.516 "/>
<polygon fill="#FDD00F" points="48.104,37.607 48.104,51.607 66.104,44.607 "/>
<polygon fill="#FDD00F" points="167.104,37.607 167.104,51.607 149.104,44.607 "/>
<path fill="#1A1A19" d="M172.094,32.188c0.178,0,0.32,0.145,0.32,0.32v110.343c0,1.094-1.209,3.188-2.154,3.733l-60.803,35.104
	c-0.23,0.134-0.959,0.39-2.071,0.4l-0.085,0.001c-1.068,0-1.871-0.24-2.152-0.401l-60.801-35.104
	c-0.946-0.547-2.155-2.641-2.155-3.733V32.508c0-0.176,0.146-0.32,0.321-0.32H172.094 M172.094,24.982H42.513
	c-4.155,0-7.524,3.369-7.524,7.525V142.85c0,3.657,2.591,8.146,5.757,9.973l60.801,35.104c1.584,0.914,3.67,1.368,5.756,1.368
	c0.059,0,0.115,0,0.174-0.001c2.027-0.023,4.047-0.479,5.588-1.367l60.801-35.104c3.167-1.827,5.758-6.314,5.758-9.973V32.508
	C179.619,28.352,176.25,24.982,172.094,24.982"/>
<path fill="#FFFFFF" d="M147.643,90.776h-23.106c0-5.136-5.138-7.702-5.138-7.702l-10.27,7.702l-24.99,17.492l-0.686,0.48
	c0,0-12.837,5.135-20.539,7.702c-7.703,2.566-7.703,12.838-7.703,12.838v6.769h94.998v-6.769L147.643,90.776z"/>
<path fill="#F8D016" d="M81.598,121.917l42.853-30.535l-4.45-7.099l-11.489,9.027L81.58,111.554l-0.737,0.5
	c0,0-2.811,1.088-6.656,2.528l-0.008,0.032L81.598,121.917z"/>
<path fill="#F8D016" d="M83.432,108.758c-0.557,0.225-12.99,5.186-20.519,7.694c-3.806,1.268-5.728,4.415-6.702,7.274h38.182
	L83.432,108.758z"/>
<path fill="#191818" d="M148.693,106.549l-0.367-5.502h-21.225L100,121.587H57.121c-0.936,1.791-1.413,3.677-1.656,5.135h74.35
	C130.941,116.523,138.706,108.331,148.693,106.549"/>
<rect x="54.395" y="126.723" fill="#FFFFFF" width="96.632" height="9.336"/>
<path fill="#191818" d="M151.979,138.179H53.44l0.028-11.805c0.302-1.812,0.816-4.173,2.13-6.414l0.067-0.114
	c0.101-0.165,0.203-0.329,0.31-0.492c0.147-0.227,0.28-0.418,0.42-0.605c0.166-0.225,0.309-0.408,0.457-0.589
	c0.188-0.226,0.346-0.404,0.509-0.578c0.206-0.219,0.374-0.388,0.549-0.553l0.078-0.07c0.146-0.139,0.332-0.304,0.523-0.461
	l0.107-0.084c0.129-0.108,0.332-0.265,0.543-0.413c0.254-0.18,0.475-0.325,0.705-0.462c0.239-0.146,0.461-0.271,0.689-0.388
	l0.108-0.057c0.207-0.104,0.461-0.222,0.727-0.334l0.174-0.071c0.22-0.088,0.445-0.171,0.677-0.247l1.784-0.607l0.832,1.956
	l-0.699-2.002l2.343-0.831l0.836,1.952l-0.729-1.991l2.002-0.73l0.824,1.955l-0.729-1.99l4.686-1.756
	c1.262-0.479,2.551-0.978,3.72-1.433l2.127-0.828l0.858,1.941l-0.692-2.006l0.166-0.065l0.813,1.958l-0.717-1.997l0.703-0.276
	l0.877,1.936l-0.77-1.978l1.965-0.775L109.4,87.927l9.773-7.333l1.172,0.586c0.229,0.114,4.961,2.536,6.072,7.479h23.205
	l2.189,32.854l0.162,5.146L151.979,138.179z M57.681,133.938h90.06v-7.217l-0.159-5.004l-1.923-28.82h-23.243v-2.12
	c0-2.482-1.748-4.229-2.922-5.12l-7.602,5.699l-27.424,19.271l-3.525,1.394l-0.877-1.933l0.783,1.97l-0.18,0.07l-0.934-1.912
	l0.774,1.975l-1.896,0.736c-1.12,0.438-2.387,0.924-3.71,1.428l-0.086,0.032l-0.009,0.003l-5.926,2.211l-0.826-1.955l0.728,1.991
	l-1.556,0.563l-0.848-1.949l0.709,1.998l-2.26,0.793l-0.76-1.982l0.624,2.028l-1.11,0.375c-0.189,0.063-0.369,0.132-0.543,0.205
	l-0.078,0.032c-0.143,0.061-0.279,0.126-0.416,0.193c-0.162,0.082-0.301,0.158-0.432,0.237l-0.085,0.051v-0.001
	c-0.169,0.106-0.284,0.184-0.396,0.262c-0.156,0.109-0.283,0.208-0.404,0.309l-0.105,0.081c-0.049,0.044-0.166,0.146-0.28,0.255
	c-0.142,0.132-0.255,0.247-0.364,0.363c-0.131,0.139-0.235,0.259-0.336,0.38c-0.121,0.146-0.223,0.274-0.317,0.404
	c-0.113,0.152-0.207,0.287-0.296,0.425c-0.098,0.147-0.186,0.291-0.27,0.434L59.2,122.2c-0.886,1.554-1.281,3.304-1.521,4.7v7.038
	L57.681,133.938L57.681,133.938z"/>
<polygon fill="#191818" points="115.699,83.993 122.59,92.872 123.386,89.559 119.807,83.33 "/>
<polygon fill="#191818" points="112.402,88.947 115.857,97.425 109.002,91.358 "/>
<polygon fill="#191818" points="105.95,93.544 109.406,102.021 102.55,95.955 "/>
<polygon fill="#191818" points="99.498,98.141 102.953,106.618 96.097,100.552 "/>
<polygon fill="#191818" points="93.045,102.738 96.501,111.216 89.645,105.149 "/>
<polygon fill="#191818" points="86.594,107.335 90.049,115.813 83.191,109.746 "/>
<path fill="#FFFFFF" d="M127.161,110.207c1.054,0.401,4.093,0.646,5.479-2.996c1.188-3.12,1.547-4.062,4.564-4.363
	c3.15-0.314,4.847-2.222,5.615-3.432c0.869,0.084,2.158,0.019,3.664-0.656c2.14-0.959,3.078-2.441,3.689-3.84
	c1.23,0.199,2.438-0.001,3.553-0.598c4.237-2.274,5.976-9.772,6.045-10.09c0.136-0.594-0.155-1.2-0.703-1.468
	c-0.034-0.018-0.071-0.032-0.108-0.047c-0.521-0.199-1.121-0.045-1.479,0.396c-0.02,0.02-3.215,3.543-12.42,1.688
	c-11.063-2.228-16.449,7.209-16.502,7.306c-0.104,0.185-0.16,0.393-0.166,0.604c-0.188,7.904-2.022,15.895-2.043,15.975
	C126.203,109.324,126.549,109.975,127.161,110.207"/>
<path fill="#1A1A19" d="M159.587,84.358c0,0-2.677,11.858-9.103,9.411c-0.612,1.606-1.227,3.214-3.443,4.208
	c-2.218,0.995-3.825,0.384-3.825,0.384s-1.224,3.213-5.049,3.598c-3.824,0.382-4.437,1.988-5.66,5.201
	c-1.224,3.215-3.788,2.236-3.788,2.236s1.881-8.098,2.076-16.237c0,0,4.846-8.722,15.098-6.656S159.587,84.358,159.587,84.358
	 M160.559,81.835c-1.088-0.414-2.275-0.114-2.975,0.829c-0.318,0.299-3.314,2.853-11.174,1.27
	c-6.264-1.261-10.805,0.961-13.512,3.048c-2.838,2.189-4.244,4.634-4.396,4.905c-0.206,0.371-0.316,0.786-0.329,1.21
	c-0.187,7.762-1.989,15.63-2.01,15.709c-0.296,1.276,0.396,2.576,1.62,3.042c2.016,0.77,5.589,0.402,7.171-3.754
	c1.165-3.057,1.259-3.305,3.472-3.526c2.977-0.299,4.98-1.872,6.155-3.395c0.969-0.008,2.18-0.196,3.528-0.802
	c2.102-0.941,3.226-2.313,3.941-3.648c1.168,0.024,2.311-0.254,3.385-0.829c4.682-2.512,6.514-10.1,6.705-10.958
	c0.274-1.217-0.295-2.528-1.435-3.038C160.658,81.875,160.607,81.854,160.559,81.835"/>
<path fill="#1A1A19" d="M151.784,95.772c0,0-0.073-0.041-0.2-0.112c-0.123-0.064-0.331-0.209-0.559-0.355
	c-0.487-0.287-0.979-0.75-1.515-1.178c-0.27-0.205-0.493-0.462-0.723-0.683c-0.224-0.225-0.431-0.433-0.604-0.609
	c-0.353-0.354-0.584-0.591-0.584-0.591s0.295,0.154,0.736,0.387c0.221,0.114,0.477,0.247,0.75,0.391
	c0.273,0.139,0.557,0.308,0.865,0.416c0.604,0.233,1.201,0.518,1.632,0.606c0.224,0.059,0.375,0.115,0.522,0.143
	c0.145,0.029,0.226,0.046,0.226,0.046L151.784,95.772z"/>
<path fill="#1A1A19" d="M144.926,100.658c0,0-0.072-0.041-0.199-0.113c-0.123-0.063-0.332-0.208-0.559-0.354
	c-0.488-0.287-0.979-0.75-1.514-1.18c-0.271-0.205-0.496-0.462-0.725-0.682c-0.223-0.224-0.43-0.432-0.605-0.61
	c-0.352-0.354-0.584-0.591-0.584-0.591s0.295,0.155,0.738,0.387c0.221,0.114,0.477,0.247,0.75,0.393
	c0.275,0.137,0.557,0.306,0.863,0.416c0.604,0.23,1.205,0.516,1.635,0.604c0.221,0.062,0.375,0.116,0.523,0.146
	c0.143,0.028,0.223,0.046,0.223,0.046L144.926,100.658z"/>
<path fill="#1A1A19" d="M139.91,104.103c0,0-0.083,0-0.229-0.001c-0.142,0.004-0.393-0.021-0.662-0.041
	c-0.564-0.014-1.221-0.18-1.895-0.295c-0.336-0.049-0.658-0.164-0.964-0.246c-0.304-0.088-0.584-0.17-0.826-0.239
	c-0.479-0.14-0.798-0.231-0.798-0.231s0.334-0.009,0.834-0.021c0.247-0.006,0.536-0.016,0.846-0.021
	c0.309-0.015,0.635-0.001,0.958-0.056c0.642-0.09,1.304-0.133,1.722-0.262c0.224-0.057,0.386-0.081,0.527-0.131
	c0.141-0.043,0.219-0.067,0.219-0.067L139.91,104.103z"/>
</svg>
