<?xml version="1.0" encoding="utf-8"?>
<!-- Generator: Adobe Illustrator 16.0.0, SVG Export Plug-In . SVG Version: 6.00 Build 0)  -->
<!DOCTYPE svg PUBLIC "-//W3C//DTD SVG 1.1//EN" "http://www.w3.org/Graphics/SVG/1.1/DTD/svg11.dtd">
<svg version="1.1" id="Layer_1" xmlns="http://www.w3.org/2000/svg" xmlns:xlink="http://www.w3.org/1999/xlink" x="0px" y="0px"
	 width="612px" height="792px" viewBox="0 0 612 792" enable-background="new 0 0 612 792" xml:space="preserve">
<line fill="none" x1="-5199.441" y1="516.837" x2="570.425" y2="516.837"/>
<polygon fill="#A6A8AC" points="195.445,492.229 191.765,479.053 188.086,492.229 186.615,492.229 182.222,476.892 183.693,476.892 
	187.396,490.39 191.168,476.892 192.363,476.892 196.111,490.39 199.813,476.892 201.285,476.892 196.916,492.229 "/>
<path fill="#A6A8AC" d="M216.374,492.23l-1.519-3.772h-8.117l-1.518,3.772h-1.518l6.279-15.338h1.631l6.278,15.338H216.374z
	 M210.809,478.294l-3.633,8.97h7.243L210.809,478.294z"/>
<polygon fill="#A6A8AC" points="222.586,492.229 222.586,476.892 223.919,476.892 223.919,491.033 231.348,491.033 231.348,492.229 
	"/>
<polygon fill="#A6A8AC" points="246.137,492.229 239.813,485.009 238.111,486.872 238.111,492.229 236.8,492.229 236.8,476.892 
	238.111,476.892 238.111,485.286 245.516,476.892 247.195,476.892 240.663,484.205 247.814,492.229 "/>
<polygon fill="#A6A8AC" points="263.709,492.229 263.709,478.686 261.248,481.307 260.443,480.457 263.824,476.892 265.02,476.892 
	265.02,492.229 "/>
<polygon fill="#A6A8AC" points="280.934,492.229 274.611,485.009 272.91,486.872 272.91,492.229 271.598,492.229 271.598,476.892 
	272.91,476.892 272.91,485.286 280.314,476.892 281.992,476.892 275.461,484.205 282.613,492.229 "/>
<path fill="#A6A8AC" d="M295.703,490.067l0.85-0.987c0.99,1.127,2.599,2.229,4.807,2.229c3.127,0,4.023-1.748,4.023-3.058
	c0-4.508-9.197-2.162-9.197-7.521c0-2.506,2.253-4.093,5.035-4.093c2.277,0,4.025,0.805,5.197,2.161l-0.873,0.966
	c-1.104-1.333-2.668-1.931-4.393-1.931c-2.047,0-3.588,1.172-3.588,2.829c0,3.931,9.199,1.77,9.199,7.496
	c0,1.977-1.311,4.346-5.45,4.346C298.783,492.506,296.875,491.471,295.703,490.067"/>
<polygon fill="#A6A8AC" points="316.518,492.229 316.518,478.087 311.504,478.087 311.504,476.892 322.863,476.892 322.863,478.087 
	317.852,478.087 317.852,492.229 "/>
<polygon fill="#A6A8AC" points="328.34,492.229 328.34,476.892 338.066,476.892 338.066,478.087 329.65,478.087 329.65,483.768 
	337.905,483.768 337.905,484.963 329.65,484.963 329.65,491.033 338.066,491.033 338.066,492.229 "/>
<path fill="#A6A8AC" d="M344.072,492.23v-15.338h5.748c2.943,0,4.623,2.068,4.623,4.483c0,2.414-1.701,4.483-4.623,4.483h-4.438
	v6.371H344.072z M353.063,481.376c0-1.932-1.332-3.289-3.38-3.289h-4.3v6.577h4.3C351.73,484.664,353.063,483.284,353.063,481.376"
	/>
<path fill="#A6A8AC" d="M359.113,490.067l0.852-0.987c0.988,1.127,2.598,2.229,4.806,2.229c3.127,0,4.024-1.748,4.024-3.058
	c0-4.508-9.198-2.162-9.198-7.521c0-2.506,2.253-4.093,5.036-4.093c2.277,0,4.023,0.805,5.197,2.161l-0.875,0.966
	c-1.104-1.333-2.666-1.931-4.392-1.931c-2.047,0-3.588,1.172-3.588,2.829c0,3.931,9.198,1.77,9.198,7.496
	c0,1.977-1.311,4.346-5.449,4.346C362.194,492.506,360.287,491.471,359.113,490.067"/>
<rect x="384.804" y="476.892" fill="#A6A8AC" width="1.312" height="15.339"/>
<polygon fill="#A6A8AC" points="403.662,492.229 394.006,479.053 394.006,492.229 392.693,492.229 392.693,476.892 394.027,476.892 
	403.641,489.884 403.641,476.892 404.95,476.892 404.95,492.229 "/>
<polygon fill="#A6A8AC" points="196.551,519.829 196.551,505.688 191.537,505.688 191.537,504.491 202.896,504.491 202.896,505.688 
	197.885,505.688 197.885,519.829 "/>
<polygon fill="#A6A8AC" points="219.41,519.829 219.41,512.54 209.684,512.54 209.684,519.829 208.373,519.829 208.373,504.491 
	209.684,504.491 209.684,511.345 219.41,511.345 219.41,504.491 220.721,504.491 220.721,519.829 "/>
<polygon fill="#A6A8AC" points="227.301,519.829 227.301,504.491 237.029,504.491 237.029,505.688 228.613,505.688 228.613,511.367 
	236.867,511.367 236.867,512.563 228.613,512.563 228.613,518.635 237.029,518.635 237.029,519.829 "/>
<polygon fill="#A6A8AC" points="262.719,519.829 253.063,506.653 253.063,519.829 251.75,519.829 251.75,504.491 253.084,504.491 
	262.697,517.483 262.697,504.491 264.007,504.491 264.007,519.829 "/>
<polygon fill="#A6A8AC" points="270.588,519.829 270.588,504.491 280.314,504.491 280.314,505.688 271.898,505.688 271.898,511.367 
	280.153,511.367 280.153,512.563 271.898,512.563 271.898,518.635 280.314,518.635 280.314,519.829 "/>
<polygon fill="#A6A8AC" points="297.174,519.829 291.814,512.907 286.48,519.829 284.848,519.829 291.01,511.965 285.193,504.491 
	286.848,504.491 291.814,510.999 296.805,504.491 298.46,504.491 292.643,511.941 298.805,519.829 "/>
<polygon fill="#A6A8AC" points="307.824,519.829 307.824,505.688 302.811,505.688 302.811,504.491 314.17,504.491 314.17,505.688 
	309.158,505.688 309.158,519.829 "/>
<polygon fill="#A6A8AC" points="339.4,519.829 339.4,512.54 329.674,512.54 329.674,519.829 328.363,519.829 328.363,504.491 
	329.674,504.491 329.674,511.345 339.4,511.345 339.4,504.491 340.711,504.491 340.711,519.829 "/>
<path fill="#A6A8AC" d="M346.717,512.172c0-4.483,2.943-7.934,7.451-7.934c4.483,0,7.449,3.45,7.449,7.934
	c0,4.484-2.966,7.935-7.449,7.935C349.66,520.106,346.717,516.656,346.717,512.172 M360.238,512.172c0-3.887-2.393-6.736-6.07-6.736
	c-3.703,0-6.071,2.85-6.071,6.736c0,3.863,2.368,6.737,6.071,6.737C357.846,518.909,360.238,516.035,360.238,512.172"/>
<path fill="#A6A8AC" d="M367.625,513.942v-9.451h1.334v9.429c0,3.104,1.633,4.99,4.645,4.99s4.645-1.887,4.645-4.99v-9.429h1.334
	v9.451c0,3.794-2.023,6.163-5.979,6.163C369.672,520.105,367.625,517.714,367.625,513.942"/>
<path fill="#A6A8AC" d="M395.152,519.83l-4.299-6.348h-3.381v6.348h-1.312v-15.338h5.728c2.643,0,4.668,1.678,4.668,4.483
	c0,2.782-1.955,4.323-4.256,4.415l4.438,6.439H395.152z M395.176,508.976c0-1.932-1.355-3.288-3.402-3.288h-4.301v6.601h4.301
	C393.82,512.288,395.176,510.908,395.176,508.976"/>
<path fill="#FECF0A" d="M359.094,269.982h-64.791h-64.79c-4.156,0-7.525,3.369-7.525,7.525v110.344c0,3.656,2.591,8.143,5.757,9.972
	l60.801,35.104c1.584,0.914,3.672,1.364,5.758,1.364c0.057,0,0.113,0.003,0.17,0.003c2.029-0.024,4.047-0.478,5.588-1.367
	l60.801-35.104c3.167-1.829,5.758-6.315,5.758-9.972V277.508C366.619,273.352,363.25,269.982,359.094,269.982"/>
<g opacity="0.8">
	<g>
		<defs>
			<rect id="SVGID_1_" x="221.984" y="269.983" width="144.631" height="164.311"/>
		</defs>
		<clipPath id="SVGID_2_">
			<use xlink:href="#SVGID_1_"  overflow="visible"/>
		</clipPath>
		<path clip-path="url(#SVGID_2_)" fill="#FECF0A" d="M359.094,269.982h-64.791h-64.79c-4.156,0-7.525,3.369-7.525,7.525v110.344
			c0,3.656,2.591,8.143,5.757,9.972l60.801,35.104c1.584,0.914,3.672,1.364,5.758,1.364c0.057,0,0.113,0.003,0.17,0.003
			c2.029-0.024,4.047-0.478,5.588-1.367l60.801-35.104c3.167-1.829,5.758-6.315,5.758-9.972V277.508
			C366.619,273.352,363.25,269.982,359.094,269.982"/>
	</g>
</g>
<g>
	<defs>
		<path id="SVGID_3_" d="M231.305,272.254c-4.041,0-7.318,3.278-7.318,7.319v107.292c0,3.554,2.52,7.918,5.6,9.693l59.12,34.135
			c1.58,0.913,3.677,1.354,5.762,1.326c1.974-0.021,3.935-0.463,5.433-1.326l59.121-34.135c3.08-1.775,5.597-6.14,5.597-9.693
			V279.573c0-4.041-3.275-7.319-7.316-7.319H231.305z"/>
	</defs>
	<clipPath id="SVGID_4_">
		<use xlink:href="#SVGID_3_"  overflow="visible"/>
	</clipPath>
	<polygon clip-path="url(#SVGID_4_)" fill="#FECF0A" points="370.309,338.773 370.309,371.834 284.742,355.304 	"/>
	<polygon clip-path="url(#SVGID_4_)" fill="#FECF0A" points="218.299,338.773 218.299,371.834 303.864,355.304 	"/>
	<polygon clip-path="url(#SVGID_4_)" fill="#FECF0A" points="310.833,431.309 277.773,431.309 294.303,345.742 	"/>
	<polygon clip-path="url(#SVGID_4_)" fill="#FECF0A" points="310.833,279.299 277.773,279.299 294.303,364.865 	"/>
	<polygon clip-path="url(#SVGID_4_)" fill="#FECF0A" points="222.275,319.45 246.35,289.547 272.76,335.452 	"/>
	<polygon clip-path="url(#SVGID_4_)" fill="#FECF0A" points="367.563,319.45 343.488,289.547 317.078,335.452 	"/>
	<polygon clip-path="url(#SVGID_4_)" fill="#FECF0A" points="367.563,392.735 343.488,422.639 317.078,376.733 	"/>
	<polygon clip-path="url(#SVGID_4_)" fill="#FECF0A" points="222.275,392.735 246.35,422.639 272.76,376.733 	"/>
</g>
<g opacity="0.5">
	<g>
		<defs>
			<rect id="SVGID_5_" x="221.984" y="269.983" width="144.631" height="164.311"/>
		</defs>
		<clipPath id="SVGID_6_">
			<use xlink:href="#SVGID_5_"  overflow="visible"/>
		</clipPath>
		<path clip-path="url(#SVGID_6_)" fill="#FFFFFF" d="M352.822,283.779v102.755l-58.52,33.785l-58.52-33.785V283.779H352.822
			 M359.094,269.982H229.513c-4.156,0-7.525,3.369-7.525,7.525v110.343c0,3.657,2.591,8.145,5.757,9.972l60.801,35.104
			c1.584,0.914,3.67,1.368,5.756,1.368c0.058,0,0.115,0,0.172-0.001c2.029-0.024,4.047-0.479,5.588-1.367l60.801-35.104
			c3.167-1.827,5.758-6.314,5.758-9.972V277.508C366.619,273.352,363.25,269.982,359.094,269.982"/>
	</g>
</g>
<rect x="225.439" y="274.999" fill="#191818" width="137.729" height="33.868"/>
<path fill="#FFFFFF" d="M262.336,297.516v-17.343h7.176c3.096,0,4.576,2.056,4.576,4.421c0,2.185-1.195,3.588-2.781,3.978
	c1.769,0.287,3.068,2.106,3.068,4.265c0,2.626-1.482,4.68-4.628,4.68H262.336z M270.527,285.192c0-1.17-0.6-1.977-1.848-1.977
	h-2.858v3.979h2.858C269.928,287.194,270.527,286.388,270.527,285.192 M270.813,292.342c0-1.195-0.677-2.132-2.003-2.132h-2.989
	v4.264h2.989C270.111,294.474,270.813,293.694,270.813,292.342"/>
<path fill="#FFFFFF" d="M276.194,291.536v-11.362h3.511v11.388c0,2.055,1.04,3.199,2.885,3.199c1.821,0,2.861-1.145,2.861-3.199
	v-11.388h3.511v11.362c0,4.004-2.471,6.292-6.372,6.292C278.665,297.828,276.194,295.54,276.194,291.536"/>
<path fill="#FFFFFF" d="M299.387,297.517l-2.652-6.267h-1.872v6.267h-3.484v-17.344h6.474c3.172,0,5.279,2.288,5.279,5.486
	c0,2.991-1.586,4.498-3.017,4.967l3.146,6.891H299.387z M299.569,285.712c0-1.509-0.886-2.471-2.236-2.471h-2.471v4.941h2.471
	C298.684,288.183,299.569,287.221,299.569,285.712"/>
<path fill="#FFFFFF" d="M303.937,295.592l1.716-2.678c0.962,1.066,2.47,1.846,4.186,1.846c1.535,0,2.367-0.857,2.367-1.924
	c0-3.042-7.749-2.002-7.749-7.879c0-2.729,2.132-5.069,5.72-5.069c2.106,0,3.926,0.677,5.252,1.925l-1.664,2.599
	c-1.039-0.988-2.364-1.456-3.717-1.456c-1.248,0-2.029,0.702-2.029,1.769c0,2.704,7.724,1.976,7.724,7.826
	c0,3.042-2.08,5.278-5.877,5.278C307.239,297.828,305.314,296.97,303.937,295.592"/>
<polygon fill="#FFFFFF" points="319.927,297.516 319.927,283.242 316.078,283.242 316.078,280.173 327.258,280.173 327.258,283.242 
	323.41,283.242 323.41,297.516 "/>
<polygon fill="#FECF0A" points="235.103,282.607 235.103,296.607 253.103,289.607 "/>
<polygon fill="#FECF0A" points="354.103,282.607 354.103,296.607 336.103,289.607 "/>
<path fill="#1A1A19" d="M359.094,277.188c0.177,0,0.32,0.145,0.32,0.32v110.343c0,1.093-1.209,3.187-2.154,3.733l-60.803,35.104
	c-0.23,0.133-0.959,0.389-2.071,0.401l-0.085,0.001c-1.068,0-1.872-0.241-2.152-0.402l-60.802-35.104
	c-0.947-0.547-2.155-2.641-2.155-3.733V277.508c0-0.176,0.145-0.32,0.321-0.32H359.094 M359.094,269.982H229.513
	c-4.156,0-7.525,3.369-7.525,7.525v110.343c0,3.657,2.591,8.145,5.757,9.972l60.801,35.104c1.584,0.914,3.67,1.368,5.756,1.368
	c0.058,0,0.115,0,0.172-0.001c2.029-0.024,4.047-0.479,5.588-1.367l60.801-35.104c3.167-1.827,5.758-6.314,5.758-9.972V277.508
	C366.619,273.352,363.25,269.982,359.094,269.982"/>
<path fill="#FFFFFF" d="M334.642,335.776h-23.107c0-5.135-5.136-7.702-5.136-7.702l-10.27,7.702l-24.99,17.493l-0.686,0.48
	c0,0-12.837,5.135-20.539,7.702c-7.703,2.567-7.703,12.838-7.703,12.838v6.769h94.998v-6.769L334.642,335.776z"/>
<path fill="#F8D012" d="M268.598,366.917l42.852-30.535L307,329.283l-11.489,9.028l-26.932,18.243l-0.737,0.5
	c0,0-2.811,1.088-6.656,2.528l-0.008,0.032L268.598,366.917z"/>
<path fill="#F8D012" d="M270.432,353.758c-0.557,0.224-12.99,5.185-20.519,7.694c-3.806,1.268-5.728,4.415-6.702,7.275h38.182
	L270.432,353.758z"/>
<path fill="#191818" d="M335.693,351.549l-0.367-5.502h-21.225L287,366.587h-42.879c-0.936,1.791-1.413,3.677-1.656,5.135h74.35
	C317.941,361.523,325.706,353.331,335.693,351.549"/>
<rect x="241.395" y="371.723" fill="#FFFFFF" width="96.632" height="9.336"/>
<path fill="#191818" d="M338.979,383.179H240.44l0.028-11.805c0.302-1.811,0.816-4.173,2.13-6.414l0.067-0.114
	c0.1-0.165,0.203-0.329,0.309-0.492c0.148-0.227,0.281-0.418,0.421-0.606c0.166-0.225,0.308-0.408,0.457-0.589
	c0.187-0.225,0.345-0.404,0.508-0.578c0.206-0.219,0.374-0.388,0.549-0.553l0.078-0.07c0.147-0.139,0.332-0.304,0.524-0.461
	l0.107-0.084c0.129-0.108,0.332-0.265,0.543-0.413c0.254-0.18,0.475-0.325,0.705-0.462c0.239-0.146,0.461-0.271,0.69-0.388
	l0.108-0.056c0.207-0.104,0.461-0.222,0.726-0.334l0.175-0.071c0.219-0.088,0.445-0.171,0.676-0.248l1.784-0.607l0.832,1.956
	l-0.699-2.002l2.343-0.831l0.836,1.952l-0.729-1.991l2.001-0.73l0.825,1.955l-0.729-1.991l4.686-1.755
	c1.261-0.48,2.551-0.978,3.719-1.433l2.127-0.828l0.859,1.941l-0.693-2.006l0.166-0.065l0.814,1.958l-0.717-1.997l0.703-0.276
	l0.877,1.935l-0.77-1.977l1.965-0.776l26.959-18.946l9.775-7.333l1.172,0.586c0.228,0.114,4.959,2.536,6.072,7.479h23.205
	l2.19,32.854l0.163,5.146L338.979,383.179z M244.681,378.938h90.059v-7.217l-0.159-5.004l-1.923-28.821h-23.243v-2.12
	c0-2.482-1.748-4.229-2.922-5.12l-7.601,5.699l-27.423,19.271l-3.525,1.394l-0.878-1.933l0.784,1.97l-0.18,0.07l-0.934-1.912
	l0.775,1.974l-1.896,0.737c-1.12,0.437-2.387,0.924-3.71,1.427l-0.086,0.033l-0.009,0.003l-5.925,2.211l-0.827-1.955l0.728,1.991
	l-1.556,0.563l-0.847-1.949l0.709,1.998l-2.26,0.793l-0.76-1.982l0.624,2.028l-1.11,0.375c-0.189,0.063-0.369,0.132-0.543,0.205
	l-0.078,0.032c-0.143,0.061-0.28,0.126-0.416,0.194c-0.162,0.082-0.301,0.158-0.432,0.237l-0.085,0.051v-0.001
	c-0.169,0.106-0.284,0.182-0.395,0.261c-0.156,0.11-0.283,0.208-0.405,0.309l-0.105,0.081c-0.049,0.044-0.166,0.147-0.28,0.255
	c-0.142,0.132-0.255,0.247-0.365,0.363c-0.13,0.139-0.235,0.259-0.335,0.38c-0.122,0.146-0.223,0.275-0.318,0.404
	c-0.113,0.153-0.207,0.288-0.296,0.425c-0.098,0.149-0.185,0.291-0.269,0.434l-0.064,0.108c-0.885,1.554-1.281,3.304-1.521,4.7
	V378.938z"/>
<polygon fill="#191818" points="302.699,328.993 309.59,337.872 310.386,334.559 306.807,328.33 "/>
<polygon fill="#191818" points="299.402,333.947 302.858,342.425 296.002,336.358 "/>
<polygon fill="#191818" points="292.95,338.544 296.406,347.021 289.55,340.955 "/>
<polygon fill="#191818" points="286.498,343.141 289.953,351.618 283.097,345.552 "/>
<polygon fill="#191818" points="280.045,347.738 283.501,356.216 276.645,350.149 "/>
<polygon fill="#191818" points="273.594,352.335 277.049,360.813 270.191,354.746 "/>
<path fill="#FFFFFF" d="M314.161,355.207c1.054,0.401,4.093,0.646,5.479-2.996c1.189-3.12,1.548-4.062,4.566-4.363
	c3.151-0.316,4.847-2.222,5.616-3.432c0.869,0.084,2.158,0.019,3.664-0.656c2.139-0.959,3.078-2.442,3.69-3.84
	c1.231,0.199,2.438-0.001,3.552-0.598c4.238-2.274,5.975-9.772,6.045-10.09c0.135-0.593-0.156-1.2-0.703-1.467
	c-0.035-0.018-0.072-0.033-0.109-0.047c-0.521-0.199-1.121-0.045-1.48,0.396c-0.019,0.02-3.215,3.543-12.42,1.688
	c-11.063-2.228-16.449,7.209-16.502,7.305c-0.104,0.185-0.16,0.393-0.166,0.604c-0.188,7.904-2.023,15.895-2.043,15.975
	C313.203,354.324,313.549,354.975,314.161,355.207"/>
<path fill="#1A1A19" d="M346.587,329.358c0,0-2.677,11.859-9.103,9.412c-0.612,1.606-1.225,3.213-3.443,4.208
	s-3.825,0.383-3.825,0.383s-1.224,3.213-5.049,3.598c-3.824,0.382-4.437,1.988-5.66,5.201c-1.224,3.215-3.788,2.237-3.788,2.237
	s1.881-8.098,2.076-16.238c0,0,4.846-8.721,15.098-6.656S346.587,329.358,346.587,329.358 M347.559,326.835
	c-1.088-0.414-2.277-0.114-2.975,0.829c-0.319,0.299-3.314,2.853-11.174,1.27c-6.264-1.261-10.805,0.961-13.512,3.047
	c-2.838,2.19-4.244,4.634-4.395,4.906c-0.206,0.371-0.318,0.786-0.329,1.21c-0.187,7.761-1.991,15.63-2.01,15.709
	c-0.296,1.276,0.396,2.576,1.62,3.042c2.016,0.768,5.589,0.402,7.171-3.754c1.165-3.057,1.259-3.305,3.472-3.527
	c2.975-0.298,4.98-1.872,6.155-3.394c0.969-0.008,2.18-0.196,3.53-0.802c2.1-0.941,3.224-2.313,3.941-3.648
	c1.168,0.024,2.311-0.254,3.385-0.829c4.68-2.512,6.512-10.1,6.705-10.958c0.274-1.217-0.295-2.529-1.435-3.038
	C347.658,326.875,347.607,326.854,347.559,326.835"/>
<path fill="#1A1A19" d="M338.784,340.772c0,0-0.073-0.041-0.2-0.112c-0.123-0.064-0.331-0.209-0.559-0.355
	c-0.487-0.287-0.979-0.75-1.513-1.178c-0.27-0.205-0.495-0.462-0.723-0.683c-0.222-0.224-0.429-0.432-0.606-0.609
	c-0.351-0.354-0.584-0.591-0.584-0.591s0.295,0.154,0.738,0.387c0.219,0.114,0.475,0.247,0.75,0.391
	c0.275,0.138,0.555,0.307,0.865,0.416c0.604,0.233,1.203,0.517,1.632,0.606c0.222,0.059,0.375,0.115,0.524,0.143
	c0.143,0.029,0.224,0.046,0.224,0.046L338.784,340.772z"/>
<path fill="#1A1A19" d="M331.926,345.658c0,0-0.073-0.041-0.2-0.113c-0.123-0.063-0.331-0.208-0.558-0.354
	c-0.488-0.287-0.979-0.75-1.514-1.179c-0.27-0.205-0.496-0.462-0.723-0.682c-0.223-0.224-0.43-0.432-0.607-0.61
	c-0.35-0.354-0.584-0.591-0.584-0.591s0.295,0.155,0.739,0.387c0.22,0.114,0.476,0.247,0.75,0.392
	c0.276,0.137,0.556,0.306,0.864,0.416c0.604,0.232,1.205,0.516,1.633,0.605c0.221,0.06,0.375,0.116,0.525,0.144
	c0.142,0.029,0.223,0.046,0.223,0.046L331.926,345.658z"/>
<path fill="#1A1A19" d="M326.91,349.103c0,0-0.083,0-0.229-0.001c-0.141,0.003-0.392-0.022-0.662-0.041
	c-0.565-0.014-1.22-0.18-1.894-0.295c-0.336-0.049-0.658-0.164-0.964-0.246c-0.303-0.088-0.584-0.17-0.826-0.24
	c-0.479-0.139-0.798-0.231-0.798-0.231s0.334-0.009,0.834-0.021c0.247-0.006,0.536-0.014,0.846-0.021
	c0.308-0.015,0.634-0.001,0.958-0.056c0.641-0.09,1.303-0.133,1.721-0.262c0.223-0.056,0.385-0.081,0.528-0.13
	c0.14-0.043,0.218-0.068,0.218-0.068L326.91,349.103z"/>
</svg>
