<?xml version="1.0" encoding="utf-8"?>
<!-- Generator: Adobe Illustrator 16.0.0, SVG Export Plug-In . SVG Version: 6.00 Build 0)  -->
<!DOCTYPE svg PUBLIC "-//W3C//DTD SVG 1.1//EN" "http://www.w3.org/Graphics/SVG/1.1/DTD/svg11.dtd">
<svg version="1.1" id="Layer_1" xmlns="http://www.w3.org/2000/svg" xmlns:xlink="http://www.w3.org/1999/xlink" x="0px" y="0px"
	 width="215px" height="195px" viewBox="0 0 215 195" enable-background="new 0 0 215 195" xml:space="preserve">
<path fill="#929497" d="M865.52-66.557"/>
<path fill="#929497" d="M-1276.484-66.557"/>
<path fill="#929497" d="M-1276.484-65.807"/>
<path fill="#929497" d="M865.52-65.807"/>
<path fill="#929497" d="M1187.52-65.557"/>
<path fill="#929497" d="M-954.484-65.557"/>
<path fill="#929497" d="M-954.484-64.807"/>
<path fill="#929497" d="M1187.52-64.807"/>
<path fill="none" d="M65.63-1567.76"/>
<path fill="none" d="M65.63,1677.837"/>
<path fill="#E0C8A4" d="M35.071,140.605l63.824,36.85c1.707,0.986,3.972,1.461,6.222,1.435c2.131-0.025,4.249-0.501,5.866-1.435
	l63.824-36.85c3.324-1.919,6.045-6.63,6.045-10.468V56.439c0-3.839-2.721-8.549-6.045-10.468l-63.824-36.85
	c-1.617-0.934-3.735-1.409-5.866-1.435c-2.25-0.026-4.515,0.449-6.222,1.435l-63.824,36.85c-3.324,1.919-6.043,6.629-6.043,10.468
	v73.698C29.028,133.976,31.747,138.687,35.071,140.605"/>
<path fill="#BC9E85" d="M176.097,141.853c3.412-1.97,6.203-6.804,6.203-10.744v-75.64c0-3.939-2.791-8.774-6.203-10.743
	L110.591,6.904c-1.537-0.887-3.516-1.366-5.537-1.453v175.676c2.021-0.089,4-0.567,5.537-1.454L176.097,141.853z"/>
<g opacity="0.4">
	<g>
		<defs>
			<rect id="SVGID_1_" x="27.026" y="5.43" width="155.83" height="175.721"/>
		</defs>
		<clipPath id="SVGID_2_">
			<use xlink:href="#SVGID_1_"  overflow="visible"/>
		</clipPath>
		<path clip-path="url(#SVGID_2_)" fill="#FFFFFF" d="M104.94,20.852l62.73,36.219v72.437l-62.73,36.219l-62.732-36.218V57.07
			L104.94,20.852 M104.938,5.432c-2.248,0-4.496,0.489-6.202,1.473l-65.505,37.82c-3.413,1.97-6.204,6.805-6.204,10.744v75.64
			c0,3.939,2.791,8.774,6.204,10.744l65.505,37.82c1.706,0.985,3.954,1.473,6.202,1.473c0.061,0,0.123,0,0.184-0.001
			c2.188-0.025,4.361-0.514,6.02-1.472l65.508-37.82c3.41-1.97,6.201-6.805,6.201-10.744v-75.64c0-3.939-2.791-8.774-6.201-10.744
			l-65.508-37.82c-1.658-0.958-3.832-1.445-6.02-1.472C105.062,5.432,104.999,5.432,104.938,5.432"/>
	</g>
</g>
<path fill="#1A1A19" d="M104.938,13.712l0.086,0.001c1.125,0.013,1.822,0.272,1.979,0.363l65.506,37.819
	c0.85,0.49,2.063,2.593,2.063,3.573v75.64c0,0.98-1.215,3.083-2.063,3.573l-65.506,37.82c-0.156,0.09-0.854,0.35-1.977,0.363h-0.088
	c-1.168,0-1.898-0.269-2.063-0.363l-65.506-37.82c-0.848-0.49-2.063-2.593-2.063-3.573v-75.64c0-0.98,1.213-3.083,2.063-3.573
	l65.506-37.819C103.04,13.981,103.771,13.712,104.938,13.712 M104.938,5.432c-2.248,0-4.496,0.489-6.202,1.473l-65.505,37.82
	c-3.413,1.97-6.204,6.805-6.204,10.744v75.64c0,3.939,2.791,8.774,6.204,10.744l65.505,37.82c1.706,0.985,3.954,1.473,6.202,1.473
	c0.062,0,0.123,0,0.184-0.001c2.188-0.025,4.361-0.514,6.02-1.472l65.508-37.82c3.41-1.97,6.201-6.805,6.201-10.744v-75.64
	c0-3.939-2.791-8.774-6.201-10.744l-65.508-37.82c-1.658-0.958-3.832-1.445-6.02-1.472C105.062,5.432,104.999,5.432,104.938,5.432"
	/>
<g>
	<defs>
		<path id="SVGID_3_" d="M98.735,6.906L33.231,44.725c-3.413,1.971-6.204,6.804-6.204,10.744v75.64c0,3.94,2.791,8.773,6.204,10.745
			l65.504,37.818c1.752,1.014,4.078,1.501,6.387,1.473c2.188-0.024,4.361-0.513,6.02-1.473l65.508-37.818
			c3.41-1.972,6.203-6.805,6.203-10.745v-75.64c0-3.94-2.793-8.773-6.203-10.744L111.142,6.906c-1.658-0.96-3.832-1.448-6.02-1.474
			c-0.064-0.001-0.129-0.001-0.192-0.001C102.686,5.432,100.44,5.921,98.735,6.906"/>
	</defs>
	<clipPath id="SVGID_4_">
		<use xlink:href="#SVGID_3_"  overflow="visible"/>
	</clipPath>
	<path clip-path="url(#SVGID_4_)" fill="#E0C8A4" d="M215,98.069c0,35.364-28.669,64.032-64.032,64.032
		c-35.364,0-64.031-28.668-64.031-64.032s28.667-64.032,64.031-64.032C186.331,34.037,215,62.705,215,98.069"/>
	<path clip-path="url(#SVGID_4_)" fill="#1A1A19" d="M206.737,98.069c0,30.801-24.969,55.77-55.77,55.77s-55.77-24.969-55.77-55.77
		s24.969-55.771,55.77-55.771S206.737,67.269,206.737,98.069"/>
	<rect x="27.323" y="137.258" clip-path="url(#SVGID_4_)" fill="#1A1A19" width="119.232" height="48.576"/>
</g>
<g>
	<defs>
		<path id="SVGID_5_" d="M98.843,8.38L34.454,45.554c-3.353,1.937-6.098,6.689-6.098,10.562v74.348
			c0,3.871,2.745,8.625,6.098,10.562l64.389,37.174c1.723,0.994,4.008,1.474,6.275,1.448c2.151-0.027,4.286-0.508,5.918-1.448
			l64.389-37.174c3.352-1.937,6.097-6.69,6.097-10.562V56.115c0-3.872-2.745-8.625-6.097-10.562L111.036,8.38
			c-1.632-0.942-3.767-1.421-5.918-1.448c-0.059-0.001-0.117-0.001-0.178-0.001C102.731,6.931,100.521,7.411,98.843,8.38"/>
	</defs>
	<clipPath id="SVGID_6_">
		<use xlink:href="#SVGID_5_"  overflow="visible"/>
	</clipPath>
	<path clip-path="url(#SVGID_6_)" fill="#FFFFFF" d="M189.087,135.789l-7.424-48.914c0,0-20.895-12.386-43.184-21.268L99.528,100.55
		H56.763c-3.539,7.796-3.145,9.058-3.145,9.058c-0.928,8.352,12.525,10.67,12.525,10.67l-2.783,17.932L189.087,135.789z"/>
	<polygon clip-path="url(#SVGID_6_)" fill="#FEBD1F" points="123.339,70.608 147.001,78.147 157.874,74.684 135.95,64.939 	"/>
	<path clip-path="url(#SVGID_6_)" fill="#1A1A19" d="M81.882,88.942c12.448-0.4,23.022-5.354,31.455-10.172
		c5.818-3.326,16.991-10.474,23.358-14.587c-2.173-0.78-4.341-1.518-6.492-2.204c-17.671-5.637-32.718-3.733-41.999-0.574
		c-5.18,1.763-9.971,5.25-14.318,9.676c-2.416,3.275-9.529,11.407-9.529,14.266C64.356,88.961,69.435,89.345,81.882,88.942"/>
	<path clip-path="url(#SVGID_6_)" fill="#FEBD1F" d="M84.066,94.42h23.057l17.337-13.186l17.498-13.308
		c-2.207-0.88-7.908-4.044-10.124-4.841c-5.518,3.564-15.2,9.76-20.241,12.642c-7.309,4.176-16.473,8.467-27.26,8.814
		c-10.788,0.349-13.957,0.197-13.957-2.935c0-2.477,5.006-9.524,7.1-12.363c-7.729,7.87-16.694,22.451-20.713,31.305H96.05
		c0.221,0,0.451-0.014,0.689-0.039H79.542L84.066,94.42z"/>
	<path clip-path="url(#SVGID_6_)" fill="#1A1918" d="M96.083,120.617H66.144v-2.551h27.537c0.068-1.525,0.08-3.055-0.004-3.632
		l-0.035-0.037l-0.086-0.306c-0.02-0.068-2.068-7.047-7.598-7.047H55.683v-2.551h30.275c6.893,0,9.539,7.274,9.986,8.686
		c0.281,0.521,0.51,1.802,0.217,6.246L96.083,120.617z"/>
	<path clip-path="url(#SVGID_6_)" fill="#1A1918" d="M59.132,100.509h8.225c0.641,0,1.461-0.423,1.834-0.943l3-4.201
		c0.372-0.521,0.155-0.944-0.486-0.944h-9.441c-0.641,0-1.396,0.462-1.689,1.032l-2.07,4.026
		C58.21,100.047,58.491,100.509,59.132,100.509"/>
	<path clip-path="url(#SVGID_6_)" fill="#1A1918" d="M82.181,94.42c-1.338,0-3.066,0.87-3.863,1.943l-3.08,4.146h21.502
		c1.838-0.202,4.113-1.147,5.379-2.283l5.004-3.807H82.181z"/>
	<path clip-path="url(#SVGID_6_)" fill="#8D714F" d="M78.021,73.452l-1.426,2.491c-0.659,1.098-0.154,1.988,1.127,1.988h11.715
		c1.281,0,2.891-0.867,3.596-1.937l2.779-4.027c-3.281,1.272-7.279,2.021-11.594,2.021C82.056,73.988,79.973,73.799,78.021,73.452"
		/>
	<g clip-path="url(#SVGID_6_)">
		<g>
			<defs>
				<rect id="SVGID_7_" x="76.306" y="71.97" width="19.511" height="5.96"/>
			</defs>
			<clipPath id="SVGID_8_">
				<use xlink:href="#SVGID_7_"  overflow="visible"/>
			</clipPath>
			<path clip-path="url(#SVGID_8_)" fill="#E0C8A4" d="M78.021,73.452l-1.426,2.491c-0.659,1.098-0.154,1.988,1.127,1.988h11.715
				c1.281,0,2.891-0.867,3.596-1.937l2.779-4.027c-3.281,1.272-7.279,2.021-11.594,2.021C82.056,73.988,79.973,73.799,78.021,73.452
				"/>
		</g>
	</g>
	<path clip-path="url(#SVGID_6_)" fill="#8D714F" d="M96.745,66.996l-12.18,0.411c-1.281-0.017-2.855,0.859-3.514,1.958
		l-3.032,4.086c1.954,0.349,4.036,0.536,6.198,0.536c4.315,0,8.313-0.747,11.594-2.02l1.977-3.002
		C98.493,67.896,98.026,67.014,96.745,66.996"/>
	<path clip-path="url(#SVGID_6_)" fill="#1A1918" d="M69.347,120.638c-5.692-6.726,0.607-15.37,0.877-15.735l2.049,1.523
		l-1.025-0.761l1.027,0.759c-0.055,0.072-5.361,7.39-0.98,12.566L69.347,120.638z"/>
	<path clip-path="url(#SVGID_6_)" fill="#1A1918" d="M64.521,124.802h30.735c0,0,4.524,0.231,7.19-5.8H66.608l-1.623,6.147"/>
	<g clip-path="url(#SVGID_6_)">
		<g>
			<defs>
				<rect id="SVGID_9_" x="55.007" y="113.55" width="54.05" height="5.57"/>
			</defs>
			<clipPath id="SVGID_10_">
				<use xlink:href="#SVGID_9_"  overflow="visible"/>
			</clipPath>
			<polygon clip-path="url(#SVGID_10_)" fill="#E0C8A4" points="109.058,119.118 60.81,119.118 55.009,113.551 104.419,113.551 			
				"/>
		</g>
	</g>
	<g clip-path="url(#SVGID_6_)">
		<g>
			<defs>
				<rect id="SVGID_11_" x="64.446" y="128.8" width="61.311" height="7.021"/>
			</defs>
			<clipPath id="SVGID_12_">
				<use xlink:href="#SVGID_11_"  overflow="visible"/>
			</clipPath>
			<polygon clip-path="url(#SVGID_12_)" fill="#E0C8A4" points="125.757,135.817 65.407,135.817 64.448,128.798 121.118,128.798 			
				"/>
		</g>
	</g>
	<path clip-path="url(#SVGID_6_)" fill="#1A1918" d="M151.03,82.919v22.503c0,1.281,1.023,2.499,2.285,2.721l31.469,4.355
		l-2.436-20.879l-29.131-10.25C152.009,80.943,151.03,81.638,151.03,82.919"/>
	<path clip-path="url(#SVGID_6_)" fill="#FEBD1F" d="M130.119,119.92c0,0,4.872-9.364,10.091-9.712l52.199,7.075l-0.35,8.699
		L130.119,119.92z"/>
	<path clip-path="url(#SVGID_6_)" fill="#1A1918" d="M109.8,137.041c0,0,8.403-13.888,14.668-21.543l62.52,5.915l1.973,15.049
		L109.8,137.041z"/>
	<path clip-path="url(#SVGID_6_)" fill="#1A1A19" d="M192.718,141.397H59.638l2.902-18.695c-5.883-1.737-12.932-5.885-12.092-13.446
		l0.039-0.359l0.121-0.342c0.611-1.748,15.238-42.881,38.248-50.714c3.883-1.322,10.203-2.898,18.258-2.898
		c6.666,0,13.416,1.075,20.064,3.196c26.014,8.298,55.383,20.094,55.676,20.212l1.73,0.697L192.718,141.397z M67.083,135.021
		h118.371l-6.711-51.442c-6.654-2.637-31.324-12.289-53.504-19.363c-6.02-1.92-12.117-2.894-18.125-2.894
		c-7.182,0-12.775,1.392-16.203,2.558c-19.039,6.48-32.639,42.285-34.145,46.399c-0.111,4.865,9.822,6.84,9.926,6.858l3.076,0.544
		L67.083,135.021z"/>
	<path clip-path="url(#SVGID_6_)" fill="#FFFFFF" d="M107.114,58.132c5.727,0,12.17,0.836,19.094,3.045
		c26.205,8.358,55.455,20.132,55.455,20.132l7.424,56.9H57.464l8.681-17.932c0,0-13.454-2.318-12.526-10.67
		c0,0,14.461-41.325,36.266-48.748C94.29,59.359,100.175,58.132,107.114,58.132 M107.116,51.893h-0.002
		c-8.474,0-15.141,1.665-19.242,3.061c-10.539,3.589-20.543,13.683-29.734,30.003c-6.536,11.605-10.254,22.147-10.408,22.591
		l-0.234,0.669l-0.078,0.703c-0.674,6.064,2.725,11.436,9.326,14.735c0.227,0.113,0.451,0.223,0.676,0.327l-5.571,11.509
		l-4.337,8.957h9.953h131.623h7.105l-0.918-7.046l-7.424-56.899l-0.473-3.618l-3.385-1.363
		c-0.295-0.118-29.768-11.956-55.889-20.289C121.157,53.017,114.096,51.893,107.116,51.893"/>
	<path clip-path="url(#SVGID_6_)" fill="#FFFFFF" d="M189.087,135.789l-7.424-52.919c0,0-20.895-8.381-43.184-17.263L99.528,100.55
		H56.763c-3.539,7.796-3.145,9.058-3.145,9.058c-0.928,8.352,12.525,10.67,12.525,10.67l-8.68,17.932L189.087,135.789z"/>
	<polygon clip-path="url(#SVGID_6_)" fill="#FEBD1F" points="123.339,70.608 150.966,77.545 157.874,74.684 135.95,64.939 	"/>
	<path clip-path="url(#SVGID_6_)" fill="#1A1A19" d="M81.882,88.942c12.448-0.4,23.022-5.354,31.455-10.172
		c5.818-3.326,16.991-10.474,23.358-14.587c-2.173-0.78-4.341-1.518-6.492-2.204c-17.671-5.637-32.718-3.733-41.999-0.574
		c-5.18,1.763-9.971,5.25-14.318,9.676c-2.416,3.275-9.529,11.407-9.529,14.266C64.356,88.961,69.435,89.345,81.882,88.942"/>
	<path clip-path="url(#SVGID_6_)" fill="#FEBD1F" d="M84.066,94.42h23.057l17.337-13.186l17.498-13.308
		c-2.207-0.88-7.908-4.044-10.124-4.841c-5.518,3.564-15.2,9.76-20.241,12.642c-7.309,4.176-16.473,8.467-27.26,8.814
		c-10.788,0.349-13.957,0.197-13.957-2.935c0-2.477,5.006-9.524,7.1-12.363c-7.729,7.87-16.694,22.451-20.713,31.305H96.05
		c0.221,0,0.451-0.014,0.689-0.039H79.542L84.066,94.42z"/>
	<path clip-path="url(#SVGID_6_)" fill="#1A1918" d="M96.083,120.617H66.144v-2.551h27.537c0.068-1.525,0.08-3.055-0.004-3.632
		l-0.035-0.037l-0.086-0.306c-0.02-0.068-2.068-7.047-7.598-7.047H55.683v-2.551h30.275c6.893,0,9.539,7.274,9.986,8.686
		c0.281,0.521,0.51,1.802,0.217,6.246L96.083,120.617z"/>
	<path clip-path="url(#SVGID_6_)" fill="#1A1918" d="M59.132,100.509h8.225c0.641,0,1.461-0.423,1.834-0.943l3-4.201
		c0.372-0.521,0.155-0.944-0.486-0.944h-9.441c-0.641,0-1.396,0.462-1.689,1.032l-2.07,4.026
		C58.21,100.047,58.491,100.509,59.132,100.509"/>
	<path clip-path="url(#SVGID_6_)" fill="#1A1918" d="M82.181,94.42c-1.338,0-3.066,0.87-3.863,1.943l-3.08,4.146h21.502
		c1.838-0.202,4.113-1.147,5.379-2.283l5.004-3.807H82.181z"/>
	<path clip-path="url(#SVGID_6_)" fill="#8D714F" d="M78.021,73.452l-1.426,2.491c-0.659,1.098-0.154,1.988,1.127,1.988h11.715
		c1.281,0,2.891-0.867,3.596-1.937l2.779-4.027c-3.281,1.272-7.279,2.021-11.594,2.021C82.056,73.988,79.973,73.799,78.021,73.452"
		/>
	<g clip-path="url(#SVGID_6_)">
		<g>
			<defs>
				<rect id="SVGID_13_" x="76.306" y="71.97" width="19.511" height="5.96"/>
			</defs>
			<clipPath id="SVGID_14_">
				<use xlink:href="#SVGID_13_"  overflow="visible"/>
			</clipPath>
			<path clip-path="url(#SVGID_14_)" fill="#E0C8A4" d="M78.021,73.452l-1.426,2.491c-0.659,1.098-0.154,1.988,1.127,1.988h11.715
				c1.281,0,2.891-0.867,3.596-1.937l2.779-4.027c-3.281,1.272-7.279,2.021-11.594,2.021C82.056,73.988,79.973,73.799,78.021,73.452
				"/>
		</g>
	</g>
	<path clip-path="url(#SVGID_6_)" fill="#8D714F" d="M96.745,66.996l-12.18,0.411c-1.281-0.017-2.855,0.859-3.514,1.958
		l-3.032,4.086c1.954,0.349,4.036,0.536,6.198,0.536c4.315,0,8.313-0.747,11.594-2.02l1.977-3.002
		C98.493,67.896,98.026,67.014,96.745,66.996"/>
	<path clip-path="url(#SVGID_6_)" fill="#1A1918" d="M69.347,120.638c-5.692-6.726,0.607-15.37,0.877-15.735l2.049,1.523
		l-1.025-0.761l1.027,0.759c-0.055,0.072-5.361,7.39-0.98,12.566L69.347,120.638z"/>
	<path clip-path="url(#SVGID_6_)" fill="#1A1918" d="M64.521,124.748h35.404c0,0,5.21,0.268,8.283-6.68H66.925l-1.871,7.081"/>
	<g clip-path="url(#SVGID_6_)">
		<g>
			<defs>
				<rect id="SVGID_15_" x="55.007" y="113.55" width="51.1" height="5.57"/>
			</defs>
			<clipPath id="SVGID_16_">
				<use xlink:href="#SVGID_15_"  overflow="visible"/>
			</clipPath>
			<polygon clip-path="url(#SVGID_16_)" fill="#E0C8A4" points="106.108,119.118 60.81,119.118 55.011,113.551 101.47,113.551 			
				"/>
		</g>
	</g>
	<g clip-path="url(#SVGID_6_)">
		<g>
			<defs>
				<rect id="SVGID_17_" x="58.526" y="129.78" width="67.23" height="7.02"/>
			</defs>
			<clipPath id="SVGID_18_">
				<use xlink:href="#SVGID_17_"  overflow="visible"/>
			</clipPath>
			<polygon clip-path="url(#SVGID_18_)" fill="#E0C8A4" points="125.757,136.8 58.526,136.8 62.483,129.781 121.118,129.781 			"/>
		</g>
	</g>
	<path clip-path="url(#SVGID_6_)" fill="#1A1918" d="M158.565,81.936v22.503c0,1.282,1.023,2.499,2.285,2.722l31.469,4.354
		l-2.436-20.879l-29.13-10.25C159.544,79.961,158.565,80.654,158.565,81.936"/>
	<path clip-path="url(#SVGID_6_)" fill="#FEBD1F" d="M130.119,119.92c0,0,4.872-9.364,10.091-9.712l52.199,7.075l-0.35,8.699
		L130.119,119.92z"/>
	<path clip-path="url(#SVGID_6_)" fill="#1A1918" d="M109.8,137.041c0,0,8.403-13.888,14.668-21.543l62.52,5.915l1.973,15.049
		L109.8,137.041z"/>
	<path clip-path="url(#SVGID_6_)" fill="#1A1A19" d="M191.558,140.38H54.001l9.021-18.634c-1.287-0.38-2.881-0.94-4.459-1.73
		c-6.488-3.244-7.443-7.58-7.104-10.648l0.027-0.244l0.082-0.233c0.149-0.429,3.751-10.642,10.113-21.938
		c8.686-15.421,17.938-24.892,27.501-28.147c3.812-1.297,10.015-2.844,17.933-2.844c6.559,0,13.205,1.059,19.752,3.148
		c25.98,8.285,55.313,20.068,55.605,20.187l1.178,0.474L191.558,140.38z M60.925,136.039h125.689l-6.939-53.188
		c-5.719-2.271-31.243-12.309-54.125-19.607c-6.12-1.952-12.322-2.942-18.434-2.942c-7.322,0-13.033,1.42-16.533,2.612
		c-19.727,6.716-33.627,43.861-34.832,47.177c-0.092,1.095,0.006,3.643,4.681,6.006c2.923,1.479,6.053,2.038,6.084,2.043
		l2.832,0.496L60.925,136.039z"/>
	<rect x="32.964" y="143.554" clip-path="url(#SVGID_6_)" fill="#BC9E85" width="159.52" height="52.901"/>
	<rect x="32.964" y="155.22" clip-path="url(#SVGID_6_)" fill="#8D714F" width="159.52" height="52.901"/>
</g>
<path fill="#1A1A19" d="M104.938,13.712l0.086,0.001c1.125,0.013,1.822,0.272,1.979,0.363l65.506,37.819
	c0.85,0.49,2.063,2.593,2.063,3.573v75.64c0,0.98-1.215,3.083-2.063,3.573l-65.506,37.82c-0.156,0.09-0.854,0.35-1.977,0.363h-0.088
	c-1.168,0-1.898-0.269-2.063-0.363l-65.506-37.82c-0.848-0.49-2.063-2.593-2.063-3.573v-75.64c0-0.98,1.213-3.083,2.063-3.573
	l65.506-37.819C103.04,13.981,103.771,13.712,104.938,13.712 M104.938,5.432c-2.248,0-4.496,0.489-6.202,1.473l-65.505,37.82
	c-3.413,1.97-6.204,6.805-6.204,10.744v75.64c0,3.939,2.791,8.774,6.204,10.744l65.505,37.82c1.706,0.985,3.954,1.473,6.202,1.473
	c0.062,0,0.123,0,0.184-0.001c2.188-0.025,4.361-0.514,6.02-1.472l65.508-37.82c3.41-1.97,6.201-6.805,6.201-10.744v-75.64
	c0-3.939-2.791-8.774-6.201-10.744l-65.508-37.82c-1.658-0.958-3.832-1.445-6.02-1.472C105.062,5.432,104.999,5.432,104.938,5.432"
	/>
<g>
	<g>
		<defs>
			<rect id="SVGID_19_" x="135.956" y="81.43" width="18.24" height="21.16"/>
		</defs>
		<clipPath id="SVGID_20_">
			<use xlink:href="#SVGID_19_"  overflow="visible"/>
		</clipPath>
		<path clip-path="url(#SVGID_20_)" fill="#E0C8A4" d="M135.96,84.688c0,0,0.025-0.078,0.098-0.22
			c0.074-0.137,0.182-0.344,0.357-0.583c0.086-0.12,0.193-0.243,0.307-0.382c0.119-0.136,0.26-0.268,0.408-0.417
			c0.155-0.14,0.33-0.276,0.52-0.426c0.193-0.133,0.404-0.271,0.634-0.405c0.235-0.119,0.483-0.249,0.753-0.355
			c0.135-0.052,0.275-0.098,0.418-0.146s0.29-0.1,0.441-0.128c0.607-0.145,1.275-0.224,1.963-0.193
			c0.17,0.012,0.343,0.025,0.517,0.038l0.263,0.023c0.086,0.013,0.17,0.032,0.256,0.049c0.34,0.076,0.697,0.136,1.031,0.247
			c0.332,0.117,0.666,0.239,0.998,0.371c0.315,0.153,0.623,0.32,0.934,0.485l0.23,0.128l0.028,0.016
			c0.011,0.007-0.067-0.038-0.03-0.018l0.006,0.003l0.012,0.007l0.05,0.029l0.099,0.058l0.393,0.235l0.388,0.239
			c0.124,0.076,0.233,0.13,0.349,0.199c0.443,0.267,0.92,0.527,1.375,0.771c0.229,0.109,0.455,0.238,0.674,0.342
			c0.221,0.099,0.44,0.213,0.653,0.297c0.212,0.088,0.425,0.187,0.628,0.252c0.104,0.039,0.205,0.076,0.305,0.114
			c0.101,0.035,0.199,0.056,0.297,0.089c0.392,0.131,0.758,0.197,1.101,0.26c0.337,0.042,0.653,0.07,0.913,0.062
			c0.264-0.003,0.484-0.019,0.633-0.041c0.153-0.022,0.234-0.034,0.234-0.034s-0.042,0.073-0.139,0.198
			c-0.099,0.118-0.248,0.309-0.483,0.496c-0.231,0.201-0.548,0.393-0.94,0.58c-0.394,0.166-0.867,0.324-1.392,0.398
			c-0.526,0.091-1.101,0.101-1.698,0.061c-0.598-0.047-1.215-0.155-1.83-0.322c-0.611-0.174-1.223-0.386-1.843-0.679
			c-0.151-0.068-0.315-0.144-0.458-0.214l-0.4-0.214l-0.4-0.221l-0.234-0.132l-0.173-0.09c-0.228-0.124-0.455-0.252-0.679-0.383
			c-0.231-0.099-0.457-0.206-0.684-0.316c-0.111-0.064-0.228-0.089-0.341-0.135c-0.112-0.043-0.228-0.087-0.339-0.129
			c-0.057-0.022-0.111-0.049-0.168-0.067l-0.17-0.045c-0.113-0.03-0.225-0.064-0.337-0.098c-0.449-0.122-0.894-0.203-1.333-0.246
			c-0.221-0.038-0.434-0.016-0.65-0.037c-0.215-0.012-0.419,0.015-0.629,0.012c-0.203,0.01-0.398,0.043-0.596,0.055
			c-0.193,0.029-0.377,0.059-0.551,0.086c-0.178,0.037-0.344,0.07-0.496,0.103c-0.156,0.04-0.301,0.076-0.43,0.109
			c-0.129,0.039-0.248,0.071-0.354,0.101c-0.104,0.033-0.191,0.062-0.264,0.084C136.04,84.659,135.96,84.688,135.96,84.688"/>
		<path clip-path="url(#SVGID_20_)" fill="#E0C8A4" d="M135.96,92.278c0,0,0.025-0.077,0.098-0.22
			c0.074-0.137,0.182-0.345,0.357-0.583c0.086-0.12,0.193-0.243,0.307-0.382c0.119-0.135,0.26-0.268,0.408-0.417
			c0.155-0.14,0.33-0.276,0.52-0.425c0.193-0.133,0.404-0.272,0.634-0.406c0.235-0.119,0.483-0.249,0.753-0.355
			c0.135-0.052,0.275-0.098,0.418-0.146s0.29-0.099,0.441-0.128c0.607-0.145,1.275-0.223,1.963-0.193
			c0.17,0.012,0.343,0.025,0.517,0.038l0.263,0.024c0.086,0.012,0.17,0.031,0.256,0.048c0.34,0.077,0.697,0.136,1.031,0.248
			c0.332,0.117,0.666,0.239,0.998,0.371c0.315,0.151,0.623,0.319,0.934,0.484l0.23,0.128l0.028,0.017
			c0.011,0.006-0.067-0.039-0.03-0.019l0.006,0.003l0.012,0.008l0.05,0.028l0.099,0.059l0.393,0.234l0.388,0.239
			c0.124,0.076,0.233,0.13,0.349,0.199c0.443,0.267,0.92,0.526,1.375,0.771c0.229,0.109,0.455,0.238,0.674,0.342
			c0.221,0.099,0.44,0.214,0.653,0.298c0.212,0.088,0.425,0.186,0.628,0.252c0.104,0.038,0.205,0.075,0.305,0.114
			c0.101,0.034,0.199,0.055,0.297,0.089c0.392,0.13,0.758,0.196,1.101,0.259c0.337,0.042,0.653,0.07,0.913,0.062
			c0.264-0.003,0.484-0.019,0.633-0.041c0.153-0.021,0.234-0.034,0.234-0.034s-0.042,0.073-0.139,0.198
			c-0.099,0.118-0.248,0.31-0.483,0.496c-0.231,0.201-0.548,0.394-0.94,0.58c-0.394,0.166-0.867,0.324-1.392,0.399
			c-0.526,0.09-1.101,0.1-1.698,0.06c-0.598-0.047-1.215-0.155-1.83-0.322c-0.611-0.174-1.223-0.386-1.843-0.679
			c-0.151-0.068-0.315-0.143-0.458-0.214l-0.4-0.214l-0.4-0.221l-0.234-0.132l-0.173-0.09c-0.228-0.124-0.455-0.252-0.679-0.383
			c-0.231-0.098-0.457-0.206-0.684-0.316c-0.111-0.064-0.228-0.089-0.341-0.135c-0.112-0.043-0.228-0.087-0.339-0.13
			c-0.057-0.021-0.111-0.048-0.168-0.066l-0.17-0.045c-0.113-0.029-0.225-0.064-0.337-0.098c-0.449-0.122-0.894-0.204-1.333-0.246
			c-0.221-0.038-0.434-0.015-0.65-0.037c-0.215-0.012-0.419,0.016-0.629,0.012c-0.203,0.011-0.398,0.043-0.596,0.055
			c-0.193,0.029-0.377,0.059-0.551,0.086c-0.178,0.037-0.344,0.071-0.496,0.103c-0.158,0.04-0.301,0.076-0.43,0.109
			c-0.129,0.039-0.248,0.072-0.354,0.101c-0.104,0.033-0.191,0.062-0.264,0.084C136.04,92.25,135.96,92.278,135.96,92.278"/>
		<path clip-path="url(#SVGID_20_)" fill="#E0C8A4" d="M135.96,99.868c0,0,0.025-0.077,0.098-0.22
			c0.074-0.137,0.182-0.344,0.357-0.583c0.086-0.12,0.193-0.243,0.307-0.382c0.119-0.135,0.26-0.267,0.408-0.417
			c0.155-0.139,0.33-0.276,0.52-0.425c0.193-0.133,0.404-0.272,0.634-0.406c0.235-0.119,0.483-0.249,0.753-0.355
			c0.135-0.052,0.275-0.098,0.418-0.146s0.29-0.099,0.441-0.128c0.607-0.145,1.275-0.223,1.963-0.193
			c0.17,0.013,0.343,0.025,0.517,0.038l0.263,0.024c0.086,0.012,0.17,0.032,0.256,0.048c0.34,0.077,0.697,0.136,1.031,0.248
			c0.332,0.117,0.666,0.239,0.998,0.371c0.315,0.153,0.623,0.319,0.934,0.485l0.23,0.127l0.028,0.017
			c0.011,0.006-0.067-0.039-0.03-0.019l0.006,0.004l0.012,0.007l0.05,0.028l0.099,0.059l0.393,0.234l0.388,0.239
			c0.124,0.076,0.233,0.13,0.349,0.199c0.443,0.267,0.92,0.528,1.375,0.771c0.229,0.109,0.455,0.238,0.674,0.343
			c0.221,0.098,0.44,0.213,0.653,0.297c0.212,0.088,0.425,0.186,0.628,0.252c0.104,0.039,0.205,0.076,0.305,0.114
			c0.101,0.034,0.199,0.055,0.297,0.089c0.392,0.13,0.758,0.196,1.101,0.259c0.337,0.042,0.653,0.071,0.913,0.062
			c0.264-0.003,0.484-0.019,0.633-0.041c0.153-0.021,0.234-0.033,0.234-0.033s-0.042,0.072-0.139,0.197
			c-0.099,0.118-0.248,0.31-0.483,0.496c-0.231,0.201-0.548,0.394-0.94,0.58c-0.394,0.166-0.867,0.324-1.392,0.399
			c-0.526,0.09-1.101,0.1-1.698,0.06c-0.598-0.047-1.215-0.155-1.83-0.321c-0.611-0.175-1.223-0.387-1.843-0.68
			c-0.151-0.068-0.315-0.143-0.458-0.214l-0.4-0.214l-0.4-0.22l-0.234-0.132l-0.173-0.091c-0.228-0.124-0.455-0.252-0.679-0.383
			c-0.231-0.098-0.457-0.206-0.684-0.315c-0.111-0.065-0.228-0.09-0.341-0.136c-0.112-0.043-0.228-0.087-0.339-0.129
			c-0.057-0.021-0.111-0.049-0.168-0.066l-0.17-0.046c-0.113-0.029-0.225-0.064-0.337-0.098c-0.449-0.122-0.894-0.203-1.333-0.246
			c-0.221-0.038-0.434-0.015-0.65-0.037c-0.215-0.012-0.419,0.016-0.629,0.013c-0.203,0.01-0.398,0.043-0.596,0.054
			c-0.193,0.03-0.377,0.059-0.551,0.086c-0.178,0.037-0.344,0.071-0.496,0.104c-0.156,0.039-0.301,0.075-0.43,0.108
			c-0.129,0.039-0.248,0.072-0.354,0.101c-0.104,0.033-0.191,0.062-0.264,0.086C136.04,99.84,135.96,99.868,135.96,99.868"/>
	</g>
</g>
<polygon fill="#1A1A19" points="167.759,143.856 42.192,143.856 38.188,135.568 167.759,135.568 "/>
</svg>
