<?xml version="1.0" encoding="utf-8"?>
<!-- Generator: Adobe Illustrator 16.0.0, SVG Export Plug-In . SVG Version: 6.00 Build 0)  -->
<!DOCTYPE svg PUBLIC "-//W3C//DTD SVG 1.1//EN" "http://www.w3.org/Graphics/SVG/1.1/DTD/svg11.dtd">
<svg version="1.1" id="Layer_1" xmlns="http://www.w3.org/2000/svg" xmlns:xlink="http://www.w3.org/1999/xlink" x="0px" y="0px"
	 width="240px" height="200px" viewBox="0 0 240 200" enable-background="new 0 0 240 200" xml:space="preserve">
<path fill="none" d="M53.764,2645.837"/>
<path fill="none" d="M53.764-599.76"/>
<path fill="#BCD754" d="M177.76,28.982h-64.791H48.18c-4.156,0-7.525,3.369-7.525,7.525v110.344c0,3.656,2.59,8.144,5.756,9.973
	l60.802,35.104c1.584,0.914,3.671,1.364,5.757,1.364c0.057,0,0.113,0.003,0.17,0.003c2.03-0.024,4.046-0.478,5.586-1.367
	l60.803-35.104c3.168-1.829,5.758-6.315,5.758-9.973V36.508C185.285,32.352,181.916,28.982,177.76,28.982"/>
<g opacity="0.6">
	<g>
		<g>
			<g>
				<defs>
					<rect id="SVGID_1_" x="40.65" y="28.983" width="144.64" height="164.311"/>
				</defs>
				<clipPath id="SVGID_2_">
					<use xlink:href="#SVGID_1_"  overflow="visible"/>
				</clipPath>
				<path clip-path="url(#SVGID_2_)" fill="#A5C139" d="M177.76,28.982h-64.791H48.18c-4.156,0-7.525,3.369-7.525,7.525v110.344
					c0,3.656,2.59,8.144,5.756,9.973l60.802,35.104c1.584,0.914,3.671,1.364,5.757,1.364c0.057,0,0.113,0.003,0.17,0.003
					c2.03-0.024,4.046-0.478,5.586-1.367l60.803-35.104c3.168-1.829,5.758-6.315,5.758-9.973V36.508
					C185.285,32.352,181.916,28.982,177.76,28.982"/>
			</g>
		</g>
	</g>
</g>
<g>
	<g>
		<g>
			<defs>
				<path id="SVGID_3_" d="M49.971,31.254c-4.041,0-7.316,3.278-7.316,7.319v107.292c0,3.554,2.518,7.918,5.597,9.691l59.12,34.137
					c1.581,0.913,3.679,1.354,5.762,1.324c1.975-0.021,3.938-0.463,5.435-1.324l59.121-34.137c3.078-1.773,5.6-6.14,5.6-9.691
					V38.573c0-4.041-3.273-7.319-7.318-7.319H49.971z"/>
			</defs>
			<clipPath id="SVGID_4_">
				<use xlink:href="#SVGID_3_"  overflow="visible"/>
			</clipPath>
			<polygon clip-path="url(#SVGID_4_)" fill="#BCD754" points="188.975,97.773 188.975,130.834 103.408,114.304 			"/>
		</g>
	</g>
	<g>
		<g>
			<defs>
				<path id="SVGID_5_" d="M49.971,31.254c-4.041,0-7.316,3.278-7.316,7.319v107.292c0,3.554,2.518,7.918,5.597,9.691l59.12,34.137
					c1.581,0.913,3.679,1.354,5.762,1.324c1.975-0.021,3.938-0.463,5.435-1.324l59.121-34.137c3.078-1.773,5.6-6.14,5.6-9.691
					V38.573c0-4.041-3.273-7.319-7.318-7.319H49.971z"/>
			</defs>
			<clipPath id="SVGID_6_">
				<use xlink:href="#SVGID_5_"  overflow="visible"/>
			</clipPath>
			<polygon clip-path="url(#SVGID_6_)" fill="#BCD754" points="36.965,97.773 36.965,130.834 122.531,114.304 			"/>
		</g>
	</g>
	<g>
		<g>
			<defs>
				<path id="SVGID_7_" d="M49.971,31.254c-4.041,0-7.316,3.278-7.316,7.319v107.292c0,3.554,2.518,7.918,5.597,9.691l59.12,34.137
					c1.581,0.913,3.679,1.354,5.762,1.324c1.975-0.021,3.938-0.463,5.435-1.324l59.121-34.137c3.078-1.773,5.6-6.14,5.6-9.691
					V38.573c0-4.041-3.273-7.319-7.318-7.319H49.971z"/>
			</defs>
			<clipPath id="SVGID_8_">
				<use xlink:href="#SVGID_7_"  overflow="visible"/>
			</clipPath>
			<polygon clip-path="url(#SVGID_8_)" fill="#BCD754" points="129.5,190.309 96.439,190.309 112.969,104.742 			"/>
		</g>
	</g>
	<g>
		<g>
			<defs>
				<path id="SVGID_9_" d="M49.971,31.254c-4.041,0-7.316,3.278-7.316,7.319v107.292c0,3.554,2.518,7.918,5.597,9.691l59.12,34.137
					c1.581,0.913,3.679,1.354,5.762,1.324c1.975-0.021,3.938-0.463,5.435-1.324l59.121-34.137c3.078-1.773,5.6-6.14,5.6-9.691
					V38.573c0-4.041-3.273-7.319-7.318-7.319H49.971z"/>
			</defs>
			<clipPath id="SVGID_10_">
				<use xlink:href="#SVGID_9_"  overflow="visible"/>
			</clipPath>
			<polygon clip-path="url(#SVGID_10_)" fill="#BCD754" points="129.5,38.299 96.439,38.299 112.969,123.865 			"/>
		</g>
	</g>
	<g>
		<g>
			<defs>
				<path id="SVGID_11_" d="M49.971,31.254c-4.041,0-7.316,3.278-7.316,7.319v107.292c0,3.554,2.518,7.918,5.597,9.691l59.12,34.137
					c1.581,0.913,3.679,1.354,5.762,1.324c1.975-0.021,3.938-0.463,5.435-1.324l59.121-34.137c3.078-1.773,5.6-6.14,5.6-9.691
					V38.573c0-4.041-3.273-7.319-7.318-7.319H49.971z"/>
			</defs>
			<clipPath id="SVGID_12_">
				<use xlink:href="#SVGID_11_"  overflow="visible"/>
			</clipPath>
			<polygon clip-path="url(#SVGID_12_)" fill="#BCD754" points="40.941,78.45 65.017,48.547 91.426,94.452 			"/>
		</g>
	</g>
	<g>
		<g>
			<defs>
				<path id="SVGID_13_" d="M49.971,31.254c-4.041,0-7.316,3.278-7.316,7.319v107.292c0,3.554,2.518,7.918,5.597,9.691l59.12,34.137
					c1.581,0.913,3.679,1.354,5.762,1.324c1.975-0.021,3.938-0.463,5.435-1.324l59.121-34.137c3.078-1.773,5.6-6.14,5.6-9.691
					V38.573c0-4.041-3.273-7.319-7.318-7.319H49.971z"/>
			</defs>
			<clipPath id="SVGID_14_">
				<use xlink:href="#SVGID_13_"  overflow="visible"/>
			</clipPath>
			<polygon clip-path="url(#SVGID_14_)" fill="#BCD754" points="186.229,78.45 162.154,48.547 135.745,94.452 			"/>
		</g>
	</g>
	<g>
		<g>
			<defs>
				<path id="SVGID_15_" d="M49.971,31.254c-4.041,0-7.316,3.278-7.316,7.319v107.292c0,3.554,2.518,7.918,5.597,9.691l59.12,34.137
					c1.581,0.913,3.679,1.354,5.762,1.324c1.975-0.021,3.938-0.463,5.435-1.324l59.121-34.137c3.078-1.773,5.6-6.14,5.6-9.691
					V38.573c0-4.041-3.273-7.319-7.318-7.319H49.971z"/>
			</defs>
			<clipPath id="SVGID_16_">
				<use xlink:href="#SVGID_15_"  overflow="visible"/>
			</clipPath>
			<polygon clip-path="url(#SVGID_16_)" fill="#BCD754" points="186.229,151.735 162.154,181.639 135.745,135.733 			"/>
		</g>
	</g>
	<g>
		<g>
			<defs>
				<path id="SVGID_17_" d="M49.971,31.254c-4.041,0-7.316,3.278-7.316,7.319v107.292c0,3.554,2.518,7.918,5.597,9.691l59.12,34.137
					c1.581,0.913,3.679,1.354,5.762,1.324c1.975-0.021,3.938-0.463,5.435-1.324l59.121-34.137c3.078-1.773,5.6-6.14,5.6-9.691
					V38.573c0-4.041-3.273-7.319-7.318-7.319H49.971z"/>
			</defs>
			<clipPath id="SVGID_18_">
				<use xlink:href="#SVGID_17_"  overflow="visible"/>
			</clipPath>
			<polygon clip-path="url(#SVGID_18_)" fill="#BCD754" points="40.941,151.735 65.017,181.639 91.426,135.733 			"/>
		</g>
	</g>
</g>
<g opacity="0.5">
	<g>
		<g>
			<g>
				<defs>
					<rect id="SVGID_19_" x="40.65" y="28.983" width="144.64" height="164.311"/>
				</defs>
				<clipPath id="SVGID_20_">
					<use xlink:href="#SVGID_19_"  overflow="visible"/>
				</clipPath>
				<path clip-path="url(#SVGID_20_)" fill="#FFFFFF" d="M171.488,42.779v102.755l-58.521,33.785l-58.519-33.785V42.779H171.488
					 M177.76,28.982H48.18c-4.156,0-7.525,3.369-7.525,7.525V146.85c0,3.657,2.59,8.146,5.756,9.973l60.802,35.104
					c1.583,0.914,3.67,1.368,5.756,1.368c0.058,0,0.114,0,0.171-0.001c2.03-0.023,4.046-0.479,5.586-1.367l60.803-35.104
					c3.168-1.827,5.758-6.314,5.758-9.973V36.508C185.285,32.352,181.916,28.982,177.76,28.982"/>
			</g>
		</g>
	</g>
</g>
<rect x="44.105" y="33.999" fill="#191818" width="137.729" height="33.868"/>
<path fill="#FFFFFF" d="M81.002,56.517V39.174h7.178c3.095,0,4.576,2.055,4.576,4.42c0,2.186-1.197,3.589-2.783,3.979
	c1.77,0.287,3.07,2.106,3.07,4.265c0,2.626-1.484,4.68-4.629,4.68L81.002,56.517L81.002,56.517z M89.194,44.193
	c0-1.17-0.599-1.978-1.847-1.978h-2.86v3.979h2.86C88.596,46.195,89.194,45.388,89.194,44.193 M89.479,51.343
	c0-1.195-0.677-2.133-2.003-2.133h-2.989v4.265h2.989C88.778,53.475,89.479,52.695,89.479,51.343"/>
<path fill="#FFFFFF" d="M94.862,50.536V39.175h3.51v11.388c0,2.054,1.04,3.199,2.886,3.199c1.82,0,2.86-1.146,2.86-3.199V39.175
	h3.51v11.361c0,4.004-2.47,6.293-6.37,6.293C97.332,56.829,94.862,54.54,94.862,50.536"/>
<path fill="#FFFFFF" d="M118.053,56.518l-2.652-6.268h-1.871v6.268h-3.483V39.174h6.474c3.172,0,5.279,2.288,5.279,5.486
	c0,2.99-1.587,4.498-3.017,4.966l3.146,6.892H118.053z M118.234,44.712c0-1.508-0.884-2.47-2.235-2.47h-2.47v4.941h2.47
	C117.352,47.184,118.234,46.221,118.234,44.712"/>
<path fill="#FFFFFF" d="M122.604,54.593l1.717-2.679c0.963,1.067,2.472,1.847,4.186,1.847c1.536,0,2.368-0.857,2.368-1.924
	c0-3.043-7.749-2.003-7.749-7.879c0-2.729,2.131-5.07,5.721-5.07c2.106,0,3.928,0.677,5.252,1.925l-1.664,2.6
	c-1.041-0.988-2.365-1.456-3.719-1.456c-1.248,0-2.025,0.702-2.025,1.768c0,2.705,7.722,1.977,7.722,7.827
	c0,3.042-2.08,5.278-5.876,5.278C125.904,56.829,123.98,55.971,122.604,54.593"/>
<polygon fill="#FFFFFF" points="138.593,56.517 138.593,42.243 134.744,42.243 134.744,39.174 145.926,39.174 145.926,42.243 
	142.076,42.243 142.076,56.517 "/>
<polygon fill="#BCD754" points="53.77,41.607 53.77,55.607 71.77,48.607 "/>
<polygon fill="#BCD754" points="172.77,41.607 172.77,55.607 154.77,48.607 "/>
<path fill="#1A1A19" d="M177.76,36.188c0.18,0,0.321,0.145,0.321,0.32v110.343c0,1.094-1.209,3.188-2.155,3.733l-60.802,35.104
	c-0.231,0.133-0.96,0.389-2.071,0.399l-0.085,0.001c-1.069,0-1.872-0.241-2.153-0.4l-60.801-35.104
	c-0.947-0.547-2.156-2.641-2.156-3.733V36.508c0-0.176,0.145-0.32,0.322-0.32H177.76 M177.76,28.982H48.18
	c-4.156,0-7.525,3.369-7.525,7.525V146.85c0,3.657,2.59,8.146,5.756,9.973l60.802,35.104c1.583,0.914,3.67,1.368,5.756,1.368
	c0.058,0,0.114,0,0.171-0.001c2.03-0.023,4.046-0.479,5.586-1.367l60.803-35.104c3.168-1.827,5.758-6.314,5.758-9.973V36.508
	C185.285,32.352,181.916,28.982,177.76,28.982"/>
<polygon fill="#A5C139" points="129.309,114.013 153.201,122.076 153.201,135.504 122.484,148.568 98.592,138.461 98.592,126.627 
	"/>
<polygon fill="#FFFFFF" points="122.484,136.463 153.201,123.43 129.309,114.284 98.592,127.438 "/>
<polygon fill="#FFFFFF" points="110.409,120.317 141.126,107.285 117.234,98.139 86.518,111.292 "/>
<polygon fill="#A5C139" points="116.148,97.596 140.04,105.66 140.04,119.087 109.323,132.152 85.432,122.044 85.432,110.21 "/>
<polygon fill="#FFFFFF" points="110.176,120.283 140.893,107.25 117.001,98.104 86.284,111.258 "/>
<polygon fill="#A5C139" points="104.209,81.315 128.102,89.38 128.102,102.807 97.385,115.871 73.492,105.764 73.492,93.93 "/>
<polygon fill="#FFFFFF" points="97.928,104.58 128.645,91.547 104.752,82.4 74.035,95.554 "/>
<g opacity="0.8">
	<g>
		<g>
			<g>
				<defs>
					<rect id="SVGID_21_" x="73.99" y="95.715" width="48.49" height="51.668"/>
				</defs>
				<clipPath id="SVGID_22_">
					<use xlink:href="#SVGID_21_"  overflow="visible"/>
				</clipPath>
				<polygon clip-path="url(#SVGID_22_)" fill="#A5C139" points="74.506,95.715 97.928,104.58 97.928,115.613 110.176,120.284 
					110.21,131.826 122.484,136.463 122.484,147.384 99.131,138.7 98.949,127.575 87.102,122.329 86.518,111.857 73.986,106.139 
									"/>
			</g>
		</g>
	</g>
</g>
<path fill="#1A1A19" d="M122.486,150.748L96.584,139.79v-10.764l-12.074-5.109v-10.728l-12.481-5.282V93.398l32.655-13.411
	l25.968,8.766v11.796l12.479,4.213v11.8l12.074,4.074v16.194L122.486,150.748z M100.599,137.13l21.883,9.259l28.713-12.213v-10.658
	l-12.075-4.074v-11.8l-12.481-4.214V91.634l-21.817-7.361L76.043,96.089v9.158l12.483,5.281v10.729l12.074,5.108L100.599,137.13
	L100.599,137.13z"/>
<path fill="#191818" d="M128.751,104.191l-18.619,6.255l17.444-9.026c0.74-0.383,1.65-0.093,2.035,0.646
	c0.383,0.74,0.092,1.651-0.647,2.034C128.896,104.137,128.82,104.168,128.751,104.191"/>
<path fill="#191818" d="M141.311,120.108l-16.524,5.329l15.356-8.104c0.736-0.389,1.65-0.106,2.041,0.632
	c0.391,0.737,0.105,1.651-0.633,2.041C141.475,120.048,141.389,120.082,141.311,120.108"/>
<path fill="#BCD754" d="M196.818,36.388c0,12.15-9.852,22-22,22c-12.149,0-22-9.85-22-22c0-12.149,9.851-22,22-22
	C186.969,14.388,196.818,24.238,196.818,36.388"/>
<g opacity="0.5">
	<g>
		<g>
			<g>
				<defs>
					<rect id="SVGID_23_" x="152.82" y="14.388" width="44" height="44"/>
				</defs>
				<clipPath id="SVGID_24_">
					<use xlink:href="#SVGID_23_"  overflow="visible"/>
				</clipPath>
				<path clip-path="url(#SVGID_24_)" fill="#FFFFFF" d="M174.818,18.388c9.926,0,18,8.075,18,18c0,9.925-8.074,18-18,18
					s-18-8.075-18-18C156.818,26.463,164.895,18.388,174.818,18.388 M174.818,14.388c-12.149,0-22,9.851-22,22
					c0,12.15,9.851,22,22,22c12.148,0,22-9.85,22-22C196.818,24.238,186.969,14.388,174.818,14.388"/>
			</g>
		</g>
	</g>
</g>
<path fill="#191818" d="M174.818,60.388c-13.232,0-24-10.767-24-24c0-13.232,10.768-24,24-24s24,10.768,24,24
	C198.818,49.621,188.053,60.388,174.818,60.388 M174.818,16.388c-11.027,0-20,8.973-20,20c0,11.028,8.973,20,20,20s20-8.972,20-20
	C194.818,25.36,185.848,16.388,174.818,16.388"/>
<polygon fill="#1A1A19" points="169.221,44.388 166.92,40.74 164.547,44.388 160.35,44.388 164.473,38.189 160.6,32.316 
	164.82,32.316 166.896,35.59 168.945,32.316 173.17,32.316 169.32,38.189 173.443,44.388 "/>
<path fill="#1A1A19" d="M174.396,44.388v-3.349c7.224-5.223,8.572-6.374,8.572-8.047c0-1.125-1.076-1.726-2.301-1.726
	c-1.85,0-3.248,0.699-4.449,1.824l-2.373-2.849c1.774-1.95,4.426-2.775,6.748-2.775c3.924,0,6.748,2.2,6.748,5.525
	c0,2.574-1.824,4.748-5.973,7.646h6.098v3.749h-13.07V44.388L174.396,44.388z"/>
</svg>
