<?xml version="1.0" encoding="utf-8"?>
<!-- Generator: Adobe Illustrator 16.0.0, SVG Export Plug-In . SVG Version: 6.00 Build 0)  -->
<!DOCTYPE svg PUBLIC "-//W3C//DTD SVG 1.1//EN" "http://www.w3.org/Graphics/SVG/1.1/DTD/svg11.dtd">
<svg version="1.1" id="Layer_1" xmlns="http://www.w3.org/2000/svg" xmlns:xlink="http://www.w3.org/1999/xlink" x="0px" y="0px"
	 width="612px" height="792px" viewBox="0 0 612 792" enable-background="new 0 0 612 792" xml:space="preserve">
<path fill="#A6A8AC" d="M189.111,490.572c0,3.955,2.805,6.737,6.392,6.737c1.839,0,3.518-0.896,4.483-2.23l1.127,0.689
	c-1.379,1.679-3.172,2.737-5.61,2.737c-4.347,0-7.772-3.22-7.772-7.934"/>
<path fill="#A6A8AC" d="M187.73,490.572c0-4.714,3.426-7.934,7.772-7.934c2.438,0,4.3,1.081,5.587,2.714l-1.104,0.712
	c-0.966-1.333-2.645-2.229-4.483-2.229c-3.587,0-6.392,2.735-6.392,6.737"/>
<polygon fill="#A6A8AC" points="206.176,498.229 206.176,482.892 207.509,482.892 207.509,497.033 214.938,497.033 214.938,498.229 
	"/>
<rect x="220.389" y="482.892" fill="#A6A8AC" width="1.313" height="15.339"/>
<polygon fill="#A6A8AC" points="241.295,498.229 241.295,484.547 235.706,498.229 235.2,498.229 229.59,484.547 229.59,498.229 
	228.278,498.229 228.278,482.892 230.233,482.892 235.453,495.654 240.65,482.892 242.629,482.892 242.629,498.229 "/>
<path fill="#A6A8AC" d="M249.209,498.229v-15.337h6.301c2.574,0,4.23,1.495,4.23,3.909c0,1.931-1.31,3.241-2.689,3.518
	c1.632,0.253,2.988,1.954,2.988,3.771c0,2.554-1.654,4.14-4.392,4.14H249.209z M258.36,486.938c0-1.563-1.035-2.852-3.013-2.852
	h-4.828v5.682h4.828C257.325,489.769,258.36,488.525,258.36,486.938 M258.66,493.998c0-1.563-1.082-3.035-3.22-3.035h-4.921v6.07
	h4.921C257.465,497.033,258.66,495.86,258.66,493.998"/>
<path fill="#A6A8AC" d="M274.623,495.999l0.873-0.874c0.989,1.402,2.322,2.186,4.301,2.186c2.23,0,3.84-1.61,3.84-3.703
	c0-2.322-1.609-3.748-3.817-3.748c-1.401,0-2.599,0.46-3.726,1.494l-0.988-0.414v-8.047h8.854v1.194h-7.543v6.003
	c0.76-0.736,2.069-1.427,3.656-1.427c2.575,0,4.898,1.702,4.898,4.898c0,3.058-2.346,4.944-5.174,4.944
	C277.244,498.506,275.682,497.518,274.623,495.999"/>
<path fill="#A6A8AC" d="M298.842,496.067l0.852-0.987c0.988,1.127,2.598,2.229,4.806,2.229c3.127,0,4.024-1.748,4.024-3.058
	c0-4.508-9.198-2.162-9.198-7.521c0-2.506,2.253-4.093,5.036-4.093c2.277,0,4.023,0.805,5.197,2.161l-0.875,0.966
	c-1.104-1.333-2.666-1.931-4.392-1.931c-2.047,0-3.588,1.172-3.588,2.829c0,3.931,9.198,1.77,9.198,7.496
	c0,1.977-1.311,4.346-5.449,4.346C301.923,498.506,300.016,497.471,298.842,496.067"/>
<polygon fill="#A6A8AC" points="319.656,498.229 319.656,484.087 314.644,484.087 314.644,482.892 326.004,482.892 326.004,484.087 
	320.99,484.087 320.99,498.229 "/>
<path fill="#A6A8AC" d="M340.999,498.23l-1.519-3.772h-8.117l-1.518,3.772h-1.518l6.277-15.338h1.633l6.278,15.338H340.999z
	 M335.434,484.294l-3.633,8.97h7.243L335.434,484.294z"/>
<rect x="347.534" y="482.892" fill="#A6A8AC" width="1.312" height="15.339"/>
<path fill="#A6A8AC" d="M364.414,498.23l-4.301-6.348h-3.379v6.348h-1.313v-15.338h5.727c2.644,0,4.668,1.678,4.668,4.483
	c0,2.782-1.955,4.322-4.254,4.415L366,498.23H364.414z M364.438,487.376c0-1.932-1.357-3.289-3.404-3.289h-4.299v6.601h4.299
	C363.08,490.688,364.438,489.309,364.438,487.376"/>
<path fill="#A6A8AC" d="M370.994,496.067l0.85-0.987c0.99,1.127,2.599,2.229,4.807,2.229c3.127,0,4.023-1.748,4.023-3.058
	c0-4.508-9.197-2.162-9.197-7.521c0-2.506,2.253-4.093,5.035-4.093c2.277,0,4.025,0.805,5.197,2.161l-0.873,0.966
	c-1.104-1.333-2.668-1.931-4.393-1.931c-2.047,0-3.588,1.172-3.588,2.829c0,3.931,9.199,1.77,9.199,7.496
	c0,1.977-1.311,4.346-5.45,4.346C374.074,498.506,372.166,497.471,370.994,496.067"/>
<rect x="396.686" y="482.892" fill="#A6A8AC" width="1.312" height="15.339"/>
<polygon fill="#A6A8AC" points="415.543,498.229 405.885,485.053 405.885,498.229 404.573,498.229 404.573,482.892 405.907,482.892 
	415.52,495.884 415.52,482.892 416.83,482.892 416.83,498.229 "/>
<polygon fill="#A6A8AC" points="234.326,525.829 224.668,512.653 224.668,525.829 223.356,525.829 223.356,510.491 224.69,510.491 
	234.303,523.483 234.303,510.491 235.613,510.491 235.613,525.829 "/>
<polygon fill="#A6A8AC" points="242.193,525.829 242.193,510.491 251.922,510.491 251.922,511.688 243.506,511.688 243.506,517.367 
	251.76,517.367 251.76,518.563 243.506,518.563 243.506,524.635 251.922,524.635 251.922,525.829 "/>
<polygon fill="#A6A8AC" points="268.779,525.829 263.422,518.907 258.086,525.829 256.453,525.829 262.617,517.965 256.799,510.491 
	258.455,510.491 263.422,516.999 268.412,510.491 270.066,510.491 264.25,517.941 270.412,525.829 "/>
<polygon fill="#A6A8AC" points="279.43,525.829 279.43,511.688 274.417,511.688 274.417,510.491 285.777,510.491 285.777,511.688 
	280.764,511.688 280.764,525.829 "/>
<path fill="#A6A8AC" d="M298.797,523.553l0.896-0.781c0.851,1.219,2.346,2.138,4.3,2.138c2.368,0,3.864-1.241,3.864-3.266
	c0-2.206-1.817-3.127-4.117-3.127c-0.621,0-1.195,0.023-1.426,0.046v-1.24c0.23,0.021,0.805,0.021,1.426,0.021
	c2.047,0,3.887-0.874,3.887-2.92c0-1.909-1.701-2.967-3.68-2.967c-1.748,0-2.989,0.691-4.116,1.955l-0.828-0.828
	c1.081-1.31,2.783-2.322,5.015-2.322c2.666,0,4.942,1.448,4.942,4.047c0,2.347-1.978,3.357-3.288,3.588
	c1.334,0.138,3.52,1.287,3.52,3.816s-1.91,4.394-5.174,4.394C301.51,526.106,299.693,524.933,298.797,523.553"/>
<path fill="#A6A8AC" d="M314.666,518.172c0-3.655,1.54-7.91,5.68-7.91c4.094,0,5.656,4.255,5.656,7.91
	c0,3.633-1.563,7.935-5.656,7.935C316.206,526.106,314.666,521.805,314.666,518.172 M324.6,518.172c0-3.174-1.035-6.715-4.254-6.715
	c-3.242,0-4.3,3.541-4.3,6.715c0,3.15,1.058,6.737,4.3,6.737C323.542,524.909,324.6,521.322,324.6,518.172"/>
<polygon fill="#A6A8AC" points="353.717,525.829 353.717,512.147 348.129,525.829 347.623,525.829 342.014,512.147 342.014,525.829 
	340.701,525.829 340.701,510.491 342.656,510.491 347.876,523.254 353.073,510.491 355.051,510.491 355.051,525.829 "/>
<rect x="361.631" y="510.491" fill="#A6A8AC" width="1.313" height="15.338"/>
<polygon fill="#A6A8AC" points="380.488,525.829 370.832,512.653 370.832,525.829 369.52,525.829 369.52,510.491 370.854,510.491 
	380.467,523.483 380.467,510.491 381.776,510.491 381.776,525.829 "/>
<path fill="#BCD753" d="M366.76,275.982h-64.791H237.18c-4.156,0-7.525,3.369-7.525,7.525v110.344c0,3.656,2.59,8.143,5.756,9.972
	l60.802,35.104c1.584,0.914,3.671,1.364,5.757,1.364c0.057,0,0.113,0.003,0.17,0.003c2.03-0.024,4.047-0.478,5.588-1.367
	l60.801-35.104c3.168-1.829,5.758-6.315,5.758-9.972V283.508C374.285,279.352,370.916,275.982,366.76,275.982"/>
<g opacity="0.6">
	<g>
		<defs>
			<rect id="SVGID_1_" x="229.65" y="275.983" width="144.64" height="164.311"/>
		</defs>
		<clipPath id="SVGID_2_">
			<use xlink:href="#SVGID_1_"  overflow="visible"/>
		</clipPath>
		<path clip-path="url(#SVGID_2_)" fill="#A5C139" d="M366.76,275.982h-64.791H237.18c-4.156,0-7.525,3.369-7.525,7.525v110.344
			c0,3.656,2.59,8.143,5.756,9.972l60.802,35.104c1.584,0.914,3.671,1.364,5.757,1.364c0.057,0,0.113,0.003,0.17,0.003
			c2.03-0.024,4.047-0.478,5.588-1.367l60.801-35.104c3.168-1.829,5.758-6.315,5.758-9.972V283.508
			C374.285,279.352,370.916,275.982,366.76,275.982"/>
	</g>
</g>
<g>
	<defs>
		<path id="SVGID_3_" d="M238.971,278.254c-4.041,0-7.316,3.278-7.316,7.319v107.292c0,3.554,2.518,7.918,5.597,9.693l59.12,34.135
			c1.581,0.913,3.679,1.354,5.762,1.326c1.975-0.021,3.938-0.463,5.434-1.326l59.121-34.135c3.078-1.775,5.599-6.14,5.599-9.693
			V285.573c0-4.041-3.274-7.319-7.318-7.319H238.971z"/>
	</defs>
	<clipPath id="SVGID_4_">
		<use xlink:href="#SVGID_3_"  overflow="visible"/>
	</clipPath>
	<polygon clip-path="url(#SVGID_4_)" fill="#BCD753" points="377.975,344.773 377.975,377.834 292.408,361.304 	"/>
	<polygon clip-path="url(#SVGID_4_)" fill="#BCD753" points="225.965,344.773 225.965,377.834 311.531,361.304 	"/>
	<polygon clip-path="url(#SVGID_4_)" fill="#BCD753" points="318.5,437.309 285.439,437.309 301.969,351.742 	"/>
	<polygon clip-path="url(#SVGID_4_)" fill="#BCD753" points="318.5,285.299 285.439,285.299 301.969,370.865 	"/>
	<polygon clip-path="url(#SVGID_4_)" fill="#BCD753" points="229.941,325.45 254.017,295.547 280.426,341.452 	"/>
	<polygon clip-path="url(#SVGID_4_)" fill="#BCD753" points="375.229,325.45 351.154,295.547 324.745,341.452 	"/>
	<polygon clip-path="url(#SVGID_4_)" fill="#BCD753" points="375.229,398.735 351.154,428.639 324.745,382.733 	"/>
	<polygon clip-path="url(#SVGID_4_)" fill="#BCD753" points="229.941,398.735 254.017,428.639 280.426,382.733 	"/>
</g>
<g opacity="0.5">
	<g>
		<defs>
			<rect id="SVGID_5_" x="229.65" y="275.983" width="144.64" height="164.311"/>
		</defs>
		<clipPath id="SVGID_6_">
			<use xlink:href="#SVGID_5_"  overflow="visible"/>
		</clipPath>
		<path clip-path="url(#SVGID_6_)" fill="#FFFFFF" d="M360.488,289.779v102.755l-58.52,33.785l-58.519-33.785V289.779H360.488
			 M366.76,275.982H237.18c-4.156,0-7.525,3.369-7.525,7.525v110.343c0,3.657,2.59,8.145,5.756,9.972l60.802,35.104
			c1.583,0.914,3.67,1.368,5.756,1.368c0.058,0,0.114,0,0.171-0.001c2.03-0.024,4.047-0.479,5.588-1.367l60.801-35.104
			c3.168-1.827,5.758-6.314,5.758-9.972V283.508C374.285,279.352,370.916,275.982,366.76,275.982"/>
	</g>
</g>
<rect x="233.105" y="280.999" fill="#191818" width="137.729" height="33.868"/>
<path fill="#FFFFFF" d="M270.002,303.517v-17.343h7.178c3.095,0,4.576,2.055,4.576,4.42c0,2.186-1.197,3.589-2.783,3.979
	c1.77,0.287,3.07,2.106,3.07,4.265c0,2.626-1.484,4.68-4.629,4.68H270.002z M278.194,291.193c0-1.17-0.599-1.978-1.847-1.978h-2.86
	v3.979h2.86C277.596,293.195,278.194,292.388,278.194,291.193 M278.479,298.343c0-1.195-0.677-2.133-2.003-2.133h-2.989v4.265h2.989
	C277.778,300.475,278.479,299.695,278.479,298.343"/>
<path fill="#FFFFFF" d="M283.862,297.536v-11.361h3.51v11.388c0,2.054,1.04,3.199,2.886,3.199c1.82,0,2.86-1.146,2.86-3.199v-11.388
	h3.51v11.361c0,4.004-2.47,6.293-6.37,6.293C286.332,303.829,283.862,301.54,283.862,297.536"/>
<path fill="#FFFFFF" d="M307.053,303.518l-2.652-6.268h-1.871v6.268h-3.483v-17.344h6.474c3.172,0,5.279,2.288,5.279,5.486
	c0,2.99-1.587,4.498-3.017,4.966l3.146,6.892H307.053z M307.235,291.712c0-1.508-0.884-2.47-2.236-2.47h-2.47v4.941h2.47
	C306.352,294.184,307.235,293.221,307.235,291.712"/>
<path fill="#FFFFFF" d="M311.604,301.593l1.716-2.679c0.962,1.067,2.471,1.847,4.185,1.847c1.536,0,2.368-0.857,2.368-1.924
	c0-3.043-7.749-2.003-7.749-7.879c0-2.729,2.131-5.07,5.721-5.07c2.106,0,3.926,0.677,5.252,1.925l-1.664,2.6
	c-1.041-0.988-2.366-1.456-3.719-1.456c-1.248,0-2.027,0.702-2.027,1.768c0,2.705,7.722,1.977,7.722,7.827
	c0,3.042-2.08,5.278-5.876,5.278C314.905,303.829,312.981,302.971,311.604,301.593"/>
<polygon fill="#FFFFFF" points="327.593,303.517 327.593,289.243 323.744,289.243 323.744,286.174 334.926,286.174 334.926,289.243 
	331.076,289.243 331.076,303.517 "/>
<polygon fill="#BCD753" points="242.77,288.607 242.77,302.607 260.77,295.607 "/>
<polygon fill="#BCD753" points="361.77,288.607 361.77,302.607 343.77,295.607 "/>
<path fill="#1A1A19" d="M366.76,283.188c0.178,0,0.321,0.145,0.321,0.32v110.343c0,1.093-1.209,3.187-2.155,3.733l-60.802,35.104
	c-0.231,0.133-0.96,0.389-2.071,0.401l-0.085,0.001c-1.069,0-1.872-0.241-2.153-0.402l-60.801-35.104
	c-0.947-0.547-2.156-2.641-2.156-3.733V283.508c0-0.176,0.145-0.32,0.322-0.32H366.76 M366.76,275.982H237.18
	c-4.156,0-7.525,3.369-7.525,7.525v110.343c0,3.657,2.59,8.145,5.756,9.972l60.802,35.104c1.583,0.914,3.67,1.368,5.756,1.368
	c0.058,0,0.114,0,0.171-0.001c2.03-0.024,4.047-0.479,5.588-1.367l60.801-35.104c3.168-1.827,5.758-6.314,5.758-9.972V283.508
	C374.285,279.352,370.916,275.982,366.76,275.982"/>
<polygon fill="#A5C139" points="318.309,361.013 342.201,369.076 342.201,382.504 311.484,395.568 287.592,385.461 287.592,373.627 
	"/>
<polygon fill="#FFFFFF" points="311.484,383.463 342.201,370.43 318.309,361.284 287.592,374.437 "/>
<polygon fill="#FFFFFF" points="299.409,367.317 330.126,354.285 306.234,345.139 275.518,358.292 "/>
<polygon fill="#A5C139" points="305.148,344.596 329.04,352.66 329.04,366.087 298.323,379.152 274.432,369.044 274.432,357.21 "/>
<polygon fill="#FFFFFF" points="299.176,367.283 329.893,354.25 306.001,345.104 275.284,358.258 "/>
<polygon fill="#A5C139" points="293.209,328.315 317.102,336.38 317.102,349.807 286.385,362.871 262.492,352.764 262.492,340.93 
	"/>
<polygon fill="#FFFFFF" points="286.928,351.58 317.645,338.547 293.752,329.4 263.035,342.554 "/>
<g opacity="0.8">
	<g>
		<defs>
			<rect id="SVGID_7_" x="262.99" y="342.715" width="48.49" height="51.668"/>
		</defs>
		<clipPath id="SVGID_8_">
			<use xlink:href="#SVGID_7_"  overflow="visible"/>
		</clipPath>
		<polygon clip-path="url(#SVGID_8_)" fill="#A5C139" points="263.506,342.715 286.928,351.58 286.928,362.613 299.176,367.284 
			299.21,378.826 311.484,383.463 311.484,394.384 288.131,385.7 287.949,374.575 276.102,369.329 275.518,358.857 262.986,353.139 
					"/>
	</g>
</g>
<path fill="#1A1A19" d="M311.486,397.748l-25.902-10.958v-10.764l-12.074-5.109v-10.728l-12.481-5.282v-14.509l32.655-13.411
	l25.968,8.766v11.796l12.481,4.213v11.8l12.074,4.074v16.194L311.486,397.748z M289.599,384.13l21.884,9.259l28.712-12.213v-10.658
	l-12.075-4.075v-11.799l-12.482-4.214v-11.796l-21.816-7.362l-28.779,11.817v9.158l12.483,5.281v10.729l12.074,5.108V384.13z"/>
<path fill="#191818" d="M317.751,351.191l-18.619,6.255l17.444-9.026c0.74-0.383,1.651-0.093,2.035,0.646
	c0.383,0.741,0.092,1.652-0.647,2.035C317.896,351.137,317.82,351.168,317.751,351.191"/>
<path fill="#191818" d="M330.311,367.108l-16.526,5.329l15.358-8.104c0.736-0.389,1.65-0.106,2.041,0.632
	c0.389,0.737,0.105,1.651-0.633,2.041C330.475,367.048,330.389,367.082,330.311,367.108"/>
<path fill="#BCD753" d="M385.819,283.388c0,12.15-9.851,22-22,22c-12.15,0-22-9.85-22-22c0-12.149,9.85-22,22-22
	C375.969,261.388,385.819,271.238,385.819,283.388"/>
<g opacity="0.5">
	<g>
		<defs>
			<rect id="SVGID_9_" x="341.82" y="261.388" width="44" height="44"/>
		</defs>
		<clipPath id="SVGID_10_">
			<use xlink:href="#SVGID_9_"  overflow="visible"/>
		</clipPath>
		<path clip-path="url(#SVGID_10_)" fill="#FFFFFF" d="M363.819,265.388c9.925,0,18,8.075,18,18s-8.075,18-18,18s-18-8.075-18-18
			S353.895,265.388,363.819,265.388 M363.819,261.388c-12.15,0-22,9.851-22,22c0,12.15,9.85,22,22,22c12.149,0,22-9.85,22-22
			C385.819,271.238,375.969,261.388,363.819,261.388"/>
	</g>
</g>
<path fill="#191818" d="M363.819,307.388c-13.233,0-24-10.767-24-24c0-13.232,10.767-24,24-24s24,10.768,24,24
	C387.819,296.621,377.053,307.388,363.819,307.388 M363.819,263.388c-11.028,0-20,8.973-20,20c0,11.028,8.972,20,20,20
	s20-8.972,20-20C383.819,272.36,374.848,263.388,363.819,263.388"/>
<polygon fill="#1A1A19" points="358.221,291.388 355.92,287.74 353.547,291.388 349.349,291.388 353.472,285.189 349.599,279.316 
	353.821,279.316 355.896,282.59 357.946,279.316 362.17,279.316 358.321,285.189 362.444,291.388 "/>
<path fill="#1A1A19" d="M363.397,291.388v-3.349c7.223-5.223,8.573-6.374,8.573-8.047c0-1.125-1.076-1.726-2.301-1.726
	c-1.849,0-3.248,0.699-4.449,1.824l-2.373-2.849c1.774-1.95,4.424-2.775,6.748-2.775c3.924,0,6.748,2.2,6.748,5.525
	c0,2.574-1.824,4.748-5.973,7.646h6.098v3.749H363.397z"/>
</svg>
