<?xml version="1.0" encoding="utf-8"?>
<!-- Generator: Adobe Illustrator 16.0.0, SVG Export Plug-In . SVG Version: 6.00 Build 0)  -->
<!DOCTYPE svg PUBLIC "-//W3C//DTD SVG 1.1//EN" "http://www.w3.org/Graphics/SVG/1.1/DTD/svg11.dtd">
<svg version="1.1" id="Layer_1" xmlns="http://www.w3.org/2000/svg" xmlns:xlink="http://www.w3.org/1999/xlink" x="0px" y="0px"
	 width="612px" height="792px" viewBox="0 0 612 792" enable-background="new 0 0 612 792" xml:space="preserve">
<path fill="#95D5CF" d="M305.43,343.238h-65.164c0.001,0.09,0.003,0.177,0.003,0.267V413.7c0,0,2.697,27.413,32.361,35.734
	c28.68,8.046,32.573,17.463,32.8,18.08c0.008,0.021,0.012,0.033,0.012,0.033s3.146-9.791,32.811-18.113
	c29.665-8.321,32.362-35.734,32.362-35.734v-70.157c0-0.014,0.001-0.025,0.001-0.038c0-0.09,0.002-0.177,0.002-0.267H305.43z"/>
<g opacity="0.5">
	<g>
		<defs>
			<rect id="SVGID_1_" x="305.43" y="341.694" width="66.811" height="127.398"/>
		</defs>
		<clipPath id="SVGID_2_">
			<use xlink:href="#SVGID_1_"  overflow="visible"/>
		</clipPath>
		<path clip-path="url(#SVGID_2_)" fill="#189995" d="M339.068,450.53c30.401-8.529,33.166-36.624,33.166-36.624v-71.901
			c0-0.013,0.001-0.025,0.001-0.039c0-0.092,0.002-0.181,0.003-0.272h-66.81V469.06c0.008,0.021,0.012,0.034,0.012,0.034
			S308.665,459.06,339.068,450.53"/>
	</g>
</g>
<g opacity="0.4">
	<g>
		<defs>
			<rect id="SVGID_3_" x="229.44" y="308.55" width="152.01" height="160.543"/>
		</defs>
		<clipPath id="SVGID_4_">
			<use xlink:href="#SVGID_3_"  overflow="visible"/>
		</clipPath>
		<path clip-path="url(#SVGID_4_)" fill="#FFFFFF" d="M363.444,322.348c-2.643,4.356-4.931,10.607-5.003,19.235l-0.001,0.031
			l-0.003,0.281v0.055v0.055v70.903c-0.26,1.438-1.204,5.666-3.914,10.225c-4.132,6.953-10.586,11.701-19.182,14.113
			c-13.944,3.912-23.452,8.355-29.929,12.659c-6.466-4.301-15.956-8.755-29.872-12.659c-8.597-2.412-15.051-7.16-19.184-14.113
			c-2.709-4.559-3.653-8.786-3.913-10.225v-70.941l-0.003-0.375c-0.063-8.625-2.355-14.883-5.003-19.244h24.606h23.781h9.198h33.815
			H363.444 M371.415,308.551h-32.576h-33.815h-9.198h-23.781h-32.576l-10.034,15.453c0,0,9.1,2.807,9.21,17.689
			c0.001,0.091,0.003,0.181,0.003,0.273v71.939c0,0,2.764,28.095,33.166,36.624c29.394,8.245,33.383,17.897,33.615,18.529
			c0.008,0.021,0.012,0.033,0.012,0.033s3.226-10.033,33.627-18.563c30.403-8.529,33.167-36.624,33.167-36.624v-71.901
			c0-0.013,0.001-0.025,0.001-0.038c0-0.093,0.003-0.183,0.003-0.273c0.11-14.883,9.211-17.689,9.211-17.689L371.415,308.551z"/>
	</g>
</g>
<path fill="#1A1A19" d="M381.448,324.004l-10.034-15.454H338.84h-33.816h-9.198h-23.781H239.47l-10.034,15.454
	c0,0,9.099,2.807,9.21,17.69v7.524h133.593v-7.524C372.35,326.811,381.448,324.004,381.448,324.004"/>
<path fill="#191818" d="M366.871,316.916l3.394,5.226c-2.296,2.725-4.317,6.396-5.445,11.186H246.063
	c-1.128-4.789-3.148-8.46-5.444-11.186l3.392-5.226h28.033h23.781h9.198h33.815H366.871 M371.415,308.551h-32.576h-33.815h-9.198
	h-23.781h-32.576l-10.034,15.453c0,0,9.1,2.807,9.21,17.689h133.594c0.11-14.883,9.211-17.689,9.211-17.689L371.415,308.551z"/>
<path fill="#191818" d="M366.871,316.916l3.394,5.227c-3.476,4.128-6.325,10.428-6.392,19.498l-0.002,0.059v0.038v0.023
	l-0.002,0.166v0.038v0.04v71.392c-0.394,2.726-4.039,22.62-27.061,29.079c-5.88,1.648-21.529,6.527-31.393,14.106
	c-5.686-4.468-15.251-9.594-31.342-14.106c-22.9-6.425-26.624-26.116-27.06-29.099v-71.41l-0.002-0.268l-0.001-0.068
	c-0.067-9.064-2.915-15.361-6.391-19.489l3.392-5.226h28.033h23.781h9.198h33.815H366.871 M371.415,308.551h-32.576h-33.815h-9.198
	h-23.781h-32.576l-10.034,15.453c0,0,9.1,2.807,9.21,17.689c0.001,0.091,0.003,0.181,0.003,0.273v71.939
	c0,0,2.764,28.095,33.166,36.624c29.394,8.245,33.383,17.897,33.615,18.529c0.008,0.021,0.012,0.033,0.012,0.033
	s3.226-10.033,33.627-18.563c30.403-8.529,33.167-36.624,33.167-36.624v-71.901c0-0.013,0.001-0.025,0.001-0.038
	c0-0.093,0.003-0.183,0.003-0.273c0.11-14.883,9.211-17.689,9.211-17.689L371.415,308.551z"/>
<path fill="#FFFFFF" d="M259.143,338.692v-4.275h-8.188v-3.372l7.044-12.434h5.178v12.253h2.017v3.553h-2.017v4.275H259.143z
	 M259.143,322.706l-4.546,8.158h4.546V322.706z"/>
<polygon fill="#FFFFFF" points="286.265,338.692 283.676,325.326 281.117,338.692 276.902,338.692 272.326,318.611 276.661,318.611 
	279.25,332.582 282.11,318.611 285.271,318.611 288.161,332.582 290.721,318.611 295.056,318.611 290.479,338.692 "/>
<polygon fill="#FFFFFF" points="297.01,338.692 297.01,318.611 308.51,318.611 308.51,322.165 301.043,322.165 301.043,326.711 
	308.299,326.711 308.299,330.263 301.043,330.263 301.043,335.14 308.51,335.14 308.51,338.692 "/>
<polygon fill="#FFFFFF" points="311.488,338.692 311.488,318.611 322.988,318.611 322.988,322.165 315.521,322.165 315.521,326.711 
	322.777,326.711 322.777,330.263 315.521,330.263 315.521,335.14 322.988,335.14 322.988,338.692 "/>
<polygon fill="#FFFFFF" points="336.052,338.692 331.416,330.835 330.001,333.063 330.001,338.692 325.967,338.692 325.967,318.611 
	330.001,318.611 330.001,327.733 335.66,318.611 340.357,318.611 333.945,328.064 340.808,338.692 "/>
<path fill="#FFFFFF" d="M341.318,336.464l1.986-3.101c1.114,1.234,2.86,2.138,4.848,2.138c1.775,0,2.738-0.994,2.738-2.228
	c0-3.522-8.971-2.318-8.971-9.122c0-3.162,2.469-5.871,6.623-5.871c2.439,0,4.546,0.784,6.082,2.228l-1.927,3.012
	c-1.204-1.145-2.74-1.687-4.306-1.687c-1.444,0-2.348,0.813-2.348,2.047c0,3.131,8.941,2.288,8.941,9.063
	c0,3.521-2.409,6.111-6.805,6.111C345.141,339.054,342.914,338.061,341.318,336.464"/>
<path fill="#FFFFFF" d="M306.744,377.137c0.391-0.502,3.572-4.556,3.966-5.01c13.438-15.473,31.015-1.697,30.063-2.439
	c10.289,8.021,12.461,20.222,3.872,31.24c-13.27,17.026-30.962,1.477-29.974,2.247c-2.926-2.28-26.01-20.272-26.01-20.272
	l-0.219,2.966l-5.315-0.224l-2.223-17.934l17.934-2.224l1.767,4.774l-3.074,1.262l27.572,20.496c0,0,3.306,1.793,6.474-2.271
	c3.167-4.064-0.825-7.175-0.825-7.175l-1.58-1.022c0,0-3.348-2.441-6.832,2.03l-3.483,4.47"/>
<path fill="#191818" d="M319.994,387.066c0.485,3.915,4.052,6.695,7.968,6.21c3.915-0.485,6.695-4.053,6.209-7.968
	c-0.484-3.915-4.052-6.695-7.967-6.21S319.51,383.151,319.994,387.066"/>
<path fill="#FFFFFF" d="M308.124,379.451l4.587,3.41c-0.108,0.189-0.217,0.382-0.324,0.577L308.124,379.451z"/>
<path fill="#191818" d="M312.81,386.09l-5.812-5.435l2.109-2.527l5.762,4.283l-0.727,1.269c-0.104,0.182-0.208,0.365-0.311,0.554
	L312.81,386.09z"/>
<polygon fill="#191818" points="314.324,384.188 312.575,382.89 312.787,382.526 314.454,384.029 "/>
<path fill="#191818" d="M326.74,392.431c-1.111,0-1.843-0.39-1.873-0.406l-6.012-4.468l0.065-0.083
	c0.396-0.507,1.259-1.614,3.151-4.042c1.413-1.813,2.973-2.733,4.633-2.733c1.386,0,2.303,0.656,2.341,0.685l1.575,1.018
	c0.049,0.038,1.031,0.813,1.638,2.106c0.561,1.199,0.881,3.078-0.788,5.219C329.729,391.961,327.937,392.431,326.74,392.431
	 M324.978,391.851c0.002,0,0.712,0.374,1.763,0.374c1.15,0,2.877-0.456,4.568-2.626c1.288-1.651,1.544-3.336,0.764-5.004
	c-0.586-1.249-1.561-2.018-1.57-2.026l-1.572-1.016c-0.014-0.01-0.909-0.648-2.225-0.648c-1.594,0-3.099,0.893-4.472,2.654
	c-1.794,2.304-2.663,3.418-3.086,3.959L324.978,391.851z"/>
<path fill="#95D5CF" d="M334.393,375.202c8.394,5.708,7.535,14.323,3.321,20.018c-4.729,6.394-11.995,6.281-16.507,3.01
	c-2.135-1.55-28.199-21.343-40.405-30.615l17.849-2.213l1.767,4.773l-3.074,1.264l10.78,8.013c0,0,10.546,8.513,10.878,8.087
	l5.914,4.396c0,0,3.306,1.793,6.474-2.271c3.167-4.063-0.825-7.176-0.825-7.176l-1.578-1.021c0,0-3.35-2.44-6.833,2.029
	c-1.893,2.428-2.757,3.536-3.151,4.043l-4.616-3.432l-1.573-1.418C319.111,371.834,327.393,370.443,334.393,375.202"/>
<path fill="#191818" d="M329.69,410.773c-8.563,0.001-15.405-5.75-16.069-6.326l-23.542-18.351l-0.11,1.484l-8.305-0.347
	l-2.599-20.957l20.867-2.587l2.772,7.491l-1.848,0.759l4.97,3.694c0.942-1.2,3.272-4.166,3.64-4.589
	c6.018-6.93,13.288-9.814,21.028-8.341c2.922,0.556,7.465,2.051,12.507,6.015c5.835,4.585,14.231,18.739,2.943,33.222
	c-4.13,5.3-9.018,8.244-14.528,8.754C330.835,410.749,330.259,410.773,329.69,410.773 M287.246,379.708l28.519,22.231
	c0.069,0.061,7.197,6.228,15.37,5.471c4.559-0.43,8.667-2.951,12.21-7.496c10.727-13.764,0.85-26.062-2.382-28.602
	c-14.15-11.124-24.248-3.587-29.008,1.896c-0.283,0.327-2.468,3.101-3.481,4.395l10.406,7.736l2.161-2.771
	c3.53-4.532,7.5-3.519,9.104-2.349l1.622,1.053c0.133,0.104,1.331,1.067,2.079,2.665c1.053,2.249,0.71,4.672-0.968,6.824
	c-3.186,4.086-6.992,3.559-8.561,2.707l-0.198-0.126l-29.913-22.236l4.3-1.767l-0.761-2.055l-15.002,1.859l1.848,14.911l2.324,0.099
	L287.246,379.708z M325.959,390.601c0.414,0.172,2.291,0.736,4.317-1.866c1.916-2.457,0.175-4.267-0.495-4.825l-1.504-0.973
	c-0.408-0.275-2.313-1.324-4.636,1.658l-2.114,2.712L325.959,390.601z"/>
<path fill="#FFFFFF" d="M304.287,415.282c-0.392,0.502-3.572,4.557-3.966,5.01c-13.438,15.473-31.014,1.697-30.062,2.439
	c-10.29-8.021-12.461-20.221-3.873-31.24c13.27-17.025,30.963-1.477,29.974-2.247c2.926,2.28,26.009,20.272,26.009,20.272
	l0.22-2.964l5.313,0.222l2.225,17.934l-17.935,2.224l-1.767-4.774l3.074-1.262l-27.572-20.496c0,0-3.307-1.793-6.474,2.271
	c-3.167,4.064,0.825,7.176,0.825,7.176l1.579,1.021c0,0,3.35,2.441,6.833-2.029l3.484-4.471"/>
<path fill="#191818" d="M329.69,410.773c-8.563,0.001-15.405-5.75-16.069-6.326l-23.542-18.351l-0.11,1.484l-8.305-0.347
	l-2.599-20.957l20.867-2.587l2.772,7.491l-1.848,0.759l4.97,3.694c0.942-1.2,3.272-4.166,3.64-4.589
	c6.018-6.93,13.288-9.814,21.028-8.341c2.922,0.556,7.465,2.051,12.507,6.015c5.835,4.585,14.231,18.739,2.943,33.222
	c-4.13,5.3-9.018,8.244-14.528,8.754C330.835,410.749,330.259,410.773,329.69,410.773 M287.246,379.708l28.519,22.231
	c0.069,0.061,7.197,6.228,15.37,5.471c4.559-0.43,8.667-2.951,12.21-7.496c10.727-13.764,0.85-26.062-2.382-28.602
	c-14.15-11.124-24.248-3.587-29.008,1.896c-0.283,0.327-2.468,3.101-3.481,4.395l10.406,7.736l2.161-2.771
	c3.53-4.532,7.5-3.519,9.104-2.349l1.622,1.053c0.133,0.104,1.331,1.067,2.079,2.665c1.053,2.249,0.71,4.672-0.968,6.824
	c-3.186,4.086-6.992,3.559-8.561,2.707l-0.198-0.126l-29.913-22.236l4.3-1.767l-0.761-2.055l-15.002,1.859l1.848,14.911l2.324,0.099
	L287.246,379.708z M325.959,390.601c0.414,0.172,2.291,0.736,4.317-1.866c1.916-2.457,0.175-4.267-0.495-4.825l-1.504-0.973
	c-0.408-0.275-2.313-1.324-4.636,1.658l-2.114,2.712L325.959,390.601z"/>
<path fill="#FFFFFF" d="M304.287,415.282c-0.392,0.502-3.572,4.557-3.966,5.01c-13.438,15.473-31.014,1.697-30.062,2.439
	c-10.29-8.021-12.461-20.221-3.873-31.24c13.27-17.025,30.963-1.477,29.974-2.247c2.926,2.28,26.009,20.272,26.009,20.272
	l0.22-2.964l5.313,0.222l2.225,17.934l-17.935,2.224l-1.767-4.774l3.074-1.262l-27.572-20.496c0,0-3.307-1.793-6.474,2.271
	c-3.167,4.064,0.825,7.176,0.825,7.176l1.579,1.021c0,0,3.35,2.441,6.833-2.029l3.484-4.471"/>
<path fill="#191818" d="M291.037,405.353c-0.485-3.915-4.052-6.694-7.968-6.21c-3.914,0.485-6.695,4.053-6.209,7.969
	c0.485,3.914,4.052,6.694,7.967,6.209C288.741,412.835,291.521,409.268,291.037,405.353"/>
<path fill="#FFFFFF" d="M302.907,412.968l-4.588-3.409c0.109-0.19,0.217-0.383,0.325-0.577L302.907,412.968z"/>
<path fill="#191818" d="M301.924,414.291l-5.762-4.282l0.727-1.271c0.104-0.18,0.208-0.365,0.311-0.552l1.022-1.859l5.812,5.438
	L301.924,414.291z"/>
<polygon fill="#191818" points="298.245,409.894 296.577,408.389 296.707,408.229 298.455,409.53 "/>
<path fill="#191818" d="M284.325,411.721c-1.385,0-2.302-0.656-2.34-0.684l-1.575-1.019c-0.048-0.037-4.044-3.227-0.85-7.326
	c1.742-2.234,3.534-2.704,4.73-2.704c1.112,0,1.843,0.391,1.874,0.406l6.01,4.467l-3.215,4.126
	C287.545,410.802,285.986,411.721,284.325,411.721 M284.29,400.194c-1.15,0-2.876,0.455-4.568,2.625
	c-3.066,3.936,0.648,6.906,0.807,7.031l1.573,1.016c0.013,0.011,0.908,0.648,2.223,0.648c1.594,0,3.098-0.892,4.472-2.654
	l3.085-3.96l-5.829-4.332C286.051,400.568,285.341,400.194,284.29,400.194"/>
<path fill="#95D5CF" d="M276.639,417.217c-8.394-5.708-7.536-14.323-3.322-20.018c4.73-6.394,11.995-6.281,16.507-3.009
	c2.135,1.549,28.199,21.342,40.405,30.614l-17.849,2.213l-1.767-4.773l3.074-1.263l-10.78-8.014c0,0-10.547-8.513-10.879-8.087
	l-5.914-4.396c0,0-3.306-1.793-6.474,2.271c-3.167,4.064,0.825,7.176,0.825,7.176l1.58,1.021c0,0,3.348,2.44,6.832-2.029
	c1.892-2.428,2.756-3.536,3.151-4.043l4.616,3.432l1.574,1.419C291.92,420.585,283.638,421.976,276.639,417.217"/>
<path fill="#191818" d="M284.44,430.089c-1.285,0-2.587-0.125-3.903-0.375c-2.921-0.556-7.462-2.051-12.507-6.014
	c-5.836-4.585-14.232-18.74-2.944-33.222c4.13-5.3,9.018-8.244,14.527-8.754c9.348-0.866,17.087,5.635,17.796,6.248l23.543,18.35
	l0.109-1.484l8.305,0.348l2.599,20.956l-20.866,2.587l-2.771-7.491l1.847-0.759l-4.969-3.694c-0.941,1.2-3.268,4.161-3.64,4.589
	C296.571,427.124,290.713,430.089,284.44,430.089 M281.318,384.944c-0.47,0-0.943,0.021-1.423,0.065
	c-4.559,0.43-8.667,2.95-12.209,7.495c-10.728,13.765-0.851,26.063,2.381,28.603c14.151,11.117,24.249,3.584,29.009-1.896
	c0.286-0.33,2.467-3.101,3.481-4.394l-10.407-7.737l-2.16,2.771c-3.531,4.531-7.498,3.52-9.104,2.348l-1.622-1.052
	c-2.127-1.658-4.179-5.555-1.112-9.49c3.186-4.086,6.994-3.557,8.562-2.707l0.198,0.126l29.915,22.236l-4.302,1.766l0.761,2.057
	l15.002-1.859l-1.849-14.911l-2.323-0.099l-0.33,4.444l-28.519-22.229C295.202,390.422,288.881,384.944,281.318,384.944
	 M281.25,408.511l1.504,0.973c0.409,0.275,2.311,1.323,4.637-1.659l2.113-2.711l-4.431-3.294c-0.415-0.171-2.29-0.738-4.319,1.864
	C278.839,406.142,280.58,407.951,281.25,408.511"/>
<polyline fill="#FFFFFF" points="281.746,374.47 283.118,385.621 288.433,385.843 288.653,382.879 292.59,385.928 "/>
<polygon fill="#191818" points="289.96,387.557 281.652,387.209 280.109,374.671 283.383,374.269 284.585,384.032 286.906,384.129 
	287.235,379.697 293.6,384.624 291.581,387.232 290.07,386.062 "/>
<path fill="#191818" d="M326.544,363.974c7.45,0,13.513,4.529,15.438,6.042c4.38,3.442,13.815,16.603,2.662,30.912
	c-4.85,6.223-10.158,8.196-14.942,8.196c-0.511,0-1.017-0.022-1.517-0.065l1.94,15.65l-17.934,2.223l-1.767-4.773l3.074-1.263
	l-17.042-12.669l7.829,7.057c-0.392,0.502-3.572,4.555-3.966,5.01c-5.356,6.166-10.899,8.152-15.834,8.152
	c-7.45,0-13.512-4.528-15.438-6.042c-4.38-3.442-13.816-16.602-2.663-30.911c4.85-6.224,10.158-8.197,14.943-8.196
	c0.511,0,1.017,0.021,1.515,0.063l-1.94-15.648l17.934-2.224l1.768,4.774l-3.074,1.262l17.042,12.668l-7.829-7.055
	c0.391-0.502,3.572-4.556,3.966-5.01C316.066,365.961,321.609,363.974,326.544,363.974 M326.928,392.414
	c1.244,0,2.967-0.506,4.649-2.665c3.167-4.064-0.825-7.175-0.825-7.175l-1.579-1.022c0,0-0.913-0.665-2.28-0.665
	c-1.252,0-2.888,0.558-4.553,2.695c-1.892,2.427-2.755,3.535-3.15,4.042l5.914,4.396C325.104,392.02,325.83,392.414,326.928,392.414
	 M322.369,409.516l0.132-1.784c-4.666-1.759-7.83-4.557-7.83-4.557c-2.926-2.28-26.009-20.272-26.009-20.272l-0.133,1.785
	c4.667,1.759,7.83,4.557,7.83,4.557C299.285,391.524,322.369,409.516,322.369,409.516 M284.138,411.533
	c1.253,0,2.887-0.559,4.552-2.695c1.893-2.427,2.756-3.535,3.15-4.042l-5.914-4.396c0,0-0.726-0.394-1.824-0.394
	c-1.245,0-2.967,0.506-4.649,2.665c-3.168,4.063,0.824,7.175,0.824,7.175l1.58,1.022
	C281.858,410.868,282.77,411.533,284.138,411.533 M326.544,361.466c-6.567,0-12.532,3.033-17.728,9.017
	c-0.335,0.387-2.063,2.577-3.15,3.963l-3.077-2.286l1.209-0.497l-0.84-2.271l-1.767-4.773l-0.69-1.863l-1.971,0.244l-17.935,2.224
	l-2.489,0.308l0.309,2.49l1.588,12.812c-5.941,0.393-11.182,3.456-15.596,9.119c-11.685,14.991-2.963,29.668,3.092,34.426
	c5.477,4.303,11.351,6.578,16.988,6.578c6.567,0,12.531-3.033,17.728-9.018c0.329-0.38,2.06-2.576,3.149-3.963l3.077,2.287
	l-1.209,0.496l0.841,2.271l1.767,4.774l0.689,1.863l1.972-0.245l17.935-2.224l2.489-0.308l-0.309-2.49l-1.588-12.811
	c5.94-0.395,11.182-3.457,15.595-9.119c11.686-14.993,2.963-29.668-3.092-34.426C338.057,363.74,332.182,361.466,326.544,361.466
	 M322.746,387.142l1.573-2.018c0.614-0.789,1.559-1.729,2.573-1.729c0.414,0,0.732,0.154,0.832,0.208l0.086,0.072v-0.017
	l1.461,0.943c0.861,0.736,1.606,1.962,0.326,3.604c-0.877,1.127-1.776,1.699-2.67,1.699c-0.237,0-0.455-0.047-0.562-0.073
	L322.746,387.142z M281.76,407.816c-0.862-0.735-1.607-1.963-0.328-3.604c0.879-1.127,1.777-1.699,2.671-1.699
	c0.238,0,0.455,0.046,0.561,0.072l3.621,2.691l-1.573,2.019c-0.614,0.789-1.56,1.728-2.574,1.728c-0.414,0-0.733-0.153-0.831-0.208
	l-0.087-0.071v0.017L281.76,407.816z"/>
<path fill="#1A1A19" d="M305.441,473.093c0,0-0.004-0.012-0.013-0.033c-0.193-0.528-3.012-7.319-20.954-14.34v16.474
	c11.415,7.014,20.568,9.112,20.568,9.112h0.797c0,0,9.153-2.099,20.568-9.112v-16.476
	C307.72,466.029,305.441,473.093,305.441,473.093"/>
<path fill="#1A1A19" d="M252.146,442.729v8.096c8.119,9.57,19.146,15.858,29.014,22.171v-16.513
	c-2.791-0.993-5.886-1.983-9.345-2.953C263.249,451.127,256.879,447.172,252.146,442.729"/>
<path fill="#1A1A19" d="M329.725,456.484v16.512c9.869-6.313,20.895-12.601,29.014-22.17v-8.098
	c-4.734,4.442-11.105,8.398-19.67,10.802C335.607,454.501,332.517,455.491,329.725,456.484"/>
<path fill="#010101" d="M398.082,381.021c0.146,1.75-0.151,3.623,0.188,5.468c0.328,0.774,0.592,1.555,0.873,2.35
	c0.818,2.085,1.734,3.99,3.309,4.866c1.285-2.558,2.464-5.286,2.744-8.497c-0.084-2.1-0.508-4.063-1.249-5.929
	c-1.149-2.939-3.061-5.579-5.612-7.85c-0.082-0.08-0.144-0.111-0.187-0.171l-0.414-0.012c0.092,0.271,0.165,0.576,0.247,0.886
	C398.657,375.018,398.362,377.81,398.082,381.021"/>
<path fill="#010101" d="M398.281,398.8c-1.817-3.576-5.513-6.851-6.38-10.245l-0.53-0.223c-1.338,3.336-1.194,7.327-0.17,10.951
	c1.108,4.704,3.424,8.369,4.508,12.994c0.193,0.89,0.354,1.774,0.459,2.742c6.955-5.049,13.369-10.809,15.182-19.897l-12.193,6.129
	C398.992,400.404,398.664,399.565,398.281,398.8"/>
<path fill="#010101" d="M378.678,439.958c-0.916-0.017-1.783-0.026-2.638,0.015c3.211-4.571,2.291-10.164,4.058-15.119l-0.017-0.22
	c-5.329,2.009-8.124,6.701-10.731,11.657c-1.86,3.592-3.683,7.274-6.339,9.994c1.109,0.08,2.153,0.229,3.234,0.388
	c1.122,0.163,2.274,0.387,3.435,0.692c2.307,0.135,4.581,0.238,6.732,0.167c4.035-0.171,7.795-0.855,11.037-2.606
	c1.502-0.798,2.902-1.849,4.131-3.16c-0.949-0.154-1.992-0.343-3.028-0.524C385.287,440.687,381.854,440.116,378.678,439.958"/>
<path fill="#010101" d="M391.678,424.385c-1.494-5.036-4.273-10.122-3.865-15.642l-0.142-0.219l-0.374,0.165
	c-0.045,0.036-0.097,0.108-0.101,0.145c-0.292,0.5-0.601,0.785-1.136,1.3c-3.806,6.707-3.23,14.78-1.276,21.92
	c0.321,1.176,0.653,2.295,1.063,3.425c3.422-2.676,7.644-3.359,11.442-5.306c0.341-0.207,0.676-0.37,1.029-0.582
	c3.659-2.642,5.886-7.007,6.841-11.184c-2.373,0.757-4.7,1.368-6.876,2.187C395.939,421.439,393.676,422.582,391.678,424.385"/>
<path fill="#010101" d="M212.878,381.15c-0.24,1.74-0.044,3.626-0.482,5.45c-0.369,0.755-0.674,1.52-0.997,2.299
	c-0.931,2.037-1.947,3.89-3.568,4.68c-1.145-2.622-2.174-5.411-2.281-8.632c0.197-2.091,0.726-4.029,1.567-5.853
	c1.306-2.873,3.357-5.406,6.027-7.536c0.086-0.075,0.148-0.104,0.195-0.161l0.415,0.011c-0.108,0.268-0.196,0.567-0.295,0.872
	C212.628,375.125,212.771,377.929,212.878,381.15"/>
<path fill="#010101" d="M212.603,398.8c1.817-3.576,5.512-6.851,6.379-10.245l0.532-0.223c1.337,3.336,1.193,7.327,0.168,10.951
	c-1.108,4.704-3.423,8.369-4.507,12.994c-0.194,0.89-0.354,1.774-0.459,2.742c-6.956-5.049-13.369-10.809-15.182-19.897
	l12.194,6.129C211.891,400.404,212.22,399.565,212.603,398.8"/>
<path fill="#010101" d="M232.205,439.958c0.916-0.017,1.783-0.026,2.638,0.015c-3.211-4.571-2.291-10.164-4.058-15.119l0.017-0.22
	c5.329,2.009,8.124,6.701,10.731,11.657c1.861,3.592,3.683,7.274,6.339,9.994c-1.109,0.08-2.153,0.229-3.234,0.388
	c-1.122,0.163-2.275,0.387-3.435,0.692c-2.306,0.135-4.581,0.238-6.732,0.167c-4.035-0.171-7.795-0.855-11.037-2.606
	c-1.502-0.798-2.902-1.849-4.131-3.16c0.949-0.154,1.992-0.343,3.028-0.524C225.596,440.687,229.029,440.116,232.205,439.958"/>
<path fill="#010101" d="M219.205,424.385c1.494-5.036,4.274-10.122,3.865-15.642l0.142-0.219l0.374,0.165
	c0.045,0.036,0.097,0.108,0.102,0.145c0.292,0.5,0.601,0.785,1.136,1.3c3.805,6.707,3.23,14.78,1.276,21.92
	c-0.321,1.176-0.654,2.295-1.063,3.425c-3.423-2.676-7.644-3.359-11.443-5.306c-0.341-0.207-0.676-0.37-1.029-0.582
	c-3.66-2.642-5.886-7.007-6.841-11.184c2.373,0.757,4.7,1.368,6.876,2.187C214.944,421.439,217.207,422.582,219.205,424.385"/>
</svg>
