<?xml version="1.0" encoding="utf-8"?>
<!-- Generator: Adobe Illustrator 16.0.0, SVG Export Plug-In . SVG Version: 6.00 Build 0)  -->
<!DOCTYPE svg PUBLIC "-//W3C//DTD SVG 1.1//EN" "http://www.w3.org/Graphics/SVG/1.1/DTD/svg11.dtd">
<svg version="1.1" id="Layer_1" xmlns="http://www.w3.org/2000/svg" xmlns:xlink="http://www.w3.org/1999/xlink" x="0px" y="0px"
	 width="612px" height="792px" viewBox="0 0 612 792" enable-background="new 0 0 612 792" xml:space="preserve">
<path fill="#F26C7C" d="M306.22,342.809h-64.375c0.001,0.088,0.003,0.174,0.003,0.263v69.344c0,0,2.664,27.081,31.97,35.303
	c28.331,7.947,32.178,17.251,32.402,17.86c0.008,0.021,0.011,0.032,0.011,0.032s3.109-9.671,32.414-17.893
	s31.97-35.303,31.97-35.303v-69.306c0-0.014,0.001-0.026,0.001-0.038c0-0.089,0.002-0.175,0.002-0.263H306.22z"/>
<g opacity="0.6">
	<g>
		<defs>
			<rect id="SVGID_1_" x="306.22" y="340.51" width="66.811" height="127.4"/>
		</defs>
		<clipPath id="SVGID_2_">
			<use xlink:href="#SVGID_1_"  overflow="visible"/>
		</clipPath>
		<path clip-path="url(#SVGID_2_)" fill="#DF2E54" d="M339.857,449.346c30.402-8.528,33.166-36.623,33.166-36.623v-71.901
			c0-0.013,0.002-0.026,0.002-0.039c0-0.092,0.002-0.181,0.002-0.272h-66.809v127.365c0.008,0.022,0.012,0.034,0.012,0.034
			S309.455,457.875,339.857,449.346"/>
	</g>
</g>
<g opacity="0.4">
	<g>
		<defs>
			<rect id="SVGID_3_" x="230.22" y="307.37" width="152.021" height="160.54"/>
		</defs>
		<clipPath id="SVGID_4_">
			<use xlink:href="#SVGID_3_"  overflow="visible"/>
		</clipPath>
		<path clip-path="url(#SVGID_4_)" fill="#FFFFFF" d="M364.234,321.164c-2.643,4.355-4.93,10.604-5.003,19.229v0.004l-0.003,0.259
			l-0.001,0.083v0.082v70.951c-0.224,1.224-1.069,5.082-3.448,9.367c-4.105,7.396-10.717,12.417-19.648,14.923
			c-13.943,3.912-23.451,8.355-29.929,12.659c-6.466-4.301-15.954-8.755-29.872-12.659c-8.596-2.412-15.05-7.16-19.183-14.113
			c-2.709-4.559-3.653-8.787-3.913-10.226v-70.941l-0.003-0.376c-0.064-8.624-2.355-14.881-5.003-19.242h24.605h23.781h9.198h33.815
			H364.234 M372.204,307.366h-32.575h-33.815h-9.198h-23.781h-32.576l-10.034,15.454c0,0,9.1,2.807,9.211,17.689
			c0,0.091,0.002,0.181,0.002,0.272v71.94c0,0,2.764,28.095,33.166,36.624c29.393,8.245,33.383,17.896,33.616,18.528
			c0.008,0.022,0.011,0.033,0.011,0.033s3.225-10.033,33.628-18.562c30.401-8.529,33.166-36.624,33.166-36.624v-71.901
			c0-0.013,0.001-0.025,0.001-0.039c0-0.092,0.002-0.182,0.003-0.272c0.11-14.883,9.21-17.689,9.21-17.689L372.204,307.366z"/>
	</g>
</g>
<path fill="#1A1A19" d="M382.238,322.82l-10.034-15.454h-32.575h-33.815h-9.198h-23.781h-32.576l-10.034,15.454
	c0,0,9.1,2.807,9.211,17.689v7.525h133.593v-7.525C373.139,325.627,382.238,322.82,382.238,322.82"/>
<path fill="#191818" d="M367.661,315.732l3.394,5.225c-2.297,2.726-4.317,6.396-5.445,11.187H246.854
	c-1.128-4.79-3.149-8.461-5.444-11.187l3.392-5.225h28.033h23.781h9.198h33.815H367.661 M372.204,307.366h-32.575h-33.815h-9.198
	h-23.781h-32.576l-10.034,15.454c0,0,9.1,2.807,9.211,17.689h133.593c0.11-14.883,9.21-17.689,9.21-17.689L372.204,307.366z"/>
<path fill="#191818" d="M367.661,315.732l3.394,5.225c-3.477,4.129-6.325,10.429-6.393,19.496l-0.001,0.06v0.041l-0.001,0.024
	l-0.002,0.164v0.039v0.04v71.372c-0.436,2.981-4.16,22.673-27.061,29.098c-5.879,1.649-21.528,6.528-31.393,14.107
	c-5.685-4.468-15.25-9.593-31.342-14.107c-22.9-6.425-26.624-26.116-27.06-29.098v-71.411l-0.002-0.267v-0.068
	c-0.068-9.064-2.916-15.361-6.392-19.49l3.392-5.225h28.033h23.781h9.198h33.815H367.661 M372.204,307.366h-32.575h-33.815h-9.198
	h-23.781h-32.576l-10.034,15.454c0,0,9.1,2.807,9.211,17.689c0,0.091,0.002,0.181,0.002,0.272v71.94c0,0,2.764,28.095,33.166,36.624
	c29.393,8.245,33.383,17.896,33.616,18.528c0.008,0.022,0.011,0.033,0.011,0.033s3.225-10.033,33.628-18.562
	c30.401-8.529,33.166-36.624,33.166-36.624v-71.901c0-0.013,0.001-0.025,0.001-0.039c0-0.092,0.002-0.182,0.003-0.272
	c0.11-14.883,9.21-17.689,9.21-17.689L372.204,307.366z"/>
<polygon fill="#FFFFFF" points="264.898,337.508 270.919,320.98 262.61,320.98 262.61,317.428 275.495,317.428 275.495,320.229 
	269.263,337.508 "/>
<path fill="#FFFFFF" d="M284.162,337.508v-20.08h6.473c5.539,0,8.731,4.154,8.731,10.056s-3.162,10.024-8.731,10.024H284.162z
	 M295.241,327.483c0-3.974-1.565-6.503-4.606-6.503h-2.438v12.976h2.438C293.616,333.956,295.241,331.308,295.241,327.483"/>
<path fill="#FFFFFF" d="M312.067,337.508l-0.933-3.552h-6.172l-0.934,3.552h-4.365l5.961-20.08h4.877l5.961,20.08H312.067z
	 M308.063,321.673l-2.288,8.73h4.576L308.063,321.673z"/>
<polygon fill="#FFFFFF" points="321.067,337.508 321.067,329.229 314.865,317.428 319.321,317.428 323.084,325.496 326.847,317.428 
	331.303,317.428 325.102,329.229 325.102,337.508 "/>
<path fill="#FFFFFF" d="M331.271,335.28l1.986-3.101c1.114,1.234,2.86,2.138,4.848,2.138c1.775,0,2.74-0.993,2.74-2.228
	c0-3.523-8.973-2.318-8.973-9.122c0-3.162,2.469-5.871,6.624-5.871c2.438,0,4.545,0.783,6.081,2.228l-1.927,3.012
	c-1.204-1.145-2.74-1.687-4.306-1.687c-1.444,0-2.348,0.813-2.348,2.047c0,3.132,8.941,2.288,8.941,9.063
	c0,3.521-2.408,6.11-6.805,6.11C335.094,337.869,332.867,336.877,331.271,335.28"/>
<path fill="#191818" d="M289.874,368.856c0,2.099-1.701,3.8-3.8,3.8s-3.799-1.701-3.799-3.8s1.701-3.8,3.799-3.8
	S289.874,366.758,289.874,368.856"/>
<path fill="#FFFFFF" d="M316.983,428.655c-14.856,6.186-31.914-0.844-38.099-15.7c-6.186-14.856,0.844-31.914,15.701-38.1
	c14.856-6.186,31.913,0.845,38.099,15.701C338.869,405.412,331.84,422.471,316.983,428.655"/>
<path fill="#F26C7C" d="M305.784,374.163c-15.239,0-27.593,12.354-27.593,27.593s12.354,27.593,27.593,27.593
	c15.239,0,27.593-12.354,27.593-27.593S321.023,374.163,305.784,374.163 M305.784,422.98c-11.722,0-21.225-9.502-21.225-21.225
	s9.503-21.226,21.225-21.226s21.226,9.503,21.226,21.226S317.506,422.98,305.784,422.98"/>
<path fill="#F26C7C" d="M305.784,386.897c-8.206,0-14.858,6.652-14.858,14.858s6.652,14.857,14.858,14.857
	s14.858-6.651,14.858-14.857S313.99,386.897,305.784,386.897 M305.784,410.246c-4.689,0-8.49-3.801-8.49-8.49s3.801-8.49,8.49-8.49
	c4.689,0,8.49,3.801,8.49,8.49S310.474,410.246,305.784,410.246"/>
<path fill="#191818" d="M305.784,396.893c-2.686,0-4.863,2.178-4.863,4.863s2.177,4.862,4.863,4.862
	c2.687,0,4.863-2.177,4.863-4.862S308.471,396.893,305.784,396.893"/>
<path fill="#191818" d="M305.798,437.214c-14.366,0-27.217-8.57-32.739-21.833c-7.513-18.045,1.056-38.838,19.101-46.352
	c4.354-1.813,8.933-2.731,13.611-2.731c14.367,0,27.218,8.569,32.74,21.833c7.513,18.045-1.056,38.838-19.101,46.351
	C315.056,436.295,310.477,437.214,305.798,437.214 M305.771,370.442c-4.128,0-8.172,0.813-12.018,2.413
	c-15.937,6.635-23.503,24.996-16.868,40.933c4.876,11.713,16.226,19.28,28.913,19.28c4.129,0,8.173-0.812,12.019-2.413
	c15.936-6.635,23.502-24.997,16.868-40.932C329.808,378.011,318.459,370.442,305.771,370.442"/>
<path fill="#FFFFFF" d="M305.771,368.37v5.269c11.393,0,21.584,6.796,25.963,17.313c5.957,14.31-0.838,30.796-15.146,36.753
	c-3.455,1.439-7.085,2.168-10.79,2.168c-11.393,0-21.584-6.796-25.963-17.313c-5.957-14.31,0.837-30.796,15.146-36.753
	c3.455-1.439,7.085-2.168,10.79-2.168V368.37 M305.771,368.37c-4.275,0-8.622,0.827-12.815,2.573
	c-17.017,7.084-25.069,26.623-17.985,43.641c5.34,12.824,17.752,20.558,30.827,20.558c4.274,0,8.622-0.827,12.815-2.573
	c17.017-7.084,25.068-26.623,17.983-43.641C331.258,376.104,318.847,368.37,305.771,368.37"/>
<path fill="#191818" d="M305.798,437.214c-14.366,0-27.217-8.57-32.739-21.833c-7.513-18.045,1.056-38.838,19.101-46.352
	c4.354-1.813,8.933-2.731,13.611-2.731c14.367,0,27.218,8.569,32.74,21.833c7.513,18.045-1.056,38.838-19.101,46.351
	C315.056,436.295,310.477,437.214,305.798,437.214 M305.771,370.442c-4.128,0-8.172,0.813-12.018,2.413
	c-15.937,6.635-23.503,24.996-16.868,40.933c4.876,11.713,16.226,19.28,28.913,19.28c4.129,0,8.173-0.812,12.019-2.413
	c15.936-6.635,23.502-24.997,16.868-40.932C329.808,378.011,318.459,370.442,305.771,370.442"/>
<path fill="#191818" d="M305.784,376.818c0,0-0.002,0.021-0.004,0.053h0.01C305.786,376.839,305.784,376.818,305.784,376.818"/>
<path fill="#191818" d="M304.966,434.315h1.636c0.692,0,1.255-0.562,1.255-1.254v-5.435c0-0.693-0.563-1.254-1.255-1.254h-1.636
	c-0.693,0-1.254,0.561-1.254,1.254v5.435C303.712,433.754,304.273,434.315,304.966,434.315"/>
<path fill="#191818" d="M305.469,376.846c0.001,0.014,0.537,0.025,1.195,0.025c0.658,0,1.192-0.561,1.192-1.254v-5.77
	c0-0.692-0.562-1.254-1.254-1.254h-1.636c-0.693,0-1.255,0.562-1.255,1.254v5.77c0,0.693,0.392,1.254,0.875,1.254
	s0.876-0.012,0.877-0.025C305.464,376.83,305.466,376.83,305.469,376.846"/>
<path fill="#191818" d="M338.646,402.272v-1.636c0-0.693-0.562-1.255-1.254-1.255h-5.687c-0.692,0-1.254,0.562-1.254,1.255v1.636
	c0,0.693,0.562,1.255,1.254,1.255h5.687C338.084,403.527,338.646,402.966,338.646,402.272"/>
<path fill="#191818" d="M272.923,400.637v1.636c0,0.692,0.562,1.255,1.254,1.255h5.519c0.693,0,1.254-0.563,1.254-1.255v-1.636
	c0-0.693-0.561-1.254-1.254-1.254h-5.519C273.485,399.383,272.923,399.943,272.923,400.637"/>
<path fill="#191818" d="M289.848,381.771c-0.682-1.044-0.388-2.442,0.657-3.125c1.044-0.681,2.443-0.387,3.124,0.657
	c0.683,1.045,11.682,22.031,11.682,22.031S290.528,382.814,289.848,381.771"/>
<path fill="#F26C7C" d="M312.763,361.922c0,3.711-3.009,6.719-6.72,6.719c-3.71,0-6.718-3.008-6.718-6.719
	c0-3.71,3.008-6.719,6.718-6.719C309.754,355.203,312.763,358.212,312.763,361.922"/>
<path fill="#191818" d="M328.958,411.036c1.193,0.364,2.454-0.308,2.818-1.5s-0.309-2.455-1.5-2.819
	c-1.193-0.363-24.412-5.089-24.412-5.089S327.766,410.672,328.958,411.036"/>
<path fill="#191818" d="M306.234,369.945c-4.437,0-8.046-3.609-8.046-8.046s3.609-8.046,8.046-8.046
	c4.438,0,8.046,3.609,8.046,8.046S310.672,369.945,306.234,369.945 M306.234,357.998c-2.151,0-3.901,1.75-3.901,3.901
	s1.75,3.901,3.901,3.901c2.151,0,3.901-1.75,3.901-3.901S308.386,357.998,306.234,357.998"/>
<path fill="#191818" d="M319.859,369.599l2.586-3.061c0.896-1.058,2.478-1.19,3.536-0.296l12.03,10.171
	c1.059,0.894,1.191,2.477,0.296,3.535l-2.587,3.061L319.859,369.599z"/>
<path fill="#1A1A19" d="M306.23,472.615c0,0-0.004-0.012-0.012-0.033c-0.194-0.527-3.011-7.318-20.954-14.34v16.475
	c11.415,7.013,20.568,9.111,20.568,9.111h0.797c0,0,9.152-2.099,20.567-9.111V458.24C308.51,465.553,306.23,472.615,306.23,472.615"
	/>
<path fill="#1A1A19" d="M252.935,442.252v8.096c8.119,9.57,19.146,15.858,29.014,22.171v-16.513
	c-2.791-0.993-5.886-1.982-9.345-2.953C264.039,450.65,257.669,446.695,252.935,442.252"/>
<path fill="#1A1A19" d="M330.514,456.007v16.512c9.869-6.313,20.895-12.601,29.014-22.17v-8.098
	c-4.733,4.442-11.104,8.398-19.67,10.802C336.397,454.023,333.306,455.014,330.514,456.007"/>
<path fill="#010101" d="M380.597,439.48c-0.916-0.017-1.783-0.026-2.638,0.015c3.211-4.571,2.291-10.164,4.058-15.119l-0.017-0.22
	c-5.329,2.009-8.125,6.701-10.731,11.657c-1.861,3.593-3.683,7.274-6.339,9.994c1.109,0.08,2.152,0.229,3.234,0.388
	c1.121,0.164,2.275,0.387,3.435,0.692c2.306,0.135,4.581,0.238,6.733,0.167c4.033-0.171,7.793-0.854,11.035-2.605
	c1.502-0.799,2.902-1.85,4.131-3.161c-0.948-0.154-1.991-0.343-3.027-0.524C387.207,440.209,383.772,439.639,380.597,439.48"/>
<path fill="#010101" d="M393.597,421.649c-1.494-5.036-4.274-10.122-3.865-15.641l-0.142-0.22l-0.374,0.166
	c-0.045,0.035-0.097,0.107-0.102,0.144c-0.292,0.501-0.601,0.786-1.136,1.3c-3.805,6.707-3.23,14.78-1.275,21.92
	c0.32,1.176,0.653,2.295,1.063,3.426c3.423-2.677,7.645-3.359,11.443-5.307c0.341-0.207,0.676-0.37,1.028-0.582
	c3.66-2.641,5.886-7.007,6.843-11.183c-2.373,0.757-4.701,1.368-6.877,2.186C397.857,418.705,395.595,419.847,393.597,421.649"/>
<path fill="#010101" d="M217.512,398.762c0.117,1.752,0.691,3.561,0.63,5.436c-0.208,0.813-0.352,1.625-0.512,2.452
	c-0.499,2.185-1.119,4.204-2.547,5.305c-1.651-2.336-3.224-4.858-3.98-7.992c-0.229-2.087-0.103-4.092,0.352-6.048
	c0.698-3.078,2.195-5.973,4.379-8.6c0.069-0.092,0.125-0.131,0.158-0.196l0.408-0.074c-0.051,0.283-0.077,0.595-0.112,0.913
	C216.048,392.912,216.756,395.628,217.512,398.762"/>
<path fill="#010101" d="M395.342,398.762c-0.117,1.752-0.69,3.561-0.63,5.436c0.208,0.813,0.353,1.625,0.513,2.452
	c0.498,2.185,1.119,4.204,2.547,5.305c1.65-2.336,3.224-4.858,3.979-7.992c0.231-2.087,0.104-4.092-0.35-6.048
	c-0.699-3.078-2.195-5.973-4.379-8.6c-0.069-0.092-0.125-0.131-0.158-0.196l-0.408-0.074c0.051,0.283,0.077,0.595,0.112,0.913
	C396.807,392.912,396.098,395.628,395.342,398.762"/>
<path fill="#010101" d="M231.866,439.48c0.916-0.017,1.783-0.026,2.638,0.015c-3.211-4.571-2.291-10.164-4.058-15.119l0.017-0.22
	c5.329,2.009,8.124,6.701,10.731,11.657c1.861,3.593,3.683,7.274,6.339,9.994c-1.109,0.08-2.153,0.229-3.234,0.388
	c-1.122,0.164-2.274,0.387-3.435,0.692c-2.306,0.135-4.581,0.238-6.732,0.167c-4.035-0.171-7.795-0.854-11.037-2.605
	c-1.502-0.799-2.901-1.85-4.131-3.161c0.949-0.154,1.992-0.343,3.028-0.524C225.257,440.209,228.69,439.639,231.866,439.48"/>
<path fill="#010101" d="M218.866,421.649c1.494-5.036,4.274-10.122,3.865-15.641l0.142-0.22l0.374,0.166
	c0.045,0.035,0.097,0.107,0.101,0.144c0.292,0.501,0.601,0.786,1.136,1.3c3.805,6.707,3.229,14.78,1.275,21.92
	c-0.32,1.176-0.653,2.295-1.063,3.426c-3.423-2.677-7.645-3.359-11.443-5.307c-0.341-0.207-0.676-0.37-1.029-0.582
	c-3.66-2.641-5.886-7.007-6.841-11.183c2.373,0.757,4.7,1.368,6.876,2.186C214.605,418.705,216.868,419.847,218.866,421.649"/>
</svg>
