<?xml version="1.0" encoding="utf-8"?>
<!-- Generator: Adobe Illustrator 16.0.0, SVG Export Plug-In . SVG Version: 6.00 Build 0)  -->
<!DOCTYPE svg PUBLIC "-//W3C//DTD SVG 1.1//EN" "http://www.w3.org/Graphics/SVG/1.1/DTD/svg11.dtd">
<svg version="1.1" id="Layer_1" xmlns="http://www.w3.org/2000/svg" xmlns:xlink="http://www.w3.org/1999/xlink" x="0px" y="0px"
	 width="240px" height="200px" viewBox="0 0 240 200" enable-background="new 0 0 240 200" xml:space="preserve">
<path fill="none" d="M53.764,2645.837"/>
<path fill="none" d="M53.764-599.76"/>
<path fill="#F26D7C" d="M118.139,58.51H53.452c0,0.088,0.002,0.175,0.002,0.265v69.682c0,0,2.677,27.213,32.125,35.474
	c28.47,7.987,32.334,17.335,32.56,17.948c0.008,0.021,0.011,0.031,0.011,0.031s3.124-9.718,32.571-17.979
	c29.448-8.261,32.125-35.474,32.125-35.474V58.813c0-0.014,0.002-0.024,0.002-0.038c0-0.09,0.002-0.177,0.002-0.265H118.139z"/>
<g opacity="0.6">
	<g>
		<g>
			<defs>
				<rect id="SVGID_1_" x="118.14" y="56.51" width="66.811" height="127.4"/>
			</defs>
			<clipPath id="SVGID_2_">
				<use xlink:href="#SVGID_1_"  overflow="visible"/>
			</clipPath>
			<path clip-path="url(#SVGID_2_)" fill="#DF2F55" d="M151.777,165.346c30.402-8.527,33.166-36.623,33.166-36.623v-71.9
				c0-0.014,0.002-0.026,0.002-0.039c0-0.092,0.002-0.182,0.002-0.272h-66.809v127.365c0.008,0.022,0.012,0.034,0.012,0.034
				S121.375,173.875,151.777,165.346"/>
		</g>
	</g>
</g>
<g opacity="0.4">
	<g>
		<g>
			<defs>
				<rect id="SVGID_3_" x="42.14" y="23.37" width="152.021" height="160.54"/>
			</defs>
			<clipPath id="SVGID_4_">
				<use xlink:href="#SVGID_3_"  overflow="visible"/>
			</clipPath>
			<path clip-path="url(#SVGID_4_)" fill="#FFFFFF" d="M176.154,37.164c-2.639,4.35-4.924,10.589-5.002,19.195l-0.002,0.03
				l-0.004,0.321v0.055v0.056v70.951c-0.224,1.224-1.068,5.081-3.447,9.366c-4.105,7.396-10.717,12.417-19.648,14.924
				c-13.943,3.911-23.451,8.354-29.929,12.658c-6.466-4.301-15.954-8.755-29.872-12.658c-8.596-2.412-15.051-7.16-19.183-14.113
				c-2.71-4.56-3.653-8.787-3.913-10.227v-70.94l-0.003-0.376c-0.065-8.624-2.356-14.881-5.003-19.242h24.605h23.781h9.198h33.814
				H176.154 M184.124,23.366h-32.576h-33.814h-9.198H84.755H52.179L42.145,38.82c0,0,9.1,2.807,9.21,17.688
				c0.001,0.091,0.003,0.182,0.003,0.272v71.939c0,0,2.764,28.096,33.166,36.624c29.393,8.245,33.383,17.896,33.615,18.528
				c0.008,0.021,0.012,0.033,0.012,0.033s3.225-10.033,33.626-18.563c30.402-8.528,33.168-36.624,33.168-36.624v-71.9
				c0-0.014,0-0.025,0-0.039c0-0.093,0.003-0.183,0.003-0.272c0.11-14.883,9.211-17.688,9.211-17.688L184.124,23.366z"/>
		</g>
	</g>
</g>
<path fill="#1A1A19" d="M194.158,38.82l-10.034-15.454h-32.576h-33.814h-9.198H84.755H52.179L42.145,38.82
	c0,0,9.1,2.807,9.211,17.688v7.525h133.593v-7.525C185.059,41.627,194.158,38.82,194.158,38.82"/>
<path fill="#191818" d="M179.581,31.732l3.394,5.225c-2.297,2.726-4.316,6.396-5.445,11.187H58.773
	c-1.128-4.79-3.149-8.461-5.444-11.187l3.392-5.225h28.033h23.781h9.198h33.814H179.581 M184.124,23.366h-32.576h-33.814h-9.198
	H84.755H52.179L42.145,38.82c0,0,9.1,2.807,9.21,17.688h133.593c0.11-14.883,9.211-17.688,9.211-17.688L184.124,23.366z"/>
<path fill="#191818" d="M179.581,31.732l3.394,5.225c-3.477,4.13-6.324,10.43-6.393,19.5l-0.001,0.059v0.018l-0.002,0.036
	l-0.001,0.199l-0.001,0.027v0.025v71.392c-0.392,2.727-4.037,22.619-27.06,29.078c-5.879,1.649-21.529,6.528-31.394,14.107
	c-5.685-4.469-15.25-9.594-31.342-14.107c-22.9-6.425-26.624-26.116-27.06-29.098V56.782l-0.002-0.268l-0.001-0.067
	c-0.067-9.064-2.915-15.361-6.391-19.49l3.392-5.225h28.033h23.781h9.198h33.814H179.581 M184.124,23.366h-32.576h-33.814h-9.198
	H84.755H52.179L42.145,38.82c0,0,9.1,2.807,9.21,17.688c0.001,0.091,0.003,0.182,0.003,0.272v71.939c0,0,2.764,28.096,33.166,36.624
	c29.393,8.245,33.383,17.896,33.615,18.528c0.008,0.021,0.012,0.033,0.012,0.033s3.225-10.033,33.626-18.563
	c30.402-8.528,33.168-36.624,33.168-36.624v-71.9c0-0.014,0-0.025,0-0.039c0-0.093,0.003-0.183,0.003-0.272
	c0.11-14.883,9.211-17.688,9.211-17.688L184.124,23.366z"/>
<path fill="#FFFFFF" d="M73.823,50.618l2.408-2.528c1.024,1.324,2.619,2.197,4.305,2.197c2.108,0,3.071-1.113,3.071-2.68
	c0-1.866-1.294-2.529-3.251-2.529c-0.662,0-1.566,0-1.867,0.062v-3.644c0.301,0.03,1.294,0.03,1.776,0.03
	c1.837,0,3.071-0.753,3.071-2.317c0-1.687-1.204-2.5-2.95-2.5c-1.565,0-2.98,0.723-4.004,2.018l-2.288-2.348
	c1.444-2.018,3.732-3.252,6.623-3.252c3.974,0,6.593,1.896,6.593,5.449c0,2.288-1.716,4.154-3.793,4.576
	c2.047,0.301,4.094,2.106,4.094,4.816c0,3.491-2.679,5.899-6.894,5.899C77.526,53.869,75.087,52.455,73.823,50.618"/>
<path fill="#FFFFFF" d="M96.76,53.508v-20.08h6.473c5.539,0,8.731,4.154,8.731,10.057c0,5.901-3.162,10.023-8.731,10.023H96.76z
	 M107.839,43.483c0-3.975-1.565-6.503-4.606-6.503h-2.438v12.976h2.438C106.214,49.956,107.839,47.308,107.839,43.483"/>
<path fill="#FFFFFF" d="M124.665,53.508l-0.933-3.552h-6.172l-0.934,3.552h-4.365l5.961-20.08h4.877l5.961,20.08H124.665z
	 M120.661,37.673l-2.288,8.73h4.576L120.661,37.673z"/>
<polygon fill="#FFFFFF" points="133.665,53.508 133.665,45.229 127.463,33.428 131.919,33.428 135.682,41.496 139.443,33.428 
	143.9,33.428 137.699,45.229 137.699,53.508 "/>
<path fill="#FFFFFF" d="M143.869,51.28l1.986-3.102c1.113,1.234,2.859,2.139,4.848,2.139c1.775,0,2.74-0.993,2.74-2.229
	c0-3.522-8.974-2.317-8.974-9.122c0-3.162,2.47-5.871,6.624-5.871c2.438,0,4.545,0.783,6.081,2.229l-1.927,3.012
	c-1.204-1.145-2.74-1.687-4.307-1.687c-1.443,0-2.348,0.813-2.348,2.047c0,3.132,8.941,2.288,8.941,9.063
	c0,3.521-2.408,6.11-6.805,6.11C147.691,53.869,145.465,52.877,143.869,51.28"/>
<path fill="#191818" d="M101.794,84.856c0,2.099-1.701,3.8-3.8,3.8c-2.099,0-3.799-1.701-3.799-3.8c0-2.1,1.701-3.801,3.799-3.801
	C100.092,81.056,101.794,82.758,101.794,84.856"/>
<path fill="#FFFFFF" d="M128.902,144.655c-14.855,6.186-31.913-0.845-38.098-15.7c-6.185-14.856,0.844-31.914,15.701-38.1
	c14.856-6.187,31.914,0.845,38.101,15.7C150.789,121.412,143.76,138.471,128.902,144.655"/>
<path fill="#F26D7C" d="M117.704,90.163c-15.239,0-27.593,12.354-27.593,27.593s12.354,27.593,27.593,27.593
	s27.593-12.354,27.593-27.593S132.943,90.163,117.704,90.163 M117.704,138.98c-11.722,0-21.225-9.503-21.225-21.226
	s9.503-21.226,21.225-21.226c11.722,0,21.226,9.503,21.226,21.226C138.93,129.479,129.426,138.98,117.704,138.98"/>
<path fill="#F26D7C" d="M117.704,102.897c-8.206,0-14.858,6.651-14.858,14.857s6.652,14.857,14.858,14.857
	s14.858-6.651,14.858-14.857S125.91,102.897,117.704,102.897 M117.704,126.246c-4.689,0-8.49-3.801-8.49-8.49
	c0-4.688,3.801-8.49,8.49-8.49c4.688,0,8.489,3.802,8.489,8.49C126.193,122.445,122.395,126.246,117.704,126.246"/>
<path fill="#191818" d="M117.704,112.893c-2.686,0-4.863,2.179-4.863,4.863c0,2.686,2.177,4.862,4.863,4.862
	c2.685,0,4.862-2.177,4.862-4.862C122.566,115.071,120.389,112.893,117.704,112.893"/>
<path fill="#191818" d="M117.718,153.214c-14.366,0-27.217-8.57-32.739-21.833c-7.513-18.045,1.056-38.838,19.101-46.352
	c4.354-1.813,8.933-2.731,13.611-2.731c14.368,0,27.218,8.569,32.741,21.833c3.639,8.742,3.655,18.377,0.049,27.132
	c-3.608,8.754-10.41,15.58-19.151,19.22C126.977,152.295,122.396,153.214,117.718,153.214 M117.69,86.442
	c-4.128,0-8.172,0.813-12.018,2.413c-15.937,6.635-23.503,24.995-16.868,40.933c4.876,11.713,16.225,19.28,28.913,19.28
	c4.128,0,8.172-0.813,12.018-2.413c7.721-3.214,13.728-9.241,16.912-16.974c3.188-7.73,3.17-16.239-0.043-23.959
	C141.729,94.011,130.379,86.442,117.69,86.442"/>
<path fill="#FFFFFF" d="M117.691,84.37v5.269c11.393,0,21.584,6.796,25.963,17.313c5.957,14.31-0.838,30.796-15.146,36.753
	c-3.455,1.438-7.085,2.168-10.79,2.168c-11.393,0-21.585-6.796-25.964-17.313c-5.957-14.31,0.838-30.796,15.147-36.753
	c3.455-1.438,7.085-2.168,10.79-2.168V84.37 M117.691,84.37c-4.275,0-8.622,0.827-12.815,2.573
	c-17.018,7.084-25.07,26.623-17.985,43.641c5.34,12.824,17.751,20.558,30.827,20.558c4.274,0,8.621-0.826,12.815-2.572
	c17.017-7.084,25.068-26.623,17.982-43.642C143.178,92.104,130.766,84.37,117.691,84.37"/>
<path fill="#191818" d="M117.718,153.214c-14.366,0-27.217-8.57-32.739-21.833c-7.513-18.045,1.056-38.838,19.101-46.352
	c4.354-1.813,8.933-2.731,13.611-2.731c14.368,0,27.218,8.569,32.741,21.833c3.639,8.742,3.655,18.377,0.049,27.132
	c-3.608,8.754-10.41,15.58-19.151,19.22C126.977,152.295,122.396,153.214,117.718,153.214 M117.69,86.442
	c-4.128,0-8.172,0.813-12.018,2.413c-15.937,6.635-23.503,24.995-16.868,40.933c4.876,11.713,16.225,19.28,28.913,19.28
	c4.128,0,8.172-0.813,12.018-2.413c7.721-3.214,13.728-9.241,16.912-16.974c3.188-7.73,3.17-16.239-0.043-23.959
	C141.729,94.011,130.379,86.442,117.69,86.442"/>
<path fill="#191818" d="M117.704,92.818c0,0-0.002,0.021-0.004,0.053h0.01C117.706,92.839,117.704,92.818,117.704,92.818"/>
<path fill="#191818" d="M116.886,150.315h1.636c0.693,0,1.256-0.563,1.256-1.255v-5.435c0-0.693-0.563-1.254-1.256-1.254h-1.636
	c-0.693,0-1.254,0.561-1.254,1.254v5.435C115.632,149.754,116.193,150.315,116.886,150.315"/>
<path fill="#191818" d="M117.388,92.846c0.002,0.015,0.537,0.025,1.196,0.025c0.658,0,1.191-0.562,1.191-1.254v-5.771
	c0-0.691-0.562-1.254-1.254-1.254h-1.635c-0.692,0-1.254,0.563-1.254,1.254v5.771c0,0.692,0.391,1.254,0.874,1.254
	c0.483,0,0.876-0.012,0.877-0.025C117.384,92.83,117.387,92.83,117.388,92.846"/>
<path fill="#191818" d="M150.564,118.272v-1.637c0-0.692-0.563-1.255-1.254-1.255h-5.687c-0.692,0-1.254,0.563-1.254,1.255v1.637
	c0,0.692,0.562,1.255,1.254,1.255h5.687C150.003,119.527,150.564,118.966,150.564,118.272"/>
<path fill="#191818" d="M84.843,116.637v1.637c0,0.691,0.562,1.255,1.254,1.255h5.519c0.693,0,1.254-0.563,1.254-1.255v-1.637
	c0-0.692-0.561-1.254-1.254-1.254h-5.519C85.405,115.383,84.843,115.943,84.843,116.637"/>
<path fill="#191818" d="M101.767,97.771c-0.681-1.045-0.387-2.442,0.657-3.125c1.044-0.682,2.443-0.388,3.124,0.656
	c0.682,1.045,11.682,22.031,11.682,22.031S102.448,98.814,101.767,97.771"/>
<path fill="#F26D7C" d="M124.684,77.922c0,3.711-3.01,6.719-6.721,6.719c-3.71,0-6.718-3.008-6.718-6.719
	c0-3.71,3.008-6.719,6.718-6.719C121.674,71.203,124.684,74.212,124.684,77.922"/>
<path fill="#191818" d="M140.878,127.036c1.192,0.364,2.454-0.309,2.817-1.5c0.365-1.192-0.309-2.455-1.5-2.819
	c-1.192-0.363-24.411-5.089-24.411-5.089S139.686,126.672,140.878,127.036"/>
<path fill="#191818" d="M118.154,85.945c-4.437,0-8.046-3.609-8.046-8.046c0-4.438,3.609-8.046,8.046-8.046
	c4.438,0,8.046,3.608,8.046,8.046C126.2,82.336,122.592,85.945,118.154,85.945 M118.154,73.998c-2.151,0-3.901,1.75-3.901,3.901
	c0,2.15,1.75,3.9,3.901,3.9s3.901-1.75,3.901-3.9C122.055,75.748,120.307,73.998,118.154,73.998"/>
<path fill="#191818" d="M131.777,85.599l2.589-3.061c0.896-1.058,2.478-1.19,3.534-0.296l12.031,10.171
	c1.058,0.894,1.19,2.477,0.295,3.535l-2.586,3.061L131.777,85.599z"/>
</svg>
