<?xml version="1.0" encoding="utf-8"?>
<!-- Generator: Adobe Illustrator 16.0.0, SVG Export Plug-In . SVG Version: 6.00 Build 0)  -->
<!DOCTYPE svg PUBLIC "-//W3C//DTD SVG 1.1//EN" "http://www.w3.org/Graphics/SVG/1.1/DTD/svg11.dtd">
<svg version="1.1" id="Layer_1" xmlns="http://www.w3.org/2000/svg" xmlns:xlink="http://www.w3.org/1999/xlink" x="0px" y="0px"
	 width="612px" height="792px" viewBox="0 0 612 792" enable-background="new 0 0 612 792" xml:space="preserve">
<path fill="#F26C7C" d="M305.759,342.369h-64.834c0.001,0.088,0.002,0.176,0.002,0.266v69.839c0,0,2.684,27.274,32.198,35.555
	c28.535,8.005,32.408,17.374,32.634,17.988c0.008,0.021,0.012,0.033,0.012,0.033s3.13-9.741,32.645-18.021
	c29.516-8.28,32.198-35.555,32.198-35.555v-69.801c0-0.014,0.001-0.025,0.001-0.038c0-0.09,0.002-0.178,0.003-0.266H305.759z"/>
<g opacity="0.6">
	<g>
		<defs>
			<rect id="SVGID_1_" x="305.76" y="340.51" width="66.811" height="127.4"/>
		</defs>
		<clipPath id="SVGID_2_">
			<use xlink:href="#SVGID_1_"  overflow="visible"/>
		</clipPath>
		<path clip-path="url(#SVGID_2_)" fill="#DF2E54" d="M339.398,449.346c30.401-8.528,33.165-36.623,33.165-36.623v-71.901
			c0-0.013,0.001-0.026,0.001-0.039c0-0.092,0.002-0.181,0.004-0.272h-66.81v127.365c0.008,0.022,0.012,0.034,0.012,0.034
			S308.995,457.875,339.398,449.346"/>
	</g>
</g>
<g opacity="0.4">
	<g>
		<defs>
			<rect id="SVGID_3_" x="229.76" y="307.37" width="152.021" height="160.54"/>
		</defs>
		<clipPath id="SVGID_4_">
			<use xlink:href="#SVGID_3_"  overflow="visible"/>
		</clipPath>
		<path clip-path="url(#SVGID_4_)" fill="#FFFFFF" d="M363.774,321.164c-2.642,4.355-4.93,10.604-5.003,19.229v0.004l-0.003,0.259
			l-0.001,0.083v0.082v70.902c-0.26,1.438-1.204,5.667-3.914,10.226c-4.132,6.953-10.586,11.701-19.182,14.113
			c-13.944,3.912-23.452,8.355-29.93,12.659c-6.466-4.301-15.954-8.755-29.872-12.659c-8.596-2.412-15.051-7.16-19.183-14.113
			c-2.709-4.559-3.653-8.787-3.913-10.226v-70.941l-0.003-0.375c-0.065-8.625-2.356-14.882-5.003-19.243h24.606h23.781h9.198h33.814
			H363.774 M371.744,307.366h-32.576h-33.814h-9.198h-23.781h-32.576l-10.034,15.454c0,0,9.1,2.807,9.21,17.689
			c0.001,0.091,0.003,0.181,0.003,0.272v71.94c0,0,2.764,28.095,33.166,36.624c29.393,8.245,33.383,17.896,33.615,18.528
			c0.008,0.022,0.012,0.033,0.012,0.033s3.226-10.033,33.627-18.562c30.403-8.529,33.167-36.624,33.167-36.624v-71.901
			c0-0.013,0.001-0.025,0.001-0.039c0-0.092,0.002-0.182,0.002-0.272c0.111-14.883,9.211-17.689,9.211-17.689L371.744,307.366z"/>
	</g>
</g>
<path fill="#1A1A19" d="M381.778,322.82l-10.034-15.454h-32.575h-33.815h-9.198h-23.781h-32.576l-10.034,15.454
	c0,0,9.1,2.807,9.211,17.689v7.525h133.593v-7.525C372.68,325.627,381.778,322.82,381.778,322.82"/>
<path fill="#191818" d="M367.201,315.732l3.393,5.225c-2.295,2.726-4.316,6.396-5.444,11.187H246.394
	c-1.128-4.79-3.149-8.461-5.444-11.187l3.392-5.225h28.033h23.781h9.198h33.815H367.201 M371.744,307.366h-32.575h-33.815h-9.198
	h-23.781h-32.576l-10.033,15.454c0,0,9.099,2.807,9.21,17.689h133.593c0.111-14.883,9.21-17.689,9.21-17.689L371.744,307.366z"/>
<path fill="#191818" d="M367.201,315.732l3.393,5.225c-3.476,4.13-6.324,10.43-6.392,19.5l-0.001,0.059v0.033l-0.001,0.022
	l-0.002,0.171v0.039v0.04v71.392c-0.394,2.726-4.038,22.619-27.06,29.078c-5.879,1.649-21.529,6.528-31.394,14.107
	c-5.685-4.468-15.25-9.593-31.342-14.107c-22.9-6.425-26.624-26.116-27.06-29.098v-71.411l-0.002-0.27v-0.065
	c-0.068-9.064-2.916-15.361-6.392-19.49l3.392-5.225h28.033h23.781h9.198h33.815H367.201 M371.744,307.366h-32.575h-33.815h-9.198
	h-23.781h-32.576l-10.033,15.454c0,0,9.099,2.807,9.21,17.689c0,0.091,0.002,0.181,0.002,0.272v71.94
	c0,0,2.764,28.095,33.167,36.624c29.392,8.245,33.382,17.896,33.615,18.528c0.008,0.022,0.012,0.033,0.012,0.033
	s3.224-10.033,33.627-18.562c30.402-8.529,33.166-36.624,33.166-36.624v-71.901c0-0.013,0.001-0.025,0.001-0.039
	c0-0.092,0.002-0.182,0.003-0.272c0.111-14.883,9.21-17.689,9.21-17.689L371.744,307.366z"/>
<polygon fill="#FFFFFF" points="254.325,337.508 254.325,322.637 251.284,325.797 248.966,323.359 254.867,317.428 258.389,317.428 
	258.389,337.508 "/>
<polygon fill="#FFFFFF" points="282.832,337.508 282.832,324.563 278.347,337.508 276.751,337.508 272.295,324.563 272.295,337.508 
	268.261,337.508 268.261,317.428 273.68,317.428 277.563,328.627 281.478,317.428 286.866,317.428 286.866,337.508 "/>
<path fill="#FFFFFF" d="M289.572,327.483c0-5.961,3.131-10.386,8.369-10.386c5.269,0,8.4,4.425,8.4,10.386
	c0,5.991-3.131,10.386-8.4,10.386C292.703,337.869,289.572,333.475,289.572,327.483 M302.217,327.483
	c0-3.883-1.505-6.804-4.275-6.804c-2.74,0-4.215,2.921-4.215,6.804c0,3.824,1.475,6.804,4.215,6.804
	C300.711,334.287,302.217,331.308,302.217,327.483"/>
<polygon fill="#FFFFFF" points="319.977,337.508 313.143,325.647 313.143,337.508 309.108,337.508 309.108,317.428 313.203,317.428 
	319.766,328.868 319.766,317.428 323.83,317.428 323.83,337.508 "/>
<polygon fill="#FFFFFF" points="330.691,337.508 330.691,320.98 326.235,320.98 326.235,317.428 339.182,317.428 339.182,320.98 
	334.725,320.98 334.725,337.508 "/>
<polygon fill="#FFFFFF" points="352.274,337.508 352.274,328.958 345.621,328.958 345.621,337.508 341.586,337.508 341.586,317.428 
	345.621,317.428 345.621,325.405 352.274,325.405 352.274,317.428 356.339,317.428 356.339,337.508 "/>
<path fill="#191818" d="M289.414,368.856c0,2.099-1.701,3.8-3.8,3.8s-3.799-1.701-3.799-3.8s1.701-3.8,3.799-3.8
	S289.414,366.758,289.414,368.856"/>
<path fill="#FFFFFF" d="M316.523,428.655c-14.856,6.186-31.914-0.844-38.099-15.7c-6.186-14.856,0.844-31.914,15.701-38.1
	c14.856-6.186,31.914,0.845,38.099,15.701C338.41,405.412,331.38,422.471,316.523,428.655"/>
<path fill="#F26C7C" d="M305.324,374.163c-15.239,0-27.593,12.354-27.593,27.593s12.354,27.593,27.593,27.593
	c15.239,0,27.593-12.354,27.593-27.593S320.563,374.163,305.324,374.163 M305.324,422.98c-11.722,0-21.225-9.502-21.225-21.225
	s9.503-21.226,21.225-21.226c11.723,0,21.225,9.503,21.225,21.226S317.047,422.98,305.324,422.98"/>
<path fill="#F26C7C" d="M305.324,386.897c-8.206,0-14.858,6.652-14.858,14.858s6.652,14.857,14.858,14.857
	s14.858-6.651,14.858-14.857S313.53,386.897,305.324,386.897 M305.324,410.246c-4.689,0-8.49-3.801-8.49-8.49s3.801-8.49,8.49-8.49
	c4.689,0,8.49,3.801,8.49,8.49S310.014,410.246,305.324,410.246"/>
<path fill="#191818" d="M305.324,396.893c-2.685,0-4.863,2.178-4.863,4.863s2.178,4.862,4.863,4.862
	c2.686,0,4.863-2.177,4.863-4.862S308.01,396.893,305.324,396.893"/>
<path fill="#191818" d="M305.338,437.214c-14.366,0-27.217-8.57-32.739-21.833c-7.513-18.045,1.056-38.838,19.101-46.352
	c4.354-1.813,8.933-2.731,13.611-2.731c14.367,0,27.218,8.569,32.74,21.833c3.639,8.742,3.656,18.377,0.049,27.131
	c-3.607,8.755-10.409,15.581-19.15,19.22C314.596,436.295,310.017,437.214,305.338,437.214 M305.311,370.442
	c-4.128,0-8.172,0.813-12.018,2.413c-15.936,6.635-23.502,24.996-16.868,40.933c4.876,11.713,16.226,19.28,28.913,19.28
	c4.129,0,8.173-0.812,12.019-2.413c7.72-3.214,13.726-9.241,16.911-16.973s3.17-16.24-0.043-23.959
	C329.348,378.011,317.999,370.442,305.311,370.442"/>
<path fill="#FFFFFF" d="M305.311,368.37v5.269c11.393,0,21.583,6.796,25.962,17.313c5.957,14.31-0.836,30.796-15.146,36.753
	c-3.455,1.439-7.085,2.168-10.79,2.168c-11.393,0-21.584-6.796-25.963-17.313c-5.957-14.31,0.837-30.796,15.146-36.753
	c3.455-1.439,7.085-2.168,10.79-2.168V368.37 M305.311,368.37c-4.275,0-8.622,0.827-12.815,2.573
	c-17.017,7.084-25.069,26.623-17.984,43.641c5.339,12.824,17.751,20.558,30.826,20.558c4.275,0,8.622-0.827,12.814-2.573
	c17.018-7.084,25.069-26.623,17.984-43.641C330.798,376.104,318.387,368.37,305.311,368.37"/>
<path fill="#191818" d="M305.338,437.214c-14.366,0-27.217-8.57-32.739-21.833c-7.513-18.045,1.056-38.838,19.101-46.352
	c4.354-1.813,8.933-2.731,13.611-2.731c14.367,0,27.218,8.569,32.74,21.833c3.639,8.742,3.656,18.377,0.049,27.131
	c-3.607,8.755-10.409,15.581-19.15,19.22C314.596,436.295,310.017,437.214,305.338,437.214 M305.311,370.442
	c-4.128,0-8.172,0.813-12.018,2.413c-15.936,6.635-23.502,24.996-16.868,40.933c4.876,11.713,16.226,19.28,28.913,19.28
	c4.129,0,8.173-0.812,12.019-2.413c7.72-3.214,13.726-9.241,16.911-16.973s3.17-16.24-0.043-23.959
	C329.348,378.011,317.999,370.442,305.311,370.442"/>
<path fill="#191818" d="M305.324,376.818c0,0-0.001,0.021-0.004,0.053h0.01C305.326,376.839,305.324,376.818,305.324,376.818"/>
<path fill="#191818" d="M304.506,434.315h1.636c0.692,0,1.255-0.562,1.255-1.254v-5.435c0-0.693-0.563-1.254-1.255-1.254h-1.636
	c-0.693,0-1.254,0.561-1.254,1.254v5.435C303.252,433.754,303.813,434.315,304.506,434.315"/>
<path fill="#191818" d="M305.009,376.846c0.001,0.014,0.537,0.025,1.195,0.025c0.658,0,1.192-0.561,1.192-1.254v-5.77
	c0-0.692-0.561-1.254-1.254-1.254h-1.636c-0.693,0-1.254,0.562-1.254,1.254v5.77c0,0.693,0.391,1.254,0.874,1.254
	s0.876-0.012,0.877-0.025C305.004,376.83,305.006,376.83,305.009,376.846"/>
<path fill="#191818" d="M338.186,402.272v-1.636c0-0.693-0.563-1.255-1.254-1.255h-5.687c-0.692,0-1.254,0.562-1.254,1.255v1.636
	c0,0.693,0.562,1.255,1.254,1.255h5.687C337.623,403.527,338.186,402.966,338.186,402.272"/>
<path fill="#191818" d="M272.464,400.637v1.636c0,0.692,0.562,1.255,1.254,1.255h5.519c0.693,0,1.254-0.563,1.254-1.255v-1.636
	c0-0.693-0.561-1.254-1.254-1.254h-5.519C273.025,399.383,272.464,399.943,272.464,400.637"/>
<path fill="#191818" d="M289.388,381.771c-0.682-1.044-0.388-2.442,0.657-3.125c1.044-0.681,2.443-0.387,3.124,0.657
	c0.683,1.045,11.682,22.031,11.682,22.031S290.068,382.814,289.388,381.771"/>
<path fill="#F26C7C" d="M312.303,361.922c0,3.711-3.008,6.719-6.72,6.719c-3.71,0-6.718-3.008-6.718-6.719
	c0-3.71,3.008-6.719,6.718-6.719C309.295,355.203,312.303,358.212,312.303,361.922"/>
<path fill="#191818" d="M328.498,411.036c1.192,0.364,2.454-0.308,2.818-1.5s-0.309-2.455-1.5-2.819
	c-1.193-0.363-24.412-5.089-24.412-5.089S327.306,410.672,328.498,411.036"/>
<path fill="#191818" d="M305.774,369.945c-4.437,0-8.045-3.609-8.045-8.046s3.608-8.046,8.045-8.046s8.046,3.609,8.046,8.046
	S310.211,369.945,305.774,369.945 M305.774,357.998c-2.151,0-3.901,1.75-3.901,3.901s1.75,3.901,3.901,3.901
	c2.151,0,3.901-1.75,3.901-3.901S307.926,357.998,305.774,357.998"/>
<path fill="#191818" d="M319.398,369.599l2.588-3.061c0.895-1.058,2.478-1.19,3.535-0.296l12.03,10.171
	c1.058,0.894,1.191,2.477,0.296,3.535l-2.587,3.061L319.398,369.599z"/>
<path fill="#1A1A19" d="M305.771,472.615c0,0-0.004-0.012-0.012-0.033c-0.194-0.527-3.011-7.318-20.954-14.34v16.475
	c11.415,7.013,20.568,9.111,20.568,9.111h0.797c0,0,9.152-2.099,20.567-9.111V458.24
	C308.05,465.553,305.771,472.615,305.771,472.615"/>
<path fill="#1A1A19" d="M252.475,442.252v8.096c8.119,9.57,19.146,15.858,29.014,22.171v-16.513
	c-2.791-0.993-5.886-1.982-9.345-2.953C263.579,450.65,257.209,446.695,252.475,442.252"/>
<path fill="#1A1A19" d="M330.054,456.007v16.512c9.869-6.313,20.896-12.601,29.015-22.17v-8.098
	c-4.734,4.442-11.105,8.398-19.67,10.802C335.938,454.023,332.846,455.014,330.054,456.007"/>
<path fill="#010101" d="M398.412,380.543c0.146,1.75-0.152,3.623,0.188,5.469c0.328,0.773,0.592,1.554,0.873,2.349
	c0.818,2.085,1.732,3.99,3.309,4.866c1.285-2.557,2.464-5.286,2.744-8.497c-0.084-2.099-0.508-4.063-1.249-5.929
	c-1.15-2.939-3.062-5.578-5.613-7.851c-0.082-0.079-0.143-0.11-0.186-0.17l-0.414-0.012c0.092,0.271,0.164,0.577,0.247,0.886
	C398.987,374.54,398.692,377.332,398.412,380.543"/>
<path fill="#010101" d="M398.61,398.322c-1.817-3.576-5.512-6.851-6.379-10.244l-0.532-0.223c-1.337,3.336-1.192,7.326-0.168,10.95
	c1.108,4.704,3.424,8.369,4.508,12.994c0.193,0.89,0.354,1.775,0.459,2.742c6.955-5.049,13.368-10.808,15.182-19.897l-12.194,6.129
	C399.322,399.927,398.993,399.088,398.61,398.322"/>
<path fill="#010101" d="M379.008,439.48c-0.916-0.017-1.783-0.026-2.638,0.015c3.211-4.571,2.29-10.163,4.058-15.119l-0.017-0.22
	c-5.329,2.009-8.124,6.701-10.731,11.657c-1.861,3.593-3.683,7.274-6.339,9.994c1.109,0.08,2.153,0.229,3.234,0.388
	c1.122,0.164,2.274,0.387,3.435,0.692c2.307,0.135,4.581,0.238,6.732,0.167c4.035-0.171,7.795-0.854,11.037-2.605
	c1.502-0.799,2.901-1.85,4.131-3.161c-0.949-0.154-1.992-0.343-3.028-0.524C385.617,440.209,382.184,439.639,379.008,439.48"/>
<path fill="#010101" d="M392.008,423.907c-1.494-5.036-4.273-10.122-3.865-15.642l-0.142-0.219l-0.374,0.165
	c-0.045,0.036-0.097,0.108-0.102,0.145c-0.291,0.501-0.601,0.786-1.136,1.3c-3.805,6.707-3.229,14.78-1.275,21.92
	c0.32,1.176,0.653,2.295,1.063,3.425c3.423-2.676,7.645-3.358,11.443-5.306c0.341-0.207,0.676-0.37,1.028-0.582
	c3.66-2.641,5.887-7.007,6.842-11.184c-2.373,0.758-4.7,1.369-6.876,2.187C396.27,420.962,394.006,422.104,392.008,423.907"/>
<path fill="#010101" d="M213.208,380.673c-0.24,1.74-0.044,3.626-0.482,5.45c-0.369,0.755-0.674,1.52-0.997,2.299
	c-0.932,2.037-1.947,3.891-3.568,4.68c-1.145-2.621-2.174-5.41-2.281-8.632c0.197-2.091,0.727-4.028,1.567-5.853
	c1.306-2.873,3.357-5.406,6.027-7.536c0.086-0.075,0.149-0.103,0.195-0.16l0.415,0.011c-0.108,0.267-0.196,0.566-0.295,0.871
	C212.958,374.648,213.101,377.452,213.208,380.673"/>
<path fill="#010101" d="M212.933,398.322c1.817-3.576,5.512-6.851,6.379-10.244l0.531-0.223c1.338,3.336,1.193,7.326,0.169,10.95
	c-1.108,4.704-3.423,8.369-4.507,12.994c-0.194,0.89-0.354,1.775-0.459,2.742c-6.956-5.049-13.369-10.808-15.182-19.897
	l12.194,6.129C212.221,399.927,212.55,399.088,212.933,398.322"/>
<path fill="#010101" d="M232.535,439.48c0.916-0.017,1.783-0.026,2.638,0.015c-3.211-4.571-2.291-10.163-4.058-15.119l0.017-0.22
	c5.329,2.009,8.124,6.701,10.731,11.657c1.861,3.593,3.683,7.274,6.339,9.994c-1.109,0.08-2.153,0.229-3.234,0.388
	c-1.122,0.164-2.275,0.387-3.435,0.692c-2.306,0.135-4.581,0.238-6.732,0.167c-4.035-0.171-7.795-0.854-11.037-2.605
	c-1.502-0.799-2.901-1.85-4.131-3.161c0.949-0.154,1.992-0.343,3.028-0.524C225.926,440.209,229.359,439.639,232.535,439.48"/>
<path fill="#010101" d="M219.535,423.907c1.494-5.036,4.274-10.122,3.865-15.642l0.142-0.219l0.374,0.165
	c0.045,0.036,0.097,0.108,0.101,0.145c0.292,0.501,0.601,0.786,1.136,1.3c3.805,6.707,3.229,14.78,1.274,21.92
	c-0.319,1.176-0.652,2.295-1.062,3.425c-3.423-2.676-7.645-3.358-11.443-5.306c-0.341-0.207-0.676-0.37-1.029-0.582
	c-3.66-2.641-5.886-7.007-6.842-11.184c2.373,0.758,4.701,1.369,6.877,2.187C215.274,420.962,217.537,422.104,219.535,423.907"/>
</svg>
