<?xml version="1.0" encoding="utf-8"?>
<!-- Generator: Adobe Illustrator 16.0.0, SVG Export Plug-In . SVG Version: 6.00 Build 0)  -->
<!DOCTYPE svg PUBLIC "-//W3C//DTD SVG 1.1//EN" "http://www.w3.org/Graphics/SVG/1.1/DTD/svg11.dtd">
<svg version="1.1" id="Layer_1" xmlns="http://www.w3.org/2000/svg" xmlns:xlink="http://www.w3.org/1999/xlink" x="0px" y="0px"
	 width="612px" height="792px" viewBox="0 0 612 792" enable-background="new 0 0 612 792" xml:space="preserve">
<path fill="#95D5CF" d="M305.859,343.649h-64.733c0.001,0.088,0.003,0.175,0.003,0.264v69.732c0,0,2.679,27.231,32.148,35.499
	c28.489,7.992,32.356,17.348,32.582,17.961c0.008,0.021,0.012,0.031,0.012,0.031s3.125-9.726,32.595-17.992
	c29.469-8.268,32.147-35.499,32.147-35.499v-69.694c0-0.013,0.002-0.025,0.002-0.038c0-0.089,0.002-0.176,0.002-0.264H305.859z"/>
<g opacity="0.5">
	<g>
		<defs>
			<rect id="SVGID_1_" x="305.859" y="341.694" width="66.811" height="127.398"/>
		</defs>
		<clipPath id="SVGID_2_">
			<use xlink:href="#SVGID_1_"  overflow="visible"/>
		</clipPath>
		<path clip-path="url(#SVGID_2_)" fill="#189995" d="M339.498,450.53c30.402-8.529,33.167-36.624,33.167-36.624v-71.901
			c0-0.013,0.001-0.025,0.001-0.039c0-0.092,0.002-0.181,0.002-0.272h-66.809V469.06c0.008,0.021,0.012,0.034,0.012,0.034
			S309.096,459.06,339.498,450.53"/>
	</g>
</g>
<g opacity="0.4">
	<g>
		<defs>
			<rect id="SVGID_3_" x="229.87" y="308.55" width="152.01" height="160.543"/>
		</defs>
		<clipPath id="SVGID_4_">
			<use xlink:href="#SVGID_3_"  overflow="visible"/>
		</clipPath>
		<path clip-path="url(#SVGID_4_)" fill="#FFFFFF" d="M363.875,322.348c-2.642,4.354-4.929,10.602-5.004,19.222v0.032l-0.004,0.294
			v0.055v0.055v70.903c-0.26,1.438-1.203,5.666-3.912,10.225c-4.133,6.953-10.588,11.701-19.184,14.113
			c-13.943,3.912-23.452,8.355-29.93,12.659c-6.465-4.301-15.953-8.755-29.871-12.659c-8.596-2.412-15.05-7.16-19.184-14.113
			c-2.709-4.559-3.652-8.786-3.912-10.225v-70.941l-0.004-0.375c-0.063-8.625-2.354-14.883-5.002-19.244h24.605h23.781h9.197h33.815
			H363.875 M371.845,308.551h-32.576h-33.815h-9.197h-23.781h-32.576l-10.033,15.453c0,0,9.099,2.807,9.21,17.689
			c0,0.091,0.002,0.181,0.002,0.273v71.939c0,0,2.764,28.095,33.166,36.624c29.393,8.245,33.383,17.897,33.615,18.529
			c0.008,0.021,0.012,0.033,0.012,0.033s3.225-10.033,33.627-18.563s33.166-36.624,33.166-36.624v-71.901
			c0-0.013,0.002-0.025,0.002-0.038c0-0.093,0.002-0.183,0.002-0.273c0.111-14.883,9.211-17.689,9.211-17.689L371.845,308.551z"/>
	</g>
</g>
<path fill="#1A1A19" d="M381.879,324.004l-10.034-15.454h-32.576h-33.815h-9.197h-23.781h-32.576l-10.034,15.454
	c0,0,9.1,2.807,9.211,17.69v7.524h133.592v-7.524C372.779,326.811,381.879,324.004,381.879,324.004"/>
<path fill="#191818" d="M367.301,316.916l3.394,5.226c-2.296,2.726-4.317,6.396-5.444,11.186H246.494
	c-1.129-4.789-3.149-8.461-5.444-11.186l3.392-5.226h28.033h23.781h9.197h33.815H367.301 M371.845,308.551h-32.576h-33.815h-9.197
	h-23.781h-32.576l-10.033,15.453c0,0,9.099,2.807,9.21,17.689h133.592c0.111-14.883,9.211-17.689,9.211-17.689L371.845,308.551z"/>
<path fill="#191818" d="M367.301,316.916l3.394,5.227c-3.476,4.128-6.325,10.428-6.392,19.498l-0.002,0.057v0.039v0.024
	l-0.002,0.166v0.038v0.04v71.392c-0.394,2.726-4.039,22.62-27.061,29.079c-5.879,1.648-21.529,6.527-31.393,14.106
	c-5.686-4.468-15.25-9.593-31.342-14.106c-22.9-6.425-26.624-26.116-27.061-29.099v-71.41l-0.002-0.268v-0.068
	c-0.068-9.064-2.916-15.361-6.392-19.489l3.392-5.226h28.033h23.781h9.197h33.815H367.301 M371.845,308.551h-32.576h-33.815h-9.197
	h-23.781h-32.576l-10.033,15.453c0,0,9.099,2.807,9.21,17.689c0,0.091,0.002,0.181,0.002,0.273v71.939
	c0,0,2.764,28.095,33.166,36.624c29.393,8.245,33.383,17.897,33.615,18.529c0.008,0.021,0.012,0.033,0.012,0.033
	s3.225-10.033,33.627-18.563s33.166-36.624,33.166-36.624v-71.901c0-0.013,0.002-0.025,0.002-0.038c0-0.093,0.002-0.183,0.002-0.273
	c0.111-14.883,9.211-17.689,9.211-17.689L371.845,308.551z"/>
<path fill="#FFFFFF" d="M251.731,335.892l2.438-2.589c1.054,1.385,2.47,2.168,4.185,2.168c1.928,0,3.041-1.475,3.041-3.161
	c0-1.986-1.054-3.161-2.859-3.161c-1.355,0-2.379,0.481-3.313,1.655l-2.92-0.782v-11.41h12.042v3.553h-8.008v5.147
	c0.783-0.963,2.138-1.654,3.673-1.654c3.04,0,5.479,2.378,5.479,6.531c0,4.035-2.738,6.865-7.014,6.865
	C255.374,339.054,253.236,337.91,251.731,335.892"/>
<polygon fill="#FFFFFF" points="286.891,338.692 284.301,325.326 281.742,338.692 277.527,338.692 272.951,318.611 277.287,318.611 
	279.875,332.582 282.736,318.611 285.896,318.611 288.787,332.582 291.346,318.611 295.682,318.611 291.105,338.692 "/>
<polygon fill="#FFFFFF" points="297.635,338.692 297.635,318.611 309.135,318.611 309.135,322.165 301.669,322.165 301.669,326.711 
	308.925,326.711 308.925,330.263 301.669,330.263 301.669,335.14 309.135,335.14 309.135,338.692 "/>
<polygon fill="#FFFFFF" points="312.113,338.692 312.113,318.611 323.613,318.611 323.613,322.165 316.147,322.165 316.147,326.711 
	323.403,326.711 323.403,330.263 316.147,330.263 316.147,335.14 323.613,335.14 323.613,338.692 "/>
<polygon fill="#FFFFFF" points="336.678,338.692 332.041,330.835 330.627,333.063 330.627,338.692 326.592,338.692 326.592,318.611 
	330.627,318.611 330.627,327.733 336.287,318.611 340.982,318.611 334.57,328.064 341.434,338.692 "/>
<path fill="#FFFFFF" d="M341.943,336.464l1.987-3.101c1.114,1.234,2.86,2.138,4.847,2.138c1.776,0,2.739-0.994,2.739-2.228
	c0-3.522-8.97-2.318-8.97-9.122c0-3.162,2.467-5.871,6.623-5.871c2.438,0,4.545,0.784,6.08,2.228l-1.926,3.012
	c-1.205-1.145-2.74-1.687-4.306-1.687c-1.444,0-2.349,0.813-2.349,2.047c0,3.131,8.941,2.288,8.941,9.063
	c0,3.521-2.408,6.111-6.804,6.111C345.767,339.054,343.539,338.061,341.943,336.464"/>
<path fill="#FFFFFF" d="M307.174,377.137c0.393-0.502,3.572-4.556,3.967-5.01c13.438-15.473,31.014-1.697,30.062-2.439
	c10.289,8.021,12.461,20.222,3.873,31.24c-13.271,17.026-30.963,1.477-29.974,2.247c-2.926-2.28-26.01-20.272-26.01-20.272
	l-0.22,2.966l-5.313-0.224l-2.225-17.934l17.934-2.224l1.768,4.774l-3.074,1.262l27.572,20.496c0,0,3.307,1.793,6.474-2.271
	c3.167-4.064-0.825-7.175-0.825-7.175l-1.578-1.022c0,0-3.349-2.441-6.834,2.03l-3.483,4.47"/>
<path fill="#191818" d="M320.425,387.066c0.485,3.915,4.052,6.695,7.967,6.21s6.696-4.053,6.21-7.968
	c-0.484-3.915-4.052-6.695-7.968-6.21C322.72,379.584,319.939,383.151,320.425,387.066"/>
<path fill="#FFFFFF" d="M308.554,379.451l4.588,3.41c-0.109,0.189-0.218,0.382-0.325,0.577L308.554,379.451z"/>
<path fill="#191818" d="M313.24,386.09l-5.813-5.435l2.109-2.527l5.762,4.283l-0.727,1.269c-0.104,0.182-0.207,0.365-0.311,0.554
	L313.24,386.09z"/>
<polygon fill="#191818" points="314.754,384.188 313.006,382.89 313.217,382.526 314.885,384.029 "/>
<path fill="#191818" d="M327.17,392.431c-1.111,0-1.842-0.39-1.873-0.406l-6.012-4.468l0.065-0.083
	c0.396-0.507,1.259-1.614,3.151-4.042c1.414-1.813,2.973-2.733,4.633-2.733c1.386,0,2.303,0.656,2.341,0.685l1.575,1.018
	c0.049,0.038,1.031,0.813,1.638,2.106c0.562,1.199,0.881,3.078-0.788,5.219C330.158,391.961,328.367,392.431,327.17,392.431
	 M325.408,391.851c0.002,0,0.711,0.374,1.762,0.374c1.15,0,2.877-0.456,4.568-2.626c1.288-1.651,1.545-3.336,0.764-5.004
	c-0.586-1.249-1.561-2.018-1.57-2.026l-1.572-1.016c-0.014-0.01-0.908-0.648-2.225-0.648c-1.594,0-3.098,0.893-4.471,2.654
	c-1.795,2.304-2.664,3.418-3.086,3.959L325.408,391.851z"/>
<path fill="#95D5CF" d="M334.822,375.202c8.394,5.708,7.535,14.323,3.322,20.018c-4.731,6.394-11.996,6.281-16.508,3.01
	c-2.135-1.55-28.199-21.343-40.404-30.615l17.849-2.213l1.767,4.773l-3.074,1.264l10.779,8.013c0,0,10.547,8.513,10.879,8.087
	l5.914,4.396c0,0,3.307,1.793,6.475-2.271c3.168-4.063-0.825-7.176-0.825-7.176l-1.58-1.021c0,0-3.349-2.44-6.832,2.029
	c-1.892,2.428-2.756,3.536-3.151,4.043l-4.615-3.432l-1.574-1.418C319.541,371.834,327.823,370.443,334.822,375.202"/>
<path fill="#191818" d="M330.121,410.773c-8.563,0.001-15.406-5.75-16.07-6.326l-23.543-18.351l-0.109,1.484l-8.305-0.347
	l-2.6-20.957l20.867-2.587l2.771,7.491l-1.848,0.759l4.971,3.694c0.941-1.2,3.271-4.166,3.64-4.589
	c6.017-6.93,13.289-9.814,21.028-8.341c2.922,0.556,7.465,2.051,12.507,6.015c5.834,4.585,14.233,18.738,2.944,33.222
	c-4.131,5.3-9.019,8.244-14.529,8.754C331.265,410.749,330.688,410.773,330.121,410.773 M287.676,379.708l28.519,22.231
	c0.069,0.061,7.19,6.228,15.37,5.471c4.559-0.43,8.667-2.951,12.209-7.496c10.729-13.765,0.852-26.063-2.381-28.602
	c-14.148-11.124-24.248-3.587-29.008,1.896c-0.283,0.327-2.467,3.101-3.481,4.395l10.406,7.736l2.161-2.771
	c3.531-4.532,7.498-3.519,9.104-2.349l1.622,1.053c0.134,0.104,1.331,1.067,2.079,2.665c1.053,2.249,0.71,4.672-0.968,6.824
	c-3.185,4.086-6.991,3.559-8.56,2.707l-0.199-0.126l-29.912-22.236l4.3-1.767l-0.761-2.055l-15.002,1.859l1.848,14.911l2.324,0.099
	L287.676,379.708z M326.389,390.601c0.414,0.172,2.289,0.736,4.318-1.866c1.916-2.457,0.174-4.267-0.496-4.825l-1.504-0.973
	c-0.41-0.275-2.313-1.324-4.636,1.658l-2.114,2.712L326.389,390.601z"/>
<path fill="#FFFFFF" d="M304.717,415.282c-0.391,0.502-3.571,4.557-3.967,5.01c-13.437,15.473-31.012,1.697-30.061,2.439
	c-10.29-8.021-12.462-20.221-3.873-31.24c13.27-17.025,30.962-1.477,29.973-2.247c2.926,2.28,26.01,20.272,26.01,20.272l0.22-2.964
	l5.315,0.222l2.223,17.934l-17.934,2.224l-1.768-4.774l3.074-1.262l-27.572-20.496c0,0-3.306-1.793-6.474,2.271
	c-3.167,4.064,0.825,7.176,0.825,7.176l1.58,1.021c0,0,3.348,2.441,6.832-2.029l3.483-4.471"/>
<path fill="#191818" d="M330.121,410.773c-8.563,0.001-15.406-5.75-16.07-6.326l-23.543-18.351l-0.109,1.484l-8.305-0.347
	l-2.6-20.957l20.867-2.587l2.771,7.491l-1.848,0.759l4.971,3.694c0.941-1.2,3.271-4.166,3.64-4.589
	c6.017-6.93,13.289-9.814,21.028-8.341c2.922,0.556,7.465,2.051,12.507,6.015c5.834,4.585,14.233,18.738,2.944,33.222
	c-4.131,5.3-9.019,8.244-14.529,8.754C331.265,410.749,330.688,410.773,330.121,410.773 M287.676,379.708l28.519,22.231
	c0.069,0.061,7.19,6.228,15.37,5.471c4.559-0.43,8.667-2.951,12.209-7.496c10.729-13.765,0.852-26.063-2.381-28.602
	c-14.148-11.124-24.248-3.587-29.008,1.896c-0.283,0.327-2.467,3.101-3.481,4.395l10.406,7.736l2.161-2.771
	c3.531-4.532,7.498-3.519,9.104-2.349l1.622,1.053c0.134,0.104,1.331,1.067,2.079,2.665c1.053,2.249,0.71,4.672-0.968,6.824
	c-3.185,4.086-6.991,3.559-8.56,2.707l-0.199-0.126l-29.912-22.236l4.3-1.767l-0.761-2.055l-15.002,1.859l1.848,14.911l2.324,0.099
	L287.676,379.708z M326.389,390.601c0.414,0.172,2.289,0.736,4.318-1.866c1.916-2.457,0.174-4.267-0.496-4.825l-1.504-0.973
	c-0.41-0.275-2.313-1.324-4.636,1.658l-2.114,2.712L326.389,390.601z"/>
<path fill="#FFFFFF" d="M304.717,415.282c-0.391,0.502-3.571,4.557-3.967,5.01c-13.437,15.473-31.012,1.697-30.061,2.439
	c-10.29-8.021-12.462-20.221-3.873-31.24c13.27-17.025,30.962-1.477,29.973-2.247c2.926,2.28,26.01,20.272,26.01,20.272l0.22-2.964
	l5.315,0.222l2.223,17.934l-17.934,2.224l-1.768-4.774l3.074-1.262l-27.572-20.496c0,0-3.306-1.793-6.474,2.271
	c-3.167,4.064,0.825,7.176,0.825,7.176l1.58,1.021c0,0,3.348,2.441,6.832-2.029l3.483-4.471"/>
<path fill="#191818" d="M291.467,405.353c-0.485-3.915-4.053-6.694-7.967-6.21c-3.916,0.485-6.696,4.053-6.211,7.969
	c0.485,3.914,4.053,6.694,7.967,6.209C289.172,412.835,291.951,409.268,291.467,405.353"/>
<path fill="#FFFFFF" d="M303.338,412.968l-4.588-3.409c0.108-0.19,0.217-0.383,0.324-0.577L303.338,412.968z"/>
<path fill="#191818" d="M302.354,414.291l-5.762-4.282l0.727-1.271c0.104-0.18,0.208-0.365,0.311-0.552l1.022-1.859l5.812,5.438
	L302.354,414.291z"/>
<polygon fill="#191818" points="298.675,409.894 297.006,408.389 297.137,408.229 298.885,409.53 "/>
<path fill="#191818" d="M284.755,411.721c-1.385,0-2.302-0.656-2.34-0.684l-1.575-1.019c-0.048-0.037-4.044-3.227-0.85-7.326
	c1.742-2.234,3.533-2.704,4.73-2.704c1.111,0,1.842,0.391,1.873,0.406l6.01,4.467l-3.215,4.126
	C287.975,410.802,286.416,411.721,284.755,411.721 M284.721,400.194c-1.15,0-2.877,0.455-4.568,2.625
	c-3.066,3.936,0.647,6.906,0.807,7.031l1.572,1.016c0.014,0.011,0.908,0.648,2.224,0.648c1.595,0,3.099-0.892,4.472-2.654
	l3.086-3.96l-5.83-4.332C286.48,400.568,285.771,400.194,284.721,400.194"/>
<path fill="#95D5CF" d="M277.068,417.217c-8.394-5.708-7.535-14.323-3.322-20.018c4.731-6.394,11.996-6.281,16.508-3.009
	c2.135,1.549,28.199,21.342,40.404,30.614l-17.849,2.213l-1.767-4.773l3.074-1.263l-10.779-8.014c0,0-10.547-8.513-10.879-8.087
	l-5.914-4.396c0,0-3.307-1.793-6.475,2.271c-3.166,4.064,0.825,7.176,0.825,7.176l1.58,1.021c0,0,3.349,2.44,6.832-2.029
	c1.892-2.428,2.756-3.536,3.151-4.043l4.615,3.432l1.574,1.419C292.351,420.585,284.068,421.976,277.068,417.217"/>
<path fill="#191818" d="M284.871,430.089c-1.285,0-2.588-0.125-3.904-0.375c-2.92-0.556-7.461-2.051-12.506-6.014
	c-5.836-4.585-14.232-18.74-2.945-33.222c4.13-5.3,9.018-8.244,14.527-8.754c9.348-0.866,17.088,5.635,17.797,6.248l23.543,18.35
	l0.109-1.484l8.305,0.348l2.599,20.956l-20.866,2.587l-2.771-7.491l1.847-0.759l-4.97-3.694c-0.94,1.2-3.268,4.161-3.639,4.589
	C297.002,427.124,291.143,430.089,284.871,430.089 M281.748,384.944c-0.47,0-0.943,0.021-1.422,0.065
	c-4.56,0.43-8.668,2.95-12.21,7.495c-10.727,13.765-0.851,26.063,2.382,28.603c14.15,11.117,24.248,3.584,29.008-1.896
	c0.287-0.33,2.468-3.101,3.481-4.394l-10.407-7.737l-2.16,2.771c-3.531,4.531-7.498,3.52-9.104,2.348l-1.622-1.052
	c-2.127-1.658-4.179-5.555-1.112-9.49c3.187-4.086,6.994-3.557,8.562-2.707l0.198,0.126l29.914,22.236l-4.301,1.766l0.76,2.057
	l15.002-1.859l-1.848-14.911l-2.324-0.099l-0.33,4.444l-28.519-22.229C295.631,390.422,289.311,384.944,281.748,384.944
	 M281.68,408.511l1.504,0.973c0.41,0.275,2.311,1.323,4.637-1.659l2.113-2.711l-4.432-3.294c-0.414-0.171-2.291-0.738-4.318,1.864
	C279.269,406.142,281.01,407.951,281.68,408.511"/>
<polyline fill="#FFFFFF" points="282.176,374.47 283.549,385.621 288.863,385.843 289.083,382.879 293.02,385.928 "/>
<polygon fill="#191818" points="290.39,387.557 282.082,387.209 280.539,374.671 283.813,374.269 285.015,384.032 287.336,384.129 
	287.666,379.697 294.029,384.624 292.01,387.232 290.5,386.062 "/>
<path fill="#191818" d="M326.975,363.974c7.449,0,13.511,4.529,15.438,6.042c4.38,3.442,13.816,16.603,2.663,30.912
	c-4.851,6.223-10.158,8.196-14.942,8.196c-0.512,0-1.018-0.022-1.517-0.065l1.94,15.65l-17.935,2.223l-1.767-4.773l3.074-1.263
	l-17.041-12.669l7.828,7.057c-0.392,0.502-3.572,4.555-3.966,5.01c-5.356,6.166-10.899,8.152-15.834,8.152
	c-7.45,0-13.512-4.528-15.438-6.042c-4.379-3.442-13.816-16.602-2.662-30.911c4.85-6.224,10.158-8.197,14.941-8.196
	c0.512,0,1.019,0.021,1.517,0.063l-1.94-15.648l17.934-2.224l1.768,4.774l-3.074,1.262l17.043,12.668l-7.83-7.055
	c0.392-0.502,3.572-4.556,3.967-5.01C316.496,365.961,322.039,363.974,326.975,363.974 M327.358,392.414
	c1.243,0,2.966-0.506,4.649-2.665c3.166-4.064-0.826-7.175-0.826-7.175l-1.578-1.022c0,0-0.913-0.665-2.281-0.665
	c-1.252,0-2.887,0.558-4.553,2.695c-1.891,2.427-2.754,3.535-3.149,4.042l5.913,4.396
	C325.533,392.02,326.26,392.414,327.358,392.414 M322.799,409.516l0.133-1.784c-4.666-1.759-7.83-4.557-7.83-4.557
	c-2.926-2.28-26.01-20.272-26.01-20.272l-0.133,1.785c4.667,1.759,7.83,4.557,7.83,4.557
	C299.715,391.524,322.799,409.516,322.799,409.516 M284.568,411.533c1.253,0,2.887-0.559,4.553-2.695
	c1.891-2.427,2.755-3.535,3.15-4.042l-5.914-4.396c0,0-0.727-0.394-1.824-0.394c-1.245,0-2.967,0.506-4.648,2.665
	c-3.168,4.063,0.823,7.175,0.823,7.175l1.58,1.022C282.288,410.868,283.2,411.533,284.568,411.533 M326.975,361.466
	c-6.567,0-12.532,3.033-17.729,9.017c-0.336,0.387-2.063,2.578-3.15,3.963l-3.076-2.286l1.209-0.497l-0.84-2.271l-1.768-4.773
	l-0.689-1.863l-1.972,0.244l-17.935,2.224l-2.489,0.308l0.31,2.49l1.588,12.812c-5.941,0.393-11.183,3.456-15.596,9.119
	c-11.686,14.991-2.964,29.668,3.092,34.426c5.476,4.303,11.351,6.578,16.987,6.578c6.567,0,12.531-3.033,17.728-9.018
	c0.336-0.386,2.062-2.578,3.149-3.963l3.077,2.287l-1.209,0.496l0.842,2.271l1.766,4.774l0.689,1.863l1.973-0.245l17.934-2.224
	l2.49-0.308l-0.309-2.49l-1.589-12.811c5.941-0.395,11.183-3.457,15.595-9.119c11.687-14.993,2.963-29.668-3.092-34.426
	C338.485,363.74,332.611,361.466,326.975,361.466 M323.176,387.142l0.896-1.148l0.678-0.869c0.614-0.789,1.56-1.729,2.573-1.729
	c0.414,0,0.734,0.154,0.832,0.208l0.086,0.072v-0.017l1.461,0.943c0.861,0.736,1.607,1.962,0.327,3.604
	c-0.878,1.127-1.776,1.699-2.67,1.699c-0.238,0-0.456-0.047-0.562-0.073L323.176,387.142z M282.19,407.816
	c-0.862-0.735-1.607-1.963-0.328-3.604c0.879-1.127,1.776-1.699,2.671-1.699c0.238,0,0.455,0.046,0.561,0.072l3.621,2.691
	l-1.572,2.019c-0.615,0.789-1.561,1.728-2.574,1.728c-0.414,0-0.733-0.153-0.831-0.208l-0.087-0.071v0.017L282.19,407.816z"/>
<path fill="#1A1A19" d="M305.871,473.093c0,0-0.004-0.012-0.012-0.033c-0.194-0.528-3.012-7.319-20.955-14.34v16.474
	c11.416,7.014,20.568,9.112,20.568,9.112h0.797c0,0,9.153-2.099,20.568-9.112v-16.476
	C308.15,466.029,305.871,473.093,305.871,473.093"/>
<path fill="#1A1A19" d="M252.575,442.729v8.096c8.119,9.57,19.146,15.858,29.014,22.171v-16.513
	c-2.79-0.993-5.886-1.983-9.345-2.953C263.679,451.127,257.309,447.172,252.575,442.729"/>
<path fill="#1A1A19" d="M330.154,456.484v16.512c9.869-6.313,20.895-12.601,29.014-22.17v-8.098
	c-4.734,4.442-11.104,8.398-19.67,10.802C336.037,454.501,332.946,455.491,330.154,456.484"/>
<path fill="#010101" d="M398.742,398.8c-1.816-3.576-5.513-6.851-6.379-10.245l-0.531-0.223c-1.338,3.336-1.193,7.327-0.17,10.951
	c1.109,4.704,3.424,8.369,4.508,12.994c0.194,0.89,0.354,1.774,0.459,2.742c6.957-5.049,13.369-10.809,15.182-19.897l-12.193,6.129
	C399.455,400.404,399.125,399.565,398.742,398.8"/>
<path fill="#010101" d="M395.607,357.018c0.577,1.658,0.758,3.546,1.547,5.248c0.51,0.668,0.961,1.357,1.432,2.056
	c1.314,1.815,2.676,3.432,4.42,3.886c0.605-2.797,1.064-5.733,0.533-8.912c-0.604-2.013-1.506-3.808-2.689-5.43
	c-1.848-2.559-4.357-4.637-7.396-6.198c-0.099-0.058-0.166-0.071-0.223-0.119l-0.404,0.093c0.158,0.24,0.304,0.516,0.461,0.796
	C394.664,351.062,395.076,353.839,395.607,357.018"/>
<path fill="#010101" d="M400.24,374.184c-2.652-3.01-7.049-5.257-8.736-8.326l-0.57-0.084c-0.461,3.565,0.675,7.394,2.572,10.646
	c2.248,4.278,5.406,7.249,7.611,11.456c0.41,0.813,0.785,1.631,1.129,2.54c5.475-6.626,10.246-13.806,9.729-23.059l-10.276,8.981
	C401.33,375.559,400.803,374.829,400.24,374.184"/>
<path fill="#010101" d="M213.001,398.8c1.817-3.576,5.512-6.851,6.379-10.245l0.532-0.223c1.337,3.336,1.193,7.327,0.168,10.951
	c-1.107,4.704-3.423,8.369-4.507,12.994c-0.194,0.89-0.354,1.774-0.459,2.742c-6.956-5.049-13.369-10.809-15.182-19.897
	l12.194,6.129C212.289,400.404,212.618,399.565,213.001,398.8"/>
<path fill="#010101" d="M216.137,357.018c-0.578,1.658-0.758,3.546-1.548,5.248c-0.51,0.668-0.96,1.357-1.431,2.056
	c-1.314,1.815-2.676,3.432-4.42,3.886c-0.606-2.797-1.065-5.733-0.534-8.912c0.604-2.013,1.507-3.808,2.689-5.43
	c1.849-2.559,4.358-4.637,7.396-6.198c0.099-0.058,0.167-0.071,0.223-0.119l0.404,0.093c-0.157,0.24-0.303,0.516-0.46,0.796
	C217.08,351.062,216.668,353.839,216.137,357.018"/>
<path fill="#010101" d="M211.503,374.184c2.653-3.01,7.049-5.257,8.736-8.326l0.571-0.084c0.461,3.565-0.675,7.394-2.573,10.646
	c-2.248,4.278-5.406,7.249-7.611,11.456c-0.41,0.813-0.785,1.631-1.128,2.54c-5.475-6.626-10.246-13.806-9.731-23.059l10.277,8.981
	C210.413,375.559,210.941,374.829,211.503,374.184"/>
<path fill="#010101" d="M379.141,439.958c-0.916-0.017-1.783-0.026-2.639,0.015c3.211-4.571,2.29-10.164,4.059-15.119l-0.018-0.22
	c-5.329,2.009-8.124,6.701-10.73,11.657c-1.863,3.592-3.684,7.274-6.34,9.994c1.109,0.08,2.152,0.229,3.234,0.388
	c1.122,0.163,2.275,0.387,3.436,0.692c2.305,0.135,4.58,0.238,6.731,0.167c4.034-0.171,7.795-0.855,11.037-2.606
	c1.501-0.798,2.901-1.849,4.131-3.16c-0.949-0.154-1.992-0.343-3.028-0.524C385.749,440.687,382.314,440.116,379.141,439.958"/>
<path fill="#010101" d="M392.14,424.385c-1.494-5.036-4.274-10.122-3.864-15.642l-0.143-0.219l-0.375,0.165
	c-0.043,0.036-0.096,0.108-0.101,0.145c-0.292,0.5-0.601,0.785-1.136,1.3c-3.805,6.707-3.23,14.78-1.275,21.92
	c0.32,1.176,0.653,2.295,1.063,3.425c3.423-2.676,7.645-3.359,11.443-5.306c0.342-0.207,0.676-0.37,1.029-0.582
	c3.659-2.642,5.885-7.007,6.842-11.184c-2.373,0.757-4.701,1.368-6.877,2.187C396.4,421.439,394.139,422.582,392.14,424.385"/>
<path fill="#010101" d="M232.667,439.958c0.916-0.017,1.783-0.026,2.638,0.015c-3.211-4.571-2.291-10.164-4.058-15.119l0.017-0.22
	c5.329,2.009,8.124,6.701,10.731,11.657c1.86,3.592,3.683,7.274,6.339,9.994c-1.109,0.08-2.153,0.229-3.234,0.388
	c-1.122,0.163-2.274,0.387-3.435,0.692c-2.306,0.135-4.581,0.238-6.732,0.167c-4.035-0.171-7.795-0.855-11.037-2.606
	c-1.502-0.798-2.901-1.849-4.131-3.16c0.949-0.154,1.992-0.343,3.028-0.524C226.058,440.687,229.491,440.116,232.667,439.958"/>
<path fill="#010101" d="M219.667,424.385c1.494-5.036,4.274-10.122,3.865-15.642l0.142-0.219l0.374,0.165
	c0.045,0.036,0.097,0.108,0.101,0.145c0.292,0.5,0.601,0.785,1.136,1.3c3.805,6.707,3.229,14.78,1.275,21.92
	c-0.32,1.176-0.653,2.295-1.063,3.425c-3.423-2.676-7.645-3.359-11.443-5.306c-0.341-0.207-0.676-0.37-1.029-0.582
	c-3.66-2.642-5.886-7.007-6.841-11.184c2.373,0.757,4.7,1.368,6.876,2.187C215.406,421.439,217.669,422.582,219.667,424.385"/>
</svg>
