<?xml version="1.0" encoding="utf-8"?>
<!-- Generator: Adobe Illustrator 16.0.0, SVG Export Plug-In . SVG Version: 6.00 Build 0)  -->
<!DOCTYPE svg PUBLIC "-//W3C//DTD SVG 1.1//EN" "http://www.w3.org/Graphics/SVG/1.1/DTD/svg11.dtd">
<svg version="1.1" id="Layer_1" xmlns="http://www.w3.org/2000/svg" xmlns:xlink="http://www.w3.org/1999/xlink" x="0px" y="0px"
	 width="612px" height="792px" viewBox="0 0 612 792" enable-background="new 0 0 612 792" xml:space="preserve">
<path fill="#95D5CF" d="M306.139,350.601h-64.784c0,0.088,0.002,0.176,0.002,0.265v69.787c0,0,2.681,27.253,32.173,35.526
	c28.513,7.998,32.383,17.361,32.609,17.975c0.008,0.021,0.011,0.032,0.011,0.032s3.128-9.733,32.621-18.007
	c29.491-8.273,32.173-35.526,32.173-35.526v-69.749c0-0.013,0.001-0.025,0.001-0.038c0-0.089,0.002-0.177,0.003-0.265H306.139z"/>
<g opacity="0.5">
	<g>
		<defs>
			<rect id="SVGID_1_" x="306.14" y="348.694" width="66.811" height="127.398"/>
		</defs>
		<clipPath id="SVGID_2_">
			<use xlink:href="#SVGID_1_"  overflow="visible"/>
		</clipPath>
		<path clip-path="url(#SVGID_2_)" fill="#189995" d="M339.777,457.53c30.402-8.529,33.166-36.624,33.166-36.624v-71.901
			c0.001-0.013,0.002-0.025,0.002-0.039c0-0.092,0.002-0.181,0.002-0.272h-66.809V476.06c0.008,0.021,0.012,0.034,0.012,0.034
			S309.375,466.06,339.777,457.53"/>
	</g>
</g>
<g opacity="0.4">
	<g>
		<defs>
			<rect id="SVGID_3_" x="230.14" y="315.55" width="152.021" height="160.543"/>
		</defs>
		<clipPath id="SVGID_4_">
			<use xlink:href="#SVGID_3_"  overflow="visible"/>
		</clipPath>
		<path clip-path="url(#SVGID_4_)" fill="#FFFFFF" d="M364.154,329.348c-2.639,4.35-4.924,10.587-5.002,19.193l-0.002,0.032
			l-0.003,0.322v0.055v0.055v70.903c-0.261,1.438-1.204,5.666-3.914,10.225c-4.132,6.953-10.586,11.701-19.183,14.113
			c-13.943,3.912-23.451,8.355-29.929,12.659c-6.467-4.301-15.954-8.755-29.872-12.659c-8.596-2.412-15.051-7.16-19.183-14.113
			c-2.709-4.559-3.653-8.786-3.913-10.225v-70.941l-0.003-0.375c-0.065-8.625-2.356-14.883-5.003-19.244h24.605h23.781h9.198h33.814
			H364.154 M372.124,315.551h-32.576h-33.814h-9.198h-23.781h-32.576l-10.034,15.453c0,0,9.1,2.807,9.21,17.689
			c0.001,0.091,0.003,0.181,0.003,0.273v71.939c0,0,2.764,28.095,33.166,36.624c29.393,8.245,33.383,17.897,33.615,18.529
			c0.008,0.021,0.012,0.033,0.012,0.033s3.225-10.033,33.627-18.563s33.167-36.624,33.167-36.624v-71.901
			c0-0.013,0.001-0.025,0.001-0.038c0-0.093,0.002-0.183,0.002-0.273c0.111-14.883,9.211-17.689,9.211-17.689L372.124,315.551z"/>
	</g>
</g>
<path fill="#1A1A19" d="M382.158,331.004l-10.034-15.454h-32.576h-33.814h-9.198h-23.781h-32.576l-10.034,15.454
	c0,0,9.1,2.807,9.211,17.69v7.524h133.593v-7.524C373.059,333.811,382.158,331.004,382.158,331.004"/>
<path fill="#191818" d="M367.581,323.916l3.394,5.226c-2.297,2.725-4.317,6.396-5.445,11.186H246.773
	c-1.128-4.789-3.149-8.46-5.444-11.186l3.392-5.226h28.033h23.781h9.198h33.814H367.581 M372.124,315.551h-32.576h-33.814h-9.198
	h-23.781h-32.576l-10.034,15.453c0,0,9.1,2.807,9.21,17.689h133.593c0.111-14.883,9.211-17.689,9.211-17.689L372.124,315.551z"/>
<path fill="#191818" d="M367.581,323.916l3.394,5.227c-3.477,4.128-6.325,10.428-6.393,19.498l-0.001,0.059v0.015l-0.002,0.037
	l-0.001,0.201l-0.001,0.027v0.025v71.392c-0.392,2.726-4.037,22.62-27.06,29.079c-5.879,1.648-21.528,6.527-31.393,14.106
	c-5.685-4.468-15.25-9.593-31.342-14.106c-22.9-6.425-26.624-26.116-27.06-29.099v-71.41l-0.002-0.268l-0.001-0.068
	c-0.067-9.064-2.915-15.361-6.391-19.489l3.392-5.226h28.033h23.781h9.198h33.814H367.581 M372.124,315.551h-32.576h-33.814h-9.198
	h-23.781h-32.576l-10.034,15.453c0,0,9.1,2.807,9.21,17.689c0.001,0.091,0.003,0.181,0.003,0.273v71.939
	c0,0,2.764,28.095,33.166,36.624c29.393,8.245,33.383,17.897,33.615,18.529c0.008,0.021,0.012,0.033,0.012,0.033
	s3.225-10.033,33.627-18.563s33.167-36.624,33.167-36.624v-71.901c0-0.013,0.001-0.025,0.001-0.038c0-0.093,0.002-0.183,0.002-0.273
	c0.111-14.883,9.211-17.689,9.211-17.689L372.124,315.551z"/>
<polygon fill="#FFFFFF" points="264.818,345.692 270.84,329.165 262.53,329.165 262.53,325.611 275.416,325.611 275.416,328.412 
	269.185,345.692 "/>
<path fill="#FFFFFF" d="M284.083,345.692v-20.081h6.473c5.54,0,8.731,4.156,8.731,10.056c0,5.9-3.162,10.025-8.731,10.025H284.083z
	 M295.162,335.667c0-3.975-1.565-6.503-4.606-6.503h-2.439v12.977h2.439C293.537,342.141,295.162,339.49,295.162,335.667"/>
<path fill="#FFFFFF" d="M311.988,345.692l-0.934-3.553h-6.172l-0.933,3.553h-4.365l5.961-20.081h4.876l5.961,20.081H311.988z
	 M307.984,329.856l-2.288,8.73h4.575L307.984,329.856z"/>
<polygon fill="#FFFFFF" points="320.987,345.692 320.987,337.414 314.785,325.611 319.241,325.611 323.004,333.68 326.768,325.611 
	331.224,325.611 325.021,337.414 325.021,345.692 "/>
<path fill="#FFFFFF" d="M331.191,343.464l1.987-3.101c1.114,1.234,2.86,2.138,4.847,2.138c1.776,0,2.74-0.994,2.74-2.228
	c0-3.522-8.973-2.318-8.973-9.122c0-3.162,2.47-5.871,6.625-5.871c2.438,0,4.545,0.784,6.08,2.228l-1.927,3.012
	c-1.204-1.145-2.739-1.687-4.305-1.687c-1.445,0-2.349,0.813-2.349,2.047c0,3.131,8.941,2.288,8.941,9.063
	c0,3.521-2.409,6.111-6.804,6.111C335.016,346.054,332.787,345.061,331.191,343.464"/>
<path fill="#FFFFFF" d="M307.454,384.137c0.391-0.502,3.571-4.556,3.966-5.01c13.438-15.473,31.014-1.697,30.062-2.439
	c10.289,8.021,12.461,20.222,3.873,31.24c-13.27,17.026-30.963,1.477-29.974,2.247c-2.926-2.28-26.01-20.272-26.01-20.272
	l-0.219,2.966l-5.315-0.224l-2.223-17.934l17.934-2.224l1.767,4.774l-3.074,1.262l27.572,20.496c0,0,3.307,1.793,6.475-2.271
	c3.167-4.064-0.825-7.175-0.825-7.175l-1.58-1.022c0,0-3.349-2.441-6.832,2.03l-3.484,4.47"/>
<path fill="#191818" d="M320.704,394.066c0.484,3.915,4.052,6.695,7.968,6.21c3.915-0.485,6.695-4.053,6.209-7.968
	c-0.485-3.915-4.052-6.695-7.967-6.21S320.219,390.151,320.704,394.066"/>
<path fill="#FFFFFF" d="M308.833,386.451l4.588,3.41c-0.108,0.189-0.217,0.382-0.325,0.577L308.833,386.451z"/>
<path fill="#191818" d="M313.52,393.09l-5.813-5.435l2.11-2.527l5.761,4.283l-0.727,1.269c-0.104,0.182-0.207,0.365-0.311,0.554
	L313.52,393.09z"/>
<polygon fill="#191818" points="315.034,391.188 313.285,389.89 313.497,389.526 315.164,391.029 "/>
<path fill="#191818" d="M327.45,399.431c-1.112,0-1.843-0.39-1.874-0.406l-6.01-4.468l3.215-4.125
	c1.414-1.813,2.973-2.733,4.634-2.733c1.385,0,2.302,0.656,2.34,0.685l1.576,1.018c0.048,0.038,1.031,0.813,1.637,2.106
	c0.562,1.199,0.882,3.078-0.788,5.219C330.438,398.961,328.646,399.431,327.45,399.431 M325.688,398.851
	c0.002,0,0.712,0.374,1.763,0.374c1.149,0,2.877-0.456,4.567-2.626c1.289-1.651,1.545-3.336,0.764-5.004
	c-0.585-1.249-1.561-2.018-1.57-2.026l-1.572-1.016c-0.014-0.01-0.908-0.648-2.224-0.648c-1.594,0-3.099,0.893-4.472,2.654
	l-3.085,3.959L325.688,398.851z"/>
<path fill="#95D5CF" d="M335.102,382.202c8.395,5.708,7.536,14.323,3.322,20.018c-4.731,6.394-11.995,6.281-16.507,3.01
	c-2.136-1.55-28.199-21.343-40.405-30.615l17.849-2.213l1.768,4.773l-3.075,1.264l10.78,8.013c0,0,10.547,8.513,10.879,8.087
	l5.914,4.396c0,0,3.306,1.793,6.474-2.271c3.167-4.063-0.825-7.176-0.825-7.176l-1.58-1.021c0,0-3.348-2.44-6.831,2.029
	c-1.893,2.428-2.757,3.536-3.151,4.043l-4.616-3.432l-1.574-1.418C319.82,378.834,328.103,377.443,335.102,382.202"/>
<path fill="#191818" d="M330.4,417.773c-8.563,0.001-15.405-5.75-16.069-6.326l-23.543-18.351l-0.11,1.484l-8.305-0.347
	l-2.599-20.957l20.867-2.587l2.772,7.491l-1.848,0.759l4.97,3.694c0.941-1.199,3.268-4.16,3.639-4.589
	c6.02-6.93,13.291-9.814,21.029-8.341c2.922,0.556,7.464,2.051,12.507,6.014c5.835,4.586,14.232,18.74,2.944,33.223
	c-4.13,5.3-9.019,8.244-14.528,8.754C331.544,417.749,330.968,417.773,330.4,417.773 M287.955,386.708l28.52,22.231
	c0.068,0.061,7.196,6.228,15.369,5.471c4.56-0.43,8.667-2.951,12.211-7.496c10.727-13.764,0.851-26.062-2.383-28.602
	c-14.15-11.121-24.249-3.586-29.007,1.896c-0.287,0.331-2.469,3.102-3.481,4.395l10.405,7.736l2.161-2.771
	c3.532-4.532,7.5-3.519,9.104-2.349l1.623,1.053c0.133,0.104,1.33,1.067,2.078,2.665c1.054,2.249,0.711,4.672-0.968,6.824
	c-3.185,4.084-6.992,3.559-8.56,2.707l-0.198-0.126l-29.913-22.236l4.3-1.767l-0.761-2.055l-15.002,1.859l1.848,14.911l2.324,0.099
	L287.955,386.708z M326.668,397.601c0.415,0.172,2.291,0.736,4.318-1.866c1.915-2.457,0.176-4.267-0.495-4.825l-1.504-0.973
	c-0.409-0.275-2.313-1.324-4.638,1.658l-2.112,2.712L326.668,397.601z"/>
<path fill="#FFFFFF" d="M304.996,422.282c-0.391,0.502-3.572,4.557-3.966,5.01c-13.438,15.473-31.014,1.697-30.062,2.439
	c-10.289-8.021-12.461-20.221-3.873-31.24c13.27-17.025,30.963-1.477,29.974-2.247c2.926,2.28,26.009,20.272,26.009,20.272
	l0.22-2.964l5.314,0.222l2.224,17.934l-17.934,2.224l-1.768-4.774l3.074-1.262l-27.572-20.496c0,0-3.307-1.793-6.474,2.271
	c-3.167,4.064,0.825,7.176,0.825,7.176l1.579,1.021c0,0,3.349,2.441,6.833-2.029l3.484-4.471"/>
<path fill="#191818" d="M330.4,417.773c-8.563,0.001-15.405-5.75-16.069-6.326l-23.543-18.351l-0.11,1.484l-8.305-0.347
	l-2.599-20.957l20.867-2.587l2.772,7.491l-1.848,0.759l4.97,3.694c0.941-1.199,3.268-4.16,3.639-4.589
	c6.02-6.93,13.291-9.814,21.029-8.341c2.922,0.556,7.464,2.051,12.507,6.014c5.835,4.586,14.232,18.74,2.944,33.223
	c-4.13,5.3-9.019,8.244-14.528,8.754C331.544,417.749,330.968,417.773,330.4,417.773 M287.955,386.708l28.52,22.231
	c0.068,0.061,7.196,6.228,15.369,5.471c4.56-0.43,8.667-2.951,12.211-7.496c10.727-13.764,0.851-26.062-2.383-28.602
	c-14.15-11.121-24.249-3.586-29.007,1.896c-0.287,0.331-2.469,3.102-3.481,4.395l10.405,7.736l2.161-2.771
	c3.532-4.532,7.5-3.519,9.104-2.349l1.623,1.053c0.133,0.104,1.33,1.067,2.078,2.665c1.054,2.249,0.711,4.672-0.968,6.824
	c-3.185,4.084-6.992,3.559-8.56,2.707l-0.198-0.126l-29.913-22.236l4.3-1.767l-0.761-2.055l-15.002,1.859l1.848,14.911l2.324,0.099
	L287.955,386.708z M326.668,397.601c0.415,0.172,2.291,0.736,4.318-1.866c1.915-2.457,0.176-4.267-0.495-4.825l-1.504-0.973
	c-0.409-0.275-2.313-1.324-4.638,1.658l-2.112,2.712L326.668,397.601z"/>
<path fill="#FFFFFF" d="M304.996,422.282c-0.391,0.502-3.572,4.557-3.966,5.01c-13.438,15.473-31.014,1.697-30.062,2.439
	c-10.289-8.021-12.461-20.221-3.873-31.24c13.27-17.025,30.963-1.477,29.974-2.247c2.926,2.28,26.009,20.272,26.009,20.272
	l0.22-2.964l5.314,0.222l2.224,17.934l-17.934,2.224l-1.768-4.774l3.074-1.262l-27.572-20.496c0,0-3.307-1.793-6.474,2.271
	c-3.167,4.064,0.825,7.176,0.825,7.176l1.579,1.021c0,0,3.349,2.441,6.833-2.029l3.484-4.471"/>
<path fill="#191818" d="M291.746,412.353c-0.485-3.915-4.052-6.694-7.967-6.21c-3.915,0.485-6.696,4.053-6.21,7.969
	c0.484,3.914,4.052,6.694,7.967,6.209S292.231,416.268,291.746,412.353"/>
<path fill="#FFFFFF" d="M303.617,419.968l-4.588-3.409c0.109-0.19,0.217-0.383,0.325-0.577L303.617,419.968z"/>
<path fill="#191818" d="M302.633,421.291l-5.761-4.282l0.726-1.271c0.104-0.18,0.208-0.365,0.312-0.552l1.021-1.859l5.813,5.438
	L302.633,421.291z"/>
<polygon fill="#191818" points="298.954,416.894 297.286,415.389 297.416,415.229 299.164,416.53 "/>
<path fill="#191818" d="M285.035,418.721c-1.385,0-2.302-0.656-2.34-0.684l-1.575-1.019c-0.048-0.037-4.044-3.227-0.85-7.326
	c1.742-2.234,3.534-2.704,4.73-2.704c1.111,0,1.843,0.391,1.874,0.406l6.01,4.467l-3.215,4.126
	C288.255,417.802,286.695,418.721,285.035,418.721 M285,407.194c-1.15,0-2.876,0.455-4.568,2.625
	c-3.066,3.936,0.648,6.906,0.807,7.031l1.573,1.016c0.013,0.011,0.908,0.648,2.223,0.648c1.594,0,3.098-0.892,4.472-2.654
	l3.085-3.96l-5.829-4.332C286.761,407.568,286.051,407.194,285,407.194"/>
<path fill="#95D5CF" d="M277.349,424.217c-8.395-5.708-7.536-14.323-3.322-20.018c4.73-6.394,11.995-6.281,16.507-3.009
	c2.135,1.549,28.199,21.342,40.405,30.614l-17.849,2.213l-1.768-4.773l3.075-1.263l-10.78-8.014c0,0-10.547-8.513-10.879-8.087
	l-5.914-4.396c0,0-3.306-1.793-6.474,2.271c-3.167,4.064,0.825,7.176,0.825,7.176l1.58,1.021c0,0,3.348,2.44,6.832-2.029
	c1.893-2.428,2.756-3.536,3.151-4.043l4.616,3.432l1.574,1.419C292.629,427.585,284.347,428.976,277.349,424.217"/>
<path fill="#191818" d="M285.15,437.089c-1.285,0-2.587-0.125-3.903-0.375c-2.921-0.556-7.462-2.051-12.507-6.014
	c-5.836-4.585-14.233-18.74-2.945-33.222c4.13-5.3,9.018-8.244,14.529-8.754c9.354-0.878,17.086,5.633,17.795,6.248l23.543,18.35
	l0.11-1.484l8.305,0.348l2.598,20.956l-20.866,2.587l-2.771-7.491l1.847-0.759l-4.969-3.694c-0.941,1.2-3.268,4.161-3.64,4.589
	C297.281,434.124,291.422,437.089,285.15,437.089 M282.028,391.944c-0.47,0-0.944,0.021-1.423,0.065
	c-4.56,0.43-8.667,2.95-12.209,7.495c-10.728,13.765-0.851,26.063,2.381,28.603c14.151,11.117,24.248,3.584,29.008-1.896
	c0.287-0.33,2.468-3.101,3.482-4.394l-10.407-7.737l-2.16,2.771c-3.532,4.532-7.5,3.519-9.104,2.348l-1.622-1.052
	c-2.127-1.658-4.179-5.555-1.112-9.49c3.186-4.086,6.993-3.557,8.561-2.707l0.198,0.126l29.914,22.236l-4.301,1.766l0.761,2.057
	l15.002-1.859l-1.849-14.911l-2.323-0.099l-0.33,4.444l-28.519-22.229C295.911,397.422,289.59,391.944,282.028,391.944
	 M281.959,415.511l1.504,0.973c0.41,0.275,2.313,1.322,4.637-1.659l2.113-2.711l-4.431-3.294c-0.415-0.171-2.291-0.738-4.319,1.864
	C279.548,413.142,281.289,414.951,281.959,415.511"/>
<polyline fill="#FFFFFF" points="282.456,381.47 283.829,392.621 289.143,392.843 289.363,389.879 293.3,392.928 "/>
<polygon fill="#191818" points="290.669,394.557 282.362,394.209 280.819,381.671 284.092,381.269 285.294,391.032 287.616,391.129 
	287.945,386.697 294.309,391.624 292.29,394.232 290.78,393.062 "/>
<path fill="#191818" d="M327.254,370.974c7.449,0,13.512,4.529,15.438,6.042c4.38,3.442,13.816,16.603,2.663,30.912
	c-4.85,6.223-10.159,8.196-14.942,8.196c-0.512,0-1.018-0.022-1.516-0.065l1.939,15.65l-17.935,2.223l-1.766-4.773l3.074-1.263
	l-17.042-12.669l7.829,7.057c-0.392,0.502-3.572,4.555-3.966,5.01c-5.355,6.166-10.898,8.152-15.834,8.152
	c-7.45,0-13.512-4.528-15.438-6.042c-4.38-3.442-13.817-16.602-2.663-30.911c4.85-6.224,10.158-8.197,14.943-8.196
	c0.511,0,1.017,0.021,1.515,0.063l-1.94-15.648l17.935-2.224l1.767,4.774l-3.074,1.262l17.042,12.668l-7.83-7.055
	c0.392-0.502,3.572-4.556,3.967-5.01C316.775,372.961,322.318,370.974,327.254,370.974 M327.638,399.414
	c1.244,0,2.966-0.506,4.649-2.665c3.168-4.064-0.825-7.175-0.825-7.175l-1.579-1.022c0,0-0.913-0.665-2.281-0.665
	c-1.252,0-2.886,0.558-4.552,2.695c-1.892,2.427-2.755,3.535-3.151,4.042l5.914,4.396
	C325.813,399.02,326.539,399.414,327.638,399.414 M323.078,416.516l0.133-1.784c-4.666-1.759-7.83-4.557-7.83-4.557
	c-2.926-2.28-26.009-20.272-26.009-20.272l-0.133,1.785c4.667,1.759,7.83,4.557,7.83,4.557
	C299.995,398.524,323.078,416.516,323.078,416.516 M284.848,418.533c1.253,0,2.887-0.559,4.552-2.695
	c1.894-2.427,2.756-3.535,3.151-4.042l-5.914-4.396c0,0-0.726-0.394-1.824-0.394c-1.245,0-2.967,0.506-4.649,2.665
	c-3.168,4.063,0.824,7.175,0.824,7.175l1.58,1.022C282.567,417.868,283.479,418.533,284.848,418.533 M327.254,368.466
	c-6.567,0-12.532,3.033-17.729,9.017c-0.333,0.383-2.061,2.577-3.15,3.963l-3.077-2.286l1.209-0.497l-0.84-2.271l-1.768-4.773
	l-0.689-1.863l-1.972,0.244l-17.935,2.224l-2.489,0.308l0.309,2.49l1.588,12.812c-5.941,0.393-11.183,3.456-15.596,9.119
	c-11.685,14.991-2.963,29.668,3.092,34.426c5.477,4.303,11.351,6.578,16.988,6.578c6.567,0,12.531-3.033,17.729-9.018
	c0.333-0.384,2.061-2.577,3.148-3.963l3.077,2.287l-1.209,0.496l0.842,2.271l1.767,4.774l0.688,1.863l1.973-0.245l17.934-2.224
	l2.49-0.308l-0.309-2.49l-1.589-12.811c5.941-0.395,11.183-3.457,15.595-9.119c11.687-14.993,2.964-29.668-3.092-34.426
	C338.766,370.74,332.892,368.466,327.254,368.466 M323.455,394.142l0.524-0.672l1.049-1.346c0.614-0.789,1.56-1.729,2.574-1.729
	c0.414,0,0.733,0.154,0.831,0.208l0.087,0.072v-0.017l1.46,0.943c0.862,0.736,1.607,1.962,0.328,3.604
	c-0.879,1.127-1.777,1.699-2.671,1.699c-0.252,0-0.455-0.048-0.576-0.085L323.455,394.142z M282.47,414.816
	c-0.862-0.735-1.607-1.963-0.328-3.604c0.879-1.127,1.777-1.699,2.671-1.699c0.252,0,0.455,0.047,0.576,0.083l3.606,2.681
	l-0.388,0.497l-1.185,1.521c-0.614,0.789-1.561,1.728-2.574,1.728c-0.44,0-0.8-0.182-0.802-0.183l-0.058-0.042l-0.059-0.038
	L282.47,414.816z"/>
</svg>
