<?xml version="1.0" encoding="utf-8"?>
<!-- Generator: Adobe Illustrator 16.0.0, SVG Export Plug-In . SVG Version: 6.00 Build 0)  -->
<!DOCTYPE svg PUBLIC "-//W3C//DTD SVG 1.1//EN" "http://www.w3.org/Graphics/SVG/1.1/DTD/svg11.dtd">
<svg version="1.1" id="Layer_1" xmlns="http://www.w3.org/2000/svg" xmlns:xlink="http://www.w3.org/1999/xlink" x="0px" y="0px"
	 width="240px" height="200px" viewBox="0 0 240 200" enable-background="new 0 0 240 200" xml:space="preserve">
<path fill="none" d="M53.764,2645.837"/>
<path fill="none" d="M53.764-599.76"/>
<path fill="#F26D7C" d="M117.759,50.369H52.925c0.001,0.088,0.002,0.176,0.002,0.266v69.839c0,0,2.684,27.274,32.198,35.556
	c28.535,8.005,32.408,17.374,32.634,17.987c0.008,0.021,0.012,0.033,0.012,0.033s3.129-9.741,32.645-18.021
	c29.516-8.28,32.197-35.556,32.197-35.556V50.673c0-0.014,0.002-0.024,0.002-0.038c0-0.09,0.002-0.178,0.003-0.266H117.759z"/>
<g opacity="0.6">
	<g>
		<g>
			<defs>
				<rect id="SVGID_1_" x="117.76" y="48.51" width="66.811" height="127.4"/>
			</defs>
			<clipPath id="SVGID_2_">
				<use xlink:href="#SVGID_1_"  overflow="visible"/>
			</clipPath>
			<path clip-path="url(#SVGID_2_)" fill="#DF2F55" d="M151.398,157.346c30.4-8.527,33.164-36.623,33.164-36.623v-71.9
				c0-0.014,0.002-0.026,0.002-0.039c0-0.092,0.002-0.182,0.004-0.272h-66.811v127.365c0.008,0.022,0.012,0.034,0.012,0.034
				S120.995,165.875,151.398,157.346"/>
		</g>
	</g>
</g>
<g opacity="0.4">
	<g>
		<g>
			<defs>
				<rect id="SVGID_3_" x="41.76" y="15.37" width="152.021" height="160.54"/>
			</defs>
			<clipPath id="SVGID_4_">
				<use xlink:href="#SVGID_3_"  overflow="visible"/>
			</clipPath>
			<path clip-path="url(#SVGID_4_)" fill="#FFFFFF" d="M175.773,29.164c-2.642,4.354-4.93,10.604-5.002,19.229v0.005l-0.004,0.259
				v0.083v0.082v70.901c-0.261,1.438-1.205,5.667-3.914,10.227c-4.133,6.953-10.586,11.701-19.183,14.113
				c-13.944,3.911-23.452,8.354-29.93,12.658c-6.466-4.301-15.954-8.755-29.872-12.658c-8.596-2.412-15.051-7.16-19.183-14.113
				c-2.709-4.56-3.653-8.787-3.913-10.227v-70.94l-0.003-0.375c-0.065-8.625-2.356-14.882-5.003-19.243h24.606h23.781h9.198h33.814
				H175.773 M183.744,15.366h-32.576h-33.814h-9.198H84.375H51.799L41.765,30.82c0,0,9.1,2.807,9.21,17.688
				c0.001,0.091,0.003,0.182,0.003,0.272v71.939c0,0,2.764,28.096,33.166,36.624c29.393,8.245,33.383,17.896,33.615,18.528
				c0.008,0.021,0.012,0.033,0.012,0.033s3.226-10.033,33.627-18.563c30.402-8.528,33.166-36.624,33.166-36.624v-71.9
				c0-0.014,0.002-0.025,0.002-0.039c0-0.093,0.002-0.183,0.002-0.272c0.111-14.883,9.211-17.688,9.211-17.688L183.744,15.366z"/>
		</g>
	</g>
</g>
<path fill="#1A1A19" d="M193.777,30.82l-10.033-15.454h-32.575h-33.815h-9.198H84.375H51.799L41.765,30.82
	c0,0,9.1,2.807,9.211,17.688v7.525h133.592v-7.525C184.68,33.627,193.777,30.82,193.777,30.82"/>
<path fill="#191818" d="M179.201,23.732l3.393,5.225c-2.295,2.726-4.316,6.396-5.443,11.187H58.394
	c-1.128-4.79-3.149-8.461-5.444-11.187l3.392-5.225h28.033h23.781h9.198h33.815H179.201 M183.744,15.366h-32.575h-33.815h-9.198
	H84.375H51.799L41.766,30.82c0,0,9.099,2.807,9.21,17.688h133.592c0.111-14.883,9.211-17.688,9.211-17.688L183.744,15.366z"/>
<path fill="#191818" d="M179.201,23.732l3.393,5.225c-3.476,4.13-6.324,10.43-6.392,19.5l-0.001,0.059v0.033l-0.001,0.022
	l-0.003,0.171v0.039v0.04v71.392c-0.394,2.727-4.037,22.619-27.059,29.078c-5.88,1.649-21.529,6.528-31.395,14.107
	c-5.685-4.469-15.25-9.594-31.342-14.107c-22.9-6.425-26.624-26.116-27.06-29.098V48.782l-0.002-0.271v-0.064
	c-0.068-9.064-2.916-15.361-6.392-19.49l3.392-5.225h28.033h23.781h9.198h33.815H179.201 M183.744,15.366h-32.575h-33.815h-9.198
	H84.375H51.799L41.766,30.82c0,0,9.099,2.807,9.21,17.688c0,0.091,0.002,0.182,0.002,0.272v71.939c0,0,2.764,28.096,33.167,36.624
	c29.392,8.245,33.382,17.896,33.615,18.528c0.008,0.021,0.012,0.033,0.012,0.033s3.224-10.033,33.626-18.563
	c30.402-8.528,33.166-36.624,33.166-36.624v-71.9c0-0.014,0.002-0.025,0.002-0.039c0-0.093,0.002-0.183,0.002-0.272
	c0.111-14.883,9.211-17.688,9.211-17.688L183.744,15.366z"/>
<polygon fill="#FFFFFF" points="66.325,45.508 66.325,30.637 63.284,33.797 60.966,31.359 66.867,25.428 70.389,25.428 
	70.389,45.508 "/>
<polygon fill="#FFFFFF" points="94.832,45.508 94.832,32.563 90.347,45.508 88.751,45.508 84.295,32.563 84.295,45.508 
	80.261,45.508 80.261,25.428 85.68,25.428 89.563,36.627 93.478,25.428 98.866,25.428 98.866,45.508 "/>
<path fill="#FFFFFF" d="M101.572,35.483c0-5.961,3.131-10.387,8.369-10.387c5.269,0,8.4,4.426,8.4,10.387
	c0,5.99-3.131,10.386-8.4,10.386C104.703,45.869,101.572,41.475,101.572,35.483 M114.217,35.483c0-3.884-1.505-6.805-4.275-6.805
	c-2.74,0-4.215,2.921-4.215,6.805c0,3.823,1.475,6.804,4.215,6.804C112.711,42.287,114.217,39.308,114.217,35.483"/>
<polygon fill="#FFFFFF" points="131.977,45.508 125.143,33.647 125.143,45.508 121.107,45.508 121.107,25.428 125.203,25.428 
	131.766,36.868 131.766,25.428 135.83,25.428 135.83,45.508 "/>
<polygon fill="#FFFFFF" points="142.691,45.508 142.691,28.98 138.234,28.98 138.234,25.428 151.182,25.428 151.182,28.98 
	146.725,28.98 146.725,45.508 "/>
<polygon fill="#FFFFFF" points="164.273,45.508 164.273,36.958 157.621,36.958 157.621,45.508 153.586,45.508 153.586,25.428 
	157.621,25.428 157.621,33.405 164.273,33.405 164.273,25.428 168.339,25.428 168.339,45.508 "/>
<path fill="#191818" d="M101.414,76.856c0,2.099-1.701,3.8-3.8,3.8c-2.099,0-3.799-1.701-3.799-3.8c0-2.1,1.701-3.801,3.799-3.801
	C99.712,73.056,101.414,74.758,101.414,76.856"/>
<path fill="#FFFFFF" d="M128.523,136.655c-14.856,6.186-31.915-0.845-38.1-15.7c-6.186-14.856,0.844-31.914,15.701-38.1
	c14.855-6.187,31.914,0.845,38.1,15.7C150.41,113.412,143.38,130.471,128.523,136.655"/>
<path fill="#F26D7C" d="M117.324,82.163c-15.239,0-27.593,12.354-27.593,27.593s12.354,27.593,27.593,27.593
	c15.238,0,27.593-12.354,27.593-27.593S132.563,82.163,117.324,82.163 M117.324,130.98c-11.722,0-21.225-9.503-21.225-21.226
	s9.503-21.226,21.225-21.226c11.723,0,21.225,9.503,21.225,21.226C138.549,121.479,129.047,130.98,117.324,130.98"/>
<path fill="#F26D7C" d="M117.324,94.897c-8.206,0-14.858,6.651-14.858,14.857s6.652,14.857,14.858,14.857
	c8.205,0,14.857-6.651,14.857-14.857S125.529,94.897,117.324,94.897 M117.324,118.246c-4.689,0-8.49-3.801-8.49-8.49
	c0-4.688,3.801-8.49,8.49-8.49s8.49,3.802,8.49,8.49C125.814,114.445,122.014,118.246,117.324,118.246"/>
<path fill="#191818" d="M117.324,104.893c-2.685,0-4.863,2.179-4.863,4.863c0,2.686,2.178,4.862,4.863,4.862
	c2.686,0,4.863-2.177,4.863-4.862C122.188,107.071,120.01,104.893,117.324,104.893"/>
<path fill="#191818" d="M117.338,145.214c-14.366,0-27.217-8.57-32.739-21.833c-7.513-18.045,1.056-38.838,19.101-46.352
	c4.354-1.813,8.933-2.731,13.611-2.731c14.367,0,27.218,8.569,32.74,21.833c3.639,8.742,3.656,18.377,0.049,27.131
	c-3.606,8.755-10.408,15.581-19.149,19.221C126.596,144.295,122.018,145.214,117.338,145.214 M117.311,78.442
	c-4.128,0-8.172,0.813-12.018,2.413c-15.936,6.635-23.502,24.995-16.868,40.933c4.876,11.713,16.226,19.28,28.913,19.28
	c4.129,0,8.173-0.813,12.02-2.413c7.72-3.214,13.726-9.241,16.91-16.974c3.186-7.731,3.17-16.239-0.043-23.959
	C141.348,86.011,129.999,78.442,117.311,78.442"/>
<path fill="#FFFFFF" d="M117.311,76.37v5.269c11.393,0,21.583,6.796,25.962,17.313c5.957,14.31-0.836,30.796-15.146,36.753
	c-3.455,1.438-7.085,2.168-10.79,2.168c-11.393,0-21.584-6.796-25.963-17.313c-5.957-14.31,0.837-30.796,15.146-36.753
	c3.455-1.438,7.085-2.168,10.79-2.168L117.311,76.37 M117.311,76.37c-4.275,0-8.622,0.827-12.815,2.573
	c-17.017,7.084-25.069,26.623-17.984,43.641c5.339,12.824,17.751,20.558,30.826,20.558c4.275,0,8.622-0.826,12.814-2.572
	c17.018-7.084,25.068-26.623,17.983-43.642C142.798,84.104,130.387,76.37,117.311,76.37"/>
<path fill="#191818" d="M117.338,145.214c-14.366,0-27.217-8.57-32.739-21.833c-7.513-18.045,1.056-38.838,19.101-46.352
	c4.354-1.813,8.933-2.731,13.611-2.731c14.367,0,27.218,8.569,32.74,21.833c3.639,8.742,3.656,18.377,0.049,27.131
	c-3.606,8.755-10.408,15.581-19.149,19.221C126.596,144.295,122.018,145.214,117.338,145.214 M117.311,78.442
	c-4.128,0-8.172,0.813-12.018,2.413c-15.936,6.635-23.502,24.995-16.868,40.933c4.876,11.713,16.226,19.28,28.913,19.28
	c4.129,0,8.173-0.813,12.02-2.413c7.72-3.214,13.726-9.241,16.91-16.974c3.186-7.731,3.17-16.239-0.043-23.959
	C141.348,86.011,129.999,78.442,117.311,78.442"/>
<path fill="#191818" d="M117.324,84.818c0,0-0.001,0.021-0.004,0.053h0.01C117.326,84.839,117.324,84.818,117.324,84.818"/>
<path fill="#191818" d="M116.506,142.315h1.636c0.692,0,1.254-0.563,1.254-1.255v-5.435c0-0.693-0.563-1.254-1.254-1.254h-1.636
	c-0.693,0-1.254,0.561-1.254,1.254v5.435C115.252,141.754,115.813,142.315,116.506,142.315"/>
<path fill="#191818" d="M117.009,84.846c0.001,0.015,0.537,0.025,1.195,0.025c0.657,0,1.192-0.562,1.192-1.254v-5.771
	c0-0.691-0.562-1.254-1.254-1.254h-1.636c-0.693,0-1.254,0.563-1.254,1.254v5.771c0,0.692,0.391,1.254,0.874,1.254
	s0.876-0.012,0.877-0.025C117.004,84.83,117.006,84.83,117.009,84.846"/>
<path fill="#191818" d="M150.186,110.272v-1.637c0-0.692-0.563-1.255-1.254-1.255h-5.687c-0.692,0-1.254,0.563-1.254,1.255v1.637
	c0,0.692,0.562,1.255,1.254,1.255h5.687C149.623,111.527,150.186,110.966,150.186,110.272"/>
<path fill="#191818" d="M84.464,108.637v1.637c0,0.691,0.562,1.255,1.254,1.255h5.519c0.693,0,1.254-0.563,1.254-1.255v-1.637
	c0-0.692-0.561-1.254-1.254-1.254h-5.519C85.025,107.383,84.464,107.943,84.464,108.637"/>
<path fill="#191818" d="M101.388,89.771c-0.682-1.045-0.388-2.442,0.657-3.125c1.044-0.682,2.443-0.388,3.124,0.656
	c0.683,1.045,11.682,22.031,11.682,22.031S102.068,90.814,101.388,89.771"/>
<path fill="#F26D7C" d="M124.303,69.922c0,3.711-3.008,6.719-6.72,6.719c-3.71,0-6.718-3.008-6.718-6.719
	c0-3.71,3.008-6.719,6.718-6.719C121.295,63.203,124.303,66.212,124.303,69.922"/>
<path fill="#191818" d="M140.498,119.036c1.191,0.364,2.454-0.309,2.818-1.5c0.363-1.192-0.31-2.455-1.5-2.819
	c-1.193-0.363-24.413-5.089-24.413-5.089S139.307,118.672,140.498,119.036"/>
<path fill="#191818" d="M117.774,77.945c-4.437,0-8.045-3.609-8.045-8.046c0-4.438,3.608-8.046,8.045-8.046s8.046,3.608,8.046,8.046
	C125.82,74.336,122.211,77.945,117.774,77.945 M117.774,65.998c-2.151,0-3.901,1.75-3.901,3.901c0,2.15,1.75,3.9,3.901,3.9
	s3.901-1.75,3.901-3.9C121.675,67.748,119.926,65.998,117.774,65.998"/>
<path fill="#191818" d="M131.398,77.599l2.588-3.061c0.895-1.058,2.478-1.19,3.535-0.296l12.029,10.171
	c1.059,0.894,1.191,2.477,0.297,3.535l-2.588,3.061L131.398,77.599z"/>
<path fill="#1A1A19" d="M117.771,180.615c0,0-0.004-0.013-0.012-0.033c-0.194-0.527-3.011-7.318-20.954-14.34v16.475
	c11.415,7.014,20.568,9.111,20.568,9.111h0.797c0,0,9.152-2.1,20.566-9.111V166.24C120.05,173.553,117.771,180.615,117.771,180.615"
	/>
<path fill="#1A1A19" d="M64.475,150.252v8.096c8.119,9.57,19.146,15.858,29.014,22.171v-16.513
	c-2.791-0.993-5.886-1.981-9.345-2.953C75.579,158.65,69.209,154.695,64.475,150.252"/>
<path fill="#1A1A19" d="M142.055,164.007v16.512c9.868-6.313,20.896-12.601,29.014-22.17v-8.098
	c-4.733,4.442-11.104,8.398-19.67,10.802C147.938,162.023,144.846,163.014,142.055,164.007"/>
<path fill="#020202" d="M210.412,88.543c0.146,1.75-0.152,3.623,0.188,5.469c0.328,0.773,0.593,1.555,0.873,2.35
	c0.818,2.085,1.732,3.989,3.31,4.865c1.285-2.557,2.464-5.285,2.744-8.496c-0.084-2.1-0.509-4.063-1.249-5.93
	c-1.15-2.938-3.063-5.578-5.613-7.851c-0.082-0.079-0.144-0.11-0.187-0.17l-0.414-0.013c0.093,0.271,0.164,0.577,0.247,0.887
	C210.987,82.54,210.692,85.332,210.412,88.543"/>
<path fill="#020202" d="M210.61,106.322c-1.817-3.576-5.513-6.852-6.38-10.244l-0.531-0.223c-1.338,3.336-1.192,7.325-0.168,10.949
	c1.107,4.704,3.424,8.369,4.508,12.994c0.193,0.891,0.354,1.775,0.459,2.742c6.955-5.049,13.368-10.808,15.182-19.897l-12.193,6.13
	C211.322,107.927,210.993,107.088,210.61,106.322"/>
<path fill="#020202" d="M191.008,147.48c-0.916-0.018-1.783-0.026-2.638,0.015c3.211-4.571,2.29-10.163,4.058-15.119l-0.017-0.22
	c-5.329,2.009-8.124,6.701-10.731,11.657c-1.861,3.593-3.683,7.273-6.339,9.993c1.109,0.08,2.153,0.229,3.234,0.389
	c1.122,0.164,2.274,0.387,3.435,0.691c2.307,0.136,4.581,0.238,6.732,0.167c4.035-0.171,7.795-0.854,11.037-2.604
	c1.502-0.799,2.9-1.851,4.131-3.161c-0.949-0.154-1.992-0.343-3.028-0.524C197.617,148.209,194.184,147.639,191.008,147.48"/>
<path fill="#020202" d="M204.008,131.907c-1.494-5.036-4.273-10.122-3.865-15.643l-0.142-0.219l-0.374,0.165
	c-0.045,0.036-0.097,0.108-0.102,0.146c-0.291,0.501-0.602,0.785-1.137,1.3c-3.805,6.707-3.229,14.779-1.274,21.92
	c0.319,1.176,0.653,2.295,1.063,3.425c3.422-2.676,7.645-3.358,11.442-5.306c0.341-0.207,0.676-0.37,1.028-0.582
	c3.659-2.642,5.887-7.007,6.842-11.185c-2.373,0.759-4.7,1.369-6.876,2.188C208.27,128.962,206.006,130.104,204.008,131.907"/>
<path fill="#020202" d="M25.208,88.673c-0.24,1.74-0.044,3.626-0.482,5.45c-0.369,0.755-0.674,1.52-0.997,2.299
	c-0.932,2.037-1.947,3.892-3.568,4.68c-1.145-2.62-2.174-5.409-2.281-8.632c0.197-2.091,0.727-4.027,1.567-5.853
	c1.306-2.873,3.357-5.406,6.027-7.536c0.086-0.075,0.149-0.103,0.195-0.16l0.415,0.011c-0.108,0.268-0.196,0.566-0.295,0.871
	C24.958,82.648,25.101,85.452,25.208,88.673"/>
<path fill="#020202" d="M24.933,106.322c1.817-3.576,5.512-6.852,6.379-10.244l0.531-0.223c1.338,3.336,1.193,7.325,0.169,10.949
	c-1.108,4.704-3.423,8.369-4.507,12.994c-0.194,0.891-0.354,1.775-0.459,2.742c-6.956-5.049-13.369-10.808-15.182-19.897
	l12.194,6.13C24.221,107.927,24.55,107.088,24.933,106.322"/>
<path fill="#020202" d="M44.535,147.48c0.916-0.018,1.783-0.026,2.638,0.015c-3.211-4.571-2.291-10.163-4.058-15.119l0.017-0.22
	c5.329,2.009,8.124,6.701,10.731,11.657c1.861,3.593,3.683,7.273,6.339,9.993c-1.109,0.08-2.153,0.229-3.234,0.389
	c-1.122,0.164-2.275,0.387-3.435,0.691c-2.306,0.136-4.581,0.238-6.732,0.167c-4.035-0.171-7.795-0.854-11.037-2.604
	c-1.502-0.799-2.901-1.851-4.131-3.161c0.949-0.154,1.992-0.343,3.028-0.524C37.926,148.209,41.359,147.639,44.535,147.48"/>
<path fill="#020202" d="M31.535,131.907c1.494-5.036,4.274-10.122,3.865-15.643l0.142-0.219l0.374,0.165
	c0.045,0.036,0.097,0.108,0.101,0.146c0.292,0.501,0.601,0.785,1.136,1.3c3.805,6.707,3.229,14.779,1.274,21.92
	c-0.319,1.176-0.652,2.295-1.062,3.425c-3.423-2.676-7.645-3.358-11.443-5.306c-0.341-0.207-0.676-0.37-1.029-0.582
	c-3.66-2.642-5.886-7.007-6.842-11.185c2.373,0.759,4.701,1.369,6.877,2.188C27.274,128.962,29.537,130.104,31.535,131.907"/>
</svg>
