<?xml version="1.0" encoding="utf-8"?>
<!-- Generator: Adobe Illustrator 16.0.0, SVG Export Plug-In . SVG Version: 6.00 Build 0)  -->
<!DOCTYPE svg PUBLIC "-//W3C//DTD SVG 1.1//EN" "http://www.w3.org/Graphics/SVG/1.1/DTD/svg11.dtd">
<svg version="1.1" id="Layer_1" xmlns="http://www.w3.org/2000/svg" xmlns:xlink="http://www.w3.org/1999/xlink" x="0px" y="0px"
	 width="240px" height="200px" viewBox="0 0 240 200" enable-background="new 0 0 240 200" xml:space="preserve">
<path fill="none" d="M53.764,2645.837"/>
<path fill="none" d="M53.764-599.76"/>
<path fill="#96D5CF" d="M118,50.782H53.406c0,0.088,0.002,0.175,0.002,0.264v69.581c0,0,2.674,27.175,32.079,35.424
	c28.429,7.976,32.288,17.311,32.513,17.921c0.008,0.021,0.011,0.032,0.011,0.032s3.118-9.705,32.524-17.953
	c29.404-8.249,32.078-35.424,32.078-35.424V51.084c0-0.013,0.002-0.025,0.002-0.038c0-0.089,0.002-0.176,0.002-0.264H118z"/>
<g opacity="0.5">
	<g>
		<g>
			<defs>
				<rect id="SVGID_1_" x="118" y="48.694" width="66.811" height="127.397"/>
			</defs>
			<clipPath id="SVGID_2_">
				<use xlink:href="#SVGID_1_"  overflow="visible"/>
			</clipPath>
			<path clip-path="url(#SVGID_2_)" fill="#189995" d="M151.639,157.53c30.401-8.529,33.166-36.624,33.166-36.624V49.005
				c0-0.013,0-0.024,0-0.039c0-0.092,0.004-0.181,0.004-0.271h-66.81V176.06c0.008,0.021,0.012,0.034,0.012,0.034
				S121.234,166.06,151.639,157.53"/>
		</g>
	</g>
</g>
<g opacity="0.4">
	<g>
		<g>
			<defs>
				<rect id="SVGID_3_" x="42" y="15.55" width="152.02" height="160.543"/>
			</defs>
			<clipPath id="SVGID_4_">
				<use xlink:href="#SVGID_3_"  overflow="visible"/>
			</clipPath>
			<path clip-path="url(#SVGID_4_)" fill="#FFFFFF" d="M176.016,29.348c-2.643,4.355-4.932,10.604-5.004,19.229v0.004l-0.003,0.261
				l-0.001,0.084v0.081v70.903c-0.26,1.438-1.203,5.666-3.914,10.225c-4.133,6.953-10.586,11.701-19.183,14.113
				c-13.943,3.912-23.452,8.354-29.929,12.659c-6.466-4.301-15.956-8.755-29.872-12.659c-8.596-2.412-15.051-7.16-19.183-14.113
				c-2.709-4.559-3.653-8.786-3.913-10.225V48.968l-0.003-0.375c-0.065-8.625-2.356-14.883-5.003-19.244h24.605h23.781h9.198h33.814
				L176.016,29.348 M183.984,15.551h-32.576h-33.814h-9.198H84.615H52.039L42.005,31.004c0,0,9.1,2.807,9.21,17.689
				c0.001,0.091,0.003,0.181,0.003,0.272v71.939c0,0,2.764,28.095,33.166,36.624c29.393,8.245,33.383,17.896,33.615,18.528
				c0.008,0.021,0.012,0.033,0.012,0.033s3.225-10.033,33.627-18.563s33.166-36.624,33.166-36.624V49.003
				c0-0.013,0.002-0.025,0.002-0.038c0-0.093,0.002-0.183,0.002-0.272c0.109-14.884,9.211-17.689,9.211-17.689L183.984,15.551z"/>
		</g>
	</g>
</g>
<path fill="#1A1A19" d="M194.02,31.004L183.984,15.55H151.41h-33.816h-9.198H84.615H52.04L42.006,31.004c0,0,9.1,2.807,9.21,17.69
	v7.523h133.595v-7.523C184.919,33.811,194.02,31.004,194.02,31.004"/>
<path fill="#191818" d="M179.441,23.916l3.393,5.226c-2.295,2.727-4.316,6.396-5.443,11.187H58.634
	c-1.128-4.789-3.149-8.46-5.444-11.187l3.392-5.226h28.033h23.781h9.198h33.814H179.441 M183.984,15.551h-32.576h-33.814h-9.198
	H84.615H52.039L42.005,31.004c0,0,9.1,2.807,9.21,17.689h133.594c0.109-14.884,9.211-17.689,9.211-17.689L183.984,15.551z"/>
<path fill="#191818" d="M179.441,23.916l3.393,5.226c-3.477,4.128-6.324,10.429-6.393,19.495v0.061v0.041l-0.002,0.022l-0.002,0.166
	v0.038v0.04v71.372c-0.437,2.982-4.16,22.674-27.06,29.099c-5.879,1.648-21.528,6.527-31.394,14.106
	c-5.685-4.468-15.251-9.594-31.342-14.106c-22.9-6.425-26.624-26.115-27.06-29.099v-71.41l-0.002-0.271l-0.001-0.063
	c-0.067-9.063-2.915-15.36-6.391-19.489l3.392-5.226h28.033h23.781h9.198h33.814L179.441,23.916 M183.984,15.551h-32.576h-33.814
	h-9.198H84.615H52.039L42.005,31.004c0,0,9.1,2.807,9.21,17.689c0.001,0.091,0.003,0.181,0.003,0.272v71.939
	c0,0,2.764,28.095,33.166,36.624c29.393,8.245,33.383,17.896,33.615,18.528c0.008,0.021,0.012,0.033,0.012,0.033
	s3.225-10.033,33.627-18.563s33.166-36.624,33.166-36.624V49.003c0-0.013,0.002-0.025,0.002-0.038c0-0.093,0.002-0.183,0.002-0.272
	c0.109-14.884,9.211-17.689,9.211-17.689L183.984,15.551z"/>
<path fill="#FFFFFF" d="M63.539,42.802l2.408-2.527c1.024,1.323,2.62,2.196,4.305,2.196c2.108,0,3.071-1.112,3.071-2.68
	c0-1.866-1.294-2.528-3.251-2.528c-0.662,0-1.566,0-1.866,0.062V33.68c0.3,0.03,1.294,0.03,1.775,0.03
	c1.837,0,3.071-0.753,3.071-2.318c0-1.686-1.204-2.497-2.95-2.497c-1.565,0-2.98,0.722-4.004,2.017l-2.288-2.349
	c1.444-2.018,3.732-3.252,6.623-3.252c3.974,0,6.593,1.896,6.593,5.449c0,2.288-1.716,4.154-3.793,4.575
	c2.047,0.302,4.095,2.108,4.095,4.818c0,3.49-2.68,5.899-6.895,5.899C67.242,46.054,64.803,44.638,63.539,42.802"/>
<polygon fill="#FFFFFF" points="98.819,45.692 96.23,32.326 93.671,45.692 89.457,45.692 84.88,25.611 89.216,25.611 91.805,39.582 
	94.665,25.611 97.825,25.611 100.716,39.582 103.275,25.611 107.61,25.611 103.034,45.692 "/>
<polygon fill="#FFFFFF" points="109.564,45.692 109.564,25.611 121.064,25.611 121.064,29.165 113.598,29.165 113.598,33.711 
	120.854,33.711 120.854,37.263 113.598,37.263 113.598,42.14 121.064,42.14 121.064,45.692 "/>
<polygon fill="#FFFFFF" points="124.043,45.692 124.043,25.611 135.543,25.611 135.543,29.165 128.076,29.165 128.076,33.711 
	135.332,33.711 135.332,37.263 128.076,37.263 128.076,42.14 135.543,42.14 135.543,45.692 "/>
<polygon fill="#FFFFFF" points="148.605,45.692 143.971,37.835 142.557,40.063 142.557,45.692 138.521,45.692 138.521,25.611 
	142.557,25.611 142.557,34.733 148.215,25.611 152.912,25.611 146.5,35.064 153.361,45.692 "/>
<path fill="#FFFFFF" d="M153.873,43.464l1.986-3.101c1.113,1.233,2.859,2.138,4.848,2.138c1.775,0,2.738-0.994,2.738-2.228
	c0-3.522-8.971-2.318-8.971-9.122c0-3.162,2.469-5.871,6.623-5.871c2.438,0,4.545,0.784,6.081,2.228l-1.927,3.012
	c-1.204-1.145-2.74-1.687-4.307-1.687c-1.443,0-2.348,0.813-2.348,2.047c0,3.131,8.941,2.288,8.941,9.063
	c0,3.521-2.409,6.11-6.805,6.11C157.695,46.054,155.469,45.061,153.873,43.464"/>
<path fill="#FFFFFF" d="M119.314,84.137c0.391-0.502,3.57-4.556,3.965-5.01c13.438-15.473,31.015-1.697,30.063-2.439
	c10.289,8.021,12.461,20.223,3.873,31.24c-13.27,17.026-30.963,1.478-29.974,2.247c-2.927-2.28-26.01-20.271-26.01-20.271
	l-0.219,2.966l-5.315-0.225l-2.223-17.934l17.934-2.224l1.767,4.773l-3.074,1.263l27.572,20.495c0,0,3.306,1.793,6.474-2.271
	c3.168-4.064-0.824-7.175-0.824-7.175l-1.579-1.022c0,0-3.349-2.44-6.832,2.03l-3.484,4.47"/>
<path fill="#191818" d="M132.564,94.066c0.483,3.915,4.052,6.694,7.968,6.21c3.915-0.485,6.694-4.054,6.209-7.969
	s-4.052-6.694-7.968-6.21C134.859,86.583,132.079,90.151,132.564,94.066"/>
<path fill="#FFFFFF" d="M120.693,86.451l4.588,3.41c-0.109,0.188-0.217,0.382-0.324,0.576L120.693,86.451z"/>
<path fill="#191818" d="M125.38,93.09l-5.813-5.435l2.11-2.527l5.761,4.283l-0.726,1.269c-0.104,0.183-0.208,0.365-0.312,0.555
	L125.38,93.09z"/>
<polygon fill="#191818" points="126.895,91.188 125.146,89.89 125.357,89.526 127.023,91.029 "/>
<path fill="#191818" d="M139.311,99.431c-1.111,0-1.843-0.39-1.873-0.405l-6.012-4.469l0.064-0.083
	c0.396-0.507,1.26-1.613,3.15-4.042c1.414-1.813,2.974-2.732,4.635-2.732c1.385,0,2.302,0.656,2.34,0.685l1.576,1.019
	c0.048,0.038,1.031,0.813,1.637,2.105c0.563,1.199,0.881,3.078-0.787,5.219C142.299,98.961,140.507,99.431,139.311,99.431
	 M137.548,98.851c0.002,0,0.712,0.374,1.763,0.374c1.15,0,2.877-0.456,4.568-2.626c1.287-1.65,1.544-3.336,0.764-5.004
	c-0.586-1.249-1.561-2.018-1.57-2.025l-1.571-1.017c-0.015-0.01-0.909-0.647-2.226-0.647c-1.594,0-3.099,0.893-4.472,2.653
	c-1.794,2.305-2.663,3.418-3.086,3.959L137.548,98.851z"/>
<path fill="#96D5CF" d="M146.962,82.202c8.394,5.708,7.536,14.323,3.321,20.018c-4.729,6.395-11.994,6.281-16.506,3.011
	c-2.137-1.551-28.199-21.344-40.405-30.615l17.849-2.213l1.767,4.772l-3.074,1.265l10.779,8.013c0,0,10.547,8.513,10.879,8.087
	l5.914,4.396c0,0,3.306,1.794,6.474-2.271c3.167-4.063-0.825-7.176-0.825-7.176l-1.578-1.021c0,0-3.35-2.439-6.834,2.029
	c-1.892,2.428-2.756,3.536-3.15,4.043l-4.615-3.432l-1.574-1.418C131.682,78.834,139.963,77.443,146.962,82.202"/>
<path fill="#191818" d="M142.261,117.773c-8.563,0.001-15.405-5.75-16.069-6.326l-23.542-18.352l-0.11,1.484l-8.305-0.347
	l-2.599-20.957l20.867-2.587l2.772,7.49l-1.848,0.76l4.97,3.693c0.942-1.2,3.272-4.166,3.64-4.589
	c6.019-6.93,13.289-9.813,21.028-8.341c2.922,0.556,7.465,2.051,12.506,6.015c5.836,4.585,14.232,18.739,2.945,33.223
	c-4.131,5.3-9.02,8.243-14.529,8.754C143.404,117.749,142.828,117.773,142.261,117.773 M99.815,86.708l28.519,22.231
	c0.068,0.061,7.193,6.228,15.37,5.471c4.56-0.43,8.667-2.951,12.21-7.496c10.729-13.764,0.852-26.063-2.382-28.602
	c-14.147-11.124-24.248-3.588-29.007,1.896c-0.284,0.327-2.469,3.101-3.482,4.395l10.406,7.736l2.16-2.771
	c3.531-4.532,7.5-3.52,9.104-2.35l1.621,1.054c0.134,0.104,1.332,1.066,2.08,2.665c1.054,2.248,0.709,4.672-0.969,6.823
	c-3.185,4.084-6.992,3.56-8.56,2.707l-0.199-0.126l-29.913-22.235l4.3-1.768l-0.761-2.055l-15.002,1.858l1.848,14.911l2.324,0.1
	L99.815,86.708z M138.527,97.601c0.416,0.173,2.291,0.736,4.318-1.865c1.916-2.457,0.176-4.268-0.494-4.825l-1.504-0.973
	c-0.41-0.275-2.314-1.324-4.638,1.657l-2.112,2.712L138.527,97.601z"/>
<path fill="#FFFFFF" d="M116.856,122.282c-0.391,0.502-3.572,4.557-3.966,5.01c-13.438,15.473-31.014,1.697-30.062,2.439
	c-10.29-8.021-12.461-20.222-3.873-31.24c13.27-17.025,30.963-1.478,29.974-2.247c2.926,2.28,26.008,20.271,26.008,20.271
	l0.221-2.964l5.314,0.223l2.223,17.934l-17.934,2.224l-1.767-4.773l3.073-1.262L98.496,107.4c0,0-3.307-1.793-6.474,2.271
	c-3.167,4.064,0.825,7.176,0.825,7.176l1.579,1.021c0,0,3.349,2.44,6.833-2.029l3.484-4.471"/>
<path fill="#191818" d="M142.261,117.773c-8.563,0.001-15.405-5.75-16.069-6.326l-23.542-18.352l-0.11,1.484l-8.305-0.347
	l-2.599-20.957l20.867-2.587l2.772,7.49l-1.848,0.76l4.97,3.693c0.942-1.2,3.272-4.166,3.64-4.589
	c6.019-6.93,13.289-9.813,21.028-8.341c2.922,0.556,7.465,2.051,12.506,6.015c5.836,4.585,14.232,18.739,2.945,33.223
	c-4.131,5.3-9.02,8.243-14.529,8.754C143.404,117.749,142.828,117.773,142.261,117.773 M99.815,86.708l28.519,22.231
	c0.068,0.061,7.193,6.228,15.37,5.471c4.56-0.43,8.667-2.951,12.21-7.496c10.729-13.764,0.852-26.063-2.382-28.602
	c-14.147-11.124-24.248-3.588-29.007,1.896c-0.284,0.327-2.469,3.101-3.482,4.395l10.406,7.736l2.16-2.771
	c3.531-4.532,7.5-3.52,9.104-2.35l1.621,1.054c0.134,0.104,1.332,1.066,2.08,2.665c1.054,2.248,0.709,4.672-0.969,6.823
	c-3.185,4.084-6.992,3.56-8.56,2.707l-0.199-0.126l-29.913-22.235l4.3-1.768l-0.761-2.055l-15.002,1.858l1.848,14.911l2.324,0.1
	L99.815,86.708z M138.527,97.601c0.416,0.173,2.291,0.736,4.318-1.865c1.916-2.457,0.176-4.268-0.494-4.825l-1.504-0.973
	c-0.41-0.275-2.314-1.324-4.638,1.657l-2.112,2.712L138.527,97.601z"/>
<path fill="#FFFFFF" d="M116.856,122.282c-0.391,0.502-3.572,4.557-3.966,5.01c-13.438,15.473-31.014,1.697-30.062,2.439
	c-10.29-8.021-12.461-20.222-3.873-31.24c13.27-17.025,30.963-1.478,29.974-2.247c2.926,2.28,26.008,20.271,26.008,20.271
	l0.221-2.964l5.314,0.223l2.223,17.934l-17.934,2.224l-1.767-4.773l3.073-1.262L98.496,107.4c0,0-3.307-1.793-6.474,2.271
	c-3.167,4.064,0.825,7.176,0.825,7.176l1.579,1.021c0,0,3.349,2.44,6.833-2.029l3.484-4.471"/>
<path fill="#191818" d="M103.606,112.353c-0.485-3.915-4.052-6.693-7.968-6.21c-3.914,0.485-6.695,4.054-6.209,7.97
	c0.484,3.914,4.052,6.693,7.967,6.209C101.311,119.836,104.091,116.268,103.606,112.353"/>
<path fill="#FFFFFF" d="M115.478,119.968l-4.588-3.409c0.109-0.189,0.217-0.383,0.325-0.576L115.478,119.968z"/>
<path fill="#191818" d="M114.493,121.291l-5.761-4.282l0.726-1.271c0.104-0.181,0.208-0.365,0.312-0.553l1.021-1.858l5.813,5.438
	L114.493,121.291z"/>
<polygon fill="#191818" points="110.814,116.894 109.146,115.389 109.276,115.229 111.024,116.53 "/>
<path fill="#191818" d="M96.895,118.721c-1.385,0-2.302-0.655-2.34-0.684l-1.575-1.02c-0.048-0.036-4.044-3.227-0.85-7.325
	c1.742-2.234,3.534-2.704,4.73-2.704c1.111,0,1.843,0.391,1.874,0.405l6.01,4.468l-3.215,4.126
	C100.115,117.802,98.556,118.721,96.895,118.721 M96.86,107.194c-1.15,0-2.876,0.455-4.568,2.625
	c-3.066,3.936,0.648,6.905,0.807,7.03l1.573,1.017c0.013,0.011,0.908,0.647,2.223,0.647c1.594,0,3.098-0.892,4.472-2.653l3.085-3.96
	l-5.829-4.332C98.621,107.568,97.911,107.194,96.86,107.194"/>
<path fill="#96D5CF" d="M89.209,124.217c-8.395-5.708-7.536-14.323-3.322-20.018c4.73-6.395,11.995-6.281,16.507-3.009
	c2.135,1.549,28.199,21.342,40.405,30.613l-17.85,2.213l-1.768-4.772l3.075-1.263l-10.78-8.015c0,0-10.547-8.513-10.879-8.087
	l-5.914-4.396c0,0-3.306-1.793-6.474,2.271c-3.167,4.064,0.825,7.176,0.825,7.176l1.58,1.021c0,0,3.348,2.439,6.832-2.029
	c1.893-2.428,2.756-3.536,3.151-4.043l4.616,3.433l1.574,1.419C104.489,127.585,96.208,128.976,89.209,124.217"/>
<path fill="#191818" d="M97.011,137.089c-1.285,0-2.587-0.125-3.903-0.375c-2.921-0.556-7.462-2.051-12.507-6.014
	c-5.836-4.585-14.233-18.74-2.945-33.223c4.13-5.3,9.018-8.243,14.528-8.754c9.348-0.865,17.088,5.636,17.796,6.248l23.543,18.351
	l0.109-1.484l8.305,0.348l2.599,20.956l-20.865,2.587l-2.772-7.49l1.848-0.76l-4.969-3.693c-0.941,1.2-3.268,4.161-3.64,4.589
	C109.142,134.124,103.282,137.089,97.011,137.089 M93.889,91.944c-0.47,0-0.944,0.021-1.423,0.064
	c-4.56,0.431-8.667,2.95-12.209,7.495c-10.728,13.765-0.851,26.063,2.381,28.604c14.151,11.116,24.249,3.584,29.008-1.896
	c0.287-0.33,2.468-3.101,3.482-4.394l-10.407-7.737l-2.16,2.771c-3.532,4.531-7.499,3.521-9.104,2.349l-1.622-1.053
	c-2.127-1.657-4.179-5.555-1.112-9.489c3.185-4.086,6.993-3.558,8.561-2.707l0.198,0.126l29.915,22.235l-4.301,1.767l0.76,2.057
	l15.002-1.858l-1.849-14.911l-2.323-0.1l-0.33,4.444L107.837,97.48C107.771,97.422,101.45,91.944,93.889,91.944 M93.819,115.511
	l1.504,0.974c0.41,0.274,2.312,1.322,4.637-1.659l2.113-2.711l-4.431-3.294c-0.415-0.171-2.29-0.738-4.319,1.863
	C91.408,113.142,93.149,114.951,93.819,115.511"/>
<polyline fill="#FFFFFF" points="94.316,81.47 95.689,92.621 101.003,92.843 101.223,89.879 105.16,92.928 "/>
<polygon fill="#191818" points="102.529,94.557 94.223,94.209 92.68,81.671 95.952,81.269 97.154,91.032 99.477,91.129 
	99.806,86.697 106.169,91.624 104.15,94.232 102.641,93.063 "/>
<path fill="#191818" d="M139.114,70.974c7.45,0,13.512,4.529,15.438,6.042c4.38,3.442,13.816,16.604,2.663,30.912
	c-4.85,6.224-10.158,8.196-14.943,8.196c-0.51,0-1.017-0.022-1.516-0.065l1.939,15.65l-17.934,2.223l-1.767-4.772l3.073-1.264
	l-17.042-12.669l7.829,7.058c-0.392,0.502-3.572,4.555-3.966,5.01c-5.355,6.166-10.898,8.152-15.834,8.152
	c-7.45,0-13.512-4.528-15.438-6.042c-4.38-3.442-13.817-16.603-2.663-30.911c4.85-6.225,10.158-8.197,14.943-8.196
	c0.511,0,1.017,0.021,1.515,0.063l-1.94-15.648l17.935-2.224l1.767,4.773l-3.074,1.262l17.042,12.669l-7.828-7.056
	c0.392-0.502,3.572-4.556,3.967-5.01C128.636,72.961,134.18,70.974,139.114,70.974 M139.498,99.414c1.244,0,2.966-0.506,4.648-2.665
	c3.168-4.064-0.824-7.175-0.824-7.175l-1.579-1.022c0,0-0.913-0.665-2.281-0.665c-1.252,0-2.887,0.559-4.552,2.695
	c-1.893,2.427-2.756,3.535-3.151,4.042l5.914,4.396C137.673,99.02,138.4,99.414,139.498,99.414 M134.939,116.516l0.131-1.783
	c-4.666-1.76-7.829-4.558-7.829-4.558c-2.927-2.28-26.009-20.271-26.009-20.271l-0.133,1.784c4.667,1.76,7.83,4.558,7.83,4.558
	C111.855,98.524,134.939,116.516,134.939,116.516 M96.708,118.533c1.253,0,2.887-0.56,4.552-2.695
	c1.894-2.427,2.756-3.535,3.151-4.042l-5.914-4.396c0,0-0.726-0.395-1.824-0.395c-1.245,0-2.967,0.506-4.649,2.665
	c-3.168,4.063,0.824,7.175,0.824,7.175l1.58,1.022C94.428,117.868,95.34,118.533,96.708,118.533 M139.114,68.466
	c-6.567,0-12.532,3.033-17.729,9.018c-0.336,0.387-2.062,2.577-3.15,3.963l-3.077-2.286l1.209-0.497l-0.84-2.271l-1.768-4.772
	l-0.689-1.863L111.098,70l-17.935,2.224l-2.489,0.309l0.309,2.489l1.588,12.813c-5.941,0.393-11.183,3.456-15.596,9.119
	c-11.685,14.991-2.963,29.668,3.092,34.426c5.477,4.303,11.351,6.578,16.988,6.578c6.567,0,12.531-3.033,17.729-9.018
	c0.335-0.387,2.061-2.578,3.148-3.964l3.078,2.287l-1.21,0.496l0.841,2.271l1.769,4.773l0.688,1.863l1.973-0.245l17.934-2.224
	l2.49-0.309l-0.311-2.489l-1.588-12.812c5.941-0.395,11.184-3.457,15.596-9.119c11.687-14.993,2.964-29.668-3.092-34.426
	C150.626,70.74,144.751,68.466,139.114,68.466 M135.316,94.142l0.895-1.147l0.678-0.869c0.614-0.789,1.561-1.729,2.573-1.729
	c0.414,0,0.733,0.153,0.832,0.207l0.087,0.072v-0.017l1.46,0.942c0.862,0.736,1.607,1.963,0.327,3.604
	c-0.878,1.127-1.777,1.699-2.67,1.699c-0.238,0-0.456-0.047-0.563-0.073L135.316,94.142z M94.33,114.816
	c-0.862-0.735-1.607-1.964-0.328-3.604c0.879-1.127,1.777-1.699,2.671-1.699c0.252,0,0.455,0.047,0.576,0.083l3.606,2.682
	l-1.573,2.019c-0.614,0.789-1.561,1.729-2.574,1.729c-0.414,0-0.733-0.153-0.831-0.208l-0.087-0.071v0.017L94.33,114.816z"/>
<path fill="#1A1A19" d="M118.011,180.093c0,0-0.004-0.012-0.012-0.033c-0.194-0.527-3.012-7.318-20.954-14.34v16.475
	c11.415,7.014,20.568,9.111,20.568,9.111h0.797c0,0,9.152-2.099,20.566-9.111v-16.477
	C120.29,173.029,118.011,180.093,118.011,180.093"/>
<path fill="#1A1A19" d="M64.715,149.729v8.097c8.119,9.569,19.146,15.857,29.014,22.171v-16.513
	c-2.791-0.993-5.886-1.983-9.345-2.953C75.819,158.127,69.449,154.172,64.715,149.729"/>
<path fill="#1A1A19" d="M142.294,163.484v16.512c9.869-6.313,20.896-12.602,29.015-22.17v-8.099
	c-4.733,4.442-11.104,8.398-19.67,10.803C148.177,161.501,145.086,162.491,142.294,163.484"/>
<path fill="#020202" d="M192.377,146.958c-0.916-0.017-1.783-0.026-2.639,0.015c3.212-4.57,2.291-10.164,4.059-15.118l-0.018-0.221
	c-5.328,2.009-8.123,6.701-10.73,11.657c-1.861,3.592-3.684,7.274-6.339,9.994c1.108,0.08,2.153,0.229,3.233,0.388
	c1.123,0.163,2.274,0.387,3.436,0.692c2.307,0.135,4.581,0.238,6.732,0.167c4.033-0.171,7.795-0.855,11.037-2.606
	c1.5-0.798,2.9-1.849,4.131-3.16c-0.949-0.153-1.992-0.343-3.028-0.523C198.986,147.688,195.553,147.116,192.377,146.958"/>
<path fill="#020202" d="M205.377,129.127c-1.494-5.036-4.273-10.122-3.863-15.641l-0.145-0.221l-0.373,0.165
	c-0.045,0.036-0.098,0.108-0.102,0.146c-0.293,0.5-0.602,0.786-1.137,1.3c-3.806,6.707-3.23,14.78-1.275,21.92
	c0.32,1.176,0.654,2.295,1.063,3.425c3.423-2.676,7.644-3.357,11.442-5.306c0.342-0.207,0.676-0.37,1.028-0.582
	c3.66-2.642,5.887-7.007,6.843-11.183c-2.373,0.757-4.701,1.366-6.876,2.186C209.638,126.182,207.375,127.324,205.377,129.127"/>
<path fill="#020202" d="M29.292,106.239c0.117,1.752,0.69,3.561,0.63,5.436c-0.208,0.813-0.353,1.625-0.512,2.452
	c-0.499,2.186-1.119,4.204-2.547,5.305c-1.651-2.336-3.224-4.857-3.98-7.991c-0.229-2.089-0.103-4.093,0.352-6.049
	c0.698-3.077,2.194-5.974,4.379-8.601c0.069-0.091,0.125-0.13,0.158-0.195l0.408-0.072c-0.051,0.281-0.077,0.594-0.112,0.911
	C27.828,100.39,28.536,103.106,29.292,106.239"/>
<path fill="#020202" d="M207.122,106.239c-0.117,1.752-0.69,3.561-0.63,5.436c0.208,0.813,0.352,1.625,0.512,2.452
	c0.499,2.186,1.119,4.204,2.547,5.305c1.651-2.336,3.226-4.857,3.98-7.991c0.229-2.089,0.104-4.093-0.353-6.049
	c-0.696-3.077-2.193-5.974-4.379-8.601c-0.067-0.091-0.125-0.13-0.157-0.195l-0.408-0.072c0.052,0.281,0.078,0.594,0.113,0.911
	C208.586,100.39,207.878,103.106,207.122,106.239"/>
<path fill="#020202" d="M43.646,146.958c0.916-0.017,1.783-0.026,2.638,0.015c-3.211-4.57-2.29-10.164-4.058-15.118l0.017-0.221
	c5.329,2.009,8.124,6.701,10.731,11.657c1.862,3.592,3.683,7.274,6.339,9.994c-1.109,0.08-2.153,0.229-3.234,0.388
	c-1.122,0.163-2.275,0.387-3.435,0.692c-2.306,0.135-4.581,0.238-6.732,0.167c-4.035-0.171-7.795-0.855-11.037-2.606
	c-1.501-0.798-2.902-1.849-4.131-3.16c0.949-0.153,1.992-0.343,3.028-0.523C37.037,147.688,40.471,147.116,43.646,146.958"/>
<path fill="#020202" d="M30.646,129.127c1.494-5.036,4.274-10.122,3.865-15.641l0.142-0.221l0.374,0.165
	c0.045,0.036,0.097,0.108,0.101,0.146c0.292,0.5,0.601,0.786,1.136,1.3c3.805,6.707,3.229,14.78,1.274,21.92
	c-0.319,1.176-0.652,2.295-1.062,3.425c-3.423-2.676-7.645-3.357-11.443-5.306c-0.341-0.207-0.676-0.37-1.029-0.582
	c-3.66-2.642-5.886-7.007-6.842-11.183c2.373,0.757,4.701,1.366,6.877,2.186C26.385,126.182,28.647,127.324,30.646,129.127"/>
</svg>
