<?xml version="1.0" encoding="utf-8"?>
<!-- Generator: Adobe Illustrator 16.0.0, SVG Export Plug-In . SVG Version: 6.00 Build 0)  -->
<!DOCTYPE svg PUBLIC "-//W3C//DTD SVG 1.1//EN" "http://www.w3.org/Graphics/SVG/1.1/DTD/svg11.dtd">
<svg version="1.1" id="Layer_1" xmlns="http://www.w3.org/2000/svg" xmlns:xlink="http://www.w3.org/1999/xlink" x="0px" y="0px"
	 width="612px" height="792px" viewBox="0 0 612 792" enable-background="new 0 0 612 792" xml:space="preserve">
<path fill="#95D5CF" d="M304.143,343.442h-64.951c0.001,0.089,0.003,0.176,0.003,0.265v69.966c0,0,2.688,27.323,32.256,35.618
	c28.585,8.02,32.466,17.406,32.692,18.021c0.008,0.021,0.012,0.031,0.012,0.031s3.137-9.758,32.704-18.053
	s32.255-35.618,32.255-35.618v-69.928c0.001-0.013,0.002-0.025,0.002-0.038c0-0.089,0.002-0.176,0.002-0.265H304.143z"/>
<g opacity="0.5">
	<g>
		<defs>
			<rect id="SVGID_1_" x="304.14" y="341.694" width="66.811" height="127.398"/>
		</defs>
		<clipPath id="SVGID_2_">
			<use xlink:href="#SVGID_1_"  overflow="visible"/>
		</clipPath>
		<path clip-path="url(#SVGID_2_)" fill="#189995" d="M337.781,450.53c30.402-8.529,33.166-36.624,33.166-36.624v-71.901
			c0-0.013,0.001-0.025,0.001-0.039c0-0.092,0.002-0.181,0.003-0.272h-66.809V469.06c0.008,0.021,0.012,0.034,0.012,0.034
			S307.378,459.06,337.781,450.53"/>
	</g>
</g>
<g opacity="0.4">
	<g>
		<defs>
			<rect id="SVGID_3_" x="228.15" y="308.55" width="152.01" height="160.543"/>
		</defs>
		<clipPath id="SVGID_4_">
			<use xlink:href="#SVGID_3_"  overflow="visible"/>
		</clipPath>
		<path clip-path="url(#SVGID_4_)" fill="#FFFFFF" d="M362.158,322.348c-2.642,4.354-4.929,10.6-5.004,19.223v0.031l-0.004,0.294
			v0.055v0.055v70.903c-0.26,1.438-1.203,5.666-3.914,10.225c-4.132,6.953-10.586,11.701-19.182,14.113
			c-13.943,3.912-23.452,8.355-29.929,12.659c-6.466-4.301-15.955-8.755-29.872-12.659c-8.596-2.412-15.051-7.16-19.183-14.113
			c-2.709-4.559-3.653-8.786-3.913-10.225v-70.941l-0.003-0.375c-0.065-8.625-2.356-14.883-5.003-19.244h24.606h23.781h9.198h33.815
			H362.158 M370.128,308.551h-32.576h-33.815h-9.198h-23.781h-32.576l-10.034,15.453c0,0,9.101,2.807,9.21,17.689
			c0.001,0.091,0.003,0.181,0.003,0.273v71.939c0,0,2.764,28.095,33.166,36.624c29.393,8.245,33.383,17.897,33.615,18.529
			c0.008,0.021,0.012,0.033,0.012,0.033s3.225-10.033,33.627-18.563s33.166-36.624,33.166-36.624v-71.901
			c0-0.013,0.002-0.025,0.002-0.038c0-0.093,0.002-0.183,0.002-0.273c0.11-14.883,9.211-17.689,9.211-17.689L370.128,308.551z"/>
	</g>
</g>
<path fill="#1A1A19" d="M380.162,324.004l-10.035-15.454h-32.574h-33.816h-9.198h-23.781h-32.576l-10.033,15.454
	c0,0,9.099,2.807,9.21,17.69v7.524h133.593v-7.524C371.063,326.811,380.162,324.004,380.162,324.004"/>
<path fill="#191818" d="M365.585,316.916l3.393,5.226c-2.296,2.726-4.316,6.396-5.444,11.186H244.777
	c-1.128-4.789-3.149-8.46-5.445-11.186l3.393-5.226h28.033h23.781h9.198h33.815H365.585 M370.128,308.551h-32.576h-33.815h-9.198
	h-23.781h-32.576l-10.034,15.453c0,0,9.101,2.807,9.21,17.689h133.593c0.11-14.883,9.211-17.689,9.211-17.689L370.128,308.551z"/>
<path fill="#191818" d="M365.585,316.916l3.393,5.227c-3.476,4.128-6.325,10.428-6.392,19.498l-0.001,0.059v0.034l-0.002,0.038
	l-0.001,0.181l-0.001,0.027v0.025v71.392c-0.393,2.726-4.037,22.62-27.06,29.079c-5.88,1.648-21.528,6.527-31.393,14.106
	c-5.685-4.468-15.251-9.593-31.342-14.106c-22.9-6.425-26.624-26.116-27.061-29.099v-71.41l-0.002-0.273l-0.001-0.063
	c-0.067-9.064-2.915-15.361-6.392-19.489l3.393-5.226h28.033h23.781h9.198h33.815H365.585 M370.128,308.551h-32.576h-33.815h-9.198
	h-23.781h-32.576l-10.034,15.453c0,0,9.101,2.807,9.21,17.689c0.001,0.091,0.003,0.181,0.003,0.273v71.939
	c0,0,2.764,28.095,33.166,36.624c29.393,8.245,33.383,17.897,33.615,18.529c0.008,0.021,0.012,0.033,0.012,0.033
	s3.225-10.033,33.627-18.563s33.166-36.624,33.166-36.624v-71.901c0-0.013,0.002-0.025,0.002-0.038c0-0.093,0.002-0.183,0.002-0.273
	c0.11-14.883,9.211-17.689,9.211-17.689L370.128,308.551z"/>
<path fill="#FFFFFF" d="M250.284,338.692v-3.252c7.346-7.135,8.881-8.729,8.881-11.019c0-1.535-1.174-2.528-2.679-2.528
	c-1.776,0-3.191,0.813-4.275,2.258l-2.408-2.528c1.625-2.168,4.003-3.313,6.743-3.313c3.884,0,6.714,2.35,6.714,6.081
	c0,3.041-2.048,5.63-7.015,10.748h7.105v3.553H250.284z"/>
<polygon fill="#FFFFFF" points="285.083,338.692 282.494,325.326 279.935,338.692 275.72,338.692 271.144,318.611 275.479,318.611 
	278.068,332.582 280.929,318.611 284.089,318.611 286.98,332.582 289.539,318.611 293.874,318.611 289.298,338.692 "/>
<polygon fill="#FFFFFF" points="295.828,338.692 295.828,318.611 307.328,318.611 307.328,322.165 299.862,322.165 299.862,326.711 
	307.117,326.711 307.117,330.263 299.862,330.263 299.862,335.14 307.328,335.14 307.328,338.692 "/>
<polygon fill="#FFFFFF" points="310.307,338.692 310.307,318.611 321.807,318.611 321.807,322.165 314.34,322.165 314.34,326.711 
	321.596,326.711 321.596,330.263 314.34,330.263 314.34,335.14 321.807,335.14 321.807,338.692 "/>
<polygon fill="#FFFFFF" points="334.87,338.692 330.234,330.835 328.819,333.063 328.819,338.692 324.785,338.692 324.785,318.611 
	328.819,318.611 328.819,327.733 334.479,318.611 339.176,318.611 332.764,328.064 339.627,338.692 "/>
<path fill="#FFFFFF" d="M340.137,336.464l1.986-3.101c1.114,1.234,2.86,2.138,4.848,2.138c1.775,0,2.74-0.994,2.74-2.228
	c0-3.522-8.973-2.318-8.973-9.122c0-3.162,2.469-5.871,6.624-5.871c2.438,0,4.545,0.784,6.081,2.228l-1.927,3.012
	c-1.204-1.145-2.739-1.687-4.306-1.687c-1.444,0-2.348,0.813-2.348,2.047c0,3.131,8.941,2.288,8.941,9.063
	c0,3.521-2.408,6.111-6.805,6.111C343.959,339.054,341.732,338.061,340.137,336.464"/>
<path fill="#FFFFFF" d="M305.458,377.137c0.391-0.502,3.572-4.556,3.966-5.01c13.438-15.473,31.013-1.697,30.062-2.439
	c10.289,8.021,12.461,20.222,3.872,31.24c-13.27,17.026-30.962,1.477-29.973,2.247c-2.926-2.28-26.01-20.272-26.01-20.272
	l-0.219,2.966l-5.315-0.224l-2.223-17.934l17.935-2.224l1.767,4.774l-3.074,1.262l27.572,20.496c0,0,3.306,1.793,6.474-2.271
	c3.167-4.064-0.825-7.175-0.825-7.175l-1.579-1.022c0,0-3.349-2.441-6.832,2.03l-3.484,4.47"/>
<path fill="#191818" d="M318.707,387.066c0.485,3.915,4.053,6.695,7.969,6.21c3.914-0.485,6.694-4.053,6.209-7.968
	s-4.053-6.695-7.967-6.21C321.002,379.584,318.223,383.151,318.707,387.066"/>
<path fill="#FFFFFF" d="M306.837,379.451l4.588,3.41c-0.109,0.189-0.218,0.382-0.325,0.577L306.837,379.451z"/>
<path fill="#191818" d="M311.523,386.09l-5.813-5.435l2.109-2.527l5.764,4.284l-0.73,1.271c-0.104,0.18-0.205,0.362-0.309,0.55
	L311.523,386.09z"/>
<polygon fill="#191818" points="313.037,384.188 311.289,382.89 311.499,382.525 313.167,384.029 "/>
<path fill="#191818" d="M325.453,392.431c-1.111,0-1.843-0.39-1.873-0.406l-6.011-4.468l3.216-4.125
	c1.413-1.813,2.973-2.733,4.633-2.733c1.386,0,2.303,0.656,2.341,0.685l1.575,1.018c0.05,0.038,1.032,0.813,1.638,2.106
	c0.562,1.199,0.881,3.078-0.787,5.219C328.441,391.961,326.649,392.431,325.453,392.431 M323.69,391.851
	c0.002,0,0.712,0.374,1.763,0.374c1.151,0,2.877-0.456,4.569-2.626c1.287-1.651,1.544-3.336,0.763-5.004
	c-0.585-1.249-1.561-2.018-1.57-2.026l-1.572-1.016c-0.014-0.01-0.909-0.648-2.225-0.648c-1.594,0-3.099,0.893-4.472,2.654
	l-3.085,3.959L323.69,391.851z"/>
<path fill="#95D5CF" d="M333.105,375.202c8.394,5.708,7.535,14.323,3.321,20.018c-4.729,6.394-11.995,6.281-16.507,3.01
	c-2.135-1.55-28.199-21.343-40.405-30.615l17.849-2.213l1.767,4.773l-3.074,1.264l10.779,8.013c0,0,10.547,8.513,10.879,8.087
	l5.914,4.396c0,0,3.307,1.793,6.475-2.271c3.166-4.063-0.825-7.176-0.825-7.176l-1.579-1.021c0,0-3.35-2.44-6.833,2.029
	c-1.892,2.428-2.756,3.536-3.151,4.043l-4.615-3.432l-1.574-1.418C317.824,371.834,326.106,370.443,333.105,375.202"/>
<path fill="#191818" d="M328.404,410.773c-8.563,0.001-15.404-5.75-16.07-6.326l-23.542-18.351l-0.111,1.484l-8.304-0.347
	l-2.599-20.957l20.867-2.587l2.773,7.491l-1.849,0.759l4.971,3.694c0.93-1.185,3.263-4.156,3.638-4.589
	c6.018-6.93,13.292-9.814,21.029-8.341c2.922,0.556,7.463,2.051,12.507,6.014c5.835,4.586,14.231,18.74,2.944,33.223
	c-4.13,5.3-9.018,8.244-14.529,8.754C329.549,410.749,328.973,410.773,328.404,410.773 M285.959,379.708l28.518,22.231
	c0.069,0.061,7.192,6.228,15.371,5.471c4.559-0.43,8.667-2.951,12.209-7.496c10.727-13.764,0.851-26.063-2.382-28.602
	c-14.15-11.121-24.248-3.586-29.008,1.896c-0.282,0.326-2.435,3.06-3.481,4.395l10.406,7.736l2.161-2.771
	c3.531-4.532,7.5-3.519,9.104-2.349l1.622,1.053c0.133,0.104,1.331,1.067,2.079,2.665c1.053,2.249,0.71,4.672-0.968,6.824
	c-3.186,4.086-6.991,3.559-8.561,2.707l-0.198-0.126l-29.913-22.236l4.3-1.767l-0.761-2.055l-15.002,1.859l1.849,14.911l2.324,0.099
	L285.959,379.708z M324.672,390.601c0.414,0.172,2.291,0.736,4.317-1.866c1.916-2.457,0.175-4.267-0.495-4.825l-1.504-0.973
	c-0.41-0.275-2.312-1.324-4.637,1.658l-2.113,2.712L324.672,390.601z"/>
<path fill="#FFFFFF" d="M303,415.282c-0.391,0.502-3.572,4.557-3.966,5.01c-13.438,15.473-31.015,1.697-30.063,2.439
	c-10.29-8.021-12.461-20.221-3.873-31.24c13.271-17.025,30.963-1.477,29.975-2.247c2.926,2.28,26.009,20.272,26.009,20.272
	l0.22-2.964l5.314,0.222l2.224,17.934l-17.934,2.224l-1.768-4.774l3.074-1.262l-27.572-20.496c0,0-3.307-1.793-6.474,2.271
	c-3.167,4.064,0.825,7.176,0.825,7.176l1.579,1.021c0,0,3.349,2.441,6.833-2.029l3.484-4.471"/>
<path fill="#191818" d="M328.404,410.773c-8.563,0.001-15.404-5.75-16.07-6.326l-23.542-18.351l-0.111,1.484l-8.304-0.347
	l-2.599-20.957l20.867-2.587l2.773,7.491l-1.849,0.759l4.971,3.694c0.93-1.185,3.263-4.156,3.638-4.589
	c6.018-6.93,13.292-9.814,21.029-8.341c2.922,0.556,7.463,2.051,12.507,6.014c5.835,4.586,14.231,18.74,2.944,33.223
	c-4.13,5.3-9.018,8.244-14.529,8.754C329.549,410.749,328.973,410.773,328.404,410.773 M285.959,379.708l28.518,22.231
	c0.069,0.061,7.192,6.228,15.371,5.471c4.559-0.43,8.667-2.951,12.209-7.496c10.727-13.764,0.851-26.063-2.382-28.602
	c-14.15-11.121-24.248-3.586-29.008,1.896c-0.282,0.326-2.435,3.06-3.481,4.395l10.406,7.736l2.161-2.771
	c3.531-4.532,7.5-3.519,9.104-2.349l1.622,1.053c0.133,0.104,1.331,1.067,2.079,2.665c1.053,2.249,0.71,4.672-0.968,6.824
	c-3.186,4.086-6.991,3.559-8.561,2.707l-0.198-0.126l-29.913-22.236l4.3-1.767l-0.761-2.055l-15.002,1.859l1.849,14.911l2.324,0.099
	L285.959,379.708z M324.672,390.601c0.414,0.172,2.291,0.736,4.317-1.866c1.916-2.457,0.175-4.267-0.495-4.825l-1.504-0.973
	c-0.41-0.275-2.312-1.324-4.637,1.658l-2.113,2.712L324.672,390.601z"/>
<path fill="#FFFFFF" d="M303,415.282c-0.391,0.502-3.572,4.557-3.966,5.01c-13.438,15.473-31.015,1.697-30.063,2.439
	c-10.29-8.021-12.461-20.221-3.873-31.24c13.271-17.025,30.963-1.477,29.975-2.247c2.926,2.28,26.009,20.272,26.009,20.272
	l0.22-2.964l5.314,0.222l2.224,17.934l-17.934,2.224l-1.768-4.774l3.074-1.262l-27.572-20.496c0,0-3.307-1.793-6.474,2.271
	c-3.167,4.064,0.825,7.176,0.825,7.176l1.579,1.021c0,0,3.349,2.441,6.833-2.029l3.484-4.471"/>
<path fill="#191818" d="M289.75,405.353c-0.485-3.915-4.052-6.694-7.968-6.21c-3.914,0.485-6.695,4.053-6.209,7.969
	c0.485,3.914,4.052,6.694,7.967,6.209C287.455,412.835,290.234,409.268,289.75,405.353"/>
<path fill="#FFFFFF" d="M301.621,412.968l-4.588-3.409c0.109-0.19,0.217-0.383,0.325-0.577L301.621,412.968z"/>
<path fill="#191818" d="M300.637,414.291l-5.764-4.283l0.73-1.271c0.104-0.18,0.206-0.364,0.309-0.55l1.022-1.859l5.812,5.438
	L300.637,414.291z"/>
<polygon fill="#191818" points="296.958,409.894 295.29,408.389 295.42,408.229 297.168,409.53 "/>
<path fill="#191818" d="M283.039,411.721c-1.386,0-2.303-0.656-2.341-0.684l-1.575-1.019c-0.048-0.037-4.044-3.227-0.85-7.326
	c1.742-2.234,3.534-2.704,4.73-2.704c1.112,0,1.843,0.391,1.874,0.406l6.011,4.467l-3.216,4.126
	C286.258,410.802,284.699,411.721,283.039,411.721 M283.003,400.194c-1.15,0-2.876,0.455-4.568,2.625
	c-3.068,3.938,0.768,7.001,0.807,7.031l1.573,1.016c0.013,0.011,0.908,0.648,2.224,0.648c1.593,0,3.098-0.892,4.471-2.654
	l3.086-3.96l-5.83-4.332C284.764,400.568,284.054,400.194,283.003,400.194"/>
<path fill="#95D5CF" d="M275.352,417.217c-8.394-5.708-7.536-14.323-3.322-20.018c4.729-6.394,11.995-6.281,16.507-3.009
	c2.135,1.549,28.199,21.342,40.404,30.614l-17.849,2.213l-1.767-4.773l3.074-1.263l-10.779-8.014c0,0-10.547-8.513-10.879-8.087
	l-5.914-4.396c0,0-3.306-1.793-6.474,2.271c-3.167,4.064,0.825,7.176,0.825,7.176l1.579,1.021c0,0,3.349,2.44,6.833-2.029
	c1.892-2.428,2.756-3.536,3.151-4.043l4.616,3.432l1.574,1.419C290.633,420.585,282.351,421.976,275.352,417.217"/>
<path fill="#191818" d="M283.154,430.089c-1.286,0-2.588-0.125-3.904-0.375c-2.921-0.556-7.462-2.051-12.507-6.014
	c-5.835-4.585-14.231-18.74-2.944-33.222c4.13-5.3,9.018-8.244,14.529-8.754c9.347-0.878,17.086,5.633,17.795,6.248l23.543,18.35
	l0.109-1.484l8.305,0.348l2.6,20.956l-20.867,2.587l-2.771-7.491l1.847-0.759l-4.969-3.694c-0.942,1.201-3.272,4.166-3.64,4.589
	C295.284,427.124,289.426,430.089,283.154,430.089 M280.031,384.944c-0.47,0-0.943,0.021-1.423,0.065
	c-4.559,0.43-8.667,2.95-12.209,7.495c-10.727,13.765-0.851,26.063,2.382,28.603c14.152,11.117,24.248,3.584,29.008-1.896
	c0.283-0.326,2.466-3.1,3.481-4.394l-10.407-7.737l-2.159,2.771c-3.532,4.53-7.5,3.519-9.104,2.348l-1.623-1.052
	c-2.127-1.658-4.179-5.555-1.111-9.49c3.186-4.086,6.992-3.557,8.561-2.707l0.198,0.126l29.915,22.238l-4.302,1.764l0.761,2.057
	L327,423.275l-1.849-14.911l-2.323-0.099l-0.33,4.444l-28.519-22.229C293.915,390.422,287.594,384.944,280.031,384.944
	 M279.963,408.511l1.504,0.973c0.411,0.275,2.312,1.323,4.637-1.659l2.113-2.711l-4.431-3.294c-0.414-0.171-2.29-0.738-4.318,1.864
	C277.552,406.142,279.292,407.951,279.963,408.511"/>
<polyline fill="#FFFFFF" points="280.459,374.47 281.831,385.621 287.146,385.843 287.366,382.879 291.304,385.928 "/>
<polygon fill="#191818" points="288.673,387.557 280.365,387.209 278.822,374.671 282.097,374.269 283.298,384.032 285.619,384.129 
	285.948,379.697 292.313,384.624 290.294,387.232 288.783,386.062 "/>
<path fill="#191818" d="M325.258,363.974c7.449,0,13.512,4.529,15.438,6.042c4.38,3.442,13.816,16.603,2.663,30.912
	c-4.851,6.223-10.159,8.196-14.943,8.196c-0.511,0-1.017-0.022-1.516-0.065l1.94,15.65l-17.935,2.223l-1.767-4.773l3.074-1.263
	l-17.042-12.669l7.829,7.057c-0.392,0.502-3.572,4.555-3.966,5.01c-5.356,6.166-10.899,8.152-15.834,8.152
	c-7.45,0-13.512-4.528-15.438-6.042c-4.38-3.442-13.817-16.602-2.663-30.911c4.85-6.224,10.158-8.197,14.942-8.196
	c0.511,0,1.018,0.021,1.516,0.063l-1.94-15.648l17.934-2.224l1.767,4.774l-3.074,1.262l17.042,12.668l-7.829-7.055
	c0.392-0.502,3.572-4.556,3.967-5.01C314.779,365.961,320.322,363.974,325.258,363.974 M325.642,392.414
	c1.243,0,2.966-0.506,4.648-2.665c3.167-4.064-0.825-7.175-0.825-7.175l-1.578-1.022c0,0-0.913-0.665-2.281-0.665
	c-1.252,0-2.887,0.558-4.553,2.695c-1.892,2.427-2.754,3.535-3.15,4.042l5.914,4.396
	C323.816,392.02,324.543,392.414,325.642,392.414 M321.082,409.516l0.133-1.784c-4.666-1.759-7.83-4.557-7.83-4.557
	c-2.927-2.28-26.01-20.272-26.01-20.272l-0.133,1.785c4.667,1.759,7.83,4.557,7.83,4.557
	C297.998,391.524,321.082,409.516,321.082,409.516 M282.852,411.533c1.253,0,2.887-0.559,4.552-2.695
	c1.893-2.427,2.756-3.535,3.151-4.042l-5.914-4.396c0,0-0.727-0.394-1.824-0.394c-1.245,0-2.967,0.506-4.649,2.665
	c-3.168,4.063,0.824,7.175,0.824,7.175l1.58,1.022C280.571,410.868,281.483,411.533,282.852,411.533 M325.258,361.466
	c-6.567,0-12.532,3.033-17.729,9.017c-0.335,0.387-2.062,2.577-3.15,3.963l-3.077-2.286l1.209-0.497l-0.84-2.271l-1.767-4.773
	l-0.69-1.863l-1.971,0.244l-17.935,2.224l-2.489,0.308l0.309,2.49l1.588,12.812c-5.941,0.393-11.182,3.456-15.596,9.119
	c-11.685,14.991-2.963,29.668,3.092,34.426c5.478,4.303,11.352,6.578,16.988,6.578c6.567,0,12.531-3.033,17.728-9.018
	c0.33-0.38,2.059-2.576,3.149-3.963l3.077,2.287l-1.209,0.496l0.841,2.271l1.767,4.774l0.689,1.863l1.973-0.245l17.934-2.224
	l2.49-0.308l-0.31-2.49l-1.588-12.811c5.941-0.395,11.183-3.457,15.595-9.119c11.687-14.993,2.963-29.668-3.092-34.426
	C336.77,363.74,330.895,361.466,325.258,361.466 M321.459,387.142l1.573-2.018c0.614-0.789,1.56-1.729,2.573-1.729
	c0.414,0,0.732,0.154,0.832,0.208l0.087,0.072v-0.017l1.46,0.943c0.861,0.736,1.607,1.962,0.327,3.604
	c-0.878,1.127-1.777,1.699-2.67,1.699c-0.253,0-0.455-0.048-0.576-0.085L321.459,387.142z M280.474,407.816
	c-0.862-0.735-1.607-1.963-0.328-3.604c0.879-1.127,1.777-1.699,2.671-1.699c0.238,0,0.455,0.046,0.561,0.072l3.621,2.691
	l-1.573,2.019c-0.615,0.789-1.56,1.728-2.574,1.728c-0.44,0-0.8-0.182-0.802-0.183l-0.057-0.042l-0.059-0.038L280.474,407.816z"/>
<path fill="#1A1A19" d="M304.919,473.093c0,0-0.004-0.012-0.012-0.033c-0.194-0.528-3.011-7.319-20.954-14.34v16.474
	c11.415,7.014,20.568,9.112,20.568,9.112h0.797c0,0,9.152-2.099,20.568-9.112v-16.476
	C307.198,466.029,304.919,473.093,304.919,473.093"/>
<path fill="#1A1A19" d="M251.624,442.729v8.096c8.119,9.57,19.146,15.858,29.014,22.171v-16.513
	c-2.791-0.993-5.886-1.983-9.345-2.953C262.728,451.127,256.357,447.172,251.624,442.729"/>
<path fill="#1A1A19" d="M329.203,456.484v16.512c9.868-6.313,20.895-12.601,29.014-22.17v-8.098
	c-4.734,4.442-11.105,8.398-19.67,10.802C335.086,454.501,331.994,455.491,329.203,456.484"/>
<path fill="#010101" d="M229.807,439.958c0.916-0.017,1.783-0.026,2.638,0.015c-3.211-4.571-2.291-10.164-4.058-15.119l0.017-0.22
	c5.329,2.009,8.124,6.701,10.731,11.657c1.861,3.592,3.683,7.274,6.339,9.994c-1.109,0.08-2.153,0.229-3.234,0.388
	c-1.122,0.163-2.276,0.387-3.435,0.692c-2.306,0.135-4.581,0.238-6.733,0.167c-4.034-0.171-7.794-0.855-11.036-2.606
	c-1.502-0.798-2.902-1.849-4.131-3.16c0.949-0.154,1.992-0.343,3.028-0.524C223.196,440.687,226.63,440.116,229.807,439.958"/>
<path fill="#010101" d="M219.751,422.412c1.062,1.398,2.535,2.592,3.517,4.191c0.274,0.795,0.599,1.551,0.922,2.329
	c0.784,2.1,1.378,4.127,0.792,5.831c-2.665-1.042-5.366-2.282-7.722-4.482c-1.341-1.617-2.338-3.361-3.035-5.244
	c-1.11-2.955-1.454-6.195-1.076-9.59c0.008-0.114,0.033-0.178,0.024-0.252l0.3-0.285c0.113,0.264,0.263,0.539,0.409,0.824
	C215.31,418.332,217.396,420.211,219.751,422.412"/>
<path fill="#010101" d="M379.931,439.958c-0.916-0.017-1.783-0.026-2.638,0.015c3.211-4.571,2.289-10.164,4.058-15.119l-0.017-0.22
	c-5.329,2.009-8.125,6.701-10.731,11.657c-1.861,3.592-3.683,7.274-6.339,9.994c1.109,0.08,2.152,0.229,3.234,0.388
	c1.121,0.163,2.274,0.387,3.435,0.692c2.306,0.135,4.581,0.238,6.731,0.167c4.035-0.171,7.795-0.855,11.037-2.606
	c1.502-0.798,2.902-1.849,4.131-3.16c-0.948-0.154-1.991-0.343-3.027-0.524C386.539,440.687,383.106,440.116,379.931,439.958"/>
<path fill="#010101" d="M391.412,422.412c-1.063,1.398-2.535,2.592-3.518,4.191c-0.273,0.795-0.6,1.551-0.922,2.329
	c-0.784,2.1-1.378,4.127-0.792,5.831c2.665-1.042,5.366-2.282,7.721-4.482c1.341-1.617,2.338-3.361,3.035-5.244
	c1.111-2.955,1.454-6.195,1.076-9.59c-0.009-0.114-0.033-0.178-0.025-0.252l-0.3-0.285c-0.113,0.264-0.263,0.539-0.409,0.824
	C395.853,418.332,393.767,420.211,391.412,422.412"/>
</svg>
