<?xml version="1.0" encoding="utf-8"?>
<!-- Generator: Adobe Illustrator 16.0.0, SVG Export Plug-In . SVG Version: 6.00 Build 0)  -->
<!DOCTYPE svg PUBLIC "-//W3C//DTD SVG 1.1//EN" "http://www.w3.org/Graphics/SVG/1.1/DTD/svg11.dtd">
<svg version="1.1" id="Layer_1" xmlns="http://www.w3.org/2000/svg" xmlns:xlink="http://www.w3.org/1999/xlink" x="0px" y="0px"
	 width="240px" height="200px" viewBox="0 0 240 200" enable-background="new 0 0 240 200" xml:space="preserve">
<path fill="none" d="M53.764,2645.837"/>
<path fill="none" d="M53.764-599.76"/>
<path fill="#96D5CF" d="M117.43,50.238H52.266c0.001,0.09,0.003,0.177,0.003,0.267V120.7c0,0,2.697,27.413,32.361,35.733
	c28.68,8.047,32.573,17.464,32.8,18.08c0.008,0.021,0.012,0.033,0.012,0.033s3.146-9.791,32.811-18.113
	c29.665-8.32,32.362-35.733,32.362-35.733V50.543c0-0.014,0.001-0.025,0.001-0.038c0-0.09,0.002-0.177,0.002-0.267H117.43
	L117.43,50.238z"/>
<g opacity="0.5">
	<g>
		<g>
			<defs>
				<rect id="SVGID_1_" x="117.43" y="48.694" width="66.811" height="127.397"/>
			</defs>
			<clipPath id="SVGID_2_">
				<use xlink:href="#SVGID_1_"  overflow="visible"/>
			</clipPath>
			<path clip-path="url(#SVGID_2_)" fill="#189995" d="M151.068,157.53c30.4-8.529,33.166-36.624,33.166-36.624V49.005
				c0-0.013,0-0.024,0-0.039c0-0.092,0.002-0.181,0.004-0.271h-66.81V176.06c0.008,0.021,0.012,0.034,0.012,0.034
				S120.665,166.06,151.068,157.53"/>
		</g>
	</g>
</g>
<g opacity="0.4">
	<g>
		<g>
			<defs>
				<rect id="SVGID_3_" x="41.44" y="15.55" width="152.01" height="160.543"/>
			</defs>
			<clipPath id="SVGID_4_">
				<use xlink:href="#SVGID_3_"  overflow="visible"/>
			</clipPath>
			<path clip-path="url(#SVGID_4_)" fill="#FFFFFF" d="M175.443,29.348c-2.643,4.356-4.93,10.607-5.002,19.235l-0.002,0.031
				l-0.002,0.28v0.056v0.055v70.903c-0.261,1.438-1.205,5.666-3.914,10.225c-4.133,6.953-10.586,11.701-19.183,14.113
				c-13.944,3.912-23.452,8.354-29.929,12.659c-6.466-4.301-15.956-8.755-29.872-12.659c-8.597-2.412-15.051-7.16-19.184-14.113
				c-2.709-4.559-3.653-8.786-3.913-10.225V48.967l-0.003-0.375c-0.063-8.625-2.355-14.883-5.003-19.244h24.606h23.781h9.198h33.815
				H175.443 M183.415,15.551h-32.576h-33.815h-9.198H84.045H51.469L41.435,31.004c0,0,9.1,2.807,9.21,17.689
				c0.001,0.091,0.003,0.181,0.003,0.272v71.939c0,0,2.764,28.095,33.166,36.624c29.394,8.245,33.383,17.896,33.615,18.528
				c0.008,0.021,0.012,0.033,0.012,0.033s3.226-10.033,33.627-18.563c30.402-8.529,33.166-36.624,33.166-36.624V49.003
				c0-0.013,0.002-0.025,0.002-0.038c0-0.093,0.002-0.183,0.002-0.272c0.111-14.884,9.212-17.689,9.212-17.689L183.415,15.551z"/>
		</g>
	</g>
</g>
<path fill="#1A1A19" d="M193.448,31.004L183.414,15.55H150.84h-33.816h-9.198H84.045H51.47L41.436,31.004
	c0,0,9.099,2.807,9.21,17.69v7.523h133.593v-7.523C184.35,33.811,193.448,31.004,193.448,31.004"/>
<path fill="#191818" d="M178.871,23.916l3.395,5.226c-2.297,2.726-4.317,6.396-5.445,11.187H58.063
	c-1.128-4.789-3.148-8.46-5.444-11.187l3.392-5.226h28.033h23.781h9.198h33.815H178.871 M183.415,15.551h-32.576h-33.815h-9.198
	H84.045H51.469L41.435,31.004c0,0,9.1,2.807,9.21,17.689h133.594c0.11-14.884,9.211-17.689,9.211-17.689L183.415,15.551z"/>
<path fill="#191818" d="M178.871,23.916l3.395,5.227c-3.477,4.128-6.326,10.429-6.393,19.498l-0.002,0.06v0.038v0.022l-0.002,0.166
	v0.038v0.04v71.392c-0.395,2.727-4.039,22.62-27.061,29.079c-5.881,1.648-21.529,6.527-31.394,14.106
	c-5.686-4.468-15.251-9.594-31.342-14.106c-22.9-6.425-26.624-26.115-27.06-29.099v-71.41l-0.002-0.268l-0.001-0.068
	c-0.067-9.063-2.915-15.361-6.391-19.489l3.392-5.226h28.033h23.781h9.198h33.815H178.871 M183.415,15.551h-32.576h-33.815h-9.198
	H84.045H51.469L41.435,31.004c0,0,9.1,2.807,9.21,17.689c0.001,0.091,0.003,0.181,0.003,0.272v71.939
	c0,0,2.764,28.095,33.166,36.624c29.394,8.245,33.383,17.896,33.615,18.528c0.008,0.021,0.012,0.033,0.012,0.033
	s3.226-10.033,33.627-18.563c30.402-8.529,33.166-36.624,33.166-36.624V49.003c0-0.013,0.002-0.025,0.002-0.038
	c0-0.093,0.002-0.183,0.002-0.272c0.111-14.884,9.212-17.689,9.212-17.689L183.415,15.551z"/>
<path fill="#FFFFFF" d="M71.143,45.692v-4.275h-8.188v-3.372l7.044-12.434h5.178v12.253h2.017v3.553h-2.017v4.275H71.143z
	 M71.143,29.706l-4.546,8.158h4.546V29.706z"/>
<polygon fill="#FFFFFF" points="98.265,45.692 95.676,32.326 93.117,45.692 88.902,45.692 84.326,25.611 88.661,25.611 
	91.25,39.582 94.11,25.611 97.271,25.611 100.161,39.582 102.721,25.611 107.056,25.611 102.479,45.692 "/>
<polygon fill="#FFFFFF" points="109.01,45.692 109.01,25.611 120.51,25.611 120.51,29.165 113.043,29.165 113.043,33.711 
	120.299,33.711 120.299,37.263 113.043,37.263 113.043,42.14 120.51,42.14 120.51,45.692 "/>
<polygon fill="#FFFFFF" points="123.488,45.692 123.488,25.611 134.988,25.611 134.988,29.165 127.521,29.165 127.521,33.711 
	134.777,33.711 134.777,37.263 127.521,37.263 127.521,42.14 134.988,42.14 134.988,45.692 "/>
<polygon fill="#FFFFFF" points="148.052,45.692 143.416,37.835 142.001,40.063 142.001,45.692 137.967,45.692 137.967,25.611 
	142.001,25.611 142.001,34.733 147.66,25.611 152.357,25.611 145.945,35.064 152.809,45.692 "/>
<path fill="#FFFFFF" d="M153.318,43.464l1.986-3.101c1.113,1.233,2.859,2.138,4.848,2.138c1.774,0,2.738-0.994,2.738-2.228
	c0-3.522-8.972-2.318-8.972-9.122c0-3.162,2.47-5.871,6.623-5.871c2.438,0,4.546,0.784,6.082,2.228l-1.927,3.012
	c-1.204-1.145-2.74-1.687-4.307-1.687c-1.443,0-2.348,0.813-2.348,2.047c0,3.131,8.941,2.288,8.941,9.063
	c0,3.521-2.409,6.11-6.805,6.11C157.141,46.054,154.914,45.061,153.318,43.464"/>
<path fill="#FFFFFF" d="M118.744,84.137c0.391-0.502,3.572-4.556,3.966-5.01c13.438-15.473,31.015-1.697,30.063-2.439
	c10.289,8.021,12.461,20.223,3.871,31.24c-13.27,17.026-30.961,1.478-29.974,2.247c-2.926-2.28-26.01-20.271-26.01-20.271
	l-0.219,2.966l-5.315-0.225l-2.223-17.934l17.934-2.224l1.767,4.773l-3.074,1.263l27.573,20.495c0,0,3.306,1.793,6.474-2.271
	c3.167-4.064-0.825-7.175-0.825-7.175l-1.58-1.022c0,0-3.348-2.44-6.832,2.03l-3.482,4.47"/>
<path fill="#191818" d="M131.994,94.066c0.484,3.915,4.052,6.694,7.968,6.21c3.915-0.485,6.695-4.054,6.209-7.969
	c-0.483-3.915-4.052-6.694-7.967-6.21C134.289,86.583,131.51,90.151,131.994,94.066"/>
<path fill="#FFFFFF" d="M120.124,86.451l4.587,3.41c-0.107,0.188-0.217,0.382-0.324,0.576L120.124,86.451z"/>
<path fill="#191818" d="M124.811,93.09l-5.813-5.435l2.109-2.527l5.762,4.283l-0.727,1.269c-0.104,0.183-0.209,0.365-0.312,0.555
	L124.811,93.09z"/>
<polygon fill="#191818" points="126.324,91.188 124.575,89.89 124.787,89.526 126.454,91.029 "/>
<path fill="#191818" d="M138.74,99.431c-1.111,0-1.844-0.39-1.873-0.405l-6.012-4.469l0.064-0.083
	c0.396-0.507,1.26-1.613,3.15-4.042c1.414-1.813,2.974-2.732,4.634-2.732c1.386,0,2.303,0.656,2.341,0.685l1.575,1.019
	c0.049,0.038,1.03,0.813,1.638,2.105c0.561,1.199,0.881,3.078-0.787,5.219C141.729,98.961,139.938,99.431,138.74,99.431
	 M136.979,98.851c0.002,0,0.711,0.374,1.763,0.374c1.149,0,2.877-0.456,4.567-2.626c1.289-1.65,1.545-3.336,0.765-5.004
	c-0.587-1.249-1.562-2.018-1.57-2.025l-1.571-1.017c-0.015-0.01-0.91-0.647-2.226-0.647c-1.595,0-3.099,0.893-4.472,2.653
	c-1.795,2.305-2.664,3.418-3.086,3.959L136.979,98.851z"/>
<path fill="#96D5CF" d="M146.393,82.202c8.395,5.708,7.535,14.323,3.321,20.018c-4.729,6.395-11.995,6.281-16.507,3.011
	c-2.135-1.551-28.199-21.344-40.405-30.615l17.849-2.213l1.767,4.772l-3.074,1.265l10.78,8.013c0,0,10.546,8.513,10.878,8.087
	l5.914,4.396c0,0,3.307,1.794,6.475-2.271c3.166-4.063-0.826-7.176-0.826-7.176l-1.578-1.021c0,0-3.35-2.439-6.832,2.029
	c-1.894,2.428-2.758,3.536-3.151,4.043l-4.616-3.432l-1.572-1.418C131.111,78.834,139.393,77.443,146.393,82.202"/>
<path fill="#191818" d="M141.689,117.773c-8.563,0.001-15.404-5.75-16.068-6.326l-23.542-18.352l-0.11,1.484l-8.305-0.347
	l-2.599-20.957l20.867-2.587l2.772,7.49l-1.848,0.76l4.97,3.693c0.941-1.2,3.271-4.166,3.64-4.589
	c6.019-6.93,13.288-9.813,21.028-8.341c2.922,0.556,7.465,2.051,12.507,6.015c5.835,4.585,14.231,18.739,2.942,33.223
	c-4.129,5.3-9.018,8.243-14.527,8.754C142.835,117.749,142.259,117.773,141.689,117.773 M99.246,86.708l28.52,22.231
	c0.068,0.061,7.196,6.228,15.369,5.471c4.559-0.43,8.667-2.951,12.211-7.496c10.727-13.764,0.85-26.063-2.383-28.602
	c-14.15-11.124-24.248-3.588-29.008,1.896c-0.283,0.327-2.469,3.101-3.48,4.395l10.405,7.736l2.161-2.771
	c3.53-4.532,7.5-3.52,9.104-2.35l1.623,1.054c0.133,0.104,1.33,1.066,2.078,2.665c1.053,2.248,0.711,4.672-0.968,6.823
	c-3.187,4.086-6.991,3.56-8.562,2.707l-0.197-0.126l-29.913-22.235l4.3-1.768l-0.761-2.055l-15.002,1.858l1.848,14.911l2.324,0.1
	L99.246,86.708z M137.959,97.601c0.414,0.173,2.291,0.736,4.316-1.865c1.916-2.457,0.176-4.268-0.494-4.825l-1.504-0.973
	c-0.408-0.275-2.313-1.324-4.637,1.657l-2.113,2.712L137.959,97.601z"/>
<path fill="#FFFFFF" d="M116.287,122.282c-0.392,0.502-3.572,4.557-3.966,5.01c-13.438,15.473-31.014,1.697-30.062,2.439
	c-10.29-8.021-12.461-20.222-3.873-31.24c13.27-17.025,30.963-1.478,29.974-2.247c2.926,2.28,26.009,20.271,26.009,20.271
	l0.22-2.964l5.313,0.223l2.225,17.934l-17.936,2.224l-1.767-4.773l3.074-1.262L97.927,107.4c0,0-3.307-1.793-6.474,2.271
	c-3.167,4.064,0.825,7.176,0.825,7.176l1.579,1.021c0,0,3.35,2.44,6.833-2.029l3.484-4.471"/>
<path fill="#191818" d="M141.689,117.773c-8.563,0.001-15.404-5.75-16.068-6.326l-23.542-18.352l-0.11,1.484l-8.305-0.347
	l-2.599-20.957l20.867-2.587l2.772,7.49l-1.848,0.76l4.97,3.693c0.941-1.2,3.271-4.166,3.64-4.589
	c6.019-6.93,13.288-9.813,21.028-8.341c2.922,0.556,7.465,2.051,12.507,6.015c5.835,4.585,14.231,18.739,2.942,33.223
	c-4.129,5.3-9.018,8.243-14.527,8.754C142.835,117.749,142.259,117.773,141.689,117.773 M99.246,86.708l28.52,22.231
	c0.068,0.061,7.196,6.228,15.369,5.471c4.559-0.43,8.667-2.951,12.211-7.496c10.727-13.764,0.85-26.063-2.383-28.602
	c-14.15-11.124-24.248-3.588-29.008,1.896c-0.283,0.327-2.469,3.101-3.48,4.395l10.405,7.736l2.161-2.771
	c3.53-4.532,7.5-3.52,9.104-2.35l1.623,1.054c0.133,0.104,1.33,1.066,2.078,2.665c1.053,2.248,0.711,4.672-0.968,6.823
	c-3.187,4.086-6.991,3.56-8.562,2.707l-0.197-0.126l-29.913-22.235l4.3-1.768l-0.761-2.055l-15.002,1.858l1.848,14.911l2.324,0.1
	L99.246,86.708z M137.959,97.601c0.414,0.173,2.291,0.736,4.316-1.865c1.916-2.457,0.176-4.268-0.494-4.825l-1.504-0.973
	c-0.408-0.275-2.313-1.324-4.637,1.657l-2.113,2.712L137.959,97.601z"/>
<path fill="#FFFFFF" d="M116.287,122.282c-0.392,0.502-3.572,4.557-3.966,5.01c-13.438,15.473-31.014,1.697-30.062,2.439
	c-10.29-8.021-12.461-20.222-3.873-31.24c13.27-17.025,30.963-1.478,29.974-2.247c2.926,2.28,26.009,20.271,26.009,20.271
	l0.22-2.964l5.313,0.223l2.225,17.934l-17.936,2.224l-1.767-4.773l3.074-1.262L97.927,107.4c0,0-3.307-1.793-6.474,2.271
	c-3.167,4.064,0.825,7.176,0.825,7.176l1.579,1.021c0,0,3.35,2.44,6.833-2.029l3.484-4.471"/>
<path fill="#191818" d="M103.037,112.353c-0.485-3.915-4.052-6.693-7.968-6.21c-3.914,0.485-6.695,4.054-6.209,7.97
	c0.485,3.914,4.052,6.693,7.967,6.209C100.741,119.835,103.521,116.268,103.037,112.353"/>
<path fill="#FFFFFF" d="M114.907,119.968l-4.588-3.409c0.109-0.189,0.217-0.383,0.325-0.576L114.907,119.968z"/>
<path fill="#191818" d="M113.924,121.291l-5.762-4.282l0.727-1.271c0.104-0.181,0.208-0.365,0.311-0.553l1.022-1.858l5.812,5.438
	L113.924,121.291z"/>
<polygon fill="#191818" points="110.245,116.894 108.577,115.389 108.707,115.229 110.455,116.53 "/>
<path fill="#191818" d="M96.325,118.721c-1.385,0-2.302-0.655-2.34-0.684l-1.575-1.02c-0.048-0.036-4.044-3.227-0.85-7.325
	c1.742-2.234,3.534-2.704,4.73-2.704c1.112,0,1.843,0.391,1.874,0.405l6.01,4.468l-3.215,4.126
	C99.545,117.802,97.986,118.721,96.325,118.721 M96.29,107.194c-1.15,0-2.876,0.455-4.568,2.625
	c-3.066,3.936,0.648,6.905,0.807,7.03l1.573,1.017c0.013,0.011,0.908,0.647,2.223,0.647c1.594,0,3.098-0.892,4.472-2.653l3.085-3.96
	l-5.829-4.332C98.051,107.568,97.341,107.194,96.29,107.194"/>
<path fill="#96D5CF" d="M88.639,124.217c-8.394-5.708-7.536-14.323-3.322-20.018c4.73-6.395,11.995-6.281,16.507-3.009
	c2.135,1.549,28.199,21.342,40.404,30.613l-17.849,2.213l-1.767-4.772l3.074-1.263l-10.78-8.015c0,0-10.547-8.513-10.879-8.087
	l-5.914-4.396c0,0-3.306-1.793-6.474,2.271c-3.167,4.064,0.825,7.176,0.825,7.176l1.58,1.021c0,0,3.348,2.439,6.832-2.029
	c1.892-2.428,2.756-3.536,3.151-4.043l4.616,3.433l1.574,1.419C103.92,127.585,95.638,128.976,88.639,124.217"/>
<path fill="#191818" d="M96.44,137.089c-1.285,0-2.587-0.125-3.903-0.375c-2.921-0.556-7.462-2.051-12.507-6.014
	c-5.836-4.585-14.232-18.74-2.944-33.223c4.13-5.3,9.018-8.243,14.527-8.754c9.348-0.865,17.087,5.636,17.796,6.248l23.543,18.351
	l0.108-1.484l8.306,0.348l2.599,20.956l-20.865,2.587l-2.771-7.49l1.847-0.76l-4.969-3.693c-0.941,1.2-3.268,4.161-3.64,4.589
	C108.571,134.124,102.713,137.089,96.44,137.089 M93.318,91.944c-0.47,0-0.943,0.021-1.423,0.064
	c-4.559,0.431-8.667,2.95-12.209,7.495c-10.728,13.765-0.851,26.063,2.381,28.604c14.151,11.116,24.249,3.584,29.009-1.896
	c0.286-0.33,2.467-3.101,3.481-4.394l-10.407-7.737l-2.16,2.771c-3.531,4.531-7.498,3.521-9.104,2.349l-1.622-1.053
	c-2.127-1.657-4.179-5.555-1.112-9.489c3.186-4.086,6.994-3.558,8.562-2.707l0.198,0.126l29.915,22.235l-4.302,1.767l0.761,2.057
	l15.002-1.858l-1.849-14.911l-2.323-0.1l-0.33,4.444L107.267,97.48C107.202,97.422,100.881,91.944,93.318,91.944 M93.25,115.511
	l1.504,0.974c0.409,0.274,2.311,1.322,4.637-1.659l2.113-2.711l-4.431-3.294c-0.415-0.171-2.29-0.738-4.319,1.863
	C90.839,113.142,92.58,114.951,93.25,115.511"/>
<polyline fill="#FFFFFF" points="93.746,81.47 95.118,92.621 100.433,92.843 100.653,89.879 104.59,92.928 "/>
<polygon fill="#191818" points="101.96,94.557 93.652,94.209 92.109,81.671 95.383,81.269 96.585,91.032 98.906,91.129 
	99.235,86.697 105.6,91.624 103.581,94.232 102.07,93.063 "/>
<path fill="#191818" d="M138.544,70.974c7.45,0,13.513,4.529,15.438,6.042c4.379,3.442,13.814,16.604,2.662,30.912
	c-4.851,6.224-10.158,8.196-14.942,8.196c-0.511,0-1.017-0.022-1.517-0.065l1.939,15.65l-17.934,2.223l-1.768-4.772l3.074-1.264
	l-17.042-12.669l7.829,7.058c-0.392,0.502-3.572,4.555-3.966,5.01c-5.356,6.166-10.899,8.152-15.834,8.152
	c-7.45,0-13.512-4.528-15.438-6.042c-4.38-3.442-13.816-16.603-2.663-30.911c4.85-6.225,10.158-8.197,14.943-8.196
	c0.511,0,1.017,0.021,1.515,0.063l-1.94-15.648l17.934-2.224l1.768,4.773l-3.074,1.262l17.042,12.669l-7.829-7.056
	c0.391-0.502,3.571-4.556,3.966-5.01C128.066,72.961,133.609,70.974,138.544,70.974 M138.928,99.414
	c1.244,0,2.967-0.506,4.649-2.665c3.167-4.064-0.825-7.175-0.825-7.175l-1.579-1.022c0,0-0.913-0.665-2.28-0.665
	c-1.252,0-2.888,0.559-4.553,2.695c-1.893,2.427-2.755,3.535-3.15,4.042l5.914,4.396C137.104,99.02,137.83,99.414,138.928,99.414
	 M134.369,116.516l0.132-1.783c-4.666-1.76-7.83-4.558-7.83-4.558c-2.926-2.28-26.009-20.271-26.009-20.271l-0.133,1.784
	c4.667,1.76,7.83,4.558,7.83,4.558C111.285,98.524,134.369,116.516,134.369,116.516 M96.138,118.533c1.253,0,2.887-0.56,4.552-2.695
	c1.893-2.427,2.756-3.535,3.15-4.042l-5.914-4.396c0,0-0.726-0.395-1.824-0.395c-1.245,0-2.967,0.506-4.649,2.665
	c-3.168,4.063,0.824,7.175,0.824,7.175l1.58,1.022C93.858,117.868,94.77,118.533,96.138,118.533 M138.544,68.466
	c-6.567,0-12.532,3.033-17.728,9.018c-0.336,0.387-2.063,2.576-3.15,3.963l-3.077-2.286l1.209-0.497l-0.84-2.271l-1.767-4.772
	l-0.69-1.863L110.53,70l-17.935,2.224l-2.489,0.309l0.309,2.489l1.588,12.813c-5.941,0.393-11.182,3.456-15.596,9.119
	c-11.685,14.991-2.963,29.668,3.092,34.426c5.477,4.303,11.351,6.578,16.988,6.578c6.567,0,12.531-3.033,17.728-9.018
	c0.329-0.381,2.06-2.576,3.149-3.964l3.077,2.287l-1.209,0.496l0.841,2.271l1.767,4.773l0.689,1.863l1.972-0.245l17.935-2.224
	l2.489-0.309l-0.309-2.489l-1.589-12.812c5.94-0.395,11.183-3.457,15.596-9.119c11.686-14.993,2.963-29.668-3.092-34.426
	C150.057,70.74,144.182,68.466,138.544,68.466 M134.746,94.142l1.572-2.018c0.615-0.789,1.56-1.729,2.574-1.729
	c0.414,0,0.731,0.154,0.832,0.208l0.086,0.072v-0.017l1.461,0.942c0.86,0.736,1.605,1.962,0.326,3.604
	c-0.878,1.127-1.777,1.699-2.671,1.699c-0.237,0-0.454-0.047-0.562-0.073L134.746,94.142z M93.76,114.816
	c-0.862-0.735-1.607-1.964-0.328-3.604c0.879-1.127,1.777-1.699,2.671-1.699c0.238,0,0.455,0.046,0.561,0.072l3.621,2.691
	l-1.573,2.019c-0.614,0.789-1.56,1.729-2.574,1.729c-0.414,0-0.733-0.153-0.831-0.208l-0.087-0.071v0.017L93.76,114.816z"/>
<path fill="#1A1A19" d="M117.441,180.093c0,0-0.004-0.012-0.013-0.033c-0.193-0.527-3.012-7.318-20.954-14.34v16.475
	c11.415,7.014,20.568,9.111,20.568,9.111h0.797c0,0,9.153-2.099,20.568-9.111v-16.477
	C119.721,173.029,117.441,180.093,117.441,180.093"/>
<path fill="#1A1A19" d="M64.146,149.729v8.097c8.119,9.569,19.146,15.857,29.014,22.171v-16.513
	c-2.791-0.993-5.886-1.983-9.345-2.953C75.249,158.127,68.879,154.172,64.146,149.729"/>
<path fill="#1A1A19" d="M141.725,163.484v16.512c9.869-6.313,20.896-12.602,29.015-22.17v-8.099
	c-4.734,4.442-11.105,8.398-19.671,10.803C147.607,161.501,144.518,162.491,141.725,163.484"/>
<path fill="#020202" d="M210.082,88.021c0.146,1.75-0.151,3.622,0.188,5.468c0.328,0.773,0.593,1.555,0.873,2.35
	c0.818,2.085,1.734,3.99,3.31,4.866c1.285-2.559,2.464-5.286,2.744-8.497c-0.084-2.1-0.509-4.063-1.249-5.929
	c-1.149-2.939-3.062-5.579-5.612-7.851c-0.082-0.08-0.144-0.11-0.187-0.171l-0.414-0.012c0.092,0.271,0.165,0.576,0.246,0.886
	C210.657,82.018,210.362,84.81,210.082,88.021"/>
<path fill="#020202" d="M210.281,105.8c-1.817-3.576-5.514-6.851-6.381-10.245l-0.529-0.223c-1.338,3.336-1.194,7.327-0.17,10.951
	c1.107,4.704,3.424,8.369,4.508,12.994c0.193,0.89,0.354,1.773,0.459,2.741c6.955-5.049,13.369-10.809,15.182-19.896l-12.192,6.129
	C210.992,107.404,210.664,106.565,210.281,105.8"/>
<path fill="#020202" d="M190.678,146.958c-0.916-0.017-1.783-0.026-2.638,0.015c3.211-4.57,2.291-10.164,4.058-15.118l-0.017-0.221
	c-5.329,2.009-8.124,6.701-10.731,11.657c-1.859,3.592-3.683,7.274-6.338,9.994c1.108,0.08,2.152,0.229,3.233,0.388
	c1.122,0.163,2.274,0.387,3.435,0.692c2.308,0.135,4.582,0.238,6.732,0.167c4.035-0.171,7.795-0.855,11.037-2.606
	c1.502-0.798,2.902-1.849,4.131-3.16c-0.949-0.153-1.992-0.343-3.027-0.523C197.287,147.688,193.854,147.116,190.678,146.958"/>
<path fill="#020202" d="M203.678,131.385c-1.494-5.036-4.273-10.122-3.865-15.642l-0.142-0.219l-0.374,0.165
	c-0.045,0.035-0.097,0.107-0.102,0.145c-0.291,0.5-0.6,0.785-1.135,1.3c-3.807,6.707-3.23,14.78-1.276,21.92
	c0.321,1.177,0.653,2.295,1.063,3.425c3.422-2.676,7.644-3.358,11.441-5.306c0.341-0.207,0.676-0.37,1.029-0.582
	c3.658-2.642,5.886-7.007,6.841-11.184c-2.373,0.757-4.7,1.368-6.876,2.187C207.939,128.439,205.676,129.582,203.678,131.385"/>
<path fill="#020202" d="M24.878,88.15c-0.24,1.739-0.044,3.626-0.482,5.449c-0.369,0.756-0.674,1.521-0.997,2.3
	c-0.931,2.036-1.947,3.89-3.568,4.68c-1.145-2.622-2.174-5.411-2.281-8.632c0.197-2.091,0.726-4.029,1.567-5.854
	c1.306-2.873,3.357-5.405,6.027-7.536c0.086-0.074,0.148-0.104,0.195-0.16l0.415,0.011c-0.108,0.268-0.196,0.566-0.295,0.872
	C24.628,82.125,24.771,84.929,24.878,88.15"/>
<path fill="#020202" d="M24.603,105.8c1.817-3.576,5.512-6.851,6.379-10.245l0.532-0.223c1.337,3.336,1.193,7.327,0.168,10.951
	c-1.108,4.704-3.423,8.369-4.507,12.994c-0.194,0.89-0.354,1.773-0.459,2.741c-6.956-5.049-13.369-10.809-15.182-19.896
	l12.194,6.129C23.891,107.404,24.22,106.565,24.603,105.8"/>
<path fill="#020202" d="M44.205,146.958c0.916-0.017,1.783-0.026,2.638,0.015c-3.211-4.57-2.291-10.164-4.058-15.118l0.017-0.221
	c5.329,2.009,8.124,6.701,10.731,11.657c1.861,3.592,3.683,7.274,6.339,9.994c-1.109,0.08-2.153,0.229-3.234,0.388
	c-1.122,0.163-2.275,0.387-3.435,0.692c-2.306,0.135-4.581,0.238-6.732,0.167c-4.035-0.171-7.795-0.855-11.037-2.606
	c-1.502-0.798-2.902-1.849-4.131-3.16c0.949-0.153,1.992-0.343,3.028-0.523C37.596,147.688,41.029,147.116,44.205,146.958"/>
<path fill="#020202" d="M31.205,131.385c1.494-5.036,4.274-10.122,3.865-15.642l0.142-0.219l0.374,0.165
	c0.045,0.035,0.097,0.107,0.102,0.145c0.292,0.5,0.601,0.785,1.136,1.3c3.805,6.707,3.23,14.78,1.276,21.92
	c-0.321,1.177-0.654,2.295-1.063,3.425c-3.423-2.676-7.644-3.358-11.443-5.306c-0.341-0.207-0.676-0.37-1.029-0.582
	c-3.66-2.642-5.886-7.007-6.841-11.184c2.373,0.757,4.7,1.368,6.876,2.187C26.944,128.439,29.207,129.582,31.205,131.385"/>
</svg>
