<?xml version="1.0" encoding="utf-8"?>
<!-- Generator: Adobe Illustrator 16.0.0, SVG Export Plug-In . SVG Version: 6.00 Build 0)  -->
<!DOCTYPE svg PUBLIC "-//W3C//DTD SVG 1.1//EN" "http://www.w3.org/Graphics/SVG/1.1/DTD/svg11.dtd">
<svg version="1.1" id="Layer_1" xmlns="http://www.w3.org/2000/svg" xmlns:xlink="http://www.w3.org/1999/xlink" x="0px" y="0px"
	 width="240px" height="200px" viewBox="0 0 240 200" enable-background="new 0 0 240 200" xml:space="preserve">
<path fill="none" d="M53.764,2645.837"/>
<path fill="none" d="M53.764-599.76"/>
<path fill="#96D5CF" d="M117.859,50.649H53.126c0.001,0.088,0.003,0.175,0.003,0.264v69.731c0,0,2.679,27.231,32.148,35.499
	c28.489,7.992,32.356,17.349,32.582,17.962c0.008,0.021,0.012,0.03,0.012,0.03s3.125-9.726,32.595-17.992
	c29.47-8.268,32.147-35.499,32.147-35.499V50.951c0-0.014,0.002-0.025,0.002-0.038c0-0.089,0.002-0.176,0.002-0.264H117.859z"/>
<g opacity="0.5">
	<g>
		<g>
			<defs>
				<rect id="SVGID_1_" x="117.859" y="48.694" width="66.811" height="127.397"/>
			</defs>
			<clipPath id="SVGID_2_">
				<use xlink:href="#SVGID_1_"  overflow="visible"/>
			</clipPath>
			<path clip-path="url(#SVGID_2_)" fill="#189995" d="M151.498,157.53c30.402-8.529,33.167-36.624,33.167-36.624V49.005
				c0-0.013,0.001-0.024,0.001-0.039c0-0.092,0.002-0.181,0.002-0.271h-66.809V176.06c0.008,0.021,0.012,0.034,0.012,0.034
				S121.096,166.06,151.498,157.53"/>
		</g>
	</g>
</g>
<g opacity="0.4">
	<g>
		<g>
			<defs>
				<rect id="SVGID_3_" x="41.87" y="15.55" width="152.01" height="160.543"/>
			</defs>
			<clipPath id="SVGID_4_">
				<use xlink:href="#SVGID_3_"  overflow="visible"/>
			</clipPath>
			<path clip-path="url(#SVGID_4_)" fill="#FFFFFF" d="M175.875,29.348c-2.643,4.354-4.93,10.603-5.004,19.223v0.031l-0.004,0.295
				v0.055v0.055v70.903c-0.26,1.438-1.203,5.666-3.912,10.225c-4.133,6.953-10.588,11.701-19.184,14.113
				c-13.943,3.912-23.453,8.354-29.931,12.659c-6.465-4.301-15.953-8.755-29.871-12.659c-8.596-2.412-15.05-7.16-19.184-14.113
				c-2.709-4.559-3.652-8.786-3.912-10.225V48.968l-0.004-0.375c-0.063-8.625-2.354-14.883-5.002-19.244h24.605h23.781h9.197h33.814
				L175.875,29.348 M183.846,15.551H151.27h-33.815h-9.197H84.476H51.9L41.867,31.004c0,0,9.099,2.807,9.21,17.689
				c0,0.091,0.002,0.181,0.002,0.272v71.939c0,0,2.764,28.095,33.166,36.624c29.393,8.245,33.383,17.896,33.615,18.528
				c0.008,0.021,0.012,0.033,0.012,0.033s3.226-10.033,33.627-18.563c30.401-8.53,33.166-36.624,33.166-36.624V49.003
				c0-0.013,0.002-0.025,0.002-0.038c0-0.093,0.002-0.183,0.002-0.272c0.11-14.884,9.211-17.689,9.211-17.689L183.846,15.551z"/>
		</g>
	</g>
</g>
<path fill="#1A1A19" d="M193.879,31.004L183.846,15.55H151.27h-33.815h-9.197H84.476H51.9L41.866,31.004c0,0,9.1,2.807,9.211,17.69
	v7.523h133.592v-7.523C184.779,33.811,193.879,31.004,193.879,31.004"/>
<path fill="#191818" d="M179.301,23.916l3.395,5.226c-2.297,2.727-4.317,6.396-5.444,11.187H58.494
	c-1.129-4.789-3.149-8.461-5.444-11.187l3.392-5.226h28.033h23.781h9.197h33.814H179.301 M183.846,15.551H151.27h-33.815h-9.197
	H84.476H51.9L41.867,31.004c0,0,9.099,2.807,9.21,17.689h133.592c0.11-14.884,9.211-17.689,9.211-17.689L183.846,15.551z"/>
<path fill="#191818" d="M179.301,23.916l3.395,5.227c-3.477,4.128-6.325,10.429-6.393,19.498l-0.002,0.058v0.039v0.023l-0.002,0.166
	v0.038v0.04v71.392c-0.395,2.727-4.039,22.62-27.061,29.079c-5.879,1.648-21.529,6.527-31.394,14.106
	c-5.686-4.468-15.25-9.593-31.342-14.106c-22.9-6.425-26.624-26.115-27.061-29.099v-71.41l-0.002-0.268v-0.068
	c-0.068-9.063-2.916-15.361-6.392-19.489l3.392-5.226h28.033h23.781h9.197h33.814H179.301 M183.846,15.551H151.27h-33.815h-9.197
	H84.476H51.9L41.867,31.004c0,0,9.099,2.807,9.21,17.689c0,0.091,0.002,0.181,0.002,0.272v71.939c0,0,2.764,28.095,33.166,36.624
	c29.393,8.245,33.383,17.896,33.615,18.528c0.008,0.021,0.012,0.033,0.012,0.033s3.226-10.033,33.627-18.563
	c30.401-8.53,33.166-36.624,33.166-36.624V49.003c0-0.013,0.002-0.025,0.002-0.038c0-0.093,0.002-0.183,0.002-0.272
	c0.11-14.884,9.211-17.689,9.211-17.689L183.846,15.551z"/>
<path fill="#FFFFFF" d="M63.731,42.892l2.438-2.589c1.054,1.386,2.47,2.168,4.185,2.168c1.928,0,3.041-1.475,3.041-3.161
	c0-1.985-1.054-3.16-2.859-3.16c-1.355,0-2.379,0.48-3.313,1.654l-2.92-0.782V25.612h12.042v3.553h-8.008v5.146
	c0.783-0.963,2.138-1.653,3.673-1.653c3.04,0,5.479,2.378,5.479,6.531c0,4.034-2.738,6.864-7.014,6.864
	C67.374,46.054,65.236,44.91,63.731,42.892"/>
<polygon fill="#FFFFFF" points="98.891,45.692 96.301,32.326 93.742,45.692 89.527,45.692 84.951,25.611 89.287,25.611 
	91.875,39.582 94.736,25.611 97.896,25.611 100.787,39.582 103.346,25.611 107.682,25.611 103.105,45.692 "/>
<polygon fill="#FFFFFF" points="109.635,45.692 109.635,25.611 121.135,25.611 121.135,29.165 113.669,29.165 113.669,33.711 
	120.925,33.711 120.925,37.263 113.669,37.263 113.669,42.14 121.135,42.14 121.135,45.692 "/>
<polygon fill="#FFFFFF" points="124.113,45.692 124.113,25.611 135.613,25.611 135.613,29.165 128.146,29.165 128.146,33.711 
	135.402,33.711 135.402,37.263 128.146,37.263 128.146,42.14 135.613,42.14 135.613,45.692 "/>
<polygon fill="#FFFFFF" points="148.678,45.692 144.041,37.835 142.627,40.063 142.627,45.692 138.592,45.692 138.592,25.611 
	142.627,25.611 142.627,34.733 148.287,25.611 152.982,25.611 146.57,35.064 153.434,45.692 "/>
<path fill="#FFFFFF" d="M153.943,43.464l1.986-3.101c1.114,1.233,2.86,2.138,4.848,2.138c1.775,0,2.738-0.994,2.738-2.228
	c0-3.522-8.97-2.318-8.97-9.122c0-3.162,2.468-5.871,6.623-5.871c2.438,0,4.545,0.784,6.08,2.228l-1.927,3.012
	c-1.204-1.145-2.739-1.687-4.305-1.687c-1.445,0-2.35,0.813-2.35,2.047c0,3.131,8.941,2.288,8.941,9.063
	c0,3.521-2.408,6.11-6.805,6.11C157.768,46.054,155.539,45.061,153.943,43.464"/>
<path fill="#FFFFFF" d="M119.174,84.137c0.393-0.502,3.572-4.556,3.967-5.01c13.438-15.473,31.015-1.697,30.063-2.439
	c10.289,8.021,12.461,20.223,3.873,31.24c-13.271,17.026-30.963,1.478-29.975,2.247c-2.926-2.28-26.01-20.271-26.01-20.271
	l-0.22,2.966l-5.313-0.225l-2.225-17.934l17.934-2.224l1.768,4.773l-3.074,1.263l27.572,20.495c0,0,3.307,1.793,6.474-2.271
	c3.167-4.064-0.824-7.175-0.824-7.175l-1.578-1.022c0,0-3.35-2.44-6.834,2.03l-3.483,4.47"/>
<path fill="#191818" d="M132.425,94.066c0.485,3.915,4.052,6.694,7.968,6.21c3.914-0.485,6.695-4.054,6.209-7.969
	c-0.483-3.915-4.052-6.694-7.968-6.21C134.721,86.584,131.939,90.151,132.425,94.066"/>
<path fill="#FFFFFF" d="M120.555,86.451l4.588,3.41c-0.109,0.188-0.219,0.382-0.326,0.576L120.555,86.451z"/>
<path fill="#191818" d="M125.24,93.09l-5.813-5.435l2.109-2.527l5.762,4.283l-0.728,1.269c-0.104,0.183-0.206,0.365-0.311,0.555
	L125.24,93.09z"/>
<polygon fill="#191818" points="126.754,91.188 125.006,89.89 125.217,89.526 126.885,91.029 "/>
<path fill="#191818" d="M139.17,99.431c-1.111,0-1.842-0.39-1.873-0.405l-6.012-4.469l0.064-0.083
	c0.396-0.507,1.26-1.613,3.151-4.042c1.414-1.813,2.974-2.732,4.633-2.732c1.386,0,2.304,0.656,2.341,0.685l1.575,1.019
	c0.05,0.038,1.031,0.813,1.638,2.105c0.563,1.199,0.881,3.078-0.787,5.219C142.158,98.961,140.367,99.431,139.17,99.431
	 M137.408,98.851c0.002,0,0.711,0.374,1.762,0.374c1.15,0,2.877-0.456,4.568-2.626c1.287-1.65,1.545-3.336,0.764-5.004
	c-0.586-1.249-1.561-2.018-1.57-2.025l-1.572-1.017c-0.014-0.01-0.907-0.647-2.225-0.647c-1.594,0-3.098,0.893-4.471,2.653
	c-1.795,2.305-2.664,3.418-3.086,3.959L137.408,98.851z"/>
<path fill="#96D5CF" d="M146.822,82.202c8.394,5.708,7.535,14.323,3.322,20.018c-4.731,6.395-11.996,6.281-16.509,3.011
	c-2.135-1.551-28.199-21.344-40.404-30.615l17.849-2.213l1.767,4.772l-3.074,1.265l10.779,8.013c0,0,10.547,8.513,10.879,8.087
	l5.914,4.396c0,0,3.307,1.794,6.475-2.271c3.168-4.063-0.824-7.176-0.824-7.176l-1.58-1.021c0,0-3.35-2.439-6.832,2.029
	c-1.893,2.428-2.756,3.536-3.15,4.043l-4.615-3.432l-1.574-1.418C131.541,78.834,139.823,77.443,146.822,82.202"/>
<path fill="#191818" d="M142.121,117.773c-8.563,0.001-15.406-5.75-16.07-6.326l-23.543-18.352l-0.109,1.484l-8.305-0.347
	l-2.6-20.957l20.867-2.587l2.771,7.49l-1.848,0.76l4.971,3.693c0.94-1.2,3.271-4.166,3.64-4.589
	c6.018-6.93,13.289-9.813,21.028-8.341c2.923,0.556,7.466,2.051,12.507,6.015c5.834,4.585,14.233,18.738,2.944,33.223
	c-4.131,5.3-9.019,8.243-14.528,8.754C143.266,117.749,142.688,117.773,142.121,117.773 M99.676,86.708l28.52,22.231
	c0.068,0.061,7.189,6.228,15.369,5.471c4.56-0.43,8.668-2.951,12.209-7.496c10.729-13.765,0.853-26.063-2.381-28.602
	c-14.147-11.124-24.248-3.588-29.008,1.896c-0.283,0.327-2.467,3.101-3.48,4.395l10.406,7.736l2.16-2.771
	c3.531-4.532,7.498-3.52,9.104-2.35l1.622,1.054c0.134,0.104,1.33,1.066,2.078,2.665c1.054,2.248,0.711,4.672-0.967,6.823
	c-3.186,4.086-6.992,3.56-8.561,2.707l-0.199-0.126l-29.912-22.235l4.3-1.768l-0.761-2.055l-15.002,1.858l1.848,14.911l2.324,0.1
	L99.676,86.708z M138.389,97.601c0.414,0.173,2.289,0.736,4.318-1.865c1.916-2.457,0.174-4.268-0.496-4.825l-1.504-0.973
	c-0.41-0.275-2.313-1.324-4.637,1.657l-2.113,2.712L138.389,97.601z"/>
<path fill="#FFFFFF" d="M116.717,122.282c-0.391,0.502-3.571,4.557-3.967,5.01c-13.437,15.473-31.012,1.697-30.061,2.439
	c-10.29-8.021-12.462-20.222-3.873-31.24c13.27-17.025,30.962-1.478,29.973-2.247c2.926,2.28,26.01,20.271,26.01,20.271l0.221-2.964
	l5.314,0.223l2.223,17.934l-17.934,2.224l-1.768-4.773l3.074-1.262L98.357,107.4c0,0-3.306-1.793-6.474,2.271
	c-3.167,4.064,0.825,7.176,0.825,7.176l1.58,1.021c0,0,3.348,2.44,6.832-2.029l3.483-4.471"/>
<path fill="#191818" d="M142.121,117.773c-8.563,0.001-15.406-5.75-16.07-6.326l-23.543-18.352l-0.109,1.484l-8.305-0.347
	l-2.6-20.957l20.867-2.587l2.771,7.49l-1.848,0.76l4.971,3.693c0.94-1.2,3.271-4.166,3.64-4.589
	c6.018-6.93,13.289-9.813,21.028-8.341c2.923,0.556,7.466,2.051,12.507,6.015c5.834,4.585,14.233,18.738,2.944,33.223
	c-4.131,5.3-9.019,8.243-14.528,8.754C143.266,117.749,142.688,117.773,142.121,117.773 M99.676,86.708l28.52,22.231
	c0.068,0.061,7.189,6.228,15.369,5.471c4.56-0.43,8.668-2.951,12.209-7.496c10.729-13.765,0.853-26.063-2.381-28.602
	c-14.147-11.124-24.248-3.588-29.008,1.896c-0.283,0.327-2.467,3.101-3.48,4.395l10.406,7.736l2.16-2.771
	c3.531-4.532,7.498-3.52,9.104-2.35l1.622,1.054c0.134,0.104,1.33,1.066,2.078,2.665c1.054,2.248,0.711,4.672-0.967,6.823
	c-3.186,4.086-6.992,3.56-8.561,2.707l-0.199-0.126l-29.912-22.235l4.3-1.768l-0.761-2.055l-15.002,1.858l1.848,14.911l2.324,0.1
	L99.676,86.708z M138.389,97.601c0.414,0.173,2.289,0.736,4.318-1.865c1.916-2.457,0.174-4.268-0.496-4.825l-1.504-0.973
	c-0.41-0.275-2.313-1.324-4.637,1.657l-2.113,2.712L138.389,97.601z"/>
<path fill="#FFFFFF" d="M116.717,122.282c-0.391,0.502-3.571,4.557-3.967,5.01c-13.437,15.473-31.012,1.697-30.061,2.439
	c-10.29-8.021-12.462-20.222-3.873-31.24c13.27-17.025,30.962-1.478,29.973-2.247c2.926,2.28,26.01,20.271,26.01,20.271l0.221-2.964
	l5.314,0.223l2.223,17.934l-17.934,2.224l-1.768-4.773l3.074-1.262L98.357,107.4c0,0-3.306-1.793-6.474,2.271
	c-3.167,4.064,0.825,7.176,0.825,7.176l1.58,1.021c0,0,3.348,2.44,6.832-2.029l3.483-4.471"/>
<path fill="#191818" d="M103.467,112.353c-0.485-3.915-4.053-6.693-7.967-6.21c-3.916,0.485-6.696,4.054-6.211,7.97
	c0.485,3.914,4.053,6.693,7.967,6.209C101.172,119.835,103.951,116.268,103.467,112.353"/>
<path fill="#FFFFFF" d="M115.338,119.968l-4.588-3.409c0.108-0.189,0.217-0.383,0.324-0.576L115.338,119.968z"/>
<path fill="#191818" d="M114.354,121.291l-5.762-4.282l0.727-1.271c0.104-0.181,0.208-0.365,0.311-0.553l1.022-1.858l5.812,5.438
	L114.354,121.291z"/>
<polygon fill="#191818" points="110.675,116.894 109.006,115.389 109.137,115.229 110.885,116.53 "/>
<path fill="#191818" d="M96.755,118.721c-1.385,0-2.302-0.655-2.34-0.684l-1.575-1.02c-0.048-0.036-4.044-3.227-0.85-7.325
	c1.742-2.234,3.533-2.704,4.73-2.704c1.111,0,1.842,0.391,1.873,0.405l6.01,4.468l-3.215,4.126
	C99.975,117.802,98.416,118.721,96.755,118.721 M96.721,107.194c-1.15,0-2.877,0.455-4.568,2.625
	c-3.066,3.936,0.647,6.905,0.807,7.03l1.572,1.017c0.014,0.011,0.908,0.647,2.224,0.647c1.595,0,3.099-0.892,4.472-2.653l3.086-3.96
	l-5.83-4.332C98.48,107.568,97.771,107.194,96.721,107.194"/>
<path fill="#96D5CF" d="M89.068,124.217c-8.394-5.708-7.535-14.323-3.322-20.018c4.731-6.395,11.996-6.281,16.508-3.009
	c2.135,1.549,28.199,21.342,40.404,30.613l-17.85,2.213l-1.767-4.772l3.074-1.263l-10.779-8.015c0,0-10.547-8.513-10.879-8.087
	l-5.914-4.396c0,0-3.307-1.793-6.475,2.271c-3.166,4.064,0.825,7.176,0.825,7.176l1.58,1.021c0,0,3.349,2.439,6.832-2.029
	c1.892-2.428,2.756-3.536,3.151-4.043l4.615,3.433l1.574,1.419C104.351,127.585,96.068,128.976,89.068,124.217"/>
<path fill="#191818" d="M96.871,137.089c-1.285,0-2.588-0.125-3.904-0.375c-2.92-0.556-7.461-2.051-12.506-6.014
	c-5.836-4.585-14.232-18.74-2.945-33.223c4.13-5.3,9.018-8.243,14.527-8.754c9.348-0.865,17.088,5.636,17.797,6.248l23.543,18.351
	l0.109-1.484l8.305,0.348l2.6,20.956l-20.867,2.587l-2.771-7.49l1.847-0.76l-4.97-3.693c-0.94,1.2-3.268,4.161-3.639,4.589
	C109.002,134.124,103.143,137.089,96.871,137.089 M93.748,91.944c-0.47,0-0.943,0.021-1.422,0.064
	c-4.56,0.431-8.668,2.95-12.21,7.495c-10.727,13.765-0.851,26.063,2.382,28.604c14.15,11.116,24.248,3.584,29.008-1.896
	c0.287-0.33,2.468-3.101,3.481-4.394l-10.407-7.737l-2.16,2.771c-3.531,4.531-7.498,3.521-9.104,2.349l-1.622-1.053
	c-2.127-1.657-4.179-5.555-1.112-9.489c3.187-4.086,6.994-3.558,8.562-2.707l0.198,0.126l29.914,22.235l-4.301,1.767l0.76,2.057
	l15.002-1.858l-1.848-14.911l-2.324-0.1l-0.33,4.444L107.696,97.48C107.631,97.422,101.311,91.944,93.748,91.944 M93.68,115.511
	l1.504,0.974c0.41,0.274,2.311,1.322,4.637-1.659l2.113-2.711l-4.432-3.294c-0.414-0.171-2.291-0.738-4.318,1.863
	C91.269,113.142,93.01,114.951,93.68,115.511"/>
<polyline fill="#FFFFFF" points="94.176,81.47 95.549,92.621 100.863,92.843 101.083,89.879 105.02,92.928 "/>
<polygon fill="#191818" points="102.39,94.557 94.082,94.209 92.539,81.671 95.813,81.269 97.015,91.032 99.336,91.129 
	99.666,86.697 106.029,91.624 104.01,94.232 102.5,93.063 "/>
<path fill="#191818" d="M138.975,70.974c7.449,0,13.512,4.529,15.438,6.042c4.38,3.442,13.815,16.604,2.663,30.912
	c-4.852,6.224-10.158,8.196-14.942,8.196c-0.512,0-1.018-0.022-1.517-0.065l1.939,15.65l-17.935,2.223l-1.767-4.772l3.074-1.264
	l-17.042-12.669l7.828,7.058c-0.392,0.502-3.572,4.555-3.966,5.01c-5.356,6.166-10.899,8.152-15.834,8.152
	c-7.45,0-13.512-4.528-15.438-6.042c-4.379-3.442-13.816-16.603-2.662-30.911c4.85-6.225,10.158-8.197,14.941-8.196
	c0.512,0,1.019,0.021,1.517,0.063l-1.94-15.648l17.934-2.224l1.768,4.773l-3.074,1.262l17.043,12.669l-7.83-7.056
	c0.392-0.502,3.572-4.556,3.968-5.01C128.496,72.961,134.039,70.974,138.975,70.974 M139.357,99.414
	c1.244,0,2.967-0.506,4.649-2.665c3.166-4.064-0.825-7.175-0.825-7.175l-1.578-1.022c0,0-0.914-0.665-2.281-0.665
	c-1.252,0-2.887,0.559-4.553,2.695c-1.892,2.427-2.754,3.535-3.149,4.042l5.913,4.396C137.533,99.02,138.26,99.414,139.357,99.414
	 M134.799,116.516l0.133-1.783c-4.666-1.76-7.83-4.558-7.83-4.558c-2.926-2.28-26.01-20.271-26.01-20.271l-0.133,1.784
	c4.667,1.76,7.83,4.558,7.83,4.558C111.715,98.524,134.799,116.516,134.799,116.516 M96.568,118.533c1.253,0,2.887-0.56,4.553-2.695
	c1.891-2.427,2.755-3.535,3.15-4.042l-5.914-4.396c0,0-0.727-0.395-1.824-0.395c-1.245,0-2.967,0.506-4.648,2.665
	c-3.168,4.063,0.823,7.175,0.823,7.175l1.58,1.022C94.288,117.868,95.2,118.533,96.568,118.533 M138.975,68.466
	c-6.566,0-12.531,3.033-17.729,9.018c-0.336,0.387-2.063,2.577-3.15,3.963l-3.076-2.286l1.209-0.497l-0.84-2.271l-1.768-4.772
	l-0.689-1.863L110.96,70l-17.935,2.224l-2.489,0.309l0.31,2.489l1.588,12.813c-5.941,0.393-11.183,3.456-15.596,9.119
	c-11.686,14.991-2.964,29.668,3.092,34.426c5.476,4.303,11.351,6.578,16.987,6.578c6.567,0,12.531-3.033,17.728-9.018
	c0.336-0.387,2.062-2.578,3.149-3.964l3.077,2.287l-1.209,0.496l0.842,2.271l1.766,4.773l0.689,1.863l1.973-0.245l17.935-2.224
	l2.489-0.309l-0.309-2.489l-1.589-12.812c5.94-0.395,11.183-3.457,15.595-9.119c11.688-14.993,2.963-29.668-3.092-34.426
	C150.484,70.74,144.611,68.466,138.975,68.466 M135.176,94.142l0.896-1.147l0.678-0.869c0.614-0.789,1.561-1.729,2.573-1.729
	c0.413,0,0.733,0.153,0.831,0.207l0.087,0.072v-0.017l1.461,0.942c0.86,0.736,1.606,1.963,0.327,3.604
	c-0.879,1.127-1.776,1.699-2.67,1.699c-0.238,0-0.457-0.047-0.563-0.073L135.176,94.142z M94.19,114.816
	c-0.862-0.735-1.607-1.964-0.328-3.604c0.879-1.127,1.776-1.699,2.671-1.699c0.238,0,0.455,0.046,0.561,0.072l3.621,2.691
	l-1.572,2.019c-0.615,0.789-1.561,1.729-2.574,1.729c-0.414,0-0.733-0.153-0.831-0.208l-0.087-0.071v0.017L94.19,114.816z"/>
<path fill="#1A1A19" d="M117.871,180.093c0,0-0.004-0.012-0.012-0.033c-0.194-0.527-3.012-7.318-20.955-14.34v16.475
	c11.416,7.014,20.568,9.111,20.568,9.111h0.797c0,0,9.153-2.099,20.568-9.111v-16.477
	C120.15,173.029,117.871,180.093,117.871,180.093"/>
<path fill="#1A1A19" d="M64.575,149.729v8.097c8.119,9.569,19.146,15.857,29.014,22.171v-16.513
	c-2.79-0.993-5.886-1.983-9.345-2.953C75.679,158.127,69.309,154.172,64.575,149.729"/>
<path fill="#1A1A19" d="M142.154,163.484v16.512c9.869-6.313,20.895-12.602,29.014-22.17v-8.099
	c-4.734,4.442-11.104,8.398-19.67,10.803C148.037,161.501,144.945,162.491,142.154,163.484"/>
<path fill="#020202" d="M210.742,105.8c-1.816-3.576-5.514-6.851-6.379-10.245l-0.531-0.223c-1.338,3.336-1.193,7.327-0.17,10.951
	c1.109,4.704,3.424,8.369,4.508,12.994c0.193,0.89,0.354,1.773,0.459,2.741c6.957-5.049,13.369-10.809,15.182-19.896l-12.192,6.129
	C211.455,107.404,211.125,106.565,210.742,105.8"/>
<path fill="#020202" d="M207.607,64.018c0.576,1.658,0.758,3.547,1.547,5.248c0.51,0.668,0.961,1.357,1.432,2.057
	c1.314,1.814,2.676,3.432,4.42,3.886c0.605-2.797,1.064-5.733,0.533-8.912c-0.604-2.013-1.506-3.808-2.689-5.43
	c-1.848-2.56-4.356-4.638-7.396-6.198c-0.099-0.058-0.166-0.071-0.224-0.119l-0.403,0.093c0.157,0.24,0.304,0.517,0.461,0.796
	C206.664,58.063,207.076,60.839,207.607,64.018"/>
<path fill="#020202" d="M212.24,81.184c-2.652-3.01-7.049-5.257-8.736-8.325l-0.57-0.084c-0.461,3.564,0.676,7.394,2.572,10.646
	c2.248,4.278,5.406,7.249,7.611,11.456c0.41,0.813,0.785,1.631,1.129,2.54c5.475-6.626,10.246-13.806,9.729-23.059l-10.275,8.98
	C213.33,82.559,212.803,81.829,212.24,81.184"/>
<path fill="#020202" d="M25.001,105.8c1.817-3.576,5.512-6.851,6.379-10.245l0.532-0.223c1.337,3.336,1.193,7.327,0.168,10.951
	c-1.107,4.704-3.423,8.369-4.507,12.994c-0.194,0.89-0.354,1.773-0.459,2.741c-6.956-5.049-13.369-10.809-15.182-19.896
	l12.194,6.129C24.289,107.404,24.618,106.565,25.001,105.8"/>
<path fill="#020202" d="M28.137,64.018c-0.578,1.658-0.758,3.547-1.548,5.248c-0.51,0.668-0.96,1.357-1.431,2.057
	c-1.314,1.814-2.676,3.432-4.42,3.886c-0.606-2.797-1.065-5.733-0.534-8.912c0.604-2.013,1.507-3.808,2.689-5.43
	c1.849-2.56,4.358-4.638,7.396-6.198c0.099-0.058,0.167-0.071,0.223-0.119l0.404,0.093c-0.157,0.24-0.303,0.517-0.46,0.796
	C29.08,58.063,28.668,60.839,28.137,64.018"/>
<path fill="#020202" d="M23.503,81.184c2.653-3.01,7.049-5.257,8.736-8.325l0.571-0.084c0.461,3.564-0.675,7.394-2.573,10.646
	c-2.248,4.278-5.406,7.249-7.611,11.456c-0.41,0.813-0.785,1.631-1.128,2.54c-5.475-6.626-10.246-13.806-9.731-23.059l10.277,8.98
	C22.413,82.559,22.941,81.829,23.503,81.184"/>
<path fill="#020202" d="M191.141,146.958c-0.916-0.017-1.783-0.026-2.639,0.015c3.211-4.57,2.29-10.164,4.059-15.118l-0.018-0.221
	c-5.329,2.009-8.124,6.701-10.73,11.657c-1.862,3.592-3.684,7.274-6.34,9.994c1.109,0.08,2.152,0.229,3.234,0.388
	c1.122,0.163,2.275,0.387,3.436,0.692c2.305,0.135,4.58,0.238,6.731,0.167c4.034-0.171,7.795-0.855,11.037-2.606
	c1.501-0.798,2.901-1.849,4.131-3.16c-0.949-0.153-1.992-0.343-3.028-0.523C197.749,147.688,194.314,147.116,191.141,146.958"/>
<path fill="#020202" d="M204.141,131.385c-1.494-5.036-4.274-10.122-3.865-15.642l-0.143-0.219l-0.375,0.165
	c-0.043,0.035-0.096,0.107-0.101,0.145c-0.292,0.5-0.601,0.785-1.136,1.3c-3.806,6.707-3.23,14.78-1.275,21.92
	c0.32,1.177,0.652,2.295,1.063,3.425c3.424-2.676,7.646-3.358,11.443-5.306c0.342-0.207,0.676-0.37,1.029-0.582
	c3.659-2.642,5.885-7.007,6.842-11.184c-2.373,0.757-4.701,1.368-6.877,2.187C208.4,128.439,206.139,129.582,204.141,131.385"/>
<path fill="#020202" d="M44.667,146.958c0.916-0.017,1.783-0.026,2.638,0.015c-3.211-4.57-2.291-10.164-4.058-15.118l0.017-0.221
	c5.329,2.009,8.124,6.701,10.731,11.657c1.86,3.592,3.683,7.274,6.339,9.994c-1.109,0.08-2.153,0.229-3.234,0.388
	c-1.122,0.163-2.274,0.387-3.435,0.692c-2.306,0.135-4.581,0.238-6.732,0.167c-4.035-0.171-7.795-0.855-11.037-2.606
	c-1.502-0.798-2.901-1.849-4.131-3.16c0.949-0.153,1.992-0.343,3.028-0.523C38.058,147.688,41.491,147.116,44.667,146.958"/>
<path fill="#020202" d="M31.667,131.385c1.494-5.036,4.274-10.122,3.865-15.642l0.142-0.219l0.374,0.165
	c0.045,0.035,0.097,0.107,0.101,0.145c0.292,0.5,0.601,0.785,1.136,1.3c3.805,6.707,3.229,14.78,1.275,21.92
	c-0.32,1.177-0.653,2.295-1.063,3.425c-3.423-2.676-7.645-3.358-11.443-5.306c-0.341-0.207-0.676-0.37-1.029-0.582
	c-3.66-2.642-5.886-7.007-6.841-11.184c2.373,0.757,4.7,1.368,6.876,2.187C27.406,128.439,29.669,129.582,31.667,131.385"/>
</svg>
