<?xml version="1.0" encoding="utf-8"?>
<!-- Generator: Adobe Illustrator 16.0.0, SVG Export Plug-In . SVG Version: 6.00 Build 0)  -->
<!DOCTYPE svg PUBLIC "-//W3C//DTD SVG 1.1//EN" "http://www.w3.org/Graphics/SVG/1.1/DTD/svg11.dtd">
<svg version="1.1" id="Layer_1" xmlns="http://www.w3.org/2000/svg" xmlns:xlink="http://www.w3.org/1999/xlink" x="0px" y="0px"
	 width="612px" height="792px" viewBox="0 0 612 792" enable-background="new 0 0 612 792" xml:space="preserve">
<path fill="#95D5CF" d="M306,343.782h-64.594c0,0.088,0.002,0.175,0.002,0.264v69.581c0,0,2.674,27.175,32.079,35.424
	c28.429,7.975,32.288,17.31,32.513,17.921c0.008,0.021,0.011,0.032,0.011,0.032s3.118-9.705,32.524-17.953
	c29.405-8.249,32.079-35.424,32.079-35.424v-69.543c0-0.013,0.001-0.025,0.001-0.038c0-0.089,0.002-0.176,0.002-0.264H306z"/>
<g opacity="0.5">
	<g>
		<defs>
			<rect id="SVGID_1_" x="306" y="341.694" width="66.811" height="127.398"/>
		</defs>
		<clipPath id="SVGID_2_">
			<use xlink:href="#SVGID_1_"  overflow="visible"/>
		</clipPath>
		<path clip-path="url(#SVGID_2_)" fill="#189995" d="M339.638,450.53c30.402-8.529,33.166-36.624,33.166-36.624v-71.901
			c0-0.013,0.001-0.025,0.001-0.039c0-0.092,0.003-0.181,0.003-0.272h-66.809V469.06c0.008,0.021,0.012,0.034,0.012,0.034
			S309.234,459.06,339.638,450.53"/>
	</g>
</g>
<g opacity="0.4">
	<g>
		<defs>
			<rect id="SVGID_3_" x="230" y="308.55" width="152.02" height="160.543"/>
		</defs>
		<clipPath id="SVGID_4_">
			<use xlink:href="#SVGID_3_"  overflow="visible"/>
		</clipPath>
		<path clip-path="url(#SVGID_4_)" fill="#FFFFFF" d="M364.015,322.348c-2.642,4.355-4.931,10.604-5.003,19.228v0.004l-0.003,0.261
			l-0.001,0.084v0.081v70.903c-0.26,1.438-1.204,5.666-3.914,10.225c-4.133,6.953-10.586,11.701-19.183,14.113
			c-13.943,3.912-23.452,8.355-29.929,12.659c-6.466-4.301-15.956-8.755-29.872-12.659c-8.596-2.412-15.051-7.16-19.183-14.113
			c-2.709-4.559-3.653-8.786-3.913-10.225v-70.941l-0.003-0.375c-0.065-8.625-2.356-14.883-5.003-19.244h24.605h23.781h9.198h33.814
			H364.015 M371.984,308.551h-32.576h-33.814h-9.198h-23.781h-32.576l-10.034,15.453c0,0,9.1,2.807,9.21,17.689
			c0.001,0.091,0.003,0.181,0.003,0.273v71.939c0,0,2.764,28.095,33.166,36.624c29.393,8.245,33.383,17.897,33.615,18.529
			c0.008,0.021,0.012,0.033,0.012,0.033s3.225-10.033,33.627-18.563c30.403-8.529,33.167-36.624,33.167-36.624v-71.901
			c0-0.013,0.001-0.025,0.001-0.038c0-0.093,0.002-0.183,0.002-0.273c0.11-14.883,9.211-17.689,9.211-17.689L371.984,308.551z"/>
	</g>
</g>
<path fill="#1A1A19" d="M382.019,324.004l-10.034-15.454h-32.575h-33.816h-9.198h-23.781h-32.575l-10.034,15.454
	c0,0,9.1,2.807,9.21,17.69v7.524h133.594v-7.524C372.919,326.811,382.019,324.004,382.019,324.004"/>
<path fill="#191818" d="M367.441,316.916l3.393,5.226c-2.295,2.726-4.316,6.396-5.444,11.186H246.634
	c-1.128-4.789-3.149-8.46-5.444-11.186l3.392-5.226h28.033h23.781h9.198h33.814H367.441 M371.984,308.551h-32.576h-33.814h-9.198
	h-23.781h-32.576l-10.034,15.453c0,0,9.1,2.807,9.21,17.689h133.593c0.11-14.883,9.211-17.689,9.211-17.689L371.984,308.551z"/>
<path fill="#191818" d="M367.441,316.916l3.393,5.226c-3.476,4.128-6.324,10.428-6.392,19.495l-0.001,0.06v0.041l-0.001,0.023
	l-0.002,0.166v0.038v0.04v71.372c-0.437,2.982-4.16,22.674-27.06,29.099c-5.879,1.648-21.529,6.527-31.394,14.106
	c-5.685-4.468-15.251-9.594-31.342-14.106c-22.9-6.425-26.624-26.116-27.06-29.099v-71.41l-0.002-0.272l-0.001-0.063
	c-0.067-9.064-2.915-15.361-6.391-19.489l3.392-5.226h28.033h23.781h9.198h33.814H367.441 M371.984,308.551h-32.576h-33.814h-9.198
	h-23.781h-32.576l-10.034,15.453c0,0,9.1,2.807,9.21,17.689c0.001,0.091,0.003,0.181,0.003,0.273v71.939
	c0,0,2.764,28.095,33.166,36.624c29.393,8.245,33.383,17.897,33.615,18.529c0.008,0.021,0.012,0.033,0.012,0.033
	s3.225-10.033,33.627-18.563c30.403-8.529,33.167-36.624,33.167-36.624v-71.901c0-0.013,0.001-0.025,0.001-0.038
	c0-0.093,0.002-0.183,0.002-0.273c0.11-14.883,9.211-17.689,9.211-17.689L371.984,308.551z"/>
<path fill="#FFFFFF" d="M251.539,335.802l2.408-2.528c1.024,1.324,2.62,2.197,4.305,2.197c2.108,0,3.071-1.113,3.071-2.68
	c0-1.866-1.294-2.528-3.251-2.528c-0.662,0-1.566,0-1.866,0.061v-3.644c0.3,0.03,1.294,0.03,1.775,0.03
	c1.837,0,3.071-0.753,3.071-2.318c0-1.686-1.204-2.497-2.95-2.497c-1.565,0-2.98,0.721-4.004,2.016l-2.288-2.348
	c1.444-2.018,3.732-3.252,6.623-3.252c3.974,0,6.593,1.896,6.593,5.449c0,2.288-1.716,4.154-3.793,4.575
	c2.047,0.302,4.095,2.108,4.095,4.818c0,3.491-2.68,5.9-6.895,5.9C255.242,339.054,252.803,337.638,251.539,335.802"/>
<polygon fill="#FFFFFF" points="286.819,338.692 284.23,325.326 281.671,338.692 277.457,338.692 272.88,318.611 277.216,318.611 
	279.805,332.582 282.665,318.611 285.825,318.611 288.716,332.582 291.275,318.611 295.61,318.611 291.034,338.692 "/>
<polygon fill="#FFFFFF" points="297.564,338.692 297.564,318.611 309.064,318.611 309.064,322.165 301.598,322.165 301.598,326.711 
	308.854,326.711 308.854,330.263 301.598,330.263 301.598,335.14 309.064,335.14 309.064,338.692 "/>
<polygon fill="#FFFFFF" points="312.043,338.692 312.043,318.611 323.543,318.611 323.543,322.165 316.076,322.165 316.076,326.711 
	323.332,326.711 323.332,330.263 316.076,330.263 316.076,335.14 323.543,335.14 323.543,338.692 "/>
<polygon fill="#FFFFFF" points="336.606,338.692 331.971,330.835 330.556,333.063 330.556,338.692 326.521,338.692 326.521,318.611 
	330.556,318.611 330.556,327.733 336.215,318.611 340.912,318.611 334.5,328.064 341.362,338.692 "/>
<path fill="#FFFFFF" d="M341.873,336.464l1.986-3.101c1.114,1.234,2.86,2.138,4.848,2.138c1.775,0,2.738-0.994,2.738-2.228
	c0-3.522-8.971-2.318-8.971-9.122c0-3.162,2.469-5.871,6.623-5.871c2.439,0,4.546,0.784,6.082,2.228l-1.927,3.012
	c-1.204-1.145-2.74-1.687-4.306-1.687c-1.444,0-2.348,0.813-2.348,2.047c0,3.131,8.941,2.288,8.941,9.063
	c0,3.521-2.409,6.111-6.805,6.111C345.695,339.054,343.469,338.061,341.873,336.464"/>
<path fill="#FFFFFF" d="M307.314,377.137c0.391-0.502,3.571-4.556,3.966-5.01c13.438-15.473,31.014-1.697,30.062-2.439
	c10.289,8.021,12.461,20.222,3.873,31.24c-13.27,17.026-30.963,1.477-29.974,2.247c-2.926-2.28-26.01-20.272-26.01-20.272
	l-0.219,2.966l-5.315-0.224l-2.223-17.934l17.934-2.224l1.767,4.774l-3.074,1.262l27.572,20.496c0,0,3.306,1.793,6.474-2.271
	c3.168-4.064-0.824-7.175-0.824-7.175l-1.58-1.022c0,0-3.348-2.441-6.832,2.03l-3.484,4.47"/>
<path fill="#191818" d="M320.564,387.066c0.484,3.915,4.052,6.695,7.968,6.21c3.915-0.485,6.694-4.053,6.209-7.968
	s-4.052-6.695-7.967-6.21S320.079,383.151,320.564,387.066"/>
<path fill="#FFFFFF" d="M308.693,379.451l4.588,3.41c-0.109,0.189-0.217,0.382-0.324,0.577L308.693,379.451z"/>
<path fill="#191818" d="M313.38,386.09l-5.813-5.435l2.11-2.527l5.761,4.283l-0.726,1.269c-0.104,0.182-0.208,0.365-0.312,0.554
	L313.38,386.09z"/>
<polygon fill="#191818" points="314.895,384.188 313.146,382.89 313.357,382.526 315.024,384.029 "/>
<path fill="#191818" d="M327.311,392.431c-1.112,0-1.843-0.39-1.874-0.406l-6.011-4.468l0.064-0.083
	c0.396-0.507,1.26-1.614,3.151-4.042c1.414-1.813,2.973-2.733,4.634-2.733c1.385,0,2.302,0.656,2.34,0.685l1.576,1.018
	c0.048,0.038,1.031,0.813,1.637,2.106c0.562,1.199,0.881,3.078-0.787,5.219C330.299,391.961,328.507,392.431,327.311,392.431
	 M325.548,391.851c0.002,0,0.712,0.374,1.763,0.374c1.15,0,2.877-0.456,4.568-2.626c1.287-1.651,1.544-3.336,0.763-5.004
	c-0.585-1.249-1.56-2.018-1.57-2.026l-1.571-1.016c-0.015-0.01-0.909-0.648-2.225-0.648c-1.594,0-3.099,0.893-4.472,2.654
	c-1.794,2.304-2.663,3.418-3.086,3.959L325.548,391.851z"/>
<path fill="#95D5CF" d="M334.962,375.202c8.394,5.708,7.536,14.323,3.321,20.018c-4.729,6.394-11.994,6.281-16.506,3.01
	c-2.136-1.55-28.199-21.343-40.405-30.615l17.849-2.213l1.767,4.773l-3.074,1.264l10.779,8.013c0,0,10.547,8.513,10.879,8.087
	l5.914,4.396c0,0,3.306,1.793,6.474-2.271c3.167-4.063-0.825-7.176-0.825-7.176l-1.579-1.021c0,0-3.349-2.44-6.833,2.029
	c-1.892,2.428-2.756,3.536-3.15,4.043l-4.616-3.432l-1.574-1.418C319.681,371.834,327.963,370.443,334.962,375.202"/>
<path fill="#191818" d="M330.261,410.773c-8.563,0.001-15.405-5.75-16.069-6.326l-23.543-18.351l-0.11,1.484l-8.305-0.347
	l-2.599-20.957l20.867-2.587l2.772,7.491l-1.848,0.759l4.97,3.694c0.942-1.2,3.272-4.166,3.64-4.589
	c6.018-6.93,13.289-9.814,21.028-8.341c2.922,0.556,7.465,2.051,12.507,6.015c5.835,4.585,14.232,18.739,2.944,33.222
	c-4.13,5.3-9.019,8.244-14.528,8.754C331.404,410.749,330.828,410.773,330.261,410.773 M287.815,379.708l28.519,22.231
	c0.069,0.061,7.194,6.228,15.37,5.471c4.56-0.43,8.667-2.951,12.21-7.496c10.728-13.764,0.851-26.062-2.382-28.602
	c-14.147-11.124-24.248-3.587-29.007,1.896c-0.284,0.327-2.468,3.101-3.482,4.395l10.406,7.736l2.161-2.771
	c3.531-4.532,7.5-3.519,9.104-2.349l1.621,1.053c0.134,0.104,1.332,1.067,2.08,2.665c1.053,2.249,0.709,4.672-0.969,6.824
	c-3.185,4.084-6.992,3.559-8.56,2.707l-0.198-0.126l-29.913-22.236l4.3-1.767l-0.761-2.055l-15.002,1.859l1.848,14.911l2.324,0.099
	L287.815,379.708z M326.528,390.601c0.416,0.172,2.291,0.736,4.318-1.866c1.915-2.457,0.176-4.267-0.495-4.825l-1.504-0.973
	c-0.409-0.275-2.314-1.324-4.637,1.658l-2.113,2.712L326.528,390.601z"/>
<path fill="#FFFFFF" d="M304.856,415.282c-0.391,0.502-3.572,4.557-3.966,5.01c-13.438,15.473-31.014,1.697-30.062,2.439
	c-10.29-8.021-12.461-20.221-3.873-31.24c13.27-17.025,30.963-1.477,29.974-2.247c2.926,2.28,26.009,20.272,26.009,20.272
	l0.22-2.964l5.314,0.222l2.224,17.934l-17.934,2.224l-1.767-4.774l3.073-1.262l-27.572-20.496c0,0-3.307-1.793-6.474,2.271
	c-3.167,4.064,0.825,7.176,0.825,7.176l1.579,1.021c0,0,3.349,2.441,6.833-2.029l3.484-4.471"/>
<path fill="#191818" d="M330.261,410.773c-8.563,0.001-15.405-5.75-16.069-6.326l-23.543-18.351l-0.11,1.484l-8.305-0.347
	l-2.599-20.957l20.867-2.587l2.772,7.491l-1.848,0.759l4.97,3.694c0.942-1.2,3.272-4.166,3.64-4.589
	c6.018-6.93,13.289-9.814,21.028-8.341c2.922,0.556,7.465,2.051,12.507,6.015c5.835,4.585,14.232,18.739,2.944,33.222
	c-4.13,5.3-9.019,8.244-14.528,8.754C331.404,410.749,330.828,410.773,330.261,410.773 M287.815,379.708l28.519,22.231
	c0.069,0.061,7.194,6.228,15.37,5.471c4.56-0.43,8.667-2.951,12.21-7.496c10.728-13.764,0.851-26.062-2.382-28.602
	c-14.147-11.124-24.248-3.587-29.007,1.896c-0.284,0.327-2.468,3.101-3.482,4.395l10.406,7.736l2.161-2.771
	c3.531-4.532,7.5-3.519,9.104-2.349l1.621,1.053c0.134,0.104,1.332,1.067,2.08,2.665c1.053,2.249,0.709,4.672-0.969,6.824
	c-3.185,4.084-6.992,3.559-8.56,2.707l-0.198-0.126l-29.913-22.236l4.3-1.767l-0.761-2.055l-15.002,1.859l1.848,14.911l2.324,0.099
	L287.815,379.708z M326.528,390.601c0.416,0.172,2.291,0.736,4.318-1.866c1.915-2.457,0.176-4.267-0.495-4.825l-1.504-0.973
	c-0.409-0.275-2.314-1.324-4.637,1.658l-2.113,2.712L326.528,390.601z"/>
<path fill="#FFFFFF" d="M304.856,415.282c-0.391,0.502-3.572,4.557-3.966,5.01c-13.438,15.473-31.014,1.697-30.062,2.439
	c-10.29-8.021-12.461-20.221-3.873-31.24c13.27-17.025,30.963-1.477,29.974-2.247c2.926,2.28,26.009,20.272,26.009,20.272
	l0.22-2.964l5.314,0.222l2.224,17.934l-17.934,2.224l-1.767-4.774l3.073-1.262l-27.572-20.496c0,0-3.307-1.793-6.474,2.271
	c-3.167,4.064,0.825,7.176,0.825,7.176l1.579,1.021c0,0,3.349,2.441,6.833-2.029l3.484-4.471"/>
<path fill="#191818" d="M291.606,405.353c-0.485-3.915-4.052-6.694-7.968-6.21c-3.914,0.485-6.695,4.053-6.209,7.969
	c0.484,3.914,4.052,6.694,7.967,6.209S292.091,409.268,291.606,405.353"/>
<path fill="#FFFFFF" d="M303.478,412.968l-4.588-3.409c0.109-0.19,0.217-0.383,0.325-0.577L303.478,412.968z"/>
<path fill="#191818" d="M302.493,414.291l-5.761-4.282l0.726-1.271c0.104-0.18,0.208-0.365,0.312-0.552l1.021-1.859l5.813,5.438
	L302.493,414.291z"/>
<polygon fill="#191818" points="298.814,409.894 297.146,408.389 297.276,408.229 299.024,409.53 "/>
<path fill="#191818" d="M284.895,411.721c-1.385,0-2.302-0.656-2.34-0.684l-1.575-1.019c-0.048-0.037-4.044-3.227-0.85-7.326
	c1.742-2.234,3.534-2.704,4.73-2.704c1.111,0,1.843,0.391,1.874,0.406l6.01,4.467l-3.215,4.126
	C288.115,410.802,286.556,411.721,284.895,411.721 M284.86,400.194c-1.15,0-2.876,0.455-4.568,2.625
	c-3.066,3.936,0.648,6.906,0.807,7.031l1.573,1.016c0.013,0.011,0.908,0.648,2.223,0.648c1.594,0,3.098-0.892,4.472-2.654
	l3.085-3.96l-5.829-4.332C286.621,400.568,285.911,400.194,284.86,400.194"/>
<path fill="#95D5CF" d="M277.209,417.217c-8.395-5.708-7.536-14.323-3.322-20.018c4.73-6.394,11.995-6.281,16.507-3.009
	c2.135,1.549,28.199,21.342,40.405,30.614l-17.85,2.213l-1.767-4.773l3.075-1.263l-10.78-8.014c0,0-10.547-8.513-10.879-8.087
	l-5.914-4.396c0,0-3.306-1.793-6.474,2.271c-3.167,4.064,0.825,7.176,0.825,7.176l1.58,1.021c0,0,3.348,2.44,6.832-2.029
	c1.893-2.428,2.756-3.536,3.151-4.043l4.616,3.432l1.574,1.419C292.489,420.585,284.208,421.976,277.209,417.217"/>
<path fill="#191818" d="M285.011,430.089c-1.285,0-2.587-0.125-3.903-0.375c-2.921-0.556-7.462-2.051-12.507-6.014
	c-5.836-4.585-14.233-18.74-2.945-33.222c4.13-5.3,9.018-8.244,14.528-8.754c9.348-0.866,17.088,5.635,17.796,6.248l23.543,18.35
	l0.11-1.484l8.305,0.348l2.598,20.956l-20.865,2.587l-2.772-7.491l1.847-0.759l-4.969-3.694c-0.941,1.2-3.268,4.161-3.64,4.589
	C297.142,427.124,291.282,430.089,285.011,430.089 M281.889,384.944c-0.47,0-0.944,0.021-1.423,0.065
	c-4.56,0.43-8.667,2.95-12.209,7.495c-10.728,13.765-0.851,26.063,2.381,28.603c14.151,11.117,24.249,3.584,29.008-1.896
	c0.287-0.33,2.468-3.101,3.482-4.394l-10.407-7.737l-2.16,2.771c-3.532,4.531-7.499,3.52-9.104,2.348l-1.622-1.052
	c-2.127-1.658-4.179-5.555-1.112-9.49c3.185-4.086,6.993-3.557,8.561-2.707l0.198,0.126l29.914,22.236l-4.301,1.766l0.761,2.057
	l15.002-1.859l-1.849-14.911l-2.323-0.099l-0.33,4.444l-28.519-22.229C295.771,390.422,289.45,384.944,281.889,384.944
	 M281.819,408.511l1.504,0.973c0.41,0.275,2.312,1.323,4.637-1.659l2.113-2.711l-4.431-3.294c-0.415-0.171-2.29-0.738-4.319,1.864
	C279.408,406.142,281.149,407.951,281.819,408.511"/>
<polyline fill="#FFFFFF" points="282.316,374.47 283.689,385.621 289.003,385.843 289.223,382.879 293.16,385.928 "/>
<polygon fill="#191818" points="290.529,387.557 282.223,387.209 280.68,374.671 283.952,374.269 285.154,384.032 287.477,384.129 
	287.806,379.697 294.169,384.624 292.15,387.232 290.641,386.062 "/>
<path fill="#191818" d="M327.114,363.974c7.45,0,13.512,4.529,15.438,6.042c4.38,3.442,13.816,16.603,2.663,30.912
	c-4.85,6.223-10.159,8.196-14.943,8.196c-0.511,0-1.017-0.022-1.516-0.065l1.94,15.65l-17.935,2.223l-1.766-4.773l3.074-1.263
	l-17.042-12.669l7.829,7.057c-0.392,0.502-3.572,4.555-3.966,5.01c-5.355,6.166-10.898,8.152-15.834,8.152
	c-7.45,0-13.512-4.528-15.438-6.042c-4.38-3.442-13.817-16.602-2.663-30.911c4.85-6.224,10.158-8.197,14.943-8.196
	c0.511,0,1.017,0.021,1.515,0.063l-1.94-15.648l17.935-2.224l1.767,4.774l-3.074,1.262l17.042,12.668l-7.828-7.055
	c0.391-0.502,3.571-4.556,3.966-5.01C316.636,365.961,322.179,363.974,327.114,363.974 M327.498,392.414
	c1.244,0,2.966-0.506,4.648-2.665c3.168-4.064-0.824-7.175-0.824-7.175l-1.579-1.022c0,0-0.913-0.665-2.281-0.665
	c-1.252,0-2.887,0.558-4.552,2.695c-1.893,2.427-2.755,3.535-3.151,4.042l5.914,4.396C325.673,392.02,326.4,392.414,327.498,392.414
	 M322.939,409.516l0.132-1.784c-4.666-1.759-7.83-4.557-7.83-4.557c-2.927-2.28-26.009-20.272-26.009-20.272l-0.133,1.785
	c4.667,1.759,7.83,4.557,7.83,4.557C299.855,391.524,322.939,409.516,322.939,409.516 M284.708,411.533
	c1.253,0,2.887-0.559,4.552-2.695c1.894-2.427,2.756-3.535,3.151-4.042l-5.914-4.396c0,0-0.726-0.394-1.824-0.394
	c-1.245,0-2.967,0.506-4.649,2.665c-3.168,4.063,0.824,7.175,0.824,7.175l1.58,1.022
	C282.428,410.868,283.34,411.533,284.708,411.533 M327.114,361.466c-6.567,0-12.532,3.033-17.729,9.017
	c-0.336,0.387-2.062,2.578-3.15,3.963l-3.077-2.286l1.209-0.497l-0.84-2.271l-1.768-4.773l-0.689-1.863l-1.972,0.244l-17.935,2.224
	l-2.489,0.308l0.309,2.49l1.588,12.812c-5.941,0.393-11.183,3.456-15.596,9.119c-11.685,14.991-2.963,29.668,3.092,34.426
	c5.477,4.303,11.351,6.578,16.988,6.578c6.567,0,12.531-3.033,17.729-9.018c0.335-0.386,2.061-2.578,3.148-3.963l3.077,2.287
	l-1.209,0.496l0.841,2.271l1.768,4.774l0.688,1.863l1.973-0.245l17.934-2.224l2.49-0.308l-0.31-2.49l-1.588-12.811
	c5.941-0.395,11.183-3.457,15.596-9.119c11.686-14.993,2.963-29.668-3.092-34.426C338.626,363.74,332.751,361.466,327.114,361.466
	 M323.316,387.142l0.895-1.148l0.678-0.869c0.614-0.789,1.56-1.729,2.573-1.729c0.414,0,0.733,0.154,0.832,0.208l0.087,0.072v-0.017
	l1.46,0.943c0.862,0.736,1.607,1.962,0.327,3.604c-0.878,1.127-1.777,1.699-2.67,1.699c-0.238,0-0.456-0.047-0.563-0.073
	L323.316,387.142z M282.33,407.816c-0.862-0.735-1.607-1.963-0.328-3.604c0.879-1.127,1.777-1.699,2.671-1.699
	c0.252,0,0.455,0.047,0.576,0.083l3.606,2.681l-1.573,2.019c-0.614,0.789-1.561,1.728-2.574,1.728c-0.414,0-0.733-0.153-0.831-0.208
	l-0.087-0.071v0.017L282.33,407.816z"/>
<path fill="#1A1A19" d="M306.011,473.093c0,0-0.004-0.012-0.012-0.033c-0.194-0.528-3.012-7.319-20.954-14.34v16.474
	c11.415,7.014,20.568,9.112,20.568,9.112h0.797c0,0,9.152-2.099,20.567-9.112v-16.476
	C308.29,466.029,306.011,473.093,306.011,473.093"/>
<path fill="#1A1A19" d="M252.715,442.729v8.096c8.119,9.57,19.146,15.858,29.014,22.171v-16.513
	c-2.791-0.993-5.886-1.983-9.345-2.953C263.819,451.127,257.449,447.172,252.715,442.729"/>
<path fill="#1A1A19" d="M330.294,456.484v16.512c9.869-6.313,20.896-12.601,29.015-22.17v-8.098
	c-4.734,4.442-11.105,8.398-19.67,10.802C336.177,454.501,333.086,455.491,330.294,456.484"/>
<path fill="#010101" d="M380.377,439.958c-0.916-0.017-1.783-0.026-2.639,0.015c3.212-4.571,2.291-10.164,4.059-15.119l-0.018-0.22
	c-5.328,2.009-8.123,6.701-10.73,11.657c-1.862,3.592-3.684,7.274-6.339,9.994c1.108,0.08,2.153,0.229,3.233,0.388
	c1.123,0.163,2.275,0.387,3.436,0.692c2.306,0.135,4.581,0.238,6.732,0.167c4.034-0.171,7.795-0.855,11.037-2.606
	c1.5-0.798,2.901-1.849,4.131-3.16c-0.949-0.154-1.992-0.343-3.028-0.524C386.986,440.687,383.553,440.116,380.377,439.958"/>
<path fill="#010101" d="M393.377,422.127c-1.494-5.036-4.274-10.122-3.864-15.641l-0.144-0.22l-0.373,0.165
	c-0.045,0.036-0.098,0.108-0.102,0.145c-0.292,0.5-0.601,0.786-1.136,1.3c-3.806,6.707-3.23,14.78-1.275,21.92
	c0.32,1.176,0.653,2.295,1.063,3.425c3.423-2.676,7.644-3.358,11.442-5.306c0.342-0.207,0.676-0.37,1.029-0.582
	c3.66-2.642,5.886-7.007,6.842-11.183c-2.373,0.757-4.701,1.367-6.876,2.186C397.638,419.182,395.375,420.324,393.377,422.127"/>
<path fill="#010101" d="M217.292,399.239c0.117,1.752,0.69,3.561,0.63,5.436c-0.208,0.813-0.353,1.625-0.512,2.452
	c-0.499,2.185-1.119,4.204-2.547,5.305c-1.651-2.336-3.224-4.858-3.98-7.992c-0.229-2.088-0.103-4.092,0.352-6.048
	c0.698-3.078,2.194-5.974,4.379-8.601c0.069-0.091,0.125-0.13,0.158-0.195l0.408-0.073c-0.051,0.282-0.077,0.594-0.112,0.912
	C215.828,393.39,216.536,396.106,217.292,399.239"/>
<path fill="#010101" d="M395.122,399.239c-0.117,1.752-0.69,3.561-0.63,5.436c0.208,0.813,0.352,1.625,0.512,2.452
	c0.499,2.185,1.119,4.204,2.547,5.305c1.651-2.336,3.225-4.858,3.98-7.992c0.23-2.088,0.104-4.092-0.352-6.048
	c-0.697-3.078-2.194-5.974-4.379-8.601c-0.068-0.091-0.125-0.13-0.157-0.195l-0.408-0.073c0.051,0.282,0.077,0.594,0.112,0.912
	C396.586,393.39,395.878,396.106,395.122,399.239"/>
<path fill="#010101" d="M231.646,439.958c0.916-0.017,1.783-0.026,2.638,0.015c-3.211-4.571-2.29-10.164-4.058-15.119l0.017-0.22
	c5.329,2.009,8.124,6.701,10.731,11.657c1.862,3.592,3.683,7.274,6.339,9.994c-1.109,0.08-2.153,0.229-3.234,0.388
	c-1.122,0.163-2.275,0.387-3.435,0.692c-2.306,0.135-4.581,0.238-6.732,0.167c-4.035-0.171-7.795-0.855-11.037-2.606
	c-1.501-0.798-2.902-1.849-4.131-3.16c0.949-0.154,1.992-0.343,3.028-0.524C225.037,440.687,228.471,440.116,231.646,439.958"/>
<path fill="#010101" d="M218.646,422.127c1.494-5.036,4.274-10.122,3.865-15.641l0.142-0.22l0.374,0.165
	c0.045,0.036,0.097,0.108,0.101,0.145c0.292,0.5,0.601,0.786,1.136,1.3c3.805,6.707,3.229,14.78,1.274,21.92
	c-0.319,1.176-0.652,2.295-1.062,3.425c-3.423-2.676-7.645-3.358-11.443-5.306c-0.341-0.207-0.676-0.37-1.029-0.582
	c-3.66-2.642-5.886-7.007-6.842-11.183c2.373,0.757,4.701,1.367,6.877,2.186C214.385,419.182,216.647,420.324,218.646,422.127"/>
</svg>
