<?xml version="1.0" encoding="utf-8"?>
<!-- Generator: Adobe Illustrator 16.0.0, SVG Export Plug-In . SVG Version: 6.00 Build 0)  -->
<!DOCTYPE svg PUBLIC "-//W3C//DTD SVG 1.1//EN" "http://www.w3.org/Graphics/SVG/1.1/DTD/svg11.dtd">
<svg version="1.1" id="Layer_1" xmlns="http://www.w3.org/2000/svg" xmlns:xlink="http://www.w3.org/1999/xlink" x="0px" y="0px"
	 width="240px" height="200px" viewBox="0 0 240 200" enable-background="new 0 0 240 200" xml:space="preserve">
<path fill="none" d="M53.764,2645.837"/>
<path fill="none" d="M53.764-599.76"/>
<path fill="#96D5CF" d="M116.143,51.442H51.192c0.001,0.089,0.003,0.176,0.003,0.265v69.966c0,0,2.688,27.323,32.256,35.618
	c28.585,8.02,32.466,17.406,32.692,18.021c0.008,0.021,0.012,0.03,0.012,0.03s3.137-9.758,32.705-18.053
	c29.566-8.295,32.255-35.618,32.255-35.618V51.744c0.001-0.013,0.002-0.025,0.002-0.038c0-0.089,0.002-0.176,0.002-0.265
	L116.143,51.442L116.143,51.442z"/>
<g opacity="0.5">
	<g>
		<g>
			<defs>
				<rect id="SVGID_1_" x="116.14" y="49.694" width="66.811" height="127.397"/>
			</defs>
			<clipPath id="SVGID_2_">
				<use xlink:href="#SVGID_1_"  overflow="visible"/>
			</clipPath>
			<path clip-path="url(#SVGID_2_)" fill="#189995" d="M149.781,158.53c30.402-8.529,33.166-36.624,33.166-36.624V50.005
				c0-0.013,0.001-0.024,0.001-0.039c0-0.092,0.002-0.181,0.003-0.271h-66.809V177.06c0.008,0.021,0.012,0.034,0.012,0.034
				S119.378,167.06,149.781,158.53"/>
		</g>
	</g>
</g>
<g opacity="0.4">
	<g>
		<g>
			<defs>
				<rect id="SVGID_3_" x="40.15" y="16.55" width="152.01" height="160.543"/>
			</defs>
			<clipPath id="SVGID_4_">
				<use xlink:href="#SVGID_3_"  overflow="visible"/>
			</clipPath>
			<path clip-path="url(#SVGID_4_)" fill="#FFFFFF" d="M174.158,30.348c-2.643,4.354-4.93,10.601-5.004,19.224v0.03l-0.004,0.295
				v0.055v0.055v70.903c-0.26,1.438-1.203,5.666-3.914,10.225c-4.133,6.953-10.586,11.701-19.182,14.113
				c-13.943,3.912-23.453,8.354-29.93,12.659c-6.466-4.301-15.955-8.755-29.872-12.659c-8.596-2.412-15.051-7.16-19.183-14.113
				c-2.709-4.559-3.653-8.786-3.913-10.225V49.968l-0.003-0.375c-0.065-8.625-2.356-14.883-5.003-19.244h24.606h23.781h9.198h33.815
				L174.158,30.348 M182.128,16.551h-32.576h-33.815h-9.198H82.758H50.182L40.148,32.004c0,0,9.101,2.807,9.21,17.689
				c0.001,0.091,0.003,0.181,0.003,0.272v71.939c0,0,2.764,28.095,33.166,36.624c29.393,8.245,33.383,17.896,33.615,18.528
				c0.008,0.021,0.012,0.033,0.012,0.033s3.225-10.033,33.627-18.563c30.402-8.53,33.166-36.624,33.166-36.624V50.003
				c0-0.013,0.002-0.025,0.002-0.038c0-0.093,0.002-0.183,0.002-0.272c0.109-14.884,9.211-17.689,9.211-17.689L182.128,16.551z"/>
		</g>
	</g>
</g>
<path fill="#1A1A19" d="M192.162,32.004L182.127,16.55h-32.574h-33.816h-9.198H82.758H50.182L40.149,32.004
	c0,0,9.099,2.807,9.21,17.69v7.523h133.593v-7.523C183.063,34.811,192.162,32.004,192.162,32.004"/>
<path fill="#191818" d="M177.585,24.916l3.394,5.226c-2.297,2.727-4.316,6.396-5.444,11.187H56.777
	c-1.128-4.789-3.149-8.46-5.445-11.187l3.393-5.226h28.033h23.781h9.198h33.815H177.585 M182.128,16.551h-32.576h-33.815h-9.198
	H82.758H50.182L40.148,32.004c0,0,9.101,2.807,9.21,17.689h133.593c0.109-14.884,9.211-17.689,9.211-17.689L182.128,16.551z"/>
<path fill="#191818" d="M177.585,24.916l3.394,5.227c-3.477,4.128-6.326,10.429-6.393,19.498l-0.001,0.06v0.034l-0.002,0.037
	l-0.001,0.182l-0.001,0.026v0.025v71.392c-0.394,2.727-4.037,22.62-27.06,29.079c-5.881,1.648-21.528,6.527-31.394,14.106
	c-5.685-4.468-15.251-9.593-31.342-14.106c-22.9-6.425-26.624-26.115-27.061-29.099v-71.41l-0.002-0.272l-0.001-0.063
	c-0.067-9.063-2.915-15.361-6.392-19.489l3.393-5.226h28.033h23.781h9.198h33.815H177.585 M182.128,16.551h-32.576h-33.815h-9.198
	H82.758H50.182L40.148,32.004c0,0,9.101,2.807,9.21,17.689c0.001,0.091,0.003,0.181,0.003,0.272v71.939
	c0,0,2.764,28.095,33.166,36.624c29.393,8.245,33.383,17.896,33.615,18.528c0.008,0.021,0.012,0.033,0.012,0.033
	s3.225-10.033,33.627-18.563c30.402-8.53,33.166-36.624,33.166-36.624V50.003c0-0.013,0.002-0.025,0.002-0.038
	c0-0.093,0.002-0.183,0.002-0.272c0.109-14.884,9.211-17.689,9.211-17.689L182.128,16.551z"/>
<path fill="#FFFFFF" d="M62.284,46.692V43.44c7.346-7.136,8.881-8.729,8.881-11.02c0-1.535-1.174-2.528-2.679-2.528
	c-1.776,0-3.191,0.813-4.275,2.259l-2.408-2.528c1.625-2.168,4.003-3.313,6.743-3.313c3.884,0,6.714,2.351,6.714,6.081
	c0,3.041-2.048,5.63-7.015,10.748h7.105v3.554H62.284L62.284,46.692z"/>
<polygon fill="#FFFFFF" points="97.083,46.692 94.494,33.326 91.935,46.692 87.72,46.692 83.144,26.611 87.479,26.611 
	90.068,40.582 92.929,26.611 96.089,26.611 98.98,40.582 101.539,26.611 105.874,26.611 101.298,46.692 "/>
<polygon fill="#FFFFFF" points="107.828,46.692 107.828,26.611 119.328,26.611 119.328,30.165 111.862,30.165 111.862,34.711 
	119.117,34.711 119.117,38.263 111.862,38.263 111.862,43.14 119.328,43.14 119.328,46.692 "/>
<polygon fill="#FFFFFF" points="122.307,46.692 122.307,26.611 133.807,26.611 133.807,30.165 126.34,30.165 126.34,34.711 
	133.596,34.711 133.596,38.263 126.34,38.263 126.34,43.14 133.807,43.14 133.807,46.692 "/>
<polygon fill="#FFFFFF" points="146.87,46.692 142.234,38.835 140.818,41.063 140.818,46.692 136.785,46.692 136.785,26.611 
	140.818,26.611 140.818,35.733 146.479,26.611 151.176,26.611 144.764,36.064 151.627,46.692 "/>
<path fill="#FFFFFF" d="M152.137,44.464l1.986-3.101c1.113,1.233,2.859,2.138,4.848,2.138c1.775,0,2.74-0.994,2.74-2.228
	c0-3.522-8.973-2.318-8.973-9.122c0-3.162,2.469-5.871,6.623-5.871c2.438,0,4.546,0.784,6.082,2.228l-1.928,3.012
	c-1.203-1.145-2.738-1.687-4.306-1.687c-1.444,0-2.349,0.813-2.349,2.047c0,3.131,8.941,2.288,8.941,9.063
	c0,3.521-2.408,6.11-6.805,6.11C155.959,47.054,153.732,46.061,152.137,44.464"/>
<path fill="#FFFFFF" d="M117.458,85.137c0.391-0.502,3.571-4.556,3.966-5.01c13.438-15.473,31.014-1.697,30.063-2.439
	c10.289,8.021,12.461,20.223,3.871,31.24c-13.27,17.026-30.961,1.478-29.973,2.247c-2.926-2.28-26.01-20.271-26.01-20.271
	l-0.219,2.966l-5.315-0.225l-2.223-17.934l17.935-2.224l1.767,4.773l-3.074,1.263l27.572,20.495c0,0,3.306,1.793,6.474-2.271
	c3.167-4.064-0.825-7.175-0.825-7.175l-1.578-1.022c0,0-3.35-2.44-6.832,2.03l-3.484,4.47"/>
<path fill="#191818" d="M130.707,95.066c0.484,3.915,4.053,6.694,7.969,6.21c3.914-0.485,6.694-4.054,6.209-7.969
	c-0.484-3.915-4.053-6.694-7.967-6.21C133.002,87.584,130.223,91.151,130.707,95.066"/>
<path fill="#FFFFFF" d="M118.837,87.451l4.588,3.41c-0.108,0.188-0.218,0.382-0.325,0.576L118.837,87.451z"/>
<path fill="#191818" d="M123.523,94.09l-5.813-5.435l2.108-2.527l5.765,4.284l-0.729,1.271c-0.104,0.181-0.205,0.362-0.31,0.551
	L123.523,94.09z"/>
<polygon fill="#191818" points="125.037,92.188 123.289,90.89 123.499,90.525 125.167,92.029 "/>
<path fill="#191818" d="M137.453,100.431c-1.111,0-1.844-0.39-1.873-0.405l-6.012-4.469l3.217-4.125
	c1.413-1.813,2.973-2.732,4.633-2.732c1.387,0,2.303,0.656,2.341,0.685l1.575,1.019c0.05,0.038,1.032,0.813,1.639,2.105
	c0.562,1.199,0.881,3.078-0.787,5.219C140.441,99.961,138.648,100.431,137.453,100.431 M135.689,99.851
	c0.002,0,0.713,0.374,1.764,0.374c1.15,0,2.877-0.456,4.568-2.626c1.287-1.65,1.545-3.336,0.764-5.004
	c-0.585-1.249-1.561-2.018-1.57-2.025l-1.572-1.017c-0.014-0.01-0.908-0.647-2.225-0.647c-1.594,0-3.1,0.893-4.473,2.653
	l-3.084,3.959L135.689,99.851z"/>
<path fill="#96D5CF" d="M145.105,83.202c8.394,5.708,7.535,14.323,3.32,20.018c-4.729,6.395-11.994,6.281-16.507,3.011
	c-2.135-1.551-28.199-21.344-40.405-30.615l17.849-2.213l1.767,4.772l-3.074,1.265l10.779,8.013c0,0,10.547,8.513,10.879,8.087
	l5.914,4.396c0,0,3.308,1.794,6.476-2.271c3.166-4.063-0.826-7.176-0.826-7.176l-1.578-1.021c0,0-3.35-2.439-6.833,2.029
	c-1.892,2.428-2.757,3.536-3.151,4.043l-4.615-3.432l-1.574-1.418C129.824,79.834,138.105,78.443,145.105,83.202"/>
<path fill="#191818" d="M140.404,118.773c-8.563,0.001-15.404-5.75-16.07-6.326l-23.542-18.352l-0.111,1.484l-8.304-0.347
	l-2.599-20.957l20.867-2.587l2.773,7.49l-1.849,0.76l4.971,3.693c0.93-1.185,3.263-4.156,3.638-4.589
	c6.019-6.93,13.293-9.813,21.029-8.341c2.922,0.556,7.463,2.051,12.507,6.014c5.835,4.586,14.231,18.74,2.944,33.224
	c-4.131,5.3-9.018,8.243-14.529,8.754C141.549,118.749,140.973,118.773,140.404,118.773 M97.959,87.708l28.518,22.231
	c0.069,0.061,7.192,6.228,15.371,5.471c4.56-0.43,8.668-2.951,12.209-7.496c10.728-13.764,0.852-26.063-2.382-28.602
	c-14.149-11.121-24.247-3.587-29.008,1.896c-0.282,0.326-2.435,3.06-3.481,4.395l10.406,7.736l2.161-2.771
	c3.531-4.532,7.5-3.52,9.104-2.35l1.621,1.054c0.134,0.104,1.332,1.066,2.08,2.665c1.053,2.248,0.709,4.672-0.969,6.823
	c-3.186,4.086-6.99,3.56-8.561,2.707l-0.198-0.126l-29.913-22.235l4.3-1.768l-0.761-2.055l-15.002,1.858l1.849,14.911l2.324,0.1
	L97.959,87.708z M136.672,98.601c0.414,0.173,2.291,0.736,4.316-1.865c1.916-2.457,0.176-4.268-0.494-4.825l-1.504-0.973
	c-0.41-0.275-2.313-1.324-4.637,1.657l-2.113,2.712L136.672,98.601z"/>
<path fill="#FFFFFF" d="M115,123.282c-0.391,0.502-3.572,4.557-3.966,5.01c-13.438,15.473-31.015,1.697-30.063,2.439
	c-10.29-8.021-12.461-20.222-3.873-31.24c13.271-17.025,30.963-1.478,29.975-2.247c2.926,2.28,26.009,20.271,26.009,20.271
	l0.221-2.964l5.313,0.223l2.224,17.934l-17.934,2.224l-1.768-4.773l3.073-1.262L96.64,108.4c0,0-3.307-1.793-6.474,2.271
	c-3.167,4.064,0.825,7.176,0.825,7.176l1.579,1.021c0,0,3.349,2.44,6.833-2.029l3.484-4.471"/>
<path fill="#191818" d="M140.404,118.773c-8.563,0.001-15.404-5.75-16.07-6.326l-23.542-18.352l-0.111,1.484l-8.304-0.347
	l-2.599-20.957l20.867-2.587l2.773,7.49l-1.849,0.76l4.971,3.693c0.93-1.185,3.263-4.156,3.638-4.589
	c6.019-6.93,13.293-9.813,21.029-8.341c2.922,0.556,7.463,2.051,12.507,6.014c5.835,4.586,14.231,18.74,2.944,33.224
	c-4.131,5.3-9.018,8.243-14.529,8.754C141.549,118.749,140.973,118.773,140.404,118.773 M97.959,87.708l28.518,22.231
	c0.069,0.061,7.192,6.228,15.371,5.471c4.56-0.43,8.668-2.951,12.209-7.496c10.728-13.764,0.852-26.063-2.382-28.602
	c-14.149-11.121-24.247-3.587-29.008,1.896c-0.282,0.326-2.435,3.06-3.481,4.395l10.406,7.736l2.161-2.771
	c3.531-4.532,7.5-3.52,9.104-2.35l1.621,1.054c0.134,0.104,1.332,1.066,2.08,2.665c1.053,2.248,0.709,4.672-0.969,6.823
	c-3.186,4.086-6.99,3.56-8.561,2.707l-0.198-0.126l-29.913-22.235l4.3-1.768l-0.761-2.055l-15.002,1.858l1.849,14.911l2.324,0.1
	L97.959,87.708z M136.672,98.601c0.414,0.173,2.291,0.736,4.316-1.865c1.916-2.457,0.176-4.268-0.494-4.825l-1.504-0.973
	c-0.41-0.275-2.313-1.324-4.637,1.657l-2.113,2.712L136.672,98.601z"/>
<path fill="#FFFFFF" d="M115,123.282c-0.391,0.502-3.572,4.557-3.966,5.01c-13.438,15.473-31.015,1.697-30.063,2.439
	c-10.29-8.021-12.461-20.222-3.873-31.24c13.271-17.025,30.963-1.478,29.975-2.247c2.926,2.28,26.009,20.271,26.009,20.271
	l0.221-2.964l5.313,0.223l2.224,17.934l-17.934,2.224l-1.768-4.773l3.073-1.262L96.64,108.4c0,0-3.307-1.793-6.474,2.271
	c-3.167,4.064,0.825,7.176,0.825,7.176l1.579,1.021c0,0,3.349,2.44,6.833-2.029l3.484-4.471"/>
<path fill="#191818" d="M101.75,113.353c-0.485-3.915-4.052-6.693-7.968-6.21c-3.914,0.485-6.695,4.054-6.209,7.97
	c0.485,3.914,4.052,6.693,7.967,6.209C99.455,120.835,102.234,117.268,101.75,113.353"/>
<path fill="#FFFFFF" d="M113.621,120.968l-4.588-3.409c0.109-0.189,0.217-0.383,0.325-0.576L113.621,120.968z"/>
<path fill="#191818" d="M112.637,122.291l-5.764-4.283l0.73-1.271c0.104-0.181,0.206-0.364,0.309-0.55l1.022-1.859l5.812,5.438
	L112.637,122.291z"/>
<polygon fill="#191818" points="108.958,117.894 107.29,116.389 107.42,116.229 109.168,117.53 "/>
<path fill="#191818" d="M95.039,119.721c-1.386,0-2.303-0.655-2.341-0.684l-1.575-1.02c-0.048-0.036-4.044-3.227-0.85-7.325
	c1.742-2.234,3.534-2.704,4.73-2.704c1.112,0,1.843,0.391,1.874,0.405l6.011,4.468l-3.216,4.126
	C98.258,118.802,96.699,119.721,95.039,119.721 M95.003,108.194c-1.15,0-2.876,0.455-4.568,2.625
	c-3.068,3.938,0.768,7.001,0.807,7.03l1.573,1.017c0.013,0.011,0.908,0.647,2.224,0.647c1.593,0,3.098-0.892,4.471-2.653l3.086-3.96
	l-5.83-4.332C96.764,108.568,96.054,108.194,95.003,108.194"/>
<path fill="#96D5CF" d="M87.352,125.217c-8.394-5.708-7.536-14.323-3.322-20.018c4.729-6.395,11.995-6.281,16.507-3.009
	c2.135,1.549,28.199,21.342,40.404,30.613l-17.85,2.213l-1.767-4.772l3.073-1.263l-10.778-8.015c0,0-10.547-8.513-10.879-8.087
	l-5.914-4.396c0,0-3.306-1.793-6.474,2.271c-3.167,4.064,0.825,7.176,0.825,7.176l1.579,1.021c0,0,3.349,2.439,6.833-2.029
	c1.892-2.428,2.756-3.536,3.151-4.043l4.616,3.433l1.574,1.419C102.633,128.585,94.351,129.976,87.352,125.217"/>
<path fill="#191818" d="M95.154,138.089c-1.286,0-2.588-0.125-3.904-0.375c-2.921-0.556-7.462-2.051-12.507-6.014
	c-5.835-4.585-14.231-18.74-2.944-33.223c4.13-5.3,9.018-8.243,14.529-8.754c9.347-0.878,17.086,5.634,17.795,6.248l23.543,18.351
	l0.109-1.484l8.305,0.348l2.6,20.956l-20.867,2.587l-2.771-7.49l1.847-0.76l-4.969-3.693c-0.942,1.201-3.272,4.166-3.64,4.589
	C107.284,135.124,101.426,138.089,95.154,138.089 M92.031,92.944c-0.47,0-0.943,0.021-1.423,0.064
	c-4.559,0.431-8.667,2.95-12.209,7.495c-10.727,13.765-0.851,26.063,2.382,28.604c14.152,11.116,24.248,3.584,29.008-1.896
	c0.283-0.326,2.466-3.1,3.481-4.394l-10.407-7.737l-2.159,2.771c-3.532,4.53-7.5,3.52-9.104,2.349l-1.623-1.053
	c-2.127-1.657-4.179-5.555-1.111-9.489c3.186-4.086,6.992-3.558,8.561-2.707l0.198,0.126l29.915,22.238l-4.302,1.764l0.761,2.057
	L139,131.275l-1.85-14.911l-2.322-0.1l-0.33,4.444L105.979,98.48C105.915,98.422,99.594,92.944,92.031,92.944 M91.963,116.511
	l1.504,0.974c0.411,0.274,2.312,1.322,4.637-1.659l2.113-2.711l-4.431-3.294c-0.414-0.171-2.29-0.738-4.318,1.863
	C89.552,114.142,91.292,115.951,91.963,116.511"/>
<polyline fill="#FFFFFF" points="92.459,82.47 93.831,93.621 99.146,93.843 99.366,90.879 103.304,93.928 "/>
<polygon fill="#191818" points="100.673,95.557 92.365,95.209 90.822,82.671 94.097,82.269 95.298,92.032 97.619,92.129 
	97.948,87.697 104.313,92.624 102.294,95.232 100.783,94.063 "/>
<path fill="#191818" d="M137.258,71.974c7.449,0,13.512,4.529,15.438,6.042c4.381,3.442,13.816,16.604,2.664,30.912
	c-4.852,6.224-10.159,8.196-14.943,8.196c-0.512,0-1.018-0.022-1.516-0.065l1.939,15.65l-17.936,2.223l-1.766-4.772l3.073-1.264
	l-17.042-12.669l7.829,7.058c-0.392,0.502-3.572,4.555-3.966,5.01c-5.356,6.166-10.899,8.152-15.834,8.152
	c-7.45,0-13.512-4.528-15.438-6.042c-4.38-3.442-13.817-16.603-2.663-30.911c4.85-6.225,10.158-8.197,14.942-8.196
	c0.511,0,1.018,0.021,1.516,0.063l-1.94-15.648l17.934-2.224l1.767,4.773l-3.074,1.262l17.042,12.669l-7.829-7.056
	c0.392-0.502,3.571-4.556,3.967-5.01C126.779,73.961,132.322,71.974,137.258,71.974 M137.643,100.414
	c1.242,0,2.965-0.506,4.647-2.665c3.167-4.064-0.825-7.175-0.825-7.175l-1.578-1.022c0,0-0.912-0.665-2.281-0.665
	c-1.252,0-2.887,0.559-4.553,2.695c-1.892,2.427-2.754,3.535-3.15,4.042l5.914,4.396
	C135.816,100.02,136.543,100.414,137.643,100.414 M133.082,117.516l0.133-1.783c-4.666-1.76-7.83-4.558-7.83-4.558
	c-2.927-2.28-26.01-20.271-26.01-20.271l-0.133,1.784c4.667,1.76,7.83,4.558,7.83,4.558
	C109.998,99.524,133.082,117.516,133.082,117.516 M94.852,119.533c1.253,0,2.887-0.56,4.552-2.695
	c1.893-2.427,2.756-3.535,3.151-4.042l-5.914-4.396c0,0-0.727-0.395-1.824-0.395c-1.245,0-2.967,0.506-4.649,2.665
	c-3.168,4.063,0.824,7.175,0.824,7.175l1.58,1.022C92.571,118.868,93.483,119.533,94.852,119.533 M137.258,69.466
	c-6.566,0-12.531,3.033-17.729,9.018c-0.336,0.387-2.063,2.576-3.15,3.963l-3.077-2.286l1.209-0.497l-0.84-2.271l-1.767-4.772
	l-0.69-1.863L109.243,71l-17.935,2.224l-2.489,0.309l0.309,2.489l1.588,12.813c-5.941,0.393-11.182,3.456-15.596,9.119
	c-11.685,14.991-2.963,29.668,3.092,34.426c5.478,4.303,11.352,6.578,16.988,6.578c6.567,0,12.531-3.033,17.728-9.018
	c0.33-0.381,2.059-2.576,3.149-3.964l3.077,2.287l-1.209,0.496l0.841,2.271l1.767,4.773l0.689,1.863l1.973-0.245l17.934-2.224
	l2.49-0.309l-0.31-2.489l-1.589-12.812c5.941-0.395,11.184-3.457,15.596-9.119c11.688-14.993,2.963-29.668-3.092-34.426
	C148.77,71.74,142.895,69.466,137.258,69.466 M133.459,95.142l1.573-2.018c0.614-0.789,1.56-1.729,2.573-1.729
	c0.414,0,0.731,0.154,0.832,0.208l0.086,0.072v-0.017l1.461,0.942c0.861,0.736,1.606,1.962,0.326,3.604
	c-0.877,1.127-1.776,1.699-2.67,1.699c-0.252,0-0.455-0.048-0.576-0.085L133.459,95.142z M92.474,115.816
	c-0.862-0.735-1.607-1.964-0.328-3.604c0.879-1.127,1.777-1.699,2.671-1.699c0.238,0,0.455,0.046,0.561,0.072l3.621,2.691
	l-1.573,2.019c-0.615,0.789-1.56,1.729-2.574,1.729c-0.44,0-0.8-0.183-0.802-0.184l-0.057-0.042l-0.059-0.038L92.474,115.816z"/>
<path fill="#1A1A19" d="M137.886,183.194v-16.477c-18.688,7.312-20.967,14.375-20.967,14.375"/>
<path fill="#1A1A19" d="M116.907,181.06c-0.194-0.527-3.011-7.318-20.954-14.34v16.475"/>
<path fill="#1A1A19" d="M92.638,180.996v-16.513c-2.791-0.993-5.886-1.983-9.345-2.953c-8.565-2.403-14.936-6.358-19.669-10.802"/>
<path fill="#1A1A19" d="M63.624,150.729v8.097c8.119,9.569,19.146,15.857,29.014,22.171"/>
<path fill="#1A1A19" d="M141.203,180.996c9.867-6.313,20.895-12.602,29.014-22.17v-8.099c-4.734,4.442-11.105,8.398-19.67,10.803
	c-3.461,0.971-6.553,1.961-9.344,2.954"/>
<path fill="#1A1A19" d="M141.203,164.484v16.512"/>
<path fill="#020202" d="M41.807,147.958c0.916-0.017,1.783-0.026,2.638,0.015c-3.211-4.57-2.291-10.164-4.058-15.118l0.017-0.221
	c5.329,2.009,8.124,6.701,10.731,11.657c1.861,3.592,3.683,7.274,6.339,9.994c-1.109,0.08-2.153,0.229-3.234,0.388
	c-1.122,0.163-2.276,0.387-3.435,0.692c-2.306,0.135-4.581,0.238-6.733,0.167c-4.034-0.171-7.794-0.855-11.036-2.606
	c-1.502-0.798-2.902-1.849-4.131-3.16c0.949-0.153,1.992-0.343,3.028-0.523C35.196,148.688,38.63,148.116,41.807,147.958"/>
<path fill="#020202" d="M31.751,130.412c1.062,1.397,2.535,2.592,3.517,4.19c0.274,0.796,0.599,1.552,0.922,2.329
	c0.784,2.101,1.378,4.127,0.792,5.831c-2.665-1.042-5.366-2.281-7.722-4.481c-1.341-1.617-2.338-3.361-3.035-5.244
	c-1.11-2.955-1.454-6.195-1.076-9.59c0.008-0.114,0.033-0.179,0.024-0.252l0.3-0.285c0.113,0.264,0.263,0.539,0.409,0.824
	C27.31,126.332,29.396,128.211,31.751,130.412"/>
<path fill="#020202" d="M191.932,147.958c-0.916-0.017-1.783-0.026-2.639,0.015c3.211-4.57,2.289-10.164,4.059-15.118l-0.018-0.221
	c-5.329,2.009-8.125,6.701-10.73,11.657c-1.861,3.592-3.684,7.274-6.34,9.994c1.109,0.08,2.152,0.229,3.234,0.388
	c1.121,0.163,2.273,0.387,3.436,0.692c2.306,0.135,4.58,0.238,6.73,0.167c4.035-0.171,7.795-0.855,11.037-2.606
	c1.502-0.798,2.902-1.849,4.131-3.16c-0.948-0.153-1.991-0.343-3.027-0.523C198.539,148.688,195.105,148.116,191.932,147.958"/>
<path fill="#020202" d="M203.412,130.412c-1.063,1.397-2.535,2.592-3.518,4.19c-0.273,0.796-0.601,1.552-0.922,2.329
	c-0.785,2.101-1.379,4.127-0.793,5.831c2.666-1.042,5.366-2.281,7.721-4.481c1.342-1.617,2.339-3.361,3.035-5.244
	c1.111-2.955,1.454-6.195,1.076-9.59c-0.009-0.114-0.033-0.179-0.024-0.252l-0.3-0.285c-0.113,0.264-0.264,0.539-0.409,0.824
	C207.854,126.332,205.768,128.211,203.412,130.412"/>
</svg>
