<?xml version="1.0" encoding="utf-8"?>
<!-- Generator: Adobe Illustrator 16.0.0, SVG Export Plug-In . SVG Version: 6.00 Build 0)  -->
<!DOCTYPE svg PUBLIC "-//W3C//DTD SVG 1.1//EN" "http://www.w3.org/Graphics/SVG/1.1/DTD/svg11.dtd">
<svg version="1.1" id="Layer_1" xmlns="http://www.w3.org/2000/svg" xmlns:xlink="http://www.w3.org/1999/xlink" x="0px" y="0px"
	 width="612px" height="792px" viewBox="0 0 612 792" enable-background="new 0 0 612 792" xml:space="preserve">
<path fill="#F26C7C" d="M306.139,350.51h-64.687c0,0.088,0.002,0.175,0.002,0.264v69.682c0,0,2.677,27.213,32.125,35.474
	c28.47,7.987,32.334,17.335,32.56,17.948c0.008,0.021,0.011,0.031,0.011,0.031s3.123-9.718,32.571-17.979
	c29.448-8.261,32.125-35.474,32.125-35.474v-69.644c0-0.013,0.001-0.024,0.001-0.038c0-0.089,0.002-0.176,0.002-0.264H306.139z"/>
<g opacity="0.6">
	<g>
		<defs>
			<rect id="SVGID_1_" x="306.14" y="348.51" width="66.811" height="127.4"/>
		</defs>
		<clipPath id="SVGID_2_">
			<use xlink:href="#SVGID_1_"  overflow="visible"/>
		</clipPath>
		<path clip-path="url(#SVGID_2_)" fill="#DF2E54" d="M339.777,457.346c30.402-8.528,33.166-36.623,33.166-36.623v-71.901
			c0.001-0.013,0.002-0.026,0.002-0.039c0-0.092,0.002-0.181,0.002-0.272h-66.809v127.365c0.008,0.022,0.012,0.034,0.012,0.034
			S309.375,465.875,339.777,457.346"/>
	</g>
</g>
<g opacity="0.4">
	<g>
		<defs>
			<rect id="SVGID_3_" x="230.14" y="315.37" width="152.021" height="160.54"/>
		</defs>
		<clipPath id="SVGID_4_">
			<use xlink:href="#SVGID_3_"  overflow="visible"/>
		</clipPath>
		<path clip-path="url(#SVGID_4_)" fill="#FFFFFF" d="M364.154,329.164c-2.639,4.35-4.924,10.589-5.002,19.195l-0.002,0.031
			l-0.003,0.321v0.055v0.055v70.951c-0.224,1.224-1.069,5.082-3.448,9.367c-4.105,7.396-10.717,12.417-19.648,14.923
			c-13.943,3.912-23.451,8.355-29.929,12.659c-6.466-4.301-15.954-8.755-29.872-12.659c-8.596-2.412-15.051-7.16-19.183-14.113
			c-2.71-4.559-3.653-8.787-3.913-10.226v-70.941l-0.003-0.376c-0.065-8.624-2.356-14.881-5.003-19.242h24.605h23.781h9.198h33.814
			H364.154 M372.124,315.366h-32.576h-33.814h-9.198h-23.781h-32.576l-10.034,15.454c0,0,9.1,2.807,9.21,17.689
			c0.001,0.091,0.003,0.181,0.003,0.272v71.94c0,0,2.764,28.095,33.166,36.624c29.393,8.245,33.383,17.896,33.615,18.528
			c0.008,0.022,0.012,0.033,0.012,0.033s3.225-10.033,33.627-18.562c30.402-8.529,33.167-36.624,33.167-36.624v-71.901
			c0-0.013,0.001-0.025,0.001-0.039c0-0.092,0.002-0.182,0.002-0.272c0.111-14.883,9.211-17.689,9.211-17.689L372.124,315.366z"/>
	</g>
</g>
<path fill="#1A1A19" d="M382.158,330.82l-10.034-15.454h-32.576h-33.814h-9.198h-23.781h-32.576l-10.034,15.454
	c0,0,9.1,2.807,9.211,17.689v7.525h133.593v-7.525C373.059,333.627,382.158,330.82,382.158,330.82"/>
<path fill="#191818" d="M367.581,323.732l3.394,5.225c-2.297,2.726-4.317,6.396-5.445,11.187H246.773
	c-1.128-4.79-3.149-8.461-5.444-11.187l3.392-5.225h28.033h23.781h9.198h33.814H367.581 M372.124,315.366h-32.576h-33.814h-9.198
	h-23.781h-32.576l-10.034,15.454c0,0,9.1,2.807,9.21,17.689h133.593c0.111-14.883,9.211-17.689,9.211-17.689L372.124,315.366z"/>
<path fill="#191818" d="M367.581,323.732l3.394,5.225c-3.477,4.13-6.325,10.43-6.393,19.5l-0.001,0.059v0.017l-0.002,0.036
	l-0.001,0.2l-0.001,0.027v0.025v71.392c-0.392,2.726-4.037,22.619-27.06,29.078c-5.879,1.649-21.528,6.528-31.393,14.107
	c-5.685-4.468-15.25-9.593-31.342-14.107c-22.9-6.425-26.624-26.116-27.06-29.098v-71.411l-0.002-0.267l-0.001-0.068
	c-0.067-9.064-2.915-15.361-6.391-19.49l3.392-5.225h28.033h23.781h9.198h33.814H367.581 M372.124,315.366h-32.576h-33.814h-9.198
	h-23.781h-32.576l-10.034,15.454c0,0,9.1,2.807,9.21,17.689c0.001,0.091,0.003,0.181,0.003,0.272v71.94
	c0,0,2.764,28.095,33.166,36.624c29.393,8.245,33.383,17.896,33.615,18.528c0.008,0.022,0.012,0.033,0.012,0.033
	s3.225-10.033,33.627-18.562c30.402-8.529,33.167-36.624,33.167-36.624v-71.901c0-0.013,0.001-0.025,0.001-0.039
	c0-0.092,0.002-0.182,0.002-0.272c0.111-14.883,9.211-17.689,9.211-17.689L372.124,315.366z"/>
<path fill="#FFFFFF" d="M261.823,342.618l2.408-2.528c1.024,1.324,2.619,2.197,4.305,2.197c2.108,0,3.071-1.113,3.071-2.68
	c0-1.866-1.294-2.529-3.251-2.529c-0.662,0-1.566,0-1.867,0.062v-3.644c0.301,0.03,1.294,0.03,1.776,0.03
	c1.837,0,3.071-0.753,3.071-2.317c0-1.687-1.204-2.5-2.95-2.5c-1.565,0-2.98,0.723-4.004,2.018l-2.288-2.348
	c1.444-2.018,3.732-3.252,6.623-3.252c3.974,0,6.593,1.896,6.593,5.449c0,2.288-1.716,4.154-3.793,4.576
	c2.047,0.301,4.094,2.107,4.094,4.817c0,3.491-2.679,5.899-6.894,5.899C265.526,345.869,263.087,344.455,261.823,342.618"/>
<path fill="#FFFFFF" d="M284.76,345.508v-20.08h6.473c5.539,0,8.731,4.154,8.731,10.056s-3.162,10.024-8.731,10.024H284.76z
	 M295.839,335.483c0-3.974-1.565-6.503-4.606-6.503h-2.438v12.976h2.438C294.214,341.956,295.839,339.308,295.839,335.483"/>
<path fill="#FFFFFF" d="M312.665,345.508l-0.933-3.552h-6.172l-0.934,3.552h-4.365l5.961-20.08h4.877l5.961,20.08H312.665z
	 M308.661,329.673l-2.288,8.73h4.576L308.661,329.673z"/>
<polygon fill="#FFFFFF" points="321.665,345.508 321.665,337.229 315.463,325.428 319.919,325.428 323.682,333.496 327.444,325.428 
	331.9,325.428 325.699,337.229 325.699,345.508 "/>
<path fill="#FFFFFF" d="M331.869,343.28l1.986-3.101c1.114,1.234,2.86,2.138,4.848,2.138c1.775,0,2.74-0.993,2.74-2.228
	c0-3.523-8.973-2.318-8.973-9.122c0-3.162,2.469-5.871,6.624-5.871c2.438,0,4.545,0.783,6.081,2.228l-1.927,3.012
	c-1.204-1.145-2.74-1.687-4.306-1.687c-1.444,0-2.348,0.813-2.348,2.047c0,3.132,8.941,2.288,8.941,9.063
	c0,3.521-2.408,6.11-6.805,6.11C335.691,345.869,333.465,344.877,331.869,343.28"/>
<path fill="#191818" d="M289.794,376.856c0,2.099-1.701,3.8-3.8,3.8s-3.799-1.701-3.799-3.8s1.701-3.8,3.799-3.8
	S289.794,374.758,289.794,376.856"/>
<path fill="#FFFFFF" d="M316.903,436.655c-14.856,6.186-31.914-0.844-38.099-15.7s0.844-31.914,15.701-38.1
	s31.914,0.845,38.1,15.701C338.789,413.412,331.76,430.471,316.903,436.655"/>
<path fill="#F26C7C" d="M305.704,382.163c-15.239,0-27.593,12.354-27.593,27.593s12.354,27.593,27.593,27.593
	c15.239,0,27.593-12.354,27.593-27.593S320.943,382.163,305.704,382.163 M305.704,430.98c-11.722,0-21.225-9.502-21.225-21.225
	s9.503-21.226,21.225-21.226s21.226,9.503,21.226,21.226S317.426,430.98,305.704,430.98"/>
<path fill="#F26C7C" d="M305.704,394.897c-8.206,0-14.858,6.652-14.858,14.858s6.652,14.857,14.858,14.857
	s14.858-6.651,14.858-14.857S313.91,394.897,305.704,394.897 M305.704,418.246c-4.689,0-8.49-3.801-8.49-8.49s3.801-8.49,8.49-8.49
	c4.689,0,8.49,3.801,8.49,8.49S310.394,418.246,305.704,418.246"/>
<path fill="#191818" d="M305.704,404.893c-2.686,0-4.863,2.178-4.863,4.863s2.177,4.862,4.863,4.862
	c2.685,0,4.863-2.177,4.863-4.862S308.389,404.893,305.704,404.893"/>
<path fill="#191818" d="M305.718,445.214c-14.366,0-27.217-8.57-32.739-21.833c-7.513-18.045,1.056-38.838,19.101-46.352
	c4.354-1.813,8.933-2.731,13.611-2.731c14.367,0,27.218,8.569,32.74,21.833c3.639,8.742,3.656,18.377,0.049,27.132
	c-3.608,8.754-10.409,15.58-19.151,19.219C314.976,444.295,310.396,445.214,305.718,445.214 M305.69,378.442
	c-4.128,0-8.172,0.813-12.018,2.413c-15.937,6.635-23.503,24.996-16.868,40.933c4.876,11.713,16.225,19.28,28.913,19.28
	c4.128,0,8.172-0.812,12.018-2.413c7.72-3.214,13.727-9.241,16.912-16.973c3.187-7.731,3.17-16.24-0.043-23.959
	C329.728,386.011,318.379,378.442,305.69,378.442"/>
<path fill="#FFFFFF" d="M305.691,376.37v5.269c11.393,0,21.584,6.796,25.963,17.313c5.957,14.31-0.838,30.796-15.146,36.753
	c-3.455,1.439-7.085,2.168-10.79,2.168c-11.393,0-21.585-6.796-25.964-17.313c-5.957-14.31,0.838-30.796,15.147-36.753
	c3.455-1.439,7.085-2.168,10.79-2.168V376.37 M305.691,376.37c-4.275,0-8.622,0.827-12.815,2.573
	c-17.018,7.084-25.07,26.623-17.985,43.641c5.34,12.824,17.751,20.558,30.827,20.558c4.274,0,8.621-0.827,12.815-2.573
	c17.017-7.084,25.068-26.623,17.983-43.641C331.178,384.104,318.766,376.37,305.691,376.37"/>
<path fill="#191818" d="M305.718,445.214c-14.366,0-27.217-8.57-32.739-21.833c-7.513-18.045,1.056-38.838,19.101-46.352
	c4.354-1.813,8.933-2.731,13.611-2.731c14.367,0,27.218,8.569,32.74,21.833c3.639,8.742,3.656,18.377,0.049,27.132
	c-3.608,8.754-10.409,15.58-19.151,19.219C314.976,444.295,310.396,445.214,305.718,445.214 M305.69,378.442
	c-4.128,0-8.172,0.813-12.018,2.413c-15.937,6.635-23.503,24.996-16.868,40.933c4.876,11.713,16.225,19.28,28.913,19.28
	c4.128,0,8.172-0.812,12.018-2.413c7.72-3.214,13.727-9.241,16.912-16.973c3.187-7.731,3.17-16.24-0.043-23.959
	C329.728,386.011,318.379,378.442,305.69,378.442"/>
<path fill="#191818" d="M305.704,384.818c0,0-0.002,0.021-0.004,0.053h0.01C305.706,384.839,305.704,384.818,305.704,384.818"/>
<path fill="#191818" d="M304.886,442.315h1.636c0.693,0,1.255-0.562,1.255-1.254v-5.435c0-0.693-0.563-1.254-1.255-1.254h-1.636
	c-0.693,0-1.254,0.561-1.254,1.254v5.435C303.632,441.754,304.193,442.315,304.886,442.315"/>
<path fill="#191818" d="M305.388,384.846c0.002,0.014,0.537,0.025,1.196,0.025c0.658,0,1.192-0.561,1.192-1.254v-5.77
	c0-0.692-0.562-1.254-1.254-1.254h-1.636c-0.692,0-1.254,0.562-1.254,1.254v5.77c0,0.693,0.391,1.254,0.874,1.254
	c0.483,0,0.876-0.012,0.877-0.025C305.384,384.83,305.387,384.83,305.388,384.846"/>
<path fill="#191818" d="M338.565,410.272v-1.636c0-0.693-0.563-1.255-1.255-1.255h-5.686c-0.693,0-1.254,0.562-1.254,1.255v1.636
	c0,0.693,0.561,1.255,1.254,1.255h5.686C338.003,411.527,338.565,410.966,338.565,410.272"/>
<path fill="#191818" d="M272.843,408.637v1.636c0,0.692,0.562,1.255,1.254,1.255h5.519c0.693,0,1.254-0.563,1.254-1.255v-1.636
	c0-0.693-0.561-1.254-1.254-1.254h-5.519C273.405,407.383,272.843,407.943,272.843,408.637"/>
<path fill="#191818" d="M289.767,389.771c-0.681-1.044-0.387-2.442,0.657-3.125c1.044-0.681,2.443-0.387,3.124,0.657
	c0.682,1.045,11.682,22.031,11.682,22.031S290.448,390.814,289.767,389.771"/>
<path fill="#F26C7C" d="M312.683,369.922c0,3.711-3.009,6.719-6.72,6.719c-3.71,0-6.718-3.008-6.718-6.719
	c0-3.71,3.008-6.719,6.718-6.719C309.674,363.203,312.683,366.212,312.683,369.922"/>
<path fill="#191818" d="M328.878,419.036c1.193,0.364,2.454-0.308,2.818-1.5s-0.309-2.455-1.5-2.819
	c-1.193-0.363-24.412-5.089-24.412-5.089S327.686,418.672,328.878,419.036"/>
<path fill="#191818" d="M306.154,377.945c-4.437,0-8.046-3.609-8.046-8.046s3.609-8.046,8.046-8.046
	c4.438,0,8.046,3.609,8.046,8.046S310.592,377.945,306.154,377.945 M306.154,365.998c-2.151,0-3.901,1.75-3.901,3.901
	s1.75,3.901,3.901,3.901c2.151,0,3.901-1.75,3.901-3.901S308.306,365.998,306.154,365.998"/>
<path fill="#191818" d="M319.778,377.599l2.588-3.061c0.895-1.058,2.478-1.19,3.535-0.296l12.03,10.171
	c1.058,0.894,1.191,2.477,0.296,3.535l-2.587,3.061L319.778,377.599z"/>
</svg>
