<?xml version="1.0" encoding="utf-8"?>
<!-- Generator: Adobe Illustrator 16.0.0, SVG Export Plug-In . SVG Version: 6.00 Build 0)  -->
<!DOCTYPE svg PUBLIC "-//W3C//DTD SVG 1.1//EN" "http://www.w3.org/Graphics/SVG/1.1/DTD/svg11.dtd">
<svg version="1.1" id="Layer_1" xmlns="http://www.w3.org/2000/svg" xmlns:xlink="http://www.w3.org/1999/xlink" x="0px" y="0px"
	 width="240px" height="200px" viewBox="0 0 240 200" enable-background="new 0 0 240 200" xml:space="preserve">
<path fill="none" d="M53.764,2645.837"/>
<path fill="none" d="M53.764-599.76"/>
<path fill="#F26D7C" d="M117.68,49.816H52.265c0,0.089,0.002,0.177,0.002,0.267v70.466c0,0,2.707,27.519,32.486,35.871
	c28.79,8.077,32.698,17.53,32.927,18.149c0.008,0.021,0.01,0.032,0.01,0.032s3.16-9.827,32.938-18.183
	c29.778-8.354,32.485-35.871,32.485-35.871V50.12c0-0.013,0.002-0.025,0.002-0.038c0-0.09,0.002-0.178,0.003-0.267L117.68,49.816
	L117.68,49.816z"/>
<g opacity="0.6">
	<g>
		<g>
			<defs>
				<rect id="SVGID_1_" x="117.68" y="48.51" width="66.812" height="127.4"/>
			</defs>
			<clipPath id="SVGID_2_">
				<use xlink:href="#SVGID_1_"  overflow="visible"/>
			</clipPath>
			<path clip-path="url(#SVGID_2_)" fill="#DF2F55" d="M151.316,157.346c30.403-8.527,33.166-36.623,33.166-36.623v-71.9
				c0.002-0.014,0.002-0.026,0.002-0.039c0-0.092,0.002-0.182,0.002-0.272h-66.809v127.365c0.008,0.022,0.012,0.034,0.012,0.034
				S120.916,165.875,151.316,157.346"/>
		</g>
	</g>
</g>
<g opacity="0.4">
	<g>
		<g>
			<defs>
				<rect id="SVGID_3_" x="41.68" y="15.37" width="152.021" height="160.54"/>
			</defs>
			<clipPath id="SVGID_4_">
				<use xlink:href="#SVGID_3_"  overflow="visible"/>
			</clipPath>
			<path clip-path="url(#SVGID_4_)" fill="#FFFFFF" d="M175.693,29.164c-2.642,4.354-4.93,10.604-5.002,19.229v0.005l-0.004,0.259
				v0.083v0.082v70.901c-0.261,1.438-1.205,5.667-3.914,10.227c-4.133,6.953-10.586,11.701-19.184,14.113
				c-13.943,3.911-23.451,8.354-29.929,12.658c-6.466-4.301-15.954-8.755-29.872-12.658c-8.596-2.412-15.05-7.16-19.183-14.113
				c-2.709-4.56-3.653-8.787-3.913-10.227v-70.94l-0.003-0.375c-0.064-8.625-2.356-14.882-5.003-19.243h24.605h23.781h9.198h33.814
				H175.693 M183.664,15.366h-32.576h-33.814h-9.198H84.295H51.719L41.685,30.82c0,0,9.1,2.807,9.21,17.688
				c0.001,0.091,0.003,0.182,0.003,0.272v71.939c0,0,2.764,28.096,33.166,36.624c29.393,8.245,33.383,17.896,33.616,18.528
				c0.008,0.021,0.012,0.033,0.012,0.033s3.225-10.033,33.627-18.563c30.402-8.528,33.166-36.624,33.166-36.624v-71.9
				c0-0.014,0.002-0.025,0.002-0.039c0-0.093,0.002-0.183,0.002-0.272c0.109-14.883,9.211-17.688,9.211-17.688L183.664,15.366z"/>
		</g>
	</g>
</g>
<path fill="#1A1A19" d="M193.698,30.82l-10.034-15.454h-32.576h-33.814h-9.198H84.295H51.719L41.685,30.82
	c0,0,9.1,2.807,9.211,17.688v7.525h133.593v-7.525C184.598,33.627,193.698,30.82,193.698,30.82"/>
<path fill="#191818" d="M179.121,23.732l3.393,5.225c-2.295,2.726-4.315,6.396-5.443,11.187H58.313
	c-1.128-4.79-3.149-8.461-5.444-11.187l3.392-5.225h28.033h23.781h9.198h33.814H179.121 M183.664,15.366h-32.576h-33.814h-9.198
	H84.295H51.719L41.685,30.82c0,0,9.1,2.807,9.21,17.688h133.593c0.109-14.883,9.211-17.688,9.211-17.688L183.664,15.366z"/>
<path fill="#191818" d="M179.121,23.732l3.393,5.225c-3.476,4.13-6.324,10.43-6.392,19.5l-0.001,0.059v0.033l-0.001,0.022
	l-0.002,0.171v0.039v0.04v71.392c-0.394,2.727-4.038,22.619-27.06,29.078c-5.879,1.649-21.529,6.528-31.395,14.107
	c-5.685-4.469-15.25-9.594-31.342-14.107c-22.9-6.425-26.624-26.116-27.06-29.098V48.782l-0.002-0.268l-0.001-0.067
	c-0.067-9.064-2.915-15.361-6.391-19.49l3.392-5.225h28.033h23.781h9.198h33.814H179.121 M183.664,15.366h-32.576h-33.814h-9.198
	H84.295H51.719L41.685,30.82c0,0,9.1,2.807,9.21,17.688c0.001,0.091,0.003,0.182,0.003,0.272v71.939c0,0,2.764,28.096,33.166,36.624
	c29.393,8.245,33.383,17.896,33.616,18.528c0.008,0.021,0.012,0.033,0.012,0.033s3.225-10.033,33.627-18.563
	c30.402-8.528,33.166-36.624,33.166-36.624v-71.9c0-0.014,0.002-0.025,0.002-0.039c0-0.093,0.002-0.183,0.002-0.272
	c0.109-14.883,9.211-17.688,9.211-17.688L183.664,15.366z"/>
<path fill="#FFFFFF" d="M73.694,42.708l2.438-2.589c1.054,1.385,2.469,2.168,4.185,2.168c1.927,0,3.041-1.475,3.041-3.16
	c0-1.987-1.054-3.162-2.86-3.162c-1.355,0-2.379,0.481-3.312,1.655l-2.92-0.782V25.429h12.042v3.553H78.3v5.147
	c0.783-0.964,2.138-1.655,3.673-1.655c3.041,0,5.479,2.378,5.479,6.532c0,4.033-2.739,6.863-7.014,6.863
	C77.337,45.869,75.199,44.727,73.694,42.708"/>
<path fill="#FFFFFF" d="M96.511,45.508v-20.08h6.473c5.539,0,8.731,4.154,8.731,10.057c0,5.901-3.162,10.023-8.731,10.023H96.511z
	 M107.59,35.483c0-3.975-1.566-6.503-4.606-6.503h-2.439v12.976h2.439C105.964,41.956,107.59,39.308,107.59,35.483"/>
<path fill="#FFFFFF" d="M124.416,45.508l-0.934-3.552h-6.171l-0.934,3.552h-4.365l5.96-20.08h4.877l5.961,20.08H124.416z
	 M120.412,29.673l-2.288,8.73h4.576L120.412,29.673z"/>
<polygon fill="#FFFFFF" points="133.416,45.508 133.416,37.229 127.214,25.428 131.67,25.428 135.434,33.496 139.195,25.428 
	143.65,25.428 137.449,37.229 137.449,45.508 "/>
<path fill="#FFFFFF" d="M143.62,43.28l1.985-3.102c1.115,1.234,2.86,2.139,4.849,2.139c1.774,0,2.739-0.993,2.739-2.229
	c0-3.522-8.973-2.317-8.973-9.122c0-3.162,2.469-5.871,6.623-5.871c2.438,0,4.547,0.783,6.082,2.229L155,30.336
	c-1.205-1.145-2.74-1.687-4.305-1.687c-1.446,0-2.35,0.813-2.35,2.047c0,3.132,8.941,2.288,8.941,9.063
	c0,3.521-2.409,6.11-6.805,6.11C147.443,45.869,145.215,44.877,143.62,43.28"/>
<path fill="#191818" d="M101.334,76.856c0,2.099-1.701,3.8-3.8,3.8c-2.099,0-3.799-1.701-3.799-3.8c0-2.1,1.701-3.801,3.799-3.801
	C99.632,73.056,101.334,74.758,101.334,76.856"/>
<path fill="#FFFFFF" d="M128.443,136.655c-14.856,6.186-31.915-0.845-38.1-15.7c-6.186-14.856,0.844-31.914,15.701-38.1
	c14.855-6.187,31.914,0.845,38.098,15.7C150.33,113.412,143.3,130.471,128.443,136.655"/>
<path fill="#F26D7C" d="M117.244,82.163c-15.239,0-27.593,12.354-27.593,27.593s12.354,27.593,27.593,27.593
	c15.238,0,27.593-12.354,27.593-27.593S132.482,82.163,117.244,82.163 M117.244,130.98c-11.722,0-21.225-9.503-21.225-21.226
	s9.503-21.226,21.225-21.226c11.723,0,21.225,9.503,21.225,21.226C138.469,121.479,128.967,130.98,117.244,130.98"/>
<path fill="#F26D7C" d="M117.244,94.897c-8.206,0-14.858,6.651-14.858,14.857s6.652,14.857,14.858,14.857
	s14.857-6.651,14.857-14.857S125.45,94.897,117.244,94.897 M117.244,118.246c-4.689,0-8.49-3.801-8.49-8.49
	c0-4.688,3.801-8.49,8.49-8.49c4.689,0,8.49,3.802,8.49,8.49C125.734,114.445,121.934,118.246,117.244,118.246"/>
<path fill="#191818" d="M117.244,104.893c-2.686,0-4.863,2.179-4.863,4.863c0,2.686,2.177,4.862,4.863,4.862
	c2.686,0,4.863-2.177,4.863-4.862C122.107,107.071,119.93,104.893,117.244,104.893"/>
<path fill="#191818" d="M117.258,145.214c-14.366,0-27.217-8.57-32.739-21.833c-7.513-18.045,1.056-38.838,19.101-46.352
	c4.354-1.813,8.933-2.731,13.611-2.731c14.367,0,27.218,8.569,32.74,21.833c3.639,8.742,3.656,18.377,0.049,27.132
	c-3.606,8.754-10.408,15.58-19.149,19.22C126.516,144.295,121.938,145.214,117.258,145.214 M117.23,78.442
	c-4.128,0-8.172,0.813-12.018,2.413c-15.937,6.635-23.503,24.995-16.868,40.933c4.876,11.713,16.226,19.28,28.913,19.28
	c4.129,0,8.173-0.813,12.019-2.413c7.721-3.214,13.727-9.241,16.912-16.974c3.185-7.731,3.17-16.239-0.043-23.959
	C141.268,86.011,129.919,78.442,117.23,78.442"/>
<path fill="#FFFFFF" d="M117.231,76.37v5.269c11.393,0,21.583,6.796,25.962,17.313c5.957,14.31-0.836,30.796-15.146,36.753
	c-3.455,1.438-7.085,2.168-10.79,2.168c-11.393,0-21.584-6.796-25.963-17.313c-5.958-14.31,0.837-30.796,15.146-36.753
	c3.455-1.438,7.085-2.168,10.79-2.168L117.231,76.37 M117.231,76.37c-4.275,0-8.622,0.827-12.815,2.573
	c-17.018,7.084-25.07,26.623-17.985,43.641c5.34,12.824,17.751,20.558,30.827,20.558c4.275,0,8.622-0.826,12.814-2.572
	c17.018-7.084,25.068-26.623,17.984-43.642C142.718,84.104,130.307,76.37,117.231,76.37"/>
<path fill="#191818" d="M117.258,145.214c-14.366,0-27.217-8.57-32.739-21.833c-7.513-18.045,1.056-38.838,19.101-46.352
	c4.354-1.813,8.933-2.731,13.611-2.731c14.367,0,27.218,8.569,32.74,21.833c3.639,8.742,3.656,18.377,0.049,27.132
	c-3.606,8.754-10.408,15.58-19.149,19.22C126.516,144.295,121.938,145.214,117.258,145.214 M117.23,78.442
	c-4.128,0-8.172,0.813-12.018,2.413c-15.937,6.635-23.503,24.995-16.868,40.933c4.876,11.713,16.226,19.28,28.913,19.28
	c4.129,0,8.173-0.813,12.019-2.413c7.721-3.214,13.727-9.241,16.912-16.974c3.185-7.731,3.17-16.239-0.043-23.959
	C141.268,86.011,129.919,78.442,117.23,78.442"/>
<path fill="#191818" d="M117.244,84.818c0,0-0.002,0.021-0.004,0.053h0.01C117.246,84.839,117.244,84.818,117.244,84.818"/>
<path fill="#191818" d="M116.426,142.315h1.637c0.691,0,1.254-0.563,1.254-1.255v-5.435c0-0.693-0.563-1.254-1.254-1.254h-1.637
	c-0.693,0-1.254,0.561-1.254,1.254v5.435C115.172,141.754,115.733,142.315,116.426,142.315"/>
<path fill="#191818" d="M116.928,84.846c0.002,0.015,0.537,0.025,1.196,0.025c0.658,0,1.192-0.562,1.192-1.254v-5.771
	c0-0.691-0.563-1.254-1.254-1.254h-1.638c-0.692,0-1.254,0.563-1.254,1.254v5.771c0,0.692,0.391,1.254,0.874,1.254
	s0.876-0.012,0.877-0.025C116.924,84.83,116.927,84.83,116.928,84.846"/>
<path fill="#191818" d="M150.105,110.272v-1.637c0-0.692-0.563-1.255-1.254-1.255h-5.688c-0.691,0-1.254,0.563-1.254,1.255v1.637
	c0,0.692,0.563,1.255,1.254,1.255h5.688C149.543,111.527,150.105,110.966,150.105,110.272"/>
<path fill="#191818" d="M84.383,108.637v1.637c0,0.691,0.562,1.255,1.254,1.255h5.519c0.693,0,1.254-0.563,1.254-1.255v-1.637
	c0-0.692-0.561-1.254-1.254-1.254h-5.519C84.945,107.383,84.383,107.943,84.383,108.637"/>
<path fill="#191818" d="M101.307,89.771c-0.681-1.045-0.387-2.442,0.657-3.125c1.044-0.682,2.443-0.388,3.124,0.656
	c0.682,1.045,11.682,22.031,11.682,22.031S101.989,90.814,101.307,89.771"/>
<path fill="#F26D7C" d="M124.223,69.922c0,3.711-3.008,6.719-6.72,6.719c-3.71,0-6.718-3.008-6.718-6.719
	c0-3.71,3.008-6.719,6.718-6.719C121.215,63.203,124.223,66.212,124.223,69.922"/>
<path fill="#191818" d="M140.418,119.036c1.193,0.364,2.454-0.309,2.818-1.5c0.363-1.192-0.31-2.455-1.5-2.819
	c-1.193-0.363-24.412-5.089-24.412-5.089S139.225,118.672,140.418,119.036"/>
<path fill="#191818" d="M117.693,77.945c-4.437,0-8.045-3.609-8.045-8.046c0-4.438,3.609-8.046,8.045-8.046
	c4.438,0,8.047,3.608,8.047,8.046C125.74,74.336,122.131,77.945,117.693,77.945 M117.693,65.998c-2.15,0-3.9,1.75-3.9,3.901
	c0,2.15,1.75,3.9,3.9,3.9c2.152,0,3.902-1.75,3.902-3.9C121.596,67.748,119.846,65.998,117.693,65.998"/>
<path fill="#191818" d="M131.318,77.599l2.588-3.061c0.895-1.058,2.477-1.19,3.535-0.296l12.029,10.171
	c1.059,0.894,1.191,2.477,0.297,3.535l-2.588,3.061L131.318,77.599z"/>
<path fill="#1A1A19" d="M117.689,180.615c0,0-0.004-0.013-0.012-0.033c-0.194-0.527-3.012-7.318-20.954-14.34v16.475
	c11.415,7.014,20.568,9.111,20.568,9.111h0.797c0,0,9.152-2.1,20.567-9.111V166.24C119.971,173.553,117.689,180.615,117.689,180.615
	"/>
<path fill="#1A1A19" d="M64.395,150.252v8.096c8.119,9.57,19.146,15.858,29.014,22.171v-16.513
	c-2.791-0.993-5.886-1.981-9.345-2.953C75.499,158.65,69.129,154.695,64.395,150.252"/>
<path fill="#1A1A19" d="M141.975,164.007v16.512c9.868-6.313,20.896-12.601,29.015-22.17v-8.098
	c-4.734,4.442-11.105,8.398-19.671,10.802C147.855,162.023,144.766,163.014,141.975,164.007"/>
<path fill="#020202" d="M41.916,147.48c0.916-0.018,1.783-0.026,2.638,0.015c-3.211-4.571-2.291-10.164-4.058-15.119l0.017-0.22
	c5.329,2.009,8.124,6.701,10.731,11.657c1.861,3.593,3.683,7.273,6.339,9.993c-1.109,0.08-2.153,0.229-3.234,0.389
	c-1.122,0.164-2.276,0.387-3.435,0.691c-2.306,0.136-4.581,0.238-6.732,0.167c-4.035-0.171-7.795-0.854-11.037-2.604
	c-1.502-0.799-2.902-1.851-4.131-3.161c0.949-0.154,1.992-0.343,3.028-0.524C35.307,148.209,38.74,147.639,41.916,147.48"/>
<path fill="#020202" d="M31.861,129.935c1.062,1.399,2.535,2.594,3.517,4.192c0.274,0.794,0.6,1.551,0.922,2.329
	c0.784,2.099,1.378,4.127,0.791,5.831c-2.664-1.041-5.365-2.283-7.72-4.483c-1.341-1.617-2.338-3.36-3.036-5.244
	c-1.11-2.953-1.453-6.193-1.075-9.59c0.008-0.113,0.033-0.178,0.025-0.252l0.3-0.285c0.113,0.266,0.263,0.539,0.409,0.824
	C27.42,125.854,29.506,127.734,31.861,129.935"/>
<path fill="#020202" d="M192.041,147.48c-0.916-0.018-1.783-0.026-2.639,0.015c3.211-4.571,2.291-10.164,4.059-15.119l-0.018-0.22
	c-5.33,2.009-8.125,6.701-10.73,11.657c-1.861,3.593-3.684,7.273-6.34,9.993c1.109,0.08,2.152,0.229,3.234,0.389
	c1.121,0.164,2.274,0.387,3.436,0.691c2.307,0.136,4.58,0.238,6.73,0.167c4.035-0.171,7.795-0.854,11.037-2.604
	c1.502-0.799,2.901-1.851,4.131-3.161c-0.948-0.154-1.991-0.343-3.027-0.524C198.648,148.209,195.217,147.639,192.041,147.48"/>
<path fill="#020202" d="M203.521,129.935c-1.063,1.399-2.535,2.594-3.519,4.192c-0.272,0.794-0.599,1.551-0.922,2.329
	c-0.783,2.099-1.378,4.127-0.791,5.831c2.664-1.041,5.364-2.283,7.722-4.483c1.34-1.617,2.337-3.36,3.034-5.244
	c1.11-2.953,1.453-6.193,1.075-9.59c-0.008-0.113-0.032-0.178-0.024-0.252l-0.301-0.285c-0.112,0.266-0.263,0.539-0.408,0.824
	C207.963,125.854,205.877,127.734,203.521,129.935"/>
</svg>
