<?xml version="1.0" encoding="utf-8"?>
<!-- Generator: Adobe Illustrator 16.0.0, SVG Export Plug-In . SVG Version: 6.00 Build 0)  -->
<!DOCTYPE svg PUBLIC "-//W3C//DTD SVG 1.1//EN" "http://www.w3.org/Graphics/SVG/1.1/DTD/svg11.dtd">
<svg version="1.1" id="Layer_1" xmlns="http://www.w3.org/2000/svg" xmlns:xlink="http://www.w3.org/1999/xlink" x="0px" y="0px"
	 width="240px" height="200px" viewBox="0 0 240 200" enable-background="new 0 0 240 200" xml:space="preserve">
<path fill="none" d="M53.764,2645.837"/>
<path fill="none" d="M53.764-599.76"/>
<path fill="#F26D7C" d="M118.22,50.809H53.845c0.001,0.089,0.003,0.175,0.003,0.264v69.344c0,0,2.664,27.081,31.97,35.303
	c28.331,7.947,32.178,17.251,32.402,17.86c0.008,0.021,0.011,0.032,0.011,0.032s3.109-9.671,32.414-17.894
	c29.306-8.222,31.971-35.303,31.971-35.303V51.109c0-0.015,0.001-0.026,0.001-0.038c0-0.089,0.002-0.175,0.002-0.264L118.22,50.809
	L118.22,50.809z"/>
<g opacity="0.6">
	<g>
		<g>
			<defs>
				<rect id="SVGID_1_" x="118.22" y="48.51" width="66.811" height="127.4"/>
			</defs>
			<clipPath id="SVGID_2_">
				<use xlink:href="#SVGID_1_"  overflow="visible"/>
			</clipPath>
			<path clip-path="url(#SVGID_2_)" fill="#DF2F55" d="M151.857,157.346c30.401-8.527,33.166-36.623,33.166-36.623v-71.9
				c0-0.014,0.002-0.026,0.002-0.039c0-0.092,0.002-0.182,0.002-0.272h-66.809v127.365c0.008,0.022,0.012,0.034,0.012,0.034
				S121.455,165.875,151.857,157.346"/>
		</g>
	</g>
</g>
<g opacity="0.4">
	<g>
		<g>
			<defs>
				<rect id="SVGID_3_" x="42.22" y="15.37" width="152.021" height="160.54"/>
			</defs>
			<clipPath id="SVGID_4_">
				<use xlink:href="#SVGID_3_"  overflow="visible"/>
			</clipPath>
			<path clip-path="url(#SVGID_4_)" fill="#FFFFFF" d="M176.234,29.164c-2.644,4.354-4.93,10.604-5.004,19.229v0.005l-0.002,0.259
				l-0.002,0.083v0.082v70.951c-0.224,1.224-1.068,5.081-3.447,9.366c-4.105,7.396-10.717,12.417-19.648,14.924
				c-13.943,3.911-23.451,8.354-29.929,12.658c-6.466-4.301-15.954-8.755-29.872-12.658c-8.596-2.412-15.05-7.16-19.183-14.113
				c-2.709-4.56-3.653-8.787-3.913-10.227v-70.94l-0.003-0.376c-0.064-8.624-2.355-14.881-5.003-19.242h24.605h23.781h9.198h33.815
				H176.234 M184.204,15.366h-32.575h-33.815h-9.198H84.835H52.259L42.225,30.82c0,0,9.1,2.807,9.211,17.688
				c0,0.091,0.002,0.182,0.002,0.272v71.939c0,0,2.764,28.096,33.166,36.624c29.393,8.245,33.383,17.896,33.616,18.528
				c0.008,0.021,0.011,0.033,0.011,0.033s3.225-10.033,33.628-18.563c30.4-8.528,33.166-36.624,33.166-36.624v-71.9
				c0-0.014,0-0.025,0-0.039c0-0.093,0.002-0.183,0.004-0.272c0.109-14.883,9.209-17.688,9.209-17.688L184.204,15.366z"/>
		</g>
	</g>
</g>
<path fill="#1A1A19" d="M194.238,30.82l-10.034-15.454h-32.575h-33.815h-9.198H84.835H52.259L42.225,30.82
	c0,0,9.1,2.807,9.211,17.688v7.525h133.593v-7.525C185.139,33.627,194.238,30.82,194.238,30.82"/>
<path fill="#191818" d="M179.661,23.732l3.394,5.225c-2.297,2.726-4.316,6.396-5.445,11.187H58.854
	c-1.128-4.79-3.149-8.461-5.444-11.187l3.392-5.225h28.033h23.781h9.198h33.815H179.661 M184.204,15.366h-32.575h-33.815h-9.198
	H84.835H52.259L42.225,30.82c0,0,9.1,2.807,9.211,17.688h133.593c0.109-14.883,9.209-17.688,9.209-17.688L184.204,15.366z"/>
<path fill="#191818" d="M179.661,23.732l3.394,5.225c-3.477,4.129-6.324,10.429-6.393,19.496l-0.001,0.06v0.041l-0.001,0.024
	l-0.002,0.164v0.039v0.04v71.372c-0.436,2.98-4.16,22.673-27.061,29.098c-5.88,1.649-21.529,6.528-31.394,14.107
	c-5.685-4.469-15.25-9.594-31.342-14.107c-22.9-6.425-26.624-26.116-27.06-29.098V48.782L59.8,48.515v-0.067
	c-0.068-9.064-2.916-15.361-6.392-19.49l3.392-5.225h28.033h23.781h9.198h33.815H179.661 M184.204,15.366h-32.575h-33.815h-9.198
	H84.835H52.259L42.225,30.82c0,0,9.1,2.807,9.211,17.688c0,0.091,0.002,0.182,0.002,0.272v71.939c0,0,2.764,28.096,33.166,36.624
	c29.393,8.245,33.383,17.896,33.616,18.528c0.008,0.021,0.011,0.033,0.011,0.033s3.225-10.033,33.628-18.563
	c30.4-8.528,33.166-36.624,33.166-36.624v-71.9c0-0.014,0-0.025,0-0.039c0-0.093,0.002-0.183,0.004-0.272
	c0.109-14.883,9.209-17.688,9.209-17.688L184.204,15.366z"/>
<polygon fill="#FFFFFF" points="76.898,45.508 82.919,28.98 74.61,28.98 74.61,25.428 87.495,25.428 87.495,28.229 81.263,45.508 
	"/>
<path fill="#FFFFFF" d="M96.162,45.508v-20.08h6.473c5.539,0,8.731,4.154,8.731,10.057c0,5.901-3.162,10.023-8.731,10.023H96.162z
	 M107.241,35.483c0-3.975-1.565-6.503-4.606-6.503h-2.438v12.976h2.438C105.616,41.956,107.241,39.308,107.241,35.483"/>
<path fill="#FFFFFF" d="M124.066,45.508l-0.933-3.552h-6.172l-0.934,3.552h-4.365l5.961-20.08h4.877l5.961,20.08H124.066z
	 M120.063,29.673l-2.288,8.73h4.577L120.063,29.673z"/>
<polygon fill="#FFFFFF" points="133.066,45.508 133.066,37.229 126.865,25.428 131.32,25.428 135.084,33.496 138.848,25.428 
	143.303,25.428 137.102,37.229 137.102,45.508 "/>
<path fill="#FFFFFF" d="M143.271,43.28l1.985-3.102c1.114,1.234,2.86,2.139,4.849,2.139c1.774,0,2.739-0.993,2.739-2.229
	c0-3.522-8.973-2.317-8.973-9.122c0-3.162,2.469-5.871,6.624-5.871c2.438,0,4.545,0.783,6.081,2.229l-1.927,3.012
	c-1.205-1.145-2.74-1.687-4.307-1.687c-1.443,0-2.348,0.813-2.348,2.047c0,3.132,8.941,2.288,8.941,9.063
	c0,3.521-2.408,6.11-6.806,6.11C147.094,45.869,144.867,44.877,143.271,43.28"/>
<path fill="#191818" d="M101.874,76.856c0,2.099-1.701,3.8-3.8,3.8c-2.099,0-3.799-1.701-3.799-3.8c0-2.1,1.701-3.801,3.799-3.801
	C100.172,73.056,101.874,74.758,101.874,76.856"/>
<path fill="#FFFFFF" d="M128.982,136.655c-14.855,6.186-31.914-0.845-38.099-15.7c-6.186-14.856,0.844-31.914,15.701-38.1
	c14.856-6.187,31.913,0.845,38.099,15.7C150.869,113.412,143.84,130.471,128.982,136.655"/>
<path fill="#F26D7C" d="M117.784,82.163c-15.239,0-27.593,12.354-27.593,27.593s12.354,27.593,27.593,27.593
	s27.593-12.354,27.593-27.593S133.023,82.163,117.784,82.163 M117.784,130.98c-11.722,0-21.225-9.503-21.225-21.226
	s9.503-21.226,21.225-21.226c11.722,0,21.226,9.503,21.226,21.226C139.01,121.479,129.506,130.98,117.784,130.98"/>
<path fill="#F26D7C" d="M117.784,94.897c-8.206,0-14.858,6.651-14.858,14.857s6.652,14.857,14.858,14.857
	s14.858-6.651,14.858-14.857S125.99,94.897,117.784,94.897 M117.784,118.246c-4.689,0-8.49-3.801-8.49-8.49
	c0-4.688,3.801-8.49,8.49-8.49c4.688,0,8.489,3.802,8.489,8.49C126.273,114.445,122.475,118.246,117.784,118.246"/>
<path fill="#191818" d="M117.784,104.893c-2.686,0-4.863,2.179-4.863,4.863c0,2.686,2.177,4.862,4.863,4.862
	c2.687,0,4.862-2.177,4.862-4.862C122.646,107.071,120.471,104.893,117.784,104.893"/>
<path fill="#191818" d="M117.798,145.214c-14.366,0-27.217-8.57-32.739-21.833c-7.513-18.045,1.056-38.838,19.101-46.352
	c4.354-1.813,8.933-2.731,13.611-2.731c14.368,0,27.218,8.569,32.741,21.833c7.512,18.045-1.057,38.838-19.102,46.352
	C127.057,144.295,122.477,145.214,117.798,145.214 M117.771,78.442c-4.128,0-8.172,0.813-12.018,2.413
	c-15.937,6.635-23.503,24.995-16.868,40.933c4.876,11.713,16.226,19.28,28.913,19.28c4.129,0,8.173-0.813,12.019-2.413
	c15.937-6.636,23.502-24.997,16.869-40.933C141.809,86.011,130.459,78.442,117.771,78.442"/>
<path fill="#FFFFFF" d="M117.771,76.37v5.269c11.393,0,21.584,6.796,25.963,17.313c5.957,14.31-0.838,30.796-15.146,36.753
	c-3.455,1.438-7.085,2.168-10.79,2.168c-11.393,0-21.584-6.796-25.963-17.313c-5.957-14.31,0.837-30.796,15.146-36.753
	c3.455-1.438,7.085-2.168,10.79-2.168V76.37 M117.771,76.37c-4.275,0-8.622,0.827-12.815,2.573
	c-17.017,7.084-25.069,26.623-17.985,43.641c5.34,12.824,17.752,20.558,30.827,20.558c4.274,0,8.622-0.826,12.815-2.572
	c17.017-7.084,25.068-26.623,17.982-43.642C143.258,84.104,130.848,76.37,117.771,76.37"/>
<path fill="#191818" d="M117.798,145.214c-14.366,0-27.217-8.57-32.739-21.833c-7.513-18.045,1.056-38.838,19.101-46.352
	c4.354-1.813,8.933-2.731,13.611-2.731c14.368,0,27.218,8.569,32.741,21.833c7.512,18.045-1.057,38.838-19.102,46.352
	C127.057,144.295,122.477,145.214,117.798,145.214 M117.771,78.442c-4.128,0-8.172,0.813-12.018,2.413
	c-15.937,6.635-23.503,24.995-16.868,40.933c4.876,11.713,16.226,19.28,28.913,19.28c4.129,0,8.173-0.813,12.019-2.413
	c15.937-6.636,23.502-24.997,16.869-40.933C141.809,86.011,130.459,78.442,117.771,78.442"/>
<path fill="#191818" d="M117.784,84.818c0,0-0.002,0.021-0.004,0.053h0.01C117.786,84.839,117.784,84.818,117.784,84.818"/>
<path fill="#191818" d="M116.966,142.315h1.636c0.692,0,1.256-0.563,1.256-1.255v-5.435c0-0.693-0.563-1.254-1.256-1.254h-1.636
	c-0.693,0-1.254,0.561-1.254,1.254v5.435C115.712,141.754,116.273,142.315,116.966,142.315"/>
<path fill="#191818" d="M117.469,84.846c0.001,0.015,0.537,0.025,1.195,0.025s1.191-0.562,1.191-1.254v-5.771
	c0-0.691-0.562-1.254-1.254-1.254h-1.636c-0.693,0-1.255,0.563-1.255,1.254v5.771c0,0.692,0.392,1.254,0.875,1.254
	s0.876-0.012,0.877-0.025C117.464,84.83,117.466,84.83,117.469,84.846"/>
<path fill="#191818" d="M150.646,110.272v-1.637c0-0.692-0.563-1.255-1.254-1.255h-5.688c-0.691,0-1.254,0.563-1.254,1.255v1.637
	c0,0.692,0.563,1.255,1.254,1.255h5.688C150.084,111.527,150.646,110.966,150.646,110.272"/>
<path fill="#191818" d="M84.923,108.637v1.637c0,0.691,0.562,1.255,1.254,1.255h5.519c0.693,0,1.254-0.563,1.254-1.255v-1.637
	c0-0.692-0.561-1.254-1.254-1.254h-5.519C85.485,107.383,84.923,107.943,84.923,108.637"/>
<path fill="#191818" d="M101.848,89.771c-0.682-1.045-0.388-2.442,0.657-3.125c1.044-0.682,2.443-0.388,3.124,0.656
	c0.683,1.045,11.682,22.031,11.682,22.031S102.528,90.814,101.848,89.771"/>
<path fill="#F26D7C" d="M124.764,69.922c0,3.711-3.01,6.719-6.721,6.719c-3.71,0-6.718-3.008-6.718-6.719
	c0-3.71,3.008-6.719,6.718-6.719C121.754,63.203,124.764,66.212,124.764,69.922"/>
<path fill="#191818" d="M140.958,119.036c1.192,0.364,2.454-0.309,2.817-1.5c0.365-1.192-0.309-2.455-1.5-2.819
	c-1.192-0.363-24.411-5.089-24.411-5.089S139.766,118.672,140.958,119.036"/>
<path fill="#191818" d="M118.234,77.945c-4.437,0-8.046-3.609-8.046-8.046c0-4.438,3.609-8.046,8.046-8.046
	c4.438,0,8.045,3.608,8.045,8.046C126.279,74.336,122.672,77.945,118.234,77.945 M118.234,65.998c-2.151,0-3.901,1.75-3.901,3.901
	c0,2.15,1.75,3.9,3.901,3.9s3.901-1.75,3.901-3.9C122.135,67.748,120.386,65.998,118.234,65.998"/>
<path fill="#191818" d="M131.859,77.599l2.586-3.061c0.896-1.058,2.478-1.19,3.535-0.296l12.031,10.171
	c1.059,0.894,1.19,2.477,0.295,3.535l-2.586,3.061L131.859,77.599z"/>
<path fill="#1A1A19" d="M118.23,180.615c0,0-0.004-0.013-0.012-0.033c-0.194-0.527-3.011-7.318-20.954-14.34v16.475
	c11.415,7.014,20.568,9.111,20.568,9.111h0.797c0,0,9.152-2.1,20.566-9.111V166.24C120.51,173.553,118.23,180.615,118.23,180.615"/>
<path fill="#1A1A19" d="M64.935,150.252v8.096c8.119,9.57,19.146,15.858,29.014,22.171v-16.513
	c-2.791-0.993-5.886-1.981-9.345-2.953C76.039,158.65,69.669,154.695,64.935,150.252"/>
<path fill="#1A1A19" d="M142.514,164.007v16.512c9.869-6.313,20.896-12.601,29.014-22.17v-8.098
	c-4.732,4.442-11.104,8.398-19.67,10.802C148.396,162.023,145.307,163.014,142.514,164.007"/>
<path fill="#020202" d="M192.598,147.48c-0.916-0.018-1.783-0.026-2.639,0.015c3.211-4.571,2.291-10.164,4.059-15.119l-0.018-0.22
	c-5.329,2.009-8.125,6.701-10.73,11.657c-1.861,3.593-3.684,7.273-6.34,9.993c1.109,0.08,2.152,0.229,3.234,0.389
	c1.121,0.164,2.275,0.387,3.436,0.691c2.306,0.136,4.58,0.238,6.732,0.167c4.033-0.171,7.793-0.854,11.035-2.604
	c1.502-0.799,2.902-1.851,4.131-3.161c-0.948-0.154-1.991-0.343-3.027-0.524C199.207,148.209,195.771,147.639,192.598,147.48"/>
<path fill="#020202" d="M205.598,129.649c-1.494-5.036-4.274-10.122-3.865-15.642l-0.143-0.22l-0.374,0.166
	c-0.045,0.035-0.097,0.106-0.102,0.144c-0.292,0.501-0.601,0.786-1.136,1.301c-3.806,6.707-3.23,14.779-1.275,21.92
	c0.32,1.176,0.652,2.295,1.063,3.426c3.424-2.677,7.646-3.359,11.443-5.308c0.341-0.206,0.676-0.369,1.028-0.581
	c3.66-2.642,5.886-7.008,6.843-11.184c-2.373,0.757-4.701,1.368-6.877,2.187C209.857,126.705,207.596,127.847,205.598,129.649"/>
<path fill="#020202" d="M29.512,106.762c0.117,1.752,0.691,3.562,0.63,5.437c-0.208,0.813-0.352,1.625-0.512,2.452
	c-0.499,2.185-1.119,4.203-2.547,5.305c-1.651-2.336-3.224-4.858-3.98-7.992c-0.229-2.087-0.103-4.092,0.352-6.048
	c0.698-3.078,2.195-5.973,4.379-8.6c0.069-0.093,0.125-0.132,0.158-0.196l0.408-0.074c-0.051,0.283-0.077,0.595-0.112,0.913
	C28.048,100.912,28.756,103.628,29.512,106.762"/>
<path fill="#020202" d="M207.342,106.762c-0.117,1.752-0.689,3.562-0.63,5.437c0.208,0.813,0.353,1.625,0.513,2.452
	c0.498,2.185,1.119,4.203,2.548,5.305c1.649-2.336,3.224-4.858,3.979-7.992c0.231-2.087,0.104-4.092-0.35-6.048
	c-0.699-3.078-2.195-5.973-4.379-8.6c-0.069-0.093-0.125-0.132-0.158-0.196l-0.408-0.074c0.051,0.283,0.077,0.595,0.112,0.913
	C208.807,100.912,208.098,103.628,207.342,106.762"/>
<path fill="#020202" d="M43.866,147.48c0.916-0.018,1.783-0.026,2.638,0.015c-3.211-4.571-2.291-10.164-4.058-15.119l0.017-0.22
	c5.329,2.009,8.124,6.701,10.731,11.657c1.861,3.593,3.683,7.273,6.339,9.993c-1.109,0.08-2.153,0.229-3.234,0.389
	c-1.122,0.164-2.274,0.387-3.435,0.691c-2.306,0.136-4.581,0.238-6.732,0.167c-4.035-0.171-7.795-0.854-11.037-2.604
	c-1.502-0.799-2.901-1.851-4.131-3.161c0.949-0.154,1.992-0.343,3.028-0.524C37.257,148.209,40.69,147.639,43.866,147.48"/>
<path fill="#020202" d="M30.866,129.649c1.494-5.036,4.274-10.122,3.865-15.642l0.142-0.22l0.374,0.166
	c0.045,0.035,0.097,0.106,0.101,0.144c0.292,0.501,0.601,0.786,1.136,1.301c3.805,6.707,3.229,14.779,1.275,21.92
	c-0.32,1.176-0.653,2.295-1.063,3.426c-3.423-2.677-7.645-3.359-11.443-5.308c-0.341-0.206-0.676-0.369-1.029-0.581
	c-3.66-2.642-5.886-7.008-6.841-11.184c2.373,0.757,4.7,1.368,6.876,2.187C26.605,126.705,28.868,127.847,30.866,129.649"/>
</svg>
