<?xml version="1.0" encoding="utf-8"?>
<!-- Generator: Adobe Illustrator 16.0.0, SVG Export Plug-In . SVG Version: 6.00 Build 0)  -->
<!DOCTYPE svg PUBLIC "-//W3C//DTD SVG 1.1//EN" "http://www.w3.org/Graphics/SVG/1.1/DTD/svg11.dtd">
<svg version="1.1" id="Layer_1" xmlns="http://www.w3.org/2000/svg" xmlns:xlink="http://www.w3.org/1999/xlink" x="0px" y="0px"
	 width="240px" height="230px" viewBox="0 0 240 230" enable-background="new 0 0 240 230" xml:space="preserve">
<path fill="none" d="M164.63-219.096"/>
<path fill="#95D5CF" d="M120.139,69.601H55.355c0,0.088,0.001,0.176,0.001,0.265v69.787c0,0,2.682,27.253,32.174,35.526
	c28.513,7.998,32.383,17.361,32.609,17.975c0.008,0.021,0.011,0.032,0.011,0.032s3.128-9.733,32.621-18.007
	c29.491-8.273,32.173-35.526,32.173-35.526V69.903c0-0.013,0.001-0.025,0.001-0.038c0-0.089,0.002-0.177,0.003-0.265H120.139z"/>
<g opacity="0.5">
	<g>
		<defs>
			<rect id="SVGID_1_" x="120.14" y="67.694" width="66.811" height="127.398"/>
		</defs>
		<clipPath id="SVGID_2_">
			<use xlink:href="#SVGID_1_"  overflow="visible"/>
		</clipPath>
		<path clip-path="url(#SVGID_2_)" fill="#189995" d="M153.777,176.53c30.402-8.529,33.166-36.624,33.166-36.624V68.005
			c0.001-0.013,0.002-0.025,0.002-0.039c0-0.092,0.002-0.181,0.002-0.272h-66.809V195.06c0.008,0.021,0.012,0.034,0.012,0.034
			S123.375,185.06,153.777,176.53"/>
	</g>
</g>
<g opacity="0.4">
	<g>
		<defs>
			<rect id="SVGID_3_" x="44.14" y="34.55" width="152.021" height="160.543"/>
		</defs>
		<clipPath id="SVGID_4_">
			<use xlink:href="#SVGID_3_"  overflow="visible"/>
		</clipPath>
		<path clip-path="url(#SVGID_4_)" fill="#FFFFFF" d="M178.154,48.348c-2.639,4.35-4.924,10.587-5.002,19.193l-0.002,0.032
			l-0.003,0.322v0.055v0.055v70.903c-0.261,1.438-1.204,5.666-3.914,10.225c-4.132,6.953-10.586,11.701-19.183,14.113
			c-13.943,3.912-23.451,8.355-29.929,12.659c-6.467-4.301-15.954-8.755-29.872-12.659c-8.596-2.412-15.051-7.16-19.183-14.113
			c-2.709-4.559-3.653-8.786-3.913-10.225V67.967l-0.003-0.375c-0.065-8.625-2.356-14.883-5.003-19.244h24.605h23.781h9.198h33.814
			H178.154 M186.124,34.551h-32.576h-33.814h-9.198H86.754H54.178L44.144,50.004c0,0,9.1,2.807,9.21,17.689
			c0.001,0.091,0.003,0.181,0.003,0.273v71.939c0,0,2.764,28.095,33.166,36.624c29.393,8.245,33.383,17.897,33.615,18.529
			c0.008,0.021,0.012,0.033,0.012,0.033s3.225-10.033,33.627-18.563s33.167-36.624,33.167-36.624V68.005
			c0-0.013,0.001-0.025,0.001-0.038c0-0.093,0.002-0.183,0.002-0.273c0.11-14.883,9.211-17.689,9.211-17.689L186.124,34.551z"/>
	</g>
</g>
<path fill="#1A1A19" d="M196.158,50.004L186.124,34.55h-32.576h-33.814h-9.198H86.754H54.178L44.144,50.004
	c0,0,9.1,2.807,9.211,17.69v7.524h133.593v-7.524C187.058,52.811,196.158,50.004,196.158,50.004"/>
<path fill="#191818" d="M181.581,42.916l3.393,5.226c-2.296,2.725-4.316,6.396-5.444,11.186H60.773
	c-1.128-4.789-3.149-8.46-5.444-11.186l3.392-5.226h28.033h23.781h9.198h33.814H181.581 M186.124,34.551h-32.576h-33.814h-9.198
	H86.754H54.178L44.144,50.004c0,0,9.1,2.807,9.21,17.689h133.593c0.11-14.883,9.211-17.689,9.211-17.689L186.124,34.551z"/>
<path fill="#191818" d="M181.581,42.916l3.393,5.227c-3.476,4.128-6.324,10.428-6.392,19.498l-0.001,0.059v0.015l-0.002,0.037
	l-0.001,0.201l-0.001,0.027v0.025v71.392c-0.392,2.726-4.037,22.62-27.06,29.079c-5.879,1.648-21.528,6.527-31.393,14.106
	c-5.685-4.468-15.25-9.593-31.342-14.106c-22.9-6.425-26.624-26.116-27.06-29.099v-71.41l-0.002-0.268l-0.001-0.068
	c-0.067-9.064-2.915-15.361-6.391-19.489l3.392-5.226h28.033h23.781h9.198h33.814H181.581 M186.124,34.551h-32.576h-33.814h-9.198
	H86.754H54.178L44.144,50.004c0,0,9.1,2.807,9.21,17.689c0.001,0.091,0.003,0.181,0.003,0.273v71.939
	c0,0,2.764,28.095,33.166,36.624c29.393,8.245,33.383,17.897,33.615,18.529c0.008,0.021,0.012,0.033,0.012,0.033
	s3.225-10.033,33.627-18.563s33.167-36.624,33.167-36.624V68.005c0-0.013,0.001-0.025,0.001-0.038c0-0.093,0.002-0.183,0.002-0.273
	c0.11-14.883,9.211-17.689,9.211-17.689L186.124,34.551z"/>
<polygon fill="#FFFFFF" points="78.818,64.692 84.84,48.165 76.53,48.165 76.53,44.611 89.416,44.611 89.416,47.412 83.185,64.692 
	"/>
<path fill="#FFFFFF" d="M98.083,64.692V44.611h6.473c5.54,0,8.731,4.156,8.731,10.056c0,5.9-3.162,10.025-8.731,10.025H98.083z
	 M109.162,54.667c0-3.975-1.565-6.503-4.606-6.503h-2.439v12.977h2.439C107.537,61.141,109.162,58.49,109.162,54.667"/>
<path fill="#FFFFFF" d="M125.988,64.692l-0.934-3.553h-6.172l-0.933,3.553h-4.365l5.961-20.081h4.876l5.961,20.081H125.988z
	 M121.984,48.856l-2.288,8.73h4.576L121.984,48.856z"/>
<polygon fill="#FFFFFF" points="134.987,64.692 134.987,56.414 128.785,44.611 133.241,44.611 137.004,52.68 140.768,44.611 
	145.224,44.611 139.021,56.414 139.021,64.692 "/>
<path fill="#FFFFFF" d="M145.191,62.464l1.987-3.101c1.113,1.234,2.86,2.138,4.847,2.138c1.776,0,2.74-0.994,2.74-2.228
	c0-3.522-8.973-2.318-8.973-9.122c0-3.162,2.47-5.871,6.625-5.871c2.438,0,4.545,0.784,6.08,2.228l-1.927,3.012
	c-1.204-1.145-2.739-1.687-4.305-1.687c-1.445,0-2.349,0.813-2.349,2.047c0,3.131,8.941,2.288,8.941,9.063
	c0,3.521-2.409,6.111-6.804,6.111C149.016,65.054,146.787,64.061,145.191,62.464"/>
<path fill="#FFFFFF" d="M121.454,103.137c0.391-0.502,3.571-4.556,3.966-5.01c13.438-15.473,31.014-1.697,30.062-2.439
	c10.289,8.021,12.461,20.222,3.873,31.24c-13.27,17.026-30.963,1.477-29.974,2.247c-2.926-2.28-26.01-20.272-26.01-20.272
	l-0.219,2.966l-5.315-0.224l-2.223-17.934l17.934-2.224l1.767,4.774l-3.074,1.262l27.572,20.496c0,0,3.307,1.793,6.475-2.271
	c3.167-4.064-0.825-7.175-0.825-7.175l-1.58-1.022c0,0-3.349-2.441-6.832,2.03l-3.484,4.47"/>
<path fill="#191818" d="M134.704,113.066c0.484,3.915,4.052,6.695,7.968,6.21c3.915-0.485,6.695-4.053,6.209-7.968
	c-0.485-3.915-4.052-6.695-7.967-6.21S134.219,109.151,134.704,113.066"/>
<path fill="#FFFFFF" d="M122.833,105.451l4.588,3.41c-0.108,0.189-0.217,0.382-0.325,0.577L122.833,105.451z"/>
<path fill="#191818" d="M127.52,112.09l-5.813-5.435l2.11-2.527l5.761,4.283l-0.727,1.269c-0.104,0.182-0.207,0.365-0.311,0.554
	L127.52,112.09z"/>
<polygon fill="#191818" points="129.034,110.188 127.285,108.89 127.497,108.526 129.164,110.029 "/>
<path fill="#191818" d="M141.45,118.431c-1.112,0-1.843-0.39-1.874-0.406l-6.01-4.468l3.215-4.125
	c1.414-1.813,2.973-2.733,4.634-2.733c1.385,0,2.302,0.656,2.34,0.685l1.576,1.018c0.048,0.038,1.031,0.813,1.637,2.106
	c0.562,1.199,0.882,3.078-0.788,5.219C144.438,117.961,142.646,118.431,141.45,118.431 M139.688,117.851
	c0.002,0,0.712,0.374,1.763,0.374c1.149,0,2.877-0.456,4.567-2.626c1.289-1.651,1.545-3.336,0.764-5.004
	c-0.585-1.249-1.561-2.018-1.57-2.026l-1.572-1.016c-0.014-0.01-0.908-0.648-2.224-0.648c-1.594,0-3.099,0.893-4.472,2.654
	l-3.085,3.959L139.688,117.851z"/>
<path fill="#95D5CF" d="M149.102,101.202c8.395,5.708,7.536,14.323,3.322,20.018c-4.731,6.394-11.995,6.281-16.507,3.01
	c-2.136-1.55-28.199-21.343-40.405-30.615l17.849-2.213l1.768,4.773l-3.075,1.264l10.78,8.013c0,0,10.547,8.513,10.879,8.087
	l5.914,4.396c0,0,3.306,1.793,6.474-2.271c3.167-4.063-0.825-7.176-0.825-7.176l-1.58-1.021c0,0-3.348-2.44-6.831,2.029
	c-1.893,2.428-2.757,3.536-3.151,4.043l-4.616-3.432l-1.574-1.418C133.82,97.834,142.103,96.443,149.102,101.202"/>
<path fill="#191818" d="M144.4,136.773c-8.563,0.001-15.405-5.75-16.069-6.326l-23.543-18.351l-0.11,1.484l-8.305-0.347
	l-2.599-20.957l20.867-2.587l2.772,7.491l-1.848,0.759l4.97,3.694c0.94-1.199,3.268-4.16,3.639-4.589
	c6.02-6.93,13.291-9.814,21.029-8.341c2.922,0.556,7.464,2.051,12.507,6.014c5.835,4.586,14.232,18.74,2.944,33.223
	c-4.13,5.3-9.019,8.244-14.528,8.754C145.544,136.749,144.968,136.773,144.4,136.773 M101.955,105.708l28.519,22.231
	c0.069,0.061,7.197,6.228,15.37,5.471c4.56-0.43,8.667-2.951,12.211-7.496c10.727-13.764,0.851-26.062-2.383-28.602
	c-14.149-11.121-24.249-3.586-29.007,1.896c-0.287,0.331-2.469,3.102-3.481,4.395l10.405,7.736l2.161-2.771
	c3.532-4.532,7.5-3.519,9.104-2.349l1.621,1.053c0.134,0.104,1.331,1.067,2.079,2.665c1.054,2.249,0.711,4.672-0.968,6.824
	c-3.185,4.084-6.992,3.559-8.56,2.707l-0.198-0.126l-29.913-22.236l4.3-1.767l-0.761-2.055l-15.002,1.859l1.848,14.911l2.324,0.099
	L101.955,105.708z M140.668,116.601c0.415,0.172,2.291,0.736,4.318-1.866c1.915-2.457,0.176-4.267-0.495-4.825l-1.504-0.973
	c-0.409-0.275-2.313-1.324-4.638,1.658l-2.112,2.712L140.668,116.601z"/>
<path fill="#FFFFFF" d="M118.996,141.282c-0.391,0.502-3.572,4.557-3.966,5.01c-13.438,15.473-31.015,1.697-30.062,2.439
	c-10.289-8.021-12.461-20.221-3.873-31.24c13.27-17.025,30.962-1.477,29.974-2.247c2.926,2.28,26.009,20.272,26.009,20.272
	l0.22-2.964l5.314,0.222l2.224,17.934l-17.934,2.224l-1.768-4.774l3.074-1.262l-27.572-20.496c0,0-3.307-1.793-6.474,2.271
	c-3.167,4.064,0.825,7.176,0.825,7.176l1.579,1.021c0,0,3.349,2.441,6.833-2.029l3.484-4.471"/>
<path fill="#191818" d="M144.4,136.773c-8.563,0.001-15.405-5.75-16.069-6.326l-23.543-18.351l-0.11,1.484l-8.305-0.347
	l-2.599-20.957l20.867-2.587l2.772,7.491l-1.848,0.759l4.97,3.694c0.94-1.199,3.268-4.16,3.639-4.589
	c6.02-6.93,13.291-9.814,21.029-8.341c2.922,0.556,7.464,2.051,12.507,6.014c5.835,4.586,14.232,18.74,2.944,33.223
	c-4.13,5.3-9.019,8.244-14.528,8.754C145.544,136.749,144.968,136.773,144.4,136.773 M101.955,105.708l28.519,22.231
	c0.069,0.061,7.197,6.228,15.37,5.471c4.56-0.43,8.667-2.951,12.211-7.496c10.727-13.764,0.851-26.062-2.383-28.602
	c-14.149-11.121-24.249-3.586-29.007,1.896c-0.287,0.331-2.469,3.102-3.481,4.395l10.405,7.736l2.161-2.771
	c3.532-4.532,7.5-3.519,9.104-2.349l1.621,1.053c0.134,0.104,1.331,1.067,2.079,2.665c1.054,2.249,0.711,4.672-0.968,6.824
	c-3.185,4.084-6.992,3.559-8.56,2.707l-0.198-0.126l-29.913-22.236l4.3-1.767l-0.761-2.055l-15.002,1.859l1.848,14.911l2.324,0.099
	L101.955,105.708z M140.668,116.601c0.415,0.172,2.291,0.736,4.318-1.866c1.915-2.457,0.176-4.267-0.495-4.825l-1.504-0.973
	c-0.409-0.275-2.313-1.324-4.638,1.658l-2.112,2.712L140.668,116.601z"/>
<path fill="#FFFFFF" d="M118.996,141.282c-0.391,0.502-3.572,4.557-3.966,5.01c-13.438,15.473-31.015,1.697-30.062,2.439
	c-10.289-8.021-12.461-20.221-3.873-31.24c13.27-17.025,30.962-1.477,29.974-2.247c2.926,2.28,26.009,20.272,26.009,20.272
	l0.22-2.964l5.314,0.222l2.224,17.934l-17.934,2.224l-1.768-4.774l3.074-1.262l-27.572-20.496c0,0-3.307-1.793-6.474,2.271
	c-3.167,4.064,0.825,7.176,0.825,7.176l1.579,1.021c0,0,3.349,2.441,6.833-2.029l3.484-4.471"/>
<path fill="#191818" d="M105.746,131.353c-0.485-3.915-4.052-6.694-7.967-6.21c-3.915,0.485-6.696,4.053-6.21,7.969
	c0.484,3.914,4.052,6.694,7.967,6.209S106.231,135.268,105.746,131.353"/>
<path fill="#FFFFFF" d="M117.617,138.968l-4.588-3.409c0.109-0.19,0.217-0.383,0.325-0.577L117.617,138.968z"/>
<path fill="#191818" d="M116.633,140.291l-5.761-4.282l0.726-1.271c0.104-0.18,0.208-0.365,0.312-0.552l1.021-1.859l5.813,5.438
	L116.633,140.291z"/>
<polygon fill="#191818" points="112.954,135.894 111.286,134.389 111.416,134.229 113.164,135.53 "/>
<path fill="#191818" d="M99.035,137.721c-1.385,0-2.302-0.656-2.34-0.684l-1.575-1.019c-0.048-0.037-4.044-3.227-0.85-7.326
	c1.742-2.234,3.534-2.704,4.73-2.704c1.111,0,1.843,0.391,1.874,0.406l6.01,4.467l-3.215,4.126
	C102.255,136.802,100.695,137.721,99.035,137.721 M99,126.194c-1.15,0-2.876,0.455-4.568,2.625
	c-3.066,3.936,0.648,6.906,0.807,7.031l1.573,1.016c0.013,0.011,0.908,0.648,2.223,0.648c1.594,0,3.098-0.892,4.472-2.654
	l3.085-3.96l-5.829-4.332C100.761,126.568,100.051,126.194,99,126.194"/>
<path fill="#95D5CF" d="M91.349,143.217c-8.395-5.708-7.536-14.323-3.322-20.018c4.73-6.394,11.995-6.281,16.507-3.009
	c2.135,1.549,28.199,21.342,40.405,30.614l-17.849,2.213l-1.768-4.773l3.075-1.263l-10.78-8.014c0,0-10.547-8.513-10.879-8.087
	l-5.914-4.396c0,0-3.306-1.793-6.474,2.271c-3.167,4.064,0.824,7.176,0.824,7.176l1.581,1.021c0,0,3.348,2.44,6.832-2.029
	c1.893-2.428,2.756-3.536,3.151-4.043l4.616,3.432l1.574,1.419C106.629,146.585,98.347,147.976,91.349,143.217"/>
<path fill="#191818" d="M99.15,156.089c-1.285,0-2.587-0.125-3.903-0.375c-2.921-0.556-7.462-2.051-12.507-6.014
	c-5.836-4.585-14.233-18.74-2.945-33.222c4.13-5.3,9.019-8.244,14.529-8.754c9.354-0.878,17.086,5.633,17.795,6.248l23.543,18.35
	l0.11-1.484l8.305,0.348l2.598,20.956l-20.866,2.587l-2.771-7.491l1.847-0.759l-4.969-3.694c-0.941,1.2-3.268,4.161-3.64,4.589
	C111.281,153.124,105.422,156.089,99.15,156.089 M96.028,110.944c-0.471,0-0.944,0.021-1.423,0.065
	c-4.56,0.43-8.667,2.95-12.209,7.495c-10.729,13.765-0.852,26.063,2.381,28.603c14.151,11.117,24.248,3.584,29.008-1.896
	c0.287-0.33,2.468-3.101,3.482-4.394l-10.407-7.737l-2.16,2.771c-3.532,4.532-7.5,3.519-9.104,2.348l-1.623-1.052
	c-2.126-1.658-4.179-5.555-1.111-9.49c3.186-4.086,6.993-3.557,8.561-2.707l0.198,0.126l29.914,22.236l-4.301,1.766l0.761,2.057
	l15.002-1.859l-1.849-14.911l-2.323-0.099l-0.33,4.444l-28.52-22.229C109.911,116.422,103.59,110.944,96.028,110.944
	 M95.959,134.511l1.504,0.973c0.41,0.275,2.313,1.322,4.637-1.659l2.113-2.711l-4.431-3.294c-0.415-0.171-2.291-0.738-4.319,1.864
	C93.548,132.142,95.289,133.951,95.959,134.511"/>
<polyline fill="#FFFFFF" points="96.456,100.47 97.829,111.621 103.143,111.843 103.363,108.879 107.3,111.928 "/>
<polygon fill="#191818" points="104.669,113.557 96.362,113.209 94.819,100.671 98.092,100.269 99.294,110.032 101.616,110.129 
	101.945,105.697 108.309,110.624 106.29,113.232 104.78,112.062 "/>
<path fill="#191818" d="M141.254,89.974c7.449,0,13.512,4.529,15.438,6.042c4.38,3.442,13.816,16.603,2.663,30.912
	c-4.85,6.223-10.159,8.196-14.942,8.196c-0.512,0-1.018-0.022-1.516-0.065l1.939,15.65l-17.935,2.223l-1.766-4.773l3.074-1.263
	l-17.042-12.669l7.829,7.057c-0.392,0.502-3.572,4.555-3.966,5.01c-5.355,6.166-10.898,8.152-15.834,8.152
	c-7.45,0-13.512-4.528-15.438-6.042c-4.38-3.442-13.817-16.602-2.663-30.911c4.85-6.224,10.158-8.197,14.943-8.196
	c0.511,0,1.017,0.021,1.515,0.063l-1.94-15.648l17.935-2.224l1.767,4.774l-3.074,1.262l17.042,12.668l-7.83-7.055
	c0.392-0.502,3.572-4.556,3.967-5.01C130.775,91.961,136.318,89.974,141.254,89.974 M141.638,118.414
	c1.244,0,2.966-0.506,4.649-2.665c3.168-4.064-0.825-7.175-0.825-7.175l-1.579-1.022c0,0-0.913-0.665-2.281-0.665
	c-1.252,0-2.886,0.558-4.552,2.695c-1.893,2.427-2.755,3.535-3.151,4.042l5.914,4.396
	C139.813,118.02,140.539,118.414,141.638,118.414 M137.078,135.516l0.133-1.784c-4.666-1.759-7.83-4.557-7.83-4.557
	c-2.926-2.28-26.009-20.272-26.009-20.272l-0.133,1.785c4.667,1.759,7.83,4.557,7.83,4.557
	C113.995,117.524,137.078,135.516,137.078,135.516 M98.848,137.533c1.253,0,2.887-0.559,4.552-2.695
	c1.894-2.427,2.756-3.535,3.151-4.042l-5.914-4.396c0,0-0.726-0.394-1.824-0.394c-1.245,0-2.967,0.506-4.649,2.665
	c-3.168,4.063,0.824,7.175,0.824,7.175l1.58,1.022C96.567,136.868,97.479,137.533,98.848,137.533 M141.254,87.466
	c-6.567,0-12.532,3.033-17.729,9.017c-0.333,0.383-2.061,2.577-3.15,3.963l-3.077-2.286l1.209-0.497l-0.84-2.271l-1.768-4.773
	l-0.689-1.863l-1.972,0.244l-17.935,2.224l-2.489,0.308l0.309,2.49l1.589,12.812c-5.941,0.393-11.183,3.456-15.596,9.119
	c-11.685,14.991-2.963,29.668,3.091,34.426c5.478,4.303,11.352,6.578,16.988,6.578c6.567,0,12.531-3.033,17.729-9.018
	c0.333-0.384,2.061-2.577,3.148-3.963l3.077,2.287l-1.209,0.496l0.842,2.271l1.767,4.774l0.688,1.863l1.973-0.245l17.934-2.224
	l2.49-0.308l-0.31-2.49l-1.588-12.811c5.941-0.395,11.183-3.457,15.595-9.119c11.687-14.993,2.964-29.668-3.092-34.426
	C152.766,89.74,146.892,87.466,141.254,87.466 M137.455,113.142l0.524-0.672l1.049-1.346c0.614-0.789,1.56-1.729,2.574-1.729
	c0.414,0,0.733,0.154,0.831,0.208l0.087,0.072v-0.017l1.46,0.943c0.862,0.736,1.607,1.962,0.328,3.604
	c-0.879,1.127-1.777,1.699-2.671,1.699c-0.252,0-0.455-0.048-0.576-0.085L137.455,113.142z M96.47,133.816
	c-0.862-0.735-1.607-1.963-0.328-3.604c0.879-1.127,1.777-1.699,2.671-1.699c0.252,0,0.455,0.047,0.576,0.083l3.606,2.681
	l-0.388,0.497l-1.185,1.521c-0.614,0.789-1.561,1.728-2.574,1.728c-0.44,0-0.8-0.182-0.802-0.183l-0.058-0.042l-0.059-0.038
	L96.47,133.816z"/>
</svg>
