<?xml version="1.0" encoding="utf-8"?>
<!-- Generator: Adobe Illustrator 16.0.0, SVG Export Plug-In . SVG Version: 6.00 Build 0)  -->
<!DOCTYPE svg PUBLIC "-//W3C//DTD SVG 1.1//EN" "http://www.w3.org/Graphics/SVG/1.1/DTD/svg11.dtd">
<svg version="1.1" id="Layer_1" xmlns="http://www.w3.org/2000/svg" xmlns:xlink="http://www.w3.org/1999/xlink" x="0px" y="0px"
	 width="612px" height="792px" viewBox="0 0 612 792" enable-background="new 0 0 612 792" xml:space="preserve">
<path fill="#F26C7C" d="M306.679,341.816h-65.414c0,0.089,0.002,0.177,0.002,0.267v70.466c0,0,2.707,27.518,32.486,35.871
	c28.79,8.077,32.698,17.53,32.926,18.149c0.008,0.021,0.011,0.033,0.011,0.033s3.159-9.828,32.938-18.183
	c29.779-8.354,32.486-35.871,32.486-35.871v-70.428c0-0.013,0.001-0.025,0.001-0.038c0-0.09,0.002-0.178,0.003-0.267H306.679z"/>
<g opacity="0.6">
	<g>
		<defs>
			<rect id="SVGID_1_" x="306.68" y="340.51" width="66.811" height="127.4"/>
		</defs>
		<clipPath id="SVGID_2_">
			<use xlink:href="#SVGID_1_"  overflow="visible"/>
		</clipPath>
		<path clip-path="url(#SVGID_2_)" fill="#DF2E54" d="M340.317,449.346c30.403-8.528,33.166-36.623,33.166-36.623v-71.901
			c0.001-0.013,0.002-0.026,0.002-0.039c0-0.092,0.002-0.181,0.002-0.272h-66.809v127.365c0.008,0.022,0.012,0.034,0.012,0.034
			S309.916,457.875,340.317,449.346"/>
	</g>
</g>
<g opacity="0.4">
	<g>
		<defs>
			<rect id="SVGID_3_" x="230.68" y="307.37" width="152.021" height="160.54"/>
		</defs>
		<clipPath id="SVGID_4_">
			<use xlink:href="#SVGID_3_"  overflow="visible"/>
		</clipPath>
		<path clip-path="url(#SVGID_4_)" fill="#FFFFFF" d="M364.694,321.164c-2.642,4.355-4.931,10.604-5.003,19.229v0.004l-0.003,0.259
			l-0.001,0.083v0.082v70.902c-0.26,1.438-1.204,5.667-3.914,10.226c-4.133,6.953-10.586,11.701-19.183,14.113
			c-13.943,3.912-23.452,8.355-29.929,12.659c-6.466-4.301-15.954-8.755-29.872-12.659c-8.596-2.412-15.05-7.16-19.183-14.113
			c-2.709-4.559-3.653-8.787-3.913-10.226v-70.941l-0.003-0.375c-0.064-8.625-2.356-14.882-5.003-19.243h24.605h23.781h9.198h33.814
			H364.694 M372.664,307.366h-32.576h-33.814h-9.198h-23.781h-32.576l-10.034,15.454c0,0,9.1,2.807,9.21,17.689
			c0.001,0.091,0.003,0.181,0.003,0.272v71.94c0,0,2.764,28.095,33.166,36.624c29.393,8.245,33.383,17.896,33.615,18.528
			c0.008,0.022,0.012,0.033,0.012,0.033s3.225-10.033,33.627-18.562c30.403-8.529,33.167-36.624,33.167-36.624v-71.901
			c0-0.013,0.001-0.025,0.001-0.039c0-0.092,0.002-0.182,0.002-0.272c0.11-14.883,9.211-17.689,9.211-17.689L372.664,307.366z"/>
	</g>
</g>
<path fill="#1A1A19" d="M382.698,322.82l-10.034-15.454h-32.576h-33.814h-9.198h-23.781h-32.576l-10.034,15.454
	c0,0,9.1,2.807,9.211,17.689v7.525h133.593v-7.525C373.598,325.627,382.698,322.82,382.698,322.82"/>
<path fill="#191818" d="M368.121,315.732l3.393,5.225c-2.295,2.726-4.316,6.396-5.444,11.187H247.313
	c-1.128-4.79-3.149-8.461-5.444-11.187l3.392-5.225h28.033h23.781h9.198h33.814H368.121 M372.664,307.366h-32.576h-33.814h-9.198
	h-23.781h-32.576l-10.034,15.454c0,0,9.1,2.807,9.21,17.689h133.593c0.11-14.883,9.211-17.689,9.211-17.689L372.664,307.366z"/>
<path fill="#191818" d="M368.121,315.732l3.393,5.225c-3.476,4.13-6.324,10.43-6.392,19.5l-0.001,0.059v0.033l-0.001,0.022
	l-0.002,0.171v0.039v0.04v71.392c-0.394,2.726-4.038,22.619-27.06,29.078c-5.879,1.649-21.529,6.528-31.394,14.107
	c-5.685-4.468-15.25-9.593-31.342-14.107c-22.9-6.425-26.624-26.116-27.06-29.098v-71.411l-0.002-0.267l-0.001-0.068
	c-0.067-9.064-2.915-15.361-6.391-19.49l3.392-5.225h28.033h23.781h9.198h33.814H368.121 M372.664,307.366h-32.576h-33.814h-9.198
	h-23.781h-32.576l-10.034,15.454c0,0,9.1,2.807,9.21,17.689c0.001,0.091,0.003,0.181,0.003,0.272v71.94
	c0,0,2.764,28.095,33.166,36.624c29.393,8.245,33.383,17.896,33.615,18.528c0.008,0.022,0.012,0.033,0.012,0.033
	s3.225-10.033,33.627-18.562c30.403-8.529,33.167-36.624,33.167-36.624v-71.901c0-0.013,0.001-0.025,0.001-0.039
	c0-0.092,0.002-0.182,0.002-0.272c0.11-14.883,9.211-17.689,9.211-17.689L372.664,307.366z"/>
<path fill="#FFFFFF" d="M262.694,334.708l2.438-2.589c1.054,1.385,2.469,2.168,4.185,2.168c1.927,0,3.041-1.475,3.041-3.16
	c0-1.987-1.054-3.162-2.86-3.162c-1.355,0-2.379,0.481-3.312,1.655l-2.92-0.782v-11.409h12.042v3.552h-8.008v5.148
	c0.783-0.964,2.138-1.655,3.673-1.655c3.041,0,5.479,2.378,5.479,6.532c0,4.033-2.739,6.863-7.014,6.863
	C266.337,337.869,264.199,336.727,262.694,334.708"/>
<path fill="#FFFFFF" d="M285.511,337.508v-20.08h6.473c5.539,0,8.731,4.154,8.731,10.056s-3.162,10.024-8.731,10.024H285.511z
	 M296.59,327.483c0-3.974-1.566-6.503-4.606-6.503h-2.439v12.976h2.439C294.964,333.956,296.59,331.308,296.59,327.483"/>
<path fill="#FFFFFF" d="M313.416,337.508l-0.933-3.552h-6.172l-0.934,3.552h-4.365l5.961-20.08h4.876l5.961,20.08H313.416z
	 M309.412,321.673l-2.288,8.73h4.576L309.412,321.673z"/>
<polygon fill="#FFFFFF" points="322.416,337.508 322.416,329.229 316.214,317.428 320.67,317.428 324.433,325.496 328.195,317.428 
	332.651,317.428 326.449,329.229 326.449,337.508 "/>
<path fill="#FFFFFF" d="M332.62,335.28l1.986-3.101c1.114,1.234,2.86,2.138,4.848,2.138c1.775,0,2.739-0.993,2.739-2.228
	c0-3.523-8.972-2.318-8.972-9.122c0-3.162,2.468-5.871,6.623-5.871c2.438,0,4.546,0.783,6.082,2.228L344,322.336
	c-1.205-1.145-2.74-1.687-4.305-1.687c-1.446,0-2.349,0.813-2.349,2.047c0,3.132,8.941,2.288,8.941,9.063
	c0,3.521-2.409,6.11-6.805,6.11C336.443,337.869,334.215,336.877,332.62,335.28"/>
<path fill="#191818" d="M290.334,368.856c0,2.099-1.701,3.8-3.8,3.8s-3.799-1.701-3.799-3.8s1.701-3.8,3.799-3.8
	S290.334,366.758,290.334,368.856"/>
<path fill="#FFFFFF" d="M317.443,428.655c-14.856,6.186-31.914-0.844-38.099-15.7c-6.186-14.856,0.844-31.914,15.701-38.1
	c14.856-6.186,31.914,0.845,38.098,15.701C339.33,405.412,332.3,422.471,317.443,428.655"/>
<path fill="#F26C7C" d="M306.244,374.163c-15.239,0-27.593,12.354-27.593,27.593s12.354,27.593,27.593,27.593
	c15.239,0,27.593-12.354,27.593-27.593S321.483,374.163,306.244,374.163 M306.244,422.98c-11.722,0-21.225-9.502-21.225-21.225
	s9.503-21.226,21.225-21.226c11.723,0,21.225,9.503,21.225,21.226S317.967,422.98,306.244,422.98"/>
<path fill="#F26C7C" d="M306.244,386.897c-8.206,0-14.858,6.652-14.858,14.858s6.652,14.857,14.858,14.857
	s14.858-6.651,14.858-14.857S314.45,386.897,306.244,386.897 M306.244,410.246c-4.689,0-8.49-3.801-8.49-8.49s3.801-8.49,8.49-8.49
	c4.689,0,8.49,3.801,8.49,8.49S310.934,410.246,306.244,410.246"/>
<path fill="#191818" d="M306.244,396.893c-2.686,0-4.863,2.178-4.863,4.863s2.177,4.862,4.863,4.862s4.863-2.177,4.863-4.862
	S308.93,396.893,306.244,396.893"/>
<path fill="#191818" d="M306.258,437.214c-14.366,0-27.217-8.57-32.739-21.833c-7.513-18.045,1.056-38.838,19.101-46.352
	c4.354-1.813,8.933-2.731,13.611-2.731c14.367,0,27.218,8.569,32.74,21.833c3.639,8.742,3.656,18.377,0.049,27.132
	c-3.607,8.754-10.409,15.58-19.15,19.219C315.516,436.295,310.937,437.214,306.258,437.214 M306.23,370.442
	c-4.128,0-8.172,0.813-12.018,2.413c-15.937,6.635-23.503,24.996-16.868,40.933c4.876,11.713,16.226,19.28,28.913,19.28
	c4.129,0,8.172-0.812,12.018-2.413c7.721-3.214,13.727-9.241,16.912-16.973s3.17-16.24-0.043-23.959
	C330.268,378.011,318.919,370.442,306.23,370.442"/>
<path fill="#FFFFFF" d="M306.231,368.37v5.269c11.393,0,21.583,6.796,25.962,17.313c5.957,14.31-0.836,30.796-15.146,36.753
	c-3.455,1.439-7.085,2.168-10.79,2.168c-11.393,0-21.584-6.796-25.963-17.313c-5.958-14.31,0.837-30.796,15.146-36.753
	c3.455-1.439,7.085-2.168,10.79-2.168V368.37 M306.231,368.37c-4.275,0-8.622,0.827-12.815,2.573
	c-17.018,7.084-25.07,26.623-17.985,43.641c5.34,12.824,17.751,20.558,30.827,20.558c4.275,0,8.622-0.827,12.814-2.573
	c17.018-7.084,25.069-26.623,17.984-43.641C331.718,376.104,319.306,368.37,306.231,368.37"/>
<path fill="#191818" d="M306.258,437.214c-14.366,0-27.217-8.57-32.739-21.833c-7.513-18.045,1.056-38.838,19.101-46.352
	c4.354-1.813,8.933-2.731,13.611-2.731c14.367,0,27.218,8.569,32.74,21.833c3.639,8.742,3.656,18.377,0.049,27.132
	c-3.607,8.754-10.409,15.58-19.15,19.219C315.516,436.295,310.937,437.214,306.258,437.214 M306.23,370.442
	c-4.128,0-8.172,0.813-12.018,2.413c-15.937,6.635-23.503,24.996-16.868,40.933c4.876,11.713,16.226,19.28,28.913,19.28
	c4.129,0,8.172-0.812,12.018-2.413c7.721-3.214,13.727-9.241,16.912-16.973s3.17-16.24-0.043-23.959
	C330.268,378.011,318.919,370.442,306.23,370.442"/>
<path fill="#191818" d="M306.244,376.818c0,0-0.002,0.021-0.004,0.053h0.01C306.246,376.839,306.244,376.818,306.244,376.818"/>
<path fill="#191818" d="M305.426,434.315h1.636c0.692,0,1.255-0.562,1.255-1.254v-5.435c0-0.693-0.563-1.254-1.255-1.254h-1.636
	c-0.693,0-1.254,0.561-1.254,1.254v5.435C304.172,433.754,304.733,434.315,305.426,434.315"/>
<path fill="#191818" d="M305.928,376.846c0.002,0.014,0.537,0.025,1.196,0.025c0.658,0,1.193-0.561,1.193-1.254v-5.77
	c0-0.692-0.563-1.254-1.255-1.254h-1.637c-0.692,0-1.254,0.562-1.254,1.254v5.77c0,0.693,0.391,1.254,0.874,1.254
	c0.483,0,0.876-0.012,0.877-0.025C305.924,376.83,305.927,376.83,305.928,376.846"/>
<path fill="#191818" d="M339.105,402.272v-1.636c0-0.693-0.563-1.255-1.254-1.255h-5.687c-0.692,0-1.254,0.562-1.254,1.255v1.636
	c0,0.693,0.562,1.255,1.254,1.255h5.687C338.543,403.527,339.105,402.966,339.105,402.272"/>
<path fill="#191818" d="M273.383,400.637v1.636c0,0.692,0.562,1.255,1.254,1.255h5.519c0.693,0,1.254-0.563,1.254-1.255v-1.636
	c0-0.693-0.561-1.254-1.254-1.254h-5.519C273.945,399.383,273.383,399.943,273.383,400.637"/>
<path fill="#191818" d="M290.307,381.771c-0.681-1.044-0.387-2.442,0.657-3.125c1.044-0.681,2.443-0.387,3.124,0.657
	c0.682,1.045,11.682,22.031,11.682,22.031S290.989,382.814,290.307,381.771"/>
<path fill="#F26C7C" d="M313.223,361.922c0,3.711-3.008,6.719-6.72,6.719c-3.71,0-6.718-3.008-6.718-6.719
	c0-3.71,3.008-6.719,6.718-6.719C310.215,355.203,313.223,358.212,313.223,361.922"/>
<path fill="#191818" d="M329.418,411.036c1.193,0.364,2.454-0.308,2.818-1.5c0.363-1.192-0.309-2.455-1.5-2.819
	c-1.193-0.363-24.412-5.089-24.412-5.089S328.225,410.672,329.418,411.036"/>
<path fill="#191818" d="M306.694,369.945c-4.437,0-8.046-3.609-8.046-8.046s3.609-8.046,8.046-8.046s8.046,3.609,8.046,8.046
	S311.131,369.945,306.694,369.945 M306.694,357.998c-2.151,0-3.901,1.75-3.901,3.901s1.75,3.901,3.901,3.901
	c2.151,0,3.901-1.75,3.901-3.901S308.846,357.998,306.694,357.998"/>
<path fill="#191818" d="M320.318,369.599l2.588-3.061c0.895-1.058,2.477-1.19,3.535-0.296l12.03,10.171
	c1.058,0.894,1.191,2.477,0.296,3.535l-2.587,3.061L320.318,369.599z"/>
<path fill="#1A1A19" d="M306.69,472.615c0,0-0.004-0.012-0.012-0.033c-0.194-0.527-3.012-7.318-20.954-14.34v16.475
	c11.415,7.013,20.568,9.111,20.568,9.111h0.797c0,0,9.152-2.099,20.567-9.111V458.24C308.97,465.553,306.69,472.615,306.69,472.615"
	/>
<path fill="#1A1A19" d="M253.395,442.252v8.096c8.119,9.57,19.146,15.858,29.014,22.171v-16.513
	c-2.791-0.993-5.886-1.982-9.345-2.953C264.499,450.65,258.129,446.695,253.395,442.252"/>
<path fill="#1A1A19" d="M330.974,456.007v16.512c9.869-6.313,20.896-12.601,29.015-22.17v-8.098
	c-4.734,4.442-11.105,8.398-19.67,10.802C336.856,454.023,333.766,455.014,330.974,456.007"/>
<path fill="#010101" d="M230.916,439.48c0.916-0.017,1.783-0.026,2.638,0.015c-3.211-4.571-2.291-10.164-4.058-15.119l0.017-0.22
	c5.329,2.009,8.124,6.701,10.731,11.657c1.861,3.593,3.683,7.274,6.339,9.994c-1.109,0.08-2.153,0.229-3.234,0.388
	c-1.122,0.164-2.276,0.387-3.435,0.692c-2.306,0.135-4.581,0.238-6.732,0.167c-4.035-0.171-7.795-0.854-11.037-2.605
	c-1.502-0.799-2.902-1.85-4.131-3.161c0.949-0.154,1.992-0.343,3.028-0.524C224.307,440.209,227.74,439.639,230.916,439.48"/>
<path fill="#010101" d="M220.861,421.935c1.062,1.399,2.535,2.593,3.517,4.192c0.274,0.794,0.6,1.551,0.922,2.329
	c0.784,2.099,1.378,4.127,0.791,5.831c-2.664-1.041-5.365-2.283-7.72-4.483c-1.341-1.617-2.338-3.361-3.036-5.244
	c-1.11-2.954-1.453-6.194-1.075-9.59c0.008-0.114,0.033-0.178,0.025-0.252l0.3-0.285c0.113,0.265,0.263,0.539,0.409,0.824
	C216.42,417.854,218.506,419.734,220.861,421.935"/>
<path fill="#010101" d="M381.041,439.48c-0.916-0.017-1.783-0.026-2.639,0.015c3.211-4.571,2.291-10.164,4.059-15.119l-0.018-0.22
	c-5.329,2.009-8.124,6.701-10.73,11.657c-1.861,3.593-3.684,7.274-6.34,9.994c1.109,0.08,2.153,0.229,3.234,0.388
	c1.122,0.164,2.275,0.387,3.436,0.692c2.306,0.135,4.58,0.238,6.731,0.167c4.035-0.171,7.795-0.854,11.037-2.605
	c1.502-0.799,2.901-1.85,4.131-3.161c-0.949-0.154-1.992-0.343-3.028-0.524C387.649,440.209,384.217,439.639,381.041,439.48"/>
<path fill="#010101" d="M392.521,421.935c-1.063,1.399-2.535,2.593-3.518,4.192c-0.273,0.794-0.599,1.551-0.922,2.329
	c-0.783,2.099-1.378,4.127-0.791,5.831c2.664-1.041,5.365-2.283,7.721-4.483c1.341-1.617,2.338-3.361,3.035-5.244
	c1.11-2.954,1.453-6.194,1.075-9.59c-0.008-0.114-0.032-0.178-0.024-0.252l-0.301-0.285c-0.112,0.265-0.263,0.539-0.408,0.824
	C396.963,417.854,394.877,419.734,392.521,421.935"/>
</svg>
