<?xml version="1.0" encoding="utf-8"?>
<!-- Generator: Adobe Illustrator 16.0.0, SVG Export Plug-In . SVG Version: 6.00 Build 0)  -->
<!DOCTYPE svg PUBLIC "-//W3C//DTD SVG 1.1//EN" "http://www.w3.org/Graphics/SVG/1.1/DTD/svg11.dtd">
<svg version="1.1" id="Layer_1" xmlns="http://www.w3.org/2000/svg" xmlns:xlink="http://www.w3.org/1999/xlink" x="0px" y="0px"
	 width="240px" height="200px" viewBox="0 0 240 200" enable-background="new 0 0 240 200" xml:space="preserve">
<path fill="none" d="M53.764,2645.837"/>
<path fill="none" d="M53.764-599.76"/>
<path fill="#96D5CF" d="M118.139,57.601H53.355c0,0.089,0.002,0.177,0.002,0.266v69.787c0,0,2.681,27.253,32.173,35.525
	c28.513,7.998,32.383,17.361,32.609,17.976c0.008,0.021,0.011,0.031,0.011,0.031s3.127-9.732,32.622-18.007
	c29.49-8.272,32.172-35.525,32.172-35.525V57.904c0-0.014,0.002-0.025,0.002-0.038c0-0.089,0.002-0.177,0.003-0.266H118.139
	L118.139,57.601z"/>
<g opacity="0.5">
	<g>
		<g>
			<defs>
				<rect id="SVGID_1_" x="118.14" y="55.694" width="66.811" height="127.397"/>
			</defs>
			<clipPath id="SVGID_2_">
				<use xlink:href="#SVGID_1_"  overflow="visible"/>
			</clipPath>
			<path clip-path="url(#SVGID_2_)" fill="#189995" d="M151.777,164.53c30.402-8.529,33.166-36.624,33.166-36.624V56.005
				c0-0.013,0.002-0.024,0.002-0.039c0-0.092,0.002-0.181,0.002-0.271h-66.809V183.06c0.008,0.021,0.012,0.034,0.012,0.034
				S121.375,173.06,151.777,164.53"/>
		</g>
	</g>
</g>
<g opacity="0.4">
	<g>
		<g>
			<defs>
				<rect id="SVGID_3_" x="42.14" y="22.55" width="152.021" height="160.543"/>
			</defs>
			<clipPath id="SVGID_4_">
				<use xlink:href="#SVGID_3_"  overflow="visible"/>
			</clipPath>
			<path clip-path="url(#SVGID_4_)" fill="#FFFFFF" d="M176.154,36.348c-2.639,4.351-4.924,10.587-5.002,19.193l-0.002,0.032
				l-0.004,0.321v0.056v0.055v70.903c-0.261,1.438-1.203,5.666-3.914,10.225c-4.131,6.953-10.586,11.701-19.183,14.113
				c-13.942,3.912-23.45,8.354-29.929,12.659c-6.467-4.302-15.954-8.755-29.872-12.659c-8.596-2.412-15.051-7.16-19.183-14.113
				c-2.709-4.559-3.653-8.786-3.913-10.225V55.967l-0.003-0.375c-0.065-8.625-2.356-14.883-5.003-19.244h24.605h23.781h9.198h33.814
				H176.154 M184.124,22.551h-32.576h-33.814h-9.198H84.755H52.179L42.145,38.004c0,0,9.1,2.807,9.21,17.689
				c0.001,0.091,0.003,0.181,0.003,0.272v71.939c0,0,2.764,28.095,33.166,36.624c29.393,8.245,33.383,17.896,33.615,18.528
				c0.008,0.021,0.012,0.033,0.012,0.033s3.225-10.033,33.626-18.563c30.402-8.53,33.168-36.624,33.168-36.624V56.003
				c0-0.013,0-0.025,0-0.038c0-0.093,0.003-0.183,0.003-0.272c0.11-14.884,9.211-17.689,9.211-17.689L184.124,22.551z"/>
		</g>
	</g>
</g>
<path fill="#1A1A19" d="M194.158,38.004L184.124,22.55h-32.576h-33.814h-9.198H84.755H52.179L42.145,38.004
	c0,0,9.1,2.807,9.211,17.69v7.523h133.593v-7.523C185.059,40.811,194.158,38.004,194.158,38.004"/>
<path fill="#191818" d="M179.581,30.916l3.394,5.226c-2.297,2.726-4.316,6.396-5.445,11.187H58.773
	c-1.128-4.789-3.149-8.46-5.444-11.187l3.392-5.226h28.033h23.781h9.198h33.814H179.581 M184.124,22.551h-32.576h-33.814h-9.198
	H84.755H52.179L42.145,38.004c0,0,9.1,2.807,9.21,17.689h133.593c0.11-14.884,9.211-17.689,9.211-17.689L184.124,22.551z"/>
<path fill="#191818" d="M179.581,30.916l3.394,5.227c-3.477,4.128-6.324,10.429-6.393,19.498l-0.001,0.06v0.015l-0.002,0.037
	l-0.001,0.201l-0.001,0.026v0.025v71.392c-0.392,2.727-4.037,22.62-27.06,29.079c-5.879,1.648-21.529,6.527-31.394,14.106
	c-5.685-4.468-15.25-9.593-31.342-14.106c-22.9-6.425-26.624-26.115-27.06-29.099v-71.41l-0.002-0.268l-0.001-0.068
	c-0.067-9.063-2.915-15.361-6.391-19.489l3.392-5.226h28.033h23.781h9.198h33.814H179.581 M184.124,22.551h-32.576h-33.814h-9.198
	H84.755H52.179L42.145,38.004c0,0,9.1,2.807,9.21,17.689c0.001,0.091,0.003,0.181,0.003,0.272v71.939
	c0,0,2.764,28.095,33.166,36.624c29.393,8.245,33.383,17.896,33.615,18.528c0.008,0.021,0.012,0.033,0.012,0.033
	s3.225-10.033,33.626-18.563c30.402-8.53,33.168-36.624,33.168-36.624V56.003c0-0.013,0-0.025,0-0.038
	c0-0.093,0.003-0.183,0.003-0.272c0.11-14.884,9.211-17.689,9.211-17.689L184.124,22.551z"/>
<polygon fill="#FFFFFF" points="76.818,52.692 82.84,36.165 74.53,36.165 74.53,32.611 87.416,32.611 87.416,35.412 81.185,52.692 
	"/>
<path fill="#FFFFFF" d="M96.083,52.692V32.611h6.473c5.54,0,8.731,4.155,8.731,10.056s-3.162,10.025-8.731,10.025H96.083z
	 M107.162,42.667c0-3.975-1.565-6.503-4.606-6.503h-2.439v12.977h2.439C105.537,49.141,107.162,46.49,107.162,42.667"/>
<path fill="#FFFFFF" d="M123.988,52.692l-0.934-3.554h-6.173l-0.933,3.554h-4.365l5.961-20.081h4.876l5.961,20.081H123.988z
	 M119.984,36.856l-2.289,8.729h4.576L119.984,36.856z"/>
<polygon fill="#FFFFFF" points="132.986,52.692 132.986,44.414 126.785,32.611 131.241,32.611 135.004,40.68 138.768,32.611 
	143.225,32.611 137.021,44.414 137.021,52.692 "/>
<path fill="#FFFFFF" d="M143.191,50.464l1.986-3.101c1.114,1.233,2.86,2.138,4.848,2.138c1.775,0,2.74-0.994,2.74-2.228
	c0-3.522-8.974-2.318-8.974-9.122c0-3.162,2.47-5.871,6.625-5.871c2.438,0,4.545,0.784,6.08,2.228l-1.927,3.012
	c-1.204-1.145-2.739-1.687-4.305-1.687c-1.445,0-2.35,0.813-2.35,2.047c0,3.131,8.941,2.288,8.941,9.063
	c0,3.521-2.409,6.11-6.805,6.11C147.016,53.054,144.787,52.061,143.191,50.464"/>
<path fill="#FFFFFF" d="M119.454,91.137c0.392-0.502,3.571-4.556,3.966-5.01c13.438-15.473,31.014-1.697,30.063-2.439
	c10.289,8.021,12.461,20.223,3.873,31.24c-13.271,17.026-30.963,1.478-29.975,2.247c-2.926-2.28-26.01-20.271-26.01-20.271
	l-0.219,2.966l-5.315-0.225l-2.223-17.934l17.934-2.224l1.767,4.773l-3.074,1.263l27.571,20.495c0,0,3.308,1.793,6.476-2.271
	c3.167-4.064-0.825-7.175-0.825-7.175l-1.58-1.022c0,0-3.349-2.44-6.832,2.03l-3.484,4.47"/>
<path fill="#191818" d="M132.704,101.066c0.483,3.915,4.052,6.694,7.968,6.21c3.915-0.485,6.695-4.054,6.209-7.969
	c-0.484-3.915-4.052-6.694-7.967-6.21C134.999,93.583,132.219,97.151,132.704,101.066"/>
<path fill="#FFFFFF" d="M120.833,93.451l4.588,3.41c-0.108,0.188-0.217,0.382-0.325,0.576L120.833,93.451z"/>
<path fill="#191818" d="M125.52,100.09l-5.813-5.435l2.109-2.527l5.762,4.283l-0.727,1.269c-0.104,0.183-0.207,0.365-0.312,0.555
	L125.52,100.09z"/>
<polygon fill="#191818" points="127.034,98.188 125.285,96.89 125.497,96.526 127.164,98.029 "/>
<path fill="#191818" d="M139.45,106.431c-1.112,0-1.843-0.39-1.874-0.405l-6.01-4.469l3.215-4.125
	c1.414-1.813,2.973-2.732,4.634-2.732c1.385,0,2.302,0.656,2.34,0.685l1.576,1.019c0.048,0.038,1.03,0.813,1.637,2.105
	c0.562,1.199,0.882,3.078-0.788,5.219C142.438,105.961,140.646,106.431,139.45,106.431 M137.688,105.851
	c0.002,0,0.713,0.374,1.764,0.374c1.148,0,2.877-0.456,4.566-2.626c1.289-1.65,1.545-3.336,0.765-5.004
	c-0.585-1.249-1.562-2.018-1.57-2.025l-1.571-1.017c-0.015-0.01-0.908-0.647-2.225-0.647c-1.594,0-3.1,0.893-4.473,2.653
	l-3.084,3.959L137.688,105.851z"/>
<path fill="#96D5CF" d="M147.102,89.202c8.396,5.708,7.537,14.323,3.322,20.018c-4.73,6.395-11.994,6.281-16.507,3.011
	c-2.136-1.551-28.199-21.344-40.405-30.615l17.849-2.213l1.768,4.772l-3.075,1.265l10.78,8.013c0,0,10.547,8.513,10.879,8.087
	l5.914,4.396c0,0,3.307,1.794,6.475-2.271c3.166-4.063-0.826-7.176-0.826-7.176l-1.58-1.021c0,0-3.348-2.439-6.83,2.029
	c-1.893,2.428-2.758,3.536-3.151,4.043l-4.616-3.432l-1.574-1.418C131.82,85.834,140.104,84.443,147.102,89.202"/>
<path fill="#191818" d="M142.4,124.773c-8.563,0.001-15.405-5.75-16.069-6.326l-23.543-18.352l-0.11,1.484l-8.305-0.347
	l-2.599-20.957l20.867-2.587l2.772,7.49l-1.848,0.76l4.97,3.693c0.941-1.199,3.268-4.16,3.639-4.589
	c6.02-6.93,13.291-9.813,21.029-8.341c2.922,0.556,7.464,2.051,12.507,6.014c5.835,4.586,14.231,18.74,2.944,33.224
	c-4.131,5.3-9.02,8.243-14.528,8.754C143.544,124.749,142.968,124.773,142.4,124.773 M99.955,93.708l28.52,22.231
	c0.068,0.061,7.196,6.228,15.369,5.471c4.561-0.43,8.667-2.951,12.211-7.496c10.727-13.764,0.852-26.063-2.383-28.602
	c-14.15-11.121-24.249-3.587-29.007,1.896c-0.287,0.331-2.47,3.102-3.481,4.395l10.405,7.736l2.161-2.771
	c3.532-4.532,7.5-3.52,9.104-2.35l1.623,1.054c0.133,0.104,1.33,1.066,2.078,2.665c1.055,2.248,0.711,4.672-0.968,6.823
	c-3.185,4.084-6.991,3.56-8.56,2.707l-0.198-0.126l-29.913-22.235l4.3-1.768l-0.761-2.055l-15.002,1.858l1.848,14.911l2.324,0.1
	L99.955,93.708z M138.668,104.601c0.415,0.173,2.291,0.736,4.318-1.865c1.914-2.457,0.176-4.268-0.495-4.825l-1.505-0.973
	c-0.408-0.275-2.313-1.324-4.637,1.657l-2.113,2.712L138.668,104.601z"/>
<path fill="#FFFFFF" d="M116.996,129.282c-0.391,0.502-3.572,4.557-3.966,5.01c-13.438,15.473-31.014,1.697-30.062,2.439
	c-10.289-8.021-12.461-20.222-3.873-31.24c13.27-17.025,30.963-1.478,29.974-2.247c2.926,2.28,26.009,20.271,26.009,20.271
	l0.22-2.964l5.313,0.223l2.225,17.934l-17.934,2.224l-1.769-4.773l3.074-1.262L98.636,114.4c0,0-3.307-1.793-6.474,2.271
	c-3.167,4.064,0.825,7.176,0.825,7.176l1.579,1.021c0,0,3.349,2.44,6.833-2.029l3.484-4.471"/>
<path fill="#191818" d="M142.4,124.773c-8.563,0.001-15.405-5.75-16.069-6.326l-23.543-18.352l-0.11,1.484l-8.305-0.347
	l-2.599-20.957l20.867-2.587l2.772,7.49l-1.848,0.76l4.97,3.693c0.941-1.199,3.268-4.16,3.639-4.589
	c6.02-6.93,13.291-9.813,21.029-8.341c2.922,0.556,7.464,2.051,12.507,6.014c5.835,4.586,14.231,18.74,2.944,33.224
	c-4.131,5.3-9.02,8.243-14.528,8.754C143.544,124.749,142.968,124.773,142.4,124.773 M99.955,93.708l28.52,22.231
	c0.068,0.061,7.196,6.228,15.369,5.471c4.561-0.43,8.667-2.951,12.211-7.496c10.727-13.764,0.852-26.063-2.383-28.602
	c-14.15-11.121-24.249-3.587-29.007,1.896c-0.287,0.331-2.47,3.102-3.481,4.395l10.405,7.736l2.161-2.771
	c3.532-4.532,7.5-3.52,9.104-2.35l1.623,1.054c0.133,0.104,1.33,1.066,2.078,2.665c1.055,2.248,0.711,4.672-0.968,6.823
	c-3.185,4.084-6.991,3.56-8.56,2.707l-0.198-0.126l-29.913-22.235l4.3-1.768l-0.761-2.055l-15.002,1.858l1.848,14.911l2.324,0.1
	L99.955,93.708z M138.668,104.601c0.415,0.173,2.291,0.736,4.318-1.865c1.914-2.457,0.176-4.268-0.495-4.825l-1.505-0.973
	c-0.408-0.275-2.313-1.324-4.637,1.657l-2.113,2.712L138.668,104.601z"/>
<path fill="#FFFFFF" d="M116.996,129.282c-0.391,0.502-3.572,4.557-3.966,5.01c-13.438,15.473-31.014,1.697-30.062,2.439
	c-10.289-8.021-12.461-20.222-3.873-31.24c13.27-17.025,30.963-1.478,29.974-2.247c2.926,2.28,26.009,20.271,26.009,20.271
	l0.22-2.964l5.313,0.223l2.225,17.934l-17.934,2.224l-1.769-4.773l3.074-1.262L98.636,114.4c0,0-3.307-1.793-6.474,2.271
	c-3.167,4.064,0.825,7.176,0.825,7.176l1.579,1.021c0,0,3.349,2.44,6.833-2.029l3.484-4.471"/>
<path fill="#191818" d="M103.746,119.353c-0.485-3.915-4.052-6.693-7.967-6.21c-3.915,0.485-6.696,4.054-6.21,7.97
	c0.484,3.914,4.052,6.693,7.967,6.209C101.451,126.836,104.231,123.268,103.746,119.353"/>
<path fill="#FFFFFF" d="M115.617,126.968l-4.588-3.409c0.109-0.189,0.217-0.383,0.325-0.576L115.617,126.968z"/>
<path fill="#191818" d="M114.633,128.291l-5.761-4.282l0.726-1.271c0.104-0.181,0.208-0.365,0.312-0.553l1.021-1.858l5.813,5.438
	L114.633,128.291z"/>
<polygon fill="#191818" points="110.954,123.894 109.286,122.389 109.416,122.229 111.164,123.53 "/>
<path fill="#191818" d="M97.035,125.721c-1.385,0-2.302-0.655-2.34-0.684l-1.575-1.02c-0.048-0.036-4.044-3.227-0.85-7.325
	c1.742-2.234,3.534-2.704,4.73-2.704c1.111,0,1.843,0.391,1.874,0.405l6.01,4.468l-3.215,4.126
	C100.255,124.802,98.695,125.721,97.035,125.721 M97,114.194c-1.15,0-2.876,0.455-4.568,2.625c-3.066,3.936,0.648,6.905,0.807,7.03
	l1.573,1.017c0.013,0.011,0.908,0.647,2.223,0.647c1.594,0,3.098-0.892,4.472-2.653l3.085-3.96l-5.829-4.332
	C98.761,114.568,98.051,114.194,97,114.194"/>
<path fill="#96D5CF" d="M89.349,131.217c-8.395-5.708-7.536-14.323-3.322-20.018c4.73-6.395,11.995-6.281,16.507-3.009
	c2.135,1.549,28.198,21.342,40.405,30.613l-17.85,2.213l-1.768-4.772l3.074-1.263l-10.779-8.015c0,0-10.547-8.513-10.879-8.087
	l-5.914-4.396c0,0-3.306-1.793-6.474,2.271c-3.167,4.064,0.825,7.176,0.825,7.176l1.58,1.021c0,0,3.348,2.439,6.832-2.029
	c1.893-2.428,2.756-3.536,3.151-4.043l4.616,3.433l1.574,1.419C104.629,134.585,96.347,135.976,89.349,131.217"/>
<path fill="#191818" d="M97.15,144.089c-1.285,0-2.587-0.125-3.903-0.375c-2.921-0.556-7.462-2.051-12.507-6.014
	c-5.836-4.585-14.233-18.74-2.945-33.223c4.13-5.3,9.018-8.243,14.529-8.754c9.354-0.878,17.086,5.634,17.795,6.248l23.543,18.351
	l0.109-1.484l8.306,0.348l2.598,20.956l-20.866,2.587l-2.771-7.49l1.847-0.76l-4.969-3.693c-0.941,1.2-3.268,4.161-3.64,4.589
	C109.281,141.124,103.422,144.089,97.15,144.089 M94.028,98.944c-0.47,0-0.944,0.021-1.423,0.064
	c-4.56,0.431-8.667,2.95-12.209,7.495c-10.728,13.765-0.851,26.063,2.381,28.604c14.151,11.116,24.248,3.584,29.008-1.896
	c0.287-0.33,2.468-3.101,3.482-4.394l-10.407-7.737l-2.16,2.771c-3.532,4.532-7.5,3.52-9.104,2.349l-1.622-1.053
	c-2.127-1.657-4.179-5.555-1.112-9.489c3.186-4.086,6.993-3.558,8.561-2.707l0.198,0.126l29.914,22.235l-4.301,1.767l0.761,2.057
	l15.002-1.858l-1.849-14.911l-2.323-0.1l-0.33,4.444l-28.519-22.229C107.911,104.422,101.59,98.944,94.028,98.944 M93.959,122.511
	l1.504,0.974c0.41,0.274,2.313,1.321,4.637-1.659l2.113-2.711l-4.431-3.294c-0.415-0.171-2.291-0.738-4.319,1.863
	C91.548,120.142,93.289,121.951,93.959,122.511"/>
<polyline fill="#FFFFFF" points="94.456,88.47 95.829,99.621 101.143,99.843 101.363,96.879 105.3,99.928 "/>
<polygon fill="#191818" points="102.669,101.557 94.362,101.209 92.819,88.671 96.092,88.269 97.294,98.032 99.616,98.129 
	99.945,93.697 106.309,98.624 104.29,101.232 102.78,100.063 "/>
<path fill="#191818" d="M139.254,77.974c7.449,0,13.512,4.529,15.438,6.042c4.381,3.442,13.816,16.604,2.664,30.912
	c-4.851,6.224-10.16,8.196-14.942,8.196c-0.513,0-1.019-0.022-1.517-0.065l1.939,15.65l-17.936,2.223l-1.766-4.772l3.074-1.264
	l-17.042-12.669l7.829,7.058c-0.392,0.502-3.572,4.555-3.966,5.01c-5.355,6.166-10.898,8.152-15.834,8.152
	c-7.45,0-13.512-4.528-15.438-6.042c-4.38-3.442-13.817-16.603-2.663-30.911c4.85-6.225,10.158-8.197,14.943-8.196
	c0.511,0,1.017,0.021,1.515,0.063l-1.94-15.648l17.935-2.224l1.767,4.773l-3.074,1.262l17.042,12.669l-7.83-7.056
	c0.393-0.502,3.572-4.556,3.967-5.01C128.775,79.961,134.318,77.974,139.254,77.974 M139.639,106.414
	c1.243,0,2.965-0.506,4.648-2.665c3.168-4.064-0.825-7.175-0.825-7.175l-1.579-1.022c0,0-0.913-0.665-2.281-0.665
	c-1.252,0-2.886,0.559-4.552,2.695c-1.892,2.427-2.755,3.535-3.151,4.042l5.914,4.396
	C137.813,106.02,138.539,106.414,139.639,106.414 M135.078,123.516l0.133-1.783c-4.666-1.76-7.83-4.558-7.83-4.558
	c-2.926-2.28-26.009-20.271-26.009-20.271l-0.133,1.784c4.667,1.76,7.83,4.558,7.83,4.558
	C111.995,105.524,135.078,123.516,135.078,123.516 M96.848,125.533c1.253,0,2.887-0.56,4.552-2.695
	c1.894-2.427,2.756-3.535,3.151-4.042l-5.914-4.396c0,0-0.726-0.395-1.824-0.395c-1.245,0-2.967,0.506-4.649,2.665
	c-3.168,4.063,0.824,7.175,0.824,7.175l1.58,1.022C94.567,124.868,95.479,125.533,96.848,125.533 M139.254,75.466
	c-6.566,0-12.531,3.033-17.729,9.018c-0.334,0.383-2.062,2.576-3.15,3.963l-3.077-2.286l1.209-0.497l-0.84-2.271l-1.768-4.772
	l-0.689-1.863L111.238,77l-17.935,2.224l-2.489,0.309l0.309,2.489l1.588,12.813c-5.941,0.393-11.183,3.456-15.596,9.119
	c-11.685,14.991-2.963,29.668,3.092,34.426c5.477,4.303,11.351,6.578,16.988,6.578c6.567,0,12.531-3.033,17.729-9.018
	c0.333-0.385,2.061-2.577,3.148-3.964l3.076,2.287l-1.209,0.496l0.843,2.271l1.767,4.773l0.688,1.863l1.974-0.245l17.935-2.224
	l2.489-0.309l-0.309-2.489l-1.589-12.812c5.941-0.395,11.183-3.457,15.595-9.119c11.687-14.993,2.964-29.668-3.092-34.426
	C150.766,77.74,144.893,75.466,139.254,75.466 M135.455,101.142l0.523-0.672l1.049-1.346c0.615-0.789,1.561-1.729,2.574-1.729
	c0.414,0,0.733,0.154,0.832,0.208l0.086,0.072v-0.017l1.461,0.942c0.861,0.736,1.606,1.962,0.328,3.604
	c-0.879,1.127-1.777,1.699-2.672,1.699c-0.252,0-0.455-0.048-0.576-0.085L135.455,101.142z M94.47,121.816
	c-0.862-0.735-1.607-1.964-0.328-3.604c0.879-1.127,1.777-1.699,2.671-1.699c0.252,0,0.455,0.047,0.576,0.083l3.606,2.682
	l-0.388,0.497l-1.185,1.521c-0.614,0.789-1.561,1.729-2.574,1.729c-0.44,0-0.8-0.183-0.802-0.184l-0.058-0.042l-0.059-0.038
	L94.47,121.816z"/>
</svg>
