<?xml version="1.0" encoding="utf-8"?>
<!-- Generator: Adobe Illustrator 16.0.0, SVG Export Plug-In . SVG Version: 6.00 Build 0)  -->
<!DOCTYPE svg PUBLIC "-//W3C//DTD SVG 1.1//EN" "http://www.w3.org/Graphics/SVG/1.1/DTD/svg11.dtd">
<svg version="1.1" id="Layer_1" xmlns="http://www.w3.org/2000/svg" xmlns:xlink="http://www.w3.org/1999/xlink" x="0px" y="0px"
	 width="612px" height="792px" viewBox="0 0 612 792" enable-background="new 0 0 612 792" xml:space="preserve">
<path fill="#FECF0A" d="M243.419,333.817v19.726v48.365c0,34.662,62.764,62.764,62.764,62.764s62.763-28.102,62.763-62.764v-48.365
	v-19.726H243.419z"/>
<g opacity="0.6">
	<g>
		<defs>
			<rect id="SVGID_1_" x="306.058" y="333.19" width="60.025" height="127.57"/>
		</defs>
		<clipPath id="SVGID_2_">
			<use xlink:href="#SVGID_1_"  overflow="visible"/>
		</clipPath>
		<path clip-path="url(#SVGID_2_)" fill="#CDA72C" d="M306.186,460.76c5.589-2.752,17.619-9.047,29.468-17.651
			c9.19-6.673,16.453-13.392,21.588-19.966c5.865-7.514,8.841-14.723,8.841-21.428v-47.224v-21.305h-60.025v127.511
			C306.1,460.719,306.145,460.74,306.186,460.76"/>
	</g>
</g>
<g opacity="0.4">
	<g>
		<defs>
			<rect id="SVGID_3_" x="241.582" y="329.39" width="129.201" height="137.2"/>
		</defs>
		<clipPath id="SVGID_4_">
			<use xlink:href="#SVGID_3_"  overflow="visible"/>
		</clipPath>
		<path clip-path="url(#SVGID_4_)" fill="#FFFFFF" d="M356.986,343.19v9.015v49.781c0,18.215-31.201,39.305-50.761,49.273
			c-5.696-2.924-14.984-8.061-24.254-14.771c-17.149-12.413-26.593-24.667-26.593-34.503v-49.781v-9.015H356.986 M370.783,329.395
			H241.582v22.811v49.781c0,35.677,64.601,64.6,64.601,64.6s64.601-28.923,64.601-64.6v-49.781V329.395z"/>
	</g>
</g>
<path fill="#1A1A19" d="M363.258,336.919v15.286v49.781c0,8.389-5.031,22.042-28.997,39.445
	c-11.291,8.199-22.754,14.197-28.081,16.82c-5.288-2.602-16.619-8.527-27.885-16.683c-24.124-17.462-29.188-31.164-29.188-39.583
	v-49.781v-15.286H363.258 M370.783,329.395H241.582v22.811v49.781c0,35.677,64.601,64.6,64.601,64.6s64.601-28.923,64.601-64.6
	v-49.781V329.395z"/>
<path fill="#1A1A19" d="M246.6,312.77c-2.741,0.32-4.983,2.84-4.983,5.599v25.574c0,2.76,2.258,5.017,5.017,5.017h119.09
	c2.76,0,5.017-2.257,5.017-5.017v-25.574c0-2.759-2.242-5.278-4.982-5.597l-54.715-6.366c-2.74-0.319-7.225-0.318-9.966,0.002
	L246.6,312.77z"/>
<polygon fill="#FFFFFF" points="284.507,337.476 284.507,325.618 282.083,328.139 280.235,326.194 284.94,321.467 287.749,321.467 
	287.749,337.476 "/>
<path fill="#FFFFFF" d="M289.619,337.476v-2.592c5.856-5.689,7.081-6.961,7.081-8.785c0-1.224-0.936-2.016-2.137-2.016
	c-1.416,0-2.544,0.648-3.408,1.8l-1.92-2.017c1.296-1.728,3.192-2.641,5.377-2.641c3.095,0,5.352,1.873,5.352,4.849
	c0,2.424-1.633,4.488-5.593,8.568h5.665v2.833H289.619z"/>
<path fill="#FFFFFF" d="M301.619,335.891c0-1.008,0.864-1.872,1.872-1.872s1.848,0.864,1.848,1.872c0,1.008-0.84,1.85-1.848,1.85
	S301.619,336.899,301.619,335.891"/>
<path fill="#FFFFFF" d="M306.827,335.243l1.944-2.063c0.841,1.104,1.97,1.728,3.337,1.728c1.536,0,2.424-1.177,2.424-2.52
	c0-1.584-0.84-2.521-2.279-2.521c-1.08,0-1.897,0.384-2.641,1.32l-2.328-0.624v-9.096h9.601v2.832h-6.385v4.104
	c0.625-0.768,1.704-1.32,2.929-1.32c2.424,0,4.368,1.896,4.368,5.208c0,3.217-2.185,5.473-5.593,5.473
	C309.73,337.764,308.027,336.852,306.827,335.243"/>
<polygon fill="#FFFFFF" points="327.42,337.476 323.724,331.21 322.596,332.987 322.596,337.476 319.379,337.476 319.379,321.467 
	322.596,321.467 322.596,328.738 327.107,321.467 330.853,321.467 325.74,329.002 331.211,337.476 "/>
<path fill="#FFFFFF" d="M340.106,406.808c0,9.819-7.96,17.779-17.778,17.779h-32.396c-9.819,0-17.779-7.96-17.779-17.779v-22.593
	c0-9.819,7.96-17.779,17.779-17.779h32.396c9.818,0,17.778,7.96,17.778,17.779V406.808z"/>
<path fill="#231F20" d="M322.327,426.594h-32.395c-10.91,0-19.786-8.877-19.786-19.786v-22.593c0-10.91,8.876-19.786,19.786-19.786
	h32.395c10.91,0,19.786,8.876,19.786,19.786v22.593C342.113,417.717,333.237,426.594,322.327,426.594 M289.932,368.442
	c-8.697,0-15.772,7.076-15.772,15.772v22.593c0,8.696,7.075,15.772,15.772,15.772h32.395c8.697,0,15.772-7.076,15.772-15.772
	v-22.593c0-8.696-7.075-15.772-15.772-15.772H289.932z"/>
<path fill="#FECF0A" d="M331.883,399.66c0,7.602-6.164,13.766-13.766,13.766l-37.74-13.766v-12.219
	c0-7.602,6.163-13.765,13.765-13.765h23.975c7.602,0,13.766,6.163,13.766,13.765V399.66z"/>
<g opacity="0.6">
	<g>
		<defs>
			<rect id="SVGID_5_" x="288.65" y="381.43" width="35.516" height="16.311"/>
		</defs>
		<clipPath id="SVGID_6_">
			<use xlink:href="#SVGID_5_"  overflow="visible"/>
		</clipPath>
		<rect x="288.65" y="381.431" clip-path="url(#SVGID_6_)" fill="#CDA72C" width="35.516" height="16.311"/>
	</g>
</g>
<path fill="#FECF0A" d="M290.567,409.572c0,2.129-1.725,3.854-3.853,3.854c-2.127,0-3.852-1.725-3.852-3.854
	c0-2.128,1.725-3.853,3.852-3.853C288.842,405.72,290.567,407.444,290.567,409.572"/>
<path fill="#FECF0A" d="M298.249,410.878c0,1.407-1.141,2.547-2.547,2.547c-1.407,0-2.548-1.14-2.548-2.547s1.141-2.547,2.548-2.547
	C297.107,408.331,298.249,409.471,298.249,410.878"/>
<path fill="#191818" d="M290.155,364.828v-2.978c0-1.386,1.123-2.509,2.508-2.509h26.698c1.385,0,2.508,1.123,2.508,2.509v2.978
	H290.155z"/>
<path fill="#191818" d="M290.155,426.066v2.979c0,1.386,1.123,2.509,2.508,2.509h26.698c1.385,0,2.508-1.123,2.508-2.509v-2.979
	H290.155z"/>
<path fill="#FFFFFF" d="M327.399,458.896c-10.386,6.446-19.063,10.539-20.966,11.416c-1.905-0.877-10.58-4.97-20.967-11.416v0.492
	c-0.003-0.002,0.004-0.005,0-0.007v15.052c11.415,7.013,20.568,11.111,20.568,11.111l0.399-0.001l0.399,0.001
	c0,0,9.152-4.099,20.567-11.111v-15.052c-0.005,0.002,0.004,0.005,0,0.007V458.896z"/>
<path fill="#FFFFFF" d="M282.151,457.76c-9.748-6.171-20.759-14.313-29.014-23.745v15.052c8.118,9.568,19.145,17.857,29.014,24.17
	v-15.052c-0.004-0.002,0.003-0.005,0-0.007V457.76z"/>
<path fill="#FFFFFF" d="M330.716,457.76v0.418c-0.005,0.002,0.003,0.005,0,0.007v15.052c9.868-6.313,20.895-14.602,29.014-24.17
	v-15.052C351.474,443.447,340.463,451.589,330.716,457.76"/>
<polygon fill="#FFFFFF" points="275.539,326.925 263.799,329.634 252.963,326.925 252.963,320.604 263.799,323.313 275.539,320.604 
	"/>
<polygon fill="#FFFFFF" points="275.539,335.956 263.799,338.665 252.963,335.956 252.963,329.635 263.799,332.344 275.539,329.635 
	"/>
<polygon fill="#FECF0A" points="359.903,326.925 348.163,329.634 337.327,326.925 337.327,320.604 348.163,323.313 359.903,320.604 
	"/>
<polygon fill="#FECF0A" points="359.903,335.956 348.163,338.665 337.327,335.956 337.327,329.635 348.163,332.344 359.903,329.635 
	"/>
</svg>
