<?xml version="1.0" encoding="utf-8"?>
<!-- Generator: Adobe Illustrator 16.0.0, SVG Export Plug-In . SVG Version: 6.00 Build 0)  -->
<!DOCTYPE svg PUBLIC "-//W3C//DTD SVG 1.1//EN" "http://www.w3.org/Graphics/SVG/1.1/DTD/svg11.dtd">
<svg version="1.1" id="Layer_1" xmlns="http://www.w3.org/2000/svg" xmlns:xlink="http://www.w3.org/1999/xlink" x="0px" y="0px"
	 width="612px" height="792px" viewBox="0 0 612 792" enable-background="new 0 0 612 792" xml:space="preserve">
<path fill="#FFFFFF" d="M327.499,458.522c-10.386,6.446-19.062,10.538-20.966,11.416c-1.905-0.878-10.58-4.97-20.967-11.416v0.492
	c-0.003-0.002,0.004-0.005,0-0.007v15.051c11.415,7.014,20.568,11.112,20.568,11.112l0.399-0.001l0.399,0.001
	c0,0,9.152-4.099,20.567-11.112v-15.051c-0.004,0.002,0.004,0.005,0,0.007V458.522z"/>
<path fill="#FFFFFF" d="M282.25,457.386c-9.748-6.171-20.759-14.313-29.014-23.745v15.051c8.118,9.569,19.145,17.858,29.014,24.17
	v-15.051c-0.004-0.002,0.003-0.005,0-0.007V457.386z"/>
<path fill="#FFFFFF" d="M330.815,457.386v0.418c-0.004,0.002,0.003,0.005,0,0.007v15.051c9.868-6.312,20.896-14.601,29.014-24.17
	v-15.051C351.573,443.072,340.563,451.215,330.815,457.386"/>
<path fill="#F26C7C" d="M243.943,333.683v19.67v48.231c0,34.567,62.59,62.589,62.59,62.589s62.59-28.021,62.59-62.589v-48.231
	v-19.67H243.943z"/>
<g opacity="0.6">
	<g>
		<defs>
			<rect id="SVGID_1_" x="306.408" y="332.87" width="60.025" height="127.569"/>
		</defs>
		<clipPath id="SVGID_2_">
			<use xlink:href="#SVGID_1_"  overflow="visible"/>
		</clipPath>
		<path clip-path="url(#SVGID_2_)" fill="#DF2E54" d="M306.537,460.444c5.59-2.753,17.619-9.048,29.467-17.651
			c9.191-6.674,16.455-13.392,21.588-19.967c5.867-7.514,8.842-14.723,8.842-21.427v-47.224v-21.305h-60.025v127.511
			C306.45,460.402,306.496,460.425,306.537,460.444"/>
	</g>
</g>
<g opacity="0.4">
	<g>
		<defs>
			<rect id="SVGID_3_" x="241.932" y="329.08" width="129.201" height="137.189"/>
		</defs>
		<clipPath id="SVGID_4_">
			<use xlink:href="#SVGID_3_"  overflow="visible"/>
		</clipPath>
		<path clip-path="url(#SVGID_4_)" fill="#FFFFFF" d="M357.336,342.875v9.015v49.78c0,18.229-31.246,39.338-50.803,49.296
			c-19.566-9.964-50.805-31.069-50.805-49.296v-49.78v-9.015H357.336 M371.133,329.078h-129.2v22.812v49.78
			c0,35.679,64.6,64.601,64.6,64.601s64.601-28.922,64.601-64.601v-49.78V329.078z"/>
	</g>
</g>
<path fill="#1A1A19" d="M363.608,336.604v15.286v49.78c0,8.39-5.031,22.043-28.997,39.445
	c-11.291,8.199-22.754,14.197-28.081,16.821c-5.288-2.601-16.619-8.527-27.885-16.683c-24.124-17.463-29.188-31.164-29.188-39.584
	v-49.78v-15.286H363.608 M371.133,329.078h-129.2v22.812v49.78c0,35.679,64.6,64.601,64.6,64.601s64.601-28.922,64.601-64.601
	v-49.78V329.078z"/>
<path fill="#1A1A19" d="M246.95,312.454c-2.741,0.32-4.983,2.84-4.983,5.6v25.574c0,2.76,2.258,5.017,5.017,5.017h119.09
	c2.76,0,5.017-2.257,5.017-5.017v-25.574c0-2.759-2.242-5.278-4.983-5.597l-54.713-6.366c-2.742-0.319-7.226-0.318-9.967,0.002
	L246.95,312.454z"/>
<polygon fill="#FFFFFF" points="297.863,338.229 297.863,323.357 294.822,326.519 292.504,324.079 298.405,318.148 301.927,318.148 
	301.927,338.229 "/>
<path fill="#FFFFFF" d="M304.515,328.204c0-5.179,2.138-10.355,7.104-10.355c4.998,0,7.105,5.177,7.105,10.355
	c0,5.147-2.077,10.387-7.105,10.387C306.652,338.591,304.515,333.352,304.515,328.204 M314.631,328.204
	c0-3.884-0.664-6.773-3.012-6.773c-2.318,0-2.979,2.89-2.979,6.773c0,3.854,0.661,6.805,2.979,6.805
	C313.967,335.009,314.631,332.059,314.631,328.204"/>
<path fill="#FFFFFF" d="M319.916,431.653c-17.018,7.085-36.556-0.967-43.641-17.985c-7.085-17.017,0.967-36.556,17.984-43.641
	c17.019-7.085,36.558,0.967,43.642,17.985C344.986,405.029,336.934,424.568,319.916,431.653"/>
<path fill="#191818" d="M306.58,376.641c0,0-0.002,0.021-0.004,0.054h0.01C306.582,376.661,306.58,376.641,306.58,376.641"/>
<path fill="#F26C7C" d="M335.691,384.726c-5.724-10.041-17.25-16.65-28.429-16.389l-0.292,3.321l0.786,29.624l32.282,0.335
	L335.691,384.726z"/>
<path fill="#191818" d="M306.583,376.667c0.002,0.015,0.537,0.026,1.196,0.026c0.658,0,1.191-0.561,1.191-1.254v-5.77
	c0-0.692-0.561-1.254-1.254-1.254h-1.636c-0.693,0-1.254,0.563-1.254,1.254v5.77c0,0.693,0.391,1.254,0.874,1.254
	s0.876-0.012,0.877-0.026S306.581,376.652,306.583,376.667"/>
<path fill="#191818" d="M339.76,402.095v-1.636c0-0.693-0.562-1.255-1.254-1.255h-5.686c-0.693,0-1.254,0.562-1.254,1.255v1.636
	c0,0.693,0.561,1.254,1.254,1.254h5.686C339.198,403.349,339.76,402.788,339.76,402.095"/>
<path fill="#191818" d="M274.038,400.458v1.637c0,0.692,0.562,1.255,1.254,1.255h5.519c0.693,0,1.254-0.563,1.254-1.255v-1.637
	c0-0.692-0.561-1.254-1.254-1.254h-5.519C274.6,399.204,274.038,399.766,274.038,400.458"/>
<path fill="#191818" d="M306.081,434.138h1.636c0.693,0,1.255-0.562,1.255-1.254v-5.436c0-0.692-0.562-1.254-1.255-1.254h-1.636
	c-0.693,0-1.254,0.562-1.254,1.254v5.436C304.827,433.576,305.388,434.138,306.081,434.138"/>
<path fill="#DF2E54" d="M290.469,372.818c-0.6,0.346-0.805,1.113-0.459,1.713l2.849,4.935c0.346,0.6,1.115,0.808,1.717,0.466
	c0.602-0.343,0.809-1.107,0.463-1.707l-2.857-4.948C291.835,372.677,291.068,372.472,290.469,372.818"/>
<path fill="#DF2E54" d="M278.44,384.846c-0.346,0.601-0.141,1.367,0.459,1.713l4.868,2.811c0.599,0.346,1.363,0.139,1.705-0.464
	c0.342-0.603,0.133-1.371-0.467-1.718l-4.852-2.801C279.554,384.041,278.787,384.246,278.44,384.846"/>
<path fill="#DF2E54" d="M278.44,417.707c0.346,0.6,1.113,0.805,1.713,0.459l4.719-2.725c0.6-0.346,0.805-1.112,0.457-1.711
	c-0.348-0.6-1.117-0.805-1.717-0.458l-4.713,2.722C278.3,416.34,278.095,417.107,278.44,417.707"/>
<path fill="#DF2E54" d="M290.469,429.735c0.6,0.346,1.367,0.141,1.713-0.459l2.71-4.694c0.347-0.6,0.14-1.365-0.461-1.709
	c-0.601-0.345-1.369-0.137-1.716,0.463l-2.705,4.687C289.664,428.621,289.869,429.389,290.469,429.735"/>
<path fill="#DF2E54" d="M323.33,429.735c0.6-0.347,0.805-1.114,0.459-1.713l-2.745-4.755c-0.347-0.601-1.115-0.809-1.718-0.467
	c-0.602,0.344-0.809,1.107-0.463,1.707l2.754,4.769C321.963,429.876,322.729,430.081,323.33,429.735"/>
<path fill="#DF2E54" d="M335.357,417.707c0.346-0.6,0.141-1.367-0.459-1.713l-4.85-2.801c-0.6-0.346-1.364-0.139-1.706,0.464
	c-0.343,0.602-0.134,1.371,0.467,1.718l4.835,2.791C334.244,418.512,335.012,418.307,335.357,417.707"/>
<path fill="#DF2E54" d="M335.357,384.846c-0.346-0.6-1.113-0.805-1.713-0.459l-4.99,2.881c-0.6,0.346-0.804,1.113-0.455,1.712
	c0.348,0.598,1.115,0.803,1.715,0.457l4.984-2.878C335.498,386.213,335.703,385.446,335.357,384.846"/>
<path fill="#DF2E54" d="M323.33,372.818c-0.601-0.346-1.367-0.141-1.713,0.459l-2.897,5.017c-0.347,0.601-0.14,1.365,0.461,1.71
	c0.603,0.344,1.37,0.138,1.716-0.463l2.893-5.01C324.135,373.931,323.93,373.164,323.33,372.818"/>
<path fill="#191818" d="M306.834,436.783c-14.366,0-27.217-8.57-32.739-21.833c-7.513-18.045,1.056-38.838,19.101-46.351
	c4.354-1.813,8.933-2.732,13.611-2.732c14.367,0,27.218,8.57,32.74,21.833c7.512,18.045-1.056,38.838-19.101,46.351
	C316.092,435.864,311.514,436.783,306.834,436.783 M306.807,370.012c-4.128,0-8.172,0.813-12.018,2.413
	c-15.935,6.634-23.502,24.997-16.868,40.933c4.877,11.713,16.226,19.281,28.913,19.281c4.128,0,8.171-0.813,12.019-2.414
	c15.935-6.634,23.502-24.996,16.867-40.932C330.844,377.58,319.495,370.012,306.807,370.012"/>
<path fill="#191818" d="M290.63,368.426c0,2.099-1.701,3.8-3.8,3.8c-2.098,0-3.799-1.702-3.799-3.8c0-2.098,1.701-3.8,3.799-3.8
	C288.93,364.626,290.63,366.328,290.63,368.426"/>
<path fill="#F26C7C" d="M313.52,361.491c0,3.711-3.009,6.719-6.72,6.719c-3.71,0-6.718-3.008-6.718-6.719s3.008-6.719,6.718-6.719
	C310.511,354.772,313.52,357.78,313.52,361.491"/>
<path fill="#191818" d="M306.991,369.515c-4.437,0-8.046-3.609-8.046-8.046c0-4.436,3.609-8.046,8.046-8.046
	c4.437,0,8.045,3.61,8.045,8.046C315.036,365.906,311.428,369.515,306.991,369.515 M306.991,357.567
	c-2.151,0-3.901,1.75-3.901,3.901c0,2.152,1.75,3.902,3.901,3.902c2.151,0,3.901-1.75,3.901-3.902
	C310.893,359.317,309.143,357.567,306.991,357.567"/>
<path fill="#191818" d="M320.615,369.168l2.587-3.061c0.896-1.058,2.478-1.19,3.536-0.296l12.029,10.171
	c1.059,0.894,1.191,2.477,0.297,3.535l-2.588,3.061L320.615,369.168z"/>
<path fill="#191818" d="M303.659,401.479c0.005,1.914,1.561,3.46,3.474,3.455c1.914-0.006,3.461-1.562,3.455-3.476
	c-0.005-1.912-3.355-15.377-3.355-15.377S303.654,399.566,303.659,401.479"/>
<path fill="#191818" d="M308.12,397.703c-1.913-0.023-3.484,1.508-3.508,3.42c-0.025,1.914,1.507,3.484,3.42,3.51
	c1.913,0.023,15.431-3.367,15.431-3.367S310.033,397.728,308.12,397.703"/>
<polygon fill="#FFFFFF" points="280.889,325.458 269.148,328.167 258.313,325.458 258.313,319.136 269.148,321.846 280.889,319.136 
	"/>
<polygon fill="#FFFFFF" points="280.889,334.488 269.148,337.197 258.313,334.488 258.313,328.167 269.148,330.876 280.889,328.167 
	"/>
<polygon fill="#F26C7C" points="355.253,325.458 343.513,328.167 332.677,325.458 332.677,319.136 343.513,321.846 355.253,319.136 
	"/>
<polygon fill="#F26C7C" points="355.253,334.488 343.513,337.197 332.677,334.488 332.677,328.167 343.513,330.876 355.253,328.167 
	"/>
</svg>
