<?xml version="1.0" encoding="utf-8"?>
<!-- Generator: Adobe Illustrator 16.0.0, SVG Export Plug-In . SVG Version: 6.00 Build 0)  -->
<!DOCTYPE svg PUBLIC "-//W3C//DTD SVG 1.1//EN" "http://www.w3.org/Graphics/SVG/1.1/DTD/svg11.dtd">
<svg version="1.1" id="Layer_1" xmlns="http://www.w3.org/2000/svg" xmlns:xlink="http://www.w3.org/1999/xlink" x="0px" y="0px"
	 width="240px" height="200px" viewBox="0 0 240 200" enable-background="new 0 0 240 200" xml:space="preserve">
<path fill="#1A1A19" d="M137.807,166.241c-10.386,6.446-19.062,10.538-20.966,11.416c-1.905-0.878-10.58-4.97-20.967-11.416v0.492
	c-0.003-0.002,0.004-0.005,0-0.007v15.051c11.415,7.013,20.568,11.112,20.568,11.112l0.399-0.001l0.399,0.001
	c0,0,9.152-4.1,20.566-11.112v-15.051c-0.004,0.002,0.004,0.005,0,0.007V166.241z"/>
<path fill="#1A1A19" d="M92.559,165.104c-9.748-6.17-20.759-14.313-29.014-23.744v15.051c8.118,9.568,19.145,17.857,29.014,24.17
	v-15.051c-0.004-0.002,0.003-0.005,0-0.007V165.104z"/>
<path fill="#FFFFFF" d="M141.123,165.104v0.419c-0.004,0.002,0.004,0.005,0,0.007v15.051c9.869-6.313,20.896-14.602,29.014-24.17
	v-15.051C161.881,150.791,150.871,158.934,141.123,165.104"/>
<path fill="#FECF0A" d="M52.24,38.584v20.302v49.78c0,35.679,64.601,64.602,64.601,64.602s64.6-28.923,64.6-64.602v-49.78V38.584
	H52.24z"/>
<g opacity="0.6">
	<g>
		<defs>
			<rect id="SVGID_1_" x="116.72" y="39.87" width="60.021" height="127.57"/>
		</defs>
		<clipPath id="SVGID_2_">
			<use xlink:href="#SVGID_1_"  overflow="visible"/>
		</clipPath>
		<path clip-path="url(#SVGID_2_)" fill="#CDA72C" d="M116.845,167.441c5.59-2.753,17.618-9.048,29.468-17.652
			c9.191-6.674,16.454-13.391,21.588-19.967c5.866-7.513,8.842-14.722,8.842-21.426V61.172V39.867h-60.025v127.511
			C116.759,167.398,116.804,167.422,116.845,167.441"/>
	</g>
</g>
<g opacity="0.4">
	<g>
		<defs>
			<rect id="SVGID_3_" x="52.24" y="36.07" width="129.199" height="137.199"/>
		</defs>
		<clipPath id="SVGID_4_">
			<use xlink:href="#SVGID_3_"  overflow="visible"/>
		</clipPath>
		<path clip-path="url(#SVGID_4_)" fill="#FFFFFF" d="M167.645,49.872v9.014v49.781c0,18.215-31.2,39.306-50.76,49.273
			c-5.696-2.925-14.984-8.061-24.254-14.771c-17.149-12.413-26.593-24.667-26.593-34.503V58.886v-9.014H167.645 M181.441,36.075
			H52.24v22.811v49.781c0,35.677,64.601,64.601,64.601,64.601s64.6-28.924,64.6-64.601V58.886V36.075z"/>
	</g>
</g>
<path fill="#1A1A19" d="M173.916,43.6v15.286v49.781c0,8.39-5.031,22.042-28.996,39.445c-11.291,8.198-22.754,14.197-28.082,16.821
	c-5.288-2.603-16.619-8.528-27.885-16.684c-24.124-17.462-29.188-31.164-29.188-39.583V58.886V43.6H173.916 M181.441,36.075H52.24
	v22.811v49.781c0,35.677,64.601,64.601,64.601,64.601s64.6-28.924,64.6-64.601V58.886V36.075z"/>
<path fill="#1A1A19" d="M57.262,19.451c-2.741,0.319-4.983,2.84-4.983,5.599v25.574c0,2.76,2.258,5.018,5.017,5.018h119.09
	c2.76,0,5.017-2.258,5.017-5.018V25.05c0-2.759-2.242-5.278-4.982-5.597l-54.714-6.366c-2.741-0.319-7.225-0.318-9.966,0.002
	L57.262,19.451z"/>
<g opacity="0.6">
	<g>
		<defs>
			<rect id="SVGID_5_" x="54.9" y="119.71" width="123.88" height="53.43"/>
		</defs>
		<clipPath id="SVGID_6_">
			<use xlink:href="#SVGID_5_"  overflow="visible"/>
		</clipPath>
		<path clip-path="url(#SVGID_6_)" fill="#CDA72C" d="M54.898,119.705c10.273,30.301,61.943,53.435,61.943,53.435
			s51.669-23.134,61.941-53.435H54.898z"/>
	</g>
</g>
<path fill="#FFFFFF" d="M74.539,111.297l0.138-4.397l0.873-13.101l0.319-4.773l0.445-6.681l0.148-2.228h20.045
	c0-4.455,4.454-6.682,4.454-6.682l1.96,1.47l1.604,1.203l0.712,0.534l3.341,2.505l22.97,16.145l0.594,0.416
	c0,0,0.495,0.197,1.34,0.531c0.003,0.001,0.007,0.002,0.009,0.003c0.047,0.019,0.094,0.037,0.142,0.057
	c0.021,0.008,0.042,0.017,0.063,0.024c0.046,0.019,0.091,0.036,0.138,0.054c0.012,0.005,0.023,0.009,0.035,0.014
	c0.051,0.02,0.104,0.041,0.155,0.061c0.019,0.008,0.037,0.016,0.056,0.022c0.051,0.02,0.103,0.04,0.155,0.061
	c0.009,0.005,0.019,0.007,0.027,0.011c0.084,0.033,0.17,0.067,0.258,0.101c0.047,0.019,0.095,0.038,0.144,0.057
	c0.047,0.018,0.096,0.037,0.143,0.056c0.029,0.011,0.059,0.022,0.09,0.035c0.053,0.02,0.105,0.041,0.158,0.062
	c0.027,0.011,0.056,0.022,0.084,0.033c0.049,0.019,0.098,0.038,0.146,0.057c0.039,0.015,0.077,0.03,0.116,0.046
	c0.05,0.02,0.099,0.038,0.147,0.058c0.029,0.012,0.061,0.023,0.092,0.036c0.057,0.022,0.115,0.045,0.173,0.068
	c0.041,0.016,0.083,0.032,0.124,0.048c0.039,0.016,0.079,0.031,0.118,0.046c0.073,0.028,0.146,0.057,0.22,0.086
	c0.016,0.006,0.033,0.012,0.049,0.019c0.076,0.029,0.153,0.059,0.231,0.09c0.024,0.009,0.048,0.018,0.071,0.027
	c0.059,0.022,0.119,0.046,0.178,0.069c0.058,0.022,0.115,0.044,0.175,0.067c1.019,0.395,2.142,0.827,3.313,1.274
	c0.002,0.001,0.006,0.002,0.008,0.003c0.117,0.045,0.236,0.09,0.355,0.135h0.002c0.112,0.043,0.227,0.086,0.34,0.13
	c0.018,0.006,0.035,0.013,0.054,0.02c0.106,0.041,0.214,0.081,0.321,0.121c0.01,0.004,0.02,0.007,0.028,0.011
	c0.117,0.044,0.234,0.088,0.351,0.132c0.003,0.001,0.004,0.002,0.006,0.002c0.117,0.044,0.234,0.089,0.351,0.133
	c0.011,0.004,0.022,0.008,0.033,0.012c0.108,0.04,0.216,0.081,0.325,0.122c0.018,0.008,0.037,0.015,0.056,0.021
	c0.104,0.039,0.21,0.078,0.315,0.117c0.018,0.007,0.037,0.014,0.055,0.021c0.104,0.039,0.206,0.077,0.309,0.115
	c0.022,0.009,0.045,0.017,0.067,0.026c0.103,0.038,0.205,0.076,0.308,0.114c0.021,0.008,0.043,0.016,0.063,0.023
	c0.098,0.036,0.196,0.073,0.293,0.109c0.03,0.011,0.06,0.021,0.088,0.032c0.095,0.035,0.188,0.07,0.283,0.105
	c0.028,0.01,0.056,0.02,0.084,0.031c0.095,0.035,0.188,0.069,0.284,0.104c0.029,0.011,0.06,0.022,0.089,0.033
	c0.093,0.034,0.186,0.068,0.278,0.102c0.029,0.011,0.06,0.021,0.088,0.032c0.093,0.034,0.185,0.067,0.276,0.101
	c0.031,0.011,0.063,0.022,0.093,0.034c0.088,0.032,0.176,0.063,0.264,0.096c0.035,0.013,0.07,0.025,0.105,0.038
	c0.086,0.032,0.172,0.062,0.258,0.093c0.033,0.013,0.068,0.024,0.103,0.037c0.087,0.031,0.174,0.063,0.261,0.095
	c0.033,0.011,0.066,0.022,0.1,0.035c0.08,0.028,0.158,0.057,0.238,0.085c0.041,0.015,0.082,0.029,0.123,0.045
	c0.08,0.028,0.158,0.056,0.237,0.084c0.037,0.013,0.075,0.027,0.112,0.04c0.089,0.03,0.177,0.062,0.264,0.093
	c0.027,0.01,0.055,0.02,0.08,0.029c0.084,0.029,0.166,0.058,0.249,0.087c0.035,0.012,0.069,0.024,0.104,0.036
	c0.07,0.025,0.142,0.05,0.213,0.075c0.043,0.015,0.086,0.029,0.129,0.044c0.074,0.026,0.147,0.052,0.221,0.076
	c0.037,0.014,0.076,0.027,0.113,0.04c0.068,0.024,0.138,0.048,0.205,0.071c0.043,0.015,0.086,0.029,0.13,0.044
	c0.064,0.022,0.128,0.044,0.191,0.065c0.044,0.016,0.089,0.03,0.132,0.045c0.066,0.022,0.131,0.045,0.195,0.066
	c0.042,0.014,0.084,0.028,0.125,0.042c0.105,0.035,0.209,0.07,0.313,0.104c0.203,0.068,0.4,0.142,0.592,0.222
	c0.004,0.002,0.007,0.003,0.01,0.004c0.189,0.079,0.37,0.164,0.547,0.253c0.006,0.004,0.014,0.007,0.02,0.01
	c0.173,0.089,0.341,0.183,0.504,0.28c0.008,0.005,0.016,0.009,0.023,0.015c0.161,0.097,0.316,0.199,0.467,0.305
	c0.009,0.007,0.019,0.013,0.027,0.02c0.148,0.105,0.291,0.215,0.43,0.327c0.011,0.009,0.021,0.017,0.03,0.025
	c0.138,0.112,0.27,0.229,0.396,0.348c0.01,0.009,0.021,0.019,0.03,0.028c0.127,0.119,0.248,0.242,0.366,0.367
	c0.011,0.01,0.02,0.02,0.028,0.029c0.118,0.127,0.23,0.256,0.341,0.388c0.009,0.009,0.017,0.018,0.024,0.027
	c0.109,0.134,0.214,0.269,0.315,0.405c0.007,0.009,0.013,0.018,0.02,0.025c0.102,0.14,0.2,0.281,0.294,0.424
	c0.004,0.006,0.009,0.013,0.013,0.019c0.095,0.146,0.187,0.293,0.274,0.442c0.002,0.004,0.004,0.007,0.006,0.01
	c0.99,1.69,1.387,3.539,1.62,4.936v8.1H74.539V111.297z"/>
<path fill="#F8D012" d="M133.99,107.549L96.82,81.063l3.859-6.159l9.966,7.833l23.361,15.825l0.641,0.433
	c0,0,2.438,0.944,5.773,2.193l0.007,0.027L133.99,107.549z"/>
<path fill="#F8D012" d="M132.16,96.635c0.482,0.193,11.268,4.497,17.798,6.674c3.301,1.101,4.969,3.829,5.813,6.311h-33.119
	L132.16,96.635z"/>
<polygon fill="#191818" points="110.782,81.86 104.834,87.122 107.832,79.768 "/>
<polygon fill="#191818" points="116.379,85.848 110.431,91.109 113.429,83.756 "/>
<line fill="none" stroke="#191818" stroke-width="1.839" stroke-miterlimit="10" x1="155.772" y1="110.309" x2="74.538" y2="110.309"/>
<polygon fill="#191818" points="121.977,89.835 116.028,95.097 119.026,87.743 "/>
<polygon fill="#191818" points="127.572,93.822 121.625,99.085 124.623,91.73 "/>
<polygon fill="#191818" points="133.17,97.81 127.222,103.072 130.22,95.719 "/>
<polygon fill="#F8D012" points="89.4,86.104 105.194,94.154 100.973,97.448 108.407,105.231 92.613,97.183 96.834,93.888 "/>
<path fill="#F8D012" d="M76.122,93.614l-0.942,16.018h17.063C91.396,101.146,84.622,94.408,76.122,93.614"/>
<path fill="none" stroke="#191818" stroke-width="3.679" stroke-miterlimit="10" d="M74.539,111.297l0.138-4.397l0.873-13.101
	l0.319-4.773l0.445-6.681l0.148-2.228h20.045c0-4.455,4.454-6.682,4.454-6.682l1.96,1.47l1.604,1.203l0.712,0.534l3.341,2.505
	l22.97,16.145l0.594,0.416c0,0,0.495,0.197,1.34,0.531c0.003,0.001,0.007,0.002,0.009,0.003c0.047,0.019,0.094,0.037,0.142,0.057
	c0.021,0.008,0.042,0.017,0.063,0.024c0.046,0.019,0.091,0.036,0.138,0.054c0.012,0.005,0.023,0.009,0.035,0.014
	c0.051,0.02,0.104,0.041,0.155,0.061c0.019,0.008,0.037,0.016,0.056,0.022c0.051,0.02,0.103,0.04,0.155,0.061
	c0.009,0.005,0.019,0.007,0.027,0.011c0.084,0.033,0.17,0.067,0.258,0.101c0.047,0.019,0.095,0.038,0.144,0.057
	c0.047,0.018,0.096,0.037,0.143,0.056c0.029,0.011,0.059,0.022,0.09,0.035c0.053,0.02,0.105,0.041,0.158,0.062
	c0.027,0.011,0.056,0.022,0.084,0.033c0.049,0.019,0.098,0.038,0.146,0.057c0.039,0.015,0.077,0.03,0.116,0.046
	c0.05,0.02,0.099,0.038,0.147,0.058c0.029,0.012,0.061,0.023,0.092,0.036c0.057,0.022,0.115,0.045,0.173,0.068
	c0.041,0.016,0.083,0.032,0.124,0.048c0.039,0.016,0.079,0.031,0.118,0.046c0.073,0.028,0.146,0.057,0.22,0.086
	c0.016,0.006,0.033,0.012,0.049,0.019c0.076,0.029,0.153,0.059,0.231,0.09c0.024,0.009,0.048,0.018,0.071,0.027
	c0.059,0.022,0.119,0.046,0.178,0.069c0.058,0.022,0.115,0.044,0.175,0.067c1.019,0.395,2.142,0.827,3.313,1.274
	c0.002,0.001,0.006,0.002,0.008,0.003c0.117,0.045,0.236,0.09,0.355,0.135h0.002c0.112,0.043,0.227,0.086,0.34,0.13
	c0.018,0.006,0.035,0.013,0.054,0.02c0.106,0.041,0.214,0.081,0.321,0.121c0.01,0.004,0.02,0.007,0.028,0.011
	c0.117,0.044,0.234,0.088,0.351,0.132c0.003,0.001,0.004,0.002,0.006,0.002c0.117,0.044,0.234,0.089,0.351,0.133
	c0.011,0.004,0.022,0.008,0.033,0.012c0.108,0.04,0.216,0.081,0.325,0.122c0.018,0.008,0.037,0.015,0.056,0.021
	c0.104,0.039,0.21,0.078,0.315,0.117c0.018,0.007,0.037,0.014,0.055,0.021c0.104,0.039,0.206,0.077,0.309,0.115
	c0.022,0.009,0.045,0.017,0.067,0.026c0.103,0.038,0.205,0.076,0.308,0.114c0.021,0.008,0.043,0.016,0.063,0.023
	c0.098,0.036,0.196,0.073,0.293,0.109c0.03,0.011,0.06,0.021,0.088,0.032c0.095,0.035,0.188,0.07,0.283,0.105
	c0.028,0.01,0.056,0.02,0.084,0.031c0.095,0.035,0.188,0.069,0.284,0.104c0.029,0.011,0.06,0.022,0.089,0.033
	c0.093,0.034,0.186,0.068,0.278,0.102c0.029,0.011,0.06,0.021,0.088,0.032c0.093,0.034,0.185,0.067,0.276,0.101
	c0.031,0.011,0.063,0.022,0.093,0.034c0.088,0.032,0.176,0.063,0.264,0.096c0.035,0.013,0.07,0.025,0.105,0.038
	c0.086,0.032,0.172,0.062,0.258,0.093c0.033,0.013,0.068,0.024,0.103,0.037c0.087,0.031,0.174,0.063,0.261,0.095
	c0.033,0.011,0.066,0.022,0.1,0.035c0.08,0.028,0.158,0.057,0.238,0.085c0.041,0.015,0.082,0.029,0.123,0.045
	c0.08,0.028,0.158,0.056,0.237,0.084c0.037,0.013,0.075,0.027,0.112,0.04c0.089,0.03,0.177,0.062,0.264,0.093
	c0.027,0.01,0.055,0.02,0.08,0.029c0.084,0.029,0.166,0.058,0.249,0.087c0.035,0.012,0.069,0.024,0.104,0.036
	c0.07,0.025,0.142,0.05,0.213,0.075c0.043,0.015,0.086,0.029,0.129,0.044c0.074,0.026,0.147,0.052,0.221,0.076
	c0.037,0.014,0.076,0.027,0.113,0.04c0.068,0.024,0.138,0.048,0.205,0.071c0.043,0.015,0.086,0.029,0.13,0.044
	c0.064,0.022,0.128,0.044,0.191,0.065c0.044,0.016,0.089,0.03,0.132,0.045c0.066,0.022,0.131,0.045,0.195,0.066
	c0.042,0.014,0.084,0.028,0.125,0.042c0.105,0.035,0.209,0.07,0.313,0.104c0.203,0.068,0.4,0.142,0.592,0.222
	c0.004,0.002,0.007,0.003,0.01,0.004c0.189,0.079,0.37,0.164,0.547,0.253c0.006,0.004,0.014,0.007,0.02,0.01
	c0.173,0.089,0.341,0.183,0.504,0.28c0.008,0.005,0.016,0.009,0.023,0.015c0.161,0.097,0.316,0.199,0.467,0.305
	c0.009,0.007,0.019,0.013,0.027,0.02c0.148,0.105,0.291,0.215,0.43,0.327c0.011,0.009,0.021,0.017,0.03,0.025
	c0.138,0.112,0.27,0.229,0.396,0.348c0.01,0.009,0.021,0.019,0.03,0.028c0.127,0.119,0.248,0.242,0.366,0.367
	c0.011,0.01,0.02,0.02,0.028,0.029c0.118,0.127,0.23,0.256,0.341,0.388c0.009,0.009,0.017,0.018,0.024,0.027
	c0.109,0.134,0.214,0.269,0.315,0.405c0.007,0.009,0.013,0.018,0.02,0.025c0.102,0.14,0.2,0.281,0.294,0.424
	c0.004,0.006,0.009,0.013,0.013,0.019c0.095,0.146,0.187,0.293,0.274,0.442c0.002,0.004,0.004,0.007,0.006,0.01
	c0.99,1.69,1.387,3.539,1.62,4.936v8.1H74.539V111.297z"/>
<path fill="#FFFFFF" d="M93.426,46.227v-3.251c7.346-7.135,8.881-8.73,8.881-11.019c0-1.535-1.174-2.529-2.68-2.529
	c-1.776,0-3.191,0.813-4.274,2.258l-2.409-2.528c1.626-2.168,4.004-3.312,6.744-3.312c3.884,0,6.713,2.348,6.713,6.081
	c0,3.041-2.047,5.63-7.015,10.748h7.105v3.552H93.426z"/>
<path fill="#FFFFFF" d="M108.446,36.202c0-5.179,2.137-10.356,7.104-10.356c4.998,0,7.105,5.177,7.105,10.356
	c0,5.147-2.077,10.386-7.105,10.386C110.583,46.588,108.446,41.35,108.446,36.202 M118.562,36.202c0-3.884-0.662-6.774-3.011-6.774
	c-2.318,0-2.98,2.891-2.98,6.774c0,3.854,0.662,6.804,2.98,6.804C117.899,43.006,118.562,40.056,118.562,36.202"/>
<polygon fill="#FFFFFF" points="135.207,46.227 130.571,38.369 129.156,40.598 129.156,46.227 125.123,46.227 125.123,26.146 
	129.156,26.146 129.156,35.269 134.815,26.146 139.513,26.146 133.101,35.6 139.963,46.227 "/>
<polygon fill="#FFFFFF" points="170.312,34.606 158.571,37.315 147.735,34.606 147.735,28.284 158.571,30.994 170.312,28.284 "/>
<polygon fill="#FFFFFF" points="170.312,43.637 158.571,46.346 147.735,43.637 147.735,37.314 158.571,40.024 170.312,37.314 "/>
<polygon fill="#FFFFFF" points="86.22,33.238 78.762,32.107 75.44,25.01 72.12,32.107 64.661,33.238 70.05,38.772 68.703,46.567 
	75.44,42.887 82.177,46.567 80.831,38.772 "/>
</svg>
