<?xml version="1.0" encoding="utf-8"?>
<!-- Generator: Adobe Illustrator 16.0.0, SVG Export Plug-In . SVG Version: 6.00 Build 0)  -->
<!DOCTYPE svg PUBLIC "-//W3C//DTD SVG 1.1//EN" "http://www.w3.org/Graphics/SVG/1.1/DTD/svg11.dtd">
<svg version="1.1" id="Layer_1" xmlns="http://www.w3.org/2000/svg" xmlns:xlink="http://www.w3.org/1999/xlink" x="0px" y="0px"
	 width="612px" height="792px" viewBox="0 0 612 792" enable-background="new 0 0 612 792" xml:space="preserve">
<path fill="#1A1A19" d="M327.145,458.522c-10.387,6.446-19.063,10.538-20.967,11.416c-1.905-0.878-10.58-4.97-20.967-11.416v0.492
	c-0.003-0.002,0.004-0.005,0-0.007v15.051c11.415,7.014,20.568,11.112,20.568,11.112l0.399-0.001l0.399,0.001
	c0,0,9.151-4.099,20.567-11.112v-15.051c-0.005,0.002,0.004,0.005,0,0.007V458.522z"/>
<path fill="#FFFFFF" d="M281.896,457.386c-9.748-6.171-20.759-14.313-29.014-23.745v15.051c8.118,9.569,19.145,17.858,29.014,24.17
	v-15.051c-0.004-0.002,0.003-0.005,0-0.007V457.386z"/>
<path fill="#FFFFFF" d="M330.461,457.386v0.418c-0.005,0.002,0.002,0.005,0,0.007v15.051c9.868-6.312,20.895-14.601,29.014-24.17
	v-15.051C351.219,443.072,340.208,451.215,330.461,457.386"/>
<path fill="#F26C7C" d="M244.233,334.355v19.468v47.734c0,34.211,61.945,61.944,61.945,61.944s61.945-27.733,61.945-61.944v-47.734
	v-19.468H244.233z"/>
<g opacity="0.6">
	<g>
		<defs>
			<rect id="SVGID_1_" x="306.05" y="332.87" width="60.03" height="127.569"/>
		</defs>
		<clipPath id="SVGID_2_">
			<use xlink:href="#SVGID_1_"  overflow="visible"/>
		</clipPath>
		<path clip-path="url(#SVGID_2_)" fill="#DF2E54" d="M306.182,460.444c5.59-2.753,17.619-9.048,29.468-17.651
			c9.19-6.674,16.454-13.392,21.588-19.967c5.866-7.514,8.841-14.723,8.841-21.427v-47.224v-21.305h-60.024v127.511
			C306.096,460.402,306.141,460.425,306.182,460.444"/>
	</g>
</g>
<g opacity="0.4">
	<g>
		<defs>
			<rect id="SVGID_3_" x="241.58" y="329.08" width="129.2" height="137.189"/>
		</defs>
		<clipPath id="SVGID_4_">
			<use xlink:href="#SVGID_3_"  overflow="visible"/>
		</clipPath>
		<path clip-path="url(#SVGID_4_)" fill="#FFFFFF" d="M356.98,342.875v9.015v49.78c0,18.229-31.245,39.338-50.802,49.296
			c-19.566-9.964-50.804-31.069-50.804-49.296v-49.78v-9.015H356.98 M370.778,329.078H241.577v22.812v49.78
			c0,35.679,64.601,64.601,64.601,64.601s64.6-28.922,64.6-64.601v-49.78V329.078z"/>
	</g>
</g>
<path fill="#1A1A19" d="M363.253,336.604v15.286v49.78c0,8.39-5.03,22.043-28.997,39.445c-11.291,8.199-22.754,14.197-28.081,16.821
	c-5.288-2.601-16.619-8.527-27.885-16.683c-24.124-17.463-29.188-31.164-29.188-39.584v-49.78v-15.286H363.253 M370.778,329.078
	H241.577v22.812v49.78c0,35.679,64.601,64.601,64.601,64.601s64.6-28.922,64.6-64.601v-49.78V329.078z"/>
<path fill="#1A1A19" d="M246.595,312.454c-2.741,0.32-4.983,2.84-4.983,5.6v25.574c0,2.76,2.258,5.017,5.017,5.017H365.72
	c2.759,0,5.017-2.257,5.017-5.017v-25.574c0-2.759-2.242-5.278-4.983-5.597l-54.714-6.366c-2.741-0.319-7.225-0.318-9.966,0.002
	L246.595,312.454z"/>
<polygon fill="#FFFFFF" points="297.749,338.229 297.749,323.357 294.708,326.519 292.39,324.079 298.291,318.148 301.813,318.148 
	301.813,338.229 "/>
<path fill="#FFFFFF" d="M304.761,338.229v-3.251c7.346-7.135,8.881-8.731,8.881-11.019c0-1.535-1.174-2.529-2.68-2.529
	c-1.775,0-3.19,0.813-4.274,2.258l-2.408-2.529c1.625-2.168,4.003-3.311,6.743-3.311c3.884,0,6.714,2.348,6.714,6.081
	c0,3.041-2.047,5.63-7.015,10.748h7.104v3.552H304.761z"/>
<path fill="#FFFFFF" d="M319.561,431.653c-17.017,7.085-36.556-0.967-43.641-17.985c-7.085-17.017,0.967-36.556,17.984-43.641
	c17.018-7.085,36.557,0.967,43.642,17.985C344.631,405.029,336.579,424.568,319.561,431.653"/>
<path fill="#191818" d="M306.225,376.641c0,0-0.002,0.021-0.004,0.054h0.01C306.227,376.661,306.225,376.641,306.225,376.641"/>
<path fill="#F26C7C" d="M335.337,384.726c-5.725-10.041-17.25-16.65-28.429-16.389l-0.292,3.321l0.786,29.624l32.283,0.335
	L335.337,384.726z"/>
<path fill="#191818" d="M306.228,376.667c0.002,0.015,0.537,0.026,1.196,0.026c0.658,0,1.193-0.561,1.193-1.254v-5.77
	c0-0.692-0.563-1.254-1.256-1.254h-1.635c-0.693,0-1.254,0.563-1.254,1.254v5.77c0,0.693,0.391,1.254,0.874,1.254
	c0.483,0,0.876-0.012,0.877-0.026C306.224,376.652,306.226,376.652,306.228,376.667"/>
<path fill="#191818" d="M339.405,402.095v-1.636c0-0.693-0.562-1.255-1.254-1.255h-5.687c-0.693,0-1.254,0.562-1.254,1.255v1.636
	c0,0.693,0.561,1.254,1.254,1.254h5.687C338.844,403.349,339.405,402.788,339.405,402.095"/>
<path fill="#191818" d="M273.683,400.458v1.637c0,0.692,0.562,1.255,1.254,1.255h5.519c0.693,0,1.254-0.563,1.254-1.255v-1.637
	c0-0.692-0.561-1.254-1.254-1.254h-5.519C274.245,399.204,273.683,399.766,273.683,400.458"/>
<path fill="#191818" d="M305.726,434.138h1.635c0.693,0,1.256-0.562,1.256-1.254v-5.436c0-0.692-0.563-1.254-1.256-1.254h-1.635
	c-0.693,0-1.254,0.562-1.254,1.254v5.436C304.472,433.576,305.033,434.138,305.726,434.138"/>
<path fill="#DF2E54" d="M290.114,372.818c-0.6,0.346-0.805,1.113-0.459,1.713l2.849,4.935c0.346,0.6,1.115,0.808,1.717,0.466
	c0.602-0.343,0.809-1.107,0.463-1.707l-2.857-4.948C291.48,372.677,290.714,372.472,290.114,372.818"/>
<path fill="#DF2E54" d="M278.085,384.846c-0.346,0.601-0.141,1.367,0.459,1.713l4.868,2.811c0.599,0.346,1.363,0.139,1.705-0.464
	c0.342-0.603,0.133-1.371-0.467-1.718l-4.852-2.801C279.198,384.041,278.432,384.246,278.085,384.846"/>
<path fill="#DF2E54" d="M278.085,417.707c0.346,0.6,1.113,0.805,1.713,0.459l4.719-2.725c0.6-0.346,0.805-1.112,0.457-1.711
	c-0.348-0.6-1.117-0.805-1.717-0.458l-4.713,2.722C277.944,416.34,277.739,417.107,278.085,417.707"/>
<path fill="#DF2E54" d="M290.114,429.735c0.6,0.346,1.367,0.141,1.713-0.459l2.71-4.694c0.347-0.6,0.14-1.365-0.461-1.709
	c-0.601-0.345-1.369-0.137-1.716,0.463l-2.705,4.687C289.309,428.621,289.514,429.389,290.114,429.735"/>
<path fill="#DF2E54" d="M322.975,429.735c0.6-0.347,0.805-1.114,0.459-1.713l-2.745-4.755c-0.346-0.601-1.114-0.809-1.717-0.467
	c-0.603,0.344-0.81,1.107-0.463,1.707l2.753,4.769C321.607,429.876,322.375,430.081,322.975,429.735"/>
<path fill="#DF2E54" d="M335.002,417.707c0.347-0.6,0.142-1.367-0.459-1.713l-4.85-2.801c-0.6-0.346-1.363-0.139-1.706,0.464
	c-0.342,0.602-0.133,1.371,0.468,1.718l4.834,2.791C333.89,418.512,334.656,418.307,335.002,417.707"/>
<path fill="#DF2E54" d="M335.002,384.846c-0.346-0.6-1.112-0.805-1.713-0.459l-4.989,2.881c-0.601,0.346-0.804,1.113-0.456,1.712
	c0.348,0.598,1.115,0.803,1.716,0.457l4.983-2.878C335.144,386.213,335.349,385.446,335.002,384.846"/>
<path fill="#DF2E54" d="M322.975,372.818c-0.6-0.346-1.367-0.141-1.713,0.459l-2.897,5.017c-0.346,0.601-0.14,1.365,0.462,1.71
	c0.602,0.344,1.369,0.138,1.715-0.463l2.893-5.01C323.779,373.931,323.574,373.164,322.975,372.818"/>
<path fill="#191818" d="M306.479,436.783c-14.366,0-27.217-8.57-32.739-21.833c-7.513-18.045,1.056-38.838,19.101-46.351
	c4.354-1.813,8.933-2.732,13.611-2.732c14.367,0,27.218,8.57,32.74,21.833c7.512,18.045-1.056,38.838-19.101,46.351
	C315.737,435.864,311.158,436.783,306.479,436.783 M306.452,370.012c-4.128,0-8.172,0.813-12.018,2.413
	c-15.935,6.634-23.502,24.997-16.868,40.933c4.876,11.713,16.226,19.281,28.913,19.281c4.129,0,8.172-0.813,12.019-2.414
	c15.936-6.634,23.502-24.996,16.868-40.932C330.489,377.58,319.141,370.012,306.452,370.012"/>
<path fill="#191818" d="M290.275,368.426c0,2.099-1.701,3.8-3.8,3.8c-2.098,0-3.799-1.702-3.799-3.8c0-2.098,1.701-3.8,3.799-3.8
	C288.574,364.626,290.275,366.328,290.275,368.426"/>
<path fill="#F26C7C" d="M313.164,361.491c0,3.711-3.008,6.719-6.719,6.719c-3.71,0-6.718-3.008-6.718-6.719s3.008-6.719,6.718-6.719
	C310.156,354.772,313.164,357.78,313.164,361.491"/>
<path fill="#191818" d="M306.636,369.515c-4.437,0-8.045-3.609-8.045-8.046c0-4.436,3.608-8.046,8.045-8.046
	c4.437,0,8.046,3.61,8.046,8.046C314.682,365.906,311.072,369.515,306.636,369.515 M306.636,357.567
	c-2.151,0-3.901,1.75-3.901,3.901c0,2.152,1.75,3.902,3.901,3.902c2.151,0,3.901-1.75,3.901-3.902
	C310.537,359.317,308.787,357.567,306.636,357.567"/>
<path fill="#191818" d="M320.26,369.168l2.588-3.061c0.895-1.058,2.478-1.19,3.535-0.296l12.03,10.171
	c1.058,0.894,1.191,2.477,0.296,3.535l-2.587,3.061L320.26,369.168z"/>
<path fill="#191818" d="M303.304,401.479c0.005,1.914,1.561,3.46,3.474,3.455c1.914-0.006,3.46-1.562,3.455-3.476
	c-0.004-1.912-3.354-15.377-3.354-15.377S303.299,399.566,303.304,401.479"/>
<path fill="#191818" d="M307.766,397.703c-1.914-0.023-3.484,1.508-3.509,3.42c-0.025,1.914,1.507,3.484,3.421,3.51
	c1.912,0.023,15.43-3.367,15.43-3.367S309.678,397.728,307.766,397.703"/>
<polygon fill="#FFFFFF" points="280.743,325.458 269.003,328.167 258.167,325.458 258.167,319.136 269.003,321.846 280.743,319.136 
	"/>
<polygon fill="#FFFFFF" points="280.743,334.488 269.003,337.197 258.167,334.488 258.167,328.167 269.003,330.876 280.743,328.167 
	"/>
<polygon fill="#FFFFFF" points="355.107,325.458 343.367,328.167 332.531,325.458 332.531,319.136 343.367,321.846 355.107,319.136 
	"/>
<polygon fill="#FFFFFF" points="355.107,334.488 343.367,337.197 332.531,334.488 332.531,328.167 343.367,330.876 355.107,328.167 
	"/>
</svg>
