<?xml version="1.0" encoding="utf-8"?>
<!-- Generator: Adobe Illustrator 16.0.0, SVG Export Plug-In . SVG Version: 6.00 Build 0)  -->
<!DOCTYPE svg PUBLIC "-//W3C//DTD SVG 1.1//EN" "http://www.w3.org/Graphics/SVG/1.1/DTD/svg11.dtd">
<svg version="1.1" id="Layer_1" xmlns="http://www.w3.org/2000/svg" xmlns:xlink="http://www.w3.org/1999/xlink" x="0px" y="0px"
	 width="240px" height="230px" viewBox="0 0 240 230" enable-background="new 0 0 240 230" xml:space="preserve">
<path fill="none" d="M164.63-219.096"/>
<path fill="#1A1A19" d="M140.855,178.244c-10.386,6.446-19.062,10.538-20.965,11.416c-1.905-0.878-10.58-4.97-20.967-11.416v0.492
	c-0.003-0.002,0.004-0.005,0-0.007v15.051c11.415,7.014,20.568,11.112,20.568,11.112l0.399-0.001l0.399,0.001
	c0,0,9.152-4.099,20.566-11.112v-15.051c-0.004,0.002,0.004,0.005,0,0.007V178.244z"/>
<path fill="#FFFFFF" d="M95.607,177.107c-9.748-6.171-20.759-14.313-29.014-23.745v15.051c8.118,9.569,19.145,17.858,29.014,24.17
	v-15.051c-0.004-0.002,0.003-0.005,0-0.007V177.107z"/>
<path fill="#FFFFFF" d="M144.172,177.107v0.418c-0.004,0.002,0.004,0.005,0,0.007v15.051c9.869-6.312,20.896-14.601,29.015-24.17
	v-15.051C164.931,162.794,153.92,170.937,144.172,177.107"/>
<path fill="#FECF0A" d="M55.29,50.584v20.302v49.78c0,35.679,64.601,64.602,64.601,64.602s64.6-28.923,64.6-64.602v-49.78V50.584
	H55.29z"/>
<g opacity="0.6">
	<g>
		<defs>
			<rect id="SVGID_1_" x="119.77" y="51.87" width="60.02" height="127.57"/>
		</defs>
		<clipPath id="SVGID_2_">
			<use xlink:href="#SVGID_1_"  overflow="visible"/>
		</clipPath>
		<path clip-path="url(#SVGID_2_)" fill="#CDA72C" d="M119.894,179.441c5.59-2.753,17.619-9.048,29.468-17.652
			c9.191-6.674,16.454-13.391,21.588-19.967c5.866-7.513,8.842-14.722,8.842-21.426V73.172V51.867h-60.025v127.511
			C119.808,179.398,119.853,179.422,119.894,179.441"/>
	</g>
</g>
<g opacity="0.4">
	<g>
		<defs>
			<rect id="SVGID_3_" x="55.29" y="48.07" width="129.2" height="137.199"/>
		</defs>
		<clipPath id="SVGID_4_">
			<use xlink:href="#SVGID_3_"  overflow="visible"/>
		</clipPath>
		<path clip-path="url(#SVGID_4_)" fill="#FFFFFF" d="M170.693,61.872v9.014v49.781c0,18.229-31.246,39.336-50.803,49.295
			c-19.566-9.964-50.804-31.068-50.804-49.295V70.886v-9.014H170.693 M184.49,48.075H55.29v22.811v49.781
			c0,35.677,64.601,64.601,64.601,64.601s64.6-28.924,64.6-64.601V70.886V48.075z"/>
	</g>
</g>
<path fill="#1A1A19" d="M176.965,55.6v15.286v49.781c0,8.39-5.03,22.042-28.996,39.445c-11.291,8.198-22.754,14.197-28.081,16.821
	c-5.288-2.603-16.619-8.528-27.885-16.684c-24.124-17.462-29.188-31.164-29.188-39.583V70.886V55.6H176.965 M184.49,48.075H55.29
	v22.811v49.781c0,35.677,64.601,64.601,64.601,64.601s64.6-28.924,64.6-64.601V70.886V48.075z"/>
<path fill="#1A1A19" d="M60.311,31.451c-2.741,0.319-4.983,2.84-4.983,5.599v25.574c0,2.76,2.258,5.018,5.017,5.018h119.09
	c2.761,0,5.018-2.258,5.018-5.018V37.05c0-2.759-2.242-5.278-4.983-5.597l-54.714-6.366c-2.741-0.319-7.225-0.318-9.966,0.002
	L60.311,31.451z"/>
<g opacity="0.6">
	<g>
		<defs>
			<rect id="SVGID_5_" x="57.95" y="131.71" width="123.88" height="53.43"/>
		</defs>
		<clipPath id="SVGID_6_">
			<use xlink:href="#SVGID_5_"  overflow="visible"/>
		</clipPath>
		<path clip-path="url(#SVGID_6_)" fill="#CDA72C" d="M57.948,131.705c10.273,30.301,61.943,53.435,61.943,53.435
			s51.669-23.134,61.941-53.435H57.948z"/>
	</g>
</g>
<path fill="#FFFFFF" d="M77.588,123.297l0.138-4.397l0.873-13.101l0.319-4.773l0.445-6.681l0.148-2.228h20.045
	c0-4.455,4.454-6.682,4.454-6.682l1.96,1.47l1.604,1.203l0.712,0.534l3.341,2.505l22.97,16.145l0.594,0.416
	c0,0,0.495,0.197,1.341,0.531c0.002,0.001,0.006,0.002,0.008,0.003c0.047,0.019,0.094,0.037,0.142,0.057
	c0.021,0.008,0.042,0.017,0.063,0.024c0.045,0.019,0.09,0.036,0.137,0.054c0.012,0.005,0.023,0.009,0.036,0.014
	c0.051,0.02,0.102,0.041,0.155,0.061c0.018,0.008,0.037,0.016,0.055,0.022c0.051,0.02,0.103,0.04,0.156,0.061
	c0.009,0.005,0.018,0.007,0.026,0.011c0.084,0.033,0.17,0.067,0.257,0.101c0.049,0.019,0.096,0.038,0.146,0.057
	c0.047,0.018,0.095,0.037,0.142,0.056c0.03,0.011,0.059,0.022,0.09,0.035c0.053,0.02,0.105,0.041,0.158,0.062
	c0.028,0.011,0.057,0.022,0.084,0.033c0.049,0.019,0.098,0.038,0.147,0.057c0.038,0.015,0.077,0.03,0.116,0.046
	c0.049,0.02,0.098,0.038,0.146,0.058c0.03,0.012,0.061,0.023,0.092,0.036c0.057,0.022,0.115,0.045,0.174,0.068
	c0.041,0.016,0.082,0.032,0.123,0.048c0.039,0.016,0.078,0.031,0.118,0.046c0.073,0.028,0.146,0.057,0.22,0.086
	c0.017,0.006,0.033,0.012,0.049,0.019c0.076,0.029,0.153,0.059,0.231,0.09c0.024,0.009,0.048,0.018,0.072,0.027
	c0.058,0.022,0.118,0.046,0.177,0.069c0.059,0.022,0.116,0.044,0.176,0.067c1.018,0.395,2.141,0.827,3.313,1.274
	c0.002,0.001,0.005,0.002,0.007,0.003c0.118,0.045,0.237,0.09,0.355,0.135h0.002c0.113,0.043,0.227,0.086,0.341,0.13
	c0.017,0.006,0.034,0.013,0.053,0.02c0.106,0.041,0.214,0.081,0.321,0.121c0.01,0.004,0.02,0.007,0.029,0.011
	c0.116,0.044,0.233,0.088,0.351,0.132c0.002,0.001,0.003,0.002,0.005,0.002c0.117,0.044,0.234,0.089,0.352,0.133
	c0.011,0.004,0.021,0.008,0.032,0.012c0.108,0.04,0.216,0.081,0.325,0.122c0.018,0.008,0.037,0.015,0.057,0.021
	c0.104,0.039,0.209,0.078,0.314,0.117c0.018,0.007,0.037,0.014,0.055,0.021c0.104,0.039,0.206,0.077,0.309,0.115
	c0.022,0.009,0.046,0.017,0.067,0.026c0.104,0.038,0.205,0.076,0.308,0.114c0.021,0.008,0.043,0.016,0.063,0.023
	c0.099,0.036,0.196,0.073,0.293,0.109c0.029,0.011,0.06,0.021,0.089,0.032c0.094,0.035,0.188,0.07,0.282,0.105
	c0.028,0.01,0.056,0.02,0.084,0.031c0.095,0.035,0.188,0.069,0.284,0.104c0.029,0.011,0.059,0.022,0.089,0.033
	c0.093,0.034,0.187,0.068,0.279,0.102l0.088,0.032c0.092,0.034,0.185,0.067,0.276,0.101c0.03,0.011,0.062,0.022,0.093,0.034
	c0.088,0.032,0.175,0.063,0.263,0.096c0.035,0.013,0.07,0.025,0.105,0.038c0.086,0.032,0.172,0.062,0.258,0.093
	c0.033,0.013,0.068,0.024,0.103,0.038c0.087,0.031,0.175,0.062,0.261,0.094c0.033,0.011,0.066,0.022,0.1,0.035
	c0.08,0.028,0.159,0.057,0.238,0.085c0.041,0.015,0.082,0.03,0.123,0.045c0.08,0.028,0.158,0.056,0.237,0.084
	c0.037,0.013,0.075,0.027,0.112,0.04c0.088,0.031,0.177,0.062,0.264,0.093c0.027,0.01,0.055,0.02,0.08,0.029
	c0.084,0.029,0.166,0.058,0.249,0.087c0.035,0.012,0.07,0.024,0.104,0.036c0.07,0.025,0.142,0.05,0.213,0.075
	c0.043,0.015,0.087,0.029,0.13,0.044c0.074,0.026,0.147,0.051,0.22,0.076c0.037,0.014,0.075,0.027,0.113,0.04
	c0.068,0.024,0.138,0.047,0.206,0.071c0.043,0.015,0.086,0.029,0.129,0.044c0.065,0.022,0.128,0.044,0.192,0.065
	c0.043,0.016,0.088,0.031,0.132,0.045c0.065,0.022,0.13,0.045,0.194,0.066c0.043,0.013,0.084,0.028,0.125,0.042
	c0.105,0.035,0.209,0.07,0.313,0.104c0.204,0.068,0.4,0.142,0.592,0.222c0.004,0.002,0.007,0.003,0.01,0.004
	c0.188,0.079,0.37,0.164,0.547,0.253c0.006,0.003,0.014,0.007,0.02,0.009c0.173,0.089,0.341,0.183,0.504,0.281
	c0.008,0.005,0.016,0.009,0.023,0.014c0.162,0.097,0.316,0.199,0.467,0.305c0.009,0.007,0.019,0.013,0.027,0.02
	c0.148,0.105,0.291,0.215,0.43,0.327c0.011,0.009,0.021,0.017,0.031,0.025c0.137,0.112,0.269,0.229,0.396,0.348
	c0.01,0.009,0.021,0.019,0.03,0.028c0.127,0.119,0.249,0.242,0.367,0.367c0.01,0.01,0.019,0.02,0.027,0.029
	c0.118,0.127,0.231,0.256,0.342,0.388c0.008,0.009,0.016,0.018,0.023,0.027c0.109,0.134,0.214,0.269,0.316,0.405
	c0.006,0.009,0.013,0.018,0.019,0.025c0.103,0.14,0.2,0.281,0.294,0.424c0.004,0.006,0.008,0.013,0.014,0.019
	c0.094,0.146,0.186,0.293,0.273,0.442c0.002,0.004,0.004,0.007,0.006,0.01c0.991,1.69,1.387,3.539,1.62,4.936v8.1H77.588V123.297z"
	/>
<path fill="#F8D012" d="M137.039,119.549l-37.17-26.486l3.859-6.159l9.966,7.833l23.361,15.825l0.641,0.433
	c0,0,2.438,0.944,5.773,2.193l0.008,0.027L137.039,119.549z"/>
<path fill="#F8D012" d="M135.209,108.635c0.482,0.193,11.268,4.497,17.799,6.674c3.301,1.101,4.969,3.829,5.813,6.311h-33.118
	L135.209,108.635z"/>
<polygon fill="#191818" points="113.831,93.86 107.883,99.122 110.881,91.768 "/>
<polygon fill="#191818" points="119.428,97.848 113.48,103.109 116.478,95.756 "/>
<line fill="none" stroke="#191818" stroke-width="1.839" stroke-miterlimit="10" x1="158.821" y1="122.309" x2="77.587" y2="122.309"/>
<polygon fill="#191818" points="125.025,101.835 119.077,107.097 122.074,99.743 "/>
<polygon fill="#191818" points="130.622,105.822 124.674,111.085 127.672,103.73 "/>
<polygon fill="#191818" points="136.219,109.81 130.271,115.072 133.27,107.719 "/>
<polygon fill="#F8D012" points="92.449,98.104 108.243,106.154 104.022,109.448 111.456,117.231 95.662,109.183 99.883,105.888 "/>
<path fill="#F8D012" d="M79.171,105.614l-0.942,16.018h17.063C94.445,113.147,87.671,106.408,79.171,105.614"/>
<path fill="none" stroke="#191818" stroke-width="3.679" stroke-miterlimit="10" d="M77.588,123.297l0.138-4.397l0.873-13.101
	l0.319-4.773l0.445-6.681l0.148-2.228h20.045c0-4.455,4.454-6.682,4.454-6.682l1.96,1.47l1.604,1.203l0.712,0.534l3.341,2.505
	l22.97,16.145l0.594,0.416c0,0,0.495,0.197,1.341,0.531c0.002,0.001,0.006,0.002,0.008,0.003c0.047,0.019,0.094,0.037,0.142,0.057
	c0.021,0.008,0.042,0.017,0.063,0.024c0.045,0.019,0.09,0.036,0.137,0.054c0.012,0.005,0.023,0.009,0.036,0.014
	c0.051,0.02,0.102,0.041,0.155,0.061c0.018,0.008,0.037,0.016,0.055,0.022c0.051,0.02,0.103,0.04,0.156,0.061
	c0.009,0.005,0.018,0.007,0.026,0.011c0.084,0.033,0.17,0.067,0.257,0.101c0.049,0.019,0.096,0.038,0.146,0.057
	c0.047,0.018,0.095,0.037,0.142,0.056c0.03,0.011,0.059,0.022,0.09,0.035c0.053,0.02,0.105,0.041,0.158,0.062
	c0.028,0.011,0.057,0.022,0.084,0.033c0.049,0.019,0.098,0.038,0.147,0.057c0.038,0.015,0.077,0.03,0.116,0.046
	c0.049,0.02,0.098,0.038,0.146,0.058c0.03,0.012,0.061,0.023,0.092,0.036c0.057,0.022,0.115,0.045,0.174,0.068
	c0.041,0.016,0.082,0.032,0.123,0.048c0.039,0.016,0.078,0.031,0.118,0.046c0.073,0.028,0.146,0.057,0.22,0.086
	c0.017,0.006,0.033,0.012,0.049,0.019c0.076,0.029,0.153,0.059,0.231,0.09c0.024,0.009,0.048,0.018,0.072,0.027
	c0.058,0.022,0.118,0.046,0.177,0.069c0.059,0.022,0.116,0.044,0.176,0.067c1.018,0.395,2.141,0.827,3.313,1.274
	c0.002,0.001,0.005,0.002,0.007,0.003c0.118,0.045,0.237,0.09,0.355,0.135h0.002c0.113,0.043,0.227,0.086,0.341,0.13
	c0.017,0.006,0.034,0.013,0.053,0.02c0.106,0.041,0.214,0.081,0.321,0.121c0.01,0.004,0.02,0.007,0.029,0.011
	c0.116,0.044,0.233,0.088,0.351,0.132c0.002,0.001,0.003,0.002,0.005,0.002c0.117,0.044,0.234,0.089,0.352,0.133
	c0.011,0.004,0.021,0.008,0.032,0.012c0.108,0.04,0.216,0.081,0.325,0.122c0.018,0.008,0.037,0.015,0.057,0.021
	c0.104,0.039,0.209,0.078,0.314,0.117c0.018,0.007,0.037,0.014,0.055,0.021c0.104,0.039,0.206,0.077,0.309,0.115
	c0.022,0.009,0.046,0.017,0.067,0.026c0.104,0.038,0.205,0.076,0.308,0.114c0.021,0.008,0.043,0.016,0.063,0.023
	c0.099,0.036,0.196,0.073,0.293,0.109c0.029,0.011,0.06,0.021,0.089,0.032c0.094,0.035,0.188,0.07,0.282,0.105
	c0.028,0.01,0.056,0.02,0.084,0.031c0.095,0.035,0.188,0.069,0.284,0.104c0.029,0.011,0.059,0.022,0.089,0.033
	c0.093,0.034,0.187,0.068,0.279,0.102l0.088,0.032c0.092,0.034,0.185,0.067,0.276,0.101c0.03,0.011,0.062,0.022,0.093,0.034
	c0.088,0.032,0.175,0.063,0.263,0.096c0.035,0.013,0.07,0.025,0.105,0.038c0.086,0.032,0.172,0.062,0.258,0.093
	c0.033,0.013,0.068,0.024,0.103,0.038c0.087,0.031,0.175,0.062,0.261,0.094c0.033,0.011,0.066,0.022,0.1,0.035
	c0.08,0.028,0.159,0.057,0.238,0.085c0.041,0.015,0.082,0.03,0.123,0.045c0.08,0.028,0.158,0.056,0.237,0.084
	c0.037,0.013,0.075,0.027,0.112,0.04c0.088,0.031,0.177,0.062,0.264,0.093c0.027,0.01,0.055,0.02,0.08,0.029
	c0.084,0.029,0.166,0.058,0.249,0.087c0.035,0.012,0.07,0.024,0.104,0.036c0.07,0.025,0.142,0.05,0.213,0.075
	c0.043,0.015,0.087,0.029,0.13,0.044c0.074,0.026,0.147,0.051,0.22,0.076c0.037,0.014,0.075,0.027,0.113,0.04
	c0.068,0.024,0.138,0.047,0.206,0.071c0.043,0.015,0.086,0.029,0.129,0.044c0.065,0.022,0.128,0.044,0.192,0.065
	c0.043,0.016,0.088,0.031,0.132,0.045c0.065,0.022,0.13,0.045,0.194,0.066c0.043,0.013,0.084,0.028,0.125,0.042
	c0.105,0.035,0.209,0.07,0.313,0.104c0.204,0.068,0.4,0.142,0.592,0.222c0.004,0.002,0.007,0.003,0.01,0.004
	c0.188,0.079,0.37,0.164,0.547,0.253c0.006,0.003,0.014,0.007,0.02,0.009c0.173,0.089,0.341,0.183,0.504,0.281
	c0.008,0.005,0.016,0.009,0.023,0.014c0.162,0.097,0.316,0.199,0.467,0.305c0.009,0.007,0.019,0.013,0.027,0.02
	c0.148,0.105,0.291,0.215,0.43,0.327c0.011,0.009,0.021,0.017,0.031,0.025c0.137,0.112,0.269,0.229,0.396,0.348
	c0.01,0.009,0.021,0.019,0.03,0.028c0.127,0.119,0.249,0.242,0.367,0.367c0.01,0.01,0.019,0.02,0.027,0.029
	c0.118,0.127,0.231,0.256,0.342,0.388c0.008,0.009,0.016,0.018,0.023,0.027c0.109,0.134,0.214,0.269,0.316,0.405
	c0.006,0.009,0.013,0.018,0.019,0.025c0.103,0.14,0.2,0.281,0.294,0.424c0.004,0.006,0.008,0.013,0.014,0.019
	c0.094,0.146,0.186,0.293,0.273,0.442c0.002,0.004,0.004,0.007,0.006,0.01c0.991,1.69,1.387,3.539,1.62,4.936v8.1H77.588V123.297z"
	/>
<polygon fill="#FFFFFF" points="103.022,58.227 103.022,43.354 99.981,46.516 97.664,44.077 103.564,38.146 107.086,38.146 
	107.086,58.227 "/>
<path fill="#FFFFFF" d="M109.704,55.427l2.438-2.589c1.054,1.384,2.469,2.168,4.185,2.168c1.927,0,3.041-1.476,3.041-3.162
	c0-1.987-1.054-3.161-2.86-3.161c-1.354,0-2.378,0.481-3.312,1.655l-2.92-0.782v-11.41h12.042v3.553h-8.008v5.148
	c0.783-0.963,2.138-1.656,3.673-1.656c3.041,0,5.479,2.378,5.479,6.533c0,4.034-2.739,6.864-7.014,6.864
	C113.347,58.588,111.209,57.444,109.704,55.427"/>
<polygon fill="#FFFFFF" points="135.984,58.227 131.348,50.369 129.934,52.598 129.934,58.227 125.899,58.227 125.899,38.146 
	129.934,38.146 129.934,47.269 135.592,38.146 140.289,38.146 133.877,47.6 140.74,58.227 "/>
<polygon fill="#FFFFFF" points="88.996,46.606 77.256,49.315 66.42,46.606 66.42,40.284 77.256,42.994 88.996,40.284 "/>
<polygon fill="#FFFFFF" points="88.996,55.637 77.256,58.346 66.42,55.637 66.42,49.314 77.256,52.024 88.996,49.314 "/>
<polygon fill="#FFFFFF" points="173.36,46.606 161.62,49.315 150.784,46.606 150.784,40.284 161.62,42.994 173.36,40.284 "/>
<polygon fill="#FFFFFF" points="173.36,55.637 161.62,58.346 150.784,55.637 150.784,49.314 161.62,52.024 173.36,49.314 "/>
</svg>
