<?xml version="1.0" encoding="utf-8"?>
<!-- Generator: Adobe Illustrator 16.0.0, SVG Export Plug-In . SVG Version: 6.00 Build 0)  -->
<!DOCTYPE svg PUBLIC "-//W3C//DTD SVG 1.1//EN" "http://www.w3.org/Graphics/SVG/1.1/DTD/svg11.dtd">
<svg version="1.1" id="Layer_1" xmlns="http://www.w3.org/2000/svg" xmlns:xlink="http://www.w3.org/1999/xlink" x="0px" y="0px"
	 width="240px" height="200px" viewBox="0 0 240 200" enable-background="new 0 0 240 200" xml:space="preserve">
<path fill="none" d="M53.764,2645.837"/>
<path fill="none" d="M53.764-599.76"/>
<path fill="#1A1A19" d="M138.434,166.522c-10.386,6.445-19.062,10.537-20.966,11.415c-1.905-0.878-10.58-4.97-20.967-11.416v0.492
	c-0.003-0.002,0.004-0.005,0-0.007v15.051c11.415,7.015,20.568,11.112,20.568,11.112l0.399-0.001l0.399,0.001
	c0,0,9.152-4.099,20.566-11.112v-15.051c-0.004,0.002,0.004,0.005,0,0.007V166.522L138.434,166.522z"/>
<path fill="#1A1A19" d="M93.186,165.386c-9.748-6.171-20.759-14.313-29.014-23.745v15.052c8.118,9.568,19.145,17.857,29.014,24.17
	v-15.052c-0.004-0.002,0.003-0.005,0-0.007V165.386z"/>
<path fill="#1A1A19" d="M141.75,165.386v0.418c-0.004,0.002,0.003,0.005,0,0.007v15.052c9.869-6.313,20.895-14.602,29.014-24.17
	v-15.052C162.508,151.072,151.498,159.215,141.75,165.386"/>
<path fill="#F26D7C" d="M54.411,40.629v19.988v49.01c0,35.127,63.601,63.602,63.601,63.602s63.599-28.475,63.599-63.602v-49.01
	V40.629H54.411z"/>
<g opacity="0.6">
	<g>
		<g>
			<defs>
				<rect id="SVGID_1_" x="117.89" y="40.87" width="60.02" height="127.569"/>
			</defs>
			<clipPath id="SVGID_2_">
				<use xlink:href="#SVGID_1_"  overflow="visible"/>
			</clipPath>
			<path clip-path="url(#SVGID_2_)" fill="#DF2F55" d="M118.015,168.444c5.59-2.753,17.619-9.048,29.467-17.651
				c9.19-6.674,16.455-13.392,21.588-19.967c5.867-7.515,8.842-14.724,8.842-21.427V62.175V40.87h-60.025v127.511
				C117.929,168.402,117.974,168.425,118.015,168.444"/>
		</g>
	</g>
</g>
<g opacity="0.4">
	<g>
		<g>
			<defs>
				<rect id="SVGID_3_" x="53.41" y="37.08" width="129.199" height="137.188"/>
			</defs>
			<clipPath id="SVGID_4_">
				<use xlink:href="#SVGID_3_"  overflow="visible"/>
			</clipPath>
			<path clip-path="url(#SVGID_4_)" fill="#FFFFFF" d="M168.814,50.875v9.015v49.78c0,18.229-31.246,39.338-50.804,49.296
				c-19.566-9.964-50.804-31.068-50.804-49.296V59.89v-9.015H168.814 M182.611,37.078h-129.2V59.89v49.78
				c0,35.679,64.601,64.602,64.601,64.602s64.599-28.923,64.599-64.602V59.89V37.078L182.611,37.078z"/>
		</g>
	</g>
</g>
<path fill="#1A1A19" d="M175.087,44.604V59.89v49.78c0,8.39-5.03,22.043-28.997,39.445c-11.291,8.199-22.754,14.197-28.081,16.82
	c-5.288-2.601-16.619-8.526-27.885-16.683C66,131.791,60.936,118.09,60.936,109.67V59.89V44.604H175.087 M182.611,37.078h-129.2
	V59.89v49.78c0,35.679,64.601,64.602,64.601,64.602s64.599-28.923,64.599-64.602V59.89V37.078L182.611,37.078z"/>
<path fill="#1A1A19" d="M58.429,20.454c-2.741,0.32-4.983,2.84-4.983,5.6v25.574c0,2.76,2.258,5.017,5.017,5.017h119.092
	c2.758,0,5.016-2.257,5.016-5.017V26.054c0-2.759-2.242-5.277-4.983-5.597l-54.713-6.366c-2.742-0.319-7.226-0.318-9.967,0.002
	L58.429,20.454z"/>
<polygon fill="#FFFFFF" points="109.522,46.229 109.522,31.357 106.481,34.519 104.164,32.079 110.064,26.148 113.586,26.148 
	113.586,46.229 "/>
<path fill="#FFFFFF" d="M116.174,36.234c0-6.021,2.859-10.387,8.038-10.387c2.138,0,3.974,0.844,5.147,2.167l-1.957,3.012
	c-0.781-1.055-1.717-1.597-3.131-1.597c-2.438,0-4.004,2.801-4.004,5.991v0.361c0.752-1.384,2.379-2.559,4.274-2.559
	c3.011,0,5.63,2.259,5.63,6.533c0,3.883-2.648,6.834-6.593,6.834C118.251,46.591,116.174,41.804,116.174,36.234 M126.078,39.907
	c0-2.349-1.385-3.222-2.799-3.222c-1.297,0-2.318,0.903-3.012,2.048c0.15,1.896,0.844,4.273,3.07,4.273
	C125.176,43.008,126.078,41.412,126.078,39.907"/>
<path fill="#FFFFFF" d="M131.395,139.653c-17.018,7.085-36.556-0.968-43.641-17.985c-7.085-17.017,0.967-36.556,17.984-43.641
	c17.019-7.085,36.558,0.967,43.642,17.984C156.463,113.029,148.412,132.568,131.395,139.653"/>
<path fill="#191818" d="M118.059,84.641c0,0-0.002,0.021-0.004,0.055h0.01C118.061,84.661,118.059,84.641,118.059,84.641"/>
<path fill="#F26D7C" d="M147.17,92.726c-5.725-10.041-17.25-16.649-28.429-16.389l-0.292,3.321l0.785,29.624l32.283,0.335
	L147.17,92.726z"/>
<path fill="#191818" d="M118.062,84.667c0.002,0.015,0.538,0.026,1.196,0.026s1.191-0.562,1.191-1.254v-5.771
	c0-0.692-0.561-1.254-1.254-1.254h-1.636c-0.693,0-1.254,0.563-1.254,1.254v5.771c0,0.692,0.391,1.254,0.874,1.254
	s0.876-0.013,0.877-0.026S118.06,84.652,118.062,84.667"/>
<path fill="#191818" d="M151.238,110.095v-1.636c0-0.693-0.563-1.255-1.254-1.255h-5.687c-0.692,0-1.254,0.562-1.254,1.255v1.636
	c0,0.693,0.562,1.254,1.254,1.254h5.687C150.677,111.349,151.238,110.788,151.238,110.095"/>
<path fill="#191818" d="M85.517,108.458v1.637c0,0.692,0.562,1.255,1.254,1.255h5.519c0.693,0,1.254-0.563,1.254-1.255v-1.637
	c0-0.692-0.562-1.254-1.254-1.254h-5.519C86.079,107.204,85.517,107.766,85.517,108.458"/>
<path fill="#191818" d="M117.56,142.138h1.635c0.693,0,1.256-0.562,1.256-1.254v-5.436c0-0.692-0.563-1.254-1.256-1.254h-1.635
	c-0.693,0-1.254,0.562-1.254,1.254v5.436C116.306,141.576,116.866,142.138,117.56,142.138"/>
<g opacity="0.6">
	<g>
		<g>
			<defs>
				<rect id="SVGID_5_" x="89.75" y="80.65" width="57.25" height="57.25"/>
			</defs>
			<clipPath id="SVGID_6_">
				<use xlink:href="#SVGID_5_"  overflow="visible"/>
			</clipPath>
			<path clip-path="url(#SVGID_6_)" fill="#DF2F55" d="M101.947,80.818c-0.6,0.346-0.805,1.112-0.459,1.713l2.849,4.935
				c0.346,0.601,1.115,0.809,1.717,0.466c0.602-0.343,0.81-1.106,0.463-1.707l-2.857-4.947
				C103.314,80.677,102.547,80.472,101.947,80.818"/>
		</g>
		<g>
			<defs>
				<rect id="SVGID_7_" x="89.75" y="80.65" width="57.25" height="57.25"/>
			</defs>
			<clipPath id="SVGID_8_">
				<use xlink:href="#SVGID_7_"  overflow="visible"/>
			</clipPath>
			<path clip-path="url(#SVGID_8_)" fill="#DF2F55" d="M89.919,92.846c-0.346,0.602-0.141,1.367,0.459,1.713l4.868,2.812
				c0.6,0.346,1.363,0.139,1.705-0.464c0.342-0.604,0.133-1.371-0.467-1.718l-4.852-2.802
				C91.033,92.041,90.265,92.246,89.919,92.846"/>
		</g>
		<g>
			<defs>
				<rect id="SVGID_9_" x="89.75" y="80.65" width="57.25" height="57.25"/>
			</defs>
			<clipPath id="SVGID_10_">
				<use xlink:href="#SVGID_9_"  overflow="visible"/>
			</clipPath>
			<path clip-path="url(#SVGID_10_)" fill="#DF2F55" d="M89.919,125.707c0.346,0.6,1.114,0.805,1.713,0.459l4.719-2.725
				c0.6-0.347,0.805-1.112,0.457-1.711c-0.348-0.601-1.117-0.806-1.717-0.458l-4.713,2.722
				C89.778,124.34,89.573,125.107,89.919,125.707"/>
		</g>
		<g>
			<defs>
				<rect id="SVGID_11_" x="89.75" y="80.65" width="57.25" height="57.25"/>
			</defs>
			<clipPath id="SVGID_12_">
				<use xlink:href="#SVGID_11_"  overflow="visible"/>
			</clipPath>
			<path clip-path="url(#SVGID_12_)" fill="#DF2F55" d="M101.947,137.735c0.6,0.346,1.367,0.141,1.713-0.459l2.71-4.694
				c0.347-0.6,0.14-1.365-0.461-1.709c-0.601-0.345-1.369-0.137-1.716,0.463l-2.705,4.688
				C101.142,136.621,101.347,137.389,101.947,137.735"/>
		</g>
		<g>
			<defs>
				<rect id="SVGID_13_" x="89.75" y="80.65" width="57.25" height="57.25"/>
			</defs>
			<clipPath id="SVGID_14_">
				<use xlink:href="#SVGID_13_"  overflow="visible"/>
			</clipPath>
			<path clip-path="url(#SVGID_14_)" fill="#DF2F55" d="M134.809,137.735c0.601-0.348,0.805-1.114,0.459-1.714l-2.744-4.755
				c-0.348-0.601-1.115-0.809-1.719-0.467c-0.602,0.344-0.809,1.107-0.463,1.707l2.754,4.77
				C133.441,137.876,134.208,138.081,134.809,137.735"/>
		</g>
		<g>
			<defs>
				<rect id="SVGID_15_" x="89.75" y="80.65" width="57.25" height="57.25"/>
			</defs>
			<clipPath id="SVGID_16_">
				<use xlink:href="#SVGID_15_"  overflow="visible"/>
			</clipPath>
			<path clip-path="url(#SVGID_16_)" fill="#DF2F55" d="M146.836,125.707c0.346-0.6,0.141-1.367-0.459-1.713l-4.85-2.801
				c-0.601-0.347-1.364-0.14-1.707,0.464c-0.342,0.602-0.133,1.371,0.468,1.718l4.835,2.791
				C145.723,126.512,146.49,126.307,146.836,125.707"/>
		</g>
		<g>
			<defs>
				<rect id="SVGID_17_" x="89.75" y="80.65" width="57.25" height="57.25"/>
			</defs>
			<clipPath id="SVGID_18_">
				<use xlink:href="#SVGID_17_"  overflow="visible"/>
			</clipPath>
			<path clip-path="url(#SVGID_18_)" fill="#DF2F55" d="M146.836,92.846c-0.346-0.6-1.113-0.805-1.713-0.459l-4.99,2.881
				c-0.6,0.347-0.804,1.113-0.455,1.713c0.348,0.598,1.115,0.803,1.715,0.457l4.984-2.879
				C146.977,94.213,147.182,93.446,146.836,92.846"/>
		</g>
		<g>
			<defs>
				<rect id="SVGID_19_" x="89.75" y="80.65" width="57.25" height="57.25"/>
			</defs>
			<clipPath id="SVGID_20_">
				<use xlink:href="#SVGID_19_"  overflow="visible"/>
			</clipPath>
			<path clip-path="url(#SVGID_20_)" fill="#DF2F55" d="M134.809,80.818c-0.601-0.347-1.367-0.142-1.713,0.459l-2.896,5.017
				c-0.348,0.601-0.141,1.365,0.461,1.71c0.604,0.344,1.369,0.138,1.716-0.463l2.894-5.01
				C135.613,81.931,135.408,81.164,134.809,80.818"/>
		</g>
	</g>
</g>
<path fill="#191818" d="M118.313,144.783c-14.367,0-27.218-8.57-32.739-21.833c-7.514-18.045,1.055-38.838,19.101-46.352
	c4.353-1.813,8.933-2.731,13.611-2.731c14.366,0,27.218,8.569,32.739,21.833c7.513,18.045-1.056,38.838-19.103,46.351
	C127.57,143.864,122.991,144.783,118.313,144.783 M118.286,78.012c-4.128,0-8.172,0.813-12.019,2.413
	c-15.935,6.634-23.502,24.997-16.867,40.934c4.876,11.713,16.225,19.28,28.913,19.28c4.128,0,8.171-0.813,12.018-2.414
	c15.935-6.634,23.502-24.996,16.868-40.932C142.323,85.58,130.975,78.012,118.286,78.012"/>
<path fill="#191818" d="M102.109,76.426c0,2.1-1.701,3.8-3.799,3.8c-2.099,0-3.8-1.701-3.8-3.8c0-2.098,1.701-3.8,3.8-3.8
	C100.408,72.626,102.109,74.328,102.109,76.426"/>
<path fill="#F26D7C" d="M124.998,69.491c0,3.711-3.01,6.719-6.72,6.719c-3.71,0-6.718-3.008-6.718-6.719s3.008-6.719,6.718-6.719
	C121.989,62.772,124.998,65.78,124.998,69.491"/>
<path fill="#191818" d="M118.47,77.515c-4.437,0-8.046-3.608-8.046-8.046c0-4.436,3.609-8.046,8.046-8.046s8.045,3.61,8.045,8.046
	C126.516,73.906,122.906,77.515,118.47,77.515 M118.47,65.567c-2.151,0-3.901,1.75-3.901,3.9c0,2.152,1.75,3.902,3.901,3.902
	c2.151,0,3.901-1.75,3.901-3.902C122.371,67.317,120.621,65.567,118.47,65.567"/>
<path fill="#191818" d="M132.094,77.168l2.588-3.061c0.896-1.059,2.478-1.19,3.535-0.297l12.03,10.172
	c1.058,0.894,1.19,2.477,0.296,3.534l-2.587,3.062L132.094,77.168z"/>
<path fill="#191818" d="M115.138,109.479c0.005,1.914,1.561,3.461,3.473,3.455c1.914-0.006,3.462-1.562,3.455-3.476
	c-0.004-1.912-3.354-15.377-3.354-15.377S115.133,107.566,115.138,109.479"/>
<path fill="#191818" d="M119.6,105.703c-1.914-0.023-3.484,1.508-3.509,3.42c-0.025,1.914,1.507,3.484,3.421,3.51
	c1.912,0.023,15.43-3.367,15.43-3.367S121.512,105.728,119.6,105.703"/>
<polygon fill="#FFFFFF" points="91.595,33.616 84.135,32.485 80.815,25.388 77.495,32.485 70.036,33.616 75.425,39.15 
	74.078,46.945 80.815,43.265 87.552,46.945 86.206,39.15 "/>
<polygon fill="#FFFFFF" points="166.096,33.616 158.635,32.485 155.314,25.388 151.995,32.485 144.536,33.616 149.926,39.15 
	148.578,46.945 155.314,43.265 162.053,46.945 160.705,39.15 "/>
</svg>
