<?xml version="1.0" encoding="utf-8"?>
<!-- Generator: Adobe Illustrator 16.0.0, SVG Export Plug-In . SVG Version: 6.00 Build 0)  -->
<!DOCTYPE svg PUBLIC "-//W3C//DTD SVG 1.1//EN" "http://www.w3.org/Graphics/SVG/1.1/DTD/svg11.dtd">
<svg version="1.1" id="Layer_1" xmlns="http://www.w3.org/2000/svg" xmlns:xlink="http://www.w3.org/1999/xlink" x="0px" y="0px"
	 width="240px" height="200px" viewBox="0 0 240 200" enable-background="new 0 0 240 200" xml:space="preserve">
<path fill="none" d="M53.764,2645.837"/>
<path fill="none" d="M53.764-599.76"/>
<path fill="#F26D7C" d="M55.363,50.381v19.761v48.456c0,34.728,62.88,62.879,62.88,62.879s62.88-28.151,62.88-62.879V70.142V50.381
	H55.363z"/>
<g opacity="0.6">
	<g>
		<g>
			<defs>
				<rect id="SVGID_1_" x="118.118" y="49.87" width="60.026" height="127.569"/>
			</defs>
			<clipPath id="SVGID_2_">
				<use xlink:href="#SVGID_1_"  overflow="visible"/>
			</clipPath>
			<path clip-path="url(#SVGID_2_)" fill="#DF2F55" d="M118.247,177.444c5.589-2.753,17.619-9.048,29.468-17.651
				c9.191-6.674,16.453-13.392,21.588-19.967c5.865-7.515,8.842-14.724,8.842-21.427V71.175V49.87h-60.025v127.511
				C118.161,177.402,118.206,177.425,118.247,177.444"/>
		</g>
	</g>
</g>
<g opacity="0.4">
	<g>
		<g>
			<defs>
				<rect id="SVGID_3_" x="53.642" y="46.08" width="129.201" height="137.188"/>
			</defs>
			<clipPath id="SVGID_4_">
				<use xlink:href="#SVGID_3_"  overflow="visible"/>
			</clipPath>
			<path clip-path="url(#SVGID_4_)" fill="#FFFFFF" d="M169.047,59.875v9.015v49.78c0,18.229-31.246,39.338-50.804,49.296
				c-19.566-9.964-50.804-31.068-50.804-49.296V68.89v-9.015H169.047 M182.844,46.078H53.643V68.89v49.78
				c0,35.679,64.601,64.602,64.601,64.602s64.602-28.923,64.602-64.602V68.89V46.078H182.844z"/>
		</g>
	</g>
</g>
<path fill="#1A1A19" d="M175.318,53.604V68.89v49.78c0,8.39-5.031,22.043-28.998,39.445c-11.291,8.199-22.754,14.197-28.08,16.82
	c-5.288-2.601-16.619-8.526-27.885-16.683c-24.124-17.463-29.188-31.164-29.188-39.584v-49.78V53.603L175.318,53.604
	 M182.844,46.078H53.643V68.89v49.78c0,35.679,64.601,64.602,64.601,64.602s64.602-28.923,64.602-64.602V68.89V46.078H182.844z"/>
<path fill="#1A1A19" d="M58.66,29.454c-2.741,0.32-4.983,2.84-4.983,5.6v25.574c0,2.76,2.258,5.017,5.017,5.017h119.09
	c2.76,0,5.017-2.257,5.017-5.017V35.054c0-2.759-2.242-5.277-4.982-5.597l-54.715-6.366c-2.739-0.318-7.225-0.317-9.964,0.002
	L58.66,29.454z"/>
<path fill="#FFFFFF" d="M110.761,45.234c0-6.021,2.861-10.387,8.039-10.387c2.138,0,3.974,0.844,5.147,2.167l-1.957,3.012
	c-0.783-1.055-1.717-1.597-3.131-1.597c-2.439,0-4.004,2.801-4.004,5.991v0.361c0.752-1.384,2.378-2.559,4.275-2.559
	c3.011,0,5.63,2.259,5.63,6.533c0,3.883-2.65,6.834-6.594,6.834C112.838,55.591,110.761,50.804,110.761,45.234 M120.666,48.907
	c0-2.349-1.385-3.222-2.8-3.222c-1.294,0-2.318,0.903-3.01,2.048c0.15,1.896,0.843,4.273,3.071,4.273
	C119.764,52.008,120.666,50.412,120.666,48.907"/>
<path fill="#FFFFFF" d="M131.626,148.653c-17.018,7.085-36.556-0.968-43.641-17.985c-7.085-17.017,0.967-36.556,17.984-43.641
	s36.556,0.967,43.642,17.984C156.695,122.029,148.645,141.568,131.626,148.653"/>
<path fill="#191818" d="M118.29,93.641c0,0-0.002,0.021-0.004,0.055h0.01C118.292,93.661,118.29,93.641,118.29,93.641"/>
<path fill="#F26D7C" d="M147.402,101.726c-5.726-10.041-17.25-16.649-28.43-16.389l-0.293,3.321l0.786,29.624l32.283,0.335
	L147.402,101.726z"/>
<path fill="#191818" d="M118.293,93.667c0.002,0.015,0.537,0.026,1.196,0.026c0.657,0,1.192-0.562,1.192-1.254v-5.771
	c0-0.692-0.563-1.254-1.255-1.254h-1.637c-0.693,0-1.254,0.563-1.254,1.254v5.771c0,0.692,0.391,1.254,0.874,1.254
	c0.483,0,0.876-0.013,0.877-0.026S118.291,93.652,118.293,93.667"/>
<path fill="#191818" d="M151.471,119.095v-1.636c0-0.693-0.563-1.255-1.254-1.255h-5.688c-0.691,0-1.254,0.562-1.254,1.255v1.636
	c0,0.693,0.563,1.254,1.254,1.254h5.688C150.908,120.349,151.471,119.788,151.471,119.095"/>
<path fill="#191818" d="M85.748,117.458v1.637c0,0.692,0.562,1.255,1.254,1.255h5.519c0.693,0,1.254-0.563,1.254-1.255v-1.637
	c0-0.692-0.561-1.254-1.254-1.254h-5.519C86.31,116.204,85.748,116.766,85.748,117.458"/>
<path fill="#191818" d="M117.791,151.138h1.636c0.693,0,1.255-0.562,1.255-1.254v-5.436c0-0.692-0.562-1.254-1.255-1.254h-1.636
	c-0.693,0-1.254,0.562-1.254,1.254v5.436C116.537,150.576,117.098,151.138,117.791,151.138"/>
<g opacity="0.6">
	<g>
		<g>
			<defs>
				<rect id="SVGID_5_" x="89.982" y="89.65" width="57.254" height="57.25"/>
			</defs>
			<clipPath id="SVGID_6_">
				<use xlink:href="#SVGID_5_"  overflow="visible"/>
			</clipPath>
			<path clip-path="url(#SVGID_6_)" fill="#DF2F55" d="M102.179,89.818c-0.6,0.346-0.805,1.112-0.459,1.713l2.849,4.935
				c0.346,0.601,1.115,0.809,1.717,0.466s0.81-1.106,0.463-1.707l-2.857-4.947C103.545,89.677,102.778,89.472,102.179,89.818"/>
		</g>
		<g>
			<defs>
				<rect id="SVGID_7_" x="89.982" y="89.65" width="57.254" height="57.25"/>
			</defs>
			<clipPath id="SVGID_8_">
				<use xlink:href="#SVGID_7_"  overflow="visible"/>
			</clipPath>
			<path clip-path="url(#SVGID_8_)" fill="#DF2F55" d="M90.15,101.846c-0.346,0.602-0.141,1.367,0.459,1.713l4.868,2.812
				c0.599,0.346,1.363,0.139,1.705-0.464c0.342-0.604,0.133-1.371-0.467-1.719l-4.852-2.802
				C91.264,101.041,90.497,101.246,90.15,101.846"/>
		</g>
		<g>
			<defs>
				<rect id="SVGID_9_" x="89.982" y="89.65" width="57.254" height="57.25"/>
			</defs>
			<clipPath id="SVGID_10_">
				<use xlink:href="#SVGID_9_"  overflow="visible"/>
			</clipPath>
			<path clip-path="url(#SVGID_10_)" fill="#DF2F55" d="M90.15,134.707c0.346,0.6,1.113,0.805,1.713,0.459l4.719-2.725
				c0.6-0.347,0.805-1.112,0.457-1.711c-0.348-0.601-1.117-0.806-1.717-0.458l-4.713,2.722
				C90.01,133.34,89.805,134.107,90.15,134.707"/>
		</g>
		<g>
			<defs>
				<rect id="SVGID_11_" x="89.982" y="89.65" width="57.254" height="57.25"/>
			</defs>
			<clipPath id="SVGID_12_">
				<use xlink:href="#SVGID_11_"  overflow="visible"/>
			</clipPath>
			<path clip-path="url(#SVGID_12_)" fill="#DF2F55" d="M102.179,146.735c0.6,0.346,1.367,0.141,1.713-0.459l2.71-4.694
				c0.347-0.6,0.14-1.365-0.461-1.709c-0.601-0.345-1.369-0.137-1.716,0.463l-2.705,4.688
				C101.374,145.621,101.579,146.389,102.179,146.735"/>
		</g>
		<g>
			<defs>
				<rect id="SVGID_13_" x="89.982" y="89.65" width="57.254" height="57.25"/>
			</defs>
			<clipPath id="SVGID_14_">
				<use xlink:href="#SVGID_13_"  overflow="visible"/>
			</clipPath>
			<path clip-path="url(#SVGID_14_)" fill="#DF2F55" d="M135.039,146.735c0.602-0.348,0.807-1.114,0.459-1.714l-2.744-4.755
				c-0.346-0.601-1.115-0.809-1.717-0.467c-0.604,0.344-0.811,1.107-0.463,1.707l2.752,4.77
				C133.673,146.876,134.439,147.081,135.039,146.735"/>
		</g>
		<g>
			<defs>
				<rect id="SVGID_15_" x="89.982" y="89.65" width="57.254" height="57.25"/>
			</defs>
			<clipPath id="SVGID_16_">
				<use xlink:href="#SVGID_15_"  overflow="visible"/>
			</clipPath>
			<path clip-path="url(#SVGID_16_)" fill="#DF2F55" d="M147.066,134.707c0.348-0.6,0.143-1.367-0.459-1.713l-4.85-2.801
				c-0.602-0.347-1.363-0.14-1.706,0.464c-0.342,0.602-0.133,1.371,0.468,1.718l4.834,2.791
				C145.955,135.512,146.723,135.307,147.066,134.707"/>
		</g>
		<g>
			<defs>
				<rect id="SVGID_17_" x="89.982" y="89.65" width="57.254" height="57.25"/>
			</defs>
			<clipPath id="SVGID_18_">
				<use xlink:href="#SVGID_17_"  overflow="visible"/>
			</clipPath>
			<path clip-path="url(#SVGID_18_)" fill="#DF2F55" d="M147.066,101.846c-0.346-0.6-1.111-0.805-1.713-0.459l-4.988,2.881
				c-0.602,0.348-0.805,1.113-0.457,1.714c0.349,0.598,1.115,0.803,1.717,0.457l4.982-2.879
				C147.209,103.213,147.414,102.446,147.066,101.846"/>
		</g>
		<g>
			<defs>
				<rect id="SVGID_19_" x="89.982" y="89.65" width="57.254" height="57.25"/>
			</defs>
			<clipPath id="SVGID_20_">
				<use xlink:href="#SVGID_19_"  overflow="visible"/>
			</clipPath>
			<path clip-path="url(#SVGID_20_)" fill="#DF2F55" d="M135.039,89.818c-0.6-0.347-1.366-0.142-1.713,0.459l-2.896,5.017
				c-0.346,0.601-0.141,1.365,0.461,1.71c0.603,0.344,1.37,0.138,1.717-0.463l2.892-5.01
				C135.846,90.931,135.641,90.164,135.039,89.818"/>
		</g>
	</g>
</g>
<path fill="#191818" d="M118.545,153.783c-14.366,0-27.217-8.57-32.739-21.833c-7.514-18.045,1.055-38.838,19.101-46.352
	c4.353-1.813,8.933-2.731,13.61-2.731c14.367,0,27.219,8.569,32.74,21.833c7.512,18.045-1.057,38.838-19.102,46.351
	C127.803,152.864,123.223,153.783,118.545,153.783 M118.518,87.012c-4.127,0-8.171,0.813-12.019,2.413
	c-15.935,6.634-23.502,24.997-16.867,40.934c4.876,11.713,16.225,19.28,28.913,19.28c4.128,0,8.172-0.813,12.018-2.414
	c15.937-6.634,23.502-24.996,16.869-40.932C142.555,94.58,131.205,87.012,118.518,87.012"/>
<path fill="#191818" d="M102.34,85.426c0,2.1-1.701,3.8-3.8,3.8c-2.098,0-3.799-1.701-3.799-3.8c0-2.098,1.701-3.8,3.799-3.8
	C100.64,81.626,102.34,83.328,102.34,85.426"/>
<path fill="#F26D7C" d="M125.229,78.491c0,3.711-3.008,6.719-6.719,6.719c-3.71,0-6.718-3.008-6.718-6.719s3.008-6.719,6.718-6.719
	C122.221,71.772,125.229,74.78,125.229,78.491"/>
<path fill="#191818" d="M118.701,86.515c-4.437,0-8.046-3.608-8.046-8.046c0-4.436,3.609-8.046,8.046-8.046
	c4.438,0,8.046,3.61,8.046,8.046C126.747,82.906,123.139,86.515,118.701,86.515 M118.701,74.567c-2.151,0-3.901,1.75-3.901,3.9
	c0,2.152,1.75,3.902,3.901,3.902c2.15,0,3.9-1.75,3.9-3.902C122.602,76.317,120.852,74.567,118.701,74.567"/>
<path fill="#191818" d="M132.325,86.168l2.587-3.061c0.895-1.059,2.479-1.19,3.536-0.297l12.03,10.172
	c1.058,0.894,1.19,2.477,0.295,3.534l-2.586,3.062L132.325,86.168z"/>
<path fill="#191818" d="M115.369,118.479c0.005,1.914,1.561,3.461,3.474,3.455c1.914-0.006,3.462-1.562,3.455-3.476
	c-0.005-1.912-3.354-15.377-3.354-15.377S115.364,116.566,115.369,118.479"/>
<path fill="#191818" d="M119.83,114.703c-1.913-0.023-3.484,1.508-3.508,3.42c-0.025,1.914,1.507,3.484,3.42,3.51
	c1.912,0.023,15.432-3.367,15.432-3.367S121.743,114.728,119.83,114.703"/>
<polygon fill="#F26D7C" points="92.862,42.458 81.123,45.167 70.286,42.458 70.286,36.136 81.123,38.846 92.862,36.136 "/>
<polygon fill="#F26D7C" points="92.862,51.488 81.123,54.197 70.286,51.488 70.286,45.167 81.123,47.876 92.862,45.167 "/>
<polygon fill="#676868" points="167.227,42.458 155.486,45.167 144.65,42.458 144.65,36.136 155.486,38.846 167.227,36.136 "/>
<polygon fill="#676868" points="167.227,51.488 155.486,54.197 144.65,51.488 144.65,45.167 155.486,47.876 167.227,45.167 "/>
</svg>
