<?xml version="1.0" encoding="utf-8"?>
<!-- Generator: Adobe Illustrator 16.0.0, SVG Export Plug-In . SVG Version: 6.00 Build 0)  -->
<!DOCTYPE svg PUBLIC "-//W3C//DTD SVG 1.1//EN" "http://www.w3.org/Graphics/SVG/1.1/DTD/svg11.dtd">
<svg version="1.1" id="Layer_1" xmlns="http://www.w3.org/2000/svg" xmlns:xlink="http://www.w3.org/1999/xlink" x="0px" y="0px"
	 width="240px" height="200px" viewBox="0 0 240 200" enable-background="new 0 0 240 200" xml:space="preserve">
<path fill="#1A1A19" d="M137.758,166.241c-10.386,6.446-19.062,10.538-20.966,11.416c-1.905-0.878-10.58-4.97-20.967-11.416v0.492
	c-0.003-0.002,0.004-0.005,0-0.007v15.051c11.415,7.013,20.568,11.112,20.568,11.112l0.399-0.001l0.399,0.001
	c0,0,9.152-4.1,20.567-11.112v-15.051c-0.004,0.002,0.004,0.005,0,0.007V166.241z"/>
<path fill="#1A1A19" d="M92.51,165.104c-9.748-6.17-20.759-14.313-29.014-23.744v15.051c8.118,9.568,19.145,17.857,29.014,24.17
	v-15.051c-0.004-0.002,0.003-0.005,0-0.007V165.104z"/>
<path fill="#1A1A19" d="M141.074,165.104v0.419c-0.004,0.002,0.003,0.005,0,0.007v15.051c9.869-6.313,20.895-14.602,29.014-24.17
	v-15.051C161.832,150.791,150.822,158.934,141.074,165.104"/>
<path fill="#FECF0A" d="M52.191,38.584v20.302v49.78c0,35.679,64.601,64.602,64.601,64.602s64.6-28.923,64.6-64.602v-49.78V38.584
	H52.191z"/>
<g opacity="0.6">
	<g>
		<defs>
			<rect id="SVGID_1_" x="116.67" y="39.87" width="60.02" height="127.57"/>
		</defs>
		<clipPath id="SVGID_2_">
			<use xlink:href="#SVGID_1_"  overflow="visible"/>
		</clipPath>
		<path clip-path="url(#SVGID_2_)" fill="#CDA72C" d="M116.796,167.441c5.59-2.753,17.618-9.048,29.468-17.652
			c9.191-6.674,16.454-13.391,21.588-19.967c5.866-7.513,8.841-14.722,8.841-21.426V61.172V39.867h-60.025v127.511
			C116.709,167.398,116.755,167.422,116.796,167.441"/>
	</g>
</g>
<g opacity="0.4">
	<g>
		<defs>
			<rect id="SVGID_3_" x="52.19" y="36.07" width="129.201" height="137.199"/>
		</defs>
		<clipPath id="SVGID_4_">
			<use xlink:href="#SVGID_3_"  overflow="visible"/>
		</clipPath>
		<path clip-path="url(#SVGID_4_)" fill="#FFFFFF" d="M167.596,49.872v9.014v49.781c0,18.215-31.2,39.306-50.76,49.273
			c-5.696-2.925-14.984-8.061-24.254-14.771c-17.149-12.413-26.593-24.667-26.593-34.503V58.886v-9.014H167.596 M181.393,36.075
			H52.191v22.811v49.781c0,35.677,64.601,64.601,64.601,64.601s64.601-28.924,64.601-64.601V58.886V36.075z"/>
	</g>
</g>
<path fill="#1A1A19" d="M173.867,43.6v15.286v49.781c0,8.39-5.031,22.042-28.997,39.445c-11.291,8.198-22.754,14.197-28.081,16.821
	c-5.288-2.603-16.619-8.528-27.885-16.684c-24.124-17.462-29.187-31.164-29.187-39.583V58.886V43.6H173.867 M181.393,36.075H52.191
	v22.811v49.781c0,35.677,64.601,64.601,64.601,64.601s64.601-28.924,64.601-64.601V58.886V36.075z"/>
<path fill="#1A1A19" d="M57.213,19.451c-2.741,0.319-4.983,2.84-4.983,5.599v25.574c0,2.76,2.258,5.018,5.017,5.018h119.091
	c2.759,0,5.016-2.258,5.016-5.018V25.05c0-2.759-2.242-5.278-4.982-5.597l-54.715-6.366c-2.741-0.319-7.225-0.318-9.966,0.002
	L57.213,19.451z"/>
<g opacity="0.6">
	<g>
		<defs>
			<rect id="SVGID_5_" x="54.85" y="119.71" width="123.88" height="53.43"/>
		</defs>
		<clipPath id="SVGID_6_">
			<use xlink:href="#SVGID_5_"  overflow="visible"/>
		</clipPath>
		<path clip-path="url(#SVGID_6_)" fill="#CDA72C" d="M54.85,119.705c10.273,30.301,61.943,53.435,61.943,53.435
			s51.668-23.134,61.942-53.435H54.85z"/>
	</g>
</g>
<path fill="#FFFFFF" d="M74.49,111.297l0.138-4.397l0.873-13.101l0.319-4.773l0.445-6.681l0.148-2.228h20.045
	c0-4.455,4.454-6.682,4.454-6.682l1.96,1.47l1.604,1.203l0.712,0.534l3.341,2.505l22.969,16.145l0.594,0.416
	c0,0,0.496,0.197,1.341,0.531c0.003,0.001,0.006,0.002,0.009,0.003c0.047,0.019,0.094,0.037,0.141,0.057
	c0.021,0.008,0.043,0.017,0.063,0.024c0.045,0.019,0.091,0.036,0.138,0.054c0.012,0.005,0.023,0.009,0.035,0.014
	c0.051,0.02,0.103,0.041,0.155,0.061c0.019,0.008,0.037,0.016,0.056,0.022c0.051,0.02,0.103,0.04,0.155,0.061
	c0.009,0.005,0.019,0.007,0.027,0.011c0.084,0.033,0.17,0.067,0.257,0.101c0.048,0.019,0.096,0.038,0.145,0.057
	c0.047,0.018,0.096,0.037,0.143,0.056c0.029,0.011,0.059,0.022,0.09,0.035c0.052,0.02,0.105,0.041,0.158,0.062
	c0.027,0.011,0.056,0.022,0.084,0.033c0.048,0.019,0.098,0.038,0.146,0.057c0.039,0.015,0.077,0.03,0.116,0.046
	c0.048,0.02,0.099,0.038,0.147,0.058c0.029,0.012,0.061,0.023,0.092,0.036c0.057,0.022,0.115,0.045,0.173,0.068
	c0.041,0.016,0.083,0.032,0.124,0.048c0.039,0.016,0.078,0.031,0.118,0.046c0.073,0.028,0.146,0.057,0.22,0.086
	c0.016,0.006,0.033,0.012,0.049,0.019c0.076,0.029,0.153,0.059,0.231,0.09c0.024,0.009,0.048,0.018,0.071,0.027
	c0.059,0.022,0.119,0.046,0.178,0.069c0.058,0.022,0.115,0.044,0.175,0.067c1.019,0.395,2.142,0.827,3.313,1.274
	c0.002,0.001,0.006,0.002,0.008,0.003c0.117,0.045,0.236,0.09,0.355,0.135h0.001c0.113,0.043,0.228,0.086,0.341,0.13
	c0.018,0.006,0.035,0.013,0.054,0.02c0.106,0.041,0.214,0.081,0.321,0.121l0.028,0.011c0.117,0.044,0.234,0.088,0.351,0.132
	c0.002,0.001,0.004,0.002,0.006,0.002c0.117,0.044,0.233,0.089,0.351,0.133c0.011,0.004,0.022,0.008,0.033,0.012
	c0.108,0.04,0.216,0.081,0.325,0.122c0.018,0.008,0.037,0.015,0.055,0.021c0.105,0.039,0.211,0.078,0.316,0.117
	c0.018,0.007,0.037,0.014,0.055,0.021c0.104,0.039,0.206,0.077,0.309,0.115c0.022,0.009,0.045,0.017,0.067,0.026
	c0.103,0.038,0.205,0.076,0.307,0.114c0.022,0.008,0.044,0.016,0.064,0.023c0.098,0.036,0.196,0.073,0.293,0.109
	c0.028,0.011,0.058,0.021,0.088,0.032c0.094,0.035,0.188,0.07,0.283,0.105c0.028,0.01,0.056,0.02,0.084,0.031
	c0.095,0.035,0.188,0.069,0.284,0.104c0.028,0.011,0.059,0.022,0.089,0.033c0.093,0.034,0.186,0.068,0.278,0.102
	c0.029,0.011,0.06,0.021,0.088,0.032c0.093,0.034,0.185,0.067,0.276,0.101c0.031,0.011,0.062,0.022,0.093,0.034
	c0.088,0.032,0.176,0.063,0.264,0.096c0.035,0.013,0.07,0.025,0.104,0.038c0.086,0.032,0.173,0.062,0.259,0.093
	c0.033,0.013,0.068,0.024,0.103,0.037c0.087,0.031,0.174,0.063,0.261,0.095c0.033,0.011,0.066,0.022,0.1,0.035
	c0.08,0.028,0.158,0.057,0.237,0.085c0.042,0.015,0.083,0.029,0.124,0.045c0.08,0.028,0.158,0.056,0.237,0.084
	c0.037,0.013,0.075,0.027,0.112,0.04c0.088,0.03,0.176,0.062,0.264,0.093c0.027,0.01,0.054,0.02,0.08,0.029
	c0.084,0.029,0.166,0.058,0.249,0.087c0.034,0.012,0.069,0.024,0.104,0.036c0.07,0.025,0.142,0.05,0.213,0.075
	c0.043,0.015,0.086,0.029,0.129,0.044c0.074,0.026,0.147,0.052,0.22,0.076c0.038,0.014,0.075,0.027,0.114,0.04
	c0.068,0.024,0.138,0.048,0.205,0.071c0.043,0.015,0.086,0.029,0.129,0.044c0.065,0.022,0.129,0.044,0.192,0.065
	c0.044,0.016,0.088,0.03,0.132,0.045c0.065,0.022,0.131,0.045,0.195,0.066c0.042,0.014,0.084,0.028,0.125,0.042
	c0.105,0.035,0.209,0.07,0.313,0.104c0.203,0.068,0.4,0.142,0.592,0.222c0.004,0.002,0.007,0.003,0.01,0.004
	c0.188,0.079,0.37,0.164,0.547,0.253c0.006,0.004,0.012,0.007,0.02,0.01c0.173,0.089,0.341,0.183,0.504,0.28
	c0.008,0.005,0.016,0.009,0.023,0.015c0.161,0.097,0.315,0.199,0.467,0.305c0.008,0.007,0.019,0.013,0.027,0.02
	c0.148,0.105,0.291,0.215,0.43,0.327c0.01,0.009,0.021,0.017,0.03,0.025c0.138,0.112,0.269,0.229,0.396,0.348
	c0.011,0.009,0.021,0.019,0.031,0.028c0.127,0.119,0.248,0.242,0.366,0.367c0.011,0.01,0.019,0.02,0.028,0.029
	c0.117,0.127,0.23,0.256,0.341,0.388c0.008,0.009,0.017,0.018,0.024,0.027c0.108,0.134,0.214,0.269,0.315,0.405
	c0.007,0.009,0.013,0.018,0.019,0.025c0.103,0.14,0.201,0.281,0.295,0.424c0.004,0.006,0.008,0.013,0.013,0.019
	c0.095,0.146,0.187,0.293,0.274,0.442c0.002,0.004,0.004,0.007,0.006,0.01c0.99,1.69,1.387,3.539,1.619,4.936v8.1H74.49V111.297z"/>
<path fill="#F8D012" d="M133.941,107.549l-37.17-26.486l3.859-6.159l9.966,7.833l23.361,15.825l0.64,0.433
	c0,0,2.438,0.944,5.774,2.193l0.007,0.027L133.941,107.549z"/>
<path fill="#F8D012" d="M132.111,96.635c0.482,0.193,11.268,4.497,17.798,6.674c3.301,1.101,4.969,3.829,5.813,6.311h-33.119
	L132.111,96.635z"/>
<polygon fill="#191818" points="110.733,81.86 104.785,87.122 107.783,79.768 "/>
<polygon fill="#191818" points="116.33,85.848 110.382,91.109 113.38,83.756 "/>
<line fill="none" stroke="#191818" stroke-width="1.839" stroke-miterlimit="10" x1="155.723" y1="110.309" x2="74.489" y2="110.309"/>
<polygon fill="#191818" points="121.927,89.835 115.979,95.097 118.977,87.743 "/>
<polygon fill="#191818" points="127.523,93.822 121.576,99.085 124.574,91.73 "/>
<polygon fill="#191818" points="133.121,97.81 127.173,103.072 130.171,95.719 "/>
<polygon fill="#F8D012" points="89.351,86.104 105.145,94.154 100.924,97.448 108.358,105.231 92.563,97.183 96.785,93.888 "/>
<path fill="#F8D012" d="M76.073,93.614l-0.942,16.018h17.063C91.347,101.146,84.573,94.408,76.073,93.614"/>
<path fill="none" stroke="#191818" stroke-width="3.679" stroke-miterlimit="10" d="M74.49,111.297l0.138-4.397l0.873-13.101
	l0.319-4.773l0.445-6.681l0.148-2.228h20.045c0-4.455,4.454-6.682,4.454-6.682l1.96,1.47l1.604,1.203l0.712,0.534l3.341,2.505
	l22.969,16.145l0.594,0.416c0,0,0.496,0.197,1.341,0.531c0.003,0.001,0.006,0.002,0.009,0.003c0.047,0.019,0.094,0.037,0.141,0.057
	c0.021,0.008,0.043,0.017,0.063,0.024c0.045,0.019,0.091,0.036,0.138,0.054c0.012,0.005,0.023,0.009,0.035,0.014
	c0.051,0.02,0.103,0.041,0.155,0.061c0.019,0.008,0.037,0.016,0.056,0.022c0.051,0.02,0.103,0.04,0.155,0.061
	c0.009,0.005,0.019,0.007,0.027,0.011c0.084,0.033,0.17,0.067,0.257,0.101c0.048,0.019,0.096,0.038,0.145,0.057
	c0.047,0.018,0.096,0.037,0.143,0.056c0.029,0.011,0.059,0.022,0.09,0.035c0.052,0.02,0.105,0.041,0.158,0.062
	c0.027,0.011,0.056,0.022,0.084,0.033c0.048,0.019,0.098,0.038,0.146,0.057c0.039,0.015,0.077,0.03,0.116,0.046
	c0.048,0.02,0.099,0.038,0.147,0.058c0.029,0.012,0.061,0.023,0.092,0.036c0.057,0.022,0.115,0.045,0.173,0.068
	c0.041,0.016,0.083,0.032,0.124,0.048c0.039,0.016,0.078,0.031,0.118,0.046c0.073,0.028,0.146,0.057,0.22,0.086
	c0.016,0.006,0.033,0.012,0.049,0.019c0.076,0.029,0.153,0.059,0.231,0.09c0.024,0.009,0.048,0.018,0.071,0.027
	c0.059,0.022,0.119,0.046,0.178,0.069c0.058,0.022,0.115,0.044,0.175,0.067c1.019,0.395,2.142,0.827,3.313,1.274
	c0.002,0.001,0.006,0.002,0.008,0.003c0.117,0.045,0.236,0.09,0.355,0.135h0.001c0.113,0.043,0.228,0.086,0.341,0.13
	c0.018,0.006,0.035,0.013,0.054,0.02c0.106,0.041,0.214,0.081,0.321,0.121l0.028,0.011c0.117,0.044,0.234,0.088,0.351,0.132
	c0.002,0.001,0.004,0.002,0.006,0.002c0.117,0.044,0.233,0.089,0.351,0.133c0.011,0.004,0.022,0.008,0.033,0.012
	c0.108,0.04,0.216,0.081,0.325,0.122c0.018,0.008,0.037,0.015,0.055,0.021c0.105,0.039,0.211,0.078,0.316,0.117
	c0.018,0.007,0.037,0.014,0.055,0.021c0.104,0.039,0.206,0.077,0.309,0.115c0.022,0.009,0.045,0.017,0.067,0.026
	c0.103,0.038,0.205,0.076,0.307,0.114c0.022,0.008,0.044,0.016,0.064,0.023c0.098,0.036,0.196,0.073,0.293,0.109
	c0.028,0.011,0.058,0.021,0.088,0.032c0.094,0.035,0.188,0.07,0.283,0.105c0.028,0.01,0.056,0.02,0.084,0.031
	c0.095,0.035,0.188,0.069,0.284,0.104c0.028,0.011,0.059,0.022,0.089,0.033c0.093,0.034,0.186,0.068,0.278,0.102
	c0.029,0.011,0.06,0.021,0.088,0.032c0.093,0.034,0.185,0.067,0.276,0.101c0.031,0.011,0.062,0.022,0.093,0.034
	c0.088,0.032,0.176,0.063,0.264,0.096c0.035,0.013,0.07,0.025,0.104,0.038c0.086,0.032,0.173,0.062,0.259,0.093
	c0.033,0.013,0.068,0.024,0.103,0.037c0.087,0.031,0.174,0.063,0.261,0.095c0.033,0.011,0.066,0.022,0.1,0.035
	c0.08,0.028,0.158,0.057,0.237,0.085c0.042,0.015,0.083,0.029,0.124,0.045c0.08,0.028,0.158,0.056,0.237,0.084
	c0.037,0.013,0.075,0.027,0.112,0.04c0.088,0.03,0.176,0.062,0.264,0.093c0.027,0.01,0.054,0.02,0.08,0.029
	c0.084,0.029,0.166,0.058,0.249,0.087c0.034,0.012,0.069,0.024,0.104,0.036c0.07,0.025,0.142,0.05,0.213,0.075
	c0.043,0.015,0.086,0.029,0.129,0.044c0.074,0.026,0.147,0.052,0.22,0.076c0.038,0.014,0.075,0.027,0.114,0.04
	c0.068,0.024,0.138,0.048,0.205,0.071c0.043,0.015,0.086,0.029,0.129,0.044c0.065,0.022,0.129,0.044,0.192,0.065
	c0.044,0.016,0.088,0.03,0.132,0.045c0.065,0.022,0.131,0.045,0.195,0.066c0.042,0.014,0.084,0.028,0.125,0.042
	c0.105,0.035,0.209,0.07,0.313,0.104c0.203,0.068,0.4,0.142,0.592,0.222c0.004,0.002,0.007,0.003,0.01,0.004
	c0.188,0.079,0.37,0.164,0.547,0.253c0.006,0.004,0.012,0.007,0.02,0.01c0.173,0.089,0.341,0.183,0.504,0.28
	c0.008,0.005,0.016,0.009,0.023,0.015c0.161,0.097,0.315,0.199,0.467,0.305c0.008,0.007,0.019,0.013,0.027,0.02
	c0.148,0.105,0.291,0.215,0.43,0.327c0.01,0.009,0.021,0.017,0.03,0.025c0.138,0.112,0.269,0.229,0.396,0.348
	c0.011,0.009,0.021,0.019,0.031,0.028c0.127,0.119,0.248,0.242,0.366,0.367c0.011,0.01,0.019,0.02,0.028,0.029
	c0.117,0.127,0.23,0.256,0.341,0.388c0.008,0.009,0.017,0.018,0.024,0.027c0.108,0.134,0.214,0.269,0.315,0.405
	c0.007,0.009,0.013,0.018,0.019,0.025c0.103,0.14,0.201,0.281,0.295,0.424c0.004,0.006,0.008,0.013,0.013,0.019
	c0.095,0.146,0.187,0.293,0.274,0.442c0.002,0.004,0.004,0.007,0.006,0.01c0.99,1.69,1.387,3.539,1.619,4.936v8.1H74.49V111.297z"/>
<path fill="#FFFFFF" d="M93.527,46.227v-3.251c7.346-7.135,8.881-8.73,8.881-11.019c0-1.535-1.174-2.529-2.68-2.529
	c-1.776,0-3.19,0.813-4.274,2.258l-2.408-2.528c1.625-2.168,4.003-3.312,6.743-3.312c3.884,0,6.714,2.348,6.714,6.081
	c0,3.041-2.048,5.63-7.015,10.748h7.104v3.552H93.527z"/>
<path fill="#FFFFFF" d="M108.729,43.427l2.438-2.589c1.054,1.384,2.469,2.168,4.185,2.168c1.927,0,3.04-1.476,3.04-3.162
	c0-1.987-1.053-3.161-2.859-3.161c-1.354,0-2.379,0.481-3.312,1.655l-2.921-0.782v-11.41h12.042v3.553h-8.008v5.148
	c0.784-0.963,2.138-1.656,3.673-1.656c3.041,0,5.48,2.378,5.48,6.533c0,4.034-2.739,6.864-7.015,6.864
	C112.372,46.588,110.233,45.444,108.729,43.427"/>
<polygon fill="#FFFFFF" points="135.008,46.227 130.371,38.369 128.957,40.598 128.957,46.227 124.923,46.227 124.923,26.146 
	128.957,26.146 128.957,35.269 134.617,26.146 139.313,26.146 132.902,35.6 139.765,46.227 "/>
<polygon fill="#FFFFFF" points="88.728,32.738 81.268,31.607 77.948,24.51 74.628,31.607 67.169,32.738 72.558,38.272 
	71.211,46.067 77.948,42.387 84.685,46.067 83.338,38.272 "/>
<polygon fill="#FFFFFF" points="168.395,32.738 160.936,31.607 157.615,24.51 154.295,31.607 146.836,32.738 152.226,38.272 
	150.878,46.067 157.615,42.387 164.352,46.067 163.005,38.272 "/>
</svg>
