<?xml version="1.0" encoding="utf-8"?>
<!-- Generator: Adobe Illustrator 16.0.0, SVG Export Plug-In . SVG Version: 6.00 Build 0)  -->
<!DOCTYPE svg PUBLIC "-//W3C//DTD SVG 1.1//EN" "http://www.w3.org/Graphics/SVG/1.1/DTD/svg11.dtd">
<svg version="1.1" id="Layer_1" xmlns="http://www.w3.org/2000/svg" xmlns:xlink="http://www.w3.org/1999/xlink" x="0px" y="0px"
	 width="240px" height="200px" viewBox="0 0 240 200" enable-background="new 0 0 240 200" xml:space="preserve">
<path fill="#FECF0A" d="M52.388,47.584v20.302v49.78c0,35.679,64.601,64.602,64.601,64.602s64.6-28.923,64.6-64.602v-49.78V47.584
	H52.388z"/>
<g opacity="0.6">
	<g>
		<defs>
			<rect id="SVGID_1_" x="116.864" y="48.87" width="60.024" height="127.57"/>
		</defs>
		<clipPath id="SVGID_2_">
			<use xlink:href="#SVGID_1_"  overflow="visible"/>
		</clipPath>
		<path clip-path="url(#SVGID_2_)" fill="#CDA72C" d="M116.992,176.441c5.59-2.753,17.62-9.048,29.468-17.652
			c9.19-6.674,16.454-13.391,21.588-19.967c5.866-7.513,8.841-14.722,8.841-21.426V70.172V48.867h-60.025v127.511
			C116.906,176.398,116.951,176.422,116.992,176.441"/>
	</g>
</g>
<g opacity="0.4">
	<g>
		<defs>
			<rect id="SVGID_3_" x="52.388" y="45.07" width="129.201" height="137.199"/>
		</defs>
		<clipPath id="SVGID_4_">
			<use xlink:href="#SVGID_3_"  overflow="visible"/>
		</clipPath>
		<path clip-path="url(#SVGID_4_)" fill="#FFFFFF" d="M167.791,58.872v9.014v49.781c0,18.229-31.246,39.336-50.802,49.295
			c-19.566-9.964-50.804-31.068-50.804-49.295V67.886v-9.014H167.791 M181.589,45.075H52.388v22.811v49.781
			c0,35.677,64.601,64.601,64.601,64.601s64.6-28.924,64.6-64.601V67.886V45.075z"/>
	</g>
</g>
<path fill="#1A1A19" d="M174.063,52.6v15.286v49.781c0,8.39-5.03,22.042-28.997,39.445c-11.291,8.198-22.754,14.197-28.081,16.821
	c-5.288-2.603-16.619-8.528-27.885-16.684c-24.124-17.462-29.188-31.164-29.188-39.583V67.886V52.6H174.063 M181.589,45.075H52.388
	v22.811v49.781c0,35.677,64.601,64.601,64.601,64.601s64.6-28.924,64.6-64.601V67.886V45.075z"/>
<path fill="#1A1A19" d="M57.409,28.451c-2.741,0.319-4.983,2.84-4.983,5.599v25.574c0,2.76,2.258,5.018,5.017,5.018h119.09
	c2.76,0,5.017-2.258,5.017-5.018V34.05c0-2.759-2.241-5.278-4.983-5.597l-54.713-6.366c-2.742-0.319-7.226-0.318-9.967,0.002
	L57.409,28.451z"/>
<g opacity="0.6">
	<g>
		<defs>
			<rect id="SVGID_5_" x="55.046" y="128.71" width="123.886" height="53.43"/>
		</defs>
		<clipPath id="SVGID_6_">
			<use xlink:href="#SVGID_5_"  overflow="visible"/>
		</clipPath>
		<path clip-path="url(#SVGID_6_)" fill="#CDA72C" d="M55.046,128.705c10.273,30.301,61.943,53.435,61.943,53.435
			s51.669-23.134,61.942-53.435H55.046z"/>
	</g>
</g>
<path fill="#FFFFFF" d="M74.686,120.297l0.138-4.397l0.873-13.101l0.319-4.773l0.445-6.681l0.148-2.228h20.045
	c0-4.455,4.454-6.682,4.454-6.682l1.96,1.47l1.604,1.203l0.712,0.534l3.341,2.505l22.97,16.145l0.593,0.416
	c0,0,0.495,0.197,1.341,0.531c0.003,0.001,0.006,0.002,0.009,0.003c0.046,0.019,0.093,0.037,0.142,0.057
	c0.021,0.008,0.041,0.017,0.063,0.024c0.045,0.019,0.09,0.036,0.137,0.054c0.012,0.006,0.024,0.01,0.036,0.015
	c0.052,0.02,0.103,0.041,0.155,0.061c0.018,0.008,0.037,0.016,0.055,0.022c0.051,0.02,0.104,0.04,0.156,0.061
	c0.009,0.005,0.018,0.008,0.027,0.012c0.084,0.033,0.17,0.066,0.257,0.101c0.048,0.019,0.096,0.038,0.146,0.058
	c0.047,0.018,0.094,0.036,0.142,0.056c0.03,0.011,0.059,0.022,0.09,0.034c0.052,0.021,0.104,0.041,0.157,0.063
	c0.029,0.011,0.057,0.021,0.084,0.033c0.049,0.019,0.099,0.038,0.147,0.057c0.039,0.016,0.077,0.03,0.116,0.046
	c0.048,0.02,0.098,0.038,0.146,0.058c0.03,0.012,0.062,0.023,0.093,0.035c0.057,0.022,0.114,0.046,0.173,0.068
	c0.041,0.016,0.083,0.032,0.124,0.048c0.039,0.016,0.078,0.031,0.118,0.046c0.072,0.028,0.146,0.058,0.22,0.086
	c0.017,0.007,0.033,0.013,0.049,0.02c0.076,0.029,0.153,0.059,0.231,0.09c0.023,0.009,0.048,0.018,0.072,0.027
	c0.058,0.022,0.117,0.046,0.176,0.069c0.059,0.022,0.117,0.044,0.176,0.067c1.018,0.395,2.141,0.827,3.314,1.274
	c0.002,0.001,0.004,0.002,0.006,0.003c0.119,0.045,0.237,0.09,0.356,0.135h0.001c0.113,0.043,0.227,0.086,0.34,0.13
	c0.019,0.006,0.036,0.013,0.055,0.021c0.106,0.04,0.214,0.08,0.32,0.121c0.01,0.004,0.021,0.006,0.029,0.011
	c0.117,0.044,0.234,0.088,0.352,0.132c0,0.001,0.002,0.002,0.004,0.002c0.117,0.044,0.234,0.089,0.352,0.133
	c0.011,0.004,0.021,0.008,0.033,0.012c0.107,0.041,0.216,0.081,0.324,0.122c0.019,0.008,0.037,0.015,0.056,0.021
	c0.104,0.039,0.211,0.078,0.315,0.117c0.019,0.007,0.037,0.014,0.056,0.021c0.103,0.039,0.206,0.077,0.309,0.115
	c0.022,0.009,0.046,0.017,0.067,0.025c0.104,0.038,0.205,0.076,0.307,0.114c0.021,0.008,0.043,0.016,0.064,0.023
	c0.098,0.036,0.195,0.073,0.293,0.108c0.029,0.012,0.058,0.021,0.088,0.032c0.094,0.035,0.189,0.07,0.283,0.105
	c0.027,0.01,0.056,0.02,0.084,0.03c0.095,0.035,0.188,0.069,0.283,0.104c0.029,0.011,0.06,0.022,0.09,0.033
	c0.093,0.034,0.186,0.067,0.279,0.102c0.028,0.011,0.059,0.021,0.088,0.032c0.092,0.034,0.184,0.066,0.275,0.102
	c0.031,0.011,0.063,0.021,0.094,0.033c0.088,0.032,0.174,0.063,0.262,0.096c0.035,0.013,0.07,0.025,0.105,0.037
	c0.086,0.032,0.172,0.063,0.258,0.094c0.034,0.013,0.069,0.024,0.104,0.037c0.087,0.031,0.174,0.063,0.261,0.095
	c0.033,0.011,0.065,0.022,0.099,0.035c0.08,0.028,0.159,0.057,0.238,0.085c0.042,0.015,0.083,0.029,0.124,0.045
	c0.08,0.028,0.158,0.056,0.237,0.084c0.037,0.013,0.074,0.027,0.111,0.04c0.088,0.03,0.178,0.062,0.265,0.093
	c0.026,0.01,0.054,0.02,0.08,0.029c0.084,0.029,0.166,0.058,0.249,0.087c0.035,0.012,0.068,0.024,0.104,0.036
	c0.071,0.025,0.143,0.05,0.213,0.075c0.043,0.015,0.088,0.029,0.131,0.044c0.073,0.026,0.146,0.052,0.219,0.076
	c0.037,0.014,0.076,0.027,0.113,0.04c0.069,0.024,0.139,0.048,0.207,0.071c0.043,0.015,0.086,0.029,0.129,0.044
	c0.064,0.022,0.127,0.044,0.191,0.065c0.044,0.016,0.088,0.03,0.132,0.045c0.065,0.022,0.13,0.045,0.195,0.066
	c0.042,0.014,0.084,0.028,0.125,0.042c0.104,0.035,0.209,0.07,0.312,0.104c0.203,0.068,0.401,0.142,0.592,0.222
	c0.005,0.002,0.008,0.003,0.011,0.004c0.188,0.079,0.37,0.164,0.547,0.253c0.006,0.004,0.013,0.007,0.019,0.01
	c0.174,0.089,0.342,0.183,0.504,0.28c0.009,0.005,0.017,0.009,0.024,0.015c0.161,0.097,0.315,0.199,0.466,0.305
	c0.01,0.007,0.02,0.013,0.028,0.02c0.147,0.105,0.291,0.215,0.429,0.327c0.01,0.009,0.021,0.017,0.031,0.025
	c0.137,0.112,0.27,0.229,0.396,0.348c0.01,0.009,0.021,0.019,0.029,0.028c0.127,0.119,0.249,0.242,0.367,0.367
	c0.01,0.01,0.02,0.02,0.028,0.029c0.118,0.127,0.23,0.256,0.341,0.388c0.008,0.009,0.016,0.018,0.023,0.027
	c0.109,0.134,0.215,0.269,0.316,0.405c0.006,0.009,0.012,0.018,0.02,0.025c0.102,0.14,0.199,0.281,0.293,0.424
	c0.004,0.006,0.009,0.013,0.014,0.019c0.095,0.146,0.186,0.293,0.273,0.442c0.002,0.004,0.004,0.007,0.006,0.01
	c0.992,1.69,1.388,3.539,1.621,4.936v8.1H74.686V120.297z"/>
<path fill="#F8D012" d="M134.137,116.549l-37.17-26.486l3.859-6.159l9.966,7.833l23.361,15.825l0.64,0.433
	c0,0,2.438,0.944,5.773,2.193l0.008,0.027L134.137,116.549z"/>
<path fill="#F8D012" d="M132.307,105.635c0.483,0.193,11.269,4.497,17.799,6.674c3.301,1.101,4.969,3.829,5.813,6.311h-33.118
	L132.307,105.635z"/>
<polygon fill="#191818" points="110.929,90.86 104.981,96.122 107.979,88.768 "/>
<polygon fill="#191818" points="116.526,94.848 110.578,100.109 113.576,92.756 "/>
<line fill="none" stroke="#191818" stroke-width="1.839" stroke-miterlimit="10" x1="155.92" y1="119.309" x2="74.686" y2="119.309"/>
<polygon fill="#191818" points="122.123,98.835 116.175,104.098 119.173,96.743 "/>
<polygon fill="#191818" points="127.721,102.822 121.771,108.085 124.77,100.73 "/>
<polygon fill="#191818" points="133.316,106.811 127.369,112.072 130.367,104.719 "/>
<polygon fill="#F8D012" points="89.547,95.104 105.341,103.154 101.12,106.448 108.554,114.231 92.76,106.183 96.981,102.888 "/>
<path fill="#F8D012" d="M76.269,102.613l-0.942,16.019H92.39C91.543,110.146,84.769,103.408,76.269,102.613"/>
<path fill="none" stroke="#191818" stroke-width="3.679" stroke-miterlimit="10" d="M74.686,120.297l0.138-4.397l0.873-13.101
	l0.319-4.773l0.445-6.681l0.148-2.228h20.045c0-4.455,4.454-6.682,4.454-6.682l1.96,1.47l1.604,1.203l0.712,0.534l3.341,2.505
	l22.97,16.145l0.593,0.416c0,0,0.495,0.197,1.341,0.531c0.003,0.001,0.006,0.002,0.009,0.003c0.046,0.019,0.093,0.037,0.142,0.057
	c0.021,0.008,0.041,0.017,0.063,0.024c0.045,0.019,0.09,0.036,0.137,0.054c0.012,0.006,0.024,0.01,0.036,0.015
	c0.052,0.02,0.103,0.041,0.155,0.061c0.018,0.008,0.037,0.016,0.055,0.022c0.051,0.02,0.104,0.04,0.156,0.061
	c0.009,0.005,0.018,0.008,0.027,0.012c0.084,0.033,0.17,0.066,0.257,0.101c0.048,0.019,0.096,0.038,0.146,0.058
	c0.047,0.018,0.094,0.036,0.142,0.056c0.03,0.011,0.059,0.022,0.09,0.034c0.052,0.021,0.104,0.041,0.157,0.063
	c0.029,0.011,0.057,0.021,0.084,0.033c0.049,0.019,0.099,0.038,0.147,0.057c0.039,0.016,0.077,0.03,0.116,0.046
	c0.048,0.02,0.098,0.038,0.146,0.058c0.03,0.012,0.062,0.023,0.093,0.035c0.057,0.022,0.114,0.046,0.173,0.068
	c0.041,0.016,0.083,0.032,0.124,0.048c0.039,0.016,0.078,0.031,0.118,0.046c0.072,0.028,0.146,0.058,0.22,0.086
	c0.017,0.007,0.033,0.013,0.049,0.02c0.076,0.029,0.153,0.059,0.231,0.09c0.023,0.009,0.048,0.018,0.072,0.027
	c0.058,0.022,0.117,0.046,0.176,0.069c0.059,0.022,0.117,0.044,0.176,0.067c1.018,0.395,2.141,0.827,3.314,1.274
	c0.002,0.001,0.004,0.002,0.006,0.003c0.119,0.045,0.237,0.09,0.356,0.135h0.001c0.113,0.043,0.227,0.086,0.34,0.13
	c0.019,0.006,0.036,0.013,0.055,0.021c0.106,0.04,0.214,0.08,0.32,0.121c0.01,0.004,0.021,0.006,0.029,0.011
	c0.117,0.044,0.234,0.088,0.352,0.132c0,0.001,0.002,0.002,0.004,0.002c0.117,0.044,0.234,0.089,0.352,0.133
	c0.011,0.004,0.021,0.008,0.033,0.012c0.107,0.041,0.216,0.081,0.324,0.122c0.019,0.008,0.037,0.015,0.056,0.021
	c0.104,0.039,0.211,0.078,0.315,0.117c0.019,0.007,0.037,0.014,0.056,0.021c0.103,0.039,0.206,0.077,0.309,0.115
	c0.022,0.009,0.046,0.017,0.067,0.025c0.104,0.038,0.205,0.076,0.307,0.114c0.021,0.008,0.043,0.016,0.064,0.023
	c0.098,0.036,0.195,0.073,0.293,0.108c0.029,0.012,0.058,0.021,0.088,0.032c0.094,0.035,0.189,0.07,0.283,0.105
	c0.027,0.01,0.056,0.02,0.084,0.03c0.095,0.035,0.188,0.069,0.283,0.104c0.029,0.011,0.06,0.022,0.09,0.033
	c0.093,0.034,0.186,0.067,0.279,0.102c0.028,0.011,0.059,0.021,0.088,0.032c0.092,0.034,0.184,0.066,0.275,0.102
	c0.031,0.011,0.063,0.021,0.094,0.033c0.088,0.032,0.174,0.063,0.262,0.096c0.035,0.013,0.07,0.025,0.105,0.037
	c0.086,0.032,0.172,0.063,0.258,0.094c0.034,0.013,0.069,0.024,0.104,0.037c0.087,0.031,0.174,0.063,0.261,0.095
	c0.033,0.011,0.065,0.022,0.099,0.035c0.08,0.028,0.159,0.057,0.238,0.085c0.042,0.015,0.083,0.029,0.124,0.045
	c0.08,0.028,0.158,0.056,0.237,0.084c0.037,0.013,0.074,0.027,0.111,0.04c0.088,0.03,0.178,0.062,0.265,0.093
	c0.026,0.01,0.054,0.02,0.08,0.029c0.084,0.029,0.166,0.058,0.249,0.087c0.035,0.012,0.068,0.024,0.104,0.036
	c0.071,0.025,0.143,0.05,0.213,0.075c0.043,0.015,0.088,0.029,0.131,0.044c0.073,0.026,0.146,0.052,0.219,0.076
	c0.037,0.014,0.076,0.027,0.113,0.04c0.069,0.024,0.139,0.048,0.207,0.071c0.043,0.015,0.086,0.029,0.129,0.044
	c0.064,0.022,0.127,0.044,0.191,0.065c0.044,0.016,0.088,0.03,0.132,0.045c0.065,0.022,0.13,0.045,0.195,0.066
	c0.042,0.014,0.084,0.028,0.125,0.042c0.104,0.035,0.209,0.07,0.312,0.104c0.203,0.068,0.401,0.142,0.592,0.222
	c0.005,0.002,0.008,0.003,0.011,0.004c0.188,0.079,0.37,0.164,0.547,0.253c0.006,0.004,0.013,0.007,0.019,0.01
	c0.174,0.089,0.342,0.183,0.504,0.28c0.009,0.005,0.017,0.009,0.024,0.015c0.161,0.097,0.315,0.199,0.466,0.305
	c0.01,0.007,0.02,0.013,0.028,0.02c0.147,0.105,0.291,0.215,0.429,0.327c0.01,0.009,0.021,0.017,0.031,0.025
	c0.137,0.112,0.27,0.229,0.396,0.348c0.01,0.009,0.021,0.019,0.029,0.028c0.127,0.119,0.249,0.242,0.367,0.367
	c0.01,0.01,0.02,0.02,0.028,0.029c0.118,0.127,0.23,0.256,0.341,0.388c0.008,0.009,0.016,0.018,0.023,0.027
	c0.109,0.134,0.215,0.269,0.316,0.405c0.006,0.009,0.012,0.018,0.02,0.025c0.102,0.14,0.199,0.281,0.293,0.424
	c0.004,0.006,0.009,0.013,0.014,0.019c0.095,0.146,0.186,0.293,0.273,0.442c0.002,0.004,0.004,0.007,0.006,0.01
	c0.992,1.69,1.388,3.539,1.621,4.936v8.1H74.686V120.297z"/>
<polygon fill="#FFFFFF" points="99.97,55.227 99.97,40.354 96.929,43.516 94.611,41.077 100.512,35.146 104.034,35.146 
	104.034,55.227 "/>
<path fill="#FFFFFF" d="M106.47,45.202c0-5.179,2.138-10.356,7.105-10.356c4.998,0,7.105,5.177,7.105,10.356
	c0,5.147-2.077,10.386-7.105,10.386C108.608,55.588,106.47,50.35,106.47,45.202 M116.586,45.202c0-3.884-0.663-6.774-3.011-6.774
	c-2.318,0-2.98,2.891-2.98,6.774c0,3.854,0.662,6.804,2.98,6.804C115.923,52.006,116.586,49.056,116.586,45.202"/>
<polygon fill="#FFFFFF" points="133.232,55.227 128.596,47.369 127.182,49.598 127.182,55.227 123.147,55.227 123.147,35.146 
	127.182,35.146 127.182,44.269 132.84,35.146 137.537,35.146 131.125,44.6 137.988,55.227 "/>
<polygon fill="#FECF0A" points="86.094,43.606 74.354,46.315 63.518,43.606 63.518,37.284 74.354,39.994 86.094,37.284 "/>
<polygon fill="#FECF0A" points="86.094,52.637 74.354,55.346 63.518,52.637 63.518,46.314 74.354,49.024 86.094,46.314 "/>
<polygon fill="#FECF0A" points="170.459,43.606 158.719,46.315 147.883,43.606 147.883,37.284 158.719,39.994 170.459,37.284 "/>
<polygon fill="#FECF0A" points="170.459,52.637 158.719,55.346 147.883,52.637 147.883,46.314 158.719,49.024 170.459,46.314 "/>
</svg>
