<?xml version="1.0" encoding="utf-8"?>
<!-- Generator: Adobe Illustrator 16.0.0, SVG Export Plug-In . SVG Version: 6.00 Build 0)  -->
<!DOCTYPE svg PUBLIC "-//W3C//DTD SVG 1.1//EN" "http://www.w3.org/Graphics/SVG/1.1/DTD/svg11.dtd">
<svg version="1.1" id="Layer_1" xmlns="http://www.w3.org/2000/svg" xmlns:xlink="http://www.w3.org/1999/xlink" x="0px" y="0px"
	 width="612px" height="792px" viewBox="0 0 612 792" enable-background="new 0 0 612 792" xml:space="preserve">
<path fill="#FECF0A" d="M243.439,333.997v19.671V401.9c0,34.568,62.592,62.592,62.592,62.592s62.592-28.023,62.592-62.592v-48.232
	v-19.671H243.439z"/>
<g opacity="0.6">
	<g>
		<defs>
			<rect id="SVGID_1_" x="305.91" y="333.19" width="60.02" height="127.57"/>
		</defs>
		<clipPath id="SVGID_2_">
			<use xlink:href="#SVGID_1_"  overflow="visible"/>
		</clipPath>
		<path clip-path="url(#SVGID_2_)" fill="#CDA72C" d="M306.034,460.76c5.59-2.752,17.619-9.047,29.468-17.651
			c9.191-6.673,16.454-13.392,21.588-19.966c5.866-7.514,8.842-14.723,8.842-21.428v-47.224v-21.305h-60.025v127.511
			C305.948,460.719,305.993,460.74,306.034,460.76"/>
	</g>
</g>
<g opacity="0.4">
	<g>
		<defs>
			<rect id="SVGID_3_" x="241.43" y="329.39" width="129.2" height="137.2"/>
		</defs>
		<clipPath id="SVGID_4_">
			<use xlink:href="#SVGID_3_"  overflow="visible"/>
		</clipPath>
		<path clip-path="url(#SVGID_4_)" fill="#FFFFFF" d="M356.834,343.19v9.015v49.781c0,18.215-31.199,39.305-50.76,49.273
			c-5.696-2.924-14.984-8.061-24.254-14.771c-17.149-12.413-26.593-24.667-26.593-34.503v-49.781v-9.015H356.834 M370.631,329.395
			H241.43v22.811v49.781c0,35.677,64.6,64.6,64.6,64.6s64.601-28.923,64.601-64.6v-49.781V329.395z"/>
	</g>
</g>
<path fill="#1A1A19" d="M363.106,336.919v15.286v49.781c0,8.389-5.031,22.042-28.997,39.445
	c-11.291,8.199-22.754,14.197-28.081,16.82c-5.288-2.602-16.619-8.527-27.885-16.683c-24.124-17.462-29.188-31.164-29.188-39.583
	v-49.781v-15.286H363.106 M370.631,329.395H241.43v22.811v49.781c0,35.677,64.6,64.6,64.6,64.6s64.601-28.923,64.601-64.6v-49.781
	V329.395z"/>
<path fill="#1A1A19" d="M246.448,312.77c-2.741,0.32-4.983,2.84-4.983,5.599v25.574c0,2.76,2.258,5.017,5.017,5.017h119.09
	c2.76,0,5.017-2.257,5.017-5.017v-25.574c0-2.759-2.242-5.278-4.983-5.597l-54.714-6.366c-2.741-0.319-7.225-0.318-9.966,0.002
	L246.448,312.77z"/>
<path fill="#FFFFFF" d="M282.596,335.745l2.438-2.589c1.054,1.385,2.469,2.168,4.186,2.168c1.926,0,3.04-1.475,3.04-3.162
	c0-1.986-1.054-3.161-2.86-3.161c-1.354,0-2.378,0.482-3.312,1.656l-2.92-0.783v-11.409h12.042v3.551h-8.008v5.149
	c0.783-0.963,2.138-1.656,3.673-1.656c3.041,0,5.479,2.379,5.479,6.533c0,4.034-2.739,6.864-7.014,6.864
	C286.238,338.906,284.101,337.763,282.596,335.745"/>
<path fill="#FFFFFF" d="M297.977,328.52c0-5.178,2.137-10.355,7.105-10.355c4.998,0,7.105,5.178,7.105,10.355
	c0,5.148-2.077,10.388-7.105,10.388C300.114,338.907,297.977,333.668,297.977,328.52 M308.094,328.52
	c0-3.883-0.664-6.772-3.012-6.772c-2.318,0-2.98,2.89-2.98,6.772c0,3.854,0.662,6.805,2.98,6.805
	C307.43,335.324,308.094,332.374,308.094,328.52"/>
<polygon fill="#FFFFFF" points="324.738,338.545 320.103,330.688 318.688,332.915 318.688,338.545 314.653,338.545 314.653,318.465 
	318.688,318.465 318.688,327.587 324.348,318.465 329.044,318.465 322.632,327.918 329.496,338.545 "/>
<path fill="#FFFFFF" d="M339.955,406.808c0,9.819-7.96,17.779-17.779,17.779h-32.395c-9.819,0-17.779-7.96-17.779-17.779v-22.593
	c0-9.819,7.96-17.779,17.779-17.779h32.395c9.819,0,17.779,7.96,17.779,17.779V406.808z"/>
<path fill="#231F20" d="M322.176,426.594h-32.395c-10.91,0-19.786-8.877-19.786-19.786v-22.593c0-10.91,8.876-19.786,19.786-19.786
	h32.395c10.91,0,19.786,8.876,19.786,19.786v22.593C341.962,417.717,333.086,426.594,322.176,426.594 M289.781,368.442
	c-8.697,0-15.772,7.076-15.772,15.772v22.593c0,8.696,7.075,15.772,15.772,15.772h32.395c8.697,0,15.771-7.076,15.771-15.772
	v-22.593c0-8.696-7.074-15.772-15.771-15.772H289.781z"/>
<path fill="#FECF0A" d="M331.73,399.66c0,7.602-6.163,13.766-13.765,13.766l-37.74-13.766v-12.219
	c0-7.602,6.163-13.765,13.765-13.765h23.976c7.602,0,13.765,6.163,13.765,13.765V399.66z"/>
<g opacity="0.6">
	<g>
		<defs>
			<rect id="SVGID_5_" x="288.5" y="381.43" width="35.51" height="16.311"/>
		</defs>
		<clipPath id="SVGID_6_">
			<use xlink:href="#SVGID_5_"  overflow="visible"/>
		</clipPath>
		<rect x="288.499" y="381.431" clip-path="url(#SVGID_6_)" fill="#CDA72C" width="35.516" height="16.311"/>
	</g>
</g>
<path fill="#FECF0A" d="M290.416,409.572c0,2.129-1.725,3.854-3.853,3.854c-2.127,0-3.852-1.725-3.852-3.854
	c0-2.128,1.725-3.853,3.852-3.853C288.69,405.72,290.416,407.444,290.416,409.572"/>
<path fill="#FECF0A" d="M298.097,410.878c0,1.407-1.14,2.547-2.547,2.547c-1.407,0-2.548-1.14-2.548-2.547s1.141-2.547,2.548-2.547
	C296.957,408.331,298.097,409.471,298.097,410.878"/>
<path fill="#191818" d="M290.004,364.828v-2.978c0-1.386,1.123-2.509,2.509-2.509h26.696c1.386,0,2.509,1.123,2.509,2.509v2.978
	H290.004z"/>
<path fill="#191818" d="M290.004,426.066v2.979c0,1.386,1.123,2.509,2.509,2.509h26.696c1.386,0,2.509-1.123,2.509-2.509v-2.979
	H290.004z"/>
<path fill="#1A1A19" d="M327.248,458.896c-10.387,6.446-19.063,10.539-20.966,11.416c-1.905-0.877-10.58-4.97-20.967-11.416v0.492
	c-0.003-0.002,0.004-0.005,0-0.007v15.052c11.415,7.013,20.568,11.111,20.568,11.111l0.399-0.001l0.399,0.001
	c0,0,9.152-4.099,20.567-11.111v-15.052c-0.004,0.002,0.004,0.005,0,0.007V458.896z"/>
<path fill="#1A1A19" d="M281.999,457.76c-9.748-6.171-20.759-14.313-29.014-23.745v15.052c8.118,9.568,19.145,17.857,29.014,24.17
	v-15.052c-0.004-0.002,0.003-0.005,0-0.007V457.76z"/>
<path fill="#1A1A19" d="M330.564,457.76v0.418c-0.004,0.002,0.003,0.005,0,0.007v15.052c9.869-6.313,20.895-14.602,29.014-24.17
	v-15.052C351.322,443.447,340.313,451.589,330.564,457.76"/>
<path fill="#010101" d="M380.646,432.621c-0.916-0.018-1.783-0.026-2.638,0.015c3.211-4.571,2.29-10.164,4.058-15.119l-0.017-0.22
	c-5.329,2.009-8.124,6.701-10.731,11.657c-1.86,3.593-3.683,7.274-6.339,9.994c1.109,0.08,2.153,0.229,3.234,0.388
	c1.122,0.164,2.274,0.387,3.435,0.692c2.307,0.136,4.581,0.238,6.732,0.167c4.035-0.171,7.795-0.854,11.037-2.605
	c1.501-0.799,2.902-1.85,4.131-3.161c-0.949-0.154-1.992-0.343-3.028-0.525C387.256,433.35,383.822,432.779,380.646,432.621"/>
<path fill="#010101" d="M393.646,414.79c-1.494-5.036-4.273-10.122-3.863-15.641l-0.144-0.22l-0.374,0.166
	c-0.045,0.035-0.097,0.107-0.102,0.144c-0.291,0.5-0.601,0.786-1.136,1.3c-3.805,6.707-3.229,14.78-1.274,21.92
	c0.319,1.176,0.652,2.295,1.062,3.426c3.423-2.677,7.645-3.359,11.443-5.307c0.341-0.207,0.676-0.37,1.028-0.582
	c3.66-2.641,5.887-7.007,6.843-11.183c-2.373,0.757-4.701,1.368-6.876,2.186C397.908,411.846,395.646,412.987,393.646,414.79"/>
<path fill="#010101" d="M217.562,391.902c0.117,1.752,0.691,3.561,0.63,5.436c-0.208,0.813-0.353,1.625-0.512,2.452
	c-0.499,2.185-1.119,4.204-2.547,5.305c-1.651-2.336-3.224-4.858-3.979-7.992c-0.23-2.088-0.104-4.092,0.351-6.048
	c0.698-3.078,2.195-5.974,4.379-8.6c0.069-0.091,0.125-0.13,0.158-0.197l0.408-0.073c-0.051,0.283-0.077,0.595-0.112,0.913
	C216.098,386.053,216.806,388.769,217.562,391.902"/>
<path fill="#010101" d="M395.393,391.902c-0.117,1.752-0.69,3.561-0.631,5.436c0.209,0.813,0.353,1.625,0.513,2.452
	c0.499,2.185,1.119,4.204,2.547,5.305c1.651-2.336,3.224-4.858,3.979-7.992c0.23-2.088,0.104-4.092-0.351-6.048
	c-0.698-3.078-2.195-5.974-4.379-8.6c-0.069-0.091-0.125-0.13-0.158-0.197l-0.408-0.073c0.052,0.283,0.077,0.595,0.112,0.913
	C396.856,386.053,396.148,388.769,395.393,391.902"/>
<path fill="#010101" d="M231.917,432.621c0.916-0.018,1.783-0.026,2.638,0.015c-3.211-4.571-2.29-10.164-4.058-15.119l0.017-0.22
	c5.329,2.009,8.124,6.701,10.731,11.657c1.862,3.593,3.683,7.274,6.339,9.994c-1.109,0.08-2.153,0.229-3.234,0.388
	c-1.122,0.164-2.275,0.387-3.436,0.692c-2.306,0.136-4.581,0.238-6.731,0.167c-4.035-0.171-7.795-0.854-11.037-2.605
	c-1.502-0.799-2.902-1.85-4.131-3.161c0.949-0.154,1.992-0.343,3.028-0.525C225.308,433.35,228.74,432.779,231.917,432.621"/>
<path fill="#010101" d="M218.917,414.79c1.494-5.036,4.274-10.122,3.864-15.641l0.143-0.22l0.374,0.166
	c0.045,0.035,0.097,0.107,0.101,0.144c0.292,0.5,0.601,0.786,1.136,1.3c3.805,6.707,3.23,14.78,1.275,21.92
	c-0.32,1.176-0.653,2.295-1.062,3.426c-3.423-2.677-7.644-3.359-11.443-5.307c-0.341-0.207-0.676-0.37-1.029-0.582
	c-3.66-2.641-5.886-7.007-6.842-11.183c2.373,0.757,4.701,1.368,6.876,2.186C214.655,411.846,216.918,412.987,218.917,414.79"/>
<polygon fill="#FFFFFF" points="277.228,325.558 269.77,324.427 266.448,317.329 263.128,324.427 255.669,325.558 261.058,331.092 
	259.711,338.887 266.448,335.206 273.185,338.887 271.838,331.092 "/>
<polygon fill="#FFFFFF" points="356.894,325.558 349.436,324.427 346.115,317.329 342.795,324.427 335.336,325.558 340.726,331.092 
	339.378,338.887 346.115,335.206 352.852,338.887 351.505,331.092 "/>
</svg>
