<?xml version="1.0" encoding="utf-8"?>
<!-- Generator: Adobe Illustrator 16.0.0, SVG Export Plug-In . SVG Version: 6.00 Build 0)  -->
<!DOCTYPE svg PUBLIC "-//W3C//DTD SVG 1.1//EN" "http://www.w3.org/Graphics/SVG/1.1/DTD/svg11.dtd">
<svg version="1.1" id="Layer_1" xmlns="http://www.w3.org/2000/svg" xmlns:xlink="http://www.w3.org/1999/xlink" x="0px" y="0px"
	 width="612px" height="792px" viewBox="0 0 612 792" enable-background="new 0 0 612 792" xml:space="preserve">
<path fill="#F26C7C" d="M243.363,343.381v19.761v48.456c0,34.727,62.88,62.879,62.88,62.879s62.88-28.152,62.88-62.879v-48.456
	v-19.761H243.363z"/>
<g opacity="0.6">
	<g>
		<defs>
			<rect id="SVGID_1_" x="306.118" y="342.87" width="60.026" height="127.569"/>
		</defs>
		<clipPath id="SVGID_2_">
			<use xlink:href="#SVGID_1_"  overflow="visible"/>
		</clipPath>
		<path clip-path="url(#SVGID_2_)" fill="#DF2E54" d="M306.247,470.444c5.589-2.753,17.619-9.048,29.468-17.651
			c9.191-6.674,16.453-13.392,21.588-19.967c5.865-7.514,8.841-14.723,8.841-21.427v-47.224v-21.305h-60.025v127.511
			C306.161,470.402,306.206,470.425,306.247,470.444"/>
	</g>
</g>
<g opacity="0.4">
	<g>
		<defs>
			<rect id="SVGID_3_" x="241.642" y="339.08" width="129.201" height="137.189"/>
		</defs>
		<clipPath id="SVGID_4_">
			<use xlink:href="#SVGID_3_"  overflow="visible"/>
		</clipPath>
		<path clip-path="url(#SVGID_4_)" fill="#FFFFFF" d="M357.047,352.875v9.015v49.78c0,18.229-31.246,39.338-50.804,49.296
			c-19.566-9.964-50.804-31.069-50.804-49.296v-49.78v-9.015H357.047 M370.844,339.078H241.643v22.812v49.78
			c0,35.679,64.601,64.601,64.601,64.601s64.601-28.922,64.601-64.601v-49.78V339.078z"/>
	</g>
</g>
<path fill="#1A1A19" d="M363.318,346.604v15.286v49.78c0,8.39-5.031,22.043-28.997,39.445
	c-11.291,8.199-22.754,14.197-28.081,16.821c-5.288-2.601-16.619-8.527-27.885-16.683c-24.124-17.463-29.188-31.164-29.188-39.584
	v-49.78v-15.286H363.318 M370.844,339.078H241.643v22.812v49.78c0,35.679,64.601,64.601,64.601,64.601s64.601-28.922,64.601-64.601
	v-49.78V339.078z"/>
<path fill="#1A1A19" d="M246.66,322.454c-2.741,0.32-4.983,2.84-4.983,5.6v25.574c0,2.76,2.258,5.017,5.017,5.017h119.09
	c2.76,0,5.017-2.257,5.017-5.017v-25.574c0-2.759-2.242-5.278-4.982-5.597l-54.715-6.366c-2.74-0.319-7.225-0.318-9.965,0.002
	L246.66,322.454z"/>
<path fill="#FFFFFF" d="M298.761,338.234c0-6.021,2.861-10.386,8.039-10.386c2.137,0,3.973,0.843,5.147,2.167l-1.957,3.011
	c-0.783-1.054-1.716-1.596-3.131-1.596c-2.439,0-4.004,2.8-4.004,5.991v0.361c0.752-1.384,2.378-2.558,4.275-2.558
	c3.011,0,5.63,2.258,5.63,6.533c0,3.883-2.65,6.834-6.594,6.834C300.838,348.591,298.761,343.804,298.761,338.234 M308.666,341.907
	c0-2.348-1.385-3.221-2.8-3.221c-1.294,0-2.318,0.903-3.01,2.047c0.15,1.896,0.843,4.274,3.071,4.274
	C307.763,345.008,308.666,343.412,308.666,341.907"/>
<path fill="#FFFFFF" d="M319.626,441.653c-17.018,7.085-36.556-0.967-43.641-17.985c-7.085-17.017,0.967-36.556,17.984-43.641
	c17.018-7.085,36.557,0.967,43.643,17.985C344.695,415.029,336.645,434.568,319.626,441.653"/>
<path fill="#191818" d="M306.29,386.641c0,0-0.002,0.021-0.004,0.054h0.01C306.292,386.661,306.29,386.641,306.29,386.641"/>
<path fill="#F26C7C" d="M335.402,394.726c-5.725-10.041-17.25-16.65-28.43-16.389l-0.292,3.321l0.786,29.624l32.283,0.335
	L335.402,394.726z"/>
<path fill="#191818" d="M306.293,386.667c0.002,0.015,0.537,0.026,1.196,0.026c0.657,0,1.192-0.561,1.192-1.254v-5.77
	c0-0.692-0.562-1.254-1.254-1.254h-1.637c-0.693,0-1.254,0.563-1.254,1.254v5.77c0,0.693,0.391,1.254,0.874,1.254
	s0.876-0.012,0.877-0.026S306.291,386.652,306.293,386.667"/>
<path fill="#191818" d="M339.471,412.095v-1.636c0-0.693-0.563-1.255-1.254-1.255h-5.687c-0.692,0-1.254,0.562-1.254,1.255v1.636
	c0,0.693,0.562,1.254,1.254,1.254h5.687C338.908,413.349,339.471,412.788,339.471,412.095"/>
<path fill="#191818" d="M273.748,410.458v1.637c0,0.692,0.562,1.255,1.254,1.255h5.519c0.693,0,1.254-0.563,1.254-1.255v-1.637
	c0-0.692-0.561-1.254-1.254-1.254h-5.519C274.31,409.204,273.748,409.766,273.748,410.458"/>
<path fill="#191818" d="M305.791,444.138h1.636c0.693,0,1.255-0.562,1.255-1.254v-5.436c0-0.692-0.562-1.254-1.255-1.254h-1.636
	c-0.693,0-1.254,0.562-1.254,1.254v5.436C304.537,443.576,305.098,444.138,305.791,444.138"/>
<g opacity="0.6">
	<g>
		<defs>
			<rect id="SVGID_5_" x="277.982" y="382.65" width="57.254" height="57.25"/>
		</defs>
		<clipPath id="SVGID_6_">
			<use xlink:href="#SVGID_5_"  overflow="visible"/>
		</clipPath>
		<path clip-path="url(#SVGID_6_)" fill="#DF2E54" d="M290.179,382.818c-0.6,0.346-0.805,1.113-0.459,1.713l2.849,4.935
			c0.346,0.6,1.115,0.808,1.717,0.466c0.602-0.343,0.81-1.107,0.463-1.707l-2.857-4.948
			C291.545,382.677,290.778,382.472,290.179,382.818"/>
		<path clip-path="url(#SVGID_6_)" fill="#DF2E54" d="M278.15,394.846c-0.346,0.601-0.141,1.367,0.459,1.713l4.868,2.811
			c0.599,0.346,1.363,0.139,1.705-0.464s0.133-1.371-0.467-1.719l-4.852-2.801C279.264,394.041,278.497,394.246,278.15,394.846"/>
		<path clip-path="url(#SVGID_6_)" fill="#DF2E54" d="M278.15,427.707c0.346,0.6,1.113,0.805,1.713,0.459l4.719-2.725
			c0.6-0.346,0.805-1.112,0.457-1.711c-0.348-0.6-1.117-0.805-1.717-0.458l-4.713,2.722
			C278.01,426.34,277.805,427.107,278.15,427.707"/>
		<path clip-path="url(#SVGID_6_)" fill="#DF2E54" d="M290.179,439.735c0.6,0.346,1.367,0.141,1.713-0.459l2.71-4.694
			c0.347-0.6,0.14-1.365-0.461-1.709c-0.601-0.345-1.369-0.137-1.716,0.463l-2.705,4.687
			C289.374,438.621,289.579,439.389,290.179,439.735"/>
		<path clip-path="url(#SVGID_6_)" fill="#DF2E54" d="M323.039,439.735c0.601-0.347,0.806-1.114,0.459-1.713l-2.744-4.755
			c-0.346-0.601-1.115-0.809-1.717-0.467c-0.603,0.344-0.81,1.107-0.463,1.707l2.752,4.769
			C321.673,439.876,322.439,440.081,323.039,439.735"/>
		<path clip-path="url(#SVGID_6_)" fill="#DF2E54" d="M335.067,427.707c0.347-0.6,0.142-1.367-0.459-1.713l-4.85-2.801
			c-0.601-0.346-1.364-0.139-1.706,0.464c-0.342,0.602-0.133,1.371,0.467,1.718l4.835,2.791
			C333.955,428.512,334.722,428.307,335.067,427.707"/>
		<path clip-path="url(#SVGID_6_)" fill="#DF2E54" d="M335.067,394.846c-0.346-0.6-1.112-0.805-1.713-0.459l-4.989,2.881
			c-0.601,0.347-0.805,1.113-0.457,1.713c0.349,0.598,1.116,0.803,1.717,0.457l4.983-2.878
			C335.209,396.213,335.414,395.446,335.067,394.846"/>
		<path clip-path="url(#SVGID_6_)" fill="#DF2E54" d="M323.039,382.818c-0.6-0.346-1.366-0.141-1.713,0.459l-2.896,5.017
			c-0.346,0.601-0.141,1.365,0.461,1.71c0.602,0.344,1.37,0.138,1.716-0.463l2.892-5.01
			C323.845,383.931,323.64,383.164,323.039,382.818"/>
	</g>
</g>
<path fill="#191818" d="M306.545,446.783c-14.366,0-27.217-8.57-32.739-21.833c-7.514-18.045,1.055-38.838,19.101-46.351
	c4.353-1.813,8.933-2.732,13.611-2.732c14.367,0,27.219,8.57,32.74,21.833c7.512,18.045-1.057,38.838-19.102,46.351
	C315.803,445.864,311.223,446.783,306.545,446.783 M306.518,380.012c-4.128,0-8.172,0.813-12.019,2.413
	c-15.935,6.634-23.502,24.997-16.867,40.933c4.876,11.713,16.225,19.281,28.913,19.281c4.128,0,8.172-0.813,12.018-2.414
	c15.936-6.634,23.502-24.996,16.869-40.932C330.555,387.58,319.205,380.012,306.518,380.012"/>
<path fill="#191818" d="M290.34,378.426c0,2.099-1.701,3.8-3.8,3.8c-2.098,0-3.799-1.702-3.799-3.8c0-2.098,1.701-3.8,3.799-3.8
	C288.64,374.626,290.34,376.328,290.34,378.426"/>
<path fill="#F26C7C" d="M313.229,371.491c0,3.711-3.008,6.719-6.719,6.719c-3.71,0-6.718-3.008-6.718-6.719s3.008-6.719,6.718-6.719
	C310.221,364.772,313.229,367.78,313.229,371.491"/>
<path fill="#191818" d="M306.701,379.515c-4.437,0-8.046-3.609-8.046-8.046c0-4.436,3.609-8.046,8.046-8.046
	c4.438,0,8.046,3.61,8.046,8.046C314.747,375.906,311.139,379.515,306.701,379.515 M306.701,367.567
	c-2.151,0-3.901,1.75-3.901,3.901c0,2.152,1.75,3.902,3.901,3.902c2.15,0,3.9-1.75,3.9-3.902
	C310.602,369.317,308.852,367.567,306.701,367.567"/>
<path fill="#191818" d="M320.325,379.168l2.587-3.061c0.895-1.058,2.479-1.19,3.536-0.296l12.03,10.171
	c1.058,0.894,1.191,2.477,0.296,3.535l-2.587,3.061L320.325,379.168z"/>
<path fill="#191818" d="M303.369,411.479c0.005,1.914,1.561,3.46,3.474,3.455c1.914-0.006,3.462-1.562,3.455-3.476
	c-0.005-1.912-3.355-15.377-3.355-15.377S303.364,409.566,303.369,411.479"/>
<path fill="#191818" d="M307.83,407.703c-1.913-0.023-3.484,1.508-3.508,3.42c-0.025,1.914,1.507,3.484,3.42,3.51
	c1.913,0.023,15.432-3.367,15.432-3.367S309.743,407.728,307.83,407.703"/>
<polygon fill="#F26C7C" points="280.862,335.458 269.123,338.167 258.286,335.458 258.286,329.136 269.123,331.846 280.862,329.136 
	"/>
<polygon fill="#F26C7C" points="280.862,344.488 269.123,347.197 258.286,344.488 258.286,338.167 269.123,340.876 280.862,338.167 
	"/>
<polygon fill="#676767" points="355.227,335.458 343.486,338.167 332.65,335.458 332.65,329.136 343.486,331.846 355.227,329.136 
	"/>
<polygon fill="#676767" points="355.227,344.488 343.486,347.197 332.65,344.488 332.65,338.167 343.486,340.876 355.227,338.167 
	"/>
</svg>
