<?xml version="1.0" encoding="utf-8"?>
<!-- Generator: Adobe Illustrator 16.0.0, SVG Export Plug-In . SVG Version: 6.00 Build 0)  -->
<!DOCTYPE svg PUBLIC "-//W3C//DTD SVG 1.1//EN" "http://www.w3.org/Graphics/SVG/1.1/DTD/svg11.dtd">
<svg version="1.1" id="Layer_1" xmlns="http://www.w3.org/2000/svg" xmlns:xlink="http://www.w3.org/1999/xlink" x="0px" y="0px"
	 width="612px" height="792px" viewBox="0 0 612 792" enable-background="new 0 0 612 792" xml:space="preserve">
<path fill="#FECF0A" d="M243.121,333.57v19.8v48.548c0,34.794,63.001,63.001,63.001,63.001s63.001-28.207,63.001-63.001V353.37
	v-19.8H243.121z"/>
<g opacity="0.6">
	<g>
		<defs>
			<rect id="SVGID_1_" x="306" y="333.19" width="60.02" height="127.57"/>
		</defs>
		<clipPath id="SVGID_2_">
			<use xlink:href="#SVGID_1_"  overflow="visible"/>
		</clipPath>
		<path clip-path="url(#SVGID_2_)" fill="#CDA72C" d="M306.125,460.76c5.589-2.752,17.619-9.047,29.468-17.651
			c9.19-6.673,16.453-13.392,21.588-19.966c5.865-7.514,8.841-14.723,8.841-21.428v-47.224v-21.305h-60.025v127.511
			C306.039,460.719,306.084,460.74,306.125,460.76"/>
	</g>
</g>
<g opacity="0.4">
	<g>
		<defs>
			<rect id="SVGID_3_" x="241.52" y="329.39" width="129.2" height="137.2"/>
		</defs>
		<clipPath id="SVGID_4_">
			<use xlink:href="#SVGID_3_"  overflow="visible"/>
		</clipPath>
		<path clip-path="url(#SVGID_4_)" fill="#FFFFFF" d="M356.926,343.19v9.015v49.781c0,18.215-31.201,39.305-50.761,49.273
			c-5.696-2.924-14.985-8.061-24.254-14.771c-17.149-12.413-26.594-24.667-26.594-34.503v-49.781v-9.015H356.926 M370.723,329.395
			H241.521v22.811v49.781c0,35.677,64.6,64.6,64.6,64.6s64.602-28.923,64.602-64.6v-49.781V329.395z"/>
	</g>
</g>
<path fill="#1A1A19" d="M363.197,336.919v15.286v49.781c0,8.389-5.031,22.042-28.997,39.445
	c-11.291,8.199-22.754,14.197-28.081,16.82c-5.288-2.602-16.619-8.527-27.885-16.683c-24.124-17.462-29.188-31.164-29.188-39.583
	v-49.781v-15.286H363.197 M370.723,329.395H241.521v22.811v49.781c0,35.677,64.6,64.6,64.6,64.6s64.602-28.923,64.602-64.6v-49.781
	V329.395z"/>
<path fill="#1A1A19" d="M246.539,312.77c-2.741,0.32-4.983,2.84-4.983,5.599v25.574c0,2.76,2.258,5.017,5.017,5.017h119.089
	c2.761,0,5.018-2.257,5.018-5.017v-25.574c0-2.759-2.242-5.278-4.982-5.597l-54.715-6.366c-2.74-0.319-7.225-0.318-9.966,0.002
	L246.539,312.77z"/>
<path fill="#FFFFFF" d="M282.958,338.545v-3.251c7.346-7.136,8.881-8.73,8.881-11.019c0-1.536-1.174-2.529-2.68-2.529
	c-1.776,0-3.191,0.813-4.274,2.258l-2.409-2.529c1.626-2.167,4.004-3.313,6.744-3.313c3.884,0,6.713,2.349,6.713,6.082
	c0,3.04-2.047,5.63-7.015,10.747h7.105v3.553H282.958z"/>
<path fill="#FFFFFF" d="M297.979,328.52c0-5.178,2.137-10.355,7.104-10.355c4.998,0,7.105,5.178,7.105,10.355
	c0,5.148-2.077,10.388-7.105,10.388C300.115,338.907,297.979,333.668,297.979,328.52 M308.094,328.52
	c0-3.883-0.662-6.772-3.012-6.772c-2.318,0-2.979,2.89-2.979,6.772c0,3.854,0.662,6.805,2.979,6.805
	C307.432,335.324,308.094,332.374,308.094,328.52"/>
<polygon fill="#FFFFFF" points="324.739,338.545 320.104,330.688 318.688,332.915 318.688,338.545 314.654,338.545 314.654,318.465 
	318.688,318.465 318.688,327.587 324.348,318.465 329.045,318.465 322.633,327.918 329.495,338.545 "/>
<path fill="#FFFFFF" d="M340.046,406.808c0,9.819-7.96,17.779-17.778,17.779h-32.396c-9.819,0-17.779-7.96-17.779-17.779v-22.593
	c0-9.819,7.96-17.779,17.779-17.779h32.396c9.818,0,17.778,7.96,17.778,17.779V406.808z"/>
<path fill="#231F20" d="M322.267,426.594h-32.395c-10.91,0-19.786-8.877-19.786-19.786v-22.593c0-10.91,8.876-19.786,19.786-19.786
	h32.395c10.91,0,19.786,8.876,19.786,19.786v22.593C342.053,417.717,333.177,426.594,322.267,426.594 M289.872,368.442
	c-8.697,0-15.772,7.076-15.772,15.772v22.593c0,8.696,7.075,15.772,15.772,15.772h32.395c8.697,0,15.772-7.076,15.772-15.772
	v-22.593c0-8.696-7.075-15.772-15.772-15.772H289.872z"/>
<path fill="#FECF0A" d="M331.822,399.66c0,7.602-6.164,13.766-13.766,13.766l-37.74-13.766v-12.219
	c0-7.602,6.163-13.765,13.765-13.765h23.975c7.602,0,13.766,6.163,13.766,13.765V399.66z"/>
<g opacity="0.6">
	<g>
		<defs>
			<rect id="SVGID_5_" x="288.59" y="381.43" width="35.52" height="16.311"/>
		</defs>
		<clipPath id="SVGID_6_">
			<use xlink:href="#SVGID_5_"  overflow="visible"/>
		</clipPath>
		<rect x="288.59" y="381.431" clip-path="url(#SVGID_6_)" fill="#CDA72C" width="35.516" height="16.311"/>
	</g>
</g>
<path fill="#FECF0A" d="M290.506,409.572c0,2.129-1.725,3.854-3.853,3.854c-2.127,0-3.852-1.725-3.852-3.854
	c0-2.128,1.725-3.853,3.852-3.853C288.781,405.72,290.506,407.444,290.506,409.572"/>
<path fill="#FECF0A" d="M298.188,410.878c0,1.407-1.141,2.547-2.547,2.547c-1.407,0-2.548-1.14-2.548-2.547s1.141-2.547,2.548-2.547
	C297.047,408.331,298.188,409.471,298.188,410.878"/>
<path fill="#191818" d="M290.095,364.828v-2.978c0-1.386,1.123-2.509,2.509-2.509h26.697c1.385,0,2.508,1.123,2.508,2.509v2.978
	H290.095z"/>
<path fill="#191818" d="M290.095,426.066v2.979c0,1.386,1.123,2.509,2.509,2.509h26.697c1.385,0,2.508-1.123,2.508-2.509v-2.979
	H290.095z"/>
<path fill="#1A1A19" d="M327.339,458.896c-10.386,6.446-19.063,10.539-20.966,11.416c-1.905-0.877-10.58-4.97-20.967-11.416v0.492
	c-0.003-0.002,0.004-0.005,0-0.007v15.052c11.415,7.013,20.568,11.111,20.568,11.111l0.399-0.001l0.399,0.001
	c0,0,9.152-4.099,20.567-11.111v-15.052c-0.005,0.002,0.004,0.005,0,0.007V458.896z"/>
<path fill="#1A1A19" d="M282.09,457.76c-9.748-6.171-20.759-14.313-29.014-23.745v15.052c8.118,9.568,19.145,17.857,29.014,24.17
	v-15.052c-0.004-0.002,0.003-0.005,0-0.007V457.76z"/>
<path fill="#FFFFFF" d="M330.655,457.76v0.418c-0.005,0.002,0.003,0.005,0,0.007v15.052c9.868-6.313,20.895-14.602,29.014-24.17
	v-15.052C351.413,443.447,340.402,451.589,330.655,457.76"/>
<polygon fill="#FFFFFF" points="358.905,326.925 347.165,329.634 336.329,326.925 336.329,320.604 347.165,323.313 358.905,320.604 
	"/>
<polygon fill="#FFFFFF" points="358.905,335.956 347.165,338.665 336.329,335.956 336.329,329.635 347.165,332.344 358.905,329.635 
	"/>
<polygon fill="#FFFFFF" points="275.397,325.558 267.939,324.427 264.619,317.329 261.298,324.427 253.839,325.558 259.229,331.092 
	257.881,338.887 264.619,335.206 271.355,338.887 270.009,331.092 "/>
</svg>
