<?xml version="1.0" encoding="utf-8"?>
<!-- Generator: Adobe Illustrator 16.0.0, SVG Export Plug-In . SVG Version: 6.00 Build 0)  -->
<!DOCTYPE svg PUBLIC "-//W3C//DTD SVG 1.1//EN" "http://www.w3.org/Graphics/SVG/1.1/DTD/svg11.dtd">
<svg version="1.1" id="Layer_1" xmlns="http://www.w3.org/2000/svg" xmlns:xlink="http://www.w3.org/1999/xlink" x="0px" y="0px"
	 width="612px" height="792px" viewBox="0 0 612 792" enable-background="new 0 0 612 792" xml:space="preserve">
<path fill="#FECF0A" d="M243.56,334.06v19.652v48.187c0,34.534,62.531,62.53,62.531,62.53s62.532-27.996,62.532-62.53v-48.187
	V334.06H243.56z"/>
<g opacity="0.6">
	<g>
		<defs>
			<rect id="SVGID_1_" x="305.97" y="333.19" width="60.021" height="127.57"/>
		</defs>
		<clipPath id="SVGID_2_">
			<use xlink:href="#SVGID_1_"  overflow="visible"/>
		</clipPath>
		<path clip-path="url(#SVGID_2_)" fill="#CDA72C" d="M306.095,460.76c5.59-2.752,17.619-9.047,29.467-17.651
			c9.191-6.673,16.455-13.392,21.588-19.966c5.867-7.514,8.842-14.723,8.842-21.428v-47.224v-21.305h-60.025v127.511
			C306.009,460.719,306.054,460.74,306.095,460.76"/>
	</g>
</g>
<g opacity="0.4">
	<g>
		<defs>
			<rect id="SVGID_3_" x="241.49" y="329.39" width="129.199" height="137.2"/>
		</defs>
		<clipPath id="SVGID_4_">
			<use xlink:href="#SVGID_3_"  overflow="visible"/>
		</clipPath>
		<path clip-path="url(#SVGID_4_)" fill="#FFFFFF" d="M356.895,343.19v9.015v49.781c0,18.215-31.199,39.305-50.76,49.273
			c-5.696-2.924-14.985-8.061-24.254-14.771c-17.149-12.413-26.594-24.667-26.594-34.503v-49.781v-9.015H356.895 M370.691,329.395
			h-129.2v22.811v49.781c0,35.677,64.6,64.6,64.6,64.6s64.601-28.923,64.601-64.6v-49.781V329.395z"/>
	</g>
</g>
<path fill="#1A1A19" d="M363.167,336.919v15.286v49.781c0,8.389-5.031,22.042-28.997,39.445
	c-11.291,8.199-22.754,14.197-28.081,16.82c-5.288-2.602-16.619-8.527-27.885-16.683c-24.124-17.462-29.188-31.164-29.188-39.583
	v-49.781v-15.286H363.167 M370.691,329.395h-129.2v22.811v49.781c0,35.677,64.6,64.6,64.6,64.6s64.601-28.923,64.601-64.6v-49.781
	V329.395z"/>
<path fill="#1A1A19" d="M246.508,312.77c-2.741,0.32-4.983,2.84-4.983,5.599v25.574c0,2.76,2.258,5.017,5.017,5.017h119.09
	c2.76,0,5.017-2.257,5.017-5.017v-25.574c0-2.759-2.242-5.278-4.983-5.597l-54.714-6.366c-2.741-0.319-7.225-0.318-9.966,0.002
	L246.508,312.77z"/>
<path fill="#FFFFFF" d="M283.078,338.545v-3.251c7.346-7.136,8.881-8.73,8.881-11.019c0-1.536-1.174-2.529-2.679-2.529
	c-1.776,0-3.191,0.813-4.275,2.258l-2.408-2.529c1.625-2.167,4.003-3.313,6.743-3.313c3.884,0,6.714,2.349,6.714,6.082
	c0,3.04-2.047,5.63-7.015,10.747h7.105v3.553H283.078z"/>
<path fill="#FFFFFF" d="M298.279,335.745l2.438-2.589c1.054,1.385,2.469,2.168,4.186,2.168c1.926,0,3.041-1.475,3.041-3.162
	c0-1.986-1.055-3.161-2.86-3.161c-1.355,0-2.378,0.482-3.312,1.656l-2.92-0.783v-11.409h12.042v3.551h-8.008v5.149
	c0.783-0.963,2.138-1.656,3.673-1.656c3.041,0,5.479,2.379,5.479,6.533c0,4.034-2.739,6.864-7.014,6.864
	C301.922,338.906,299.784,337.763,298.279,335.745"/>
<polygon fill="#FFFFFF" points="324.559,338.545 319.923,330.688 318.508,332.915 318.508,338.545 314.475,338.545 314.475,318.465 
	318.508,318.465 318.508,327.587 324.167,318.465 328.864,318.465 322.452,327.918 329.316,338.545 "/>
<path fill="#FFFFFF" d="M340.016,406.808c0,9.819-7.96,17.779-17.779,17.779h-32.395c-9.819,0-17.779-7.96-17.779-17.779v-22.593
	c0-9.819,7.96-17.779,17.779-17.779h32.395c9.819,0,17.779,7.96,17.779,17.779V406.808z"/>
<path fill="#231F20" d="M322.236,426.594h-32.395c-10.91,0-19.786-8.877-19.786-19.786v-22.593c0-10.91,8.876-19.786,19.786-19.786
	h32.395c10.91,0,19.786,8.876,19.786,19.786v22.593C342.022,417.717,333.146,426.594,322.236,426.594 M289.841,368.442
	c-8.697,0-15.772,7.076-15.772,15.772v22.593c0,8.696,7.075,15.772,15.772,15.772h32.395c8.697,0,15.771-7.076,15.771-15.772
	v-22.593c0-8.696-7.074-15.772-15.771-15.772H289.841z"/>
<path fill="#FECF0A" d="M331.791,399.66c0,7.602-6.162,13.766-13.765,13.766l-37.74-13.766v-12.219
	c0-7.602,6.163-13.765,13.765-13.765h23.975c7.603,0,13.765,6.163,13.765,13.765V399.66z"/>
<g opacity="0.6">
	<g>
		<defs>
			<rect id="SVGID_5_" x="288.56" y="381.43" width="35.52" height="16.311"/>
		</defs>
		<clipPath id="SVGID_6_">
			<use xlink:href="#SVGID_5_"  overflow="visible"/>
		</clipPath>
		<rect x="288.559" y="381.431" clip-path="url(#SVGID_6_)" fill="#CDA72C" width="35.516" height="16.311"/>
	</g>
</g>
<path fill="#FECF0A" d="M290.476,409.572c0,2.129-1.725,3.854-3.853,3.854c-2.127,0-3.852-1.725-3.852-3.854
	c0-2.128,1.725-3.853,3.852-3.853C288.751,405.72,290.476,407.444,290.476,409.572"/>
<path fill="#FECF0A" d="M298.158,410.878c0,1.407-1.141,2.547-2.547,2.547c-1.407,0-2.548-1.14-2.548-2.547s1.141-2.547,2.548-2.547
	C297.017,408.331,298.158,409.471,298.158,410.878"/>
<path fill="#191818" d="M290.064,364.828v-2.978c0-1.386,1.123-2.509,2.509-2.509h26.697c1.385,0,2.508,1.123,2.508,2.509v2.978
	H290.064z"/>
<path fill="#191818" d="M290.064,426.066v2.979c0,1.386,1.123,2.509,2.509,2.509h26.697c1.385,0,2.508-1.123,2.508-2.509v-2.979
	H290.064z"/>
<path fill="#1A1A19" d="M327.309,458.896c-10.387,6.446-19.063,10.539-20.966,11.416c-1.905-0.877-10.58-4.97-20.967-11.416v0.492
	c-0.003-0.002,0.004-0.005,0-0.007v15.052c11.415,7.013,20.568,11.111,20.568,11.111l0.399-0.001l0.399,0.001
	c0,0,9.152-4.099,20.567-11.111v-15.052c-0.004,0.002,0.004,0.005,0,0.007V458.896z"/>
<path fill="#1A1A19" d="M282.06,457.76c-9.748-6.171-20.759-14.313-29.014-23.745v15.052c8.118,9.568,19.145,17.857,29.014,24.17
	v-15.052c-0.004-0.002,0.003-0.005,0-0.007V457.76z"/>
<path fill="#1A1A19" d="M330.625,457.76v0.418c-0.004,0.002,0.003,0.005,0,0.007v15.052c9.869-6.313,20.895-14.602,29.014-24.17
	v-15.052C351.383,443.447,340.373,451.589,330.625,457.76"/>
<polygon fill="#FFFFFF" points="277.288,325.558 269.829,324.427 266.509,317.329 263.188,324.427 255.729,325.558 261.119,331.092 
	259.771,338.887 266.509,335.206 273.246,338.887 271.899,331.092 "/>
<polygon fill="#FFFFFF" points="356.955,325.558 349.496,324.427 346.176,317.329 342.855,324.427 335.396,325.558 340.786,331.092 
	339.438,338.887 346.176,335.206 352.912,338.887 351.565,331.092 "/>
</svg>
