<?xml version="1.0" encoding="utf-8"?>
<!-- Generator: Adobe Illustrator 16.0.0, SVG Export Plug-In . SVG Version: 6.00 Build 0)  -->
<!DOCTYPE svg PUBLIC "-//W3C//DTD SVG 1.1//EN" "http://www.w3.org/Graphics/SVG/1.1/DTD/svg11.dtd">
<svg version="1.1" id="Layer_1" xmlns="http://www.w3.org/2000/svg" xmlns:xlink="http://www.w3.org/1999/xlink" x="0px" y="0px"
	 width="612px" height="792px" viewBox="0 0 612 792" enable-background="new 0 0 612 792" xml:space="preserve">
<path fill="#1A1A19" d="M326.434,458.522c-10.386,6.446-19.062,10.538-20.966,11.416c-1.905-0.878-10.58-4.97-20.967-11.416v0.492
	c-0.003-0.002,0.004-0.005,0-0.007v15.051c11.415,7.014,20.568,11.112,20.568,11.112l0.399-0.001l0.399,0.001
	c0,0,9.152-4.099,20.567-11.112v-15.051c-0.004,0.002,0.004,0.005,0,0.007V458.522z"/>
<path fill="#1A1A19" d="M281.186,457.386c-9.748-6.171-20.759-14.313-29.014-23.745v15.051c8.118,9.569,19.145,17.858,29.014,24.17
	v-15.051c-0.004-0.002,0.003-0.005,0-0.007V457.386z"/>
<path fill="#1A1A19" d="M329.75,457.386v0.418c-0.004,0.002,0.003,0.005,0,0.007v15.051c9.869-6.312,20.895-14.601,29.014-24.17
	v-15.051C350.508,443.072,339.498,451.215,329.75,457.386"/>
<path fill="#F26C7C" d="M242.411,332.629v19.988v49.01c0,35.127,63.601,63.602,63.601,63.602s63.6-28.475,63.6-63.602v-49.01
	v-19.988H242.411z"/>
<g opacity="0.6">
	<g>
		<defs>
			<rect id="SVGID_1_" x="305.89" y="332.87" width="60.02" height="127.569"/>
		</defs>
		<clipPath id="SVGID_2_">
			<use xlink:href="#SVGID_1_"  overflow="visible"/>
		</clipPath>
		<path clip-path="url(#SVGID_2_)" fill="#DF2E54" d="M306.015,460.444c5.59-2.753,17.619-9.048,29.467-17.651
			c9.191-6.674,16.455-13.392,21.588-19.967c5.867-7.514,8.842-14.723,8.842-21.427v-47.224v-21.305h-60.025v127.511
			C305.929,460.402,305.974,460.425,306.015,460.444"/>
	</g>
</g>
<g opacity="0.4">
	<g>
		<defs>
			<rect id="SVGID_3_" x="241.41" y="329.08" width="129.199" height="137.189"/>
		</defs>
		<clipPath id="SVGID_4_">
			<use xlink:href="#SVGID_3_"  overflow="visible"/>
		</clipPath>
		<path clip-path="url(#SVGID_4_)" fill="#FFFFFF" d="M356.814,342.875v9.015v49.78c0,18.229-31.246,39.338-50.803,49.296
			c-19.566-9.964-50.804-31.069-50.804-49.296v-49.78v-9.015H356.814 M370.611,329.078h-129.2v22.812v49.78
			c0,35.679,64.601,64.601,64.601,64.601s64.6-28.922,64.6-64.601v-49.78V329.078z"/>
	</g>
</g>
<path fill="#1A1A19" d="M363.087,336.604v15.286v49.78c0,8.39-5.031,22.043-28.997,39.445
	c-11.291,8.199-22.754,14.197-28.081,16.821c-5.288-2.601-16.619-8.527-27.885-16.683C254,423.791,248.936,410.09,248.936,401.67
	v-49.78v-15.286H363.087 M370.611,329.078h-129.2v22.812v49.78c0,35.679,64.601,64.601,64.601,64.601s64.6-28.922,64.6-64.601
	v-49.78V329.078z"/>
<path fill="#1A1A19" d="M246.429,312.454c-2.741,0.32-4.983,2.84-4.983,5.6v25.574c0,2.76,2.258,5.017,5.017,5.017h119.091
	c2.759,0,5.016-2.257,5.016-5.017v-25.574c0-2.759-2.242-5.278-4.983-5.597l-54.713-6.366c-2.742-0.319-7.226-0.318-9.967,0.002
	L246.429,312.454z"/>
<polygon fill="#FFFFFF" points="297.522,338.229 297.522,323.357 294.481,326.519 292.164,324.079 298.064,318.148 301.586,318.148 
	301.586,338.229 "/>
<path fill="#FFFFFF" d="M304.174,328.234c0-6.021,2.859-10.386,8.038-10.386c2.138,0,3.974,0.843,5.147,2.167l-1.957,3.011
	c-0.781-1.054-1.716-1.596-3.131-1.596c-2.438,0-4.004,2.8-4.004,5.991v0.361c0.753-1.384,2.379-2.558,4.275-2.558
	c3.011,0,5.63,2.258,5.63,6.533c0,3.883-2.649,6.834-6.593,6.834C306.251,338.591,304.174,333.804,304.174,328.234 M314.078,331.907
	c0-2.348-1.385-3.221-2.799-3.221c-1.296,0-2.318,0.903-3.012,2.047c0.151,1.896,0.844,4.274,3.071,4.274
	C313.176,335.008,314.078,333.412,314.078,331.907"/>
<path fill="#FFFFFF" d="M319.395,431.653c-17.018,7.085-36.556-0.967-43.641-17.985c-7.085-17.017,0.967-36.556,17.984-43.641
	c17.019-7.085,36.558,0.967,43.642,17.985C344.463,405.029,336.412,424.568,319.395,431.653"/>
<path fill="#191818" d="M306.059,376.641c0,0-0.002,0.021-0.004,0.054h0.01C306.061,376.661,306.059,376.641,306.059,376.641"/>
<path fill="#F26C7C" d="M335.17,384.726c-5.724-10.041-17.25-16.65-28.429-16.389l-0.292,3.321l0.786,29.624l32.282,0.335
	L335.17,384.726z"/>
<path fill="#191818" d="M306.062,376.667c0.002,0.015,0.537,0.026,1.196,0.026c0.658,0,1.191-0.561,1.191-1.254v-5.77
	c0-0.692-0.561-1.254-1.254-1.254h-1.636c-0.693,0-1.254,0.563-1.254,1.254v5.77c0,0.693,0.391,1.254,0.874,1.254
	c0.483,0,0.876-0.012,0.877-0.026S306.06,376.652,306.062,376.667"/>
<path fill="#191818" d="M339.238,402.095v-1.636c0-0.693-0.562-1.255-1.254-1.255h-5.686c-0.693,0-1.254,0.562-1.254,1.255v1.636
	c0,0.693,0.561,1.254,1.254,1.254h5.686C338.677,403.349,339.238,402.788,339.238,402.095"/>
<path fill="#191818" d="M273.517,400.458v1.637c0,0.692,0.562,1.255,1.254,1.255h5.519c0.693,0,1.254-0.563,1.254-1.255v-1.637
	c0-0.692-0.562-1.254-1.254-1.254h-5.519C274.079,399.204,273.517,399.766,273.517,400.458"/>
<path fill="#191818" d="M305.56,434.138h1.636c0.693,0,1.255-0.562,1.255-1.254v-5.436c0-0.692-0.562-1.254-1.255-1.254h-1.636
	c-0.693,0-1.254,0.562-1.254,1.254v5.436C304.306,433.576,304.866,434.138,305.56,434.138"/>
<g opacity="0.6">
	<g>
		<defs>
			<rect id="SVGID_5_" x="277.75" y="372.65" width="57.25" height="57.25"/>
		</defs>
		<clipPath id="SVGID_6_">
			<use xlink:href="#SVGID_5_"  overflow="visible"/>
		</clipPath>
		<path clip-path="url(#SVGID_6_)" fill="#DF2E54" d="M289.947,372.818c-0.6,0.346-0.805,1.113-0.459,1.713l2.849,4.935
			c0.346,0.6,1.115,0.808,1.717,0.466c0.602-0.343,0.81-1.107,0.463-1.707l-2.857-4.948
			C291.314,372.677,290.547,372.472,289.947,372.818"/>
		<path clip-path="url(#SVGID_6_)" fill="#DF2E54" d="M277.919,384.846c-0.346,0.601-0.141,1.367,0.459,1.713l4.868,2.811
			c0.6,0.346,1.363,0.139,1.705-0.464c0.342-0.603,0.133-1.371-0.467-1.718l-4.852-2.801
			C279.033,384.041,278.265,384.246,277.919,384.846"/>
		<path clip-path="url(#SVGID_6_)" fill="#DF2E54" d="M277.919,417.707c0.346,0.6,1.114,0.805,1.713,0.459l4.719-2.725
			c0.6-0.346,0.805-1.112,0.457-1.711c-0.348-0.6-1.117-0.805-1.717-0.458l-4.713,2.722
			C277.778,416.34,277.573,417.107,277.919,417.707"/>
		<path clip-path="url(#SVGID_6_)" fill="#DF2E54" d="M289.947,429.735c0.6,0.346,1.367,0.141,1.713-0.459l2.71-4.694
			c0.347-0.6,0.14-1.365-0.461-1.709c-0.601-0.345-1.369-0.137-1.716,0.463l-2.705,4.687
			C289.142,428.621,289.347,429.389,289.947,429.735"/>
		<path clip-path="url(#SVGID_6_)" fill="#DF2E54" d="M322.809,429.735c0.6-0.347,0.805-1.114,0.459-1.713l-2.745-4.755
			c-0.347-0.601-1.115-0.809-1.718-0.467c-0.602,0.344-0.809,1.107-0.463,1.707l2.754,4.769
			C321.441,429.876,322.208,430.081,322.809,429.735"/>
		<path clip-path="url(#SVGID_6_)" fill="#DF2E54" d="M334.836,417.707c0.346-0.6,0.141-1.367-0.459-1.713l-4.85-2.801
			c-0.6-0.346-1.364-0.139-1.706,0.464c-0.343,0.602-0.134,1.371,0.467,1.718l4.835,2.791
			C333.723,418.512,334.49,418.307,334.836,417.707"/>
		<path clip-path="url(#SVGID_6_)" fill="#DF2E54" d="M334.836,384.846c-0.346-0.6-1.113-0.805-1.713-0.459l-4.99,2.881
			c-0.6,0.346-0.804,1.113-0.455,1.712c0.347,0.598,1.115,0.803,1.715,0.457l4.984-2.878
			C334.977,386.213,335.182,385.446,334.836,384.846"/>
		<path clip-path="url(#SVGID_6_)" fill="#DF2E54" d="M322.809,372.818c-0.601-0.346-1.367-0.141-1.713,0.459l-2.897,5.017
			c-0.347,0.601-0.14,1.365,0.461,1.71c0.603,0.344,1.37,0.138,1.716-0.463l2.893-5.01
			C323.613,373.931,323.408,373.164,322.809,372.818"/>
	</g>
</g>
<path fill="#191818" d="M306.313,436.783c-14.367,0-27.218-8.57-32.739-21.833c-7.514-18.045,1.055-38.838,19.101-46.351
	c4.353-1.813,8.933-2.732,13.611-2.732c14.367,0,27.218,8.57,32.739,21.833c7.513,18.045-1.055,38.838-19.102,46.351
	C315.571,435.864,310.991,436.783,306.313,436.783 M306.286,370.012c-4.128,0-8.172,0.813-12.019,2.413
	c-15.935,6.634-23.502,24.997-16.867,40.933c4.876,11.713,16.225,19.281,28.913,19.281c4.128,0,8.172-0.813,12.018-2.414
	c15.935-6.634,23.502-24.996,16.868-40.932C330.323,377.58,318.975,370.012,306.286,370.012"/>
<path fill="#191818" d="M290.109,368.426c0,2.099-1.701,3.8-3.799,3.8c-2.099,0-3.8-1.702-3.8-3.8c0-2.098,1.701-3.8,3.8-3.8
	C288.408,364.626,290.109,366.328,290.109,368.426"/>
<path fill="#F26C7C" d="M312.998,361.491c0,3.711-3.009,6.719-6.72,6.719c-3.71,0-6.718-3.008-6.718-6.719s3.008-6.719,6.718-6.719
	C309.989,354.772,312.998,357.78,312.998,361.491"/>
<path fill="#191818" d="M306.47,369.515c-4.437,0-8.046-3.609-8.046-8.046c0-4.436,3.609-8.046,8.046-8.046
	c4.437,0,8.045,3.61,8.045,8.046C314.515,365.906,310.906,369.515,306.47,369.515 M306.47,357.567c-2.151,0-3.901,1.75-3.901,3.901
	c0,2.152,1.75,3.902,3.901,3.902c2.151,0,3.901-1.75,3.901-3.902C310.371,359.317,308.621,357.567,306.47,357.567"/>
<path fill="#191818" d="M320.094,369.168l2.587-3.061c0.896-1.058,2.478-1.19,3.536-0.296l12.03,10.171
	c1.058,0.894,1.19,2.477,0.296,3.535l-2.587,3.061L320.094,369.168z"/>
<path fill="#191818" d="M303.138,401.479c0.005,1.914,1.561,3.46,3.474,3.455c1.914-0.006,3.461-1.562,3.455-3.476
	c-0.005-1.912-3.355-15.377-3.355-15.377S303.133,399.566,303.138,401.479"/>
<path fill="#191818" d="M307.599,397.703c-1.913-0.023-3.484,1.508-3.508,3.42c-0.025,1.914,1.507,3.484,3.42,3.51
	c1.913,0.023,15.431-3.367,15.431-3.367S309.512,397.728,307.599,397.703"/>
<polygon fill="#FFFFFF" points="279.595,325.616 272.135,324.485 268.815,317.388 265.495,324.485 258.036,325.616 263.425,331.15 
	262.078,338.945 268.815,335.265 275.552,338.945 274.206,331.15 "/>
<polygon fill="#FFFFFF" points="354.095,325.616 346.635,324.485 343.315,317.388 339.995,324.485 332.536,325.616 337.926,331.15 
	336.578,338.945 343.315,335.265 350.053,338.945 348.705,331.15 "/>
</svg>
