<?xml version="1.0" encoding="utf-8"?>
<!-- Generator: Adobe Illustrator 16.0.0, SVG Export Plug-In . SVG Version: 6.00 Build 0)  -->
<!DOCTYPE svg PUBLIC "-//W3C//DTD SVG 1.1//EN" "http://www.w3.org/Graphics/SVG/1.1/DTD/svg11.dtd">
<svg version="1.1" id="Layer_1" xmlns="http://www.w3.org/2000/svg" xmlns:xlink="http://www.w3.org/1999/xlink" x="0px" y="0px"
	 width="240px" height="200px" viewBox="0 0 240 200" enable-background="new 0 0 240 200" xml:space="preserve">
<path fill="#1A1A19" d="M137.66,166.241c-10.387,6.446-19.063,10.538-20.966,11.416c-1.905-0.878-10.58-4.97-20.967-11.416v0.492
	c-0.003-0.002,0.004-0.005,0-0.007v15.051c11.415,7.013,20.568,11.112,20.568,11.112l0.399-0.001l0.399,0.001
	c0,0,9.152-4.1,20.567-11.112v-15.051c-0.004,0.002,0.004,0.005,0,0.007V166.241z"/>
<path fill="#1A1A19" d="M92.411,165.104c-9.748-6.17-20.759-14.313-29.014-23.744v15.051c8.118,9.568,19.145,17.857,29.014,24.17
	v-15.051c-0.004-0.002,0.003-0.005,0-0.007V165.104z"/>
<path fill="#1A1A19" d="M140.977,165.104v0.419c-0.004,0.002,0.003,0.005,0,0.007v15.051c9.869-6.313,20.895-14.602,29.014-24.17
	v-15.051C161.734,150.791,150.724,158.934,140.977,165.104"/>
<path fill="#010101" d="M191.059,139.966c-0.916-0.018-1.783-0.027-2.638,0.014c3.211-4.57,2.291-10.164,4.058-15.119l-0.017-0.219
	c-5.329,2.008-8.124,6.7-10.73,11.657c-1.861,3.592-3.684,7.274-6.34,9.994c1.109,0.08,2.153,0.229,3.234,0.388
	c1.122,0.163,2.276,0.386,3.435,0.692c2.307,0.135,4.581,0.237,6.732,0.167c4.035-0.171,7.795-0.855,11.037-2.606
	c1.502-0.798,2.902-1.849,4.131-3.161c-0.949-0.153-1.992-0.342-3.028-0.524C197.668,140.693,194.234,140.124,191.059,139.966"/>
<path fill="#010101" d="M204.059,122.135c-1.494-5.036-4.273-10.122-3.865-15.642l-0.142-0.219l-0.374,0.165
	c-0.045,0.036-0.097,0.107-0.101,0.145c-0.292,0.5-0.602,0.785-1.137,1.299c-3.805,6.708-3.229,14.78-1.274,21.921
	c0.32,1.176,0.652,2.295,1.063,3.425c3.422-2.676,7.644-3.359,11.442-5.307c0.341-0.207,0.676-0.369,1.029-0.581
	c3.659-2.642,5.886-7.007,6.842-11.184c-2.374,0.757-4.701,1.368-6.877,2.187C208.32,119.189,206.057,120.331,204.059,122.135"/>
<path fill="#010101" d="M27.975,99.247c0.117,1.752,0.69,3.56,0.63,5.435c-0.208,0.814-0.353,1.625-0.512,2.452
	c-0.499,2.185-1.119,4.205-2.547,5.306c-1.651-2.337-3.224-4.858-3.98-7.992c-0.23-2.088-0.103-4.093,0.351-6.048
	c0.698-3.078,2.195-5.974,4.379-8.6c0.069-0.091,0.125-0.13,0.158-0.197l0.408-0.073c-0.051,0.282-0.077,0.595-0.112,0.913
	C26.51,93.397,27.218,96.113,27.975,99.247"/>
<path fill="#010101" d="M205.805,99.247c-0.117,1.752-0.69,3.56-0.631,5.435c0.209,0.814,0.354,1.625,0.513,2.452
	c0.499,2.185,1.119,4.205,2.547,5.306c1.651-2.337,3.224-4.858,3.979-7.992c0.23-2.088,0.104-4.093-0.351-6.048
	c-0.698-3.078-2.194-5.974-4.379-8.6c-0.069-0.091-0.125-0.13-0.158-0.197l-0.408-0.073c0.052,0.282,0.077,0.595,0.112,0.913
	C207.269,93.397,206.561,96.113,205.805,99.247"/>
<path fill="#010101" d="M42.329,139.966c0.916-0.018,1.783-0.027,2.638,0.014c-3.211-4.57-2.29-10.164-4.058-15.119l0.017-0.219
	c5.329,2.008,8.124,6.7,10.73,11.657c1.861,3.592,3.684,7.274,6.339,9.994c-1.109,0.08-2.153,0.229-3.234,0.388
	c-1.122,0.163-2.275,0.386-3.435,0.692c-2.306,0.135-4.581,0.237-6.732,0.167c-4.035-0.171-7.795-0.855-11.037-2.606
	c-1.502-0.798-2.902-1.849-4.131-3.161c0.949-0.153,1.992-0.342,3.028-0.524C35.72,140.693,39.152,140.124,42.329,139.966"/>
<path fill="#010101" d="M29.329,122.135c1.494-5.036,4.274-10.122,3.865-15.642l0.142-0.219l0.374,0.165
	c0.045,0.036,0.097,0.107,0.101,0.145c0.292,0.5,0.601,0.785,1.136,1.299c3.805,6.708,3.23,14.78,1.275,21.921
	c-0.32,1.176-0.653,2.295-1.062,3.425c-3.423-2.676-7.644-3.359-11.443-5.307c-0.341-0.207-0.676-0.369-1.029-0.581
	c-3.66-2.642-5.886-7.007-6.842-11.184c2.374,0.757,4.701,1.368,6.877,2.187C25.067,119.189,27.331,120.331,29.329,122.135"/>
<path fill="#FECF0A" d="M52.093,38.584v20.302v49.78c0,35.679,64.6,64.602,64.6,64.602s64.601-28.923,64.601-64.602v-49.78V38.584
	H52.093z"/>
<g opacity="0.6">
	<g>
		<defs>
			<rect id="SVGID_1_" x="116.57" y="39.87" width="60.02" height="127.57"/>
		</defs>
		<clipPath id="SVGID_2_">
			<use xlink:href="#SVGID_1_"  overflow="visible"/>
		</clipPath>
		<path clip-path="url(#SVGID_2_)" fill="#CDA72C" d="M116.697,167.441c5.59-2.753,17.619-9.048,29.468-17.652
			c9.191-6.674,16.454-13.391,21.589-19.967c5.865-7.513,8.841-14.722,8.841-21.426V61.172V39.867h-60.025v127.511
			C116.611,167.398,116.656,167.422,116.697,167.441"/>
	</g>
</g>
<g opacity="0.4">
	<g>
		<defs>
			<rect id="SVGID_3_" x="52.09" y="36.07" width="129.2" height="137.199"/>
		</defs>
		<clipPath id="SVGID_4_">
			<use xlink:href="#SVGID_3_"  overflow="visible"/>
		</clipPath>
		<path clip-path="url(#SVGID_4_)" fill="#FFFFFF" d="M167.497,49.872v9.014v49.781c0,18.215-31.2,39.306-50.76,49.273
			c-5.696-2.925-14.984-8.061-24.254-14.771c-17.149-12.413-26.594-24.667-26.594-34.503V58.886v-9.014H167.497 M181.295,36.075
			H52.093v22.811v49.781c0,35.677,64.6,64.601,64.6,64.601s64.602-28.924,64.602-64.601V58.886V36.075z"/>
	</g>
</g>
<path fill="#1A1A19" d="M173.77,43.6v15.286v49.781c0,8.39-5.031,22.042-28.997,39.445c-11.291,8.198-22.754,14.197-28.081,16.821
	c-5.288-2.603-16.619-8.528-27.885-16.684c-24.124-17.462-29.188-31.164-29.188-39.583V58.886V43.6H173.77 M181.295,36.075H52.093
	v22.811v49.781c0,35.677,64.6,64.601,64.6,64.601s64.602-28.924,64.602-64.601V58.886V36.075z"/>
<path fill="#1A1A19" d="M57.115,19.451c-2.741,0.319-4.983,2.84-4.983,5.599v25.574c0,2.76,2.258,5.018,5.017,5.018h119.091
	c2.759,0,5.017-2.258,5.017-5.018V25.05c0-2.759-2.242-5.278-4.983-5.597l-54.714-6.366c-2.741-0.319-7.225-0.318-9.966,0.002
	L57.115,19.451z"/>
<g opacity="0.6">
	<g>
		<defs>
			<rect id="SVGID_5_" x="54.75" y="119.71" width="123.89" height="53.43"/>
		</defs>
		<clipPath id="SVGID_6_">
			<use xlink:href="#SVGID_5_"  overflow="visible"/>
		</clipPath>
		<path clip-path="url(#SVGID_6_)" fill="#CDA72C" d="M54.751,119.705c10.273,30.301,61.942,53.435,61.942,53.435
			s51.67-23.134,61.943-53.435H54.751z"/>
	</g>
</g>
<path fill="#FFFFFF" d="M74.392,111.297l0.138-4.397l0.873-13.101l0.319-4.773l0.444-6.681l0.148-2.228h20.045
	c0-4.455,4.454-6.682,4.454-6.682l1.96,1.47l1.604,1.203l0.712,0.534l3.341,2.505l22.97,16.145l0.594,0.416
	c0,0,0.495,0.197,1.34,0.531c0.004,0.001,0.007,0.002,0.01,0.003c0.046,0.019,0.093,0.037,0.141,0.057
	c0.021,0.008,0.042,0.017,0.063,0.024c0.046,0.019,0.091,0.036,0.138,0.054c0.012,0.005,0.023,0.009,0.036,0.014
	c0.051,0.02,0.102,0.041,0.154,0.061c0.019,0.008,0.037,0.016,0.056,0.022c0.051,0.02,0.103,0.04,0.155,0.061
	c0.01,0.005,0.019,0.007,0.027,0.011c0.084,0.033,0.17,0.067,0.257,0.101c0.048,0.019,0.097,0.038,0.146,0.057
	c0.047,0.018,0.095,0.037,0.142,0.056c0.03,0.011,0.06,0.022,0.089,0.035c0.054,0.02,0.106,0.041,0.159,0.062
	c0.028,0.011,0.056,0.022,0.084,0.033c0.048,0.019,0.099,0.038,0.148,0.057c0.038,0.015,0.075,0.03,0.114,0.046
	c0.049,0.02,0.099,0.038,0.147,0.058c0.03,0.012,0.062,0.023,0.092,0.036c0.058,0.022,0.115,0.045,0.173,0.068
	c0.041,0.016,0.084,0.032,0.125,0.048c0.038,0.016,0.078,0.031,0.117,0.046c0.073,0.028,0.146,0.057,0.221,0.086
	c0.016,0.006,0.032,0.012,0.049,0.019c0.076,0.029,0.152,0.059,0.23,0.09c0.024,0.009,0.049,0.018,0.072,0.027
	c0.058,0.022,0.118,0.046,0.177,0.069c0.058,0.022,0.116,0.044,0.175,0.067c1.019,0.395,2.142,0.827,3.314,1.274
	c0.002,0.001,0.005,0.002,0.007,0.003c0.118,0.045,0.237,0.09,0.356,0.135h0.001c0.112,0.043,0.227,0.086,0.341,0.13
	c0.017,0.006,0.035,0.013,0.053,0.02c0.107,0.041,0.214,0.081,0.321,0.121c0.01,0.004,0.02,0.007,0.028,0.011
	c0.117,0.044,0.234,0.088,0.352,0.132c0.001,0.001,0.003,0.002,0.005,0.002c0.117,0.044,0.234,0.089,0.351,0.133
	c0.012,0.004,0.022,0.008,0.033,0.012c0.108,0.04,0.216,0.081,0.325,0.122c0.019,0.008,0.037,0.015,0.056,0.021
	c0.104,0.039,0.211,0.078,0.315,0.117c0.018,0.007,0.037,0.014,0.055,0.021c0.104,0.039,0.206,0.077,0.31,0.115
	c0.021,0.009,0.045,0.017,0.067,0.026c0.103,0.038,0.204,0.076,0.307,0.114c0.021,0.008,0.043,0.016,0.063,0.023
	c0.098,0.036,0.196,0.073,0.293,0.109c0.029,0.011,0.059,0.021,0.088,0.032c0.095,0.035,0.189,0.07,0.283,0.105
	c0.028,0.01,0.057,0.02,0.084,0.031c0.096,0.035,0.189,0.069,0.284,0.104c0.029,0.011,0.06,0.022,0.089,0.033
	c0.094,0.034,0.186,0.068,0.279,0.102c0.029,0.011,0.059,0.021,0.088,0.032c0.092,0.034,0.184,0.067,0.275,0.101
	c0.031,0.011,0.063,0.022,0.094,0.034c0.088,0.032,0.175,0.063,0.263,0.096c0.035,0.013,0.07,0.025,0.105,0.038
	c0.086,0.032,0.172,0.062,0.258,0.093c0.034,0.013,0.068,0.024,0.103,0.037c0.088,0.031,0.174,0.063,0.262,0.095
	c0.032,0.011,0.065,0.022,0.099,0.035c0.08,0.028,0.159,0.057,0.238,0.085c0.042,0.015,0.083,0.029,0.124,0.045
	c0.08,0.028,0.157,0.056,0.236,0.084c0.037,0.013,0.075,0.027,0.112,0.04c0.088,0.03,0.177,0.062,0.265,0.093
	c0.026,0.01,0.054,0.02,0.08,0.029c0.083,0.029,0.165,0.058,0.248,0.087c0.035,0.012,0.069,0.024,0.104,0.036
	c0.071,0.025,0.142,0.05,0.213,0.075c0.043,0.015,0.087,0.029,0.13,0.044c0.074,0.026,0.146,0.052,0.219,0.076
	c0.038,0.014,0.077,0.027,0.114,0.04c0.069,0.024,0.138,0.048,0.206,0.071c0.043,0.015,0.086,0.029,0.129,0.044
	c0.064,0.022,0.128,0.044,0.191,0.065c0.045,0.016,0.089,0.03,0.133,0.045c0.065,0.022,0.13,0.045,0.194,0.066
	c0.042,0.014,0.084,0.028,0.126,0.042c0.104,0.035,0.208,0.07,0.312,0.104c0.204,0.068,0.401,0.142,0.592,0.222
	c0.004,0.002,0.007,0.003,0.011,0.004c0.188,0.079,0.369,0.164,0.547,0.253c0.006,0.004,0.013,0.007,0.019,0.01
	c0.173,0.089,0.341,0.183,0.504,0.28c0.008,0.005,0.017,0.009,0.024,0.015c0.16,0.097,0.314,0.199,0.466,0.305
	c0.009,0.007,0.019,0.013,0.028,0.02c0.147,0.105,0.29,0.215,0.429,0.327c0.011,0.009,0.021,0.017,0.03,0.025
	c0.138,0.112,0.27,0.229,0.396,0.348c0.01,0.009,0.021,0.019,0.03,0.028c0.127,0.119,0.249,0.242,0.366,0.367
	c0.011,0.01,0.02,0.02,0.028,0.029c0.118,0.127,0.232,0.256,0.341,0.388c0.009,0.009,0.017,0.018,0.024,0.027
	c0.109,0.134,0.214,0.269,0.315,0.405c0.007,0.009,0.013,0.018,0.02,0.025c0.102,0.14,0.2,0.281,0.294,0.424
	c0.004,0.006,0.009,0.013,0.013,0.019c0.096,0.146,0.187,0.293,0.274,0.442c0.002,0.004,0.004,0.007,0.006,0.01
	c0.991,1.69,1.387,3.539,1.62,4.936v8.1H74.392V111.297z"/>
<path fill="#F8D012" d="M133.843,107.549l-37.17-26.486l3.858-6.159l9.966,7.833l23.361,15.825l0.64,0.433
	c0,0,2.438,0.944,5.774,2.193l0.007,0.027L133.843,107.549z"/>
<path fill="#F8D012" d="M132.013,96.635c0.483,0.193,11.269,4.497,17.798,6.674c3.301,1.101,4.969,3.829,5.814,6.311h-33.119
	L132.013,96.635z"/>
<polygon fill="#191818" points="110.635,81.86 104.687,87.122 107.685,79.768 "/>
<polygon fill="#191818" points="116.231,85.848 110.283,91.109 113.281,83.756 "/>
<line fill="none" stroke="#191818" stroke-width="1.839" stroke-miterlimit="10" x1="155.625" y1="110.309" x2="74.391" y2="110.309"/>
<polygon fill="#191818" points="121.829,89.835 115.881,95.097 118.879,87.743 "/>
<polygon fill="#191818" points="127.426,93.822 121.478,99.085 124.476,91.73 "/>
<polygon fill="#191818" points="133.022,97.81 127.074,103.072 130.072,95.719 "/>
<polygon fill="#F8D012" points="89.253,86.104 105.047,94.154 100.825,97.448 108.261,105.231 92.466,97.183 96.687,93.888 "/>
<path fill="#F8D012" d="M75.975,93.614l-0.942,16.018h17.063C91.248,101.146,84.475,94.408,75.975,93.614"/>
<path fill="none" stroke="#191818" stroke-width="3.679" stroke-miterlimit="10" d="M74.392,111.297l0.138-4.397l0.873-13.101
	l0.319-4.773l0.444-6.681l0.148-2.228h20.045c0-4.455,4.454-6.682,4.454-6.682l1.96,1.47l1.604,1.203l0.712,0.534l3.341,2.505
	l22.97,16.145l0.594,0.416c0,0,0.495,0.197,1.34,0.531c0.004,0.001,0.007,0.002,0.01,0.003c0.046,0.019,0.093,0.037,0.141,0.057
	c0.021,0.008,0.042,0.017,0.063,0.024c0.046,0.019,0.091,0.036,0.138,0.054c0.012,0.005,0.023,0.009,0.036,0.014
	c0.051,0.02,0.102,0.041,0.154,0.061c0.019,0.008,0.037,0.016,0.056,0.022c0.051,0.02,0.103,0.04,0.155,0.061
	c0.01,0.005,0.019,0.007,0.027,0.011c0.084,0.033,0.17,0.067,0.257,0.101c0.048,0.019,0.097,0.038,0.146,0.057
	c0.047,0.018,0.095,0.037,0.142,0.056c0.03,0.011,0.06,0.022,0.089,0.035c0.054,0.02,0.106,0.041,0.159,0.062
	c0.028,0.011,0.056,0.022,0.084,0.033c0.048,0.019,0.099,0.038,0.148,0.057c0.038,0.015,0.075,0.03,0.114,0.046
	c0.049,0.02,0.099,0.038,0.147,0.058c0.03,0.012,0.062,0.023,0.092,0.036c0.058,0.022,0.115,0.045,0.173,0.068
	c0.041,0.016,0.084,0.032,0.125,0.048c0.038,0.016,0.078,0.031,0.117,0.046c0.073,0.028,0.146,0.057,0.221,0.086
	c0.016,0.006,0.032,0.012,0.049,0.019c0.076,0.029,0.152,0.059,0.23,0.09c0.024,0.009,0.049,0.018,0.072,0.027
	c0.058,0.022,0.118,0.046,0.177,0.069c0.058,0.022,0.116,0.044,0.175,0.067c1.019,0.395,2.142,0.827,3.314,1.274
	c0.002,0.001,0.005,0.002,0.007,0.003c0.118,0.045,0.237,0.09,0.356,0.135h0.001c0.112,0.043,0.227,0.086,0.341,0.13
	c0.017,0.006,0.035,0.013,0.053,0.02c0.107,0.041,0.214,0.081,0.321,0.121c0.01,0.004,0.02,0.007,0.028,0.011
	c0.117,0.044,0.234,0.088,0.352,0.132c0.001,0.001,0.003,0.002,0.005,0.002c0.117,0.044,0.234,0.089,0.351,0.133
	c0.012,0.004,0.022,0.008,0.033,0.012c0.108,0.04,0.216,0.081,0.325,0.122c0.019,0.008,0.037,0.015,0.056,0.021
	c0.104,0.039,0.211,0.078,0.315,0.117c0.018,0.007,0.037,0.014,0.055,0.021c0.104,0.039,0.206,0.077,0.31,0.115
	c0.021,0.009,0.045,0.017,0.067,0.026c0.103,0.038,0.204,0.076,0.307,0.114c0.021,0.008,0.043,0.016,0.063,0.023
	c0.098,0.036,0.196,0.073,0.293,0.109c0.029,0.011,0.059,0.021,0.088,0.032c0.095,0.035,0.189,0.07,0.283,0.105
	c0.028,0.01,0.057,0.02,0.084,0.031c0.096,0.035,0.189,0.069,0.284,0.104c0.029,0.011,0.06,0.022,0.089,0.033
	c0.094,0.034,0.186,0.068,0.279,0.102c0.029,0.011,0.059,0.021,0.088,0.032c0.092,0.034,0.184,0.067,0.275,0.101
	c0.031,0.011,0.063,0.022,0.094,0.034c0.088,0.032,0.175,0.063,0.263,0.096c0.035,0.013,0.07,0.025,0.105,0.038
	c0.086,0.032,0.172,0.062,0.258,0.093c0.034,0.013,0.068,0.024,0.103,0.037c0.088,0.031,0.174,0.063,0.262,0.095
	c0.032,0.011,0.065,0.022,0.099,0.035c0.08,0.028,0.159,0.057,0.238,0.085c0.042,0.015,0.083,0.029,0.124,0.045
	c0.08,0.028,0.157,0.056,0.236,0.084c0.037,0.013,0.075,0.027,0.112,0.04c0.088,0.03,0.177,0.062,0.265,0.093
	c0.026,0.01,0.054,0.02,0.08,0.029c0.083,0.029,0.165,0.058,0.248,0.087c0.035,0.012,0.069,0.024,0.104,0.036
	c0.071,0.025,0.142,0.05,0.213,0.075c0.043,0.015,0.087,0.029,0.13,0.044c0.074,0.026,0.146,0.052,0.219,0.076
	c0.038,0.014,0.077,0.027,0.114,0.04c0.069,0.024,0.138,0.048,0.206,0.071c0.043,0.015,0.086,0.029,0.129,0.044
	c0.064,0.022,0.128,0.044,0.191,0.065c0.045,0.016,0.089,0.03,0.133,0.045c0.065,0.022,0.13,0.045,0.194,0.066
	c0.042,0.014,0.084,0.028,0.126,0.042c0.104,0.035,0.208,0.07,0.312,0.104c0.204,0.068,0.401,0.142,0.592,0.222
	c0.004,0.002,0.007,0.003,0.011,0.004c0.188,0.079,0.369,0.164,0.547,0.253c0.006,0.004,0.013,0.007,0.019,0.01
	c0.173,0.089,0.341,0.183,0.504,0.28c0.008,0.005,0.017,0.009,0.024,0.015c0.16,0.097,0.314,0.199,0.466,0.305
	c0.009,0.007,0.019,0.013,0.028,0.02c0.147,0.105,0.29,0.215,0.429,0.327c0.011,0.009,0.021,0.017,0.03,0.025
	c0.138,0.112,0.27,0.229,0.396,0.348c0.01,0.009,0.021,0.019,0.03,0.028c0.127,0.119,0.249,0.242,0.366,0.367
	c0.011,0.01,0.02,0.02,0.028,0.029c0.118,0.127,0.232,0.256,0.341,0.388c0.009,0.009,0.017,0.018,0.024,0.027
	c0.109,0.134,0.214,0.269,0.315,0.405c0.007,0.009,0.013,0.018,0.02,0.025c0.102,0.14,0.2,0.281,0.294,0.424
	c0.004,0.006,0.009,0.013,0.013,0.019c0.096,0.146,0.187,0.293,0.274,0.442c0.002,0.004,0.004,0.007,0.006,0.01
	c0.991,1.69,1.387,3.539,1.62,4.936v8.1H74.392V111.297z"/>
<path fill="#FFFFFF" d="M93.271,43.427l2.438-2.589c1.055,1.385,2.47,2.168,4.186,2.168c1.927,0,3.04-1.476,3.04-3.162
	c0-1.986-1.054-3.161-2.859-3.161c-1.354,0-2.379,0.482-3.312,1.656l-2.922-0.783V26.146h12.043v3.552h-8.009v5.148
	c0.784-0.963,2.138-1.656,3.673-1.656c3.041,0,5.48,2.379,5.48,6.533c0,4.034-2.739,6.864-7.015,6.864
	C96.913,46.588,94.775,45.443,93.271,43.427"/>
<path fill="#FFFFFF" d="M108.651,36.201c0-5.178,2.137-10.356,7.105-10.356c4.997,0,7.105,5.178,7.105,10.356
	c0,5.148-2.077,10.387-7.105,10.387C110.789,46.588,108.651,41.35,108.651,36.201 M118.768,36.201c0-3.883-0.663-6.773-3.011-6.773
	c-2.318,0-2.98,2.891-2.98,6.773c0,3.854,0.662,6.804,2.98,6.804C118.104,43.005,118.768,40.055,118.768,36.201"/>
<polygon fill="#FFFFFF" points="135.413,46.227 130.777,38.369 129.362,40.597 129.362,46.227 125.328,46.227 125.328,26.146 
	129.362,26.146 129.362,35.269 135.021,26.146 139.719,26.146 133.306,35.6 140.17,46.227 "/>
<polygon fill="#FFFFFF" points="87.902,33.239 80.444,32.108 77.123,25.01 73.803,32.108 66.344,33.239 71.734,38.773 
	70.386,46.568 77.123,42.887 83.859,46.568 82.513,38.773 "/>
<polygon fill="#FFFFFF" points="167.568,33.239 160.11,32.108 156.789,25.01 153.47,32.108 146.011,33.239 151.4,38.773 
	150.053,46.568 156.789,42.887 163.526,46.568 162.18,38.773 "/>
</svg>
