<?xml version="1.0" encoding="utf-8"?>
<!-- Generator: Adobe Illustrator 16.0.0, SVG Export Plug-In . SVG Version: 6.00 Build 0)  -->
<!DOCTYPE svg PUBLIC "-//W3C//DTD SVG 1.1//EN" "http://www.w3.org/Graphics/SVG/1.1/DTD/svg11.dtd">
<svg version="1.1" id="Layer_1" xmlns="http://www.w3.org/2000/svg" xmlns:xlink="http://www.w3.org/1999/xlink" x="0px" y="0px"
	 width="240px" height="200px" viewBox="0 0 240 200" enable-background="new 0 0 240 200" xml:space="preserve">
<path fill="none" d="M53.764,2645.837"/>
<path fill="none" d="M53.764-599.76"/>
<path fill="#F26D7C" d="M55.653,51.053v19.561v47.958c0,34.371,62.235,62.233,62.235,62.233s62.235-27.862,62.235-62.233V70.613
	V51.053H55.653z"/>
<g opacity="0.6">
	<g>
		<g>
			<defs>
				<rect id="SVGID_1_" x="117.763" y="49.87" width="60.026" height="127.569"/>
			</defs>
			<clipPath id="SVGID_2_">
				<use xlink:href="#SVGID_1_"  overflow="visible"/>
			</clipPath>
			<path clip-path="url(#SVGID_2_)" fill="#DF2F55" d="M117.892,177.444c5.59-2.753,17.618-9.048,29.467-17.651
				c9.191-6.674,16.455-13.392,21.589-19.967c5.866-7.515,8.842-14.724,8.842-21.427V71.175V49.87h-60.025v127.511
				C117.806,177.402,117.851,177.425,117.892,177.444"/>
		</g>
	</g>
</g>
<g opacity="0.4">
	<g>
		<g>
			<defs>
				<rect id="SVGID_3_" x="53.287" y="46.08" width="129.201" height="137.188"/>
			</defs>
			<clipPath id="SVGID_4_">
				<use xlink:href="#SVGID_3_"  overflow="visible"/>
			</clipPath>
			<path clip-path="url(#SVGID_4_)" fill="#FFFFFF" d="M168.691,59.875v9.015v49.78c0,18.229-31.246,39.338-50.803,49.296
				c-19.566-9.964-50.804-31.068-50.804-49.296V68.89v-9.015H168.691 M182.488,46.078H53.287V68.89v49.78
				c0,35.679,64.601,64.602,64.601,64.602s64.6-28.923,64.6-64.602V68.89V46.078z"/>
		</g>
	</g>
</g>
<path fill="#1A1A19" d="M174.963,53.604V68.89v49.78c0,8.39-5.029,22.043-28.996,39.445c-11.291,8.199-22.754,14.197-28.082,16.82
	c-5.288-2.601-16.619-8.526-27.885-16.683c-24.124-17.463-29.188-31.164-29.188-39.584v-49.78V53.603L174.963,53.604
	 M182.488,46.078H53.287V68.89v49.78c0,35.679,64.601,64.602,64.601,64.602s64.6-28.923,64.6-64.602V68.89V46.078z"/>
<path fill="#1A1A19" d="M58.305,29.454c-2.741,0.32-4.983,2.84-4.983,5.6v25.574c0,2.76,2.258,5.017,5.017,5.017H177.43
	c2.76,0,5.016-2.257,5.016-5.017V35.054c0-2.759-2.24-5.277-4.981-5.597l-54.714-6.366c-2.741-0.318-7.225-0.317-9.966,0.002
	L58.305,29.454z"/>
<path fill="#FFFFFF" d="M110.436,50.111c0-2.438,1.777-4.456,3.824-5.238c-1.897-0.692-3.553-2.317-3.553-4.787
	c0-3.673,3.342-5.238,6.654-5.238c3.25,0,6.653,1.564,6.653,5.238c0,2.469-1.686,4.094-3.582,4.787
	c2.047,0.782,3.854,2.8,3.854,5.208c0,3.583-2.95,5.509-6.924,5.509C113.357,55.59,110.436,53.664,110.436,50.111 M120.221,49.569
	c0-1.927-2.047-2.92-2.86-3.041c-0.843,0.121-2.86,1.114-2.86,3.041c0,1.596,1.234,2.499,2.86,2.499
	C118.927,52.068,120.221,51.166,120.221,49.569 M119.949,40.748c0-1.475-1.022-2.378-2.588-2.378c-1.596,0-2.619,0.903-2.619,2.378
	c0,1.716,1.836,2.499,2.619,2.681C118.114,43.247,119.949,42.464,119.949,40.748"/>
<path fill="#FFFFFF" d="M131.271,148.653c-17.02,7.085-36.558-0.968-43.643-17.985c-7.085-17.017,0.967-36.556,17.984-43.641
	c17.018-7.085,36.557,0.967,43.642,17.984C156.341,122.029,148.289,141.568,131.271,148.653"/>
<path fill="#191818" d="M117.935,93.641c0,0-0.002,0.021-0.004,0.055h0.01C117.937,93.661,117.935,93.641,117.935,93.641"/>
<path fill="#F26D7C" d="M147.047,101.726c-5.725-10.041-17.25-16.649-28.429-16.389l-0.292,3.321l0.785,29.624l32.283,0.335
	L147.047,101.726z"/>
<path fill="#191818" d="M117.938,93.667c0.002,0.015,0.537,0.026,1.197,0.026c0.657,0,1.191-0.562,1.191-1.254v-5.771
	c0-0.692-0.561-1.254-1.254-1.254h-1.636c-0.693,0-1.254,0.563-1.254,1.254v5.771c0,0.692,0.391,1.254,0.874,1.254
	s0.876-0.013,0.877-0.026S117.936,93.652,117.938,93.667"/>
<path fill="#191818" d="M151.115,119.095v-1.636c0-0.693-0.563-1.255-1.254-1.255h-5.687c-0.692,0-1.255,0.562-1.255,1.255v1.636
	c0,0.693,0.563,1.254,1.255,1.254h5.687C150.553,120.349,151.115,119.788,151.115,119.095"/>
<path fill="#191818" d="M85.393,117.458v1.637c0,0.692,0.562,1.255,1.254,1.255h5.519c0.693,0,1.254-0.563,1.254-1.255v-1.637
	c0-0.692-0.561-1.254-1.254-1.254h-5.519C85.955,116.204,85.393,116.766,85.393,117.458"/>
<path fill="#191818" d="M117.436,151.138h1.636c0.693,0,1.255-0.562,1.255-1.254v-5.436c0-0.692-0.562-1.254-1.255-1.254h-1.636
	c-0.693,0-1.254,0.562-1.254,1.254v5.436C116.182,150.576,116.743,151.138,117.436,151.138"/>
<g opacity="0.6">
	<g>
		<g>
			<defs>
				<rect id="SVGID_5_" x="89.627" y="89.65" width="57.254" height="57.25"/>
			</defs>
			<clipPath id="SVGID_6_">
				<use xlink:href="#SVGID_5_"  overflow="visible"/>
			</clipPath>
			<path clip-path="url(#SVGID_6_)" fill="#DF2F55" d="M101.824,89.818c-0.6,0.346-0.805,1.112-0.459,1.713l2.849,4.935
				c0.346,0.601,1.115,0.809,1.717,0.466s0.809-1.106,0.463-1.707l-2.857-4.947C103.19,89.677,102.424,89.472,101.824,89.818"/>
		</g>
		<g>
			<defs>
				<rect id="SVGID_7_" x="89.627" y="89.65" width="57.254" height="57.25"/>
			</defs>
			<clipPath id="SVGID_8_">
				<use xlink:href="#SVGID_7_"  overflow="visible"/>
			</clipPath>
			<path clip-path="url(#SVGID_8_)" fill="#DF2F55" d="M89.795,101.846c-0.346,0.602-0.141,1.367,0.459,1.713l4.868,2.812
				c0.599,0.346,1.363,0.139,1.705-0.464c0.342-0.604,0.133-1.371-0.467-1.719l-4.852-2.802
				C90.909,101.041,90.142,101.246,89.795,101.846"/>
		</g>
		<g>
			<defs>
				<rect id="SVGID_9_" x="89.627" y="89.65" width="57.254" height="57.25"/>
			</defs>
			<clipPath id="SVGID_10_">
				<use xlink:href="#SVGID_9_"  overflow="visible"/>
			</clipPath>
			<path clip-path="url(#SVGID_10_)" fill="#DF2F55" d="M89.795,134.707c0.346,0.6,1.113,0.805,1.713,0.459l4.719-2.725
				c0.6-0.347,0.805-1.112,0.457-1.711c-0.348-0.601-1.117-0.806-1.717-0.458l-4.713,2.722
				C89.654,133.34,89.45,134.107,89.795,134.707"/>
		</g>
		<g>
			<defs>
				<rect id="SVGID_11_" x="89.627" y="89.65" width="57.254" height="57.25"/>
			</defs>
			<clipPath id="SVGID_12_">
				<use xlink:href="#SVGID_11_"  overflow="visible"/>
			</clipPath>
			<path clip-path="url(#SVGID_12_)" fill="#DF2F55" d="M101.824,146.735c0.6,0.346,1.367,0.141,1.713-0.459l2.71-4.694
				c0.347-0.6,0.14-1.365-0.461-1.709c-0.601-0.345-1.369-0.137-1.716,0.463l-2.705,4.688
				C101.019,145.621,101.224,146.389,101.824,146.735"/>
		</g>
		<g>
			<defs>
				<rect id="SVGID_13_" x="89.627" y="89.65" width="57.254" height="57.25"/>
			</defs>
			<clipPath id="SVGID_14_">
				<use xlink:href="#SVGID_13_"  overflow="visible"/>
			</clipPath>
			<path clip-path="url(#SVGID_14_)" fill="#DF2F55" d="M134.686,146.735c0.601-0.348,0.806-1.114,0.459-1.714l-2.746-4.755
				c-0.346-0.601-1.114-0.809-1.717-0.467c-0.602,0.344-0.809,1.107-0.463,1.707l2.754,4.77
				C133.318,146.876,134.084,147.081,134.686,146.735"/>
		</g>
		<g>
			<defs>
				<rect id="SVGID_15_" x="89.627" y="89.65" width="57.254" height="57.25"/>
			</defs>
			<clipPath id="SVGID_16_">
				<use xlink:href="#SVGID_15_"  overflow="visible"/>
			</clipPath>
			<path clip-path="url(#SVGID_16_)" fill="#DF2F55" d="M146.713,134.707c0.346-0.6,0.141-1.367-0.459-1.713l-4.852-2.801
				c-0.6-0.347-1.363-0.14-1.705,0.464c-0.342,0.602-0.133,1.371,0.467,1.718l4.836,2.791
				C145.6,135.512,146.367,135.307,146.713,134.707"/>
		</g>
		<g>
			<defs>
				<rect id="SVGID_17_" x="89.627" y="89.65" width="57.254" height="57.25"/>
			</defs>
			<clipPath id="SVGID_18_">
				<use xlink:href="#SVGID_17_"  overflow="visible"/>
			</clipPath>
			<path clip-path="url(#SVGID_18_)" fill="#DF2F55" d="M146.713,101.846c-0.346-0.6-1.113-0.805-1.713-0.459l-4.99,2.881
				c-0.6,0.348-0.805,1.113-0.455,1.714c0.348,0.598,1.115,0.803,1.715,0.457l4.984-2.879
				C146.854,103.213,147.059,102.446,146.713,101.846"/>
		</g>
		<g>
			<defs>
				<rect id="SVGID_19_" x="89.627" y="89.65" width="57.254" height="57.25"/>
			</defs>
			<clipPath id="SVGID_20_">
				<use xlink:href="#SVGID_19_"  overflow="visible"/>
			</clipPath>
			<path clip-path="url(#SVGID_20_)" fill="#DF2F55" d="M134.686,89.818c-0.602-0.347-1.367-0.142-1.713,0.459l-2.897,5.017
				c-0.347,0.601-0.14,1.365,0.461,1.71c0.603,0.344,1.371,0.138,1.717-0.463l2.892-5.01
				C135.49,90.931,135.285,90.164,134.686,89.818"/>
		</g>
	</g>
</g>
<path fill="#191818" d="M118.189,153.783c-14.367,0-27.218-8.57-32.739-21.833c-7.514-18.045,1.055-38.838,19.101-46.352
	c4.353-1.813,8.933-2.731,13.611-2.731c14.367,0,27.218,8.569,32.74,21.833c7.512,18.045-1.057,38.838-19.103,46.351
	C127.447,152.864,122.867,153.783,118.189,153.783 M118.163,87.012c-4.128,0-8.172,0.813-12.019,2.413
	c-15.935,6.634-23.502,24.997-16.867,40.934c4.876,11.713,16.225,19.28,28.913,19.28c4.128,0,8.171-0.813,12.018-2.414
	c15.937-6.634,23.503-24.996,16.869-40.932C142.199,94.58,130.852,87.012,118.163,87.012"/>
<path fill="#191818" d="M101.985,85.426c0,2.1-1.701,3.8-3.799,3.8c-2.099,0-3.8-1.701-3.8-3.8c0-2.098,1.701-3.8,3.8-3.8
	C100.284,81.626,101.985,83.328,101.985,85.426"/>
<path fill="#F26D7C" d="M124.874,78.491c0,3.711-3.008,6.719-6.719,6.719c-3.71,0-6.718-3.008-6.718-6.719s3.008-6.719,6.718-6.719
	C121.866,71.772,124.874,74.78,124.874,78.491"/>
<path fill="#191818" d="M118.346,86.515c-4.437,0-8.046-3.608-8.046-8.046c0-4.436,3.609-8.046,8.046-8.046s8.044,3.61,8.044,8.046
	C126.391,82.906,122.783,86.515,118.346,86.515 M118.346,74.567c-2.151,0-3.901,1.75-3.901,3.9c0,2.152,1.75,3.902,3.901,3.902
	c2.151,0,3.901-1.75,3.901-3.902C122.247,76.317,120.497,74.567,118.346,74.567"/>
<path fill="#191818" d="M131.971,86.168l2.586-3.061c0.896-1.059,2.479-1.19,3.537-0.297l12.029,10.172
	c1.059,0.894,1.191,2.477,0.297,3.534l-2.588,3.062L131.971,86.168z"/>
<path fill="#191818" d="M115.014,118.479c0.005,1.914,1.561,3.461,3.474,3.455c1.915-0.006,3.461-1.562,3.456-3.476
	c-0.006-1.912-3.354-15.377-3.354-15.377S115.009,116.566,115.014,118.479"/>
<path fill="#191818" d="M119.475,114.703c-1.913-0.023-3.482,1.508-3.507,3.42c-0.025,1.914,1.507,3.484,3.419,3.51
	c1.914,0.023,15.432-3.367,15.432-3.367S121.389,114.728,119.475,114.703"/>
<polygon fill="#F26D7C" points="92.507,42.458 80.768,45.167 69.931,42.458 69.931,36.136 80.768,38.846 92.507,36.136 "/>
<polygon fill="#F26D7C" points="92.507,51.488 80.768,54.197 69.931,51.488 69.931,45.167 80.768,47.876 92.507,45.167 "/>
<polygon fill="#F26D7C" points="166.871,42.458 155.131,45.167 144.295,42.458 144.295,36.136 155.131,38.846 166.871,36.136 "/>
<polygon fill="#F26D7C" points="166.871,51.488 155.131,54.197 144.295,51.488 144.295,45.167 155.131,47.876 166.871,45.167 "/>
</svg>
