<?xml version="1.0" encoding="utf-8"?>
<!-- Generator: Adobe Illustrator 16.0.0, SVG Export Plug-In . SVG Version: 6.00 Build 0)  -->
<!DOCTYPE svg PUBLIC "-//W3C//DTD SVG 1.1//EN" "http://www.w3.org/Graphics/SVG/1.1/DTD/svg11.dtd">
<svg version="1.1" id="Layer_1" xmlns="http://www.w3.org/2000/svg" xmlns:xlink="http://www.w3.org/1999/xlink" x="0px" y="0px"
	 width="612px" height="792px" viewBox="0 0 612 792" enable-background="new 0 0 612 792" xml:space="preserve">
<path fill="#FECF0A" d="M243,333.507v19.819v48.595c0,34.827,63.062,63.062,63.062,63.062s63.062-28.234,63.062-63.062v-48.595
	v-19.819H243z"/>
<g opacity="0.6">
	<g>
		<defs>
			<rect id="SVGID_1_" x="305.94" y="333.19" width="60.02" height="127.57"/>
		</defs>
		<clipPath id="SVGID_2_">
			<use xlink:href="#SVGID_1_"  overflow="visible"/>
		</clipPath>
		<path clip-path="url(#SVGID_2_)" fill="#CDA72C" d="M306.065,460.76c5.589-2.752,17.619-9.047,29.468-17.651
			c9.19-6.673,16.453-13.392,21.588-19.966c5.865-7.514,8.841-14.723,8.841-21.428v-47.224v-21.305h-60.025v127.511
			C305.979,460.719,306.024,460.74,306.065,460.76"/>
	</g>
</g>
<g opacity="0.4">
	<g>
		<defs>
			<rect id="SVGID_3_" x="241.46" y="329.39" width="129.2" height="137.2"/>
		</defs>
		<clipPath id="SVGID_4_">
			<use xlink:href="#SVGID_3_"  overflow="visible"/>
		</clipPath>
		<path clip-path="url(#SVGID_4_)" fill="#FFFFFF" d="M356.864,343.19v9.015v49.781c0,18.215-31.2,39.305-50.76,49.273
			c-5.696-2.924-14.984-8.061-24.254-14.771c-17.149-12.413-26.593-24.667-26.593-34.503v-49.781v-9.015H356.864 M370.662,329.395
			H241.46v22.811v49.781c0,35.677,64.601,64.6,64.601,64.6s64.601-28.923,64.601-64.6v-49.781V329.395z"/>
	</g>
</g>
<path fill="#1A1A19" d="M363.137,336.919v15.286v49.781c0,8.389-5.031,22.042-28.997,39.445
	c-11.29,8.197-22.75,14.195-28.078,16.818c-5.33-2.625-16.79-8.623-28.079-16.818c-23.966-17.403-28.997-31.057-28.997-39.445
	v-49.781v-15.286H363.137 M370.662,329.395H241.46v22.811v49.781c0,35.677,64.601,64.6,64.601,64.6s64.601-28.923,64.601-64.6
	v-49.781V329.395z"/>
<path fill="#1A1A19" d="M246.478,312.77c-2.741,0.32-4.983,2.84-4.983,5.599v25.574c0,2.76,2.258,5.017,5.017,5.017h119.091
	c2.759,0,5.016-2.257,5.016-5.017v-25.574c0-2.759-2.242-5.278-4.982-5.597l-54.715-6.366c-2.74-0.319-7.225-0.318-9.966,0.002
	L246.478,312.77z"/>
<path fill="#FFFFFF" d="M282.295,335.655l2.409-2.529c1.023,1.325,2.619,2.198,4.304,2.198c2.108,0,3.072-1.114,3.072-2.679
	c0-1.867-1.295-2.53-3.252-2.53c-0.662,0-1.566,0-1.866,0.061v-3.643c0.3,0.03,1.294,0.03,1.776,0.03c1.836,0,3.07-0.752,3.07-2.318
	c0-1.686-1.204-2.499-2.95-2.499c-1.565,0-2.98,0.723-4.004,2.017l-2.288-2.348c1.445-2.017,3.733-3.252,6.623-3.252
	c3.974,0,6.593,1.897,6.593,5.45c0,2.288-1.716,4.154-3.793,4.576c2.047,0.301,4.095,2.106,4.095,4.816c0,3.492-2.68,5.9-6.895,5.9
	C285.998,338.906,283.56,337.491,282.295,335.655"/>
<path fill="#FFFFFF" d="M297.797,328.52c0-5.178,2.138-10.355,7.104-10.355c4.998,0,7.105,5.178,7.105,10.355
	c0,5.148-2.077,10.388-7.105,10.388C299.935,338.907,297.797,333.668,297.797,328.52 M307.912,328.52
	c0-3.883-0.662-6.772-3.011-6.772c-2.318,0-2.979,2.89-2.979,6.772c0,3.854,0.662,6.805,2.979,6.805
	C307.25,335.324,307.912,332.374,307.912,328.52"/>
<polygon fill="#FFFFFF" points="324.559,338.545 319.922,330.688 318.508,332.915 318.508,338.545 314.473,338.545 314.473,318.465 
	318.508,318.465 318.508,327.587 324.167,318.465 328.864,318.465 322.451,327.918 329.315,338.545 "/>
<path fill="#FFFFFF" d="M339.985,406.808c0,9.819-7.96,17.779-17.779,17.779h-32.395c-9.819,0-17.779-7.96-17.779-17.779v-22.593
	c0-9.819,7.96-17.779,17.779-17.779h32.395c9.819,0,17.779,7.96,17.779,17.779V406.808z"/>
<path fill="#231F20" d="M322.206,426.594h-32.395c-10.91,0-19.786-8.877-19.786-19.786v-22.593c0-10.91,8.876-19.786,19.786-19.786
	h32.395c10.91,0,19.786,8.876,19.786,19.786v22.593C341.992,417.717,333.116,426.594,322.206,426.594 M289.811,368.442
	c-8.697,0-15.772,7.076-15.772,15.772v22.593c0,8.696,7.075,15.772,15.772,15.772h32.395c8.697,0,15.772-7.076,15.772-15.772
	v-22.593c0-8.696-7.075-15.772-15.772-15.772H289.811z"/>
<path fill="#FECF0A" d="M331.762,399.66c0,7.602-6.164,13.766-13.766,13.766l-37.74-13.766v-12.219
	c0-7.602,6.163-13.765,13.765-13.765h23.975c7.602,0,13.766,6.163,13.766,13.765V399.66z"/>
<g opacity="0.6">
	<g>
		<defs>
			<rect id="SVGID_5_" x="288.53" y="381.43" width="35.52" height="16.311"/>
		</defs>
		<clipPath id="SVGID_6_">
			<use xlink:href="#SVGID_5_"  overflow="visible"/>
		</clipPath>
		<rect x="288.529" y="381.431" clip-path="url(#SVGID_6_)" fill="#CDA72C" width="35.516" height="16.311"/>
	</g>
</g>
<path fill="#FECF0A" d="M290.446,409.572c0,2.129-1.725,3.854-3.853,3.854c-2.127,0-3.852-1.725-3.852-3.854
	c0-2.128,1.725-3.853,3.852-3.853C288.721,405.72,290.446,407.444,290.446,409.572"/>
<path fill="#FECF0A" d="M298.127,410.878c0,1.407-1.141,2.547-2.547,2.547c-1.407,0-2.548-1.14-2.548-2.547s1.141-2.547,2.548-2.547
	C296.986,408.331,298.127,409.471,298.127,410.878"/>
<path fill="#191818" d="M290.034,364.828v-2.978c0-1.386,1.123-2.509,2.508-2.509h26.698c1.385,0,2.508,1.123,2.508,2.509v2.978
	H290.034z"/>
<path fill="#191818" d="M290.034,426.066v2.979c0,1.386,1.123,2.509,2.508,2.509h26.698c1.385,0,2.508-1.123,2.508-2.509v-2.979
	H290.034z"/>
<path fill="#1A1A19" d="M327.278,458.896c-10.386,6.446-19.063,10.539-20.966,11.416c-1.905-0.877-10.58-4.97-20.967-11.416v0.492
	c-0.003-0.002,0.004-0.005,0-0.007v15.052c11.415,7.013,20.568,11.111,20.568,11.111l0.399-0.001l0.399,0.001
	c0,0,9.152-4.099,20.567-11.111v-15.052c-0.005,0.002,0.004,0.005,0,0.007V458.896z"/>
<path fill="#1A1A19" d="M282.029,457.76c-9.748-6.171-20.759-14.313-29.014-23.745v15.052c8.118,9.568,19.145,17.857,29.014,24.17
	v-15.052c-0.004-0.002,0.003-0.005,0-0.007V457.76z"/>
<path fill="#1A1A19" d="M330.595,457.76v0.418c-0.005,0.002,0.003,0.005,0,0.007v15.052c9.868-6.313,20.895-14.602,29.014-24.17
	v-15.052C351.353,443.447,340.342,451.589,330.595,457.76"/>
<path fill="#010101" d="M230.537,433.172c0.916-0.019,1.783-0.027,2.638,0.014c-3.211-4.571-2.29-10.164-4.058-15.119l0.017-0.219
	c5.329,2.008,8.124,6.7,10.731,11.656c1.862,3.593,3.683,7.274,6.339,9.994c-1.109,0.08-2.153,0.229-3.234,0.389
	c-1.122,0.163-2.275,0.386-3.435,0.691c-2.306,0.136-4.581,0.238-6.732,0.168c-4.035-0.172-7.795-0.855-11.037-2.606
	c-1.502-0.798-2.902-1.849-4.131-3.161c0.949-0.154,1.992-0.342,3.028-0.525C223.928,433.899,227.362,433.33,230.537,433.172"/>
<path fill="#010101" d="M220.482,415.625c1.062,1.399,2.535,2.592,3.517,4.192c0.273,0.794,0.599,1.55,0.922,2.329
	c0.784,2.099,1.378,4.127,0.792,5.831c-2.665-1.042-5.366-2.283-7.721-4.484c-1.341-1.616-2.338-3.36-3.036-5.243
	c-1.11-2.955-1.453-6.194-1.075-9.59c0.008-0.113,0.033-0.178,0.025-0.252l0.3-0.285c0.113,0.265,0.263,0.539,0.409,0.824
	C216.041,411.545,218.127,413.424,220.482,415.625"/>
<path fill="#010101" d="M380.661,433.172c-0.916-0.019-1.783-0.027-2.638,0.014c3.211-4.571,2.289-10.164,4.058-15.119l-0.017-0.219
	c-5.329,2.008-8.125,6.7-10.731,11.656c-1.862,3.593-3.683,7.274-6.339,9.994c1.109,0.08,2.152,0.229,3.234,0.389
	c1.121,0.163,2.274,0.386,3.435,0.691c2.306,0.136,4.581,0.238,6.731,0.168c4.035-0.172,7.795-0.855,11.037-2.606
	c1.502-0.798,2.902-1.849,4.131-3.161c-0.948-0.154-1.991-0.342-3.027-0.525C387.27,433.899,383.837,433.33,380.661,433.172"/>
<path fill="#010101" d="M392.143,415.625c-1.063,1.399-2.535,2.592-3.518,4.192c-0.273,0.794-0.6,1.55-0.922,2.329
	c-0.784,2.099-1.378,4.127-0.792,5.831c2.665-1.042,5.366-2.283,7.721-4.484c1.341-1.616,2.338-3.36,3.036-5.243
	c1.11-2.955,1.453-6.194,1.075-9.59c-0.009-0.113-0.033-0.178-0.025-0.252l-0.3-0.285c-0.113,0.265-0.263,0.539-0.409,0.824
	C396.583,411.545,394.497,413.424,392.143,415.625"/>
<polygon fill="#FFFFFF" points="277.258,325.558 269.798,324.427 266.479,317.329 263.158,324.427 255.699,325.558 261.088,331.092 
	259.741,338.887 266.479,335.206 273.215,338.887 271.869,331.092 "/>
<polygon fill="#FFFFFF" points="356.924,325.558 349.467,324.427 346.145,317.329 342.825,324.427 335.366,325.558 340.756,331.092 
	339.408,338.887 346.145,335.206 352.882,338.887 351.535,331.092 "/>
</svg>
