<?xml version="1.0" encoding="utf-8"?>
<!-- Generator: Adobe Illustrator 16.0.0, SVG Export Plug-In . SVG Version: 6.00 Build 0)  -->
<!DOCTYPE svg PUBLIC "-//W3C//DTD SVG 1.1//EN" "http://www.w3.org/Graphics/SVG/1.1/DTD/svg11.dtd">
<svg version="1.1" id="Layer_1" xmlns="http://www.w3.org/2000/svg" xmlns:xlink="http://www.w3.org/1999/xlink" x="0px" y="0px"
	 width="240px" height="200px" viewBox="0 0 240 200" enable-background="new 0 0 240 200" xml:space="preserve">
<path fill="none" d="M53.764,2645.837"/>
<path fill="none" d="M53.764-599.76"/>
<path fill="#1A1A19" d="M139.145,166.522c-10.387,6.445-19.063,10.537-20.967,11.415c-1.905-0.878-10.58-4.97-20.967-11.416v0.492
	c-0.003-0.002,0.004-0.005,0-0.007v15.051c11.415,7.015,20.568,11.112,20.568,11.112l0.399-0.001l0.399,0.001
	c0,0,9.151-4.099,20.567-11.112v-15.051c-0.006,0.002,0.004,0.005,0,0.007V166.522L139.145,166.522z"/>
<path fill="#FFFFFF" d="M93.896,165.386c-9.748-6.171-20.759-14.313-29.014-23.745v15.052c8.118,9.568,19.145,17.857,29.014,24.17
	v-15.052c-0.004-0.002,0.003-0.005,0-0.007V165.386z"/>
<path fill="#FFFFFF" d="M142.461,165.386v0.418c-0.005,0.002,0.002,0.005,0,0.007v15.052c9.868-6.313,20.895-14.602,29.014-24.17
	v-15.052C163.219,151.072,152.208,159.215,142.461,165.386"/>
<path fill="#F26D7C" d="M56.233,42.355v19.468v47.733c0,34.211,61.945,61.944,61.945,61.944s61.945-27.733,61.945-61.944V61.823
	V42.355H56.233z"/>
<g opacity="0.6">
	<g>
		<g>
			<defs>
				<rect id="SVGID_1_" x="118.05" y="40.87" width="60.03" height="127.569"/>
			</defs>
			<clipPath id="SVGID_2_">
				<use xlink:href="#SVGID_1_"  overflow="visible"/>
			</clipPath>
			<path clip-path="url(#SVGID_2_)" fill="#DF2F55" d="M118.182,168.444c5.589-2.753,17.619-9.048,29.468-17.651
				c9.189-6.674,16.453-13.392,21.588-19.967c5.865-7.515,8.841-14.724,8.841-21.427V62.175V40.87h-60.024v127.511
				C118.096,168.402,118.141,168.425,118.182,168.444"/>
		</g>
	</g>
</g>
<g opacity="0.4">
	<g>
		<g>
			<defs>
				<rect id="SVGID_3_" x="53.58" y="37.08" width="129.199" height="137.188"/>
			</defs>
			<clipPath id="SVGID_4_">
				<use xlink:href="#SVGID_3_"  overflow="visible"/>
			</clipPath>
			<path clip-path="url(#SVGID_4_)" fill="#FFFFFF" d="M168.98,50.875v9.015v49.78c0,18.229-31.246,39.338-50.802,49.296
				c-19.566-9.964-50.804-31.068-50.804-49.296V59.89v-9.015H168.98 M182.777,37.078h-129.2V59.89v49.78
				c0,35.679,64.601,64.602,64.601,64.602s64.6-28.923,64.6-64.602V59.89V37.078L182.777,37.078z"/>
		</g>
	</g>
</g>
<path fill="#1A1A19" d="M175.253,44.604V59.89v49.78c0,8.39-5.03,22.043-28.997,39.445c-11.291,8.199-22.754,14.197-28.081,16.82
	c-5.288-2.601-16.619-8.526-27.885-16.683c-24.124-17.463-29.188-31.164-29.188-39.584v-49.78V44.603L175.253,44.604
	 M182.777,37.078h-129.2V59.89v49.78c0,35.679,64.601,64.602,64.601,64.602s64.6-28.923,64.6-64.602V59.89V37.078L182.777,37.078z"
	/>
<path fill="#1A1A19" d="M58.595,20.454c-2.741,0.32-4.983,2.84-4.983,5.6v25.574c0,2.76,2.258,5.017,5.017,5.017h119.092
	c2.758,0,5.016-2.257,5.016-5.017V26.054c0-2.759-2.241-5.277-4.982-5.597l-54.714-6.366c-2.741-0.319-7.225-0.318-9.966,0.002
	L58.595,20.454z"/>
<polygon fill="#FFFFFF" points="109.749,46.229 109.749,31.357 106.708,34.519 104.39,32.079 110.291,26.148 113.813,26.148 
	113.813,46.229 "/>
<path fill="#FFFFFF" d="M116.761,46.229v-3.251c7.347-7.135,8.882-8.73,8.882-11.019c0-1.535-1.175-2.529-2.681-2.529
	c-1.774,0-3.19,0.813-4.274,2.258l-2.407-2.528c1.625-2.168,4.003-3.312,6.743-3.312c3.884,0,6.713,2.349,6.713,6.081
	c0,3.041-2.047,5.63-7.014,10.748h7.104v3.552H116.761L116.761,46.229z"/>
<path fill="#FFFFFF" d="M131.561,139.653c-17.017,7.085-36.556-0.968-43.641-17.985c-7.085-17.017,0.967-36.556,17.984-43.641
	c17.018-7.085,36.557,0.967,43.642,17.984S148.579,132.568,131.561,139.653"/>
<path fill="#191818" d="M118.225,84.641c0,0-0.002,0.021-0.004,0.055h0.01C118.227,84.661,118.225,84.641,118.225,84.641"/>
<path fill="#F26D7C" d="M147.337,92.726c-5.726-10.041-17.25-16.649-28.429-16.389l-0.292,3.321l0.786,29.624l32.283,0.335
	L147.337,92.726z"/>
<path fill="#191818" d="M118.228,84.667c0.002,0.015,0.538,0.026,1.196,0.026s1.193-0.562,1.193-1.254v-5.771
	c0-0.692-0.563-1.254-1.256-1.254h-1.635c-0.693,0-1.254,0.563-1.254,1.254v5.771c0,0.692,0.391,1.254,0.874,1.254
	c0.483,0,0.876-0.013,0.877-0.026C118.224,84.652,118.226,84.652,118.228,84.667"/>
<path fill="#191818" d="M151.404,110.095v-1.636c0-0.693-0.562-1.255-1.254-1.255h-5.687c-0.692,0-1.254,0.562-1.254,1.255v1.636
	c0,0.693,0.562,1.254,1.254,1.254h5.687C150.844,111.349,151.404,110.788,151.404,110.095"/>
<path fill="#191818" d="M85.683,108.458v1.637c0,0.692,0.562,1.255,1.254,1.255h5.519c0.693,0,1.254-0.563,1.254-1.255v-1.637
	c0-0.692-0.561-1.254-1.254-1.254h-5.519C86.245,107.204,85.683,107.766,85.683,108.458"/>
<path fill="#191818" d="M117.726,142.138h1.635c0.693,0,1.256-0.562,1.256-1.254v-5.436c0-0.692-0.563-1.254-1.256-1.254h-1.635
	c-0.693,0-1.254,0.562-1.254,1.254v5.436C116.472,141.576,117.033,142.138,117.726,142.138"/>
<path fill="#DF2F55" d="M102.114,80.818c-0.6,0.346-0.805,1.112-0.459,1.713l2.849,4.935c0.346,0.601,1.115,0.809,1.717,0.466
	s0.809-1.106,0.463-1.707l-2.857-4.947C103.48,80.677,102.714,80.472,102.114,80.818"/>
<path fill="#DF2F55" d="M90.085,92.846c-0.346,0.602-0.141,1.367,0.459,1.713l4.868,2.812c0.599,0.346,1.363,0.139,1.705-0.464
	c0.342-0.604,0.133-1.371-0.467-1.718l-4.852-2.802C91.198,92.041,90.432,92.246,90.085,92.846"/>
<path fill="#DF2F55" d="M90.085,125.707c0.346,0.6,1.113,0.805,1.713,0.459l4.719-2.725c0.6-0.347,0.805-1.112,0.457-1.711
	c-0.348-0.601-1.117-0.806-1.717-0.458l-4.713,2.722C89.944,124.34,89.739,125.107,90.085,125.707"/>
<path fill="#DF2F55" d="M102.114,137.735c0.6,0.346,1.367,0.141,1.713-0.459l2.71-4.694c0.347-0.6,0.14-1.365-0.461-1.709
	c-0.601-0.345-1.369-0.137-1.716,0.463l-2.705,4.688C101.309,136.621,101.514,137.389,102.114,137.735"/>
<path fill="#DF2F55" d="M134.975,137.735c0.601-0.348,0.805-1.114,0.459-1.714l-2.744-4.755c-0.347-0.601-1.114-0.809-1.717-0.467
	c-0.604,0.344-0.811,1.107-0.464,1.707l2.753,4.77C133.607,137.876,134.375,138.081,134.975,137.735"/>
<path fill="#DF2F55" d="M147.002,125.707c0.348-0.6,0.143-1.367-0.459-1.713l-4.85-2.801c-0.601-0.347-1.363-0.14-1.707,0.464
	c-0.342,0.602-0.133,1.371,0.469,1.718l4.834,2.791C145.891,126.512,146.656,126.307,147.002,125.707"/>
<path fill="#DF2F55" d="M147.002,92.846c-0.346-0.6-1.111-0.805-1.713-0.459l-4.989,2.881c-0.601,0.347-0.804,1.113-0.456,1.713
	c0.348,0.598,1.115,0.803,1.717,0.457l4.982-2.879C147.145,94.213,147.35,93.446,147.002,92.846"/>
<path fill="#DF2F55" d="M134.975,80.818c-0.6-0.347-1.367-0.142-1.713,0.459l-2.896,5.017c-0.346,0.601-0.141,1.365,0.462,1.71
	c0.603,0.344,1.368,0.138,1.715-0.463l2.894-5.01C135.779,81.931,135.574,81.164,134.975,80.818"/>
<path fill="#191818" d="M118.479,144.783c-14.366,0-27.217-8.57-32.739-21.833c-7.513-18.045,1.056-38.838,19.101-46.352
	c4.354-1.813,8.933-2.731,13.611-2.731c14.366,0,27.218,8.569,32.739,21.833c7.513,18.045-1.056,38.838-19.101,46.351
	C127.736,143.864,123.158,144.783,118.479,144.783 M118.452,78.012c-4.128,0-8.172,0.813-12.018,2.413
	c-15.935,6.634-23.502,24.997-16.868,40.934c4.876,11.713,16.226,19.28,28.913,19.28c4.128,0,8.171-0.813,12.019-2.414
	c15.936-6.634,23.502-24.996,16.868-40.932C142.489,85.58,131.141,78.012,118.452,78.012"/>
<path fill="#191818" d="M102.275,76.426c0,2.1-1.701,3.8-3.8,3.8c-2.098,0-3.799-1.701-3.799-3.8c0-2.098,1.701-3.8,3.799-3.8
	C100.574,72.626,102.275,74.328,102.275,76.426"/>
<path fill="#F26D7C" d="M125.164,69.491c0,3.711-3.008,6.719-6.719,6.719c-3.71,0-6.718-3.008-6.718-6.719s3.008-6.719,6.718-6.719
	C122.156,62.772,125.164,65.78,125.164,69.491"/>
<path fill="#191818" d="M118.636,77.515c-4.437,0-8.045-3.608-8.045-8.046c0-4.436,3.608-8.046,8.045-8.046
	c4.438,0,8.046,3.61,8.046,8.046C126.682,73.906,123.072,77.515,118.636,77.515 M118.636,65.567c-2.151,0-3.901,1.75-3.901,3.9
	c0,2.152,1.75,3.902,3.901,3.902c2.151,0,3.901-1.75,3.901-3.902C122.537,67.317,120.787,65.567,118.636,65.567"/>
<path fill="#191818" d="M132.26,77.168l2.588-3.061c0.896-1.059,2.479-1.19,3.535-0.297l12.03,10.172
	c1.058,0.894,1.19,2.477,0.296,3.534l-2.587,3.062L132.26,77.168z"/>
<path fill="#191818" d="M115.304,109.479c0.005,1.914,1.561,3.461,3.473,3.455c1.914-0.006,3.461-1.562,3.455-3.476
	c-0.004-1.912-3.354-15.377-3.354-15.377S115.299,107.566,115.304,109.479"/>
<path fill="#191818" d="M119.766,105.703c-1.914-0.023-3.483,1.508-3.509,3.42c-0.025,1.914,1.507,3.484,3.421,3.51
	c1.912,0.023,15.43-3.367,15.43-3.367S121.678,105.728,119.766,105.703"/>
<polygon fill="#FFFFFF" points="92.743,33.458 81.003,36.167 70.167,33.458 70.167,27.136 81.003,29.846 92.743,27.136 "/>
<polygon fill="#FFFFFF" points="92.743,42.488 81.003,45.197 70.167,42.488 70.167,36.167 81.003,38.876 92.743,36.167 "/>
<polygon fill="#FFFFFF" points="167.107,33.458 155.367,36.167 144.531,33.458 144.531,27.136 155.367,29.846 167.107,27.136 "/>
<polygon fill="#FFFFFF" points="167.107,42.488 155.367,45.197 144.531,42.488 144.531,36.167 155.367,38.876 167.107,36.167 "/>
</svg>
