<?xml version="1.0" encoding="utf-8"?>
<!-- Generator: Adobe Illustrator 16.0.0, SVG Export Plug-In . SVG Version: 6.00 Build 0)  -->
<!DOCTYPE svg PUBLIC "-//W3C//DTD SVG 1.1//EN" "http://www.w3.org/Graphics/SVG/1.1/DTD/svg11.dtd">
<svg version="1.1" id="Layer_1" xmlns="http://www.w3.org/2000/svg" xmlns:xlink="http://www.w3.org/1999/xlink" x="0px" y="0px"
	 width="612px" height="792px" viewBox="0 0 612 792" enable-background="new 0 0 612 792" xml:space="preserve">
<path fill="#FECF0A" d="M243.803,343.186V362.8v48.093c0,34.469,62.41,62.41,62.41,62.41s62.411-27.941,62.411-62.41V362.8v-19.614
	H243.803z"/>
<g opacity="0.6">
	<g>
		<defs>
			<rect id="SVGID_1_" x="306.088" y="342.19" width="60.025" height="127.57"/>
		</defs>
		<clipPath id="SVGID_2_">
			<use xlink:href="#SVGID_1_"  overflow="visible"/>
		</clipPath>
		<path clip-path="url(#SVGID_2_)" fill="#CDA72C" d="M306.216,469.76c5.59-2.752,17.619-9.047,29.467-17.651
			c9.191-6.673,16.455-13.392,21.588-19.966c5.867-7.514,8.842-14.723,8.842-21.428v-47.224v-21.305h-60.025v127.511
			C306.13,469.719,306.175,469.74,306.216,469.76"/>
	</g>
</g>
<g opacity="0.4">
	<g>
		<defs>
			<rect id="SVGID_3_" x="241.612" y="338.39" width="129.201" height="137.2"/>
		</defs>
		<clipPath id="SVGID_4_">
			<use xlink:href="#SVGID_3_"  overflow="visible"/>
		</clipPath>
		<path clip-path="url(#SVGID_4_)" fill="#FFFFFF" d="M357.016,352.19v9.015v49.781c0,18.215-31.199,39.305-50.76,49.273
			c-5.696-2.924-14.984-8.061-24.254-14.771c-17.149-12.413-26.593-24.667-26.593-34.503v-49.781v-9.015H357.016 M370.813,338.395
			h-129.2v22.811v49.781c0,35.677,64.601,64.6,64.601,64.6s64.6-28.923,64.6-64.6v-49.781V338.395z"/>
	</g>
</g>
<path fill="#1A1A19" d="M363.288,345.919v15.286v49.781c0,8.389-5.031,22.042-28.997,39.445
	c-11.291,8.199-22.754,14.197-28.081,16.82c-5.288-2.602-16.619-8.527-27.885-16.683c-24.124-17.462-29.188-31.164-29.188-39.583
	v-49.781v-15.286H363.288 M370.813,338.395h-129.2v22.811v49.781c0,35.677,64.601,64.6,64.601,64.6s64.6-28.923,64.6-64.6v-49.781
	V338.395z"/>
<path fill="#1A1A19" d="M246.629,321.77c-2.741,0.32-4.983,2.84-4.983,5.599v25.574c0,2.76,2.258,5.017,5.017,5.017h119.09
	c2.76,0,5.017-2.257,5.017-5.017v-25.574c0-2.759-2.242-5.278-4.983-5.597l-54.713-6.366c-2.742-0.319-7.226-0.318-9.967,0.002
	L246.629,321.77z"/>
<polygon fill="#FFFFFF" points="289.445,347.545 289.445,332.673 286.404,335.834 284.086,333.396 289.987,327.465 293.509,327.465 
	293.509,347.545 "/>
<path fill="#FFFFFF" d="M295.946,337.52c0-5.178,2.138-10.355,7.104-10.355c4.998,0,7.105,5.178,7.105,10.355
	c0,5.148-2.077,10.388-7.105,10.388C298.084,347.907,295.946,342.668,295.946,337.52 M306.062,337.52
	c0-3.883-0.663-6.772-3.011-6.772c-2.318,0-2.979,2.89-2.979,6.772c0,3.854,0.662,6.805,2.979,6.805
	C305.399,344.324,306.062,341.374,306.062,337.52"/>
<polygon fill="#FFFFFF" points="322.707,347.545 318.071,339.688 316.656,341.915 316.656,347.545 312.623,347.545 312.623,327.465 
	316.656,327.465 316.656,336.587 322.316,327.465 327.014,327.465 320.601,336.918 327.465,347.545 "/>
<path fill="#FFFFFF" d="M340.137,415.808c0,9.819-7.96,17.779-17.779,17.779h-32.395c-9.819,0-17.779-7.96-17.779-17.779v-22.593
	c0-9.819,7.96-17.779,17.779-17.779h32.395c9.819,0,17.779,7.96,17.779,17.779V415.808z"/>
<path fill="#231F20" d="M322.357,435.594h-32.395c-10.91,0-19.786-8.877-19.786-19.786v-22.593c0-10.91,8.876-19.786,19.786-19.786
	h32.395c10.91,0,19.786,8.876,19.786,19.786v22.593C342.144,426.717,333.268,435.594,322.357,435.594 M289.962,377.442
	c-8.697,0-15.772,7.076-15.772,15.772v22.593c0,8.696,7.075,15.772,15.772,15.772h32.395c8.697,0,15.771-7.076,15.771-15.772
	v-22.593c0-8.696-7.074-15.772-15.771-15.772H289.962z"/>
<path fill="#FECF0A" d="M331.912,408.66c0,7.602-6.162,13.766-13.765,13.766l-37.74-13.766v-12.219
	c0-7.602,6.163-13.765,13.765-13.765h23.975c7.603,0,13.765,6.163,13.765,13.765V408.66z"/>
<g opacity="0.6">
	<g>
		<defs>
			<rect id="SVGID_5_" x="288.68" y="390.43" width="35.515" height="16.311"/>
		</defs>
		<clipPath id="SVGID_6_">
			<use xlink:href="#SVGID_5_"  overflow="visible"/>
		</clipPath>
		<rect x="288.68" y="390.431" clip-path="url(#SVGID_6_)" fill="#CDA72C" width="35.515" height="16.311"/>
	</g>
</g>
<path fill="#FECF0A" d="M290.598,418.572c0,2.129-1.725,3.854-3.854,3.854c-2.127,0-3.852-1.725-3.852-3.854
	c0-2.128,1.725-3.853,3.852-3.853C288.873,414.72,290.598,416.444,290.598,418.572"/>
<path fill="#FECF0A" d="M298.279,419.878c0,1.407-1.141,2.547-2.547,2.547c-1.407,0-2.548-1.14-2.548-2.547s1.141-2.547,2.548-2.547
	C297.138,417.331,298.279,418.471,298.279,419.878"/>
<path fill="#191818" d="M290.186,373.828v-2.978c0-1.386,1.123-2.509,2.508-2.509h26.698c1.385,0,2.508,1.123,2.508,2.509v2.978
	H290.186z"/>
<path fill="#191818" d="M290.186,435.066v2.979c0,1.386,1.123,2.509,2.508,2.509h26.698c1.385,0,2.508-1.123,2.508-2.509v-2.979
	H290.186z"/>
<polygon fill="#FECF0A" points="275.569,335.925 263.83,338.634 252.994,335.925 252.994,329.604 263.83,332.313 275.569,329.604 
	"/>
<polygon fill="#FECF0A" points="275.569,344.956 263.83,347.665 252.994,344.956 252.994,338.635 263.83,341.344 275.569,338.635 
	"/>
<polygon fill="#FECF0A" points="359.934,335.925 348.193,338.634 337.357,335.925 337.357,329.604 348.193,332.313 359.934,329.604 
	"/>
<polygon fill="#FECF0A" points="359.934,344.956 348.193,347.665 337.357,344.956 337.357,338.635 348.193,341.344 359.934,338.635 
	"/>
</svg>
