<?xml version="1.0" encoding="utf-8"?>
<!-- Generator: Adobe Illustrator 16.0.0, SVG Export Plug-In . SVG Version: 6.00 Build 0)  -->
<!DOCTYPE svg PUBLIC "-//W3C//DTD SVG 1.1//EN" "http://www.w3.org/Graphics/SVG/1.1/DTD/svg11.dtd">
<svg version="1.1" id="Layer_1" xmlns="http://www.w3.org/2000/svg" xmlns:xlink="http://www.w3.org/1999/xlink" x="0px" y="0px"
	 width="612px" height="792px" viewBox="0 0 612 792" enable-background="new 0 0 612 792" xml:space="preserve">
<path fill="#FECF0A" d="M243.143,342.466v19.831v48.625c0,34.85,63.101,63.101,63.101,63.101s63.101-28.251,63.101-63.101v-48.625
	v-19.831H243.143z"/>
<g opacity="0.6">
	<g>
		<defs>
			<rect id="SVGID_1_" x="306.118" y="342.19" width="60.026" height="127.57"/>
		</defs>
		<clipPath id="SVGID_2_">
			<use xlink:href="#SVGID_1_"  overflow="visible"/>
		</clipPath>
		<path clip-path="url(#SVGID_2_)" fill="#CDA72C" d="M306.247,469.76c5.589-2.752,17.619-9.047,29.468-17.651
			c9.191-6.673,16.453-13.392,21.588-19.966c5.865-7.514,8.841-14.723,8.841-21.428v-47.224v-21.305h-60.025v127.511
			C306.161,469.719,306.206,469.74,306.247,469.76"/>
	</g>
</g>
<g opacity="0.4">
	<g>
		<defs>
			<rect id="SVGID_3_" x="241.642" y="338.39" width="129.201" height="137.2"/>
		</defs>
		<clipPath id="SVGID_4_">
			<use xlink:href="#SVGID_3_"  overflow="visible"/>
		</clipPath>
		<path clip-path="url(#SVGID_4_)" fill="#FFFFFF" d="M357.047,352.19v9.015v49.781c0,18.215-31.201,39.305-50.76,49.273
			c-5.696-2.924-14.984-8.061-24.254-14.771c-17.149-12.413-26.593-24.667-26.593-34.503v-49.781v-9.015H357.047 M370.844,338.395
			H241.643v22.811v49.781c0,35.677,64.601,64.6,64.601,64.6s64.601-28.923,64.601-64.6v-49.781V338.395z"/>
	</g>
</g>
<path fill="#1A1A19" d="M363.318,345.919v15.286v49.781c0,8.389-5.031,22.042-28.997,39.445
	c-11.291,8.199-22.754,14.197-28.081,16.82c-5.288-2.602-16.619-8.527-27.885-16.683c-24.124-17.462-29.188-31.164-29.188-39.583
	v-49.781v-15.286H363.318 M370.844,338.395H241.643v22.811v49.781c0,35.677,64.601,64.6,64.601,64.6s64.601-28.923,64.601-64.6
	v-49.781V338.395z"/>
<path fill="#1A1A19" d="M246.66,321.77c-2.741,0.32-4.983,2.84-4.983,5.599v25.574c0,2.76,2.258,5.017,5.017,5.017h119.09
	c2.76,0,5.017-2.257,5.017-5.017v-25.574c0-2.759-2.242-5.278-4.982-5.597l-54.715-6.366c-2.74-0.319-7.225-0.318-9.965,0.002
	L246.66,321.77z"/>
<path fill="#FFFFFF" d="M290.739,344.745l2.438-2.589c1.054,1.385,2.469,2.168,4.186,2.168c1.926,0,3.04-1.475,3.04-3.162
	c0-1.986-1.054-3.161-2.86-3.161c-1.355,0-2.378,0.482-3.312,1.656l-2.92-0.783v-11.409h12.042v3.551h-8.008v5.149
	c0.783-0.963,2.138-1.656,3.673-1.656c3.041,0,5.479,2.379,5.479,6.533c0,4.034-2.739,6.864-7.014,6.864
	C294.382,347.906,292.244,346.763,290.739,344.745"/>
<polygon fill="#FFFFFF" points="317.02,347.545 312.383,339.688 310.969,341.915 310.969,347.545 306.934,347.545 306.934,327.465 
	310.969,327.465 310.969,336.587 316.627,327.465 321.324,327.465 314.912,336.918 321.776,347.545 "/>
<path fill="#FFFFFF" d="M340.167,415.808c0,9.819-7.96,17.779-17.778,17.779h-32.396c-9.819,0-17.779-7.96-17.779-17.779v-22.593
	c0-9.819,7.96-17.779,17.779-17.779h32.396c9.818,0,17.778,7.96,17.778,17.779V415.808z"/>
<path fill="#231F20" d="M322.388,435.594h-32.395c-10.91,0-19.786-8.877-19.786-19.786v-22.593c0-10.91,8.876-19.786,19.786-19.786
	h32.395c10.91,0,19.786,8.876,19.786,19.786v22.593C342.174,426.717,333.298,435.594,322.388,435.594 M289.993,377.442
	c-8.697,0-15.772,7.076-15.772,15.772v22.593c0,8.696,7.075,15.772,15.772,15.772h32.395c8.697,0,15.772-7.076,15.772-15.772
	v-22.593c0-8.696-7.075-15.772-15.772-15.772H289.993z"/>
<path fill="#FECF0A" d="M331.943,408.66c0,7.602-6.164,13.766-13.766,13.766l-37.74-13.766v-12.219
	c0-7.602,6.163-13.765,13.765-13.765h23.975c7.602,0,13.766,6.163,13.766,13.765V408.66z"/>
<g opacity="0.6">
	<g>
		<defs>
			<rect id="SVGID_5_" x="288.71" y="390.43" width="35.517" height="16.311"/>
		</defs>
		<clipPath id="SVGID_6_">
			<use xlink:href="#SVGID_5_"  overflow="visible"/>
		</clipPath>
		<rect x="288.711" y="390.431" clip-path="url(#SVGID_6_)" fill="#CDA72C" width="35.516" height="16.311"/>
	</g>
</g>
<path fill="#FECF0A" d="M290.627,418.572c0,2.129-1.725,3.854-3.853,3.854c-2.127,0-3.852-1.725-3.852-3.854
	c0-2.128,1.725-3.853,3.852-3.853C288.902,414.72,290.627,416.444,290.627,418.572"/>
<path fill="#FECF0A" d="M298.309,419.878c0,1.407-1.141,2.547-2.547,2.547c-1.407,0-2.548-1.14-2.548-2.547s1.141-2.547,2.548-2.547
	C297.168,417.331,298.309,418.471,298.309,419.878"/>
<path fill="#191818" d="M290.216,373.828v-2.978c0-1.386,1.123-2.509,2.508-2.509h26.698c1.385,0,2.508,1.123,2.508,2.509v2.978
	H290.216z"/>
<path fill="#191818" d="M290.216,435.066v2.979c0,1.386,1.123,2.509,2.508,2.509h26.698c1.385,0,2.508-1.123,2.508-2.509v-2.979
	H290.216z"/>
<polygon fill="#FECF0A" points="275.6,335.925 263.86,338.634 253.024,335.925 253.024,329.604 263.86,332.313 275.6,329.604 "/>
<polygon fill="#FECF0A" points="275.6,344.956 263.86,347.665 253.024,344.956 253.024,338.635 263.86,341.344 275.6,338.635 "/>
<polygon fill="#676767" points="359.964,335.925 348.225,338.634 337.389,335.925 337.389,329.604 348.225,332.313 359.964,329.604 
	"/>
<polygon fill="#676767" points="359.964,344.956 348.225,347.665 337.389,344.956 337.389,338.635 348.225,341.344 359.964,338.635 
	"/>
</svg>
