<?xml version="1.0" encoding="utf-8"?>
<!-- Generator: Adobe Illustrator 16.0.0, SVG Export Plug-In . SVG Version: 6.00 Build 0)  -->
<!DOCTYPE svg PUBLIC "-//W3C//DTD SVG 1.1//EN" "http://www.w3.org/Graphics/SVG/1.1/DTD/svg11.dtd">
<svg version="1.1" id="Layer_1" xmlns="http://www.w3.org/2000/svg" xmlns:xlink="http://www.w3.org/1999/xlink" x="0px" y="0px"
	 width="240px" height="200px" viewBox="0 0 240 200" enable-background="new 0 0 240 200" xml:space="preserve">
<path fill="none" d="M53.764,2645.837"/>
<path fill="none" d="M53.764-599.76"/>
<path fill="#1A1A19" d="M138.789,166.522c-10.387,6.445-19.063,10.537-20.966,11.415c-1.905-0.878-10.58-4.97-20.967-11.416v0.492
	c-0.003-0.002,0.004-0.005,0-0.007v15.051c11.415,7.015,20.568,11.112,20.568,11.112l0.399-0.001l0.399,0.001
	c0,0,9.152-4.099,20.567-11.112v-15.051c-0.004,0.002,0.004,0.005,0,0.007V166.522L138.789,166.522z"/>
<path fill="#1A1A19" d="M93.54,165.386c-9.748-6.171-20.759-14.313-29.014-23.745v15.052c8.118,9.568,19.145,17.857,29.014,24.17
	v-15.052c-0.004-0.002,0.003-0.005,0-0.007V165.386z"/>
<path fill="#FFFFFF" d="M142.105,165.386v0.418c-0.004,0.002,0.002,0.005,0,0.007v15.052c9.869-6.313,20.895-14.602,29.014-24.17
	v-15.052C162.863,151.072,151.854,159.215,142.105,165.386"/>
<path fill="#F26D7C" d="M55.023,41.464V61.2v48.394c0,34.685,62.8,62.8,62.8,62.8s62.8-28.115,62.8-62.8V61.2V41.464H55.023
	L55.023,41.464z"/>
<g opacity="0.6">
	<g>
		<g>
			<defs>
				<rect id="SVGID_1_" x="117.7" y="40.87" width="60.021" height="127.569"/>
			</defs>
			<clipPath id="SVGID_2_">
				<use xlink:href="#SVGID_1_"  overflow="visible"/>
			</clipPath>
			<path clip-path="url(#SVGID_2_)" fill="#DF2F55" d="M117.826,168.444c5.59-2.753,17.619-9.048,29.469-17.651
				c9.189-6.674,16.453-13.392,21.588-19.967c5.865-7.515,8.842-14.724,8.842-21.427V62.175V40.87h-60.025v127.511
				C117.74,168.402,117.785,168.425,117.826,168.444"/>
		</g>
	</g>
</g>
<g opacity="0.4">
	<g>
		<g>
			<defs>
				<rect id="SVGID_3_" x="53.22" y="37.08" width="129.2" height="137.188"/>
			</defs>
			<clipPath id="SVGID_4_">
				<use xlink:href="#SVGID_3_"  overflow="visible"/>
			</clipPath>
			<path clip-path="url(#SVGID_4_)" fill="#FFFFFF" d="M168.626,50.875v9.015v49.78c0,18.229-31.246,39.338-50.803,49.296
				c-19.566-9.964-50.804-31.068-50.804-49.296V59.89v-9.015H168.626 M182.424,37.078H53.222V59.89v49.78
				c0,35.679,64.601,64.602,64.601,64.602s64.601-28.923,64.601-64.602V59.89V37.078z"/>
		</g>
	</g>
</g>
<path fill="#1A1A19" d="M174.898,44.604V59.89v49.78c0,8.39-5.031,22.043-28.998,39.445c-11.291,8.199-22.754,14.197-28.081,16.82
	c-5.288-2.601-16.619-8.526-27.885-16.683c-24.124-17.463-29.188-31.164-29.188-39.584v-49.78V44.603L174.898,44.604
	 M182.424,37.078H53.222V59.89v49.78c0,35.679,64.601,64.602,64.601,64.602s64.601-28.923,64.601-64.602V59.89V37.078z"/>
<path fill="#1A1A19" d="M58.24,20.454c-2.741,0.32-4.983,2.84-4.983,5.6v25.574c0,2.76,2.258,5.017,5.017,5.017h119.091
	c2.759,0,5.016-2.257,5.016-5.017V26.054c0-2.759-2.242-5.277-4.982-5.597l-54.715-6.366c-2.74-0.319-7.225-0.318-9.966,0.002
	L58.24,20.454z"/>
<polygon fill="#FFFFFF" points="109.499,46.229 109.499,31.357 106.458,34.519 104.14,32.079 110.041,26.148 113.563,26.148 
	113.563,46.229 "/>
<path fill="#FFFFFF" d="M123.979,46.229v-4.274h-8.188v-3.372l7.044-12.434h5.179v12.253h2.018v3.553h-2.018v4.274H123.979z
	 M123.979,30.243l-4.547,8.158h4.547V30.243z"/>
<path fill="#FFFFFF" d="M131.206,139.653c-17.018,7.085-36.556-0.968-43.641-17.985c-7.085-17.017,0.967-36.556,17.984-43.641
	c17.018-7.085,36.557,0.967,43.643,17.984C156.275,113.029,148.223,132.568,131.206,139.653"/>
<path fill="#191818" d="M117.87,84.641c0,0-0.002,0.021-0.004,0.055h0.01C117.872,84.661,117.87,84.641,117.87,84.641"/>
<path fill="#F26D7C" d="M146.98,92.726c-5.724-10.041-17.25-16.649-28.429-16.389l-0.292,3.321l0.786,29.624l32.283,0.335
	L146.98,92.726z"/>
<path fill="#191818" d="M117.873,84.667c0.002,0.015,0.537,0.026,1.195,0.026s1.191-0.562,1.191-1.254v-5.771
	c0-0.692-0.561-1.254-1.254-1.254h-1.636c-0.693,0-1.254,0.563-1.254,1.254v5.771c0,0.692,0.391,1.254,0.874,1.254
	c0.483,0,0.876-0.013,0.877-0.026S117.871,84.652,117.873,84.667"/>
<path fill="#191818" d="M151.051,110.095v-1.636c0-0.693-0.563-1.255-1.255-1.255h-5.687c-0.692,0-1.254,0.562-1.254,1.255v1.636
	c0,0.693,0.562,1.254,1.254,1.254h5.687C150.488,111.349,151.051,110.788,151.051,110.095"/>
<path fill="#191818" d="M85.328,108.458v1.637c0,0.692,0.562,1.255,1.254,1.255h5.519c0.693,0,1.254-0.563,1.254-1.255v-1.637
	c0-0.692-0.561-1.254-1.254-1.254h-5.519C85.89,107.204,85.328,107.766,85.328,108.458"/>
<path fill="#191818" d="M117.371,142.138h1.636c0.692,0,1.255-0.562,1.255-1.254v-5.436c0-0.692-0.563-1.254-1.255-1.254h-1.636
	c-0.693,0-1.254,0.562-1.254,1.254v5.436C116.117,141.576,116.678,142.138,117.371,142.138"/>
<path fill="#DF2F55" d="M101.759,80.818c-0.601,0.346-0.805,1.112-0.459,1.713l2.849,4.935c0.346,0.601,1.115,0.809,1.717,0.466
	c0.603-0.343,0.811-1.106,0.463-1.707l-2.857-4.947C103.125,80.677,102.358,80.472,101.759,80.818"/>
<path fill="#DF2F55" d="M89.73,92.846c-0.346,0.602-0.141,1.367,0.459,1.713l4.868,2.812c0.6,0.346,1.363,0.139,1.705-0.464
	c0.342-0.604,0.133-1.371-0.467-1.718l-4.852-2.802C90.844,92.041,90.076,92.246,89.73,92.846"/>
<path fill="#DF2F55" d="M89.73,125.707c0.346,0.6,1.114,0.805,1.713,0.459l4.719-2.725c0.601-0.347,0.805-1.112,0.457-1.711
	c-0.348-0.601-1.117-0.806-1.717-0.458l-4.713,2.722C89.589,124.34,89.384,125.107,89.73,125.707"/>
<path fill="#DF2F55" d="M101.759,137.735c0.6,0.346,1.367,0.141,1.713-0.459l2.71-4.694c0.347-0.6,0.14-1.365-0.461-1.709
	c-0.601-0.345-1.369-0.137-1.716,0.463l-2.705,4.688C100.954,136.621,101.158,137.389,101.759,137.735"/>
<path fill="#DF2F55" d="M134.619,137.735c0.602-0.348,0.806-1.114,0.459-1.714l-2.744-4.755c-0.348-0.601-1.115-0.809-1.717-0.467
	c-0.604,0.344-0.811,1.107-0.465,1.707l2.754,4.77C133.252,137.876,134.02,138.081,134.619,137.735"/>
<path fill="#DF2F55" d="M146.646,125.707c0.348-0.6,0.143-1.367-0.459-1.713l-4.851-2.801c-0.601-0.347-1.362-0.14-1.705,0.464
	c-0.342,0.602-0.133,1.371,0.468,1.718l4.834,2.791C145.535,126.512,146.302,126.307,146.646,125.707"/>
<path fill="#DF2F55" d="M146.646,92.846c-0.346-0.6-1.111-0.805-1.713-0.459l-4.99,2.881c-0.6,0.347-0.803,1.113-0.455,1.713
	c0.348,0.598,1.115,0.803,1.717,0.457l4.982-2.879C146.789,94.213,146.994,93.446,146.646,92.846"/>
<path fill="#DF2F55" d="M134.619,80.818c-0.6-0.347-1.367-0.142-1.713,0.459l-2.896,5.017c-0.346,0.601-0.141,1.365,0.461,1.71
	c0.602,0.344,1.37,0.138,1.717-0.463l2.892-5.01C135.425,81.931,135.221,81.164,134.619,80.818"/>
<path fill="#191818" d="M118.124,144.783c-14.366,0-27.217-8.57-32.739-21.833c-7.513-18.045,1.056-38.838,19.101-46.352
	c4.354-1.813,8.933-2.731,13.611-2.731c14.368,0,27.217,8.569,32.741,21.833c7.512,18.045-1.057,38.838-19.102,46.351
	C127.383,143.864,122.803,144.783,118.124,144.783 M118.097,78.012c-4.128,0-8.172,0.813-12.018,2.413
	c-15.935,6.634-23.502,24.997-16.868,40.934c4.876,11.713,16.227,19.28,28.913,19.28c4.129,0,8.173-0.813,12.019-2.414
	c15.937-6.634,23.504-24.996,16.869-40.932C142.135,85.58,130.785,78.012,118.097,78.012"/>
<path fill="#191818" d="M101.92,76.426c0,2.1-1.701,3.8-3.8,3.8c-2.098,0-3.799-1.701-3.799-3.8c0-2.098,1.701-3.8,3.799-3.8
	C100.219,72.626,101.92,74.328,101.92,76.426"/>
<path fill="#F26D7C" d="M124.809,69.491c0,3.711-3.008,6.719-6.719,6.719c-3.71,0-6.718-3.008-6.718-6.719s3.008-6.719,6.718-6.719
	C121.801,62.772,124.809,65.78,124.809,69.491"/>
<path fill="#191818" d="M118.281,77.515c-4.438,0-8.045-3.608-8.045-8.046c0-4.436,3.608-8.046,8.045-8.046
	c4.437,0,8.045,3.61,8.045,8.046C126.326,73.906,122.718,77.515,118.281,77.515 M118.281,65.567c-2.151,0-3.901,1.75-3.901,3.9
	c0,2.152,1.75,3.902,3.901,3.902c2.15,0,3.9-1.75,3.9-3.902C122.182,67.317,120.432,65.567,118.281,65.567"/>
<path fill="#191818" d="M131.904,77.168l2.589-3.061c0.894-1.059,2.478-1.19,3.534-0.297l12.031,10.172
	c1.058,0.894,1.189,2.477,0.295,3.534l-2.586,3.062L131.904,77.168z"/>
<path fill="#191818" d="M114.949,109.479c0.005,1.914,1.561,3.461,3.474,3.455c1.914-0.006,3.461-1.562,3.455-3.476
	c-0.005-1.912-3.354-15.377-3.354-15.377S114.944,107.566,114.949,109.479"/>
<path fill="#191818" d="M119.41,105.703c-1.913-0.023-3.484,1.508-3.508,3.42c-0.025,1.914,1.507,3.484,3.42,3.51
	c1.912,0.023,15.431-3.367,15.431-3.367S121.323,105.728,119.41,105.703"/>
<polygon fill="#FFFFFF" points="167.752,34.857 156.012,37.566 145.176,34.857 145.176,28.536 156.012,31.245 167.752,28.536 "/>
<polygon fill="#FFFFFF" points="167.752,43.888 156.012,46.597 145.176,43.888 145.176,37.566 156.012,40.275 167.752,37.566 "/>
<polygon fill="#FFFFFF" points="92.209,33.616 84.751,32.485 81.43,25.388 78.11,32.485 70.651,33.616 76.041,39.15 74.693,46.945 
	81.43,43.265 88.167,46.945 86.82,39.15 "/>
</svg>
