<?xml version="1.0" encoding="utf-8"?>
<!-- Generator: Adobe Illustrator 16.0.0, SVG Export Plug-In . SVG Version: 6.00 Build 0)  -->
<!DOCTYPE svg PUBLIC "-//W3C//DTD SVG 1.1//EN" "http://www.w3.org/Graphics/SVG/1.1/DTD/svg11.dtd">
<svg version="1.1" id="Layer_1" xmlns="http://www.w3.org/2000/svg" xmlns:xlink="http://www.w3.org/1999/xlink" x="0px" y="0px"
	 width="240px" height="200px" viewBox="0 0 240 200" enable-background="new 0 0 240 200" xml:space="preserve">
<line fill="none" x1="53.764" y1="-599.76" x2="53.764" y2="2645.837"/>
<path fill="#FECF0A" d="M52.186,41.584v20.302v49.78c0,35.679,64.601,64.602,64.601,64.602s64.6-28.923,64.6-64.602v-49.78V41.584
	H52.186z"/>
<g opacity="0.6">
	<g>
		<defs>
			<rect id="SVGID_1_" x="116.662" y="42.87" width="60.025" height="127.57"/>
		</defs>
		<clipPath id="SVGID_2_">
			<use xlink:href="#SVGID_1_"  overflow="visible"/>
		</clipPath>
		<path clip-path="url(#SVGID_2_)" fill="#CDA72C" d="M116.79,170.441c5.59-2.753,17.619-9.048,29.468-17.652
			c9.191-6.674,16.454-13.391,21.588-19.967c5.866-7.513,8.842-14.722,8.842-21.426V64.172V42.867h-60.025v127.511
			C116.704,170.398,116.749,170.422,116.79,170.441"/>
	</g>
</g>
<g opacity="0.4">
	<g>
		<defs>
			<rect id="SVGID_3_" x="52.186" y="39.07" width="129.201" height="137.199"/>
		</defs>
		<clipPath id="SVGID_4_">
			<use xlink:href="#SVGID_3_"  overflow="visible"/>
		</clipPath>
		<path clip-path="url(#SVGID_4_)" fill="#FFFFFF" d="M167.59,52.872v9.014v49.781c0,18.229-31.246,39.336-50.803,49.295
			c-19.566-9.964-50.804-31.068-50.804-49.295V61.886v-9.014H167.59 M181.387,39.075H52.186v22.811v49.781
			c0,35.677,64.601,64.601,64.601,64.601s64.6-28.924,64.6-64.601V61.886V39.075z"/>
	</g>
</g>
<path fill="#1A1A19" d="M173.861,46.6v15.286v49.781c0,8.39-5.03,22.042-28.996,39.445c-11.291,8.198-22.754,14.197-28.082,16.821
	c-5.288-2.603-16.619-8.528-27.885-16.684c-24.124-17.462-29.188-31.164-29.188-39.583V61.886V46.6H173.861 M181.387,39.075H52.186
	v22.811v49.781c0,35.677,64.601,64.601,64.601,64.601s64.6-28.924,64.6-64.601V61.886V39.075z"/>
<path fill="#1A1A19" d="M57.204,22.451c-2.741,0.319-4.983,2.84-4.983,5.599v25.574c0,2.76,2.258,5.018,5.017,5.018h119.09
	c2.761,0,5.017-2.258,5.017-5.018V28.05c0-2.759-2.241-5.278-4.982-5.597l-54.714-6.366c-2.741-0.319-7.225-0.318-9.966,0.002
	L57.204,22.451z"/>
<path fill="#FFFFFF" d="M101.282,45.427l2.438-2.589c1.054,1.385,2.469,2.168,4.186,2.168c1.926,0,3.04-1.476,3.04-3.162
	c0-1.986-1.054-3.161-2.86-3.161c-1.355,0-2.378,0.482-3.312,1.656l-2.92-0.783V28.146h12.042v3.552h-8.008v5.148
	c0.783-0.963,2.138-1.656,3.673-1.656c3.041,0,5.479,2.379,5.479,6.533c0,4.034-2.739,6.864-7.014,6.864
	C104.925,48.588,102.787,47.443,101.282,45.427"/>
<polygon fill="#FFFFFF" points="127.563,48.227 122.926,40.369 121.512,42.597 121.512,48.227 117.478,48.227 117.478,28.146 
	121.512,28.146 121.512,37.269 127.17,28.146 131.867,28.146 125.455,37.6 132.319,48.227 "/>
<polygon fill="#FECF0A" points="86.143,36.606 74.403,39.315 63.567,36.606 63.567,30.284 74.403,32.994 86.143,30.284 "/>
<polygon fill="#FECF0A" points="86.143,45.637 74.403,48.346 63.567,45.637 63.567,39.314 74.403,42.024 86.143,39.314 "/>
<polygon fill="#676767" points="170.508,36.606 158.768,39.315 147.932,36.606 147.932,30.284 158.768,32.994 170.508,30.284 "/>
<polygon fill="#676767" points="170.508,45.637 158.768,48.346 147.932,45.637 147.932,39.314 158.768,42.024 170.508,39.314 "/>
<g opacity="0.6">
	<g>
		<defs>
			<rect id="SVGID_5_" x="54.898" y="122.71" width="123.885" height="53.43"/>
		</defs>
		<clipPath id="SVGID_6_">
			<use xlink:href="#SVGID_5_"  overflow="visible"/>
		</clipPath>
		<path clip-path="url(#SVGID_6_)" fill="#CDA72C" d="M54.898,122.705c10.273,30.301,61.943,53.435,61.943,53.435
			s51.668-23.134,61.942-53.435H54.898z"/>
	</g>
</g>
<path fill="#FFFFFF" d="M74.538,114.297l0.138-4.397l0.873-13.101l0.319-4.773l0.445-6.681l0.148-2.228h20.045
	c0-4.455,4.454-6.682,4.454-6.682l1.96,1.47l1.604,1.203l0.712,0.534l3.341,2.505l22.97,16.145l0.594,0.416
	c0,0,0.496,0.197,1.341,0.531c0.003,0.001,0.006,0.002,0.009,0.003c0.046,0.019,0.094,0.037,0.141,0.057
	c0.021,0.008,0.043,0.017,0.063,0.024c0.045,0.019,0.09,0.036,0.137,0.054c0.013,0.005,0.024,0.009,0.036,0.014
	c0.051,0.02,0.102,0.041,0.155,0.061c0.018,0.008,0.036,0.016,0.055,0.022c0.052,0.02,0.103,0.04,0.156,0.061
	c0.009,0.005,0.019,0.007,0.026,0.011c0.084,0.033,0.17,0.067,0.258,0.101c0.048,0.019,0.096,0.038,0.145,0.057
	c0.047,0.018,0.096,0.037,0.143,0.056c0.029,0.011,0.059,0.022,0.09,0.035c0.052,0.02,0.105,0.041,0.158,0.062
	c0.027,0.011,0.056,0.022,0.084,0.033c0.049,0.019,0.098,0.038,0.146,0.057c0.039,0.015,0.077,0.03,0.116,0.046
	c0.049,0.02,0.098,0.038,0.147,0.058c0.029,0.012,0.061,0.023,0.092,0.036c0.057,0.022,0.115,0.045,0.173,0.068
	c0.041,0.016,0.083,0.032,0.124,0.048c0.039,0.016,0.078,0.031,0.117,0.046c0.074,0.028,0.146,0.057,0.221,0.086
	c0.016,0.006,0.033,0.012,0.049,0.019c0.076,0.029,0.152,0.059,0.23,0.09c0.024,0.009,0.049,0.018,0.072,0.027
	c0.059,0.022,0.118,0.046,0.178,0.069c0.058,0.022,0.115,0.044,0.175,0.067c1.018,0.395,2.141,0.827,3.313,1.274
	c0.002,0.001,0.006,0.002,0.008,0.003c0.117,0.045,0.236,0.09,0.355,0.135h0.001c0.112,0.043,0.228,0.086,0.34,0.13
	c0.019,0.006,0.036,0.013,0.054,0.021c0.107,0.04,0.215,0.08,0.321,0.121c0.011,0.004,0.021,0.006,0.029,0.011
	c0.116,0.044,0.233,0.088,0.351,0.132c0.002,0.001,0.004,0.002,0.006,0.002c0.116,0.044,0.233,0.089,0.351,0.133
	c0.011,0.004,0.022,0.008,0.032,0.012c0.108,0.041,0.217,0.081,0.326,0.122c0.018,0.008,0.037,0.015,0.055,0.021
	c0.105,0.039,0.211,0.078,0.316,0.117c0.018,0.007,0.036,0.014,0.055,0.021c0.103,0.039,0.205,0.077,0.309,0.115
	c0.021,0.009,0.045,0.017,0.066,0.025c0.104,0.038,0.205,0.076,0.308,0.114c0.022,0.008,0.043,0.016,0.063,0.023
	c0.099,0.036,0.197,0.073,0.293,0.108c0.029,0.012,0.059,0.021,0.088,0.032c0.095,0.035,0.189,0.07,0.283,0.105
	c0.028,0.01,0.057,0.02,0.084,0.03c0.096,0.035,0.189,0.069,0.285,0.104c0.028,0.011,0.059,0.022,0.088,0.033
	c0.094,0.034,0.187,0.067,0.279,0.102c0.029,0.011,0.059,0.021,0.088,0.032c0.092,0.034,0.184,0.066,0.276,0.102
	c0.03,0.011,0.062,0.021,0.093,0.033c0.088,0.032,0.176,0.063,0.264,0.096c0.035,0.013,0.069,0.025,0.104,0.037
	c0.086,0.032,0.172,0.063,0.258,0.094c0.034,0.013,0.069,0.024,0.103,0.037c0.088,0.031,0.175,0.063,0.262,0.095
	c0.033,0.011,0.066,0.022,0.1,0.035c0.079,0.028,0.158,0.057,0.237,0.085c0.042,0.015,0.083,0.029,0.124,0.045
	c0.08,0.028,0.158,0.056,0.236,0.084c0.037,0.013,0.076,0.027,0.113,0.04c0.088,0.03,0.176,0.062,0.264,0.093
	c0.027,0.01,0.054,0.02,0.08,0.029c0.084,0.029,0.166,0.058,0.248,0.087c0.035,0.012,0.069,0.024,0.104,0.036
	c0.071,0.025,0.142,0.05,0.213,0.075c0.043,0.015,0.087,0.029,0.13,0.044c0.074,0.026,0.147,0.052,0.219,0.076
	c0.039,0.014,0.076,0.027,0.115,0.04c0.068,0.024,0.137,0.048,0.205,0.071c0.043,0.015,0.086,0.029,0.129,0.044
	c0.065,0.022,0.129,0.044,0.192,0.065c0.044,0.016,0.088,0.03,0.132,0.045c0.064,0.022,0.13,0.045,0.195,0.066
	c0.042,0.014,0.084,0.028,0.125,0.042c0.105,0.035,0.209,0.07,0.313,0.104c0.203,0.068,0.4,0.142,0.592,0.222
	c0.004,0.002,0.006,0.003,0.01,0.004c0.188,0.079,0.369,0.164,0.547,0.253c0.006,0.004,0.012,0.007,0.02,0.01
	c0.172,0.089,0.34,0.183,0.504,0.28c0.008,0.005,0.016,0.009,0.023,0.015c0.161,0.097,0.314,0.199,0.466,0.305
	c0.009,0.007,0.019,0.013,0.028,0.02c0.148,0.105,0.291,0.215,0.429,0.327c0.011,0.009,0.021,0.017,0.031,0.025
	c0.137,0.112,0.269,0.229,0.396,0.348c0.01,0.009,0.021,0.019,0.03,0.028c0.127,0.119,0.249,0.242,0.367,0.367
	c0.01,0.01,0.019,0.02,0.028,0.029c0.117,0.127,0.23,0.256,0.341,0.388c0.008,0.009,0.016,0.018,0.024,0.027
	c0.108,0.134,0.213,0.269,0.315,0.405c0.006,0.009,0.013,0.018,0.019,0.025c0.103,0.14,0.2,0.281,0.295,0.424
	c0.004,0.006,0.008,0.013,0.013,0.019c0.095,0.146,0.186,0.293,0.274,0.442c0.002,0.004,0.004,0.007,0.006,0.01
	c0.99,1.69,1.387,3.539,1.619,4.936v8.1H74.538V114.297z"/>
<path fill="#F8D012" d="M133.989,110.549l-37.17-26.486l3.859-6.159l9.966,7.833l23.361,15.825l0.64,0.433
	c0,0,2.438,0.944,5.774,2.193l0.006,0.027L133.989,110.549z"/>
<path fill="#F8D012" d="M132.16,99.635c0.482,0.193,11.268,4.497,17.799,6.674c3.3,1.101,4.968,3.829,5.813,6.311h-33.119
	L132.16,99.635z"/>
<polygon fill="#191818" points="110.781,84.86 104.833,90.122 107.832,82.768 "/>
<polygon fill="#191818" points="116.378,88.848 110.431,94.109 113.429,86.756 "/>
<line fill="none" stroke="#191818" stroke-width="1.839" stroke-miterlimit="10" x1="155.771" y1="113.309" x2="74.538" y2="113.309"/>
<polygon fill="#191818" points="121.976,92.835 116.027,98.097 119.025,90.743 "/>
<polygon fill="#191818" points="127.572,96.822 121.625,102.085 124.623,94.73 "/>
<polygon fill="#191818" points="133.17,100.81 127.222,106.072 130.22,98.719 "/>
<polygon fill="#F8D012" points="89.399,89.104 105.193,97.154 100.973,100.448 108.406,108.231 92.612,100.183 96.833,96.888 "/>
<path fill="#F8D012" d="M76.121,96.614l-0.942,16.018h17.063C91.396,104.146,84.621,97.408,76.121,96.614"/>
<path fill="none" stroke="#191818" stroke-width="3.679" stroke-miterlimit="10" d="M74.538,114.297l0.138-4.397l0.873-13.101
	l0.319-4.773l0.445-6.681l0.148-2.228h20.045c0-4.455,4.454-6.682,4.454-6.682l1.96,1.47l1.604,1.203l0.712,0.534l3.341,2.505
	l22.97,16.145l0.594,0.416c0,0,0.496,0.197,1.341,0.531c0.003,0.001,0.006,0.002,0.009,0.003c0.046,0.019,0.094,0.037,0.141,0.057
	c0.021,0.008,0.043,0.017,0.063,0.024c0.045,0.019,0.09,0.036,0.137,0.054c0.013,0.005,0.024,0.009,0.036,0.014
	c0.051,0.02,0.102,0.041,0.155,0.061c0.018,0.008,0.036,0.016,0.055,0.022c0.052,0.02,0.103,0.04,0.156,0.061
	c0.009,0.005,0.019,0.007,0.026,0.011c0.084,0.033,0.17,0.067,0.258,0.101c0.048,0.019,0.096,0.038,0.145,0.057
	c0.047,0.018,0.096,0.037,0.143,0.056c0.029,0.011,0.059,0.022,0.09,0.035c0.052,0.02,0.105,0.041,0.158,0.062
	c0.027,0.011,0.056,0.022,0.084,0.033c0.049,0.019,0.098,0.038,0.146,0.057c0.039,0.015,0.077,0.03,0.116,0.046
	c0.049,0.02,0.098,0.038,0.147,0.058c0.029,0.012,0.061,0.023,0.092,0.036c0.057,0.022,0.115,0.045,0.173,0.068
	c0.041,0.016,0.083,0.032,0.124,0.048c0.039,0.016,0.078,0.031,0.117,0.046c0.074,0.028,0.146,0.057,0.221,0.086
	c0.016,0.006,0.033,0.012,0.049,0.019c0.076,0.029,0.152,0.059,0.23,0.09c0.024,0.009,0.049,0.018,0.072,0.027
	c0.059,0.022,0.118,0.046,0.178,0.069c0.058,0.022,0.115,0.044,0.175,0.067c1.018,0.395,2.141,0.827,3.313,1.274
	c0.002,0.001,0.006,0.002,0.008,0.003c0.117,0.045,0.236,0.09,0.355,0.135h0.001c0.112,0.043,0.228,0.086,0.34,0.13
	c0.019,0.006,0.036,0.013,0.054,0.021c0.107,0.04,0.215,0.08,0.321,0.121c0.011,0.004,0.021,0.006,0.029,0.011
	c0.116,0.044,0.233,0.088,0.351,0.132c0.002,0.001,0.004,0.002,0.006,0.002c0.116,0.044,0.233,0.089,0.351,0.133
	c0.011,0.004,0.022,0.008,0.032,0.012c0.108,0.041,0.217,0.081,0.326,0.122c0.018,0.008,0.037,0.015,0.055,0.021
	c0.105,0.039,0.211,0.078,0.316,0.117c0.018,0.007,0.036,0.014,0.055,0.021c0.103,0.039,0.205,0.077,0.309,0.115
	c0.021,0.009,0.045,0.017,0.066,0.025c0.104,0.038,0.205,0.076,0.308,0.114c0.022,0.008,0.043,0.016,0.063,0.023
	c0.099,0.036,0.197,0.073,0.293,0.108c0.029,0.012,0.059,0.021,0.088,0.032c0.095,0.035,0.189,0.07,0.283,0.105
	c0.028,0.01,0.057,0.02,0.084,0.03c0.096,0.035,0.189,0.069,0.285,0.104c0.028,0.011,0.059,0.022,0.088,0.033
	c0.094,0.034,0.187,0.067,0.279,0.102c0.029,0.011,0.059,0.021,0.088,0.032c0.092,0.034,0.184,0.066,0.276,0.102
	c0.03,0.011,0.062,0.021,0.093,0.033c0.088,0.032,0.176,0.063,0.264,0.096c0.035,0.013,0.069,0.025,0.104,0.037
	c0.086,0.032,0.172,0.063,0.258,0.094c0.034,0.013,0.069,0.024,0.103,0.037c0.088,0.031,0.175,0.063,0.262,0.095
	c0.033,0.011,0.066,0.022,0.1,0.035c0.079,0.028,0.158,0.057,0.237,0.085c0.042,0.015,0.083,0.029,0.124,0.045
	c0.08,0.028,0.158,0.056,0.236,0.084c0.037,0.013,0.076,0.027,0.113,0.04c0.088,0.03,0.176,0.062,0.264,0.093
	c0.027,0.01,0.054,0.02,0.08,0.029c0.084,0.029,0.166,0.058,0.248,0.087c0.035,0.012,0.069,0.024,0.104,0.036
	c0.071,0.025,0.142,0.05,0.213,0.075c0.043,0.015,0.087,0.029,0.13,0.044c0.074,0.026,0.147,0.052,0.219,0.076
	c0.039,0.014,0.076,0.027,0.115,0.04c0.068,0.024,0.137,0.048,0.205,0.071c0.043,0.015,0.086,0.029,0.129,0.044
	c0.065,0.022,0.129,0.044,0.192,0.065c0.044,0.016,0.088,0.03,0.132,0.045c0.064,0.022,0.13,0.045,0.195,0.066
	c0.042,0.014,0.084,0.028,0.125,0.042c0.105,0.035,0.209,0.07,0.313,0.104c0.203,0.068,0.4,0.142,0.592,0.222
	c0.004,0.002,0.006,0.003,0.01,0.004c0.188,0.079,0.369,0.164,0.547,0.253c0.006,0.004,0.012,0.007,0.02,0.01
	c0.172,0.089,0.34,0.183,0.504,0.28c0.008,0.005,0.016,0.009,0.023,0.015c0.161,0.097,0.314,0.199,0.466,0.305
	c0.009,0.007,0.019,0.013,0.028,0.02c0.148,0.105,0.291,0.215,0.429,0.327c0.011,0.009,0.021,0.017,0.031,0.025
	c0.137,0.112,0.269,0.229,0.396,0.348c0.01,0.009,0.021,0.019,0.03,0.028c0.127,0.119,0.249,0.242,0.367,0.367
	c0.01,0.01,0.019,0.02,0.028,0.029c0.117,0.127,0.23,0.256,0.341,0.388c0.008,0.009,0.016,0.018,0.024,0.027
	c0.108,0.134,0.213,0.269,0.315,0.405c0.006,0.009,0.013,0.018,0.019,0.025c0.103,0.14,0.2,0.281,0.295,0.424
	c0.004,0.006,0.008,0.013,0.013,0.019c0.095,0.146,0.186,0.293,0.274,0.442c0.002,0.004,0.004,0.007,0.006,0.01
	c0.99,1.69,1.387,3.539,1.619,4.936v8.1H74.538V114.297z"/>
</svg>
