<?xml version="1.0" encoding="utf-8"?>
<!-- Generator: Adobe Illustrator 16.0.0, SVG Export Plug-In . SVG Version: 6.00 Build 0)  -->
<!DOCTYPE svg PUBLIC "-//W3C//DTD SVG 1.1//EN" "http://www.w3.org/Graphics/SVG/1.1/DTD/svg11.dtd">
<svg version="1.1" id="Layer_1" xmlns="http://www.w3.org/2000/svg" xmlns:xlink="http://www.w3.org/1999/xlink" x="0px" y="0px"
	 width="240px" height="200px" viewBox="0 0 240 200" enable-background="new 0 0 240 200" xml:space="preserve">
<path fill="none" d="M53.764,2645.837"/>
<path fill="none" d="M53.764-599.76"/>
<path fill="#FFFFFF" d="M138.499,166.522c-10.386,6.445-19.062,10.537-20.966,11.415c-1.905-0.878-10.58-4.97-20.967-11.416v0.492
	c-0.003-0.002,0.004-0.005,0-0.007v15.051c11.415,7.015,20.568,11.112,20.568,11.112l0.399-0.001l0.398,0.001
	c0,0,9.152-4.099,20.567-11.112v-15.051c-0.004,0.002,0.004,0.005,0,0.007V166.522L138.499,166.522z"/>
<path fill="#FFFFFF" d="M93.25,165.386c-9.748-6.171-20.759-14.313-29.014-23.745v15.052c8.118,9.568,19.145,17.857,29.014,24.17
	v-15.052c-0.004-0.002,0.003-0.005,0-0.007V165.386z"/>
<path fill="#FFFFFF" d="M141.814,165.386v0.418c-0.004,0.002,0.004,0.005,0,0.007v15.052c9.869-6.313,20.896-14.602,29.015-24.17
	v-15.052C162.573,151.072,151.563,159.215,141.814,165.386"/>
<path fill="#F26D7C" d="M54.943,41.683v19.671v48.23c0,34.567,62.59,62.589,62.59,62.589s62.59-28.021,62.59-62.589v-48.23V41.683
	H54.943z"/>
<g opacity="0.6">
	<g>
		<g>
			<defs>
				<rect id="SVGID_1_" x="117.408" y="40.87" width="60.025" height="127.569"/>
			</defs>
			<clipPath id="SVGID_2_">
				<use xlink:href="#SVGID_1_"  overflow="visible"/>
			</clipPath>
			<path clip-path="url(#SVGID_2_)" fill="#DF2F55" d="M117.537,168.444c5.59-2.753,17.619-9.048,29.467-17.651
				c9.191-6.674,16.455-13.392,21.588-19.967c5.867-7.515,8.842-14.724,8.842-21.427V62.175V40.87h-60.024v127.511
				C117.45,168.402,117.496,168.425,117.537,168.444"/>
		</g>
	</g>
</g>
<g opacity="0.4">
	<g>
		<g>
			<defs>
				<rect id="SVGID_3_" x="52.932" y="37.08" width="129.201" height="137.188"/>
			</defs>
			<clipPath id="SVGID_4_">
				<use xlink:href="#SVGID_3_"  overflow="visible"/>
			</clipPath>
			<path clip-path="url(#SVGID_4_)" fill="#FFFFFF" d="M168.336,50.875v9.015v49.78c0,18.229-31.246,39.338-50.803,49.296
				c-19.566-9.964-50.805-31.068-50.805-49.296V59.89v-9.015H168.336 M182.133,37.078h-129.2V59.89v49.78
				c0,35.679,64.6,64.602,64.6,64.602s64.601-28.923,64.601-64.602V59.89L182.133,37.078L182.133,37.078z"/>
		</g>
	</g>
</g>
<path fill="#1A1A19" d="M174.607,44.604V59.89v49.78c0,8.39-5.03,22.043-28.996,39.445c-11.291,8.199-22.754,14.197-28.082,16.82
	c-5.287-2.601-16.618-8.526-27.884-16.683c-24.124-17.463-29.188-31.164-29.188-39.584v-49.78V44.603L174.607,44.604
	 M182.133,37.078h-129.2V59.89v49.78c0,35.679,64.6,64.602,64.6,64.602s64.601-28.923,64.601-64.602V59.89L182.133,37.078
	L182.133,37.078z"/>
<path fill="#1A1A19" d="M57.95,20.454c-2.741,0.32-4.983,2.84-4.983,5.6v25.574c0,2.76,2.258,5.017,5.017,5.017h119.09
	c2.76,0,5.017-2.257,5.017-5.017V26.054c0-2.759-2.241-5.277-4.983-5.597l-54.713-6.366c-2.742-0.319-7.226-0.318-9.967,0.002
	L57.95,20.454z"/>
<polygon fill="#FFFFFF" points="108.863,46.229 108.863,31.357 105.822,34.519 103.504,32.079 109.405,26.148 112.927,26.148 
	112.927,46.229 "/>
<path fill="#FFFFFF" d="M115.515,36.204c0-5.179,2.137-10.355,7.104-10.355c4.998,0,7.105,5.178,7.105,10.355
	c0,5.146-2.078,10.387-7.105,10.387C117.652,46.591,115.515,41.352,115.515,36.204 M125.631,36.204c0-3.884-0.664-6.773-3.012-6.773
	c-2.318,0-2.979,2.891-2.979,6.773c0,3.854,0.66,6.805,2.979,6.805C124.967,43.009,125.631,40.059,125.631,36.204"/>
<path fill="#FFFFFF" d="M130.916,139.653c-17.018,7.085-36.556-0.968-43.641-17.985c-7.085-17.017,0.967-36.556,17.984-43.641
	c17.019-7.085,36.558,0.967,43.642,17.984C155.986,113.029,147.934,132.568,130.916,139.653"/>
<path fill="#191818" d="M117.58,84.641c0,0-0.002,0.021-0.004,0.055h0.01C117.582,84.661,117.58,84.641,117.58,84.641"/>
<path fill="#F26D7C" d="M146.691,92.726c-5.725-10.041-17.25-16.649-28.43-16.389l-0.291,3.321l0.785,29.624l32.282,0.335
	L146.691,92.726z"/>
<path fill="#191818" d="M117.583,84.667c0.002,0.015,0.537,0.026,1.196,0.026c0.658,0,1.191-0.562,1.191-1.254v-5.771
	c0-0.692-0.562-1.254-1.255-1.254h-1.636c-0.693,0-1.254,0.563-1.254,1.254v5.771c0,0.692,0.391,1.254,0.874,1.254
	c0.483,0,0.876-0.013,0.877-0.026S117.581,84.652,117.583,84.667"/>
<path fill="#191818" d="M150.76,110.095v-1.636c0-0.693-0.562-1.255-1.254-1.255h-5.686c-0.693,0-1.254,0.562-1.254,1.255v1.636
	c0,0.693,0.561,1.254,1.254,1.254h5.686C150.198,111.349,150.76,110.788,150.76,110.095"/>
<path fill="#191818" d="M85.038,108.458v1.637c0,0.692,0.562,1.255,1.254,1.255h5.519c0.693,0,1.254-0.563,1.254-1.255v-1.637
	c0-0.692-0.561-1.254-1.254-1.254h-5.519C85.6,107.204,85.038,107.766,85.038,108.458"/>
<path fill="#191818" d="M117.081,142.138h1.636c0.693,0,1.256-0.562,1.256-1.254v-5.436c0-0.692-0.563-1.254-1.256-1.254h-1.636
	c-0.693,0-1.254,0.562-1.254,1.254v5.436C115.827,141.576,116.388,142.138,117.081,142.138"/>
<path fill="#DF2F55" d="M101.469,80.818c-0.6,0.346-0.805,1.112-0.459,1.713l2.849,4.935c0.346,0.601,1.115,0.809,1.717,0.466
	c0.602-0.343,0.809-1.106,0.463-1.707l-2.857-4.947C102.835,80.677,102.068,80.472,101.469,80.818"/>
<path fill="#DF2F55" d="M89.44,92.846c-0.346,0.602-0.141,1.367,0.459,1.713l4.868,2.812c0.599,0.346,1.363,0.139,1.705-0.464
	c0.342-0.604,0.133-1.371-0.467-1.718l-4.852-2.802C90.554,92.041,89.787,92.246,89.44,92.846"/>
<path fill="#DF2F55" d="M89.44,125.707c0.346,0.6,1.113,0.805,1.713,0.459l4.719-2.725c0.6-0.347,0.805-1.112,0.457-1.711
	c-0.348-0.601-1.117-0.806-1.717-0.458l-4.713,2.722C89.3,124.34,89.095,125.107,89.44,125.707"/>
<path fill="#DF2F55" d="M101.469,137.735c0.6,0.346,1.367,0.141,1.713-0.459l2.71-4.694c0.347-0.6,0.14-1.365-0.461-1.709
	c-0.601-0.345-1.369-0.137-1.716,0.463l-2.705,4.688C100.664,136.621,100.869,137.389,101.469,137.735"/>
<path fill="#DF2F55" d="M134.33,137.735c0.6-0.348,0.805-1.114,0.459-1.714l-2.745-4.755c-0.347-0.601-1.114-0.809-1.718-0.467
	c-0.602,0.344-0.809,1.107-0.463,1.707l2.754,4.77C132.963,137.876,133.729,138.081,134.33,137.735"/>
<path fill="#DF2F55" d="M146.357,125.707c0.346-0.6,0.141-1.367-0.459-1.713l-4.851-2.801c-0.601-0.347-1.364-0.14-1.706,0.464
	c-0.343,0.602-0.134,1.371,0.467,1.718l4.836,2.791C145.244,126.512,146.012,126.307,146.357,125.707"/>
<path fill="#DF2F55" d="M146.357,92.846c-0.347-0.6-1.113-0.805-1.713-0.459l-4.99,2.881c-0.6,0.347-0.805,1.113-0.455,1.713
	c0.348,0.598,1.115,0.803,1.715,0.457l4.984-2.879C146.498,94.213,146.703,93.446,146.357,92.846"/>
<path fill="#DF2F55" d="M134.33,80.818c-0.602-0.347-1.367-0.142-1.713,0.459l-2.897,5.017c-0.347,0.601-0.14,1.365,0.462,1.71
	c0.603,0.344,1.369,0.138,1.715-0.463l2.894-5.01C135.135,81.931,134.93,81.164,134.33,80.818"/>
<path fill="#191818" d="M117.834,144.783c-14.366,0-27.217-8.57-32.739-21.833c-7.513-18.045,1.056-38.838,19.101-46.352
	c4.354-1.813,8.933-2.731,13.61-2.731c14.367,0,27.219,8.569,32.74,21.833c7.512,18.045-1.056,38.838-19.102,46.351
	C127.092,143.864,122.514,144.783,117.834,144.783 M117.807,78.012c-4.127,0-8.172,0.813-12.018,2.413
	c-15.935,6.634-23.502,24.997-16.868,40.934c4.877,11.713,16.226,19.28,28.913,19.28c4.128,0,8.171-0.813,12.02-2.414
	c15.935-6.634,23.502-24.996,16.867-40.932C141.844,85.58,130.495,78.012,117.807,78.012"/>
<path fill="#191818" d="M101.63,76.426c0,2.1-1.701,3.8-3.8,3.8c-2.098,0-3.799-1.701-3.799-3.8c0-2.098,1.701-3.8,3.799-3.8
	C99.93,72.626,101.63,74.328,101.63,76.426"/>
<path fill="#F26D7C" d="M124.52,69.491c0,3.711-3.009,6.719-6.72,6.719c-3.71,0-6.718-3.008-6.718-6.719s3.008-6.719,6.718-6.719
	C121.511,62.772,124.52,65.78,124.52,69.491"/>
<path fill="#191818" d="M117.991,77.515c-4.437,0-8.046-3.608-8.046-8.046c0-4.436,3.609-8.046,8.046-8.046
	c4.437,0,8.045,3.61,8.045,8.046C126.036,73.906,122.428,77.515,117.991,77.515 M117.991,65.567c-2.151,0-3.901,1.75-3.901,3.9
	c0,2.152,1.75,3.902,3.901,3.902s3.901-1.75,3.901-3.902C121.893,67.317,120.143,65.567,117.991,65.567"/>
<path fill="#191818" d="M131.615,77.168l2.587-3.061c0.896-1.059,2.478-1.19,3.536-0.297l12.029,10.172
	c1.059,0.894,1.19,2.477,0.297,3.534l-2.588,3.062L131.615,77.168z"/>
<path fill="#191818" d="M114.659,109.479c0.005,1.914,1.561,3.461,3.474,3.455c1.914-0.006,3.461-1.562,3.455-3.476
	c-0.005-1.912-3.355-15.377-3.355-15.377S114.654,107.566,114.659,109.479"/>
<path fill="#191818" d="M119.12,105.703c-1.913-0.023-3.484,1.508-3.508,3.42c-0.025,1.914,1.507,3.484,3.42,3.51
	c1.913,0.023,15.431-3.367,15.431-3.367S121.033,105.728,119.12,105.703"/>
<polygon fill="#FFFFFF" points="91.889,33.458 80.148,36.167 69.313,33.458 69.313,27.136 80.148,29.846 91.889,27.136 "/>
<polygon fill="#FFFFFF" points="91.889,42.488 80.148,45.197 69.313,42.488 69.313,36.167 80.148,38.876 91.889,36.167 "/>
<polygon fill="#F26D7C" points="166.253,33.458 154.514,36.167 143.677,33.458 143.677,27.136 154.514,29.846 166.253,27.136 "/>
<polygon fill="#F26D7C" points="166.253,42.488 154.514,45.197 143.677,42.488 143.677,36.167 154.514,38.876 166.253,36.167 "/>
</svg>
