<?xml version="1.0" encoding="utf-8"?>
<!-- Generator: Adobe Illustrator 16.0.0, SVG Export Plug-In . SVG Version: 6.00 Build 0)  -->
<!DOCTYPE svg PUBLIC "-//W3C//DTD SVG 1.1//EN" "http://www.w3.org/Graphics/SVG/1.1/DTD/svg11.dtd">
<svg version="1.1" id="Layer_1" xmlns="http://www.w3.org/2000/svg" xmlns:xlink="http://www.w3.org/1999/xlink" x="0px" y="0px"
	 width="240px" height="200px" viewBox="0 0 240 200" enable-background="new 0 0 240 200" xml:space="preserve">
<path fill="#1A1A19" d="M137.709,166.241c-10.387,6.446-19.062,10.538-20.966,11.416c-1.905-0.878-10.58-4.97-20.967-11.416v0.492
	c-0.003-0.002,0.004-0.005,0-0.007v15.051c11.415,7.013,20.568,11.112,20.568,11.112l0.399-0.001l0.399,0.001
	c0,0,9.152-4.1,20.567-11.112v-15.051c-0.004,0.002,0.004,0.005,0,0.007V166.241z"/>
<path fill="#1A1A19" d="M92.46,165.104c-9.748-6.17-20.759-14.313-29.014-23.744v15.051c8.118,9.568,19.145,17.857,29.014,24.17
	v-15.051c-0.004-0.002,0.003-0.005,0-0.007V165.104z"/>
<path fill="#1A1A19" d="M141.025,165.104v0.419c-0.004,0.002,0.003,0.005,0,0.007v15.051c9.869-6.313,20.895-14.602,29.014-24.17
	v-15.051C161.783,150.791,150.773,158.934,141.025,165.104"/>
<path fill="#010101" d="M40.968,140.516c0.916-0.018,1.783-0.027,2.638,0.014c-3.211-4.57-2.29-10.164-4.058-15.119l0.017-0.219
	c5.329,2.008,8.124,6.7,10.731,11.657c1.862,3.592,3.683,7.274,6.339,9.994c-1.109,0.08-2.153,0.229-3.234,0.388
	c-1.122,0.163-2.275,0.387-3.435,0.692c-2.306,0.135-4.581,0.237-6.732,0.167c-4.035-0.171-7.795-0.855-11.037-2.606
	c-1.502-0.798-2.902-1.849-4.131-3.16c0.949-0.154,1.992-0.343,3.028-0.525C34.358,141.244,37.792,140.674,40.968,140.516"/>
<path fill="#010101" d="M30.913,122.97c1.062,1.399,2.535,2.592,3.517,4.192c0.274,0.793,0.599,1.55,0.922,2.329
	c0.784,2.099,1.378,4.126,0.792,5.83c-2.665-1.042-5.366-2.282-7.721-4.483c-1.341-1.616-2.338-3.36-3.035-5.243
	c-1.111-2.955-1.454-6.195-1.076-9.59c0.008-0.114,0.033-0.178,0.025-0.252l0.3-0.285c0.113,0.264,0.263,0.539,0.409,0.824
	C26.472,118.89,28.558,120.769,30.913,122.97"/>
<path fill="#010101" d="M191.092,140.516c-0.916-0.018-1.783-0.027-2.638,0.014c3.211-4.57,2.29-10.164,4.058-15.119l-0.017-0.219
	c-5.329,2.008-8.124,6.7-10.731,11.657c-1.861,3.592-3.683,7.274-6.339,9.994c1.109,0.08,2.153,0.229,3.234,0.388
	c1.122,0.163,2.274,0.387,3.435,0.692c2.307,0.135,4.581,0.237,6.732,0.167c4.035-0.171,7.795-0.855,11.037-2.606
	c1.502-0.798,2.902-1.849,4.131-3.16c-0.949-0.154-1.992-0.343-3.028-0.525C197.701,141.244,194.268,140.674,191.092,140.516"/>
<path fill="#010101" d="M209.148,115.753l-0.3-0.285c-0.112,0.264-0.263,0.539-0.409,0.824c-1.426,2.598-3.512,4.477-5.866,6.678"/>
<path fill="#010101" d="M202.573,122.97c-1.063,1.399-2.535,2.592-3.518,4.192c-0.273,0.793-0.599,1.55-0.922,2.329
	c-0.784,2.099-1.378,4.126-0.792,5.83c2.665-1.042,5.366-2.282,7.721-4.483c1.342-1.616,2.338-3.36,3.036-5.243
	c1.11-2.955,1.453-6.195,1.075-9.59"/>
<path fill="#FECF0A" d="M52.143,38.584v20.302v49.78c0,35.679,64.601,64.602,64.601,64.602s64.601-28.923,64.601-64.602v-49.78
	V38.584H52.143z"/>
<g opacity="0.6">
	<g>
		<defs>
			<rect id="SVGID_1_" x="116.62" y="39.87" width="60.02" height="127.57"/>
		</defs>
		<clipPath id="SVGID_2_">
			<use xlink:href="#SVGID_1_"  overflow="visible"/>
		</clipPath>
		<path clip-path="url(#SVGID_2_)" fill="#CDA72C" d="M116.747,167.441c5.589-2.753,17.619-9.048,29.468-17.652
			c9.19-6.674,16.453-13.391,21.588-19.967c5.865-7.513,8.841-14.722,8.841-21.426V61.172V39.867h-60.025v127.511
			C116.661,167.398,116.706,167.422,116.747,167.441"/>
	</g>
</g>
<g opacity="0.4">
	<g>
		<defs>
			<rect id="SVGID_3_" x="52.14" y="36.07" width="129.2" height="137.199"/>
		</defs>
		<clipPath id="SVGID_4_">
			<use xlink:href="#SVGID_3_"  overflow="visible"/>
		</clipPath>
		<path clip-path="url(#SVGID_4_)" fill="#FFFFFF" d="M167.547,49.872v9.014v49.781c0,18.215-31.201,39.306-50.761,49.273
			c-5.696-2.925-14.984-8.061-24.254-14.771c-17.149-12.413-26.593-24.667-26.593-34.503V58.886v-9.014H167.547 M181.344,36.075
			H52.143v22.811v49.781c0,35.677,64.601,64.601,64.601,64.601s64.601-28.924,64.601-64.601V58.886V36.075z"/>
	</g>
</g>
<path fill="#1A1A19" d="M173.818,43.6v15.286v49.781c0,8.39-5.031,22.042-28.997,39.445c-11.291,8.198-22.754,14.197-28.081,16.821
	c-5.288-2.603-16.619-8.528-27.885-16.684c-24.124-17.462-29.188-31.164-29.188-39.583V58.886V43.6H173.818 M181.344,36.075H52.143
	v22.811v49.781c0,35.677,64.601,64.601,64.601,64.601s64.601-28.924,64.601-64.601V58.886V36.075z"/>
<path fill="#1A1A19" d="M57.164,19.451c-2.741,0.319-4.983,2.84-4.983,5.599v25.574c0,2.76,2.258,5.018,5.017,5.018h119.091
	c2.759,0,5.016-2.258,5.016-5.018V25.05c0-2.759-2.242-5.278-4.982-5.597l-54.715-6.366c-2.741-0.319-7.225-0.318-9.966,0.002
	L57.164,19.451z"/>
<g opacity="0.6">
	<g>
		<defs>
			<rect id="SVGID_5_" x="54.8" y="119.71" width="123.89" height="53.43"/>
		</defs>
		<clipPath id="SVGID_6_">
			<use xlink:href="#SVGID_5_"  overflow="visible"/>
		</clipPath>
		<path clip-path="url(#SVGID_6_)" fill="#CDA72C" d="M54.801,119.705c10.272,30.301,61.943,53.435,61.943,53.435
			s51.668-23.134,61.942-53.435H54.801z"/>
	</g>
</g>
<path fill="#FFFFFF" d="M74.44,111.297l0.138-4.397l0.873-13.101l0.319-4.773l0.445-6.681l0.148-2.228h20.045
	c0-4.455,4.454-6.682,4.454-6.682l1.96,1.47l1.604,1.203l0.712,0.534l3.341,2.505l22.97,16.145l0.594,0.416
	c0,0,0.496,0.197,1.341,0.531c0.003,0.001,0.006,0.002,0.009,0.003c0.046,0.019,0.093,0.037,0.141,0.057
	c0.021,0.008,0.043,0.017,0.063,0.024c0.045,0.019,0.09,0.036,0.137,0.054c0.013,0.005,0.024,0.009,0.036,0.014
	c0.051,0.02,0.102,0.041,0.155,0.061c0.018,0.008,0.037,0.016,0.055,0.022c0.052,0.02,0.103,0.04,0.156,0.061
	c0.009,0.005,0.018,0.007,0.026,0.011c0.084,0.033,0.17,0.067,0.258,0.101c0.048,0.019,0.096,0.038,0.145,0.057
	c0.047,0.018,0.096,0.037,0.142,0.056c0.03,0.011,0.06,0.022,0.091,0.035c0.052,0.02,0.104,0.041,0.158,0.062
	c0.027,0.011,0.056,0.022,0.084,0.033c0.048,0.019,0.098,0.038,0.146,0.057c0.039,0.015,0.077,0.03,0.116,0.046
	c0.049,0.02,0.098,0.038,0.147,0.058c0.029,0.012,0.061,0.023,0.092,0.036c0.057,0.022,0.115,0.045,0.173,0.068
	c0.041,0.016,0.083,0.032,0.124,0.048c0.039,0.016,0.078,0.031,0.117,0.046c0.073,0.028,0.146,0.057,0.221,0.086
	c0.016,0.006,0.033,0.012,0.049,0.019c0.076,0.029,0.152,0.059,0.23,0.09c0.024,0.009,0.049,0.018,0.072,0.027
	c0.059,0.022,0.118,0.046,0.178,0.069c0.058,0.022,0.115,0.044,0.175,0.067c1.018,0.395,2.141,0.827,3.313,1.274
	c0.002,0.001,0.006,0.002,0.008,0.003c0.117,0.045,0.236,0.09,0.355,0.135h0.001c0.113,0.043,0.228,0.086,0.34,0.13
	c0.019,0.006,0.036,0.013,0.054,0.02c0.107,0.041,0.215,0.081,0.321,0.121c0.011,0.004,0.021,0.007,0.029,0.011
	c0.116,0.044,0.233,0.088,0.351,0.132c0.001,0.001,0.004,0.002,0.006,0.002c0.116,0.044,0.233,0.089,0.351,0.133
	c0.011,0.004,0.022,0.008,0.032,0.012c0.108,0.04,0.217,0.081,0.326,0.122c0.018,0.008,0.036,0.015,0.055,0.021
	c0.104,0.039,0.211,0.078,0.316,0.117c0.018,0.007,0.036,0.014,0.055,0.021c0.103,0.039,0.205,0.077,0.309,0.115
	c0.021,0.009,0.045,0.017,0.066,0.026c0.104,0.038,0.205,0.076,0.308,0.114c0.022,0.008,0.043,0.016,0.063,0.023
	c0.099,0.036,0.196,0.073,0.293,0.109c0.029,0.011,0.059,0.021,0.089,0.032c0.094,0.035,0.188,0.07,0.282,0.105
	c0.028,0.01,0.057,0.02,0.084,0.031c0.096,0.035,0.189,0.069,0.285,0.104l0.088,0.033c0.094,0.034,0.187,0.068,0.279,0.102
	c0.029,0.011,0.059,0.021,0.088,0.032c0.092,0.034,0.185,0.067,0.276,0.101c0.03,0.011,0.062,0.022,0.093,0.034
	c0.088,0.032,0.176,0.063,0.264,0.096c0.034,0.013,0.069,0.025,0.104,0.038c0.086,0.032,0.172,0.062,0.258,0.093
	c0.034,0.013,0.069,0.024,0.103,0.037c0.088,0.031,0.175,0.063,0.262,0.095c0.033,0.011,0.066,0.022,0.099,0.035
	c0.08,0.028,0.159,0.057,0.238,0.085c0.042,0.015,0.083,0.029,0.124,0.045c0.08,0.028,0.158,0.056,0.236,0.084
	c0.037,0.013,0.076,0.027,0.113,0.04c0.088,0.03,0.176,0.062,0.264,0.093c0.027,0.01,0.054,0.02,0.08,0.029
	c0.084,0.029,0.165,0.058,0.248,0.087c0.035,0.012,0.069,0.024,0.104,0.036c0.071,0.025,0.142,0.05,0.213,0.075
	c0.043,0.015,0.087,0.029,0.13,0.044c0.074,0.026,0.147,0.052,0.219,0.076c0.039,0.014,0.076,0.027,0.114,0.04
	c0.069,0.024,0.138,0.048,0.206,0.071c0.043,0.015,0.086,0.029,0.129,0.044c0.065,0.022,0.129,0.044,0.192,0.065
	c0.044,0.016,0.088,0.03,0.132,0.045c0.066,0.022,0.13,0.045,0.195,0.066c0.042,0.014,0.084,0.028,0.125,0.042
	c0.104,0.035,0.209,0.07,0.312,0.104c0.204,0.068,0.401,0.142,0.593,0.222c0.003,0.002,0.006,0.003,0.01,0.004
	c0.188,0.079,0.369,0.164,0.547,0.253c0.006,0.004,0.012,0.007,0.019,0.01c0.173,0.089,0.341,0.183,0.505,0.28
	c0.008,0.005,0.016,0.009,0.023,0.015c0.161,0.097,0.316,0.199,0.466,0.305c0.009,0.007,0.019,0.013,0.028,0.02
	c0.148,0.105,0.291,0.215,0.429,0.327c0.01,0.009,0.021,0.017,0.031,0.025c0.137,0.112,0.269,0.229,0.396,0.348
	c0.01,0.009,0.021,0.019,0.03,0.028c0.127,0.119,0.249,0.242,0.367,0.367c0.01,0.01,0.019,0.02,0.028,0.029
	c0.117,0.127,0.23,0.256,0.341,0.388c0.008,0.009,0.016,0.018,0.024,0.027c0.108,0.134,0.213,0.269,0.315,0.405
	c0.006,0.009,0.012,0.018,0.019,0.025c0.103,0.14,0.2,0.281,0.295,0.424c0.004,0.006,0.008,0.013,0.013,0.019
	c0.095,0.146,0.186,0.293,0.274,0.442c0.002,0.004,0.004,0.007,0.006,0.01c0.99,1.69,1.387,3.539,1.619,4.936v8.1H74.44V111.297z"/>
<path fill="#F8D012" d="M133.892,107.549l-37.17-26.486l3.859-6.159l9.966,7.833l23.361,15.825l0.64,0.433
	c0,0,2.438,0.944,5.774,2.193l0.006,0.027L133.892,107.549z"/>
<path fill="#F8D012" d="M132.063,96.635c0.482,0.193,11.268,4.497,17.799,6.674c3.3,1.101,4.968,3.829,5.813,6.311h-33.119
	L132.063,96.635z"/>
<polygon fill="#191818" points="110.684,81.86 104.735,87.122 107.733,79.768 "/>
<polygon fill="#191818" points="116.281,85.848 110.333,91.109 113.331,83.756 "/>
<line fill="none" stroke="#191818" stroke-width="1.839" stroke-miterlimit="10" x1="155.674" y1="110.309" x2="74.44" y2="110.309"/>
<polygon fill="#191818" points="121.878,89.835 115.93,95.097 118.928,87.743 "/>
<polygon fill="#191818" points="127.475,93.822 121.526,99.085 124.524,91.73 "/>
<polygon fill="#191818" points="133.072,97.81 127.123,103.072 130.121,95.719 "/>
<polygon fill="#F8D012" points="89.302,86.104 105.096,94.154 100.875,97.448 108.309,105.231 92.515,97.183 96.736,93.888 "/>
<path fill="#F8D012" d="M76.023,93.614l-0.942,16.018h17.063C91.297,101.146,84.523,94.408,76.023,93.614"/>
<path fill="none" stroke="#191818" stroke-width="3.679" stroke-miterlimit="10" d="M74.44,111.297l0.138-4.397l0.873-13.101
	l0.319-4.773l0.445-6.681l0.148-2.228h20.045c0-4.455,4.454-6.682,4.454-6.682l1.96,1.47l1.604,1.203l0.712,0.534l3.341,2.505
	l22.97,16.145l0.594,0.416c0,0,0.496,0.197,1.341,0.531c0.003,0.001,0.006,0.002,0.009,0.003c0.046,0.019,0.093,0.037,0.141,0.057
	c0.021,0.008,0.043,0.017,0.063,0.024c0.045,0.019,0.09,0.036,0.137,0.054c0.013,0.005,0.024,0.009,0.036,0.014
	c0.051,0.02,0.102,0.041,0.155,0.061c0.018,0.008,0.037,0.016,0.055,0.022c0.052,0.02,0.103,0.04,0.156,0.061
	c0.009,0.005,0.018,0.007,0.026,0.011c0.084,0.033,0.17,0.067,0.258,0.101c0.048,0.019,0.096,0.038,0.145,0.057
	c0.047,0.018,0.096,0.037,0.142,0.056c0.03,0.011,0.06,0.022,0.091,0.035c0.052,0.02,0.104,0.041,0.158,0.062
	c0.027,0.011,0.056,0.022,0.084,0.033c0.048,0.019,0.098,0.038,0.146,0.057c0.039,0.015,0.077,0.03,0.116,0.046
	c0.049,0.02,0.098,0.038,0.147,0.058c0.029,0.012,0.061,0.023,0.092,0.036c0.057,0.022,0.115,0.045,0.173,0.068
	c0.041,0.016,0.083,0.032,0.124,0.048c0.039,0.016,0.078,0.031,0.117,0.046c0.073,0.028,0.146,0.057,0.221,0.086
	c0.016,0.006,0.033,0.012,0.049,0.019c0.076,0.029,0.152,0.059,0.23,0.09c0.024,0.009,0.049,0.018,0.072,0.027
	c0.059,0.022,0.118,0.046,0.178,0.069c0.058,0.022,0.115,0.044,0.175,0.067c1.018,0.395,2.141,0.827,3.313,1.274
	c0.002,0.001,0.006,0.002,0.008,0.003c0.117,0.045,0.236,0.09,0.355,0.135h0.001c0.113,0.043,0.228,0.086,0.34,0.13
	c0.019,0.006,0.036,0.013,0.054,0.02c0.107,0.041,0.215,0.081,0.321,0.121c0.011,0.004,0.021,0.007,0.029,0.011
	c0.116,0.044,0.233,0.088,0.351,0.132c0.001,0.001,0.004,0.002,0.006,0.002c0.116,0.044,0.233,0.089,0.351,0.133
	c0.011,0.004,0.022,0.008,0.032,0.012c0.108,0.04,0.217,0.081,0.326,0.122c0.018,0.008,0.036,0.015,0.055,0.021
	c0.104,0.039,0.211,0.078,0.316,0.117c0.018,0.007,0.036,0.014,0.055,0.021c0.103,0.039,0.205,0.077,0.309,0.115
	c0.021,0.009,0.045,0.017,0.066,0.026c0.104,0.038,0.205,0.076,0.308,0.114c0.022,0.008,0.043,0.016,0.063,0.023
	c0.099,0.036,0.196,0.073,0.293,0.109c0.029,0.011,0.059,0.021,0.089,0.032c0.094,0.035,0.188,0.07,0.282,0.105
	c0.028,0.01,0.057,0.02,0.084,0.031c0.096,0.035,0.189,0.069,0.285,0.104l0.088,0.033c0.094,0.034,0.187,0.068,0.279,0.102
	c0.029,0.011,0.059,0.021,0.088,0.032c0.092,0.034,0.185,0.067,0.276,0.101c0.03,0.011,0.062,0.022,0.093,0.034
	c0.088,0.032,0.176,0.063,0.264,0.096c0.034,0.013,0.069,0.025,0.104,0.038c0.086,0.032,0.172,0.062,0.258,0.093
	c0.034,0.013,0.069,0.024,0.103,0.037c0.088,0.031,0.175,0.063,0.262,0.095c0.033,0.011,0.066,0.022,0.099,0.035
	c0.08,0.028,0.159,0.057,0.238,0.085c0.042,0.015,0.083,0.029,0.124,0.045c0.08,0.028,0.158,0.056,0.236,0.084
	c0.037,0.013,0.076,0.027,0.113,0.04c0.088,0.03,0.176,0.062,0.264,0.093c0.027,0.01,0.054,0.02,0.08,0.029
	c0.084,0.029,0.165,0.058,0.248,0.087c0.035,0.012,0.069,0.024,0.104,0.036c0.071,0.025,0.142,0.05,0.213,0.075
	c0.043,0.015,0.087,0.029,0.13,0.044c0.074,0.026,0.147,0.052,0.219,0.076c0.039,0.014,0.076,0.027,0.114,0.04
	c0.069,0.024,0.138,0.048,0.206,0.071c0.043,0.015,0.086,0.029,0.129,0.044c0.065,0.022,0.129,0.044,0.192,0.065
	c0.044,0.016,0.088,0.03,0.132,0.045c0.066,0.022,0.13,0.045,0.195,0.066c0.042,0.014,0.084,0.028,0.125,0.042
	c0.104,0.035,0.209,0.07,0.312,0.104c0.204,0.068,0.401,0.142,0.593,0.222c0.003,0.002,0.006,0.003,0.01,0.004
	c0.188,0.079,0.369,0.164,0.547,0.253c0.006,0.004,0.012,0.007,0.019,0.01c0.173,0.089,0.341,0.183,0.505,0.28
	c0.008,0.005,0.016,0.009,0.023,0.015c0.161,0.097,0.316,0.199,0.466,0.305c0.009,0.007,0.019,0.013,0.028,0.02
	c0.148,0.105,0.291,0.215,0.429,0.327c0.01,0.009,0.021,0.017,0.031,0.025c0.137,0.112,0.269,0.229,0.396,0.348
	c0.01,0.009,0.021,0.019,0.03,0.028c0.127,0.119,0.249,0.242,0.367,0.367c0.01,0.01,0.019,0.02,0.028,0.029
	c0.117,0.127,0.23,0.256,0.341,0.388c0.008,0.009,0.016,0.018,0.024,0.027c0.108,0.134,0.213,0.269,0.315,0.405
	c0.006,0.009,0.012,0.018,0.019,0.025c0.103,0.14,0.2,0.281,0.295,0.424c0.004,0.006,0.008,0.013,0.013,0.019
	c0.095,0.146,0.186,0.293,0.274,0.442c0.002,0.004,0.004,0.007,0.006,0.01c0.99,1.69,1.387,3.539,1.619,4.936v8.1H74.44V111.297z"/>
<path fill="#FFFFFF" d="M93.019,43.336l2.408-2.528c1.023,1.325,2.619,2.198,4.306,2.198c2.107,0,3.07-1.114,3.07-2.679
	c0-1.867-1.294-2.53-3.251-2.53c-0.662,0-1.565,0-1.867,0.061v-3.643c0.302,0.029,1.295,0.029,1.776,0.029
	c1.837,0,3.072-0.752,3.072-2.317c0-1.687-1.204-2.5-2.951-2.5c-1.565,0-2.98,0.723-4.004,2.017l-2.288-2.348
	c1.445-2.017,3.733-3.252,6.624-3.252c3.973,0,6.592,1.897,6.592,5.45c0,2.288-1.716,4.154-3.793,4.576
	c2.047,0.301,4.094,2.107,4.094,4.817c0,3.492-2.679,5.9-6.893,5.9C96.722,46.587,94.283,45.172,93.019,43.336"/>
<path fill="#FFFFFF" d="M108.521,36.201c0-5.178,2.137-10.356,7.105-10.356c4.997,0,7.104,5.178,7.104,10.356
	c0,5.148-2.077,10.387-7.104,10.387C110.658,46.588,108.521,41.35,108.521,36.201 M118.636,36.201c0-3.883-0.662-6.773-3.01-6.773
	c-2.318,0-2.98,2.891-2.98,6.773c0,3.854,0.662,6.804,2.98,6.804C117.974,43.005,118.636,40.055,118.636,36.201"/>
<polygon fill="#FFFFFF" points="135.282,46.227 130.645,38.369 129.23,40.597 129.23,46.227 125.196,46.227 125.196,26.146 
	129.23,26.146 129.23,35.269 134.89,26.146 139.587,26.146 133.176,35.6 140.039,46.227 "/>
<polygon fill="#FFFFFF" points="87.981,33.238 80.522,32.107 77.202,25.01 73.882,32.107 66.423,33.238 71.813,38.772 
	70.465,46.567 77.202,42.887 83.939,46.567 82.592,38.772 "/>
<polygon fill="#FFFFFF" points="167.648,33.238 160.189,32.107 156.869,25.01 153.549,32.107 146.09,33.238 151.479,38.772 
	150.132,46.567 156.869,42.887 163.605,46.567 162.259,38.772 "/>
</svg>
