<?xml version="1.0" encoding="utf-8"?>
<!-- Generator: Adobe Illustrator 16.0.0, SVG Export Plug-In . SVG Version: 6.00 Build 0)  -->
<!DOCTYPE svg PUBLIC "-//W3C//DTD SVG 1.1//EN" "http://www.w3.org/Graphics/SVG/1.1/DTD/svg11.dtd">
<svg version="1.1" id="Layer_1" xmlns="http://www.w3.org/2000/svg" xmlns:xlink="http://www.w3.org/1999/xlink" x="0px" y="0px"
	 width="612px" height="792px" viewBox="0 0 612 792" enable-background="new 0 0 612 792" xml:space="preserve">
<path fill="#FECF0A" d="M243.389,333.817v19.726v48.365c0,34.662,62.764,62.764,62.764,62.764s62.764-28.102,62.764-62.764v-48.365
	v-19.726H243.389z"/>
<g opacity="0.6">
	<g>
		<defs>
			<rect id="SVGID_1_" x="306.03" y="333.19" width="60.02" height="127.57"/>
		</defs>
		<clipPath id="SVGID_2_">
			<use xlink:href="#SVGID_1_"  overflow="visible"/>
		</clipPath>
		<path clip-path="url(#SVGID_2_)" fill="#CDA72C" d="M306.156,460.76c5.59-2.752,17.619-9.047,29.467-17.651
			c9.191-6.673,16.455-13.392,21.588-19.966c5.867-7.514,8.842-14.723,8.842-21.428v-47.224v-21.305h-60.025v127.511
			C306.069,460.719,306.115,460.74,306.156,460.76"/>
	</g>
</g>
<g opacity="0.4">
	<g>
		<defs>
			<rect id="SVGID_3_" x="241.55" y="329.39" width="129.2" height="137.2"/>
		</defs>
		<clipPath id="SVGID_4_">
			<use xlink:href="#SVGID_3_"  overflow="visible"/>
		</clipPath>
		<path clip-path="url(#SVGID_4_)" fill="#FFFFFF" d="M356.955,343.19v9.015v49.781c0,18.215-31.199,39.305-50.76,49.273
			c-5.696-2.924-14.985-8.061-24.254-14.771c-17.149-12.413-26.594-24.667-26.594-34.503v-49.781v-9.015H356.955 M370.752,329.395
			h-129.2v22.811v49.781c0,35.677,64.6,64.6,64.6,64.6s64.601-28.923,64.601-64.6v-49.781V329.395z"/>
	</g>
</g>
<path fill="#1A1A19" d="M363.228,336.919v15.286v49.781c0,8.389-5.031,22.042-28.997,39.445
	c-11.291,8.199-22.754,14.197-28.081,16.82c-5.288-2.602-16.619-8.527-27.885-16.683c-24.124-17.462-29.188-31.164-29.188-39.583
	v-49.781v-15.286H363.228 M370.752,329.395h-129.2v22.811v49.781c0,35.677,64.6,64.6,64.6,64.6s64.601-28.923,64.601-64.6v-49.781
	V329.395z"/>
<path fill="#1A1A19" d="M246.569,312.77c-2.741,0.32-4.983,2.84-4.983,5.599v25.574c0,2.76,2.258,5.017,5.017,5.017h119.09
	c2.76,0,5.017-2.257,5.017-5.017v-25.574c0-2.759-2.242-5.278-4.983-5.597l-54.713-6.366c-2.742-0.319-7.226-0.318-9.967,0.002
	L246.569,312.77z"/>
<polygon fill="#FFFFFF" points="289.535,338.545 289.535,323.673 286.494,326.834 284.177,324.396 290.077,318.465 293.599,318.465 
	293.599,338.545 "/>
<path fill="#FFFFFF" d="M296.217,335.745l2.438-2.589c1.054,1.385,2.469,2.168,4.185,2.168c1.927,0,3.041-1.475,3.041-3.162
	c0-1.986-1.054-3.161-2.86-3.161c-1.355,0-2.379,0.482-3.312,1.656l-2.92-0.783v-11.409h12.042v3.551h-8.008v5.149
	c0.783-0.963,2.138-1.656,3.673-1.656c3.041,0,5.479,2.379,5.479,6.533c0,4.034-2.738,6.864-7.014,6.864
	C299.86,338.906,297.722,337.763,296.217,335.745"/>
<polygon fill="#FFFFFF" points="322.496,338.545 317.86,330.688 316.445,332.915 316.445,338.545 312.412,338.545 312.412,318.465 
	316.445,318.465 316.445,327.587 322.104,318.465 326.802,318.465 320.39,327.918 327.254,338.545 "/>
<path fill="#FFFFFF" d="M340.076,406.808c0,9.819-7.96,17.779-17.779,17.779h-32.395c-9.819,0-17.779-7.96-17.779-17.779v-22.593
	c0-9.819,7.96-17.779,17.779-17.779h32.395c9.819,0,17.779,7.96,17.779,17.779V406.808z"/>
<path fill="#231F20" d="M322.297,426.594h-32.395c-10.91,0-19.786-8.877-19.786-19.786v-22.593c0-10.91,8.876-19.786,19.786-19.786
	h32.395c10.91,0,19.786,8.876,19.786,19.786v22.593C342.083,417.717,333.207,426.594,322.297,426.594 M289.902,368.442
	c-8.697,0-15.772,7.076-15.772,15.772v22.593c0,8.696,7.075,15.772,15.772,15.772h32.395c8.697,0,15.771-7.076,15.771-15.772
	v-22.593c0-8.696-7.074-15.772-15.771-15.772H289.902z"/>
<path fill="#FECF0A" d="M331.852,399.66c0,7.602-6.162,13.766-13.765,13.766l-37.74-13.766v-12.219
	c0-7.602,6.163-13.765,13.765-13.765h23.975c7.603,0,13.765,6.163,13.765,13.765V399.66z"/>
<g opacity="0.6">
	<g>
		<defs>
			<rect id="SVGID_5_" x="288.62" y="381.43" width="35.521" height="16.311"/>
		</defs>
		<clipPath id="SVGID_6_">
			<use xlink:href="#SVGID_5_"  overflow="visible"/>
		</clipPath>
		<rect x="288.62" y="381.431" clip-path="url(#SVGID_6_)" fill="#CDA72C" width="35.516" height="16.311"/>
	</g>
</g>
<path fill="#FECF0A" d="M290.537,409.572c0,2.129-1.725,3.854-3.853,3.854c-2.127,0-3.852-1.725-3.852-3.854
	c0-2.128,1.725-3.853,3.852-3.853C288.812,405.72,290.537,407.444,290.537,409.572"/>
<path fill="#FECF0A" d="M298.218,410.878c0,1.407-1.141,2.547-2.547,2.547c-1.407,0-2.548-1.14-2.548-2.547s1.141-2.547,2.548-2.547
	C297.077,408.331,298.218,409.471,298.218,410.878"/>
<path fill="#191818" d="M290.125,364.828v-2.978c0-1.386,1.123-2.509,2.508-2.509h26.698c1.385,0,2.508,1.123,2.508,2.509v2.978
	H290.125z"/>
<path fill="#191818" d="M290.125,426.066v2.979c0,1.386,1.123,2.509,2.508,2.509h26.698c1.385,0,2.508-1.123,2.508-2.509v-2.979
	H290.125z"/>
<path fill="#1A1A19" d="M327.369,458.896c-10.387,6.446-19.063,10.539-20.966,11.416c-1.905-0.877-10.58-4.97-20.967-11.416v0.492
	c-0.003-0.002,0.004-0.005,0-0.007v15.052c11.415,7.013,20.568,11.111,20.568,11.111l0.399-0.001l0.399,0.001
	c0,0,9.152-4.099,20.567-11.111v-15.052c-0.004,0.002,0.004,0.005,0,0.007V458.896z"/>
<path fill="#FFFFFF" d="M282.12,457.76c-9.748-6.171-20.759-14.313-29.014-23.745v15.052c8.118,9.568,19.145,17.857,29.014,24.17
	v-15.052c-0.004-0.002,0.003-0.005,0-0.007V457.76z"/>
<path fill="#FFFFFF" d="M330.686,457.76v0.418c-0.004,0.002,0.003,0.005,0,0.007v15.052c9.869-6.313,20.895-14.602,29.014-24.17
	v-15.052C351.443,443.447,340.434,451.589,330.686,457.76"/>
<polygon fill="#FFFFFF" points="275.509,326.925 263.769,329.634 252.933,326.925 252.933,320.604 263.769,323.313 275.509,320.604 
	"/>
<polygon fill="#FFFFFF" points="275.509,335.956 263.769,338.665 252.933,335.956 252.933,329.635 263.769,332.344 275.509,329.635 
	"/>
<polygon fill="#FFFFFF" points="359.873,326.925 348.133,329.634 337.297,326.925 337.297,320.604 348.133,323.313 359.873,320.604 
	"/>
<polygon fill="#FFFFFF" points="359.873,335.956 348.133,338.665 337.297,335.956 337.297,329.635 348.133,332.344 359.873,329.635 
	"/>
</svg>
