<?xml version="1.0" encoding="utf-8"?>
<!-- Generator: Adobe Illustrator 16.0.0, SVG Export Plug-In . SVG Version: 6.00 Build 0)  -->
<!DOCTYPE svg PUBLIC "-//W3C//DTD SVG 1.1//EN" "http://www.w3.org/Graphics/SVG/1.1/DTD/svg11.dtd">
<svg version="1.1" id="Layer_1" xmlns="http://www.w3.org/2000/svg" xmlns:xlink="http://www.w3.org/1999/xlink" x="0px" y="0px"
	 width="612px" height="792px" viewBox="0 0 612 792" enable-background="new 0 0 612 792" xml:space="preserve">
<path fill="#F26C7C" d="M243.653,344.053v19.56v47.958c0,34.371,62.235,62.234,62.235,62.234s62.235-27.863,62.235-62.234v-47.958
	v-19.56H243.653z"/>
<g opacity="0.6">
	<g>
		<defs>
			<rect id="SVGID_1_" x="305.763" y="342.87" width="60.026" height="127.569"/>
		</defs>
		<clipPath id="SVGID_2_">
			<use xlink:href="#SVGID_1_"  overflow="visible"/>
		</clipPath>
		<path clip-path="url(#SVGID_2_)" fill="#DF2E54" d="M305.892,470.444c5.59-2.753,17.618-9.048,29.468-17.651
			c9.191-6.674,16.454-13.392,21.588-19.967c5.866-7.514,8.842-14.723,8.842-21.427v-47.224v-21.305h-60.025v127.511
			C305.806,470.402,305.851,470.425,305.892,470.444"/>
	</g>
</g>
<g opacity="0.4">
	<g>
		<defs>
			<rect id="SVGID_3_" x="241.287" y="339.08" width="129.201" height="137.189"/>
		</defs>
		<clipPath id="SVGID_4_">
			<use xlink:href="#SVGID_3_"  overflow="visible"/>
		</clipPath>
		<path clip-path="url(#SVGID_4_)" fill="#FFFFFF" d="M356.691,352.875v9.015v49.78c0,18.229-31.246,39.338-50.803,49.296
			c-19.566-9.964-50.804-31.069-50.804-49.296v-49.78v-9.015H356.691 M370.488,339.078H241.287v22.812v49.78
			c0,35.679,64.601,64.601,64.601,64.601s64.6-28.922,64.6-64.601v-49.78V339.078z"/>
	</g>
</g>
<path fill="#1A1A19" d="M362.963,346.604v15.286v49.78c0,8.39-5.03,22.043-28.996,39.445c-11.291,8.199-22.754,14.197-28.082,16.821
	c-5.288-2.601-16.619-8.527-27.885-16.683c-24.124-17.463-29.188-31.164-29.188-39.584v-49.78v-15.286H362.963 M370.488,339.078
	H241.287v22.812v49.78c0,35.679,64.601,64.601,64.601,64.601s64.6-28.922,64.6-64.601v-49.78V339.078z"/>
<path fill="#1A1A19" d="M246.305,322.454c-2.741,0.32-4.983,2.84-4.983,5.6v25.574c0,2.76,2.258,5.017,5.017,5.017h119.09
	c2.761,0,5.017-2.257,5.017-5.017v-25.574c0-2.759-2.241-5.278-4.982-5.597l-54.714-6.366c-2.741-0.319-7.225-0.318-9.966,0.002
	L246.305,322.454z"/>
<path fill="#FFFFFF" d="M298.436,343.111c0-2.438,1.777-4.456,3.824-5.238c-1.897-0.692-3.553-2.317-3.553-4.787
	c0-3.673,3.342-5.238,6.654-5.238c3.25,0,6.653,1.564,6.653,5.238c0,2.469-1.686,4.094-3.583,4.787
	c2.048,0.782,3.854,2.8,3.854,5.208c0,3.583-2.95,5.509-6.924,5.509C301.357,348.59,298.436,346.664,298.436,343.111
	 M308.221,342.569c0-1.926-2.047-2.92-2.86-3.041c-0.843,0.121-2.86,1.115-2.86,3.041c0,1.596,1.234,2.499,2.86,2.499
	C306.927,345.068,308.221,344.166,308.221,342.569 M307.949,333.748c0-1.475-1.022-2.378-2.588-2.378
	c-1.596,0-2.619,0.903-2.619,2.378c0,1.716,1.836,2.499,2.619,2.681C306.114,336.247,307.949,335.464,307.949,333.748"/>
<path fill="#FFFFFF" d="M319.271,441.653c-17.019,7.085-36.557-0.967-43.642-17.985c-7.085-17.017,0.967-36.556,17.984-43.641
	c17.018-7.085,36.557,0.967,43.642,17.985C344.341,415.029,336.289,434.568,319.271,441.653"/>
<path fill="#191818" d="M305.935,386.641c0,0-0.002,0.021-0.004,0.054h0.01C305.937,386.661,305.935,386.641,305.935,386.641"/>
<path fill="#F26C7C" d="M335.047,394.726c-5.725-10.041-17.25-16.65-28.429-16.389l-0.292,3.321l0.786,29.624l32.283,0.335
	L335.047,394.726z"/>
<path fill="#191818" d="M305.938,386.667c0.002,0.015,0.537,0.026,1.197,0.026c0.657,0,1.191-0.561,1.191-1.254v-5.77
	c0-0.692-0.561-1.254-1.254-1.254h-1.636c-0.693,0-1.254,0.563-1.254,1.254v5.77c0,0.693,0.391,1.254,0.874,1.254
	s0.876-0.012,0.877-0.026S305.936,386.652,305.938,386.667"/>
<path fill="#191818" d="M339.115,412.095v-1.636c0-0.693-0.563-1.255-1.254-1.255h-5.686c-0.693,0-1.255,0.562-1.255,1.255v1.636
	c0,0.693,0.562,1.254,1.255,1.254h5.686C338.553,413.349,339.115,412.788,339.115,412.095"/>
<path fill="#191818" d="M273.393,410.458v1.637c0,0.692,0.562,1.255,1.254,1.255h5.519c0.693,0,1.254-0.563,1.254-1.255v-1.637
	c0-0.692-0.561-1.254-1.254-1.254h-5.519C273.955,409.204,273.393,409.766,273.393,410.458"/>
<path fill="#191818" d="M305.436,444.138h1.636c0.693,0,1.255-0.562,1.255-1.254v-5.436c0-0.692-0.562-1.254-1.255-1.254h-1.636
	c-0.693,0-1.254,0.562-1.254,1.254v5.436C304.182,443.576,304.743,444.138,305.436,444.138"/>
<g opacity="0.6">
	<g>
		<defs>
			<rect id="SVGID_5_" x="277.627" y="382.65" width="57.254" height="57.25"/>
		</defs>
		<clipPath id="SVGID_6_">
			<use xlink:href="#SVGID_5_"  overflow="visible"/>
		</clipPath>
		<path clip-path="url(#SVGID_6_)" fill="#DF2E54" d="M289.824,382.818c-0.6,0.346-0.805,1.113-0.459,1.713l2.849,4.935
			c0.346,0.6,1.115,0.808,1.717,0.466c0.602-0.343,0.809-1.107,0.463-1.707l-2.857-4.948
			C291.19,382.677,290.424,382.472,289.824,382.818"/>
		<path clip-path="url(#SVGID_6_)" fill="#DF2E54" d="M277.795,394.846c-0.346,0.601-0.141,1.367,0.459,1.713l4.868,2.811
			c0.599,0.346,1.363,0.139,1.705-0.464c0.342-0.603,0.133-1.371-0.467-1.719l-4.852-2.801
			C278.909,394.041,278.142,394.246,277.795,394.846"/>
		<path clip-path="url(#SVGID_6_)" fill="#DF2E54" d="M277.795,427.707c0.346,0.6,1.113,0.805,1.713,0.459l4.719-2.725
			c0.6-0.346,0.805-1.112,0.457-1.711c-0.348-0.6-1.117-0.805-1.717-0.458l-4.713,2.722
			C277.654,426.34,277.45,427.107,277.795,427.707"/>
		<path clip-path="url(#SVGID_6_)" fill="#DF2E54" d="M289.824,439.735c0.6,0.346,1.367,0.141,1.713-0.459l2.71-4.694
			c0.347-0.6,0.14-1.365-0.461-1.709c-0.601-0.345-1.369-0.137-1.716,0.463l-2.705,4.687
			C289.019,438.621,289.224,439.389,289.824,439.735"/>
		<path clip-path="url(#SVGID_6_)" fill="#DF2E54" d="M322.685,439.735c0.601-0.347,0.806-1.114,0.459-1.713l-2.745-4.755
			c-0.346-0.601-1.115-0.809-1.717-0.467c-0.602,0.344-0.809,1.107-0.463,1.707l2.753,4.769
			C321.318,439.876,322.084,440.081,322.685,439.735"/>
		<path clip-path="url(#SVGID_6_)" fill="#DF2E54" d="M334.713,427.707c0.346-0.6,0.141-1.367-0.459-1.713l-4.851-2.801
			c-0.6-0.346-1.364-0.139-1.706,0.464c-0.342,0.602-0.133,1.371,0.467,1.718l4.836,2.791
			C333.6,428.512,334.367,428.307,334.713,427.707"/>
		<path clip-path="url(#SVGID_6_)" fill="#DF2E54" d="M334.713,394.846c-0.346-0.6-1.113-0.805-1.713-0.459l-4.99,2.881
			c-0.6,0.347-0.805,1.113-0.456,1.713c0.348,0.598,1.116,0.803,1.716,0.457l4.984-2.878
			C334.854,396.213,335.059,395.446,334.713,394.846"/>
		<path clip-path="url(#SVGID_6_)" fill="#DF2E54" d="M322.685,382.818c-0.601-0.346-1.366-0.141-1.713,0.459l-2.897,5.017
			c-0.346,0.601-0.14,1.365,0.461,1.71c0.603,0.344,1.371,0.138,1.717-0.463l2.892-5.01
			C323.49,383.931,323.285,383.164,322.685,382.818"/>
	</g>
</g>
<path fill="#191818" d="M306.189,446.783c-14.367,0-27.218-8.57-32.739-21.833c-7.514-18.045,1.055-38.838,19.101-46.351
	c4.353-1.813,8.933-2.732,13.611-2.732c14.367,0,27.218,8.57,32.74,21.833c7.512,18.045-1.056,38.838-19.102,46.351
	C315.447,445.864,310.867,446.783,306.189,446.783 M306.163,380.012c-4.128,0-8.172,0.813-12.019,2.413
	c-15.935,6.634-23.502,24.997-16.867,40.933c4.876,11.713,16.225,19.281,28.913,19.281c4.129,0,8.172-0.813,12.018-2.414
	c15.936-6.634,23.503-24.996,16.869-40.932C330.199,387.58,318.851,380.012,306.163,380.012"/>
<path fill="#191818" d="M289.985,378.426c0,2.099-1.701,3.8-3.799,3.8c-2.099,0-3.8-1.702-3.8-3.8c0-2.098,1.701-3.8,3.8-3.8
	C288.284,374.626,289.985,376.328,289.985,378.426"/>
<path fill="#F26C7C" d="M312.874,371.491c0,3.711-3.008,6.719-6.719,6.719c-3.71,0-6.718-3.008-6.718-6.719s3.008-6.719,6.718-6.719
	C309.866,364.772,312.874,367.78,312.874,371.491"/>
<path fill="#191818" d="M306.346,379.515c-4.437,0-8.046-3.609-8.046-8.046c0-4.436,3.609-8.046,8.046-8.046s8.044,3.61,8.044,8.046
	C314.391,375.906,310.783,379.515,306.346,379.515 M306.346,367.567c-2.151,0-3.901,1.75-3.901,3.901
	c0,2.152,1.75,3.902,3.901,3.902s3.901-1.75,3.901-3.902C310.247,369.317,308.497,367.567,306.346,367.567"/>
<path fill="#191818" d="M319.971,379.168l2.586-3.061c0.896-1.058,2.479-1.19,3.537-0.296l12.029,10.171
	c1.059,0.894,1.191,2.477,0.297,3.535l-2.588,3.061L319.971,379.168z"/>
<path fill="#191818" d="M303.014,411.479c0.005,1.914,1.561,3.46,3.474,3.455c1.915-0.006,3.461-1.562,3.456-3.476
	c-0.006-1.912-3.355-15.377-3.355-15.377S303.009,409.566,303.014,411.479"/>
<path fill="#191818" d="M307.475,407.703c-1.913-0.023-3.483,1.508-3.507,3.42c-0.025,1.914,1.507,3.484,3.419,3.51
	c1.914,0.023,15.432-3.367,15.432-3.367S309.389,407.728,307.475,407.703"/>
<polygon fill="#F26C7C" points="280.507,335.458 268.768,338.167 257.931,335.458 257.931,329.136 268.768,331.846 280.507,329.136 
	"/>
<polygon fill="#F26C7C" points="280.507,344.488 268.768,347.197 257.931,344.488 257.931,338.167 268.768,340.876 280.507,338.167 
	"/>
<polygon fill="#F26C7C" points="354.871,335.458 343.131,338.167 332.295,335.458 332.295,329.136 343.131,331.846 354.871,329.136 
	"/>
<polygon fill="#F26C7C" points="354.871,344.488 343.131,347.197 332.295,344.488 332.295,338.167 343.131,340.876 354.871,338.167 
	"/>
</svg>
