<?xml version="1.0" encoding="utf-8"?>
<!-- Generator: Adobe Illustrator 16.0.0, SVG Export Plug-In . SVG Version: 6.00 Build 0)  -->
<!DOCTYPE svg PUBLIC "-//W3C//DTD SVG 1.1//EN" "http://www.w3.org/Graphics/SVG/1.1/DTD/svg11.dtd">
<svg version="1.1" id="Layer_1" xmlns="http://www.w3.org/2000/svg" xmlns:xlink="http://www.w3.org/1999/xlink" x="0px" y="0px"
	 width="240px" height="195px" viewBox="0 0 240 195" enable-background="new 0 0 240 195" xml:space="preserve">
<path fill="none" d="M78.63-2257.76"/>
<path fill="none" d="M78.63,987.837"/>
<path fill="none" d="M51.764,1616.837"/>
<path fill="none" d="M51.764-1628.76"/>
<line fill="#929497" x1="1530.52" y1="-66.557" x2="1530.52" y2="-65.807"/>
<line fill="#929497" x1="-611.484" y1="-65.807" x2="-611.484" y2="-66.557"/>
<path fill="#FDD00F" d="M188.107,93.303c-10.15-32.986-1.588-41.101,0.215-42.339h-67.617H52.223
	c1.803,1.238,10.366,9.353,0.216,42.339c-14.918,48.481,55.285,74.915,67.834,79.936c0.136-0.055,0.282-0.112,0.433-0.172
	C134.342,167.639,202.861,141.257,188.107,93.303"/>
<g opacity="0.6">
	<g>
		<g>
			<defs>
				<rect id="SVGID_1_" x="120.2" y="50.96" width="69.47" height="122.101"/>
			</defs>
			<clipPath id="SVGID_2_">
				<use xlink:href="#SVGID_1_"  overflow="visible"/>
			</clipPath>
			<path clip-path="url(#SVGID_2_)" fill="#CDA72C" d="M187.605,93.303c-10.15-32.986-1.588-41.101,0.215-42.339h-67.617v122.103
				C133.84,167.639,202.359,141.257,187.605,93.303"/>
		</g>
	</g>
</g>
<g opacity="0.4">
	<g>
		<g>
			<defs>
				<rect id="SVGID_3_" x="50.37" y="5.19" width="139.81" height="168.05"/>
			</defs>
			<clipPath id="SVGID_4_">
				<use xlink:href="#SVGID_3_"  overflow="visible"/>
			</clipPath>
			<path clip-path="url(#SVGID_4_)" fill="#FFFFFF" d="M120.272,19.247c12.873,6.204,32.309,10.53,54.449,12.167v14.542
				c-1.521,2.447-2.947,5.632-3.91,9.729c-2.504,10.653-1.121,24.676,4.108,41.677c2.329,7.567,1.856,14.6-1.444,21.499
				c-3.05,6.373-8.519,12.725-16.25,18.875c-12.736,10.132-28.211,17.049-36.953,20.637c-8.741-3.588-24.216-10.505-36.952-20.637
				c-7.732-6.15-13.2-12.502-16.251-18.875c-3.301-6.898-3.772-13.932-1.444-21.499c5.23-17.001,6.613-31.023,4.109-41.677
				c-0.964-4.097-2.391-7.281-3.909-9.729V31.414C87.963,29.777,107.4,25.451,120.272,19.247 M120.272,5.186
				c-1.726,0-3.453,0.347-4.794,1.037c-9.943,5.12-29.272,10.587-57.985,11.864c-3.016,0.134-5.465,2.57-5.465,5.589v27.161
				c0,0,11.263,7.192,0.41,42.466c-14.917,48.482,55.284,74.915,67.834,79.935c12.548-5.02,82.751-31.451,67.833-79.935
				c-10.853-35.273,0.41-42.466,0.41-42.466V23.676c0-3.019-2.449-5.455-5.466-5.589c-28.713-1.276-48.041-6.744-57.983-11.864
				C123.725,5.532,121.999,5.186,120.272,5.186"/>
		</g>
	</g>
</g>
<path fill="#191818" d="M188.518,23.676c0-3.02-2.449-5.455-5.467-5.589c-28.713-1.276-48.041-6.744-57.982-11.865
	c-2.686-1.382-6.905-1.382-9.59,0c-9.942,5.121-29.271,10.588-57.984,11.865c-3.016,0.134-5.465,2.569-5.465,5.589v27.161
	c0,0,0.07,0.041,0.195,0.127h136.099c0.125-0.086,0.194-0.127,0.194-0.127V23.676z"/>
<path fill="#191818" d="M120.272,13.552c0.526,0,0.894,0.091,1.005,0.13c13.131,6.748,34.479,11.32,58.873,12.639v21.295
	c-1.498,2.068-3.058,5.072-4.053,9.313c-2.281,9.702-0.932,22.771,4.012,38.836c5.108,16.601-1.271,31.72-19.504,46.222
	c-14.388,11.443-31.92,18.868-40.333,22.248c-8.412-3.38-25.945-10.805-40.333-22.248c-18.232-14.502-24.612-29.621-19.505-46.222
	c4.944-16.065,6.294-29.134,4.013-38.836c-0.997-4.24-2.555-7.243-4.053-9.313V26.32c24.393-1.318,45.742-5.891,58.871-12.639
	C119.379,13.643,119.745,13.552,120.272,13.552 M120.272,5.186c-1.726,0-3.453,0.346-4.794,1.037
	c-9.943,5.12-29.272,10.587-57.985,11.864c-3.016,0.134-5.465,2.57-5.465,5.589v27.161c0,0,11.263,7.192,0.41,42.466
	c-14.917,48.482,55.284,74.915,67.834,79.935c12.548-5.02,82.751-31.451,67.833-79.935c-10.853-35.273,0.41-42.466,0.41-42.466
	V23.676c0-3.019-2.449-5.455-5.466-5.589c-28.713-1.276-48.041-6.744-57.983-11.864C123.725,5.531,121.999,5.186,120.272,5.186"/>
<polygon fill="#FFFFFF" points="103.381,42.132 103.381,27.26 100.34,30.421 98.021,27.982 103.924,22.051 107.445,22.051 
	107.445,42.132 "/>
<path fill="#FFFFFF" d="M110.183,32.106c0-5.179,2.138-10.355,7.104-10.355c4.998,0,7.105,5.178,7.105,10.355
	c0,5.147-2.078,10.388-7.105,10.388C112.32,42.494,110.183,37.255,110.183,32.106 M120.299,32.106c0-3.885-0.663-6.772-3.012-6.772
	c-2.317,0-2.979,2.889-2.979,6.772c0,3.854,0.662,6.805,2.979,6.805C119.636,38.911,120.299,35.961,120.299,32.106"/>
<path fill="#FFFFFF" d="M126.348,32.106c0-5.179,2.137-10.355,7.105-10.355c4.996,0,7.104,5.178,7.104,10.355
	c0,5.147-2.078,10.388-7.104,10.388C128.484,42.494,126.348,37.255,126.348,32.106 M136.463,32.106c0-3.885-0.662-6.772-3.01-6.772
	c-2.319,0-2.98,2.889-2.98,6.772c0,3.854,0.661,6.805,2.98,6.805C135.801,38.911,136.463,35.961,136.463,32.106"/>
<path fill="#191818" d="M105.212,98.138h30.675c2.853,0,5.17,1.971,5.18,4.4l0.048,22.449H99.985l0.049-22.449
	C100.041,100.107,102.359,98.138,105.212,98.138"/>
<rect x="98.464" y="124.409" fill="#191818" width="44.17" height="8.005"/>
<path fill="#FDD00F" d="M135.702,74.825h-5.591c-1.144-6.24-5.051-15.168-9.698-15.168c-4.647,0-8.556,8.928-9.699,15.168h-5.59
	h-2.466v2.165v5.413v2.165l1.834,4.331v35.509h31.842V88.899l1.834-4.331v-2.165V76.99v-2.165H135.702z"/>
<rect x="104.152" y="110.675" fill="#FFFFFF" width="33.079" height="13.543"/>
<path fill="#FFFFFF" d="M130.87,74.176c0,5.74-4.653,10.394-10.394,10.394c-5.741,0-10.393-4.653-10.393-10.394
	s4.652-14.723,10.393-14.723C126.217,59.453,130.87,68.436,130.87,74.176"/>
<path fill="#191818" d="M110.724,86.474c-1.89,0-6.446-0.608-11.54-5.704c-4.081-4.08-7.139-3.261-7.266-3.224
	c-1.435,0.511-2.976-0.247-3.488-1.683c-0.512-1.436,0.273-3.027,1.709-3.539c2.299-0.822,7.613-0.789,12.947,4.544
	c4.336,4.336,7.658,4.093,7.795,4.083c1.511-0.218,2.873,0.836,3.088,2.345c0.216,1.509-0.867,2.911-2.375,3.126
	C111.476,86.438,111.176,86.474,110.724,86.474"/>
<path fill="#191818" d="M82.515,80.165l11.151-1.549c1.185-0.164,2.033-1.097,1.896-2.081l-0.545-3.925
	c-0.137-0.984-1.208-1.65-2.393-1.485l-11.151,1.549c-1.185,0.164-2.033,1.097-1.897,2.081l0.545,3.925
	C80.26,79.664,81.33,80.33,82.515,80.165"/>
<path fill="#191818" d="M130.07,86.474c-0.453,0-0.752-0.034-0.87-0.052c-1.509-0.215-2.556-1.613-2.341-3.122
	c0.214-1.488,1.582-2.52,3.062-2.35c0.238,0.021,3.522,0.183,7.787-4.083c5.332-5.332,10.647-5.366,12.946-4.544
	c1.436,0.512,2.184,2.091,1.671,3.525c-0.513,1.437-2.093,2.183-3.526,1.671c-0.053-0.012-3.109-0.829-7.189,3.249
	C136.518,85.863,131.96,86.474,130.07,86.474"/>
<path fill="#191818" d="M120.487,128.593l-17.995-2.437V89.742l-4.439-4.331V72.825h6.697l4.226-1.638
	c1.548-6.752,5.907-13.53,11.437-13.53s9.892,6.778,11.438,13.53l4.226,1.638h6.696v12.586l-4.438,4.331v36.412L120.487,128.593z
	 M106.492,122.661l13.992,1.895l13.85-1.892V88.057l4.438-4.331v-6.899h-3.443l-6.982-2.705l-0.201-1.1
	c-1.108-6.054-4.723-11.363-7.731-11.363c-3.009,0-6.621,5.311-7.73,11.363l-0.202,1.1l-6.981,2.705h-3.445v6.899l4.439,4.331
	v34.604H106.492z"/>
<path fill="#191818" d="M158.279,80.165l-11.15-1.549c-1.186-0.164-2.033-1.097-1.896-2.081l0.545-3.925
	c0.138-0.984,1.207-1.65,2.392-1.485l11.151,1.549c1.185,0.164,2.033,1.097,1.897,2.081l-0.546,3.925
	C160.535,79.664,159.465,80.33,158.279,80.165"/>
<polygon fill="#191818" points="100.84,75.188 110.661,73.165 130.438,73.165 136.211,75.042 140.771,74.825 140.771,84.569 
	136.334,88.899 105.025,88.899 100.055,84.569 "/>
<path fill="#FDD00F" d="M130.256,81.971c0,5.381-4.361,9.743-9.742,9.743c-5.383,0-9.744-4.362-9.744-9.743s4.361-9.743,9.744-9.743
	C125.895,72.228,130.256,76.59,130.256,81.971"/>
<path fill="#FFFFFF" d="M120.514,77.244c2.605,0,4.727,2.12,4.727,4.727c0,2.605-2.121,4.727-4.727,4.727
	c-2.607,0-4.728-2.12-4.728-4.727S117.906,77.244,120.514,77.244 M120.514,72.228c-5.382,0-9.744,4.362-9.744,9.743
	c0,5.382,4.362,9.743,9.744,9.743c5.38,0,9.742-4.36,9.742-9.743C130.256,76.589,125.895,72.228,120.514,72.228"/>
<path fill="#191818" d="M120.514,93.093c-6.134,0-11.125-4.989-11.125-11.123c0-6.133,4.991-11.123,11.125-11.123
	c6.132,0,11.123,4.99,11.123,11.123C131.636,88.104,126.646,93.093,120.514,93.093 M120.514,73.607
	c-4.613,0-8.365,3.751-8.365,8.362c0,4.612,3.752,8.364,8.365,8.364c4.611,0,8.362-3.752,8.362-8.364
	C128.876,77.358,125.125,73.607,120.514,73.607"/>
<path fill="#191818" d="M123.557,78.782l-6.027,6.416c0.795,0.782,1.884,1.265,3.088,1.265c2.432,0,4.403-1.971,4.403-4.403
	C125.021,80.758,124.455,79.588,123.557,78.782"/>
<path fill="#191818" d="M120.384,104.579c-3.589,0-6.496,2.908-6.496,6.496v29.316c0,3.589,2.907,6.496,6.496,6.496
	c3.587,0,6.495-2.907,6.495-6.496v-29.316C126.879,107.487,123.971,104.579,120.384,104.579"/>
<polygon fill="#FFFFFF" points="91.219,30.126 83.76,28.995 80.439,21.897 77.118,28.995 69.66,30.126 75.05,35.66 73.702,43.455 
	80.439,39.774 87.176,43.455 85.828,35.66 "/>
<polygon fill="#FFFFFF" points="170.885,30.126 163.427,28.995 160.105,21.897 156.785,28.995 149.326,30.126 154.717,35.66 
	153.369,43.455 160.105,39.774 166.842,43.455 165.496,35.66 "/>
<path fill="#1A1A19" d="M120.246,177.57c-3.51-1.403-11.533-5.484-20.94-10.254v14.697c11.415,7.015,20.567,11.113,20.567,11.113
	l0.398-0.001l0.399,0.001c0,0,9.153-4.1,20.566-11.113v-14.726c-9.063,4.597-16.848,8.632-20.561,10.109
	C120.527,177.458,120.382,177.517,120.246,177.57"/>
<path fill="#FFFFFF" d="M66.977,156.647c8.118,9.568,19.146,17.857,29.014,24.17v-15.225c-9.689-5.161-20.402-12.017-29.014-20.575
	V156.647L66.977,156.647z"/>
<path fill="#FFFFFF" d="M144.555,180.817c9.869-6.313,20.896-14.602,29.014-24.171v-11.686
	c-8.605,8.569-19.315,15.433-29.014,20.602V180.817z"/>
</svg>
