<?xml version="1.0" encoding="utf-8"?>
<!-- Generator: Adobe Illustrator 16.0.0, SVG Export Plug-In . SVG Version: 6.00 Build 0)  -->
<!DOCTYPE svg PUBLIC "-//W3C//DTD SVG 1.1//EN" "http://www.w3.org/Graphics/SVG/1.1/DTD/svg11.dtd">
<svg version="1.1" id="Layer_1" xmlns="http://www.w3.org/2000/svg" xmlns:xlink="http://www.w3.org/1999/xlink" x="0px" y="0px"
	 width="240px" height="195px" viewBox="0 0 240 195" enable-background="new 0 0 240 195" xml:space="preserve">
<path fill="none" d="M78.63-2257.76"/>
<path fill="none" d="M78.63,987.837"/>
<path fill="none" d="M51.764,1616.837"/>
<path fill="none" d="M51.764-1628.76"/>
<line fill="#929497" x1="1530.52" y1="-66.557" x2="1530.52" y2="-65.807"/>
<line fill="#929497" x1="-611.484" y1="-65.807" x2="-611.484" y2="-66.557"/>
<path fill="#FECF0A" d="M187.172,103.303c-10.149-32.987-1.587-41.101,0.215-42.339H119.77H51.288
	c1.803,1.238,10.366,9.352,0.216,42.339c-14.918,48.481,55.284,74.915,67.834,79.935c0.136-0.054,0.282-0.112,0.432-0.172
	C133.407,177.639,201.927,151.257,187.172,103.303"/>
<g opacity="0.4">
	<g>
		<defs>
			<rect id="SVGID_1_" x="49.43" y="15.19" width="139.811" height="168.05"/>
		</defs>
		<clipPath id="SVGID_2_">
			<use xlink:href="#SVGID_1_"  overflow="visible"/>
		</clipPath>
		<path clip-path="url(#SVGID_2_)" fill="#FFFFFF" d="M119.338,29.247c12.873,6.204,32.308,10.53,54.447,12.167v14.542
			c-1.519,2.447-2.945,5.632-3.908,9.729c-2.505,10.653-1.122,24.676,4.108,41.677c2.328,7.567,1.856,14.6-1.444,21.498
			c-3.051,6.373-8.519,12.725-16.251,18.875c-12.737,10.132-28.211,17.049-36.952,20.637c-8.742-3.588-24.216-10.505-36.952-20.637
			c-7.733-6.15-13.201-12.502-16.251-18.875c-3.301-6.898-3.774-13.931-1.445-21.498c5.231-17.001,6.614-31.023,4.109-41.677
			c-0.963-4.097-2.39-7.282-3.909-9.729V41.414C87.029,39.777,106.466,35.451,119.338,29.247 M119.338,15.186
			c-1.726,0-3.453,0.347-4.795,1.037c-9.942,5.12-29.271,10.588-57.984,11.864c-3.016,0.134-5.465,2.57-5.465,5.589v27.161
			c0,0,11.263,7.192,0.41,42.466c-14.918,48.482,55.285,74.915,67.834,79.934c12.549-5.019,82.751-31.451,67.834-79.934
			c-10.854-35.274,0.41-42.466,0.41-42.466V33.676c0-3.019-2.449-5.455-5.465-5.589c-28.713-1.276-48.043-6.744-57.984-11.864
			C122.791,15.532,121.063,15.186,119.338,15.186"/>
	</g>
</g>
<path fill="#191818" d="M187.582,33.676c0-3.02-2.449-5.455-5.465-5.589c-28.713-1.276-48.043-6.744-57.984-11.865
	c-2.685-1.382-6.905-1.382-9.59,0c-9.942,5.121-29.271,10.588-57.983,11.865c-3.017,0.134-5.466,2.569-5.466,5.589v27.161
	c0,0,0.07,0.041,0.195,0.127h136.099c0.124-0.086,0.194-0.127,0.194-0.127V33.676z"/>
<path fill="#191818" d="M119.338,23.552c0.527,0,0.894,0.091,1.006,0.13c13.13,6.748,34.478,11.32,58.872,12.638v21.295
	c-1.498,2.069-3.057,5.071-4.053,9.313c-2.281,9.702-0.932,22.77,4.013,38.836c5.107,16.6-1.273,31.719-19.505,46.221
	c-14.388,11.444-31.921,18.869-40.333,22.248c-8.412-3.379-25.946-10.804-40.333-22.248c-18.232-14.502-24.613-29.621-19.505-46.221
	c4.942-16.066,6.294-29.134,4.013-38.836c-0.997-4.241-2.555-7.243-4.053-9.313V36.32c24.393-1.318,45.743-5.89,58.872-12.638
	C118.444,23.643,118.811,23.552,119.338,23.552 M119.338,15.186c-1.726,0-3.453,0.346-4.795,1.037
	c-9.942,5.12-29.271,10.588-57.984,11.864c-3.016,0.134-5.465,2.57-5.465,5.589v27.161c0,0,11.263,7.192,0.41,42.466
	c-14.918,48.482,55.285,74.915,67.834,79.934c12.549-5.019,82.751-31.451,67.834-79.934c-10.854-35.274,0.41-42.466,0.41-42.466
	V33.676c0-3.019-2.449-5.455-5.465-5.589c-28.713-1.276-48.043-6.744-57.984-11.864C122.791,15.531,121.063,15.186,119.338,15.186"
	/>
<polygon fill="#FFFFFF" points="111.056,52.132 111.056,37.261 108.015,40.421 105.697,37.982 111.598,32.051 115.12,32.051 
	115.12,52.132 "/>
<path fill="#FFFFFF" d="M117.286,49.332l2.438-2.589c1.054,1.384,2.468,2.167,4.185,2.167c1.927,0,3.04-1.475,3.04-3.16
	c0-1.987-1.054-3.162-2.859-3.162c-1.355,0-2.378,0.482-3.311,1.656l-2.921-0.783v-11.41h12.042v3.552h-8.008v5.149
	c0.783-0.964,2.138-1.656,3.673-1.656c3.041,0,5.48,2.378,5.48,6.533c0,4.034-2.74,6.864-7.016,6.864
	C120.929,52.493,118.791,51.35,117.286,49.332"/>
<g opacity="0.6">
	<g>
		<defs>
			<rect id="SVGID_3_" x="119.27" y="60.96" width="69.47" height="122.101"/>
		</defs>
		<clipPath id="SVGID_4_">
			<use xlink:href="#SVGID_3_"  overflow="visible"/>
		</clipPath>
		<path clip-path="url(#SVGID_4_)" fill="#CDA72C" d="M186.67,103.303c-10.149-32.987-1.587-41.101,0.215-42.339h-67.616v122.102
			C132.905,177.639,201.425,151.257,186.67,103.303"/>
	</g>
</g>
<path fill="#191818" d="M104.277,108.138h30.674c2.852,0,5.171,1.97,5.18,4.399l0.049,22.449H99.049l0.048-22.449
	C99.106,110.107,101.425,108.138,104.277,108.138"/>
<rect x="97.53" y="134.409" fill="#191818" width="44.17" height="8.005"/>
<path fill="#FECF0A" d="M134.768,84.825h-5.591c-1.144-6.24-5.052-15.168-9.698-15.168c-4.647,0-8.556,8.928-9.699,15.168h-5.59
	h-2.466v2.165v5.413v2.165l1.834,4.331v35.509h31.842V98.899l1.834-4.331v-2.165V86.99v-2.165H134.768z"/>
<rect x="103.219" y="120.675" fill="#FFFFFF" width="33.077" height="13.543"/>
<path fill="#FFFFFF" d="M129.936,84.176c0,5.74-4.653,10.393-10.394,10.393c-5.74,0-10.393-4.653-10.393-10.393
	s4.653-14.723,10.393-14.723C125.282,69.453,129.936,78.436,129.936,84.176"/>
<path fill="#191818" d="M109.789,96.474c-1.89,0-6.446-0.609-11.54-5.704c-4.081-4.081-7.137-3.261-7.265-3.224
	c-1.435,0.511-2.977-0.247-3.489-1.683c-0.513-1.435,0.273-3.027,1.709-3.539c2.3-0.821,7.613-0.789,12.946,4.544
	c4.333,4.335,7.658,4.098,7.795,4.083c1.506-0.217,2.872,0.836,3.088,2.345c0.215,1.509-0.868,2.911-2.376,3.126
	C110.541,96.438,110.241,96.474,109.789,96.474"/>
<path fill="#191818" d="M81.58,90.165l11.15-1.549c1.186-0.164,2.034-1.096,1.897-2.081l-0.545-3.926
	c-0.138-0.984-1.208-1.65-2.393-1.485l-11.151,1.549c-1.185,0.164-2.033,1.096-1.896,2.081l0.545,3.925
	C79.323,89.664,80.396,90.33,81.58,90.165"/>
<path fill="#191818" d="M129.136,96.474c-0.453,0-0.752-0.035-0.87-0.052c-1.508-0.215-2.556-1.613-2.34-3.122
	c0.213-1.488,1.582-2.52,3.061-2.35c0.239,0.021,3.522,0.183,7.787-4.083c5.333-5.334,10.648-5.365,12.946-4.544
	c1.437,0.512,2.185,2.092,1.671,3.526c-0.513,1.436-2.092,2.184-3.526,1.671c-0.054-0.013-3.109-0.831-7.188,3.249
	C135.583,95.863,131.025,96.474,129.136,96.474"/>
<path fill="#191818" d="M119.552,138.593l-17.993-2.437V99.742l-4.439-4.331V82.825h6.696l4.226-1.637
	c1.548-6.752,5.907-13.531,11.438-13.531s9.89,6.779,11.437,13.531l4.226,1.637h6.696v12.586l-4.438,4.331v36.412L119.552,138.593z
	 M105.559,132.661l13.99,1.895l13.851-1.892V98.057l4.438-4.331v-6.9h-3.443l-6.981-2.705l-0.202-1.1
	c-1.109-6.053-4.722-11.363-7.731-11.363s-6.622,5.311-7.732,11.363l-0.201,1.1l-6.981,2.705h-3.444v6.9l4.439,4.331V132.661z"/>
<path fill="#191818" d="M157.345,90.165l-11.151-1.549c-1.185-0.164-2.033-1.096-1.896-2.081l0.545-3.926
	c0.137-0.984,1.208-1.65,2.393-1.485l11.151,1.549c1.184,0.164,2.033,1.096,1.897,2.081l-0.547,3.925
	C159.601,89.664,158.529,90.33,157.345,90.165"/>
<polygon fill="#191818" points="99.905,85.187 109.727,83.165 129.502,83.165 135.275,85.042 139.838,84.825 139.838,94.569 
	135.398,98.899 104.091,98.899 99.12,94.569 "/>
<path fill="#FECF0A" d="M129.321,91.971c0,5.381-4.361,9.743-9.743,9.743c-5.381,0-9.743-4.362-9.743-9.743s4.362-9.743,9.743-9.743
	C124.96,82.228,129.321,86.59,129.321,91.971"/>
<path fill="#FFFFFF" d="M119.578,87.244c2.606,0,4.726,2.12,4.726,4.727c0,2.605-2.119,4.726-4.726,4.726s-4.726-2.12-4.726-4.726
	C114.853,89.364,116.972,87.244,119.578,87.244 M119.578,82.228c-5.381,0-9.743,4.362-9.743,9.743c0,5.382,4.362,9.742,9.743,9.742
	s9.743-4.36,9.743-9.742C129.321,86.59,124.959,82.228,119.578,82.228"/>
<path fill="#191818" d="M119.578,103.094c-6.133,0-11.123-4.989-11.123-11.124c0-6.133,4.99-11.123,11.123-11.123
	s11.123,4.99,11.123,11.123C130.701,98.104,125.711,103.094,119.578,103.094 M119.578,83.607c-4.612,0-8.363,3.751-8.363,8.363
	s3.751,8.364,8.363,8.364c4.612,0,8.363-3.752,8.363-8.364S124.19,83.607,119.578,83.607"/>
<path fill="#191818" d="M122.622,88.782l-6.028,6.416c0.793,0.782,1.885,1.265,3.087,1.265c2.433,0,4.404-1.971,4.404-4.403
	C124.086,90.758,123.521,89.588,122.622,88.782"/>
<path fill="#191818" d="M119.449,114.579c-3.587,0-6.496,2.908-6.496,6.496v29.318c0,3.587,2.909,6.495,6.496,6.495
	c3.586,0,6.496-2.908,6.496-6.495v-29.318C125.944,117.487,123.035,114.579,119.449,114.579"/>
<polygon fill="#FFFFFF" points="88.444,41.968 76.704,44.677 65.867,41.968 65.867,35.646 76.704,38.355 88.444,35.646 "/>
<polygon fill="#FFFFFF" points="88.444,50.998 76.704,53.707 65.867,50.998 65.867,44.677 76.704,47.386 88.444,44.677 "/>
<polygon fill="#FECF0A" points="172.808,41.968 161.068,44.677 150.232,41.968 150.232,35.646 161.068,38.355 172.808,35.646 "/>
<polygon fill="#FECF0A" points="172.808,50.998 161.068,53.707 150.232,50.998 150.232,44.677 161.068,47.386 172.808,44.677 "/>
</svg>
