<?xml version="1.0" encoding="utf-8"?>
<!-- Generator: Adobe Illustrator 16.0.0, SVG Export Plug-In . SVG Version: 6.00 Build 0)  -->
<!DOCTYPE svg PUBLIC "-//W3C//DTD SVG 1.1//EN" "http://www.w3.org/Graphics/SVG/1.1/DTD/svg11.dtd">
<svg version="1.1" id="Layer_1" xmlns="http://www.w3.org/2000/svg" xmlns:xlink="http://www.w3.org/1999/xlink" x="0px" y="0px"
	 width="612px" height="792px" viewBox="0 0 612 792" enable-background="new 0 0 612 792" xml:space="preserve">
<path fill="none" d="M346.63,60"/>
<path fill="none" d="M346.63,3305.597"/>
<path fill="#FECF0A" d="M370.621,384.303c-10.15-32.987-1.588-41.101,0.216-42.339h-67.618h-68.482
	c1.804,1.238,10.367,9.352,0.217,42.339c-14.918,48.481,55.285,74.915,67.834,79.935c0.137-0.054,0.281-0.112,0.432-0.172
	C316.855,458.639,385.376,432.257,370.621,384.303"/>
<g opacity="0.6">
	<g>
		<defs>
			<rect id="SVGID_1_" x="302.971" y="341.21" width="69.469" height="122.101"/>
		</defs>
		<clipPath id="SVGID_2_">
			<use xlink:href="#SVGID_1_"  overflow="visible"/>
		</clipPath>
		<path clip-path="url(#SVGID_2_)" fill="#CDA72C" d="M370.37,383.551c-10.15-32.988-1.587-41.101,0.215-42.339h-67.617v122.101
			C316.605,457.887,385.125,431.505,370.37,383.551"/>
	</g>
</g>
<g opacity="0.4">
	<g>
		<defs>
			<rect id="SVGID_3_" x="232.88" y="296.19" width="139.81" height="168.05"/>
		</defs>
		<clipPath id="SVGID_4_">
			<use xlink:href="#SVGID_3_"  overflow="visible"/>
		</clipPath>
		<path clip-path="url(#SVGID_4_)" fill="#FFFFFF" d="M302.787,310.247c12.873,6.204,32.308,10.53,54.447,12.167v14.542
			c-1.519,2.447-2.946,5.632-3.908,9.729c-2.506,10.653-1.122,24.675,4.107,41.676c2.33,7.568,1.856,14.6-1.443,21.499
			c-3.051,6.373-8.519,12.725-16.252,18.875c-12.736,10.132-28.209,17.049-36.951,20.637c-8.742-3.588-24.217-10.505-36.952-20.637
			c-7.733-6.15-13.201-12.502-16.251-18.875c-3.301-6.898-3.773-13.931-1.445-21.499c5.23-17.001,6.614-31.023,4.109-41.676
			c-0.963-4.097-2.391-7.282-3.908-9.729v-14.542C270.479,320.777,289.915,316.451,302.787,310.247 M302.787,296.186
			c-1.727,0-3.453,0.347-4.795,1.037c-9.942,5.12-29.271,10.588-57.984,11.864c-3.016,0.134-5.465,2.57-5.465,5.589v27.161
			c0,0,11.263,7.192,0.41,42.466c-14.918,48.482,55.285,74.915,67.834,79.934c12.549-5.019,82.751-31.451,67.834-79.934
			c-10.854-35.274,0.41-42.466,0.41-42.466v-27.161c0-3.019-2.449-5.455-5.465-5.589c-28.713-1.276-48.043-6.744-57.984-11.864
			C306.24,296.532,304.513,296.186,302.787,296.186"/>
	</g>
</g>
<path fill="#191818" d="M371.031,314.676c0-3.02-2.449-5.455-5.465-5.589c-28.713-1.276-48.043-6.744-57.984-11.865
	c-2.686-1.382-6.904-1.382-9.59,0c-9.942,5.121-29.271,10.589-57.984,11.865c-3.016,0.134-5.465,2.569-5.465,5.589v27.161
	c0,0,0.07,0.041,0.193,0.127h136.101c0.124-0.086,0.194-0.127,0.194-0.127V314.676z"/>
<polygon fill="#FFFFFF" points="283.143,333.132 283.143,318.26 280.102,321.421 277.783,318.981 283.684,313.051 287.206,313.051 
	287.206,333.132 "/>
<path fill="#FFFFFF" d="M289.674,331.145c0-1.265,1.084-2.349,2.348-2.349s2.317,1.084,2.317,2.349s-1.054,2.318-2.317,2.318
	S289.674,332.409,289.674,331.145"/>
<path fill="#FFFFFF" d="M296.205,330.332l2.438-2.589c1.054,1.384,2.469,2.168,4.185,2.168c1.928,0,3.04-1.477,3.04-3.162
	c0-1.987-1.054-3.161-2.858-3.161c-1.355,0-2.379,0.482-3.313,1.656l-2.921-0.783v-11.41h12.043v3.553h-8.009v5.148
	c0.783-0.963,2.138-1.656,3.673-1.656c3.041,0,5.479,2.378,5.479,6.533c0,4.034-2.738,6.864-7.015,6.864
	C299.848,333.493,297.711,332.349,296.205,330.332"/>
<polygon fill="#FFFFFF" points="322.033,333.132 317.396,325.273 315.982,327.503 315.982,333.132 311.948,333.132 311.948,313.051 
	315.982,313.051 315.982,322.174 321.642,313.051 326.338,313.051 319.926,322.505 326.791,333.132 "/>
<g>
	<defs>
		<path id="SVGID_5_" d="M297.993,297.222c-9.942,5.122-29.272,10.59-57.986,11.866c-3.015,0.132-5.464,2.568-5.464,5.588v27.161
			c0,0,11.264,7.192,0.409,42.467c-14.916,48.48,55.284,74.914,67.835,79.934c12.549-5.02,82.751-31.453,67.835-79.934
			c-10.854-35.274,0.407-42.467,0.407-42.467v-27.161c0-3.02-2.447-5.456-5.463-5.588c-28.713-1.276-48.041-6.744-57.985-11.866
			c-1.341-0.69-3.067-1.036-4.794-1.036S299.334,296.531,297.993,297.222"/>
	</defs>
	<clipPath id="SVGID_6_">
		<use xlink:href="#SVGID_5_"  overflow="visible"/>
	</clipPath>
	<polygon clip-path="url(#SVGID_6_)" fill="#FFFFFF" points="381.733,377.403 381.733,383.291 303.243,402.912 303.243,385.252 
		377.294,377.848 	"/>
	<polygon clip-path="url(#SVGID_6_)" fill="#FFFFFF" points="224.317,377.403 224.317,383.291 302.807,402.912 302.807,385.252 
		228.758,377.848 	"/>
	<polygon clip-path="url(#SVGID_6_)" fill="#FECF0A" points="284.1,389.988 225.186,380.306 225.186,382.931 284.264,398.357 	"/>
	<polygon clip-path="url(#SVGID_6_)" fill="#FECF0A" points="321.844,389.988 380.758,380.306 380.758,382.931 321.68,398.357 	"/>
	<polygon clip-path="url(#SVGID_6_)" fill="#FECF0A" points="308.946,377.403 296.669,377.403 300.846,353.486 304.77,353.486 	"/>
	<path clip-path="url(#SVGID_6_)" fill="#191818" d="M310.736,378.908h-15.859l4.703-26.927h6.454L310.736,378.908z
		 M298.459,375.898h8.695l-3.648-20.907h-1.396L298.459,375.898z"/>
	<path clip-path="url(#SVGID_6_)" fill="#191818" d="M301.236,405.483v-22.047l82.503-8.251v9.672L301.236,405.483z M305.25,387.068
		v13.273l74.477-18.619v-2.102L305.25,387.068z"/>
	<path clip-path="url(#SVGID_6_)" fill="#FFFFFF" d="M341.811,398.814c0,3.251,2.635,5.887,5.887,5.887s5.887-2.636,5.887-5.887
		c0-3.251-2.635-5.888-5.887-5.888S341.811,395.563,341.811,398.814"/>
	<path clip-path="url(#SVGID_6_)" fill="#191818" d="M347.697,406.205c-4.076,0-7.392-3.315-7.392-7.391
		c0-4.076,3.315-7.393,7.392-7.393s7.393,3.316,7.393,7.393C355.09,402.89,351.773,406.205,347.697,406.205 M347.697,394.432
		c-2.416,0-4.382,1.966-4.382,4.383c0,2.416,1.966,4.382,4.382,4.382s4.383-1.966,4.383-4.382
		C352.08,396.398,350.113,394.432,347.697,394.432"/>
	<path clip-path="url(#SVGID_6_)" fill="#191818" d="M304.813,405.482l-82.503-20.625v-9.672l82.503,8.251V405.482z
		 M226.324,381.724l74.477,18.619v-13.274l-74.477-7.448V381.724z"/>
	<path clip-path="url(#SVGID_6_)" fill="#191818" d="M301.076,380.858v-9.083l24.886-2.489v5.35L301.076,380.858z M305.09,375.407
		v0.311l2.066-0.517L305.09,375.407z"/>
	<path clip-path="url(#SVGID_6_)" fill="#191818" d="M304.974,380.858l-24.887-6.222v-5.351l24.887,2.49V380.858z M298.895,375.201
		l2.065,0.517v-0.31L298.895,375.201z"/>
	<path clip-path="url(#SVGID_6_)" fill="#FECF0A" d="M324.393,393.102c0,11.921-9.664,21.585-21.585,21.585
		s-21.585-9.664-21.585-21.585s9.664-21.585,21.585-21.585S324.393,381.181,324.393,393.102"/>
	<path clip-path="url(#SVGID_6_)" fill="#FFFFFF" d="M302.808,371.517c-11.921,0-21.585,9.664-21.585,21.585
		s9.664,21.584,21.585,21.584c0.026,0,0.055-0.002,0.081-0.002v-43.165C302.862,371.519,302.834,371.517,302.808,371.517"/>
	<path clip-path="url(#SVGID_6_)" fill="#191818" d="M302.807,416.692c-13.009,0-23.592-10.583-23.592-23.591
		c0-13.008,10.583-23.592,23.592-23.592c13.01,0,23.592,10.584,23.592,23.592C326.398,406.109,315.816,416.692,302.807,416.692
		 M302.807,373.523c-10.796,0-19.578,8.783-19.578,19.578c0,10.796,8.782,19.578,19.578,19.578c10.797,0,19.578-8.782,19.578-19.578
		C322.385,382.307,313.604,373.523,302.807,373.523"/>
	<path clip-path="url(#SVGID_6_)" fill="#FFFFFF" d="M264.24,399.817c0,3.251-2.637,5.888-5.887,5.888
		c-3.252,0-5.887-2.637-5.887-5.888s2.635-5.887,5.887-5.887C261.604,393.931,264.24,396.566,264.24,399.817"/>
	<path clip-path="url(#SVGID_6_)" fill="#191818" d="M258.354,406.205c-4.076,0-7.393-3.315-7.393-7.391
		c0-4.076,3.316-7.393,7.393-7.393c4.075,0,7.391,3.316,7.391,7.393C265.744,402.89,262.429,406.205,258.354,406.205
		 M258.354,394.432c-2.416,0-4.383,1.966-4.383,4.383c0,2.416,1.967,4.382,4.383,4.382c2.415,0,4.381-1.966,4.381-4.382
		C262.734,396.398,260.769,394.432,258.354,394.432"/>
	<polygon clip-path="url(#SVGID_6_)" fill="#191818" points="287.842,388.576 291.798,384.62 299.71,386.598 299.71,392.532 	"/>
	<polygon clip-path="url(#SVGID_6_)" fill="#191818" points="318.32,388.576 314.365,384.62 306.453,386.598 306.453,392.532 	"/>
	<path clip-path="url(#SVGID_6_)" fill="#191818" d="M324.014,413.943c-1.736,0-4.406,0.147-4.406,1.886v10.414
		c0,1.737,2.67,1.885,4.406,1.885c1.737,0,1.945-0.147,1.945-1.885v-10.414C325.959,414.091,325.751,413.943,324.014,413.943"/>
	<path clip-path="url(#SVGID_6_)" fill="#191818" d="M329.594,413.943c-1.737,0-1.946,0.147-1.946,1.886v10.414
		c0,1.737,0.209,1.885,1.946,1.885c1.736,0,4.406-0.147,4.406-1.885v-10.414C334,414.091,331.33,413.943,329.594,413.943"/>
	<path clip-path="url(#SVGID_6_)" fill="#191818" d="M276.353,413.943c-1.737,0-4.407,0.147-4.407,1.886v10.414
		c0,1.737,2.67,1.885,4.407,1.885s1.946-0.147,1.946-1.885v-10.414C278.299,414.091,278.09,413.943,276.353,413.943"/>
	<path clip-path="url(#SVGID_6_)" fill="#191818" d="M281.933,413.943c-1.738,0-1.946,0.147-1.946,1.886v10.414
		c0,1.737,0.208,1.885,1.946,1.885c1.737,0,4.407-0.147,4.407-1.885v-10.414C286.34,414.091,283.67,413.943,281.933,413.943"/>
	<path clip-path="url(#SVGID_6_)" fill="#191818" d="M286.117,423.181l-2.08-3.433c3.035-1.843,7.31-5.471,7.31-7.77h4.014
		C295.36,417.317,287.66,422.246,286.117,423.181"/>
	<path clip-path="url(#SVGID_6_)" fill="#191818" d="M320.268,423.181c-1.544-0.935-9.244-5.863-9.244-11.202h4.014
		c0,2.283,4.361,5.985,7.308,7.768L320.268,423.181z"/>
</g>
<path fill="#191818" d="M302.787,304.552c0.527,0,0.894,0.091,1.006,0.13c13.13,6.748,34.479,11.32,58.872,12.638v21.295
	c-1.498,2.069-3.056,5.072-4.054,9.313c-2.28,9.702-0.93,22.77,4.014,38.836c5.107,16.6-1.273,31.719-19.506,46.221
	c-14.387,11.444-31.92,18.869-40.332,22.248c-8.413-3.379-25.946-10.804-40.333-22.248c-18.232-14.502-24.612-29.621-19.505-46.221
	c4.943-16.066,6.293-29.134,4.013-38.836c-0.997-4.241-2.556-7.243-4.054-9.313V317.32c24.394-1.318,45.744-5.89,58.873-12.638
	C301.893,304.643,302.26,304.552,302.787,304.552 M302.787,296.186c-1.727,0-3.453,0.346-4.795,1.037
	c-9.942,5.12-29.271,10.588-57.984,11.864c-3.016,0.134-5.465,2.57-5.465,5.589v27.161c0,0,11.263,7.192,0.41,42.466
	c-14.918,48.482,55.285,74.915,67.834,79.934c12.549-5.019,82.751-31.451,67.834-79.934c-10.854-35.274,0.41-42.466,0.41-42.466
	v-27.161c0-3.019-2.449-5.455-5.465-5.589c-28.713-1.276-48.043-6.744-57.984-11.864
	C306.24,296.531,304.513,296.186,302.787,296.186"/>
<polygon fill="#FFFFFF" points="273.732,320.669 266.273,319.539 262.953,312.44 259.633,319.539 252.175,320.669 257.563,326.204 
	256.217,333.999 262.953,330.317 269.69,333.999 268.343,326.204 "/>
<polygon fill="#FFFFFF" points="353.399,320.669 345.941,319.539 342.62,312.44 339.299,319.539 331.842,320.669 337.23,326.204 
	335.883,333.999 342.62,330.317 349.357,333.999 348.01,326.204 "/>
<polygon fill="#FFFFFF" points="355.102,474.362 302.809,488.546 250.516,472.857 250.516,445.337 302.809,461.024 355.102,445.337 
	"/>
<path fill="#010101" d="M302.808,489.469l-54.551-13.334V442.46l54.551,13.335l54.552-13.335v33.675L302.808,489.469z
	 M252.773,472.59l50.034,12.231l50.035-12.231v-24.378l-50.035,12.232l-50.034-12.232V472.59z"/>
<polygon fill="#010101" points="331.588,451.524 357.425,442.546 344.352,432.765 323.338,450.776 "/>
<polygon fill="#010101" points="273.986,451.524 248.148,442.546 261.223,432.765 282.236,450.776 "/>
<polygon fill="#FECF0A" points="274.658,461.951 272.067,456.414 269.478,461.951 263.66,462.833 267.863,467.15 266.813,473.23 
	272.067,470.359 277.322,473.23 276.271,467.15 280.476,462.833 "/>
<polygon fill="#010101" points="305.344,468.027 302.486,461.917 299.627,468.027 293.206,469.001 297.846,473.766 296.686,480.477 
	302.486,477.308 308.285,480.477 307.126,473.766 311.766,469.001 "/>
<polygon fill="#FECF0A" points="335.682,461.951 333.092,456.414 330.502,461.951 324.684,462.833 328.888,467.15 327.837,473.23 
	333.092,470.359 338.347,473.23 337.296,467.15 341.5,462.833 "/>
<path fill="#010101" d="M395.658,404.614c-1.818-3.577-5.513-6.851-6.38-10.245l-0.532-0.223c-1.336,3.336-1.192,7.326-0.168,10.951
	c1.108,4.703,3.424,8.368,4.508,12.993c0.193,0.891,0.354,1.775,0.459,2.742c6.955-5.049,13.369-10.808,15.182-19.897l-12.193,6.13
	C396.369,406.218,396.041,405.379,395.658,404.614"/>
<path fill="#010101" d="M392.521,362.831c0.579,1.658,0.758,3.546,1.549,5.248c0.51,0.668,0.959,1.357,1.43,2.057
	c1.314,1.814,2.677,3.431,4.421,3.885c0.606-2.796,1.065-5.733,0.534-8.912c-0.605-2.012-1.508-3.807-2.69-5.429
	c-1.849-2.56-4.358-4.637-7.396-6.199c-0.1-0.057-0.166-0.071-0.224-0.119l-0.403,0.093c0.156,0.24,0.303,0.517,0.459,0.796
	C391.578,356.875,391.99,359.652,392.521,362.831"/>
<path fill="#010101" d="M397.156,379.998c-2.654-3.01-7.05-5.257-8.736-8.326l-0.571-0.084c-0.461,3.565,0.675,7.393,2.573,10.646
	c2.248,4.278,5.406,7.249,7.611,11.456c0.409,0.813,0.785,1.631,1.127,2.54c5.476-6.626,10.246-13.805,9.731-23.058l-10.276,8.981
	C398.246,381.373,397.717,380.643,397.156,379.998"/>
<path fill="#010101" d="M209.916,404.614c1.817-3.577,5.514-6.851,6.379-10.245l0.532-0.223c1.337,3.336,1.192,7.326,0.169,10.951
	c-1.109,4.703-3.424,8.368-4.508,12.993c-0.193,0.891-0.354,1.775-0.459,2.742c-6.956-5.049-13.369-10.808-15.182-19.897
	l12.193,6.13C209.204,406.218,209.533,405.379,209.916,404.614"/>
<path fill="#010101" d="M213.053,362.831c-0.578,1.658-0.759,3.546-1.549,5.248c-0.51,0.668-0.96,1.357-1.431,2.057
	c-1.314,1.814-2.677,3.431-4.421,3.885c-0.605-2.796-1.064-5.733-0.533-8.912c0.605-2.012,1.507-3.807,2.689-5.429
	c1.849-2.56,4.358-4.637,7.396-6.199c0.1-0.057,0.166-0.071,0.223-0.119l0.404,0.093c-0.157,0.24-0.303,0.517-0.46,0.796
	C213.995,356.875,213.583,359.652,213.053,362.831"/>
<path fill="#010101" d="M208.418,379.998c2.653-3.01,7.049-5.257,8.736-8.326l0.57-0.084c0.461,3.565-0.674,7.393-2.572,10.646
	c-2.248,4.278-5.406,7.249-7.611,11.456c-0.41,0.813-0.785,1.631-1.128,2.54c-5.476-6.626-10.246-13.805-9.731-23.058l10.277,8.981
	C207.328,381.373,207.856,380.643,208.418,379.998"/>
<path fill="#010101" d="M376.055,445.771c-0.916-0.017-1.783-0.026-2.638,0.015c3.211-4.571,2.29-10.163,4.058-15.119l-0.017-0.219
	c-5.329,2.008-8.124,6.701-10.731,11.657c-1.861,3.592-3.683,7.273-6.339,9.994c1.109,0.08,2.153,0.229,3.234,0.388
	c1.122,0.164,2.274,0.386,3.435,0.692c2.307,0.135,4.581,0.237,6.732,0.166c4.035-0.171,7.795-0.854,11.037-2.605
	c1.501-0.798,2.902-1.85,4.131-3.161c-0.949-0.154-1.992-0.342-3.028-0.524C382.664,446.5,379.23,445.93,376.055,445.771"/>
<path fill="#010101" d="M389.055,430.198c-1.494-5.036-4.273-10.122-3.865-15.641l-0.142-0.219l-0.374,0.165
	c-0.045,0.035-0.098,0.107-0.102,0.144c-0.291,0.5-0.6,0.786-1.135,1.3c-3.806,6.707-3.23,14.78-1.276,21.92
	c0.321,1.177,0.653,2.295,1.063,3.426c3.422-2.676,7.644-3.359,11.441-5.307c0.342-0.207,0.677-0.369,1.029-0.582
	c3.66-2.641,5.887-7.007,6.842-11.183c-2.373,0.757-4.7,1.368-6.876,2.187C393.316,427.254,391.053,428.396,389.055,430.198"/>
<path fill="#010101" d="M229.582,445.771c0.916-0.017,1.783-0.026,2.638,0.015c-3.211-4.571-2.29-10.163-4.058-15.119l0.017-0.219
	c5.329,2.008,8.124,6.701,10.731,11.657c1.861,3.592,3.683,7.273,6.339,9.994c-1.109,0.08-2.153,0.229-3.234,0.388
	c-1.122,0.164-2.274,0.386-3.435,0.692c-2.307,0.135-4.581,0.237-6.732,0.166c-4.035-0.171-7.795-0.854-11.037-2.605
	c-1.501-0.798-2.902-1.85-4.131-3.161c0.949-0.154,1.992-0.342,3.028-0.524C222.973,446.5,226.406,445.93,229.582,445.771"/>
<path fill="#010101" d="M216.582,430.198c1.494-5.036,4.273-10.122,3.865-15.641l0.142-0.219l0.374,0.165
	c0.045,0.035,0.098,0.107,0.102,0.144c0.291,0.5,0.6,0.786,1.135,1.3c3.806,6.707,3.23,14.78,1.276,21.92
	c-0.321,1.177-0.653,2.295-1.063,3.426c-3.422-2.676-7.644-3.359-11.441-5.307c-0.342-0.207-0.677-0.369-1.029-0.582
	c-3.66-2.641-5.887-7.007-6.842-11.183c2.373,0.757,4.7,1.368,6.876,2.187C212.32,427.254,214.584,428.396,216.582,430.198"/>
</svg>
