<?xml version="1.0" encoding="utf-8"?>
<!-- Generator: Adobe Illustrator 16.0.0, SVG Export Plug-In . SVG Version: 6.00 Build 0)  -->
<!DOCTYPE svg PUBLIC "-//W3C//DTD SVG 1.1//EN" "http://www.w3.org/Graphics/SVG/1.1/DTD/svg11.dtd">
<svg version="1.1" id="Layer_1" xmlns="http://www.w3.org/2000/svg" xmlns:xlink="http://www.w3.org/1999/xlink" x="0px" y="0px"
	 width="240px" height="200px" viewBox="0 0 240 200" enable-background="new 0 0 240 200" xml:space="preserve">
<path fill="#FDD00F" d="M185.104,97.303c-10.149-32.986-1.588-41.101,0.215-42.339h-67.616H49.22
	c1.803,1.238,10.366,9.353,0.216,42.339c-14.918,48.481,55.285,74.915,67.834,79.936c0.136-0.055,0.282-0.112,0.433-0.172
	C131.338,171.639,199.857,145.257,185.104,97.303"/>
<g opacity="0.6">
	<g>
		<g>
			<defs>
				<rect id="SVGID_1_" x="117.2" y="54.96" width="69.47" height="122.101"/>
			</defs>
			<clipPath id="SVGID_2_">
				<use xlink:href="#SVGID_1_"  overflow="visible"/>
			</clipPath>
			<path clip-path="url(#SVGID_2_)" fill="#CDA72C" d="M184.602,97.303c-10.149-32.986-1.588-41.101,0.215-42.339H117.2v122.103
				C130.836,171.639,199.355,145.257,184.602,97.303"/>
		</g>
	</g>
</g>
<g opacity="0.4">
	<g>
		<g>
			<defs>
				<rect id="SVGID_3_" x="47.37" y="9.19" width="139.8" height="168.05"/>
			</defs>
			<clipPath id="SVGID_4_">
				<use xlink:href="#SVGID_3_"  overflow="visible"/>
			</clipPath>
			<path clip-path="url(#SVGID_4_)" fill="#FFFFFF" d="M117.27,23.247c12.873,6.204,32.307,10.53,54.446,12.167v14.542
				c-1.519,2.447-2.946,5.631-3.907,9.729c-2.506,10.653-1.123,24.676,4.107,41.677c2.328,7.567,1.855,14.6-1.443,21.499
				c-3.052,6.373-8.52,12.724-16.252,18.875c-12.736,10.132-28.211,17.049-36.951,20.637c-8.742-3.588-24.216-10.505-36.953-20.637
				c-7.732-6.15-13.201-12.502-16.25-18.875c-3.302-6.898-3.774-13.932-1.445-21.5c5.23-17,6.613-31.022,4.109-41.676
				c-0.964-4.097-2.391-7.281-3.91-9.729V35.414C84.96,33.777,104.396,29.451,117.27,23.247 M117.27,9.186
				c-1.728,0-3.453,0.347-4.796,1.037c-9.942,5.12-29.271,10.587-57.983,11.864c-3.017,0.134-5.465,2.57-5.465,5.589v27.161
				c0,0,11.262,7.192,0.409,42.466c-14.918,48.482,55.285,74.915,67.835,79.935c12.548-5.02,82.75-31.451,67.833-79.935
				c-10.854-35.273,0.41-42.466,0.41-42.466V27.676c0-3.019-2.449-5.455-5.466-5.589c-28.713-1.276-48.042-6.744-57.985-11.864
				C120.722,9.532,118.994,9.186,117.27,9.186"/>
		</g>
	</g>
</g>
<path fill="#191818" d="M185.514,27.676c0-3.02-2.449-5.455-5.467-5.589c-28.711-1.276-48.041-6.744-57.982-11.865
	c-2.686-1.382-6.905-1.382-9.59,0c-9.942,5.121-29.271,10.588-57.983,11.865c-3.017,0.134-5.466,2.569-5.466,5.589v27.161
	c0,0,0.069,0.041,0.194,0.127h136.1c0.125-0.086,0.195-0.127,0.195-0.127V27.676z"/>
<path fill="#191818" d="M117.27,17.552c0.526,0,0.893,0.091,1.006,0.13c13.128,6.748,34.478,11.32,58.871,12.639v21.295
	c-1.498,2.068-3.057,5.072-4.053,9.313c-2.281,9.702-0.932,22.771,4.014,38.836c5.106,16.601-1.272,31.72-19.506,46.222
	c-14.388,11.443-31.92,18.868-40.332,22.248c-8.414-3.38-25.947-10.805-40.334-22.248c-18.232-14.502-24.613-29.621-19.505-46.222
	c4.943-16.065,6.294-29.134,4.013-38.836c-0.996-4.24-2.555-7.243-4.053-9.313V30.32c24.393-1.318,45.742-5.891,58.872-12.639
	C116.375,17.643,116.742,17.552,117.27,17.552 M117.27,9.186c-1.728,0-3.453,0.346-4.796,1.037
	c-9.942,5.12-29.271,10.587-57.983,11.864c-3.017,0.134-5.465,2.57-5.465,5.589v27.161c0,0,11.262,7.192,0.409,42.466
	c-14.918,48.482,55.285,74.915,67.835,79.935c12.548-5.02,82.75-31.451,67.833-79.935c-10.854-35.273,0.41-42.466,0.41-42.466
	V27.676c0-3.019-2.449-5.455-5.466-5.589c-28.713-1.276-48.042-6.744-57.985-11.864C120.721,9.531,118.994,9.186,117.27,9.186"/>
<polygon fill="#FFFFFF" points="108.219,46.132 108.219,31.26 105.178,34.421 102.859,31.981 108.76,26.051 112.282,26.051 
	112.282,46.132 "/>
<polygon fill="#FFFFFF" points="125.918,46.132 121.282,38.273 119.867,40.503 119.867,46.132 115.833,46.132 115.833,26.051 
	119.867,26.051 119.867,35.174 125.527,26.051 130.225,26.051 123.811,35.505 130.676,46.132 "/>
<path fill="#191818" d="M151.886,113.811c-2.64,0-6.694,0.224-6.694,2.862v15.822c0,2.64,4.056,2.863,6.694,2.863
	c2.64,0,6.694-0.225,6.694-2.863v-15.822C158.58,114.033,154.525,113.811,151.886,113.811"/>
<path fill="#191818" d="M82.15,113.811c-2.641,0-6.695,0.224-6.695,2.862v15.822c0,2.64,4.055,2.863,6.695,2.863
	c2.639,0,6.695-0.225,6.695-2.863v-15.822C88.846,114.033,84.789,113.811,82.15,113.811"/>
<path fill="#FDD00F" d="M76.371,90.321l-4.881,9.532l4.963,20.692c0.128,1.675,1.525,2.994,3.232,2.994
	c6.492,0,12.064,2.508,18.557,2.508c1.627,0,2.972-1.198,3.207-2.761h31.095c0.235,1.563,1.579,2.761,3.206,2.761
	c6.492,0,12.064-2.508,18.557-2.508c1.627,0,2.971-1.198,3.207-2.762h0.014l5.018-20.927l-4.879-9.531L76.371,90.321L76.371,90.321z
	"/>
<path fill="#FFFFFF" d="M157.527,90.053h-9.592l-3.902-10.063c-0.381-2.744-2.936-4.97-5.707-4.97H95.709
	c-2.771,0-5.325,2.227-5.705,4.97l-3.903,10.063h-9.593l-0.137,0.27h81.293L157.527,90.053z"/>
<rect x="105.473" y="91.324" fill="#FFFFFF" width="21.573" height="33.363"/>
<path fill="#FFFFFF" d="M93.985,107.196c0,3.937-3.191,7.127-7.126,7.127c-3.938,0-7.127-3.19-7.127-7.127s3.189-7.127,7.127-7.127
	C90.794,100.069,93.985,103.261,93.985,107.196"/>
<path fill="#191818" d="M86.859,115.703c-4.691,0-8.508-3.815-8.508-8.507c0-4.689,3.816-8.507,8.508-8.507
	c4.689,0,8.506,3.816,8.506,8.507C95.365,111.888,91.549,115.703,86.859,115.703 M86.859,101.449c-3.17,0-5.748,2.578-5.748,5.747
	s2.578,5.747,5.748,5.747c3.168,0,5.745-2.578,5.745-5.747S90.027,101.449,86.859,101.449"/>
<path fill="#191818" d="M89.085,104.864l-4.409,4.691c0.581,0.572,1.379,0.927,2.259,0.927c1.779,0,3.222-1.442,3.222-3.222
	C90.156,106.309,89.742,105.454,89.085,104.864"/>
<path fill="#FFFFFF" d="M153.434,107.196c0,3.937-3.19,7.127-7.127,7.127c-3.938,0-7.127-3.19-7.127-7.127s3.189-7.127,7.127-7.127
	C150.242,100.069,153.434,103.261,153.434,107.196"/>
<path fill="#191818" d="M146.307,115.703c-4.69,0-8.508-3.815-8.508-8.507c0-4.689,3.816-8.507,8.508-8.507
	c4.689,0,8.506,3.816,8.506,8.507C154.813,111.888,150.996,115.703,146.307,115.703 M146.307,101.449
	c-3.17,0-5.748,2.578-5.748,5.747s2.578,5.747,5.748,5.747c3.168,0,5.746-2.578,5.746-5.747S149.475,101.449,146.307,101.449"/>
<path fill="#191818" d="M148.533,104.864l-4.41,4.691c0.582,0.572,1.379,0.927,2.26,0.927c1.778,0,3.221-1.442,3.221-3.222
	C149.604,106.309,149.189,105.454,148.533,104.864"/>
<path fill="#FFFFFF" d="M131.704,109.025c0-2.313-1.875-4.188-4.187-4.188h-22.236c-2.313,0-4.188,1.875-4.188,4.188
	s1.874,4.188,4.188,4.188h22.236C129.829,113.213,131.704,111.339,131.704,109.025"/>
<path fill="#191818" d="M127.518,114.593h-22.235c-3.07,0-5.566-2.498-5.566-5.566c0-3.069,2.496-5.566,5.566-5.566h22.235
	c3.068,0,5.566,2.498,5.566,5.566S130.586,114.593,127.518,114.593 M105.281,106.219c-1.549,0-2.808,1.259-2.808,2.808
	s1.259,2.807,2.808,2.807h22.234c1.549,0,2.809-1.258,2.809-2.807s-1.26-2.808-2.809-2.808H105.281z"/>
<rect x="83.65" y="88.071" fill="#191818" width="65.471" height="4"/>
<path fill="#191819" d="M152.877,88.577c-1.502,1.502-3.938,1.502-5.439,0s-1.502-3.938,0-5.44s5.711-3.275,7.213-1.772
	C156.152,82.866,154.379,87.075,152.877,88.577"/>
<path fill="#191819" d="M81.01,88.577c1.502,1.502,3.938,1.502,5.439,0c1.502-1.502,1.502-3.938,0-5.44
	c-1.502-1.502-5.711-3.275-7.214-1.772C77.733,82.866,79.508,87.075,81.01,88.577"/>
<rect x="120.655" y="73.524" transform="matrix(-0.8538 -0.5207 0.5207 -0.8538 183.4265 215.907)" fill="#191818" width="2.759" height="17.339"/>
<rect x="128.431" y="73.525" transform="matrix(-0.8538 -0.5207 0.5207 -0.8538 197.8404 219.9565)" fill="#191818" width="2.759" height="17.338"/>
<path fill="#191818" d="M135.75,128.05c-1.957,0-3.715-1.109-4.611-2.762h-28.285c-0.898,1.651-2.654,2.762-4.611,2.762
	c-3.452,0-6.621-0.659-9.686-1.296c-2.998-0.625-5.831-1.213-8.871-1.213c-2.662,0-4.918-2.035-5.211-4.664l-5.101-21.275
	l5.911-11.548h9.445l3.33-8.587c0.631-3.635,3.941-6.447,7.647-6.447h42.618c3.707,0,7.017,2.813,7.647,6.446l3.33,8.588h9.445
	l5.912,11.548l-5.557,23.18h-0.188c-0.896,1.65-2.655,2.761-4.61,2.761c-3.041,0-5.873,0.588-8.871,1.213
	C142.371,127.391,139.203,128.05,135.75,128.05 M99.727,121.288h34.541l0.254,1.703c0.093,0.604,0.619,1.059,1.229,1.059
	c3.04,0,5.873-0.589,8.871-1.214c3.063-0.637,6.233-1.295,9.687-1.295c0.608,0,1.139-0.455,1.229-1.059l0.256-1.702h0.16
	l4.477-18.674l-4.123-8.054h-9.738l-4.482-11.559l-0.031-0.23c-0.244-1.759-1.949-3.245-3.726-3.245H95.711
	c-1.775,0-3.479,1.486-3.724,3.244l-0.031,0.23l-4.484,11.56h-9.738l-4.121,8.054l4.838,20.286c0.049,0.645,0.593,1.147,1.238,1.147
	c3.452,0,6.621,0.658,9.686,1.295c2.998,0.625,5.832,1.214,8.871,1.214c0.609,0,1.138-0.455,1.229-1.06L99.727,121.288z"/>
<polygon fill="#FFFFFF" points="88.215,33.677 80.756,32.546 77.436,25.448 74.115,32.546 66.656,33.677 72.046,39.211 
	70.698,47.006 77.436,43.325 84.172,47.006 82.825,39.211 "/>
<polygon fill="#FFFFFF" points="167.881,33.677 160.422,32.546 157.102,25.448 153.781,32.546 146.323,33.677 151.712,39.211 
	150.365,47.006 157.102,43.325 163.839,47.006 162.491,39.211 "/>
<path fill="#020202" d="M223.082,103.532l-12.193,6.129c-0.164-0.847-0.492-1.688-0.875-2.451"/>
<path fill="#020202" d="M210.014,107.21c-1.818-3.577-5.514-6.851-6.381-10.245l-0.531-0.223c-1.336,3.336-1.192,7.327-0.168,10.951
	c1.107,4.703,3.424,8.368,4.508,12.993c0.193,0.891,0.354,1.774,0.459,2.742c6.956-5.05,13.368-10.809,15.183-19.896"/>
<path fill="#020202" d="M206.877,65.427c0.578,1.658,0.758,3.546,1.548,5.248c0.511,0.668,0.962,1.357,1.431,2.059
	c1.314,1.813,2.677,3.43,4.421,3.884c0.605-2.796,1.064-5.733,0.534-8.912c-0.604-2.012-1.507-3.807-2.69-5.429
	c-1.849-2.561-4.356-4.638-7.396-6.199c-0.1-0.056-0.166-0.071-0.225-0.119l-0.402,0.093c0.157,0.24,0.303,0.518,0.461,0.796
	C205.934,59.471,206.346,62.248,206.877,65.427"/>
<path fill="#020202" d="M223.246,75.768l-10.276,8.981c-0.369-0.78-0.896-1.51-1.459-2.155"/>
<path fill="#020202" d="M211.511,82.594c-2.653-3.01-7.05-5.257-8.735-8.326l-0.571-0.084c-0.461,3.565,0.676,7.394,2.573,10.646
	c2.248,4.278,5.406,7.249,7.61,11.456c0.409,0.813,0.786,1.631,1.128,2.54c5.476-6.626,10.246-13.805,9.73-23.059"/>
<path fill="#020202" d="M24.271,107.21c1.816-3.577,5.513-6.851,6.379-10.245l0.531-0.223c1.338,3.336,1.193,7.327,0.17,10.951
	c-1.109,4.703-3.424,8.368-4.508,12.993c-0.194,0.891-0.354,1.774-0.459,2.742c-6.957-5.05-13.369-10.809-15.182-19.896
	l12.193,6.129C23.559,108.814,23.889,107.975,24.271,107.21"/>
<path fill="#020202" d="M27.407,65.427c-0.578,1.658-0.759,3.546-1.548,5.248c-0.51,0.668-0.961,1.357-1.432,2.059
	c-1.314,1.813-2.676,3.43-4.42,3.884c-0.605-2.796-1.064-5.733-0.533-8.912c0.604-2.012,1.506-3.807,2.689-5.429
	c1.848-2.561,4.357-4.638,7.396-6.199c0.099-0.056,0.166-0.071,0.223-0.119l0.404,0.093c-0.158,0.24-0.304,0.518-0.461,0.796
	C28.35,59.471,27.938,62.248,27.407,65.427"/>
<path fill="#020202" d="M22.773,82.594c2.652-3.01,7.049-5.257,8.736-8.326l0.57-0.084c0.461,3.565-0.675,7.394-2.572,10.646
	c-2.248,4.278-5.406,7.249-7.611,11.456c-0.41,0.813-0.785,1.631-1.129,2.54c-5.475-6.626-10.246-13.805-9.729-23.059l10.276,8.981
	C21.684,83.969,22.211,83.238,22.773,82.594"/>
<path fill="#020202" d="M190.41,148.368c-0.916-0.02-1.783-0.027-2.639,0.014c3.213-4.571,2.291-10.164,4.059-15.119l-0.018-0.219
	c-5.328,2.008-8.123,6.7-10.73,11.657c-1.861,3.592-3.684,7.272-6.34,9.994c1.109,0.08,2.154,0.229,3.234,0.388
	c1.123,0.163,2.274,0.386,3.436,0.692c2.306,0.135,4.58,0.236,6.732,0.167c4.033-0.171,7.795-0.855,11.037-2.607
	c1.5-0.797,2.9-1.848,4.131-3.16c-0.949-0.152-1.992-0.342-3.029-0.523C197.02,149.096,193.585,148.526,190.41,148.368"/>
<path fill="#020202" d="M216.893,126.817c-2.373,0.757-4.7,1.367-6.877,2.187c-2.345,0.846-4.606,1.987-6.604,3.79"/>
<path fill="#020202" d="M203.41,132.794c-1.494-5.036-4.273-10.122-3.865-15.641l-0.143-0.22l-0.373,0.165
	c-0.045,0.035-0.098,0.107-0.102,0.145c-0.293,0.5-0.602,0.786-1.137,1.3c-3.807,6.707-3.229,14.78-1.275,21.92
	c0.32,1.177,0.653,2.295,1.063,3.426c3.423-2.676,7.645-3.358,11.441-5.307c0.342-0.207,0.676-0.369,1.029-0.582
	c3.66-2.641,5.887-7.007,6.842-11.183"/>
<path fill="#020202" d="M43.938,148.368c0.915-0.02,1.782-0.027,2.637,0.014c-3.211-4.571-2.289-10.164-4.058-15.119l0.017-0.219
	c5.33,2.008,8.125,6.7,10.731,11.657c1.862,3.592,3.683,7.272,6.339,9.994c-1.109,0.08-2.152,0.229-3.234,0.388
	c-1.121,0.163-2.274,0.386-3.435,0.692c-2.306,0.135-4.581,0.236-6.731,0.167c-4.035-0.171-7.795-0.855-11.037-2.607
	c-1.502-0.797-2.902-1.848-4.131-3.16c0.949-0.152,1.992-0.342,3.027-0.523C37.328,149.096,40.762,148.526,43.938,148.368"/>
<path fill="#020202" d="M30.938,132.794c1.494-5.036,4.273-10.122,3.863-15.641l0.144-0.22l0.374,0.165
	c0.044,0.035,0.097,0.107,0.102,0.145c0.291,0.5,0.6,0.786,1.135,1.3c3.806,6.707,3.23,14.78,1.275,21.92
	c-0.32,1.177-0.652,2.295-1.063,3.426c-3.422-2.676-7.644-3.358-11.442-5.307c-0.342-0.207-0.677-0.369-1.03-0.582
	c-3.658-2.641-5.885-7.007-6.841-11.183c2.373,0.757,4.701,1.367,6.876,2.187C26.676,129.85,28.938,130.991,30.938,132.794"/>
<path fill="#1A1A19" d="M117.115,181.57c-3.51-1.403-11.533-5.484-20.939-10.254v14.697c11.414,7.015,20.566,11.113,20.566,11.113
	l0.399-0.001l0.399,0.001c0,0,9.151-4.1,20.567-11.113v-14.726c-9.063,4.597-16.85,8.632-20.563,10.109
	C117.397,181.458,117.252,181.517,117.115,181.57"/>
<path fill="#1A1A19" d="M63.846,160.647c8.119,9.568,19.146,17.857,29.014,24.17v-15.225c-9.689-5.161-20.402-12.017-29.014-20.575
	V160.647L63.846,160.647z"/>
<path fill="#1A1A19" d="M141.425,184.817c9.868-6.313,20.896-14.602,29.015-24.171v-11.686
	c-8.606,8.569-19.317,15.433-29.015,20.602V184.817z"/>
</svg>
