<?xml version="1.0" encoding="utf-8"?>
<!-- Generator: Adobe Illustrator 16.0.0, SVG Export Plug-In . SVG Version: 6.00 Build 0)  -->
<!DOCTYPE svg PUBLIC "-//W3C//DTD SVG 1.1//EN" "http://www.w3.org/Graphics/SVG/1.1/DTD/svg11.dtd">
<svg version="1.1" id="Layer_1" xmlns="http://www.w3.org/2000/svg" xmlns:xlink="http://www.w3.org/1999/xlink" x="0px" y="0px"
	 width="240px" height="195px" viewBox="0 0 240 195" enable-background="new 0 0 240 195" xml:space="preserve">
<path fill="none" d="M78.63-2257.76"/>
<path fill="none" d="M78.63,987.837"/>
<path fill="none" d="M51.764,1616.837"/>
<path fill="none" d="M51.764-1628.76"/>
<line fill="#929497" x1="1530.52" y1="-66.557" x2="1530.52" y2="-65.807"/>
<line fill="#929497" x1="-611.484" y1="-65.807" x2="-611.484" y2="-66.557"/>
<path fill="#FDD00F" d="M188.396,93.303c-10.15-32.986-1.588-41.101,0.215-42.339h-67.617H52.512
	c1.804,1.238,10.367,9.353,0.217,42.339c-14.918,48.481,55.285,74.915,67.834,79.936c0.137-0.055,0.281-0.112,0.432-0.172
	C134.631,167.639,203.15,141.257,188.396,93.303"/>
<g opacity="0.6">
	<g>
		<g>
			<defs>
				<rect id="SVGID_1_" x="120.49" y="50.96" width="69.47" height="122.101"/>
			</defs>
			<clipPath id="SVGID_2_">
				<use xlink:href="#SVGID_1_"  overflow="visible"/>
			</clipPath>
			<path clip-path="url(#SVGID_2_)" fill="#CDA72C" d="M187.895,93.303c-10.149-32.986-1.586-41.101,0.215-42.339h-67.616v122.103
				C134.13,167.639,202.65,141.257,187.895,93.303"/>
		</g>
	</g>
</g>
<g opacity="0.4">
	<g>
		<g>
			<defs>
				<rect id="SVGID_3_" x="50.66" y="5.19" width="139.811" height="168.05"/>
			</defs>
			<clipPath id="SVGID_4_">
				<use xlink:href="#SVGID_3_"  overflow="visible"/>
			</clipPath>
			<path clip-path="url(#SVGID_4_)" fill="#FFFFFF" d="M120.563,19.247c12.873,6.204,32.308,10.53,54.447,12.167v14.542
				c-1.519,2.447-2.945,5.632-3.908,9.729c-2.506,10.653-1.121,24.676,4.107,41.677c2.33,7.567,1.857,14.6-1.443,21.499
				c-3.051,6.373-8.519,12.725-16.252,18.875c-12.736,10.132-28.211,17.049-36.951,20.637c-8.742-3.588-24.215-10.505-36.952-20.637
				c-7.733-6.15-13.201-12.502-16.251-18.875c-3.301-6.898-3.773-13.932-1.445-21.499c5.23-17.001,6.614-31.023,4.109-41.677
				c-0.963-4.097-2.391-7.281-3.908-9.729V31.414C88.254,29.777,107.69,25.451,120.563,19.247 M120.563,5.186
				c-1.727,0-3.453,0.347-4.795,1.037c-9.942,5.12-29.271,10.587-57.984,11.864c-3.016,0.134-5.465,2.57-5.465,5.589v27.161
				c0,0,11.263,7.192,0.41,42.466c-14.918,48.482,55.285,74.915,67.834,79.935c12.548-5.02,82.751-31.451,67.833-79.935
				c-10.854-35.273,0.41-42.466,0.41-42.466V23.676c0-3.019-2.449-5.455-5.465-5.589c-28.713-1.276-48.043-6.744-57.984-11.864
				C124.016,5.532,122.288,5.186,120.563,5.186"/>
		</g>
	</g>
</g>
<path fill="#191818" d="M188.807,23.676c0-3.02-2.449-5.455-5.465-5.589c-28.713-1.276-48.043-6.744-57.984-11.865
	c-2.686-1.382-6.903-1.382-9.589,0c-9.942,5.121-29.271,10.588-57.984,11.865c-3.016,0.134-5.465,2.569-5.465,5.589v27.161
	c0,0,0.07,0.041,0.193,0.127h136.099c0.125-0.086,0.195-0.127,0.195-0.127V23.676z"/>
<path fill="#191818" d="M120.563,13.552c0.527,0,0.894,0.091,1.005,0.13c13.131,6.748,34.479,11.32,58.873,12.639v21.295
	c-1.498,2.068-3.057,5.072-4.055,9.313c-2.279,9.702-0.93,22.771,4.014,38.836c5.107,16.601-1.272,31.72-19.506,46.222
	c-14.387,11.443-31.92,18.868-40.332,22.248c-8.412-3.38-25.946-10.805-40.333-22.248c-18.232-14.502-24.612-29.621-19.505-46.222
	c4.943-16.065,6.293-29.134,4.013-38.836c-0.997-4.24-2.556-7.243-4.054-9.313V26.32c24.394-1.318,45.744-5.891,58.873-12.639
	C119.668,13.643,120.035,13.552,120.563,13.552 M120.563,5.186c-1.727,0-3.453,0.346-4.795,1.037
	c-9.942,5.12-29.271,10.587-57.984,11.864c-3.016,0.134-5.465,2.57-5.465,5.589v27.161c0,0,11.263,7.192,0.41,42.466
	c-14.918,48.482,55.285,74.915,67.834,79.935c12.548-5.02,82.751-31.451,67.833-79.935c-10.854-35.273,0.41-42.466,0.41-42.466
	V23.676c0-3.019-2.449-5.455-5.465-5.589c-28.713-1.276-48.043-6.744-57.984-11.864C124.016,5.531,122.288,5.186,120.563,5.186"/>
<path fill="#FFFFFF" d="M97.426,39.241l2.407-2.528c1.024,1.325,2.619,2.198,4.306,2.198c2.106,0,3.07-1.114,3.07-2.68
	c0-1.866-1.295-2.529-3.252-2.529c-0.662,0-1.564,0-1.866,0.061V30.12c0.302,0.03,1.294,0.03,1.776,0.03
	c1.836,0,3.07-0.753,3.07-2.318c0-1.686-1.203-2.499-2.951-2.499c-1.564,0-2.979,0.722-4.002,2.017l-2.288-2.348
	c1.444-2.017,3.733-3.251,6.622-3.251c3.975,0,6.594,1.896,6.594,5.449c0,2.288-1.716,4.153-3.794,4.576
	c2.048,0.301,4.095,2.106,4.095,4.816c0,3.492-2.68,5.9-6.895,5.9C101.127,42.493,98.689,41.078,97.426,39.241"/>
<path fill="#FFFFFF" d="M112.475,32.106c0-5.18,2.138-10.355,7.105-10.355c4.997,0,7.105,5.177,7.105,10.355
	c0,5.146-2.078,10.387-7.105,10.387C114.612,42.493,112.475,37.254,112.475,32.106 M122.59,32.106c0-3.885-0.662-6.773-3.01-6.773
	c-2.318,0-2.98,2.89-2.98,6.773c0,3.854,0.662,6.805,2.98,6.805C121.928,38.911,122.59,35.961,122.59,32.106"/>
<path fill="#FFFFFF" d="M127.887,32.106c0-5.18,2.139-10.355,7.104-10.355c4.997,0,7.106,5.177,7.106,10.355
	c0,5.146-2.078,10.387-7.106,10.387C130.023,42.493,127.887,37.254,127.887,32.106 M138.002,32.106c0-3.885-0.662-6.773-3.011-6.773
	c-2.317,0-2.979,2.89-2.979,6.773c0,3.854,0.662,6.805,2.979,6.805C137.34,38.911,138.002,35.961,138.002,32.106"/>
<path fill="#191818" d="M155.18,109.811c-2.641,0-6.695,0.224-6.695,2.862v15.822c0,2.64,4.056,2.863,6.695,2.863
	c2.639,0,6.695-0.225,6.695-2.863v-15.822C161.875,110.033,157.818,109.811,155.18,109.811"/>
<path fill="#191818" d="M85.443,109.811c-2.64,0-6.695,0.224-6.695,2.862v15.822c0,2.64,4.056,2.863,6.695,2.863
	c2.641,0,6.695-0.225,6.695-2.863v-15.822C92.139,110.033,88.084,109.811,85.443,109.811"/>
<path fill="#FDD00F" d="M79.664,86.321l-4.879,9.532l4.961,20.692c0.129,1.675,1.525,2.994,3.233,2.994
	c6.493,0,12.063,2.508,18.557,2.508c1.628,0,2.972-1.198,3.206-2.761h31.096c0.234,1.563,1.578,2.761,3.205,2.761
	c6.493,0,12.064-2.508,18.559-2.508c1.627,0,2.972-1.198,3.205-2.762h0.016l5.017-20.927l-4.879-9.531L79.664,86.321L79.664,86.321z
	"/>
<path fill="#FFFFFF" d="M160.82,86.053h-9.592l-3.902-10.063c-0.381-2.744-2.936-4.97-5.706-4.97H99.003
	c-2.771,0-5.325,2.227-5.706,4.97l-3.902,10.063h-9.592l-0.139,0.27h81.294L160.82,86.053z"/>
<rect x="108.767" y="87.324" fill="#FFFFFF" width="21.573" height="33.363"/>
<path fill="#FFFFFF" d="M97.279,103.196c0,3.937-3.191,7.127-7.127,7.127c-3.938,0-7.127-3.19-7.127-7.127s3.189-7.127,7.127-7.127
	C94.088,96.069,97.279,99.261,97.279,103.196"/>
<path fill="#191818" d="M90.152,111.703c-4.691,0-8.507-3.815-8.507-8.507c0-4.689,3.815-8.507,8.507-8.507
	c4.689,0,8.506,3.816,8.506,8.507C98.658,107.888,94.842,111.703,90.152,111.703 M90.152,97.449c-3.17,0-5.746,2.578-5.746,5.747
	s2.576,5.747,5.746,5.747c3.168,0,5.746-2.578,5.746-5.747S93.32,97.449,90.152,97.449"/>
<path fill="#191818" d="M92.379,100.864l-4.41,4.691c0.582,0.572,1.379,0.927,2.26,0.927c1.778,0,3.221-1.442,3.221-3.222
	C93.449,102.309,93.035,101.454,92.379,100.864"/>
<path fill="#FFFFFF" d="M156.727,103.196c0,3.937-3.19,7.127-7.127,7.127c-3.936,0-7.125-3.19-7.125-7.127s3.189-7.127,7.125-7.127
	C153.536,96.069,156.727,99.261,156.727,103.196"/>
<path fill="#191818" d="M149.6,111.703c-4.688,0-8.507-3.815-8.507-8.507c0-4.689,3.817-8.507,8.507-8.507
	c4.69,0,8.508,3.816,8.508,8.507C158.107,107.888,154.29,111.703,149.6,111.703 M149.6,97.449c-3.168,0-5.746,2.578-5.746,5.747
	s2.578,5.747,5.746,5.747c3.17,0,5.748-2.578,5.748-5.747S152.77,97.449,149.6,97.449"/>
<path fill="#191818" d="M151.826,100.864l-4.41,4.691c0.582,0.572,1.379,0.927,2.26,0.927c1.779,0,3.223-1.442,3.223-3.222
	C152.896,102.309,152.482,101.454,151.826,100.864"/>
<path fill="#FFFFFF" d="M134.998,105.025c0-2.313-1.875-4.188-4.188-4.188h-22.236c-2.312,0-4.187,1.875-4.187,4.188
	s1.875,4.188,4.187,4.188h22.236C133.123,109.213,134.998,107.339,134.998,105.025"/>
<path fill="#191818" d="M130.811,110.593h-22.235c-3.068,0-5.566-2.498-5.566-5.566c0-3.069,2.498-5.566,5.566-5.566h22.235
	c3.07,0,5.566,2.498,5.566,5.566S133.881,110.593,130.811,110.593 M108.574,102.219c-1.548,0-2.807,1.259-2.807,2.808
	s1.259,2.807,2.807,2.807h22.236c1.547,0,2.807-1.258,2.807-2.807s-1.26-2.808-2.807-2.808H108.574z"/>
<rect x="86.943" y="84.071" fill="#191818" width="65.472" height="4"/>
<path fill="#191819" d="M156.171,84.577c-1.503,1.502-3.938,1.502-5.438,0c-1.504-1.502-1.504-3.938,0-5.44
	c1.5-1.502,5.709-3.275,7.213-1.772C159.447,78.866,157.673,83.075,156.171,84.577"/>
<path fill="#191819" d="M84.303,84.577c1.502,1.502,3.938,1.502,5.44,0s1.502-3.938,0-5.44s-5.712-3.275-7.214-1.772
	C81.027,78.866,82.801,83.075,84.303,84.577"/>
<rect x="123.949" y="69.525" transform="matrix(-0.8538 -0.5207 0.5207 -0.8538 191.6138 210.2076)" fill="#191818" width="2.759" height="17.338"/>
<rect x="131.726" y="69.524" transform="matrix(-0.8538 -0.5207 0.5207 -0.8538 206.0313 214.2562)" fill="#191818" width="2.759" height="17.339"/>
<path fill="#191818" d="M139.043,124.05c-1.956,0-3.713-1.109-4.611-2.762h-28.283c-0.898,1.651-2.656,2.762-4.611,2.762
	c-3.453,0-6.621-0.659-9.687-1.296c-2.999-0.625-5.831-1.213-8.872-1.213c-2.662,0-4.917-2.035-5.211-4.664l-5.101-21.275
	l5.913-11.548h9.445l3.33-8.587c0.631-3.635,3.94-6.447,7.646-6.447h42.619c3.705,0,7.016,2.813,7.646,6.447l3.33,8.587h9.445
	l5.912,11.548l-5.557,23.18h-0.188c-0.896,1.65-2.655,2.761-4.611,2.761c-3.041,0-5.873,0.588-8.871,1.213
	C145.664,123.391,142.496,124.05,139.043,124.05 M103.021,117.288h34.538l0.256,1.702c0.092,0.604,0.619,1.06,1.229,1.06
	c3.041,0,5.874-0.589,8.873-1.214c3.064-0.637,6.232-1.295,9.686-1.295c0.608,0,1.137-0.455,1.229-1.059l0.255-1.702h0.159
	l4.477-18.674l-4.123-8.054h-9.738l-4.482-11.56l-0.032-0.23c-0.243-1.758-1.946-3.244-3.723-3.244H99.003
	c-1.775,0-3.48,1.486-3.723,3.244l-0.033,0.23l-4.483,11.56h-9.737l-4.123,8.054l4.838,20.285c0.049,0.645,0.594,1.148,1.238,1.148
	c3.452,0,6.621,0.658,9.686,1.295c3,0.625,5.832,1.214,8.873,1.214c0.609,0,1.137-0.455,1.228-1.06L103.021,117.288z"/>
<polygon fill="#FFFFFF" points="91.508,29.677 84.049,28.546 80.729,21.448 77.408,28.546 69.95,29.677 75.339,35.211 
	73.992,43.006 80.729,39.325 87.466,43.006 86.118,35.211 "/>
<polygon fill="#FFFFFF" points="171.175,29.677 163.717,28.546 160.396,21.448 157.074,28.546 149.617,29.677 155.006,35.211 
	153.658,43.006 160.396,39.325 167.133,43.006 165.785,35.211 "/>
<path fill="#1A1A19" d="M120.535,176.57c-3.51-1.403-11.533-4.484-20.939-9.254v14.697c11.414,7.015,20.566,11.113,20.566,11.113
	l0.399-0.001l0.399,0.001c0,0,9.151-4.1,20.567-11.113v-14.726c-9.063,4.597-16.848,7.632-20.561,9.109
	C120.817,176.458,120.672,176.517,120.535,176.57"/>
<path fill="#1A1A19" d="M67.266,156.647c8.119,9.568,19.146,17.857,29.014,24.17v-15.225c-9.689-5.161-20.402-12.017-29.014-20.575
	V156.647L67.266,156.647z"/>
<path fill="#1A1A19" d="M144.846,180.817c9.867-6.313,20.895-14.602,29.014-24.171v-11.686c-9.12,9.081-19.7,15.637-29.014,20.602
	V180.817z"/>
</svg>
