<?xml version="1.0" encoding="utf-8"?>
<!-- Generator: Adobe Illustrator 16.0.0, SVG Export Plug-In . SVG Version: 6.00 Build 0)  -->
<!DOCTYPE svg PUBLIC "-//W3C//DTD SVG 1.1//EN" "http://www.w3.org/Graphics/SVG/1.1/DTD/svg11.dtd">
<svg version="1.1" id="Layer_1" xmlns="http://www.w3.org/2000/svg" xmlns:xlink="http://www.w3.org/1999/xlink" x="0px" y="0px"
	 width="612px" height="792px" viewBox="0 0 612 792" enable-background="new 0 0 612 792" xml:space="preserve">
<path fill="none" d="M346.63,60"/>
<path fill="none" d="M346.63,3305.597"/>
<path fill="#FECF0A" d="M370.172,396.303c-10.15-32.987-1.587-41.101,0.215-42.339H302.77h-68.482
	c1.803,1.238,10.366,9.352,0.216,42.339c-14.918,48.481,55.284,74.915,67.834,79.935c0.136-0.054,0.282-0.112,0.432-0.172
	C316.407,470.639,384.927,444.257,370.172,396.303"/>
<g opacity="0.4">
	<g>
		<defs>
			<rect id="SVGID_1_" x="232.43" y="308.19" width="139.811" height="168.05"/>
		</defs>
		<clipPath id="SVGID_2_">
			<use xlink:href="#SVGID_1_"  overflow="visible"/>
		</clipPath>
		<path clip-path="url(#SVGID_2_)" fill="#FFFFFF" d="M302.338,322.247c12.873,6.204,32.308,10.53,54.447,12.167v14.542
			c-1.519,2.447-2.945,5.632-3.908,9.729c-2.505,10.653-1.122,24.675,4.109,41.677c2.327,7.567,1.855,14.6-1.445,21.498
			c-3.051,6.373-8.519,12.725-16.251,18.875c-12.737,10.132-28.211,17.049-36.952,20.637c-8.742-3.588-24.216-10.505-36.952-20.637
			c-7.733-6.15-13.201-12.502-16.251-18.875c-3.301-6.898-3.774-13.931-1.445-21.498c5.231-17.001,6.614-31.023,4.109-41.677
			c-0.963-4.097-2.39-7.282-3.909-9.729v-14.542C270.029,332.777,289.466,328.451,302.338,322.247 M302.338,308.186
			c-1.726,0-3.453,0.347-4.795,1.037c-9.942,5.12-29.271,10.588-57.984,11.864c-3.016,0.134-5.465,2.57-5.465,5.589v27.161
			c0,0,11.263,7.192,0.41,42.466c-14.918,48.482,55.285,74.915,67.834,79.934c12.549-5.019,82.751-31.451,67.834-79.934
			c-10.854-35.274,0.41-42.466,0.41-42.466v-27.161c0-3.019-2.449-5.455-5.465-5.589c-28.713-1.276-48.043-6.744-57.984-11.864
			C305.791,308.532,304.063,308.186,302.338,308.186"/>
	</g>
</g>
<path fill="#191818" d="M370.582,326.676c0-3.02-2.449-5.455-5.465-5.589c-28.713-1.276-48.043-6.744-57.984-11.865
	c-2.685-1.382-6.905-1.382-9.59,0c-9.942,5.121-29.271,10.589-57.983,11.865c-3.017,0.134-5.466,2.569-5.466,5.589v27.161
	c0,0,0.07,0.041,0.195,0.127h136.099c0.124-0.086,0.194-0.127,0.194-0.127V326.676z"/>
<path fill="#191818" d="M302.338,316.552c0.527,0,0.894,0.091,1.006,0.13c13.13,6.748,34.479,11.32,58.872,12.638v21.295
	c-1.498,2.069-3.056,5.072-4.053,9.313c-2.281,9.702-0.932,22.77,4.013,38.836c5.107,16.6-1.273,31.719-19.505,46.221
	c-14.388,11.444-31.921,18.869-40.333,22.248c-8.412-3.379-25.946-10.804-40.333-22.248c-18.232-14.502-24.613-29.621-19.505-46.221
	c4.943-16.066,6.294-29.134,4.013-38.836c-0.997-4.241-2.555-7.243-4.053-9.313V329.32c24.393-1.318,45.743-5.89,58.872-12.638
	C301.444,316.643,301.811,316.552,302.338,316.552 M302.338,308.186c-1.726,0-3.453,0.346-4.795,1.037
	c-9.942,5.12-29.271,10.588-57.984,11.864c-3.016,0.134-5.465,2.57-5.465,5.589v27.161c0,0,11.263,7.192,0.41,42.466
	c-14.918,48.482,55.285,74.915,67.834,79.934c12.549-5.019,82.751-31.451,67.834-79.934c-10.854-35.274,0.41-42.466,0.41-42.466
	v-27.161c0-3.019-2.449-5.455-5.465-5.589c-28.713-1.276-48.043-6.744-57.984-11.864
	C305.791,308.531,304.063,308.186,302.338,308.186"/>
<polygon fill="#FFFFFF" points="294.056,345.132 294.056,330.26 291.015,333.421 288.697,330.982 294.598,325.051 298.12,325.051 
	298.12,345.132 "/>
<path fill="#FFFFFF" d="M300.286,342.332l2.438-2.589c1.054,1.384,2.468,2.167,4.185,2.167c1.926,0,3.04-1.475,3.04-3.161
	c0-1.987-1.054-3.161-2.859-3.161c-1.355,0-2.378,0.482-3.311,1.656l-2.921-0.783v-11.41h12.042v3.552h-8.008v5.149
	c0.783-0.964,2.138-1.656,3.673-1.656c3.041,0,5.48,2.378,5.48,6.533c0,4.034-2.74,6.864-7.016,6.864
	C303.929,345.493,301.791,344.35,300.286,342.332"/>
<g opacity="0.6">
	<g>
		<defs>
			<rect id="SVGID_3_" x="302.27" y="353.96" width="69.47" height="122.101"/>
		</defs>
		<clipPath id="SVGID_4_">
			<use xlink:href="#SVGID_3_"  overflow="visible"/>
		</clipPath>
		<path clip-path="url(#SVGID_4_)" fill="#CDA72C" d="M369.67,396.303c-10.149-32.987-1.587-41.101,0.215-42.339h-67.616v122.102
			C315.905,470.639,384.426,444.257,369.67,396.303"/>
	</g>
</g>
<path fill="#191818" d="M287.277,401.138h30.674c2.852,0,5.171,1.97,5.18,4.399l0.049,22.449h-41.13l0.048-22.449
	C282.106,403.107,284.425,401.138,287.277,401.138"/>
<rect x="280.53" y="427.409" fill="#191818" width="44.17" height="8.005"/>
<path fill="#FECF0A" d="M317.768,377.825h-5.59c-1.145-6.24-5.053-15.168-9.699-15.168c-4.647,0-8.556,8.928-9.699,15.168h-5.59
	h-2.465v2.165v5.413v2.165l1.834,4.331v35.509h31.841v-35.509l1.834-4.331v-2.165v-5.413v-2.165H317.768z"/>
<rect x="286.219" y="413.675" fill="#FFFFFF" width="33.077" height="13.543"/>
<path fill="#FFFFFF" d="M312.936,377.176c0,5.74-4.653,10.393-10.394,10.393c-5.74,0-10.393-4.653-10.393-10.393
	s4.653-14.723,10.393-14.723C308.282,362.453,312.936,371.436,312.936,377.176"/>
<path fill="#191818" d="M292.789,389.474c-1.89,0-6.446-0.609-11.54-5.704c-4.081-4.081-7.137-3.261-7.265-3.224
	c-1.435,0.511-2.977-0.247-3.489-1.683c-0.513-1.435,0.273-3.027,1.709-3.539c2.3-0.822,7.614-0.789,12.947,4.544
	c4.333,4.335,7.658,4.098,7.795,4.083c1.506-0.217,2.872,0.836,3.088,2.345c0.215,1.509-0.868,2.911-2.376,3.126
	C293.541,389.438,293.242,389.474,292.789,389.474"/>
<path fill="#191818" d="M264.58,383.165l11.15-1.549c1.186-0.164,2.034-1.096,1.897-2.081l-0.545-3.925
	c-0.137-0.984-1.208-1.65-2.393-1.485l-11.151,1.549c-1.185,0.164-2.033,1.096-1.896,2.081l0.545,3.925
	C262.324,382.664,263.396,383.33,264.58,383.165"/>
<path fill="#191818" d="M312.136,389.474c-0.453,0-0.752-0.035-0.87-0.052c-1.508-0.215-2.556-1.613-2.34-3.122
	c0.213-1.488,1.582-2.52,3.061-2.35c0.239,0.021,3.522,0.183,7.787-4.083c5.332-5.334,10.648-5.366,12.946-4.544
	c1.437,0.512,2.185,2.091,1.671,3.526c-0.513,1.436-2.092,2.184-3.527,1.671c-0.053-0.013-3.108-0.831-7.188,3.249
	C318.583,388.863,314.025,389.474,312.136,389.474"/>
<path fill="#191818" d="M302.552,431.593l-17.994-2.437v-36.414l-4.439-4.331v-12.586h6.696l4.226-1.637
	c1.548-6.752,5.907-13.531,11.438-13.531c5.531,0,9.89,6.779,11.437,13.531l4.226,1.637h6.696v12.586l-4.438,4.331v36.412
	L302.552,431.593z M288.559,425.661l13.991,1.895l13.85-1.892v-34.607l4.438-4.331v-6.9h-3.443l-6.981-2.705l-0.202-1.1
	c-1.109-6.053-4.722-11.363-7.731-11.363c-3.009,0-6.622,5.311-7.732,11.363l-0.201,1.1l-6.981,2.705h-3.444v6.9l4.439,4.331
	V425.661z"/>
<path fill="#191818" d="M340.345,383.165l-11.151-1.549c-1.185-0.164-2.033-1.096-1.896-2.081l0.545-3.925
	c0.137-0.984,1.208-1.65,2.393-1.485l11.151,1.549c1.185,0.164,2.033,1.096,1.897,2.081l-0.547,3.925
	C342.601,382.664,341.529,383.33,340.345,383.165"/>
<polygon fill="#191818" points="282.905,378.187 292.727,376.165 312.502,376.165 318.275,378.042 322.838,377.825 322.838,387.569 
	318.398,391.899 287.091,391.899 282.12,387.569 "/>
<path fill="#FECF0A" d="M312.322,384.971c0,5.381-4.362,9.743-9.744,9.743c-5.382,0-9.744-4.362-9.744-9.743
	s4.362-9.743,9.744-9.743C307.96,375.228,312.322,379.59,312.322,384.971"/>
<path fill="#FFFFFF" d="M302.578,380.244c2.606,0,4.727,2.12,4.727,4.727c0,2.605-2.12,4.726-4.727,4.726
	c-2.606,0-4.726-2.12-4.726-4.726C297.853,382.364,299.972,380.244,302.578,380.244 M302.578,375.228
	c-5.381,0-9.743,4.362-9.743,9.743c0,5.382,4.362,9.743,9.743,9.743s9.743-4.361,9.743-9.743
	C312.321,379.589,307.959,375.228,302.578,375.228"/>
<path fill="#191818" d="M302.578,396.093c-6.133,0-11.123-4.989-11.123-11.123c0-6.133,4.99-11.123,11.123-11.123
	s11.123,4.99,11.123,11.123C313.701,391.104,308.711,396.093,302.578,396.093 M302.578,376.607c-4.612,0-8.363,3.751-8.363,8.363
	s3.751,8.364,8.363,8.364c4.612,0,8.363-3.752,8.363-8.364S307.19,376.607,302.578,376.607"/>
<path fill="#191818" d="M305.622,381.782l-6.028,6.416c0.794,0.782,1.885,1.265,3.088,1.265c2.432,0,4.404-1.971,4.404-4.403
	C307.086,383.758,306.521,382.588,305.622,381.782"/>
<path fill="#191818" d="M302.449,407.579c-3.587,0-6.496,2.908-6.496,6.496v29.317c0,3.588,2.909,6.496,6.496,6.496
	c3.587,0,6.496-2.908,6.496-6.496v-29.317C308.944,410.487,306.036,407.579,302.449,407.579"/>
<polygon fill="#FFFFFF" points="271.444,334.968 259.704,337.677 248.868,334.968 248.868,328.646 259.704,331.355 271.444,328.646 
	"/>
<polygon fill="#FFFFFF" points="271.444,343.998 259.704,346.707 248.868,343.998 248.868,337.676 259.704,340.386 271.444,337.676 
	"/>
<polygon fill="#FECF0A" points="355.809,334.968 344.068,337.677 333.232,334.968 333.232,328.646 344.068,331.355 355.809,328.646 
	"/>
<polygon fill="#FECF0A" points="355.809,343.998 344.068,346.707 333.232,343.998 333.232,337.676 344.068,340.386 355.809,337.676 
	"/>
</svg>
