<?xml version="1.0" encoding="utf-8"?>
<!-- Generator: Adobe Illustrator 16.0.0, SVG Export Plug-In . SVG Version: 6.00 Build 0)  -->
<!DOCTYPE svg PUBLIC "-//W3C//DTD SVG 1.1//EN" "http://www.w3.org/Graphics/SVG/1.1/DTD/svg11.dtd">
<svg version="1.1" id="Layer_1" xmlns="http://www.w3.org/2000/svg" xmlns:xlink="http://www.w3.org/1999/xlink" x="0px" y="0px"
	 width="612px" height="792px" viewBox="0 0 612 792" enable-background="new 0 0 612 792" xml:space="preserve">
<path fill="none" d="M346.63,60"/>
<path fill="none" d="M346.63,3305.597"/>
<path fill="#FECF0A" d="M370.527,396.303c-10.15-32.987-1.588-41.101,0.215-42.339h-67.617h-68.482
	c1.803,1.238,10.366,9.352,0.216,42.339c-14.918,48.481,55.285,74.915,67.834,79.935c0.136-0.054,0.282-0.112,0.432-0.172
	C316.762,470.639,385.282,444.257,370.527,396.303"/>
<g opacity="0.6">
	<g>
		<defs>
			<rect id="SVGID_1_" x="302.62" y="353.96" width="69.47" height="122.101"/>
		</defs>
		<clipPath id="SVGID_2_">
			<use xlink:href="#SVGID_1_"  overflow="visible"/>
		</clipPath>
		<path clip-path="url(#SVGID_2_)" fill="#CDA72C" d="M370.025,396.303c-10.15-32.987-1.587-41.101,0.215-42.339h-67.617v122.102
			C316.26,470.639,384.78,444.257,370.025,396.303"/>
	</g>
</g>
<g opacity="0.4">
	<g>
		<defs>
			<rect id="SVGID_3_" x="232.79" y="308.19" width="139.81" height="168.05"/>
		</defs>
		<clipPath id="SVGID_4_">
			<use xlink:href="#SVGID_3_"  overflow="visible"/>
		</clipPath>
		<path clip-path="url(#SVGID_4_)" fill="#FFFFFF" d="M302.693,322.247c12.873,6.204,32.308,10.53,54.448,12.167v14.542
			c-1.519,2.447-2.945,5.631-3.909,9.729c-2.505,10.653-1.122,24.675,4.109,41.677c2.328,7.567,1.856,14.6-1.445,21.498
			c-3.05,6.373-8.518,12.725-16.251,18.875c-12.736,10.132-28.211,17.049-36.952,20.637c-8.741-3.588-24.216-10.505-36.952-20.637
			c-7.733-6.15-13.201-12.502-16.251-18.875c-3.301-6.898-3.773-13.931-1.445-21.498c5.23-17.001,6.614-31.023,4.109-41.677
			c-0.963-4.097-2.39-7.282-3.909-9.729v-14.542C270.384,332.777,289.821,328.451,302.693,322.247 M302.693,308.186
			c-1.726,0-3.453,0.347-4.795,1.037c-9.941,5.12-29.271,10.588-57.983,11.864c-3.017,0.134-5.465,2.57-5.465,5.589v27.161
			c0,0,11.263,7.192,0.41,42.466c-14.917,48.482,55.285,74.915,67.834,79.934c12.549-5.019,82.75-31.451,67.834-79.934
			c-10.854-35.274,0.409-42.466,0.409-42.466v-27.161c0-3.019-2.448-5.455-5.465-5.589c-28.713-1.276-48.042-6.744-57.983-11.864
			C306.146,308.532,304.419,308.186,302.693,308.186"/>
	</g>
</g>
<path fill="#191818" d="M370.938,326.676c0-3.02-2.449-5.455-5.466-5.589c-28.713-1.276-48.042-6.744-57.983-11.865
	c-2.686-1.382-6.905-1.382-9.59,0c-9.942,5.121-29.271,10.589-57.984,11.865c-3.016,0.134-5.465,2.569-5.465,5.589v27.161
	c0,0,0.068,0.041,0.193,0.127h136.1c0.125-0.086,0.195-0.127,0.195-0.127V326.676z"/>
<path fill="#191818" d="M302.693,316.552c0.527,0,0.894,0.091,1.006,0.13c13.129,6.748,34.478,11.32,58.872,12.638v21.295
	c-1.498,2.069-3.056,5.072-4.053,9.313c-2.281,9.702-0.93,22.77,4.014,38.836c5.107,16.6-1.273,31.719-19.507,46.221
	c-14.386,11.444-31.92,18.869-40.332,22.248c-8.412-3.379-25.946-10.804-40.333-22.248c-18.232-14.502-24.613-29.621-19.505-46.221
	c4.943-16.066,6.294-29.134,4.013-38.836c-0.997-4.241-2.555-7.243-4.053-9.313V329.32c24.394-1.318,45.743-5.89,58.872-12.638
	C301.799,316.643,302.166,316.552,302.693,316.552 M302.693,308.186c-1.726,0-3.453,0.346-4.795,1.037
	c-9.941,5.12-29.271,10.588-57.983,11.864c-3.017,0.134-5.465,2.57-5.465,5.589v27.161c0,0,11.263,7.192,0.41,42.466
	c-14.917,48.482,55.285,74.915,67.834,79.934c12.549-5.019,82.75-31.451,67.834-79.934c-10.854-35.274,0.409-42.466,0.409-42.466
	v-27.161c0-3.019-2.448-5.455-5.465-5.589c-28.713-1.276-48.042-6.744-57.983-11.864
	C306.146,308.531,304.419,308.186,302.693,308.186"/>
<polygon fill="#FFFFFF" points="294.261,345.132 294.261,330.26 291.22,333.421 288.901,330.982 294.803,325.051 298.324,325.051 
	298.324,345.132 "/>
<path fill="#FFFFFF" d="M300.311,335.106c0-5.178,2.137-10.355,7.104-10.355c4.998,0,7.105,5.178,7.105,10.355
	c0,5.148-2.077,10.388-7.105,10.388C302.447,345.494,300.311,340.255,300.311,335.106 M310.426,335.106
	c0-3.884-0.662-6.772-3.012-6.772c-2.317,0-2.979,2.889-2.979,6.772c0,3.854,0.662,6.805,2.979,6.805
	C309.764,341.911,310.426,338.961,310.426,335.106"/>
<path fill="#191818" d="M287.632,401.138h30.674c2.852,0,5.171,1.97,5.18,4.399l0.048,22.449h-41.13l0.049-22.449
	C282.461,403.107,284.78,401.138,287.632,401.138"/>
<rect x="280.885" y="427.409" fill="#191818" width="44.17" height="8.005"/>
<path fill="#FECF0A" d="M318.123,377.825h-5.591c-1.144-6.24-5.052-15.168-9.699-15.168s-8.555,8.928-9.699,15.168h-5.59h-2.466
	v2.165v5.413v2.165l1.835,4.331v35.509h31.841v-35.509l1.834-4.331v-2.165v-5.413v-2.165H318.123z"/>
<rect x="286.574" y="413.675" fill="#FFFFFF" width="33.076" height="13.543"/>
<path fill="#FFFFFF" d="M313.29,377.176c0,5.74-4.653,10.393-10.393,10.393c-5.74,0-10.394-4.653-10.394-10.393
	s4.653-14.723,10.394-14.723C308.637,362.453,313.29,371.436,313.29,377.176"/>
<path fill="#191818" d="M293.145,389.474c-1.89,0-6.446-0.609-11.54-5.704c-4.081-4.081-7.137-3.261-7.266-3.224
	c-1.434,0.511-2.976-0.247-3.488-1.683c-0.513-1.435,0.273-3.027,1.708-3.539c2.299-0.822,7.615-0.789,12.947,4.544
	c4.336,4.336,7.658,4.093,7.796,4.083c1.511-0.218,2.872,0.836,3.088,2.345c0.215,1.509-0.868,2.911-2.376,3.126
	C293.896,389.438,293.597,389.474,293.145,389.474"/>
<path fill="#191818" d="M264.935,383.165l11.151-1.549c1.185-0.164,2.034-1.096,1.896-2.081l-0.545-3.925
	c-0.137-0.984-1.208-1.65-2.392-1.485l-11.151,1.549c-1.185,0.164-2.034,1.096-1.896,2.081l0.545,3.925
	C262.68,382.664,263.751,383.33,264.935,383.165"/>
<path fill="#191818" d="M312.491,389.474c-0.453,0-0.753-0.035-0.87-0.052c-1.508-0.215-2.557-1.613-2.34-3.122
	c0.212-1.488,1.584-2.52,3.061-2.35c0.239,0.021,3.521,0.183,7.787-4.083c5.333-5.333,10.646-5.367,12.947-4.544
	c1.435,0.512,2.183,2.091,1.67,3.526c-0.512,1.436-2.092,2.184-3.526,1.671c-0.054-0.013-3.11-0.831-7.188,3.249
	C318.938,388.863,314.381,389.474,312.491,389.474"/>
<path fill="#191818" d="M302.908,431.593l-17.995-2.437v-36.414l-4.439-4.331v-12.586h6.696l4.227-1.637
	c1.548-6.752,5.907-13.531,11.437-13.531c5.531,0,9.89,6.779,11.438,13.531l4.226,1.637h6.697v12.586l-4.439,4.331v36.412
	L302.908,431.593z M288.913,425.661l13.992,1.895l13.849-1.892v-34.607l4.439-4.331v-6.9h-3.445l-6.98-2.705l-0.202-1.1
	c-1.11-6.053-4.722-11.363-7.732-11.363c-3.009,0-6.622,5.311-7.731,11.363l-0.201,1.1l-6.982,2.705h-3.444v6.9l4.439,4.331V425.661
	z"/>
<path fill="#191818" d="M340.7,383.165l-11.151-1.549c-1.185-0.164-2.033-1.096-1.896-2.081l0.545-3.925
	c0.137-0.984,1.208-1.65,2.392-1.485l11.151,1.549c1.185,0.164,2.034,1.096,1.896,2.081l-0.545,3.925
	C342.955,382.664,341.884,383.33,340.7,383.165"/>
<polygon fill="#191818" points="283.26,378.187 293.082,376.165 312.857,376.165 318.632,378.042 323.192,377.825 323.192,387.569 
	318.754,391.899 287.445,391.899 282.475,387.569 "/>
<path fill="#FECF0A" d="M312.677,384.971c0,5.381-4.362,9.743-9.743,9.743c-5.382,0-9.744-4.362-9.744-9.743
	s4.362-9.743,9.744-9.743C308.314,375.228,312.677,379.59,312.677,384.971"/>
<path fill="#FFFFFF" d="M302.934,380.244c2.605,0,4.726,2.12,4.726,4.727c0,2.605-2.12,4.726-4.726,4.726
	c-2.606,0-4.727-2.12-4.727-4.726C298.207,382.364,300.327,380.244,302.934,380.244 M302.934,375.228
	c-5.381,0-9.743,4.362-9.743,9.743c0,5.382,4.362,9.743,9.743,9.743c5.381,0,9.742-4.361,9.742-9.743
	C312.676,379.589,308.314,375.228,302.934,375.228"/>
<path fill="#191818" d="M302.934,396.093c-6.133,0-11.123-4.989-11.123-11.123c0-6.133,4.99-11.123,11.123-11.123
	c6.133,0,11.123,4.99,11.123,11.123C314.057,391.104,309.066,396.093,302.934,396.093 M302.934,376.607
	c-4.612,0-8.363,3.751-8.363,8.363s3.751,8.364,8.363,8.364c4.611,0,8.363-3.752,8.363-8.364S307.545,376.607,302.934,376.607"/>
<path fill="#191818" d="M305.978,381.782l-6.029,6.416c0.795,0.782,1.885,1.265,3.089,1.265c2.433,0,4.404-1.971,4.404-4.403
	C307.441,383.758,306.875,382.588,305.978,381.782"/>
<path fill="#191818" d="M302.804,407.579c-3.588,0-6.496,2.908-6.496,6.496v29.317c0,3.588,2.908,6.496,6.496,6.496
	c3.587,0,6.496-2.908,6.496-6.496v-29.317C309.3,410.487,306.391,407.579,302.804,407.579"/>
<polygon fill="#FECF0A" points="271.799,334.968 260.059,337.677 249.223,334.968 249.223,328.646 260.059,331.355 271.799,328.646 
	"/>
<polygon fill="#FECF0A" points="271.799,343.998 260.059,346.707 249.223,343.998 249.223,337.676 260.059,340.386 271.799,337.676 
	"/>
<polygon fill="#FECF0A" points="356.163,334.968 344.423,337.677 333.587,334.968 333.587,328.646 344.423,331.355 356.163,328.646 
	"/>
<polygon fill="#FECF0A" points="356.163,343.998 344.423,346.707 333.587,343.998 333.587,337.676 344.423,340.386 356.163,337.676 
	"/>
</svg>
