<?xml version="1.0" encoding="utf-8"?>
<!-- Generator: Adobe Illustrator 16.0.0, SVG Export Plug-In . SVG Version: 6.00 Build 0)  -->
<!DOCTYPE svg PUBLIC "-//W3C//DTD SVG 1.1//EN" "http://www.w3.org/Graphics/SVG/1.1/DTD/svg11.dtd">
<svg version="1.1" id="Layer_1" xmlns="http://www.w3.org/2000/svg" xmlns:xlink="http://www.w3.org/1999/xlink" x="0px" y="0px"
	 width="612px" height="792px" viewBox="0 0 612 792" enable-background="new 0 0 612 792" xml:space="preserve">
<path fill="none" d="M346.63,60"/>
<path fill="none" d="M346.63,3305.597"/>
<path fill="#FECF0A" d="M370.752,387.303c-10.15-32.987-1.588-41.101,0.215-42.339H303.35h-68.482
	c1.803,1.238,10.365,9.352,0.217,42.339c-14.918,48.481,55.283,74.915,67.834,79.935c0.136-0.054,0.281-0.112,0.432-0.172
	C316.986,461.639,385.507,435.257,370.752,387.303"/>
<g opacity="0.6">
	<g>
		<defs>
			<rect id="SVGID_1_" x="302.85" y="344.96" width="69.471" height="122.101"/>
		</defs>
		<clipPath id="SVGID_2_">
			<use xlink:href="#SVGID_1_"  overflow="visible"/>
		</clipPath>
		<path clip-path="url(#SVGID_2_)" fill="#CDA72C" d="M370.25,387.303c-10.15-32.987-1.588-41.101,0.215-42.339h-67.617v122.102
			C316.484,461.639,385.005,435.257,370.25,387.303"/>
	</g>
</g>
<g opacity="0.4">
	<g>
		<defs>
			<rect id="SVGID_3_" x="233.01" y="299.19" width="139.811" height="168.05"/>
		</defs>
		<clipPath id="SVGID_4_">
			<use xlink:href="#SVGID_3_"  overflow="visible"/>
		</clipPath>
		<path clip-path="url(#SVGID_4_)" fill="#FFFFFF" d="M302.918,313.247c12.872,6.204,32.309,10.53,54.446,12.167v14.542
			c-1.519,2.447-2.944,5.632-3.908,9.729c-2.505,10.653-1.122,24.675,4.109,41.676c2.329,7.568,1.856,14.6-1.445,21.499
			c-3.05,6.373-8.519,12.725-16.251,18.875c-12.736,10.132-28.21,17.049-36.951,20.637c-8.742-3.588-24.216-10.505-36.953-20.637
			c-7.732-6.15-13.199-12.502-16.25-18.875c-3.301-6.898-3.774-13.931-1.445-21.499c5.23-17.001,6.613-31.023,4.109-41.676
			c-0.963-4.097-2.391-7.282-3.908-9.729v-14.542C270.608,323.777,290.045,319.451,302.918,313.247 M302.918,299.186
			c-1.727,0-3.453,0.347-4.796,1.037c-9.942,5.12-29.271,10.588-57.983,11.864c-3.017,0.134-5.465,2.57-5.465,5.589v27.161
			c0,0,11.262,7.192,0.409,42.466c-14.917,48.482,55.285,74.915,67.835,79.934c12.549-5.019,82.75-31.451,67.834-79.934
			c-10.854-35.274,0.409-42.466,0.409-42.466v-27.161c0-3.019-2.448-5.455-5.465-5.589c-28.713-1.276-48.042-6.744-57.983-11.864
			C306.37,299.532,304.645,299.186,302.918,299.186"/>
	</g>
</g>
<path fill="#191818" d="M371.162,317.676c0-3.02-2.449-5.455-5.466-5.589c-28.713-1.276-48.042-6.744-57.983-11.865
	c-2.686-1.382-6.905-1.382-9.59,0c-9.943,5.121-29.272,10.589-57.984,11.865c-3.016,0.134-5.465,2.569-5.465,5.589v27.161
	c0,0,0.069,0.041,0.194,0.127h136.099c0.125-0.086,0.195-0.127,0.195-0.127V317.676z"/>
<path fill="#191818" d="M302.918,307.552c0.526,0,0.893,0.091,1.006,0.13c13.129,6.748,34.478,11.32,58.871,12.638v21.295
	c-1.498,2.069-3.056,5.072-4.053,9.313c-2.281,9.702-0.93,22.77,4.014,38.836c5.107,16.6-1.273,31.719-19.506,46.221
	c-14.387,11.444-31.92,18.869-40.332,22.248c-8.412-3.379-25.947-10.804-40.334-22.248c-18.232-14.502-24.611-29.621-19.505-46.221
	c4.943-16.066,6.294-29.134,4.013-38.836c-0.996-4.241-2.555-7.243-4.053-9.313V320.32c24.393-1.318,45.743-5.89,58.872-12.638
	C302.023,307.643,302.391,307.552,302.918,307.552 M302.918,299.186c-1.727,0-3.453,0.346-4.796,1.037
	c-9.942,5.12-29.271,10.588-57.983,11.864c-3.017,0.134-5.465,2.57-5.465,5.589v27.161c0,0,11.264,7.192,0.409,42.466
	c-14.917,48.482,55.285,74.915,67.835,79.934c12.549-5.019,82.75-31.451,67.834-79.934c-10.854-35.274,0.409-42.466,0.409-42.466
	v-27.161c0-3.019-2.448-5.455-5.465-5.589c-28.713-1.276-48.042-6.744-57.983-11.864
	C306.37,299.531,304.645,299.186,302.918,299.186"/>
<path fill="#FFFFFF" d="M280.381,336.132v-3.251c7.348-7.135,8.883-8.731,8.883-11.019c0-1.535-1.176-2.529-2.681-2.529
	c-1.776,0-3.19,0.813-4.274,2.258l-2.408-2.529c1.625-2.168,4.003-3.311,6.744-3.311c3.883,0,6.713,2.348,6.713,6.081
	c0,3.041-2.047,5.63-7.016,10.748h7.105v3.552H280.381z"/>
<path fill="#FFFFFF" d="M294.951,326.106c0-5.179,2.137-10.355,7.104-10.355c4.997,0,7.104,5.177,7.104,10.355
	c0,5.147-2.076,10.387-7.104,10.387C297.088,336.493,294.951,331.254,294.951,326.106 M305.066,326.106
	c0-3.884-0.662-6.773-3.011-6.773c-2.317,0-2.979,2.89-2.979,6.773c0,3.854,0.662,6.805,2.979,6.805
	C304.404,332.911,305.066,329.961,305.066,326.106"/>
<path fill="#FFFFFF" d="M310.363,326.106c0-5.179,2.137-10.355,7.104-10.355c4.998,0,7.105,5.177,7.105,10.355
	c0,5.147-2.076,10.387-7.105,10.387C312.5,336.493,310.363,331.254,310.363,326.106 M320.479,326.106
	c0-3.884-0.662-6.773-3.012-6.773c-2.318,0-2.98,2.89-2.98,6.773c0,3.854,0.662,6.805,2.98,6.805
	C319.816,332.911,320.479,329.961,320.479,326.106"/>
<path fill="#191818" d="M337.535,403.811c-2.641,0-6.695,0.223-6.695,2.862v15.822c0,2.64,4.055,2.863,6.695,2.863
	c2.639,0,6.694-0.224,6.694-2.863v-15.822C344.229,404.033,340.174,403.811,337.535,403.811"/>
<path fill="#191818" d="M267.799,403.811c-2.639,0-6.695,0.223-6.695,2.862v15.822c0,2.64,4.057,2.863,6.695,2.863
	c2.64,0,6.695-0.224,6.695-2.863v-15.822C274.494,404.033,270.438,403.811,267.799,403.811"/>
<path fill="#FECF0A" d="M262.02,380.321l-4.879,9.532l4.961,20.693c0.129,1.675,1.525,2.994,3.232,2.994
	c6.493,0,12.064,2.508,18.557,2.508c1.629,0,2.972-1.198,3.207-2.761h31.095c0.235,1.563,1.579,2.761,3.206,2.761
	c6.492,0,12.064-2.508,18.558-2.508c1.628,0,2.972-1.198,3.206-2.762h0.014l5.018-20.926l-4.88-9.532H262.02z"/>
<path fill="#FFFFFF" d="M343.176,380.053h-9.592l-3.902-10.064c-0.381-2.744-2.936-4.969-5.707-4.969h-42.617
	c-2.771,0-5.325,2.226-5.705,4.969l-3.903,10.064h-9.592l-0.138,0.269h81.295L343.176,380.053z"/>
<rect x="291.121" y="381.324" fill="#FFFFFF" width="21.574" height="33.363"/>
<path fill="#FFFFFF" d="M279.634,397.196c0,3.937-3.19,7.127-7.126,7.127c-3.938,0-7.127-3.19-7.127-7.127
	c0-3.936,3.189-7.127,7.127-7.127C276.443,390.069,279.634,393.261,279.634,397.196"/>
<path fill="#191818" d="M272.508,405.703c-4.691,0-8.508-3.815-8.508-8.507c0-4.689,3.816-8.507,8.508-8.507
	c4.689,0,8.506,3.817,8.506,8.507C281.014,401.888,277.197,405.703,272.508,405.703 M272.508,391.449
	c-3.17,0-5.748,2.578-5.748,5.747s2.578,5.747,5.748,5.747c3.168,0,5.746-2.578,5.746-5.747S275.676,391.449,272.508,391.449"/>
<path fill="#191818" d="M274.734,394.864l-4.41,4.692c0.582,0.572,1.379,0.926,2.26,0.926c1.777,0,3.22-1.442,3.22-3.221
	C275.804,396.309,275.391,395.454,274.734,394.864"/>
<path fill="#FFFFFF" d="M339.082,397.196c0,3.937-3.191,7.127-7.127,7.127c-3.937,0-7.127-3.19-7.127-7.127
	c0-3.936,3.19-7.127,7.127-7.127C335.891,390.069,339.082,393.261,339.082,397.196"/>
<path fill="#191818" d="M331.955,405.703c-4.691,0-8.507-3.815-8.507-8.507c0-4.689,3.815-8.507,8.507-8.507
	c4.689,0,8.506,3.817,8.506,8.507C340.461,401.888,336.645,405.703,331.955,405.703 M331.955,391.449
	c-3.17,0-5.746,2.578-5.746,5.747s2.576,5.747,5.746,5.747c3.168,0,5.746-2.578,5.746-5.747S335.123,391.449,331.955,391.449"/>
<path fill="#191818" d="M334.182,394.864l-4.409,4.692c0.581,0.572,1.378,0.926,2.259,0.926c1.778,0,3.221-1.442,3.221-3.221
	C335.252,396.309,334.838,395.454,334.182,394.864"/>
<path fill="#FFFFFF" d="M317.354,399.025c0-2.312-1.875-4.187-4.188-4.187H290.93c-2.313,0-4.188,1.875-4.188,4.187
	c0,2.313,1.875,4.188,4.188,4.188h22.236C315.479,403.213,317.354,401.339,317.354,399.025"/>
<path fill="#191818" d="M313.165,404.593H290.93c-3.068,0-5.566-2.498-5.566-5.567c0-3.069,2.498-5.566,5.566-5.566h22.235
	c3.069,0,5.567,2.498,5.567,5.566C318.732,402.095,316.234,404.593,313.165,404.593 M290.93,396.219
	c-1.548,0-2.808,1.259-2.808,2.807c0,1.549,1.26,2.807,2.808,2.807h22.235c1.548,0,2.808-1.258,2.808-2.807
	c0-1.548-1.26-2.807-2.808-2.807H290.93z"/>
<rect x="269.298" y="378.071" fill="#191818" width="65.472" height="4"/>
<path fill="#191718" d="M338.525,378.577c-1.502,1.502-3.938,1.502-5.439,0c-1.502-1.502-1.502-3.938,0-5.44
	s5.711-3.276,7.214-1.773C341.802,372.866,340.027,377.075,338.525,378.577"/>
<path fill="#191718" d="M266.658,378.577c1.502,1.502,3.938,1.502,5.439,0c1.502-1.502,1.502-3.938,0-5.44s-5.711-3.276-7.213-1.773
	C263.383,372.866,265.156,377.075,266.658,378.577"/>
<rect x="306.298" y="363.5" transform="matrix(0.8538 0.5207 -0.5207 0.8538 238.7763 -105.7724)" fill="#191818" width="2.759" height="17.338"/>
<rect x="314.075" y="363.501" transform="matrix(0.8538 0.5207 -0.5207 0.8538 239.9136 -109.8214)" fill="#191818" width="2.759" height="17.337"/>
<path fill="#191818" d="M321.398,418.05c-1.956,0-3.713-1.11-4.611-2.762h-28.283c-0.898,1.651-2.656,2.762-4.613,2.762
	c-3.452,0-6.62-0.659-9.686-1.296c-2.998-0.625-5.83-1.213-8.871-1.213c-2.662,0-4.918-2.035-5.211-4.664l-5.101-21.275
	l5.911-11.548h9.445l3.33-8.588c0.633-3.634,3.942-6.446,7.648-6.446h42.617c3.707,0,7.017,2.812,7.648,6.446l3.33,8.588h9.445
	l5.912,11.548l-5.557,23.179h-0.187c-0.897,1.651-2.655,2.761-4.612,2.761c-3.04,0-5.873,0.588-8.871,1.213
	C328.021,417.391,324.852,418.05,321.398,418.05 M285.375,411.288h34.539l0.256,1.702c0.092,0.604,0.619,1.06,1.229,1.06
	c3.04,0,5.873-0.589,8.872-1.214c3.063-0.637,6.233-1.295,9.685-1.295c0.609,0,1.139-0.455,1.229-1.058l0.255-1.703h0.161
	l4.476-18.674l-4.122-8.053h-9.738l-4.483-11.559l-0.032-0.23c-0.243-1.759-1.949-3.245-3.725-3.245h-42.617
	c-1.775,0-3.48,1.486-3.725,3.245l-0.031,0.23l-4.484,11.559h-9.738l-4.121,8.053l4.838,20.287c0.05,0.644,0.593,1.147,1.238,1.147
	c3.452,0,6.621,0.658,9.687,1.295c2.997,0.625,5.831,1.214,8.87,1.214c0.609,0,1.138-0.455,1.229-1.059L285.375,411.288z"/>
<polygon fill="#FFFFFF" points="273.863,323.677 266.405,322.546 263.084,315.448 259.764,322.546 252.305,323.677 257.695,329.211 
	256.348,337.006 263.084,333.325 269.82,337.006 268.473,329.211 "/>
<polygon fill="#FFFFFF" points="353.529,323.677 346.072,322.546 342.75,315.448 339.431,322.546 331.972,323.677 337.361,329.211 
	336.014,337.006 342.75,333.325 349.487,337.006 348.141,329.211 "/>
<path fill="#1A1A19" d="M302.891,471.57c-3.51-1.403-11.533-5.484-20.939-10.254v14.698c11.414,7.014,20.566,11.113,20.566,11.113
	l0.399-0.001l0.399,0.001c0,0,9.152-4.1,20.567-11.113v-14.726c-9.063,4.597-16.849,8.632-20.562,10.109
	C303.173,471.458,303.027,471.517,302.891,471.57"/>
<path fill="#1A1A19" d="M249.621,450.647c8.119,9.569,19.146,17.858,29.014,24.17v-15.224c-9.689-5.161-20.402-12.017-29.014-20.575
	V450.647z"/>
<path fill="#FFFFFF" d="M327.2,474.817c9.868-6.312,20.895-14.601,29.014-24.17v-11.686c-8.606,8.569-19.317,15.433-29.014,20.602
	V474.817z"/>
</svg>
