<?xml version="1.0" encoding="utf-8"?>
<!-- Generator: Adobe Illustrator 16.0.0, SVG Export Plug-In . SVG Version: 6.00 Build 0)  -->
<!DOCTYPE svg PUBLIC "-//W3C//DTD SVG 1.1//EN" "http://www.w3.org/Graphics/SVG/1.1/DTD/svg11.dtd">
<svg version="1.1" id="Layer_1" xmlns="http://www.w3.org/2000/svg" xmlns:xlink="http://www.w3.org/1999/xlink" x="0px" y="0px"
	 width="240px" height="200px" viewBox="0 0 240 200" enable-background="new 0 0 240 200" xml:space="preserve">
<line fill="none" x1="33.63" y1="2646.837" x2="33.63" y2="-598.76"/>
<path fill="#FDD00F" d="M188.266,92.303c-10.149-32.986-1.586-41.101,0.215-42.339h-67.617H52.383
	c1.804,1.238,10.366,9.353,0.216,42.339c-14.917,48.481,55.285,74.915,67.834,79.936c0.137-0.055,0.282-0.112,0.432-0.172
	C134.501,166.639,203.021,140.257,188.266,92.303"/>
<g opacity="0.6">
	<g>
		<g>
			<defs>
				<rect id="SVGID_1_" x="120.609" y="49.21" width="69.471" height="122.101"/>
			</defs>
			<clipPath id="SVGID_2_">
				<use xlink:href="#SVGID_1_"  overflow="visible"/>
			</clipPath>
			<path clip-path="url(#SVGID_2_)" fill="#CDA72C" d="M188.016,91.551c-10.149-32.988-1.588-41.101,0.215-42.339h-67.617v122.101
				C134.25,165.887,202.77,139.505,188.016,91.551"/>
		</g>
	</g>
</g>
<g opacity="0.4">
	<g>
		<g>
			<defs>
				<rect id="SVGID_3_" x="50.529" y="4.19" width="139.811" height="168.05"/>
			</defs>
			<clipPath id="SVGID_4_">
				<use xlink:href="#SVGID_3_"  overflow="visible"/>
			</clipPath>
			<path clip-path="url(#SVGID_4_)" fill="#FFFFFF" d="M120.432,18.247c12.873,6.204,32.309,10.53,54.447,12.167v14.542
				c-1.518,2.447-2.945,5.632-3.908,9.729c-2.505,10.653-1.121,24.676,4.108,41.676c2.329,7.568,1.856,14.602-1.444,21.5
				c-3.051,6.373-8.518,12.725-16.251,18.875c-12.737,10.132-28.211,17.049-36.952,20.637c-8.742-3.588-24.215-10.505-36.951-20.637
				c-7.733-6.15-13.201-12.502-16.252-18.875c-3.301-6.898-3.773-13.932-1.445-21.5c5.231-17,6.615-31.021,4.109-41.676
				c-0.963-4.097-2.39-7.281-3.908-9.729V30.414C88.123,28.777,107.561,24.451,120.432,18.247 M120.432,4.186
				c-1.727,0-3.453,0.348-4.795,1.037c-9.941,5.12-29.271,10.588-57.984,11.864c-3.016,0.134-5.465,2.57-5.465,5.589v27.161
				c0,0,11.264,7.192,0.41,42.466c-14.917,48.482,55.285,74.915,67.834,79.935c12.548-5.02,82.751-31.451,67.833-79.935
				c-10.854-35.273,0.41-42.466,0.41-42.466V22.676c0-3.019-2.449-5.455-5.465-5.589c-28.713-1.276-48.042-6.744-57.984-11.864
				C123.885,4.532,122.158,4.186,120.432,4.186"/>
		</g>
	</g>
</g>
<path fill="#191818" d="M188.676,22.676c0-3.02-2.449-5.455-5.465-5.589c-28.713-1.276-48.042-6.744-57.984-11.865
	c-2.685-1.382-6.903-1.382-9.589,0c-9.941,5.121-29.271,10.589-57.984,11.865c-3.016,0.134-5.465,2.569-5.465,5.589v27.161
	c0,0,0.069,0.041,0.194,0.127H188.48c0.125-0.086,0.194-0.127,0.194-0.127L188.676,22.676L188.676,22.676z"/>
<path fill="#FFFFFF" d="M105.361,41.132v-3.251c7.346-7.135,8.881-8.73,8.881-11.019c0-1.535-1.175-2.529-2.68-2.529
	c-1.775,0-3.191,0.813-4.275,2.258l-2.408-2.529c1.627-2.168,4.004-3.311,6.744-3.311c3.884,0,6.713,2.348,6.713,6.081
	c0,3.041-2.047,5.63-7.014,10.748h7.104v3.552H105.361L105.361,41.132z"/>
<polygon fill="#FFFFFF" points="130.828,41.132 126.191,33.273 124.775,35.503 124.775,41.132 120.742,41.132 120.742,21.051 
	124.775,21.051 124.775,30.174 130.438,21.051 135.133,21.051 128.721,30.505 135.586,41.132 "/>
<g>
	<g>
		<defs>
			<path id="SVGID_5_" d="M115.637,5.222c-9.941,5.122-29.271,10.59-57.982,11.866c-3.018,0.132-5.467,2.568-5.467,5.588v27.161
				c0,0,11.264,7.192,0.41,42.467c-14.918,48.48,55.284,74.914,67.834,79.935c12.548-5.021,82.751-31.453,67.833-79.935
				c-10.854-35.273,0.411-42.467,0.411-42.467V22.676c0-3.02-2.45-5.456-5.467-5.588c-28.712-1.276-48.041-6.744-57.981-11.866
				c-1.344-0.689-3.068-1.036-4.796-1.036C118.706,4.186,116.979,4.531,115.637,5.222"/>
		</defs>
		<clipPath id="SVGID_6_">
			<use xlink:href="#SVGID_5_"  overflow="visible"/>
		</clipPath>
		<polygon clip-path="url(#SVGID_6_)" fill="#FFFFFF" points="199.379,85.403 199.379,91.291 120.889,110.912 120.889,93.252 
			194.938,85.848 		"/>
	</g>
	<g>
		<defs>
			<path id="SVGID_7_" d="M115.637,5.222c-9.941,5.122-29.271,10.59-57.982,11.866c-3.018,0.132-5.467,2.568-5.467,5.588v27.161
				c0,0,11.264,7.192,0.41,42.467c-14.918,48.48,55.284,74.914,67.834,79.935c12.548-5.021,82.751-31.453,67.833-79.935
				c-10.854-35.273,0.411-42.467,0.411-42.467V22.676c0-3.02-2.45-5.456-5.467-5.588c-28.712-1.276-48.041-6.744-57.981-11.866
				c-1.344-0.689-3.068-1.036-4.796-1.036C118.706,4.186,116.979,4.531,115.637,5.222"/>
		</defs>
		<clipPath id="SVGID_8_">
			<use xlink:href="#SVGID_7_"  overflow="visible"/>
		</clipPath>
		<polygon clip-path="url(#SVGID_8_)" fill="#FFFFFF" points="41.963,85.403 41.963,91.291 120.452,110.912 120.452,93.252 
			46.402,85.848 		"/>
	</g>
	<g>
		<defs>
			<path id="SVGID_9_" d="M115.637,5.222c-9.941,5.122-29.271,10.59-57.982,11.866c-3.018,0.132-5.467,2.568-5.467,5.588v27.161
				c0,0,11.264,7.192,0.41,42.467c-14.918,48.48,55.284,74.914,67.834,79.935c12.548-5.021,82.751-31.453,67.833-79.935
				c-10.854-35.273,0.411-42.467,0.411-42.467V22.676c0-3.02-2.45-5.456-5.467-5.588c-28.712-1.276-48.041-6.744-57.981-11.866
				c-1.344-0.689-3.068-1.036-4.796-1.036C118.706,4.186,116.979,4.531,115.637,5.222"/>
		</defs>
		<clipPath id="SVGID_10_">
			<use xlink:href="#SVGID_9_"  overflow="visible"/>
		</clipPath>
		<polygon clip-path="url(#SVGID_10_)" fill="#FDD00F" points="101.744,97.988 42.83,88.306 42.83,90.932 101.908,106.357 		"/>
	</g>
	<g>
		<defs>
			<path id="SVGID_11_" d="M115.637,5.222c-9.941,5.122-29.271,10.59-57.982,11.866c-3.018,0.132-5.467,2.568-5.467,5.588v27.161
				c0,0,11.264,7.192,0.41,42.467c-14.918,48.48,55.284,74.914,67.834,79.935c12.548-5.021,82.751-31.453,67.833-79.935
				c-10.854-35.273,0.411-42.467,0.411-42.467V22.676c0-3.02-2.45-5.456-5.467-5.588c-28.712-1.276-48.041-6.744-57.981-11.866
				c-1.344-0.689-3.068-1.036-4.796-1.036C118.706,4.186,116.979,4.531,115.637,5.222"/>
		</defs>
		<clipPath id="SVGID_12_">
			<use xlink:href="#SVGID_11_"  overflow="visible"/>
		</clipPath>
		<polygon clip-path="url(#SVGID_12_)" fill="#FDD00F" points="139.488,97.988 198.402,88.306 198.402,90.932 139.324,106.357 		"/>
	</g>
	<g>
		<defs>
			<path id="SVGID_13_" d="M115.637,5.222c-9.941,5.122-29.271,10.59-57.982,11.866c-3.018,0.132-5.467,2.568-5.467,5.588v27.161
				c0,0,11.264,7.192,0.41,42.467c-14.918,48.48,55.284,74.914,67.834,79.935c12.548-5.021,82.751-31.453,67.833-79.935
				c-10.854-35.273,0.411-42.467,0.411-42.467V22.676c0-3.02-2.45-5.456-5.467-5.588c-28.712-1.276-48.041-6.744-57.981-11.866
				c-1.344-0.689-3.068-1.036-4.796-1.036C118.706,4.186,116.979,4.531,115.637,5.222"/>
		</defs>
		<clipPath id="SVGID_14_">
			<use xlink:href="#SVGID_13_"  overflow="visible"/>
		</clipPath>
		<polygon clip-path="url(#SVGID_14_)" fill="#FDD00F" points="126.592,85.403 114.314,85.403 118.49,61.486 122.414,61.486 		"/>
	</g>
	<g>
		<defs>
			<path id="SVGID_15_" d="M115.637,5.222c-9.941,5.122-29.271,10.59-57.982,11.866c-3.018,0.132-5.467,2.568-5.467,5.588v27.161
				c0,0,11.264,7.192,0.41,42.467c-14.918,48.48,55.284,74.914,67.834,79.935c12.548-5.021,82.751-31.453,67.833-79.935
				c-10.854-35.273,0.411-42.467,0.411-42.467V22.676c0-3.02-2.45-5.456-5.467-5.588c-28.712-1.276-48.041-6.744-57.981-11.866
				c-1.344-0.689-3.068-1.036-4.796-1.036C118.706,4.186,116.979,4.531,115.637,5.222"/>
		</defs>
		<clipPath id="SVGID_16_">
			<use xlink:href="#SVGID_15_"  overflow="visible"/>
		</clipPath>
		<path clip-path="url(#SVGID_16_)" fill="#191818" d="M128.382,86.908h-15.858l4.701-26.927h6.455L128.382,86.908z M116.105,83.898
			h8.694l-3.648-20.907h-1.396L116.105,83.898z"/>
	</g>
	<g>
		<defs>
			<path id="SVGID_17_" d="M115.637,5.222c-9.941,5.122-29.271,10.59-57.982,11.866c-3.018,0.132-5.467,2.568-5.467,5.588v27.161
				c0,0,11.264,7.192,0.41,42.467c-14.918,48.48,55.284,74.914,67.834,79.935c12.548-5.021,82.751-31.453,67.833-79.935
				c-10.854-35.273,0.411-42.467,0.411-42.467V22.676c0-3.02-2.45-5.456-5.467-5.588c-28.712-1.276-48.041-6.744-57.981-11.866
				c-1.344-0.689-3.068-1.036-4.796-1.036C118.706,4.186,116.979,4.531,115.637,5.222"/>
		</defs>
		<clipPath id="SVGID_18_">
			<use xlink:href="#SVGID_17_"  overflow="visible"/>
		</clipPath>
		<path clip-path="url(#SVGID_18_)" fill="#191818" d="M118.881,113.483V91.436l82.504-8.251v9.673L118.881,113.483z
			 M122.895,95.068v13.272l74.478-18.619V87.62L122.895,95.068z"/>
	</g>
	<g>
		<defs>
			<path id="SVGID_19_" d="M115.637,5.222c-9.941,5.122-29.271,10.59-57.982,11.866c-3.018,0.132-5.467,2.568-5.467,5.588v27.161
				c0,0,11.264,7.192,0.41,42.467c-14.918,48.48,55.284,74.914,67.834,79.935c12.548-5.021,82.751-31.453,67.833-79.935
				c-10.854-35.273,0.411-42.467,0.411-42.467V22.676c0-3.02-2.45-5.456-5.467-5.588c-28.712-1.276-48.041-6.744-57.981-11.866
				c-1.344-0.689-3.068-1.036-4.796-1.036C118.706,4.186,116.979,4.531,115.637,5.222"/>
		</defs>
		<clipPath id="SVGID_20_">
			<use xlink:href="#SVGID_19_"  overflow="visible"/>
		</clipPath>
		<path clip-path="url(#SVGID_20_)" fill="#FFFFFF" d="M159.455,106.814c0,3.251,2.637,5.887,5.887,5.887
			c3.252,0,5.889-2.636,5.889-5.887c0-3.253-2.637-5.889-5.889-5.889C162.092,100.927,159.455,103.563,159.455,106.814"/>
	</g>
	<g>
		<defs>
			<path id="SVGID_21_" d="M115.637,5.222c-9.941,5.122-29.271,10.59-57.982,11.866c-3.018,0.132-5.467,2.568-5.467,5.588v27.161
				c0,0,11.264,7.192,0.41,42.467c-14.918,48.48,55.284,74.914,67.834,79.935c12.548-5.021,82.751-31.453,67.833-79.935
				c-10.854-35.273,0.411-42.467,0.411-42.467V22.676c0-3.02-2.45-5.456-5.467-5.588c-28.712-1.276-48.041-6.744-57.981-11.866
				c-1.344-0.689-3.068-1.036-4.796-1.036C118.706,4.186,116.979,4.531,115.637,5.222"/>
		</defs>
		<clipPath id="SVGID_22_">
			<use xlink:href="#SVGID_21_"  overflow="visible"/>
		</clipPath>
		<path clip-path="url(#SVGID_22_)" fill="#191818" d="M165.342,114.205c-4.076,0-7.392-3.315-7.392-7.391
			c0-4.076,3.315-7.394,7.392-7.394c4.077,0,7.393,3.316,7.393,7.394C172.734,110.89,169.418,114.205,165.342,114.205
			 M165.342,102.432c-2.416,0-4.382,1.968-4.382,4.384s1.966,4.382,4.382,4.382s4.383-1.966,4.383-4.382
			S167.758,102.432,165.342,102.432"/>
	</g>
	<g>
		<defs>
			<path id="SVGID_23_" d="M115.637,5.222c-9.941,5.122-29.271,10.59-57.982,11.866c-3.018,0.132-5.467,2.568-5.467,5.588v27.161
				c0,0,11.264,7.192,0.41,42.467c-14.918,48.48,55.284,74.914,67.834,79.935c12.548-5.021,82.751-31.453,67.833-79.935
				c-10.854-35.273,0.411-42.467,0.411-42.467V22.676c0-3.02-2.45-5.456-5.467-5.588c-28.712-1.276-48.041-6.744-57.981-11.866
				c-1.344-0.689-3.068-1.036-4.796-1.036C118.706,4.186,116.979,4.531,115.637,5.222"/>
		</defs>
		<clipPath id="SVGID_24_">
			<use xlink:href="#SVGID_23_"  overflow="visible"/>
		</clipPath>
		<path clip-path="url(#SVGID_24_)" fill="#191818" d="M122.459,113.482L39.955,92.857v-9.673l82.504,8.251V113.482z M43.969,89.724
			l74.477,18.619V95.069l-74.477-7.448V89.724z"/>
	</g>
	<g>
		<defs>
			<path id="SVGID_25_" d="M115.637,5.222c-9.941,5.122-29.271,10.59-57.982,11.866c-3.018,0.132-5.467,2.568-5.467,5.588v27.161
				c0,0,11.264,7.192,0.41,42.467c-14.918,48.48,55.284,74.914,67.834,79.935c12.548-5.021,82.751-31.453,67.833-79.935
				c-10.854-35.273,0.411-42.467,0.411-42.467V22.676c0-3.02-2.45-5.456-5.467-5.588c-28.712-1.276-48.041-6.744-57.981-11.866
				c-1.344-0.689-3.068-1.036-4.796-1.036C118.706,4.186,116.979,4.531,115.637,5.222"/>
		</defs>
		<clipPath id="SVGID_26_">
			<use xlink:href="#SVGID_25_"  overflow="visible"/>
		</clipPath>
		<path clip-path="url(#SVGID_26_)" fill="#191818" d="M118.721,88.858v-9.083l24.886-2.489v5.35L118.721,88.858z M122.734,83.407
			v0.311l2.065-0.517L122.734,83.407z"/>
	</g>
	<g>
		<defs>
			<path id="SVGID_27_" d="M115.637,5.222c-9.941,5.122-29.271,10.59-57.982,11.866c-3.018,0.132-5.467,2.568-5.467,5.588v27.161
				c0,0,11.264,7.192,0.41,42.467c-14.918,48.48,55.284,74.914,67.834,79.935c12.548-5.021,82.751-31.453,67.833-79.935
				c-10.854-35.273,0.411-42.467,0.411-42.467V22.676c0-3.02-2.45-5.456-5.467-5.588c-28.712-1.276-48.041-6.744-57.981-11.866
				c-1.344-0.689-3.068-1.036-4.796-1.036C118.706,4.186,116.979,4.531,115.637,5.222"/>
		</defs>
		<clipPath id="SVGID_28_">
			<use xlink:href="#SVGID_27_"  overflow="visible"/>
		</clipPath>
		<path clip-path="url(#SVGID_28_)" fill="#191818" d="M122.618,88.858l-24.886-6.223v-5.351l24.886,2.49V88.858z M116.539,83.201
			l2.065,0.517v-0.31L116.539,83.201z"/>
	</g>
	<g>
		<defs>
			<path id="SVGID_29_" d="M115.637,5.222c-9.941,5.122-29.271,10.59-57.982,11.866c-3.018,0.132-5.467,2.568-5.467,5.588v27.161
				c0,0,11.264,7.192,0.41,42.467c-14.918,48.48,55.284,74.914,67.834,79.935c12.548-5.021,82.751-31.453,67.833-79.935
				c-10.854-35.273,0.411-42.467,0.411-42.467V22.676c0-3.02-2.45-5.456-5.467-5.588c-28.712-1.276-48.041-6.744-57.981-11.866
				c-1.344-0.689-3.068-1.036-4.796-1.036C118.706,4.186,116.979,4.531,115.637,5.222"/>
		</defs>
		<clipPath id="SVGID_30_">
			<use xlink:href="#SVGID_29_"  overflow="visible"/>
		</clipPath>
		<path clip-path="url(#SVGID_30_)" fill="#FDD00F" d="M142.037,101.102c0,11.922-9.664,21.585-21.584,21.585
			c-11.922,0-21.586-9.663-21.586-21.585c0-11.921,9.664-21.585,21.586-21.585C132.373,79.517,142.037,89.181,142.037,101.102"/>
	</g>
	<g>
		<defs>
			<path id="SVGID_31_" d="M115.637,5.222c-9.941,5.122-29.271,10.59-57.982,11.866c-3.018,0.132-5.467,2.568-5.467,5.588v27.161
				c0,0,11.264,7.192,0.41,42.467c-14.918,48.48,55.284,74.914,67.834,79.935c12.548-5.021,82.751-31.453,67.833-79.935
				c-10.854-35.273,0.411-42.467,0.411-42.467V22.676c0-3.02-2.45-5.456-5.467-5.588c-28.712-1.276-48.041-6.744-57.981-11.866
				c-1.344-0.689-3.068-1.036-4.796-1.036C118.706,4.186,116.979,4.531,115.637,5.222"/>
		</defs>
		<clipPath id="SVGID_32_">
			<use xlink:href="#SVGID_31_"  overflow="visible"/>
		</clipPath>
		<path clip-path="url(#SVGID_32_)" fill="#FFFFFF" d="M120.453,79.517c-11.922,0-21.586,9.664-21.586,21.585
			c0,11.922,9.664,21.584,21.586,21.584c0.026,0,0.053-0.002,0.081-0.002V79.519C120.506,79.519,120.479,79.517,120.453,79.517"/>
	</g>
	<g>
		<defs>
			<path id="SVGID_33_" d="M115.637,5.222c-9.941,5.122-29.271,10.59-57.982,11.866c-3.018,0.132-5.467,2.568-5.467,5.588v27.161
				c0,0,11.264,7.192,0.41,42.467c-14.918,48.48,55.284,74.914,67.834,79.935c12.548-5.021,82.751-31.453,67.833-79.935
				c-10.854-35.273,0.411-42.467,0.411-42.467V22.676c0-3.02-2.45-5.456-5.467-5.588c-28.712-1.276-48.041-6.744-57.981-11.866
				c-1.344-0.689-3.068-1.036-4.796-1.036C118.706,4.186,116.979,4.531,115.637,5.222"/>
		</defs>
		<clipPath id="SVGID_34_">
			<use xlink:href="#SVGID_33_"  overflow="visible"/>
		</clipPath>
		<path clip-path="url(#SVGID_34_)" fill="#191818" d="M120.453,124.692c-13.01,0-23.593-10.583-23.593-23.592
			c0-13.008,10.583-23.592,23.593-23.592c13.008,0,23.59,10.584,23.59,23.592C144.043,114.109,133.461,124.692,120.453,124.692
			 M120.453,81.523c-10.797,0-19.578,8.782-19.578,19.577c0,10.797,8.781,19.578,19.578,19.578c10.795,0,19.576-8.781,19.576-19.578
			C140.029,90.307,131.248,81.523,120.453,81.523"/>
	</g>
	<g>
		<defs>
			<path id="SVGID_35_" d="M115.637,5.222c-9.941,5.122-29.271,10.59-57.982,11.866c-3.018,0.132-5.467,2.568-5.467,5.588v27.161
				c0,0,11.264,7.192,0.41,42.467c-14.918,48.48,55.284,74.914,67.834,79.935c12.548-5.021,82.751-31.453,67.833-79.935
				c-10.854-35.273,0.411-42.467,0.411-42.467V22.676c0-3.02-2.45-5.456-5.467-5.588c-28.712-1.276-48.041-6.744-57.981-11.866
				c-1.344-0.689-3.068-1.036-4.796-1.036C118.706,4.186,116.979,4.531,115.637,5.222"/>
		</defs>
		<clipPath id="SVGID_36_">
			<use xlink:href="#SVGID_35_"  overflow="visible"/>
		</clipPath>
		<path clip-path="url(#SVGID_36_)" fill="#FFFFFF" d="M81.885,107.817c0,3.251-2.636,5.888-5.887,5.888s-5.887-2.637-5.887-5.888
			s2.636-5.888,5.887-5.888S81.885,104.566,81.885,107.817"/>
	</g>
	<g>
		<defs>
			<path id="SVGID_37_" d="M115.637,5.222c-9.941,5.122-29.271,10.59-57.982,11.866c-3.018,0.132-5.467,2.568-5.467,5.588v27.161
				c0,0,11.264,7.192,0.41,42.467c-14.918,48.48,55.284,74.914,67.834,79.935c12.548-5.021,82.751-31.453,67.833-79.935
				c-10.854-35.273,0.411-42.467,0.411-42.467V22.676c0-3.02-2.45-5.456-5.467-5.588c-28.712-1.276-48.041-6.744-57.981-11.866
				c-1.344-0.689-3.068-1.036-4.796-1.036C118.706,4.186,116.979,4.531,115.637,5.222"/>
		</defs>
		<clipPath id="SVGID_38_">
			<use xlink:href="#SVGID_37_"  overflow="visible"/>
		</clipPath>
		<path clip-path="url(#SVGID_38_)" fill="#191818" d="M75.998,114.205c-4.076,0-7.392-3.315-7.392-7.391
			c0-4.076,3.315-7.394,7.392-7.394s7.393,3.316,7.393,7.394C83.391,110.89,80.074,114.205,75.998,114.205 M75.998,102.432
			c-2.416,0-4.382,1.968-4.382,4.384s1.966,4.382,4.382,4.382s4.383-1.966,4.383-4.382S78.414,102.432,75.998,102.432"/>
	</g>
	<g>
		<defs>
			<path id="SVGID_39_" d="M115.637,5.222c-9.941,5.122-29.271,10.59-57.982,11.866c-3.018,0.132-5.467,2.568-5.467,5.588v27.161
				c0,0,11.264,7.192,0.41,42.467c-14.918,48.48,55.284,74.914,67.834,79.935c12.548-5.021,82.751-31.453,67.833-79.935
				c-10.854-35.273,0.411-42.467,0.411-42.467V22.676c0-3.02-2.45-5.456-5.467-5.588c-28.712-1.276-48.041-6.744-57.981-11.866
				c-1.344-0.689-3.068-1.036-4.796-1.036C118.706,4.186,116.979,4.531,115.637,5.222"/>
		</defs>
		<clipPath id="SVGID_40_">
			<use xlink:href="#SVGID_39_"  overflow="visible"/>
		</clipPath>
		<polygon clip-path="url(#SVGID_40_)" fill="#191818" points="105.487,96.576 109.443,92.62 117.355,94.598 117.355,100.531 		"/>
	</g>
	<g>
		<defs>
			<path id="SVGID_41_" d="M115.637,5.222c-9.941,5.122-29.271,10.59-57.982,11.866c-3.018,0.132-5.467,2.568-5.467,5.588v27.161
				c0,0,11.264,7.192,0.41,42.467c-14.918,48.48,55.284,74.914,67.834,79.935c12.548-5.021,82.751-31.453,67.833-79.935
				c-10.854-35.273,0.411-42.467,0.411-42.467V22.676c0-3.02-2.45-5.456-5.467-5.588c-28.712-1.276-48.041-6.744-57.981-11.866
				c-1.344-0.689-3.068-1.036-4.796-1.036C118.706,4.186,116.979,4.531,115.637,5.222"/>
		</defs>
		<clipPath id="SVGID_42_">
			<use xlink:href="#SVGID_41_"  overflow="visible"/>
		</clipPath>
		<polygon clip-path="url(#SVGID_42_)" fill="#191818" points="135.966,96.576 132.01,92.62 124.098,94.598 124.098,100.531 		"/>
	</g>
	<g>
		<defs>
			<path id="SVGID_43_" d="M115.637,5.222c-9.941,5.122-29.271,10.59-57.982,11.866c-3.018,0.132-5.467,2.568-5.467,5.588v27.161
				c0,0,11.264,7.192,0.41,42.467c-14.918,48.48,55.284,74.914,67.834,79.935c12.548-5.021,82.751-31.453,67.833-79.935
				c-10.854-35.273,0.411-42.467,0.411-42.467V22.676c0-3.02-2.45-5.456-5.467-5.588c-28.712-1.276-48.041-6.744-57.981-11.866
				c-1.344-0.689-3.068-1.036-4.796-1.036C118.706,4.186,116.979,4.531,115.637,5.222"/>
		</defs>
		<clipPath id="SVGID_44_">
			<use xlink:href="#SVGID_43_"  overflow="visible"/>
		</clipPath>
		<path clip-path="url(#SVGID_44_)" fill="#191818" d="M141.659,121.943c-1.738,0-4.407,0.146-4.407,1.886v10.414
			c0,1.737,2.669,1.885,4.407,1.885c1.737,0,1.944-0.146,1.944-1.885v-10.414C143.604,122.091,143.396,121.943,141.659,121.943"/>
	</g>
	<g>
		<defs>
			<path id="SVGID_45_" d="M115.637,5.222c-9.941,5.122-29.271,10.59-57.982,11.866c-3.018,0.132-5.467,2.568-5.467,5.588v27.161
				c0,0,11.264,7.192,0.41,42.467c-14.918,48.48,55.284,74.914,67.834,79.935c12.548-5.021,82.751-31.453,67.833-79.935
				c-10.854-35.273,0.411-42.467,0.411-42.467V22.676c0-3.02-2.45-5.456-5.467-5.588c-28.712-1.276-48.041-6.744-57.981-11.866
				c-1.344-0.689-3.068-1.036-4.796-1.036C118.706,4.186,116.979,4.531,115.637,5.222"/>
		</defs>
		<clipPath id="SVGID_46_">
			<use xlink:href="#SVGID_45_"  overflow="visible"/>
		</clipPath>
		<path clip-path="url(#SVGID_46_)" fill="#191818" d="M147.238,121.943c-1.736,0-1.945,0.146-1.945,1.886v10.414
			c0,1.737,0.209,1.885,1.945,1.885s4.406-0.146,4.406-1.885v-10.414C151.646,122.091,148.977,121.943,147.238,121.943"/>
	</g>
	<g>
		<defs>
			<path id="SVGID_47_" d="M115.637,5.222c-9.941,5.122-29.271,10.59-57.982,11.866c-3.018,0.132-5.467,2.568-5.467,5.588v27.161
				c0,0,11.264,7.192,0.41,42.467c-14.918,48.48,55.284,74.914,67.834,79.935c12.548-5.021,82.751-31.453,67.833-79.935
				c-10.854-35.273,0.411-42.467,0.411-42.467V22.676c0-3.02-2.45-5.456-5.467-5.588c-28.712-1.276-48.041-6.744-57.981-11.866
				c-1.344-0.689-3.068-1.036-4.796-1.036C118.706,4.186,116.979,4.531,115.637,5.222"/>
		</defs>
		<clipPath id="SVGID_48_">
			<use xlink:href="#SVGID_47_"  overflow="visible"/>
		</clipPath>
		<path clip-path="url(#SVGID_48_)" fill="#191818" d="M93.998,121.943c-1.738,0-4.408,0.146-4.408,1.886v10.414
			c0,1.737,2.67,1.885,4.408,1.885c1.736,0,1.945-0.146,1.945-1.885v-10.414C95.943,122.091,95.734,121.943,93.998,121.943"/>
	</g>
	<g>
		<defs>
			<path id="SVGID_49_" d="M115.637,5.222c-9.941,5.122-29.271,10.59-57.982,11.866c-3.018,0.132-5.467,2.568-5.467,5.588v27.161
				c0,0,11.264,7.192,0.41,42.467c-14.918,48.48,55.284,74.914,67.834,79.935c12.548-5.021,82.751-31.453,67.833-79.935
				c-10.854-35.273,0.411-42.467,0.411-42.467V22.676c0-3.02-2.45-5.456-5.467-5.588c-28.712-1.276-48.041-6.744-57.981-11.866
				c-1.344-0.689-3.068-1.036-4.796-1.036C118.706,4.186,116.979,4.531,115.637,5.222"/>
		</defs>
		<clipPath id="SVGID_50_">
			<use xlink:href="#SVGID_49_"  overflow="visible"/>
		</clipPath>
		<path clip-path="url(#SVGID_50_)" fill="#191818" d="M99.577,121.943c-1.737,0-1.945,0.146-1.945,1.886v10.414
			c0,1.737,0.208,1.885,1.945,1.885c1.737,0,4.407-0.146,4.407-1.885v-10.414C103.984,122.091,101.314,121.943,99.577,121.943"/>
	</g>
	<g>
		<defs>
			<path id="SVGID_51_" d="M115.637,5.222c-9.941,5.122-29.271,10.59-57.982,11.866c-3.018,0.132-5.467,2.568-5.467,5.588v27.161
				c0,0,11.264,7.192,0.41,42.467c-14.918,48.48,55.284,74.914,67.834,79.935c12.548-5.021,82.751-31.453,67.833-79.935
				c-10.854-35.273,0.411-42.467,0.411-42.467V22.676c0-3.02-2.45-5.456-5.467-5.588c-28.712-1.276-48.041-6.744-57.981-11.866
				c-1.344-0.689-3.068-1.036-4.796-1.036C118.706,4.186,116.979,4.531,115.637,5.222"/>
		</defs>
		<clipPath id="SVGID_52_">
			<use xlink:href="#SVGID_51_"  overflow="visible"/>
		</clipPath>
		<path clip-path="url(#SVGID_52_)" fill="#191818" d="M103.762,131.181l-2.08-3.433c3.035-1.843,7.31-5.471,7.31-7.771h4.014
			C113.005,125.317,105.305,130.246,103.762,131.181"/>
	</g>
	<g>
		<defs>
			<path id="SVGID_53_" d="M115.637,5.222c-9.941,5.122-29.271,10.59-57.982,11.866c-3.018,0.132-5.467,2.568-5.467,5.588v27.161
				c0,0,11.264,7.192,0.41,42.467c-14.918,48.48,55.284,74.914,67.834,79.935c12.548-5.021,82.751-31.453,67.833-79.935
				c-10.854-35.273,0.411-42.467,0.411-42.467V22.676c0-3.02-2.45-5.456-5.467-5.588c-28.712-1.276-48.041-6.744-57.981-11.866
				c-1.344-0.689-3.068-1.036-4.796-1.036C118.706,4.186,116.979,4.531,115.637,5.222"/>
		</defs>
		<clipPath id="SVGID_54_">
			<use xlink:href="#SVGID_53_"  overflow="visible"/>
		</clipPath>
		<path clip-path="url(#SVGID_54_)" fill="#191818" d="M137.912,131.181c-1.543-0.935-9.244-5.862-9.244-11.202h4.014
			c0,2.283,4.361,5.985,7.31,7.769L137.912,131.181z"/>
	</g>
</g>
<path fill="#191818" d="M120.432,12.552c0.527,0,0.895,0.091,1.005,0.13c13.131,6.748,34.479,11.32,58.873,12.639v21.295
	c-1.498,2.068-3.057,5.072-4.054,9.313c-2.28,9.702-0.931,22.771,4.013,38.836c5.107,16.601-1.271,31.72-19.504,46.222
	c-14.388,11.443-31.922,18.868-40.333,22.248c-8.412-3.38-25.945-10.805-40.332-22.248c-18.232-14.502-24.613-29.621-19.506-46.222
	c4.943-16.065,6.294-29.134,4.014-38.836c-0.998-4.24-2.556-7.243-4.054-9.313V25.32c24.394-1.318,45.743-5.891,58.872-12.639
	C119.538,12.643,119.904,12.552,120.432,12.552 M120.432,4.186c-1.727,0-3.453,0.347-4.795,1.037
	c-9.941,5.12-29.271,10.588-57.984,11.864c-3.016,0.134-5.465,2.57-5.465,5.589v27.161c0,0,11.264,7.192,0.41,42.466
	c-14.917,48.482,55.285,74.915,67.834,79.935c12.548-5.02,82.751-31.451,67.833-79.935c-10.854-35.273,0.41-42.466,0.41-42.466
	V22.676c0-3.019-2.449-5.455-5.465-5.589c-28.713-1.276-48.042-6.744-57.984-11.864C123.885,4.531,122.158,4.186,120.432,4.186"/>
<polygon fill="#FFFFFF" points="91.377,28.669 83.92,27.539 80.598,20.44 77.278,27.539 69.819,28.669 75.209,34.204 73.861,41.999 
	80.598,38.317 87.335,41.999 85.988,34.204 "/>
<polygon fill="#FFFFFF" points="171.045,28.669 163.586,27.539 160.266,20.44 156.943,27.539 149.486,28.669 154.876,34.204 
	153.527,41.999 160.266,38.317 167.002,41.999 165.654,34.204 "/>
<polygon fill="#FFFFFF" points="172.746,182.362 120.453,196.546 68.16,180.857 68.16,153.337 120.453,169.024 172.746,153.337 "/>
<path fill="#020202" d="M120.452,197.469l-54.551-13.334V150.46l54.551,13.335l54.552-13.335v33.675L120.452,197.469z
	 M70.418,180.59l50.034,12.231l50.036-12.231v-24.378l-50.036,12.232l-50.034-12.232V180.59z"/>
<polygon fill="#020202" points="149.232,159.524 175.07,150.546 161.996,140.765 140.982,158.776 "/>
<polygon fill="#020202" points="91.631,159.524 65.795,150.546 78.867,140.765 99.882,158.776 "/>
<polygon fill="#020202" points="92.303,169.951 89.713,164.414 87.123,169.951 81.305,170.833 85.508,175.15 84.457,181.23 
	89.713,178.359 94.967,181.23 93.916,175.15 98.121,170.833 "/>
<polygon fill="#020202" points="122.989,176.027 120.131,169.917 117.271,176.027 110.852,177.001 115.49,181.766 114.331,188.477 
	120.131,185.308 125.93,188.477 124.771,181.766 129.41,177.001 "/>
<polygon fill="#FDD00F" points="153.327,169.951 150.736,164.414 148.146,169.951 142.329,170.833 146.533,175.15 145.482,181.23 
	150.736,178.359 155.992,181.23 154.941,175.15 159.145,170.833 "/>
<path fill="#020202" d="M213.303,112.614c-1.816-3.577-5.514-6.852-6.379-10.245l-0.531-0.223c-1.338,3.336-1.192,7.325-0.17,10.95
	c1.109,4.703,3.424,8.368,4.508,12.993c0.193,0.892,0.354,1.775,0.459,2.742c6.957-5.049,13.369-10.808,15.183-19.897l-12.192,6.131
	C214.016,114.218,213.686,113.379,213.303,112.614"/>
<path fill="#020202" d="M210.167,70.831c0.577,1.658,0.758,3.546,1.548,5.248c0.51,0.668,0.96,1.356,1.432,2.057
	c1.313,1.814,2.677,3.432,4.421,3.886c0.604-2.797,1.063-5.733,0.532-8.912c-0.604-2.013-1.507-3.808-2.688-5.43
	c-1.849-2.56-4.358-4.637-7.396-6.198c-0.101-0.058-0.166-0.071-0.224-0.119l-0.403,0.093c0.156,0.24,0.303,0.517,0.459,0.796
	C209.225,64.875,209.636,67.652,210.167,70.831"/>
<path fill="#020202" d="M214.801,87.998c-2.652-3.01-7.049-5.257-8.736-8.326l-0.569-0.084c-0.461,3.565,0.674,7.394,2.571,10.646
	c2.248,4.276,5.406,7.248,7.611,11.455c0.41,0.813,0.785,1.632,1.128,2.54c5.477-6.627,10.246-13.806,9.729-23.059l-10.275,8.98
	C215.891,89.373,215.362,88.643,214.801,87.998"/>
<path fill="#020202" d="M27.562,112.614c1.817-3.577,5.512-6.852,6.379-10.245l0.532-0.223c1.336,3.336,1.192,7.325,0.168,10.95
	c-1.108,4.703-3.424,8.368-4.508,12.993c-0.193,0.892-0.354,1.775-0.459,2.742c-6.955-5.049-13.369-10.808-15.182-19.897
	l12.194,6.131C26.85,114.218,27.178,113.379,27.562,112.614"/>
<path fill="#020202" d="M30.697,70.831c-0.579,1.658-0.758,3.546-1.549,5.248c-0.51,0.668-0.959,1.356-1.43,2.057
	c-1.314,1.814-2.677,3.432-4.421,3.886c-0.606-2.797-1.065-5.733-0.534-8.912c0.605-2.013,1.508-3.808,2.69-5.43
	c1.849-2.56,4.358-4.637,7.396-6.198c0.1-0.058,0.166-0.071,0.224-0.119l0.403,0.093c-0.158,0.24-0.303,0.517-0.461,0.796
	C31.641,64.875,31.229,67.652,30.697,70.831"/>
<path fill="#020202" d="M26.063,87.998c2.653-3.01,7.049-5.257,8.735-8.326l0.571-0.084c0.461,3.565-0.675,7.394-2.573,10.646
	c-2.248,4.276-5.406,7.248-7.611,11.455c-0.409,0.813-0.785,1.632-1.127,2.54c-5.476-6.627-10.246-13.806-9.731-23.059l10.276,8.98
	C24.973,89.373,25.502,88.643,26.063,87.998"/>
<path fill="#020202" d="M193.7,153.771c-0.916-0.018-1.783-0.026-2.638,0.015c3.211-4.571,2.289-10.163,4.058-15.119l-0.017-0.219
	c-5.33,2.008-8.125,6.701-10.731,11.657c-1.862,3.592-3.683,7.272-6.339,9.993c1.109,0.08,2.152,0.229,3.234,0.389
	c1.121,0.164,2.273,0.386,3.435,0.691c2.306,0.136,4.581,0.237,6.731,0.166c4.035-0.171,7.795-0.854,11.037-2.604
	c1.502-0.798,2.901-1.851,4.131-3.161c-0.949-0.154-1.992-0.342-3.027-0.524C200.309,154.5,196.875,153.93,193.7,153.771"/>
<path fill="#020202" d="M206.699,138.198c-1.494-5.036-4.273-10.122-3.863-15.642l-0.145-0.219l-0.373,0.165
	c-0.045,0.035-0.098,0.107-0.101,0.145c-0.293,0.5-0.602,0.785-1.137,1.3c-3.806,6.707-3.229,14.779-1.274,21.92
	c0.319,1.177,0.651,2.295,1.063,3.426c3.422-2.676,7.645-3.359,11.441-5.307c0.342-0.207,0.678-0.369,1.03-0.582
	c3.658-2.642,5.885-7.007,6.841-11.184c-2.373,0.757-4.7,1.368-6.875,2.188C210.961,135.254,208.698,136.396,206.699,138.198"/>
<path fill="#020202" d="M47.227,153.771c0.916-0.018,1.783-0.026,2.639,0.015c-3.211-4.571-2.291-10.163-4.059-15.119l0.018-0.219
	c5.328,2.008,8.123,6.701,10.73,11.657c1.861,3.592,3.684,7.272,6.34,9.993c-1.109,0.08-2.154,0.229-3.234,0.389
	c-1.123,0.164-2.275,0.386-3.436,0.691c-2.306,0.136-4.58,0.237-6.732,0.166c-4.034-0.171-7.795-0.854-11.037-2.604
	c-1.5-0.798-2.901-1.851-4.131-3.161c0.949-0.154,1.992-0.342,3.029-0.524C40.617,154.5,44.052,153.93,47.227,153.771"/>
<path fill="#020202" d="M34.227,138.198c1.495-5.036,4.274-10.122,3.865-15.642l0.143-0.219l0.373,0.165
	c0.045,0.035,0.098,0.107,0.102,0.145c0.292,0.5,0.601,0.785,1.136,1.3c3.806,6.707,3.229,14.779,1.276,21.92
	c-0.321,1.177-0.654,2.295-1.063,3.426c-3.423-2.676-7.644-3.359-11.442-5.307c-0.342-0.207-0.676-0.369-1.029-0.582
	c-3.66-2.642-5.887-7.007-6.842-11.184c2.373,0.757,4.701,1.368,6.877,2.188C29.966,135.254,32.229,136.396,34.227,138.198"/>
</svg>
