<?xml version="1.0" encoding="utf-8"?>
<!-- Generator: Adobe Illustrator 16.0.0, SVG Export Plug-In . SVG Version: 6.00 Build 0)  -->
<!DOCTYPE svg PUBLIC "-//W3C//DTD SVG 1.1//EN" "http://www.w3.org/Graphics/SVG/1.1/DTD/svg11.dtd">
<svg version="1.1" id="Layer_1" xmlns="http://www.w3.org/2000/svg" xmlns:xlink="http://www.w3.org/1999/xlink" x="0px" y="0px"
	 width="612px" height="792px" viewBox="0 0 612 792" enable-background="new 0 0 612 792" xml:space="preserve">
<path fill="none" d="M346.63,60"/>
<path fill="none" d="M346.63,3305.597"/>
<path fill="#FECF0A" d="M370.816,396.303c-10.149-32.987-1.587-41.101,0.215-42.339h-67.616h-68.482
	c1.803,1.238,10.366,9.352,0.216,42.339c-14.918,48.481,55.285,74.915,67.834,79.935c0.137-0.054,0.282-0.112,0.433-0.172
	C317.052,470.639,385.572,444.257,370.816,396.303"/>
<g opacity="0.6">
	<g>
		<defs>
			<rect id="SVGID_1_" x="303" y="353.96" width="69.47" height="122.101"/>
		</defs>
		<clipPath id="SVGID_2_">
			<use xlink:href="#SVGID_1_"  overflow="visible"/>
		</clipPath>
		<path clip-path="url(#SVGID_2_)" fill="#CDA72C" d="M370.399,396.303c-10.15-32.987-1.587-41.101,0.215-42.339h-67.617v122.102
			C316.634,470.639,385.154,444.257,370.399,396.303"/>
	</g>
</g>
<g opacity="0.4">
	<g>
		<defs>
			<rect id="SVGID_3_" x="233.08" y="308.19" width="139.81" height="168.05"/>
		</defs>
		<clipPath id="SVGID_4_">
			<use xlink:href="#SVGID_3_"  overflow="visible"/>
		</clipPath>
		<path clip-path="url(#SVGID_4_)" fill="#FFFFFF" d="M302.983,322.247c12.873,6.204,32.308,10.53,54.447,12.167v14.542
			c-1.518,2.447-2.945,5.632-3.909,9.729c-2.504,10.653-1.12,24.675,4.109,41.677c2.329,7.567,1.856,14.6-1.444,21.498
			c-3.05,6.373-8.518,12.725-16.251,18.875c-12.737,10.132-28.211,17.049-36.952,20.637c-8.742-3.588-24.216-10.505-36.952-20.637
			c-7.733-6.15-13.201-12.502-16.251-18.875c-3.301-6.898-3.774-13.931-1.445-21.498c5.23-17.001,6.614-31.023,4.109-41.677
			c-0.963-4.097-2.39-7.282-3.909-9.729v-14.542C270.674,332.777,290.111,328.451,302.983,322.247 M302.983,308.186
			c-1.726,0-3.453,0.347-4.795,1.037c-9.941,5.12-29.271,10.588-57.983,11.864c-3.017,0.134-5.465,2.57-5.465,5.589v27.161
			c0,0,11.263,7.192,0.41,42.466c-14.918,48.482,55.285,74.915,67.834,79.934c12.548-5.019,82.751-31.451,67.833-79.934
			c-10.853-35.274,0.41-42.466,0.41-42.466v-27.161c0-3.019-2.449-5.455-5.465-5.589c-28.713-1.276-48.042-6.744-57.984-11.864
			C306.435,308.532,304.709,308.186,302.983,308.186"/>
	</g>
</g>
<path fill="#191818" d="M371.227,326.676c0-3.02-2.449-5.455-5.465-5.589c-28.712-1.276-48.042-6.744-57.984-11.865
	c-2.685-1.382-6.904-1.382-9.59,0c-9.942,5.121-29.271,10.589-57.984,11.865c-3.016,0.134-5.465,2.569-5.465,5.589v27.161
	c0,0,0.07,0.041,0.194,0.127h136.099c0.125-0.086,0.195-0.127,0.195-0.127V326.676z"/>
<path fill="#191818" d="M302.983,316.552c0.527,0,0.894,0.091,1.006,0.13c13.128,6.748,34.478,11.32,58.873,12.638v21.295
	c-1.498,2.069-3.057,5.072-4.054,9.313c-2.28,9.702-0.931,22.77,4.013,38.836c5.107,16.6-1.272,31.719-19.506,46.221
	c-14.387,11.444-31.92,18.869-40.332,22.248c-8.412-3.379-25.946-10.804-40.333-22.248c-18.232-14.502-24.613-29.621-19.505-46.221
	c4.943-16.066,6.294-29.134,4.013-38.836c-0.997-4.241-2.555-7.243-4.053-9.313V329.32c24.394-1.318,45.743-5.89,58.872-12.638
	C302.089,316.643,302.456,316.552,302.983,316.552 M302.983,308.186c-1.726,0-3.453,0.346-4.795,1.037
	c-9.941,5.12-29.271,10.588-57.983,11.864c-3.017,0.134-5.465,2.57-5.465,5.589v27.161c0,0,11.263,7.192,0.41,42.466
	c-14.918,48.482,55.285,74.915,67.834,79.934c12.548-5.019,82.751-31.451,67.833-79.934c-10.853-35.274,0.41-42.466,0.41-42.466
	v-27.161c0-3.019-2.449-5.455-5.465-5.589c-28.713-1.276-48.042-6.744-57.984-11.864
	C306.435,308.531,304.709,308.186,302.983,308.186"/>
<path fill="#FFFFFF" d="M288.91,345.132v-3.252c7.346-7.135,8.881-8.729,8.881-11.019c0-1.535-1.174-2.528-2.679-2.528
	c-1.777,0-3.192,0.813-4.275,2.258l-2.409-2.529c1.626-2.168,4.004-3.313,6.744-3.313c3.884,0,6.713,2.349,6.713,6.082
	c0,3.04-2.047,5.629-7.015,10.747h7.106v3.553H288.91z"/>
<path fill="#FFFFFF" d="M303.66,342.332l2.438-2.589c1.055,1.384,2.469,2.167,4.186,2.167c1.927,0,3.041-1.475,3.041-3.161
	c0-1.987-1.055-3.161-2.86-3.161c-1.354,0-2.379,0.482-3.312,1.656l-2.921-0.783v-11.41h12.042v3.552h-8.008v5.149
	c0.783-0.964,2.139-1.656,3.673-1.656c3.041,0,5.479,2.378,5.479,6.533c0,4.034-2.739,6.864-7.014,6.864
	C307.303,345.493,305.165,344.35,303.66,342.332"/>
<path fill="#191818" d="M287.798,401.138h30.674c2.852,0,5.171,1.97,5.18,4.399l0.048,22.449h-41.13l0.049-22.449
	C282.626,403.107,284.945,401.138,287.798,401.138"/>
<rect x="281.05" y="427.409" fill="#191818" width="44.17" height="8.005"/>
<path fill="#FECF0A" d="M318.288,377.825h-5.591c-1.144-6.24-5.052-15.168-9.698-15.168c-4.647,0-8.556,8.928-9.699,15.168h-5.59
	h-2.466v2.165v5.413v2.165l1.835,4.331v35.509h31.84v-35.509l1.835-4.331v-2.165v-5.413v-2.165H318.288z"/>
<rect x="286.739" y="413.675" fill="#FFFFFF" width="33.077" height="13.543"/>
<path fill="#FFFFFF" d="M313.455,377.176c0,5.74-4.652,10.393-10.393,10.393s-10.393-4.653-10.393-10.393
	s4.653-14.723,10.393-14.723S313.455,371.436,313.455,377.176"/>
<path fill="#191818" d="M293.31,389.474c-1.89,0-6.446-0.609-11.54-5.704c-4.082-4.081-7.137-3.261-7.266-3.224
	c-1.435,0.511-2.976-0.247-3.488-1.683c-0.513-1.435,0.273-3.027,1.708-3.539c2.3-0.822,7.615-0.789,12.947,4.544
	c4.336,4.336,7.661,4.093,7.796,4.083c1.513-0.218,2.872,0.836,3.088,2.345c0.215,1.509-0.868,2.911-2.376,3.126
	C294.062,389.438,293.762,389.474,293.31,389.474"/>
<path fill="#191818" d="M265.1,383.165l11.151-1.549c1.185-0.164,2.034-1.096,1.897-2.081l-0.545-3.925
	c-0.137-0.984-1.208-1.65-2.392-1.485l-11.151,1.549c-1.185,0.164-2.034,1.096-1.897,2.081l0.545,3.925
	C262.845,382.664,263.916,383.33,265.1,383.165"/>
<path fill="#191818" d="M312.656,389.474c-0.453,0-0.752-0.035-0.87-0.052c-1.508-0.215-2.556-1.613-2.34-3.122
	c0.212-1.488,1.574-2.52,3.062-2.35c0.237,0.02,3.523,0.181,7.785-4.083c5.334-5.333,10.646-5.367,12.947-4.544
	c1.436,0.512,2.184,2.091,1.671,3.526c-0.513,1.436-2.092,2.184-3.526,1.671c-0.055-0.013-3.109-0.831-7.188,3.249
	C319.103,388.863,314.545,389.474,312.656,389.474"/>
<path fill="#191818" d="M303.073,431.593l-17.995-2.437v-36.414l-4.438-4.331v-12.586h6.696l4.226-1.637
	c1.548-6.752,5.907-13.531,11.437-13.531c5.531,0,9.891,6.779,11.438,13.531l4.226,1.637h6.697v12.586l-4.439,4.331v36.412
	L303.073,431.593z M289.078,425.661l13.992,1.895l13.849-1.892v-34.607l4.439-4.331v-6.9h-3.445l-6.981-2.705l-0.201-1.1
	c-1.11-6.053-4.722-11.363-7.732-11.363c-3.009,0-6.622,5.311-7.73,11.363l-0.202,1.1l-6.981,2.705h-3.444v6.9l4.438,4.331V425.661z
	"/>
<path fill="#191818" d="M340.865,383.165l-11.151-1.549c-1.185-0.164-2.034-1.096-1.896-2.081l0.545-3.925
	c0.137-0.984,1.208-1.65,2.392-1.485l11.152,1.549c1.184,0.164,2.033,1.096,1.896,2.081l-0.545,3.925
	C343.121,382.664,342.05,383.33,340.865,383.165"/>
<polygon fill="#191818" points="283.425,378.187 293.247,376.165 313.021,376.165 318.796,378.042 323.357,377.825 323.357,387.569 
	318.919,391.899 287.611,391.899 282.64,387.569 "/>
<path fill="#FECF0A" d="M312.842,384.971c0,5.381-4.361,9.743-9.743,9.743s-9.744-4.362-9.744-9.743s4.362-9.743,9.744-9.743
	S312.842,379.59,312.842,384.971"/>
<path fill="#FFFFFF" d="M303.099,380.244c2.606,0,4.726,2.12,4.726,4.727c0,2.605-2.12,4.726-4.726,4.726
	c-2.606,0-4.726-2.12-4.726-4.726C298.373,382.364,300.492,380.244,303.099,380.244 M303.099,375.228
	c-5.381,0-9.743,4.362-9.743,9.743c0,5.382,4.362,9.743,9.743,9.743s9.743-4.361,9.743-9.743
	C312.842,379.589,308.479,375.228,303.099,375.228"/>
<path fill="#191818" d="M303.099,396.093c-6.133,0-11.124-4.989-11.124-11.123c0-6.133,4.991-11.123,11.124-11.123
	s11.123,4.99,11.123,11.123C314.222,391.104,309.231,396.093,303.099,396.093 M303.099,376.607c-4.612,0-8.364,3.751-8.364,8.363
	s3.752,8.364,8.364,8.364c4.612,0,8.363-3.752,8.363-8.364S307.711,376.607,303.099,376.607"/>
<path fill="#191818" d="M306.143,381.782l-6.028,6.416c0.795,0.782,1.885,1.265,3.088,1.265c2.433,0,4.404-1.971,4.404-4.403
	C307.606,383.758,307.041,382.588,306.143,381.782"/>
<path fill="#191818" d="M302.969,407.579c-3.587,0-6.496,2.908-6.496,6.496v29.317c0,3.588,2.909,6.496,6.496,6.496
	c3.588,0,6.496-2.908,6.496-6.496v-29.317C309.465,410.487,306.557,407.579,302.969,407.579"/>
<polygon fill="#FFFFFF" points="272.089,334.968 260.349,337.677 249.513,334.968 249.513,328.646 260.349,331.355 272.089,328.646 
	"/>
<polygon fill="#FFFFFF" points="272.089,343.998 260.349,346.707 249.513,343.998 249.513,337.676 260.349,340.386 272.089,337.676 
	"/>
<polygon fill="#FFFFFF" points="356.453,334.968 344.713,337.677 333.877,334.968 333.877,328.646 344.713,331.355 356.453,328.646 
	"/>
<polygon fill="#FFFFFF" points="356.453,343.998 344.713,346.707 333.877,343.998 333.877,337.676 344.713,340.386 356.453,337.676 
	"/>
</svg>
