<?xml version="1.0" encoding="utf-8"?>
<!-- Generator: Adobe Illustrator 16.0.0, SVG Export Plug-In . SVG Version: 6.00 Build 0)  -->
<!DOCTYPE svg PUBLIC "-//W3C//DTD SVG 1.1//EN" "http://www.w3.org/Graphics/SVG/1.1/DTD/svg11.dtd">
<svg version="1.1" id="Layer_1" xmlns="http://www.w3.org/2000/svg" xmlns:xlink="http://www.w3.org/1999/xlink" x="0px" y="0px"
	 width="612px" height="792px" viewBox="0 0 612 792" enable-background="new 0 0 612 792" xml:space="preserve">
<path fill="none" d="M346.63,60"/>
<path fill="none" d="M346.63,3305.597"/>
<path fill="#FECF0A" d="M370.107,387.303c-10.15-32.987-1.588-41.101,0.215-42.339h-67.617h-68.482
	c1.803,1.238,10.366,9.352,0.216,42.339c-14.918,48.481,55.285,74.915,67.834,79.935c0.136-0.054,0.282-0.112,0.433-0.172
	C316.342,461.639,384.861,435.257,370.107,387.303"/>
<g opacity="0.6">
	<g>
		<defs>
			<rect id="SVGID_1_" x="302.2" y="344.96" width="69.47" height="122.101"/>
		</defs>
		<clipPath id="SVGID_2_">
			<use xlink:href="#SVGID_1_"  overflow="visible"/>
		</clipPath>
		<path clip-path="url(#SVGID_2_)" fill="#CDA72C" d="M369.605,387.303c-10.15-32.987-1.588-41.101,0.215-42.339h-67.617v122.102
			C315.84,461.639,384.359,435.257,369.605,387.303"/>
	</g>
</g>
<g opacity="0.4">
	<g>
		<defs>
			<rect id="SVGID_3_" x="232.37" y="299.19" width="139.81" height="168.05"/>
		</defs>
		<clipPath id="SVGID_4_">
			<use xlink:href="#SVGID_3_"  overflow="visible"/>
		</clipPath>
		<path clip-path="url(#SVGID_4_)" fill="#FFFFFF" d="M302.272,313.247c12.872,6.204,32.309,10.53,54.448,12.167v14.542
			c-1.52,2.447-2.946,5.632-3.91,9.729c-2.504,10.653-1.121,24.675,4.109,41.676c2.329,7.568,1.856,14.6-1.445,21.499
			c-3.049,6.373-8.518,12.725-16.25,18.875c-12.736,10.132-28.211,17.049-36.952,20.637c-8.741-3.588-24.216-10.505-36.952-20.637
			c-7.732-6.15-13.2-12.502-16.251-18.875c-3.301-6.898-3.772-13.931-1.444-21.499c5.23-17.001,6.613-31.023,4.109-41.676
			c-0.964-4.097-2.391-7.282-3.909-9.729v-14.542C269.963,323.777,289.4,319.451,302.272,313.247 M302.272,299.186
			c-1.726,0-3.453,0.347-4.794,1.037c-9.943,5.12-29.272,10.588-57.985,11.864c-3.016,0.134-5.465,2.57-5.465,5.589v27.161
			c0,0,11.263,7.192,0.41,42.466c-14.917,48.482,55.284,74.915,67.834,79.934c12.549-5.019,82.752-31.451,67.834-79.934
			c-10.853-35.274,0.409-42.466,0.409-42.466v-27.161c0-3.019-2.448-5.455-5.465-5.589c-28.713-1.276-48.041-6.744-57.983-11.864
			C305.725,299.532,303.999,299.186,302.272,299.186"/>
	</g>
</g>
<path fill="#191818" d="M370.517,317.676c0-3.02-2.449-5.455-5.466-5.589c-28.713-1.276-48.041-6.744-57.983-11.865
	c-2.685-1.382-6.905-1.382-9.59,0c-9.942,5.121-29.271,10.589-57.984,11.865c-3.016,0.134-5.465,2.569-5.465,5.589v27.161
	c0,0,0.07,0.041,0.195,0.127h136.099c0.125-0.086,0.194-0.127,0.194-0.127V317.676z"/>
<path fill="#191818" d="M302.272,307.552c0.526,0,0.894,0.091,1.006,0.13c13.13,6.748,34.478,11.32,58.872,12.638v21.295
	c-1.498,2.069-3.057,5.072-4.053,9.313c-2.281,9.702-0.931,22.77,4.013,38.836c5.108,16.6-1.272,31.719-19.505,46.221
	c-14.387,11.444-31.92,18.869-40.333,22.248c-8.412-3.379-25.945-10.804-40.333-22.248c-18.232-14.502-24.612-29.621-19.505-46.221
	c4.944-16.066,6.294-29.134,4.013-38.836c-0.997-4.241-2.555-7.243-4.053-9.313V320.32c24.393-1.318,45.742-5.89,58.871-12.638
	C301.379,307.643,301.745,307.552,302.272,307.552 M302.272,299.186c-1.726,0-3.453,0.346-4.794,1.037
	c-9.943,5.12-29.272,10.588-57.985,11.864c-3.016,0.134-5.465,2.57-5.465,5.589v27.161c0,0,11.263,7.192,0.41,42.466
	c-14.917,48.482,55.284,74.915,67.834,79.934c12.549-5.019,82.751-31.451,67.834-79.934c-10.853-35.274,0.409-42.466,0.409-42.466
	v-27.161c0-3.019-2.448-5.455-5.465-5.589c-28.713-1.276-48.041-6.744-57.983-11.864
	C305.725,299.531,303.999,299.186,302.272,299.186"/>
<polygon fill="#FFFFFF" points="285.381,336.132 285.381,321.26 282.34,324.421 280.021,321.982 285.924,316.051 289.445,316.051 
	289.445,336.132 "/>
<path fill="#FFFFFF" d="M292.183,326.106c0-5.178,2.138-10.355,7.104-10.355c4.998,0,7.105,5.178,7.105,10.355
	c0,5.148-2.077,10.388-7.105,10.388C294.32,336.494,292.183,331.255,292.183,326.106 M302.299,326.106
	c0-3.884-0.663-6.772-3.012-6.772c-2.317,0-2.979,2.889-2.979,6.772c0,3.854,0.662,6.805,2.979,6.805
	C301.636,332.911,302.299,329.961,302.299,326.106"/>
<path fill="#FFFFFF" d="M308.348,326.106c0-5.178,2.137-10.355,7.105-10.355c4.996,0,7.104,5.178,7.104,10.355
	c0,5.148-2.078,10.388-7.104,10.388C310.484,336.494,308.348,331.255,308.348,326.106 M318.463,326.106
	c0-3.884-0.662-6.772-3.01-6.772c-2.319,0-2.981,2.889-2.981,6.772c0,3.854,0.662,6.805,2.981,6.805
	C317.801,332.911,318.463,329.961,318.463,326.106"/>
<path fill="#191818" d="M287.212,392.138h30.674c2.853,0,5.171,1.97,5.18,4.4l0.048,22.449h-41.129l0.049-22.449
	C282.041,394.107,284.359,392.138,287.212,392.138"/>
<rect x="280.464" y="418.409" fill="#191818" width="44.17" height="8.005"/>
<path fill="#FECF0A" d="M317.702,368.825h-5.591c-1.143-6.24-5.051-15.168-9.698-15.168s-8.556,8.928-9.699,15.168h-5.59h-2.466
	v2.165v5.413v2.165l1.834,4.331v35.509h31.842v-35.509l1.834-4.331v-2.165v-5.413v-2.165H317.702z"/>
<rect x="286.152" y="404.675" fill="#FFFFFF" width="33.078" height="13.543"/>
<path fill="#FFFFFF" d="M312.87,368.176c0,5.74-4.653,10.393-10.394,10.393s-10.393-4.653-10.393-10.393s4.652-14.723,10.393-14.723
	S312.87,362.436,312.87,368.176"/>
<path fill="#191818" d="M292.724,380.474c-1.89,0-6.446-0.609-11.54-5.704c-4.081-4.081-7.139-3.261-7.266-3.224
	c-1.435,0.511-2.976-0.247-3.488-1.683c-0.512-1.435,0.273-3.027,1.709-3.539c2.299-0.822,7.613-0.789,12.947,4.544
	c4.336,4.336,7.658,4.093,7.795,4.083c1.511-0.218,2.873,0.836,3.088,2.345c0.216,1.509-0.867,2.911-2.375,3.126
	C293.476,380.438,293.176,380.474,292.724,380.474"/>
<path fill="#191818" d="M264.515,374.165l11.151-1.549c1.185-0.164,2.033-1.096,1.896-2.081l-0.545-3.925
	c-0.137-0.984-1.208-1.65-2.393-1.485l-11.151,1.549c-1.185,0.164-2.033,1.096-1.897,2.081l0.545,3.925
	C262.26,373.664,263.33,374.33,264.515,374.165"/>
<path fill="#191818" d="M312.07,380.474c-0.453,0-0.752-0.035-0.87-0.052c-1.509-0.215-2.556-1.613-2.341-3.122
	c0.214-1.488,1.582-2.52,3.062-2.35c0.238,0.021,3.522,0.183,7.787-4.083c5.332-5.332,10.647-5.366,12.946-4.544
	c1.436,0.512,2.184,2.091,1.671,3.526c-0.513,1.436-2.093,2.182-3.526,1.671c-0.053-0.012-3.109-0.83-7.189,3.249
	C318.518,379.863,313.96,380.474,312.07,380.474"/>
<path fill="#191818" d="M302.487,422.593l-17.995-2.437v-36.414l-4.439-4.331v-12.586h6.697l4.226-1.637
	c1.548-6.752,5.907-13.531,11.437-13.531c5.531,0,9.891,6.779,11.438,13.531l4.226,1.637h6.697v12.586l-4.438,4.331v36.412
	L302.487,422.593z M288.492,416.661l13.992,1.895l13.85-1.892v-34.607l4.438-4.331v-6.9h-3.444l-6.982-2.705l-0.201-1.1
	c-1.109-6.053-4.723-11.363-7.732-11.363c-3.009,0-6.621,5.311-7.73,11.363l-0.202,1.1l-6.981,2.705h-3.445v6.9l4.439,4.331V416.661
	z"/>
<path fill="#191818" d="M340.279,374.165l-11.15-1.549c-1.186-0.164-2.034-1.096-1.897-2.081l0.545-3.925
	c0.138-0.984,1.208-1.65,2.392-1.485l11.152,1.549c1.184,0.164,2.033,1.096,1.897,2.081l-0.546,3.925
	C342.535,373.664,341.465,374.33,340.279,374.165"/>
<polygon fill="#191818" points="282.84,369.187 292.661,367.165 312.438,367.165 318.211,369.042 322.771,368.825 322.771,378.569 
	318.334,382.899 287.025,382.899 282.055,378.569 "/>
<path fill="#FECF0A" d="M312.256,375.971c0,5.381-4.361,9.743-9.742,9.743c-5.383,0-9.744-4.362-9.744-9.743
	s4.361-9.743,9.744-9.743C307.895,366.228,312.256,370.59,312.256,375.971"/>
<path fill="#FFFFFF" d="M302.514,371.244c2.605,0,4.727,2.12,4.727,4.727c0,2.605-2.121,4.726-4.727,4.726
	c-2.607,0-4.728-2.12-4.728-4.726C297.786,373.364,299.906,371.244,302.514,371.244 M302.514,366.228
	c-5.382,0-9.744,4.362-9.744,9.743c0,5.382,4.362,9.743,9.744,9.743c5.381,0,9.742-4.361,9.742-9.743
	C312.256,370.589,307.895,366.228,302.514,366.228"/>
<path fill="#191818" d="M302.514,387.093c-6.134,0-11.125-4.989-11.125-11.123c0-6.133,4.991-11.123,11.125-11.123
	c6.133,0,11.122,4.99,11.122,11.123C313.636,382.104,308.646,387.093,302.514,387.093 M302.514,367.607
	c-4.613,0-8.365,3.751-8.365,8.363s3.752,8.364,8.365,8.364c4.611,0,8.362-3.752,8.362-8.364S307.125,367.607,302.514,367.607"/>
<path fill="#191818" d="M305.557,372.782l-6.027,6.416c0.795,0.782,1.884,1.265,3.088,1.265c2.432,0,4.404-1.971,4.404-4.403
	C307.021,374.758,306.455,373.588,305.557,372.782"/>
<path fill="#191818" d="M302.384,398.579c-3.589,0-6.496,2.908-6.496,6.496v29.317c0,3.588,2.907,6.496,6.496,6.496
	c3.587,0,6.495-2.908,6.495-6.496v-29.317C308.879,401.487,305.971,398.579,302.384,398.579"/>
<polygon fill="#FFFFFF" points="273.219,324.126 265.76,322.995 262.439,315.897 259.118,322.995 251.66,324.126 257.05,329.66 
	255.702,337.455 262.439,333.774 269.176,337.455 267.828,329.66 "/>
<polygon fill="#FFFFFF" points="352.885,324.126 345.427,322.995 342.105,315.897 338.785,322.995 331.326,324.126 336.717,329.66 
	335.369,337.455 342.105,333.774 348.842,337.455 347.496,329.66 "/>
<path fill="#1A1A19" d="M302.246,471.57c-3.51-1.403-11.533-5.484-20.94-10.254v14.698c11.415,7.014,20.567,11.113,20.567,11.113
	l0.398-0.001l0.399,0.001c0,0,9.153-4.1,20.567-11.113v-14.726c-9.063,4.597-16.848,8.632-20.561,10.109
	C302.527,471.458,302.382,471.517,302.246,471.57"/>
<path fill="#FFFFFF" d="M248.977,450.647c8.118,9.569,19.146,17.858,29.014,24.17v-15.224c-9.689-5.161-20.402-12.017-29.014-20.575
	V450.647z"/>
<path fill="#FFFFFF" d="M326.555,474.817c9.869-6.312,20.895-14.601,29.014-24.17v-11.686c-8.606,8.569-19.316,15.433-29.014,20.602
	V474.817z"/>
</svg>
