<?xml version="1.0" encoding="utf-8"?>
<!-- Generator: Adobe Illustrator 16.0.0, SVG Export Plug-In . SVG Version: 6.00 Build 0)  -->
<!DOCTYPE svg PUBLIC "-//W3C//DTD SVG 1.1//EN" "http://www.w3.org/Graphics/SVG/1.1/DTD/svg11.dtd">
<svg version="1.1" id="Layer_1" xmlns="http://www.w3.org/2000/svg" xmlns:xlink="http://www.w3.org/1999/xlink" x="0px" y="0px"
	 width="240px" height="195px" viewBox="0 0 240 195" enable-background="new 0 0 240 195" xml:space="preserve">
<path fill="none" d="M78.63-2257.76"/>
<path fill="none" d="M78.63,987.837"/>
<path fill="none" d="M51.764,1616.837"/>
<path fill="none" d="M51.764-1628.76"/>
<line fill="#929497" x1="1530.52" y1="-66.557" x2="1530.52" y2="-65.807"/>
<line fill="#929497" x1="-611.484" y1="-65.807" x2="-611.484" y2="-66.557"/>
<path fill="#FDD00F" d="M188.462,93.303c-10.149-32.986-1.587-41.101,0.215-42.339h-67.616H52.579
	c1.803,1.238,10.366,9.353,0.216,42.339c-14.918,48.481,55.285,74.915,67.834,79.936c0.136-0.055,0.282-0.112,0.432-0.172
	C134.697,167.639,203.217,141.257,188.462,93.303"/>
<g opacity="0.6">
	<g>
		<g>
			<defs>
				<rect id="SVGID_1_" x="120.56" y="50.96" width="69.469" height="122.101"/>
			</defs>
			<clipPath id="SVGID_2_">
				<use xlink:href="#SVGID_1_"  overflow="visible"/>
			</clipPath>
			<path clip-path="url(#SVGID_2_)" fill="#CDA72C" d="M187.96,93.303c-10.149-32.986-1.587-41.101,0.215-42.339h-67.617v122.103
				C134.195,167.639,202.715,141.257,187.96,93.303"/>
		</g>
	</g>
</g>
<g opacity="0.4">
	<g>
		<g>
			<defs>
				<rect id="SVGID_3_" x="50.72" y="5.19" width="139.811" height="168.05"/>
			</defs>
			<clipPath id="SVGID_4_">
				<use xlink:href="#SVGID_3_"  overflow="visible"/>
			</clipPath>
			<path clip-path="url(#SVGID_4_)" fill="#FFFFFF" d="M120.628,19.247c12.872,6.204,32.308,10.53,54.446,12.167v14.542
				c-1.518,2.447-2.944,5.632-3.908,9.729c-2.504,10.653-1.121,24.676,4.109,41.677c2.328,7.567,1.855,14.6-1.445,21.499
				c-3.051,6.373-8.518,12.725-16.25,18.875c-12.737,10.132-28.211,17.049-36.952,20.637c-8.741-3.588-24.216-10.505-36.952-20.637
				c-7.733-6.15-13.201-12.502-16.251-18.875c-3.301-6.898-3.773-13.932-1.445-21.499c5.231-17.001,6.614-31.023,4.109-41.677
				c-0.963-4.097-2.391-7.281-3.909-9.729V31.414C88.318,29.777,107.756,25.451,120.628,19.247 M120.628,5.186
				c-1.727,0-3.453,0.347-4.795,1.037c-9.942,5.12-29.271,10.587-57.984,11.864c-3.016,0.134-5.465,2.57-5.465,5.589v27.161
				c0,0,11.263,7.192,0.41,42.466c-14.917,48.482,55.285,74.915,67.834,79.935c12.549-5.02,82.751-31.451,67.834-79.935
				c-10.854-35.273,0.409-42.466,0.409-42.466V23.676c0-3.019-2.448-5.455-5.465-5.589c-28.713-1.276-48.043-6.744-57.983-11.864
				C124.081,5.532,122.354,5.186,120.628,5.186"/>
		</g>
	</g>
</g>
<path fill="#191818" d="M188.871,23.676c0-3.02-2.447-5.455-5.465-5.589c-28.713-1.276-48.042-6.744-57.984-11.865
	c-2.686-1.382-6.904-1.382-9.589,0c-9.942,5.121-29.271,10.588-57.983,11.865c-3.017,0.134-5.466,2.569-5.466,5.589v27.161
	c0,0,0.069,0.041,0.194,0.127h136.1c0.125-0.086,0.193-0.127,0.193-0.127V23.676z"/>
<path fill="#191818" d="M120.628,13.552c0.526,0,0.894,0.091,1.006,0.13c13.13,6.748,34.478,11.32,58.872,12.639v21.295
	c-1.498,2.068-3.057,5.072-4.053,9.313c-2.281,9.702-0.932,22.771,4.013,38.836c5.107,16.601-1.272,31.72-19.505,46.222
	c-14.388,11.443-31.922,18.868-40.333,22.248c-8.412-3.38-25.946-10.805-40.333-22.248c-18.232-14.502-24.613-29.621-19.505-46.222
	c4.943-16.065,6.294-29.134,4.013-38.836c-0.997-4.24-2.555-7.243-4.053-9.313V26.32c24.393-1.318,45.743-5.891,58.872-12.639
	C119.733,13.643,120.101,13.552,120.628,13.552 M120.628,5.186c-1.727,0-3.453,0.346-4.795,1.037
	c-9.942,5.12-29.271,10.587-57.984,11.864c-3.016,0.134-5.465,2.57-5.465,5.589v27.161c0,0,11.263,7.192,0.41,42.466
	c-14.917,48.482,55.285,74.915,67.834,79.935c12.549-5.02,82.751-31.451,67.834-79.935c-10.854-35.273,0.409-42.466,0.409-42.466
	V23.676c0-3.019-2.448-5.455-5.465-5.589c-28.713-1.276-48.043-6.744-57.983-11.864C124.081,5.531,122.354,5.186,120.628,5.186"/>
<path fill="#FFFFFF" d="M105.15,39.332l2.438-2.589c1.054,1.384,2.469,2.167,4.186,2.167c1.926,0,3.04-1.476,3.04-3.161
	c0-1.987-1.054-3.161-2.86-3.161c-1.355,0-2.378,0.482-3.312,1.656l-2.92-0.783v-11.41h12.042v3.552h-8.008v5.149
	c0.783-0.964,2.138-1.656,3.673-1.656c3.041,0,5.479,2.378,5.479,6.533c0,4.034-2.739,6.864-7.014,6.864
	C108.793,42.493,106.655,41.35,105.15,39.332"/>
<path fill="#FFFFFF" d="M120.834,32.106c0-5.179,2.137-10.355,7.104-10.355c4.998,0,7.105,5.178,7.105,10.355
	c0,5.147-2.077,10.388-7.105,10.388C122.971,42.494,120.834,37.255,120.834,32.106 M130.949,32.106c0-3.885-0.662-6.772-3.012-6.772
	c-2.317,0-2.979,2.889-2.979,6.772c0,3.854,0.662,6.805,2.979,6.805C130.287,38.911,130.949,35.961,130.949,32.106"/>
<path fill="#191818" d="M105.567,98.138h30.674c2.852,0,5.171,1.971,5.18,4.4l0.048,22.449h-41.13l0.049-22.449
	C100.396,100.107,102.715,98.138,105.567,98.138"/>
<rect x="98.82" y="124.409" fill="#191818" width="44.17" height="8.005"/>
<path fill="#FDD00F" d="M136.059,74.825h-5.592c-1.144-6.24-5.052-15.168-9.698-15.168c-4.647,0-8.556,8.928-9.699,15.168h-5.59
	h-2.466v2.165v5.413v2.165l1.835,4.331v35.509h31.84V88.899l1.834-4.331v-2.165V76.99v-2.165H136.059z"/>
<rect x="104.508" y="110.675" fill="#FFFFFF" width="33.077" height="13.543"/>
<path fill="#FFFFFF" d="M131.225,74.176c0,5.74-4.651,10.394-10.393,10.394s-10.393-4.653-10.393-10.394s4.653-14.723,10.393-14.723
	S131.225,68.436,131.225,74.176"/>
<path fill="#191818" d="M111.079,86.474c-1.89,0-6.446-0.608-11.54-5.704c-4.103-4.101-7.16-3.259-7.188-3.248
	c-1.433,0.513-3.013-0.235-3.527-1.672c-0.513-1.435,0.235-3.014,1.671-3.525c2.299-0.82,7.613-0.789,12.946,4.544
	c4.336,4.336,7.66,4.093,7.796,4.083c1.51-0.218,2.872,0.836,3.088,2.345c0.215,1.509-0.868,2.911-2.376,3.126
	C111.831,86.438,111.532,86.474,111.079,86.474"/>
<path fill="#191818" d="M82.87,80.165l11.151-1.549c1.185-0.164,2.034-1.097,1.897-2.081l-0.545-3.925
	c-0.137-0.984-1.208-1.65-2.392-1.485L81.83,72.674c-1.185,0.164-2.034,1.097-1.897,2.081l0.545,3.925
	C80.614,79.664,81.686,80.33,82.87,80.165"/>
<path fill="#191818" d="M130.426,86.474c-0.453,0-0.752-0.034-0.869-0.052c-1.509-0.215-2.557-1.613-2.341-3.122
	c0.212-1.488,1.577-2.52,3.062-2.35c0.238,0.02,3.523,0.181,7.785-4.083c5.334-5.333,10.647-5.367,12.947-4.544
	c1.436,0.512,2.184,2.091,1.672,3.525c-0.514,1.437-2.093,2.185-3.527,1.671c-0.053-0.013-3.108-0.83-7.188,3.249
	C136.872,85.863,132.314,86.474,130.426,86.474"/>
<path fill="#191818" d="M120.843,128.593l-17.995-2.437V89.742l-4.438-4.331V72.825h6.696l4.226-1.638
	c1.548-6.752,5.907-13.53,11.437-13.53c5.531,0,9.891,6.778,11.438,13.53l4.227,1.638h6.696v12.586l-4.438,4.331v36.412
	L120.843,128.593z M106.848,122.661l13.992,1.895l13.85-1.892V88.057l4.438-4.331v-6.899h-3.444l-6.981-2.705l-0.201-1.1
	c-1.11-6.054-4.722-11.363-7.732-11.363c-3.009,0-6.622,5.311-7.73,11.363l-0.202,1.1l-6.981,2.705h-3.444v6.899l4.438,4.331v34.604
	H106.848z"/>
<path fill="#191818" d="M158.635,80.165l-11.15-1.549c-1.186-0.164-2.033-1.097-1.896-2.081l0.545-3.925
	c0.137-0.984,1.208-1.65,2.393-1.485l11.15,1.549c1.186,0.164,2.034,1.097,1.897,2.081l-0.546,3.925
	C160.891,79.664,159.818,80.33,158.635,80.165"/>
<polygon fill="#191818" points="101.194,75.188 111.017,73.165 130.793,73.165 136.564,75.042 141.127,74.825 141.127,84.569 
	136.688,88.899 105.38,88.899 100.409,84.569 "/>
<path fill="#FDD00F" d="M130.611,81.971c0,5.381-4.361,9.743-9.743,9.743c-5.382,0-9.744-4.362-9.744-9.743s4.362-9.743,9.744-9.743
	C126.25,72.228,130.611,76.59,130.611,81.971"/>
<path fill="#FFFFFF" d="M120.868,77.244c2.606,0,4.726,2.12,4.726,4.727c0,2.605-2.119,4.727-4.726,4.727
	c-2.606,0-4.726-2.12-4.726-4.727S118.262,77.244,120.868,77.244 M120.868,72.228c-5.381,0-9.743,4.362-9.743,9.743
	c0,5.382,4.362,9.743,9.743,9.743c5.381,0,9.743-4.36,9.743-9.743C130.611,76.589,126.249,72.228,120.868,72.228"/>
<path fill="#191818" d="M120.868,93.093c-6.133,0-11.124-4.989-11.124-11.123c0-6.133,4.991-11.123,11.124-11.123
	c6.133,0,11.123,4.99,11.123,11.123C131.991,88.104,127.001,93.093,120.868,93.093 M120.868,73.607
	c-4.612,0-8.364,3.751-8.364,8.362c0,4.612,3.752,8.364,8.364,8.364s8.362-3.752,8.362-8.364
	C129.23,77.358,125.48,73.607,120.868,73.607"/>
<path fill="#191818" d="M123.912,78.782l-6.029,6.416c0.795,0.782,1.885,1.265,3.089,1.265c2.432,0,4.403-1.971,4.403-4.403
	C125.375,80.758,124.811,79.588,123.912,78.782"/>
<path fill="#191818" d="M120.738,104.579c-3.587,0-6.496,2.908-6.496,6.496v29.316c0,3.589,2.909,6.496,6.496,6.496
	c3.588,0,6.497-2.907,6.497-6.496v-29.316C127.234,107.487,124.326,104.579,120.738,104.579"/>
<polygon fill="#FFFFFF" points="173.16,31.493 161.42,34.203 150.584,31.493 150.584,25.173 161.42,27.882 173.16,25.173 "/>
<polygon fill="#FFFFFF" points="173.16,40.524 161.42,43.233 150.584,40.524 150.584,34.203 161.42,36.912 173.16,34.203 "/>
<polygon fill="#FFFFFF" points="89.653,30.126 82.195,28.995 78.874,21.897 75.554,28.995 68.095,30.126 73.484,35.66 
	72.137,43.455 78.874,39.774 85.61,43.455 84.264,35.66 "/>
<path fill="#FFFFFF" d="M120.601,176.57c-3.51-1.403-11.533-4.484-20.94-9.254v14.697c11.415,7.015,20.567,11.113,20.567,11.113
	l0.399-0.001l0.398,0.001c0,0,9.153-4.1,20.568-11.113v-14.726c-9.063,4.597-16.848,7.632-20.561,9.109
	C120.883,176.458,120.737,176.517,120.601,176.57"/>
<path fill="#FFFFFF" d="M67.331,156.647c8.119,9.568,19.146,17.857,29.014,24.17v-15.225c-9.688-5.161-20.402-12.017-29.014-20.575
	V156.647z"/>
<path fill="#FFFFFF" d="M144.91,180.817c9.869-6.313,20.895-14.602,29.014-24.171v-11.686c-8.605,8.569-19.316,15.433-29.014,20.602
	V180.817z"/>
</svg>
