<?xml version="1.0" encoding="utf-8"?>
<!-- Generator: Adobe Illustrator 16.0.0, SVG Export Plug-In . SVG Version: 6.00 Build 0)  -->
<!DOCTYPE svg PUBLIC "-//W3C//DTD SVG 1.1//EN" "http://www.w3.org/Graphics/SVG/1.1/DTD/svg11.dtd">
<svg version="1.1" id="Layer_1" xmlns="http://www.w3.org/2000/svg" xmlns:xlink="http://www.w3.org/1999/xlink" x="0px" y="0px"
	 width="240px" height="195px" viewBox="0 0 240 195" enable-background="new 0 0 240 195" xml:space="preserve">
<path fill="none" d="M78.63-2257.76"/>
<path fill="none" d="M78.63,987.837"/>
<path fill="none" d="M51.764,1616.837"/>
<path fill="none" d="M51.764-1628.76"/>
<line fill="#929497" x1="1530.52" y1="-66.557" x2="1530.52" y2="-65.807"/>
<line fill="#929497" x1="-611.484" y1="-65.807" x2="-611.484" y2="-66.557"/>
<path fill="#FDD00F" d="M188.041,93.303c-10.15-32.986-1.587-41.101,0.215-42.339h-67.617H52.158
	c1.804,1.238,10.366,9.353,0.216,42.339c-14.917,48.481,55.285,74.915,67.834,79.936c0.137-0.055,0.282-0.112,0.432-0.172
	C134.275,167.639,202.797,141.257,188.041,93.303"/>
<g opacity="0.6">
	<g>
		<g>
			<defs>
				<rect id="SVGID_1_" x="120.141" y="50.96" width="69.468" height="122.101"/>
			</defs>
			<clipPath id="SVGID_2_">
				<use xlink:href="#SVGID_1_"  overflow="visible"/>
			</clipPath>
			<path clip-path="url(#SVGID_2_)" fill="#CDA72C" d="M187.54,93.303c-10.149-32.986-1.587-41.101,0.215-42.339h-67.617v122.103
				C133.775,167.639,202.295,141.257,187.54,93.303"/>
		</g>
	</g>
</g>
<g opacity="0.4">
	<g>
		<g>
			<defs>
				<rect id="SVGID_3_" x="50.3" y="5.19" width="139.81" height="168.05"/>
			</defs>
			<clipPath id="SVGID_4_">
				<use xlink:href="#SVGID_3_"  overflow="visible"/>
			</clipPath>
			<path clip-path="url(#SVGID_4_)" fill="#FFFFFF" d="M120.207,19.247c12.873,6.204,32.309,10.53,54.447,12.167v14.542
				c-1.519,2.447-2.945,5.632-3.908,9.729c-2.505,10.653-1.121,24.676,4.107,41.677c2.33,7.567,1.856,14.6-1.443,21.499
				c-3.051,6.373-8.518,12.725-16.251,18.875c-12.737,10.132-28.211,17.049-36.952,20.637c-8.742-3.588-24.216-10.505-36.951-20.637
				c-7.733-6.15-13.201-12.502-16.252-18.875c-3.301-6.898-3.773-13.932-1.445-21.499c5.231-17.001,6.613-31.023,4.109-41.677
				c-0.963-4.097-2.39-7.281-3.908-9.729V31.414C87.898,29.777,107.336,25.451,120.207,19.247 M120.207,5.186
				c-1.727,0-3.453,0.347-4.795,1.037c-9.941,5.12-29.271,10.587-57.984,11.864c-3.016,0.134-5.465,2.57-5.465,5.589v27.161
				c0,0,11.264,7.192,0.41,42.466c-14.917,48.482,55.285,74.915,67.834,79.935c12.549-5.02,82.752-31.451,67.834-79.935
				c-10.854-35.273,0.41-42.466,0.41-42.466V23.676c0-3.019-2.449-5.455-5.465-5.589c-28.713-1.276-48.043-6.744-57.984-11.864
				C123.66,5.532,121.934,5.186,120.207,5.186"/>
		</g>
	</g>
</g>
<path fill="#191818" d="M188.451,23.676c0-3.02-2.448-5.455-5.465-5.589c-28.713-1.276-48.043-6.744-57.984-11.865
	c-2.684-1.382-6.904-1.382-9.59,0c-9.942,5.121-29.271,10.588-57.983,11.865c-3.017,0.134-5.466,2.569-5.466,5.589v27.161
	c0,0,0.07,0.041,0.195,0.127h136.099c0.125-0.086,0.194-0.127,0.194-0.127V23.676z"/>
<path fill="#191818" d="M120.207,13.552c0.527,0,0.895,0.091,1.006,0.13c13.131,6.748,34.479,11.32,58.873,12.639v21.295
	c-1.498,2.068-3.057,5.072-4.054,9.313c-2.28,9.702-0.931,22.771,4.013,38.836c5.107,16.601-1.271,31.72-19.505,46.222
	c-14.388,11.443-31.921,18.868-40.333,22.248c-8.412-3.38-25.945-10.805-40.332-22.248c-18.232-14.502-24.613-29.621-19.506-46.222
	c4.943-16.065,6.294-29.134,4.014-38.836c-0.998-4.24-2.556-7.243-4.054-9.313V26.32c24.394-1.318,45.743-5.891,58.872-12.639
	C119.313,13.643,119.68,13.552,120.207,13.552 M120.207,5.186c-1.727,0-3.453,0.346-4.795,1.037
	c-9.941,5.12-29.271,10.587-57.984,11.864c-3.016,0.134-5.465,2.57-5.465,5.589v27.161c0,0,11.264,7.192,0.41,42.466
	c-14.918,48.482,55.285,74.915,67.834,79.935c12.549-5.02,82.752-31.451,67.834-79.935c-10.854-35.273,0.41-42.466,0.41-42.466
	V23.676c0-3.019-2.449-5.455-5.465-5.589c-28.713-1.276-48.043-6.744-57.984-11.864C123.66,5.531,121.934,5.186,120.207,5.186"/>
<path fill="#FFFFFF" d="M105.244,42.132v-4.274h-8.189v-3.372l7.044-12.435h5.179v12.253h2.018v3.554h-2.018v4.274H105.244z
	 M105.244,26.146l-4.547,8.157h4.547V26.146z"/>
<path fill="#FFFFFF" d="M112.135,32.106c0-5.18,2.138-10.355,7.105-10.355c4.996,0,7.105,5.177,7.105,10.355
	c0,5.146-2.078,10.387-7.105,10.387C114.272,42.493,112.135,37.254,112.135,32.106 M122.25,32.106c0-3.885-0.662-6.773-3.01-6.773
	c-2.318,0-2.98,2.89-2.98,6.773c0,3.854,0.662,6.805,2.98,6.805C121.588,38.911,122.25,35.961,122.25,32.106"/>
<path fill="#FFFFFF" d="M127.547,32.106c0-5.18,2.139-10.355,7.104-10.355c4.998,0,7.106,5.177,7.106,10.355
	c0,5.146-2.077,10.387-7.106,10.387C129.686,42.493,127.547,37.254,127.547,32.106 M137.662,32.106c0-3.885-0.662-6.773-3.012-6.773
	c-2.316,0-2.979,2.89-2.979,6.773c0,3.854,0.662,6.805,2.979,6.805C137,38.911,137.662,35.961,137.662,32.106"/>
<path fill="#191818" d="M154.824,109.811c-2.639,0-6.695,0.224-6.695,2.862v15.822c0,2.64,4.057,2.863,6.695,2.863
	c2.64,0,6.695-0.225,6.695-2.863v-15.822C161.52,110.033,157.464,109.811,154.824,109.811"/>
<path fill="#191818" d="M85.089,109.811c-2.64,0-6.695,0.224-6.695,2.862v15.822c0,2.64,4.056,2.863,6.695,2.863
	c2.639,0,6.694-0.225,6.694-2.863v-15.822C91.783,110.033,87.728,109.811,85.089,109.811"/>
<path fill="#FDD00F" d="M79.31,86.321l-4.88,9.532l4.961,20.692c0.129,1.675,1.525,2.994,3.234,2.994
	c6.491,0,12.063,2.508,18.557,2.508c1.627,0,2.971-1.198,3.205-2.761h31.095c0.234,1.563,1.58,2.761,3.207,2.761
	c6.492,0,12.064-2.508,18.557-2.508c1.628,0,2.972-1.198,3.206-2.762h0.016l5.017-20.927l-4.879-9.531L79.31,86.321L79.31,86.321z"
	/>
<path fill="#FFFFFF" d="M160.467,86.053h-9.593l-3.903-10.063c-0.379-2.744-2.935-4.97-5.705-4.97H98.647
	c-2.77,0-5.324,2.227-5.705,4.97L89.04,86.053h-9.593l-0.138,0.27h81.294L160.467,86.053z"/>
<rect x="108.412" y="87.324" fill="#FFFFFF" width="21.572" height="33.363"/>
<path fill="#FFFFFF" d="M96.924,103.196c0,3.937-3.19,7.127-7.127,7.127s-7.127-3.19-7.127-7.127s3.19-7.127,7.127-7.127
	S96.924,99.261,96.924,103.196"/>
<path fill="#191818" d="M89.797,111.703c-4.689,0-8.507-3.815-8.507-8.507c0-4.689,3.817-8.507,8.507-8.507s8.506,3.816,8.506,8.507
	C98.303,107.888,94.487,111.703,89.797,111.703 M89.797,97.449c-3.169,0-5.746,2.578-5.746,5.747s2.577,5.747,5.746,5.747
	c3.17,0,5.746-2.578,5.746-5.747S92.967,97.449,89.797,97.449"/>
<path fill="#191818" d="M92.023,100.864l-4.41,4.691c0.582,0.572,1.379,0.927,2.26,0.927c1.779,0,3.221-1.442,3.221-3.222
	C93.094,102.309,92.681,101.454,92.023,100.864"/>
<path fill="#FFFFFF" d="M156.371,103.196c0,3.937-3.189,7.127-7.126,7.127s-7.127-3.19-7.127-7.127s3.19-7.127,7.127-7.127
	S156.371,99.261,156.371,103.196"/>
<path fill="#191818" d="M149.244,111.703c-4.689,0-8.506-3.815-8.506-8.507c0-4.689,3.816-8.507,8.506-8.507
	s8.508,3.816,8.508,8.507C157.752,107.888,153.936,111.703,149.244,111.703 M149.244,97.449c-3.169,0-5.746,2.578-5.746,5.747
	s2.577,5.747,5.746,5.747c3.17,0,5.747-2.578,5.747-5.747S152.414,97.449,149.244,97.449"/>
<path fill="#191818" d="M151.473,100.864l-4.41,4.691c0.582,0.572,1.379,0.927,2.26,0.927c1.777,0,3.22-1.442,3.22-3.222
	C152.541,102.309,152.129,101.454,151.473,100.864"/>
<path fill="#FFFFFF" d="M134.643,105.025c0-2.313-1.875-4.188-4.188-4.188h-22.234c-2.313,0-4.188,1.875-4.188,4.188
	s1.874,4.188,4.188,4.188h22.234C132.768,109.213,134.643,107.339,134.643,105.025"/>
<path fill="#191818" d="M130.455,110.593h-22.234c-3.07,0-5.568-2.498-5.568-5.566c0-3.069,2.498-5.566,5.568-5.566h22.234
	c3.07,0,5.566,2.498,5.566,5.566S133.525,110.593,130.455,110.593 M108.221,102.219c-1.549,0-2.809,1.259-2.809,2.808
	s1.26,2.807,2.809,2.807h22.234c1.548,0,2.807-1.258,2.807-2.807s-1.259-2.808-2.807-2.808H108.221z"/>
<rect x="86.588" y="84.071" fill="#191818" width="65.471" height="4"/>
<path fill="#191819" d="M155.816,84.577c-1.504,1.502-3.939,1.502-5.439,0c-1.504-1.502-1.504-3.938,0-5.44
	c1.5-1.502,5.71-3.275,7.212-1.772C159.092,78.866,157.318,83.075,155.816,84.577"/>
<path fill="#191819" d="M83.948,84.577c1.502,1.502,3.938,1.502,5.438,0c1.504-1.502,1.504-3.938,0-5.44
	c-1.5-1.502-5.71-3.275-7.212-1.772C80.672,78.866,82.445,83.075,83.948,84.577"/>
<rect x="123.593" y="69.525" transform="matrix(-0.8538 -0.5207 0.5207 -0.8538 190.9548 210.0225)" fill="#191818" width="2.759" height="17.338"/>
<rect x="131.371" y="69.525" transform="matrix(-0.8538 -0.5207 0.5207 -0.8538 205.3721 214.072)" fill="#191818" width="2.759" height="17.338"/>
<path fill="#191818" d="M138.688,124.05c-1.957,0-3.713-1.109-4.611-2.762h-28.283c-0.898,1.651-2.656,2.762-4.611,2.762
	c-3.453,0-6.621-0.659-9.687-1.296c-2.998-0.625-5.831-1.213-8.87-1.213c-2.664,0-4.919-2.035-5.212-4.664l-5.101-21.275
	l5.912-11.548h9.445l3.33-8.587c0.631-3.635,3.94-6.447,7.647-6.447h42.618c3.705,0,7.016,2.813,7.647,6.446l3.329,8.588h9.445
	l5.912,11.548l-5.558,23.18h-0.187c-0.897,1.65-2.655,2.761-4.611,2.761c-3.04,0-5.873,0.588-8.87,1.213
	C145.311,123.391,142.141,124.05,138.688,124.05 M102.666,117.288h34.539l0.256,1.703c0.09,0.604,0.618,1.059,1.229,1.059
	c3.039,0,5.873-0.589,8.871-1.214c3.064-0.637,6.232-1.295,9.686-1.295c0.609,0,1.138-0.455,1.229-1.059l0.256-1.702h0.158
	l4.478-18.674l-4.122-8.054h-9.739l-4.481-11.559l-0.032-0.23c-0.243-1.759-1.948-3.245-3.724-3.245H98.649
	c-1.775,0-3.481,1.486-3.724,3.244l-0.033,0.23l-4.483,11.56h-9.737l-4.123,8.054l4.838,20.286c0.051,0.645,0.594,1.147,1.24,1.147
	c3.451,0,6.62,0.658,9.686,1.295c2.998,0.625,5.83,1.214,8.871,1.214c0.609,0,1.137-0.455,1.228-1.06L102.666,117.288z"/>
<polygon fill="#FFFFFF" points="91.152,29.677 83.695,28.546 80.373,21.448 77.054,28.546 69.595,29.677 74.984,35.211 
	73.637,43.006 80.373,39.325 87.11,43.006 85.764,35.211 "/>
<polygon fill="#FFFFFF" points="170.82,29.677 163.361,28.546 160.041,21.448 156.721,28.546 149.262,29.677 154.65,35.211 
	153.305,43.006 160.041,39.325 166.777,43.006 165.43,35.211 "/>
<path fill="#020202" d="M44.432,143.942c0.916-0.018,1.783-0.026,2.639,0.015c-3.211-4.571-2.291-10.163-4.059-15.119l0.018-0.219
	c5.328,2.008,8.123,6.699,10.73,11.656c1.861,3.592,3.684,7.273,6.34,9.993c-1.109,0.08-2.154,0.229-3.234,0.39
	c-1.123,0.162-2.275,0.386-3.436,0.69c-2.306,0.136-4.58,0.238-6.732,0.167c-4.034-0.171-7.795-0.854-11.037-2.605
	c-1.5-0.797-2.901-1.85-4.131-3.16c0.949-0.154,1.992-0.342,3.029-0.524C37.822,144.671,41.257,144.101,44.432,143.942"/>
<path fill="#020202" d="M34.377,126.396c1.063,1.398,2.535,2.593,3.518,4.191c0.273,0.794,0.599,1.55,0.921,2.329
	c0.784,2.099,1.379,4.127,0.792,5.83c-2.664-1.041-5.365-2.282-7.721-4.482c-1.34-1.616-2.338-3.36-3.035-5.243
	c-1.11-2.955-1.453-6.195-1.075-9.591c0.008-0.113,0.032-0.178,0.024-0.252l0.301-0.285c0.113,0.265,0.263,0.539,0.408,0.824
	C29.936,122.316,32.021,124.195,34.377,126.396"/>
<path fill="#020202" d="M194.557,143.942c-0.916-0.018-1.783-0.026-2.639,0.015c3.211-4.571,2.291-10.163,4.059-15.119l-0.018-0.219
	c-5.328,2.008-8.123,6.699-10.73,11.656c-1.86,3.592-3.684,7.273-6.34,9.993c1.109,0.08,2.154,0.229,3.234,0.39
	c1.123,0.162,2.275,0.386,3.436,0.69c2.307,0.136,4.58,0.238,6.732,0.167c4.034-0.171,7.795-0.854,11.037-2.605
	c1.5-0.797,2.9-1.85,4.131-3.16c-0.949-0.154-1.992-0.342-3.029-0.524C201.166,144.671,197.73,144.101,194.557,143.942"/>
<path fill="#020202" d="M206.037,126.396c-1.063,1.398-2.535,2.593-3.518,4.191c-0.273,0.794-0.599,1.55-0.922,2.329
	c-0.783,2.099-1.378,4.127-0.791,5.83c2.664-1.041,5.364-2.282,7.721-4.482c1.341-1.616,2.338-3.36,3.035-5.243
	c1.11-2.955,1.453-6.195,1.076-9.591c-0.009-0.113-0.033-0.178-0.025-0.252l-0.301-0.285c-0.112,0.265-0.263,0.539-0.408,0.824
	C210.479,122.316,208.393,124.195,206.037,126.396"/>
<path fill="#1A1A19" d="M120.181,177.57c-3.511-1.403-11.533-5.484-20.94-10.254v14.697c11.415,7.015,20.567,11.113,20.567,11.113
	l0.399-0.001l0.398,0.001c0,0,9.152-4.1,20.568-11.113v-14.726c-9.063,4.597-16.848,8.632-20.561,10.109
	C120.463,177.458,120.317,177.517,120.181,177.57"/>
<path fill="#1A1A19" d="M66.91,156.647c8.119,9.568,19.146,17.857,29.014,24.17v-15.225c-9.688-5.161-20.401-12.017-29.014-20.575
	V156.647z"/>
<path fill="#1A1A19" d="M144.49,180.817c9.867-6.313,20.895-14.602,29.014-24.171v-11.686c-8.605,8.569-19.316,15.433-29.014,20.602
	V180.817z"/>
</svg>
