<?xml version="1.0" encoding="utf-8"?>
<!-- Generator: Adobe Illustrator 16.0.0, SVG Export Plug-In . SVG Version: 6.00 Build 0)  -->
<!DOCTYPE svg PUBLIC "-//W3C//DTD SVG 1.1//EN" "http://www.w3.org/Graphics/SVG/1.1/DTD/svg11.dtd">
<svg version="1.1" id="Layer_1" xmlns="http://www.w3.org/2000/svg" xmlns:xlink="http://www.w3.org/1999/xlink" x="0px" y="0px"
	 width="612px" height="792px" viewBox="0 0 612 792" enable-background="new 0 0 612 792" xml:space="preserve">
<path fill="none" d="M346.63,60"/>
<path fill="none" d="M346.63,3305.597"/>
<path fill="#FECF0A" d="M370.041,387.303c-10.15-32.987-1.587-41.101,0.215-42.339h-67.617h-68.481
	c1.804,1.238,10.366,9.352,0.216,42.339c-14.917,48.481,55.285,74.915,67.834,79.935c0.137-0.054,0.282-0.112,0.432-0.172
	C316.276,461.639,384.797,435.257,370.041,387.303"/>
<g opacity="0.6">
	<g>
		<defs>
			<rect id="SVGID_1_" x="302.141" y="344.96" width="69.469" height="122.101"/>
		</defs>
		<clipPath id="SVGID_2_">
			<use xlink:href="#SVGID_1_"  overflow="visible"/>
		</clipPath>
		<path clip-path="url(#SVGID_2_)" fill="#CDA72C" d="M369.54,387.303c-10.15-32.987-1.587-41.101,0.215-42.339h-67.617v122.102
			C315.775,461.639,384.295,435.257,369.54,387.303"/>
	</g>
</g>
<g opacity="0.4">
	<g>
		<defs>
			<rect id="SVGID_3_" x="232.3" y="299.19" width="139.81" height="168.05"/>
		</defs>
		<clipPath id="SVGID_4_">
			<use xlink:href="#SVGID_3_"  overflow="visible"/>
		</clipPath>
		<path clip-path="url(#SVGID_4_)" fill="#FFFFFF" d="M302.207,313.247c12.873,6.204,32.309,10.53,54.447,12.167v14.542
			c-1.518,2.447-2.945,5.632-3.908,9.729c-2.505,10.653-1.121,24.675,4.108,41.676c2.329,7.568,1.856,14.6-1.444,21.499
			c-3.051,6.373-8.518,12.725-16.251,18.875c-12.737,10.132-28.211,17.049-36.952,20.637c-8.742-3.588-24.216-10.505-36.951-20.637
			c-7.733-6.15-13.201-12.502-16.252-18.875c-3.301-6.898-3.773-13.931-1.445-21.499c5.231-17.001,6.613-31.023,4.109-41.676
			c-0.963-4.097-2.39-7.282-3.908-9.729v-14.542C269.898,323.777,289.336,319.451,302.207,313.247 M302.207,299.186
			c-1.727,0-3.453,0.347-4.795,1.037c-9.941,5.12-29.271,10.588-57.984,11.864c-3.016,0.134-5.465,2.57-5.465,5.589v27.161
			c0,0,11.264,7.192,0.41,42.466c-14.917,48.482,55.285,74.915,67.834,79.934c12.549-5.019,82.752-31.451,67.834-79.934
			c-10.854-35.274,0.41-42.466,0.41-42.466v-27.161c0-3.019-2.449-5.455-5.465-5.589c-28.713-1.276-48.042-6.744-57.984-11.864
			C305.66,299.532,303.934,299.186,302.207,299.186"/>
	</g>
</g>
<path fill="#191818" d="M370.451,317.676c0-3.02-2.448-5.455-5.465-5.589c-28.713-1.276-48.043-6.744-57.984-11.865
	c-2.684-1.382-6.904-1.382-9.59,0c-9.942,5.121-29.271,10.589-57.983,11.865c-3.017,0.134-5.466,2.569-5.466,5.589v27.161
	c0,0,0.07,0.041,0.195,0.127h136.099c0.125-0.086,0.194-0.127,0.194-0.127V317.676z"/>
<path fill="#191818" d="M302.207,307.552c0.527,0,0.895,0.091,1.006,0.13c13.131,6.748,34.479,11.32,58.873,12.638v21.295
	c-1.498,2.069-3.057,5.072-4.054,9.313c-2.28,9.702-0.931,22.77,4.013,38.836c5.107,16.6-1.272,31.719-19.505,46.221
	c-14.388,11.444-31.921,18.869-40.333,22.248c-8.412-3.379-25.945-10.804-40.332-22.248c-18.232-14.502-24.613-29.621-19.506-46.221
	c4.943-16.066,6.294-29.134,4.014-38.836c-0.998-4.241-2.556-7.243-4.054-9.313V320.32c24.394-1.318,45.743-5.89,58.872-12.638
	C301.313,307.643,301.68,307.552,302.207,307.552 M302.207,299.186c-1.727,0-3.453,0.346-4.795,1.037
	c-9.941,5.12-29.271,10.588-57.984,11.864c-3.016,0.134-5.465,2.57-5.465,5.589v27.161c0,0,11.264,7.192,0.41,42.466
	c-14.918,48.482,55.285,74.915,67.834,79.934c12.549-5.019,82.752-31.451,67.834-79.934c-10.854-35.274,0.41-42.466,0.41-42.466
	v-27.161c0-3.019-2.449-5.455-5.465-5.589c-28.713-1.276-48.042-6.744-57.984-11.864
	C305.66,299.531,303.934,299.186,302.207,299.186"/>
<path fill="#FFFFFF" d="M287.244,336.132v-4.275h-8.189v-3.372l7.044-12.434h5.179v12.253h2.018v3.553h-2.018v4.275H287.244z
	 M287.244,320.146l-4.547,8.158h4.547V320.146z"/>
<path fill="#FFFFFF" d="M294.135,326.106c0-5.179,2.138-10.355,7.105-10.355c4.997,0,7.105,5.177,7.105,10.355
	c0,5.147-2.078,10.387-7.105,10.387C296.272,336.493,294.135,331.254,294.135,326.106 M304.25,326.106
	c0-3.884-0.662-6.773-3.01-6.773c-2.318,0-2.98,2.89-2.98,6.773c0,3.854,0.662,6.805,2.98,6.805
	C303.588,332.911,304.25,329.961,304.25,326.106"/>
<path fill="#FFFFFF" d="M309.547,326.106c0-5.179,2.138-10.355,7.104-10.355c4.998,0,7.106,5.177,7.106,10.355
	c0,5.147-2.078,10.387-7.106,10.387C311.685,336.493,309.547,331.254,309.547,326.106 M319.662,326.106
	c0-3.884-0.662-6.773-3.011-6.773c-2.317,0-2.979,2.89-2.979,6.773c0,3.854,0.662,6.805,2.979,6.805
	C319,332.911,319.662,329.961,319.662,326.106"/>
<path fill="#191818" d="M336.824,403.811c-2.639,0-6.695,0.223-6.695,2.862v15.822c0,2.64,4.057,2.863,6.695,2.863
	c2.64,0,6.695-0.224,6.695-2.863v-15.822C343.52,404.033,339.464,403.811,336.824,403.811"/>
<path fill="#191818" d="M267.089,403.811c-2.64,0-6.695,0.223-6.695,2.862v15.822c0,2.64,4.056,2.863,6.695,2.863
	c2.639,0,6.694-0.224,6.694-2.863v-15.822C273.783,404.033,269.728,403.811,267.089,403.811"/>
<path fill="#FECF0A" d="M261.31,380.321l-4.88,9.532l4.961,20.693c0.129,1.675,1.525,2.994,3.234,2.994
	c6.491,0,12.063,2.508,18.557,2.508c1.627,0,2.971-1.198,3.205-2.761h31.096c0.234,1.563,1.579,2.761,3.206,2.761
	c6.493,0,12.065-2.508,18.557-2.508c1.628,0,2.972-1.198,3.206-2.762h0.016l5.016-20.926l-4.879-9.532H261.31z"/>
<path fill="#FFFFFF" d="M342.467,380.053h-9.593l-3.903-10.064c-0.379-2.744-2.935-4.969-5.705-4.969h-42.619
	c-2.77,0-5.324,2.226-5.705,4.969l-3.902,10.064h-9.593l-0.138,0.269h81.295L342.467,380.053z"/>
<rect x="290.412" y="381.324" fill="#FFFFFF" width="21.572" height="33.363"/>
<path fill="#FFFFFF" d="M278.924,397.196c0,3.937-3.19,7.127-7.127,7.127s-7.127-3.19-7.127-7.127c0-3.936,3.19-7.127,7.127-7.127
	S278.924,393.261,278.924,397.196"/>
<path fill="#191818" d="M271.797,405.703c-4.689,0-8.507-3.815-8.507-8.507c0-4.689,3.817-8.507,8.507-8.507
	c4.69,0,8.506,3.817,8.506,8.507C280.303,401.888,276.487,405.703,271.797,405.703 M271.797,391.449
	c-3.169,0-5.746,2.578-5.746,5.747s2.577,5.747,5.746,5.747c3.17,0,5.746-2.578,5.746-5.747S274.967,391.449,271.797,391.449"/>
<path fill="#191818" d="M274.023,394.864l-4.41,4.692c0.582,0.572,1.379,0.926,2.26,0.926c1.779,0,3.221-1.442,3.221-3.221
	C275.094,396.309,274.681,395.454,274.023,394.864"/>
<path fill="#FFFFFF" d="M338.371,397.196c0,3.937-3.189,7.127-7.126,7.127s-7.127-3.19-7.127-7.127c0-3.936,3.19-7.127,7.127-7.127
	S338.371,393.261,338.371,397.196"/>
<path fill="#191818" d="M331.244,405.703c-4.689,0-8.506-3.815-8.506-8.507c0-4.689,3.816-8.507,8.506-8.507
	c4.69,0,8.508,3.817,8.508,8.507C339.752,401.888,335.935,405.703,331.244,405.703 M331.244,391.449
	c-3.169,0-5.746,2.578-5.746,5.747s2.577,5.747,5.746,5.747c3.17,0,5.747-2.578,5.747-5.747S334.414,391.449,331.244,391.449"/>
<path fill="#191818" d="M333.472,394.864l-4.41,4.692c0.582,0.572,1.379,0.926,2.26,0.926c1.778,0,3.22-1.442,3.22-3.221
	C334.541,396.309,334.129,395.454,333.472,394.864"/>
<path fill="#FFFFFF" d="M316.643,399.025c0-2.312-1.875-4.187-4.188-4.187h-22.234c-2.313,0-4.188,1.875-4.188,4.187
	c0,2.313,1.874,4.188,4.188,4.188h22.234C314.768,403.213,316.643,401.339,316.643,399.025"/>
<path fill="#191818" d="M312.455,404.593h-22.234c-3.07,0-5.568-2.498-5.568-5.567c0-3.069,2.498-5.566,5.568-5.566h22.234
	c3.07,0,5.566,2.498,5.566,5.566C318.021,402.095,315.525,404.593,312.455,404.593 M290.221,396.219
	c-1.549,0-2.809,1.259-2.809,2.807c0,1.549,1.26,2.807,2.809,2.807h22.234c1.548,0,2.807-1.258,2.807-2.807
	c0-1.548-1.259-2.807-2.807-2.807H290.221z"/>
<rect x="268.588" y="378.071" fill="#191818" width="65.471" height="4"/>
<path fill="#191718" d="M337.816,378.577c-1.503,1.502-3.939,1.502-5.439,0c-1.504-1.502-1.504-3.938,0-5.44
	c1.5-1.502,5.71-3.276,7.212-1.773C341.092,372.866,339.318,377.075,337.816,378.577"/>
<path fill="#191718" d="M265.948,378.577c1.502,1.502,3.938,1.502,5.438,0c1.504-1.502,1.504-3.938,0-5.44
	c-1.5-1.502-5.71-3.276-7.212-1.773C262.672,372.866,264.445,377.075,265.948,378.577"/>
<rect x="305.588" y="363.501" transform="matrix(0.8538 0.5207 -0.5207 0.8538 238.6725 -105.4027)" fill="#191818" width="2.759" height="17.337"/>
<rect x="313.365" y="363.5" transform="matrix(0.8538 0.5207 -0.5207 0.8538 239.8098 -109.4517)" fill="#191818" width="2.759" height="17.338"/>
<path fill="#191818" d="M320.688,418.05c-1.957,0-3.714-1.11-4.612-2.762h-28.283c-0.898,1.651-2.656,2.762-4.611,2.762
	c-3.453,0-6.621-0.659-9.687-1.296c-2.998-0.625-5.831-1.213-8.87-1.213c-2.664,0-4.919-2.035-5.212-4.664l-5.101-21.275
	l5.912-11.548h9.445l3.33-8.587c0.631-3.635,3.94-6.447,7.647-6.447h42.618c3.705,0,7.016,2.812,7.647,6.446l3.329,8.588h9.446
	l5.911,11.548l-5.557,23.179h-0.187c-0.897,1.651-2.655,2.761-4.611,2.761c-3.04,0-5.873,0.588-8.87,1.213
	C327.311,417.391,324.141,418.05,320.688,418.05 M284.666,411.288h34.539l0.256,1.703c0.09,0.604,0.618,1.059,1.228,1.059
	c3.04,0,5.873-0.589,8.872-1.214c3.064-0.637,6.232-1.295,9.685-1.295c0.609,0,1.138-0.455,1.229-1.059l0.255-1.702h0.159
	l4.477-18.674l-4.122-8.053h-9.739l-4.482-11.559l-0.032-0.23c-0.243-1.759-1.948-3.245-3.724-3.245h-42.618
	c-1.775,0-3.481,1.486-3.724,3.244l-0.033,0.23l-4.483,11.56h-9.737l-4.123,8.053l4.838,20.287c0.051,0.644,0.594,1.147,1.24,1.147
	c3.451,0,6.62,0.658,9.686,1.295c2.998,0.625,5.83,1.214,8.871,1.214c0.609,0,1.137-0.455,1.228-1.06L284.666,411.288z"/>
<polygon fill="#FFFFFF" points="273.152,323.677 265.695,322.546 262.373,315.448 259.054,322.546 251.595,323.677 256.984,329.211 
	255.637,337.006 262.373,333.325 269.11,337.006 267.764,329.211 "/>
<polygon fill="#FFFFFF" points="352.82,323.677 345.361,322.546 342.041,315.448 338.72,322.546 331.262,323.677 336.651,329.211 
	335.304,337.006 342.041,333.325 348.777,337.006 347.43,329.211 "/>
<path fill="#010101" d="M226.432,437.942c0.916-0.017,1.783-0.026,2.639,0.015c-3.211-4.571-2.291-10.163-4.059-15.119l0.018-0.219
	c5.328,2.008,8.123,6.699,10.73,11.656c1.861,3.592,3.684,7.274,6.34,9.994c-1.109,0.08-2.154,0.229-3.234,0.389
	c-1.123,0.162-2.275,0.386-3.436,0.691c-2.306,0.135-4.58,0.238-6.732,0.167c-4.034-0.171-7.795-0.854-11.037-2.606
	c-1.5-0.797-2.901-1.849-4.131-3.16c0.949-0.154,1.992-0.342,3.029-0.524C219.822,438.671,223.257,438.101,226.432,437.942"/>
<path fill="#010101" d="M216.377,420.396c1.063,1.399,2.535,2.593,3.518,4.192c0.273,0.794,0.599,1.55,0.921,2.329
	c0.784,2.099,1.379,4.127,0.792,5.83c-2.664-1.041-5.365-2.282-7.721-4.482c-1.34-1.617-2.338-3.361-3.035-5.244
	c-1.11-2.955-1.453-6.195-1.075-9.59c0.008-0.114,0.032-0.178,0.024-0.252l0.301-0.285c0.113,0.264,0.263,0.539,0.408,0.824
	C211.936,416.316,214.021,418.195,216.377,420.396"/>
<path fill="#010101" d="M376.557,437.942c-0.916-0.017-1.783-0.026-2.639,0.015c3.211-4.571,2.291-10.163,4.059-15.119l-0.018-0.219
	c-5.328,2.008-8.123,6.699-10.73,11.656c-1.861,3.592-3.684,7.274-6.34,9.994c1.109,0.08,2.154,0.229,3.234,0.389
	c1.123,0.162,2.275,0.386,3.436,0.691c2.306,0.135,4.58,0.238,6.732,0.167c4.034-0.171,7.795-0.854,11.037-2.606
	c1.5-0.797,2.901-1.849,4.131-3.16c-0.949-0.154-1.992-0.342-3.029-0.524C383.166,438.671,379.731,438.101,376.557,437.942"/>
<path fill="#010101" d="M388.037,420.396c-1.062,1.399-2.535,2.593-3.517,4.192c-0.274,0.794-0.599,1.55-0.923,2.329
	c-0.783,2.099-1.377,4.127-0.791,5.83c2.664-1.041,5.365-2.282,7.721-4.482c1.341-1.617,2.338-3.361,3.035-5.244
	c1.111-2.955,1.453-6.195,1.076-9.59c-0.008-0.114-0.033-0.178-0.025-0.252l-0.3-0.285c-0.113,0.264-0.263,0.539-0.409,0.824
	C392.479,416.316,390.393,418.195,388.037,420.396"/>
<path fill="#1A1A19" d="M302.181,471.57c-3.511-1.403-11.533-5.484-20.94-10.254v14.698c11.415,7.014,20.567,11.113,20.567,11.113
	l0.399-0.001l0.398,0.001c0,0,9.152-4.1,20.568-11.113v-14.726c-9.063,4.597-16.848,8.632-20.561,10.109
	C302.463,471.458,302.317,471.517,302.181,471.57"/>
<path fill="#1A1A19" d="M248.91,450.647c8.119,9.569,19.146,17.858,29.014,24.17v-15.224c-9.688-5.161-20.401-12.017-29.014-20.575
	V450.647z"/>
<path fill="#1A1A19" d="M326.49,474.817c9.868-6.312,20.895-14.601,29.014-24.17v-11.686c-8.606,8.569-19.317,15.433-29.014,20.602
	V474.817z"/>
</svg>
