<?xml version="1.0" encoding="utf-8"?>
<!-- Generator: Adobe Illustrator 16.0.0, SVG Export Plug-In . SVG Version: 6.00 Build 0)  -->
<!DOCTYPE svg PUBLIC "-//W3C//DTD SVG 1.1//EN" "http://www.w3.org/Graphics/SVG/1.1/DTD/svg11.dtd">
<svg version="1.1" id="Layer_1" xmlns="http://www.w3.org/2000/svg" xmlns:xlink="http://www.w3.org/1999/xlink" x="0px" y="0px"
	 width="612px" height="792px" viewBox="0 0 612 792" enable-background="new 0 0 612 792" xml:space="preserve">
<path fill="none" d="M346.63,60"/>
<path fill="none" d="M346.63,3305.597"/>
<path fill="#FECF0A" d="M370.687,387.303c-10.15-32.987-1.587-41.101,0.215-42.339h-67.617h-68.481
	c1.803,1.238,10.365,9.352,0.215,42.339c-14.918,48.481,55.285,74.915,67.834,79.935c0.137-0.054,0.283-0.112,0.433-0.172
	C316.922,461.639,385.441,435.257,370.687,387.303"/>
<g opacity="0.6">
	<g>
		<defs>
			<rect id="SVGID_1_" x="302.779" y="344.96" width="69.471" height="122.101"/>
		</defs>
		<clipPath id="SVGID_2_">
			<use xlink:href="#SVGID_1_"  overflow="visible"/>
		</clipPath>
		<path clip-path="url(#SVGID_2_)" fill="#CDA72C" d="M370.186,387.303c-10.15-32.987-1.588-41.101,0.215-42.339h-67.617v122.102
			C316.42,461.639,384.939,435.257,370.186,387.303"/>
	</g>
</g>
<g opacity="0.4">
	<g>
		<defs>
			<rect id="SVGID_3_" x="232.95" y="299.19" width="139.81" height="168.05"/>
		</defs>
		<clipPath id="SVGID_4_">
			<use xlink:href="#SVGID_3_"  overflow="visible"/>
		</clipPath>
		<path clip-path="url(#SVGID_4_)" fill="#FFFFFF" d="M302.853,313.247c12.872,6.204,32.308,10.53,54.446,12.167v14.542
			c-1.518,2.447-2.945,5.632-3.908,9.729c-2.504,10.653-1.121,24.675,4.109,41.676c2.328,7.568,1.855,14.6-1.445,21.499
			c-3.051,6.373-8.518,12.725-16.25,18.875c-12.737,10.132-28.211,17.049-36.952,20.637c-8.742-3.588-24.216-10.505-36.952-20.637
			c-7.732-6.15-13.201-12.502-16.251-18.875c-3.302-6.898-3.774-13.931-1.445-21.499c5.231-17.001,6.613-31.023,4.109-41.676
			c-0.964-4.097-2.39-7.282-3.909-9.729v-14.542C270.543,323.777,289.98,319.451,302.853,313.247 M302.853,299.186
			c-1.728,0-3.453,0.347-4.796,1.037c-9.941,5.12-29.271,10.588-57.983,11.864c-3.017,0.134-5.465,2.57-5.465,5.589v27.161
			c0,0,11.263,7.192,0.409,42.466c-14.918,48.482,55.285,74.915,67.835,79.934c12.549-5.019,82.751-31.451,67.834-79.934
			c-10.854-35.274,0.409-42.466,0.409-42.466v-27.161c0-3.019-2.448-5.455-5.465-5.589c-28.713-1.276-48.041-6.744-57.984-11.864
			C306.305,299.532,304.578,299.186,302.853,299.186"/>
	</g>
</g>
<path fill="#191818" d="M371.096,317.676c0-3.02-2.449-5.455-5.465-5.589c-28.712-1.276-48.042-6.744-57.984-11.865
	c-2.684-1.382-6.904-1.382-9.59,0c-9.941,5.121-29.271,10.589-57.982,11.865c-3.018,0.134-5.467,2.569-5.467,5.589v27.161
	c0,0,0.07,0.041,0.195,0.127h136.1c0.125-0.086,0.193-0.127,0.193-0.127V317.676z"/>
<path fill="#191818" d="M302.853,307.552c0.526,0,0.894,0.091,1.006,0.13c13.13,6.748,34.478,11.32,58.872,12.638v21.295
	c-1.498,2.069-3.057,5.072-4.053,9.313c-2.281,9.702-0.932,22.77,4.013,38.836c5.106,16.6-1.272,31.719-19.505,46.221
	c-14.389,11.444-31.922,18.869-40.333,22.248c-8.413-3.379-25.946-10.804-40.333-22.248c-18.232-14.502-24.613-29.621-19.506-46.221
	c4.943-16.066,6.295-29.134,4.014-38.836c-0.997-4.241-2.555-7.243-4.053-9.313V320.32c24.393-1.318,45.742-5.89,58.871-12.638
	C301.959,307.643,302.325,307.552,302.853,307.552 M302.853,299.186c-1.728,0-3.453,0.346-4.796,1.037
	c-9.941,5.12-29.271,10.588-57.983,11.864c-3.017,0.134-5.465,2.57-5.465,5.589v27.161c0,0,11.263,7.192,0.409,42.466
	c-14.918,48.482,55.285,74.915,67.835,79.934c12.549-5.019,82.751-31.451,67.834-79.934c-10.854-35.274,0.409-42.466,0.409-42.466
	v-27.161c0-3.019-2.448-5.455-5.465-5.589c-28.713-1.276-48.041-6.744-57.984-11.864
	C306.305,299.531,304.578,299.186,302.853,299.186"/>
<path fill="#FFFFFF" d="M279.293,333.332l2.438-2.589c1.054,1.384,2.469,2.168,4.185,2.168c1.927,0,3.041-1.477,3.041-3.162
	c0-1.987-1.054-3.161-2.86-3.161c-1.354,0-2.377,0.482-3.312,1.656l-2.92-0.783v-11.41h12.042v3.553h-8.008v5.148
	c0.783-0.963,2.138-1.656,3.673-1.656c3.041,0,5.479,2.378,5.479,6.533c0,4.034-2.74,6.864-7.015,6.864
	C282.936,336.493,280.799,335.349,279.293,333.332"/>
<path fill="#FFFFFF" d="M294.975,326.106c0-5.179,2.138-10.355,7.105-10.355c4.997,0,7.105,5.177,7.105,10.355
	c0,5.147-2.078,10.387-7.105,10.387C297.112,336.493,294.975,331.254,294.975,326.106 M305.092,326.106
	c0-3.884-0.664-6.773-3.012-6.773c-2.318,0-2.98,2.89-2.98,6.773c0,3.854,0.662,6.805,2.98,6.805
	C304.428,332.911,305.092,329.961,305.092,326.106"/>
<path fill="#FFFFFF" d="M311.141,326.106c0-5.179,2.136-10.355,7.104-10.355c4.998,0,7.105,5.177,7.105,10.355
	c0,5.147-2.078,10.387-7.105,10.387C313.276,336.493,311.141,331.254,311.141,326.106 M321.256,326.106
	c0-3.884-0.662-6.773-3.012-6.773c-2.318,0-2.98,2.89-2.98,6.773c0,3.854,0.662,6.805,2.98,6.805
	C320.594,332.911,321.256,329.961,321.256,326.106"/>
<path fill="#191818" d="M337.469,403.811c-2.639,0-6.695,0.223-6.695,2.862v15.822c0,2.64,4.057,2.863,6.695,2.863
	c2.641,0,6.695-0.224,6.695-2.863v-15.822C344.164,404.033,340.109,403.811,337.469,403.811"/>
<path fill="#191818" d="M267.734,403.811c-2.641,0-6.695,0.223-6.695,2.862v15.822c0,2.64,4.055,2.863,6.695,2.863
	c2.639,0,6.694-0.224,6.694-2.863v-15.822C274.429,404.033,270.373,403.811,267.734,403.811"/>
<path fill="#FECF0A" d="M261.955,380.321l-4.881,9.532l4.962,20.693c0.128,1.675,1.525,2.994,3.233,2.994
	c6.492,0,12.064,2.508,18.557,2.508c1.627,0,2.971-1.198,3.206-2.761h31.095c0.235,1.563,1.58,2.761,3.207,2.761
	c6.492,0,12.064-2.508,18.557-2.508c1.627,0,2.971-1.198,3.205-2.762h0.016l5.016-20.926l-4.879-9.532H261.955z"/>
<path fill="#FFFFFF" d="M343.111,380.053h-9.592l-3.903-10.064c-0.38-2.744-2.935-4.969-5.706-4.969h-42.618
	c-2.771,0-5.325,2.226-5.705,4.969l-3.903,10.064h-9.592l-0.138,0.269h81.294L343.111,380.053z"/>
<rect x="291.057" y="381.324" fill="#FFFFFF" width="21.573" height="33.363"/>
<path fill="#FFFFFF" d="M279.568,397.196c0,3.937-3.191,7.127-7.126,7.127c-3.937,0-7.127-3.19-7.127-7.127
	c0-3.936,3.19-7.127,7.127-7.127C276.377,390.069,279.568,393.261,279.568,397.196"/>
<path fill="#191818" d="M272.441,405.703c-4.689,0-8.507-3.815-8.507-8.507c0-4.689,3.817-8.507,8.507-8.507
	c4.69,0,8.508,3.817,8.508,8.507C280.949,401.888,277.132,405.703,272.441,405.703 M272.441,391.449
	c-3.169,0-5.746,2.578-5.746,5.747s2.577,5.747,5.746,5.747c3.17,0,5.747-2.578,5.747-5.747S275.611,391.449,272.441,391.449"/>
<path fill="#191818" d="M274.668,394.864l-4.408,4.692c0.58,0.572,1.379,0.926,2.258,0.926c1.779,0,3.222-1.442,3.222-3.221
	C275.739,396.309,275.325,395.454,274.668,394.864"/>
<path fill="#FFFFFF" d="M339.017,397.196c0,3.937-3.19,7.127-7.126,7.127c-3.938,0-7.127-3.19-7.127-7.127
	c0-3.936,3.189-7.127,7.127-7.127C335.826,390.069,339.017,393.261,339.017,397.196"/>
<path fill="#191818" d="M331.891,405.703c-4.691,0-8.508-3.815-8.508-8.507c0-4.689,3.816-8.507,8.508-8.507
	c4.689,0,8.506,3.817,8.506,8.507C340.396,401.888,336.58,405.703,331.891,405.703 M331.891,391.449
	c-3.17,0-5.748,2.578-5.748,5.747s2.578,5.747,5.748,5.747c3.168,0,5.745-2.578,5.745-5.747S335.059,391.449,331.891,391.449"/>
<path fill="#191818" d="M334.117,394.864l-4.41,4.692c0.582,0.572,1.379,0.926,2.26,0.926c1.777,0,3.22-1.442,3.22-3.221
	C335.187,396.309,334.773,395.454,334.117,394.864"/>
<path fill="#FFFFFF" d="M317.287,399.025c0-2.312-1.875-4.187-4.187-4.187h-22.236c-2.312,0-4.187,1.875-4.187,4.187
	c0,2.313,1.875,4.188,4.187,4.188h22.236C315.412,403.213,317.287,401.339,317.287,399.025"/>
<path fill="#191818" d="M313.101,404.593h-22.235c-3.07,0-5.566-2.498-5.566-5.567c0-3.069,2.496-5.566,5.566-5.566h22.235
	c3.069,0,5.567,2.498,5.567,5.566C318.668,402.095,316.17,404.593,313.101,404.593 M290.865,396.219
	c-1.549,0-2.808,1.259-2.808,2.807c0,1.549,1.259,2.807,2.808,2.807h22.235c1.548,0,2.808-1.258,2.808-2.807
	c0-1.548-1.26-2.807-2.808-2.807H290.865z"/>
<rect x="269.232" y="378.071" fill="#191818" width="65.473" height="4"/>
<path fill="#191718" d="M338.461,378.577c-1.502,1.502-3.938,1.502-5.44,0c-1.502-1.502-1.502-3.938,0-5.44s5.712-3.276,7.214-1.773
	C341.736,372.866,339.963,377.075,338.461,378.577"/>
<path fill="#191718" d="M266.594,378.577c1.502,1.502,3.938,1.502,5.438,0c1.502-1.502,1.502-3.938,0-5.44
	c-1.501-1.502-5.71-3.276-7.214-1.773C263.316,372.866,265.091,377.075,266.594,378.577"/>
<rect x="306.234" y="363.5" transform="matrix(0.8538 0.5207 -0.5207 0.8538 238.7669 -105.7388)" fill="#191818" width="2.759" height="17.338"/>
<rect x="314.009" y="363.5" transform="matrix(0.8538 0.5207 -0.5207 0.8538 239.904 -109.7873)" fill="#191818" width="2.759" height="17.338"/>
<path fill="#191818" d="M321.333,418.05c-1.956,0-3.714-1.11-4.611-2.762h-28.284c-0.897,1.651-2.654,2.762-4.611,2.762
	c-3.453,0-6.621-0.659-9.687-1.296c-2.998-0.625-5.831-1.213-8.87-1.213c-2.664,0-4.918-2.035-5.212-4.664l-5.101-21.275
	l5.912-11.548h9.445l3.33-8.588c0.631-3.634,3.941-6.446,7.647-6.446h42.618c3.707,0,7.017,2.812,7.647,6.447l3.33,8.587h9.445
	l5.911,11.548l-5.557,23.179h-0.186c-0.896,1.651-2.655,2.761-4.612,2.761c-3.04,0-5.873,0.588-8.87,1.213
	C327.955,417.391,324.785,418.05,321.333,418.05 M285.309,411.288h34.54l0.257,1.702c0.09,0.604,0.618,1.06,1.228,1.06
	c3.04,0,5.873-0.589,8.872-1.214c3.064-0.637,6.232-1.295,9.685-1.295c0.609,0,1.138-0.455,1.229-1.058l0.254-1.703h0.16
	l4.477-18.674l-4.122-8.053h-9.737l-4.484-11.56l-0.032-0.23c-0.243-1.758-1.948-3.244-3.724-3.244h-42.618
	c-1.775,0-3.481,1.486-3.724,3.245l-0.033,0.23l-4.482,11.559h-9.738l-4.123,8.053l4.838,20.287c0.051,0.644,0.594,1.147,1.24,1.147
	c3.451,0,6.62,0.658,9.686,1.295c2.998,0.625,5.83,1.214,8.871,1.214c0.609,0,1.137-0.455,1.228-1.059L285.309,411.288z"/>
<polygon fill="#FFFFFF" points="273.798,323.677 266.34,322.546 263.019,315.448 259.699,322.546 252.24,323.677 257.629,329.211 
	256.281,337.006 263.019,333.325 269.756,337.006 268.408,329.211 "/>
<polygon fill="#FFFFFF" points="353.465,323.677 346.006,322.546 342.686,315.448 339.365,322.546 331.906,323.677 337.296,329.211 
	335.948,337.006 342.686,333.325 349.422,337.006 348.075,329.211 "/>
<path fill="#010101" d="M377.218,437.942c-0.916-0.017-1.783-0.026-2.638,0.015c3.211-4.571,2.289-10.163,4.058-15.119l-0.017-0.219
	c-5.33,2.008-8.125,6.699-10.731,11.656c-1.861,3.592-3.683,7.274-6.339,9.994c1.109,0.08,2.152,0.229,3.234,0.389
	c1.121,0.162,2.274,0.386,3.435,0.691c2.306,0.135,4.581,0.238,6.731,0.167c4.035-0.171,7.795-0.854,11.037-2.606
	c1.502-0.797,2.902-1.849,4.131-3.16c-0.949-0.154-1.992-0.342-3.027-0.524C383.826,438.671,380.393,438.101,377.218,437.942"/>
<path fill="#010101" d="M390.217,420.111c-1.494-5.036-4.273-10.122-3.863-15.641l-0.144-0.219l-0.374,0.164
	c-0.044,0.036-0.097,0.108-0.1,0.145c-0.293,0.5-0.602,0.786-1.137,1.3c-3.806,6.707-3.23,14.78-1.275,21.92
	c0.32,1.177,0.652,2.296,1.063,3.425c3.422-2.676,7.644-3.358,11.442-5.306c0.342-0.207,0.677-0.37,1.03-0.582
	c3.658-2.641,5.885-7.007,6.841-11.183c-2.373,0.757-4.701,1.367-6.876,2.186C394.479,417.166,392.216,418.309,390.217,420.111"/>
<path fill="#010101" d="M214.133,397.224c0.117,1.753,0.689,3.561,0.63,5.436c-0.208,0.813-0.353,1.625-0.511,2.452
	c-0.5,2.185-1.121,4.205-2.549,5.305c-1.65-2.336-3.224-4.857-3.979-7.992c-0.229-2.088-0.103-4.092,0.351-6.048
	c0.699-3.078,2.195-5.973,4.379-8.6c0.069-0.091,0.125-0.13,0.158-0.196l0.409-0.074c-0.052,0.283-0.078,0.595-0.112,0.913
	C212.67,391.374,213.377,394.09,214.133,397.224"/>
<path fill="#010101" d="M391.963,397.224c-0.117,1.753-0.69,3.561-0.631,5.436c0.209,0.813,0.354,1.625,0.513,2.452
	c0.499,2.185,1.119,4.205,2.547,5.305c1.651-2.336,3.224-4.857,3.979-7.992c0.23-2.088,0.104-4.092-0.351-6.048
	c-0.698-3.078-2.194-5.973-4.378-8.6c-0.07-0.091-0.126-0.13-0.158-0.196l-0.408-0.074c0.051,0.283,0.076,0.595,0.111,0.913
	C393.427,391.374,392.719,394.09,391.963,397.224"/>
<path fill="#010101" d="M228.487,437.942c0.915-0.017,1.782-0.026,2.638,0.015c-3.212-4.571-2.291-10.163-4.059-15.119l0.018-0.219
	c5.329,2.008,8.124,6.699,10.73,11.656c1.861,3.592,3.684,7.274,6.34,9.994c-1.109,0.08-2.153,0.229-3.234,0.389
	c-1.122,0.162-2.275,0.386-3.436,0.691c-2.305,0.135-4.58,0.238-6.732,0.167c-4.035-0.171-7.794-0.854-11.036-2.606
	c-1.502-0.797-2.901-1.849-4.131-3.16c0.948-0.154,1.992-0.342,3.028-0.524C221.877,438.671,225.311,438.101,228.487,437.942"/>
<path fill="#010101" d="M215.487,420.111c1.493-5.036,4.274-10.122,3.864-15.641l0.143-0.219l0.374,0.164
	c0.044,0.036,0.097,0.108,0.101,0.145c0.293,0.5,0.602,0.786,1.137,1.3c3.805,6.707,3.229,14.78,1.274,21.92
	c-0.319,1.177-0.653,2.296-1.062,3.425c-3.424-2.676-7.645-3.358-11.443-5.306c-0.342-0.207-0.677-0.37-1.029-0.582
	c-3.66-2.641-5.886-7.007-6.842-11.183c2.373,0.757,4.701,1.367,6.877,2.186C211.227,417.166,213.488,418.309,215.487,420.111"/>
<path fill="#1A1A19" d="M302.826,471.57c-3.511-1.403-11.533-5.484-20.941-10.254v14.698c11.416,7.014,20.568,11.113,20.568,11.113
	l0.398-0.001l0.398,0.001c0,0,9.153-4.1,20.568-11.113v-14.726c-9.063,4.597-16.847,8.632-20.561,10.109
	C303.107,471.458,302.963,471.517,302.826,471.57"/>
<path fill="#1A1A19" d="M249.556,450.647c8.118,9.569,19.146,17.858,29.014,24.17v-15.224c-9.688-5.161-20.401-12.017-29.014-20.575
	V450.647z"/>
<path fill="#1A1A19" d="M327.135,474.817c9.869-6.312,20.895-14.601,29.014-24.17v-11.686c-8.605,8.569-19.316,15.433-29.014,20.602
	V474.817z"/>
</svg>
