<?xml version="1.0" encoding="utf-8"?>
<!-- Generator: Adobe Illustrator 16.0.0, SVG Export Plug-In . SVG Version: 6.00 Build 0)  -->
<!DOCTYPE svg PUBLIC "-//W3C//DTD SVG 1.1//EN" "http://www.w3.org/Graphics/SVG/1.1/DTD/svg11.dtd">
<svg version="1.1" id="Layer_1" xmlns="http://www.w3.org/2000/svg" xmlns:xlink="http://www.w3.org/1999/xlink" x="0px" y="0px"
	 width="240px" height="200px" viewBox="0 0 240 200" enable-background="new 0 0 240 200" xml:space="preserve">
<path fill="#FDD00F" d="M184.911,94.303c-10.149-32.986-1.587-41.101,0.215-42.339h-67.617H49.028
	c1.803,1.238,10.365,9.353,0.215,42.339c-14.918,48.481,55.285,74.915,67.834,79.936c0.137-0.055,0.283-0.112,0.433-0.172
	C131.146,168.639,199.666,142.257,184.911,94.303"/>
<g opacity="0.6">
	<g>
		<g>
			<defs>
				<rect id="SVGID_1_" x="117.26" y="51.21" width="69.471" height="122.101"/>
			</defs>
			<clipPath id="SVGID_2_">
				<use xlink:href="#SVGID_1_"  overflow="visible"/>
			</clipPath>
			<path clip-path="url(#SVGID_2_)" fill="#CDA72C" d="M184.66,93.551c-10.15-32.988-1.588-41.101,0.215-42.339h-67.617v122.101
				C130.895,167.887,199.415,141.505,184.66,93.551"/>
		</g>
	</g>
</g>
<g opacity="0.4">
	<g>
		<g>
			<defs>
				<rect id="SVGID_3_" x="47.17" y="6.19" width="139.811" height="168.05"/>
			</defs>
			<clipPath id="SVGID_4_">
				<use xlink:href="#SVGID_3_"  overflow="visible"/>
			</clipPath>
			<path clip-path="url(#SVGID_4_)" fill="#FFFFFF" d="M117.076,20.247c12.873,6.204,32.309,10.53,54.447,12.167v14.542
				c-1.519,2.447-2.945,5.632-3.908,9.729c-2.504,10.653-1.121,24.676,4.109,41.677c2.327,7.567,1.854,14.6-1.445,21.499
				c-3.051,6.373-8.519,12.725-16.252,18.875c-12.736,10.132-28.209,17.049-36.951,20.637c-8.74-3.588-24.215-10.505-36.951-20.637
				c-7.733-6.15-13.201-12.502-16.252-18.875c-3.3-6.898-3.772-13.932-1.443-21.5c5.229-17,6.613-31.022,4.109-41.676
				c-0.964-4.097-2.392-7.281-3.91-9.729V32.414C84.768,30.777,104.205,26.451,117.076,20.247 M117.076,6.186
				c-1.726,0-3.453,0.347-4.794,1.037c-9.942,5.12-29.272,10.587-57.983,11.864c-3.018,0.134-5.467,2.57-5.467,5.589v27.161
				c0,0,11.264,7.192,0.41,42.466c-14.917,48.482,55.285,74.915,67.834,79.935c12.549-5.02,82.752-31.451,67.834-79.935
				c-10.854-35.273,0.41-42.466,0.41-42.466V24.676c0-3.019-2.449-5.455-5.465-5.589c-28.713-1.276-48.043-6.744-57.984-11.864
				C120.529,6.532,118.803,6.186,117.076,6.186"/>
		</g>
	</g>
</g>
<path fill="#191818" d="M185.32,24.676c0-3.02-2.449-5.455-5.465-5.589c-28.713-1.276-48.043-6.744-57.984-11.865
	c-2.684-1.382-6.904-1.382-9.59,0c-9.941,5.121-29.271,10.588-57.982,11.865c-3.018,0.134-5.467,2.569-5.467,5.589v27.161
	c0,0,0.07,0.041,0.195,0.127h136.1c0.125-0.086,0.193-0.127,0.193-0.127V24.676z"/>
<path fill="#FFFFFF" d="M91.033,43.132v-3.251c7.346-7.135,8.881-8.73,8.881-11.019c0-1.535-1.174-2.529-2.679-2.529
	c-1.776,0-3.19,0.813-4.274,2.258l-2.408-2.529c1.625-2.168,4.003-3.311,6.742-3.311c3.885,0,6.715,2.348,6.715,6.081
	c0,3.041-2.047,5.63-7.016,10.748h7.105v3.552H91.033L91.033,43.132z"/>
<path fill="#FFFFFF" d="M106.084,41.145c0-1.265,1.084-2.349,2.35-2.349c1.263,0,2.316,1.084,2.316,2.349
	c0,1.266-1.054,2.318-2.316,2.318C107.168,43.463,106.084,42.409,106.084,41.145"/>
<path fill="#FFFFFF" d="M112.617,40.332l2.438-2.589c1.054,1.384,2.469,2.168,4.185,2.168c1.927,0,3.039-1.478,3.039-3.162
	c0-1.987-1.053-3.161-2.858-3.161c-1.354,0-2.379,0.482-3.312,1.656l-2.921-0.783v-11.41h12.042v3.554h-8.008v5.147
	c0.784-0.963,2.138-1.656,3.673-1.656c3.041,0,5.48,2.378,5.48,6.533c0,4.034-2.74,6.864-7.016,6.864
	C116.26,43.493,114.121,42.349,112.617,40.332"/>
<polygon fill="#FFFFFF" points="138.445,43.132 133.809,35.273 132.395,37.503 132.395,43.132 128.359,43.132 128.359,23.051 
	132.395,23.051 132.395,32.174 138.053,23.051 142.75,23.051 136.338,32.505 143.201,43.132 "/>
<g>
	<g>
		<defs>
			<path id="SVGID_5_" d="M112.281,7.222c-9.942,5.122-29.27,10.589-57.983,11.866c-3.016,0.132-5.466,2.568-5.466,5.588v27.161
				c0,0,11.264,7.192,0.411,42.467c-14.918,48.48,55.284,74.914,67.835,79.935c12.547-5.021,82.75-31.453,67.833-79.935
				c-10.853-35.273,0.409-42.467,0.409-42.467V24.676c0-3.02-2.447-5.456-5.465-5.588c-28.711-1.276-48.041-6.744-57.983-11.866
				c-1.343-0.69-3.069-1.036-4.795-1.036C115.35,6.186,113.624,6.531,112.281,7.222"/>
		</defs>
		<clipPath id="SVGID_6_">
			<use xlink:href="#SVGID_5_"  overflow="visible"/>
		</clipPath>
		<polygon clip-path="url(#SVGID_6_)" fill="#FFFFFF" points="196.023,87.403 196.023,93.291 117.533,112.912 117.533,95.252 
			191.583,87.848 		"/>
	</g>
	<g>
		<defs>
			<path id="SVGID_7_" d="M112.281,7.222c-9.942,5.122-29.27,10.589-57.983,11.866c-3.016,0.132-5.466,2.568-5.466,5.588v27.161
				c0,0,11.264,7.192,0.411,42.467c-14.918,48.48,55.284,74.914,67.835,79.935c12.547-5.021,82.75-31.453,67.833-79.935
				c-10.853-35.273,0.409-42.467,0.409-42.467V24.676c0-3.02-2.447-5.456-5.465-5.588c-28.711-1.276-48.041-6.744-57.983-11.866
				c-1.343-0.69-3.069-1.036-4.795-1.036C115.35,6.186,113.624,6.531,112.281,7.222"/>
		</defs>
		<clipPath id="SVGID_8_">
			<use xlink:href="#SVGID_7_"  overflow="visible"/>
		</clipPath>
		<polygon clip-path="url(#SVGID_8_)" fill="#FFFFFF" points="38.607,87.403 38.607,93.291 117.098,112.912 117.098,95.252 
			43.047,87.848 		"/>
	</g>
	<g>
		<defs>
			<path id="SVGID_9_" d="M112.281,7.222c-9.942,5.122-29.27,10.589-57.983,11.866c-3.016,0.132-5.466,2.568-5.466,5.588v27.161
				c0,0,11.264,7.192,0.411,42.467c-14.918,48.48,55.284,74.914,67.835,79.935c12.547-5.021,82.75-31.453,67.833-79.935
				c-10.853-35.273,0.409-42.467,0.409-42.467V24.676c0-3.02-2.447-5.456-5.465-5.588c-28.711-1.276-48.041-6.744-57.983-11.866
				c-1.343-0.69-3.069-1.036-4.795-1.036C115.35,6.186,113.624,6.531,112.281,7.222"/>
		</defs>
		<clipPath id="SVGID_10_">
			<use xlink:href="#SVGID_9_"  overflow="visible"/>
		</clipPath>
		<polygon clip-path="url(#SVGID_10_)" fill="#FDD00F" points="98.389,99.988 39.475,90.306 39.475,92.931 98.553,108.357 		"/>
	</g>
	<g>
		<defs>
			<path id="SVGID_11_" d="M112.281,7.222c-9.942,5.122-29.27,10.589-57.983,11.866c-3.016,0.132-5.466,2.568-5.466,5.588v27.161
				c0,0,11.264,7.192,0.411,42.467c-14.918,48.48,55.284,74.914,67.835,79.935c12.547-5.021,82.75-31.453,67.833-79.935
				c-10.853-35.273,0.409-42.467,0.409-42.467V24.676c0-3.02-2.447-5.456-5.465-5.588c-28.711-1.276-48.041-6.744-57.983-11.866
				c-1.343-0.69-3.069-1.036-4.795-1.036C115.35,6.186,113.624,6.531,112.281,7.222"/>
		</defs>
		<clipPath id="SVGID_12_">
			<use xlink:href="#SVGID_11_"  overflow="visible"/>
		</clipPath>
		<polygon clip-path="url(#SVGID_12_)" fill="#FDD00F" points="136.134,99.988 195.047,90.306 195.047,92.931 135.971,108.357 		"/>
	</g>
	<g>
		<defs>
			<path id="SVGID_13_" d="M112.281,7.222c-9.942,5.122-29.27,10.589-57.983,11.866c-3.016,0.132-5.466,2.568-5.466,5.588v27.161
				c0,0,11.264,7.192,0.411,42.467c-14.918,48.48,55.284,74.914,67.835,79.935c12.547-5.021,82.75-31.453,67.833-79.935
				c-10.853-35.273,0.409-42.467,0.409-42.467V24.676c0-3.02-2.447-5.456-5.465-5.588c-28.711-1.276-48.041-6.744-57.983-11.866
				c-1.343-0.69-3.069-1.036-4.795-1.036C115.35,6.186,113.624,6.531,112.281,7.222"/>
		</defs>
		<clipPath id="SVGID_14_">
			<use xlink:href="#SVGID_13_"  overflow="visible"/>
		</clipPath>
		<polygon clip-path="url(#SVGID_14_)" fill="#FDD00F" points="123.236,87.403 110.959,87.403 115.135,63.486 119.06,63.486 		"/>
	</g>
	<g>
		<defs>
			<path id="SVGID_15_" d="M112.281,7.222c-9.942,5.122-29.27,10.589-57.983,11.866c-3.016,0.132-5.466,2.568-5.466,5.588v27.161
				c0,0,11.264,7.192,0.411,42.467c-14.918,48.48,55.284,74.914,67.835,79.935c12.547-5.021,82.75-31.453,67.833-79.935
				c-10.853-35.273,0.409-42.467,0.409-42.467V24.676c0-3.02-2.447-5.456-5.465-5.588c-28.711-1.276-48.041-6.744-57.983-11.866
				c-1.343-0.69-3.069-1.036-4.795-1.036C115.35,6.186,113.624,6.531,112.281,7.222"/>
		</defs>
		<clipPath id="SVGID_16_">
			<use xlink:href="#SVGID_15_"  overflow="visible"/>
		</clipPath>
		<path clip-path="url(#SVGID_16_)" fill="#191818" d="M125.025,88.908h-15.857l4.702-26.927h6.453L125.025,88.908z M112.75,85.898
			h8.693l-3.648-20.907h-1.396L112.75,85.898z"/>
	</g>
	<g>
		<defs>
			<path id="SVGID_17_" d="M112.281,7.222c-9.942,5.122-29.27,10.589-57.983,11.866c-3.016,0.132-5.466,2.568-5.466,5.588v27.161
				c0,0,11.264,7.192,0.411,42.467c-14.918,48.48,55.284,74.914,67.835,79.935c12.547-5.021,82.75-31.453,67.833-79.935
				c-10.853-35.273,0.409-42.467,0.409-42.467V24.676c0-3.02-2.447-5.456-5.465-5.588c-28.711-1.276-48.041-6.744-57.983-11.866
				c-1.343-0.69-3.069-1.036-4.795-1.036C115.35,6.186,113.624,6.531,112.281,7.222"/>
		</defs>
		<clipPath id="SVGID_18_">
			<use xlink:href="#SVGID_17_"  overflow="visible"/>
		</clipPath>
		<path clip-path="url(#SVGID_18_)" fill="#191818" d="M115.526,115.483V93.436l82.503-8.251v9.673L115.526,115.483z
			 M119.541,97.068v13.272l74.475-18.619V89.62L119.541,97.068z"/>
	</g>
	<g>
		<defs>
			<path id="SVGID_19_" d="M112.281,7.222c-9.942,5.122-29.27,10.589-57.983,11.866c-3.016,0.132-5.466,2.568-5.466,5.588v27.161
				c0,0,11.264,7.192,0.411,42.467c-14.918,48.48,55.284,74.914,67.835,79.935c12.547-5.021,82.75-31.453,67.833-79.935
				c-10.853-35.273,0.409-42.467,0.409-42.467V24.676c0-3.02-2.447-5.456-5.465-5.588c-28.711-1.276-48.041-6.744-57.983-11.866
				c-1.343-0.69-3.069-1.036-4.795-1.036C115.35,6.186,113.624,6.531,112.281,7.222"/>
		</defs>
		<clipPath id="SVGID_20_">
			<use xlink:href="#SVGID_19_"  overflow="visible"/>
		</clipPath>
		<path clip-path="url(#SVGID_20_)" fill="#FFFFFF" d="M156.102,108.814c0,3.251,2.635,5.887,5.887,5.887
			c3.251,0,5.886-2.636,5.886-5.887c0-3.252-2.636-5.889-5.886-5.889C158.736,102.926,156.102,105.563,156.102,108.814"/>
	</g>
	<g>
		<defs>
			<path id="SVGID_21_" d="M112.281,7.222c-9.942,5.122-29.27,10.589-57.983,11.866c-3.016,0.132-5.466,2.568-5.466,5.588v27.161
				c0,0,11.264,7.192,0.411,42.467c-14.918,48.48,55.284,74.914,67.835,79.935c12.547-5.021,82.75-31.453,67.833-79.935
				c-10.853-35.273,0.409-42.467,0.409-42.467V24.676c0-3.02-2.447-5.456-5.465-5.588c-28.711-1.276-48.041-6.744-57.983-11.866
				c-1.343-0.69-3.069-1.036-4.795-1.036C115.35,6.186,113.624,6.531,112.281,7.222"/>
		</defs>
		<clipPath id="SVGID_22_">
			<use xlink:href="#SVGID_21_"  overflow="visible"/>
		</clipPath>
		<path clip-path="url(#SVGID_22_)" fill="#191818" d="M161.986,116.205c-4.076,0-7.393-3.315-7.393-7.391
			c0-4.076,3.315-7.394,7.393-7.394c4.076,0,7.393,3.316,7.393,7.394C169.379,112.89,166.063,116.205,161.986,116.205
			 M161.986,104.432c-2.416,0-4.383,1.967-4.383,4.384c0,2.416,1.967,4.382,4.383,4.382s4.383-1.966,4.383-4.382
			C166.369,106.398,164.402,104.432,161.986,104.432"/>
	</g>
	<g>
		<defs>
			<path id="SVGID_23_" d="M112.281,7.222c-9.942,5.122-29.27,10.589-57.983,11.866c-3.016,0.132-5.466,2.568-5.466,5.588v27.161
				c0,0,11.264,7.192,0.411,42.467c-14.918,48.48,55.284,74.914,67.835,79.935c12.547-5.021,82.75-31.453,67.833-79.935
				c-10.853-35.273,0.409-42.467,0.409-42.467V24.676c0-3.02-2.447-5.456-5.465-5.588c-28.711-1.276-48.041-6.744-57.983-11.866
				c-1.343-0.69-3.069-1.036-4.795-1.036C115.35,6.186,113.624,6.531,112.281,7.222"/>
		</defs>
		<clipPath id="SVGID_24_">
			<use xlink:href="#SVGID_23_"  overflow="visible"/>
		</clipPath>
		<path clip-path="url(#SVGID_24_)" fill="#191818" d="M119.104,115.482L36.6,94.857v-9.673l82.504,8.251V115.482z M40.613,91.724
			l74.477,18.619V97.069l-74.477-7.448V91.724z"/>
	</g>
	<g>
		<defs>
			<path id="SVGID_25_" d="M112.281,7.222c-9.942,5.122-29.27,10.589-57.983,11.866c-3.016,0.132-5.466,2.568-5.466,5.588v27.161
				c0,0,11.264,7.192,0.411,42.467c-14.918,48.48,55.284,74.914,67.835,79.935c12.547-5.021,82.75-31.453,67.833-79.935
				c-10.853-35.273,0.409-42.467,0.409-42.467V24.676c0-3.02-2.447-5.456-5.465-5.588c-28.711-1.276-48.041-6.744-57.983-11.866
				c-1.343-0.69-3.069-1.036-4.795-1.036C115.35,6.186,113.624,6.531,112.281,7.222"/>
		</defs>
		<clipPath id="SVGID_26_">
			<use xlink:href="#SVGID_25_"  overflow="visible"/>
		</clipPath>
		<path clip-path="url(#SVGID_26_)" fill="#191818" d="M115.366,90.858v-9.083l24.886-2.489v5.35L115.366,90.858z M119.381,85.407
			v0.311l2.064-0.517L119.381,85.407z"/>
	</g>
	<g>
		<defs>
			<path id="SVGID_27_" d="M112.281,7.222c-9.942,5.122-29.27,10.589-57.983,11.866c-3.016,0.132-5.466,2.568-5.466,5.588v27.161
				c0,0,11.264,7.192,0.411,42.467c-14.918,48.48,55.284,74.914,67.835,79.935c12.547-5.021,82.75-31.453,67.833-79.935
				c-10.853-35.273,0.409-42.467,0.409-42.467V24.676c0-3.02-2.447-5.456-5.465-5.588c-28.711-1.276-48.041-6.744-57.983-11.866
				c-1.343-0.69-3.069-1.036-4.795-1.036C115.35,6.186,113.624,6.531,112.281,7.222"/>
		</defs>
		<clipPath id="SVGID_28_">
			<use xlink:href="#SVGID_27_"  overflow="visible"/>
		</clipPath>
		<path clip-path="url(#SVGID_28_)" fill="#191818" d="M119.264,90.858l-24.887-6.223v-5.351l24.887,2.49V90.858z M113.184,85.201
			l2.066,0.517v-0.31L113.184,85.201z"/>
	</g>
	<g>
		<defs>
			<path id="SVGID_29_" d="M112.281,7.222c-9.942,5.122-29.27,10.589-57.983,11.866c-3.016,0.132-5.466,2.568-5.466,5.588v27.161
				c0,0,11.264,7.192,0.411,42.467c-14.918,48.48,55.284,74.914,67.835,79.935c12.547-5.021,82.75-31.453,67.833-79.935
				c-10.853-35.273,0.409-42.467,0.409-42.467V24.676c0-3.02-2.447-5.456-5.465-5.588c-28.711-1.276-48.041-6.744-57.983-11.866
				c-1.343-0.69-3.069-1.036-4.795-1.036C115.35,6.186,113.624,6.531,112.281,7.222"/>
		</defs>
		<clipPath id="SVGID_30_">
			<use xlink:href="#SVGID_29_"  overflow="visible"/>
		</clipPath>
		<path clip-path="url(#SVGID_30_)" fill="#FDD00F" d="M138.682,103.102c0,11.922-9.664,21.585-21.584,21.585
			c-11.921,0-21.584-9.663-21.584-21.585c0-11.921,9.663-21.585,21.584-21.585C129.018,81.517,138.682,91.181,138.682,103.102"/>
	</g>
	<g>
		<defs>
			<path id="SVGID_31_" d="M112.281,7.222c-9.942,5.122-29.27,10.589-57.983,11.866c-3.016,0.132-5.466,2.568-5.466,5.588v27.161
				c0,0,11.264,7.192,0.411,42.467c-14.918,48.48,55.284,74.914,67.835,79.935c12.547-5.021,82.75-31.453,67.833-79.935
				c-10.853-35.273,0.409-42.467,0.409-42.467V24.676c0-3.02-2.447-5.456-5.465-5.588c-28.711-1.276-48.041-6.744-57.983-11.866
				c-1.343-0.69-3.069-1.036-4.795-1.036C115.35,6.186,113.624,6.531,112.281,7.222"/>
		</defs>
		<clipPath id="SVGID_32_">
			<use xlink:href="#SVGID_31_"  overflow="visible"/>
		</clipPath>
		<path clip-path="url(#SVGID_32_)" fill="#FFFFFF" d="M117.098,81.517c-11.922,0-21.585,9.664-21.585,21.585
			c0,11.922,9.663,21.584,21.585,21.584c0.027,0,0.055-0.002,0.081-0.002V81.519C117.152,81.519,117.125,81.517,117.098,81.517"/>
	</g>
	<g>
		<defs>
			<path id="SVGID_33_" d="M112.281,7.222c-9.942,5.122-29.27,10.589-57.983,11.866c-3.016,0.132-5.466,2.568-5.466,5.588v27.161
				c0,0,11.264,7.192,0.411,42.467c-14.918,48.48,55.284,74.914,67.835,79.935c12.547-5.021,82.75-31.453,67.833-79.935
				c-10.853-35.273,0.409-42.467,0.409-42.467V24.676c0-3.02-2.447-5.456-5.465-5.588c-28.711-1.276-48.041-6.744-57.983-11.866
				c-1.343-0.69-3.069-1.036-4.795-1.036C115.35,6.186,113.624,6.531,112.281,7.222"/>
		</defs>
		<clipPath id="SVGID_34_">
			<use xlink:href="#SVGID_33_"  overflow="visible"/>
		</clipPath>
		<path clip-path="url(#SVGID_34_)" fill="#191818" d="M117.098,126.692c-13.01,0-23.593-10.583-23.593-23.592
			c0-13.008,10.583-23.592,23.593-23.592c13.007,0,23.591,10.584,23.591,23.592C140.689,116.109,130.105,126.692,117.098,126.692
			 M117.098,83.523c-10.797,0-19.578,8.782-19.578,19.577c0,10.797,8.781,19.578,19.578,19.578c10.794,0,19.577-8.781,19.577-19.578
			C136.675,92.307,127.893,83.523,117.098,83.523"/>
	</g>
	<g>
		<defs>
			<path id="SVGID_35_" d="M112.281,7.222c-9.942,5.122-29.27,10.589-57.983,11.866c-3.016,0.132-5.466,2.568-5.466,5.588v27.161
				c0,0,11.264,7.192,0.411,42.467c-14.918,48.48,55.284,74.914,67.835,79.935c12.547-5.021,82.75-31.453,67.833-79.935
				c-10.853-35.273,0.409-42.467,0.409-42.467V24.676c0-3.02-2.447-5.456-5.465-5.588c-28.711-1.276-48.041-6.744-57.983-11.866
				c-1.343-0.69-3.069-1.036-4.795-1.036C115.35,6.186,113.624,6.531,112.281,7.222"/>
		</defs>
		<clipPath id="SVGID_36_">
			<use xlink:href="#SVGID_35_"  overflow="visible"/>
		</clipPath>
		<path clip-path="url(#SVGID_36_)" fill="#FFFFFF" d="M78.53,109.817c0,3.251-2.636,5.888-5.888,5.888
			c-3.25,0-5.886-2.637-5.886-5.888s2.636-5.888,5.886-5.888C75.895,103.931,78.53,106.566,78.53,109.817"/>
	</g>
	<g>
		<defs>
			<path id="SVGID_37_" d="M112.281,7.222c-9.942,5.122-29.27,10.589-57.983,11.866c-3.016,0.132-5.466,2.568-5.466,5.588v27.161
				c0,0,11.264,7.192,0.411,42.467c-14.918,48.48,55.284,74.914,67.835,79.935c12.547-5.021,82.75-31.453,67.833-79.935
				c-10.853-35.273,0.409-42.467,0.409-42.467V24.676c0-3.02-2.447-5.456-5.465-5.588c-28.711-1.276-48.041-6.744-57.983-11.866
				c-1.343-0.69-3.069-1.036-4.795-1.036C115.35,6.186,113.624,6.531,112.281,7.222"/>
		</defs>
		<clipPath id="SVGID_38_">
			<use xlink:href="#SVGID_37_"  overflow="visible"/>
		</clipPath>
		<path clip-path="url(#SVGID_38_)" fill="#191818" d="M72.643,116.205c-4.076,0-7.392-3.315-7.392-7.391
			c0-4.076,3.315-7.394,7.392-7.394s7.393,3.316,7.393,7.394C80.035,112.89,76.719,116.205,72.643,116.205 M72.643,104.432
			c-2.416,0-4.382,1.967-4.382,4.384c0,2.416,1.966,4.382,4.382,4.382s4.383-1.966,4.383-4.382
			C77.025,106.398,75.059,104.432,72.643,104.432"/>
	</g>
	<g>
		<defs>
			<path id="SVGID_39_" d="M112.281,7.222c-9.942,5.122-29.27,10.589-57.983,11.866c-3.016,0.132-5.466,2.568-5.466,5.588v27.161
				c0,0,11.264,7.192,0.411,42.467c-14.918,48.48,55.284,74.914,67.835,79.935c12.547-5.021,82.75-31.453,67.833-79.935
				c-10.853-35.273,0.409-42.467,0.409-42.467V24.676c0-3.02-2.447-5.456-5.465-5.588c-28.711-1.276-48.041-6.744-57.983-11.866
				c-1.343-0.69-3.069-1.036-4.795-1.036C115.35,6.186,113.624,6.531,112.281,7.222"/>
		</defs>
		<clipPath id="SVGID_40_">
			<use xlink:href="#SVGID_39_"  overflow="visible"/>
		</clipPath>
		<polygon clip-path="url(#SVGID_40_)" fill="#191818" points="102.132,98.576 106.088,94.62 114,96.598 114,102.532 		"/>
	</g>
	<g>
		<defs>
			<path id="SVGID_41_" d="M112.281,7.222c-9.942,5.122-29.27,10.589-57.983,11.866c-3.016,0.132-5.466,2.568-5.466,5.588v27.161
				c0,0,11.264,7.192,0.411,42.467c-14.918,48.48,55.284,74.914,67.835,79.935c12.547-5.021,82.75-31.453,67.833-79.935
				c-10.853-35.273,0.409-42.467,0.409-42.467V24.676c0-3.02-2.447-5.456-5.465-5.588c-28.711-1.276-48.041-6.744-57.983-11.866
				c-1.343-0.69-3.069-1.036-4.795-1.036C115.35,6.186,113.624,6.531,112.281,7.222"/>
		</defs>
		<clipPath id="SVGID_42_">
			<use xlink:href="#SVGID_41_"  overflow="visible"/>
		</clipPath>
		<polygon clip-path="url(#SVGID_42_)" fill="#191818" points="132.611,98.576 128.654,94.62 120.742,96.598 120.742,102.532 		"/>
	</g>
	<g>
		<defs>
			<path id="SVGID_43_" d="M112.281,7.222c-9.942,5.122-29.27,10.589-57.983,11.866c-3.016,0.132-5.466,2.568-5.466,5.588v27.161
				c0,0,11.264,7.192,0.411,42.467c-14.918,48.48,55.284,74.914,67.835,79.935c12.547-5.021,82.75-31.453,67.833-79.935
				c-10.853-35.273,0.409-42.467,0.409-42.467V24.676c0-3.02-2.447-5.456-5.465-5.588c-28.711-1.276-48.041-6.744-57.983-11.866
				c-1.343-0.69-3.069-1.036-4.795-1.036C115.35,6.186,113.624,6.531,112.281,7.222"/>
		</defs>
		<clipPath id="SVGID_44_">
			<use xlink:href="#SVGID_43_"  overflow="visible"/>
		</clipPath>
		<path clip-path="url(#SVGID_44_)" fill="#191818" d="M138.305,123.943c-1.738,0-4.408,0.146-4.408,1.886v10.414
			c0,1.737,2.67,1.885,4.408,1.885c1.736,0,1.945-0.146,1.945-1.885v-10.414C140.25,124.091,140.041,123.943,138.305,123.943"/>
	</g>
	<g>
		<defs>
			<path id="SVGID_45_" d="M112.281,7.222c-9.942,5.122-29.27,10.589-57.983,11.866c-3.016,0.132-5.466,2.568-5.466,5.588v27.161
				c0,0,11.264,7.192,0.411,42.467c-14.918,48.48,55.284,74.914,67.835,79.935c12.547-5.021,82.75-31.453,67.833-79.935
				c-10.853-35.273,0.409-42.467,0.409-42.467V24.676c0-3.02-2.447-5.456-5.465-5.588c-28.711-1.276-48.041-6.744-57.983-11.866
				c-1.343-0.69-3.069-1.036-4.795-1.036C115.35,6.186,113.624,6.531,112.281,7.222"/>
		</defs>
		<clipPath id="SVGID_46_">
			<use xlink:href="#SVGID_45_"  overflow="visible"/>
		</clipPath>
		<path clip-path="url(#SVGID_46_)" fill="#191818" d="M143.884,123.943c-1.737,0-1.946,0.146-1.946,1.886v10.414
			c0,1.737,0.209,1.885,1.946,1.885s4.407-0.146,4.407-1.885v-10.414C148.291,124.091,145.621,123.943,143.884,123.943"/>
	</g>
	<g>
		<defs>
			<path id="SVGID_47_" d="M112.281,7.222c-9.942,5.122-29.27,10.589-57.983,11.866c-3.016,0.132-5.466,2.568-5.466,5.588v27.161
				c0,0,11.264,7.192,0.411,42.467c-14.918,48.48,55.284,74.914,67.835,79.935c12.547-5.021,82.75-31.453,67.833-79.935
				c-10.853-35.273,0.409-42.467,0.409-42.467V24.676c0-3.02-2.447-5.456-5.465-5.588c-28.711-1.276-48.041-6.744-57.983-11.866
				c-1.343-0.69-3.069-1.036-4.795-1.036C115.35,6.186,113.624,6.531,112.281,7.222"/>
		</defs>
		<clipPath id="SVGID_48_">
			<use xlink:href="#SVGID_47_"  overflow="visible"/>
		</clipPath>
		<path clip-path="url(#SVGID_48_)" fill="#191818" d="M90.643,123.943c-1.737,0-4.407,0.146-4.407,1.886v10.414
			c0,1.737,2.67,1.885,4.407,1.885c1.736,0,1.945-0.146,1.945-1.885v-10.414C92.588,124.091,92.379,123.943,90.643,123.943"/>
	</g>
	<g>
		<defs>
			<path id="SVGID_49_" d="M112.281,7.222c-9.942,5.122-29.27,10.589-57.983,11.866c-3.016,0.132-5.466,2.568-5.466,5.588v27.161
				c0,0,11.264,7.192,0.411,42.467c-14.918,48.48,55.284,74.914,67.835,79.935c12.547-5.021,82.75-31.453,67.833-79.935
				c-10.853-35.273,0.409-42.467,0.409-42.467V24.676c0-3.02-2.447-5.456-5.465-5.588c-28.711-1.276-48.041-6.744-57.983-11.866
				c-1.343-0.69-3.069-1.036-4.795-1.036C115.35,6.186,113.624,6.531,112.281,7.222"/>
		</defs>
		<clipPath id="SVGID_50_">
			<use xlink:href="#SVGID_49_"  overflow="visible"/>
		</clipPath>
		<path clip-path="url(#SVGID_50_)" fill="#191818" d="M96.223,123.943c-1.738,0-1.945,0.146-1.945,1.886v10.414
			c0,1.737,0.207,1.885,1.945,1.885c1.736,0,4.406-0.146,4.406-1.885v-10.414C100.629,124.091,97.959,123.943,96.223,123.943"/>
	</g>
	<g>
		<defs>
			<path id="SVGID_51_" d="M112.281,7.222c-9.942,5.122-29.27,10.589-57.983,11.866c-3.016,0.132-5.466,2.568-5.466,5.588v27.161
				c0,0,11.264,7.192,0.411,42.467c-14.918,48.48,55.284,74.914,67.835,79.935c12.547-5.021,82.75-31.453,67.833-79.935
				c-10.853-35.273,0.409-42.467,0.409-42.467V24.676c0-3.02-2.447-5.456-5.465-5.588c-28.711-1.276-48.041-6.744-57.983-11.866
				c-1.343-0.69-3.069-1.036-4.795-1.036C115.35,6.186,113.624,6.531,112.281,7.222"/>
		</defs>
		<clipPath id="SVGID_52_">
			<use xlink:href="#SVGID_51_"  overflow="visible"/>
		</clipPath>
		<path clip-path="url(#SVGID_52_)" fill="#191818" d="M100.406,133.181l-2.078-3.433c3.034-1.843,7.309-5.471,7.309-7.771h4.014
			C109.65,127.317,101.949,132.246,100.406,133.181"/>
	</g>
	<g>
		<defs>
			<path id="SVGID_53_" d="M112.281,7.222c-9.942,5.122-29.27,10.589-57.983,11.866c-3.016,0.132-5.466,2.568-5.466,5.588v27.161
				c0,0,11.264,7.192,0.411,42.467c-14.918,48.48,55.284,74.914,67.835,79.935c12.547-5.021,82.75-31.453,67.833-79.935
				c-10.853-35.273,0.409-42.467,0.409-42.467V24.676c0-3.02-2.447-5.456-5.465-5.588c-28.711-1.276-48.041-6.744-57.983-11.866
				c-1.343-0.69-3.069-1.036-4.795-1.036C115.35,6.186,113.624,6.531,112.281,7.222"/>
		</defs>
		<clipPath id="SVGID_54_">
			<use xlink:href="#SVGID_53_"  overflow="visible"/>
		</clipPath>
		<path clip-path="url(#SVGID_54_)" fill="#191818" d="M134.557,133.181c-1.543-0.935-9.244-5.862-9.244-11.202h4.015
			c0,2.283,4.36,5.985,7.31,7.769L134.557,133.181z"/>
	</g>
</g>
<path fill="#191818" d="M117.076,14.552c0.527,0,0.895,0.091,1.006,0.13c13.131,6.748,34.479,11.32,58.873,12.638v21.295
	c-1.498,2.068-3.057,5.072-4.055,9.313c-2.279,9.702-0.93,22.771,4.014,38.836c5.107,16.601-1.271,31.72-19.505,46.222
	c-14.388,11.443-31.92,18.868-40.333,22.248c-8.412-3.38-25.945-10.805-40.332-22.248c-18.232-14.502-24.613-29.621-19.506-46.222
	c4.944-16.065,6.294-29.134,4.014-38.836c-0.996-4.24-2.556-7.243-4.053-9.313V27.32c24.393-1.318,45.742-5.891,58.871-12.638
	C116.183,14.643,116.549,14.552,117.076,14.552 M117.076,6.186c-1.726,0-3.451,0.346-4.794,1.037
	c-9.942,5.12-29.272,10.587-57.983,11.864c-3.018,0.134-5.467,2.57-5.467,5.589v27.161c0,0,11.264,7.192,0.41,42.466
	c-14.917,48.482,55.285,74.915,67.834,79.935c12.549-5.02,82.752-31.451,67.834-79.935c-10.854-35.273,0.41-42.466,0.41-42.466
	V24.676c0-3.019-2.449-5.455-5.465-5.589c-28.713-1.276-48.043-6.744-57.984-11.864C120.529,6.531,118.803,6.186,117.076,6.186"/>
<polygon fill="#FFFFFF" points="88.022,30.669 80.564,29.539 77.243,22.44 73.924,29.539 66.465,30.669 71.854,36.204 
	70.506,43.999 77.243,40.317 83.98,43.999 82.633,36.204 "/>
<polygon fill="#FFFFFF" points="167.689,30.669 160.23,29.539 156.91,22.44 153.59,29.539 146.131,30.669 151.521,36.204 
	150.173,43.999 156.91,40.317 163.646,43.999 162.3,36.204 "/>
<polygon fill="#FFFFFF" points="169.391,184.362 117.098,198.546 64.805,182.857 64.805,155.337 117.098,171.024 169.391,155.337 
	"/>
<path fill="#020202" d="M117.098,199.469l-54.552-13.334V152.46l54.552,13.335l54.55-13.335v33.675L117.098,199.469z M67.063,182.59
	l50.035,12.231l50.035-12.231v-24.378l-50.035,12.232l-50.035-12.232V182.59L67.063,182.59z"/>
<polygon fill="#020202" points="145.878,161.524 171.715,152.546 158.643,142.765 137.628,160.776 "/>
<polygon fill="#020202" points="88.275,161.524 62.438,152.546 75.512,142.765 96.525,160.776 "/>
<polygon fill="#020202" points="88.947,171.951 86.357,166.414 83.768,171.951 77.949,172.833 82.153,177.15 81.103,183.23 
	86.357,180.359 91.612,183.23 90.562,177.15 94.766,172.833 "/>
<polygon fill="#020202" points="119.635,178.027 116.775,171.917 113.917,178.027 107.496,179.001 112.135,183.766 110.977,190.477 
	116.775,187.308 122.575,190.477 121.415,183.766 126.055,179.001 "/>
<polygon fill="#020202" points="149.973,171.951 147.382,166.414 144.792,171.951 138.973,172.833 143.178,177.15 142.127,183.23 
	147.382,180.359 152.637,183.23 151.586,177.15 155.79,172.833 "/>
<path fill="#020202" d="M209.947,114.614c-1.816-3.577-5.514-6.852-6.379-10.245l-0.531-0.223c-1.338,3.336-1.193,7.325-0.17,10.95
	c1.109,4.703,3.424,8.368,4.508,12.993c0.193,0.892,0.354,1.775,0.459,2.742c6.957-5.049,13.369-10.808,15.182-19.897l-12.192,6.131
	C210.66,116.218,210.33,115.379,209.947,114.614"/>
<path fill="#020202" d="M206.813,72.831c0.578,1.658,0.758,3.546,1.547,5.248c0.511,0.668,0.961,1.356,1.433,2.057
	c1.313,1.814,2.676,3.432,4.42,3.886c0.605-2.797,1.064-5.733,0.533-8.912c-0.604-2.013-1.506-3.808-2.688-5.43
	c-1.849-2.56-4.357-4.637-7.396-6.198c-0.1-0.058-0.166-0.071-0.223-0.119l-0.404,0.093c0.158,0.24,0.304,0.517,0.461,0.796
	C205.869,66.875,206.281,69.652,206.813,72.831"/>
<path fill="#020202" d="M211.445,89.998c-2.652-3.01-7.049-5.257-8.736-8.326l-0.57-0.084c-0.461,3.565,0.676,7.394,2.572,10.646
	c2.248,4.277,5.406,7.249,7.611,11.456c0.41,0.813,0.785,1.631,1.129,2.54c5.475-6.627,10.246-13.806,9.729-23.059l-10.275,8.981
	C212.535,91.373,212.008,90.643,211.445,89.998"/>
<path fill="#020202" d="M24.207,114.614c1.816-3.577,5.512-6.852,6.379-10.245l0.531-0.223c1.337,3.336,1.193,7.325,0.168,10.95
	c-1.107,4.703-3.424,8.368-4.508,12.993c-0.193,0.892-0.354,1.775-0.458,2.742c-6.956-5.049-13.369-10.808-15.183-19.897
	l12.195,6.131C23.494,116.218,23.823,115.379,24.207,114.614"/>
<path fill="#020202" d="M27.342,72.831c-0.578,1.658-0.758,3.546-1.547,5.248c-0.512,0.668-0.961,1.356-1.432,2.057
	c-1.314,1.814-2.676,3.432-4.421,3.886c-0.604-2.797-1.065-5.733-0.534-8.912c0.606-2.013,1.508-3.808,2.69-5.43
	c1.849-2.56,4.358-4.637,7.396-6.198c0.1-0.058,0.168-0.071,0.224-0.119l0.403,0.093c-0.156,0.24-0.303,0.517-0.459,0.796
	C28.285,66.875,27.873,69.652,27.342,72.831"/>
<path fill="#020202" d="M22.708,89.998c2.653-3.01,7.049-5.257,8.735-8.326l0.571-0.084c0.461,3.565-0.675,7.394-2.573,10.646
	c-2.248,4.277-5.404,7.249-7.609,11.456c-0.41,0.813-0.786,1.631-1.129,2.54c-5.475-6.627-10.246-13.806-9.73-23.059l10.275,8.981
	C21.617,91.373,22.146,90.643,22.708,89.998"/>
<path fill="#020202" d="M190.346,155.771c-0.916-0.018-1.783-0.026-2.639,0.015c3.211-4.571,2.291-10.163,4.059-15.119l-0.018-0.219
	c-5.33,2.008-8.125,6.701-10.73,11.657c-1.861,3.592-3.684,7.272-6.34,9.993c1.109,0.08,2.152,0.229,3.234,0.389
	c1.121,0.164,2.275,0.386,3.436,0.691c2.305,0.136,4.58,0.237,6.732,0.166c4.034-0.171,7.793-0.854,11.035-2.604
	c1.502-0.798,2.902-1.851,4.131-3.161c-0.947-0.154-1.992-0.342-3.027-0.524C196.955,156.5,193.521,155.93,190.346,155.771"/>
<path fill="#020202" d="M203.346,140.198c-1.494-5.036-4.275-10.122-3.865-15.642l-0.143-0.219l-0.375,0.165
	c-0.043,0.035-0.096,0.107-0.102,0.145c-0.291,0.5-0.601,0.785-1.135,1.3c-3.806,6.707-3.23,14.779-1.275,21.92
	c0.32,1.177,0.652,2.295,1.063,3.426c3.424-2.676,7.646-3.359,11.443-5.307c0.342-0.207,0.676-0.369,1.027-0.582
	c3.66-2.642,5.887-7.007,6.844-11.184c-2.373,0.757-4.701,1.368-6.877,2.188C207.605,137.254,205.344,138.396,203.346,140.198"/>
<path fill="#020202" d="M43.872,155.771c0.915-0.018,1.782-0.026,2.638,0.015c-3.212-4.571-2.29-10.163-4.059-15.119l0.018-0.219
	c5.329,2.008,8.124,6.701,10.73,11.657c1.861,3.592,3.684,7.272,6.34,9.993c-1.109,0.08-2.153,0.229-3.234,0.389
	c-1.122,0.164-2.275,0.386-3.436,0.691c-2.305,0.136-4.58,0.237-6.731,0.166c-4.036-0.171-7.795-0.854-11.037-2.604
	c-1.501-0.798-2.901-1.851-4.131-3.161c0.949-0.154,1.992-0.342,3.028-0.524C37.263,156.5,40.695,155.93,43.872,155.771"/>
<path fill="#020202" d="M30.872,140.198c1.493-5.036,4.274-10.122,3.864-15.642l0.143-0.219l0.374,0.165
	c0.045,0.035,0.097,0.107,0.101,0.145c0.293,0.5,0.602,0.785,1.137,1.3c3.805,6.707,3.229,14.779,1.275,21.92
	c-0.32,1.177-0.654,2.295-1.063,3.426c-3.424-2.676-7.645-3.359-11.443-5.307c-0.341-0.207-0.676-0.369-1.029-0.582
	c-3.66-2.642-5.886-7.007-6.841-11.184c2.373,0.757,4.7,1.368,6.876,2.188C26.611,137.254,28.873,138.396,30.872,140.198"/>
</svg>
