<?xml version="1.0" encoding="utf-8"?>
<!-- Generator: Adobe Illustrator 16.0.0, SVG Export Plug-In . SVG Version: 6.00 Build 0)  -->
<!DOCTYPE svg PUBLIC "-//W3C//DTD SVG 1.1//EN" "http://www.w3.org/Graphics/SVG/1.1/DTD/svg11.dtd">
<svg version="1.1" id="Layer_1" xmlns="http://www.w3.org/2000/svg" xmlns:xlink="http://www.w3.org/1999/xlink" x="0px" y="0px"
	 width="612px" height="792px" viewBox="0 0 612 792" enable-background="new 0 0 612 792" xml:space="preserve">
<path fill="none" d="M346.63,60"/>
<path fill="none" d="M346.63,3305.597"/>
<path fill="#FFFFFF" d="M406.111,314.751c-0.312-2.897-2.676-4.152-5.252-2.79l-29.302,15.511l-27.573,14.597
	c-2.576,1.363-3.976,4.756-3.109,7.54l4.098,13.18c0.578,1.858,2.086,3.129,3.84,3.479l-2.283,0.815
	c-1.838,0.974-2.837,3.394-2.219,5.378l2.973,9.538c0.396,1.275,1.43,2.217,2.635,2.544c0,0,27.951-8.91,27.492-9.237
	c15.863-6.499,15.631-21.585,15.631-21.585c-0.152-1.415-1.012-2.344-2.131-2.479C408.859,340.245,406.111,314.751,406.111,314.751"
	/>
<polygon fill="#010101" points="398.68,347.052 348.793,373.269 396.983,344.052 "/>
<path fill="#010101" d="M349.984,387.55l-0.822-0.222c-2.184-0.592-3.959-2.305-4.634-4.47l-2.972-9.538
	c-0.799-2.565-0.021-5.462,1.797-7.388c-0.491-0.685-0.877-1.454-1.135-2.286l-4.1-13.18c-1.281-4.119,0.701-8.927,4.516-10.946
	l56.875-30.106c1.11-0.589,2.25-0.887,3.385-0.887c3.207,0,5.709,2.433,6.086,5.916c0.029,0.279,0.715,6.909-0.91,14.999
	c-1.911,9.513-6.249,17.095-12.631,22.152c0.238,0.557,0.399,1.168,0.47,1.819l0.017,0.265c0.012,0.696,0.061,17.136-17.423,24.299
	l-0.016-0.038c-2.628,1.363-9.44,3.535-27.694,9.354L349.984,387.55z M347.758,369.708c-0.539,0.38-0.884,1.287-0.693,1.897
	l2.972,9.536c0.035,0.111,0.088,0.207,0.151,0.288c9.341-2.984,19.341-6.255,23.685-7.791l2.444-1.001
	c12.721-5.212,13.752-16.611,13.834-18.58l-7.813-0.943l7.067-4.33c16.205-9.93,13.865-33.487,13.839-33.724
	c-0.003-0.032-0.086-0.766-0.349-0.766c-0.084,0-0.318,0.021-0.687,0.216l-56.875,30.108c-1.344,0.711-2.155,2.681-1.704,4.133
	l4.1,13.181c0.244,0.786,0.858,1.349,1.646,1.504l10.231,2.034L347.758,369.708z"/>
<path fill="#FFFFFF" d="M196.621,314.751c0.313-2.897,2.678-4.152,5.254-2.79l29.301,15.511l27.572,14.597
	c2.577,1.363,3.977,4.756,3.111,7.54l-4.1,13.18c-0.578,1.858-2.084,3.129-3.838,3.479l2.282,0.815
	c1.837,0.974,2.837,3.394,2.22,5.378l-2.974,9.538c-0.397,1.275-1.429,2.217-2.635,2.544c0,0-27.951-8.91-27.492-9.237
	c-15.864-6.499-15.632-21.585-15.632-21.585c0.152-1.415,1.014-2.344,2.131-2.479C193.873,340.245,196.621,314.751,196.621,314.751"
	/>
<polygon fill="#010101" points="208.258,344.051 256.448,373.269 206.563,347.051 "/>
<path fill="#010101" d="M252.75,387.551l-0.811-0.259c-18.254-5.819-25.066-7.99-27.693-9.354l-0.017,0.038
	c-17.483-7.163-17.433-23.603-17.423-24.299l0.018-0.265c0.069-0.65,0.23-1.262,0.471-1.819
	c-6.383-5.057-10.721-12.639-12.633-22.151c-1.625-8.091-0.939-14.721-0.908-14.999c0.375-3.484,2.879-5.917,6.086-5.917
	c1.134,0,2.273,0.299,3.384,0.887l56.874,30.107c3.814,2.018,5.797,6.827,4.516,10.947l-4.099,13.179
	c-0.259,0.832-0.646,1.601-1.136,2.286c1.818,1.926,2.596,4.822,1.799,7.387l-2.975,9.539c-0.672,2.164-2.447,3.878-4.633,4.47
	L252.75,387.551z M228.861,373.639c4.344,1.536,14.344,4.807,23.686,7.791c0.062-0.081,0.113-0.176,0.147-0.287l2.976-9.539
	c0.188-0.61-0.155-1.515-0.694-1.896l-11.847-4.236l10.229-2.034c0.786-0.156,1.402-0.719,1.647-1.506l4.098-13.179
	c0.452-1.452-0.359-3.423-1.705-4.135l-56.874-30.105c-0.368-0.195-0.601-0.216-0.685-0.216c-0.264,0-0.348,0.733-0.35,0.765
	c-0.025,0.233-2.308,23.83,13.838,33.723l7.067,4.33l-7.813,0.943c0.072,2.011,1.056,13.345,13.836,18.581L228.861,373.639z"/>
<path fill="#FECF0A" d="M369.025,383.303c-10.15-32.987-1.588-41.101,0.215-42.339h-67.617h-68.482
	c1.803,1.238,10.365,9.352,0.217,42.339c-14.918,48.481,55.283,74.915,67.834,79.935c0.136-0.054,0.281-0.112,0.432-0.172
	C315.26,457.639,383.78,431.257,369.025,383.303"/>
<g opacity="0.6">
	<g>
		<defs>
			<rect id="SVGID_1_" x="301.37" y="340.21" width="69.47" height="122.101"/>
		</defs>
		<clipPath id="SVGID_2_">
			<use xlink:href="#SVGID_1_"  overflow="visible"/>
		</clipPath>
		<path clip-path="url(#SVGID_2_)" fill="#CDA72C" d="M368.773,382.551c-10.15-32.988-1.587-41.101,0.215-42.339h-67.617v122.101
			C315.009,456.887,383.529,430.505,368.773,382.551"/>
	</g>
</g>
<g opacity="0.4">
	<g>
		<defs>
			<rect id="SVGID_3_" x="231.29" y="295.19" width="139.8" height="168.05"/>
		</defs>
		<clipPath id="SVGID_4_">
			<use xlink:href="#SVGID_3_"  overflow="visible"/>
		</clipPath>
		<path clip-path="url(#SVGID_4_)" fill="#FFFFFF" d="M301.191,309.247c12.872,6.204,32.309,10.53,54.446,12.167v14.542
			c-1.519,2.447-2.944,5.632-3.908,9.729c-2.505,10.653-1.122,24.675,4.108,41.676c2.33,7.568,1.855,14.6-1.444,21.499
			c-3.051,6.373-8.519,12.725-16.251,18.875c-12.736,10.132-28.211,17.049-36.951,20.637c-8.742-3.588-24.217-10.505-36.953-20.637
			c-7.732-6.15-13.201-12.502-16.25-18.875c-3.302-6.898-3.774-13.931-1.445-21.499c5.23-17.001,6.613-31.023,4.109-41.675
			c-0.964-4.098-2.391-7.283-3.908-9.729v-14.542C268.882,319.777,288.318,315.451,301.191,309.247 M301.191,295.186
			c-1.727,0-3.453,0.347-4.796,1.037c-9.942,5.12-29.271,10.588-57.983,11.864c-3.017,0.134-5.465,2.57-5.465,5.589v27.161
			c0,0,11.262,7.192,0.409,42.466c-14.917,48.482,55.285,74.915,67.835,79.934c12.549-5.019,82.75-31.451,67.834-79.934
			c-10.854-35.274,0.409-42.466,0.409-42.466v-27.161c0-3.019-2.448-5.455-5.465-5.589c-28.713-1.276-48.042-6.744-57.983-11.864
			C304.644,295.532,302.918,295.186,301.191,295.186"/>
	</g>
</g>
<path fill="#191818" d="M369.436,313.676c0-3.02-2.449-5.455-5.466-5.589c-28.713-1.276-48.042-6.744-57.983-11.865
	c-2.686-1.382-6.905-1.382-9.59,0c-9.943,5.121-29.272,10.589-57.984,11.865c-3.016,0.134-5.465,2.569-5.465,5.589v27.161
	c0,0,0.069,0.041,0.194,0.127H369.24c0.125-0.086,0.195-0.127,0.195-0.127V313.676z"/>
<polygon fill="#FFFFFF" points="277.646,332.131 283.668,315.604 275.359,315.604 275.359,312.051 288.244,312.051 288.244,314.852 
	282.012,332.131 "/>
<path fill="#FFFFFF" d="M287.791,330.145c0-1.264,1.084-2.348,2.348-2.348s2.318,1.084,2.318,2.348c0,1.265-1.055,2.318-2.318,2.318
	S287.791,331.409,287.791,330.145"/>
<path fill="#FFFFFF" d="M295.074,329.331l2.439-2.589c1.053,1.385,2.469,2.168,4.185,2.168c1.927,0,3.04-1.475,3.04-3.161
	c0-1.987-1.054-3.161-2.859-3.161c-1.355,0-2.379,0.481-3.313,1.655l-2.92-0.782v-11.41h12.043v3.552h-8.009v5.148
	c0.784-0.963,2.138-1.655,3.673-1.655c3.041,0,5.48,2.378,5.48,6.532c0,4.034-2.74,6.864-7.016,6.864
	C298.719,332.492,296.58,331.35,295.074,329.331"/>
<polygon fill="#FFFFFF" points="321.656,332.131 317.02,324.274 315.604,326.502 315.604,332.131 311.57,332.131 311.57,312.051 
	315.604,312.051 315.604,321.173 321.265,312.051 325.961,312.051 319.549,321.504 326.412,332.131 "/>
<g>
	<defs>
		<path id="SVGID_5_" d="M296.396,296.222c-9.941,5.122-29.272,10.59-57.984,11.866c-3.016,0.132-5.465,2.568-5.465,5.588v27.161
			c0,0,11.263,7.192,0.408,42.467c-14.916,48.48,55.285,74.914,67.834,79.934c12.551-5.02,82.752-31.453,67.836-79.934
			c-10.854-35.274,0.408-42.467,0.408-42.467v-27.161c0-3.02-2.447-5.456-5.463-5.588c-28.714-1.276-48.041-6.744-57.986-11.866
			c-1.34-0.69-3.067-1.036-4.795-1.036C299.464,295.186,297.738,295.531,296.396,296.222"/>
	</defs>
	<clipPath id="SVGID_6_">
		<use xlink:href="#SVGID_5_"  overflow="visible"/>
	</clipPath>
	<polygon clip-path="url(#SVGID_6_)" fill="#FFFFFF" points="380.137,376.403 380.137,382.291 301.646,401.912 301.646,384.252 
		375.697,376.848 	"/>
	<polygon clip-path="url(#SVGID_6_)" fill="#FFFFFF" points="222.722,376.403 222.722,382.291 301.211,401.912 301.211,384.252 
		227.16,376.848 	"/>
	<polygon clip-path="url(#SVGID_6_)" fill="#FECF0A" points="282.504,388.988 223.588,379.306 223.588,381.931 282.667,397.357 	"/>
	<polygon clip-path="url(#SVGID_6_)" fill="#FECF0A" points="320.248,388.988 379.162,379.306 379.162,381.931 320.084,397.357 	"/>
	<polygon clip-path="url(#SVGID_6_)" fill="#FECF0A" points="307.35,376.403 295.072,376.403 299.249,352.486 303.174,352.486 	"/>
	<path clip-path="url(#SVGID_6_)" fill="#191818" d="M309.141,377.908h-15.859l4.702-26.927h6.454L309.141,377.908z
		 M296.863,374.898h8.695l-3.65-20.907h-1.396L296.863,374.898z"/>
	<path clip-path="url(#SVGID_6_)" fill="#191818" d="M299.64,404.483v-22.047l82.504-8.251v9.672L299.64,404.483z M303.654,386.068
		v13.273l74.477-18.619v-2.102L303.654,386.068z"/>
	<path clip-path="url(#SVGID_6_)" fill="#FFFFFF" d="M340.215,397.814c0,3.251,2.635,5.887,5.887,5.887
		c3.251,0,5.887-2.636,5.887-5.887c0-3.251-2.636-5.888-5.887-5.888C342.85,391.927,340.215,394.563,340.215,397.814"/>
	<path clip-path="url(#SVGID_6_)" fill="#191818" d="M346.102,405.205c-4.076,0-7.393-3.315-7.393-7.391
		c0-4.076,3.316-7.393,7.393-7.393c4.075,0,7.391,3.316,7.391,7.393C353.492,401.89,350.177,405.205,346.102,405.205
		 M346.102,393.432c-2.416,0-4.383,1.966-4.383,4.383c0,2.416,1.967,4.382,4.383,4.382c2.415,0,4.381-1.966,4.381-4.382
		C350.482,395.398,348.517,393.432,346.102,393.432"/>
	<path clip-path="url(#SVGID_6_)" fill="#191818" d="M303.218,404.482l-82.504-20.625v-9.672l82.504,8.251V404.482z
		 M224.729,380.724l74.477,18.619v-13.274l-74.477-7.448V380.724z"/>
	<path clip-path="url(#SVGID_6_)" fill="#191818" d="M299.479,379.858v-9.083l24.887-2.489v5.35L299.479,379.858z M303.494,374.407
		v0.311l2.065-0.517L303.494,374.407z"/>
	<path clip-path="url(#SVGID_6_)" fill="#191818" d="M303.378,379.858l-24.887-6.222v-5.351l24.887,2.49V379.858z M297.299,374.201
		l2.065,0.517v-0.31L297.299,374.201z"/>
	<path clip-path="url(#SVGID_6_)" fill="#FECF0A" d="M322.796,392.102c0,11.921-9.664,21.585-21.585,21.585
		c-11.92,0-21.584-9.664-21.584-21.585s9.664-21.585,21.584-21.585C313.132,370.517,322.796,380.181,322.796,392.102"/>
	<path clip-path="url(#SVGID_6_)" fill="#FFFFFF" d="M301.211,370.517c-11.921,0-21.585,9.664-21.585,21.585
		s9.664,21.584,21.585,21.584c0.027,0,0.055-0.002,0.082-0.002v-43.165C301.266,370.519,301.238,370.517,301.211,370.517"/>
	<path clip-path="url(#SVGID_6_)" fill="#191818" d="M301.211,415.692c-13.009,0-23.592-10.583-23.592-23.591
		c0-13.008,10.583-23.592,23.592-23.592c13.01,0,23.592,10.584,23.592,23.592C324.803,405.109,314.221,415.692,301.211,415.692
		 M301.211,372.523c-10.796,0-19.578,8.783-19.578,19.578c0,10.796,8.782,19.578,19.578,19.578c10.797,0,19.578-8.782,19.578-19.578
		C320.789,381.307,312.008,372.523,301.211,372.523"/>
	<path clip-path="url(#SVGID_6_)" fill="#FFFFFF" d="M262.645,398.817c0,3.251-2.637,5.888-5.888,5.888s-5.886-2.637-5.886-5.888
		s2.635-5.887,5.886-5.887S262.645,395.566,262.645,398.817"/>
	<path clip-path="url(#SVGID_6_)" fill="#191818" d="M256.758,405.205c-4.076,0-7.393-3.315-7.393-7.391
		c0-4.076,3.316-7.393,7.393-7.393c4.075,0,7.391,3.316,7.391,7.393C264.148,401.89,260.833,405.205,256.758,405.205
		 M256.758,393.432c-2.416,0-4.383,1.966-4.383,4.383c0,2.416,1.967,4.382,4.383,4.382c2.415,0,4.381-1.966,4.381-4.382
		C261.139,395.398,259.173,393.432,256.758,393.432"/>
	<polygon clip-path="url(#SVGID_6_)" fill="#191818" points="286.246,387.576 290.201,383.62 298.113,385.598 298.113,391.532 	"/>
	<polygon clip-path="url(#SVGID_6_)" fill="#191818" points="316.725,387.576 312.77,383.62 304.857,385.598 304.857,391.532 	"/>
	<path clip-path="url(#SVGID_6_)" fill="#191818" d="M322.418,412.943c-1.737,0-4.407,0.147-4.407,1.886v10.414
		c0,1.737,2.67,1.885,4.407,1.885c1.736,0,1.945-0.147,1.945-1.885v-10.414C324.363,413.091,324.154,412.943,322.418,412.943"/>
	<path clip-path="url(#SVGID_6_)" fill="#191818" d="M327.998,412.943c-1.738,0-1.945,0.147-1.945,1.886v10.414
		c0,1.737,0.207,1.885,1.945,1.885c1.736,0,4.406-0.147,4.406-1.885v-10.414C332.404,413.091,329.734,412.943,327.998,412.943"/>
	<path clip-path="url(#SVGID_6_)" fill="#191818" d="M274.757,412.943c-1.738,0-4.407,0.147-4.407,1.886v10.414
		c0,1.737,2.669,1.885,4.407,1.885c1.737,0,1.944-0.147,1.944-1.885v-10.414C276.701,413.091,276.494,412.943,274.757,412.943"/>
	<path clip-path="url(#SVGID_6_)" fill="#191818" d="M280.336,412.943c-1.736,0-1.945,0.147-1.945,1.886v10.414
		c0,1.737,0.209,1.885,1.945,1.885c1.737,0,4.407-0.147,4.407-1.885v-10.414C284.743,413.091,282.073,412.943,280.336,412.943"/>
	<path clip-path="url(#SVGID_6_)" fill="#191818" d="M284.52,422.181l-2.078-3.433c3.034-1.843,7.309-5.471,7.309-7.77h4.014
		C293.764,416.317,286.063,421.246,284.52,422.181"/>
	<path clip-path="url(#SVGID_6_)" fill="#191818" d="M318.672,422.181c-1.544-0.935-9.244-5.863-9.244-11.202h4.014
		c0,2.283,4.361,5.985,7.308,7.768L318.672,422.181z"/>
</g>
<path fill="#191818" d="M301.191,303.552c0.526,0,0.893,0.091,1.006,0.13c13.129,6.748,34.478,11.32,58.871,12.638v21.295
	c-1.498,2.069-3.056,5.072-4.053,9.313c-2.281,9.702-0.93,22.77,4.014,38.836c5.106,16.6-1.273,31.719-19.507,46.221
	c-14.387,11.444-31.92,18.869-40.331,22.248c-8.414-3.379-25.947-10.804-40.334-22.248c-18.232-14.502-24.613-29.621-19.505-46.221
	c4.943-16.066,6.294-29.134,4.013-38.836c-0.996-4.241-2.555-7.243-4.053-9.313V316.32c24.393-1.318,45.743-5.89,58.872-12.638
	C300.297,303.643,300.664,303.552,301.191,303.552 M301.191,295.186c-1.727,0-3.453,0.346-4.796,1.037
	c-9.942,5.12-29.271,10.588-57.983,11.864c-3.017,0.134-5.465,2.57-5.465,5.589v27.161c0,0,11.262,7.192,0.409,42.466
	c-14.917,48.482,55.285,74.915,67.835,79.934c12.549-5.019,82.75-31.451,67.834-79.934c-10.854-35.274,0.409-42.466,0.409-42.466
	v-27.161c0-3.019-2.448-5.455-5.465-5.589c-28.713-1.276-48.042-6.744-57.983-11.864
	C304.644,295.531,302.916,295.186,301.191,295.186"/>
<polygon fill="#FFFFFF" points="272.137,319.669 264.679,318.539 261.357,311.44 258.037,318.539 250.578,319.669 255.969,325.204 
	254.621,332.999 261.357,329.317 268.094,332.999 266.746,325.204 "/>
<polygon fill="#FFFFFF" points="351.803,319.669 344.346,318.539 341.023,311.44 337.704,318.539 330.245,319.669 335.635,325.204 
	334.287,332.999 341.023,329.317 347.761,332.999 346.414,325.204 "/>
<path fill="#010101" d="M394.008,385.313c0.146,1.75-0.152,3.623,0.187,5.468c0.328,0.774,0.591,1.554,0.872,2.349
	c0.82,2.085,1.734,3.99,3.311,4.866c1.285-2.557,2.463-5.286,2.744-8.497c-0.084-2.099-0.51-4.062-1.25-5.928
	c-1.149-2.94-3.062-5.579-5.612-7.851c-0.082-0.079-0.144-0.11-0.187-0.17l-0.414-0.012c0.092,0.272,0.164,0.577,0.246,0.886
	C394.582,379.31,394.287,382.102,394.008,385.313"/>
<path fill="#010101" d="M394.206,403.092c-1.817-3.577-5.513-6.851-6.38-10.245l-0.531-0.223c-1.337,3.336-1.193,7.327-0.169,10.951
	c1.108,4.704,3.424,8.368,4.508,12.993c0.194,0.891,0.353,1.775,0.458,2.742c6.957-5.049,13.37-10.808,15.182-19.896l-12.192,6.129
	C394.918,404.695,394.588,403.857,394.206,403.092"/>
<path fill="#010101" d="M374.604,444.25c-0.916-0.018-1.783-0.027-2.639,0.014c3.211-4.57,2.291-10.163,4.059-15.119l-0.018-0.219
	c-5.328,2.008-8.123,6.701-10.73,11.657c-1.862,3.592-3.684,7.274-6.34,9.994c1.109,0.08,2.152,0.229,3.234,0.388
	c1.123,0.163,2.275,0.386,3.436,0.692c2.306,0.135,4.58,0.237,6.732,0.167c4.034-0.172,7.795-0.855,11.037-2.606
	c1.5-0.798,2.901-1.849,4.131-3.161c-0.949-0.154-1.992-0.342-3.029-0.523C381.213,444.978,377.778,444.408,374.604,444.25"/>
<path fill="#010101" d="M387.604,428.676c-1.494-5.035-4.275-10.121-3.865-15.641l-0.143-0.219l-0.374,0.165
	c-0.044,0.036-0.097,0.108-0.101,0.144c-0.293,0.5-0.602,0.786-1.137,1.301c-3.805,6.707-3.229,14.779-1.274,21.92
	c0.319,1.176,0.653,2.295,1.062,3.425c3.424-2.676,7.645-3.359,11.443-5.306c0.342-0.207,0.677-0.37,1.029-0.582
	c3.66-2.642,5.886-7.008,6.842-11.184c-2.373,0.757-4.701,1.368-6.876,2.187C391.863,425.731,389.602,426.873,387.604,428.676"/>
<path fill="#010101" d="M208.804,385.442c-0.24,1.74-0.044,3.626-0.482,5.45c-0.368,0.755-0.674,1.52-0.997,2.299
	c-0.931,2.037-1.947,3.89-3.568,4.68c-1.145-2.622-2.174-5.41-2.28-8.632c0.196-2.091,0.726-4.029,1.565-5.854
	c1.308-2.873,3.358-5.406,6.028-7.536c0.086-0.075,0.149-0.103,0.195-0.16l0.414,0.011c-0.107,0.266-0.195,0.566-0.294,0.871
	C208.554,379.417,208.696,382.221,208.804,385.442"/>
<path fill="#010101" d="M208.527,403.092c1.817-3.577,5.512-6.851,6.379-10.245l0.532-0.223c1.337,3.336,1.192,7.327,0.168,10.951
	c-1.108,4.704-3.423,8.368-4.508,12.993c-0.192,0.891-0.353,1.775-0.458,2.742c-6.956-5.049-13.369-10.808-15.182-19.896
	l12.193,6.129C207.815,404.695,208.145,403.857,208.527,403.092"/>
<path fill="#010101" d="M228.131,444.25c0.915-0.018,1.782-0.027,2.637,0.014c-3.211-4.57-2.289-10.163-4.058-15.119l0.017-0.219
	c5.33,2.008,8.125,6.701,10.731,11.657c1.861,3.592,3.683,7.274,6.339,9.994c-1.109,0.08-2.152,0.229-3.234,0.388
	c-1.121,0.163-2.274,0.386-3.435,0.692c-2.306,0.135-4.581,0.237-6.731,0.167c-4.035-0.172-7.795-0.855-11.037-2.606
	c-1.502-0.798-2.902-1.849-4.131-3.161c0.949-0.154,1.992-0.342,3.027-0.523C221.521,444.978,224.955,444.408,228.131,444.25"/>
<path fill="#010101" d="M215.131,428.676c1.493-5.035,4.273-10.121,3.864-15.641l0.142-0.219l0.375,0.165
	c0.045,0.036,0.096,0.108,0.101,0.144c0.292,0.5,0.601,0.786,1.136,1.301c3.805,6.707,3.23,14.779,1.275,21.92
	c-0.32,1.176-0.653,2.295-1.063,3.425c-3.423-2.676-7.645-3.359-11.443-5.306c-0.34-0.207-0.676-0.37-1.028-0.582
	c-3.66-2.642-5.886-7.008-6.841-11.184c2.373,0.757,4.699,1.368,6.875,2.187C210.869,425.731,213.133,426.873,215.131,428.676"/>
<polygon fill="#FFFFFF" points="354.358,473.362 302.064,487.546 249.771,471.857 249.771,444.337 302.064,460.024 354.358,444.337 
	"/>
<path fill="#010101" d="M302.064,488.469l-54.551-13.334V441.46l54.551,13.335l54.551-13.335v33.675L302.064,488.469z
	 M252.029,471.59l50.035,12.231L352.1,471.59v-24.378l-50.035,12.232l-50.035-12.232V471.59z"/>
<polygon fill="#010101" points="330.845,450.524 356.682,441.546 343.608,431.765 322.595,449.776 "/>
<polygon fill="#010101" points="273.243,450.524 247.406,441.546 260.479,431.765 281.493,449.776 "/>
<polygon fill="#010101" points="273.915,460.951 271.324,455.414 268.734,460.951 262.916,461.833 267.121,466.15 266.068,472.23 
	271.324,469.359 276.58,472.23 275.529,466.15 279.732,461.833 "/>
<polygon fill="#010101" points="304.602,467.027 301.742,460.917 298.884,467.027 292.463,468.001 297.104,472.766 295.943,479.477 
	301.742,476.308 307.542,479.477 306.383,472.766 311.021,468.001 "/>
<polygon fill="#010101" points="334.939,460.951 332.349,455.414 329.759,460.951 323.941,461.833 328.145,466.15 327.094,472.23 
	332.349,469.359 337.604,472.23 336.553,466.15 340.757,461.833 "/>
</svg>
