<?xml version="1.0" encoding="utf-8"?>
<!-- Generator: Adobe Illustrator 16.0.0, SVG Export Plug-In . SVG Version: 6.00 Build 0)  -->
<!DOCTYPE svg PUBLIC "-//W3C//DTD SVG 1.1//EN" "http://www.w3.org/Graphics/SVG/1.1/DTD/svg11.dtd">
<svg version="1.1" id="Layer_1" xmlns="http://www.w3.org/2000/svg" xmlns:xlink="http://www.w3.org/1999/xlink" x="0px" y="0px"
	 width="612px" height="792px" viewBox="0 0 612 792" enable-background="new 0 0 612 792" xml:space="preserve">
<path fill="none" d="M346.63,60"/>
<path fill="none" d="M346.63,3305.597"/>
<path fill="#FECF0A" d="M370.104,387.303c-10.15-32.987-1.588-41.101,0.215-42.339h-67.617h-68.482
	c1.803,1.238,10.366,9.352,0.216,42.339c-14.918,48.481,55.285,74.915,67.834,79.935c0.136-0.054,0.282-0.112,0.433-0.172
	C316.338,461.639,384.857,435.257,370.104,387.303"/>
<g opacity="0.6">
	<g>
		<defs>
			<rect id="SVGID_1_" x="302.2" y="344.96" width="69.47" height="122.101"/>
		</defs>
		<clipPath id="SVGID_2_">
			<use xlink:href="#SVGID_1_"  overflow="visible"/>
		</clipPath>
		<path clip-path="url(#SVGID_2_)" fill="#CDA72C" d="M369.602,387.303c-10.15-32.987-1.588-41.101,0.215-42.339h-67.617v122.102
			C315.836,461.639,384.356,435.257,369.602,387.303"/>
	</g>
</g>
<g opacity="0.4">
	<g>
		<defs>
			<rect id="SVGID_3_" x="232.37" y="299.19" width="139.8" height="168.05"/>
		</defs>
		<clipPath id="SVGID_4_">
			<use xlink:href="#SVGID_3_"  overflow="visible"/>
		</clipPath>
		<path clip-path="url(#SVGID_4_)" fill="#FFFFFF" d="M302.27,313.247c12.872,6.204,32.307,10.53,54.446,12.167v14.542
			c-1.519,2.447-2.946,5.631-3.908,9.729c-2.505,10.653-1.122,24.675,4.108,41.676c2.328,7.568,1.855,14.6-1.444,21.499
			c-3.051,6.373-8.519,12.724-16.251,18.875c-12.736,10.132-28.211,17.049-36.951,20.637c-8.742-3.588-24.216-10.505-36.953-20.637
			c-7.732-6.15-13.201-12.502-16.25-18.875c-3.302-6.898-3.774-13.931-1.445-21.5c5.23-17,6.613-31.022,4.109-41.675
			c-0.964-4.097-2.391-7.282-3.91-9.729v-14.542C269.96,323.777,289.396,319.451,302.27,313.247 M302.27,299.186
			c-1.728,0-3.453,0.347-4.796,1.037c-9.942,5.12-29.271,10.588-57.983,11.864c-3.017,0.134-5.465,2.57-5.465,5.589v27.161
			c0,0,11.262,7.192,0.409,42.466c-14.918,48.482,55.285,74.915,67.835,79.934c12.549-5.019,82.75-31.451,67.834-79.934
			c-10.854-35.274,0.409-42.466,0.409-42.466v-27.161c0-3.019-2.448-5.455-5.465-5.589c-28.713-1.276-48.042-6.744-57.985-11.864
			C305.722,299.532,303.994,299.186,302.27,299.186"/>
	</g>
</g>
<path fill="#191818" d="M370.513,317.676c0-3.02-2.449-5.455-5.466-5.589c-28.711-1.276-48.041-6.744-57.983-11.865
	c-2.685-1.382-6.905-1.382-9.59,0c-9.942,5.121-29.271,10.589-57.983,11.865c-3.017,0.134-5.466,2.569-5.466,5.589v27.161
	c0,0,0.069,0.041,0.194,0.127h136.1c0.125-0.086,0.194-0.127,0.194-0.127V317.676z"/>
<path fill="#191818" d="M302.27,307.552c0.526,0,0.893,0.091,1.006,0.13c13.129,6.748,34.478,11.32,58.871,12.638v21.295
	c-1.498,2.069-3.057,5.072-4.053,9.313c-2.281,9.702-0.932,22.77,4.014,38.836c5.106,16.6-1.273,31.719-19.506,46.221
	c-14.388,11.444-31.921,18.869-40.332,22.248c-8.414-3.379-25.947-10.804-40.334-22.248c-18.232-14.502-24.613-29.621-19.505-46.221
	c4.943-16.066,6.294-29.134,4.013-38.836c-0.996-4.241-2.555-7.243-4.053-9.313V320.32c24.393-1.318,45.742-5.89,58.872-12.638
	C301.375,307.643,301.742,307.552,302.27,307.552 M302.27,299.186c-1.728,0-3.453,0.346-4.796,1.037
	c-9.942,5.12-29.271,10.588-57.983,11.864c-3.017,0.134-5.465,2.57-5.465,5.589v27.161c0,0,11.262,7.192,0.409,42.466
	c-14.918,48.482,55.285,74.915,67.835,79.934c12.549-5.019,82.75-31.451,67.834-79.934c-10.854-35.274,0.409-42.466,0.409-42.466
	v-27.161c0-3.019-2.448-5.455-5.465-5.589c-28.713-1.276-48.042-6.744-57.985-11.864
	C305.721,299.531,303.994,299.186,302.27,299.186"/>
<polygon fill="#FFFFFF" points="293.219,336.132 293.219,321.26 290.178,324.421 287.859,321.981 293.76,316.051 297.282,316.051 
	297.282,336.132 "/>
<polygon fill="#FFFFFF" points="310.918,336.132 306.282,328.273 304.867,330.503 304.867,336.132 300.833,336.132 300.833,316.051 
	304.867,316.051 304.867,325.174 310.527,316.051 315.225,316.051 308.811,325.505 315.676,336.132 "/>
<path fill="#191818" d="M336.886,403.811c-2.64,0-6.695,0.223-6.695,2.862v15.822c0,2.64,4.056,2.863,6.695,2.863
	s6.694-0.224,6.694-2.863v-15.822C343.58,404.033,339.525,403.811,336.886,403.811"/>
<path fill="#191818" d="M267.15,403.811c-2.641,0-6.695,0.223-6.695,2.862v15.822c0,2.64,4.055,2.863,6.695,2.863
	c2.639,0,6.695-0.224,6.695-2.863v-15.822C273.846,404.033,269.789,403.811,267.15,403.811"/>
<path fill="#FECF0A" d="M261.371,380.321l-4.881,9.532l4.963,20.693c0.128,1.675,1.525,2.994,3.232,2.994
	c6.492,0,12.064,2.508,18.557,2.508c1.627,0,2.972-1.198,3.207-2.761h31.095c0.235,1.563,1.579,2.761,3.206,2.761
	c6.492,0,12.064-2.508,18.557-2.508c1.627,0,2.971-1.198,3.206-2.762h0.015l5.017-20.926l-4.879-9.532H261.371z"/>
<path fill="#FFFFFF" d="M342.527,380.053h-9.592l-3.902-10.064c-0.381-2.744-2.936-4.969-5.707-4.969h-42.617
	c-2.771,0-5.325,2.226-5.705,4.969l-3.903,10.064h-9.593l-0.137,0.269h81.293L342.527,380.053z"/>
<rect x="290.473" y="381.324" fill="#FFFFFF" width="21.573" height="33.363"/>
<path fill="#FFFFFF" d="M278.985,397.196c0,3.937-3.191,7.127-7.126,7.127c-3.938,0-7.127-3.19-7.127-7.127
	c0-3.936,3.189-7.127,7.127-7.127C275.794,390.069,278.985,393.261,278.985,397.196"/>
<path fill="#191818" d="M271.859,405.703c-4.691,0-8.508-3.815-8.508-8.507c0-4.689,3.816-8.507,8.508-8.507
	c4.689,0,8.506,3.817,8.506,8.507C280.365,401.888,276.549,405.703,271.859,405.703 M271.859,391.449
	c-3.17,0-5.748,2.578-5.748,5.747s2.578,5.747,5.748,5.747c3.168,0,5.745-2.578,5.745-5.747S275.027,391.449,271.859,391.449"/>
<path fill="#191818" d="M274.085,394.864l-4.409,4.692c0.581,0.572,1.379,0.926,2.259,0.926c1.779,0,3.222-1.442,3.222-3.221
	C275.156,396.309,274.742,395.454,274.085,394.864"/>
<path fill="#FFFFFF" d="M338.434,397.196c0,3.937-3.191,7.127-7.127,7.127c-3.938,0-7.127-3.19-7.127-7.127
	c0-3.936,3.189-7.127,7.127-7.127C335.242,390.069,338.434,393.261,338.434,397.196"/>
<path fill="#191818" d="M331.307,405.703c-4.691,0-8.508-3.815-8.508-8.507c0-4.689,3.816-8.507,8.508-8.507
	c4.689,0,8.506,3.817,8.506,8.507C339.813,401.888,335.996,405.703,331.307,405.703 M331.307,391.449
	c-3.17,0-5.748,2.578-5.748,5.747s2.578,5.747,5.748,5.747c3.168,0,5.746-2.578,5.746-5.747S334.475,391.449,331.307,391.449"/>
<path fill="#191818" d="M333.533,394.864l-4.41,4.692c0.582,0.572,1.379,0.926,2.26,0.926c1.778,0,3.221-1.442,3.221-3.221
	C334.604,396.309,334.189,395.454,333.533,394.864"/>
<path fill="#FFFFFF" d="M316.704,399.025c0-2.312-1.875-4.187-4.187-4.187h-22.236c-2.313,0-4.187,1.875-4.187,4.187
	c0,2.313,1.874,4.188,4.187,4.188h22.236C314.829,403.213,316.704,401.339,316.704,399.025"/>
<path fill="#191818" d="M312.517,404.593h-22.235c-3.07,0-5.566-2.498-5.566-5.567c0-3.069,2.496-5.566,5.566-5.566h22.235
	c3.069,0,5.567,2.498,5.567,5.566C318.084,402.095,315.586,404.593,312.517,404.593 M290.281,396.219
	c-1.549,0-2.808,1.259-2.808,2.807c0,1.549,1.259,2.807,2.808,2.807h22.235c1.548,0,2.808-1.258,2.808-2.807
	c0-1.548-1.26-2.807-2.808-2.807H290.281z"/>
<rect x="268.65" y="378.071" fill="#191818" width="65.471" height="4"/>
<path fill="#191718" d="M337.877,378.577c-1.502,1.502-3.938,1.502-5.439,0c-1.502-1.502-1.502-3.938,0-5.44
	s5.711-3.276,7.213-1.773C341.152,372.866,339.379,377.075,337.877,378.577"/>
<path fill="#191718" d="M266.01,378.577c1.502,1.502,3.938,1.502,5.439,0c1.502-1.502,1.502-3.938,0-5.44s-5.711-3.276-7.214-1.773
	C262.733,372.866,264.508,377.075,266.01,378.577"/>
<rect x="305.65" y="363.5" transform="matrix(0.8538 0.5207 -0.5207 0.8538 238.6815 -105.4348)" fill="#191818" width="2.759" height="17.338"/>
<rect x="313.426" y="363.501" transform="matrix(0.8538 0.5207 -0.5207 0.8538 239.8187 -109.4837)" fill="#191818" width="2.759" height="17.337"/>
<path fill="#191818" d="M320.75,418.05c-1.957,0-3.715-1.11-4.612-2.762h-28.284c-0.898,1.651-2.654,2.762-4.611,2.762
	c-3.452,0-6.621-0.659-9.686-1.296c-2.998-0.625-5.831-1.213-8.871-1.213c-2.662,0-4.918-2.035-5.211-4.664l-5.101-21.275
	l5.911-11.548h9.445l3.33-8.587c0.631-3.635,3.941-6.447,7.647-6.447h42.618c3.707,0,7.017,2.812,7.648,6.446l3.329,8.588h9.446
	l5.912,11.548l-5.557,23.179h-0.188c-0.896,1.651-2.655,2.761-4.611,2.761c-3.04,0-5.873,0.588-8.871,1.213
	C327.371,417.391,324.203,418.05,320.75,418.05 M284.727,411.288h34.54l0.255,1.703c0.092,0.604,0.619,1.059,1.229,1.059
	c3.04,0,5.873-0.589,8.871-1.214c3.064-0.637,6.234-1.295,9.686-1.295c0.609,0,1.139-0.455,1.229-1.059l0.256-1.702h0.16
	l4.476-18.674l-4.122-8.053h-9.738l-4.483-11.559l-0.032-0.23c-0.243-1.759-1.949-3.245-3.725-3.245h-42.618
	c-1.775,0-3.479,1.486-3.724,3.244l-0.031,0.23l-4.484,11.56h-9.738l-4.121,8.053l4.838,20.287c0.049,0.644,0.593,1.147,1.238,1.147
	c3.452,0,6.621,0.658,9.686,1.295c2.998,0.625,5.832,1.214,8.871,1.214c0.609,0,1.138-0.455,1.229-1.06L284.727,411.288z"/>
<polygon fill="#FFFFFF" points="273.215,323.677 265.756,322.546 262.436,315.448 259.115,322.546 251.656,323.677 257.046,329.211 
	255.698,337.006 262.436,333.325 269.172,337.006 267.825,329.211 "/>
<polygon fill="#FFFFFF" points="352.881,323.677 345.422,322.546 342.102,315.448 338.781,322.546 331.323,323.677 336.712,329.211 
	335.365,337.006 342.102,333.325 348.839,337.006 347.491,329.211 "/>
<path fill="#010101" d="M408.082,393.532l-12.194,6.129c-0.163-0.847-0.492-1.687-0.875-2.451"/>
<path fill="#010101" d="M395.013,397.21c-1.817-3.577-5.513-6.851-6.38-10.245l-0.531-0.223c-1.337,3.336-1.193,7.327-0.168,10.951
	c1.107,4.703,3.423,8.369,4.508,12.994c0.193,0.89,0.354,1.774,0.458,2.742c6.956-5.05,13.369-10.809,15.183-19.897"/>
<path fill="#010101" d="M391.877,355.427c0.578,1.658,0.758,3.546,1.548,5.248c0.511,0.668,0.961,1.357,1.431,2.058
	c1.314,1.813,2.676,3.43,4.42,3.884c0.606-2.796,1.065-5.733,0.535-8.912c-0.605-2.012-1.507-3.807-2.691-5.429
	c-1.848-2.56-4.357-4.637-7.396-6.199c-0.099-0.056-0.166-0.071-0.224-0.119l-0.403,0.093c0.158,0.24,0.304,0.517,0.461,0.796
	C390.934,349.471,391.346,352.248,391.877,355.427"/>
<path fill="#010101" d="M408.246,365.768l-10.276,8.981c-0.369-0.78-0.897-1.51-1.459-2.155"/>
<path fill="#010101" d="M396.511,372.594c-2.653-3.01-7.05-5.257-8.736-8.326l-0.571-0.084c-0.461,3.565,0.676,7.393,2.573,10.646
	c2.248,4.278,5.406,7.249,7.611,11.456c0.409,0.813,0.786,1.631,1.128,2.54c5.475-6.626,10.246-13.805,9.73-23.058"/>
<path fill="#010101" d="M209.271,397.21c1.816-3.577,5.513-6.851,6.379-10.245l0.531-0.223c1.338,3.336,1.193,7.327,0.17,10.951
	c-1.109,4.703-3.424,8.369-4.508,12.994c-0.194,0.89-0.354,1.774-0.459,2.742c-6.957-5.05-13.369-10.809-15.182-19.897l12.193,6.129
	C208.559,398.814,208.889,397.975,209.271,397.21"/>
<path fill="#010101" d="M212.407,355.427c-0.578,1.658-0.759,3.546-1.548,5.248c-0.51,0.668-0.961,1.357-1.432,2.058
	c-1.314,1.813-2.676,3.43-4.42,3.884c-0.605-2.796-1.064-5.733-0.533-8.912c0.604-2.012,1.506-3.807,2.689-5.429
	c1.848-2.56,4.357-4.637,7.396-6.199c0.099-0.056,0.166-0.071,0.223-0.119l0.404,0.093c-0.158,0.24-0.304,0.517-0.461,0.796
	C213.35,349.471,212.938,352.248,212.407,355.427"/>
<path fill="#010101" d="M207.773,372.594c2.652-3.01,7.049-5.257,8.736-8.326l0.57-0.084c0.461,3.565-0.675,7.393-2.572,10.646
	c-2.248,4.278-5.406,7.249-7.611,11.456c-0.41,0.813-0.785,1.631-1.129,2.54c-5.475-6.626-10.246-13.805-9.729-23.058l10.276,8.981
	C206.684,373.969,207.211,373.238,207.773,372.594"/>
<path fill="#010101" d="M375.41,438.368c-0.916-0.019-1.783-0.027-2.639,0.014c3.213-4.571,2.291-10.164,4.059-15.119l-0.018-0.219
	c-5.328,2.008-8.123,6.7-10.73,11.657c-1.861,3.592-3.684,7.273-6.34,9.994c1.109,0.08,2.154,0.229,3.234,0.388
	c1.123,0.163,2.275,0.386,3.436,0.692c2.306,0.135,4.58,0.237,6.732,0.167c4.034-0.171,7.795-0.855,11.037-2.607
	c1.5-0.797,2.901-1.848,4.131-3.16c-0.949-0.153-1.992-0.342-3.029-0.524C382.02,439.096,378.585,438.526,375.41,438.368"/>
<path fill="#010101" d="M401.893,416.817c-2.373,0.757-4.701,1.368-6.877,2.187c-2.345,0.846-4.607,1.987-6.605,3.79"/>
<path fill="#010101" d="M388.41,422.794c-1.494-5.036-4.274-10.122-3.865-15.641l-0.143-0.219l-0.373,0.165
	c-0.045,0.035-0.098,0.107-0.102,0.144c-0.292,0.5-0.601,0.786-1.136,1.3c-3.806,6.707-3.229,14.78-1.276,21.92
	c0.321,1.177,0.654,2.295,1.063,3.426c3.423-2.676,7.644-3.359,11.442-5.307c0.342-0.207,0.676-0.369,1.029-0.582
	c3.66-2.641,5.887-7.007,6.842-11.183"/>
<path fill="#010101" d="M228.938,438.368c0.915-0.019,1.782-0.027,2.637,0.014c-3.211-4.571-2.289-10.164-4.058-15.119l0.017-0.219
	c5.33,2.008,8.125,6.7,10.731,11.657c1.862,3.592,3.683,7.273,6.339,9.994c-1.109,0.08-2.152,0.229-3.234,0.388
	c-1.121,0.163-2.274,0.386-3.435,0.692c-2.306,0.135-4.581,0.237-6.731,0.167c-4.035-0.171-7.795-0.855-11.037-2.607
	c-1.502-0.797-2.902-1.848-4.131-3.16c0.949-0.153,1.992-0.342,3.027-0.524C222.328,439.096,225.762,438.526,228.938,438.368"/>
<path fill="#010101" d="M215.938,422.794c1.494-5.036,4.273-10.122,3.863-15.641l0.144-0.219l0.374,0.165
	c0.044,0.035,0.097,0.107,0.102,0.144c0.291,0.5,0.6,0.786,1.135,1.3c3.806,6.707,3.23,14.78,1.275,21.92
	c-0.32,1.177-0.652,2.295-1.063,3.426c-3.422-2.676-7.644-3.359-11.442-5.307c-0.342-0.207-0.677-0.369-1.03-0.582
	c-3.658-2.641-5.885-7.007-6.841-11.183c2.373,0.757,4.701,1.368,6.876,2.187C211.676,419.85,213.938,420.991,215.938,422.794"/>
<path fill="#1A1A19" d="M302.115,471.57c-3.51-1.403-11.533-5.484-20.939-10.254v14.698c11.414,7.014,20.566,11.113,20.566,11.113
	l0.399-0.001l0.399,0.001c0,0,9.152-4.1,20.567-11.113v-14.726c-9.063,4.597-16.849,8.632-20.562,10.109
	C302.397,471.458,302.252,471.517,302.115,471.57"/>
<path fill="#1A1A19" d="M248.846,450.647c8.119,9.569,19.146,17.858,29.014,24.17v-15.224c-9.689-5.161-20.402-12.017-29.014-20.575
	V450.647z"/>
<path fill="#1A1A19" d="M326.425,474.817c9.868-6.312,20.895-14.601,29.014-24.17v-11.686c-8.606,8.569-19.317,15.433-29.014,20.602
	V474.817z"/>
</svg>
