<?xml version="1.0" encoding="utf-8"?>
<!-- Generator: Adobe Illustrator 16.0.0, SVG Export Plug-In . SVG Version: 6.00 Build 0)  -->
<!DOCTYPE svg PUBLIC "-//W3C//DTD SVG 1.1//EN" "http://www.w3.org/Graphics/SVG/1.1/DTD/svg11.dtd">
<svg version="1.1" id="Layer_1" xmlns="http://www.w3.org/2000/svg" xmlns:xlink="http://www.w3.org/1999/xlink" x="0px" y="0px"
	 width="240px" height="200px" viewBox="0 0 240 200" enable-background="new 0 0 240 200" xml:space="preserve">
<path fill="#FFFFFF" d="M225.111,24.751c-0.313-2.897-2.677-4.152-5.252-2.79l-29.303,15.511l-27.572,14.598
	c-2.576,1.362-3.977,4.756-3.109,7.54l4.098,13.18c0.578,1.857,2.086,3.129,3.84,3.479l-2.283,0.815
	c-1.838,0.974-2.836,3.394-2.219,5.378l2.974,9.538c0.396,1.275,1.43,2.217,2.635,2.544c0,0,27.951-8.91,27.492-9.237
	c15.862-6.499,15.631-21.585,15.631-21.585c-0.151-1.415-1.013-2.344-2.131-2.479C227.859,50.245,225.111,24.751,225.111,24.751"/>
<polygon fill="#020202" points="217.68,57.052 167.793,83.269 215.983,54.052 "/>
<path fill="#020202" d="M168.984,97.55l-0.822-0.222c-2.184-0.592-3.959-2.305-4.635-4.47l-2.971-9.538
	c-0.8-2.565-0.021-5.462,1.797-7.389c-0.492-0.685-0.877-1.454-1.136-2.285l-4.1-13.181c-1.281-4.119,0.7-8.927,4.516-10.946
	l56.875-30.105c1.11-0.589,2.25-0.887,3.385-0.887c3.207,0,5.71,2.433,6.087,5.916c0.028,0.278,0.715,6.908-0.91,14.999
	c-1.911,9.513-6.249,17.095-12.631,22.151c0.237,0.558,0.398,1.168,0.47,1.819l0.017,0.265c0.012,0.696,0.061,17.137-17.423,24.299
	l-0.017-0.037c-2.627,1.362-9.439,3.534-27.693,9.354L168.984,97.55z M166.758,79.708c-0.539,0.38-0.884,1.287-0.693,1.897
	l2.973,9.535c0.035,0.111,0.088,0.207,0.15,0.288c9.342-2.983,19.342-6.255,23.686-7.791l2.443-1.001
	c12.722-5.212,13.752-16.61,13.834-18.58l-7.813-0.942l7.066-4.33c16.206-9.93,13.865-33.487,13.84-33.724
	c-0.003-0.032-0.086-0.767-0.35-0.767c-0.084,0-0.317,0.021-0.687,0.216l-56.875,30.108c-1.345,0.711-2.155,2.681-1.704,4.133
	l4.1,13.181c0.244,0.786,0.858,1.35,1.646,1.505l10.23,2.033L166.758,79.708z"/>
<path fill="#FFFFFF" d="M15.621,24.751c0.313-2.897,2.678-4.152,5.254-2.79l29.301,15.511l27.572,14.598
	c2.577,1.362,3.977,4.756,3.111,7.54l-4.1,13.18c-0.578,1.857-2.084,3.129-3.838,3.479l2.282,0.815
	c1.837,0.974,2.837,3.394,2.22,5.378l-2.974,9.538c-0.397,1.275-1.429,2.217-2.635,2.544c0,0-27.951-8.91-27.492-9.237
	C28.458,78.807,28.69,63.721,28.69,63.721c0.152-1.415,1.014-2.344,2.131-2.479C12.873,50.245,15.621,24.751,15.621,24.751"/>
<polygon fill="#020202" points="27.258,54.051 75.448,83.269 25.563,57.051 "/>
<path fill="#020202" d="M71.75,97.551l-0.811-0.259c-18.254-5.819-25.066-7.99-27.693-9.354l-0.017,0.038
	c-17.483-7.163-17.433-23.603-17.423-24.299l0.018-0.265c0.069-0.65,0.23-1.262,0.471-1.819
	c-6.383-5.057-10.721-12.639-12.633-22.15c-1.625-8.092-0.939-14.722-0.908-14.999c0.375-3.484,2.879-5.917,6.086-5.917
	c1.134,0,2.273,0.299,3.384,0.887L79.098,49.52c3.814,2.019,5.797,6.827,4.516,10.947l-4.099,13.179
	c-0.259,0.832-0.646,1.602-1.136,2.286c1.818,1.927,2.596,4.822,1.799,7.388l-2.975,9.539c-0.672,2.163-2.447,3.878-4.633,4.47
	L71.75,97.551z M47.861,83.639c4.344,1.536,14.344,4.808,23.686,7.791c0.062-0.081,0.113-0.176,0.147-0.287l2.976-9.539
	c0.188-0.609-0.155-1.515-0.694-1.896l-11.847-4.236l10.229-2.033c0.786-0.156,1.402-0.72,1.647-1.507l4.098-13.179
	c0.452-1.452-0.359-3.423-1.705-4.135L19.524,24.513c-0.368-0.194-0.601-0.216-0.685-0.216c-0.264,0-0.348,0.733-0.35,0.766
	c-0.025,0.232-2.308,23.829,13.838,33.723l7.067,4.33l-7.813,0.942c0.072,2.012,1.056,13.346,13.836,18.581L47.861,83.639z"/>
<path fill="#FDD00F" d="M188.025,93.303c-10.15-32.986-1.588-41.101,0.215-42.339h-67.617H52.141
	c1.803,1.238,10.365,9.353,0.217,42.339c-14.918,48.481,55.283,74.915,67.834,79.936c0.136-0.055,0.281-0.112,0.432-0.172
	C134.26,167.639,202.779,141.257,188.025,93.303"/>
<g opacity="0.6">
	<g>
		<g>
			<defs>
				<rect id="SVGID_1_" x="120.37" y="50.21" width="69.47" height="122.101"/>
			</defs>
			<clipPath id="SVGID_2_">
				<use xlink:href="#SVGID_1_"  overflow="visible"/>
			</clipPath>
			<path clip-path="url(#SVGID_2_)" fill="#CDA72C" d="M187.773,92.551c-10.15-32.988-1.588-41.101,0.215-42.339h-67.617v122.101
				C134.009,166.887,202.529,140.505,187.773,92.551"/>
		</g>
	</g>
</g>
<g opacity="0.4">
	<g>
		<g>
			<defs>
				<rect id="SVGID_3_" x="50.29" y="5.19" width="139.8" height="168.05"/>
			</defs>
			<clipPath id="SVGID_4_">
				<use xlink:href="#SVGID_3_"  overflow="visible"/>
			</clipPath>
			<path clip-path="url(#SVGID_4_)" fill="#FFFFFF" d="M120.191,19.247c12.872,6.204,32.309,10.53,54.446,12.167v14.542
				c-1.519,2.447-2.943,5.632-3.908,9.729c-2.504,10.653-1.121,24.676,4.108,41.677c2.33,7.567,1.854,14.6-1.444,21.499
				c-3.051,6.373-8.519,12.725-16.25,18.875c-12.736,10.132-28.211,17.049-36.952,20.637c-8.742-3.588-24.217-10.505-36.953-20.637
				c-7.732-6.15-13.201-12.502-16.25-18.875c-3.302-6.898-3.774-13.932-1.445-21.499c5.23-17.001,6.613-31.023,4.109-41.676
				c-0.964-4.098-2.391-7.282-3.908-9.729V31.415C87.882,29.777,107.318,25.451,120.191,19.247 M120.191,5.186
				c-1.727,0-3.453,0.347-4.796,1.037c-9.942,5.12-29.271,10.587-57.983,11.864c-3.017,0.134-5.465,2.57-5.465,5.589v27.161
				c0,0,11.262,7.192,0.409,42.466c-14.917,48.482,55.285,74.915,67.835,79.935c12.549-5.02,82.75-31.451,67.834-79.935
				c-10.854-35.273,0.408-42.466,0.408-42.466V23.676c0-3.019-2.447-5.455-5.465-5.589c-28.713-1.276-48.041-6.744-57.982-11.864
				C123.645,5.532,121.918,5.186,120.191,5.186"/>
		</g>
	</g>
</g>
<path fill="#191818" d="M188.436,23.676c0-3.02-2.449-5.455-5.465-5.589c-28.714-1.276-48.043-6.744-57.984-11.865
	c-2.686-1.382-6.904-1.382-9.589,0c-9.943,5.121-29.272,10.588-57.984,11.865c-3.016,0.134-5.465,2.569-5.465,5.589v27.161
	c0,0,0.069,0.041,0.194,0.127H188.24c0.125-0.086,0.195-0.127,0.195-0.127V23.676L188.436,23.676z"/>
<polygon fill="#FFFFFF" points="96.646,42.131 102.668,25.604 94.359,25.604 94.359,22.051 107.244,22.051 107.244,24.852 
	101.012,42.131 "/>
<path fill="#FFFFFF" d="M106.791,40.145c0-1.264,1.084-2.348,2.348-2.348c1.264,0,2.318,1.084,2.318,2.348
	c0,1.266-1.055,2.318-2.318,2.318C107.876,42.463,106.791,41.409,106.791,40.145"/>
<path fill="#FFFFFF" d="M114.074,39.331l2.439-2.589c1.053,1.385,2.469,2.168,4.185,2.168c1.927,0,3.04-1.476,3.04-3.161
	c0-1.987-1.055-3.161-2.859-3.161c-1.355,0-2.379,0.481-3.313,1.655l-2.92-0.782v-11.41h12.043v3.552h-8.009v5.148
	c0.784-0.963,2.138-1.655,3.673-1.655c3.041,0,5.479,2.378,5.479,6.532c0,4.034-2.74,6.864-7.016,6.864
	C117.719,42.492,115.58,41.35,114.074,39.331"/>
<polygon fill="#FFFFFF" points="140.656,42.131 136.02,34.274 134.604,36.502 134.604,42.131 130.57,42.131 130.57,22.051 
	134.604,22.051 134.604,31.173 140.266,22.051 144.961,22.051 138.549,31.504 145.412,42.131 "/>
<g>
	<g>
		<defs>
			<path id="SVGID_5_" d="M115.396,6.222c-9.941,5.122-29.272,10.589-57.984,11.866c-3.016,0.132-5.465,2.568-5.465,5.588v27.161
				c0,0,11.263,7.192,0.408,42.467c-14.916,48.48,55.285,74.914,67.834,79.935c12.551-5.021,82.752-31.453,67.836-79.935
				c-10.854-35.273,0.408-42.467,0.408-42.467V23.676c0-3.02-2.447-5.456-5.464-5.588c-28.714-1.276-48.041-6.744-57.985-11.866
				c-1.34-0.69-3.067-1.036-4.795-1.036C118.464,5.186,116.738,5.531,115.396,6.222"/>
		</defs>
		<clipPath id="SVGID_6_">
			<use xlink:href="#SVGID_5_"  overflow="visible"/>
		</clipPath>
		<polygon clip-path="url(#SVGID_6_)" fill="#FFFFFF" points="199.137,86.403 199.137,92.291 120.646,111.912 120.646,94.252 
			194.697,86.848 		"/>
	</g>
	<g>
		<defs>
			<path id="SVGID_7_" d="M115.396,6.222c-9.941,5.122-29.272,10.589-57.984,11.866c-3.016,0.132-5.465,2.568-5.465,5.588v27.161
				c0,0,11.263,7.192,0.408,42.467c-14.916,48.48,55.285,74.914,67.834,79.935c12.551-5.021,82.752-31.453,67.836-79.935
				c-10.854-35.273,0.408-42.467,0.408-42.467V23.676c0-3.02-2.447-5.456-5.464-5.588c-28.714-1.276-48.041-6.744-57.985-11.866
				c-1.34-0.69-3.067-1.036-4.795-1.036C118.464,5.186,116.738,5.531,115.396,6.222"/>
		</defs>
		<clipPath id="SVGID_8_">
			<use xlink:href="#SVGID_7_"  overflow="visible"/>
		</clipPath>
		<polygon clip-path="url(#SVGID_8_)" fill="#FFFFFF" points="41.722,86.403 41.722,92.291 120.211,111.912 120.211,94.252 
			46.16,86.848 		"/>
	</g>
	<g>
		<defs>
			<path id="SVGID_9_" d="M115.396,6.222c-9.941,5.122-29.272,10.589-57.984,11.866c-3.016,0.132-5.465,2.568-5.465,5.588v27.161
				c0,0,11.263,7.192,0.408,42.467c-14.916,48.48,55.285,74.914,67.834,79.935c12.551-5.021,82.752-31.453,67.836-79.935
				c-10.854-35.273,0.408-42.467,0.408-42.467V23.676c0-3.02-2.447-5.456-5.464-5.588c-28.714-1.276-48.041-6.744-57.985-11.866
				c-1.34-0.69-3.067-1.036-4.795-1.036C118.464,5.186,116.738,5.531,115.396,6.222"/>
		</defs>
		<clipPath id="SVGID_10_">
			<use xlink:href="#SVGID_9_"  overflow="visible"/>
		</clipPath>
		<polygon clip-path="url(#SVGID_10_)" fill="#FDD00F" points="101.504,98.988 42.588,89.306 42.588,91.931 101.667,107.357 		"/>
	</g>
	<g>
		<defs>
			<path id="SVGID_11_" d="M115.396,6.222c-9.941,5.122-29.272,10.589-57.984,11.866c-3.016,0.132-5.465,2.568-5.465,5.588v27.161
				c0,0,11.263,7.192,0.408,42.467c-14.916,48.48,55.285,74.914,67.834,79.935c12.551-5.021,82.752-31.453,67.836-79.935
				c-10.854-35.273,0.408-42.467,0.408-42.467V23.676c0-3.02-2.447-5.456-5.464-5.588c-28.714-1.276-48.041-6.744-57.985-11.866
				c-1.34-0.69-3.067-1.036-4.795-1.036C118.464,5.186,116.738,5.531,115.396,6.222"/>
		</defs>
		<clipPath id="SVGID_12_">
			<use xlink:href="#SVGID_11_"  overflow="visible"/>
		</clipPath>
		<polygon clip-path="url(#SVGID_12_)" fill="#FDD00F" points="139.248,98.988 198.162,89.306 198.162,91.931 139.084,107.357 		"/>
	</g>
	<g>
		<defs>
			<path id="SVGID_13_" d="M115.396,6.222c-9.941,5.122-29.272,10.589-57.984,11.866c-3.016,0.132-5.465,2.568-5.465,5.588v27.161
				c0,0,11.263,7.192,0.408,42.467c-14.916,48.48,55.285,74.914,67.834,79.935c12.551-5.021,82.752-31.453,67.836-79.935
				c-10.854-35.273,0.408-42.467,0.408-42.467V23.676c0-3.02-2.447-5.456-5.464-5.588c-28.714-1.276-48.041-6.744-57.985-11.866
				c-1.34-0.69-3.067-1.036-4.795-1.036C118.464,5.186,116.738,5.531,115.396,6.222"/>
		</defs>
		<clipPath id="SVGID_14_">
			<use xlink:href="#SVGID_13_"  overflow="visible"/>
		</clipPath>
		<polygon clip-path="url(#SVGID_14_)" fill="#FDD00F" points="126.35,86.403 114.072,86.403 118.249,62.486 122.174,62.486 		"/>
	</g>
	<g>
		<defs>
			<path id="SVGID_15_" d="M115.396,6.222c-9.941,5.122-29.272,10.589-57.984,11.866c-3.016,0.132-5.465,2.568-5.465,5.588v27.161
				c0,0,11.263,7.192,0.408,42.467c-14.916,48.48,55.285,74.914,67.834,79.935c12.551-5.021,82.752-31.453,67.836-79.935
				c-10.854-35.273,0.408-42.467,0.408-42.467V23.676c0-3.02-2.447-5.456-5.464-5.588c-28.714-1.276-48.041-6.744-57.985-11.866
				c-1.34-0.69-3.067-1.036-4.795-1.036C118.464,5.186,116.738,5.531,115.396,6.222"/>
		</defs>
		<clipPath id="SVGID_16_">
			<use xlink:href="#SVGID_15_"  overflow="visible"/>
		</clipPath>
		<path clip-path="url(#SVGID_16_)" fill="#191818" d="M128.141,87.908h-15.858l4.702-26.927h6.454L128.141,87.908z M115.863,84.898
			h8.696l-3.65-20.907h-1.396L115.863,84.898z"/>
	</g>
	<g>
		<defs>
			<path id="SVGID_17_" d="M115.396,6.222c-9.941,5.122-29.272,10.589-57.984,11.866c-3.016,0.132-5.465,2.568-5.465,5.588v27.161
				c0,0,11.263,7.192,0.408,42.467c-14.916,48.48,55.285,74.914,67.834,79.935c12.551-5.021,82.752-31.453,67.836-79.935
				c-10.854-35.273,0.408-42.467,0.408-42.467V23.676c0-3.02-2.447-5.456-5.464-5.588c-28.714-1.276-48.041-6.744-57.985-11.866
				c-1.34-0.69-3.067-1.036-4.795-1.036C118.464,5.186,116.738,5.531,115.396,6.222"/>
		</defs>
		<clipPath id="SVGID_18_">
			<use xlink:href="#SVGID_17_"  overflow="visible"/>
		</clipPath>
		<path clip-path="url(#SVGID_18_)" fill="#191818" d="M118.64,114.483V92.436l82.504-8.251v9.673L118.64,114.483z M122.654,96.068
			v13.272l74.477-18.619V88.62L122.654,96.068z"/>
	</g>
	<g>
		<defs>
			<path id="SVGID_19_" d="M115.396,6.222c-9.941,5.122-29.272,10.589-57.984,11.866c-3.016,0.132-5.465,2.568-5.465,5.588v27.161
				c0,0,11.263,7.192,0.408,42.467c-14.916,48.48,55.285,74.914,67.834,79.935c12.551-5.021,82.752-31.453,67.836-79.935
				c-10.854-35.273,0.408-42.467,0.408-42.467V23.676c0-3.02-2.447-5.456-5.464-5.588c-28.714-1.276-48.041-6.744-57.985-11.866
				c-1.34-0.69-3.067-1.036-4.795-1.036C118.464,5.186,116.738,5.531,115.396,6.222"/>
		</defs>
		<clipPath id="SVGID_20_">
			<use xlink:href="#SVGID_19_"  overflow="visible"/>
		</clipPath>
		<path clip-path="url(#SVGID_20_)" fill="#FFFFFF" d="M159.215,107.814c0,3.251,2.635,5.887,5.887,5.887s5.887-2.636,5.887-5.887
			c0-3.252-2.635-5.889-5.887-5.889C161.85,101.927,159.215,104.563,159.215,107.814"/>
	</g>
	<g>
		<defs>
			<path id="SVGID_21_" d="M115.396,6.222c-9.941,5.122-29.272,10.589-57.984,11.866c-3.016,0.132-5.465,2.568-5.465,5.588v27.161
				c0,0,11.263,7.192,0.408,42.467c-14.916,48.48,55.285,74.914,67.834,79.935c12.551-5.021,82.752-31.453,67.836-79.935
				c-10.854-35.273,0.408-42.467,0.408-42.467V23.676c0-3.02-2.447-5.456-5.464-5.588c-28.714-1.276-48.041-6.744-57.985-11.866
				c-1.34-0.69-3.067-1.036-4.795-1.036C118.464,5.186,116.738,5.531,115.396,6.222"/>
		</defs>
		<clipPath id="SVGID_22_">
			<use xlink:href="#SVGID_21_"  overflow="visible"/>
		</clipPath>
		<path clip-path="url(#SVGID_22_)" fill="#191818" d="M165.102,115.205c-4.076,0-7.393-3.315-7.393-7.391
			c0-4.076,3.316-7.394,7.393-7.394c4.075,0,7.392,3.316,7.392,7.394C172.492,111.89,169.177,115.205,165.102,115.205
			 M165.102,103.432c-2.416,0-4.383,1.967-4.383,4.384c0,2.416,1.967,4.382,4.383,4.382s4.381-1.966,4.381-4.382
			C169.482,105.398,167.518,103.432,165.102,103.432"/>
	</g>
	<g>
		<defs>
			<path id="SVGID_23_" d="M115.396,6.222c-9.941,5.122-29.272,10.589-57.984,11.866c-3.016,0.132-5.465,2.568-5.465,5.588v27.161
				c0,0,11.263,7.192,0.408,42.467c-14.916,48.48,55.285,74.914,67.834,79.935c12.551-5.021,82.752-31.453,67.836-79.935
				c-10.854-35.273,0.408-42.467,0.408-42.467V23.676c0-3.02-2.447-5.456-5.464-5.588c-28.714-1.276-48.041-6.744-57.985-11.866
				c-1.34-0.69-3.067-1.036-4.795-1.036C118.464,5.186,116.738,5.531,115.396,6.222"/>
		</defs>
		<clipPath id="SVGID_24_">
			<use xlink:href="#SVGID_23_"  overflow="visible"/>
		</clipPath>
		<path clip-path="url(#SVGID_24_)" fill="#191818" d="M122.218,114.482L39.714,93.857v-9.673l82.504,8.251V114.482z M43.729,90.724
			l74.477,18.619V96.069l-74.477-7.448V90.724z"/>
	</g>
	<g>
		<defs>
			<path id="SVGID_25_" d="M115.396,6.222c-9.941,5.122-29.272,10.589-57.984,11.866c-3.016,0.132-5.465,2.568-5.465,5.588v27.161
				c0,0,11.263,7.192,0.408,42.467c-14.916,48.48,55.285,74.914,67.834,79.935c12.551-5.021,82.752-31.453,67.836-79.935
				c-10.854-35.273,0.408-42.467,0.408-42.467V23.676c0-3.02-2.447-5.456-5.464-5.588c-28.714-1.276-48.041-6.744-57.985-11.866
				c-1.34-0.69-3.067-1.036-4.795-1.036C118.464,5.186,116.738,5.531,115.396,6.222"/>
		</defs>
		<clipPath id="SVGID_26_">
			<use xlink:href="#SVGID_25_"  overflow="visible"/>
		</clipPath>
		<path clip-path="url(#SVGID_26_)" fill="#191818" d="M118.479,89.858v-9.083l24.887-2.489v5.35L118.479,89.858z M122.494,84.407
			v0.311l2.064-0.517L122.494,84.407z"/>
	</g>
	<g>
		<defs>
			<path id="SVGID_27_" d="M115.396,6.222c-9.941,5.122-29.272,10.589-57.984,11.866c-3.016,0.132-5.465,2.568-5.465,5.588v27.161
				c0,0,11.263,7.192,0.408,42.467c-14.916,48.48,55.285,74.914,67.834,79.935c12.551-5.021,82.752-31.453,67.836-79.935
				c-10.854-35.273,0.408-42.467,0.408-42.467V23.676c0-3.02-2.447-5.456-5.464-5.588c-28.714-1.276-48.041-6.744-57.985-11.866
				c-1.34-0.69-3.067-1.036-4.795-1.036C118.464,5.186,116.738,5.531,115.396,6.222"/>
		</defs>
		<clipPath id="SVGID_28_">
			<use xlink:href="#SVGID_27_"  overflow="visible"/>
		</clipPath>
		<path clip-path="url(#SVGID_28_)" fill="#191818" d="M122.378,89.858l-24.887-6.223v-5.351l24.887,2.49V89.858z M116.299,84.201
			l2.065,0.517v-0.31L116.299,84.201z"/>
	</g>
	<g>
		<defs>
			<path id="SVGID_29_" d="M115.396,6.222c-9.941,5.122-29.272,10.589-57.984,11.866c-3.016,0.132-5.465,2.568-5.465,5.588v27.161
				c0,0,11.263,7.192,0.408,42.467c-14.916,48.48,55.285,74.914,67.834,79.935c12.551-5.021,82.752-31.453,67.836-79.935
				c-10.854-35.273,0.408-42.467,0.408-42.467V23.676c0-3.02-2.447-5.456-5.464-5.588c-28.714-1.276-48.041-6.744-57.985-11.866
				c-1.34-0.69-3.067-1.036-4.795-1.036C118.464,5.186,116.738,5.531,115.396,6.222"/>
		</defs>
		<clipPath id="SVGID_30_">
			<use xlink:href="#SVGID_29_"  overflow="visible"/>
		</clipPath>
		<path clip-path="url(#SVGID_30_)" fill="#FDD00F" d="M141.796,102.102c0,11.922-9.664,21.585-21.585,21.585
			c-11.92,0-21.584-9.663-21.584-21.585c0-11.921,9.664-21.585,21.584-21.585C132.132,80.517,141.796,90.181,141.796,102.102"/>
	</g>
	<g>
		<defs>
			<path id="SVGID_31_" d="M115.396,6.222c-9.941,5.122-29.272,10.589-57.984,11.866c-3.016,0.132-5.465,2.568-5.465,5.588v27.161
				c0,0,11.263,7.192,0.408,42.467c-14.916,48.48,55.285,74.914,67.834,79.935c12.551-5.021,82.752-31.453,67.836-79.935
				c-10.854-35.273,0.408-42.467,0.408-42.467V23.676c0-3.02-2.447-5.456-5.464-5.588c-28.714-1.276-48.041-6.744-57.985-11.866
				c-1.34-0.69-3.067-1.036-4.795-1.036C118.464,5.186,116.738,5.531,115.396,6.222"/>
		</defs>
		<clipPath id="SVGID_32_">
			<use xlink:href="#SVGID_31_"  overflow="visible"/>
		</clipPath>
		<path clip-path="url(#SVGID_32_)" fill="#FFFFFF" d="M120.211,80.517c-11.921,0-21.585,9.664-21.585,21.585
			c0,11.922,9.664,21.584,21.585,21.584c0.027,0,0.055-0.002,0.082-0.002V80.519C120.266,80.519,120.238,80.517,120.211,80.517"/>
	</g>
	<g>
		<defs>
			<path id="SVGID_33_" d="M115.396,6.222c-9.941,5.122-29.272,10.589-57.984,11.866c-3.016,0.132-5.465,2.568-5.465,5.588v27.161
				c0,0,11.263,7.192,0.408,42.467c-14.916,48.48,55.285,74.914,67.834,79.935c12.551-5.021,82.752-31.453,67.836-79.935
				c-10.854-35.273,0.408-42.467,0.408-42.467V23.676c0-3.02-2.447-5.456-5.464-5.588c-28.714-1.276-48.041-6.744-57.985-11.866
				c-1.34-0.69-3.067-1.036-4.795-1.036C118.464,5.186,116.738,5.531,115.396,6.222"/>
		</defs>
		<clipPath id="SVGID_34_">
			<use xlink:href="#SVGID_33_"  overflow="visible"/>
		</clipPath>
		<path clip-path="url(#SVGID_34_)" fill="#191818" d="M120.211,125.692c-13.009,0-23.592-10.583-23.592-23.592
			c0-13.008,10.583-23.592,23.592-23.592c13.01,0,23.592,10.584,23.592,23.592C143.803,115.109,133.221,125.692,120.211,125.692
			 M120.211,82.523c-10.796,0-19.578,8.782-19.578,19.577c0,10.797,8.782,19.578,19.578,19.578c10.797,0,19.578-8.781,19.578-19.578
			C139.789,91.307,131.008,82.523,120.211,82.523"/>
	</g>
	<g>
		<defs>
			<path id="SVGID_35_" d="M115.396,6.222c-9.941,5.122-29.272,10.589-57.984,11.866c-3.016,0.132-5.465,2.568-5.465,5.588v27.161
				c0,0,11.263,7.192,0.408,42.467c-14.916,48.48,55.285,74.914,67.834,79.935c12.551-5.021,82.752-31.453,67.836-79.935
				c-10.854-35.273,0.408-42.467,0.408-42.467V23.676c0-3.02-2.447-5.456-5.464-5.588c-28.714-1.276-48.041-6.744-57.985-11.866
				c-1.34-0.69-3.067-1.036-4.795-1.036C118.464,5.186,116.738,5.531,115.396,6.222"/>
		</defs>
		<clipPath id="SVGID_36_">
			<use xlink:href="#SVGID_35_"  overflow="visible"/>
		</clipPath>
		<path clip-path="url(#SVGID_36_)" fill="#FFFFFF" d="M81.645,108.817c0,3.251-2.637,5.888-5.888,5.888s-5.886-2.637-5.886-5.888
			s2.635-5.888,5.886-5.888S81.645,105.566,81.645,108.817"/>
	</g>
	<g>
		<defs>
			<path id="SVGID_37_" d="M115.396,6.222c-9.941,5.122-29.272,10.589-57.984,11.866c-3.016,0.132-5.465,2.568-5.465,5.588v27.161
				c0,0,11.263,7.192,0.408,42.467c-14.916,48.48,55.285,74.914,67.834,79.935c12.551-5.021,82.752-31.453,67.836-79.935
				c-10.854-35.273,0.408-42.467,0.408-42.467V23.676c0-3.02-2.447-5.456-5.464-5.588c-28.714-1.276-48.041-6.744-57.985-11.866
				c-1.34-0.69-3.067-1.036-4.795-1.036C118.464,5.186,116.738,5.531,115.396,6.222"/>
		</defs>
		<clipPath id="SVGID_38_">
			<use xlink:href="#SVGID_37_"  overflow="visible"/>
		</clipPath>
		<path clip-path="url(#SVGID_38_)" fill="#191818" d="M75.758,115.205c-4.076,0-7.393-3.315-7.393-7.391
			c0-4.076,3.316-7.394,7.393-7.394c4.075,0,7.391,3.316,7.391,7.394C83.148,111.89,79.833,115.205,75.758,115.205 M75.758,103.432
			c-2.416,0-4.383,1.967-4.383,4.384c0,2.416,1.967,4.382,4.383,4.382c2.415,0,4.381-1.966,4.381-4.382
			C80.139,105.398,78.173,103.432,75.758,103.432"/>
	</g>
	<g>
		<defs>
			<path id="SVGID_39_" d="M115.396,6.222c-9.941,5.122-29.272,10.589-57.984,11.866c-3.016,0.132-5.465,2.568-5.465,5.588v27.161
				c0,0,11.263,7.192,0.408,42.467c-14.916,48.48,55.285,74.914,67.834,79.935c12.551-5.021,82.752-31.453,67.836-79.935
				c-10.854-35.273,0.408-42.467,0.408-42.467V23.676c0-3.02-2.447-5.456-5.464-5.588c-28.714-1.276-48.041-6.744-57.985-11.866
				c-1.34-0.69-3.067-1.036-4.795-1.036C118.464,5.186,116.738,5.531,115.396,6.222"/>
		</defs>
		<clipPath id="SVGID_40_">
			<use xlink:href="#SVGID_39_"  overflow="visible"/>
		</clipPath>
		<polygon clip-path="url(#SVGID_40_)" fill="#191818" points="105.246,97.576 109.201,93.62 117.113,95.598 117.113,101.532 		"/>
	</g>
	<g>
		<defs>
			<path id="SVGID_41_" d="M115.396,6.222c-9.941,5.122-29.272,10.589-57.984,11.866c-3.016,0.132-5.465,2.568-5.465,5.588v27.161
				c0,0,11.263,7.192,0.408,42.467c-14.916,48.48,55.285,74.914,67.834,79.935c12.551-5.021,82.752-31.453,67.836-79.935
				c-10.854-35.273,0.408-42.467,0.408-42.467V23.676c0-3.02-2.447-5.456-5.464-5.588c-28.714-1.276-48.041-6.744-57.985-11.866
				c-1.34-0.69-3.067-1.036-4.795-1.036C118.464,5.186,116.738,5.531,115.396,6.222"/>
		</defs>
		<clipPath id="SVGID_42_">
			<use xlink:href="#SVGID_41_"  overflow="visible"/>
		</clipPath>
		<polygon clip-path="url(#SVGID_42_)" fill="#191818" points="135.725,97.576 131.77,93.62 123.857,95.598 123.857,101.532 		"/>
	</g>
	<g>
		<defs>
			<path id="SVGID_43_" d="M115.396,6.222c-9.941,5.122-29.272,10.589-57.984,11.866c-3.016,0.132-5.465,2.568-5.465,5.588v27.161
				c0,0,11.263,7.192,0.408,42.467c-14.916,48.48,55.285,74.914,67.834,79.935c12.551-5.021,82.752-31.453,67.836-79.935
				c-10.854-35.273,0.408-42.467,0.408-42.467V23.676c0-3.02-2.447-5.456-5.464-5.588c-28.714-1.276-48.041-6.744-57.985-11.866
				c-1.34-0.69-3.067-1.036-4.795-1.036C118.464,5.186,116.738,5.531,115.396,6.222"/>
		</defs>
		<clipPath id="SVGID_44_">
			<use xlink:href="#SVGID_43_"  overflow="visible"/>
		</clipPath>
		<path clip-path="url(#SVGID_44_)" fill="#191818" d="M141.418,122.943c-1.736,0-4.407,0.146-4.407,1.886v10.414
			c0,1.737,2.671,1.885,4.407,1.885s1.945-0.146,1.945-1.885v-10.414C143.363,123.091,143.154,122.943,141.418,122.943"/>
	</g>
	<g>
		<defs>
			<path id="SVGID_45_" d="M115.396,6.222c-9.941,5.122-29.272,10.589-57.984,11.866c-3.016,0.132-5.465,2.568-5.465,5.588v27.161
				c0,0,11.263,7.192,0.408,42.467c-14.916,48.48,55.285,74.914,67.834,79.935c12.551-5.021,82.752-31.453,67.836-79.935
				c-10.854-35.273,0.408-42.467,0.408-42.467V23.676c0-3.02-2.447-5.456-5.464-5.588c-28.714-1.276-48.041-6.744-57.985-11.866
				c-1.34-0.69-3.067-1.036-4.795-1.036C118.464,5.186,116.738,5.531,115.396,6.222"/>
		</defs>
		<clipPath id="SVGID_46_">
			<use xlink:href="#SVGID_45_"  overflow="visible"/>
		</clipPath>
		<path clip-path="url(#SVGID_46_)" fill="#191818" d="M146.998,122.943c-1.738,0-1.945,0.146-1.945,1.886v10.414
			c0,1.737,0.207,1.885,1.945,1.885c1.736,0,4.406-0.146,4.406-1.885v-10.414C151.404,123.091,148.734,122.943,146.998,122.943"/>
	</g>
	<g>
		<defs>
			<path id="SVGID_47_" d="M115.396,6.222c-9.941,5.122-29.272,10.589-57.984,11.866c-3.016,0.132-5.465,2.568-5.465,5.588v27.161
				c0,0,11.263,7.192,0.408,42.467c-14.916,48.48,55.285,74.914,67.834,79.935c12.551-5.021,82.752-31.453,67.836-79.935
				c-10.854-35.273,0.408-42.467,0.408-42.467V23.676c0-3.02-2.447-5.456-5.464-5.588c-28.714-1.276-48.041-6.744-57.985-11.866
				c-1.34-0.69-3.067-1.036-4.795-1.036C118.464,5.186,116.738,5.531,115.396,6.222"/>
		</defs>
		<clipPath id="SVGID_48_">
			<use xlink:href="#SVGID_47_"  overflow="visible"/>
		</clipPath>
		<path clip-path="url(#SVGID_48_)" fill="#191818" d="M93.757,122.943c-1.738,0-4.407,0.146-4.407,1.886v10.414
			c0,1.737,2.669,1.885,4.407,1.885c1.737,0,1.944-0.146,1.944-1.885v-10.414C95.701,123.091,95.494,122.943,93.757,122.943"/>
	</g>
	<g>
		<defs>
			<path id="SVGID_49_" d="M115.396,6.222c-9.941,5.122-29.272,10.589-57.984,11.866c-3.016,0.132-5.465,2.568-5.465,5.588v27.161
				c0,0,11.263,7.192,0.408,42.467c-14.916,48.48,55.285,74.914,67.834,79.935c12.551-5.021,82.752-31.453,67.836-79.935
				c-10.854-35.273,0.408-42.467,0.408-42.467V23.676c0-3.02-2.447-5.456-5.464-5.588c-28.714-1.276-48.041-6.744-57.985-11.866
				c-1.34-0.69-3.067-1.036-4.795-1.036C118.464,5.186,116.738,5.531,115.396,6.222"/>
		</defs>
		<clipPath id="SVGID_50_">
			<use xlink:href="#SVGID_49_"  overflow="visible"/>
		</clipPath>
		<path clip-path="url(#SVGID_50_)" fill="#191818" d="M99.336,122.943c-1.736,0-1.945,0.146-1.945,1.886v10.414
			c0,1.737,0.209,1.885,1.945,1.885c1.737,0,4.407-0.146,4.407-1.885v-10.414C103.743,123.091,101.073,122.943,99.336,122.943"/>
	</g>
	<g>
		<defs>
			<path id="SVGID_51_" d="M115.396,6.222c-9.941,5.122-29.272,10.589-57.984,11.866c-3.016,0.132-5.465,2.568-5.465,5.588v27.161
				c0,0,11.263,7.192,0.408,42.467c-14.916,48.48,55.285,74.914,67.834,79.935c12.551-5.021,82.752-31.453,67.836-79.935
				c-10.854-35.273,0.408-42.467,0.408-42.467V23.676c0-3.02-2.447-5.456-5.464-5.588c-28.714-1.276-48.041-6.744-57.985-11.866
				c-1.34-0.69-3.067-1.036-4.795-1.036C118.464,5.186,116.738,5.531,115.396,6.222"/>
		</defs>
		<clipPath id="SVGID_52_">
			<use xlink:href="#SVGID_51_"  overflow="visible"/>
		</clipPath>
		<path clip-path="url(#SVGID_52_)" fill="#191818" d="M103.52,132.181l-2.078-3.433c3.034-1.843,7.309-5.471,7.309-7.771h4.014
			C112.764,126.317,105.063,131.246,103.52,132.181"/>
	</g>
	<g>
		<defs>
			<path id="SVGID_53_" d="M115.396,6.222c-9.941,5.122-29.272,10.589-57.984,11.866c-3.016,0.132-5.465,2.568-5.465,5.588v27.161
				c0,0,11.263,7.192,0.408,42.467c-14.916,48.48,55.285,74.914,67.834,79.935c12.551-5.021,82.752-31.453,67.836-79.935
				c-10.854-35.273,0.408-42.467,0.408-42.467V23.676c0-3.02-2.447-5.456-5.464-5.588c-28.714-1.276-48.041-6.744-57.985-11.866
				c-1.34-0.69-3.067-1.036-4.795-1.036C118.464,5.186,116.738,5.531,115.396,6.222"/>
		</defs>
		<clipPath id="SVGID_54_">
			<use xlink:href="#SVGID_53_"  overflow="visible"/>
		</clipPath>
		<path clip-path="url(#SVGID_54_)" fill="#191818" d="M137.672,132.181c-1.544-0.935-9.244-5.862-9.244-11.202h4.014
			c0,2.283,4.361,5.985,7.309,7.769L137.672,132.181z"/>
	</g>
</g>
<path fill="#191818" d="M120.191,13.552c0.526,0,0.893,0.091,1.006,0.13c13.129,6.748,34.478,11.32,58.871,12.638v21.295
	c-1.498,2.068-3.057,5.072-4.053,9.313c-2.281,9.702-0.931,22.771,4.014,38.836c5.105,16.601-1.273,31.72-19.508,46.222
	c-14.387,11.443-31.92,18.868-40.331,22.248c-8.414-3.38-25.947-10.805-40.334-22.248c-18.232-14.502-24.613-29.621-19.505-46.222
	c4.943-16.065,6.294-29.134,4.013-38.836c-0.996-4.24-2.555-7.243-4.053-9.313V26.32c24.393-1.318,45.743-5.891,58.872-12.638
	C119.297,13.643,119.664,13.552,120.191,13.552 M120.191,5.186c-1.727,0-3.453,0.346-4.796,1.037
	c-9.942,5.12-29.271,10.587-57.983,11.864c-3.017,0.134-5.465,2.57-5.465,5.589v27.161c0,0,11.262,7.192,0.409,42.466
	c-14.917,48.482,55.285,74.915,67.835,79.935c12.549-5.02,82.75-31.451,67.834-79.935c-10.854-35.273,0.408-42.466,0.408-42.466
	V23.676c0-3.019-2.447-5.455-5.465-5.589c-28.713-1.276-48.041-6.744-57.982-11.864C123.645,5.531,121.916,5.186,120.191,5.186"/>
<polygon fill="#FFFFFF" points="91.137,29.669 83.679,28.539 80.357,21.44 77.037,28.539 69.578,29.669 74.969,35.204 
	73.621,42.999 80.357,39.317 87.094,42.999 85.746,35.204 "/>
<polygon fill="#FFFFFF" points="170.803,29.669 163.346,28.539 160.023,21.44 156.704,28.539 149.245,29.669 154.635,35.204 
	153.287,42.999 160.023,39.317 166.761,42.999 165.414,35.204 "/>
<path fill="#020202" d="M213.008,95.313c0.146,1.75-0.152,3.623,0.188,5.469c0.328,0.773,0.591,1.554,0.871,2.349
	c0.82,2.085,1.734,3.99,3.312,4.866c1.285-2.557,2.463-5.286,2.744-8.497c-0.084-2.099-0.51-4.063-1.25-5.928
	c-1.149-2.94-3.063-5.579-5.612-7.852c-0.082-0.079-0.144-0.109-0.187-0.17l-0.414-0.012c0.092,0.271,0.164,0.577,0.245,0.886
	C213.582,89.31,213.287,92.102,213.008,95.313"/>
<path fill="#020202" d="M213.206,113.092c-1.817-3.577-5.513-6.851-6.38-10.245l-0.531-0.223c-1.337,3.336-1.193,7.327-0.169,10.951
	c1.108,4.704,3.424,8.368,4.508,12.993c0.194,0.891,0.353,1.774,0.458,2.741c6.957-5.049,13.37-10.808,15.183-19.896l-12.192,6.129
	C213.918,114.695,213.588,113.857,213.206,113.092"/>
<path fill="#020202" d="M193.604,154.25c-0.916-0.018-1.783-0.027-2.639,0.014c3.211-4.569,2.291-10.163,4.059-15.119l-0.018-0.219
	c-5.328,2.008-8.123,6.701-10.73,11.657c-1.861,3.592-3.684,7.274-6.34,9.994c1.109,0.08,2.152,0.229,3.234,0.388
	c1.123,0.163,2.275,0.386,3.436,0.692c2.307,0.135,4.58,0.236,6.732,0.167c4.034-0.172,7.795-0.855,11.037-2.606
	c1.5-0.798,2.9-1.849,4.131-3.161c-0.949-0.153-1.992-0.342-3.029-0.522C200.213,154.978,196.777,154.408,193.604,154.25"/>
<path fill="#020202" d="M206.604,138.676c-1.494-5.035-4.274-10.121-3.864-15.641l-0.144-0.219l-0.373,0.165
	c-0.045,0.035-0.098,0.107-0.102,0.144c-0.293,0.5-0.602,0.786-1.137,1.301c-3.805,6.707-3.229,14.779-1.274,21.92
	c0.319,1.177,0.653,2.295,1.062,3.426c3.425-2.677,7.646-3.359,11.443-5.307c0.342-0.207,0.678-0.37,1.029-0.582
	c3.66-2.642,5.886-7.008,6.842-11.184c-2.373,0.757-4.701,1.368-6.876,2.187C210.863,135.731,208.602,136.873,206.604,138.676"/>
<path fill="#020202" d="M27.804,95.442c-0.24,1.739-0.044,3.626-0.482,5.449c-0.368,0.756-0.674,1.521-0.997,2.3
	c-0.931,2.036-1.947,3.89-3.568,4.68c-1.145-2.622-2.174-5.41-2.28-8.632c0.196-2.091,0.726-4.029,1.565-5.854
	c1.308-2.873,3.358-5.406,6.028-7.536c0.086-0.074,0.149-0.103,0.195-0.159l0.414,0.011c-0.107,0.266-0.195,0.565-0.294,0.871
	C27.554,89.417,27.696,92.221,27.804,95.442"/>
<path fill="#020202" d="M27.527,113.092c1.817-3.577,5.512-6.851,6.379-10.245l0.532-0.223c1.337,3.336,1.192,7.327,0.168,10.951
	c-1.108,4.704-3.423,8.368-4.508,12.993c-0.192,0.891-0.353,1.774-0.458,2.741c-6.956-5.049-13.369-10.808-15.182-19.896
	l12.193,6.129C26.815,114.695,27.145,113.857,27.527,113.092"/>
<path fill="#020202" d="M47.131,154.25c0.915-0.018,1.782-0.027,2.637,0.014c-3.211-4.569-2.289-10.163-4.058-15.119l0.017-0.219
	c5.33,2.008,8.125,6.701,10.731,11.657c1.861,3.592,3.683,7.274,6.339,9.994c-1.109,0.08-2.152,0.229-3.234,0.388
	c-1.121,0.163-2.274,0.386-3.435,0.692c-2.306,0.135-4.581,0.236-6.731,0.167c-4.035-0.172-7.795-0.855-11.037-2.606
	c-1.502-0.798-2.902-1.849-4.131-3.161c0.949-0.153,1.992-0.342,3.027-0.522C40.521,154.978,43.955,154.408,47.131,154.25"/>
<path fill="#020202" d="M34.131,138.676c1.493-5.035,4.273-10.121,3.864-15.641l0.142-0.219l0.375,0.165
	c0.045,0.035,0.096,0.107,0.101,0.144c0.292,0.5,0.601,0.786,1.136,1.301c3.805,6.707,3.23,14.779,1.275,21.92
	c-0.32,1.177-0.653,2.295-1.063,3.426c-3.423-2.677-7.645-3.359-11.443-5.307c-0.34-0.207-0.676-0.37-1.028-0.582
	c-3.66-2.642-5.886-7.008-6.841-11.184c2.373,0.757,4.699,1.368,6.875,2.187C29.869,135.731,32.133,136.873,34.131,138.676"/>
<polygon fill="#FFFFFF" points="173.357,183.362 121.064,197.546 68.771,181.857 68.771,154.337 121.064,170.024 173.357,154.337 
	"/>
<path fill="#020202" d="M121.064,198.469l-54.551-13.334V151.46l54.551,13.335l54.551-13.335v33.675L121.064,198.469z
	 M71.029,181.59l50.036,12.231L171.1,181.59v-24.378l-50.035,12.232L71.03,157.212L71.029,181.59L71.029,181.59z"/>
<polygon fill="#020202" points="149.846,160.524 175.682,151.546 162.607,141.765 141.596,159.776 "/>
<polygon fill="#020202" points="92.243,160.524 66.406,151.546 79.479,141.765 100.493,159.776 "/>
<polygon fill="#020202" points="92.915,170.951 90.324,165.414 87.734,170.951 81.916,171.833 86.121,176.15 85.068,182.23 
	90.324,179.359 95.58,182.23 94.529,176.15 98.732,171.833 "/>
<polygon fill="#020202" points="123.602,177.027 120.742,170.917 117.884,177.027 111.463,178.001 116.104,182.766 114.943,189.477 
	120.742,186.308 126.542,189.477 125.383,182.766 130.021,178.001 "/>
<polygon fill="#020202" points="153.939,170.951 151.35,165.414 148.759,170.951 142.941,171.833 147.145,176.15 146.094,182.23 
	151.35,179.359 156.604,182.23 155.553,176.15 159.757,171.833 "/>
</svg>
