<?xml version="1.0" encoding="utf-8"?>
<!-- Generator: Adobe Illustrator 16.0.0, SVG Export Plug-In . SVG Version: 6.00 Build 0)  -->
<!DOCTYPE svg PUBLIC "-//W3C//DTD SVG 1.1//EN" "http://www.w3.org/Graphics/SVG/1.1/DTD/svg11.dtd">
<svg version="1.1" id="Layer_1" xmlns="http://www.w3.org/2000/svg" xmlns:xlink="http://www.w3.org/1999/xlink" x="0px" y="0px"
	 width="612px" height="792px" viewBox="0 0 612 792" enable-background="new 0 0 612 792" xml:space="preserve">
<path fill="none" d="M346.63,60"/>
<path fill="none" d="M346.63,3305.597"/>
<path fill="#FFFFFF" d="M190.387,306.77c0.311-2.898,2.676-4.154,5.252-2.79l29.301,15.511l27.574,14.596
	c2.576,1.364,3.975,4.757,3.109,7.541l-4.098,13.18c-0.578,1.857-2.086,3.129-3.84,3.477l2.283,0.817
	c1.838,0.973,2.836,3.393,2.219,5.378l-2.973,9.538c-0.396,1.275-1.43,2.217-2.635,2.544l3.816,1.365
	c1.269,0.671,1.957,2.342,1.531,3.712l-2.119,6.768c-0.426,1.371-1.979,2.375-3.33,1.89c0,0-4.748-1.706-16.617-5.971
	c-11.871-4.266-11.635-15.436-11.635-15.436c0.074-0.681,0.402-1.238,0.861-1.565c-15.863-6.5-15.632-21.586-15.632-21.586
	c0.153-1.414,1.013-2.343,2.131-2.477C187.639,332.264,190.387,306.77,190.387,306.77"/>
<path fill="#FFFFFF" d="M411.637,306.77c-0.312-2.898-2.676-4.154-5.252-2.79l-29.302,15.511l-27.573,14.596
	c-2.576,1.364-3.976,4.757-3.109,7.541l4.098,13.18c0.578,1.857-7.914,3.129-6.16,3.477l7.717,0.817
	c-1.838,0.973-2.836,3.393-2.219,5.378l2.973,9.538c0.396,1.275,1.43,2.217,2.635,2.544l-3.817,1.365
	c-1.269,0.671-1.957,2.342-1.531,3.712l2.119,6.768c0.427,1.371,1.979,2.375,3.331,1.89c0,0,4.747-1.706,16.617-5.971
	c11.871-4.266,11.634-15.436,11.634-15.436c-0.073-0.681-0.401-1.238-0.86-1.565c15.863-6.5,15.631-21.586,15.631-21.586
	c-0.152-1.414-1.012-2.343-2.129-2.477C414.385,332.264,411.637,306.77,411.637,306.77"/>
<polygon fill="#010101" points="199.514,336.07 247.704,365.287 197.818,339.07 "/>
<polygon fill="#010101" points="209.2,357.072 247.704,380.589 207.832,359.474 "/>
<path fill="#010101" d="M247.195,393.306c-0.581,0-1.15-0.099-1.692-0.294l-16.618-5.972c-10.935-3.928-13.639-13.63-13.541-18.211
	l0.002-0.055c-14.83-7.65-14.783-22.42-14.774-23.079l0.017-0.265c0.07-0.65,0.231-1.263,0.471-1.819
	c-6.383-5.057-10.721-12.639-12.631-22.151c-1.625-8.091-0.94-14.721-0.91-14.999c0.377-3.484,2.879-5.917,6.086-5.917
	c1.134,0,2.272,0.299,3.384,0.887l56.875,30.107c3.813,2.019,5.796,6.827,4.516,10.946l-3.573,11.49
	c0.746,0.281,1.67,0.566,2.174,0.722c1.852,0.57,3.951,1.217,3.828,3.619c-0.056,1.068-0.758,2.443-2.559,2.801l-0.259,0.039
	l-2.951,0.313c0.308,1.267,0.296,2.61-0.097,3.871l-2.973,9.538c-0.056,0.177-0.117,0.35-0.188,0.52
	c2.457,1.325,3.73,4.435,2.9,7.101l-2.119,6.772C251.836,391.606,249.578,393.306,247.195,393.306 M221.129,369.412
	c0.125,1.911,1.17,9.131,9.707,12.199l16.223,5.83l2.115-6.663c0.004-0.053-0.043-0.181-0.098-0.259l-12.123-4.335l8.871-2.406
	c0.223-0.061,0.523-0.258,0.635-0.616l2.975-9.54c0.203-0.654-0.207-1.649-0.815-1.971l-8.349-4.424l8.604-0.91
	c-0.307-0.758-0.346-1.586-0.104-2.366l4.099-13.18c0.451-1.452-0.36-3.422-1.705-4.134l-56.875-30.106
	c-0.368-0.195-0.601-0.216-0.685-0.216c-0.264,0-0.346,0.734-0.35,0.765c-0.006,0.057-0.621,6.153,0.861,13.4
	c1.919,9.385,6.285,16.223,12.979,20.323l7.071,4.334l-7.819,0.94c0.073,2.013,1.058,13.345,13.836,18.58l4.834,1.979
	L221.129,369.412z"/>
<path fill="#010101" d="M354.828,393.306c-2.383,0-4.642-1.7-5.369-4.042l-2.117-6.763c-0.83-2.672,0.443-5.781,2.898-7.104
	c-0.069-0.17-0.131-0.344-0.187-0.521l-2.972-9.537c-0.394-1.262-0.404-2.605-0.098-3.872l-3.209-0.352
	c-1.801-0.358-2.504-1.733-2.559-2.801c-0.123-2.401,1.977-3.048,3.826-3.619c0.505-0.155,1.429-0.44,2.175-0.721l-3.573-11.49
	c-1.281-4.118,0.701-8.927,4.516-10.945l56.875-30.108c1.11-0.588,2.25-0.887,3.383-0.887c3.209,0,5.711,2.434,6.087,5.917
	c0.03,0.278,0.716,6.908-0.909,14.999c-1.911,9.513-6.249,17.095-12.631,22.151c0.238,0.557,0.4,1.169,0.47,1.82l0.017,0.264
	c0.01,0.659,0.054,15.428-14.773,23.078l0.001,0.056c0.099,4.581-2.606,14.283-13.541,18.212l-16.618,5.971
	C355.977,393.207,355.408,393.306,354.828,393.306 M352.939,380.521c-0.047,0.075-0.095,0.209-0.086,0.28l2.083,6.649l16.25-5.839
	c8.519-3.061,9.577-10.255,9.706-12.198l-3.891-2.774l4.839-1.983c12.721-5.212,13.752-16.609,13.834-18.58l-7.817-0.94l7.072-4.334
	c16.204-9.928,13.863-33.486,13.839-33.723c-0.003-0.031-0.086-0.765-0.351-0.765c-0.082,0-0.316,0.021-0.684,0.216l-56.875,30.108
	c-1.345,0.711-2.156,2.681-1.705,4.133l4.099,13.182c0.243,0.78,0.204,1.607-0.103,2.365l8.607,0.911l-8.354,4.423
	c-0.607,0.322-1.019,1.317-0.814,1.973l2.972,9.536c0.112,0.359,0.413,0.558,0.638,0.618l8.864,2.408L352.939,380.521z"/>
<polygon fill="#010101" points="404.205,339.07 354.318,365.288 402.509,336.07 "/>
<polygon fill="#010101" points="394.191,359.475 354.318,380.59 392.823,357.072 "/>
<path fill="#FECF0A" d="M368.67,383.303c-10.15-32.987-1.587-41.101,0.215-42.339h-67.617h-68.481
	c1.802,1.238,10.365,9.352,0.216,42.339c-14.918,48.481,55.284,74.915,67.834,79.935c0.137-0.054,0.282-0.112,0.432-0.172
	C314.905,457.639,383.426,431.257,368.67,383.303"/>
<g opacity="0.6">
	<g>
		<defs>
			<rect id="SVGID_1_" x="301.02" y="340.21" width="69.471" height="122.101"/>
		</defs>
		<clipPath id="SVGID_2_">
			<use xlink:href="#SVGID_1_"  overflow="visible"/>
		</clipPath>
		<path clip-path="url(#SVGID_2_)" fill="#CDA72C" d="M368.419,382.551c-10.15-32.988-1.587-41.101,0.215-42.339h-67.617v122.101
			C314.654,456.887,383.174,430.505,368.419,382.551"/>
	</g>
</g>
<g opacity="0.4">
	<g>
		<defs>
			<rect id="SVGID_3_" x="230.93" y="295.19" width="139.811" height="168.05"/>
		</defs>
		<clipPath id="SVGID_4_">
			<use xlink:href="#SVGID_3_"  overflow="visible"/>
		</clipPath>
		<path clip-path="url(#SVGID_4_)" fill="#FFFFFF" d="M300.836,309.247c12.873,6.204,32.309,10.53,54.447,12.167v14.542
			c-1.519,2.447-2.945,5.632-3.908,9.729c-2.506,10.653-1.122,24.675,4.107,41.676c2.33,7.568,1.856,14.6-1.443,21.499
			c-3.051,6.373-8.519,12.725-16.252,18.875c-12.736,10.132-28.211,17.049-36.951,20.637c-8.742-3.588-24.217-10.505-36.952-20.637
			c-7.733-6.15-13.201-12.502-16.251-18.875c-3.301-6.898-3.773-13.931-1.445-21.499c5.23-17.001,6.614-31.023,4.109-41.675
			c-0.963-4.098-2.391-7.283-3.908-9.729v-14.542C268.527,319.777,287.964,315.451,300.836,309.247 M300.836,295.186
			c-1.727,0-3.453,0.347-4.795,1.037c-9.942,5.12-29.271,10.588-57.984,11.864c-3.016,0.134-5.465,2.57-5.465,5.589v27.161
			c0,0,11.263,7.192,0.41,42.466c-14.918,48.482,55.285,74.915,67.834,79.934c12.549-5.019,82.751-31.451,67.834-79.934
			c-10.854-35.274,0.41-42.466,0.41-42.466v-27.161c0-3.019-2.449-5.455-5.465-5.589c-28.713-1.276-48.043-6.744-57.984-11.864
			C304.289,295.532,302.563,295.186,300.836,295.186"/>
	</g>
</g>
<path fill="#191818" d="M369.08,313.676c0-3.02-2.449-5.455-5.465-5.589c-28.713-1.276-48.043-6.744-57.984-11.865
	c-2.686-1.382-6.904-1.382-9.59,0c-9.942,5.121-29.271,10.589-57.984,11.865c-3.016,0.134-5.465,2.569-5.465,5.589v27.161
	c0,0,0.07,0.041,0.195,0.127h136.099c0.124-0.086,0.194-0.127,0.194-0.127V313.676z"/>
<polygon fill="#FFFFFF" points="283.703,332.132 283.703,317.26 280.662,320.421 278.346,317.981 284.246,312.051 287.768,312.051 
	287.768,332.132 "/>
<path fill="#FFFFFF" d="M290.506,322.106c0-5.179,2.137-10.355,7.104-10.355c4.997,0,7.104,5.177,7.104,10.355
	c0,5.147-2.076,10.387-7.104,10.387C292.643,332.493,290.506,327.254,290.506,322.106 M300.621,322.106
	c0-3.884-0.662-6.773-3.011-6.773c-2.317,0-2.979,2.89-2.979,6.773c0,3.854,0.662,6.805,2.979,6.805
	C299.959,328.911,300.621,325.961,300.621,322.106"/>
<polygon fill="#FFFFFF" points="317.568,332.132 312.932,324.273 311.517,326.503 311.517,332.132 307.482,332.132 307.482,312.051 
	311.517,312.051 311.517,321.174 317.176,312.051 321.873,312.051 315.461,321.505 322.324,332.132 "/>
<g>
	<defs>
		<path id="SVGID_5_" d="M296.041,296.222c-9.941,5.122-29.271,10.59-57.982,11.866c-3.019,0.132-5.467,2.568-5.467,5.588v27.161
			c0,0,11.262,7.192,0.41,42.467c-14.918,48.48,55.284,74.914,67.833,79.934c12.549-5.02,82.753-31.453,67.835-79.934
			c-10.854-35.274,0.411-42.467,0.411-42.467v-27.161c0-3.02-2.451-5.456-5.468-5.588c-28.713-1.276-48.04-6.744-57.982-11.866
			c-1.342-0.69-3.068-1.036-4.795-1.036S297.383,295.531,296.041,296.222"/>
	</defs>
	<clipPath id="SVGID_6_">
		<use xlink:href="#SVGID_5_"  overflow="visible"/>
	</clipPath>
	<polygon clip-path="url(#SVGID_6_)" fill="#FFFFFF" points="379.782,376.403 379.782,382.291 301.292,401.912 301.292,384.252 
		375.343,376.848 	"/>
	<polygon clip-path="url(#SVGID_6_)" fill="#FFFFFF" points="222.367,376.403 222.367,382.291 300.856,401.912 300.856,384.252 
		226.806,376.848 	"/>
	<polygon clip-path="url(#SVGID_6_)" fill="#FECF0A" points="282.148,388.988 223.233,379.306 223.233,381.931 282.313,397.357 	"/>
	<polygon clip-path="url(#SVGID_6_)" fill="#FECF0A" points="319.893,388.988 378.807,379.306 378.807,381.931 319.729,397.357 	"/>
	<polygon clip-path="url(#SVGID_6_)" fill="#FECF0A" points="306.995,376.403 294.718,376.403 298.895,352.486 302.818,352.486 	"/>
	<path clip-path="url(#SVGID_6_)" fill="#191818" d="M308.785,377.908h-15.859l4.703-26.927h6.454L308.785,377.908z
		 M296.508,374.898h8.695l-3.648-20.907h-1.396L296.508,374.898z"/>
	<path clip-path="url(#SVGID_6_)" fill="#191818" d="M299.285,404.483v-22.047l82.503-8.251v9.672L299.285,404.483z
		 M303.299,386.068v13.273l74.477-18.619v-2.102L303.299,386.068z"/>
	<path clip-path="url(#SVGID_6_)" fill="#FFFFFF" d="M339.859,397.814c0,3.251,2.635,5.887,5.887,5.887s5.887-2.636,5.887-5.887
		c0-3.251-2.635-5.888-5.887-5.888S339.859,394.563,339.859,397.814"/>
	<path clip-path="url(#SVGID_6_)" fill="#191818" d="M345.746,405.205c-4.076,0-7.392-3.315-7.392-7.391
		c0-4.076,3.315-7.393,7.392-7.393s7.393,3.316,7.393,7.393C353.139,401.89,349.822,405.205,345.746,405.205 M345.746,393.432
		c-2.416,0-4.382,1.966-4.382,4.383c0,2.416,1.966,4.382,4.382,4.382s4.383-1.966,4.383-4.382
		C350.129,395.398,348.162,393.432,345.746,393.432"/>
	<path clip-path="url(#SVGID_6_)" fill="#191818" d="M302.862,404.482l-82.503-20.625v-9.672l82.503,8.251V404.482z
		 M224.373,380.724l74.477,18.619v-13.274l-74.477-7.448V380.724z"/>
	<path clip-path="url(#SVGID_6_)" fill="#191818" d="M299.125,379.858v-9.083l24.886-2.489v5.35L299.125,379.858z M303.139,374.407
		v0.311l2.066-0.517L303.139,374.407z"/>
	<path clip-path="url(#SVGID_6_)" fill="#191818" d="M303.022,379.858l-24.886-6.222v-5.351l24.886,2.49V379.858z M296.943,374.201
		l2.065,0.517v-0.31L296.943,374.201z"/>
	<path clip-path="url(#SVGID_6_)" fill="#FECF0A" d="M322.441,392.102c0,11.921-9.664,21.585-21.585,21.585
		s-21.585-9.664-21.585-21.585s9.664-21.585,21.585-21.585S322.441,380.181,322.441,392.102"/>
	<path clip-path="url(#SVGID_6_)" fill="#FFFFFF" d="M300.856,370.517c-11.921,0-21.585,9.664-21.585,21.585
		s9.664,21.584,21.585,21.584c0.026,0,0.055-0.002,0.081-0.002v-43.165C300.911,370.519,300.883,370.517,300.856,370.517"/>
	<path clip-path="url(#SVGID_6_)" fill="#191818" d="M300.855,415.692c-13.009,0-23.592-10.583-23.592-23.591
		c0-13.008,10.583-23.592,23.592-23.592c13.01,0,23.592,10.584,23.592,23.592C324.447,405.109,313.865,415.692,300.855,415.692
		 M300.855,372.523c-10.796,0-19.578,8.783-19.578,19.578c0,10.796,8.782,19.578,19.578,19.578c10.797,0,19.578-8.782,19.578-19.578
		C320.434,381.307,311.652,372.523,300.855,372.523"/>
	<path clip-path="url(#SVGID_6_)" fill="#FFFFFF" d="M262.289,398.817c0,3.251-2.637,5.888-5.887,5.888
		c-3.252,0-5.887-2.637-5.887-5.888s2.635-5.887,5.887-5.887C259.652,392.931,262.289,395.566,262.289,398.817"/>
	<path clip-path="url(#SVGID_6_)" fill="#191818" d="M256.402,405.205c-4.076,0-7.393-3.315-7.393-7.391
		c0-4.076,3.316-7.393,7.393-7.393c4.075,0,7.391,3.316,7.391,7.393C263.793,401.89,260.478,405.205,256.402,405.205
		 M256.402,393.432c-2.416,0-4.383,1.966-4.383,4.383c0,2.416,1.967,4.382,4.383,4.382c2.415,0,4.381-1.966,4.381-4.382
		C260.783,395.398,258.817,393.432,256.402,393.432"/>
	<polygon clip-path="url(#SVGID_6_)" fill="#191818" points="285.891,387.576 289.847,383.62 297.759,385.598 297.759,391.532 	"/>
	<polygon clip-path="url(#SVGID_6_)" fill="#191818" points="316.37,387.576 312.414,383.62 304.502,385.598 304.502,391.532 	"/>
	<path clip-path="url(#SVGID_6_)" fill="#191818" d="M322.063,412.943c-1.736,0-4.406,0.147-4.406,1.886v10.414
		c0,1.737,2.67,1.885,4.406,1.885c1.737,0,1.945-0.147,1.945-1.885v-10.414C324.008,413.091,323.8,412.943,322.063,412.943"/>
	<path clip-path="url(#SVGID_6_)" fill="#191818" d="M327.643,412.943c-1.737,0-1.945,0.147-1.945,1.886v10.414
		c0,1.737,0.208,1.885,1.945,1.885c1.736,0,4.406-0.147,4.406-1.885v-10.414C332.049,413.091,329.379,412.943,327.643,412.943"/>
	<path clip-path="url(#SVGID_6_)" fill="#191818" d="M274.402,412.943c-1.738,0-4.408,0.147-4.408,1.886v10.414
		c0,1.737,2.67,1.885,4.408,1.885c1.736,0,1.944-0.147,1.944-1.885v-10.414C276.347,413.091,276.139,412.943,274.402,412.943"/>
	<path clip-path="url(#SVGID_6_)" fill="#191818" d="M279.981,412.943c-1.738,0-1.946,0.147-1.946,1.886v10.414
		c0,1.737,0.208,1.885,1.946,1.885c1.737,0,4.407-0.147,4.407-1.885v-10.414C284.389,413.091,281.719,412.943,279.981,412.943"/>
	<path clip-path="url(#SVGID_6_)" fill="#191818" d="M284.166,422.181l-2.08-3.433c3.035-1.843,7.31-5.471,7.31-7.77h4.014
		C293.409,416.317,285.709,421.246,284.166,422.181"/>
	<path clip-path="url(#SVGID_6_)" fill="#191818" d="M318.316,422.181c-1.544-0.935-9.244-5.863-9.244-11.202h4.015
		c0,2.283,4.36,5.985,7.307,7.768L318.316,422.181z"/>
</g>
<path fill="#191818" d="M300.836,303.552c0.527,0,0.894,0.091,1.006,0.13c13.13,6.748,34.479,11.32,58.872,12.638v21.295
	c-1.498,2.069-3.056,5.072-4.054,9.313c-2.28,9.702-0.93,22.77,4.014,38.836c5.107,16.6-1.273,31.719-19.506,46.221
	c-14.387,11.444-31.92,18.869-40.332,22.248c-8.413-3.379-25.946-10.804-40.333-22.248c-18.232-14.502-24.613-29.621-19.505-46.221
	c4.943-16.066,6.293-29.134,4.013-38.836c-0.997-4.241-2.556-7.243-4.054-9.313V316.32c24.394-1.318,45.742-5.89,58.873-12.638
	C299.941,303.643,300.309,303.552,300.836,303.552 M300.836,295.186c-1.727,0-3.453,0.346-4.795,1.037
	c-9.942,5.12-29.271,10.588-57.984,11.864c-3.016,0.134-5.465,2.57-5.465,5.589v27.161c0,0,11.263,7.192,0.41,42.466
	c-14.918,48.482,55.285,74.915,67.834,79.934c12.549-5.019,82.751-31.451,67.834-79.934c-10.854-35.274,0.41-42.466,0.41-42.466
	v-27.161c0-3.019-2.449-5.455-5.465-5.589c-28.713-1.276-48.043-6.744-57.984-11.864
	C304.289,295.531,302.562,295.186,300.836,295.186"/>
<polygon fill="#FFFFFF" points="271.781,319.669 264.324,318.539 261.002,311.44 257.682,318.539 250.224,319.669 255.613,325.204 
	254.266,332.999 261.002,329.317 267.739,332.999 266.392,325.204 "/>
<polygon fill="#FFFFFF" points="351.448,319.669 343.99,318.539 340.669,311.44 337.35,318.539 329.891,319.669 335.279,325.204 
	333.932,332.999 340.669,329.317 347.406,332.999 346.059,325.204 "/>
<path fill="#010101" d="M393.652,385.313c0.146,1.75-0.152,3.623,0.187,5.468c0.328,0.774,0.593,1.554,0.873,2.349
	c0.819,2.085,1.734,3.99,3.31,4.866c1.285-2.557,2.463-5.286,2.744-8.497c-0.084-2.099-0.508-4.062-1.25-5.928
	c-1.149-2.94-3.061-5.579-5.612-7.851c-0.082-0.079-0.144-0.11-0.187-0.17l-0.414-0.012c0.094,0.272,0.166,0.577,0.248,0.886
	C394.227,379.31,393.932,382.102,393.652,385.313"/>
<path fill="#010101" d="M393.852,403.092c-1.818-3.577-5.514-6.851-6.38-10.245l-0.532-0.223c-1.336,3.336-1.192,7.327-0.168,10.951
	c1.108,4.704,3.424,8.368,4.508,12.993c0.193,0.891,0.353,1.775,0.457,2.742c6.957-5.049,13.371-10.808,15.183-19.896l-12.192,6.129
	C394.563,404.695,394.232,403.857,393.852,403.092"/>
<path fill="#010101" d="M374.248,444.25c-0.916-0.018-1.783-0.027-2.638,0.014c3.211-4.57,2.29-10.163,4.058-15.119l-0.017-0.219
	c-5.329,2.008-8.124,6.701-10.731,11.657c-1.861,3.592-3.683,7.274-6.339,9.994c1.109,0.08,2.152,0.229,3.234,0.388
	c1.122,0.163,2.274,0.386,3.435,0.692c2.307,0.135,4.581,0.237,6.732,0.167c4.035-0.172,7.795-0.855,11.037-2.606
	c1.501-0.798,2.902-1.849,4.131-3.161c-0.949-0.154-1.992-0.342-3.028-0.523C380.857,444.978,377.424,444.408,374.248,444.25"/>
<path fill="#010101" d="M387.248,428.676c-1.494-5.035-4.274-10.121-3.864-15.641l-0.144-0.219l-0.373,0.165
	c-0.045,0.036-0.098,0.108-0.102,0.144c-0.292,0.5-0.601,0.786-1.136,1.301c-3.806,6.707-3.229,14.779-1.274,21.92
	c0.319,1.176,0.652,2.295,1.062,3.425c3.423-2.676,7.644-3.359,11.442-5.306c0.342-0.207,0.678-0.37,1.03-0.582
	c3.659-2.642,5.886-7.008,6.841-11.184c-2.373,0.757-4.701,1.368-6.877,2.187C391.509,425.731,389.246,426.873,387.248,428.676"/>
<path fill="#010101" d="M208.449,385.442c-0.24,1.74-0.045,3.626-0.482,5.45c-0.369,0.755-0.674,1.52-0.997,2.299
	c-0.933,2.037-1.947,3.89-3.568,4.68c-1.146-2.622-2.175-5.41-2.28-8.632c0.196-2.091,0.726-4.029,1.565-5.854
	c1.308-2.873,3.358-5.406,6.028-7.536c0.086-0.075,0.148-0.103,0.195-0.16l0.414,0.011c-0.107,0.266-0.195,0.566-0.295,0.871
	C208.199,379.417,208.342,382.221,208.449,385.442"/>
<path fill="#010101" d="M208.173,403.092c1.817-3.577,5.512-6.851,6.379-10.245l0.532-0.223c1.336,3.336,1.192,7.327,0.168,10.951
	c-1.108,4.704-3.424,8.368-4.508,12.993c-0.193,0.891-0.354,1.775-0.459,2.742c-6.955-5.049-13.369-10.808-15.182-19.896
	l12.194,6.129C207.461,404.695,207.789,403.857,208.173,403.092"/>
<path fill="#010101" d="M227.775,444.25c0.916-0.018,1.783-0.027,2.638,0.014c-3.212-4.57-2.29-10.163-4.058-15.119l0.017-0.219
	c5.329,2.008,8.124,6.701,10.731,11.657c1.861,3.592,3.683,7.274,6.339,9.994c-1.109,0.08-2.153,0.229-3.234,0.388
	c-1.122,0.163-2.274,0.386-3.435,0.692c-2.307,0.135-4.581,0.237-6.732,0.167c-4.035-0.172-7.795-0.855-11.037-2.606
	c-1.501-0.798-2.902-1.849-4.131-3.161c0.949-0.154,1.992-0.342,3.028-0.523C221.166,444.978,224.6,444.408,227.775,444.25"/>
<path fill="#010101" d="M214.775,428.676c1.494-5.035,4.273-10.121,3.865-15.641l0.142-0.219l0.374,0.165
	c0.045,0.036,0.097,0.108,0.102,0.144c0.291,0.5,0.6,0.786,1.135,1.301c3.806,6.707,3.23,14.779,1.276,21.92
	c-0.321,1.176-0.653,2.295-1.063,3.425c-3.422-2.676-7.644-3.359-11.442-5.306c-0.341-0.207-0.676-0.37-1.028-0.582
	c-3.66-2.642-5.887-7.008-6.842-11.184c2.373,0.757,4.7,1.368,6.876,2.187C210.514,425.731,212.776,426.873,214.775,428.676"/>
<polygon fill="#FFFFFF" points="354.004,473.362 301.71,487.546 249.417,471.857 249.417,444.337 301.71,460.024 354.004,444.337 
	"/>
<path fill="#010101" d="M301.709,488.469l-54.551-13.334V441.46l54.551,13.335l54.553-13.335v33.675L301.709,488.469z
	 M251.674,471.59l50.035,12.231l50.036-12.231v-24.378l-50.036,12.232l-50.035-12.232V471.59z"/>
<polygon fill="#010101" points="330.49,450.524 356.326,441.546 343.254,431.765 322.24,449.776 "/>
<polygon fill="#010101" points="272.889,450.524 247.051,441.546 260.124,431.765 281.139,449.776 "/>
<polygon fill="#010101" points="273.56,460.951 270.969,455.414 268.379,460.951 262.562,461.833 266.766,466.15 265.715,472.23 
	270.969,469.359 276.225,472.23 275.174,466.15 279.377,461.833 "/>
<polygon fill="#010101" points="304.246,467.027 301.388,460.917 298.529,467.027 292.107,468.001 296.747,472.766 295.588,479.477 
	301.388,476.308 307.188,479.477 306.027,472.766 310.667,468.001 "/>
<polygon fill="#010101" points="334.584,460.951 331.994,455.414 329.404,460.951 323.586,461.833 327.789,466.15 326.738,472.23 
	331.994,469.359 337.248,472.23 336.197,466.15 340.402,461.833 "/>
</svg>
