<?xml version="1.0" encoding="utf-8"?>
<!-- Generator: Adobe Illustrator 16.0.0, SVG Export Plug-In . SVG Version: 6.00 Build 0)  -->
<!DOCTYPE svg PUBLIC "-//W3C//DTD SVG 1.1//EN" "http://www.w3.org/Graphics/SVG/1.1/DTD/svg11.dtd">
<svg version="1.1" id="Layer_1" xmlns="http://www.w3.org/2000/svg" xmlns:xlink="http://www.w3.org/1999/xlink" x="0px" y="0px"
	 width="612px" height="792px" viewBox="0 0 612 792" enable-background="new 0 0 612 792" xml:space="preserve">
<path fill="none" d="M346.63,60"/>
<path fill="none" d="M346.63,3305.597"/>
<path fill="#FECF0A" d="M369.882,396.303c-10.149-32.987-1.587-41.101,0.216-42.339H302.48h-68.482
	c1.803,1.238,10.366,9.352,0.216,42.339c-14.918,48.481,55.285,74.915,67.834,79.935c0.136-0.054,0.282-0.112,0.432-0.172
	C316.117,470.639,384.637,444.257,369.882,396.303"/>
<g opacity="0.6">
	<g>
		<defs>
			<rect id="SVGID_1_" x="301.98" y="353.96" width="69.47" height="122.101"/>
		</defs>
		<clipPath id="SVGID_2_">
			<use xlink:href="#SVGID_1_"  overflow="visible"/>
		</clipPath>
		<path clip-path="url(#SVGID_2_)" fill="#CDA72C" d="M369.381,396.303c-10.15-32.987-1.588-41.101,0.215-42.339h-67.617v122.102
			C315.615,470.639,384.135,444.257,369.381,396.303"/>
	</g>
</g>
<g opacity="0.4">
	<g>
		<defs>
			<rect id="SVGID_3_" x="232.14" y="308.19" width="139.811" height="168.05"/>
		</defs>
		<clipPath id="SVGID_4_">
			<use xlink:href="#SVGID_3_"  overflow="visible"/>
		</clipPath>
		<path clip-path="url(#SVGID_4_)" fill="#FFFFFF" d="M302.048,322.247c12.873,6.204,32.308,10.53,54.448,12.167v14.542
			c-1.52,2.447-2.946,5.632-3.909,9.729c-2.505,10.653-1.122,24.675,4.108,41.677c2.329,7.567,1.856,14.6-1.444,21.498
			c-3.05,6.373-8.519,12.725-16.251,18.875c-12.737,10.132-28.21,17.049-36.952,20.637c-8.741-3.588-24.216-10.505-36.952-20.637
			c-7.733-6.151-13.201-12.502-16.251-18.875c-3.301-6.898-3.773-13.931-1.445-21.498c5.231-17.001,6.614-31.023,4.109-41.677
			c-0.963-4.098-2.39-7.282-3.908-9.729v-14.542C269.739,332.777,289.176,328.451,302.048,322.247 M302.048,308.186
			c-1.726,0-3.452,0.347-4.795,1.037c-9.942,5.12-29.271,10.588-57.984,11.864c-3.016,0.134-5.465,2.57-5.465,5.589v27.161
			c0,0,11.263,7.192,0.41,42.466c-14.917,48.482,55.285,74.915,67.834,79.934c12.549-5.019,82.752-31.451,67.834-79.934
			c-10.853-35.274,0.41-42.466,0.41-42.466v-27.161c0-3.019-2.449-5.455-5.466-5.589c-28.711-1.276-48.041-6.744-57.983-11.864
			C305.501,308.532,303.773,308.186,302.048,308.186"/>
	</g>
</g>
<path fill="#191818" d="M370.292,326.676c0-3.02-2.449-5.455-5.465-5.589c-28.712-1.276-48.042-6.744-57.984-11.865
	c-2.685-1.382-6.905-1.382-9.59,0c-9.942,5.121-29.271,10.589-57.984,11.865c-3.016,0.134-5.465,2.569-5.465,5.589v27.161
	c0,0,0.07,0.041,0.194,0.127h136.1c0.124-0.086,0.194-0.127,0.194-0.127V326.676z"/>
<path fill="#191818" d="M302.048,316.552c0.527,0,0.894,0.091,1.006,0.13c13.13,6.748,34.478,11.32,58.872,12.638v21.295
	c-1.498,2.069-3.057,5.072-4.053,9.313c-2.281,9.702-0.931,22.77,4.013,38.836c5.108,16.6-1.272,31.719-19.505,46.221
	c-14.387,11.444-31.921,18.869-40.333,22.248c-8.412-3.379-25.946-10.804-40.333-22.248c-18.232-14.502-24.612-29.621-19.505-46.221
	c4.944-16.066,6.294-29.134,4.013-38.836c-0.997-4.241-2.555-7.243-4.053-9.313V329.32c24.393-1.318,45.743-5.89,58.872-12.638
	C301.154,316.643,301.521,316.552,302.048,316.552 M302.048,308.186c-1.726,0-3.452,0.346-4.795,1.037
	c-9.942,5.12-29.271,10.588-57.984,11.864c-3.016,0.134-5.465,2.57-5.465,5.589v27.161c0,0,11.263,7.192,0.41,42.466
	c-14.917,48.482,55.285,74.915,67.834,79.934c12.549-5.019,82.752-31.451,67.834-79.934c-10.853-35.274,0.41-42.466,0.41-42.466
	v-27.161c0-3.019-2.449-5.455-5.466-5.589c-28.711-1.276-48.041-6.744-57.983-11.864
	C305.501,308.531,303.773,308.186,302.048,308.186"/>
<path fill="#FFFFFF" d="M294.653,342.332l2.438-2.589c1.054,1.385,2.468,2.168,4.185,2.168c1.926,0,3.04-1.475,3.04-3.162
	c0-1.986-1.054-3.161-2.86-3.161c-1.355,0-2.378,0.482-3.311,1.656l-2.921-0.783v-11.409h12.042v3.551h-8.008v5.149
	c0.783-0.963,2.138-1.656,3.673-1.656c3.041,0,5.48,2.379,5.48,6.533c0,4.034-2.74,6.864-7.015,6.864
	C298.296,345.493,296.158,344.35,294.653,342.332"/>
<path fill="#191818" d="M286.987,401.138h30.674c2.853,0,5.171,1.97,5.18,4.399l0.048,22.449h-41.129l0.049-22.449
	C281.816,403.107,284.135,401.138,286.987,401.138"/>
<rect x="280.24" y="427.409" fill="#191818" width="44.17" height="8.005"/>
<path fill="#FECF0A" d="M317.478,377.825h-5.59c-1.145-6.24-5.052-15.168-9.699-15.168s-8.555,8.928-9.699,15.168h-5.59h-2.465
	v2.165v5.413v2.165l1.834,4.331v35.509h31.841v-35.509l1.834-4.331v-2.165v-5.413v-2.165H317.478z"/>
<rect x="285.929" y="413.675" fill="#FFFFFF" width="33.077" height="13.543"/>
<path fill="#FFFFFF" d="M312.646,377.176c0,5.74-4.653,10.393-10.393,10.393s-10.393-4.653-10.393-10.393
	s4.653-14.723,10.393-14.723S312.646,371.436,312.646,377.176"/>
<path fill="#191818" d="M292.499,389.474c-1.889,0-6.446-0.609-11.54-5.704c-4.082-4.081-7.138-3.261-7.265-3.224
	c-1.436,0.511-2.976-0.247-3.488-1.683c-0.513-1.435,0.273-3.027,1.708-3.539c2.299-0.822,7.614-0.789,12.947,4.544
	c4.336,4.336,7.659,4.093,7.796,4.083c1.512-0.218,2.872,0.836,3.088,2.345c0.215,1.509-0.868,2.911-2.376,3.126
	C293.251,389.438,292.952,389.474,292.499,389.474"/>
<path fill="#191818" d="M264.29,383.165l11.151-1.549c1.185-0.164,2.034-1.096,1.897-2.081l-0.545-3.925
	c-0.137-0.984-1.208-1.65-2.392-1.485l-11.152,1.549c-1.184,0.164-2.033,1.096-1.897,2.081l0.546,3.925
	C262.034,382.664,263.105,383.33,264.29,383.165"/>
<path fill="#191818" d="M311.846,389.474c-0.453,0-0.752-0.035-0.87-0.052c-1.508-0.215-2.556-1.613-2.34-3.122
	c0.212-1.488,1.579-2.52,3.062-2.35c0.238,0.021,3.521,0.183,7.787-4.083c5.332-5.333,10.646-5.367,12.946-4.544
	c1.435,0.512,2.183,2.091,1.67,3.526c-0.512,1.436-2.092,2.184-3.526,1.671c-0.054-0.013-3.109-0.831-7.188,3.249
	C318.293,388.863,313.736,389.474,311.846,389.474"/>
<path fill="#191818" d="M302.263,431.593l-17.995-2.437v-36.414l-4.439-4.331v-12.586h6.697l4.225-1.637
	c1.548-6.752,5.907-13.531,11.438-13.531s9.89,6.779,11.437,13.531l4.227,1.637h6.696v12.586l-4.438,4.331v36.412L302.263,431.593z
	 M288.269,425.661l13.992,1.895l13.849-1.892v-34.607l4.438-4.331v-6.9h-3.444l-6.981-2.705l-0.202-1.1
	c-1.109-6.053-4.722-11.363-7.731-11.363c-3.009,0-6.622,5.311-7.732,11.363l-0.201,1.1l-6.98,2.705h-3.445v6.9l4.439,4.331V425.661
	z"/>
<path fill="#191818" d="M340.055,383.165l-11.15-1.549c-1.186-0.164-2.034-1.096-1.897-2.081l0.545-3.925
	c0.138-0.984,1.208-1.65,2.393-1.485l11.151,1.549c1.185,0.164,2.033,1.096,1.896,2.081l-0.545,3.925
	C342.311,382.664,341.239,383.33,340.055,383.165"/>
<polygon fill="#191818" points="282.615,378.187 292.437,376.165 312.212,376.165 317.986,378.042 322.548,377.825 322.548,387.569 
	318.109,391.899 286.801,391.899 281.83,387.569 "/>
<path fill="#FECF0A" d="M312.031,384.971c0,5.381-4.361,9.743-9.743,9.743c-5.381,0-9.744-4.362-9.744-9.743
	s4.363-9.743,9.744-9.743C307.67,375.228,312.031,379.59,312.031,384.971"/>
<path fill="#FFFFFF" d="M302.289,380.244c2.606,0,4.726,2.12,4.726,4.727c0,2.605-2.12,4.726-4.726,4.726s-4.726-2.12-4.726-4.726
	C297.563,382.364,299.683,380.244,302.289,380.244 M302.289,375.228c-5.381,0-9.743,4.362-9.743,9.743
	c0,5.382,4.362,9.743,9.743,9.743s9.743-4.361,9.743-9.743C312.031,379.589,307.67,375.228,302.289,375.228"/>
<path fill="#191818" d="M302.288,396.093c-6.133,0-11.123-4.989-11.123-11.123c0-6.133,4.99-11.123,11.123-11.123
	s11.124,4.99,11.124,11.123C313.412,391.104,308.421,396.093,302.288,396.093 M302.288,376.607c-4.612,0-8.363,3.751-8.363,8.363
	s3.751,8.364,8.363,8.364c4.612,0,8.364-3.752,8.364-8.364S306.9,376.607,302.288,376.607"/>
<path fill="#191818" d="M305.333,381.782l-6.029,6.416c0.795,0.782,1.886,1.265,3.089,1.265c2.432,0,4.404-1.971,4.404-4.403
	C306.796,383.758,306.23,382.588,305.333,381.782"/>
<path fill="#191818" d="M302.159,407.579c-3.587,0-6.496,2.908-6.496,6.496v29.317c0,3.588,2.909,6.496,6.496,6.496
	c3.587,0,6.495-2.908,6.495-6.496v-29.317C308.654,410.487,305.746,407.579,302.159,407.579"/>
<polygon fill="#FECF0A" points="271.154,334.968 259.414,337.677 248.578,334.968 248.578,328.646 259.414,331.355 271.154,328.646 
	"/>
<polygon fill="#FECF0A" points="271.154,343.998 259.414,346.707 248.578,343.998 248.578,337.676 259.414,340.386 271.154,337.676 
	"/>
<polygon fill="#676767" points="355.519,334.968 343.778,337.677 332.942,334.968 332.942,328.646 343.778,331.355 355.519,328.646 
	"/>
<polygon fill="#676767" points="355.519,343.998 343.778,346.707 332.942,343.998 332.942,337.676 343.778,340.386 355.519,337.676 
	"/>
</svg>
