<?xml version="1.0" encoding="utf-8"?>
<!-- Generator: Adobe Illustrator 16.0.0, SVG Export Plug-In . SVG Version: 6.00 Build 0)  -->
<!DOCTYPE svg PUBLIC "-//W3C//DTD SVG 1.1//EN" "http://www.w3.org/Graphics/SVG/1.1/DTD/svg11.dtd">
<svg version="1.1" id="Layer_1" xmlns="http://www.w3.org/2000/svg" xmlns:xlink="http://www.w3.org/1999/xlink" x="0px" y="0px"
	 width="240px" height="200px" viewBox="0 0 240 200" enable-background="new 0 0 240 200" xml:space="preserve">
<path fill="#FDD00F" d="M187.882,106.303c-10.149-32.986-1.587-41.101,0.216-42.339H120.48H51.998
	c1.803,1.238,10.366,9.353,0.216,42.339c-14.918,48.481,55.285,74.915,67.834,79.936c0.136-0.055,0.282-0.112,0.432-0.172
	C134.117,180.639,202.637,154.257,187.882,106.303"/>
<g opacity="0.6">
	<g>
		<g>
			<defs>
				<rect id="SVGID_1_" x="119.98" y="63.96" width="69.47" height="122.101"/>
			</defs>
			<clipPath id="SVGID_2_">
				<use xlink:href="#SVGID_1_"  overflow="visible"/>
			</clipPath>
			<path clip-path="url(#SVGID_2_)" fill="#CDA72C" d="M187.381,106.303c-10.15-32.986-1.588-41.101,0.215-42.339h-67.617v122.103
				C133.615,180.639,202.135,154.257,187.381,106.303"/>
		</g>
	</g>
</g>
<g opacity="0.4">
	<g>
		<g>
			<defs>
				<rect id="SVGID_3_" x="50.14" y="18.19" width="139.811" height="168.05"/>
			</defs>
			<clipPath id="SVGID_4_">
				<use xlink:href="#SVGID_3_"  overflow="visible"/>
			</clipPath>
			<path clip-path="url(#SVGID_4_)" fill="#FFFFFF" d="M120.048,32.247c12.873,6.204,32.308,10.53,54.448,12.167v14.542
				c-1.52,2.447-2.946,5.632-3.909,9.729c-2.505,10.653-1.122,24.676,4.108,41.678c2.328,7.566,1.855,14.6-1.444,21.498
				c-3.05,6.373-8.519,12.725-16.251,18.875c-12.736,10.132-28.21,17.049-36.952,20.637c-8.741-3.588-24.216-10.505-36.952-20.637
				c-7.733-6.151-13.201-12.502-16.251-18.875c-3.301-6.898-3.773-13.932-1.445-21.498c5.231-17.001,6.614-31.023,4.109-41.678
				c-0.963-4.098-2.39-7.281-3.908-9.729V44.414C87.739,42.777,107.176,38.451,120.048,32.247 M120.048,18.186
				c-1.726,0-3.452,0.348-4.795,1.037c-9.942,5.12-29.271,10.588-57.984,11.864c-3.016,0.134-5.465,2.57-5.465,5.589v27.161
				c0,0,11.263,7.192,0.41,42.466c-14.917,48.482,55.285,74.915,67.834,79.935c12.55-5.02,82.752-31.451,67.834-79.935
				c-10.853-35.273,0.41-42.466,0.41-42.466V36.676c0-3.019-2.449-5.455-5.466-5.589c-28.711-1.276-48.041-6.744-57.983-11.864
				C123.501,18.532,121.773,18.186,120.048,18.186"/>
		</g>
	</g>
</g>
<path fill="#191818" d="M188.292,36.676c0-3.02-2.449-5.455-5.465-5.589c-28.712-1.276-48.042-6.744-57.984-11.865
	c-2.685-1.382-6.905-1.382-9.59,0c-9.942,5.121-29.271,10.589-57.984,11.865c-3.016,0.134-5.465,2.569-5.465,5.589v27.161
	c0,0,0.07,0.041,0.194,0.127h136.1c0.125-0.086,0.194-0.127,0.194-0.127V36.676z"/>
<path fill="#191818" d="M120.048,26.552c0.527,0,0.894,0.091,1.007,0.13c13.129,6.748,34.478,11.32,58.871,12.639v21.295
	c-1.498,2.068-3.057,5.072-4.053,9.313c-2.281,9.702-0.932,22.771,4.014,38.836c5.107,16.601-1.272,31.72-19.506,46.222
	c-14.387,11.443-31.921,18.868-40.333,22.248c-8.412-3.38-25.946-10.805-40.333-22.248c-18.232-14.502-24.612-29.621-19.505-46.222
	c4.944-16.065,6.294-29.134,4.013-38.836c-0.997-4.24-2.555-7.243-4.053-9.313V39.32c24.393-1.318,45.743-5.891,58.872-12.639
	C119.154,26.643,119.521,26.552,120.048,26.552 M120.048,18.186c-1.726,0-3.452,0.347-4.795,1.037
	c-9.942,5.12-29.271,10.588-57.984,11.864c-3.016,0.134-5.465,2.57-5.465,5.589v27.161c0,0,11.263,7.192,0.41,42.466
	c-14.917,48.482,55.285,74.915,67.834,79.935c12.55-5.02,82.752-31.451,67.834-79.935c-10.853-35.273,0.41-42.466,0.41-42.466
	V36.676c0-3.019-2.449-5.455-5.466-5.589c-28.711-1.276-48.041-6.744-57.983-11.864C123.501,18.531,121.773,18.186,120.048,18.186"
	/>
<path fill="#FFFFFF" d="M112.653,52.332l2.438-2.589c1.054,1.385,2.468,2.168,4.185,2.168c1.926,0,3.041-1.476,3.041-3.162
	c0-1.986-1.055-3.161-2.86-3.161c-1.355,0-2.378,0.482-3.311,1.656l-2.921-0.783V35.052h12.042v3.552h-8.008v5.148
	c0.783-0.963,2.138-1.656,3.673-1.656c3.042,0,5.48,2.379,5.48,6.533c0,4.034-2.74,6.864-7.015,6.864
	C116.296,55.493,114.158,54.35,112.653,52.332"/>
<path fill="#191818" d="M104.987,111.138h30.674c2.853,0,5.171,1.971,5.18,4.399l0.048,22.449H99.76l0.049-22.449
	C99.816,113.107,102.135,111.138,104.987,111.138"/>
<rect x="98.24" y="137.409" fill="#191818" width="44.17" height="8.005"/>
<path fill="#FDD00F" d="M135.479,87.825h-5.59c-1.146-6.24-5.053-15.168-9.7-15.168s-8.555,8.928-9.699,15.168h-5.59h-2.465v2.165
	v5.413v2.165l1.834,4.331v35.509h31.84v-35.509l1.834-4.331v-2.165V89.99v-2.165H135.479z"/>
<rect x="103.929" y="123.675" fill="#FFFFFF" width="33.077" height="13.543"/>
<path fill="#FFFFFF" d="M130.646,87.176c0,5.74-4.653,10.394-10.394,10.394c-5.74,0-10.393-4.653-10.393-10.394
	s4.653-14.723,10.393-14.723C125.993,72.453,130.646,81.436,130.646,87.176"/>
<path fill="#191818" d="M110.499,99.474c-1.889,0-6.446-0.608-11.54-5.704c-4.082-4.08-7.138-3.261-7.265-3.224
	c-1.436,0.511-2.976-0.247-3.488-1.683c-0.513-1.436,0.273-3.027,1.708-3.539c2.299-0.822,7.614-0.789,12.947,4.544
	c4.336,4.336,7.659,4.093,7.796,4.083c1.512-0.218,2.872,0.836,3.088,2.345c0.215,1.509-0.868,2.911-2.376,3.126
	C111.251,99.438,110.952,99.474,110.499,99.474"/>
<path fill="#191818" d="M82.29,93.165l11.151-1.549c1.185-0.164,2.034-1.097,1.897-2.081l-0.545-3.925
	c-0.137-0.984-1.208-1.65-2.392-1.485l-11.152,1.549c-1.184,0.164-2.033,1.097-1.897,2.081l0.546,3.925
	C80.034,92.664,81.105,93.33,82.29,93.165"/>
<path fill="#191818" d="M129.846,99.474c-0.453,0-0.752-0.034-0.869-0.052c-1.509-0.215-2.557-1.613-2.34-3.122
	c0.211-1.488,1.578-2.52,3.062-2.35c0.237,0.021,3.521,0.183,7.786-4.083c5.332-5.333,10.646-5.367,12.947-4.544
	c1.435,0.512,2.183,2.091,1.67,3.525c-0.513,1.437-2.093,2.185-3.526,1.671c-0.054-0.013-3.109-0.83-7.188,3.249
	C136.293,98.863,131.736,99.474,129.846,99.474"/>
<path fill="#191818" d="M120.263,141.593l-17.995-2.437v-36.414l-4.439-4.331V85.825h6.697l4.225-1.638
	c1.548-6.752,5.907-13.53,11.438-13.53s9.89,6.778,11.437,13.53l4.228,1.638h6.695v12.586l-4.438,4.331v36.412L120.263,141.593z
	 M106.269,135.661l13.992,1.895l13.848-1.892v-34.607l4.438-4.331v-6.899h-3.444l-6.98-2.705l-0.202-1.1
	c-1.108-6.054-4.722-11.363-7.731-11.363c-3.009,0-6.622,5.311-7.732,11.363l-0.201,1.1l-6.98,2.705h-3.445v6.899l4.439,4.331
	v34.604H106.269z"/>
<path fill="#191818" d="M158.055,93.165l-11.15-1.549c-1.186-0.164-2.033-1.097-1.896-2.081l0.545-3.925
	c0.139-0.984,1.209-1.65,2.393-1.485l11.152,1.549c1.185,0.164,2.032,1.097,1.896,2.081l-0.545,3.925
	C160.311,92.664,159.239,93.33,158.055,93.165"/>
<polygon fill="#191818" points="100.615,88.188 110.437,86.165 130.212,86.165 135.986,88.042 140.548,87.825 140.548,97.569 
	136.109,101.899 104.801,101.899 99.83,97.569 "/>
<path fill="#FDD00F" d="M130.031,94.971c0,5.381-4.361,9.743-9.743,9.743c-5.381,0-9.744-4.362-9.744-9.743s4.363-9.743,9.744-9.743
	C125.67,85.228,130.031,89.59,130.031,94.971"/>
<path fill="#FFFFFF" d="M120.289,90.244c2.605,0,4.727,2.12,4.727,4.727c0,2.605-2.121,4.727-4.727,4.727
	c-2.606,0-4.726-2.12-4.726-4.727S117.683,90.244,120.289,90.244 M120.289,85.228c-5.381,0-9.743,4.362-9.743,9.743
	c0,5.382,4.362,9.743,9.743,9.743s9.743-4.36,9.743-9.743C130.031,89.589,125.67,85.228,120.289,85.228"/>
<path fill="#191818" d="M120.288,106.093c-6.133,0-11.123-4.989-11.123-11.123c0-6.133,4.99-11.123,11.123-11.123
	c6.133,0,11.124,4.99,11.124,11.123C131.412,101.104,126.421,106.093,120.288,106.093 M120.288,86.607
	c-4.612,0-8.363,3.751-8.363,8.362c0,4.612,3.751,8.364,8.363,8.364s8.364-3.752,8.364-8.364
	C128.652,90.358,124.9,86.607,120.288,86.607"/>
<path fill="#191818" d="M123.333,91.782l-6.029,6.416c0.795,0.782,1.886,1.265,3.089,1.265c2.432,0,4.404-1.971,4.404-4.403
	C124.796,93.758,124.23,92.588,123.333,91.782"/>
<path fill="#191818" d="M120.159,117.579c-3.587,0-6.496,2.908-6.496,6.496v29.316c0,3.589,2.909,6.496,6.496,6.496
	c3.587,0,6.495-2.907,6.495-6.496v-29.316C126.654,120.487,123.746,117.579,120.159,117.579"/>
<polygon fill="#FDD00F" points="89.154,44.968 77.414,47.677 66.578,44.968 66.578,38.646 77.414,41.355 89.154,38.646 "/>
<polygon fill="#FDD00F" points="89.154,53.998 77.414,56.707 66.578,53.998 66.578,47.676 77.414,50.386 89.154,47.676 "/>
<polygon fill="#676868" points="173.52,44.968 161.777,47.677 150.941,44.968 150.941,38.646 161.777,41.355 173.52,38.646 "/>
<polygon fill="#676868" points="173.52,53.998 161.777,56.707 150.941,53.998 150.941,47.676 161.777,50.386 173.52,47.676 "/>
</svg>
