<?xml version="1.0" encoding="utf-8"?>
<!-- Generator: Adobe Illustrator 16.0.0, SVG Export Plug-In . SVG Version: 6.00 Build 0)  -->
<!DOCTYPE svg PUBLIC "-//W3C//DTD SVG 1.1//EN" "http://www.w3.org/Graphics/SVG/1.1/DTD/svg11.dtd">
<svg version="1.1" id="Layer_1" xmlns="http://www.w3.org/2000/svg" xmlns:xlink="http://www.w3.org/1999/xlink" x="0px" y="0px"
	 width="240px" height="200px" viewBox="0 0 240 200" enable-background="new 0 0 240 200" xml:space="preserve">
<path fill="#FDD00F" d="M184.621,94.303c-10.15-32.986-1.588-41.101,0.216-42.339h-67.618H48.737
	c1.804,1.238,10.367,9.353,0.217,42.339c-14.918,48.481,55.285,74.915,67.834,79.936c0.137-0.055,0.281-0.112,0.432-0.172
	C130.855,168.639,199.376,142.257,184.621,94.303"/>
<g opacity="0.6">
	<g>
		<g>
			<defs>
				<rect id="SVGID_1_" x="116.971" y="51.21" width="69.468" height="122.101"/>
			</defs>
			<clipPath id="SVGID_2_">
				<use xlink:href="#SVGID_1_"  overflow="visible"/>
			</clipPath>
			<path clip-path="url(#SVGID_2_)" fill="#CDA72C" d="M184.37,93.551c-10.149-32.988-1.587-41.101,0.215-42.339h-67.617v122.101
				C130.605,167.887,199.125,141.505,184.37,93.551"/>
		</g>
	</g>
</g>
<g opacity="0.4">
	<g>
		<g>
			<defs>
				<rect id="SVGID_3_" x="46.88" y="6.19" width="139.81" height="168.05"/>
			</defs>
			<clipPath id="SVGID_4_">
				<use xlink:href="#SVGID_3_"  overflow="visible"/>
			</clipPath>
			<path clip-path="url(#SVGID_4_)" fill="#FFFFFF" d="M116.787,20.247c12.873,6.204,32.308,10.53,54.447,12.167v14.542
				c-1.52,2.447-2.946,5.632-3.908,9.729c-2.506,10.653-1.122,24.676,4.107,41.677c2.33,7.567,1.855,14.6-1.443,21.499
				c-3.051,6.373-8.52,12.725-16.252,18.875c-12.736,10.132-28.209,17.049-36.951,20.637c-8.742-3.588-24.217-10.505-36.952-20.637
				c-7.733-6.15-13.201-12.502-16.251-18.875c-3.301-6.898-3.773-13.932-1.445-21.499c5.23-17.001,6.614-31.023,4.109-41.677
				c-0.963-4.097-2.391-7.281-3.908-9.729V32.414C84.479,30.777,103.915,26.451,116.787,20.247 M116.787,6.186
				c-1.727,0-3.453,0.347-4.795,1.037c-9.942,5.12-29.271,10.587-57.984,11.864c-3.016,0.134-5.465,2.57-5.465,5.589v27.161
				c0,0,11.263,7.192,0.41,42.466c-14.918,48.482,55.285,74.915,67.834,79.935c12.549-5.02,82.751-31.451,67.834-79.935
				c-10.854-35.273,0.41-42.466,0.41-42.466V24.676c0-3.019-2.449-5.455-5.465-5.589c-28.713-1.276-48.043-6.744-57.984-11.864
				C120.24,6.532,118.513,6.186,116.787,6.186"/>
		</g>
	</g>
</g>
<path fill="#191818" d="M185.031,24.676c0-3.02-2.449-5.455-5.465-5.589c-28.713-1.276-48.043-6.744-57.984-11.865
	c-2.686-1.382-6.904-1.382-9.59,0c-9.942,5.121-29.271,10.588-57.984,11.865c-3.016,0.134-5.465,2.569-5.465,5.589v27.161
	c0,0,0.07,0.041,0.193,0.127h136.101c0.124-0.086,0.194-0.127,0.194-0.127V24.676L185.031,24.676z"/>
<polygon fill="#FFFFFF" points="97.143,43.132 97.143,28.26 94.102,31.421 91.783,28.981 97.684,23.051 101.206,23.051 
	101.206,43.132 "/>
<path fill="#FFFFFF" d="M103.674,41.145c0-1.265,1.084-2.349,2.348-2.349s2.317,1.084,2.317,2.349c0,1.266-1.054,2.318-2.317,2.318
	S103.674,42.409,103.674,41.145"/>
<path fill="#FFFFFF" d="M110.205,40.332l2.438-2.589c1.054,1.384,2.469,2.168,4.185,2.168c1.928,0,3.04-1.478,3.04-3.162
	c0-1.987-1.054-3.161-2.858-3.161c-1.355,0-2.379,0.482-3.313,1.656l-2.921-0.783v-11.41h12.042v3.554h-8.008v5.147
	c0.783-0.963,2.138-1.656,3.673-1.656c3.041,0,5.479,2.378,5.479,6.533c0,4.034-2.737,6.864-7.015,6.864
	C113.848,43.493,111.711,42.349,110.205,40.332"/>
<polygon fill="#FFFFFF" points="136.033,43.132 131.396,35.273 129.982,37.503 129.982,43.132 125.948,43.132 125.948,23.051 
	129.982,23.051 129.982,32.174 135.643,23.051 140.338,23.051 133.926,32.505 140.791,43.132 "/>
<g>
	<g>
		<defs>
			<path id="SVGID_5_" d="M111.993,7.222c-9.942,5.122-29.272,10.589-57.986,11.866c-3.015,0.132-5.464,2.568-5.464,5.588v27.161
				c0,0,11.264,7.192,0.409,42.467c-14.916,48.48,55.284,74.914,67.835,79.935c12.549-5.021,82.751-31.453,67.835-79.935
				c-10.854-35.273,0.407-42.467,0.407-42.467V24.676c0-3.02-2.447-5.456-5.463-5.588c-28.713-1.276-48.041-6.744-57.985-11.866
				c-1.341-0.69-3.067-1.036-4.794-1.036S113.334,6.531,111.993,7.222"/>
		</defs>
		<clipPath id="SVGID_6_">
			<use xlink:href="#SVGID_5_"  overflow="visible"/>
		</clipPath>
		<polygon clip-path="url(#SVGID_6_)" fill="#FFFFFF" points="195.732,87.403 195.732,93.291 117.243,112.912 117.243,95.252 
			191.294,87.848 		"/>
	</g>
	<g>
		<defs>
			<path id="SVGID_7_" d="M111.993,7.222c-9.942,5.122-29.272,10.589-57.986,11.866c-3.015,0.132-5.464,2.568-5.464,5.588v27.161
				c0,0,11.264,7.192,0.409,42.467c-14.916,48.48,55.284,74.914,67.835,79.935c12.549-5.021,82.751-31.453,67.835-79.935
				c-10.854-35.273,0.407-42.467,0.407-42.467V24.676c0-3.02-2.447-5.456-5.463-5.588c-28.713-1.276-48.041-6.744-57.985-11.866
				c-1.341-0.69-3.067-1.036-4.794-1.036S113.334,6.531,111.993,7.222"/>
		</defs>
		<clipPath id="SVGID_8_">
			<use xlink:href="#SVGID_7_"  overflow="visible"/>
		</clipPath>
		<polygon clip-path="url(#SVGID_8_)" fill="#FFFFFF" points="38.317,87.403 38.317,93.291 116.807,112.912 116.807,95.252 
			42.758,87.848 		"/>
	</g>
	<g>
		<defs>
			<path id="SVGID_9_" d="M111.993,7.222c-9.942,5.122-29.272,10.589-57.986,11.866c-3.015,0.132-5.464,2.568-5.464,5.588v27.161
				c0,0,11.264,7.192,0.409,42.467c-14.916,48.48,55.284,74.914,67.835,79.935c12.549-5.021,82.751-31.453,67.835-79.935
				c-10.854-35.273,0.407-42.467,0.407-42.467V24.676c0-3.02-2.447-5.456-5.463-5.588c-28.713-1.276-48.041-6.744-57.985-11.866
				c-1.341-0.69-3.067-1.036-4.794-1.036S113.334,6.531,111.993,7.222"/>
		</defs>
		<clipPath id="SVGID_10_">
			<use xlink:href="#SVGID_9_"  overflow="visible"/>
		</clipPath>
		<polygon clip-path="url(#SVGID_10_)" fill="#FDD00F" points="98.1,99.988 39.186,90.306 39.186,92.931 98.264,108.357 		"/>
	</g>
	<g>
		<defs>
			<path id="SVGID_11_" d="M111.993,7.222c-9.942,5.122-29.272,10.589-57.986,11.866c-3.015,0.132-5.464,2.568-5.464,5.588v27.161
				c0,0,11.264,7.192,0.409,42.467c-14.916,48.48,55.284,74.914,67.835,79.935c12.549-5.021,82.751-31.453,67.835-79.935
				c-10.854-35.273,0.407-42.467,0.407-42.467V24.676c0-3.02-2.447-5.456-5.463-5.588c-28.713-1.276-48.041-6.744-57.985-11.866
				c-1.341-0.69-3.067-1.036-4.794-1.036S113.334,6.531,111.993,7.222"/>
		</defs>
		<clipPath id="SVGID_12_">
			<use xlink:href="#SVGID_11_"  overflow="visible"/>
		</clipPath>
		<polygon clip-path="url(#SVGID_12_)" fill="#FDD00F" points="135.844,99.988 194.758,90.306 194.758,92.931 135.68,108.357 		"/>
	</g>
	<g>
		<defs>
			<path id="SVGID_13_" d="M111.993,7.222c-9.942,5.122-29.272,10.589-57.986,11.866c-3.015,0.132-5.464,2.568-5.464,5.588v27.161
				c0,0,11.264,7.192,0.409,42.467c-14.916,48.48,55.284,74.914,67.835,79.935c12.549-5.021,82.751-31.453,67.835-79.935
				c-10.854-35.273,0.407-42.467,0.407-42.467V24.676c0-3.02-2.447-5.456-5.463-5.588c-28.713-1.276-48.041-6.744-57.985-11.866
				c-1.341-0.69-3.067-1.036-4.794-1.036S113.334,6.531,111.993,7.222"/>
		</defs>
		<clipPath id="SVGID_14_">
			<use xlink:href="#SVGID_13_"  overflow="visible"/>
		</clipPath>
		<polygon clip-path="url(#SVGID_14_)" fill="#FDD00F" points="122.945,87.403 110.669,87.403 114.846,63.486 118.77,63.486 		"/>
	</g>
	<g>
		<defs>
			<path id="SVGID_15_" d="M111.993,7.222c-9.942,5.122-29.272,10.589-57.986,11.866c-3.015,0.132-5.464,2.568-5.464,5.588v27.161
				c0,0,11.264,7.192,0.409,42.467c-14.916,48.48,55.284,74.914,67.835,79.935c12.549-5.021,82.751-31.453,67.835-79.935
				c-10.854-35.273,0.407-42.467,0.407-42.467V24.676c0-3.02-2.447-5.456-5.463-5.588c-28.713-1.276-48.041-6.744-57.985-11.866
				c-1.341-0.69-3.067-1.036-4.794-1.036S113.334,6.531,111.993,7.222"/>
		</defs>
		<clipPath id="SVGID_16_">
			<use xlink:href="#SVGID_15_"  overflow="visible"/>
		</clipPath>
		<path clip-path="url(#SVGID_16_)" fill="#191818" d="M124.736,88.908h-15.859l4.703-26.927h6.454L124.736,88.908z M112.459,85.898
			h8.695l-3.648-20.907h-1.396L112.459,85.898z"/>
	</g>
	<g>
		<defs>
			<path id="SVGID_17_" d="M111.993,7.222c-9.942,5.122-29.272,10.589-57.986,11.866c-3.015,0.132-5.464,2.568-5.464,5.588v27.161
				c0,0,11.264,7.192,0.409,42.467c-14.916,48.48,55.284,74.914,67.835,79.935c12.549-5.021,82.751-31.453,67.835-79.935
				c-10.854-35.273,0.407-42.467,0.407-42.467V24.676c0-3.02-2.447-5.456-5.463-5.588c-28.713-1.276-48.041-6.744-57.985-11.866
				c-1.341-0.69-3.067-1.036-4.794-1.036S113.334,6.531,111.993,7.222"/>
		</defs>
		<clipPath id="SVGID_18_">
			<use xlink:href="#SVGID_17_"  overflow="visible"/>
		</clipPath>
		<path clip-path="url(#SVGID_18_)" fill="#191818" d="M115.236,115.483V93.436l82.502-8.251v9.673L115.236,115.483z M119.25,97.068
			v13.272l74.477-18.619V89.62L119.25,97.068z"/>
	</g>
	<g>
		<defs>
			<path id="SVGID_19_" d="M111.993,7.222c-9.942,5.122-29.272,10.589-57.986,11.866c-3.015,0.132-5.464,2.568-5.464,5.588v27.161
				c0,0,11.264,7.192,0.409,42.467c-14.916,48.48,55.284,74.914,67.835,79.935c12.549-5.021,82.751-31.453,67.835-79.935
				c-10.854-35.273,0.407-42.467,0.407-42.467V24.676c0-3.02-2.447-5.456-5.463-5.588c-28.713-1.276-48.041-6.744-57.985-11.866
				c-1.341-0.69-3.067-1.036-4.794-1.036S113.334,6.531,111.993,7.222"/>
		</defs>
		<clipPath id="SVGID_20_">
			<use xlink:href="#SVGID_19_"  overflow="visible"/>
		</clipPath>
		<path clip-path="url(#SVGID_20_)" fill="#FFFFFF" d="M155.811,108.814c0,3.251,2.635,5.887,5.888,5.887
			c3.252,0,5.887-2.636,5.887-5.887c0-3.252-2.635-5.889-5.887-5.889C158.445,102.926,155.811,105.563,155.811,108.814"/>
	</g>
	<g>
		<defs>
			<path id="SVGID_21_" d="M111.993,7.222c-9.942,5.122-29.272,10.589-57.986,11.866c-3.015,0.132-5.464,2.568-5.464,5.588v27.161
				c0,0,11.264,7.192,0.409,42.467c-14.916,48.48,55.284,74.914,67.835,79.935c12.549-5.021,82.751-31.453,67.835-79.935
				c-10.854-35.273,0.407-42.467,0.407-42.467V24.676c0-3.02-2.447-5.456-5.463-5.588c-28.713-1.276-48.041-6.744-57.985-11.866
				c-1.341-0.69-3.067-1.036-4.794-1.036S113.334,6.531,111.993,7.222"/>
		</defs>
		<clipPath id="SVGID_22_">
			<use xlink:href="#SVGID_21_"  overflow="visible"/>
		</clipPath>
		<path clip-path="url(#SVGID_22_)" fill="#191818" d="M161.697,116.205c-4.076,0-7.393-3.315-7.393-7.391
			c0-4.076,3.315-7.394,7.393-7.394c4.076,0,7.393,3.316,7.393,7.394C169.09,112.89,165.773,116.205,161.697,116.205
			 M161.697,104.432c-2.416,0-4.383,1.967-4.383,4.384c0,2.416,1.967,4.382,4.383,4.382s4.383-1.966,4.383-4.382
			C166.08,106.398,164.113,104.432,161.697,104.432"/>
	</g>
	<g>
		<defs>
			<path id="SVGID_23_" d="M111.993,7.222c-9.942,5.122-29.272,10.589-57.986,11.866c-3.015,0.132-5.464,2.568-5.464,5.588v27.161
				c0,0,11.264,7.192,0.409,42.467c-14.916,48.48,55.284,74.914,67.835,79.935c12.549-5.021,82.751-31.453,67.835-79.935
				c-10.854-35.273,0.407-42.467,0.407-42.467V24.676c0-3.02-2.447-5.456-5.463-5.588c-28.713-1.276-48.041-6.744-57.985-11.866
				c-1.341-0.69-3.067-1.036-4.794-1.036S113.334,6.531,111.993,7.222"/>
		</defs>
		<clipPath id="SVGID_24_">
			<use xlink:href="#SVGID_23_"  overflow="visible"/>
		</clipPath>
		<path clip-path="url(#SVGID_24_)" fill="#191818" d="M118.813,115.482L36.31,94.857v-9.673l82.503,8.251V115.482z M40.324,91.724
			l74.477,18.619V97.069l-74.477-7.448V91.724z"/>
	</g>
	<g>
		<defs>
			<path id="SVGID_25_" d="M111.993,7.222c-9.942,5.122-29.272,10.589-57.986,11.866c-3.015,0.132-5.464,2.568-5.464,5.588v27.161
				c0,0,11.264,7.192,0.409,42.467c-14.916,48.48,55.284,74.914,67.835,79.935c12.549-5.021,82.751-31.453,67.835-79.935
				c-10.854-35.273,0.407-42.467,0.407-42.467V24.676c0-3.02-2.447-5.456-5.463-5.588c-28.713-1.276-48.041-6.744-57.985-11.866
				c-1.341-0.69-3.067-1.036-4.794-1.036S113.334,6.531,111.993,7.222"/>
		</defs>
		<clipPath id="SVGID_26_">
			<use xlink:href="#SVGID_25_"  overflow="visible"/>
		</clipPath>
		<path clip-path="url(#SVGID_26_)" fill="#191818" d="M115.076,90.858v-9.083l24.886-2.489v5.35L115.076,90.858z M119.09,85.407
			v0.311l2.066-0.517L119.09,85.407z"/>
	</g>
	<g>
		<defs>
			<path id="SVGID_27_" d="M111.993,7.222c-9.942,5.122-29.272,10.589-57.986,11.866c-3.015,0.132-5.464,2.568-5.464,5.588v27.161
				c0,0,11.264,7.192,0.409,42.467c-14.916,48.48,55.284,74.914,67.835,79.935c12.549-5.021,82.751-31.453,67.835-79.935
				c-10.854-35.273,0.407-42.467,0.407-42.467V24.676c0-3.02-2.447-5.456-5.463-5.588c-28.713-1.276-48.041-6.744-57.985-11.866
				c-1.341-0.69-3.067-1.036-4.794-1.036S113.334,6.531,111.993,7.222"/>
		</defs>
		<clipPath id="SVGID_28_">
			<use xlink:href="#SVGID_27_"  overflow="visible"/>
		</clipPath>
		<path clip-path="url(#SVGID_28_)" fill="#191818" d="M118.974,90.858l-24.887-6.223v-5.351l24.887,2.49V90.858z M112.895,85.201
			l2.065,0.517v-0.31L112.895,85.201z"/>
	</g>
	<g>
		<defs>
			<path id="SVGID_29_" d="M111.993,7.222c-9.942,5.122-29.272,10.589-57.986,11.866c-3.015,0.132-5.464,2.568-5.464,5.588v27.161
				c0,0,11.264,7.192,0.409,42.467c-14.916,48.48,55.284,74.914,67.835,79.935c12.549-5.021,82.751-31.453,67.835-79.935
				c-10.854-35.273,0.407-42.467,0.407-42.467V24.676c0-3.02-2.447-5.456-5.463-5.588c-28.713-1.276-48.041-6.744-57.985-11.866
				c-1.341-0.69-3.067-1.036-4.794-1.036S113.334,6.531,111.993,7.222"/>
		</defs>
		<clipPath id="SVGID_30_">
			<use xlink:href="#SVGID_29_"  overflow="visible"/>
		</clipPath>
		<path clip-path="url(#SVGID_30_)" fill="#FDD00F" d="M138.393,103.102c0,11.922-9.664,21.585-21.584,21.585
			c-11.921,0-21.585-9.663-21.585-21.585c0-11.921,9.664-21.585,21.585-21.585C128.729,81.517,138.393,91.181,138.393,103.102"/>
	</g>
	<g>
		<defs>
			<path id="SVGID_31_" d="M111.993,7.222c-9.942,5.122-29.272,10.589-57.986,11.866c-3.015,0.132-5.464,2.568-5.464,5.588v27.161
				c0,0,11.264,7.192,0.409,42.467c-14.916,48.48,55.284,74.914,67.835,79.935c12.549-5.021,82.751-31.453,67.835-79.935
				c-10.854-35.273,0.407-42.467,0.407-42.467V24.676c0-3.02-2.447-5.456-5.463-5.588c-28.713-1.276-48.041-6.744-57.985-11.866
				c-1.341-0.69-3.067-1.036-4.794-1.036S113.334,6.531,111.993,7.222"/>
		</defs>
		<clipPath id="SVGID_32_">
			<use xlink:href="#SVGID_31_"  overflow="visible"/>
		</clipPath>
		<path clip-path="url(#SVGID_32_)" fill="#FFFFFF" d="M116.808,81.517c-11.921,0-21.585,9.664-21.585,21.585
			c0,11.922,9.664,21.584,21.585,21.584c0.026,0,0.055-0.002,0.081-0.002V81.519C116.862,81.519,116.834,81.517,116.808,81.517"/>
	</g>
	<g>
		<defs>
			<path id="SVGID_33_" d="M111.993,7.222c-9.942,5.122-29.272,10.589-57.986,11.866c-3.015,0.132-5.464,2.568-5.464,5.588v27.161
				c0,0,11.264,7.192,0.409,42.467c-14.916,48.48,55.284,74.914,67.835,79.935c12.549-5.021,82.751-31.453,67.835-79.935
				c-10.854-35.273,0.407-42.467,0.407-42.467V24.676c0-3.02-2.447-5.456-5.463-5.588c-28.713-1.276-48.041-6.744-57.985-11.866
				c-1.341-0.69-3.067-1.036-4.794-1.036S113.334,6.531,111.993,7.222"/>
		</defs>
		<clipPath id="SVGID_34_">
			<use xlink:href="#SVGID_33_"  overflow="visible"/>
		</clipPath>
		<path clip-path="url(#SVGID_34_)" fill="#191818" d="M116.807,126.692c-13.009,0-23.592-10.583-23.592-23.592
			c0-13.008,10.583-23.592,23.592-23.592s23.591,10.584,23.591,23.592C140.398,116.109,129.816,126.692,116.807,126.692
			 M116.807,83.523c-10.796,0-19.578,8.782-19.578,19.577c0,10.797,8.782,19.578,19.578,19.578c10.796,0,19.578-8.781,19.578-19.578
			C136.385,92.307,127.604,83.523,116.807,83.523"/>
	</g>
	<g>
		<defs>
			<path id="SVGID_35_" d="M111.993,7.222c-9.942,5.122-29.272,10.589-57.986,11.866c-3.015,0.132-5.464,2.568-5.464,5.588v27.161
				c0,0,11.264,7.192,0.409,42.467c-14.916,48.48,55.284,74.914,67.835,79.935c12.549-5.021,82.751-31.453,67.835-79.935
				c-10.854-35.273,0.407-42.467,0.407-42.467V24.676c0-3.02-2.447-5.456-5.463-5.588c-28.713-1.276-48.041-6.744-57.985-11.866
				c-1.341-0.69-3.067-1.036-4.794-1.036S113.334,6.531,111.993,7.222"/>
		</defs>
		<clipPath id="SVGID_36_">
			<use xlink:href="#SVGID_35_"  overflow="visible"/>
		</clipPath>
		<path clip-path="url(#SVGID_36_)" fill="#FFFFFF" d="M78.24,109.817c0,3.251-2.637,5.888-5.887,5.888
			c-3.252,0-5.887-2.637-5.887-5.888s2.635-5.888,5.887-5.888C75.604,103.931,78.24,106.566,78.24,109.817"/>
	</g>
	<g>
		<defs>
			<path id="SVGID_37_" d="M111.993,7.222c-9.942,5.122-29.272,10.589-57.986,11.866c-3.015,0.132-5.464,2.568-5.464,5.588v27.161
				c0,0,11.264,7.192,0.409,42.467c-14.916,48.48,55.284,74.914,67.835,79.935c12.549-5.021,82.751-31.453,67.835-79.935
				c-10.854-35.273,0.407-42.467,0.407-42.467V24.676c0-3.02-2.447-5.456-5.463-5.588c-28.713-1.276-48.041-6.744-57.985-11.866
				c-1.341-0.69-3.067-1.036-4.794-1.036S113.334,6.531,111.993,7.222"/>
		</defs>
		<clipPath id="SVGID_38_">
			<use xlink:href="#SVGID_37_"  overflow="visible"/>
		</clipPath>
		<path clip-path="url(#SVGID_38_)" fill="#191818" d="M72.354,116.205c-4.076,0-7.393-3.315-7.393-7.391
			c0-4.076,3.316-7.394,7.393-7.394c4.075,0,7.391,3.316,7.391,7.394C79.744,112.89,76.429,116.205,72.354,116.205 M72.354,104.432
			c-2.416,0-4.383,1.967-4.383,4.384c0,2.416,1.967,4.382,4.383,4.382c2.415,0,4.381-1.966,4.381-4.382
			C76.734,106.398,74.769,104.432,72.354,104.432"/>
	</g>
	<g>
		<defs>
			<path id="SVGID_39_" d="M111.993,7.222c-9.942,5.122-29.272,10.589-57.986,11.866c-3.015,0.132-5.464,2.568-5.464,5.588v27.161
				c0,0,11.264,7.192,0.409,42.467c-14.916,48.48,55.284,74.914,67.835,79.935c12.549-5.021,82.751-31.453,67.835-79.935
				c-10.854-35.273,0.407-42.467,0.407-42.467V24.676c0-3.02-2.447-5.456-5.463-5.588c-28.713-1.276-48.041-6.744-57.985-11.866
				c-1.341-0.69-3.067-1.036-4.794-1.036S113.334,6.531,111.993,7.222"/>
		</defs>
		<clipPath id="SVGID_40_">
			<use xlink:href="#SVGID_39_"  overflow="visible"/>
		</clipPath>
		<polygon clip-path="url(#SVGID_40_)" fill="#191818" points="101.842,98.576 105.798,94.62 113.71,96.598 113.71,102.532 		"/>
	</g>
	<g>
		<defs>
			<path id="SVGID_41_" d="M111.993,7.222c-9.942,5.122-29.272,10.589-57.986,11.866c-3.015,0.132-5.464,2.568-5.464,5.588v27.161
				c0,0,11.264,7.192,0.409,42.467c-14.916,48.48,55.284,74.914,67.835,79.935c12.549-5.021,82.751-31.453,67.835-79.935
				c-10.854-35.273,0.407-42.467,0.407-42.467V24.676c0-3.02-2.447-5.456-5.463-5.588c-28.713-1.276-48.041-6.744-57.985-11.866
				c-1.341-0.69-3.067-1.036-4.794-1.036S113.334,6.531,111.993,7.222"/>
		</defs>
		<clipPath id="SVGID_42_">
			<use xlink:href="#SVGID_41_"  overflow="visible"/>
		</clipPath>
		<polygon clip-path="url(#SVGID_42_)" fill="#191818" points="132.32,98.576 128.365,94.62 120.453,96.598 120.453,102.532 		"/>
	</g>
	<g>
		<defs>
			<path id="SVGID_43_" d="M111.993,7.222c-9.942,5.122-29.272,10.589-57.986,11.866c-3.015,0.132-5.464,2.568-5.464,5.588v27.161
				c0,0,11.264,7.192,0.409,42.467c-14.916,48.48,55.284,74.914,67.835,79.935c12.549-5.021,82.751-31.453,67.835-79.935
				c-10.854-35.273,0.407-42.467,0.407-42.467V24.676c0-3.02-2.447-5.456-5.463-5.588c-28.713-1.276-48.041-6.744-57.985-11.866
				c-1.341-0.69-3.067-1.036-4.794-1.036S113.334,6.531,111.993,7.222"/>
		</defs>
		<clipPath id="SVGID_44_">
			<use xlink:href="#SVGID_43_"  overflow="visible"/>
		</clipPath>
		<path clip-path="url(#SVGID_44_)" fill="#191818" d="M138.014,123.943c-1.736,0-4.406,0.146-4.406,1.886v10.414
			c0,1.737,2.67,1.885,4.406,1.885c1.737,0,1.945-0.146,1.945-1.885v-10.414C139.959,124.091,139.751,123.943,138.014,123.943"/>
	</g>
	<g>
		<defs>
			<path id="SVGID_45_" d="M111.993,7.222c-9.942,5.122-29.272,10.589-57.986,11.866c-3.015,0.132-5.464,2.568-5.464,5.588v27.161
				c0,0,11.264,7.192,0.409,42.467c-14.916,48.48,55.284,74.914,67.835,79.935c12.549-5.021,82.751-31.453,67.835-79.935
				c-10.854-35.273,0.407-42.467,0.407-42.467V24.676c0-3.02-2.447-5.456-5.463-5.588c-28.713-1.276-48.041-6.744-57.985-11.866
				c-1.341-0.69-3.067-1.036-4.794-1.036S113.334,6.531,111.993,7.222"/>
		</defs>
		<clipPath id="SVGID_46_">
			<use xlink:href="#SVGID_45_"  overflow="visible"/>
		</clipPath>
		<path clip-path="url(#SVGID_46_)" fill="#191818" d="M143.594,123.943c-1.736,0-1.945,0.146-1.945,1.886v10.414
			c0,1.737,0.209,1.885,1.945,1.885s4.406-0.146,4.406-1.885v-10.414C148,124.091,145.33,123.943,143.594,123.943"/>
	</g>
	<g>
		<defs>
			<path id="SVGID_47_" d="M111.993,7.222c-9.942,5.122-29.272,10.589-57.986,11.866c-3.015,0.132-5.464,2.568-5.464,5.588v27.161
				c0,0,11.264,7.192,0.409,42.467c-14.916,48.48,55.284,74.914,67.835,79.935c12.549-5.021,82.751-31.453,67.835-79.935
				c-10.854-35.273,0.407-42.467,0.407-42.467V24.676c0-3.02-2.447-5.456-5.463-5.588c-28.713-1.276-48.041-6.744-57.985-11.866
				c-1.341-0.69-3.067-1.036-4.794-1.036S113.334,6.531,111.993,7.222"/>
		</defs>
		<clipPath id="SVGID_48_">
			<use xlink:href="#SVGID_47_"  overflow="visible"/>
		</clipPath>
		<path clip-path="url(#SVGID_48_)" fill="#191818" d="M90.353,123.943c-1.737,0-4.407,0.146-4.407,1.886v10.414
			c0,1.737,2.67,1.885,4.407,1.885s1.946-0.146,1.946-1.885v-10.414C92.299,124.091,92.09,123.943,90.353,123.943"/>
	</g>
	<g>
		<defs>
			<path id="SVGID_49_" d="M111.993,7.222c-9.942,5.122-29.272,10.589-57.986,11.866c-3.015,0.132-5.464,2.568-5.464,5.588v27.161
				c0,0,11.264,7.192,0.409,42.467c-14.916,48.48,55.284,74.914,67.835,79.935c12.549-5.021,82.751-31.453,67.835-79.935
				c-10.854-35.273,0.407-42.467,0.407-42.467V24.676c0-3.02-2.447-5.456-5.463-5.588c-28.713-1.276-48.041-6.744-57.985-11.866
				c-1.341-0.69-3.067-1.036-4.794-1.036S113.334,6.531,111.993,7.222"/>
		</defs>
		<clipPath id="SVGID_50_">
			<use xlink:href="#SVGID_49_"  overflow="visible"/>
		</clipPath>
		<path clip-path="url(#SVGID_50_)" fill="#191818" d="M95.933,123.943c-1.738,0-1.946,0.146-1.946,1.886v10.414
			c0,1.737,0.208,1.885,1.946,1.885c1.737,0,4.407-0.146,4.407-1.885v-10.414C100.34,124.091,97.67,123.943,95.933,123.943"/>
	</g>
	<g>
		<defs>
			<path id="SVGID_51_" d="M111.993,7.222c-9.942,5.122-29.272,10.589-57.986,11.866c-3.015,0.132-5.464,2.568-5.464,5.588v27.161
				c0,0,11.264,7.192,0.409,42.467c-14.916,48.48,55.284,74.914,67.835,79.935c12.549-5.021,82.751-31.453,67.835-79.935
				c-10.854-35.273,0.407-42.467,0.407-42.467V24.676c0-3.02-2.447-5.456-5.463-5.588c-28.713-1.276-48.041-6.744-57.985-11.866
				c-1.341-0.69-3.067-1.036-4.794-1.036S113.334,6.531,111.993,7.222"/>
		</defs>
		<clipPath id="SVGID_52_">
			<use xlink:href="#SVGID_51_"  overflow="visible"/>
		</clipPath>
		<path clip-path="url(#SVGID_52_)" fill="#191818" d="M100.117,133.181l-2.08-3.433c3.035-1.843,7.31-5.471,7.31-7.771h4.014
			C109.36,127.317,101.66,132.246,100.117,133.181"/>
	</g>
	<g>
		<defs>
			<path id="SVGID_53_" d="M111.993,7.222c-9.942,5.122-29.272,10.589-57.986,11.866c-3.015,0.132-5.464,2.568-5.464,5.588v27.161
				c0,0,11.264,7.192,0.409,42.467c-14.916,48.48,55.284,74.914,67.835,79.935c12.549-5.021,82.751-31.453,67.835-79.935
				c-10.854-35.273,0.407-42.467,0.407-42.467V24.676c0-3.02-2.447-5.456-5.463-5.588c-28.713-1.276-48.041-6.744-57.985-11.866
				c-1.341-0.69-3.067-1.036-4.794-1.036S113.334,6.531,111.993,7.222"/>
		</defs>
		<clipPath id="SVGID_54_">
			<use xlink:href="#SVGID_53_"  overflow="visible"/>
		</clipPath>
		<path clip-path="url(#SVGID_54_)" fill="#191818" d="M134.268,133.181c-1.543-0.935-9.244-5.862-9.244-11.202h4.015
			c0,2.283,4.36,5.985,7.308,7.769L134.268,133.181z"/>
	</g>
</g>
<path fill="#191818" d="M116.787,14.552c0.527,0,0.894,0.091,1.006,0.13c13.13,6.748,34.479,11.32,58.872,12.638v21.295
	c-1.498,2.068-3.056,5.072-4.054,9.313c-2.28,9.702-0.93,22.771,4.014,38.836c5.107,16.601-1.273,31.72-19.506,46.222
	c-14.387,11.443-31.92,18.868-40.332,22.248c-8.413-3.38-25.946-10.805-40.333-22.248c-18.232-14.502-24.612-29.621-19.505-46.222
	c4.943-16.065,6.293-29.134,4.013-38.836c-0.997-4.24-2.556-7.243-4.054-9.313V27.32c24.394-1.318,45.744-5.891,58.873-12.638
	C115.893,14.643,116.26,14.552,116.787,14.552 M116.787,6.186c-1.727,0-3.453,0.346-4.795,1.037
	c-9.942,5.12-29.271,10.587-57.984,11.864c-3.016,0.134-5.465,2.57-5.465,5.589v27.161c0,0,11.263,7.192,0.41,42.466
	c-14.918,48.482,55.285,74.915,67.834,79.935c12.549-5.02,82.751-31.451,67.834-79.935c-10.854-35.273,0.41-42.466,0.41-42.466
	V24.676c0-3.019-2.449-5.455-5.465-5.589c-28.713-1.276-48.043-6.744-57.984-11.864C120.24,6.531,118.513,6.186,116.787,6.186"/>
<polygon fill="#FFFFFF" points="87.732,30.669 80.273,29.539 76.953,22.44 73.633,29.539 66.175,30.669 71.563,36.204 
	70.217,43.999 76.953,40.317 83.69,43.999 82.343,36.204 "/>
<polygon fill="#FFFFFF" points="167.398,30.669 159.941,29.539 156.62,22.44 153.299,29.539 145.842,30.669 151.23,36.204 
	149.883,43.999 156.62,40.317 163.357,43.999 162.01,36.204 "/>
<polygon fill="#FFFFFF" points="169.102,184.362 116.809,198.546 64.516,182.857 64.516,155.337 116.809,171.024 169.102,155.337 
	"/>
<path fill="#020202" d="M116.808,199.469l-54.551-13.334V152.46l54.551,13.335l54.551-13.335v33.675L116.808,199.469z
	 M66.773,182.59l50.034,12.231l50.035-12.231v-24.378l-50.035,12.232l-50.034-12.232V182.59L66.773,182.59z"/>
<polygon fill="#020202" points="145.588,161.524 171.425,152.546 158.352,142.765 137.338,160.776 "/>
<polygon fill="#020202" points="87.986,161.524 62.148,152.546 75.223,142.765 96.236,160.776 "/>
<polygon fill="#FDD00F" points="88.658,171.951 86.067,166.414 83.478,171.951 77.66,172.833 81.863,177.15 80.813,183.23 
	86.067,180.359 91.322,183.23 90.271,177.15 94.476,172.833 "/>
<polygon fill="#020202" points="119.344,178.027 116.486,171.917 113.627,178.027 107.206,179.001 111.846,183.766 110.686,190.477 
	116.486,187.308 122.285,190.477 121.126,183.766 125.766,179.001 "/>
<polygon fill="#FDD00F" points="149.682,171.951 147.092,166.414 144.502,171.951 138.684,172.833 142.889,177.15 141.837,183.23 
	147.092,180.359 152.348,183.23 151.296,177.15 155.5,172.833 "/>
<path fill="#020202" d="M209.658,114.614c-1.818-3.577-5.514-6.852-6.381-10.245l-0.531-0.223c-1.336,3.336-1.191,7.325-0.168,10.95
	c1.107,4.703,3.424,8.368,4.508,12.993c0.193,0.892,0.354,1.775,0.459,2.742c6.955-5.049,13.369-10.808,15.182-19.897l-12.192,6.131
	C210.369,116.218,210.041,115.379,209.658,114.614"/>
<path fill="#020202" d="M206.521,72.831c0.578,1.658,0.758,3.546,1.549,5.248c0.51,0.668,0.959,1.356,1.43,2.057
	c1.314,1.814,2.677,3.432,4.421,3.886c0.606-2.797,1.065-5.733,0.534-8.912c-0.605-2.013-1.508-3.808-2.69-5.43
	c-1.849-2.56-4.357-4.637-7.396-6.198c-0.1-0.058-0.166-0.071-0.225-0.119l-0.402,0.093c0.156,0.24,0.303,0.517,0.459,0.796
	C205.578,66.875,205.99,69.652,206.521,72.831"/>
<path fill="#020202" d="M211.156,89.998c-2.654-3.01-7.051-5.257-8.736-8.326l-0.57-0.084c-0.461,3.565,0.674,7.394,2.572,10.646
	c2.248,4.277,5.406,7.249,7.611,11.456c0.409,0.813,0.785,1.631,1.127,2.54c5.476-6.627,10.246-13.806,9.73-23.059l-10.275,8.981
	C212.246,91.373,211.717,90.643,211.156,89.998"/>
<path fill="#020202" d="M23.916,114.614c1.817-3.577,5.514-6.852,6.379-10.245l0.532-0.223c1.337,3.336,1.192,7.325,0.169,10.95
	c-1.109,4.703-3.424,8.368-4.508,12.993c-0.193,0.892-0.354,1.775-0.459,2.742c-6.956-5.049-13.369-10.808-15.182-19.897
	l12.193,6.131C23.204,116.218,23.533,115.379,23.916,114.614"/>
<path fill="#020202" d="M27.053,72.831c-0.578,1.658-0.759,3.546-1.549,5.248c-0.51,0.668-0.96,1.356-1.431,2.057
	c-1.314,1.814-2.677,3.432-4.421,3.886c-0.605-2.797-1.064-5.733-0.533-8.912c0.605-2.013,1.507-3.808,2.689-5.43
	c1.849-2.56,4.358-4.637,7.396-6.198c0.1-0.058,0.166-0.071,0.223-0.119l0.404,0.093c-0.157,0.24-0.303,0.517-0.46,0.796
	C27.995,66.875,27.583,69.652,27.053,72.831"/>
<path fill="#020202" d="M22.418,89.998c2.653-3.01,7.049-5.257,8.736-8.326l0.57-0.084c0.461,3.565-0.674,7.394-2.572,10.646
	c-2.248,4.277-5.406,7.249-7.611,11.456c-0.41,0.813-0.785,1.631-1.128,2.54c-5.476-6.627-10.246-13.806-9.731-23.059l10.277,8.981
	C21.328,91.373,21.856,90.643,22.418,89.998"/>
<path fill="#020202" d="M190.055,155.771c-0.916-0.018-1.783-0.026-2.638,0.015c3.211-4.571,2.29-10.163,4.058-15.119l-0.017-0.219
	c-5.329,2.008-8.124,6.701-10.731,11.657c-1.86,3.592-3.683,7.272-6.338,9.993c1.108,0.08,2.152,0.229,3.233,0.389
	c1.122,0.164,2.274,0.386,3.435,0.691c2.308,0.136,4.582,0.237,6.732,0.166c4.035-0.171,7.795-0.854,11.037-2.604
	c1.501-0.798,2.902-1.851,4.131-3.161c-0.949-0.154-1.992-0.342-3.027-0.524C196.664,156.5,193.23,155.93,190.055,155.771"/>
<path fill="#020202" d="M203.055,140.198c-1.494-5.036-4.272-10.122-3.865-15.642l-0.142-0.219l-0.374,0.165
	c-0.045,0.035-0.098,0.107-0.102,0.145c-0.291,0.5-0.6,0.785-1.135,1.3c-3.807,6.707-3.23,14.779-1.276,21.92
	c0.321,1.177,0.653,2.295,1.063,3.426c3.422-2.676,7.644-3.359,11.44-5.307c0.342-0.207,0.677-0.369,1.028-0.582
	c3.66-2.642,5.888-7.007,6.843-11.184c-2.373,0.757-4.7,1.368-6.876,2.188C207.316,137.254,205.053,138.396,203.055,140.198"/>
<path fill="#020202" d="M43.582,155.771c0.916-0.018,1.783-0.026,2.638,0.015c-3.211-4.571-2.29-10.163-4.058-15.119l0.017-0.219
	c5.329,2.008,8.124,6.701,10.731,11.657c1.861,3.592,3.683,7.272,6.339,9.993c-1.109,0.08-2.153,0.229-3.234,0.389
	c-1.122,0.164-2.274,0.386-3.435,0.691c-2.307,0.136-4.581,0.237-6.732,0.166c-4.035-0.171-7.795-0.854-11.037-2.604
	c-1.501-0.798-2.902-1.851-4.131-3.161c0.949-0.154,1.992-0.342,3.028-0.524C36.973,156.5,40.406,155.93,43.582,155.771"/>
<path fill="#020202" d="M30.582,140.198c1.494-5.036,4.273-10.122,3.865-15.642l0.142-0.219l0.374,0.165
	c0.045,0.035,0.098,0.107,0.102,0.145c0.291,0.5,0.6,0.785,1.135,1.3c3.806,6.707,3.23,14.779,1.276,21.92
	c-0.321,1.177-0.653,2.295-1.063,3.426c-3.422-2.676-7.644-3.359-11.441-5.307c-0.342-0.207-0.677-0.369-1.029-0.582
	c-3.66-2.642-5.887-7.007-6.842-11.184c2.373,0.757,4.7,1.368,6.876,2.188C26.32,137.254,28.584,138.396,30.582,140.198"/>
</svg>
