<?xml version="1.0" encoding="utf-8"?>
<!-- Generator: Adobe Illustrator 16.0.0, SVG Export Plug-In . SVG Version: 6.00 Build 0)  -->
<!DOCTYPE svg PUBLIC "-//W3C//DTD SVG 1.1//EN" "http://www.w3.org/Graphics/SVG/1.1/DTD/svg11.dtd">
<svg version="1.1" id="Layer_1" xmlns="http://www.w3.org/2000/svg" xmlns:xlink="http://www.w3.org/1999/xlink" x="0px" y="0px"
	 width="240px" height="195px" viewBox="0 0 240 195" enable-background="new 0 0 240 195" xml:space="preserve">
<path fill="none" d="M78.63-2257.76"/>
<path fill="none" d="M78.63,987.837"/>
<path fill="none" d="M51.764,1616.837"/>
<path fill="none" d="M51.764-1628.76"/>
<line fill="#929497" x1="1530.52" y1="-66.557" x2="1530.52" y2="-65.807"/>
<line fill="#929497" x1="-611.484" y1="-65.807" x2="-611.484" y2="-66.557"/>
<path fill="#FDD00F" d="M187.688,93.303c-10.15-32.986-1.588-41.101,0.215-42.339h-67.617H51.804
	c1.803,1.238,10.365,9.353,0.215,42.339c-14.918,48.481,55.285,74.915,67.834,79.936c0.137-0.055,0.283-0.112,0.433-0.172
	C133.922,167.639,202.441,141.257,187.688,93.303"/>
<g opacity="0.6">
	<g>
		<g>
			<defs>
				<rect id="SVGID_1_" x="119.779" y="50.96" width="69.471" height="122.101"/>
			</defs>
			<clipPath id="SVGID_2_">
				<use xlink:href="#SVGID_1_"  overflow="visible"/>
			</clipPath>
			<path clip-path="url(#SVGID_2_)" fill="#CDA72C" d="M187.186,93.303c-10.149-32.986-1.588-41.101,0.215-42.339h-67.616v122.103
				C133.42,167.639,201.939,141.257,187.186,93.303"/>
		</g>
	</g>
</g>
<g opacity="0.4">
	<g>
		<g>
			<defs>
				<rect id="SVGID_3_" x="49.95" y="5.19" width="139.81" height="168.05"/>
			</defs>
			<clipPath id="SVGID_4_">
				<use xlink:href="#SVGID_3_"  overflow="visible"/>
			</clipPath>
			<path clip-path="url(#SVGID_4_)" fill="#FFFFFF" d="M119.853,19.247c12.872,6.204,32.308,10.53,54.446,12.167v14.542
				c-1.518,2.447-2.945,5.632-3.908,9.729c-2.504,10.653-1.121,24.676,4.109,41.677c2.328,7.567,1.855,14.6-1.445,21.499
				c-3.051,6.373-8.518,12.725-16.25,18.875c-12.736,10.132-28.211,17.049-36.952,20.637c-8.742-3.588-24.216-10.505-36.952-20.637
				c-7.732-6.15-13.201-12.502-16.251-18.875c-3.302-6.898-3.774-13.932-1.445-21.499c5.231-17.001,6.613-31.023,4.109-41.677
				c-0.964-4.097-2.39-7.281-3.909-9.729V31.414C87.543,29.777,106.98,25.451,119.853,19.247 M119.853,5.186
				c-1.728,0-3.453,0.347-4.796,1.037c-9.941,5.12-29.271,10.587-57.983,11.864c-3.017,0.134-5.465,2.57-5.465,5.589v27.161
				c0,0,11.263,7.192,0.409,42.466c-14.918,48.482,55.285,74.915,67.835,79.935c12.549-5.02,82.75-31.451,67.834-79.935
				c-10.854-35.273,0.408-42.466,0.408-42.466V23.676c0-3.019-2.447-5.455-5.465-5.589c-28.713-1.276-48.041-6.744-57.984-11.864
				C123.305,5.532,121.578,5.186,119.853,5.186"/>
		</g>
	</g>
</g>
<path fill="#191818" d="M188.096,23.676c0-3.02-2.449-5.455-5.465-5.589c-28.712-1.276-48.042-6.744-57.984-11.865
	c-2.684-1.382-6.903-1.382-9.589,0c-9.941,5.121-29.271,10.588-57.982,11.865c-3.018,0.134-5.467,2.569-5.467,5.589v27.161
	c0,0,0.07,0.041,0.195,0.127h136.099c0.125-0.086,0.193-0.127,0.193-0.127V23.676z"/>
<path fill="#191818" d="M119.853,13.552c0.526,0,0.894,0.091,1.006,0.13c13.13,6.748,34.478,11.32,58.872,12.639v21.295
	c-1.498,2.068-3.057,5.072-4.053,9.313c-2.281,9.702-0.932,22.771,4.014,38.836c5.105,16.601-1.272,31.72-19.506,46.222
	c-14.389,11.443-31.922,18.868-40.333,22.248c-8.413-3.38-25.946-10.805-40.333-22.248c-18.232-14.502-24.613-29.621-19.506-46.222
	c4.943-16.065,6.295-29.134,4.014-38.836c-0.997-4.24-2.555-7.243-4.053-9.313V26.32c24.393-1.318,45.742-5.891,58.871-12.639
	C118.959,13.643,119.325,13.552,119.853,13.552 M119.853,5.186c-1.728,0-3.453,0.346-4.796,1.037
	c-9.941,5.12-29.271,10.587-57.983,11.864c-3.017,0.134-5.465,2.57-5.465,5.589v27.161c0,0,11.263,7.192,0.409,42.466
	c-14.918,48.482,55.285,74.915,67.835,79.935c12.549-5.02,82.75-31.451,67.834-79.935c-10.854-35.273,0.408-42.466,0.408-42.466
	V23.676c0-3.019-2.447-5.455-5.465-5.589c-28.713-1.276-48.041-6.744-57.984-11.864C123.305,5.531,121.578,5.186,119.853,5.186"/>
<path fill="#FFFFFF" d="M96.293,39.332l2.438-2.589c1.054,1.384,2.469,2.168,4.185,2.168c1.927,0,3.041-1.478,3.041-3.162
	c0-1.987-1.054-3.161-2.86-3.161c-1.354,0-2.377,0.482-3.312,1.656l-2.92-0.783v-11.41h12.042v3.554h-8.008v5.147
	c0.783-0.963,2.138-1.656,3.673-1.656c3.041,0,5.479,2.378,5.479,6.533c0,4.034-2.74,6.864-7.015,6.864
	C99.936,42.493,97.799,41.349,96.293,39.332"/>
<path fill="#FFFFFF" d="M111.975,32.106c0-5.18,2.138-10.355,7.105-10.355c4.997,0,7.105,5.177,7.105,10.355
	c0,5.146-2.078,10.387-7.105,10.387C114.112,42.493,111.975,37.254,111.975,32.106 M122.092,32.106c0-3.885-0.664-6.773-3.012-6.773
	c-2.318,0-2.98,2.89-2.98,6.773c0,3.854,0.662,6.805,2.98,6.805C121.428,38.911,122.092,35.961,122.092,32.106"/>
<path fill="#FFFFFF" d="M128.141,32.106c0-5.18,2.137-10.355,7.104-10.355c4.998,0,7.104,5.177,7.104,10.355
	c0,5.146-2.078,10.387-7.104,10.387C130.275,42.493,128.141,37.254,128.141,32.106 M138.256,32.106c0-3.885-0.662-6.773-3.012-6.773
	c-2.318,0-2.98,2.89-2.98,6.773c0,3.854,0.662,6.805,2.98,6.805C137.594,38.911,138.256,35.961,138.256,32.106"/>
<path fill="#191818" d="M154.469,109.811c-2.639,0-6.695,0.224-6.695,2.862v15.822c0,2.64,4.058,2.863,6.695,2.863
	c2.641,0,6.695-0.225,6.695-2.863v-15.822C161.164,110.033,157.109,109.811,154.469,109.811"/>
<path fill="#191818" d="M84.734,109.811c-2.641,0-6.695,0.224-6.695,2.862v15.822c0,2.64,4.055,2.863,6.695,2.863
	c2.639,0,6.694-0.225,6.694-2.863v-15.822C91.429,110.033,87.373,109.811,84.734,109.811"/>
<path fill="#FDD00F" d="M78.955,86.321l-4.881,9.532l4.962,20.692c0.128,1.675,1.525,2.994,3.233,2.994
	c6.492,0,12.064,2.508,18.557,2.508c1.627,0,2.971-1.198,3.206-2.761h31.095c0.234,1.563,1.58,2.761,3.207,2.761
	c6.492,0,12.064-2.508,18.557-2.508c1.627,0,2.971-1.198,3.205-2.762h0.016l5.017-20.927l-4.879-9.531L78.955,86.321L78.955,86.321z
	"/>
<path fill="#FFFFFF" d="M160.111,86.053h-9.592l-3.903-10.063c-0.38-2.744-2.935-4.97-5.706-4.97H98.292
	c-2.771,0-5.325,2.227-5.705,4.97l-3.903,10.063h-9.592l-0.138,0.27h81.294L160.111,86.053z"/>
<rect x="108.057" y="87.324" fill="#FFFFFF" width="21.573" height="33.363"/>
<path fill="#FFFFFF" d="M96.568,103.196c0,3.937-3.191,7.127-7.126,7.127c-3.937,0-7.127-3.19-7.127-7.127s3.19-7.127,7.127-7.127
	C93.377,96.069,96.568,99.261,96.568,103.196"/>
<path fill="#191818" d="M89.441,111.703c-4.689,0-8.507-3.815-8.507-8.507c0-4.689,3.817-8.507,8.507-8.507s8.508,3.816,8.508,8.507
	C97.949,107.888,94.132,111.703,89.441,111.703 M89.441,97.449c-3.169,0-5.746,2.578-5.746,5.747s2.577,5.747,5.746,5.747
	c3.17,0,5.747-2.578,5.747-5.747S92.611,97.449,89.441,97.449"/>
<path fill="#191818" d="M91.668,100.864l-4.408,4.691c0.58,0.572,1.379,0.927,2.258,0.927c1.779,0,3.222-1.442,3.222-3.222
	C92.739,102.309,92.325,101.454,91.668,100.864"/>
<path fill="#FFFFFF" d="M156.018,103.196c0,3.937-3.19,7.127-7.127,7.127c-3.938,0-7.127-3.19-7.127-7.127s3.189-7.127,7.127-7.127
	C152.826,96.069,156.018,99.261,156.018,103.196"/>
<path fill="#191818" d="M148.891,111.703c-4.69,0-8.508-3.815-8.508-8.507c0-4.689,3.816-8.507,8.508-8.507
	c4.689,0,8.506,3.816,8.506,8.507C157.396,107.888,153.58,111.703,148.891,111.703 M148.891,97.449c-3.17,0-5.748,2.578-5.748,5.747
	s2.578,5.747,5.748,5.747c3.168,0,5.745-2.578,5.745-5.747S152.059,97.449,148.891,97.449"/>
<path fill="#191818" d="M151.117,100.864l-4.41,4.691c0.582,0.572,1.379,0.927,2.26,0.927c1.777,0,3.221-1.442,3.221-3.222
	C152.188,102.309,151.773,101.454,151.117,100.864"/>
<path fill="#FFFFFF" d="M134.287,105.025c0-2.313-1.875-4.188-4.188-4.188h-22.236c-2.312,0-4.187,1.875-4.187,4.188
	s1.875,4.188,4.187,4.188H130.1C132.412,109.213,134.287,107.339,134.287,105.025"/>
<path fill="#191818" d="M130.102,110.593h-22.235c-3.07,0-5.566-2.498-5.566-5.566c0-3.069,2.496-5.566,5.566-5.566h22.235
	c3.068,0,5.566,2.498,5.566,5.566S133.17,110.593,130.102,110.593 M107.865,102.219c-1.549,0-2.808,1.259-2.808,2.808
	s1.259,2.807,2.808,2.807H130.1c1.549,0,2.809-1.258,2.809-2.807s-1.26-2.808-2.809-2.808H107.865z"/>
<rect x="86.232" y="84.071" fill="#191818" width="65.473" height="4"/>
<path fill="#191819" d="M155.461,84.577c-1.502,1.502-3.938,1.502-5.439,0s-1.502-3.938,0-5.44s5.711-3.275,7.213-1.772
	C158.736,78.866,156.963,83.075,155.461,84.577"/>
<path fill="#191819" d="M83.594,84.577c1.502,1.502,3.938,1.502,5.438,0c1.502-1.502,1.502-3.938,0-5.44
	c-1.501-1.502-5.71-3.275-7.214-1.772C80.316,78.866,82.091,83.075,83.594,84.577"/>
<rect x="123.24" y="69.524" transform="matrix(-0.8538 -0.5207 0.5207 -0.8538 190.2998 209.8375)" fill="#191818" width="2.759" height="17.339"/>
<rect x="131.015" y="69.524" transform="matrix(-0.8538 -0.5207 0.5207 -0.8538 204.7134 213.886)" fill="#191818" width="2.759" height="17.339"/>
<path fill="#191818" d="M138.333,124.05c-1.956,0-3.714-1.109-4.61-2.762h-28.285c-0.897,1.651-2.654,2.762-4.611,2.762
	c-3.453,0-6.621-0.659-9.687-1.296c-2.998-0.625-5.831-1.213-8.87-1.213c-2.664,0-4.918-2.035-5.212-4.664l-5.101-21.275
	l5.912-11.548h9.445l3.33-8.588c0.631-3.634,3.941-6.446,7.647-6.446h42.618c3.707,0,7.017,2.813,7.647,6.447l3.33,8.587h9.444
	l5.911,11.548l-5.557,23.18h-0.187c-0.896,1.65-2.655,2.761-4.612,2.761c-3.039,0-5.873,0.588-8.869,1.213
	C144.955,123.391,141.785,124.05,138.333,124.05 M102.309,117.288h34.541l0.256,1.702c0.09,0.604,0.619,1.06,1.229,1.06
	c3.04,0,5.873-0.589,8.872-1.214c3.063-0.637,6.231-1.295,9.685-1.295c0.609,0,1.139-0.455,1.229-1.058l0.254-1.703h0.16
	l4.477-18.675l-4.122-8.053h-9.736l-4.484-11.56l-0.032-0.23c-0.243-1.758-1.948-3.244-3.724-3.244H98.294
	c-1.775,0-3.481,1.486-3.724,3.245l-0.033,0.23l-4.482,11.559h-9.738l-4.123,8.053l4.838,20.287c0.051,0.645,0.594,1.147,1.24,1.147
	c3.451,0,6.62,0.658,9.686,1.295c2.998,0.625,5.83,1.214,8.871,1.214c0.609,0,1.137-0.455,1.228-1.059L102.309,117.288z"/>
<polygon fill="#FFFFFF" points="90.798,29.677 83.34,28.546 80.019,21.448 76.699,28.546 69.24,29.677 74.629,35.211 73.281,43.006 
	80.019,39.325 86.756,43.006 85.408,35.211 "/>
<polygon fill="#FFFFFF" points="170.465,29.677 163.006,28.546 159.686,21.448 156.365,28.546 148.906,29.677 154.296,35.211 
	152.948,43.006 159.686,39.325 166.422,43.006 165.075,35.211 "/>
<path fill="#020202" d="M194.218,143.942c-0.916-0.018-1.782-0.026-2.638,0.015c3.211-4.571,2.289-10.163,4.059-15.119l-0.018-0.219
	c-5.33,2.008-8.125,6.699-10.73,11.656c-1.861,3.592-3.684,7.273-6.34,9.993c1.109,0.08,2.152,0.229,3.234,0.39
	c1.121,0.162,2.273,0.386,3.436,0.69c2.305,0.136,4.58,0.238,6.73,0.167c4.035-0.171,7.795-0.854,11.037-2.605
	c1.502-0.797,2.902-1.85,4.131-3.16c-0.949-0.154-1.992-0.342-3.027-0.524C200.826,144.671,197.393,144.101,194.218,143.942"/>
<path fill="#020202" d="M207.217,126.111c-1.494-5.036-4.273-10.122-3.863-15.642l-0.144-0.219l-0.374,0.164
	c-0.044,0.036-0.097,0.108-0.1,0.145c-0.293,0.5-0.603,0.786-1.137,1.301c-3.807,6.707-3.23,14.779-1.275,21.92
	c0.32,1.177,0.652,2.296,1.063,3.425c3.422-2.676,7.645-3.358,11.442-5.306c0.342-0.207,0.677-0.37,1.03-0.582
	c3.657-2.642,5.885-7.008,6.841-11.184c-2.373,0.757-4.701,1.367-6.876,2.187C211.479,123.166,209.216,124.309,207.217,126.111"/>
<path fill="#020202" d="M31.133,103.224c0.117,1.753,0.689,3.562,0.63,5.437c-0.208,0.813-0.353,1.625-0.511,2.452
	c-0.5,2.185-1.121,4.205-2.549,5.305c-1.65-2.336-3.224-4.857-3.979-7.992c-0.229-2.088-0.103-4.092,0.351-6.048
	c0.699-3.078,2.195-5.973,4.379-8.6c0.069-0.092,0.125-0.131,0.158-0.196l0.409-0.074c-0.052,0.283-0.078,0.595-0.112,0.913
	C29.67,97.374,30.377,100.09,31.133,103.224"/>
<path fill="#020202" d="M208.963,103.224c-0.117,1.753-0.689,3.562-0.631,5.437c0.209,0.813,0.354,1.625,0.514,2.452
	c0.498,2.185,1.118,4.205,2.547,5.305c1.65-2.336,3.224-4.857,3.979-7.992c0.229-2.088,0.104-4.092-0.352-6.048
	c-0.697-3.078-2.193-5.973-4.377-8.6c-0.07-0.092-0.127-0.131-0.158-0.196l-0.408-0.074c0.051,0.283,0.076,0.595,0.111,0.913
	C210.427,97.374,209.719,100.09,208.963,103.224"/>
<path fill="#020202" d="M45.487,143.942c0.915-0.018,1.782-0.026,2.638,0.015c-3.212-4.571-2.291-10.163-4.059-15.119l0.018-0.219
	c5.329,2.008,8.124,6.699,10.73,11.656c1.861,3.592,3.684,7.273,6.34,9.993c-1.109,0.08-2.153,0.229-3.234,0.39
	c-1.122,0.162-2.275,0.386-3.436,0.69c-2.305,0.136-4.58,0.238-6.732,0.167c-4.035-0.171-7.794-0.854-11.036-2.605
	c-1.502-0.797-2.901-1.85-4.131-3.16c0.948-0.154,1.992-0.342,3.028-0.524C38.877,144.671,42.311,144.101,45.487,143.942"/>
<path fill="#020202" d="M32.487,126.111c1.493-5.036,4.274-10.122,3.864-15.642l0.143-0.219l0.374,0.164
	c0.044,0.036,0.097,0.108,0.101,0.145c0.293,0.5,0.602,0.786,1.137,1.301c3.805,6.707,3.229,14.779,1.274,21.92
	c-0.319,1.177-0.653,2.296-1.062,3.425c-3.424-2.676-7.645-3.358-11.443-5.306c-0.342-0.207-0.677-0.37-1.029-0.582
	c-3.66-2.642-5.886-7.008-6.842-11.184c2.373,0.757,4.701,1.367,6.877,2.187C28.227,123.166,30.488,124.309,32.487,126.111"/>
<path fill="#1A1A19" d="M119.826,177.57c-3.511-1.403-11.533-5.484-20.941-10.254v14.697c11.416,7.015,20.568,11.113,20.568,11.113
	l0.398-0.001l0.398,0.001c0,0,9.153-4.1,20.567-11.113v-14.726c-9.063,4.597-16.847,8.632-20.561,10.109
	C120.107,177.458,119.963,177.517,119.826,177.57"/>
<path fill="#1A1A19" d="M66.556,156.647c8.118,9.568,19.146,17.857,29.014,24.17v-15.225c-9.688-5.161-20.401-12.017-29.014-20.575
	V156.647z"/>
<path fill="#1A1A19" d="M144.135,180.817c9.869-6.313,20.895-14.602,29.014-24.171v-11.686
	c-8.604,8.569-19.315,15.433-29.014,20.602V180.817z"/>
</svg>
