<?xml version="1.0" encoding="utf-8"?>
<!-- Generator: Adobe Illustrator 16.0.0, SVG Export Plug-In . SVG Version: 6.00 Build 0)  -->
<!DOCTYPE svg PUBLIC "-//W3C//DTD SVG 1.1//EN" "http://www.w3.org/Graphics/SVG/1.1/DTD/svg11.dtd">
<svg version="1.1" id="Layer_1" xmlns="http://www.w3.org/2000/svg" xmlns:xlink="http://www.w3.org/1999/xlink" x="0px" y="0px"
	 width="612px" height="792px" viewBox="0 0 612 792" enable-background="new 0 0 612 792" xml:space="preserve">
<path fill="none" d="M346.63,60"/>
<path fill="none" d="M346.63,3305.597"/>
<line fill="none" x1="215.63" y1="2954.837" x2="215.63" y2="-290.76"/>
<path fill="#FECF0A" d="M370.266,400.303c-10.15-32.987-1.587-41.101,0.215-42.339h-67.617h-68.481
	c1.804,1.238,10.366,9.352,0.216,42.339c-14.917,48.481,55.285,74.915,67.834,79.935c0.137-0.054,0.282-0.112,0.432-0.172
	C316.501,474.639,385.021,448.257,370.266,400.303"/>
<g opacity="0.6">
	<g>
		<defs>
			<rect id="SVGID_1_" x="302.609" y="357.21" width="69.471" height="122.101"/>
		</defs>
		<clipPath id="SVGID_2_">
			<use xlink:href="#SVGID_1_"  overflow="visible"/>
		</clipPath>
		<path clip-path="url(#SVGID_2_)" fill="#CDA72C" d="M370.016,399.551c-10.15-32.988-1.588-41.101,0.215-42.339h-67.617v122.101
			C316.25,473.887,384.77,447.505,370.016,399.551"/>
	</g>
</g>
<g opacity="0.4">
	<g>
		<defs>
			<rect id="SVGID_3_" x="232.529" y="312.19" width="139.811" height="168.05"/>
		</defs>
		<clipPath id="SVGID_4_">
			<use xlink:href="#SVGID_3_"  overflow="visible"/>
		</clipPath>
		<path clip-path="url(#SVGID_4_)" fill="#FFFFFF" d="M302.432,326.247c12.873,6.204,32.309,10.53,54.447,12.167v14.542
			c-1.518,2.447-2.945,5.632-3.908,9.729c-2.505,10.653-1.121,24.675,4.108,41.675c2.329,7.569,1.856,14.602-1.444,21.5
			c-3.051,6.373-8.518,12.725-16.251,18.875c-12.737,10.132-28.211,17.049-36.952,20.637c-8.742-3.588-24.215-10.505-36.951-20.637
			c-7.733-6.15-13.201-12.502-16.252-18.875c-3.301-6.898-3.773-13.931-1.445-21.5c5.231-17,6.615-31.021,4.109-41.675
			c-0.963-4.097-2.39-7.282-3.908-9.729v-14.542C270.123,336.777,289.561,332.451,302.432,326.247 M302.432,312.186
			c-1.727,0-3.453,0.347-4.795,1.037c-9.941,5.12-29.271,10.588-57.984,11.864c-3.016,0.134-5.465,2.57-5.465,5.589v27.161
			c0,0,11.264,7.192,0.41,42.466c-14.917,48.482,55.285,74.915,67.834,79.934c12.549-5.019,82.752-31.451,67.834-79.934
			c-10.854-35.274,0.41-42.466,0.41-42.466v-27.161c0-3.019-2.449-5.455-5.465-5.589c-28.713-1.276-48.042-6.744-57.984-11.864
			C305.885,312.532,304.158,312.186,302.432,312.186"/>
	</g>
</g>
<path fill="#191818" d="M370.676,330.676c0-3.02-2.449-5.455-5.465-5.589c-28.713-1.276-48.042-6.744-57.984-11.865
	c-2.685-1.382-6.904-1.382-9.59,0c-9.941,5.121-29.271,10.589-57.984,11.865c-3.016,0.134-5.465,2.569-5.465,5.589v27.161
	c0,0,0.069,0.041,0.194,0.127H370.48c0.125-0.086,0.195-0.127,0.195-0.127V330.676z"/>
<path fill="#FFFFFF" d="M287.361,349.132v-3.251c7.346-7.135,8.881-8.731,8.881-11.019c0-1.535-1.175-2.529-2.68-2.529
	c-1.775,0-3.191,0.813-4.275,2.258l-2.408-2.529c1.627-2.168,4.004-3.311,6.744-3.311c3.884,0,6.713,2.348,6.713,6.081
	c0,3.041-2.047,5.63-7.014,10.748h7.104v3.552H287.361z"/>
<polygon fill="#FFFFFF" points="312.828,349.132 308.191,341.273 306.776,343.503 306.776,349.132 302.742,349.132 302.742,329.051 
	306.776,329.051 306.776,338.174 312.437,329.051 317.133,329.051 310.721,338.505 317.586,349.132 "/>
<g>
	<defs>
		<path id="SVGID_5_" d="M297.637,313.222c-9.941,5.122-29.271,10.59-57.982,11.866c-3.018,0.132-5.467,2.568-5.467,5.588v27.161
			c0,0,11.264,7.192,0.41,42.467c-14.918,48.48,55.284,74.914,67.834,79.934c12.549-5.02,82.752-31.453,67.834-79.934
			c-10.854-35.274,0.411-42.467,0.411-42.467v-27.161c0-3.02-2.45-5.456-5.467-5.588c-28.712-1.276-48.041-6.744-57.981-11.866
			c-1.344-0.69-3.069-1.036-4.797-1.036C300.706,312.186,298.979,312.531,297.637,313.222"/>
	</defs>
	<clipPath id="SVGID_6_">
		<use xlink:href="#SVGID_5_"  overflow="visible"/>
	</clipPath>
	<polygon clip-path="url(#SVGID_6_)" fill="#FFFFFF" points="381.379,393.403 381.379,399.291 302.889,418.912 302.889,401.252 
		376.938,393.848 	"/>
	<polygon clip-path="url(#SVGID_6_)" fill="#FFFFFF" points="223.963,393.403 223.963,399.291 302.452,418.912 302.452,401.252 
		228.402,393.848 	"/>
	<polygon clip-path="url(#SVGID_6_)" fill="#FECF0A" points="283.744,405.988 224.83,396.306 224.83,398.932 283.908,414.357 	"/>
	<polygon clip-path="url(#SVGID_6_)" fill="#FECF0A" points="321.488,405.988 380.403,396.306 380.403,398.932 321.324,414.357 	"/>
	<polygon clip-path="url(#SVGID_6_)" fill="#FECF0A" points="308.592,393.403 296.314,393.403 300.49,369.486 304.414,369.486 	"/>
	<path clip-path="url(#SVGID_6_)" fill="#191818" d="M310.382,394.908h-15.858l4.701-26.927h6.454L310.382,394.908z
		 M298.105,391.898h8.694l-3.649-20.907h-1.396L298.105,391.898z"/>
	<path clip-path="url(#SVGID_6_)" fill="#191818" d="M300.881,421.483v-22.047l82.504-8.251v9.672L300.881,421.483z
		 M304.895,403.068v13.273l74.477-18.619v-2.102L304.895,403.068z"/>
	<path clip-path="url(#SVGID_6_)" fill="#FFFFFF" d="M341.455,414.814c0,3.251,2.637,5.887,5.887,5.887
		c3.252,0,5.888-2.636,5.888-5.887c0-3.252-2.636-5.888-5.888-5.888C344.092,408.927,341.455,411.563,341.455,414.814"/>
	<path clip-path="url(#SVGID_6_)" fill="#191818" d="M347.342,422.205c-4.076,0-7.392-3.315-7.392-7.391
		c0-4.076,3.315-7.393,7.392-7.393s7.393,3.316,7.393,7.393C354.734,418.89,351.418,422.205,347.342,422.205 M347.342,410.432
		c-2.416,0-4.382,1.967-4.382,4.383s1.966,4.382,4.382,4.382s4.383-1.966,4.383-4.382S349.758,410.432,347.342,410.432"/>
	<path clip-path="url(#SVGID_6_)" fill="#191818" d="M304.459,421.482l-82.504-20.625v-9.672l82.504,8.251V421.482z
		 M225.969,397.724l74.477,18.619v-13.274l-74.477-7.448V397.724z"/>
	<path clip-path="url(#SVGID_6_)" fill="#191818" d="M300.721,396.858v-9.083l24.887-2.489v5.35L300.721,396.858z M304.734,391.407
		v0.311l2.066-0.517L304.734,391.407z"/>
	<path clip-path="url(#SVGID_6_)" fill="#191818" d="M304.618,396.858l-24.886-6.222v-5.351l24.886,2.49V396.858z M298.539,391.201
		l2.065,0.517v-0.31L298.539,391.201z"/>
	<path clip-path="url(#SVGID_6_)" fill="#FECF0A" d="M324.037,409.102c0,11.921-9.664,21.585-21.584,21.585
		c-11.922,0-21.586-9.664-21.586-21.585s9.664-21.585,21.586-21.585C314.373,387.517,324.037,397.181,324.037,409.102"/>
	<path clip-path="url(#SVGID_6_)" fill="#FFFFFF" d="M302.453,387.517c-11.922,0-21.586,9.664-21.586,21.585
		s9.664,21.584,21.586,21.584c0.026,0,0.053-0.002,0.081-0.002v-43.165C302.506,387.519,302.479,387.517,302.453,387.517"/>
	<path clip-path="url(#SVGID_6_)" fill="#191818" d="M302.453,432.692c-13.01,0-23.593-10.583-23.593-23.591
		c0-13.008,10.583-23.592,23.593-23.592c13.008,0,23.59,10.584,23.59,23.592C326.043,422.109,315.461,432.692,302.453,432.692
		 M302.453,389.523c-10.797,0-19.578,8.783-19.578,19.578c0,10.796,8.781,19.578,19.578,19.578c10.795,0,19.576-8.782,19.576-19.578
		C322.029,398.307,313.248,389.523,302.453,389.523"/>
	<path clip-path="url(#SVGID_6_)" fill="#FFFFFF" d="M263.885,415.817c0,3.251-2.636,5.888-5.887,5.888s-5.887-2.637-5.887-5.888
		s2.636-5.887,5.887-5.887S263.885,412.566,263.885,415.817"/>
	<path clip-path="url(#SVGID_6_)" fill="#191818" d="M257.998,422.205c-4.076,0-7.392-3.315-7.392-7.391
		c0-4.076,3.315-7.393,7.392-7.393s7.393,3.316,7.393,7.393C265.391,418.89,262.074,422.205,257.998,422.205 M257.998,410.432
		c-2.416,0-4.382,1.967-4.382,4.383s1.966,4.382,4.382,4.382s4.383-1.966,4.383-4.382S260.414,410.432,257.998,410.432"/>
	<polygon clip-path="url(#SVGID_6_)" fill="#191818" points="287.487,404.576 291.443,400.62 299.355,402.598 299.355,408.531 	"/>
	<polygon clip-path="url(#SVGID_6_)" fill="#191818" points="317.966,404.576 314.01,400.62 306.098,402.598 306.098,408.531 	"/>
	<path clip-path="url(#SVGID_6_)" fill="#191818" d="M323.659,429.943c-1.738,0-4.407,0.147-4.407,1.886v10.414
		c0,1.737,2.669,1.885,4.407,1.885c1.737,0,1.944-0.147,1.944-1.885v-10.414C325.604,430.091,325.396,429.943,323.659,429.943"/>
	<path clip-path="url(#SVGID_6_)" fill="#191818" d="M329.238,429.943c-1.736,0-1.945,0.147-1.945,1.886v10.414
		c0,1.737,0.209,1.885,1.945,1.885c1.737,0,4.407-0.147,4.407-1.885v-10.414C333.646,430.091,330.976,429.943,329.238,429.943"/>
	<path clip-path="url(#SVGID_6_)" fill="#191818" d="M275.998,429.943c-1.738,0-4.408,0.147-4.408,1.886v10.414
		c0,1.737,2.67,1.885,4.408,1.885c1.736,0,1.945-0.147,1.945-1.885v-10.414C277.943,430.091,277.734,429.943,275.998,429.943"/>
	<path clip-path="url(#SVGID_6_)" fill="#191818" d="M281.577,429.943c-1.737,0-1.945,0.147-1.945,1.886v10.414
		c0,1.737,0.208,1.885,1.945,1.885s4.407-0.147,4.407-1.885v-10.414C285.984,430.091,283.314,429.943,281.577,429.943"/>
	<path clip-path="url(#SVGID_6_)" fill="#191818" d="M285.762,439.181l-2.08-3.433c3.035-1.843,7.31-5.471,7.31-7.77h4.014
		C295.005,433.317,287.305,438.246,285.762,439.181"/>
	<path clip-path="url(#SVGID_6_)" fill="#191818" d="M319.912,439.181c-1.543-0.935-9.244-5.863-9.244-11.202h4.014
		c0,2.283,4.361,5.985,7.309,7.768L319.912,439.181z"/>
</g>
<path fill="#191818" d="M302.432,320.552c0.527,0,0.895,0.091,1.006,0.13c13.131,6.748,34.479,11.32,58.873,12.638v21.295
	c-1.498,2.069-3.057,5.072-4.054,9.313c-2.28,9.702-0.931,22.77,4.013,38.836c5.107,16.6-1.272,31.719-19.505,46.221
	c-14.387,11.444-31.921,18.869-40.333,22.248c-8.412-3.379-25.945-10.804-40.332-22.248c-18.232-14.502-24.613-29.621-19.506-46.221
	c4.943-16.066,6.294-29.134,4.014-38.836c-0.998-4.241-2.556-7.243-4.054-9.313V333.32c24.394-1.318,45.743-5.89,58.872-12.638
	C301.538,320.643,301.904,320.552,302.432,320.552 M302.432,312.186c-1.727,0-3.453,0.346-4.795,1.037
	c-9.941,5.12-29.271,10.588-57.984,11.864c-3.016,0.134-5.465,2.57-5.465,5.589v27.161c0,0,11.264,7.192,0.41,42.466
	c-14.917,48.482,55.285,74.915,67.834,79.934c12.549-5.019,82.752-31.451,67.834-79.934c-10.854-35.274,0.41-42.466,0.41-42.466
	v-27.161c0-3.019-2.449-5.455-5.465-5.589c-28.713-1.276-48.042-6.744-57.984-11.864
	C305.885,312.531,304.158,312.186,302.432,312.186"/>
<polygon fill="#FFFFFF" points="273.377,336.669 265.92,335.539 262.598,328.44 259.278,335.539 251.819,336.669 257.209,342.204 
	255.861,349.999 262.598,346.317 269.335,349.999 267.988,342.204 "/>
<polygon fill="#FFFFFF" points="353.045,336.669 345.586,335.539 342.266,328.44 338.944,335.539 331.486,336.669 336.876,342.204 
	335.528,349.999 342.266,346.317 349.002,349.999 347.654,342.204 "/>
<polygon fill="#FFFFFF" points="354.746,490.362 302.453,504.546 250.16,488.857 250.16,461.337 302.453,477.024 354.746,461.337 
	"/>
<path fill="#010101" d="M302.452,505.469l-54.551-13.334V458.46l54.551,13.335l54.552-13.335v33.675L302.452,505.469z
	 M252.418,488.59l50.034,12.231l50.036-12.231v-24.378l-50.036,12.232l-50.034-12.232V488.59z"/>
<polygon fill="#010101" points="331.232,467.524 357.07,458.546 343.996,448.765 322.982,466.776 "/>
<polygon fill="#010101" points="273.631,467.524 247.795,458.546 260.867,448.765 281.882,466.776 "/>
<polygon fill="#010101" points="274.303,477.951 271.713,472.414 269.123,477.951 263.305,478.833 267.508,483.15 266.457,489.23 
	271.713,486.359 276.967,489.23 275.916,483.15 280.121,478.833 "/>
<polygon fill="#010101" points="304.989,484.027 302.131,477.917 299.271,484.027 292.852,485.001 297.49,489.766 296.331,496.477 
	302.131,493.308 307.93,496.477 306.771,489.766 311.41,485.001 "/>
<polygon fill="#FECF0A" points="335.327,477.951 332.736,472.414 330.146,477.951 324.329,478.833 328.533,483.15 327.482,489.23 
	332.736,486.359 337.992,489.23 336.941,483.15 341.145,478.833 "/>
<path fill="#010101" d="M395.303,420.614c-1.817-3.577-5.514-6.851-6.379-10.245l-0.532-0.223
	c-1.337,3.336-1.192,7.326-0.169,10.951c1.109,4.703,3.424,8.368,4.508,12.993c0.193,0.891,0.354,1.775,0.458,2.742
	c6.957-5.049,13.37-10.808,15.183-19.897l-12.193,6.13C396.015,422.218,395.685,421.379,395.303,420.614"/>
<path fill="#010101" d="M392.167,378.831c0.577,1.658,0.758,3.546,1.548,5.248c0.51,0.668,0.96,1.357,1.431,2.057
	c1.314,1.814,2.677,3.431,4.421,3.885c0.605-2.796,1.064-5.733,0.533-8.912c-0.605-2.012-1.507-3.807-2.689-5.429
	c-1.849-2.56-4.358-4.637-7.396-6.199c-0.1-0.057-0.166-0.071-0.223-0.119l-0.404,0.093c0.157,0.24,0.303,0.517,0.46,0.796
	C391.224,372.875,391.636,375.652,392.167,378.831"/>
<path fill="#010101" d="M396.801,395.998c-2.653-3.01-7.049-5.257-8.736-8.326l-0.57-0.084c-0.461,3.565,0.674,7.393,2.572,10.646
	c2.248,4.277,5.406,7.248,7.611,11.455c0.41,0.813,0.785,1.632,1.128,2.541c5.476-6.627,10.246-13.806,9.729-23.059l-10.275,8.98
	C397.891,397.373,397.362,396.643,396.801,395.998"/>
<path fill="#010101" d="M209.562,420.614c1.817-3.577,5.512-6.851,6.379-10.245l0.532-0.223c1.336,3.336,1.192,7.326,0.168,10.951
	c-1.108,4.703-3.424,8.368-4.508,12.993c-0.193,0.891-0.354,1.775-0.459,2.742c-6.955-5.049-13.369-10.808-15.182-19.897
	l12.194,6.13C208.85,422.218,209.178,421.379,209.562,420.614"/>
<path fill="#010101" d="M212.697,378.831c-0.579,1.658-0.758,3.546-1.549,5.248c-0.51,0.668-0.959,1.357-1.43,2.057
	c-1.314,1.814-2.677,3.431-4.421,3.885c-0.606-2.796-1.065-5.733-0.534-8.912c0.605-2.012,1.508-3.807,2.69-5.429
	c1.849-2.56,4.358-4.637,7.396-6.199c0.1-0.057,0.166-0.071,0.224-0.119l0.403,0.093c-0.158,0.24-0.303,0.517-0.461,0.796
	C213.641,372.875,213.229,375.652,212.697,378.831"/>
<path fill="#010101" d="M208.063,395.998c2.653-3.01,7.049-5.257,8.735-8.326l0.571-0.084c0.461,3.565-0.675,7.393-2.573,10.646
	c-2.248,4.277-5.406,7.248-7.611,11.455c-0.409,0.813-0.785,1.632-1.127,2.541c-5.476-6.627-10.246-13.806-9.731-23.059l10.276,8.98
	C206.973,397.373,207.502,396.643,208.063,395.998"/>
<path fill="#010101" d="M375.7,461.771c-0.916-0.017-1.783-0.026-2.638,0.015c3.211-4.571,2.289-10.163,4.058-15.119l-0.017-0.219
	c-5.33,2.008-8.125,6.701-10.731,11.657c-1.862,3.592-3.683,7.273-6.339,9.994c1.109,0.08,2.152,0.229,3.234,0.388
	c1.121,0.164,2.274,0.386,3.435,0.692c2.306,0.135,4.581,0.237,6.731,0.166c4.035-0.171,7.795-0.854,11.037-2.605
	c1.502-0.798,2.902-1.85,4.131-3.161c-0.949-0.154-1.992-0.342-3.027-0.524C382.309,462.5,378.875,461.93,375.7,461.771"/>
<path fill="#010101" d="M388.699,446.198c-1.494-5.036-4.273-10.122-3.863-15.641l-0.144-0.219l-0.374,0.165
	c-0.044,0.035-0.097,0.107-0.1,0.144c-0.293,0.5-0.602,0.786-1.137,1.3c-3.806,6.707-3.23,14.78-1.275,21.92
	c0.32,1.177,0.652,2.295,1.063,3.426c3.422-2.676,7.644-3.359,11.442-5.307c0.342-0.207,0.677-0.369,1.03-0.582
	c3.658-2.641,5.885-7.007,6.841-11.183c-2.373,0.757-4.701,1.368-6.876,2.187C392.961,443.254,390.698,444.396,388.699,446.198"/>
<path fill="#010101" d="M229.227,461.771c0.916-0.017,1.783-0.026,2.639,0.015c-3.211-4.571-2.291-10.163-4.059-15.119l0.018-0.219
	c5.328,2.008,8.123,6.701,10.73,11.657c1.861,3.592,3.684,7.273,6.34,9.994c-1.109,0.08-2.154,0.229-3.234,0.388
	c-1.123,0.164-2.275,0.386-3.436,0.692c-2.306,0.135-4.58,0.237-6.732,0.166c-4.034-0.171-7.795-0.854-11.037-2.605
	c-1.5-0.798-2.901-1.85-4.131-3.161c0.949-0.154,1.992-0.342,3.029-0.524C222.617,462.5,226.052,461.93,229.227,461.771"/>
<path fill="#010101" d="M216.227,446.198c1.495-5.036,4.274-10.122,3.865-15.641l0.143-0.219l0.373,0.165
	c0.045,0.035,0.098,0.107,0.102,0.144c0.292,0.5,0.601,0.786,1.136,1.3c3.806,6.707,3.229,14.78,1.276,21.92
	c-0.321,1.177-0.654,2.295-1.063,3.426c-3.423-2.676-7.644-3.359-11.442-5.307c-0.342-0.207-0.676-0.369-1.029-0.582
	c-3.66-2.641-5.887-7.007-6.842-11.183c2.373,0.757,4.701,1.368,6.877,2.187C211.966,443.254,214.229,444.396,216.227,446.198"/>
</svg>
