<?xml version="1.0" encoding="utf-8"?>
<!-- Generator: Adobe Illustrator 16.0.0, SVG Export Plug-In . SVG Version: 6.00 Build 0)  -->
<!DOCTYPE svg PUBLIC "-//W3C//DTD SVG 1.1//EN" "http://www.w3.org/Graphics/SVG/1.1/DTD/svg11.dtd">
<svg version="1.1" id="Layer_1" xmlns="http://www.w3.org/2000/svg" xmlns:xlink="http://www.w3.org/1999/xlink" x="0px" y="0px"
	 width="612px" height="792px" viewBox="0 0 612 792" enable-background="new 0 0 612 792" xml:space="preserve">
<path fill="none" d="M346.63,60"/>
<path fill="none" d="M346.63,3305.597"/>
<path fill="#FECF0A" d="M370.462,387.303c-10.15-32.987-1.587-41.101,0.215-42.339H303.06h-68.481
	c1.803,1.238,10.366,9.352,0.216,42.339c-14.918,48.481,55.285,74.915,67.834,79.935c0.136-0.054,0.282-0.112,0.432-0.172
	C316.697,461.639,385.217,435.257,370.462,387.303"/>
<g opacity="0.6">
	<g>
		<defs>
			<rect id="SVGID_1_" x="302.56" y="344.96" width="69.47" height="122.101"/>
		</defs>
		<clipPath id="SVGID_2_">
			<use xlink:href="#SVGID_1_"  overflow="visible"/>
		</clipPath>
		<path clip-path="url(#SVGID_2_)" fill="#CDA72C" d="M369.96,387.303c-10.149-32.987-1.587-41.101,0.215-42.339h-67.617v122.102
			C316.195,461.639,384.715,435.257,369.96,387.303"/>
	</g>
</g>
<g opacity="0.4">
	<g>
		<defs>
			<rect id="SVGID_3_" x="232.72" y="299.19" width="139.811" height="168.05"/>
		</defs>
		<clipPath id="SVGID_4_">
			<use xlink:href="#SVGID_3_"  overflow="visible"/>
		</clipPath>
		<path clip-path="url(#SVGID_4_)" fill="#FFFFFF" d="M302.628,313.247c12.872,6.204,32.308,10.53,54.446,12.167v14.542
			c-1.518,2.447-2.944,5.632-3.908,9.729c-2.504,10.653-1.121,24.675,4.109,41.676c2.328,7.568,1.856,14.6-1.445,21.499
			c-3.05,6.373-8.518,12.725-16.25,18.875c-12.737,10.132-28.211,17.049-36.952,20.637c-8.741-3.588-24.216-10.505-36.952-20.637
			c-7.733-6.15-13.201-12.502-16.251-18.875c-3.301-6.898-3.773-13.931-1.445-21.499c5.231-17.001,6.614-31.023,4.109-41.676
			c-0.963-4.097-2.391-7.282-3.909-9.729v-14.542C270.318,323.777,289.756,319.451,302.628,313.247 M302.628,299.186
			c-1.727,0-3.453,0.347-4.795,1.037c-9.942,5.12-29.271,10.588-57.984,11.864c-3.016,0.134-5.465,2.57-5.465,5.589v27.161
			c0,0,11.263,7.192,0.41,42.466c-14.917,48.482,55.285,74.915,67.834,79.934c12.549-5.019,82.751-31.451,67.834-79.934
			c-10.854-35.274,0.409-42.466,0.409-42.466v-27.161c0-3.019-2.448-5.455-5.465-5.589c-28.713-1.276-48.042-6.744-57.983-11.864
			C306.081,299.532,304.354,299.186,302.628,299.186"/>
	</g>
</g>
<path fill="#191818" d="M370.871,317.676c0-3.02-2.447-5.455-5.465-5.589c-28.712-1.276-48.042-6.744-57.984-11.865
	c-2.685-1.382-6.904-1.382-9.589,0c-9.942,5.121-29.271,10.589-57.983,11.865c-3.017,0.134-5.466,2.569-5.466,5.589v27.161
	c0,0,0.069,0.041,0.194,0.127h136.1c0.125-0.086,0.193-0.127,0.193-0.127V317.676z"/>
<path fill="#191818" d="M302.628,307.552c0.526,0,0.894,0.091,1.006,0.13c13.13,6.748,34.478,11.32,58.872,12.638v21.295
	c-1.498,2.069-3.057,5.072-4.053,9.313c-2.281,9.702-0.932,22.77,4.013,38.836c5.107,16.6-1.273,31.719-19.505,46.221
	c-14.388,11.444-31.922,18.869-40.333,22.248c-8.412-3.379-25.946-10.804-40.333-22.248c-18.232-14.502-24.613-29.621-19.505-46.221
	c4.943-16.066,6.294-29.134,4.013-38.836c-0.997-4.241-2.555-7.243-4.053-9.313V320.32c24.393-1.318,45.743-5.89,58.872-12.638
	C301.733,307.643,302.101,307.552,302.628,307.552 M302.628,299.186c-1.727,0-3.453,0.346-4.795,1.037
	c-9.942,5.12-29.271,10.588-57.984,11.864c-3.016,0.134-5.465,2.57-5.465,5.589v27.161c0,0,11.263,7.192,0.41,42.466
	c-14.917,48.482,55.285,74.915,67.834,79.934c12.549-5.019,82.751-31.451,67.834-79.934c-10.854-35.274,0.409-42.466,0.409-42.466
	v-27.161c0-3.019-2.448-5.455-5.465-5.589c-28.713-1.276-48.042-6.744-57.983-11.864
	C306.081,299.531,304.354,299.186,302.628,299.186"/>
<path fill="#FFFFFF" d="M287.15,333.332l2.438-2.589c1.054,1.384,2.469,2.167,4.186,2.167c1.926,0,3.04-1.475,3.04-3.161
	c0-1.987-1.054-3.161-2.86-3.161c-1.355,0-2.378,0.482-3.312,1.656l-2.92-0.783v-11.41h12.042v3.552h-8.008v5.149
	c0.783-0.964,2.138-1.656,3.673-1.656c3.041,0,5.479,2.378,5.479,6.533c0,4.034-2.739,6.864-7.014,6.864
	C290.793,336.493,288.655,335.35,287.15,333.332"/>
<path fill="#FFFFFF" d="M302.834,326.106c0-5.178,2.137-10.355,7.104-10.355c4.998,0,7.105,5.178,7.105,10.355
	c0,5.148-2.077,10.388-7.105,10.388C304.971,336.494,302.834,331.255,302.834,326.106 M312.949,326.106
	c0-3.884-0.662-6.772-3.012-6.772c-2.317,0-2.979,2.889-2.979,6.772c0,3.854,0.662,6.805,2.979,6.805
	C312.287,332.911,312.949,329.961,312.949,326.106"/>
<path fill="#191818" d="M287.567,392.138h30.674c2.852,0,5.171,1.97,5.18,4.4l0.048,22.449h-41.13l0.049-22.449
	C282.396,394.107,284.715,392.138,287.567,392.138"/>
<rect x="280.82" y="418.409" fill="#191818" width="44.17" height="8.005"/>
<path fill="#FECF0A" d="M318.058,368.825h-5.591c-1.144-6.24-5.052-15.168-9.698-15.168c-4.647,0-8.556,8.928-9.699,15.168h-5.59
	h-2.466v2.165v5.413v2.165l1.835,4.331v35.509h31.84v-35.509l1.835-4.331v-2.165v-5.413v-2.165H318.058z"/>
<rect x="286.508" y="404.675" fill="#FFFFFF" width="33.077" height="13.543"/>
<path fill="#FFFFFF" d="M313.225,368.176c0,5.74-4.652,10.393-10.393,10.393s-10.393-4.653-10.393-10.393
	s4.653-14.723,10.393-14.723S313.225,362.436,313.225,368.176"/>
<path fill="#191818" d="M293.079,380.474c-1.89,0-6.446-0.609-11.54-5.704c-4.103-4.101-7.16-3.259-7.188-3.249
	c-1.433,0.513-3.013-0.235-3.527-1.671c-0.513-1.435,0.235-3.014,1.671-3.526c2.299-0.82,7.613-0.789,12.946,4.544
	c4.336,4.336,7.66,4.093,7.796,4.083c1.51-0.218,2.872,0.836,3.088,2.345c0.215,1.509-0.868,2.911-2.376,3.126
	C293.831,380.438,293.532,380.474,293.079,380.474"/>
<path fill="#191818" d="M264.87,374.165l11.151-1.549c1.185-0.164,2.034-1.096,1.897-2.081l-0.545-3.925
	c-0.137-0.984-1.208-1.65-2.392-1.485l-11.151,1.549c-1.185,0.164-2.034,1.096-1.897,2.081l0.545,3.925
	C262.614,373.664,263.686,374.33,264.87,374.165"/>
<path fill="#191818" d="M312.426,380.474c-0.453,0-0.752-0.035-0.87-0.052c-1.508-0.215-2.556-1.613-2.34-3.122
	c0.212-1.488,1.577-2.52,3.062-2.35c0.237,0.02,3.523,0.181,7.785-4.083c5.334-5.333,10.647-5.367,12.947-4.544
	c1.436,0.512,2.184,2.091,1.671,3.526c-0.513,1.436-2.092,2.184-3.526,1.671c-0.053-0.013-3.109-0.831-7.188,3.249
	C318.872,379.863,314.314,380.474,312.426,380.474"/>
<path fill="#191818" d="M302.843,422.593l-17.995-2.437v-36.414l-4.438-4.331v-12.586h6.696l4.226-1.637
	c1.548-6.752,5.907-13.531,11.437-13.531c5.531,0,9.891,6.779,11.438,13.531l4.226,1.637h6.697v12.586l-4.439,4.331v36.412
	L302.843,422.593z M288.848,416.661l13.992,1.895l13.849-1.892v-34.607l4.439-4.331v-6.9h-3.445l-6.981-2.705l-0.201-1.1
	c-1.11-6.053-4.722-11.363-7.732-11.363c-3.009,0-6.622,5.311-7.73,11.363l-0.202,1.1l-6.981,2.705h-3.444v6.9l4.438,4.331V416.661z
	"/>
<path fill="#191818" d="M340.635,374.165l-11.15-1.549c-1.186-0.164-2.034-1.096-1.897-2.081l0.545-3.925
	c0.137-0.984,1.208-1.65,2.392-1.485l11.151,1.549c1.185,0.164,2.034,1.096,1.897,2.081l-0.545,3.925
	C342.89,373.664,341.818,374.33,340.635,374.165"/>
<polygon fill="#191818" points="283.194,369.187 293.017,367.165 312.793,367.165 318.565,369.042 323.127,368.825 323.127,378.569 
	318.688,382.899 287.38,382.899 282.409,378.569 "/>
<path fill="#FECF0A" d="M312.611,375.971c0,5.381-4.361,9.743-9.743,9.743s-9.744-4.362-9.744-9.743s4.362-9.743,9.744-9.743
	S312.611,370.59,312.611,375.971"/>
<path fill="#FFFFFF" d="M302.868,371.244c2.606,0,4.726,2.12,4.726,4.727c0,2.605-2.12,4.726-4.726,4.726
	c-2.606,0-4.726-2.12-4.726-4.726C298.142,373.364,300.262,371.244,302.868,371.244 M302.868,366.228
	c-5.381,0-9.743,4.362-9.743,9.743c0,5.382,4.362,9.743,9.743,9.743s9.743-4.361,9.743-9.743
	C312.611,370.589,308.249,366.228,302.868,366.228"/>
<path fill="#191818" d="M302.868,387.093c-6.133,0-11.124-4.989-11.124-11.123c0-6.133,4.991-11.123,11.124-11.123
	s11.123,4.99,11.123,11.123C313.991,382.104,309.001,387.093,302.868,387.093 M302.868,367.607c-4.612,0-8.364,3.751-8.364,8.363
	s3.752,8.364,8.364,8.364c4.612,0,8.363-3.752,8.363-8.364S307.48,367.607,302.868,367.607"/>
<path fill="#191818" d="M305.912,372.782l-6.029,6.416c0.795,0.782,1.885,1.265,3.089,1.265c2.432,0,4.403-1.971,4.403-4.403
	C307.375,374.758,306.811,373.588,305.912,372.782"/>
<path fill="#191818" d="M302.738,398.579c-3.587,0-6.496,2.908-6.496,6.496v29.317c0,3.588,2.909,6.496,6.496,6.496
	c3.588,0,6.496-2.908,6.496-6.496v-29.317C309.234,401.487,306.326,398.579,302.738,398.579"/>
<polygon fill="#FFFFFF" points="355.16,325.493 343.42,328.203 332.584,325.493 332.584,319.173 343.42,321.882 355.16,319.173 "/>
<polygon fill="#FFFFFF" points="355.16,334.524 343.42,337.233 332.584,334.524 332.584,328.203 343.42,330.912 355.16,328.203 "/>
<polygon fill="#FFFFFF" points="271.653,324.126 264.195,322.995 260.874,315.897 257.554,322.995 250.095,324.126 255.484,329.66 
	254.137,337.455 260.874,333.774 267.61,337.455 266.264,329.66 "/>
<path fill="#FFFFFF" d="M302.601,470.57c-3.51-1.403-11.533-4.484-20.94-9.254v14.698c11.415,7.014,20.567,11.113,20.567,11.113
	l0.399-0.001l0.399,0.001c0,0,9.153-4.1,20.568-11.113v-14.726c-9.063,4.597-16.848,7.632-20.561,9.109
	C302.883,470.458,302.737,470.517,302.601,470.57"/>
<path fill="#FFFFFF" d="M249.331,450.647c8.119,9.569,19.146,17.858,29.014,24.17v-15.224c-9.688-5.161-20.402-12.017-29.014-20.575
	V450.647z"/>
<path fill="#FFFFFF" d="M326.91,474.817c9.869-6.312,20.895-14.601,29.014-24.17v-11.686c-8.606,8.569-19.316,15.433-29.014,20.602
	V474.817z"/>
</svg>
