<?xml version="1.0" encoding="utf-8"?>
<!-- Generator: Adobe Illustrator 16.0.0, SVG Export Plug-In . SVG Version: 6.00 Build 0)  -->
<!DOCTYPE svg PUBLIC "-//W3C//DTD SVG 1.1//EN" "http://www.w3.org/Graphics/SVG/1.1/DTD/svg11.dtd">
<svg version="1.1" id="Layer_1" xmlns="http://www.w3.org/2000/svg" xmlns:xlink="http://www.w3.org/1999/xlink" x="0px" y="0px"
	 width="240px" height="195px" viewBox="0 0 240 195" enable-background="new 0 0 240 195" xml:space="preserve">
<path fill="none" d="M78.63-2257.76"/>
<path fill="none" d="M78.63,987.837"/>
<path fill="none" d="M51.764,1616.837"/>
<path fill="none" d="M51.764-1628.76"/>
<line fill="#929497" x1="1530.52" y1="-66.557" x2="1530.52" y2="-65.807"/>
<line fill="#929497" x1="-611.484" y1="-65.807" x2="-611.484" y2="-66.557"/>
<path fill="#FDD00F" d="M188.527,103.303c-10.15-32.986-1.588-41.101,0.215-42.339h-67.617H52.643
	c1.803,1.238,10.366,9.353,0.216,42.339c-14.918,48.481,55.285,74.915,67.834,79.936c0.136-0.055,0.282-0.112,0.432-0.172
	C134.762,177.639,203.282,151.257,188.527,103.303"/>
<g opacity="0.6">
	<g>
		<g>
			<defs>
				<rect id="SVGID_1_" x="120.62" y="60.96" width="69.47" height="122.101"/>
			</defs>
			<clipPath id="SVGID_2_">
				<use xlink:href="#SVGID_1_"  overflow="visible"/>
			</clipPath>
			<path clip-path="url(#SVGID_2_)" fill="#CDA72C" d="M188.025,103.303c-10.15-32.986-1.588-41.101,0.215-42.339h-67.617v122.103
				C134.26,177.639,202.779,151.257,188.025,103.303"/>
		</g>
	</g>
</g>
<g opacity="0.4">
	<g>
		<g>
			<defs>
				<rect id="SVGID_3_" x="50.79" y="15.19" width="139.81" height="168.05"/>
			</defs>
			<clipPath id="SVGID_4_">
				<use xlink:href="#SVGID_3_"  overflow="visible"/>
			</clipPath>
			<path clip-path="url(#SVGID_4_)" fill="#FFFFFF" d="M120.693,29.247c12.874,6.204,32.308,10.53,54.448,12.167v14.542
				c-1.519,2.447-2.945,5.631-3.908,9.729c-2.506,10.653-1.123,24.676,4.108,41.678c2.328,7.566,1.856,14.6-1.444,21.498
				c-3.051,6.373-8.519,12.725-16.252,18.875c-12.735,10.132-28.211,17.049-36.952,20.637c-8.741-3.588-24.216-10.505-36.952-20.637
				c-7.733-6.15-13.201-12.502-16.251-18.875c-3.301-6.898-3.773-13.932-1.445-21.498c5.23-17.001,6.614-31.023,4.109-41.678
				c-0.963-4.097-2.39-7.281-3.909-9.729V41.414C88.384,39.777,107.821,35.451,120.693,29.247 M120.693,15.186
				c-1.726,0-3.453,0.348-4.795,1.037c-9.941,5.12-29.271,10.588-57.983,11.864c-3.017,0.134-5.465,2.57-5.465,5.589v27.161
				c0,0,11.263,7.192,0.41,42.466c-14.917,48.482,55.285,74.915,67.834,79.935c12.549-5.02,82.75-31.451,67.833-79.935
				c-10.854-35.273,0.41-42.466,0.41-42.466V33.676c0-3.019-2.449-5.455-5.465-5.589c-28.714-1.276-48.043-6.744-57.984-11.864
				C124.146,15.532,122.419,15.186,120.693,15.186"/>
		</g>
	</g>
</g>
<path fill="#191818" d="M188.938,33.676c0-3.02-2.449-5.455-5.465-5.589c-28.714-1.276-48.043-6.744-57.984-11.865
	c-2.686-1.382-6.904-1.382-9.589,0c-9.942,5.121-29.271,10.589-57.984,11.865c-3.016,0.134-5.465,2.569-5.465,5.589v27.161
	c0,0,0.068,0.041,0.193,0.127h136.1c0.125-0.086,0.194-0.127,0.194-0.127V33.676z"/>
<path fill="#191818" d="M120.693,23.552c0.528,0,0.894,0.091,1.006,0.13c13.129,6.748,34.478,11.32,58.871,12.639v21.295
	c-1.497,2.068-3.055,5.072-4.053,9.313c-2.281,9.702-0.93,22.771,4.015,38.836c5.106,16.601-1.273,31.72-19.507,46.222
	c-14.387,11.443-31.92,18.868-40.333,22.248c-8.412-3.38-25.946-10.805-40.333-22.248c-18.232-14.502-24.613-29.621-19.505-46.222
	c4.943-16.065,6.294-29.134,4.013-38.836c-0.997-4.24-2.555-7.243-4.053-9.313V36.32c24.394-1.318,45.743-5.891,58.872-12.639
	C119.799,23.643,120.166,23.552,120.693,23.552 M120.693,15.186c-1.726,0-3.453,0.347-4.795,1.037
	c-9.941,5.12-29.271,10.588-57.983,11.864c-3.017,0.134-5.465,2.57-5.465,5.589v27.161c0,0,11.263,7.192,0.41,42.466
	c-14.917,48.482,55.285,74.915,67.834,79.935c12.549-5.02,82.75-31.451,67.833-79.935c-10.854-35.273,0.41-42.466,0.41-42.466
	V33.676c0-3.019-2.449-5.455-5.465-5.589c-28.714-1.276-48.043-6.744-57.984-11.864C124.146,15.531,122.419,15.186,120.693,15.186"
	/>
<polygon fill="#FFFFFF" points="112.261,52.132 112.261,37.26 109.22,40.421 106.901,37.982 112.803,32.051 116.324,32.051 
	116.324,52.132 "/>
<path fill="#FFFFFF" d="M118.311,42.106c0-5.179,2.137-10.355,7.104-10.355c4.998,0,7.104,5.178,7.104,10.355
	c0,5.147-2.076,10.388-7.104,10.388C120.447,52.494,118.311,47.255,118.311,42.106 M128.426,42.106c0-3.885-0.662-6.772-3.012-6.772
	c-2.316,0-2.979,2.889-2.979,6.772c0,3.854,0.662,6.805,2.979,6.805C127.764,48.911,128.426,45.961,128.426,42.106"/>
<path fill="#191818" d="M105.632,108.138h30.675c2.852,0,5.17,1.971,5.18,4.399l0.048,22.449h-41.13l0.049-22.449
	C100.461,110.107,102.78,108.138,105.632,108.138"/>
<rect x="98.885" y="134.409" fill="#191818" width="44.17" height="8.005"/>
<path fill="#FDD00F" d="M136.123,84.825h-5.591c-1.144-6.24-5.052-15.168-9.699-15.168c-4.647,0-8.555,8.928-9.699,15.168h-5.59
	h-2.466v2.165v5.413v2.165l1.835,4.331v35.509h31.841V98.899l1.834-4.331v-2.165V86.99v-2.165H136.123z"/>
<rect x="104.574" y="120.675" fill="#FFFFFF" width="33.076" height="13.543"/>
<path fill="#FFFFFF" d="M131.29,84.176c0,5.74-4.653,10.394-10.393,10.394s-10.394-4.653-10.394-10.394s4.653-14.723,10.394-14.723
	C126.637,69.453,131.29,78.436,131.29,84.176"/>
<path fill="#191818" d="M111.145,96.474c-1.89,0-6.446-0.608-11.54-5.704c-4.081-4.08-7.137-3.261-7.266-3.224
	c-1.434,0.511-2.976-0.247-3.488-1.683c-0.513-1.436,0.273-3.027,1.708-3.539c2.299-0.822,7.615-0.789,12.947,4.544
	c4.336,4.336,7.658,4.093,7.796,4.083c1.511-0.218,2.872,0.836,3.088,2.345c0.215,1.509-0.868,2.911-2.376,3.126
	C111.896,96.438,111.597,96.474,111.145,96.474"/>
<path fill="#191818" d="M82.935,90.165l11.151-1.549c1.185-0.164,2.034-1.097,1.896-2.081l-0.545-3.925
	c-0.137-0.984-1.208-1.65-2.392-1.485l-11.151,1.549c-1.185,0.164-2.034,1.097-1.896,2.081l0.545,3.925
	C80.68,89.664,81.751,90.33,82.935,90.165"/>
<path fill="#191818" d="M130.491,96.474c-0.453,0-0.753-0.034-0.87-0.052c-1.508-0.215-2.557-1.613-2.34-3.122
	c0.212-1.488,1.584-2.52,3.061-2.35c0.239,0.021,3.521,0.183,7.787-4.083c5.333-5.333,10.646-5.367,12.947-4.544
	c1.435,0.512,2.183,2.091,1.67,3.525c-0.512,1.437-2.092,2.185-3.525,1.671c-0.055-0.013-3.111-0.83-7.188,3.249
	C136.938,95.863,132.381,96.474,130.491,96.474"/>
<path fill="#191818" d="M120.908,138.593l-17.995-2.437V99.742l-4.439-4.331V82.825h6.696l4.227-1.638
	c1.548-6.752,5.907-13.53,11.437-13.53c5.531,0,9.891,6.778,11.438,13.53l4.227,1.638h6.697v12.586l-4.439,4.331v36.412
	L120.908,138.593z M106.913,132.661l13.992,1.895l13.849-1.892V98.057l4.439-4.331v-6.899h-3.445l-6.98-2.705l-0.201-1.1
	c-1.11-6.054-4.723-11.363-7.732-11.363c-3.009,0-6.622,5.311-7.731,11.363l-0.201,1.1l-6.982,2.705h-3.444v6.899l4.439,4.331
	v34.604H106.913z"/>
<path fill="#191818" d="M158.7,90.165l-11.151-1.549c-1.185-0.164-2.033-1.097-1.896-2.081l0.546-3.925
	c0.137-0.984,1.208-1.65,2.392-1.485l11.151,1.549c1.185,0.164,2.034,1.097,1.896,2.081l-0.545,3.925
	C160.955,89.664,159.884,90.33,158.7,90.165"/>
<polygon fill="#191818" points="101.26,85.188 111.082,83.165 130.857,83.165 136.632,85.042 141.191,84.825 141.191,94.569 
	136.754,98.899 105.445,98.899 100.475,94.569 "/>
<path fill="#FDD00F" d="M130.677,91.971c0,5.381-4.362,9.743-9.743,9.743c-5.382,0-9.744-4.362-9.744-9.743s4.362-9.743,9.744-9.743
	C126.314,82.228,130.677,86.59,130.677,91.971"/>
<path fill="#FFFFFF" d="M120.934,87.244c2.605,0,4.726,2.12,4.726,4.727c0,2.605-2.12,4.727-4.726,4.727s-4.727-2.12-4.727-4.727
	S118.327,87.244,120.934,87.244 M120.934,82.228c-5.381,0-9.743,4.362-9.743,9.743c0,5.382,4.362,9.743,9.743,9.743
	c5.38,0,9.742-4.36,9.742-9.743C130.676,86.589,126.314,82.228,120.934,82.228"/>
<path fill="#191818" d="M120.934,103.093c-6.133,0-11.123-4.989-11.123-11.123c0-6.133,4.99-11.123,11.123-11.123
	c6.132,0,11.123,4.99,11.123,11.123C132.057,98.104,127.066,103.093,120.934,103.093 M120.934,83.607
	c-4.612,0-8.363,3.751-8.363,8.362c0,4.612,3.751,8.364,8.363,8.364c4.611,0,8.363-3.752,8.363-8.364
	C129.297,87.358,125.545,83.607,120.934,83.607"/>
<path fill="#191818" d="M123.979,88.782l-6.029,6.416c0.795,0.782,1.885,1.265,3.089,1.265c2.433,0,4.403-1.971,4.403-4.403
	C125.441,90.758,124.875,89.588,123.979,88.782"/>
<path fill="#191818" d="M120.804,114.579c-3.588,0-6.496,2.908-6.496,6.496v29.316c0,3.589,2.908,6.496,6.496,6.496
	c3.586,0,6.496-2.907,6.496-6.496v-29.316C127.3,117.487,124.391,114.579,120.804,114.579"/>
<polygon fill="#FDD00F" points="89.799,41.968 78.059,44.677 67.223,41.968 67.223,35.646 78.059,38.355 89.799,35.646 "/>
<polygon fill="#FDD00F" points="89.799,50.998 78.059,53.707 67.223,50.998 67.223,44.676 78.059,47.386 89.799,44.676 "/>
<polygon fill="#FDD00F" points="174.163,41.968 162.423,44.677 151.587,41.968 151.587,35.646 162.423,38.355 174.163,35.646 "/>
<polygon fill="#FDD00F" points="174.163,50.998 162.423,53.707 151.587,50.998 151.587,44.676 162.423,47.386 174.163,44.676 "/>
</svg>
