<?xml version="1.0" encoding="utf-8"?>
<!-- Generator: Adobe Illustrator 16.0.0, SVG Export Plug-In . SVG Version: 6.00 Build 0)  -->
<!DOCTYPE svg PUBLIC "-//W3C//DTD SVG 1.1//EN" "http://www.w3.org/Graphics/SVG/1.1/DTD/svg11.dtd">
<svg version="1.1" id="Layer_1" xmlns="http://www.w3.org/2000/svg" xmlns:xlink="http://www.w3.org/1999/xlink" x="0px" y="0px"
	 width="240px" height="195px" viewBox="0 0 240 195" enable-background="new 0 0 240 195" xml:space="preserve">
<path fill="none" d="M78.63-2257.76"/>
<path fill="none" d="M78.63,987.837"/>
<path fill="none" d="M51.764,1616.837"/>
<path fill="none" d="M51.764-1628.76"/>
<line fill="#929497" x1="1530.52" y1="-66.557" x2="1530.52" y2="-65.807"/>
<line fill="#929497" x1="-611.484" y1="-65.807" x2="-611.484" y2="-66.557"/>
<path fill="#FDD00F" d="M187.752,93.303c-10.15-32.986-1.588-41.101,0.215-42.339H120.35H51.868
	c1.803,1.238,10.365,9.353,0.217,42.339c-14.918,48.481,55.283,74.915,67.834,79.936c0.136-0.055,0.281-0.112,0.432-0.172
	C133.986,167.639,202.507,141.257,187.752,93.303"/>
<g opacity="0.6">
	<g>
		<g>
			<defs>
				<rect id="SVGID_1_" x="119.85" y="50.96" width="69.47" height="122.101"/>
			</defs>
			<clipPath id="SVGID_2_">
				<use xlink:href="#SVGID_1_"  overflow="visible"/>
			</clipPath>
			<path clip-path="url(#SVGID_2_)" fill="#CDA72C" d="M187.25,93.303c-10.15-32.986-1.588-41.101,0.215-42.339h-67.617v122.103
				C133.484,167.639,202.005,141.257,187.25,93.303"/>
		</g>
	</g>
</g>
<g opacity="0.4">
	<g>
		<g>
			<defs>
				<rect id="SVGID_3_" x="50.01" y="5.19" width="139.811" height="168.05"/>
			</defs>
			<clipPath id="SVGID_4_">
				<use xlink:href="#SVGID_3_"  overflow="visible"/>
			</clipPath>
			<path clip-path="url(#SVGID_4_)" fill="#FFFFFF" d="M119.918,19.247c12.872,6.204,32.309,10.53,54.446,12.167v14.542
				c-1.519,2.447-2.944,5.632-3.908,9.729c-2.505,10.653-1.122,24.676,4.108,41.677c2.33,7.567,1.856,14.6-1.444,21.499
				c-3.05,6.373-8.519,12.725-16.251,18.875c-12.736,10.132-28.21,17.049-36.951,20.637c-8.742-3.588-24.216-10.505-36.953-20.637
				c-7.732-6.15-13.199-12.502-16.25-18.875c-3.301-6.898-3.774-13.932-1.445-21.499c5.23-17.001,6.613-31.023,4.109-41.677
				c-0.963-4.097-2.391-7.281-3.908-9.729V31.414C87.608,29.777,107.045,25.451,119.918,19.247 M119.918,5.186
				c-1.727,0-3.453,0.347-4.796,1.037c-9.942,5.12-29.271,10.587-57.983,11.864c-3.017,0.134-5.465,2.57-5.465,5.589v27.161
				c0,0,11.262,7.192,0.409,42.466c-14.917,48.482,55.285,74.915,67.835,79.935c12.549-5.02,82.75-31.451,67.834-79.935
				c-10.854-35.273,0.409-42.466,0.409-42.466V23.676c0-3.019-2.448-5.455-5.466-5.589c-28.713-1.276-48.041-6.744-57.982-11.864
				C123.37,5.532,121.645,5.186,119.918,5.186"/>
		</g>
	</g>
</g>
<path fill="#191818" d="M188.162,23.676c0-3.02-2.449-5.455-5.467-5.589c-28.713-1.276-48.041-6.744-57.982-11.865
	c-2.686-1.382-6.905-1.382-9.59,0c-9.943,5.121-29.272,10.588-57.984,11.865c-3.016,0.134-5.465,2.569-5.465,5.589v27.161
	c0,0,0.069,0.041,0.194,0.127h136.099c0.125-0.086,0.195-0.127,0.195-0.127V23.676z"/>
<path fill="#191818" d="M119.918,13.552c0.526,0,0.893,0.091,1.006,0.13c13.129,6.748,34.479,11.32,58.871,12.639v21.295
	c-1.498,2.068-3.056,5.072-4.053,9.313c-2.281,9.702-0.93,22.771,4.014,38.836c5.107,16.601-1.273,31.72-19.506,46.222
	c-14.387,11.443-31.92,18.868-40.332,22.248c-8.412-3.38-25.947-10.805-40.334-22.248c-18.232-14.502-24.611-29.621-19.505-46.222
	c4.943-16.065,6.294-29.134,4.013-38.836c-0.996-4.24-2.555-7.243-4.053-9.313V26.32c24.393-1.318,45.743-5.891,58.872-12.639
	C119.023,13.643,119.391,13.552,119.918,13.552 M119.918,5.186c-1.727,0-3.453,0.346-4.796,1.037
	c-9.942,5.12-29.271,10.587-57.983,11.864c-3.017,0.134-5.465,2.57-5.465,5.589v27.161c0,0,11.264,7.192,0.409,42.466
	c-14.917,48.482,55.285,74.915,67.835,79.935c12.549-5.02,82.75-31.451,67.834-79.935c-10.854-35.273,0.409-42.466,0.409-42.466
	V23.676c0-3.019-2.448-5.455-5.466-5.589c-28.713-1.276-48.041-6.744-57.982-11.864C123.37,5.531,121.645,5.186,119.918,5.186"/>
<path fill="#FFFFFF" d="M97.381,42.132v-3.251c7.348-7.135,8.883-8.73,8.883-11.019c0-1.535-1.176-2.529-2.681-2.529
	c-1.776,0-3.19,0.813-4.274,2.258l-2.408-2.529c1.625-2.168,4.003-3.311,6.744-3.311c3.883,0,6.713,2.348,6.713,6.081
	c0,3.041-2.047,5.63-7.016,10.748h7.105v3.552H97.381L97.381,42.132z"/>
<path fill="#FFFFFF" d="M111.951,32.106c0-5.18,2.137-10.355,7.104-10.355c4.997,0,7.104,5.177,7.104,10.355
	c0,5.146-2.076,10.387-7.104,10.387C114.088,42.493,111.951,37.254,111.951,32.106 M122.066,32.106c0-3.885-0.662-6.773-3.011-6.773
	c-2.317,0-2.979,2.89-2.979,6.773c0,3.854,0.662,6.805,2.979,6.805C121.404,38.911,122.066,35.961,122.066,32.106"/>
<path fill="#FFFFFF" d="M127.363,32.106c0-5.18,2.137-10.355,7.104-10.355c4.998,0,7.105,5.177,7.105,10.355
	c0,5.146-2.076,10.387-7.105,10.387C129.5,42.493,127.363,37.254,127.363,32.106 M137.479,32.106c0-3.885-0.662-6.773-3.012-6.773
	c-2.318,0-2.98,2.89-2.98,6.773c0,3.854,0.662,6.805,2.98,6.805C136.816,38.911,137.479,35.961,137.479,32.106"/>
<path fill="#191818" d="M154.535,109.811c-2.641,0-6.695,0.224-6.695,2.862v15.822c0,2.64,4.055,2.863,6.695,2.863
	c2.639,0,6.693-0.225,6.693-2.863v-15.822C161.229,110.033,157.174,109.811,154.535,109.811"/>
<path fill="#191818" d="M84.799,109.811c-2.639,0-6.695,0.224-6.695,2.862v15.822c0,2.64,4.057,2.863,6.695,2.863
	c2.64,0,6.695-0.225,6.695-2.863v-15.822C91.494,110.033,87.438,109.811,84.799,109.811"/>
<path fill="#FDD00F" d="M79.02,86.321l-4.879,9.532l4.961,20.692c0.129,1.675,1.525,2.994,3.232,2.994
	c6.493,0,12.064,2.508,18.557,2.508c1.629,0,2.972-1.198,3.207-2.761h31.095c0.234,1.563,1.578,2.761,3.205,2.761
	c6.492,0,12.064-2.508,18.559-2.508c1.628,0,2.973-1.198,3.206-2.762h0.014l5.019-20.927l-4.881-9.531L79.02,86.321L79.02,86.321z"
	/>
<path fill="#FFFFFF" d="M160.176,86.053h-9.592l-3.902-10.063c-0.381-2.744-2.936-4.97-5.707-4.97H98.358
	c-2.771,0-5.325,2.227-5.705,4.97L88.75,86.053h-9.592l-0.138,0.27h81.294L160.176,86.053z"/>
<rect x="108.121" y="87.324" fill="#FFFFFF" width="21.574" height="33.363"/>
<path fill="#FFFFFF" d="M96.634,103.196c0,3.937-3.19,7.127-7.126,7.127c-3.938,0-7.127-3.19-7.127-7.127s3.189-7.127,7.127-7.127
	C93.443,96.069,96.634,99.261,96.634,103.196"/>
<path fill="#191818" d="M89.508,111.703c-4.691,0-8.508-3.815-8.508-8.507c0-4.689,3.816-8.507,8.508-8.507
	c4.689,0,8.506,3.816,8.506,8.507C98.014,107.888,94.197,111.703,89.508,111.703 M89.508,97.449c-3.17,0-5.748,2.578-5.748,5.747
	s2.578,5.747,5.748,5.747c3.168,0,5.746-2.578,5.746-5.747S92.676,97.449,89.508,97.449"/>
<path fill="#191818" d="M91.734,100.864l-4.41,4.691c0.582,0.572,1.379,0.927,2.26,0.927c1.777,0,3.22-1.442,3.22-3.222
	C92.804,102.309,92.391,101.454,91.734,100.864"/>
<path fill="#FFFFFF" d="M156.082,103.196c0,3.937-3.191,7.127-7.127,7.127c-3.938,0-7.127-3.19-7.127-7.127s3.189-7.127,7.127-7.127
	C152.891,96.069,156.082,99.261,156.082,103.196"/>
<path fill="#191818" d="M148.955,111.703c-4.691,0-8.507-3.815-8.507-8.507c0-4.689,3.815-8.507,8.507-8.507
	c4.689,0,8.506,3.816,8.506,8.507C157.461,107.888,153.645,111.703,148.955,111.703 M148.955,97.449
	c-3.17,0-5.746,2.578-5.746,5.747s2.576,5.747,5.746,5.747c3.168,0,5.746-2.578,5.746-5.747S152.123,97.449,148.955,97.449"/>
<path fill="#191818" d="M151.182,100.864l-4.408,4.691c0.58,0.572,1.377,0.927,2.259,0.927c1.778,0,3.221-1.442,3.221-3.222
	C152.252,102.309,151.838,101.454,151.182,100.864"/>
<path fill="#FFFFFF" d="M134.354,105.025c0-2.313-1.875-4.188-4.188-4.188H107.93c-2.313,0-4.188,1.875-4.188,4.188
	s1.875,4.188,4.188,4.188h22.236C132.479,109.213,134.354,107.339,134.354,105.025"/>
<path fill="#191818" d="M130.165,110.593H107.93c-3.068,0-5.566-2.498-5.566-5.566c0-3.069,2.498-5.566,5.566-5.566h22.235
	c3.069,0,5.567,2.498,5.567,5.566S133.234,110.593,130.165,110.593 M107.93,102.219c-1.548,0-2.808,1.259-2.808,2.808
	s1.26,2.807,2.808,2.807h22.235c1.548,0,2.808-1.258,2.808-2.807s-1.26-2.808-2.808-2.808H107.93z"/>
<rect x="86.298" y="84.071" fill="#191818" width="65.472" height="4"/>
<path fill="#191819" d="M155.525,84.577c-1.502,1.502-3.938,1.502-5.439,0c-1.502-1.502-1.502-3.938,0-5.44s5.711-3.275,7.214-1.772
	C158.802,78.866,157.027,83.075,155.525,84.577"/>
<path fill="#191819" d="M83.658,84.577c1.502,1.502,3.938,1.502,5.439,0c1.502-1.502,1.502-3.938,0-5.44
	c-1.502-1.502-5.711-3.275-7.213-1.772C80.383,78.866,82.156,83.075,83.658,84.577"/>
<rect x="123.304" y="69.524" transform="matrix(-0.8538 -0.5207 0.5207 -0.8538 190.4183 209.8708)" fill="#191818" width="2.759" height="17.34"/>
<rect x="131.08" y="69.525" transform="matrix(-0.8538 -0.5207 0.5207 -0.8538 204.8345 213.921)" fill="#191818" width="2.759" height="17.338"/>
<path fill="#191818" d="M138.398,124.05c-1.957,0-3.713-1.109-4.611-2.762h-28.283c-0.898,1.651-2.656,2.762-4.613,2.762
	c-3.452,0-6.62-0.659-9.686-1.296c-2.998-0.625-5.83-1.213-8.871-1.213c-2.662,0-4.918-2.035-5.211-4.664l-5.101-21.275
	l5.911-11.548h9.445l3.33-8.588c0.633-3.634,3.942-6.446,7.648-6.446h42.617c3.707,0,7.018,2.813,7.648,6.446l3.33,8.588h9.445
	l5.912,11.548l-5.558,23.18h-0.187c-0.897,1.65-2.655,2.761-4.612,2.761c-3.04,0-5.873,0.588-8.871,1.213
	C145.021,123.391,141.852,124.05,138.398,124.05 M102.375,117.288h34.539l0.256,1.702c0.092,0.604,0.619,1.06,1.229,1.06
	c3.041,0,5.873-0.589,8.873-1.214c3.063-0.637,6.232-1.295,9.685-1.295c0.608,0,1.14-0.455,1.229-1.058l0.254-1.703h0.162
	l4.476-18.675l-4.122-8.053h-9.738l-4.482-11.559l-0.032-0.23c-0.243-1.759-1.949-3.245-3.726-3.245H98.36
	c-1.775,0-3.48,1.486-3.725,3.245l-0.031,0.23L90.12,88.053h-9.738l-4.121,8.053l4.838,20.287c0.05,0.645,0.593,1.147,1.238,1.147
	c3.452,0,6.621,0.658,9.687,1.295c2.997,0.625,5.831,1.214,8.87,1.214c0.609,0,1.138-0.455,1.229-1.059L102.375,117.288z"/>
<polygon fill="#FFFFFF" points="90.863,29.677 83.405,28.546 80.084,21.448 76.764,28.546 69.305,29.677 74.695,35.211 
	73.348,43.006 80.084,39.325 86.82,43.006 85.473,35.211 "/>
<polygon fill="#FFFFFF" points="170.529,29.677 163.072,28.546 159.75,21.448 156.432,28.546 148.973,29.677 154.361,35.211 
	153.014,43.006 159.75,39.325 166.486,43.006 165.141,35.211 "/>
<path fill="#1A1A19" d="M119.891,177.57c-3.51-1.403-11.533-5.484-20.939-10.254v14.697c11.414,7.015,20.566,11.113,20.566,11.113
	l0.399-0.001l0.399,0.001c0,0,9.152-4.1,20.567-11.113v-14.726c-9.063,4.597-16.849,8.632-20.562,10.109
	C120.173,177.458,120.027,177.517,119.891,177.57"/>
<path fill="#1A1A19" d="M66.621,156.647c8.119,9.568,19.146,17.857,29.014,24.17v-15.225c-9.689-5.161-20.402-12.017-29.014-20.575
	V156.647z"/>
<path fill="#FFFFFF" d="M144.2,180.817c9.868-6.313,20.896-14.602,29.014-24.171v-11.686c-8.606,8.569-19.317,15.433-29.014,20.602
	V180.817z"/>
</svg>
