<?xml version="1.0" encoding="utf-8"?>
<!-- Generator: Adobe Illustrator 16.0.0, SVG Export Plug-In . SVG Version: 6.00 Build 0)  -->
<!DOCTYPE svg PUBLIC "-//W3C//DTD SVG 1.1//EN" "http://www.w3.org/Graphics/SVG/1.1/DTD/svg11.dtd">
<svg version="1.1" id="Layer_1" xmlns="http://www.w3.org/2000/svg" xmlns:xlink="http://www.w3.org/1999/xlink" x="0px" y="0px"
	 width="240px" height="200px" viewBox="0 0 240 200" enable-background="new 0 0 240 200" xml:space="preserve">
<path fill="#FFFFFF" d="M81.497,69.42c0.866-2.783-0.534-6.177-3.11-7.541L50.815,47.283L21.512,31.772
	c-2.576-1.363-4.939-0.108-5.253,2.79c0,0-3.293,30.512,20.821,39.177c24.113,8.665,33.756,12.129,33.756,12.129
	c2.744,0.986,5.697-0.485,6.563-3.269L81.497,69.42z"/>
<path fill="#FFFFFF" d="M160.1,69.42c-0.865-2.783,0.533-6.177,3.109-7.541l27.574-14.596l29.301-15.511
	c2.576-1.363,4.94-0.108,5.254,2.79c0,0,3.293,30.512-20.82,39.177c-24.115,8.665-33.758,12.129-33.758,12.129
	c-2.742,0.986-5.695-0.485-6.562-3.269L160.1,69.42z"/>
<path fill="#020202" d="M72.58,89.06L72.58,89.06c-0.924,0-1.84-0.159-2.719-0.476l-33.758-12.13
	C10.154,67.129,13.355,34.58,13.39,34.252c0.376-3.482,2.879-5.916,6.086-5.916c1.135,0,2.273,0.299,3.385,0.887l56.875,30.108
	c3.813,2.018,5.797,6.826,4.515,10.946l-4.099,13.18C79.111,86.808,76.068,89.06,72.58,89.06 M19.477,34.105
	c-0.264,0-0.347,0.733-0.35,0.766c-0.006,0.069-0.74,7.355,1.337,15.484c2.681,10.482,8.599,17.438,17.591,20.668l33.758,12.13
	c1.182,0.426,2.465-0.234,2.83-1.41l4.1-13.181c0.451-1.453-0.361-3.424-1.705-4.135L20.163,34.32
	C19.794,34.127,19.561,34.105,19.477,34.105"/>
<path fill="#020202" d="M169.018,89.06c-3.488,0-6.531-2.252-7.574-5.603l-4.1-13.18c-1.279-4.12,0.703-8.929,4.516-10.946
	l56.876-30.108c1.11-0.588,2.25-0.887,3.385-0.887c3.206,0,5.709,2.433,6.086,5.916c0.035,0.328,3.236,32.877-22.713,42.202
	l-33.757,12.13C170.855,88.9,169.939,89.06,169.018,89.06 M222.119,34.105c-0.084,0-0.316,0.021-0.687,0.216l-56.874,30.106
	c-1.345,0.712-2.156,2.683-1.705,4.136l4.1,13.18c0.365,1.178,1.65,1.838,2.831,1.411l33.757-12.13
	c8.993-3.231,14.912-10.186,17.592-20.668c2.076-8.128,1.343-15.416,1.336-15.487C222.467,34.841,222.383,34.105,222.119,34.105"/>
<path fill="#FDD00F" d="M188.381,93.303c-10.15-32.986-1.588-41.101,0.215-42.339h-67.617H52.497
	c1.803,1.238,10.365,9.353,0.216,42.339c-14.918,48.481,55.285,74.915,67.834,79.936c0.136-0.055,0.282-0.112,0.433-0.172
	C134.615,167.639,203.135,141.257,188.381,93.303"/>
<g opacity="0.6">
	<g>
		<g>
			<defs>
				<rect id="SVGID_1_" x="120.73" y="50.21" width="69.47" height="122.101"/>
			</defs>
			<clipPath id="SVGID_2_">
				<use xlink:href="#SVGID_1_"  overflow="visible"/>
			</clipPath>
			<path clip-path="url(#SVGID_2_)" fill="#CDA72C" d="M188.129,92.551c-10.15-32.988-1.587-41.101,0.215-42.339h-67.617v122.101
				C134.364,166.887,202.885,140.505,188.129,92.551"/>
		</g>
	</g>
</g>
<g opacity="0.4">
	<g>
		<g>
			<defs>
				<rect id="SVGID_3_" x="50.641" y="5.19" width="139.81" height="168.05"/>
			</defs>
			<clipPath id="SVGID_4_">
				<use xlink:href="#SVGID_3_"  overflow="visible"/>
			</clipPath>
			<path clip-path="url(#SVGID_4_)" fill="#FFFFFF" d="M120.546,19.247c12.872,6.204,32.31,10.53,54.446,12.167v14.542
				c-1.518,2.447-2.944,5.632-3.908,9.729c-2.504,10.652-1.121,24.675,4.109,41.675c2.328,7.568,1.855,14.601-1.445,21.5
				c-3.049,6.373-8.518,12.725-16.25,18.875c-12.736,10.132-28.211,17.049-36.952,20.637c-8.741-3.588-24.216-10.505-36.952-20.637
				c-7.732-6.15-13.2-12.502-16.251-18.875c-3.3-6.898-3.772-13.932-1.444-21.499c5.23-17.001,6.613-31.023,4.108-41.677
				c-0.964-4.098-2.39-7.281-3.908-9.729V31.413C88.236,29.777,107.674,25.451,120.546,19.247 M120.546,5.186
				c-1.726,0-3.452,0.347-4.794,1.037c-9.943,5.12-29.272,10.587-57.984,11.864c-3.018,0.134-5.466,2.57-5.466,5.589v27.161
				c0,0,11.264,7.192,0.409,42.466c-14.916,48.482,55.285,74.915,67.835,79.935c12.549-5.02,82.751-31.451,67.834-79.935
				c-10.853-35.273,0.409-42.466,0.409-42.466V23.676c0-3.019-2.448-5.455-5.465-5.589c-28.713-1.276-48.041-6.744-57.983-11.864
				C123.998,5.532,122.271,5.186,120.546,5.186"/>
		</g>
	</g>
</g>
<path fill="#191818" d="M188.79,23.676c0-3.02-2.449-5.455-5.466-5.589c-28.713-1.276-48.041-6.744-57.983-11.865
	c-2.685-1.382-6.905-1.382-9.59,0c-9.942,5.121-29.271,10.588-57.983,11.865c-3.017,0.134-5.466,2.569-5.466,5.589v27.161
	c0,0,0.069,0.041,0.194,0.127h136.1c0.125-0.086,0.194-0.127,0.194-0.127V23.676z"/>
<path fill="#FFFFFF" d="M104.828,39.332l2.438-2.589c1.054,1.384,2.469,2.168,4.185,2.168c1.927,0,3.041-1.478,3.041-3.162
	c0-1.987-1.054-3.161-2.86-3.161c-1.354,0-2.377,0.482-3.312,1.656l-2.92-0.783v-11.41h12.042v3.554h-8.008v5.147
	c0.783-0.963,2.138-1.656,3.673-1.656c3.04,0,5.479,2.378,5.479,6.533c0,4.034-2.74,6.864-7.015,6.864
	C108.471,42.493,106.332,41.349,104.828,39.332"/>
<polygon fill="#FFFFFF" points="131.408,42.132 126.771,34.273 125.357,36.503 125.357,42.132 121.323,42.132 121.323,22.051 
	125.357,22.051 125.357,31.174 131.018,22.051 135.713,22.051 129.301,31.505 136.166,42.132 "/>
<g>
	<g>
		<defs>
			<path id="SVGID_5_" d="M115.752,6.222c-9.943,5.122-29.271,10.589-57.984,11.866c-3.017,0.132-5.465,2.568-5.465,5.588v27.161
				c0,0,11.264,7.192,0.408,42.467c-14.918,48.48,55.286,74.914,67.835,79.935c12.55-5.021,82.751-31.453,67.833-79.935
				c-10.852-35.273,0.411-42.467,0.411-42.467V23.676c0-3.02-2.449-5.456-5.466-5.588c-28.711-1.276-48.041-6.744-57.983-11.866
				c-1.343-0.69-3.069-1.036-4.796-1.036C118.818,5.186,117.094,5.531,115.752,6.222"/>
		</defs>
		<clipPath id="SVGID_6_">
			<use xlink:href="#SVGID_5_"  overflow="visible"/>
		</clipPath>
		<polygon clip-path="url(#SVGID_6_)" fill="#FFFFFF" points="199.492,86.403 199.492,92.291 121.002,111.912 121.002,94.252 
			195.053,86.848 		"/>
	</g>
	<g>
		<defs>
			<path id="SVGID_7_" d="M115.752,6.222c-9.943,5.122-29.271,10.589-57.984,11.866c-3.017,0.132-5.465,2.568-5.465,5.588v27.161
				c0,0,11.264,7.192,0.408,42.467c-14.918,48.48,55.286,74.914,67.835,79.935c12.55-5.021,82.751-31.453,67.833-79.935
				c-10.852-35.273,0.411-42.467,0.411-42.467V23.676c0-3.02-2.449-5.456-5.466-5.588c-28.711-1.276-48.041-6.744-57.983-11.866
				c-1.343-0.69-3.069-1.036-4.796-1.036C118.818,5.186,117.094,5.531,115.752,6.222"/>
		</defs>
		<clipPath id="SVGID_8_">
			<use xlink:href="#SVGID_7_"  overflow="visible"/>
		</clipPath>
		<polygon clip-path="url(#SVGID_8_)" fill="#FFFFFF" points="42.076,86.403 42.076,92.291 120.566,111.912 120.566,94.252 
			46.516,86.848 		"/>
	</g>
	<g>
		<defs>
			<path id="SVGID_9_" d="M115.752,6.222c-9.943,5.122-29.271,10.589-57.984,11.866c-3.017,0.132-5.465,2.568-5.465,5.588v27.161
				c0,0,11.264,7.192,0.408,42.467c-14.918,48.48,55.286,74.914,67.835,79.935c12.55-5.021,82.751-31.453,67.833-79.935
				c-10.852-35.273,0.411-42.467,0.411-42.467V23.676c0-3.02-2.449-5.456-5.466-5.588c-28.711-1.276-48.041-6.744-57.983-11.866
				c-1.343-0.69-3.069-1.036-4.796-1.036C118.818,5.186,117.094,5.531,115.752,6.222"/>
		</defs>
		<clipPath id="SVGID_10_">
			<use xlink:href="#SVGID_9_"  overflow="visible"/>
		</clipPath>
		<polygon clip-path="url(#SVGID_10_)" fill="#FDD00F" points="101.858,98.988 42.943,89.306 42.943,91.931 102.021,107.357 		"/>
	</g>
	<g>
		<defs>
			<path id="SVGID_11_" d="M115.752,6.222c-9.943,5.122-29.271,10.589-57.984,11.866c-3.017,0.132-5.465,2.568-5.465,5.588v27.161
				c0,0,11.264,7.192,0.408,42.467c-14.918,48.48,55.286,74.914,67.835,79.935c12.55-5.021,82.751-31.453,67.833-79.935
				c-10.852-35.273,0.411-42.467,0.411-42.467V23.676c0-3.02-2.449-5.456-5.466-5.588c-28.711-1.276-48.041-6.744-57.983-11.866
				c-1.343-0.69-3.069-1.036-4.796-1.036C118.818,5.186,117.094,5.531,115.752,6.222"/>
		</defs>
		<clipPath id="SVGID_12_">
			<use xlink:href="#SVGID_11_"  overflow="visible"/>
		</clipPath>
		<polygon clip-path="url(#SVGID_12_)" fill="#FDD00F" points="139.604,98.988 198.518,89.306 198.518,91.931 139.439,107.357 		"/>
	</g>
	<g>
		<defs>
			<path id="SVGID_13_" d="M115.752,6.222c-9.943,5.122-29.271,10.589-57.984,11.866c-3.017,0.132-5.465,2.568-5.465,5.588v27.161
				c0,0,11.264,7.192,0.408,42.467c-14.918,48.48,55.286,74.914,67.835,79.935c12.55-5.021,82.751-31.453,67.833-79.935
				c-10.852-35.273,0.411-42.467,0.411-42.467V23.676c0-3.02-2.449-5.456-5.466-5.588c-28.711-1.276-48.041-6.744-57.983-11.866
				c-1.343-0.69-3.069-1.036-4.796-1.036C118.818,5.186,117.094,5.531,115.752,6.222"/>
		</defs>
		<clipPath id="SVGID_14_">
			<use xlink:href="#SVGID_13_"  overflow="visible"/>
		</clipPath>
		<polygon clip-path="url(#SVGID_14_)" fill="#FDD00F" points="126.705,86.403 114.428,86.403 118.604,62.486 122.529,62.486 		"/>
	</g>
	<g>
		<defs>
			<path id="SVGID_15_" d="M115.752,6.222c-9.943,5.122-29.271,10.589-57.984,11.866c-3.017,0.132-5.465,2.568-5.465,5.588v27.161
				c0,0,11.264,7.192,0.408,42.467c-14.918,48.48,55.286,74.914,67.835,79.935c12.55-5.021,82.751-31.453,67.833-79.935
				c-10.852-35.273,0.411-42.467,0.411-42.467V23.676c0-3.02-2.449-5.456-5.466-5.588c-28.711-1.276-48.041-6.744-57.983-11.866
				c-1.343-0.69-3.069-1.036-4.796-1.036C118.818,5.186,117.094,5.531,115.752,6.222"/>
		</defs>
		<clipPath id="SVGID_16_">
			<use xlink:href="#SVGID_15_"  overflow="visible"/>
		</clipPath>
		<path clip-path="url(#SVGID_16_)" fill="#191818" d="M128.495,87.908h-15.858l4.702-26.927h6.454L128.495,87.908z M116.219,84.898
			h8.694l-3.649-20.907h-1.396L116.219,84.898z"/>
	</g>
	<g>
		<defs>
			<path id="SVGID_17_" d="M115.752,6.222c-9.943,5.122-29.271,10.589-57.984,11.866c-3.017,0.132-5.465,2.568-5.465,5.588v27.161
				c0,0,11.264,7.192,0.408,42.467c-14.918,48.48,55.286,74.914,67.835,79.935c12.55-5.021,82.751-31.453,67.833-79.935
				c-10.852-35.273,0.411-42.467,0.411-42.467V23.676c0-3.02-2.449-5.456-5.466-5.588c-28.711-1.276-48.041-6.744-57.983-11.866
				c-1.343-0.69-3.069-1.036-4.796-1.036C118.818,5.186,117.094,5.531,115.752,6.222"/>
		</defs>
		<clipPath id="SVGID_18_">
			<use xlink:href="#SVGID_17_"  overflow="visible"/>
		</clipPath>
		<path clip-path="url(#SVGID_18_)" fill="#191818" d="M118.995,114.483V92.436l82.504-8.251v9.673L118.995,114.483z M123.01,96.068
			v13.272l74.477-18.619V88.62L123.01,96.068z"/>
	</g>
	<g>
		<defs>
			<path id="SVGID_19_" d="M115.752,6.222c-9.943,5.122-29.271,10.589-57.984,11.866c-3.017,0.132-5.465,2.568-5.465,5.588v27.161
				c0,0,11.264,7.192,0.408,42.467c-14.918,48.48,55.286,74.914,67.835,79.935c12.55-5.021,82.751-31.453,67.833-79.935
				c-10.852-35.273,0.411-42.467,0.411-42.467V23.676c0-3.02-2.449-5.456-5.466-5.588c-28.711-1.276-48.041-6.744-57.983-11.866
				c-1.343-0.69-3.069-1.036-4.796-1.036C118.818,5.186,117.094,5.531,115.752,6.222"/>
		</defs>
		<clipPath id="SVGID_20_">
			<use xlink:href="#SVGID_19_"  overflow="visible"/>
		</clipPath>
		<path clip-path="url(#SVGID_20_)" fill="#FFFFFF" d="M159.57,107.814c0,3.251,2.635,5.887,5.887,5.887
			c3.25,0,5.886-2.636,5.886-5.887c0-3.252-2.636-5.889-5.886-5.889C162.205,101.927,159.57,104.563,159.57,107.814"/>
	</g>
	<g>
		<defs>
			<path id="SVGID_21_" d="M115.752,6.222c-9.943,5.122-29.271,10.589-57.984,11.866c-3.017,0.132-5.465,2.568-5.465,5.588v27.161
				c0,0,11.264,7.192,0.408,42.467c-14.918,48.48,55.286,74.914,67.835,79.935c12.55-5.021,82.751-31.453,67.833-79.935
				c-10.852-35.273,0.411-42.467,0.411-42.467V23.676c0-3.02-2.449-5.456-5.466-5.588c-28.711-1.276-48.041-6.744-57.983-11.866
				c-1.343-0.69-3.069-1.036-4.796-1.036C118.818,5.186,117.094,5.531,115.752,6.222"/>
		</defs>
		<clipPath id="SVGID_22_">
			<use xlink:href="#SVGID_21_"  overflow="visible"/>
		</clipPath>
		<path clip-path="url(#SVGID_22_)" fill="#191818" d="M165.457,115.205c-4.076,0-7.393-3.315-7.393-7.391
			c0-4.076,3.315-7.394,7.393-7.394c4.075,0,7.391,3.316,7.391,7.394C172.848,111.89,169.532,115.205,165.457,115.205
			 M165.457,103.432c-2.416,0-4.383,1.967-4.383,4.384c0,2.416,1.967,4.382,4.383,4.382c2.415,0,4.381-1.966,4.381-4.382
			C169.838,105.398,167.872,103.432,165.457,103.432"/>
	</g>
	<g>
		<defs>
			<path id="SVGID_23_" d="M115.752,6.222c-9.943,5.122-29.271,10.589-57.984,11.866c-3.017,0.132-5.465,2.568-5.465,5.588v27.161
				c0,0,11.264,7.192,0.408,42.467c-14.918,48.48,55.286,74.914,67.835,79.935c12.55-5.021,82.751-31.453,67.833-79.935
				c-10.852-35.273,0.411-42.467,0.411-42.467V23.676c0-3.02-2.449-5.456-5.466-5.588c-28.711-1.276-48.041-6.744-57.983-11.866
				c-1.343-0.69-3.069-1.036-4.796-1.036C118.818,5.186,117.094,5.531,115.752,6.222"/>
		</defs>
		<clipPath id="SVGID_24_">
			<use xlink:href="#SVGID_23_"  overflow="visible"/>
		</clipPath>
		<path clip-path="url(#SVGID_24_)" fill="#191818" d="M122.572,114.482L40.069,93.857v-9.673l82.503,8.251V114.482z M44.084,90.724
			l74.475,18.619V96.069l-74.475-7.448V90.724L44.084,90.724z"/>
	</g>
	<g>
		<defs>
			<path id="SVGID_25_" d="M115.752,6.222c-9.943,5.122-29.271,10.589-57.984,11.866c-3.017,0.132-5.465,2.568-5.465,5.588v27.161
				c0,0,11.264,7.192,0.408,42.467c-14.918,48.48,55.286,74.914,67.835,79.935c12.55-5.021,82.751-31.453,67.833-79.935
				c-10.852-35.273,0.411-42.467,0.411-42.467V23.676c0-3.02-2.449-5.456-5.466-5.588c-28.711-1.276-48.041-6.744-57.983-11.866
				c-1.343-0.69-3.069-1.036-4.796-1.036C118.818,5.186,117.094,5.531,115.752,6.222"/>
		</defs>
		<clipPath id="SVGID_26_">
			<use xlink:href="#SVGID_25_"  overflow="visible"/>
		</clipPath>
		<path clip-path="url(#SVGID_26_)" fill="#191818" d="M118.835,89.858v-9.083l24.888-2.489v5.35L118.835,89.858z M122.85,84.407
			v0.311l2.065-0.517L122.85,84.407z"/>
	</g>
	<g>
		<defs>
			<path id="SVGID_27_" d="M115.752,6.222c-9.943,5.122-29.271,10.589-57.984,11.866c-3.017,0.132-5.465,2.568-5.465,5.588v27.161
				c0,0,11.264,7.192,0.408,42.467c-14.918,48.48,55.286,74.914,67.835,79.935c12.55-5.021,82.751-31.453,67.833-79.935
				c-10.852-35.273,0.411-42.467,0.411-42.467V23.676c0-3.02-2.449-5.456-5.466-5.588c-28.711-1.276-48.041-6.744-57.983-11.866
				c-1.343-0.69-3.069-1.036-4.796-1.036C118.818,5.186,117.094,5.531,115.752,6.222"/>
		</defs>
		<clipPath id="SVGID_28_">
			<use xlink:href="#SVGID_27_"  overflow="visible"/>
		</clipPath>
		<path clip-path="url(#SVGID_28_)" fill="#191818" d="M122.732,89.858l-24.886-6.223v-5.351l24.886,2.49V89.858z M116.652,84.201
			l2.066,0.517v-0.31L116.652,84.201z"/>
	</g>
	<g>
		<defs>
			<path id="SVGID_29_" d="M115.752,6.222c-9.943,5.122-29.271,10.589-57.984,11.866c-3.017,0.132-5.465,2.568-5.465,5.588v27.161
				c0,0,11.264,7.192,0.408,42.467c-14.918,48.48,55.286,74.914,67.835,79.935c12.55-5.021,82.751-31.453,67.833-79.935
				c-10.852-35.273,0.411-42.467,0.411-42.467V23.676c0-3.02-2.449-5.456-5.466-5.588c-28.711-1.276-48.041-6.744-57.983-11.866
				c-1.343-0.69-3.069-1.036-4.796-1.036C118.818,5.186,117.094,5.531,115.752,6.222"/>
		</defs>
		<clipPath id="SVGID_30_">
			<use xlink:href="#SVGID_29_"  overflow="visible"/>
		</clipPath>
		<path clip-path="url(#SVGID_30_)" fill="#FDD00F" d="M142.15,102.102c0,11.922-9.664,21.585-21.584,21.585
			c-11.922,0-21.584-9.663-21.584-21.585c0-11.921,9.662-21.585,21.584-21.585C132.486,80.517,142.15,90.181,142.15,102.102"/>
	</g>
	<g>
		<defs>
			<path id="SVGID_31_" d="M115.752,6.222c-9.943,5.122-29.271,10.589-57.984,11.866c-3.017,0.132-5.465,2.568-5.465,5.588v27.161
				c0,0,11.264,7.192,0.408,42.467c-14.918,48.48,55.286,74.914,67.835,79.935c12.55-5.021,82.751-31.453,67.833-79.935
				c-10.852-35.273,0.411-42.467,0.411-42.467V23.676c0-3.02-2.449-5.456-5.466-5.588c-28.711-1.276-48.041-6.744-57.983-11.866
				c-1.343-0.69-3.069-1.036-4.796-1.036C118.818,5.186,117.094,5.531,115.752,6.222"/>
		</defs>
		<clipPath id="SVGID_32_">
			<use xlink:href="#SVGID_31_"  overflow="visible"/>
		</clipPath>
		<path clip-path="url(#SVGID_32_)" fill="#FFFFFF" d="M120.566,80.517c-11.922,0-21.584,9.664-21.584,21.585
			c0,11.922,9.662,21.584,21.584,21.584c0.027,0,0.055-0.002,0.082-0.002V80.519C120.621,80.519,120.594,80.517,120.566,80.517"/>
	</g>
	<g>
		<defs>
			<path id="SVGID_33_" d="M115.752,6.222c-9.943,5.122-29.271,10.589-57.984,11.866c-3.017,0.132-5.465,2.568-5.465,5.588v27.161
				c0,0,11.264,7.192,0.408,42.467c-14.918,48.48,55.286,74.914,67.835,79.935c12.55-5.021,82.751-31.453,67.833-79.935
				c-10.852-35.273,0.411-42.467,0.411-42.467V23.676c0-3.02-2.449-5.456-5.466-5.588c-28.711-1.276-48.041-6.744-57.983-11.866
				c-1.343-0.69-3.069-1.036-4.796-1.036C118.818,5.186,117.094,5.531,115.752,6.222"/>
		</defs>
		<clipPath id="SVGID_34_">
			<use xlink:href="#SVGID_33_"  overflow="visible"/>
		</clipPath>
		<path clip-path="url(#SVGID_34_)" fill="#191818" d="M120.566,125.692c-13.009,0-23.592-10.583-23.592-23.592
			c0-13.008,10.583-23.592,23.592-23.592c13.008,0,23.592,10.584,23.592,23.592C144.158,115.109,133.574,125.692,120.566,125.692
			 M120.566,82.523c-10.796,0-19.578,8.782-19.578,19.577c0,10.797,8.782,19.578,19.578,19.578c10.795,0,19.577-8.781,19.577-19.578
			C140.145,91.307,131.361,82.523,120.566,82.523"/>
	</g>
	<g>
		<defs>
			<path id="SVGID_35_" d="M115.752,6.222c-9.943,5.122-29.271,10.589-57.984,11.866c-3.017,0.132-5.465,2.568-5.465,5.588v27.161
				c0,0,11.264,7.192,0.408,42.467c-14.918,48.48,55.286,74.914,67.835,79.935c12.55-5.021,82.751-31.453,67.833-79.935
				c-10.852-35.273,0.411-42.467,0.411-42.467V23.676c0-3.02-2.449-5.456-5.466-5.588c-28.711-1.276-48.041-6.744-57.983-11.866
				c-1.343-0.69-3.069-1.036-4.796-1.036C118.818,5.186,117.094,5.531,115.752,6.222"/>
		</defs>
		<clipPath id="SVGID_36_">
			<use xlink:href="#SVGID_35_"  overflow="visible"/>
		</clipPath>
		<path clip-path="url(#SVGID_36_)" fill="#FFFFFF" d="M81.999,108.817c0,3.251-2.636,5.888-5.888,5.888
			c-3.25,0-5.886-2.637-5.886-5.888s2.636-5.888,5.886-5.888C79.363,102.931,81.999,105.566,81.999,108.817"/>
	</g>
	<g>
		<defs>
			<path id="SVGID_37_" d="M115.752,6.222c-9.943,5.122-29.271,10.589-57.984,11.866c-3.017,0.132-5.465,2.568-5.465,5.588v27.161
				c0,0,11.264,7.192,0.408,42.467c-14.918,48.48,55.286,74.914,67.835,79.935c12.55-5.021,82.751-31.453,67.833-79.935
				c-10.852-35.273,0.411-42.467,0.411-42.467V23.676c0-3.02-2.449-5.456-5.466-5.588c-28.711-1.276-48.041-6.744-57.983-11.866
				c-1.343-0.69-3.069-1.036-4.796-1.036C118.818,5.186,117.094,5.531,115.752,6.222"/>
		</defs>
		<clipPath id="SVGID_38_">
			<use xlink:href="#SVGID_37_"  overflow="visible"/>
		</clipPath>
		<path clip-path="url(#SVGID_38_)" fill="#191818" d="M76.111,115.205c-4.076,0-7.392-3.315-7.392-7.391
			c0-4.076,3.315-7.394,7.392-7.394c4.077,0,7.393,3.316,7.393,7.394C83.504,111.89,80.188,115.205,76.111,115.205 M76.111,103.432
			c-2.416,0-4.382,1.967-4.382,4.384c0,2.416,1.966,4.382,4.382,4.382s4.383-1.966,4.383-4.382
			C80.494,105.398,78.527,103.432,76.111,103.432"/>
	</g>
	<g>
		<defs>
			<path id="SVGID_39_" d="M115.752,6.222c-9.943,5.122-29.271,10.589-57.984,11.866c-3.017,0.132-5.465,2.568-5.465,5.588v27.161
				c0,0,11.264,7.192,0.408,42.467c-14.918,48.48,55.286,74.914,67.835,79.935c12.55-5.021,82.751-31.453,67.833-79.935
				c-10.852-35.273,0.411-42.467,0.411-42.467V23.676c0-3.02-2.449-5.456-5.466-5.588c-28.711-1.276-48.041-6.744-57.983-11.866
				c-1.343-0.69-3.069-1.036-4.796-1.036C118.818,5.186,117.094,5.531,115.752,6.222"/>
		</defs>
		<clipPath id="SVGID_40_">
			<use xlink:href="#SVGID_39_"  overflow="visible"/>
		</clipPath>
		<polygon clip-path="url(#SVGID_40_)" fill="#191818" points="105.602,97.576 109.557,93.62 117.469,95.598 117.469,101.532 		"/>
	</g>
	<g>
		<defs>
			<path id="SVGID_41_" d="M115.752,6.222c-9.943,5.122-29.271,10.589-57.984,11.866c-3.017,0.132-5.465,2.568-5.465,5.588v27.161
				c0,0,11.264,7.192,0.408,42.467c-14.918,48.48,55.286,74.914,67.835,79.935c12.55-5.021,82.751-31.453,67.833-79.935
				c-10.852-35.273,0.411-42.467,0.411-42.467V23.676c0-3.02-2.449-5.456-5.466-5.588c-28.711-1.276-48.041-6.744-57.983-11.866
				c-1.343-0.69-3.069-1.036-4.796-1.036C118.818,5.186,117.094,5.531,115.752,6.222"/>
		</defs>
		<clipPath id="SVGID_42_">
			<use xlink:href="#SVGID_41_"  overflow="visible"/>
		</clipPath>
		<polygon clip-path="url(#SVGID_42_)" fill="#191818" points="136.08,97.576 132.124,93.62 124.212,95.598 124.212,101.532 		"/>
	</g>
	<g>
		<defs>
			<path id="SVGID_43_" d="M115.752,6.222c-9.943,5.122-29.271,10.589-57.984,11.866c-3.017,0.132-5.465,2.568-5.465,5.588v27.161
				c0,0,11.264,7.192,0.408,42.467c-14.918,48.48,55.286,74.914,67.835,79.935c12.55-5.021,82.751-31.453,67.833-79.935
				c-10.852-35.273,0.411-42.467,0.411-42.467V23.676c0-3.02-2.449-5.456-5.466-5.588c-28.711-1.276-48.041-6.744-57.983-11.866
				c-1.343-0.69-3.069-1.036-4.796-1.036C118.818,5.186,117.094,5.531,115.752,6.222"/>
		</defs>
		<clipPath id="SVGID_44_">
			<use xlink:href="#SVGID_43_"  overflow="visible"/>
		</clipPath>
		<path clip-path="url(#SVGID_44_)" fill="#191818" d="M141.773,122.943c-1.738,0-4.408,0.146-4.408,1.886v10.414
			c0,1.737,2.67,1.885,4.408,1.885c1.735,0,1.944-0.146,1.944-1.885v-10.414C143.719,123.091,143.51,122.943,141.773,122.943"/>
	</g>
	<g>
		<defs>
			<path id="SVGID_45_" d="M115.752,6.222c-9.943,5.122-29.271,10.589-57.984,11.866c-3.017,0.132-5.465,2.568-5.465,5.588v27.161
				c0,0,11.264,7.192,0.408,42.467c-14.918,48.48,55.286,74.914,67.835,79.935c12.55-5.021,82.751-31.453,67.833-79.935
				c-10.852-35.273,0.411-42.467,0.411-42.467V23.676c0-3.02-2.449-5.456-5.466-5.588c-28.711-1.276-48.041-6.744-57.983-11.866
				c-1.343-0.69-3.069-1.036-4.796-1.036C118.818,5.186,117.094,5.531,115.752,6.222"/>
		</defs>
		<clipPath id="SVGID_46_">
			<use xlink:href="#SVGID_45_"  overflow="visible"/>
		</clipPath>
		<path clip-path="url(#SVGID_46_)" fill="#191818" d="M147.354,122.943c-1.737,0-1.945,0.146-1.945,1.886v10.414
			c0,1.737,0.208,1.885,1.945,1.885c1.736,0,4.406-0.146,4.406-1.885v-10.414C151.76,123.091,149.09,122.943,147.354,122.943"/>
	</g>
	<g>
		<defs>
			<path id="SVGID_47_" d="M115.752,6.222c-9.943,5.122-29.271,10.589-57.984,11.866c-3.017,0.132-5.465,2.568-5.465,5.588v27.161
				c0,0,11.264,7.192,0.408,42.467c-14.918,48.48,55.286,74.914,67.835,79.935c12.55-5.021,82.751-31.453,67.833-79.935
				c-10.852-35.273,0.411-42.467,0.411-42.467V23.676c0-3.02-2.449-5.456-5.466-5.588c-28.711-1.276-48.041-6.744-57.983-11.866
				c-1.343-0.69-3.069-1.036-4.796-1.036C118.818,5.186,117.094,5.531,115.752,6.222"/>
		</defs>
		<clipPath id="SVGID_48_">
			<use xlink:href="#SVGID_47_"  overflow="visible"/>
		</clipPath>
		<path clip-path="url(#SVGID_48_)" fill="#191818" d="M94.111,122.943c-1.736,0-4.406,0.146-4.406,1.886v10.414
			c0,1.737,2.67,1.885,4.406,1.885c1.737,0,1.945-0.146,1.945-1.885v-10.414C96.057,123.091,95.849,122.943,94.111,122.943"/>
	</g>
	<g>
		<defs>
			<path id="SVGID_49_" d="M115.752,6.222c-9.943,5.122-29.271,10.589-57.984,11.866c-3.017,0.132-5.465,2.568-5.465,5.588v27.161
				c0,0,11.264,7.192,0.408,42.467c-14.918,48.48,55.286,74.914,67.835,79.935c12.55-5.021,82.751-31.453,67.833-79.935
				c-10.852-35.273,0.411-42.467,0.411-42.467V23.676c0-3.02-2.449-5.456-5.466-5.588c-28.711-1.276-48.041-6.744-57.983-11.866
				c-1.343-0.69-3.069-1.036-4.796-1.036C118.818,5.186,117.094,5.531,115.752,6.222"/>
		</defs>
		<clipPath id="SVGID_50_">
			<use xlink:href="#SVGID_49_"  overflow="visible"/>
		</clipPath>
		<path clip-path="url(#SVGID_50_)" fill="#191818" d="M99.691,122.943c-1.737,0-1.946,0.146-1.946,1.886v10.414
			c0,1.737,0.209,1.885,1.946,1.885c1.736,0,4.406-0.146,4.406-1.885v-10.414C104.098,123.091,101.428,122.943,99.691,122.943"/>
	</g>
	<g>
		<defs>
			<path id="SVGID_51_" d="M115.752,6.222c-9.943,5.122-29.271,10.589-57.984,11.866c-3.017,0.132-5.465,2.568-5.465,5.588v27.161
				c0,0,11.264,7.192,0.408,42.467c-14.918,48.48,55.286,74.914,67.835,79.935c12.55-5.021,82.751-31.453,67.833-79.935
				c-10.852-35.273,0.411-42.467,0.411-42.467V23.676c0-3.02-2.449-5.456-5.466-5.588c-28.711-1.276-48.041-6.744-57.983-11.866
				c-1.343-0.69-3.069-1.036-4.796-1.036C118.818,5.186,117.094,5.531,115.752,6.222"/>
		</defs>
		<clipPath id="SVGID_52_">
			<use xlink:href="#SVGID_51_"  overflow="visible"/>
		</clipPath>
		<path clip-path="url(#SVGID_52_)" fill="#191818" d="M103.875,132.181l-2.078-3.433c3.034-1.843,7.309-5.471,7.309-7.771h4.014
			C113.119,126.317,105.418,131.246,103.875,132.181"/>
	</g>
	<g>
		<defs>
			<path id="SVGID_53_" d="M115.752,6.222c-9.943,5.122-29.271,10.589-57.984,11.866c-3.017,0.132-5.465,2.568-5.465,5.588v27.161
				c0,0,11.264,7.192,0.408,42.467c-14.918,48.48,55.286,74.914,67.835,79.935c12.55-5.021,82.751-31.453,67.833-79.935
				c-10.852-35.273,0.411-42.467,0.411-42.467V23.676c0-3.02-2.449-5.456-5.466-5.588c-28.711-1.276-48.041-6.744-57.983-11.866
				c-1.343-0.69-3.069-1.036-4.796-1.036C118.818,5.186,117.094,5.531,115.752,6.222"/>
		</defs>
		<clipPath id="SVGID_54_">
			<use xlink:href="#SVGID_53_"  overflow="visible"/>
		</clipPath>
		<path clip-path="url(#SVGID_54_)" fill="#191818" d="M138.027,132.181c-1.545-0.935-9.244-5.862-9.244-11.202h4.014
			c0,2.283,4.361,5.985,7.309,7.769L138.027,132.181z"/>
	</g>
</g>
<path fill="#191818" d="M120.546,13.552c0.526,0,0.894,0.091,1.006,0.13c13.13,6.748,34.478,11.32,58.872,12.638v21.295
	c-1.498,2.068-3.057,5.072-4.053,9.313c-2.281,9.702-0.932,22.771,4.013,38.836c5.108,16.601-1.272,31.72-19.505,46.222
	c-14.387,11.443-31.92,18.868-40.333,22.248c-8.412-3.38-25.946-10.805-40.333-22.248c-18.232-14.502-24.612-29.621-19.506-46.222
	c4.943-16.065,6.295-29.134,4.014-38.836c-0.997-4.24-2.555-7.243-4.053-9.313V26.32c24.393-1.318,45.742-5.891,58.871-12.638
	C119.652,13.643,120.019,13.552,120.546,13.552 M120.546,5.186c-1.726,0-3.452,0.346-4.794,1.037
	c-9.943,5.12-29.272,10.587-57.984,11.864c-3.018,0.134-5.466,2.57-5.466,5.589v27.161c0,0,11.264,7.192,0.409,42.466
	c-14.916,48.482,55.285,74.915,67.835,79.935c12.549-5.02,82.751-31.451,67.834-79.935c-10.853-35.273,0.409-42.466,0.409-42.466
	V23.676c0-3.019-2.448-5.455-5.465-5.589c-28.713-1.276-48.041-6.744-57.983-11.864C123.998,5.531,122.271,5.186,120.546,5.186"/>
<polygon fill="#FFFFFF" points="91.492,29.669 84.033,28.539 80.713,21.44 77.392,28.539 69.934,29.669 75.323,35.204 
	73.976,42.999 80.713,39.317 87.449,42.999 86.103,35.204 "/>
<polygon fill="#FFFFFF" points="171.158,29.669 163.7,28.539 160.379,21.44 157.059,28.539 149.6,29.669 154.99,35.204 
	153.643,42.999 160.379,39.317 167.115,42.999 165.77,35.204 "/>
<path fill="#020202" d="M213.363,95.313c0.146,1.75-0.152,3.623,0.186,5.469c0.328,0.773,0.594,1.554,0.873,2.349
	c0.82,2.085,1.734,3.99,3.311,4.866c1.284-2.557,2.464-5.286,2.743-8.497c-0.084-2.099-0.509-4.063-1.249-5.928
	c-1.149-2.94-3.061-5.579-5.613-7.852c-0.081-0.079-0.143-0.109-0.186-0.17l-0.414-0.012c0.092,0.271,0.164,0.577,0.246,0.886
	C213.938,89.31,213.643,92.102,213.363,95.313"/>
<path fill="#020202" d="M213.561,113.092c-1.815-3.577-5.512-6.851-6.379-10.245l-0.531-0.223c-1.338,3.336-1.192,7.327-0.17,10.951
	c1.109,4.704,3.424,8.368,4.508,12.993c0.195,0.891,0.354,1.774,0.46,2.741c6.957-5.049,13.369-10.808,15.183-19.896l-12.193,6.129
	C214.273,114.695,213.943,113.857,213.561,113.092"/>
<path fill="#020202" d="M193.959,154.25c-0.916-0.018-1.783-0.027-2.639,0.014c3.211-4.569,2.289-10.163,4.059-15.119l-0.018-0.219
	c-5.329,2.008-8.125,6.701-10.73,11.657c-1.861,3.592-3.684,7.274-6.34,9.994c1.109,0.08,2.152,0.229,3.234,0.388
	c1.121,0.163,2.274,0.386,3.436,0.692c2.305,0.135,4.58,0.236,6.73,0.167c4.035-0.172,7.795-0.855,11.037-2.606
	c1.502-0.798,2.901-1.849,4.131-3.161c-0.948-0.153-1.991-0.342-3.027-0.522C200.566,154.978,197.133,154.408,193.959,154.25"/>
<path fill="#020202" d="M206.959,138.676c-1.496-5.035-4.275-10.121-3.865-15.641l-0.143-0.219l-0.374,0.165
	c-0.045,0.035-0.099,0.107-0.101,0.144c-0.293,0.5-0.603,0.786-1.138,1.301c-3.805,6.707-3.229,14.779-1.274,21.92
	c0.319,1.177,0.653,2.295,1.063,3.426c3.422-2.677,7.645-3.359,11.441-5.307c0.343-0.207,0.678-0.37,1.031-0.582
	c3.659-2.642,5.886-7.008,6.841-11.184c-2.373,0.757-4.7,1.368-6.876,2.187C211.219,135.731,208.956,136.873,206.959,138.676"/>
<path fill="#020202" d="M28.158,95.442c-0.24,1.739-0.044,3.626-0.482,5.449c-0.368,0.756-0.674,1.521-0.996,2.3
	c-0.932,2.036-1.947,3.89-3.568,4.68c-1.145-2.622-2.175-5.41-2.281-8.632c0.197-2.091,0.727-4.029,1.566-5.854
	c1.307-2.873,3.357-5.406,6.027-7.536c0.086-0.074,0.149-0.103,0.195-0.159l0.414,0.011c-0.107,0.266-0.195,0.565-0.294,0.871
	C27.908,89.417,28.051,92.221,28.158,95.442"/>
<path fill="#020202" d="M27.883,113.092c1.816-3.577,5.512-6.851,6.379-10.245l0.531-0.223c1.338,3.336,1.193,7.327,0.17,10.951
	c-1.109,4.704-3.424,8.368-4.508,12.993c-0.194,0.891-0.354,1.774-0.459,2.741c-6.957-5.049-13.369-10.808-15.183-19.896
	l12.194,6.129C27.17,114.695,27.5,113.857,27.883,113.092"/>
<path fill="#020202" d="M47.485,154.25c0.915-0.018,1.782-0.027,2.638,0.014c-3.211-4.569-2.29-10.163-4.059-15.119l0.018-0.219
	c5.329,2.008,8.124,6.701,10.73,11.657c1.861,3.592,3.684,7.274,6.34,9.994c-1.109,0.08-2.153,0.229-3.234,0.388
	c-1.122,0.163-2.275,0.386-3.436,0.692c-2.305,0.135-4.58,0.236-6.731,0.167c-4.034-0.172-7.795-0.855-11.037-2.606
	c-1.501-0.798-2.901-1.849-4.131-3.161c0.949-0.153,1.992-0.342,3.028-0.522C40.876,154.978,44.311,154.408,47.485,154.25"/>
<path fill="#020202" d="M34.485,138.676c1.495-5.035,4.274-10.121,3.864-15.641l0.143-0.219l0.374,0.165
	c0.045,0.035,0.098,0.107,0.101,0.144c0.293,0.5,0.602,0.786,1.137,1.301c3.805,6.707,3.229,14.779,1.275,21.92
	c-0.32,1.177-0.654,2.295-1.063,3.426c-3.422-2.677-7.645-3.359-11.442-5.307c-0.342-0.207-0.677-0.37-1.03-0.582
	c-3.66-2.642-5.886-7.008-6.841-11.184c2.373,0.757,4.7,1.368,6.876,2.187C30.225,135.731,32.487,136.873,34.485,138.676"/>
<polygon fill="#FFFFFF" points="173.713,183.362 121.42,197.546 69.127,181.857 69.127,154.337 121.42,170.024 173.713,154.337 "/>
<path fill="#020202" d="M121.419,198.469l-54.551-13.334V151.46l54.551,13.335l54.552-13.335v33.675L121.419,198.469z
	 M71.385,181.59l50.034,12.231l50.036-12.231v-24.378l-50.036,12.232l-50.034-12.232V181.59L71.385,181.59z"/>
<polygon fill="#020202" points="150.2,160.524 176.037,151.546 162.964,141.765 141.95,159.776 "/>
<polygon fill="#020202" points="92.598,160.524 66.761,151.546 79.834,141.765 100.848,159.776 "/>
<polygon fill="#020202" points="93.27,170.951 90.68,165.414 88.09,170.951 82.271,171.833 86.476,176.15 85.425,182.23 
	90.68,179.359 95.935,182.23 94.884,176.15 99.088,171.833 "/>
<polygon fill="#020202" points="123.957,177.027 121.098,170.917 118.239,177.027 111.818,178.001 116.457,182.766 115.297,189.477 
	121.098,186.308 126.896,189.477 125.736,182.766 130.377,178.001 "/>
<polygon fill="#020202" points="154.294,170.951 151.703,165.414 149.113,170.951 143.296,171.833 147.5,176.15 146.449,182.23 
	151.703,179.359 156.959,182.23 155.908,176.15 160.111,171.833 "/>
</svg>
