<?xml version="1.0" encoding="utf-8"?>
<!-- Generator: Adobe Illustrator 16.0.0, SVG Export Plug-In . SVG Version: 6.00 Build 0)  -->
<!DOCTYPE svg PUBLIC "-//W3C//DTD SVG 1.1//EN" "http://www.w3.org/Graphics/SVG/1.1/DTD/svg11.dtd">
<svg version="1.1" id="Layer_1" xmlns="http://www.w3.org/2000/svg" xmlns:xlink="http://www.w3.org/1999/xlink" x="0px" y="0px"
	 width="612px" height="792px" viewBox="0 0 612 792" enable-background="new 0 0 612 792" xml:space="preserve">
<path fill="none" d="M346.63,60"/>
<path fill="none" d="M346.63,3305.597"/>
<path fill="#FECF0A" d="M370.396,387.303c-10.15-32.987-1.588-41.101,0.215-42.339h-67.617h-68.482
	c1.804,1.238,10.367,9.352,0.217,42.339c-14.918,48.481,55.285,74.915,67.834,79.935c0.137-0.054,0.281-0.112,0.432-0.172
	C316.631,461.639,385.151,435.257,370.396,387.303"/>
<g opacity="0.6">
	<g>
		<defs>
			<rect id="SVGID_1_" x="302.49" y="344.96" width="69.47" height="122.101"/>
		</defs>
		<clipPath id="SVGID_2_">
			<use xlink:href="#SVGID_1_"  overflow="visible"/>
		</clipPath>
		<path clip-path="url(#SVGID_2_)" fill="#CDA72C" d="M369.895,387.303c-10.15-32.987-1.587-41.101,0.215-42.339h-67.617v122.102
			C316.13,461.639,384.65,435.257,369.895,387.303"/>
	</g>
</g>
<g opacity="0.4">
	<g>
		<defs>
			<rect id="SVGID_3_" x="232.66" y="299.19" width="139.811" height="168.05"/>
		</defs>
		<clipPath id="SVGID_4_">
			<use xlink:href="#SVGID_3_"  overflow="visible"/>
		</clipPath>
		<path clip-path="url(#SVGID_4_)" fill="#FFFFFF" d="M302.563,313.247c12.873,6.204,32.308,10.53,54.447,12.167v14.542
			c-1.519,2.447-2.946,5.632-3.908,9.729c-2.506,10.653-1.122,24.675,4.107,41.676c2.33,7.568,1.857,14.6-1.443,21.499
			c-3.051,6.373-8.519,12.725-16.252,18.875c-12.736,10.132-28.211,17.049-36.951,20.637c-8.742-3.588-24.215-10.505-36.952-20.637
			c-7.733-6.15-13.201-12.502-16.251-18.875c-3.301-6.898-3.773-13.931-1.445-21.499c5.23-17.001,6.614-31.023,4.109-41.676
			c-0.963-4.097-2.391-7.282-3.908-9.729v-14.542C270.254,323.777,289.69,319.451,302.563,313.247 M302.563,299.186
			c-1.727,0-3.453,0.347-4.795,1.037c-9.942,5.12-29.271,10.588-57.984,11.864c-3.016,0.134-5.465,2.57-5.465,5.589v27.161
			c0,0,11.263,7.192,0.41,42.466c-14.918,48.482,55.285,74.915,67.834,79.934c12.549-5.019,82.751-31.451,67.834-79.934
			c-10.854-35.274,0.41-42.466,0.41-42.466v-27.161c0-3.019-2.449-5.455-5.465-5.589c-28.713-1.276-48.043-6.744-57.984-11.864
			C306.016,299.532,304.288,299.186,302.563,299.186"/>
	</g>
</g>
<path fill="#191818" d="M370.807,317.676c0-3.02-2.449-5.455-5.465-5.589c-28.713-1.276-48.043-6.744-57.984-11.865
	c-2.686-1.382-6.904-1.382-9.59,0c-9.942,5.121-29.271,10.589-57.984,11.865c-3.016,0.134-5.465,2.569-5.465,5.589v27.161
	c0,0,0.07,0.041,0.193,0.127h136.1c0.125-0.086,0.195-0.127,0.195-0.127V317.676z"/>
<path fill="#191818" d="M302.563,307.552c0.527,0,0.894,0.091,1.006,0.13c13.13,6.748,34.479,11.32,58.872,12.638v21.295
	c-1.498,2.069-3.056,5.072-4.054,9.313c-2.28,9.702-0.93,22.77,4.014,38.836c5.107,16.6-1.273,31.719-19.506,46.221
	c-14.387,11.444-31.92,18.869-40.332,22.248c-8.412-3.379-25.946-10.804-40.333-22.248c-18.232-14.502-24.612-29.621-19.505-46.221
	c4.943-16.066,6.293-29.134,4.013-38.836c-0.997-4.241-2.556-7.243-4.054-9.313V320.32c24.394-1.318,45.744-5.89,58.873-12.638
	C301.668,307.643,302.035,307.552,302.563,307.552 M302.563,299.186c-1.727,0-3.453,0.346-4.795,1.037
	c-9.942,5.12-29.271,10.588-57.984,11.864c-3.016,0.134-5.465,2.57-5.465,5.589v27.161c0,0,11.263,7.192,0.41,42.466
	c-14.918,48.482,55.285,74.915,67.834,79.934c12.549-5.019,82.751-31.451,67.834-79.934c-10.854-35.274,0.41-42.466,0.41-42.466
	v-27.161c0-3.019-2.449-5.455-5.465-5.589c-28.713-1.276-48.043-6.744-57.984-11.864
	C306.016,299.531,304.288,299.186,302.563,299.186"/>
<path fill="#FFFFFF" d="M279.426,333.241l2.407-2.528c1.024,1.325,2.619,2.198,4.306,2.198c2.106,0,3.07-1.114,3.07-2.68
	c0-1.866-1.295-2.529-3.252-2.529c-0.662,0-1.564,0-1.866,0.061v-3.643c0.302,0.03,1.294,0.03,1.776,0.03
	c1.836,0,3.07-0.753,3.07-2.318c0-1.686-1.203-2.499-2.951-2.499c-1.564,0-2.979,0.722-4.002,2.017l-2.288-2.348
	c1.444-2.017,3.733-3.251,6.622-3.251c3.975,0,6.594,1.896,6.594,5.449c0,2.288-1.716,4.154-3.794,4.576
	c2.048,0.301,4.095,2.107,4.095,4.817c0,3.492-2.68,5.9-6.895,5.9C283.127,336.493,280.689,335.078,279.426,333.241"/>
<path fill="#FFFFFF" d="M294.475,326.106c0-5.179,2.138-10.355,7.105-10.355c4.997,0,7.105,5.177,7.105,10.355
	c0,5.147-2.078,10.387-7.105,10.387C296.612,336.493,294.475,331.254,294.475,326.106 M304.59,326.106
	c0-3.884-0.662-6.773-3.01-6.773c-2.318,0-2.98,2.89-2.98,6.773c0,3.854,0.662,6.805,2.98,6.805
	C303.928,332.911,304.59,329.961,304.59,326.106"/>
<path fill="#FFFFFF" d="M309.887,326.106c0-5.179,2.138-10.355,7.104-10.355c4.998,0,7.106,5.177,7.106,10.355
	c0,5.147-2.078,10.387-7.106,10.387C312.024,336.493,309.887,331.254,309.887,326.106 M320.002,326.106
	c0-3.884-0.662-6.773-3.011-6.773c-2.317,0-2.979,2.89-2.979,6.773c0,3.854,0.662,6.805,2.979,6.805
	C319.34,332.911,320.002,329.961,320.002,326.106"/>
<path fill="#191818" d="M337.18,403.811c-2.641,0-6.695,0.223-6.695,2.862v15.822c0,2.64,4.055,2.863,6.695,2.863
	c2.639,0,6.695-0.224,6.695-2.863v-15.822C343.875,404.033,339.818,403.811,337.18,403.811"/>
<path fill="#191818" d="M267.443,403.811c-2.64,0-6.695,0.223-6.695,2.862v15.822c0,2.64,4.056,2.863,6.695,2.863
	c2.641,0,6.695-0.224,6.695-2.863v-15.822C274.139,404.033,270.084,403.811,267.443,403.811"/>
<path fill="#FECF0A" d="M261.664,380.321l-4.879,9.532l4.961,20.693c0.129,1.675,1.525,2.994,3.233,2.994
	c6.493,0,12.063,2.508,18.557,2.508c1.628,0,2.972-1.198,3.206-2.761h31.096c0.234,1.563,1.578,2.761,3.205,2.761
	c6.493,0,12.065-2.508,18.559-2.508c1.626,0,2.971-1.198,3.205-2.762h0.015l5.017-20.926l-4.879-9.532H261.664z"/>
<path fill="#FFFFFF" d="M342.821,380.053h-9.593l-3.902-10.064c-0.38-2.744-2.936-4.969-5.706-4.969h-42.617
	c-2.771,0-5.325,2.226-5.706,4.969l-3.902,10.064h-9.592l-0.139,0.269h81.294L342.821,380.053z"/>
<rect x="290.767" y="381.324" fill="#FFFFFF" width="21.573" height="33.363"/>
<path fill="#FFFFFF" d="M279.279,397.196c0,3.937-3.191,7.127-7.127,7.127c-3.938,0-7.127-3.19-7.127-7.127
	c0-3.936,3.189-7.127,7.127-7.127C276.088,390.069,279.279,393.261,279.279,397.196"/>
<path fill="#191818" d="M272.152,405.703c-4.691,0-8.507-3.815-8.507-8.507c0-4.689,3.815-8.507,8.507-8.507
	c4.689,0,8.506,3.817,8.506,8.507C280.658,401.888,276.842,405.703,272.152,405.703 M272.152,391.449
	c-3.17,0-5.746,2.578-5.746,5.747s2.576,5.747,5.746,5.747c3.168,0,5.746-2.578,5.746-5.747S275.32,391.449,272.152,391.449"/>
<path fill="#191818" d="M274.379,394.864l-4.41,4.692c0.582,0.572,1.379,0.926,2.26,0.926c1.778,0,3.221-1.442,3.221-3.221
	C275.449,396.309,275.035,395.454,274.379,394.864"/>
<path fill="#FFFFFF" d="M338.727,397.196c0,3.937-3.191,7.127-7.127,7.127s-7.126-3.19-7.126-7.127c0-3.936,3.19-7.127,7.126-7.127
	S338.727,393.261,338.727,397.196"/>
<path fill="#191818" d="M331.6,405.703c-4.689,0-8.507-3.815-8.507-8.507c0-4.689,3.817-8.507,8.507-8.507
	c4.69,0,8.508,3.817,8.508,8.507C340.107,401.888,336.29,405.703,331.6,405.703 M331.6,391.449c-3.169,0-5.746,2.578-5.746,5.747
	s2.577,5.747,5.746,5.747c3.17,0,5.747-2.578,5.747-5.747S334.77,391.449,331.6,391.449"/>
<path fill="#191818" d="M333.826,394.864l-4.41,4.692c0.582,0.572,1.379,0.926,2.26,0.926c1.779,0,3.222-1.442,3.222-3.221
	C334.897,396.309,334.483,395.454,333.826,394.864"/>
<path fill="#FFFFFF" d="M316.998,399.025c0-2.312-1.875-4.187-4.188-4.187h-22.236c-2.312,0-4.187,1.875-4.187,4.187
	c0,2.313,1.875,4.188,4.187,4.188h22.236C315.123,403.213,316.998,401.339,316.998,399.025"/>
<path fill="#191818" d="M312.811,404.593h-22.236c-3.068,0-5.566-2.498-5.566-5.567c0-3.069,2.498-5.566,5.566-5.566h22.236
	c3.07,0,5.566,2.498,5.566,5.566C318.377,402.095,315.881,404.593,312.811,404.593 M290.574,396.219
	c-1.548,0-2.807,1.259-2.807,2.807c0,1.549,1.259,2.807,2.807,2.807h22.236c1.548,0,2.807-1.258,2.807-2.807
	c0-1.548-1.259-2.807-2.807-2.807H290.574z"/>
<rect x="268.943" y="378.071" fill="#191818" width="65.472" height="4"/>
<path fill="#191718" d="M338.171,378.577c-1.503,1.502-3.938,1.502-5.439,0c-1.503-1.502-1.503-3.938,0-5.44
	c1.501-1.502,5.71-3.276,7.214-1.773C341.447,372.866,339.673,377.075,338.171,378.577"/>
<path fill="#191718" d="M266.303,378.577c1.502,1.502,3.938,1.502,5.44,0c1.502-1.502,1.502-3.938,0-5.44s-5.712-3.276-7.214-1.773
	C263.027,372.866,264.801,377.075,266.303,378.577"/>
<rect x="305.944" y="363.501" transform="matrix(0.8538 0.5207 -0.5207 0.8538 238.7245 -105.5878)" fill="#191818" width="2.759" height="17.337"/>
<rect x="313.72" y="363.5" transform="matrix(0.8538 0.5207 -0.5207 0.8538 239.8617 -109.6368)" fill="#191818" width="2.759" height="17.338"/>
<path fill="#191818" d="M321.043,418.05c-1.956,0-3.713-1.11-4.611-2.762h-28.283c-0.898,1.651-2.656,2.762-4.611,2.762
	c-3.453,0-6.621-0.659-9.687-1.296c-2.999-0.625-5.831-1.213-8.872-1.213c-2.662,0-4.917-2.035-5.211-4.664l-5.101-21.275
	l5.913-11.548h9.445l3.33-8.587c0.631-3.635,3.94-6.447,7.646-6.447h42.619c3.705,0,7.016,2.812,7.646,6.447l3.33,8.587h9.445
	l5.912,11.548l-5.557,23.179h-0.187c-0.897,1.651-2.655,2.761-4.611,2.761c-3.041,0-5.873,0.588-8.872,1.213
	C327.664,417.391,324.496,418.05,321.043,418.05 M285.021,411.288h34.537l0.256,1.702c0.092,0.604,0.619,1.06,1.229,1.06
	c3.041,0,5.874-0.589,8.873-1.214c3.064-0.637,6.232-1.295,9.685-1.295c0.609,0,1.138-0.455,1.229-1.059l0.255-1.702h0.159
	l4.477-18.674l-4.123-8.053h-9.738l-4.483-11.56l-0.032-0.23c-0.243-1.758-1.947-3.244-3.723-3.244h-42.619
	c-1.775,0-3.48,1.486-3.723,3.244l-0.033,0.23l-4.483,11.56h-9.737l-4.123,8.053l4.838,20.286c0.049,0.644,0.594,1.148,1.238,1.148
	c3.452,0,6.621,0.658,9.686,1.295c3,0.625,5.832,1.214,8.873,1.214c0.609,0,1.137-0.455,1.228-1.06L285.021,411.288z"/>
<polygon fill="#FFFFFF" points="273.508,323.677 266.049,322.546 262.729,315.448 259.408,322.546 251.95,323.677 257.339,329.211 
	255.992,337.006 262.729,333.325 269.466,337.006 268.118,329.211 "/>
<polygon fill="#FFFFFF" points="353.175,323.677 345.717,322.546 342.396,315.448 339.074,322.546 331.617,323.677 337.006,329.211 
	335.658,337.006 342.396,333.325 349.133,337.006 347.785,329.211 "/>
<path fill="#1A1A19" d="M302.535,470.57c-3.51-1.403-11.533-4.484-20.939-9.254v14.698c11.414,7.014,20.566,11.113,20.566,11.113
	l0.399-0.001l0.399,0.001c0,0,9.152-4.1,20.567-11.113v-14.726c-9.062,4.597-16.847,7.632-20.56,9.109
	C302.817,470.458,302.672,470.517,302.535,470.57"/>
<path fill="#1A1A19" d="M249.266,450.647c8.119,9.569,19.146,17.858,29.014,24.17v-15.224c-9.689-5.161-20.402-12.017-29.014-20.575
	V450.647z"/>
<path fill="#1A1A19" d="M326.845,474.817c9.868-6.312,20.895-14.601,29.014-24.17v-11.686c-9.12,9.081-19.7,15.637-29.014,20.602
	V474.817z"/>
</svg>
