<?xml version="1.0" encoding="utf-8"?>
<!-- Generator: Adobe Illustrator 16.0.0, SVG Export Plug-In . SVG Version: 6.00 Build 0)  -->
<!DOCTYPE svg PUBLIC "-//W3C//DTD SVG 1.1//EN" "http://www.w3.org/Graphics/SVG/1.1/DTD/svg11.dtd">
<svg version="1.1" id="Layer_1" xmlns="http://www.w3.org/2000/svg" xmlns:xlink="http://www.w3.org/1999/xlink" x="0px" y="0px"
	 width="215px" height="195px" viewBox="0 0 215 195" enable-background="new 0 0 215 195" xml:space="preserve">
<path fill="#929497" d="M865.52-66.557"/>
<path fill="#929497" d="M-1276.484-66.557"/>
<path fill="#929497" d="M-1276.484-65.807"/>
<path fill="#929497" d="M865.52-65.807"/>
<path fill="#929497" d="M1187.52-65.557"/>
<path fill="#929497" d="M-954.484-65.557"/>
<path fill="#929497" d="M-954.484-64.807"/>
<path fill="#929497" d="M1187.52-64.807"/>
<path fill="none" d="M65.63-1567.76"/>
<path fill="none" d="M65.63,1677.837"/>
<path fill="#4A4A4A" d="M178.195,51.946l-65.507-37.82c-1.396-0.806-3.157-1.271-4.983-1.416v-0.038
	c-0.162-0.007-0.324-0.017-0.486-0.018c-2.309-0.028-4.633,0.46-6.385,1.472l-65.506,37.82c-3.412,1.969-6.203,6.804-6.203,10.743
	v75.641c0,3.939,2.791,8.774,6.203,10.743l65.506,37.821c1.752,1.011,4.076,1.498,6.385,1.472c0.162-0.002,0.324-0.012,0.486-0.019
	v-0.037c1.826-0.146,3.588-0.611,4.983-1.416l65.507-37.821c3.411-1.969,6.202-6.804,6.202-10.743V62.689
	C184.397,58.75,181.606,53.915,178.195,51.946"/>
<g opacity="0.6">
	<g>
		<defs>
			<rect id="SVGID_1_" x="107.15" y="12.67" width="77.25" height="175.68"/>
		</defs>
		<clipPath id="SVGID_2_">
			<use xlink:href="#SVGID_1_"  overflow="visible"/>
		</clipPath>
		<path clip-path="url(#SVGID_2_)" fill="#010101" d="M178.195,149.073c3.411-1.97,6.202-6.804,6.202-10.743V62.689
			c0-3.939-2.791-8.773-6.202-10.743l-65.507-37.82c-1.538-0.888-3.515-1.366-5.536-1.453v175.675
			c2.021-0.088,3.998-0.567,5.536-1.454L178.195,149.073z"/>
	</g>
</g>
<path fill="#1A1A19" d="M107.037,20.933l0.084,0.001c1.125,0.013,1.823,0.273,1.979,0.363l65.507,37.82
	c0.848,0.489,2.063,2.593,2.063,3.572v75.641c0,0.979-1.215,3.082-2.063,3.572l-65.506,37.82c-0.156,0.09-0.854,0.35-1.976,0.364
	h-0.088c-1.17,0-1.898-0.27-2.063-0.364l-65.506-37.82c-0.85-0.49-2.063-2.593-2.063-3.572V62.689c0-0.979,1.214-3.083,2.063-3.572
	l65.506-37.82C105.139,21.203,105.867,20.933,107.037,20.933 M107.037,12.652c-2.25,0-4.496,0.489-6.203,1.474l-65.506,37.82
	c-3.412,1.97-6.203,6.805-6.203,10.744v75.641c0,3.939,2.791,8.773,6.203,10.744l65.506,37.819c1.707,0.985,3.955,1.474,6.203,1.474
	c0.061,0,0.121,0,0.184-0.002c2.187-0.025,4.359-0.514,6.02-1.472l65.506-37.819c3.412-1.971,6.203-6.805,6.203-10.744V62.689
	c0-3.938-2.791-8.773-6.203-10.744l-65.506-37.82c-1.66-0.958-3.833-1.446-6.02-1.472C107.159,12.652,107.098,12.652,107.037,12.652
	"/>
<g opacity="0.4">
	<g>
		<defs>
			<rect id="SVGID_3_" x="29.13" y="12.65" width="155.82" height="175.72"/>
		</defs>
		<clipPath id="SVGID_4_">
			<use xlink:href="#SVGID_3_"  overflow="visible"/>
		</clipPath>
		<path clip-path="url(#SVGID_4_)" fill="#FFFFFF" d="M107.037,28.073l62.732,36.219v72.436l-62.732,36.22l-62.731-36.22V64.292
			L107.037,28.073 M107.035,12.652c-2.247,0-4.495,0.489-6.199,1.474l-65.508,37.82c-3.41,1.97-6.203,6.805-6.203,10.744v75.641
			c0,3.939,2.793,8.773,6.203,10.744l65.508,37.819c1.704,0.985,3.952,1.474,6.199,1.474c0.063,0,0.123,0,0.184-0.002
			c2.188-0.025,4.362-0.514,6.021-1.472l65.507-37.819c3.411-1.971,6.202-6.805,6.202-10.744V62.689
			c0-3.938-2.791-8.773-6.202-10.744l-65.507-37.82c-1.659-0.958-3.834-1.446-6.021-1.472
			C107.158,12.652,107.098,12.652,107.035,12.652"/>
	</g>
</g>
<g>
	<defs>
		<path id="SVGID_5_" d="M30.716,116.75l0.127,21.304c0.021,3.864,2.786,8.589,6.146,10.5l64.465,36.716
			c3.357,1.912,8.834,1.881,12.169-0.072l30.487-17.844c-9.998-14.075-23.15-26.244-39.142-35.352
			c-19.096-10.876-39.875-16.043-60.384-16.041C39.939,115.961,35.311,116.227,30.716,116.75"/>
	</defs>
	<clipPath id="SVGID_6_">
		<use xlink:href="#SVGID_5_"  overflow="visible"/>
	</clipPath>
	<path clip-path="url(#SVGID_6_)" fill="#5F9AD2" d="M-16.025,344.453c-58.668-33.411-79.141-108.057-45.729-166.723
		c33.411-58.668,108.055-79.142,166.723-45.729c58.666,33.411,79.14,108.056,45.729,166.723
		C117.285,357.391,42.642,377.864-16.025,344.453"/>
	<polygon clip-path="url(#SVGID_6_)" fill="#AAD26C" points="159.316,282.573 143.393,281.711 144.893,270.842 154.854,255.41 
		149.652,241.896 142.482,264.779 122.639,260.513 129.696,248.117 129.684,239.903 137.213,201.982 123.551,193.03 
		124.301,187.596 144.393,187.313 142.6,169.877 135.641,163.569 127.695,175.459 122.752,165.609 108.588,157.543 100.768,167.157 
		98.381,177.523 64.799,199.434 44.572,193.776 27.541,213.389 11.729,202.037 14.36,187.122 4.229,171.974 9.383,152.631 
		-2.262,140.138 -3.171,123.205 -31.623,109.347 -19.02,87.213 21.582,112.682 42.965,130.722 51.817,135.764 75.563,127.01 
		91.756,139.749 101.506,153.51 112.622,150.461 124.131,157.015 129.813,153.215 140.547,148.777 167.229,161.627 199.125,196.206 
			"/>
	<polygon clip-path="url(#SVGID_6_)" fill="#AAD26C" points="111.506,339.761 101.879,323.726 95.682,320.196 79.523,332.099 
		63.588,323.022 73.033,300.264 60.527,303.693 49.805,316.346 55.252,325.31 37.322,336.204 15.115,358.729 83.775,388.453 	"/>
	<polygon clip-path="url(#SVGID_6_)" fill="#AAD26C" points="3.102,353.06 17.6,329.661 37.176,322.051 47.383,302.069 
		45.846,288.298 46.842,278.313 21.661,254.593 -3.854,262.338 -15.832,281.31 -29.727,285.122 -34.423,270.722 -53.507,269.233 
		-60.859,253.322 -73.758,247.148 -100.205,221.533 -130.85,265.049 -24.713,344.255 	"/>
	<polygon clip-path="url(#SVGID_6_)" fill="#AAD26C" points="150.118,300.783 133.408,280.716 122.92,280.604 126.35,293.109 
		128.66,317.875 	"/>
	<polygon clip-path="url(#SVGID_6_)" fill="#AAD26C" points="85.259,307.958 92.431,315.95 80.897,321.105 74.824,315.303 	"/>
</g>
<g>
	<defs>
		<path id="SVGID_7_" d="M100.453,15.821L36.424,53.295c-1.621,0.95-3.093,2.565-4.174,4.414c-1.146,1.957-1.857,4.174-1.848,6.159
			l0.439,74.187c0.023,3.863,2.787,8.588,6.146,10.499l64.465,36.716c3.357,1.912,8.834,1.881,12.169-0.071l64.028-37.474
			c1.711-1.002,3.257-2.746,4.352-4.727c1.041-1.876,1.68-3.965,1.67-5.845l-0.439-74.188c-0.022-3.863-2.787-8.588-6.146-10.501
			l-64.465-36.715c-1.656-0.942-3.827-1.412-6.002-1.412C104.384,14.337,102.145,14.833,100.453,15.821"/>
	</defs>
	<clipPath id="SVGID_8_">
		<use xlink:href="#SVGID_7_"  overflow="visible"/>
	</clipPath>
	<path clip-path="url(#SVGID_8_)" fill="#FFFFFF" d="M44.584,115.961c20.51-0.001,41.287,5.165,60.385,16.04
		c58.666,33.411,79.14,108.056,45.729,166.723c-22.535,39.571-63.841,61.769-106.339,61.769c-20.509,0-41.288-5.164-60.384-16.039
		c-58.667-33.411-79.141-108.056-45.729-166.724C-39.219,138.16,2.086,115.965,44.584,115.961 M44.595,107.299v8.662l-0.003-8.662
		c-22.73,0.002-45.186,5.941-64.945,17.179c-20.359,11.579-37.279,28.511-48.928,48.966c-17.305,30.385-21.741,65.689-12.492,99.41
		s31.076,61.822,61.461,79.127c19.73,11.236,42.092,17.175,64.671,17.175c22.722,0,45.177-5.939,64.937-17.178
		c20.361-11.579,37.281-28.512,48.93-48.967c17.305-30.385,21.74-65.689,12.492-99.41c-9.25-33.722-31.077-61.823-61.461-79.127
		C89.525,113.238,67.166,107.299,44.595,107.299"/>
	<path clip-path="url(#SVGID_8_)" fill="#231F20" d="M44.584,115.961c20.51-0.002,41.287,5.165,60.385,16.04
		c58.666,33.412,79.14,108.056,45.729,166.723c-22.535,39.571-63.841,61.77-106.339,61.77c-20.509,0-41.288-5.164-60.384-16.04
		c-58.667-33.412-79.141-108.057-45.729-166.723C-39.219,138.16,2.086,115.965,44.584,115.961 M44.595,111.63h-0.011
		c-21.974,0.002-43.688,5.746-62.795,16.613c-19.685,11.194-36.043,27.565-47.308,47.344
		c-16.731,29.379-21.021,63.516-12.079,96.121c8.944,32.604,30.049,59.777,59.43,76.509c19.076,10.865,40.698,16.607,62.526,16.607
		c21.972,0,43.687-5.744,62.796-16.611c19.684-11.195,36.042-27.566,47.307-47.346c16.731-29.379,21.021-63.517,12.078-96.121
		c-8.943-32.606-30.049-59.777-59.428-76.509C88.035,117.373,66.416,111.63,44.595,111.63"/>
	<path clip-path="url(#SVGID_8_)" fill="#FFFFFF" d="M158.75,95.484c-11.734,0-22.355-6.944-27.058-17.693
		c-6.524-14.912,0.301-32.353,15.212-38.876c3.764-1.647,7.74-2.482,11.819-2.482c11.733,0,22.354,6.945,27.057,17.694
		c6.524,14.912-0.301,32.352-15.212,38.876C166.805,94.648,162.827,95.484,158.75,95.484 M158.724,45.096
		c-2.878,0-5.685,0.59-8.347,1.755c-10.537,4.61-15.359,16.933-10.748,27.468c3.322,7.596,10.828,12.504,19.121,12.504
		c2.875,0,5.684-0.592,8.346-1.756c10.535-4.609,15.357-16.932,10.748-27.468C174.52,50.004,167.016,45.096,158.724,45.096"/>
</g>
<g>
	<defs>
		<path id="SVGID_9_" d="M148.639,42.883c-12.742,5.576-18.555,20.428-12.979,33.172c5.576,12.745,20.426,18.557,33.172,12.98
			c7.588-3.32,12.719-9.93,14.451-17.422l-0.051-8.647c-0.022-3.864-2.787-8.589-6.146-10.502l-20.396-11.617
			C153.982,41.068,151.266,41.734,148.639,42.883"/>
	</defs>
	<clipPath id="SVGID_10_">
		<use xlink:href="#SVGID_9_"  overflow="visible"/>
	</clipPath>
	<path clip-path="url(#SVGID_10_)" fill="#575757" d="M181.764,55.751c5.575,12.745-0.236,27.596-12.98,33.172
		s-27.596-0.235-33.172-12.979s0.236-27.597,12.979-33.173C161.336,37.195,176.188,43.007,181.764,55.751"/>
	<path clip-path="url(#SVGID_10_)" fill="#8F8F8E" d="M174.977,52.806c5.576,12.744-0.234,27.597-12.98,33.172
		c-12.744,5.576-27.596-0.234-33.172-12.979c-5.574-12.744,0.235-27.596,12.98-33.172C154.549,34.25,169.4,40.061,174.977,52.806"/>
	<g opacity="0.4" clip-path="url(#SVGID_10_)">
		<g>
			<defs>
				<rect id="SVGID_11_" x="129.359" y="46.4" width="19.15" height="19.149"/>
			</defs>
			<clipPath id="SVGID_12_">
				<use xlink:href="#SVGID_11_"  overflow="visible"/>
			</clipPath>
			<path clip-path="url(#SVGID_12_)" fill="#FFFFFF" d="M147.706,52.136c2.118,4.845-0.091,10.489-4.935,12.608
				c-4.843,2.119-10.488-0.09-12.607-4.934s0.09-10.489,4.934-12.607C139.941,45.083,145.586,47.292,147.706,52.136"/>
		</g>
	</g>
	<path clip-path="url(#SVGID_10_)" fill="#575757" d="M182.906,76.045c3.291,7.52-0.139,16.283-7.658,19.573
		c-7.521,3.29-16.283-0.14-19.574-7.658c-3.289-7.521,0.14-16.284,7.66-19.574C170.854,65.096,179.617,68.525,182.906,76.045"/>
</g>
<path fill="#1A1A19" d="M107.037,20.933l0.084,0.001c1.125,0.013,1.823,0.273,1.979,0.363l65.507,37.82
	c0.848,0.489,2.063,2.593,2.063,3.572v75.641c0,0.979-1.215,3.082-2.063,3.572l-65.506,37.82c-0.156,0.09-0.854,0.35-1.976,0.364
	h-0.088c-1.17,0-1.898-0.27-2.063-0.364l-65.506-37.82c-0.85-0.49-2.063-2.593-2.063-3.572V62.689c0-0.979,1.214-3.083,2.063-3.572
	l65.506-37.82C105.139,21.203,105.867,20.933,107.037,20.933 M107.037,12.652c-2.25,0-4.496,0.489-6.203,1.474l-65.506,37.82
	c-3.412,1.97-6.203,6.805-6.203,10.744v75.641c0,3.939,2.791,8.773,6.203,10.744l65.506,37.819c1.707,0.985,3.955,1.474,6.203,1.474
	c0.061,0,0.121,0,0.184-0.002c2.187-0.025,4.359-0.514,6.02-1.472l65.506-37.819c3.412-1.971,6.203-6.805,6.203-10.744V62.689
	c0-3.938-2.791-8.773-6.203-10.744l-65.506-37.82c-1.66-0.958-3.833-1.446-6.02-1.472C107.159,12.652,107.098,12.652,107.037,12.652
	"/>
<path fill="#FFFFFF" d="M118.518,121.705c1.803,1.419,2.113,4.031,0.693,5.833c-1.418,1.803-4.03,2.114-5.833,0.694
	c-1.804-1.418-2.114-4.03-0.694-5.834C114.102,120.597,116.714,120.286,118.518,121.705"/>
<path fill="#FFFFFF" d="M115.943,129.676c-1.063,0-2.068-0.35-2.908-1.01c-0.986-0.777-1.612-1.893-1.762-3.141
	c-0.146-1.248,0.199-2.479,0.977-3.468c0.896-1.142,2.247-1.795,3.7-1.795c1.065,0,2.069,0.349,2.909,1.009
	c2.037,1.604,2.393,4.569,0.785,6.608C118.747,129.021,117.398,129.676,115.943,129.676 M115.95,121.366
	c-1.114,0-2.147,0.501-2.833,1.374c-0.596,0.756-0.86,1.699-0.746,2.654c0.113,0.955,0.593,1.809,1.348,2.405
	c0.643,0.504,1.412,0.771,2.225,0.771c1.113,0,2.147-0.501,2.834-1.375c1.229-1.56,0.959-3.83-0.602-5.058
	C117.534,121.634,116.764,121.366,115.95,121.366"/>
<path fill="#FFFFFF" d="M124.15,114.551c0.949,0.748,1.112,2.123,0.365,3.072c-0.748,0.95-2.124,1.114-3.074,0.366
	c-0.949-0.747-1.113-2.124-0.365-3.073S123.199,113.803,124.15,114.551"/>
<path fill="#FFFFFF" d="M122.795,119.01c-0.62,0-1.207-0.203-1.694-0.587c-1.187-0.934-1.394-2.659-0.458-3.848
	c0.906-1.149,2.693-1.367,3.848-0.459c0.576,0.453,0.94,1.103,1.027,1.83c0.086,0.727-0.116,1.444-0.568,2.02
	C124.426,118.63,123.641,119.01,122.795,119.01 M122.798,114.633c-0.507,0-0.976,0.229-1.288,0.625
	c-0.559,0.709-0.436,1.74,0.273,2.299c0.689,0.543,1.758,0.414,2.299-0.274c0.27-0.343,0.391-0.772,0.338-1.206
	c-0.051-0.434-0.27-0.822-0.612-1.092C123.517,114.755,123.166,114.633,122.798,114.633"/>
<path fill="#FFFFFF" d="M130.326,106.704c0.95,0.748,1.113,2.124,0.366,3.073c-0.748,0.95-2.124,1.114-3.073,0.366
	c-0.949-0.747-1.113-2.123-0.365-3.073C128,106.12,129.377,105.957,130.326,106.704"/>
<path fill="#FFFFFF" d="M128.971,111.164c-0.619,0-1.205-0.203-1.693-0.587c-1.188-0.934-1.393-2.661-0.459-3.849
	c0.908-1.15,2.695-1.366,3.85-0.458c0.576,0.453,0.94,1.103,1.026,1.83c0.087,0.727-0.116,1.444-0.569,2.02
	C130.602,110.784,129.817,111.164,128.971,111.164 M128.975,106.787c-0.506,0-0.977,0.229-1.289,0.625
	c-0.557,0.708-0.436,1.74,0.275,2.299c0.688,0.543,1.756,0.414,2.297-0.274c0.271-0.343,0.392-0.772,0.34-1.206
	c-0.051-0.434-0.27-0.822-0.612-1.092C129.694,106.908,129.344,106.787,128.975,106.787"/>
<path fill="#FFFFFF" d="M136.504,98.858c0.949,0.748,1.113,2.124,0.365,3.073c-0.748,0.95-2.124,1.114-3.074,0.366
	c-0.949-0.747-1.113-2.124-0.365-3.073C134.178,98.274,135.553,98.111,136.504,98.858"/>
<path fill="#FFFFFF" d="M135.148,103.318c-0.62,0-1.207-0.203-1.695-0.587c-1.186-0.935-1.393-2.661-0.457-3.849
	c0.906-1.15,2.695-1.366,3.85-0.458c0.574,0.453,0.939,1.103,1.025,1.829c0.088,0.728-0.116,1.445-0.568,2.02
	C136.78,102.938,135.995,103.318,135.148,103.318 M135.15,98.941c-0.506,0-0.975,0.229-1.287,0.625
	c-0.559,0.708-0.436,1.74,0.273,2.299c0.689,0.541,1.758,0.412,2.299-0.274c0.271-0.344,0.391-0.772,0.338-1.206
	c-0.051-0.434-0.269-0.822-0.611-1.092C135.871,99.063,135.521,98.941,135.15,98.941"/>
<path fill="#FFFFFF" d="M144.568,88.615c1.803,1.42,2.112,4.031,0.693,5.834s-4.031,2.113-5.834,0.694s-2.113-4.031-0.693-5.834
	C140.152,87.508,142.765,87.196,144.568,88.615"/>
<path fill="#FFFFFF" d="M141.994,96.586c-1.063,0-2.068-0.349-2.908-1.009c-2.037-1.604-2.391-4.569-0.785-6.608
	c0.896-1.142,2.247-1.795,3.701-1.795c1.063,0,2.068,0.349,2.906,1.008c0.988,0.777,1.613,1.894,1.762,3.142
	c0.15,1.248-0.196,2.479-0.975,3.468C144.798,95.932,143.449,96.586,141.994,96.586 M142.002,88.277
	c-1.115,0-2.148,0.501-2.834,1.374c-1.229,1.561-0.958,3.83,0.602,5.059c0.643,0.504,1.412,0.772,2.225,0.772
	c1.113,0,2.146-0.501,2.834-1.374c0.596-0.757,0.861-1.699,0.746-2.655c-0.113-0.955-0.592-1.809-1.349-2.404
	C143.586,88.544,142.814,88.277,142.002,88.277"/>
<g opacity="0.4">
	<g>
		<defs>
			<rect id="SVGID_13_" x="87.95" y="52.97" width="11.649" height="11.66"/>
		</defs>
		<clipPath id="SVGID_14_">
			<use xlink:href="#SVGID_13_"  overflow="visible"/>
		</clipPath>
		<path clip-path="url(#SVGID_14_)" fill="#FFFFFF" d="M99.114,56.464c1.29,2.948-0.056,6.383-3.003,7.672
			c-2.947,1.29-6.383-0.054-7.672-3.002s0.055-6.383,3.002-7.672C94.389,52.172,97.824,53.516,99.114,56.464"/>
	</g>
</g>
<g opacity="0.4">
	<g>
		<defs>
			<rect id="SVGID_15_" x="144.24" y="118.13" width="11.65" height="11.65"/>
		</defs>
		<clipPath id="SVGID_16_">
			<use xlink:href="#SVGID_15_"  overflow="visible"/>
		</clipPath>
		<path clip-path="url(#SVGID_16_)" fill="#FFFFFF" d="M155.401,121.617c1.29,2.948-0.056,6.383-3.003,7.672
			c-2.947,1.29-6.383-0.054-7.672-3.002c-1.289-2.947,0.055-6.382,3.002-7.672S154.111,118.669,155.401,121.617"/>
	</g>
</g>
<g opacity="0.4">
	<g>
		<defs>
			<rect id="SVGID_17_" x="71.73" y="82.561" width="8.619" height="8.619"/>
		</defs>
		<clipPath id="SVGID_18_">
			<use xlink:href="#SVGID_17_"  overflow="visible"/>
		</clipPath>
		<path clip-path="url(#SVGID_18_)" fill="#FFFFFF" d="M79.989,85.141c0.954,2.18-0.042,4.721-2.222,5.674
			c-2.179,0.954-4.72-0.04-5.674-2.22c-0.953-2.18,0.041-4.721,2.221-5.674C76.494,81.967,79.035,82.961,79.989,85.141"/>
	</g>
</g>
<g opacity="0.4">
	<g>
		<defs>
			<rect id="SVGID_19_" x="54.689" y="67.74" width="8.621" height="8.62"/>
		</defs>
		<clipPath id="SVGID_20_">
			<use xlink:href="#SVGID_19_"  overflow="visible"/>
		</clipPath>
		<path clip-path="url(#SVGID_20_)" fill="#FFFFFF" d="M62.947,70.32c0.954,2.18-0.039,4.72-2.22,5.674s-4.72-0.04-5.675-2.22
			c-0.953-2.181,0.041-4.722,2.221-5.675S61.994,68.14,62.947,70.32"/>
	</g>
</g>
</svg>
