<?xml version="1.0" encoding="utf-8"?>
<!-- Generator: Adobe Illustrator 16.0.0, SVG Export Plug-In . SVG Version: 6.00 Build 0)  -->
<!DOCTYPE svg PUBLIC "-//W3C//DTD SVG 1.1//EN" "http://www.w3.org/Graphics/SVG/1.1/DTD/svg11.dtd">
<svg version="1.1" id="Layer_1" xmlns="http://www.w3.org/2000/svg" xmlns:xlink="http://www.w3.org/1999/xlink" x="0px" y="0px"
	 width="612px" height="792px" viewBox="0 0 612 792" enable-background="new 0 0 612 792" xml:space="preserve">
<path fill="none" d="M311.63-1226.76"/>
<path fill="none" d="M311.63,2018.837"/>
<path fill="none" d="M312.63-1225.76"/>
<path fill="none" d="M312.63,2019.837"/>
<polygon fill="#A6A8AC" points="226.049,552.157 226.049,536.819 235.775,536.819 235.775,538.016 227.359,538.016 227.359,543.695 
	235.614,543.695 235.614,544.891 227.359,544.891 227.359,550.962 235.775,550.962 235.775,552.157 "/>
<path fill="#A6A8AC" d="M252.887,552.157l-1.518-3.771h-8.117l-1.519,3.771h-1.517l6.277-15.338h1.633l6.277,15.338H252.887z
	 M247.322,538.223l-3.634,8.968h7.243L247.322,538.223z"/>
<path fill="#A6A8AC" d="M268.412,552.158l-4.301-6.348h-3.379v6.348h-1.313V536.82h5.727c2.644,0,4.668,1.678,4.668,4.483
	c0,2.782-1.955,4.323-4.254,4.415l4.438,6.439H268.412z M268.436,541.304c0-1.932-1.357-3.289-3.404-3.289h-4.299v6.601h4.299
	C267.078,544.615,268.436,543.236,268.436,541.304"/>
<polygon fill="#A6A8AC" points="279.523,552.157 279.523,538.016 274.51,538.016 274.51,536.819 285.869,536.819 285.869,538.016 
	280.857,538.016 280.857,552.157 "/>
<polygon fill="#A6A8AC" points="302.383,552.157 302.383,544.867 292.656,544.867 292.656,552.157 291.346,552.157 291.346,536.819 
	292.656,536.819 292.656,543.673 302.383,543.673 302.383,536.819 303.693,536.819 303.693,552.157 "/>
<polygon fill="#A6A8AC" points="322.9,552.157 322.9,538.016 317.887,538.016 317.887,536.819 329.246,536.819 329.246,538.016 
	324.234,538.016 324.234,552.157 "/>
<path fill="#A6A8AC" d="M333.48,544.5c0-4.483,2.945-7.934,7.451-7.934c4.484,0,7.451,3.45,7.451,7.934
	c0,4.484-2.967,7.934-7.451,7.934C336.426,552.434,333.48,548.984,333.48,544.5 M347.002,544.5c0-3.886-2.392-6.737-6.07-6.737
	c-3.701,0-6.07,2.852-6.07,6.737c0,3.863,2.369,6.737,6.07,6.737C344.61,551.237,347.002,548.363,347.002,544.5"/>
<polygon fill="#A6A8AC" points="376.121,552.157 376.121,538.476 370.532,552.157 370.026,552.157 364.416,538.476 364.416,552.157 
	363.104,552.157 363.104,536.819 365.06,536.819 370.279,549.582 375.477,536.819 377.455,536.819 377.455,552.157 "/>
<path fill="#A6A8AC" d="M383.459,544.5c0-4.483,2.945-7.934,7.451-7.934c4.484,0,7.451,3.45,7.451,7.934
	c0,4.484-2.967,7.934-7.451,7.934C386.404,552.434,383.459,548.984,383.459,544.5 M396.98,544.5c0-3.886-2.392-6.737-6.07-6.737
	c-3.701,0-6.07,2.852-6.07,6.737c0,3.863,2.369,6.737,6.07,6.737C394.589,551.237,396.98,548.363,396.98,544.5"/>
<path fill="#A6A8AC" d="M403.793,544.5c0-4.483,2.943-7.934,7.451-7.934c4.483,0,7.449,3.45,7.449,7.934
	c0,4.484-2.966,7.934-7.449,7.934C406.736,552.434,403.793,548.984,403.793,544.5 M417.314,544.5c0-3.886-2.393-6.737-6.07-6.737
	c-3.703,0-6.071,2.852-6.071,6.737c0,3.863,2.368,6.737,6.071,6.737C414.922,551.237,417.314,548.363,417.314,544.5"/>
<polygon fill="#A6A8AC" points="435.668,552.157 426.012,538.981 426.012,552.157 424.699,552.157 424.699,536.819 426.033,536.819 
	435.646,549.812 435.646,536.819 436.956,536.819 436.956,552.157 "/>
<path fill="#4A4A4A" d="M401.195,363.946l-65.507-37.82c-1.396-0.806-3.157-1.271-4.983-1.416v-0.038
	c-0.162-0.007-0.324-0.017-0.485-0.018c-2.31-0.028-4.634,0.46-6.386,1.472l-65.506,37.82c-3.412,1.969-6.203,6.804-6.203,10.743
	v75.641c0,3.939,2.791,8.774,6.203,10.743l65.506,37.821c1.752,1.011,4.076,1.498,6.386,1.472c0.161-0.002,0.323-0.012,0.485-0.019
	v-0.037c1.826-0.146,3.588-0.611,4.983-1.416l65.507-37.821c3.411-1.969,6.202-6.804,6.202-10.743v-75.641
	C407.397,370.75,404.606,365.915,401.195,363.946"/>
<g opacity="0.6">
	<g>
		<defs>
			<rect id="SVGID_1_" x="330.15" y="324.67" width="77.25" height="175.68"/>
		</defs>
		<clipPath id="SVGID_2_">
			<use xlink:href="#SVGID_1_"  overflow="visible"/>
		</clipPath>
		<path clip-path="url(#SVGID_2_)" fill="#010101" d="M401.195,461.073c3.411-1.97,6.202-6.804,6.202-10.743v-75.641
			c0-3.939-2.791-8.773-6.202-10.743l-65.507-37.821c-1.537-0.887-3.515-1.365-5.536-1.452v175.675
			c2.021-0.088,3.999-0.567,5.536-1.454L401.195,461.073z"/>
	</g>
</g>
<path fill="#1A1A19" d="M330.037,332.933l0.084,0.001c1.125,0.014,1.823,0.273,1.979,0.363l65.507,37.82
	c0.848,0.489,2.063,2.593,2.063,3.572v75.641c0,0.979-1.215,3.082-2.063,3.572l-65.506,37.82c-0.156,0.09-0.854,0.35-1.976,0.364
	h-0.088c-1.169,0-1.898-0.27-2.063-0.364l-65.506-37.82c-0.85-0.49-2.063-2.593-2.063-3.572v-75.641
	c0-0.979,1.214-3.083,2.063-3.572l65.506-37.82C328.139,333.203,328.868,332.933,330.037,332.933 M330.037,324.652
	c-2.25,0-4.496,0.489-6.203,1.474l-65.506,37.819c-3.412,1.971-6.203,6.806-6.203,10.744v75.641c0,3.939,2.791,8.773,6.203,10.744
	l65.506,37.819c1.707,0.985,3.955,1.474,6.203,1.474c0.061,0,0.121,0,0.184-0.002c2.187-0.025,4.359-0.514,6.02-1.472l65.506-37.819
	c3.412-1.971,6.203-6.805,6.203-10.744v-75.641c0-3.938-2.791-8.773-6.203-10.744l-65.506-37.819
	c-1.66-0.958-3.833-1.446-6.02-1.472C330.159,324.652,330.098,324.652,330.037,324.652"/>
<g opacity="0.4">
	<g>
		<defs>
			<rect id="SVGID_3_" x="252.13" y="324.65" width="155.82" height="175.72"/>
		</defs>
		<clipPath id="SVGID_4_">
			<use xlink:href="#SVGID_3_"  overflow="visible"/>
		</clipPath>
		<path clip-path="url(#SVGID_4_)" fill="#FFFFFF" d="M330.037,340.072l62.732,36.22v72.436l-62.732,36.22l-62.731-36.22v-72.436
			L330.037,340.072 M330.036,324.652c-2.248,0-4.496,0.489-6.201,1.474l-65.507,37.819c-3.411,1.971-6.203,6.806-6.203,10.744
			v75.641c0,3.939,2.792,8.773,6.203,10.744l65.507,37.819c1.705,0.985,3.953,1.474,6.201,1.474c0.062,0,0.122,0,0.184-0.002
			c2.187-0.025,4.361-0.514,6.021-1.472l65.507-37.819c3.411-1.971,6.202-6.805,6.202-10.744v-75.641
			c0-3.938-2.791-8.773-6.202-10.744l-65.507-37.819c-1.659-0.958-3.834-1.446-6.021-1.472
			C330.158,324.652,330.098,324.652,330.036,324.652"/>
	</g>
</g>
<g>
	<defs>
		<path id="SVGID_5_" d="M253.716,428.75l0.127,21.304c0.021,3.864,2.786,8.589,6.146,10.5l64.466,36.716
			c3.356,1.912,8.833,1.881,12.168-0.072l30.487-17.844c-9.998-14.075-23.15-26.244-39.142-35.352
			c-19.096-10.876-39.875-16.043-60.384-16.041C262.939,427.961,258.311,428.227,253.716,428.75"/>
	</defs>
	<clipPath id="SVGID_6_">
		<use xlink:href="#SVGID_5_"  overflow="visible"/>
	</clipPath>
	<path clip-path="url(#SVGID_6_)" fill="#5F9AD2" d="M206.975,656.453c-58.668-33.411-79.141-108.057-45.729-166.723
		c33.411-58.668,108.055-79.142,166.723-45.729c58.666,33.411,79.14,108.056,45.729,166.723S265.642,689.864,206.975,656.453"/>
	<polygon clip-path="url(#SVGID_6_)" fill="#AAD26C" points="382.316,594.573 366.393,593.711 367.893,582.842 377.854,567.41 
		372.653,553.896 365.483,576.779 345.639,572.513 352.696,560.117 352.684,551.903 360.213,513.982 346.551,505.03 
		347.301,499.596 367.393,499.313 365.6,481.877 358.641,475.569 350.695,487.459 345.753,477.609 331.588,469.543 323.768,479.157 
		321.381,489.523 287.799,511.434 267.572,505.776 250.541,525.389 234.729,514.037 237.36,499.122 227.229,483.974 
		232.383,464.631 220.738,452.138 219.829,435.205 191.377,421.347 203.98,399.213 244.582,424.682 265.965,442.722 
		274.817,447.764 298.563,439.01 314.756,451.749 324.506,465.51 335.622,462.461 347.131,469.015 352.813,465.215 363.547,460.777 
		390.229,473.627 422.124,508.206 	"/>
	<polygon clip-path="url(#SVGID_6_)" fill="#AAD26C" points="334.506,651.761 324.879,635.726 318.682,632.196 302.523,644.099 
		286.588,635.022 296.033,612.264 283.527,615.693 272.805,628.346 278.252,637.31 260.322,648.204 238.115,670.729 
		306.775,700.453 	"/>
	<polygon clip-path="url(#SVGID_6_)" fill="#AAD26C" points="226.102,665.06 240.6,641.661 260.176,634.051 270.383,614.069 
		268.846,600.298 269.842,590.313 244.661,566.593 219.146,574.338 207.168,593.31 193.273,597.122 188.577,582.722 
		169.493,581.233 162.141,565.322 149.242,559.148 122.795,533.533 92.15,577.049 198.287,656.255 	"/>
	<polygon clip-path="url(#SVGID_6_)" fill="#AAD26C" points="373.118,612.783 356.408,592.716 345.92,592.604 349.35,605.109 
		351.66,629.875 	"/>
	<polygon clip-path="url(#SVGID_6_)" fill="#AAD26C" points="308.259,619.958 315.431,627.95 303.897,633.105 297.824,627.303 	"/>
</g>
<g>
	<defs>
		<path id="SVGID_7_" d="M323.454,327.821l-64.03,37.474c-1.621,0.95-3.093,2.565-4.175,4.414c-1.146,1.957-1.856,4.174-1.847,6.159
			l0.439,74.187c0.023,3.863,2.787,8.588,6.146,10.499l64.466,36.716c3.356,1.912,8.833,1.881,12.168-0.071l64.028-37.474
			c1.711-1.002,3.257-2.746,4.353-4.727c1.04-1.876,1.679-3.965,1.669-5.845l-0.439-74.188c-0.022-3.863-2.787-8.588-6.146-10.501
			l-64.466-36.715c-1.656-0.942-3.827-1.412-6.002-1.412C327.384,326.337,325.145,326.833,323.454,327.821"/>
	</defs>
	<clipPath id="SVGID_8_">
		<use xlink:href="#SVGID_7_"  overflow="visible"/>
	</clipPath>
	<path clip-path="url(#SVGID_8_)" fill="#FFFFFF" d="M267.584,427.961c20.51-0.001,41.287,5.165,60.385,16.04
		c58.666,33.411,79.14,108.056,45.729,166.723c-22.535,39.571-63.841,61.769-106.339,61.769c-20.509,0-41.288-5.164-60.384-16.039
		c-58.667-33.411-79.141-108.056-45.729-166.724C183.781,450.16,225.086,427.965,267.584,427.961 M267.595,419.299v8.662
		l-0.003-8.662c-22.73,0.002-45.186,5.941-64.945,17.179c-20.359,11.579-37.279,28.511-48.928,48.966
		c-17.305,30.385-21.741,65.689-12.492,99.41s31.076,61.822,61.461,79.127c19.73,11.236,42.092,17.175,64.671,17.175
		c22.722,0,45.177-5.939,64.937-17.178c20.361-11.579,37.281-28.512,48.93-48.967c17.305-30.385,21.74-65.689,12.492-99.41
		c-9.25-33.722-31.077-61.823-61.461-79.127C312.525,425.238,290.166,419.299,267.595,419.299"/>
	<path clip-path="url(#SVGID_8_)" fill="#231F20" d="M267.584,427.961c20.51-0.002,41.287,5.165,60.385,16.04
		c58.666,33.412,79.14,108.056,45.729,166.723c-22.535,39.571-63.841,61.77-106.339,61.77c-20.509,0-41.288-5.164-60.384-16.04
		c-58.667-33.412-79.141-108.057-45.729-166.723C183.781,450.16,225.086,427.965,267.584,427.961 M267.595,423.63h-0.011
		c-21.974,0.002-43.688,5.746-62.795,16.613c-19.685,11.194-36.043,27.565-47.308,47.344
		c-16.731,29.379-21.021,63.516-12.078,96.121c8.943,32.604,30.048,59.777,59.429,76.509c19.076,10.865,40.698,16.607,62.526,16.607
		c21.972,0,43.687-5.744,62.796-16.611c19.684-11.195,36.042-27.566,47.307-47.346c16.731-29.379,21.021-63.517,12.078-96.121
		c-8.943-32.606-30.049-59.777-59.428-76.509C311.035,429.373,289.416,423.63,267.595,423.63"/>
	<path clip-path="url(#SVGID_8_)" fill="#FFFFFF" d="M381.75,407.484c-11.734,0-22.355-6.944-27.058-17.693
		c-6.524-14.912,0.301-32.353,15.212-38.876c3.764-1.647,7.74-2.482,11.819-2.482c11.733,0,22.354,6.945,27.057,17.694
		c6.524,14.912-0.301,32.352-15.212,38.876C389.805,406.648,385.827,407.484,381.75,407.484 M381.724,357.096
		c-2.878,0-5.685,0.59-8.347,1.755c-10.537,4.61-15.358,16.933-10.748,27.468c3.322,7.596,10.828,12.504,19.121,12.504
		c2.875,0,5.684-0.592,8.346-1.756c10.535-4.609,15.357-16.932,10.748-27.468C397.521,362.004,390.016,357.096,381.724,357.096"/>
</g>
<g>
	<defs>
		<path id="SVGID_9_" d="M371.639,354.883c-12.742,5.576-18.555,20.428-12.979,33.172c5.576,12.745,20.427,18.557,33.172,12.98
			c7.588-3.32,12.719-9.93,14.451-17.422l-0.051-8.647c-0.022-3.864-2.787-8.589-6.146-10.502l-20.396-11.617
			C376.982,353.068,374.266,353.734,371.639,354.883"/>
	</defs>
	<clipPath id="SVGID_10_">
		<use xlink:href="#SVGID_9_"  overflow="visible"/>
	</clipPath>
	<path clip-path="url(#SVGID_10_)" fill="#575757" d="M404.764,367.751c5.575,12.745-0.236,27.596-12.979,33.172
		c-12.745,5.576-27.597-0.235-33.173-12.979s0.236-27.597,12.979-33.173C384.336,349.195,399.188,355.007,404.764,367.751"/>
	<path clip-path="url(#SVGID_10_)" fill="#8F8F8E" d="M397.977,364.806c5.576,12.744-0.234,27.597-12.98,33.172
		c-12.744,5.576-27.596-0.235-33.172-12.979c-5.575-12.744,0.235-27.596,12.98-33.172C377.549,346.25,392.4,352.061,397.977,364.806
		"/>
	<g opacity="0.4" clip-path="url(#SVGID_10_)">
		<g>
			<defs>
				<rect id="SVGID_11_" x="352.359" y="358.4" width="19.15" height="19.149"/>
			</defs>
			<clipPath id="SVGID_12_">
				<use xlink:href="#SVGID_11_"  overflow="visible"/>
			</clipPath>
			<path clip-path="url(#SVGID_12_)" fill="#FFFFFF" d="M370.706,364.136c2.118,4.845-0.091,10.489-4.935,12.608
				c-4.843,2.119-10.488-0.09-12.607-4.934s0.09-10.488,4.934-12.607C362.941,357.083,368.586,359.292,370.706,364.136"/>
		</g>
	</g>
	<path clip-path="url(#SVGID_10_)" fill="#575757" d="M405.906,388.045c3.291,7.52-0.139,16.283-7.658,19.573
		c-7.521,3.29-16.283-0.14-19.574-7.658c-3.289-7.521,0.14-16.284,7.66-19.574C393.854,377.096,402.617,380.525,405.906,388.045"/>
</g>
<path fill="#1A1A19" d="M330.037,332.933l0.084,0.001c1.125,0.014,1.823,0.273,1.979,0.363l65.507,37.82
	c0.848,0.489,2.063,2.593,2.063,3.572v75.641c0,0.979-1.215,3.082-2.063,3.572l-65.506,37.82c-0.156,0.09-0.854,0.35-1.976,0.364
	h-0.088c-1.169,0-1.898-0.27-2.063-0.364l-65.506-37.82c-0.85-0.49-2.063-2.593-2.063-3.572v-75.641
	c0-0.979,1.214-3.083,2.063-3.572l65.506-37.82C328.139,333.203,328.868,332.933,330.037,332.933 M330.037,324.652
	c-2.25,0-4.496,0.489-6.203,1.474l-65.506,37.819c-3.412,1.971-6.203,6.806-6.203,10.744v75.641c0,3.939,2.791,8.773,6.203,10.744
	l65.506,37.819c1.707,0.985,3.955,1.474,6.203,1.474c0.061,0,0.121,0,0.184-0.002c2.187-0.025,4.359-0.514,6.02-1.472l65.506-37.819
	c3.412-1.971,6.203-6.805,6.203-10.744v-75.641c0-3.938-2.791-8.773-6.203-10.744l-65.506-37.819
	c-1.66-0.958-3.833-1.446-6.02-1.472C330.159,324.652,330.098,324.652,330.037,324.652"/>
<path fill="#FFFFFF" d="M341.518,433.705c1.803,1.419,2.113,4.031,0.693,5.833c-1.419,1.803-4.03,2.114-5.833,0.694
	c-1.804-1.418-2.114-4.03-0.694-5.834C337.102,432.597,339.714,432.286,341.518,433.705"/>
<path fill="#FFFFFF" d="M338.943,441.676c-1.063,0-2.068-0.35-2.907-1.01c-0.987-0.777-1.613-1.893-1.763-3.141
	c-0.147-1.248,0.199-2.479,0.977-3.468c0.896-1.142,2.247-1.795,3.7-1.795c1.065,0,2.069,0.349,2.909,1.009
	c2.037,1.604,2.392,4.569,0.785,6.608C341.747,441.021,340.398,441.676,338.943,441.676 M338.95,433.366
	c-1.113,0-2.146,0.501-2.833,1.374c-0.596,0.756-0.86,1.699-0.746,2.654c0.113,0.955,0.593,1.809,1.349,2.405
	c0.642,0.504,1.411,0.771,2.224,0.771c1.113,0,2.147-0.501,2.834-1.375c1.229-1.56,0.959-3.83-0.602-5.058
	C340.534,433.634,339.764,433.366,338.95,433.366"/>
<path fill="#FFFFFF" d="M347.15,426.551c0.949,0.748,1.112,2.123,0.365,3.072c-0.748,0.95-2.124,1.114-3.074,0.366
	c-0.949-0.747-1.113-2.124-0.365-3.073S346.199,425.803,347.15,426.551"/>
<path fill="#FFFFFF" d="M345.795,431.01c-0.62,0-1.207-0.203-1.694-0.587c-1.187-0.934-1.394-2.659-0.458-3.848
	c0.907-1.149,2.693-1.367,3.848-0.459c0.576,0.453,0.94,1.103,1.027,1.83c0.087,0.727-0.116,1.444-0.568,2.02
	C347.426,430.63,346.641,431.01,345.795,431.01 M345.798,426.633c-0.507,0-0.976,0.229-1.288,0.625
	c-0.559,0.709-0.436,1.74,0.273,2.299c0.689,0.543,1.758,0.414,2.299-0.274c0.271-0.343,0.391-0.772,0.338-1.206
	c-0.051-0.434-0.269-0.822-0.612-1.092C346.517,426.755,346.166,426.633,345.798,426.633"/>
<path fill="#FFFFFF" d="M353.326,418.704c0.95,0.748,1.113,2.124,0.366,3.073c-0.748,0.95-2.124,1.114-3.073,0.366
	c-0.949-0.747-1.113-2.123-0.365-3.073C351,418.12,352.377,417.957,353.326,418.704"/>
<path fill="#FFFFFF" d="M351.971,423.164c-0.619,0-1.205-0.203-1.693-0.587c-1.188-0.934-1.393-2.661-0.458-3.849
	c0.907-1.15,2.694-1.366,3.849-0.458c0.576,0.453,0.94,1.103,1.026,1.83c0.087,0.727-0.116,1.444-0.569,2.02
	C353.603,422.784,352.817,423.164,351.971,423.164 M351.975,418.787c-0.506,0-0.977,0.229-1.288,0.625
	c-0.558,0.708-0.437,1.74,0.274,2.299c0.688,0.543,1.756,0.414,2.297-0.274c0.271-0.343,0.392-0.772,0.34-1.206
	c-0.051-0.434-0.27-0.822-0.612-1.092C352.694,418.908,352.344,418.787,351.975,418.787"/>
<path fill="#FFFFFF" d="M359.504,410.858c0.949,0.748,1.113,2.124,0.365,3.073c-0.748,0.95-2.124,1.114-3.074,0.366
	c-0.949-0.747-1.113-2.124-0.365-3.073C357.178,410.274,358.553,410.111,359.504,410.858"/>
<path fill="#FFFFFF" d="M358.148,415.318c-0.62,0-1.207-0.203-1.694-0.587c-1.187-0.935-1.394-2.661-0.458-3.849
	c0.907-1.15,2.695-1.366,3.85-0.458c0.574,0.453,0.939,1.103,1.025,1.829c0.087,0.728-0.116,1.445-0.568,2.02
	C359.78,414.938,358.995,415.318,358.148,415.318 M358.151,410.941c-0.507,0-0.976,0.229-1.288,0.625
	c-0.559,0.708-0.436,1.74,0.273,2.299c0.689,0.541,1.758,0.412,2.299-0.274c0.271-0.344,0.391-0.772,0.338-1.206
	c-0.051-0.434-0.269-0.822-0.611-1.092C358.871,411.063,358.521,410.941,358.151,410.941"/>
<path fill="#FFFFFF" d="M367.568,400.615c1.803,1.42,2.112,4.031,0.693,5.834s-4.031,2.113-5.834,0.694s-2.113-4.031-0.693-5.834
	C363.152,399.508,365.765,399.196,367.568,400.615"/>
<path fill="#FFFFFF" d="M364.994,408.586c-1.063,0-2.068-0.349-2.907-1.009c-2.038-1.604-2.392-4.569-0.786-6.608
	c0.896-1.142,2.247-1.795,3.7-1.795c1.063,0,2.069,0.349,2.907,1.008c0.988,0.777,1.613,1.894,1.763,3.142s-0.197,2.479-0.976,3.468
	C367.798,407.932,366.449,408.586,364.994,408.586 M365.001,400.277c-1.113,0-2.146,0.501-2.833,1.374
	c-1.229,1.561-0.958,3.83,0.603,5.059c0.642,0.504,1.411,0.772,2.224,0.772c1.113,0,2.146-0.501,2.834-1.374
	c0.596-0.757,0.861-1.699,0.746-2.655c-0.113-0.955-0.592-1.809-1.349-2.404C366.585,400.544,365.814,400.277,365.001,400.277"/>
<g opacity="0.4">
	<g>
		<defs>
			<rect id="SVGID_13_" x="310.95" y="364.97" width="11.649" height="11.66"/>
		</defs>
		<clipPath id="SVGID_14_">
			<use xlink:href="#SVGID_13_"  overflow="visible"/>
		</clipPath>
		<path clip-path="url(#SVGID_14_)" fill="#FFFFFF" d="M322.114,368.464c1.29,2.948-0.056,6.383-3.003,7.672
			c-2.947,1.29-6.383-0.054-7.672-3.002s0.055-6.383,3.002-7.672C317.389,364.172,320.824,365.516,322.114,368.464"/>
	</g>
</g>
<g opacity="0.4">
	<g>
		<defs>
			<rect id="SVGID_15_" x="367.24" y="430.13" width="11.65" height="11.65"/>
		</defs>
		<clipPath id="SVGID_16_">
			<use xlink:href="#SVGID_15_"  overflow="visible"/>
		</clipPath>
		<path clip-path="url(#SVGID_16_)" fill="#FFFFFF" d="M378.401,433.617c1.29,2.948-0.056,6.383-3.003,7.672
			c-2.947,1.29-6.383-0.054-7.672-3.002c-1.289-2.947,0.055-6.382,3.002-7.672S377.111,430.669,378.401,433.617"/>
	</g>
</g>
<g opacity="0.4">
	<g>
		<defs>
			<rect id="SVGID_17_" x="294.73" y="394.561" width="8.619" height="8.619"/>
		</defs>
		<clipPath id="SVGID_18_">
			<use xlink:href="#SVGID_17_"  overflow="visible"/>
		</clipPath>
		<path clip-path="url(#SVGID_18_)" fill="#FFFFFF" d="M302.989,397.141c0.954,2.18-0.041,4.721-2.222,5.674
			c-2.179,0.954-4.72-0.04-5.674-2.22c-0.953-2.18,0.041-4.721,2.221-5.674C299.494,393.967,302.035,394.961,302.989,397.141"/>
	</g>
</g>
<g opacity="0.4">
	<g>
		<defs>
			<rect id="SVGID_19_" x="277.689" y="379.74" width="8.621" height="8.62"/>
		</defs>
		<clipPath id="SVGID_20_">
			<use xlink:href="#SVGID_19_"  overflow="visible"/>
		</clipPath>
		<path clip-path="url(#SVGID_20_)" fill="#FFFFFF" d="M285.947,382.32c0.954,2.18-0.039,4.72-2.22,5.674s-4.72-0.04-5.675-2.221
			c-0.953-2.18,0.041-4.721,2.221-5.674S284.994,380.14,285.947,382.32"/>
	</g>
</g>
</svg>
