<?xml version="1.0" encoding="utf-8"?>
<!-- Generator: Adobe Illustrator 16.0.0, SVG Export Plug-In . SVG Version: 6.00 Build 0)  -->
<!DOCTYPE svg PUBLIC "-//W3C//DTD SVG 1.1//EN" "http://www.w3.org/Graphics/SVG/1.1/DTD/svg11.dtd">
<svg version="1.1" id="Layer_1" xmlns="http://www.w3.org/2000/svg" xmlns:xlink="http://www.w3.org/1999/xlink" x="0px" y="0px"
	 width="215px" height="195px" viewBox="0 0 215 195" enable-background="new 0 0 215 195" xml:space="preserve">
<path fill="#929497" d="M865.52-66.557"/>
<path fill="#929497" d="M-1276.484-66.557"/>
<path fill="#929497" d="M-1276.484-65.807"/>
<path fill="#929497" d="M865.52-65.807"/>
<path fill="#929497" d="M1187.52-65.557"/>
<path fill="#929497" d="M-954.484-65.557"/>
<path fill="#929497" d="M-954.484-64.807"/>
<path fill="#929497" d="M1187.52-64.807"/>
<path fill="#B3E1E5" d="M181.358,75.058c0-17.284-2.72-21.994-6.044-23.914l-63.824-36.85c-1.617-0.934-3.734-1.409-5.865-1.434
	c-0.061-0.001-0.119,0.003-0.179,0.003c-2.19-0.001-4.382,0.472-6.044,1.431l-63.824,36.85c-3.324,1.92-6.044,6.63-6.044,10.468
	v75.974l76.462,43.026l75.362-43.026V75.058z"/>
<g opacity="0.6">
	<g>
		<defs>
			<rect id="SVGID_1_" x="105.45" y="10.65" width="77.909" height="175.71"/>
		</defs>
		<clipPath id="SVGID_2_">
			<use xlink:href="#SVGID_1_"  overflow="visible"/>
		</clipPath>
		<path clip-path="url(#SVGID_2_)" fill="#3EC0C5" d="M105.629,186.363c2.186-0.025,4.361-0.514,6.021-1.472l65.506-37.82
			c3.41-1.97,6.201-6.805,6.201-10.744V60.687c0-3.939-2.791-8.773-6.201-10.743l-65.506-37.82c-1.66-0.958-3.836-1.445-6.021-1.472
			c-0.061-0.001-0.122,0.003-0.184,0.003V186.36C105.507,186.36,105.568,186.364,105.629,186.363"/>
	</g>
</g>
<g opacity="0.4">
	<g>
		<defs>
			<rect id="SVGID_3_" x="27.529" y="10.65" width="155.83" height="175.71"/>
		</defs>
		<clipPath id="SVGID_4_">
			<use xlink:href="#SVGID_3_"  overflow="visible"/>
		</clipPath>
		<path clip-path="url(#SVGID_4_)" fill="#FFFFFF" d="M105.445,26.07l62.732,36.219v72.436l-62.732,36.22l-62.73-36.218V62.289
			L105.445,26.07 M105.445,10.65c-2.248,0-4.496,0.488-6.201,1.473l-65.508,37.82c-3.41,1.97-6.203,6.805-6.203,10.744v75.64
			c0,3.94,2.793,8.774,6.203,10.744l65.508,37.819c1.705,0.985,3.953,1.474,6.201,1.474c0.061,0,0.121,0,0.184-0.001
			c2.186-0.026,4.361-0.514,6.02-1.473l65.506-37.819c3.412-1.97,6.204-6.804,6.204-10.744v-75.64c0-3.939-2.792-8.774-6.204-10.744
			l-65.506-37.82c-1.658-0.958-3.834-1.446-6.02-1.472C105.566,10.65,105.506,10.65,105.445,10.65"/>
	</g>
</g>
<g>
	<defs>
		<path id="SVGID_5_" d="M99.322,13.233L34.658,50.566c-3.369,1.945-6.123,6.718-6.123,10.605v74.671
			c0,3.888,2.754,8.661,6.123,10.605l64.664,37.334c1.729,0.998,4.025,1.479,6.303,1.453c2.161-0.024,4.307-0.507,5.943-1.453
			l64.666-37.334c3.369-1.944,6.125-6.718,6.125-10.605V61.172c0-3.888-2.756-8.66-6.125-10.605l-64.666-37.333
			c-1.637-0.946-3.782-1.43-5.943-1.454c-0.059-0.001-0.119-0.001-0.178-0.001C103.227,11.778,101.006,12.26,99.322,13.233"/>
	</defs>
	<clipPath id="SVGID_6_">
		<use xlink:href="#SVGID_5_"  overflow="visible"/>
	</clipPath>
	<polygon clip-path="url(#SVGID_6_)" fill="#FFFFFF" points="190.391,203.182 20.359,203.182 20.359,121.437 105.234,102.364 
		190.391,121.437 	"/>
	<polygon clip-path="url(#SVGID_6_)" fill="#87AE3F" points="190.391,208.631 20.359,208.631 20.359,126.886 105.779,107.813 
		190.391,126.886 	"/>
	<path clip-path="url(#SVGID_6_)" d="M128.74,169.959c0,12.865-10.43,23.294-23.294,23.294s-23.294-10.429-23.294-23.294
		s10.43-23.295,23.294-23.295S128.74,157.094,128.74,169.959"/>
	<path clip-path="url(#SVGID_6_)" fill="#FFFFFF" d="M105.744,33.467c0.268,0,0.534,0.295,0.723,0.884
		c0.588,1.826,1.416,6.2,1.455,7.22l2.832,2.034l0.272,2.531c1.194,0.049,2.147,1.03,2.147,2.237l-1.232,5.766l-3.137,0.994
		c1.014,12.096,3.018,27.564,6.957,43.104h4.303c1.238,0-0.975,6.245-2.07,6.392c1.684,5.567,3.645,17.045,5.928,22.19h6.23
		c1.238,0-0.127,5.829-0.127,5.829c0,1.192-0.932,2.165-2.105,2.235c2.869,5.169,16.258,27.579,20.643,33.605
		c0.771,1.058,0.336,1.913-0.971,1.913h-9.896h-4.035h-4.035c0-8.914-7.023-24.645-23.812-24.645
		c-16.787,0-24.536,15.73-24.536,24.645h-4.036h-2.019H63.311c-1.309,0-1.727-0.844-0.938-1.887
		c4.533-6,18.457-28.457,21.325-33.632c-1.171-0.075-2.097-1.046-2.097-2.235c0,0-1.364-5.829-0.127-5.829h6.211
		c2.279-5.147,4.232-16.627,5.908-22.198c-1.077-0.162-3.27-6.384-2.031-6.384h4.248c3.92-15.558,5.896-31.045,6.895-43.146
		l-3.256-0.953l-0.996-5.766c0-1.117,0.818-2.041,1.889-2.211l0.272-2.557l2.955-2.075c0.037-1.004,0.864-5.353,1.452-7.179
		C105.211,33.762,105.478,33.467,105.744,33.467 M97.58,126.819h16.143l-4.037-15.774h-8.07L97.58,126.819 M105.744,26.11
		c-3.525,0-6.559,2.351-7.727,5.991c-0.377,1.172-0.865,3.253-1.238,5.207l-0.393,0.275l-2.733,1.919l-0.282,2.646
		c-1.429,1.681-2.273,3.857-2.273,6.223v0.63l0.107,0.621l0.994,5.767l0.781,4.52l1.844,0.54
		c-1.104,10.836-2.732,21.086-4.865,30.599c-3.309,0.705-5.82,3.558-6.094,7.181c-0.18,2.373,0.625,4.97,1.33,6.729
		c0.104,0.258,0.242,0.604,0.424,1.004c-0.396,1.609-0.799,3.371-1.215,5.189c-0.609,2.671-1.309,5.729-2.011,8.311h-0.919
		c-2.366,0-4.57,1.068-6.047,2.931c-2.006,2.53-2.34,5.847-1.118,11.363c0.075,0.649,0.216,1.282,0.417,1.888
		c-5.041,8.377-14.857,23.982-18.223,28.435c-2.092,2.768-2.478,6.149-1.033,9.05c1.441,2.899,4.373,4.631,7.84,4.631h11.912h2.019
		h4.036h7.355v-7.357c0-5.088,4.943-17.289,17.181-17.289c12.556,0,16.455,12.673,16.455,17.289v7.357h7.356h4.035h4.035h9.896
		c3.438,0,6.361-1.713,7.82-4.579c1.461-2.868,1.123-6.24-0.9-9.021c-3.268-4.486-12.649-19.951-17.631-28.451
		c0.211-0.625,0.36-1.28,0.438-1.955c1.221-5.515,0.887-8.83-1.119-11.36c-1.477-1.862-3.68-2.931-6.047-2.931h-0.943
		c-0.705-2.576-1.404-5.627-2.016-8.293c-0.415-1.813-0.818-3.569-1.216-5.175c0.179-0.392,0.317-0.73,0.421-0.984
		c0.71-1.748,1.523-4.33,1.367-6.702c-0.244-3.692-2.793-6.591-6.164-7.274c-2.155-9.546-3.805-19.824-4.922-30.68l1.561-0.494
		l0.895-4.184l1.232-5.767l0.163-0.761v-0.777c0-2.531-0.972-4.833-2.569-6.548l-0.246-2.277l-2.67-1.918l-0.322-0.23
		c-0.375-1.986-0.87-4.112-1.252-5.298C112.303,28.462,109.27,26.11,105.744,26.11"/>
	<path clip-path="url(#SVGID_6_)" fill="#FFFFFF" d="M192.923,75.259c0-5.289-4.288-9.577-9.577-9.577
		c-0.623,0-1.23,0.062-1.819,0.174c-2.022-5.196-7.069-8.881-12.981-8.881c-5.848,0-10.85,3.604-12.916,8.71
		c-0.049,0-0.096-0.003-0.145-0.003c-3.751,0-6.996,2.157-8.568,5.297c-0.33-0.047-0.666-0.073-1.01-0.073
		c-3.846,0-6.965,3.118-6.965,6.965s3.119,6.965,6.965,6.965h38.31v-0.041C189.097,84.354,192.923,80.255,192.923,75.259"/>
	<path clip-path="url(#SVGID_6_)" fill="#FFFFFF" d="M66.773,85.612c0-5.29-4.289-9.577-9.578-9.577
		c-0.621,0-1.23,0.061-1.818,0.174c-2.023-5.196-7.07-8.881-12.982-8.881c-5.847,0-10.85,3.604-12.916,8.71
		c-0.048,0-0.096-0.003-0.145-0.003c-3.75,0-6.995,2.157-8.568,5.297c-0.328-0.048-0.665-0.073-1.009-0.073
		c-3.847,0-6.966,3.118-6.966,6.966c0,3.847,3.119,6.965,6.966,6.965h38.31v-0.041C62.947,94.708,66.773,90.608,66.773,85.612"/>
	<path clip-path="url(#SVGID_6_)" fill="#E5B273" d="M130.025,132.648c0,0,1.365-5.828,0.127-5.828h-6.232
		c-2.283-5.147-4.243-16.624-5.928-22.192c1.098-0.146,3.311-6.39,2.072-6.39h-4.303c-3.939-15.541-5.941-31.011-6.958-43.106
		l3.138-0.993l1.232-5.767c0-1.206-0.953-2.187-2.148-2.237l-0.271-2.53l-2.834-2.035c-0.037-1.02-0.867-5.393-1.453-7.219
		c-0.378-1.179-1.066-1.179-1.445,0c-0.588,1.826-1.414,6.176-1.451,7.179l-2.957,2.076l-0.271,2.556
		c-1.07,0.17-1.889,1.094-1.889,2.211l0.996,5.767l3.256,0.952c-0.998,12.102-2.975,27.589-6.896,43.147h-4.247
		c-1.238,0,0.954,6.221,2.031,6.384c-1.676,5.569-3.63,17.049-5.906,22.198h-6.213c-1.238,0,0.127,5.828,0.127,5.828
		c0,1.189,0.926,2.159,2.096,2.234c-2.867,5.176-16.791,27.633-21.324,33.632c-0.789,1.044-0.371,1.888,0.938,1.888h11.913h2.019
		h4.035c0-8.914,7.748-24.646,24.537-24.646c16.787,0,23.811,15.731,23.811,24.646h4.035h4.035h9.895
		c1.309,0,1.744-0.855,0.975-1.912c-4.388-6.026-17.775-28.438-20.646-33.606C129.094,134.813,130.025,133.841,130.025,132.648
		 M97.58,126.82l4.035-15.775h8.072l4.033,15.775H97.58z"/>
	<path clip-path="url(#SVGID_6_)" fill="#F2CEA7" d="M148.537,168.489c-4.387-6.025-17.775-28.437-20.644-33.605
		c1.175-0.07,2.106-1.042,2.106-2.235c0,0,1.363-5.829,0.127-5.829h-3.934v0.011h-6.383c0.203,0.539,0.408,1.051,0.619,1.526
		l1,2.253h2.465h2.658c-0.035,0.188-0.071,0.377-0.109,0.565l-4.785,0.286l2.922,5.263c2.469,4.446,12.362,20.83,18.146,29.89
		h-5.056h-4.035h-0.565c-0.679-4.279-2.507-9.512-6.069-14.176c-2.41-3.156-5.312-5.654-8.623-7.425
		c-3.779-2.021-8.016-3.045-12.59-3.045c-4.564,0-8.828,1.019-12.672,3.028c-3.369,1.762-6.347,4.242-8.852,7.375
		c-3.32,4.151-5.646,9.345-6.471,14.242h-0.578h-2.018h-6.923c6.099-9.224,16.485-25.875,18.712-29.894l2.9-5.233l-4.754-0.307
		c-0.039-0.188-0.076-0.379-0.111-0.57h2.639h2.469l0.998-2.257c0.209-0.475,0.414-0.985,0.615-1.522h-8.182v-0.011h-2.113
		c-1.236,0,0.128,5.829,0.128,5.829c0,1.189,0.927,2.159,2.097,2.235c-2.869,5.176-16.791,27.632-21.326,33.631
		c-0.789,1.044-0.369,1.888,0.938,1.888h11.914h2.018h4.035c0-8.914,7.75-24.645,24.537-24.645c16.788,0,23.811,15.73,23.811,24.645
		h4.037h4.035h9.896C148.873,170.402,149.307,169.548,148.537,168.489"/>
	<rect x="79.064" y="125.566" clip-path="url(#SVGID_6_)" fill="#E5B273" width="52.738" height="8.685"/>
	<g opacity="0.8" clip-path="url(#SVGID_6_)">
		<g>
			<defs>
				<rect id="SVGID_7_" x="76.891" y="135.08" width="57.08" height="6.9"/>
			</defs>
			<clipPath id="SVGID_8_">
				<use xlink:href="#SVGID_7_"  overflow="visible"/>
			</clipPath>
			<polygon clip-path="url(#SVGID_8_)" fill="#C07F5D" points="79.6,135.077 76.895,141.982 133.973,141.982 128.51,135.18 			"/>
		</g>
	</g>
	<g opacity="0.8" clip-path="url(#SVGID_6_)">
		<g>
			<defs>
				<rect id="SVGID_9_" x="88.5" y="106.311" width="33.87" height="5.359"/>
			</defs>
			<clipPath id="SVGID_10_">
				<use xlink:href="#SVGID_9_"  overflow="visible"/>
			</clipPath>
			<polygon clip-path="url(#SVGID_10_)" fill="#C07F5D" points="90.105,106.311 88.5,111.665 122.367,111.665 119.127,106.414 			
				"/>
		</g>
	</g>
	<rect x="80.959" y="132.954" clip-path="url(#SVGID_6_)" width="48.949" height="3.542"/>
	<rect x="79.936" y="123.6" clip-path="url(#SVGID_6_)" width="50.994" height="3.541"/>
	<polygon clip-path="url(#SVGID_6_)" fill="#E5B273" points="106.943,49.77 106.943,46.135 106.943,45.652 105.552,44.74 
		105.422,44.655 105.326,44.717 103.838,45.674 103.838,46.161 103.838,49.395 102.227,49.652 102.488,51.165 103.477,51.454 
		105.604,52.077 107.367,51.52 108.402,51.191 108.691,49.843 	"/>
	<rect x="90.038" y="96.801" clip-path="url(#SVGID_6_)" fill="#E5B273" width="30.79" height="8.053"/>
	<rect x="77.441" y="142.429" clip-path="url(#SVGID_6_)" fill="#F2CEA7" width="22.967" height="2.181"/>
	<rect x="110.198" y="142.429" clip-path="url(#SVGID_6_)" fill="#F2CEA7" width="23.737" height="2.181"/>
	<rect x="109.773" y="117.229" clip-path="url(#SVGID_6_)" fill="#F2CEA7" width="13.857" height="2.181"/>
	<rect x="87.982" y="117.229" clip-path="url(#SVGID_6_)" fill="#F2CEA7" width="13.858" height="2.181"/>
	<rect x="109.063" y="111.105" clip-path="url(#SVGID_6_)" fill="#F2CEA7" width="13.857" height="2.181"/>
	<rect x="88.693" y="111.105" clip-path="url(#SVGID_6_)" fill="#F2CEA7" width="13.857" height="2.181"/>
	<rect x="95.799" y="87.184" clip-path="url(#SVGID_6_)" fill="#F2CEA7" width="19.451" height="2.181"/>
	<rect x="95.799" y="79.842" clip-path="url(#SVGID_6_)" fill="#F2CEA7" width="19.451" height="2.18"/>
	<rect x="97.377" y="72.5" clip-path="url(#SVGID_6_)" fill="#F2CEA7" width="16.294" height="2.18"/>
	<rect x="70.336" y="150.661" clip-path="url(#SVGID_6_)" fill="#F2CEA7" width="18.361" height="2.179"/>
	<rect x="122.68" y="150.661" clip-path="url(#SVGID_6_)" fill="#F2CEA7" width="18.361" height="2.179"/>
	<rect x="65.6" y="158.004" clip-path="url(#SVGID_6_)" fill="#F2CEA7" width="18.36" height="2.18"/>
	<rect x="127.418" y="158.004" clip-path="url(#SVGID_6_)" fill="#F2CEA7" width="18.359" height="2.18"/>
	<rect x="90.003" y="95.188" clip-path="url(#SVGID_6_)" width="30.86" height="3.543"/>
	<rect x="90.869" y="103.479" clip-path="url(#SVGID_6_)" width="29.127" height="3.541"/>
	<rect x="101.553" y="54.986" clip-path="url(#SVGID_6_)" width="7.814" height="2.948"/>
	<rect x="96.064" y="45.285" clip-path="url(#SVGID_6_)" width="18.791" height="2.453"/>
	<g opacity="0.8" clip-path="url(#SVGID_6_)">
		<g>
			<defs>
				<rect id="SVGID_11_" x="100.471" y="57.05" width="11.02" height="10.98"/>
			</defs>
			<clipPath id="SVGID_12_">
				<use xlink:href="#SVGID_11_"  overflow="visible"/>
			</clipPath>
			<polygon clip-path="url(#SVGID_12_)" fill="#C07F5D" points="100.479,57.049 100.465,64.916 111.485,68.028 111.277,57.177 			
				"/>
		</g>
	</g>
	<g opacity="0.8" clip-path="url(#SVGID_6_)">
		<g>
			<defs>
				<rect id="SVGID_13_" x="100.37" y="41.43" width="11.569" height="5.26"/>
			</defs>
			<clipPath id="SVGID_14_">
				<use xlink:href="#SVGID_13_"  overflow="visible"/>
			</clipPath>
			<polygon clip-path="url(#SVGID_14_)" fill="#C07F5D" points="100.388,41.428 100.375,46.297 111.939,46.687 111.186,41.428 			
				"/>
		</g>
	</g>
	<g opacity="0.6" clip-path="url(#SVGID_6_)">
		<g>
			<defs>
				<rect id="SVGID_15_" x="104.51" y="56.68" width="1.9" height="40.73"/>
			</defs>
			<clipPath id="SVGID_16_">
				<use xlink:href="#SVGID_15_"  overflow="visible"/>
			</clipPath>
			<rect x="104.506" y="56.681" clip-path="url(#SVGID_16_)" width="1.906" height="40.734"/>
		</g>
	</g>
	<path clip-path="url(#SVGID_6_)" d="M105.744,33.467c0.268,0,0.534,0.295,0.723,0.884c0.588,1.826,1.416,6.199,1.455,7.22
		l2.832,2.034l0.272,2.53c1.194,0.05,2.147,1.031,2.147,2.237l-1.232,5.767l-3.137,0.994c1.014,12.096,3.018,27.565,6.957,43.105
		h4.303c1.238,0-0.975,6.244-2.07,6.391c1.684,5.566,3.645,17.044,5.928,22.191h6.23c1.238,0-0.127,5.828-0.127,5.828
		c0,1.192-0.932,2.165-2.105,2.235c2.869,5.168,16.258,27.58,20.643,33.606c0.771,1.058,0.336,1.912-0.971,1.912h-9.896h-4.035
		h-4.035c0-8.914-7.023-24.645-23.812-24.645c-16.787,0-24.536,15.73-24.536,24.645h-4.036h-2.018H63.311
		c-1.309,0-1.727-0.844-0.938-1.888c4.533-5.999,18.457-28.456,21.325-33.632c-1.171-0.075-2.097-1.045-2.097-2.234
		c0,0-1.364-5.828-0.127-5.828h6.211c2.279-5.148,4.232-16.629,5.908-22.198c-1.077-0.163-3.27-6.384-2.031-6.384h4.248
		c3.92-15.559,5.896-31.046,6.895-43.146l-3.256-0.953l-0.996-5.767c0-1.117,0.818-2.04,1.889-2.211l0.272-2.556l2.955-2.075
		c0.037-1.004,0.864-5.353,1.452-7.179C105.211,33.762,105.478,33.467,105.744,33.467 M97.58,126.82h16.143l-4.037-15.774h-8.07
		L97.58,126.82 M105.744,29.653c-1.557,0-3.519,0.927-4.355,3.532c-0.443,1.383-1.045,4.15-1.379,6.185l-1.588,1.113l-1.418,0.995
		L96.821,43.2l-0.06,0.559c-1.312,1.115-2.123,2.774-2.123,4.613V48.7l0.057,0.321l0.995,5.768l0.405,2.344l2.283,0.668l0.254,0.074
		c-1.205,13.063-3.158,25.33-5.816,36.549h-1.254c-1.917,0-3.965,1.399-4.165,4.073c-0.085,1.119,0.478,4.521,1.985,7.037
		c-0.494,1.89-0.998,4.102-1.525,6.407c-0.871,3.817-1.834,8.03-2.816,11.065h-3.566c-1.279,0-2.471,0.579-3.271,1.588
		c-0.592,0.747-1.814,2.288-0.393,8.59c0.087,0.979,0.408,1.893,0.908,2.686C74,143.828,63.07,161.264,59.33,166.215
		c-1.264,1.671-1.521,3.666-0.689,5.336c0.832,1.67,2.576,2.667,4.67,2.667h11.913h2.018h4.036h3.814v-3.815
		c0-7.035,6.257-20.83,20.722-20.83c14.13,0,19.997,13.567,19.997,20.83v3.815h3.814h4.035h4.035h9.896
		c2.078,0,3.822-0.989,4.664-2.644c0.842-1.656,0.615-3.648-0.609-5.33c-3.67-5.041-14.211-22.54-18.753-30.35
		c0.509-0.798,0.836-1.722,0.923-2.711c1.422-6.303,0.2-7.843-0.393-8.59c-0.801-1.009-1.992-1.588-3.271-1.588h-3.59
		c-0.982-3.029-1.947-7.235-2.822-11.045c-0.527-2.309-1.037-4.525-1.531-6.418c1.51-2.5,2.098-5.879,2.021-7.001
		c-0.178-2.704-2.23-4.119-4.166-4.119h-1.313c-2.683-11.24-4.656-23.518-5.879-36.578l0.221-0.07l2.113-0.669l0.465-2.17
		l1.232-5.766l0.084-0.395v-0.403c0-1.977-0.939-3.732-2.406-4.837l-0.035-0.339l-0.184-1.695l-1.385-0.995l-1.492-1.07
		c-0.334-2.052-0.939-4.858-1.389-6.252C109.264,30.581,107.301,29.653,105.744,29.653 M104.578,114.859h2.146l2.084,8.146h-6.314
		L104.578,114.859z"/>
</g>
<path fill="#1A1A19" d="M105.445,18.93l0.084,0.001c1.125,0.014,1.824,0.273,1.979,0.363l65.508,37.82
	c0.848,0.49,2.063,2.593,2.063,3.573v75.64c0,0.979-1.215,3.083-2.063,3.573l-65.508,37.82c-0.156,0.09-0.854,0.35-1.975,0.363
	h-0.088c-1.168,0-1.898-0.27-2.063-0.364L37.877,139.9c-0.85-0.49-2.063-2.594-2.063-3.573v-75.64c0-0.98,1.213-3.083,2.063-3.573
	l65.506-37.82C103.547,19.2,104.277,18.93,105.445,18.93 M105.445,10.65c-2.25,0-4.496,0.488-6.202,1.473l-65.507,37.82
	c-3.411,1.97-6.202,6.805-6.202,10.744v75.64c0,3.94,2.791,8.774,6.202,10.744l65.507,37.819c1.706,0.985,3.954,1.474,6.202,1.474
	c0.061,0,0.121,0,0.184-0.001c2.188-0.026,4.36-0.514,6.02-1.473l65.506-37.819c3.412-1.97,6.203-6.804,6.203-10.744v-75.64
	c0-3.939-2.791-8.774-6.203-10.744l-65.506-37.82c-1.659-0.958-3.832-1.446-6.02-1.472C105.566,10.65,105.506,10.65,105.445,10.65"
	/>
<polygon fill="#1A1A19" points="102.611,113.771 107.717,113.908 110.615,124.811 99.85,125.501 "/>
</svg>
