<?xml version="1.0" encoding="utf-8"?>
<!-- Generator: Adobe Illustrator 16.0.0, SVG Export Plug-In . SVG Version: 6.00 Build 0)  -->
<!DOCTYPE svg PUBLIC "-//W3C//DTD SVG 1.1//EN" "http://www.w3.org/Graphics/SVG/1.1/DTD/svg11.dtd">
<svg version="1.1" id="Layer_1" xmlns="http://www.w3.org/2000/svg" xmlns:xlink="http://www.w3.org/1999/xlink" x="0px" y="0px"
	 width="215px" height="195px" viewBox="0 0 215 195" enable-background="new 0 0 215 195" xml:space="preserve">
<path fill="#929497" d="M865.52-66.557"/>
<path fill="#929497" d="M-1276.484-66.557"/>
<path fill="#929497" d="M-1276.484-65.807"/>
<path fill="#929497" d="M865.52-65.807"/>
<path fill="#B8E1D4" d="M39.941,146.073l65.506,37.82c1.752,1.012,4.076,1.5,6.387,1.472c2.186-0.025,4.359-0.514,6.02-1.472
	l65.506-37.82c3.412-1.97,6.203-6.804,6.203-10.743V59.689c0-3.939-2.791-8.773-6.203-10.743l-65.506-37.82
	c-1.66-0.958-3.834-1.446-6.02-1.473c-2.311-0.026-4.635,0.461-6.387,1.473l-65.506,37.82c-3.412,1.97-6.203,6.804-6.203,10.743
	v75.641C33.738,139.27,36.529,144.104,39.941,146.073"/>
<path fill="#83CCB3" d="M182.809,146.073c3.411-1.97,6.201-6.804,6.201-10.743V59.689c0-3.939-2.79-8.773-6.201-10.743
	l-65.508-37.82c-1.536-0.888-3.514-1.366-5.535-1.453v175.675c2.021-0.088,3.999-0.567,5.535-1.454L182.809,146.073z"/>
<g opacity="0.4">
	<g>
		<defs>
			<rect id="SVGID_1_" x="33.74" y="9.65" width="155.82" height="175.72"/>
		</defs>
		<clipPath id="SVGID_2_">
			<use xlink:href="#SVGID_1_"  overflow="visible"/>
		</clipPath>
		<path clip-path="url(#SVGID_2_)" fill="#FFFFFF" d="M111.65,25.073l62.732,36.219v72.436l-62.732,36.22l-62.731-36.219V61.292
			L111.65,25.073 M111.649,9.652c-2.248,0-4.496,0.489-6.202,1.474l-65.506,37.82c-3.412,1.97-6.203,6.805-6.203,10.744v75.641
			c0,3.939,2.791,8.773,6.203,10.744l65.506,37.819c1.706,0.985,3.954,1.474,6.202,1.474c0.061,0,0.122,0,0.185-0.002
			c2.186-0.025,4.359-0.514,6.02-1.472l65.506-37.819c3.412-1.971,6.203-6.805,6.203-10.744V59.689
			c0-3.938-2.791-8.773-6.203-10.744l-65.506-37.82c-1.66-0.958-3.834-1.446-6.02-1.472C111.771,9.652,111.71,9.652,111.649,9.652"
			/>
	</g>
</g>
<path fill="#1A1A19" d="M111.649,17.933l0.085,0.001c1.125,0.013,1.824,0.273,1.979,0.363l65.508,37.82
	c0.848,0.489,2.062,2.593,2.062,3.572v75.641c0,0.979-1.214,3.082-2.063,3.572l-65.506,37.82c-0.156,0.09-0.854,0.35-1.976,0.364
	h-0.088c-1.169,0-1.897-0.27-2.062-0.364l-65.508-37.82c-0.847-0.49-2.063-2.593-2.063-3.572V59.689
	c0-0.979,1.215-3.083,2.063-3.572l65.508-37.82C109.752,18.203,110.48,17.933,111.649,17.933 M111.649,9.652
	c-2.248,0-4.496,0.489-6.202,1.474l-65.506,37.82c-3.412,1.97-6.203,6.805-6.203,10.744v75.641c0,3.939,2.791,8.773,6.203,10.744
	l65.506,37.819c1.706,0.985,3.954,1.474,6.202,1.474c0.062,0,0.122,0,0.185-0.002c2.186-0.025,4.359-0.514,6.02-1.472l65.506-37.819
	c3.412-1.971,6.203-6.805,6.203-10.744V59.689c0-3.938-2.791-8.773-6.203-10.744l-65.506-37.82c-1.66-0.958-3.834-1.446-6.02-1.472
	C111.771,9.652,111.71,9.652,111.649,9.652"/>
<g>
	<defs>
		<path id="SVGID_3_" d="M105.447,11.126L39.941,48.945c-3.412,1.971-6.203,6.806-6.203,10.745v75.641
			c0,3.938,2.791,8.772,6.203,10.742l65.506,37.821c1.752,1.011,4.076,1.498,6.387,1.473c2.186-0.027,4.357-0.516,6.02-1.473
			l65.506-37.821c3.412-1.97,6.203-6.804,6.203-10.742V59.69c0-3.939-2.791-8.774-6.203-10.745l-65.506-37.819
			c-1.662-0.958-3.834-1.446-6.02-1.472c-0.061-0.001-0.121-0.001-0.18-0.001C109.404,9.653,107.154,10.142,105.447,11.126"/>
	</defs>
	<clipPath id="SVGID_4_">
		<use xlink:href="#SVGID_3_"  overflow="visible"/>
	</clipPath>
	<polygon clip-path="url(#SVGID_4_)" fill="#484848" points="89.561,130.105 18.902,99.746 18.902,180.73 59.752,180.73 
		59.752,201.907 96.184,201.907 96.184,151.282 89.561,140.409 	"/>
	<path clip-path="url(#SVGID_4_)" fill="#FFFFFF" d="M114.908,74.78c0-4.454,3.609-8.063,8.063-8.063
		c0.524,0,1.036,0.051,1.53,0.146c1.703-4.376,5.955-7.479,10.932-7.479c4.925,0,9.137,3.035,10.876,7.335
		c0.04-0.001,0.081-0.003,0.122-0.003c3.158,0,5.891,1.815,7.214,4.46c0.278-0.04,0.562-0.063,0.851-0.063
		c3.238,0,5.863,2.626,5.863,5.865s-2.625,5.865-5.863,5.865h-32.258v-0.034C118.129,82.439,114.908,78.987,114.908,74.78"/>
	<path clip-path="url(#SVGID_4_)" fill="#FFFFFF" d="M98.668,204.392h-41.4v-21.176H16.42V96.031l78.385,32.414v11.536l3.863,10.872
		V204.392z M62.236,199.424h31.463v-47.713l-3.863-10.873v-9.071l-68.447-28.305v74.786h40.848V199.424z"/>
	<polygon clip-path="url(#SVGID_4_)" fill="#484848" points="137.717,130.105 208.373,99.746 208.373,180.73 167.525,180.73 
		167.525,201.907 131.094,201.907 131.094,151.282 137.717,140.409 	"/>
	<path clip-path="url(#SVGID_4_)" fill="#FFFFFF" d="M170.01,204.392h-41.402v-53.538l3.865-10.872v-11.536l78.385-32.414v87.185
		H170.01V204.392z M133.576,199.424h31.465v-21.176h40.848v-74.786l-68.447,28.305v9.071l-3.865,10.873V199.424z"/>
	<polygon clip-path="url(#SVGID_4_)" fill="#FFFFFF" points="119.313,30.863 104.006,30.863 111.66,-0.614 	"/>
	<path clip-path="url(#SVGID_4_)" fill="#FFFFFF" d="M111.66,29.671c0,0,2.992,0,3.373,7.825c0.288,5.893,1.029,9.401,1.635,13.502
		l7.055,1.618v11.94l2.685,1.688v13.119l3.188,1.687v49.617l7.135,1.302v12.067l8.609,2.76v32.77H77.961v-32.77l8.608-2.76v-12.067
		l7.136-1.302V81.049l3.188-1.687V66.243l2.685-1.688v-11.94l7.055-1.618c0.605-4.101,1.346-7.609,1.635-13.502
		c0.382-7.825,3.374-7.825,3.374-7.825H111.66 M111.66,22.219h-0.019c-1.685,0-10.125,0.719-10.817,14.913
		c-0.152,3.114-0.441,5.485-0.775,7.73l-2.139,0.49l-5.785,1.327v5.936v7.822l-2.684,1.687v4.119v8.63l-3.189,1.686v4.489v43.402
		l-1.02,0.186l-6.115,1.115v6.216v6.63l-3.432,1.102l-5.176,1.658v5.438v32.77v7.453h7.451h67.379h7.451v-7.453v-32.77v-5.437
		l-5.177-1.659l-3.431-1.102v-6.63v-6.216l-6.115-1.115l-1.02-0.186V81.049V76.56l-3.189-1.687v-8.629v-4.119l-2.684-1.687v-7.822
		V46.68l-5.786-1.327l-2.138-0.49c-0.334-2.245-0.623-4.617-0.775-7.73C121.785,22.938,113.344,22.219,111.66,22.219"/>
	<path clip-path="url(#SVGID_4_)" fill="#E2AF5F" d="M136.73,141.274v-9.307l-7.133-1.302V81.049l-3.19-1.687v-13.12l-2.683-1.687
		v-11.94l-7.057-1.618c-0.605-4.1,0.926-7.609,0.639-13.502c-0.383-7.825-5.647-7.825-5.647-7.825h-0.019c0,0-5.264,0-5.646,7.825
		c-0.287,5.893,1.245,9.402,0.639,13.502l-7.057,1.618v11.94l-2.682,1.687v13.12l-3.191,1.687v49.617l-7.134,1.302v9.307
		l-8.608,2.76v35.531h67.379v-35.531L136.73,141.274z"/>
	<g clip-path="url(#SVGID_4_)">
		<g>
			<defs>
				<rect id="SVGID_5_" x="76.33" y="140.35" width="9.02" height="26.87"/>
			</defs>
			<clipPath id="SVGID_6_">
				<use xlink:href="#SVGID_5_"  overflow="visible"/>
			</clipPath>
			<polygon clip-path="url(#SVGID_6_)" fill="#E2AF5F" points="76.334,146.243 76.701,161.146 85.349,167.219 84.98,140.355 			"/>
		</g>
	</g>
	<g clip-path="url(#SVGID_4_)">
		<g>
			<defs>
				<rect id="SVGID_7_" x="138.34" y="140.35" width="9.02" height="26.87"/>
			</defs>
			<clipPath id="SVGID_8_">
				<use xlink:href="#SVGID_7_"  overflow="visible"/>
			</clipPath>
			<polygon clip-path="url(#SVGID_8_)" fill="#E2AF5F" points="147.357,146.243 146.989,161.146 138.342,167.219 138.709,140.355 
							"/>
		</g>
	</g>
	<polygon clip-path="url(#SVGID_4_)" fill="#F4D4A5" points="114.4,29.283 108.695,29.283 105.936,48.052 117.16,48.052 	"/>
	<rect x="95.629" y="65.177" clip-path="url(#SVGID_4_)" fill="#F4D4A5" width="30.779" height="14.186"/>
	<g clip-path="url(#SVGID_4_)">
		<g>
			<defs>
				<rect id="SVGID_9_" x="95.629" y="65.93" width="30.781" height="13.9"/>
			</defs>
			<clipPath id="SVGID_10_">
				<use xlink:href="#SVGID_9_"  overflow="visible"/>
			</clipPath>
			<rect x="95.629" y="65.931" clip-path="url(#SVGID_10_)" fill="#E2AF5F" width="30.779" height="13.899"/>
		</g>
	</g>
	<path clip-path="url(#SVGID_4_)" fill="#010101" d="M111.66,29.671c0,0,2.992,0,3.373,7.825c0.288,5.893,1.029,9.401,1.635,13.502
		l7.055,1.618v11.94l2.685,1.688v13.119l3.188,1.687v49.617l7.135,1.302v12.067l8.609,2.76v32.77H77.961v-32.77l8.608-2.76v-12.067
		l7.136-1.302V81.049l3.188-1.687V66.243l2.685-1.688v-11.94l7.055-1.618c0.605-4.101,1.346-7.609,1.635-13.502
		c0.382-7.825,3.374-7.825,3.374-7.825H111.66 M111.66,25.53h-0.019c-1.159,0-6.964,0.567-7.509,11.764
		c-0.211,4.322-0.67,7.236-1.158,10.295l-4.324,0.992l-3.213,0.737v3.298v9.652l-0.747,0.469l-1.937,1.218v2.289v10.626l-0.985,0.52
		l-2.204,1.166v2.494v46.164l-3.738,0.682l-3.396,0.62v3.453v9.047l-5.732,1.838l-2.876,0.922v3.021v32.77v4.141h4.14h67.379h4.139
		v-4.141v-32.77v-3.021l-2.875-0.922l-5.732-1.838v-9.047v-3.453l-3.396-0.62l-3.737-0.682V81.049v-2.494l-2.206-1.166l-0.984-0.52
		V66.243v-2.289l-1.937-1.217l-0.747-0.47v-9.652v-3.298l-3.214-0.737l-4.323-0.992c-0.488-3.057-0.947-5.973-1.158-10.295
		C118.623,26.098,112.817,25.53,111.66,25.53"/>
	<rect x="107.545" y="64.991" clip-path="url(#SVGID_4_)" fill="#010101" width="8.459" height="67.612"/>
	<g opacity="0.5" clip-path="url(#SVGID_4_)">
		<g>
			<defs>
				<rect id="SVGID_11_" x="99.58" y="57.43" width="24.449" height="1.3"/>
			</defs>
			<clipPath id="SVGID_12_">
				<use xlink:href="#SVGID_11_"  overflow="visible"/>
			</clipPath>
			<rect x="99.576" y="57.434" clip-path="url(#SVGID_12_)" fill="#010101" width="24.453" height="1.302"/>
		</g>
	</g>
	<rect x="105.875" y="48.943" clip-path="url(#SVGID_4_)" fill="#010101" width="11.486" height="2.082"/>
	<polygon clip-path="url(#SVGID_4_)" fill="#010101" points="108.746,27.138 111.659,15.157 114.572,27.138 	"/>
	<polygon clip-path="url(#SVGID_4_)" fill="#010101" points="112.314,153.132 91.84,148.494 91.84,129.328 93.729,129.328 
		93.729,146.984 112.301,151.191 129.6,147.006 129.6,129.338 131.488,129.338 131.488,148.492 	"/>
	<rect x="102.463" y="137.289" clip-path="url(#SVGID_4_)" fill="#010101" width="18.833" height="42.275"/>
	<rect x="136.761" y="135.225" clip-path="url(#SVGID_4_)" fill="#010101" width="2.474" height="38.82"/>
	<rect x="84.066" y="135.225" clip-path="url(#SVGID_4_)" fill="#010101" width="2.473" height="38.82"/>
	<g opacity="0.2" clip-path="url(#SVGID_4_)">
		<g>
			<defs>
				<rect id="SVGID_13_" x="98.02" y="85.27" width="1.301" height="63.47"/>
			</defs>
			<clipPath id="SVGID_14_">
				<use xlink:href="#SVGID_13_"  overflow="visible"/>
			</clipPath>
			<rect x="98.016" y="85.27" clip-path="url(#SVGID_14_)" fill="#010101" width="1.301" height="63.465"/>
		</g>
	</g>
	<g opacity="0.2" clip-path="url(#SVGID_4_)">
		<g>
			<defs>
				<rect id="SVGID_15_" x="102.439" y="85.27" width="1.301" height="63.47"/>
			</defs>
			<clipPath id="SVGID_16_">
				<use xlink:href="#SVGID_15_"  overflow="visible"/>
			</clipPath>
			<rect x="102.441" y="85.27" clip-path="url(#SVGID_16_)" fill="#010101" width="1.301" height="63.465"/>
		</g>
	</g>
	<g opacity="0.2" clip-path="url(#SVGID_4_)">
		<g>
			<defs>
				<rect id="SVGID_17_" x="119.85" y="85.27" width="1.301" height="63.47"/>
			</defs>
			<clipPath id="SVGID_18_">
				<use xlink:href="#SVGID_17_"  overflow="visible"/>
			</clipPath>
			<rect x="119.852" y="85.27" clip-path="url(#SVGID_18_)" fill="#010101" width="1.301" height="63.465"/>
		</g>
	</g>
	<g opacity="0.2" clip-path="url(#SVGID_4_)">
		<g>
			<defs>
				<rect id="SVGID_19_" x="124.279" y="85.27" width="1.301" height="63.47"/>
			</defs>
			<clipPath id="SVGID_20_">
				<use xlink:href="#SVGID_19_"  overflow="visible"/>
			</clipPath>
			<rect x="124.277" y="85.27" clip-path="url(#SVGID_20_)" fill="#010101" width="1.301" height="63.465"/>
		</g>
	</g>
	<g opacity="0.5" clip-path="url(#SVGID_4_)">
		<g>
			<defs>
				<rect id="SVGID_21_" x="101.391" y="65.77" width="1.299" height="14"/>
			</defs>
			<clipPath id="SVGID_22_">
				<use xlink:href="#SVGID_21_"  overflow="visible"/>
			</clipPath>
			<rect x="101.393" y="65.772" clip-path="url(#SVGID_22_)" fill="#010101" width="1.301" height="13.994"/>
		</g>
	</g>
	<g opacity="0.5" clip-path="url(#SVGID_4_)">
		<g>
			<defs>
				<rect id="SVGID_23_" x="120.99" y="65.77" width="1.3" height="14"/>
			</defs>
			<clipPath id="SVGID_24_">
				<use xlink:href="#SVGID_23_"  overflow="visible"/>
			</clipPath>
			<rect x="120.989" y="65.772" clip-path="url(#SVGID_24_)" fill="#010101" width="1.301" height="13.994"/>
		</g>
	</g>
	<rect x="106.633" y="46.523" clip-path="url(#SVGID_4_)" fill="#010101" width="10.035" height="4.474"/>
	<rect x="95.628" y="64.292" clip-path="url(#SVGID_4_)" fill="#010101" width="31.792" height="1.769"/>
	<rect x="93.096" y="79.175" clip-path="url(#SVGID_4_)" fill="#010101" width="36.502" height="1.896"/>
	<path clip-path="url(#SVGID_4_)" fill="#FFFFFF" d="M80.982,58.566c0-5.358-4.344-9.702-9.701-9.702
		c-0.631,0-1.246,0.063-1.842,0.177c-2.05-5.264-7.164-8.996-13.152-8.996c-5.922,0-10.99,3.65-13.084,8.823
		c-0.049-0.001-0.097-0.004-0.146-0.004c-3.8,0-7.087,2.187-8.679,5.367c-0.334-0.049-0.676-0.075-1.023-0.075
		c-3.896,0-7.056,3.159-7.056,7.056s3.159,7.056,7.056,7.056h38.807v-0.042C77.107,67.78,80.982,63.627,80.982,58.566"/>
</g>
<path fill="#1A1A19" d="M111.649,17.933l0.085,0.001c1.125,0.013,1.824,0.273,1.979,0.363l65.508,37.82
	c0.848,0.489,2.062,2.593,2.062,3.572v75.641c0,0.979-1.214,3.082-2.063,3.572l-65.506,37.82c-0.156,0.09-0.854,0.35-1.976,0.364
	h-0.088c-1.169,0-1.897-0.27-2.062-0.364l-65.508-37.82c-0.847-0.49-2.063-2.593-2.063-3.572V59.689
	c0-0.979,1.215-3.083,2.063-3.572l65.508-37.82C109.752,18.203,110.48,17.933,111.649,17.933 M111.649,9.652
	c-2.248,0-4.496,0.489-6.202,1.474l-65.506,37.82c-3.412,1.97-6.203,6.805-6.203,10.744v75.641c0,3.939,2.791,8.773,6.203,10.744
	l65.506,37.819c1.706,0.985,3.954,1.474,6.202,1.474c0.062,0,0.122,0,0.185-0.002c2.186-0.025,4.359-0.514,6.02-1.472l65.506-37.819
	c3.412-1.971,6.203-6.805,6.203-10.744V59.689c0-3.938-2.791-8.773-6.203-10.744l-65.506-37.82c-1.66-0.958-3.834-1.446-6.02-1.472
	C111.771,9.652,111.71,9.652,111.649,9.652"/>
</svg>
