<?xml version="1.0" encoding="utf-8"?>
<!-- Generator: Adobe Illustrator 16.0.0, SVG Export Plug-In . SVG Version: 6.00 Build 0)  -->
<!DOCTYPE svg PUBLIC "-//W3C//DTD SVG 1.1//EN" "http://www.w3.org/Graphics/SVG/1.1/DTD/svg11.dtd">
<svg version="1.1" id="Layer_1" xmlns="http://www.w3.org/2000/svg" xmlns:xlink="http://www.w3.org/1999/xlink" x="0px" y="0px"
	 width="612px" height="792px" viewBox="0 0 612 792" enable-background="new 0 0 612 792" xml:space="preserve">
<path fill="none" d="M311.63-1226.76"/>
<path fill="none" d="M311.63,2018.837"/>
<path fill="none" d="M312.63-1225.76"/>
<path fill="none" d="M312.63,2019.837"/>
<path fill="#5F9AD2" d="M185.246,519.479"/>
<path fill="#FFFFFF" d="M185.246,519.729"/>
<path fill="#231F20" d="M185.246,519.73"/>
<polygon fill="#A6A8AC" points="215.227,579.157 215.227,563.819 224.955,563.819 224.955,565.016 216.539,565.016 216.539,570.695 
	224.793,570.695 224.793,571.891 216.539,571.891 216.539,577.962 224.955,577.962 224.955,579.157 "/>
<polygon fill="#A6A8AC" points="243.975,579.157 243.975,565.476 238.386,579.157 237.88,579.157 232.27,565.476 232.27,579.157 
	230.958,579.157 230.958,563.819 232.913,563.819 238.133,576.582 243.33,563.819 245.309,563.819 245.309,579.157 "/>
<path fill="#A6A8AC" d="M251.889,579.158V563.82h5.748c2.943,0,4.623,2.068,4.623,4.483s-1.701,4.484-4.623,4.484h-4.438v6.37
	H251.889z M260.879,568.304c0-1.932-1.332-3.289-3.38-3.289h-4.3v6.577h4.3C259.547,571.592,260.879,570.213,260.879,568.304"/>
<rect x="267.782" y="563.82" fill="#A6A8AC" width="1.312" height="15.338"/>
<path fill="#A6A8AC" d="M284.662,579.158l-4.301-6.348h-3.379v6.348h-1.313V563.82h5.727c2.644,0,4.668,1.678,4.668,4.483
	c0,2.782-1.955,4.323-4.254,4.415l4.438,6.439H284.662z M284.686,568.304c0-1.932-1.357-3.289-3.404-3.289h-4.299v6.601h4.299
	C283.328,571.615,284.686,570.236,284.686,568.304"/>
<polygon fill="#A6A8AC" points="292.092,579.157 292.092,563.819 301.82,563.819 301.82,565.016 293.404,565.016 293.404,570.695 
	301.658,570.695 301.658,571.891 293.404,571.891 293.404,577.962 301.82,577.962 301.82,579.157 "/>
<path fill="#A6A8AC" d="M315.691,576.996l0.85-0.989c0.99,1.127,2.599,2.231,4.807,2.231c3.127,0,4.023-1.748,4.023-3.059
	c0-4.508-9.197-2.162-9.197-7.52c0-2.506,2.253-4.094,5.035-4.094c2.277,0,4.025,0.806,5.197,2.161l-0.873,0.967
	c-1.104-1.333-2.668-1.932-4.393-1.932c-2.047,0-3.588,1.172-3.588,2.828c0,3.933,9.199,1.771,9.199,7.496
	c0,1.978-1.311,4.347-5.45,4.347C318.771,579.434,316.863,578.398,315.691,576.996"/>
<polygon fill="#A6A8AC" points="336.506,579.157 336.506,565.016 331.492,565.016 331.492,563.819 342.852,563.819 342.852,565.016 
	337.84,565.016 337.84,579.157 "/>
<path fill="#A6A8AC" d="M357.848,579.157l-1.518-3.771h-8.117l-1.519,3.771h-1.517l6.277-15.338h1.633l6.277,15.338H357.848z
	 M352.283,565.223l-3.634,8.968h7.243L352.283,565.223z"/>
<polygon fill="#A6A8AC" points="366.703,579.157 366.703,565.016 361.69,565.016 361.69,563.819 373.051,563.819 373.051,565.016 
	368.037,565.016 368.037,579.157 "/>
<polygon fill="#A6A8AC" points="378.527,579.157 378.527,563.819 388.254,563.819 388.254,565.016 379.838,565.016 379.838,570.695 
	388.093,570.695 388.093,571.891 379.838,571.891 379.838,577.962 388.254,577.962 388.254,579.157 "/>
<path fill="#A6A8AC" d="M243.875,606.757V591.42h6.301c2.574,0,4.23,1.495,4.23,3.909c0,1.931-1.31,3.241-2.689,3.518
	c1.632,0.253,2.988,1.954,2.988,3.772c0,2.552-1.654,4.138-4.392,4.138H243.875z M253.026,595.466c0-1.563-1.035-2.851-3.013-2.851
	h-4.828v5.681h4.828C251.991,598.296,253.026,597.053,253.026,595.466 M253.326,602.525c0-1.563-1.082-3.035-3.22-3.035h-4.921
	v6.071h4.921C252.131,605.562,253.326,604.389,253.326,602.525"/>
<path fill="#A6A8AC" d="M260.779,600.87v-9.45h1.334v9.428c0,3.104,1.633,4.99,4.645,4.99s4.645-1.887,4.645-4.99v-9.428h1.334v9.45
	c0,3.794-2.023,6.163-5.979,6.163C262.826,607.033,260.779,604.642,260.779,600.87"/>
<rect x="279.316" y="591.419" fill="#A6A8AC" width="1.312" height="15.338"/>
<polygon fill="#A6A8AC" points="286.885,606.757 286.885,591.419 288.217,591.419 288.217,605.563 295.645,605.563 295.645,606.757 
	"/>
<path fill="#A6A8AC" d="M301.097,606.757v-15.338h4.899c4.76,0,7.748,3.473,7.748,7.681c0,4.254-2.988,7.657-7.748,7.657H301.097z
	 M312.365,599.1c0-3.587-2.3-6.483-6.369-6.483h-3.588v12.945h3.588C310.043,605.562,312.365,602.687,312.365,599.1"/>
<rect x="319.773" y="591.419" fill="#A6A8AC" width="1.312" height="15.338"/>
<polygon fill="#A6A8AC" points="338.631,606.757 328.973,593.581 328.973,606.757 327.661,606.757 327.661,591.419 328.995,591.419 
	338.607,604.411 338.607,591.419 339.918,591.419 339.918,606.757 "/>
<path fill="#A6A8AC" d="M345.926,599.1c0-4.736,3.448-7.934,7.771-7.934c2.529,0,4.369,1.012,5.771,2.622l-0.988,0.713
	c-1.08-1.288-2.828-2.138-4.783-2.138c-3.588,0-6.393,2.735-6.393,6.736c0,3.955,2.805,6.762,6.393,6.762
	c2.046,0,3.679-1.013,4.507-1.864v-3.678h-5.795v-1.174h7.106v5.357c-1.357,1.519-3.404,2.553-5.818,2.553
	C349.374,607.056,345.926,603.837,345.926,599.1"/>
<path fill="#B8E1D4" d="M231.941,488.073l65.506,37.82c1.752,1.012,4.076,1.5,6.386,1.472c2.187-0.025,4.36-0.514,6.021-1.472
	l65.506-37.82c3.412-1.97,6.203-6.804,6.203-10.743v-75.641c0-3.939-2.791-8.774-6.203-10.743l-65.506-37.821
	c-1.66-0.958-3.834-1.446-6.021-1.472c-2.31-0.026-4.634,0.461-6.386,1.472l-65.506,37.821c-3.412,1.969-6.203,6.804-6.203,10.743
	v75.641C225.738,481.27,228.529,486.104,231.941,488.073"/>
<path fill="#83CCB3" d="M374.809,488.073c3.411-1.97,6.202-6.804,6.202-10.743v-75.641c0-3.939-2.791-8.774-6.202-10.743
	l-65.507-37.821c-1.537-0.887-3.515-1.366-5.536-1.453v175.675c2.021-0.088,3.999-0.567,5.536-1.454L374.809,488.073z"/>
<g opacity="0.4">
	<g>
		<defs>
			<rect id="SVGID_1_" x="225.74" y="351.65" width="155.82" height="175.72"/>
		</defs>
		<clipPath id="SVGID_2_">
			<use xlink:href="#SVGID_1_"  overflow="visible"/>
		</clipPath>
		<path clip-path="url(#SVGID_2_)" fill="#FFFFFF" d="M303.65,367.073l62.732,36.219v72.436l-62.732,36.22l-62.731-36.219v-72.437
			L303.65,367.073 M303.649,351.652c-2.248,0-4.496,0.489-6.202,1.474l-65.506,37.82c-3.412,1.97-6.203,6.805-6.203,10.744v75.641
			c0,3.939,2.791,8.773,6.203,10.744l65.506,37.819c1.706,0.985,3.954,1.474,6.202,1.474c0.061,0,0.122,0,0.184-0.002
			c2.187-0.025,4.36-0.514,6.021-1.472l65.506-37.819c3.412-1.971,6.203-6.805,6.203-10.744v-75.641
			c0-3.938-2.791-8.773-6.203-10.744l-65.506-37.82c-1.66-0.958-3.834-1.446-6.021-1.472
			C303.771,351.652,303.71,351.652,303.649,351.652"/>
	</g>
</g>
<path fill="#1A1A19" d="M303.649,359.933l0.086,0.001c1.124,0.013,1.823,0.273,1.978,0.363l65.508,37.82
	c0.848,0.489,2.062,2.593,2.062,3.572v75.641c0,0.979-1.214,3.082-2.063,3.572l-65.506,37.82c-0.156,0.09-0.854,0.35-1.976,0.364
	h-0.088c-1.169,0-1.898-0.27-2.062-0.364l-65.507-37.82c-0.848-0.49-2.063-2.593-2.063-3.572v-75.641
	c0-0.979,1.215-3.083,2.063-3.572l65.507-37.82C301.751,360.203,302.48,359.933,303.649,359.933 M303.649,351.652
	c-2.248,0-4.496,0.489-6.202,1.474l-65.506,37.82c-3.412,1.97-6.203,6.805-6.203,10.744v75.641c0,3.939,2.791,8.773,6.203,10.744
	l65.506,37.819c1.706,0.985,3.954,1.474,6.202,1.474c0.062,0,0.122,0,0.184-0.002c2.187-0.025,4.36-0.514,6.021-1.472l65.506-37.819
	c3.412-1.971,6.203-6.805,6.203-10.744v-75.641c0-3.938-2.791-8.773-6.203-10.744l-65.506-37.82
	c-1.66-0.958-3.834-1.446-6.021-1.472C303.771,351.652,303.71,351.652,303.649,351.652"/>
<g>
	<defs>
		<path id="SVGID_3_" d="M297.448,353.126l-65.507,37.819c-3.412,1.971-6.203,6.806-6.203,10.744v75.642
			c0,3.938,2.791,8.772,6.203,10.742l65.507,37.821c1.752,1.011,4.075,1.498,6.385,1.473c2.187-0.027,4.358-0.516,6.021-1.473
			l65.506-37.821c3.412-1.97,6.203-6.804,6.203-10.742v-75.642c0-3.938-2.791-8.773-6.203-10.744l-65.506-37.819
			c-1.662-0.958-3.834-1.446-6.021-1.472c-0.06-0.001-0.119-0.001-0.179-0.001C301.404,351.653,299.154,352.141,297.448,353.126"/>
	</defs>
	<clipPath id="SVGID_4_">
		<use xlink:href="#SVGID_3_"  overflow="visible"/>
	</clipPath>
	<polygon clip-path="url(#SVGID_4_)" fill="#484848" points="281.561,472.105 210.903,441.746 210.903,522.73 251.752,522.73 
		251.752,543.907 288.184,543.907 288.184,493.282 281.561,482.409 	"/>
	<path clip-path="url(#SVGID_4_)" fill="#FFFFFF" d="M306.908,416.78c0-4.454,3.609-8.063,8.063-8.063
		c0.524,0,1.036,0.051,1.53,0.146c1.703-4.376,5.955-7.479,10.933-7.479c4.924,0,9.136,3.035,10.875,7.335
		c0.041-0.001,0.081-0.003,0.122-0.003c3.158,0,5.891,1.815,7.214,4.46c0.278-0.04,0.562-0.063,0.851-0.063
		c3.239,0,5.864,2.626,5.864,5.865s-2.625,5.865-5.864,5.865h-32.258v-0.034C310.129,424.439,306.908,420.987,306.908,416.78"/>
	<path clip-path="url(#SVGID_4_)" fill="#FFFFFF" d="M290.669,546.392h-41.401v-21.176H208.42v-87.185l78.385,32.414v11.536
		l3.864,10.872V546.392z M254.236,541.424H285.7v-47.713l-3.864-10.873v-9.071l-68.447-28.305v74.786h40.848V541.424z"/>
	<polygon clip-path="url(#SVGID_4_)" fill="#484848" points="329.717,472.105 400.373,441.746 400.373,522.73 359.525,522.73 
		359.525,543.907 323.094,543.907 323.094,493.282 329.717,482.409 	"/>
	<path clip-path="url(#SVGID_4_)" fill="#FFFFFF" d="M362.01,546.392h-41.402v-53.538l3.865-10.872v-11.536l78.385-32.414v87.185
		H362.01V546.392z M325.577,541.424h31.464v-21.176h40.848v-74.786l-68.447,28.305v9.071l-3.864,10.873V541.424z"/>
	<polygon clip-path="url(#SVGID_4_)" fill="#FFFFFF" points="311.313,372.863 296.006,372.863 303.66,341.386 	"/>
	<path clip-path="url(#SVGID_4_)" fill="#FFFFFF" d="M303.66,371.671c0,0,2.992,0,3.373,7.825c0.288,5.893,1.029,9.401,1.635,13.502
		l7.056,1.618v11.94l2.684,1.687v13.12l3.188,1.687v49.617l7.136,1.302v12.067l8.608,2.76v32.77h-67.379v-32.77l8.608-2.76v-12.067
		l7.136-1.302v-49.617l3.188-1.687v-13.12l2.685-1.687v-11.94l7.055-1.618c0.605-4.101,1.347-7.609,1.635-13.502
		c0.382-7.825,3.374-7.825,3.374-7.825H303.66 M303.66,364.219h-0.019c-1.685,0-10.125,0.719-10.817,14.913
		c-0.152,3.114-0.441,5.485-0.775,7.73l-2.139,0.49l-5.785,1.327v5.936v7.822l-2.684,1.688v4.117v8.631l-3.189,1.687v4.489v43.402
		l-1.02,0.186l-6.115,1.115v6.216v6.63l-3.431,1.102l-5.177,1.658v5.438v32.77v7.453h7.451h67.379h7.451v-7.453v-32.77v-5.437
		l-5.177-1.659l-3.431-1.102v-6.63v-6.216l-6.115-1.115l-1.02-0.186v-43.402v-4.489l-3.189-1.687v-8.631v-4.117l-2.684-1.688v-7.822
		v-5.936l-5.786-1.327l-2.138-0.49c-0.334-2.246-0.623-4.617-0.775-7.73C313.785,364.938,305.344,364.219,303.66,364.219"/>
	<path clip-path="url(#SVGID_4_)" fill="#E2AF5F" d="M328.731,483.274v-9.307l-7.134-1.302v-49.617l-3.19-1.687v-13.12l-2.683-1.687
		v-11.94l-7.057-1.618c-0.605-4.1,0.926-7.609,0.639-13.502c-0.383-7.825-5.647-7.825-5.647-7.825h-0.019c0,0-5.265,0-5.646,7.825
		c-0.287,5.893,1.245,9.402,0.639,13.502l-7.056,1.618v11.94l-2.683,1.687v13.12l-3.19,1.687v49.617l-7.135,1.302v9.307l-8.608,2.76
		v35.531h67.379v-35.531L328.731,483.274z"/>
	<g clip-path="url(#SVGID_4_)">
		<g>
			<defs>
				<rect id="SVGID_5_" x="268.33" y="482.35" width="9.02" height="26.87"/>
			</defs>
			<clipPath id="SVGID_6_">
				<use xlink:href="#SVGID_5_"  overflow="visible"/>
			</clipPath>
			<polygon clip-path="url(#SVGID_6_)" fill="#E2AF5F" points="268.333,488.243 268.701,503.146 277.349,509.219 276.98,482.355 			
				"/>
		</g>
	</g>
	<g clip-path="url(#SVGID_4_)">
		<g>
			<defs>
				<rect id="SVGID_7_" x="330.34" y="482.35" width="9.02" height="26.87"/>
			</defs>
			<clipPath id="SVGID_8_">
				<use xlink:href="#SVGID_7_"  overflow="visible"/>
			</clipPath>
			<polygon clip-path="url(#SVGID_8_)" fill="#E2AF5F" points="339.357,488.243 338.989,503.146 330.342,509.219 330.709,482.355 
							"/>
		</g>
	</g>
	<polygon clip-path="url(#SVGID_4_)" fill="#F4D4A5" points="306.4,371.283 300.696,371.283 297.936,390.052 309.16,390.052 	"/>
	<rect x="287.629" y="407.177" clip-path="url(#SVGID_4_)" fill="#F4D4A5" width="30.779" height="14.186"/>
	<g clip-path="url(#SVGID_4_)">
		<g>
			<defs>
				<rect id="SVGID_9_" x="287.63" y="407.93" width="30.78" height="13.9"/>
			</defs>
			<clipPath id="SVGID_10_">
				<use xlink:href="#SVGID_9_"  overflow="visible"/>
			</clipPath>
			<rect x="287.629" y="407.932" clip-path="url(#SVGID_10_)" fill="#E2AF5F" width="30.779" height="13.898"/>
		</g>
	</g>
	<path clip-path="url(#SVGID_4_)" fill="#010101" d="M303.66,371.671c0,0,2.992,0,3.373,7.825c0.288,5.893,1.029,9.401,1.635,13.502
		l7.056,1.618v11.94l2.684,1.687v13.12l3.188,1.687v49.617l7.136,1.302v12.067l8.608,2.76v32.77h-67.379v-32.77l8.608-2.76v-12.067
		l7.136-1.302v-49.617l3.188-1.687v-13.12l2.685-1.687v-11.94l7.055-1.618c0.605-4.101,1.347-7.609,1.635-13.502
		c0.382-7.825,3.374-7.825,3.374-7.825H303.66 M303.66,367.53h-0.019c-1.158,0-6.964,0.567-7.509,11.764
		c-0.211,4.322-0.67,7.236-1.158,10.295l-4.323,0.992l-3.214,0.737v3.298v9.652l-0.747,0.469l-1.937,1.219v2.287v10.627l-0.985,0.52
		l-2.204,1.166v2.494v46.164l-3.738,0.682l-3.396,0.62v3.453v9.047l-5.732,1.838l-2.876,0.922v3.021v32.77v4.141h4.14h67.379h4.14
		v-4.141v-32.77v-3.021l-2.876-0.922l-5.732-1.838v-9.047v-3.453l-3.396-0.62l-3.737-0.682v-46.164v-2.494l-2.205-1.166l-0.985-0.52
		v-10.627v-2.287l-1.937-1.218l-0.746-0.47v-9.652v-3.298l-3.215-0.737l-4.323-0.992c-0.488-3.057-0.947-5.973-1.158-10.295
		C310.623,368.098,304.817,367.53,303.66,367.53"/>
	<rect x="299.545" y="406.991" clip-path="url(#SVGID_4_)" fill="#010101" width="8.46" height="67.612"/>
	<g opacity="0.5" clip-path="url(#SVGID_4_)">
		<g>
			<defs>
				<rect id="SVGID_11_" x="291.58" y="399.43" width="24.449" height="1.301"/>
			</defs>
			<clipPath id="SVGID_12_">
				<use xlink:href="#SVGID_11_"  overflow="visible"/>
			</clipPath>
			<rect x="291.576" y="399.434" clip-path="url(#SVGID_12_)" fill="#010101" width="24.453" height="1.302"/>
		</g>
	</g>
	<rect x="297.874" y="390.943" clip-path="url(#SVGID_4_)" fill="#010101" width="11.487" height="2.082"/>
	<polygon clip-path="url(#SVGID_4_)" fill="#010101" points="300.746,369.138 303.659,357.157 306.572,369.138 	"/>
	<polygon clip-path="url(#SVGID_4_)" fill="#010101" points="304.315,495.132 283.84,490.494 283.84,471.328 285.729,471.328 
		285.729,488.984 304.301,493.191 321.6,489.006 321.6,471.338 323.488,471.338 323.488,490.492 	"/>
	<rect x="294.463" y="479.289" clip-path="url(#SVGID_4_)" fill="#010101" width="18.833" height="42.275"/>
	<rect x="328.761" y="477.225" clip-path="url(#SVGID_4_)" fill="#010101" width="2.474" height="38.82"/>
	<rect x="276.066" y="477.225" clip-path="url(#SVGID_4_)" fill="#010101" width="2.473" height="38.82"/>
	<g opacity="0.2" clip-path="url(#SVGID_4_)">
		<g>
			<defs>
				<rect id="SVGID_13_" x="290.02" y="427.27" width="1.301" height="63.471"/>
			</defs>
			<clipPath id="SVGID_14_">
				<use xlink:href="#SVGID_13_"  overflow="visible"/>
			</clipPath>
			<rect x="290.016" y="427.27" clip-path="url(#SVGID_14_)" fill="#010101" width="1.301" height="63.466"/>
		</g>
	</g>
	<g opacity="0.2" clip-path="url(#SVGID_4_)">
		<g>
			<defs>
				<rect id="SVGID_15_" x="294.439" y="427.27" width="1.301" height="63.471"/>
			</defs>
			<clipPath id="SVGID_16_">
				<use xlink:href="#SVGID_15_"  overflow="visible"/>
			</clipPath>
			<rect x="294.441" y="427.27" clip-path="url(#SVGID_16_)" fill="#010101" width="1.301" height="63.466"/>
		</g>
	</g>
	<g opacity="0.2" clip-path="url(#SVGID_4_)">
		<g>
			<defs>
				<rect id="SVGID_17_" x="311.85" y="427.27" width="1.301" height="63.471"/>
			</defs>
			<clipPath id="SVGID_18_">
				<use xlink:href="#SVGID_17_"  overflow="visible"/>
			</clipPath>
			<rect x="311.852" y="427.27" clip-path="url(#SVGID_18_)" fill="#010101" width="1.301" height="63.466"/>
		</g>
	</g>
	<g opacity="0.2" clip-path="url(#SVGID_4_)">
		<g>
			<defs>
				<rect id="SVGID_19_" x="316.279" y="427.27" width="1.301" height="63.471"/>
			</defs>
			<clipPath id="SVGID_20_">
				<use xlink:href="#SVGID_19_"  overflow="visible"/>
			</clipPath>
			<rect x="316.277" y="427.27" clip-path="url(#SVGID_20_)" fill="#010101" width="1.301" height="63.466"/>
		</g>
	</g>
	<g opacity="0.5" clip-path="url(#SVGID_4_)">
		<g>
			<defs>
				<rect id="SVGID_21_" x="293.391" y="407.77" width="1.299" height="14"/>
			</defs>
			<clipPath id="SVGID_22_">
				<use xlink:href="#SVGID_21_"  overflow="visible"/>
			</clipPath>
			<rect x="293.393" y="407.772" clip-path="url(#SVGID_22_)" fill="#010101" width="1.301" height="13.993"/>
		</g>
	</g>
	<g opacity="0.5" clip-path="url(#SVGID_4_)">
		<g>
			<defs>
				<rect id="SVGID_23_" x="312.99" y="407.77" width="1.3" height="14"/>
			</defs>
			<clipPath id="SVGID_24_">
				<use xlink:href="#SVGID_23_"  overflow="visible"/>
			</clipPath>
			<rect x="312.989" y="407.772" clip-path="url(#SVGID_24_)" fill="#010101" width="1.301" height="13.993"/>
		</g>
	</g>
	<rect x="298.634" y="388.523" clip-path="url(#SVGID_4_)" fill="#010101" width="10.034" height="4.474"/>
	<rect x="287.628" y="406.292" clip-path="url(#SVGID_4_)" fill="#010101" width="31.793" height="1.769"/>
	<rect x="285.096" y="421.175" clip-path="url(#SVGID_4_)" fill="#010101" width="36.502" height="1.896"/>
	<path clip-path="url(#SVGID_4_)" fill="#FFFFFF" d="M272.982,400.566c0-5.358-4.344-9.702-9.701-9.702
		c-0.631,0-1.246,0.063-1.842,0.177c-2.05-5.264-7.164-8.996-13.152-8.996c-5.922,0-10.99,3.65-13.084,8.823
		c-0.049-0.001-0.097-0.004-0.146-0.004c-3.8,0-7.087,2.186-8.679,5.367c-0.334-0.049-0.676-0.075-1.023-0.075
		c-3.896,0-7.056,3.159-7.056,7.057c0,3.896,3.159,7.056,7.056,7.056h38.807v-0.042C269.107,409.78,272.982,405.627,272.982,400.566
		"/>
</g>
<path fill="#1A1A19" d="M303.649,359.933l0.086,0.001c1.124,0.013,1.823,0.273,1.978,0.363l65.508,37.82
	c0.848,0.489,2.062,2.593,2.062,3.572v75.641c0,0.979-1.214,3.082-2.063,3.572l-65.506,37.82c-0.156,0.09-0.854,0.35-1.976,0.364
	h-0.088c-1.169,0-1.898-0.27-2.062-0.364l-65.507-37.82c-0.848-0.49-2.063-2.593-2.063-3.572v-75.641
	c0-0.979,1.215-3.083,2.063-3.572l65.507-37.82C301.751,360.203,302.48,359.933,303.649,359.933 M303.649,351.652
	c-2.248,0-4.496,0.489-6.202,1.474l-65.506,37.82c-3.412,1.97-6.203,6.805-6.203,10.744v75.641c0,3.939,2.791,8.773,6.203,10.744
	l65.506,37.819c1.706,0.985,3.954,1.474,6.202,1.474c0.062,0,0.122,0,0.184-0.002c2.187-0.025,4.36-0.514,6.021-1.472l65.506-37.819
	c3.412-1.971,6.203-6.805,6.203-10.744v-75.641c0-3.938-2.791-8.773-6.203-10.744l-65.506-37.82
	c-1.66-0.958-3.834-1.446-6.021-1.472C303.771,351.652,303.71,351.652,303.649,351.652"/>
</svg>
