<?xml version="1.0" encoding="utf-8"?>
<!-- Generator: Adobe Illustrator 16.0.0, SVG Export Plug-In . SVG Version: 6.00 Build 0)  -->
<!DOCTYPE svg PUBLIC "-//W3C//DTD SVG 1.1//EN" "http://www.w3.org/Graphics/SVG/1.1/DTD/svg11.dtd">
<svg version="1.1" id="Layer_1" xmlns="http://www.w3.org/2000/svg" xmlns:xlink="http://www.w3.org/1999/xlink" x="0px" y="0px"
	 width="612px" height="792px" viewBox="0 0 612 792" enable-background="new 0 0 612 792" xml:space="preserve">
<line fill="none" x1="289.63" y1="1656.837" x2="289.63" y2="-1588.76"/>
<polygon fill="#A6A8AC" points="274.818,569.157 274.818,553.819 284.547,553.819 284.547,555.016 276.131,555.016 276.131,560.695 
	284.385,560.695 284.385,561.891 276.131,561.891 276.131,567.963 284.547,567.963 284.547,569.157 "/>
<path fill="#A6A8AC" d="M289.976,561.5c0-4.484,2.943-7.933,7.45-7.933c4.484,0,7.451,3.448,7.451,7.933
	c0,2.323-0.805,4.346-2.186,5.771l1.609,1.68l-0.896,0.828l-1.633-1.68c-1.173,0.852-2.645,1.334-4.346,1.334
	C292.919,569.434,289.976,565.985,289.976,561.5 M300.898,567.18l-2.369-2.46l0.92-0.852l2.369,2.485
	c1.059-1.22,1.678-2.898,1.678-4.854c0-3.885-2.392-6.737-6.07-6.737c-3.702,0-6.07,2.853-6.07,6.737
	c0,3.864,2.368,6.738,6.07,6.738C298.76,568.238,299.955,567.847,300.898,567.18"/>
<path fill="#A6A8AC" d="M310.883,563.271v-9.45h1.334v9.429c0,3.104,1.633,4.989,4.645,4.989s4.645-1.886,4.645-4.989v-9.429h1.334
	v9.45c0,3.794-2.023,6.163-5.979,6.163C312.93,569.434,310.883,567.042,310.883,563.271"/>
<path fill="#A6A8AC" d="M339.998,569.158l-1.518-3.771h-8.117l-1.519,3.771h-1.517l6.277-15.338h1.633l6.277,15.338H339.998z
	 M334.434,555.223l-3.634,8.969h7.243L334.434,555.223z"/>
<polygon fill="#A6A8AC" points="348.855,569.157 348.855,555.016 343.842,555.016 343.842,553.819 355.201,553.819 355.201,555.016 
	350.189,555.016 350.189,569.157 "/>
<path fill="#A6A8AC" d="M359.436,561.5c0-4.483,2.943-7.934,7.451-7.934c4.483,0,7.449,3.45,7.449,7.934
	c0,4.484-2.966,7.935-7.449,7.935C362.379,569.435,359.436,565.984,359.436,561.5 M372.957,561.5c0-3.886-2.393-6.736-6.07-6.736
	c-3.703,0-6.071,2.851-6.071,6.736c0,3.863,2.368,6.737,6.071,6.737C370.564,568.237,372.957,565.363,372.957,561.5"/>
<path fill="#A6A8AC" d="M389.334,569.158l-4.301-6.348h-3.379v6.348h-1.313V553.82h5.727c2.644,0,4.668,1.678,4.668,4.483
	c0,2.782-1.955,4.323-4.254,4.415l4.438,6.439H389.334z M389.357,558.304c0-1.932-1.357-3.288-3.404-3.288h-4.299v6.601h4.299
	C388,561.616,389.357,560.236,389.357,558.304"/>
<path fill="#A6A8AC" d="M227.199,589.1c0-4.714,3.426-7.934,7.771-7.934c2.438,0,4.3,1.081,5.587,2.714l-1.103,0.713
	c-0.967-1.334-2.646-2.229-4.484-2.229c-3.588,0-6.393,2.735-6.393,6.736c0,3.955,2.805,6.737,6.393,6.737
	c1.839,0,3.518-0.896,4.484-2.229l1.127,0.688c-1.381,1.679-3.174,2.738-5.611,2.738C230.625,597.034,227.199,593.814,227.199,589.1
	"/>
<rect x="245.965" y="581.419" fill="#A6A8AC" width="1.313" height="15.338"/>
<path fill="#A6A8AC" d="M262.846,596.758l-4.301-6.348h-3.379v6.348h-1.313V581.42h5.727c2.644,0,4.668,1.678,4.668,4.483
	c0,2.782-1.955,4.323-4.254,4.415l4.438,6.439H262.846z M262.869,585.903c0-1.932-1.357-3.288-3.404-3.288h-4.299v6.601h4.299
	C261.512,589.216,262.869,587.836,262.869,585.903"/>
<path fill="#A6A8AC" d="M269.703,589.1c0-4.714,3.426-7.934,7.771-7.934c2.438,0,4.3,1.081,5.587,2.714l-1.103,0.713
	c-0.967-1.334-2.646-2.229-4.484-2.229c-3.588,0-6.393,2.735-6.393,6.736c0,3.955,2.805,6.737,6.393,6.737
	c1.839,0,3.518-0.896,4.484-2.229l1.127,0.688c-1.381,1.679-3.174,2.738-5.611,2.738C273.129,597.034,269.703,593.814,269.703,589.1
	"/>
<path fill="#A6A8AC" d="M288.469,590.87v-9.45h1.334v9.428c0,3.104,1.633,4.99,4.645,4.99c3.013,0,4.646-1.887,4.646-4.99v-9.428
	h1.334v9.45c0,3.794-2.022,6.163-5.979,6.163C290.516,597.033,288.469,594.642,288.469,590.87"/>
<polygon fill="#A6A8AC" points="320.021,596.757 320.021,583.075 314.434,596.757 313.928,596.757 308.318,583.075 308.318,596.757 
	307.006,596.757 307.006,581.419 308.961,581.419 314.181,594.182 319.378,581.419 321.355,581.419 321.355,596.757 "/>
<polygon fill="#A6A8AC" points="327.936,596.757 327.936,581.419 337.664,581.419 337.664,582.615 329.248,582.615 329.248,588.295 
	337.502,588.295 337.502,589.49 329.248,589.49 329.248,596.757 "/>
<polygon fill="#A6A8AC" points="343.162,596.757 343.162,581.419 352.891,581.419 352.891,582.615 344.475,582.615 344.475,588.295 
	352.729,588.295 352.729,589.49 344.475,589.49 344.475,595.563 352.891,595.563 352.891,596.757 "/>
<path fill="#A6A8AC" d="M367.885,596.758l-4.299-6.348h-3.381v6.348h-1.312V581.42h5.728c2.643,0,4.668,1.678,4.668,4.483
	c0,2.782-1.955,4.323-4.256,4.415l4.438,6.439H367.885z M367.908,585.903c0-1.932-1.355-3.288-3.402-3.288h-4.301v6.601h4.301
	C366.553,589.216,367.908,587.836,367.908,585.903"/>
<polygon fill="#A6A8AC" points="375.316,596.757 375.316,581.419 385.043,581.419 385.043,582.615 376.627,582.615 376.627,588.295 
	384.882,588.295 384.882,589.49 376.627,589.49 376.627,595.563 385.043,595.563 385.043,596.757 "/>
<polygon fill="#A6A8AC" points="402.016,596.757 392.359,583.581 392.359,596.757 391.047,596.757 391.047,581.419 392.381,581.419 
	401.994,594.411 401.994,581.419 403.304,581.419 403.304,596.757 "/>
<path fill="#A6A8AC" d="M409.311,589.1c0-4.714,3.426-7.934,7.772-7.934c2.438,0,4.3,1.081,5.587,2.714l-1.104,0.713
	c-0.966-1.334-2.645-2.229-4.483-2.229c-3.587,0-6.392,2.735-6.392,6.736c0,3.955,2.805,6.737,6.392,6.737
	c1.839,0,3.518-0.896,4.483-2.229l1.127,0.688c-1.379,1.679-3.172,2.738-5.61,2.738C412.736,597.034,409.311,593.814,409.311,589.1"
	/>
<polygon fill="#A6A8AC" points="428.078,596.757 428.078,581.419 437.805,581.419 437.805,582.615 429.389,582.615 429.389,588.295 
	437.644,588.295 437.644,589.49 429.389,589.49 429.389,595.563 437.805,595.563 437.805,596.757 "/>
<path fill="#59C5C9" d="M324.968,339.403l-64.106,37.011c-3.338,1.928-6.068,6.659-6.068,10.515v74.021
	c0,3.855,2.73,8.586,6.068,10.515l64.106,37.011c1.714,0.99,3.989,1.467,6.248,1.44c0.159-0.002,0.317-0.012,0.475-0.019
	c1.978-0.085,3.913-0.554,5.417-1.422l64.105-37.011c3.338-1.929,6.07-6.659,6.07-10.515v-74.021c0-3.855-2.732-8.587-6.07-10.515"
	/>
<path fill="#59C5C9" d="M401.213,376.414l-64.105-37.011"/>
<path fill="#3D868D" d="M330.605,339.403v169.072c2.021-0.088,5.098,2.734,6.635,1.848l65.507-37.82
	c3.411-1.97,6.202-6.804,6.202-10.744v-75.64c0-3.939-2.791-8.774-6.202-10.743l-65.507-37.821"/>
<polyline fill="none" points="330.6,337.38 330.6,510.5 408.95,510.5 408.95,337.38 "/>
<polyline fill="#FFFFFF" points="331.037,351.502 393.77,387.722 393.77,460.157 331.037,496.375 268.306,460.157 268.306,387.721 
	331.037,351.502 "/>
<path fill="#FFFFFF" d="M324.834,337.556l-65.506,37.819c-3.412,1.971-6.203,6.805-6.203,10.744v75.641
	c0,3.938,2.791,8.773,6.203,10.743l65.506,37.82c1.707,0.984,3.955,1.474,6.201,1.474c0.063,0,0.123,0,0.186-0.002
	c2.187-0.025,4.359-0.514,6.02-1.472l65.506-37.82c3.412-1.97,6.203-6.805,6.203-10.743v-75.641c0-3.939-2.791-8.773-6.203-10.744
	l-65.506-37.819"/>
<polyline fill="none" points="253.13,336.08 253.13,511.8 408.95,511.8 408.95,336.08 "/>
<path fill="#1A1A19" d="M331.035,344.362l0.086,0.001c1.125,0.013,1.823,0.272,1.979,0.363l65.506,37.819
	c0.849,0.49,2.063,2.595,2.063,3.573v75.64c0,0.98-1.215,3.083-2.063,3.573l-65.506,37.82c-0.156,0.09-0.854,0.35-1.976,0.363
	h-0.088c-1.168,0-1.898-0.269-2.063-0.363l-65.506-37.82c-0.85-0.49-2.063-2.593-2.063-3.573v-75.64
	c0-0.979,1.214-3.083,2.063-3.573l65.506-37.819C329.139,344.632,329.867,344.362,331.035,344.362"/>
<path fill="#1A1A19" d="M324.834,337.555l-65.506,37.82c-3.412,1.97-6.203,6.805-6.203,10.744v75.64
	c0,3.94,2.791,8.774,6.203,10.744l65.506,37.82c1.707,0.985,3.955,1.473,6.203,1.473c0.061,0,0.121,0,0.184-0.001
	c2.187-0.025,4.359-0.514,6.02-1.472l65.506-37.82c3.412-1.97,6.203-6.804,6.203-10.744v-75.64c0-3.939-2.791-8.774-6.203-10.744
	l-65.506-37.82"/>
<path fill="#1A1A19" d="M331.035,344.362l0.086,0.001c1.125,0.013,1.823,0.272,1.979,0.363l65.506,37.819
	c0.849,0.49,2.063,2.595,2.063,3.573v75.64c0,0.98-1.215,3.083-2.063,3.573l-65.506,37.82c-0.156,0.09-0.854,0.35-1.976,0.363
	h-0.088c-1.168,0-1.898-0.269-2.063-0.363l-65.506-37.82c-0.85-0.49-2.063-2.593-2.063-3.573v-75.64
	c0-0.979,1.214-3.083,2.063-3.573l65.506-37.819C329.139,344.632,329.867,344.362,331.035,344.362"/>
<path fill="#1A1A19" d="M324.834,337.555l-65.506,37.82c-3.412,1.97-6.203,6.805-6.203,10.744v75.64
	c0,3.94,2.791,8.774,6.203,10.744l65.506,37.82c1.707,0.985,3.955,1.473,6.203,1.473c0.061,0,0.121,0,0.184-0.001
	c2.187-0.025,4.359-0.514,6.02-1.472l65.506-37.82c3.412-1.97,6.203-6.804,6.203-10.744v-75.64c0-3.939-2.791-8.774-6.203-10.744
	l-65.506-37.82"/>
<path fill="#1A1A19" d="M331.035,344.362l0.086,0.001c1.125,0.013,1.823,0.272,1.979,0.363l65.506,37.819
	c0.849,0.49,2.063,2.595,2.063,3.573v75.64c0,0.98-1.215,3.083-2.063,3.573l-65.506,37.82c-0.156,0.09-0.854,0.35-1.976,0.363
	h-0.088c-1.168,0-1.898-0.269-2.063-0.363l-65.506-37.82c-0.85-0.49-2.063-2.593-2.063-3.573v-75.64
	c0-0.979,1.214-3.083,2.063-3.573l65.506-37.819C329.139,344.632,329.867,344.362,331.035,344.362"/>
<path fill="#1A1A19" d="M324.834,337.555l-65.506,37.82c-3.412,1.97-6.203,6.805-6.203,10.744v75.64
	c0,3.94,2.791,8.774,6.203,10.744l65.506,37.82c1.707,0.985,3.955,1.473,6.203,1.473c0.061,0,0.121,0,0.184-0.001
	c2.187-0.025,4.359-0.514,6.02-1.472l65.506-37.82c3.412-1.97,6.203-6.804,6.203-10.744v-75.64c0-3.939-2.791-8.774-6.203-10.744
	l-65.506-37.82"/>
<path fill="#FFFFFF" d="M379.927,419.635c0.77,0,1.311,0.565,1.311,1.507v8.802c0,1.215-0.903,2.597-2.034,3.043
	c-5.986,2.362-24.566,8.877-47.393,8.877c-24.303,0-42.962-6.507-48.941-8.873c-1.131-0.447-2.031-1.832-2.031-3.047v-8.802
	c0-0.94,0.539-1.504,1.306-1.504c0.226,0,0.469,0.048,0.726,0.149c5.979,2.365,24.639,8.872,48.941,8.872
	c22.826,0,41.406-6.514,47.393-8.876C379.459,419.683,379.703,419.635,379.927,419.635 M379.927,411.933L379.927,411.933
	L379.927,411.933c-1.202,0-2.396,0.23-3.55,0.686c-4.957,1.956-22.824,8.339-44.566,8.339c-23.236,0-41.167-6.378-46.109-8.332
	c-1.156-0.457-2.354-0.689-3.558-0.689c-5.052,0-9.008,4.044-9.008,9.206v8.802c0,4.404,2.837,8.602,6.899,10.209
	c7.155,2.83,26.522,9.413,51.775,9.413c23.79,0,43.046-6.584,50.22-9.414c4.068-1.604,6.909-5.803,6.909-10.208v-8.802
	C388.939,415.978,384.98,411.933,379.927,411.933"/>
<path fill="#FFFFFF" d="M331.139,378.631c24.926,0,45.133,20.207,45.133,45.135c0,24.926-20.207,45.133-45.133,45.133
	c-24.927,0-45.134-20.207-45.134-45.133C286.005,398.838,306.212,378.631,331.139,378.631 M331.139,369.799
	c-29.758,0-53.966,24.21-53.966,53.967c0,29.756,24.208,53.965,53.966,53.965c29.756,0,53.965-24.209,53.965-53.965
	C385.104,394.009,360.895,369.799,331.139,369.799"/>
<path fill="#FFFFFF" d="M290.215,437.191l6.418,2.201l9.72,2.2c0,0-6.052,2.384-8.069,6.418c-1.336,2.673-2.752,6.793-3.557,9.271
	c-0.292,0.899-1.09,1.46-1.965,1.46c-0.248,0-0.503-0.045-0.754-0.141l-9.454-3.576c-1.136-0.431-1.995-1.765-1.815-2.967
	C281.348,447.941,283.426,439.27,290.215,437.191 M290.32,430.831l-1.877,0.575c-7.164,2.192-12.154,9.396-13.691,19.765
	c-0.59,3.979,1.843,8.069,5.66,9.514l9.453,3.577c0.934,0.354,1.907,0.532,2.896,0.532c3.521,0,6.625-2.269,7.721-5.644
	c1.18-3.633,2.352-6.707,3.213-8.433c0.6-1.197,3.287-2.869,4.875-3.494l18.268-7.196l-19.149-4.336l-9.401-2.13l-6.109-2.094
	L290.32,430.831z"/>
<g>
	<defs>
		<path id="SVGID_1_" d="M285.803,423.766c0,24.926,20.206,45.134,45.135,45.134c24.926,0,45.133-20.208,45.133-45.134
			c0-24.927-20.207-45.136-45.133-45.136C306.009,378.63,285.803,398.839,285.803,423.766"/>
	</defs>
	<clipPath id="SVGID_2_">
		<use xlink:href="#SVGID_1_"  overflow="visible"/>
	</clipPath>
	<path clip-path="url(#SVGID_2_)" fill="#5F9AD2" d="M376.07,423.765c0,24.928-20.207,45.135-45.134,45.135
		s-45.134-20.207-45.134-45.135c0-24.927,20.207-45.134,45.134-45.134S376.07,398.838,376.07,423.765"/>
	<polygon clip-path="url(#SVGID_2_)" fill="#AAD26C" points="324.181,378.817 326.813,384.083 323.053,385.588 316.281,385.212 
		312.896,389.35 321.547,387.468 323.805,394.615 318.539,394.615 315.905,396.12 302.363,400.634 301.987,406.652 300.106,407.405 
		296.346,401.01 291.078,404.771 290.326,408.157 295.594,408.533 293.336,411.918 293.336,417.938 297.85,418.689 301.611,417.561 
		314.776,424.331 316.657,431.854 326.062,433.735 325.309,440.882 320.043,442.763 317.033,448.781 309.887,450.662 
		308.006,456.68 302.74,460.066 303.492,471.727 294.088,471.727 294.84,454.047 296.721,443.891 296.721,440.13 289.574,434.111 
		290.703,426.588 293.336,420.946 290.326,417.938 290.326,413.047 288.07,411.918 284.685,409.285 283.933,398.377 
		289.198,381.826 	"/>
	<polygon clip-path="url(#SVGID_2_)" fill="#AAD26C" points="351.264,383.707 347.879,389.725 347.879,392.358 354.648,395.368 
		354.648,402.138 345.621,403.268 349.006,406.652 355.024,407.781 356.905,404.396 363.676,408.157 374.961,411.166 
		371.951,383.707 	"/>
	<polygon clip-path="url(#SVGID_2_)" fill="#AAD26C" points="375.338,416.056 365.182,415.68 359.162,410.79 350.887,411.166 
		346.749,414.175 343.364,415.68 340.355,428.093 347.502,434.864 355.777,435.24 365.583,434.971 355.777,443.139 358.786,449.534 
		355.025,454.8 355.401,460.066 352.016,473.231 371.575,475.112 377.594,426.588 	"/>
	<polygon clip-path="url(#SVGID_2_)" fill="#AAD26C" points="331.703,378.441 328.318,387.469 330.199,390.854 333.584,387.469 
		341.107,382.202 	"/>
	<polygon clip-path="url(#SVGID_2_)" fill="#AAD26C" points="345.855,397.938 347.109,394.178 350.871,396.936 350.119,399.944 	"/>
</g>
<path fill="#FFFFFF" d="M330.938,378.631c24.926,0,45.133,20.207,45.133,45.135c0,24.926-20.207,45.133-45.133,45.133
	c-24.928,0-45.135-20.207-45.135-45.133C285.803,398.838,306.01,378.631,330.938,378.631 M330.938,369.799
	c-29.758,0-53.967,24.21-53.967,53.967c0,29.756,24.209,53.965,53.967,53.965c29.756,0,53.965-24.209,53.965-53.965
	C384.902,394.009,360.693,369.799,330.938,369.799"/>
<path fill="#231F20" d="M330.938,378.631c24.926,0,45.133,20.207,45.133,45.135c0,24.926-20.207,45.133-45.133,45.133
	c-24.928,0-45.135-20.207-45.135-45.133C285.803,398.838,306.01,378.631,330.938,378.631 M330.938,374.215
	c-27.322,0-49.551,22.229-49.551,49.551c0,27.32,22.229,49.549,49.551,49.549c27.321,0,49.549-22.229,49.549-49.549
	C380.486,396.443,358.259,374.215,330.938,374.215"/>
<g>
	<defs>
		<path id="SVGID_3_" d="M286.005,423.766c0,24.926,20.206,45.134,45.134,45.134c24.926,0,45.133-20.208,45.133-45.134
			c0-24.927-20.207-45.136-45.133-45.136C306.211,378.63,286.005,398.839,286.005,423.766"/>
	</defs>
	<clipPath id="SVGID_4_">
		<use xlink:href="#SVGID_3_"  overflow="visible"/>
	</clipPath>
	<path clip-path="url(#SVGID_4_)" fill="#5F9AD2" d="M376.271,423.765c0,24.928-20.207,45.135-45.133,45.135
		c-24.927,0-45.134-20.207-45.134-45.135c0-24.927,20.207-45.134,45.134-45.134C356.064,378.631,376.271,398.838,376.271,423.765"/>
	<polygon clip-path="url(#SVGID_4_)" fill="#AAD26C" points="324.383,378.817 327.016,384.083 323.254,385.588 316.482,385.212 
		313.098,389.35 321.749,387.468 324.006,394.615 318.739,394.615 316.107,396.12 302.564,400.634 302.189,406.652 300.309,407.405 
		296.547,401.01 291.28,404.771 290.528,408.157 295.794,408.533 293.537,411.918 293.537,417.938 298.051,418.689 301.813,417.561 
		314.979,424.331 316.859,431.854 326.262,433.735 325.51,440.882 320.244,442.763 317.234,448.781 310.088,450.662 308.207,456.68 
		302.941,460.066 303.693,471.727 294.29,471.727 295.042,454.047 296.923,443.891 296.923,440.13 289.775,434.111 290.904,426.588 
		293.537,420.946 290.528,417.938 290.528,413.047 288.271,411.918 284.887,409.285 284.133,398.377 289.4,381.826 	"/>
	<polygon clip-path="url(#SVGID_4_)" fill="#AAD26C" points="351.465,383.707 348.08,389.725 348.08,392.358 354.851,395.368 
		354.851,402.138 345.822,403.268 349.207,406.652 355.227,407.781 357.107,404.396 363.877,408.157 375.162,411.166 
		372.152,383.707 	"/>
	<polygon clip-path="url(#SVGID_4_)" fill="#AAD26C" points="375.539,416.056 365.383,415.68 359.364,410.79 351.088,411.166 
		346.951,414.175 343.565,415.68 340.557,428.093 347.703,434.864 355.979,435.24 365.785,434.971 355.979,443.139 358.988,449.534 
		355.227,454.8 355.603,460.066 352.217,473.231 371.777,475.112 377.795,426.588 	"/>
	<polygon clip-path="url(#SVGID_4_)" fill="#AAD26C" points="331.905,378.441 328.52,387.469 330.4,390.854 333.786,387.469 
		341.309,382.202 	"/>
	<polygon clip-path="url(#SVGID_4_)" fill="#AAD26C" points="346.058,397.938 347.312,394.178 351.072,396.936 350.32,399.944 	"/>
</g>
<path fill="#FFFFFF" d="M331.139,378.631c24.926,0,45.133,20.207,45.133,45.135c0,24.926-20.207,45.133-45.133,45.133
	c-24.927,0-45.134-20.207-45.134-45.133C286.005,398.838,306.212,378.631,331.139,378.631 M331.139,369.799
	c-29.758,0-53.966,24.21-53.966,53.967c0,29.756,24.208,53.965,53.966,53.965c29.756,0,53.965-24.209,53.965-53.965
	C385.104,394.009,360.895,369.799,331.139,369.799"/>
<path fill="#231F20" d="M331.139,378.631c24.926,0,45.133,20.207,45.133,45.135c0,24.926-20.207,45.133-45.133,45.133
	c-24.927,0-45.134-20.207-45.134-45.133C286.005,398.838,306.212,378.631,331.139,378.631 M331.139,374.215
	c-27.322,0-49.55,22.229-49.55,49.551c0,27.32,22.228,49.549,49.55,49.549c27.321,0,49.549-22.229,49.549-49.549
	C380.688,396.443,358.46,374.215,331.139,374.215"/>
<g opacity="0.8">
	<g>
		<defs>
			<rect id="SVGID_5_" x="301.58" y="431.87" width="77.939" height="15.28"/>
		</defs>
		<clipPath id="SVGID_6_">
			<use xlink:href="#SVGID_5_"  overflow="visible"/>
		</clipPath>
		<path clip-path="url(#SVGID_6_)" fill="#231F20" d="M379.521,431.874l-3.752,10.269c0,0-23.572,10.637-74.186,0.917l1.468-4.033
			L379.521,431.874z"/>
	</g>
</g>
<path fill="#FEDD79" d="M381.238,433.244c0,0-21.548,9.719-49.428,9.719c-29.701,0-50.973-9.719-50.973-9.719V417.84
	c0,0,21.271,9.72,50.973,9.72c27.88,0,49.428-9.72,49.428-9.72V433.244z"/>
<path fill="#F6A154" d="M331.793,430.86c-29.598,0-51.215-9.721-51.43-9.817c-0.553-0.253-0.797-0.906-0.545-1.458
	s0.903-0.796,1.459-0.544c0.211,0.096,21.422,9.619,50.516,9.619c0.607,0,1.101,0.492,1.101,1.1S332.4,430.86,331.793,430.86"/>
<path fill="#F6A154" d="M331.793,430.86c-0.607,0-1.102-0.493-1.102-1.101s0.494-1.1,1.102-1.1c27.303,0,48.762-9.526,48.976-9.621
	c0.554-0.252,1.205-0.004,1.455,0.551c0.25,0.553,0.003,1.205-0.551,1.455C381.455,421.143,359.589,430.86,331.793,430.86"/>
<path fill="#F6A154" d="M287.685,429.266c-0.163,0-0.327-0.022-0.49-0.074c-0.871-0.271-1.358-1.195-1.087-2.065l1.74-5.604
	c0.271-0.871,1.199-1.357,2.065-1.087c0.871,0.271,1.357,1.195,1.087,2.065l-1.74,5.605
	C289.039,428.813,288.387,429.266,287.685,429.266"/>
<path fill="#F6A154" d="M294.729,431.292c-0.141,0-0.283-0.018-0.426-0.056c-0.881-0.233-1.404-1.137-1.17-2.018l1.506-5.672
	c0.236-0.881,1.143-1.406,2.02-1.171c0.881,0.233,1.405,1.139,1.171,2.02l-1.507,5.67
	C296.125,430.806,295.459,431.292,294.729,431.292"/>
<path fill="#F6A154" d="M301.847,433.029c-0.119,0-0.24-0.013-0.361-0.039c-0.89-0.198-1.45-1.081-1.251-1.971l1.275-5.727
	c0.199-0.891,1.087-1.451,1.972-1.251c0.89,0.197,1.45,1.079,1.251,1.969l-1.277,5.728
	C303.283,432.508,302.603,433.029,301.847,433.029"/>
<path fill="#F6A154" d="M309.037,434.478c-0.096,0-0.193-0.008-0.291-0.024c-0.897-0.161-1.496-1.019-1.336-1.914l1.029-5.777
	c0.16-0.896,1.017-1.495,1.914-1.336c0.897,0.16,1.496,1.018,1.336,1.914l-1.029,5.777
	C310.518,433.916,309.82,434.478,309.037,434.478"/>
<path fill="#F6A154" d="M316.305,435.582c-0.07,0-0.141-0.004-0.213-0.014c-0.903-0.116-1.543-0.942-1.426-1.846l0.746-5.821
	c0.116-0.905,0.942-1.551,1.848-1.426c0.904,0.116,1.543,0.941,1.427,1.846l-0.747,5.821
	C317.832,434.976,317.123,435.582,316.305,435.582"/>
<path fill="#F6A154" d="M323.641,436.319c-0.04,0-0.079-0.001-0.119-0.004c-0.909-0.064-1.594-0.854-1.529-1.764l0.418-5.854
	c0.065-0.909,0.874-1.597,1.764-1.528c0.908,0.064,1.594,0.854,1.529,1.763l-0.418,5.854
	C325.223,435.655,324.498,436.319,323.641,436.319"/>
<path fill="#F6A154" d="M331.036,436.618h-0.005c-0.914-0.004-1.649-0.746-1.646-1.657l0.025-5.867
	c0.004-0.91,0.741-1.645,1.649-1.645h0.008c0.912,0.004,1.647,0.746,1.644,1.657l-0.026,5.868
	C332.682,435.885,331.943,436.618,331.036,436.618"/>
<path fill="#F6A154" d="M338.441,436.371c-0.862,0-1.588-0.67-1.645-1.543l-0.383-5.855c-0.061-0.91,0.629-1.696,1.539-1.754
	c0.911-0.074,1.693,0.63,1.754,1.539l0.383,5.855c0.059,0.909-0.629,1.696-1.539,1.754
	C338.514,436.37,338.477,436.371,338.441,436.371"/>
<path fill="#F6A154" d="M345.79,435.673c-0.82,0-1.531-0.609-1.636-1.444l-0.73-5.823c-0.113-0.904,0.527-1.729,1.432-1.842
	c0.907-0.115,1.73,0.526,1.844,1.432l0.73,5.823c0.113,0.904-0.527,1.729-1.434,1.842
	C345.928,435.669,345.857,435.673,345.79,435.673"/>
<path fill="#F6A154" d="M353.064,434.57c-0.785,0-1.481-0.562-1.623-1.36l-1.026-5.779c-0.159-0.897,0.438-1.755,1.336-1.914
	c0.9-0.161,1.753,0.438,1.914,1.336l1.026,5.779c0.158,0.896-0.439,1.754-1.336,1.914C353.258,434.563,353.16,434.57,353.064,434.57
	"/>
<path fill="#F6A154" d="M360.261,433.115c-0.755,0-1.437-0.521-1.608-1.288l-1.288-5.725c-0.2-0.889,0.358-1.772,1.248-1.972
	c0.886-0.202,1.771,0.357,1.972,1.248l1.289,5.724c0.199,0.89-0.358,1.772-1.248,1.973
	C360.502,433.103,360.381,433.115,360.261,433.115"/>
<path fill="#F6A154" d="M367.38,431.357c-0.728,0-1.394-0.483-1.593-1.221l-1.529-5.665c-0.237-0.88,0.283-1.785,1.164-2.022
	c0.878-0.232,1.785,0.283,2.023,1.163l1.529,5.665c0.236,0.881-0.283,1.785-1.164,2.023
	C367.666,431.339,367.522,431.357,367.38,431.357"/>
<path fill="#F6A154" d="M374.421,429.297c-0.7,0-1.351-0.447-1.573-1.15l-1.773-5.595c-0.275-0.868,0.205-1.797,1.074-2.071
	c0.869-0.277,1.797,0.206,2.072,1.074l1.773,5.594c0.275,0.869-0.207,1.796-1.074,2.072
	C374.754,429.273,374.586,429.297,374.421,429.297"/>
<path fill="#231F20" d="M379.927,419.635c0.77,0,1.311,0.564,1.311,1.507v8.802c0,1.215-0.903,2.598-2.034,3.043
	c-5.986,2.362-24.566,8.877-47.393,8.877c-24.303,0-42.962-6.508-48.941-8.873c-1.131-0.446-2.031-1.832-2.031-3.047v-8.802
	c0-0.941,0.539-1.504,1.306-1.504c0.226,0,0.469,0.048,0.726,0.149c5.979,2.365,24.639,8.872,48.941,8.872
	c22.826,0,41.406-6.514,47.393-8.877C379.459,419.683,379.703,419.635,379.927,419.635 M379.927,416.334L379.927,416.334
	c-0.646,0-1.298,0.128-1.935,0.379c-5.141,2.027-23.664,8.646-46.182,8.646c-24.016,0-42.604-6.614-47.729-8.641
	c-0.639-0.253-1.291-0.381-1.938-0.381c-2.626,0-4.606,2.065-4.606,4.805v8.802c0,2.601,1.731,5.173,4.117,6.116
	c6.92,2.738,25.66,9.104,50.156,9.104c23.034,0,41.664-6.368,48.605-9.107c2.389-0.942,4.123-3.513,4.123-6.113v-8.802
	C384.539,418.4,382.556,416.334,379.927,416.334"/>
<path fill="#FEDD79" d="M298.283,448.012c-1.336,2.672-2.752,6.792-3.557,9.27c-0.375,1.156-1.582,1.751-2.719,1.321l-9.453-3.577
	c-1.137-0.431-1.996-1.764-1.817-2.967c0.61-4.116,2.688-12.788,9.478-14.866l6.418,2.2l9.72,2.201
	C306.353,441.594,300.301,443.978,298.283,448.012"/>
<g opacity="0.8">
	<g>
		<defs>
			<rect id="SVGID_7_" x="286.46" y="437.93" width="17.78" height="7.61"/>
		</defs>
		<clipPath id="SVGID_8_">
			<use xlink:href="#SVGID_7_"  overflow="visible"/>
		</clipPath>
		<path clip-path="url(#SVGID_8_)" fill="#231F20" d="M286.456,439.576c0,0,10.452,5.867,14.028,5.96l3.76-3.759l-13.938-3.852
			L286.456,439.576z"/>
	</g>
</g>
<polygon fill="#F6A154" points="283.018,444.519 298.283,449.012 294.295,458.51 280.68,454.797 "/>
<path fill="#231F20" d="M292.762,460.393c-0.455,0-0.906-0.084-1.339-0.248l-9.453-3.576c-1.896-0.717-3.153-2.803-2.866-4.751
	c1.281-8.631,4.893-14.091,10.444-15.791l0.455-0.139l7.062,1.913l14.854,3.36l-4.96,1.968c-1.523,0.603-5.784,2.791-7.198,5.62
	c-1.31,2.615-2.733,6.788-3.465,9.042C295.792,459.348,294.371,460.393,292.762,460.393 M290.082,439.328
	c-5.045,1.848-6.979,8.034-7.713,12.974c-0.06,0.409,0.334,1.015,0.769,1.179l9.454,3.577c0.257,0.099,0.482-0.029,0.564-0.285
	c0.93-2.862,2.317-6.833,3.652-9.5c1.067-2.136,3.045-3.834,4.87-5.046l-5.41-1.225L290.082,439.328z"/>
<path fill="#231F20" d="M290.132,450.766c0,1.014-0.821,1.835-1.835,1.835c-1.012,0-1.832-0.821-1.832-1.835
	c0-1.013,0.82-1.834,1.832-1.834C289.311,448.932,290.132,449.753,290.132,450.766"/>
</svg>
