<?xml version="1.0" encoding="utf-8"?>
<!-- Generator: Adobe Illustrator 16.0.0, SVG Export Plug-In . SVG Version: 6.00 Build 0)  -->
<!DOCTYPE svg PUBLIC "-//W3C//DTD SVG 1.1//EN" "http://www.w3.org/Graphics/SVG/1.1/DTD/svg11.dtd">
<svg version="1.1" id="Layer_1" xmlns="http://www.w3.org/2000/svg" xmlns:xlink="http://www.w3.org/1999/xlink" x="0px" y="0px"
	 width="215px" height="195px" viewBox="0 0 215 195" enable-background="new 0 0 215 195" xml:space="preserve">
<path fill="#59C5C9" d="M177.213,52.414l-64.105-37.011c-1.504-0.868-3.438-1.337-5.417-1.423c-0.157-0.007-0.315-0.016-0.475-0.018
	c-2.259-0.027-4.534,0.45-6.248,1.44L36.862,52.413c-3.338,1.928-6.068,6.659-6.068,10.515v74.021c0,3.854,2.73,8.586,6.068,10.515
	l64.106,37.011c1.714,0.99,3.989,1.468,6.248,1.44c0.159-0.002,0.317-0.012,0.475-0.019c1.978-0.086,3.913-0.555,5.417-1.423
	l64.105-37.011c3.338-1.929,6.07-6.659,6.07-10.515V62.927C183.283,59.073,180.551,54.342,177.213,52.414"/>
<g opacity="0.6">
	<g>
		<g>
			<defs>
				<rect id="SVGID_1_" x="106.6" y="13.38" width="78.351" height="173.12"/>
			</defs>
			<clipPath id="SVGID_2_">
				<use xlink:href="#SVGID_1_"  overflow="visible"/>
			</clipPath>
			<path clip-path="url(#SVGID_2_)" fill="#3D868D" d="M178.747,148.503c3.411-1.97,6.202-6.804,6.202-10.744v-75.64
				c0-3.939-2.791-8.774-6.202-10.743L113.24,13.555c-1.537-0.887-4.614,1.936-6.635,1.849v169.072
				c2.021-0.088,5.098,2.734,6.635,1.849L178.747,148.503z"/>
		</g>
	</g>
</g>
<g opacity="0.4">
	<g>
		<g>
			<defs>
				<rect id="SVGID_3_" x="29.13" y="12.08" width="155.82" height="175.72"/>
			</defs>
			<clipPath id="SVGID_4_">
				<use xlink:href="#SVGID_3_"  overflow="visible"/>
			</clipPath>
			<path clip-path="url(#SVGID_4_)" fill="#FFFFFF" d="M107.037,27.502l62.732,36.22v72.437l-62.732,36.218l-62.731-36.218V63.721
				L107.037,27.502 M107.035,12.082c-2.248,0-4.496,0.489-6.201,1.474L35.328,51.375c-3.412,1.971-6.203,6.805-6.203,10.744v75.641
				c0,3.938,2.791,8.773,6.203,10.743l65.506,37.82c1.707,0.983,3.955,1.474,6.201,1.474c0.063,0,0.123,0,0.186-0.002
				c2.187-0.025,4.359-0.514,6.02-1.472l65.506-37.82c3.412-1.97,6.203-6.805,6.203-10.743V62.119c0-3.939-2.791-8.773-6.203-10.744
				l-65.506-37.819c-1.66-0.958-3.833-1.446-6.02-1.473C107.158,12.082,107.096,12.082,107.035,12.082"/>
		</g>
	</g>
</g>
<path fill="#1A1A19" d="M107.035,20.362l0.086,0.001c1.125,0.013,1.822,0.272,1.979,0.363l65.506,37.819
	c0.85,0.49,2.063,2.595,2.063,3.573v75.64c0,0.98-1.215,3.083-2.063,3.573l-65.506,37.82c-0.156,0.09-0.854,0.35-1.976,0.362h-0.088
	c-1.168,0-1.898-0.269-2.063-0.362l-65.506-37.82c-0.85-0.49-2.063-2.593-2.063-3.573v-75.64c0-0.979,1.214-3.083,2.063-3.573
	l65.506-37.819C105.139,20.632,105.867,20.362,107.035,20.362 M107.035,12.082c-2.248,0-4.496,0.489-6.201,1.473l-65.506,37.82
	c-3.412,1.97-6.203,6.805-6.203,10.744v75.64c0,3.94,2.791,8.774,6.203,10.744l65.506,37.82c1.707,0.984,3.955,1.473,6.203,1.473
	c0.061,0,0.121,0,0.184-0.001c2.187-0.025,4.359-0.514,6.02-1.472l65.506-37.82c3.412-1.97,6.203-6.804,6.203-10.744v-75.64
	c0-3.939-2.791-8.774-6.203-10.744l-65.506-37.82c-1.66-0.958-3.833-1.445-6.02-1.472C107.158,12.082,107.096,12.082,107.035,12.082
	"/>
<path fill="#1A1A19" d="M107.035,20.362l0.086,0.001c1.125,0.013,1.822,0.272,1.979,0.363l65.506,37.819
	c0.85,0.49,2.063,2.595,2.063,3.573v75.64c0,0.98-1.215,3.083-2.063,3.573l-65.506,37.82c-0.156,0.09-0.854,0.35-1.976,0.362h-0.088
	c-1.168,0-1.898-0.269-2.063-0.362l-65.506-37.82c-0.85-0.49-2.063-2.593-2.063-3.573v-75.64c0-0.979,1.214-3.083,2.063-3.573
	l65.506-37.819C105.139,20.632,105.867,20.362,107.035,20.362 M107.035,12.082c-2.248,0-4.496,0.489-6.201,1.473l-65.506,37.82
	c-3.412,1.97-6.203,6.805-6.203,10.744v75.64c0,3.94,2.791,8.774,6.203,10.744l65.506,37.82c1.707,0.984,3.955,1.473,6.203,1.473
	c0.061,0,0.121,0,0.184-0.001c2.187-0.025,4.359-0.514,6.02-1.472l65.506-37.82c3.412-1.97,6.203-6.804,6.203-10.744v-75.64
	c0-3.939-2.791-8.774-6.203-10.744l-65.506-37.82c-1.66-0.958-3.833-1.445-6.02-1.472C107.158,12.082,107.096,12.082,107.035,12.082
	"/>
<path fill="#1A1A19" d="M107.035,20.362l0.086,0.001c1.125,0.013,1.822,0.272,1.979,0.363l65.506,37.819
	c0.85,0.49,2.063,2.595,2.063,3.573v75.64c0,0.98-1.215,3.083-2.063,3.573l-65.506,37.82c-0.156,0.09-0.854,0.35-1.976,0.362h-0.088
	c-1.168,0-1.898-0.269-2.063-0.362l-65.506-37.82c-0.85-0.49-2.063-2.593-2.063-3.573v-75.64c0-0.979,1.214-3.083,2.063-3.573
	l65.506-37.819C105.139,20.632,105.867,20.362,107.035,20.362 M107.035,12.082c-2.248,0-4.496,0.489-6.201,1.473l-65.506,37.82
	c-3.412,1.97-6.203,6.805-6.203,10.744v75.64c0,3.94,2.791,8.774,6.203,10.744l65.506,37.82c1.707,0.984,3.955,1.473,6.203,1.473
	c0.061,0,0.121,0,0.184-0.001c2.187-0.025,4.359-0.514,6.02-1.472l65.506-37.82c3.412-1.97,6.203-6.804,6.203-10.744v-75.64
	c0-3.939-2.791-8.774-6.203-10.744l-65.506-37.82c-1.66-0.958-3.833-1.445-6.02-1.472C107.158,12.082,107.096,12.082,107.035,12.082
	"/>
<path fill="#FFFFFF" d="M155.927,95.635c0.771,0,1.312,0.565,1.312,1.507v8.803c0,1.215-0.903,2.597-2.034,3.043
	c-5.986,2.361-24.565,8.877-47.393,8.877c-24.303,0-42.962-6.507-48.941-8.873c-1.131-0.447-2.031-1.832-2.031-3.047v-8.803
	c0-0.939,0.539-1.504,1.306-1.504c0.226,0,0.469,0.048,0.726,0.149c5.979,2.365,24.639,8.872,48.941,8.872
	c22.827,0,41.406-6.515,47.393-8.876C155.459,95.683,155.703,95.635,155.927,95.635 M155.927,87.933L155.927,87.933L155.927,87.933
	c-1.202,0-2.396,0.23-3.55,0.687c-4.957,1.956-22.824,8.339-44.566,8.339c-23.236,0-41.167-6.378-46.109-8.332
	c-1.156-0.457-2.354-0.688-3.558-0.688c-5.052,0-9.008,4.044-9.008,9.205v8.803c0,4.403,2.837,8.602,6.899,10.209
	c7.155,2.83,26.522,9.413,51.775,9.413c23.79,0,43.045-6.584,50.219-9.414c4.068-1.604,6.91-5.804,6.91-10.208v-8.803
	C164.939,91.978,160.98,87.933,155.927,87.933"/>
<path fill="#FFFFFF" d="M107.139,54.631c24.925,0,45.132,20.207,45.132,45.135c0,24.927-20.207,45.134-45.132,45.134
	c-24.927,0-45.134-20.207-45.134-45.134C62.005,74.838,82.212,54.631,107.139,54.631 M107.139,45.799
	c-29.758,0-53.966,24.21-53.966,53.967s24.208,53.966,53.966,53.966c29.755,0,53.964-24.209,53.964-53.966
	S136.895,45.799,107.139,45.799"/>
<path fill="#FFFFFF" d="M66.215,113.191l6.418,2.2l9.72,2.2c0,0-6.052,2.384-8.069,6.418c-1.336,2.673-2.752,6.793-3.557,9.271
	c-0.292,0.898-1.09,1.46-1.965,1.46c-0.248,0-0.503-0.045-0.754-0.142l-9.454-3.575c-1.136-0.432-1.995-1.766-1.815-2.968
	C57.348,123.941,59.426,115.27,66.215,113.191 M66.32,106.831l-1.877,0.575c-7.164,2.191-12.154,9.396-13.691,19.765
	c-0.59,3.979,1.843,8.069,5.66,9.514l9.453,3.577c0.934,0.354,1.907,0.532,2.896,0.532c3.521,0,6.625-2.269,7.721-5.644
	c1.18-3.634,2.352-6.707,3.213-8.434c0.6-1.197,3.287-2.869,4.875-3.494l18.268-7.195l-19.149-4.336l-9.401-2.131l-6.109-2.094
	L66.32,106.831z"/>
<g>
	<g>
		<defs>
			<path id="SVGID_5_" d="M61.803,99.766c0,24.927,20.206,45.135,45.135,45.135c24.926,0,45.132-20.208,45.132-45.135
				S131.864,54.63,106.938,54.63C82.009,54.63,61.803,74.839,61.803,99.766"/>
		</defs>
		<clipPath id="SVGID_6_">
			<use xlink:href="#SVGID_5_"  overflow="visible"/>
		</clipPath>
		<path clip-path="url(#SVGID_6_)" fill="#5F9AD2" d="M152.07,99.765c0,24.929-20.207,45.136-45.134,45.136
			s-45.134-20.207-45.134-45.136c0-24.927,20.207-45.134,45.134-45.134S152.07,74.838,152.07,99.765"/>
	</g>
	<g>
		<defs>
			<path id="SVGID_7_" d="M61.803,99.766c0,24.927,20.206,45.135,45.135,45.135c24.926,0,45.132-20.208,45.132-45.135
				S131.864,54.63,106.938,54.63C82.009,54.63,61.803,74.839,61.803,99.766"/>
		</defs>
		<clipPath id="SVGID_8_">
			<use xlink:href="#SVGID_7_"  overflow="visible"/>
		</clipPath>
		<polygon clip-path="url(#SVGID_8_)" fill="#AAD26C" points="100.181,54.817 102.813,60.083 99.053,61.588 92.281,61.212 
			88.896,65.35 97.547,63.468 99.805,70.615 94.539,70.615 91.905,72.12 78.363,76.634 77.987,82.652 76.106,83.405 72.346,77.01 
			67.078,80.771 66.326,84.157 71.594,84.533 69.336,87.918 69.336,93.938 73.85,94.689 77.611,93.561 90.776,100.331 
			92.657,107.854 102.062,109.735 101.309,116.882 96.043,118.763 93.033,124.781 85.887,126.662 84.006,132.68 78.74,136.066 
			79.492,147.727 70.088,147.727 70.84,130.047 72.721,119.891 72.721,116.13 65.574,110.111 66.703,102.588 69.336,96.946 
			66.326,93.938 66.326,89.047 64.07,87.918 60.685,85.285 59.933,74.377 65.198,57.826 		"/>
	</g>
	<g>
		<defs>
			<path id="SVGID_9_" d="M61.803,99.766c0,24.927,20.206,45.135,45.135,45.135c24.926,0,45.132-20.208,45.132-45.135
				S131.864,54.63,106.938,54.63C82.009,54.63,61.803,74.839,61.803,99.766"/>
		</defs>
		<clipPath id="SVGID_10_">
			<use xlink:href="#SVGID_9_"  overflow="visible"/>
		</clipPath>
		<polygon clip-path="url(#SVGID_10_)" fill="#AAD26C" points="127.264,59.707 123.879,65.725 123.879,68.358 130.648,71.368 
			130.648,78.138 121.621,79.268 125.006,82.652 131.023,83.781 132.904,80.396 139.676,84.157 150.961,87.166 147.951,59.707 		"/>
	</g>
	<g>
		<defs>
			<path id="SVGID_11_" d="M61.803,99.766c0,24.927,20.206,45.135,45.135,45.135c24.926,0,45.132-20.208,45.132-45.135
				S131.864,54.63,106.938,54.63C82.009,54.63,61.803,74.839,61.803,99.766"/>
		</defs>
		<clipPath id="SVGID_12_">
			<use xlink:href="#SVGID_11_"  overflow="visible"/>
		</clipPath>
		<polygon clip-path="url(#SVGID_12_)" fill="#AAD26C" points="151.338,92.056 141.182,91.68 135.162,86.79 126.887,87.166 
			122.749,90.175 119.364,91.68 116.355,104.093 123.502,110.864 131.777,111.24 141.583,110.971 131.777,119.139 134.786,125.534 
			131.025,130.8 131.4,136.066 128.016,149.231 147.575,151.112 153.594,102.588 		"/>
	</g>
	<g>
		<defs>
			<path id="SVGID_13_" d="M61.803,99.766c0,24.927,20.206,45.135,45.135,45.135c24.926,0,45.132-20.208,45.132-45.135
				S131.864,54.63,106.938,54.63C82.009,54.63,61.803,74.839,61.803,99.766"/>
		</defs>
		<clipPath id="SVGID_14_">
			<use xlink:href="#SVGID_13_"  overflow="visible"/>
		</clipPath>
		<polygon clip-path="url(#SVGID_14_)" fill="#AAD26C" points="107.703,54.441 104.318,63.469 106.199,66.854 109.584,63.469 
			117.107,58.202 		"/>
	</g>
	<g>
		<defs>
			<path id="SVGID_15_" d="M61.803,99.766c0,24.927,20.206,45.135,45.135,45.135c24.926,0,45.132-20.208,45.132-45.135
				S131.864,54.63,106.938,54.63C82.009,54.63,61.803,74.839,61.803,99.766"/>
		</defs>
		<clipPath id="SVGID_16_">
			<use xlink:href="#SVGID_15_"  overflow="visible"/>
		</clipPath>
		<polygon clip-path="url(#SVGID_16_)" fill="#AAD26C" points="121.855,73.938 123.109,70.178 126.871,72.936 126.119,75.944 		"/>
	</g>
</g>
<path fill="#FFFFFF" d="M106.938,54.631c24.925,0,45.132,20.207,45.132,45.135c0,24.927-20.207,45.134-45.132,45.134
	c-24.928,0-45.135-20.207-45.135-45.134C61.803,74.838,82.01,54.631,106.938,54.631 M106.938,45.799
	c-29.758,0-53.967,24.21-53.967,53.967s24.209,53.966,53.967,53.966c29.755,0,53.964-24.209,53.964-53.966
	S136.693,45.799,106.938,45.799"/>
<path fill="#231F20" d="M106.938,54.631c24.925,0,45.132,20.207,45.132,45.135c0,24.927-20.207,45.134-45.132,45.134
	c-24.928,0-45.135-20.207-45.135-45.134C61.803,74.838,82.01,54.631,106.938,54.631 M106.938,50.215
	c-27.322,0-49.551,22.229-49.551,49.551c0,27.32,22.229,49.55,49.551,49.55c27.321,0,49.548-22.229,49.548-49.55
	C156.486,72.443,134.259,50.215,106.938,50.215"/>
<g>
	<g>
		<defs>
			<path id="SVGID_17_" d="M62.005,99.766c0,24.927,20.206,45.135,45.134,45.135c24.925,0,45.132-20.208,45.132-45.135
				S132.064,54.63,107.139,54.63C82.211,54.63,62.005,74.839,62.005,99.766"/>
		</defs>
		<clipPath id="SVGID_18_">
			<use xlink:href="#SVGID_17_"  overflow="visible"/>
		</clipPath>
		<path clip-path="url(#SVGID_18_)" fill="#5F9AD2" d="M152.271,99.765c0,24.929-20.207,45.136-45.133,45.136
			c-24.927,0-45.134-20.207-45.134-45.136c0-24.927,20.207-45.134,45.134-45.134C132.064,54.631,152.271,74.838,152.271,99.765"/>
	</g>
	<g>
		<defs>
			<path id="SVGID_19_" d="M62.005,99.766c0,24.927,20.206,45.135,45.134,45.135c24.925,0,45.132-20.208,45.132-45.135
				S132.064,54.63,107.139,54.63C82.211,54.63,62.005,74.839,62.005,99.766"/>
		</defs>
		<clipPath id="SVGID_20_">
			<use xlink:href="#SVGID_19_"  overflow="visible"/>
		</clipPath>
		<polygon clip-path="url(#SVGID_20_)" fill="#AAD26C" points="100.383,54.817 103.016,60.083 99.254,61.588 92.482,61.212 
			89.098,65.35 97.749,63.468 100.006,70.615 94.739,70.615 92.107,72.12 78.564,76.634 78.189,82.652 76.309,83.405 72.547,77.01 
			67.28,80.771 66.528,84.157 71.794,84.533 69.537,87.918 69.537,93.938 74.051,94.689 77.813,93.561 90.979,100.331 
			92.859,107.854 102.262,109.735 101.51,116.882 96.244,118.763 93.234,124.781 86.088,126.662 84.207,132.68 78.941,136.066 
			79.693,147.727 70.29,147.727 71.042,130.047 72.923,119.891 72.923,116.13 65.775,110.111 66.904,102.588 69.537,96.946 
			66.528,93.938 66.528,89.047 64.271,87.918 60.887,85.285 60.133,74.377 65.4,57.826 		"/>
	</g>
	<g>
		<defs>
			<path id="SVGID_21_" d="M62.005,99.766c0,24.927,20.206,45.135,45.134,45.135c24.925,0,45.132-20.208,45.132-45.135
				S132.064,54.63,107.139,54.63C82.211,54.63,62.005,74.839,62.005,99.766"/>
		</defs>
		<clipPath id="SVGID_22_">
			<use xlink:href="#SVGID_21_"  overflow="visible"/>
		</clipPath>
		<polygon clip-path="url(#SVGID_22_)" fill="#AAD26C" points="127.465,59.707 124.08,65.725 124.08,68.358 130.852,71.368 
			130.852,78.138 121.822,79.268 125.207,82.652 131.227,83.781 133.107,80.396 139.877,84.157 151.162,87.166 148.152,59.707 		"/>
	</g>
	<g>
		<defs>
			<path id="SVGID_23_" d="M62.005,99.766c0,24.927,20.206,45.135,45.134,45.135c24.925,0,45.132-20.208,45.132-45.135
				S132.064,54.63,107.139,54.63C82.211,54.63,62.005,74.839,62.005,99.766"/>
		</defs>
		<clipPath id="SVGID_24_">
			<use xlink:href="#SVGID_23_"  overflow="visible"/>
		</clipPath>
		<polygon clip-path="url(#SVGID_24_)" fill="#AAD26C" points="151.539,92.056 141.383,91.68 135.364,86.79 127.088,87.166 
			122.951,90.175 119.564,91.68 116.557,104.093 123.703,110.864 131.979,111.24 141.785,110.971 131.979,119.139 134.988,125.534 
			131.227,130.8 131.604,136.066 128.217,149.231 147.777,151.112 153.795,102.588 		"/>
	</g>
	<g>
		<defs>
			<path id="SVGID_25_" d="M62.005,99.766c0,24.927,20.206,45.135,45.134,45.135c24.925,0,45.132-20.208,45.132-45.135
				S132.064,54.63,107.139,54.63C82.211,54.63,62.005,74.839,62.005,99.766"/>
		</defs>
		<clipPath id="SVGID_26_">
			<use xlink:href="#SVGID_25_"  overflow="visible"/>
		</clipPath>
		<polygon clip-path="url(#SVGID_26_)" fill="#AAD26C" points="107.905,54.441 104.52,63.469 106.4,66.854 109.786,63.469 
			117.309,58.202 		"/>
	</g>
	<g>
		<defs>
			<path id="SVGID_27_" d="M62.005,99.766c0,24.927,20.206,45.135,45.134,45.135c24.925,0,45.132-20.208,45.132-45.135
				S132.064,54.63,107.139,54.63C82.211,54.63,62.005,74.839,62.005,99.766"/>
		</defs>
		<clipPath id="SVGID_28_">
			<use xlink:href="#SVGID_27_"  overflow="visible"/>
		</clipPath>
		<polygon clip-path="url(#SVGID_28_)" fill="#AAD26C" points="122.059,73.938 123.313,70.178 127.072,72.936 126.32,75.944 		"/>
	</g>
</g>
<path fill="#FFFFFF" d="M107.139,54.631c24.925,0,45.132,20.207,45.132,45.135c0,24.927-20.207,45.134-45.132,45.134
	c-24.927,0-45.134-20.207-45.134-45.134C62.005,74.838,82.212,54.631,107.139,54.631 M107.139,45.799
	c-29.758,0-53.966,24.21-53.966,53.967s24.208,53.966,53.966,53.966c29.755,0,53.964-24.209,53.964-53.966
	S136.895,45.799,107.139,45.799"/>
<path fill="#231F20" d="M107.139,54.631c24.925,0,45.132,20.207,45.132,45.135c0,24.927-20.207,45.134-45.132,45.134
	c-24.927,0-45.134-20.207-45.134-45.134C62.005,74.838,82.212,54.631,107.139,54.631 M107.139,50.215
	c-27.322,0-49.55,22.229-49.55,49.551c0,27.32,22.228,49.55,49.55,49.55c27.321,0,49.548-22.229,49.548-49.55
	C156.688,72.443,134.46,50.215,107.139,50.215"/>
<g opacity="0.8">
	<g>
		<g>
			<defs>
				<rect id="SVGID_29_" x="77.58" y="107.87" width="77.939" height="15.28"/>
			</defs>
			<clipPath id="SVGID_30_">
				<use xlink:href="#SVGID_29_"  overflow="visible"/>
			</clipPath>
			<path clip-path="url(#SVGID_30_)" fill="#231F20" d="M155.521,107.874l-3.752,10.269c0,0-23.572,10.638-74.187,0.917l1.468-4.032
				L155.521,107.874z"/>
		</g>
	</g>
</g>
<path fill="#FEDD79" d="M157.238,109.244c0,0-21.549,9.719-49.428,9.719c-29.701,0-50.973-9.719-50.973-9.719V93.84
	c0,0,21.271,9.72,50.973,9.72c27.879,0,49.428-9.72,49.428-9.72V109.244z"/>
<path fill="#F6A154" d="M107.793,106.86c-29.598,0-51.215-9.722-51.43-9.817c-0.553-0.253-0.797-0.906-0.545-1.458
	s0.903-0.796,1.459-0.544c0.211,0.096,21.422,9.619,50.516,9.619c0.607,0,1.102,0.492,1.102,1.1
	C108.895,106.368,108.4,106.86,107.793,106.86"/>
<path fill="#F6A154" d="M107.793,106.86c-0.607,0-1.102-0.493-1.102-1.102c0-0.607,0.494-1.1,1.102-1.1
	c27.303,0,48.762-9.526,48.977-9.621c0.554-0.252,1.205-0.004,1.455,0.551c0.25,0.553,0.002,1.205-0.552,1.455
	C157.455,97.143,135.589,106.86,107.793,106.86"/>
<path fill="#F6A154" d="M63.685,105.266c-0.163,0-0.327-0.021-0.49-0.073c-0.871-0.271-1.358-1.195-1.087-2.065l1.74-5.604
	c0.271-0.871,1.199-1.357,2.065-1.088c0.871,0.271,1.357,1.195,1.087,2.065l-1.74,5.605
	C65.039,104.813,64.387,105.266,63.685,105.266"/>
<path fill="#F6A154" d="M70.729,107.292c-0.141,0-0.283-0.018-0.426-0.056c-0.881-0.233-1.404-1.138-1.17-2.019l1.506-5.672
	c0.236-0.881,1.143-1.406,2.02-1.171c0.881,0.233,1.405,1.139,1.171,2.02l-1.507,5.671
	C72.125,106.806,71.459,107.292,70.729,107.292"/>
<path fill="#F6A154" d="M77.847,109.029c-0.119,0-0.24-0.014-0.361-0.039c-0.89-0.198-1.45-1.081-1.251-1.972l1.275-5.727
	c0.199-0.891,1.087-1.451,1.972-1.251c0.89,0.197,1.45,1.079,1.251,1.969l-1.277,5.729
	C79.283,108.508,78.603,109.029,77.847,109.029"/>
<path fill="#F6A154" d="M85.037,110.478c-0.096,0-0.193-0.008-0.291-0.023c-0.897-0.161-1.496-1.02-1.336-1.914l1.029-5.777
	c0.16-0.896,1.017-1.495,1.914-1.336c0.897,0.16,1.496,1.019,1.336,1.914l-1.029,5.777C86.518,109.916,85.82,110.478,85.037,110.478
	"/>
<path fill="#F6A154" d="M92.305,111.582c-0.07,0-0.141-0.004-0.213-0.014c-0.903-0.116-1.543-0.942-1.426-1.847l0.746-5.82
	c0.116-0.905,0.942-1.552,1.848-1.427c0.904,0.116,1.543,0.941,1.427,1.847l-0.747,5.82
	C93.832,110.976,93.123,111.582,92.305,111.582"/>
<path fill="#F6A154" d="M99.641,112.319c-0.04,0-0.079-0.001-0.119-0.004c-0.909-0.064-1.594-0.854-1.529-1.765l0.418-5.854
	c0.065-0.909,0.874-1.598,1.764-1.528c0.908,0.064,1.594,0.854,1.529,1.763l-0.418,5.854
	C101.223,111.655,100.498,112.319,99.641,112.319"/>
<path fill="#F6A154" d="M107.036,112.618h-0.005c-0.914-0.004-1.649-0.746-1.646-1.657l0.025-5.867
	c0.004-0.91,0.741-1.645,1.649-1.645h0.008c0.912,0.004,1.647,0.746,1.644,1.657l-0.025,5.867
	C108.682,111.885,107.943,112.618,107.036,112.618"/>
<path fill="#F6A154" d="M114.441,112.371c-0.862,0-1.588-0.67-1.646-1.543l-0.383-5.855c-0.062-0.91,0.629-1.695,1.539-1.754
	c0.911-0.074,1.692,0.63,1.754,1.539l0.383,5.855c0.06,0.909-0.629,1.695-1.539,1.754
	C114.514,112.37,114.477,112.371,114.441,112.371"/>
<path fill="#F6A154" d="M121.79,111.673c-0.819,0-1.531-0.608-1.636-1.444l-0.73-5.822c-0.113-0.904,0.527-1.729,1.432-1.842
	c0.908-0.115,1.73,0.525,1.845,1.432l0.729,5.823c0.113,0.903-0.527,1.729-1.434,1.842
	C121.928,111.669,121.857,111.673,121.79,111.673"/>
<path fill="#F6A154" d="M129.064,110.57c-0.785,0-1.481-0.563-1.623-1.36l-1.026-5.779c-0.159-0.896,0.438-1.755,1.336-1.914
	c0.899-0.16,1.753,0.438,1.914,1.337l1.026,5.778c0.158,0.896-0.439,1.754-1.336,1.914
	C129.258,110.563,129.16,110.57,129.064,110.57"/>
<path fill="#F6A154" d="M136.261,109.115c-0.755,0-1.437-0.521-1.608-1.288l-1.287-5.726c-0.2-0.889,0.357-1.771,1.248-1.972
	c0.886-0.202,1.771,0.357,1.972,1.248l1.289,5.724c0.198,0.891-0.358,1.772-1.248,1.974
	C136.502,109.103,136.381,109.115,136.261,109.115"/>
<path fill="#F6A154" d="M143.38,107.357c-0.728,0-1.394-0.483-1.593-1.222l-1.529-5.665c-0.236-0.88,0.283-1.785,1.164-2.021
	c0.878-0.232,1.785,0.283,2.023,1.163l1.529,5.665c0.235,0.881-0.283,1.784-1.164,2.022
	C143.666,107.339,143.521,107.357,143.38,107.357"/>
<path fill="#F6A154" d="M150.421,105.297c-0.7,0-1.351-0.447-1.573-1.149l-1.772-5.596c-0.275-0.868,0.204-1.797,1.073-2.07
	c0.869-0.277,1.797,0.205,2.072,1.073l1.773,5.595c0.275,0.868-0.207,1.796-1.074,2.071
	C150.754,105.273,150.586,105.297,150.421,105.297"/>
<path fill="#231F20" d="M155.927,95.635c0.771,0,1.312,0.564,1.312,1.507v8.803c0,1.215-0.903,2.598-2.034,3.043
	c-5.986,2.361-24.565,8.877-47.393,8.877c-24.303,0-42.962-6.508-48.941-8.873c-1.131-0.446-2.031-1.832-2.031-3.047v-8.803
	c0-0.94,0.539-1.504,1.306-1.504c0.226,0,0.469,0.048,0.726,0.149c5.979,2.365,24.639,8.872,48.941,8.872
	c22.827,0,41.406-6.515,47.393-8.877C155.459,95.683,155.703,95.635,155.927,95.635 M155.927,92.334L155.927,92.334
	c-0.646,0-1.298,0.128-1.935,0.379c-5.141,2.027-23.664,8.646-46.182,8.646c-24.016,0-42.604-6.614-47.729-8.642
	c-0.639-0.253-1.291-0.381-1.938-0.381c-2.626,0-4.606,2.065-4.606,4.805v8.803c0,2.601,1.731,5.173,4.117,6.115
	c6.92,2.738,25.66,9.104,50.156,9.104c23.034,0,41.665-6.368,48.605-9.107c2.39-0.941,4.123-3.513,4.123-6.112v-8.803
	C160.539,94.4,158.557,92.334,155.927,92.334"/>
<path fill="#FEDD79" d="M74.283,124.012c-1.336,2.672-2.752,6.792-3.557,9.271c-0.375,1.155-1.582,1.751-2.719,1.32l-9.453-3.576
	c-1.137-0.432-1.996-1.765-1.817-2.968c0.61-4.115,2.688-12.787,9.478-14.865l6.418,2.199l9.72,2.201
	C82.353,117.594,76.301,119.978,74.283,124.012"/>
<g opacity="0.8">
	<g>
		<g>
			<defs>
				<rect id="SVGID_31_" x="62.46" y="113.93" width="17.78" height="7.61"/>
			</defs>
			<clipPath id="SVGID_32_">
				<use xlink:href="#SVGID_31_"  overflow="visible"/>
			</clipPath>
			<path clip-path="url(#SVGID_32_)" fill="#231F20" d="M62.456,115.576c0,0,10.452,5.867,14.028,5.96l3.76-3.759l-13.938-3.853
				L62.456,115.576z"/>
		</g>
	</g>
</g>
<polygon fill="#F6A154" points="59.018,120.519 74.283,125.012 70.295,134.51 56.68,130.797 "/>
<path fill="#231F20" d="M68.762,136.393c-0.455,0-0.906-0.084-1.339-0.248l-9.453-3.575c-1.896-0.718-3.153-2.804-2.866-4.751
	c1.281-8.631,4.893-14.092,10.444-15.791l0.455-0.14l7.062,1.913l14.854,3.36l-4.96,1.968c-1.523,0.604-5.784,2.791-7.198,5.62
	c-1.31,2.615-2.733,6.788-3.465,9.042C71.792,135.348,70.371,136.393,68.762,136.393 M66.082,115.328
	c-5.045,1.848-6.979,8.034-7.713,12.974c-0.06,0.409,0.334,1.016,0.769,1.18l9.454,3.576c0.257,0.1,0.482-0.028,0.564-0.284
	c0.93-2.862,2.317-6.833,3.652-9.5c1.067-2.137,3.045-3.834,4.87-5.047l-5.41-1.225L66.082,115.328z"/>
<path fill="#231F20" d="M66.132,126.766c0,1.015-0.821,1.835-1.835,1.835c-1.012,0-1.832-0.82-1.832-1.835
	c0-1.013,0.82-1.834,1.832-1.834C65.311,124.932,66.132,125.753,66.132,126.766"/>
</svg>
