<?xml version="1.0" encoding="utf-8"?>
<!-- Generator: Adobe Illustrator 16.0.0, SVG Export Plug-In . SVG Version: 6.00 Build 0)  -->
<!DOCTYPE svg PUBLIC "-//W3C//DTD SVG 1.1//EN" "http://www.w3.org/Graphics/SVG/1.1/DTD/svg11.dtd">
<svg version="1.1" id="Layer_1" xmlns="http://www.w3.org/2000/svg" xmlns:xlink="http://www.w3.org/1999/xlink" x="0px" y="0px"
	 width="240px" height="200px" viewBox="0 0 240 200" enable-background="new 0 0 240 200" xml:space="preserve">
<path fill="#020202" d="M212.964,124.089c-1.816-3.577-5.512-6.852-6.379-10.245l-0.53-0.223c-1.339,3.336-1.193,7.326-0.17,10.95
	c1.108,4.704,3.424,8.369,4.508,12.994c0.193,0.891,0.354,1.774,0.459,2.741c6.955-5.049,13.368-10.808,15.183-19.896l-12.194,6.13
	C213.676,125.692,213.347,124.854,212.964,124.089"/>
<path fill="#020202" d="M209.828,82.306c0.578,1.658,0.758,3.546,1.549,5.248c0.51,0.668,0.959,1.357,1.431,2.059
	c1.313,1.813,2.677,3.43,4.421,3.884c0.605-2.796,1.064-5.733,0.533-8.912c-0.604-2.013-1.508-3.808-2.689-5.429
	c-1.849-2.561-4.358-4.639-7.396-6.199c-0.1-0.058-0.167-0.071-0.224-0.119l-0.403,0.093c0.156,0.24,0.303,0.518,0.46,0.796
	C208.886,76.35,209.298,79.127,209.828,82.306"/>
<path fill="#020202" d="M214.463,99.473c-2.653-3.011-7.05-5.258-8.736-8.325l-0.57-0.085c-0.461,3.564,0.675,7.394,2.572,10.646
	c2.248,4.278,5.406,7.249,7.611,11.456c0.409,0.813,0.784,1.631,1.127,2.54c5.477-6.626,10.246-13.805,9.731-23.059l-10.276,8.98
	C215.553,100.848,215.024,100.117,214.463,99.473"/>
<path fill="#020202" d="M27.223,124.089c1.817-3.577,5.512-6.852,6.379-10.245l0.532-0.223c1.337,3.336,1.193,7.326,0.168,10.95
	c-1.107,4.704-3.423,8.369-4.507,12.994c-0.194,0.891-0.354,1.774-0.459,2.741c-6.956-5.049-13.369-10.808-15.182-19.896
	l12.194,6.13C26.511,125.692,26.84,124.854,27.223,124.089"/>
<path fill="#020202" d="M30.358,82.306c-0.578,1.658-0.758,3.546-1.548,5.248c-0.51,0.668-0.96,1.357-1.431,2.059
	c-1.314,1.813-2.676,3.43-4.42,3.884c-0.606-2.796-1.065-5.733-0.534-8.912c0.605-2.013,1.507-3.808,2.689-5.429
	c1.849-2.561,4.358-4.639,7.396-6.199c0.099-0.058,0.167-0.071,0.223-0.119l0.404,0.093c-0.157,0.24-0.303,0.518-0.46,0.796
	C31.302,76.35,30.89,79.127,30.358,82.306"/>
<path fill="#020202" d="M25.725,99.473c2.653-3.011,7.049-5.258,8.736-8.325l0.571-0.085c0.461,3.564-0.675,7.394-2.573,10.646
	c-2.248,4.278-5.406,7.249-7.611,11.456c-0.409,0.813-0.785,1.631-1.128,2.54c-5.475-6.626-10.246-13.805-9.731-23.059l10.277,8.98
	C24.635,100.848,25.163,100.117,25.725,99.473"/>
<path fill="#020202" d="M193.361,165.246c-0.916-0.018-1.783-0.026-2.639,0.015c3.211-4.57,2.291-10.164,4.059-15.119l-0.018-0.219
	c-5.328,2.008-8.123,6.7-10.73,11.657c-1.861,3.592-3.684,7.273-6.34,9.993c1.109,0.08,2.154,0.229,3.234,0.389
	c1.122,0.163,2.275,0.386,3.436,0.691c2.307,0.136,4.58,0.237,6.732,0.167c4.034-0.171,7.795-0.854,11.036-2.605
	c1.502-0.798,2.901-1.85,4.132-3.161c-0.949-0.153-1.992-0.342-3.029-0.523C199.971,165.975,196.537,165.404,193.361,165.246"/>
<path fill="#020202" d="M206.361,149.673c-1.494-5.036-4.273-10.122-3.865-15.641l-0.143-0.22l-0.373,0.164
	c-0.045,0.036-0.098,0.108-0.103,0.146c-0.291,0.501-0.601,0.786-1.136,1.3c-3.805,6.707-3.229,14.78-1.273,21.92
	c0.318,1.176,0.651,2.295,1.062,3.425c3.423-2.676,7.645-3.357,11.442-5.306c0.342-0.207,0.677-0.37,1.028-0.582
	c3.66-2.641,5.887-7.007,6.843-11.183c-2.373,0.757-4.701,1.368-6.877,2.186C210.623,146.728,208.359,147.87,206.361,149.673"/>
<path fill="#020202" d="M46.889,165.246c0.916-0.018,1.783-0.026,2.638,0.015c-3.211-4.57-2.29-10.164-4.058-15.119l0.017-0.219
	c5.329,2.008,8.124,6.7,10.731,11.657c1.861,3.592,3.683,7.273,6.339,9.993c-1.109,0.08-2.153,0.229-3.234,0.389
	c-1.122,0.163-2.274,0.386-3.435,0.691c-2.306,0.136-4.581,0.237-6.732,0.167c-4.035-0.171-7.795-0.854-11.037-2.605
	c-1.502-0.798-2.901-1.85-4.131-3.161c0.949-0.153,1.992-0.342,3.028-0.523C40.279,165.975,43.713,165.404,46.889,165.246"/>
<path fill="#020202" d="M33.889,149.673c1.494-5.036,4.274-10.122,3.865-15.641l0.142-0.22l0.374,0.164
	c0.045,0.036,0.097,0.108,0.101,0.146c0.292,0.501,0.601,0.786,1.136,1.3c3.805,6.707,3.229,14.78,1.275,21.92
	c-0.32,1.176-0.653,2.295-1.063,3.425c-3.423-2.676-7.645-3.357-11.443-5.306c-0.341-0.207-0.676-0.37-1.029-0.582
	c-3.66-2.641-5.886-7.007-6.841-11.183c2.373,0.757,4.7,1.368,6.876,2.186C29.627,146.728,31.891,147.87,33.889,149.673"/>
<rect x="75.241" y="131.861" fill="#020202" width="85" height="43.667"/>
<polygon fill="#020202" points="148.542,161.025 174.379,152.046 161.307,142.266 109.798,166.528 "/>
<polygon fill="#020202" points="121.799,167.528 65.104,152.046 78.177,142.266 126.299,164.028 "/>
<polygon fill="#FFFFFF" points="172.057,183.863 119.762,198.046 67.469,182.358 67.469,154.837 119.762,164.525 172.057,154.837 
	"/>
<polygon fill="none" stroke="#020202" stroke-width="4.515" stroke-miterlimit="10" points="172.057,183.863 119.762,196.646 
	67.469,183.863 67.469,154.837 119.762,163.62 172.057,154.837 "/>
<path fill="#FDD00F" d="M120.081,37.388H53.297c0.001,0.091,0.003,0.182,0.003,0.272V109.6c0,0,2.763,28.096,33.166,36.624
	c29.392,8.245,33.382,17.896,33.615,18.529c0.008,0.021,0.012,0.032,0.012,0.032s3.224-10.034,33.627-18.563
	c30.402-8.528,33.166-36.624,33.166-36.624v-71.9c0-0.014,0.001-0.025,0.001-0.039c0-0.092,0.004-0.183,0.004-0.272L120.081,37.388
	L120.081,37.388z"/>
<g opacity="0.5">
	<g>
		<g>
			<defs>
				<rect id="SVGID_1_" x="120.08" y="37.39" width="66.811" height="127.4"/>
			</defs>
			<clipPath id="SVGID_2_">
				<use xlink:href="#SVGID_1_"  overflow="visible"/>
			</clipPath>
			<path clip-path="url(#SVGID_2_)" fill="#CDA72C" d="M153.721,146.224c30.401-8.527,33.165-36.624,33.165-36.624V37.7
				c0-0.015,0.001-0.026,0.001-0.039c0-0.092,0.004-0.183,0.004-0.273h-66.81v127.366c0.008,0.022,0.012,0.034,0.012,0.034
				S123.316,154.753,153.721,146.224"/>
		</g>
	</g>
</g>
<path fill="#191818" d="M181.523,12.61l3.393,5.225c-2.295,2.726-4.316,6.396-5.443,11.188H60.716
	c-1.128-4.79-3.149-8.462-5.444-11.188l3.392-5.225h28.033h23.781h9.198h33.814H181.523 M186.066,4.244H153.49h-33.814h-9.198
	H86.697H54.121L44.087,19.698c0,0,9.1,2.806,9.21,17.688h133.594c0.109-14.884,9.211-17.688,9.211-17.688L186.066,4.244z"/>
<g opacity="0.4">
	<g>
		<g>
			<defs>
				<rect id="SVGID_3_" x="44.09" y="4.24" width="152.01" height="160.55"/>
			</defs>
			<clipPath id="SVGID_4_">
				<use xlink:href="#SVGID_3_"  overflow="visible"/>
			</clipPath>
			<path clip-path="url(#SVGID_4_)" fill="#FFFFFF" d="M178.098,18.041c-2.643,4.355-4.932,10.604-5.004,19.229v0.005l-0.003,0.261
				l-0.001,0.082v0.082v70.901c-0.26,1.438-1.204,5.667-3.914,10.227c-4.133,6.953-10.586,11.701-19.183,14.113
				c-13.943,3.911-23.452,8.354-29.929,12.658c-6.466-4.301-15.956-8.755-29.872-12.658c-8.596-2.412-15.05-7.16-19.183-14.113
				c-2.709-4.56-3.653-8.787-3.913-10.227V37.66l-0.003-0.375c-0.064-8.625-2.356-14.882-5.003-19.244h24.605h23.781h9.198h33.814
				H178.098 M186.066,4.244H153.49h-33.814h-9.198H86.697H54.121L44.087,19.698c0,0,9.1,2.806,9.21,17.688
				c0.001,0.091,0.003,0.182,0.003,0.272v71.939c0,0,2.764,28.096,33.166,36.624c29.393,8.245,33.383,17.896,33.615,18.528
				c0.008,0.022,0.012,0.033,0.012,0.033s3.226-10.034,33.627-18.563c30.403-8.528,33.167-36.624,33.167-36.624v-71.9
				c0-0.014,0.002-0.025,0.002-0.039c0-0.092,0.002-0.183,0.002-0.272c0.109-14.884,9.211-17.688,9.211-17.688L186.066,4.244z"/>
		</g>
	</g>
</g>
<path fill="#1A1A19" d="M196.102,19.698L186.066,4.244h-32.574h-33.816h-9.198H86.697H54.122L44.088,19.698
	c0,0,9.1,2.807,9.21,17.688v7.526h133.595v-7.526C187.001,22.505,196.102,19.698,196.102,19.698"/>
<path fill="#FFFFFF" d="M65.622,30.496l2.409-2.529c1.023,1.325,2.619,2.198,4.304,2.198c2.108,0,3.071-1.114,3.071-2.68
	c0-1.866-1.294-2.528-3.251-2.528c-0.662,0-1.566,0-1.866,0.061v-3.644c0.3,0.03,1.294,0.03,1.775,0.03
	c1.837,0,3.071-0.753,3.071-2.318c0-1.686-1.204-2.498-2.95-2.498c-1.565,0-2.98,0.722-4.004,2.018l-2.288-2.35
	c1.445-2.017,3.733-3.251,6.623-3.251c3.974,0,6.593,1.896,6.593,5.449c0,2.288-1.716,4.154-3.793,4.575
	c2.047,0.302,4.095,2.106,4.095,4.817c0,3.491-2.68,5.9-6.895,5.9C69.324,33.748,66.886,32.332,65.622,30.496"/>
<polygon fill="#FFFFFF" points="100.901,33.387 98.313,20.02 95.754,33.387 91.539,33.387 86.963,13.306 91.297,13.306 
	93.887,27.275 96.747,13.306 99.908,13.306 102.798,27.275 105.357,13.306 109.692,13.306 105.116,33.387 "/>
<polygon fill="#FFFFFF" points="111.646,33.387 111.646,13.306 123.146,13.306 123.146,16.858 115.681,16.858 115.681,21.404 
	122.936,21.404 122.936,24.957 115.681,24.957 115.681,29.834 123.146,29.834 123.146,33.387 "/>
<polygon fill="#FFFFFF" points="126.125,33.387 126.125,13.306 137.625,13.306 137.625,16.858 130.159,16.858 130.159,21.404 
	137.414,21.404 137.414,24.957 130.159,24.957 130.159,29.834 137.625,29.834 137.625,33.387 "/>
<polygon fill="#FFFFFF" points="150.688,33.387 146.053,25.529 144.639,27.757 144.639,33.387 140.604,33.387 140.604,13.306 
	144.639,13.306 144.639,22.428 150.297,13.306 154.994,13.306 148.581,22.759 155.445,33.387 "/>
<path fill="#FFFFFF" d="M155.955,31.158l1.986-3.102c1.113,1.234,2.859,2.139,4.848,2.139c1.775,0,2.738-0.994,2.738-2.229
	c0-3.521-8.971-2.316-8.971-9.121c0-3.162,2.469-5.871,6.622-5.871c2.439,0,4.548,0.783,6.082,2.229l-1.927,3.011
	c-1.204-1.144-2.74-1.686-4.307-1.686c-1.443,0-2.348,0.813-2.348,2.047c0,3.131,8.941,2.288,8.941,9.063
	c0,3.521-2.408,6.111-6.805,6.111C159.777,33.748,157.551,32.754,155.955,31.158"/>
<polygon fill="#1A1A19" points="104.016,185.976 104.016,173.629 101.491,176.253 99.566,174.229 104.466,169.305 107.39,169.305 
	107.39,185.976 "/>
<path fill="#1A1A19" d="M109.666,177.652c0-4.3,1.775-8.599,5.898-8.599c4.149,0,5.898,4.3,5.898,8.599
	c0,4.272-1.724,8.623-5.898,8.623C111.441,186.275,109.666,181.926,109.666,177.652 M118.064,177.652c0-3.226-0.55-5.623-2.5-5.623
	c-1.924,0-2.474,2.397-2.474,5.623c0,3.198,0.55,5.647,2.474,5.647C117.515,183.301,118.064,180.852,118.064,177.652"/>
<polygon fill="#1A1A19" points="132.139,185.976 128.289,179.453 127.115,181.302 127.115,185.976 123.766,185.976 123.766,169.305 
	127.115,169.305 127.115,176.877 131.814,169.305 135.713,169.305 130.391,177.152 136.088,185.976 "/>
<g>
	<g>
		<defs>
			<path id="SVGID_5_" d="M120.019,37.591H53.797c0,0.089,0.002,0.177,0.002,0.271v71.335c0,0,2.74,27.855,32.887,36.313
				c29.145,8.177,33.1,17.746,33.333,18.373c0.006,0.021,0.01,0.033,0.01,0.033s3.198-9.95,33.344-18.406
				c30.146-8.457,32.886-36.313,32.886-36.313V37.9c0-0.014,0.003-0.027,0.003-0.039c0-0.094,0.002-0.182,0.002-0.271H120.019
				L120.019,37.591z"/>
		</defs>
		<clipPath id="SVGID_6_">
			<use xlink:href="#SVGID_5_"  overflow="visible"/>
		</clipPath>
		<g clip-path="url(#SVGID_6_)">
			<g opacity="0.5">
				<g>
					<defs>
						<rect id="SVGID_7_" x="52.48" y="104.87" width="130.76" height="27.61"/>
					</defs>
					<defs>
						<rect id="SVGID_8_" x="52.48" y="104.87" width="130.76" height="27.61"/>
					</defs>
					<defs>
						<rect id="SVGID_9_" x="52.48" y="104.87" width="130.76" height="27.61"/>
					</defs>
					<defs>
						<rect id="SVGID_10_" x="52.48" y="104.87" width="130.76" height="27.61"/>
					</defs>
					<defs>
						<rect id="SVGID_11_" x="52.48" y="104.87" width="130.76" height="27.61"/>
					</defs>
					<defs>
						<rect id="SVGID_12_" x="52.48" y="104.87" width="130.76" height="27.61"/>
					</defs>
					<defs>
						<rect id="SVGID_13_" x="52.48" y="104.87" width="130.76" height="27.61"/>
					</defs>
					<defs>
						<rect id="SVGID_14_" x="52.48" y="104.87" width="130.76" height="27.61"/>
					</defs>
					<clipPath id="SVGID_15_">
						<use xlink:href="#SVGID_7_"  overflow="visible"/>
					</clipPath>
					<clipPath id="SVGID_16_" clip-path="url(#SVGID_15_)">
						<use xlink:href="#SVGID_8_"  overflow="visible"/>
					</clipPath>
					<clipPath id="SVGID_17_" clip-path="url(#SVGID_16_)">
						<use xlink:href="#SVGID_9_"  overflow="visible"/>
					</clipPath>
					<clipPath id="SVGID_18_" clip-path="url(#SVGID_17_)">
						<use xlink:href="#SVGID_10_"  overflow="visible"/>
					</clipPath>
					<clipPath id="SVGID_19_" clip-path="url(#SVGID_18_)">
						<use xlink:href="#SVGID_11_"  overflow="visible"/>
					</clipPath>
					<clipPath id="SVGID_20_" clip-path="url(#SVGID_19_)">
						<use xlink:href="#SVGID_12_"  overflow="visible"/>
					</clipPath>
					<clipPath id="SVGID_21_" clip-path="url(#SVGID_20_)">
						<use xlink:href="#SVGID_13_"  overflow="visible"/>
					</clipPath>
					<clipPath id="SVGID_22_" clip-path="url(#SVGID_21_)">
						<use xlink:href="#SVGID_14_"  overflow="visible"/>
					</clipPath>
					<path clip-path="url(#SVGID_22_)" fill="#CDA72C" d="M169.236,104.87c0,0-9.746,8.382-7.764,7.194c0,0-1.287,7.67-7.591,7.4
						c-6.302-0.267-8.125,9.171-7.881,11.126c0,0,3.949-4.619,10.466-2.967c6.516,1.654,10.057-2.413,10.936-3.702
						c0,0-2.33,7.688-6.85,8.27c0,0,11.194,2.166,15.59-5.347c4.395-7.514,6.612-16.359,7.084-17.154
						C183.697,108.896,169.236,104.87,169.236,104.87"/>
					<path clip-path="url(#SVGID_22_)" fill="#CDA72C" d="M156.413,126.278c0,0-7.976,1.536-6.608,1.02c0,0-4.303-2.372-6.644,0.854
						c-2.341,3.226-7.729,0.425-8.603-0.463c0,0,3.838-0.145,5.575-4.021c1.738-3.875,5.144-4.033,6.124-3.961
						c0,0-4.72-1.863-6.779,0.146c0,0,3.318-6.393,8.765-5.619c5.444,0.771,10.694,3.145,11.272,3.224
						C160.096,117.537,156.413,126.278,156.413,126.278"/>
					<path clip-path="url(#SVGID_22_)" fill="#CDA72C" d="M136.9,104.87c0,0-9.746,8.382-7.762,7.194c0,0-1.289,7.67-7.592,7.4
						c-6.303-0.267-8.125,9.171-7.882,11.126c0,0,3.95-4.619,10.467-2.967c6.517,1.654,10.058-2.413,10.935-3.702
						c0,0-2.33,7.688-6.849,8.27c0,0,11.193,2.166,15.589-5.347c4.396-7.514,6.612-16.359,7.084-17.154
						C151.361,108.896,136.9,104.87,136.9,104.87"/>
					<path clip-path="url(#SVGID_22_)" fill="#CDA72C" d="M124.078,126.278c0,0-7.976,1.536-6.609,1.02c0,0-4.302-2.372-6.643,0.854
						c-2.341,3.226-7.73,0.425-8.602-0.463c0,0,3.837-0.145,5.576-4.021c1.738-3.875,5.142-4.033,6.124-3.961
						c0,0-4.72-1.863-6.781,0.146c0,0,3.32-6.393,8.764-5.619c5.444,0.771,10.696,3.145,11.274,3.224
						S124.078,126.278,124.078,126.278"/>
					<path clip-path="url(#SVGID_22_)" fill="#CDA72C" d="M111.53,104.87c0,0-9.745,8.382-7.762,7.194c0,0-1.288,7.67-7.591,7.4
						c-6.302-0.267-8.125,9.171-7.881,11.126c0,0,3.949-4.619,10.466-2.967c6.516,1.654,10.057-2.413,10.935-3.702
						c0,0-2.33,7.688-6.849,8.27c0,0,11.194,2.166,15.589-5.347c4.396-7.514,6.613-16.359,7.084-17.154
						C125.992,108.896,111.53,104.87,111.53,104.87"/>
					<path clip-path="url(#SVGID_22_)" fill="#CDA72C" d="M98.707,126.278c0,0-7.975,1.536-6.608,1.02c0,0-4.303-2.372-6.644,0.854
						c-2.341,3.226-7.73,0.425-8.602-0.463c0,0,3.837-0.145,5.576-4.021c1.738-3.875,5.142-4.033,6.124-3.961
						c0,0-4.72-1.863-6.781,0.146c0,0,3.32-6.393,8.765-5.619c5.444,0.771,10.695,3.145,11.273,3.224
						C102.389,117.537,98.707,126.278,98.707,126.278"/>
					<path clip-path="url(#SVGID_22_)" fill="#CDA72C" d="M87.154,104.87c0,0-9.745,8.382-7.763,7.194c0,0-1.288,7.67-7.591,7.4
						c-6.303-0.267-8.125,9.171-7.882,11.126c0,0,3.95-4.619,10.467-2.967c6.516,1.654,10.057-2.413,10.936-3.702
						c0,0-2.33,7.688-6.85,8.27c0,0,11.194,2.166,15.589-5.347c4.395-7.514,6.613-16.359,7.084-17.154
						C101.616,108.896,87.154,104.87,87.154,104.87"/>
					<path clip-path="url(#SVGID_22_)" fill="#CDA72C" d="M74.331,126.278c0,0-7.975,1.536-6.609,1.02c0,0-4.302-2.372-6.643,0.854
						c-2.341,3.226-7.73,0.425-8.603-0.463c0,0,3.838-0.145,5.577-4.021c1.738-3.875,5.142-4.033,6.124-3.961
						c0,0-4.72-1.863-6.781,0.146c0,0,3.319-6.393,8.764-5.619c5.445,0.771,10.696,3.145,11.275,3.224
						C78.013,117.537,74.331,126.278,74.331,126.278"/>
				</g>
			</g>
			<g>
				<defs>
					<path id="SVGID_23_" d="M120.019,37.591H53.797c0,0.089,0.002,0.177,0.002,0.271v71.335c0,0,2.74,27.855,32.887,36.313
						c29.145,8.177,33.1,17.746,33.333,18.373c0.006,0.021,0.01,0.033,0.01,0.033s3.198-9.95,33.344-18.406
						c30.146-8.457,32.886-36.313,32.886-36.313V37.9c0-0.014,0.003-0.027,0.003-0.039c0-0.094,0.002-0.182,0.002-0.271H120.019
						L120.019,37.591z"/>
				</defs>
				<clipPath id="SVGID_24_">
					<use xlink:href="#SVGID_23_"  overflow="visible"/>
				</clipPath>
				<path clip-path="url(#SVGID_24_)" fill="#FFFFFF" d="M82.545,108.646l0.161-5.137l1.02-15.3l0.372-5.574l0.52-7.803l0.173-2.601
					H108.2c0-5.201,5.202-7.804,5.202-7.804l2.288,1.716l1.873,1.405l0.833,0.624l3.901,2.926l26.824,18.854l0.693,0.485
					c0,0,0.578,0.23,1.565,0.62c0.003,0.001,0.007,0.002,0.011,0.005c0.053,0.021,0.108,0.043,0.164,0.064
					c0.024,0.009,0.049,0.02,0.073,0.029c0.054,0.02,0.104,0.041,0.16,0.063c0.015,0.005,0.026,0.012,0.041,0.018
					c0.062,0.022,0.12,0.048,0.183,0.07c0.021,0.01,0.043,0.019,0.063,0.025c0.062,0.024,0.12,0.047,0.183,0.072
					c0.01,0.004,0.021,0.008,0.032,0.012c0.099,0.039,0.196,0.078,0.3,0.118c0.057,0.021,0.112,0.044,0.169,0.065
					c0.056,0.021,0.111,0.043,0.166,0.065c0.035,0.013,0.068,0.027,0.104,0.041c0.062,0.024,0.123,0.048,0.186,0.072
					c0.032,0.013,0.064,0.024,0.098,0.039c0.057,0.021,0.115,0.044,0.172,0.065c0.046,0.02,0.09,0.035,0.137,0.054
					c0.057,0.021,0.113,0.045,0.172,0.066c0.035,0.014,0.07,0.028,0.105,0.042c0.066,0.026,0.135,0.052,0.203,0.079
					c0.047,0.02,0.097,0.038,0.145,0.056c0.047,0.02,0.092,0.036,0.139,0.056c0.084,0.031,0.17,0.064,0.256,0.1
					c0.021,0.008,0.039,0.015,0.059,0.022c0.089,0.033,0.179,0.068,0.27,0.104c0.028,0.011,0.057,0.022,0.084,0.033
					c0.067,0.025,0.139,0.053,0.207,0.08c0.067,0.025,0.137,0.053,0.204,0.079c1.188,0.462,2.501,0.967,3.871,1.486
					c0.003,0.001,0.005,0.003,0.009,0.003c0.137,0.055,0.276,0.106,0.415,0.158l0.003,0.001c0.131,0.05,0.264,0.102,0.396,0.151
					l0.063,0.022c0.125,0.048,0.25,0.096,0.375,0.143c0.012,0.004,0.021,0.009,0.032,0.013c0.138,0.051,0.272,0.104,0.41,0.154
					c0.002,0.001,0.004,0.002,0.006,0.002c0.138,0.052,0.272,0.103,0.41,0.155c0.015,0.005,0.024,0.01,0.038,0.014
					c0.126,0.048,0.253,0.095,0.38,0.144c0.021,0.009,0.043,0.017,0.063,0.023c0.123,0.046,0.246,0.092,0.369,0.138
					c0.021,0.009,0.043,0.018,0.064,0.024l0.359,0.134c0.026,0.01,0.053,0.021,0.08,0.03c0.118,0.044,0.238,0.089,0.356,0.133
					c0.024,0.009,0.051,0.018,0.075,0.028c0.113,0.042,0.229,0.084,0.343,0.126c0.033,0.013,0.067,0.024,0.103,0.038
					c0.109,0.041,0.221,0.082,0.33,0.122c0.033,0.012,0.065,0.022,0.098,0.034c0.111,0.041,0.223,0.082,0.332,0.122l0.104,0.039
					c0.109,0.04,0.218,0.079,0.324,0.119c0.035,0.013,0.069,0.025,0.104,0.038c0.107,0.039,0.215,0.078,0.321,0.117
					c0.036,0.013,0.072,0.024,0.109,0.04c0.103,0.037,0.204,0.074,0.307,0.109c0.041,0.017,0.082,0.03,0.123,0.047
					c0.101,0.035,0.201,0.07,0.302,0.106c0.039,0.015,0.079,0.03,0.12,0.044c0.101,0.037,0.203,0.073,0.304,0.11
					c0.039,0.013,0.078,0.025,0.117,0.041c0.092,0.034,0.186,0.066,0.276,0.1c0.05,0.019,0.099,0.034,0.146,0.052
					c0.094,0.033,0.186,0.065,0.276,0.1c0.044,0.015,0.088,0.031,0.131,0.046c0.104,0.037,0.207,0.073,0.31,0.109
					c0.031,0.012,0.063,0.021,0.094,0.032c0.098,0.034,0.193,0.068,0.291,0.104c0.039,0.014,0.08,0.027,0.12,0.042
					c0.085,0.029,0.165,0.058,0.249,0.087c0.051,0.018,0.103,0.036,0.152,0.053c0.086,0.03,0.17,0.062,0.256,0.089
					c0.043,0.017,0.088,0.031,0.133,0.047c0.08,0.027,0.16,0.056,0.24,0.082c0.051,0.019,0.102,0.035,0.15,0.054
					c0.075,0.023,0.148,0.051,0.225,0.075c0.051,0.019,0.104,0.034,0.153,0.054c0.077,0.024,0.152,0.051,0.228,0.077
					c0.051,0.016,0.1,0.031,0.146,0.049c0.123,0.041,0.243,0.082,0.364,0.122c0.237,0.079,0.469,0.166,0.69,0.26
					c0.004,0.001,0.008,0.003,0.013,0.004c0.22,0.092,0.433,0.191,0.639,0.296c0.007,0.003,0.015,0.006,0.021,0.01
					c0.203,0.104,0.399,0.214,0.59,0.328c0.009,0.005,0.02,0.011,0.027,0.018c0.188,0.112,0.369,0.231,0.545,0.355
					c0.011,0.008,0.021,0.017,0.033,0.023c0.172,0.122,0.34,0.251,0.5,0.382c0.012,0.01,0.023,0.019,0.036,0.029
					c0.159,0.131,0.313,0.267,0.464,0.404c0.012,0.013,0.023,0.022,0.034,0.033c0.147,0.14,0.291,0.283,0.429,0.429
					c0.012,0.014,0.021,0.023,0.032,0.034c0.138,0.148,0.271,0.3,0.397,0.452c0.01,0.011,0.02,0.022,0.027,0.033
					c0.129,0.155,0.252,0.313,0.369,0.473c0.008,0.01,0.016,0.021,0.022,0.03c0.118,0.163,0.233,0.328,0.344,0.495
					c0.005,0.007,0.011,0.014,0.015,0.021c0.111,0.17,0.219,0.343,0.32,0.518c0.002,0.004,0.005,0.008,0.008,0.012
					c1.156,1.974,1.618,4.133,1.891,5.764v9.458H82.543v-9.452H82.545z"/>
			</g>
			<g>
				<defs>
					<path id="SVGID_25_" d="M120.019,37.591H53.797c0,0.089,0.002,0.177,0.002,0.271v71.335c0,0,2.74,27.855,32.887,36.313
						c29.145,8.177,33.1,17.746,33.333,18.373c0.006,0.021,0.01,0.033,0.01,0.033s3.198-9.95,33.344-18.406
						c30.146-8.457,32.886-36.313,32.886-36.313V37.9c0-0.014,0.003-0.027,0.003-0.039c0-0.094,0.002-0.182,0.002-0.271H120.019
						L120.019,37.591z"/>
				</defs>
				<clipPath id="SVGID_26_">
					<use xlink:href="#SVGID_25_"  overflow="visible"/>
				</clipPath>
				<path clip-path="url(#SVGID_26_)" fill="#F8D016" d="M151.975,104.269l-43.41-30.932l4.507-7.193l11.639,9.148l27.282,18.479
					l0.747,0.507c0,0,2.847,1.103,6.744,2.561l0.007,0.032L151.975,104.269z"/>
			</g>
			<g>
				<defs>
					<path id="SVGID_27_" d="M120.019,37.591H53.797c0,0.089,0.002,0.177,0.002,0.271v71.335c0,0,2.74,27.855,32.887,36.313
						c29.145,8.177,33.1,17.746,33.333,18.373c0.006,0.021,0.01,0.033,0.01,0.033s3.198-9.95,33.344-18.406
						c30.146-8.457,32.886-36.313,32.886-36.313V37.9c0-0.014,0.003-0.027,0.003-0.039c0-0.094,0.002-0.182,0.002-0.271H120.019
						L120.019,37.591z"/>
				</defs>
				<clipPath id="SVGID_28_">
					<use xlink:href="#SVGID_27_"  overflow="visible"/>
				</clipPath>
				<path clip-path="url(#SVGID_28_)" fill="#F8D016" d="M149.837,91.521c0.563,0.227,13.159,5.253,20.786,7.795
					c3.854,1.284,5.803,4.472,6.789,7.368h-38.678L149.837,91.521z"/>
			</g>
			<g>
				<defs>
					<path id="SVGID_29_" d="M120.019,37.591H53.797c0,0.089,0.002,0.177,0.002,0.271v71.335c0,0,2.74,27.855,32.887,36.313
						c29.145,8.177,33.1,17.746,33.333,18.373c0.006,0.021,0.01,0.033,0.01,0.033s3.198-9.95,33.344-18.406
						c30.146-8.457,32.886-36.313,32.886-36.313V37.9c0-0.014,0.003-0.027,0.003-0.039c0-0.094,0.002-0.182,0.002-0.271H120.019
						L120.019,37.591z"/>
				</defs>
				<clipPath id="SVGID_30_">
					<use xlink:href="#SVGID_29_"  overflow="visible"/>
				</clipPath>
				<polygon clip-path="url(#SVGID_30_)" fill="#191818" points="124.871,74.268 117.925,80.413 121.426,71.824 				"/>
			</g>
			<g>
				<defs>
					<path id="SVGID_31_" d="M120.019,37.591H53.797c0,0.089,0.002,0.177,0.002,0.271v71.335c0,0,2.74,27.855,32.887,36.313
						c29.145,8.177,33.1,17.746,33.333,18.373c0.006,0.021,0.01,0.033,0.01,0.033s3.198-9.95,33.344-18.406
						c30.146-8.457,32.886-36.313,32.886-36.313V37.9c0-0.014,0.003-0.027,0.003-0.039c0-0.094,0.002-0.182,0.002-0.271H120.019
						L120.019,37.591z"/>
				</defs>
				<clipPath id="SVGID_32_">
					<use xlink:href="#SVGID_31_"  overflow="visible"/>
				</clipPath>
				<polygon clip-path="url(#SVGID_32_)" fill="#191818" points="131.407,78.925 124.461,85.069 127.962,76.481 				"/>
			</g>
			<g>
				<defs>
					<path id="SVGID_33_" d="M120.019,37.591H53.797c0,0.089,0.002,0.177,0.002,0.271v71.335c0,0,2.74,27.855,32.887,36.313
						c29.145,8.177,33.1,17.746,33.333,18.373c0.006,0.021,0.01,0.033,0.01,0.033s3.198-9.95,33.344-18.406
						c30.146-8.457,32.886-36.313,32.886-36.313V37.9c0-0.014,0.003-0.027,0.003-0.039c0-0.094,0.002-0.182,0.002-0.271H120.019
						L120.019,37.591z"/>
				</defs>
				<clipPath id="SVGID_34_">
					<use xlink:href="#SVGID_33_"  overflow="visible"/>
				</clipPath>
				
					<line clip-path="url(#SVGID_34_)" fill="none" stroke="#191818" stroke-width="2.148" stroke-miterlimit="10" x1="177.412" y1="107.491" x2="82.544" y2="107.491"/>
			</g>
			<g>
				<defs>
					<path id="SVGID_35_" d="M120.019,37.591H53.797c0,0.089,0.002,0.177,0.002,0.271v71.335c0,0,2.74,27.855,32.887,36.313
						c29.145,8.177,33.1,17.746,33.333,18.373c0.006,0.021,0.01,0.033,0.01,0.033s3.198-9.95,33.344-18.406
						c30.146-8.457,32.886-36.313,32.886-36.313V37.9c0-0.014,0.003-0.027,0.003-0.039c0-0.094,0.002-0.182,0.002-0.271H120.019
						L120.019,37.591z"/>
				</defs>
				<clipPath id="SVGID_36_">
					<use xlink:href="#SVGID_35_"  overflow="visible"/>
				</clipPath>
				<polygon clip-path="url(#SVGID_36_)" fill="#191818" points="137.943,83.581 130.998,89.727 134.498,81.139 				"/>
			</g>
			<g>
				<defs>
					<path id="SVGID_37_" d="M120.019,37.591H53.797c0,0.089,0.002,0.177,0.002,0.271v71.335c0,0,2.74,27.855,32.887,36.313
						c29.145,8.177,33.1,17.746,33.333,18.373c0.006,0.021,0.01,0.033,0.01,0.033s3.198-9.95,33.344-18.406
						c30.146-8.457,32.886-36.313,32.886-36.313V37.9c0-0.014,0.003-0.027,0.003-0.039c0-0.094,0.002-0.182,0.002-0.271H120.019
						L120.019,37.591z"/>
				</defs>
				<clipPath id="SVGID_38_">
					<use xlink:href="#SVGID_37_"  overflow="visible"/>
				</clipPath>
				<polygon clip-path="url(#SVGID_38_)" fill="#191818" points="144.48,88.238 137.534,94.383 141.035,85.795 				"/>
			</g>
			<g>
				<defs>
					<path id="SVGID_39_" d="M120.019,37.591H53.797c0,0.089,0.002,0.177,0.002,0.271v71.335c0,0,2.74,27.855,32.887,36.313
						c29.145,8.177,33.1,17.746,33.333,18.373c0.006,0.021,0.01,0.033,0.01,0.033s3.198-9.95,33.344-18.406
						c30.146-8.457,32.886-36.313,32.886-36.313V37.9c0-0.014,0.003-0.027,0.003-0.039c0-0.094,0.002-0.182,0.002-0.271H120.019
						L120.019,37.591z"/>
				</defs>
				<clipPath id="SVGID_40_">
					<use xlink:href="#SVGID_39_"  overflow="visible"/>
				</clipPath>
				<polygon clip-path="url(#SVGID_40_)" fill="#191818" points="151.018,92.896 144.07,99.04 147.57,90.452 				"/>
			</g>
			<g>
				<defs>
					<path id="SVGID_41_" d="M120.019,37.591H53.797c0,0.089,0.002,0.177,0.002,0.271v71.335c0,0,2.74,27.855,32.887,36.313
						c29.145,8.177,33.1,17.746,33.333,18.373c0.006,0.021,0.01,0.033,0.01,0.033s3.198-9.95,33.344-18.406
						c30.146-8.457,32.886-36.313,32.886-36.313V37.9c0-0.014,0.003-0.027,0.003-0.039c0-0.094,0.002-0.182,0.002-0.271H120.019
						L120.019,37.591z"/>
				</defs>
				<clipPath id="SVGID_42_">
					<use xlink:href="#SVGID_41_"  overflow="visible"/>
				</clipPath>
				<path clip-path="url(#SVGID_42_)" fill="none" stroke="#191818" stroke-width="4.296" stroke-miterlimit="10" d="
					M82.545,108.646l0.161-5.137l1.02-15.3l0.372-5.574l0.52-7.803l0.173-2.601H108.2c0-5.201,5.202-7.804,5.202-7.804l2.288,1.716
					l1.873,1.405l0.833,0.624l3.901,2.926l26.824,18.854l0.693,0.485c0,0,0.578,0.23,1.565,0.62
					c0.003,0.001,0.007,0.002,0.011,0.005c0.053,0.021,0.108,0.043,0.164,0.064c0.024,0.009,0.049,0.02,0.073,0.029
					c0.054,0.02,0.104,0.041,0.16,0.063c0.015,0.005,0.026,0.012,0.041,0.018c0.062,0.022,0.12,0.048,0.183,0.07
					c0.021,0.01,0.043,0.019,0.063,0.025c0.062,0.024,0.12,0.047,0.183,0.072c0.01,0.004,0.021,0.008,0.032,0.012
					c0.099,0.039,0.196,0.078,0.3,0.118c0.057,0.021,0.112,0.044,0.169,0.065c0.056,0.021,0.111,0.043,0.166,0.065
					c0.035,0.013,0.068,0.027,0.104,0.041c0.062,0.024,0.123,0.048,0.186,0.072c0.032,0.013,0.064,0.024,0.098,0.039
					c0.057,0.021,0.115,0.044,0.172,0.065c0.046,0.02,0.09,0.035,0.137,0.054c0.057,0.021,0.113,0.045,0.172,0.066
					c0.035,0.014,0.07,0.028,0.105,0.042c0.066,0.026,0.135,0.052,0.203,0.079c0.047,0.02,0.097,0.038,0.145,0.056
					c0.047,0.02,0.092,0.036,0.139,0.056c0.084,0.031,0.17,0.064,0.256,0.1c0.021,0.008,0.039,0.015,0.059,0.022
					c0.089,0.033,0.179,0.068,0.27,0.104c0.028,0.011,0.057,0.022,0.084,0.033c0.067,0.025,0.139,0.053,0.207,0.08
					c0.067,0.025,0.137,0.053,0.204,0.079c1.188,0.462,2.501,0.967,3.871,1.486c0.003,0.001,0.005,0.003,0.009,0.003
					c0.137,0.055,0.276,0.106,0.415,0.158l0.003,0.001c0.131,0.05,0.264,0.102,0.396,0.151l0.063,0.022
					c0.125,0.048,0.25,0.096,0.375,0.143c0.012,0.004,0.021,0.009,0.032,0.013c0.138,0.051,0.272,0.104,0.41,0.154
					c0.002,0.001,0.004,0.002,0.006,0.002c0.138,0.052,0.272,0.103,0.41,0.155c0.015,0.005,0.024,0.01,0.038,0.014
					c0.126,0.048,0.253,0.095,0.38,0.144c0.021,0.009,0.043,0.017,0.063,0.023c0.123,0.046,0.246,0.092,0.369,0.138
					c0.021,0.009,0.043,0.018,0.064,0.024l0.359,0.134c0.026,0.01,0.053,0.021,0.08,0.03c0.118,0.044,0.238,0.089,0.356,0.133
					c0.024,0.009,0.051,0.018,0.075,0.028c0.113,0.042,0.229,0.084,0.343,0.126c0.033,0.013,0.067,0.024,0.103,0.038
					c0.109,0.041,0.221,0.082,0.33,0.122c0.033,0.012,0.065,0.022,0.098,0.034c0.111,0.041,0.223,0.082,0.332,0.122l0.104,0.039
					c0.109,0.04,0.218,0.079,0.324,0.119c0.035,0.013,0.069,0.025,0.104,0.038c0.107,0.039,0.215,0.078,0.321,0.117
					c0.036,0.013,0.072,0.024,0.109,0.04c0.103,0.037,0.204,0.074,0.307,0.109c0.041,0.017,0.082,0.03,0.123,0.047
					c0.101,0.035,0.201,0.07,0.302,0.106c0.039,0.015,0.079,0.03,0.12,0.044c0.101,0.037,0.203,0.073,0.304,0.11
					c0.039,0.013,0.078,0.025,0.117,0.041c0.092,0.034,0.186,0.066,0.276,0.1c0.05,0.019,0.099,0.034,0.146,0.052
					c0.094,0.033,0.186,0.065,0.276,0.1c0.044,0.015,0.088,0.031,0.131,0.046c0.104,0.037,0.207,0.073,0.31,0.109
					c0.031,0.012,0.063,0.021,0.094,0.032c0.098,0.034,0.193,0.068,0.291,0.104c0.039,0.014,0.08,0.027,0.12,0.042
					c0.085,0.029,0.165,0.058,0.249,0.087c0.051,0.018,0.103,0.036,0.152,0.053c0.086,0.03,0.17,0.062,0.256,0.089
					c0.043,0.017,0.088,0.031,0.133,0.047c0.08,0.027,0.16,0.056,0.24,0.082c0.051,0.019,0.102,0.035,0.15,0.054
					c0.075,0.023,0.148,0.051,0.225,0.075c0.051,0.019,0.104,0.034,0.153,0.054c0.077,0.024,0.152,0.051,0.228,0.077
					c0.051,0.016,0.1,0.031,0.146,0.049c0.123,0.041,0.243,0.082,0.364,0.122c0.237,0.079,0.469,0.166,0.69,0.26
					c0.004,0.001,0.008,0.003,0.013,0.004c0.22,0.092,0.433,0.191,0.639,0.296c0.007,0.003,0.015,0.006,0.021,0.01
					c0.203,0.104,0.399,0.214,0.59,0.328c0.009,0.005,0.02,0.011,0.027,0.018c0.188,0.112,0.369,0.231,0.545,0.355
					c0.011,0.008,0.021,0.017,0.033,0.023c0.172,0.122,0.34,0.251,0.5,0.382c0.012,0.01,0.023,0.019,0.036,0.029
					c0.159,0.131,0.313,0.267,0.464,0.404c0.012,0.013,0.023,0.022,0.034,0.033c0.147,0.14,0.291,0.283,0.429,0.429
					c0.012,0.014,0.021,0.023,0.032,0.034c0.138,0.148,0.271,0.3,0.397,0.452c0.01,0.011,0.02,0.022,0.027,0.033
					c0.129,0.155,0.252,0.313,0.369,0.473c0.008,0.01,0.016,0.021,0.022,0.03c0.118,0.163,0.233,0.328,0.344,0.495
					c0.005,0.007,0.011,0.014,0.015,0.021c0.111,0.17,0.219,0.343,0.32,0.518c0.002,0.004,0.005,0.008,0.008,0.012
					c1.156,1.974,1.618,4.133,1.891,5.764v9.458H82.543v-9.452H82.545z"/>
			</g>
			<g>
				<defs>
					<path id="SVGID_43_" d="M120.019,37.591H53.797c0,0.089,0.002,0.177,0.002,0.271v71.335c0,0,2.74,27.855,32.887,36.313
						c29.145,8.177,33.1,17.746,33.333,18.373c0.006,0.021,0.01,0.033,0.01,0.033s3.198-9.95,33.344-18.406
						c30.146-8.457,32.886-36.313,32.886-36.313V37.9c0-0.014,0.003-0.027,0.003-0.039c0-0.094,0.002-0.182,0.002-0.271H120.019
						L120.019,37.591z"/>
				</defs>
				<clipPath id="SVGID_44_">
					<use xlink:href="#SVGID_43_"  overflow="visible"/>
				</clipPath>
				<path clip-path="url(#SVGID_44_)" fill="#FFFFFF" d="M41.722,108.646l0.161-5.137l1.02-15.3l0.372-5.574l0.52-7.803l0.173-2.601
					h23.409c0-5.201,5.202-7.804,5.202-7.804l2.288,1.716l1.874,1.405l0.832,0.624l3.901,2.926l26.825,18.854l0.694,0.485
					c0,0,0.578,0.23,1.564,0.62c0.003,0.001,0.007,0.002,0.01,0.005c0.054,0.021,0.109,0.043,0.165,0.064
					c0.024,0.009,0.049,0.02,0.074,0.029c0.052,0.02,0.105,0.041,0.16,0.063c0.014,0.005,0.028,0.012,0.041,0.018
					c0.06,0.022,0.12,0.048,0.182,0.07c0.021,0.01,0.043,0.019,0.064,0.025c0.06,0.024,0.12,0.047,0.182,0.072
					c0.011,0.004,0.022,0.008,0.032,0.012c0.098,0.039,0.198,0.078,0.301,0.118c0.056,0.021,0.111,0.044,0.169,0.065
					c0.054,0.021,0.11,0.043,0.165,0.065c0.035,0.013,0.069,0.027,0.105,0.041c0.061,0.024,0.123,0.048,0.185,0.072
					c0.033,0.013,0.065,0.024,0.098,0.039c0.056,0.021,0.114,0.044,0.172,0.065c0.045,0.02,0.09,0.035,0.135,0.054
					c0.057,0.021,0.114,0.045,0.172,0.066c0.035,0.014,0.071,0.028,0.107,0.042c0.066,0.026,0.134,0.052,0.202,0.079
					c0.048,0.02,0.097,0.038,0.145,0.056c0.046,0.02,0.092,0.036,0.138,0.056c0.085,0.031,0.17,0.064,0.256,0.1
					c0.02,0.008,0.039,0.015,0.058,0.022c0.089,0.033,0.179,0.068,0.269,0.104c0.028,0.011,0.056,0.022,0.084,0.033
					c0.068,0.025,0.138,0.053,0.207,0.08c0.068,0.025,0.136,0.053,0.204,0.079c1.189,0.462,2.501,0.967,3.871,1.486
					c0.003,0.001,0.005,0.003,0.008,0.003c0.138,0.055,0.277,0.106,0.416,0.158c0,0,0.001,0.001,0.002,0.001
					c0.131,0.05,0.264,0.102,0.397,0.151c0.02,0.007,0.041,0.015,0.062,0.022c0.125,0.048,0.25,0.096,0.376,0.143l0.033,0.013
					c0.136,0.051,0.273,0.104,0.41,0.154c0.002,0.001,0.003,0.002,0.005,0.002c0.137,0.052,0.274,0.103,0.411,0.155
					c0.013,0.005,0.025,0.01,0.038,0.014c0.126,0.048,0.253,0.095,0.381,0.144c0.021,0.009,0.043,0.017,0.063,0.023
					c0.123,0.046,0.245,0.092,0.368,0.138c0.021,0.009,0.043,0.018,0.064,0.024c0.12,0.045,0.24,0.09,0.359,0.134
					c0.025,0.01,0.054,0.021,0.08,0.03c0.117,0.044,0.238,0.089,0.357,0.133c0.024,0.009,0.049,0.018,0.074,0.028
					c0.114,0.042,0.229,0.084,0.342,0.126l0.104,0.038c0.109,0.041,0.221,0.082,0.33,0.122c0.033,0.012,0.066,0.022,0.099,0.034
					c0.11,0.041,0.222,0.082,0.331,0.122l0.104,0.039c0.109,0.04,0.219,0.079,0.326,0.119c0.034,0.013,0.068,0.025,0.104,0.038
					c0.107,0.039,0.215,0.078,0.32,0.117c0.037,0.013,0.074,0.024,0.109,0.04c0.104,0.037,0.205,0.074,0.307,0.109
					c0.041,0.017,0.082,0.03,0.125,0.047c0.101,0.035,0.199,0.07,0.301,0.106c0.039,0.015,0.08,0.03,0.119,0.044
					c0.103,0.037,0.203,0.073,0.306,0.11c0.038,0.013,0.077,0.025,0.116,0.041c0.093,0.034,0.186,0.066,0.277,0.1
					c0.049,0.019,0.098,0.034,0.145,0.052c0.094,0.033,0.186,0.065,0.277,0.1c0.043,0.015,0.086,0.031,0.131,0.046
					c0.104,0.037,0.205,0.073,0.309,0.109c0.031,0.012,0.063,0.021,0.094,0.032c0.098,0.034,0.193,0.068,0.291,0.104
					c0.039,0.014,0.08,0.027,0.12,0.042c0.084,0.029,0.166,0.058,0.249,0.087c0.051,0.018,0.102,0.036,0.152,0.053
					c0.086,0.03,0.17,0.062,0.256,0.089c0.044,0.017,0.089,0.031,0.133,0.047c0.081,0.027,0.161,0.056,0.24,0.082
					c0.051,0.019,0.102,0.035,0.15,0.054c0.076,0.023,0.149,0.051,0.225,0.075c0.052,0.019,0.104,0.034,0.152,0.054
					c0.078,0.024,0.152,0.051,0.229,0.077c0.048,0.016,0.097,0.031,0.146,0.049c0.123,0.041,0.244,0.082,0.363,0.122
					c0.238,0.079,0.469,0.166,0.692,0.26c0.004,0.001,0.008,0.003,0.012,0.004c0.22,0.092,0.433,0.191,0.638,0.296
					c0.008,0.003,0.016,0.006,0.022,0.01c0.203,0.104,0.397,0.214,0.589,0.328c0.01,0.005,0.02,0.011,0.028,0.018
					c0.188,0.112,0.368,0.231,0.543,0.355c0.012,0.008,0.022,0.017,0.032,0.023c0.175,0.122,0.341,0.251,0.502,0.382
					c0.013,0.01,0.023,0.019,0.035,0.029c0.16,0.131,0.314,0.267,0.463,0.404c0.014,0.013,0.024,0.022,0.035,0.033
					c0.148,0.14,0.291,0.283,0.431,0.429c0.011,0.014,0.021,0.023,0.032,0.034c0.138,0.148,0.27,0.3,0.396,0.452
					c0.01,0.011,0.02,0.022,0.027,0.033c0.129,0.155,0.252,0.313,0.369,0.473c0.008,0.01,0.016,0.021,0.021,0.03
					c0.12,0.163,0.233,0.328,0.344,0.495c0.006,0.007,0.012,0.014,0.016,0.021c0.111,0.17,0.219,0.343,0.32,0.518
					c0.002,0.004,0.004,0.008,0.006,0.012c1.158,1.974,1.621,4.133,1.893,5.764v9.458H41.718v-9.452H41.722z"/>
			</g>
			<g>
				<defs>
					<path id="SVGID_45_" d="M120.019,37.591H53.797c0,0.089,0.002,0.177,0.002,0.271v71.335c0,0,2.74,27.855,32.887,36.313
						c29.145,8.177,33.1,17.746,33.333,18.373c0.006,0.021,0.01,0.033,0.01,0.033s3.198-9.95,33.344-18.406
						c30.146-8.457,32.886-36.313,32.886-36.313V37.9c0-0.014,0.003-0.027,0.003-0.039c0-0.094,0.002-0.182,0.002-0.271H120.019
						L120.019,37.591z"/>
				</defs>
				<clipPath id="SVGID_46_">
					<use xlink:href="#SVGID_45_"  overflow="visible"/>
				</clipPath>
				<path clip-path="url(#SVGID_46_)" fill="#F8D016" d="M111.151,104.269L67.742,73.337l4.507-7.193l11.639,9.148l27.282,18.479
					l0.747,0.507c0,0,2.847,1.103,6.744,2.561l0.007,0.032L111.151,104.269z"/>
			</g>
			<g>
				<defs>
					<path id="SVGID_47_" d="M120.019,37.591H53.797c0,0.089,0.002,0.177,0.002,0.271v71.335c0,0,2.74,27.855,32.887,36.313
						c29.145,8.177,33.1,17.746,33.333,18.373c0.006,0.021,0.01,0.033,0.01,0.033s3.198-9.95,33.344-18.406
						c30.146-8.457,32.886-36.313,32.886-36.313V37.9c0-0.014,0.003-0.027,0.003-0.039c0-0.094,0.002-0.182,0.002-0.271H120.019
						L120.019,37.591z"/>
				</defs>
				<clipPath id="SVGID_48_">
					<use xlink:href="#SVGID_47_"  overflow="visible"/>
				</clipPath>
				<path clip-path="url(#SVGID_48_)" fill="#F8D016" d="M109.015,91.521c0.563,0.227,13.159,5.253,20.786,7.795
					c3.854,1.284,5.803,4.472,6.789,7.368H97.911L109.015,91.521z"/>
			</g>
			<g>
				<defs>
					<path id="SVGID_49_" d="M120.019,37.591H53.797c0,0.089,0.002,0.177,0.002,0.271v71.335c0,0,2.74,27.855,32.887,36.313
						c29.145,8.177,33.1,17.746,33.333,18.373c0.006,0.021,0.01,0.033,0.01,0.033s3.198-9.95,33.344-18.406
						c30.146-8.457,32.886-36.313,32.886-36.313V37.9c0-0.014,0.003-0.027,0.003-0.039c0-0.094,0.002-0.182,0.002-0.271H120.019
						L120.019,37.591z"/>
				</defs>
				<clipPath id="SVGID_50_">
					<use xlink:href="#SVGID_49_"  overflow="visible"/>
				</clipPath>
				<polygon clip-path="url(#SVGID_50_)" fill="#191818" points="84.048,74.268 77.103,80.413 80.604,71.824 				"/>
			</g>
			<g>
				<defs>
					<path id="SVGID_51_" d="M120.019,37.591H53.797c0,0.089,0.002,0.177,0.002,0.271v71.335c0,0,2.74,27.855,32.887,36.313
						c29.145,8.177,33.1,17.746,33.333,18.373c0.006,0.021,0.01,0.033,0.01,0.033s3.198-9.95,33.344-18.406
						c30.146-8.457,32.886-36.313,32.886-36.313V37.9c0-0.014,0.003-0.027,0.003-0.039c0-0.094,0.002-0.182,0.002-0.271H120.019
						L120.019,37.591z"/>
				</defs>
				<clipPath id="SVGID_52_">
					<use xlink:href="#SVGID_51_"  overflow="visible"/>
				</clipPath>
				<polygon clip-path="url(#SVGID_52_)" fill="#191818" points="90.585,78.925 83.639,85.069 87.14,76.481 				"/>
			</g>
			<g>
				<defs>
					<path id="SVGID_53_" d="M120.019,37.591H53.797c0,0.089,0.002,0.177,0.002,0.271v71.335c0,0,2.74,27.855,32.887,36.313
						c29.145,8.177,33.1,17.746,33.333,18.373c0.006,0.021,0.01,0.033,0.01,0.033s3.198-9.95,33.344-18.406
						c30.146-8.457,32.886-36.313,32.886-36.313V37.9c0-0.014,0.003-0.027,0.003-0.039c0-0.094,0.002-0.182,0.002-0.271H120.019
						L120.019,37.591z"/>
				</defs>
				<clipPath id="SVGID_54_">
					<use xlink:href="#SVGID_53_"  overflow="visible"/>
				</clipPath>
				
					<line clip-path="url(#SVGID_54_)" fill="none" stroke="#191818" stroke-width="2.148" stroke-miterlimit="10" x1="136.59" y1="107.491" x2="41.722" y2="107.491"/>
			</g>
			<g>
				<defs>
					<path id="SVGID_55_" d="M120.019,37.591H53.797c0,0.089,0.002,0.177,0.002,0.271v71.335c0,0,2.74,27.855,32.887,36.313
						c29.145,8.177,33.1,17.746,33.333,18.373c0.006,0.021,0.01,0.033,0.01,0.033s3.198-9.95,33.344-18.406
						c30.146-8.457,32.886-36.313,32.886-36.313V37.9c0-0.014,0.003-0.027,0.003-0.039c0-0.094,0.002-0.182,0.002-0.271H120.019
						L120.019,37.591z"/>
				</defs>
				<clipPath id="SVGID_56_">
					<use xlink:href="#SVGID_55_"  overflow="visible"/>
				</clipPath>
				<polygon clip-path="url(#SVGID_56_)" fill="#191818" points="97.121,83.581 90.175,89.727 93.676,81.139 				"/>
			</g>
			<g>
				<defs>
					<path id="SVGID_57_" d="M120.019,37.591H53.797c0,0.089,0.002,0.177,0.002,0.271v71.335c0,0,2.74,27.855,32.887,36.313
						c29.145,8.177,33.1,17.746,33.333,18.373c0.006,0.021,0.01,0.033,0.01,0.033s3.198-9.95,33.344-18.406
						c30.146-8.457,32.886-36.313,32.886-36.313V37.9c0-0.014,0.003-0.027,0.003-0.039c0-0.094,0.002-0.182,0.002-0.271H120.019
						L120.019,37.591z"/>
				</defs>
				<clipPath id="SVGID_58_">
					<use xlink:href="#SVGID_57_"  overflow="visible"/>
				</clipPath>
				<polygon clip-path="url(#SVGID_58_)" fill="#191818" points="103.657,88.238 96.711,94.383 100.212,85.795 				"/>
			</g>
			<g>
				<defs>
					<path id="SVGID_59_" d="M120.019,37.591H53.797c0,0.089,0.002,0.177,0.002,0.271v71.335c0,0,2.74,27.855,32.887,36.313
						c29.145,8.177,33.1,17.746,33.333,18.373c0.006,0.021,0.01,0.033,0.01,0.033s3.198-9.95,33.344-18.406
						c30.146-8.457,32.886-36.313,32.886-36.313V37.9c0-0.014,0.003-0.027,0.003-0.039c0-0.094,0.002-0.182,0.002-0.271H120.019
						L120.019,37.591z"/>
				</defs>
				<clipPath id="SVGID_60_">
					<use xlink:href="#SVGID_59_"  overflow="visible"/>
				</clipPath>
				<polygon clip-path="url(#SVGID_60_)" fill="#191818" points="110.194,92.896 103.248,99.04 106.749,90.452 				"/>
			</g>
			<g>
				<defs>
					<path id="SVGID_61_" d="M120.019,37.591H53.797c0,0.089,0.002,0.177,0.002,0.271v71.335c0,0,2.74,27.855,32.887,36.313
						c29.145,8.177,33.1,17.746,33.333,18.373c0.006,0.021,0.01,0.033,0.01,0.033s3.198-9.95,33.344-18.406
						c30.146-8.457,32.886-36.313,32.886-36.313V37.9c0-0.014,0.003-0.027,0.003-0.039c0-0.094,0.002-0.182,0.002-0.271H120.019
						L120.019,37.591z"/>
				</defs>
				<clipPath id="SVGID_62_">
					<use xlink:href="#SVGID_61_"  overflow="visible"/>
				</clipPath>
				<path clip-path="url(#SVGID_62_)" fill="none" stroke="#191818" stroke-width="4.296" stroke-miterlimit="10" d="
					M41.722,108.646l0.161-5.137l1.02-15.3l0.372-5.574l0.52-7.803l0.173-2.601h23.409c0-5.201,5.202-7.804,5.202-7.804l2.288,1.716
					l1.874,1.405l0.832,0.624l3.901,2.926l26.825,18.854l0.694,0.485c0,0,0.578,0.23,1.564,0.62c0.003,0.001,0.007,0.002,0.01,0.005
					c0.054,0.021,0.109,0.043,0.165,0.064c0.024,0.009,0.049,0.02,0.074,0.029c0.052,0.02,0.105,0.041,0.16,0.063
					c0.014,0.005,0.028,0.012,0.041,0.018c0.06,0.022,0.12,0.048,0.182,0.07c0.021,0.01,0.043,0.019,0.064,0.025
					c0.06,0.024,0.12,0.047,0.182,0.072c0.011,0.004,0.022,0.008,0.032,0.012c0.098,0.039,0.198,0.078,0.301,0.118
					c0.056,0.021,0.111,0.044,0.169,0.065c0.054,0.021,0.11,0.043,0.165,0.065c0.035,0.013,0.069,0.027,0.105,0.041
					c0.061,0.024,0.123,0.048,0.185,0.072c0.033,0.013,0.065,0.024,0.098,0.039c0.056,0.021,0.114,0.044,0.172,0.065
					c0.045,0.02,0.09,0.035,0.135,0.054c0.057,0.021,0.114,0.045,0.172,0.066c0.035,0.014,0.071,0.028,0.107,0.042
					c0.066,0.026,0.134,0.052,0.202,0.079c0.048,0.02,0.097,0.038,0.145,0.056c0.046,0.02,0.092,0.036,0.138,0.056
					c0.085,0.031,0.17,0.064,0.256,0.1c0.02,0.008,0.039,0.015,0.058,0.022c0.089,0.033,0.179,0.068,0.269,0.104
					c0.028,0.011,0.056,0.022,0.084,0.033c0.068,0.025,0.138,0.053,0.207,0.08c0.068,0.025,0.136,0.053,0.204,0.079
					c1.189,0.462,2.501,0.967,3.871,1.486c0.003,0.001,0.005,0.003,0.008,0.003c0.138,0.055,0.277,0.106,0.416,0.158
					c0,0,0.001,0.001,0.002,0.001c0.131,0.05,0.264,0.102,0.397,0.151c0.02,0.007,0.041,0.015,0.062,0.022
					c0.125,0.048,0.25,0.096,0.376,0.143l0.033,0.013c0.136,0.051,0.273,0.104,0.41,0.154c0.002,0.001,0.003,0.002,0.005,0.002
					c0.137,0.052,0.274,0.103,0.411,0.155c0.013,0.005,0.025,0.01,0.038,0.014c0.126,0.048,0.253,0.095,0.381,0.144
					c0.021,0.009,0.043,0.017,0.063,0.023c0.123,0.046,0.245,0.092,0.368,0.138c0.021,0.009,0.043,0.018,0.064,0.024
					c0.12,0.045,0.24,0.09,0.359,0.134c0.025,0.01,0.054,0.021,0.08,0.03c0.117,0.044,0.238,0.089,0.357,0.133
					c0.024,0.009,0.049,0.018,0.074,0.028c0.114,0.042,0.229,0.084,0.342,0.126l0.104,0.038c0.109,0.041,0.221,0.082,0.33,0.122
					c0.033,0.012,0.066,0.022,0.099,0.034c0.11,0.041,0.222,0.082,0.331,0.122l0.104,0.039c0.109,0.04,0.219,0.079,0.326,0.119
					c0.034,0.013,0.068,0.025,0.104,0.038c0.107,0.039,0.215,0.078,0.32,0.117c0.037,0.013,0.074,0.024,0.109,0.04
					c0.104,0.037,0.205,0.074,0.307,0.109c0.041,0.017,0.082,0.03,0.125,0.047c0.101,0.035,0.199,0.07,0.301,0.106
					c0.039,0.015,0.08,0.03,0.119,0.044c0.103,0.037,0.203,0.073,0.306,0.11c0.038,0.013,0.077,0.025,0.116,0.041
					c0.093,0.034,0.186,0.066,0.277,0.1c0.049,0.019,0.098,0.034,0.145,0.052c0.094,0.033,0.186,0.065,0.277,0.1
					c0.043,0.015,0.086,0.031,0.131,0.046c0.104,0.037,0.205,0.073,0.309,0.109c0.031,0.012,0.063,0.021,0.094,0.032
					c0.098,0.034,0.193,0.068,0.291,0.104c0.039,0.014,0.08,0.027,0.12,0.042c0.084,0.029,0.166,0.058,0.249,0.087
					c0.051,0.018,0.102,0.036,0.152,0.053c0.086,0.03,0.17,0.062,0.256,0.089c0.044,0.017,0.089,0.031,0.133,0.047
					c0.081,0.027,0.161,0.056,0.24,0.082c0.051,0.019,0.102,0.035,0.15,0.054c0.076,0.023,0.149,0.051,0.225,0.075
					c0.052,0.019,0.104,0.034,0.152,0.054c0.078,0.024,0.152,0.051,0.229,0.077c0.048,0.016,0.097,0.031,0.146,0.049
					c0.123,0.041,0.244,0.082,0.363,0.122c0.238,0.079,0.469,0.166,0.692,0.26c0.004,0.001,0.008,0.003,0.012,0.004
					c0.22,0.092,0.433,0.191,0.638,0.296c0.008,0.003,0.016,0.006,0.022,0.01c0.203,0.104,0.397,0.214,0.589,0.328
					c0.01,0.005,0.02,0.011,0.028,0.018c0.188,0.112,0.368,0.231,0.543,0.355c0.012,0.008,0.022,0.017,0.032,0.023
					c0.175,0.122,0.341,0.251,0.502,0.382c0.013,0.01,0.023,0.019,0.035,0.029c0.16,0.131,0.314,0.267,0.463,0.404
					c0.014,0.013,0.024,0.022,0.035,0.033c0.148,0.14,0.291,0.283,0.431,0.429c0.011,0.014,0.021,0.023,0.032,0.034
					c0.138,0.148,0.27,0.3,0.396,0.452c0.01,0.011,0.02,0.022,0.027,0.033c0.129,0.155,0.252,0.313,0.369,0.473
					c0.008,0.01,0.016,0.021,0.021,0.03c0.12,0.163,0.233,0.328,0.344,0.495c0.006,0.007,0.012,0.014,0.016,0.021
					c0.111,0.17,0.219,0.343,0.32,0.518c0.002,0.004,0.004,0.008,0.006,0.012c1.158,1.974,1.621,4.133,1.893,5.764v9.458H41.718
					v-9.452H41.722z"/>
			</g>
			<g>
				<defs>
					<path id="SVGID_63_" d="M120.019,37.591H53.797c0,0.089,0.002,0.177,0.002,0.271v71.335c0,0,2.74,27.855,32.887,36.313
						c29.145,8.177,33.1,17.746,33.333,18.373c0.006,0.021,0.01,0.033,0.01,0.033s3.198-9.95,33.344-18.406
						c30.146-8.457,32.886-36.313,32.886-36.313V37.9c0-0.014,0.003-0.027,0.003-0.039c0-0.094,0.002-0.182,0.002-0.271H120.019
						L120.019,37.591z"/>
				</defs>
				<clipPath id="SVGID_64_">
					<use xlink:href="#SVGID_63_"  overflow="visible"/>
				</clipPath>
				<polygon clip-path="url(#SVGID_64_)" fill="#F8D016" points="69.183,84.355 82.482,91.134 78.928,93.908 85.188,100.462 
					71.889,93.684 75.443,90.908 				"/>
			</g>
		</g>
		<path clip-path="url(#SVGID_6_)" fill="#191818" d="M181.523,12.61l3.393,5.225c-3.477,4.13-6.324,10.43-6.393,19.499v0.06v0.03
			l-0.002,0.024l-0.002,0.172v0.04v0.039v71.391c-0.394,2.728-4.037,22.62-27.06,29.079c-5.879,1.649-21.528,6.528-31.394,14.107
			c-5.685-4.469-15.251-9.595-31.342-14.107c-22.9-6.425-26.624-26.116-27.06-29.098V37.66l-0.002-0.271l-0.001-0.064
			c-0.067-9.064-2.915-15.362-6.391-19.49l3.392-5.225h28.033h23.781h9.198h33.814H181.523 M186.066,4.244H153.49h-33.814h-9.198
			H86.697H54.121L44.087,19.698c0,0,9.1,2.806,9.21,17.688c0.001,0.091,0.003,0.182,0.003,0.272v71.939
			c0,0,2.764,28.096,33.166,36.624c29.393,8.245,33.383,17.896,33.615,18.528c0.008,0.022,0.012,0.033,0.012,0.033
			s3.226-10.034,33.627-18.563c30.403-8.528,33.167-36.624,33.167-36.624v-71.9c0-0.014,0.002-0.025,0.002-0.039
			c0-0.092,0.002-0.183,0.002-0.272c0.109-14.884,9.211-17.688,9.211-17.688L186.066,4.244z"/>
	</g>
</g>
</svg>
