<?xml version="1.0" encoding="utf-8"?>
<!-- Generator: Adobe Illustrator 16.0.0, SVG Export Plug-In . SVG Version: 6.00 Build 0)  -->
<!DOCTYPE svg PUBLIC "-//W3C//DTD SVG 1.1//EN" "http://www.w3.org/Graphics/SVG/1.1/DTD/svg11.dtd">
<svg version="1.1" id="Layer_1" xmlns="http://www.w3.org/2000/svg" xmlns:xlink="http://www.w3.org/1999/xlink" x="0px" y="0px"
	 width="612px" height="792px" viewBox="0 0 612 792" enable-background="new 0 0 612 792" xml:space="preserve">
<rect x="263.446" y="426.861" fill="#010101" width="85" height="43.667"/>
<polygon fill="#010101" points="336.746,456.025 362.584,447.046 349.511,437.266 298.002,461.528 "/>
<polygon fill="#010101" points="310.003,462.528 253.308,447.046 266.381,437.266 314.503,459.028 "/>
<polygon fill="#FFFFFF" points="360.26,478.863 307.967,493.046 255.673,477.358 255.673,449.837 307.967,459.525 360.26,449.837 
	"/>
<polygon fill="none" stroke="#010101" stroke-width="4.515" stroke-miterlimit="10" points="360.26,478.863 307.967,491.646 
	255.673,478.863 255.673,449.837 307.967,458.62 360.26,449.837 "/>
<path fill="#FECF0A" d="M308.285,332.388h-66.784c0.001,0.091,0.003,0.181,0.003,0.272v71.94c0,0,2.764,28.095,33.166,36.624
	c29.393,8.245,33.383,17.896,33.615,18.529c0.008,0.021,0.012,0.032,0.012,0.032s3.226-10.034,33.627-18.562
	c30.402-8.529,33.166-36.624,33.166-36.624v-71.901c0-0.013,0.002-0.025,0.002-0.039c0-0.092,0.002-0.182,0.002-0.272H308.285z"/>
<g opacity="0.5">
	<g>
		<defs>
			<rect id="SVGID_1_" x="308.29" y="332.39" width="66.8" height="127.4"/>
		</defs>
		<clipPath id="SVGID_2_">
			<use xlink:href="#SVGID_1_"  overflow="visible"/>
		</clipPath>
		<path clip-path="url(#SVGID_2_)" fill="#CDA72C" d="M341.924,441.224c30.402-8.528,33.166-36.624,33.166-36.624v-71.9
			c0.002-0.014,0.002-0.026,0.002-0.039c0-0.092,0.002-0.182,0.002-0.273h-66.809v127.366c0.008,0.022,0.012,0.034,0.012,0.034
			S311.522,449.753,341.924,441.224"/>
	</g>
</g>
<path fill="#191818" d="M369.728,307.61l3.394,5.225c-2.296,2.726-4.317,6.396-5.445,11.187H248.92
	c-1.128-4.79-3.149-8.461-5.444-11.187l3.393-5.225h28.033h23.781h9.198h33.815H369.728 M374.271,299.244h-32.576H307.88h-9.198
	h-23.781h-32.576l-10.034,15.454c0,0,9.1,2.806,9.211,17.689h133.592c0.111-14.884,9.211-17.689,9.211-17.689L374.271,299.244z"/>
<g opacity="0.4">
	<g>
		<defs>
			<rect id="SVGID_3_" x="232.29" y="299.24" width="152.01" height="160.55"/>
		</defs>
		<clipPath id="SVGID_4_">
			<use xlink:href="#SVGID_3_"  overflow="visible"/>
		</clipPath>
		<path clip-path="url(#SVGID_4_)" fill="#FFFFFF" d="M366.301,313.041c-2.643,4.357-4.931,10.608-5.003,19.237l-0.001,0.031
			l-0.003,0.28v0.055v0.055v70.951c-0.224,1.223-1.069,5.082-3.448,9.367c-4.105,7.396-10.717,12.417-19.648,14.923
			c-13.943,3.912-23.451,8.354-29.929,12.659c-6.466-4.301-15.954-8.755-29.872-12.659c-8.596-2.412-15.05-7.16-19.183-14.113
			c-2.709-4.559-3.653-8.787-3.913-10.226V332.66l-0.003-0.376c-0.064-8.624-2.355-14.881-5.003-19.243h24.606h23.781h9.198h33.815
			H366.301 M374.271,299.244h-32.576H307.88h-9.198h-23.781h-32.576l-10.034,15.454c0,0,9.1,2.806,9.21,17.689
			c0.001,0.091,0.003,0.181,0.003,0.272v71.94c0,0,2.764,28.095,33.166,36.624c29.393,8.245,33.383,17.896,33.616,18.528
			c0.007,0.022,0.011,0.033,0.011,0.033s3.225-10.034,33.627-18.562c30.403-8.529,33.167-36.624,33.167-36.624v-71.901
			c0-0.013,0.001-0.025,0.001-0.039c0-0.092,0.002-0.182,0.002-0.272c0.111-14.884,9.211-17.689,9.211-17.689L374.271,299.244z"/>
	</g>
</g>
<path fill="#1A1A19" d="M384.305,314.698l-10.034-15.454h-32.575H307.88h-9.198h-23.781h-32.576l-10.034,15.454
	c0,0,9.1,2.807,9.211,17.688v7.526h133.593v-7.526C375.205,317.505,384.305,314.698,384.305,314.698"/>
<path fill="#FFFFFF" d="M263.969,325.496l2.409-2.529c1.023,1.325,2.619,2.198,4.304,2.198c2.108,0,3.072-1.114,3.072-2.68
	c0-1.866-1.295-2.528-3.252-2.528c-0.662,0-1.566,0-1.866,0.061v-3.644c0.3,0.03,1.294,0.03,1.776,0.03
	c1.836,0,3.07-0.753,3.07-2.318c0-1.686-1.204-2.498-2.95-2.498c-1.565,0-2.98,0.722-4.004,2.017l-2.288-2.349
	c1.445-2.017,3.733-3.251,6.623-3.251c3.974,0,6.593,1.896,6.593,5.449c0,2.288-1.716,4.154-3.793,4.575
	c2.047,0.302,4.095,2.107,4.095,4.818c0,3.491-2.68,5.9-6.895,5.9C267.672,328.748,265.234,327.332,263.969,325.496"/>
<path fill="#FFFFFF" d="M286.906,328.387v-20.081h6.473c5.539,0,8.73,4.155,8.73,10.056s-3.161,10.025-8.73,10.025H286.906z
	 M297.985,318.361c0-3.975-1.566-6.503-4.606-6.503h-2.438v12.976h2.438C296.359,324.834,297.985,322.185,297.985,318.361"/>
<path fill="#FFFFFF" d="M314.812,328.387l-0.933-3.553h-6.172l-0.934,3.553h-4.365l5.961-20.081h4.877l5.961,20.081H314.812z
	 M310.808,312.551l-2.288,8.73h4.576L310.808,312.551z"/>
<polygon fill="#FFFFFF" points="323.811,328.387 323.811,320.107 317.609,308.306 322.064,308.306 325.828,316.374 329.59,308.306 
	334.047,308.306 327.845,320.107 327.845,328.387 "/>
<path fill="#FFFFFF" d="M334.015,326.158l1.987-3.101c1.113,1.234,2.859,2.138,4.847,2.138c1.776,0,2.74-0.994,2.74-2.229
	c0-3.521-8.972-2.317-8.972-9.121c0-3.162,2.469-5.871,6.623-5.871c2.438,0,4.545,0.783,6.081,2.228l-1.927,3.011
	c-1.204-1.144-2.739-1.686-4.305-1.686c-1.445,0-2.349,0.813-2.349,2.047c0,3.131,8.941,2.288,8.941,9.063
	c0,3.521-2.408,6.111-6.804,6.111C337.839,328.748,335.61,327.754,334.015,326.158"/>
<polygon fill="#1A1A19" points="292.22,480.976 292.22,468.629 289.695,471.253 287.771,469.229 292.67,464.305 295.594,464.305 
	295.594,480.976 "/>
<path fill="#1A1A19" d="M297.87,472.652c0-4.299,1.774-8.598,5.898-8.598c4.15,0,5.899,4.299,5.899,8.598
	c0,4.274-1.724,8.623-5.899,8.623C299.644,481.275,297.87,476.927,297.87,472.652 M306.268,472.652c0-3.224-0.55-5.623-2.5-5.623
	c-1.924,0-2.474,2.399-2.474,5.623c0,3.199,0.55,5.648,2.474,5.648C305.718,478.301,306.268,475.852,306.268,472.652"/>
<polygon fill="#1A1A19" points="320.343,480.976 316.494,474.453 315.318,476.302 315.318,480.976 311.97,480.976 311.97,464.305 
	315.318,464.305 315.318,471.878 320.018,464.305 323.917,464.305 318.593,472.152 324.292,480.976 "/>
<g>
	<defs>
		<path id="SVGID_5_" d="M308.222,332.591h-66.22c0,0.089,0.002,0.177,0.002,0.27v71.335c0,0,2.741,27.856,32.887,36.313
			c29.143,8.177,33.1,17.746,33.331,18.373c0.009,0.021,0.014,0.033,0.014,0.033s3.196-9.95,33.343-18.406
			c30.146-8.457,32.887-36.313,32.887-36.313v-71.296c0-0.013,0.002-0.027,0.002-0.039c0-0.093,0.002-0.181,0.002-0.27H308.222z"/>
	</defs>
	<clipPath id="SVGID_6_">
		<use xlink:href="#SVGID_5_"  overflow="visible"/>
	</clipPath>
	<g opacity="0.5" clip-path="url(#SVGID_6_)">
		<g>
			<defs>
				<rect id="SVGID_7_" x="240.68" y="399.87" width="130.76" height="27.61"/>
			</defs>
			<clipPath id="SVGID_8_">
				<use xlink:href="#SVGID_7_"  overflow="visible"/>
			</clipPath>
			<path clip-path="url(#SVGID_8_)" fill="#CDA72C" d="M357.44,399.87c0,0-9.745,8.382-7.763,7.194c0,0-1.287,7.67-7.591,7.401
				c-6.302-0.267-8.125,9.171-7.881,11.126c0,0,3.949-4.619,10.466-2.967c6.516,1.654,10.057-2.413,10.936-3.702
				c0,0-2.33,7.688-6.85,8.269c0,0,11.194,2.166,15.59-5.346c4.395-7.514,6.612-16.36,7.084-17.155
				C371.902,403.896,357.44,399.87,357.44,399.87"/>
			<path clip-path="url(#SVGID_8_)" fill="#CDA72C" d="M344.617,421.278c0,0-7.975,1.536-6.607,1.02c0,0-4.304-2.372-6.645,0.854
				c-2.341,3.226-7.73,0.425-8.602-0.463c0,0,3.837-0.144,5.576-4.02c1.737-3.875,5.142-4.033,6.123-3.961
				c0,0-4.72-1.863-6.78,0.146c0,0,3.319-6.393,8.765-5.62c5.444,0.771,10.695,3.145,11.273,3.224
				C348.299,412.537,344.617,421.278,344.617,421.278"/>
			<path clip-path="url(#SVGID_8_)" fill="#CDA72C" d="M325.105,399.87c0,0-9.746,8.382-7.763,7.194c0,0-1.288,7.67-7.591,7.401
				c-6.303-0.267-8.125,9.171-7.882,11.126c0,0,3.95-4.619,10.467-2.967c6.516,1.654,10.057-2.413,10.935-3.702
				c0,0-2.33,7.688-6.849,8.269c0,0,11.194,2.166,15.589-5.346c4.395-7.514,6.613-16.36,7.084-17.155
				C339.566,403.896,325.105,399.87,325.105,399.87"/>
			<path clip-path="url(#SVGID_8_)" fill="#CDA72C" d="M312.282,421.278c0,0-7.975,1.536-6.609,1.02c0,0-4.302-2.372-6.643,0.854
				c-2.341,3.226-7.73,0.425-8.602-0.463c0,0,3.837-0.144,5.576-4.02c1.738-3.875,5.142-4.033,6.124-3.961
				c0,0-4.72-1.863-6.781,0.146c0,0,3.32-6.393,8.765-5.62c5.444,0.771,10.694,3.145,11.273,3.224
				C315.964,412.537,312.282,421.278,312.282,421.278"/>
			<path clip-path="url(#SVGID_8_)" fill="#CDA72C" d="M299.734,399.87c0,0-9.745,8.382-7.763,7.194c0,0-1.288,7.67-7.591,7.401
				c-6.302-0.267-8.125,9.171-7.881,11.126c0,0,3.949-4.619,10.466-2.967c6.516,1.654,10.057-2.413,10.936-3.702
				c0,0-2.33,7.688-6.85,8.269c0,0,11.194,2.166,15.589-5.346c4.395-7.514,6.613-16.36,7.083-17.155
				C314.196,403.896,299.734,399.87,299.734,399.87"/>
			<path clip-path="url(#SVGID_8_)" fill="#CDA72C" d="M286.911,421.278c0,0-7.975,1.536-6.608,1.02c0,0-4.303-2.372-6.644,0.854
				c-2.341,3.226-7.73,0.425-8.602-0.463c0,0,3.837-0.144,5.576-4.02c1.738-3.875,5.142-4.033,6.124-3.961
				c0,0-4.72-1.863-6.781,0.146c0,0,3.319-6.393,8.765-5.62c5.444,0.771,10.695,3.145,11.274,3.224
				C290.593,412.537,286.911,421.278,286.911,421.278"/>
			<path clip-path="url(#SVGID_8_)" fill="#CDA72C" d="M275.358,399.87c0,0-9.745,8.382-7.762,7.194c0,0-1.288,7.67-7.591,7.401
				c-6.303-0.267-8.125,9.171-7.882,11.126c0,0,3.95-4.619,10.467-2.967c6.516,1.654,10.057-2.413,10.935-3.702
				c0,0-2.33,7.688-6.849,8.269c0,0,11.194,2.166,15.589-5.346c4.395-7.514,6.612-16.36,7.084-17.155
				C289.82,403.896,275.358,399.87,275.358,399.87"/>
			<path clip-path="url(#SVGID_8_)" fill="#CDA72C" d="M262.536,421.278c0,0-7.975,1.536-6.609,1.02c0,0-4.302-2.372-6.644,0.854
				c-2.341,3.226-7.729,0.425-8.602-0.463c0,0,3.837-0.144,5.576-4.02c1.738-3.875,5.142-4.033,6.124-3.961
				c0,0-4.72-1.863-6.781,0.146c0,0,3.32-6.393,8.764-5.62c5.445,0.771,10.696,3.145,11.275,3.224
				C266.218,412.537,262.536,421.278,262.536,421.278"/>
		</g>
	</g>
	<path clip-path="url(#SVGID_6_)" fill="#FFFFFF" d="M270.749,403.646l0.161-5.136l1.02-15.3l0.372-5.574l0.521-7.803l0.173-2.601
		h23.409c0-5.201,5.202-7.803,5.202-7.803l2.288,1.716l1.874,1.405l0.832,0.624l3.901,2.926l26.825,18.854l0.693,0.485
		c0,0,0.578,0.231,1.565,0.621c0.003,0.001,0.007,0.002,0.01,0.004c0.054,0.021,0.109,0.043,0.165,0.065
		c0.024,0.009,0.049,0.019,0.073,0.029c0.053,0.02,0.106,0.041,0.161,0.063c0.014,0.005,0.027,0.011,0.041,0.017
		c0.06,0.023,0.119,0.048,0.182,0.071c0.021,0.009,0.043,0.018,0.064,0.025c0.06,0.024,0.119,0.047,0.182,0.072
		c0.01,0.004,0.021,0.008,0.032,0.012c0.098,0.039,0.198,0.078,0.3,0.118c0.057,0.021,0.112,0.044,0.17,0.066
		c0.054,0.021,0.11,0.043,0.165,0.065c0.035,0.013,0.069,0.027,0.104,0.041c0.062,0.024,0.123,0.048,0.186,0.072
		c0.033,0.013,0.064,0.025,0.098,0.039c0.057,0.021,0.114,0.044,0.172,0.066c0.045,0.019,0.09,0.035,0.136,0.054
		c0.057,0.021,0.114,0.044,0.172,0.066c0.035,0.014,0.071,0.028,0.105,0.042c0.067,0.026,0.136,0.052,0.203,0.079
		c0.048,0.02,0.097,0.038,0.146,0.056c0.046,0.019,0.091,0.036,0.138,0.055c0.084,0.032,0.17,0.065,0.256,0.1
		c0.021,0.008,0.039,0.015,0.058,0.022c0.09,0.034,0.18,0.069,0.27,0.104c0.028,0.011,0.056,0.022,0.084,0.033
		c0.068,0.026,0.138,0.053,0.207,0.08c0.068,0.026,0.136,0.053,0.204,0.079c1.188,0.462,2.501,0.967,3.871,1.487
		c0.003,0.001,0.005,0.003,0.008,0.003c0.138,0.054,0.277,0.106,0.416,0.158c0,0,0.001,0.001,0.002,0.001
		c0.131,0.05,0.264,0.101,0.397,0.151l0.062,0.023c0.125,0.047,0.25,0.095,0.375,0.142c0.012,0.004,0.022,0.009,0.034,0.013
		c0.136,0.051,0.273,0.104,0.409,0.154c0.002,0.001,0.004,0.002,0.006,0.002c0.137,0.052,0.274,0.103,0.411,0.155
		c0.013,0.005,0.024,0.01,0.037,0.014c0.127,0.048,0.254,0.095,0.38,0.144c0.021,0.008,0.044,0.016,0.064,0.023
		c0.123,0.046,0.246,0.092,0.369,0.138c0.021,0.009,0.043,0.017,0.064,0.024l0.36,0.134c0.026,0.01,0.053,0.021,0.079,0.03
		c0.119,0.044,0.239,0.089,0.358,0.133c0.025,0.009,0.05,0.018,0.074,0.028c0.114,0.042,0.229,0.084,0.343,0.126
		c0.034,0.013,0.067,0.025,0.102,0.038c0.11,0.041,0.222,0.082,0.331,0.122c0.033,0.012,0.065,0.023,0.098,0.035
		c0.111,0.041,0.222,0.082,0.332,0.122l0.104,0.039c0.109,0.04,0.217,0.079,0.325,0.119c0.035,0.013,0.068,0.025,0.103,0.038
		c0.108,0.039,0.216,0.078,0.322,0.117c0.036,0.013,0.073,0.025,0.109,0.04c0.103,0.037,0.204,0.074,0.307,0.11
		c0.041,0.016,0.082,0.03,0.123,0.046c0.101,0.036,0.201,0.071,0.301,0.107c0.04,0.015,0.08,0.03,0.121,0.044
		c0.101,0.037,0.203,0.073,0.304,0.11c0.039,0.013,0.077,0.026,0.116,0.041c0.093,0.034,0.187,0.067,0.278,0.1
		c0.049,0.018,0.097,0.034,0.145,0.052c0.094,0.033,0.186,0.065,0.277,0.099c0.043,0.015,0.087,0.031,0.13,0.046
		c0.104,0.037,0.207,0.073,0.31,0.11c0.03,0.011,0.063,0.021,0.094,0.032c0.097,0.034,0.193,0.068,0.29,0.103
		c0.04,0.014,0.081,0.028,0.12,0.042c0.085,0.03,0.166,0.058,0.25,0.087c0.051,0.018,0.102,0.036,0.151,0.053
		c0.086,0.03,0.171,0.061,0.257,0.089c0.043,0.016,0.088,0.031,0.133,0.047c0.08,0.027,0.16,0.055,0.24,0.082
		c0.051,0.018,0.101,0.035,0.15,0.053c0.075,0.024,0.15,0.051,0.225,0.076c0.051,0.018,0.103,0.034,0.153,0.053
		c0.077,0.025,0.152,0.051,0.228,0.077c0.05,0.016,0.099,0.032,0.146,0.049c0.123,0.041,0.244,0.082,0.364,0.122
		c0.237,0.079,0.469,0.166,0.691,0.26c0.005,0.001,0.009,0.003,0.013,0.004c0.219,0.092,0.432,0.191,0.638,0.296
		c0.007,0.003,0.015,0.006,0.022,0.01c0.202,0.104,0.398,0.214,0.588,0.328c0.011,0.005,0.02,0.011,0.029,0.017
		c0.188,0.113,0.367,0.232,0.543,0.356c0.012,0.008,0.022,0.016,0.033,0.023c0.173,0.122,0.34,0.251,0.501,0.382
		c0.013,0.01,0.024,0.019,0.036,0.029c0.16,0.131,0.314,0.267,0.463,0.405c0.012,0.012,0.024,0.022,0.035,0.033
		c0.148,0.14,0.291,0.283,0.429,0.429c0.011,0.013,0.022,0.023,0.033,0.034c0.137,0.148,0.269,0.3,0.397,0.452
		c0.009,0.011,0.019,0.022,0.027,0.033c0.128,0.155,0.251,0.313,0.369,0.473c0.007,0.01,0.016,0.021,0.022,0.03
		c0.12,0.163,0.233,0.328,0.344,0.495c0.005,0.007,0.01,0.014,0.015,0.021c0.111,0.17,0.219,0.343,0.32,0.517
		c0.002,0.004,0.005,0.008,0.007,0.012c1.157,1.974,1.619,4.133,1.892,5.764v9.458h-95.526V403.646z"/>
	<path clip-path="url(#SVGID_6_)" fill="#F8D012" d="M340.179,399.269l-43.409-30.932l4.507-7.193l11.639,9.148l27.282,18.479
		l0.747,0.507c0,0,2.847,1.103,6.744,2.561l0.007,0.032L340.179,399.269z"/>
	<path clip-path="url(#SVGID_6_)" fill="#F8D012" d="M338.041,386.521c0.564,0.227,13.159,5.253,20.786,7.795
		c3.854,1.285,5.803,4.472,6.79,7.369h-38.679L338.041,386.521z"/>
	<polygon clip-path="url(#SVGID_6_)" fill="#191818" points="313.075,369.268 306.129,375.413 309.63,366.824 	"/>
	<polygon clip-path="url(#SVGID_6_)" fill="#191818" points="319.611,373.925 312.666,380.069 316.166,371.481 	"/>
	
		<line clip-path="url(#SVGID_6_)" fill="none" stroke="#191818" stroke-width="2.148" stroke-miterlimit="10" x1="365.617" y1="402.491" x2="270.749" y2="402.491"/>
	<polygon clip-path="url(#SVGID_6_)" fill="#191818" points="326.148,378.581 319.202,384.727 322.703,376.139 	"/>
	<polygon clip-path="url(#SVGID_6_)" fill="#191818" points="332.685,383.238 325.738,389.383 329.239,380.795 	"/>
	<polygon clip-path="url(#SVGID_6_)" fill="#191818" points="339.221,387.896 332.275,394.04 335.775,385.452 	"/>
	<path clip-path="url(#SVGID_6_)" fill="none" stroke="#191818" stroke-width="4.296" stroke-miterlimit="10" d="M270.749,403.646
		l0.161-5.136l1.02-15.3l0.372-5.574l0.521-7.803l0.173-2.601h23.409c0-5.201,5.202-7.803,5.202-7.803l2.288,1.716l1.874,1.405
		l0.832,0.624l3.901,2.926l26.825,18.854l0.693,0.485c0,0,0.578,0.231,1.565,0.621c0.003,0.001,0.007,0.002,0.01,0.004
		c0.054,0.021,0.109,0.043,0.165,0.065c0.024,0.009,0.049,0.019,0.073,0.029c0.053,0.02,0.106,0.041,0.161,0.063
		c0.014,0.005,0.027,0.011,0.041,0.017c0.06,0.023,0.119,0.048,0.182,0.071c0.021,0.009,0.043,0.018,0.064,0.025
		c0.06,0.024,0.119,0.047,0.182,0.072c0.01,0.004,0.021,0.008,0.032,0.012c0.098,0.039,0.198,0.078,0.3,0.118
		c0.057,0.021,0.112,0.044,0.17,0.066c0.054,0.021,0.11,0.043,0.165,0.065c0.035,0.013,0.069,0.027,0.104,0.041
		c0.062,0.024,0.123,0.048,0.186,0.072c0.033,0.013,0.064,0.025,0.098,0.039c0.057,0.021,0.114,0.044,0.172,0.066
		c0.045,0.019,0.09,0.035,0.136,0.054c0.057,0.021,0.114,0.044,0.172,0.066c0.035,0.014,0.071,0.028,0.105,0.042
		c0.067,0.026,0.136,0.052,0.203,0.079c0.048,0.02,0.097,0.038,0.146,0.056c0.046,0.019,0.091,0.036,0.138,0.055
		c0.084,0.032,0.17,0.065,0.256,0.1c0.021,0.008,0.039,0.015,0.058,0.022c0.09,0.034,0.18,0.069,0.27,0.104
		c0.028,0.011,0.056,0.022,0.084,0.033c0.068,0.026,0.138,0.053,0.207,0.08c0.068,0.026,0.136,0.053,0.204,0.079
		c1.188,0.462,2.501,0.967,3.871,1.487c0.003,0.001,0.005,0.003,0.008,0.003c0.138,0.054,0.277,0.106,0.416,0.158
		c0,0,0.001,0.001,0.002,0.001c0.131,0.05,0.264,0.101,0.397,0.151l0.062,0.023c0.125,0.047,0.25,0.095,0.375,0.142
		c0.012,0.004,0.022,0.009,0.034,0.013c0.136,0.051,0.273,0.104,0.409,0.154c0.002,0.001,0.004,0.002,0.006,0.002
		c0.137,0.052,0.274,0.103,0.411,0.155c0.013,0.005,0.024,0.01,0.037,0.014c0.127,0.048,0.254,0.095,0.38,0.144
		c0.021,0.008,0.044,0.016,0.064,0.023c0.123,0.046,0.246,0.092,0.369,0.138c0.021,0.009,0.043,0.017,0.064,0.024l0.36,0.134
		c0.026,0.01,0.053,0.021,0.079,0.03c0.119,0.044,0.239,0.089,0.358,0.133c0.025,0.009,0.05,0.018,0.074,0.028
		c0.114,0.042,0.229,0.084,0.343,0.126c0.034,0.013,0.067,0.025,0.102,0.038c0.11,0.041,0.222,0.082,0.331,0.122
		c0.033,0.012,0.065,0.023,0.098,0.035c0.111,0.041,0.222,0.082,0.332,0.122l0.104,0.039c0.109,0.04,0.217,0.079,0.325,0.119
		c0.035,0.013,0.068,0.025,0.103,0.038c0.108,0.039,0.216,0.078,0.322,0.117c0.036,0.013,0.073,0.025,0.109,0.04
		c0.103,0.037,0.204,0.074,0.307,0.11c0.041,0.016,0.082,0.03,0.123,0.046c0.101,0.036,0.201,0.071,0.301,0.107
		c0.04,0.015,0.08,0.03,0.121,0.044c0.101,0.037,0.203,0.073,0.304,0.11c0.039,0.013,0.077,0.026,0.116,0.041
		c0.093,0.034,0.187,0.067,0.278,0.1c0.049,0.018,0.097,0.034,0.145,0.052c0.094,0.033,0.186,0.065,0.277,0.099
		c0.043,0.015,0.087,0.031,0.13,0.046c0.104,0.037,0.207,0.073,0.31,0.11c0.03,0.011,0.063,0.021,0.094,0.032
		c0.097,0.034,0.193,0.068,0.29,0.103c0.04,0.014,0.081,0.028,0.12,0.042c0.085,0.03,0.166,0.058,0.25,0.087
		c0.051,0.018,0.102,0.036,0.151,0.053c0.086,0.03,0.171,0.061,0.257,0.089c0.043,0.016,0.088,0.031,0.133,0.047
		c0.08,0.027,0.16,0.055,0.24,0.082c0.051,0.018,0.101,0.035,0.15,0.053c0.075,0.024,0.15,0.051,0.225,0.076
		c0.051,0.018,0.103,0.034,0.153,0.053c0.077,0.025,0.152,0.051,0.228,0.077c0.05,0.016,0.099,0.032,0.146,0.049
		c0.123,0.041,0.244,0.082,0.364,0.122c0.237,0.079,0.469,0.166,0.691,0.26c0.005,0.001,0.009,0.003,0.013,0.004
		c0.219,0.092,0.432,0.191,0.638,0.296c0.007,0.003,0.015,0.006,0.022,0.01c0.202,0.104,0.398,0.214,0.588,0.328
		c0.011,0.005,0.02,0.011,0.029,0.017c0.188,0.113,0.367,0.232,0.543,0.356c0.012,0.008,0.022,0.016,0.033,0.023
		c0.173,0.122,0.34,0.251,0.501,0.382c0.013,0.01,0.024,0.019,0.036,0.029c0.16,0.131,0.314,0.267,0.463,0.405
		c0.012,0.012,0.024,0.022,0.035,0.033c0.148,0.14,0.291,0.283,0.429,0.429c0.011,0.013,0.022,0.023,0.033,0.034
		c0.137,0.148,0.269,0.3,0.397,0.452c0.009,0.011,0.019,0.022,0.027,0.033c0.128,0.155,0.251,0.313,0.369,0.473
		c0.007,0.01,0.016,0.021,0.022,0.03c0.12,0.163,0.233,0.328,0.344,0.495c0.005,0.007,0.01,0.014,0.015,0.021
		c0.111,0.17,0.219,0.343,0.32,0.517c0.002,0.004,0.005,0.008,0.007,0.012c1.157,1.974,1.619,4.133,1.892,5.764v9.458h-95.526
		V403.646z"/>
	<path clip-path="url(#SVGID_6_)" fill="#FFFFFF" d="M229.927,403.646l0.161-5.136l1.02-15.3l0.372-5.574l0.52-7.803l0.173-2.601
		h23.409c0-5.201,5.202-7.803,5.202-7.803l2.288,1.716l1.873,1.405l0.833,0.624l3.9,2.926l26.826,18.854l0.693,0.485
		c0,0,0.579,0.231,1.566,0.621c0.003,0.001,0.007,0.002,0.01,0.004c0.054,0.021,0.109,0.043,0.165,0.065
		c0.024,0.009,0.049,0.019,0.073,0.029c0.053,0.02,0.105,0.041,0.161,0.063c0.014,0.005,0.027,0.011,0.041,0.017
		c0.06,0.023,0.12,0.048,0.182,0.071c0.021,0.009,0.043,0.018,0.064,0.025c0.06,0.024,0.12,0.047,0.182,0.072
		c0.01,0.004,0.021,0.008,0.032,0.012c0.098,0.039,0.198,0.078,0.3,0.118c0.056,0.021,0.112,0.044,0.169,0.066
		c0.055,0.021,0.111,0.043,0.166,0.065c0.035,0.013,0.069,0.027,0.104,0.041c0.061,0.024,0.123,0.048,0.186,0.072
		c0.033,0.013,0.064,0.025,0.098,0.039c0.056,0.021,0.114,0.044,0.172,0.066c0.045,0.019,0.089,0.035,0.135,0.054
		c0.056,0.021,0.114,0.044,0.172,0.066c0.035,0.014,0.071,0.028,0.106,0.042c0.067,0.026,0.135,0.052,0.203,0.079
		c0.048,0.02,0.097,0.038,0.145,0.056c0.046,0.019,0.091,0.036,0.138,0.055c0.084,0.032,0.17,0.065,0.256,0.1
		c0.02,0.008,0.039,0.015,0.058,0.022c0.089,0.034,0.179,0.069,0.27,0.104c0.028,0.011,0.056,0.022,0.084,0.033
		c0.068,0.026,0.138,0.053,0.207,0.08c0.068,0.026,0.136,0.053,0.204,0.079c1.188,0.462,2.501,0.967,3.871,1.487
		c0.003,0.001,0.005,0.003,0.008,0.003c0.138,0.054,0.276,0.106,0.416,0.158l0.001,0.001c0.132,0.05,0.265,0.101,0.397,0.151
		c0.021,0.007,0.041,0.015,0.063,0.023c0.125,0.047,0.25,0.095,0.375,0.142c0.012,0.004,0.022,0.009,0.034,0.013
		c0.136,0.051,0.272,0.104,0.408,0.154c0.002,0.001,0.004,0.002,0.006,0.002c0.138,0.052,0.274,0.103,0.412,0.155
		c0.012,0.005,0.024,0.01,0.037,0.014c0.127,0.048,0.254,0.095,0.379,0.144c0.022,0.008,0.045,0.016,0.065,0.023
		c0.123,0.046,0.246,0.092,0.369,0.138c0.021,0.009,0.043,0.017,0.063,0.024c0.121,0.045,0.24,0.09,0.361,0.134
		c0.026,0.01,0.052,0.021,0.079,0.03c0.119,0.044,0.239,0.089,0.358,0.133c0.024,0.009,0.05,0.018,0.074,0.028
		c0.114,0.042,0.229,0.084,0.342,0.126l0.103,0.038c0.11,0.041,0.221,0.082,0.331,0.122c0.033,0.012,0.064,0.023,0.098,0.035
		c0.11,0.041,0.221,0.082,0.331,0.122c0.035,0.014,0.07,0.026,0.105,0.039c0.108,0.04,0.217,0.079,0.325,0.119
		c0.033,0.013,0.068,0.025,0.103,0.038c0.108,0.039,0.215,0.078,0.322,0.117c0.036,0.013,0.073,0.025,0.108,0.04
		c0.104,0.037,0.205,0.074,0.308,0.11c0.041,0.016,0.082,0.03,0.123,0.046c0.101,0.036,0.2,0.071,0.301,0.107
		c0.04,0.015,0.08,0.03,0.12,0.044c0.102,0.037,0.204,0.073,0.305,0.11c0.039,0.013,0.077,0.026,0.115,0.041
		c0.094,0.034,0.188,0.067,0.279,0.1c0.049,0.018,0.097,0.034,0.145,0.052c0.093,0.033,0.186,0.065,0.276,0.099
		c0.044,0.015,0.088,0.031,0.131,0.046c0.104,0.037,0.206,0.073,0.309,0.11c0.031,0.011,0.063,0.021,0.093,0.032
		c0.099,0.034,0.194,0.068,0.291,0.103c0.041,0.014,0.082,0.028,0.121,0.042c0.084,0.03,0.166,0.058,0.249,0.087
		c0.05,0.018,0.103,0.036,0.152,0.053c0.086,0.03,0.171,0.061,0.256,0.089c0.044,0.016,0.089,0.031,0.133,0.047
		c0.081,0.027,0.16,0.055,0.241,0.082c0.05,0.018,0.1,0.035,0.15,0.053c0.074,0.024,0.149,0.051,0.225,0.076
		c0.051,0.018,0.102,0.034,0.153,0.053c0.077,0.025,0.151,0.051,0.228,0.077c0.049,0.016,0.098,0.032,0.146,0.049
		c0.122,0.041,0.244,0.082,0.363,0.122c0.238,0.079,0.469,0.166,0.692,0.26c0.004,0.001,0.008,0.003,0.013,0.004
		c0.219,0.092,0.432,0.191,0.638,0.296c0.007,0.003,0.015,0.006,0.021,0.01c0.203,0.104,0.399,0.214,0.589,0.328
		c0.01,0.005,0.02,0.011,0.028,0.017c0.188,0.113,0.368,0.232,0.544,0.356c0.011,0.008,0.022,0.016,0.033,0.023
		c0.173,0.122,0.34,0.251,0.501,0.382c0.012,0.01,0.024,0.019,0.036,0.029c0.16,0.131,0.313,0.267,0.463,0.405
		c0.012,0.012,0.023,0.022,0.035,0.033c0.147,0.14,0.291,0.283,0.429,0.429c0.01,0.013,0.022,0.023,0.032,0.034
		c0.138,0.148,0.27,0.3,0.397,0.452c0.009,0.011,0.02,0.022,0.028,0.033c0.128,0.155,0.251,0.313,0.369,0.473
		c0.007,0.01,0.015,0.021,0.021,0.03c0.12,0.163,0.234,0.328,0.345,0.495c0.005,0.007,0.01,0.014,0.014,0.021
		c0.112,0.17,0.219,0.343,0.321,0.517c0.002,0.004,0.005,0.008,0.007,0.012c1.157,1.974,1.619,4.133,1.891,5.764v9.458h-95.525
		V403.646z"/>
	<path clip-path="url(#SVGID_6_)" fill="#F8D012" d="M299.356,399.269l-43.409-30.932l4.507-7.193l11.639,9.148l27.282,18.479
		l0.747,0.507c0,0,2.847,1.103,6.744,2.561l0.007,0.032L299.356,399.269z"/>
	<path clip-path="url(#SVGID_6_)" fill="#F8D012" d="M297.219,386.521c0.564,0.227,13.159,5.253,20.786,7.795
		c3.854,1.285,5.803,4.472,6.789,7.369h-38.678L297.219,386.521z"/>
	<polygon clip-path="url(#SVGID_6_)" fill="#191818" points="272.253,369.268 265.307,375.413 268.808,366.824 	"/>
	<polygon clip-path="url(#SVGID_6_)" fill="#191818" points="278.789,373.925 271.843,380.069 275.344,371.481 	"/>
	
		<line clip-path="url(#SVGID_6_)" fill="none" stroke="#191818" stroke-width="2.148" stroke-miterlimit="10" x1="324.794" y1="402.491" x2="229.926" y2="402.491"/>
	<polygon clip-path="url(#SVGID_6_)" fill="#191818" points="285.325,378.581 278.379,384.727 281.88,376.139 	"/>
	<polygon clip-path="url(#SVGID_6_)" fill="#191818" points="291.862,383.238 284.916,389.383 288.417,380.795 	"/>
	<polygon clip-path="url(#SVGID_6_)" fill="#191818" points="298.398,387.896 291.452,394.04 294.953,385.452 	"/>
	<path clip-path="url(#SVGID_6_)" fill="none" stroke="#191818" stroke-width="4.296" stroke-miterlimit="10" d="M229.927,403.646
		l0.161-5.136l1.02-15.3l0.372-5.574l0.52-7.803l0.173-2.601h23.409c0-5.201,5.202-7.803,5.202-7.803l2.288,1.716l1.873,1.405
		l0.833,0.624l3.9,2.926l26.826,18.854l0.693,0.485c0,0,0.579,0.231,1.566,0.621c0.003,0.001,0.007,0.002,0.01,0.004
		c0.054,0.021,0.109,0.043,0.165,0.065c0.024,0.009,0.049,0.019,0.073,0.029c0.053,0.02,0.105,0.041,0.161,0.063
		c0.014,0.005,0.027,0.011,0.041,0.017c0.06,0.023,0.12,0.048,0.182,0.071c0.021,0.009,0.043,0.018,0.064,0.025
		c0.06,0.024,0.12,0.047,0.182,0.072c0.01,0.004,0.021,0.008,0.032,0.012c0.098,0.039,0.198,0.078,0.3,0.118
		c0.056,0.021,0.112,0.044,0.169,0.066c0.055,0.021,0.111,0.043,0.166,0.065c0.035,0.013,0.069,0.027,0.104,0.041
		c0.061,0.024,0.123,0.048,0.186,0.072c0.033,0.013,0.064,0.025,0.098,0.039c0.056,0.021,0.114,0.044,0.172,0.066
		c0.045,0.019,0.089,0.035,0.135,0.054c0.056,0.021,0.114,0.044,0.172,0.066c0.035,0.014,0.071,0.028,0.106,0.042
		c0.067,0.026,0.135,0.052,0.203,0.079c0.048,0.02,0.097,0.038,0.145,0.056c0.046,0.019,0.091,0.036,0.138,0.055
		c0.084,0.032,0.17,0.065,0.256,0.1c0.02,0.008,0.039,0.015,0.058,0.022c0.089,0.034,0.179,0.069,0.27,0.104
		c0.028,0.011,0.056,0.022,0.084,0.033c0.068,0.026,0.138,0.053,0.207,0.08c0.068,0.026,0.136,0.053,0.204,0.079
		c1.188,0.462,2.501,0.967,3.871,1.487c0.003,0.001,0.005,0.003,0.008,0.003c0.138,0.054,0.276,0.106,0.416,0.158l0.001,0.001
		c0.132,0.05,0.265,0.101,0.397,0.151c0.021,0.007,0.041,0.015,0.063,0.023c0.125,0.047,0.25,0.095,0.375,0.142
		c0.012,0.004,0.022,0.009,0.034,0.013c0.136,0.051,0.272,0.104,0.408,0.154c0.002,0.001,0.004,0.002,0.006,0.002
		c0.138,0.052,0.274,0.103,0.412,0.155c0.012,0.005,0.024,0.01,0.037,0.014c0.127,0.048,0.254,0.095,0.379,0.144
		c0.022,0.008,0.045,0.016,0.065,0.023c0.123,0.046,0.246,0.092,0.369,0.138c0.021,0.009,0.043,0.017,0.063,0.024
		c0.121,0.045,0.24,0.09,0.361,0.134c0.026,0.01,0.052,0.021,0.079,0.03c0.119,0.044,0.239,0.089,0.358,0.133
		c0.024,0.009,0.05,0.018,0.074,0.028c0.114,0.042,0.229,0.084,0.342,0.126l0.103,0.038c0.11,0.041,0.221,0.082,0.331,0.122
		c0.033,0.012,0.064,0.023,0.098,0.035c0.11,0.041,0.221,0.082,0.331,0.122c0.035,0.014,0.07,0.026,0.105,0.039
		c0.108,0.04,0.217,0.079,0.325,0.119c0.033,0.013,0.068,0.025,0.103,0.038c0.108,0.039,0.215,0.078,0.322,0.117
		c0.036,0.013,0.073,0.025,0.108,0.04c0.104,0.037,0.205,0.074,0.308,0.11c0.041,0.016,0.082,0.03,0.123,0.046
		c0.101,0.036,0.2,0.071,0.301,0.107c0.04,0.015,0.08,0.03,0.12,0.044c0.102,0.037,0.204,0.073,0.305,0.11
		c0.039,0.013,0.077,0.026,0.115,0.041c0.094,0.034,0.188,0.067,0.279,0.1c0.049,0.018,0.097,0.034,0.145,0.052
		c0.093,0.033,0.186,0.065,0.276,0.099c0.044,0.015,0.088,0.031,0.131,0.046c0.104,0.037,0.206,0.073,0.309,0.11
		c0.031,0.011,0.063,0.021,0.093,0.032c0.099,0.034,0.194,0.068,0.291,0.103c0.041,0.014,0.082,0.028,0.121,0.042
		c0.084,0.03,0.166,0.058,0.249,0.087c0.05,0.018,0.103,0.036,0.152,0.053c0.086,0.03,0.171,0.061,0.256,0.089
		c0.044,0.016,0.089,0.031,0.133,0.047c0.081,0.027,0.16,0.055,0.241,0.082c0.05,0.018,0.1,0.035,0.15,0.053
		c0.074,0.024,0.149,0.051,0.225,0.076c0.051,0.018,0.102,0.034,0.153,0.053c0.077,0.025,0.151,0.051,0.228,0.077
		c0.049,0.016,0.098,0.032,0.146,0.049c0.122,0.041,0.244,0.082,0.363,0.122c0.238,0.079,0.469,0.166,0.692,0.26
		c0.004,0.001,0.008,0.003,0.013,0.004c0.219,0.092,0.432,0.191,0.638,0.296c0.007,0.003,0.015,0.006,0.021,0.01
		c0.203,0.104,0.399,0.214,0.589,0.328c0.01,0.005,0.02,0.011,0.028,0.017c0.188,0.113,0.368,0.232,0.544,0.356
		c0.011,0.008,0.022,0.016,0.033,0.023c0.173,0.122,0.34,0.251,0.501,0.382c0.012,0.01,0.024,0.019,0.036,0.029
		c0.16,0.131,0.313,0.267,0.463,0.405c0.012,0.012,0.023,0.022,0.035,0.033c0.147,0.14,0.291,0.283,0.429,0.429
		c0.01,0.013,0.022,0.023,0.032,0.034c0.138,0.148,0.27,0.3,0.397,0.452c0.009,0.011,0.02,0.022,0.028,0.033
		c0.128,0.155,0.251,0.313,0.369,0.473c0.007,0.01,0.015,0.021,0.021,0.03c0.12,0.163,0.234,0.328,0.345,0.495
		c0.005,0.007,0.01,0.014,0.014,0.021c0.112,0.17,0.219,0.343,0.321,0.517c0.002,0.004,0.005,0.008,0.007,0.012
		c1.157,1.974,1.619,4.133,1.891,5.764v9.458h-95.525V403.646z"/>
	<polygon clip-path="url(#SVGID_6_)" fill="#F8D012" points="257.388,379.355 270.687,386.134 267.132,388.908 273.393,395.462 
		260.093,388.684 263.647,385.908 	"/>
</g>
<path fill="#191818" d="M369.728,307.61l3.394,5.225c-3.477,4.13-6.325,10.43-6.393,19.499l-0.001,0.06v0.037l-0.001,0.024
	l-0.002,0.165v0.04v0.039v71.391c-0.393,2.727-4.038,22.62-27.06,29.079c-5.879,1.649-21.529,6.528-31.394,14.107
	c-5.685-4.468-15.25-9.593-31.342-14.107c-22.9-6.425-26.624-26.116-27.06-29.098V332.66l-0.002-0.267l-0.001-0.068
	c-0.067-9.064-2.915-15.362-6.392-19.49l3.393-5.225h28.033h23.781h9.198h33.815H369.728 M374.271,299.244h-32.576H307.88h-9.198
	h-23.781h-32.576l-10.034,15.454c0,0,9.1,2.806,9.211,17.689c0,0.091,0.002,0.181,0.002,0.272v71.94c0,0,2.764,28.095,33.166,36.624
	c29.393,8.245,33.383,17.896,33.615,18.528c0.008,0.022,0.012,0.033,0.012,0.033s3.225-10.034,33.627-18.562
	c30.403-8.529,33.167-36.624,33.167-36.624v-71.901c0-0.013,0.001-0.025,0.001-0.039c0-0.092,0.002-0.182,0.002-0.272
	c0.111-14.884,9.211-17.689,9.211-17.689L374.271,299.244z"/>
</svg>
