<?xml version="1.0" encoding="utf-8"?>
<!-- Generator: Adobe Illustrator 16.0.0, SVG Export Plug-In . SVG Version: 6.00 Build 0)  -->
<!DOCTYPE svg PUBLIC "-//W3C//DTD SVG 1.1//EN" "http://www.w3.org/Graphics/SVG/1.1/DTD/svg11.dtd">
<svg version="1.1" id="Layer_1" xmlns="http://www.w3.org/2000/svg" xmlns:xlink="http://www.w3.org/1999/xlink" x="0px" y="0px"
	 width="240px" height="200px" viewBox="0 0 240 200" enable-background="new 0 0 240 200" xml:space="preserve">
<path fill="#020202" d="M212.785,106.309c0.146,1.75-0.152,3.623,0.188,5.47c0.328,0.772,0.593,1.554,0.873,2.349
	c0.818,2.085,1.733,3.99,3.311,4.865c1.284-2.557,2.463-5.285,2.743-8.496c-0.084-2.1-0.509-4.063-1.249-5.928
	c-1.15-2.94-3.063-5.579-5.613-7.852c-0.082-0.08-0.144-0.109-0.187-0.171l-0.414-0.012c0.093,0.271,0.165,0.577,0.247,0.886
	C213.36,100.306,213.065,103.098,212.785,106.309"/>
<path fill="#020202" d="M212.984,124.089c-1.817-3.577-5.514-6.852-6.381-10.245l-0.531-0.223c-1.336,3.336-1.192,7.326-0.168,10.95
	c1.107,4.704,3.424,8.369,4.508,12.994c0.193,0.891,0.353,1.774,0.458,2.741c6.956-5.049,13.37-10.808,15.183-19.896l-12.192,6.13
	C213.695,125.692,213.367,124.854,212.984,124.089"/>
<path fill="#020202" d="M193.381,165.246c-0.916-0.018-1.783-0.026-2.638,0.015c3.211-4.57,2.291-10.164,4.058-15.119l-0.017-0.219
	c-5.329,2.008-8.124,6.7-10.731,11.657c-1.861,3.592-3.683,7.273-6.339,9.993c1.109,0.08,2.153,0.229,3.234,0.389
	c1.122,0.163,2.274,0.386,3.435,0.691c2.307,0.136,4.581,0.237,6.733,0.167c4.034-0.171,7.794-0.854,11.036-2.605
	c1.502-0.798,2.9-1.85,4.131-3.161c-0.949-0.153-1.992-0.342-3.028-0.523C199.991,165.975,196.557,165.404,193.381,165.246"/>
<path fill="#020202" d="M206.381,149.673c-1.494-5.036-4.273-10.122-3.865-15.641l-0.142-0.22L202,133.978
	c-0.045,0.036-0.098,0.108-0.102,0.146c-0.291,0.501-0.602,0.786-1.137,1.3c-3.805,6.707-3.229,14.78-1.273,21.92
	c0.318,1.176,0.652,2.295,1.062,3.425c3.423-2.676,7.646-3.357,11.443-5.306c0.341-0.207,0.676-0.37,1.028-0.582
	c3.659-2.641,5.887-7.007,6.843-11.183c-2.373,0.757-4.701,1.368-6.877,2.186C210.643,146.728,208.38,147.87,206.381,149.673"/>
<path fill="#020202" d="M27.581,106.438c-0.24,1.74-0.043,3.627-0.482,5.45c-0.369,0.755-0.674,1.521-0.997,2.3
	c-0.932,2.036-1.947,3.891-3.567,4.681c-1.146-2.622-2.175-5.41-2.282-8.632c0.197-2.093,0.727-4.029,1.567-5.854
	c1.306-2.873,3.357-5.406,6.027-7.536c0.086-0.074,0.149-0.103,0.195-0.161l0.415,0.013c-0.107,0.267-0.196,0.565-0.295,0.871
	C27.331,100.414,27.475,103.217,27.581,106.438"/>
<path fill="#020202" d="M27.306,124.089c1.817-3.577,5.512-6.852,6.379-10.245l0.532-0.223c1.337,3.336,1.192,7.326,0.168,10.95
	c-1.108,4.704-3.423,8.369-4.507,12.994c-0.194,0.891-0.353,1.774-0.458,2.741c-6.957-5.049-13.37-10.808-15.183-19.896l12.194,6.13
	C26.594,125.692,26.923,124.854,27.306,124.089"/>
<path fill="#020202" d="M46.908,165.246c0.916-0.018,1.783-0.026,2.638,0.015c-3.211-4.57-2.29-10.164-4.058-15.119l0.017-0.219
	c5.329,2.008,8.124,6.7,10.731,11.657c1.862,3.592,3.683,7.273,6.339,9.993c-1.109,0.08-2.153,0.229-3.234,0.389
	c-1.122,0.163-2.274,0.386-3.435,0.691c-2.306,0.136-4.581,0.237-6.732,0.167c-4.035-0.171-7.795-0.854-11.037-2.605
	c-1.501-0.798-2.901-1.85-4.131-3.161c0.949-0.153,1.992-0.342,3.028-0.523C40.299,165.975,43.732,165.404,46.908,165.246"/>
<path fill="#020202" d="M33.908,149.673c1.494-5.036,4.274-10.122,3.864-15.641l0.143-0.22l0.374,0.164
	c0.045,0.036,0.097,0.108,0.102,0.146c0.292,0.501,0.601,0.786,1.136,1.3c3.805,6.707,3.23,14.78,1.275,21.92
	c-0.32,1.176-0.653,2.295-1.062,3.425c-3.423-2.676-7.644-3.357-11.443-5.306c-0.341-0.207-0.676-0.37-1.029-0.582
	c-3.66-2.641-5.886-7.007-6.842-11.183c2.373,0.757,4.701,1.368,6.876,2.186C29.647,146.728,31.909,147.87,33.908,149.673"/>
<rect x="75.292" y="131.861" fill="#020202" width="85" height="43.667"/>
<polygon fill="#020202" points="148.594,161.025 174.43,152.046 161.357,142.266 109.849,166.528 "/>
<polygon fill="#020202" points="121.85,167.528 65.154,152.046 78.228,142.266 126.35,164.028 "/>
<polygon fill="#FFFFFF" points="172.105,183.863 119.813,198.046 67.521,182.358 67.521,154.837 119.813,164.525 172.105,154.837 
	"/>
<polygon fill="none" stroke="#020202" stroke-width="4.515" stroke-miterlimit="10" points="172.105,183.863 119.813,196.646 
	67.521,183.863 67.521,154.837 119.813,163.62 172.105,154.837 "/>
<path fill="#FDD00F" d="M120.132,37.388H53.348c0.001,0.091,0.003,0.182,0.003,0.272V109.6c0,0,2.764,28.096,33.166,36.624
	c29.393,8.245,33.382,17.896,33.615,18.529c0.008,0.021,0.012,0.032,0.012,0.032s3.225-10.034,33.627-18.563
	c30.401-8.528,33.166-36.624,33.166-36.624v-71.9c0-0.014,0.002-0.025,0.002-0.039c0-0.092,0.002-0.183,0.002-0.272L120.132,37.388
	L120.132,37.388z"/>
<g opacity="0.5">
	<g>
		<g>
			<defs>
				<rect id="SVGID_1_" x="120.13" y="37.39" width="66.81" height="127.4"/>
			</defs>
			<clipPath id="SVGID_2_">
				<use xlink:href="#SVGID_1_"  overflow="visible"/>
			</clipPath>
			<path clip-path="url(#SVGID_2_)" fill="#CDA72C" d="M153.771,146.224c30.401-8.527,33.164-36.624,33.164-36.624V37.7
				c0.002-0.015,0.004-0.026,0.004-0.039c0-0.092,0.002-0.183,0.002-0.273h-66.811v127.366c0.008,0.022,0.012,0.034,0.012,0.034
				S123.369,154.753,153.771,146.224"/>
		</g>
	</g>
</g>
<path fill="#191818" d="M181.574,12.61l3.394,5.225c-2.296,2.726-4.317,6.396-5.444,11.188H60.767
	c-1.128-4.79-3.149-8.462-5.444-11.188l3.393-5.225h28.033h23.781h9.198h33.814H181.574 M186.117,4.244h-32.576h-33.814h-9.198
	H86.748H54.172L44.138,19.698c0,0,9.1,2.806,9.21,17.688h133.591c0.111-14.884,9.211-17.688,9.211-17.688L186.117,4.244z"/>
<g opacity="0.4">
	<g>
		<g>
			<defs>
				<rect id="SVGID_3_" x="44.14" y="4.24" width="152.01" height="160.55"/>
			</defs>
			<clipPath id="SVGID_4_">
				<use xlink:href="#SVGID_3_"  overflow="visible"/>
			</clipPath>
			<path clip-path="url(#SVGID_4_)" fill="#FFFFFF" d="M178.146,18.041c-2.643,4.357-4.931,10.608-5.002,19.237l-0.002,0.03
				l-0.002,0.28v0.055v0.056v70.951c-0.224,1.223-1.07,5.082-3.449,9.366c-4.104,7.396-10.717,12.417-19.646,14.924
				c-13.943,3.911-23.452,8.354-29.93,12.658c-6.466-4.301-15.954-8.755-29.872-12.658c-8.596-2.412-15.05-7.16-19.183-14.113
				c-2.709-4.56-3.653-8.787-3.913-10.227V37.66l-0.003-0.375c-0.064-8.625-2.355-14.882-5.003-19.244h24.606h23.781h9.198h33.814
				H178.146 M186.117,4.244h-32.576h-33.814h-9.198H86.748H54.172L44.138,19.698c0,0,9.1,2.806,9.21,17.688
				c0.001,0.091,0.003,0.182,0.003,0.272v71.939c0,0,2.764,28.096,33.166,36.624c29.393,8.245,33.383,17.896,33.616,18.528
				c0.007,0.022,0.011,0.033,0.011,0.033s3.226-10.034,33.627-18.563c30.402-8.528,33.166-36.624,33.166-36.624v-71.9
				c0-0.014,0.002-0.025,0.002-0.039c0-0.092,0.002-0.183,0.002-0.272c0.11-14.884,9.211-17.688,9.211-17.688L186.117,4.244z"/>
		</g>
	</g>
</g>
<path fill="#1A1A19" d="M196.15,19.698L186.117,4.244h-32.576h-33.814h-9.198H86.748H54.172L44.138,19.698
	c0,0,9.1,2.807,9.211,17.688v7.526h133.592v-7.526C187.052,22.505,196.15,19.698,196.15,19.698"/>
<path fill="#FFFFFF" d="M66.274,33.387v-3.252c7.346-7.135,8.881-8.729,8.881-11.02c0-1.534-1.174-2.527-2.679-2.527
	c-1.777,0-3.192,0.813-4.275,2.258l-2.409-2.528c1.626-2.168,4.004-3.313,6.744-3.313c3.884,0,6.714,2.349,6.714,6.081
	c0,3.041-2.048,5.63-7.015,10.748h7.104v3.553H66.274L66.274,33.387z"/>
<polygon fill="#FFFFFF" points="101.073,33.387 98.484,20.02 95.925,33.387 91.71,33.387 87.134,13.306 91.469,13.306 
	94.058,27.275 96.918,13.306 100.079,13.306 102.969,27.275 105.529,13.306 109.864,13.306 105.288,33.387 "/>
<polygon fill="#FFFFFF" points="111.818,33.387 111.818,13.306 123.318,13.306 123.318,16.858 115.852,16.858 115.852,21.404 
	123.107,21.404 123.107,24.957 115.852,24.957 115.852,29.834 123.318,29.834 123.318,33.387 "/>
<polygon fill="#FFFFFF" points="126.297,33.387 126.297,13.306 137.797,13.306 137.797,16.858 130.33,16.858 130.33,21.404 
	137.586,21.404 137.586,24.957 130.33,24.957 130.33,29.834 137.797,29.834 137.797,33.387 "/>
<polygon fill="#FFFFFF" points="150.859,33.387 146.223,25.529 144.811,27.757 144.811,33.387 140.775,33.387 140.775,13.306 
	144.811,13.306 144.811,22.428 150.469,13.306 155.165,13.306 148.753,22.759 155.616,33.387 "/>
<path fill="#FFFFFF" d="M156.126,31.158l1.987-3.102c1.113,1.234,2.859,2.139,4.847,2.139c1.776,0,2.74-0.994,2.74-2.229
	c0-3.521-8.972-2.316-8.972-9.121c0-3.162,2.469-5.871,6.623-5.871c2.438,0,4.545,0.783,6.08,2.229l-1.927,3.011
	c-1.204-1.144-2.739-1.686-4.305-1.686c-1.445,0-2.349,0.813-2.349,2.047c0,3.131,8.94,2.288,8.94,9.063
	c0,3.521-2.408,6.111-6.804,6.111C159.95,33.748,157.723,32.754,156.126,31.158"/>
<polygon fill="#1A1A19" points="104.066,185.976 104.066,173.629 101.542,176.253 99.617,174.229 104.517,169.305 107.44,169.305 
	107.44,185.976 "/>
<path fill="#1A1A19" d="M109.717,177.652c0-4.3,1.774-8.599,5.898-8.599c4.149,0,5.898,4.3,5.898,8.599
	c0,4.272-1.726,8.623-5.898,8.623C111.491,186.275,109.717,181.926,109.717,177.652 M118.115,177.652c0-3.226-0.55-5.623-2.5-5.623
	c-1.924,0-2.474,2.397-2.474,5.623c0,3.198,0.55,5.647,2.474,5.647C117.565,183.301,118.115,180.852,118.115,177.652"/>
<polygon fill="#1A1A19" points="132.189,185.976 128.34,179.453 127.166,181.302 127.166,185.976 123.816,185.976 123.816,169.305 
	127.166,169.305 127.166,176.877 131.864,169.305 135.764,169.305 130.439,177.152 136.139,185.976 "/>
<g>
	<g>
		<defs>
			<path id="SVGID_5_" d="M120.069,37.591h-66.22c0,0.089,0.002,0.177,0.002,0.271v71.335c0,0,2.74,27.855,32.886,36.313
				c29.146,8.177,33.101,17.746,33.332,18.373c0.008,0.021,0.012,0.033,0.012,0.033s3.198-9.95,33.344-18.406
				c30.146-8.457,32.886-36.313,32.886-36.313V37.9c0-0.014,0.002-0.027,0.002-0.039c0-0.094,0.002-0.182,0.002-0.271H120.069
				L120.069,37.591z"/>
		</defs>
		<clipPath id="SVGID_6_">
			<use xlink:href="#SVGID_5_"  overflow="visible"/>
		</clipPath>
		<g clip-path="url(#SVGID_6_)">
			<g opacity="0.5">
				<g>
					<defs>
						<rect id="SVGID_7_" x="52.53" y="104.87" width="130.76" height="27.61"/>
					</defs>
					<defs>
						<rect id="SVGID_8_" x="52.53" y="104.87" width="130.76" height="27.61"/>
					</defs>
					<defs>
						<rect id="SVGID_9_" x="52.53" y="104.87" width="130.76" height="27.61"/>
					</defs>
					<defs>
						<rect id="SVGID_10_" x="52.53" y="104.87" width="130.76" height="27.61"/>
					</defs>
					<defs>
						<rect id="SVGID_11_" x="52.53" y="104.87" width="130.76" height="27.61"/>
					</defs>
					<defs>
						<rect id="SVGID_12_" x="52.53" y="104.87" width="130.76" height="27.61"/>
					</defs>
					<defs>
						<rect id="SVGID_13_" x="52.53" y="104.87" width="130.76" height="27.61"/>
					</defs>
					<defs>
						<rect id="SVGID_14_" x="52.53" y="104.87" width="130.76" height="27.61"/>
					</defs>
					<clipPath id="SVGID_15_">
						<use xlink:href="#SVGID_7_"  overflow="visible"/>
					</clipPath>
					<clipPath id="SVGID_16_" clip-path="url(#SVGID_15_)">
						<use xlink:href="#SVGID_8_"  overflow="visible"/>
					</clipPath>
					<clipPath id="SVGID_17_" clip-path="url(#SVGID_16_)">
						<use xlink:href="#SVGID_9_"  overflow="visible"/>
					</clipPath>
					<clipPath id="SVGID_18_" clip-path="url(#SVGID_17_)">
						<use xlink:href="#SVGID_10_"  overflow="visible"/>
					</clipPath>
					<clipPath id="SVGID_19_" clip-path="url(#SVGID_18_)">
						<use xlink:href="#SVGID_11_"  overflow="visible"/>
					</clipPath>
					<clipPath id="SVGID_20_" clip-path="url(#SVGID_19_)">
						<use xlink:href="#SVGID_12_"  overflow="visible"/>
					</clipPath>
					<clipPath id="SVGID_21_" clip-path="url(#SVGID_20_)">
						<use xlink:href="#SVGID_13_"  overflow="visible"/>
					</clipPath>
					<clipPath id="SVGID_22_" clip-path="url(#SVGID_21_)">
						<use xlink:href="#SVGID_14_"  overflow="visible"/>
					</clipPath>
					<path clip-path="url(#SVGID_22_)" fill="#CDA72C" d="M169.287,104.87c0,0-9.745,8.382-7.762,7.194c0,0-1.289,7.67-7.592,7.4
						c-6.304-0.267-8.125,9.171-7.883,11.126c0,0,3.95-4.619,10.469-2.967c6.516,1.654,10.057-2.413,10.935-3.702
						c0,0-2.331,7.688-6.849,8.27c0,0,11.192,2.166,15.588-5.347c4.396-7.514,6.613-16.359,7.084-17.154
						C183.749,108.896,169.287,104.87,169.287,104.87"/>
					<path clip-path="url(#SVGID_22_)" fill="#CDA72C" d="M156.464,126.278c0,0-7.976,1.536-6.608,1.02c0,0-4.303-2.372-6.644,0.854
						c-2.341,3.226-7.729,0.425-8.603-0.463c0,0,3.838-0.145,5.576-4.021c1.737-3.875,5.143-4.033,6.125-3.961
						c0,0-4.722-1.863-6.781,0.146c0,0,3.318-6.393,8.765-5.619c5.444,0.771,10.695,3.145,11.274,3.224
						C160.146,117.537,156.464,126.278,156.464,126.278"/>
					<path clip-path="url(#SVGID_22_)" fill="#CDA72C" d="M136.951,104.87c0,0-9.744,8.382-7.762,7.194c0,0-1.289,7.67-7.592,7.4
						c-6.302-0.267-8.125,9.171-7.881,11.126c0,0,3.949-4.619,10.467-2.967c6.516,1.654,10.057-2.413,10.936-3.702
						c0,0-2.33,7.688-6.85,8.27c0,0,11.193,2.166,15.588-5.347c4.396-7.514,6.613-16.359,7.084-17.154
						C151.414,108.896,136.951,104.87,136.951,104.87"/>
					<path clip-path="url(#SVGID_22_)" fill="#CDA72C" d="M124.129,126.278c0,0-7.975,1.536-6.608,1.02c0,0-4.303-2.372-6.644,0.854
						c-2.341,3.226-7.73,0.425-8.602-0.463c0,0,3.837-0.145,5.576-4.021c1.738-3.875,5.142-4.033,6.124-3.961
						c0,0-4.72-1.863-6.781,0.146c0,0,3.32-6.393,8.765-5.619c5.443,0.771,10.695,3.145,11.273,3.224
						S124.129,126.278,124.129,126.278"/>
					<path clip-path="url(#SVGID_22_)" fill="#CDA72C" d="M111.581,104.87c0,0-9.745,8.382-7.763,7.194c0,0-1.288,7.67-7.591,7.4
						c-6.302-0.267-8.125,9.171-7.881,11.126c0,0,3.949-4.619,10.466-2.967c6.516,1.654,10.057-2.413,10.936-3.702
						c0,0-2.33,7.688-6.85,8.27c0,0,11.194,2.166,15.589-5.347c4.395-7.514,6.613-16.359,7.083-17.154
						C126.043,108.896,111.581,104.87,111.581,104.87"/>
					<path clip-path="url(#SVGID_22_)" fill="#CDA72C" d="M98.758,126.278c0,0-7.975,1.536-6.608,1.02c0,0-4.303-2.372-6.644,0.854
						c-2.341,3.226-7.73,0.425-8.602-0.463c0,0,3.837-0.145,5.576-4.021c1.738-3.875,5.142-4.033,6.124-3.961
						c0,0-4.72-1.863-6.781,0.146c0,0,3.319-6.393,8.765-5.619c5.444,0.771,10.695,3.145,11.274,3.224
						C102.44,117.537,98.758,126.278,98.758,126.278"/>
					<path clip-path="url(#SVGID_22_)" fill="#CDA72C" d="M87.205,104.87c0,0-9.745,8.382-7.762,7.194c0,0-1.288,7.67-7.591,7.4
						c-6.303-0.267-8.125,9.171-7.882,11.126c0,0,3.95-4.619,10.467-2.967c6.516,1.654,10.057-2.413,10.935-3.702
						c0,0-2.33,7.688-6.849,8.27c0,0,11.194,2.166,15.589-5.347c4.395-7.514,6.612-16.359,7.084-17.154
						C101.667,108.896,87.205,104.87,87.205,104.87"/>
					<path clip-path="url(#SVGID_22_)" fill="#CDA72C" d="M74.382,126.278c0,0-7.975,1.536-6.609,1.02c0,0-4.302-2.372-6.644,0.854
						c-2.341,3.226-7.729,0.425-8.602-0.463c0,0,3.837-0.145,5.576-4.021c1.738-3.875,5.142-4.033,6.124-3.961
						c0,0-4.72-1.863-6.781,0.146c0,0,3.32-6.393,8.765-5.619c5.444,0.771,10.695,3.145,11.274,3.224S74.382,126.278,74.382,126.278
						"/>
				</g>
			</g>
			<g>
				<defs>
					<path id="SVGID_23_" d="M120.069,37.591h-66.22c0,0.089,0.002,0.177,0.002,0.271v71.335c0,0,2.74,27.855,32.886,36.313
						c29.146,8.177,33.101,17.746,33.332,18.373c0.008,0.021,0.012,0.033,0.012,0.033s3.198-9.95,33.344-18.406
						c30.146-8.457,32.886-36.313,32.886-36.313V37.9c0-0.014,0.002-0.027,0.002-0.039c0-0.094,0.002-0.182,0.002-0.271H120.069
						L120.069,37.591z"/>
				</defs>
				<clipPath id="SVGID_24_">
					<use xlink:href="#SVGID_23_"  overflow="visible"/>
				</clipPath>
				<path clip-path="url(#SVGID_24_)" fill="#FFFFFF" d="M82.596,108.646l0.161-5.137l1.02-15.3l0.372-5.574l0.521-7.803
					l0.173-2.601h23.409c0-5.201,5.202-7.804,5.202-7.804l2.288,1.716l1.874,1.405l0.832,0.624l3.901,2.926l26.824,18.854
					l0.694,0.485c0,0,0.577,0.23,1.563,0.62c0.004,0.001,0.008,0.002,0.01,0.005c0.056,0.021,0.109,0.043,0.166,0.064
					c0.023,0.009,0.049,0.02,0.074,0.029c0.051,0.02,0.104,0.041,0.159,0.063c0.015,0.005,0.026,0.012,0.041,0.018
					c0.06,0.022,0.12,0.048,0.183,0.07c0.021,0.01,0.043,0.019,0.063,0.025c0.06,0.024,0.12,0.047,0.183,0.072
					c0.01,0.004,0.021,0.008,0.031,0.012c0.098,0.039,0.197,0.078,0.301,0.118c0.057,0.021,0.111,0.044,0.17,0.065
					c0.054,0.021,0.109,0.043,0.164,0.065c0.035,0.013,0.069,0.027,0.105,0.041c0.061,0.024,0.123,0.048,0.186,0.072
					c0.032,0.013,0.064,0.024,0.098,0.039c0.057,0.021,0.113,0.044,0.173,0.065c0.045,0.02,0.088,0.035,0.135,0.054
					c0.058,0.021,0.113,0.045,0.173,0.066c0.034,0.014,0.069,0.028,0.104,0.042c0.067,0.026,0.135,0.052,0.203,0.079
					c0.049,0.02,0.098,0.038,0.146,0.056c0.047,0.02,0.092,0.036,0.139,0.056c0.084,0.031,0.17,0.064,0.256,0.1
					c0.021,0.008,0.039,0.015,0.059,0.022c0.089,0.033,0.18,0.068,0.27,0.104c0.027,0.011,0.056,0.022,0.084,0.033
					c0.067,0.025,0.138,0.053,0.207,0.08c0.067,0.025,0.136,0.053,0.203,0.079c1.189,0.462,2.502,0.967,3.871,1.486
					c0.004,0.001,0.006,0.003,0.008,0.003c0.139,0.055,0.277,0.106,0.416,0.158l0.002,0.001c0.132,0.05,0.265,0.102,0.396,0.151
					l0.063,0.022c0.125,0.048,0.25,0.096,0.377,0.143c0.011,0.004,0.021,0.009,0.033,0.013c0.135,0.051,0.271,0.104,0.41,0.154
					c0.002,0.001,0.002,0.002,0.004,0.002c0.137,0.052,0.273,0.103,0.412,0.155c0.012,0.005,0.023,0.01,0.037,0.014
					c0.126,0.048,0.253,0.095,0.379,0.144c0.021,0.009,0.045,0.017,0.065,0.023c0.122,0.046,0.245,0.092,0.368,0.138
					c0.021,0.009,0.043,0.018,0.063,0.024l0.36,0.134c0.025,0.01,0.054,0.021,0.079,0.03c0.118,0.044,0.239,0.089,0.358,0.133
					c0.023,0.009,0.049,0.018,0.074,0.028c0.113,0.042,0.229,0.084,0.342,0.126c0.034,0.013,0.068,0.024,0.103,0.038
					c0.11,0.041,0.221,0.082,0.331,0.122c0.033,0.012,0.064,0.022,0.099,0.034c0.11,0.041,0.222,0.082,0.33,0.122l0.104,0.039
					c0.109,0.04,0.218,0.079,0.326,0.119c0.034,0.013,0.068,0.025,0.103,0.038c0.108,0.039,0.215,0.078,0.321,0.117
					c0.037,0.013,0.074,0.024,0.109,0.04c0.104,0.037,0.205,0.074,0.307,0.109c0.041,0.017,0.082,0.03,0.123,0.047
					c0.103,0.035,0.201,0.07,0.301,0.106c0.041,0.015,0.08,0.03,0.121,0.044c0.103,0.037,0.203,0.073,0.306,0.11
					c0.038,0.013,0.075,0.025,0.114,0.041c0.095,0.034,0.188,0.066,0.279,0.1c0.049,0.019,0.096,0.034,0.145,0.052
					c0.093,0.033,0.186,0.065,0.277,0.1c0.043,0.015,0.086,0.031,0.129,0.046c0.104,0.037,0.207,0.073,0.31,0.109
					c0.031,0.012,0.063,0.021,0.095,0.032c0.098,0.034,0.192,0.068,0.29,0.104c0.04,0.014,0.081,0.027,0.121,0.042
					c0.084,0.029,0.166,0.058,0.248,0.087c0.052,0.018,0.103,0.036,0.152,0.053c0.086,0.03,0.171,0.062,0.256,0.089
					c0.045,0.017,0.09,0.031,0.133,0.047c0.082,0.027,0.16,0.056,0.241,0.082c0.05,0.019,0.102,0.035,0.15,0.054
					c0.076,0.023,0.148,0.051,0.225,0.075c0.052,0.019,0.104,0.034,0.152,0.054c0.078,0.024,0.152,0.051,0.229,0.077
					c0.049,0.016,0.099,0.031,0.146,0.049c0.123,0.041,0.244,0.082,0.365,0.122c0.237,0.079,0.469,0.166,0.69,0.26
					c0.004,0.001,0.008,0.003,0.013,0.004c0.221,0.092,0.432,0.191,0.639,0.296c0.006,0.003,0.015,0.006,0.021,0.01
					c0.203,0.104,0.399,0.214,0.59,0.328c0.011,0.005,0.019,0.011,0.028,0.018c0.188,0.112,0.367,0.231,0.543,0.355
					c0.011,0.008,0.021,0.017,0.033,0.023c0.173,0.122,0.34,0.251,0.5,0.382c0.013,0.01,0.025,0.019,0.037,0.029
					c0.16,0.131,0.313,0.267,0.463,0.404c0.013,0.013,0.023,0.022,0.035,0.033c0.146,0.14,0.291,0.283,0.429,0.429
					c0.012,0.014,0.022,0.023,0.032,0.034c0.138,0.148,0.271,0.3,0.396,0.452c0.01,0.011,0.02,0.022,0.028,0.033
					c0.128,0.155,0.251,0.313,0.368,0.473c0.009,0.01,0.016,0.021,0.022,0.03c0.119,0.163,0.233,0.328,0.345,0.495
					c0.004,0.007,0.01,0.014,0.015,0.021c0.11,0.17,0.218,0.343,0.319,0.518c0.002,0.004,0.006,0.008,0.008,0.012
					c1.156,1.974,1.619,4.133,1.891,5.764v9.458H82.596V108.646L82.596,108.646z"/>
			</g>
			<g>
				<defs>
					<path id="SVGID_25_" d="M120.069,37.591h-66.22c0,0.089,0.002,0.177,0.002,0.271v71.335c0,0,2.74,27.855,32.886,36.313
						c29.146,8.177,33.101,17.746,33.332,18.373c0.008,0.021,0.012,0.033,0.012,0.033s3.198-9.95,33.344-18.406
						c30.146-8.457,32.886-36.313,32.886-36.313V37.9c0-0.014,0.002-0.027,0.002-0.039c0-0.094,0.002-0.182,0.002-0.271H120.069
						L120.069,37.591z"/>
				</defs>
				<clipPath id="SVGID_26_">
					<use xlink:href="#SVGID_25_"  overflow="visible"/>
				</clipPath>
				<path clip-path="url(#SVGID_26_)" fill="#F8D016" d="M152.025,104.269l-43.409-30.932l4.507-7.193l11.639,9.148l27.282,18.479
					l0.747,0.507c0,0,2.848,1.103,6.744,2.561l0.007,0.032L152.025,104.269z"/>
			</g>
			<g>
				<defs>
					<path id="SVGID_27_" d="M120.069,37.591h-66.22c0,0.089,0.002,0.177,0.002,0.271v71.335c0,0,2.74,27.855,32.886,36.313
						c29.146,8.177,33.101,17.746,33.332,18.373c0.008,0.021,0.012,0.033,0.012,0.033s3.198-9.95,33.344-18.406
						c30.146-8.457,32.886-36.313,32.886-36.313V37.9c0-0.014,0.002-0.027,0.002-0.039c0-0.094,0.002-0.182,0.002-0.271H120.069
						L120.069,37.591z"/>
				</defs>
				<clipPath id="SVGID_28_">
					<use xlink:href="#SVGID_27_"  overflow="visible"/>
				</clipPath>
				<path clip-path="url(#SVGID_28_)" fill="#F8D016" d="M149.889,91.521c0.563,0.227,13.158,5.253,20.785,7.795
					c3.854,1.284,5.803,4.472,6.789,7.368h-38.678L149.889,91.521z"/>
			</g>
			<g>
				<defs>
					<path id="SVGID_29_" d="M120.069,37.591h-66.22c0,0.089,0.002,0.177,0.002,0.271v71.335c0,0,2.74,27.855,32.886,36.313
						c29.146,8.177,33.101,17.746,33.332,18.373c0.008,0.021,0.012,0.033,0.012,0.033s3.198-9.95,33.344-18.406
						c30.146-8.457,32.886-36.313,32.886-36.313V37.9c0-0.014,0.002-0.027,0.002-0.039c0-0.094,0.002-0.182,0.002-0.271H120.069
						L120.069,37.591z"/>
				</defs>
				<clipPath id="SVGID_30_">
					<use xlink:href="#SVGID_29_"  overflow="visible"/>
				</clipPath>
				<polygon clip-path="url(#SVGID_30_)" fill="#191818" points="124.922,74.268 117.976,80.413 121.477,71.824 				"/>
			</g>
			<g>
				<defs>
					<path id="SVGID_31_" d="M120.069,37.591h-66.22c0,0.089,0.002,0.177,0.002,0.271v71.335c0,0,2.74,27.855,32.886,36.313
						c29.146,8.177,33.101,17.746,33.332,18.373c0.008,0.021,0.012,0.033,0.012,0.033s3.198-9.95,33.344-18.406
						c30.146-8.457,32.886-36.313,32.886-36.313V37.9c0-0.014,0.002-0.027,0.002-0.039c0-0.094,0.002-0.182,0.002-0.271H120.069
						L120.069,37.591z"/>
				</defs>
				<clipPath id="SVGID_32_">
					<use xlink:href="#SVGID_31_"  overflow="visible"/>
				</clipPath>
				<polygon clip-path="url(#SVGID_32_)" fill="#191818" points="131.458,78.925 124.512,85.069 128.014,76.481 				"/>
			</g>
			<g>
				<defs>
					<path id="SVGID_33_" d="M120.069,37.591h-66.22c0,0.089,0.002,0.177,0.002,0.271v71.335c0,0,2.74,27.855,32.886,36.313
						c29.146,8.177,33.101,17.746,33.332,18.373c0.008,0.021,0.012,0.033,0.012,0.033s3.198-9.95,33.344-18.406
						c30.146-8.457,32.886-36.313,32.886-36.313V37.9c0-0.014,0.002-0.027,0.002-0.039c0-0.094,0.002-0.182,0.002-0.271H120.069
						L120.069,37.591z"/>
				</defs>
				<clipPath id="SVGID_34_">
					<use xlink:href="#SVGID_33_"  overflow="visible"/>
				</clipPath>
				
					<line clip-path="url(#SVGID_34_)" fill="none" stroke="#191818" stroke-width="2.148" stroke-miterlimit="10" x1="177.464" y1="107.491" x2="82.596" y2="107.491"/>
			</g>
			<g>
				<defs>
					<path id="SVGID_35_" d="M120.069,37.591h-66.22c0,0.089,0.002,0.177,0.002,0.271v71.335c0,0,2.74,27.855,32.886,36.313
						c29.146,8.177,33.101,17.746,33.332,18.373c0.008,0.021,0.012,0.033,0.012,0.033s3.198-9.95,33.344-18.406
						c30.146-8.457,32.886-36.313,32.886-36.313V37.9c0-0.014,0.002-0.027,0.002-0.039c0-0.094,0.002-0.182,0.002-0.271H120.069
						L120.069,37.591z"/>
				</defs>
				<clipPath id="SVGID_36_">
					<use xlink:href="#SVGID_35_"  overflow="visible"/>
				</clipPath>
				<polygon clip-path="url(#SVGID_36_)" fill="#191818" points="137.994,83.581 131.049,89.727 134.55,81.139 				"/>
			</g>
			<g>
				<defs>
					<path id="SVGID_37_" d="M120.069,37.591h-66.22c0,0.089,0.002,0.177,0.002,0.271v71.335c0,0,2.74,27.855,32.886,36.313
						c29.146,8.177,33.101,17.746,33.332,18.373c0.008,0.021,0.012,0.033,0.012,0.033s3.198-9.95,33.344-18.406
						c30.146-8.457,32.886-36.313,32.886-36.313V37.9c0-0.014,0.002-0.027,0.002-0.039c0-0.094,0.002-0.182,0.002-0.271H120.069
						L120.069,37.591z"/>
				</defs>
				<clipPath id="SVGID_38_">
					<use xlink:href="#SVGID_37_"  overflow="visible"/>
				</clipPath>
				<polygon clip-path="url(#SVGID_38_)" fill="#191818" points="144.531,88.238 137.585,94.383 141.086,85.795 				"/>
			</g>
			<g>
				<defs>
					<path id="SVGID_39_" d="M120.069,37.591h-66.22c0,0.089,0.002,0.177,0.002,0.271v71.335c0,0,2.74,27.855,32.886,36.313
						c29.146,8.177,33.101,17.746,33.332,18.373c0.008,0.021,0.012,0.033,0.012,0.033s3.198-9.95,33.344-18.406
						c30.146-8.457,32.886-36.313,32.886-36.313V37.9c0-0.014,0.002-0.027,0.002-0.039c0-0.094,0.002-0.182,0.002-0.271H120.069
						L120.069,37.591z"/>
				</defs>
				<clipPath id="SVGID_40_">
					<use xlink:href="#SVGID_39_"  overflow="visible"/>
				</clipPath>
				<polygon clip-path="url(#SVGID_40_)" fill="#191818" points="151.066,92.896 144.121,99.04 147.623,90.452 				"/>
			</g>
			<g>
				<defs>
					<path id="SVGID_41_" d="M120.069,37.591h-66.22c0,0.089,0.002,0.177,0.002,0.271v71.335c0,0,2.74,27.855,32.886,36.313
						c29.146,8.177,33.101,17.746,33.332,18.373c0.008,0.021,0.012,0.033,0.012,0.033s3.198-9.95,33.344-18.406
						c30.146-8.457,32.886-36.313,32.886-36.313V37.9c0-0.014,0.002-0.027,0.002-0.039c0-0.094,0.002-0.182,0.002-0.271H120.069
						L120.069,37.591z"/>
				</defs>
				<clipPath id="SVGID_42_">
					<use xlink:href="#SVGID_41_"  overflow="visible"/>
				</clipPath>
				<path clip-path="url(#SVGID_42_)" fill="none" stroke="#191818" stroke-width="4.296" stroke-miterlimit="10" d="
					M82.596,108.646l0.161-5.137l1.02-15.3l0.372-5.574l0.521-7.803l0.173-2.601h23.409c0-5.201,5.202-7.804,5.202-7.804
					l2.288,1.716l1.874,1.405l0.832,0.624l3.901,2.926l26.824,18.854l0.694,0.485c0,0,0.577,0.23,1.563,0.62
					c0.004,0.001,0.008,0.002,0.01,0.005c0.056,0.021,0.109,0.043,0.166,0.064c0.023,0.009,0.049,0.02,0.074,0.029
					c0.051,0.02,0.104,0.041,0.159,0.063c0.015,0.005,0.026,0.012,0.041,0.018c0.06,0.022,0.12,0.048,0.183,0.07
					c0.021,0.01,0.043,0.019,0.063,0.025c0.06,0.024,0.12,0.047,0.183,0.072c0.01,0.004,0.021,0.008,0.031,0.012
					c0.098,0.039,0.197,0.078,0.301,0.118c0.057,0.021,0.111,0.044,0.17,0.065c0.054,0.021,0.109,0.043,0.164,0.065
					c0.035,0.013,0.069,0.027,0.105,0.041c0.061,0.024,0.123,0.048,0.186,0.072c0.032,0.013,0.064,0.024,0.098,0.039
					c0.057,0.021,0.113,0.044,0.173,0.065c0.045,0.02,0.088,0.035,0.135,0.054c0.058,0.021,0.113,0.045,0.173,0.066
					c0.034,0.014,0.069,0.028,0.104,0.042c0.067,0.026,0.135,0.052,0.203,0.079c0.049,0.02,0.098,0.038,0.146,0.056
					c0.047,0.02,0.092,0.036,0.139,0.056c0.084,0.031,0.17,0.064,0.256,0.1c0.021,0.008,0.039,0.015,0.059,0.022
					c0.089,0.033,0.18,0.068,0.27,0.104c0.027,0.011,0.056,0.022,0.084,0.033c0.067,0.025,0.138,0.053,0.207,0.08
					c0.067,0.025,0.136,0.053,0.203,0.079c1.189,0.462,2.502,0.967,3.871,1.486c0.004,0.001,0.006,0.003,0.008,0.003
					c0.139,0.055,0.277,0.106,0.416,0.158l0.002,0.001c0.132,0.05,0.265,0.102,0.396,0.151l0.063,0.022
					c0.125,0.048,0.25,0.096,0.377,0.143c0.011,0.004,0.021,0.009,0.033,0.013c0.135,0.051,0.271,0.104,0.41,0.154
					c0.002,0.001,0.002,0.002,0.004,0.002c0.137,0.052,0.273,0.103,0.412,0.155c0.012,0.005,0.023,0.01,0.037,0.014
					c0.126,0.048,0.253,0.095,0.379,0.144c0.021,0.009,0.045,0.017,0.065,0.023c0.122,0.046,0.245,0.092,0.368,0.138
					c0.021,0.009,0.043,0.018,0.063,0.024l0.36,0.134c0.025,0.01,0.054,0.021,0.079,0.03c0.118,0.044,0.239,0.089,0.358,0.133
					c0.023,0.009,0.049,0.018,0.074,0.028c0.113,0.042,0.229,0.084,0.342,0.126c0.034,0.013,0.068,0.024,0.103,0.038
					c0.11,0.041,0.221,0.082,0.331,0.122c0.033,0.012,0.064,0.022,0.099,0.034c0.11,0.041,0.222,0.082,0.33,0.122l0.104,0.039
					c0.109,0.04,0.218,0.079,0.326,0.119c0.034,0.013,0.068,0.025,0.103,0.038c0.108,0.039,0.215,0.078,0.321,0.117
					c0.037,0.013,0.074,0.024,0.109,0.04c0.104,0.037,0.205,0.074,0.307,0.109c0.041,0.017,0.082,0.03,0.123,0.047
					c0.103,0.035,0.201,0.07,0.301,0.106c0.041,0.015,0.08,0.03,0.121,0.044c0.103,0.037,0.203,0.073,0.306,0.11
					c0.038,0.013,0.075,0.025,0.114,0.041c0.095,0.034,0.188,0.066,0.279,0.1c0.049,0.019,0.096,0.034,0.145,0.052
					c0.093,0.033,0.186,0.065,0.277,0.1c0.043,0.015,0.086,0.031,0.129,0.046c0.104,0.037,0.207,0.073,0.31,0.109
					c0.031,0.012,0.063,0.021,0.095,0.032c0.098,0.034,0.192,0.068,0.29,0.104c0.04,0.014,0.081,0.027,0.121,0.042
					c0.084,0.029,0.166,0.058,0.248,0.087c0.052,0.018,0.103,0.036,0.152,0.053c0.086,0.03,0.171,0.062,0.256,0.089
					c0.045,0.017,0.09,0.031,0.133,0.047c0.082,0.027,0.16,0.056,0.241,0.082c0.05,0.019,0.102,0.035,0.15,0.054
					c0.076,0.023,0.148,0.051,0.225,0.075c0.052,0.019,0.104,0.034,0.152,0.054c0.078,0.024,0.152,0.051,0.229,0.077
					c0.049,0.016,0.099,0.031,0.146,0.049c0.123,0.041,0.244,0.082,0.365,0.122c0.237,0.079,0.469,0.166,0.69,0.26
					c0.004,0.001,0.008,0.003,0.013,0.004c0.221,0.092,0.432,0.191,0.639,0.296c0.006,0.003,0.015,0.006,0.021,0.01
					c0.203,0.104,0.399,0.214,0.59,0.328c0.011,0.005,0.019,0.011,0.028,0.018c0.188,0.112,0.367,0.231,0.543,0.355
					c0.011,0.008,0.021,0.017,0.033,0.023c0.173,0.122,0.34,0.251,0.5,0.382c0.013,0.01,0.025,0.019,0.037,0.029
					c0.16,0.131,0.313,0.267,0.463,0.404c0.013,0.013,0.023,0.022,0.035,0.033c0.146,0.14,0.291,0.283,0.429,0.429
					c0.012,0.014,0.022,0.023,0.032,0.034c0.138,0.148,0.271,0.3,0.396,0.452c0.01,0.011,0.02,0.022,0.028,0.033
					c0.128,0.155,0.251,0.313,0.368,0.473c0.009,0.01,0.016,0.021,0.022,0.03c0.119,0.163,0.233,0.328,0.345,0.495
					c0.004,0.007,0.01,0.014,0.015,0.021c0.11,0.17,0.218,0.343,0.319,0.518c0.002,0.004,0.006,0.008,0.008,0.012
					c1.156,1.974,1.619,4.133,1.891,5.764v9.458H82.596V108.646L82.596,108.646z"/>
			</g>
			<g>
				<defs>
					<path id="SVGID_43_" d="M120.069,37.591h-66.22c0,0.089,0.002,0.177,0.002,0.271v71.335c0,0,2.74,27.855,32.886,36.313
						c29.146,8.177,33.101,17.746,33.332,18.373c0.008,0.021,0.012,0.033,0.012,0.033s3.198-9.95,33.344-18.406
						c30.146-8.457,32.886-36.313,32.886-36.313V37.9c0-0.014,0.002-0.027,0.002-0.039c0-0.094,0.002-0.182,0.002-0.271H120.069
						L120.069,37.591z"/>
				</defs>
				<clipPath id="SVGID_44_">
					<use xlink:href="#SVGID_43_"  overflow="visible"/>
				</clipPath>
				<path clip-path="url(#SVGID_44_)" fill="#FFFFFF" d="M41.773,108.646l0.161-5.137l1.02-15.3l0.372-5.574l0.52-7.803l0.173-2.601
					h23.409c0-5.201,5.202-7.804,5.202-7.804l2.288,1.716l1.873,1.405l0.833,0.624l3.9,2.926l26.826,18.854l0.693,0.485
					c0,0,0.579,0.23,1.566,0.62c0.003,0.001,0.007,0.002,0.01,0.005c0.054,0.021,0.109,0.043,0.165,0.064
					c0.024,0.009,0.049,0.02,0.073,0.029c0.053,0.02,0.105,0.041,0.161,0.063c0.014,0.005,0.027,0.012,0.041,0.018
					c0.06,0.022,0.12,0.048,0.182,0.07c0.021,0.01,0.043,0.019,0.064,0.025c0.06,0.024,0.12,0.047,0.182,0.072
					c0.01,0.004,0.021,0.008,0.032,0.012c0.098,0.039,0.198,0.078,0.3,0.118c0.056,0.021,0.112,0.044,0.169,0.065
					c0.055,0.021,0.111,0.043,0.166,0.065c0.035,0.013,0.069,0.027,0.104,0.041c0.061,0.024,0.123,0.048,0.186,0.072
					c0.033,0.013,0.064,0.024,0.098,0.039c0.056,0.021,0.114,0.044,0.172,0.065c0.045,0.02,0.089,0.035,0.135,0.054
					c0.056,0.021,0.114,0.045,0.172,0.066c0.035,0.014,0.071,0.028,0.106,0.042c0.067,0.026,0.135,0.052,0.203,0.079
					c0.048,0.02,0.097,0.038,0.145,0.056c0.046,0.02,0.091,0.036,0.138,0.056c0.084,0.031,0.17,0.064,0.256,0.1
					c0.02,0.008,0.039,0.015,0.058,0.022c0.089,0.033,0.179,0.068,0.27,0.104c0.028,0.011,0.056,0.022,0.084,0.033
					c0.068,0.025,0.138,0.053,0.207,0.08c0.068,0.025,0.136,0.053,0.204,0.079c1.188,0.462,2.501,0.967,3.871,1.486
					c0.003,0.001,0.005,0.003,0.008,0.003c0.138,0.055,0.277,0.106,0.416,0.158c0,0,0.001,0.001,0.002,0.001
					c0.131,0.05,0.264,0.102,0.396,0.151c0.021,0.007,0.041,0.015,0.063,0.022c0.125,0.048,0.25,0.096,0.375,0.143
					c0.012,0.004,0.022,0.009,0.034,0.013c0.136,0.051,0.273,0.104,0.409,0.154c0.002,0.001,0.004,0.002,0.006,0.002
					c0.137,0.052,0.274,0.103,0.412,0.155c0.012,0.005,0.024,0.01,0.037,0.014c0.127,0.048,0.254,0.095,0.381,0.144
					c0.021,0.009,0.043,0.017,0.063,0.023c0.123,0.046,0.246,0.092,0.369,0.138c0.021,0.009,0.043,0.018,0.063,0.024l0.36,0.134
					c0.026,0.01,0.052,0.021,0.079,0.03c0.119,0.044,0.238,0.089,0.357,0.133c0.024,0.009,0.051,0.018,0.074,0.028
					c0.114,0.042,0.229,0.084,0.344,0.126l0.102,0.038c0.109,0.041,0.221,0.082,0.331,0.122c0.032,0.012,0.065,0.022,0.098,0.034
					c0.11,0.041,0.222,0.082,0.331,0.122c0.035,0.015,0.07,0.026,0.105,0.039c0.109,0.04,0.217,0.079,0.324,0.119
					c0.035,0.013,0.068,0.025,0.104,0.038c0.107,0.039,0.215,0.078,0.322,0.117c0.035,0.013,0.072,0.024,0.109,0.04
					c0.103,0.037,0.203,0.074,0.307,0.109c0.041,0.017,0.082,0.03,0.123,0.047c0.101,0.035,0.201,0.07,0.301,0.106
					c0.04,0.015,0.08,0.03,0.121,0.044c0.101,0.037,0.203,0.073,0.304,0.11c0.039,0.013,0.077,0.025,0.115,0.041
					c0.094,0.034,0.187,0.066,0.278,0.1c0.049,0.019,0.098,0.034,0.146,0.052c0.093,0.033,0.185,0.065,0.276,0.1
					c0.043,0.015,0.088,0.031,0.131,0.046c0.104,0.037,0.207,0.073,0.309,0.109c0.031,0.012,0.063,0.021,0.094,0.032
					c0.098,0.034,0.193,0.068,0.289,0.104c0.041,0.014,0.082,0.027,0.122,0.042c0.085,0.029,0.166,0.058,0.249,0.087
					c0.051,0.018,0.104,0.036,0.152,0.053c0.086,0.03,0.171,0.062,0.256,0.089c0.044,0.017,0.089,0.031,0.133,0.047
					c0.081,0.027,0.16,0.056,0.241,0.082c0.05,0.019,0.101,0.035,0.149,0.054c0.076,0.023,0.149,0.051,0.226,0.075
					c0.051,0.019,0.103,0.034,0.153,0.054c0.076,0.024,0.152,0.051,0.228,0.077c0.05,0.016,0.099,0.031,0.146,0.049
					c0.123,0.041,0.244,0.082,0.365,0.122c0.236,0.079,0.467,0.166,0.69,0.26c0.004,0.001,0.008,0.003,0.013,0.004
					c0.219,0.092,0.432,0.191,0.639,0.296c0.007,0.003,0.015,0.006,0.021,0.01c0.203,0.104,0.399,0.214,0.589,0.328
					c0.01,0.005,0.02,0.011,0.028,0.018c0.188,0.112,0.368,0.231,0.544,0.355c0.011,0.008,0.021,0.017,0.033,0.023
					c0.173,0.122,0.34,0.251,0.501,0.382c0.012,0.01,0.022,0.019,0.036,0.029c0.158,0.131,0.313,0.267,0.463,0.404
					c0.012,0.013,0.023,0.022,0.035,0.033c0.146,0.14,0.291,0.283,0.429,0.429c0.01,0.014,0.021,0.023,0.032,0.034
					c0.138,0.148,0.27,0.3,0.396,0.452c0.01,0.011,0.02,0.022,0.028,0.033c0.128,0.155,0.251,0.313,0.369,0.473
					c0.007,0.01,0.015,0.021,0.022,0.03c0.118,0.163,0.232,0.328,0.344,0.495c0.004,0.007,0.01,0.014,0.015,0.021
					c0.11,0.17,0.218,0.343,0.319,0.518c0.002,0.004,0.006,0.008,0.008,0.012c1.156,1.974,1.619,4.133,1.891,5.764v9.458H41.772
					L41.773,108.646L41.773,108.646z"/>
			</g>
			<g>
				<defs>
					<path id="SVGID_45_" d="M120.069,37.591h-66.22c0,0.089,0.002,0.177,0.002,0.271v71.335c0,0,2.74,27.855,32.886,36.313
						c29.146,8.177,33.101,17.746,33.332,18.373c0.008,0.021,0.012,0.033,0.012,0.033s3.198-9.95,33.344-18.406
						c30.146-8.457,32.886-36.313,32.886-36.313V37.9c0-0.014,0.002-0.027,0.002-0.039c0-0.094,0.002-0.182,0.002-0.271H120.069
						L120.069,37.591z"/>
				</defs>
				<clipPath id="SVGID_46_">
					<use xlink:href="#SVGID_45_"  overflow="visible"/>
				</clipPath>
				<path clip-path="url(#SVGID_46_)" fill="#F8D016" d="M111.203,104.269L67.794,73.337l4.507-7.193l11.639,9.148l27.282,18.479
					l0.747,0.507c0,0,2.847,1.103,6.744,2.561l0.007,0.032L111.203,104.269z"/>
			</g>
			<g>
				<defs>
					<path id="SVGID_47_" d="M120.069,37.591h-66.22c0,0.089,0.002,0.177,0.002,0.271v71.335c0,0,2.74,27.855,32.886,36.313
						c29.146,8.177,33.101,17.746,33.332,18.373c0.008,0.021,0.012,0.033,0.012,0.033s3.198-9.95,33.344-18.406
						c30.146-8.457,32.886-36.313,32.886-36.313V37.9c0-0.014,0.002-0.027,0.002-0.039c0-0.094,0.002-0.182,0.002-0.271H120.069
						L120.069,37.591z"/>
				</defs>
				<clipPath id="SVGID_48_">
					<use xlink:href="#SVGID_47_"  overflow="visible"/>
				</clipPath>
				<path clip-path="url(#SVGID_48_)" fill="#F8D016" d="M109.065,91.521c0.564,0.227,13.16,5.253,20.787,7.795
					c3.854,1.284,5.803,4.472,6.789,7.368H97.962L109.065,91.521z"/>
			</g>
			<g>
				<defs>
					<path id="SVGID_49_" d="M120.069,37.591h-66.22c0,0.089,0.002,0.177,0.002,0.271v71.335c0,0,2.74,27.855,32.886,36.313
						c29.146,8.177,33.101,17.746,33.332,18.373c0.008,0.021,0.012,0.033,0.012,0.033s3.198-9.95,33.344-18.406
						c30.146-8.457,32.886-36.313,32.886-36.313V37.9c0-0.014,0.002-0.027,0.002-0.039c0-0.094,0.002-0.182,0.002-0.271H120.069
						L120.069,37.591z"/>
				</defs>
				<clipPath id="SVGID_50_">
					<use xlink:href="#SVGID_49_"  overflow="visible"/>
				</clipPath>
				<polygon clip-path="url(#SVGID_50_)" fill="#191818" points="84.1,74.268 77.153,80.413 80.654,71.824 				"/>
			</g>
			<g>
				<defs>
					<path id="SVGID_51_" d="M120.069,37.591h-66.22c0,0.089,0.002,0.177,0.002,0.271v71.335c0,0,2.74,27.855,32.886,36.313
						c29.146,8.177,33.101,17.746,33.332,18.373c0.008,0.021,0.012,0.033,0.012,0.033s3.198-9.95,33.344-18.406
						c30.146-8.457,32.886-36.313,32.886-36.313V37.9c0-0.014,0.002-0.027,0.002-0.039c0-0.094,0.002-0.182,0.002-0.271H120.069
						L120.069,37.591z"/>
				</defs>
				<clipPath id="SVGID_52_">
					<use xlink:href="#SVGID_51_"  overflow="visible"/>
				</clipPath>
				<polygon clip-path="url(#SVGID_52_)" fill="#191818" points="90.636,78.925 83.689,85.069 87.19,76.481 				"/>
			</g>
			<g>
				<defs>
					<path id="SVGID_53_" d="M120.069,37.591h-66.22c0,0.089,0.002,0.177,0.002,0.271v71.335c0,0,2.74,27.855,32.886,36.313
						c29.146,8.177,33.101,17.746,33.332,18.373c0.008,0.021,0.012,0.033,0.012,0.033s3.198-9.95,33.344-18.406
						c30.146-8.457,32.886-36.313,32.886-36.313V37.9c0-0.014,0.002-0.027,0.002-0.039c0-0.094,0.002-0.182,0.002-0.271H120.069
						L120.069,37.591z"/>
				</defs>
				<clipPath id="SVGID_54_">
					<use xlink:href="#SVGID_53_"  overflow="visible"/>
				</clipPath>
				
					<line clip-path="url(#SVGID_54_)" fill="none" stroke="#191818" stroke-width="2.148" stroke-miterlimit="10" x1="136.641" y1="107.491" x2="41.772" y2="107.491"/>
			</g>
			<g>
				<defs>
					<path id="SVGID_55_" d="M120.069,37.591h-66.22c0,0.089,0.002,0.177,0.002,0.271v71.335c0,0,2.74,27.855,32.886,36.313
						c29.146,8.177,33.101,17.746,33.332,18.373c0.008,0.021,0.012,0.033,0.012,0.033s3.198-9.95,33.344-18.406
						c30.146-8.457,32.886-36.313,32.886-36.313V37.9c0-0.014,0.002-0.027,0.002-0.039c0-0.094,0.002-0.182,0.002-0.271H120.069
						L120.069,37.591z"/>
				</defs>
				<clipPath id="SVGID_56_">
					<use xlink:href="#SVGID_55_"  overflow="visible"/>
				</clipPath>
				<polygon clip-path="url(#SVGID_56_)" fill="#191818" points="97.172,83.581 90.226,89.727 93.727,81.139 				"/>
			</g>
			<g>
				<defs>
					<path id="SVGID_57_" d="M120.069,37.591h-66.22c0,0.089,0.002,0.177,0.002,0.271v71.335c0,0,2.74,27.855,32.886,36.313
						c29.146,8.177,33.101,17.746,33.332,18.373c0.008,0.021,0.012,0.033,0.012,0.033s3.198-9.95,33.344-18.406
						c30.146-8.457,32.886-36.313,32.886-36.313V37.9c0-0.014,0.002-0.027,0.002-0.039c0-0.094,0.002-0.182,0.002-0.271H120.069
						L120.069,37.591z"/>
				</defs>
				<clipPath id="SVGID_58_">
					<use xlink:href="#SVGID_57_"  overflow="visible"/>
				</clipPath>
				<polygon clip-path="url(#SVGID_58_)" fill="#191818" points="103.708,88.238 96.763,94.383 100.264,85.795 				"/>
			</g>
			<g>
				<defs>
					<path id="SVGID_59_" d="M120.069,37.591h-66.22c0,0.089,0.002,0.177,0.002,0.271v71.335c0,0,2.74,27.855,32.886,36.313
						c29.146,8.177,33.101,17.746,33.332,18.373c0.008,0.021,0.012,0.033,0.012,0.033s3.198-9.95,33.344-18.406
						c30.146-8.457,32.886-36.313,32.886-36.313V37.9c0-0.014,0.002-0.027,0.002-0.039c0-0.094,0.002-0.182,0.002-0.271H120.069
						L120.069,37.591z"/>
				</defs>
				<clipPath id="SVGID_60_">
					<use xlink:href="#SVGID_59_"  overflow="visible"/>
				</clipPath>
				<polygon clip-path="url(#SVGID_60_)" fill="#191818" points="110.245,92.896 103.299,99.04 106.8,90.452 				"/>
			</g>
			<g>
				<defs>
					<path id="SVGID_61_" d="M120.069,37.591h-66.22c0,0.089,0.002,0.177,0.002,0.271v71.335c0,0,2.74,27.855,32.886,36.313
						c29.146,8.177,33.101,17.746,33.332,18.373c0.008,0.021,0.012,0.033,0.012,0.033s3.198-9.95,33.344-18.406
						c30.146-8.457,32.886-36.313,32.886-36.313V37.9c0-0.014,0.002-0.027,0.002-0.039c0-0.094,0.002-0.182,0.002-0.271H120.069
						L120.069,37.591z"/>
				</defs>
				<clipPath id="SVGID_62_">
					<use xlink:href="#SVGID_61_"  overflow="visible"/>
				</clipPath>
				<path clip-path="url(#SVGID_62_)" fill="none" stroke="#191818" stroke-width="4.296" stroke-miterlimit="10" d="
					M41.773,108.646l0.161-5.137l1.02-15.3l0.372-5.574l0.52-7.803l0.173-2.601h23.409c0-5.201,5.202-7.804,5.202-7.804l2.288,1.716
					l1.873,1.405l0.833,0.624l3.9,2.926l26.826,18.854l0.693,0.485c0,0,0.579,0.23,1.566,0.62c0.003,0.001,0.007,0.002,0.01,0.005
					c0.054,0.021,0.109,0.043,0.165,0.064c0.024,0.009,0.049,0.02,0.073,0.029c0.053,0.02,0.105,0.041,0.161,0.063
					c0.014,0.005,0.027,0.012,0.041,0.018c0.06,0.022,0.12,0.048,0.182,0.07c0.021,0.01,0.043,0.019,0.064,0.025
					c0.06,0.024,0.12,0.047,0.182,0.072c0.01,0.004,0.021,0.008,0.032,0.012c0.098,0.039,0.198,0.078,0.3,0.118
					c0.056,0.021,0.112,0.044,0.169,0.065c0.055,0.021,0.111,0.043,0.166,0.065c0.035,0.013,0.069,0.027,0.104,0.041
					c0.061,0.024,0.123,0.048,0.186,0.072c0.033,0.013,0.064,0.024,0.098,0.039c0.056,0.021,0.114,0.044,0.172,0.065
					c0.045,0.02,0.089,0.035,0.135,0.054c0.056,0.021,0.114,0.045,0.172,0.066c0.035,0.014,0.071,0.028,0.106,0.042
					c0.067,0.026,0.135,0.052,0.203,0.079c0.048,0.02,0.097,0.038,0.145,0.056c0.046,0.02,0.091,0.036,0.138,0.056
					c0.084,0.031,0.17,0.064,0.256,0.1c0.02,0.008,0.039,0.015,0.058,0.022c0.089,0.033,0.179,0.068,0.27,0.104
					c0.028,0.011,0.056,0.022,0.084,0.033c0.068,0.025,0.138,0.053,0.207,0.08c0.068,0.025,0.136,0.053,0.204,0.079
					c1.188,0.462,2.501,0.967,3.871,1.486c0.003,0.001,0.005,0.003,0.008,0.003c0.138,0.055,0.277,0.106,0.416,0.158
					c0,0,0.001,0.001,0.002,0.001c0.131,0.05,0.264,0.102,0.396,0.151c0.021,0.007,0.041,0.015,0.063,0.022
					c0.125,0.048,0.25,0.096,0.375,0.143c0.012,0.004,0.022,0.009,0.034,0.013c0.136,0.051,0.273,0.104,0.409,0.154
					c0.002,0.001,0.004,0.002,0.006,0.002c0.137,0.052,0.274,0.103,0.412,0.155c0.012,0.005,0.024,0.01,0.037,0.014
					c0.127,0.048,0.254,0.095,0.381,0.144c0.021,0.009,0.043,0.017,0.063,0.023c0.123,0.046,0.246,0.092,0.369,0.138
					c0.021,0.009,0.043,0.018,0.063,0.024l0.36,0.134c0.026,0.01,0.052,0.021,0.079,0.03c0.119,0.044,0.238,0.089,0.357,0.133
					c0.024,0.009,0.051,0.018,0.074,0.028c0.114,0.042,0.229,0.084,0.344,0.126l0.102,0.038c0.109,0.041,0.221,0.082,0.331,0.122
					c0.032,0.012,0.065,0.022,0.098,0.034c0.11,0.041,0.222,0.082,0.331,0.122c0.035,0.015,0.07,0.026,0.105,0.039
					c0.109,0.04,0.217,0.079,0.324,0.119c0.035,0.013,0.068,0.025,0.104,0.038c0.107,0.039,0.215,0.078,0.322,0.117
					c0.035,0.013,0.072,0.024,0.109,0.04c0.103,0.037,0.203,0.074,0.307,0.109c0.041,0.017,0.082,0.03,0.123,0.047
					c0.101,0.035,0.201,0.07,0.301,0.106c0.04,0.015,0.08,0.03,0.121,0.044c0.101,0.037,0.203,0.073,0.304,0.11
					c0.039,0.013,0.077,0.025,0.115,0.041c0.094,0.034,0.187,0.066,0.278,0.1c0.049,0.019,0.098,0.034,0.146,0.052
					c0.093,0.033,0.185,0.065,0.276,0.1c0.043,0.015,0.088,0.031,0.131,0.046c0.104,0.037,0.207,0.073,0.309,0.109
					c0.031,0.012,0.063,0.021,0.094,0.032c0.098,0.034,0.193,0.068,0.289,0.104c0.041,0.014,0.082,0.027,0.122,0.042
					c0.085,0.029,0.166,0.058,0.249,0.087c0.051,0.018,0.104,0.036,0.152,0.053c0.086,0.03,0.171,0.062,0.256,0.089
					c0.044,0.017,0.089,0.031,0.133,0.047c0.081,0.027,0.16,0.056,0.241,0.082c0.05,0.019,0.101,0.035,0.149,0.054
					c0.076,0.023,0.149,0.051,0.226,0.075c0.051,0.019,0.103,0.034,0.153,0.054c0.076,0.024,0.152,0.051,0.228,0.077
					c0.05,0.016,0.099,0.031,0.146,0.049c0.123,0.041,0.244,0.082,0.365,0.122c0.236,0.079,0.467,0.166,0.69,0.26
					c0.004,0.001,0.008,0.003,0.013,0.004c0.219,0.092,0.432,0.191,0.639,0.296c0.007,0.003,0.015,0.006,0.021,0.01
					c0.203,0.104,0.399,0.214,0.589,0.328c0.01,0.005,0.02,0.011,0.028,0.018c0.188,0.112,0.368,0.231,0.544,0.355
					c0.011,0.008,0.021,0.017,0.033,0.023c0.173,0.122,0.34,0.251,0.501,0.382c0.012,0.01,0.022,0.019,0.036,0.029
					c0.158,0.131,0.313,0.267,0.463,0.404c0.012,0.013,0.023,0.022,0.035,0.033c0.146,0.14,0.291,0.283,0.429,0.429
					c0.01,0.014,0.021,0.023,0.032,0.034c0.138,0.148,0.27,0.3,0.396,0.452c0.01,0.011,0.02,0.022,0.028,0.033
					c0.128,0.155,0.251,0.313,0.369,0.473c0.007,0.01,0.015,0.021,0.022,0.03c0.118,0.163,0.232,0.328,0.344,0.495
					c0.004,0.007,0.01,0.014,0.015,0.021c0.11,0.17,0.218,0.343,0.319,0.518c0.002,0.004,0.006,0.008,0.008,0.012
					c1.156,1.974,1.619,4.133,1.891,5.764v9.458H41.772L41.773,108.646L41.773,108.646z"/>
			</g>
			<g>
				<defs>
					<path id="SVGID_63_" d="M120.069,37.591h-66.22c0,0.089,0.002,0.177,0.002,0.271v71.335c0,0,2.74,27.855,32.886,36.313
						c29.146,8.177,33.101,17.746,33.332,18.373c0.008,0.021,0.012,0.033,0.012,0.033s3.198-9.95,33.344-18.406
						c30.146-8.457,32.886-36.313,32.886-36.313V37.9c0-0.014,0.002-0.027,0.002-0.039c0-0.094,0.002-0.182,0.002-0.271H120.069
						L120.069,37.591z"/>
				</defs>
				<clipPath id="SVGID_64_">
					<use xlink:href="#SVGID_63_"  overflow="visible"/>
				</clipPath>
				<polygon clip-path="url(#SVGID_64_)" fill="#F8D016" points="69.234,84.355 82.533,91.134 78.979,93.908 85.239,100.462 
					71.94,93.684 75.494,90.908 				"/>
			</g>
		</g>
		<path clip-path="url(#SVGID_6_)" fill="#191818" d="M181.574,12.61l3.394,5.225c-3.477,4.13-6.325,10.43-6.393,19.499l-0.001,0.06
			v0.037l-0.001,0.024l-0.003,0.165v0.04v0.039v71.391c-0.393,2.728-4.037,22.62-27.06,29.079
			c-5.879,1.649-21.528,6.528-31.393,14.107c-5.685-4.469-15.25-9.594-31.342-14.107c-22.9-6.425-26.624-26.116-27.06-29.098V37.66
			l-0.002-0.271l-0.001-0.064c-0.067-9.064-2.915-15.362-6.392-19.49l3.393-5.225h28.033h23.781h9.198h33.814H181.574
			 M186.117,4.244h-32.576h-33.814h-9.198H86.748H54.172L44.138,19.698c0,0,9.1,2.806,9.21,17.688
			c0.001,0.091,0.003,0.182,0.003,0.272v71.939c0,0,2.764,28.096,33.166,36.624c29.393,8.245,33.383,17.896,33.616,18.528
			c0.007,0.022,0.011,0.033,0.011,0.033s3.226-10.034,33.627-18.563c30.402-8.528,33.166-36.624,33.166-36.624v-71.9
			c0-0.014,0.002-0.025,0.002-0.039c0-0.092,0.002-0.183,0.002-0.272c0.11-14.884,9.211-17.688,9.211-17.688L186.117,4.244z"/>
	</g>
</g>
</svg>
