<?xml version="1.0" encoding="utf-8"?>
<!-- Generator: Adobe Illustrator 16.0.0, SVG Export Plug-In . SVG Version: 6.00 Build 0)  -->
<!DOCTYPE svg PUBLIC "-//W3C//DTD SVG 1.1//EN" "http://www.w3.org/Graphics/SVG/1.1/DTD/svg11.dtd">
<svg version="1.1" id="Layer_1" xmlns="http://www.w3.org/2000/svg" xmlns:xlink="http://www.w3.org/1999/xlink" x="0px" y="0px"
	 width="612px" height="792px" viewBox="0 0 612 792" enable-background="new 0 0 612 792" xml:space="preserve">
<path fill="#010101" d="M398.684,401.309c0.146,1.75-0.152,3.623,0.186,5.469c0.328,0.773,0.593,1.554,0.873,2.349
	c0.82,2.085,1.734,3.99,3.311,4.865c1.284-2.556,2.463-5.285,2.743-8.496c-0.084-2.099-0.508-4.063-1.249-5.928
	c-1.15-2.94-3.061-5.579-5.613-7.851c-0.082-0.08-0.143-0.11-0.186-0.171l-0.414-0.012c0.093,0.271,0.165,0.577,0.247,0.886
	C399.258,395.306,398.963,398.098,398.684,401.309"/>
<path fill="#010101" d="M398.882,419.089c-1.817-3.577-5.513-6.852-6.38-10.245l-0.531-0.223c-1.337,3.336-1.193,7.326-0.169,10.95
	c1.108,4.704,3.424,8.369,4.508,12.994c0.194,0.891,0.353,1.775,0.458,2.742c6.957-5.049,13.37-10.808,15.182-19.897l-12.192,6.13
	C399.594,420.692,399.264,419.854,398.882,419.089"/>
<path fill="#010101" d="M379.279,460.246c-0.916-0.017-1.783-0.026-2.639,0.015c3.212-4.571,2.291-10.164,4.059-15.119l-0.018-0.219
	c-5.329,2.008-8.124,6.7-10.73,11.657c-1.861,3.592-3.684,7.273-6.34,9.993c1.109,0.08,2.153,0.229,3.234,0.389
	c1.122,0.163,2.275,0.386,3.436,0.691c2.305,0.136,4.58,0.238,6.732,0.167c4.035-0.171,7.794-0.854,11.036-2.605
	c1.502-0.798,2.901-1.85,4.131-3.161c-0.948-0.154-1.992-0.342-3.028-0.524C385.889,460.975,382.455,460.404,379.279,460.246"/>
<path fill="#010101" d="M392.279,444.673c-1.494-5.036-4.275-10.122-3.865-15.641l-0.143-0.22l-0.374,0.165
	c-0.044,0.036-0.097,0.108-0.101,0.145c-0.293,0.501-0.602,0.786-1.137,1.3c-3.805,6.707-3.229,14.78-1.274,21.92
	c0.319,1.176,0.653,2.295,1.062,3.425c3.424-2.676,7.645-3.358,11.443-5.306c0.342-0.207,0.677-0.37,1.029-0.582
	c3.66-2.641,5.886-7.007,6.842-11.183c-2.373,0.757-4.701,1.368-6.877,2.186C396.539,441.728,394.277,442.87,392.279,444.673"/>
<path fill="#010101" d="M213.479,401.438c-0.24,1.74-0.043,3.626-0.48,5.45c-0.37,0.755-0.676,1.521-0.998,2.299
	c-0.932,2.037-1.947,3.891-3.567,4.681c-1.146-2.622-2.175-5.41-2.282-8.632c0.197-2.092,0.727-4.029,1.567-5.854
	c1.306-2.873,3.356-5.406,6.026-7.536c0.086-0.075,0.15-0.103,0.195-0.161l0.416,0.012c-0.107,0.267-0.197,0.566-0.295,0.871
	C213.229,395.414,213.373,398.217,213.479,401.438"/>
<path fill="#010101" d="M213.203,419.089c1.817-3.577,5.512-6.852,6.379-10.245l0.532-0.223c1.337,3.336,1.192,7.326,0.168,10.95
	c-1.108,4.704-3.424,8.369-4.508,12.994c-0.192,0.891-0.353,1.775-0.458,2.742c-6.956-5.049-13.369-10.808-15.182-19.897
	l12.193,6.13C212.491,420.692,212.82,419.854,213.203,419.089"/>
<path fill="#010101" d="M232.807,460.246c0.915-0.017,1.782-0.026,2.637,0.015c-3.211-4.571-2.289-10.164-4.058-15.119l0.017-0.219
	c5.33,2.008,8.125,6.7,10.731,11.657c1.861,3.592,3.683,7.273,6.339,9.993c-1.109,0.08-2.152,0.229-3.234,0.389
	c-1.121,0.163-2.274,0.386-3.435,0.691c-2.306,0.136-4.581,0.238-6.731,0.167c-4.036-0.171-7.795-0.854-11.037-2.605
	c-1.502-0.798-2.902-1.85-4.131-3.161c0.949-0.154,1.992-0.342,3.027-0.524C226.197,460.975,229.63,460.404,232.807,460.246"/>
<path fill="#010101" d="M219.807,444.673c1.493-5.036,4.273-10.122,3.863-15.641l0.143-0.22l0.375,0.165
	c0.045,0.036,0.096,0.108,0.101,0.145c0.292,0.501,0.601,0.786,1.136,1.3c3.805,6.707,3.23,14.78,1.275,21.92
	c-0.32,1.176-0.653,2.295-1.063,3.425c-3.423-2.676-7.645-3.358-11.443-5.306c-0.34-0.207-0.676-0.37-1.028-0.582
	c-3.66-2.641-5.886-7.007-6.841-11.183c2.373,0.757,4.699,1.368,6.875,2.186C215.545,441.728,217.807,442.87,219.807,444.673"/>
<path fill="#FFFFFF" d="M266.779,368.532c0.865-2.783-0.534-6.177-3.11-7.54l-27.573-14.598l-29.302-15.511
	c-2.575-1.363-4.94-0.108-5.252,2.79c0,0-3.294,30.512,20.819,39.177c24.115,8.665,33.758,12.13,33.758,12.13
	c2.742,0.985,5.695-0.484,6.561-3.269L266.779,368.532z"/>
<path fill="#FFFFFF" d="M345.383,368.532c-0.867-2.783,0.533-6.177,3.109-7.54l27.572-14.598l29.303-15.511
	c2.576-1.363,4.939-0.108,5.252,2.79c0,0,3.294,30.512-20.82,39.177c-24.113,8.665-33.757,12.13-33.757,12.13
	c-2.743,0.985-5.696-0.484-6.562-3.269L345.383,368.532z"/>
<path fill="none" stroke="#010101" stroke-width="5.77" stroke-miterlimit="10" d="M266.779,368.532
	c0.865-2.783-0.534-6.177-3.11-7.54l-27.573-14.598l-29.302-15.511c-2.575-1.363-4.94-0.108-5.252,2.79
	c0,0-3.294,30.512,20.819,39.177c24.115,8.665,33.758,12.13,33.758,12.13c2.742,0.985,5.695-0.484,6.561-3.269L266.779,368.532z"/>
<path fill="none" stroke="#010101" stroke-width="5.77" stroke-miterlimit="10" d="M345.383,368.532
	c-0.867-2.783,0.533-6.177,3.109-7.54l27.572-14.598l29.303-15.511c2.576-1.363,4.939-0.108,5.252,2.79
	c0,0,3.294,30.512-20.82,39.177c-24.113,8.665-33.757,12.13-33.757,12.13c-2.743,0.985-5.696-0.484-6.562-3.269L345.383,368.532z"/>
<rect x="261.189" y="426.861" fill="#010101" width="85" height="43.667"/>
<polygon fill="#010101" points="334.491,456.025 360.328,447.046 347.255,437.266 295.747,461.528 "/>
<polygon fill="#010101" points="307.748,462.528 251.053,447.046 264.125,437.266 312.248,459.028 "/>
<polygon fill="#FFFFFF" points="358.004,478.863 305.711,493.046 253.418,477.358 253.418,449.837 305.711,459.525 358.004,449.837 
	"/>
<polygon fill="none" stroke="#010101" stroke-width="4.515" stroke-miterlimit="10" points="358.004,478.863 305.711,491.646 
	253.418,478.863 253.418,449.837 305.711,458.62 358.004,449.837 "/>
<path fill="#FECF0A" d="M306.029,332.388h-66.783c0,0.091,0.002,0.181,0.002,0.272v71.94c0,0,2.765,28.095,33.166,36.624
	c29.393,8.245,33.383,17.896,33.615,18.529c0.008,0.021,0.012,0.032,0.012,0.032s3.226-10.034,33.627-18.562
	c30.404-8.529,33.166-36.624,33.166-36.624v-71.901c0.002-0.013,0.002-0.025,0.002-0.039c0-0.092,0.002-0.182,0.002-0.272H306.029z"
	/>
<g opacity="0.5">
	<g>
		<defs>
			<rect id="SVGID_1_" x="306.029" y="332.39" width="66.811" height="127.4"/>
		</defs>
		<clipPath id="SVGID_2_">
			<use xlink:href="#SVGID_1_"  overflow="visible"/>
		</clipPath>
		<path clip-path="url(#SVGID_2_)" fill="#CDA72C" d="M339.669,441.224c30.401-8.528,33.165-36.624,33.165-36.624v-71.9
			c0.002-0.014,0.002-0.026,0.002-0.039c0-0.092,0.002-0.182,0.003-0.273h-66.81v127.366c0.008,0.022,0.012,0.034,0.012,0.034
			S309.267,449.753,339.669,441.224"/>
	</g>
</g>
<path fill="#191818" d="M367.473,307.61l3.393,5.225c-2.296,2.726-4.316,6.396-5.445,11.187H246.664
	c-1.127-4.79-3.148-8.461-5.443-11.187l3.392-5.225h28.032h23.781h9.199h33.814H367.473 M372.016,299.244h-32.576h-33.814h-9.199
	h-23.781h-32.575l-10.034,15.454c0,0,9.1,2.806,9.211,17.689h133.592c0.111-14.884,9.211-17.689,9.211-17.689L372.016,299.244z"/>
<g opacity="0.4">
	<g>
		<defs>
			<rect id="SVGID_3_" x="230.04" y="299.24" width="152.01" height="160.55"/>
		</defs>
		<clipPath id="SVGID_4_">
			<use xlink:href="#SVGID_3_"  overflow="visible"/>
		</clipPath>
		<path clip-path="url(#SVGID_4_)" fill="#FFFFFF" d="M364.045,313.041c-2.642,4.356-4.93,10.604-5.002,19.229v0.004l-0.004,0.261
			v0.082v0.082v70.951c-0.224,1.223-1.07,5.082-3.449,9.367c-4.106,7.396-10.717,12.417-19.647,14.923
			c-13.944,3.912-23.452,8.354-29.929,12.659c-6.467-4.301-15.956-8.755-29.872-12.659c-8.597-2.412-15.05-7.16-19.183-14.113
			c-2.711-4.559-3.654-8.787-3.914-10.226V332.66l-0.002-0.376c-0.065-8.624-2.356-14.881-5.004-19.243h24.605h23.781h9.199h33.814
			H364.045 M372.016,299.244h-32.576h-33.814h-9.199h-23.781h-32.575l-10.034,15.454c0,0,9.1,2.806,9.211,17.689
			c0,0.091,0.002,0.181,0.002,0.272v71.94c0,0,2.764,28.095,33.166,36.624c29.394,8.245,33.383,17.896,33.615,18.528
			c0.008,0.022,0.012,0.033,0.012,0.033s3.226-10.034,33.627-18.562c30.403-8.529,33.166-36.624,33.166-36.624v-71.901
			c0.002-0.013,0.002-0.025,0.002-0.039c0-0.092,0.002-0.182,0.002-0.272c0.111-14.884,9.211-17.689,9.211-17.689L372.016,299.244z"
			/>
	</g>
</g>
<path fill="#1A1A19" d="M382.049,314.698l-10.033-15.454h-32.576h-33.815h-9.198h-23.781H240.07l-10.035,15.454
	c0,0,9.1,2.807,9.211,17.688v7.526h133.593v-7.526C372.949,317.505,382.049,314.698,382.049,314.698"/>
<path fill="#FFFFFF" d="M259.744,328.387v-4.275h-8.188v-3.372l7.044-12.434h5.178v12.253h2.018v3.553h-2.018v4.275H259.744z
	 M259.744,312.4l-4.547,8.158h4.547V312.4z"/>
<polygon fill="#FFFFFF" points="286.866,328.387 284.275,315.02 281.718,328.387 277.503,328.387 272.927,308.306 277.262,308.306 
	279.852,322.275 282.711,308.306 285.872,308.306 288.762,322.275 291.32,308.306 295.656,308.306 291.081,328.387 "/>
<polygon fill="#FFFFFF" points="297.61,328.387 297.61,308.306 309.111,308.306 309.111,311.858 301.645,311.858 301.645,316.404 
	308.9,316.404 308.9,319.957 301.645,319.957 301.645,324.834 309.111,324.834 309.111,328.387 "/>
<polygon fill="#FFFFFF" points="312.089,328.387 312.089,308.306 323.59,308.306 323.59,311.858 316.123,311.858 316.123,316.404 
	323.379,316.404 323.379,319.957 316.123,319.957 316.123,324.834 323.59,324.834 323.59,328.387 "/>
<polygon fill="#FFFFFF" points="336.652,328.387 332.016,320.529 330.602,322.757 330.602,328.387 326.566,328.387 326.566,308.306 
	330.602,308.306 330.602,317.428 336.262,308.306 340.958,308.306 334.545,317.759 341.409,328.387 "/>
<path fill="#FFFFFF" d="M341.919,326.158l1.987-3.101c1.113,1.234,2.859,2.138,4.847,2.138c1.776,0,2.739-0.994,2.739-2.229
	c0-3.521-8.971-2.317-8.971-9.121c0-3.162,2.469-5.871,6.623-5.871c2.438,0,4.545,0.783,6.081,2.228l-1.927,3.011
	c-1.204-1.144-2.739-1.686-4.305-1.686c-1.445,0-2.349,0.813-2.349,2.047c0,3.131,8.941,2.288,8.941,9.063
	c0,3.521-2.408,6.111-6.804,6.111C345.742,328.748,343.515,327.754,341.919,326.158"/>
<polygon fill="#1A1A19" points="289.964,480.976 289.964,468.629 287.439,471.253 285.516,469.229 290.414,464.305 293.338,464.305 
	293.338,480.976 "/>
<path fill="#1A1A19" d="M295.615,472.652c0-4.299,1.774-8.598,5.898-8.598c4.148,0,5.898,4.299,5.898,8.598
	c0,4.274-1.725,8.623-5.898,8.623C297.39,481.275,295.615,476.927,295.615,472.652 M304.013,472.652c0-3.224-0.55-5.623-2.499-5.623
	c-1.926,0-2.475,2.399-2.475,5.623c0,3.199,0.549,5.648,2.475,5.648C303.463,478.301,304.013,475.852,304.013,472.652"/>
<polygon fill="#1A1A19" points="318.088,480.976 314.238,474.453 313.063,476.302 313.063,480.976 309.715,480.976 309.715,464.305 
	313.063,464.305 313.063,471.878 317.763,464.305 321.66,464.305 316.338,472.152 322.035,480.976 "/>
<g>
	<defs>
		<path id="SVGID_5_" d="M305.967,332.591h-66.222c0.002,0.089,0.005,0.177,0.005,0.27v71.335c0,0,2.738,27.856,32.887,36.313
			c29.143,8.177,33.1,17.746,33.33,18.373c0.008,0.021,0.012,0.033,0.012,0.033s3.198-9.95,33.345-18.406
			c30.146-8.457,32.886-36.313,32.886-36.313v-71.296c0-0.013,0-0.027,0-0.039c0-0.093,0.002-0.181,0.004-0.27H305.967z"/>
	</defs>
	<clipPath id="SVGID_6_">
		<use xlink:href="#SVGID_5_"  overflow="visible"/>
	</clipPath>
	<g opacity="0.5" clip-path="url(#SVGID_6_)">
		<g>
			<defs>
				<rect id="SVGID_7_" x="238.43" y="399.87" width="130.76" height="27.61"/>
			</defs>
			<clipPath id="SVGID_8_">
				<use xlink:href="#SVGID_7_"  overflow="visible"/>
			</clipPath>
			<path clip-path="url(#SVGID_8_)" fill="#CDA72C" d="M355.185,399.87c0,0-9.745,8.382-7.763,7.194c0,0-1.287,7.67-7.59,7.401
				c-6.303-0.267-8.125,9.171-7.882,11.126c0,0,3.949-4.619,10.466-2.967c6.518,1.654,10.059-2.413,10.936-3.702
				c0,0-2.33,7.688-6.85,8.269c0,0,11.194,2.166,15.59-5.346c4.395-7.514,6.612-16.36,7.084-17.155
				C369.646,403.896,355.185,399.87,355.185,399.87"/>
			<path clip-path="url(#SVGID_8_)" fill="#CDA72C" d="M342.361,421.278c0,0-7.975,1.536-6.607,1.02c0,0-4.303-2.372-6.645,0.854
				c-2.341,3.226-7.729,0.425-8.602-0.463c0,0,3.837-0.144,5.576-4.02c1.738-3.875,5.142-4.033,6.125-3.961
				c0,0-4.721-1.863-6.782,0.146c0,0,3.319-6.393,8.765-5.62c5.444,0.771,10.695,3.145,11.273,3.224
				C346.043,412.537,342.361,421.278,342.361,421.278"/>
			<path clip-path="url(#SVGID_8_)" fill="#CDA72C" d="M322.85,399.87c0,0-9.745,8.382-7.764,7.194c0,0-1.287,7.67-7.59,7.401
				c-6.303-0.267-8.125,9.171-7.882,11.126c0,0,3.95-4.619,10.466-2.967c6.518,1.654,10.059-2.413,10.937-3.702
				c0,0-2.331,7.688-6.849,8.269c0,0,11.193,2.166,15.588-5.346c4.396-7.514,6.613-16.36,7.084-17.155
				C337.312,403.896,322.85,399.87,322.85,399.87"/>
			<path clip-path="url(#SVGID_8_)" fill="#CDA72C" d="M310.027,421.278c0,0-7.976,1.536-6.609,1.02c0,0-4.303-2.372-6.644,0.854
				c-2.341,3.226-7.729,0.425-8.602-0.463c0,0,3.837-0.144,5.575-4.02c1.738-3.875,5.142-4.033,6.125-3.961
				c0,0-4.721-1.863-6.782,0.146c0,0,3.321-6.393,8.766-5.62c5.444,0.771,10.695,3.145,11.274,3.224
				C313.709,412.537,310.027,421.278,310.027,421.278"/>
			<path clip-path="url(#SVGID_8_)" fill="#CDA72C" d="M297.479,399.87c0,0-9.745,8.382-7.762,7.194c0,0-1.289,7.67-7.592,7.401
				c-6.302-0.267-8.125,9.171-7.881,11.126c0,0,3.949-4.619,10.467-2.967c6.516,1.654,10.057-2.413,10.935-3.702
				c0,0-2.33,7.688-6.849,8.269c0,0,11.193,2.166,15.588-5.346c4.396-7.514,6.613-16.36,7.084-17.155
				C311.94,403.896,297.479,399.87,297.479,399.87"/>
			<path clip-path="url(#SVGID_8_)" fill="#CDA72C" d="M284.656,421.278c0,0-7.976,1.536-6.609,1.02c0,0-4.303-2.372-6.644,0.854
				c-2.341,3.226-7.729,0.425-8.602-0.463c0,0,3.837-0.144,5.575-4.02c1.738-3.875,5.143-4.033,6.125-3.961
				c0,0-4.721-1.863-6.781,0.146c0,0,3.32-6.393,8.765-5.62c5.444,0.771,10.695,3.145,11.274,3.224
				C288.338,412.537,284.656,421.278,284.656,421.278"/>
			<path clip-path="url(#SVGID_8_)" fill="#CDA72C" d="M273.104,399.87c0,0-9.746,8.382-7.764,7.194c0,0-1.287,7.67-7.59,7.401
				c-6.303-0.267-8.126,9.171-7.883,11.126c0,0,3.951-4.619,10.467-2.967c6.517,1.654,10.058-2.413,10.936-3.702
				c0,0-2.33,7.688-6.849,8.269c0,0,11.194,2.166,15.589-5.346c4.395-7.514,6.613-16.36,7.084-17.155
				C287.564,403.896,273.104,399.87,273.104,399.87"/>
			<path clip-path="url(#SVGID_8_)" fill="#CDA72C" d="M260.28,421.278c0,0-7.976,1.536-6.609,1.02c0,0-4.303-2.372-6.644,0.854
				c-2.34,3.226-7.729,0.425-8.602-0.463c0,0,3.838-0.144,5.576-4.02c1.738-3.875,5.141-4.033,6.124-3.961
				c0,0-4.721-1.863-6.782,0.146c0,0,3.321-6.393,8.766-5.62c5.445,0.771,10.695,3.145,11.274,3.224
				C263.962,412.537,260.28,421.278,260.28,421.278"/>
		</g>
	</g>
	<path clip-path="url(#SVGID_6_)" fill="#FFFFFF" d="M268.494,403.646l0.16-5.136l1.02-15.3l0.373-5.574l0.52-7.803l0.173-2.601
		h23.409c0-5.201,5.202-7.803,5.202-7.803l2.288,1.716l1.873,1.405l0.832,0.624l3.9,2.926l26.826,18.854l0.694,0.485
		c0,0,0.577,0.231,1.565,0.621c0.002,0.001,0.006,0.002,0.01,0.004c0.054,0.021,0.108,0.043,0.164,0.065
		c0.024,0.009,0.049,0.019,0.074,0.029c0.053,0.02,0.105,0.041,0.16,0.063c0.014,0.005,0.027,0.011,0.041,0.017
		c0.061,0.023,0.12,0.048,0.182,0.071c0.021,0.009,0.043,0.018,0.064,0.025c0.061,0.024,0.12,0.047,0.182,0.072
		c0.01,0.004,0.021,0.008,0.032,0.012c0.099,0.039,0.198,0.078,0.3,0.118c0.057,0.021,0.112,0.044,0.17,0.066
		c0.055,0.021,0.11,0.043,0.166,0.065c0.034,0.013,0.068,0.027,0.104,0.041c0.061,0.024,0.124,0.048,0.186,0.072
		c0.033,0.013,0.065,0.025,0.098,0.039c0.057,0.021,0.115,0.044,0.173,0.066c0.044,0.019,0.089,0.035,0.135,0.054
		c0.056,0.021,0.114,0.044,0.172,0.066c0.035,0.014,0.071,0.028,0.106,0.042c0.066,0.026,0.135,0.052,0.203,0.079
		c0.048,0.02,0.096,0.038,0.145,0.056c0.046,0.019,0.092,0.036,0.137,0.055c0.086,0.032,0.172,0.065,0.258,0.1
		c0.02,0.008,0.039,0.015,0.058,0.022c0.089,0.034,0.179,0.069,0.269,0.104c0.028,0.011,0.057,0.022,0.084,0.033
		c0.068,0.026,0.139,0.053,0.207,0.08c0.068,0.026,0.137,0.053,0.205,0.079c1.188,0.462,2.5,0.967,3.87,1.487
		c0.003,0.001,0.005,0.003,0.009,0.003c0.137,0.054,0.276,0.106,0.416,0.158v0.001c0.133,0.05,0.266,0.101,0.397,0.151
		c0.021,0.007,0.042,0.015,0.063,0.023c0.123,0.047,0.25,0.095,0.375,0.142l0.033,0.013c0.137,0.051,0.272,0.104,0.409,0.154
		c0.003,0.001,0.004,0.002,0.006,0.002c0.138,0.052,0.273,0.103,0.411,0.155l0.038,0.014c0.126,0.048,0.253,0.095,0.379,0.144
		c0.022,0.008,0.044,0.016,0.065,0.023c0.123,0.046,0.246,0.092,0.369,0.138c0.021,0.009,0.043,0.017,0.063,0.024l0.36,0.134
		l0.08,0.03c0.119,0.044,0.238,0.089,0.357,0.133c0.025,0.009,0.051,0.018,0.075,0.028c0.114,0.042,0.228,0.084,0.342,0.126
		c0.034,0.013,0.068,0.025,0.103,0.038c0.109,0.041,0.221,0.082,0.33,0.122c0.033,0.012,0.065,0.023,0.099,0.035
		c0.11,0.041,0.221,0.082,0.331,0.122c0.035,0.014,0.07,0.026,0.105,0.039c0.108,0.04,0.217,0.079,0.325,0.119l0.103,0.038
		c0.107,0.039,0.215,0.078,0.322,0.117c0.035,0.013,0.072,0.025,0.108,0.04c0.103,0.037,0.205,0.074,0.308,0.11
		c0.041,0.016,0.082,0.03,0.123,0.046c0.101,0.036,0.2,0.071,0.301,0.107c0.039,0.015,0.08,0.03,0.119,0.044
		c0.103,0.037,0.203,0.073,0.306,0.11c0.038,0.013,0.077,0.026,0.116,0.041c0.093,0.034,0.186,0.067,0.277,0.1
		c0.049,0.018,0.098,0.034,0.145,0.052c0.094,0.033,0.186,0.065,0.277,0.099c0.043,0.015,0.088,0.031,0.131,0.046
		c0.104,0.037,0.205,0.073,0.309,0.11c0.031,0.011,0.063,0.021,0.094,0.032c0.098,0.034,0.193,0.068,0.29,0.103
		c0.04,0.014,0.081,0.028,0.121,0.042c0.084,0.03,0.166,0.058,0.249,0.087c0.051,0.018,0.102,0.036,0.152,0.053
		c0.086,0.03,0.17,0.061,0.256,0.089c0.044,0.016,0.089,0.031,0.133,0.047c0.081,0.027,0.16,0.055,0.24,0.082
		c0.05,0.018,0.101,0.035,0.15,0.053c0.075,0.024,0.15,0.051,0.225,0.076c0.052,0.018,0.103,0.034,0.154,0.053
		c0.076,0.025,0.151,0.051,0.228,0.077c0.049,0.016,0.098,0.032,0.146,0.049c0.123,0.041,0.244,0.082,0.364,0.122
		c0.238,0.079,0.468,0.166,0.692,0.26c0.004,0.001,0.008,0.003,0.012,0.004c0.219,0.092,0.432,0.191,0.639,0.296
		c0.006,0.003,0.014,0.006,0.021,0.01c0.203,0.104,0.398,0.214,0.589,0.328c0.01,0.005,0.019,0.011,0.028,0.017
		c0.188,0.113,0.367,0.232,0.543,0.356c0.012,0.008,0.023,0.016,0.033,0.023c0.174,0.122,0.34,0.251,0.502,0.382
		c0.012,0.01,0.023,0.019,0.035,0.029c0.16,0.131,0.314,0.267,0.463,0.405c0.012,0.012,0.024,0.022,0.035,0.033
		c0.148,0.14,0.291,0.283,0.43,0.429c0.01,0.013,0.021,0.023,0.031,0.034c0.139,0.148,0.271,0.3,0.398,0.452
		c0.009,0.011,0.02,0.022,0.027,0.033c0.129,0.155,0.252,0.313,0.369,0.473c0.008,0.01,0.016,0.021,0.022,0.03
		c0.119,0.163,0.233,0.328,0.343,0.495c0.006,0.007,0.012,0.014,0.016,0.021c0.111,0.17,0.219,0.343,0.32,0.517
		c0.002,0.004,0.004,0.008,0.008,0.012c1.156,1.974,1.619,4.133,1.891,5.764v9.458h-95.525V403.646z"/>
	<path clip-path="url(#SVGID_6_)" fill="#F8D012" d="M337.923,399.269l-43.409-30.932l4.507-7.193l11.64,9.148l27.281,18.479
		l0.748,0.507c0,0,2.846,1.103,6.743,2.561l0.007,0.032L337.923,399.269z"/>
	<path clip-path="url(#SVGID_6_)" fill="#F8D012" d="M335.786,386.521c0.563,0.227,13.159,5.253,20.786,7.795
		c3.854,1.285,5.802,4.472,6.789,7.369h-38.678L335.786,386.521z"/>
	<polygon clip-path="url(#SVGID_6_)" fill="#191818" points="310.82,369.268 303.873,375.413 307.375,366.824 	"/>
	<polygon clip-path="url(#SVGID_6_)" fill="#191818" points="317.355,373.925 310.41,380.069 313.91,371.481 	"/>
	
		<line clip-path="url(#SVGID_6_)" fill="none" stroke="#191818" stroke-width="2.148" stroke-miterlimit="10" x1="363.361" y1="402.491" x2="268.493" y2="402.491"/>
	<polygon clip-path="url(#SVGID_6_)" fill="#191818" points="323.893,378.581 316.946,384.727 320.447,376.139 	"/>
	<polygon clip-path="url(#SVGID_6_)" fill="#191818" points="330.43,383.238 323.482,389.383 326.984,380.795 	"/>
	<polygon clip-path="url(#SVGID_6_)" fill="#191818" points="336.965,387.896 330.02,394.04 333.52,385.452 	"/>
	<path clip-path="url(#SVGID_6_)" fill="none" stroke="#191818" stroke-width="4.296" stroke-miterlimit="10" d="M268.494,403.646
		l0.16-5.136l1.02-15.3l0.373-5.574l0.52-7.803l0.173-2.601h23.409c0-5.201,5.202-7.803,5.202-7.803l2.288,1.716l1.873,1.405
		l0.832,0.624l3.9,2.926l26.826,18.854l0.694,0.485c0,0,0.577,0.231,1.565,0.621c0.002,0.001,0.006,0.002,0.01,0.004
		c0.054,0.021,0.108,0.043,0.164,0.065c0.024,0.009,0.049,0.019,0.074,0.029c0.053,0.02,0.105,0.041,0.16,0.063
		c0.014,0.005,0.027,0.011,0.041,0.017c0.061,0.023,0.12,0.048,0.182,0.071c0.021,0.009,0.043,0.018,0.064,0.025
		c0.061,0.024,0.12,0.047,0.182,0.072c0.01,0.004,0.021,0.008,0.032,0.012c0.099,0.039,0.198,0.078,0.3,0.118
		c0.057,0.021,0.112,0.044,0.17,0.066c0.055,0.021,0.11,0.043,0.166,0.065c0.034,0.013,0.068,0.027,0.104,0.041
		c0.061,0.024,0.124,0.048,0.186,0.072c0.033,0.013,0.065,0.025,0.098,0.039c0.057,0.021,0.115,0.044,0.173,0.066
		c0.044,0.019,0.089,0.035,0.135,0.054c0.056,0.021,0.114,0.044,0.172,0.066c0.035,0.014,0.071,0.028,0.106,0.042
		c0.066,0.026,0.135,0.052,0.203,0.079c0.048,0.02,0.096,0.038,0.145,0.056c0.046,0.019,0.092,0.036,0.137,0.055
		c0.086,0.032,0.172,0.065,0.258,0.1c0.02,0.008,0.039,0.015,0.058,0.022c0.089,0.034,0.179,0.069,0.269,0.104
		c0.028,0.011,0.057,0.022,0.084,0.033c0.068,0.026,0.139,0.053,0.207,0.08c0.068,0.026,0.137,0.053,0.205,0.079
		c1.188,0.462,2.5,0.967,3.87,1.487c0.003,0.001,0.005,0.003,0.009,0.003c0.137,0.054,0.276,0.106,0.416,0.158v0.001
		c0.133,0.05,0.266,0.101,0.397,0.151c0.021,0.007,0.042,0.015,0.063,0.023c0.123,0.047,0.25,0.095,0.375,0.142l0.033,0.013
		c0.137,0.051,0.272,0.104,0.409,0.154c0.003,0.001,0.004,0.002,0.006,0.002c0.138,0.052,0.273,0.103,0.411,0.155l0.038,0.014
		c0.126,0.048,0.253,0.095,0.379,0.144c0.022,0.008,0.044,0.016,0.065,0.023c0.123,0.046,0.246,0.092,0.369,0.138
		c0.021,0.009,0.043,0.017,0.063,0.024l0.36,0.134l0.08,0.03c0.119,0.044,0.238,0.089,0.357,0.133
		c0.025,0.009,0.051,0.018,0.075,0.028c0.114,0.042,0.228,0.084,0.342,0.126c0.034,0.013,0.068,0.025,0.103,0.038
		c0.109,0.041,0.221,0.082,0.33,0.122c0.033,0.012,0.065,0.023,0.099,0.035c0.11,0.041,0.221,0.082,0.331,0.122
		c0.035,0.014,0.07,0.026,0.105,0.039c0.108,0.04,0.217,0.079,0.325,0.119l0.103,0.038c0.107,0.039,0.215,0.078,0.322,0.117
		c0.035,0.013,0.072,0.025,0.108,0.04c0.103,0.037,0.205,0.074,0.308,0.11c0.041,0.016,0.082,0.03,0.123,0.046
		c0.101,0.036,0.2,0.071,0.301,0.107c0.039,0.015,0.08,0.03,0.119,0.044c0.103,0.037,0.203,0.073,0.306,0.11
		c0.038,0.013,0.077,0.026,0.116,0.041c0.093,0.034,0.186,0.067,0.277,0.1c0.049,0.018,0.098,0.034,0.145,0.052
		c0.094,0.033,0.186,0.065,0.277,0.099c0.043,0.015,0.088,0.031,0.131,0.046c0.104,0.037,0.205,0.073,0.309,0.11
		c0.031,0.011,0.063,0.021,0.094,0.032c0.098,0.034,0.193,0.068,0.29,0.103c0.04,0.014,0.081,0.028,0.121,0.042
		c0.084,0.03,0.166,0.058,0.249,0.087c0.051,0.018,0.102,0.036,0.152,0.053c0.086,0.03,0.17,0.061,0.256,0.089
		c0.044,0.016,0.089,0.031,0.133,0.047c0.081,0.027,0.16,0.055,0.24,0.082c0.05,0.018,0.101,0.035,0.15,0.053
		c0.075,0.024,0.15,0.051,0.225,0.076c0.052,0.018,0.103,0.034,0.154,0.053c0.076,0.025,0.151,0.051,0.228,0.077
		c0.049,0.016,0.098,0.032,0.146,0.049c0.123,0.041,0.244,0.082,0.364,0.122c0.238,0.079,0.468,0.166,0.692,0.26
		c0.004,0.001,0.008,0.003,0.012,0.004c0.219,0.092,0.432,0.191,0.639,0.296c0.006,0.003,0.014,0.006,0.021,0.01
		c0.203,0.104,0.398,0.214,0.589,0.328c0.01,0.005,0.019,0.011,0.028,0.017c0.188,0.113,0.367,0.232,0.543,0.356
		c0.012,0.008,0.023,0.016,0.033,0.023c0.174,0.122,0.34,0.251,0.502,0.382c0.012,0.01,0.023,0.019,0.035,0.029
		c0.16,0.131,0.314,0.267,0.463,0.405c0.012,0.012,0.024,0.022,0.035,0.033c0.148,0.14,0.291,0.283,0.43,0.429
		c0.01,0.013,0.021,0.023,0.031,0.034c0.139,0.148,0.271,0.3,0.398,0.452c0.009,0.011,0.02,0.022,0.027,0.033
		c0.129,0.155,0.252,0.313,0.369,0.473c0.008,0.01,0.016,0.021,0.022,0.03c0.119,0.163,0.233,0.328,0.343,0.495
		c0.006,0.007,0.012,0.014,0.016,0.021c0.111,0.17,0.219,0.343,0.32,0.517c0.002,0.004,0.004,0.008,0.008,0.012
		c1.156,1.974,1.619,4.133,1.891,5.764v9.458h-95.525V403.646z"/>
	<path clip-path="url(#SVGID_6_)" fill="#FFFFFF" d="M227.671,403.646l0.161-5.136l1.02-15.3l0.372-5.574l0.521-7.803l0.172-2.601
		h23.41c0-5.201,5.201-7.803,5.201-7.803l2.288,1.716l1.874,1.405l0.832,0.624l3.9,2.926l26.826,18.854l0.693,0.485
		c0,0,0.578,0.231,1.565,0.621c0.003,0.001,0.007,0.002,0.01,0.004c0.054,0.021,0.108,0.043,0.165,0.065
		c0.023,0.009,0.049,0.019,0.073,0.029c0.053,0.02,0.106,0.041,0.161,0.063c0.014,0.005,0.027,0.011,0.041,0.017
		c0.06,0.023,0.119,0.048,0.182,0.071c0.021,0.009,0.043,0.018,0.064,0.025c0.06,0.024,0.119,0.047,0.182,0.072
		c0.011,0.004,0.021,0.008,0.031,0.012c0.099,0.039,0.199,0.078,0.301,0.118c0.057,0.021,0.111,0.044,0.169,0.066
		c0.055,0.021,0.11,0.043,0.166,0.065c0.034,0.013,0.069,0.027,0.104,0.041c0.061,0.024,0.123,0.048,0.186,0.072
		c0.033,0.013,0.064,0.025,0.098,0.039c0.057,0.021,0.114,0.044,0.172,0.066c0.045,0.019,0.09,0.035,0.135,0.054
		c0.057,0.021,0.115,0.044,0.172,0.066c0.035,0.014,0.072,0.028,0.106,0.042c0.067,0.026,0.136,0.052,0.204,0.079
		c0.047,0.02,0.096,0.038,0.145,0.056c0.045,0.019,0.091,0.036,0.138,0.055c0.084,0.032,0.17,0.065,0.257,0.1
		c0.02,0.008,0.038,0.015,0.057,0.022c0.09,0.034,0.18,0.069,0.27,0.104c0.027,0.011,0.056,0.022,0.084,0.033
		c0.068,0.026,0.138,0.053,0.207,0.08c0.068,0.026,0.136,0.053,0.204,0.079c1.188,0.462,2.501,0.967,3.87,1.487
		c0.004,0.001,0.006,0.003,0.009,0.003c0.138,0.054,0.276,0.106,0.416,0.158l0.001,0.001c0.133,0.05,0.265,0.101,0.398,0.151
		c0.02,0.007,0.041,0.015,0.062,0.023c0.125,0.047,0.25,0.095,0.375,0.142c0.012,0.004,0.022,0.009,0.034,0.013
		c0.136,0.051,0.273,0.104,0.41,0.154c0.002,0.001,0.004,0.002,0.006,0.002c0.136,0.052,0.273,0.103,0.41,0.155
		c0.012,0.005,0.024,0.01,0.037,0.014c0.127,0.048,0.254,0.095,0.381,0.144c0.021,0.008,0.043,0.016,0.064,0.023
		c0.122,0.046,0.245,0.092,0.368,0.138c0.021,0.009,0.043,0.017,0.065,0.024l0.359,0.134c0.026,0.01,0.053,0.021,0.079,0.03
		c0.119,0.044,0.239,0.089,0.358,0.133c0.025,0.009,0.05,0.018,0.074,0.028c0.114,0.042,0.229,0.084,0.342,0.126
		c0.035,0.013,0.068,0.025,0.103,0.038c0.11,0.041,0.222,0.082,0.331,0.122c0.033,0.012,0.066,0.023,0.098,0.035
		c0.111,0.041,0.221,0.082,0.332,0.122c0.034,0.014,0.069,0.026,0.104,0.039c0.108,0.04,0.217,0.079,0.325,0.119
		c0.035,0.013,0.068,0.025,0.104,0.038c0.107,0.039,0.215,0.078,0.321,0.117c0.036,0.013,0.073,0.025,0.108,0.04
		c0.104,0.037,0.205,0.074,0.308,0.11c0.041,0.016,0.082,0.03,0.123,0.046c0.101,0.036,0.2,0.071,0.301,0.107
		c0.04,0.015,0.08,0.03,0.12,0.044c0.102,0.037,0.204,0.073,0.305,0.11c0.039,0.013,0.077,0.026,0.116,0.041
		c0.093,0.034,0.187,0.067,0.278,0.1c0.049,0.018,0.097,0.034,0.145,0.052c0.094,0.033,0.186,0.065,0.276,0.099
		c0.044,0.015,0.088,0.031,0.131,0.046c0.104,0.037,0.206,0.073,0.31,0.11c0.03,0.011,0.062,0.021,0.094,0.032
		c0.097,0.034,0.193,0.068,0.289,0.103c0.041,0.014,0.082,0.028,0.121,0.042c0.084,0.03,0.166,0.058,0.25,0.087
		c0.051,0.018,0.102,0.036,0.151,0.053c0.086,0.03,0.171,0.061,0.257,0.089c0.043,0.016,0.088,0.031,0.133,0.047
		c0.08,0.027,0.16,0.055,0.24,0.082c0.051,0.018,0.1,0.035,0.15,0.053c0.076,0.024,0.15,0.051,0.225,0.076
		c0.051,0.018,0.102,0.034,0.153,0.053c0.077,0.025,0.153,0.051,0.228,0.077c0.049,0.016,0.098,0.032,0.146,0.049
		c0.122,0.041,0.244,0.082,0.363,0.122c0.238,0.079,0.469,0.166,0.692,0.26c0.005,0.001,0.009,0.003,0.013,0.004
		c0.219,0.092,0.432,0.191,0.638,0.296c0.008,0.003,0.015,0.006,0.022,0.01c0.202,0.104,0.398,0.214,0.588,0.328
		c0.01,0.005,0.02,0.011,0.029,0.017c0.188,0.113,0.368,0.232,0.543,0.356c0.012,0.008,0.022,0.016,0.033,0.023
		c0.173,0.122,0.34,0.251,0.502,0.382c0.012,0.01,0.023,0.019,0.035,0.029c0.16,0.131,0.314,0.267,0.463,0.405
		c0.012,0.012,0.023,0.022,0.035,0.033c0.148,0.14,0.291,0.283,0.429,0.429c0.011,0.013,0.022,0.023,0.032,0.034
		c0.138,0.148,0.27,0.3,0.398,0.452c0.008,0.011,0.019,0.022,0.027,0.033c0.128,0.155,0.251,0.313,0.369,0.473
		c0.008,0.01,0.016,0.021,0.021,0.03c0.121,0.163,0.234,0.328,0.345,0.495c0.005,0.007,0.01,0.014,0.015,0.021
		c0.111,0.17,0.219,0.343,0.32,0.517c0.002,0.004,0.005,0.008,0.007,0.012c1.157,1.974,1.619,4.133,1.892,5.764v9.458h-95.526
		V403.646z"/>
	<path clip-path="url(#SVGID_6_)" fill="#F8D012" d="M297.101,399.269l-43.409-30.932l4.507-7.193l11.64,9.148l27.281,18.479
		l0.747,0.507c0,0,2.847,1.103,6.743,2.561l0.008,0.032L297.101,399.269z"/>
	<path clip-path="url(#SVGID_6_)" fill="#F8D012" d="M294.963,386.521c0.564,0.227,13.159,5.253,20.786,7.795
		c3.854,1.285,5.804,4.472,6.789,7.369H283.86L294.963,386.521z"/>
	<polygon clip-path="url(#SVGID_6_)" fill="#191818" points="269.997,369.268 263.051,375.413 266.552,366.824 	"/>
	<polygon clip-path="url(#SVGID_6_)" fill="#191818" points="276.533,373.925 269.588,380.069 273.088,371.481 	"/>
	
		<line clip-path="url(#SVGID_6_)" fill="none" stroke="#191818" stroke-width="2.148" stroke-miterlimit="10" x1="322.539" y1="402.491" x2="227.67" y2="402.491"/>
	<polygon clip-path="url(#SVGID_6_)" fill="#191818" points="283.07,378.581 276.123,384.727 279.625,376.139 	"/>
	<polygon clip-path="url(#SVGID_6_)" fill="#191818" points="289.606,383.238 282.66,389.383 286.161,380.795 	"/>
	<polygon clip-path="url(#SVGID_6_)" fill="#191818" points="296.143,387.896 289.196,394.04 292.697,385.452 	"/>
	<path clip-path="url(#SVGID_6_)" fill="none" stroke="#191818" stroke-width="4.296" stroke-miterlimit="10" d="M227.671,403.646
		l0.161-5.136l1.02-15.3l0.372-5.574l0.521-7.803l0.172-2.601h23.41c0-5.201,5.201-7.803,5.201-7.803l2.288,1.716l1.874,1.405
		l0.832,0.624l3.9,2.926l26.826,18.854l0.693,0.485c0,0,0.578,0.231,1.565,0.621c0.003,0.001,0.007,0.002,0.01,0.004
		c0.054,0.021,0.108,0.043,0.165,0.065c0.023,0.009,0.049,0.019,0.073,0.029c0.053,0.02,0.106,0.041,0.161,0.063
		c0.014,0.005,0.027,0.011,0.041,0.017c0.06,0.023,0.119,0.048,0.182,0.071c0.021,0.009,0.043,0.018,0.064,0.025
		c0.06,0.024,0.119,0.047,0.182,0.072c0.011,0.004,0.021,0.008,0.031,0.012c0.099,0.039,0.199,0.078,0.301,0.118
		c0.057,0.021,0.111,0.044,0.169,0.066c0.055,0.021,0.11,0.043,0.166,0.065c0.034,0.013,0.069,0.027,0.104,0.041
		c0.061,0.024,0.123,0.048,0.186,0.072c0.033,0.013,0.064,0.025,0.098,0.039c0.057,0.021,0.114,0.044,0.172,0.066
		c0.045,0.019,0.09,0.035,0.135,0.054c0.057,0.021,0.115,0.044,0.172,0.066c0.035,0.014,0.072,0.028,0.106,0.042
		c0.067,0.026,0.136,0.052,0.204,0.079c0.047,0.02,0.096,0.038,0.145,0.056c0.045,0.019,0.091,0.036,0.138,0.055
		c0.084,0.032,0.17,0.065,0.257,0.1c0.02,0.008,0.038,0.015,0.057,0.022c0.09,0.034,0.18,0.069,0.27,0.104
		c0.027,0.011,0.056,0.022,0.084,0.033c0.068,0.026,0.138,0.053,0.207,0.08c0.068,0.026,0.136,0.053,0.204,0.079
		c1.188,0.462,2.501,0.967,3.87,1.487c0.004,0.001,0.006,0.003,0.009,0.003c0.138,0.054,0.276,0.106,0.416,0.158l0.001,0.001
		c0.133,0.05,0.265,0.101,0.398,0.151c0.02,0.007,0.041,0.015,0.062,0.023c0.125,0.047,0.25,0.095,0.375,0.142
		c0.012,0.004,0.022,0.009,0.034,0.013c0.136,0.051,0.273,0.104,0.41,0.154c0.002,0.001,0.004,0.002,0.006,0.002
		c0.136,0.052,0.273,0.103,0.41,0.155c0.012,0.005,0.024,0.01,0.037,0.014c0.127,0.048,0.254,0.095,0.381,0.144
		c0.021,0.008,0.043,0.016,0.064,0.023c0.122,0.046,0.245,0.092,0.368,0.138c0.021,0.009,0.043,0.017,0.065,0.024l0.359,0.134
		c0.026,0.01,0.053,0.021,0.079,0.03c0.119,0.044,0.239,0.089,0.358,0.133c0.025,0.009,0.05,0.018,0.074,0.028
		c0.114,0.042,0.229,0.084,0.342,0.126c0.035,0.013,0.068,0.025,0.103,0.038c0.11,0.041,0.222,0.082,0.331,0.122
		c0.033,0.012,0.066,0.023,0.098,0.035c0.111,0.041,0.221,0.082,0.332,0.122c0.034,0.014,0.069,0.026,0.104,0.039
		c0.108,0.04,0.217,0.079,0.325,0.119c0.035,0.013,0.068,0.025,0.104,0.038c0.107,0.039,0.215,0.078,0.321,0.117
		c0.036,0.013,0.073,0.025,0.108,0.04c0.104,0.037,0.205,0.074,0.308,0.11c0.041,0.016,0.082,0.03,0.123,0.046
		c0.101,0.036,0.2,0.071,0.301,0.107c0.04,0.015,0.08,0.03,0.12,0.044c0.102,0.037,0.204,0.073,0.305,0.11
		c0.039,0.013,0.077,0.026,0.116,0.041c0.093,0.034,0.187,0.067,0.278,0.1c0.049,0.018,0.097,0.034,0.145,0.052
		c0.094,0.033,0.186,0.065,0.276,0.099c0.044,0.015,0.088,0.031,0.131,0.046c0.104,0.037,0.206,0.073,0.31,0.11
		c0.03,0.011,0.062,0.021,0.094,0.032c0.097,0.034,0.193,0.068,0.289,0.103c0.041,0.014,0.082,0.028,0.121,0.042
		c0.084,0.03,0.166,0.058,0.25,0.087c0.051,0.018,0.102,0.036,0.151,0.053c0.086,0.03,0.171,0.061,0.257,0.089
		c0.043,0.016,0.088,0.031,0.133,0.047c0.08,0.027,0.16,0.055,0.24,0.082c0.051,0.018,0.1,0.035,0.15,0.053
		c0.076,0.024,0.15,0.051,0.225,0.076c0.051,0.018,0.102,0.034,0.153,0.053c0.077,0.025,0.153,0.051,0.228,0.077
		c0.049,0.016,0.098,0.032,0.146,0.049c0.122,0.041,0.244,0.082,0.363,0.122c0.238,0.079,0.469,0.166,0.692,0.26
		c0.005,0.001,0.009,0.003,0.013,0.004c0.219,0.092,0.432,0.191,0.638,0.296c0.008,0.003,0.015,0.006,0.022,0.01
		c0.202,0.104,0.398,0.214,0.588,0.328c0.01,0.005,0.02,0.011,0.029,0.017c0.188,0.113,0.368,0.232,0.543,0.356
		c0.012,0.008,0.022,0.016,0.033,0.023c0.173,0.122,0.34,0.251,0.502,0.382c0.012,0.01,0.023,0.019,0.035,0.029
		c0.16,0.131,0.314,0.267,0.463,0.405c0.012,0.012,0.023,0.022,0.035,0.033c0.148,0.14,0.291,0.283,0.429,0.429
		c0.011,0.013,0.022,0.023,0.032,0.034c0.138,0.148,0.27,0.3,0.398,0.452c0.008,0.011,0.019,0.022,0.027,0.033
		c0.128,0.155,0.251,0.313,0.369,0.473c0.008,0.01,0.016,0.021,0.021,0.03c0.121,0.163,0.234,0.328,0.345,0.495
		c0.005,0.007,0.01,0.014,0.015,0.021c0.111,0.17,0.219,0.343,0.32,0.517c0.002,0.004,0.005,0.008,0.007,0.012
		c1.157,1.974,1.619,4.133,1.892,5.764v9.458h-95.526V403.646z"/>
	<polygon clip-path="url(#SVGID_6_)" fill="#F8D012" points="255.132,379.355 268.431,386.134 264.877,388.908 271.137,395.462 
		257.838,388.684 261.392,385.908 	"/>
</g>
<path fill="#191818" d="M367.473,307.61l3.393,5.225c-3.477,4.128-6.324,10.429-6.393,19.495v0.061v0.04l-0.002,0.024l-0.002,0.165
	v0.04v0.039v71.372c-0.436,2.981-4.159,22.673-27.06,29.098c-5.879,1.649-21.528,6.528-31.393,14.107
	c-5.685-4.468-15.251-9.594-31.343-14.107c-22.899-6.425-26.623-26.116-27.06-29.098V332.66l-0.002-0.271l-0.001-0.063
	c-0.066-9.064-2.915-15.362-6.391-19.49l3.392-5.225h28.032h23.781h9.199h33.814H367.473 M372.016,299.244h-32.576h-33.814h-9.199
	h-23.781h-32.575l-10.034,15.454c0,0,9.1,2.806,9.211,17.689c0,0.091,0.002,0.181,0.002,0.272v71.94c0,0,2.764,28.095,33.166,36.624
	c29.394,8.245,33.383,17.896,33.615,18.528c0.008,0.022,0.012,0.033,0.012,0.033s3.226-10.034,33.627-18.562
	c30.403-8.529,33.166-36.624,33.166-36.624v-71.901c0.002-0.013,0.002-0.025,0.002-0.039c0-0.092,0.002-0.182,0.002-0.272
	c0.111-14.884,9.211-17.689,9.211-17.689L372.016,299.244z"/>
</svg>
