<?xml version="1.0" encoding="utf-8"?>
<!-- Generator: Adobe Illustrator 16.0.0, SVG Export Plug-In . SVG Version: 6.00 Build 0)  -->
<!DOCTYPE svg PUBLIC "-//W3C//DTD SVG 1.1//EN" "http://www.w3.org/Graphics/SVG/1.1/DTD/svg11.dtd">
<svg version="1.1" id="Layer_1" xmlns="http://www.w3.org/2000/svg" xmlns:xlink="http://www.w3.org/1999/xlink" x="0px" y="0px"
	 width="612px" height="792px" viewBox="0 0 612 792" enable-background="new 0 0 612 792" xml:space="preserve">
<path fill="#010101" d="M398.785,401.309c0.146,1.75-0.152,3.623,0.188,5.469c0.328,0.773,0.592,1.554,0.873,2.349
	c0.818,2.085,1.733,3.99,3.31,4.865c1.284-2.556,2.463-5.285,2.743-8.496c-0.084-2.099-0.508-4.063-1.249-5.928
	c-1.15-2.94-3.062-5.579-5.613-7.851c-0.082-0.08-0.143-0.11-0.186-0.171l-0.414-0.012c0.092,0.271,0.165,0.577,0.247,0.886
	C399.36,395.306,399.065,398.098,398.785,401.309"/>
<path fill="#010101" d="M398.984,419.089c-1.817-3.577-5.513-6.852-6.38-10.245l-0.532-0.223c-1.336,3.336-1.192,7.326-0.168,10.95
	c1.108,4.704,3.424,8.369,4.508,12.994c0.193,0.891,0.353,1.775,0.458,2.742c6.956-5.049,13.37-10.808,15.183-19.897l-12.193,6.13
	C399.695,420.692,399.367,419.854,398.984,419.089"/>
<path fill="#010101" d="M379.381,460.246c-0.916-0.017-1.783-0.026-2.638,0.015c3.211-4.571,2.291-10.164,4.058-15.119l-0.017-0.219
	c-5.329,2.008-8.124,6.7-10.731,11.657c-1.861,3.592-3.683,7.273-6.339,9.993c1.109,0.08,2.153,0.229,3.234,0.389
	c1.122,0.163,2.275,0.386,3.435,0.691c2.307,0.136,4.581,0.238,6.733,0.167c4.034-0.171,7.794-0.854,11.036-2.605
	c1.502-0.798,2.901-1.85,4.131-3.161c-0.949-0.154-1.992-0.342-3.028-0.524C385.991,460.975,382.557,460.404,379.381,460.246"/>
<path fill="#010101" d="M392.381,444.673c-1.494-5.036-4.273-10.122-3.865-15.641l-0.142-0.22L388,428.978
	c-0.045,0.036-0.097,0.108-0.102,0.145c-0.291,0.501-0.601,0.786-1.136,1.3c-3.805,6.707-3.229,14.78-1.274,21.92
	c0.319,1.176,0.652,2.295,1.062,3.425c3.423-2.676,7.645-3.358,11.443-5.306c0.341-0.207,0.676-0.37,1.028-0.582
	c3.66-2.641,5.887-7.007,6.843-11.183c-2.373,0.757-4.701,1.368-6.877,2.186C396.643,441.728,394.38,442.87,392.381,444.673"/>
<path fill="#010101" d="M213.581,401.438c-0.24,1.74-0.043,3.626-0.482,5.45c-0.369,0.755-0.674,1.521-0.997,2.299
	c-0.932,2.037-1.947,3.891-3.567,4.681c-1.146-2.622-2.175-5.41-2.282-8.632c0.197-2.092,0.727-4.029,1.567-5.854
	c1.306-2.873,3.357-5.406,6.027-7.536c0.086-0.075,0.149-0.103,0.195-0.161l0.415,0.012c-0.107,0.267-0.196,0.566-0.295,0.871
	C213.331,395.414,213.475,398.217,213.581,401.438"/>
<path fill="#010101" d="M213.306,419.089c1.817-3.577,5.512-6.852,6.379-10.245l0.532-0.223c1.337,3.336,1.192,7.326,0.168,10.95
	c-1.108,4.704-3.423,8.369-4.507,12.994c-0.194,0.891-0.353,1.775-0.458,2.742c-6.957-5.049-13.37-10.808-15.183-19.897l12.194,6.13
	C212.594,420.692,212.923,419.854,213.306,419.089"/>
<path fill="#010101" d="M232.908,460.246c0.916-0.017,1.783-0.026,2.638,0.015c-3.211-4.571-2.29-10.164-4.058-15.119l0.017-0.219
	c5.329,2.008,8.124,6.7,10.731,11.657c1.862,3.592,3.683,7.273,6.339,9.993c-1.109,0.08-2.153,0.229-3.234,0.389
	c-1.122,0.163-2.274,0.386-3.435,0.691c-2.306,0.136-4.581,0.238-6.732,0.167c-4.035-0.171-7.795-0.854-11.037-2.605
	c-1.501-0.798-2.901-1.85-4.131-3.161c0.949-0.154,1.992-0.342,3.028-0.524C226.299,460.975,229.732,460.404,232.908,460.246"/>
<path fill="#010101" d="M219.908,444.673c1.494-5.036,4.274-10.122,3.864-15.641l0.143-0.22l0.374,0.165
	c0.045,0.036,0.097,0.108,0.102,0.145c0.292,0.501,0.601,0.786,1.136,1.3c3.805,6.707,3.23,14.78,1.275,21.92
	c-0.32,1.176-0.653,2.295-1.062,3.425c-3.423-2.676-7.644-3.358-11.443-5.306c-0.341-0.207-0.676-0.37-1.029-0.582
	c-3.66-2.641-5.886-7.007-6.842-11.183c2.373,0.757,4.701,1.368,6.876,2.186C215.647,441.728,217.909,442.87,219.908,444.673"/>
<rect x="261.292" y="426.861" fill="#010101" width="85" height="43.667"/>
<polygon fill="#010101" points="334.594,456.025 360.43,447.046 347.357,437.266 295.849,461.528 "/>
<polygon fill="#010101" points="307.85,462.528 251.154,447.046 264.228,437.266 312.35,459.028 "/>
<polygon fill="#FFFFFF" points="358.106,478.863 305.813,493.046 253.521,477.358 253.521,449.837 305.813,459.525 358.106,449.837 
	"/>
<polygon fill="none" stroke="#010101" stroke-width="4.515" stroke-miterlimit="10" points="358.106,478.863 305.813,491.646 
	253.521,478.863 253.521,449.837 305.813,458.62 358.106,449.837 "/>
<path fill="#FECF0A" d="M306.132,332.388h-66.784c0.001,0.091,0.003,0.181,0.003,0.272v71.94c0,0,2.764,28.095,33.166,36.624
	c29.393,8.245,33.382,17.896,33.615,18.529c0.008,0.021,0.012,0.032,0.012,0.032s3.225-10.034,33.627-18.562
	c30.402-8.529,33.166-36.624,33.166-36.624v-71.901c0-0.013,0.002-0.025,0.002-0.039c0-0.092,0.002-0.182,0.002-0.272H306.132z"/>
<g opacity="0.5">
	<g>
		<defs>
			<rect id="SVGID_1_" x="306.13" y="332.39" width="66.81" height="127.4"/>
		</defs>
		<clipPath id="SVGID_2_">
			<use xlink:href="#SVGID_1_"  overflow="visible"/>
		</clipPath>
		<path clip-path="url(#SVGID_2_)" fill="#CDA72C" d="M339.771,441.224c30.402-8.528,33.165-36.624,33.165-36.624v-71.9
			c0.001-0.014,0.003-0.026,0.003-0.039c0-0.092,0.002-0.182,0.002-0.273h-66.81v127.366c0.008,0.022,0.012,0.034,0.012,0.034
			S309.369,449.753,339.771,441.224"/>
	</g>
</g>
<path fill="#191818" d="M367.574,307.61l3.394,5.225c-2.296,2.726-4.317,6.396-5.445,11.187H246.767
	c-1.128-4.79-3.149-8.461-5.444-11.187l3.393-5.225h28.033h23.781h9.198h33.814H367.574 M372.117,299.244h-32.576h-33.814h-9.198
	h-23.781h-32.576l-10.034,15.454c0,0,9.1,2.806,9.21,17.689H372.94c0.111-14.884,9.211-17.689,9.211-17.689L372.117,299.244z"/>
<g opacity="0.4">
	<g>
		<defs>
			<rect id="SVGID_3_" x="230.14" y="299.24" width="152.011" height="160.55"/>
		</defs>
		<clipPath id="SVGID_4_">
			<use xlink:href="#SVGID_3_"  overflow="visible"/>
		</clipPath>
		<path clip-path="url(#SVGID_4_)" fill="#FFFFFF" d="M364.147,313.041c-2.643,4.357-4.931,10.608-5.003,19.237l-0.001,0.031
			l-0.003,0.28v0.055v0.055v70.951c-0.223,1.223-1.069,5.082-3.448,9.367c-4.105,7.396-10.717,12.417-19.647,14.923
			c-13.944,3.912-23.452,8.354-29.93,12.659c-6.466-4.301-15.954-8.755-29.872-12.659c-8.596-2.412-15.05-7.16-19.183-14.113
			c-2.709-4.559-3.653-8.787-3.913-10.226V332.66l-0.003-0.375c-0.064-8.625-2.355-14.882-5.003-19.244h24.606h23.781h9.198h33.814
			H364.147 M372.117,299.244h-32.576h-33.814h-9.198h-23.781h-32.576l-10.034,15.454c0,0,9.1,2.806,9.21,17.689
			c0.001,0.091,0.003,0.181,0.003,0.272v71.94c0,0,2.764,28.095,33.166,36.624c29.393,8.245,33.383,17.896,33.616,18.528
			c0.007,0.022,0.011,0.033,0.011,0.033s3.226-10.034,33.627-18.562c30.403-8.529,33.167-36.624,33.167-36.624v-71.901
			c0-0.013,0.001-0.025,0.001-0.039c0-0.092,0.002-0.182,0.002-0.272c0.111-14.884,9.211-17.689,9.211-17.689L372.117,299.244z"/>
	</g>
</g>
<path fill="#1A1A19" d="M382.151,314.698l-10.034-15.454h-32.576h-33.814h-9.198h-23.781h-32.576l-10.034,15.454
	c0,0,9.1,2.807,9.211,17.688v7.526h133.593v-7.526C373.052,317.505,382.151,314.698,382.151,314.698"/>
<path fill="#FFFFFF" d="M252.274,328.387v-3.252c7.346-7.135,8.881-8.73,8.881-11.02c0-1.534-1.174-2.527-2.679-2.527
	c-1.777,0-3.192,0.813-4.275,2.258l-2.409-2.529c1.626-2.168,4.004-3.312,6.744-3.312c3.884,0,6.714,2.349,6.714,6.081
	c0,3.041-2.048,5.63-7.015,10.748h7.104v3.553H252.274z"/>
<polygon fill="#FFFFFF" points="287.073,328.387 284.484,315.02 281.925,328.387 277.71,328.387 273.134,308.306 277.469,308.306 
	280.058,322.275 282.918,308.306 286.079,308.306 288.969,322.275 291.529,308.306 295.864,308.306 291.288,328.387 "/>
<polygon fill="#FFFFFF" points="297.818,328.387 297.818,308.306 309.318,308.306 309.318,311.858 301.852,311.858 301.852,316.404 
	309.107,316.404 309.107,319.957 301.852,319.957 301.852,324.834 309.318,324.834 309.318,328.387 "/>
<polygon fill="#FFFFFF" points="312.297,328.387 312.297,308.306 323.797,308.306 323.797,311.858 316.33,311.858 316.33,316.404 
	323.586,316.404 323.586,319.957 316.33,319.957 316.33,324.834 323.797,324.834 323.797,328.387 "/>
<polygon fill="#FFFFFF" points="336.86,328.387 332.223,320.529 330.81,322.757 330.81,328.387 326.775,328.387 326.775,308.306 
	330.81,308.306 330.81,317.428 336.469,308.306 341.165,308.306 334.753,317.759 341.616,328.387 "/>
<path fill="#FFFFFF" d="M342.126,326.158l1.987-3.101c1.113,1.234,2.859,2.138,4.847,2.138c1.776,0,2.74-0.994,2.74-2.229
	c0-3.521-8.972-2.317-8.972-9.121c0-3.162,2.469-5.871,6.623-5.871c2.438,0,4.545,0.783,6.081,2.228l-1.927,3.011
	c-1.204-1.144-2.739-1.686-4.305-1.686c-1.445,0-2.349,0.813-2.349,2.047c0,3.131,8.941,2.288,8.941,9.063
	c0,3.521-2.408,6.111-6.804,6.111C345.95,328.748,343.722,327.754,342.126,326.158"/>
<polygon fill="#1A1A19" points="290.066,480.976 290.066,468.629 287.542,471.253 285.617,469.229 290.517,464.305 293.44,464.305 
	293.44,480.976 "/>
<path fill="#1A1A19" d="M295.717,472.652c0-4.299,1.774-8.598,5.898-8.598c4.149,0,5.898,4.299,5.898,8.598
	c0,4.273-1.725,8.623-5.898,8.623C297.491,481.275,295.717,476.926,295.717,472.652 M304.115,472.652c0-3.225-0.55-5.623-2.5-5.623
	c-1.924,0-2.474,2.398-2.474,5.623c0,3.199,0.55,5.648,2.474,5.648C303.565,478.301,304.115,475.852,304.115,472.652"/>
<polygon fill="#1A1A19" points="318.189,480.976 314.34,474.453 313.166,476.302 313.166,480.976 309.816,480.976 309.816,464.305 
	313.166,464.305 313.166,471.877 317.864,464.305 321.764,464.305 316.439,472.152 322.139,480.976 "/>
<g>
	<defs>
		<path id="SVGID_5_" d="M306.069,332.591h-66.22c0,0.089,0.002,0.177,0.002,0.27v71.335c0,0,2.74,27.856,32.886,36.313
			c29.146,8.177,33.101,17.746,33.332,18.373c0.008,0.021,0.012,0.033,0.012,0.033s3.198-9.95,33.344-18.406
			c30.146-8.457,32.886-36.313,32.886-36.313v-71.296c0-0.013,0.002-0.027,0.002-0.039c0-0.093,0.002-0.181,0.002-0.27H306.069z"/>
	</defs>
	<clipPath id="SVGID_6_">
		<use xlink:href="#SVGID_5_"  overflow="visible"/>
	</clipPath>
	<g opacity="0.5" clip-path="url(#SVGID_6_)">
		<g>
			<defs>
				<rect id="SVGID_7_" x="238.53" y="399.87" width="130.76" height="27.61"/>
			</defs>
			<clipPath id="SVGID_8_">
				<use xlink:href="#SVGID_7_"  overflow="visible"/>
			</clipPath>
			<path clip-path="url(#SVGID_8_)" fill="#CDA72C" d="M355.287,399.87c0,0-9.745,8.382-7.762,7.194c0,0-1.288,7.67-7.592,7.401
				c-6.303-0.267-8.125,9.171-7.882,11.126c0,0,3.95-4.619,10.468-2.967c6.516,1.654,10.057-2.413,10.935-3.702
				c0,0-2.331,7.688-6.849,8.269c0,0,11.193,2.166,15.589-5.346c4.395-7.514,6.612-16.36,7.084-17.155
				C369.749,403.896,355.287,399.87,355.287,399.87"/>
			<path clip-path="url(#SVGID_8_)" fill="#CDA72C" d="M342.464,421.278c0,0-7.975,1.536-6.608,1.02c0,0-4.303-2.372-6.644,0.854
				c-2.341,3.226-7.729,0.425-8.602-0.463c0,0,3.837-0.144,5.575-4.02c1.738-3.875,5.143-4.033,6.125-3.961
				c0,0-4.721-1.863-6.781,0.146c0,0,3.319-6.393,8.765-5.62c5.444,0.771,10.695,3.145,11.274,3.224
				C346.146,412.537,342.464,421.278,342.464,421.278"/>
			<path clip-path="url(#SVGID_8_)" fill="#CDA72C" d="M322.951,399.87c0,0-9.744,8.382-7.762,7.194c0,0-1.288,7.67-7.591,7.401
				c-6.302-0.267-8.125,9.171-7.881,11.126c0,0,3.949-4.619,10.466-2.967c6.516,1.654,10.057-2.413,10.936-3.702
				c0,0-2.33,7.688-6.85,8.269c0,0,11.194,2.166,15.589-5.346c4.396-7.514,6.613-16.36,7.084-17.155
				C337.414,403.896,322.951,399.87,322.951,399.87"/>
			<path clip-path="url(#SVGID_8_)" fill="#CDA72C" d="M310.129,421.278c0,0-7.975,1.536-6.608,1.02c0,0-4.303-2.372-6.644,0.854
				c-2.341,3.226-7.73,0.425-8.602-0.463c0,0,3.837-0.144,5.576-4.02c1.738-3.875,5.142-4.033,6.124-3.961
				c0,0-4.72-1.863-6.781,0.146c0,0,3.32-6.393,8.765-5.62c5.443,0.771,10.695,3.145,11.273,3.224
				C313.811,412.537,310.129,421.278,310.129,421.278"/>
			<path clip-path="url(#SVGID_8_)" fill="#CDA72C" d="M297.581,399.87c0,0-9.745,8.382-7.763,7.194c0,0-1.288,7.67-7.591,7.401
				c-6.302-0.267-8.125,9.171-7.881,11.126c0,0,3.949-4.619,10.466-2.967c6.516,1.654,10.057-2.413,10.936-3.702
				c0,0-2.33,7.688-6.85,8.269c0,0,11.194,2.166,15.589-5.346c4.395-7.514,6.613-16.36,7.084-17.155
				C312.043,403.896,297.581,399.87,297.581,399.87"/>
			<path clip-path="url(#SVGID_8_)" fill="#CDA72C" d="M284.758,421.278c0,0-7.975,1.536-6.608,1.02c0,0-4.303-2.372-6.644,0.854
				c-2.341,3.226-7.73,0.425-8.602-0.463c0,0,3.837-0.144,5.576-4.02c1.738-3.875,5.142-4.033,6.124-3.961
				c0,0-4.72-1.863-6.781,0.146c0,0,3.319-6.393,8.765-5.62c5.444,0.771,10.695,3.145,11.274,3.224
				C288.44,412.537,284.758,421.278,284.758,421.278"/>
			<path clip-path="url(#SVGID_8_)" fill="#CDA72C" d="M273.205,399.87c0,0-9.745,8.382-7.762,7.194c0,0-1.288,7.67-7.591,7.401
				c-6.303-0.267-8.125,9.171-7.882,11.126c0,0,3.95-4.619,10.467-2.967c6.516,1.654,10.057-2.413,10.935-3.702
				c0,0-2.33,7.688-6.849,8.269c0,0,11.194,2.166,15.589-5.346c4.395-7.514,6.612-16.36,7.084-17.155
				C287.667,403.896,273.205,399.87,273.205,399.87"/>
			<path clip-path="url(#SVGID_8_)" fill="#CDA72C" d="M260.382,421.278c0,0-7.975,1.536-6.609,1.02c0,0-4.302-2.372-6.644,0.854
				c-2.341,3.226-7.729,0.425-8.602-0.463c0,0,3.837-0.144,5.576-4.02c1.738-3.875,5.142-4.033,6.124-3.961
				c0,0-4.72-1.863-6.781,0.146c0,0,3.32-6.393,8.765-5.62c5.444,0.771,10.695,3.145,11.274,3.224
				C264.064,412.537,260.382,421.278,260.382,421.278"/>
		</g>
	</g>
	<path clip-path="url(#SVGID_6_)" fill="#FFFFFF" d="M268.596,403.646l0.161-5.136l1.02-15.3l0.372-5.574l0.521-7.803l0.173-2.601
		h23.409c0-5.201,5.202-7.803,5.202-7.803l2.288,1.716l1.874,1.405l0.832,0.624l3.901,2.926l26.825,18.854l0.694,0.485
		c0,0,0.577,0.231,1.564,0.621c0.003,0.001,0.007,0.002,0.01,0.004c0.055,0.021,0.109,0.043,0.165,0.065
		c0.024,0.009,0.049,0.019,0.074,0.029c0.052,0.02,0.104,0.041,0.16,0.063c0.014,0.005,0.026,0.011,0.041,0.017
		c0.06,0.023,0.12,0.048,0.182,0.071c0.021,0.009,0.043,0.018,0.064,0.025c0.06,0.024,0.12,0.047,0.182,0.072
		c0.01,0.004,0.022,0.008,0.032,0.012c0.098,0.039,0.197,0.078,0.3,0.118c0.057,0.021,0.112,0.044,0.17,0.066
		c0.054,0.021,0.11,0.043,0.165,0.065c0.035,0.013,0.069,0.027,0.105,0.041c0.061,0.024,0.123,0.048,0.185,0.072
		c0.033,0.013,0.065,0.025,0.098,0.039c0.057,0.021,0.114,0.044,0.173,0.066c0.045,0.019,0.088,0.035,0.135,0.054
		c0.057,0.021,0.113,0.044,0.172,0.066c0.035,0.014,0.07,0.028,0.105,0.042c0.068,0.026,0.135,0.052,0.203,0.079
		c0.049,0.02,0.098,0.038,0.146,0.056c0.046,0.019,0.091,0.036,0.138,0.055c0.085,0.032,0.17,0.065,0.256,0.1
		c0.021,0.008,0.039,0.015,0.059,0.022c0.089,0.034,0.179,0.069,0.269,0.104c0.028,0.011,0.056,0.022,0.084,0.033
		c0.068,0.026,0.138,0.053,0.207,0.08c0.068,0.026,0.136,0.053,0.204,0.079c1.189,0.462,2.501,0.967,3.871,1.487
		c0.003,0.001,0.005,0.003,0.008,0.003c0.138,0.054,0.277,0.106,0.416,0.158l0.002,0.001c0.131,0.05,0.264,0.101,0.396,0.151
		l0.063,0.023c0.125,0.047,0.25,0.095,0.376,0.142c0.011,0.004,0.022,0.009,0.033,0.013c0.136,0.051,0.272,0.104,0.41,0.154
		c0.002,0.001,0.003,0.002,0.005,0.002c0.137,0.052,0.273,0.103,0.411,0.155c0.013,0.005,0.024,0.01,0.038,0.014
		c0.126,0.048,0.253,0.095,0.379,0.144c0.021,0.008,0.044,0.016,0.065,0.023c0.122,0.046,0.245,0.092,0.368,0.138
		c0.021,0.009,0.043,0.017,0.064,0.024l0.36,0.134c0.026,0.01,0.054,0.021,0.079,0.03c0.119,0.044,0.239,0.089,0.358,0.133
		c0.024,0.009,0.05,0.018,0.075,0.028c0.113,0.042,0.228,0.084,0.342,0.126c0.034,0.013,0.068,0.025,0.102,0.038
		c0.11,0.041,0.221,0.082,0.331,0.122c0.033,0.012,0.065,0.023,0.099,0.035c0.11,0.041,0.221,0.082,0.33,0.122l0.105,0.039
		c0.109,0.04,0.217,0.079,0.326,0.119c0.034,0.013,0.068,0.025,0.102,0.038c0.108,0.039,0.215,0.078,0.322,0.117
		c0.036,0.013,0.073,0.025,0.109,0.04c0.103,0.037,0.205,0.074,0.307,0.11c0.041,0.016,0.082,0.03,0.123,0.046
		c0.102,0.036,0.201,0.071,0.301,0.107c0.04,0.015,0.08,0.03,0.121,0.044c0.102,0.037,0.203,0.073,0.305,0.11
		c0.038,0.013,0.076,0.026,0.115,0.041c0.094,0.034,0.187,0.067,0.278,0.1c0.049,0.018,0.097,0.034,0.145,0.052
		c0.093,0.033,0.186,0.065,0.277,0.099c0.043,0.015,0.087,0.031,0.13,0.046c0.104,0.037,0.207,0.073,0.309,0.11
		c0.031,0.011,0.063,0.021,0.095,0.032c0.097,0.034,0.192,0.068,0.29,0.103c0.04,0.014,0.081,0.028,0.121,0.042
		c0.084,0.03,0.166,0.058,0.248,0.087c0.052,0.018,0.103,0.036,0.152,0.053c0.086,0.03,0.171,0.061,0.256,0.089
		c0.045,0.016,0.09,0.031,0.133,0.047c0.082,0.027,0.16,0.055,0.241,0.082c0.05,0.018,0.101,0.035,0.15,0.053
		c0.076,0.024,0.149,0.051,0.225,0.076c0.052,0.018,0.103,0.034,0.153,0.053c0.077,0.025,0.152,0.051,0.229,0.077
		c0.049,0.016,0.098,0.032,0.146,0.049c0.123,0.041,0.244,0.082,0.364,0.122c0.238,0.079,0.469,0.166,0.691,0.26
		c0.004,0.001,0.008,0.003,0.013,0.004c0.22,0.092,0.432,0.191,0.638,0.296c0.007,0.003,0.015,0.006,0.021,0.01
		c0.203,0.104,0.399,0.214,0.59,0.328c0.01,0.005,0.019,0.011,0.028,0.017c0.188,0.113,0.367,0.232,0.543,0.356
		c0.011,0.008,0.022,0.016,0.033,0.023c0.173,0.122,0.34,0.251,0.501,0.382c0.012,0.01,0.024,0.019,0.036,0.029
		c0.16,0.131,0.313,0.267,0.463,0.405c0.013,0.012,0.024,0.022,0.035,0.033c0.147,0.14,0.291,0.283,0.429,0.429
		c0.012,0.013,0.022,0.023,0.033,0.034c0.137,0.148,0.27,0.3,0.396,0.452c0.01,0.011,0.02,0.022,0.028,0.033
		c0.128,0.155,0.251,0.313,0.369,0.473c0.008,0.01,0.015,0.021,0.022,0.03c0.119,0.163,0.233,0.328,0.344,0.495
		c0.005,0.007,0.01,0.014,0.015,0.021c0.111,0.17,0.218,0.343,0.32,0.517c0.002,0.004,0.005,0.008,0.007,0.012
		c1.157,1.974,1.62,4.133,1.891,5.764v9.458h-95.525V403.646z"/>
	<path clip-path="url(#SVGID_6_)" fill="#F8D012" d="M338.025,399.269l-43.409-30.932l4.507-7.193l11.639,9.148l27.282,18.479
		l0.747,0.507c0,0,2.847,1.103,6.744,2.561l0.007,0.032L338.025,399.269z"/>
	<path clip-path="url(#SVGID_6_)" fill="#F8D012" d="M335.889,386.521c0.563,0.227,13.158,5.253,20.785,7.795
		c3.854,1.285,5.803,4.472,6.789,7.369h-38.678L335.889,386.521z"/>
	<polygon clip-path="url(#SVGID_6_)" fill="#191818" points="310.922,369.268 303.976,375.413 307.477,366.824 	"/>
	<polygon clip-path="url(#SVGID_6_)" fill="#191818" points="317.458,373.925 310.512,380.069 314.014,371.481 	"/>
	
		<line clip-path="url(#SVGID_6_)" fill="none" stroke="#191818" stroke-width="2.148" stroke-miterlimit="10" x1="363.464" y1="402.491" x2="268.596" y2="402.491"/>
	<polygon clip-path="url(#SVGID_6_)" fill="#191818" points="323.994,378.581 317.049,384.727 320.55,376.139 	"/>
	<polygon clip-path="url(#SVGID_6_)" fill="#191818" points="330.531,383.238 323.585,389.383 327.086,380.795 	"/>
	<polygon clip-path="url(#SVGID_6_)" fill="#191818" points="337.067,387.896 330.121,394.04 333.623,385.452 	"/>
	<path clip-path="url(#SVGID_6_)" fill="none" stroke="#191818" stroke-width="4.296" stroke-miterlimit="10" d="M268.596,403.646
		l0.161-5.136l1.02-15.3l0.372-5.574l0.521-7.803l0.173-2.601h23.409c0-5.201,5.202-7.803,5.202-7.803l2.288,1.716l1.874,1.405
		l0.832,0.624l3.901,2.926l26.825,18.854l0.694,0.485c0,0,0.577,0.231,1.564,0.621c0.003,0.001,0.007,0.002,0.01,0.004
		c0.055,0.021,0.109,0.043,0.165,0.065c0.024,0.009,0.049,0.019,0.074,0.029c0.052,0.02,0.104,0.041,0.16,0.063
		c0.014,0.005,0.026,0.011,0.041,0.017c0.06,0.023,0.12,0.048,0.182,0.071c0.021,0.009,0.043,0.018,0.064,0.025
		c0.06,0.024,0.12,0.047,0.182,0.072c0.01,0.004,0.022,0.008,0.032,0.012c0.098,0.039,0.197,0.078,0.3,0.118
		c0.057,0.021,0.112,0.044,0.17,0.066c0.054,0.021,0.11,0.043,0.165,0.065c0.035,0.013,0.069,0.027,0.105,0.041
		c0.061,0.024,0.123,0.048,0.185,0.072c0.033,0.013,0.065,0.025,0.098,0.039c0.057,0.021,0.114,0.044,0.173,0.066
		c0.045,0.019,0.088,0.035,0.135,0.054c0.057,0.021,0.113,0.044,0.172,0.066c0.035,0.014,0.07,0.028,0.105,0.042
		c0.068,0.026,0.135,0.052,0.203,0.079c0.049,0.02,0.098,0.038,0.146,0.056c0.046,0.019,0.091,0.036,0.138,0.055
		c0.085,0.032,0.17,0.065,0.256,0.1c0.021,0.008,0.039,0.015,0.059,0.022c0.089,0.034,0.179,0.069,0.269,0.104
		c0.028,0.011,0.056,0.022,0.084,0.033c0.068,0.026,0.138,0.053,0.207,0.08c0.068,0.026,0.136,0.053,0.204,0.079
		c1.189,0.462,2.501,0.967,3.871,1.487c0.003,0.001,0.005,0.003,0.008,0.003c0.138,0.054,0.277,0.106,0.416,0.158l0.002,0.001
		c0.131,0.05,0.264,0.101,0.396,0.151l0.063,0.023c0.125,0.047,0.25,0.095,0.376,0.142c0.011,0.004,0.022,0.009,0.033,0.013
		c0.136,0.051,0.272,0.104,0.41,0.154c0.002,0.001,0.003,0.002,0.005,0.002c0.137,0.052,0.273,0.103,0.411,0.155
		c0.013,0.005,0.024,0.01,0.038,0.014c0.126,0.048,0.253,0.095,0.379,0.144c0.021,0.008,0.044,0.016,0.065,0.023
		c0.122,0.046,0.245,0.092,0.368,0.138c0.021,0.009,0.043,0.017,0.064,0.024l0.36,0.134c0.026,0.01,0.054,0.021,0.079,0.03
		c0.119,0.044,0.239,0.089,0.358,0.133c0.024,0.009,0.05,0.018,0.075,0.028c0.113,0.042,0.228,0.084,0.342,0.126
		c0.034,0.013,0.068,0.025,0.102,0.038c0.11,0.041,0.221,0.082,0.331,0.122c0.033,0.012,0.065,0.023,0.099,0.035
		c0.11,0.041,0.221,0.082,0.33,0.122l0.105,0.039c0.109,0.04,0.217,0.079,0.326,0.119c0.034,0.013,0.068,0.025,0.102,0.038
		c0.108,0.039,0.215,0.078,0.322,0.117c0.036,0.013,0.073,0.025,0.109,0.04c0.103,0.037,0.205,0.074,0.307,0.11
		c0.041,0.016,0.082,0.03,0.123,0.046c0.102,0.036,0.201,0.071,0.301,0.107c0.04,0.015,0.08,0.03,0.121,0.044
		c0.102,0.037,0.203,0.073,0.305,0.11c0.038,0.013,0.076,0.026,0.115,0.041c0.094,0.034,0.187,0.067,0.278,0.1
		c0.049,0.018,0.097,0.034,0.145,0.052c0.093,0.033,0.186,0.065,0.277,0.099c0.043,0.015,0.087,0.031,0.13,0.046
		c0.104,0.037,0.207,0.073,0.309,0.11c0.031,0.011,0.063,0.021,0.095,0.032c0.097,0.034,0.192,0.068,0.29,0.103
		c0.04,0.014,0.081,0.028,0.121,0.042c0.084,0.03,0.166,0.058,0.248,0.087c0.052,0.018,0.103,0.036,0.152,0.053
		c0.086,0.03,0.171,0.061,0.256,0.089c0.045,0.016,0.09,0.031,0.133,0.047c0.082,0.027,0.16,0.055,0.241,0.082
		c0.05,0.018,0.101,0.035,0.15,0.053c0.076,0.024,0.149,0.051,0.225,0.076c0.052,0.018,0.103,0.034,0.153,0.053
		c0.077,0.025,0.152,0.051,0.229,0.077c0.049,0.016,0.098,0.032,0.146,0.049c0.123,0.041,0.244,0.082,0.364,0.122
		c0.238,0.079,0.469,0.166,0.691,0.26c0.004,0.001,0.008,0.003,0.013,0.004c0.22,0.092,0.432,0.191,0.638,0.296
		c0.007,0.003,0.015,0.006,0.021,0.01c0.203,0.104,0.399,0.214,0.59,0.328c0.01,0.005,0.019,0.011,0.028,0.017
		c0.188,0.113,0.367,0.232,0.543,0.356c0.011,0.008,0.022,0.016,0.033,0.023c0.173,0.122,0.34,0.251,0.501,0.382
		c0.012,0.01,0.024,0.019,0.036,0.029c0.16,0.131,0.313,0.267,0.463,0.405c0.013,0.012,0.024,0.022,0.035,0.033
		c0.147,0.14,0.291,0.283,0.429,0.429c0.012,0.013,0.022,0.023,0.033,0.034c0.137,0.148,0.27,0.3,0.396,0.452
		c0.01,0.011,0.02,0.022,0.028,0.033c0.128,0.155,0.251,0.313,0.369,0.473c0.008,0.01,0.015,0.021,0.022,0.03
		c0.119,0.163,0.233,0.328,0.344,0.495c0.005,0.007,0.01,0.014,0.015,0.021c0.111,0.17,0.218,0.343,0.32,0.517
		c0.002,0.004,0.005,0.008,0.007,0.012c1.157,1.974,1.62,4.133,1.891,5.764v9.458h-95.525V403.646z"/>
	<path clip-path="url(#SVGID_6_)" fill="#FFFFFF" d="M227.773,403.646l0.161-5.136l1.02-15.3l0.372-5.574l0.52-7.803l0.173-2.601
		h23.409c0-5.201,5.202-7.803,5.202-7.803l2.288,1.716l1.873,1.405l0.833,0.624l3.9,2.926l26.826,18.854l0.693,0.485
		c0,0,0.579,0.231,1.566,0.621c0.003,0.001,0.007,0.002,0.01,0.004c0.054,0.021,0.109,0.043,0.165,0.065
		c0.024,0.009,0.049,0.019,0.073,0.029c0.053,0.02,0.105,0.041,0.161,0.063c0.014,0.005,0.027,0.011,0.041,0.017
		c0.06,0.023,0.12,0.048,0.182,0.071c0.021,0.009,0.043,0.018,0.064,0.025c0.06,0.024,0.12,0.047,0.182,0.072
		c0.01,0.004,0.021,0.008,0.032,0.012c0.098,0.039,0.198,0.078,0.3,0.118c0.056,0.021,0.112,0.044,0.169,0.066
		c0.055,0.021,0.111,0.043,0.166,0.065c0.035,0.013,0.069,0.027,0.104,0.041c0.061,0.024,0.123,0.048,0.186,0.072
		c0.033,0.013,0.064,0.025,0.098,0.039c0.056,0.021,0.114,0.044,0.172,0.066c0.045,0.019,0.089,0.035,0.135,0.054
		c0.056,0.021,0.114,0.044,0.172,0.066c0.035,0.014,0.071,0.028,0.106,0.042c0.067,0.026,0.135,0.052,0.203,0.079
		c0.048,0.02,0.097,0.038,0.145,0.056c0.046,0.019,0.091,0.036,0.138,0.055c0.084,0.032,0.17,0.065,0.256,0.1
		c0.02,0.008,0.039,0.015,0.058,0.022c0.089,0.034,0.179,0.069,0.27,0.104c0.028,0.011,0.056,0.022,0.084,0.033
		c0.068,0.026,0.138,0.053,0.207,0.08c0.068,0.026,0.136,0.053,0.204,0.079c1.188,0.462,2.501,0.967,3.871,1.487
		c0.003,0.001,0.005,0.003,0.008,0.003c0.138,0.054,0.277,0.106,0.416,0.158c0,0,0.001,0.001,0.002,0.001
		c0.131,0.05,0.264,0.101,0.396,0.151c0.021,0.007,0.041,0.015,0.063,0.023c0.125,0.047,0.25,0.095,0.375,0.142
		c0.012,0.004,0.022,0.009,0.034,0.013c0.136,0.051,0.273,0.104,0.409,0.154c0.002,0.001,0.004,0.002,0.006,0.002
		c0.137,0.052,0.274,0.103,0.411,0.155c0.012,0.005,0.025,0.01,0.038,0.014c0.126,0.048,0.253,0.095,0.38,0.144
		c0.021,0.008,0.043,0.016,0.064,0.023c0.123,0.046,0.246,0.092,0.369,0.138c0.021,0.009,0.043,0.017,0.064,0.024l0.36,0.134
		c0.026,0.01,0.052,0.021,0.079,0.03c0.119,0.044,0.239,0.089,0.357,0.133c0.025,0.009,0.051,0.018,0.075,0.028
		c0.114,0.042,0.229,0.084,0.343,0.126l0.102,0.038c0.11,0.041,0.221,0.082,0.331,0.122c0.033,0.012,0.065,0.023,0.098,0.035
		c0.11,0.041,0.222,0.082,0.331,0.122c0.035,0.014,0.07,0.026,0.105,0.039c0.109,0.04,0.217,0.079,0.324,0.119
		c0.035,0.013,0.069,0.025,0.104,0.038c0.108,0.039,0.215,0.078,0.322,0.117c0.036,0.013,0.072,0.025,0.109,0.04
		c0.103,0.037,0.204,0.074,0.307,0.11c0.041,0.016,0.082,0.03,0.123,0.046c0.101,0.036,0.201,0.071,0.301,0.107
		c0.04,0.015,0.08,0.03,0.121,0.044c0.101,0.037,0.203,0.073,0.304,0.11c0.039,0.013,0.077,0.026,0.115,0.041
		c0.094,0.034,0.187,0.067,0.278,0.1c0.05,0.018,0.098,0.034,0.146,0.052c0.093,0.033,0.185,0.065,0.276,0.099
		c0.044,0.015,0.088,0.031,0.131,0.046c0.104,0.037,0.207,0.073,0.309,0.11c0.031,0.011,0.063,0.021,0.094,0.032
		c0.098,0.034,0.193,0.068,0.289,0.103c0.041,0.014,0.082,0.028,0.122,0.042c0.085,0.03,0.166,0.058,0.249,0.087
		c0.051,0.018,0.103,0.036,0.152,0.053c0.086,0.03,0.171,0.061,0.256,0.089c0.044,0.016,0.089,0.031,0.133,0.047
		c0.081,0.027,0.16,0.055,0.241,0.082c0.05,0.018,0.101,0.035,0.15,0.053c0.075,0.024,0.149,0.051,0.225,0.076
		c0.051,0.018,0.103,0.034,0.153,0.053c0.077,0.025,0.152,0.051,0.228,0.077c0.05,0.016,0.099,0.032,0.146,0.049
		c0.123,0.041,0.243,0.082,0.364,0.122c0.237,0.079,0.468,0.166,0.691,0.26c0.004,0.001,0.008,0.003,0.012,0.004
		c0.22,0.092,0.433,0.191,0.639,0.296c0.007,0.003,0.015,0.006,0.021,0.01c0.203,0.104,0.399,0.214,0.589,0.328
		c0.009,0.005,0.02,0.011,0.028,0.017c0.188,0.113,0.368,0.232,0.544,0.356c0.011,0.008,0.022,0.016,0.033,0.023
		c0.173,0.122,0.34,0.251,0.501,0.382c0.012,0.01,0.023,0.019,0.036,0.029c0.159,0.131,0.313,0.267,0.463,0.405
		c0.012,0.012,0.024,0.022,0.035,0.033c0.147,0.14,0.291,0.283,0.429,0.429c0.01,0.013,0.021,0.023,0.032,0.034
		c0.138,0.148,0.27,0.3,0.397,0.452c0.01,0.011,0.02,0.022,0.028,0.033c0.128,0.155,0.251,0.313,0.369,0.473
		c0.007,0.01,0.015,0.021,0.022,0.03c0.119,0.163,0.233,0.328,0.344,0.495c0.005,0.007,0.01,0.014,0.015,0.021
		c0.111,0.17,0.218,0.343,0.32,0.517c0.002,0.004,0.005,0.008,0.007,0.012c1.157,1.974,1.619,4.133,1.891,5.764v9.458h-95.525
		V403.646z"/>
	<path clip-path="url(#SVGID_6_)" fill="#F8D012" d="M297.203,399.269l-43.409-30.932l4.507-7.193l11.639,9.148l27.282,18.479
		l0.747,0.507c0,0,2.847,1.103,6.744,2.561l0.007,0.032L297.203,399.269z"/>
	<path clip-path="url(#SVGID_6_)" fill="#F8D012" d="M295.065,386.521c0.564,0.227,13.159,5.253,20.786,7.795
		c3.854,1.285,5.803,4.472,6.789,7.369h-38.678L295.065,386.521z"/>
	<polygon clip-path="url(#SVGID_6_)" fill="#191818" points="270.1,369.268 263.153,375.413 266.654,366.824 	"/>
	<polygon clip-path="url(#SVGID_6_)" fill="#191818" points="276.636,373.925 269.689,380.069 273.19,371.481 	"/>
	
		<line clip-path="url(#SVGID_6_)" fill="none" stroke="#191818" stroke-width="2.148" stroke-miterlimit="10" x1="322.641" y1="402.491" x2="227.772" y2="402.491"/>
	<polygon clip-path="url(#SVGID_6_)" fill="#191818" points="283.172,378.581 276.226,384.727 279.727,376.139 	"/>
	<polygon clip-path="url(#SVGID_6_)" fill="#191818" points="289.708,383.238 282.763,389.383 286.264,380.795 	"/>
	<polygon clip-path="url(#SVGID_6_)" fill="#191818" points="296.245,387.896 289.299,394.04 292.8,385.452 	"/>
	<path clip-path="url(#SVGID_6_)" fill="none" stroke="#191818" stroke-width="4.296" stroke-miterlimit="10" d="M227.773,403.646
		l0.161-5.136l1.02-15.3l0.372-5.574l0.52-7.803l0.173-2.601h23.409c0-5.201,5.202-7.803,5.202-7.803l2.288,1.716l1.873,1.405
		l0.833,0.624l3.9,2.926l26.826,18.854l0.693,0.485c0,0,0.579,0.231,1.566,0.621c0.003,0.001,0.007,0.002,0.01,0.004
		c0.054,0.021,0.109,0.043,0.165,0.065c0.024,0.009,0.049,0.019,0.073,0.029c0.053,0.02,0.105,0.041,0.161,0.063
		c0.014,0.005,0.027,0.011,0.041,0.017c0.06,0.023,0.12,0.048,0.182,0.071c0.021,0.009,0.043,0.018,0.064,0.025
		c0.06,0.024,0.12,0.047,0.182,0.072c0.01,0.004,0.021,0.008,0.032,0.012c0.098,0.039,0.198,0.078,0.3,0.118
		c0.056,0.021,0.112,0.044,0.169,0.066c0.055,0.021,0.111,0.043,0.166,0.065c0.035,0.013,0.069,0.027,0.104,0.041
		c0.061,0.024,0.123,0.048,0.186,0.072c0.033,0.013,0.064,0.025,0.098,0.039c0.056,0.021,0.114,0.044,0.172,0.066
		c0.045,0.019,0.089,0.035,0.135,0.054c0.056,0.021,0.114,0.044,0.172,0.066c0.035,0.014,0.071,0.028,0.106,0.042
		c0.067,0.026,0.135,0.052,0.203,0.079c0.048,0.02,0.097,0.038,0.145,0.056c0.046,0.019,0.091,0.036,0.138,0.055
		c0.084,0.032,0.17,0.065,0.256,0.1c0.02,0.008,0.039,0.015,0.058,0.022c0.089,0.034,0.179,0.069,0.27,0.104
		c0.028,0.011,0.056,0.022,0.084,0.033c0.068,0.026,0.138,0.053,0.207,0.08c0.068,0.026,0.136,0.053,0.204,0.079
		c1.188,0.462,2.501,0.967,3.871,1.487c0.003,0.001,0.005,0.003,0.008,0.003c0.138,0.054,0.277,0.106,0.416,0.158
		c0,0,0.001,0.001,0.002,0.001c0.131,0.05,0.264,0.101,0.396,0.151c0.021,0.007,0.041,0.015,0.063,0.023
		c0.125,0.047,0.25,0.095,0.375,0.142c0.012,0.004,0.022,0.009,0.034,0.013c0.136,0.051,0.273,0.104,0.409,0.154
		c0.002,0.001,0.004,0.002,0.006,0.002c0.137,0.052,0.274,0.103,0.411,0.155c0.012,0.005,0.025,0.01,0.038,0.014
		c0.126,0.048,0.253,0.095,0.38,0.144c0.021,0.008,0.043,0.016,0.064,0.023c0.123,0.046,0.246,0.092,0.369,0.138
		c0.021,0.009,0.043,0.017,0.064,0.024l0.36,0.134c0.026,0.01,0.052,0.021,0.079,0.03c0.119,0.044,0.239,0.089,0.357,0.133
		c0.025,0.009,0.051,0.018,0.075,0.028c0.114,0.042,0.229,0.084,0.343,0.126l0.102,0.038c0.11,0.041,0.221,0.082,0.331,0.122
		c0.033,0.012,0.065,0.023,0.098,0.035c0.11,0.041,0.222,0.082,0.331,0.122c0.035,0.014,0.07,0.026,0.105,0.039
		c0.109,0.04,0.217,0.079,0.324,0.119c0.035,0.013,0.069,0.025,0.104,0.038c0.108,0.039,0.215,0.078,0.322,0.117
		c0.036,0.013,0.072,0.025,0.109,0.04c0.103,0.037,0.204,0.074,0.307,0.11c0.041,0.016,0.082,0.03,0.123,0.046
		c0.101,0.036,0.201,0.071,0.301,0.107c0.04,0.015,0.08,0.03,0.121,0.044c0.101,0.037,0.203,0.073,0.304,0.11
		c0.039,0.013,0.077,0.026,0.115,0.041c0.094,0.034,0.187,0.067,0.278,0.1c0.05,0.018,0.098,0.034,0.146,0.052
		c0.093,0.033,0.185,0.065,0.276,0.099c0.044,0.015,0.088,0.031,0.131,0.046c0.104,0.037,0.207,0.073,0.309,0.11
		c0.031,0.011,0.063,0.021,0.094,0.032c0.098,0.034,0.193,0.068,0.289,0.103c0.041,0.014,0.082,0.028,0.122,0.042
		c0.085,0.03,0.166,0.058,0.249,0.087c0.051,0.018,0.103,0.036,0.152,0.053c0.086,0.03,0.171,0.061,0.256,0.089
		c0.044,0.016,0.089,0.031,0.133,0.047c0.081,0.027,0.16,0.055,0.241,0.082c0.05,0.018,0.101,0.035,0.15,0.053
		c0.075,0.024,0.149,0.051,0.225,0.076c0.051,0.018,0.103,0.034,0.153,0.053c0.077,0.025,0.152,0.051,0.228,0.077
		c0.05,0.016,0.099,0.032,0.146,0.049c0.123,0.041,0.243,0.082,0.364,0.122c0.237,0.079,0.468,0.166,0.691,0.26
		c0.004,0.001,0.008,0.003,0.012,0.004c0.22,0.092,0.433,0.191,0.639,0.296c0.007,0.003,0.015,0.006,0.021,0.01
		c0.203,0.104,0.399,0.214,0.589,0.328c0.009,0.005,0.02,0.011,0.028,0.017c0.188,0.113,0.368,0.232,0.544,0.356
		c0.011,0.008,0.022,0.016,0.033,0.023c0.173,0.122,0.34,0.251,0.501,0.382c0.012,0.01,0.023,0.019,0.036,0.029
		c0.159,0.131,0.313,0.267,0.463,0.405c0.012,0.012,0.024,0.022,0.035,0.033c0.147,0.14,0.291,0.283,0.429,0.429
		c0.01,0.013,0.021,0.023,0.032,0.034c0.138,0.148,0.27,0.3,0.397,0.452c0.01,0.011,0.02,0.022,0.028,0.033
		c0.128,0.155,0.251,0.313,0.369,0.473c0.007,0.01,0.015,0.021,0.022,0.03c0.119,0.163,0.233,0.328,0.344,0.495
		c0.005,0.007,0.01,0.014,0.015,0.021c0.111,0.17,0.218,0.343,0.32,0.517c0.002,0.004,0.005,0.008,0.007,0.012
		c1.157,1.974,1.619,4.133,1.891,5.764v9.458h-95.525V403.646z"/>
	<polygon clip-path="url(#SVGID_6_)" fill="#F8D012" points="255.234,379.355 268.533,386.134 264.979,388.908 271.239,395.462 
		257.94,388.684 261.494,385.908 	"/>
</g>
<path fill="#191818" d="M367.574,307.61l3.394,5.225c-3.477,4.13-6.325,10.43-6.393,19.499l-0.001,0.06v0.037l-0.001,0.024
	l-0.002,0.165v0.04v0.039v71.391c-0.393,2.727-4.038,22.62-27.06,29.079c-5.879,1.649-21.529,6.528-31.393,14.107
	c-5.685-4.468-15.25-9.593-31.342-14.107c-22.9-6.425-26.624-26.116-27.06-29.098V332.66l-0.002-0.27l-0.001-0.065
	c-0.067-9.064-2.915-15.362-6.392-19.49l3.393-5.225h28.033h23.781h9.198h33.814H367.574 M372.117,299.244h-32.576h-33.814h-9.198
	h-23.781h-32.576l-10.034,15.454c0,0,9.1,2.806,9.21,17.689c0.001,0.091,0.003,0.181,0.003,0.272v71.94
	c0,0,2.764,28.095,33.166,36.624c29.393,8.245,33.383,17.896,33.616,18.528c0.007,0.022,0.011,0.033,0.011,0.033
	s3.226-10.034,33.627-18.562c30.403-8.529,33.167-36.624,33.167-36.624v-71.901c0-0.013,0.001-0.025,0.001-0.039
	c0-0.092,0.002-0.182,0.002-0.272c0.111-14.884,9.211-17.689,9.211-17.689L372.117,299.244z"/>
</svg>
