<?xml version="1.0" encoding="utf-8"?>
<!-- Generator: Adobe Illustrator 16.0.0, SVG Export Plug-In . SVG Version: 6.00 Build 0)  -->
<!DOCTYPE svg PUBLIC "-//W3C//DTD SVG 1.1//EN" "http://www.w3.org/Graphics/SVG/1.1/DTD/svg11.dtd">
<svg version="1.1" id="Layer_1" xmlns="http://www.w3.org/2000/svg" xmlns:xlink="http://www.w3.org/1999/xlink" x="0px" y="0px"
	 width="240px" height="200px" viewBox="0 0 240 200" enable-background="new 0 0 240 200" xml:space="preserve">
<path fill="#020202" d="M212.684,106.309c0.146,1.75-0.151,3.623,0.187,5.47c0.328,0.772,0.593,1.554,0.873,2.349
	c0.819,2.085,1.733,3.99,3.311,4.865c1.284-2.557,2.463-5.285,2.743-8.496c-0.084-2.1-0.508-4.063-1.249-5.928
	c-1.149-2.94-3.061-5.579-5.613-7.852c-0.082-0.08-0.143-0.109-0.186-0.171l-0.414-0.012c0.093,0.271,0.165,0.577,0.247,0.886
	C213.258,100.306,212.963,103.098,212.684,106.309"/>
<path fill="#020202" d="M212.882,124.089c-1.816-3.577-5.513-6.852-6.38-10.245l-0.531-0.223c-1.337,3.336-1.193,7.326-0.169,10.95
	c1.108,4.704,3.425,8.369,4.509,12.994c0.193,0.891,0.353,1.774,0.457,2.741c6.957-5.049,13.37-10.808,15.183-19.896l-12.192,6.13
	C213.594,125.692,213.264,124.854,212.882,124.089"/>
<path fill="#020202" d="M193.279,165.246c-0.916-0.018-1.783-0.026-2.639,0.015c3.211-4.57,2.291-10.164,4.059-15.119l-0.018-0.219
	c-5.33,2.008-8.125,6.7-10.73,11.657c-1.861,3.592-3.684,7.273-6.34,9.993c1.108,0.08,2.152,0.229,3.233,0.389
	c1.122,0.163,2.275,0.386,3.437,0.691c2.305,0.136,4.58,0.237,6.732,0.167c4.034-0.171,7.793-0.854,11.035-2.605
	c1.502-0.798,2.901-1.85,4.131-3.161c-0.947-0.153-1.992-0.342-3.027-0.523C199.889,165.975,196.455,165.404,193.279,165.246"/>
<path fill="#020202" d="M206.279,149.673c-1.494-5.036-4.275-10.122-3.865-15.641l-0.143-0.22l-0.375,0.164
	c-0.043,0.036-0.097,0.108-0.101,0.146c-0.293,0.501-0.603,0.786-1.137,1.3c-3.806,6.707-3.229,14.78-1.274,21.92
	c0.319,1.176,0.653,2.295,1.063,3.425c3.424-2.676,7.645-3.357,11.442-5.306c0.343-0.207,0.678-0.37,1.029-0.582
	c3.66-2.641,5.886-7.007,6.842-11.183c-2.373,0.757-4.701,1.368-6.877,2.186C210.539,146.728,208.277,147.87,206.279,149.673"/>
<path fill="#020202" d="M27.479,106.438c-0.24,1.74-0.043,3.627-0.48,5.45c-0.37,0.755-0.676,1.521-0.998,2.3
	c-0.932,2.036-1.947,3.891-3.567,4.681c-1.146-2.622-2.175-5.41-2.282-8.632c0.197-2.093,0.727-4.029,1.567-5.854
	c1.306-2.873,3.356-5.406,6.026-7.536c0.086-0.074,0.15-0.103,0.195-0.161l0.416,0.013c-0.107,0.267-0.197,0.565-0.295,0.871
	C27.229,100.414,27.373,103.217,27.479,106.438"/>
<path fill="#020202" d="M27.203,124.089c1.817-3.577,5.512-6.852,6.379-10.245l0.532-0.223c1.337,3.336,1.192,7.326,0.168,10.95
	c-1.108,4.704-3.424,8.369-4.508,12.994c-0.192,0.891-0.353,1.774-0.458,2.741c-6.956-5.049-13.369-10.808-15.182-19.896
	l12.193,6.13C26.491,125.692,26.82,124.854,27.203,124.089"/>
<path fill="#020202" d="M46.807,165.246c0.915-0.018,1.782-0.026,2.637,0.015c-3.211-4.57-2.289-10.164-4.058-15.119l0.017-0.219
	c5.33,2.008,8.125,6.7,10.731,11.657c1.861,3.592,3.683,7.273,6.339,9.993c-1.109,0.08-2.152,0.229-3.234,0.389
	c-1.121,0.163-2.274,0.386-3.435,0.691c-2.306,0.136-4.581,0.237-6.731,0.167c-4.036-0.171-7.795-0.854-11.037-2.605
	c-1.502-0.798-2.902-1.85-4.131-3.161c0.949-0.153,1.992-0.342,3.027-0.523C40.197,165.975,43.63,165.404,46.807,165.246"/>
<path fill="#020202" d="M33.807,149.673c1.493-5.036,4.273-10.122,3.863-15.641l0.143-0.22l0.375,0.164
	c0.045,0.036,0.096,0.108,0.101,0.146c0.292,0.501,0.601,0.786,1.136,1.3c3.805,6.707,3.23,14.78,1.275,21.92
	c-0.32,1.176-0.653,2.295-1.063,3.425c-3.423-2.676-7.645-3.357-11.443-5.306c-0.34-0.207-0.676-0.37-1.028-0.582
	c-3.66-2.641-5.886-7.007-6.841-11.183c2.373,0.757,4.699,1.368,6.875,2.186C29.545,146.728,31.807,147.87,33.807,149.673"/>
<path fill="#FFFFFF" d="M80.779,73.532c0.865-2.783-0.534-6.177-3.11-7.54L50.096,51.394L20.794,35.883
	c-2.575-1.363-4.94-0.107-5.252,2.79c0,0-3.294,30.512,20.819,39.177C60.476,86.515,70.119,89.98,70.119,89.98
	c2.742,0.984,5.695-0.484,6.561-3.27L80.779,73.532z"/>
<path fill="#FFFFFF" d="M159.383,73.532c-0.867-2.783,0.533-6.177,3.109-7.54l27.572-14.599l29.303-15.511
	c2.576-1.363,4.938-0.107,5.252,2.79c0,0,3.294,30.512-20.82,39.177c-24.113,8.665-33.757,12.131-33.757,12.131
	c-2.743,0.984-5.696-0.484-6.562-3.27L159.383,73.532z"/>
<path fill="none" stroke="#020202" stroke-width="5.77" stroke-miterlimit="10" d="M80.779,73.532
	c0.865-2.783-0.534-6.177-3.11-7.54L50.096,51.394L20.794,35.883c-2.575-1.363-4.94-0.107-5.252,2.79
	c0,0-3.294,30.512,20.819,39.177C60.476,86.515,70.119,89.98,70.119,89.98c2.742,0.984,5.695-0.484,6.561-3.27L80.779,73.532z"/>
<path fill="none" stroke="#020202" stroke-width="5.77" stroke-miterlimit="10" d="M159.383,73.532
	c-0.867-2.783,0.533-6.177,3.109-7.54l27.572-14.599l29.303-15.511c2.576-1.363,4.938-0.107,5.252,2.79
	c0,0,3.294,30.512-20.82,39.177c-24.113,8.665-33.757,12.131-33.757,12.131c-2.743,0.984-5.696-0.484-6.562-3.27L159.383,73.532z"/>
<rect x="75.189" y="131.861" fill="#020202" width="85" height="43.667"/>
<polygon fill="#020202" points="148.491,161.025 174.328,152.046 161.255,142.266 109.747,166.528 "/>
<polygon fill="#020202" points="121.748,167.528 65.053,152.046 78.125,142.266 126.248,164.028 "/>
<polygon fill="#FFFFFF" points="172.004,183.863 119.711,198.046 67.418,182.358 67.418,154.837 119.711,164.525 172.004,154.837 
	"/>
<polygon fill="none" stroke="#020202" stroke-width="4.515" stroke-miterlimit="10" points="172.004,183.863 119.711,196.646 
	67.418,183.863 67.418,154.837 119.711,163.62 172.004,154.837 "/>
<path fill="#FDD00F" d="M120.029,37.388H53.246c0,0.091,0.002,0.182,0.002,0.272V109.6c0,0,2.765,28.096,33.166,36.624
	c29.393,8.245,33.383,17.896,33.615,18.529c0.008,0.021,0.012,0.032,0.012,0.032s3.227-10.034,33.627-18.563
	c30.404-8.528,33.166-36.624,33.166-36.624v-71.9c0.002-0.014,0.002-0.025,0.002-0.039c0-0.092,0.002-0.183,0.002-0.272
	L120.029,37.388L120.029,37.388z"/>
<g opacity="0.5">
	<g>
		<g>
			<defs>
				<rect id="SVGID_1_" x="120.029" y="37.39" width="66.811" height="127.4"/>
			</defs>
			<clipPath id="SVGID_2_">
				<use xlink:href="#SVGID_1_"  overflow="visible"/>
			</clipPath>
			<path clip-path="url(#SVGID_2_)" fill="#CDA72C" d="M153.669,146.224c30.401-8.527,33.165-36.624,33.165-36.624V37.7
				c0.002-0.015,0.002-0.026,0.002-0.039c0-0.092,0.002-0.183,0.003-0.273h-66.81v127.366c0.008,0.022,0.012,0.034,0.012,0.034
				S123.268,154.753,153.669,146.224"/>
		</g>
	</g>
</g>
<path fill="#191818" d="M181.473,12.61l3.394,5.225c-2.296,2.726-4.316,6.396-5.445,11.188H60.664
	c-1.127-4.79-3.148-8.462-5.443-11.188l3.392-5.225h28.032h23.781h9.199h33.814H181.473 M186.016,4.244h-32.576h-33.813h-9.199
	H86.646H54.071L44.037,19.698c0,0,9.1,2.806,9.211,17.688H186.84c0.111-14.884,9.211-17.688,9.211-17.688L186.016,4.244z"/>
<g opacity="0.4">
	<g>
		<g>
			<defs>
				<rect id="SVGID_3_" x="44.04" y="4.24" width="152.01" height="160.55"/>
			</defs>
			<clipPath id="SVGID_4_">
				<use xlink:href="#SVGID_3_"  overflow="visible"/>
			</clipPath>
			<path clip-path="url(#SVGID_4_)" fill="#FFFFFF" d="M178.045,18.041c-2.643,4.355-4.93,10.604-5.002,19.229v0.005l-0.004,0.261
				v0.082v0.082v70.951c-0.225,1.223-1.07,5.082-3.449,9.366c-4.105,7.396-10.717,12.417-19.646,14.924
				c-13.944,3.911-23.452,8.354-29.929,12.658c-6.467-4.301-15.956-8.755-29.872-12.658c-8.597-2.412-15.05-7.16-19.183-14.113
				c-2.711-4.56-3.654-8.787-3.914-10.227V37.66l-0.002-0.376c-0.065-8.624-2.356-14.881-5.004-19.243h24.605h23.781h9.199h33.813
				H178.045 M186.016,4.244h-32.576h-33.813h-9.199H86.646H54.071L44.037,19.698c0,0,9.1,2.806,9.211,17.688
				c0,0.091,0.002,0.182,0.002,0.272v71.939c0,0,2.764,28.096,33.166,36.624c29.394,8.245,33.383,17.896,33.615,18.528
				c0.008,0.022,0.012,0.033,0.012,0.033s3.227-10.034,33.627-18.563c30.403-8.528,33.166-36.624,33.166-36.624v-71.9
				c0.002-0.014,0.002-0.025,0.002-0.039c0-0.092,0.002-0.183,0.002-0.272c0.111-14.884,9.211-17.688,9.211-17.688L186.016,4.244z"
				/>
		</g>
	</g>
</g>
<path fill="#1A1A19" d="M196.049,19.698L186.016,4.244h-32.576h-33.814h-9.198H86.646H54.07L44.035,19.698
	c0,0,9.1,2.807,9.211,17.688v7.526h133.593v-7.526C186.949,22.505,196.049,19.698,196.049,19.698"/>
<path fill="#FFFFFF" d="M73.744,33.387v-4.274h-8.188V25.74L72.6,13.306h5.178v12.253h2.018v3.554h-2.018v4.274H73.744z
	 M73.744,17.4l-4.547,8.157h4.547V17.4z"/>
<polygon fill="#FFFFFF" points="100.866,33.387 98.275,20.02 95.718,33.387 91.503,33.387 86.927,13.306 91.262,13.306 
	93.852,27.275 96.711,13.306 99.872,13.306 102.762,27.275 105.32,13.306 109.656,13.306 105.081,33.387 "/>
<polygon fill="#FFFFFF" points="111.61,33.387 111.61,13.306 123.111,13.306 123.111,16.858 115.645,16.858 115.645,21.404 
	122.9,21.404 122.9,24.957 115.645,24.957 115.645,29.834 123.111,29.834 123.111,33.387 "/>
<polygon fill="#FFFFFF" points="126.089,33.387 126.089,13.306 137.59,13.306 137.59,16.858 130.123,16.858 130.123,21.404 
	137.379,21.404 137.379,24.957 130.123,24.957 130.123,29.834 137.59,29.834 137.59,33.387 "/>
<polygon fill="#FFFFFF" points="150.652,33.387 146.016,25.529 144.602,27.757 144.602,33.387 140.566,33.387 140.566,13.306 
	144.602,13.306 144.602,22.428 150.262,13.306 154.958,13.306 148.545,22.759 155.409,33.387 "/>
<path fill="#FFFFFF" d="M155.919,31.158l1.987-3.102c1.113,1.234,2.859,2.139,4.847,2.139c1.776,0,2.739-0.994,2.739-2.229
	c0-3.521-8.971-2.316-8.971-9.121c0-3.162,2.469-5.871,6.623-5.871c2.438,0,4.545,0.783,6.08,2.229l-1.927,3.011
	c-1.204-1.144-2.739-1.686-4.305-1.686c-1.445,0-2.349,0.813-2.349,2.047c0,3.131,8.94,2.288,8.94,9.063
	c0,3.521-2.408,6.111-6.804,6.111C159.742,33.748,157.516,32.754,155.919,31.158"/>
<polygon fill="#1A1A19" points="103.964,185.976 103.964,173.629 101.439,176.253 99.516,174.229 104.414,169.305 107.338,169.305 
	107.338,185.976 "/>
<path fill="#1A1A19" d="M109.615,177.652c0-4.3,1.774-8.599,5.898-8.599c4.148,0,5.898,4.3,5.898,8.599
	c0,4.273-1.725,8.623-5.898,8.623C111.39,186.275,109.615,181.927,109.615,177.652 M118.013,177.652c0-3.225-0.55-5.623-2.499-5.623
	c-1.926,0-2.475,2.398-2.475,5.623c0,3.198,0.549,5.647,2.475,5.647C117.463,183.301,118.013,180.852,118.013,177.652"/>
<polygon fill="#1A1A19" points="132.088,185.976 128.238,179.453 127.063,181.302 127.063,185.976 123.715,185.976 123.715,169.305 
	127.063,169.305 127.063,176.878 131.764,169.305 135.66,169.305 130.338,177.152 136.035,185.976 "/>
<g>
	<g>
		<defs>
			<path id="SVGID_5_" d="M119.967,37.591H53.745c0.002,0.089,0.005,0.177,0.005,0.271v71.335c0,0,2.738,27.855,32.887,36.313
				c29.143,8.177,33.1,17.746,33.33,18.373c0.008,0.021,0.012,0.033,0.012,0.033s3.199-9.95,33.345-18.406
				c30.146-8.457,32.886-36.313,32.886-36.313V37.9c0-0.014,0-0.027,0-0.039c0-0.094,0.002-0.182,0.004-0.271H119.967
				L119.967,37.591z"/>
		</defs>
		<clipPath id="SVGID_6_">
			<use xlink:href="#SVGID_5_"  overflow="visible"/>
		</clipPath>
		<g clip-path="url(#SVGID_6_)">
			<g opacity="0.5">
				<g>
					<defs>
						<rect id="SVGID_7_" x="52.43" y="104.87" width="130.759" height="27.61"/>
					</defs>
					<defs>
						<rect id="SVGID_8_" x="52.43" y="104.87" width="130.759" height="27.61"/>
					</defs>
					<defs>
						<rect id="SVGID_9_" x="52.43" y="104.87" width="130.759" height="27.61"/>
					</defs>
					<defs>
						<rect id="SVGID_10_" x="52.43" y="104.87" width="130.759" height="27.61"/>
					</defs>
					<defs>
						<rect id="SVGID_11_" x="52.43" y="104.87" width="130.759" height="27.61"/>
					</defs>
					<defs>
						<rect id="SVGID_12_" x="52.43" y="104.87" width="130.759" height="27.61"/>
					</defs>
					<defs>
						<rect id="SVGID_13_" x="52.43" y="104.87" width="130.759" height="27.61"/>
					</defs>
					<defs>
						<rect id="SVGID_14_" x="52.43" y="104.87" width="130.759" height="27.61"/>
					</defs>
					<clipPath id="SVGID_15_">
						<use xlink:href="#SVGID_7_"  overflow="visible"/>
					</clipPath>
					<clipPath id="SVGID_16_" clip-path="url(#SVGID_15_)">
						<use xlink:href="#SVGID_8_"  overflow="visible"/>
					</clipPath>
					<clipPath id="SVGID_17_" clip-path="url(#SVGID_16_)">
						<use xlink:href="#SVGID_9_"  overflow="visible"/>
					</clipPath>
					<clipPath id="SVGID_18_" clip-path="url(#SVGID_17_)">
						<use xlink:href="#SVGID_10_"  overflow="visible"/>
					</clipPath>
					<clipPath id="SVGID_19_" clip-path="url(#SVGID_18_)">
						<use xlink:href="#SVGID_11_"  overflow="visible"/>
					</clipPath>
					<clipPath id="SVGID_20_" clip-path="url(#SVGID_19_)">
						<use xlink:href="#SVGID_12_"  overflow="visible"/>
					</clipPath>
					<clipPath id="SVGID_21_" clip-path="url(#SVGID_20_)">
						<use xlink:href="#SVGID_13_"  overflow="visible"/>
					</clipPath>
					<clipPath id="SVGID_22_" clip-path="url(#SVGID_21_)">
						<use xlink:href="#SVGID_14_"  overflow="visible"/>
					</clipPath>
					<path clip-path="url(#SVGID_22_)" fill="#CDA72C" d="M169.186,104.87c0,0-9.746,8.382-7.764,7.194c0,0-1.287,7.67-7.59,7.4
						c-6.303-0.267-8.125,9.171-7.882,11.126c0,0,3.948-4.619,10.466-2.967c6.518,1.654,10.059-2.413,10.936-3.702
						c0,0-2.33,7.688-6.85,8.27c0,0,11.193,2.166,15.59-5.347c4.395-7.514,6.612-16.359,7.084-17.154
						C183.646,108.896,169.186,104.87,169.186,104.87"/>
					<path clip-path="url(#SVGID_22_)" fill="#CDA72C" d="M156.361,126.278c0,0-7.976,1.536-6.607,1.02c0,0-4.303-2.372-6.645,0.854
						c-2.342,3.226-7.729,0.425-8.603-0.463c0,0,3.837-0.145,5.576-4.021c1.737-3.875,5.142-4.033,6.125-3.961
						c0,0-4.722-1.863-6.782,0.146c0,0,3.319-6.393,8.766-5.619c5.443,0.771,10.695,3.145,11.272,3.224
						C160.043,117.537,156.361,126.278,156.361,126.278"/>
					<path clip-path="url(#SVGID_22_)" fill="#CDA72C" d="M136.85,104.87c0,0-9.744,8.382-7.764,7.194c0,0-1.287,7.67-7.59,7.4
						c-6.303-0.267-8.125,9.171-7.882,11.126c0,0,3.95-4.619,10.466-2.967c6.518,1.654,10.059-2.413,10.938-3.702
						c0,0-2.332,7.688-6.85,8.27c0,0,11.193,2.166,15.588-5.347c4.396-7.514,6.613-16.359,7.084-17.154
						C151.313,108.896,136.85,104.87,136.85,104.87"/>
					<path clip-path="url(#SVGID_22_)" fill="#CDA72C" d="M124.027,126.278c0,0-7.977,1.536-6.609,1.02c0,0-4.303-2.372-6.644,0.854
						c-2.341,3.226-7.729,0.425-8.602-0.463c0,0,3.837-0.145,5.575-4.021c1.738-3.875,5.142-4.033,6.125-3.961
						c0,0-4.721-1.863-6.782,0.146c0,0,3.321-6.393,8.766-5.619c5.444,0.771,10.695,3.145,11.274,3.224
						S124.027,126.278,124.027,126.278"/>
					<path clip-path="url(#SVGID_22_)" fill="#CDA72C" d="M111.479,104.87c0,0-9.745,8.382-7.762,7.194c0,0-1.289,7.67-7.592,7.4
						c-6.302-0.267-8.125,9.171-7.881,11.126c0,0,3.949-4.619,10.467-2.967c6.516,1.654,10.057-2.413,10.935-3.702
						c0,0-2.33,7.688-6.849,8.27c0,0,11.193,2.166,15.588-5.347c4.396-7.514,6.613-16.359,7.084-17.154
						C125.939,108.896,111.479,104.87,111.479,104.87"/>
					<path clip-path="url(#SVGID_22_)" fill="#CDA72C" d="M98.656,126.278c0,0-7.976,1.536-6.609,1.02c0,0-4.303-2.372-6.644,0.854
						c-2.341,3.226-7.729,0.425-8.602-0.463c0,0,3.837-0.145,5.575-4.021c1.738-3.875,5.143-4.033,6.125-3.961
						c0,0-4.721-1.863-6.781,0.146c0,0,3.32-6.393,8.765-5.619c5.444,0.771,10.695,3.145,11.274,3.224
						C102.338,117.537,98.656,126.278,98.656,126.278"/>
					<path clip-path="url(#SVGID_22_)" fill="#CDA72C" d="M87.104,104.87c0,0-9.746,8.382-7.764,7.194c0,0-1.287,7.67-7.59,7.4
						c-6.303-0.267-8.126,9.171-7.883,11.126c0,0,3.951-4.619,10.467-2.967c6.517,1.654,10.058-2.413,10.936-3.702
						c0,0-2.33,7.688-6.849,8.27c0,0,11.194,2.166,15.589-5.347c4.395-7.514,6.613-16.359,7.084-17.154
						C101.564,108.896,87.104,104.87,87.104,104.87"/>
					<path clip-path="url(#SVGID_22_)" fill="#CDA72C" d="M74.28,126.278c0,0-7.976,1.536-6.609,1.02c0,0-4.303-2.372-6.644,0.854
						c-2.34,3.226-7.729,0.425-8.602-0.463c0,0,3.838-0.145,5.576-4.021c1.738-3.875,5.141-4.033,6.124-3.961
						c0,0-4.721-1.863-6.782,0.146c0,0,3.321-6.393,8.766-5.619c5.445,0.771,10.695,3.145,11.274,3.224
						C77.962,117.537,74.28,126.278,74.28,126.278"/>
				</g>
			</g>
			<g>
				<defs>
					<path id="SVGID_23_" d="M119.967,37.591H53.745c0.002,0.089,0.005,0.177,0.005,0.271v71.335c0,0,2.738,27.855,32.887,36.313
						c29.143,8.177,33.1,17.746,33.33,18.373c0.008,0.021,0.012,0.033,0.012,0.033s3.199-9.95,33.345-18.406
						c30.146-8.457,32.886-36.313,32.886-36.313V37.9c0-0.014,0-0.027,0-0.039c0-0.094,0.002-0.182,0.004-0.271H119.967
						L119.967,37.591z"/>
				</defs>
				<clipPath id="SVGID_24_">
					<use xlink:href="#SVGID_23_"  overflow="visible"/>
				</clipPath>
				<path clip-path="url(#SVGID_24_)" fill="#FFFFFF" d="M82.494,108.646l0.16-5.137l1.02-15.3l0.373-5.574l0.52-7.803l0.173-2.601
					h23.409c0-5.201,5.202-7.804,5.202-7.804l2.288,1.716l1.873,1.405l0.832,0.624l3.9,2.926l26.826,18.854l0.693,0.485
					c0,0,0.577,0.23,1.565,0.62c0.002,0.001,0.006,0.002,0.01,0.005c0.054,0.021,0.108,0.043,0.164,0.064
					c0.024,0.009,0.049,0.02,0.074,0.029c0.053,0.02,0.104,0.041,0.159,0.063c0.015,0.005,0.027,0.012,0.041,0.018
					c0.062,0.022,0.121,0.048,0.183,0.07c0.021,0.01,0.043,0.019,0.063,0.025c0.062,0.024,0.121,0.047,0.183,0.072
					c0.01,0.004,0.021,0.008,0.032,0.012c0.099,0.039,0.197,0.078,0.3,0.118c0.057,0.021,0.112,0.044,0.17,0.065
					c0.055,0.021,0.11,0.043,0.166,0.065c0.034,0.013,0.067,0.027,0.104,0.041c0.061,0.024,0.123,0.048,0.186,0.072
					c0.033,0.013,0.064,0.024,0.098,0.039c0.057,0.021,0.115,0.044,0.174,0.065c0.043,0.02,0.088,0.035,0.135,0.054
					c0.056,0.021,0.113,0.045,0.172,0.066c0.035,0.014,0.07,0.028,0.105,0.042c0.066,0.026,0.135,0.052,0.203,0.079
					c0.049,0.02,0.096,0.038,0.145,0.056c0.047,0.02,0.093,0.036,0.138,0.056c0.086,0.031,0.172,0.064,0.258,0.1
					c0.021,0.008,0.039,0.015,0.058,0.022c0.09,0.033,0.18,0.068,0.27,0.104c0.027,0.011,0.057,0.022,0.084,0.033
					c0.068,0.025,0.139,0.053,0.207,0.08c0.068,0.025,0.137,0.053,0.205,0.079c1.188,0.462,2.5,0.967,3.87,1.486
					c0.003,0.001,0.005,0.003,0.009,0.003c0.137,0.055,0.275,0.106,0.416,0.158v0.001c0.133,0.05,0.266,0.102,0.396,0.151
					c0.021,0.007,0.043,0.015,0.063,0.022c0.123,0.048,0.25,0.096,0.375,0.143l0.033,0.013c0.137,0.051,0.272,0.104,0.409,0.154
					c0.002,0.001,0.004,0.002,0.006,0.002c0.138,0.052,0.273,0.103,0.41,0.155l0.039,0.014c0.125,0.048,0.252,0.095,0.379,0.144
					c0.021,0.009,0.043,0.017,0.064,0.023c0.123,0.046,0.246,0.092,0.369,0.138c0.021,0.009,0.043,0.018,0.063,0.024l0.36,0.134
					l0.08,0.03c0.119,0.044,0.238,0.089,0.356,0.133c0.025,0.009,0.052,0.018,0.076,0.028c0.113,0.042,0.228,0.084,0.342,0.126
					c0.033,0.013,0.067,0.024,0.103,0.038c0.108,0.041,0.222,0.082,0.33,0.122c0.033,0.012,0.065,0.022,0.099,0.034
					c0.11,0.041,0.221,0.082,0.332,0.122c0.034,0.015,0.069,0.026,0.104,0.039c0.108,0.04,0.217,0.079,0.325,0.119l0.103,0.038
					c0.106,0.039,0.216,0.078,0.322,0.117c0.034,0.013,0.071,0.024,0.108,0.04c0.103,0.037,0.205,0.074,0.308,0.109
					c0.041,0.017,0.082,0.03,0.123,0.047c0.101,0.035,0.2,0.07,0.301,0.106c0.039,0.015,0.08,0.03,0.119,0.044
					c0.103,0.037,0.202,0.073,0.306,0.11c0.038,0.013,0.077,0.025,0.116,0.041c0.093,0.034,0.187,0.066,0.276,0.1
					c0.05,0.019,0.099,0.034,0.146,0.052c0.095,0.033,0.187,0.065,0.277,0.1c0.043,0.015,0.088,0.031,0.131,0.046
					c0.104,0.037,0.205,0.073,0.31,0.109c0.03,0.012,0.063,0.021,0.094,0.032c0.098,0.034,0.192,0.068,0.289,0.104
					c0.041,0.014,0.082,0.027,0.121,0.042c0.084,0.029,0.166,0.058,0.25,0.087c0.051,0.018,0.102,0.036,0.151,0.053
					c0.086,0.03,0.17,0.062,0.256,0.089c0.044,0.017,0.089,0.031,0.134,0.047c0.08,0.027,0.159,0.056,0.239,0.082
					c0.05,0.019,0.101,0.035,0.15,0.054c0.075,0.023,0.149,0.051,0.225,0.075c0.052,0.019,0.103,0.034,0.154,0.054
					c0.075,0.024,0.151,0.051,0.228,0.077c0.049,0.016,0.098,0.031,0.146,0.049c0.123,0.041,0.244,0.082,0.363,0.122
					c0.238,0.079,0.469,0.166,0.692,0.26c0.004,0.001,0.009,0.003,0.013,0.004c0.219,0.092,0.432,0.191,0.639,0.296
					c0.006,0.003,0.014,0.006,0.021,0.01c0.202,0.104,0.397,0.214,0.588,0.328c0.01,0.005,0.02,0.011,0.028,0.018
					c0.188,0.112,0.367,0.231,0.543,0.355c0.013,0.008,0.022,0.017,0.033,0.023c0.174,0.122,0.34,0.251,0.502,0.382
					c0.012,0.01,0.022,0.019,0.035,0.029c0.159,0.131,0.313,0.267,0.463,0.404c0.012,0.013,0.024,0.022,0.035,0.033
					c0.147,0.14,0.291,0.283,0.43,0.429c0.011,0.014,0.021,0.023,0.031,0.034c0.139,0.148,0.271,0.3,0.397,0.452
					c0.01,0.011,0.021,0.022,0.027,0.033c0.129,0.155,0.252,0.313,0.369,0.473c0.008,0.01,0.016,0.021,0.021,0.03
					c0.119,0.163,0.233,0.328,0.344,0.495c0.006,0.007,0.012,0.014,0.016,0.021c0.111,0.17,0.219,0.343,0.32,0.518
					c0.002,0.004,0.004,0.008,0.008,0.012c1.156,1.974,1.619,4.133,1.891,5.764v9.458H82.493v-9.452H82.494z"/>
			</g>
			<g>
				<defs>
					<path id="SVGID_25_" d="M119.967,37.591H53.745c0.002,0.089,0.005,0.177,0.005,0.271v71.335c0,0,2.738,27.855,32.887,36.313
						c29.143,8.177,33.1,17.746,33.33,18.373c0.008,0.021,0.012,0.033,0.012,0.033s3.199-9.95,33.345-18.406
						c30.146-8.457,32.886-36.313,32.886-36.313V37.9c0-0.014,0-0.027,0-0.039c0-0.094,0.002-0.182,0.004-0.271H119.967
						L119.967,37.591z"/>
				</defs>
				<clipPath id="SVGID_26_">
					<use xlink:href="#SVGID_25_"  overflow="visible"/>
				</clipPath>
				<path clip-path="url(#SVGID_26_)" fill="#F8D016" d="M151.923,104.269l-43.409-30.932l4.507-7.193l11.64,9.148l27.28,18.479
					l0.748,0.507c0,0,2.847,1.103,6.744,2.561l0.006,0.032L151.923,104.269z"/>
			</g>
			<g>
				<defs>
					<path id="SVGID_27_" d="M119.967,37.591H53.745c0.002,0.089,0.005,0.177,0.005,0.271v71.335c0,0,2.738,27.855,32.887,36.313
						c29.143,8.177,33.1,17.746,33.33,18.373c0.008,0.021,0.012,0.033,0.012,0.033s3.199-9.95,33.345-18.406
						c30.146-8.457,32.886-36.313,32.886-36.313V37.9c0-0.014,0-0.027,0-0.039c0-0.094,0.002-0.182,0.004-0.271H119.967
						L119.967,37.591z"/>
				</defs>
				<clipPath id="SVGID_28_">
					<use xlink:href="#SVGID_27_"  overflow="visible"/>
				</clipPath>
				<path clip-path="url(#SVGID_28_)" fill="#F8D016" d="M149.786,91.521c0.563,0.227,13.159,5.253,20.786,7.795
					c3.854,1.284,5.802,4.472,6.789,7.368h-38.678L149.786,91.521z"/>
			</g>
			<g>
				<defs>
					<path id="SVGID_29_" d="M119.967,37.591H53.745c0.002,0.089,0.005,0.177,0.005,0.271v71.335c0,0,2.738,27.855,32.887,36.313
						c29.143,8.177,33.1,17.746,33.33,18.373c0.008,0.021,0.012,0.033,0.012,0.033s3.199-9.95,33.345-18.406
						c30.146-8.457,32.886-36.313,32.886-36.313V37.9c0-0.014,0-0.027,0-0.039c0-0.094,0.002-0.182,0.004-0.271H119.967
						L119.967,37.591z"/>
				</defs>
				<clipPath id="SVGID_30_">
					<use xlink:href="#SVGID_29_"  overflow="visible"/>
				</clipPath>
				<polygon clip-path="url(#SVGID_30_)" fill="#191818" points="124.82,74.268 117.873,80.413 121.375,71.824 				"/>
			</g>
			<g>
				<defs>
					<path id="SVGID_31_" d="M119.967,37.591H53.745c0.002,0.089,0.005,0.177,0.005,0.271v71.335c0,0,2.738,27.855,32.887,36.313
						c29.143,8.177,33.1,17.746,33.33,18.373c0.008,0.021,0.012,0.033,0.012,0.033s3.199-9.95,33.345-18.406
						c30.146-8.457,32.886-36.313,32.886-36.313V37.9c0-0.014,0-0.027,0-0.039c0-0.094,0.002-0.182,0.004-0.271H119.967
						L119.967,37.591z"/>
				</defs>
				<clipPath id="SVGID_32_">
					<use xlink:href="#SVGID_31_"  overflow="visible"/>
				</clipPath>
				<polygon clip-path="url(#SVGID_32_)" fill="#191818" points="131.355,78.925 124.41,85.069 127.91,76.481 				"/>
			</g>
			<g>
				<defs>
					<path id="SVGID_33_" d="M119.967,37.591H53.745c0.002,0.089,0.005,0.177,0.005,0.271v71.335c0,0,2.738,27.855,32.887,36.313
						c29.143,8.177,33.1,17.746,33.33,18.373c0.008,0.021,0.012,0.033,0.012,0.033s3.199-9.95,33.345-18.406
						c30.146-8.457,32.886-36.313,32.886-36.313V37.9c0-0.014,0-0.027,0-0.039c0-0.094,0.002-0.182,0.004-0.271H119.967
						L119.967,37.591z"/>
				</defs>
				<clipPath id="SVGID_34_">
					<use xlink:href="#SVGID_33_"  overflow="visible"/>
				</clipPath>
				
					<line clip-path="url(#SVGID_34_)" fill="none" stroke="#191818" stroke-width="2.148" stroke-miterlimit="10" x1="177.361" y1="107.491" x2="82.493" y2="107.491"/>
			</g>
			<g>
				<defs>
					<path id="SVGID_35_" d="M119.967,37.591H53.745c0.002,0.089,0.005,0.177,0.005,0.271v71.335c0,0,2.738,27.855,32.887,36.313
						c29.143,8.177,33.1,17.746,33.33,18.373c0.008,0.021,0.012,0.033,0.012,0.033s3.199-9.95,33.345-18.406
						c30.146-8.457,32.886-36.313,32.886-36.313V37.9c0-0.014,0-0.027,0-0.039c0-0.094,0.002-0.182,0.004-0.271H119.967
						L119.967,37.591z"/>
				</defs>
				<clipPath id="SVGID_36_">
					<use xlink:href="#SVGID_35_"  overflow="visible"/>
				</clipPath>
				<polygon clip-path="url(#SVGID_36_)" fill="#191818" points="137.893,83.581 130.945,89.727 134.447,81.139 				"/>
			</g>
			<g>
				<defs>
					<path id="SVGID_37_" d="M119.967,37.591H53.745c0.002,0.089,0.005,0.177,0.005,0.271v71.335c0,0,2.738,27.855,32.887,36.313
						c29.143,8.177,33.1,17.746,33.33,18.373c0.008,0.021,0.012,0.033,0.012,0.033s3.199-9.95,33.345-18.406
						c30.146-8.457,32.886-36.313,32.886-36.313V37.9c0-0.014,0-0.027,0-0.039c0-0.094,0.002-0.182,0.004-0.271H119.967
						L119.967,37.591z"/>
				</defs>
				<clipPath id="SVGID_38_">
					<use xlink:href="#SVGID_37_"  overflow="visible"/>
				</clipPath>
				<polygon clip-path="url(#SVGID_38_)" fill="#191818" points="144.43,88.238 137.482,94.383 140.984,85.795 				"/>
			</g>
			<g>
				<defs>
					<path id="SVGID_39_" d="M119.967,37.591H53.745c0.002,0.089,0.005,0.177,0.005,0.271v71.335c0,0,2.738,27.855,32.887,36.313
						c29.143,8.177,33.1,17.746,33.33,18.373c0.008,0.021,0.012,0.033,0.012,0.033s3.199-9.95,33.345-18.406
						c30.146-8.457,32.886-36.313,32.886-36.313V37.9c0-0.014,0-0.027,0-0.039c0-0.094,0.002-0.182,0.004-0.271H119.967
						L119.967,37.591z"/>
				</defs>
				<clipPath id="SVGID_40_">
					<use xlink:href="#SVGID_39_"  overflow="visible"/>
				</clipPath>
				<polygon clip-path="url(#SVGID_40_)" fill="#191818" points="150.965,92.896 144.02,99.04 147.52,90.452 				"/>
			</g>
			<g>
				<defs>
					<path id="SVGID_41_" d="M119.967,37.591H53.745c0.002,0.089,0.005,0.177,0.005,0.271v71.335c0,0,2.738,27.855,32.887,36.313
						c29.143,8.177,33.1,17.746,33.33,18.373c0.008,0.021,0.012,0.033,0.012,0.033s3.199-9.95,33.345-18.406
						c30.146-8.457,32.886-36.313,32.886-36.313V37.9c0-0.014,0-0.027,0-0.039c0-0.094,0.002-0.182,0.004-0.271H119.967
						L119.967,37.591z"/>
				</defs>
				<clipPath id="SVGID_42_">
					<use xlink:href="#SVGID_41_"  overflow="visible"/>
				</clipPath>
				<path clip-path="url(#SVGID_42_)" fill="none" stroke="#191818" stroke-width="4.296" stroke-miterlimit="10" d="
					M82.494,108.646l0.16-5.137l1.02-15.3l0.373-5.574l0.52-7.803l0.173-2.601h23.409c0-5.201,5.202-7.804,5.202-7.804l2.288,1.716
					l1.873,1.405l0.832,0.624l3.9,2.926l26.826,18.854l0.693,0.485c0,0,0.577,0.23,1.565,0.62c0.002,0.001,0.006,0.002,0.01,0.005
					c0.054,0.021,0.108,0.043,0.164,0.064c0.024,0.009,0.049,0.02,0.074,0.029c0.053,0.02,0.104,0.041,0.159,0.063
					c0.015,0.005,0.027,0.012,0.041,0.018c0.062,0.022,0.121,0.048,0.183,0.07c0.021,0.01,0.043,0.019,0.063,0.025
					c0.062,0.024,0.121,0.047,0.183,0.072c0.01,0.004,0.021,0.008,0.032,0.012c0.099,0.039,0.197,0.078,0.3,0.118
					c0.057,0.021,0.112,0.044,0.17,0.065c0.055,0.021,0.11,0.043,0.166,0.065c0.034,0.013,0.067,0.027,0.104,0.041
					c0.061,0.024,0.123,0.048,0.186,0.072c0.033,0.013,0.064,0.024,0.098,0.039c0.057,0.021,0.115,0.044,0.174,0.065
					c0.043,0.02,0.088,0.035,0.135,0.054c0.056,0.021,0.113,0.045,0.172,0.066c0.035,0.014,0.07,0.028,0.105,0.042
					c0.066,0.026,0.135,0.052,0.203,0.079c0.049,0.02,0.096,0.038,0.145,0.056c0.047,0.02,0.093,0.036,0.138,0.056
					c0.086,0.031,0.172,0.064,0.258,0.1c0.021,0.008,0.039,0.015,0.058,0.022c0.09,0.033,0.18,0.068,0.27,0.104
					c0.027,0.011,0.057,0.022,0.084,0.033c0.068,0.025,0.139,0.053,0.207,0.08c0.068,0.025,0.137,0.053,0.205,0.079
					c1.188,0.462,2.5,0.967,3.87,1.486c0.003,0.001,0.005,0.003,0.009,0.003c0.137,0.055,0.275,0.106,0.416,0.158v0.001
					c0.133,0.05,0.266,0.102,0.396,0.151c0.021,0.007,0.043,0.015,0.063,0.022c0.123,0.048,0.25,0.096,0.375,0.143l0.033,0.013
					c0.137,0.051,0.272,0.104,0.409,0.154c0.002,0.001,0.004,0.002,0.006,0.002c0.138,0.052,0.273,0.103,0.41,0.155l0.039,0.014
					c0.125,0.048,0.252,0.095,0.379,0.144c0.021,0.009,0.043,0.017,0.064,0.023c0.123,0.046,0.246,0.092,0.369,0.138
					c0.021,0.009,0.043,0.018,0.063,0.024l0.36,0.134l0.08,0.03c0.119,0.044,0.238,0.089,0.356,0.133
					c0.025,0.009,0.052,0.018,0.076,0.028c0.113,0.042,0.228,0.084,0.342,0.126c0.033,0.013,0.067,0.024,0.103,0.038
					c0.108,0.041,0.222,0.082,0.33,0.122c0.033,0.012,0.065,0.022,0.099,0.034c0.11,0.041,0.221,0.082,0.332,0.122
					c0.034,0.015,0.069,0.026,0.104,0.039c0.108,0.04,0.217,0.079,0.325,0.119l0.103,0.038c0.106,0.039,0.216,0.078,0.322,0.117
					c0.034,0.013,0.071,0.024,0.108,0.04c0.103,0.037,0.205,0.074,0.308,0.109c0.041,0.017,0.082,0.03,0.123,0.047
					c0.101,0.035,0.2,0.07,0.301,0.106c0.039,0.015,0.08,0.03,0.119,0.044c0.103,0.037,0.202,0.073,0.306,0.11
					c0.038,0.013,0.077,0.025,0.116,0.041c0.093,0.034,0.187,0.066,0.276,0.1c0.05,0.019,0.099,0.034,0.146,0.052
					c0.095,0.033,0.187,0.065,0.277,0.1c0.043,0.015,0.088,0.031,0.131,0.046c0.104,0.037,0.205,0.073,0.31,0.109
					c0.03,0.012,0.063,0.021,0.094,0.032c0.098,0.034,0.192,0.068,0.289,0.104c0.041,0.014,0.082,0.027,0.121,0.042
					c0.084,0.029,0.166,0.058,0.25,0.087c0.051,0.018,0.102,0.036,0.151,0.053c0.086,0.03,0.17,0.062,0.256,0.089
					c0.044,0.017,0.089,0.031,0.134,0.047c0.08,0.027,0.159,0.056,0.239,0.082c0.05,0.019,0.101,0.035,0.15,0.054
					c0.075,0.023,0.149,0.051,0.225,0.075c0.052,0.019,0.103,0.034,0.154,0.054c0.075,0.024,0.151,0.051,0.228,0.077
					c0.049,0.016,0.098,0.031,0.146,0.049c0.123,0.041,0.244,0.082,0.363,0.122c0.238,0.079,0.469,0.166,0.692,0.26
					c0.004,0.001,0.009,0.003,0.013,0.004c0.219,0.092,0.432,0.191,0.639,0.296c0.006,0.003,0.014,0.006,0.021,0.01
					c0.202,0.104,0.397,0.214,0.588,0.328c0.01,0.005,0.02,0.011,0.028,0.018c0.188,0.112,0.367,0.231,0.543,0.355
					c0.013,0.008,0.022,0.017,0.033,0.023c0.174,0.122,0.34,0.251,0.502,0.382c0.012,0.01,0.022,0.019,0.035,0.029
					c0.159,0.131,0.313,0.267,0.463,0.404c0.012,0.013,0.024,0.022,0.035,0.033c0.147,0.14,0.291,0.283,0.43,0.429
					c0.011,0.014,0.021,0.023,0.031,0.034c0.139,0.148,0.271,0.3,0.397,0.452c0.01,0.011,0.021,0.022,0.027,0.033
					c0.129,0.155,0.252,0.313,0.369,0.473c0.008,0.01,0.016,0.021,0.021,0.03c0.119,0.163,0.233,0.328,0.344,0.495
					c0.006,0.007,0.012,0.014,0.016,0.021c0.111,0.17,0.219,0.343,0.32,0.518c0.002,0.004,0.004,0.008,0.008,0.012
					c1.156,1.974,1.619,4.133,1.891,5.764v9.458H82.493v-9.452H82.494z"/>
			</g>
			<g>
				<defs>
					<path id="SVGID_43_" d="M119.967,37.591H53.745c0.002,0.089,0.005,0.177,0.005,0.271v71.335c0,0,2.738,27.855,32.887,36.313
						c29.143,8.177,33.1,17.746,33.33,18.373c0.008,0.021,0.012,0.033,0.012,0.033s3.199-9.95,33.345-18.406
						c30.146-8.457,32.886-36.313,32.886-36.313V37.9c0-0.014,0-0.027,0-0.039c0-0.094,0.002-0.182,0.004-0.271H119.967
						L119.967,37.591z"/>
				</defs>
				<clipPath id="SVGID_44_">
					<use xlink:href="#SVGID_43_"  overflow="visible"/>
				</clipPath>
				<path clip-path="url(#SVGID_44_)" fill="#FFFFFF" d="M41.671,108.646l0.161-5.137l1.02-15.3l0.372-5.574l0.521-7.803
					l0.172-2.601h23.41c0-5.201,5.201-7.804,5.201-7.804l2.288,1.716l1.874,1.405l0.832,0.624l3.9,2.926l26.826,18.854l0.693,0.485
					c0,0,0.578,0.23,1.565,0.62c0.003,0.001,0.007,0.002,0.01,0.005c0.054,0.021,0.108,0.043,0.165,0.064
					c0.023,0.009,0.049,0.02,0.073,0.029c0.053,0.02,0.106,0.041,0.161,0.063c0.014,0.005,0.027,0.012,0.041,0.018
					c0.06,0.022,0.119,0.048,0.182,0.07c0.021,0.01,0.043,0.019,0.064,0.025c0.06,0.024,0.119,0.047,0.182,0.072
					c0.011,0.004,0.021,0.008,0.031,0.012c0.099,0.039,0.199,0.078,0.301,0.118c0.057,0.021,0.111,0.044,0.169,0.065
					c0.055,0.021,0.11,0.043,0.166,0.065c0.034,0.013,0.069,0.027,0.104,0.041c0.061,0.024,0.123,0.048,0.186,0.072
					c0.033,0.013,0.064,0.024,0.098,0.039c0.057,0.021,0.114,0.044,0.172,0.065c0.045,0.02,0.09,0.035,0.135,0.054
					c0.057,0.021,0.115,0.045,0.172,0.066c0.035,0.014,0.072,0.028,0.106,0.042c0.067,0.026,0.136,0.052,0.204,0.079
					c0.047,0.02,0.096,0.038,0.145,0.056c0.045,0.02,0.091,0.036,0.138,0.056c0.084,0.031,0.17,0.064,0.257,0.1
					c0.02,0.008,0.038,0.015,0.057,0.022c0.09,0.033,0.18,0.068,0.27,0.104c0.027,0.011,0.056,0.022,0.084,0.033
					c0.068,0.025,0.138,0.053,0.207,0.08c0.068,0.025,0.136,0.053,0.204,0.079c1.188,0.462,2.501,0.967,3.87,1.486
					c0.004,0.001,0.006,0.003,0.009,0.003c0.138,0.055,0.276,0.106,0.416,0.158l0.001,0.001c0.133,0.05,0.265,0.102,0.398,0.151
					c0.02,0.007,0.041,0.015,0.062,0.022c0.125,0.048,0.25,0.096,0.375,0.143c0.012,0.004,0.022,0.009,0.034,0.013
					c0.136,0.051,0.273,0.104,0.41,0.154c0.002,0.001,0.004,0.002,0.006,0.002c0.136,0.052,0.273,0.103,0.41,0.155
					c0.012,0.005,0.024,0.01,0.037,0.014c0.127,0.048,0.254,0.095,0.381,0.144c0.021,0.009,0.043,0.017,0.063,0.023
					c0.123,0.046,0.246,0.092,0.369,0.138c0.021,0.009,0.043,0.018,0.064,0.024l0.359,0.134c0.025,0.01,0.053,0.021,0.078,0.03
					c0.119,0.044,0.239,0.089,0.358,0.133c0.024,0.009,0.05,0.018,0.074,0.028c0.114,0.042,0.229,0.084,0.342,0.126
					c0.035,0.013,0.067,0.024,0.103,0.038c0.11,0.041,0.223,0.082,0.332,0.122c0.032,0.012,0.065,0.022,0.098,0.034
					c0.111,0.041,0.221,0.082,0.332,0.122c0.033,0.015,0.068,0.026,0.104,0.039c0.108,0.04,0.217,0.079,0.325,0.119
					c0.035,0.013,0.067,0.025,0.104,0.038c0.106,0.039,0.215,0.078,0.32,0.117c0.036,0.013,0.073,0.024,0.108,0.04
					c0.104,0.037,0.205,0.074,0.308,0.109c0.041,0.017,0.082,0.03,0.123,0.047c0.102,0.035,0.2,0.07,0.301,0.106
					c0.041,0.015,0.08,0.03,0.121,0.044c0.102,0.037,0.203,0.073,0.305,0.11c0.039,0.013,0.076,0.025,0.115,0.041
					c0.094,0.034,0.188,0.066,0.278,0.1c0.05,0.019,0.097,0.034,0.146,0.052c0.094,0.033,0.186,0.065,0.275,0.1
					c0.044,0.015,0.088,0.031,0.131,0.046c0.104,0.037,0.207,0.073,0.311,0.109c0.029,0.012,0.063,0.021,0.094,0.032
					c0.098,0.034,0.193,0.068,0.289,0.104c0.041,0.014,0.082,0.027,0.121,0.042c0.084,0.029,0.166,0.058,0.25,0.087
					c0.051,0.018,0.102,0.036,0.15,0.053c0.086,0.03,0.172,0.062,0.258,0.089c0.043,0.017,0.088,0.031,0.133,0.047
					c0.08,0.027,0.16,0.056,0.24,0.082c0.051,0.019,0.1,0.035,0.149,0.054c0.076,0.023,0.15,0.051,0.226,0.075
					c0.051,0.019,0.102,0.034,0.152,0.054c0.077,0.024,0.153,0.051,0.229,0.077c0.049,0.016,0.098,0.031,0.146,0.049
					c0.122,0.041,0.244,0.082,0.363,0.122c0.237,0.079,0.469,0.166,0.692,0.26c0.004,0.001,0.009,0.003,0.013,0.004
					c0.219,0.092,0.432,0.191,0.638,0.296c0.008,0.003,0.016,0.006,0.021,0.01c0.203,0.104,0.398,0.214,0.589,0.328
					c0.01,0.005,0.021,0.011,0.028,0.018c0.188,0.112,0.369,0.231,0.543,0.355c0.013,0.008,0.022,0.017,0.033,0.023
					c0.174,0.122,0.34,0.251,0.502,0.382c0.012,0.01,0.023,0.019,0.035,0.029c0.16,0.131,0.314,0.267,0.463,0.404
					c0.012,0.013,0.023,0.022,0.035,0.033c0.148,0.14,0.291,0.283,0.43,0.429c0.011,0.014,0.021,0.023,0.031,0.034
					c0.139,0.148,0.271,0.3,0.398,0.452c0.008,0.011,0.02,0.022,0.027,0.033c0.127,0.155,0.25,0.313,0.369,0.473
					c0.008,0.01,0.016,0.021,0.021,0.03c0.121,0.163,0.233,0.328,0.345,0.495c0.005,0.007,0.01,0.014,0.016,0.021
					c0.11,0.17,0.219,0.343,0.319,0.518c0.002,0.004,0.005,0.008,0.007,0.012c1.157,1.974,1.619,4.133,1.893,5.764v9.458H41.669
					v-9.452H41.671z"/>
			</g>
			<g>
				<defs>
					<path id="SVGID_45_" d="M119.967,37.591H53.745c0.002,0.089,0.005,0.177,0.005,0.271v71.335c0,0,2.738,27.855,32.887,36.313
						c29.143,8.177,33.1,17.746,33.33,18.373c0.008,0.021,0.012,0.033,0.012,0.033s3.199-9.95,33.345-18.406
						c30.146-8.457,32.886-36.313,32.886-36.313V37.9c0-0.014,0-0.027,0-0.039c0-0.094,0.002-0.182,0.004-0.271H119.967
						L119.967,37.591z"/>
				</defs>
				<clipPath id="SVGID_46_">
					<use xlink:href="#SVGID_45_"  overflow="visible"/>
				</clipPath>
				<path clip-path="url(#SVGID_46_)" fill="#F8D016" d="M111.101,104.269L67.692,73.337l4.507-7.193l11.64,9.148l27.281,18.479
					l0.747,0.507c0,0,2.847,1.103,6.743,2.561l0.008,0.032L111.101,104.269z"/>
			</g>
			<g>
				<defs>
					<path id="SVGID_47_" d="M119.967,37.591H53.745c0.002,0.089,0.005,0.177,0.005,0.271v71.335c0,0,2.738,27.855,32.887,36.313
						c29.143,8.177,33.1,17.746,33.33,18.373c0.008,0.021,0.012,0.033,0.012,0.033s3.199-9.95,33.345-18.406
						c30.146-8.457,32.886-36.313,32.886-36.313V37.9c0-0.014,0-0.027,0-0.039c0-0.094,0.002-0.182,0.004-0.271H119.967
						L119.967,37.591z"/>
				</defs>
				<clipPath id="SVGID_48_">
					<use xlink:href="#SVGID_47_"  overflow="visible"/>
				</clipPath>
				<path clip-path="url(#SVGID_48_)" fill="#F8D016" d="M108.963,91.521c0.564,0.227,13.159,5.253,20.786,7.795
					c3.854,1.284,5.804,4.472,6.789,7.368H97.86L108.963,91.521z"/>
			</g>
			<g>
				<defs>
					<path id="SVGID_49_" d="M119.967,37.591H53.745c0.002,0.089,0.005,0.177,0.005,0.271v71.335c0,0,2.738,27.855,32.887,36.313
						c29.143,8.177,33.1,17.746,33.33,18.373c0.008,0.021,0.012,0.033,0.012,0.033s3.199-9.95,33.345-18.406
						c30.146-8.457,32.886-36.313,32.886-36.313V37.9c0-0.014,0-0.027,0-0.039c0-0.094,0.002-0.182,0.004-0.271H119.967
						L119.967,37.591z"/>
				</defs>
				<clipPath id="SVGID_50_">
					<use xlink:href="#SVGID_49_"  overflow="visible"/>
				</clipPath>
				<polygon clip-path="url(#SVGID_50_)" fill="#191818" points="83.997,74.268 77.051,80.413 80.552,71.824 				"/>
			</g>
			<g>
				<defs>
					<path id="SVGID_51_" d="M119.967,37.591H53.745c0.002,0.089,0.005,0.177,0.005,0.271v71.335c0,0,2.738,27.855,32.887,36.313
						c29.143,8.177,33.1,17.746,33.33,18.373c0.008,0.021,0.012,0.033,0.012,0.033s3.199-9.95,33.345-18.406
						c30.146-8.457,32.886-36.313,32.886-36.313V37.9c0-0.014,0-0.027,0-0.039c0-0.094,0.002-0.182,0.004-0.271H119.967
						L119.967,37.591z"/>
				</defs>
				<clipPath id="SVGID_52_">
					<use xlink:href="#SVGID_51_"  overflow="visible"/>
				</clipPath>
				<polygon clip-path="url(#SVGID_52_)" fill="#191818" points="90.533,78.925 83.588,85.069 87.088,76.481 				"/>
			</g>
			<g>
				<defs>
					<path id="SVGID_53_" d="M119.967,37.591H53.745c0.002,0.089,0.005,0.177,0.005,0.271v71.335c0,0,2.738,27.855,32.887,36.313
						c29.143,8.177,33.1,17.746,33.33,18.373c0.008,0.021,0.012,0.033,0.012,0.033s3.199-9.95,33.345-18.406
						c30.146-8.457,32.886-36.313,32.886-36.313V37.9c0-0.014,0-0.027,0-0.039c0-0.094,0.002-0.182,0.004-0.271H119.967
						L119.967,37.591z"/>
				</defs>
				<clipPath id="SVGID_54_">
					<use xlink:href="#SVGID_53_"  overflow="visible"/>
				</clipPath>
				
					<line clip-path="url(#SVGID_54_)" fill="none" stroke="#191818" stroke-width="2.148" stroke-miterlimit="10" x1="136.539" y1="107.491" x2="41.67" y2="107.491"/>
			</g>
			<g>
				<defs>
					<path id="SVGID_55_" d="M119.967,37.591H53.745c0.002,0.089,0.005,0.177,0.005,0.271v71.335c0,0,2.738,27.855,32.887,36.313
						c29.143,8.177,33.1,17.746,33.33,18.373c0.008,0.021,0.012,0.033,0.012,0.033s3.199-9.95,33.345-18.406
						c30.146-8.457,32.886-36.313,32.886-36.313V37.9c0-0.014,0-0.027,0-0.039c0-0.094,0.002-0.182,0.004-0.271H119.967
						L119.967,37.591z"/>
				</defs>
				<clipPath id="SVGID_56_">
					<use xlink:href="#SVGID_55_"  overflow="visible"/>
				</clipPath>
				<polygon clip-path="url(#SVGID_56_)" fill="#191818" points="97.07,83.581 90.123,89.727 93.625,81.139 				"/>
			</g>
			<g>
				<defs>
					<path id="SVGID_57_" d="M119.967,37.591H53.745c0.002,0.089,0.005,0.177,0.005,0.271v71.335c0,0,2.738,27.855,32.887,36.313
						c29.143,8.177,33.1,17.746,33.33,18.373c0.008,0.021,0.012,0.033,0.012,0.033s3.199-9.95,33.345-18.406
						c30.146-8.457,32.886-36.313,32.886-36.313V37.9c0-0.014,0-0.027,0-0.039c0-0.094,0.002-0.182,0.004-0.271H119.967
						L119.967,37.591z"/>
				</defs>
				<clipPath id="SVGID_58_">
					<use xlink:href="#SVGID_57_"  overflow="visible"/>
				</clipPath>
				<polygon clip-path="url(#SVGID_58_)" fill="#191818" points="103.606,88.238 96.66,94.383 100.161,85.795 				"/>
			</g>
			<g>
				<defs>
					<path id="SVGID_59_" d="M119.967,37.591H53.745c0.002,0.089,0.005,0.177,0.005,0.271v71.335c0,0,2.738,27.855,32.887,36.313
						c29.143,8.177,33.1,17.746,33.33,18.373c0.008,0.021,0.012,0.033,0.012,0.033s3.199-9.95,33.345-18.406
						c30.146-8.457,32.886-36.313,32.886-36.313V37.9c0-0.014,0-0.027,0-0.039c0-0.094,0.002-0.182,0.004-0.271H119.967
						L119.967,37.591z"/>
				</defs>
				<clipPath id="SVGID_60_">
					<use xlink:href="#SVGID_59_"  overflow="visible"/>
				</clipPath>
				<polygon clip-path="url(#SVGID_60_)" fill="#191818" points="110.143,92.896 103.196,99.04 106.697,90.452 				"/>
			</g>
			<g>
				<defs>
					<path id="SVGID_61_" d="M119.967,37.591H53.745c0.002,0.089,0.005,0.177,0.005,0.271v71.335c0,0,2.738,27.855,32.887,36.313
						c29.143,8.177,33.1,17.746,33.33,18.373c0.008,0.021,0.012,0.033,0.012,0.033s3.199-9.95,33.345-18.406
						c30.146-8.457,32.886-36.313,32.886-36.313V37.9c0-0.014,0-0.027,0-0.039c0-0.094,0.002-0.182,0.004-0.271H119.967
						L119.967,37.591z"/>
				</defs>
				<clipPath id="SVGID_62_">
					<use xlink:href="#SVGID_61_"  overflow="visible"/>
				</clipPath>
				<path clip-path="url(#SVGID_62_)" fill="none" stroke="#191818" stroke-width="4.296" stroke-miterlimit="10" d="
					M41.671,108.646l0.161-5.137l1.02-15.3l0.372-5.574l0.521-7.803l0.172-2.601h23.41c0-5.201,5.201-7.804,5.201-7.804l2.288,1.716
					l1.874,1.405l0.832,0.624l3.9,2.926l26.826,18.854l0.693,0.485c0,0,0.578,0.23,1.565,0.62c0.003,0.001,0.007,0.002,0.01,0.005
					c0.054,0.021,0.108,0.043,0.165,0.064c0.023,0.009,0.049,0.02,0.073,0.029c0.053,0.02,0.106,0.041,0.161,0.063
					c0.014,0.005,0.027,0.012,0.041,0.018c0.06,0.022,0.119,0.048,0.182,0.07c0.021,0.01,0.043,0.019,0.064,0.025
					c0.06,0.024,0.119,0.047,0.182,0.072c0.011,0.004,0.021,0.008,0.031,0.012c0.099,0.039,0.199,0.078,0.301,0.118
					c0.057,0.021,0.111,0.044,0.169,0.065c0.055,0.021,0.11,0.043,0.166,0.065c0.034,0.013,0.069,0.027,0.104,0.041
					c0.061,0.024,0.123,0.048,0.186,0.072c0.033,0.013,0.064,0.024,0.098,0.039c0.057,0.021,0.114,0.044,0.172,0.065
					c0.045,0.02,0.09,0.035,0.135,0.054c0.057,0.021,0.115,0.045,0.172,0.066c0.035,0.014,0.072,0.028,0.106,0.042
					c0.067,0.026,0.136,0.052,0.204,0.079c0.047,0.02,0.096,0.038,0.145,0.056c0.045,0.02,0.091,0.036,0.138,0.056
					c0.084,0.031,0.17,0.064,0.257,0.1c0.02,0.008,0.038,0.015,0.057,0.022c0.09,0.033,0.18,0.068,0.27,0.104
					c0.027,0.011,0.056,0.022,0.084,0.033c0.068,0.025,0.138,0.053,0.207,0.08c0.068,0.025,0.136,0.053,0.204,0.079
					c1.188,0.462,2.501,0.967,3.87,1.486c0.004,0.001,0.006,0.003,0.009,0.003c0.138,0.055,0.276,0.106,0.416,0.158l0.001,0.001
					c0.133,0.05,0.265,0.102,0.398,0.151c0.02,0.007,0.041,0.015,0.062,0.022c0.125,0.048,0.25,0.096,0.375,0.143
					c0.012,0.004,0.022,0.009,0.034,0.013c0.136,0.051,0.273,0.104,0.41,0.154c0.002,0.001,0.004,0.002,0.006,0.002
					c0.136,0.052,0.273,0.103,0.41,0.155c0.012,0.005,0.024,0.01,0.037,0.014c0.127,0.048,0.254,0.095,0.381,0.144
					c0.021,0.009,0.043,0.017,0.063,0.023c0.123,0.046,0.246,0.092,0.369,0.138c0.021,0.009,0.043,0.018,0.064,0.024l0.359,0.134
					c0.025,0.01,0.053,0.021,0.078,0.03c0.119,0.044,0.239,0.089,0.358,0.133c0.024,0.009,0.05,0.018,0.074,0.028
					c0.114,0.042,0.229,0.084,0.342,0.126c0.035,0.013,0.067,0.024,0.103,0.038c0.11,0.041,0.223,0.082,0.332,0.122
					c0.032,0.012,0.065,0.022,0.098,0.034c0.111,0.041,0.221,0.082,0.332,0.122c0.033,0.015,0.068,0.026,0.104,0.039
					c0.108,0.04,0.217,0.079,0.325,0.119c0.035,0.013,0.067,0.025,0.104,0.038c0.106,0.039,0.215,0.078,0.32,0.117
					c0.036,0.013,0.073,0.024,0.108,0.04c0.104,0.037,0.205,0.074,0.308,0.109c0.041,0.017,0.082,0.03,0.123,0.047
					c0.102,0.035,0.2,0.07,0.301,0.106c0.041,0.015,0.08,0.03,0.121,0.044c0.102,0.037,0.203,0.073,0.305,0.11
					c0.039,0.013,0.076,0.025,0.115,0.041c0.094,0.034,0.188,0.066,0.278,0.1c0.05,0.019,0.097,0.034,0.146,0.052
					c0.094,0.033,0.186,0.065,0.275,0.1c0.044,0.015,0.088,0.031,0.131,0.046c0.104,0.037,0.207,0.073,0.311,0.109
					c0.029,0.012,0.063,0.021,0.094,0.032c0.098,0.034,0.193,0.068,0.289,0.104c0.041,0.014,0.082,0.027,0.121,0.042
					c0.084,0.029,0.166,0.058,0.25,0.087c0.051,0.018,0.102,0.036,0.15,0.053c0.086,0.03,0.172,0.062,0.258,0.089
					c0.043,0.017,0.088,0.031,0.133,0.047c0.08,0.027,0.16,0.056,0.24,0.082c0.051,0.019,0.1,0.035,0.149,0.054
					c0.076,0.023,0.15,0.051,0.226,0.075c0.051,0.019,0.102,0.034,0.152,0.054c0.077,0.024,0.153,0.051,0.229,0.077
					c0.049,0.016,0.098,0.031,0.146,0.049c0.122,0.041,0.244,0.082,0.363,0.122c0.237,0.079,0.469,0.166,0.692,0.26
					c0.004,0.001,0.009,0.003,0.013,0.004c0.219,0.092,0.432,0.191,0.638,0.296c0.008,0.003,0.016,0.006,0.021,0.01
					c0.203,0.104,0.398,0.214,0.589,0.328c0.01,0.005,0.021,0.011,0.028,0.018c0.188,0.112,0.369,0.231,0.543,0.355
					c0.013,0.008,0.022,0.017,0.033,0.023c0.174,0.122,0.34,0.251,0.502,0.382c0.012,0.01,0.023,0.019,0.035,0.029
					c0.16,0.131,0.314,0.267,0.463,0.404c0.012,0.013,0.023,0.022,0.035,0.033c0.148,0.14,0.291,0.283,0.43,0.429
					c0.011,0.014,0.021,0.023,0.031,0.034c0.139,0.148,0.271,0.3,0.398,0.452c0.008,0.011,0.02,0.022,0.027,0.033
					c0.127,0.155,0.25,0.313,0.369,0.473c0.008,0.01,0.016,0.021,0.021,0.03c0.121,0.163,0.233,0.328,0.345,0.495
					c0.005,0.007,0.01,0.014,0.016,0.021c0.11,0.17,0.219,0.343,0.319,0.518c0.002,0.004,0.005,0.008,0.007,0.012
					c1.157,1.974,1.619,4.133,1.893,5.764v9.458H41.669v-9.452H41.671z"/>
			</g>
			<g>
				<defs>
					<path id="SVGID_63_" d="M119.967,37.591H53.745c0.002,0.089,0.005,0.177,0.005,0.271v71.335c0,0,2.738,27.855,32.887,36.313
						c29.143,8.177,33.1,17.746,33.33,18.373c0.008,0.021,0.012,0.033,0.012,0.033s3.199-9.95,33.345-18.406
						c30.146-8.457,32.886-36.313,32.886-36.313V37.9c0-0.014,0-0.027,0-0.039c0-0.094,0.002-0.182,0.004-0.271H119.967
						L119.967,37.591z"/>
				</defs>
				<clipPath id="SVGID_64_">
					<use xlink:href="#SVGID_63_"  overflow="visible"/>
				</clipPath>
				<polygon clip-path="url(#SVGID_64_)" fill="#F8D016" points="69.132,84.355 82.431,91.134 78.877,93.908 85.137,100.462 
					71.838,93.684 75.392,90.908 				"/>
			</g>
		</g>
		<path clip-path="url(#SVGID_6_)" fill="#191818" d="M181.473,12.61l3.394,5.225c-3.478,4.128-6.324,10.429-6.394,19.495v0.061
			v0.04l-0.002,0.024l-0.002,0.165v0.04v0.039v71.372c-0.436,2.98-4.158,22.673-27.06,29.098
			c-5.88,1.649-21.528,6.528-31.393,14.107c-5.685-4.469-15.251-9.595-31.343-14.107c-22.899-6.425-26.623-26.116-27.06-29.098
			V37.66l-0.002-0.271l-0.001-0.063c-0.066-9.064-2.915-15.362-6.391-19.49l3.392-5.225h28.032h23.781h9.199h33.814L181.473,12.61
			 M186.016,4.244h-32.576h-33.813h-9.199H86.646H54.071L44.037,19.698c0,0,9.1,2.806,9.211,17.688c0,0.091,0.002,0.182,0.002,0.272
			v71.939c0,0,2.764,28.096,33.166,36.624c29.394,8.245,33.383,17.896,33.615,18.528c0.008,0.022,0.012,0.033,0.012,0.033
			s3.227-10.034,33.627-18.563c30.403-8.528,33.166-36.624,33.166-36.624v-71.9c0.002-0.014,0.002-0.025,0.002-0.039
			c0-0.092,0.002-0.183,0.002-0.272c0.111-14.884,9.211-17.688,9.211-17.688L186.016,4.244z"/>
	</g>
</g>
</svg>
