<?xml version="1.0" encoding="utf-8"?>
<!-- Generator: Adobe Illustrator 16.0.0, SVG Export Plug-In . SVG Version: 6.00 Build 0)  -->
<!DOCTYPE svg PUBLIC "-//W3C//DTD SVG 1.1//EN" "http://www.w3.org/Graphics/SVG/1.1/DTD/svg11.dtd">
<svg version="1.1" id="Layer_1" xmlns="http://www.w3.org/2000/svg" xmlns:xlink="http://www.w3.org/1999/xlink" x="0px" y="0px"
	 width="612px" height="792px" viewBox="0 0 612 792" enable-background="new 0 0 612 792" xml:space="preserve">
<path fill="#010101" d="M398.964,419.089c-1.817-3.577-5.512-6.852-6.379-10.245l-0.531-0.223c-1.338,3.336-1.193,7.326-0.169,10.95
	c1.108,4.704,3.424,8.369,4.508,12.994c0.193,0.891,0.354,1.775,0.459,2.742c6.955-5.049,13.368-10.808,15.182-19.897l-12.194,6.13
	C399.676,420.692,399.347,419.854,398.964,419.089"/>
<path fill="#010101" d="M395.828,377.306c0.578,1.658,0.758,3.546,1.549,5.248c0.51,0.668,0.959,1.357,1.431,2.058
	c1.313,1.813,2.676,3.43,4.42,3.884c0.606-2.796,1.065-5.733,0.534-8.912c-0.605-2.013-1.508-3.808-2.69-5.429
	c-1.848-2.56-4.358-4.638-7.396-6.199c-0.1-0.058-0.167-0.071-0.224-0.119l-0.403,0.093c0.156,0.24,0.303,0.517,0.46,0.796
	C394.886,371.35,395.298,374.127,395.828,377.306"/>
<path fill="#010101" d="M400.463,394.473c-2.653-3.011-7.05-5.258-8.736-8.326l-0.571-0.084c-0.461,3.564,0.675,7.393,2.573,10.646
	c2.248,4.278,5.406,7.249,7.611,11.456c0.409,0.813,0.784,1.631,1.127,2.54c5.476-6.626,10.246-13.805,9.731-23.058l-10.276,8.98
	C401.553,395.848,401.024,395.117,400.463,394.473"/>
<path fill="#010101" d="M213.223,419.089c1.817-3.577,5.512-6.852,6.379-10.245l0.532-0.223c1.337,3.336,1.193,7.326,0.168,10.95
	c-1.107,4.704-3.423,8.369-4.507,12.994c-0.194,0.891-0.354,1.775-0.459,2.742c-6.956-5.049-13.369-10.808-15.182-19.897
	l12.194,6.13C212.511,420.692,212.84,419.854,213.223,419.089"/>
<path fill="#010101" d="M216.358,377.306c-0.578,1.658-0.758,3.546-1.548,5.248c-0.51,0.668-0.96,1.357-1.431,2.058
	c-1.314,1.813-2.676,3.43-4.42,3.884c-0.606-2.796-1.065-5.733-0.534-8.912c0.605-2.013,1.507-3.808,2.689-5.429
	c1.849-2.56,4.358-4.638,7.396-6.199c0.099-0.058,0.167-0.071,0.223-0.119l0.404,0.093c-0.157,0.24-0.303,0.517-0.46,0.796
	C217.302,371.35,216.89,374.127,216.358,377.306"/>
<path fill="#010101" d="M211.725,394.473c2.653-3.011,7.049-5.258,8.736-8.326l0.571-0.084c0.461,3.564-0.675,7.393-2.573,10.646
	c-2.248,4.278-5.406,7.249-7.611,11.456c-0.409,0.813-0.785,1.631-1.128,2.54c-5.475-6.626-10.246-13.805-9.731-23.058l10.277,8.98
	C210.635,395.848,211.163,395.117,211.725,394.473"/>
<path fill="#010101" d="M379.361,460.246c-0.916-0.017-1.783-0.026-2.638,0.015c3.211-4.571,2.291-10.164,4.058-15.119l-0.017-0.219
	c-5.329,2.008-8.124,6.7-10.731,11.657c-1.861,3.592-3.683,7.273-6.339,9.993c1.109,0.08,2.153,0.229,3.234,0.389
	c1.122,0.163,2.275,0.386,3.435,0.691c2.307,0.136,4.581,0.238,6.732,0.167c4.035-0.171,7.795-0.854,11.037-2.605
	c1.502-0.798,2.901-1.85,4.131-3.161c-0.949-0.154-1.992-0.342-3.028-0.524C385.971,460.975,382.537,460.404,379.361,460.246"/>
<path fill="#010101" d="M392.361,444.673c-1.494-5.036-4.273-10.122-3.865-15.641l-0.142-0.22l-0.374,0.165
	c-0.045,0.036-0.097,0.108-0.102,0.145c-0.291,0.501-0.601,0.786-1.136,1.3c-3.805,6.707-3.229,14.78-1.274,21.92
	c0.319,1.176,0.652,2.295,1.062,3.425c3.423-2.676,7.645-3.358,11.443-5.306c0.341-0.207,0.676-0.37,1.028-0.582
	c3.66-2.641,5.887-7.007,6.843-11.183c-2.373,0.757-4.701,1.368-6.877,2.186C396.623,441.728,394.359,442.87,392.361,444.673"/>
<path fill="#010101" d="M232.889,460.246c0.916-0.017,1.783-0.026,2.638,0.015c-3.211-4.571-2.29-10.164-4.058-15.119l0.017-0.219
	c5.329,2.008,8.124,6.7,10.731,11.657c1.861,3.592,3.683,7.273,6.339,9.993c-1.109,0.08-2.153,0.229-3.234,0.389
	c-1.122,0.163-2.274,0.386-3.435,0.691c-2.306,0.136-4.581,0.238-6.732,0.167c-4.035-0.171-7.795-0.854-11.037-2.605
	c-1.502-0.798-2.901-1.85-4.131-3.161c0.949-0.154,1.992-0.342,3.028-0.524C226.279,460.975,229.713,460.404,232.889,460.246"/>
<path fill="#010101" d="M219.889,444.673c1.494-5.036,4.274-10.122,3.865-15.641l0.142-0.22l0.374,0.165
	c0.045,0.036,0.097,0.108,0.101,0.145c0.292,0.501,0.601,0.786,1.136,1.3c3.805,6.707,3.229,14.78,1.275,21.92
	c-0.32,1.176-0.653,2.295-1.063,3.425c-3.423-2.676-7.645-3.358-11.443-5.306c-0.341-0.207-0.676-0.37-1.029-0.582
	c-3.66-2.641-5.886-7.007-6.841-11.183c2.373,0.757,4.7,1.368,6.876,2.186C215.627,441.728,217.891,442.87,219.889,444.673"/>
<rect x="261.241" y="426.861" fill="#010101" width="85" height="43.667"/>
<polygon fill="#010101" points="334.542,456.025 360.379,447.046 347.307,437.266 295.798,461.528 "/>
<polygon fill="#010101" points="307.799,462.528 251.104,447.046 264.177,437.266 312.299,459.028 "/>
<polygon fill="#FFFFFF" points="358.056,478.863 305.762,493.046 253.469,477.358 253.469,449.837 305.762,459.525 358.056,449.837 
	"/>
<polygon fill="none" stroke="#010101" stroke-width="4.515" stroke-miterlimit="10" points="358.056,478.863 305.762,491.646 
	253.469,478.863 253.469,449.837 305.762,458.62 358.056,449.837 "/>
<path fill="#FECF0A" d="M306.081,332.388h-66.784c0.001,0.091,0.003,0.181,0.003,0.272v71.94c0,0,2.763,28.095,33.166,36.624
	c29.392,8.245,33.382,17.896,33.615,18.529c0.008,0.021,0.012,0.032,0.012,0.032s3.224-10.034,33.627-18.562
	c30.402-8.529,33.166-36.624,33.166-36.624v-71.901c0-0.013,0.001-0.025,0.001-0.039c0-0.092,0.003-0.182,0.003-0.272H306.081z"/>
<g opacity="0.5">
	<g>
		<defs>
			<rect id="SVGID_1_" x="306.08" y="332.39" width="66.81" height="127.4"/>
		</defs>
		<clipPath id="SVGID_2_">
			<use xlink:href="#SVGID_1_"  overflow="visible"/>
		</clipPath>
		<path clip-path="url(#SVGID_2_)" fill="#CDA72C" d="M339.72,441.224c30.402-8.528,33.166-36.624,33.166-36.624v-71.9
			c0-0.014,0.001-0.026,0.001-0.039c0-0.092,0.003-0.182,0.003-0.273h-66.809v127.366c0.008,0.022,0.012,0.034,0.012,0.034
			S309.316,449.753,339.72,441.224"/>
	</g>
</g>
<path fill="#191818" d="M367.523,307.61l3.393,5.225c-2.295,2.726-4.316,6.396-5.444,11.187H246.716
	c-1.128-4.79-3.149-8.461-5.444-11.187l3.392-5.225h28.033h23.781h9.198h33.814H367.523 M372.066,299.244H339.49h-33.814h-9.198
	h-23.781h-32.576l-10.034,15.454c0,0,9.1,2.806,9.21,17.689H372.89c0.11-14.884,9.211-17.689,9.211-17.689L372.066,299.244z"/>
<g opacity="0.4">
	<g>
		<defs>
			<rect id="SVGID_3_" x="230.09" y="299.24" width="152.01" height="160.55"/>
		</defs>
		<clipPath id="SVGID_4_">
			<use xlink:href="#SVGID_3_"  overflow="visible"/>
		</clipPath>
		<path clip-path="url(#SVGID_4_)" fill="#FFFFFF" d="M364.097,313.041c-2.642,4.356-4.931,10.604-5.003,19.229v0.004l-0.003,0.261
			l-0.001,0.082v0.082v70.902c-0.26,1.438-1.204,5.667-3.914,10.226c-4.133,6.953-10.586,11.701-19.183,14.113
			c-13.943,3.912-23.452,8.354-29.929,12.659c-6.466-4.301-15.956-8.755-29.872-12.659c-8.596-2.412-15.05-7.16-19.183-14.113
			c-2.709-4.559-3.653-8.787-3.913-10.226V332.66l-0.003-0.375c-0.064-8.625-2.356-14.882-5.003-19.244h24.605h23.781h9.198h33.814
			H364.097 M372.066,299.244H339.49h-33.814h-9.198h-23.781h-32.576l-10.034,15.454c0,0,9.1,2.806,9.21,17.689
			c0.001,0.091,0.003,0.181,0.003,0.272v71.94c0,0,2.764,28.095,33.166,36.624c29.393,8.245,33.383,17.896,33.615,18.528
			c0.008,0.022,0.012,0.033,0.012,0.033s3.225-10.034,33.627-18.562c30.403-8.529,33.167-36.624,33.167-36.624v-71.901
			c0-0.013,0.001-0.025,0.001-0.039c0-0.092,0.002-0.182,0.002-0.272c0.11-14.884,9.211-17.689,9.211-17.689L372.066,299.244z"/>
	</g>
</g>
<path fill="#1A1A19" d="M382.101,314.698l-10.034-15.454h-32.575h-33.816h-9.198h-23.781h-32.575l-10.034,15.454
	c0,0,9.1,2.807,9.21,17.688v7.526h133.594v-7.526C373.001,317.505,382.101,314.698,382.101,314.698"/>
<path fill="#FFFFFF" d="M251.622,325.496l2.409-2.529c1.023,1.325,2.619,2.198,4.304,2.198c2.108,0,3.071-1.114,3.071-2.68
	c0-1.866-1.294-2.528-3.251-2.528c-0.662,0-1.566,0-1.866,0.061v-3.644c0.3,0.03,1.294,0.03,1.775,0.03
	c1.837,0,3.071-0.753,3.071-2.318c0-1.686-1.204-2.498-2.95-2.498c-1.565,0-2.98,0.722-4.004,2.017l-2.288-2.349
	c1.445-2.017,3.733-3.251,6.623-3.251c3.974,0,6.593,1.896,6.593,5.449c0,2.288-1.716,4.154-3.793,4.575
	c2.047,0.302,4.095,2.107,4.095,4.818c0,3.491-2.68,5.9-6.895,5.9C255.324,328.748,252.886,327.332,251.622,325.496"/>
<polygon fill="#FFFFFF" points="286.901,328.387 284.313,315.02 281.754,328.387 277.539,328.387 272.963,308.306 277.297,308.306 
	279.887,322.275 282.747,308.306 285.908,308.306 288.798,322.275 291.357,308.306 295.692,308.306 291.116,328.387 "/>
<polygon fill="#FFFFFF" points="297.646,328.387 297.646,308.306 309.146,308.306 309.146,311.858 301.681,311.858 301.681,316.404 
	308.936,316.404 308.936,319.957 301.681,319.957 301.681,324.834 309.146,324.834 309.146,328.387 "/>
<polygon fill="#FFFFFF" points="312.125,328.387 312.125,308.306 323.625,308.306 323.625,311.858 316.159,311.858 316.159,316.404 
	323.414,316.404 323.414,319.957 316.159,319.957 316.159,324.834 323.625,324.834 323.625,328.387 "/>
<polygon fill="#FFFFFF" points="336.688,328.387 332.053,320.529 330.638,322.757 330.638,328.387 326.604,328.387 326.604,308.306 
	330.638,308.306 330.638,317.428 336.297,308.306 340.994,308.306 334.581,317.759 341.445,328.387 "/>
<path fill="#FFFFFF" d="M341.955,326.158l1.986-3.101c1.114,1.234,2.86,2.138,4.848,2.138c1.775,0,2.739-0.994,2.739-2.229
	c0-3.521-8.972-2.317-8.972-9.121c0-3.162,2.469-5.871,6.623-5.871c2.439,0,4.547,0.783,6.082,2.228l-1.927,3.011
	c-1.204-1.144-2.74-1.686-4.306-1.686c-1.444,0-2.348,0.813-2.348,2.047c0,3.131,8.941,2.288,8.941,9.063
	c0,3.521-2.408,6.111-6.805,6.111C345.778,328.748,343.551,327.754,341.955,326.158"/>
<polygon fill="#1A1A19" points="290.016,480.976 290.016,468.629 287.491,471.253 285.566,469.229 290.466,464.305 293.39,464.305 
	293.39,480.976 "/>
<path fill="#1A1A19" d="M295.666,472.652c0-4.299,1.775-8.598,5.898-8.598c4.149,0,5.898,4.299,5.898,8.598
	c0,4.273-1.724,8.623-5.898,8.623C297.441,481.275,295.666,476.926,295.666,472.652 M304.064,472.652c0-3.225-0.55-5.623-2.5-5.623
	c-1.924,0-2.474,2.398-2.474,5.623c0,3.199,0.55,5.648,2.474,5.648C303.515,478.301,304.064,475.852,304.064,472.652"/>
<polygon fill="#1A1A19" points="318.139,480.976 314.289,474.453 313.115,476.302 313.115,480.976 309.766,480.976 309.766,464.305 
	313.115,464.305 313.115,471.877 317.814,464.305 321.713,464.305 316.39,472.152 322.088,480.976 "/>
<g>
	<defs>
		<path id="SVGID_5_" d="M306.019,332.591h-66.222c0,0.089,0.002,0.177,0.002,0.27v71.335c0,0,2.74,27.856,32.887,36.313
			c29.145,8.177,33.1,17.746,33.333,18.373c0.006,0.021,0.01,0.033,0.01,0.033s3.197-9.95,33.344-18.406
			c30.146-8.457,32.886-36.313,32.886-36.313v-71.296c0-0.013,0.002-0.027,0.002-0.039c0-0.093,0.002-0.181,0.002-0.27H306.019z"/>
	</defs>
	<clipPath id="SVGID_6_">
		<use xlink:href="#SVGID_5_"  overflow="visible"/>
	</clipPath>
	<g opacity="0.5" clip-path="url(#SVGID_6_)">
		<g>
			<defs>
				<rect id="SVGID_7_" x="238.48" y="399.87" width="130.76" height="27.61"/>
			</defs>
			<clipPath id="SVGID_8_">
				<use xlink:href="#SVGID_7_"  overflow="visible"/>
			</clipPath>
			<path clip-path="url(#SVGID_8_)" fill="#CDA72C" d="M355.236,399.87c0,0-9.746,8.382-7.763,7.194c0,0-1.288,7.67-7.591,7.401
				c-6.302-0.267-8.125,9.171-7.881,11.126c0,0,3.949-4.619,10.466-2.967c6.516,1.654,10.057-2.413,10.935-3.702
				c0,0-2.33,7.688-6.849,8.269c0,0,11.194,2.166,15.589-5.346c4.395-7.514,6.613-16.36,7.084-17.155
				C369.697,403.896,355.236,399.87,355.236,399.87"/>
			<path clip-path="url(#SVGID_8_)" fill="#CDA72C" d="M342.413,421.278c0,0-7.976,1.536-6.608,1.02c0,0-4.303-2.372-6.644,0.854
				c-2.341,3.226-7.73,0.425-8.603-0.463c0,0,3.838-0.144,5.576-4.02c1.738-3.875,5.143-4.033,6.124-3.961
				c0,0-4.72-1.863-6.78,0.146c0,0,3.319-6.393,8.765-5.62c5.444,0.771,10.694,3.145,11.273,3.224
				C346.095,412.537,342.413,421.278,342.413,421.278"/>
			<path clip-path="url(#SVGID_8_)" fill="#CDA72C" d="M322.9,399.87c0,0-9.745,8.382-7.762,7.194c0,0-1.288,7.67-7.591,7.401
				c-6.303-0.267-8.125,9.171-7.882,11.126c0,0,3.95-4.619,10.467-2.967c6.516,1.654,10.057-2.413,10.935-3.702
				c0,0-2.33,7.688-6.849,8.269c0,0,11.193,2.166,15.589-5.346c4.395-7.514,6.612-16.36,7.084-17.155
				C337.362,403.896,322.9,399.87,322.9,399.87"/>
			<path clip-path="url(#SVGID_8_)" fill="#CDA72C" d="M310.078,421.278c0,0-7.976,1.536-6.609,1.02c0,0-4.302-2.372-6.643,0.854
				c-2.341,3.226-7.73,0.425-8.602-0.463c0,0,3.837-0.144,5.576-4.02c1.738-3.875,5.142-4.033,6.124-3.961
				c0,0-4.72-1.863-6.781,0.146c0,0,3.32-6.393,8.764-5.62c5.445,0.771,10.696,3.145,11.275,3.224
				C313.76,412.537,310.078,421.278,310.078,421.278"/>
			<path clip-path="url(#SVGID_8_)" fill="#CDA72C" d="M297.53,399.87c0,0-9.745,8.382-7.762,7.194c0,0-1.288,7.67-7.591,7.401
				c-6.302-0.267-8.125,9.171-7.881,11.126c0,0,3.949-4.619,10.466-2.967c6.516,1.654,10.057-2.413,10.935-3.702
				c0,0-2.33,7.688-6.849,8.269c0,0,11.194,2.166,15.589-5.346c4.396-7.514,6.613-16.36,7.084-17.155
				C311.992,403.896,297.53,399.87,297.53,399.87"/>
			<path clip-path="url(#SVGID_8_)" fill="#CDA72C" d="M284.707,421.278c0,0-7.975,1.536-6.608,1.02c0,0-4.303-2.372-6.644,0.854
				c-2.341,3.226-7.73,0.425-8.602-0.463c0,0,3.837-0.144,5.576-4.02c1.738-3.875,5.142-4.033,6.124-3.961
				c0,0-4.72-1.863-6.781,0.146c0,0,3.32-6.393,8.765-5.62c5.444,0.771,10.695,3.145,11.273,3.224
				C288.389,412.537,284.707,421.278,284.707,421.278"/>
			<path clip-path="url(#SVGID_8_)" fill="#CDA72C" d="M273.154,399.87c0,0-9.745,8.382-7.763,7.194c0,0-1.288,7.67-7.591,7.401
				c-6.303-0.267-8.125,9.171-7.882,11.126c0,0,3.95-4.619,10.467-2.967c6.516,1.654,10.057-2.413,10.936-3.702
				c0,0-2.33,7.688-6.85,8.269c0,0,11.194,2.166,15.589-5.346c4.395-7.514,6.613-16.36,7.084-17.155
				C287.616,403.896,273.154,399.87,273.154,399.87"/>
			<path clip-path="url(#SVGID_8_)" fill="#CDA72C" d="M260.331,421.278c0,0-7.975,1.536-6.609,1.02c0,0-4.302-2.372-6.643,0.854
				c-2.341,3.226-7.73,0.425-8.603-0.463c0,0,3.838-0.144,5.577-4.02c1.738-3.875,5.142-4.033,6.124-3.961
				c0,0-4.72-1.863-6.781,0.146c0,0,3.319-6.393,8.764-5.62c5.445,0.771,10.696,3.145,11.275,3.224
				C264.013,412.537,260.331,421.278,260.331,421.278"/>
		</g>
	</g>
	<path clip-path="url(#SVGID_6_)" fill="#FFFFFF" d="M268.545,403.646l0.161-5.136l1.02-15.3l0.372-5.574l0.52-7.803l0.173-2.601
		h23.409c0-5.201,5.202-7.803,5.202-7.803l2.288,1.716l1.873,1.405l0.833,0.624l3.901,2.926l26.824,18.854l0.694,0.485
		c0,0,0.578,0.231,1.565,0.621c0.003,0.001,0.007,0.002,0.01,0.004c0.054,0.021,0.109,0.043,0.165,0.065
		c0.024,0.009,0.049,0.019,0.073,0.029c0.053,0.02,0.105,0.041,0.16,0.063c0.015,0.005,0.027,0.011,0.041,0.017
		c0.061,0.023,0.12,0.048,0.183,0.071c0.021,0.009,0.043,0.018,0.063,0.025c0.061,0.024,0.12,0.047,0.183,0.072
		c0.01,0.004,0.021,0.008,0.032,0.012c0.098,0.039,0.197,0.078,0.3,0.118c0.056,0.021,0.112,0.044,0.169,0.066
		c0.055,0.021,0.111,0.043,0.166,0.065c0.035,0.013,0.068,0.027,0.104,0.041c0.062,0.024,0.123,0.048,0.186,0.072
		c0.032,0.013,0.064,0.025,0.098,0.039c0.056,0.021,0.114,0.044,0.172,0.066c0.045,0.019,0.089,0.035,0.136,0.054
		c0.057,0.021,0.113,0.044,0.172,0.066c0.035,0.014,0.07,0.028,0.105,0.042c0.067,0.026,0.135,0.052,0.203,0.079
		c0.048,0.02,0.097,0.038,0.145,0.056c0.047,0.019,0.092,0.036,0.139,0.055c0.084,0.032,0.17,0.065,0.256,0.1
		c0.02,0.008,0.039,0.015,0.058,0.022c0.089,0.034,0.179,0.069,0.27,0.104c0.028,0.011,0.056,0.022,0.084,0.033
		c0.067,0.026,0.138,0.053,0.207,0.08c0.067,0.026,0.136,0.053,0.204,0.079c1.188,0.462,2.501,0.967,3.871,1.487
		c0.003,0.001,0.005,0.003,0.008,0.003c0.138,0.054,0.277,0.106,0.416,0.158l0.002,0.001c0.131,0.05,0.264,0.101,0.396,0.151
		l0.063,0.023c0.125,0.047,0.25,0.095,0.375,0.142c0.012,0.004,0.022,0.009,0.033,0.013c0.137,0.051,0.273,0.104,0.41,0.154
		c0.002,0.001,0.004,0.002,0.006,0.002c0.137,0.052,0.273,0.103,0.41,0.155c0.014,0.005,0.025,0.01,0.038,0.014
		c0.126,0.048,0.253,0.095,0.38,0.144c0.021,0.008,0.043,0.016,0.064,0.023c0.123,0.046,0.246,0.092,0.369,0.138
		c0.021,0.009,0.043,0.017,0.064,0.024l0.36,0.134c0.026,0.01,0.052,0.021,0.079,0.03c0.119,0.044,0.239,0.089,0.357,0.133
		c0.025,0.009,0.051,0.018,0.075,0.028c0.114,0.042,0.229,0.084,0.343,0.126c0.033,0.013,0.067,0.025,0.102,0.038
		c0.11,0.041,0.221,0.082,0.331,0.122c0.033,0.012,0.065,0.023,0.098,0.035c0.111,0.041,0.222,0.082,0.331,0.122l0.105,0.039
		c0.109,0.04,0.217,0.079,0.324,0.119c0.035,0.013,0.069,0.025,0.104,0.038c0.108,0.039,0.215,0.078,0.322,0.117
		c0.036,0.013,0.072,0.025,0.109,0.04c0.103,0.037,0.204,0.074,0.307,0.11c0.041,0.016,0.082,0.03,0.123,0.046
		c0.101,0.036,0.201,0.071,0.301,0.107c0.04,0.015,0.08,0.03,0.121,0.044c0.101,0.037,0.203,0.073,0.304,0.11
		c0.039,0.013,0.077,0.026,0.116,0.041c0.093,0.034,0.186,0.067,0.277,0.1c0.05,0.018,0.098,0.034,0.146,0.052
		c0.093,0.033,0.185,0.065,0.276,0.099c0.044,0.015,0.088,0.031,0.131,0.046c0.104,0.037,0.207,0.073,0.309,0.11
		c0.031,0.011,0.063,0.021,0.094,0.032c0.098,0.034,0.193,0.068,0.291,0.103c0.039,0.014,0.08,0.028,0.12,0.042
		c0.085,0.03,0.166,0.058,0.249,0.087c0.051,0.018,0.103,0.036,0.152,0.053c0.086,0.03,0.171,0.061,0.256,0.089
		c0.044,0.016,0.089,0.031,0.133,0.047c0.081,0.027,0.16,0.055,0.241,0.082c0.05,0.018,0.101,0.035,0.15,0.053
		c0.075,0.024,0.149,0.051,0.225,0.076c0.051,0.018,0.103,0.034,0.153,0.053c0.077,0.025,0.152,0.051,0.228,0.077
		c0.05,0.016,0.099,0.032,0.146,0.049c0.123,0.041,0.243,0.082,0.364,0.122c0.237,0.079,0.469,0.166,0.691,0.26
		c0.004,0.001,0.008,0.003,0.012,0.004c0.22,0.092,0.433,0.191,0.639,0.296c0.007,0.003,0.015,0.006,0.021,0.01
		c0.203,0.104,0.399,0.214,0.589,0.328c0.009,0.005,0.02,0.011,0.028,0.017c0.188,0.113,0.368,0.232,0.544,0.356
		c0.011,0.008,0.022,0.016,0.033,0.023c0.173,0.122,0.34,0.251,0.501,0.382c0.012,0.01,0.023,0.019,0.036,0.029
		c0.159,0.131,0.313,0.267,0.463,0.405c0.012,0.012,0.024,0.022,0.035,0.033c0.147,0.14,0.291,0.283,0.429,0.429
		c0.011,0.013,0.021,0.023,0.032,0.034c0.138,0.148,0.27,0.3,0.397,0.452c0.01,0.011,0.02,0.022,0.028,0.033
		c0.128,0.155,0.251,0.313,0.369,0.473c0.007,0.01,0.015,0.021,0.022,0.03c0.119,0.163,0.233,0.328,0.344,0.495
		c0.005,0.007,0.01,0.014,0.015,0.021c0.111,0.17,0.218,0.343,0.32,0.517c0.002,0.004,0.005,0.008,0.007,0.012
		c1.157,1.974,1.619,4.133,1.891,5.764v9.458h-95.525V403.646z"/>
	<path clip-path="url(#SVGID_6_)" fill="#F8D012" d="M337.975,399.269l-43.41-30.932l4.507-7.193l11.639,9.148l27.282,18.479
		l0.747,0.507c0,0,2.847,1.103,6.744,2.561l0.007,0.032L337.975,399.269z"/>
	<path clip-path="url(#SVGID_6_)" fill="#F8D012" d="M335.837,386.521c0.563,0.227,13.159,5.253,20.786,7.795
		c3.854,1.285,5.803,4.472,6.789,7.369h-38.678L335.837,386.521z"/>
	<polygon clip-path="url(#SVGID_6_)" fill="#191818" points="310.871,369.268 303.925,375.413 307.426,366.824 	"/>
	<polygon clip-path="url(#SVGID_6_)" fill="#191818" points="317.407,373.925 310.461,380.069 313.962,371.481 	"/>
	
		<line clip-path="url(#SVGID_6_)" fill="none" stroke="#191818" stroke-width="2.148" stroke-miterlimit="10" x1="363.412" y1="402.491" x2="268.544" y2="402.491"/>
	<polygon clip-path="url(#SVGID_6_)" fill="#191818" points="323.943,378.581 316.998,384.727 320.498,376.139 	"/>
	<polygon clip-path="url(#SVGID_6_)" fill="#191818" points="330.48,383.238 323.534,389.383 327.035,380.795 	"/>
	<polygon clip-path="url(#SVGID_6_)" fill="#191818" points="337.017,387.896 330.07,394.04 333.571,385.452 	"/>
	<path clip-path="url(#SVGID_6_)" fill="none" stroke="#191818" stroke-width="4.296" stroke-miterlimit="10" d="M268.545,403.646
		l0.161-5.136l1.02-15.3l0.372-5.574l0.52-7.803l0.173-2.601h23.409c0-5.201,5.202-7.803,5.202-7.803l2.288,1.716l1.873,1.405
		l0.833,0.624l3.901,2.926l26.824,18.854l0.694,0.485c0,0,0.578,0.231,1.565,0.621c0.003,0.001,0.007,0.002,0.01,0.004
		c0.054,0.021,0.109,0.043,0.165,0.065c0.024,0.009,0.049,0.019,0.073,0.029c0.053,0.02,0.105,0.041,0.16,0.063
		c0.015,0.005,0.027,0.011,0.041,0.017c0.061,0.023,0.12,0.048,0.183,0.071c0.021,0.009,0.043,0.018,0.063,0.025
		c0.061,0.024,0.12,0.047,0.183,0.072c0.01,0.004,0.021,0.008,0.032,0.012c0.098,0.039,0.197,0.078,0.3,0.118
		c0.056,0.021,0.112,0.044,0.169,0.066c0.055,0.021,0.111,0.043,0.166,0.065c0.035,0.013,0.068,0.027,0.104,0.041
		c0.062,0.024,0.123,0.048,0.186,0.072c0.032,0.013,0.064,0.025,0.098,0.039c0.056,0.021,0.114,0.044,0.172,0.066
		c0.045,0.019,0.089,0.035,0.136,0.054c0.057,0.021,0.113,0.044,0.172,0.066c0.035,0.014,0.07,0.028,0.105,0.042
		c0.067,0.026,0.135,0.052,0.203,0.079c0.048,0.02,0.097,0.038,0.145,0.056c0.047,0.019,0.092,0.036,0.139,0.055
		c0.084,0.032,0.17,0.065,0.256,0.1c0.02,0.008,0.039,0.015,0.058,0.022c0.089,0.034,0.179,0.069,0.27,0.104
		c0.028,0.011,0.056,0.022,0.084,0.033c0.067,0.026,0.138,0.053,0.207,0.08c0.067,0.026,0.136,0.053,0.204,0.079
		c1.188,0.462,2.501,0.967,3.871,1.487c0.003,0.001,0.005,0.003,0.008,0.003c0.138,0.054,0.277,0.106,0.416,0.158l0.002,0.001
		c0.131,0.05,0.264,0.101,0.396,0.151l0.063,0.023c0.125,0.047,0.25,0.095,0.375,0.142c0.012,0.004,0.022,0.009,0.033,0.013
		c0.137,0.051,0.273,0.104,0.41,0.154c0.002,0.001,0.004,0.002,0.006,0.002c0.137,0.052,0.273,0.103,0.41,0.155
		c0.014,0.005,0.025,0.01,0.038,0.014c0.126,0.048,0.253,0.095,0.38,0.144c0.021,0.008,0.043,0.016,0.064,0.023
		c0.123,0.046,0.246,0.092,0.369,0.138c0.021,0.009,0.043,0.017,0.064,0.024l0.36,0.134c0.026,0.01,0.052,0.021,0.079,0.03
		c0.119,0.044,0.239,0.089,0.357,0.133c0.025,0.009,0.051,0.018,0.075,0.028c0.114,0.042,0.229,0.084,0.343,0.126
		c0.033,0.013,0.067,0.025,0.102,0.038c0.11,0.041,0.221,0.082,0.331,0.122c0.033,0.012,0.065,0.023,0.098,0.035
		c0.111,0.041,0.222,0.082,0.331,0.122l0.105,0.039c0.109,0.04,0.217,0.079,0.324,0.119c0.035,0.013,0.069,0.025,0.104,0.038
		c0.108,0.039,0.215,0.078,0.322,0.117c0.036,0.013,0.072,0.025,0.109,0.04c0.103,0.037,0.204,0.074,0.307,0.11
		c0.041,0.016,0.082,0.03,0.123,0.046c0.101,0.036,0.201,0.071,0.301,0.107c0.04,0.015,0.08,0.03,0.121,0.044
		c0.101,0.037,0.203,0.073,0.304,0.11c0.039,0.013,0.077,0.026,0.116,0.041c0.093,0.034,0.186,0.067,0.277,0.1
		c0.05,0.018,0.098,0.034,0.146,0.052c0.093,0.033,0.185,0.065,0.276,0.099c0.044,0.015,0.088,0.031,0.131,0.046
		c0.104,0.037,0.207,0.073,0.309,0.11c0.031,0.011,0.063,0.021,0.094,0.032c0.098,0.034,0.193,0.068,0.291,0.103
		c0.039,0.014,0.08,0.028,0.12,0.042c0.085,0.03,0.166,0.058,0.249,0.087c0.051,0.018,0.103,0.036,0.152,0.053
		c0.086,0.03,0.171,0.061,0.256,0.089c0.044,0.016,0.089,0.031,0.133,0.047c0.081,0.027,0.16,0.055,0.241,0.082
		c0.05,0.018,0.101,0.035,0.15,0.053c0.075,0.024,0.149,0.051,0.225,0.076c0.051,0.018,0.103,0.034,0.153,0.053
		c0.077,0.025,0.152,0.051,0.228,0.077c0.05,0.016,0.099,0.032,0.146,0.049c0.123,0.041,0.243,0.082,0.364,0.122
		c0.237,0.079,0.469,0.166,0.691,0.26c0.004,0.001,0.008,0.003,0.012,0.004c0.22,0.092,0.433,0.191,0.639,0.296
		c0.007,0.003,0.015,0.006,0.021,0.01c0.203,0.104,0.399,0.214,0.589,0.328c0.009,0.005,0.02,0.011,0.028,0.017
		c0.188,0.113,0.368,0.232,0.544,0.356c0.011,0.008,0.022,0.016,0.033,0.023c0.173,0.122,0.34,0.251,0.501,0.382
		c0.012,0.01,0.023,0.019,0.036,0.029c0.159,0.131,0.313,0.267,0.463,0.405c0.012,0.012,0.024,0.022,0.035,0.033
		c0.147,0.14,0.291,0.283,0.429,0.429c0.011,0.013,0.021,0.023,0.032,0.034c0.138,0.148,0.27,0.3,0.397,0.452
		c0.01,0.011,0.02,0.022,0.028,0.033c0.128,0.155,0.251,0.313,0.369,0.473c0.007,0.01,0.015,0.021,0.022,0.03
		c0.119,0.163,0.233,0.328,0.344,0.495c0.005,0.007,0.01,0.014,0.015,0.021c0.111,0.17,0.218,0.343,0.32,0.517
		c0.002,0.004,0.005,0.008,0.007,0.012c1.157,1.974,1.619,4.133,1.891,5.764v9.458h-95.525V403.646z"/>
	<path clip-path="url(#SVGID_6_)" fill="#FFFFFF" d="M227.722,403.646l0.161-5.136l1.02-15.3l0.372-5.574l0.52-7.803l0.173-2.601
		h23.409c0-5.201,5.202-7.803,5.202-7.803l2.288,1.716l1.874,1.405l0.832,0.624l3.901,2.926l26.825,18.854l0.694,0.485
		c0,0,0.578,0.231,1.564,0.621c0.003,0.001,0.007,0.002,0.01,0.004c0.054,0.021,0.109,0.043,0.165,0.065
		c0.024,0.009,0.049,0.019,0.074,0.029c0.052,0.02,0.105,0.041,0.16,0.063c0.014,0.005,0.028,0.011,0.041,0.017
		c0.06,0.023,0.12,0.048,0.182,0.071c0.021,0.009,0.043,0.018,0.064,0.025c0.06,0.024,0.12,0.047,0.182,0.072
		c0.011,0.004,0.022,0.008,0.032,0.012c0.098,0.039,0.198,0.078,0.301,0.118c0.056,0.021,0.111,0.044,0.169,0.066
		c0.054,0.021,0.11,0.043,0.165,0.065c0.035,0.013,0.069,0.027,0.105,0.041c0.061,0.024,0.123,0.048,0.185,0.072
		c0.033,0.013,0.065,0.025,0.098,0.039c0.056,0.021,0.114,0.044,0.172,0.066c0.045,0.019,0.09,0.035,0.135,0.054
		c0.057,0.021,0.114,0.044,0.172,0.066c0.035,0.014,0.071,0.028,0.107,0.042c0.066,0.026,0.134,0.052,0.202,0.079
		c0.048,0.02,0.097,0.038,0.145,0.056c0.046,0.019,0.092,0.036,0.138,0.055c0.085,0.032,0.17,0.065,0.256,0.1
		c0.02,0.008,0.039,0.015,0.058,0.022c0.089,0.034,0.179,0.069,0.269,0.104c0.028,0.011,0.056,0.022,0.084,0.033
		c0.068,0.026,0.138,0.053,0.207,0.08c0.068,0.026,0.136,0.053,0.204,0.079c1.189,0.462,2.501,0.967,3.871,1.487
		c0.003,0.001,0.005,0.003,0.008,0.003c0.138,0.054,0.277,0.106,0.416,0.158c0,0,0.001,0.001,0.002,0.001
		c0.131,0.05,0.264,0.101,0.397,0.151c0.02,0.007,0.041,0.015,0.062,0.023c0.125,0.047,0.25,0.095,0.376,0.142l0.033,0.013
		c0.136,0.051,0.273,0.104,0.41,0.154c0.002,0.001,0.003,0.002,0.005,0.002c0.137,0.052,0.274,0.103,0.411,0.155
		c0.013,0.005,0.025,0.01,0.038,0.014c0.126,0.048,0.253,0.095,0.38,0.144c0.021,0.008,0.043,0.016,0.064,0.023
		c0.123,0.046,0.246,0.092,0.368,0.138c0.021,0.009,0.044,0.017,0.065,0.024c0.12,0.045,0.24,0.09,0.359,0.134
		c0.026,0.01,0.054,0.021,0.08,0.03c0.118,0.044,0.238,0.089,0.357,0.133c0.025,0.009,0.05,0.018,0.075,0.028
		c0.114,0.042,0.228,0.084,0.342,0.126l0.103,0.038c0.109,0.041,0.221,0.082,0.33,0.122c0.033,0.012,0.066,0.023,0.099,0.035
		c0.11,0.041,0.221,0.082,0.331,0.122l0.104,0.039c0.109,0.04,0.218,0.079,0.326,0.119c0.034,0.013,0.068,0.025,0.103,0.038
		c0.107,0.039,0.215,0.078,0.321,0.117c0.037,0.013,0.073,0.025,0.109,0.04c0.103,0.037,0.205,0.074,0.307,0.11
		c0.041,0.016,0.082,0.03,0.124,0.046c0.101,0.036,0.2,0.071,0.301,0.107c0.039,0.015,0.08,0.03,0.12,0.044
		c0.102,0.037,0.203,0.073,0.305,0.11c0.038,0.013,0.077,0.026,0.116,0.041c0.093,0.034,0.186,0.067,0.278,0.1
		c0.048,0.018,0.097,0.034,0.144,0.052c0.094,0.033,0.186,0.065,0.277,0.099c0.043,0.015,0.087,0.031,0.131,0.046
		c0.104,0.037,0.206,0.073,0.309,0.11c0.031,0.011,0.063,0.021,0.094,0.032c0.097,0.034,0.193,0.068,0.29,0.103
		c0.04,0.014,0.081,0.028,0.121,0.042c0.084,0.03,0.166,0.058,0.249,0.087c0.051,0.018,0.102,0.036,0.152,0.053
		c0.086,0.03,0.17,0.061,0.256,0.089c0.044,0.016,0.089,0.031,0.133,0.047c0.081,0.027,0.161,0.055,0.24,0.082
		c0.051,0.018,0.101,0.035,0.15,0.053c0.076,0.024,0.15,0.051,0.225,0.076c0.052,0.018,0.103,0.034,0.153,0.053
		c0.077,0.025,0.152,0.051,0.229,0.077c0.048,0.016,0.097,0.032,0.145,0.049c0.123,0.041,0.244,0.082,0.364,0.122
		c0.238,0.079,0.469,0.166,0.692,0.26c0.004,0.001,0.008,0.003,0.012,0.004c0.22,0.092,0.432,0.191,0.638,0.296
		c0.007,0.003,0.015,0.006,0.022,0.01c0.203,0.104,0.398,0.214,0.589,0.328c0.01,0.005,0.019,0.011,0.028,0.017
		c0.188,0.113,0.369,0.232,0.543,0.356c0.012,0.008,0.022,0.016,0.033,0.023c0.174,0.122,0.34,0.251,0.502,0.382
		c0.012,0.01,0.023,0.019,0.035,0.029c0.16,0.131,0.314,0.267,0.463,0.405c0.013,0.012,0.024,0.022,0.035,0.033
		c0.148,0.14,0.291,0.283,0.43,0.429c0.011,0.013,0.021,0.023,0.032,0.034c0.138,0.148,0.27,0.3,0.397,0.452
		c0.009,0.011,0.019,0.022,0.027,0.033c0.129,0.155,0.252,0.313,0.369,0.473c0.008,0.01,0.016,0.021,0.022,0.03
		c0.12,0.163,0.233,0.328,0.344,0.495c0.005,0.007,0.011,0.014,0.015,0.021c0.111,0.17,0.219,0.343,0.32,0.517
		c0.002,0.004,0.005,0.008,0.007,0.012c1.157,1.974,1.62,4.133,1.892,5.764v9.458h-95.526V403.646z"/>
	<path clip-path="url(#SVGID_6_)" fill="#F8D012" d="M297.151,399.269l-43.409-30.932l4.507-7.193l11.639,9.148l27.282,18.479
		l0.747,0.507c0,0,2.847,1.103,6.744,2.561l0.007,0.032L297.151,399.269z"/>
	<path clip-path="url(#SVGID_6_)" fill="#F8D012" d="M295.015,386.521c0.563,0.227,13.159,5.253,20.786,7.795
		c3.854,1.285,5.803,4.472,6.789,7.369h-38.679L295.015,386.521z"/>
	<polygon clip-path="url(#SVGID_6_)" fill="#191818" points="270.048,369.268 263.103,375.413 266.604,366.824 	"/>
	<polygon clip-path="url(#SVGID_6_)" fill="#191818" points="276.585,373.925 269.639,380.069 273.14,371.481 	"/>
	
		<line clip-path="url(#SVGID_6_)" fill="none" stroke="#191818" stroke-width="2.148" stroke-miterlimit="10" x1="322.59" y1="402.491" x2="227.722" y2="402.491"/>
	<polygon clip-path="url(#SVGID_6_)" fill="#191818" points="283.121,378.581 276.175,384.727 279.676,376.139 	"/>
	<polygon clip-path="url(#SVGID_6_)" fill="#191818" points="289.657,383.238 282.711,389.383 286.212,380.795 	"/>
	<polygon clip-path="url(#SVGID_6_)" fill="#191818" points="296.194,387.896 289.248,394.04 292.749,385.452 	"/>
	<path clip-path="url(#SVGID_6_)" fill="none" stroke="#191818" stroke-width="4.296" stroke-miterlimit="10" d="M227.722,403.646
		l0.161-5.136l1.02-15.3l0.372-5.574l0.52-7.803l0.173-2.601h23.409c0-5.201,5.202-7.803,5.202-7.803l2.288,1.716l1.874,1.405
		l0.832,0.624l3.901,2.926l26.825,18.854l0.694,0.485c0,0,0.578,0.231,1.564,0.621c0.003,0.001,0.007,0.002,0.01,0.004
		c0.054,0.021,0.109,0.043,0.165,0.065c0.024,0.009,0.049,0.019,0.074,0.029c0.052,0.02,0.105,0.041,0.16,0.063
		c0.014,0.005,0.028,0.011,0.041,0.017c0.06,0.023,0.12,0.048,0.182,0.071c0.021,0.009,0.043,0.018,0.064,0.025
		c0.06,0.024,0.12,0.047,0.182,0.072c0.011,0.004,0.022,0.008,0.032,0.012c0.098,0.039,0.198,0.078,0.301,0.118
		c0.056,0.021,0.111,0.044,0.169,0.066c0.054,0.021,0.11,0.043,0.165,0.065c0.035,0.013,0.069,0.027,0.105,0.041
		c0.061,0.024,0.123,0.048,0.185,0.072c0.033,0.013,0.065,0.025,0.098,0.039c0.056,0.021,0.114,0.044,0.172,0.066
		c0.045,0.019,0.09,0.035,0.135,0.054c0.057,0.021,0.114,0.044,0.172,0.066c0.035,0.014,0.071,0.028,0.107,0.042
		c0.066,0.026,0.134,0.052,0.202,0.079c0.048,0.02,0.097,0.038,0.145,0.056c0.046,0.019,0.092,0.036,0.138,0.055
		c0.085,0.032,0.17,0.065,0.256,0.1c0.02,0.008,0.039,0.015,0.058,0.022c0.089,0.034,0.179,0.069,0.269,0.104
		c0.028,0.011,0.056,0.022,0.084,0.033c0.068,0.026,0.138,0.053,0.207,0.08c0.068,0.026,0.136,0.053,0.204,0.079
		c1.189,0.462,2.501,0.967,3.871,1.487c0.003,0.001,0.005,0.003,0.008,0.003c0.138,0.054,0.277,0.106,0.416,0.158
		c0,0,0.001,0.001,0.002,0.001c0.131,0.05,0.264,0.101,0.397,0.151c0.02,0.007,0.041,0.015,0.062,0.023
		c0.125,0.047,0.25,0.095,0.376,0.142l0.033,0.013c0.136,0.051,0.273,0.104,0.41,0.154c0.002,0.001,0.003,0.002,0.005,0.002
		c0.137,0.052,0.274,0.103,0.411,0.155c0.013,0.005,0.025,0.01,0.038,0.014c0.126,0.048,0.253,0.095,0.38,0.144
		c0.021,0.008,0.043,0.016,0.064,0.023c0.123,0.046,0.246,0.092,0.368,0.138c0.021,0.009,0.044,0.017,0.065,0.024
		c0.12,0.045,0.24,0.09,0.359,0.134c0.026,0.01,0.054,0.021,0.08,0.03c0.118,0.044,0.238,0.089,0.357,0.133
		c0.025,0.009,0.05,0.018,0.075,0.028c0.114,0.042,0.228,0.084,0.342,0.126l0.103,0.038c0.109,0.041,0.221,0.082,0.33,0.122
		c0.033,0.012,0.066,0.023,0.099,0.035c0.11,0.041,0.221,0.082,0.331,0.122l0.104,0.039c0.109,0.04,0.218,0.079,0.326,0.119
		c0.034,0.013,0.068,0.025,0.103,0.038c0.107,0.039,0.215,0.078,0.321,0.117c0.037,0.013,0.073,0.025,0.109,0.04
		c0.103,0.037,0.205,0.074,0.307,0.11c0.041,0.016,0.082,0.03,0.124,0.046c0.101,0.036,0.2,0.071,0.301,0.107
		c0.039,0.015,0.08,0.03,0.12,0.044c0.102,0.037,0.203,0.073,0.305,0.11c0.038,0.013,0.077,0.026,0.116,0.041
		c0.093,0.034,0.186,0.067,0.278,0.1c0.048,0.018,0.097,0.034,0.144,0.052c0.094,0.033,0.186,0.065,0.277,0.099
		c0.043,0.015,0.087,0.031,0.131,0.046c0.104,0.037,0.206,0.073,0.309,0.11c0.031,0.011,0.063,0.021,0.094,0.032
		c0.097,0.034,0.193,0.068,0.29,0.103c0.04,0.014,0.081,0.028,0.121,0.042c0.084,0.03,0.166,0.058,0.249,0.087
		c0.051,0.018,0.102,0.036,0.152,0.053c0.086,0.03,0.17,0.061,0.256,0.089c0.044,0.016,0.089,0.031,0.133,0.047
		c0.081,0.027,0.161,0.055,0.24,0.082c0.051,0.018,0.101,0.035,0.15,0.053c0.076,0.024,0.15,0.051,0.225,0.076
		c0.052,0.018,0.103,0.034,0.153,0.053c0.077,0.025,0.152,0.051,0.229,0.077c0.048,0.016,0.097,0.032,0.145,0.049
		c0.123,0.041,0.244,0.082,0.364,0.122c0.238,0.079,0.469,0.166,0.692,0.26c0.004,0.001,0.008,0.003,0.012,0.004
		c0.22,0.092,0.432,0.191,0.638,0.296c0.007,0.003,0.015,0.006,0.022,0.01c0.203,0.104,0.398,0.214,0.589,0.328
		c0.01,0.005,0.019,0.011,0.028,0.017c0.188,0.113,0.369,0.232,0.543,0.356c0.012,0.008,0.022,0.016,0.033,0.023
		c0.174,0.122,0.34,0.251,0.502,0.382c0.012,0.01,0.023,0.019,0.035,0.029c0.16,0.131,0.314,0.267,0.463,0.405
		c0.013,0.012,0.024,0.022,0.035,0.033c0.148,0.14,0.291,0.283,0.43,0.429c0.011,0.013,0.021,0.023,0.032,0.034
		c0.138,0.148,0.27,0.3,0.397,0.452c0.009,0.011,0.019,0.022,0.027,0.033c0.129,0.155,0.252,0.313,0.369,0.473
		c0.008,0.01,0.016,0.021,0.022,0.03c0.12,0.163,0.233,0.328,0.344,0.495c0.005,0.007,0.011,0.014,0.015,0.021
		c0.111,0.17,0.219,0.343,0.32,0.517c0.002,0.004,0.005,0.008,0.007,0.012c1.157,1.974,1.62,4.133,1.892,5.764v9.458h-95.526
		V403.646z"/>
	<polygon clip-path="url(#SVGID_6_)" fill="#F8D012" points="255.183,379.355 268.482,386.134 264.928,388.908 271.188,395.462 
		257.889,388.684 261.443,385.908 	"/>
</g>
<path fill="#191818" d="M367.523,307.61l3.393,5.225c-3.476,4.13-6.324,10.43-6.392,19.499l-0.001,0.06v0.03l-0.001,0.024
	l-0.002,0.172v0.04v0.039v71.391c-0.394,2.727-4.038,22.62-27.06,29.079c-5.879,1.649-21.529,6.528-31.394,14.107
	c-5.685-4.468-15.251-9.594-31.342-14.107c-22.9-6.425-26.624-26.116-27.06-29.098V332.66l-0.002-0.27l-0.001-0.065
	c-0.067-9.064-2.915-15.362-6.391-19.49l3.392-5.225h28.033h23.781h9.198h33.814H367.523 M372.066,299.244H339.49h-33.814h-9.198
	h-23.781h-32.576l-10.034,15.454c0,0,9.1,2.806,9.21,17.689c0.001,0.091,0.003,0.181,0.003,0.272v71.94
	c0,0,2.764,28.095,33.166,36.624c29.393,8.245,33.383,17.896,33.615,18.528c0.008,0.022,0.012,0.033,0.012,0.033
	s3.225-10.034,33.627-18.562c30.403-8.529,33.167-36.624,33.167-36.624v-71.901c0-0.013,0.001-0.025,0.001-0.039
	c0-0.092,0.002-0.182,0.002-0.272c0.11-14.884,9.211-17.689,9.211-17.689L372.066,299.244z"/>
</svg>
