<?xml version="1.0" encoding="utf-8"?>
<!-- Generator: Adobe Illustrator 16.0.0, SVG Export Plug-In . SVG Version: 6.00 Build 0)  -->
<!DOCTYPE svg PUBLIC "-//W3C//DTD SVG 1.1//EN" "http://www.w3.org/Graphics/SVG/1.1/DTD/svg11.dtd">
<svg version="1.1" id="Layer_1" xmlns="http://www.w3.org/2000/svg" xmlns:xlink="http://www.w3.org/1999/xlink" x="0px" y="0px"
	 width="240px" height="200px" viewBox="0 0 240 200" enable-background="new 0 0 240 200" xml:space="preserve">
<rect x="77.446" y="131.861" fill="#020202" width="85" height="43.667"/>
<polygon fill="#020202" points="150.746,161.025 176.584,152.046 163.511,142.266 112.002,166.528 "/>
<polygon fill="#020202" points="124.003,167.528 67.308,152.046 80.381,142.266 128.503,164.028 "/>
<polygon fill="#FFFFFF" points="174.26,183.863 121.967,198.046 69.673,182.358 69.673,154.837 121.967,164.525 174.26,154.837 "/>
<polygon fill="none" stroke="#020202" stroke-width="4.515" stroke-miterlimit="10" points="174.26,183.863 121.967,196.646 
	69.673,183.863 69.673,154.837 121.967,163.62 174.26,154.837 "/>
<path fill="#FDD00F" d="M122.285,37.388H55.501c0.001,0.091,0.003,0.182,0.003,0.272V109.6c0,0,2.764,28.096,33.166,36.624
	c29.393,8.245,33.383,17.896,33.615,18.529c0.008,0.021,0.012,0.032,0.012,0.032s3.227-10.034,33.627-18.563
	c30.402-8.528,33.166-36.624,33.166-36.624v-71.9c0-0.014,0.002-0.025,0.002-0.039c0-0.092,0.002-0.183,0.002-0.272L122.285,37.388
	L122.285,37.388z"/>
<g opacity="0.5">
	<g>
		<g>
			<defs>
				<rect id="SVGID_1_" x="122.29" y="37.39" width="66.8" height="127.4"/>
			</defs>
			<clipPath id="SVGID_2_">
				<use xlink:href="#SVGID_1_"  overflow="visible"/>
			</clipPath>
			<path clip-path="url(#SVGID_2_)" fill="#CDA72C" d="M155.924,146.224c30.402-8.527,33.166-36.624,33.166-36.624V37.7
				c0.002-0.015,0.002-0.026,0.002-0.039c0-0.092,0.002-0.183,0.002-0.273h-66.809v127.366c0.008,0.022,0.012,0.034,0.012,0.034
				S125.521,154.753,155.924,146.224"/>
		</g>
	</g>
</g>
<path fill="#191818" d="M183.729,12.61l3.394,5.225c-2.296,2.726-4.317,6.396-5.445,11.188H62.92
	c-1.128-4.79-3.149-8.462-5.444-11.188l3.393-5.225h28.033h23.781h9.198h33.814H183.729 M188.271,4.244h-32.576H121.88h-9.198
	H88.901H56.325L46.291,19.698c0,0,9.1,2.806,9.211,17.688h133.592c0.111-14.884,9.211-17.688,9.211-17.688L188.271,4.244z"/>
<g opacity="0.4">
	<g>
		<g>
			<defs>
				<rect id="SVGID_3_" x="46.29" y="4.24" width="152.01" height="160.55"/>
			</defs>
			<clipPath id="SVGID_4_">
				<use xlink:href="#SVGID_3_"  overflow="visible"/>
			</clipPath>
			<path clip-path="url(#SVGID_4_)" fill="#FFFFFF" d="M180.301,18.041c-2.643,4.357-4.931,10.608-5.003,19.237l-0.001,0.03
				l-0.003,0.28v0.055v0.056v70.951c-0.224,1.223-1.069,5.082-3.448,9.366c-4.104,7.396-10.717,12.417-19.647,14.924
				c-13.943,3.911-23.451,8.354-29.929,12.658c-6.467-4.301-15.955-8.755-29.873-12.658c-8.596-2.412-15.05-7.16-19.183-14.113
				c-2.709-4.56-3.653-8.787-3.913-10.227V37.66l-0.003-0.376c-0.064-8.624-2.355-14.881-5.003-19.243h24.606h23.781h9.198h33.815
				H180.301 M188.271,4.244h-32.576H121.88h-9.198H88.901H56.325L46.291,19.698c0,0,9.1,2.806,9.21,17.688
				c0.001,0.091,0.003,0.182,0.003,0.272v71.939c0,0,2.764,28.096,33.166,36.624c29.393,8.245,33.383,17.896,33.616,18.528
				c0.007,0.022,0.011,0.033,0.011,0.033s3.225-10.034,33.627-18.563c30.403-8.528,33.167-36.624,33.167-36.624v-71.9
				c0-0.014,0.001-0.025,0.001-0.039c0-0.092,0.002-0.183,0.002-0.272c0.111-14.884,9.211-17.688,9.211-17.688L188.271,4.244z"/>
		</g>
	</g>
</g>
<path fill="#1A1A19" d="M198.305,19.698L188.271,4.244h-32.576H121.88h-9.198H88.901H56.325L46.291,19.698
	c0,0,9.1,2.807,9.211,17.688v7.526h133.594v-7.526C189.205,22.505,198.305,19.698,198.305,19.698"/>
<path fill="#FFFFFF" d="M77.969,30.496l2.409-2.529c1.023,1.325,2.619,2.198,4.304,2.198c2.108,0,3.072-1.114,3.072-2.68
	c0-1.866-1.295-2.528-3.252-2.528c-0.662,0-1.566,0-1.866,0.061v-3.644c0.3,0.03,1.294,0.03,1.776,0.03
	c1.836,0,3.07-0.753,3.07-2.318c0-1.686-1.204-2.498-2.95-2.498c-1.565,0-2.98,0.722-4.004,2.018l-2.288-2.35
	c1.445-2.017,3.733-3.251,6.623-3.251c3.974,0,6.593,1.896,6.593,5.449c0,2.288-1.716,4.154-3.793,4.575
	c2.047,0.302,4.095,2.106,4.095,4.817c0,3.491-2.68,5.9-6.895,5.9C81.672,33.748,79.234,32.332,77.969,30.496"/>
<path fill="#FFFFFF" d="M100.906,33.387V13.306h6.473c5.539,0,8.73,4.155,8.73,10.057c0,5.9-3.161,10.024-8.73,10.024H100.906z
	 M111.985,23.361c0-3.976-1.566-6.503-4.606-6.503h-2.438v12.976h2.438C110.359,29.834,111.985,27.185,111.985,23.361"/>
<path fill="#FFFFFF" d="M128.813,33.387l-0.934-3.553h-6.172l-0.934,3.553h-4.365l5.961-20.081h4.877l5.961,20.081H128.813z
	 M124.809,17.551l-2.289,8.73h4.576L124.809,17.551z"/>
<polygon fill="#FFFFFF" points="137.811,33.387 137.811,25.107 131.609,13.306 136.064,13.306 139.828,21.374 143.59,13.306 
	148.047,13.306 141.846,25.107 141.846,33.387 "/>
<path fill="#FFFFFF" d="M148.016,31.158l1.986-3.102c1.113,1.234,2.859,2.139,4.848,2.139c1.775,0,2.739-0.994,2.739-2.229
	c0-3.521-8.972-2.316-8.972-9.121c0-3.162,2.469-5.871,6.623-5.871c2.438,0,4.545,0.783,6.08,2.229l-1.926,3.011
	c-1.205-1.144-2.74-1.686-4.306-1.686c-1.444,0-2.349,0.813-2.349,2.047c0,3.131,8.941,2.288,8.941,9.063
	c0,3.521-2.408,6.111-6.805,6.111C151.839,33.748,149.609,32.754,148.016,31.158"/>
<polygon fill="#1A1A19" points="106.22,185.976 106.22,173.629 103.695,176.253 101.771,174.229 106.67,169.305 109.594,169.305 
	109.594,185.976 "/>
<path fill="#1A1A19" d="M111.87,177.652c0-4.3,1.774-8.599,5.898-8.599c4.15,0,5.899,4.3,5.899,8.599
	c0,4.273-1.724,8.623-5.899,8.623C113.644,186.275,111.87,181.927,111.87,177.652 M120.268,177.652c0-3.225-0.55-5.623-2.5-5.623
	c-1.924,0-2.474,2.398-2.474,5.623c0,3.198,0.55,5.647,2.474,5.647C119.718,183.301,120.268,180.852,120.268,177.652"/>
<polygon fill="#1A1A19" points="134.343,185.976 130.494,179.453 129.318,181.302 129.318,185.976 125.971,185.976 125.971,169.305 
	129.318,169.305 129.318,176.878 134.018,169.305 137.917,169.305 132.593,177.152 138.292,185.976 "/>
<g>
	<g>
		<defs>
			<path id="SVGID_5_" d="M122.223,37.591H56.002c0,0.089,0.002,0.177,0.002,0.271v71.335c0,0,2.741,27.855,32.887,36.313
				c29.143,8.177,33.1,17.746,33.332,18.373c0.008,0.021,0.014,0.033,0.014,0.033s3.195-9.95,33.343-18.406
				c30.146-8.457,32.887-36.313,32.887-36.313V37.9c0-0.014,0.002-0.027,0.002-0.039c0-0.094,0.003-0.182,0.003-0.271H122.223
				L122.223,37.591z"/>
		</defs>
		<clipPath id="SVGID_6_">
			<use xlink:href="#SVGID_5_"  overflow="visible"/>
		</clipPath>
		<g clip-path="url(#SVGID_6_)">
			<g opacity="0.5">
				<g>
					<defs>
						<rect id="SVGID_7_" x="54.68" y="104.87" width="130.759" height="27.61"/>
					</defs>
					<defs>
						<rect id="SVGID_8_" x="54.68" y="104.87" width="130.759" height="27.61"/>
					</defs>
					<defs>
						<rect id="SVGID_9_" x="54.68" y="104.87" width="130.759" height="27.61"/>
					</defs>
					<defs>
						<rect id="SVGID_10_" x="54.68" y="104.87" width="130.759" height="27.61"/>
					</defs>
					<defs>
						<rect id="SVGID_11_" x="54.68" y="104.87" width="130.759" height="27.61"/>
					</defs>
					<defs>
						<rect id="SVGID_12_" x="54.68" y="104.87" width="130.759" height="27.61"/>
					</defs>
					<defs>
						<rect id="SVGID_13_" x="54.68" y="104.87" width="130.759" height="27.61"/>
					</defs>
					<defs>
						<rect id="SVGID_14_" x="54.68" y="104.87" width="130.759" height="27.61"/>
					</defs>
					<clipPath id="SVGID_15_">
						<use xlink:href="#SVGID_7_"  overflow="visible"/>
					</clipPath>
					<clipPath id="SVGID_16_" clip-path="url(#SVGID_15_)">
						<use xlink:href="#SVGID_8_"  overflow="visible"/>
					</clipPath>
					<clipPath id="SVGID_17_" clip-path="url(#SVGID_16_)">
						<use xlink:href="#SVGID_9_"  overflow="visible"/>
					</clipPath>
					<clipPath id="SVGID_18_" clip-path="url(#SVGID_17_)">
						<use xlink:href="#SVGID_10_"  overflow="visible"/>
					</clipPath>
					<clipPath id="SVGID_19_" clip-path="url(#SVGID_18_)">
						<use xlink:href="#SVGID_11_"  overflow="visible"/>
					</clipPath>
					<clipPath id="SVGID_20_" clip-path="url(#SVGID_19_)">
						<use xlink:href="#SVGID_12_"  overflow="visible"/>
					</clipPath>
					<clipPath id="SVGID_21_" clip-path="url(#SVGID_20_)">
						<use xlink:href="#SVGID_13_"  overflow="visible"/>
					</clipPath>
					<clipPath id="SVGID_22_" clip-path="url(#SVGID_21_)">
						<use xlink:href="#SVGID_14_"  overflow="visible"/>
					</clipPath>
					<path clip-path="url(#SVGID_22_)" fill="#CDA72C" d="M171.439,104.87c0,0-9.744,8.382-7.763,7.194c0,0-1.286,7.67-7.591,7.4
						c-6.302-0.267-8.125,9.171-7.881,11.126c0,0,3.949-4.619,10.466-2.967c6.517,1.654,10.058-2.413,10.937-3.702
						c0,0-2.33,7.688-6.851,8.27c0,0,11.194,2.166,15.591-5.347c4.395-7.514,6.611-16.359,7.084-17.154
						C185.902,108.896,171.439,104.87,171.439,104.87"/>
					<path clip-path="url(#SVGID_22_)" fill="#CDA72C" d="M158.617,126.278c0,0-7.975,1.536-6.607,1.02c0,0-4.304-2.372-6.645,0.854
						c-2.342,3.226-7.73,0.425-8.602-0.463c0,0,3.836-0.145,5.575-4.021c1.737-3.875,5.142-4.033,6.123-3.961
						c0,0-4.72-1.863-6.78,0.146c0,0,3.319-6.393,8.766-5.619c5.443,0.771,10.695,3.145,11.273,3.224
						S158.617,126.278,158.617,126.278"/>
					<path clip-path="url(#SVGID_22_)" fill="#CDA72C" d="M139.105,104.87c0,0-9.746,8.382-7.764,7.194c0,0-1.287,7.67-7.591,7.4
						c-6.303-0.267-8.125,9.171-7.882,11.126c0,0,3.95-4.619,10.467-2.967c6.516,1.654,10.057-2.413,10.936-3.702
						c0,0-2.33,7.688-6.85,8.27c0,0,11.194,2.166,15.59-5.347c4.395-7.514,6.612-16.359,7.084-17.154
						C153.566,108.896,139.105,104.87,139.105,104.87"/>
					<path clip-path="url(#SVGID_22_)" fill="#CDA72C" d="M126.282,126.278c0,0-7.975,1.536-6.609,1.02c0,0-4.302-2.372-6.643,0.854
						c-2.341,3.226-7.73,0.425-8.602-0.463c0,0,3.837-0.145,5.576-4.021c1.738-3.875,5.142-4.033,6.124-3.961
						c0,0-4.72-1.863-6.781,0.146c0,0,3.32-6.393,8.765-5.619c5.445,0.771,10.695,3.145,11.273,3.224
						C129.964,117.537,126.282,126.278,126.282,126.278"/>
					<path clip-path="url(#SVGID_22_)" fill="#CDA72C" d="M113.734,104.87c0,0-9.745,8.382-7.763,7.194c0,0-1.288,7.67-7.591,7.4
						c-6.302-0.267-8.125,9.171-7.881,11.126c0,0,3.949-4.619,10.466-2.967c6.516,1.654,10.057-2.413,10.936-3.702
						c0,0-2.33,7.688-6.85,8.27c0,0,11.194,2.166,15.59-5.347c4.395-7.514,6.612-16.359,7.082-17.154
						C128.195,108.896,113.734,104.87,113.734,104.87"/>
					<path clip-path="url(#SVGID_22_)" fill="#CDA72C" d="M100.911,126.278c0,0-7.975,1.536-6.608,1.02c0,0-4.303-2.372-6.644,0.854
						c-2.341,3.226-7.73,0.425-8.602-0.463c0,0,3.837-0.145,5.576-4.021c1.738-3.875,5.142-4.033,6.124-3.961
						c0,0-4.72-1.863-6.781,0.146c0,0,3.319-6.393,8.765-5.619c5.444,0.771,10.695,3.145,11.274,3.224
						C104.593,117.537,100.911,126.278,100.911,126.278"/>
					<path clip-path="url(#SVGID_22_)" fill="#CDA72C" d="M89.358,104.87c0,0-9.745,8.382-7.762,7.194c0,0-1.288,7.67-7.591,7.4
						c-6.303-0.267-8.125,9.171-7.882,11.126c0,0,3.95-4.619,10.467-2.967c6.516,1.654,10.057-2.413,10.935-3.702
						c0,0-2.33,7.688-6.849,8.27c0,0,11.194,2.166,15.589-5.347c4.395-7.514,6.612-16.359,7.084-17.154
						C103.82,108.896,89.358,104.87,89.358,104.87"/>
					<path clip-path="url(#SVGID_22_)" fill="#CDA72C" d="M76.536,126.278c0,0-7.975,1.536-6.609,1.02c0,0-4.302-2.372-6.644,0.854
						c-2.341,3.226-7.729,0.425-8.602-0.463c0,0,3.837-0.145,5.576-4.021c1.738-3.875,5.142-4.033,6.124-3.961
						c0,0-4.72-1.863-6.781,0.146c0,0,3.32-6.393,8.764-5.619c5.445,0.771,10.696,3.145,11.275,3.224
						C80.218,117.537,76.536,126.278,76.536,126.278"/>
				</g>
			</g>
			<g>
				<defs>
					<path id="SVGID_23_" d="M122.223,37.591H56.002c0,0.089,0.002,0.177,0.002,0.271v71.335c0,0,2.741,27.855,32.887,36.313
						c29.143,8.177,33.1,17.746,33.332,18.373c0.008,0.021,0.014,0.033,0.014,0.033s3.195-9.95,33.343-18.406
						c30.146-8.457,32.887-36.313,32.887-36.313V37.9c0-0.014,0.002-0.027,0.002-0.039c0-0.094,0.003-0.182,0.003-0.271H122.223
						L122.223,37.591z"/>
				</defs>
				<clipPath id="SVGID_24_">
					<use xlink:href="#SVGID_23_"  overflow="visible"/>
				</clipPath>
				<path clip-path="url(#SVGID_24_)" fill="#FFFFFF" d="M84.749,108.646l0.161-5.137l1.02-15.3l0.372-5.574l0.521-7.803
					l0.173-2.601h23.409c0-5.201,5.202-7.804,5.202-7.804l2.288,1.716l1.874,1.405l0.833,0.624l3.9,2.926l26.825,18.854l0.692,0.485
					c0,0,0.578,0.23,1.565,0.62c0.003,0.001,0.007,0.002,0.011,0.005c0.053,0.021,0.108,0.043,0.164,0.064
					c0.024,0.009,0.049,0.02,0.073,0.029c0.054,0.02,0.106,0.041,0.161,0.063c0.014,0.005,0.027,0.012,0.041,0.018
					c0.061,0.022,0.119,0.048,0.182,0.07c0.021,0.01,0.043,0.019,0.064,0.025c0.06,0.024,0.119,0.047,0.182,0.072
					c0.01,0.004,0.021,0.008,0.032,0.012c0.098,0.039,0.198,0.078,0.3,0.118c0.057,0.021,0.112,0.044,0.17,0.065
					c0.055,0.021,0.11,0.043,0.165,0.065c0.035,0.013,0.069,0.027,0.104,0.041c0.062,0.024,0.123,0.048,0.186,0.072
					c0.033,0.013,0.064,0.024,0.098,0.039c0.058,0.021,0.114,0.044,0.172,0.065c0.045,0.02,0.091,0.035,0.137,0.054
					c0.057,0.021,0.113,0.045,0.172,0.066c0.035,0.014,0.07,0.028,0.105,0.042c0.066,0.026,0.136,0.052,0.203,0.079
					c0.047,0.02,0.096,0.038,0.146,0.056c0.046,0.02,0.091,0.036,0.138,0.056c0.084,0.031,0.17,0.064,0.256,0.1
					c0.021,0.008,0.039,0.015,0.059,0.022c0.09,0.033,0.18,0.068,0.27,0.104c0.028,0.011,0.057,0.022,0.084,0.033
					c0.068,0.025,0.139,0.053,0.207,0.08c0.068,0.025,0.137,0.053,0.204,0.079c1.188,0.462,2.501,0.967,3.871,1.486
					c0.003,0.001,0.005,0.003,0.008,0.003c0.138,0.055,0.277,0.106,0.416,0.158c0,0,0.001,0.001,0.002,0.001
					c0.132,0.05,0.265,0.102,0.397,0.151l0.063,0.022c0.125,0.048,0.25,0.096,0.375,0.143c0.012,0.004,0.021,0.009,0.033,0.013
					c0.137,0.051,0.273,0.104,0.409,0.154c0.002,0.001,0.004,0.002,0.006,0.002c0.138,0.052,0.274,0.103,0.411,0.155
					c0.013,0.005,0.023,0.01,0.037,0.014c0.127,0.048,0.254,0.095,0.38,0.144c0.021,0.009,0.044,0.017,0.063,0.023
					c0.123,0.046,0.246,0.092,0.369,0.138c0.021,0.009,0.043,0.018,0.064,0.024l0.359,0.134c0.026,0.01,0.054,0.021,0.08,0.03
					c0.118,0.044,0.238,0.089,0.357,0.133c0.025,0.009,0.05,0.018,0.074,0.028c0.113,0.042,0.229,0.084,0.343,0.126
					c0.034,0.013,0.067,0.024,0.103,0.038c0.109,0.041,0.221,0.082,0.33,0.122c0.033,0.012,0.065,0.022,0.098,0.034
					c0.111,0.041,0.223,0.082,0.332,0.122l0.104,0.039c0.109,0.04,0.218,0.079,0.325,0.119c0.035,0.013,0.068,0.025,0.104,0.038
					c0.107,0.039,0.215,0.078,0.321,0.117c0.036,0.013,0.073,0.024,0.109,0.04c0.103,0.037,0.204,0.074,0.307,0.109
					c0.041,0.017,0.082,0.03,0.123,0.047c0.101,0.035,0.201,0.07,0.302,0.106c0.039,0.015,0.079,0.03,0.12,0.044
					c0.101,0.037,0.203,0.073,0.304,0.11c0.039,0.013,0.078,0.025,0.117,0.041c0.092,0.034,0.187,0.066,0.277,0.1
					c0.049,0.019,0.098,0.034,0.145,0.052c0.094,0.033,0.187,0.065,0.277,0.1c0.043,0.015,0.087,0.031,0.13,0.046
					c0.104,0.037,0.207,0.073,0.31,0.109c0.031,0.012,0.063,0.021,0.095,0.032c0.097,0.034,0.192,0.068,0.29,0.104
					c0.04,0.014,0.081,0.027,0.12,0.042c0.085,0.029,0.165,0.058,0.25,0.087c0.051,0.018,0.102,0.036,0.151,0.053
					c0.086,0.03,0.17,0.062,0.256,0.089c0.043,0.017,0.088,0.031,0.133,0.047c0.08,0.027,0.16,0.056,0.24,0.082
					c0.051,0.019,0.102,0.035,0.15,0.054c0.075,0.023,0.15,0.051,0.225,0.075c0.051,0.019,0.104,0.034,0.153,0.054
					c0.077,0.024,0.152,0.051,0.228,0.077c0.051,0.016,0.1,0.031,0.146,0.049c0.123,0.041,0.244,0.082,0.364,0.122
					c0.237,0.079,0.469,0.166,0.69,0.26c0.006,0.001,0.01,0.003,0.014,0.004c0.219,0.092,0.432,0.191,0.638,0.296
					c0.007,0.003,0.015,0.006,0.022,0.01c0.201,0.104,0.397,0.214,0.588,0.328c0.011,0.005,0.02,0.011,0.029,0.018
					c0.188,0.112,0.366,0.231,0.543,0.355c0.012,0.008,0.021,0.017,0.032,0.023c0.173,0.122,0.341,0.251,0.501,0.382
					c0.014,0.01,0.024,0.019,0.036,0.029c0.16,0.131,0.313,0.267,0.464,0.404c0.012,0.013,0.023,0.022,0.034,0.033
					c0.147,0.14,0.291,0.283,0.429,0.429c0.012,0.014,0.022,0.023,0.033,0.034c0.137,0.148,0.27,0.3,0.396,0.452
					c0.01,0.011,0.02,0.022,0.027,0.033c0.129,0.155,0.252,0.313,0.369,0.473c0.008,0.01,0.016,0.021,0.022,0.03
					c0.12,0.163,0.233,0.328,0.344,0.495c0.005,0.007,0.01,0.014,0.015,0.021c0.111,0.17,0.219,0.343,0.32,0.518
					c0.002,0.004,0.005,0.008,0.007,0.012c1.157,1.974,1.619,4.133,1.892,5.764v9.458H84.748L84.749,108.646L84.749,108.646z"/>
			</g>
			<g>
				<defs>
					<path id="SVGID_25_" d="M122.223,37.591H56.002c0,0.089,0.002,0.177,0.002,0.271v71.335c0,0,2.741,27.855,32.887,36.313
						c29.143,8.177,33.1,17.746,33.332,18.373c0.008,0.021,0.014,0.033,0.014,0.033s3.195-9.95,33.343-18.406
						c30.146-8.457,32.887-36.313,32.887-36.313V37.9c0-0.014,0.002-0.027,0.002-0.039c0-0.094,0.003-0.182,0.003-0.271H122.223
						L122.223,37.591z"/>
				</defs>
				<clipPath id="SVGID_26_">
					<use xlink:href="#SVGID_25_"  overflow="visible"/>
				</clipPath>
				<path clip-path="url(#SVGID_26_)" fill="#F8D016" d="M154.18,104.269l-43.41-30.932l4.507-7.193l11.639,9.148l27.282,18.479
					l0.747,0.507c0,0,2.847,1.103,6.744,2.561l0.006,0.032L154.18,104.269z"/>
			</g>
			<g>
				<defs>
					<path id="SVGID_27_" d="M122.223,37.591H56.002c0,0.089,0.002,0.177,0.002,0.271v71.335c0,0,2.741,27.855,32.887,36.313
						c29.143,8.177,33.1,17.746,33.332,18.373c0.008,0.021,0.014,0.033,0.014,0.033s3.195-9.95,33.343-18.406
						c30.146-8.457,32.887-36.313,32.887-36.313V37.9c0-0.014,0.002-0.027,0.002-0.039c0-0.094,0.003-0.182,0.003-0.271H122.223
						L122.223,37.591z"/>
				</defs>
				<clipPath id="SVGID_28_">
					<use xlink:href="#SVGID_27_"  overflow="visible"/>
				</clipPath>
				<path clip-path="url(#SVGID_28_)" fill="#F8D016" d="M152.041,91.521c0.564,0.227,13.159,5.253,20.786,7.795
					c3.854,1.284,5.803,4.472,6.79,7.368h-38.68L152.041,91.521z"/>
			</g>
			<g>
				<defs>
					<path id="SVGID_29_" d="M122.223,37.591H56.002c0,0.089,0.002,0.177,0.002,0.271v71.335c0,0,2.741,27.855,32.887,36.313
						c29.143,8.177,33.1,17.746,33.332,18.373c0.008,0.021,0.014,0.033,0.014,0.033s3.195-9.95,33.343-18.406
						c30.146-8.457,32.887-36.313,32.887-36.313V37.9c0-0.014,0.002-0.027,0.002-0.039c0-0.094,0.003-0.182,0.003-0.271H122.223
						L122.223,37.591z"/>
				</defs>
				<clipPath id="SVGID_30_">
					<use xlink:href="#SVGID_29_"  overflow="visible"/>
				</clipPath>
				<polygon clip-path="url(#SVGID_30_)" fill="#191818" points="127.075,74.268 120.129,80.413 123.63,71.824 				"/>
			</g>
			<g>
				<defs>
					<path id="SVGID_31_" d="M122.223,37.591H56.002c0,0.089,0.002,0.177,0.002,0.271v71.335c0,0,2.741,27.855,32.887,36.313
						c29.143,8.177,33.1,17.746,33.332,18.373c0.008,0.021,0.014,0.033,0.014,0.033s3.195-9.95,33.343-18.406
						c30.146-8.457,32.887-36.313,32.887-36.313V37.9c0-0.014,0.002-0.027,0.002-0.039c0-0.094,0.003-0.182,0.003-0.271H122.223
						L122.223,37.591z"/>
				</defs>
				<clipPath id="SVGID_32_">
					<use xlink:href="#SVGID_31_"  overflow="visible"/>
				</clipPath>
				<polygon clip-path="url(#SVGID_32_)" fill="#191818" points="133.611,78.925 126.666,85.069 130.166,76.481 				"/>
			</g>
			<g>
				<defs>
					<path id="SVGID_33_" d="M122.223,37.591H56.002c0,0.089,0.002,0.177,0.002,0.271v71.335c0,0,2.741,27.855,32.887,36.313
						c29.143,8.177,33.1,17.746,33.332,18.373c0.008,0.021,0.014,0.033,0.014,0.033s3.195-9.95,33.343-18.406
						c30.146-8.457,32.887-36.313,32.887-36.313V37.9c0-0.014,0.002-0.027,0.002-0.039c0-0.094,0.003-0.182,0.003-0.271H122.223
						L122.223,37.591z"/>
				</defs>
				<clipPath id="SVGID_34_">
					<use xlink:href="#SVGID_33_"  overflow="visible"/>
				</clipPath>
				
					<line clip-path="url(#SVGID_34_)" fill="none" stroke="#191818" stroke-width="2.148" stroke-miterlimit="10" x1="179.617" y1="107.491" x2="84.749" y2="107.491"/>
			</g>
			<g>
				<defs>
					<path id="SVGID_35_" d="M122.223,37.591H56.002c0,0.089,0.002,0.177,0.002,0.271v71.335c0,0,2.741,27.855,32.887,36.313
						c29.143,8.177,33.1,17.746,33.332,18.373c0.008,0.021,0.014,0.033,0.014,0.033s3.195-9.95,33.343-18.406
						c30.146-8.457,32.887-36.313,32.887-36.313V37.9c0-0.014,0.002-0.027,0.002-0.039c0-0.094,0.003-0.182,0.003-0.271H122.223
						L122.223,37.591z"/>
				</defs>
				<clipPath id="SVGID_36_">
					<use xlink:href="#SVGID_35_"  overflow="visible"/>
				</clipPath>
				<polygon clip-path="url(#SVGID_36_)" fill="#191818" points="140.148,83.581 133.202,89.727 136.703,81.139 				"/>
			</g>
			<g>
				<defs>
					<path id="SVGID_37_" d="M122.223,37.591H56.002c0,0.089,0.002,0.177,0.002,0.271v71.335c0,0,2.741,27.855,32.887,36.313
						c29.143,8.177,33.1,17.746,33.332,18.373c0.008,0.021,0.014,0.033,0.014,0.033s3.195-9.95,33.343-18.406
						c30.146-8.457,32.887-36.313,32.887-36.313V37.9c0-0.014,0.002-0.027,0.002-0.039c0-0.094,0.003-0.182,0.003-0.271H122.223
						L122.223,37.591z"/>
				</defs>
				<clipPath id="SVGID_38_">
					<use xlink:href="#SVGID_37_"  overflow="visible"/>
				</clipPath>
				<polygon clip-path="url(#SVGID_38_)" fill="#191818" points="146.686,88.238 139.738,94.383 143.239,85.795 				"/>
			</g>
			<g>
				<defs>
					<path id="SVGID_39_" d="M122.223,37.591H56.002c0,0.089,0.002,0.177,0.002,0.271v71.335c0,0,2.741,27.855,32.887,36.313
						c29.143,8.177,33.1,17.746,33.332,18.373c0.008,0.021,0.014,0.033,0.014,0.033s3.195-9.95,33.343-18.406
						c30.146-8.457,32.887-36.313,32.887-36.313V37.9c0-0.014,0.002-0.027,0.002-0.039c0-0.094,0.003-0.182,0.003-0.271H122.223
						L122.223,37.591z"/>
				</defs>
				<clipPath id="SVGID_40_">
					<use xlink:href="#SVGID_39_"  overflow="visible"/>
				</clipPath>
				<polygon clip-path="url(#SVGID_40_)" fill="#191818" points="153.221,92.896 146.275,99.04 149.775,90.452 				"/>
			</g>
			<g>
				<defs>
					<path id="SVGID_41_" d="M122.223,37.591H56.002c0,0.089,0.002,0.177,0.002,0.271v71.335c0,0,2.741,27.855,32.887,36.313
						c29.143,8.177,33.1,17.746,33.332,18.373c0.008,0.021,0.014,0.033,0.014,0.033s3.195-9.95,33.343-18.406
						c30.146-8.457,32.887-36.313,32.887-36.313V37.9c0-0.014,0.002-0.027,0.002-0.039c0-0.094,0.003-0.182,0.003-0.271H122.223
						L122.223,37.591z"/>
				</defs>
				<clipPath id="SVGID_42_">
					<use xlink:href="#SVGID_41_"  overflow="visible"/>
				</clipPath>
				<path clip-path="url(#SVGID_42_)" fill="none" stroke="#191818" stroke-width="4.296" stroke-miterlimit="10" d="
					M84.749,108.646l0.161-5.137l1.02-15.3l0.372-5.574l0.521-7.803l0.173-2.601h23.409c0-5.201,5.202-7.804,5.202-7.804
					l2.288,1.716l1.874,1.405l0.833,0.624l3.9,2.926l26.825,18.854l0.692,0.485c0,0,0.578,0.23,1.565,0.62
					c0.003,0.001,0.007,0.002,0.011,0.005c0.053,0.021,0.108,0.043,0.164,0.064c0.024,0.009,0.049,0.02,0.073,0.029
					c0.054,0.02,0.106,0.041,0.161,0.063c0.014,0.005,0.027,0.012,0.041,0.018c0.061,0.022,0.119,0.048,0.182,0.07
					c0.021,0.01,0.043,0.019,0.064,0.025c0.06,0.024,0.119,0.047,0.182,0.072c0.01,0.004,0.021,0.008,0.032,0.012
					c0.098,0.039,0.198,0.078,0.3,0.118c0.057,0.021,0.112,0.044,0.17,0.065c0.055,0.021,0.11,0.043,0.165,0.065
					c0.035,0.013,0.069,0.027,0.104,0.041c0.062,0.024,0.123,0.048,0.186,0.072c0.033,0.013,0.064,0.024,0.098,0.039
					c0.058,0.021,0.114,0.044,0.172,0.065c0.045,0.02,0.091,0.035,0.137,0.054c0.057,0.021,0.113,0.045,0.172,0.066
					c0.035,0.014,0.07,0.028,0.105,0.042c0.066,0.026,0.136,0.052,0.203,0.079c0.047,0.02,0.096,0.038,0.146,0.056
					c0.046,0.02,0.091,0.036,0.138,0.056c0.084,0.031,0.17,0.064,0.256,0.1c0.021,0.008,0.039,0.015,0.059,0.022
					c0.09,0.033,0.18,0.068,0.27,0.104c0.028,0.011,0.057,0.022,0.084,0.033c0.068,0.025,0.139,0.053,0.207,0.08
					c0.068,0.025,0.137,0.053,0.204,0.079c1.188,0.462,2.501,0.967,3.871,1.486c0.003,0.001,0.005,0.003,0.008,0.003
					c0.138,0.055,0.277,0.106,0.416,0.158c0,0,0.001,0.001,0.002,0.001c0.132,0.05,0.265,0.102,0.397,0.151l0.063,0.022
					c0.125,0.048,0.25,0.096,0.375,0.143c0.012,0.004,0.021,0.009,0.033,0.013c0.137,0.051,0.273,0.104,0.409,0.154
					c0.002,0.001,0.004,0.002,0.006,0.002c0.138,0.052,0.274,0.103,0.411,0.155c0.013,0.005,0.023,0.01,0.037,0.014
					c0.127,0.048,0.254,0.095,0.38,0.144c0.021,0.009,0.044,0.017,0.063,0.023c0.123,0.046,0.246,0.092,0.369,0.138
					c0.021,0.009,0.043,0.018,0.064,0.024l0.359,0.134c0.026,0.01,0.054,0.021,0.08,0.03c0.118,0.044,0.238,0.089,0.357,0.133
					c0.025,0.009,0.05,0.018,0.074,0.028c0.113,0.042,0.229,0.084,0.343,0.126c0.034,0.013,0.067,0.024,0.103,0.038
					c0.109,0.041,0.221,0.082,0.33,0.122c0.033,0.012,0.065,0.022,0.098,0.034c0.111,0.041,0.223,0.082,0.332,0.122l0.104,0.039
					c0.109,0.04,0.218,0.079,0.325,0.119c0.035,0.013,0.068,0.025,0.104,0.038c0.107,0.039,0.215,0.078,0.321,0.117
					c0.036,0.013,0.073,0.024,0.109,0.04c0.103,0.037,0.204,0.074,0.307,0.109c0.041,0.017,0.082,0.03,0.123,0.047
					c0.101,0.035,0.201,0.07,0.302,0.106c0.039,0.015,0.079,0.03,0.12,0.044c0.101,0.037,0.203,0.073,0.304,0.11
					c0.039,0.013,0.078,0.025,0.117,0.041c0.092,0.034,0.187,0.066,0.277,0.1c0.049,0.019,0.098,0.034,0.145,0.052
					c0.094,0.033,0.187,0.065,0.277,0.1c0.043,0.015,0.087,0.031,0.13,0.046c0.104,0.037,0.207,0.073,0.31,0.109
					c0.031,0.012,0.063,0.021,0.095,0.032c0.097,0.034,0.192,0.068,0.29,0.104c0.04,0.014,0.081,0.027,0.12,0.042
					c0.085,0.029,0.165,0.058,0.25,0.087c0.051,0.018,0.102,0.036,0.151,0.053c0.086,0.03,0.17,0.062,0.256,0.089
					c0.043,0.017,0.088,0.031,0.133,0.047c0.08,0.027,0.16,0.056,0.24,0.082c0.051,0.019,0.102,0.035,0.15,0.054
					c0.075,0.023,0.15,0.051,0.225,0.075c0.051,0.019,0.104,0.034,0.153,0.054c0.077,0.024,0.152,0.051,0.228,0.077
					c0.051,0.016,0.1,0.031,0.146,0.049c0.123,0.041,0.244,0.082,0.364,0.122c0.237,0.079,0.469,0.166,0.69,0.26
					c0.006,0.001,0.01,0.003,0.014,0.004c0.219,0.092,0.432,0.191,0.638,0.296c0.007,0.003,0.015,0.006,0.022,0.01
					c0.201,0.104,0.397,0.214,0.588,0.328c0.011,0.005,0.02,0.011,0.029,0.018c0.188,0.112,0.366,0.231,0.543,0.355
					c0.012,0.008,0.021,0.017,0.032,0.023c0.173,0.122,0.341,0.251,0.501,0.382c0.014,0.01,0.024,0.019,0.036,0.029
					c0.16,0.131,0.313,0.267,0.464,0.404c0.012,0.013,0.023,0.022,0.034,0.033c0.147,0.14,0.291,0.283,0.429,0.429
					c0.012,0.014,0.022,0.023,0.033,0.034c0.137,0.148,0.27,0.3,0.396,0.452c0.01,0.011,0.02,0.022,0.027,0.033
					c0.129,0.155,0.252,0.313,0.369,0.473c0.008,0.01,0.016,0.021,0.022,0.03c0.12,0.163,0.233,0.328,0.344,0.495
					c0.005,0.007,0.01,0.014,0.015,0.021c0.111,0.17,0.219,0.343,0.32,0.518c0.002,0.004,0.005,0.008,0.007,0.012
					c1.157,1.974,1.619,4.133,1.892,5.764v9.458H84.748L84.749,108.646L84.749,108.646z"/>
			</g>
			<g>
				<defs>
					<path id="SVGID_43_" d="M122.223,37.591H56.002c0,0.089,0.002,0.177,0.002,0.271v71.335c0,0,2.741,27.855,32.887,36.313
						c29.143,8.177,33.1,17.746,33.332,18.373c0.008,0.021,0.014,0.033,0.014,0.033s3.195-9.95,33.343-18.406
						c30.146-8.457,32.887-36.313,32.887-36.313V37.9c0-0.014,0.002-0.027,0.002-0.039c0-0.094,0.003-0.182,0.003-0.271H122.223
						L122.223,37.591z"/>
				</defs>
				<clipPath id="SVGID_44_">
					<use xlink:href="#SVGID_43_"  overflow="visible"/>
				</clipPath>
				<path clip-path="url(#SVGID_44_)" fill="#FFFFFF" d="M43.927,108.646l0.161-5.137l1.02-15.3l0.372-5.574L46,74.833l0.173-2.601
					h23.409c0-5.201,5.202-7.804,5.202-7.804l2.288,1.716l1.873,1.405l0.833,0.624l3.9,2.926l26.826,18.854l0.693,0.485
					c0,0,0.579,0.23,1.566,0.62c0.003,0.001,0.007,0.002,0.01,0.005c0.054,0.021,0.109,0.043,0.165,0.064
					c0.024,0.009,0.049,0.02,0.073,0.029c0.053,0.02,0.105,0.041,0.161,0.063c0.014,0.005,0.027,0.012,0.041,0.018
					c0.06,0.022,0.12,0.048,0.182,0.07c0.021,0.01,0.043,0.019,0.064,0.025c0.06,0.024,0.12,0.047,0.182,0.072
					c0.01,0.004,0.021,0.008,0.032,0.012c0.098,0.039,0.198,0.078,0.3,0.118c0.056,0.021,0.112,0.044,0.169,0.065
					c0.055,0.021,0.111,0.043,0.166,0.065c0.035,0.013,0.069,0.027,0.104,0.041c0.061,0.024,0.123,0.048,0.186,0.072
					c0.033,0.013,0.064,0.024,0.098,0.039c0.056,0.021,0.114,0.044,0.172,0.065c0.045,0.02,0.089,0.035,0.135,0.054
					c0.056,0.021,0.114,0.045,0.172,0.066c0.035,0.014,0.071,0.028,0.106,0.042c0.067,0.026,0.135,0.052,0.203,0.079
					c0.048,0.02,0.097,0.038,0.145,0.056c0.046,0.02,0.091,0.036,0.138,0.056c0.084,0.031,0.17,0.064,0.256,0.1
					c0.02,0.008,0.039,0.015,0.058,0.022c0.089,0.033,0.179,0.068,0.27,0.104c0.028,0.011,0.056,0.022,0.084,0.033
					c0.068,0.025,0.138,0.053,0.207,0.08c0.068,0.025,0.136,0.053,0.204,0.079c1.188,0.462,2.501,0.967,3.871,1.486
					c0.004,0.001,0.006,0.003,0.008,0.003c0.139,0.055,0.276,0.106,0.416,0.158l0.002,0.001c0.131,0.05,0.265,0.102,0.396,0.151
					c0.021,0.007,0.041,0.015,0.063,0.022c0.125,0.048,0.25,0.096,0.375,0.143c0.012,0.004,0.022,0.009,0.034,0.013
					c0.136,0.051,0.272,0.104,0.408,0.154c0.002,0.001,0.004,0.002,0.006,0.002c0.138,0.052,0.274,0.103,0.412,0.155
					c0.013,0.005,0.024,0.01,0.037,0.014c0.127,0.048,0.254,0.095,0.379,0.144c0.022,0.009,0.045,0.017,0.065,0.023
					c0.123,0.046,0.246,0.092,0.369,0.138c0.021,0.009,0.043,0.018,0.063,0.024c0.121,0.045,0.24,0.09,0.361,0.134
					c0.025,0.01,0.052,0.021,0.078,0.03c0.119,0.044,0.239,0.089,0.358,0.133c0.024,0.009,0.05,0.018,0.074,0.028
					c0.114,0.042,0.229,0.084,0.342,0.126l0.103,0.038c0.11,0.041,0.222,0.082,0.332,0.122c0.033,0.012,0.063,0.022,0.098,0.034
					c0.109,0.041,0.221,0.082,0.331,0.122c0.034,0.015,0.069,0.026,0.104,0.039c0.108,0.04,0.217,0.079,0.325,0.119
					c0.033,0.013,0.068,0.025,0.103,0.038c0.108,0.039,0.216,0.078,0.322,0.117c0.036,0.013,0.073,0.024,0.108,0.04
					c0.104,0.037,0.205,0.074,0.308,0.109c0.041,0.017,0.082,0.03,0.123,0.047c0.102,0.035,0.2,0.07,0.301,0.106
					c0.041,0.015,0.08,0.03,0.121,0.044c0.102,0.037,0.203,0.073,0.305,0.11c0.039,0.013,0.076,0.025,0.115,0.041
					c0.094,0.034,0.188,0.066,0.278,0.1c0.05,0.019,0.097,0.034,0.146,0.052c0.093,0.033,0.186,0.065,0.275,0.1
					c0.044,0.015,0.088,0.031,0.131,0.046c0.104,0.037,0.207,0.073,0.31,0.109c0.03,0.012,0.063,0.021,0.093,0.032
					c0.1,0.034,0.193,0.068,0.291,0.104c0.041,0.014,0.082,0.027,0.121,0.042c0.084,0.029,0.166,0.058,0.249,0.087
					c0.05,0.018,0.103,0.036,0.151,0.053c0.086,0.03,0.172,0.062,0.256,0.089c0.045,0.017,0.09,0.031,0.134,0.047
					c0.081,0.027,0.159,0.056,0.241,0.082c0.05,0.019,0.1,0.035,0.149,0.054c0.074,0.023,0.149,0.051,0.226,0.075
					c0.051,0.019,0.102,0.034,0.152,0.054c0.077,0.024,0.151,0.051,0.229,0.077c0.049,0.016,0.098,0.031,0.146,0.049
					c0.122,0.041,0.244,0.082,0.363,0.122c0.237,0.079,0.469,0.166,0.692,0.26c0.004,0.001,0.008,0.003,0.013,0.004
					c0.219,0.092,0.432,0.191,0.638,0.296c0.008,0.003,0.016,0.006,0.021,0.01c0.203,0.104,0.398,0.214,0.589,0.328
					c0.01,0.005,0.021,0.011,0.028,0.018c0.188,0.112,0.367,0.231,0.543,0.355c0.012,0.008,0.022,0.017,0.033,0.023
					c0.174,0.122,0.34,0.251,0.502,0.382c0.012,0.01,0.023,0.019,0.035,0.029c0.16,0.131,0.313,0.267,0.463,0.404
					c0.012,0.013,0.023,0.022,0.035,0.033c0.147,0.14,0.291,0.283,0.43,0.429c0.01,0.014,0.021,0.023,0.031,0.034
					c0.139,0.148,0.271,0.3,0.397,0.452c0.009,0.011,0.021,0.022,0.028,0.033c0.127,0.155,0.25,0.313,0.369,0.473
					c0.006,0.01,0.014,0.021,0.021,0.03c0.12,0.163,0.233,0.328,0.345,0.495c0.005,0.007,0.01,0.014,0.014,0.021
					c0.112,0.17,0.219,0.343,0.321,0.518c0.002,0.004,0.005,0.008,0.007,0.012c1.157,1.974,1.619,4.133,1.891,5.764v9.458H43.925
					v-9.452H43.927z"/>
			</g>
			<g>
				<defs>
					<path id="SVGID_45_" d="M122.223,37.591H56.002c0,0.089,0.002,0.177,0.002,0.271v71.335c0,0,2.741,27.855,32.887,36.313
						c29.143,8.177,33.1,17.746,33.332,18.373c0.008,0.021,0.014,0.033,0.014,0.033s3.195-9.95,33.343-18.406
						c30.146-8.457,32.887-36.313,32.887-36.313V37.9c0-0.014,0.002-0.027,0.002-0.039c0-0.094,0.003-0.182,0.003-0.271H122.223
						L122.223,37.591z"/>
				</defs>
				<clipPath id="SVGID_46_">
					<use xlink:href="#SVGID_45_"  overflow="visible"/>
				</clipPath>
				<path clip-path="url(#SVGID_46_)" fill="#F8D016" d="M113.356,104.269L69.947,73.337l4.507-7.193l11.639,9.148l27.282,18.479
					l0.747,0.507c0,0,2.847,1.103,6.744,2.561l0.007,0.032L113.356,104.269z"/>
			</g>
			<g>
				<defs>
					<path id="SVGID_47_" d="M122.223,37.591H56.002c0,0.089,0.002,0.177,0.002,0.271v71.335c0,0,2.741,27.855,32.887,36.313
						c29.143,8.177,33.1,17.746,33.332,18.373c0.008,0.021,0.014,0.033,0.014,0.033s3.195-9.95,33.343-18.406
						c30.146-8.457,32.887-36.313,32.887-36.313V37.9c0-0.014,0.002-0.027,0.002-0.039c0-0.094,0.003-0.182,0.003-0.271H122.223
						L122.223,37.591z"/>
				</defs>
				<clipPath id="SVGID_48_">
					<use xlink:href="#SVGID_47_"  overflow="visible"/>
				</clipPath>
				<path clip-path="url(#SVGID_48_)" fill="#F8D016" d="M111.219,91.521c0.564,0.227,13.159,5.253,20.786,7.795
					c3.854,1.284,5.804,4.472,6.789,7.368h-38.678L111.219,91.521z"/>
			</g>
			<g>
				<defs>
					<path id="SVGID_49_" d="M122.223,37.591H56.002c0,0.089,0.002,0.177,0.002,0.271v71.335c0,0,2.741,27.855,32.887,36.313
						c29.143,8.177,33.1,17.746,33.332,18.373c0.008,0.021,0.014,0.033,0.014,0.033s3.195-9.95,33.343-18.406
						c30.146-8.457,32.887-36.313,32.887-36.313V37.9c0-0.014,0.002-0.027,0.002-0.039c0-0.094,0.003-0.182,0.003-0.271H122.223
						L122.223,37.591z"/>
				</defs>
				<clipPath id="SVGID_50_">
					<use xlink:href="#SVGID_49_"  overflow="visible"/>
				</clipPath>
				<polygon clip-path="url(#SVGID_50_)" fill="#191818" points="86.253,74.268 79.307,80.413 82.808,71.824 				"/>
			</g>
			<g>
				<defs>
					<path id="SVGID_51_" d="M122.223,37.591H56.002c0,0.089,0.002,0.177,0.002,0.271v71.335c0,0,2.741,27.855,32.887,36.313
						c29.143,8.177,33.1,17.746,33.332,18.373c0.008,0.021,0.014,0.033,0.014,0.033s3.195-9.95,33.343-18.406
						c30.146-8.457,32.887-36.313,32.887-36.313V37.9c0-0.014,0.002-0.027,0.002-0.039c0-0.094,0.003-0.182,0.003-0.271H122.223
						L122.223,37.591z"/>
				</defs>
				<clipPath id="SVGID_52_">
					<use xlink:href="#SVGID_51_"  overflow="visible"/>
				</clipPath>
				<polygon clip-path="url(#SVGID_52_)" fill="#191818" points="92.789,78.925 85.843,85.069 89.344,76.481 				"/>
			</g>
			<g>
				<defs>
					<path id="SVGID_53_" d="M122.223,37.591H56.002c0,0.089,0.002,0.177,0.002,0.271v71.335c0,0,2.741,27.855,32.887,36.313
						c29.143,8.177,33.1,17.746,33.332,18.373c0.008,0.021,0.014,0.033,0.014,0.033s3.195-9.95,33.343-18.406
						c30.146-8.457,32.887-36.313,32.887-36.313V37.9c0-0.014,0.002-0.027,0.002-0.039c0-0.094,0.003-0.182,0.003-0.271H122.223
						L122.223,37.591z"/>
				</defs>
				<clipPath id="SVGID_54_">
					<use xlink:href="#SVGID_53_"  overflow="visible"/>
				</clipPath>
				
					<line clip-path="url(#SVGID_54_)" fill="none" stroke="#191818" stroke-width="2.148" stroke-miterlimit="10" x1="138.794" y1="107.491" x2="43.926" y2="107.491"/>
			</g>
			<g>
				<defs>
					<path id="SVGID_55_" d="M122.223,37.591H56.002c0,0.089,0.002,0.177,0.002,0.271v71.335c0,0,2.741,27.855,32.887,36.313
						c29.143,8.177,33.1,17.746,33.332,18.373c0.008,0.021,0.014,0.033,0.014,0.033s3.195-9.95,33.343-18.406
						c30.146-8.457,32.887-36.313,32.887-36.313V37.9c0-0.014,0.002-0.027,0.002-0.039c0-0.094,0.003-0.182,0.003-0.271H122.223
						L122.223,37.591z"/>
				</defs>
				<clipPath id="SVGID_56_">
					<use xlink:href="#SVGID_55_"  overflow="visible"/>
				</clipPath>
				<polygon clip-path="url(#SVGID_56_)" fill="#191818" points="99.325,83.581 92.379,89.727 95.88,81.139 				"/>
			</g>
			<g>
				<defs>
					<path id="SVGID_57_" d="M122.223,37.591H56.002c0,0.089,0.002,0.177,0.002,0.271v71.335c0,0,2.741,27.855,32.887,36.313
						c29.143,8.177,33.1,17.746,33.332,18.373c0.008,0.021,0.014,0.033,0.014,0.033s3.195-9.95,33.343-18.406
						c30.146-8.457,32.887-36.313,32.887-36.313V37.9c0-0.014,0.002-0.027,0.002-0.039c0-0.094,0.003-0.182,0.003-0.271H122.223
						L122.223,37.591z"/>
				</defs>
				<clipPath id="SVGID_58_">
					<use xlink:href="#SVGID_57_"  overflow="visible"/>
				</clipPath>
				<polygon clip-path="url(#SVGID_58_)" fill="#191818" points="105.862,88.238 98.916,94.383 102.417,85.795 				"/>
			</g>
			<g>
				<defs>
					<path id="SVGID_59_" d="M122.223,37.591H56.002c0,0.089,0.002,0.177,0.002,0.271v71.335c0,0,2.741,27.855,32.887,36.313
						c29.143,8.177,33.1,17.746,33.332,18.373c0.008,0.021,0.014,0.033,0.014,0.033s3.195-9.95,33.343-18.406
						c30.146-8.457,32.887-36.313,32.887-36.313V37.9c0-0.014,0.002-0.027,0.002-0.039c0-0.094,0.003-0.182,0.003-0.271H122.223
						L122.223,37.591z"/>
				</defs>
				<clipPath id="SVGID_60_">
					<use xlink:href="#SVGID_59_"  overflow="visible"/>
				</clipPath>
				<polygon clip-path="url(#SVGID_60_)" fill="#191818" points="112.398,92.896 105.452,99.04 108.953,90.452 				"/>
			</g>
			<g>
				<defs>
					<path id="SVGID_61_" d="M122.223,37.591H56.002c0,0.089,0.002,0.177,0.002,0.271v71.335c0,0,2.741,27.855,32.887,36.313
						c29.143,8.177,33.1,17.746,33.332,18.373c0.008,0.021,0.014,0.033,0.014,0.033s3.195-9.95,33.343-18.406
						c30.146-8.457,32.887-36.313,32.887-36.313V37.9c0-0.014,0.002-0.027,0.002-0.039c0-0.094,0.003-0.182,0.003-0.271H122.223
						L122.223,37.591z"/>
				</defs>
				<clipPath id="SVGID_62_">
					<use xlink:href="#SVGID_61_"  overflow="visible"/>
				</clipPath>
				<path clip-path="url(#SVGID_62_)" fill="none" stroke="#191818" stroke-width="4.296" stroke-miterlimit="10" d="
					M43.927,108.646l0.161-5.137l1.02-15.3l0.372-5.574L46,74.833l0.173-2.601h23.409c0-5.201,5.202-7.804,5.202-7.804l2.288,1.716
					l1.873,1.405l0.833,0.624l3.9,2.926l26.826,18.854l0.693,0.485c0,0,0.579,0.23,1.566,0.62c0.003,0.001,0.007,0.002,0.01,0.005
					c0.054,0.021,0.109,0.043,0.165,0.064c0.024,0.009,0.049,0.02,0.073,0.029c0.053,0.02,0.105,0.041,0.161,0.063
					c0.014,0.005,0.027,0.012,0.041,0.018c0.06,0.022,0.12,0.048,0.182,0.07c0.021,0.01,0.043,0.019,0.064,0.025
					c0.06,0.024,0.12,0.047,0.182,0.072c0.01,0.004,0.021,0.008,0.032,0.012c0.098,0.039,0.198,0.078,0.3,0.118
					c0.056,0.021,0.112,0.044,0.169,0.065c0.055,0.021,0.111,0.043,0.166,0.065c0.035,0.013,0.069,0.027,0.104,0.041
					c0.061,0.024,0.123,0.048,0.186,0.072c0.033,0.013,0.064,0.024,0.098,0.039c0.056,0.021,0.114,0.044,0.172,0.065
					c0.045,0.02,0.089,0.035,0.135,0.054c0.056,0.021,0.114,0.045,0.172,0.066c0.035,0.014,0.071,0.028,0.106,0.042
					c0.067,0.026,0.135,0.052,0.203,0.079c0.048,0.02,0.097,0.038,0.145,0.056c0.046,0.02,0.091,0.036,0.138,0.056
					c0.084,0.031,0.17,0.064,0.256,0.1c0.02,0.008,0.039,0.015,0.058,0.022c0.089,0.033,0.179,0.068,0.27,0.104
					c0.028,0.011,0.056,0.022,0.084,0.033c0.068,0.025,0.138,0.053,0.207,0.08c0.068,0.025,0.136,0.053,0.204,0.079
					c1.188,0.462,2.501,0.967,3.871,1.486c0.004,0.001,0.006,0.003,0.008,0.003c0.139,0.055,0.276,0.106,0.416,0.158l0.002,0.001
					c0.131,0.05,0.265,0.102,0.396,0.151c0.021,0.007,0.041,0.015,0.063,0.022c0.125,0.048,0.25,0.096,0.375,0.143
					c0.012,0.004,0.022,0.009,0.034,0.013c0.136,0.051,0.272,0.104,0.408,0.154c0.002,0.001,0.004,0.002,0.006,0.002
					c0.138,0.052,0.274,0.103,0.412,0.155c0.013,0.005,0.024,0.01,0.037,0.014c0.127,0.048,0.254,0.095,0.379,0.144
					c0.022,0.009,0.045,0.017,0.065,0.023c0.123,0.046,0.246,0.092,0.369,0.138c0.021,0.009,0.043,0.018,0.063,0.024
					c0.121,0.045,0.24,0.09,0.361,0.134c0.025,0.01,0.052,0.021,0.078,0.03c0.119,0.044,0.239,0.089,0.358,0.133
					c0.024,0.009,0.05,0.018,0.074,0.028c0.114,0.042,0.229,0.084,0.342,0.126l0.103,0.038c0.11,0.041,0.222,0.082,0.332,0.122
					c0.033,0.012,0.063,0.022,0.098,0.034c0.109,0.041,0.221,0.082,0.331,0.122c0.034,0.015,0.069,0.026,0.104,0.039
					c0.108,0.04,0.217,0.079,0.325,0.119c0.033,0.013,0.068,0.025,0.103,0.038c0.108,0.039,0.216,0.078,0.322,0.117
					c0.036,0.013,0.073,0.024,0.108,0.04c0.104,0.037,0.205,0.074,0.308,0.109c0.041,0.017,0.082,0.03,0.123,0.047
					c0.102,0.035,0.2,0.07,0.301,0.106c0.041,0.015,0.08,0.03,0.121,0.044c0.102,0.037,0.203,0.073,0.305,0.11
					c0.039,0.013,0.076,0.025,0.115,0.041c0.094,0.034,0.188,0.066,0.278,0.1c0.05,0.019,0.097,0.034,0.146,0.052
					c0.093,0.033,0.186,0.065,0.275,0.1c0.044,0.015,0.088,0.031,0.131,0.046c0.104,0.037,0.207,0.073,0.31,0.109
					c0.03,0.012,0.063,0.021,0.093,0.032c0.1,0.034,0.193,0.068,0.291,0.104c0.041,0.014,0.082,0.027,0.121,0.042
					c0.084,0.029,0.166,0.058,0.249,0.087c0.05,0.018,0.103,0.036,0.151,0.053c0.086,0.03,0.172,0.062,0.256,0.089
					c0.045,0.017,0.09,0.031,0.134,0.047c0.081,0.027,0.159,0.056,0.241,0.082c0.05,0.019,0.1,0.035,0.149,0.054
					c0.074,0.023,0.149,0.051,0.226,0.075c0.051,0.019,0.102,0.034,0.152,0.054c0.077,0.024,0.151,0.051,0.229,0.077
					c0.049,0.016,0.098,0.031,0.146,0.049c0.122,0.041,0.244,0.082,0.363,0.122c0.237,0.079,0.469,0.166,0.692,0.26
					c0.004,0.001,0.008,0.003,0.013,0.004c0.219,0.092,0.432,0.191,0.638,0.296c0.008,0.003,0.016,0.006,0.021,0.01
					c0.203,0.104,0.398,0.214,0.589,0.328c0.01,0.005,0.021,0.011,0.028,0.018c0.188,0.112,0.367,0.231,0.543,0.355
					c0.012,0.008,0.022,0.017,0.033,0.023c0.174,0.122,0.34,0.251,0.502,0.382c0.012,0.01,0.023,0.019,0.035,0.029
					c0.16,0.131,0.313,0.267,0.463,0.404c0.012,0.013,0.023,0.022,0.035,0.033c0.147,0.14,0.291,0.283,0.43,0.429
					c0.01,0.014,0.021,0.023,0.031,0.034c0.139,0.148,0.271,0.3,0.397,0.452c0.009,0.011,0.021,0.022,0.028,0.033
					c0.127,0.155,0.25,0.313,0.369,0.473c0.006,0.01,0.014,0.021,0.021,0.03c0.12,0.163,0.233,0.328,0.345,0.495
					c0.005,0.007,0.01,0.014,0.014,0.021c0.112,0.17,0.219,0.343,0.321,0.518c0.002,0.004,0.005,0.008,0.007,0.012
					c1.157,1.974,1.619,4.133,1.891,5.764v9.458H43.925v-9.452H43.927z"/>
			</g>
			<g>
				<defs>
					<path id="SVGID_63_" d="M122.223,37.591H56.002c0,0.089,0.002,0.177,0.002,0.271v71.335c0,0,2.741,27.855,32.887,36.313
						c29.143,8.177,33.1,17.746,33.332,18.373c0.008,0.021,0.014,0.033,0.014,0.033s3.195-9.95,33.343-18.406
						c30.146-8.457,32.887-36.313,32.887-36.313V37.9c0-0.014,0.002-0.027,0.002-0.039c0-0.094,0.003-0.182,0.003-0.271H122.223
						L122.223,37.591z"/>
				</defs>
				<clipPath id="SVGID_64_">
					<use xlink:href="#SVGID_63_"  overflow="visible"/>
				</clipPath>
				<polygon clip-path="url(#SVGID_64_)" fill="#F8D016" points="71.388,84.355 84.687,91.134 81.132,93.908 87.393,100.462 
					74.093,93.684 77.647,90.908 				"/>
			</g>
		</g>
		<path clip-path="url(#SVGID_6_)" fill="#191818" d="M183.729,12.61l3.394,5.225c-3.478,4.13-6.325,10.43-6.394,19.499v0.06v0.037
			l-0.002,0.024l-0.002,0.165v0.04v0.039v71.391c-0.393,2.728-4.037,22.62-27.06,29.079c-5.879,1.649-21.529,6.528-31.394,14.107
			c-5.686-4.469-15.25-9.594-31.343-14.107c-22.9-6.425-26.624-26.116-27.06-29.098V37.66l-0.002-0.268l-0.001-0.067
			c-0.067-9.064-2.915-15.362-6.392-19.49l3.393-5.225H88.9h23.781h9.198h33.814H183.729 M188.271,4.244h-32.576H121.88h-9.198
			H88.901H56.325L46.291,19.698c0,0,9.1,2.806,9.211,17.688c0,0.091,0.002,0.182,0.002,0.272v71.939c0,0,2.764,28.096,33.166,36.624
			c29.393,8.245,33.383,17.896,33.615,18.528c0.008,0.022,0.012,0.033,0.012,0.033s3.225-10.034,33.627-18.563
			c30.403-8.528,33.167-36.624,33.167-36.624v-71.9c0-0.014,0.001-0.025,0.001-0.039c0-0.092,0.002-0.183,0.002-0.272
			c0.111-14.884,9.211-17.688,9.211-17.688L188.271,4.244z"/>
	</g>
</g>
</svg>
