<?xml version="1.0" encoding="utf-8"?>
<!-- Generator: Adobe Illustrator 16.0.0, SVG Export Plug-In . SVG Version: 6.00 Build 0)  -->
<!DOCTYPE svg PUBLIC "-//W3C//DTD SVG 1.1//EN" "http://www.w3.org/Graphics/SVG/1.1/DTD/svg11.dtd">
<svg version="1.1" id="Layer_1" xmlns="http://www.w3.org/2000/svg" xmlns:xlink="http://www.w3.org/1999/xlink" x="0px" y="0px"
	 width="240px" height="200px" viewBox="0 0 240 200" enable-background="new 0 0 240 200" xml:space="preserve">
<path fill="#020202" d="M212.633,106.309c0.146,1.75-0.151,3.623,0.187,5.47c0.328,0.772,0.593,1.554,0.873,2.349
	c0.819,2.085,1.733,3.99,3.31,4.865c1.285-2.557,2.464-5.285,2.744-8.496c-0.084-2.1-0.509-4.063-1.249-5.928
	c-1.15-2.94-3.062-5.579-5.613-7.852c-0.082-0.08-0.143-0.109-0.186-0.171l-0.415-0.012c0.093,0.271,0.165,0.577,0.247,0.886
	C213.207,100.306,212.912,103.098,212.633,106.309"/>
<path fill="#020202" d="M212.83,124.089c-1.816-3.577-5.512-6.852-6.379-10.245l-0.531-0.223c-1.338,3.336-1.193,7.326-0.17,10.95
	c1.109,4.704,3.424,8.369,4.508,12.994c0.194,0.891,0.354,1.774,0.459,2.741c6.957-5.049,13.369-10.808,15.184-19.896l-12.194,6.13
	C213.543,125.692,213.213,124.854,212.83,124.089"/>
<path fill="#020202" d="M193.229,165.246c-0.916-0.018-1.783-0.026-2.639,0.015c3.211-4.57,2.29-10.164,4.059-15.119l-0.018-0.219
	c-5.329,2.008-8.124,6.7-10.73,11.657c-1.86,3.592-3.684,7.273-6.34,9.993c1.109,0.08,2.153,0.229,3.234,0.389
	c1.122,0.163,2.275,0.386,3.436,0.691c2.306,0.136,4.58,0.237,6.731,0.167c4.034-0.171,7.795-0.854,11.037-2.605
	c1.501-0.798,2.901-1.85,4.131-3.161c-0.948-0.153-1.991-0.342-3.028-0.523C199.837,165.975,196.402,165.404,193.229,165.246"/>
<path fill="#020202" d="M206.229,149.673c-1.496-5.036-4.274-10.122-3.864-15.641l-0.144-0.22l-0.373,0.164
	c-0.046,0.036-0.099,0.108-0.102,0.146c-0.293,0.501-0.602,0.786-1.137,1.3c-3.805,6.707-3.229,14.78-1.275,21.92
	c0.32,1.176,0.654,2.295,1.063,3.425c3.422-2.676,7.646-3.357,11.442-5.306c0.342-0.207,0.677-0.37,1.03-0.582
	c3.66-2.641,5.886-7.007,6.841-11.183c-2.373,0.757-4.7,1.368-6.876,2.186C210.488,146.728,208.227,147.87,206.229,149.673"/>
<path fill="#020202" d="M27.428,106.438c-0.24,1.74-0.044,3.627-0.482,5.45c-0.368,0.755-0.674,1.521-0.996,2.3
	c-0.932,2.036-1.947,3.891-3.568,4.681c-1.145-2.622-2.175-5.41-2.281-8.632c0.197-2.093,0.727-4.029,1.566-5.854
	c1.307-2.873,3.357-5.406,6.027-7.536c0.086-0.074,0.149-0.103,0.195-0.161l0.414,0.013c-0.107,0.267-0.195,0.565-0.294,0.871
	C27.178,100.414,27.32,103.217,27.428,106.438"/>
<path fill="#020202" d="M27.152,124.089c1.816-3.577,5.512-6.852,6.379-10.245l0.531-0.223c1.338,3.336,1.193,7.326,0.17,10.95
	c-1.109,4.704-3.424,8.369-4.508,12.994c-0.194,0.891-0.354,1.774-0.459,2.741c-6.957-5.049-13.369-10.808-15.183-19.896
	l12.194,6.13C26.439,125.692,26.77,124.854,27.152,124.089"/>
<path fill="#020202" d="M46.755,165.246c0.915-0.018,1.782-0.026,2.638,0.015c-3.211-4.57-2.29-10.164-4.059-15.119l0.018-0.219
	c5.329,2.008,8.124,6.7,10.73,11.657c1.861,3.592,3.684,7.273,6.34,9.993c-1.109,0.08-2.153,0.229-3.234,0.389
	c-1.122,0.163-2.275,0.386-3.436,0.691c-2.305,0.136-4.58,0.237-6.731,0.167c-4.034-0.171-7.795-0.854-11.037-2.605
	c-1.501-0.798-2.901-1.85-4.131-3.161c0.949-0.153,1.992-0.342,3.028-0.523C40.146,165.975,43.58,165.404,46.755,165.246"/>
<path fill="#020202" d="M33.755,149.673c1.495-5.036,4.274-10.122,3.864-15.641l0.143-0.22l0.374,0.164
	c0.045,0.036,0.098,0.108,0.101,0.146c0.293,0.501,0.602,0.786,1.137,1.3c3.805,6.707,3.229,14.78,1.275,21.92
	c-0.32,1.176-0.654,2.295-1.063,3.425c-3.422-2.676-7.645-3.357-11.442-5.306c-0.342-0.207-0.677-0.37-1.03-0.582
	c-3.66-2.641-5.886-7.007-6.841-11.183c2.373,0.757,4.7,1.368,6.876,2.186C29.494,146.728,31.757,147.87,33.755,149.673"/>
<path fill="#FFFFFF" d="M224.736,33.823c-0.313-2.897-2.678-4.153-5.253-2.79l-29.302,15.511l-27.574,14.598
	c-2.574,1.362-3.976,4.757-3.109,7.54l4.1,13.181c0.578,1.856,2.086,3.129,3.84,3.479l-2.283,0.815
	c-1.838,0.973-2.836,3.394-2.219,5.378l2.974,9.538c0.396,1.274,1.428,2.217,2.635,2.544c0,0,27.951-8.91,27.492-9.237
	c15.863-6.499,15.631-21.585,15.631-21.585c-0.152-1.415-1.014-2.344-2.131-2.478C227.484,59.317,224.736,33.823,224.736,33.823"/>
<polygon fill="#020202" points="217.305,66.124 167.418,92.341 215.608,63.124 "/>
<path fill="none" stroke="#020202" stroke-width="5.77" stroke-miterlimit="10" d="M224.736,33.823
	c-0.313-2.897-2.678-4.153-5.253-2.79l-29.302,15.511l-27.574,14.598c-2.574,1.362-3.976,4.757-3.109,7.54l4.1,13.181
	c0.578,1.856,2.086,3.129,3.84,3.479l-2.283,0.815c-1.838,0.973-2.836,3.394-2.219,5.378l2.974,9.538
	c0.396,1.274,1.428,2.217,2.635,2.544c0,0,27.951-8.91,27.492-9.237c15.863-6.499,15.631-21.585,15.631-21.585
	c-0.152-1.415-1.014-2.344-2.131-2.478C227.484,59.317,224.736,33.823,224.736,33.823z"/>
<path fill="#FFFFFF" d="M15.246,33.823c0.313-2.897,2.677-4.153,5.253-2.79l29.302,15.511l27.573,14.598
	c2.575,1.362,3.976,4.757,3.11,7.54l-4.1,13.181c-0.578,1.856-2.085,3.129-3.839,3.479l2.282,0.815
	c1.839,0.973,2.837,3.394,2.22,5.378l-2.974,9.538c-0.396,1.274-1.428,2.217-2.635,2.544c0,0-27.951-8.91-27.492-9.237
	C28.083,87.88,28.315,72.794,28.315,72.794c0.152-1.415,1.014-2.344,2.131-2.478C12.498,59.317,15.246,33.823,15.246,33.823"/>
<polygon fill="#020202" points="26.883,63.123 75.072,92.341 25.187,66.123 "/>
<path fill="none" stroke="#020202" stroke-width="5.77" stroke-miterlimit="10" d="M15.246,33.823
	c0.313-2.897,2.677-4.153,5.253-2.79l29.302,15.511l27.573,14.598c2.575,1.362,3.976,4.757,3.11,7.54l-4.1,13.181
	c-0.578,1.856-2.085,3.129-3.839,3.479l2.282,0.815c1.839,0.973,2.837,3.394,2.22,5.378l-2.974,9.538
	c-0.396,1.274-1.428,2.217-2.635,2.544c0,0-27.951-8.91-27.492-9.237C28.083,87.88,28.315,72.794,28.315,72.794
	c0.152-1.415,1.014-2.344,2.131-2.478C12.498,59.317,15.246,33.823,15.246,33.823z"/>
<path fill="#020202" d="M27.428,106.438c-0.24,1.74-0.044,3.627-0.482,5.45c-0.368,0.755-0.674,1.521-0.996,2.3
	c-0.932,2.036-1.947,3.891-3.568,4.681c-1.145-2.622-2.175-5.41-2.281-8.632c0.197-2.093,0.727-4.029,1.566-5.854
	c1.307-2.873,3.357-5.406,6.027-7.536c0.086-0.074,0.149-0.103,0.195-0.161l0.414,0.013c-0.107,0.267-0.195,0.565-0.294,0.871
	C27.178,100.414,27.32,103.217,27.428,106.438"/>
<path fill="#020202" d="M27.152,124.089c1.816-3.577,5.512-6.852,6.379-10.245l0.531-0.223c1.338,3.336,1.193,7.326,0.17,10.95
	c-1.109,4.704-3.424,8.369-4.508,12.994c-0.194,0.891-0.354,1.774-0.459,2.741c-6.957-5.049-13.369-10.808-15.183-19.896
	l12.194,6.13C26.439,125.692,26.77,124.854,27.152,124.089"/>
<path fill="#020202" d="M46.755,165.246c0.915-0.018,1.782-0.026,2.638,0.015c-3.211-4.57-2.29-10.164-4.059-15.119l0.018-0.219
	c5.329,2.008,8.124,6.7,10.73,11.657c1.861,3.592,3.684,7.273,6.34,9.993c-1.109,0.08-2.153,0.229-3.234,0.389
	c-1.122,0.163-2.275,0.386-3.436,0.691c-2.305,0.136-4.58,0.237-6.731,0.167c-4.034-0.171-7.795-0.854-11.037-2.605
	c-1.501-0.798-2.901-1.85-4.131-3.161c0.949-0.153,1.992-0.342,3.028-0.523C40.146,165.975,43.58,165.404,46.755,165.246"/>
<path fill="#020202" d="M33.755,149.673c1.495-5.036,4.274-10.122,3.864-15.641l0.143-0.22l0.374,0.164
	c0.045,0.036,0.098,0.108,0.101,0.146c0.293,0.501,0.602,0.786,1.137,1.3c3.805,6.707,3.229,14.78,1.275,21.92
	c-0.32,1.176-0.654,2.295-1.063,3.425c-3.422-2.676-7.645-3.357-11.442-5.306c-0.342-0.207-0.677-0.37-1.03-0.582
	c-3.66-2.641-5.886-7.007-6.841-11.183c2.373,0.757,4.7,1.368,6.876,2.186C29.494,146.728,31.757,147.87,33.755,149.673"/>
<path fill="#FFFFFF" d="M15.246,33.823c0.313-2.897,2.677-4.153,5.253-2.79l29.302,15.511l27.573,14.598
	c2.575,1.362,3.976,4.757,3.11,7.54l-4.1,13.181c-0.578,1.856-2.085,3.129-3.839,3.479l2.282,0.815
	c1.839,0.973,2.837,3.394,2.22,5.378l-2.974,9.538c-0.396,1.274-1.428,2.217-2.635,2.544c0,0-27.951-8.91-27.492-9.237
	C28.083,87.88,28.315,72.794,28.315,72.794c0.152-1.415,1.014-2.344,2.131-2.478C12.498,59.317,15.246,33.823,15.246,33.823"/>
<polygon fill="#020202" points="26.883,63.123 75.072,92.341 25.187,66.123 "/>
<path fill="none" stroke="#020202" stroke-width="5.77" stroke-miterlimit="10" d="M15.246,33.823
	c0.313-2.897,2.677-4.153,5.253-2.79l29.302,15.511l27.573,14.598c2.575,1.362,3.976,4.757,3.11,7.54l-4.1,13.181
	c-0.578,1.856-2.085,3.129-3.839,3.479l2.282,0.815c1.839,0.973,2.837,3.394,2.22,5.378l-2.974,9.538
	c-0.396,1.274-1.428,2.217-2.635,2.544c0,0-27.951-8.91-27.492-9.237C28.083,87.88,28.315,72.794,28.315,72.794
	c0.152-1.415,1.014-2.344,2.131-2.478C12.498,59.317,15.246,33.823,15.246,33.823z"/>
<rect x="75.139" y="131.861" fill="#020202" width="85" height="43.667"/>
<polygon fill="#020202" points="148.439,161.025 174.277,152.046 161.203,142.266 109.695,166.528 "/>
<polygon fill="#020202" points="121.695,167.528 65.001,152.046 78.074,142.266 126.195,164.028 "/>
<polygon fill="#FFFFFF" points="171.953,183.863 119.66,198.046 67.367,182.358 67.367,154.837 119.66,164.525 171.953,154.837 "/>
<polygon fill="none" stroke="#020202" stroke-width="4.515" stroke-miterlimit="10" points="171.953,183.863 119.66,196.646 
	67.367,183.863 67.367,154.837 119.66,163.62 171.953,154.837 "/>
<path fill="#FDD00F" d="M119.979,37.388H53.196c0,0.091,0.002,0.182,0.002,0.272V109.6c0,0,2.764,28.096,33.166,36.624
	c29.393,8.245,33.383,17.896,33.615,18.529c0.008,0.021,0.012,0.032,0.012,0.032s3.225-10.034,33.627-18.563
	c30.401-8.528,33.166-36.624,33.166-36.624v-71.9c0-0.014,0.002-0.025,0.002-0.039c0-0.092,0.002-0.183,0.002-0.272L119.979,37.388
	L119.979,37.388z"/>
<g opacity="0.5">
	<g>
		<g>
			<defs>
				<rect id="SVGID_1_" x="119.98" y="37.39" width="66.81" height="127.4"/>
			</defs>
			<clipPath id="SVGID_2_">
				<use xlink:href="#SVGID_1_"  overflow="visible"/>
			</clipPath>
			<path clip-path="url(#SVGID_2_)" fill="#CDA72C" d="M153.617,146.224c30.402-8.527,33.168-36.624,33.168-36.624V37.7
				c0-0.015,0-0.026,0-0.039c0-0.092,0.002-0.183,0.002-0.273h-66.809v127.366c0.008,0.022,0.012,0.034,0.012,0.034
				S123.215,154.753,153.617,146.224"/>
		</g>
	</g>
</g>
<path fill="#191818" d="M181.421,12.61l3.394,5.225c-2.297,2.726-4.316,6.396-5.444,11.188H60.613
	c-1.128-4.79-3.148-8.462-5.444-11.188l3.392-5.225h28.033h23.781h9.198h33.815H181.421 M185.965,4.244h-32.576h-33.814h-9.198
	H86.595H54.019L43.987,19.698c0,0,9.099,2.806,9.209,17.688H186.79C186.9,22.503,196,19.698,196,19.698L185.965,4.244z"/>
<g opacity="0.4">
	<g>
		<g>
			<defs>
				<rect id="SVGID_3_" x="43.98" y="4.24" width="152.02" height="160.55"/>
			</defs>
			<clipPath id="SVGID_4_">
				<use xlink:href="#SVGID_3_"  overflow="visible"/>
			</clipPath>
			<path clip-path="url(#SVGID_4_)" fill="#FFFFFF" d="M177.994,18.041c-2.643,4.355-4.93,10.604-5.003,19.229v0.005l-0.003,0.261
				l-0.002,0.082v0.082v70.951c-0.223,1.223-1.068,5.082-3.447,9.366c-4.105,7.396-10.717,12.417-19.648,14.924
				c-13.942,3.911-23.451,8.354-29.929,12.658c-6.466-4.301-15.954-8.755-29.872-12.658c-8.596-2.412-15.05-7.16-19.183-14.113
				c-2.709-4.56-3.653-8.787-3.913-10.227V37.66l-0.003-0.376c-0.065-8.624-2.356-14.881-5.003-19.243h24.605h23.781h9.198h33.815
				H177.994 M185.965,4.244h-32.576h-33.814h-9.198H86.595H54.019L43.987,19.698c0,0,9.099,2.806,9.209,17.688
				c0.001,0.091,0.003,0.182,0.003,0.272v71.939c0,0,2.764,28.096,33.166,36.624c29.393,8.245,33.383,17.896,33.615,18.528
				c0.008,0.022,0.012,0.033,0.012,0.033s3.225-10.034,33.627-18.563s33.167-36.624,33.167-36.624v-71.9
				c0-0.014,0.001-0.025,0.001-0.039c0-0.092,0.002-0.183,0.003-0.272C186.9,22.502,196,19.697,196,19.697L185.965,4.244z"/>
		</g>
	</g>
</g>
<path fill="#1A1A19" d="M195.998,19.698L185.964,4.244h-32.575h-33.816h-9.197H86.595H54.02L43.985,19.698
	c0,0,9.1,2.807,9.211,17.688v7.526h133.592v-7.526C186.898,22.505,195.998,19.698,195.998,19.698"/>
<polygon fill="#FFFFFF" points="78.659,33.386 84.68,16.857 76.371,16.857 76.371,13.306 89.257,13.306 89.257,16.105 
	83.023,33.386 "/>
<path fill="#FFFFFF" d="M97.924,33.386v-20.08h6.473c5.539,0,8.73,4.155,8.73,10.056s-3.161,10.024-8.73,10.024H97.924z
	 M109.002,23.36c0-3.975-1.565-6.503-4.605-6.503h-2.439v12.976h2.439C107.377,29.833,109.002,27.184,109.002,23.36"/>
<path fill="#FFFFFF" d="M125.829,33.386l-0.935-3.553h-6.172l-0.932,3.553h-4.365l5.96-20.08h4.879l5.961,20.08H125.829z
	 M121.824,17.551l-2.287,8.73h4.576L121.824,17.551z"/>
<polygon fill="#FFFFFF" points="134.828,33.386 134.828,25.106 128.626,13.306 133.082,13.306 136.846,21.373 140.607,13.306 
	145.063,13.306 138.861,25.106 138.861,33.386 "/>
<path fill="#FFFFFF" d="M145.032,31.158l1.985-3.103c1.114,1.234,2.86,2.139,4.849,2.139c1.776,0,2.739-0.993,2.739-2.229
	c0-3.521-8.973-2.317-8.973-9.121c0-3.162,2.469-5.871,6.624-5.871c2.438,0,4.545,0.783,6.081,2.229l-1.927,3.011
	c-1.204-1.145-2.74-1.687-4.308-1.687c-1.442,0-2.347,0.813-2.347,2.048c0,3.131,8.941,2.287,8.941,9.063
	c0,3.521-2.409,6.11-6.804,6.11C148.855,33.747,146.628,32.754,145.032,31.158"/>
<polygon fill="#1A1A19" points="97.202,185.975 97.202,173.628 94.678,176.252 92.753,174.228 97.65,169.304 100.576,169.304 
	100.576,185.975 "/>
<path fill="#1A1A19" d="M102.853,177.652c0-4.3,1.774-8.6,5.898-8.6c4.149,0,5.897,4.3,5.897,8.6c0,4.272-1.724,8.623-5.897,8.623
	C104.627,186.275,102.853,181.926,102.853,177.652 M111.25,177.652c0-3.226-0.549-5.624-2.499-5.624
	c-1.925,0-2.476,2.398-2.476,5.624c0,3.198,0.551,5.647,2.476,5.647C110.701,183.301,111.25,180.852,111.25,177.652"/>
<path fill="#1A1A19" d="M116.277,177.652c0-4.3,1.774-8.6,5.898-8.6c4.148,0,5.898,4.3,5.898,8.6c0,4.272-1.726,8.623-5.898,8.623
	C118.052,186.275,116.277,181.926,116.277,177.652 M124.675,177.652c0-3.226-0.55-5.624-2.499-5.624
	c-1.926,0-2.475,2.398-2.475,5.624c0,3.198,0.549,5.647,2.475,5.647C124.125,183.301,124.675,180.852,124.675,177.652"/>
<polygon fill="#1A1A19" points="138.75,185.975 134.9,179.451 133.727,181.301 133.727,185.975 130.377,185.975 130.377,169.304 
	133.727,169.304 133.727,176.877 138.425,169.304 142.324,169.304 137,177.152 142.699,185.975 "/>
<g>
	<g>
		<defs>
			<path id="SVGID_5_" d="M119.915,37.591h-66.22c0,0.089,0.002,0.177,0.002,0.271v71.335c0,0,2.74,27.855,32.887,36.313
				c29.145,8.177,33.102,17.746,33.331,18.373c0.008,0.021,0.012,0.033,0.012,0.033s3.198-9.95,33.345-18.406
				c30.146-8.457,32.887-36.313,32.887-36.313V37.9c0-0.014,0.003-0.027,0.003-0.039c0-0.094,0.002-0.182,0.002-0.271H119.915
				L119.915,37.591z"/>
		</defs>
		<clipPath id="SVGID_6_">
			<use xlink:href="#SVGID_5_"  overflow="visible"/>
		</clipPath>
		<g clip-path="url(#SVGID_6_)">
			<g opacity="0.5">
				<g>
					<defs>
						<rect id="SVGID_7_" x="52.37" y="104.87" width="130.771" height="27.61"/>
					</defs>
					<defs>
						<rect id="SVGID_8_" x="52.37" y="104.87" width="130.771" height="27.61"/>
					</defs>
					<defs>
						<rect id="SVGID_9_" x="52.37" y="104.87" width="130.771" height="27.61"/>
					</defs>
					<defs>
						<rect id="SVGID_10_" x="52.37" y="104.87" width="130.771" height="27.61"/>
					</defs>
					<defs>
						<rect id="SVGID_11_" x="52.37" y="104.87" width="130.771" height="27.61"/>
					</defs>
					<defs>
						<rect id="SVGID_12_" x="52.37" y="104.87" width="130.771" height="27.61"/>
					</defs>
					<defs>
						<rect id="SVGID_13_" x="52.37" y="104.87" width="130.771" height="27.61"/>
					</defs>
					<defs>
						<rect id="SVGID_14_" x="52.37" y="104.87" width="130.771" height="27.61"/>
					</defs>
					<clipPath id="SVGID_15_">
						<use xlink:href="#SVGID_7_"  overflow="visible"/>
					</clipPath>
					<clipPath id="SVGID_16_" clip-path="url(#SVGID_15_)">
						<use xlink:href="#SVGID_8_"  overflow="visible"/>
					</clipPath>
					<clipPath id="SVGID_17_" clip-path="url(#SVGID_16_)">
						<use xlink:href="#SVGID_9_"  overflow="visible"/>
					</clipPath>
					<clipPath id="SVGID_18_" clip-path="url(#SVGID_17_)">
						<use xlink:href="#SVGID_10_"  overflow="visible"/>
					</clipPath>
					<clipPath id="SVGID_19_" clip-path="url(#SVGID_18_)">
						<use xlink:href="#SVGID_11_"  overflow="visible"/>
					</clipPath>
					<clipPath id="SVGID_20_" clip-path="url(#SVGID_19_)">
						<use xlink:href="#SVGID_12_"  overflow="visible"/>
					</clipPath>
					<clipPath id="SVGID_21_" clip-path="url(#SVGID_20_)">
						<use xlink:href="#SVGID_13_"  overflow="visible"/>
					</clipPath>
					<clipPath id="SVGID_22_" clip-path="url(#SVGID_21_)">
						<use xlink:href="#SVGID_14_"  overflow="visible"/>
					</clipPath>
					<path clip-path="url(#SVGID_22_)" fill="#CDA72C" d="M169.134,104.87c0,0-9.745,8.382-7.763,7.194c0,0-1.287,7.67-7.59,7.4
						c-6.303-0.267-8.127,9.171-7.883,11.126c0,0,3.949-4.619,10.467-2.967c6.516,1.654,10.057-2.413,10.936-3.702
						c0,0-2.33,7.688-6.85,8.27c0,0,11.193,2.166,15.59-5.347c4.395-7.514,6.611-16.359,7.084-17.154
						C183.596,108.896,169.134,104.87,169.134,104.87"/>
					<path clip-path="url(#SVGID_22_)" fill="#CDA72C" d="M156.311,126.278c0,0-7.975,1.536-6.608,1.02c0,0-4.304-2.372-6.644,0.854
						c-2.341,3.226-7.729,0.425-8.602-0.463c0,0,3.837-0.145,5.576-4.021c1.738-3.875,5.141-4.033,6.123-3.961
						c0,0-4.719-1.863-6.781,0.146c0,0,3.32-6.393,8.766-5.619c5.444,0.771,10.695,3.145,11.273,3.224
						S156.311,126.278,156.311,126.278"/>
					<path clip-path="url(#SVGID_22_)" fill="#CDA72C" d="M136.799,104.87c0,0-9.746,8.382-7.763,7.194c0,0-1.288,7.67-7.591,7.4
						c-6.303-0.267-8.125,9.171-7.881,11.126c0,0,3.949-4.619,10.465-2.967c6.517,1.654,10.058-2.413,10.936-3.702
						c0,0-2.33,7.688-6.849,8.27c0,0,11.194,2.166,15.589-5.347c4.395-7.514,6.613-16.359,7.084-17.154
						C151.26,108.896,136.799,104.87,136.799,104.87"/>
					<path clip-path="url(#SVGID_22_)" fill="#CDA72C" d="M123.977,126.278c0,0-7.977,1.536-6.608,1.02c0,0-4.303-2.372-6.645,0.854
						c-2.34,3.226-7.729,0.425-8.602-0.463c0,0,3.838-0.145,5.576-4.021c1.738-3.875,5.143-4.033,6.125-3.961
						c0,0-4.721-1.863-6.781,0.146c0,0,3.319-6.393,8.764-5.619c5.445,0.771,10.695,3.145,11.274,3.224
						C127.657,117.537,123.977,126.278,123.977,126.278"/>
					<path clip-path="url(#SVGID_22_)" fill="#CDA72C" d="M111.428,104.87c0,0-9.745,8.382-7.764,7.194c0,0-1.287,7.67-7.59,7.4
						c-6.303-0.267-8.125,9.171-7.882,11.126c0,0,3.95-4.619,10.466-2.967c6.518,1.654,10.059-2.413,10.937-3.702
						c0,0-2.331,7.688-6.849,8.27c0,0,11.193,2.166,15.588-5.347c4.396-7.514,6.613-16.359,7.084-17.154
						C125.891,108.896,111.428,104.87,111.428,104.87"/>
					<path clip-path="url(#SVGID_22_)" fill="#CDA72C" d="M98.605,126.278c0,0-7.976,1.536-6.609,1.02c0,0-4.303-2.372-6.644,0.854
						c-2.341,3.226-7.729,0.425-8.602-0.463c0,0,3.837-0.145,5.575-4.021c1.738-3.875,5.142-4.033,6.125-3.961
						c0,0-4.721-1.863-6.782,0.146c0,0,3.321-6.393,8.766-5.619c5.444,0.771,10.695,3.145,11.274,3.224
						S98.605,126.278,98.605,126.278"/>
					<path clip-path="url(#SVGID_22_)" fill="#CDA72C" d="M87.052,104.87c0,0-9.745,8.382-7.763,7.194c0,0-1.287,7.67-7.59,7.4
						c-6.303-0.267-8.127,9.171-7.882,11.126c0,0,3.949-4.619,10.466-2.967c6.516,1.654,10.057-2.413,10.936-3.702
						c0,0-2.33,7.688-6.85,8.27c0,0,11.194,2.166,15.59-5.347c4.395-7.514,6.612-16.359,7.084-17.154
						C101.514,108.896,87.052,104.87,87.052,104.87"/>
					<path clip-path="url(#SVGID_22_)" fill="#CDA72C" d="M74.229,126.278c0,0-7.975,1.536-6.607,1.02c0,0-4.303-2.372-6.645,0.854
						c-2.341,3.226-7.73,0.425-8.602-0.463c0,0,3.837-0.145,5.576-4.021c1.738-3.875,5.142-4.033,6.125-3.961
						c0,0-4.721-1.863-6.782,0.146c0,0,3.319-6.393,8.765-5.619c5.444,0.771,10.695,3.145,11.273,3.224
						S74.229,126.278,74.229,126.278"/>
				</g>
			</g>
			<g>
				<defs>
					<path id="SVGID_23_" d="M119.915,37.591h-66.22c0,0.089,0.002,0.177,0.002,0.271v71.335c0,0,2.74,27.855,32.887,36.313
						c29.145,8.177,33.102,17.746,33.331,18.373c0.008,0.021,0.012,0.033,0.012,0.033s3.198-9.95,33.345-18.406
						c30.146-8.457,32.887-36.313,32.887-36.313V37.9c0-0.014,0.003-0.027,0.003-0.039c0-0.094,0.002-0.182,0.002-0.271H119.915
						L119.915,37.591z"/>
				</defs>
				<clipPath id="SVGID_24_">
					<use xlink:href="#SVGID_23_"  overflow="visible"/>
				</clipPath>
				<path clip-path="url(#SVGID_24_)" fill="#FFFFFF" d="M82.442,108.646l0.161-5.137l1.02-15.3l0.372-5.574l0.521-7.803
					l0.172-2.601h23.41c0-5.201,5.201-7.804,5.201-7.804l2.289,1.716l1.873,1.405l0.832,0.624l3.9,2.926l26.826,18.854l0.692,0.485
					c0,0,0.579,0.23,1.565,0.62c0.002,0.001,0.007,0.002,0.01,0.005c0.054,0.021,0.107,0.043,0.165,0.064
					c0.022,0.009,0.049,0.02,0.073,0.029c0.053,0.02,0.105,0.041,0.16,0.063c0.015,0.005,0.027,0.012,0.041,0.018
					c0.061,0.022,0.119,0.048,0.183,0.07c0.021,0.01,0.043,0.019,0.063,0.025c0.061,0.024,0.119,0.047,0.182,0.072
					c0.012,0.004,0.021,0.008,0.031,0.012c0.1,0.039,0.199,0.078,0.301,0.118c0.058,0.021,0.111,0.044,0.17,0.065
					c0.055,0.021,0.109,0.043,0.166,0.065c0.033,0.013,0.068,0.027,0.104,0.041c0.063,0.024,0.123,0.048,0.186,0.072
					c0.033,0.013,0.064,0.024,0.099,0.039c0.058,0.021,0.114,0.044,0.172,0.065c0.045,0.02,0.091,0.035,0.136,0.054
					c0.058,0.021,0.114,0.045,0.172,0.066c0.035,0.014,0.071,0.028,0.105,0.042c0.066,0.026,0.137,0.052,0.204,0.079
					c0.047,0.02,0.097,0.038,0.146,0.056c0.045,0.02,0.09,0.036,0.138,0.056c0.084,0.031,0.17,0.064,0.257,0.1
					c0.02,0.008,0.038,0.015,0.057,0.022c0.09,0.033,0.18,0.068,0.271,0.104c0.026,0.011,0.056,0.022,0.084,0.033
					c0.067,0.025,0.138,0.053,0.207,0.08c0.067,0.025,0.136,0.053,0.204,0.079c1.188,0.462,2.5,0.967,3.869,1.486
					c0.004,0.001,0.006,0.003,0.01,0.003c0.138,0.055,0.275,0.106,0.416,0.158c0,0,0.001,0.001,0.002,0.001
					c0.132,0.05,0.264,0.102,0.396,0.151c0.021,0.007,0.041,0.015,0.063,0.022c0.125,0.048,0.25,0.096,0.375,0.143
					c0.012,0.004,0.021,0.009,0.033,0.013c0.137,0.051,0.273,0.104,0.41,0.154c0.002,0.001,0.004,0.002,0.006,0.002
					c0.137,0.052,0.273,0.103,0.41,0.155c0.013,0.005,0.024,0.01,0.037,0.014c0.127,0.048,0.254,0.095,0.381,0.144
					c0.021,0.009,0.043,0.017,0.064,0.023c0.122,0.046,0.245,0.092,0.368,0.138c0.021,0.009,0.043,0.018,0.065,0.024l0.358,0.134
					c0.026,0.01,0.054,0.021,0.079,0.03c0.119,0.044,0.238,0.089,0.357,0.133c0.025,0.009,0.051,0.018,0.074,0.028
					c0.114,0.042,0.229,0.084,0.342,0.126c0.035,0.013,0.068,0.024,0.104,0.038c0.109,0.041,0.223,0.082,0.331,0.122
					c0.033,0.012,0.065,0.022,0.099,0.034c0.11,0.041,0.221,0.082,0.332,0.122c0.033,0.015,0.068,0.026,0.104,0.039
					c0.107,0.04,0.217,0.079,0.324,0.119c0.035,0.013,0.068,0.025,0.104,0.038c0.106,0.039,0.215,0.078,0.321,0.117
					c0.035,0.013,0.072,0.024,0.107,0.04c0.104,0.037,0.205,0.074,0.309,0.109c0.041,0.017,0.082,0.03,0.123,0.047
					c0.101,0.035,0.199,0.07,0.301,0.106c0.04,0.015,0.08,0.03,0.121,0.044c0.102,0.037,0.203,0.073,0.304,0.11
					c0.039,0.013,0.077,0.025,0.116,0.041c0.093,0.034,0.188,0.066,0.277,0.1c0.05,0.019,0.098,0.034,0.146,0.052
					c0.094,0.033,0.186,0.065,0.275,0.1c0.044,0.015,0.088,0.031,0.131,0.046c0.104,0.037,0.207,0.073,0.311,0.109
					c0.029,0.012,0.062,0.021,0.094,0.032c0.097,0.034,0.192,0.068,0.289,0.104c0.041,0.014,0.082,0.027,0.121,0.042
					c0.084,0.029,0.166,0.058,0.25,0.087c0.051,0.018,0.102,0.036,0.15,0.053c0.086,0.03,0.171,0.062,0.257,0.089
					c0.043,0.017,0.089,0.031,0.134,0.047c0.08,0.027,0.159,0.056,0.239,0.082c0.052,0.019,0.101,0.035,0.149,0.054
					c0.076,0.023,0.15,0.051,0.226,0.075c0.052,0.019,0.104,0.034,0.153,0.054c0.076,0.024,0.152,0.051,0.229,0.077
					c0.049,0.016,0.098,0.031,0.146,0.049c0.122,0.041,0.243,0.082,0.362,0.122c0.238,0.079,0.47,0.166,0.692,0.26
					c0.005,0.001,0.009,0.003,0.013,0.004c0.219,0.092,0.433,0.191,0.639,0.296c0.008,0.003,0.015,0.006,0.021,0.01
					c0.202,0.104,0.398,0.214,0.588,0.328c0.01,0.005,0.021,0.011,0.029,0.018c0.188,0.112,0.368,0.231,0.543,0.355
					c0.012,0.008,0.021,0.017,0.033,0.023c0.173,0.122,0.34,0.251,0.502,0.382c0.012,0.01,0.023,0.019,0.035,0.029
					c0.16,0.131,0.314,0.267,0.463,0.404c0.012,0.013,0.023,0.022,0.035,0.033c0.148,0.14,0.291,0.283,0.429,0.429
					c0.011,0.014,0.022,0.023,0.032,0.034c0.138,0.148,0.27,0.3,0.398,0.452c0.008,0.011,0.019,0.022,0.026,0.033
					c0.128,0.155,0.251,0.313,0.369,0.473c0.008,0.01,0.016,0.021,0.021,0.03c0.121,0.163,0.234,0.328,0.346,0.495
					c0.005,0.007,0.01,0.014,0.015,0.021c0.11,0.17,0.22,0.343,0.319,0.518c0.003,0.004,0.006,0.008,0.008,0.012
					c1.156,1.974,1.619,4.133,1.893,5.764v9.458H82.44v-9.452H82.442z"/>
			</g>
			<g>
				<defs>
					<path id="SVGID_25_" d="M119.915,37.591h-66.22c0,0.089,0.002,0.177,0.002,0.271v71.335c0,0,2.74,27.855,32.887,36.313
						c29.145,8.177,33.102,17.746,33.331,18.373c0.008,0.021,0.012,0.033,0.012,0.033s3.198-9.95,33.345-18.406
						c30.146-8.457,32.887-36.313,32.887-36.313V37.9c0-0.014,0.003-0.027,0.003-0.039c0-0.094,0.002-0.182,0.002-0.271H119.915
						L119.915,37.591z"/>
				</defs>
				<clipPath id="SVGID_26_">
					<use xlink:href="#SVGID_25_"  overflow="visible"/>
				</clipPath>
				<path clip-path="url(#SVGID_26_)" fill="#F8D016" d="M151.872,104.269l-43.409-30.932l4.507-7.193l11.639,9.148l27.281,18.479
					l0.748,0.507c0,0,2.846,1.103,6.742,2.561l0.008,0.032L151.872,104.269z"/>
			</g>
			<g>
				<defs>
					<path id="SVGID_27_" d="M119.915,37.591h-66.22c0,0.089,0.002,0.177,0.002,0.271v71.335c0,0,2.74,27.855,32.887,36.313
						c29.145,8.177,33.102,17.746,33.331,18.373c0.008,0.021,0.012,0.033,0.012,0.033s3.198-9.95,33.345-18.406
						c30.146-8.457,32.887-36.313,32.887-36.313V37.9c0-0.014,0.003-0.027,0.003-0.039c0-0.094,0.002-0.182,0.002-0.271H119.915
						L119.915,37.591z"/>
				</defs>
				<clipPath id="SVGID_28_">
					<use xlink:href="#SVGID_27_"  overflow="visible"/>
				</clipPath>
				<path clip-path="url(#SVGID_28_)" fill="#F8D016" d="M149.734,91.522c0.563,0.225,13.158,5.252,20.785,7.794
					c3.854,1.284,5.805,4.472,6.789,7.368h-38.678L149.734,91.522z"/>
			</g>
			<g>
				<defs>
					<path id="SVGID_29_" d="M119.915,37.591h-66.22c0,0.089,0.002,0.177,0.002,0.271v71.335c0,0,2.74,27.855,32.887,36.313
						c29.145,8.177,33.102,17.746,33.331,18.373c0.008,0.021,0.012,0.033,0.012,0.033s3.198-9.95,33.345-18.406
						c30.146-8.457,32.887-36.313,32.887-36.313V37.9c0-0.014,0.003-0.027,0.003-0.039c0-0.094,0.002-0.182,0.002-0.271H119.915
						L119.915,37.591z"/>
				</defs>
				<clipPath id="SVGID_30_">
					<use xlink:href="#SVGID_29_"  overflow="visible"/>
				</clipPath>
				<polygon clip-path="url(#SVGID_30_)" fill="#191818" points="124.77,74.268 117.822,80.413 121.323,71.824 				"/>
			</g>
			<g>
				<defs>
					<path id="SVGID_31_" d="M119.915,37.591h-66.22c0,0.089,0.002,0.177,0.002,0.271v71.335c0,0,2.74,27.855,32.887,36.313
						c29.145,8.177,33.102,17.746,33.331,18.373c0.008,0.021,0.012,0.033,0.012,0.033s3.198-9.95,33.345-18.406
						c30.146-8.457,32.887-36.313,32.887-36.313V37.9c0-0.014,0.003-0.027,0.003-0.039c0-0.094,0.002-0.182,0.002-0.271H119.915
						L119.915,37.591z"/>
				</defs>
				<clipPath id="SVGID_32_">
					<use xlink:href="#SVGID_31_"  overflow="visible"/>
				</clipPath>
				<polygon clip-path="url(#SVGID_32_)" fill="#191818" points="131.305,78.925 124.359,85.069 127.859,76.481 				"/>
			</g>
			<g>
				<defs>
					<path id="SVGID_33_" d="M119.915,37.591h-66.22c0,0.089,0.002,0.177,0.002,0.271v71.335c0,0,2.74,27.855,32.887,36.313
						c29.145,8.177,33.102,17.746,33.331,18.373c0.008,0.021,0.012,0.033,0.012,0.033s3.198-9.95,33.345-18.406
						c30.146-8.457,32.887-36.313,32.887-36.313V37.9c0-0.014,0.003-0.027,0.003-0.039c0-0.094,0.002-0.182,0.002-0.271H119.915
						L119.915,37.591z"/>
				</defs>
				<clipPath id="SVGID_34_">
					<use xlink:href="#SVGID_33_"  overflow="visible"/>
				</clipPath>
				
					<line clip-path="url(#SVGID_34_)" fill="none" stroke="#191818" stroke-width="2.148" stroke-miterlimit="10" x1="177.311" y1="107.491" x2="82.441" y2="107.491"/>
			</g>
			<g>
				<defs>
					<path id="SVGID_35_" d="M119.915,37.591h-66.22c0,0.089,0.002,0.177,0.002,0.271v71.335c0,0,2.74,27.855,32.887,36.313
						c29.145,8.177,33.102,17.746,33.331,18.373c0.008,0.021,0.012,0.033,0.012,0.033s3.198-9.95,33.345-18.406
						c30.146-8.457,32.887-36.313,32.887-36.313V37.9c0-0.014,0.003-0.027,0.003-0.039c0-0.094,0.002-0.182,0.002-0.271H119.915
						L119.915,37.591z"/>
				</defs>
				<clipPath id="SVGID_36_">
					<use xlink:href="#SVGID_35_"  overflow="visible"/>
				</clipPath>
				<polygon clip-path="url(#SVGID_36_)" fill="#191818" points="137.842,83.581 130.895,89.727 134.396,81.139 				"/>
			</g>
			<g>
				<defs>
					<path id="SVGID_37_" d="M119.915,37.591h-66.22c0,0.089,0.002,0.177,0.002,0.271v71.335c0,0,2.74,27.855,32.887,36.313
						c29.145,8.177,33.102,17.746,33.331,18.373c0.008,0.021,0.012,0.033,0.012,0.033s3.198-9.95,33.345-18.406
						c30.146-8.457,32.887-36.313,32.887-36.313V37.9c0-0.014,0.003-0.027,0.003-0.039c0-0.094,0.002-0.182,0.002-0.271H119.915
						L119.915,37.591z"/>
				</defs>
				<clipPath id="SVGID_38_">
					<use xlink:href="#SVGID_37_"  overflow="visible"/>
				</clipPath>
				<polygon clip-path="url(#SVGID_38_)" fill="#191818" points="144.378,88.238 137.432,94.383 140.934,85.795 				"/>
			</g>
			<g>
				<defs>
					<path id="SVGID_39_" d="M119.915,37.591h-66.22c0,0.089,0.002,0.177,0.002,0.271v71.335c0,0,2.74,27.855,32.887,36.313
						c29.145,8.177,33.102,17.746,33.331,18.373c0.008,0.021,0.012,0.033,0.012,0.033s3.198-9.95,33.345-18.406
						c30.146-8.457,32.887-36.313,32.887-36.313V37.9c0-0.014,0.003-0.027,0.003-0.039c0-0.094,0.002-0.182,0.002-0.271H119.915
						L119.915,37.591z"/>
				</defs>
				<clipPath id="SVGID_40_">
					<use xlink:href="#SVGID_39_"  overflow="visible"/>
				</clipPath>
				<polygon clip-path="url(#SVGID_40_)" fill="#191818" points="150.914,92.896 143.968,99.04 147.469,90.452 				"/>
			</g>
			<g>
				<defs>
					<path id="SVGID_41_" d="M119.915,37.591h-66.22c0,0.089,0.002,0.177,0.002,0.271v71.335c0,0,2.74,27.855,32.887,36.313
						c29.145,8.177,33.102,17.746,33.331,18.373c0.008,0.021,0.012,0.033,0.012,0.033s3.198-9.95,33.345-18.406
						c30.146-8.457,32.887-36.313,32.887-36.313V37.9c0-0.014,0.003-0.027,0.003-0.039c0-0.094,0.002-0.182,0.002-0.271H119.915
						L119.915,37.591z"/>
				</defs>
				<clipPath id="SVGID_42_">
					<use xlink:href="#SVGID_41_"  overflow="visible"/>
				</clipPath>
				<path clip-path="url(#SVGID_42_)" fill="none" stroke="#191818" stroke-width="4.296" stroke-miterlimit="10" d="
					M82.442,108.646l0.161-5.137l1.02-15.3l0.372-5.574l0.521-7.803l0.172-2.601h23.41c0-5.201,5.201-7.804,5.201-7.804l2.289,1.716
					l1.873,1.405l0.832,0.624l3.9,2.926l26.826,18.854l0.692,0.485c0,0,0.579,0.23,1.565,0.62c0.002,0.001,0.007,0.002,0.01,0.005
					c0.054,0.021,0.107,0.043,0.165,0.064c0.022,0.009,0.049,0.02,0.073,0.029c0.053,0.02,0.105,0.041,0.16,0.063
					c0.015,0.005,0.027,0.012,0.041,0.018c0.061,0.022,0.119,0.048,0.183,0.07c0.021,0.01,0.043,0.019,0.063,0.025
					c0.061,0.024,0.119,0.047,0.182,0.072c0.012,0.004,0.021,0.008,0.031,0.012c0.1,0.039,0.199,0.078,0.301,0.118
					c0.058,0.021,0.111,0.044,0.17,0.065c0.055,0.021,0.109,0.043,0.166,0.065c0.033,0.013,0.068,0.027,0.104,0.041
					c0.063,0.024,0.123,0.048,0.186,0.072c0.033,0.013,0.064,0.024,0.099,0.039c0.058,0.021,0.114,0.044,0.172,0.065
					c0.045,0.02,0.091,0.035,0.136,0.054c0.058,0.021,0.114,0.045,0.172,0.066c0.035,0.014,0.071,0.028,0.105,0.042
					c0.066,0.026,0.137,0.052,0.204,0.079c0.047,0.02,0.097,0.038,0.146,0.056c0.045,0.02,0.09,0.036,0.138,0.056
					c0.084,0.031,0.17,0.064,0.257,0.1c0.02,0.008,0.038,0.015,0.057,0.022c0.09,0.033,0.18,0.068,0.271,0.104
					c0.026,0.011,0.056,0.022,0.084,0.033c0.067,0.025,0.138,0.053,0.207,0.08c0.067,0.025,0.136,0.053,0.204,0.079
					c1.188,0.462,2.5,0.967,3.869,1.486c0.004,0.001,0.006,0.003,0.01,0.003c0.138,0.055,0.275,0.106,0.416,0.158
					c0,0,0.001,0.001,0.002,0.001c0.132,0.05,0.264,0.102,0.396,0.151c0.021,0.007,0.041,0.015,0.063,0.022
					c0.125,0.048,0.25,0.096,0.375,0.143c0.012,0.004,0.021,0.009,0.033,0.013c0.137,0.051,0.273,0.104,0.41,0.154
					c0.002,0.001,0.004,0.002,0.006,0.002c0.137,0.052,0.273,0.103,0.41,0.155c0.013,0.005,0.024,0.01,0.037,0.014
					c0.127,0.048,0.254,0.095,0.381,0.144c0.021,0.009,0.043,0.017,0.064,0.023c0.122,0.046,0.245,0.092,0.368,0.138
					c0.021,0.009,0.043,0.018,0.065,0.024l0.358,0.134c0.026,0.01,0.054,0.021,0.079,0.03c0.119,0.044,0.238,0.089,0.357,0.133
					c0.025,0.009,0.051,0.018,0.074,0.028c0.114,0.042,0.229,0.084,0.342,0.126c0.035,0.013,0.068,0.024,0.104,0.038
					c0.109,0.041,0.223,0.082,0.331,0.122c0.033,0.012,0.065,0.022,0.099,0.034c0.11,0.041,0.221,0.082,0.332,0.122
					c0.033,0.015,0.068,0.026,0.104,0.039c0.107,0.04,0.217,0.079,0.324,0.119c0.035,0.013,0.068,0.025,0.104,0.038
					c0.106,0.039,0.215,0.078,0.321,0.117c0.035,0.013,0.072,0.024,0.107,0.04c0.104,0.037,0.205,0.074,0.309,0.109
					c0.041,0.017,0.082,0.03,0.123,0.047c0.101,0.035,0.199,0.07,0.301,0.106c0.04,0.015,0.08,0.03,0.121,0.044
					c0.102,0.037,0.203,0.073,0.304,0.11c0.039,0.013,0.077,0.025,0.116,0.041c0.093,0.034,0.188,0.066,0.277,0.1
					c0.05,0.019,0.098,0.034,0.146,0.052c0.094,0.033,0.186,0.065,0.275,0.1c0.044,0.015,0.088,0.031,0.131,0.046
					c0.104,0.037,0.207,0.073,0.311,0.109c0.029,0.012,0.062,0.021,0.094,0.032c0.097,0.034,0.192,0.068,0.289,0.104
					c0.041,0.014,0.082,0.027,0.121,0.042c0.084,0.029,0.166,0.058,0.25,0.087c0.051,0.018,0.102,0.036,0.15,0.053
					c0.086,0.03,0.171,0.062,0.257,0.089c0.043,0.017,0.089,0.031,0.134,0.047c0.08,0.027,0.159,0.056,0.239,0.082
					c0.052,0.019,0.101,0.035,0.149,0.054c0.076,0.023,0.15,0.051,0.226,0.075c0.052,0.019,0.104,0.034,0.153,0.054
					c0.076,0.024,0.152,0.051,0.229,0.077c0.049,0.016,0.098,0.031,0.146,0.049c0.122,0.041,0.243,0.082,0.362,0.122
					c0.238,0.079,0.47,0.166,0.692,0.26c0.005,0.001,0.009,0.003,0.013,0.004c0.219,0.092,0.433,0.191,0.639,0.296
					c0.008,0.003,0.015,0.006,0.021,0.01c0.202,0.104,0.398,0.214,0.588,0.328c0.01,0.005,0.021,0.011,0.029,0.018
					c0.188,0.112,0.368,0.231,0.543,0.355c0.012,0.008,0.021,0.017,0.033,0.023c0.173,0.122,0.34,0.251,0.502,0.382
					c0.012,0.01,0.023,0.019,0.035,0.029c0.16,0.131,0.314,0.267,0.463,0.404c0.012,0.013,0.023,0.022,0.035,0.033
					c0.148,0.14,0.291,0.283,0.429,0.429c0.011,0.014,0.022,0.023,0.032,0.034c0.138,0.148,0.27,0.3,0.398,0.452
					c0.008,0.011,0.019,0.022,0.026,0.033c0.128,0.155,0.251,0.313,0.369,0.473c0.008,0.01,0.016,0.021,0.021,0.03
					c0.121,0.163,0.234,0.328,0.346,0.495c0.005,0.007,0.01,0.014,0.015,0.021c0.11,0.17,0.22,0.343,0.319,0.518
					c0.003,0.004,0.006,0.008,0.008,0.012c1.156,1.974,1.619,4.133,1.893,5.764v9.458H82.44v-9.452H82.442z"/>
			</g>
			<g>
				<defs>
					<path id="SVGID_43_" d="M119.915,37.591h-66.22c0,0.089,0.002,0.177,0.002,0.271v71.335c0,0,2.74,27.855,32.887,36.313
						c29.145,8.177,33.102,17.746,33.331,18.373c0.008,0.021,0.012,0.033,0.012,0.033s3.198-9.95,33.345-18.406
						c30.146-8.457,32.887-36.313,32.887-36.313V37.9c0-0.014,0.003-0.027,0.003-0.039c0-0.094,0.002-0.182,0.002-0.271H119.915
						L119.915,37.591z"/>
				</defs>
				<clipPath id="SVGID_44_">
					<use xlink:href="#SVGID_43_"  overflow="visible"/>
				</clipPath>
				<path clip-path="url(#SVGID_44_)" fill="#FFFFFF" d="M41.619,108.646l0.161-5.137l1.021-15.3l0,0l0.371-5.574l0.521-7.803
					l0.174-2.601h23.408c0-5.201,5.202-7.804,5.202-7.804l2.289,1.716l1.873,1.405l0.832,0.624l3.9,2.926l26.825,18.854l0.694,0.485
					c0,0,0.578,0.23,1.564,0.62c0.004,0.001,0.008,0.002,0.012,0.005c0.053,0.021,0.107,0.043,0.164,0.064
					c0.023,0.009,0.049,0.02,0.074,0.029c0.051,0.02,0.104,0.041,0.159,0.063c0.015,0.005,0.028,0.012,0.042,0.018
					c0.059,0.022,0.12,0.048,0.182,0.07c0.021,0.01,0.043,0.019,0.064,0.025c0.059,0.024,0.119,0.047,0.182,0.072
					c0.01,0.004,0.021,0.008,0.031,0.012c0.098,0.039,0.198,0.078,0.301,0.118c0.057,0.021,0.111,0.044,0.17,0.065
					c0.053,0.021,0.109,0.043,0.164,0.065c0.037,0.013,0.07,0.027,0.105,0.041c0.061,0.024,0.123,0.048,0.186,0.072
					c0.032,0.013,0.064,0.024,0.098,0.039c0.057,0.021,0.113,0.044,0.172,0.065c0.045,0.02,0.09,0.035,0.135,0.054
					c0.057,0.021,0.114,0.045,0.172,0.066c0.035,0.014,0.071,0.028,0.105,0.042c0.068,0.026,0.136,0.052,0.205,0.079
					c0.047,0.02,0.096,0.038,0.144,0.056c0.046,0.02,0.091,0.036,0.138,0.056c0.086,0.031,0.17,0.064,0.258,0.1
					c0.019,0.008,0.037,0.015,0.057,0.022c0.089,0.033,0.179,0.068,0.27,0.104c0.028,0.011,0.055,0.022,0.084,0.033
					c0.068,0.025,0.137,0.053,0.207,0.08c0.067,0.025,0.135,0.053,0.203,0.079c1.189,0.462,2.502,0.967,3.872,1.486
					c0.003,0.001,0.005,0.003,0.007,0.003c0.139,0.055,0.277,0.106,0.416,0.158l0.002,0.001c0.133,0.05,0.264,0.102,0.397,0.151
					c0.021,0.007,0.041,0.015,0.062,0.022c0.125,0.048,0.25,0.096,0.377,0.143l0.032,0.013c0.136,0.051,0.273,0.104,0.41,0.154
					c0.002,0.001,0.004,0.002,0.006,0.002c0.136,0.052,0.273,0.103,0.41,0.155c0.013,0.005,0.025,0.01,0.037,0.014
					c0.127,0.048,0.254,0.095,0.381,0.144c0.021,0.009,0.043,0.017,0.064,0.023c0.121,0.046,0.244,0.092,0.367,0.138
					c0.021,0.009,0.043,0.018,0.065,0.024l0.36,0.134c0.024,0.01,0.053,0.021,0.077,0.03c0.119,0.044,0.24,0.089,0.359,0.133
					c0.024,0.009,0.049,0.018,0.073,0.028c0.113,0.042,0.229,0.084,0.343,0.126c0.034,0.013,0.067,0.024,0.103,0.038
					c0.11,0.041,0.221,0.082,0.332,0.122c0.032,0.012,0.064,0.022,0.098,0.034c0.111,0.041,0.221,0.082,0.33,0.122
					c0.037,0.015,0.069,0.026,0.104,0.039c0.108,0.04,0.218,0.079,0.326,0.119c0.034,0.013,0.067,0.025,0.104,0.038
					c0.106,0.039,0.213,0.078,0.319,0.117c0.037,0.013,0.073,0.024,0.108,0.04c0.104,0.037,0.205,0.074,0.308,0.109
					c0.041,0.017,0.082,0.03,0.123,0.047c0.103,0.035,0.201,0.07,0.301,0.106c0.041,0.015,0.082,0.03,0.121,0.044
					c0.103,0.037,0.203,0.073,0.306,0.11c0.039,0.013,0.078,0.025,0.114,0.041c0.095,0.034,0.187,0.066,0.279,0.1
					c0.049,0.019,0.096,0.034,0.146,0.052c0.092,0.033,0.185,0.065,0.276,0.1c0.043,0.015,0.086,0.031,0.131,0.046
					c0.103,0.037,0.205,0.073,0.308,0.109c0.033,0.012,0.063,0.021,0.095,0.032c0.097,0.034,0.192,0.068,0.29,0.104
					c0.041,0.014,0.08,0.027,0.121,0.042c0.084,0.029,0.166,0.058,0.248,0.087c0.052,0.018,0.104,0.036,0.152,0.053
					c0.086,0.03,0.172,0.062,0.256,0.089c0.045,0.017,0.09,0.031,0.133,0.047c0.082,0.027,0.162,0.056,0.242,0.082
					c0.049,0.019,0.101,0.035,0.149,0.054c0.075,0.023,0.149,0.051,0.226,0.075c0.051,0.019,0.103,0.034,0.151,0.054
					c0.078,0.024,0.153,0.051,0.229,0.077c0.047,0.016,0.097,0.031,0.146,0.049c0.123,0.041,0.243,0.082,0.363,0.122
					c0.237,0.079,0.469,0.166,0.692,0.26c0.004,0.001,0.008,0.003,0.012,0.004c0.22,0.092,0.433,0.191,0.638,0.296
					c0.008,0.003,0.017,0.006,0.022,0.01c0.201,0.104,0.398,0.214,0.588,0.328c0.011,0.005,0.021,0.011,0.029,0.018
					c0.188,0.112,0.367,0.231,0.543,0.355c0.012,0.008,0.021,0.017,0.033,0.023c0.172,0.122,0.34,0.251,0.502,0.382
					c0.012,0.01,0.023,0.019,0.035,0.029c0.159,0.131,0.313,0.267,0.463,0.404c0.012,0.013,0.023,0.022,0.035,0.033
					c0.146,0.14,0.291,0.283,0.428,0.429c0.012,0.014,0.022,0.023,0.033,0.034c0.139,0.148,0.27,0.3,0.396,0.452
					c0.011,0.011,0.02,0.022,0.029,0.033c0.127,0.155,0.25,0.313,0.368,0.473c0.009,0.01,0.015,0.021,0.021,0.03
					c0.121,0.163,0.234,0.328,0.345,0.495c0.006,0.007,0.01,0.014,0.016,0.021c0.111,0.17,0.218,0.343,0.32,0.518
					c0.002,0.004,0.004,0.008,0.006,0.012c1.158,1.974,1.621,4.133,1.892,5.764v9.458H41.617v-9.452H41.619z"/>
			</g>
			<g>
				<defs>
					<path id="SVGID_45_" d="M119.915,37.591h-66.22c0,0.089,0.002,0.177,0.002,0.271v71.335c0,0,2.74,27.855,32.887,36.313
						c29.145,8.177,33.102,17.746,33.331,18.373c0.008,0.021,0.012,0.033,0.012,0.033s3.198-9.95,33.345-18.406
						c30.146-8.457,32.887-36.313,32.887-36.313V37.9c0-0.014,0.003-0.027,0.003-0.039c0-0.094,0.002-0.182,0.002-0.271H119.915
						L119.915,37.591z"/>
				</defs>
				<clipPath id="SVGID_46_">
					<use xlink:href="#SVGID_45_"  overflow="visible"/>
				</clipPath>
				<path clip-path="url(#SVGID_46_)" fill="#F8D016" d="M111.049,104.269L67.641,73.337l4.506-7.193l11.64,9.148l27.282,18.479
					l0.746,0.507c0,0,2.848,1.103,6.744,2.561l0.008,0.032L111.049,104.269z"/>
			</g>
			<g>
				<defs>
					<path id="SVGID_47_" d="M119.915,37.591h-66.22c0,0.089,0.002,0.177,0.002,0.271v71.335c0,0,2.74,27.855,32.887,36.313
						c29.145,8.177,33.102,17.746,33.331,18.373c0.008,0.021,0.012,0.033,0.012,0.033s3.198-9.95,33.345-18.406
						c30.146-8.457,32.887-36.313,32.887-36.313V37.9c0-0.014,0.003-0.027,0.003-0.039c0-0.094,0.002-0.182,0.002-0.271H119.915
						L119.915,37.591z"/>
				</defs>
				<clipPath id="SVGID_48_">
					<use xlink:href="#SVGID_47_"  overflow="visible"/>
				</clipPath>
				<path clip-path="url(#SVGID_48_)" fill="#F8D016" d="M108.912,91.522c0.564,0.225,13.158,5.252,20.785,7.794
					c3.854,1.284,5.804,4.472,6.791,7.368h-38.68L108.912,91.522z"/>
			</g>
			<g>
				<defs>
					<path id="SVGID_49_" d="M119.915,37.591h-66.22c0,0.089,0.002,0.177,0.002,0.271v71.335c0,0,2.74,27.855,32.887,36.313
						c29.145,8.177,33.102,17.746,33.331,18.373c0.008,0.021,0.012,0.033,0.012,0.033s3.198-9.95,33.345-18.406
						c30.146-8.457,32.887-36.313,32.887-36.313V37.9c0-0.014,0.003-0.027,0.003-0.039c0-0.094,0.002-0.182,0.002-0.271H119.915
						L119.915,37.591z"/>
				</defs>
				<clipPath id="SVGID_50_">
					<use xlink:href="#SVGID_49_"  overflow="visible"/>
				</clipPath>
				<polygon clip-path="url(#SVGID_50_)" fill="#191818" points="83.946,74.268 77,80.413 80.501,71.824 				"/>
			</g>
			<g>
				<defs>
					<path id="SVGID_51_" d="M119.915,37.591h-66.22c0,0.089,0.002,0.177,0.002,0.271v71.335c0,0,2.74,27.855,32.887,36.313
						c29.145,8.177,33.102,17.746,33.331,18.373c0.008,0.021,0.012,0.033,0.012,0.033s3.198-9.95,33.345-18.406
						c30.146-8.457,32.887-36.313,32.887-36.313V37.9c0-0.014,0.003-0.027,0.003-0.039c0-0.094,0.002-0.182,0.002-0.271H119.915
						L119.915,37.591z"/>
				</defs>
				<clipPath id="SVGID_52_">
					<use xlink:href="#SVGID_51_"  overflow="visible"/>
				</clipPath>
				<polygon clip-path="url(#SVGID_52_)" fill="#191818" points="90.482,78.925 83.536,85.069 87.037,76.481 				"/>
			</g>
			<g>
				<defs>
					<path id="SVGID_53_" d="M119.915,37.591h-66.22c0,0.089,0.002,0.177,0.002,0.271v71.335c0,0,2.74,27.855,32.887,36.313
						c29.145,8.177,33.102,17.746,33.331,18.373c0.008,0.021,0.012,0.033,0.012,0.033s3.198-9.95,33.345-18.406
						c30.146-8.457,32.887-36.313,32.887-36.313V37.9c0-0.014,0.003-0.027,0.003-0.039c0-0.094,0.002-0.182,0.002-0.271H119.915
						L119.915,37.591z"/>
				</defs>
				<clipPath id="SVGID_54_">
					<use xlink:href="#SVGID_53_"  overflow="visible"/>
				</clipPath>
				
					<line clip-path="url(#SVGID_54_)" fill="none" stroke="#191818" stroke-width="2.148" stroke-miterlimit="10" x1="136.488" y1="107.491" x2="41.619" y2="107.491"/>
			</g>
			<g>
				<defs>
					<path id="SVGID_55_" d="M119.915,37.591h-66.22c0,0.089,0.002,0.177,0.002,0.271v71.335c0,0,2.74,27.855,32.887,36.313
						c29.145,8.177,33.102,17.746,33.331,18.373c0.008,0.021,0.012,0.033,0.012,0.033s3.198-9.95,33.345-18.406
						c30.146-8.457,32.887-36.313,32.887-36.313V37.9c0-0.014,0.003-0.027,0.003-0.039c0-0.094,0.002-0.182,0.002-0.271H119.915
						L119.915,37.591z"/>
				</defs>
				<clipPath id="SVGID_56_">
					<use xlink:href="#SVGID_55_"  overflow="visible"/>
				</clipPath>
				<polygon clip-path="url(#SVGID_56_)" fill="#191818" points="97.02,83.581 90.072,89.727 93.574,81.139 				"/>
			</g>
			<g>
				<defs>
					<path id="SVGID_57_" d="M119.915,37.591h-66.22c0,0.089,0.002,0.177,0.002,0.271v71.335c0,0,2.74,27.855,32.887,36.313
						c29.145,8.177,33.102,17.746,33.331,18.373c0.008,0.021,0.012,0.033,0.012,0.033s3.198-9.95,33.345-18.406
						c30.146-8.457,32.887-36.313,32.887-36.313V37.9c0-0.014,0.003-0.027,0.003-0.039c0-0.094,0.002-0.182,0.002-0.271H119.915
						L119.915,37.591z"/>
				</defs>
				<clipPath id="SVGID_58_">
					<use xlink:href="#SVGID_57_"  overflow="visible"/>
				</clipPath>
				<polygon clip-path="url(#SVGID_58_)" fill="#191818" points="103.555,88.238 96.609,94.383 100.109,85.795 				"/>
			</g>
			<g>
				<defs>
					<path id="SVGID_59_" d="M119.915,37.591h-66.22c0,0.089,0.002,0.177,0.002,0.271v71.335c0,0,2.74,27.855,32.887,36.313
						c29.145,8.177,33.102,17.746,33.331,18.373c0.008,0.021,0.012,0.033,0.012,0.033s3.198-9.95,33.345-18.406
						c30.146-8.457,32.887-36.313,32.887-36.313V37.9c0-0.014,0.003-0.027,0.003-0.039c0-0.094,0.002-0.182,0.002-0.271H119.915
						L119.915,37.591z"/>
				</defs>
				<clipPath id="SVGID_60_">
					<use xlink:href="#SVGID_59_"  overflow="visible"/>
				</clipPath>
				<polygon clip-path="url(#SVGID_60_)" fill="#191818" points="110.092,92.896 103.146,99.04 106.646,90.452 				"/>
			</g>
			<g>
				<defs>
					<path id="SVGID_61_" d="M119.915,37.591h-66.22c0,0.089,0.002,0.177,0.002,0.271v71.335c0,0,2.74,27.855,32.887,36.313
						c29.145,8.177,33.102,17.746,33.331,18.373c0.008,0.021,0.012,0.033,0.012,0.033s3.198-9.95,33.345-18.406
						c30.146-8.457,32.887-36.313,32.887-36.313V37.9c0-0.014,0.003-0.027,0.003-0.039c0-0.094,0.002-0.182,0.002-0.271H119.915
						L119.915,37.591z"/>
				</defs>
				<clipPath id="SVGID_62_">
					<use xlink:href="#SVGID_61_"  overflow="visible"/>
				</clipPath>
				<path clip-path="url(#SVGID_62_)" fill="none" stroke="#191818" stroke-width="4.296" stroke-miterlimit="10" d="
					M41.619,108.646l0.161-5.137l1.021-15.3l0,0l0.371-5.574l0.521-7.803l0.174-2.601h23.408c0-5.201,5.202-7.804,5.202-7.804
					l2.289,1.716l1.873,1.405l0.832,0.624l3.9,2.926l26.825,18.854l0.694,0.485c0,0,0.578,0.23,1.564,0.62
					c0.004,0.001,0.008,0.002,0.012,0.005c0.053,0.021,0.107,0.043,0.164,0.064c0.023,0.009,0.049,0.02,0.074,0.029
					c0.051,0.02,0.104,0.041,0.159,0.063c0.015,0.005,0.028,0.012,0.042,0.018c0.059,0.022,0.12,0.048,0.182,0.07
					c0.021,0.01,0.043,0.019,0.064,0.025c0.059,0.024,0.119,0.047,0.182,0.072c0.01,0.004,0.021,0.008,0.031,0.012
					c0.098,0.039,0.198,0.078,0.301,0.118c0.057,0.021,0.111,0.044,0.17,0.065c0.053,0.021,0.109,0.043,0.164,0.065
					c0.037,0.013,0.07,0.027,0.105,0.041c0.061,0.024,0.123,0.048,0.186,0.072c0.032,0.013,0.064,0.024,0.098,0.039
					c0.057,0.021,0.113,0.044,0.172,0.065c0.045,0.02,0.09,0.035,0.135,0.054c0.057,0.021,0.114,0.045,0.172,0.066
					c0.035,0.014,0.071,0.028,0.105,0.042c0.068,0.026,0.136,0.052,0.205,0.079c0.047,0.02,0.096,0.038,0.144,0.056
					c0.046,0.02,0.091,0.036,0.138,0.056c0.086,0.031,0.17,0.064,0.258,0.1c0.019,0.008,0.037,0.015,0.057,0.022
					c0.089,0.033,0.179,0.068,0.27,0.104c0.028,0.011,0.055,0.022,0.084,0.033c0.068,0.025,0.137,0.053,0.207,0.08
					c0.067,0.025,0.135,0.053,0.203,0.079c1.189,0.462,2.502,0.967,3.872,1.486c0.003,0.001,0.005,0.003,0.007,0.003
					c0.139,0.055,0.277,0.106,0.416,0.158l0.002,0.001c0.133,0.05,0.264,0.102,0.397,0.151c0.021,0.007,0.041,0.015,0.062,0.022
					c0.125,0.048,0.25,0.096,0.377,0.143l0.032,0.013c0.136,0.051,0.273,0.104,0.41,0.154c0.002,0.001,0.004,0.002,0.006,0.002
					c0.136,0.052,0.273,0.103,0.41,0.155c0.013,0.005,0.025,0.01,0.037,0.014c0.127,0.048,0.254,0.095,0.381,0.144
					c0.021,0.009,0.043,0.017,0.064,0.023c0.121,0.046,0.244,0.092,0.367,0.138c0.021,0.009,0.043,0.018,0.065,0.024l0.36,0.134
					c0.024,0.01,0.053,0.021,0.077,0.03c0.119,0.044,0.24,0.089,0.359,0.133c0.024,0.009,0.049,0.018,0.073,0.028
					c0.113,0.042,0.229,0.084,0.343,0.126c0.034,0.013,0.067,0.024,0.103,0.038c0.11,0.041,0.221,0.082,0.332,0.122
					c0.032,0.012,0.064,0.022,0.098,0.034c0.111,0.041,0.221,0.082,0.33,0.122c0.037,0.015,0.069,0.026,0.104,0.039
					c0.108,0.04,0.218,0.079,0.326,0.119c0.034,0.013,0.067,0.025,0.104,0.038c0.106,0.039,0.213,0.078,0.319,0.117
					c0.037,0.013,0.073,0.024,0.108,0.04c0.104,0.037,0.205,0.074,0.308,0.109c0.041,0.017,0.082,0.03,0.123,0.047
					c0.103,0.035,0.201,0.07,0.301,0.106c0.041,0.015,0.082,0.03,0.121,0.044c0.103,0.037,0.203,0.073,0.306,0.11
					c0.039,0.013,0.078,0.025,0.114,0.041c0.095,0.034,0.187,0.066,0.279,0.1c0.049,0.019,0.096,0.034,0.146,0.052
					c0.092,0.033,0.185,0.065,0.276,0.1c0.043,0.015,0.086,0.031,0.131,0.046c0.103,0.037,0.205,0.073,0.308,0.109
					c0.033,0.012,0.063,0.021,0.095,0.032c0.097,0.034,0.192,0.068,0.29,0.104c0.041,0.014,0.08,0.027,0.121,0.042
					c0.084,0.029,0.166,0.058,0.248,0.087c0.052,0.018,0.104,0.036,0.152,0.053c0.086,0.03,0.172,0.062,0.256,0.089
					c0.045,0.017,0.09,0.031,0.133,0.047c0.082,0.027,0.162,0.056,0.242,0.082c0.049,0.019,0.101,0.035,0.149,0.054
					c0.075,0.023,0.149,0.051,0.226,0.075c0.051,0.019,0.103,0.034,0.151,0.054c0.078,0.024,0.153,0.051,0.229,0.077
					c0.047,0.016,0.097,0.031,0.146,0.049c0.123,0.041,0.243,0.082,0.363,0.122c0.237,0.079,0.469,0.166,0.692,0.26
					c0.004,0.001,0.008,0.003,0.012,0.004c0.22,0.092,0.433,0.191,0.638,0.296c0.008,0.003,0.017,0.006,0.022,0.01
					c0.201,0.104,0.398,0.214,0.588,0.328c0.011,0.005,0.021,0.011,0.029,0.018c0.188,0.112,0.367,0.231,0.543,0.355
					c0.012,0.008,0.021,0.017,0.033,0.023c0.172,0.122,0.34,0.251,0.502,0.382c0.012,0.01,0.023,0.019,0.035,0.029
					c0.159,0.131,0.313,0.267,0.463,0.404c0.012,0.013,0.023,0.022,0.035,0.033c0.146,0.14,0.291,0.283,0.428,0.429
					c0.012,0.014,0.022,0.023,0.033,0.034c0.139,0.148,0.27,0.3,0.396,0.452c0.011,0.011,0.02,0.022,0.029,0.033
					c0.127,0.155,0.25,0.313,0.368,0.473c0.009,0.01,0.015,0.021,0.021,0.03c0.121,0.163,0.234,0.328,0.345,0.495
					c0.006,0.007,0.01,0.014,0.016,0.021c0.111,0.17,0.218,0.343,0.32,0.518c0.002,0.004,0.004,0.008,0.006,0.012
					c1.158,1.974,1.621,4.133,1.892,5.764v9.458H41.617v-9.452H41.619z"/>
			</g>
			<g>
				<defs>
					<path id="SVGID_63_" d="M119.915,37.591h-66.22c0,0.089,0.002,0.177,0.002,0.271v71.335c0,0,2.74,27.855,32.887,36.313
						c29.145,8.177,33.102,17.746,33.331,18.373c0.008,0.021,0.012,0.033,0.012,0.033s3.198-9.95,33.345-18.406
						c30.146-8.457,32.887-36.313,32.887-36.313V37.9c0-0.014,0.003-0.027,0.003-0.039c0-0.094,0.002-0.182,0.002-0.271H119.915
						L119.915,37.591z"/>
				</defs>
				<clipPath id="SVGID_64_">
					<use xlink:href="#SVGID_63_"  overflow="visible"/>
				</clipPath>
				<polygon clip-path="url(#SVGID_64_)" fill="#F8D016" points="69.08,84.355 82.381,91.134 78.826,93.908 85.086,100.462 
					71.786,93.684 75.34,90.908 				"/>
			</g>
		</g>
		<path clip-path="url(#SVGID_6_)" fill="#191818" d="M181.421,12.61l3.394,5.225c-3.477,4.13-6.324,10.43-6.393,19.499l-0.001,0.06
			v0.03l-0.001,0.024l-0.002,0.172v0.04v0.039v71.372c-0.436,2.98-4.16,22.673-27.061,29.098
			c-5.879,1.649-21.528,6.528-31.394,14.107c-5.685-4.469-15.25-9.594-31.342-14.107c-22.9-6.425-26.624-26.116-27.061-29.098V37.66
			l-0.002-0.268v-0.067c-0.067-9.064-2.916-15.362-6.392-19.49l3.392-5.225h28.033h23.781h9.198h33.815H181.421 M185.965,4.244
			h-32.576h-33.814h-9.198H86.595H54.019L43.987,19.698c0,0,9.099,2.806,9.209,17.688c0.001,0.091,0.003,0.182,0.003,0.272v71.939
			c0,0,2.764,28.096,33.166,36.624c29.393,8.245,33.383,17.896,33.615,18.528c0.008,0.022,0.012,0.033,0.012,0.033
			s3.225-10.034,33.627-18.563s33.167-36.624,33.167-36.624v-71.9c0-0.014,0.001-0.025,0.001-0.039c0-0.092,0.002-0.183,0.003-0.272
			C186.9,22.502,196,19.697,196,19.697L185.965,4.244z"/>
	</g>
</g>
</svg>
