<?xml version="1.0" encoding="utf-8"?>
<!-- Generator: Adobe Illustrator 16.0.0, SVG Export Plug-In . SVG Version: 6.00 Build 0)  -->
<!DOCTYPE svg PUBLIC "-//W3C//DTD SVG 1.1//EN" "http://www.w3.org/Graphics/SVG/1.1/DTD/svg11.dtd">
<svg version="1.1" id="Layer_1" xmlns="http://www.w3.org/2000/svg" xmlns:xlink="http://www.w3.org/1999/xlink" x="0px" y="0px"
	 width="240px" height="230px" viewBox="0 0 240 230" enable-background="new 0 0 240 230" xml:space="preserve">
<path fill="#020202" d="M212.529,137.309c0.146,1.75-0.152,3.623,0.188,5.47c0.328,0.772,0.592,1.554,0.873,2.349
	c0.818,2.085,1.734,3.99,3.311,4.865c1.283-2.557,2.463-5.285,2.742-8.496c-0.084-2.1-0.508-4.063-1.249-5.928
	c-1.148-2.94-3.062-5.579-5.611-7.852c-0.082-0.08-0.145-0.109-0.188-0.171l-0.414-0.012c0.094,0.271,0.165,0.577,0.247,0.886
	C213.104,131.306,212.81,134.098,212.529,137.309"/>
<path fill="#020202" d="M212.729,155.089c-1.816-3.577-5.514-6.852-6.379-10.245l-0.531-0.223c-1.338,3.336-1.192,7.326-0.17,10.95
	c1.109,4.704,3.425,8.369,4.509,12.994c0.192,0.891,0.354,1.774,0.458,2.741c6.957-5.049,13.37-10.808,15.183-19.896l-12.192,6.13
	C213.44,156.692,213.11,155.854,212.729,155.089"/>
<path fill="#020202" d="M193.126,196.246c-0.916-0.018-1.783-0.026-2.638,0.015c3.211-4.57,2.289-10.164,4.058-15.119l-0.017-0.219
	c-5.33,2.008-8.125,6.7-10.731,11.657c-1.862,3.592-3.683,7.273-6.339,9.993c1.109,0.08,2.152,0.229,3.234,0.389
	c1.121,0.163,2.273,0.386,3.435,0.691c2.306,0.136,4.581,0.237,6.731,0.167c4.035-0.171,7.795-0.854,11.037-2.605
	c1.502-0.798,2.901-1.85,4.131-3.161c-0.949-0.153-1.992-0.342-3.027-0.523C199.734,196.975,196.301,196.404,193.126,196.246"/>
<path fill="#020202" d="M206.125,180.673c-1.494-5.036-4.273-10.122-3.863-15.641l-0.144-0.22l-0.374,0.164
	c-0.044,0.036-0.098,0.108-0.102,0.146c-0.291,0.501-0.601,0.786-1.136,1.3c-3.806,6.707-3.229,14.78-1.274,21.92
	c0.319,1.176,0.651,2.295,1.063,3.425c3.422-2.676,7.645-3.357,11.442-5.306c0.342-0.207,0.677-0.37,1.029-0.582
	c3.658-2.641,5.886-7.007,6.842-11.183c-2.373,0.757-4.701,1.368-6.878,2.186C210.387,177.728,208.124,178.87,206.125,180.673"/>
<path fill="#020202" d="M27.326,137.438c-0.24,1.74-0.045,3.627-0.482,5.45c-0.369,0.755-0.674,1.521-0.996,2.3
	c-0.933,2.036-1.947,3.891-3.568,4.681c-1.146-2.622-2.176-5.41-2.281-8.632c0.197-2.093,0.727-4.029,1.566-5.854
	c1.307-2.873,3.357-5.406,6.027-7.536c0.086-0.074,0.148-0.103,0.195-0.161l0.414,0.013c-0.107,0.267-0.195,0.565-0.295,0.871
	C27.076,131.414,27.219,134.217,27.326,137.438"/>
<path fill="#020202" d="M27.051,155.089c1.816-3.577,5.512-6.852,6.379-10.245l0.531-0.223c1.337,3.336,1.193,7.326,0.168,10.95
	c-1.107,4.704-3.424,8.369-4.508,12.994c-0.193,0.891-0.354,1.774-0.458,2.741c-6.956-5.049-13.369-10.808-15.183-19.896
	l12.195,6.13C26.338,156.692,26.667,155.854,27.051,155.089"/>
<path fill="#020202" d="M46.652,196.246c0.916-0.018,1.783-0.026,2.639,0.015c-3.213-4.57-2.291-10.164-4.059-15.119l0.018-0.219
	c5.328,2.008,8.123,6.7,10.73,11.657c1.861,3.592,3.684,7.273,6.34,9.993c-1.109,0.08-2.154,0.229-3.234,0.389
	c-1.123,0.163-2.275,0.386-3.436,0.691c-2.306,0.136-4.58,0.237-6.732,0.167c-4.034-0.171-7.795-0.854-11.037-2.605
	c-1.5-0.798-2.901-1.85-4.131-3.161c0.949-0.153,1.992-0.342,3.029-0.523C40.043,196.975,43.478,196.404,46.652,196.246"/>
<path fill="#020202" d="M33.652,180.673c1.494-5.036,4.274-10.122,3.865-15.641l0.143-0.22l0.373,0.164
	c0.045,0.036,0.098,0.108,0.102,0.146c0.292,0.501,0.601,0.786,1.136,1.3c3.806,6.707,3.229,14.78,1.276,21.92
	c-0.321,1.176-0.654,2.295-1.063,3.425c-3.423-2.676-7.644-3.357-11.442-5.306c-0.342-0.207-0.676-0.37-1.029-0.582
	c-3.66-2.641-5.887-7.007-6.842-11.183c2.373,0.757,4.701,1.368,6.877,2.186C29.392,177.728,31.654,178.87,33.652,180.673"/>
<path fill="#FFFFFF" d="M9.264,55.713c0.313-2.897,2.676-4.153,5.252-2.79l29.302,15.511l27.573,14.598
	c2.576,1.362,3.976,4.756,3.111,7.54l-4.1,13.18c-0.578,1.858-2.085,3.13-3.839,3.479l2.282,0.815
	c1.838,0.973,2.837,3.394,2.219,5.378l-2.973,9.538c-0.396,1.274-1.428,2.217-2.635,2.544l3.817,1.364
	c1.269,0.671,1.957,2.342,1.531,3.712l-2.119,6.77c-0.427,1.37-1.979,2.374-3.331,1.89c0,0-4.747-1.706-16.617-5.972
	c-11.871-4.267-11.633-15.437-11.633-15.437c0.072-0.68,0.4-1.237,0.859-1.564C22.1,109.77,22.332,94.684,22.332,94.684
	c0.152-1.415,1.014-2.344,2.131-2.479C6.516,81.206,9.264,55.713,9.264,55.713"/>
<path fill="#FFFFFF" d="M230.516,55.713c-0.313-2.897-2.678-4.153-5.254-2.79L195.96,68.434l-27.573,14.598
	c-2.576,1.362-3.976,4.756-3.109,7.54l4.1,13.18c0.577,1.858,2.085,3.13,3.839,3.479l-2.282,0.815
	c-1.839,0.973-2.836,3.394-2.22,5.378l2.974,9.538c0.396,1.274,1.43,2.217,2.635,2.544l-3.816,1.364
	c-1.268,0.671-1.957,2.342-1.531,3.712l2.119,6.77c0.426,1.37,1.98,2.374,3.33,1.89c0,0,4.747-1.706,16.618-5.972
	c11.871-4.267,11.633-15.437,11.633-15.437c-0.073-0.68-0.401-1.237-0.86-1.564c15.863-6.499,15.632-21.585,15.632-21.585
	c-0.151-1.415-1.014-2.344-2.129-2.479C233.263,81.206,230.516,55.713,230.516,55.713"/>
<polygon fill="#020202" points="18.392,85.013 66.582,114.229 16.695,88.013 "/>
<polygon fill="#020202" points="28.078,106.015 66.582,129.531 26.709,108.417 "/>
<path fill="none" stroke="#020202" stroke-width="5.77" stroke-miterlimit="10" d="M9.264,55.713
	c0.313-2.897,2.676-4.153,5.252-2.79l29.302,15.511l27.573,14.598c2.576,1.362,3.976,4.756,3.111,7.54l-4.1,13.18
	c-0.578,1.858-2.085,3.13-3.839,3.479l2.282,0.815c1.838,0.973,2.837,3.394,2.219,5.378l-2.973,9.538
	c-0.396,1.274-1.428,2.217-2.635,2.544l3.817,1.364c1.269,0.671,1.957,2.342,1.531,3.712l-2.119,6.77
	c-0.427,1.37-1.979,2.374-3.331,1.89c0,0-4.747-1.706-16.617-5.972c-11.871-4.267-11.633-15.437-11.633-15.437
	c0.072-0.68,0.4-1.237,0.859-1.564C22.1,109.77,22.332,94.684,22.332,94.684c0.152-1.415,1.014-2.344,2.131-2.479
	C6.516,81.206,9.264,55.713,9.264,55.713z"/>
<path fill="none" stroke="#020202" stroke-width="5.77" stroke-miterlimit="10" d="M230.516,55.713
	c-0.313-2.897-2.678-4.153-5.254-2.79L195.96,68.434l-27.573,14.598c-2.576,1.362-3.976,4.756-3.109,7.54l4.1,13.18
	c0.577,1.858,2.085,3.13,3.839,3.479l-2.282,0.815c-1.839,0.973-2.836,3.394-2.22,5.378l2.974,9.538
	c0.396,1.274,1.43,2.217,2.635,2.544l-3.816,1.364c-1.268,0.671-1.957,2.342-1.531,3.712l2.119,6.77
	c0.426,1.37,1.98,2.374,3.33,1.89c0,0,4.747-1.706,16.618-5.972c11.871-4.267,11.633-15.437,11.633-15.437
	c-0.073-0.68-0.401-1.237-0.86-1.564c15.863-6.499,15.632-21.585,15.632-21.585c-0.151-1.415-1.014-2.344-2.129-2.479
	C233.263,81.206,230.516,55.713,230.516,55.713z"/>
<polygon fill="#020202" points="223.083,88.013 173.197,114.229 221.387,85.013 "/>
<polygon fill="#020202" points="213.068,108.417 173.197,129.532 211.701,106.015 "/>
<polyline fill="#FDD00F" points="119.889,3.313 95.568,12.749 95.15,23.021 79.216,28.473 82.361,39.375 119.889,64.134 
	157.418,39.375 160.563,25.965 144.629,23.021 144.209,12.749 119.889,3.313 "/>
<polyline fill="none" stroke="#020202" stroke-width="5.77" stroke-miterlimit="10" points="119.889,3.314 95.568,12.748 
	95.15,20.514 79.216,25.965 82.361,39.375 119.889,54.134 157.418,39.375 160.563,25.965 144.629,20.514 144.209,12.748 
	119.889,3.314 "/>
<polygon fill="#020202" points="119.889,25.721 114.713,18.399 119.889,11.079 125.066,18.399 "/>
<polygon fill="#020202" points="98.033,19.258 97.508,31.676 92.369,20.359 "/>
<polygon fill="#020202" points="147.402,20.359 142.264,31.676 141.739,19.258 "/>
<rect x="75.037" y="162.861" fill="#020202" width="85" height="43.667"/>
<polygon fill="#020202" points="148.338,192.025 174.175,183.046 161.102,173.266 109.594,197.528 "/>
<polygon fill="#020202" points="121.594,198.528 64.898,183.046 77.973,173.266 126.094,195.028 "/>
<polygon fill="#FFFFFF" points="171.852,214.863 119.558,229.046 67.265,213.358 67.265,185.837 119.558,195.525 171.852,185.837 
	"/>
<polygon fill="none" stroke="#020202" stroke-width="4.515" stroke-miterlimit="10" points="171.852,214.863 119.558,227.646 
	67.265,214.863 67.265,185.837 119.558,194.62 171.852,185.837 "/>
<path fill="#FDD00F" d="M119.877,68.388H53.093c0,0.091,0.002,0.182,0.002,0.272V140.6c0,0,2.765,28.096,33.167,36.624
	c29.393,8.245,33.382,17.896,33.615,18.529c0.008,0.021,0.012,0.032,0.012,0.032s3.225-10.034,33.626-18.563
	c30.402-8.528,33.166-36.624,33.166-36.624v-71.9c0-0.014,0.002-0.025,0.002-0.039c0-0.092,0.002-0.183,0.002-0.272L119.877,68.388
	L119.877,68.388z"/>
<g opacity="0.5">
	<g>
		<g>
			<defs>
				<rect id="SVGID_1_" x="119.88" y="68.39" width="66.81" height="127.4"/>
			</defs>
			<clipPath id="SVGID_2_">
				<use xlink:href="#SVGID_1_"  overflow="visible"/>
			</clipPath>
			<path clip-path="url(#SVGID_2_)" fill="#CDA72C" d="M153.516,177.224c30.402-8.527,33.166-36.624,33.166-36.624V68.7
				c0.002-0.015,0.002-0.026,0.002-0.039c0-0.092,0.002-0.183,0.002-0.273h-66.809v127.366c0.008,0.022,0.012,0.034,0.012,0.034
				S123.113,185.753,153.516,177.224"/>
		</g>
	</g>
</g>
<path fill="#191818" d="M181.318,43.61l3.394,5.225c-2.296,2.726-4.317,6.396-5.444,11.188H60.512
	c-1.129-4.79-3.149-8.462-5.445-11.188l3.393-5.225h28.033h23.781h9.197h33.815H181.318 M185.861,35.244h-32.575h-33.815h-9.197
	H86.493H53.917L43.883,50.698c0,0,9.101,2.806,9.21,17.688h133.595c0.109-14.884,9.211-17.688,9.211-17.688L185.861,35.244z"/>
<g opacity="0.4">
	<g>
		<g>
			<defs>
				<rect id="SVGID_3_" x="43.88" y="35.24" width="152.021" height="160.55"/>
			</defs>
			<clipPath id="SVGID_4_">
				<use xlink:href="#SVGID_3_"  overflow="visible"/>
			</clipPath>
			<path clip-path="url(#SVGID_4_)" fill="#FFFFFF" d="M177.893,49.041c-2.643,4.355-4.931,10.604-5.004,19.229v0.005l-0.002,0.261
				l-0.002,0.082v0.082v70.951c-0.223,1.223-1.068,5.082-3.447,9.366c-4.105,7.396-10.717,12.417-19.647,14.924
				c-13.942,3.911-23.452,8.354-29.93,12.658c-6.465-4.301-15.953-8.755-29.871-12.658c-8.596-2.412-15.051-7.16-19.184-14.113
				c-2.709-4.56-3.652-8.787-3.912-10.227V68.66l-0.004-0.375c-0.064-8.625-2.355-14.882-5.002-19.244h24.605h23.781h9.197h33.815
				H177.893 M185.861,35.244h-32.575h-33.815h-9.197H86.493H53.917L43.883,50.698c0,0,9.101,2.806,9.21,17.688
				c0.002,0.091,0.004,0.182,0.004,0.272v71.939c0,0,2.764,28.096,33.166,36.624c29.393,8.245,33.383,17.896,33.615,18.528
				c0.008,0.022,0.012,0.033,0.012,0.033s3.225-10.034,33.627-18.563c30.401-8.528,33.166-36.624,33.166-36.624v-71.9
				c0-0.014,0.002-0.025,0.002-0.039c0-0.092,0.002-0.183,0.002-0.272c0.109-14.884,9.211-17.688,9.211-17.688L185.861,35.244z"/>
		</g>
	</g>
</g>
<path fill="#1A1A19" d="M195.896,50.698l-10.035-15.454h-32.574h-33.816h-9.197H86.493H53.918L43.883,50.698
	c0,0,9.101,2.807,9.211,17.688v7.526h133.594v-7.526C186.796,53.505,195.896,50.698,195.896,50.698"/>
<polygon fill="#FFFFFF" points="68.443,64.386 68.443,49.514 65.402,52.675 63.084,50.236 68.984,44.306 72.508,44.306 
	72.508,64.386 "/>
<polygon fill="#FFFFFF" points="96.95,64.386 96.95,51.44 92.465,64.386 90.869,64.386 86.413,51.44 86.413,64.386 82.379,64.386 
	82.379,44.306 87.798,44.306 91.682,55.505 95.596,44.306 100.984,44.306 100.984,64.386 "/>
<path fill="#FFFFFF" d="M103.689,54.36c0-5.961,3.131-10.387,8.37-10.387c5.269,0,8.399,4.426,8.399,10.387
	c0,5.99-3.131,10.387-8.399,10.387C106.82,64.747,103.689,60.352,103.689,54.36 M116.335,54.36c0-3.885-1.507-6.805-4.275-6.805
	c-2.739,0-4.215,2.92-4.215,6.805c0,3.822,1.476,6.804,4.215,6.804C114.828,61.164,116.335,58.184,116.335,54.36"/>
<polygon fill="#FFFFFF" points="134.096,64.386 127.26,52.524 127.26,64.386 123.227,64.386 123.227,44.306 127.32,44.306 
	133.883,55.745 133.883,44.306 137.948,44.306 137.948,64.386 "/>
<polygon fill="#FFFFFF" points="144.811,64.386 144.811,47.857 140.354,47.857 140.354,44.306 153.299,44.306 153.299,47.857 
	148.844,47.857 148.844,64.386 "/>
<polygon fill="#FFFFFF" points="166.393,64.386 166.393,55.836 159.739,55.836 159.739,64.386 155.704,64.386 155.704,44.306 
	159.739,44.306 159.739,52.283 166.393,52.283 166.393,44.306 170.457,44.306 170.457,64.386 "/>
<polygon fill="#1A1A19" points="96.924,216.975 96.924,204.628 94.4,207.252 92.476,205.228 97.373,200.304 100.299,200.304 
	100.299,216.975 "/>
<polygon fill="#1A1A19" points="120.598,216.975 120.598,206.228 116.873,216.975 115.547,216.975 111.849,206.228 111.849,216.975 
	108.5,216.975 108.5,200.304 112.998,200.304 116.223,209.602 119.472,200.304 123.945,200.304 123.945,216.975 "/>
<rect x="126.874" y="200.304" fill="#1A1A19" width="3.351" height="16.671"/>
<polygon fill="#1A1A19" points="133.174,216.975 133.174,200.304 136.523,200.304 136.523,214.025 142.121,214.025 142.121,216.975 
	"/>
<g>
	<g>
		<defs>
			<path id="SVGID_5_" d="M119.813,68.591H53.592c0.002,0.089,0.004,0.177,0.004,0.271v71.335c0,0,2.74,27.855,32.887,36.313
				c29.143,8.177,33.101,17.746,33.33,18.373c0.01,0.021,0.014,0.033,0.014,0.033s3.196-9.95,33.343-18.406
				c30.146-8.457,32.889-36.313,32.889-36.313V68.9c0-0.014,0.002-0.027,0.002-0.039c0-0.094,0-0.182,0.002-0.271H119.813
				L119.813,68.591z"/>
		</defs>
		<clipPath id="SVGID_6_">
			<use xlink:href="#SVGID_5_"  overflow="visible"/>
		</clipPath>
		<g clip-path="url(#SVGID_6_)">
			<g opacity="0.5">
				<g>
					<defs>
						<rect id="SVGID_7_" x="52.27" y="135.87" width="130.759" height="27.61"/>
					</defs>
					<defs>
						<rect id="SVGID_8_" x="52.27" y="135.87" width="130.759" height="27.61"/>
					</defs>
					<defs>
						<rect id="SVGID_9_" x="52.27" y="135.87" width="130.759" height="27.61"/>
					</defs>
					<defs>
						<rect id="SVGID_10_" x="52.27" y="135.87" width="130.759" height="27.61"/>
					</defs>
					<defs>
						<rect id="SVGID_11_" x="52.27" y="135.87" width="130.759" height="27.61"/>
					</defs>
					<defs>
						<rect id="SVGID_12_" x="52.27" y="135.87" width="130.759" height="27.61"/>
					</defs>
					<defs>
						<rect id="SVGID_13_" x="52.27" y="135.87" width="130.759" height="27.61"/>
					</defs>
					<defs>
						<rect id="SVGID_14_" x="52.27" y="135.87" width="130.759" height="27.61"/>
					</defs>
					<clipPath id="SVGID_15_">
						<use xlink:href="#SVGID_7_"  overflow="visible"/>
					</clipPath>
					<clipPath id="SVGID_16_" clip-path="url(#SVGID_15_)">
						<use xlink:href="#SVGID_8_"  overflow="visible"/>
					</clipPath>
					<clipPath id="SVGID_17_" clip-path="url(#SVGID_16_)">
						<use xlink:href="#SVGID_9_"  overflow="visible"/>
					</clipPath>
					<clipPath id="SVGID_18_" clip-path="url(#SVGID_17_)">
						<use xlink:href="#SVGID_10_"  overflow="visible"/>
					</clipPath>
					<clipPath id="SVGID_19_" clip-path="url(#SVGID_18_)">
						<use xlink:href="#SVGID_11_"  overflow="visible"/>
					</clipPath>
					<clipPath id="SVGID_20_" clip-path="url(#SVGID_19_)">
						<use xlink:href="#SVGID_12_"  overflow="visible"/>
					</clipPath>
					<clipPath id="SVGID_21_" clip-path="url(#SVGID_20_)">
						<use xlink:href="#SVGID_13_"  overflow="visible"/>
					</clipPath>
					<clipPath id="SVGID_22_" clip-path="url(#SVGID_21_)">
						<use xlink:href="#SVGID_14_"  overflow="visible"/>
					</clipPath>
					<path clip-path="url(#SVGID_22_)" fill="#CDA72C" d="M169.031,135.87c0,0-9.744,8.382-7.764,7.194c0,0-1.287,7.67-7.59,7.4
						c-6.304-0.267-8.126,9.171-7.882,11.126c0,0,3.949-4.619,10.466-2.967c6.518,1.654,10.059-2.413,10.938-3.702
						c0,0-2.332,7.688-6.85,8.27c0,0,11.192,2.166,15.588-5.347c4.396-7.514,6.612-16.359,7.084-17.154
						C183.494,139.896,169.031,135.87,169.031,135.87"/>
					<path clip-path="url(#SVGID_22_)" fill="#CDA72C" d="M156.209,157.278c0,0-7.975,1.536-6.609,1.02c0,0-4.303-2.372-6.643,0.854
						c-2.342,3.226-7.73,0.425-8.604-0.463c0,0,3.838-0.145,5.576-4.021c1.738-3.875,5.143-4.033,6.125-3.961
						c0,0-4.722-1.863-6.781,0.146c0,0,3.319-6.393,8.764-5.619c5.445,0.771,10.697,3.145,11.275,3.224
						S156.209,157.278,156.209,157.278"/>
					<path clip-path="url(#SVGID_22_)" fill="#CDA72C" d="M136.695,135.87c0,0-9.744,8.382-7.762,7.194c0,0-1.287,7.67-7.591,7.4
						c-6.303-0.267-8.127,9.171-7.882,11.126c0,0,3.949-4.619,10.467-2.967c6.516,1.654,10.057-2.413,10.936-3.702
						c0,0-2.331,7.688-6.85,8.27c0,0,11.193,2.166,15.59-5.347c4.395-7.514,6.611-16.359,7.084-17.154
						C151.158,139.896,136.695,135.87,136.695,135.87"/>
					<path clip-path="url(#SVGID_22_)" fill="#CDA72C" d="M123.873,157.278c0,0-7.975,1.536-6.607,1.02c0,0-4.303-2.372-6.645,0.854
						c-2.341,3.226-7.73,0.425-8.602-0.463c0,0,3.837-0.145,5.576-4.021c1.738-3.875,5.142-4.033,6.123-3.961
						c0,0-4.719-1.863-6.781,0.146c0,0,3.32-6.393,8.766-5.619c5.443,0.771,10.695,3.145,11.273,3.224
						S123.873,157.278,123.873,157.278"/>
					<path clip-path="url(#SVGID_22_)" fill="#CDA72C" d="M111.326,135.87c0,0-9.746,8.382-7.764,7.194c0,0-1.287,7.67-7.59,7.4
						c-6.303-0.267-8.126,9.171-7.883,11.126c0,0,3.951-4.619,10.467-2.967c6.517,1.654,10.058-2.413,10.936-3.702
						c0,0-2.33,7.688-6.849,8.27c0,0,11.194,2.166,15.589-5.347c4.395-7.514,6.614-16.359,7.084-17.154
						C125.787,139.896,111.326,135.87,111.326,135.87"/>
					<path clip-path="url(#SVGID_22_)" fill="#CDA72C" d="M98.503,157.278c0,0-7.976,1.536-6.609,1.02c0,0-4.303-2.372-6.644,0.854
						c-2.342,3.226-7.729,0.425-8.603-0.463c0,0,3.839-0.145,5.577-4.021c1.738-3.875,5.141-4.033,6.124-3.961
						c0,0-4.721-1.863-6.782,0.146c0,0,3.321-6.393,8.766-5.619c5.445,0.771,10.695,3.145,11.274,3.224
						S98.503,157.278,98.503,157.278"/>
					<path clip-path="url(#SVGID_22_)" fill="#CDA72C" d="M86.949,135.87c0,0-9.744,8.382-7.762,7.194c0,0-1.288,7.67-7.591,7.4
						c-6.302-0.267-8.126,9.171-7.882,11.126c0,0,3.949-4.619,10.466-2.967c6.517,1.654,10.058-2.413,10.937-3.702
						c0,0-2.332,7.688-6.85,8.27c0,0,11.193,2.166,15.589-5.347c4.396-7.514,6.612-16.359,7.084-17.154
						C101.412,139.896,86.949,135.87,86.949,135.87"/>
					<path clip-path="url(#SVGID_22_)" fill="#CDA72C" d="M74.127,157.278c0,0-7.975,1.536-6.608,1.02c0,0-4.304-2.372-6.644,0.854
						c-2.342,3.226-7.73,0.425-8.602-0.463c0,0,3.836-0.145,5.575-4.021c1.738-3.875,5.142-4.033,6.124-3.961
						c0,0-4.72-1.863-6.781,0.146c0,0,3.32-6.393,8.766-5.619c5.443,0.771,10.695,3.145,11.273,3.224
						C77.809,148.537,74.127,157.278,74.127,157.278"/>
				</g>
			</g>
			<g>
				<defs>
					<path id="SVGID_23_" d="M119.813,68.591H53.592c0.002,0.089,0.004,0.177,0.004,0.271v71.335c0,0,2.74,27.855,32.887,36.313
						c29.143,8.177,33.101,17.746,33.33,18.373c0.01,0.021,0.014,0.033,0.014,0.033s3.196-9.95,33.343-18.406
						c30.146-8.457,32.889-36.313,32.889-36.313V68.9c0-0.014,0.002-0.027,0.002-0.039c0-0.094,0-0.182,0.002-0.271H119.813
						L119.813,68.591z"/>
				</defs>
				<clipPath id="SVGID_24_">
					<use xlink:href="#SVGID_23_"  overflow="visible"/>
				</clipPath>
				<path clip-path="url(#SVGID_24_)" fill="#FFFFFF" d="M82.34,139.646l0.161-5.137l1.021-15.3l0.371-5.574l0.521-7.803
					l0.173-2.601h23.409c0-5.201,5.202-7.804,5.202-7.804l2.287,1.716l1.875,1.405l0.832,0.624l3.9,2.926l26.825,18.854l0.694,0.485
					c0,0,0.578,0.23,1.563,0.62c0.005,0.001,0.009,0.002,0.011,0.005c0.055,0.021,0.108,0.043,0.166,0.064
					c0.022,0.009,0.049,0.02,0.071,0.029c0.054,0.02,0.106,0.041,0.161,0.063c0.014,0.005,0.027,0.012,0.041,0.018
					c0.061,0.022,0.12,0.048,0.184,0.07c0.021,0.01,0.043,0.019,0.063,0.025c0.061,0.024,0.12,0.047,0.184,0.072
					c0.01,0.004,0.021,0.008,0.03,0.012c0.099,0.039,0.198,0.078,0.301,0.118c0.058,0.021,0.111,0.044,0.169,0.065
					c0.055,0.021,0.11,0.043,0.165,0.065c0.035,0.013,0.069,0.027,0.104,0.041c0.062,0.024,0.123,0.048,0.187,0.072
					c0.032,0.013,0.064,0.024,0.099,0.039c0.056,0.021,0.113,0.044,0.172,0.065c0.045,0.02,0.089,0.035,0.135,0.054
					c0.057,0.021,0.113,0.045,0.172,0.066c0.035,0.014,0.071,0.028,0.105,0.042c0.067,0.026,0.136,0.052,0.203,0.079
					c0.049,0.02,0.097,0.038,0.146,0.056c0.046,0.02,0.091,0.036,0.138,0.056c0.084,0.031,0.17,0.064,0.256,0.1
					c0.021,0.008,0.039,0.015,0.06,0.022c0.089,0.033,0.179,0.068,0.271,0.104c0.026,0.011,0.055,0.022,0.084,0.033
					c0.066,0.025,0.137,0.053,0.207,0.08c0.066,0.025,0.135,0.053,0.202,0.079c1.189,0.462,2.503,0.967,3.871,1.486
					c0.004,0.001,0.007,0.003,0.009,0.003c0.139,0.055,0.276,0.106,0.416,0.158l0.002,0.001c0.131,0.05,0.264,0.102,0.396,0.151
					c0.021,0.007,0.042,0.015,0.063,0.022c0.125,0.048,0.25,0.096,0.375,0.143l0.033,0.013c0.137,0.051,0.271,0.104,0.41,0.154
					c0.002,0.001,0.003,0.002,0.005,0.002c0.138,0.052,0.274,0.103,0.411,0.155l0.038,0.014c0.126,0.048,0.253,0.095,0.379,0.144
					c0.021,0.009,0.044,0.017,0.065,0.023c0.121,0.046,0.244,0.092,0.367,0.138c0.021,0.009,0.043,0.018,0.065,0.024
					c0.119,0.045,0.239,0.09,0.36,0.134l0.078,0.03c0.119,0.044,0.237,0.089,0.357,0.133c0.025,0.009,0.05,0.018,0.075,0.028
					c0.112,0.042,0.229,0.084,0.342,0.126c0.034,0.013,0.067,0.024,0.103,0.038c0.11,0.041,0.222,0.082,0.332,0.122
					c0.033,0.012,0.064,0.022,0.098,0.034c0.111,0.041,0.221,0.082,0.331,0.122c0.034,0.015,0.069,0.026,0.104,0.039
					c0.108,0.04,0.217,0.079,0.325,0.119c0.034,0.013,0.067,0.025,0.104,0.038c0.106,0.039,0.213,0.078,0.32,0.117
					c0.036,0.013,0.072,0.024,0.108,0.04c0.104,0.037,0.205,0.074,0.308,0.109c0.04,0.017,0.081,0.03,0.122,0.047
					c0.103,0.035,0.201,0.07,0.302,0.106c0.041,0.015,0.08,0.03,0.121,0.044c0.102,0.037,0.202,0.073,0.305,0.11
					c0.039,0.013,0.076,0.025,0.115,0.041c0.094,0.034,0.187,0.066,0.278,0.1c0.047,0.019,0.097,0.034,0.146,0.052
					c0.093,0.033,0.185,0.065,0.274,0.1c0.045,0.015,0.089,0.031,0.132,0.046c0.104,0.037,0.207,0.073,0.31,0.109
					c0.03,0.012,0.062,0.021,0.094,0.032c0.097,0.034,0.192,0.068,0.29,0.104c0.04,0.014,0.081,0.027,0.121,0.042
					c0.084,0.029,0.166,0.058,0.249,0.087c0.051,0.018,0.101,0.036,0.151,0.053c0.086,0.03,0.172,0.062,0.256,0.089
					c0.045,0.017,0.09,0.031,0.134,0.047c0.081,0.027,0.159,0.056,0.241,0.082c0.049,0.019,0.1,0.035,0.149,0.054
					c0.075,0.023,0.149,0.051,0.226,0.075c0.051,0.019,0.102,0.034,0.151,0.054c0.078,0.024,0.152,0.051,0.229,0.077
					c0.049,0.016,0.098,0.031,0.146,0.049c0.121,0.041,0.243,0.082,0.363,0.122c0.237,0.079,0.469,0.166,0.69,0.26
					c0.006,0.001,0.01,0.003,0.014,0.004c0.22,0.092,0.434,0.191,0.638,0.296c0.009,0.003,0.017,0.006,0.022,0.01
					c0.201,0.104,0.398,0.214,0.589,0.328c0.01,0.005,0.021,0.011,0.028,0.018c0.188,0.112,0.367,0.231,0.543,0.355
					c0.012,0.008,0.021,0.017,0.033,0.023c0.172,0.122,0.34,0.251,0.5,0.382c0.014,0.01,0.024,0.019,0.037,0.029
					c0.159,0.131,0.313,0.267,0.463,0.404c0.012,0.013,0.023,0.022,0.035,0.033c0.146,0.14,0.291,0.283,0.428,0.429
					c0.012,0.014,0.022,0.023,0.033,0.034c0.137,0.148,0.27,0.3,0.397,0.452c0.009,0.011,0.019,0.022,0.028,0.033
					c0.127,0.155,0.25,0.313,0.369,0.473c0.008,0.01,0.014,0.021,0.021,0.03c0.118,0.163,0.233,0.328,0.344,0.495
					c0.004,0.007,0.011,0.014,0.017,0.021c0.11,0.17,0.217,0.343,0.319,0.518c0.002,0.004,0.004,0.008,0.007,0.012
					c1.157,1.974,1.618,4.133,1.891,5.764v9.458H82.34V139.646z"/>
			</g>
			<g>
				<defs>
					<path id="SVGID_25_" d="M119.813,68.591H53.592c0.002,0.089,0.004,0.177,0.004,0.271v71.335c0,0,2.74,27.855,32.887,36.313
						c29.143,8.177,33.101,17.746,33.33,18.373c0.01,0.021,0.014,0.033,0.014,0.033s3.196-9.95,33.343-18.406
						c30.146-8.457,32.889-36.313,32.889-36.313V68.9c0-0.014,0.002-0.027,0.002-0.039c0-0.094,0-0.182,0.002-0.271H119.813
						L119.813,68.591z"/>
				</defs>
				<clipPath id="SVGID_26_">
					<use xlink:href="#SVGID_25_"  overflow="visible"/>
				</clipPath>
				<path clip-path="url(#SVGID_26_)" fill="#F8D016" d="M151.77,135.269l-43.409-30.932l4.507-7.193l11.639,9.148l27.282,18.479
					l0.748,0.507c0,0,2.847,1.103,6.742,2.561l0.008,0.032L151.77,135.269z"/>
			</g>
			<g>
				<defs>
					<path id="SVGID_27_" d="M119.813,68.591H53.592c0.002,0.089,0.004,0.177,0.004,0.271v71.335c0,0,2.74,27.855,32.887,36.313
						c29.143,8.177,33.101,17.746,33.33,18.373c0.01,0.021,0.014,0.033,0.014,0.033s3.196-9.95,33.343-18.406
						c30.146-8.457,32.889-36.313,32.889-36.313V68.9c0-0.014,0.002-0.027,0.002-0.039c0-0.094,0-0.182,0.002-0.271H119.813
						L119.813,68.591z"/>
				</defs>
				<clipPath id="SVGID_28_">
					<use xlink:href="#SVGID_27_"  overflow="visible"/>
				</clipPath>
				<path clip-path="url(#SVGID_28_)" fill="#F8D016" d="M149.633,122.522c0.564,0.225,13.158,5.252,20.785,7.794
					c3.854,1.284,5.803,4.472,6.789,7.368h-38.678L149.633,122.522z"/>
			</g>
			<g>
				<defs>
					<path id="SVGID_29_" d="M119.813,68.591H53.592c0.002,0.089,0.004,0.177,0.004,0.271v71.335c0,0,2.74,27.855,32.887,36.313
						c29.143,8.177,33.101,17.746,33.33,18.373c0.01,0.021,0.014,0.033,0.014,0.033s3.196-9.95,33.343-18.406
						c30.146-8.457,32.889-36.313,32.889-36.313V68.9c0-0.014,0.002-0.027,0.002-0.039c0-0.094,0-0.182,0.002-0.271H119.813
						L119.813,68.591z"/>
				</defs>
				<clipPath id="SVGID_30_">
					<use xlink:href="#SVGID_29_"  overflow="visible"/>
				</clipPath>
				<polygon clip-path="url(#SVGID_30_)" fill="#191818" points="124.666,105.268 117.721,111.413 121.221,102.824 				"/>
			</g>
			<g>
				<defs>
					<path id="SVGID_31_" d="M119.813,68.591H53.592c0.002,0.089,0.004,0.177,0.004,0.271v71.335c0,0,2.74,27.855,32.887,36.313
						c29.143,8.177,33.101,17.746,33.33,18.373c0.01,0.021,0.014,0.033,0.014,0.033s3.196-9.95,33.343-18.406
						c30.146-8.457,32.889-36.313,32.889-36.313V68.9c0-0.014,0.002-0.027,0.002-0.039c0-0.094,0-0.182,0.002-0.271H119.813
						L119.813,68.591z"/>
				</defs>
				<clipPath id="SVGID_32_">
					<use xlink:href="#SVGID_31_"  overflow="visible"/>
				</clipPath>
				<polygon clip-path="url(#SVGID_32_)" fill="#191818" points="131.203,109.925 124.257,116.069 127.758,107.481 				"/>
			</g>
			<g>
				<defs>
					<path id="SVGID_33_" d="M119.813,68.591H53.592c0.002,0.089,0.004,0.177,0.004,0.271v71.335c0,0,2.74,27.855,32.887,36.313
						c29.143,8.177,33.101,17.746,33.33,18.373c0.01,0.021,0.014,0.033,0.014,0.033s3.196-9.95,33.343-18.406
						c30.146-8.457,32.889-36.313,32.889-36.313V68.9c0-0.014,0.002-0.027,0.002-0.039c0-0.094,0-0.182,0.002-0.271H119.813
						L119.813,68.591z"/>
				</defs>
				<clipPath id="SVGID_34_">
					<use xlink:href="#SVGID_33_"  overflow="visible"/>
				</clipPath>
				
					<line clip-path="url(#SVGID_34_)" fill="none" stroke="#191818" stroke-width="2.148" stroke-miterlimit="10" x1="177.208" y1="138.491" x2="82.34" y2="138.491"/>
			</g>
			<g>
				<defs>
					<path id="SVGID_35_" d="M119.813,68.591H53.592c0.002,0.089,0.004,0.177,0.004,0.271v71.335c0,0,2.74,27.855,32.887,36.313
						c29.143,8.177,33.101,17.746,33.33,18.373c0.01,0.021,0.014,0.033,0.014,0.033s3.196-9.95,33.343-18.406
						c30.146-8.457,32.889-36.313,32.889-36.313V68.9c0-0.014,0.002-0.027,0.002-0.039c0-0.094,0-0.182,0.002-0.271H119.813
						L119.813,68.591z"/>
				</defs>
				<clipPath id="SVGID_36_">
					<use xlink:href="#SVGID_35_"  overflow="visible"/>
				</clipPath>
				<polygon clip-path="url(#SVGID_36_)" fill="#191818" points="137.739,114.581 130.793,120.727 134.294,112.139 				"/>
			</g>
			<g>
				<defs>
					<path id="SVGID_37_" d="M119.813,68.591H53.592c0.002,0.089,0.004,0.177,0.004,0.271v71.335c0,0,2.74,27.855,32.887,36.313
						c29.143,8.177,33.101,17.746,33.33,18.373c0.01,0.021,0.014,0.033,0.014,0.033s3.196-9.95,33.343-18.406
						c30.146-8.457,32.889-36.313,32.889-36.313V68.9c0-0.014,0.002-0.027,0.002-0.039c0-0.094,0-0.182,0.002-0.271H119.813
						L119.813,68.591z"/>
				</defs>
				<clipPath id="SVGID_38_">
					<use xlink:href="#SVGID_37_"  overflow="visible"/>
				</clipPath>
				<polygon clip-path="url(#SVGID_38_)" fill="#191818" points="144.275,119.238 137.33,125.383 140.83,116.795 				"/>
			</g>
			<g>
				<defs>
					<path id="SVGID_39_" d="M119.813,68.591H53.592c0.002,0.089,0.004,0.177,0.004,0.271v71.335c0,0,2.74,27.855,32.887,36.313
						c29.143,8.177,33.101,17.746,33.33,18.373c0.01,0.021,0.014,0.033,0.014,0.033s3.196-9.95,33.343-18.406
						c30.146-8.457,32.889-36.313,32.889-36.313V68.9c0-0.014,0.002-0.027,0.002-0.039c0-0.094,0-0.182,0.002-0.271H119.813
						L119.813,68.591z"/>
				</defs>
				<clipPath id="SVGID_40_">
					<use xlink:href="#SVGID_39_"  overflow="visible"/>
				</clipPath>
				<polygon clip-path="url(#SVGID_40_)" fill="#191818" points="150.813,123.896 143.865,130.04 147.367,121.452 				"/>
			</g>
			<g>
				<defs>
					<path id="SVGID_41_" d="M119.813,68.591H53.592c0.002,0.089,0.004,0.177,0.004,0.271v71.335c0,0,2.74,27.855,32.887,36.313
						c29.143,8.177,33.101,17.746,33.33,18.373c0.01,0.021,0.014,0.033,0.014,0.033s3.196-9.95,33.343-18.406
						c30.146-8.457,32.889-36.313,32.889-36.313V68.9c0-0.014,0.002-0.027,0.002-0.039c0-0.094,0-0.182,0.002-0.271H119.813
						L119.813,68.591z"/>
				</defs>
				<clipPath id="SVGID_42_">
					<use xlink:href="#SVGID_41_"  overflow="visible"/>
				</clipPath>
				<path clip-path="url(#SVGID_42_)" fill="none" stroke="#191818" stroke-width="4.296" stroke-miterlimit="10" d="M82.34,139.646
					l0.161-5.137l1.021-15.3l0.371-5.574l0.521-7.803l0.173-2.601h23.409c0-5.201,5.202-7.804,5.202-7.804l2.287,1.716l1.875,1.405
					l0.832,0.624l3.9,2.926l26.825,18.854l0.694,0.485c0,0,0.578,0.23,1.563,0.62c0.005,0.001,0.009,0.002,0.011,0.005
					c0.055,0.021,0.108,0.043,0.166,0.064c0.022,0.009,0.049,0.02,0.071,0.029c0.054,0.02,0.106,0.041,0.161,0.063
					c0.014,0.005,0.027,0.012,0.041,0.018c0.061,0.022,0.12,0.048,0.184,0.07c0.021,0.01,0.043,0.019,0.063,0.025
					c0.061,0.024,0.12,0.047,0.184,0.072c0.01,0.004,0.021,0.008,0.03,0.012c0.099,0.039,0.198,0.078,0.301,0.118
					c0.058,0.021,0.111,0.044,0.169,0.065c0.055,0.021,0.11,0.043,0.165,0.065c0.035,0.013,0.069,0.027,0.104,0.041
					c0.062,0.024,0.123,0.048,0.187,0.072c0.032,0.013,0.064,0.024,0.099,0.039c0.056,0.021,0.113,0.044,0.172,0.065
					c0.045,0.02,0.089,0.035,0.135,0.054c0.057,0.021,0.113,0.045,0.172,0.066c0.035,0.014,0.071,0.028,0.105,0.042
					c0.067,0.026,0.136,0.052,0.203,0.079c0.049,0.02,0.097,0.038,0.146,0.056c0.046,0.02,0.091,0.036,0.138,0.056
					c0.084,0.031,0.17,0.064,0.256,0.1c0.021,0.008,0.039,0.015,0.06,0.022c0.089,0.033,0.179,0.068,0.271,0.104
					c0.026,0.011,0.055,0.022,0.084,0.033c0.066,0.025,0.137,0.053,0.207,0.08c0.066,0.025,0.135,0.053,0.202,0.079
					c1.189,0.462,2.503,0.967,3.871,1.486c0.004,0.001,0.007,0.003,0.009,0.003c0.139,0.055,0.276,0.106,0.416,0.158l0.002,0.001
					c0.131,0.05,0.264,0.102,0.396,0.151c0.021,0.007,0.042,0.015,0.063,0.022c0.125,0.048,0.25,0.096,0.375,0.143l0.033,0.013
					c0.137,0.051,0.271,0.104,0.41,0.154c0.002,0.001,0.003,0.002,0.005,0.002c0.138,0.052,0.274,0.103,0.411,0.155l0.038,0.014
					c0.126,0.048,0.253,0.095,0.379,0.144c0.021,0.009,0.044,0.017,0.065,0.023c0.121,0.046,0.244,0.092,0.367,0.138
					c0.021,0.009,0.043,0.018,0.065,0.024c0.119,0.045,0.239,0.09,0.36,0.134l0.078,0.03c0.119,0.044,0.237,0.089,0.357,0.133
					c0.025,0.009,0.05,0.018,0.075,0.028c0.112,0.042,0.229,0.084,0.342,0.126c0.034,0.013,0.067,0.024,0.103,0.038
					c0.11,0.041,0.222,0.082,0.332,0.122c0.033,0.012,0.064,0.022,0.098,0.034c0.111,0.041,0.221,0.082,0.331,0.122
					c0.034,0.015,0.069,0.026,0.104,0.039c0.108,0.04,0.217,0.079,0.325,0.119c0.034,0.013,0.067,0.025,0.104,0.038
					c0.106,0.039,0.213,0.078,0.32,0.117c0.036,0.013,0.072,0.024,0.108,0.04c0.104,0.037,0.205,0.074,0.308,0.109
					c0.04,0.017,0.081,0.03,0.122,0.047c0.103,0.035,0.201,0.07,0.302,0.106c0.041,0.015,0.08,0.03,0.121,0.044
					c0.102,0.037,0.202,0.073,0.305,0.11c0.039,0.013,0.076,0.025,0.115,0.041c0.094,0.034,0.187,0.066,0.278,0.1
					c0.047,0.019,0.097,0.034,0.146,0.052c0.093,0.033,0.185,0.065,0.274,0.1c0.045,0.015,0.089,0.031,0.132,0.046
					c0.104,0.037,0.207,0.073,0.31,0.109c0.03,0.012,0.062,0.021,0.094,0.032c0.097,0.034,0.192,0.068,0.29,0.104
					c0.04,0.014,0.081,0.027,0.121,0.042c0.084,0.029,0.166,0.058,0.249,0.087c0.051,0.018,0.101,0.036,0.151,0.053
					c0.086,0.03,0.172,0.062,0.256,0.089c0.045,0.017,0.09,0.031,0.134,0.047c0.081,0.027,0.159,0.056,0.241,0.082
					c0.049,0.019,0.1,0.035,0.149,0.054c0.075,0.023,0.149,0.051,0.226,0.075c0.051,0.019,0.102,0.034,0.151,0.054
					c0.078,0.024,0.152,0.051,0.229,0.077c0.049,0.016,0.098,0.031,0.146,0.049c0.121,0.041,0.243,0.082,0.363,0.122
					c0.237,0.079,0.469,0.166,0.69,0.26c0.006,0.001,0.01,0.003,0.014,0.004c0.22,0.092,0.434,0.191,0.638,0.296
					c0.009,0.003,0.017,0.006,0.022,0.01c0.201,0.104,0.398,0.214,0.589,0.328c0.01,0.005,0.021,0.011,0.028,0.018
					c0.188,0.112,0.367,0.231,0.543,0.355c0.012,0.008,0.021,0.017,0.033,0.023c0.172,0.122,0.34,0.251,0.5,0.382
					c0.014,0.01,0.024,0.019,0.037,0.029c0.159,0.131,0.313,0.267,0.463,0.404c0.012,0.013,0.023,0.022,0.035,0.033
					c0.146,0.14,0.291,0.283,0.428,0.429c0.012,0.014,0.022,0.023,0.033,0.034c0.137,0.148,0.27,0.3,0.397,0.452
					c0.009,0.011,0.019,0.022,0.028,0.033c0.127,0.155,0.25,0.313,0.369,0.473c0.008,0.01,0.014,0.021,0.021,0.03
					c0.118,0.163,0.233,0.328,0.344,0.495c0.004,0.007,0.011,0.014,0.017,0.021c0.11,0.17,0.217,0.343,0.319,0.518
					c0.002,0.004,0.004,0.008,0.007,0.012c1.157,1.974,1.618,4.133,1.891,5.764v9.458H82.34V139.646z"/>
			</g>
			<g>
				<defs>
					<path id="SVGID_43_" d="M119.813,68.591H53.592c0.002,0.089,0.004,0.177,0.004,0.271v71.335c0,0,2.74,27.855,32.887,36.313
						c29.143,8.177,33.101,17.746,33.33,18.373c0.01,0.021,0.014,0.033,0.014,0.033s3.196-9.95,33.343-18.406
						c30.146-8.457,32.889-36.313,32.889-36.313V68.9c0-0.014,0.002-0.027,0.002-0.039c0-0.094,0-0.182,0.002-0.271H119.813
						L119.813,68.591z"/>
				</defs>
				<clipPath id="SVGID_44_">
					<use xlink:href="#SVGID_43_"  overflow="visible"/>
				</clipPath>
				<path clip-path="url(#SVGID_44_)" fill="#FFFFFF" d="M41.518,139.646l0.16-5.137l1.021-15.3l0.372-5.574l0.52-7.803l0.174-2.601
					h23.408c0-5.201,5.203-7.804,5.203-7.804l2.289,1.716l1.872,1.405l0.832,0.624l3.901,2.926l26.824,18.854l0.695,0.485
					c0,0,0.578,0.23,1.564,0.62c0.003,0.001,0.007,0.002,0.01,0.005c0.055,0.021,0.109,0.043,0.165,0.064
					c0.024,0.009,0.049,0.02,0.073,0.029c0.053,0.02,0.105,0.041,0.16,0.063c0.015,0.005,0.027,0.012,0.043,0.018
					c0.059,0.022,0.119,0.048,0.181,0.07c0.021,0.01,0.043,0.019,0.063,0.025c0.061,0.024,0.121,0.047,0.183,0.072
					c0.011,0.004,0.021,0.008,0.032,0.012c0.098,0.039,0.197,0.078,0.3,0.118c0.057,0.021,0.112,0.044,0.169,0.065
					c0.055,0.021,0.111,0.043,0.166,0.065c0.035,0.013,0.07,0.027,0.105,0.041c0.061,0.024,0.123,0.048,0.185,0.072
					c0.032,0.013,0.065,0.024,0.098,0.039c0.058,0.021,0.114,0.044,0.173,0.065c0.045,0.02,0.088,0.035,0.135,0.054
					c0.057,0.021,0.113,0.045,0.172,0.066c0.035,0.014,0.07,0.028,0.105,0.042c0.067,0.026,0.135,0.052,0.204,0.079
					c0.048,0.02,0.097,0.038,0.144,0.056c0.047,0.02,0.092,0.036,0.139,0.056c0.084,0.031,0.17,0.064,0.257,0.1
					c0.019,0.008,0.038,0.015,0.058,0.022c0.088,0.033,0.178,0.068,0.269,0.104c0.028,0.011,0.056,0.022,0.084,0.033
					c0.069,0.025,0.138,0.053,0.207,0.08c0.067,0.025,0.136,0.053,0.204,0.079c1.189,0.462,2.501,0.967,3.871,1.486
					c0.003,0.001,0.005,0.003,0.008,0.003c0.138,0.055,0.277,0.106,0.416,0.158l0.002,0.001c0.132,0.05,0.264,0.102,0.396,0.151
					c0.021,0.007,0.041,0.015,0.063,0.022c0.125,0.048,0.25,0.096,0.375,0.143c0.012,0.004,0.023,0.009,0.033,0.013
					c0.137,0.051,0.273,0.104,0.41,0.154c0.002,0.001,0.004,0.002,0.006,0.002c0.137,0.052,0.273,0.103,0.41,0.155
					c0.014,0.005,0.025,0.01,0.039,0.014c0.125,0.048,0.252,0.095,0.379,0.144c0.021,0.009,0.043,0.017,0.064,0.023
					c0.122,0.046,0.245,0.092,0.368,0.138c0.021,0.009,0.043,0.018,0.063,0.024l0.36,0.134c0.026,0.01,0.052,0.021,0.079,0.03
					c0.119,0.044,0.238,0.089,0.357,0.133c0.024,0.009,0.051,0.018,0.075,0.028c0.113,0.042,0.228,0.084,0.343,0.126
					c0.032,0.013,0.067,0.024,0.102,0.038c0.109,0.041,0.221,0.082,0.331,0.122c0.032,0.012,0.065,0.022,0.099,0.034
					c0.11,0.041,0.221,0.082,0.33,0.122c0.035,0.015,0.07,0.026,0.105,0.039c0.109,0.04,0.217,0.079,0.326,0.119
					c0.032,0.013,0.067,0.025,0.103,0.038c0.106,0.039,0.214,0.078,0.321,0.117c0.035,0.013,0.072,0.024,0.109,0.04
					c0.103,0.037,0.204,0.074,0.307,0.109c0.041,0.017,0.082,0.03,0.123,0.047c0.102,0.035,0.201,0.07,0.301,0.106
					c0.04,0.015,0.08,0.03,0.121,0.044c0.102,0.037,0.203,0.073,0.305,0.11c0.038,0.013,0.076,0.025,0.115,0.041
					c0.094,0.034,0.186,0.066,0.279,0.1c0.047,0.019,0.096,0.034,0.145,0.052c0.092,0.033,0.184,0.065,0.275,0.1
					c0.043,0.015,0.088,0.031,0.131,0.046c0.104,0.037,0.207,0.073,0.309,0.109c0.031,0.012,0.063,0.021,0.094,0.032
					c0.098,0.034,0.193,0.068,0.291,0.104c0.039,0.014,0.08,0.027,0.121,0.042c0.084,0.029,0.166,0.058,0.248,0.087
					c0.051,0.018,0.104,0.036,0.152,0.053c0.086,0.03,0.171,0.062,0.256,0.089c0.045,0.017,0.09,0.031,0.133,0.047
					c0.082,0.027,0.16,0.056,0.241,0.082c0.05,0.019,0.101,0.035,0.149,0.054c0.076,0.023,0.149,0.051,0.226,0.075
					c0.052,0.019,0.103,0.034,0.153,0.054c0.076,0.024,0.152,0.051,0.229,0.077c0.049,0.016,0.098,0.031,0.146,0.049
					c0.123,0.041,0.242,0.082,0.363,0.122c0.238,0.079,0.469,0.166,0.693,0.26c0.002,0.001,0.006,0.003,0.01,0.004
					c0.221,0.092,0.434,0.191,0.639,0.296c0.009,0.003,0.016,0.006,0.021,0.01c0.203,0.104,0.398,0.214,0.59,0.328
					c0.01,0.005,0.02,0.011,0.028,0.018c0.187,0.112,0.368,0.231,0.543,0.355c0.011,0.008,0.022,0.017,0.033,0.023
					c0.173,0.122,0.34,0.251,0.502,0.382c0.011,0.01,0.022,0.019,0.034,0.029c0.16,0.131,0.313,0.267,0.464,0.404
					c0.013,0.013,0.024,0.022,0.034,0.033c0.147,0.14,0.291,0.283,0.43,0.429c0.012,0.014,0.021,0.023,0.031,0.034
					c0.139,0.148,0.271,0.3,0.397,0.452c0.011,0.011,0.021,0.022,0.028,0.033c0.128,0.155,0.251,0.313,0.369,0.473
					c0.008,0.01,0.015,0.021,0.021,0.03c0.119,0.163,0.233,0.328,0.344,0.495c0.006,0.007,0.011,0.014,0.016,0.021
					c0.111,0.17,0.218,0.343,0.32,0.518c0.002,0.004,0.004,0.008,0.007,0.012c1.157,1.974,1.618,4.133,1.891,5.764v9.458H41.517
					L41.518,139.646L41.518,139.646z"/>
			</g>
			<g>
				<defs>
					<path id="SVGID_45_" d="M119.813,68.591H53.592c0.002,0.089,0.004,0.177,0.004,0.271v71.335c0,0,2.74,27.855,32.887,36.313
						c29.143,8.177,33.101,17.746,33.33,18.373c0.01,0.021,0.014,0.033,0.014,0.033s3.196-9.95,33.343-18.406
						c30.146-8.457,32.889-36.313,32.889-36.313V68.9c0-0.014,0.002-0.027,0.002-0.039c0-0.094,0-0.182,0.002-0.271H119.813
						L119.813,68.591z"/>
				</defs>
				<clipPath id="SVGID_46_">
					<use xlink:href="#SVGID_45_"  overflow="visible"/>
				</clipPath>
				<path clip-path="url(#SVGID_46_)" fill="#F8D016" d="M110.947,135.269l-43.409-30.932l4.507-7.193l11.639,9.148l27.282,18.479
					l0.747,0.507c0,0,2.848,1.103,6.743,2.561l0.008,0.032L110.947,135.269z"/>
			</g>
			<g>
				<defs>
					<path id="SVGID_47_" d="M119.813,68.591H53.592c0.002,0.089,0.004,0.177,0.004,0.271v71.335c0,0,2.74,27.855,32.887,36.313
						c29.143,8.177,33.101,17.746,33.33,18.373c0.01,0.021,0.014,0.033,0.014,0.033s3.196-9.95,33.343-18.406
						c30.146-8.457,32.889-36.313,32.889-36.313V68.9c0-0.014,0.002-0.027,0.002-0.039c0-0.094,0-0.182,0.002-0.271H119.813
						L119.813,68.591z"/>
				</defs>
				<clipPath id="SVGID_48_">
					<use xlink:href="#SVGID_47_"  overflow="visible"/>
				</clipPath>
				<path clip-path="url(#SVGID_48_)" fill="#F8D016" d="M108.811,122.522c0.563,0.225,13.158,5.252,20.785,7.794
					c3.854,1.284,5.803,4.472,6.789,7.368H97.707L108.811,122.522z"/>
			</g>
			<g>
				<defs>
					<path id="SVGID_49_" d="M119.813,68.591H53.592c0.002,0.089,0.004,0.177,0.004,0.271v71.335c0,0,2.74,27.855,32.887,36.313
						c29.143,8.177,33.101,17.746,33.33,18.373c0.01,0.021,0.014,0.033,0.014,0.033s3.196-9.95,33.343-18.406
						c30.146-8.457,32.889-36.313,32.889-36.313V68.9c0-0.014,0.002-0.027,0.002-0.039c0-0.094,0-0.182,0.002-0.271H119.813
						L119.813,68.591z"/>
				</defs>
				<clipPath id="SVGID_50_">
					<use xlink:href="#SVGID_49_"  overflow="visible"/>
				</clipPath>
				<polygon clip-path="url(#SVGID_50_)" fill="#191818" points="83.844,105.268 76.897,111.413 80.398,102.824 				"/>
			</g>
			<g>
				<defs>
					<path id="SVGID_51_" d="M119.813,68.591H53.592c0.002,0.089,0.004,0.177,0.004,0.271v71.335c0,0,2.74,27.855,32.887,36.313
						c29.143,8.177,33.101,17.746,33.33,18.373c0.01,0.021,0.014,0.033,0.014,0.033s3.196-9.95,33.343-18.406
						c30.146-8.457,32.889-36.313,32.889-36.313V68.9c0-0.014,0.002-0.027,0.002-0.039c0-0.094,0-0.182,0.002-0.271H119.813
						L119.813,68.591z"/>
				</defs>
				<clipPath id="SVGID_52_">
					<use xlink:href="#SVGID_51_"  overflow="visible"/>
				</clipPath>
				<polygon clip-path="url(#SVGID_52_)" fill="#191818" points="90.381,109.925 83.434,116.069 86.936,107.481 				"/>
			</g>
			<g>
				<defs>
					<path id="SVGID_53_" d="M119.813,68.591H53.592c0.002,0.089,0.004,0.177,0.004,0.271v71.335c0,0,2.74,27.855,32.887,36.313
						c29.143,8.177,33.101,17.746,33.33,18.373c0.01,0.021,0.014,0.033,0.014,0.033s3.196-9.95,33.343-18.406
						c30.146-8.457,32.889-36.313,32.889-36.313V68.9c0-0.014,0.002-0.027,0.002-0.039c0-0.094,0-0.182,0.002-0.271H119.813
						L119.813,68.591z"/>
				</defs>
				<clipPath id="SVGID_54_">
					<use xlink:href="#SVGID_53_"  overflow="visible"/>
				</clipPath>
				
					<line clip-path="url(#SVGID_54_)" fill="none" stroke="#191818" stroke-width="2.148" stroke-miterlimit="10" x1="136.385" y1="138.491" x2="41.518" y2="138.491"/>
			</g>
			<g>
				<defs>
					<path id="SVGID_55_" d="M119.813,68.591H53.592c0.002,0.089,0.004,0.177,0.004,0.271v71.335c0,0,2.74,27.855,32.887,36.313
						c29.143,8.177,33.101,17.746,33.33,18.373c0.01,0.021,0.014,0.033,0.014,0.033s3.196-9.95,33.343-18.406
						c30.146-8.457,32.889-36.313,32.889-36.313V68.9c0-0.014,0.002-0.027,0.002-0.039c0-0.094,0-0.182,0.002-0.271H119.813
						L119.813,68.591z"/>
				</defs>
				<clipPath id="SVGID_56_">
					<use xlink:href="#SVGID_55_"  overflow="visible"/>
				</clipPath>
				<polygon clip-path="url(#SVGID_56_)" fill="#191818" points="96.916,114.581 89.971,120.727 93.471,112.139 				"/>
			</g>
			<g>
				<defs>
					<path id="SVGID_57_" d="M119.813,68.591H53.592c0.002,0.089,0.004,0.177,0.004,0.271v71.335c0,0,2.74,27.855,32.887,36.313
						c29.143,8.177,33.101,17.746,33.33,18.373c0.01,0.021,0.014,0.033,0.014,0.033s3.196-9.95,33.343-18.406
						c30.146-8.457,32.889-36.313,32.889-36.313V68.9c0-0.014,0.002-0.027,0.002-0.039c0-0.094,0-0.182,0.002-0.271H119.813
						L119.813,68.591z"/>
				</defs>
				<clipPath id="SVGID_58_">
					<use xlink:href="#SVGID_57_"  overflow="visible"/>
				</clipPath>
				<polygon clip-path="url(#SVGID_58_)" fill="#191818" points="103.453,119.238 96.507,125.383 100.008,116.795 				"/>
			</g>
			<g>
				<defs>
					<path id="SVGID_59_" d="M119.813,68.591H53.592c0.002,0.089,0.004,0.177,0.004,0.271v71.335c0,0,2.74,27.855,32.887,36.313
						c29.143,8.177,33.101,17.746,33.33,18.373c0.01,0.021,0.014,0.033,0.014,0.033s3.196-9.95,33.343-18.406
						c30.146-8.457,32.889-36.313,32.889-36.313V68.9c0-0.014,0.002-0.027,0.002-0.039c0-0.094,0-0.182,0.002-0.271H119.813
						L119.813,68.591z"/>
				</defs>
				<clipPath id="SVGID_60_">
					<use xlink:href="#SVGID_59_"  overflow="visible"/>
				</clipPath>
				<polygon clip-path="url(#SVGID_60_)" fill="#191818" points="109.99,123.896 103.043,130.04 106.545,121.452 				"/>
			</g>
			<g>
				<defs>
					<path id="SVGID_61_" d="M119.813,68.591H53.592c0.002,0.089,0.004,0.177,0.004,0.271v71.335c0,0,2.74,27.855,32.887,36.313
						c29.143,8.177,33.101,17.746,33.33,18.373c0.01,0.021,0.014,0.033,0.014,0.033s3.196-9.95,33.343-18.406
						c30.146-8.457,32.889-36.313,32.889-36.313V68.9c0-0.014,0.002-0.027,0.002-0.039c0-0.094,0-0.182,0.002-0.271H119.813
						L119.813,68.591z"/>
				</defs>
				<clipPath id="SVGID_62_">
					<use xlink:href="#SVGID_61_"  overflow="visible"/>
				</clipPath>
				<path clip-path="url(#SVGID_62_)" fill="none" stroke="#191818" stroke-width="4.296" stroke-miterlimit="10" d="
					M41.518,139.646l0.16-5.137l1.021-15.3l0.372-5.574l0.52-7.803l0.174-2.601h23.408c0-5.201,5.203-7.804,5.203-7.804l2.289,1.716
					l1.872,1.405l0.832,0.624l3.901,2.926l26.824,18.854l0.695,0.485c0,0,0.578,0.23,1.564,0.62c0.003,0.001,0.007,0.002,0.01,0.005
					c0.055,0.021,0.109,0.043,0.165,0.064c0.024,0.009,0.049,0.02,0.073,0.029c0.053,0.02,0.105,0.041,0.16,0.063
					c0.015,0.005,0.027,0.012,0.043,0.018c0.059,0.022,0.119,0.048,0.181,0.07c0.021,0.01,0.043,0.019,0.063,0.025
					c0.061,0.024,0.121,0.047,0.183,0.072c0.011,0.004,0.021,0.008,0.032,0.012c0.098,0.039,0.197,0.078,0.3,0.118
					c0.057,0.021,0.112,0.044,0.169,0.065c0.055,0.021,0.111,0.043,0.166,0.065c0.035,0.013,0.07,0.027,0.105,0.041
					c0.061,0.024,0.123,0.048,0.185,0.072c0.032,0.013,0.065,0.024,0.098,0.039c0.058,0.021,0.114,0.044,0.173,0.065
					c0.045,0.02,0.088,0.035,0.135,0.054c0.057,0.021,0.113,0.045,0.172,0.066c0.035,0.014,0.07,0.028,0.105,0.042
					c0.067,0.026,0.135,0.052,0.204,0.079c0.048,0.02,0.097,0.038,0.144,0.056c0.047,0.02,0.092,0.036,0.139,0.056
					c0.084,0.031,0.17,0.064,0.257,0.1c0.019,0.008,0.038,0.015,0.058,0.022c0.088,0.033,0.178,0.068,0.269,0.104
					c0.028,0.011,0.056,0.022,0.084,0.033c0.069,0.025,0.138,0.053,0.207,0.08c0.067,0.025,0.136,0.053,0.204,0.079
					c1.189,0.462,2.501,0.967,3.871,1.486c0.003,0.001,0.005,0.003,0.008,0.003c0.138,0.055,0.277,0.106,0.416,0.158l0.002,0.001
					c0.132,0.05,0.264,0.102,0.396,0.151c0.021,0.007,0.041,0.015,0.063,0.022c0.125,0.048,0.25,0.096,0.375,0.143
					c0.012,0.004,0.023,0.009,0.033,0.013c0.137,0.051,0.273,0.104,0.41,0.154c0.002,0.001,0.004,0.002,0.006,0.002
					c0.137,0.052,0.273,0.103,0.41,0.155c0.014,0.005,0.025,0.01,0.039,0.014c0.125,0.048,0.252,0.095,0.379,0.144
					c0.021,0.009,0.043,0.017,0.064,0.023c0.122,0.046,0.245,0.092,0.368,0.138c0.021,0.009,0.043,0.018,0.063,0.024l0.36,0.134
					c0.026,0.01,0.052,0.021,0.079,0.03c0.119,0.044,0.238,0.089,0.357,0.133c0.024,0.009,0.051,0.018,0.075,0.028
					c0.113,0.042,0.228,0.084,0.343,0.126c0.032,0.013,0.067,0.024,0.102,0.038c0.109,0.041,0.221,0.082,0.331,0.122
					c0.032,0.012,0.065,0.022,0.099,0.034c0.11,0.041,0.221,0.082,0.33,0.122c0.035,0.015,0.07,0.026,0.105,0.039
					c0.109,0.04,0.217,0.079,0.326,0.119c0.032,0.013,0.067,0.025,0.103,0.038c0.106,0.039,0.214,0.078,0.321,0.117
					c0.035,0.013,0.072,0.024,0.109,0.04c0.103,0.037,0.204,0.074,0.307,0.109c0.041,0.017,0.082,0.03,0.123,0.047
					c0.102,0.035,0.201,0.07,0.301,0.106c0.04,0.015,0.08,0.03,0.121,0.044c0.102,0.037,0.203,0.073,0.305,0.11
					c0.038,0.013,0.076,0.025,0.115,0.041c0.094,0.034,0.186,0.066,0.279,0.1c0.047,0.019,0.096,0.034,0.145,0.052
					c0.092,0.033,0.184,0.065,0.275,0.1c0.043,0.015,0.088,0.031,0.131,0.046c0.104,0.037,0.207,0.073,0.309,0.109
					c0.031,0.012,0.063,0.021,0.094,0.032c0.098,0.034,0.193,0.068,0.291,0.104c0.039,0.014,0.08,0.027,0.121,0.042
					c0.084,0.029,0.166,0.058,0.248,0.087c0.051,0.018,0.104,0.036,0.152,0.053c0.086,0.03,0.171,0.062,0.256,0.089
					c0.045,0.017,0.09,0.031,0.133,0.047c0.082,0.027,0.16,0.056,0.241,0.082c0.05,0.019,0.101,0.035,0.149,0.054
					c0.076,0.023,0.149,0.051,0.226,0.075c0.052,0.019,0.103,0.034,0.153,0.054c0.076,0.024,0.152,0.051,0.229,0.077
					c0.049,0.016,0.098,0.031,0.146,0.049c0.123,0.041,0.242,0.082,0.363,0.122c0.238,0.079,0.469,0.166,0.693,0.26
					c0.002,0.001,0.006,0.003,0.01,0.004c0.221,0.092,0.434,0.191,0.639,0.296c0.009,0.003,0.016,0.006,0.021,0.01
					c0.203,0.104,0.398,0.214,0.59,0.328c0.01,0.005,0.02,0.011,0.028,0.018c0.187,0.112,0.368,0.231,0.543,0.355
					c0.011,0.008,0.022,0.017,0.033,0.023c0.173,0.122,0.34,0.251,0.502,0.382c0.011,0.01,0.022,0.019,0.034,0.029
					c0.16,0.131,0.313,0.267,0.464,0.404c0.013,0.013,0.024,0.022,0.034,0.033c0.147,0.14,0.291,0.283,0.43,0.429
					c0.012,0.014,0.021,0.023,0.031,0.034c0.139,0.148,0.271,0.3,0.397,0.452c0.011,0.011,0.021,0.022,0.028,0.033
					c0.128,0.155,0.251,0.313,0.369,0.473c0.008,0.01,0.015,0.021,0.021,0.03c0.119,0.163,0.233,0.328,0.344,0.495
					c0.006,0.007,0.011,0.014,0.016,0.021c0.111,0.17,0.218,0.343,0.32,0.518c0.002,0.004,0.004,0.008,0.007,0.012
					c1.157,1.974,1.618,4.133,1.891,5.764v9.458H41.517L41.518,139.646L41.518,139.646z"/>
			</g>
			<g>
				<defs>
					<path id="SVGID_63_" d="M119.813,68.591H53.592c0.002,0.089,0.004,0.177,0.004,0.271v71.335c0,0,2.74,27.855,32.887,36.313
						c29.143,8.177,33.101,17.746,33.33,18.373c0.01,0.021,0.014,0.033,0.014,0.033s3.196-9.95,33.343-18.406
						c30.146-8.457,32.889-36.313,32.889-36.313V68.9c0-0.014,0.002-0.027,0.002-0.039c0-0.094,0-0.182,0.002-0.271H119.813
						L119.813,68.591z"/>
				</defs>
				<clipPath id="SVGID_64_">
					<use xlink:href="#SVGID_63_"  overflow="visible"/>
				</clipPath>
				<polygon clip-path="url(#SVGID_64_)" fill="#F8D016" points="68.979,115.355 82.277,122.134 78.725,124.908 84.983,131.462 
					71.684,124.684 75.238,121.908 				"/>
			</g>
		</g>
		<path clip-path="url(#SVGID_6_)" fill="#191818" d="M181.318,43.61l3.394,5.225c-3.476,4.13-6.325,10.43-6.392,19.499l-0.002,0.06
			v0.03v0.024l-0.002,0.172v0.04v0.039v71.372c-0.438,2.98-4.16,22.673-27.062,29.098c-5.879,1.649-21.528,6.528-31.393,14.107
			c-5.686-4.469-15.25-9.594-31.342-14.107c-22.9-6.425-26.625-26.116-27.061-29.098V68.66l-0.002-0.268l-0.001-0.067
			c-0.067-9.064-2.915-15.362-6.392-19.49l3.393-5.225H86.49h23.781h9.197h33.815H181.318 M185.861,35.244h-32.575h-33.815h-9.197
			H86.493H53.917L43.883,50.698c0,0,9.101,2.806,9.21,17.688c0.002,0.091,0.004,0.182,0.004,0.272v71.939
			c0,0,2.764,28.096,33.166,36.624c29.393,8.245,33.383,17.896,33.615,18.528c0.008,0.022,0.012,0.033,0.012,0.033
			s3.225-10.034,33.627-18.563c30.401-8.528,33.166-36.624,33.166-36.624v-71.9c0-0.014,0.002-0.025,0.002-0.039
			c0-0.092,0.002-0.183,0.002-0.272c0.109-14.884,9.211-17.688,9.211-17.688L185.861,35.244z"/>
	</g>
</g>
</svg>
