<?xml version="1.0" encoding="utf-8"?>
<!-- Generator: Adobe Illustrator 16.0.0, SVG Export Plug-In . SVG Version: 6.00 Build 0)  -->
<!DOCTYPE svg PUBLIC "-//W3C//DTD SVG 1.1//EN" "http://www.w3.org/Graphics/SVG/1.1/DTD/svg11.dtd">
<svg version="1.1" id="Layer_1" xmlns="http://www.w3.org/2000/svg" xmlns:xlink="http://www.w3.org/1999/xlink" x="0px" y="0px"
	 width="612px" height="792px" viewBox="0 0 612 792" enable-background="new 0 0 612 792" xml:space="preserve">
<path fill="#010101" d="M230.472,460.246c0.916-0.017,1.783-0.026,2.638,0.015c-3.211-4.571-2.29-10.164-4.058-15.119l0.017-0.219
	c5.329,2.008,8.124,6.7,10.731,11.657c1.862,3.592,3.683,7.273,6.339,9.993c-1.109,0.08-2.153,0.229-3.234,0.389
	c-1.122,0.163-2.274,0.386-3.435,0.691c-2.306,0.136-4.581,0.238-6.732,0.167c-4.035-0.171-7.795-0.854-11.037-2.605
	c-1.501-0.798-2.901-1.85-4.131-3.161c0.949-0.154,1.992-0.342,3.028-0.524C223.862,460.975,227.297,460.404,230.472,460.246"/>
<path fill="#010101" d="M220.417,442.7c1.062,1.399,2.535,2.593,3.517,4.192c0.274,0.794,0.599,1.55,0.922,2.329
	c0.784,2.099,1.378,4.127,0.792,5.831c-2.665-1.042-5.366-2.283-7.721-4.483c-1.341-1.617-2.338-3.36-3.035-5.244
	c-1.11-2.955-2.27-11.93-1.892-15.325c0.008-0.114,0.849,5.558,0.841,5.483l0.3-0.285c0.113,0.265,0.263,0.539,0.409,0.824
	C215.976,438.62,218.062,440.5,220.417,442.7"/>
<path fill="#010101" d="M380.596,460.246c-0.916-0.017-1.783-0.026-2.638,0.015c3.211-4.571,2.29-10.164,4.058-15.119l-0.017-0.219
	c-5.329,2.008-8.124,6.7-10.731,11.657c-1.861,3.592-3.683,7.273-6.339,9.993c1.109,0.08,2.153,0.229,3.234,0.389
	c1.122,0.163,2.274,0.386,3.435,0.691c2.307,0.136,4.581,0.238,6.732,0.167c4.035-0.171,7.795-0.854,11.037-2.605
	c1.501-0.798,2.902-1.85,4.131-3.161c-0.949-0.154-1.992-0.342-3.028-0.524C387.205,460.975,383.771,460.404,380.596,460.246"/>
<path fill="#010101" d="M392.077,442.7c-1.062,1.399-2.535,2.593-3.517,4.192c-0.274,0.794-0.6,1.55-0.923,2.329
	c-0.784,2.099-1.378,4.127-0.792,5.831c2.665-1.042,5.366-2.283,7.722-4.483c1.341-1.617,2.338-3.36,3.034-5.244
	c1.11-2.955,1.454-6.194,1.076-9.59c-0.008-0.114-0.033-0.178-0.024-0.252l-0.3-0.285c-0.113,0.265-0.264,0.539-0.409,0.824
	C396.518,438.62,394.432,440.5,392.077,442.7"/>
<rect x="258.989" y="426.861" fill="#010101" width="85" height="43.667"/>
<polygon fill="#010101" points="332.29,456.025 358.127,447.046 345.054,437.266 293.546,461.528 "/>
<polygon fill="#010101" points="305.546,462.528 248.851,447.046 261.924,437.266 310.046,459.028 "/>
<polygon fill="#FFFFFF" points="355.803,478.863 303.51,493.046 251.217,477.358 251.217,449.837 303.51,459.525 355.803,449.837 
	"/>
<polygon fill="none" stroke="#010101" stroke-width="4.515" stroke-miterlimit="10" points="355.803,478.863 303.51,491.646 
	251.217,478.863 251.217,449.837 303.51,458.62 355.803,449.837 "/>
<path fill="#FECF0A" d="M303.829,332.388h-66.784c0.001,0.091,0.003,0.181,0.003,0.272v71.94c0,0,2.763,28.095,33.166,36.624
	c29.392,8.245,33.382,17.896,33.615,18.529c0.008,0.021,0.012,0.032,0.012,0.032s3.224-10.034,33.627-18.562
	c30.401-8.529,33.166-36.624,33.166-36.624v-71.901c0-0.013,0.001-0.025,0.001-0.039c0-0.092,0.002-0.182,0.003-0.272H303.829z"/>
<g opacity="0.5">
	<g>
		<defs>
			<rect id="SVGID_1_" x="303.83" y="332.39" width="66.81" height="127.4"/>
		</defs>
		<clipPath id="SVGID_2_">
			<use xlink:href="#SVGID_1_"  overflow="visible"/>
		</clipPath>
		<path clip-path="url(#SVGID_2_)" fill="#CDA72C" d="M337.468,441.224c30.401-8.528,33.165-36.624,33.165-36.624v-71.9
			c0-0.014,0.002-0.026,0.002-0.039c0-0.092,0.002-0.182,0.003-0.273h-66.81v127.366c0.008,0.022,0.012,0.034,0.012,0.034
			S307.064,449.753,337.468,441.224"/>
	</g>
</g>
<path fill="#191818" d="M365.271,307.61l3.393,5.225c-2.296,2.726-4.316,6.396-5.445,11.187H244.463
	c-1.128-4.79-3.148-8.461-5.445-11.187l3.393-5.225h28.033h23.781h9.198h33.815H365.271 M369.814,299.244h-32.576h-33.815h-9.198
	h-23.781h-32.576l-10.034,15.454c0,0,9.1,2.806,9.21,17.689h133.593c0.111-14.884,9.211-17.689,9.211-17.689L369.814,299.244z"/>
<g opacity="0.4">
	<g>
		<defs>
			<rect id="SVGID_3_" x="227.83" y="299.24" width="152.02" height="160.55"/>
		</defs>
		<clipPath id="SVGID_4_">
			<use xlink:href="#SVGID_3_"  overflow="visible"/>
		</clipPath>
		<path clip-path="url(#SVGID_4_)" fill="#FFFFFF" d="M361.844,313.041c-2.641,4.354-4.928,10.602-5.003,19.224l-0.001,0.03
			l-0.003,0.295v0.055v0.055v70.951c-0.223,1.223-1.069,5.082-3.448,9.367c-4.105,7.396-10.717,12.417-19.647,14.923
			c-13.944,3.912-23.452,8.354-29.929,12.659c-6.467-4.301-15.954-8.755-29.872-12.659c-8.597-2.412-15.05-7.16-19.184-14.113
			c-2.709-4.559-3.653-8.787-3.913-10.226V332.66l-0.003-0.376c-0.064-8.624-2.355-14.881-5.003-19.243h24.606h23.781h9.198h33.815
			H361.844 M369.814,299.244h-32.576h-33.815h-9.198h-23.781h-32.576l-10.034,15.454c0,0,9.1,2.806,9.21,17.689
			c0.001,0.091,0.003,0.181,0.003,0.272v71.94c0,0,2.764,28.095,33.166,36.624c29.394,8.245,33.383,17.896,33.615,18.528
			c0.008,0.022,0.012,0.033,0.012,0.033s3.226-10.034,33.627-18.562c30.403-8.529,33.167-36.624,33.167-36.624v-71.901
			c0-0.013,0.001-0.025,0.001-0.039c0-0.092,0.002-0.182,0.002-0.272c0.111-14.884,9.211-17.689,9.211-17.689L369.814,299.244z"/>
	</g>
</g>
<path fill="#1A1A19" d="M379.848,314.698l-10.034-15.454h-32.575h-33.815h-9.198h-23.781h-32.575l-10.034,15.454
	c0,0,9.099,2.807,9.21,17.688v7.526h133.593v-7.526C370.749,317.505,379.848,314.698,379.848,314.698"/>
<path fill="#FFFFFF" d="M259.844,325.586l2.438-2.589c1.054,1.385,2.469,2.168,4.185,2.168c1.927,0,3.041-1.476,3.041-3.161
	c0-1.987-1.054-3.161-2.86-3.161c-1.354,0-2.379,0.481-3.312,1.655l-2.92-0.782v-11.41h12.042v3.553h-8.008v5.147
	c0.783-0.963,2.138-1.655,3.673-1.655c3.04,0,5.479,2.378,5.479,6.532c0,4.035-2.739,6.865-7.014,6.865
	C263.486,328.748,261.349,327.604,259.844,325.586"/>
<path fill="#FFFFFF" d="M282.66,328.387v-20.081h6.473c5.539,0,8.73,4.155,8.73,10.056s-3.161,10.025-8.73,10.025H282.66z
	 M293.739,318.361c0-3.975-1.565-6.503-4.606-6.503h-2.438v12.976h2.438C292.113,324.834,293.739,322.185,293.739,318.361"/>
<path fill="#FFFFFF" d="M310.565,328.387l-0.933-3.553h-6.172l-0.933,3.553h-4.365l5.961-20.081H309l5.961,20.081H310.565z
	 M306.562,312.551l-2.288,8.73h4.576L306.562,312.551z"/>
<polygon fill="#FFFFFF" points="319.564,328.387 319.564,320.107 313.363,308.306 317.818,308.306 321.582,316.374 325.344,308.306 
	329.801,308.306 323.599,320.107 323.599,328.387 "/>
<path fill="#FFFFFF" d="M329.769,326.158l1.987-3.101c1.113,1.234,2.859,2.138,4.847,2.138c1.776,0,2.74-0.994,2.74-2.229
	c0-3.521-8.972-2.317-8.972-9.121c0-3.162,2.469-5.871,6.623-5.871c2.438,0,4.545,0.783,6.081,2.228l-1.927,3.011
	c-1.204-1.144-2.739-1.686-4.305-1.686c-1.445,0-2.349,0.813-2.349,2.047c0,3.131,8.941,2.288,8.941,9.063
	c0,3.521-2.408,6.111-6.804,6.111C333.593,328.748,331.364,327.754,329.769,326.158"/>
<polygon fill="#1A1A19" points="287.763,480.976 287.763,468.629 285.238,471.253 283.313,469.229 288.213,464.305 291.137,464.305 
	291.137,480.976 "/>
<path fill="#1A1A19" d="M293.413,472.652c0-4.299,1.774-8.598,5.898-8.598c4.149,0,5.899,4.299,5.899,8.598
	c0,4.273-1.725,8.623-5.899,8.623C295.188,481.275,293.413,476.926,293.413,472.652 M301.812,472.652c0-3.225-0.55-5.623-2.5-5.623
	c-1.924,0-2.474,2.398-2.474,5.623c0,3.199,0.55,5.648,2.474,5.648C301.262,478.301,301.812,475.852,301.812,472.652"/>
<polygon fill="#1A1A19" points="315.886,480.976 312.037,474.453 310.862,476.302 310.862,480.976 307.513,480.976 307.513,464.305 
	310.862,464.305 310.862,471.877 315.561,464.305 319.46,464.305 314.136,472.152 319.835,480.976 "/>
<g>
	<defs>
		<path id="SVGID_5_" d="M303.765,332.591h-66.22c0,0.089,0.002,0.177,0.002,0.27v71.335c0,0,2.741,27.856,32.887,36.313
			c29.145,8.177,33.1,17.746,33.331,18.373c0.008,0.021,0.013,0.033,0.013,0.033s3.198-9.95,33.344-18.406
			c30.146-8.457,32.886-36.313,32.886-36.313v-71.296c0-0.013,0.003-0.027,0.003-0.039c0-0.093,0.001-0.181,0.001-0.27H303.765z"/>
	</defs>
	<clipPath id="SVGID_6_">
		<use xlink:href="#SVGID_5_"  overflow="visible"/>
	</clipPath>
	<g opacity="0.5" clip-path="url(#SVGID_6_)">
		<g>
			<defs>
				<rect id="SVGID_7_" x="236.22" y="399.87" width="130.771" height="27.61"/>
			</defs>
			<clipPath id="SVGID_8_">
				<use xlink:href="#SVGID_7_"  overflow="visible"/>
			</clipPath>
			<path clip-path="url(#SVGID_8_)" fill="#CDA72C" d="M352.983,399.87c0,0-9.745,8.382-7.763,7.194c0,0-1.287,7.67-7.59,7.401
				c-6.303-0.267-8.125,9.171-7.882,11.126c0,0,3.949-4.619,10.466-2.967c6.517,1.654,10.058-2.413,10.936-3.702
				c0,0-2.33,7.688-6.85,8.269c0,0,11.194,2.166,15.59-5.346c4.395-7.514,6.612-16.36,7.084-17.155
				C367.445,403.896,352.983,399.87,352.983,399.87"/>
			<path clip-path="url(#SVGID_8_)" fill="#CDA72C" d="M340.16,421.278c0,0-7.975,1.536-6.607,1.02c0,0-4.303-2.372-6.645,0.854
				c-2.341,3.226-7.729,0.425-8.602-0.463c0,0,3.837-0.144,5.576-4.02c1.738-3.875,5.142-4.033,6.124-3.961
				c0,0-4.72-1.863-6.781,0.146c0,0,3.319-6.393,8.765-5.62c5.444,0.771,10.695,3.145,11.274,3.224
				C343.843,412.537,340.16,421.278,340.16,421.278"/>
			<path clip-path="url(#SVGID_8_)" fill="#CDA72C" d="M320.648,399.87c0,0-9.745,8.382-7.763,7.194c0,0-1.288,7.67-7.591,7.401
				c-6.303-0.267-8.125,9.171-7.882,11.126c0,0,3.95-4.619,10.467-2.967c6.517,1.654,10.058-2.413,10.936-3.702
				c0,0-2.33,7.688-6.85,8.269c0,0,11.194,2.166,15.589-5.346c4.396-7.514,6.613-16.36,7.084-17.155
				C335.11,403.896,320.648,399.87,320.648,399.87"/>
			<path clip-path="url(#SVGID_8_)" fill="#CDA72C" d="M307.825,421.278c0,0-7.975,1.536-6.609,1.02c0,0-4.302-2.372-6.643,0.854
				c-2.341,3.226-7.73,0.425-8.603-0.463c0,0,3.838-0.144,5.577-4.02c1.738-3.875,5.142-4.033,6.124-3.961
				c0,0-4.72-1.863-6.781,0.146c0,0,3.319-6.393,8.764-5.62c5.445,0.771,10.696,3.145,11.275,3.224
				C311.508,412.537,307.825,421.278,307.825,421.278"/>
			<path clip-path="url(#SVGID_8_)" fill="#CDA72C" d="M295.277,399.87c0,0-9.745,8.382-7.762,7.194c0,0-1.288,7.67-7.591,7.401
				c-6.302-0.267-8.125,9.171-7.882,11.126c0,0,3.95-4.619,10.467-2.967c6.516,1.654,10.057-2.413,10.935-3.702
				c0,0-2.33,7.688-6.849,8.269c0,0,11.194,2.166,15.589-5.346c4.395-7.514,6.612-16.36,7.084-17.155
				C309.739,403.896,295.277,399.87,295.277,399.87"/>
			<path clip-path="url(#SVGID_8_)" fill="#CDA72C" d="M282.455,421.278c0,0-7.975,1.536-6.609,1.02c0,0-4.302-2.372-6.644,0.854
				c-2.341,3.226-7.729,0.425-8.602-0.463c0,0,3.837-0.144,5.576-4.02c1.738-3.875,5.142-4.033,6.124-3.961
				c0,0-4.72-1.863-6.781,0.146c0,0,3.32-6.393,8.765-5.62c5.444,0.771,10.695,3.145,11.274,3.224
				C286.137,412.537,282.455,421.278,282.455,421.278"/>
			<path clip-path="url(#SVGID_8_)" fill="#CDA72C" d="M270.901,399.87c0,0-9.745,8.382-7.762,7.194c0,0-1.288,7.67-7.591,7.401
				c-6.303-0.267-8.125,9.171-7.882,11.126c0,0,3.95-4.619,10.467-2.967c6.516,1.654,10.057-2.413,10.935-3.702
				c0,0-2.33,7.688-6.849,8.269c0,0,11.194,2.166,15.589-5.346c4.395-7.514,6.613-16.36,7.084-17.155
				C285.363,403.896,270.901,399.87,270.901,399.87"/>
			<path clip-path="url(#SVGID_8_)" fill="#CDA72C" d="M258.079,421.278c0,0-7.976,1.536-6.609,1.02c0,0-4.302-2.372-6.643,0.854
				c-2.341,3.226-7.73,0.425-8.603-0.463c0,0,3.838-0.144,5.577-4.02c1.738-3.875,5.142-4.033,6.124-3.961
				c0,0-4.72-1.863-6.781,0.146c0,0,3.32-6.393,8.764-5.62c5.445,0.771,10.696,3.145,11.275,3.224
				C261.761,412.537,258.079,421.278,258.079,421.278"/>
		</g>
	</g>
	<path clip-path="url(#SVGID_6_)" fill="#FFFFFF" d="M266.292,403.646l0.161-5.136l1.02-15.3l0.372-5.574l0.52-7.803l0.173-2.601
		h23.409c0-5.201,5.202-7.803,5.202-7.803l2.288,1.716l1.873,1.405l0.833,0.624l3.901,2.926l26.825,18.854l0.694,0.485
		c0,0,0.577,0.231,1.564,0.621c0.003,0.001,0.007,0.002,0.011,0.004c0.054,0.021,0.108,0.043,0.164,0.065
		c0.024,0.009,0.049,0.019,0.073,0.029c0.054,0.02,0.106,0.041,0.161,0.063c0.014,0.005,0.027,0.011,0.041,0.017
		c0.061,0.023,0.12,0.048,0.182,0.071c0.021,0.009,0.043,0.018,0.064,0.025c0.06,0.024,0.12,0.047,0.182,0.072
		c0.01,0.004,0.021,0.008,0.032,0.012c0.099,0.039,0.198,0.078,0.3,0.118c0.057,0.021,0.112,0.044,0.169,0.066
		c0.056,0.021,0.111,0.043,0.166,0.065c0.035,0.013,0.069,0.027,0.105,0.041c0.061,0.024,0.123,0.048,0.185,0.072
		c0.033,0.013,0.065,0.025,0.098,0.039c0.057,0.021,0.114,0.044,0.173,0.066c0.045,0.019,0.089,0.035,0.135,0.054
		c0.057,0.021,0.114,0.044,0.172,0.066c0.035,0.014,0.071,0.028,0.106,0.042c0.066,0.026,0.135,0.052,0.203,0.079
		c0.048,0.02,0.097,0.038,0.145,0.056c0.046,0.019,0.091,0.036,0.138,0.055c0.084,0.032,0.17,0.065,0.257,0.1
		c0.02,0.008,0.038,0.015,0.058,0.022c0.089,0.034,0.179,0.069,0.269,0.104c0.028,0.011,0.057,0.022,0.084,0.033
		c0.068,0.026,0.139,0.053,0.207,0.08c0.068,0.026,0.137,0.053,0.204,0.079c1.189,0.462,2.501,0.967,3.871,1.487
		c0.003,0.001,0.005,0.003,0.008,0.003c0.138,0.054,0.277,0.106,0.416,0.158c0,0,0.001,0.001,0.002,0.001
		c0.132,0.05,0.265,0.101,0.397,0.151l0.062,0.023c0.125,0.047,0.25,0.095,0.375,0.142c0.013,0.004,0.023,0.009,0.034,0.013
		c0.137,0.051,0.273,0.104,0.409,0.154c0.002,0.001,0.004,0.002,0.006,0.002c0.137,0.052,0.274,0.103,0.411,0.155
		c0.013,0.005,0.025,0.01,0.038,0.014c0.126,0.048,0.253,0.095,0.379,0.144c0.022,0.008,0.044,0.016,0.065,0.023
		c0.123,0.046,0.246,0.092,0.368,0.138c0.021,0.009,0.044,0.017,0.064,0.024l0.36,0.134c0.026,0.01,0.053,0.021,0.08,0.03
		c0.118,0.044,0.238,0.089,0.357,0.133c0.025,0.009,0.05,0.018,0.075,0.028c0.114,0.042,0.228,0.084,0.342,0.126
		c0.034,0.013,0.068,0.025,0.103,0.038c0.109,0.041,0.221,0.082,0.33,0.122c0.033,0.012,0.065,0.023,0.099,0.035
		c0.11,0.041,0.221,0.082,0.331,0.122c0.035,0.014,0.07,0.026,0.104,0.039c0.109,0.04,0.218,0.079,0.325,0.119
		c0.035,0.013,0.069,0.025,0.104,0.038c0.107,0.039,0.215,0.078,0.321,0.117c0.036,0.013,0.073,0.025,0.109,0.04
		c0.103,0.037,0.205,0.074,0.307,0.11c0.041,0.016,0.082,0.03,0.123,0.046c0.102,0.036,0.201,0.071,0.302,0.107
		c0.039,0.015,0.079,0.03,0.12,0.044c0.102,0.037,0.203,0.073,0.305,0.11c0.038,0.013,0.077,0.026,0.116,0.041
		c0.093,0.034,0.186,0.067,0.277,0.1c0.049,0.018,0.098,0.034,0.145,0.052c0.094,0.033,0.186,0.065,0.276,0.099
		c0.044,0.015,0.088,0.031,0.131,0.046c0.104,0.037,0.207,0.073,0.31,0.11c0.031,0.011,0.062,0.021,0.094,0.032
		c0.097,0.034,0.193,0.068,0.29,0.103c0.04,0.014,0.081,0.028,0.121,0.042c0.084,0.03,0.166,0.058,0.249,0.087
		c0.05,0.018,0.102,0.036,0.152,0.053c0.086,0.03,0.17,0.061,0.256,0.089c0.044,0.016,0.089,0.031,0.133,0.047
		c0.081,0.027,0.16,0.055,0.24,0.082c0.051,0.018,0.101,0.035,0.15,0.053c0.075,0.024,0.15,0.051,0.225,0.076
		c0.052,0.018,0.103,0.034,0.153,0.053c0.077,0.025,0.152,0.051,0.229,0.077c0.049,0.016,0.098,0.032,0.146,0.049
		c0.123,0.041,0.244,0.082,0.364,0.122c0.238,0.079,0.469,0.166,0.692,0.26c0.004,0.001,0.008,0.003,0.012,0.004
		c0.219,0.092,0.432,0.191,0.638,0.296c0.007,0.003,0.015,0.006,0.022,0.01c0.203,0.104,0.398,0.214,0.589,0.328
		c0.009,0.005,0.019,0.011,0.028,0.017c0.188,0.113,0.367,0.232,0.543,0.356c0.012,0.008,0.022,0.016,0.033,0.023
		c0.174,0.122,0.34,0.251,0.502,0.382c0.012,0.01,0.023,0.019,0.035,0.029c0.16,0.131,0.314,0.267,0.463,0.405
		c0.013,0.012,0.024,0.022,0.035,0.033c0.148,0.14,0.291,0.283,0.43,0.429c0.011,0.013,0.021,0.023,0.031,0.034
		c0.139,0.148,0.271,0.3,0.398,0.452c0.009,0.011,0.019,0.022,0.027,0.033c0.129,0.155,0.252,0.313,0.369,0.473
		c0.008,0.01,0.016,0.021,0.022,0.03c0.12,0.163,0.233,0.328,0.344,0.495c0.005,0.007,0.011,0.014,0.015,0.021
		c0.111,0.17,0.219,0.343,0.32,0.517c0.002,0.004,0.005,0.008,0.007,0.012c1.157,1.974,1.619,4.133,1.892,5.764v9.458h-95.526
		V403.646z"/>
	<path clip-path="url(#SVGID_6_)" fill="#F8D012" d="M335.722,399.269l-43.409-30.932l4.507-7.193l11.64,9.148l27.281,18.479
		l0.747,0.507c0,0,2.847,1.103,6.744,2.561l0.007,0.032L335.722,399.269z"/>
	<path clip-path="url(#SVGID_6_)" fill="#F8D012" d="M333.584,386.521c0.564,0.227,13.159,5.253,20.786,7.795
		c3.854,1.285,5.804,4.472,6.789,7.369h-38.678L333.584,386.521z"/>
	<polygon clip-path="url(#SVGID_6_)" fill="#191818" points="308.618,369.268 301.672,375.413 305.173,366.824 	"/>
	<polygon clip-path="url(#SVGID_6_)" fill="#191818" points="315.154,373.925 308.209,380.069 311.71,371.481 	"/>
	
		<line clip-path="url(#SVGID_6_)" fill="none" stroke="#191818" stroke-width="2.148" stroke-miterlimit="10" x1="361.16" y1="402.491" x2="266.292" y2="402.491"/>
	<polygon clip-path="url(#SVGID_6_)" fill="#191818" points="321.691,378.581 314.745,384.727 318.246,376.139 	"/>
	<polygon clip-path="url(#SVGID_6_)" fill="#191818" points="328.228,383.238 321.281,389.383 324.782,380.795 	"/>
	<polygon clip-path="url(#SVGID_6_)" fill="#191818" points="334.764,387.896 327.818,394.04 331.318,385.452 	"/>
	<path clip-path="url(#SVGID_6_)" fill="none" stroke="#191818" stroke-width="4.296" stroke-miterlimit="10" d="M266.292,403.646
		l0.161-5.136l1.02-15.3l0.372-5.574l0.52-7.803l0.173-2.601h23.409c0-5.201,5.202-7.803,5.202-7.803l2.288,1.716l1.873,1.405
		l0.833,0.624l3.901,2.926l26.825,18.854l0.694,0.485c0,0,0.577,0.231,1.564,0.621c0.003,0.001,0.007,0.002,0.011,0.004
		c0.054,0.021,0.108,0.043,0.164,0.065c0.024,0.009,0.049,0.019,0.073,0.029c0.054,0.02,0.106,0.041,0.161,0.063
		c0.014,0.005,0.027,0.011,0.041,0.017c0.061,0.023,0.12,0.048,0.182,0.071c0.021,0.009,0.043,0.018,0.064,0.025
		c0.06,0.024,0.12,0.047,0.182,0.072c0.01,0.004,0.021,0.008,0.032,0.012c0.099,0.039,0.198,0.078,0.3,0.118
		c0.057,0.021,0.112,0.044,0.169,0.066c0.056,0.021,0.111,0.043,0.166,0.065c0.035,0.013,0.069,0.027,0.105,0.041
		c0.061,0.024,0.123,0.048,0.185,0.072c0.033,0.013,0.065,0.025,0.098,0.039c0.057,0.021,0.114,0.044,0.173,0.066
		c0.045,0.019,0.089,0.035,0.135,0.054c0.057,0.021,0.114,0.044,0.172,0.066c0.035,0.014,0.071,0.028,0.106,0.042
		c0.066,0.026,0.135,0.052,0.203,0.079c0.048,0.02,0.097,0.038,0.145,0.056c0.046,0.019,0.091,0.036,0.138,0.055
		c0.084,0.032,0.17,0.065,0.257,0.1c0.02,0.008,0.038,0.015,0.058,0.022c0.089,0.034,0.179,0.069,0.269,0.104
		c0.028,0.011,0.057,0.022,0.084,0.033c0.068,0.026,0.139,0.053,0.207,0.08c0.068,0.026,0.137,0.053,0.204,0.079
		c1.189,0.462,2.501,0.967,3.871,1.487c0.003,0.001,0.005,0.003,0.008,0.003c0.138,0.054,0.277,0.106,0.416,0.158
		c0,0,0.001,0.001,0.002,0.001c0.132,0.05,0.265,0.101,0.397,0.151l0.062,0.023c0.125,0.047,0.25,0.095,0.375,0.142
		c0.013,0.004,0.023,0.009,0.034,0.013c0.137,0.051,0.273,0.104,0.409,0.154c0.002,0.001,0.004,0.002,0.006,0.002
		c0.137,0.052,0.274,0.103,0.411,0.155c0.013,0.005,0.025,0.01,0.038,0.014c0.126,0.048,0.253,0.095,0.379,0.144
		c0.022,0.008,0.044,0.016,0.065,0.023c0.123,0.046,0.246,0.092,0.368,0.138c0.021,0.009,0.044,0.017,0.064,0.024l0.36,0.134
		c0.026,0.01,0.053,0.021,0.08,0.03c0.118,0.044,0.238,0.089,0.357,0.133c0.025,0.009,0.05,0.018,0.075,0.028
		c0.114,0.042,0.228,0.084,0.342,0.126c0.034,0.013,0.068,0.025,0.103,0.038c0.109,0.041,0.221,0.082,0.33,0.122
		c0.033,0.012,0.065,0.023,0.099,0.035c0.11,0.041,0.221,0.082,0.331,0.122c0.035,0.014,0.07,0.026,0.104,0.039
		c0.109,0.04,0.218,0.079,0.325,0.119c0.035,0.013,0.069,0.025,0.104,0.038c0.107,0.039,0.215,0.078,0.321,0.117
		c0.036,0.013,0.073,0.025,0.109,0.04c0.103,0.037,0.205,0.074,0.307,0.11c0.041,0.016,0.082,0.03,0.123,0.046
		c0.102,0.036,0.201,0.071,0.302,0.107c0.039,0.015,0.079,0.03,0.12,0.044c0.102,0.037,0.203,0.073,0.305,0.11
		c0.038,0.013,0.077,0.026,0.116,0.041c0.093,0.034,0.186,0.067,0.277,0.1c0.049,0.018,0.098,0.034,0.145,0.052
		c0.094,0.033,0.186,0.065,0.276,0.099c0.044,0.015,0.088,0.031,0.131,0.046c0.104,0.037,0.207,0.073,0.31,0.11
		c0.031,0.011,0.062,0.021,0.094,0.032c0.097,0.034,0.193,0.068,0.29,0.103c0.04,0.014,0.081,0.028,0.121,0.042
		c0.084,0.03,0.166,0.058,0.249,0.087c0.05,0.018,0.102,0.036,0.152,0.053c0.086,0.03,0.17,0.061,0.256,0.089
		c0.044,0.016,0.089,0.031,0.133,0.047c0.081,0.027,0.16,0.055,0.24,0.082c0.051,0.018,0.101,0.035,0.15,0.053
		c0.075,0.024,0.15,0.051,0.225,0.076c0.052,0.018,0.103,0.034,0.153,0.053c0.077,0.025,0.152,0.051,0.229,0.077
		c0.049,0.016,0.098,0.032,0.146,0.049c0.123,0.041,0.244,0.082,0.364,0.122c0.238,0.079,0.469,0.166,0.692,0.26
		c0.004,0.001,0.008,0.003,0.012,0.004c0.219,0.092,0.432,0.191,0.638,0.296c0.007,0.003,0.015,0.006,0.022,0.01
		c0.203,0.104,0.398,0.214,0.589,0.328c0.009,0.005,0.019,0.011,0.028,0.017c0.188,0.113,0.367,0.232,0.543,0.356
		c0.012,0.008,0.022,0.016,0.033,0.023c0.174,0.122,0.34,0.251,0.502,0.382c0.012,0.01,0.023,0.019,0.035,0.029
		c0.16,0.131,0.314,0.267,0.463,0.405c0.013,0.012,0.024,0.022,0.035,0.033c0.148,0.14,0.291,0.283,0.43,0.429
		c0.011,0.013,0.021,0.023,0.031,0.034c0.139,0.148,0.271,0.3,0.398,0.452c0.009,0.011,0.019,0.022,0.027,0.033
		c0.129,0.155,0.252,0.313,0.369,0.473c0.008,0.01,0.016,0.021,0.022,0.03c0.12,0.163,0.233,0.328,0.344,0.495
		c0.005,0.007,0.011,0.014,0.015,0.021c0.111,0.17,0.219,0.343,0.32,0.517c0.002,0.004,0.005,0.008,0.007,0.012
		c1.157,1.974,1.619,4.133,1.892,5.764v9.458h-95.526V403.646z"/>
	<path clip-path="url(#SVGID_6_)" fill="#FFFFFF" d="M225.47,403.646l0.161-5.136l1.02-15.3l0.372-5.574l0.52-7.803l0.173-2.601
		h23.409c0-5.201,5.202-7.803,5.202-7.803l2.288,1.716l1.874,1.405l0.832,0.624l3.901,2.926l26.825,18.854l0.694,0.485
		c0,0,0.578,0.231,1.565,0.621c0.003,0.001,0.007,0.002,0.01,0.004c0.054,0.021,0.109,0.043,0.165,0.065
		c0.024,0.009,0.049,0.019,0.074,0.029c0.052,0.02,0.104,0.041,0.16,0.063c0.014,0.005,0.028,0.011,0.041,0.017
		c0.06,0.023,0.12,0.048,0.182,0.071c0.021,0.009,0.043,0.018,0.064,0.025c0.06,0.024,0.12,0.047,0.182,0.072
		c0.011,0.004,0.021,0.008,0.032,0.012c0.098,0.039,0.198,0.078,0.301,0.118c0.056,0.021,0.111,0.044,0.169,0.066
		c0.054,0.021,0.11,0.043,0.165,0.065c0.035,0.013,0.069,0.027,0.104,0.041c0.062,0.024,0.123,0.048,0.186,0.072
		c0.033,0.013,0.064,0.025,0.098,0.039c0.056,0.021,0.114,0.044,0.172,0.066c0.045,0.019,0.09,0.035,0.135,0.054
		c0.057,0.021,0.114,0.044,0.172,0.066c0.035,0.014,0.071,0.028,0.107,0.042c0.067,0.026,0.134,0.052,0.202,0.079
		c0.048,0.02,0.097,0.038,0.145,0.056c0.046,0.019,0.091,0.036,0.138,0.055c0.085,0.032,0.17,0.065,0.256,0.1
		c0.02,0.008,0.039,0.015,0.058,0.022c0.089,0.034,0.179,0.069,0.27,0.104c0.028,0.011,0.056,0.022,0.084,0.033
		c0.068,0.026,0.138,0.053,0.207,0.08c0.068,0.026,0.136,0.053,0.204,0.079c1.188,0.462,2.501,0.967,3.871,1.487
		c0.003,0.001,0.005,0.003,0.008,0.003c0.138,0.054,0.277,0.106,0.416,0.158l0.002,0.001c0.131,0.05,0.264,0.101,0.396,0.151
		l0.063,0.023c0.125,0.047,0.25,0.095,0.376,0.142l0.033,0.013c0.136,0.051,0.273,0.104,0.41,0.154
		c0.002,0.001,0.003,0.002,0.005,0.002c0.137,0.052,0.274,0.103,0.411,0.155c0.013,0.005,0.025,0.01,0.038,0.014
		c0.126,0.048,0.253,0.095,0.38,0.144c0.021,0.008,0.043,0.016,0.065,0.023c0.122,0.046,0.245,0.092,0.368,0.138
		c0.021,0.009,0.043,0.017,0.065,0.024c0.12,0.045,0.24,0.09,0.36,0.134c0.026,0.01,0.053,0.021,0.079,0.03
		c0.119,0.044,0.239,0.089,0.358,0.133c0.025,0.009,0.05,0.018,0.075,0.028c0.114,0.042,0.229,0.084,0.342,0.126l0.102,0.038
		c0.11,0.041,0.221,0.082,0.331,0.122c0.033,0.012,0.066,0.023,0.098,0.035c0.111,0.041,0.221,0.082,0.331,0.122l0.105,0.039
		c0.108,0.04,0.217,0.079,0.325,0.119c0.035,0.013,0.068,0.025,0.104,0.038c0.107,0.039,0.214,0.078,0.321,0.117
		c0.037,0.013,0.073,0.025,0.108,0.04c0.104,0.037,0.205,0.074,0.308,0.11c0.041,0.016,0.082,0.03,0.124,0.046
		c0.1,0.036,0.199,0.071,0.3,0.107c0.04,0.015,0.081,0.03,0.121,0.044c0.101,0.037,0.203,0.073,0.304,0.11
		c0.039,0.013,0.077,0.026,0.116,0.041c0.093,0.034,0.187,0.067,0.278,0.1c0.049,0.018,0.097,0.034,0.145,0.052
		c0.093,0.033,0.186,0.065,0.277,0.099c0.043,0.015,0.087,0.031,0.131,0.046c0.103,0.037,0.206,0.073,0.308,0.11
		c0.031,0.011,0.063,0.021,0.095,0.032c0.097,0.034,0.192,0.068,0.289,0.103c0.041,0.014,0.082,0.028,0.121,0.042
		c0.084,0.03,0.166,0.058,0.249,0.087c0.052,0.018,0.103,0.036,0.152,0.053c0.086,0.03,0.171,0.061,0.256,0.089
		c0.044,0.016,0.089,0.031,0.133,0.047c0.081,0.027,0.161,0.055,0.241,0.082c0.05,0.018,0.1,0.035,0.15,0.053
		c0.076,0.024,0.149,0.051,0.225,0.076c0.051,0.018,0.102,0.034,0.153,0.053c0.077,0.025,0.151,0.051,0.229,0.077
		c0.048,0.016,0.097,0.032,0.146,0.049c0.123,0.041,0.244,0.082,0.363,0.122c0.238,0.079,0.47,0.166,0.692,0.26
		c0.004,0.001,0.008,0.003,0.013,0.004c0.22,0.092,0.432,0.191,0.638,0.296c0.007,0.003,0.015,0.006,0.021,0.01
		c0.203,0.104,0.399,0.214,0.589,0.328c0.01,0.005,0.02,0.011,0.029,0.017c0.188,0.113,0.368,0.232,0.543,0.356
		c0.011,0.008,0.022,0.016,0.033,0.023c0.173,0.122,0.34,0.251,0.501,0.382c0.012,0.01,0.024,0.019,0.036,0.029
		c0.16,0.131,0.313,0.267,0.463,0.405c0.012,0.012,0.023,0.022,0.035,0.033c0.147,0.14,0.291,0.283,0.429,0.429
		c0.011,0.013,0.022,0.023,0.033,0.034c0.137,0.148,0.269,0.3,0.396,0.452c0.009,0.011,0.02,0.022,0.028,0.033
		c0.128,0.155,0.251,0.313,0.369,0.473c0.008,0.01,0.015,0.021,0.021,0.03c0.12,0.163,0.234,0.328,0.345,0.495
		c0.005,0.007,0.01,0.014,0.015,0.021c0.111,0.17,0.218,0.343,0.32,0.517c0.002,0.004,0.005,0.008,0.007,0.012
		c1.157,1.974,1.62,4.133,1.891,5.764v9.458H225.47V403.646z"/>
	<path clip-path="url(#SVGID_6_)" fill="#F8D012" d="M294.899,399.269l-43.409-30.932l4.507-7.193l11.639,9.148l27.282,18.479
		l0.747,0.507c0,0,2.847,1.103,6.744,2.561l0.007,0.032L294.899,399.269z"/>
	<path clip-path="url(#SVGID_6_)" fill="#F8D012" d="M292.762,386.521c0.564,0.227,13.159,5.253,20.786,7.795
		c3.854,1.285,5.803,4.472,6.789,7.369h-38.678L292.762,386.521z"/>
	<polygon clip-path="url(#SVGID_6_)" fill="#191818" points="267.796,369.268 260.85,375.413 264.351,366.824 	"/>
	<polygon clip-path="url(#SVGID_6_)" fill="#191818" points="274.332,373.925 267.386,380.069 270.887,371.481 	"/>
	
		<line clip-path="url(#SVGID_6_)" fill="none" stroke="#191818" stroke-width="2.148" stroke-miterlimit="10" x1="320.338" y1="402.491" x2="225.469" y2="402.491"/>
	<polygon clip-path="url(#SVGID_6_)" fill="#191818" points="280.869,378.581 273.923,384.727 277.424,376.139 	"/>
	<polygon clip-path="url(#SVGID_6_)" fill="#191818" points="287.405,383.238 280.459,389.383 283.96,380.795 	"/>
	<polygon clip-path="url(#SVGID_6_)" fill="#191818" points="293.941,387.896 286.995,394.04 290.496,385.452 	"/>
	<path clip-path="url(#SVGID_6_)" fill="none" stroke="#191818" stroke-width="4.296" stroke-miterlimit="10" d="M225.47,403.646
		l0.161-5.136l1.02-15.3l0.372-5.574l0.52-7.803l0.173-2.601h23.409c0-5.201,5.202-7.803,5.202-7.803l2.288,1.716l1.874,1.405
		l0.832,0.624l3.901,2.926l26.825,18.854l0.694,0.485c0,0,0.578,0.231,1.565,0.621c0.003,0.001,0.007,0.002,0.01,0.004
		c0.054,0.021,0.109,0.043,0.165,0.065c0.024,0.009,0.049,0.019,0.074,0.029c0.052,0.02,0.104,0.041,0.16,0.063
		c0.014,0.005,0.028,0.011,0.041,0.017c0.06,0.023,0.12,0.048,0.182,0.071c0.021,0.009,0.043,0.018,0.064,0.025
		c0.06,0.024,0.12,0.047,0.182,0.072c0.011,0.004,0.021,0.008,0.032,0.012c0.098,0.039,0.198,0.078,0.301,0.118
		c0.056,0.021,0.111,0.044,0.169,0.066c0.054,0.021,0.11,0.043,0.165,0.065c0.035,0.013,0.069,0.027,0.104,0.041
		c0.062,0.024,0.123,0.048,0.186,0.072c0.033,0.013,0.064,0.025,0.098,0.039c0.056,0.021,0.114,0.044,0.172,0.066
		c0.045,0.019,0.09,0.035,0.135,0.054c0.057,0.021,0.114,0.044,0.172,0.066c0.035,0.014,0.071,0.028,0.107,0.042
		c0.067,0.026,0.134,0.052,0.202,0.079c0.048,0.02,0.097,0.038,0.145,0.056c0.046,0.019,0.091,0.036,0.138,0.055
		c0.085,0.032,0.17,0.065,0.256,0.1c0.02,0.008,0.039,0.015,0.058,0.022c0.089,0.034,0.179,0.069,0.27,0.104
		c0.028,0.011,0.056,0.022,0.084,0.033c0.068,0.026,0.138,0.053,0.207,0.08c0.068,0.026,0.136,0.053,0.204,0.079
		c1.188,0.462,2.501,0.967,3.871,1.487c0.003,0.001,0.005,0.003,0.008,0.003c0.138,0.054,0.277,0.106,0.416,0.158l0.002,0.001
		c0.131,0.05,0.264,0.101,0.396,0.151l0.063,0.023c0.125,0.047,0.25,0.095,0.376,0.142l0.033,0.013
		c0.136,0.051,0.273,0.104,0.41,0.154c0.002,0.001,0.003,0.002,0.005,0.002c0.137,0.052,0.274,0.103,0.411,0.155
		c0.013,0.005,0.025,0.01,0.038,0.014c0.126,0.048,0.253,0.095,0.38,0.144c0.021,0.008,0.043,0.016,0.065,0.023
		c0.122,0.046,0.245,0.092,0.368,0.138c0.021,0.009,0.043,0.017,0.065,0.024c0.12,0.045,0.24,0.09,0.36,0.134
		c0.026,0.01,0.053,0.021,0.079,0.03c0.119,0.044,0.239,0.089,0.358,0.133c0.025,0.009,0.05,0.018,0.075,0.028
		c0.114,0.042,0.229,0.084,0.342,0.126l0.102,0.038c0.11,0.041,0.221,0.082,0.331,0.122c0.033,0.012,0.066,0.023,0.098,0.035
		c0.111,0.041,0.221,0.082,0.331,0.122l0.105,0.039c0.108,0.04,0.217,0.079,0.325,0.119c0.035,0.013,0.068,0.025,0.104,0.038
		c0.107,0.039,0.214,0.078,0.321,0.117c0.037,0.013,0.073,0.025,0.108,0.04c0.104,0.037,0.205,0.074,0.308,0.11
		c0.041,0.016,0.082,0.03,0.124,0.046c0.1,0.036,0.199,0.071,0.3,0.107c0.04,0.015,0.081,0.03,0.121,0.044
		c0.101,0.037,0.203,0.073,0.304,0.11c0.039,0.013,0.077,0.026,0.116,0.041c0.093,0.034,0.187,0.067,0.278,0.1
		c0.049,0.018,0.097,0.034,0.145,0.052c0.093,0.033,0.186,0.065,0.277,0.099c0.043,0.015,0.087,0.031,0.131,0.046
		c0.103,0.037,0.206,0.073,0.308,0.11c0.031,0.011,0.063,0.021,0.095,0.032c0.097,0.034,0.192,0.068,0.289,0.103
		c0.041,0.014,0.082,0.028,0.121,0.042c0.084,0.03,0.166,0.058,0.249,0.087c0.052,0.018,0.103,0.036,0.152,0.053
		c0.086,0.03,0.171,0.061,0.256,0.089c0.044,0.016,0.089,0.031,0.133,0.047c0.081,0.027,0.161,0.055,0.241,0.082
		c0.05,0.018,0.1,0.035,0.15,0.053c0.076,0.024,0.149,0.051,0.225,0.076c0.051,0.018,0.102,0.034,0.153,0.053
		c0.077,0.025,0.151,0.051,0.229,0.077c0.048,0.016,0.097,0.032,0.146,0.049c0.123,0.041,0.244,0.082,0.363,0.122
		c0.238,0.079,0.47,0.166,0.692,0.26c0.004,0.001,0.008,0.003,0.013,0.004c0.22,0.092,0.432,0.191,0.638,0.296
		c0.007,0.003,0.015,0.006,0.021,0.01c0.203,0.104,0.399,0.214,0.589,0.328c0.01,0.005,0.02,0.011,0.029,0.017
		c0.188,0.113,0.368,0.232,0.543,0.356c0.011,0.008,0.022,0.016,0.033,0.023c0.173,0.122,0.34,0.251,0.501,0.382
		c0.012,0.01,0.024,0.019,0.036,0.029c0.16,0.131,0.313,0.267,0.463,0.405c0.012,0.012,0.023,0.022,0.035,0.033
		c0.147,0.14,0.291,0.283,0.429,0.429c0.011,0.013,0.022,0.023,0.033,0.034c0.137,0.148,0.269,0.3,0.396,0.452
		c0.009,0.011,0.02,0.022,0.028,0.033c0.128,0.155,0.251,0.313,0.369,0.473c0.008,0.01,0.015,0.021,0.021,0.03
		c0.12,0.163,0.234,0.328,0.345,0.495c0.005,0.007,0.01,0.014,0.015,0.021c0.111,0.17,0.218,0.343,0.32,0.517
		c0.002,0.004,0.005,0.008,0.007,0.012c1.157,1.974,1.62,4.133,1.891,5.764v9.458H225.47V403.646z"/>
	<polygon clip-path="url(#SVGID_6_)" fill="#F8D012" points="252.931,379.355 266.229,386.134 262.676,388.908 268.936,395.462 
		255.637,388.684 259.19,385.908 	"/>
</g>
<path fill="#191818" d="M365.271,307.61l3.393,5.225c-3.477,4.128-6.325,10.429-6.393,19.495v0.061v0.04l-0.002,0.024l-0.002,0.165
	v0.04v0.039v71.391c-0.393,2.727-4.037,22.62-27.06,29.079c-5.879,1.649-21.528,6.528-31.393,14.107
	c-5.686-4.468-15.25-9.593-31.342-14.107c-22.9-6.425-26.624-26.116-27.06-29.098V332.66l-0.002-0.27l-0.001-0.065
	c-0.067-9.064-2.915-15.362-6.392-19.49l3.393-5.225h28.033h23.781h9.198h33.815H365.271 M369.814,299.244h-32.576h-33.815h-9.198
	h-23.781h-32.576l-10.034,15.454c0,0,9.1,2.806,9.21,17.689c0.001,0.091,0.003,0.181,0.003,0.272v71.94
	c0,0,2.764,28.095,33.166,36.624c29.394,8.245,33.383,17.896,33.615,18.528c0.008,0.022,0.012,0.033,0.012,0.033
	s3.226-10.034,33.627-18.562c30.403-8.529,33.167-36.624,33.167-36.624v-71.901c0-0.013,0.001-0.025,0.001-0.039
	c0-0.092,0.002-0.182,0.002-0.272c0.111-14.884,9.211-17.689,9.211-17.689L369.814,299.244z"/>
</svg>
