<?xml version="1.0" encoding="utf-8"?>
<!-- Generator: Adobe Illustrator 16.0.0, SVG Export Plug-In . SVG Version: 6.00 Build 0)  -->
<!DOCTYPE svg PUBLIC "-//W3C//DTD SVG 1.1//EN" "http://www.w3.org/Graphics/SVG/1.1/DTD/svg11.dtd">
<svg version="1.1" id="Layer_1" xmlns="http://www.w3.org/2000/svg" xmlns:xlink="http://www.w3.org/1999/xlink" x="0px" y="0px"
	 width="612px" height="792px" viewBox="0 0 612 792" enable-background="new 0 0 612 792" xml:space="preserve">
<path fill="#010101" d="M398.529,417.309c0.146,1.75-0.152,3.623,0.188,5.469c0.328,0.773,0.592,1.554,0.873,2.349
	c0.818,2.085,1.734,3.99,3.31,4.865c1.284-2.556,2.463-5.285,2.743-8.496c-0.084-2.099-0.508-4.063-1.249-5.928
	c-1.149-2.94-3.062-5.579-5.612-7.851c-0.082-0.08-0.144-0.11-0.187-0.171l-0.414-0.012c0.093,0.271,0.165,0.577,0.247,0.886
	C399.104,411.306,398.81,414.098,398.529,417.309"/>
<path fill="#010101" d="M398.729,435.089c-1.817-3.577-5.514-6.852-6.379-10.245l-0.532-0.223c-1.337,3.336-1.192,7.326-0.169,10.95
	c1.109,4.704,3.424,8.369,4.508,12.994c0.193,0.891,0.354,1.775,0.458,2.742c6.957-5.049,13.37-10.808,15.183-19.897l-12.193,6.13
	C399.44,436.692,399.11,435.854,398.729,435.089"/>
<path fill="#010101" d="M379.126,476.246c-0.916-0.017-1.783-0.026-2.638,0.015c3.211-4.571,2.289-10.164,4.058-15.119l-0.017-0.219
	c-5.33,2.008-8.125,6.7-10.731,11.657c-1.862,3.592-3.683,7.273-6.339,9.993c1.109,0.08,2.152,0.229,3.234,0.389
	c1.121,0.163,2.274,0.386,3.435,0.691c2.306,0.136,4.581,0.238,6.731,0.167c4.035-0.171,7.795-0.854,11.037-2.605
	c1.502-0.798,2.902-1.85,4.131-3.161c-0.949-0.154-1.992-0.342-3.027-0.524C385.734,476.975,382.301,476.404,379.126,476.246"/>
<path fill="#010101" d="M392.125,460.673c-1.494-5.036-4.273-10.122-3.863-15.641l-0.144-0.22l-0.374,0.165
	c-0.044,0.036-0.097,0.108-0.102,0.145c-0.291,0.501-0.6,0.786-1.135,1.3c-3.806,6.707-3.23,14.78-1.275,21.92
	c0.32,1.176,0.652,2.295,1.063,3.425c3.422-2.676,7.644-3.358,11.442-5.306c0.342-0.207,0.677-0.37,1.03-0.582
	c3.658-2.641,5.885-7.007,6.841-11.183c-2.373,0.757-4.701,1.368-6.877,2.186C396.387,457.728,394.124,458.87,392.125,460.673"/>
<path fill="#010101" d="M213.326,417.438c-0.24,1.74-0.045,3.626-0.482,5.45c-0.369,0.755-0.674,1.521-0.996,2.299
	c-0.933,2.037-1.947,3.891-3.568,4.681c-1.146-2.622-2.176-5.41-2.281-8.632c0.197-2.092,0.727-4.029,1.566-5.854
	c1.307-2.873,3.357-5.406,6.027-7.536c0.086-0.075,0.148-0.103,0.195-0.161l0.414,0.012c-0.107,0.267-0.195,0.566-0.295,0.871
	C213.076,411.414,213.219,414.217,213.326,417.438"/>
<path fill="#010101" d="M213.051,435.089c1.816-3.577,5.512-6.852,6.379-10.245l0.531-0.223c1.337,3.336,1.193,7.326,0.168,10.95
	c-1.107,4.704-3.424,8.369-4.508,12.994c-0.193,0.891-0.354,1.775-0.458,2.742c-6.956-5.049-13.369-10.808-15.183-19.897
	l12.195,6.13C212.338,436.692,212.667,435.854,213.051,435.089"/>
<path fill="#010101" d="M232.652,476.246c0.916-0.017,1.783-0.026,2.639,0.015c-3.213-4.571-2.291-10.164-4.059-15.119l0.018-0.219
	c5.328,2.008,8.123,6.7,10.73,11.657c1.861,3.592,3.684,7.273,6.34,9.993c-1.109,0.08-2.154,0.229-3.234,0.389
	c-1.123,0.163-2.275,0.386-3.436,0.691c-2.306,0.136-4.58,0.238-6.732,0.167c-4.034-0.171-7.795-0.854-11.037-2.605
	c-1.5-0.798-2.901-1.85-4.131-3.161c0.949-0.154,1.992-0.342,3.029-0.524C226.043,476.975,229.478,476.404,232.652,476.246"/>
<path fill="#010101" d="M219.652,460.673c1.494-5.036,4.274-10.122,3.865-15.641l0.143-0.22l0.373,0.165
	c0.045,0.036,0.098,0.108,0.102,0.145c0.292,0.501,0.601,0.786,1.136,1.3c3.806,6.707,3.229,14.78,1.276,21.92
	c-0.321,1.176-0.654,2.295-1.063,3.425c-3.423-2.676-7.644-3.358-11.442-5.306c-0.342-0.207-0.676-0.37-1.029-0.582
	c-3.66-2.641-5.887-7.007-6.842-11.183c2.373,0.757,4.701,1.368,6.877,2.186C215.392,457.728,217.654,458.87,219.652,460.673"/>
<path fill="#FFFFFF" d="M195.264,335.713c0.313-2.898,2.676-4.153,5.252-2.79l29.302,15.511l27.573,14.597
	c2.576,1.363,3.976,4.756,3.111,7.54l-4.1,13.18c-0.578,1.858-2.085,3.13-3.839,3.479l2.282,0.816
	c1.838,0.973,2.837,3.393,2.219,5.378l-2.973,9.538c-0.396,1.274-1.428,2.217-2.635,2.544l3.817,1.364
	c1.269,0.671,1.957,2.342,1.531,3.712l-2.119,6.77c-0.427,1.37-1.979,2.374-3.331,1.889c0,0-4.747-1.706-16.617-5.971
	c-11.871-4.267-11.633-15.437-11.633-15.437c0.072-0.68,0.4-1.237,0.859-1.564c-15.863-6.499-15.631-21.585-15.631-21.585
	c0.152-1.415,1.014-2.344,2.131-2.479C192.516,361.206,195.264,335.713,195.264,335.713"/>
<path fill="#FFFFFF" d="M416.516,335.713c-0.314-2.898-2.678-4.153-5.254-2.79l-29.302,15.511l-27.573,14.597
	c-2.576,1.363-3.976,4.756-3.109,7.54l4.099,13.18c0.577,1.858,2.085,3.13,3.839,3.479l-2.283,0.816
	c-1.838,0.973-2.836,3.393-2.219,5.378l2.973,9.538c0.397,1.274,1.43,2.217,2.635,2.544l-3.816,1.364
	c-1.268,0.671-1.957,2.342-1.531,3.712l2.119,6.77c0.426,1.37,1.98,2.374,3.33,1.889c0,0,4.747-1.706,16.618-5.971
	c11.871-4.267,11.633-15.437,11.633-15.437c-0.073-0.68-0.401-1.237-0.86-1.564c15.863-6.499,15.631-21.585,15.631-21.585
	c-0.151-1.415-1.013-2.344-2.129-2.479C419.263,361.206,416.516,335.713,416.516,335.713"/>
<polygon fill="#010101" points="204.392,365.013 252.582,394.229 202.695,368.013 "/>
<polygon fill="#010101" points="214.078,386.015 252.582,409.531 212.709,388.417 "/>
<path fill="none" stroke="#010101" stroke-width="5.77" stroke-miterlimit="10" d="M195.264,335.713
	c0.313-2.898,2.676-4.153,5.252-2.79l29.302,15.511l27.573,14.597c2.576,1.363,3.976,4.756,3.111,7.54l-4.1,13.18
	c-0.578,1.858-2.085,3.13-3.839,3.479l2.282,0.816c1.838,0.973,2.837,3.393,2.219,5.378l-2.973,9.538
	c-0.396,1.274-1.428,2.217-2.635,2.544l3.817,1.364c1.269,0.671,1.957,2.342,1.531,3.712l-2.119,6.77
	c-0.427,1.37-1.979,2.374-3.331,1.889c0,0-4.747-1.706-16.617-5.971c-11.871-4.267-11.633-15.437-11.633-15.437
	c0.072-0.68,0.4-1.237,0.859-1.564c-15.863-6.499-15.631-21.585-15.631-21.585c0.152-1.415,1.014-2.344,2.131-2.479
	C192.516,361.206,195.264,335.713,195.264,335.713z"/>
<path fill="none" stroke="#010101" stroke-width="5.77" stroke-miterlimit="10" d="M416.516,335.713
	c-0.314-2.898-2.678-4.153-5.254-2.79l-29.302,15.511l-27.573,14.597c-2.576,1.363-3.976,4.756-3.109,7.54l4.099,13.18
	c0.577,1.858,2.085,3.13,3.839,3.479l-2.283,0.816c-1.838,0.973-2.836,3.393-2.219,5.378l2.973,9.538
	c0.397,1.274,1.43,2.217,2.635,2.544l-3.816,1.364c-1.268,0.671-1.957,2.342-1.531,3.712l2.119,6.77
	c0.426,1.37,1.98,2.374,3.33,1.889c0,0,4.747-1.706,16.618-5.971c11.871-4.267,11.633-15.437,11.633-15.437
	c-0.073-0.68-0.401-1.237-0.86-1.564c15.863-6.499,15.631-21.585,15.631-21.585c-0.151-1.415-1.013-2.344-2.129-2.479
	C419.263,361.206,416.516,335.713,416.516,335.713z"/>
<polygon fill="#010101" points="409.083,368.013 359.197,394.229 407.387,365.013 "/>
<polygon fill="#010101" points="399.068,388.417 359.197,409.532 397.701,386.015 "/>
<polyline fill="#FECF0A" points="305.889,283.313 281.568,292.749 281.15,303.021 265.216,308.473 268.361,319.375 305.889,344.134 
	343.418,319.375 346.563,305.965 330.629,303.021 330.209,292.749 305.889,283.313 "/>
<polyline fill="none" stroke="#010101" stroke-width="5.77" stroke-miterlimit="10" points="305.889,283.314 281.568,292.748 
	281.15,300.514 265.216,305.965 268.361,319.375 305.889,334.134 343.418,319.375 346.563,305.965 330.629,300.514 330.209,292.748 
	305.889,283.314 "/>
<polygon fill="#010101" points="305.889,305.721 300.713,298.399 305.889,291.079 311.066,298.399 "/>
<polygon fill="#010101" points="284.033,299.258 283.508,311.676 278.369,300.359 "/>
<polygon fill="#010101" points="333.403,300.359 328.264,311.676 327.739,299.258 "/>
<rect x="261.037" y="442.861" fill="#010101" width="85" height="43.667"/>
<polygon fill="#010101" points="334.338,472.025 360.175,463.046 347.102,453.266 295.594,477.528 "/>
<polygon fill="#010101" points="307.594,478.528 250.898,463.046 263.973,453.266 312.094,475.028 "/>
<polygon fill="#FFFFFF" points="357.852,494.863 305.558,509.046 253.265,493.358 253.265,465.837 305.558,475.525 357.852,465.837 
	"/>
<polygon fill="none" stroke="#010101" stroke-width="4.515" stroke-miterlimit="10" points="357.852,494.863 305.558,507.646 
	253.265,494.863 253.265,465.837 305.558,474.62 357.852,465.837 "/>
<path fill="#FECF0A" d="M305.877,348.388h-66.784c0,0.091,0.002,0.181,0.002,0.272v71.94c0,0,2.765,28.095,33.167,36.624
	c29.393,8.245,33.382,17.896,33.615,18.529c0.008,0.021,0.012,0.032,0.012,0.032s3.225-10.034,33.627-18.562
	c30.402-8.529,33.166-36.624,33.166-36.624v-71.901c0-0.013,0.001-0.025,0.001-0.039c0-0.092,0.002-0.182,0.003-0.272H305.877z"/>
<g opacity="0.5">
	<g>
		<defs>
			<rect id="SVGID_1_" x="305.88" y="348.39" width="66.81" height="127.4"/>
		</defs>
		<clipPath id="SVGID_2_">
			<use xlink:href="#SVGID_1_"  overflow="visible"/>
		</clipPath>
		<path clip-path="url(#SVGID_2_)" fill="#CDA72C" d="M339.516,457.224c30.402-8.528,33.166-36.624,33.166-36.624v-71.9
			c0.001-0.014,0.001-0.026,0.001-0.039c0-0.092,0.002-0.182,0.003-0.273h-66.809v127.366c0.008,0.022,0.012,0.034,0.012,0.034
			S309.113,465.753,339.516,457.224"/>
	</g>
</g>
<path fill="#191818" d="M367.318,323.61l3.394,5.225c-2.296,2.726-4.317,6.396-5.444,11.187H246.512
	c-1.129-4.79-3.149-8.461-5.445-11.187l3.393-5.225h28.033h23.781h9.197h33.815H367.318 M371.862,315.244h-32.576h-33.815h-9.197
	h-23.781h-32.576l-10.034,15.454c0,0,9.101,2.806,9.21,17.689h133.594c0.11-14.884,9.211-17.689,9.211-17.689L371.862,315.244z"/>
<g opacity="0.4">
	<g>
		<defs>
			<rect id="SVGID_3_" x="229.88" y="315.24" width="152.021" height="160.55"/>
		</defs>
		<clipPath id="SVGID_4_">
			<use xlink:href="#SVGID_3_"  overflow="visible"/>
		</clipPath>
		<path clip-path="url(#SVGID_4_)" fill="#FFFFFF" d="M363.893,329.041c-2.643,4.356-4.931,10.604-5.004,19.229v0.004l-0.002,0.261
			l-0.002,0.082v0.082v70.951c-0.223,1.223-1.068,5.082-3.447,9.367c-4.106,7.396-10.717,12.417-19.648,14.923
			c-13.943,3.912-23.452,8.354-29.93,12.659c-6.465-4.301-15.953-8.755-29.871-12.659c-8.596-2.412-15.051-7.16-19.184-14.113
			c-2.709-4.559-3.652-8.787-3.912-10.226V348.66l-0.004-0.375c-0.064-8.625-2.355-14.882-5.002-19.244h24.605h23.781h9.197h33.815
			H363.893 M371.862,315.244h-32.576h-33.815h-9.197h-23.781h-32.576l-10.034,15.454c0,0,9.101,2.806,9.21,17.689
			c0.002,0.091,0.004,0.181,0.004,0.272v71.94c0,0,2.764,28.095,33.166,36.624c29.393,8.245,33.383,17.896,33.615,18.528
			c0.008,0.022,0.012,0.033,0.012,0.033s3.225-10.034,33.627-18.562c30.402-8.529,33.166-36.624,33.166-36.624v-71.901
			c0-0.013,0.002-0.025,0.002-0.039c0-0.092,0.002-0.182,0.002-0.272c0.11-14.884,9.211-17.689,9.211-17.689L371.862,315.244z"/>
	</g>
</g>
<path fill="#1A1A19" d="M381.896,330.698l-10.035-15.454h-32.574h-33.816h-9.197h-23.781h-32.575l-10.035,15.454
	c0,0,9.101,2.807,9.211,17.688v7.526h133.593v-7.526C372.796,333.505,381.896,330.698,381.896,330.698"/>
<polygon fill="#FFFFFF" points="254.443,344.386 254.443,329.514 251.402,332.675 249.084,330.236 254.984,324.306 258.508,324.306 
	258.508,344.386 "/>
<polygon fill="#FFFFFF" points="282.95,344.386 282.95,331.44 278.465,344.386 276.869,344.386 272.413,331.44 272.413,344.386 
	268.379,344.386 268.379,324.306 273.798,324.306 277.682,335.505 281.596,324.306 286.984,324.306 286.984,344.386 "/>
<path fill="#FFFFFF" d="M289.689,334.36c0-5.961,3.131-10.386,8.37-10.386c5.269,0,8.399,4.425,8.399,10.386
	c0,5.991-3.131,10.387-8.399,10.387C292.82,344.747,289.689,340.352,289.689,334.36 M302.335,334.36
	c0-3.884-1.507-6.804-4.275-6.804c-2.739,0-4.215,2.92-4.215,6.804c0,3.823,1.476,6.804,4.215,6.804
	C300.828,341.164,302.335,338.184,302.335,334.36"/>
<polygon fill="#FFFFFF" points="320.095,344.386 313.26,332.524 313.26,344.386 309.227,344.386 309.227,324.306 313.32,324.306 
	319.883,335.745 319.883,324.306 323.948,324.306 323.948,344.386 "/>
<polygon fill="#FFFFFF" points="330.81,344.386 330.81,327.857 326.354,327.857 326.354,324.306 339.299,324.306 339.299,327.857 
	334.844,327.857 334.844,344.386 "/>
<polygon fill="#FFFFFF" points="352.393,344.386 352.393,335.836 345.739,335.836 345.739,344.386 341.704,344.386 341.704,324.306 
	345.739,324.306 345.739,332.283 352.393,332.283 352.393,324.306 356.457,324.306 356.457,344.386 "/>
<polygon fill="#1A1A19" points="282.924,496.975 282.924,484.628 280.4,487.252 278.476,485.228 283.373,480.304 286.299,480.304 
	286.299,496.975 "/>
<polygon fill="#1A1A19" points="306.597,496.975 306.597,486.228 302.873,496.975 301.547,496.975 297.849,486.228 297.849,496.975 
	294.5,496.975 294.5,480.304 298.998,480.304 302.223,489.602 305.472,480.304 309.946,480.304 309.946,496.975 "/>
<rect x="312.874" y="480.304" fill="#1A1A19" width="3.351" height="16.671"/>
<polygon fill="#1A1A19" points="319.174,496.975 319.174,480.304 322.523,480.304 322.523,494.025 328.121,494.025 328.121,496.975 
	"/>
<g>
	<defs>
		<path id="SVGID_5_" d="M305.813,348.591h-66.221c0.002,0.089,0.004,0.177,0.004,0.27v71.335c0,0,2.74,27.856,32.887,36.313
			c29.143,8.177,33.101,17.746,33.33,18.373c0.01,0.021,0.014,0.033,0.014,0.033s3.197-9.95,33.343-18.406
			c30.146-8.457,32.888-36.313,32.888-36.313v-71.296c0-0.013,0.002-0.027,0.002-0.039c0-0.093,0-0.181,0.002-0.27H305.813z"/>
	</defs>
	<clipPath id="SVGID_6_">
		<use xlink:href="#SVGID_5_"  overflow="visible"/>
	</clipPath>
	<g opacity="0.5" clip-path="url(#SVGID_6_)">
		<g>
			<defs>
				<rect id="SVGID_7_" x="238.27" y="415.87" width="130.76" height="27.61"/>
			</defs>
			<clipPath id="SVGID_8_">
				<use xlink:href="#SVGID_7_"  overflow="visible"/>
			</clipPath>
			<path clip-path="url(#SVGID_8_)" fill="#CDA72C" d="M355.031,415.87c0,0-9.744,8.382-7.763,7.194c0,0-1.287,7.67-7.59,7.401
				c-6.304-0.267-8.126,9.171-7.882,11.126c0,0,3.949-4.619,10.466-2.967c6.517,1.654,10.058-2.413,10.937-3.702
				c0,0-2.332,7.688-6.85,8.269c0,0,11.193,2.166,15.589-5.346c4.396-7.514,6.612-16.36,7.084-17.155
				C369.494,419.896,355.031,415.87,355.031,415.87"/>
			<path clip-path="url(#SVGID_8_)" fill="#CDA72C" d="M342.209,437.278c0,0-7.975,1.536-6.609,1.02c0,0-4.303-2.372-6.643,0.854
				c-2.342,3.226-7.73,0.425-8.604-0.463c0,0,3.838-0.144,5.577-4.02c1.738-3.875,5.142-4.033,6.124-3.961
				c0,0-4.721-1.863-6.781,0.146c0,0,3.32-6.393,8.764-5.62c5.445,0.771,10.697,3.145,11.275,3.224
				C345.891,428.537,342.209,437.278,342.209,437.278"/>
			<path clip-path="url(#SVGID_8_)" fill="#CDA72C" d="M322.696,415.87c0,0-9.745,8.382-7.763,7.194c0,0-1.287,7.67-7.59,7.401
				c-6.303-0.267-8.127,9.171-7.882,11.126c0,0,3.949-4.619,10.466-2.967c6.516,1.654,10.057-2.413,10.936-3.702
				c0,0-2.331,7.688-6.85,8.269c0,0,11.194,2.166,15.59-5.346c4.395-7.514,6.612-16.36,7.084-17.155
				C337.158,419.896,322.696,415.87,322.696,415.87"/>
			<path clip-path="url(#SVGID_8_)" fill="#CDA72C" d="M309.873,437.278c0,0-7.975,1.536-6.607,1.02c0,0-4.303-2.372-6.645,0.854
				c-2.341,3.226-7.73,0.425-8.602-0.463c0,0,3.837-0.144,5.576-4.02c1.738-3.875,5.142-4.033,6.123-3.961
				c0,0-4.719-1.863-6.781,0.146c0,0,3.32-6.393,8.766-5.62c5.444,0.771,10.695,3.145,11.273,3.224
				C313.555,428.537,309.873,437.278,309.873,437.278"/>
			<path clip-path="url(#SVGID_8_)" fill="#CDA72C" d="M297.326,415.87c0,0-9.746,8.382-7.764,7.194c0,0-1.287,7.67-7.59,7.401
				c-6.303-0.267-8.126,9.171-7.883,11.126c0,0,3.951-4.619,10.467-2.967c6.517,1.654,10.058-2.413,10.936-3.702
				c0,0-2.33,7.688-6.849,8.269c0,0,11.194,2.166,15.589-5.346c4.395-7.514,6.613-16.36,7.084-17.155
				C311.787,419.896,297.326,415.87,297.326,415.87"/>
			<path clip-path="url(#SVGID_8_)" fill="#CDA72C" d="M284.503,437.278c0,0-7.976,1.536-6.609,1.02c0,0-4.303-2.372-6.644,0.854
				c-2.342,3.226-7.729,0.425-8.603-0.463c0,0,3.839-0.144,5.577-4.02c1.738-3.875,5.141-4.033,6.124-3.961
				c0,0-4.721-1.863-6.782,0.146c0,0,3.321-6.393,8.766-5.62c5.445,0.771,10.695,3.145,11.274,3.224
				C288.185,428.537,284.503,437.278,284.503,437.278"/>
			<path clip-path="url(#SVGID_8_)" fill="#CDA72C" d="M272.949,415.87c0,0-9.744,8.382-7.762,7.194c0,0-1.288,7.67-7.591,7.401
				c-6.302-0.267-8.126,9.171-7.882,11.126c0,0,3.949-4.619,10.466-2.967c6.517,1.654,10.058-2.413,10.937-3.702
				c0,0-2.332,7.688-6.85,8.269c0,0,11.193,2.166,15.589-5.346c4.396-7.514,6.612-16.36,7.084-17.155
				C287.412,419.896,272.949,415.87,272.949,415.87"/>
			<path clip-path="url(#SVGID_8_)" fill="#CDA72C" d="M260.127,437.278c0,0-7.975,1.536-6.608,1.02c0,0-4.304-2.372-6.644,0.854
				c-2.342,3.226-7.73,0.425-8.602-0.463c0,0,3.836-0.144,5.575-4.02c1.738-3.875,5.142-4.033,6.124-3.961
				c0,0-4.72-1.863-6.781,0.146c0,0,3.32-6.393,8.766-5.62c5.443,0.771,10.695,3.145,11.273,3.224
				C263.809,428.537,260.127,437.278,260.127,437.278"/>
		</g>
	</g>
	<path clip-path="url(#SVGID_6_)" fill="#FFFFFF" d="M268.34,419.646l0.161-5.136l1.021-15.3l0.371-5.574l0.521-7.803l0.173-2.601
		h23.409c0-5.201,5.202-7.803,5.202-7.803l2.287,1.716l1.875,1.405l0.832,0.624l3.9,2.926l26.825,18.854l0.694,0.485
		c0,0,0.578,0.231,1.564,0.621c0.004,0.001,0.008,0.002,0.01,0.004c0.055,0.021,0.109,0.043,0.166,0.065
		c0.023,0.009,0.049,0.019,0.072,0.029c0.053,0.02,0.106,0.041,0.161,0.063c0.013,0.005,0.027,0.011,0.041,0.017
		c0.06,0.023,0.12,0.048,0.183,0.071c0.021,0.009,0.043,0.018,0.063,0.025c0.06,0.024,0.12,0.047,0.183,0.072
		c0.01,0.004,0.021,0.008,0.031,0.012c0.098,0.039,0.198,0.078,0.301,0.118c0.057,0.021,0.111,0.044,0.168,0.066
		c0.055,0.021,0.111,0.043,0.166,0.065c0.035,0.013,0.069,0.027,0.104,0.041c0.062,0.024,0.124,0.048,0.187,0.072
		c0.032,0.013,0.064,0.025,0.098,0.039c0.056,0.021,0.113,0.044,0.172,0.066c0.045,0.019,0.089,0.035,0.135,0.054
		c0.057,0.021,0.114,0.044,0.172,0.066c0.035,0.014,0.071,0.028,0.105,0.042c0.068,0.026,0.136,0.052,0.203,0.079
		c0.049,0.02,0.097,0.038,0.146,0.056c0.046,0.019,0.091,0.036,0.138,0.055c0.084,0.032,0.17,0.065,0.256,0.1
		c0.021,0.008,0.039,0.015,0.059,0.022c0.089,0.034,0.179,0.069,0.27,0.104c0.027,0.011,0.055,0.022,0.084,0.033
		c0.067,0.026,0.137,0.053,0.207,0.08c0.067,0.026,0.135,0.053,0.203,0.079c1.189,0.462,2.502,0.967,3.871,1.487
		c0.004,0.001,0.006,0.003,0.008,0.003c0.139,0.054,0.277,0.106,0.416,0.158l0.002,0.001c0.131,0.05,0.264,0.101,0.396,0.151
		c0.021,0.007,0.042,0.015,0.063,0.023c0.125,0.047,0.25,0.095,0.375,0.142l0.034,0.013c0.136,0.051,0.272,0.104,0.41,0.154
		c0.002,0.001,0.003,0.002,0.005,0.002c0.137,0.052,0.274,0.103,0.411,0.155l0.038,0.014c0.126,0.048,0.253,0.095,0.379,0.144
		c0.021,0.008,0.044,0.016,0.066,0.023c0.121,0.046,0.244,0.092,0.367,0.138c0.021,0.009,0.043,0.017,0.065,0.024
		c0.119,0.045,0.239,0.09,0.36,0.134l0.078,0.03c0.119,0.044,0.238,0.089,0.358,0.133c0.025,0.009,0.05,0.018,0.075,0.028
		c0.113,0.042,0.229,0.084,0.342,0.126c0.034,0.013,0.068,0.025,0.102,0.038c0.111,0.041,0.222,0.082,0.332,0.122
		c0.033,0.012,0.065,0.023,0.098,0.035c0.111,0.041,0.221,0.082,0.331,0.122c0.034,0.014,0.069,0.026,0.104,0.039
		c0.109,0.04,0.217,0.079,0.326,0.119c0.034,0.013,0.068,0.025,0.104,0.038c0.107,0.039,0.214,0.078,0.32,0.117
		c0.037,0.013,0.073,0.025,0.109,0.04c0.104,0.037,0.205,0.074,0.307,0.11c0.041,0.016,0.082,0.03,0.123,0.046
		c0.102,0.036,0.201,0.071,0.301,0.107c0.041,0.015,0.08,0.03,0.121,0.044c0.102,0.037,0.203,0.073,0.305,0.11
		c0.039,0.013,0.076,0.026,0.115,0.041c0.094,0.034,0.187,0.067,0.279,0.1c0.047,0.018,0.096,0.034,0.145,0.052
		c0.093,0.033,0.185,0.065,0.275,0.099c0.045,0.015,0.088,0.031,0.131,0.046c0.104,0.037,0.207,0.073,0.31,0.11
		c0.03,0.011,0.062,0.021,0.094,0.032c0.097,0.034,0.193,0.068,0.29,0.103c0.04,0.014,0.081,0.028,0.121,0.042
		c0.084,0.03,0.166,0.058,0.249,0.087c0.051,0.018,0.101,0.036,0.151,0.053c0.086,0.03,0.172,0.061,0.257,0.089
		c0.044,0.016,0.089,0.031,0.133,0.047c0.081,0.027,0.16,0.055,0.241,0.082c0.049,0.018,0.1,0.035,0.15,0.053
		c0.075,0.024,0.149,0.051,0.225,0.076c0.051,0.018,0.102,0.034,0.152,0.053c0.078,0.025,0.152,0.051,0.229,0.077
		c0.049,0.016,0.098,0.032,0.146,0.049c0.121,0.041,0.243,0.082,0.363,0.122c0.238,0.079,0.469,0.166,0.691,0.26
		c0.005,0.001,0.009,0.003,0.013,0.004c0.22,0.092,0.433,0.191,0.638,0.296c0.008,0.003,0.016,0.006,0.022,0.01
		c0.202,0.104,0.399,0.214,0.589,0.328c0.01,0.005,0.02,0.011,0.029,0.017c0.187,0.113,0.367,0.232,0.543,0.356
		c0.011,0.008,0.021,0.016,0.033,0.023c0.172,0.122,0.34,0.251,0.5,0.382c0.013,0.01,0.024,0.019,0.037,0.029
		c0.159,0.131,0.313,0.267,0.463,0.405c0.012,0.012,0.023,0.022,0.035,0.033c0.147,0.14,0.291,0.283,0.428,0.429
		c0.011,0.013,0.022,0.023,0.033,0.034c0.137,0.148,0.27,0.3,0.397,0.452c0.009,0.011,0.019,0.022,0.028,0.033
		c0.127,0.155,0.25,0.313,0.369,0.473c0.008,0.01,0.015,0.021,0.021,0.03c0.119,0.163,0.234,0.328,0.344,0.495
		c0.004,0.007,0.01,0.014,0.016,0.021c0.111,0.17,0.218,0.343,0.32,0.517c0.002,0.004,0.004,0.008,0.006,0.012
		c1.158,1.974,1.619,4.133,1.892,5.764v9.458H268.34V419.646z"/>
	<path clip-path="url(#SVGID_6_)" fill="#F8D012" d="M337.77,415.269l-43.409-30.932l4.507-7.193l11.639,9.148l27.282,18.479
		l0.748,0.507c0,0,2.847,1.103,6.743,2.561l0.007,0.032L337.77,415.269z"/>
	<path clip-path="url(#SVGID_6_)" fill="#F8D012" d="M335.633,402.522c0.564,0.225,13.158,5.252,20.785,7.794
		c3.854,1.285,5.803,4.472,6.789,7.369h-38.678L335.633,402.522z"/>
	<polygon clip-path="url(#SVGID_6_)" fill="#191818" points="310.666,385.268 303.721,391.413 307.221,382.824 	"/>
	<polygon clip-path="url(#SVGID_6_)" fill="#191818" points="317.203,389.925 310.257,396.069 313.758,387.481 	"/>
	
		<line clip-path="url(#SVGID_6_)" fill="none" stroke="#191818" stroke-width="2.148" stroke-miterlimit="10" x1="363.208" y1="418.491" x2="268.34" y2="418.491"/>
	<polygon clip-path="url(#SVGID_6_)" fill="#191818" points="323.739,394.581 316.793,400.727 320.294,392.139 	"/>
	<polygon clip-path="url(#SVGID_6_)" fill="#191818" points="330.275,399.238 323.33,405.383 326.83,396.795 	"/>
	<polygon clip-path="url(#SVGID_6_)" fill="#191818" points="336.813,403.896 329.865,410.04 333.367,401.452 	"/>
	<path clip-path="url(#SVGID_6_)" fill="none" stroke="#191818" stroke-width="4.296" stroke-miterlimit="10" d="M268.34,419.646
		l0.161-5.136l1.021-15.3l0.371-5.574l0.521-7.803l0.173-2.601h23.409c0-5.201,5.202-7.803,5.202-7.803l2.287,1.716l1.875,1.405
		l0.832,0.624l3.9,2.926l26.825,18.854l0.694,0.485c0,0,0.578,0.231,1.564,0.621c0.004,0.001,0.008,0.002,0.01,0.004
		c0.055,0.021,0.109,0.043,0.166,0.065c0.023,0.009,0.049,0.019,0.072,0.029c0.053,0.02,0.106,0.041,0.161,0.063
		c0.013,0.005,0.027,0.011,0.041,0.017c0.06,0.023,0.12,0.048,0.183,0.071c0.021,0.009,0.043,0.018,0.063,0.025
		c0.06,0.024,0.12,0.047,0.183,0.072c0.01,0.004,0.021,0.008,0.031,0.012c0.098,0.039,0.198,0.078,0.301,0.118
		c0.057,0.021,0.111,0.044,0.168,0.066c0.055,0.021,0.111,0.043,0.166,0.065c0.035,0.013,0.069,0.027,0.104,0.041
		c0.062,0.024,0.124,0.048,0.187,0.072c0.032,0.013,0.064,0.025,0.098,0.039c0.056,0.021,0.113,0.044,0.172,0.066
		c0.045,0.019,0.089,0.035,0.135,0.054c0.057,0.021,0.114,0.044,0.172,0.066c0.035,0.014,0.071,0.028,0.105,0.042
		c0.068,0.026,0.136,0.052,0.203,0.079c0.049,0.02,0.097,0.038,0.146,0.056c0.046,0.019,0.091,0.036,0.138,0.055
		c0.084,0.032,0.17,0.065,0.256,0.1c0.021,0.008,0.039,0.015,0.059,0.022c0.089,0.034,0.179,0.069,0.27,0.104
		c0.027,0.011,0.055,0.022,0.084,0.033c0.067,0.026,0.137,0.053,0.207,0.08c0.067,0.026,0.135,0.053,0.203,0.079
		c1.189,0.462,2.502,0.967,3.871,1.487c0.004,0.001,0.006,0.003,0.008,0.003c0.139,0.054,0.277,0.106,0.416,0.158l0.002,0.001
		c0.131,0.05,0.264,0.101,0.396,0.151c0.021,0.007,0.042,0.015,0.063,0.023c0.125,0.047,0.25,0.095,0.375,0.142l0.034,0.013
		c0.136,0.051,0.272,0.104,0.41,0.154c0.002,0.001,0.003,0.002,0.005,0.002c0.137,0.052,0.274,0.103,0.411,0.155l0.038,0.014
		c0.126,0.048,0.253,0.095,0.379,0.144c0.021,0.008,0.044,0.016,0.066,0.023c0.121,0.046,0.244,0.092,0.367,0.138
		c0.021,0.009,0.043,0.017,0.065,0.024c0.119,0.045,0.239,0.09,0.36,0.134l0.078,0.03c0.119,0.044,0.238,0.089,0.358,0.133
		c0.025,0.009,0.05,0.018,0.075,0.028c0.113,0.042,0.229,0.084,0.342,0.126c0.034,0.013,0.068,0.025,0.102,0.038
		c0.111,0.041,0.222,0.082,0.332,0.122c0.033,0.012,0.065,0.023,0.098,0.035c0.111,0.041,0.221,0.082,0.331,0.122
		c0.034,0.014,0.069,0.026,0.104,0.039c0.109,0.04,0.217,0.079,0.326,0.119c0.034,0.013,0.068,0.025,0.104,0.038
		c0.107,0.039,0.214,0.078,0.32,0.117c0.037,0.013,0.073,0.025,0.109,0.04c0.104,0.037,0.205,0.074,0.307,0.11
		c0.041,0.016,0.082,0.03,0.123,0.046c0.102,0.036,0.201,0.071,0.301,0.107c0.041,0.015,0.08,0.03,0.121,0.044
		c0.102,0.037,0.203,0.073,0.305,0.11c0.039,0.013,0.076,0.026,0.115,0.041c0.094,0.034,0.187,0.067,0.279,0.1
		c0.047,0.018,0.096,0.034,0.145,0.052c0.093,0.033,0.185,0.065,0.275,0.099c0.045,0.015,0.088,0.031,0.131,0.046
		c0.104,0.037,0.207,0.073,0.31,0.11c0.03,0.011,0.062,0.021,0.094,0.032c0.097,0.034,0.193,0.068,0.29,0.103
		c0.04,0.014,0.081,0.028,0.121,0.042c0.084,0.03,0.166,0.058,0.249,0.087c0.051,0.018,0.101,0.036,0.151,0.053
		c0.086,0.03,0.172,0.061,0.257,0.089c0.044,0.016,0.089,0.031,0.133,0.047c0.081,0.027,0.16,0.055,0.241,0.082
		c0.049,0.018,0.1,0.035,0.15,0.053c0.075,0.024,0.149,0.051,0.225,0.076c0.051,0.018,0.102,0.034,0.152,0.053
		c0.078,0.025,0.152,0.051,0.229,0.077c0.049,0.016,0.098,0.032,0.146,0.049c0.121,0.041,0.243,0.082,0.363,0.122
		c0.238,0.079,0.469,0.166,0.691,0.26c0.005,0.001,0.009,0.003,0.013,0.004c0.22,0.092,0.433,0.191,0.638,0.296
		c0.008,0.003,0.016,0.006,0.022,0.01c0.202,0.104,0.399,0.214,0.589,0.328c0.01,0.005,0.02,0.011,0.029,0.017
		c0.187,0.113,0.367,0.232,0.543,0.356c0.011,0.008,0.021,0.016,0.033,0.023c0.172,0.122,0.34,0.251,0.5,0.382
		c0.013,0.01,0.024,0.019,0.037,0.029c0.159,0.131,0.313,0.267,0.463,0.405c0.012,0.012,0.023,0.022,0.035,0.033
		c0.147,0.14,0.291,0.283,0.428,0.429c0.011,0.013,0.022,0.023,0.033,0.034c0.137,0.148,0.27,0.3,0.397,0.452
		c0.009,0.011,0.019,0.022,0.028,0.033c0.127,0.155,0.25,0.313,0.369,0.473c0.008,0.01,0.015,0.021,0.021,0.03
		c0.119,0.163,0.234,0.328,0.344,0.495c0.004,0.007,0.01,0.014,0.016,0.021c0.111,0.17,0.218,0.343,0.32,0.517
		c0.002,0.004,0.004,0.008,0.006,0.012c1.158,1.974,1.619,4.133,1.892,5.764v9.458H268.34V419.646z"/>
	<path clip-path="url(#SVGID_6_)" fill="#FFFFFF" d="M227.518,419.646l0.16-5.136l1.021-15.3l0.372-5.574l0.52-7.803l0.174-2.601
		h23.408c0-5.201,5.203-7.803,5.203-7.803l2.289,1.716l1.872,1.405l0.832,0.624l3.901,2.926l26.824,18.854l0.695,0.485
		c0,0,0.578,0.231,1.564,0.621c0.003,0.001,0.007,0.002,0.01,0.004c0.055,0.021,0.109,0.043,0.165,0.065
		c0.024,0.009,0.049,0.019,0.073,0.029c0.053,0.02,0.105,0.041,0.16,0.063c0.015,0.005,0.027,0.011,0.043,0.017
		c0.059,0.023,0.119,0.048,0.181,0.071c0.021,0.009,0.043,0.018,0.063,0.025c0.061,0.024,0.121,0.047,0.183,0.072
		c0.011,0.004,0.021,0.008,0.032,0.012c0.098,0.039,0.197,0.078,0.3,0.118c0.057,0.021,0.112,0.044,0.169,0.066
		c0.055,0.021,0.111,0.043,0.166,0.065c0.035,0.013,0.07,0.027,0.105,0.041c0.061,0.024,0.123,0.048,0.185,0.072
		c0.032,0.013,0.065,0.025,0.098,0.039c0.058,0.021,0.114,0.044,0.173,0.066c0.045,0.019,0.088,0.035,0.135,0.054
		c0.057,0.021,0.113,0.044,0.172,0.066c0.035,0.014,0.07,0.028,0.105,0.042c0.067,0.026,0.135,0.052,0.204,0.079
		c0.048,0.02,0.097,0.038,0.144,0.056c0.047,0.019,0.092,0.036,0.139,0.055c0.084,0.032,0.17,0.065,0.257,0.1
		c0.019,0.008,0.038,0.015,0.058,0.022c0.088,0.034,0.178,0.069,0.269,0.104c0.028,0.011,0.056,0.022,0.084,0.033
		c0.069,0.026,0.138,0.053,0.207,0.08c0.067,0.026,0.136,0.053,0.204,0.079c1.189,0.462,2.501,0.967,3.871,1.487
		c0.003,0.001,0.005,0.003,0.008,0.003c0.138,0.054,0.277,0.106,0.416,0.158l0.002,0.001c0.132,0.05,0.264,0.101,0.396,0.151
		c0.021,0.007,0.041,0.015,0.063,0.023c0.125,0.047,0.25,0.095,0.375,0.142c0.012,0.004,0.023,0.009,0.033,0.013
		c0.137,0.051,0.273,0.104,0.41,0.154c0.002,0.001,0.004,0.002,0.006,0.002c0.137,0.052,0.273,0.103,0.41,0.155
		c0.014,0.005,0.025,0.01,0.039,0.014c0.125,0.048,0.252,0.095,0.379,0.144c0.021,0.008,0.043,0.016,0.065,0.023
		c0.122,0.046,0.245,0.092,0.368,0.138c0.021,0.009,0.043,0.017,0.064,0.024l0.36,0.134c0.026,0.01,0.052,0.021,0.079,0.03
		c0.119,0.044,0.239,0.089,0.357,0.133c0.025,0.009,0.051,0.018,0.076,0.028c0.113,0.042,0.228,0.084,0.342,0.126
		c0.033,0.013,0.068,0.025,0.102,0.038c0.11,0.041,0.221,0.082,0.331,0.122c0.033,0.012,0.065,0.023,0.099,0.035
		c0.11,0.041,0.221,0.082,0.33,0.122c0.035,0.014,0.07,0.026,0.105,0.039c0.109,0.04,0.217,0.079,0.326,0.119
		c0.033,0.013,0.068,0.025,0.103,0.038c0.107,0.039,0.214,0.078,0.321,0.117c0.036,0.013,0.072,0.025,0.109,0.04
		c0.103,0.037,0.205,0.074,0.307,0.11c0.041,0.016,0.082,0.03,0.123,0.046c0.102,0.036,0.201,0.071,0.301,0.107
		c0.04,0.015,0.08,0.03,0.121,0.044c0.102,0.037,0.203,0.073,0.305,0.11c0.038,0.013,0.076,0.026,0.115,0.041
		c0.094,0.034,0.186,0.067,0.279,0.1c0.048,0.018,0.096,0.034,0.145,0.052c0.092,0.033,0.184,0.065,0.275,0.099
		c0.044,0.015,0.088,0.031,0.131,0.046c0.104,0.037,0.207,0.073,0.309,0.11c0.031,0.011,0.063,0.021,0.094,0.032
		c0.098,0.034,0.193,0.068,0.291,0.103c0.039,0.014,0.08,0.028,0.121,0.042c0.084,0.03,0.166,0.058,0.248,0.087
		c0.051,0.018,0.103,0.036,0.152,0.053c0.086,0.03,0.171,0.061,0.256,0.089c0.045,0.016,0.09,0.031,0.133,0.047
		c0.082,0.027,0.16,0.055,0.241,0.082c0.05,0.018,0.101,0.035,0.15,0.053c0.075,0.024,0.149,0.051,0.225,0.076
		c0.052,0.018,0.103,0.034,0.153,0.053c0.077,0.025,0.152,0.051,0.229,0.077c0.049,0.016,0.098,0.032,0.146,0.049
		c0.123,0.041,0.243,0.082,0.364,0.122c0.238,0.079,0.469,0.166,0.693,0.26c0.002,0.001,0.006,0.003,0.01,0.004
		c0.22,0.092,0.433,0.191,0.639,0.296c0.008,0.003,0.015,0.006,0.021,0.01c0.203,0.104,0.399,0.214,0.59,0.328
		c0.01,0.005,0.019,0.011,0.028,0.017c0.187,0.113,0.368,0.232,0.543,0.356c0.011,0.008,0.022,0.016,0.033,0.023
		c0.173,0.122,0.34,0.251,0.502,0.382c0.011,0.01,0.022,0.019,0.035,0.029c0.159,0.131,0.313,0.267,0.463,0.405
		c0.013,0.012,0.024,0.022,0.035,0.033c0.147,0.14,0.291,0.283,0.429,0.429c0.012,0.013,0.021,0.023,0.032,0.034
		c0.138,0.148,0.271,0.3,0.397,0.452c0.01,0.011,0.02,0.022,0.028,0.033c0.128,0.155,0.251,0.313,0.369,0.473
		c0.008,0.01,0.015,0.021,0.022,0.03c0.119,0.163,0.233,0.328,0.344,0.495c0.005,0.007,0.01,0.014,0.015,0.021
		c0.111,0.17,0.218,0.343,0.32,0.517c0.002,0.004,0.005,0.008,0.007,0.012c1.157,1.974,1.619,4.133,1.891,5.764v9.458h-95.525
		V419.646z"/>
	<path clip-path="url(#SVGID_6_)" fill="#F8D012" d="M296.947,415.269l-43.409-30.932l4.507-7.193l11.639,9.148l27.282,18.479
		l0.747,0.507c0,0,2.848,1.103,6.743,2.561l0.008,0.032L296.947,415.269z"/>
	<path clip-path="url(#SVGID_6_)" fill="#F8D012" d="M294.811,402.522c0.563,0.225,13.158,5.252,20.785,7.794
		c3.854,1.285,5.803,4.472,6.789,7.369h-38.678L294.811,402.522z"/>
	<polygon clip-path="url(#SVGID_6_)" fill="#191818" points="269.844,385.268 262.897,391.413 266.398,382.824 	"/>
	<polygon clip-path="url(#SVGID_6_)" fill="#191818" points="276.381,389.925 269.434,396.069 272.936,387.481 	"/>
	
		<line clip-path="url(#SVGID_6_)" fill="none" stroke="#191818" stroke-width="2.148" stroke-miterlimit="10" x1="322.385" y1="418.491" x2="227.518" y2="418.491"/>
	<polygon clip-path="url(#SVGID_6_)" fill="#191818" points="282.916,394.581 275.971,400.727 279.471,392.139 	"/>
	<polygon clip-path="url(#SVGID_6_)" fill="#191818" points="289.453,399.238 282.507,405.383 286.008,396.795 	"/>
	<polygon clip-path="url(#SVGID_6_)" fill="#191818" points="295.99,403.896 289.043,410.04 292.545,401.452 	"/>
	<path clip-path="url(#SVGID_6_)" fill="none" stroke="#191818" stroke-width="4.296" stroke-miterlimit="10" d="M227.518,419.646
		l0.16-5.136l1.021-15.3l0.372-5.574l0.52-7.803l0.174-2.601h23.408c0-5.201,5.203-7.803,5.203-7.803l2.289,1.716l1.872,1.405
		l0.832,0.624l3.901,2.926l26.824,18.854l0.695,0.485c0,0,0.578,0.231,1.564,0.621c0.003,0.001,0.007,0.002,0.01,0.004
		c0.055,0.021,0.109,0.043,0.165,0.065c0.024,0.009,0.049,0.019,0.073,0.029c0.053,0.02,0.105,0.041,0.16,0.063
		c0.015,0.005,0.027,0.011,0.043,0.017c0.059,0.023,0.119,0.048,0.181,0.071c0.021,0.009,0.043,0.018,0.063,0.025
		c0.061,0.024,0.121,0.047,0.183,0.072c0.011,0.004,0.021,0.008,0.032,0.012c0.098,0.039,0.197,0.078,0.3,0.118
		c0.057,0.021,0.112,0.044,0.169,0.066c0.055,0.021,0.111,0.043,0.166,0.065c0.035,0.013,0.07,0.027,0.105,0.041
		c0.061,0.024,0.123,0.048,0.185,0.072c0.032,0.013,0.065,0.025,0.098,0.039c0.058,0.021,0.114,0.044,0.173,0.066
		c0.045,0.019,0.088,0.035,0.135,0.054c0.057,0.021,0.113,0.044,0.172,0.066c0.035,0.014,0.07,0.028,0.105,0.042
		c0.067,0.026,0.135,0.052,0.204,0.079c0.048,0.02,0.097,0.038,0.144,0.056c0.047,0.019,0.092,0.036,0.139,0.055
		c0.084,0.032,0.17,0.065,0.257,0.1c0.019,0.008,0.038,0.015,0.058,0.022c0.088,0.034,0.178,0.069,0.269,0.104
		c0.028,0.011,0.056,0.022,0.084,0.033c0.069,0.026,0.138,0.053,0.207,0.08c0.067,0.026,0.136,0.053,0.204,0.079
		c1.189,0.462,2.501,0.967,3.871,1.487c0.003,0.001,0.005,0.003,0.008,0.003c0.138,0.054,0.277,0.106,0.416,0.158l0.002,0.001
		c0.132,0.05,0.264,0.101,0.396,0.151c0.021,0.007,0.041,0.015,0.063,0.023c0.125,0.047,0.25,0.095,0.375,0.142
		c0.012,0.004,0.023,0.009,0.033,0.013c0.137,0.051,0.273,0.104,0.41,0.154c0.002,0.001,0.004,0.002,0.006,0.002
		c0.137,0.052,0.273,0.103,0.41,0.155c0.014,0.005,0.025,0.01,0.039,0.014c0.125,0.048,0.252,0.095,0.379,0.144
		c0.021,0.008,0.043,0.016,0.065,0.023c0.122,0.046,0.245,0.092,0.368,0.138c0.021,0.009,0.043,0.017,0.064,0.024l0.36,0.134
		c0.026,0.01,0.052,0.021,0.079,0.03c0.119,0.044,0.239,0.089,0.357,0.133c0.025,0.009,0.051,0.018,0.076,0.028
		c0.113,0.042,0.228,0.084,0.342,0.126c0.033,0.013,0.068,0.025,0.102,0.038c0.11,0.041,0.221,0.082,0.331,0.122
		c0.033,0.012,0.065,0.023,0.099,0.035c0.11,0.041,0.221,0.082,0.33,0.122c0.035,0.014,0.07,0.026,0.105,0.039
		c0.109,0.04,0.217,0.079,0.326,0.119c0.033,0.013,0.068,0.025,0.103,0.038c0.107,0.039,0.214,0.078,0.321,0.117
		c0.036,0.013,0.072,0.025,0.109,0.04c0.103,0.037,0.205,0.074,0.307,0.11c0.041,0.016,0.082,0.03,0.123,0.046
		c0.102,0.036,0.201,0.071,0.301,0.107c0.04,0.015,0.08,0.03,0.121,0.044c0.102,0.037,0.203,0.073,0.305,0.11
		c0.038,0.013,0.076,0.026,0.115,0.041c0.094,0.034,0.186,0.067,0.279,0.1c0.048,0.018,0.096,0.034,0.145,0.052
		c0.092,0.033,0.184,0.065,0.275,0.099c0.044,0.015,0.088,0.031,0.131,0.046c0.104,0.037,0.207,0.073,0.309,0.11
		c0.031,0.011,0.063,0.021,0.094,0.032c0.098,0.034,0.193,0.068,0.291,0.103c0.039,0.014,0.08,0.028,0.121,0.042
		c0.084,0.03,0.166,0.058,0.248,0.087c0.051,0.018,0.103,0.036,0.152,0.053c0.086,0.03,0.171,0.061,0.256,0.089
		c0.045,0.016,0.09,0.031,0.133,0.047c0.082,0.027,0.16,0.055,0.241,0.082c0.05,0.018,0.101,0.035,0.15,0.053
		c0.075,0.024,0.149,0.051,0.225,0.076c0.052,0.018,0.103,0.034,0.153,0.053c0.077,0.025,0.152,0.051,0.229,0.077
		c0.049,0.016,0.098,0.032,0.146,0.049c0.123,0.041,0.243,0.082,0.364,0.122c0.238,0.079,0.469,0.166,0.693,0.26
		c0.002,0.001,0.006,0.003,0.01,0.004c0.22,0.092,0.433,0.191,0.639,0.296c0.008,0.003,0.015,0.006,0.021,0.01
		c0.203,0.104,0.399,0.214,0.59,0.328c0.01,0.005,0.019,0.011,0.028,0.017c0.187,0.113,0.368,0.232,0.543,0.356
		c0.011,0.008,0.022,0.016,0.033,0.023c0.173,0.122,0.34,0.251,0.502,0.382c0.011,0.01,0.022,0.019,0.035,0.029
		c0.159,0.131,0.313,0.267,0.463,0.405c0.013,0.012,0.024,0.022,0.035,0.033c0.147,0.14,0.291,0.283,0.429,0.429
		c0.012,0.013,0.021,0.023,0.032,0.034c0.138,0.148,0.271,0.3,0.397,0.452c0.01,0.011,0.02,0.022,0.028,0.033
		c0.128,0.155,0.251,0.313,0.369,0.473c0.008,0.01,0.015,0.021,0.022,0.03c0.119,0.163,0.233,0.328,0.344,0.495
		c0.005,0.007,0.01,0.014,0.015,0.021c0.111,0.17,0.218,0.343,0.32,0.517c0.002,0.004,0.005,0.008,0.007,0.012
		c1.157,1.974,1.619,4.133,1.891,5.764v9.458h-95.525V419.646z"/>
	<polygon clip-path="url(#SVGID_6_)" fill="#F8D012" points="254.979,395.355 268.277,402.134 264.725,404.908 270.983,411.462 
		257.684,404.684 261.238,401.908 	"/>
</g>
<path fill="#191818" d="M367.318,323.61l3.394,5.225c-3.476,4.13-6.325,10.43-6.392,19.499l-0.002,0.06v0.03v0.024l-0.002,0.172
	v0.04v0.039v71.372c-0.437,2.981-4.16,22.673-27.061,29.098c-5.879,1.649-21.529,6.528-31.393,14.107
	c-5.686-4.468-15.25-9.593-31.342-14.107c-22.9-6.425-26.625-26.116-27.061-29.098V348.66l-0.002-0.267l-0.001-0.068
	c-0.067-9.064-2.915-15.362-6.392-19.49l3.393-5.225h28.033h23.781h9.197h33.815H367.318 M371.862,315.244h-32.576h-33.815h-9.197
	h-23.781h-32.576l-10.034,15.454c0,0,9.101,2.806,9.21,17.689c0.002,0.091,0.004,0.181,0.004,0.272v71.94
	c0,0,2.764,28.095,33.166,36.624c29.393,8.245,33.383,17.896,33.615,18.528c0.008,0.022,0.012,0.033,0.012,0.033
	s3.225-10.034,33.627-18.562c30.402-8.529,33.166-36.624,33.166-36.624v-71.901c0-0.013,0.002-0.025,0.002-0.039
	c0-0.092,0.002-0.182,0.002-0.272c0.11-14.884,9.211-17.689,9.211-17.689L371.862,315.244z"/>
</svg>
