<?xml version="1.0" encoding="utf-8"?>
<!-- Generator: Adobe Illustrator 16.0.0, SVG Export Plug-In . SVG Version: 6.00 Build 0)  -->
<!DOCTYPE svg PUBLIC "-//W3C//DTD SVG 1.1//EN" "http://www.w3.org/Graphics/SVG/1.1/DTD/svg11.dtd">
<svg version="1.1" id="Layer_1" xmlns="http://www.w3.org/2000/svg" xmlns:xlink="http://www.w3.org/1999/xlink" x="0px" y="0px"
	 width="240px" height="200px" viewBox="0 0 240 200" enable-background="new 0 0 240 200" xml:space="preserve">
<path fill="#020202" d="M212.581,106.309c0.146,1.75-0.152,3.623,0.187,5.47c0.328,0.772,0.593,1.554,0.873,2.349
	c0.819,2.085,1.733,3.99,3.312,4.865c1.283-2.557,2.463-5.285,2.742-8.496c-0.084-2.1-0.509-4.063-1.248-5.928
	c-1.15-2.94-3.063-5.579-5.613-7.852c-0.082-0.08-0.143-0.109-0.186-0.171l-0.416-0.012c0.094,0.271,0.166,0.577,0.247,0.886
	C213.156,100.306,212.861,103.098,212.581,106.309"/>
<path fill="#020202" d="M212.779,124.089c-1.816-3.577-5.512-6.852-6.379-10.245l-0.532-0.223c-1.337,3.336-1.192,7.326-0.168,10.95
	c1.108,4.704,3.424,8.369,4.508,12.994c0.192,0.891,0.353,1.774,0.458,2.741c6.956-5.049,13.369-10.808,15.182-19.896l-12.192,6.13
	C213.491,125.692,213.162,124.854,212.779,124.089"/>
<path fill="#020202" d="M193.177,165.246c-0.915-0.018-1.782-0.026-2.638,0.015c3.211-4.57,2.289-10.164,4.059-15.119l-0.018-0.219
	c-5.33,2.008-8.125,6.7-10.73,11.657c-1.861,3.592-3.684,7.273-6.34,9.993c1.109,0.08,2.152,0.229,3.234,0.389
	c1.121,0.163,2.273,0.386,3.436,0.691c2.305,0.136,4.58,0.237,6.73,0.167c4.036-0.171,7.795-0.854,11.037-2.605
	c1.502-0.798,2.902-1.85,4.131-3.161c-0.949-0.153-1.992-0.342-3.027-0.523C199.785,165.975,196.354,165.404,193.177,165.246"/>
<path fill="#020202" d="M206.177,149.673c-1.493-5.036-4.274-10.122-3.864-15.641l-0.143-0.22l-0.375,0.164
	c-0.045,0.036-0.096,0.108-0.102,0.146c-0.291,0.501-0.601,0.786-1.135,1.3c-3.806,6.707-3.23,14.78-1.275,21.92
	c0.32,1.176,0.652,2.295,1.063,3.425c3.424-2.676,7.646-3.357,11.443-5.306c0.34-0.207,0.676-0.37,1.028-0.582
	c3.659-2.641,5.886-7.007,6.841-11.183c-2.373,0.757-4.699,1.368-6.875,2.186C210.438,146.728,208.176,147.87,206.177,149.673"/>
<path fill="#020202" d="M27.377,106.438c-0.24,1.74-0.043,3.627-0.482,5.45c-0.369,0.755-0.674,1.521-0.996,2.3
	c-0.932,2.036-1.947,3.891-3.568,4.681c-1.145-2.622-2.174-5.41-2.281-8.632c0.197-2.093,0.727-4.029,1.566-5.854
	c1.307-2.873,3.357-5.406,6.027-7.536c0.086-0.074,0.148-0.103,0.195-0.161l0.415,0.013c-0.107,0.267-0.196,0.565-0.296,0.871
	C27.127,100.414,27.271,103.217,27.377,106.438"/>
<path fill="#020202" d="M27.102,124.089c1.816-3.577,5.512-6.852,6.379-10.245l0.531-0.223c1.337,3.336,1.193,7.326,0.169,10.95
	c-1.108,4.704-3.424,8.369-4.508,12.994c-0.194,0.891-0.353,1.774-0.458,2.741c-6.957-5.049-13.37-10.808-15.182-19.896l12.193,6.13
	C26.389,125.692,26.719,124.854,27.102,124.089"/>
<path fill="#020202" d="M46.704,165.246c0.915-0.018,1.782-0.026,2.638,0.015c-3.212-4.57-2.291-10.164-4.059-15.119l0.018-0.219
	c5.329,2.008,8.124,6.7,10.73,11.657c1.861,3.592,3.684,7.273,6.34,9.993c-1.109,0.08-2.153,0.229-3.234,0.389
	c-1.122,0.163-2.275,0.386-3.436,0.691c-2.305,0.136-4.58,0.237-6.732,0.167c-4.035-0.171-7.794-0.854-11.036-2.605
	c-1.502-0.798-2.901-1.85-4.131-3.161c0.948-0.153,1.992-0.342,3.028-0.523C40.094,165.975,43.527,165.404,46.704,165.246"/>
<path fill="#020202" d="M33.704,149.673c1.493-5.036,4.274-10.122,3.864-15.641l0.143-0.22l0.374,0.164
	c0.044,0.036,0.097,0.108,0.101,0.146c0.293,0.501,0.602,0.786,1.137,1.3c3.805,6.707,3.229,14.78,1.274,21.92
	c-0.319,1.176-0.653,2.295-1.062,3.425c-3.424-2.676-7.645-3.357-11.443-5.306c-0.342-0.207-0.677-0.37-1.029-0.582
	c-3.66-2.641-5.886-7.007-6.842-11.183c2.373,0.757,4.701,1.368,6.877,2.186C29.443,146.728,31.705,147.87,33.704,149.673"/>
<path fill="#FFFFFF" d="M9.314,25.175c0.313-2.896,2.676-4.151,5.252-2.79l29.303,15.512l27.572,14.598
	c2.577,1.363,3.977,4.757,3.11,7.54l-4.099,13.18c-0.578,1.858-2.086,3.129-3.84,3.479l2.284,0.814
	c1.837,0.975,2.835,3.395,2.218,5.378l-2.972,9.538c-0.397,1.275-1.43,2.218-2.635,2.544l3.817,1.365
	c1.268,0.671,1.957,2.342,1.531,3.712l-2.119,6.77c-0.427,1.37-1.98,2.374-3.332,1.89c0,0-4.746-1.706-16.617-5.971
	c-11.871-4.268-11.633-15.438-11.633-15.438c0.073-0.68,0.401-1.237,0.86-1.563C22.15,79.233,22.382,64.146,22.382,64.146
	c0.152-1.414,1.013-2.343,2.13-2.479C6.566,50.669,9.314,25.175,9.314,25.175"/>
<path fill="#FFFFFF" d="M230.566,25.175c-0.313-2.896-2.678-4.151-5.253-2.79l-29.302,15.512l-27.574,14.598
	c-2.576,1.363-3.976,4.757-3.109,7.54l4.1,13.18c0.577,1.858,2.084,3.129,3.838,3.479l-2.283,0.814
	c-1.836,0.975-2.836,3.395-2.217,5.378l2.971,9.538c0.397,1.275,1.431,2.218,2.636,2.544l-3.815,1.365
	c-1.269,0.671-1.957,2.342-1.531,3.712l2.119,6.77c0.426,1.37,1.979,2.374,3.33,1.89c0,0,4.748-1.706,16.617-5.971
	c11.871-4.268,11.635-15.438,11.635-15.438c-0.074-0.68-0.402-1.237-0.861-1.563c15.864-6.499,15.633-21.586,15.633-21.586
	c-0.153-1.414-1.014-2.343-2.131-2.479C233.313,50.669,230.566,25.175,230.566,25.175"/>
<polygon fill="#020202" points="18.443,54.476 66.633,83.692 16.746,57.476 "/>
<polygon fill="#020202" points="28.129,75.478 66.633,98.994 26.761,77.879 "/>
<path fill="none" stroke="#020202" stroke-width="5.77" stroke-miterlimit="10" d="M9.314,25.175
	c0.313-2.896,2.676-4.151,5.252-2.79l29.303,15.512l27.572,14.598c2.577,1.363,3.977,4.757,3.11,7.54l-4.099,13.18
	c-0.578,1.858-2.086,3.129-3.84,3.479l2.284,0.814c1.837,0.975,2.835,3.395,2.218,5.378l-2.972,9.538
	c-0.397,1.275-1.43,2.218-2.635,2.544l3.817,1.365c1.268,0.671,1.957,2.342,1.531,3.712l-2.119,6.77
	c-0.427,1.37-1.98,2.374-3.332,1.89c0,0-4.746-1.706-16.617-5.971c-11.871-4.268-11.633-15.438-11.633-15.438
	c0.073-0.68,0.401-1.237,0.86-1.563C22.15,79.233,22.382,64.146,22.382,64.146c0.152-1.414,1.013-2.343,2.13-2.479
	C6.566,50.669,9.314,25.175,9.314,25.175z"/>
<path fill="none" stroke="#020202" stroke-width="5.77" stroke-miterlimit="10" d="M230.566,25.175
	c-0.313-2.896-2.678-4.151-5.253-2.79l-29.302,15.512l-27.574,14.598c-2.576,1.363-3.976,4.757-3.109,7.54l4.1,13.18
	c0.577,1.858,2.084,3.129,3.838,3.479l-2.283,0.814c-1.836,0.975-2.836,3.395-2.217,5.378l2.971,9.538
	c0.397,1.275,1.431,2.218,2.636,2.544l-3.815,1.365c-1.269,0.671-1.957,2.342-1.531,3.712l2.119,6.77
	c0.426,1.37,1.979,2.374,3.33,1.89c0,0,4.748-1.706,16.617-5.971c11.871-4.268,11.635-15.438,11.635-15.438
	c-0.074-0.68-0.402-1.237-0.861-1.563c15.864-6.499,15.633-21.586,15.633-21.586c-0.153-1.414-1.014-2.343-2.131-2.479
	C233.313,50.669,230.566,25.175,230.566,25.175z"/>
<polygon fill="#020202" points="223.134,57.476 173.248,83.692 221.438,54.476 "/>
<polygon fill="#020202" points="213.12,77.88 173.247,98.995 211.752,75.478 "/>
<rect x="75.088" y="131.861" fill="#020202" width="85" height="43.667"/>
<polygon fill="#020202" points="148.389,161.025 174.225,152.046 161.152,142.266 109.645,166.528 "/>
<polygon fill="#020202" points="121.645,167.528 64.949,152.046 78.023,142.266 126.145,164.028 "/>
<polygon fill="#FFFFFF" points="171.902,183.863 119.609,198.046 67.316,182.358 67.316,154.837 119.609,164.525 171.902,154.837 
	"/>
<polygon fill="none" stroke="#020202" stroke-width="4.515" stroke-miterlimit="10" points="171.902,183.863 119.609,196.646 
	67.316,183.863 67.316,154.837 119.609,163.62 171.902,154.837 "/>
<path fill="#FDD00F" d="M119.928,37.388H53.144c0.001,0.091,0.003,0.182,0.003,0.272V109.6c0,0,2.764,28.096,33.166,36.624
	c29.393,8.245,33.382,17.896,33.615,18.529c0.008,0.021,0.012,0.032,0.012,0.032s3.225-10.034,33.626-18.563
	c30.404-8.528,33.166-36.624,33.166-36.624v-71.9c0-0.014,0.002-0.025,0.002-0.039c0-0.092,0.003-0.183,0.003-0.272L119.928,37.388
	L119.928,37.388z"/>
<g opacity="0.5">
	<g>
		<g>
			<defs>
				<rect id="SVGID_1_" x="119.93" y="37.39" width="66.811" height="127.4"/>
			</defs>
			<clipPath id="SVGID_2_">
				<use xlink:href="#SVGID_1_"  overflow="visible"/>
			</clipPath>
			<path clip-path="url(#SVGID_2_)" fill="#CDA72C" d="M153.566,146.224c30.401-8.527,33.166-36.624,33.166-36.624V37.7
				c0-0.015,0.002-0.026,0.002-0.039c0-0.092,0.002-0.183,0.002-0.273h-66.809v127.366c0.008,0.022,0.012,0.034,0.012,0.034
				S123.164,154.753,153.566,146.224"/>
		</g>
	</g>
</g>
<path fill="#191818" d="M181.371,12.61l3.393,5.225c-2.296,2.726-4.318,6.396-5.445,11.188H60.563
	c-1.129-4.79-3.149-8.462-5.445-11.188l3.393-5.225h28.033h23.781h9.197h33.816H181.371 M185.913,4.244h-32.575h-33.816h-9.197
	H86.544H53.968L43.935,19.698c0,0,9.1,2.806,9.211,17.688h133.592c0.111-14.884,9.211-17.688,9.211-17.688L185.913,4.244z"/>
<g opacity="0.4">
	<g>
		<g>
			<defs>
				<rect id="SVGID_3_" x="43.93" y="4.24" width="152.021" height="160.55"/>
			</defs>
			<clipPath id="SVGID_4_">
				<use xlink:href="#SVGID_3_"  overflow="visible"/>
			</clipPath>
			<path clip-path="url(#SVGID_4_)" fill="#FFFFFF" d="M177.943,18.041c-2.643,4.354-4.928,10.602-5.004,19.224v0.03l-0.002,0.295
				l-0.002,0.055V37.7v70.901c-0.261,1.438-1.203,5.667-3.912,10.227c-4.133,6.953-10.588,11.701-19.185,14.113
				c-13.942,3.911-23.45,8.354-29.93,12.658c-6.465-4.301-15.953-8.755-29.871-12.658c-8.596-2.412-15.051-7.16-19.182-14.113
				c-2.711-4.56-3.654-8.787-3.914-10.227V37.66l-0.004-0.376c-0.063-8.624-2.354-14.881-5.002-19.243h24.605h23.781h9.197h33.816
				H177.943 M185.913,4.244h-32.575h-33.816h-9.197H86.544H53.968L43.935,19.698c0,0,9.1,2.806,9.211,17.688
				c0,0.091,0.002,0.182,0.002,0.272v71.939c0,0,2.764,28.096,33.166,36.624c29.393,8.245,33.383,17.896,33.615,18.528
				c0.008,0.022,0.012,0.033,0.012,0.033s3.225-10.034,33.627-18.563c30.401-8.528,33.166-36.624,33.166-36.624v-71.9
				c0-0.014,0.002-0.025,0.002-0.039c0-0.092,0.002-0.183,0.002-0.272c0.111-14.884,9.211-17.688,9.211-17.688L185.913,4.244z"/>
		</g>
	</g>
</g>
<path fill="#1A1A19" d="M195.947,19.698L185.913,4.244h-32.575h-33.816h-9.197H86.544H53.968L43.935,19.698
	c0,0,9.1,2.807,9.211,17.688v7.526h133.592v-7.526C186.848,22.505,195.947,19.698,195.947,19.698"/>
<polygon fill="#FFFFFF" points="68.493,33.386 68.493,18.514 65.453,21.675 63.135,19.236 69.035,13.306 72.557,13.306 
	72.557,33.386 "/>
<polygon fill="#FFFFFF" points="97,33.386 97,20.44 92.515,33.386 90.919,33.386 86.464,20.44 86.464,33.386 82.43,33.386 
	82.43,13.306 87.849,13.306 91.732,24.505 95.646,13.306 101.033,13.306 101.033,33.386 "/>
<path fill="#FFFFFF" d="M103.74,23.36c0-5.961,3.131-10.387,8.37-10.387c5.269,0,8.399,4.426,8.399,10.387
	c0,5.99-3.131,10.387-8.399,10.387C106.871,33.747,103.74,29.352,103.74,23.36 M116.385,23.36c0-3.885-1.506-6.805-4.274-6.805
	c-2.741,0-4.215,2.92-4.215,6.805c0,3.822,1.474,6.804,4.215,6.804C114.879,30.164,116.385,27.184,116.385,23.36"/>
<polygon fill="#FFFFFF" points="134.145,33.386 127.311,21.524 127.311,33.386 123.275,33.386 123.275,13.306 127.371,13.306 
	133.934,24.745 133.934,13.306 137.998,13.306 137.998,33.386 "/>
<polygon fill="#FFFFFF" points="144.859,33.386 144.859,16.857 140.404,16.857 140.404,13.306 153.35,13.306 153.35,16.857 
	148.893,16.857 148.893,33.386 "/>
<polygon fill="#FFFFFF" points="166.443,33.386 166.443,24.836 159.79,24.836 159.79,33.386 155.755,33.386 155.755,13.306 
	159.79,13.306 159.79,21.283 166.443,21.283 166.443,13.306 170.508,13.306 170.508,33.386 "/>
<path fill="#1A1A19" d="M91.613,183.65l2.023-2.148c0.875,1.148,2.049,1.799,3.475,1.799c1.6,0,2.523-1.225,2.523-2.625
	c0-1.648-0.875-2.624-2.373-2.624c-1.125,0-1.975,0.399-2.75,1.375l-2.424-0.649v-9.474h9.997v2.95h-6.649v4.273
	c0.651-0.801,1.775-1.375,3.051-1.375c2.523,0,4.549,1.975,4.549,5.424c0,3.35-2.275,5.699-5.824,5.699
	C94.637,186.275,92.861,185.325,91.613,183.65"/>
<path fill="#1A1A19" d="M104.638,177.652c0-4.3,1.774-8.6,5.898-8.6c4.149,0,5.897,4.3,5.897,8.6c0,4.272-1.724,8.623-5.897,8.623
	C106.412,186.275,104.638,181.926,104.638,177.652 M113.035,177.652c0-3.226-0.549-5.624-2.499-5.624
	c-1.925,0-2.476,2.398-2.476,5.624c0,3.198,0.551,5.647,2.476,5.647C112.486,183.301,113.035,180.852,113.035,177.652"/>
<path fill="#1A1A19" d="M118.063,177.652c0-4.3,1.774-8.6,5.898-8.6c4.148,0,5.898,4.3,5.898,8.6c0,4.272-1.726,8.623-5.898,8.623
	C119.837,186.275,118.063,181.926,118.063,177.652 M126.46,177.652c0-3.226-0.55-5.624-2.499-5.624
	c-1.926,0-2.475,2.398-2.475,5.624c0,3.198,0.549,5.647,2.475,5.647C125.91,183.301,126.46,180.852,126.46,177.652"/>
<polygon fill="#1A1A19" points="140.535,185.975 136.686,179.451 135.511,181.301 135.511,185.975 132.162,185.975 132.162,169.304 
	135.511,169.304 135.511,176.877 140.21,169.304 144.109,169.304 138.785,177.152 144.484,185.975 "/>
<g>
	<g>
		<defs>
			<path id="SVGID_5_" d="M119.865,37.591H53.644c0,0.089,0.002,0.177,0.002,0.271v71.335c0,0,2.742,27.855,32.888,36.313
				c29.144,8.177,33.101,17.746,33.331,18.373c0.009,0.021,0.012,0.033,0.012,0.033s3.196-9.95,33.342-18.406
				c30.146-8.457,32.889-36.313,32.889-36.313V37.9c0-0.014,0-0.027,0-0.039c0-0.094,0.002-0.182,0.002-0.271H119.865
				L119.865,37.591z"/>
		</defs>
		<clipPath id="SVGID_6_">
			<use xlink:href="#SVGID_5_"  overflow="visible"/>
		</clipPath>
		<g clip-path="url(#SVGID_6_)">
			<g opacity="0.5">
				<g>
					<defs>
						<rect id="SVGID_7_" x="52.32" y="104.87" width="130.76" height="27.61"/>
					</defs>
					<defs>
						<rect id="SVGID_8_" x="52.32" y="104.87" width="130.76" height="27.61"/>
					</defs>
					<defs>
						<rect id="SVGID_9_" x="52.32" y="104.87" width="130.76" height="27.61"/>
					</defs>
					<defs>
						<rect id="SVGID_10_" x="52.32" y="104.87" width="130.76" height="27.61"/>
					</defs>
					<defs>
						<rect id="SVGID_11_" x="52.32" y="104.87" width="130.76" height="27.61"/>
					</defs>
					<defs>
						<rect id="SVGID_12_" x="52.32" y="104.87" width="130.76" height="27.61"/>
					</defs>
					<defs>
						<rect id="SVGID_13_" x="52.32" y="104.87" width="130.76" height="27.61"/>
					</defs>
					<defs>
						<rect id="SVGID_14_" x="52.32" y="104.87" width="130.76" height="27.61"/>
					</defs>
					<clipPath id="SVGID_15_">
						<use xlink:href="#SVGID_7_"  overflow="visible"/>
					</clipPath>
					<clipPath id="SVGID_16_" clip-path="url(#SVGID_15_)">
						<use xlink:href="#SVGID_8_"  overflow="visible"/>
					</clipPath>
					<clipPath id="SVGID_17_" clip-path="url(#SVGID_16_)">
						<use xlink:href="#SVGID_9_"  overflow="visible"/>
					</clipPath>
					<clipPath id="SVGID_18_" clip-path="url(#SVGID_17_)">
						<use xlink:href="#SVGID_10_"  overflow="visible"/>
					</clipPath>
					<clipPath id="SVGID_19_" clip-path="url(#SVGID_18_)">
						<use xlink:href="#SVGID_11_"  overflow="visible"/>
					</clipPath>
					<clipPath id="SVGID_20_" clip-path="url(#SVGID_19_)">
						<use xlink:href="#SVGID_12_"  overflow="visible"/>
					</clipPath>
					<clipPath id="SVGID_21_" clip-path="url(#SVGID_20_)">
						<use xlink:href="#SVGID_13_"  overflow="visible"/>
					</clipPath>
					<clipPath id="SVGID_22_" clip-path="url(#SVGID_21_)">
						<use xlink:href="#SVGID_14_"  overflow="visible"/>
					</clipPath>
					<path clip-path="url(#SVGID_22_)" fill="#CDA72C" d="M169.082,104.87c0,0-9.744,8.382-7.762,7.194c0,0-1.288,7.67-7.592,7.4
						c-6.302-0.267-8.125,9.171-7.881,11.126c0,0,3.948-4.619,10.467-2.967c6.516,1.654,10.058-2.413,10.936-3.702
						c0,0-2.33,7.688-6.85,8.27c0,0,11.192,2.166,15.589-5.347c4.396-7.514,6.612-16.359,7.084-17.154
						C183.545,108.896,169.082,104.87,169.082,104.87"/>
					<path clip-path="url(#SVGID_22_)" fill="#CDA72C" d="M156.26,126.278c0,0-7.975,1.536-6.607,1.02c0,0-4.303-2.372-6.645,0.854
						c-2.342,3.226-7.73,0.425-8.602-0.463c0,0,3.836-0.145,5.574-4.021c1.738-3.875,5.143-4.033,6.125-3.961
						c0,0-4.721-1.863-6.781,0.146c0,0,3.32-6.393,8.766-5.619c5.443,0.771,10.695,3.145,11.273,3.224
						S156.26,126.278,156.26,126.278"/>
					<path clip-path="url(#SVGID_22_)" fill="#CDA72C" d="M136.748,104.87c0,0-9.746,8.382-7.764,7.194c0,0-1.287,7.67-7.59,7.4
						c-6.304-0.267-8.126,9.171-7.884,11.126c0,0,3.951-4.619,10.468-2.967c6.517,1.654,10.058-2.413,10.936-3.702
						c0,0-2.33,7.688-6.85,8.27c0,0,11.194,2.166,15.59-5.347c4.395-7.514,6.613-16.359,7.084-17.154
						C151.209,108.896,136.748,104.87,136.748,104.87"/>
					<path clip-path="url(#SVGID_22_)" fill="#CDA72C" d="M123.924,126.278c0,0-7.975,1.536-6.607,1.02c0,0-4.303-2.372-6.645,0.854
						c-2.341,3.226-7.729,0.425-8.602-0.463c0,0,3.837-0.145,5.576-4.021c1.738-3.875,5.142-4.033,6.125-3.961
						c0,0-4.721-1.863-6.782,0.146c0,0,3.319-6.393,8.765-5.619c5.444,0.771,10.695,3.145,11.273,3.224
						S123.924,126.278,123.924,126.278"/>
					<path clip-path="url(#SVGID_22_)" fill="#CDA72C" d="M111.377,104.87c0,0-9.746,8.382-7.763,7.194c0,0-1.288,7.67-7.591,7.4
						c-6.303-0.267-8.125,9.171-7.881,11.126c0,0,3.949-4.619,10.466-2.967c6.516,1.654,10.058-2.413,10.935-3.702
						c0,0-2.33,7.688-6.849,8.27c0,0,11.194,2.166,15.589-5.347c4.395-7.514,6.613-16.359,7.084-17.154
						C125.838,108.896,111.377,104.87,111.377,104.87"/>
					<path clip-path="url(#SVGID_22_)" fill="#CDA72C" d="M98.554,126.278c0,0-7.976,1.536-6.608,1.02c0,0-4.303-2.372-6.645,0.854
						c-2.34,3.226-7.729,0.425-8.602-0.463c0,0,3.838-0.145,5.576-4.021c1.738-3.875,5.143-4.033,6.125-3.961
						c0,0-4.721-1.863-6.781,0.146c0,0,3.319-6.393,8.764-5.619c5.445,0.771,10.695,3.145,11.274,3.224
						C102.235,117.537,98.554,126.278,98.554,126.278"/>
					<path clip-path="url(#SVGID_22_)" fill="#CDA72C" d="M87,104.87c0,0-9.744,8.382-7.762,7.194c0,0-1.288,7.67-7.591,7.4
						c-6.302-0.267-8.125,9.171-7.882,11.126c0,0,3.949-4.619,10.467-2.967c6.517,1.654,10.058-2.413,10.936-3.702
						c0,0-2.33,7.688-6.85,8.27c0,0,11.193,2.166,15.589-5.347c4.396-7.514,6.612-16.359,7.084-17.154
						C101.463,108.896,87,104.87,87,104.87"/>
					<path clip-path="url(#SVGID_22_)" fill="#CDA72C" d="M74.178,126.278c0,0-7.975,1.536-6.608,1.02c0,0-4.303-2.372-6.644,0.854
						c-2.342,3.226-7.73,0.425-8.602-0.463c0,0,3.836-0.145,5.575-4.021c1.738-3.875,5.142-4.033,6.125-3.961
						c0,0-4.721-1.863-6.782,0.146c0,0,3.32-6.393,8.766-5.619c5.443,0.771,10.695,3.145,11.273,3.224
						C77.859,117.537,74.178,126.278,74.178,126.278"/>
				</g>
			</g>
			<g>
				<defs>
					<path id="SVGID_23_" d="M119.865,37.591H53.644c0,0.089,0.002,0.177,0.002,0.271v71.335c0,0,2.742,27.855,32.888,36.313
						c29.144,8.177,33.101,17.746,33.331,18.373c0.009,0.021,0.012,0.033,0.012,0.033s3.196-9.95,33.342-18.406
						c30.146-8.457,32.889-36.313,32.889-36.313V37.9c0-0.014,0-0.027,0-0.039c0-0.094,0.002-0.182,0.002-0.271H119.865
						L119.865,37.591z"/>
				</defs>
				<clipPath id="SVGID_24_">
					<use xlink:href="#SVGID_23_"  overflow="visible"/>
				</clipPath>
				<path clip-path="url(#SVGID_24_)" fill="#FFFFFF" d="M82.392,108.646l0.161-5.137l1.02-15.3l0.372-5.574l0.521-7.803
					l0.172-2.601h23.41c0-5.201,5.201-7.804,5.201-7.804l2.288,1.716l1.873,1.405l0.833,0.624l3.899,2.926l26.826,18.854
					l0.692,0.485c0,0,0.579,0.23,1.565,0.62c0.004,0.001,0.008,0.002,0.01,0.005c0.055,0.021,0.108,0.043,0.166,0.064
					c0.022,0.009,0.049,0.02,0.072,0.029c0.053,0.02,0.106,0.041,0.161,0.063c0.013,0.005,0.027,0.012,0.041,0.018
					c0.06,0.022,0.119,0.048,0.183,0.07c0.021,0.01,0.043,0.019,0.063,0.025c0.06,0.024,0.119,0.047,0.181,0.072
					c0.012,0.004,0.022,0.008,0.032,0.012c0.099,0.039,0.199,0.078,0.302,0.118c0.056,0.021,0.11,0.044,0.168,0.065
					c0.056,0.021,0.11,0.043,0.166,0.065c0.035,0.013,0.069,0.027,0.104,0.041c0.062,0.024,0.123,0.048,0.187,0.072
					c0.03,0.013,0.063,0.024,0.098,0.039c0.057,0.021,0.113,0.044,0.172,0.065c0.045,0.02,0.09,0.035,0.135,0.054
					c0.057,0.021,0.113,0.045,0.172,0.066c0.035,0.014,0.07,0.028,0.106,0.042c0.067,0.026,0.136,0.052,0.202,0.079
					c0.049,0.02,0.098,0.038,0.146,0.056c0.045,0.02,0.092,0.036,0.137,0.056c0.086,0.031,0.172,0.064,0.258,0.1
					c0.021,0.008,0.037,0.015,0.058,0.022c0.09,0.033,0.181,0.068,0.271,0.104c0.026,0.011,0.056,0.022,0.084,0.033
					c0.067,0.025,0.138,0.053,0.207,0.08c0.067,0.025,0.136,0.053,0.203,0.079c1.188,0.462,2.5,0.967,3.871,1.486
					c0.004,0.001,0.006,0.003,0.008,0.003c0.139,0.055,0.276,0.106,0.416,0.158l0.002,0.001c0.131,0.05,0.265,0.102,0.396,0.151
					c0.021,0.007,0.043,0.015,0.063,0.022c0.123,0.048,0.25,0.096,0.375,0.143l0.033,0.013c0.137,0.051,0.271,0.104,0.408,0.154
					c0.002,0.001,0.004,0.002,0.006,0.002c0.139,0.052,0.273,0.103,0.412,0.155c0.012,0.005,0.023,0.01,0.037,0.014
					c0.127,0.048,0.252,0.095,0.379,0.144c0.021,0.009,0.045,0.017,0.064,0.023c0.123,0.046,0.246,0.092,0.369,0.138
					c0.021,0.009,0.043,0.018,0.063,0.024l0.36,0.134l0.08,0.03c0.119,0.044,0.238,0.089,0.357,0.133
					c0.025,0.009,0.051,0.018,0.074,0.028c0.114,0.042,0.229,0.084,0.342,0.126c0.035,0.013,0.068,0.024,0.104,0.038
					c0.109,0.041,0.22,0.082,0.33,0.122c0.033,0.012,0.064,0.022,0.099,0.034c0.11,0.041,0.222,0.082,0.332,0.122
					c0.034,0.015,0.069,0.026,0.104,0.039c0.107,0.04,0.217,0.079,0.324,0.119c0.033,0.013,0.068,0.025,0.104,0.038
					c0.107,0.039,0.216,0.078,0.322,0.117c0.035,0.013,0.072,0.024,0.107,0.04c0.104,0.037,0.205,0.074,0.309,0.109
					c0.041,0.017,0.082,0.03,0.123,0.047c0.101,0.035,0.199,0.07,0.301,0.106c0.039,0.015,0.08,0.03,0.119,0.044
					c0.103,0.037,0.203,0.073,0.306,0.11c0.038,0.013,0.077,0.025,0.114,0.041c0.094,0.034,0.187,0.066,0.279,0.1
					c0.049,0.019,0.098,0.034,0.145,0.052c0.093,0.033,0.187,0.065,0.277,0.1c0.043,0.015,0.088,0.031,0.131,0.046
					c0.103,0.037,0.205,0.073,0.31,0.109c0.03,0.012,0.062,0.021,0.092,0.032c0.099,0.034,0.195,0.068,0.291,0.104
					c0.041,0.014,0.082,0.027,0.121,0.042c0.084,0.029,0.166,0.058,0.248,0.087c0.051,0.018,0.103,0.036,0.153,0.053
					c0.086,0.03,0.17,0.062,0.257,0.089c0.043,0.017,0.088,0.031,0.133,0.047c0.08,0.027,0.16,0.056,0.239,0.082
					c0.05,0.019,0.101,0.035,0.15,0.054c0.074,0.023,0.148,0.051,0.225,0.075c0.052,0.019,0.103,0.034,0.154,0.054
					c0.076,0.024,0.15,0.051,0.228,0.077c0.049,0.016,0.098,0.031,0.146,0.049c0.123,0.041,0.244,0.082,0.363,0.122
					c0.238,0.079,0.469,0.166,0.691,0.26c0.006,0.001,0.01,0.003,0.014,0.004c0.219,0.092,0.432,0.191,0.639,0.296
					c0.006,0.003,0.014,0.006,0.021,0.01c0.201,0.104,0.396,0.214,0.588,0.328c0.01,0.005,0.02,0.011,0.027,0.018
					c0.188,0.112,0.369,0.231,0.545,0.355c0.012,0.008,0.021,0.017,0.033,0.023c0.172,0.122,0.34,0.251,0.5,0.382
					c0.014,0.01,0.024,0.019,0.037,0.029c0.159,0.131,0.313,0.267,0.463,0.404c0.012,0.013,0.022,0.022,0.035,0.033
					c0.147,0.14,0.289,0.283,0.428,0.429c0.012,0.014,0.022,0.023,0.033,0.034c0.138,0.148,0.27,0.3,0.397,0.452
					c0.008,0.011,0.019,0.022,0.026,0.033c0.129,0.155,0.252,0.313,0.369,0.473c0.008,0.01,0.017,0.021,0.021,0.03
					c0.119,0.163,0.234,0.328,0.344,0.495c0.006,0.007,0.01,0.014,0.016,0.021c0.111,0.17,0.218,0.343,0.32,0.518
					c0.002,0.004,0.004,0.008,0.008,0.012c1.156,1.974,1.619,4.133,1.892,5.764v9.458H82.389v-9.452H82.392z"/>
			</g>
			<g>
				<defs>
					<path id="SVGID_25_" d="M119.865,37.591H53.644c0,0.089,0.002,0.177,0.002,0.271v71.335c0,0,2.742,27.855,32.888,36.313
						c29.144,8.177,33.101,17.746,33.331,18.373c0.009,0.021,0.012,0.033,0.012,0.033s3.196-9.95,33.342-18.406
						c30.146-8.457,32.889-36.313,32.889-36.313V37.9c0-0.014,0-0.027,0-0.039c0-0.094,0.002-0.182,0.002-0.271H119.865
						L119.865,37.591z"/>
				</defs>
				<clipPath id="SVGID_26_">
					<use xlink:href="#SVGID_25_"  overflow="visible"/>
				</clipPath>
				<path clip-path="url(#SVGID_26_)" fill="#F8D016" d="M151.82,104.269l-43.408-30.932l4.506-7.193l11.641,9.148l27.281,18.479
					l0.746,0.507c0,0,2.848,1.103,6.744,2.561l0.008,0.032L151.82,104.269z"/>
			</g>
			<g>
				<defs>
					<path id="SVGID_27_" d="M119.865,37.591H53.644c0,0.089,0.002,0.177,0.002,0.271v71.335c0,0,2.742,27.855,32.888,36.313
						c29.144,8.177,33.101,17.746,33.331,18.373c0.009,0.021,0.012,0.033,0.012,0.033s3.196-9.95,33.342-18.406
						c30.146-8.457,32.889-36.313,32.889-36.313V37.9c0-0.014,0-0.027,0-0.039c0-0.094,0.002-0.182,0.002-0.271H119.865
						L119.865,37.591z"/>
				</defs>
				<clipPath id="SVGID_28_">
					<use xlink:href="#SVGID_27_"  overflow="visible"/>
				</clipPath>
				<path clip-path="url(#SVGID_28_)" fill="#F8D016" d="M149.684,91.522c0.564,0.225,13.158,5.252,20.785,7.794
					c3.855,1.284,5.805,4.472,6.791,7.368h-38.68L149.684,91.522z"/>
			</g>
			<g>
				<defs>
					<path id="SVGID_29_" d="M119.865,37.591H53.644c0,0.089,0.002,0.177,0.002,0.271v71.335c0,0,2.742,27.855,32.888,36.313
						c29.144,8.177,33.101,17.746,33.331,18.373c0.009,0.021,0.012,0.033,0.012,0.033s3.196-9.95,33.342-18.406
						c30.146-8.457,32.889-36.313,32.889-36.313V37.9c0-0.014,0-0.027,0-0.039c0-0.094,0.002-0.182,0.002-0.271H119.865
						L119.865,37.591z"/>
				</defs>
				<clipPath id="SVGID_30_">
					<use xlink:href="#SVGID_29_"  overflow="visible"/>
				</clipPath>
				<polygon clip-path="url(#SVGID_30_)" fill="#191818" points="124.718,74.268 117.771,80.413 121.271,71.824 				"/>
			</g>
			<g>
				<defs>
					<path id="SVGID_31_" d="M119.865,37.591H53.644c0,0.089,0.002,0.177,0.002,0.271v71.335c0,0,2.742,27.855,32.888,36.313
						c29.144,8.177,33.101,17.746,33.331,18.373c0.009,0.021,0.012,0.033,0.012,0.033s3.196-9.95,33.342-18.406
						c30.146-8.457,32.889-36.313,32.889-36.313V37.9c0-0.014,0-0.027,0-0.039c0-0.094,0.002-0.182,0.002-0.271H119.865
						L119.865,37.591z"/>
				</defs>
				<clipPath id="SVGID_32_">
					<use xlink:href="#SVGID_31_"  overflow="visible"/>
				</clipPath>
				<polygon clip-path="url(#SVGID_32_)" fill="#191818" points="131.254,78.925 124.309,85.069 127.809,76.481 				"/>
			</g>
			<g>
				<defs>
					<path id="SVGID_33_" d="M119.865,37.591H53.644c0,0.089,0.002,0.177,0.002,0.271v71.335c0,0,2.742,27.855,32.888,36.313
						c29.144,8.177,33.101,17.746,33.331,18.373c0.009,0.021,0.012,0.033,0.012,0.033s3.196-9.95,33.342-18.406
						c30.146-8.457,32.889-36.313,32.889-36.313V37.9c0-0.014,0-0.027,0-0.039c0-0.094,0.002-0.182,0.002-0.271H119.865
						L119.865,37.591z"/>
				</defs>
				<clipPath id="SVGID_34_">
					<use xlink:href="#SVGID_33_"  overflow="visible"/>
				</clipPath>
				
					<line clip-path="url(#SVGID_34_)" fill="none" stroke="#191818" stroke-width="2.148" stroke-miterlimit="10" x1="177.26" y1="107.491" x2="82.391" y2="107.491"/>
			</g>
			<g>
				<defs>
					<path id="SVGID_35_" d="M119.865,37.591H53.644c0,0.089,0.002,0.177,0.002,0.271v71.335c0,0,2.742,27.855,32.888,36.313
						c29.144,8.177,33.101,17.746,33.331,18.373c0.009,0.021,0.012,0.033,0.012,0.033s3.196-9.95,33.342-18.406
						c30.146-8.457,32.889-36.313,32.889-36.313V37.9c0-0.014,0-0.027,0-0.039c0-0.094,0.002-0.182,0.002-0.271H119.865
						L119.865,37.591z"/>
				</defs>
				<clipPath id="SVGID_36_">
					<use xlink:href="#SVGID_35_"  overflow="visible"/>
				</clipPath>
				<polygon clip-path="url(#SVGID_36_)" fill="#191818" points="137.791,83.581 130.844,89.727 134.346,81.139 				"/>
			</g>
			<g>
				<defs>
					<path id="SVGID_37_" d="M119.865,37.591H53.644c0,0.089,0.002,0.177,0.002,0.271v71.335c0,0,2.742,27.855,32.888,36.313
						c29.144,8.177,33.101,17.746,33.331,18.373c0.009,0.021,0.012,0.033,0.012,0.033s3.196-9.95,33.342-18.406
						c30.146-8.457,32.889-36.313,32.889-36.313V37.9c0-0.014,0-0.027,0-0.039c0-0.094,0.002-0.182,0.002-0.271H119.865
						L119.865,37.591z"/>
				</defs>
				<clipPath id="SVGID_38_">
					<use xlink:href="#SVGID_37_"  overflow="visible"/>
				</clipPath>
				<polygon clip-path="url(#SVGID_38_)" fill="#191818" points="144.326,88.238 137.381,94.383 140.881,85.795 				"/>
			</g>
			<g>
				<defs>
					<path id="SVGID_39_" d="M119.865,37.591H53.644c0,0.089,0.002,0.177,0.002,0.271v71.335c0,0,2.742,27.855,32.888,36.313
						c29.144,8.177,33.101,17.746,33.331,18.373c0.009,0.021,0.012,0.033,0.012,0.033s3.196-9.95,33.342-18.406
						c30.146-8.457,32.889-36.313,32.889-36.313V37.9c0-0.014,0-0.027,0-0.039c0-0.094,0.002-0.182,0.002-0.271H119.865
						L119.865,37.591z"/>
				</defs>
				<clipPath id="SVGID_40_">
					<use xlink:href="#SVGID_39_"  overflow="visible"/>
				</clipPath>
				<polygon clip-path="url(#SVGID_40_)" fill="#191818" points="150.863,92.896 143.917,99.04 147.418,90.452 				"/>
			</g>
			<g>
				<defs>
					<path id="SVGID_41_" d="M119.865,37.591H53.644c0,0.089,0.002,0.177,0.002,0.271v71.335c0,0,2.742,27.855,32.888,36.313
						c29.144,8.177,33.101,17.746,33.331,18.373c0.009,0.021,0.012,0.033,0.012,0.033s3.196-9.95,33.342-18.406
						c30.146-8.457,32.889-36.313,32.889-36.313V37.9c0-0.014,0-0.027,0-0.039c0-0.094,0.002-0.182,0.002-0.271H119.865
						L119.865,37.591z"/>
				</defs>
				<clipPath id="SVGID_42_">
					<use xlink:href="#SVGID_41_"  overflow="visible"/>
				</clipPath>
				<path clip-path="url(#SVGID_42_)" fill="none" stroke="#191818" stroke-width="4.296" stroke-miterlimit="10" d="
					M82.392,108.646l0.161-5.137l1.02-15.3l0.372-5.574l0.521-7.803l0.172-2.601h23.41c0-5.201,5.201-7.804,5.201-7.804l2.288,1.716
					l1.873,1.405l0.833,0.624l3.899,2.926l26.826,18.854l0.692,0.485c0,0,0.579,0.23,1.565,0.62c0.004,0.001,0.008,0.002,0.01,0.005
					c0.055,0.021,0.108,0.043,0.166,0.064c0.022,0.009,0.049,0.02,0.072,0.029c0.053,0.02,0.106,0.041,0.161,0.063
					c0.013,0.005,0.027,0.012,0.041,0.018c0.06,0.022,0.119,0.048,0.183,0.07c0.021,0.01,0.043,0.019,0.063,0.025
					c0.06,0.024,0.119,0.047,0.181,0.072c0.012,0.004,0.022,0.008,0.032,0.012c0.099,0.039,0.199,0.078,0.302,0.118
					c0.056,0.021,0.11,0.044,0.168,0.065c0.056,0.021,0.11,0.043,0.166,0.065c0.035,0.013,0.069,0.027,0.104,0.041
					c0.062,0.024,0.123,0.048,0.187,0.072c0.03,0.013,0.063,0.024,0.098,0.039c0.057,0.021,0.113,0.044,0.172,0.065
					c0.045,0.02,0.09,0.035,0.135,0.054c0.057,0.021,0.113,0.045,0.172,0.066c0.035,0.014,0.07,0.028,0.106,0.042
					c0.067,0.026,0.136,0.052,0.202,0.079c0.049,0.02,0.098,0.038,0.146,0.056c0.045,0.02,0.092,0.036,0.137,0.056
					c0.086,0.031,0.172,0.064,0.258,0.1c0.021,0.008,0.037,0.015,0.058,0.022c0.09,0.033,0.181,0.068,0.271,0.104
					c0.026,0.011,0.056,0.022,0.084,0.033c0.067,0.025,0.138,0.053,0.207,0.08c0.067,0.025,0.136,0.053,0.203,0.079
					c1.188,0.462,2.5,0.967,3.871,1.486c0.004,0.001,0.006,0.003,0.008,0.003c0.139,0.055,0.276,0.106,0.416,0.158l0.002,0.001
					c0.131,0.05,0.265,0.102,0.396,0.151c0.021,0.007,0.043,0.015,0.063,0.022c0.123,0.048,0.25,0.096,0.375,0.143l0.033,0.013
					c0.137,0.051,0.271,0.104,0.408,0.154c0.002,0.001,0.004,0.002,0.006,0.002c0.139,0.052,0.273,0.103,0.412,0.155
					c0.012,0.005,0.023,0.01,0.037,0.014c0.127,0.048,0.252,0.095,0.379,0.144c0.021,0.009,0.045,0.017,0.064,0.023
					c0.123,0.046,0.246,0.092,0.369,0.138c0.021,0.009,0.043,0.018,0.063,0.024l0.36,0.134l0.08,0.03
					c0.119,0.044,0.238,0.089,0.357,0.133c0.025,0.009,0.051,0.018,0.074,0.028c0.114,0.042,0.229,0.084,0.342,0.126
					c0.035,0.013,0.068,0.024,0.104,0.038c0.109,0.041,0.22,0.082,0.33,0.122c0.033,0.012,0.064,0.022,0.099,0.034
					c0.11,0.041,0.222,0.082,0.332,0.122c0.034,0.015,0.069,0.026,0.104,0.039c0.107,0.04,0.217,0.079,0.324,0.119
					c0.033,0.013,0.068,0.025,0.104,0.038c0.107,0.039,0.216,0.078,0.322,0.117c0.035,0.013,0.072,0.024,0.107,0.04
					c0.104,0.037,0.205,0.074,0.309,0.109c0.041,0.017,0.082,0.03,0.123,0.047c0.101,0.035,0.199,0.07,0.301,0.106
					c0.039,0.015,0.08,0.03,0.119,0.044c0.103,0.037,0.203,0.073,0.306,0.11c0.038,0.013,0.077,0.025,0.114,0.041
					c0.094,0.034,0.187,0.066,0.279,0.1c0.049,0.019,0.098,0.034,0.145,0.052c0.093,0.033,0.187,0.065,0.277,0.1
					c0.043,0.015,0.088,0.031,0.131,0.046c0.103,0.037,0.205,0.073,0.31,0.109c0.03,0.012,0.062,0.021,0.092,0.032
					c0.099,0.034,0.195,0.068,0.291,0.104c0.041,0.014,0.082,0.027,0.121,0.042c0.084,0.029,0.166,0.058,0.248,0.087
					c0.051,0.018,0.103,0.036,0.153,0.053c0.086,0.03,0.17,0.062,0.257,0.089c0.043,0.017,0.088,0.031,0.133,0.047
					c0.08,0.027,0.16,0.056,0.239,0.082c0.05,0.019,0.101,0.035,0.15,0.054c0.074,0.023,0.148,0.051,0.225,0.075
					c0.052,0.019,0.103,0.034,0.154,0.054c0.076,0.024,0.15,0.051,0.228,0.077c0.049,0.016,0.098,0.031,0.146,0.049
					c0.123,0.041,0.244,0.082,0.363,0.122c0.238,0.079,0.469,0.166,0.691,0.26c0.006,0.001,0.01,0.003,0.014,0.004
					c0.219,0.092,0.432,0.191,0.639,0.296c0.006,0.003,0.014,0.006,0.021,0.01c0.201,0.104,0.396,0.214,0.588,0.328
					c0.01,0.005,0.02,0.011,0.027,0.018c0.188,0.112,0.369,0.231,0.545,0.355c0.012,0.008,0.021,0.017,0.033,0.023
					c0.172,0.122,0.34,0.251,0.5,0.382c0.014,0.01,0.024,0.019,0.037,0.029c0.159,0.131,0.313,0.267,0.463,0.404
					c0.012,0.013,0.022,0.022,0.035,0.033c0.147,0.14,0.289,0.283,0.428,0.429c0.012,0.014,0.022,0.023,0.033,0.034
					c0.138,0.148,0.27,0.3,0.397,0.452c0.008,0.011,0.019,0.022,0.026,0.033c0.129,0.155,0.252,0.313,0.369,0.473
					c0.008,0.01,0.017,0.021,0.021,0.03c0.119,0.163,0.234,0.328,0.344,0.495c0.006,0.007,0.01,0.014,0.016,0.021
					c0.111,0.17,0.218,0.343,0.32,0.518c0.002,0.004,0.004,0.008,0.008,0.012c1.156,1.974,1.619,4.133,1.892,5.764v9.458H82.389
					v-9.452H82.392z"/>
			</g>
			<g>
				<defs>
					<path id="SVGID_43_" d="M119.865,37.591H53.644c0,0.089,0.002,0.177,0.002,0.271v71.335c0,0,2.742,27.855,32.888,36.313
						c29.144,8.177,33.101,17.746,33.331,18.373c0.009,0.021,0.012,0.033,0.012,0.033s3.196-9.95,33.342-18.406
						c30.146-8.457,32.889-36.313,32.889-36.313V37.9c0-0.014,0-0.027,0-0.039c0-0.094,0.002-0.182,0.002-0.271H119.865
						L119.865,37.591z"/>
				</defs>
				<clipPath id="SVGID_44_">
					<use xlink:href="#SVGID_43_"  overflow="visible"/>
				</clipPath>
				<path clip-path="url(#SVGID_44_)" fill="#FFFFFF" d="M41.568,108.646l0.161-5.137l1.021-15.3l0.371-5.574l0.521-7.803
					l0.173-2.601h23.409c0-5.201,5.202-7.804,5.202-7.804l2.287,1.716l1.875,1.405l0.832,0.624l3.9,2.926l26.825,18.854l0.694,0.485
					c0,0,0.578,0.23,1.564,0.62c0.004,0.001,0.008,0.002,0.01,0.005c0.055,0.021,0.109,0.043,0.166,0.064
					c0.023,0.009,0.049,0.02,0.072,0.029c0.053,0.02,0.106,0.041,0.161,0.063c0.013,0.005,0.027,0.012,0.041,0.018
					c0.06,0.022,0.12,0.048,0.183,0.07c0.021,0.01,0.043,0.019,0.063,0.025c0.06,0.024,0.12,0.047,0.183,0.072
					c0.01,0.004,0.021,0.008,0.031,0.012c0.098,0.039,0.198,0.078,0.301,0.118c0.057,0.021,0.111,0.044,0.168,0.065
					c0.055,0.021,0.111,0.043,0.166,0.065c0.035,0.013,0.069,0.027,0.104,0.041c0.062,0.024,0.124,0.048,0.187,0.072
					c0.032,0.013,0.064,0.024,0.098,0.039c0.056,0.021,0.113,0.044,0.172,0.065c0.044,0.02,0.089,0.035,0.135,0.054
					c0.057,0.021,0.114,0.045,0.172,0.066c0.035,0.014,0.071,0.028,0.105,0.042c0.068,0.026,0.136,0.052,0.203,0.079
					c0.049,0.02,0.097,0.038,0.146,0.056c0.046,0.02,0.091,0.036,0.138,0.056c0.084,0.031,0.17,0.064,0.256,0.1
					c0.021,0.008,0.039,0.015,0.059,0.022c0.089,0.033,0.179,0.068,0.27,0.104c0.027,0.011,0.055,0.022,0.084,0.033
					c0.067,0.025,0.137,0.053,0.207,0.08c0.067,0.025,0.135,0.053,0.203,0.079c1.189,0.462,2.5,0.967,3.871,1.486
					c0.004,0.001,0.006,0.003,0.008,0.003c0.139,0.055,0.277,0.106,0.416,0.158l0.002,0.001c0.131,0.05,0.264,0.102,0.396,0.151
					c0.021,0.007,0.042,0.015,0.063,0.022c0.125,0.048,0.25,0.096,0.375,0.143l0.034,0.013c0.136,0.051,0.272,0.104,0.409,0.154
					c0.002,0.001,0.004,0.002,0.006,0.002c0.137,0.052,0.273,0.103,0.411,0.155l0.038,0.014c0.127,0.048,0.254,0.095,0.379,0.144
					c0.021,0.009,0.045,0.017,0.064,0.023c0.123,0.046,0.246,0.092,0.369,0.138c0.021,0.009,0.043,0.018,0.064,0.024l0.36,0.134
					l0.078,0.03c0.119,0.044,0.237,0.089,0.358,0.133c0.024,0.009,0.049,0.018,0.074,0.028c0.113,0.042,0.229,0.084,0.342,0.126
					c0.035,0.013,0.068,0.024,0.103,0.038c0.11,0.041,0.222,0.082,0.332,0.122c0.03,0.012,0.063,0.022,0.099,0.034
					c0.11,0.041,0.221,0.082,0.33,0.122c0.034,0.015,0.069,0.026,0.104,0.039c0.109,0.04,0.218,0.079,0.326,0.119
					c0.035,0.013,0.068,0.025,0.103,0.038c0.108,0.039,0.216,0.078,0.321,0.117c0.037,0.013,0.074,0.024,0.109,0.04
					c0.104,0.037,0.205,0.074,0.307,0.109c0.041,0.017,0.082,0.03,0.123,0.047c0.103,0.035,0.201,0.07,0.302,0.106
					c0.041,0.015,0.08,0.03,0.121,0.044c0.102,0.037,0.202,0.073,0.305,0.11c0.039,0.013,0.076,0.025,0.115,0.041
					c0.094,0.034,0.187,0.066,0.278,0.1c0.047,0.019,0.097,0.034,0.146,0.052c0.093,0.033,0.185,0.065,0.274,0.1
					c0.045,0.015,0.089,0.031,0.132,0.046c0.104,0.037,0.207,0.073,0.31,0.109c0.03,0.012,0.063,0.021,0.094,0.032
					c0.098,0.034,0.193,0.068,0.291,0.104c0.039,0.014,0.08,0.027,0.121,0.042c0.084,0.029,0.166,0.058,0.248,0.087
					c0.051,0.018,0.102,0.036,0.151,0.053c0.086,0.03,0.172,0.062,0.257,0.089c0.044,0.017,0.089,0.031,0.133,0.047
					c0.08,0.027,0.16,0.056,0.241,0.082c0.049,0.019,0.101,0.035,0.149,0.054c0.074,0.023,0.149,0.051,0.226,0.075
					c0.05,0.019,0.103,0.034,0.151,0.054c0.078,0.024,0.152,0.051,0.229,0.077c0.05,0.016,0.099,0.031,0.146,0.049
					c0.121,0.041,0.244,0.082,0.363,0.122c0.238,0.079,0.469,0.166,0.691,0.26c0.005,0.001,0.009,0.003,0.014,0.004
					c0.219,0.092,0.433,0.191,0.637,0.296c0.009,0.003,0.017,0.006,0.022,0.01c0.202,0.104,0.399,0.214,0.589,0.328
					c0.01,0.005,0.021,0.011,0.029,0.018c0.188,0.112,0.367,0.231,0.543,0.355c0.012,0.008,0.021,0.017,0.033,0.023
					c0.172,0.122,0.34,0.251,0.5,0.382c0.013,0.01,0.023,0.019,0.037,0.029c0.158,0.131,0.313,0.267,0.463,0.404
					c0.011,0.013,0.023,0.022,0.035,0.033c0.146,0.14,0.291,0.283,0.428,0.429c0.011,0.014,0.021,0.023,0.033,0.034
					c0.137,0.148,0.27,0.3,0.396,0.452c0.01,0.011,0.02,0.022,0.028,0.033c0.127,0.155,0.25,0.313,0.369,0.473
					c0.006,0.01,0.015,0.021,0.021,0.03c0.119,0.163,0.234,0.328,0.344,0.495c0.004,0.007,0.011,0.014,0.017,0.021
					c0.11,0.17,0.218,0.343,0.319,0.518c0.002,0.004,0.004,0.008,0.007,0.012c1.157,1.974,1.618,4.133,1.892,5.764v9.458H41.566
					v-9.452H41.568z"/>
			</g>
			<g>
				<defs>
					<path id="SVGID_45_" d="M119.865,37.591H53.644c0,0.089,0.002,0.177,0.002,0.271v71.335c0,0,2.742,27.855,32.888,36.313
						c29.144,8.177,33.101,17.746,33.331,18.373c0.009,0.021,0.012,0.033,0.012,0.033s3.196-9.95,33.342-18.406
						c30.146-8.457,32.889-36.313,32.889-36.313V37.9c0-0.014,0-0.027,0-0.039c0-0.094,0.002-0.182,0.002-0.271H119.865
						L119.865,37.591z"/>
				</defs>
				<clipPath id="SVGID_46_">
					<use xlink:href="#SVGID_45_"  overflow="visible"/>
				</clipPath>
				<path clip-path="url(#SVGID_46_)" fill="#F8D016" d="M110.998,104.269L67.589,73.337l4.507-7.193l11.639,9.148l27.282,18.479
					l0.748,0.507c0,0,2.847,1.103,6.743,2.561l0.007,0.032L110.998,104.269z"/>
			</g>
			<g>
				<defs>
					<path id="SVGID_47_" d="M119.865,37.591H53.644c0,0.089,0.002,0.177,0.002,0.271v71.335c0,0,2.742,27.855,32.888,36.313
						c29.144,8.177,33.101,17.746,33.331,18.373c0.009,0.021,0.012,0.033,0.012,0.033s3.196-9.95,33.342-18.406
						c30.146-8.457,32.889-36.313,32.889-36.313V37.9c0-0.014,0-0.027,0-0.039c0-0.094,0.002-0.182,0.002-0.271H119.865
						L119.865,37.591z"/>
				</defs>
				<clipPath id="SVGID_48_">
					<use xlink:href="#SVGID_47_"  overflow="visible"/>
				</clipPath>
				<path clip-path="url(#SVGID_48_)" fill="#F8D016" d="M108.861,91.522c0.563,0.225,13.159,5.252,20.786,7.794
					c3.854,1.284,5.803,4.472,6.789,7.368H97.757L108.861,91.522z"/>
			</g>
			<g>
				<defs>
					<path id="SVGID_49_" d="M119.865,37.591H53.644c0,0.089,0.002,0.177,0.002,0.271v71.335c0,0,2.742,27.855,32.888,36.313
						c29.144,8.177,33.101,17.746,33.331,18.373c0.009,0.021,0.012,0.033,0.012,0.033s3.196-9.95,33.342-18.406
						c30.146-8.457,32.889-36.313,32.889-36.313V37.9c0-0.014,0-0.027,0-0.039c0-0.094,0.002-0.182,0.002-0.271H119.865
						L119.865,37.591z"/>
				</defs>
				<clipPath id="SVGID_50_">
					<use xlink:href="#SVGID_49_"  overflow="visible"/>
				</clipPath>
				<polygon clip-path="url(#SVGID_50_)" fill="#191818" points="83.895,74.268 76.949,80.413 80.449,71.824 				"/>
			</g>
			<g>
				<defs>
					<path id="SVGID_51_" d="M119.865,37.591H53.644c0,0.089,0.002,0.177,0.002,0.271v71.335c0,0,2.742,27.855,32.888,36.313
						c29.144,8.177,33.101,17.746,33.331,18.373c0.009,0.021,0.012,0.033,0.012,0.033s3.196-9.95,33.342-18.406
						c30.146-8.457,32.889-36.313,32.889-36.313V37.9c0-0.014,0-0.027,0-0.039c0-0.094,0.002-0.182,0.002-0.271H119.865
						L119.865,37.591z"/>
				</defs>
				<clipPath id="SVGID_52_">
					<use xlink:href="#SVGID_51_"  overflow="visible"/>
				</clipPath>
				<polygon clip-path="url(#SVGID_52_)" fill="#191818" points="90.432,78.925 83.484,85.069 86.986,76.481 				"/>
			</g>
			<g>
				<defs>
					<path id="SVGID_53_" d="M119.865,37.591H53.644c0,0.089,0.002,0.177,0.002,0.271v71.335c0,0,2.742,27.855,32.888,36.313
						c29.144,8.177,33.101,17.746,33.331,18.373c0.009,0.021,0.012,0.033,0.012,0.033s3.196-9.95,33.342-18.406
						c30.146-8.457,32.889-36.313,32.889-36.313V37.9c0-0.014,0-0.027,0-0.039c0-0.094,0.002-0.182,0.002-0.271H119.865
						L119.865,37.591z"/>
				</defs>
				<clipPath id="SVGID_54_">
					<use xlink:href="#SVGID_53_"  overflow="visible"/>
				</clipPath>
				
					<line clip-path="url(#SVGID_54_)" fill="none" stroke="#191818" stroke-width="2.148" stroke-miterlimit="10" x1="136.438" y1="107.491" x2="41.568" y2="107.491"/>
			</g>
			<g>
				<defs>
					<path id="SVGID_55_" d="M119.865,37.591H53.644c0,0.089,0.002,0.177,0.002,0.271v71.335c0,0,2.742,27.855,32.888,36.313
						c29.144,8.177,33.101,17.746,33.331,18.373c0.009,0.021,0.012,0.033,0.012,0.033s3.196-9.95,33.342-18.406
						c30.146-8.457,32.889-36.313,32.889-36.313V37.9c0-0.014,0-0.027,0-0.039c0-0.094,0.002-0.182,0.002-0.271H119.865
						L119.865,37.591z"/>
				</defs>
				<clipPath id="SVGID_56_">
					<use xlink:href="#SVGID_55_"  overflow="visible"/>
				</clipPath>
				<polygon clip-path="url(#SVGID_56_)" fill="#191818" points="96.968,83.581 90.021,89.727 93.522,81.139 				"/>
			</g>
			<g>
				<defs>
					<path id="SVGID_57_" d="M119.865,37.591H53.644c0,0.089,0.002,0.177,0.002,0.271v71.335c0,0,2.742,27.855,32.888,36.313
						c29.144,8.177,33.101,17.746,33.331,18.373c0.009,0.021,0.012,0.033,0.012,0.033s3.196-9.95,33.342-18.406
						c30.146-8.457,32.889-36.313,32.889-36.313V37.9c0-0.014,0-0.027,0-0.039c0-0.094,0.002-0.182,0.002-0.271H119.865
						L119.865,37.591z"/>
				</defs>
				<clipPath id="SVGID_58_">
					<use xlink:href="#SVGID_57_"  overflow="visible"/>
				</clipPath>
				<polygon clip-path="url(#SVGID_58_)" fill="#191818" points="103.504,88.238 96.559,94.383 100.059,85.795 				"/>
			</g>
			<g>
				<defs>
					<path id="SVGID_59_" d="M119.865,37.591H53.644c0,0.089,0.002,0.177,0.002,0.271v71.335c0,0,2.742,27.855,32.888,36.313
						c29.144,8.177,33.101,17.746,33.331,18.373c0.009,0.021,0.012,0.033,0.012,0.033s3.196-9.95,33.342-18.406
						c30.146-8.457,32.889-36.313,32.889-36.313V37.9c0-0.014,0-0.027,0-0.039c0-0.094,0.002-0.182,0.002-0.271H119.865
						L119.865,37.591z"/>
				</defs>
				<clipPath id="SVGID_60_">
					<use xlink:href="#SVGID_59_"  overflow="visible"/>
				</clipPath>
				<polygon clip-path="url(#SVGID_60_)" fill="#191818" points="110.041,92.896 103.094,99.04 106.596,90.452 				"/>
			</g>
			<g>
				<defs>
					<path id="SVGID_61_" d="M119.865,37.591H53.644c0,0.089,0.002,0.177,0.002,0.271v71.335c0,0,2.742,27.855,32.888,36.313
						c29.144,8.177,33.101,17.746,33.331,18.373c0.009,0.021,0.012,0.033,0.012,0.033s3.196-9.95,33.342-18.406
						c30.146-8.457,32.889-36.313,32.889-36.313V37.9c0-0.014,0-0.027,0-0.039c0-0.094,0.002-0.182,0.002-0.271H119.865
						L119.865,37.591z"/>
				</defs>
				<clipPath id="SVGID_62_">
					<use xlink:href="#SVGID_61_"  overflow="visible"/>
				</clipPath>
				<path clip-path="url(#SVGID_62_)" fill="none" stroke="#191818" stroke-width="4.296" stroke-miterlimit="10" d="
					M41.568,108.646l0.161-5.137l1.021-15.3l0.371-5.574l0.521-7.803l0.173-2.601h23.409c0-5.201,5.202-7.804,5.202-7.804
					l2.287,1.716l1.875,1.405l0.832,0.624l3.9,2.926l26.825,18.854l0.694,0.485c0,0,0.578,0.23,1.564,0.62
					c0.004,0.001,0.008,0.002,0.01,0.005c0.055,0.021,0.109,0.043,0.166,0.064c0.023,0.009,0.049,0.02,0.072,0.029
					c0.053,0.02,0.106,0.041,0.161,0.063c0.013,0.005,0.027,0.012,0.041,0.018c0.06,0.022,0.12,0.048,0.183,0.07
					c0.021,0.01,0.043,0.019,0.063,0.025c0.06,0.024,0.12,0.047,0.183,0.072c0.01,0.004,0.021,0.008,0.031,0.012
					c0.098,0.039,0.198,0.078,0.301,0.118c0.057,0.021,0.111,0.044,0.168,0.065c0.055,0.021,0.111,0.043,0.166,0.065
					c0.035,0.013,0.069,0.027,0.104,0.041c0.062,0.024,0.124,0.048,0.187,0.072c0.032,0.013,0.064,0.024,0.098,0.039
					c0.056,0.021,0.113,0.044,0.172,0.065c0.044,0.02,0.089,0.035,0.135,0.054c0.057,0.021,0.114,0.045,0.172,0.066
					c0.035,0.014,0.071,0.028,0.105,0.042c0.068,0.026,0.136,0.052,0.203,0.079c0.049,0.02,0.097,0.038,0.146,0.056
					c0.046,0.02,0.091,0.036,0.138,0.056c0.084,0.031,0.17,0.064,0.256,0.1c0.021,0.008,0.039,0.015,0.059,0.022
					c0.089,0.033,0.179,0.068,0.27,0.104c0.027,0.011,0.055,0.022,0.084,0.033c0.067,0.025,0.137,0.053,0.207,0.08
					c0.067,0.025,0.135,0.053,0.203,0.079c1.189,0.462,2.5,0.967,3.871,1.486c0.004,0.001,0.006,0.003,0.008,0.003
					c0.139,0.055,0.277,0.106,0.416,0.158l0.002,0.001c0.131,0.05,0.264,0.102,0.396,0.151c0.021,0.007,0.042,0.015,0.063,0.022
					c0.125,0.048,0.25,0.096,0.375,0.143l0.034,0.013c0.136,0.051,0.272,0.104,0.409,0.154c0.002,0.001,0.004,0.002,0.006,0.002
					c0.137,0.052,0.273,0.103,0.411,0.155l0.038,0.014c0.127,0.048,0.254,0.095,0.379,0.144c0.021,0.009,0.045,0.017,0.064,0.023
					c0.123,0.046,0.246,0.092,0.369,0.138c0.021,0.009,0.043,0.018,0.064,0.024l0.36,0.134l0.078,0.03
					c0.119,0.044,0.237,0.089,0.358,0.133c0.024,0.009,0.049,0.018,0.074,0.028c0.113,0.042,0.229,0.084,0.342,0.126
					c0.035,0.013,0.068,0.024,0.103,0.038c0.11,0.041,0.222,0.082,0.332,0.122c0.03,0.012,0.063,0.022,0.099,0.034
					c0.11,0.041,0.221,0.082,0.33,0.122c0.034,0.015,0.069,0.026,0.104,0.039c0.109,0.04,0.218,0.079,0.326,0.119
					c0.035,0.013,0.068,0.025,0.103,0.038c0.108,0.039,0.216,0.078,0.321,0.117c0.037,0.013,0.074,0.024,0.109,0.04
					c0.104,0.037,0.205,0.074,0.307,0.109c0.041,0.017,0.082,0.03,0.123,0.047c0.103,0.035,0.201,0.07,0.302,0.106
					c0.041,0.015,0.08,0.03,0.121,0.044c0.102,0.037,0.202,0.073,0.305,0.11c0.039,0.013,0.076,0.025,0.115,0.041
					c0.094,0.034,0.187,0.066,0.278,0.1c0.047,0.019,0.097,0.034,0.146,0.052c0.093,0.033,0.185,0.065,0.274,0.1
					c0.045,0.015,0.089,0.031,0.132,0.046c0.104,0.037,0.207,0.073,0.31,0.109c0.03,0.012,0.063,0.021,0.094,0.032
					c0.098,0.034,0.193,0.068,0.291,0.104c0.039,0.014,0.08,0.027,0.121,0.042c0.084,0.029,0.166,0.058,0.248,0.087
					c0.051,0.018,0.102,0.036,0.151,0.053c0.086,0.03,0.172,0.062,0.257,0.089c0.044,0.017,0.089,0.031,0.133,0.047
					c0.08,0.027,0.16,0.056,0.241,0.082c0.049,0.019,0.101,0.035,0.149,0.054c0.074,0.023,0.149,0.051,0.226,0.075
					c0.05,0.019,0.103,0.034,0.151,0.054c0.078,0.024,0.152,0.051,0.229,0.077c0.05,0.016,0.099,0.031,0.146,0.049
					c0.121,0.041,0.244,0.082,0.363,0.122c0.238,0.079,0.469,0.166,0.691,0.26c0.005,0.001,0.009,0.003,0.014,0.004
					c0.219,0.092,0.433,0.191,0.637,0.296c0.009,0.003,0.017,0.006,0.022,0.01c0.202,0.104,0.399,0.214,0.589,0.328
					c0.01,0.005,0.021,0.011,0.029,0.018c0.188,0.112,0.367,0.231,0.543,0.355c0.012,0.008,0.021,0.017,0.033,0.023
					c0.172,0.122,0.34,0.251,0.5,0.382c0.013,0.01,0.023,0.019,0.037,0.029c0.158,0.131,0.313,0.267,0.463,0.404
					c0.011,0.013,0.023,0.022,0.035,0.033c0.146,0.14,0.291,0.283,0.428,0.429c0.011,0.014,0.021,0.023,0.033,0.034
					c0.137,0.148,0.27,0.3,0.396,0.452c0.01,0.011,0.02,0.022,0.028,0.033c0.127,0.155,0.25,0.313,0.369,0.473
					c0.006,0.01,0.015,0.021,0.021,0.03c0.119,0.163,0.234,0.328,0.344,0.495c0.004,0.007,0.011,0.014,0.017,0.021
					c0.11,0.17,0.218,0.343,0.319,0.518c0.002,0.004,0.004,0.008,0.007,0.012c1.157,1.974,1.618,4.133,1.892,5.764v9.458H41.566
					v-9.452H41.568z"/>
			</g>
			<g>
				<defs>
					<path id="SVGID_63_" d="M119.865,37.591H53.644c0,0.089,0.002,0.177,0.002,0.271v71.335c0,0,2.742,27.855,32.888,36.313
						c29.144,8.177,33.101,17.746,33.331,18.373c0.009,0.021,0.012,0.033,0.012,0.033s3.196-9.95,33.342-18.406
						c30.146-8.457,32.889-36.313,32.889-36.313V37.9c0-0.014,0-0.027,0-0.039c0-0.094,0.002-0.182,0.002-0.271H119.865
						L119.865,37.591z"/>
				</defs>
				<clipPath id="SVGID_64_">
					<use xlink:href="#SVGID_63_"  overflow="visible"/>
				</clipPath>
				<polygon clip-path="url(#SVGID_64_)" fill="#F8D016" points="69.029,84.355 82.328,91.134 78.774,93.908 85.035,100.462 
					71.735,93.684 75.289,90.908 				"/>
			</g>
		</g>
		<path clip-path="url(#SVGID_6_)" fill="#191818" d="M181.371,12.61l3.393,5.225c-3.477,4.13-6.326,10.43-6.393,19.499l-0.002,0.06
			v0.034l-0.002,0.037v0.182v0.027v0.025v71.372c-0.438,2.98-4.16,22.673-27.061,29.098c-5.88,1.649-21.529,6.528-31.394,14.107
			c-5.686-4.469-15.25-9.594-31.342-14.107c-22.9-6.425-26.625-26.116-27.06-29.098V37.66l-0.002-0.268l-0.001-0.067
			c-0.068-9.064-2.916-15.362-6.393-19.49l3.393-5.225h28.033h23.781h9.197h33.816H181.371 M185.913,4.244h-32.575h-33.816h-9.197
			H86.544H53.968L43.935,19.698c0,0,9.1,2.806,9.211,17.688c0,0.091,0.002,0.182,0.002,0.272v71.939c0,0,2.764,28.096,33.166,36.624
			c29.393,8.245,33.383,17.896,33.615,18.528c0.008,0.022,0.012,0.033,0.012,0.033s3.225-10.034,33.627-18.563
			c30.401-8.528,33.166-36.624,33.166-36.624v-71.9c0-0.014,0.002-0.025,0.002-0.039c0-0.092,0.002-0.183,0.002-0.272
			c0.111-14.884,9.211-17.688,9.211-17.688L185.913,4.244z"/>
	</g>
</g>
</svg>
