<?xml version="1.0" encoding="utf-8"?>
<!-- Generator: Adobe Illustrator 16.0.0, SVG Export Plug-In . SVG Version: 6.00 Build 0)  -->
<!DOCTYPE svg PUBLIC "-//W3C//DTD SVG 1.1//EN" "http://www.w3.org/Graphics/SVG/1.1/DTD/svg11.dtd">
<svg version="1.1" id="Layer_1" xmlns="http://www.w3.org/2000/svg" xmlns:xlink="http://www.w3.org/1999/xlink" x="0px" y="0px"
	 width="612px" height="792px" viewBox="0 0 612 792" enable-background="new 0 0 612 792" xml:space="preserve">
<path fill="#010101" d="M398.633,401.309c0.146,1.75-0.152,3.623,0.186,5.469c0.328,0.773,0.593,1.554,0.873,2.349
	c0.82,2.085,1.734,3.99,3.31,4.865c1.285-2.556,2.464-5.285,2.744-8.496c-0.084-2.099-0.509-4.063-1.249-5.928
	c-1.15-2.94-3.061-5.579-5.613-7.851c-0.082-0.08-0.143-0.11-0.186-0.171l-0.415-0.012c0.093,0.271,0.165,0.577,0.247,0.886
	C399.207,395.306,398.912,398.098,398.633,401.309"/>
<path fill="#010101" d="M398.83,419.089c-1.816-3.577-5.512-6.852-6.379-10.245l-0.531-0.223c-1.338,3.336-1.193,7.326-0.17,10.95
	c1.109,4.704,3.424,8.369,4.508,12.994c0.194,0.891,0.354,1.775,0.459,2.742c6.957-5.049,13.369-10.808,15.183-19.897l-12.194,6.13
	C399.543,420.692,399.213,419.854,398.83,419.089"/>
<path fill="#010101" d="M379.229,460.246c-0.916-0.017-1.783-0.026-2.639,0.015c3.211-4.571,2.29-10.164,4.059-15.119l-0.018-0.219
	c-5.329,2.008-8.124,6.7-10.73,11.657c-1.861,3.592-3.684,7.273-6.34,9.993c1.109,0.08,2.153,0.229,3.234,0.389
	c1.122,0.163,2.275,0.386,3.436,0.691c2.305,0.136,4.58,0.238,6.731,0.167c4.034-0.171,7.795-0.854,11.037-2.605
	c1.501-0.798,2.901-1.85,4.131-3.161c-0.949-0.154-1.992-0.342-3.028-0.524C385.837,460.975,382.402,460.404,379.229,460.246"/>
<path fill="#010101" d="M392.229,444.673c-1.496-5.036-4.275-10.122-3.865-15.641l-0.143-0.22l-0.374,0.165
	c-0.045,0.036-0.098,0.108-0.101,0.145c-0.293,0.501-0.602,0.786-1.137,1.3c-3.805,6.707-3.229,14.78-1.275,21.92
	c0.32,1.176,0.654,2.295,1.063,3.425c3.422-2.676,7.645-3.358,11.442-5.306c0.342-0.207,0.677-0.37,1.03-0.582
	c3.66-2.641,5.886-7.007,6.841-11.183c-2.373,0.757-4.7,1.368-6.876,2.186C396.488,441.728,394.226,442.87,392.229,444.673"/>
<path fill="#010101" d="M213.428,401.438c-0.24,1.74-0.044,3.626-0.482,5.45c-0.368,0.755-0.674,1.521-0.996,2.299
	c-0.932,2.037-1.947,3.891-3.568,4.681c-1.145-2.622-2.175-5.41-2.281-8.632c0.197-2.092,0.727-4.029,1.566-5.854
	c1.307-2.873,3.357-5.406,6.027-7.536c0.086-0.075,0.149-0.103,0.195-0.161l0.414,0.012c-0.107,0.267-0.195,0.566-0.294,0.871
	C213.178,395.414,213.32,398.217,213.428,401.438"/>
<path fill="#010101" d="M213.152,419.089c1.816-3.577,5.512-6.852,6.379-10.245l0.531-0.223c1.338,3.336,1.193,7.326,0.17,10.95
	c-1.109,4.704-3.424,8.369-4.508,12.994c-0.194,0.891-0.354,1.775-0.459,2.742c-6.957-5.049-13.369-10.808-15.183-19.897
	l12.194,6.13C212.439,420.692,212.77,419.854,213.152,419.089"/>
<path fill="#010101" d="M232.755,460.246c0.915-0.017,1.782-0.026,2.638,0.015c-3.211-4.571-2.29-10.164-4.059-15.119l0.018-0.219
	c5.329,2.008,8.124,6.7,10.73,11.657c1.861,3.592,3.684,7.273,6.34,9.993c-1.109,0.08-2.153,0.229-3.234,0.389
	c-1.122,0.163-2.275,0.386-3.436,0.691c-2.305,0.136-4.58,0.238-6.731,0.167c-4.034-0.171-7.795-0.854-11.037-2.605
	c-1.501-0.798-2.901-1.85-4.131-3.161c0.949-0.154,1.992-0.342,3.028-0.524C226.146,460.975,229.58,460.404,232.755,460.246"/>
<path fill="#010101" d="M219.755,444.673c1.495-5.036,4.274-10.122,3.864-15.641l0.143-0.22l0.374,0.165
	c0.045,0.036,0.098,0.108,0.101,0.145c0.293,0.501,0.602,0.786,1.137,1.3c3.805,6.707,3.229,14.78,1.275,21.92
	c-0.32,1.176-0.654,2.295-1.063,3.425c-3.422-2.676-7.645-3.358-11.442-5.306c-0.342-0.207-0.677-0.37-1.03-0.582
	c-3.66-2.641-5.886-7.007-6.841-11.183c2.373,0.757,4.7,1.368,6.876,2.186C215.494,441.728,217.757,442.87,219.755,444.673"/>
<path fill="#FFFFFF" d="M410.736,328.823c-0.313-2.897-2.677-4.153-5.253-2.79l-29.302,15.511l-27.573,14.598
	c-2.575,1.362-3.976,4.756-3.11,7.54l4.1,13.18c0.578,1.857,2.085,3.129,3.839,3.479l-2.282,0.815
	c-1.839,0.973-2.837,3.394-2.22,5.378l2.974,9.538c0.396,1.275,1.428,2.217,2.635,2.544c0,0,27.951-8.91,27.492-9.237
	c15.863-6.499,15.631-21.585,15.631-21.585c-0.152-1.415-1.014-2.344-2.131-2.478C413.484,354.317,410.736,328.823,410.736,328.823"
	/>
<polygon fill="#010101" points="403.305,361.124 353.418,387.341 401.608,358.124 "/>
<path fill="none" stroke="#010101" stroke-width="5.77" stroke-miterlimit="10" d="M410.736,328.823
	c-0.313-2.897-2.677-4.153-5.253-2.79l-29.302,15.511l-27.573,14.598c-2.575,1.362-3.976,4.756-3.11,7.54l4.1,13.18
	c0.578,1.857,2.085,3.129,3.839,3.479l-2.282,0.815c-1.839,0.973-2.837,3.394-2.22,5.378l2.974,9.538
	c0.396,1.275,1.428,2.217,2.635,2.544c0,0,27.951-8.91,27.492-9.237c15.863-6.499,15.631-21.585,15.631-21.585
	c-0.152-1.415-1.014-2.344-2.131-2.478C413.484,354.317,410.736,328.823,410.736,328.823z"/>
<path fill="#FFFFFF" d="M201.246,328.823c0.313-2.897,2.677-4.153,5.253-2.79l29.302,15.511l27.573,14.598
	c2.575,1.362,3.976,4.756,3.11,7.54l-4.1,13.18c-0.578,1.857-2.085,3.129-3.839,3.479l2.282,0.815
	c1.839,0.973,2.837,3.394,2.22,5.378l-2.974,9.538c-0.396,1.275-1.428,2.217-2.635,2.544c0,0-27.951-8.91-27.492-9.237
	c-15.863-6.499-15.631-21.585-15.631-21.585c0.152-1.415,1.014-2.344,2.131-2.478C198.498,354.317,201.246,328.823,201.246,328.823"
	/>
<polygon fill="#010101" points="212.883,358.123 261.072,387.341 211.187,361.123 "/>
<path fill="none" stroke="#010101" stroke-width="5.77" stroke-miterlimit="10" d="M201.246,328.823
	c0.313-2.897,2.677-4.153,5.253-2.79l29.302,15.511l27.573,14.598c2.575,1.362,3.976,4.756,3.11,7.54l-4.1,13.18
	c-0.578,1.857-2.085,3.129-3.839,3.479l2.282,0.815c1.839,0.973,2.837,3.394,2.22,5.378l-2.974,9.538
	c-0.396,1.275-1.428,2.217-2.635,2.544c0,0-27.951-8.91-27.492-9.237c-15.863-6.499-15.631-21.585-15.631-21.585
	c0.152-1.415,1.014-2.344,2.131-2.478C198.498,354.317,201.246,328.823,201.246,328.823z"/>
<path fill="#010101" d="M213.428,401.438c-0.24,1.74-0.044,3.626-0.482,5.45c-0.368,0.755-0.674,1.521-0.996,2.299
	c-0.932,2.037-1.947,3.891-3.568,4.681c-1.145-2.622-2.175-5.41-2.281-8.632c0.197-2.092,0.727-4.029,1.566-5.854
	c1.307-2.873,3.357-5.406,6.027-7.536c0.086-0.075,0.149-0.103,0.195-0.161l0.414,0.012c-0.107,0.267-0.195,0.566-0.294,0.871
	C213.178,395.414,213.32,398.217,213.428,401.438"/>
<path fill="#010101" d="M213.152,419.089c1.816-3.577,5.512-6.852,6.379-10.245l0.531-0.223c1.338,3.336,1.193,7.326,0.17,10.95
	c-1.109,4.704-3.424,8.369-4.508,12.994c-0.194,0.891-0.354,1.775-0.459,2.742c-6.957-5.049-13.369-10.808-15.183-19.897
	l12.194,6.13C212.439,420.692,212.77,419.854,213.152,419.089"/>
<path fill="#010101" d="M232.755,460.246c0.915-0.017,1.782-0.026,2.638,0.015c-3.211-4.571-2.29-10.164-4.059-15.119l0.018-0.219
	c5.329,2.008,8.124,6.7,10.73,11.657c1.861,3.592,3.684,7.273,6.34,9.993c-1.109,0.08-2.153,0.229-3.234,0.389
	c-1.122,0.163-2.275,0.386-3.436,0.691c-2.305,0.136-4.58,0.238-6.731,0.167c-4.034-0.171-7.795-0.854-11.037-2.605
	c-1.501-0.798-2.901-1.85-4.131-3.161c0.949-0.154,1.992-0.342,3.028-0.524C226.146,460.975,229.58,460.404,232.755,460.246"/>
<path fill="#010101" d="M219.755,444.673c1.495-5.036,4.274-10.122,3.864-15.641l0.143-0.22l0.374,0.165
	c0.045,0.036,0.098,0.108,0.101,0.145c0.293,0.501,0.602,0.786,1.137,1.3c3.805,6.707,3.229,14.78,1.275,21.92
	c-0.32,1.176-0.654,2.295-1.063,3.425c-3.422-2.676-7.645-3.358-11.442-5.306c-0.342-0.207-0.677-0.37-1.03-0.582
	c-3.66-2.641-5.886-7.007-6.841-11.183c2.373,0.757,4.7,1.368,6.876,2.186C215.494,441.728,217.757,442.87,219.755,444.673"/>
<path fill="#FFFFFF" d="M201.246,328.823c0.313-2.897,2.677-4.153,5.253-2.79l29.302,15.511l27.573,14.598
	c2.575,1.362,3.976,4.756,3.11,7.54l-4.1,13.18c-0.578,1.857-2.085,3.129-3.839,3.479l2.282,0.815
	c1.839,0.973,2.837,3.394,2.22,5.378l-2.974,9.538c-0.396,1.275-1.428,2.217-2.635,2.544c0,0-27.951-8.91-27.492-9.237
	c-15.863-6.499-15.631-21.585-15.631-21.585c0.152-1.415,1.014-2.344,2.131-2.478C198.498,354.317,201.246,328.823,201.246,328.823"
	/>
<polygon fill="#010101" points="212.883,358.123 261.072,387.341 211.187,361.123 "/>
<path fill="none" stroke="#010101" stroke-width="5.77" stroke-miterlimit="10" d="M201.246,328.823
	c0.313-2.897,2.677-4.153,5.253-2.79l29.302,15.511l27.573,14.598c2.575,1.362,3.976,4.756,3.11,7.54l-4.1,13.18
	c-0.578,1.857-2.085,3.129-3.839,3.479l2.282,0.815c1.839,0.973,2.837,3.394,2.22,5.378l-2.974,9.538
	c-0.396,1.275-1.428,2.217-2.635,2.544c0,0-27.951-8.91-27.492-9.237c-15.863-6.499-15.631-21.585-15.631-21.585
	c0.152-1.415,1.014-2.344,2.131-2.478C198.498,354.317,201.246,328.823,201.246,328.823z"/>
<rect x="261.139" y="426.861" fill="#010101" width="85" height="43.667"/>
<polygon fill="#010101" points="334.439,456.025 360.277,447.046 347.203,437.266 295.695,461.528 "/>
<polygon fill="#010101" points="307.696,462.528 251.001,447.046 264.074,437.266 312.196,459.028 "/>
<polygon fill="#FFFFFF" points="357.953,478.863 305.66,493.046 253.367,477.358 253.367,449.837 305.66,459.525 357.953,449.837 
	"/>
<polygon fill="none" stroke="#010101" stroke-width="4.515" stroke-miterlimit="10" points="357.953,478.863 305.66,491.646 
	253.367,478.863 253.367,449.837 305.66,458.62 357.953,449.837 "/>
<path fill="#FECF0A" d="M305.979,332.388h-66.783c0,0.091,0.002,0.181,0.002,0.272v71.94c0,0,2.764,28.095,33.166,36.624
	c29.393,8.245,33.383,17.896,33.615,18.529c0.008,0.021,0.012,0.032,0.012,0.032s3.225-10.034,33.627-18.562
	c30.402-8.529,33.166-36.624,33.166-36.624v-71.901c0-0.013,0.002-0.025,0.002-0.039c0-0.092,0.002-0.182,0.002-0.272H305.979z"/>
<g opacity="0.5">
	<g>
		<defs>
			<rect id="SVGID_1_" x="305.98" y="332.39" width="66.81" height="127.4"/>
		</defs>
		<clipPath id="SVGID_2_">
			<use xlink:href="#SVGID_1_"  overflow="visible"/>
		</clipPath>
		<path clip-path="url(#SVGID_2_)" fill="#CDA72C" d="M339.617,441.224c30.402-8.528,33.168-36.624,33.168-36.624v-71.9
			c0-0.014,0-0.026,0-0.039c0-0.092,0.002-0.182,0.002-0.273h-66.809v127.366c0.008,0.022,0.012,0.034,0.012,0.034
			S309.215,449.753,339.617,441.224"/>
	</g>
</g>
<path fill="#191818" d="M367.421,307.61l3.394,5.225c-2.297,2.726-4.317,6.396-5.445,11.187H246.613
	c-1.128-4.79-3.148-8.461-5.444-11.187l3.392-5.225h28.033h23.781h9.198h33.815H367.421 M371.965,299.244h-32.576h-33.815h-9.198
	h-23.781h-32.576l-10.032,15.454c0,0,9.099,2.806,9.209,17.689h133.594c0.11-14.884,9.21-17.689,9.21-17.689L371.965,299.244z"/>
<g opacity="0.4">
	<g>
		<defs>
			<rect id="SVGID_3_" x="229.98" y="299.24" width="152.02" height="160.55"/>
		</defs>
		<clipPath id="SVGID_4_">
			<use xlink:href="#SVGID_3_"  overflow="visible"/>
		</clipPath>
		<path clip-path="url(#SVGID_4_)" fill="#FFFFFF" d="M363.994,313.041c-2.643,4.356-4.93,10.604-5.003,19.229v0.004l-0.003,0.261
			l-0.001,0.082v0.082v70.951c-0.224,1.223-1.069,5.082-3.448,9.367c-4.105,7.396-10.717,12.417-19.648,14.923
			c-13.943,3.912-23.451,8.354-29.929,12.659c-6.466-4.301-15.954-8.755-29.872-12.659c-8.596-2.412-15.05-7.16-19.183-14.113
			c-2.709-4.559-3.653-8.787-3.913-10.226V332.66l-0.003-0.376c-0.065-8.624-2.356-14.881-5.003-19.243h24.605h23.781h9.198h33.815
			H363.994 M371.965,299.244h-32.576h-33.815h-9.198h-23.781h-32.576l-10.032,15.454c0,0,9.099,2.806,9.209,17.689
			c0.001,0.091,0.003,0.181,0.003,0.272v71.94c0,0,2.764,28.095,33.166,36.624c29.393,8.245,33.383,17.896,33.615,18.528
			c0.008,0.022,0.012,0.033,0.012,0.033s3.225-10.034,33.627-18.562c30.402-8.529,33.167-36.624,33.167-36.624v-71.901
			c0-0.013,0.001-0.025,0.001-0.039c0-0.092,0.002-0.182,0.003-0.272c0.11-14.884,9.21-17.689,9.21-17.689L371.965,299.244z"/>
	</g>
</g>
<path fill="#1A1A19" d="M381.998,314.698l-10.034-15.454h-32.575h-33.816h-9.197h-23.781H240.02l-10.035,15.454
	c0,0,9.1,2.807,9.211,17.688v7.526h133.592v-7.526C372.898,317.505,381.998,314.698,381.998,314.698"/>
<polygon fill="#FFFFFF" points="264.659,328.386 270.68,311.857 262.371,311.857 262.371,308.306 275.257,308.306 275.257,311.105 
	269.023,328.386 "/>
<path fill="#FFFFFF" d="M283.924,328.386v-20.08h6.473c5.539,0,8.73,4.155,8.73,10.055c0,5.901-3.161,10.025-8.73,10.025H283.924z
	 M295.002,318.36c0-3.974-1.565-6.503-4.605-6.503h-2.439v12.976h2.439C293.377,324.833,295.002,322.184,295.002,318.36"/>
<path fill="#FFFFFF" d="M311.829,328.386l-0.935-3.553h-6.172l-0.932,3.553h-4.365l5.96-20.08h4.878l5.961,20.08H311.829z
	 M307.824,312.551l-2.287,8.73h4.576L307.824,312.551z"/>
<polygon fill="#FFFFFF" points="320.828,328.386 320.828,320.106 314.626,308.306 319.082,308.306 322.845,316.373 326.607,308.306 
	331.063,308.306 324.861,320.106 324.861,328.386 "/>
<path fill="#FFFFFF" d="M331.032,326.158l1.985-3.102c1.115,1.234,2.861,2.138,4.849,2.138c1.776,0,2.739-0.993,2.739-2.228
	c0-3.522-8.972-2.318-8.972-9.121c0-3.162,2.468-5.871,6.624-5.871c2.438,0,4.545,0.783,6.081,2.228l-1.927,3.011
	c-1.204-1.145-2.74-1.687-4.307-1.687c-1.443,0-2.347,0.813-2.347,2.048c0,3.131,8.941,2.287,8.941,9.063
	c0,3.521-2.409,6.11-6.804,6.11C334.855,328.747,332.628,327.754,331.032,326.158"/>
<polygon fill="#1A1A19" points="283.202,480.975 283.202,468.628 280.678,471.252 278.753,469.228 283.65,464.304 286.576,464.304 
	286.576,480.975 "/>
<path fill="#1A1A19" d="M288.853,472.652c0-4.299,1.774-8.599,5.898-8.599c4.149,0,5.897,4.3,5.897,8.599
	c0,4.273-1.724,8.623-5.897,8.623C290.627,481.275,288.853,476.926,288.853,472.652 M297.25,472.652
	c0-3.225-0.549-5.624-2.499-5.624c-1.925,0-2.476,2.399-2.476,5.624c0,3.199,0.551,5.648,2.476,5.648
	C296.701,478.301,297.25,475.852,297.25,472.652"/>
<path fill="#1A1A19" d="M302.277,472.652c0-4.299,1.774-8.599,5.898-8.599c4.148,0,5.898,4.3,5.898,8.599
	c0,4.273-1.725,8.623-5.898,8.623C304.052,481.275,302.277,476.926,302.277,472.652 M310.675,472.652
	c0-3.225-0.55-5.624-2.499-5.624c-1.926,0-2.475,2.399-2.475,5.624c0,3.199,0.549,5.648,2.475,5.648
	C310.125,478.301,310.675,475.852,310.675,472.652"/>
<polygon fill="#1A1A19" points="324.75,480.975 320.9,474.451 319.726,476.301 319.726,480.975 316.377,480.975 316.377,464.304 
	319.726,464.304 319.726,471.877 324.425,464.304 328.324,464.304 323,472.152 328.699,480.975 "/>
<g>
	<defs>
		<path id="SVGID_5_" d="M305.915,332.591h-66.22c0,0.089,0.002,0.177,0.002,0.27v71.335c0,0,2.74,27.856,32.887,36.313
			c29.145,8.177,33.102,17.746,33.331,18.373c0.008,0.021,0.012,0.033,0.012,0.033s3.198-9.95,33.345-18.406
			c30.146-8.457,32.886-36.313,32.886-36.313v-71.296c0-0.013,0.003-0.027,0.003-0.039c0-0.093,0.002-0.181,0.002-0.27H305.915z"/>
	</defs>
	<clipPath id="SVGID_6_">
		<use xlink:href="#SVGID_5_"  overflow="visible"/>
	</clipPath>
	<g opacity="0.5" clip-path="url(#SVGID_6_)">
		<g>
			<defs>
				<rect id="SVGID_7_" x="238.37" y="399.87" width="130.771" height="27.61"/>
			</defs>
			<clipPath id="SVGID_8_">
				<use xlink:href="#SVGID_7_"  overflow="visible"/>
			</clipPath>
			<path clip-path="url(#SVGID_8_)" fill="#CDA72C" d="M355.134,399.87c0,0-9.745,8.382-7.763,7.194c0,0-1.287,7.67-7.59,7.401
				c-6.303-0.267-8.127,9.171-7.883,11.126c0,0,3.95-4.619,10.467-2.967c6.516,1.654,10.057-2.413,10.936-3.702
				c0,0-2.331,7.688-6.85,8.269c0,0,11.194,2.166,15.59-5.346c4.395-7.514,6.612-16.36,7.084-17.155
				C369.596,403.896,355.134,399.87,355.134,399.87"/>
			<path clip-path="url(#SVGID_8_)" fill="#CDA72C" d="M342.311,421.278c0,0-7.975,1.536-6.609,1.02c0,0-4.303-2.372-6.643,0.854
				c-2.341,3.226-7.73,0.425-8.602-0.463c0,0,3.837-0.144,5.576-4.02c1.738-3.875,5.141-4.033,6.123-3.961
				c0,0-4.719-1.863-6.781,0.146c0,0,3.32-6.393,8.766-5.62c5.444,0.771,10.695,3.145,11.273,3.224
				C345.992,412.537,342.311,421.278,342.311,421.278"/>
			<path clip-path="url(#SVGID_8_)" fill="#CDA72C" d="M322.799,399.87c0,0-9.746,8.382-7.763,7.194c0,0-1.288,7.67-7.591,7.401
				c-6.303-0.267-8.125,9.171-7.881,11.126c0,0,3.949-4.619,10.466-2.967c6.516,1.654,10.057-2.413,10.935-3.702
				c0,0-2.33,7.688-6.849,8.269c0,0,11.194,2.166,15.589-5.346c4.395-7.514,6.613-16.36,7.084-17.155
				C337.26,403.896,322.799,399.87,322.799,399.87"/>
			<path clip-path="url(#SVGID_8_)" fill="#CDA72C" d="M309.976,421.278c0,0-7.976,1.536-6.608,1.02c0,0-4.303-2.372-6.645,0.854
				c-2.34,3.226-7.729,0.425-8.602-0.463c0,0,3.838-0.144,5.576-4.02c1.738-3.875,5.143-4.033,6.125-3.961
				c0,0-4.721-1.863-6.781,0.146c0,0,3.319-6.393,8.764-5.62c5.445,0.771,10.695,3.145,11.274,3.224
				C313.657,412.537,309.976,421.278,309.976,421.278"/>
			<path clip-path="url(#SVGID_8_)" fill="#CDA72C" d="M297.428,399.87c0,0-9.745,8.382-7.764,7.194c0,0-1.287,7.67-7.59,7.401
				c-6.303-0.267-8.125,9.171-7.882,11.126c0,0,3.95-4.619,10.466-2.967c6.518,1.654,10.059-2.413,10.937-3.702
				c0,0-2.331,7.688-6.849,8.269c0,0,11.193,2.166,15.588-5.346c4.396-7.514,6.613-16.36,7.084-17.155
				C311.89,403.896,297.428,399.87,297.428,399.87"/>
			<path clip-path="url(#SVGID_8_)" fill="#CDA72C" d="M284.605,421.278c0,0-7.976,1.536-6.609,1.02c0,0-4.303-2.372-6.644,0.854
				c-2.341,3.226-7.729,0.425-8.602-0.463c0,0,3.837-0.144,5.575-4.02c1.738-3.875,5.142-4.033,6.125-3.961
				c0,0-4.721-1.863-6.782,0.146c0,0,3.321-6.393,8.766-5.62c5.444,0.771,10.695,3.145,11.274,3.224
				C288.287,412.537,284.605,421.278,284.605,421.278"/>
			<path clip-path="url(#SVGID_8_)" fill="#CDA72C" d="M273.052,399.87c0,0-9.745,8.382-7.763,7.194c0,0-1.287,7.67-7.59,7.401
				c-6.303-0.267-8.127,9.171-7.882,11.126c0,0,3.949-4.619,10.466-2.967c6.516,1.654,10.057-2.413,10.936-3.702
				c0,0-2.33,7.688-6.85,8.269c0,0,11.194,2.166,15.59-5.346c4.395-7.514,6.612-16.36,7.084-17.155
				C287.514,403.896,273.052,399.87,273.052,399.87"/>
			<path clip-path="url(#SVGID_8_)" fill="#CDA72C" d="M260.229,421.278c0,0-7.975,1.536-6.607,1.02c0,0-4.303-2.372-6.645,0.854
				c-2.341,3.226-7.73,0.425-8.602-0.463c0,0,3.837-0.144,5.576-4.02c1.738-3.875,5.142-4.033,6.125-3.961
				c0,0-4.721-1.863-6.782,0.146c0,0,3.319-6.393,8.765-5.62c5.444,0.771,10.695,3.145,11.273,3.224
				C263.91,412.537,260.229,421.278,260.229,421.278"/>
		</g>
	</g>
	<path clip-path="url(#SVGID_6_)" fill="#FFFFFF" d="M268.442,403.646l0.161-5.136l1.02-15.3l0.372-5.574l0.521-7.803l0.172-2.601
		h23.41c0-5.201,5.201-7.803,5.201-7.803l2.289,1.716l1.873,1.405l0.832,0.624l3.901,2.926l26.825,18.854l0.693,0.485
		c0,0,0.579,0.231,1.565,0.621c0.003,0.001,0.007,0.002,0.01,0.004c0.054,0.021,0.108,0.043,0.165,0.065
		c0.023,0.009,0.049,0.019,0.073,0.029c0.053,0.02,0.106,0.041,0.161,0.063c0.014,0.005,0.027,0.011,0.041,0.017
		c0.06,0.023,0.119,0.048,0.182,0.071c0.021,0.009,0.043,0.018,0.064,0.025c0.06,0.024,0.119,0.047,0.182,0.072
		c0.011,0.004,0.021,0.008,0.031,0.012c0.099,0.039,0.199,0.078,0.301,0.118c0.057,0.021,0.111,0.044,0.169,0.066
		c0.055,0.021,0.11,0.043,0.166,0.065c0.034,0.013,0.069,0.027,0.104,0.041c0.062,0.024,0.123,0.048,0.186,0.072
		c0.033,0.013,0.064,0.025,0.098,0.039c0.057,0.021,0.114,0.044,0.172,0.066c0.045,0.019,0.09,0.035,0.135,0.054
		c0.058,0.021,0.115,0.044,0.172,0.066c0.035,0.014,0.072,0.028,0.106,0.042c0.067,0.026,0.136,0.052,0.204,0.079
		c0.047,0.02,0.096,0.038,0.145,0.056c0.045,0.019,0.091,0.036,0.138,0.055c0.084,0.032,0.17,0.065,0.257,0.1
		c0.02,0.008,0.038,0.015,0.057,0.022c0.09,0.034,0.18,0.069,0.27,0.104c0.027,0.011,0.056,0.022,0.084,0.033
		c0.068,0.026,0.138,0.053,0.207,0.08c0.068,0.026,0.136,0.053,0.204,0.079c1.188,0.462,2.501,0.967,3.87,1.487
		c0.004,0.001,0.006,0.003,0.009,0.003c0.138,0.054,0.276,0.106,0.416,0.158c0,0,0.001,0.001,0.002,0.001
		c0.132,0.05,0.264,0.101,0.397,0.151c0.02,0.007,0.041,0.015,0.062,0.023c0.125,0.047,0.25,0.095,0.375,0.142
		c0.012,0.004,0.022,0.009,0.034,0.013c0.136,0.051,0.273,0.104,0.41,0.154c0.002,0.001,0.004,0.002,0.006,0.002
		c0.136,0.052,0.273,0.103,0.41,0.155c0.012,0.005,0.024,0.01,0.037,0.014c0.127,0.048,0.254,0.095,0.381,0.144
		c0.021,0.008,0.043,0.016,0.064,0.023c0.122,0.046,0.245,0.092,0.368,0.138c0.021,0.009,0.043,0.017,0.065,0.024l0.359,0.134
		c0.026,0.01,0.053,0.021,0.079,0.03c0.119,0.044,0.239,0.089,0.358,0.133c0.025,0.009,0.05,0.018,0.074,0.028
		c0.114,0.042,0.229,0.084,0.342,0.126c0.035,0.013,0.068,0.025,0.103,0.038c0.11,0.041,0.222,0.082,0.331,0.122
		c0.033,0.012,0.066,0.023,0.098,0.035c0.111,0.041,0.221,0.082,0.332,0.122c0.034,0.014,0.069,0.026,0.104,0.039
		c0.108,0.04,0.217,0.079,0.325,0.119c0.035,0.013,0.068,0.025,0.104,0.038c0.107,0.039,0.215,0.078,0.321,0.117
		c0.036,0.013,0.073,0.025,0.108,0.04c0.104,0.037,0.205,0.074,0.308,0.11c0.041,0.016,0.082,0.03,0.123,0.046
		c0.101,0.036,0.2,0.071,0.301,0.107c0.04,0.015,0.08,0.03,0.121,0.044c0.101,0.037,0.203,0.073,0.304,0.11
		c0.039,0.013,0.077,0.026,0.116,0.041c0.093,0.034,0.187,0.067,0.278,0.1c0.049,0.018,0.097,0.034,0.146,0.052
		c0.093,0.033,0.185,0.065,0.275,0.099c0.044,0.015,0.088,0.031,0.131,0.046c0.104,0.037,0.207,0.073,0.31,0.11
		c0.03,0.011,0.062,0.021,0.094,0.032c0.097,0.034,0.193,0.068,0.289,0.103c0.041,0.014,0.082,0.028,0.121,0.042
		c0.084,0.03,0.166,0.058,0.25,0.087c0.051,0.018,0.102,0.036,0.151,0.053c0.086,0.03,0.171,0.061,0.257,0.089
		c0.043,0.016,0.088,0.031,0.133,0.047c0.08,0.027,0.16,0.055,0.24,0.082c0.051,0.018,0.1,0.035,0.15,0.053
		c0.076,0.024,0.15,0.051,0.225,0.076c0.051,0.018,0.104,0.034,0.153,0.053c0.077,0.025,0.153,0.051,0.228,0.077
		c0.049,0.016,0.098,0.032,0.146,0.049c0.123,0.041,0.244,0.082,0.363,0.122c0.238,0.079,0.469,0.166,0.692,0.26
		c0.005,0.001,0.009,0.003,0.013,0.004c0.219,0.092,0.432,0.191,0.638,0.296c0.008,0.003,0.015,0.006,0.022,0.01
		c0.202,0.104,0.398,0.214,0.588,0.328c0.01,0.005,0.02,0.011,0.029,0.017c0.188,0.113,0.368,0.232,0.543,0.356
		c0.012,0.008,0.022,0.016,0.033,0.023c0.173,0.122,0.34,0.251,0.502,0.382c0.012,0.01,0.023,0.019,0.035,0.029
		c0.16,0.131,0.314,0.267,0.463,0.405c0.012,0.012,0.023,0.022,0.035,0.033c0.148,0.14,0.291,0.283,0.429,0.429
		c0.011,0.013,0.022,0.023,0.032,0.034c0.138,0.148,0.27,0.3,0.398,0.452c0.008,0.011,0.019,0.022,0.027,0.033
		c0.128,0.155,0.251,0.313,0.369,0.473c0.008,0.01,0.016,0.021,0.021,0.03c0.121,0.163,0.234,0.328,0.345,0.495
		c0.005,0.007,0.01,0.014,0.015,0.021c0.111,0.17,0.219,0.343,0.32,0.517c0.002,0.004,0.005,0.008,0.007,0.012
		c1.157,1.974,1.619,4.133,1.892,5.764v9.458h-95.526V403.646z"/>
	<path clip-path="url(#SVGID_6_)" fill="#F8D012" d="M337.872,399.269l-43.409-30.932l4.507-7.193l11.64,9.148l27.281,18.479
		l0.747,0.507c0,0,2.847,1.103,6.743,2.561l0.008,0.032L337.872,399.269z"/>
	<path clip-path="url(#SVGID_6_)" fill="#F8D012" d="M335.734,386.522c0.564,0.225,13.159,5.252,20.786,7.794
		c3.854,1.285,5.804,4.472,6.789,7.369h-38.678L335.734,386.522z"/>
	<polygon clip-path="url(#SVGID_6_)" fill="#191818" points="310.769,369.268 303.822,375.413 307.323,366.824 	"/>
	<polygon clip-path="url(#SVGID_6_)" fill="#191818" points="317.305,373.925 310.359,380.069 313.859,371.481 	"/>
	
		<line clip-path="url(#SVGID_6_)" fill="none" stroke="#191818" stroke-width="2.148" stroke-miterlimit="10" x1="363.311" y1="402.491" x2="268.441" y2="402.491"/>
	<polygon clip-path="url(#SVGID_6_)" fill="#191818" points="323.842,378.581 316.895,384.727 320.396,376.139 	"/>
	<polygon clip-path="url(#SVGID_6_)" fill="#191818" points="330.378,383.238 323.432,389.383 326.933,380.795 	"/>
	<polygon clip-path="url(#SVGID_6_)" fill="#191818" points="336.914,387.896 329.968,394.04 333.469,385.452 	"/>
	<path clip-path="url(#SVGID_6_)" fill="none" stroke="#191818" stroke-width="4.296" stroke-miterlimit="10" d="M268.442,403.646
		l0.161-5.136l1.02-15.3l0.372-5.574l0.521-7.803l0.172-2.601h23.41c0-5.201,5.201-7.803,5.201-7.803l2.289,1.716l1.873,1.405
		l0.832,0.624l3.901,2.926l26.825,18.854l0.693,0.485c0,0,0.579,0.231,1.565,0.621c0.003,0.001,0.007,0.002,0.01,0.004
		c0.054,0.021,0.108,0.043,0.165,0.065c0.023,0.009,0.049,0.019,0.073,0.029c0.053,0.02,0.106,0.041,0.161,0.063
		c0.014,0.005,0.027,0.011,0.041,0.017c0.06,0.023,0.119,0.048,0.182,0.071c0.021,0.009,0.043,0.018,0.064,0.025
		c0.06,0.024,0.119,0.047,0.182,0.072c0.011,0.004,0.021,0.008,0.031,0.012c0.099,0.039,0.199,0.078,0.301,0.118
		c0.057,0.021,0.111,0.044,0.169,0.066c0.055,0.021,0.11,0.043,0.166,0.065c0.034,0.013,0.069,0.027,0.104,0.041
		c0.062,0.024,0.123,0.048,0.186,0.072c0.033,0.013,0.064,0.025,0.098,0.039c0.057,0.021,0.114,0.044,0.172,0.066
		c0.045,0.019,0.09,0.035,0.135,0.054c0.058,0.021,0.115,0.044,0.172,0.066c0.035,0.014,0.072,0.028,0.106,0.042
		c0.067,0.026,0.136,0.052,0.204,0.079c0.047,0.02,0.096,0.038,0.145,0.056c0.045,0.019,0.091,0.036,0.138,0.055
		c0.084,0.032,0.17,0.065,0.257,0.1c0.02,0.008,0.038,0.015,0.057,0.022c0.09,0.034,0.18,0.069,0.27,0.104
		c0.027,0.011,0.056,0.022,0.084,0.033c0.068,0.026,0.138,0.053,0.207,0.08c0.068,0.026,0.136,0.053,0.204,0.079
		c1.188,0.462,2.501,0.967,3.87,1.487c0.004,0.001,0.006,0.003,0.009,0.003c0.138,0.054,0.276,0.106,0.416,0.158
		c0,0,0.001,0.001,0.002,0.001c0.132,0.05,0.264,0.101,0.397,0.151c0.02,0.007,0.041,0.015,0.062,0.023
		c0.125,0.047,0.25,0.095,0.375,0.142c0.012,0.004,0.022,0.009,0.034,0.013c0.136,0.051,0.273,0.104,0.41,0.154
		c0.002,0.001,0.004,0.002,0.006,0.002c0.136,0.052,0.273,0.103,0.41,0.155c0.012,0.005,0.024,0.01,0.037,0.014
		c0.127,0.048,0.254,0.095,0.381,0.144c0.021,0.008,0.043,0.016,0.064,0.023c0.122,0.046,0.245,0.092,0.368,0.138
		c0.021,0.009,0.043,0.017,0.065,0.024l0.359,0.134c0.026,0.01,0.053,0.021,0.079,0.03c0.119,0.044,0.239,0.089,0.358,0.133
		c0.025,0.009,0.05,0.018,0.074,0.028c0.114,0.042,0.229,0.084,0.342,0.126c0.035,0.013,0.068,0.025,0.103,0.038
		c0.11,0.041,0.222,0.082,0.331,0.122c0.033,0.012,0.066,0.023,0.098,0.035c0.111,0.041,0.221,0.082,0.332,0.122
		c0.034,0.014,0.069,0.026,0.104,0.039c0.108,0.04,0.217,0.079,0.325,0.119c0.035,0.013,0.068,0.025,0.104,0.038
		c0.107,0.039,0.215,0.078,0.321,0.117c0.036,0.013,0.073,0.025,0.108,0.04c0.104,0.037,0.205,0.074,0.308,0.11
		c0.041,0.016,0.082,0.03,0.123,0.046c0.101,0.036,0.2,0.071,0.301,0.107c0.04,0.015,0.08,0.03,0.121,0.044
		c0.101,0.037,0.203,0.073,0.304,0.11c0.039,0.013,0.077,0.026,0.116,0.041c0.093,0.034,0.187,0.067,0.278,0.1
		c0.049,0.018,0.097,0.034,0.146,0.052c0.093,0.033,0.185,0.065,0.275,0.099c0.044,0.015,0.088,0.031,0.131,0.046
		c0.104,0.037,0.207,0.073,0.31,0.11c0.03,0.011,0.062,0.021,0.094,0.032c0.097,0.034,0.193,0.068,0.289,0.103
		c0.041,0.014,0.082,0.028,0.121,0.042c0.084,0.03,0.166,0.058,0.25,0.087c0.051,0.018,0.102,0.036,0.151,0.053
		c0.086,0.03,0.171,0.061,0.257,0.089c0.043,0.016,0.088,0.031,0.133,0.047c0.08,0.027,0.16,0.055,0.24,0.082
		c0.051,0.018,0.1,0.035,0.15,0.053c0.076,0.024,0.15,0.051,0.225,0.076c0.051,0.018,0.104,0.034,0.153,0.053
		c0.077,0.025,0.153,0.051,0.228,0.077c0.049,0.016,0.098,0.032,0.146,0.049c0.123,0.041,0.244,0.082,0.363,0.122
		c0.238,0.079,0.469,0.166,0.692,0.26c0.005,0.001,0.009,0.003,0.013,0.004c0.219,0.092,0.432,0.191,0.638,0.296
		c0.008,0.003,0.015,0.006,0.022,0.01c0.202,0.104,0.398,0.214,0.588,0.328c0.01,0.005,0.02,0.011,0.029,0.017
		c0.188,0.113,0.368,0.232,0.543,0.356c0.012,0.008,0.022,0.016,0.033,0.023c0.173,0.122,0.34,0.251,0.502,0.382
		c0.012,0.01,0.023,0.019,0.035,0.029c0.16,0.131,0.314,0.267,0.463,0.405c0.012,0.012,0.023,0.022,0.035,0.033
		c0.148,0.14,0.291,0.283,0.429,0.429c0.011,0.013,0.022,0.023,0.032,0.034c0.138,0.148,0.27,0.3,0.398,0.452
		c0.008,0.011,0.019,0.022,0.027,0.033c0.128,0.155,0.251,0.313,0.369,0.473c0.008,0.01,0.016,0.021,0.021,0.03
		c0.121,0.163,0.234,0.328,0.345,0.495c0.005,0.007,0.01,0.014,0.015,0.021c0.111,0.17,0.219,0.343,0.32,0.517
		c0.002,0.004,0.005,0.008,0.007,0.012c1.157,1.974,1.619,4.133,1.892,5.764v9.458h-95.526V403.646z"/>
	<path clip-path="url(#SVGID_6_)" fill="#FFFFFF" d="M227.619,403.646l0.161-5.136l1.021-15.3l0,0l0.371-5.574l0.521-7.803
		l0.174-2.601h23.408c0-5.201,5.202-7.803,5.202-7.803l2.289,1.716l1.873,1.405l0.832,0.624l3.9,2.926l26.825,18.854l0.694,0.485
		c0,0,0.578,0.231,1.564,0.621c0.004,0.001,0.008,0.002,0.012,0.004c0.053,0.021,0.107,0.043,0.164,0.065
		c0.023,0.009,0.049,0.019,0.074,0.029c0.051,0.02,0.104,0.041,0.159,0.063c0.015,0.005,0.028,0.011,0.042,0.017
		c0.059,0.023,0.12,0.048,0.182,0.071c0.021,0.009,0.043,0.018,0.064,0.025c0.059,0.024,0.119,0.047,0.182,0.072
		c0.01,0.004,0.021,0.008,0.031,0.012c0.098,0.039,0.198,0.078,0.301,0.118c0.057,0.021,0.111,0.044,0.17,0.066
		c0.053,0.021,0.109,0.043,0.164,0.065c0.037,0.013,0.07,0.027,0.105,0.041c0.061,0.024,0.123,0.048,0.186,0.072
		c0.032,0.013,0.064,0.025,0.098,0.039c0.057,0.021,0.113,0.044,0.172,0.066c0.045,0.019,0.09,0.035,0.135,0.054
		c0.057,0.021,0.114,0.044,0.172,0.066c0.035,0.014,0.071,0.028,0.105,0.042c0.068,0.026,0.136,0.052,0.205,0.079
		c0.047,0.02,0.096,0.038,0.144,0.056c0.046,0.019,0.091,0.036,0.138,0.055c0.086,0.032,0.17,0.065,0.258,0.1
		c0.019,0.008,0.037,0.015,0.057,0.022c0.089,0.034,0.179,0.069,0.27,0.104c0.028,0.011,0.055,0.022,0.084,0.033
		c0.068,0.026,0.137,0.053,0.207,0.08c0.067,0.026,0.135,0.053,0.203,0.079c1.189,0.462,2.502,0.967,3.872,1.487
		c0.003,0.001,0.005,0.003,0.007,0.003c0.139,0.054,0.277,0.106,0.416,0.158l0.002,0.001c0.133,0.05,0.264,0.101,0.397,0.151
		c0.021,0.007,0.041,0.015,0.062,0.023c0.125,0.047,0.25,0.095,0.377,0.142l0.032,0.013c0.136,0.051,0.273,0.104,0.41,0.154
		c0.002,0.001,0.004,0.002,0.006,0.002c0.136,0.052,0.273,0.103,0.41,0.155c0.013,0.005,0.026,0.01,0.038,0.014
		c0.126,0.048,0.253,0.095,0.38,0.144c0.021,0.008,0.043,0.016,0.065,0.023c0.121,0.046,0.244,0.092,0.367,0.138
		c0.021,0.009,0.043,0.017,0.065,0.024l0.36,0.134c0.025,0.01,0.053,0.021,0.078,0.03c0.119,0.044,0.24,0.089,0.359,0.133
		c0.024,0.009,0.049,0.018,0.074,0.028c0.113,0.042,0.229,0.084,0.342,0.126c0.034,0.013,0.068,0.025,0.102,0.038
		c0.111,0.041,0.222,0.082,0.332,0.122c0.033,0.012,0.065,0.023,0.098,0.035c0.111,0.041,0.221,0.082,0.331,0.122
		c0.036,0.014,0.069,0.026,0.104,0.039c0.109,0.04,0.217,0.079,0.326,0.119c0.034,0.013,0.068,0.025,0.104,0.038
		c0.107,0.039,0.214,0.078,0.32,0.117c0.037,0.013,0.073,0.025,0.109,0.04c0.104,0.037,0.205,0.074,0.307,0.11
		c0.041,0.016,0.082,0.03,0.123,0.046c0.102,0.036,0.201,0.071,0.301,0.107c0.041,0.015,0.082,0.03,0.121,0.044
		c0.102,0.037,0.203,0.073,0.305,0.11c0.039,0.013,0.078,0.026,0.115,0.041c0.094,0.034,0.187,0.067,0.279,0.1
		c0.049,0.018,0.096,0.034,0.145,0.052c0.093,0.033,0.185,0.065,0.277,0.099c0.043,0.015,0.086,0.031,0.131,0.046
		c0.103,0.037,0.205,0.073,0.308,0.11c0.032,0.011,0.063,0.021,0.094,0.032c0.097,0.034,0.193,0.068,0.29,0.103
		c0.041,0.014,0.081,0.028,0.122,0.042c0.083,0.03,0.165,0.058,0.248,0.087c0.051,0.018,0.103,0.036,0.151,0.053
		c0.086,0.03,0.172,0.061,0.257,0.089c0.044,0.016,0.089,0.031,0.133,0.047c0.081,0.027,0.161,0.055,0.241,0.082
		c0.05,0.018,0.101,0.035,0.15,0.053c0.075,0.024,0.149,0.051,0.225,0.076c0.051,0.018,0.103,0.034,0.152,0.053
		c0.078,0.025,0.153,0.051,0.229,0.077c0.048,0.016,0.097,0.032,0.146,0.049c0.123,0.041,0.243,0.082,0.363,0.122
		c0.238,0.079,0.469,0.166,0.693,0.26c0.003,0.001,0.007,0.003,0.011,0.004c0.22,0.092,0.433,0.191,0.638,0.296
		c0.008,0.003,0.016,0.006,0.022,0.01c0.202,0.104,0.399,0.214,0.589,0.328c0.01,0.005,0.02,0.011,0.029,0.017
		c0.187,0.113,0.367,0.232,0.543,0.356c0.011,0.008,0.021,0.016,0.033,0.023c0.172,0.122,0.34,0.251,0.502,0.382
		c0.011,0.01,0.023,0.019,0.035,0.029c0.159,0.131,0.313,0.267,0.463,0.405c0.012,0.012,0.023,0.022,0.035,0.033
		c0.147,0.14,0.291,0.283,0.428,0.429c0.012,0.013,0.022,0.023,0.033,0.034c0.139,0.148,0.27,0.3,0.397,0.452
		c0.01,0.011,0.019,0.022,0.028,0.033c0.127,0.155,0.25,0.313,0.369,0.473c0.008,0.01,0.015,0.021,0.021,0.03
		c0.12,0.163,0.234,0.328,0.344,0.495c0.006,0.007,0.01,0.014,0.016,0.021c0.111,0.17,0.218,0.343,0.32,0.517
		c0.002,0.004,0.004,0.008,0.006,0.012c1.158,1.974,1.621,4.133,1.892,5.764v9.458h-95.526V403.646z"/>
	<path clip-path="url(#SVGID_6_)" fill="#F8D012" d="M297.049,399.269l-43.408-30.932l4.506-7.193l11.64,9.148l27.282,18.479
		l0.746,0.507c0,0,2.848,1.103,6.744,2.561l0.008,0.032L297.049,399.269z"/>
	<path clip-path="url(#SVGID_6_)" fill="#F8D012" d="M294.912,386.522c0.564,0.225,13.158,5.252,20.785,7.794
		c3.855,1.285,5.804,4.472,6.791,7.369h-38.68L294.912,386.522z"/>
	<polygon clip-path="url(#SVGID_6_)" fill="#191818" points="269.946,369.268 263,375.413 266.501,366.824 	"/>
	<polygon clip-path="url(#SVGID_6_)" fill="#191818" points="276.482,373.925 269.536,380.069 273.037,371.481 	"/>
	
		<line clip-path="url(#SVGID_6_)" fill="none" stroke="#191818" stroke-width="2.148" stroke-miterlimit="10" x1="322.488" y1="402.491" x2="227.619" y2="402.491"/>
	<polygon clip-path="url(#SVGID_6_)" fill="#191818" points="283.02,378.581 276.072,384.727 279.574,376.139 	"/>
	<polygon clip-path="url(#SVGID_6_)" fill="#191818" points="289.555,383.238 282.609,389.383 286.109,380.795 	"/>
	<polygon clip-path="url(#SVGID_6_)" fill="#191818" points="296.092,387.896 289.146,394.04 292.646,385.452 	"/>
	<path clip-path="url(#SVGID_6_)" fill="none" stroke="#191818" stroke-width="4.296" stroke-miterlimit="10" d="M227.619,403.646
		l0.161-5.136l1.021-15.3l0,0l0.371-5.574l0.521-7.803l0.174-2.601h23.408c0-5.201,5.202-7.803,5.202-7.803l2.289,1.716l1.873,1.405
		l0.832,0.624l3.9,2.926l26.825,18.854l0.694,0.485c0,0,0.578,0.231,1.564,0.621c0.004,0.001,0.008,0.002,0.012,0.004
		c0.053,0.021,0.107,0.043,0.164,0.065c0.023,0.009,0.049,0.019,0.074,0.029c0.051,0.02,0.104,0.041,0.159,0.063
		c0.015,0.005,0.028,0.011,0.042,0.017c0.059,0.023,0.12,0.048,0.182,0.071c0.021,0.009,0.043,0.018,0.064,0.025
		c0.059,0.024,0.119,0.047,0.182,0.072c0.01,0.004,0.021,0.008,0.031,0.012c0.098,0.039,0.198,0.078,0.301,0.118
		c0.057,0.021,0.111,0.044,0.17,0.066c0.053,0.021,0.109,0.043,0.164,0.065c0.037,0.013,0.07,0.027,0.105,0.041
		c0.061,0.024,0.123,0.048,0.186,0.072c0.032,0.013,0.064,0.025,0.098,0.039c0.057,0.021,0.113,0.044,0.172,0.066
		c0.045,0.019,0.09,0.035,0.135,0.054c0.057,0.021,0.114,0.044,0.172,0.066c0.035,0.014,0.071,0.028,0.105,0.042
		c0.068,0.026,0.136,0.052,0.205,0.079c0.047,0.02,0.096,0.038,0.144,0.056c0.046,0.019,0.091,0.036,0.138,0.055
		c0.086,0.032,0.17,0.065,0.258,0.1c0.019,0.008,0.037,0.015,0.057,0.022c0.089,0.034,0.179,0.069,0.27,0.104
		c0.028,0.011,0.055,0.022,0.084,0.033c0.068,0.026,0.137,0.053,0.207,0.08c0.067,0.026,0.135,0.053,0.203,0.079
		c1.189,0.462,2.502,0.967,3.872,1.487c0.003,0.001,0.005,0.003,0.007,0.003c0.139,0.054,0.277,0.106,0.416,0.158l0.002,0.001
		c0.133,0.05,0.264,0.101,0.397,0.151c0.021,0.007,0.041,0.015,0.062,0.023c0.125,0.047,0.25,0.095,0.377,0.142l0.032,0.013
		c0.136,0.051,0.273,0.104,0.41,0.154c0.002,0.001,0.004,0.002,0.006,0.002c0.136,0.052,0.273,0.103,0.41,0.155
		c0.013,0.005,0.026,0.01,0.038,0.014c0.126,0.048,0.253,0.095,0.38,0.144c0.021,0.008,0.043,0.016,0.065,0.023
		c0.121,0.046,0.244,0.092,0.367,0.138c0.021,0.009,0.043,0.017,0.065,0.024l0.36,0.134c0.025,0.01,0.053,0.021,0.078,0.03
		c0.119,0.044,0.24,0.089,0.359,0.133c0.024,0.009,0.049,0.018,0.074,0.028c0.113,0.042,0.229,0.084,0.342,0.126
		c0.034,0.013,0.068,0.025,0.102,0.038c0.111,0.041,0.222,0.082,0.332,0.122c0.033,0.012,0.065,0.023,0.098,0.035
		c0.111,0.041,0.221,0.082,0.331,0.122c0.036,0.014,0.069,0.026,0.104,0.039c0.109,0.04,0.217,0.079,0.326,0.119
		c0.034,0.013,0.068,0.025,0.104,0.038c0.107,0.039,0.214,0.078,0.32,0.117c0.037,0.013,0.073,0.025,0.109,0.04
		c0.104,0.037,0.205,0.074,0.307,0.11c0.041,0.016,0.082,0.03,0.123,0.046c0.102,0.036,0.201,0.071,0.301,0.107
		c0.041,0.015,0.082,0.03,0.121,0.044c0.102,0.037,0.203,0.073,0.305,0.11c0.039,0.013,0.078,0.026,0.115,0.041
		c0.094,0.034,0.187,0.067,0.279,0.1c0.049,0.018,0.096,0.034,0.145,0.052c0.093,0.033,0.185,0.065,0.277,0.099
		c0.043,0.015,0.086,0.031,0.131,0.046c0.103,0.037,0.205,0.073,0.308,0.11c0.032,0.011,0.063,0.021,0.094,0.032
		c0.097,0.034,0.193,0.068,0.29,0.103c0.041,0.014,0.081,0.028,0.122,0.042c0.083,0.03,0.165,0.058,0.248,0.087
		c0.051,0.018,0.103,0.036,0.151,0.053c0.086,0.03,0.172,0.061,0.257,0.089c0.044,0.016,0.089,0.031,0.133,0.047
		c0.081,0.027,0.161,0.055,0.241,0.082c0.05,0.018,0.101,0.035,0.15,0.053c0.075,0.024,0.149,0.051,0.225,0.076
		c0.051,0.018,0.103,0.034,0.152,0.053c0.078,0.025,0.153,0.051,0.229,0.077c0.048,0.016,0.097,0.032,0.146,0.049
		c0.123,0.041,0.243,0.082,0.363,0.122c0.238,0.079,0.469,0.166,0.693,0.26c0.003,0.001,0.007,0.003,0.011,0.004
		c0.22,0.092,0.433,0.191,0.638,0.296c0.008,0.003,0.016,0.006,0.022,0.01c0.202,0.104,0.399,0.214,0.589,0.328
		c0.01,0.005,0.02,0.011,0.029,0.017c0.187,0.113,0.367,0.232,0.543,0.356c0.011,0.008,0.021,0.016,0.033,0.023
		c0.172,0.122,0.34,0.251,0.502,0.382c0.011,0.01,0.023,0.019,0.035,0.029c0.159,0.131,0.313,0.267,0.463,0.405
		c0.012,0.012,0.023,0.022,0.035,0.033c0.147,0.14,0.291,0.283,0.428,0.429c0.012,0.013,0.022,0.023,0.033,0.034
		c0.139,0.148,0.27,0.3,0.397,0.452c0.01,0.011,0.019,0.022,0.028,0.033c0.127,0.155,0.25,0.313,0.369,0.473
		c0.008,0.01,0.015,0.021,0.021,0.03c0.12,0.163,0.234,0.328,0.344,0.495c0.006,0.007,0.01,0.014,0.016,0.021
		c0.111,0.17,0.218,0.343,0.32,0.517c0.002,0.004,0.004,0.008,0.006,0.012c1.158,1.974,1.621,4.133,1.892,5.764v9.458h-95.526
		V403.646z"/>
	<polygon clip-path="url(#SVGID_6_)" fill="#F8D012" points="255.08,379.355 268.381,386.134 264.826,388.908 271.086,395.462 
		257.786,388.684 261.34,385.908 	"/>
</g>
<path fill="#191818" d="M367.421,307.61l3.394,5.225c-3.477,4.13-6.325,10.43-6.393,19.499l-0.001,0.06v0.03l-0.001,0.024
	l-0.002,0.172v0.04v0.039v71.372c-0.436,2.981-4.16,22.673-27.061,29.098c-5.879,1.649-21.528,6.528-31.393,14.107
	c-5.685-4.468-15.25-9.593-31.342-14.107c-22.9-6.425-26.624-26.116-27.061-29.098V332.66l-0.002-0.267v-0.068
	c-0.067-9.064-2.916-15.362-6.392-19.49l3.392-5.225h28.033h23.781h9.198h33.815H367.421 M371.965,299.244h-32.576h-33.815h-9.198
	h-23.781h-32.576l-10.032,15.454c0,0,9.099,2.806,9.209,17.689c0.001,0.091,0.003,0.181,0.003,0.272v71.94
	c0,0,2.764,28.095,33.166,36.624c29.393,8.245,33.383,17.896,33.615,18.528c0.008,0.022,0.012,0.033,0.012,0.033
	s3.225-10.034,33.627-18.562c30.402-8.529,33.167-36.624,33.167-36.624v-71.901c0-0.013,0.001-0.025,0.001-0.039
	c0-0.092,0.002-0.182,0.003-0.272c0.11-14.884,9.21-17.689,9.21-17.689L371.965,299.244z"/>
</svg>
