<?xml version="1.0" encoding="utf-8"?>
<!-- Generator: Adobe Illustrator 16.0.0, SVG Export Plug-In . SVG Version: 6.00 Build 0)  -->
<!DOCTYPE svg PUBLIC "-//W3C//DTD SVG 1.1//EN" "http://www.w3.org/Graphics/SVG/1.1/DTD/svg11.dtd">
<svg version="1.1" id="Layer_1" xmlns="http://www.w3.org/2000/svg" xmlns:xlink="http://www.w3.org/1999/xlink" x="0px" y="0px"
	 width="612px" height="792px" viewBox="0 0 612 792" enable-background="new 0 0 612 792" xml:space="preserve">
<path fill="#010101" d="M380.561,460.246c-0.916-0.017-1.783-0.026-2.638,0.015c3.211-4.571,2.291-10.163,4.058-15.119l-0.017-0.219
	c-5.329,2.008-8.124,6.7-10.731,11.656c-1.86,3.593-3.683,7.274-6.339,9.994c1.109,0.08,2.153,0.229,3.234,0.389
	c1.122,0.163,2.276,0.386,3.435,0.691c2.307,0.136,4.581,0.238,6.733,0.167c4.034-0.171,7.794-0.854,11.036-2.605
	c1.502-0.799,2.902-1.85,4.131-3.161c-0.949-0.154-1.992-0.342-3.028-0.524C387.171,460.975,383.736,460.404,380.561,460.246"/>
<path fill="#010101" d="M393.561,442.415c-1.494-5.036-4.273-10.122-3.865-15.641l-0.142-0.219l-0.374,0.165
	c-0.045,0.035-0.097,0.107-0.101,0.144c-0.292,0.5-0.601,0.786-1.136,1.3c-3.806,6.707-3.23,14.78-1.275,21.92
	c0.32,1.177,0.652,2.295,1.063,3.426c3.422-2.677,7.644-3.359,11.442-5.307c0.341-0.207,0.676-0.37,1.029-0.582
	c3.659-2.641,5.886-7.007,6.842-11.183c-2.373,0.757-4.701,1.368-6.877,2.186C397.822,439.471,395.559,440.612,393.561,442.415"/>
<path fill="#010101" d="M217.477,419.527c0.117,1.752,0.69,3.561,0.63,5.436c-0.208,0.813-0.353,1.625-0.512,2.453
	c-0.499,2.184-1.119,4.204-2.547,5.304c-1.65-2.336-3.224-4.858-3.979-7.992c-0.23-2.088-0.104-4.092,0.351-6.048
	c0.698-3.078,2.195-5.973,4.379-8.6c0.069-0.092,0.125-0.13,0.158-0.196l0.408-0.073c-0.051,0.282-0.077,0.594-0.112,0.912
	C216.012,413.678,216.72,416.395,217.477,419.527"/>
<path fill="#010101" d="M395.307,419.527c-0.117,1.752-0.691,3.561-0.63,5.436c0.208,0.813,0.352,1.625,0.512,2.453
	c0.499,2.184,1.119,4.204,2.547,5.304c1.651-2.336,3.224-4.858,3.98-7.992c0.229-2.088,0.103-4.092-0.352-6.048
	c-0.698-3.078-2.194-5.973-4.379-8.6c-0.069-0.092-0.125-0.13-0.157-0.196l-0.408-0.073c0.051,0.282,0.076,0.594,0.111,0.912
	C396.771,413.678,396.063,416.395,395.307,419.527"/>
<path fill="#010101" d="M231.831,460.246c0.916-0.017,1.783-0.026,2.638,0.015c-3.211-4.571-2.29-10.163-4.059-15.119l0.018-0.219
	c5.329,2.008,8.124,6.7,10.73,11.656c1.861,3.593,3.684,7.274,6.339,9.994c-1.109,0.08-2.153,0.229-3.234,0.389
	c-1.122,0.163-2.275,0.386-3.436,0.691c-2.306,0.136-4.581,0.238-6.731,0.167c-4.035-0.171-7.795-0.854-11.037-2.605
	c-1.502-0.799-2.902-1.85-4.131-3.161c0.949-0.154,1.992-0.342,3.028-0.524C225.222,460.975,228.654,460.404,231.831,460.246"/>
<path fill="#010101" d="M218.831,442.415c1.494-5.036,4.274-10.122,3.865-15.641l0.142-0.219l0.374,0.165
	c0.045,0.035,0.097,0.107,0.101,0.144c0.292,0.5,0.601,0.786,1.136,1.3c3.805,6.707,3.23,14.78,1.276,21.92
	c-0.321,1.177-0.654,2.295-1.063,3.426c-3.423-2.677-7.644-3.359-11.442-5.307c-0.341-0.207-0.676-0.37-1.029-0.582
	c-3.66-2.641-5.886-7.007-6.841-11.183c2.373,0.757,4.7,1.368,6.876,2.186C214.569,439.471,216.833,440.612,218.831,442.415"/>
<rect x="261.344" y="426.861" fill="#010101" width="85" height="43.667"/>
<polygon fill="#010101" points="334.645,456.025 360.481,447.046 347.408,437.266 295.9,461.528 "/>
<polygon fill="#010101" points="307.9,462.528 251.206,447.046 264.278,437.266 312.4,459.028 "/>
<polygon fill="#FFFFFF" points="358.158,478.863 305.864,493.046 253.571,477.358 253.571,449.837 305.864,459.525 358.158,449.837 
	"/>
<polygon fill="none" stroke="#010101" stroke-width="4.515" stroke-miterlimit="10" points="358.158,478.863 305.864,491.646 
	253.571,478.863 253.571,449.837 305.864,458.62 358.158,449.837 "/>
<path fill="#FECF0A" d="M306.184,332.388h-66.784c0.001,0.091,0.003,0.181,0.003,0.272v71.94c0,0,2.763,28.095,33.166,36.624
	c29.392,8.245,33.382,17.896,33.615,18.529c0.008,0.021,0.012,0.032,0.012,0.032s3.224-10.034,33.627-18.562
	c30.402-8.529,33.166-36.624,33.166-36.624v-71.901c0-0.013,0.001-0.025,0.001-0.039c0-0.092,0.002-0.182,0.003-0.272H306.184z"/>
<g opacity="0.5">
	<g>
		<defs>
			<rect id="SVGID_1_" x="306.18" y="332.39" width="66.811" height="127.4"/>
		</defs>
		<clipPath id="SVGID_2_">
			<use xlink:href="#SVGID_1_"  overflow="visible"/>
		</clipPath>
		<path clip-path="url(#SVGID_2_)" fill="#CDA72C" d="M339.822,441.224c30.402-8.528,33.166-36.624,33.166-36.624v-71.9
			c0-0.014,0.001-0.026,0.001-0.039c0-0.092,0.002-0.182,0.003-0.273h-66.809v127.366c0.008,0.022,0.012,0.034,0.012,0.034
			S309.419,449.753,339.822,441.224"/>
	</g>
</g>
<path fill="#191818" d="M367.625,307.61l3.394,5.225c-2.296,2.726-4.317,6.396-5.445,11.187H246.817
	c-1.128-4.79-3.148-8.461-5.444-11.187l3.392-5.225h28.033h23.781h9.198h33.816H367.625 M372.169,299.244h-32.575h-33.816h-9.198
	h-23.781h-32.576l-10.034,15.454c0,0,9.1,2.806,9.211,17.689h133.593c0.11-14.884,9.211-17.689,9.211-17.689L372.169,299.244z"/>
<g opacity="0.4">
	<g>
		<defs>
			<rect id="SVGID_3_" x="230.19" y="299.24" width="152.01" height="160.55"/>
		</defs>
		<clipPath id="SVGID_4_">
			<use xlink:href="#SVGID_3_"  overflow="visible"/>
		</clipPath>
		<path clip-path="url(#SVGID_4_)" fill="#FFFFFF" d="M364.198,313.041c-2.641,4.354-4.928,10.602-5.003,19.224l-0.001,0.03
			l-0.002,0.295l-0.001,0.055v0.055v70.951c-0.223,1.223-1.068,5.082-3.447,9.367c-4.106,7.396-10.718,12.417-19.648,14.923
			c-13.944,3.912-23.452,8.354-29.929,12.659c-6.466-4.301-15.954-8.755-29.872-12.659c-8.597-2.412-15.05-7.16-19.184-14.113
			c-2.709-4.559-3.653-8.787-3.913-10.226V332.66l-0.003-0.376c-0.063-8.624-2.354-14.881-5.003-19.243h24.606h23.781h9.198h33.816
			H364.198 M372.169,299.244h-32.575h-33.816h-9.198h-23.781h-32.576l-10.034,15.454c0,0,9.1,2.806,9.211,17.689
			c0,0.091,0.002,0.181,0.002,0.272v71.94c0,0,2.764,28.095,33.166,36.624c29.394,8.245,33.383,17.896,33.616,18.528
			c0.008,0.022,0.011,0.033,0.011,0.033s3.226-10.034,33.628-18.562c30.402-8.529,33.166-36.624,33.166-36.624v-71.901
			c0-0.013,0.001-0.025,0.001-0.039c0-0.092,0.003-0.182,0.003-0.272c0.11-14.884,9.211-17.689,9.211-17.689L372.169,299.244z"/>
	</g>
</g>
<path fill="#1A1A19" d="M382.203,314.698l-10.035-15.454h-32.574h-33.816h-9.198h-23.781h-32.576l-10.034,15.454
	c0,0,9.1,2.807,9.211,17.688v7.526h133.593v-7.526C373.103,317.505,382.203,314.698,382.203,314.698"/>
<polygon fill="#FFFFFF" points="264.863,328.387 270.884,311.858 262.575,311.858 262.575,308.306 275.46,308.306 275.46,311.105 
	269.229,328.387 "/>
<path fill="#FFFFFF" d="M284.127,328.387v-20.081h6.473c5.539,0,8.731,4.155,8.731,10.056s-3.162,10.025-8.731,10.025H284.127z
	 M295.207,318.361c0-3.975-1.566-6.503-4.606-6.503h-2.439v12.976h2.439C293.58,324.834,295.207,322.185,295.207,318.361"/>
<path fill="#FFFFFF" d="M312.033,328.387l-0.934-3.553h-6.172l-0.933,3.553h-4.365l5.961-20.081h4.876l5.961,20.081H312.033z
	 M308.029,312.551l-2.289,8.73h4.576L308.029,312.551z"/>
<polygon fill="#FFFFFF" points="321.032,328.387 321.032,320.107 314.83,308.306 319.286,308.306 323.049,316.374 326.813,308.306 
	331.268,308.306 325.066,320.107 325.066,328.387 "/>
<path fill="#FFFFFF" d="M331.236,326.158l1.986-3.101c1.114,1.234,2.86,2.138,4.848,2.138c1.775,0,2.739-0.994,2.739-2.229
	c0-3.521-8.972-2.317-8.972-9.121c0-3.162,2.469-5.871,6.623-5.871c2.439,0,4.547,0.783,6.082,2.228l-1.927,3.011
	c-1.205-1.144-2.74-1.686-4.305-1.686c-1.446,0-2.349,0.813-2.349,2.047c0,3.131,8.941,2.288,8.941,9.063
	c0,3.521-2.409,6.111-6.805,6.111C335.06,328.748,332.831,327.754,331.236,326.158"/>
<polygon fill="#1A1A19" points="290.118,480.976 290.118,468.629 287.594,471.253 285.669,469.229 290.568,464.305 293.492,464.305 
	293.492,480.976 "/>
<path fill="#1A1A19" d="M295.769,472.652c0-4.299,1.774-8.598,5.898-8.598c4.149,0,5.899,4.299,5.899,8.598
	c0,4.273-1.726,8.623-5.899,8.623C297.543,481.275,295.769,476.926,295.769,472.652 M304.167,472.652c0-3.225-0.55-5.623-2.5-5.623
	c-1.924,0-2.474,2.398-2.474,5.623c0,3.199,0.55,5.648,2.474,5.648C303.617,478.301,304.167,475.852,304.167,472.652"/>
<polygon fill="#1A1A19" points="318.241,480.976 314.393,474.453 313.218,476.302 313.218,480.976 309.868,480.976 309.868,464.305 
	313.218,464.305 313.218,471.877 317.916,464.305 321.815,464.305 316.491,472.152 322.19,480.976 "/>
<g>
	<defs>
		<path id="SVGID_5_" d="M306.121,332.591h-66.222c0.002,0.089,0.004,0.177,0.004,0.27v71.335c0,0,2.74,27.856,32.886,36.313
			c29.144,8.177,33.101,17.746,33.332,18.373c0.008,0.021,0.012,0.033,0.012,0.033s3.197-9.95,33.344-18.406
			c30.146-8.457,32.887-36.313,32.887-36.313v-71.296c0-0.013,0-0.027,0-0.039c0-0.093,0.002-0.181,0.004-0.27H306.121z"/>
	</defs>
	<clipPath id="SVGID_6_">
		<use xlink:href="#SVGID_5_"  overflow="visible"/>
	</clipPath>
	<g opacity="0.5" clip-path="url(#SVGID_6_)">
		<g>
			<defs>
				<rect id="SVGID_7_" x="238.58" y="399.87" width="130.76" height="27.61"/>
			</defs>
			<clipPath id="SVGID_8_">
				<use xlink:href="#SVGID_7_"  overflow="visible"/>
			</clipPath>
			<path clip-path="url(#SVGID_8_)" fill="#CDA72C" d="M355.338,399.87c0,0-9.745,8.382-7.762,7.194c0,0-1.288,7.67-7.591,7.401
				c-6.304-0.267-8.125,9.171-7.882,11.126c0,0,3.949-4.619,10.467-2.967c6.516,1.654,10.057-2.413,10.935-3.702
				c0,0-2.33,7.688-6.849,8.269c0,0,11.193,2.166,15.589-5.346c4.395-7.514,6.612-16.36,7.084-17.155
				C369.8,403.896,355.338,399.87,355.338,399.87"/>
			<path clip-path="url(#SVGID_8_)" fill="#CDA72C" d="M342.516,421.278c0,0-7.976,1.536-6.609,1.02c0,0-4.302-2.372-6.643,0.854
				c-2.342,3.226-7.73,0.425-8.603-0.463c0,0,3.837-0.144,5.576-4.02c1.738-3.875,5.142-4.033,6.124-3.961
				c0,0-4.72-1.863-6.781,0.146c0,0,3.32-6.393,8.764-5.62c5.445,0.771,10.696,3.145,11.275,3.224
				C346.197,412.537,342.516,421.278,342.516,421.278"/>
			<path clip-path="url(#SVGID_8_)" fill="#CDA72C" d="M323.003,399.87c0,0-9.745,8.382-7.763,7.194c0,0-1.287,7.67-7.591,7.401
				c-6.302-0.267-8.125,9.171-7.881,11.126c0,0,3.949-4.619,10.466-2.967c6.516,1.654,10.057-2.413,10.936-3.702
				c0,0-2.33,7.688-6.85,8.269c0,0,11.194,2.166,15.59-5.346c4.395-7.514,6.612-16.36,7.084-17.155
				C337.465,403.896,323.003,399.87,323.003,399.87"/>
			<path clip-path="url(#SVGID_8_)" fill="#CDA72C" d="M310.18,421.278c0,0-7.975,1.536-6.608,1.02c0,0-4.303-2.372-6.644,0.854
				c-2.341,3.226-7.73,0.425-8.602-0.463c0,0,3.837-0.144,5.576-4.02c1.738-3.875,5.142-4.033,6.124-3.961
				c0,0-4.72-1.863-6.781,0.146c0,0,3.319-6.393,8.765-5.62c5.444,0.771,10.695,3.145,11.273,3.224
				C313.861,412.537,310.18,421.278,310.18,421.278"/>
			<path clip-path="url(#SVGID_8_)" fill="#CDA72C" d="M297.632,399.87c0,0-9.745,8.382-7.762,7.194c0,0-1.288,7.67-7.591,7.401
				c-6.303-0.267-8.125,9.171-7.882,11.126c0,0,3.95-4.619,10.467-2.967c6.516,1.654,10.057-2.413,10.935-3.702
				c0,0-2.33,7.688-6.849,8.269c0,0,11.194,2.166,15.589-5.346c4.395-7.514,6.613-16.36,7.084-17.155
				C312.094,403.896,297.632,399.87,297.632,399.87"/>
			<path clip-path="url(#SVGID_8_)" fill="#CDA72C" d="M284.81,421.278c0,0-7.976,1.536-6.609,1.02c0,0-4.302-2.372-6.643,0.854
				c-2.341,3.226-7.73,0.425-8.603-0.463c0,0,3.838-0.144,5.577-4.02c1.738-3.875,5.142-4.033,6.124-3.961
				c0,0-4.72-1.863-6.781,0.146c0,0,3.32-6.393,8.764-5.62c5.445,0.771,10.696,3.145,11.275,3.224
				C288.491,412.537,284.81,421.278,284.81,421.278"/>
			<path clip-path="url(#SVGID_8_)" fill="#CDA72C" d="M273.256,399.87c0,0-9.745,8.382-7.762,7.194c0,0-1.288,7.67-7.591,7.401
				c-6.302-0.267-8.125,9.171-7.881,11.126c0,0,3.949-4.619,10.466-2.967c6.516,1.654,10.057-2.413,10.935-3.702
				c0,0-2.33,7.688-6.849,8.269c0,0,11.194,2.166,15.589-5.346c4.395-7.514,6.613-16.36,7.084-17.155
				C287.718,403.896,273.256,399.87,273.256,399.87"/>
			<path clip-path="url(#SVGID_8_)" fill="#CDA72C" d="M260.434,421.278c0,0-7.976,1.536-6.608,1.02c0,0-4.303-2.372-6.644,0.854
				c-2.341,3.226-7.73,0.425-8.602-0.463c0,0,3.837-0.144,5.576-4.02c1.738-3.875,5.142-4.033,6.124-3.961
				c0,0-4.72-1.863-6.781,0.146c0,0,3.32-6.393,8.765-5.62c5.444,0.771,10.695,3.145,11.274,3.224
				C264.115,412.537,260.434,421.278,260.434,421.278"/>
		</g>
	</g>
	<path clip-path="url(#SVGID_6_)" fill="#FFFFFF" d="M268.646,403.646l0.161-5.136l1.02-15.3l0.372-5.574l0.52-7.803l0.173-2.601
		h23.409c0-5.201,5.202-7.803,5.202-7.803l2.288,1.716l1.874,1.405l0.832,0.624l3.901,2.926l26.825,18.854l0.694,0.485
		c0,0,0.578,0.231,1.564,0.621c0.003,0.001,0.007,0.002,0.01,0.004c0.055,0.021,0.109,0.043,0.166,0.065
		c0.023,0.009,0.049,0.019,0.073,0.029c0.052,0.02,0.105,0.041,0.16,0.063c0.014,0.005,0.028,0.011,0.042,0.017
		c0.059,0.023,0.119,0.048,0.181,0.071c0.021,0.009,0.044,0.018,0.064,0.025c0.06,0.024,0.12,0.047,0.182,0.072
		c0.011,0.004,0.022,0.008,0.032,0.012c0.098,0.039,0.198,0.078,0.301,0.118c0.057,0.021,0.111,0.044,0.169,0.066
		c0.054,0.021,0.11,0.043,0.165,0.065c0.035,0.013,0.069,0.027,0.105,0.041c0.061,0.024,0.123,0.048,0.185,0.072
		c0.033,0.013,0.065,0.025,0.099,0.039c0.056,0.021,0.113,0.044,0.172,0.066c0.045,0.019,0.09,0.035,0.135,0.054
		c0.057,0.021,0.114,0.044,0.172,0.066c0.035,0.014,0.071,0.028,0.107,0.042c0.066,0.026,0.134,0.052,0.203,0.079
		c0.047,0.02,0.096,0.038,0.144,0.056c0.046,0.019,0.092,0.036,0.138,0.055c0.085,0.032,0.17,0.065,0.256,0.1
		c0.021,0.008,0.039,0.015,0.059,0.022c0.089,0.034,0.179,0.069,0.269,0.104c0.028,0.011,0.056,0.022,0.084,0.033
		c0.069,0.026,0.138,0.053,0.207,0.08c0.068,0.026,0.136,0.053,0.204,0.079c1.189,0.462,2.501,0.967,3.871,1.487
		c0.003,0.001,0.005,0.003,0.008,0.003c0.139,0.054,0.277,0.106,0.416,0.158l0.002,0.001c0.131,0.05,0.264,0.101,0.397,0.151
		c0.02,0.007,0.041,0.015,0.062,0.023c0.125,0.047,0.25,0.095,0.376,0.142l0.033,0.013c0.136,0.051,0.273,0.104,0.41,0.154
		c0.002,0.001,0.003,0.002,0.005,0.002c0.137,0.052,0.274,0.103,0.411,0.155c0.013,0.005,0.024,0.01,0.038,0.014
		c0.126,0.048,0.253,0.095,0.38,0.144c0.021,0.008,0.043,0.016,0.065,0.023c0.121,0.046,0.244,0.092,0.367,0.138
		c0.021,0.009,0.043,0.017,0.065,0.024c0.12,0.045,0.24,0.09,0.36,0.134c0.025,0.01,0.053,0.021,0.078,0.03
		c0.119,0.044,0.239,0.089,0.358,0.133c0.025,0.009,0.05,0.018,0.075,0.028c0.113,0.042,0.228,0.084,0.342,0.126l0.102,0.038
		c0.11,0.041,0.222,0.082,0.332,0.122c0.032,0.012,0.065,0.023,0.098,0.035c0.111,0.041,0.221,0.082,0.331,0.122l0.104,0.039
		c0.109,0.04,0.217,0.079,0.326,0.119c0.034,0.013,0.068,0.025,0.104,0.038c0.106,0.039,0.214,0.078,0.32,0.117
		c0.037,0.013,0.073,0.025,0.109,0.04c0.103,0.037,0.205,0.074,0.307,0.11c0.041,0.016,0.082,0.03,0.124,0.046
		c0.101,0.036,0.2,0.071,0.3,0.107c0.041,0.015,0.082,0.03,0.121,0.044c0.102,0.037,0.203,0.073,0.305,0.11
		c0.039,0.013,0.076,0.026,0.115,0.041c0.094,0.034,0.187,0.067,0.279,0.1c0.048,0.018,0.096,0.034,0.145,0.052
		c0.093,0.033,0.185,0.065,0.276,0.099c0.043,0.015,0.087,0.031,0.131,0.046c0.104,0.037,0.206,0.073,0.309,0.11
		c0.03,0.011,0.063,0.021,0.094,0.032c0.097,0.034,0.193,0.068,0.29,0.103c0.04,0.014,0.081,0.028,0.121,0.042
		c0.084,0.03,0.166,0.058,0.249,0.087c0.051,0.018,0.102,0.036,0.151,0.053c0.086,0.03,0.172,0.061,0.257,0.089
		c0.044,0.016,0.089,0.031,0.133,0.047c0.081,0.027,0.161,0.055,0.241,0.082c0.05,0.018,0.1,0.035,0.149,0.053
		c0.076,0.024,0.15,0.051,0.226,0.076c0.051,0.018,0.102,0.034,0.152,0.053c0.077,0.025,0.153,0.051,0.229,0.077
		c0.048,0.016,0.097,0.032,0.145,0.049c0.123,0.041,0.244,0.082,0.364,0.122c0.238,0.079,0.469,0.166,0.691,0.26
		c0.005,0.001,0.009,0.003,0.013,0.004c0.22,0.092,0.432,0.191,0.638,0.296c0.008,0.003,0.016,0.006,0.022,0.01
		c0.202,0.104,0.398,0.214,0.589,0.328c0.01,0.005,0.019,0.011,0.029,0.017c0.187,0.113,0.367,0.232,0.543,0.356
		c0.011,0.008,0.021,0.016,0.033,0.023c0.172,0.122,0.34,0.251,0.502,0.382c0.011,0.01,0.022,0.019,0.034,0.029
		c0.16,0.131,0.314,0.267,0.464,0.405c0.012,0.012,0.023,0.022,0.034,0.033c0.149,0.14,0.291,0.283,0.429,0.429
		c0.012,0.013,0.022,0.023,0.033,0.034c0.137,0.148,0.27,0.3,0.397,0.452c0.009,0.011,0.019,0.022,0.028,0.033
		c0.127,0.155,0.25,0.313,0.369,0.473c0.008,0.01,0.015,0.021,0.021,0.03c0.12,0.163,0.234,0.328,0.344,0.495
		c0.005,0.007,0.01,0.014,0.016,0.021c0.11,0.17,0.218,0.343,0.319,0.517c0.002,0.004,0.005,0.008,0.007,0.012
		c1.157,1.974,1.62,4.133,1.893,5.764v9.458h-95.527V403.646z"/>
	<path clip-path="url(#SVGID_6_)" fill="#F8D012" d="M338.076,399.269l-43.409-30.932l4.507-7.193l11.639,9.148l27.282,18.479
		l0.746,0.507c0,0,2.848,1.103,6.744,2.561l0.008,0.032L338.076,399.269z"/>
	<path clip-path="url(#SVGID_6_)" fill="#F8D012" d="M335.939,386.521c0.563,0.227,13.158,5.253,20.785,7.795
		c3.854,1.285,5.804,4.472,6.789,7.369h-38.678L335.939,386.521z"/>
	<polygon clip-path="url(#SVGID_6_)" fill="#191818" points="310.973,369.268 304.027,375.413 307.528,366.824 	"/>
	<polygon clip-path="url(#SVGID_6_)" fill="#191818" points="317.51,373.925 310.563,380.069 314.064,371.481 	"/>
	
		<line clip-path="url(#SVGID_6_)" fill="none" stroke="#191818" stroke-width="2.148" stroke-miterlimit="10" x1="363.515" y1="402.491" x2="268.646" y2="402.491"/>
	<polygon clip-path="url(#SVGID_6_)" fill="#191818" points="324.046,378.581 317.1,384.727 320.601,376.139 	"/>
	<polygon clip-path="url(#SVGID_6_)" fill="#191818" points="330.582,383.238 323.637,389.383 327.137,380.795 	"/>
	<polygon clip-path="url(#SVGID_6_)" fill="#191818" points="337.119,387.896 330.173,394.04 333.674,385.452 	"/>
	<path clip-path="url(#SVGID_6_)" fill="none" stroke="#191818" stroke-width="4.296" stroke-miterlimit="10" d="M268.646,403.646
		l0.161-5.136l1.02-15.3l0.372-5.574l0.52-7.803l0.173-2.601h23.409c0-5.201,5.202-7.803,5.202-7.803l2.288,1.716l1.874,1.405
		l0.832,0.624l3.901,2.926l26.825,18.854l0.694,0.485c0,0,0.578,0.231,1.564,0.621c0.003,0.001,0.007,0.002,0.01,0.004
		c0.055,0.021,0.109,0.043,0.166,0.065c0.023,0.009,0.049,0.019,0.073,0.029c0.052,0.02,0.105,0.041,0.16,0.063
		c0.014,0.005,0.028,0.011,0.042,0.017c0.059,0.023,0.119,0.048,0.181,0.071c0.021,0.009,0.044,0.018,0.064,0.025
		c0.06,0.024,0.12,0.047,0.182,0.072c0.011,0.004,0.022,0.008,0.032,0.012c0.098,0.039,0.198,0.078,0.301,0.118
		c0.057,0.021,0.111,0.044,0.169,0.066c0.054,0.021,0.11,0.043,0.165,0.065c0.035,0.013,0.069,0.027,0.105,0.041
		c0.061,0.024,0.123,0.048,0.185,0.072c0.033,0.013,0.065,0.025,0.099,0.039c0.056,0.021,0.113,0.044,0.172,0.066
		c0.045,0.019,0.09,0.035,0.135,0.054c0.057,0.021,0.114,0.044,0.172,0.066c0.035,0.014,0.071,0.028,0.107,0.042
		c0.066,0.026,0.134,0.052,0.203,0.079c0.047,0.02,0.096,0.038,0.144,0.056c0.046,0.019,0.092,0.036,0.138,0.055
		c0.085,0.032,0.17,0.065,0.256,0.1c0.021,0.008,0.039,0.015,0.059,0.022c0.089,0.034,0.179,0.069,0.269,0.104
		c0.028,0.011,0.056,0.022,0.084,0.033c0.069,0.026,0.138,0.053,0.207,0.08c0.068,0.026,0.136,0.053,0.204,0.079
		c1.189,0.462,2.501,0.967,3.871,1.487c0.003,0.001,0.005,0.003,0.008,0.003c0.139,0.054,0.277,0.106,0.416,0.158l0.002,0.001
		c0.131,0.05,0.264,0.101,0.397,0.151c0.02,0.007,0.041,0.015,0.062,0.023c0.125,0.047,0.25,0.095,0.376,0.142l0.033,0.013
		c0.136,0.051,0.273,0.104,0.41,0.154c0.002,0.001,0.003,0.002,0.005,0.002c0.137,0.052,0.274,0.103,0.411,0.155
		c0.013,0.005,0.024,0.01,0.038,0.014c0.126,0.048,0.253,0.095,0.38,0.144c0.021,0.008,0.043,0.016,0.065,0.023
		c0.121,0.046,0.244,0.092,0.367,0.138c0.021,0.009,0.043,0.017,0.065,0.024c0.12,0.045,0.24,0.09,0.36,0.134
		c0.025,0.01,0.053,0.021,0.078,0.03c0.119,0.044,0.239,0.089,0.358,0.133c0.025,0.009,0.05,0.018,0.075,0.028
		c0.113,0.042,0.228,0.084,0.342,0.126l0.102,0.038c0.11,0.041,0.222,0.082,0.332,0.122c0.032,0.012,0.065,0.023,0.098,0.035
		c0.111,0.041,0.221,0.082,0.331,0.122l0.104,0.039c0.109,0.04,0.217,0.079,0.326,0.119c0.034,0.013,0.068,0.025,0.104,0.038
		c0.106,0.039,0.214,0.078,0.32,0.117c0.037,0.013,0.073,0.025,0.109,0.04c0.103,0.037,0.205,0.074,0.307,0.11
		c0.041,0.016,0.082,0.03,0.124,0.046c0.101,0.036,0.2,0.071,0.3,0.107c0.041,0.015,0.082,0.03,0.121,0.044
		c0.102,0.037,0.203,0.073,0.305,0.11c0.039,0.013,0.076,0.026,0.115,0.041c0.094,0.034,0.187,0.067,0.279,0.1
		c0.048,0.018,0.096,0.034,0.145,0.052c0.093,0.033,0.185,0.065,0.276,0.099c0.043,0.015,0.087,0.031,0.131,0.046
		c0.104,0.037,0.206,0.073,0.309,0.11c0.03,0.011,0.063,0.021,0.094,0.032c0.097,0.034,0.193,0.068,0.29,0.103
		c0.04,0.014,0.081,0.028,0.121,0.042c0.084,0.03,0.166,0.058,0.249,0.087c0.051,0.018,0.102,0.036,0.151,0.053
		c0.086,0.03,0.172,0.061,0.257,0.089c0.044,0.016,0.089,0.031,0.133,0.047c0.081,0.027,0.161,0.055,0.241,0.082
		c0.05,0.018,0.1,0.035,0.149,0.053c0.076,0.024,0.15,0.051,0.226,0.076c0.051,0.018,0.102,0.034,0.152,0.053
		c0.077,0.025,0.153,0.051,0.229,0.077c0.048,0.016,0.097,0.032,0.145,0.049c0.123,0.041,0.244,0.082,0.364,0.122
		c0.238,0.079,0.469,0.166,0.691,0.26c0.005,0.001,0.009,0.003,0.013,0.004c0.22,0.092,0.432,0.191,0.638,0.296
		c0.008,0.003,0.016,0.006,0.022,0.01c0.202,0.104,0.398,0.214,0.589,0.328c0.01,0.005,0.019,0.011,0.029,0.017
		c0.187,0.113,0.367,0.232,0.543,0.356c0.011,0.008,0.021,0.016,0.033,0.023c0.172,0.122,0.34,0.251,0.502,0.382
		c0.011,0.01,0.022,0.019,0.034,0.029c0.16,0.131,0.314,0.267,0.464,0.405c0.012,0.012,0.023,0.022,0.034,0.033
		c0.149,0.14,0.291,0.283,0.429,0.429c0.012,0.013,0.022,0.023,0.033,0.034c0.137,0.148,0.27,0.3,0.397,0.452
		c0.009,0.011,0.019,0.022,0.028,0.033c0.127,0.155,0.25,0.313,0.369,0.473c0.008,0.01,0.015,0.021,0.021,0.03
		c0.12,0.163,0.234,0.328,0.344,0.495c0.005,0.007,0.01,0.014,0.016,0.021c0.11,0.17,0.218,0.343,0.319,0.517
		c0.002,0.004,0.005,0.008,0.007,0.012c1.157,1.974,1.62,4.133,1.893,5.764v9.458h-95.527V403.646z"/>
	<path clip-path="url(#SVGID_6_)" fill="#FFFFFF" d="M227.824,403.646l0.161-5.136l1.02-15.3l0.372-5.574l0.521-7.803l0.173-2.601
		h23.409c0-5.201,5.202-7.803,5.202-7.803l2.288,1.716l1.874,1.405l0.832,0.624l3.901,2.926l26.825,18.854l0.694,0.485
		c0,0,0.578,0.231,1.565,0.621c0.003,0.001,0.007,0.002,0.01,0.004c0.054,0.021,0.109,0.043,0.165,0.065
		c0.024,0.009,0.049,0.019,0.073,0.029c0.053,0.02,0.106,0.041,0.161,0.063c0.014,0.005,0.027,0.011,0.041,0.017
		c0.06,0.023,0.12,0.048,0.182,0.071c0.021,0.009,0.043,0.018,0.064,0.025c0.06,0.024,0.12,0.047,0.182,0.072
		c0.01,0.004,0.022,0.008,0.032,0.012c0.098,0.039,0.198,0.078,0.3,0.118c0.057,0.021,0.112,0.044,0.169,0.066
		c0.055,0.021,0.111,0.043,0.166,0.065c0.035,0.013,0.069,0.027,0.105,0.041c0.061,0.024,0.123,0.048,0.185,0.072
		c0.033,0.013,0.065,0.025,0.098,0.039c0.057,0.021,0.114,0.044,0.172,0.066c0.045,0.019,0.089,0.035,0.135,0.054
		c0.057,0.021,0.114,0.044,0.172,0.066c0.035,0.014,0.071,0.028,0.105,0.042c0.067,0.026,0.135,0.052,0.203,0.079
		c0.048,0.02,0.097,0.038,0.146,0.056c0.046,0.019,0.091,0.036,0.138,0.055c0.084,0.032,0.17,0.065,0.256,0.1
		c0.021,0.008,0.039,0.015,0.058,0.022c0.089,0.034,0.179,0.069,0.269,0.104c0.028,0.011,0.056,0.022,0.084,0.033
		c0.068,0.026,0.138,0.053,0.207,0.08c0.068,0.026,0.136,0.053,0.204,0.079c1.189,0.462,2.501,0.967,3.871,1.487
		c0.003,0.001,0.005,0.003,0.008,0.003c0.138,0.054,0.277,0.106,0.416,0.158c0,0,0.001,0.001,0.002,0.001
		c0.131,0.05,0.264,0.101,0.397,0.151l0.062,0.023c0.125,0.047,0.25,0.095,0.375,0.142c0.012,0.004,0.023,0.009,0.034,0.013
		c0.136,0.051,0.273,0.104,0.409,0.154c0.002,0.001,0.004,0.002,0.006,0.002c0.137,0.052,0.274,0.103,0.411,0.155
		c0.013,0.005,0.024,0.01,0.038,0.014c0.126,0.048,0.253,0.095,0.379,0.144c0.021,0.008,0.044,0.016,0.064,0.023
		c0.123,0.046,0.246,0.092,0.369,0.138c0.021,0.009,0.043,0.017,0.064,0.024l0.36,0.134c0.026,0.01,0.052,0.021,0.079,0.03
		c0.119,0.044,0.239,0.089,0.358,0.133c0.024,0.009,0.05,0.018,0.075,0.028c0.113,0.042,0.228,0.084,0.342,0.126
		c0.034,0.013,0.068,0.025,0.102,0.038c0.11,0.041,0.221,0.082,0.331,0.122c0.033,0.012,0.065,0.023,0.099,0.035
		c0.11,0.041,0.221,0.082,0.33,0.122l0.105,0.039c0.109,0.04,0.217,0.079,0.325,0.119c0.035,0.013,0.069,0.025,0.103,0.038
		c0.108,0.039,0.215,0.078,0.322,0.117c0.036,0.013,0.073,0.025,0.109,0.04c0.103,0.037,0.205,0.074,0.307,0.11
		c0.041,0.016,0.082,0.03,0.123,0.046c0.102,0.036,0.201,0.071,0.301,0.107c0.04,0.015,0.08,0.03,0.121,0.044
		c0.102,0.037,0.203,0.073,0.305,0.11c0.038,0.013,0.076,0.026,0.115,0.041c0.094,0.034,0.187,0.067,0.278,0.1
		c0.049,0.018,0.097,0.034,0.145,0.052c0.093,0.033,0.186,0.065,0.276,0.099c0.044,0.015,0.088,0.031,0.131,0.046
		c0.104,0.037,0.207,0.073,0.309,0.11c0.031,0.011,0.063,0.021,0.095,0.032c0.097,0.034,0.192,0.068,0.29,0.103
		c0.04,0.014,0.081,0.028,0.121,0.042c0.084,0.03,0.166,0.058,0.248,0.087c0.052,0.018,0.103,0.036,0.152,0.053
		c0.086,0.03,0.171,0.061,0.256,0.089c0.045,0.016,0.09,0.031,0.133,0.047c0.082,0.027,0.16,0.055,0.241,0.082
		c0.05,0.018,0.101,0.035,0.15,0.053c0.075,0.024,0.149,0.051,0.225,0.076c0.052,0.018,0.103,0.034,0.153,0.053
		c0.077,0.025,0.152,0.051,0.229,0.077c0.049,0.016,0.098,0.032,0.146,0.049c0.123,0.041,0.244,0.082,0.364,0.122
		c0.238,0.079,0.469,0.166,0.691,0.26c0.004,0.001,0.008,0.003,0.013,0.004c0.219,0.092,0.432,0.191,0.638,0.296
		c0.007,0.003,0.015,0.006,0.021,0.01c0.203,0.104,0.399,0.214,0.59,0.328c0.01,0.005,0.019,0.011,0.028,0.017
		c0.188,0.113,0.367,0.232,0.543,0.356c0.011,0.008,0.022,0.016,0.033,0.023c0.173,0.122,0.34,0.251,0.501,0.382
		c0.012,0.01,0.024,0.019,0.036,0.029c0.16,0.131,0.313,0.267,0.463,0.405c0.013,0.012,0.024,0.022,0.035,0.033
		c0.147,0.14,0.291,0.283,0.429,0.429c0.012,0.013,0.022,0.023,0.033,0.034c0.137,0.148,0.27,0.3,0.396,0.452
		c0.01,0.011,0.02,0.022,0.028,0.033c0.128,0.155,0.251,0.313,0.369,0.473c0.007,0.01,0.015,0.021,0.022,0.03
		c0.119,0.163,0.233,0.328,0.344,0.495c0.005,0.007,0.01,0.014,0.015,0.021c0.111,0.17,0.218,0.343,0.32,0.517
		c0.002,0.004,0.005,0.008,0.007,0.012c1.157,1.974,1.619,4.133,1.891,5.764v9.458h-95.525V403.646z"/>
	<path clip-path="url(#SVGID_6_)" fill="#F8D012" d="M297.254,399.269l-43.409-30.932l4.507-7.193l11.639,9.148l27.282,18.479
		l0.747,0.507c0,0,2.847,1.103,6.744,2.561l0.007,0.032L297.254,399.269z"/>
	<path clip-path="url(#SVGID_6_)" fill="#F8D012" d="M295.116,386.521c0.564,0.227,13.159,5.253,20.786,7.795
		c3.854,1.285,5.803,4.472,6.79,7.369h-38.679L295.116,386.521z"/>
	<polygon clip-path="url(#SVGID_6_)" fill="#191818" points="270.15,369.268 263.204,375.413 266.705,366.824 	"/>
	<polygon clip-path="url(#SVGID_6_)" fill="#191818" points="276.687,373.925 269.741,380.069 273.242,371.481 	"/>
	
		<line clip-path="url(#SVGID_6_)" fill="none" stroke="#191818" stroke-width="2.148" stroke-miterlimit="10" x1="322.692" y1="402.491" x2="227.824" y2="402.491"/>
	<polygon clip-path="url(#SVGID_6_)" fill="#191818" points="283.223,378.581 276.277,384.727 279.778,376.139 	"/>
	<polygon clip-path="url(#SVGID_6_)" fill="#191818" points="289.76,383.238 282.813,389.383 286.314,380.795 	"/>
	<polygon clip-path="url(#SVGID_6_)" fill="#191818" points="296.296,387.896 289.35,394.04 292.851,385.452 	"/>
	<path clip-path="url(#SVGID_6_)" fill="none" stroke="#191818" stroke-width="4.296" stroke-miterlimit="10" d="M227.824,403.646
		l0.161-5.136l1.02-15.3l0.372-5.574l0.521-7.803l0.173-2.601h23.409c0-5.201,5.202-7.803,5.202-7.803l2.288,1.716l1.874,1.405
		l0.832,0.624l3.901,2.926l26.825,18.854l0.694,0.485c0,0,0.578,0.231,1.565,0.621c0.003,0.001,0.007,0.002,0.01,0.004
		c0.054,0.021,0.109,0.043,0.165,0.065c0.024,0.009,0.049,0.019,0.073,0.029c0.053,0.02,0.106,0.041,0.161,0.063
		c0.014,0.005,0.027,0.011,0.041,0.017c0.06,0.023,0.12,0.048,0.182,0.071c0.021,0.009,0.043,0.018,0.064,0.025
		c0.06,0.024,0.12,0.047,0.182,0.072c0.01,0.004,0.022,0.008,0.032,0.012c0.098,0.039,0.198,0.078,0.3,0.118
		c0.057,0.021,0.112,0.044,0.169,0.066c0.055,0.021,0.111,0.043,0.166,0.065c0.035,0.013,0.069,0.027,0.105,0.041
		c0.061,0.024,0.123,0.048,0.185,0.072c0.033,0.013,0.065,0.025,0.098,0.039c0.057,0.021,0.114,0.044,0.172,0.066
		c0.045,0.019,0.089,0.035,0.135,0.054c0.057,0.021,0.114,0.044,0.172,0.066c0.035,0.014,0.071,0.028,0.105,0.042
		c0.067,0.026,0.135,0.052,0.203,0.079c0.048,0.02,0.097,0.038,0.146,0.056c0.046,0.019,0.091,0.036,0.138,0.055
		c0.084,0.032,0.17,0.065,0.256,0.1c0.021,0.008,0.039,0.015,0.058,0.022c0.089,0.034,0.179,0.069,0.269,0.104
		c0.028,0.011,0.056,0.022,0.084,0.033c0.068,0.026,0.138,0.053,0.207,0.08c0.068,0.026,0.136,0.053,0.204,0.079
		c1.189,0.462,2.501,0.967,3.871,1.487c0.003,0.001,0.005,0.003,0.008,0.003c0.138,0.054,0.277,0.106,0.416,0.158
		c0,0,0.001,0.001,0.002,0.001c0.131,0.05,0.264,0.101,0.397,0.151l0.062,0.023c0.125,0.047,0.25,0.095,0.375,0.142
		c0.012,0.004,0.023,0.009,0.034,0.013c0.136,0.051,0.273,0.104,0.409,0.154c0.002,0.001,0.004,0.002,0.006,0.002
		c0.137,0.052,0.274,0.103,0.411,0.155c0.013,0.005,0.024,0.01,0.038,0.014c0.126,0.048,0.253,0.095,0.379,0.144
		c0.021,0.008,0.044,0.016,0.064,0.023c0.123,0.046,0.246,0.092,0.369,0.138c0.021,0.009,0.043,0.017,0.064,0.024l0.36,0.134
		c0.026,0.01,0.052,0.021,0.079,0.03c0.119,0.044,0.239,0.089,0.358,0.133c0.024,0.009,0.05,0.018,0.075,0.028
		c0.113,0.042,0.228,0.084,0.342,0.126c0.034,0.013,0.068,0.025,0.102,0.038c0.11,0.041,0.221,0.082,0.331,0.122
		c0.033,0.012,0.065,0.023,0.099,0.035c0.11,0.041,0.221,0.082,0.33,0.122l0.105,0.039c0.109,0.04,0.217,0.079,0.325,0.119
		c0.035,0.013,0.069,0.025,0.103,0.038c0.108,0.039,0.215,0.078,0.322,0.117c0.036,0.013,0.073,0.025,0.109,0.04
		c0.103,0.037,0.205,0.074,0.307,0.11c0.041,0.016,0.082,0.03,0.123,0.046c0.102,0.036,0.201,0.071,0.301,0.107
		c0.04,0.015,0.08,0.03,0.121,0.044c0.102,0.037,0.203,0.073,0.305,0.11c0.038,0.013,0.076,0.026,0.115,0.041
		c0.094,0.034,0.187,0.067,0.278,0.1c0.049,0.018,0.097,0.034,0.145,0.052c0.093,0.033,0.186,0.065,0.276,0.099
		c0.044,0.015,0.088,0.031,0.131,0.046c0.104,0.037,0.207,0.073,0.309,0.11c0.031,0.011,0.063,0.021,0.095,0.032
		c0.097,0.034,0.192,0.068,0.29,0.103c0.04,0.014,0.081,0.028,0.121,0.042c0.084,0.03,0.166,0.058,0.248,0.087
		c0.052,0.018,0.103,0.036,0.152,0.053c0.086,0.03,0.171,0.061,0.256,0.089c0.045,0.016,0.09,0.031,0.133,0.047
		c0.082,0.027,0.16,0.055,0.241,0.082c0.05,0.018,0.101,0.035,0.15,0.053c0.075,0.024,0.149,0.051,0.225,0.076
		c0.052,0.018,0.103,0.034,0.153,0.053c0.077,0.025,0.152,0.051,0.229,0.077c0.049,0.016,0.098,0.032,0.146,0.049
		c0.123,0.041,0.244,0.082,0.364,0.122c0.238,0.079,0.469,0.166,0.691,0.26c0.004,0.001,0.008,0.003,0.013,0.004
		c0.219,0.092,0.432,0.191,0.638,0.296c0.007,0.003,0.015,0.006,0.021,0.01c0.203,0.104,0.399,0.214,0.59,0.328
		c0.01,0.005,0.019,0.011,0.028,0.017c0.188,0.113,0.367,0.232,0.543,0.356c0.011,0.008,0.022,0.016,0.033,0.023
		c0.173,0.122,0.34,0.251,0.501,0.382c0.012,0.01,0.024,0.019,0.036,0.029c0.16,0.131,0.313,0.267,0.463,0.405
		c0.013,0.012,0.024,0.022,0.035,0.033c0.147,0.14,0.291,0.283,0.429,0.429c0.012,0.013,0.022,0.023,0.033,0.034
		c0.137,0.148,0.27,0.3,0.396,0.452c0.01,0.011,0.02,0.022,0.028,0.033c0.128,0.155,0.251,0.313,0.369,0.473
		c0.007,0.01,0.015,0.021,0.022,0.03c0.119,0.163,0.233,0.328,0.344,0.495c0.005,0.007,0.01,0.014,0.015,0.021
		c0.111,0.17,0.218,0.343,0.32,0.517c0.002,0.004,0.005,0.008,0.007,0.012c1.157,1.974,1.619,4.133,1.891,5.764v9.458h-95.525
		V403.646z"/>
	<polygon clip-path="url(#SVGID_6_)" fill="#F8D012" points="255.285,379.355 268.584,386.134 265.03,388.908 271.29,395.462 
		257.991,388.684 261.545,385.908 	"/>
</g>
<path fill="#191818" d="M367.625,307.61l3.394,5.225c-3.476,4.128-6.325,10.429-6.392,19.495l-0.002,0.061v0.04v0.024l-0.002,0.165
	v0.04v0.039v71.391c-0.394,2.727-4.039,22.62-27.061,29.079c-5.879,1.649-21.529,6.528-31.393,14.107
	c-5.686-4.468-15.25-9.593-31.342-14.107c-22.9-6.425-26.624-26.116-27.06-29.098V332.66l-0.002-0.27l-0.001-0.065
	c-0.067-9.064-2.915-15.362-6.391-19.49l3.392-5.225h28.033h23.781h9.198h33.816H367.625 M372.169,299.244h-32.575h-33.816h-9.198
	h-23.781h-32.576l-10.034,15.454c0,0,9.1,2.806,9.211,17.689c0,0.091,0.002,0.181,0.002,0.272v71.94c0,0,2.764,28.095,33.166,36.624
	c29.394,8.245,33.383,17.896,33.616,18.528c0.008,0.022,0.011,0.033,0.011,0.033s3.226-10.034,33.627-18.562
	c30.403-8.529,33.167-36.624,33.167-36.624v-71.901c0-0.013,0.001-0.025,0.001-0.039c0-0.092,0.003-0.182,0.003-0.272
	c0.11-14.884,9.211-17.689,9.211-17.689L372.169,299.244z"/>
</svg>
