<?xml version="1.0" encoding="utf-8"?>
<!-- Generator: Adobe Illustrator 16.0.0, SVG Export Plug-In . SVG Version: 6.00 Build 0)  -->
<!DOCTYPE svg PUBLIC "-//W3C//DTD SVG 1.1//EN" "http://www.w3.org/Graphics/SVG/1.1/DTD/svg11.dtd">
<svg version="1.1" id="Layer_1" xmlns="http://www.w3.org/2000/svg" xmlns:xlink="http://www.w3.org/1999/xlink" x="0px" y="0px"
	 width="612px" height="792px" viewBox="0 0 612 792" enable-background="new 0 0 612 792" xml:space="preserve">
<path fill="#010101" d="M398.581,401.309c0.146,1.75-0.152,3.623,0.187,5.469c0.328,0.773,0.592,1.554,0.873,2.349
	c0.819,2.085,1.733,3.99,3.311,4.865c1.283-2.556,2.463-5.285,2.742-8.496c-0.084-2.099-0.508-4.063-1.248-5.928
	c-1.15-2.94-3.062-5.579-5.613-7.851c-0.082-0.08-0.143-0.11-0.186-0.171l-0.416-0.012c0.094,0.271,0.166,0.577,0.248,0.886
	C399.156,395.306,398.861,398.098,398.581,401.309"/>
<path fill="#010101" d="M398.779,419.089c-1.816-3.577-5.512-6.852-6.379-10.245l-0.532-0.223c-1.337,3.336-1.192,7.326-0.168,10.95
	c1.108,4.704,3.424,8.369,4.508,12.994c0.192,0.891,0.353,1.775,0.458,2.742c6.956-5.049,13.369-10.808,15.182-19.897l-12.193,6.13
	C399.491,420.692,399.162,419.854,398.779,419.089"/>
<path fill="#010101" d="M379.177,460.246c-0.916-0.017-1.783-0.026-2.638,0.015c3.211-4.571,2.289-10.164,4.058-15.119l-0.017-0.219
	c-5.33,2.008-8.125,6.7-10.731,11.657c-1.861,3.592-3.683,7.273-6.339,9.993c1.109,0.08,2.152,0.229,3.234,0.389
	c1.121,0.163,2.274,0.386,3.435,0.691c2.306,0.136,4.581,0.238,6.731,0.167c4.036-0.171,7.795-0.854,11.037-2.605
	c1.502-0.798,2.902-1.85,4.131-3.161c-0.949-0.154-1.992-0.342-3.027-0.524C385.785,460.975,382.353,460.404,379.177,460.246"/>
<path fill="#010101" d="M392.177,444.673c-1.494-5.036-4.274-10.122-3.864-15.641l-0.143-0.22l-0.375,0.165
	c-0.045,0.036-0.096,0.108-0.101,0.145c-0.292,0.501-0.601,0.786-1.136,1.3c-3.805,6.707-3.23,14.78-1.275,21.92
	c0.32,1.176,0.653,2.295,1.063,3.425c3.423-2.676,7.645-3.358,11.443-5.306c0.34-0.207,0.676-0.37,1.028-0.582
	c3.66-2.641,5.886-7.007,6.841-11.183c-2.373,0.757-4.699,1.368-6.875,2.186C396.438,441.728,394.176,442.87,392.177,444.673"/>
<path fill="#010101" d="M213.377,401.438c-0.24,1.74-0.043,3.626-0.482,5.45c-0.369,0.755-0.674,1.521-0.996,2.299
	c-0.932,2.037-1.947,3.891-3.568,4.681c-1.145-2.622-2.174-5.41-2.281-8.632c0.197-2.092,0.727-4.029,1.566-5.854
	c1.307-2.873,3.357-5.406,6.027-7.536c0.086-0.075,0.148-0.103,0.195-0.161l0.415,0.012c-0.107,0.267-0.196,0.566-0.296,0.871
	C213.127,395.414,213.271,398.217,213.377,401.438"/>
<path fill="#010101" d="M213.102,419.089c1.816-3.577,5.512-6.852,6.379-10.245l0.531-0.223c1.337,3.336,1.193,7.326,0.169,10.95
	c-1.108,4.704-3.424,8.369-4.508,12.994c-0.194,0.891-0.353,1.775-0.458,2.742c-6.957-5.049-13.37-10.808-15.182-19.897l12.193,6.13
	C212.389,420.692,212.719,419.854,213.102,419.089"/>
<path fill="#010101" d="M232.704,460.246c0.915-0.017,1.782-0.026,2.638,0.015c-3.212-4.571-2.291-10.164-4.059-15.119l0.018-0.219
	c5.329,2.008,8.124,6.7,10.73,11.657c1.861,3.592,3.684,7.273,6.34,9.993c-1.109,0.08-2.153,0.229-3.234,0.389
	c-1.122,0.163-2.275,0.386-3.436,0.691c-2.305,0.136-4.58,0.238-6.732,0.167c-4.035-0.171-7.794-0.854-11.036-2.605
	c-1.502-0.798-2.901-1.85-4.131-3.161c0.948-0.154,1.992-0.342,3.028-0.524C226.094,460.975,229.527,460.404,232.704,460.246"/>
<path fill="#010101" d="M219.704,444.673c1.493-5.036,4.274-10.122,3.864-15.641l0.143-0.22l0.374,0.165
	c0.044,0.036,0.097,0.108,0.101,0.145c0.293,0.501,0.602,0.786,1.137,1.3c3.805,6.707,3.229,14.78,1.274,21.92
	c-0.319,1.176-0.653,2.295-1.062,3.425c-3.424-2.676-7.645-3.358-11.443-5.306c-0.342-0.207-0.677-0.37-1.029-0.582
	c-3.66-2.641-5.886-7.007-6.842-11.183c2.373,0.757,4.701,1.368,6.877,2.186C215.443,441.728,217.705,442.87,219.704,444.673"/>
<path fill="#FFFFFF" d="M195.314,320.175c0.313-2.897,2.676-4.152,5.252-2.79l29.303,15.512l27.572,14.597
	c2.577,1.363,3.977,4.757,3.11,7.54l-4.099,13.18c-0.578,1.858-2.086,3.129-3.84,3.479l2.284,0.815
	c1.837,0.974,2.835,3.394,2.218,5.378l-2.972,9.538c-0.397,1.275-1.43,2.218-2.635,2.544l3.817,1.365
	c1.268,0.671,1.957,2.342,1.531,3.712l-2.119,6.77c-0.427,1.37-1.98,2.374-3.332,1.889c0,0-4.746-1.706-16.617-5.971
	c-11.871-4.267-11.633-15.437-11.633-15.437c0.073-0.68,0.401-1.237,0.86-1.564c-15.864-6.499-15.632-21.585-15.632-21.585
	c0.152-1.415,1.013-2.343,2.13-2.479C192.566,345.669,195.314,320.175,195.314,320.175"/>
<path fill="#FFFFFF" d="M416.566,320.175c-0.313-2.897-2.677-4.152-5.253-2.79l-29.302,15.512l-27.573,14.597
	c-2.577,1.363-3.976,4.757-3.11,7.54l4.099,13.18c0.578,1.858,2.085,3.129,3.839,3.479l-2.283,0.815
	c-1.837,0.974-2.836,3.394-2.218,5.378l2.972,9.538c0.397,1.275,1.43,2.218,2.635,2.544l-3.816,1.365
	c-1.268,0.671-1.957,2.342-1.531,3.712l2.119,6.77c0.426,1.37,1.98,2.374,3.331,1.889c0,0,4.747-1.706,16.617-5.971
	c11.871-4.267,11.634-15.437,11.634-15.437c-0.074-0.68-0.402-1.237-0.861-1.564c15.864-6.499,15.633-21.585,15.633-21.585
	c-0.153-1.415-1.014-2.343-2.131-2.479C419.313,345.669,416.566,320.175,416.566,320.175"/>
<polygon fill="#010101" points="204.443,349.476 252.633,378.692 202.746,352.476 "/>
<polygon fill="#010101" points="214.129,370.478 252.633,393.994 212.761,372.879 "/>
<path fill="none" stroke="#010101" stroke-width="5.77" stroke-miterlimit="10" d="M195.314,320.175
	c0.313-2.897,2.676-4.152,5.252-2.79l29.303,15.512l27.572,14.597c2.577,1.363,3.977,4.757,3.11,7.54l-4.099,13.18
	c-0.578,1.858-2.086,3.129-3.84,3.479l2.284,0.815c1.837,0.974,2.835,3.394,2.218,5.378l-2.972,9.538
	c-0.397,1.275-1.43,2.218-2.635,2.544l3.817,1.365c1.268,0.671,1.957,2.342,1.531,3.712l-2.119,6.77
	c-0.427,1.37-1.98,2.374-3.332,1.889c0,0-4.746-1.706-16.617-5.971c-11.871-4.267-11.633-15.437-11.633-15.437
	c0.073-0.68,0.401-1.237,0.86-1.564c-15.864-6.499-15.632-21.585-15.632-21.585c0.152-1.415,1.013-2.343,2.13-2.479
	C192.566,345.669,195.314,320.175,195.314,320.175z"/>
<path fill="none" stroke="#010101" stroke-width="5.77" stroke-miterlimit="10" d="M416.566,320.175
	c-0.313-2.897-2.677-4.152-5.253-2.79l-29.302,15.512l-27.573,14.597c-2.577,1.363-3.976,4.757-3.11,7.54l4.099,13.18
	c0.578,1.858,2.085,3.129,3.839,3.479l-2.283,0.815c-1.837,0.974-2.836,3.394-2.218,5.378l2.972,9.538
	c0.397,1.275,1.43,2.218,2.635,2.544l-3.816,1.365c-1.268,0.671-1.957,2.342-1.531,3.712l2.119,6.77
	c0.426,1.37,1.98,2.374,3.331,1.889c0,0,4.747-1.706,16.617-5.971c11.871-4.267,11.634-15.437,11.634-15.437
	c-0.074-0.68-0.402-1.237-0.861-1.564c15.864-6.499,15.633-21.585,15.633-21.585c-0.153-1.415-1.014-2.343-2.131-2.479
	C419.313,345.669,416.566,320.175,416.566,320.175z"/>
<polygon fill="#010101" points="409.134,352.476 359.248,378.692 407.438,349.476 "/>
<polygon fill="#010101" points="399.12,372.88 359.247,393.995 397.752,370.478 "/>
<rect x="261.088" y="426.861" fill="#010101" width="85" height="43.667"/>
<polygon fill="#010101" points="334.389,456.025 360.225,447.046 347.152,437.266 295.645,461.528 "/>
<polygon fill="#010101" points="307.645,462.528 250.949,447.046 264.023,437.266 312.145,459.028 "/>
<polygon fill="#FFFFFF" points="357.902,478.863 305.609,493.046 253.316,477.358 253.316,449.837 305.609,459.525 357.902,449.837 
	"/>
<polygon fill="none" stroke="#010101" stroke-width="4.515" stroke-miterlimit="10" points="357.902,478.863 305.609,491.646 
	253.316,478.863 253.316,449.837 305.609,458.62 357.902,449.837 "/>
<path fill="#FECF0A" d="M305.928,332.388h-66.784c0.001,0.091,0.003,0.181,0.003,0.272v71.94c0,0,2.764,28.095,33.166,36.624
	c29.393,8.245,33.382,17.896,33.615,18.529c0.008,0.021,0.012,0.032,0.012,0.032s3.225-10.034,33.627-18.562
	c30.403-8.529,33.166-36.624,33.166-36.624v-71.901c0-0.013,0.002-0.025,0.002-0.039c0-0.092,0.002-0.182,0.002-0.272H305.928z"/>
<g opacity="0.5">
	<g>
		<defs>
			<rect id="SVGID_1_" x="305.93" y="332.39" width="66.811" height="127.4"/>
		</defs>
		<clipPath id="SVGID_2_">
			<use xlink:href="#SVGID_1_"  overflow="visible"/>
		</clipPath>
		<path clip-path="url(#SVGID_2_)" fill="#CDA72C" d="M339.566,441.224c30.402-8.528,33.166-36.624,33.166-36.624v-71.9
			c0-0.014,0.002-0.026,0.002-0.039c0-0.092,0.002-0.182,0.002-0.273h-66.809v127.366c0.008,0.022,0.012,0.034,0.012,0.034
			S309.164,449.753,339.566,441.224"/>
	</g>
</g>
<path fill="#191818" d="M367.371,307.61l3.392,5.225c-2.295,2.726-4.317,6.396-5.444,11.187H246.563
	c-1.129-4.79-3.149-8.461-5.445-11.187l3.393-5.225h28.033h23.781h9.197h33.816H367.371 M371.913,299.244h-32.575h-33.816h-9.197
	h-23.781h-32.576l-10.033,15.454c0,0,9.1,2.806,9.211,17.689h133.592c0.111-14.884,9.211-17.689,9.211-17.689L371.913,299.244z"/>
<g opacity="0.4">
	<g>
		<defs>
			<rect id="SVGID_3_" x="229.93" y="299.24" width="152.021" height="160.55"/>
		</defs>
		<clipPath id="SVGID_4_">
			<use xlink:href="#SVGID_3_"  overflow="visible"/>
		</clipPath>
		<path clip-path="url(#SVGID_4_)" fill="#FFFFFF" d="M363.943,313.041c-2.642,4.354-4.928,10.602-5.004,19.224v0.03l-0.002,0.295
			l-0.002,0.055v0.055v70.902c-0.26,1.438-1.203,5.667-3.912,10.226c-4.133,6.953-10.588,11.701-19.184,14.113
			c-13.943,3.912-23.451,8.354-29.93,12.659c-6.465-4.301-15.953-8.755-29.871-12.659c-8.596-2.412-15.051-7.16-19.182-14.113
			c-2.711-4.559-3.654-8.787-3.914-10.226V332.66l-0.004-0.376c-0.063-8.624-2.354-14.881-5.002-19.243h24.605h23.781h9.197h33.816
			H363.943 M371.913,299.244h-32.575h-33.816h-9.197h-23.781h-32.576l-10.033,15.454c0,0,9.1,2.806,9.211,17.689
			c0,0.091,0.002,0.181,0.002,0.272v71.94c0,0,2.764,28.095,33.166,36.624c29.393,8.245,33.383,17.896,33.615,18.528
			c0.008,0.022,0.012,0.033,0.012,0.033s3.225-10.034,33.627-18.562c30.402-8.529,33.166-36.624,33.166-36.624v-71.901
			c0-0.013,0.002-0.025,0.002-0.039c0-0.092,0.002-0.182,0.002-0.272c0.111-14.884,9.211-17.689,9.211-17.689L371.913,299.244z"/>
	</g>
</g>
<path fill="#1A1A19" d="M381.947,314.698l-10.034-15.454h-32.575h-33.816h-9.197h-23.781h-32.576l-10.033,15.454
	c0,0,9.1,2.807,9.211,17.688v7.526h133.592v-7.526C372.848,317.505,381.947,314.698,381.947,314.698"/>
<polygon fill="#FFFFFF" points="254.493,328.386 254.493,313.514 251.453,316.675 249.135,314.236 255.035,308.306 258.557,308.306 
	258.557,328.386 "/>
<polygon fill="#FFFFFF" points="283,328.386 283,315.44 278.515,328.386 276.919,328.386 272.464,315.44 272.464,328.386 
	268.43,328.386 268.43,308.306 273.849,308.306 277.732,319.505 281.646,308.306 287.033,308.306 287.033,328.386 "/>
<path fill="#FFFFFF" d="M289.74,318.36c0-5.961,3.131-10.386,8.37-10.386c5.269,0,8.399,4.425,8.399,10.386
	c0,5.991-3.131,10.387-8.399,10.387C292.871,328.747,289.74,324.352,289.74,318.36 M302.385,318.36c0-3.884-1.506-6.804-4.274-6.804
	c-2.741,0-4.215,2.92-4.215,6.804c0,3.823,1.474,6.804,4.215,6.804C300.879,325.164,302.385,322.184,302.385,318.36"/>
<polygon fill="#FFFFFF" points="320.145,328.386 313.311,316.524 313.311,328.386 309.276,328.386 309.276,308.306 313.371,308.306 
	319.934,319.745 319.934,308.306 323.998,308.306 323.998,328.386 "/>
<polygon fill="#FFFFFF" points="330.859,328.386 330.859,311.857 326.404,311.857 326.404,308.306 339.35,308.306 339.35,311.857 
	334.893,311.857 334.893,328.386 "/>
<polygon fill="#FFFFFF" points="352.443,328.386 352.443,319.836 345.79,319.836 345.79,328.386 341.755,328.386 341.755,308.306 
	345.79,308.306 345.79,316.283 352.443,316.283 352.443,308.306 356.508,308.306 356.508,328.386 "/>
<path fill="#1A1A19" d="M277.613,478.65l2.023-2.148c0.875,1.148,2.049,1.799,3.475,1.799c1.6,0,2.523-1.225,2.523-2.625
	c0-1.649-0.875-2.624-2.373-2.624c-1.125,0-1.975,0.399-2.75,1.375l-2.424-0.65v-9.473h9.997v2.95h-6.649v4.273
	c0.651-0.8,1.775-1.375,3.051-1.375c2.523,0,4.549,1.975,4.549,5.424c0,3.35-2.275,5.699-5.824,5.699
	C280.637,481.275,278.861,480.325,277.613,478.65"/>
<path fill="#1A1A19" d="M290.638,472.652c0-4.299,1.774-8.599,5.898-8.599c4.149,0,5.897,4.3,5.897,8.599
	c0,4.273-1.724,8.623-5.897,8.623C292.412,481.275,290.638,476.926,290.638,472.652 M299.035,472.652
	c0-3.225-0.549-5.624-2.499-5.624c-1.925,0-2.476,2.399-2.476,5.624c0,3.199,0.551,5.648,2.476,5.648
	C298.486,478.301,299.035,475.852,299.035,472.652"/>
<path fill="#1A1A19" d="M304.063,472.652c0-4.299,1.774-8.599,5.898-8.599c4.148,0,5.898,4.3,5.898,8.599
	c0,4.273-1.725,8.623-5.898,8.623C305.837,481.275,304.063,476.926,304.063,472.652 M312.46,472.652c0-3.225-0.55-5.624-2.499-5.624
	c-1.926,0-2.475,2.399-2.475,5.624c0,3.199,0.549,5.648,2.475,5.648C311.91,478.301,312.46,475.852,312.46,472.652"/>
<polygon fill="#1A1A19" points="326.535,480.975 322.686,474.451 321.511,476.301 321.511,480.975 318.162,480.975 318.162,464.304 
	321.511,464.304 321.511,471.877 326.21,464.304 330.109,464.304 324.785,472.152 330.484,480.975 "/>
<g>
	<defs>
		<path id="SVGID_5_" d="M305.865,332.591h-66.221c0,0.089,0.002,0.177,0.002,0.27v71.335c0,0,2.742,27.856,32.888,36.313
			c29.144,8.177,33.101,17.746,33.331,18.373c0.009,0.021,0.012,0.033,0.012,0.033s3.196-9.95,33.342-18.406
			c30.146-8.457,32.889-36.313,32.889-36.313v-71.296c0-0.013,0-0.027,0-0.039c0-0.093,0.002-0.181,0.002-0.27H305.865z"/>
	</defs>
	<clipPath id="SVGID_6_">
		<use xlink:href="#SVGID_5_"  overflow="visible"/>
	</clipPath>
	<g opacity="0.5" clip-path="url(#SVGID_6_)">
		<g>
			<defs>
				<rect id="SVGID_7_" x="238.32" y="399.87" width="130.76" height="27.61"/>
			</defs>
			<clipPath id="SVGID_8_">
				<use xlink:href="#SVGID_7_"  overflow="visible"/>
			</clipPath>
			<path clip-path="url(#SVGID_8_)" fill="#CDA72C" d="M355.082,399.87c0,0-9.744,8.382-7.762,7.194c0,0-1.288,7.67-7.591,7.401
				c-6.302-0.267-8.125,9.171-7.882,11.126c0,0,3.949-4.619,10.467-2.967c6.516,1.654,10.058-2.413,10.936-3.702
				c0,0-2.33,7.688-6.85,8.269c0,0,11.193,2.166,15.589-5.346c4.396-7.514,6.612-16.36,7.084-17.155
				C369.545,403.896,355.082,399.87,355.082,399.87"/>
			<path clip-path="url(#SVGID_8_)" fill="#CDA72C" d="M342.26,421.278c0,0-7.975,1.536-6.608,1.02c0,0-4.303-2.372-6.644,0.854
				c-2.342,3.226-7.73,0.425-8.602-0.463c0,0,3.836-0.144,5.575-4.02c1.738-3.875,5.142-4.033,6.125-3.961
				c0,0-4.721-1.863-6.782,0.146c0,0,3.32-6.393,8.766-5.62c5.443,0.771,10.695,3.145,11.273,3.224
				C345.941,412.537,342.26,421.278,342.26,421.278"/>
			<path clip-path="url(#SVGID_8_)" fill="#CDA72C" d="M322.748,399.87c0,0-9.746,8.382-7.764,7.194c0,0-1.287,7.67-7.59,7.401
				c-6.303-0.267-8.126,9.171-7.883,11.126c0,0,3.951-4.619,10.467-2.967c6.517,1.654,10.058-2.413,10.936-3.702
				c0,0-2.33,7.688-6.849,8.269c0,0,11.194,2.166,15.589-5.346c4.395-7.514,6.613-16.36,7.084-17.155
				C337.209,403.896,322.748,399.87,322.748,399.87"/>
			<path clip-path="url(#SVGID_8_)" fill="#CDA72C" d="M309.924,421.278c0,0-7.975,1.536-6.607,1.02c0,0-4.303-2.372-6.645,0.854
				c-2.341,3.226-7.729,0.425-8.602-0.463c0,0,3.837-0.144,5.576-4.02c1.738-3.875,5.142-4.033,6.125-3.961
				c0,0-4.721-1.863-6.782,0.146c0,0,3.319-6.393,8.765-5.62c5.444,0.771,10.695,3.145,11.273,3.224
				C313.605,412.537,309.924,421.278,309.924,421.278"/>
			<path clip-path="url(#SVGID_8_)" fill="#CDA72C" d="M297.377,399.87c0,0-9.746,8.382-7.763,7.194c0,0-1.288,7.67-7.591,7.401
				c-6.303-0.267-8.125,9.171-7.881,11.126c0,0,3.949-4.619,10.466-2.967c6.516,1.654,10.058-2.413,10.935-3.702
				c0,0-2.33,7.688-6.849,8.269c0,0,11.194,2.166,15.589-5.346c4.395-7.514,6.613-16.36,7.084-17.155
				C311.838,403.896,297.377,399.87,297.377,399.87"/>
			<path clip-path="url(#SVGID_8_)" fill="#CDA72C" d="M284.554,421.278c0,0-7.976,1.536-6.608,1.02c0,0-4.303-2.372-6.645,0.854
				c-2.34,3.226-7.729,0.425-8.602-0.463c0,0,3.838-0.144,5.576-4.02c1.738-3.875,5.143-4.033,6.125-3.961
				c0,0-4.721-1.863-6.781,0.146c0,0,3.319-6.393,8.764-5.62c5.445,0.771,10.695,3.145,11.274,3.224
				C288.235,412.537,284.554,421.278,284.554,421.278"/>
			<path clip-path="url(#SVGID_8_)" fill="#CDA72C" d="M273,399.87c0,0-9.744,8.382-7.762,7.194c0,0-1.288,7.67-7.591,7.401
				c-6.302-0.267-8.125,9.171-7.882,11.126c0,0,3.949-4.619,10.467-2.967c6.517,1.654,10.058-2.413,10.936-3.702
				c0,0-2.33,7.688-6.85,8.269c0,0,11.193,2.166,15.589-5.346c4.396-7.514,6.612-16.36,7.084-17.155
				C287.463,403.896,273,399.87,273,399.87"/>
			<path clip-path="url(#SVGID_8_)" fill="#CDA72C" d="M260.178,421.278c0,0-7.975,1.536-6.608,1.02c0,0-4.303-2.372-6.644,0.854
				c-2.342,3.226-7.73,0.425-8.602-0.463c0,0,3.836-0.144,5.575-4.02c1.738-3.875,5.142-4.033,6.125-3.961
				c0,0-4.721-1.863-6.782,0.146c0,0,3.32-6.393,8.766-5.62c5.443,0.771,10.695,3.145,11.273,3.224
				C263.859,412.537,260.178,421.278,260.178,421.278"/>
		</g>
	</g>
	<path clip-path="url(#SVGID_6_)" fill="#FFFFFF" d="M268.392,403.646l0.161-5.136l1.02-15.3l0.372-5.574l0.521-7.803l0.172-2.601
		h23.41c0-5.201,5.201-7.803,5.201-7.803l2.288,1.716l1.873,1.405l0.833,0.624l3.9,2.926l26.826,18.854l0.692,0.485
		c0,0,0.579,0.231,1.566,0.621c0.003,0.001,0.007,0.002,0.01,0.004c0.054,0.021,0.108,0.043,0.165,0.065
		c0.023,0.009,0.049,0.019,0.073,0.029c0.053,0.02,0.106,0.041,0.161,0.063c0.013,0.005,0.027,0.011,0.041,0.017
		c0.06,0.023,0.119,0.048,0.182,0.071c0.021,0.009,0.043,0.018,0.064,0.025c0.06,0.024,0.119,0.047,0.181,0.072
		c0.011,0.004,0.022,0.008,0.032,0.012c0.098,0.039,0.199,0.078,0.301,0.118c0.056,0.021,0.111,0.044,0.169,0.066
		c0.055,0.021,0.11,0.043,0.166,0.065c0.034,0.013,0.069,0.027,0.104,0.041c0.061,0.024,0.123,0.048,0.186,0.072
		c0.031,0.013,0.064,0.025,0.098,0.039c0.057,0.021,0.114,0.044,0.172,0.066c0.045,0.019,0.09,0.035,0.135,0.054
		c0.057,0.021,0.113,0.044,0.172,0.066c0.035,0.014,0.07,0.028,0.106,0.042c0.067,0.026,0.136,0.052,0.203,0.079
		c0.048,0.02,0.097,0.038,0.146,0.056c0.045,0.019,0.091,0.036,0.137,0.055c0.085,0.032,0.171,0.065,0.257,0.1
		c0.021,0.008,0.038,0.015,0.058,0.022c0.09,0.034,0.18,0.069,0.27,0.104c0.027,0.011,0.056,0.022,0.084,0.033
		c0.068,0.026,0.138,0.053,0.207,0.08c0.068,0.026,0.136,0.053,0.204,0.079c1.188,0.462,2.5,0.967,3.87,1.487
		c0.004,0.001,0.006,0.003,0.009,0.003c0.138,0.054,0.276,0.106,0.416,0.158l0.001,0.001c0.132,0.05,0.265,0.101,0.396,0.151
		c0.021,0.007,0.043,0.015,0.063,0.023c0.124,0.047,0.25,0.095,0.375,0.142l0.034,0.013c0.136,0.051,0.271,0.104,0.408,0.154
		c0.002,0.001,0.004,0.002,0.006,0.002c0.138,0.052,0.273,0.103,0.412,0.155c0.012,0.005,0.024,0.01,0.037,0.014
		c0.127,0.048,0.252,0.095,0.379,0.144c0.022,0.008,0.045,0.016,0.065,0.023c0.123,0.046,0.246,0.092,0.368,0.138
		c0.021,0.009,0.044,0.017,0.064,0.024l0.361,0.134l0.079,0.03c0.119,0.044,0.238,0.089,0.358,0.133
		c0.025,0.009,0.05,0.018,0.074,0.028c0.114,0.042,0.229,0.084,0.342,0.126c0.035,0.013,0.068,0.025,0.103,0.038
		c0.11,0.041,0.22,0.082,0.331,0.122c0.032,0.012,0.064,0.023,0.098,0.035c0.11,0.041,0.221,0.082,0.332,0.122
		c0.034,0.014,0.069,0.026,0.104,0.039c0.108,0.04,0.217,0.079,0.325,0.119c0.033,0.013,0.068,0.025,0.103,0.038
		c0.108,0.039,0.216,0.078,0.322,0.117c0.036,0.013,0.073,0.025,0.108,0.04c0.104,0.037,0.205,0.074,0.308,0.11
		c0.041,0.016,0.082,0.03,0.123,0.046c0.101,0.036,0.2,0.071,0.301,0.107c0.04,0.015,0.08,0.03,0.12,0.044
		c0.102,0.037,0.203,0.073,0.305,0.11c0.039,0.013,0.077,0.026,0.115,0.041c0.093,0.034,0.186,0.067,0.279,0.1
		c0.048,0.018,0.097,0.034,0.145,0.052c0.092,0.033,0.186,0.065,0.276,0.099c0.044,0.015,0.088,0.031,0.131,0.046
		c0.103,0.037,0.206,0.073,0.31,0.11c0.03,0.011,0.062,0.021,0.092,0.032c0.099,0.034,0.195,0.068,0.291,0.103
		c0.041,0.014,0.082,0.028,0.121,0.042c0.084,0.03,0.166,0.058,0.248,0.087c0.051,0.018,0.103,0.036,0.153,0.053
		c0.086,0.03,0.171,0.061,0.257,0.089c0.043,0.016,0.088,0.031,0.133,0.047c0.08,0.027,0.16,0.055,0.239,0.082
		c0.05,0.018,0.101,0.035,0.151,0.053c0.074,0.024,0.148,0.051,0.224,0.076c0.052,0.018,0.103,0.034,0.154,0.053
		c0.077,0.025,0.151,0.051,0.228,0.077c0.049,0.016,0.098,0.032,0.146,0.049c0.122,0.041,0.244,0.082,0.363,0.122
		c0.238,0.079,0.469,0.166,0.692,0.26c0.005,0.001,0.009,0.003,0.013,0.004c0.219,0.092,0.432,0.191,0.638,0.296
		c0.007,0.003,0.015,0.006,0.022,0.01c0.202,0.104,0.397,0.214,0.588,0.328c0.01,0.005,0.02,0.011,0.028,0.017
		c0.188,0.113,0.368,0.232,0.544,0.356c0.012,0.008,0.022,0.016,0.033,0.023c0.173,0.122,0.34,0.251,0.501,0.382
		c0.013,0.01,0.024,0.019,0.036,0.029c0.16,0.131,0.314,0.267,0.463,0.405c0.012,0.012,0.023,0.022,0.035,0.033
		c0.148,0.14,0.29,0.283,0.429,0.429c0.011,0.013,0.022,0.023,0.032,0.034c0.138,0.148,0.27,0.3,0.398,0.452
		c0.008,0.011,0.018,0.022,0.027,0.033c0.128,0.155,0.251,0.313,0.369,0.473c0.007,0.01,0.016,0.021,0.021,0.03
		c0.119,0.163,0.234,0.328,0.344,0.495c0.005,0.007,0.01,0.014,0.015,0.021c0.112,0.17,0.218,0.343,0.32,0.517
		c0.003,0.004,0.005,0.008,0.008,0.012c1.157,1.974,1.619,4.133,1.892,5.764v9.458h-95.526V403.646z"/>
	<path clip-path="url(#SVGID_6_)" fill="#F8D012" d="M337.82,399.269l-43.408-30.932l4.506-7.193l11.64,9.148l27.282,18.479
		l0.746,0.507c0,0,2.848,1.103,6.744,2.561l0.008,0.032L337.82,399.269z"/>
	<path clip-path="url(#SVGID_6_)" fill="#F8D012" d="M335.684,386.522c0.564,0.225,13.158,5.252,20.785,7.794
		c3.855,1.285,5.804,4.472,6.791,7.369h-38.68L335.684,386.522z"/>
	<polygon clip-path="url(#SVGID_6_)" fill="#191818" points="310.718,369.268 303.771,375.413 307.272,366.824 	"/>
	<polygon clip-path="url(#SVGID_6_)" fill="#191818" points="317.254,373.925 310.308,380.069 313.809,371.481 	"/>
	
		<line clip-path="url(#SVGID_6_)" fill="none" stroke="#191818" stroke-width="2.148" stroke-miterlimit="10" x1="363.26" y1="402.491" x2="268.391" y2="402.491"/>
	<polygon clip-path="url(#SVGID_6_)" fill="#191818" points="323.791,378.581 316.844,384.727 320.346,376.139 	"/>
	<polygon clip-path="url(#SVGID_6_)" fill="#191818" points="330.326,383.238 323.381,389.383 326.881,380.795 	"/>
	<polygon clip-path="url(#SVGID_6_)" fill="#191818" points="336.863,387.896 329.917,394.04 333.418,385.452 	"/>
	<path clip-path="url(#SVGID_6_)" fill="none" stroke="#191818" stroke-width="4.296" stroke-miterlimit="10" d="M268.392,403.646
		l0.161-5.136l1.02-15.3l0.372-5.574l0.521-7.803l0.172-2.601h23.41c0-5.201,5.201-7.803,5.201-7.803l2.288,1.716l1.873,1.405
		l0.833,0.624l3.9,2.926l26.826,18.854l0.692,0.485c0,0,0.579,0.231,1.566,0.621c0.003,0.001,0.007,0.002,0.01,0.004
		c0.054,0.021,0.108,0.043,0.165,0.065c0.023,0.009,0.049,0.019,0.073,0.029c0.053,0.02,0.106,0.041,0.161,0.063
		c0.013,0.005,0.027,0.011,0.041,0.017c0.06,0.023,0.119,0.048,0.182,0.071c0.021,0.009,0.043,0.018,0.064,0.025
		c0.06,0.024,0.119,0.047,0.181,0.072c0.011,0.004,0.022,0.008,0.032,0.012c0.098,0.039,0.199,0.078,0.301,0.118
		c0.056,0.021,0.111,0.044,0.169,0.066c0.055,0.021,0.11,0.043,0.166,0.065c0.034,0.013,0.069,0.027,0.104,0.041
		c0.061,0.024,0.123,0.048,0.186,0.072c0.031,0.013,0.064,0.025,0.098,0.039c0.057,0.021,0.114,0.044,0.172,0.066
		c0.045,0.019,0.09,0.035,0.135,0.054c0.057,0.021,0.113,0.044,0.172,0.066c0.035,0.014,0.07,0.028,0.106,0.042
		c0.067,0.026,0.136,0.052,0.203,0.079c0.048,0.02,0.097,0.038,0.146,0.056c0.045,0.019,0.091,0.036,0.137,0.055
		c0.085,0.032,0.171,0.065,0.257,0.1c0.021,0.008,0.038,0.015,0.058,0.022c0.09,0.034,0.18,0.069,0.27,0.104
		c0.027,0.011,0.056,0.022,0.084,0.033c0.068,0.026,0.138,0.053,0.207,0.08c0.068,0.026,0.136,0.053,0.204,0.079
		c1.188,0.462,2.5,0.967,3.87,1.487c0.004,0.001,0.006,0.003,0.009,0.003c0.138,0.054,0.276,0.106,0.416,0.158l0.001,0.001
		c0.132,0.05,0.265,0.101,0.396,0.151c0.021,0.007,0.043,0.015,0.063,0.023c0.124,0.047,0.25,0.095,0.375,0.142l0.034,0.013
		c0.136,0.051,0.271,0.104,0.408,0.154c0.002,0.001,0.004,0.002,0.006,0.002c0.138,0.052,0.273,0.103,0.412,0.155
		c0.012,0.005,0.024,0.01,0.037,0.014c0.127,0.048,0.252,0.095,0.379,0.144c0.022,0.008,0.045,0.016,0.065,0.023
		c0.123,0.046,0.246,0.092,0.368,0.138c0.021,0.009,0.044,0.017,0.064,0.024l0.361,0.134l0.079,0.03
		c0.119,0.044,0.238,0.089,0.358,0.133c0.025,0.009,0.05,0.018,0.074,0.028c0.114,0.042,0.229,0.084,0.342,0.126
		c0.035,0.013,0.068,0.025,0.103,0.038c0.11,0.041,0.22,0.082,0.331,0.122c0.032,0.012,0.064,0.023,0.098,0.035
		c0.11,0.041,0.221,0.082,0.332,0.122c0.034,0.014,0.069,0.026,0.104,0.039c0.108,0.04,0.217,0.079,0.325,0.119
		c0.033,0.013,0.068,0.025,0.103,0.038c0.108,0.039,0.216,0.078,0.322,0.117c0.036,0.013,0.073,0.025,0.108,0.04
		c0.104,0.037,0.205,0.074,0.308,0.11c0.041,0.016,0.082,0.03,0.123,0.046c0.101,0.036,0.2,0.071,0.301,0.107
		c0.04,0.015,0.08,0.03,0.12,0.044c0.102,0.037,0.203,0.073,0.305,0.11c0.039,0.013,0.077,0.026,0.115,0.041
		c0.093,0.034,0.186,0.067,0.279,0.1c0.048,0.018,0.097,0.034,0.145,0.052c0.092,0.033,0.186,0.065,0.276,0.099
		c0.044,0.015,0.088,0.031,0.131,0.046c0.103,0.037,0.206,0.073,0.31,0.11c0.03,0.011,0.062,0.021,0.092,0.032
		c0.099,0.034,0.195,0.068,0.291,0.103c0.041,0.014,0.082,0.028,0.121,0.042c0.084,0.03,0.166,0.058,0.248,0.087
		c0.051,0.018,0.103,0.036,0.153,0.053c0.086,0.03,0.171,0.061,0.257,0.089c0.043,0.016,0.088,0.031,0.133,0.047
		c0.08,0.027,0.16,0.055,0.239,0.082c0.05,0.018,0.101,0.035,0.151,0.053c0.074,0.024,0.148,0.051,0.224,0.076
		c0.052,0.018,0.103,0.034,0.154,0.053c0.077,0.025,0.151,0.051,0.228,0.077c0.049,0.016,0.098,0.032,0.146,0.049
		c0.122,0.041,0.244,0.082,0.363,0.122c0.238,0.079,0.469,0.166,0.692,0.26c0.005,0.001,0.009,0.003,0.013,0.004
		c0.219,0.092,0.432,0.191,0.638,0.296c0.007,0.003,0.015,0.006,0.022,0.01c0.202,0.104,0.397,0.214,0.588,0.328
		c0.01,0.005,0.02,0.011,0.028,0.017c0.188,0.113,0.368,0.232,0.544,0.356c0.012,0.008,0.022,0.016,0.033,0.023
		c0.173,0.122,0.34,0.251,0.501,0.382c0.013,0.01,0.024,0.019,0.036,0.029c0.16,0.131,0.314,0.267,0.463,0.405
		c0.012,0.012,0.023,0.022,0.035,0.033c0.148,0.14,0.29,0.283,0.429,0.429c0.011,0.013,0.022,0.023,0.032,0.034
		c0.138,0.148,0.27,0.3,0.398,0.452c0.008,0.011,0.018,0.022,0.027,0.033c0.128,0.155,0.251,0.313,0.369,0.473
		c0.007,0.01,0.016,0.021,0.021,0.03c0.119,0.163,0.234,0.328,0.344,0.495c0.005,0.007,0.01,0.014,0.015,0.021
		c0.112,0.17,0.218,0.343,0.32,0.517c0.003,0.004,0.005,0.008,0.008,0.012c1.157,1.974,1.619,4.133,1.892,5.764v9.458h-95.526
		V403.646z"/>
	<path clip-path="url(#SVGID_6_)" fill="#FFFFFF" d="M227.568,403.646l0.161-5.136l1.021-15.3l0.371-5.574l0.521-7.803l0.173-2.601
		h23.409c0-5.201,5.202-7.803,5.202-7.803l2.287,1.716l1.875,1.405l0.832,0.624l3.9,2.926l26.825,18.854l0.694,0.485
		c0,0,0.578,0.231,1.564,0.621c0.004,0.001,0.008,0.002,0.01,0.004c0.055,0.021,0.109,0.043,0.166,0.065
		c0.023,0.009,0.049,0.019,0.072,0.029c0.053,0.02,0.106,0.041,0.161,0.063c0.013,0.005,0.027,0.011,0.041,0.017
		c0.06,0.023,0.12,0.048,0.183,0.071c0.021,0.009,0.043,0.018,0.063,0.025c0.06,0.024,0.12,0.047,0.183,0.072
		c0.01,0.004,0.021,0.008,0.031,0.012c0.098,0.039,0.198,0.078,0.301,0.118c0.057,0.021,0.111,0.044,0.168,0.066
		c0.055,0.021,0.111,0.043,0.166,0.065c0.035,0.013,0.069,0.027,0.104,0.041c0.062,0.024,0.124,0.048,0.187,0.072
		c0.032,0.013,0.064,0.025,0.098,0.039c0.056,0.021,0.113,0.044,0.172,0.066c0.044,0.019,0.089,0.035,0.135,0.054
		c0.057,0.021,0.114,0.044,0.172,0.066c0.035,0.014,0.071,0.028,0.105,0.042c0.068,0.026,0.136,0.052,0.203,0.079
		c0.049,0.02,0.097,0.038,0.146,0.056c0.046,0.019,0.091,0.036,0.138,0.055c0.084,0.032,0.17,0.065,0.256,0.1
		c0.021,0.008,0.039,0.015,0.059,0.022c0.089,0.034,0.179,0.069,0.27,0.104c0.027,0.011,0.055,0.022,0.084,0.033
		c0.067,0.026,0.137,0.053,0.207,0.08c0.067,0.026,0.135,0.053,0.203,0.079c1.189,0.462,2.5,0.967,3.871,1.487
		c0.004,0.001,0.006,0.003,0.008,0.003c0.139,0.054,0.277,0.106,0.416,0.158l0.002,0.001c0.131,0.05,0.264,0.101,0.396,0.151
		c0.021,0.007,0.042,0.015,0.063,0.023c0.125,0.047,0.25,0.095,0.375,0.142l0.034,0.013c0.136,0.051,0.272,0.104,0.409,0.154
		c0.002,0.001,0.004,0.002,0.006,0.002c0.137,0.052,0.273,0.103,0.411,0.155l0.038,0.014c0.126,0.048,0.253,0.095,0.379,0.144
		c0.021,0.008,0.044,0.016,0.064,0.023c0.123,0.046,0.246,0.092,0.369,0.138c0.021,0.009,0.043,0.017,0.064,0.024l0.361,0.134
		l0.078,0.03c0.119,0.044,0.238,0.089,0.358,0.133c0.025,0.009,0.05,0.018,0.075,0.028c0.113,0.042,0.229,0.084,0.342,0.126
		c0.034,0.013,0.068,0.025,0.102,0.038c0.111,0.041,0.222,0.082,0.332,0.122c0.031,0.012,0.064,0.023,0.098,0.035
		c0.111,0.041,0.221,0.082,0.331,0.122c0.034,0.014,0.069,0.026,0.104,0.039c0.109,0.04,0.217,0.079,0.325,0.119
		c0.035,0.013,0.069,0.025,0.103,0.038c0.109,0.039,0.216,0.078,0.322,0.117c0.037,0.013,0.073,0.025,0.109,0.04
		c0.104,0.037,0.205,0.074,0.307,0.11c0.041,0.016,0.082,0.03,0.123,0.046c0.102,0.036,0.201,0.071,0.301,0.107
		c0.041,0.015,0.08,0.03,0.121,0.044c0.102,0.037,0.203,0.073,0.305,0.11c0.039,0.013,0.076,0.026,0.115,0.041
		c0.094,0.034,0.187,0.067,0.278,0.1c0.048,0.018,0.097,0.034,0.146,0.052c0.093,0.033,0.185,0.065,0.275,0.099
		c0.045,0.015,0.088,0.031,0.131,0.046c0.104,0.037,0.207,0.073,0.31,0.11c0.03,0.011,0.062,0.021,0.094,0.032
		c0.097,0.034,0.193,0.068,0.29,0.103c0.04,0.014,0.081,0.028,0.121,0.042c0.084,0.03,0.166,0.058,0.248,0.087
		c0.052,0.018,0.102,0.036,0.152,0.053c0.086,0.03,0.172,0.061,0.257,0.089c0.044,0.016,0.089,0.031,0.133,0.047
		c0.08,0.027,0.16,0.055,0.241,0.082c0.049,0.018,0.1,0.035,0.15,0.053c0.074,0.024,0.149,0.051,0.225,0.076
		c0.05,0.018,0.102,0.034,0.152,0.053c0.078,0.025,0.152,0.051,0.229,0.077c0.049,0.016,0.098,0.032,0.146,0.049
		c0.121,0.041,0.243,0.082,0.363,0.122c0.238,0.079,0.469,0.166,0.691,0.26c0.005,0.001,0.009,0.003,0.013,0.004
		c0.22,0.092,0.433,0.191,0.638,0.296c0.008,0.003,0.016,0.006,0.022,0.01c0.202,0.104,0.399,0.214,0.589,0.328
		c0.01,0.005,0.02,0.011,0.029,0.017c0.187,0.113,0.367,0.232,0.543,0.356c0.011,0.008,0.021,0.016,0.033,0.023
		c0.172,0.122,0.34,0.251,0.5,0.382c0.013,0.01,0.024,0.019,0.037,0.029c0.159,0.131,0.313,0.267,0.463,0.405
		c0.011,0.012,0.023,0.022,0.035,0.033c0.147,0.14,0.291,0.283,0.428,0.429c0.011,0.013,0.022,0.023,0.033,0.034
		c0.137,0.148,0.27,0.3,0.397,0.452c0.009,0.011,0.019,0.022,0.028,0.033c0.127,0.155,0.25,0.313,0.369,0.473
		c0.006,0.01,0.015,0.021,0.021,0.03c0.119,0.163,0.234,0.328,0.344,0.495c0.004,0.007,0.01,0.014,0.016,0.021
		c0.111,0.17,0.218,0.343,0.32,0.517c0.002,0.004,0.004,0.008,0.006,0.012c1.158,1.974,1.619,4.133,1.892,5.764v9.458h-95.526
		V403.646z"/>
	<path clip-path="url(#SVGID_6_)" fill="#F8D012" d="M296.998,399.269l-43.409-30.932l4.507-7.193l11.639,9.148l27.282,18.479
		l0.748,0.507c0,0,2.847,1.103,6.743,2.561l0.007,0.032L296.998,399.269z"/>
	<path clip-path="url(#SVGID_6_)" fill="#F8D012" d="M294.861,386.522c0.563,0.225,13.158,5.252,20.785,7.794
		c3.855,1.285,5.803,4.472,6.79,7.369h-38.679L294.861,386.522z"/>
	<polygon clip-path="url(#SVGID_6_)" fill="#191818" points="269.895,369.268 262.949,375.413 266.449,366.824 	"/>
	<polygon clip-path="url(#SVGID_6_)" fill="#191818" points="276.432,373.925 269.484,380.069 272.986,371.481 	"/>
	
		<line clip-path="url(#SVGID_6_)" fill="none" stroke="#191818" stroke-width="2.148" stroke-miterlimit="10" x1="322.437" y1="402.491" x2="227.568" y2="402.491"/>
	<polygon clip-path="url(#SVGID_6_)" fill="#191818" points="282.968,378.581 276.021,384.727 279.522,376.139 	"/>
	<polygon clip-path="url(#SVGID_6_)" fill="#191818" points="289.504,383.238 282.559,389.383 286.059,380.795 	"/>
	<polygon clip-path="url(#SVGID_6_)" fill="#191818" points="296.041,387.896 289.094,394.04 292.596,385.452 	"/>
	<path clip-path="url(#SVGID_6_)" fill="none" stroke="#191818" stroke-width="4.296" stroke-miterlimit="10" d="M227.568,403.646
		l0.161-5.136l1.021-15.3l0.371-5.574l0.521-7.803l0.173-2.601h23.409c0-5.201,5.202-7.803,5.202-7.803l2.287,1.716l1.875,1.405
		l0.832,0.624l3.9,2.926l26.825,18.854l0.694,0.485c0,0,0.578,0.231,1.564,0.621c0.004,0.001,0.008,0.002,0.01,0.004
		c0.055,0.021,0.109,0.043,0.166,0.065c0.023,0.009,0.049,0.019,0.072,0.029c0.053,0.02,0.106,0.041,0.161,0.063
		c0.013,0.005,0.027,0.011,0.041,0.017c0.06,0.023,0.12,0.048,0.183,0.071c0.021,0.009,0.043,0.018,0.063,0.025
		c0.06,0.024,0.12,0.047,0.183,0.072c0.01,0.004,0.021,0.008,0.031,0.012c0.098,0.039,0.198,0.078,0.301,0.118
		c0.057,0.021,0.111,0.044,0.168,0.066c0.055,0.021,0.111,0.043,0.166,0.065c0.035,0.013,0.069,0.027,0.104,0.041
		c0.062,0.024,0.124,0.048,0.187,0.072c0.032,0.013,0.064,0.025,0.098,0.039c0.056,0.021,0.113,0.044,0.172,0.066
		c0.044,0.019,0.089,0.035,0.135,0.054c0.057,0.021,0.114,0.044,0.172,0.066c0.035,0.014,0.071,0.028,0.105,0.042
		c0.068,0.026,0.136,0.052,0.203,0.079c0.049,0.02,0.097,0.038,0.146,0.056c0.046,0.019,0.091,0.036,0.138,0.055
		c0.084,0.032,0.17,0.065,0.256,0.1c0.021,0.008,0.039,0.015,0.059,0.022c0.089,0.034,0.179,0.069,0.27,0.104
		c0.027,0.011,0.055,0.022,0.084,0.033c0.067,0.026,0.137,0.053,0.207,0.08c0.067,0.026,0.135,0.053,0.203,0.079
		c1.189,0.462,2.5,0.967,3.871,1.487c0.004,0.001,0.006,0.003,0.008,0.003c0.139,0.054,0.277,0.106,0.416,0.158l0.002,0.001
		c0.131,0.05,0.264,0.101,0.396,0.151c0.021,0.007,0.042,0.015,0.063,0.023c0.125,0.047,0.25,0.095,0.375,0.142l0.034,0.013
		c0.136,0.051,0.272,0.104,0.409,0.154c0.002,0.001,0.004,0.002,0.006,0.002c0.137,0.052,0.273,0.103,0.411,0.155l0.038,0.014
		c0.126,0.048,0.253,0.095,0.379,0.144c0.021,0.008,0.044,0.016,0.064,0.023c0.123,0.046,0.246,0.092,0.369,0.138
		c0.021,0.009,0.043,0.017,0.064,0.024l0.361,0.134l0.078,0.03c0.119,0.044,0.238,0.089,0.358,0.133
		c0.025,0.009,0.05,0.018,0.075,0.028c0.113,0.042,0.229,0.084,0.342,0.126c0.034,0.013,0.068,0.025,0.102,0.038
		c0.111,0.041,0.222,0.082,0.332,0.122c0.031,0.012,0.064,0.023,0.098,0.035c0.111,0.041,0.221,0.082,0.331,0.122
		c0.034,0.014,0.069,0.026,0.104,0.039c0.109,0.04,0.217,0.079,0.325,0.119c0.035,0.013,0.069,0.025,0.103,0.038
		c0.109,0.039,0.216,0.078,0.322,0.117c0.037,0.013,0.073,0.025,0.109,0.04c0.104,0.037,0.205,0.074,0.307,0.11
		c0.041,0.016,0.082,0.03,0.123,0.046c0.102,0.036,0.201,0.071,0.301,0.107c0.041,0.015,0.08,0.03,0.121,0.044
		c0.102,0.037,0.203,0.073,0.305,0.11c0.039,0.013,0.076,0.026,0.115,0.041c0.094,0.034,0.187,0.067,0.278,0.1
		c0.048,0.018,0.097,0.034,0.146,0.052c0.093,0.033,0.185,0.065,0.275,0.099c0.045,0.015,0.088,0.031,0.131,0.046
		c0.104,0.037,0.207,0.073,0.31,0.11c0.03,0.011,0.062,0.021,0.094,0.032c0.097,0.034,0.193,0.068,0.29,0.103
		c0.04,0.014,0.081,0.028,0.121,0.042c0.084,0.03,0.166,0.058,0.248,0.087c0.052,0.018,0.102,0.036,0.152,0.053
		c0.086,0.03,0.172,0.061,0.257,0.089c0.044,0.016,0.089,0.031,0.133,0.047c0.08,0.027,0.16,0.055,0.241,0.082
		c0.049,0.018,0.1,0.035,0.15,0.053c0.074,0.024,0.149,0.051,0.225,0.076c0.05,0.018,0.102,0.034,0.152,0.053
		c0.078,0.025,0.152,0.051,0.229,0.077c0.049,0.016,0.098,0.032,0.146,0.049c0.121,0.041,0.243,0.082,0.363,0.122
		c0.238,0.079,0.469,0.166,0.691,0.26c0.005,0.001,0.009,0.003,0.013,0.004c0.22,0.092,0.433,0.191,0.638,0.296
		c0.008,0.003,0.016,0.006,0.022,0.01c0.202,0.104,0.399,0.214,0.589,0.328c0.01,0.005,0.02,0.011,0.029,0.017
		c0.187,0.113,0.367,0.232,0.543,0.356c0.011,0.008,0.021,0.016,0.033,0.023c0.172,0.122,0.34,0.251,0.5,0.382
		c0.013,0.01,0.024,0.019,0.037,0.029c0.159,0.131,0.313,0.267,0.463,0.405c0.011,0.012,0.023,0.022,0.035,0.033
		c0.147,0.14,0.291,0.283,0.428,0.429c0.011,0.013,0.022,0.023,0.033,0.034c0.137,0.148,0.27,0.3,0.397,0.452
		c0.009,0.011,0.019,0.022,0.028,0.033c0.127,0.155,0.25,0.313,0.369,0.473c0.006,0.01,0.015,0.021,0.021,0.03
		c0.119,0.163,0.234,0.328,0.344,0.495c0.004,0.007,0.01,0.014,0.016,0.021c0.111,0.17,0.218,0.343,0.32,0.517
		c0.002,0.004,0.004,0.008,0.006,0.012c1.158,1.974,1.619,4.133,1.892,5.764v9.458h-95.526V403.646z"/>
	<polygon clip-path="url(#SVGID_6_)" fill="#F8D012" points="255.029,379.355 268.328,386.134 264.774,388.908 271.035,395.462 
		257.735,388.684 261.289,385.908 	"/>
</g>
<path fill="#191818" d="M367.371,307.61l3.392,5.225c-3.476,4.13-6.325,10.43-6.392,19.499l-0.002,0.06v0.034l-0.002,0.037v0.182
	v0.027v0.025v71.372c-0.437,2.981-4.16,22.673-27.061,29.098c-5.879,1.649-21.529,6.528-31.393,14.107
	c-5.686-4.468-15.25-9.593-31.342-14.107c-22.9-6.425-26.625-26.116-27.06-29.098V332.66l-0.002-0.267l-0.001-0.068
	c-0.068-9.064-2.916-15.362-6.393-19.49l3.393-5.225h28.033h23.781h9.197h33.816H367.371 M371.913,299.244h-32.575h-33.816h-9.197
	h-23.781h-32.576l-10.033,15.454c0,0,9.1,2.806,9.211,17.689c0,0.091,0.002,0.181,0.002,0.272v71.94c0,0,2.764,28.095,33.166,36.624
	c29.393,8.245,33.383,17.896,33.615,18.528c0.008,0.022,0.012,0.033,0.012,0.033s3.225-10.034,33.627-18.562
	c30.402-8.529,33.166-36.624,33.166-36.624v-71.901c0-0.013,0.002-0.025,0.002-0.039c0-0.092,0.002-0.182,0.002-0.272
	c0.111-14.884,9.211-17.689,9.211-17.689L371.913,299.244z"/>
</svg>
