<?xml version="1.0" encoding="utf-8"?>
<!-- Generator: Adobe Illustrator 16.0.0, SVG Export Plug-In . SVG Version: 6.00 Build 0)  -->
<!DOCTYPE svg PUBLIC "-//W3C//DTD SVG 1.1//EN" "http://www.w3.org/Graphics/SVG/1.1/DTD/svg11.dtd">
<svg version="1.1" id="Layer_1" xmlns="http://www.w3.org/2000/svg" xmlns:xlink="http://www.w3.org/1999/xlink" x="0px" y="0px"
	 width="240px" height="200px" viewBox="0 0 240 200" enable-background="new 0 0 240 200" xml:space="preserve">
<path fill="#020202" d="M44.472,165.246c0.916-0.018,1.783-0.026,2.638,0.015c-3.211-4.57-2.29-10.164-4.058-15.119l0.017-0.219
	c5.329,2.008,8.124,6.7,10.731,11.657c1.862,3.592,3.683,7.273,6.339,9.993c-1.109,0.08-2.153,0.229-3.234,0.389
	c-1.122,0.163-2.274,0.386-3.435,0.691c-2.306,0.136-4.581,0.237-6.732,0.167c-4.035-0.171-7.795-0.854-11.037-2.605
	c-1.501-0.798-2.901-1.85-4.131-3.161c0.949-0.153,1.992-0.342,3.028-0.523C37.862,165.975,41.297,165.404,44.472,165.246"/>
<path fill="#020202" d="M34.417,147.7c1.062,1.398,2.535,2.593,3.517,4.191c0.274,0.794,0.599,1.551,0.922,2.329
	c0.784,2.1,1.378,4.127,0.792,5.831c-2.665-1.042-5.366-2.283-7.721-4.482c-1.341-1.617-2.338-3.36-3.035-5.244
	C27.782,147.37,26.622,138.395,27,135c0.008-0.114,0.849,5.558,0.841,5.483l0.3-0.285c0.113,0.265,0.263,0.539,0.409,0.824
	C29.976,143.62,32.062,145.5,34.417,147.7"/>
<path fill="#020202" d="M194.596,165.246c-0.916-0.018-1.783-0.026-2.638,0.015c3.211-4.57,2.29-10.164,4.058-15.119l-0.017-0.219
	c-5.329,2.008-8.124,6.7-10.731,11.657c-1.86,3.592-3.683,7.273-6.338,9.993c1.108,0.08,2.152,0.229,3.233,0.389
	c1.122,0.163,2.274,0.386,3.435,0.691c2.308,0.136,4.582,0.237,6.732,0.167c4.035-0.171,7.795-0.854,11.037-2.605
	c1.501-0.798,2.902-1.85,4.131-3.161c-0.949-0.153-1.992-0.342-3.027-0.523C201.205,165.975,197.771,165.404,194.596,165.246"/>
<path fill="#020202" d="M206.077,147.7c-1.062,1.398-2.535,2.593-3.517,4.191c-0.274,0.794-0.601,1.551-0.924,2.329
	c-0.783,2.1-1.378,4.127-0.791,5.831c2.664-1.042,5.365-2.283,7.721-4.482c1.342-1.617,2.339-3.36,3.034-5.244
	c1.11-2.955,1.454-6.194,1.076-9.59c-0.008-0.114-0.033-0.179-0.023-0.252l-0.3-0.285c-0.113,0.265-0.265,0.539-0.409,0.824
	C210.518,143.62,208.432,145.5,206.077,147.7"/>
<rect x="72.989" y="131.861" fill="#020202" width="85" height="43.667"/>
<polygon fill="#020202" points="146.29,161.025 172.127,152.046 159.055,142.266 107.546,166.528 "/>
<polygon fill="#020202" points="119.546,167.528 62.851,152.046 75.924,142.266 124.046,164.028 "/>
<polygon fill="#FFFFFF" points="169.803,183.863 117.51,198.046 65.217,182.358 65.217,154.837 117.51,164.525 169.803,154.837 "/>
<polygon fill="none" stroke="#020202" stroke-width="4.515" stroke-miterlimit="10" points="169.803,183.863 117.51,196.646 
	65.217,183.863 65.217,154.837 117.51,163.62 169.803,154.837 "/>
<path fill="#FDD00F" d="M117.829,37.388H51.045c0.001,0.091,0.003,0.182,0.003,0.272V109.6c0,0,2.763,28.096,33.166,36.624
	c29.392,8.245,33.382,17.896,33.615,18.529c0.008,0.021,0.012,0.032,0.012,0.032s3.224-10.034,33.627-18.563
	c30.401-8.528,33.166-36.624,33.166-36.624v-71.9c0-0.014,0.001-0.025,0.001-0.039c0-0.092,0.002-0.183,0.004-0.272L117.829,37.388
	L117.829,37.388z"/>
<g opacity="0.5">
	<g>
		<g>
			<defs>
				<rect id="SVGID_1_" x="117.83" y="37.39" width="66.811" height="127.4"/>
			</defs>
			<clipPath id="SVGID_2_">
				<use xlink:href="#SVGID_1_"  overflow="visible"/>
			</clipPath>
			<path clip-path="url(#SVGID_2_)" fill="#CDA72C" d="M151.468,146.224c30.401-8.527,33.165-36.624,33.165-36.624V37.7
				c0-0.015,0.002-0.026,0.002-0.039c0-0.092,0.002-0.183,0.004-0.273h-66.811v127.366c0.008,0.022,0.012,0.034,0.012,0.034
				S121.064,154.753,151.468,146.224"/>
		</g>
	</g>
</g>
<path fill="#191818" d="M179.271,12.61l3.393,5.225c-2.296,2.726-4.316,6.396-5.445,11.188H58.463
	c-1.128-4.79-3.148-8.462-5.445-11.188l3.393-5.225h28.033h23.781h9.198h33.815H179.271 M183.814,4.244h-32.576h-33.815h-9.198
	H84.444H51.868L41.834,19.698c0,0,9.1,2.806,9.21,17.688h133.593c0.111-14.884,9.211-17.688,9.211-17.688L183.814,4.244z"/>
<g opacity="0.4">
	<g>
		<g>
			<defs>
				<rect id="SVGID_3_" x="41.83" y="4.24" width="152.02" height="160.55"/>
			</defs>
			<clipPath id="SVGID_4_">
				<use xlink:href="#SVGID_3_"  overflow="visible"/>
			</clipPath>
			<path clip-path="url(#SVGID_4_)" fill="#FFFFFF" d="M175.844,18.041c-2.641,4.354-4.928,10.602-5.003,19.224l-0.001,0.03
				l-0.003,0.295v0.055V37.7v70.951c-0.223,1.223-1.069,5.082-3.448,9.366c-4.104,7.396-10.717,12.417-19.646,14.924
				c-13.944,3.911-23.452,8.354-29.929,12.658c-6.467-4.301-15.954-8.755-29.872-12.658c-8.597-2.412-15.05-7.16-19.184-14.113
				c-2.709-4.56-3.653-8.787-3.913-10.227V37.66l-0.003-0.376c-0.064-8.624-2.355-14.881-5.003-19.243h24.606h23.781h9.198h33.815
				H175.844 M183.814,4.244h-32.576h-33.815h-9.198H84.444H51.868L41.834,19.698c0,0,9.1,2.806,9.21,17.688
				c0.001,0.091,0.003,0.182,0.003,0.272v71.939c0,0,2.764,28.096,33.166,36.624c29.394,8.245,33.383,17.896,33.615,18.528
				c0.008,0.022,0.012,0.033,0.012,0.033s3.227-10.034,33.627-18.563c30.403-8.528,33.167-36.624,33.167-36.624v-71.9
				c0-0.014,0.001-0.025,0.001-0.039c0-0.092,0.002-0.183,0.002-0.272c0.111-14.884,9.211-17.688,9.211-17.688L183.814,4.244z"/>
		</g>
	</g>
</g>
<path fill="#1A1A19" d="M193.848,19.698L183.814,4.244h-32.576h-33.814h-9.198H84.445H51.87L41.836,19.698
	c0,0,9.099,2.807,9.21,17.688v7.526h133.593v-7.526C184.749,22.505,193.848,19.698,193.848,19.698"/>
<path fill="#FFFFFF" d="M73.844,30.586l2.438-2.589c1.054,1.385,2.469,2.168,4.185,2.168c1.927,0,3.041-1.476,3.041-3.161
	c0-1.987-1.054-3.161-2.86-3.161c-1.354,0-2.379,0.481-3.312,1.655l-2.92-0.782v-11.41h12.042v3.554H78.45v5.146
	c0.783-0.963,2.138-1.655,3.673-1.655c3.04,0,5.479,2.378,5.479,6.532c0,4.035-2.739,6.865-7.014,6.865
	C77.486,33.748,75.349,32.604,73.844,30.586"/>
<path fill="#FFFFFF" d="M96.66,33.387V13.306h6.473c5.539,0,8.73,4.155,8.73,10.057c0,5.9-3.161,10.024-8.73,10.024H96.66z
	 M107.739,23.361c0-3.976-1.565-6.503-4.606-6.503h-2.438v12.976h2.438C106.113,29.834,107.739,27.185,107.739,23.361"/>
<path fill="#FFFFFF" d="M124.564,33.387l-0.933-3.553h-6.172l-0.933,3.553h-4.365l5.961-20.081H123l5.961,20.081H124.564z
	 M120.563,17.551l-2.289,8.73h4.576L120.563,17.551z"/>
<polygon fill="#FFFFFF" points="133.564,33.387 133.564,25.107 127.363,13.306 131.818,13.306 135.582,21.374 139.344,13.306 
	143.801,13.306 137.6,25.107 137.6,33.387 "/>
<path fill="#FFFFFF" d="M143.77,31.158l1.986-3.102c1.113,1.234,2.859,2.139,4.848,2.139c1.775,0,2.739-0.994,2.739-2.229
	c0-3.521-8.972-2.316-8.972-9.121c0-3.162,2.469-5.871,6.623-5.871c2.438,0,4.545,0.783,6.081,2.229l-1.927,3.011
	c-1.205-1.144-2.739-1.686-4.306-1.686c-1.444,0-2.349,0.813-2.349,2.047c0,3.131,8.941,2.288,8.941,9.063
	c0,3.521-2.408,6.111-6.805,6.111C147.593,33.748,145.364,32.754,143.77,31.158"/>
<polygon fill="#1A1A19" points="101.763,185.976 101.763,173.629 99.238,176.253 97.313,174.229 102.213,169.305 105.137,169.305 
	105.137,185.976 "/>
<path fill="#1A1A19" d="M107.413,177.652c0-4.3,1.774-8.599,5.898-8.599c4.149,0,5.899,4.3,5.899,8.599
	c0,4.272-1.725,8.623-5.899,8.623C109.188,186.275,107.413,181.926,107.413,177.652 M115.812,177.652c0-3.226-0.55-5.623-2.5-5.623
	c-1.924,0-2.474,2.397-2.474,5.623c0,3.198,0.55,5.647,2.474,5.647C115.262,183.301,115.812,180.852,115.812,177.652"/>
<polygon fill="#1A1A19" points="129.886,185.976 126.037,179.453 124.861,181.302 124.861,185.976 121.514,185.976 121.514,169.305 
	124.861,169.305 124.861,176.877 129.561,169.305 133.46,169.305 128.136,177.152 133.835,185.976 "/>
<g>
	<g>
		<defs>
			<path id="SVGID_5_" d="M117.765,37.591h-66.22c0,0.089,0.002,0.177,0.002,0.271v71.335c0,0,2.741,27.855,32.887,36.313
				c29.145,8.177,33.1,17.746,33.331,18.373c0.008,0.021,0.013,0.033,0.013,0.033s3.199-9.95,33.344-18.406
				c30.146-8.457,32.886-36.313,32.886-36.313V37.9c0-0.014,0.003-0.027,0.003-0.039c0-0.094,0.001-0.182,0.001-0.271H117.765
				L117.765,37.591z"/>
		</defs>
		<clipPath id="SVGID_6_">
			<use xlink:href="#SVGID_5_"  overflow="visible"/>
		</clipPath>
		<g clip-path="url(#SVGID_6_)">
			<g opacity="0.5">
				<g>
					<defs>
						<rect id="SVGID_7_" x="50.22" y="104.87" width="130.771" height="27.61"/>
					</defs>
					<defs>
						<rect id="SVGID_8_" x="50.22" y="104.87" width="130.771" height="27.61"/>
					</defs>
					<defs>
						<rect id="SVGID_9_" x="50.22" y="104.87" width="130.771" height="27.61"/>
					</defs>
					<defs>
						<rect id="SVGID_10_" x="50.22" y="104.87" width="130.771" height="27.61"/>
					</defs>
					<defs>
						<rect id="SVGID_11_" x="50.22" y="104.87" width="130.771" height="27.61"/>
					</defs>
					<defs>
						<rect id="SVGID_12_" x="50.22" y="104.87" width="130.771" height="27.61"/>
					</defs>
					<defs>
						<rect id="SVGID_13_" x="50.22" y="104.87" width="130.771" height="27.61"/>
					</defs>
					<defs>
						<rect id="SVGID_14_" x="50.22" y="104.87" width="130.771" height="27.61"/>
					</defs>
					<clipPath id="SVGID_15_">
						<use xlink:href="#SVGID_7_"  overflow="visible"/>
					</clipPath>
					<clipPath id="SVGID_16_" clip-path="url(#SVGID_15_)">
						<use xlink:href="#SVGID_8_"  overflow="visible"/>
					</clipPath>
					<clipPath id="SVGID_17_" clip-path="url(#SVGID_16_)">
						<use xlink:href="#SVGID_9_"  overflow="visible"/>
					</clipPath>
					<clipPath id="SVGID_18_" clip-path="url(#SVGID_17_)">
						<use xlink:href="#SVGID_10_"  overflow="visible"/>
					</clipPath>
					<clipPath id="SVGID_19_" clip-path="url(#SVGID_18_)">
						<use xlink:href="#SVGID_11_"  overflow="visible"/>
					</clipPath>
					<clipPath id="SVGID_20_" clip-path="url(#SVGID_19_)">
						<use xlink:href="#SVGID_12_"  overflow="visible"/>
					</clipPath>
					<clipPath id="SVGID_21_" clip-path="url(#SVGID_20_)">
						<use xlink:href="#SVGID_13_"  overflow="visible"/>
					</clipPath>
					<clipPath id="SVGID_22_" clip-path="url(#SVGID_21_)">
						<use xlink:href="#SVGID_14_"  overflow="visible"/>
					</clipPath>
					<path clip-path="url(#SVGID_22_)" fill="#CDA72C" d="M166.982,104.87c0,0-9.744,8.382-7.762,7.194c0,0-1.287,7.67-7.591,7.4
						c-6.303-0.267-8.125,9.171-7.882,11.126c0,0,3.949-4.619,10.466-2.967c6.517,1.654,10.058-2.413,10.937-3.702
						c0,0-2.33,7.688-6.851,8.27c0,0,11.194,2.166,15.591-5.347c4.395-7.514,6.611-16.359,7.084-17.154
						C181.445,108.896,166.982,104.87,166.982,104.87"/>
					<path clip-path="url(#SVGID_22_)" fill="#CDA72C" d="M154.16,126.278c0,0-7.975,1.536-6.607,1.02c0,0-4.303-2.372-6.645,0.854
						c-2.342,3.226-7.729,0.425-8.602-0.463c0,0,3.836-0.145,5.575-4.021c1.738-3.875,5.142-4.033,6.124-3.961
						c0,0-4.72-1.863-6.781,0.146c0,0,3.319-6.393,8.766-5.619c5.443,0.771,10.695,3.145,11.273,3.224
						C157.843,117.537,154.16,126.278,154.16,126.278"/>
					<path clip-path="url(#SVGID_22_)" fill="#CDA72C" d="M134.648,104.87c0,0-9.746,8.382-7.764,7.194c0,0-1.287,7.67-7.591,7.4
						c-6.303-0.267-8.125,9.171-7.882,11.126c0,0,3.95-4.619,10.467-2.967c6.518,1.654,10.059-2.413,10.936-3.702
						c0,0-2.33,7.688-6.85,8.27c0,0,11.194,2.166,15.59-5.347c4.396-7.514,6.612-16.359,7.084-17.154
						C149.109,108.896,134.648,104.87,134.648,104.87"/>
					<path clip-path="url(#SVGID_22_)" fill="#CDA72C" d="M121.825,126.278c0,0-7.975,1.536-6.609,1.02c0,0-4.302-2.372-6.643,0.854
						c-2.341,3.226-7.73,0.425-8.603-0.463c0,0,3.838-0.145,5.577-4.021c1.738-3.875,5.142-4.033,6.124-3.961
						c0,0-4.72-1.863-6.781,0.146c0,0,3.319-6.393,8.764-5.619c5.445,0.771,10.696,3.145,11.276,3.224
						C125.508,117.537,121.825,126.278,121.825,126.278"/>
					<path clip-path="url(#SVGID_22_)" fill="#CDA72C" d="M109.277,104.87c0,0-9.745,8.382-7.762,7.194c0,0-1.288,7.67-7.591,7.4
						c-6.302-0.267-8.125,9.171-7.882,11.126c0,0,3.95-4.619,10.467-2.967c6.516,1.654,10.057-2.413,10.935-3.702
						c0,0-2.33,7.688-6.849,8.27c0,0,11.194,2.166,15.589-5.347c4.395-7.514,6.612-16.359,7.083-17.154
						C123.739,108.896,109.277,104.87,109.277,104.87"/>
					<path clip-path="url(#SVGID_22_)" fill="#CDA72C" d="M96.455,126.278c0,0-7.975,1.536-6.609,1.02c0,0-4.302-2.372-6.644,0.854
						c-2.341,3.226-7.729,0.425-8.602-0.463c0,0,3.837-0.145,5.576-4.021c1.738-3.875,5.142-4.033,6.124-3.961
						c0,0-4.72-1.863-6.781,0.146c0,0,3.32-6.393,8.765-5.619c5.444,0.771,10.695,3.145,11.274,3.224S96.455,126.278,96.455,126.278
						"/>
					<path clip-path="url(#SVGID_22_)" fill="#CDA72C" d="M84.901,104.87c0,0-9.745,8.382-7.762,7.194c0,0-1.288,7.67-7.591,7.4
						c-6.303-0.267-8.125,9.171-7.882,11.126c0,0,3.95-4.619,10.467-2.967c6.516,1.654,10.057-2.413,10.935-3.702
						c0,0-2.33,7.688-6.849,8.27c0,0,11.194,2.166,15.589-5.347c4.395-7.514,6.613-16.359,7.084-17.154
						C99.363,108.896,84.901,104.87,84.901,104.87"/>
					<path clip-path="url(#SVGID_22_)" fill="#CDA72C" d="M72.079,126.278c0,0-7.976,1.536-6.609,1.02c0,0-4.302-2.372-6.643,0.854
						c-2.341,3.226-7.73,0.425-8.603-0.463c0,0,3.838-0.145,5.577-4.021c1.738-3.875,5.142-4.033,6.124-3.961
						c0,0-4.72-1.863-6.781,0.146c0,0,3.32-6.393,8.764-5.619c5.445,0.771,10.696,3.145,11.275,3.224
						C75.761,117.537,72.079,126.278,72.079,126.278"/>
				</g>
			</g>
			<g>
				<defs>
					<path id="SVGID_23_" d="M117.765,37.591h-66.22c0,0.089,0.002,0.177,0.002,0.271v71.335c0,0,2.741,27.855,32.887,36.313
						c29.145,8.177,33.1,17.746,33.331,18.373c0.008,0.021,0.013,0.033,0.013,0.033s3.199-9.95,33.344-18.406
						c30.146-8.457,32.886-36.313,32.886-36.313V37.9c0-0.014,0.003-0.027,0.003-0.039c0-0.094,0.001-0.182,0.001-0.271H117.765
						L117.765,37.591z"/>
				</defs>
				<clipPath id="SVGID_24_">
					<use xlink:href="#SVGID_23_"  overflow="visible"/>
				</clipPath>
				<path clip-path="url(#SVGID_24_)" fill="#FFFFFF" d="M80.292,108.646l0.161-5.137l1.02-15.3l0.372-5.574l0.52-7.803l0.173-2.601
					h23.409c0-5.201,5.202-7.804,5.202-7.804l2.288,1.716l1.873,1.405l0.833,0.624l3.901,2.926l26.825,18.854l0.693,0.485
					c0,0,0.578,0.23,1.564,0.62c0.003,0.001,0.007,0.002,0.012,0.005c0.053,0.021,0.107,0.043,0.163,0.064
					c0.024,0.009,0.05,0.02,0.073,0.029c0.054,0.02,0.105,0.041,0.161,0.063c0.014,0.005,0.026,0.012,0.041,0.018
					c0.062,0.022,0.12,0.048,0.182,0.07c0.021,0.01,0.043,0.019,0.063,0.025c0.061,0.024,0.121,0.047,0.183,0.072
					c0.011,0.004,0.021,0.008,0.032,0.012c0.099,0.039,0.197,0.078,0.3,0.118c0.058,0.021,0.112,0.044,0.169,0.065
					s0.111,0.043,0.166,0.065c0.035,0.013,0.069,0.027,0.105,0.041c0.061,0.024,0.123,0.048,0.185,0.072
					c0.033,0.013,0.065,0.024,0.099,0.039c0.057,0.021,0.113,0.044,0.172,0.065c0.045,0.02,0.09,0.035,0.136,0.054
					c0.057,0.021,0.114,0.045,0.172,0.066c0.035,0.014,0.071,0.028,0.106,0.042c0.065,0.026,0.135,0.052,0.203,0.079
					c0.047,0.02,0.096,0.038,0.145,0.056c0.046,0.02,0.091,0.036,0.138,0.056c0.084,0.031,0.17,0.064,0.257,0.1
					c0.021,0.008,0.038,0.015,0.059,0.022c0.089,0.033,0.179,0.068,0.269,0.104c0.028,0.011,0.058,0.022,0.084,0.033
					c0.068,0.025,0.14,0.053,0.207,0.08c0.068,0.025,0.138,0.053,0.204,0.079c1.189,0.462,2.501,0.967,3.871,1.486
					c0.003,0.001,0.005,0.003,0.008,0.003c0.139,0.055,0.277,0.106,0.416,0.158c0,0,0.001,0.001,0.002,0.001
					c0.133,0.05,0.266,0.102,0.396,0.151l0.063,0.022c0.125,0.048,0.25,0.096,0.375,0.143c0.014,0.004,0.023,0.009,0.034,0.013
					c0.138,0.051,0.272,0.104,0.409,0.154c0.002,0.001,0.004,0.002,0.006,0.002c0.137,0.052,0.273,0.103,0.411,0.155
					c0.013,0.005,0.024,0.01,0.038,0.014c0.126,0.048,0.253,0.095,0.379,0.144c0.021,0.009,0.044,0.017,0.064,0.023
					c0.123,0.046,0.246,0.092,0.369,0.138c0.021,0.009,0.043,0.018,0.063,0.024l0.36,0.134c0.025,0.01,0.053,0.021,0.08,0.03
					c0.117,0.044,0.237,0.089,0.356,0.133c0.024,0.009,0.05,0.018,0.075,0.028c0.113,0.042,0.228,0.084,0.342,0.126
					c0.034,0.013,0.068,0.024,0.104,0.038c0.108,0.041,0.221,0.082,0.33,0.122c0.032,0.012,0.064,0.022,0.098,0.034
					c0.111,0.041,0.222,0.082,0.332,0.122c0.035,0.015,0.07,0.026,0.104,0.039c0.109,0.04,0.219,0.079,0.325,0.119
					c0.035,0.013,0.069,0.025,0.104,0.038c0.106,0.039,0.215,0.078,0.32,0.117c0.036,0.013,0.073,0.024,0.109,0.04
					c0.103,0.037,0.205,0.074,0.307,0.109c0.041,0.017,0.082,0.03,0.123,0.047c0.102,0.035,0.201,0.07,0.303,0.106
					c0.039,0.015,0.078,0.03,0.119,0.044c0.102,0.037,0.203,0.073,0.305,0.11c0.039,0.013,0.078,0.025,0.117,0.041
					c0.092,0.034,0.186,0.066,0.276,0.1c0.049,0.019,0.099,0.034,0.146,0.052c0.094,0.033,0.186,0.065,0.275,0.1
					c0.044,0.015,0.088,0.031,0.131,0.046c0.104,0.037,0.207,0.073,0.311,0.109c0.031,0.012,0.062,0.021,0.094,0.032
					c0.097,0.034,0.193,0.068,0.29,0.104c0.04,0.014,0.081,0.027,0.121,0.042c0.084,0.029,0.166,0.058,0.249,0.087
					c0.05,0.018,0.102,0.036,0.152,0.053c0.086,0.03,0.17,0.062,0.256,0.089c0.043,0.017,0.088,0.031,0.133,0.047
					c0.08,0.027,0.16,0.056,0.24,0.082c0.051,0.019,0.101,0.035,0.149,0.054c0.075,0.023,0.149,0.051,0.226,0.075
					c0.052,0.019,0.103,0.034,0.152,0.054c0.077,0.024,0.152,0.051,0.229,0.077c0.05,0.016,0.099,0.031,0.146,0.049
					c0.123,0.041,0.244,0.082,0.364,0.122c0.237,0.079,0.469,0.166,0.692,0.26c0.004,0.001,0.008,0.003,0.012,0.004
					c0.219,0.092,0.432,0.191,0.638,0.296c0.007,0.003,0.015,0.006,0.022,0.01c0.203,0.104,0.397,0.214,0.589,0.328
					c0.009,0.005,0.019,0.011,0.028,0.018c0.188,0.112,0.367,0.231,0.543,0.355c0.012,0.008,0.021,0.017,0.033,0.023
					c0.174,0.122,0.34,0.251,0.502,0.382c0.012,0.01,0.022,0.019,0.034,0.029c0.16,0.131,0.313,0.267,0.464,0.404
					c0.012,0.013,0.023,0.022,0.034,0.033c0.147,0.14,0.291,0.283,0.431,0.429c0.01,0.014,0.021,0.023,0.03,0.034
					c0.14,0.148,0.271,0.3,0.398,0.452c0.009,0.011,0.019,0.022,0.026,0.033c0.129,0.155,0.252,0.313,0.369,0.473
					c0.008,0.01,0.016,0.021,0.022,0.03c0.12,0.163,0.233,0.328,0.344,0.495c0.005,0.007,0.011,0.014,0.015,0.021
					c0.111,0.17,0.219,0.343,0.32,0.518c0.002,0.004,0.005,0.008,0.008,0.012c1.156,1.974,1.618,4.133,1.891,5.764v9.458H80.291
					L80.292,108.646L80.292,108.646z"/>
			</g>
			<g>
				<defs>
					<path id="SVGID_25_" d="M117.765,37.591h-66.22c0,0.089,0.002,0.177,0.002,0.271v71.335c0,0,2.741,27.855,32.887,36.313
						c29.145,8.177,33.1,17.746,33.331,18.373c0.008,0.021,0.013,0.033,0.013,0.033s3.199-9.95,33.344-18.406
						c30.146-8.457,32.886-36.313,32.886-36.313V37.9c0-0.014,0.003-0.027,0.003-0.039c0-0.094,0.001-0.182,0.001-0.271H117.765
						L117.765,37.591z"/>
				</defs>
				<clipPath id="SVGID_26_">
					<use xlink:href="#SVGID_25_"  overflow="visible"/>
				</clipPath>
				<path clip-path="url(#SVGID_26_)" fill="#F8D016" d="M149.723,104.269l-43.41-30.932l4.507-7.193l11.64,9.148l27.281,18.479
					l0.747,0.507c0,0,2.847,1.103,6.744,2.561l0.006,0.032L149.723,104.269z"/>
			</g>
			<g>
				<defs>
					<path id="SVGID_27_" d="M117.765,37.591h-66.22c0,0.089,0.002,0.177,0.002,0.271v71.335c0,0,2.741,27.855,32.887,36.313
						c29.145,8.177,33.1,17.746,33.331,18.373c0.008,0.021,0.013,0.033,0.013,0.033s3.199-9.95,33.344-18.406
						c30.146-8.457,32.886-36.313,32.886-36.313V37.9c0-0.014,0.003-0.027,0.003-0.039c0-0.094,0.001-0.182,0.001-0.271H117.765
						L117.765,37.591z"/>
				</defs>
				<clipPath id="SVGID_28_">
					<use xlink:href="#SVGID_27_"  overflow="visible"/>
				</clipPath>
				<path clip-path="url(#SVGID_28_)" fill="#F8D016" d="M147.584,91.521c0.564,0.227,13.159,5.253,20.786,7.795
					c3.854,1.284,5.804,4.472,6.789,7.368H136.48L147.584,91.521z"/>
			</g>
			<g>
				<defs>
					<path id="SVGID_29_" d="M117.765,37.591h-66.22c0,0.089,0.002,0.177,0.002,0.271v71.335c0,0,2.741,27.855,32.887,36.313
						c29.145,8.177,33.1,17.746,33.331,18.373c0.008,0.021,0.013,0.033,0.013,0.033s3.199-9.95,33.344-18.406
						c30.146-8.457,32.886-36.313,32.886-36.313V37.9c0-0.014,0.003-0.027,0.003-0.039c0-0.094,0.001-0.182,0.001-0.271H117.765
						L117.765,37.591z"/>
				</defs>
				<clipPath id="SVGID_30_">
					<use xlink:href="#SVGID_29_"  overflow="visible"/>
				</clipPath>
				<polygon clip-path="url(#SVGID_30_)" fill="#191818" points="122.618,74.268 115.672,80.413 119.173,71.824 				"/>
			</g>
			<g>
				<defs>
					<path id="SVGID_31_" d="M117.765,37.591h-66.22c0,0.089,0.002,0.177,0.002,0.271v71.335c0,0,2.741,27.855,32.887,36.313
						c29.145,8.177,33.1,17.746,33.331,18.373c0.008,0.021,0.013,0.033,0.013,0.033s3.199-9.95,33.344-18.406
						c30.146-8.457,32.886-36.313,32.886-36.313V37.9c0-0.014,0.003-0.027,0.003-0.039c0-0.094,0.001-0.182,0.001-0.271H117.765
						L117.765,37.591z"/>
				</defs>
				<clipPath id="SVGID_32_">
					<use xlink:href="#SVGID_31_"  overflow="visible"/>
				</clipPath>
				<polygon clip-path="url(#SVGID_32_)" fill="#191818" points="129.154,78.925 122.209,85.069 125.71,76.481 				"/>
			</g>
			<g>
				<defs>
					<path id="SVGID_33_" d="M117.765,37.591h-66.22c0,0.089,0.002,0.177,0.002,0.271v71.335c0,0,2.741,27.855,32.887,36.313
						c29.145,8.177,33.1,17.746,33.331,18.373c0.008,0.021,0.013,0.033,0.013,0.033s3.199-9.95,33.344-18.406
						c30.146-8.457,32.886-36.313,32.886-36.313V37.9c0-0.014,0.003-0.027,0.003-0.039c0-0.094,0.001-0.182,0.001-0.271H117.765
						L117.765,37.591z"/>
				</defs>
				<clipPath id="SVGID_34_">
					<use xlink:href="#SVGID_33_"  overflow="visible"/>
				</clipPath>
				
					<line clip-path="url(#SVGID_34_)" fill="none" stroke="#191818" stroke-width="2.148" stroke-miterlimit="10" x1="175.16" y1="107.491" x2="80.292" y2="107.491"/>
			</g>
			<g>
				<defs>
					<path id="SVGID_35_" d="M117.765,37.591h-66.22c0,0.089,0.002,0.177,0.002,0.271v71.335c0,0,2.741,27.855,32.887,36.313
						c29.145,8.177,33.1,17.746,33.331,18.373c0.008,0.021,0.013,0.033,0.013,0.033s3.199-9.95,33.344-18.406
						c30.146-8.457,32.886-36.313,32.886-36.313V37.9c0-0.014,0.003-0.027,0.003-0.039c0-0.094,0.001-0.182,0.001-0.271H117.765
						L117.765,37.591z"/>
				</defs>
				<clipPath id="SVGID_36_">
					<use xlink:href="#SVGID_35_"  overflow="visible"/>
				</clipPath>
				<polygon clip-path="url(#SVGID_36_)" fill="#191818" points="135.691,83.581 128.745,89.727 132.246,81.139 				"/>
			</g>
			<g>
				<defs>
					<path id="SVGID_37_" d="M117.765,37.591h-66.22c0,0.089,0.002,0.177,0.002,0.271v71.335c0,0,2.741,27.855,32.887,36.313
						c29.145,8.177,33.1,17.746,33.331,18.373c0.008,0.021,0.013,0.033,0.013,0.033s3.199-9.95,33.344-18.406
						c30.146-8.457,32.886-36.313,32.886-36.313V37.9c0-0.014,0.003-0.027,0.003-0.039c0-0.094,0.001-0.182,0.001-0.271H117.765
						L117.765,37.591z"/>
				</defs>
				<clipPath id="SVGID_38_">
					<use xlink:href="#SVGID_37_"  overflow="visible"/>
				</clipPath>
				<polygon clip-path="url(#SVGID_38_)" fill="#191818" points="142.229,88.238 135.281,94.383 138.782,85.795 				"/>
			</g>
			<g>
				<defs>
					<path id="SVGID_39_" d="M117.765,37.591h-66.22c0,0.089,0.002,0.177,0.002,0.271v71.335c0,0,2.741,27.855,32.887,36.313
						c29.145,8.177,33.1,17.746,33.331,18.373c0.008,0.021,0.013,0.033,0.013,0.033s3.199-9.95,33.344-18.406
						c30.146-8.457,32.886-36.313,32.886-36.313V37.9c0-0.014,0.003-0.027,0.003-0.039c0-0.094,0.001-0.182,0.001-0.271H117.765
						L117.765,37.591z"/>
				</defs>
				<clipPath id="SVGID_40_">
					<use xlink:href="#SVGID_39_"  overflow="visible"/>
				</clipPath>
				<polygon clip-path="url(#SVGID_40_)" fill="#191818" points="148.764,92.896 141.818,99.04 145.318,90.452 				"/>
			</g>
			<g>
				<defs>
					<path id="SVGID_41_" d="M117.765,37.591h-66.22c0,0.089,0.002,0.177,0.002,0.271v71.335c0,0,2.741,27.855,32.887,36.313
						c29.145,8.177,33.1,17.746,33.331,18.373c0.008,0.021,0.013,0.033,0.013,0.033s3.199-9.95,33.344-18.406
						c30.146-8.457,32.886-36.313,32.886-36.313V37.9c0-0.014,0.003-0.027,0.003-0.039c0-0.094,0.001-0.182,0.001-0.271H117.765
						L117.765,37.591z"/>
				</defs>
				<clipPath id="SVGID_42_">
					<use xlink:href="#SVGID_41_"  overflow="visible"/>
				</clipPath>
				<path clip-path="url(#SVGID_42_)" fill="none" stroke="#191818" stroke-width="4.296" stroke-miterlimit="10" d="
					M80.292,108.646l0.161-5.137l1.02-15.3l0.372-5.574l0.52-7.803l0.173-2.601h23.409c0-5.201,5.202-7.804,5.202-7.804l2.288,1.716
					l1.873,1.405l0.833,0.624l3.901,2.926l26.825,18.854l0.693,0.485c0,0,0.578,0.23,1.564,0.62
					c0.003,0.001,0.007,0.002,0.012,0.005c0.053,0.021,0.107,0.043,0.163,0.064c0.024,0.009,0.05,0.02,0.073,0.029
					c0.054,0.02,0.105,0.041,0.161,0.063c0.014,0.005,0.026,0.012,0.041,0.018c0.062,0.022,0.12,0.048,0.182,0.07
					c0.021,0.01,0.043,0.019,0.063,0.025c0.061,0.024,0.121,0.047,0.183,0.072c0.011,0.004,0.021,0.008,0.032,0.012
					c0.099,0.039,0.197,0.078,0.3,0.118c0.058,0.021,0.112,0.044,0.169,0.065s0.111,0.043,0.166,0.065
					c0.035,0.013,0.069,0.027,0.105,0.041c0.061,0.024,0.123,0.048,0.185,0.072c0.033,0.013,0.065,0.024,0.099,0.039
					c0.057,0.021,0.113,0.044,0.172,0.065c0.045,0.02,0.09,0.035,0.136,0.054c0.057,0.021,0.114,0.045,0.172,0.066
					c0.035,0.014,0.071,0.028,0.106,0.042c0.065,0.026,0.135,0.052,0.203,0.079c0.047,0.02,0.096,0.038,0.145,0.056
					c0.046,0.02,0.091,0.036,0.138,0.056c0.084,0.031,0.17,0.064,0.257,0.1c0.021,0.008,0.038,0.015,0.059,0.022
					c0.089,0.033,0.179,0.068,0.269,0.104c0.028,0.011,0.058,0.022,0.084,0.033c0.068,0.025,0.14,0.053,0.207,0.08
					c0.068,0.025,0.138,0.053,0.204,0.079c1.189,0.462,2.501,0.967,3.871,1.486c0.003,0.001,0.005,0.003,0.008,0.003
					c0.139,0.055,0.277,0.106,0.416,0.158c0,0,0.001,0.001,0.002,0.001c0.133,0.05,0.266,0.102,0.396,0.151l0.063,0.022
					c0.125,0.048,0.25,0.096,0.375,0.143c0.014,0.004,0.023,0.009,0.034,0.013c0.138,0.051,0.272,0.104,0.409,0.154
					c0.002,0.001,0.004,0.002,0.006,0.002c0.137,0.052,0.273,0.103,0.411,0.155c0.013,0.005,0.024,0.01,0.038,0.014
					c0.126,0.048,0.253,0.095,0.379,0.144c0.021,0.009,0.044,0.017,0.064,0.023c0.123,0.046,0.246,0.092,0.369,0.138
					c0.021,0.009,0.043,0.018,0.063,0.024l0.36,0.134c0.025,0.01,0.053,0.021,0.08,0.03c0.117,0.044,0.237,0.089,0.356,0.133
					c0.024,0.009,0.05,0.018,0.075,0.028c0.113,0.042,0.228,0.084,0.342,0.126c0.034,0.013,0.068,0.024,0.104,0.038
					c0.108,0.041,0.221,0.082,0.33,0.122c0.032,0.012,0.064,0.022,0.098,0.034c0.111,0.041,0.222,0.082,0.332,0.122
					c0.035,0.015,0.07,0.026,0.104,0.039c0.109,0.04,0.219,0.079,0.325,0.119c0.035,0.013,0.069,0.025,0.104,0.038
					c0.106,0.039,0.215,0.078,0.32,0.117c0.036,0.013,0.073,0.024,0.109,0.04c0.103,0.037,0.205,0.074,0.307,0.109
					c0.041,0.017,0.082,0.03,0.123,0.047c0.102,0.035,0.201,0.07,0.303,0.106c0.039,0.015,0.078,0.03,0.119,0.044
					c0.102,0.037,0.203,0.073,0.305,0.11c0.039,0.013,0.078,0.025,0.117,0.041c0.092,0.034,0.186,0.066,0.276,0.1
					c0.049,0.019,0.099,0.034,0.146,0.052c0.094,0.033,0.186,0.065,0.275,0.1c0.044,0.015,0.088,0.031,0.131,0.046
					c0.104,0.037,0.207,0.073,0.311,0.109c0.031,0.012,0.062,0.021,0.094,0.032c0.097,0.034,0.193,0.068,0.29,0.104
					c0.04,0.014,0.081,0.027,0.121,0.042c0.084,0.029,0.166,0.058,0.249,0.087c0.05,0.018,0.102,0.036,0.152,0.053
					c0.086,0.03,0.17,0.062,0.256,0.089c0.043,0.017,0.088,0.031,0.133,0.047c0.08,0.027,0.16,0.056,0.24,0.082
					c0.051,0.019,0.101,0.035,0.149,0.054c0.075,0.023,0.149,0.051,0.226,0.075c0.052,0.019,0.103,0.034,0.152,0.054
					c0.077,0.024,0.152,0.051,0.229,0.077c0.05,0.016,0.099,0.031,0.146,0.049c0.123,0.041,0.244,0.082,0.364,0.122
					c0.237,0.079,0.469,0.166,0.692,0.26c0.004,0.001,0.008,0.003,0.012,0.004c0.219,0.092,0.432,0.191,0.638,0.296
					c0.007,0.003,0.015,0.006,0.022,0.01c0.203,0.104,0.397,0.214,0.589,0.328c0.009,0.005,0.019,0.011,0.028,0.018
					c0.188,0.112,0.367,0.231,0.543,0.355c0.012,0.008,0.021,0.017,0.033,0.023c0.174,0.122,0.34,0.251,0.502,0.382
					c0.012,0.01,0.022,0.019,0.034,0.029c0.16,0.131,0.313,0.267,0.464,0.404c0.012,0.013,0.023,0.022,0.034,0.033
					c0.147,0.14,0.291,0.283,0.431,0.429c0.01,0.014,0.021,0.023,0.03,0.034c0.14,0.148,0.271,0.3,0.398,0.452
					c0.009,0.011,0.019,0.022,0.026,0.033c0.129,0.155,0.252,0.313,0.369,0.473c0.008,0.01,0.016,0.021,0.022,0.03
					c0.12,0.163,0.233,0.328,0.344,0.495c0.005,0.007,0.011,0.014,0.015,0.021c0.111,0.17,0.219,0.343,0.32,0.518
					c0.002,0.004,0.005,0.008,0.008,0.012c1.156,1.974,1.618,4.133,1.891,5.764v9.458H80.291L80.292,108.646L80.292,108.646z"/>
			</g>
			<g>
				<defs>
					<path id="SVGID_43_" d="M117.765,37.591h-66.22c0,0.089,0.002,0.177,0.002,0.271v71.335c0,0,2.741,27.855,32.887,36.313
						c29.145,8.177,33.1,17.746,33.331,18.373c0.008,0.021,0.013,0.033,0.013,0.033s3.199-9.95,33.344-18.406
						c30.146-8.457,32.886-36.313,32.886-36.313V37.9c0-0.014,0.003-0.027,0.003-0.039c0-0.094,0.001-0.182,0.001-0.271H117.765
						L117.765,37.591z"/>
				</defs>
				<clipPath id="SVGID_44_">
					<use xlink:href="#SVGID_43_"  overflow="visible"/>
				</clipPath>
				<path clip-path="url(#SVGID_44_)" fill="#FFFFFF" d="M39.47,108.646l0.161-5.137l1.02-15.3l0.372-5.574l0.52-7.803l0.173-2.601
					h23.409c0-5.201,5.202-7.804,5.202-7.804l2.288,1.716l1.874,1.405l0.832,0.624l3.901,2.926l26.825,18.854l0.694,0.485
					c0,0,0.578,0.23,1.565,0.62c0.003,0.001,0.007,0.002,0.01,0.005c0.054,0.021,0.109,0.043,0.165,0.064
					c0.024,0.009,0.049,0.02,0.074,0.029c0.052,0.02,0.104,0.041,0.16,0.063c0.014,0.005,0.028,0.012,0.041,0.018
					c0.06,0.022,0.12,0.048,0.182,0.07c0.021,0.01,0.043,0.019,0.064,0.025c0.06,0.024,0.12,0.047,0.182,0.072
					c0.011,0.004,0.021,0.008,0.032,0.012c0.098,0.039,0.198,0.078,0.301,0.118c0.056,0.021,0.111,0.044,0.169,0.065
					c0.054,0.021,0.11,0.043,0.165,0.065c0.035,0.013,0.069,0.027,0.104,0.041c0.062,0.024,0.123,0.048,0.186,0.072
					c0.033,0.013,0.064,0.024,0.098,0.039c0.056,0.021,0.114,0.044,0.172,0.065c0.045,0.02,0.09,0.035,0.135,0.054
					c0.057,0.021,0.114,0.045,0.172,0.066c0.035,0.014,0.071,0.028,0.107,0.042c0.067,0.026,0.134,0.052,0.202,0.079
					c0.048,0.02,0.097,0.038,0.145,0.056c0.046,0.02,0.091,0.036,0.138,0.056c0.085,0.031,0.17,0.064,0.256,0.1
					c0.02,0.008,0.039,0.015,0.058,0.022c0.089,0.033,0.179,0.068,0.27,0.104c0.028,0.011,0.056,0.022,0.084,0.033
					c0.068,0.025,0.138,0.053,0.207,0.08c0.068,0.025,0.136,0.053,0.204,0.079c1.188,0.462,2.501,0.967,3.871,1.486
					c0.003,0.001,0.005,0.003,0.008,0.003c0.138,0.055,0.277,0.106,0.416,0.158l0.002,0.001c0.131,0.05,0.264,0.102,0.396,0.151
					l0.063,0.022c0.125,0.048,0.25,0.096,0.376,0.143l0.033,0.013c0.136,0.051,0.273,0.104,0.41,0.154
					c0.002,0.001,0.003,0.002,0.005,0.002c0.137,0.052,0.274,0.103,0.411,0.155c0.013,0.005,0.025,0.01,0.038,0.014
					c0.126,0.048,0.253,0.095,0.38,0.144c0.021,0.009,0.043,0.017,0.065,0.023c0.122,0.046,0.245,0.092,0.368,0.138
					c0.021,0.009,0.043,0.018,0.065,0.024c0.12,0.045,0.24,0.09,0.36,0.134c0.026,0.01,0.053,0.021,0.079,0.03
					c0.119,0.044,0.239,0.089,0.358,0.133c0.025,0.009,0.05,0.018,0.075,0.028c0.114,0.042,0.229,0.084,0.342,0.126l0.103,0.038
					c0.11,0.041,0.221,0.082,0.331,0.122c0.033,0.012,0.066,0.022,0.098,0.034c0.111,0.041,0.221,0.082,0.331,0.122l0.104,0.039
					c0.108,0.04,0.218,0.079,0.326,0.119c0.034,0.013,0.067,0.025,0.104,0.038c0.107,0.039,0.214,0.078,0.32,0.117
					c0.037,0.013,0.074,0.024,0.108,0.04c0.104,0.037,0.205,0.074,0.308,0.109c0.041,0.017,0.082,0.03,0.125,0.047
					c0.1,0.035,0.199,0.07,0.299,0.106c0.041,0.015,0.082,0.03,0.121,0.044c0.102,0.037,0.203,0.073,0.305,0.11
					c0.039,0.013,0.077,0.025,0.115,0.041c0.094,0.034,0.188,0.066,0.279,0.1c0.049,0.019,0.096,0.034,0.145,0.052
					c0.093,0.033,0.186,0.065,0.277,0.1c0.043,0.015,0.086,0.031,0.131,0.046c0.103,0.037,0.205,0.073,0.308,0.109
					c0.031,0.012,0.063,0.021,0.095,0.032c0.098,0.034,0.192,0.068,0.289,0.104c0.041,0.014,0.082,0.027,0.121,0.042
					c0.084,0.029,0.166,0.058,0.249,0.087c0.052,0.018,0.103,0.036,0.152,0.053c0.086,0.03,0.171,0.062,0.256,0.089
					c0.044,0.017,0.089,0.031,0.133,0.047c0.081,0.027,0.161,0.056,0.241,0.082c0.05,0.019,0.1,0.035,0.15,0.054
					c0.076,0.023,0.148,0.051,0.225,0.075c0.051,0.019,0.102,0.034,0.152,0.054c0.078,0.024,0.151,0.051,0.229,0.077
					c0.048,0.016,0.097,0.031,0.146,0.049c0.123,0.041,0.244,0.082,0.363,0.122c0.238,0.079,0.471,0.166,0.692,0.26
					c0.004,0.001,0.008,0.003,0.013,0.004c0.221,0.092,0.432,0.191,0.639,0.296c0.006,0.003,0.015,0.006,0.021,0.01
					c0.203,0.104,0.399,0.214,0.589,0.328c0.01,0.005,0.02,0.011,0.029,0.018c0.188,0.112,0.367,0.231,0.543,0.355
					c0.011,0.008,0.021,0.017,0.033,0.023c0.173,0.122,0.34,0.251,0.5,0.382c0.013,0.01,0.025,0.019,0.037,0.029
					c0.16,0.131,0.313,0.267,0.463,0.404c0.012,0.013,0.023,0.022,0.035,0.033c0.146,0.14,0.291,0.283,0.429,0.429
					c0.011,0.014,0.022,0.023,0.032,0.034c0.138,0.148,0.27,0.3,0.396,0.452c0.01,0.011,0.02,0.022,0.028,0.033
					c0.128,0.155,0.251,0.313,0.368,0.473c0.009,0.01,0.016,0.021,0.021,0.03c0.12,0.163,0.234,0.328,0.346,0.495
					c0.004,0.007,0.01,0.014,0.015,0.021c0.11,0.17,0.218,0.343,0.319,0.518c0.002,0.004,0.006,0.008,0.008,0.012
					c1.156,1.974,1.619,4.133,1.891,5.764v9.458H39.47V108.646z"/>
			</g>
			<g>
				<defs>
					<path id="SVGID_45_" d="M117.765,37.591h-66.22c0,0.089,0.002,0.177,0.002,0.271v71.335c0,0,2.741,27.855,32.887,36.313
						c29.145,8.177,33.1,17.746,33.331,18.373c0.008,0.021,0.013,0.033,0.013,0.033s3.199-9.95,33.344-18.406
						c30.146-8.457,32.886-36.313,32.886-36.313V37.9c0-0.014,0.003-0.027,0.003-0.039c0-0.094,0.001-0.182,0.001-0.271H117.765
						L117.765,37.591z"/>
				</defs>
				<clipPath id="SVGID_46_">
					<use xlink:href="#SVGID_45_"  overflow="visible"/>
				</clipPath>
				<path clip-path="url(#SVGID_46_)" fill="#F8D016" d="M108.899,104.269L65.49,73.337l4.507-7.193l11.639,9.148l27.282,18.479
					l0.747,0.507c0,0,2.847,1.103,6.744,2.561l0.007,0.032L108.899,104.269z"/>
			</g>
			<g>
				<defs>
					<path id="SVGID_47_" d="M117.765,37.591h-66.22c0,0.089,0.002,0.177,0.002,0.271v71.335c0,0,2.741,27.855,32.887,36.313
						c29.145,8.177,33.1,17.746,33.331,18.373c0.008,0.021,0.013,0.033,0.013,0.033s3.199-9.95,33.344-18.406
						c30.146-8.457,32.886-36.313,32.886-36.313V37.9c0-0.014,0.003-0.027,0.003-0.039c0-0.094,0.001-0.182,0.001-0.271H117.765
						L117.765,37.591z"/>
				</defs>
				<clipPath id="SVGID_48_">
					<use xlink:href="#SVGID_47_"  overflow="visible"/>
				</clipPath>
				<path clip-path="url(#SVGID_48_)" fill="#F8D016" d="M106.762,91.521c0.564,0.227,13.159,5.253,20.786,7.795
					c3.854,1.284,5.804,4.472,6.789,7.368H95.659L106.762,91.521z"/>
			</g>
			<g>
				<defs>
					<path id="SVGID_49_" d="M117.765,37.591h-66.22c0,0.089,0.002,0.177,0.002,0.271v71.335c0,0,2.741,27.855,32.887,36.313
						c29.145,8.177,33.1,17.746,33.331,18.373c0.008,0.021,0.013,0.033,0.013,0.033s3.199-9.95,33.344-18.406
						c30.146-8.457,32.886-36.313,32.886-36.313V37.9c0-0.014,0.003-0.027,0.003-0.039c0-0.094,0.001-0.182,0.001-0.271H117.765
						L117.765,37.591z"/>
				</defs>
				<clipPath id="SVGID_50_">
					<use xlink:href="#SVGID_49_"  overflow="visible"/>
				</clipPath>
				<polygon clip-path="url(#SVGID_50_)" fill="#191818" points="81.796,74.268 74.85,80.413 78.351,71.824 				"/>
			</g>
			<g>
				<defs>
					<path id="SVGID_51_" d="M117.765,37.591h-66.22c0,0.089,0.002,0.177,0.002,0.271v71.335c0,0,2.741,27.855,32.887,36.313
						c29.145,8.177,33.1,17.746,33.331,18.373c0.008,0.021,0.013,0.033,0.013,0.033s3.199-9.95,33.344-18.406
						c30.146-8.457,32.886-36.313,32.886-36.313V37.9c0-0.014,0.003-0.027,0.003-0.039c0-0.094,0.001-0.182,0.001-0.271H117.765
						L117.765,37.591z"/>
				</defs>
				<clipPath id="SVGID_52_">
					<use xlink:href="#SVGID_51_"  overflow="visible"/>
				</clipPath>
				<polygon clip-path="url(#SVGID_52_)" fill="#191818" points="88.332,78.925 81.386,85.069 84.887,76.481 				"/>
			</g>
			<g>
				<defs>
					<path id="SVGID_53_" d="M117.765,37.591h-66.22c0,0.089,0.002,0.177,0.002,0.271v71.335c0,0,2.741,27.855,32.887,36.313
						c29.145,8.177,33.1,17.746,33.331,18.373c0.008,0.021,0.013,0.033,0.013,0.033s3.199-9.95,33.344-18.406
						c30.146-8.457,32.886-36.313,32.886-36.313V37.9c0-0.014,0.003-0.027,0.003-0.039c0-0.094,0.001-0.182,0.001-0.271H117.765
						L117.765,37.591z"/>
				</defs>
				<clipPath id="SVGID_54_">
					<use xlink:href="#SVGID_53_"  overflow="visible"/>
				</clipPath>
				
					<line clip-path="url(#SVGID_54_)" fill="none" stroke="#191818" stroke-width="2.148" stroke-miterlimit="10" x1="134.338" y1="107.491" x2="39.469" y2="107.491"/>
			</g>
			<g>
				<defs>
					<path id="SVGID_55_" d="M117.765,37.591h-66.22c0,0.089,0.002,0.177,0.002,0.271v71.335c0,0,2.741,27.855,32.887,36.313
						c29.145,8.177,33.1,17.746,33.331,18.373c0.008,0.021,0.013,0.033,0.013,0.033s3.199-9.95,33.344-18.406
						c30.146-8.457,32.886-36.313,32.886-36.313V37.9c0-0.014,0.003-0.027,0.003-0.039c0-0.094,0.001-0.182,0.001-0.271H117.765
						L117.765,37.591z"/>
				</defs>
				<clipPath id="SVGID_56_">
					<use xlink:href="#SVGID_55_"  overflow="visible"/>
				</clipPath>
				<polygon clip-path="url(#SVGID_56_)" fill="#191818" points="94.869,83.581 87.923,89.727 91.424,81.139 				"/>
			</g>
			<g>
				<defs>
					<path id="SVGID_57_" d="M117.765,37.591h-66.22c0,0.089,0.002,0.177,0.002,0.271v71.335c0,0,2.741,27.855,32.887,36.313
						c29.145,8.177,33.1,17.746,33.331,18.373c0.008,0.021,0.013,0.033,0.013,0.033s3.199-9.95,33.344-18.406
						c30.146-8.457,32.886-36.313,32.886-36.313V37.9c0-0.014,0.003-0.027,0.003-0.039c0-0.094,0.001-0.182,0.001-0.271H117.765
						L117.765,37.591z"/>
				</defs>
				<clipPath id="SVGID_58_">
					<use xlink:href="#SVGID_57_"  overflow="visible"/>
				</clipPath>
				<polygon clip-path="url(#SVGID_58_)" fill="#191818" points="101.405,88.238 94.459,94.383 97.96,85.795 				"/>
			</g>
			<g>
				<defs>
					<path id="SVGID_59_" d="M117.765,37.591h-66.22c0,0.089,0.002,0.177,0.002,0.271v71.335c0,0,2.741,27.855,32.887,36.313
						c29.145,8.177,33.1,17.746,33.331,18.373c0.008,0.021,0.013,0.033,0.013,0.033s3.199-9.95,33.344-18.406
						c30.146-8.457,32.886-36.313,32.886-36.313V37.9c0-0.014,0.003-0.027,0.003-0.039c0-0.094,0.001-0.182,0.001-0.271H117.765
						L117.765,37.591z"/>
				</defs>
				<clipPath id="SVGID_60_">
					<use xlink:href="#SVGID_59_"  overflow="visible"/>
				</clipPath>
				<polygon clip-path="url(#SVGID_60_)" fill="#191818" points="107.941,92.896 100.995,99.04 104.496,90.452 				"/>
			</g>
			<g>
				<defs>
					<path id="SVGID_61_" d="M117.765,37.591h-66.22c0,0.089,0.002,0.177,0.002,0.271v71.335c0,0,2.741,27.855,32.887,36.313
						c29.145,8.177,33.1,17.746,33.331,18.373c0.008,0.021,0.013,0.033,0.013,0.033s3.199-9.95,33.344-18.406
						c30.146-8.457,32.886-36.313,32.886-36.313V37.9c0-0.014,0.003-0.027,0.003-0.039c0-0.094,0.001-0.182,0.001-0.271H117.765
						L117.765,37.591z"/>
				</defs>
				<clipPath id="SVGID_62_">
					<use xlink:href="#SVGID_61_"  overflow="visible"/>
				</clipPath>
				<path clip-path="url(#SVGID_62_)" fill="none" stroke="#191818" stroke-width="4.296" stroke-miterlimit="10" d="M39.47,108.646
					l0.161-5.137l1.02-15.3l0.372-5.574l0.52-7.803l0.173-2.601h23.409c0-5.201,5.202-7.804,5.202-7.804l2.288,1.716l1.874,1.405
					l0.832,0.624l3.901,2.926l26.825,18.854l0.694,0.485c0,0,0.578,0.23,1.565,0.62c0.003,0.001,0.007,0.002,0.01,0.005
					c0.054,0.021,0.109,0.043,0.165,0.064c0.024,0.009,0.049,0.02,0.074,0.029c0.052,0.02,0.104,0.041,0.16,0.063
					c0.014,0.005,0.028,0.012,0.041,0.018c0.06,0.022,0.12,0.048,0.182,0.07c0.021,0.01,0.043,0.019,0.064,0.025
					c0.06,0.024,0.12,0.047,0.182,0.072c0.011,0.004,0.021,0.008,0.032,0.012c0.098,0.039,0.198,0.078,0.301,0.118
					c0.056,0.021,0.111,0.044,0.169,0.065c0.054,0.021,0.11,0.043,0.165,0.065c0.035,0.013,0.069,0.027,0.104,0.041
					c0.062,0.024,0.123,0.048,0.186,0.072c0.033,0.013,0.064,0.024,0.098,0.039c0.056,0.021,0.114,0.044,0.172,0.065
					c0.045,0.02,0.09,0.035,0.135,0.054c0.057,0.021,0.114,0.045,0.172,0.066c0.035,0.014,0.071,0.028,0.107,0.042
					c0.067,0.026,0.134,0.052,0.202,0.079c0.048,0.02,0.097,0.038,0.145,0.056c0.046,0.02,0.091,0.036,0.138,0.056
					c0.085,0.031,0.17,0.064,0.256,0.1c0.02,0.008,0.039,0.015,0.058,0.022c0.089,0.033,0.179,0.068,0.27,0.104
					c0.028,0.011,0.056,0.022,0.084,0.033c0.068,0.025,0.138,0.053,0.207,0.08c0.068,0.025,0.136,0.053,0.204,0.079
					c1.188,0.462,2.501,0.967,3.871,1.486c0.003,0.001,0.005,0.003,0.008,0.003c0.138,0.055,0.277,0.106,0.416,0.158l0.002,0.001
					c0.131,0.05,0.264,0.102,0.396,0.151l0.063,0.022c0.125,0.048,0.25,0.096,0.376,0.143l0.033,0.013
					c0.136,0.051,0.273,0.104,0.41,0.154c0.002,0.001,0.003,0.002,0.005,0.002c0.137,0.052,0.274,0.103,0.411,0.155
					c0.013,0.005,0.025,0.01,0.038,0.014c0.126,0.048,0.253,0.095,0.38,0.144c0.021,0.009,0.043,0.017,0.065,0.023
					c0.122,0.046,0.245,0.092,0.368,0.138c0.021,0.009,0.043,0.018,0.065,0.024c0.12,0.045,0.24,0.09,0.36,0.134
					c0.026,0.01,0.053,0.021,0.079,0.03c0.119,0.044,0.239,0.089,0.358,0.133c0.025,0.009,0.05,0.018,0.075,0.028
					c0.114,0.042,0.229,0.084,0.342,0.126l0.103,0.038c0.11,0.041,0.221,0.082,0.331,0.122c0.033,0.012,0.066,0.022,0.098,0.034
					c0.111,0.041,0.221,0.082,0.331,0.122l0.104,0.039c0.108,0.04,0.218,0.079,0.326,0.119c0.034,0.013,0.067,0.025,0.104,0.038
					c0.107,0.039,0.214,0.078,0.32,0.117c0.037,0.013,0.074,0.024,0.108,0.04c0.104,0.037,0.205,0.074,0.308,0.109
					c0.041,0.017,0.082,0.03,0.125,0.047c0.1,0.035,0.199,0.07,0.299,0.106c0.041,0.015,0.082,0.03,0.121,0.044
					c0.102,0.037,0.203,0.073,0.305,0.11c0.039,0.013,0.077,0.025,0.115,0.041c0.094,0.034,0.188,0.066,0.279,0.1
					c0.049,0.019,0.096,0.034,0.145,0.052c0.093,0.033,0.186,0.065,0.277,0.1c0.043,0.015,0.086,0.031,0.131,0.046
					c0.103,0.037,0.205,0.073,0.308,0.109c0.031,0.012,0.063,0.021,0.095,0.032c0.098,0.034,0.192,0.068,0.289,0.104
					c0.041,0.014,0.082,0.027,0.121,0.042c0.084,0.029,0.166,0.058,0.249,0.087c0.052,0.018,0.103,0.036,0.152,0.053
					c0.086,0.03,0.171,0.062,0.256,0.089c0.044,0.017,0.089,0.031,0.133,0.047c0.081,0.027,0.161,0.056,0.241,0.082
					c0.05,0.019,0.1,0.035,0.15,0.054c0.076,0.023,0.148,0.051,0.225,0.075c0.051,0.019,0.102,0.034,0.152,0.054
					c0.078,0.024,0.151,0.051,0.229,0.077c0.048,0.016,0.097,0.031,0.146,0.049c0.123,0.041,0.244,0.082,0.363,0.122
					c0.238,0.079,0.471,0.166,0.692,0.26c0.004,0.001,0.008,0.003,0.013,0.004c0.221,0.092,0.432,0.191,0.639,0.296
					c0.006,0.003,0.015,0.006,0.021,0.01c0.203,0.104,0.399,0.214,0.589,0.328c0.01,0.005,0.02,0.011,0.029,0.018
					c0.188,0.112,0.367,0.231,0.543,0.355c0.011,0.008,0.021,0.017,0.033,0.023c0.173,0.122,0.34,0.251,0.5,0.382
					c0.013,0.01,0.025,0.019,0.037,0.029c0.16,0.131,0.313,0.267,0.463,0.404c0.012,0.013,0.023,0.022,0.035,0.033
					c0.146,0.14,0.291,0.283,0.429,0.429c0.011,0.014,0.022,0.023,0.032,0.034c0.138,0.148,0.27,0.3,0.396,0.452
					c0.01,0.011,0.02,0.022,0.028,0.033c0.128,0.155,0.251,0.313,0.368,0.473c0.009,0.01,0.016,0.021,0.021,0.03
					c0.12,0.163,0.234,0.328,0.346,0.495c0.004,0.007,0.01,0.014,0.015,0.021c0.11,0.17,0.218,0.343,0.319,0.518
					c0.002,0.004,0.006,0.008,0.008,0.012c1.156,1.974,1.619,4.133,1.891,5.764v9.458H39.47V108.646z"/>
			</g>
			<g>
				<defs>
					<path id="SVGID_63_" d="M117.765,37.591h-66.22c0,0.089,0.002,0.177,0.002,0.271v71.335c0,0,2.741,27.855,32.887,36.313
						c29.145,8.177,33.1,17.746,33.331,18.373c0.008,0.021,0.013,0.033,0.013,0.033s3.199-9.95,33.344-18.406
						c30.146-8.457,32.886-36.313,32.886-36.313V37.9c0-0.014,0.003-0.027,0.003-0.039c0-0.094,0.001-0.182,0.001-0.271H117.765
						L117.765,37.591z"/>
				</defs>
				<clipPath id="SVGID_64_">
					<use xlink:href="#SVGID_63_"  overflow="visible"/>
				</clipPath>
				<polygon clip-path="url(#SVGID_64_)" fill="#F8D016" points="66.931,84.355 80.229,91.134 76.676,93.908 82.936,100.462 
					69.637,93.684 73.19,90.908 				"/>
			</g>
		</g>
		<path clip-path="url(#SVGID_6_)" fill="#191818" d="M179.271,12.61l3.393,5.225c-3.477,4.128-6.325,10.429-6.393,19.495v0.061
			v0.04l-0.002,0.024l-0.002,0.165v0.04v0.039v71.391c-0.394,2.728-4.037,22.62-27.061,29.079
			c-5.879,1.649-21.528,6.528-31.393,14.107c-5.686-4.469-15.25-9.594-31.342-14.107c-22.9-6.425-26.624-26.116-27.06-29.098V37.66
			L59.41,37.39l-0.001-0.064c-0.067-9.064-2.915-15.362-6.392-19.49l3.393-5.225h28.033h23.781h9.198h33.814H179.271 M183.814,4.244
			h-32.576h-33.815h-9.198H84.444H51.868L41.834,19.698c0,0,9.1,2.806,9.21,17.688c0.001,0.091,0.003,0.182,0.003,0.272v71.939
			c0,0,2.764,28.096,33.166,36.624c29.394,8.245,33.383,17.896,33.615,18.528c0.008,0.022,0.012,0.033,0.012,0.033
			s3.227-10.034,33.627-18.563c30.403-8.528,33.167-36.624,33.167-36.624v-71.9c0-0.014,0.001-0.025,0.001-0.039
			c0-0.092,0.002-0.183,0.002-0.272c0.111-14.884,9.211-17.688,9.211-17.688L183.814,4.244z"/>
	</g>
</g>
</svg>
