<?xml version="1.0" encoding="utf-8"?>
<!-- Generator: Adobe Illustrator 16.0.0, SVG Export Plug-In . SVG Version: 6.00 Build 0)  -->
<!DOCTYPE svg PUBLIC "-//W3C//DTD SVG 1.1//EN" "http://www.w3.org/Graphics/SVG/1.1/DTD/svg11.dtd">
<svg version="1.1" id="Layer_1" xmlns="http://www.w3.org/2000/svg" xmlns:xlink="http://www.w3.org/1999/xlink" x="0px" y="0px"
	 width="240px" height="195px" viewBox="0 0 240 195" enable-background="new 0 0 240 195" xml:space="preserve">
<path fill="none" d="M78.63-2257.76"/>
<path fill="none" d="M78.63,987.837"/>
<path fill="none" d="M51.764,1616.837"/>
<path fill="none" d="M51.764-1628.76"/>
<line fill="#929497" x1="1530.52" y1="-66.557" x2="1530.52" y2="-65.807"/>
<line fill="#929497" x1="-611.484" y1="-65.807" x2="-611.484" y2="-66.557"/>
<path fill="#76CFE7" d="M53.425,142.95l63.405,36.604c1.695,0.979,3.943,1.451,6.18,1.428c2.117-0.026,4.223-0.498,5.826-1.428
	l63.406-36.604c3.301-1.906,6.002-6.586,6.002-10.399V59.338c0-3.813-2.701-8.492-6.002-10.397l-63.406-36.606
	c-1.605-0.928-3.709-1.4-5.826-1.425c-2.234-0.027-4.482,0.445-6.18,1.425L53.425,48.94c-3.302,1.905-6.003,6.586-6.003,10.397
	v73.213C47.422,136.364,50.123,141.044,53.425,142.95"/>
<path fill="#5CBDD5" d="M191.707,142.969c3.302-1.903,6.004-6.586,6.004-10.396V59.359c0-3.813-2.702-8.492-6.004-10.399
	l-63.404-36.606c-1.486-0.858-3.4-1.322-5.355-1.406v170.039c1.955-0.085,3.869-0.552,5.355-1.407L191.707,142.969z"/>
<g opacity="0.4">
	<g>
		<g>
			<g>
				<defs>
					<rect id="SVGID_1_" x="44.92" y="8.09" width="155.83" height="175.71"/>
				</defs>
				<clipPath id="SVGID_2_">
					<use xlink:href="#SVGID_1_"  overflow="visible"/>
				</clipPath>
				<path clip-path="url(#SVGID_2_)" fill="#FFFFFF" d="M122.833,23.508l62.731,36.219v72.437l-62.731,36.22l-62.731-36.219V59.727
					L122.833,23.508 M122.832,8.088c-2.248,0-4.496,0.488-6.202,1.473l-65.506,37.82c-3.412,1.97-6.203,6.805-6.203,10.744v75.64
					c0,3.939,2.791,8.773,6.203,10.744l65.506,37.819c1.706,0.984,3.954,1.474,6.202,1.474c0.061,0,0.123,0,0.184-0.001
					c2.188-0.024,4.36-0.515,6.021-1.473l65.507-37.819c3.411-1.971,6.202-6.805,6.202-10.744v-75.64
					c0-3.939-2.791-8.774-6.202-10.744l-65.507-37.82c-1.659-0.958-3.832-1.446-6.021-1.472
					C122.955,8.088,122.893,8.088,122.832,8.088"/>
			</g>
		</g>
	</g>
</g>
<path fill="#1A1A19" d="M122.832,16.367l0.086,0.001c1.124,0.014,1.822,0.273,1.979,0.363l65.507,37.82
	c0.849,0.489,2.063,2.593,2.063,3.573v75.64c0,0.979-1.215,3.083-2.063,3.573l-65.507,37.819c-0.155,0.09-0.854,0.351-1.978,0.364
	h-0.088c-1.168,0-1.897-0.271-2.063-0.364l-65.505-37.819c-0.848-0.49-2.063-2.594-2.063-3.573v-75.64
	c0-0.98,1.213-3.084,2.063-3.573l65.505-37.82C120.934,16.638,121.664,16.367,122.832,16.367 M122.832,8.088
	c-2.248,0-4.496,0.488-6.202,1.473l-65.506,37.82c-3.412,1.97-6.203,6.805-6.203,10.744v75.64c0,3.939,2.791,8.773,6.203,10.744
	l65.506,37.819c1.706,0.984,3.954,1.474,6.202,1.474c0.063,0,0.123,0,0.184-0.001c2.188-0.024,4.36-0.515,6.021-1.473l65.507-37.819
	c3.411-1.971,6.202-6.805,6.202-10.744v-75.64c0-3.939-2.791-8.774-6.202-10.744l-65.507-37.82
	c-1.659-0.958-3.832-1.446-6.021-1.472C122.955,8.088,122.893,8.088,122.832,8.088"/>
<g>
	<g>
		<g>
			<defs>
				<path id="SVGID_3_" d="M116.629,9.561L51.125,47.38c-3.413,1.97-6.204,6.806-6.204,10.744v75.641
					c0,3.939,2.791,8.774,6.204,10.742l65.504,37.822c1.752,1.011,4.078,1.499,6.387,1.472c2.188-0.023,4.36-0.515,6.021-1.472
					l65.507-37.822c3.41-1.968,6.201-6.803,6.201-10.742V58.124c0-3.938-2.791-8.774-6.201-10.744L129.037,9.561
					c-1.66-0.957-3.833-1.445-6.021-1.473c-0.061,0-0.117-0.001-0.18-0.001C120.587,8.087,118.336,8.576,116.629,9.561"/>
			</defs>
			<clipPath id="SVGID_4_">
				<use xlink:href="#SVGID_3_"  overflow="visible"/>
			</clipPath>
			<rect x="32.016" y="123.945" clip-path="url(#SVGID_4_)" fill="#231F20" width="185.473" height="121.992"/>
		</g>
	</g>
</g>
<g>
	<g>
		<g>
			<defs>
				<path id="SVGID_5_" d="M116.701,10.545l-64.76,37.388c-3.373,1.948-6.135,6.729-6.135,10.622v74.779
					c0,3.895,2.762,8.674,6.135,10.622l64.76,37.389c1.73,1,4.029,1.482,6.313,1.456c2.159-0.022,4.312-0.509,5.95-1.456
					l64.761-37.389c3.373-1.948,6.133-6.728,6.133-10.622V58.555c0-3.894-2.76-8.674-6.133-10.622l-64.761-37.388
					c-1.641-0.948-3.791-1.432-5.95-1.456c-0.061-0.001-0.121-0.001-0.181-0.001C120.611,9.088,118.387,9.57,116.701,10.545"/>
			</defs>
			<clipPath id="SVGID_6_">
				<use xlink:href="#SVGID_5_"  overflow="visible"/>
			</clipPath>
			<g clip-path="url(#SVGID_6_)">
				<g>
					<g opacity="0.6">
						<g>
							<defs>
								<rect id="SVGID_7_" x="49.66" y="72.91" width="107.229" height="4.188"/>
							</defs>
							<clipPath id="SVGID_8_">
								<use xlink:href="#SVGID_7_"  overflow="visible"/>
							</clipPath>
							<path clip-path="url(#SVGID_8_)" fill="#FFFFFF" d="M49.66,75.203c0,0,1.676,0.056,4.607,0.155
								c2.932,0.104,7.121,0.211,12.147,0.358c2.513,0.073,5.235,0.151,8.116,0.234c2.879,0.074,5.916,0.152,9.058,0.231
								c3.143,0.077,6.389,0.165,9.688,0.226c3.3,0.066,6.648,0.135,10,0.203s6.701,0.168,10,0.273
								c3.3,0.112,6.545,0.194,9.688,0.211c3.142,0.002,6.179-0.041,9.06-0.142c2.879-0.087,5.603-0.203,8.113-0.338
								c2.514-0.131,4.817-0.281,6.859-0.44c1.021-0.08,1.977-0.156,2.859-0.228c0.883-0.082,1.694-0.158,2.429-0.229
								c0.731-0.063,1.388-0.141,1.957-0.201c0.569-0.062,1.054-0.113,1.446-0.165c0.783-0.101,1.203-0.152,1.203-0.152V74.8
								c0,0-0.42-0.053-1.203-0.151c-0.395-0.051-0.877-0.104-1.446-0.164c-0.569-0.063-1.226-0.139-1.957-0.203
								c-0.732-0.068-1.546-0.145-2.429-0.229c-0.885-0.068-1.84-0.146-2.859-0.228c-2.042-0.158-4.348-0.31-6.859-0.438
								c-2.513-0.136-5.234-0.252-8.113-0.339c-2.881-0.101-5.918-0.144-9.06-0.143c-3.144,0.018-6.389,0.099-9.688,0.211
								c-3.299,0.105-6.648,0.207-10,0.275c-3.352,0.067-6.7,0.137-10,0.201c-3.299,0.063-6.545,0.148-9.688,0.227
								c-3.142,0.081-6.179,0.157-9.058,0.23c-2.881,0.083-5.604,0.162-8.116,0.234c-5.026,0.149-9.216,0.254-12.147,0.36
								c-2.932,0.099-4.607,0.153-4.607,0.153V75.203z"/>
						</g>
					</g>
					<g>
						<g>
							<defs>
								<path id="SVGID_9_" d="M116.701,10.545l-64.76,37.388c-3.373,1.948-6.135,6.729-6.135,10.622v74.779
									c0,3.895,2.762,8.674,6.135,10.622l64.76,37.389c1.73,1,4.029,1.482,6.313,1.456c2.159-0.022,4.312-0.509,5.95-1.456
									l64.761-37.389c3.373-1.948,6.133-6.728,6.133-10.622V58.555c0-3.894-2.76-8.674-6.133-10.622l-64.761-37.388
									c-1.641-0.948-3.791-1.432-5.95-1.456c-0.061-0.001-0.121-0.001-0.181-0.001C120.611,9.088,118.387,9.57,116.701,10.545"/>
							</defs>
							<clipPath id="SVGID_10_">
								<use xlink:href="#SVGID_9_"  overflow="visible"/>
							</clipPath>
							<g clip-path="url(#SVGID_10_)">
								<g>
									<g opacity="0.5">
										<g>
											<defs>
												<rect id="SVGID_11_" x="49.66" y="83.8" width="107.229" height="4.19"/>
											</defs>
											<clipPath id="SVGID_12_">
												<use xlink:href="#SVGID_11_"  overflow="visible"/>
											</clipPath>
											<path clip-path="url(#SVGID_12_)" fill="#FFFFFF" d="M49.66,86.095c0,0,1.676,0.057,4.607,0.154
												c2.932,0.106,7.121,0.212,12.147,0.36c2.513,0.072,5.235,0.15,8.116,0.233c2.879,0.074,5.916,0.151,9.058,0.231
												c3.143,0.077,6.389,0.165,9.688,0.226c3.3,0.066,6.648,0.135,10,0.203s6.701,0.168,10,0.274
												c3.3,0.111,6.545,0.193,9.688,0.211c3.142,0.001,6.179-0.041,9.06-0.143c2.879-0.087,5.603-0.203,8.113-0.338
												c2.514-0.131,4.817-0.281,6.859-0.439c1.021-0.081,1.977-0.157,2.859-0.229c0.883-0.082,1.694-0.158,2.429-0.228
												c0.731-0.064,1.388-0.142,1.957-0.202c0.569-0.062,1.054-0.113,1.446-0.165c0.783-0.101,1.203-0.152,1.203-0.152v-0.403
												c0,0-0.42-0.053-1.203-0.152c-0.395-0.05-0.877-0.104-1.446-0.164c-0.569-0.062-1.226-0.138-1.957-0.202
												c-0.732-0.068-1.546-0.145-2.429-0.228c-0.885-0.07-1.84-0.147-2.859-0.229c-2.042-0.158-4.348-0.31-6.859-0.438
												c-2.513-0.136-5.234-0.251-8.113-0.339c-2.881-0.102-5.918-0.145-9.06-0.143c-3.144,0.017-6.389,0.099-9.688,0.211
												c-3.299,0.106-6.648,0.207-10,0.275c-3.352,0.067-6.7,0.137-10,0.201c-3.299,0.063-6.545,0.148-9.688,0.227
												c-3.142,0.08-6.179,0.157-9.058,0.23c-2.881,0.083-5.604,0.162-8.116,0.234c-5.026,0.149-9.216,0.254-12.147,0.36
												c-2.932,0.099-4.607,0.153-4.607,0.153V86.095z"/>
										</g>
									</g>
									<g>
										<g>
											<defs>
												<path id="SVGID_13_" d="M116.701,10.545l-64.76,37.388c-3.373,1.948-6.135,6.729-6.135,10.622v74.779
													c0,3.895,2.762,8.674,6.135,10.622l64.76,37.389c1.73,1,4.029,1.482,6.313,1.456c2.159-0.022,4.312-0.509,5.95-1.456
													l64.761-37.389c3.373-1.948,6.133-6.728,6.133-10.622V58.555c0-3.894-2.76-8.674-6.133-10.622l-64.761-37.388
													c-1.641-0.948-3.791-1.432-5.95-1.456c-0.061-0.001-0.121-0.001-0.181-0.001C120.611,9.088,118.387,9.57,116.701,10.545
													"/>
											</defs>
											<clipPath id="SVGID_14_">
												<use xlink:href="#SVGID_13_"  overflow="visible"/>
											</clipPath>
											<g clip-path="url(#SVGID_14_)">
												<g>
													<g opacity="0.4">
														<g>
															<defs>
																<rect id="SVGID_15_" x="49.66" y="94.689" width="107.229" height="4.189"/>
															</defs>
															<clipPath id="SVGID_16_">
																<use xlink:href="#SVGID_15_"  overflow="visible"/>
															</clipPath>
															<path clip-path="url(#SVGID_16_)" fill="#FFFFFF" d="M49.66,96.985c0,0,1.676,0.056,4.607,0.154
																c2.932,0.105,7.121,0.211,12.147,0.361c2.513,0.071,5.235,0.149,8.116,0.232c2.879,0.073,5.916,0.151,9.058,0.231
																c3.143,0.077,6.389,0.165,9.688,0.226c3.3,0.066,6.648,0.135,10,0.202c3.352,0.069,6.701,0.168,10,0.275
																c3.3,0.111,6.545,0.193,9.688,0.211c3.142,0.001,6.179-0.041,9.06-0.143c2.879-0.087,5.603-0.203,8.113-0.338
																c2.514-0.132,4.817-0.281,6.859-0.439c1.021-0.081,1.977-0.157,2.859-0.229c0.883-0.081,1.694-0.157,2.429-0.226
																c0.731-0.066,1.388-0.143,1.957-0.203c0.569-0.062,1.054-0.114,1.446-0.165c0.783-0.1,1.203-0.153,1.203-0.153v-0.4
																c0,0-0.42-0.055-1.203-0.154c-0.395-0.05-0.877-0.104-1.446-0.164s-1.226-0.138-1.957-0.203
																c-0.732-0.067-1.546-0.144-2.429-0.227c-0.885-0.07-1.84-0.146-2.859-0.229c-2.042-0.157-4.348-0.308-6.859-0.438
																c-2.513-0.136-5.234-0.251-8.113-0.339c-2.881-0.102-5.918-0.145-9.06-0.144c-3.144,0.019-6.389,0.101-9.688,0.211
																c-3.299,0.107-6.648,0.207-10,0.276c-3.352,0.067-6.7,0.136-10,0.203c-3.299,0.06-6.545,0.146-9.688,0.224
																c-3.142,0.081-6.179,0.158-9.058,0.232c-2.881,0.082-5.604,0.161-8.116,0.232c-5.026,0.15-9.216,0.256-12.147,0.361
																c-2.932,0.098-4.607,0.155-4.607,0.155V96.985z"/>
														</g>
													</g>
													<g>
														<g>
															<defs>
																<path id="SVGID_17_" d="M116.701,10.545l-64.76,37.388c-3.373,1.948-6.135,6.729-6.135,10.622v74.779
																	c0,3.895,2.762,8.674,6.135,10.622l64.76,37.389c1.73,1,4.029,1.482,6.313,1.456
																	c2.159-0.022,4.312-0.509,5.95-1.456l64.761-37.389c3.373-1.948,6.133-6.728,6.133-10.622V58.555
																	c0-3.894-2.76-8.674-6.133-10.622l-64.761-37.388c-1.641-0.948-3.791-1.432-5.95-1.456
																	c-0.061-0.001-0.121-0.001-0.181-0.001C120.611,9.088,118.387,9.57,116.701,10.545"/>
															</defs>
															<clipPath id="SVGID_18_">
																<use xlink:href="#SVGID_17_"  overflow="visible"/>
															</clipPath>
															<g clip-path="url(#SVGID_18_)">
																<g>
																	<g opacity="0.9">
																		<g>
																			<defs>
																				<rect id="SVGID_19_" x="49.66" y="40.93" width="107.229" height="4.2"/>
																			</defs>
																			<clipPath id="SVGID_20_">
																				<use xlink:href="#SVGID_19_"  overflow="visible"/>
																			</clipPath>
																			<path clip-path="url(#SVGID_20_)" fill="#FFFFFF" d="M49.66,43.232c0,0,1.676,0.056,4.607,0.153
																				c2.932,0.106,7.121,0.211,12.147,0.361c2.513,0.072,5.235,0.149,8.116,0.233c2.879,0.072,5.916,0.15,9.058,0.23
																				c3.143,0.077,6.389,0.165,9.688,0.226c3.3,0.066,6.648,0.136,10,0.202c3.352,0.069,6.701,0.168,10,0.275
																				c3.3,0.112,6.545,0.194,9.688,0.211c3.142,0.001,6.179-0.041,9.06-0.142c2.879-0.088,5.603-0.203,8.113-0.339
																				c2.514-0.132,4.817-0.28,6.859-0.439c1.021-0.081,1.977-0.157,2.859-0.229c0.883-0.082,1.694-0.157,2.429-0.228
																				c0.731-0.064,1.388-0.141,1.957-0.202c0.569-0.061,1.054-0.113,1.446-0.165c0.783-0.1,1.203-0.152,1.203-0.152
																				v-0.401c0,0-0.42-0.054-1.203-0.154c-0.395-0.05-0.877-0.103-1.446-0.164c-0.569-0.061-1.226-0.138-1.957-0.203
																				c-0.732-0.066-1.546-0.144-2.429-0.227c-0.885-0.07-1.84-0.146-2.859-0.229
																				c-2.042-0.157-4.348-0.309-6.859-0.438c-2.513-0.135-5.234-0.251-8.113-0.338
																				c-2.881-0.102-5.918-0.145-9.06-0.145c-3.144,0.02-6.389,0.101-9.688,0.212c-3.299,0.106-6.648,0.207-10,0.275
																				s-6.7,0.136-10,0.202c-3.299,0.061-6.545,0.147-9.688,0.225c-3.142,0.081-6.179,0.158-9.058,0.232
																				c-2.881,0.083-5.604,0.162-8.116,0.233c-5.026,0.149-9.216,0.256-12.147,0.36
																				c-2.932,0.099-4.607,0.155-4.607,0.155V43.232z"/>
																		</g>
																	</g>
																	<g>
																		<g>
																			<defs>
																				<path id="SVGID_21_" d="M116.701,10.545l-64.76,37.388c-3.373,1.948-6.135,6.729-6.135,10.622v74.779
																					c0,3.895,2.762,8.674,6.135,10.622l64.76,37.389c1.73,1,4.029,1.482,6.313,1.456
																					c2.159-0.022,4.312-0.509,5.95-1.456l64.761-37.389c3.373-1.948,6.133-6.728,6.133-10.622V58.555
																					c0-3.894-2.76-8.674-6.133-10.622l-64.761-37.388c-1.641-0.948-3.791-1.432-5.95-1.456
																					c-0.061-0.001-0.121-0.001-0.181-0.001C120.611,9.088,118.387,9.57,116.701,10.545"/>
																			</defs>
																			<clipPath id="SVGID_22_">
																				<use xlink:href="#SVGID_21_"  overflow="visible"/>
																			</clipPath>
																			<g clip-path="url(#SVGID_22_)">
																				<g>
																					<g opacity="0.8">
																						<g>
																							<defs>
																								<rect id="SVGID_23_" x="49.66" y="51.83" width="107.229" height="4.188"/>
																							</defs>
																							<clipPath id="SVGID_24_">
																								<use xlink:href="#SVGID_23_"  overflow="visible"/>
																							</clipPath>
																							<path clip-path="url(#SVGID_24_)" fill="#FFFFFF" d="M49.66,54.123c0,0,1.676,0.057,4.607,0.155
																								c2.932,0.105,7.121,0.211,12.147,0.36c2.513,0.071,5.235,0.149,8.116,0.232
																								c2.879,0.074,5.916,0.152,9.058,0.231c3.143,0.077,6.389,0.165,9.688,0.226c3.3,0.066,6.648,0.136,10,0.203
																								c3.352,0.068,6.701,0.168,10,0.274c3.3,0.111,6.545,0.193,9.688,0.211c3.142,0.001,6.179-0.041,9.06-0.143
																								c2.879-0.087,5.603-0.202,8.113-0.338c2.514-0.131,4.817-0.28,6.859-0.439
																								c1.021-0.081,1.977-0.157,2.859-0.229c0.883-0.082,1.694-0.157,2.429-0.228
																								c0.731-0.064,1.388-0.142,1.957-0.201c0.569-0.062,1.054-0.114,1.446-0.165
																								c0.783-0.101,1.203-0.153,1.203-0.153V53.72c0,0-0.42-0.055-1.203-0.153
																								c-0.395-0.051-0.877-0.104-1.446-0.164c-0.569-0.062-1.226-0.139-1.957-0.203
																								c-0.732-0.067-1.546-0.145-2.429-0.228c-0.885-0.069-1.84-0.146-2.859-0.229
																								c-2.042-0.157-4.348-0.309-6.859-0.438c-2.513-0.135-5.234-0.251-8.113-0.338
																								c-2.881-0.103-5.918-0.145-9.06-0.144c-3.144,0.019-6.389,0.099-9.688,0.211
																								c-3.299,0.106-6.648,0.207-10,0.275s-6.7,0.137-10,0.202c-3.299,0.062-6.545,0.147-9.688,0.226
																								c-3.142,0.081-6.179,0.157-9.058,0.231c-2.881,0.083-5.604,0.161-8.116,0.233
																								c-5.026,0.149-9.216,0.255-12.147,0.36c-2.932,0.099-4.607,0.155-4.607,0.155V54.123z"/>
																						</g>
																					</g>
																					<g>
																						<g>
																							<defs>
																								<path id="SVGID_25_" d="M116.701,10.545l-64.76,37.388c-3.373,1.948-6.135,6.729-6.135,10.622v74.779
																									c0,3.895,2.762,8.674,6.135,10.622l64.76,37.389c1.73,1,4.029,1.482,6.313,1.456
																									c2.159-0.022,4.312-0.509,5.95-1.456l64.761-37.389c3.373-1.948,6.133-6.728,6.133-10.622V58.555
																									c0-3.894-2.76-8.674-6.133-10.622l-64.761-37.388c-1.641-0.948-3.791-1.432-5.95-1.456
																									c-0.061-0.001-0.121-0.001-0.181-0.001C120.611,9.088,118.387,9.57,116.701,10.545"/>
																							</defs>
																							<clipPath id="SVGID_26_">
																								<use xlink:href="#SVGID_25_"  overflow="visible"/>
																							</clipPath>
																							<g clip-path="url(#SVGID_26_)">
																								<g>
																									<g opacity="0.7">
																										<g>
																											<defs>
																												<rect id="SVGID_27_" x="49.66" y="62.72" width="107.229" height="4.19"/>
																											</defs>
																											<clipPath id="SVGID_28_">
																												<use xlink:href="#SVGID_27_"  overflow="visible"/>
																											</clipPath>
																											<path clip-path="url(#SVGID_28_)" fill="#FFFFFF" d="M49.66,65.015c0,0,1.676,0.057,4.607,0.155
																												c2.932,0.105,7.121,0.211,12.147,0.36c2.513,0.071,5.235,0.149,8.116,0.232
																												c2.879,0.074,5.916,0.152,9.058,0.232c3.143,0.076,6.389,0.164,9.688,0.225
																												c3.3,0.066,6.648,0.136,10,0.203c3.352,0.068,6.701,0.168,10,0.274c3.3,0.111,6.545,0.193,9.688,0.211
																												c3.142,0.001,6.179-0.041,9.06-0.143c2.879-0.087,5.603-0.203,8.113-0.338
																												c2.514-0.131,4.817-0.281,6.859-0.439c1.021-0.081,1.977-0.156,2.859-0.229
																												c0.883-0.082,1.694-0.158,2.429-0.228c0.731-0.064,1.388-0.142,1.957-0.201
																												c0.569-0.063,1.054-0.114,1.446-0.165c0.783-0.101,1.203-0.153,1.203-0.153v-0.401
																												c0,0-0.42-0.055-1.203-0.153c-0.395-0.051-0.877-0.104-1.446-0.164
																												c-0.569-0.062-1.226-0.139-1.957-0.203c-0.732-0.067-1.546-0.145-2.429-0.228
																												c-0.885-0.069-1.84-0.146-2.859-0.229c-2.042-0.158-4.348-0.309-6.859-0.438
																												c-2.513-0.136-5.234-0.251-8.113-0.338c-2.881-0.103-5.918-0.145-9.06-0.144
																												c-3.144,0.019-6.389,0.099-9.688,0.211c-3.299,0.106-6.648,0.207-10,0.275
																												c-3.352,0.067-6.7,0.137-10,0.202c-3.299,0.062-6.545,0.147-9.688,0.226
																												c-3.142,0.081-6.179,0.158-9.058,0.231c-2.881,0.083-5.604,0.161-8.116,0.233
																												c-5.026,0.149-9.216,0.255-12.147,0.361c-2.932,0.098-4.607,0.154-4.607,0.154V65.015z"/>
																										</g>
																									</g>
																									<g>
																										<g>
																											<defs>
																												<path id="SVGID_29_" d="M116.701,10.545l-64.76,37.388c-3.373,1.948-6.135,6.729-6.135,10.622v74.779
																													c0,3.895,2.762,8.674,6.135,10.622l64.76,37.389c1.73,1,4.029,1.482,6.313,1.456
																													c2.159-0.022,4.312-0.509,5.95-1.456l64.761-37.389c3.373-1.948,6.133-6.728,6.133-10.622V58.555
																													c0-3.894-2.76-8.674-6.133-10.622l-64.761-37.388c-1.641-0.948-3.791-1.432-5.95-1.456
																													c-0.061-0.001-0.121-0.001-0.181-0.001C120.611,9.088,118.387,9.57,116.701,10.545"/>
																											</defs>
																											<clipPath id="SVGID_30_">
																												<use xlink:href="#SVGID_29_"  overflow="visible"/>
																											</clipPath>
																											<path clip-path="url(#SVGID_30_)" fill="#FFFFFF" d="M54.585,163.354
																												c6.294-7.98,11.235-14.131,15.788-24.307l42.82-23.995l-16.787-1.378l-20.758,7.405
																												c1.186-9.872-0.955-25.979-8.318-34.751c0,0,2.447-5.434,3.94-6.801c2.093,0.986,7.702,3.416,9.151,1.85
																												c1.793-1.936,0.374-4.485,0.374-4.485l1.954-0.372l-0.229-2.663l2.046-0.593l0.07-3.698l3.973-0.328
																												l-2.982-8.482c0,0-0.158,1.122,2.016-3.598c1.812-3.929-4.297-17.655-19.347-17.133
																												c-5.687,0.196-11.767,1.844-14.692,4.346c-9.658,7.723,4.733,18.864-5.754,31.77
																												C47.213,76.479,3.198,88.198,3.198,88.198l-4.711,45.652l17.428,4.371
																												c0.934,0.232,1.758-0.354,1.844-1.312l1.1-12.389c0.086-0.959-0.609-1.893-1.552-2.084l-8.229-1.686
																												l6.238-15.706c0,0,11.569-3.845,21.379-4.724c0.016,6.252-0.904,18.688-3.713,26.235
																												c-3.176,8.535-6.125,17.673-8.562,25.724c-8.792,1.063-15.605,8.548-15.605,17.627
																												c0,3.146,0.818,6.097,2.253,8.659l-14.125,22.539c0,0-14.625,0.521-21.937,11.489
																												c-7.312,10.97-18.802,39.692-18.802,39.692s61.658-47.249,81.951-68.408
																												c9.186,7.219,17.979,17.117,17.979,31.5c0,0-10.099-5.918-16.888-0.174
																												c-6.789,5.745-26.114,17.235-32.904,17.235l0.521,26.637c0,0,4.18-5.223,13.059-20.369l52.75-9.923
																												C72.672,228.789,82.646,183.676,54.585,163.354"/>
																										</g>
																										<g>
																											<g>
																												<path fill="#FDDD7A" d="M89,52.834c0,0,3.32-7.885-7.008-12.126
																													c-9.775-4.242-7.654,13.094-7.654,13.094s2.213,7.932,7.331,11.942l-6.226,18.628l6.778-0.83
																													l2.767-9.129l3.043-4.843l3.459-1.105L89,52.834z"/>
																											</g>
																											<g>
																												<g>
																													<polygon fill="#BE9C30" points="89.578,51.577 48.932,56.511 48.109,49.364 85.989,44.432 
																																																											"/>
																												</g>
																												<g>
																													<path fill="#FDDD7A" d="M41.725,100.752c0,0,20.395-9.74,4.148-25.312l2.782-2.688
																														c0,0,17.659,31.17,22.086,30.063c4.427-1.107,4.058-5.35,4.058-5.35l2.629,9.037l-0.371,21.947
																														l-20.286,35.412l-33.567-15.31L33.901,114.8l1.107-12.909c0,0,10.143-0.737,13.463-4.427"/>
																												</g>
																												<g>
																													<path fill="#BE9C30" d="M34.27,103.369c0,0,20.103-1.845,17.89-17.338c0,0,13.647,28.956-5.901,45.187
																														c-19.551,16.231-8.692,24.127-8.692,24.127l-14.546-5.683C23.02,149.662,39.064,115.356,34.27,103.369
																														"/>
																												</g>
																												<g>
																													<path fill="#FDDD7A" d="M69.127,87.369c0,0-9.544-5.396-4.703-18.397c0,0,1.799,6.916,5.533,10.374
																														C73.692,82.804,69.127,87.369,69.127,87.369"/>
																												</g>
																												<g>
																													<path fill="none" d="M69.129,40.01c14.439,0,20.29,13.291,18.514,17.147
																														c-1.443,3.134-1.858,3.691-1.975,3.713l-0.041-0.116c0,0-0.018,0.117,0.034,0.117
																														c0.002,0,0.004,0,0.007-0.001l2.941,8.366l-3.973,0.328l-0.07,3.698l-2.045,0.593l0.228,2.664
																														l-1.954,0.371c0,0,1.42,2.552-0.373,4.485c-0.337,0.365-0.9,0.514-1.592,0.514
																														c-2.279,0-5.954-1.605-7.561-2.362c-1.492,1.368-3.938,6.801-3.938,6.801
																														c7.361,8.771,9.503,24.879,8.318,34.751l20.757-7.405l16.787,1.377l-42.819,23.997
																														c-4.554,10.175-9.495,16.323-15.789,24.308c28.062,20.319,18.087,65.436,18.087,65.436l-52.75,9.923
																														c-8.88,15.146-13.059,20.369-13.059,20.369l-0.521-26.636c6.789,0,26.114-11.491,32.904-17.236
																														c2.219-1.877,4.789-2.509,7.247-2.509c5.063,0.001,9.64,2.685,9.64,2.685
																														c0-14.384-8.793-24.281-17.978-31.502c-20.294,21.159-81.953,68.408-81.953,68.408
																														s11.49-28.725,18.802-39.691c7.313-10.97,21.936-11.489,21.936-11.489l14.125-22.54
																														c-1.432-2.563-2.25-5.516-2.25-8.659c0-9.079,6.813-16.565,15.604-17.627
																														c2.437-8.05,5.386-17.188,8.562-25.722c2.809-7.55,3.729-19.985,3.713-26.237
																														c-9.811,0.879-21.379,1.995-21.379,1.995l-6.238,18.435l8.23,1.687
																														c0.941,0.191,1.636,1.126,1.551,2.083l-1.1,12.389c-0.072,0.816-0.682,1.362-1.437,1.362
																														c-0.132,0-0.269-0.02-0.406-0.054l-17.429-4.368l4.712-45.654c0,0,44.015-11.72,44.651-12.059
																														c10.486-12.904-3.903-24.047,5.754-31.771c2.926-2.501,9.007-4.147,14.693-4.345
																														C68.577,40.014,68.854,40.01,69.129,40.01"/>
																													<path fill="#020202" d="M69.129,35.868L69.129,35.868c-0.324,0-0.646,0.006-0.977,0.017
																														c-5.266,0.185-12.911,1.68-17.186,5.291c-6.56,5.285-5.203,11.968-4.113,17.339
																														c1.004,4.943,1.879,9.257-1.485,14.047c-5.362,1.517-27.944,7.563-43.235,11.634l-2.76,0.734
																														l-0.294,2.842l-4.712,45.653l-0.368,3.569l3.479,0.872l17.43,4.371
																														c0.465,0.114,0.939,0.176,1.413,0.176c2.909,0,5.3-2.208,5.56-5.136l1.102-12.391
																														c0.27-3.037-1.859-5.896-4.846-6.507l-3.635-0.743l3.877-11.454c3.115-0.298,8.549-0.812,14.047-1.315
																														c-0.328,6.31-1.326,14.874-3.326,20.248c-2.558,6.874-5.215,14.791-7.91,23.562
																														c-9.586,2.418-16.516,11.104-16.516,21.231c0,2.887,0.572,5.747,1.67,8.396l-11.83,18.878
																														c-4.873,0.645-16.332,3.187-22.953,13.118c-7.467,11.198-18.727,39.265-19.202,40.453l-5.595,13.988
																														l11.957-9.164c2.424-1.857,57.32-43.984,79.717-66.09c7.162,6.244,11.371,12.642,12.897,19.653
																														c-1.487-0.348-3.129-0.583-4.842-0.583c-3.847-0.001-7.185,1.174-9.922,3.487
																														c-7.3,6.178-25.367,16.257-30.229,16.257H2.119l0.083,4.223l0.522,26.637l0.224,11.439l7.149-8.936
																														c0.17-0.215,4.16-5.245,12.438-19.234l50.902-9.575l2.688-0.506l0.59-2.67
																														c0.107-0.482,2.613-12.034,1.566-26.294c-1.286-17.531-7.452-31.502-17.902-40.7
																														c5.051-6.453,9.245-12.181,13.2-20.688l41.64-23.335l11.83-6.629l-13.517-1.109l-16.787-1.378
																														l-0.89-0.072l-0.842,0.3l-14.932,5.327c-0.074-8.967-2.094-20.819-7.926-29.26
																														c0.209-0.41,0.418-0.806,0.619-1.173c2.406,0.904,4.434,1.361,6.053,1.361c2.419,0,3.854-1,4.631-1.84
																														c1.158-1.252,1.727-2.629,1.926-3.959l1.809-0.346l-0.258-3l1.709-0.495l0.06-3.009l0.244-0.021
																														l5.345-0.44l-1.777-5.059l-2.287-6.501c0.362-0.711,0.742-1.532,1.176-2.473
																														c1.736-3.77-0.051-8.868-2.301-12.384C84.775,39.746,77.495,35.869,69.129,35.868"/>
																												</g>
																												<g>
																													<path fill="#020202" d="M71.352,84.354c0,0-0.047-0.054-0.136-0.152
																														c-0.101-0.112-0.242-0.273-0.399-0.464c-0.326-0.39-0.764-0.946-1.265-1.63
																														c-0.492-0.689-1.058-1.492-1.597-2.397c-0.551-0.892-1.075-1.885-1.561-2.886
																														c-0.221-0.518-0.461-1.017-0.654-1.529c-0.181-0.521-0.397-1.007-0.529-1.515
																														c-0.139-0.505-0.309-0.971-0.389-1.442c-0.088-0.468-0.207-0.895-0.248-1.307
																														c-0.045-0.406-0.088-0.779-0.125-1.11c-0.028-0.329-0.014-0.621-0.021-0.855
																														c-0.003-0.471-0.005-0.738-0.005-0.738s0.066,0.261,0.182,0.716c0.063,0.225,0.114,0.501,0.219,0.807
																														c0.111,0.303,0.238,0.645,0.375,1.016c0.131,0.369,0.345,0.748,0.527,1.152
																														c0.176,0.409,0.447,0.81,0.682,1.232c0.228,0.426,0.545,0.829,0.818,1.253
																														c0.286,0.42,0.621,0.821,0.928,1.23c0.662,0.796,1.344,1.563,2.033,2.236
																														c0.676,0.687,1.355,1.274,1.934,1.771c0.587,0.488,1.084,0.879,1.436,1.133
																														c0.178,0.134,0.307,0.221,0.391,0.276c0.097,0.066,0.148,0.104,0.148,0.104L71.352,84.354z"/>
																												</g>
																												<g>
																													<path fill="#020202" d="M33.432,100.779c0,0,0.092-0.011,0.264-0.027
																														c0.182-0.025,0.449-0.062,0.789-0.108c0.689-0.103,1.684-0.271,2.865-0.544
																														c2.357-0.534,5.491-1.476,8.299-3.052c0.689-0.405,1.375-0.828,1.996-1.311
																														c0.641-0.464,1.205-0.993,1.729-1.529c0.262-0.271,0.484-0.563,0.725-0.834
																														c0.204-0.296,0.422-0.578,0.605-0.87c0.361-0.59,0.648-1.183,0.865-1.754
																														c0.095-0.291,0.187-0.571,0.272-0.836c0.06-0.275,0.114-0.536,0.166-0.781
																														c0.099-0.494,0.108-0.938,0.157-1.303c-0.004-0.733-0.004-1.152-0.004-1.152s0.066,0.417,0.182,1.147
																														c0.008,0.369,0.068,0.823,0.046,1.346c-0.016,0.262-0.03,0.541-0.047,0.835
																														c-0.048,0.293-0.099,0.6-0.149,0.921c-0.136,0.638-0.342,1.319-0.636,2.02
																														c-0.149,0.349-0.335,0.688-0.512,1.049c-0.211,0.336-0.409,0.695-0.649,1.033
																														c-0.479,0.676-1.014,1.354-1.629,1.969c-0.601,0.633-1.271,1.207-1.957,1.765
																														c-2.781,2.186-5.976,3.705-8.414,4.672c-1.222,0.487-2.264,0.838-3.006,1.07
																														c-0.377,0.111-0.673,0.2-0.874,0.26c-0.216,0.059-0.329,0.089-0.329,0.089L33.432,100.779z"/>
																												</g>
																												<g>
																													<path fill="#FFFFFF" d="M142.174,163.354c6.293-7.98,11.234-14.131,15.788-24.307l42.819-23.995
																														l-16.786-1.378l-20.759,7.405c1.186-9.872-0.957-25.979-8.317-34.751c0,0,2.447-5.434,3.938-6.801
																														c2.095,0.986,7.701,3.416,9.15,1.85c1.793-1.936,0.373-4.485,0.373-4.485l1.955-0.372l-0.229-2.663
																														l2.045-0.593l0.068-3.698l3.975-0.328l-2.982-8.482c0,0-0.158,1.122,2.018-3.598
																														c1.811-3.929-4.299-17.655-19.348-17.133c-5.688,0.196-11.767,1.844-14.691,4.346
																														c-9.657,7.723,4.73,18.864-5.756,31.77c-0.637,0.339-44.649,12.059-44.649,12.059l-4.712,45.652
																														l17.429,4.371c0.933,0.232,1.757-0.354,1.843-1.312l1.102-12.389c0.085-0.959-0.609-1.893-1.553-2.084
																														l-8.229-1.686l6.238-15.706c0,0,11.568-3.845,21.378-4.724c0.016,6.252-0.903,18.688-3.712,26.235
																														c-3.178,8.535-6.125,17.673-8.563,25.724c-8.793,1.063-15.604,8.548-15.604,17.627
																														c0,3.146,0.817,6.097,2.252,8.659l-14.125,22.539c0,0-14.625,0.521-21.937,11.489
																														c-7.313,10.97-18.803,39.692-18.803,39.692s61.657-47.249,81.952-68.408
																														c9.185,7.219,17.978,17.117,17.978,31.5c0,0-10.097-5.918-16.887-0.174
																														c-6.79,5.745-26.113,17.235-32.903,17.235l0.521,26.637c0,0,4.179-5.223,13.058-20.369l52.75-9.923
																														C160.26,228.789,170.234,183.676,142.174,163.354"/>
																												</g>
																												<g>
																													<path fill="#FDDD7A" d="M176.588,52.834c0,0,3.32-7.885-7.008-12.126
																														c-9.775-4.242-7.654,13.094-7.654,13.094s2.213,7.932,7.332,11.942l-6.226,18.628l6.776-0.83
																														l2.768-9.129l3.044-4.843l3.458-1.105L176.588,52.834z"/>
																												</g>
																												<g>
																													<polygon fill="#BE9C30" points="177.167,51.577 136.521,56.511 135.697,49.364 173.578,44.432 
																																																											"/>
																												</g>
																												<g>
																													<path fill="#FDDD7A" d="M129.313,100.752c0,0,20.396-9.74,4.15-25.312l2.78-2.688
																														c0,0,17.659,31.17,22.086,30.063c4.427-1.107,4.058-5.35,4.058-5.35l2.629,9.037l-0.367,21.947
																														l-20.289,35.412l-33.566-15.31L121.49,114.8l1.105-12.909c0,0,10.145-0.737,13.463-4.427"/>
																												</g>
																												<g>
																													<path fill="#BE9C30" d="M121.857,103.369c0,0,20.104-1.845,17.89-17.338
																														c0,0,13.649,28.956-5.901,45.187c-19.551,16.231-8.691,24.127-8.691,24.127l-14.545-5.683
																														C110.607,149.662,126.652,115.356,121.857,103.369"/>
																												</g>
																												<g>
																													<path fill="#FDDD7A" d="M156.716,87.369c0,0-9.544-5.396-4.702-18.397c0,0,1.797,6.916,5.531,10.374
																														S156.716,87.369,156.716,87.369"/>
																												</g>
																												<g>
																													<path fill="none" d="M156.717,40.01c14.439,0,20.291,13.291,18.516,17.147
																														c-1.443,3.135-1.859,3.691-1.977,3.713l-0.041-0.116c0,0-0.016,0.117,0.033,0.117
																														c0.004,0,0.006,0,0.008-0.001l2.941,8.366l-3.975,0.328l-0.068,3.698l-2.045,0.593l0.229,2.664
																														l-1.954,0.371c0,0,1.419,2.552-0.372,4.485c-0.338,0.365-0.9,0.514-1.594,0.514
																														c-2.279,0-5.953-1.605-7.561-2.362c-1.492,1.368-3.939,6.801-3.939,6.801
																														c7.363,8.771,9.504,24.879,8.318,34.751l20.758-7.405l16.787,1.377l-42.82,23.997
																														c-4.553,10.175-9.494,16.323-15.787,24.308c28.063,20.319,18.088,65.436,18.088,65.436l-52.752,9.923
																														c-8.879,15.146-13.059,20.369-13.059,20.369l-0.521-26.636c6.791,0,26.115-11.491,32.904-17.236
																														c2.219-1.877,4.789-2.509,7.248-2.509c5.063,0.001,9.641,2.685,9.641,2.685
																														c0-14.384-8.795-24.281-17.979-31.502c-20.293,21.159-81.951,68.408-81.951,68.408
																														s11.49-28.725,18.802-39.691c7.313-10.97,21.936-11.489,21.936-11.489l14.125-22.54
																														c-1.435-2.563-2.253-5.516-2.253-8.659c0-9.079,6.813-16.565,15.605-17.627
																														c2.438-8.05,5.385-17.188,8.563-25.722c2.809-7.55,3.729-19.985,3.713-26.237
																														c-9.811,0.879-21.378,1.995-21.378,1.995l-6.239,18.435l8.23,1.687
																														c0.939,0.191,1.637,1.126,1.551,2.083l-1.102,12.389c-0.07,0.816-0.682,1.362-1.436,1.362
																														c-0.133,0-0.27-0.02-0.406-0.054l-17.43-4.368l4.711-45.654c0,0,44.016-11.72,44.652-12.059
																														c10.484-12.904-3.902-24.047,5.754-31.771c2.926-2.501,9.006-4.147,14.691-4.345
																														C156.166,40.014,156.441,40.01,156.717,40.01"/>
																													<path fill="#020202" d="M156.717,35.868L156.717,35.868c-0.322,0-0.646,0.006-0.977,0.017
																														c-5.266,0.185-12.91,1.68-17.188,5.291c-6.559,5.285-5.201,11.968-4.111,17.339
																														c1.004,4.943,1.879,9.257-1.486,14.047c-5.361,1.517-27.941,7.563-43.234,11.634l-2.76,0.734
																														l-0.293,2.842l-4.713,45.653l-0.367,3.569l3.479,0.872l17.43,4.371
																														c0.465,0.114,0.939,0.176,1.414,0.176c2.908,0,5.299-2.208,5.56-5.136l1.101-12.391
																														c0.271-3.037-1.857-5.896-4.846-6.507l-3.635-0.743l3.877-11.454
																														c3.115-0.298,8.549-0.812,14.049-1.315c-0.328,6.31-1.328,14.874-3.328,20.248
																														c-2.557,6.875-5.215,14.792-7.908,23.562c-9.586,2.418-16.519,11.104-16.519,21.231
																														c0,2.887,0.573,5.747,1.673,8.396l-11.831,18.878c-4.874,0.645-16.332,3.187-22.955,13.118
																														c-7.465,11.198-18.726,39.265-19.202,40.453l-5.595,13.988l11.959-9.164
																														c2.423-1.857,57.319-43.984,79.717-66.09c7.162,6.244,11.369,12.642,12.896,19.653
																														c-1.485-0.348-3.131-0.583-4.842-0.583c-3.849-0.001-7.188,1.174-9.922,3.487
																														c-7.302,6.178-25.367,16.257-30.229,16.257h-4.224l0.084,4.223l0.521,26.637l0.225,11.439l7.148-8.936
																														c0.172-0.215,4.162-5.245,12.438-19.234l50.902-9.575l2.688-0.506l0.591-2.67
																														c0.106-0.482,2.612-12.034,1.565-26.294c-1.287-17.531-7.451-31.502-17.902-40.7
																														c5.053-6.453,9.244-12.179,13.201-20.688l41.638-23.335l11.831-6.629l-13.516-1.109l-16.787-1.378
																														l-0.89-0.072l-0.843,0.3l-14.932,5.327c-0.073-8.967-2.094-20.819-7.926-29.26
																														c0.209-0.41,0.418-0.806,0.619-1.173c2.406,0.904,4.434,1.361,6.053,1.361c2.42,0,3.854-1,4.631-1.84
																														c1.158-1.252,1.729-2.629,1.926-3.959l1.811-0.346l-0.258-3l1.709-0.495l0.059-3.009l0.244-0.021
																														l5.344-0.44l-1.777-5.059l-2.285-6.501c0.362-0.711,0.74-1.532,1.176-2.473
																														c1.734-3.77-0.051-8.868-2.301-12.385C172.363,39.746,165.082,35.869,156.717,35.868"/>
																												</g>
																												<g>
																													<path fill="#020202" d="M158.939,84.354c0,0-0.049-0.054-0.139-0.152
																														c-0.1-0.112-0.238-0.273-0.396-0.464c-0.326-0.39-0.766-0.946-1.268-1.63
																														c-0.488-0.689-1.057-1.492-1.595-2.397c-0.552-0.892-1.075-1.885-1.562-2.886
																														c-0.223-0.518-0.463-1.017-0.653-1.529c-0.183-0.521-0.399-1.007-0.53-1.515
																														c-0.138-0.505-0.309-0.971-0.389-1.442c-0.088-0.468-0.206-0.895-0.248-1.307
																														c-0.047-0.406-0.088-0.779-0.125-1.11c-0.029-0.329-0.014-0.621-0.021-0.855
																														c-0.004-0.471-0.006-0.738-0.006-0.738s0.066,0.261,0.184,0.716c0.063,0.225,0.113,0.501,0.219,0.807
																														c0.111,0.303,0.236,0.645,0.375,1.016c0.131,0.369,0.344,0.748,0.527,1.152
																														c0.176,0.409,0.445,0.81,0.682,1.232c0.229,0.426,0.545,0.829,0.818,1.253
																														c0.285,0.42,0.619,0.821,0.928,1.23c0.662,0.796,1.344,1.563,2.033,2.236
																														c0.676,0.687,1.354,1.274,1.934,1.771c0.586,0.488,1.085,0.879,1.436,1.133
																														c0.181,0.134,0.309,0.221,0.393,0.276c0.098,0.066,0.146,0.104,0.146,0.104L158.939,84.354z"/>
																												</g>
																												<g>
																													<path fill="#020202" d="M121.02,100.779c0,0,0.094-0.011,0.266-0.027
																														c0.182-0.025,0.449-0.062,0.791-0.108c0.688-0.103,1.682-0.271,2.861-0.544
																														c2.357-0.534,5.492-1.476,8.301-3.052c0.688-0.405,1.375-0.828,1.996-1.311
																														c0.641-0.464,1.203-0.993,1.729-1.529c0.264-0.271,0.484-0.563,0.729-0.834
																														c0.201-0.296,0.42-0.578,0.604-0.87c0.361-0.59,0.648-1.183,0.865-1.754
																														c0.096-0.291,0.188-0.571,0.271-0.836c0.061-0.275,0.113-0.536,0.166-0.781
																														c0.1-0.494,0.107-0.938,0.156-1.303c-0.004-0.733-0.004-1.152-0.004-1.152s0.066,0.417,0.182,1.147
																														c0.012,0.369,0.068,0.823,0.047,1.346c-0.016,0.262-0.029,0.541-0.047,0.835
																														c-0.049,0.293-0.098,0.6-0.148,0.921c-0.137,0.638-0.342,1.319-0.637,2.02
																														c-0.148,0.349-0.334,0.688-0.513,1.049c-0.211,0.336-0.409,0.695-0.647,1.033
																														c-0.479,0.676-1.014,1.354-1.629,1.969c-0.603,0.633-1.271,1.207-1.957,1.765
																														c-2.781,2.186-5.978,3.705-8.414,4.672c-1.223,0.487-2.266,0.838-3.006,1.07
																														c-0.377,0.111-0.674,0.2-0.875,0.26c-0.215,0.059-0.328,0.089-0.328,0.089L121.02,100.779z"/>
																												</g>
																												<g>
																													<polygon fill="#020202" points="159.357,86.269 152.564,90.689 156.287,83.49 
																																																											"/>
																												</g>
																												<g>
																													<path fill="#020202" d="M110.236,148.796l36.201,15.462l10.004,11.824
																														c0,0-19.828,10.551-20.737,10.914s-17.281-0.729-17.281-0.729l-22.557-27.832L110.236,148.796z"/>
																												</g>
																												<g>
																													<path fill="#020202" d="M101.479,105.816c0,0,0.063-0.16,0.174-0.44
																														c0.104-0.291,0.258-0.718,0.414-1.24c0.162-0.521,0.326-1.137,0.48-1.804
																														c0.152-0.666,0.279-1.383,0.355-2.104c0.021-0.354,0.078-0.727,0.064-1.07
																														c0.006-0.354,0.012-0.707-0.037-1.034c-0.018-0.341-0.076-0.652-0.154-0.948
																														c-0.051-0.313-0.182-0.561-0.281-0.813c-0.084-0.271-0.256-0.441-0.377-0.636
																														c-0.117-0.198-0.262-0.332-0.393-0.431c-0.256-0.219-0.4-0.344-0.4-0.344s0.181,0.069,0.498,0.192
																														c0.17,0.059,0.367,0.145,0.555,0.303c0.191,0.149,0.459,0.295,0.645,0.539
																														c0.205,0.229,0.457,0.479,0.629,0.789c0.199,0.302,0.396,0.632,0.543,0.988
																														c0.18,0.355,0.31,0.732,0.438,1.12c0.148,0.391,0.227,0.786,0.337,1.19
																														c0.188,0.803,0.319,1.615,0.407,2.381c0.084,0.763,0.139,1.479,0.158,2.095
																														c0.027,0.616,0.023,1.133,0.021,1.5c-0.013,0.377-0.02,0.592-0.02,0.592L101.479,105.816z"/>
																												</g>
																												<g>
																													<rect x="29.926" y="136.341" fill="#1A1A19" width="42.154" height="30.286"/>
																												</g>
																											</g>
																											<g>
																												<defs>
																													<path id="SVGID_31_" d="M116.701,10.545l-64.76,37.388c-3.373,1.948-6.135,6.729-6.135,10.622v74.779
																														c0,3.895,2.762,8.674,6.135,10.622l64.76,37.389c1.73,1,4.029,1.482,6.313,1.456
																														c2.159-0.022,4.312-0.509,5.95-1.456l64.761-37.389c3.373-1.948,6.133-6.728,6.133-10.622V58.555
																														c0-3.894-2.76-8.674-6.133-10.622l-64.761-37.388c-1.641-0.948-3.791-1.432-5.95-1.456
																														c-0.061-0.001-0.121-0.001-0.181-0.001C120.611,9.088,118.387,9.57,116.701,10.545"/>
																												</defs>
																												<defs>
																													<path id="SVGID_32_" d="M116.701,10.545l-64.76,37.388c-3.373,1.948-6.135,6.729-6.135,10.622v74.779
																														c0,3.895,2.762,8.674,6.135,10.622l64.76,37.389c1.73,1,4.029,1.482,6.313,1.456
																														c2.159-0.022,4.312-0.509,5.95-1.456l64.761-37.389c3.373-1.948,6.133-6.728,6.133-10.622V58.555
																														c0-3.894-2.76-8.674-6.133-10.622l-64.761-37.388c-1.641-0.948-3.791-1.432-5.95-1.456
																														c-0.061-0.001-0.121-0.001-0.181-0.001C120.611,9.088,118.387,9.57,116.701,10.545"/>
																												</defs>
																												<defs>
																													<path id="SVGID_33_" d="M116.701,10.545l-64.76,37.388c-3.373,1.948-6.135,6.729-6.135,10.622v74.779
																														c0,3.895,2.762,8.674,6.135,10.622l64.76,37.389c1.73,1,4.029,1.482,6.313,1.456
																														c2.159-0.022,4.312-0.509,5.95-1.456l64.761-37.389c3.373-1.948,6.133-6.728,6.133-10.622V58.555
																														c0-3.894-2.76-8.674-6.133-10.622l-64.761-37.388c-1.641-0.948-3.791-1.432-5.95-1.456
																														c-0.061-0.001-0.121-0.001-0.181-0.001C120.611,9.088,118.387,9.57,116.701,10.545"/>
																												</defs>
																												<defs>
																													<path id="SVGID_34_" d="M116.701,10.545l-64.76,37.388c-3.373,1.948-6.135,6.729-6.135,10.622v74.779
																														c0,3.895,2.762,8.674,6.135,10.622l64.76,37.389c1.73,1,4.029,1.482,6.313,1.456
																														c2.159-0.022,4.312-0.509,5.95-1.456l64.761-37.389c3.373-1.948,6.133-6.728,6.133-10.622V58.555
																														c0-3.894-2.76-8.674-6.133-10.622l-64.761-37.388c-1.641-0.948-3.791-1.432-5.95-1.456
																														c-0.061-0.001-0.121-0.001-0.181-0.001C120.611,9.088,118.387,9.57,116.701,10.545"/>
																												</defs>
																												<defs>
																													<path id="SVGID_35_" d="M116.701,10.545l-64.76,37.388c-3.373,1.948-6.135,6.729-6.135,10.622v74.779
																														c0,3.895,2.762,8.674,6.135,10.622l64.76,37.389c1.73,1,4.029,1.482,6.313,1.456
																														c2.159-0.022,4.312-0.509,5.95-1.456l64.761-37.389c3.373-1.948,6.133-6.728,6.133-10.622V58.555
																														c0-3.894-2.76-8.674-6.133-10.622l-64.761-37.388c-1.641-0.948-3.791-1.432-5.95-1.456
																														c-0.061-0.001-0.121-0.001-0.181-0.001C120.611,9.088,118.387,9.57,116.701,10.545"/>
																												</defs>
																												<defs>
																													<path id="SVGID_36_" d="M116.701,10.545l-64.76,37.388c-3.373,1.948-6.135,6.729-6.135,10.622v74.779
																														c0,3.895,2.762,8.674,6.135,10.622l64.76,37.389c1.73,1,4.029,1.482,6.313,1.456
																														c2.159-0.022,4.312-0.509,5.95-1.456l64.761-37.389c3.373-1.948,6.133-6.728,6.133-10.622V58.555
																														c0-3.894-2.76-8.674-6.133-10.622l-64.761-37.388c-1.641-0.948-3.791-1.432-5.95-1.456
																														c-0.061-0.001-0.121-0.001-0.181-0.001C120.611,9.088,118.387,9.57,116.701,10.545"/>
																												</defs>
																												<defs>
																													<path id="SVGID_37_" d="M116.701,10.545l-64.76,37.388c-3.373,1.948-6.135,6.729-6.135,10.622v74.779
																														c0,3.895,2.762,8.674,6.135,10.622l64.76,37.389c1.73,1,4.029,1.482,6.313,1.456
																														c2.159-0.022,4.312-0.509,5.95-1.456l64.761-37.389c3.373-1.948,6.133-6.728,6.133-10.622V58.555
																														c0-3.894-2.76-8.674-6.133-10.622l-64.761-37.388c-1.641-0.948-3.791-1.432-5.95-1.456
																														c-0.061-0.001-0.121-0.001-0.181-0.001C120.611,9.088,118.387,9.57,116.701,10.545"/>
																												</defs>
																												<defs>
																													<path id="SVGID_38_" d="M116.701,10.545l-64.76,37.388c-3.373,1.948-6.135,6.729-6.135,10.622v74.779
																														c0,3.895,2.762,8.674,6.135,10.622l64.76,37.389c1.73,1,4.029,1.482,6.313,1.456
																														c2.159-0.022,4.312-0.509,5.95-1.456l64.761-37.389c3.373-1.948,6.133-6.728,6.133-10.622V58.555
																														c0-3.894-2.76-8.674-6.133-10.622l-64.761-37.388c-1.641-0.948-3.791-1.432-5.95-1.456
																														c-0.061-0.001-0.121-0.001-0.181-0.001C120.611,9.088,118.387,9.57,116.701,10.545"/>
																												</defs>
																												<defs>
																													<path id="SVGID_39_" d="M116.701,10.545l-64.76,37.388c-3.373,1.948-6.135,6.729-6.135,10.622v74.779
																														c0,3.895,2.762,8.674,6.135,10.622l64.76,37.389c1.73,1,4.029,1.482,6.313,1.456
																														c2.159-0.022,4.312-0.509,5.95-1.456l64.761-37.389c3.373-1.948,6.133-6.728,6.133-10.622V58.555
																														c0-3.894-2.76-8.674-6.133-10.622l-64.761-37.388c-1.641-0.948-3.791-1.432-5.95-1.456
																														c-0.061-0.001-0.121-0.001-0.181-0.001C120.611,9.088,118.387,9.57,116.701,10.545"/>
																												</defs>
																												<defs>
																													<path id="SVGID_40_" d="M116.701,10.545l-64.76,37.388c-3.373,1.948-6.135,6.729-6.135,10.622v74.779
																														c0,3.895,2.762,8.674,6.135,10.622l64.76,37.389c1.73,1,4.029,1.482,6.313,1.456
																														c2.159-0.022,4.312-0.509,5.95-1.456l64.761-37.389c3.373-1.948,6.133-6.728,6.133-10.622V58.555
																														c0-3.894-2.76-8.674-6.133-10.622l-64.761-37.388c-1.641-0.948-3.791-1.432-5.95-1.456
																														c-0.061-0.001-0.121-0.001-0.181-0.001C120.611,9.088,118.387,9.57,116.701,10.545"/>
																												</defs>
																												<defs>
																													<path id="SVGID_41_" d="M116.701,10.545l-64.76,37.388c-3.373,1.948-6.135,6.729-6.135,10.622v74.779
																														c0,3.895,2.762,8.674,6.135,10.622l64.76,37.389c1.73,1,4.029,1.482,6.313,1.456
																														c2.159-0.022,4.312-0.509,5.95-1.456l64.761-37.389c3.373-1.948,6.133-6.728,6.133-10.622V58.555
																														c0-3.894-2.76-8.674-6.133-10.622l-64.761-37.388c-1.641-0.948-3.791-1.432-5.95-1.456
																														c-0.061-0.001-0.121-0.001-0.181-0.001C120.611,9.088,118.387,9.57,116.701,10.545"/>
																												</defs>
																												<defs>
																													<path id="SVGID_42_" d="M116.701,10.545l-64.76,37.388c-3.373,1.948-6.135,6.729-6.135,10.622v74.779
																														c0,3.895,2.762,8.674,6.135,10.622l64.76,37.389c1.73,1,4.029,1.482,6.313,1.456
																														c2.159-0.022,4.312-0.509,5.95-1.456l64.761-37.389c3.373-1.948,6.133-6.728,6.133-10.622V58.555
																														c0-3.894-2.76-8.674-6.133-10.622l-64.761-37.388c-1.641-0.948-3.791-1.432-5.95-1.456
																														c-0.061-0.001-0.121-0.001-0.181-0.001C120.611,9.088,118.387,9.57,116.701,10.545"/>
																												</defs>
																												<defs>
																													<path id="SVGID_43_" d="M116.701,10.545l-64.76,37.388c-3.373,1.948-6.135,6.729-6.135,10.622v74.779
																														c0,3.895,2.762,8.674,6.135,10.622l64.76,37.389c1.73,1,4.029,1.482,6.313,1.456
																														c2.159-0.022,4.312-0.509,5.95-1.456l64.761-37.389c3.373-1.948,6.133-6.728,6.133-10.622V58.555
																														c0-3.894-2.76-8.674-6.133-10.622l-64.761-37.388c-1.641-0.948-3.791-1.432-5.95-1.456
																														c-0.061-0.001-0.121-0.001-0.181-0.001C120.611,9.088,118.387,9.57,116.701,10.545"/>
																												</defs>
																												<clipPath id="SVGID_44_">
																													<use xlink:href="#SVGID_31_"  overflow="visible"/>
																												</clipPath>
																												<clipPath id="SVGID_45_" clip-path="url(#SVGID_44_)">
																													<use xlink:href="#SVGID_32_"  overflow="visible"/>
																												</clipPath>
																												<clipPath id="SVGID_46_" clip-path="url(#SVGID_45_)">
																													<use xlink:href="#SVGID_33_"  overflow="visible"/>
																												</clipPath>
																												<clipPath id="SVGID_47_" clip-path="url(#SVGID_46_)">
																													<use xlink:href="#SVGID_34_"  overflow="visible"/>
																												</clipPath>
																												<clipPath id="SVGID_48_" clip-path="url(#SVGID_47_)">
																													<use xlink:href="#SVGID_35_"  overflow="visible"/>
																												</clipPath>
																												<clipPath id="SVGID_49_" clip-path="url(#SVGID_48_)">
																													<use xlink:href="#SVGID_36_"  overflow="visible"/>
																												</clipPath>
																												<clipPath id="SVGID_50_" clip-path="url(#SVGID_49_)">
																													<use xlink:href="#SVGID_37_"  overflow="visible"/>
																												</clipPath>
																												<clipPath id="SVGID_51_" clip-path="url(#SVGID_50_)">
																													<use xlink:href="#SVGID_38_"  overflow="visible"/>
																												</clipPath>
																												<clipPath id="SVGID_52_" clip-path="url(#SVGID_51_)">
																													<use xlink:href="#SVGID_39_"  overflow="visible"/>
																												</clipPath>
																												<clipPath id="SVGID_53_" clip-path="url(#SVGID_52_)">
																													<use xlink:href="#SVGID_40_"  overflow="visible"/>
																												</clipPath>
																												<clipPath id="SVGID_54_" clip-path="url(#SVGID_53_)">
																													<use xlink:href="#SVGID_41_"  overflow="visible"/>
																												</clipPath>
																												<clipPath id="SVGID_55_" clip-path="url(#SVGID_54_)">
																													<use xlink:href="#SVGID_42_"  overflow="visible"/>
																												</clipPath>
																												<clipPath id="SVGID_56_" clip-path="url(#SVGID_55_)">
																													<use xlink:href="#SVGID_43_"  overflow="visible"/>
																												</clipPath>
																												
																													<rect x="50.135" y="102.901" clip-path="url(#SVGID_56_)" fill="#FDDD7A" width="145.834" height="37.315"/>
																												
																													<rect x="49.003" y="132.461" clip-path="url(#SVGID_56_)" fill="#FFFFFF" width="147.661" height="7.906"/>
																												
																													<rect x="49.555" y="102.555" clip-path="url(#SVGID_56_)" fill="#FFFFFF" width="147.109" height="7.906"/>
																												<path clip-path="url(#SVGID_56_)" fill="#020202" d="M71.563,128.092v-2.663
																													c5.743-4.153,6.815-5.067,6.815-6.399c0-0.895-0.854-1.37-1.828-1.37c-1.47,0-2.582,0.557-3.537,1.45
																													l-1.887-2.267c1.41-1.55,3.516-2.206,5.365-2.206c3.12,0,5.365,1.749,5.365,4.393
																													c0,2.049-1.45,3.776-4.749,6.082h4.849v2.979L71.563,128.092L71.563,128.092z"/>
																												<path clip-path="url(#SVGID_56_)" fill="#231F20" d="M188.434,142.682H57.671c-5.522,0-10-4.477-10-10
																													v-32.243h150.763v32.243C198.434,138.205,193.956,142.682,188.434,142.682 M52.6,137.754h140.905
																													v-32.39H52.6V137.754z"/>
																												<path clip-path="url(#SVGID_56_)" fill="#020202" d="M95.807,126.442c0-0.994,0.875-1.851,1.891-1.851
																													c1.013,0,1.867,0.854,1.867,1.851c0,1.014-0.854,1.866-1.867,1.866
																													C96.682,128.311,95.807,127.456,95.807,126.442"/>
																												<path clip-path="url(#SVGID_56_)" fill="#020202" d="M83.268,121.494c0-4.233,2.563-6.857,6.578-6.857
																													c1.551,0,3.021,0.497,4.016,1.272l-1.473,2.624c-0.734-0.599-1.471-0.875-2.543-0.875
																													c-1.63,0-3.119,1.173-3.119,3.021v0.159c0.655-0.875,1.929-1.511,3.258-1.511
																													c2.387,0,4.593,1.531,4.593,4.353c0,2.724-2.206,4.65-5.287,4.65
																													C85.096,128.33,83.268,125.29,83.268,121.494 M91.118,123.799c0-1.113-1.134-1.57-2.167-1.57
																													c-0.834,0-1.648,0.278-2.225,0.896c0.098,1.073,0.733,2.186,2.344,2.186
																													C90.343,125.309,91.118,124.534,91.118,123.799"/>
																												<path clip-path="url(#SVGID_56_)" fill="#020202" d="M101.252,128.092v-2.663
																													c5.742-4.153,6.816-5.067,6.816-6.399c0-0.895-0.854-1.37-1.828-1.37c-1.473,0-2.584,0.557-3.537,1.45
																													l-1.889-2.267c1.41-1.55,3.518-2.206,5.365-2.206c3.119,0,5.364,1.749,5.364,4.393
																													c0,2.049-1.45,3.776-4.749,6.082h4.85v2.979L101.252,128.092L101.252,128.092z"/>
																												<polygon clip-path="url(#SVGID_56_)" fill="#020202" points="130.346,128.092 130.346,119.328 
																													127.007,128.092 125.496,128.092 122.137,119.328 122.137,128.092 118.719,128.092 118.719,114.836 
																													123.469,114.836 126.251,122.149 129.014,114.836 133.764,114.836 133.764,128.092 
																																																									"/>
																												
																													<rect x="136.146" y="114.836" clip-path="url(#SVGID_56_)" fill="#020202" width="3.418" height="13.256"/>
																												<polygon clip-path="url(#SVGID_56_)" fill="#020202" points="141.891,128.092 141.891,114.836 
																													145.309,114.836 145.309,125.11 150.635,125.11 150.635,128.092 																												"/>
																												<polygon clip-path="url(#SVGID_56_)" fill="#020202" points="152.383,128.092 152.383,114.836 
																													162.1,114.836 162.1,117.816 155.801,117.816 155.801,119.884 161.961,119.884 161.961,122.865 
																													155.801,122.865 155.801,125.11 162.1,125.11 162.1,128.092 																												"/>
																												<path clip-path="url(#SVGID_56_)" fill="#020202" d="M163.133,126.224l1.811-2.663
																													c0.953,0.954,2.424,1.749,4.252,1.749c1.152,0,1.867-0.396,1.867-1.053c0-1.749-7.492-0.3-7.492-5.406
																													c0-2.226,1.869-4.213,5.268-4.213c2.127,0,3.977,0.637,5.387,1.849l-1.867,2.563
																													c-1.111-0.936-2.563-1.393-3.877-1.393c-0.992,0-1.432,0.339-1.432,0.915
																													c0,1.629,7.494,0.396,7.494,5.326c0,2.662-1.969,4.432-5.525,4.432
																													C166.332,128.33,164.465,127.476,163.133,126.224"/>
																												<path clip-path="url(#SVGID_56_)" fill="#1A1A19" d="M122.832,16.367l0.086,0.001
																													c1.124,0.014,1.822,0.273,1.979,0.363l65.507,37.82c0.849,0.489,2.063,2.593,2.063,3.573v75.64
																													c0,0.979-1.215,3.083-2.063,3.573l-65.507,37.819c-0.155,0.09-0.854,0.351-1.978,0.364h-0.088
																													c-1.168,0-1.897-0.271-2.063-0.364l-65.505-37.819c-0.848-0.49-2.063-2.594-2.063-3.573v-75.64
																													c0-0.98,1.213-3.084,2.063-3.573l65.505-37.82C120.934,16.638,121.664,16.367,122.832,16.367
																													 M122.832,8.088c-2.248,0-4.496,0.488-6.202,1.473l-65.506,37.82c-3.412,1.97-6.203,6.805-6.203,10.744
																													v75.64c0,3.939,2.791,8.773,6.203,10.744l65.506,37.819c1.706,0.984,3.954,1.474,6.202,1.474
																													c0.063,0,0.123,0,0.184-0.001c2.188-0.024,4.36-0.515,6.021-1.473l65.507-37.819
																													c3.411-1.971,6.202-6.805,6.202-10.744v-75.64c0-3.939-2.791-8.774-6.202-10.744l-65.507-37.82
																													c-1.659-0.958-3.832-1.446-6.021-1.472C122.955,8.088,122.893,8.088,122.832,8.088"/>
																											</g>
																										</g>
																									</g>
																								</g>
																							</g>
																						</g>
																					</g>
																				</g>
																			</g>
																		</g>
																	</g>
																</g>
															</g>
														</g>
													</g>
												</g>
											</g>
										</g>
									</g>
								</g>
							</g>
						</g>
					</g>
				</g>
			</g>
		</g>
	</g>
</g>
<path fill="none" d="M116.701,10.545l-64.76,37.388c-3.373,1.948-6.135,6.729-6.135,10.622v74.779c0,3.895,2.762,8.674,6.135,10.622
	l64.76,37.389c1.73,1,4.029,1.482,6.313,1.456c2.159-0.022,4.312-0.509,5.95-1.456l64.761-37.389
	c3.373-1.948,6.133-6.728,6.133-10.622V58.555c0-3.894-2.76-8.674-6.133-10.622l-64.761-37.388c-1.641-0.948-3.791-1.432-5.95-1.456
	c-0.061-0.001-0.121-0.001-0.181-0.001C120.611,9.088,118.387,9.57,116.701,10.545"/>
<path fill="none" d="M116.701,10.545l-64.76,37.388c-3.373,1.948-6.135,6.729-6.135,10.622v74.779c0,3.895,2.762,8.674,6.135,10.622
	l64.76,37.389c1.73,1,4.029,1.482,6.313,1.456c2.159-0.022,4.312-0.509,5.95-1.456l64.761-37.389
	c3.373-1.948,6.133-6.728,6.133-10.622V58.555c0-3.894-2.76-8.674-6.133-10.622l-64.761-37.388c-1.641-0.948-3.791-1.432-5.95-1.456
	c-0.061-0.001-0.121-0.001-0.181-0.001C120.611,9.088,118.387,9.57,116.701,10.545"/>
<path fill="none" d="M116.701,10.545l-64.76,37.388c-3.373,1.948-6.135,6.729-6.135,10.622v74.779c0,3.895,2.762,8.674,6.135,10.622
	l64.76,37.389c1.73,1,4.029,1.482,6.313,1.456c2.159-0.022,4.312-0.509,5.95-1.456l64.761-37.389
	c3.373-1.948,6.133-6.728,6.133-10.622V58.555c0-3.894-2.76-8.674-6.133-10.622l-64.761-37.388c-1.641-0.948-3.791-1.432-5.95-1.456
	c-0.061-0.001-0.121-0.001-0.181-0.001C120.611,9.088,118.387,9.57,116.701,10.545"/>
<path fill="none" d="M116.701,10.545l-64.76,37.388c-3.373,1.948-6.135,6.729-6.135,10.622v74.779c0,3.895,2.762,8.674,6.135,10.622
	l64.76,37.389c1.73,1,4.029,1.482,6.313,1.456c2.159-0.022,4.312-0.509,5.95-1.456l64.761-37.389
	c3.373-1.948,6.133-6.728,6.133-10.622V58.555c0-3.894-2.76-8.674-6.133-10.622l-64.761-37.388c-1.641-0.948-3.791-1.432-5.95-1.456
	c-0.061-0.001-0.121-0.001-0.181-0.001C120.611,9.088,118.387,9.57,116.701,10.545"/>
<path fill="none" d="M116.701,10.545l-64.76,37.388c-3.373,1.948-6.135,6.729-6.135,10.622v74.779c0,3.895,2.762,8.674,6.135,10.622
	l64.76,37.389c1.73,1,4.029,1.482,6.313,1.456c2.159-0.022,4.312-0.509,5.95-1.456l64.761-37.389
	c3.373-1.948,6.133-6.728,6.133-10.622V58.555c0-3.894-2.76-8.674-6.133-10.622l-64.761-37.388c-1.641-0.948-3.791-1.432-5.95-1.456
	c-0.061-0.001-0.121-0.001-0.181-0.001C120.611,9.088,118.387,9.57,116.701,10.545"/>
<path fill="none" d="M116.701,10.545l-64.76,37.388c-3.373,1.948-6.135,6.729-6.135,10.622v74.779c0,3.895,2.762,8.674,6.135,10.622
	l64.76,37.389c1.73,1,4.029,1.482,6.313,1.456c2.159-0.022,4.312-0.509,5.95-1.456l64.761-37.389
	c3.373-1.948,6.133-6.728,6.133-10.622V58.555c0-3.894-2.76-8.674-6.133-10.622l-64.761-37.388c-1.641-0.948-3.791-1.432-5.95-1.456
	c-0.061-0.001-0.121-0.001-0.181-0.001C120.611,9.088,118.387,9.57,116.701,10.545"/>
<path fill="none" d="M116.701,10.545l-64.76,37.388c-3.373,1.948-6.135,6.729-6.135,10.622v74.779c0,3.895,2.762,8.674,6.135,10.622
	l64.76,37.389c1.73,1,4.029,1.482,6.313,1.456c2.159-0.022,4.312-0.509,5.95-1.456l64.761-37.389
	c3.373-1.948,6.133-6.728,6.133-10.622V58.555c0-3.894-2.76-8.674-6.133-10.622l-64.761-37.388c-1.641-0.948-3.791-1.432-5.95-1.456
	c-0.061-0.001-0.121-0.001-0.181-0.001C120.611,9.088,118.387,9.57,116.701,10.545"/>
<path fill="none" d="M116.701,10.545l-64.76,37.388c-3.373,1.948-6.135,6.729-6.135,10.622v74.779c0,3.895,2.762,8.674,6.135,10.622
	l64.76,37.389c1.73,1,4.029,1.482,6.313,1.456c2.159-0.022,4.312-0.509,5.95-1.456l64.761-37.389
	c3.373-1.948,6.133-6.728,6.133-10.622V58.555c0-3.894-2.76-8.674-6.133-10.622l-64.761-37.388c-1.641-0.948-3.791-1.432-5.95-1.456
	c-0.061-0.001-0.121-0.001-0.181-0.001C120.611,9.088,118.387,9.57,116.701,10.545"/>
<path fill="none" d="M116.701,10.545l-64.76,37.388c-3.373,1.948-6.135,6.729-6.135,10.622v74.779c0,3.895,2.762,8.674,6.135,10.622
	l64.76,37.389c1.73,1,4.029,1.482,6.313,1.456c2.159-0.022,4.312-0.509,5.95-1.456l64.761-37.389
	c3.373-1.948,6.133-6.728,6.133-10.622V58.555c0-3.894-2.76-8.674-6.133-10.622l-64.761-37.388c-1.641-0.948-3.791-1.432-5.95-1.456
	c-0.061-0.001-0.121-0.001-0.181-0.001C120.611,9.088,118.387,9.57,116.701,10.545"/>
<path fill="none" d="M116.701,10.545l-64.76,37.388c-3.373,1.948-6.135,6.729-6.135,10.622v74.779c0,3.895,2.762,8.674,6.135,10.622
	l64.76,37.389c1.73,1,4.029,1.482,6.313,1.456c2.159-0.022,4.312-0.509,5.95-1.456l64.761-37.389
	c3.373-1.948,6.133-6.728,6.133-10.622V58.555c0-3.894-2.76-8.674-6.133-10.622l-64.761-37.388c-1.641-0.948-3.791-1.432-5.95-1.456
	c-0.061-0.001-0.121-0.001-0.181-0.001C120.611,9.088,118.387,9.57,116.701,10.545"/>
<path fill="none" d="M116.701,10.545l-64.76,37.388c-3.373,1.948-6.135,6.729-6.135,10.622v74.779c0,3.895,2.762,8.674,6.135,10.622
	l64.76,37.389c1.73,1,4.029,1.482,6.313,1.456c2.159-0.022,4.312-0.509,5.95-1.456l64.761-37.389
	c3.373-1.948,6.133-6.728,6.133-10.622V58.555c0-3.894-2.76-8.674-6.133-10.622l-64.761-37.388c-1.641-0.948-3.791-1.432-5.95-1.456
	c-0.061-0.001-0.121-0.001-0.181-0.001C120.611,9.088,118.387,9.57,116.701,10.545"/>
<path fill="none" d="M116.701,10.545l-64.76,37.388c-3.373,1.948-6.135,6.729-6.135,10.622v74.779c0,3.895,2.762,8.674,6.135,10.622
	l64.76,37.389c1.73,1,4.029,1.482,6.313,1.456c2.159-0.022,4.312-0.509,5.95-1.456l64.761-37.389
	c3.373-1.948,6.133-6.728,6.133-10.622V58.555c0-3.894-2.76-8.674-6.133-10.622l-64.761-37.388c-1.641-0.948-3.791-1.432-5.95-1.456
	c-0.061-0.001-0.121-0.001-0.181-0.001C120.611,9.088,118.387,9.57,116.701,10.545"/>
<path fill="none" d="M116.701,10.545l-64.76,37.388c-3.373,1.948-6.135,6.729-6.135,10.622v74.779c0,3.895,2.762,8.674,6.135,10.622
	l64.76,37.389c1.73,1,4.029,1.482,6.313,1.456c2.159-0.022,4.312-0.509,5.95-1.456l64.761-37.389
	c3.373-1.948,6.133-6.728,6.133-10.622V58.555c0-3.894-2.76-8.674-6.133-10.622l-64.761-37.388c-1.641-0.948-3.791-1.432-5.95-1.456
	c-0.061-0.001-0.121-0.001-0.181-0.001C120.611,9.088,118.387,9.57,116.701,10.545"/>
<path fill="none" d="M116.701,10.545l-64.76,37.388c-3.373,1.948-6.135,6.729-6.135,10.622v74.779c0,3.895,2.762,8.674,6.135,10.622
	l64.76,37.389c1.73,1,4.029,1.482,6.313,1.456c2.159-0.022,4.312-0.509,5.95-1.456l64.761-37.389
	c3.373-1.948,6.133-6.728,6.133-10.622V58.555c0-3.894-2.76-8.674-6.133-10.622l-64.761-37.388c-1.641-0.948-3.791-1.432-5.95-1.456
	c-0.061-0.001-0.121-0.001-0.181-0.001C120.611,9.088,118.387,9.57,116.701,10.545"/>
<path fill="none" d="M116.701,10.545l-64.76,37.388c-3.373,1.948-6.135,6.729-6.135,10.622v74.779c0,3.895,2.762,8.674,6.135,10.622
	l64.76,37.389c1.73,1,4.029,1.482,6.313,1.456c2.159-0.022,4.312-0.509,5.95-1.456l64.761-37.389
	c3.373-1.948,6.133-6.728,6.133-10.622V58.555c0-3.894-2.76-8.674-6.133-10.622l-64.761-37.388c-1.641-0.948-3.791-1.432-5.95-1.456
	c-0.061-0.001-0.121-0.001-0.181-0.001C120.611,9.088,118.387,9.57,116.701,10.545"/>
<path fill="none" d="M116.701,10.545l-64.76,37.388c-3.373,1.948-6.135,6.729-6.135,10.622v74.779c0,3.895,2.762,8.674,6.135,10.622
	l64.76,37.389c1.73,1,4.029,1.482,6.313,1.456c2.159-0.022,4.312-0.509,5.95-1.456l64.761-37.389
	c3.373-1.948,6.133-6.728,6.133-10.622V58.555c0-3.894-2.76-8.674-6.133-10.622l-64.761-37.388c-1.641-0.948-3.791-1.432-5.95-1.456
	c-0.061-0.001-0.121-0.001-0.181-0.001C120.611,9.088,118.387,9.57,116.701,10.545"/>
<path fill="none" d="M116.701,10.545l-64.76,37.388c-3.373,1.948-6.135,6.729-6.135,10.622v74.779c0,3.895,2.762,8.674,6.135,10.622
	l64.76,37.389c1.73,1,4.029,1.482,6.313,1.456c2.159-0.022,4.312-0.509,5.95-1.456l64.761-37.389
	c3.373-1.948,6.133-6.728,6.133-10.622V58.555c0-3.894-2.76-8.674-6.133-10.622l-64.761-37.388c-1.641-0.948-3.791-1.432-5.95-1.456
	c-0.061-0.001-0.121-0.001-0.181-0.001C120.611,9.088,118.387,9.57,116.701,10.545"/>
<path fill="none" d="M116.701,10.545l-64.76,37.388c-3.373,1.948-6.135,6.729-6.135,10.622v74.779c0,3.895,2.762,8.674,6.135,10.622
	l64.76,37.389c1.73,1,4.029,1.482,6.313,1.456c2.159-0.022,4.312-0.509,5.95-1.456l64.761-37.389
	c3.373-1.948,6.133-6.728,6.133-10.622V58.555c0-3.894-2.76-8.674-6.133-10.622l-64.761-37.388c-1.641-0.948-3.791-1.432-5.95-1.456
	c-0.061-0.001-0.121-0.001-0.181-0.001C120.611,9.088,118.387,9.57,116.701,10.545"/>
<path fill="none" d="M116.701,10.545l-64.76,37.388c-3.373,1.948-6.135,6.729-6.135,10.622v74.779c0,3.895,2.762,8.674,6.135,10.622
	l64.76,37.389c1.73,1,4.029,1.482,6.313,1.456c2.159-0.022,4.312-0.509,5.95-1.456l64.761-37.389
	c3.373-1.948,6.133-6.728,6.133-10.622V58.555c0-3.894-2.76-8.674-6.133-10.622l-64.761-37.388c-1.641-0.948-3.791-1.432-5.95-1.456
	c-0.061-0.001-0.121-0.001-0.181-0.001C120.611,9.088,118.387,9.57,116.701,10.545"/>
<path fill="none" d="M116.701,10.545l-64.76,37.388c-3.373,1.948-6.135,6.729-6.135,10.622v74.779c0,3.895,2.762,8.674,6.135,10.622
	l64.76,37.389c1.73,1,4.029,1.482,6.313,1.456c2.159-0.022,4.312-0.509,5.95-1.456l64.761-37.389
	c3.373-1.948,6.133-6.728,6.133-10.622V58.555c0-3.894-2.76-8.674-6.133-10.622l-64.761-37.388c-1.641-0.948-3.791-1.432-5.95-1.456
	c-0.061-0.001-0.121-0.001-0.181-0.001C120.611,9.088,118.387,9.57,116.701,10.545"/>
<path fill="none" d="M116.701,10.545l-64.76,37.388c-3.373,1.948-6.135,6.729-6.135,10.622v74.779c0,3.895,2.762,8.674,6.135,10.622
	l64.76,37.389c1.73,1,4.029,1.482,6.313,1.456c2.159-0.022,4.312-0.509,5.95-1.456l64.761-37.389
	c3.373-1.948,6.133-6.728,6.133-10.622V58.555c0-3.894-2.76-8.674-6.133-10.622l-64.761-37.388c-1.641-0.948-3.791-1.432-5.95-1.456
	c-0.061-0.001-0.121-0.001-0.181-0.001C120.611,9.088,118.387,9.57,116.701,10.545"/>
<path fill="none" d="M116.701,10.545l-64.76,37.388c-3.373,1.948-6.135,6.729-6.135,10.622v74.779c0,3.895,2.762,8.674,6.135,10.622
	l64.76,37.389c1.73,1,4.029,1.482,6.313,1.456c2.159-0.022,4.312-0.509,5.95-1.456l64.761-37.389
	c3.373-1.948,6.133-6.728,6.133-10.622V58.555c0-3.894-2.76-8.674-6.133-10.622l-64.761-37.388c-1.641-0.948-3.791-1.432-5.95-1.456
	c-0.061-0.001-0.121-0.001-0.181-0.001C120.611,9.088,118.387,9.57,116.701,10.545"/>
</svg>
