<?xml version="1.0" encoding="utf-8"?>
<!-- Generator: Adobe Illustrator 16.0.0, SVG Export Plug-In . SVG Version: 6.00 Build 0)  -->
<!DOCTYPE svg PUBLIC "-//W3C//DTD SVG 1.1//EN" "http://www.w3.org/Graphics/SVG/1.1/DTD/svg11.dtd">
<svg version="1.1" id="Layer_1" xmlns="http://www.w3.org/2000/svg" xmlns:xlink="http://www.w3.org/1999/xlink" x="0px" y="0px"
	 width="612px" height="792px" viewBox="0 0 612 792" enable-background="new 0 0 612 792" xml:space="preserve">
<path fill="none" d="M311.63-1226.76"/>
<path fill="none" d="M311.63,2018.837"/>
<path fill="none" d="M312.63-1225.76"/>
<path fill="none" d="M312.63,2019.837"/>
<path fill="#5F9AD2" d="M185.246,519.479"/>
<path fill="#FFFFFF" d="M185.246,519.729"/>
<path fill="#231F20" d="M185.246,519.73"/>
<polygon fill="#A6A8AC" points="234.238,513.157 234.238,497.819 243.967,497.819 243.967,499.016 235.551,499.016 235.551,504.695 
	243.805,504.695 243.805,505.891 235.551,505.891 235.551,513.157 "/>
<path fill="#A6A8AC" d="M249.465,507.271v-9.45h1.334v9.429c0,3.104,1.633,4.989,4.645,4.989s4.645-1.886,4.645-4.989v-9.429h1.334
	v9.45c0,3.794-2.023,6.163-5.979,6.163C251.512,513.434,249.465,511.042,249.465,507.271"/>
<polygon fill="#A6A8AC" points="267.68,513.157 267.68,497.819 269.013,497.819 269.013,511.963 276.441,511.963 276.441,513.157 
	"/>
<polygon fill="#A6A8AC" points="281.572,513.157 281.572,497.819 282.905,497.819 282.905,511.963 290.334,511.963 290.334,513.157 
	"/>
<polygon fill="#A6A8AC" points="317.518,513.157 317.518,499.476 311.93,513.157 311.424,513.157 305.814,499.476 305.814,513.157 
	304.502,513.157 304.502,497.819 306.457,497.819 311.677,510.582 316.874,497.819 318.852,497.819 318.852,513.157 "/>
<path fill="#A6A8AC" d="M336.539,513.158l-1.518-3.771h-8.117l-1.519,3.771h-1.517l6.277-15.338h1.633l6.277,15.338H336.539z
	 M330.975,499.223l-3.634,8.969h7.243L330.975,499.223z"/>
<path fill="#A6A8AC" d="M352.064,513.158l-4.299-6.348h-3.381v6.348h-1.312V497.82h5.728c2.643,0,4.668,1.678,4.668,4.483
	c0,2.782-1.955,4.323-4.256,4.415l4.438,6.439H352.064z M352.088,502.304c0-1.932-1.357-3.288-3.402-3.288h-4.301v6.601h4.301
	C350.73,505.616,352.088,504.236,352.088,502.304"/>
<path fill="#A6A8AC" d="M370.603,513.158l-1.519-3.771h-8.117l-1.518,3.771h-1.518l6.277-15.338h1.633l6.278,15.338H370.603z
	 M365.037,499.223l-3.633,8.969h7.243L365.037,499.223z"/>
<polygon fill="#A6A8AC" points="379.459,513.157 379.459,499.016 374.445,499.016 374.445,497.819 385.805,497.819 385.805,499.016 
	380.793,499.016 380.793,513.157 "/>
<polygon fill="#A6A8AC" points="402.318,513.157 402.318,505.868 392.592,505.868 392.592,513.157 391.281,513.157 391.281,497.819 
	392.592,497.819 392.592,504.673 402.318,504.673 402.318,497.819 403.629,497.819 403.629,513.157 "/>
<path fill="#A6A8AC" d="M409.635,505.5c0-4.483,2.945-7.934,7.451-7.934c4.484,0,7.451,3.45,7.451,7.934
	c0,4.484-2.967,7.935-7.451,7.935C412.58,513.435,409.635,509.984,409.635,505.5 M423.156,505.5c0-3.886-2.392-6.736-6.07-6.736
	c-3.701,0-6.07,2.851-6.07,6.736c0,3.863,2.369,6.737,6.07,6.737C420.765,512.237,423.156,509.363,423.156,505.5"/>
<polygon fill="#A6A8AC" points="441.512,513.157 431.854,499.981 431.854,513.157 430.542,513.157 430.542,497.819 431.876,497.819 
	441.488,510.812 441.488,497.819 442.799,497.819 442.799,513.157 "/>
<path fill="#75CFE7" d="M269.425,414.95l63.405,36.606c1.695,0.979,3.944,1.451,6.18,1.426c2.117-0.026,4.221-0.498,5.826-1.426
	l63.406-36.606c3.301-1.906,6.002-6.586,6.002-10.399v-73.213c0-3.813-2.701-8.492-6.002-10.398l-63.406-36.606
	c-1.605-0.928-3.709-1.4-5.826-1.425c-2.235-0.027-4.484,0.445-6.18,1.425l-63.405,36.606c-3.302,1.906-6.003,6.586-6.003,10.398
	v73.213C263.422,408.364,266.123,413.044,269.425,414.95"/>
<path fill="#5ABCD5" d="M407.707,414.969c3.302-1.905,6.004-6.586,6.004-10.398v-73.213c0-3.813-2.702-8.492-6.004-10.399
	l-63.404-36.606c-1.488-0.858-3.402-1.322-5.357-1.406v170.038c1.955-0.085,3.869-0.55,5.357-1.407L407.707,414.969z"/>
<g opacity="0.4">
	<g>
		<defs>
			<rect id="SVGID_1_" x="260.92" y="280.09" width="155.83" height="175.71"/>
		</defs>
		<clipPath id="SVGID_2_">
			<use xlink:href="#SVGID_1_"  overflow="visible"/>
		</clipPath>
		<path clip-path="url(#SVGID_2_)" fill="#FFFFFF" d="M338.833,295.508l62.731,36.219v72.436l-62.731,36.22l-62.731-36.219v-72.437
			L338.833,295.508 M338.832,280.088c-2.248,0-4.496,0.488-6.202,1.473l-65.506,37.82c-3.412,1.97-6.203,6.805-6.203,10.744v75.64
			c0,3.939,2.791,8.773,6.203,10.744l65.506,37.819c1.706,0.985,3.954,1.474,6.202,1.474c0.061,0,0.123,0,0.184-0.001
			c2.188-0.026,4.36-0.515,6.02-1.473l65.507-37.819c3.411-1.971,6.202-6.805,6.202-10.744v-75.64c0-3.939-2.791-8.774-6.202-10.744
			l-65.507-37.82c-1.659-0.958-3.832-1.446-6.02-1.472C338.955,280.088,338.893,280.088,338.832,280.088"/>
	</g>
</g>
<path fill="#1A1A19" d="M338.832,288.367l0.086,0.001c1.124,0.014,1.822,0.273,1.979,0.363l65.506,37.82
	c0.849,0.489,2.063,2.593,2.063,3.573v75.64c0,0.979-1.215,3.083-2.063,3.573l-65.506,37.819c-0.156,0.09-0.854,0.351-1.977,0.364
	h-0.088c-1.168,0-1.898-0.27-2.063-0.364l-65.506-37.819c-0.848-0.49-2.063-2.594-2.063-3.573v-75.64
	c0-0.98,1.213-3.084,2.063-3.573l65.506-37.82C336.934,288.638,337.664,288.367,338.832,288.367 M338.832,280.088
	c-2.248,0-4.496,0.488-6.202,1.473l-65.506,37.82c-3.412,1.97-6.203,6.805-6.203,10.744v75.64c0,3.939,2.791,8.773,6.203,10.744
	l65.506,37.819c1.706,0.985,3.954,1.474,6.202,1.474c0.062,0,0.123,0,0.184-0.001c2.188-0.026,4.36-0.515,6.02-1.473l65.507-37.819
	c3.411-1.971,6.202-6.805,6.202-10.744v-75.64c0-3.939-2.791-8.774-6.202-10.744l-65.507-37.82c-1.659-0.958-3.832-1.446-6.02-1.472
	C338.955,280.088,338.893,280.088,338.832,280.088"/>
<g>
	<defs>
		<path id="SVGID_3_" d="M332.629,281.561l-65.504,37.819c-3.413,1.97-6.204,6.806-6.204,10.744v75.641
			c0,3.939,2.791,8.774,6.204,10.742l65.504,37.822c1.752,1.011,4.078,1.499,6.387,1.472c2.188-0.025,4.36-0.515,6.021-1.472
			l65.507-37.822c3.41-1.968,6.201-6.803,6.201-10.742v-75.641c0-3.938-2.791-8.774-6.201-10.744l-65.507-37.819
			c-1.66-0.957-3.833-1.445-6.021-1.473c-0.061,0-0.119-0.001-0.18-0.001C336.587,280.087,334.336,280.576,332.629,281.561"/>
	</defs>
	<clipPath id="SVGID_4_">
		<use xlink:href="#SVGID_3_"  overflow="visible"/>
	</clipPath>
	<rect x="248.016" y="395.945" clip-path="url(#SVGID_4_)" fill="#231F20" width="185.473" height="121.992"/>
</g>
<g>
	<defs>
		<path id="SVGID_5_" d="M332.701,282.545l-64.76,37.388c-3.373,1.948-6.135,6.729-6.135,10.622v74.779
			c0,3.895,2.762,8.674,6.135,10.622l64.76,37.389c1.732,1,4.029,1.482,6.314,1.456c2.159-0.024,4.31-0.509,5.95-1.456
			l64.761-37.389c3.373-1.948,6.131-6.728,6.131-10.622v-74.779c0-3.894-2.758-8.674-6.131-10.622l-64.761-37.388
			c-1.641-0.948-3.791-1.432-5.95-1.456c-0.061-0.001-0.121-0.001-0.181-0.001C336.611,281.088,334.387,281.57,332.701,282.545"/>
	</defs>
	<clipPath id="SVGID_6_">
		<use xlink:href="#SVGID_5_"  overflow="visible"/>
	</clipPath>
	<g opacity="0.6" clip-path="url(#SVGID_6_)">
		<g>
			<defs>
				<rect id="SVGID_7_" x="265.66" y="344.91" width="107.23" height="4.189"/>
			</defs>
			<clipPath id="SVGID_8_">
				<use xlink:href="#SVGID_7_"  overflow="visible"/>
			</clipPath>
			<path clip-path="url(#SVGID_8_)" fill="#FFFFFF" d="M265.66,347.203c0,0,1.676,0.056,4.607,0.155
				c2.932,0.105,7.121,0.211,12.147,0.359c2.513,0.073,5.235,0.151,8.116,0.234c2.879,0.074,5.916,0.152,9.058,0.232
				c3.142,0.077,6.388,0.165,9.687,0.225c3.299,0.067,6.649,0.135,10,0.203c3.351,0.069,6.701,0.168,10,0.274
				c3.299,0.112,6.545,0.194,9.688,0.211c3.141,0.002,6.178-0.041,9.059-0.142c2.879-0.087,5.602-0.203,8.114-0.338
				c2.513-0.131,4.817-0.281,6.859-0.44c1.021-0.08,1.977-0.156,2.86-0.228c0.883-0.082,1.695-0.158,2.428-0.228
				c0.732-0.064,1.388-0.141,1.957-0.201c0.57-0.062,1.054-0.114,1.447-0.165c0.784-0.101,1.203-0.153,1.203-0.153V346.8
				c0,0-0.419-0.053-1.203-0.152c-0.394-0.05-0.877-0.104-1.447-0.164c-0.569-0.062-1.225-0.138-1.957-0.203
				c-0.732-0.068-1.545-0.144-2.428-0.228c-0.884-0.069-1.84-0.146-2.86-0.228c-2.042-0.158-4.347-0.309-6.859-0.438
				c-2.513-0.136-5.235-0.252-8.114-0.339c-2.881-0.101-5.918-0.144-9.059-0.143c-3.143,0.018-6.389,0.099-9.688,0.211
				c-3.299,0.106-6.649,0.207-10,0.276c-3.351,0.067-6.701,0.136-10,0.201c-3.299,0.062-6.545,0.148-9.687,0.226
				c-3.142,0.081-6.179,0.158-9.058,0.231c-2.881,0.083-5.604,0.162-8.116,0.234c-5.026,0.15-9.216,0.254-12.147,0.361
				c-2.932,0.098-4.607,0.153-4.607,0.153V347.203z"/>
		</g>
	</g>
	<g opacity="0.5" clip-path="url(#SVGID_6_)">
		<g>
			<defs>
				<rect id="SVGID_9_" x="265.66" y="355.8" width="107.23" height="4.19"/>
			</defs>
			<clipPath id="SVGID_10_">
				<use xlink:href="#SVGID_9_"  overflow="visible"/>
			</clipPath>
			<path clip-path="url(#SVGID_10_)" fill="#FFFFFF" d="M265.66,358.095c0,0,1.676,0.056,4.607,0.154
				c2.932,0.106,7.121,0.212,12.147,0.36c2.513,0.073,5.235,0.151,8.116,0.234c2.879,0.074,5.916,0.151,9.058,0.231
				c3.142,0.077,6.388,0.165,9.687,0.226c3.299,0.066,6.649,0.135,10,0.203s6.701,0.168,10,0.274
				c3.299,0.112,6.545,0.194,9.688,0.211c3.141,0.001,6.178-0.041,9.059-0.142c2.879-0.087,5.602-0.203,8.114-0.338
				c2.513-0.131,4.817-0.281,6.859-0.44c1.021-0.081,1.977-0.157,2.86-0.228c0.883-0.082,1.695-0.158,2.428-0.228
				c0.732-0.064,1.388-0.141,1.957-0.202c0.57-0.061,1.054-0.113,1.447-0.165c0.784-0.1,1.203-0.152,1.203-0.152v-0.403
				c0,0-0.419-0.053-1.203-0.153c-0.394-0.05-0.877-0.103-1.447-0.164c-0.569-0.061-1.225-0.138-1.957-0.202
				c-0.732-0.068-1.545-0.145-2.428-0.228c-0.884-0.07-1.84-0.147-2.86-0.228c-2.042-0.158-4.347-0.31-6.859-0.439
				c-2.513-0.135-5.235-0.251-8.114-0.338c-2.881-0.102-5.918-0.145-9.059-0.143c-3.143,0.017-6.389,0.099-9.688,0.211
				c-3.299,0.106-6.649,0.207-10,0.275s-6.701,0.137-10,0.202c-3.299,0.062-6.545,0.148-9.687,0.226
				c-3.142,0.08-6.179,0.157-9.058,0.231c-2.881,0.083-5.604,0.162-8.116,0.234c-5.026,0.149-9.216,0.254-12.147,0.36
				c-2.932,0.099-4.607,0.154-4.607,0.154V358.095z"/>
		</g>
	</g>
	<g opacity="0.4" clip-path="url(#SVGID_6_)">
		<g>
			<defs>
				<rect id="SVGID_11_" x="265.66" y="366.689" width="107.23" height="4.19"/>
			</defs>
			<clipPath id="SVGID_12_">
				<use xlink:href="#SVGID_11_"  overflow="visible"/>
			</clipPath>
			<path clip-path="url(#SVGID_12_)" fill="#FFFFFF" d="M265.66,368.985c0,0,1.676,0.056,4.607,0.155
				c2.932,0.105,7.121,0.211,12.147,0.361c2.513,0.071,5.235,0.149,8.116,0.232c2.879,0.074,5.916,0.152,9.058,0.232
				c3.142,0.077,6.388,0.165,9.687,0.225c3.299,0.067,6.649,0.135,10,0.203c3.351,0.069,6.701,0.168,10,0.275
				c3.299,0.111,6.545,0.193,9.688,0.211c3.141,0.001,6.178-0.041,9.059-0.143c2.879-0.087,5.602-0.203,8.114-0.338
				c2.513-0.131,4.817-0.281,6.859-0.439c1.021-0.081,1.977-0.157,2.86-0.229c0.883-0.082,1.695-0.158,2.428-0.226
				c0.732-0.066,1.388-0.143,1.957-0.203c0.57-0.062,1.054-0.114,1.447-0.165c0.784-0.1,1.203-0.153,1.203-0.153v-0.401
				c0,0-0.419-0.055-1.203-0.154c-0.394-0.05-0.877-0.104-1.447-0.164c-0.569-0.061-1.225-0.138-1.957-0.203
				c-0.732-0.068-1.545-0.144-2.428-0.227c-0.884-0.07-1.84-0.146-2.86-0.229c-2.042-0.158-4.347-0.308-6.859-0.438
				c-2.513-0.136-5.235-0.251-8.114-0.339c-2.881-0.101-5.918-0.144-9.059-0.143c-3.143,0.018-6.389,0.1-9.688,0.211
				c-3.299,0.107-6.649,0.207-10,0.276c-3.351,0.067-6.701,0.136-10,0.203c-3.299,0.06-6.545,0.146-9.687,0.224
				c-3.142,0.081-6.179,0.158-9.058,0.232c-2.881,0.082-5.604,0.161-8.116,0.233c-5.026,0.15-9.216,0.255-12.147,0.361
				c-2.932,0.098-4.607,0.155-4.607,0.155V368.985z"/>
		</g>
	</g>
	<g opacity="0.9" clip-path="url(#SVGID_6_)">
		<g>
			<defs>
				<rect id="SVGID_13_" x="265.66" y="312.93" width="107.23" height="4.2"/>
			</defs>
			<clipPath id="SVGID_14_">
				<use xlink:href="#SVGID_13_"  overflow="visible"/>
			</clipPath>
			<path clip-path="url(#SVGID_14_)" fill="#FFFFFF" d="M265.66,315.232c0,0,1.676,0.056,4.607,0.154
				c2.932,0.106,7.121,0.211,12.147,0.361c2.513,0.072,5.235,0.15,8.116,0.233c2.879,0.073,5.916,0.151,9.058,0.231
				c3.142,0.077,6.388,0.165,9.687,0.226c3.299,0.066,6.649,0.135,10,0.202c3.351,0.069,6.701,0.168,10,0.275
				c3.299,0.112,6.545,0.194,9.688,0.211c3.141,0.001,6.178-0.041,9.059-0.142c2.879-0.087,5.602-0.203,8.114-0.338
				c2.513-0.132,4.817-0.281,6.859-0.44c1.021-0.081,1.977-0.157,2.86-0.228c0.883-0.082,1.695-0.158,2.428-0.228
				c0.732-0.064,1.388-0.141,1.957-0.202c0.57-0.061,1.054-0.113,1.447-0.165c0.784-0.1,1.203-0.152,1.203-0.152v-0.402
				c0,0-0.419-0.054-1.203-0.154c-0.394-0.05-0.877-0.103-1.447-0.164c-0.569-0.061-1.225-0.138-1.957-0.203
				c-0.732-0.067-1.545-0.144-2.428-0.227c-0.884-0.07-1.84-0.146-2.86-0.228c-2.042-0.158-4.347-0.309-6.859-0.439
				c-2.513-0.135-5.235-0.251-8.114-0.338c-2.881-0.101-5.918-0.144-9.059-0.144c-3.143,0.019-6.389,0.1-9.688,0.212
				c-3.299,0.106-6.649,0.207-10,0.275s-6.701,0.136-10,0.202c-3.299,0.061-6.545,0.148-9.687,0.225
				c-3.142,0.081-6.179,0.158-9.058,0.232c-2.881,0.083-5.604,0.162-8.116,0.234c-5.026,0.149-9.216,0.255-12.147,0.36
				c-2.932,0.099-4.607,0.155-4.607,0.155V315.232z"/>
		</g>
	</g>
	<g opacity="0.8" clip-path="url(#SVGID_6_)">
		<g>
			<defs>
				<rect id="SVGID_15_" x="265.66" y="323.83" width="107.23" height="4.189"/>
			</defs>
			<clipPath id="SVGID_16_">
				<use xlink:href="#SVGID_15_"  overflow="visible"/>
			</clipPath>
			<path clip-path="url(#SVGID_16_)" fill="#FFFFFF" d="M265.66,326.123c0,0,1.676,0.057,4.607,0.155
				c2.932,0.106,7.121,0.211,12.147,0.361c2.513,0.071,5.235,0.149,8.116,0.232c2.879,0.074,5.916,0.152,9.058,0.232
				c3.142,0.077,6.388,0.165,9.687,0.225c3.299,0.067,6.649,0.136,10,0.203c3.351,0.069,6.701,0.168,10,0.275
				c3.299,0.111,6.545,0.193,9.688,0.211c3.141,0.001,6.178-0.041,9.059-0.143c2.879-0.087,5.602-0.202,8.114-0.338
				c2.513-0.131,4.817-0.28,6.859-0.439c1.021-0.081,1.977-0.157,2.86-0.229c0.883-0.082,1.695-0.157,2.428-0.227
				c0.732-0.065,1.388-0.142,1.957-0.202c0.57-0.061,1.054-0.114,1.447-0.165c0.784-0.1,1.203-0.153,1.203-0.153v-0.401
				c0,0-0.419-0.055-1.203-0.154c-0.394-0.05-0.877-0.103-1.447-0.164c-0.569-0.061-1.225-0.138-1.957-0.203
				c-0.732-0.067-1.545-0.144-2.428-0.227c-0.884-0.07-1.84-0.147-2.86-0.229c-2.042-0.157-4.347-0.308-6.859-0.438
				c-2.513-0.135-5.235-0.251-8.114-0.338c-2.881-0.103-5.918-0.145-9.059-0.144c-3.143,0.019-6.389,0.099-9.688,0.211
				c-3.299,0.107-6.649,0.207-10,0.276c-3.351,0.068-6.701,0.136-10,0.202c-3.299,0.061-6.545,0.147-9.687,0.225
				c-3.142,0.081-6.179,0.158-9.058,0.232c-2.881,0.083-5.604,0.161-8.116,0.233c-5.026,0.15-9.216,0.255-12.147,0.361
				c-2.932,0.098-4.607,0.155-4.607,0.155V326.123z"/>
		</g>
	</g>
	<g opacity="0.7" clip-path="url(#SVGID_6_)">
		<g>
			<defs>
				<rect id="SVGID_17_" x="265.66" y="334.72" width="107.23" height="4.19"/>
			</defs>
			<clipPath id="SVGID_18_">
				<use xlink:href="#SVGID_17_"  overflow="visible"/>
			</clipPath>
			<path clip-path="url(#SVGID_18_)" fill="#FFFFFF" d="M265.66,337.015c0,0,1.676,0.056,4.607,0.155
				c2.932,0.105,7.121,0.211,12.147,0.36c2.513,0.072,5.235,0.15,8.116,0.233c2.879,0.074,5.916,0.152,9.058,0.232
				c3.142,0.076,6.388,0.164,9.687,0.225c3.299,0.066,6.649,0.135,10,0.203s6.701,0.168,10,0.274
				c3.299,0.112,6.545,0.194,9.688,0.211c3.141,0.001,6.178-0.041,9.059-0.142c2.879-0.087,5.602-0.203,8.114-0.338
				c2.513-0.131,4.817-0.281,6.859-0.44c1.021-0.081,1.977-0.156,2.86-0.228c0.883-0.082,1.695-0.158,2.428-0.228
				c0.732-0.064,1.388-0.141,1.957-0.201c0.57-0.062,1.054-0.114,1.447-0.165c0.784-0.101,1.203-0.153,1.203-0.153v-0.402
				c0,0-0.419-0.054-1.203-0.153c-0.394-0.051-0.877-0.104-1.447-0.164c-0.569-0.062-1.225-0.139-1.957-0.203
				c-0.732-0.068-1.545-0.145-2.428-0.228c-0.884-0.069-1.84-0.146-2.86-0.228c-2.042-0.158-4.347-0.309-6.859-0.439
				c-2.513-0.135-5.235-0.251-8.114-0.338c-2.881-0.102-5.918-0.144-9.059-0.143c-3.143,0.018-6.389,0.099-9.688,0.211
				c-3.299,0.106-6.649,0.207-10,0.275s-6.701,0.137-10,0.202c-3.299,0.062-6.545,0.148-9.687,0.226
				c-3.142,0.081-6.179,0.158-9.058,0.231c-2.881,0.083-5.604,0.162-8.116,0.234c-5.026,0.149-9.216,0.255-12.147,0.361
				c-2.932,0.098-4.607,0.154-4.607,0.154V337.015z"/>
		</g>
	</g>
	<path clip-path="url(#SVGID_6_)" fill="#FFFFFF" d="M270.585,435.354c6.294-7.982,11.235-14.131,15.788-24.307l42.82-23.995
		l-16.787-1.378l-20.758,7.405c1.186-9.872-0.955-25.979-8.318-34.751c0,0,2.447-5.433,3.94-6.801
		c2.093,0.987,7.702,3.416,9.151,1.85c1.793-1.936,0.374-4.485,0.374-4.485l1.954-0.372l-0.229-2.664l2.046-0.592l0.07-3.699
		l3.973-0.328l-2.982-8.482c0,0-0.158,1.122,2.016-3.598c1.811-3.929-4.297-17.655-19.347-17.133
		c-5.687,0.197-11.767,1.844-14.692,4.346c-9.658,7.723,4.733,18.864-5.754,31.77c-0.637,0.338-44.652,12.058-44.652,12.058
		l-4.711,45.654l17.428,4.371c0.934,0.232,1.758-0.354,1.844-1.312l1.1-12.389c0.086-0.957-0.609-1.891-1.552-2.083l-8.229-1.686
		l6.238-15.706c0,0,11.569-3.845,21.379-4.724c0.016,6.252-0.904,18.688-3.713,26.237c-3.176,8.535-6.125,17.671-8.562,25.722
		c-8.792,1.063-15.605,8.548-15.605,17.627c0,3.146,0.818,6.097,2.253,8.659l-14.125,22.539c0,0-14.625,0.523-21.937,11.491
		s-18.802,39.692-18.802,39.692s61.658-47.249,81.951-68.408c9.186,7.219,17.979,17.117,17.979,31.5c0,0-10.099-5.918-16.888-0.174
		c-6.789,5.745-26.114,17.235-32.904,17.235l0.521,26.637c0,0,4.18-5.223,13.059-20.369l52.75-9.923
		C288.672,500.789,298.646,455.676,270.585,435.354"/>
	<path clip-path="url(#SVGID_6_)" fill="#FEDD79" d="M305,324.834c0,0,3.32-7.885-7.008-12.126
		c-9.775-4.242-7.654,13.094-7.654,13.094s2.213,7.931,7.331,11.942l-6.226,18.628l6.778-0.83l2.767-9.129l3.043-4.843l3.459-1.105
		L305,324.834z"/>
	<polygon clip-path="url(#SVGID_6_)" fill="#BE9C2F" points="305.578,323.577 264.932,328.511 264.109,321.364 301.989,316.432 	"/>
	<path clip-path="url(#SVGID_6_)" fill="#FEDD79" d="M257.725,372.752c0,0,20.395-9.74,4.148-25.312l2.782-2.688
		c0,0,17.659,31.17,22.086,30.063s4.058-5.349,4.058-5.349l2.629,9.037l-0.371,21.947l-20.286,35.412l-33.567-15.308l10.697-33.753
		l1.107-12.909c0,0,10.143-0.738,13.463-4.427"/>
	<path clip-path="url(#SVGID_6_)" fill="#BE9C2F" d="M250.27,375.369c0,0,20.103-1.845,17.89-17.338c0,0,13.647,28.956-5.901,45.187
		c-19.551,16.231-8.692,24.127-8.692,24.127l-14.546-5.683C239.02,421.662,255.064,387.356,250.27,375.369"/>
	<path clip-path="url(#SVGID_6_)" fill="#FEDD79" d="M285.127,359.369c0,0-9.544-5.395-4.703-18.397c0,0,1.799,6.916,5.533,10.374
		C289.692,354.804,285.127,359.369,285.127,359.369"/>
	<path clip-path="url(#SVGID_6_)" fill="#010101" d="M285.129,312.01c14.439,0,20.29,13.291,18.514,17.147
		c-1.444,3.134-1.859,3.692-1.975,3.713l-0.041-0.116c0,0-0.017,0.117,0.034,0.117c0.002,0,0.004,0,0.007-0.001l2.941,8.366
		l-3.973,0.328l-0.07,3.699l-2.045,0.592l0.228,2.664l-1.954,0.372c0,0,1.42,2.551-0.373,4.485c-0.337,0.365-0.9,0.514-1.592,0.514
		c-2.279,0-5.954-1.606-7.561-2.363c-1.492,1.368-3.938,6.801-3.938,6.801c7.361,8.771,9.503,24.879,8.318,34.751l20.757-7.405
		l16.787,1.377l-42.819,23.997c-4.554,10.175-9.495,16.323-15.789,24.306c28.062,20.321,18.087,65.436,18.087,65.436l-52.75,9.923
		c-8.88,15.146-13.059,20.369-13.059,20.369l-0.521-26.636c6.789,0,26.114-11.491,32.904-17.236
		c2.219-1.877,4.789-2.509,7.247-2.509c5.063,0.001,9.64,2.685,9.64,2.685c0-14.384-8.793-24.283-17.978-31.502
		c-20.294,21.159-81.953,68.408-81.953,68.408s11.49-28.725,18.802-39.692c7.313-10.969,21.936-11.49,21.936-11.49l14.125-22.54
		c-1.432-2.563-2.25-5.514-2.25-8.659c0-9.079,6.813-16.565,15.604-17.627c2.437-8.05,5.386-17.187,8.562-25.722
		c2.809-7.549,3.729-19.985,3.713-26.237c-9.811,0.879-21.379,1.995-21.379,1.995l-6.238,18.435l8.23,1.686
		c0.941,0.192,1.636,1.126,1.551,2.083l-1.1,12.389c-0.072,0.816-0.682,1.362-1.437,1.362c-0.132,0-0.269-0.018-0.406-0.052
		l-17.429-4.37l4.712-45.654c0,0,44.015-11.72,44.651-12.058c10.486-12.905-3.903-24.047,5.754-31.771
		c2.926-2.501,9.007-4.147,14.693-4.345C284.577,312.014,284.854,312.01,285.129,312.01 M285.129,307.868L285.129,307.868
		c-0.324,0-0.646,0.006-0.977,0.017c-5.266,0.184-12.911,1.679-17.186,5.291c-6.56,5.285-5.203,11.968-4.113,17.339
		c1.004,4.943,1.879,9.256-1.485,14.047c-5.362,1.516-27.944,7.562-43.235,11.633l-2.76,0.735l-0.294,2.842l-4.712,45.653
		l-0.368,3.569l3.479,0.872l17.43,4.371c0.465,0.116,0.939,0.176,1.413,0.176c2.909,0,5.3-2.208,5.56-5.136l1.102-12.389
		c0.27-3.037-1.859-5.896-4.846-6.507l-3.635-0.743l3.877-11.454c3.115-0.298,8.549-0.812,14.047-1.316
		c-0.328,6.31-1.326,14.874-3.326,20.248c-2.558,6.874-5.215,14.791-7.91,23.562c-9.586,2.418-16.516,11.104-16.516,21.231
		c0,2.887,0.572,5.747,1.67,8.396l-11.83,18.878c-4.873,0.643-16.332,3.185-22.953,13.118
		c-7.467,11.198-18.727,39.264-19.202,40.453l-5.595,13.988l11.957-9.164c2.424-1.857,57.32-43.984,79.717-66.09
		c7.162,6.245,11.371,12.642,12.897,19.655c-1.487-0.348-3.129-0.583-4.842-0.583c-3.847-0.001-7.185,1.173-9.922,3.487
		c-7.3,6.178-25.367,16.257-30.229,16.257h-4.223l0.083,4.222l0.522,26.636l0.224,11.441l7.149-8.936
		c0.17-0.215,4.16-5.245,12.438-19.234l50.902-9.575l2.688-0.506l0.59-2.67c0.107-0.484,2.613-12.034,1.566-26.294
		c-1.286-17.531-7.452-31.502-17.902-40.7c5.051-6.453,9.245-12.181,13.2-20.69l41.64-23.335l11.83-6.629l-13.517-1.109
		l-16.787-1.378l-0.89-0.072l-0.84,0.3l-14.932,5.327c-0.074-8.967-2.094-20.82-7.926-29.26c0.209-0.41,0.418-0.806,0.619-1.173
		c2.406,0.904,4.434,1.361,6.053,1.361c2.419,0,3.854-1,4.631-1.839c1.158-1.252,1.727-2.629,1.926-3.959l1.808-0.346l-0.257-3
		l1.709-0.495l0.059-3.009l0.244-0.021l5.345-0.441l-1.778-5.058l-2.287-6.501c0.363-0.711,0.742-1.533,1.175-2.473
		c1.737-3.77-0.05-8.868-2.3-12.384C300.775,311.746,293.495,307.869,285.129,307.868"/>
	<path clip-path="url(#SVGID_6_)" fill="#010101" d="M287.352,356.354c0,0-0.047-0.054-0.136-0.153
		c-0.101-0.112-0.242-0.273-0.399-0.464c-0.326-0.389-0.764-0.946-1.265-1.63c-0.492-0.689-1.058-1.492-1.597-2.397
		c-0.551-0.892-1.075-1.885-1.561-2.886c-0.221-0.517-0.461-1.016-0.654-1.529c-0.181-0.521-0.397-1.007-0.529-1.515
		c-0.139-0.505-0.309-0.97-0.389-1.442c-0.088-0.468-0.207-0.895-0.248-1.307c-0.045-0.406-0.088-0.779-0.125-1.11
		c-0.028-0.329-0.014-0.621-0.021-0.856c-0.003-0.47-0.005-0.738-0.005-0.738s0.066,0.261,0.182,0.716
		c0.063,0.225,0.114,0.501,0.219,0.807c0.111,0.302,0.238,0.644,0.375,1.015c0.131,0.369,0.345,0.748,0.527,1.153
		c0.176,0.409,0.447,0.809,0.682,1.232c0.228,0.426,0.545,0.829,0.818,1.253c0.286,0.42,0.621,0.821,0.928,1.23
		c0.662,0.796,1.344,1.563,2.033,2.237c0.676,0.686,1.355,1.274,1.934,1.771c0.587,0.488,1.084,0.879,1.436,1.133
		c0.178,0.134,0.307,0.221,0.391,0.276c0.097,0.067,0.148,0.104,0.148,0.104L287.352,356.354z"/>
	<path clip-path="url(#SVGID_6_)" fill="#010101" d="M249.432,372.779c0,0,0.092-0.01,0.264-0.027
		c0.182-0.025,0.449-0.062,0.789-0.108c0.689-0.103,1.684-0.272,2.865-0.544c2.357-0.535,5.491-1.476,8.299-3.052
		c0.689-0.405,1.375-0.828,1.996-1.311c0.641-0.464,1.205-0.993,1.729-1.529c0.262-0.27,0.484-0.562,0.725-0.834
		c0.204-0.296,0.422-0.578,0.605-0.87c0.361-0.59,0.648-1.183,0.865-1.754c0.095-0.291,0.187-0.571,0.272-0.836
		c0.06-0.275,0.114-0.536,0.166-0.781c0.099-0.494,0.108-0.938,0.157-1.303c-0.004-0.733-0.004-1.152-0.004-1.152
		s0.066,0.417,0.182,1.147c0.008,0.369,0.068,0.823,0.046,1.346c-0.016,0.262-0.03,0.541-0.047,0.835
		c-0.048,0.293-0.099,0.6-0.149,0.921c-0.136,0.638-0.342,1.319-0.636,2.019c-0.149,0.349-0.335,0.689-0.512,1.049
		c-0.211,0.336-0.409,0.695-0.649,1.033c-0.479,0.676-1.014,1.354-1.629,1.969c-0.601,0.633-1.271,1.207-1.957,1.765
		c-2.781,2.185-5.976,3.705-8.414,4.672c-1.222,0.487-2.264,0.838-3.006,1.07c-0.377,0.111-0.673,0.2-0.874,0.26
		c-0.216,0.058-0.329,0.089-0.329,0.089L249.432,372.779z"/>
	<path clip-path="url(#SVGID_6_)" fill="#FFFFFF" d="M358.174,435.354c6.293-7.982,11.234-14.131,15.788-24.307l42.819-23.995
		l-16.786-1.378l-20.759,7.405c1.186-9.872-0.956-25.979-8.317-34.751c0,0,2.447-5.433,3.938-6.801
		c2.095,0.987,7.703,3.416,9.152,1.85c1.793-1.936,0.373-4.485,0.373-4.485l1.955-0.372l-0.229-2.664l2.045-0.592l0.07-3.699
		l3.973-0.328l-2.982-8.482c0,0-0.158,1.122,2.016-3.598c1.811-3.929-4.297-17.655-19.346-17.133
		c-5.687,0.197-11.767,1.844-14.693,4.346c-9.657,7.723,4.732,18.864-5.754,31.77c-0.637,0.338-44.651,12.058-44.651,12.058
		l-4.712,45.654l17.429,4.371c0.933,0.232,1.757-0.354,1.843-1.312l1.1-12.389c0.085-0.957-0.609-1.891-1.551-2.083l-8.229-1.686
		l6.238-15.706c0,0,11.569-3.845,21.378-4.724c0.016,6.252-0.903,18.688-3.712,26.237c-3.177,8.535-6.125,17.671-8.562,25.722
		c-8.793,1.063-15.605,8.548-15.605,17.627c0,3.146,0.818,6.097,2.251,8.659l-14.124,22.539c0,0-14.624,0.523-21.936,11.491
		c-7.313,10.968-18.803,39.692-18.803,39.692s61.658-47.249,81.952-68.408c9.185,7.219,17.978,17.117,17.978,31.5
		c0,0-10.097-5.918-16.887-0.174c-6.79,5.745-26.113,17.235-32.904,17.235l0.522,26.637c0,0,4.179-5.223,13.058-20.369l52.75-9.923
		C376.26,500.789,386.234,455.676,358.174,435.354"/>
	<path clip-path="url(#SVGID_6_)" fill="#FEDD79" d="M392.588,324.834c0,0,3.32-7.885-7.008-12.126
		c-9.775-4.242-7.654,13.094-7.654,13.094s2.213,7.931,7.332,11.942l-6.226,18.628l6.778-0.83l2.766-9.129l3.044-4.843l3.458-1.105
		L392.588,324.834z"/>
	<polygon clip-path="url(#SVGID_6_)" fill="#BE9C2F" points="393.167,323.577 352.521,328.511 351.697,321.364 389.578,316.432 	"/>
	<path clip-path="url(#SVGID_6_)" fill="#FEDD79" d="M345.313,372.752c0,0,20.395-9.74,4.15-25.312l2.78-2.688
		c0,0,17.659,31.17,22.086,30.063s4.058-5.349,4.058-5.349l2.629,9.037l-0.369,21.947l-20.288,35.412l-33.567-15.308l10.697-33.753
		l1.107-12.909c0,0,10.144-0.738,13.463-4.427"/>
	<path clip-path="url(#SVGID_6_)" fill="#BE9C2F" d="M337.857,375.369c0,0,20.104-1.845,17.89-17.338
		c0,0,13.649,28.956-5.901,45.187c-19.551,16.231-8.692,24.127-8.692,24.127l-14.546-5.683
		C326.607,421.662,342.652,387.356,337.857,375.369"/>
	<path clip-path="url(#SVGID_6_)" fill="#FEDD79" d="M372.716,359.369c0,0-9.544-5.395-4.703-18.397c0,0,1.798,6.916,5.532,10.374
		S372.716,359.369,372.716,359.369"/>
	<path clip-path="url(#SVGID_6_)" fill="#010101" d="M372.717,312.01c14.439,0,20.291,13.291,18.515,17.147
		c-1.444,3.135-1.86,3.692-1.976,3.713l-0.041-0.116c0,0-0.016,0.117,0.033,0.117c0.004,0,0.006,0,0.008-0.001l2.941,8.366
		l-3.973,0.328l-0.07,3.699l-2.045,0.592l0.229,2.664l-1.954,0.372c0,0,1.419,2.551-0.373,4.485
		c-0.337,0.365-0.901,0.514-1.593,0.514c-2.279,0-5.953-1.606-7.56-2.363c-1.493,1.368-3.94,6.801-3.94,6.801
		c7.363,8.771,9.504,24.879,8.318,34.751l20.758-7.405l16.787,1.377l-42.82,23.997c-4.553,10.175-9.494,16.323-15.787,24.306
		c28.062,20.321,18.087,65.436,18.087,65.436l-52.751,9.923c-8.879,15.146-13.059,20.369-13.059,20.369l-0.521-26.636
		c6.79,0,26.115-11.491,32.904-17.236c2.219-1.877,4.789-2.509,7.248-2.509c5.062,0.001,9.64,2.685,9.64,2.685
		c0-14.384-8.794-24.283-17.979-31.502c-20.293,21.159-81.951,68.408-81.951,68.408s11.49-28.725,18.802-39.692
		c7.312-10.969,21.936-11.49,21.936-11.49l14.125-22.54c-1.434-2.563-2.252-5.514-2.252-8.659c0-9.079,6.813-16.565,15.606-17.627
		c2.437-8.05,5.385-17.187,8.561-25.722c2.809-7.549,3.729-19.985,3.713-26.237c-9.81,0.879-21.378,1.995-21.378,1.995
		l-6.239,18.435l8.23,1.686c0.941,0.192,1.637,1.126,1.551,2.083l-1.1,12.389c-0.072,0.816-0.682,1.362-1.436,1.362
		c-0.133,0-0.269-0.018-0.406-0.052l-17.43-4.37l4.711-45.654c0,0,44.016-11.72,44.653-12.058
		c10.485-12.905-3.903-24.047,5.753-31.771c2.926-2.501,9.006-4.147,14.693-4.345C372.166,312.014,372.441,312.01,372.717,312.01
		 M372.717,307.868L372.717,307.868c-0.323,0-0.646,0.006-0.977,0.017c-5.265,0.184-12.91,1.679-17.186,5.291
		c-6.559,5.285-5.202,11.968-4.112,17.339c1.003,4.943,1.878,9.256-1.487,14.047c-5.361,1.516-27.942,7.562-43.234,11.633
		l-2.76,0.735l-0.293,2.842l-4.713,45.653l-0.367,3.569l3.479,0.872l17.429,4.371c0.465,0.116,0.94,0.176,1.414,0.176
		c2.909,0,5.299-2.208,5.56-5.136l1.1-12.389c0.271-3.037-1.858-5.896-4.845-6.507l-3.635-0.743l3.877-11.454
		c3.115-0.298,8.549-0.812,14.048-1.316c-0.328,6.31-1.327,14.874-3.327,20.248c-2.557,6.875-5.215,14.792-7.91,23.562
		c-9.586,2.418-16.517,11.104-16.517,21.231c0,2.887,0.573,5.747,1.672,8.396l-11.83,18.878
		c-4.874,0.643-16.332,3.185-22.955,13.118c-7.465,11.198-18.726,39.264-19.202,40.453l-5.595,13.988l11.959-9.164
		c2.423-1.857,57.319-43.984,79.717-66.09c7.162,6.245,11.37,12.642,12.897,19.655c-1.487-0.348-3.131-0.583-4.842-0.583
		c-3.848-0.001-7.187,1.173-9.922,3.487c-7.301,6.178-25.367,16.257-30.23,16.257h-4.223l0.084,4.222l0.521,26.636l0.224,11.441
		l7.149-8.936c0.172-0.215,4.162-5.245,12.438-19.234l50.903-9.575l2.687-0.506l0.591-2.67c0.106-0.484,2.612-12.034,1.565-26.294
		c-1.287-17.531-7.451-31.502-17.902-40.7c5.052-6.453,9.244-12.179,13.201-20.69l41.638-23.335l11.831-6.629l-13.516-1.109
		l-16.787-1.378l-0.89-0.072l-0.841,0.3l-14.932,5.327c-0.073-8.967-2.094-20.82-7.926-29.26c0.209-0.41,0.418-0.806,0.619-1.173
		c2.407,0.904,4.434,1.361,6.053,1.361c2.42,0,3.854-1,4.631-1.839c1.158-1.252,1.727-2.629,1.926-3.959l1.809-0.346l-0.258-3
		l1.71-0.495l0.058-3.009l0.244-0.021l5.344-0.441l-1.777-5.058l-2.286-6.501c0.363-0.711,0.741-1.533,1.175-2.473
		c1.736-3.77-0.051-8.868-2.301-12.385C388.363,311.746,381.082,307.869,372.717,307.868"/>
	<path clip-path="url(#SVGID_6_)" fill="#010101" d="M374.94,356.354c0,0-0.048-0.054-0.138-0.153
		c-0.1-0.112-0.24-0.273-0.397-0.464c-0.327-0.389-0.765-0.946-1.267-1.63c-0.49-0.689-1.057-1.492-1.595-2.397
		c-0.552-0.892-1.075-1.885-1.562-2.886c-0.221-0.517-0.461-1.016-0.653-1.529c-0.181-0.521-0.399-1.007-0.53-1.515
		c-0.138-0.505-0.308-0.97-0.389-1.442c-0.088-0.468-0.206-0.895-0.248-1.307c-0.046-0.406-0.088-0.779-0.125-1.11
		c-0.029-0.329-0.013-0.621-0.02-0.856c-0.004-0.47-0.006-0.738-0.006-0.738s0.066,0.261,0.182,0.716
		c0.063,0.225,0.115,0.501,0.219,0.807c0.112,0.302,0.237,0.644,0.375,1.015c0.131,0.369,0.344,0.748,0.528,1.153
		c0.176,0.409,0.446,0.809,0.681,1.232c0.229,0.426,0.545,0.829,0.819,1.253c0.286,0.42,0.62,0.821,0.927,1.23
		c0.662,0.796,1.344,1.563,2.034,2.237c0.675,0.686,1.354,1.274,1.933,1.771c0.586,0.488,1.085,0.879,1.436,1.133
		c0.179,0.134,0.307,0.221,0.391,0.276c0.098,0.067,0.148,0.104,0.148,0.104L374.94,356.354z"/>
	<path clip-path="url(#SVGID_6_)" fill="#010101" d="M337.02,372.779c0,0,0.092-0.01,0.264-0.027
		c0.182-0.025,0.449-0.062,0.791-0.108c0.688-0.103,1.682-0.272,2.863-0.544c2.357-0.535,5.491-1.476,8.299-3.052
		c0.689-0.405,1.375-0.828,1.996-1.311c0.641-0.464,1.205-0.993,1.729-1.529c0.263-0.27,0.484-0.562,0.727-0.834
		c0.202-0.296,0.42-0.578,0.604-0.87c0.361-0.59,0.648-1.183,0.865-1.754c0.096-0.291,0.187-0.571,0.273-0.836
		c0.059-0.275,0.113-0.536,0.165-0.781c0.099-0.494,0.108-0.938,0.157-1.303c-0.004-0.733-0.004-1.152-0.004-1.152
		s0.066,0.417,0.182,1.147c0.01,0.369,0.068,0.823,0.046,1.346c-0.015,0.262-0.03,0.541-0.047,0.835
		c-0.048,0.293-0.097,0.6-0.149,0.921c-0.136,0.638-0.342,1.319-0.636,2.019c-0.149,0.349-0.335,0.689-0.512,1.049
		c-0.211,0.336-0.409,0.695-0.649,1.033c-0.478,0.676-1.013,1.354-1.629,1.969c-0.601,0.633-1.271,1.207-1.957,1.765
		c-2.781,2.185-5.976,3.705-8.414,4.672c-1.222,0.487-2.264,0.838-3.006,1.07c-0.376,0.111-0.673,0.2-0.874,0.26
		c-0.215,0.058-0.329,0.089-0.329,0.089L337.02,372.779z"/>
	<polygon clip-path="url(#SVGID_6_)" fill="#010101" points="375.357,358.269 368.564,362.689 372.287,355.49 	"/>
	<path clip-path="url(#SVGID_6_)" fill="#010101" d="M326.237,420.796l36.2,15.462l10.004,11.824c0,0-19.828,10.551-20.737,10.914
		s-17.281-0.728-17.281-0.728l-22.557-27.832L326.237,420.796z"/>
	<path clip-path="url(#SVGID_6_)" fill="#010101" d="M317.479,377.816c0,0,0.061-0.16,0.172-0.44
		c0.105-0.291,0.258-0.718,0.414-1.24c0.164-0.521,0.328-1.137,0.482-1.804c0.152-0.666,0.279-1.383,0.355-2.104
		c0.021-0.353,0.078-0.726,0.066-1.07c0.005-0.354,0.01-0.707-0.037-1.034c-0.018-0.341-0.078-0.652-0.156-0.948
		c-0.05-0.314-0.18-0.561-0.281-0.814c-0.084-0.27-0.256-0.441-0.377-0.635c-0.117-0.199-0.262-0.332-0.391-0.431
		c-0.256-0.219-0.402-0.344-0.402-0.344s0.181,0.069,0.498,0.193c0.17,0.058,0.367,0.144,0.555,0.302
		c0.191,0.15,0.459,0.295,0.645,0.539c0.204,0.23,0.457,0.479,0.627,0.789c0.201,0.302,0.396,0.632,0.543,0.989
		c0.18,0.355,0.31,0.732,0.439,1.12c0.148,0.39,0.225,0.786,0.337,1.19c0.188,0.803,0.319,1.615,0.407,2.381
		c0.084,0.763,0.139,1.479,0.158,2.095c0.029,0.616,0.025,1.133,0.021,1.5c-0.013,0.377-0.02,0.592-0.02,0.592L317.479,377.816z"/>
	<rect x="245.926" y="408.341" clip-path="url(#SVGID_6_)" fill="#1A1A19" width="42.154" height="30.286"/>
</g>
<rect x="266.135" y="374.901" fill="#FEDD79" width="145.834" height="37.316"/>
<rect x="265.003" y="404.461" fill="#FFFFFF" width="147.661" height="7.906"/>
<rect x="265.555" y="374.555" fill="#FFFFFF" width="147.109" height="7.906"/>
<path fill="#231F20" d="M404.434,414.682H273.671c-5.522,0-10-4.477-10-10v-32.244h150.763v32.244
	C414.434,410.205,409.956,414.682,404.434,414.682 M268.6,409.754h140.905v-32.39H268.6V409.754z"/>
<path fill="#010101" d="M287.563,400.092v-2.663c5.743-4.154,6.815-5.068,6.815-6.4c0-0.894-0.854-1.37-1.828-1.37
	c-1.47,0-2.582,0.557-3.537,1.45l-1.887-2.266c1.41-1.55,3.516-2.206,5.365-2.206c3.12,0,5.365,1.749,5.365,4.392
	c0,2.049-1.45,3.777-4.749,6.082h4.849v2.981H287.563z"/>
<path fill="#010101" d="M299.268,393.494c0-4.233,2.563-6.857,6.578-6.857c1.551,0,3.021,0.497,4.016,1.272l-1.473,2.624
	c-0.734-0.598-1.47-0.875-2.543-0.875c-1.63,0-3.119,1.173-3.119,3.021v0.159c0.655-0.875,1.928-1.511,3.258-1.511
	c2.386,0,4.592,1.531,4.592,4.353c0,2.723-2.206,4.65-5.287,4.65C301.096,400.33,299.268,397.29,299.268,393.494 M307.118,395.799
	c0-1.113-1.134-1.57-2.167-1.57c-0.834,0-1.649,0.278-2.225,0.895c0.098,1.073,0.734,2.186,2.344,2.186
	C306.343,397.309,307.118,396.534,307.118,395.799"/>
<path fill="#010101" d="M311.807,398.442c0-0.994,0.874-1.849,1.889-1.849c1.013,0,1.867,0.854,1.867,1.849
	c0,1.014-0.854,1.868-1.867,1.868C312.681,400.311,311.807,399.456,311.807,398.442"/>
<path fill="#010101" d="M317.252,400.092v-2.663c5.742-4.154,6.816-5.068,6.816-6.4c0-0.894-0.854-1.37-1.828-1.37
	c-1.471,0-2.584,0.557-3.537,1.45l-1.889-2.266c1.411-1.55,3.518-2.206,5.366-2.206c3.12,0,5.365,1.749,5.365,4.392
	c0,2.049-1.45,3.777-4.749,6.082h4.849v2.981H317.252z"/>
<polygon fill="#010101" points="346.346,400.092 346.346,391.328 343.007,400.092 341.496,400.092 338.137,391.328 338.137,400.092 
	334.719,400.092 334.719,386.836 339.469,386.836 342.251,394.149 345.014,386.836 349.764,386.836 349.764,400.092 "/>
<rect x="352.146" y="386.836" fill="#010101" width="3.418" height="13.256"/>
<polygon fill="#010101" points="357.89,400.092 357.89,386.836 361.308,386.836 361.308,397.11 366.635,397.11 366.635,400.092 "/>
<polygon fill="#010101" points="368.383,400.092 368.383,386.836 378.1,386.836 378.1,389.816 371.801,389.816 371.801,391.884 
	377.961,391.884 377.961,394.865 371.801,394.865 371.801,397.11 378.1,397.11 378.1,400.092 "/>
<path fill="#010101" d="M379.133,398.224l1.809-2.663c0.954,0.954,2.424,1.749,4.253,1.749c1.152,0,1.868-0.397,1.868-1.053
	c0-1.749-7.493-0.3-7.493-5.406c0-2.226,1.869-4.213,5.267-4.213c2.127,0,3.976,0.636,5.387,1.848l-1.868,2.564
	c-1.112-0.936-2.563-1.393-3.876-1.393c-0.993,0-1.432,0.339-1.432,0.915c0,1.629,7.494,0.397,7.494,5.326
	c0,2.663-1.969,4.432-5.525,4.432C382.332,400.33,380.465,399.476,379.133,398.224"/>
<path fill="#1A1A19" d="M338.832,288.367l0.086,0.001c1.124,0.014,1.822,0.273,1.979,0.363l65.506,37.82
	c0.849,0.489,2.063,2.593,2.063,3.573v75.64c0,0.979-1.215,3.083-2.063,3.573l-65.506,37.819c-0.156,0.09-0.854,0.351-1.977,0.364
	h-0.088c-1.168,0-1.898-0.27-2.063-0.364l-65.506-37.819c-0.848-0.49-2.063-2.594-2.063-3.573v-75.64
	c0-0.98,1.213-3.084,2.063-3.573l65.506-37.82C336.934,288.638,337.664,288.367,338.832,288.367 M338.832,280.088
	c-2.248,0-4.496,0.488-6.202,1.473l-65.506,37.82c-3.412,1.97-6.203,6.805-6.203,10.744v75.64c0,3.939,2.791,8.773,6.203,10.744
	l65.506,37.819c1.706,0.985,3.954,1.474,6.202,1.474c0.062,0,0.123,0,0.184-0.001c2.188-0.026,4.36-0.515,6.02-1.473l65.507-37.819
	c3.411-1.971,6.202-6.805,6.202-10.744v-75.64c0-3.939-2.791-8.774-6.202-10.744l-65.507-37.82c-1.659-0.958-3.832-1.446-6.02-1.472
	C338.955,280.088,338.893,280.088,338.832,280.088"/>
</svg>
