<?xml version="1.0" encoding="utf-8"?>
<!-- Generator: Adobe Illustrator 16.0.0, SVG Export Plug-In . SVG Version: 6.00 Build 0)  -->
<!DOCTYPE svg PUBLIC "-//W3C//DTD SVG 1.1//EN" "http://www.w3.org/Graphics/SVG/1.1/DTD/svg11.dtd">
<svg version="1.1" id="Layer_1" xmlns="http://www.w3.org/2000/svg" xmlns:xlink="http://www.w3.org/1999/xlink" x="0px" y="0px"
	 width="612px" height="792px" viewBox="0 0 612 792" enable-background="new 0 0 612 792" xml:space="preserve">
<path fill="none" d="M311.63-1226.76"/>
<path fill="none" d="M311.63,2018.837"/>
<path fill="none" d="M312.63-1225.76"/>
<path fill="none" d="M312.63,2019.837"/>
<path fill="#5F9AD2" d="M185.246,519.479"/>
<path fill="#FFFFFF" d="M185.246,519.729"/>
<path fill="#231F20" d="M185.246,519.73"/>
<path fill="#A6A8AC" d="M223.316,566.5c0-4.736,3.449-7.934,7.772-7.934c2.53,0,4.368,1.013,5.772,2.622l-0.99,0.713
	c-1.08-1.288-2.828-2.139-4.782-2.139c-3.587,0-6.392,2.736-6.392,6.737c0,3.955,2.805,6.76,6.392,6.76
	c2.046,0,3.679-1.011,4.507-1.861v-3.679h-5.795v-1.174h7.105v5.358c-1.356,1.517-3.402,2.552-5.817,2.552
	C226.766,574.456,223.316,571.237,223.316,566.5"/>
<path fill="#A6A8AC" d="M251.994,574.158l-4.299-6.348h-3.381v6.348h-1.312V558.82h5.728c2.643,0,4.668,1.678,4.668,4.483
	c0,2.782-1.955,4.323-4.256,4.415l4.438,6.439H251.994z M252.018,563.304c0-1.932-1.357-3.289-3.402-3.289h-4.301v6.601h4.301
	C250.66,566.615,252.018,565.236,252.018,563.304"/>
<polygon fill="#A6A8AC" points="259.426,574.157 259.426,558.819 269.152,558.819 269.152,560.016 260.736,560.016 260.736,565.695 
	268.991,565.695 268.991,566.891 260.736,566.891 260.736,572.962 269.152,572.962 269.152,574.157 "/>
<path fill="#A6A8AC" d="M286.265,574.157l-1.519-3.771h-8.117l-1.518,3.771h-1.518l6.277-15.338h1.633l6.278,15.338H286.265z
	 M280.699,560.223l-3.633,8.968h7.243L280.699,560.223z"/>
<polygon fill="#A6A8AC" points="295.121,574.157 295.121,560.016 290.107,560.016 290.107,558.819 301.467,558.819 301.467,560.016 
	296.455,560.016 296.455,574.157 "/>
<polygon fill="#A6A8AC" points="327.41,574.157 323.73,560.981 320.053,574.157 318.58,574.157 314.188,558.819 315.659,558.819 
	319.361,572.317 323.133,558.819 324.33,558.819 328.078,572.317 331.779,558.819 333.252,558.819 328.883,574.157 "/>
<path fill="#A6A8AC" d="M348.341,574.157l-1.519-3.771h-8.117l-1.518,3.771h-1.518l6.277-15.338h1.633l6.278,15.338H348.341z
	 M342.775,560.223l-3.633,8.968h7.243L342.775,560.223z"/>
<polygon fill="#A6A8AC" points="354.553,574.157 354.553,558.819 355.886,558.819 355.886,572.962 363.314,572.962 363.314,574.157 
	"/>
<polygon fill="#A6A8AC" points="368.445,574.157 368.445,558.819 369.777,558.819 369.777,572.962 377.205,572.962 377.205,574.157 
	"/>
<path fill="#A6A8AC" d="M239.818,594.1c0-4.483,2.945-7.934,7.451-7.934c4.484,0,7.451,3.45,7.451,7.934
	c0,4.484-2.967,7.935-7.451,7.935C242.764,602.034,239.818,598.584,239.818,594.1 M253.34,594.1c0-3.887-2.392-6.736-6.07-6.736
	c-3.701,0-6.07,2.85-6.07,6.736c0,3.863,2.369,6.737,6.07,6.737C250.948,600.837,253.34,597.963,253.34,594.1"/>
<polygon fill="#A6A8AC" points="260.727,601.757 260.727,586.419 270.453,586.419 270.453,587.615 262.037,587.615 262.037,593.295 
	270.292,593.295 270.292,594.49 262.037,594.49 262.037,601.757 "/>
<path fill="#A6A8AC" d="M284.096,594.1c0-4.714,3.426-7.934,7.771-7.934c2.438,0,4.3,1.081,5.587,2.714l-1.103,0.713
	c-0.967-1.334-2.646-2.229-4.484-2.229c-3.588,0-6.393,2.735-6.393,6.736c0,3.955,2.805,6.737,6.393,6.737
	c1.839,0,3.518-0.896,4.484-2.229l1.127,0.688c-1.381,1.679-3.174,2.738-5.611,2.738C287.521,602.034,284.096,598.814,284.096,594.1
	"/>
<polygon fill="#A6A8AC" points="313.9,601.757 313.9,594.468 304.173,594.468 304.173,601.757 302.861,601.757 302.861,586.419 
	304.173,586.419 304.173,593.272 313.9,593.272 313.9,586.419 315.211,586.419 315.211,601.757 "/>
<rect x="321.791" y="586.419" fill="#A6A8AC" width="1.313" height="15.338"/>
<polygon fill="#A6A8AC" points="340.648,601.757 330.99,588.581 330.99,601.757 329.679,601.757 329.679,586.419 331.013,586.419 
	340.625,599.411 340.625,586.419 341.936,586.419 341.936,601.757 "/>
<path fill="#A6A8AC" d="M359.624,601.758l-1.519-3.772h-8.117l-1.518,3.772h-1.518l6.277-15.338h1.633l6.278,15.338H359.624z
	 M354.059,587.822l-3.633,8.969h7.243L354.059,587.822z"/>
<path fill="#E8D862" d="M227.453,482.45l64.666,37.335c1.729,0.998,4.023,1.48,6.303,1.453c2.159-0.025,4.305-0.507,5.943-1.453
	l64.666-37.335c3.367-1.944,6.123-6.717,6.123-10.606v-74.668c0-3.89-2.756-8.662-6.123-10.606l-64.666-37.335
	c-1.639-0.945-3.784-1.427-5.943-1.453c-2.279-0.027-4.574,0.455-6.303,1.453l-64.666,37.335c-3.368,1.944-6.123,6.717-6.123,10.606
	v74.668C221.33,475.733,224.085,480.506,227.453,482.45"/>
<path fill="#D4B32A" d="M369.399,483.073c3.411-1.97,6.202-6.804,6.202-10.743v-75.641c0-3.939-2.791-8.774-6.202-10.743
	l-65.507-37.821c-1.537-0.887-3.515-1.366-5.535-1.453v175.675c2.021-0.088,3.998-0.567,5.535-1.454L369.399,483.073z"/>
<g opacity="0.4">
	<g>
		<defs>
			<rect id="SVGID_1_" x="220.33" y="346.65" width="155.82" height="175.72"/>
		</defs>
		<clipPath id="SVGID_2_">
			<use xlink:href="#SVGID_1_"  overflow="visible"/>
		</clipPath>
		<path clip-path="url(#SVGID_2_)" fill="#FFFFFF" d="M298.242,362.073l62.731,36.219v72.436l-62.731,36.22l-62.732-36.219v-72.437
			L298.242,362.073 M298.24,346.652c-2.248,0-4.496,0.489-6.201,1.474l-65.506,37.82c-3.412,1.97-6.203,6.805-6.203,10.744v75.641
			c0,3.939,2.791,8.773,6.203,10.744l65.506,37.819c1.705,0.985,3.953,1.474,6.201,1.474c0.061,0,0.123,0,0.184-0.002
			c2.188-0.025,4.361-0.514,6.021-1.472l65.507-37.819c3.411-1.971,6.202-6.805,6.202-10.744v-75.641
			c0-3.938-2.791-8.773-6.202-10.744l-65.507-37.82c-1.659-0.958-3.833-1.446-6.021-1.472
			C298.363,346.652,298.301,346.652,298.24,346.652"/>
	</g>
</g>
<path fill="#1A1A19" d="M298.24,354.933l0.086,0.001c1.125,0.013,1.823,0.273,1.979,0.363l65.507,37.82
	c0.849,0.49,2.062,2.593,2.062,3.573v75.641c0,0.979-1.215,3.082-2.063,3.572l-65.506,37.82c-0.156,0.09-0.854,0.35-1.977,0.364
	h-0.088c-1.168,0-1.898-0.27-2.062-0.364l-65.507-37.82c-0.848-0.49-2.063-2.593-2.063-3.572v-75.641
	c0-0.979,1.214-3.083,2.063-3.573l65.507-37.82C296.342,355.203,297.072,354.933,298.24,354.933 M298.24,346.652
	c-2.248,0-4.496,0.489-6.201,1.474l-65.506,37.82c-3.412,1.97-6.203,6.805-6.203,10.744v75.641c0,3.939,2.791,8.773,6.203,10.744
	l65.506,37.819c1.705,0.985,3.953,1.474,6.201,1.474c0.063,0,0.123,0,0.184-0.002c2.188-0.025,4.361-0.514,6.021-1.472
	l65.507-37.819c3.411-1.971,6.202-6.805,6.202-10.744v-75.641c0-3.938-2.791-8.773-6.202-10.744l-65.507-37.82
	c-1.659-0.958-3.833-1.446-6.021-1.472C298.363,346.652,298.301,346.652,298.24,346.652"/>
<g>
	<defs>
		<path id="SVGID_3_" d="M292.039,348.126l-65.507,37.819c-3.41,1.971-6.201,6.806-6.201,10.745v75.641
			c0,3.938,2.791,8.772,6.201,10.742l65.507,37.821c1.752,1.011,4.074,1.498,6.385,1.473c2.188-0.027,4.361-0.516,6.021-1.473
			l65.506-37.821c3.41-1.97,6.203-6.804,6.203-10.742V396.69c0-3.939-2.793-8.774-6.203-10.745l-65.506-37.819
			c-1.66-0.958-3.834-1.446-6.021-1.472c-0.061-0.001-0.119-0.001-0.179-0.001C295.995,346.653,293.746,347.141,292.039,348.126"/>
	</defs>
	<clipPath id="SVGID_4_">
		<use xlink:href="#SVGID_3_"  overflow="visible"/>
	</clipPath>
	<path clip-path="url(#SVGID_4_)" fill="#FFE178" d="M253.621,455.838c0,0,28.225,19.267,25.926,27.44c0,0,5.838-9.874,2.537-15.349
		c-3.302-5.477-25.22-20.073-25.22-20.073l-1.716-0.858L253.621,455.838z"/>
	<path clip-path="url(#SVGID_4_)" fill="#FFFFFF" d="M277.849,422.706c0,0,15.214-7.474,19.752-18.017l1.2,13.212l-17.349,11.878
		L277.849,422.706z"/>
	<polygon clip-path="url(#SVGID_4_)" fill="#534430" points="207.799,452.077 317.23,420.206 405.176,452.077 405.176,522.124 
		207.799,522.124 	"/>
	<path clip-path="url(#SVGID_4_)" fill="#FFFFFF" d="M318.908,387.51c0.104,0,0.205,0.002,0.303,0.007l15.934,2.174
		c1.473,0.077,2.71,1.334,2.765,2.807l0.517,10.002c0,0,22.199,3.344,27.235,20.971c2.122,7.428,6.292,32.682-13.229,45.577
		c-11.455,7.567-18.926,9.078-23.03,9.078c-2.388,0-3.634-0.511-3.862-0.639c-0.006-0.015-0.01-0.022-0.01-0.022
		c-0.014-0.005-0.021-0.008-0.021-0.008c-0.014,0-0.002,0.012,0.031,0.03c0.324,0.76,8.912,21.479-3.818,52.356
		c-8.698,21.099-10.323,24.573-10.449,24.573c-0.063,0,0.238-0.839,0.238-0.839l-45.888,12.311l-12.311,12.87L213.58,564.21
		l3.357-31.896l44.768-28.54c0,0-5.1-6.471-10.361-8.588l-26.013-12.677l1.119-43.8l13.695-9.803
		c1.071-0.975,3.095-1.747,4.563-1.747c0.026,0,0.053,0.001,0.079,0.001l41.31,0.788v15.802c0,0,10.686,4.344,20.33,4.344
		c1.353,0,2.684-0.086,3.963-0.279c10.4-1.584,15.058-4.621,21.545-11.752c4.797-5.275-5.615-5.961-11.362-5.961
		c-2.022,0-3.468,0.084-3.468,0.084l-15.669,2.52v-35.332c0-1.475,1.045-3.25,2.333-3.966l10.443-4.734
		C315.416,388.005,317.445,387.51,318.908,387.51 M318.908,381.162c-2.472,0-5.379,0.707-7.505,1.815l-10.254,4.648l-0.236,0.107
		l-0.227,0.126c-3.296,1.832-5.599,5.744-5.599,9.515v35.332v7.305c-0.955-0.257-1.846-0.519-2.643-0.768v-11.294v-6.228
		l-6.227-0.119l-41.31-0.788l-0.2-0.003c-2.897,0-6.246,1.232-8.488,3.099l-13.465,9.638l-2.57,1.84l-0.081,3.16l-1.119,43.801
		l-0.104,4.08l3.67,1.787l26.012,12.678l0.203,0.099l0.209,0.084c0.834,0.335,1.742,0.912,2.643,1.601l-38.093,24.284l-2.58,1.646
		l-0.321,3.043l-3.357,31.897l-0.518,4.923l4.648,1.702l39.732,14.549l3.899,1.429l2.87-3.001l11.084-11.587l40.242-10.798
		l2.047,0.003c4.098,0,5.636-3.296,6.215-4.536c0.371-0.794,0.902-1.997,1.626-3.678c1.769-4.105,4.62-10.932,8.478-20.288
		c8.855-21.479,8.152-38.416,6.338-48.189c7.949-1.348,16.133-5.852,22.002-9.729c9.846-6.505,15.906-16.646,17.529-29.332
		c1.424-11.125-0.937-20.637-1.693-23.287c-4.473-15.652-19.278-21.984-27.246-24.307l-0.27-5.219
		c-0.201-4.606-3.865-8.414-8.433-8.826l-15.748-2.146l-0.261-0.036l-0.264-0.014C319.34,381.167,319.127,381.162,318.908,381.162
		 M317.77,436.509c0.48-0.021,1.516-0.06,2.804-0.06c0.677,0,1.3,0.01,1.877,0.027c-3.405,2.765-6.899,4.131-13.015,5.062
		c-0.906,0.138-1.918,0.208-3.008,0.208c-3.723,0-7.723-0.783-11-1.646l7.017-1.127L317.77,436.509z"/>
	<path clip-path="url(#SVGID_4_)" fill="#FFE178" d="M312.299,419.052c0,0-13.43,20.085-37.352,22.183
		c-23.922,2.099-7.973-8.642-7.973-8.642s22.662-3.108,41.547-28.29C327.407,379.122,312.299,419.052,312.299,419.052"/>
	<path clip-path="url(#SVGID_4_)" fill="#FFE178" d="M352.231,408.082c-4.478-1.959-13.806-3.92-13.806-3.92l-0.511-11.664
		c-0.058-1.473-1.298-2.729-2.771-2.808l-15.934-2.173c-1.472-0.077-3.71,0.439-4.998,1.156l-10.443,4.734
		c-1.288,0.716-2.332,2.491-2.332,3.965v32.534l18.466-1.678l12.871,5.036c0,0-5.966,7.559-16.788,11.751
		c-10.822,4.193-29.889-1.395-29.889-1.395l-0.609-14.834l-40.7-0.787c-1.474-0.028-3.575,0.726-4.696,1.686l-13.642,11.693
		l-1.119,41.131l26.013,12.676c5.263,2.116,10.361,8.588,10.361,8.588l-37.402,25.199l-7.365,3.341l-3.357,31.896l39.73,14.55
		l12.312-12.87l45.888-12.313l13.816-29.099c0,0,2.54-41.41-0.258-47.565c-0.618-1.36,25.074,1.193,34.964-15.913
		c9.892-17.105,8.899-30.531,5.63-37.528C362.391,416.474,356.708,410.04,352.231,408.082"/>
	<g opacity="0.4" clip-path="url(#SVGID_4_)">
		<g>
			<defs>
				<rect id="SVGID_5_" x="332.311" y="427.34" width="32.299" height="9.94"/>
			</defs>
			<clipPath id="SVGID_6_">
				<use xlink:href="#SVGID_5_"  overflow="visible"/>
			</clipPath>
			<polygon clip-path="url(#SVGID_6_)" fill="#D35F42" points="344.734,429.824 364.606,427.34 357.154,434.792 332.314,437.276 			
				"/>
		</g>
	</g>
	<g opacity="0.4" clip-path="url(#SVGID_4_)">
		<g>
			<defs>
				<rect id="SVGID_7_" x="339.77" y="414.92" width="24.84" height="7.45"/>
			</defs>
			<clipPath id="SVGID_8_">
				<use xlink:href="#SVGID_7_"  overflow="visible"/>
			</clipPath>
			<polygon clip-path="url(#SVGID_8_)" fill="#D35F42" points="359.639,414.92 339.767,417.404 342.25,422.372 364.606,419.889 			
				"/>
		</g>
	</g>
	<path clip-path="url(#SVGID_4_)" fill="#D35F42" d="M287.761,474.525l-0.802,19.176c0,0-6.32,11.396-11.451,16.205
		c-5.131,4.811-10.365-6.279-10.365-6.279s12.572-7.09,17.072-15.894C286.717,478.932,287.761,474.525,287.761,474.525"/>
	<path clip-path="url(#SVGID_4_)" fill="#D35F42" d="M284.181,427.105c0,0,14.269-8.545,16.786-17.777l0.47-3.682l13.8-4.033
		l0.84,1.99l20.564,8.813c0,0,7.554,4.196,4.615,10.912c-2.937,6.715-7.217,10.071-7.217,10.071s-1.695-3.905-6.675-4.054
		c-4.978-0.146-39.358,8.208-39.358,8.208l-1.678-7.835L284.181,427.105z"/>
	<path clip-path="url(#SVGID_4_)" fill="#D35F42" d="M330.554,408.972c0,0,4.981-0.712,10.677,0
		c5.693,0.712,16.193,2.669,22.064,12.634l-1.244-6.316l-15.127-9.164l-12.277-2.313l-14.592-0.89v3.736l8.541,5.605
		L330.554,408.972z"/>
	<path clip-path="url(#SVGID_4_)" fill="#D35F42" d="M328.005,448.112c0,0,39.438-28.42,4.655-38.633c0,0,11.029,4.49,9.541,10.367
		c-1.486,5.877-11.914,22.575-21.955,26.817c-10.041,4.24,0,1.448,0,1.448H328.005z"/>
	<g opacity="0.4" clip-path="url(#SVGID_4_)">
		<g>
			<defs>
				<rect id="SVGID_9_" x="264.189" y="451.35" width="50.451" height="19.301"/>
			</defs>
			<clipPath id="SVGID_10_">
				<use xlink:href="#SVGID_9_"  overflow="visible"/>
			</clipPath>
			<path clip-path="url(#SVGID_10_)" fill="#D35F42" d="M273.801,461.176c0,0,22.819,1.067,40.836,9.476l-27.045-19.302l-23.4,0.728
				L273.801,461.176z"/>
		</g>
	</g>
	<rect x="315.025" y="387.378" clip-path="url(#SVGID_4_)" fill="#1A1A19" width="2.483" height="41.966"/>
	<path clip-path="url(#SVGID_4_)" fill="#1A1A19" d="M326.445,444.23l-2.342-2.718c0.151-0.131,15.154-13.172,15.924-22.804
		c0.217-2.696-3.811-5.877-11.049-8.727c-6.364-2.508-12.969-3.901-13.028-3.914l0.31-1.614l0.088-1.943
		c0.162,0.008,18.957,3.896,25.129,10.894c1.567,1.775,2.283,3.656,2.127,5.591C342.717,430.094,327.109,443.659,326.445,444.23"/>
	<path clip-path="url(#SVGID_4_)" fill="#1A1A19" d="M310.909,451.366c-8.369,0-17.163-1.108-24.649-4.282l1.4-3.305
		c15.462,6.557,37.066,3.735,47.394,1.035c13.857-3.621,29.406-12.012,27.625-23.74l3.546-0.539
		c1.045,6.873-2.338,13.327-9.781,18.666c-7.392,5.301-16.787,8.119-20.481,9.086C330.125,449.812,320.814,451.366,310.909,451.366"
		/>
	<path clip-path="url(#SVGID_4_)" fill="#1A1A19" d="M277.579,430.337l-1.064-3.427c16.626-5.165,23.25-18.099,23.315-18.23
		l3.215,1.596C302.755,410.861,295.732,424.697,277.579,430.337"/>
	<path clip-path="url(#SVGID_4_)" fill="#1A1A19" d="M286.583,439.502l-0.925-3.467c12.392-3.303,15.203-4.69,15.318-4.748
		l1.666,3.177C302.351,434.62,299.414,436.082,286.583,439.502"/>
	<path clip-path="url(#SVGID_4_)" fill="#1A1A19" d="M252.82,436.773c-1.221,0-2.208-0.989-2.208-2.208v-6.644
		c0-1.219,0.987-2.207,2.208-2.207c1.22,0,2.207,0.988,2.207,2.207v6.644C255.027,435.784,254.04,436.773,252.82,436.773"/>
	<path clip-path="url(#SVGID_4_)" fill="#1A1A19" d="M264.292,436.773c-1.22,0-2.208-0.989-2.208-2.208v-6.644
		c0-1.219,0.988-2.207,2.208-2.207s2.208,0.988,2.208,2.207v6.644C266.5,435.784,265.512,436.773,264.292,436.773"/>
	<path clip-path="url(#SVGID_4_)" fill="#1A1A19" d="M275.764,436.773c-1.221,0-2.208-0.989-2.208-2.208v-6.644
		c0-1.219,0.987-2.207,2.208-2.207c1.22,0,2.207,0.988,2.207,2.207v6.644C277.971,435.784,276.983,436.773,275.764,436.773"/>
	<path clip-path="url(#SVGID_4_)" fill="#1A1A19" d="M328.005,397.421c-1.22,0-2.208-0.988-2.208-2.208v-4.659
		c0-1.219,0.988-2.208,2.208-2.208s2.208,0.989,2.208,2.208v4.659C330.213,396.433,329.225,397.421,328.005,397.421"/>
	<path clip-path="url(#SVGID_4_)" fill="#1A1A19" d="M308.787,399.143c-0.991,0-1.795-0.803-1.795-1.794v-4.659
		c0-0.991,0.804-1.794,1.795-1.794c0.99,0,1.794,0.803,1.794,1.794v4.659C310.581,398.34,309.777,399.143,308.787,399.143"/>
	<path clip-path="url(#SVGID_4_)" fill="#1A1A19" d="M339.556,426.093c-3.902-9.419-23.218-11.993-23.411-12.019l0.244-1.916
		c0.84,0.107,20.621,2.743,24.951,13.196L339.556,426.093z"/>
	<polygon clip-path="url(#SVGID_4_)" fill="#1A1A19" points="302.148,409.191 300.918,405.82 316.94,399.974 338.602,402.109 
		338.25,405.681 317.401,403.626 	"/>
	<path clip-path="url(#SVGID_4_)" fill="#D35F42" d="M278.619,452.077h6.051c0,0,38.258,21.16,41.105,24.897
		c2.848,3.736,0.445,17.744-0.445,20.058c-0.89,2.313,1.564-8.835-9.52-17.745c-7.583-6.095-37.971-26.759-37.971-26.759"/>
	<g opacity="0.4" clip-path="url(#SVGID_4_)">
		<g>
			<defs>
				<rect id="SVGID_11_" x="287.16" y="474.35" width="38.05" height="16.011"/>
			</defs>
			<clipPath id="SVGID_12_">
				<use xlink:href="#SVGID_11_"  overflow="visible"/>
			</clipPath>
			
				<rect x="287.743" y="477.213" transform="matrix(0.9873 0.159 -0.159 0.9873 80.5756 -42.5417)" clip-path="url(#SVGID_12_)" fill="#D35F42" width="36.888" height="10.278"/>
		</g>
	</g>
	<g opacity="0.4" clip-path="url(#SVGID_4_)">
		<g>
			<defs>
				<rect id="SVGID_13_" x="273.65" y="494.72" width="52.59" height="30.99"/>
			</defs>
			<clipPath id="SVGID_14_">
				<use xlink:href="#SVGID_13_"  overflow="visible"/>
			</clipPath>
			
				<rect x="275.195" y="498.504" transform="matrix(0.9873 0.159 -0.159 0.9873 84.9339 -41.1985)" clip-path="url(#SVGID_14_)" fill="#D35F42" width="49.501" height="23.417"/>
		</g>
	</g>
	<polygon clip-path="url(#SVGID_4_)" fill="#D35F42" points="238.964,453.34 255.779,456.142 253.777,505.253 229.756,505.253 	"/>
	<polygon clip-path="url(#SVGID_4_)" fill="#D35F42" points="241.318,428.766 240.686,492.042 224.531,482.51 225.313,437.984 	"/>
	<path clip-path="url(#SVGID_4_)" fill="#D35F42" d="M247.909,457.559c0,0,23.483,6.457,31.091,20.069s1.911,11.961-13.857,25.999
		c-15.77,14.037-17.371-2.378-17.371-2.378L247.909,457.559z"/>
	<polygon clip-path="url(#SVGID_4_)" fill="#1A1A19" points="227.408,453.326 225.459,450.313 240.201,440.78 286.529,440.78 
		286.555,451.304 282.966,451.311 282.95,444.369 241.26,444.369 	"/>
	<path clip-path="url(#SVGID_4_)" fill="#1A1A19" d="M226.746,539.28l-0.625-1.828c30.226-10.342,50.855-25.401,59.662-43.548
		c0.127-0.262,0.231-0.477,0.316-0.646c1.355-2.633,0.963-14.372,0.697-18.674l1.928-0.119c0.102,1.638,0.936,16.098-0.906,19.677
		c-0.08,0.157-0.179,0.36-0.297,0.604C278.486,513.368,257.471,528.768,226.746,539.28"/>
	<path clip-path="url(#SVGID_4_)" fill="#D35F42" d="M299.645,458.094c0,0,50.928,3.285,66.676-21.362l-0.39,12.282
		c0,0-4.077,14.66-10.078,17.627c-9.532,4.711-20.479,11.257-27.848,10.272C315.998,475.309,299.645,458.094,299.645,458.094"/>
	<path clip-path="url(#SVGID_4_)" fill="#1A1A19" d="M311.338,459.189c-8.715,0-14.799-0.894-14.973-0.921l0.293-1.909
		c0.498,0.077,49.695,7.287,68.871-20.181l1.584,1.105C354.086,455.945,327.938,459.189,311.338,459.189"/>
	<path clip-path="url(#SVGID_4_)" fill="#1A1A19" d="M253.908,581.33l-42.705-15.639l3.65-34.668l43.502-27.733
		c-1.796-1.935-4.84-4.851-7.836-6.056l-0.142-0.064l-27.289-13.298l1.183-46.318l14.496-10.376c1.49-1.296,3.961-2.226,5.94-2.226
		l0.123,0.001l42.864,0.83V442.2c3.231,1.116,11.455,3.686,18.707,3.686c1.315,0,2.545-0.086,3.656-0.255
		c9.742-1.482,13.434-3.507,19.748-10.83c0.412-0.479,0.567-0.785,0.625-0.934c-0.561-0.506-3.16-1.553-10.102-1.553
		c-1.5,0-2.647,0.053-2.988,0.07l-18.113,2.911v-37.923c0-2.263,1.492-4.798,3.469-5.896l0.16-0.081l10.369-4.7
		c1.65-0.888,4.242-1.479,6.102-1.384l0.183,0.019l15.854,2.163c2.576,0.188,4.654,2.332,4.75,4.924l0.432,9.231
		c5.754,1.013,22.693,5.308,27.238,21.217c1.498,5.246,7.8,32.246-15.449,48.527c-8.342,5.842-19.105,7.855-24.104,8.506
		c2.237,8.388,6.504,34.305-19.797,51.223c-3.584,2.306-5.406,4.857-5.414,7.588c-0.015,5.49,6.992,11.259,9.693,13.019l4.145,2.701
		l-50.067,13.433L253.908,581.33z M215.956,562.729l36.759,13.461l11.738-12.273l42.191-11.319
		c-3.441-3.016-8.055-8.138-8.039-13.901c0.014-4.322,2.518-8.12,7.442-11.288c28.581-18.386,17.347-48.325,17.229-48.626
		l-1.093-2.81l3.009-0.194c0.146-0.01,14.64-1.021,24.609-8.002c20.796-14.563,15.09-38.955,13.736-43.697
		c-4.559-15.953-25.135-18.292-25.342-18.314l-1.887-0.197l-0.607-12.965c-0.014-0.35-0.346-0.688-0.674-0.706l-0.183-0.017
		l-15.94-2.161c-1.099,0-2.758,0.406-3.621,0.886l-0.16,0.081l-10.34,4.688c-0.574,0.361-1.141,1.344-1.141,2.001v32.74
		l13.328-2.131c0.057-0.004,1.424-0.084,3.357-0.084c10.992,0,13.359,2.391,14.183,4.188c0.548,1.197,0.757,3.14-1.362,5.598
		c-7.016,8.138-11.627,10.668-22.428,12.313c-1.33,0.202-2.783,0.305-4.32,0.305c-10.059,0-21.244-4.311-21.717-4.494l-1.406-0.548
		v-15.146l-38.535-0.745l0,0c-0.957,0-2.45,0.568-3.111,1.171l-0.201,0.163l-12.801,9.163l-1.057,41.281l24.67,12.021
		c5.712,2.337,10.973,8.957,11.195,9.239l1.51,1.917l-45.928,29.278L215.956,562.729z"/>
	<g opacity="0.4" clip-path="url(#SVGID_4_)">
		<g>
			<defs>
				<rect id="SVGID_15_" x="272.7" y="460.04" width="12.95" height="28.84"/>
			</defs>
			<clipPath id="SVGID_16_">
				<use xlink:href="#SVGID_15_"  overflow="visible"/>
			</clipPath>
			<path clip-path="url(#SVGID_16_)" fill="#D35F42" d="M277.17,488.869c0,0,7.24-1.799,7.983-7.306
				c0.743-5.508,1.709-13.228-5.733-17.205c-7.443-3.978-6.699-4.313-6.699-4.313s7.83,8.895,4.805,19.216
				S277.17,488.869,277.17,488.869"/>
		</g>
	</g>
	<polygon clip-path="url(#SVGID_4_)" fill="#1A1A19" points="258.088,450.462 255.291,485.938 254.502,450.361 	"/>
	<path clip-path="url(#SVGID_4_)" fill="#1A1A19" d="M254.673,578.7l-40.257-46.88l1.911-1.072
		c0.383-0.215,38.45-21.578,47.737-28.556c5.043-3.787,20.386-15.314,21.093-25.321c0.202-2.859-0.812-5.361-3.099-7.648
		c-7.914-7.914-21.429-15.472-21.564-15.547l-6.045-3.361h31.255l0.374,0.184c0.121,0.059,12.288,6.059,29.352,16.048
		c7.043,4.122,11.555,10.347,13.045,17.999c1.918,9.848-1.358,21.469-8.767,31.087c-3.781,5.409-8.313,9.252-13.11,13.319
		c-3.41,2.892-6.936,5.882-10.496,9.691c-19.297,20.647-39.86,38.685-40.065,38.864L254.673,578.7z M219.99,532.804l35.037,40.802
		c4.883-4.351,22.125-19.943,38.453-37.413c3.701-3.962,7.31-7.02,10.797-9.978c4.615-3.914,8.975-7.609,12.539-12.706
		c6.838-8.881,9.861-19.427,8.137-28.276c-1.288-6.613-5.208-12.004-11.335-15.59c-15.298-8.955-26.601-14.666-28.752-15.74H267.85
		c4.818,3.037,11.744,7.781,16.746,12.783c3.024,3.022,4.416,6.535,4.141,10.438c-0.737,10.433-13.203,20.941-22.518,27.937
		C257.85,511.35,227.953,528.314,219.99,532.804"/>
</g>
<path fill="#1A1A19" d="M298.24,354.933l0.086,0.001c1.125,0.013,1.823,0.273,1.979,0.363l65.507,37.82
	c0.849,0.49,2.062,2.593,2.062,3.573v75.641c0,0.979-1.215,3.082-2.063,3.572l-65.506,37.82c-0.156,0.09-0.854,0.35-1.977,0.364
	h-0.088c-1.168,0-1.898-0.27-2.062-0.364l-65.507-37.82c-0.848-0.49-2.063-2.593-2.063-3.572v-75.641
	c0-0.979,1.214-3.083,2.063-3.573l65.507-37.82C296.342,355.203,297.072,354.933,298.24,354.933 M298.24,346.652
	c-2.248,0-4.496,0.489-6.201,1.474l-65.506,37.82c-3.412,1.97-6.203,6.805-6.203,10.744v75.641c0,3.939,2.791,8.773,6.203,10.744
	l65.506,37.819c1.705,0.985,3.953,1.474,6.201,1.474c0.063,0,0.123,0,0.184-0.002c2.188-0.025,4.361-0.514,6.021-1.472
	l65.507-37.819c3.411-1.971,6.202-6.805,6.202-10.744v-75.641c0-3.938-2.791-8.773-6.202-10.744l-65.507-37.82
	c-1.659-0.958-3.833-1.446-6.021-1.472C298.363,346.652,298.301,346.652,298.24,346.652"/>
<polygon fill="#1A1A19" points="241.869,429.662 241.117,453.664 239.109,429.736 "/>
<path fill="#534430" d="M287.686,439.017l13.795-4.301c0,0,12.881-2.024,15.824-2.392c2.943-0.368,10.212-0.645,13.801,1.563
	c0,0-7.959,11.293-20.334,12.052c-12.373,0.76-23.086-3.576-23.086-3.576V439.017z"/>
</svg>
