<?xml version="1.0" encoding="utf-8"?>
<!-- Generator: Adobe Illustrator 16.0.0, SVG Export Plug-In . SVG Version: 6.00 Build 0)  -->
<!DOCTYPE svg PUBLIC "-//W3C//DTD SVG 1.1//EN" "http://www.w3.org/Graphics/SVG/1.1/DTD/svg11.dtd">
<svg version="1.1" id="Layer_1" xmlns="http://www.w3.org/2000/svg" xmlns:xlink="http://www.w3.org/1999/xlink" x="0px" y="0px"
	 width="240px" height="195px" viewBox="0 0 240 195" enable-background="new 0 0 240 195" xml:space="preserve">
<path fill="none" d="M78.63-2257.76"/>
<path fill="none" d="M78.63,987.837"/>
<path fill="none" d="M51.764,1616.837"/>
<path fill="none" d="M51.764-1628.76"/>
<line fill="#929497" x1="1530.52" y1="-66.557" x2="1530.52" y2="-65.807"/>
<line fill="#929497" x1="-611.484" y1="-65.807" x2="-611.484" y2="-66.557"/>
<path fill="#E8D862" d="M49.453,145.45l64.666,37.335c1.729,0.998,4.023,1.48,6.303,1.453c2.159-0.025,4.305-0.507,5.943-1.453
	l64.666-37.335c3.367-1.944,6.123-6.717,6.123-10.606V60.175c0-3.889-2.756-8.662-6.123-10.606l-64.666-37.335
	c-1.639-0.945-3.784-1.427-5.943-1.453c-2.279-0.027-4.574,0.455-6.303,1.453L49.453,49.569c-3.367,1.944-6.123,6.717-6.123,10.606
	v74.668C43.33,138.733,46.086,143.506,49.453,145.45"/>
<path fill="#D4B32A" d="M191.398,146.073c3.412-1.97,6.203-6.804,6.203-10.743V59.689c0-3.939-2.791-8.773-6.203-10.743
	l-65.506-37.82c-1.537-0.888-3.515-1.366-5.535-1.453v175.675c2.021-0.088,3.998-0.567,5.535-1.454L191.398,146.073z"/>
<g opacity="0.4">
	<g>
		<defs>
			<rect id="SVGID_1_" x="42.33" y="9.65" width="155.82" height="175.72"/>
		</defs>
		<clipPath id="SVGID_2_">
			<use xlink:href="#SVGID_1_"  overflow="visible"/>
		</clipPath>
		<path clip-path="url(#SVGID_2_)" fill="#FFFFFF" d="M120.242,25.073l62.731,36.219v72.436l-62.731,36.22L57.51,133.729V61.292
			L120.242,25.073 M120.24,9.652c-2.248,0-4.496,0.489-6.201,1.474l-65.506,37.82c-3.412,1.97-6.203,6.805-6.203,10.744v75.641
			c0,3.939,2.791,8.773,6.203,10.744l65.506,37.819c1.705,0.985,3.953,1.474,6.201,1.474c0.061,0,0.123,0,0.184-0.002
			c2.188-0.025,4.361-0.514,6.021-1.472l65.507-37.819c3.411-1.971,6.201-6.805,6.201-10.744V59.689
			c0-3.938-2.79-8.773-6.201-10.744l-65.507-37.82c-1.659-0.958-3.833-1.446-6.021-1.472C120.363,9.652,120.301,9.652,120.24,9.652"
			/>
	</g>
</g>
<path fill="#1A1A19" d="M120.24,17.933l0.086,0.001c1.125,0.013,1.823,0.273,1.979,0.363l65.507,37.82
	c0.849,0.489,2.062,2.593,2.062,3.572v75.641c0,0.979-1.215,3.082-2.063,3.572l-65.506,37.82c-0.156,0.09-0.854,0.35-1.977,0.364
	h-0.088c-1.168,0-1.898-0.27-2.062-0.364l-65.507-37.82c-0.848-0.49-2.063-2.593-2.063-3.572V59.689
	c0-0.979,1.214-3.083,2.063-3.572l65.507-37.82C118.342,18.203,119.072,17.933,120.24,17.933 M120.24,9.652
	c-2.248,0-4.496,0.489-6.201,1.474l-65.506,37.82c-3.412,1.97-6.203,6.805-6.203,10.744v75.641c0,3.939,2.791,8.773,6.203,10.744
	l65.506,37.819c1.705,0.985,3.953,1.474,6.201,1.474c0.063,0,0.123,0,0.184-0.002c2.188-0.025,4.361-0.514,6.021-1.472
	l65.507-37.819c3.411-1.971,6.201-6.805,6.201-10.744V59.689c0-3.938-2.79-8.773-6.201-10.744l-65.507-37.82
	c-1.659-0.958-3.833-1.446-6.021-1.472C120.363,9.652,120.301,9.652,120.24,9.652"/>
<g>
	<defs>
		<path id="SVGID_3_" d="M114.039,11.126L48.531,48.945c-3.409,1.971-6.2,6.806-6.2,10.745v75.641c0,3.938,2.791,8.772,6.2,10.742
			l65.508,37.821c1.752,1.011,4.074,1.498,6.385,1.473c2.188-0.027,4.361-0.516,6.021-1.473l65.506-37.821
			c3.41-1.97,6.203-6.804,6.203-10.742V59.69c0-3.939-2.793-8.774-6.203-10.745l-65.506-37.819c-1.66-0.958-3.834-1.446-6.021-1.472
			c-0.061-0.001-0.119-0.001-0.179-0.001C117.995,9.653,115.746,10.142,114.039,11.126"/>
	</defs>
	<clipPath id="SVGID_4_">
		<use xlink:href="#SVGID_3_"  overflow="visible"/>
	</clipPath>
	<path clip-path="url(#SVGID_4_)" fill="#FFE178" d="M75.621,118.838c0,0,28.225,19.267,25.926,27.44c0,0,5.838-9.874,2.537-15.349
		c-3.302-5.477-25.22-20.073-25.22-20.073l-1.716-0.858L75.621,118.838z"/>
	<path clip-path="url(#SVGID_4_)" fill="#FFFFFF" d="M99.849,85.706c0,0,15.214-7.474,19.752-18.017l1.2,13.212l-17.35,11.878
		L99.849,85.706z"/>
	<polygon clip-path="url(#SVGID_4_)" fill="#534430" points="29.799,115.077 139.23,83.206 227.176,115.077 227.176,185.124 
		29.799,185.124 	"/>
	<path clip-path="url(#SVGID_4_)" fill="#FFFFFF" d="M140.908,50.511c0.104,0,0.205,0.001,0.303,0.007l15.934,2.174
		c1.473,0.077,2.709,1.334,2.765,2.807l0.517,10.002c0,0,22.199,3.344,27.235,20.971c2.122,7.427,6.292,32.681-13.229,45.577
		c-11.455,7.567-18.926,9.078-23.03,9.078c-2.388,0-3.634-0.511-3.862-0.639c-0.006-0.015-0.01-0.022-0.01-0.022
		c-0.014-0.005-0.021-0.008-0.021-0.008c-0.014,0-0.002,0.012,0.031,0.03c0.324,0.76,8.912,21.479-3.818,52.356
		c-8.698,21.099-10.323,24.573-10.449,24.573c-0.063,0,0.238-0.839,0.238-0.839l-45.888,12.311l-12.311,12.87L35.58,227.21
		l3.357-31.896l44.768-28.54c0,0-5.1-6.471-10.361-8.588l-26.013-12.677l1.119-43.8l13.695-9.803
		c1.071-0.975,3.095-1.747,4.563-1.747c0.025,0,0.053,0.001,0.078,0.001l41.311,0.788v15.802c0,0,10.686,4.344,20.33,4.344
		c1.353,0,2.684-0.086,3.963-0.279c10.4-1.584,15.057-4.621,21.545-11.752c4.797-5.275-5.615-5.961-11.362-5.961
		c-2.022,0-3.468,0.084-3.468,0.084l-15.67,2.52V60.373c0-1.475,1.046-3.25,2.334-3.966l10.443-4.734
		C137.416,51.005,139.445,50.511,140.908,50.511 M140.908,44.162c-2.473,0-5.379,0.707-7.506,1.815l-10.253,4.647l-0.236,0.107
		l-0.228,0.126c-3.295,1.832-5.598,5.744-5.598,9.515v35.332v7.305c-0.955-0.257-1.846-0.519-2.643-0.768V90.948V84.72l-6.227-0.119
		l-41.31-0.788l-0.2-0.003c-2.897,0-6.246,1.232-8.488,3.099l-13.465,9.638l-2.57,1.84l-0.082,3.16l-1.118,43.801l-0.104,4.08
		l3.67,1.787l26.012,12.678l0.203,0.099l0.209,0.084c0.834,0.335,1.742,0.912,2.643,1.601L35.524,189.96l-2.58,1.646l-0.321,3.043
		l-3.357,31.897l-0.518,4.923l4.648,1.702l39.732,14.549l3.899,1.429l2.87-3.001l11.084-11.587l40.242-10.798l2.047,0.003
		c4.098,0,5.636-3.296,6.215-4.536c0.371-0.794,0.902-1.997,1.626-3.678c1.769-4.105,4.62-10.932,8.478-20.288
		c8.855-21.479,8.152-38.416,6.338-48.189c7.949-1.348,16.133-5.852,22.002-9.729c9.846-6.505,15.906-16.646,17.529-29.332
		c1.424-11.125-0.937-20.637-1.693-23.286c-4.473-15.653-19.279-21.985-27.246-24.308l-0.27-5.219
		c-0.201-4.606-3.865-8.414-8.433-8.826l-15.749-2.146l-0.26-0.036l-0.264-0.014C141.34,44.167,141.127,44.162,140.908,44.162
		 M139.77,99.509c0.48-0.021,1.516-0.06,2.804-0.06c0.677,0,1.3,0.01,1.877,0.027c-3.405,2.765-6.899,4.131-13.015,5.062
		c-0.906,0.138-1.918,0.208-3.008,0.208c-3.723,0-7.723-0.783-11-1.646l7.017-1.127L139.77,99.509z"/>
	<path clip-path="url(#SVGID_4_)" fill="#FFE178" d="M134.299,82.052c0,0-13.43,20.085-37.352,22.183
		c-23.922,2.099-7.973-8.642-7.973-8.642s22.662-3.108,41.547-28.29C149.407,42.122,134.299,82.052,134.299,82.052"/>
	<path clip-path="url(#SVGID_4_)" fill="#FFE178" d="M174.23,71.082c-4.477-1.959-13.805-3.92-13.805-3.92l-0.51-11.664
		c-0.059-1.473-1.299-2.729-2.771-2.808l-15.934-2.173c-1.472-0.077-3.709,0.439-4.998,1.156l-10.443,4.734
		c-1.288,0.716-2.332,2.491-2.332,3.965v32.534l18.465-1.678l12.872,5.036c0,0-5.966,7.559-16.788,11.751
		c-10.822,4.193-29.889-1.395-29.889-1.395l-0.609-14.834L66.787,91c-1.473-0.028-3.574,0.726-4.695,1.686L48.45,104.379
		l-1.119,41.131l26.013,12.676c5.263,2.116,10.361,8.588,10.361,8.588l-37.402,25.199l-7.365,3.341L35.58,227.21l39.73,14.55
		l12.312-12.87l45.888-12.313l13.816-29.099c0,0,2.54-41.41-0.258-47.565c-0.618-1.36,25.074,1.193,34.963-15.913
		c9.893-17.105,8.9-30.531,5.631-37.528C184.391,79.474,178.709,73.04,174.23,71.082"/>
	<g opacity="0.4" clip-path="url(#SVGID_4_)">
		<g>
			<defs>
				<rect id="SVGID_5_" x="154.311" y="90.34" width="32.299" height="9.94"/>
			</defs>
			<clipPath id="SVGID_6_">
				<use xlink:href="#SVGID_5_"  overflow="visible"/>
			</clipPath>
			<polygon clip-path="url(#SVGID_6_)" fill="#D35F42" points="166.734,92.824 186.606,90.341 179.154,97.792 154.314,100.276 			
				"/>
		</g>
	</g>
	<g opacity="0.4" clip-path="url(#SVGID_4_)">
		<g>
			<defs>
				<rect id="SVGID_7_" x="161.77" y="77.92" width="24.84" height="7.45"/>
			</defs>
			<clipPath id="SVGID_8_">
				<use xlink:href="#SVGID_7_"  overflow="visible"/>
			</clipPath>
			<polygon clip-path="url(#SVGID_8_)" fill="#D35F42" points="181.639,77.92 161.766,80.404 164.25,85.372 186.606,82.888 			"/>
		</g>
	</g>
	<path clip-path="url(#SVGID_4_)" fill="#D35F42" d="M109.761,137.525l-0.802,19.176c0,0-6.32,11.396-11.451,16.205
		c-5.131,4.811-10.365-6.279-10.365-6.279s12.572-7.09,17.072-15.894C108.717,141.932,109.761,137.525,109.761,137.525"/>
	<path clip-path="url(#SVGID_4_)" fill="#D35F42" d="M106.181,90.105c0,0,14.269-8.545,16.786-17.777l0.469-3.682l13.801-4.034
		l0.84,1.991l20.564,8.813c0,0,7.554,4.197,4.615,10.912c-2.938,6.715-7.217,10.071-7.217,10.071s-1.695-3.905-6.675-4.054
		c-4.978-0.146-39.358,8.208-39.358,8.208l-1.678-7.835L106.181,90.105z"/>
	<path clip-path="url(#SVGID_4_)" fill="#D35F42" d="M152.553,71.972c0,0,4.982-0.712,10.678,0
		c5.693,0.712,16.193,2.669,22.064,12.634l-1.244-6.317l-15.127-9.164l-12.277-2.313l-14.592-0.89v3.736l8.541,5.605L152.553,71.972
		z"/>
	<path clip-path="url(#SVGID_4_)" fill="#D35F42" d="M150.004,111.112c0,0,39.439-28.42,4.656-38.633c0,0,11.029,4.49,9.541,10.367
		c-1.486,5.877-11.914,22.575-21.955,26.817c-10.041,4.24,0,1.448,0,1.448H150.004z"/>
	<g opacity="0.4" clip-path="url(#SVGID_4_)">
		<g>
			<defs>
				<rect id="SVGID_9_" x="86.189" y="114.35" width="50.451" height="19.301"/>
			</defs>
			<clipPath id="SVGID_10_">
				<use xlink:href="#SVGID_9_"  overflow="visible"/>
			</clipPath>
			<path clip-path="url(#SVGID_10_)" fill="#D35F42" d="M95.801,124.176c0,0,22.818,1.067,40.836,9.476l-27.045-19.302l-23.4,0.728
				L95.801,124.176z"/>
		</g>
	</g>
	<rect x="137.025" y="50.378" clip-path="url(#SVGID_4_)" fill="#1A1A19" width="2.483" height="41.966"/>
	<path clip-path="url(#SVGID_4_)" fill="#1A1A19" d="M148.445,107.23l-2.342-2.718c0.15-0.131,15.154-13.172,15.924-22.804
		c0.217-2.696-3.811-5.877-11.049-8.727c-6.364-2.507-12.969-3.901-13.028-3.913l0.31-1.615l0.088-1.943
		c0.162,0.008,18.957,3.895,25.129,10.893c1.567,1.776,2.283,3.657,2.127,5.591C164.717,93.094,149.109,106.659,148.445,107.23"/>
	<path clip-path="url(#SVGID_4_)" fill="#1A1A19" d="M132.909,114.366c-8.369,0-17.163-1.108-24.649-4.282l1.4-3.305
		c15.462,6.557,37.066,3.735,47.393,1.035c13.858-3.621,29.407-12.012,27.626-23.74l3.546-0.539
		c1.045,6.874-2.338,13.327-9.781,18.666c-7.392,5.301-16.787,8.119-20.481,9.086C152.125,112.812,142.814,114.366,132.909,114.366"
		/>
	<path clip-path="url(#SVGID_4_)" fill="#1A1A19" d="M99.579,93.337l-1.065-3.427c16.627-5.165,23.251-18.099,23.316-18.23
		l3.215,1.595C124.754,73.861,117.732,87.697,99.579,93.337"/>
	<path clip-path="url(#SVGID_4_)" fill="#1A1A19" d="M108.584,102.502l-0.926-3.467c12.391-3.303,15.203-4.69,15.318-4.748
		l1.666,3.177C124.35,97.62,121.414,99.082,108.584,102.502"/>
	<path clip-path="url(#SVGID_4_)" fill="#1A1A19" d="M74.82,99.773c-1.221,0-2.208-0.989-2.208-2.208v-6.643
		c0-1.219,0.987-2.208,2.208-2.208c1.22,0,2.207,0.989,2.207,2.208v6.643C77.027,98.784,76.04,99.773,74.82,99.773"/>
	<path clip-path="url(#SVGID_4_)" fill="#1A1A19" d="M86.293,99.773c-1.221,0-2.209-0.989-2.209-2.208v-6.643
		c0-1.219,0.988-2.208,2.209-2.208c1.219,0,2.207,0.989,2.207,2.208v6.643C88.5,98.784,87.512,99.773,86.293,99.773"/>
	<path clip-path="url(#SVGID_4_)" fill="#1A1A19" d="M97.764,99.773c-1.221,0-2.208-0.989-2.208-2.208v-6.643
		c0-1.219,0.987-2.208,2.208-2.208c1.219,0,2.207,0.989,2.207,2.208v6.643C99.971,98.784,98.982,99.773,97.764,99.773"/>
	<path clip-path="url(#SVGID_4_)" fill="#1A1A19" d="M150.004,60.421c-1.219,0-2.207-0.988-2.207-2.208v-4.659
		c0-1.219,0.988-2.208,2.207-2.208c1.221,0,2.209,0.989,2.209,2.208v4.659C152.213,59.433,151.225,60.421,150.004,60.421"/>
	<path clip-path="url(#SVGID_4_)" fill="#1A1A19" d="M130.787,62.143c-0.991,0-1.795-0.803-1.795-1.794v-4.659
		c0-0.991,0.804-1.794,1.795-1.794c0.99,0,1.794,0.803,1.794,1.794v4.659C132.581,61.339,131.777,62.143,130.787,62.143"/>
	<path clip-path="url(#SVGID_4_)" fill="#1A1A19" d="M161.556,89.093c-3.903-9.419-23.218-11.993-23.411-12.019l0.244-1.916
		c0.84,0.107,20.621,2.743,24.951,13.196L161.556,89.093z"/>
	<polygon clip-path="url(#SVGID_4_)" fill="#1A1A19" points="124.148,72.191 122.918,68.821 138.94,62.974 160.602,65.11 
		160.25,68.681 139.401,66.626 	"/>
	<path clip-path="url(#SVGID_4_)" fill="#D35F42" d="M100.619,115.077h6.051c0,0,38.258,21.16,41.105,24.897
		c2.848,3.736,0.445,17.744-0.445,20.058c-0.89,2.313,1.564-8.835-9.52-17.745c-7.583-6.095-37.971-26.759-37.971-26.759"/>
	<g opacity="0.4" clip-path="url(#SVGID_4_)">
		<g>
			<defs>
				<rect id="SVGID_11_" x="109.16" y="137.35" width="38.05" height="16.011"/>
			</defs>
			<clipPath id="SVGID_12_">
				<use xlink:href="#SVGID_11_"  overflow="visible"/>
			</clipPath>
			
				<rect x="109.743" y="140.213" transform="matrix(0.9873 0.159 -0.159 0.9873 24.7375 -18.53)" clip-path="url(#SVGID_12_)" fill="#D35F42" width="36.888" height="10.278"/>
		</g>
	</g>
	<g opacity="0.4" clip-path="url(#SVGID_4_)">
		<g>
			<defs>
				<rect id="SVGID_13_" x="95.65" y="157.72" width="52.59" height="30.99"/>
			</defs>
			<clipPath id="SVGID_14_">
				<use xlink:href="#SVGID_13_"  overflow="visible"/>
			</clipPath>
			
				<rect x="97.195" y="161.504" transform="matrix(0.9873 0.159 -0.159 0.9873 29.0901 -17.1848)" clip-path="url(#SVGID_14_)" fill="#D35F42" width="49.501" height="23.417"/>
		</g>
	</g>
	<polygon clip-path="url(#SVGID_4_)" fill="#D35F42" points="60.964,116.34 77.779,119.142 75.777,168.253 51.756,168.253 	"/>
	<polygon clip-path="url(#SVGID_4_)" fill="#D35F42" points="63.318,91.765 62.686,155.042 46.531,145.51 47.313,100.984 	"/>
	<path clip-path="url(#SVGID_4_)" fill="#D35F42" d="M69.909,120.559c0,0,23.483,6.457,31.091,20.069s1.911,11.961-13.857,25.999
		c-15.77,14.037-17.371-2.378-17.371-2.378L69.909,120.559z"/>
	<polygon clip-path="url(#SVGID_4_)" fill="#1A1A19" points="49.408,116.326 47.459,113.313 62.201,103.78 108.529,103.78 
		108.555,114.304 104.965,114.311 104.95,107.369 63.26,107.369 	"/>
	<path clip-path="url(#SVGID_4_)" fill="#1A1A19" d="M48.746,202.28l-0.625-1.828c30.226-10.342,50.855-25.401,59.662-43.548
		c0.127-0.262,0.23-0.477,0.316-0.646c1.355-2.633,0.963-14.372,0.697-18.674l1.928-0.119c0.102,1.638,0.936,16.098-0.906,19.677
		c-0.08,0.157-0.179,0.36-0.297,0.604C100.486,176.368,79.471,191.768,48.746,202.28"/>
	<path clip-path="url(#SVGID_4_)" fill="#D35F42" d="M121.645,121.094c0,0,50.928,3.285,66.676-21.362l-0.39,12.282
		c0,0-4.077,14.66-10.079,17.627c-9.531,4.711-20.479,11.257-27.848,10.272C137.998,138.309,121.645,121.094,121.645,121.094"/>
	<path clip-path="url(#SVGID_4_)" fill="#1A1A19" d="M133.338,122.189c-8.715,0-14.799-0.894-14.973-0.921l0.293-1.909
		c0.498,0.077,49.695,7.287,68.871-20.181l1.584,1.105C176.086,118.945,149.938,122.189,133.338,122.189"/>
	<path clip-path="url(#SVGID_4_)" fill="#1A1A19" d="M75.908,244.33l-42.705-15.639l3.65-34.668l43.502-27.733
		c-1.796-1.935-4.84-4.851-7.836-6.056l-0.142-0.064l-27.289-13.298l1.183-46.318l14.496-10.376c1.49-1.296,3.961-2.226,5.941-2.226
		l0.122,0.001l42.864,0.83V105.2c3.231,1.116,11.455,3.686,18.707,3.686c1.314,0,2.545-0.086,3.656-0.255
		c9.742-1.482,13.434-3.507,19.748-10.83c0.412-0.479,0.568-0.785,0.625-0.934c-0.561-0.506-3.16-1.553-10.102-1.553
		c-1.5,0-2.648,0.053-2.988,0.071l-18.113,2.911V60.373c0-2.263,1.492-4.798,3.469-5.896l0.16-0.081l10.369-4.7
		c1.65-0.888,4.242-1.479,6.102-1.384l0.183,0.019l15.854,2.163c2.576,0.188,4.654,2.332,4.75,4.924l0.432,9.232
		c5.754,1.012,22.693,5.307,27.238,21.216c1.498,5.247,7.801,32.246-15.449,48.527c-8.342,5.842-19.105,7.855-24.104,8.506
		c2.236,8.388,6.504,34.305-19.797,51.223c-3.584,2.306-5.406,4.857-5.414,7.588c-0.015,5.49,6.992,11.259,9.693,13.019l4.145,2.701
		l-50.066,13.433L75.908,244.33z M37.956,225.729l36.759,13.461l11.738-12.273l42.191-11.319c-3.441-3.016-8.055-8.138-8.039-13.901
		c0.014-4.322,2.518-8.12,7.442-11.288c28.581-18.386,17.347-48.325,17.229-48.626l-1.093-2.81l3.009-0.194
		c0.146-0.01,14.641-1.021,24.609-8.002c20.795-14.563,15.09-38.956,13.736-43.697c-4.559-15.953-25.135-18.292-25.342-18.314
		l-1.887-0.197l-0.607-12.965c-0.014-0.35-0.346-0.688-0.674-0.706l-0.183-0.017l-15.94-2.161c-1.099,0-2.758,0.406-3.621,0.886
		l-0.16,0.081l-10.34,4.688c-0.574,0.361-1.141,1.344-1.141,2.001v32.74l13.328-2.131c0.057-0.003,1.424-0.084,3.357-0.084
		c10.992,0,13.359,2.391,14.183,4.189c0.548,1.197,0.757,3.14-1.362,5.598c-7.016,8.138-11.627,10.668-22.428,12.313
		c-1.33,0.202-2.783,0.305-4.32,0.305c-10.059,0-21.244-4.311-21.717-4.494l-1.406-0.548V93.114l-38.535-0.746l0,0
		c-0.957,0-2.45,0.568-3.111,1.171l-0.201,0.163l-12.801,9.163l-1.057,41.281l24.67,12.021c5.712,2.337,10.973,8.957,11.195,9.239
		l1.51,1.917l-45.928,29.278L37.956,225.729z"/>
	<g opacity="0.4" clip-path="url(#SVGID_4_)">
		<g>
			<defs>
				<rect id="SVGID_15_" x="94.699" y="123.04" width="12.951" height="28.84"/>
			</defs>
			<clipPath id="SVGID_16_">
				<use xlink:href="#SVGID_15_"  overflow="visible"/>
			</clipPath>
			<path clip-path="url(#SVGID_16_)" fill="#D35F42" d="M99.17,151.869c0,0,7.24-1.799,7.982-7.306
				c0.744-5.508,1.71-13.228-5.732-17.205c-7.443-3.978-6.699-4.313-6.699-4.313s7.83,8.895,4.805,19.216
				S99.17,151.869,99.17,151.869"/>
		</g>
	</g>
	<polygon clip-path="url(#SVGID_4_)" fill="#1A1A19" points="80.088,113.462 77.291,148.938 76.502,113.361 	"/>
	<path clip-path="url(#SVGID_4_)" fill="#1A1A19" d="M76.673,241.7l-40.257-46.88l1.911-1.072
		c0.383-0.215,38.45-21.578,47.737-28.556c5.043-3.787,20.386-15.314,21.093-25.321c0.202-2.859-0.812-5.361-3.099-7.648
		c-7.914-7.914-21.429-15.472-21.564-15.547l-6.045-3.361h31.254l0.375,0.184c0.121,0.059,12.288,6.059,29.352,16.048
		c7.043,4.122,11.555,10.347,13.045,17.999c1.918,9.848-1.359,21.469-8.766,31.087c-3.782,5.409-8.314,9.252-13.111,13.319
		c-3.41,2.892-6.936,5.882-10.496,9.691c-19.297,20.647-39.86,38.685-40.066,38.864L76.673,241.7z M41.99,195.804l35.037,40.802
		c4.883-4.351,22.125-19.943,38.453-37.413c3.701-3.962,7.31-7.02,10.797-9.978c4.615-3.914,8.975-7.609,12.539-12.706
		c6.838-8.881,9.861-19.427,8.137-28.276c-1.287-6.613-5.208-12.004-11.335-15.59c-15.298-8.955-26.601-14.666-28.752-15.74H89.85
		c4.818,3.037,11.744,7.781,16.746,12.783c3.023,3.022,4.416,6.535,4.141,10.438c-0.736,10.433-13.203,20.941-22.518,27.937
		C79.85,174.35,49.953,191.314,41.99,195.804"/>
</g>
<path fill="#1A1A19" d="M120.24,17.933l0.086,0.001c1.125,0.013,1.823,0.273,1.979,0.363l65.507,37.82
	c0.849,0.489,2.062,2.593,2.062,3.572v75.641c0,0.979-1.215,3.082-2.063,3.572l-65.506,37.82c-0.156,0.09-0.854,0.35-1.977,0.364
	h-0.088c-1.168,0-1.898-0.27-2.062-0.364l-65.507-37.82c-0.848-0.49-2.063-2.593-2.063-3.572V59.689
	c0-0.979,1.214-3.083,2.063-3.572l65.507-37.82C118.342,18.203,119.072,17.933,120.24,17.933 M120.24,9.652
	c-2.248,0-4.496,0.489-6.201,1.474l-65.506,37.82c-3.412,1.97-6.203,6.805-6.203,10.744v75.641c0,3.939,2.791,8.773,6.203,10.744
	l65.506,37.819c1.705,0.985,3.953,1.474,6.201,1.474c0.063,0,0.123,0,0.184-0.002c2.188-0.025,4.361-0.514,6.021-1.472
	l65.507-37.819c3.411-1.971,6.201-6.805,6.201-10.744V59.689c0-3.938-2.79-8.773-6.201-10.744l-65.507-37.82
	c-1.659-0.958-3.833-1.446-6.021-1.472C120.363,9.652,120.301,9.652,120.24,9.652"/>
<polygon fill="#1A1A19" points="63.869,92.663 63.117,116.664 61.109,92.736 "/>
<path fill="#534430" d="M109.686,102.017l13.795-4.301c0,0,12.881-2.023,15.824-2.392s10.212-0.645,13.801,1.563
	c0,0-7.959,11.293-20.334,12.052c-12.373,0.76-23.086-3.576-23.086-3.576V102.017z"/>
</svg>
