<?xml version="1.0" encoding="utf-8"?>
<!-- Generator: Adobe Illustrator 16.0.0, SVG Export Plug-In . SVG Version: 6.00 Build 0)  -->
<!DOCTYPE svg PUBLIC "-//W3C//DTD SVG 1.1//EN" "http://www.w3.org/Graphics/SVG/1.1/DTD/svg11.dtd">
<svg version="1.1" id="Layer_1" xmlns="http://www.w3.org/2000/svg" xmlns:xlink="http://www.w3.org/1999/xlink" x="0px" y="0px"
	 width="612px" height="792px" viewBox="0 0 612 792" enable-background="new 0 0 612 792" xml:space="preserve">
<polygon fill="#A6A8AC" points="211.207,491.157 211.207,483.867 201.479,483.867 201.479,491.157 200.168,491.157 200.168,475.819 
	201.479,475.819 201.479,482.673 211.207,482.673 211.207,475.819 212.518,475.819 212.518,491.157 "/>
<path fill="#A6A8AC" d="M230.204,491.157l-1.519-3.771h-8.117l-1.518,3.771h-1.518l6.277-15.338h1.633l6.278,15.338H230.204z
	 M224.639,477.223l-3.633,8.968h7.243L224.639,477.223z"/>
<polygon fill="#A6A8AC" points="236.416,491.157 236.416,475.819 237.749,475.819 237.749,489.962 245.178,489.962 245.178,491.157 
	"/>
<polygon fill="#A6A8AC" points="250.631,491.157 250.631,475.819 260.357,475.819 260.357,477.016 251.941,477.016 251.941,482.695 
	260.196,482.695 260.196,483.891 251.941,483.891 251.941,491.157 "/>
<polygon fill="#A6A8AC" points="287.588,491.157 287.588,477.476 282,491.157 281.494,491.157 275.885,477.476 275.885,491.157 
	274.572,491.157 274.572,475.819 276.527,475.819 281.747,488.582 286.944,475.819 288.922,475.819 288.922,491.157 "/>
<path fill="#A6A8AC" d="M306.609,491.157l-1.518-3.771h-8.117l-1.519,3.771h-1.517l6.277-15.338h1.633l6.277,15.338H306.609z
	 M301.045,477.223l-3.634,8.968h7.243L301.045,477.223z"/>
<path fill="#A6A8AC" d="M322.135,491.158l-4.299-6.348h-3.381v6.348h-1.312V475.82h5.728c2.643,0,4.668,1.678,4.668,4.483
	c0,2.782-1.955,4.323-4.256,4.415l4.438,6.439H322.135z M322.158,480.304c0-1.932-1.357-3.289-3.402-3.289h-4.301v6.601h4.301
	C320.801,483.615,322.158,482.236,322.158,480.304"/>
<path fill="#A6A8AC" d="M340.673,491.157l-1.519-3.771h-8.117l-1.518,3.771h-1.518l6.277-15.338h1.633l6.278,15.338H340.673z
	 M335.107,477.223l-3.633,8.968h7.243L335.107,477.223z"/>
<polygon fill="#A6A8AC" points="349.529,491.157 349.529,477.016 344.516,477.016 344.516,475.819 355.875,475.819 355.875,477.016 
	350.863,477.016 350.863,491.157 "/>
<polygon fill="#A6A8AC" points="372.389,491.157 372.389,483.867 362.662,483.867 362.662,491.157 361.352,491.157 361.352,475.819 
	362.662,475.819 362.662,482.673 372.389,482.673 372.389,475.819 373.699,475.819 373.699,491.157 "/>
<path fill="#A6A8AC" d="M379.705,483.5c0-4.483,2.945-7.934,7.451-7.934c4.484,0,7.451,3.45,7.451,7.934
	c0,4.484-2.967,7.934-7.451,7.934C382.65,491.434,379.705,487.984,379.705,483.5 M393.227,483.5c0-3.886-2.392-6.737-6.07-6.737
	c-3.701,0-6.07,2.852-6.07,6.737c0,3.863,2.369,6.737,6.07,6.737C390.835,490.237,393.227,487.363,393.227,483.5"/>
<polygon fill="#A6A8AC" points="411.582,491.157 401.924,477.981 401.924,491.157 400.612,491.157 400.612,475.819 401.946,475.819 
	411.559,488.812 411.559,475.819 412.869,475.819 412.869,491.157 "/>
<path fill="#F064A0" d="M235.124,400.076l65.506,37.82c1.752,1.012,4.077,1.5,6.386,1.472c2.188-0.026,4.36-0.514,6.02-1.472
	l65.507-37.82c3.411-1.97,6.202-6.804,6.202-10.744v-75.64c0-3.939-2.791-8.774-6.202-10.743l-65.507-37.821
	c-1.659-0.958-3.832-1.445-6.02-1.472c-2.309-0.027-4.634,0.461-6.386,1.472l-65.506,37.821c-3.412,1.969-6.203,6.804-6.203,10.743
	v75.64C228.921,393.272,231.712,398.106,235.124,400.076"/>
<path fill="#EC4A9A" d="M377.99,400.096c3.412-1.97,6.203-6.804,6.203-10.744v-75.64c0-3.939-2.791-8.774-6.203-10.743
	l-65.506-37.821c-1.537-0.887-3.516-1.366-5.537-1.453V439.37c2.021-0.089,4-0.567,5.537-1.454L377.99,400.096z"/>
<g opacity="0.4">
	<g>
		<defs>
			<rect id="SVGID_1_" x="228.92" y="263.66" width="155.83" height="175.71"/>
		</defs>
		<clipPath id="SVGID_2_">
			<use xlink:href="#SVGID_1_"  overflow="visible"/>
		</clipPath>
		<path clip-path="url(#SVGID_2_)" fill="#FFFFFF" d="M306.833,279.075l62.731,36.219v72.436l-62.731,36.219l-62.731-36.218v-72.437
			L306.833,279.075 M306.832,263.655c-2.249,0-4.496,0.489-6.202,1.473l-65.506,37.82c-3.412,1.97-6.203,6.805-6.203,10.744v75.64
			c0,3.939,2.791,8.774,6.203,10.744l65.506,37.82c1.706,0.984,3.954,1.473,6.202,1.473c0.061,0,0.123,0,0.184-0.001
			c2.188-0.026,4.36-0.514,6.02-1.472l65.507-37.82c3.411-1.97,6.202-6.805,6.202-10.744v-75.64c0-3.939-2.791-8.774-6.202-10.744
			l-65.507-37.82c-1.659-0.958-3.832-1.446-6.02-1.472C306.955,263.655,306.893,263.655,306.832,263.655"/>
	</g>
</g>
<path fill="#1A1A19" d="M306.832,271.936l0.086,0.001c1.123,0.013,1.822,0.273,1.979,0.363l65.506,37.82
	c0.848,0.49,2.063,2.593,2.063,3.573v75.64c0,0.98-1.215,3.083-2.063,3.573l-65.506,37.82c-0.156,0.09-0.855,0.35-1.977,0.364
	h-0.088c-1.168,0-1.898-0.27-2.063-0.364l-65.506-37.82c-0.848-0.49-2.063-2.593-2.063-3.573v-75.64c0-0.98,1.215-3.083,2.063-3.573
	l65.506-37.82C304.934,272.205,305.664,271.936,306.832,271.936 M306.832,263.655c-2.248,0-4.496,0.489-6.202,1.473l-65.506,37.82
	c-3.412,1.97-6.203,6.805-6.203,10.744v75.64c0,3.939,2.791,8.774,6.203,10.744l65.506,37.82c1.706,0.984,3.954,1.473,6.202,1.473
	c0.062,0,0.123,0,0.184-0.001c2.188-0.026,4.36-0.514,6.02-1.472l65.507-37.82c3.411-1.97,6.202-6.805,6.202-10.744v-75.64
	c0-3.939-2.791-8.774-6.202-10.744l-65.507-37.82c-1.659-0.958-3.832-1.446-6.02-1.472
	C306.955,263.655,306.893,263.655,306.832,263.655"/>
<g>
	<defs>
		<path id="SVGID_3_" d="M300.629,265.128l-65.504,37.821c-3.413,1.969-6.204,6.804-6.204,10.743v75.641
			c0,3.938,2.791,8.774,6.204,10.744l65.504,37.819c1.752,1.011,4.078,1.498,6.387,1.473c2.188-0.027,4.36-0.516,6.021-1.473
			l65.507-37.819c3.41-1.97,6.201-6.806,6.201-10.744v-75.641c0-3.939-2.791-8.774-6.201-10.743l-65.507-37.821
			c-1.66-0.958-3.833-1.446-6.021-1.472c-0.061-0.001-0.119-0.001-0.18-0.001C304.587,263.655,302.336,264.143,300.629,265.128"/>
	</defs>
	<clipPath id="SVGID_4_">
		<use xlink:href="#SVGID_3_"  overflow="visible"/>
	</clipPath>
	<rect x="216.016" y="379.513" clip-path="url(#SVGID_4_)" fill="#231F20" width="185.473" height="121.993"/>
	<path clip-path="url(#SVGID_4_)" fill="#FFFFFF" d="M307.076,419.697c6.365-8.074,11.364-14.293,15.971-24.586l43.313-24.271
		l-16.98-1.394l-20.998,7.49c1.199-9.986-0.967-26.279-8.412-35.151c0,0,2.475-5.495,3.984-6.879
		c2.118,0.998,7.791,3.455,9.258,1.871c1.813-1.958,0.377-4.538,0.377-4.538l1.977-0.376l-0.23-2.695l2.067-0.598l0.072-3.742
		l4.018-0.332l-3.017-8.579c0,0-0.16,1.135,2.039-3.639c1.832-3.975-4.346-17.859-19.568-17.331
		c-5.752,0.199-11.902,1.865-14.863,4.396c-9.768,7.812,4.789,19.082-5.818,32.135c-0.645,0.341-45.167,12.196-45.167,12.196
		l-4.765,46.18l17.629,4.421c0.942,0.237,1.777-0.357,1.863-1.326l1.112-12.531c0.086-0.969-0.616-1.912-1.569-2.106l-8.324-1.705
		l6.311-15.887c0,0,11.702-3.889,21.624-4.777c0.017,6.324-0.914,18.902-3.755,26.538c-3.213,8.633-6.195,17.875-8.66,26.018
		c-8.893,1.074-15.785,8.647-15.785,17.831c0,3.181,0.828,6.167,2.277,8.759l-14.287,22.799c0,0-14.792,0.527-22.188,11.623
		c-7.397,11.094-19.02,40.149-19.02,40.149s62.369-47.794,82.896-69.196c9.291,7.302,18.185,17.315,18.185,31.863
		c0,0-10.214-5.986-17.082-0.176c-6.867,5.811-26.414,17.434-33.282,17.434l0.527,26.943c0,0,4.228-5.283,13.207-20.604
		l53.359-10.037C325.371,485.887,335.461,440.252,307.076,419.697"/>
	<path clip-path="url(#SVGID_4_)" fill="#8AD6EF" d="M341.887,307.905c0,0,3.358-7.975-7.089-12.266
		c-9.888-4.291-7.743,13.245-7.743,13.245s2.239,8.022,7.416,12.08l-6.296,18.842l6.856-0.839l2.798-9.235l3.079-4.897l3.498-1.119
		L341.887,307.905z"/>
	<polygon clip-path="url(#SVGID_4_)" fill="#38BBE3" points="342.473,306.634 301.357,311.625 300.525,304.396 338.842,299.406 	"/>
	<path clip-path="url(#SVGID_4_)" fill="#8AD6EF" d="M294.067,356.375c0,0,20.629-9.853,4.196-25.604l2.813-2.718
		c0,0,17.862,31.528,22.341,30.409c4.477-1.12,4.104-5.41,4.104-5.41l2.658,9.141l-0.373,22.2l-20.521,35.819l-33.953-15.484
		l10.82-34.14l1.118-13.06c0,0,10.262-0.746,13.619-4.477"/>
	<path clip-path="url(#SVGID_4_)" fill="#38BBE3" d="M286.526,359.021c0,0,20.334-1.865,18.096-17.535
		c0,0,13.806,29.289-5.97,45.706s-8.792,24.403-8.792,24.403l-14.714-5.748C275.146,405.848,291.377,371.148,286.526,359.021"/>
	<path clip-path="url(#SVGID_4_)" fill="#8AD6EF" d="M321.785,342.838c0,0-9.654-5.457-4.757-18.608c0,0,1.819,6.996,5.597,10.494
		C326.402,338.221,321.785,342.838,321.785,342.838"/>
	<path clip-path="url(#SVGID_4_)" fill="#010101" d="M321.787,294.933c14.605,0.002,20.523,13.445,18.727,17.346
		c-1.461,3.171-1.881,3.735-1.998,3.756l-0.041-0.117c0,0-0.016,0.118,0.035,0.118c0.002,0,0.004,0,0.006-0.001l2.976,8.462
		l-4.019,0.331l-0.071,3.742l-2.067,0.599l0.23,2.695l-1.977,0.376c0,0,1.436,2.58-0.377,4.538
		c-0.342,0.369-0.912,0.519-1.611,0.519c-2.305,0-6.021-1.624-7.646-2.39c-1.51,1.384-3.984,6.879-3.984,6.879
		c7.445,8.872,9.611,25.165,8.412,35.151l20.998-7.49l16.98,1.394l-43.313,24.271c-4.606,10.292-9.605,16.512-15.972,24.586
		c28.386,20.555,18.296,66.189,18.296,66.189l-53.357,10.037c-8.981,15.32-13.209,20.604-13.209,20.604l-0.527-26.943
		c6.868,0,26.415-11.623,33.282-17.434c2.245-1.898,4.846-2.538,7.331-2.538c5.121,0,9.751,2.714,9.751,2.714
		c0-14.548-8.894-24.562-18.185-31.863c-20.527,21.402-82.896,69.196-82.896,69.196s11.622-29.056,19.02-40.15
		c7.396-11.095,22.188-11.622,22.188-11.622l14.287-22.799c-1.449-2.592-2.277-5.578-2.277-8.76c0-9.183,6.893-16.756,15.785-17.83
		c2.465-8.143,5.447-17.385,8.66-26.018c2.841-7.636,3.771-20.215,3.755-26.538c-9.923,0.89-21.624,2.017-21.624,2.017
		l-6.311,18.647l8.324,1.705c0.953,0.195,1.655,1.138,1.569,2.106l-1.112,12.531c-0.074,0.825-0.689,1.378-1.453,1.378
		c-0.133,0-0.271-0.017-0.41-0.052l-17.629-4.421l4.766-46.18c0,0,44.521-11.855,45.166-12.197
		c10.607-13.053-3.949-24.322,5.818-32.135c2.961-2.53,9.111-4.196,14.863-4.396C321.229,294.938,321.508,294.933,321.787,294.933
		 M321.787,290.744L321.787,290.744c-0.328,0-0.654,0.006-0.988,0.018c-5.326,0.185-13.06,1.698-17.383,5.352
		c-6.635,5.346-5.263,12.104-4.16,17.538c1.016,5.001,1.9,9.363-1.504,14.208c-5.425,1.534-28.266,7.649-43.732,11.768l-2.792,0.743
		l-0.296,2.874l-4.768,46.181l-0.371,3.609l3.52,0.884l17.629,4.421c0.471,0.116,0.952,0.177,1.43,0.177
		c2.943,0,5.361-2.233,5.625-5.195l1.112-12.531c0.272-3.071-1.88-5.963-4.901-6.58l-3.676-0.754l3.92-11.584
		c3.152-0.302,8.648-0.821,14.211-1.332c-0.332,6.381-1.343,15.045-3.365,20.481c-2.588,6.953-5.275,14.961-8.002,23.833
		c-9.697,2.446-16.705,11.23-16.705,21.475c0,2.92,0.578,5.813,1.689,8.493l-11.966,19.095c-4.931,0.649-16.521,3.222-23.22,13.27
		c-7.551,11.327-18.94,39.715-19.422,40.919l-5.66,14.149l12.097-9.27c2.451-1.879,57.979-44.491,80.635-66.852
		c7.244,6.317,11.501,12.787,13.046,19.882c-1.505-0.352-3.166-0.59-4.898-0.59c-3.893,0-7.27,1.187-10.036,3.527
		c-7.384,6.248-25.658,16.443-30.577,16.443h-4.271l0.084,4.271l0.527,26.943l0.227,11.572l7.231-9.037
		c0.173-0.218,4.21-5.307,12.582-19.456l51.488-9.687l2.718-0.512l0.598-2.7c0.108-0.49,2.643-12.173,1.584-26.597
		c-1.302-17.732-7.539-31.863-18.109-41.169c5.109-6.526,9.352-12.319,13.354-20.929l42.117-23.603l11.967-6.706l-13.672-1.123
		l-16.98-1.393l-0.899-0.073l-0.851,0.304l-15.103,5.388c-0.075-9.07-2.118-21.06-8.017-29.596c0.212-0.415,0.423-0.815,0.626-1.187
		c2.435,0.916,4.485,1.378,6.122,1.378c2.447,0,3.898-1.012,4.684-1.861c1.172-1.266,1.747-2.659,1.948-4.004l1.829-0.349
		l-0.26-3.035l1.729-0.501l0.058-3.043l0.248-0.021l5.405-0.446l-1.799-5.117l-2.312-6.576c0.367-0.719,0.75-1.55,1.188-2.501
		c1.756-3.812-0.051-8.97-2.327-12.526C337.613,294.667,330.25,290.746,321.787,290.744"/>
	<path clip-path="url(#SVGID_4_)" fill="#010101" d="M324.036,339.789c0,0-0.048-0.054-0.138-0.155
		c-0.103-0.113-0.246-0.276-0.404-0.47c-0.33-0.392-0.773-0.957-1.28-1.647c-0.497-0.698-1.069-1.51-1.612-2.425
		c-0.56-0.903-1.09-1.907-1.58-2.919c-0.224-0.523-0.467-1.027-0.662-1.547c-0.183-0.527-0.402-1.019-0.535-1.533
		c-0.139-0.509-0.313-0.98-0.394-1.459c-0.089-0.474-0.209-0.905-0.251-1.321c-0.046-0.412-0.089-0.789-0.126-1.123
		c-0.028-0.333-0.014-0.629-0.021-0.867c-0.004-0.475-0.006-0.746-0.006-0.746s0.067,0.263,0.185,0.723
		c0.063,0.229,0.116,0.508,0.222,0.817c0.112,0.305,0.239,0.65,0.379,1.026c0.131,0.373,0.349,0.756,0.534,1.167
		c0.177,0.414,0.451,0.818,0.688,1.245c0.229,0.431,0.551,0.84,0.828,1.269c0.289,0.424,0.627,0.83,0.938,1.245
		c0.67,0.804,1.36,1.58,2.059,2.262c0.682,0.693,1.369,1.289,1.955,1.792c0.592,0.495,1.097,0.89,1.451,1.146
		c0.18,0.135,0.311,0.223,0.396,0.281c0.098,0.067,0.149,0.103,0.149,0.103L324.036,339.789z"/>
	<path clip-path="url(#SVGID_4_)" fill="#010101" d="M285.68,356.403c0,0,0.092-0.01,0.266-0.029
		c0.184-0.024,0.455-0.062,0.799-0.108c0.697-0.104,1.701-0.276,2.896-0.551c2.385-0.541,5.555-1.492,8.396-3.087
		c0.696-0.409,1.392-0.838,2.021-1.325c0.646-0.47,1.217-1.004,1.748-1.547c0.264-0.272,0.489-0.567,0.732-0.844
		c0.206-0.299,0.427-0.585,0.611-0.881c0.365-0.596,0.656-1.195,0.875-1.773c0.097-0.295,0.189-0.578,0.277-0.846
		c0.059-0.279,0.114-0.542,0.167-0.79c0.101-0.5,0.11-0.948,0.159-1.317c-0.003-0.742-0.005-1.167-0.005-1.167
		s0.067,0.423,0.185,1.162c0.008,0.373,0.068,0.833,0.045,1.36c-0.014,0.265-0.029,0.548-0.047,0.845
		c-0.048,0.296-0.098,0.607-0.15,0.932c-0.137,0.646-0.346,1.336-0.644,2.043c-0.151,0.351-0.339,0.697-0.517,1.06
		c-0.213,0.339-0.415,0.704-0.656,1.046c-0.484,0.683-1.025,1.37-1.648,1.99c-0.607,0.642-1.285,1.221-1.979,1.786
		c-2.813,2.209-6.045,3.748-8.511,4.726c-1.236,0.492-2.29,0.847-3.041,1.081c-0.381,0.114-0.68,0.203-0.885,0.264
		c-0.217,0.059-0.334,0.09-0.334,0.09L285.68,356.403z"/>
	<polygon clip-path="url(#SVGID_4_)" fill="#010101" points="324.457,341.725 317.588,346.196 321.352,338.915 	"/>
	<path clip-path="url(#SVGID_4_)" fill="#010101" d="M274.772,404.973l36.616,15.64l10.119,11.96c0,0-20.056,10.672-20.976,11.04
		s-17.479-0.736-17.479-0.736l-22.816-28.151L274.772,404.973z"/>
	<path clip-path="url(#SVGID_4_)" fill="#010101" d="M265.912,361.498c0,0,0.063-0.162,0.174-0.445
		c0.107-0.295,0.262-0.727,0.42-1.254c0.165-0.528,0.332-1.15,0.488-1.825c0.152-0.675,0.281-1.399,0.359-2.127
		c0.021-0.358,0.08-0.734,0.066-1.084c0.005-0.358,0.009-0.714-0.037-1.045c-0.018-0.347-0.081-0.66-0.159-0.96
		c-0.05-0.317-0.182-0.567-0.284-0.824c-0.086-0.272-0.259-0.446-0.381-0.641c-0.119-0.203-0.264-0.337-0.396-0.438
		c-0.259-0.221-0.407-0.348-0.407-0.348s0.184,0.071,0.505,0.196c0.17,0.059,0.37,0.145,0.562,0.306
		c0.193,0.151,0.463,0.298,0.651,0.545c0.206,0.232,0.462,0.486,0.634,0.799c0.203,0.304,0.4,0.638,0.549,1
		c0.182,0.359,0.313,0.74,0.445,1.133c0.149,0.395,0.227,0.795,0.34,1.204c0.19,0.812,0.324,1.635,0.412,2.408
		c0.086,0.771,0.141,1.497,0.161,2.119c0.028,0.624,0.025,1.146,0.021,1.518c-0.012,0.381-0.02,0.599-0.02,0.599L265.912,361.498z"
		/>
	<rect x="233.542" y="358.701" clip-path="url(#SVGID_4_)" fill="#8AD6EF" width="145.834" height="37.316"/>
	<rect x="232.41" y="388.262" clip-path="url(#SVGID_4_)" fill="#FFFFFF" width="147.66" height="7.906"/>
	<rect x="232.962" y="358.355" clip-path="url(#SVGID_4_)" fill="#FFFFFF" width="147.108" height="7.906"/>
	<path clip-path="url(#SVGID_4_)" fill="#231F20" d="M381.84,398.482H231.078v-42.246H381.84V398.482z M236.006,393.554h140.906
		v-32.389H236.006V393.554z"/>
</g>
<polygon fill="#010101" points="263.553,383.659 263.553,374.775 261.326,377.021 259.379,374.975 264.009,370.403 266.971,370.403 
	266.971,383.659 "/>
<path fill="#010101" d="M268.48,381.812l1.729-2.325c0.974,0.934,2.464,1.391,3.617,1.391c1.471,0,2.226-0.556,2.226-1.291
	c0-0.756-0.556-1.134-2.365-1.134c-0.575,0-1.59,0.021-1.788,0.04v-3.041c0.258,0.021,1.291,0.021,1.788,0.021
	c1.372,0,2.147-0.339,2.147-1.033c0-0.835-0.955-1.212-2.227-1.212c-1.213,0-2.365,0.437-3.299,1.271l-1.65-2.146
	c1.133-1.252,2.862-2.146,5.307-2.146c3.379,0,5.268,1.45,5.268,3.637c0,1.551-1.332,2.723-2.902,2.981
	c1.41,0.14,3.119,1.232,3.119,3.14c0,2.325-2.185,3.936-5.484,3.936C271.421,383.898,269.533,383.004,268.48,381.812"/>
<path fill="#010101" d="M280.92,382.01c0-0.994,0.875-1.848,1.888-1.848s1.868,0.854,1.868,1.848c0,1.015-0.855,1.868-1.868,1.868
	S280.92,383.024,280.92,382.01"/>
<polygon fill="#010101" points="287.577,383.659 287.577,374.775 285.352,377.021 283.404,374.975 288.035,370.403 290.995,370.403 
	290.995,383.659 "/>
<polygon fill="#010101" points="310.094,383.659 310.094,374.896 306.754,383.659 305.243,383.659 301.885,374.896 301.885,383.659 
	298.467,383.659 298.467,370.403 303.217,370.403 305.999,377.718 308.762,370.403 313.512,370.403 313.512,383.659 "/>
<rect x="315.895" y="370.404" fill="#010101" width="3.418" height="13.256"/>
<polygon fill="#010101" points="321.638,383.659 321.638,370.403 325.056,370.403 325.056,380.679 330.381,380.679 330.381,383.659 
	"/>
<polygon fill="#010101" points="332.13,383.659 332.13,370.403 341.848,370.403 341.848,373.385 335.548,373.385 335.548,375.451 
	341.709,375.451 341.709,378.433 335.548,378.433 335.548,380.679 341.848,380.679 341.848,383.659 "/>
<path fill="#010101" d="M342.881,381.791l1.807-2.662c0.955,0.953,2.426,1.749,4.254,1.749c1.152,0,1.869-0.398,1.869-1.054
	c0-1.75-7.494-0.299-7.494-5.405c0-2.227,1.869-4.214,5.268-4.214c2.126,0,3.975,0.636,5.385,1.849l-1.867,2.563
	c-1.113-0.935-2.563-1.392-3.875-1.392c-0.994,0-1.432,0.338-1.432,0.914c0,1.63,7.493,0.397,7.493,5.327
	c0,2.663-1.968,4.431-5.524,4.431C346.08,383.897,344.212,383.044,342.881,381.791"/>
<path fill="#1A1A19" d="M306.832,271.936l0.086,0.001c1.123,0.013,1.822,0.273,1.979,0.363l65.506,37.82
	c0.848,0.49,2.063,2.593,2.063,3.573v75.64c0,0.98-1.215,3.083-2.063,3.573l-65.506,37.82c-0.156,0.09-0.855,0.35-1.977,0.364
	h-0.088c-1.168,0-1.898-0.27-2.063-0.364l-65.506-37.82c-0.848-0.49-2.063-2.593-2.063-3.573v-75.64c0-0.98,1.215-3.083,2.063-3.573
	l65.506-37.82C304.934,272.205,305.664,271.936,306.832,271.936 M306.832,263.655c-2.248,0-4.496,0.489-6.202,1.473l-65.506,37.82
	c-3.412,1.97-6.203,6.805-6.203,10.744v75.64c0,3.939,2.791,8.774,6.203,10.744l65.506,37.82c1.706,0.984,3.954,1.473,6.202,1.473
	c0.062,0,0.123,0,0.184-0.001c2.188-0.026,4.36-0.514,6.02-1.472l65.507-37.82c3.411-1.97,6.202-6.805,6.202-10.744v-75.64
	c0-3.939-2.791-8.774-6.202-10.744l-65.507-37.82c-1.659-0.958-3.832-1.446-6.02-1.472
	C306.955,263.655,306.893,263.655,306.832,263.655"/>
</svg>
