<?xml version="1.0" encoding="utf-8"?>
<!-- Generator: Adobe Illustrator 16.0.0, SVG Export Plug-In . SVG Version: 6.00 Build 0)  -->
<!DOCTYPE svg PUBLIC "-//W3C//DTD SVG 1.1//EN" "http://www.w3.org/Graphics/SVG/1.1/DTD/svg11.dtd">
<svg version="1.1" id="Layer_1" xmlns="http://www.w3.org/2000/svg" xmlns:xlink="http://www.w3.org/1999/xlink" x="0px" y="0px"
	 width="240px" height="195px" viewBox="0 0 240 195" enable-background="new 0 0 240 195" xml:space="preserve">
<path fill="none" d="M78.63-2257.76"/>
<path fill="none" d="M78.63,987.837"/>
<path fill="none" d="M51.764,1616.837"/>
<path fill="none" d="M51.764-1628.76"/>
<path fill="#F0659F" d="M55.124,143.076l65.506,37.82c1.752,1.012,4.077,1.5,6.386,1.472c2.188-0.026,4.36-0.516,6.021-1.472
	l65.507-37.82c3.411-1.97,6.202-6.804,6.202-10.744v-75.64c0-3.939-2.791-8.774-6.202-10.743L133.037,8.128
	c-1.659-0.958-3.832-1.445-6.021-1.472c-2.309-0.027-4.634,0.461-6.386,1.472L55.124,45.949c-3.412,1.969-6.203,6.804-6.203,10.743
	v75.64C48.921,136.272,51.712,141.106,55.124,143.076"/>
<path fill="#EB4C9A" d="M197.99,143.096c3.412-1.97,6.203-6.804,6.203-10.744v-75.64c0-3.938-2.791-8.774-6.203-10.743
	L132.484,8.148c-1.537-0.887-3.518-1.366-5.537-1.453V182.37c2.021-0.089,4-0.567,5.537-1.454L197.99,143.096z"/>
<g opacity="0.4">
	<g>
		<g>
			<g>
				<defs>
					<rect id="SVGID_1_" x="48.92" y="6.66" width="155.83" height="175.71"/>
				</defs>
				<clipPath id="SVGID_2_">
					<use xlink:href="#SVGID_1_"  overflow="visible"/>
				</clipPath>
				<path clip-path="url(#SVGID_2_)" fill="#FFFFFF" d="M126.833,22.075l62.731,36.219v72.437l-62.731,36.219l-62.731-36.218V58.294
					L126.833,22.075 M126.832,6.655c-2.249,0-4.496,0.489-6.202,1.473l-65.506,37.82c-3.412,1.97-6.203,6.805-6.203,10.744v75.64
					c0,3.938,2.791,8.773,6.203,10.744l65.506,37.818c1.706,0.984,3.954,1.475,6.202,1.475c0.061,0,0.123,0,0.184-0.001
					c2.188-0.026,4.36-0.516,6.021-1.474l65.507-37.818c3.411-1.972,6.202-6.806,6.202-10.744v-75.64
					c0-3.939-2.791-8.774-6.202-10.745l-65.507-37.82c-1.659-0.958-3.832-1.446-6.021-1.472
					C126.955,6.655,126.893,6.655,126.832,6.655"/>
			</g>
		</g>
	</g>
</g>
<path fill="#1A1A19" d="M126.832,14.936l0.086,0.001c1.123,0.013,1.822,0.273,1.979,0.363l65.506,37.82
	c0.849,0.49,2.063,2.593,2.063,3.573v75.64c0,0.98-1.215,3.083-2.063,3.573l-65.506,37.818c-0.155,0.092-0.854,0.352-1.978,0.364
	h-0.088c-1.168,0-1.897-0.27-2.063-0.364l-65.505-37.818c-0.848-0.49-2.063-2.593-2.063-3.573v-75.64
	c0-0.98,1.215-3.083,2.063-3.573l65.505-37.82C124.934,15.205,125.664,14.936,126.832,14.936 M126.832,6.655
	c-2.248,0-4.496,0.489-6.202,1.473l-65.506,37.82c-3.412,1.97-6.203,6.805-6.203,10.744v75.64c0,3.938,2.791,8.773,6.203,10.744
	l65.506,37.818c1.706,0.984,3.954,1.475,6.202,1.475c0.063,0,0.123,0,0.184-0.001c2.188-0.026,4.36-0.516,6.021-1.474l65.507-37.818
	c3.411-1.972,6.202-6.806,6.202-10.744v-75.64c0-3.939-2.791-8.774-6.202-10.745l-65.507-37.82
	c-1.659-0.958-3.832-1.446-6.021-1.472C126.955,6.655,126.893,6.655,126.832,6.655"/>
<g>
	<g>
		<g>
			<defs>
				<path id="SVGID_3_" d="M120.629,8.128L55.125,45.949c-3.413,1.969-6.204,6.804-6.204,10.743v75.641
					c0,3.938,2.791,8.774,6.204,10.744l65.504,37.817c1.752,1.013,4.078,1.498,6.387,1.475c2.188-0.027,4.36-0.518,6.021-1.475
					l65.507-37.817c3.41-1.97,6.201-6.807,6.201-10.744V56.692c0-3.939-2.791-8.774-6.201-10.743L133.037,8.128
					c-1.66-0.958-3.833-1.446-6.021-1.472c-0.061-0.001-0.117-0.001-0.18-0.001C124.587,6.655,122.336,7.143,120.629,8.128"/>
			</defs>
			<clipPath id="SVGID_4_">
				<use xlink:href="#SVGID_3_"  overflow="visible"/>
			</clipPath>
			<rect x="36.016" y="122.513" clip-path="url(#SVGID_4_)" fill="#231F20" width="185.473" height="121.993"/>
		</g>
	</g>
	<g>
		<g>
			<defs>
				<path id="SVGID_5_" d="M120.629,8.128L55.125,45.949c-3.413,1.969-6.204,6.804-6.204,10.743v75.641
					c0,3.938,2.791,8.774,6.204,10.744l65.504,37.817c1.752,1.013,4.078,1.498,6.387,1.475c2.188-0.027,4.36-0.518,6.021-1.475
					l65.507-37.817c3.41-1.97,6.201-6.807,6.201-10.744V56.692c0-3.939-2.791-8.774-6.201-10.743L133.037,8.128
					c-1.66-0.958-3.833-1.446-6.021-1.472c-0.061-0.001-0.117-0.001-0.18-0.001C124.587,6.655,122.336,7.143,120.629,8.128"/>
			</defs>
			<clipPath id="SVGID_6_">
				<use xlink:href="#SVGID_5_"  overflow="visible"/>
			</clipPath>
			<path clip-path="url(#SVGID_6_)" fill="#FFFFFF" d="M127.076,162.697c6.365-8.074,11.363-14.293,15.971-24.586l43.313-24.271
				l-16.979-1.394l-20.998,7.489c1.199-9.985-0.967-26.278-8.411-35.15c0,0,2.475-5.495,3.983-6.879
				c2.118,0.998,7.791,3.455,9.258,1.871c1.813-1.958,0.377-4.538,0.377-4.538l1.978-0.376l-0.229-2.695l2.067-0.598l0.07-3.742
				l4.02-0.332l-3.018-8.579c0,0-0.16,1.135,2.039-3.639c1.832-3.976-4.347-17.859-19.567-17.332
				c-5.753,0.199-11.902,1.865-14.863,4.396c-9.768,7.813,4.789,19.082-5.818,32.135C119.622,74.819,75.1,86.674,75.1,86.674
				l-4.765,46.18l17.629,4.422c0.942,0.236,1.777-0.357,1.863-1.326l1.112-12.531c0.086-0.969-0.616-1.912-1.569-2.106l-8.324-1.704
				l6.311-15.888c0,0,11.702-3.889,21.624-4.776c0.017,6.323-0.914,18.901-3.755,26.538c-3.213,8.633-6.195,17.875-8.66,26.018
				c-8.893,1.074-15.785,8.647-15.785,17.831c0,3.181,0.828,6.167,2.277,8.759l-14.287,22.799c0,0-14.792,0.527-22.188,11.623
				c-7.397,11.096-19.02,40.149-19.02,40.149s62.369-47.794,82.896-69.196c9.291,7.302,18.186,17.315,18.186,31.863
				c0,0-10.213-5.986-17.083-0.176c-6.867,5.811-26.414,17.434-33.282,17.434l0.527,26.943c0,0,4.228-5.283,13.207-20.604
				l53.359-10.037C145.371,228.887,155.461,183.252,127.076,162.697"/>
		</g>
	</g>
	<g>
		<g>
			<defs>
				<path id="SVGID_7_" d="M120.629,8.128L55.125,45.949c-3.413,1.969-6.204,6.804-6.204,10.743v75.641
					c0,3.938,2.791,8.774,6.204,10.744l65.504,37.817c1.752,1.013,4.078,1.498,6.387,1.475c2.188-0.027,4.36-0.518,6.021-1.475
					l65.507-37.817c3.41-1.97,6.201-6.807,6.201-10.744V56.692c0-3.939-2.791-8.774-6.201-10.743L133.037,8.128
					c-1.66-0.958-3.833-1.446-6.021-1.472c-0.061-0.001-0.117-0.001-0.18-0.001C124.587,6.655,122.336,7.143,120.629,8.128"/>
			</defs>
			<clipPath id="SVGID_8_">
				<use xlink:href="#SVGID_7_"  overflow="visible"/>
			</clipPath>
			<path clip-path="url(#SVGID_8_)" fill="#8CD6EE" d="M161.887,50.905c0,0,3.358-7.975-7.089-12.266
				c-9.888-4.291-7.743,13.245-7.743,13.245s2.239,8.022,7.416,12.08l-6.296,18.842l6.856-0.839l2.798-9.234l3.079-4.897
				l3.498-1.119L161.887,50.905z"/>
		</g>
	</g>
	<g>
		<g>
			<defs>
				<path id="SVGID_9_" d="M120.629,8.128L55.125,45.949c-3.413,1.969-6.204,6.804-6.204,10.743v75.641
					c0,3.938,2.791,8.774,6.204,10.744l65.504,37.817c1.752,1.013,4.078,1.498,6.387,1.475c2.188-0.027,4.36-0.518,6.021-1.475
					l65.507-37.817c3.41-1.97,6.201-6.807,6.201-10.744V56.692c0-3.939-2.791-8.774-6.201-10.743L133.037,8.128
					c-1.66-0.958-3.833-1.446-6.021-1.472c-0.061-0.001-0.117-0.001-0.18-0.001C124.587,6.655,122.336,7.143,120.629,8.128"/>
			</defs>
			<clipPath id="SVGID_10_">
				<use xlink:href="#SVGID_9_"  overflow="visible"/>
			</clipPath>
			<polygon clip-path="url(#SVGID_10_)" fill="#3ABCE3" points="162.473,49.634 121.357,54.625 120.525,47.396 158.842,42.406 			
				"/>
		</g>
	</g>
	<g>
		<g>
			<defs>
				<path id="SVGID_11_" d="M120.629,8.128L55.125,45.949c-3.413,1.969-6.204,6.804-6.204,10.743v75.641
					c0,3.938,2.791,8.774,6.204,10.744l65.504,37.817c1.752,1.013,4.078,1.498,6.387,1.475c2.188-0.027,4.36-0.518,6.021-1.475
					l65.507-37.817c3.41-1.97,6.201-6.807,6.201-10.744V56.692c0-3.939-2.791-8.774-6.201-10.743L133.037,8.128
					c-1.66-0.958-3.833-1.446-6.021-1.472c-0.061-0.001-0.117-0.001-0.18-0.001C124.587,6.655,122.336,7.143,120.629,8.128"/>
			</defs>
			<clipPath id="SVGID_12_">
				<use xlink:href="#SVGID_11_"  overflow="visible"/>
			</clipPath>
			<path clip-path="url(#SVGID_12_)" fill="#8CD6EE" d="M114.067,99.375c0,0,20.628-9.853,4.196-25.604l2.813-2.719
				c0,0,17.861,31.528,22.341,30.409c4.478-1.12,4.104-5.41,4.104-5.41l2.656,9.142l-0.373,22.199l-20.521,35.819l-33.953-15.484
				l10.82-34.14l1.118-13.06c0,0,10.262-0.746,13.619-4.478"/>
		</g>
	</g>
	<g>
		<g>
			<defs>
				<path id="SVGID_13_" d="M120.629,8.128L55.125,45.949c-3.413,1.969-6.204,6.804-6.204,10.743v75.641
					c0,3.938,2.791,8.774,6.204,10.744l65.504,37.817c1.752,1.013,4.078,1.498,6.387,1.475c2.188-0.027,4.36-0.518,6.021-1.475
					l65.507-37.817c3.41-1.97,6.201-6.807,6.201-10.744V56.692c0-3.939-2.791-8.774-6.201-10.743L133.037,8.128
					c-1.66-0.958-3.833-1.446-6.021-1.472c-0.061-0.001-0.117-0.001-0.18-0.001C124.587,6.655,122.336,7.143,120.629,8.128"/>
			</defs>
			<clipPath id="SVGID_14_">
				<use xlink:href="#SVGID_13_"  overflow="visible"/>
			</clipPath>
			<path clip-path="url(#SVGID_14_)" fill="#3ABCE3" d="M106.526,102.021c0,0,20.333-1.865,18.096-17.535
				c0,0,13.806,29.289-5.97,45.706s-8.792,24.402-8.792,24.402l-14.714-5.748C95.146,148.848,111.377,114.148,106.526,102.021"/>
		</g>
	</g>
	<g>
		<g>
			<defs>
				<path id="SVGID_15_" d="M120.629,8.128L55.125,45.949c-3.413,1.969-6.204,6.804-6.204,10.743v75.641
					c0,3.938,2.791,8.774,6.204,10.744l65.504,37.817c1.752,1.013,4.078,1.498,6.387,1.475c2.188-0.027,4.36-0.518,6.021-1.475
					l65.507-37.817c3.41-1.97,6.201-6.807,6.201-10.744V56.692c0-3.939-2.791-8.774-6.201-10.743L133.037,8.128
					c-1.66-0.958-3.833-1.446-6.021-1.472c-0.061-0.001-0.117-0.001-0.18-0.001C124.587,6.655,122.336,7.143,120.629,8.128"/>
			</defs>
			<clipPath id="SVGID_16_">
				<use xlink:href="#SVGID_15_"  overflow="visible"/>
			</clipPath>
			<path clip-path="url(#SVGID_16_)" fill="#8CD6EE" d="M141.785,85.838c0,0-9.654-5.457-4.758-18.607c0,0,1.818,6.995,5.598,10.493
				C146.402,81.221,141.785,85.838,141.785,85.838"/>
		</g>
	</g>
	<g>
		<g>
			<defs>
				<path id="SVGID_17_" d="M120.629,8.128L55.125,45.949c-3.413,1.969-6.204,6.804-6.204,10.743v75.641
					c0,3.938,2.791,8.774,6.204,10.744l65.504,37.817c1.752,1.013,4.078,1.498,6.387,1.475c2.188-0.027,4.36-0.518,6.021-1.475
					l65.507-37.817c3.41-1.97,6.201-6.807,6.201-10.744V56.692c0-3.939-2.791-8.774-6.201-10.743L133.037,8.128
					c-1.66-0.958-3.833-1.446-6.021-1.472c-0.061-0.001-0.117-0.001-0.18-0.001C124.587,6.655,122.336,7.143,120.629,8.128"/>
			</defs>
			<clipPath id="SVGID_18_">
				<use xlink:href="#SVGID_17_"  overflow="visible"/>
			</clipPath>
			<path clip-path="url(#SVGID_18_)" fill="#020202" d="M141.787,37.933c14.604,0.002,20.521,13.445,18.727,17.346
				c-1.461,3.171-1.881,3.734-1.998,3.756l-0.041-0.117c0,0-0.016,0.118,0.035,0.118c0.002,0,0.004,0,0.006-0.001l2.978,8.462
				l-4.021,0.331l-0.07,3.742l-2.066,0.599l0.23,2.695l-1.979,0.376c0,0,1.438,2.58-0.377,4.538
				c-0.342,0.369-0.912,0.519-1.611,0.519c-2.305,0-6.021-1.624-7.646-2.39c-1.511,1.384-3.983,6.879-3.983,6.879
				c7.444,8.872,9.61,25.165,8.411,35.151l20.998-7.49l16.979,1.394l-43.313,24.271c-4.605,10.292-9.604,16.512-15.972,24.586
				c28.386,20.555,18.296,66.188,18.296,66.188l-53.357,10.037c-8.981,15.32-13.209,20.604-13.209,20.604l-0.527-26.943
				c6.868,0,26.415-11.623,33.282-17.434c2.245-1.898,4.846-2.538,7.331-2.538c5.121,0,9.75,2.714,9.75,2.714
				c0-14.548-8.894-24.563-18.185-31.863c-20.527,21.402-82.896,69.196-82.896,69.196s11.622-29.056,19.02-40.15
				c7.396-11.095,22.188-11.622,22.188-11.622l14.287-22.799c-1.449-2.592-2.277-5.578-2.277-8.76
				c0-9.184,6.893-16.756,15.785-17.83c2.465-8.143,5.447-17.385,8.66-26.018c2.841-7.637,3.771-20.216,3.755-26.538
				c-9.923,0.89-21.624,2.017-21.624,2.017l-6.311,18.647l8.324,1.704c0.953,0.195,1.655,1.139,1.569,2.106l-1.112,12.531
				c-0.074,0.825-0.689,1.378-1.453,1.378c-0.133,0-0.271-0.018-0.41-0.052l-17.629-4.421l4.766-46.181
				c0,0,44.521-11.854,45.166-12.197c10.607-13.053-3.949-24.321,5.818-32.135c2.961-2.53,9.111-4.196,14.863-4.396
				C141.229,37.938,141.508,37.933,141.787,37.933 M141.787,33.744L141.787,33.744c-0.328,0-0.654,0.006-0.988,0.018
				c-5.326,0.185-13.061,1.698-17.383,5.352c-6.635,5.346-5.263,12.104-4.16,17.539c1.016,5.001,1.9,9.362-1.504,14.208
				c-5.425,1.533-28.266,7.648-43.732,11.768l-2.792,0.743l-0.296,2.874l-4.768,46.181l-0.371,3.609l3.52,0.884l17.629,4.421
				c0.471,0.116,0.952,0.177,1.43,0.177c2.943,0,5.361-2.231,5.625-5.194l1.112-12.531c0.272-3.071-1.88-5.963-4.901-6.58
				l-3.676-0.754l3.92-11.584c3.152-0.302,8.648-0.821,14.211-1.332c-0.332,6.381-1.343,15.045-3.365,20.48
				c-2.588,6.953-5.275,14.962-8.002,23.834c-9.697,2.444-16.705,11.229-16.705,21.475c0,2.92,0.578,5.813,1.689,8.493
				l-11.966,19.095c-4.931,0.649-16.521,3.222-23.22,13.27c-7.551,11.327-18.94,39.717-19.422,40.921l-5.66,14.147l12.097-9.27
				c2.451-1.879,57.979-44.491,80.635-66.854c7.244,6.317,11.501,12.787,13.046,19.882c-1.505-0.352-3.166-0.59-4.898-0.59
				c-3.893,0-7.27,1.188-10.036,3.527c-7.384,6.248-25.658,16.441-30.577,16.441h-4.271l0.084,4.271l0.527,26.943l0.227,11.57
				l7.231-9.037c0.173-0.218,4.21-5.307,12.582-19.455l51.487-9.688l2.719-0.512l0.598-2.7c0.107-0.49,2.643-12.173,1.584-26.597
				c-1.302-17.732-7.539-31.863-18.109-41.169c5.109-6.526,9.354-12.319,13.354-20.931l42.117-23.603l11.967-6.706l-13.672-1.123
				l-16.979-1.394l-0.898-0.072l-0.852,0.304l-15.104,5.388c-0.075-9.069-2.118-21.06-8.018-29.596
				c0.213-0.415,0.424-0.815,0.627-1.188c2.435,0.916,4.483,1.379,6.121,1.379c2.446,0,3.897-1.013,4.685-1.861
				c1.172-1.267,1.747-2.659,1.948-4.004l1.828-0.35l-0.261-3.034l1.729-0.501l0.058-3.044l0.248-0.021l5.405-0.446l-1.799-5.117
				l-2.313-6.575c0.367-0.72,0.75-1.551,1.188-2.501c1.756-3.813-0.053-8.97-2.327-12.526
				C157.613,37.667,150.25,33.746,141.787,33.744"/>
		</g>
	</g>
	<g>
		<g>
			<defs>
				<path id="SVGID_19_" d="M120.629,8.128L55.125,45.949c-3.413,1.969-6.204,6.804-6.204,10.743v75.641
					c0,3.938,2.791,8.774,6.204,10.744l65.504,37.817c1.752,1.013,4.078,1.498,6.387,1.475c2.188-0.027,4.36-0.518,6.021-1.475
					l65.507-37.817c3.41-1.97,6.201-6.807,6.201-10.744V56.692c0-3.939-2.791-8.774-6.201-10.743L133.037,8.128
					c-1.66-0.958-3.833-1.446-6.021-1.472c-0.061-0.001-0.117-0.001-0.18-0.001C124.587,6.655,122.336,7.143,120.629,8.128"/>
			</defs>
			<clipPath id="SVGID_20_">
				<use xlink:href="#SVGID_19_"  overflow="visible"/>
			</clipPath>
			<path clip-path="url(#SVGID_20_)" fill="#020202" d="M144.036,82.789c0,0-0.048-0.054-0.138-0.155
				c-0.104-0.112-0.246-0.275-0.404-0.47c-0.33-0.392-0.773-0.957-1.28-1.647c-0.497-0.697-1.069-1.51-1.612-2.425
				c-0.56-0.902-1.09-1.907-1.578-2.919c-0.226-0.522-0.469-1.026-0.662-1.547c-0.184-0.527-0.402-1.019-0.535-1.533
				c-0.141-0.509-0.313-0.979-0.395-1.459c-0.09-0.474-0.209-0.905-0.252-1.321c-0.046-0.411-0.089-0.788-0.125-1.122
				c-0.027-0.333-0.015-0.63-0.021-0.867c-0.004-0.476-0.006-0.746-0.006-0.746s0.065,0.263,0.185,0.723
				c0.063,0.229,0.116,0.508,0.222,0.817c0.112,0.305,0.239,0.649,0.379,1.025c0.133,0.373,0.351,0.757,0.535,1.167
				c0.178,0.414,0.45,0.818,0.688,1.245c0.229,0.432,0.551,0.84,0.828,1.27c0.289,0.424,0.627,0.83,0.938,1.245
				c0.67,0.804,1.36,1.58,2.061,2.262c0.682,0.693,1.367,1.289,1.953,1.792c0.594,0.495,1.099,0.89,1.451,1.146
				c0.182,0.136,0.313,0.224,0.396,0.281c0.098,0.067,0.148,0.104,0.148,0.104L144.036,82.789z"/>
		</g>
	</g>
	<g>
		<g>
			<defs>
				<path id="SVGID_21_" d="M120.629,8.128L55.125,45.949c-3.413,1.969-6.204,6.804-6.204,10.743v75.641
					c0,3.938,2.791,8.774,6.204,10.744l65.504,37.817c1.752,1.013,4.078,1.498,6.387,1.475c2.188-0.027,4.36-0.518,6.021-1.475
					l65.507-37.817c3.41-1.97,6.201-6.807,6.201-10.744V56.692c0-3.939-2.791-8.774-6.201-10.743L133.037,8.128
					c-1.66-0.958-3.833-1.446-6.021-1.472c-0.061-0.001-0.117-0.001-0.18-0.001C124.587,6.655,122.336,7.143,120.629,8.128"/>
			</defs>
			<clipPath id="SVGID_22_">
				<use xlink:href="#SVGID_21_"  overflow="visible"/>
			</clipPath>
			<path clip-path="url(#SVGID_22_)" fill="#020202" d="M105.68,99.403c0,0,0.092-0.011,0.266-0.029
				c0.184-0.024,0.455-0.062,0.799-0.108c0.697-0.104,1.701-0.275,2.896-0.551c2.385-0.541,5.555-1.492,8.396-3.087
				c0.696-0.409,1.392-0.838,2.021-1.325c0.646-0.47,1.217-1.004,1.749-1.547c0.264-0.271,0.488-0.566,0.731-0.844
				c0.206-0.299,0.427-0.585,0.61-0.881c0.365-0.597,0.656-1.195,0.875-1.773c0.098-0.295,0.189-0.578,0.277-0.846
				c0.059-0.279,0.114-0.542,0.167-0.79c0.101-0.5,0.11-0.948,0.159-1.317c-0.003-0.742-0.005-1.167-0.005-1.167
				s0.067,0.423,0.185,1.162c0.008,0.373,0.068,0.833,0.045,1.36c-0.014,0.265-0.029,0.548-0.047,0.845
				c-0.048,0.296-0.098,0.607-0.15,0.932c-0.137,0.646-0.346,1.337-0.644,2.044c-0.151,0.351-0.339,0.696-0.517,1.06
				c-0.213,0.339-0.415,0.704-0.656,1.046c-0.484,0.683-1.025,1.37-1.648,1.99c-0.606,0.642-1.285,1.221-1.979,1.786
				c-2.813,2.209-6.045,3.748-8.511,4.726c-1.236,0.492-2.29,0.847-3.041,1.081c-0.381,0.114-0.68,0.203-0.885,0.264
				c-0.217,0.06-0.334,0.091-0.334,0.091L105.68,99.403z"/>
		</g>
	</g>
	<g>
		<g>
			<defs>
				<path id="SVGID_23_" d="M120.629,8.128L55.125,45.949c-3.413,1.969-6.204,6.804-6.204,10.743v75.641
					c0,3.938,2.791,8.774,6.204,10.744l65.504,37.817c1.752,1.013,4.078,1.498,6.387,1.475c2.188-0.027,4.36-0.518,6.021-1.475
					l65.507-37.817c3.41-1.97,6.201-6.807,6.201-10.744V56.692c0-3.939-2.791-8.774-6.201-10.743L133.037,8.128
					c-1.66-0.958-3.833-1.446-6.021-1.472c-0.061-0.001-0.117-0.001-0.18-0.001C124.587,6.655,122.336,7.143,120.629,8.128"/>
			</defs>
			<clipPath id="SVGID_24_">
				<use xlink:href="#SVGID_23_"  overflow="visible"/>
			</clipPath>
			<polygon clip-path="url(#SVGID_24_)" fill="#020202" points="144.457,84.725 137.588,89.196 141.352,81.915 			"/>
		</g>
	</g>
	<g>
		<g>
			<defs>
				<path id="SVGID_25_" d="M120.629,8.128L55.125,45.949c-3.413,1.969-6.204,6.804-6.204,10.743v75.641
					c0,3.938,2.791,8.774,6.204,10.744l65.504,37.817c1.752,1.013,4.078,1.498,6.387,1.475c2.188-0.027,4.36-0.518,6.021-1.475
					l65.507-37.817c3.41-1.97,6.201-6.807,6.201-10.744V56.692c0-3.939-2.791-8.774-6.201-10.743L133.037,8.128
					c-1.66-0.958-3.833-1.446-6.021-1.472c-0.061-0.001-0.117-0.001-0.18-0.001C124.587,6.655,122.336,7.143,120.629,8.128"/>
			</defs>
			<clipPath id="SVGID_26_">
				<use xlink:href="#SVGID_25_"  overflow="visible"/>
			</clipPath>
			<path clip-path="url(#SVGID_26_)" fill="#020202" d="M94.772,147.973l36.617,15.642l10.118,11.96c0,0-20.056,10.672-20.976,11.04
				c-0.92,0.368-17.479-0.736-17.479-0.736l-22.816-28.151L94.772,147.973z"/>
		</g>
	</g>
	<g>
		<g>
			<defs>
				<path id="SVGID_27_" d="M120.629,8.128L55.125,45.949c-3.413,1.969-6.204,6.804-6.204,10.743v75.641
					c0,3.938,2.791,8.774,6.204,10.744l65.504,37.817c1.752,1.013,4.078,1.498,6.387,1.475c2.188-0.027,4.36-0.518,6.021-1.475
					l65.507-37.817c3.41-1.97,6.201-6.807,6.201-10.744V56.692c0-3.939-2.791-8.774-6.201-10.743L133.037,8.128
					c-1.66-0.958-3.833-1.446-6.021-1.472c-0.061-0.001-0.117-0.001-0.18-0.001C124.587,6.655,122.336,7.143,120.629,8.128"/>
			</defs>
			<clipPath id="SVGID_28_">
				<use xlink:href="#SVGID_27_"  overflow="visible"/>
			</clipPath>
			<path clip-path="url(#SVGID_28_)" fill="#020202" d="M85.912,104.498c0,0,0.063-0.162,0.174-0.445
				c0.107-0.295,0.262-0.727,0.42-1.254c0.165-0.528,0.332-1.149,0.488-1.825c0.152-0.675,0.281-1.398,0.359-2.127
				c0.021-0.357,0.08-0.733,0.066-1.084c0.005-0.357,0.009-0.714-0.037-1.045c-0.018-0.347-0.081-0.66-0.159-0.96
				c-0.05-0.316-0.182-0.566-0.284-0.824c-0.086-0.271-0.259-0.445-0.381-0.641c-0.119-0.203-0.264-0.337-0.396-0.438
				c-0.259-0.221-0.407-0.348-0.407-0.348s0.184,0.071,0.505,0.196c0.17,0.059,0.37,0.145,0.562,0.306
				c0.193,0.151,0.463,0.298,0.651,0.545c0.206,0.232,0.462,0.486,0.634,0.799c0.203,0.305,0.4,0.639,0.549,1
				c0.182,0.359,0.313,0.74,0.445,1.134c0.149,0.395,0.227,0.795,0.34,1.204c0.19,0.812,0.324,1.635,0.412,2.407
				c0.086,0.771,0.141,1.497,0.161,2.119c0.028,0.624,0.025,1.146,0.021,1.519c-0.012,0.381-0.02,0.599-0.02,0.599L85.912,104.498z"
				/>
		</g>
	</g>
	<g>
		<g>
			<defs>
				<path id="SVGID_29_" d="M120.629,8.128L55.125,45.949c-3.413,1.969-6.204,6.804-6.204,10.743v75.641
					c0,3.938,2.791,8.774,6.204,10.744l65.504,37.817c1.752,1.013,4.078,1.498,6.387,1.475c2.188-0.027,4.36-0.518,6.021-1.475
					l65.507-37.817c3.41-1.97,6.201-6.807,6.201-10.744V56.692c0-3.939-2.791-8.774-6.201-10.743L133.037,8.128
					c-1.66-0.958-3.833-1.446-6.021-1.472c-0.061-0.001-0.117-0.001-0.18-0.001C124.587,6.655,122.336,7.143,120.629,8.128"/>
			</defs>
			<clipPath id="SVGID_30_">
				<use xlink:href="#SVGID_29_"  overflow="visible"/>
			</clipPath>
			<rect x="53.542" y="101.701" clip-path="url(#SVGID_30_)" fill="#8CD6EE" width="145.834" height="37.314"/>
		</g>
	</g>
	<g>
		<g>
			<defs>
				<path id="SVGID_31_" d="M120.629,8.128L55.125,45.949c-3.413,1.969-6.204,6.804-6.204,10.743v75.641
					c0,3.938,2.791,8.774,6.204,10.744l65.504,37.817c1.752,1.013,4.078,1.498,6.387,1.475c2.188-0.027,4.36-0.518,6.021-1.475
					l65.507-37.817c3.41-1.97,6.201-6.807,6.201-10.744V56.692c0-3.939-2.791-8.774-6.201-10.743L133.037,8.128
					c-1.66-0.958-3.833-1.446-6.021-1.472c-0.061-0.001-0.117-0.001-0.18-0.001C124.587,6.655,122.336,7.143,120.629,8.128"/>
			</defs>
			<clipPath id="SVGID_32_">
				<use xlink:href="#SVGID_31_"  overflow="visible"/>
			</clipPath>
			<rect x="52.41" y="131.262" clip-path="url(#SVGID_32_)" fill="#FFFFFF" width="147.66" height="7.906"/>
		</g>
	</g>
	<g>
		<g>
			<defs>
				<path id="SVGID_33_" d="M120.629,8.128L55.125,45.949c-3.413,1.969-6.204,6.804-6.204,10.743v75.641
					c0,3.938,2.791,8.774,6.204,10.744l65.504,37.817c1.752,1.013,4.078,1.498,6.387,1.475c2.188-0.027,4.36-0.518,6.021-1.475
					l65.507-37.817c3.41-1.97,6.201-6.807,6.201-10.744V56.692c0-3.939-2.791-8.774-6.201-10.743L133.037,8.128
					c-1.66-0.958-3.833-1.446-6.021-1.472c-0.061-0.001-0.117-0.001-0.18-0.001C124.587,6.655,122.336,7.143,120.629,8.128"/>
			</defs>
			<clipPath id="SVGID_34_">
				<use xlink:href="#SVGID_33_"  overflow="visible"/>
			</clipPath>
			<rect x="52.962" y="101.355" clip-path="url(#SVGID_34_)" fill="#FFFFFF" width="147.108" height="7.905"/>
		</g>
	</g>
	<g>
		<g>
			<defs>
				<path id="SVGID_35_" d="M120.629,8.128L55.125,45.949c-3.413,1.969-6.204,6.804-6.204,10.743v75.641
					c0,3.938,2.791,8.774,6.204,10.744l65.504,37.817c1.752,1.013,4.078,1.498,6.387,1.475c2.188-0.027,4.36-0.518,6.021-1.475
					l65.507-37.817c3.41-1.97,6.201-6.807,6.201-10.744V56.692c0-3.939-2.791-8.774-6.201-10.743L133.037,8.128
					c-1.66-0.958-3.833-1.446-6.021-1.472c-0.061-0.001-0.117-0.001-0.18-0.001C124.587,6.655,122.336,7.143,120.629,8.128"/>
			</defs>
			<clipPath id="SVGID_36_">
				<use xlink:href="#SVGID_35_"  overflow="visible"/>
			</clipPath>
			<path clip-path="url(#SVGID_36_)" fill="#231F20" d="M201.84,141.482H51.078V99.235H201.84V141.482z M56.006,136.554h140.906
				v-32.389H56.006V136.554z"/>
		</g>
	</g>
</g>
<polygon fill="#020202" points="83.553,126.659 83.553,117.775 81.326,120.021 79.379,117.975 84.009,113.403 86.971,113.403 
	86.971,126.659 "/>
<path fill="#020202" d="M88.48,124.813l1.729-2.325c0.974,0.934,2.464,1.391,3.617,1.391c1.471,0,2.226-0.556,2.226-1.291
	c0-0.756-0.556-1.134-2.365-1.134c-0.575,0-1.59,0.021-1.788,0.04v-3.041c0.258,0.021,1.291,0.021,1.788,0.021
	c1.372,0,2.147-0.339,2.147-1.032c0-0.835-0.955-1.212-2.227-1.212c-1.213,0-2.365,0.437-3.299,1.271l-1.65-2.146
	c1.133-1.253,2.862-2.146,5.307-2.146c3.379,0,5.268,1.45,5.268,3.637c0,1.551-1.332,2.724-2.902,2.981
	c1.41,0.14,3.119,1.231,3.119,3.14c0,2.325-2.185,3.937-5.484,3.937C91.421,126.898,89.533,126.004,88.48,124.813"/>
<path fill="#020202" d="M100.92,125.01c0-0.994,0.875-1.848,1.888-1.848c1.013,0,1.868,0.854,1.868,1.848
	c0,1.016-0.855,1.868-1.868,1.868C101.795,126.878,100.92,126.024,100.92,125.01"/>
<polygon fill="#020202" points="107.577,126.659 107.577,117.775 105.352,120.021 103.404,117.975 108.035,113.403 110.995,113.403 
	110.995,126.659 "/>
<polygon fill="#020202" points="130.094,126.659 130.094,117.896 126.754,126.659 125.243,126.659 121.885,117.896 121.885,126.659 
	118.467,126.659 118.467,113.403 123.217,113.403 125.999,120.718 128.762,113.403 133.512,113.403 133.512,126.659 "/>
<rect x="135.895" y="113.404" fill="#020202" width="3.418" height="13.256"/>
<polygon fill="#020202" points="141.639,126.659 141.639,113.403 145.057,113.403 145.057,123.679 150.381,123.679 150.381,126.659 
	"/>
<polygon fill="#020202" points="152.13,126.659 152.13,113.403 161.848,113.403 161.848,116.385 155.548,116.385 155.548,118.451 
	161.709,118.451 161.709,121.433 155.548,121.433 155.548,123.679 161.848,123.679 161.848,126.659 "/>
<path fill="#020202" d="M162.881,124.791l1.809-2.662c0.953,0.953,2.426,1.749,4.254,1.749c1.15,0,1.867-0.397,1.867-1.054
	c0-1.75-7.492-0.299-7.492-5.405c0-2.227,1.867-4.214,5.268-4.214c2.126,0,3.975,0.636,5.385,1.849l-1.865,2.563
	c-1.113-0.936-2.563-1.393-3.875-1.393c-0.994,0-1.434,0.339-1.434,0.914c0,1.63,7.493,0.397,7.493,5.327
	c0,2.663-1.968,4.432-5.524,4.432C166.08,126.897,164.212,126.044,162.881,124.791"/>
<path fill="#1A1A19" d="M126.832,14.936l0.086,0.001c1.123,0.013,1.822,0.273,1.979,0.363l65.506,37.82
	c0.849,0.49,2.063,2.593,2.063,3.573v75.64c0,0.98-1.215,3.083-2.063,3.573l-65.506,37.818c-0.155,0.092-0.854,0.352-1.978,0.364
	h-0.088c-1.168,0-1.897-0.27-2.063-0.364l-65.505-37.818c-0.848-0.49-2.063-2.593-2.063-3.573v-75.64
	c0-0.98,1.215-3.083,2.063-3.573l65.505-37.82C124.934,15.205,125.664,14.936,126.832,14.936 M126.832,6.655
	c-2.248,0-4.496,0.489-6.202,1.473l-65.506,37.82c-3.412,1.97-6.203,6.805-6.203,10.744v75.64c0,3.938,2.791,8.773,6.203,10.744
	l65.506,37.818c1.706,0.984,3.954,1.475,6.202,1.475c0.063,0,0.123,0,0.184-0.001c2.188-0.026,4.36-0.516,6.021-1.474l65.507-37.818
	c3.411-1.972,6.202-6.806,6.202-10.744v-75.64c0-3.939-2.791-8.774-6.202-10.745l-65.507-37.82
	c-1.659-0.958-3.832-1.446-6.021-1.472C126.955,6.655,126.893,6.655,126.832,6.655"/>
</svg>
