<?xml version="1.0" encoding="utf-8"?>
<!-- Generator: Adobe Illustrator 16.0.0, SVG Export Plug-In . SVG Version: 6.00 Build 0)  -->
<!DOCTYPE svg PUBLIC "-//W3C//DTD SVG 1.1//EN" "http://www.w3.org/Graphics/SVG/1.1/DTD/svg11.dtd">
<svg version="1.1" id="Layer_1" xmlns="http://www.w3.org/2000/svg" xmlns:xlink="http://www.w3.org/1999/xlink" x="0px" y="0px"
	 width="240px" height="195px" viewBox="0 0 240 195" enable-background="new 0 0 240 195" xml:space="preserve">
<path fill="none" d="M78.63-2257.76"/>
<path fill="none" d="M78.63,987.837"/>
<path fill="none" d="M51.764,1616.837"/>
<path fill="none" d="M51.764-1628.76"/>
<path fill="#F47F53" d="M58.623,138.013l62.145,35.878c1.66,0.96,3.865,1.425,6.059,1.396c2.074-0.024,4.137-0.487,5.711-1.396
	l62.143-35.878c3.237-1.869,5.887-6.455,5.887-10.19V56.065c0-3.737-2.647-8.323-5.887-10.192L132.537,9.995
	c-1.574-0.909-3.637-1.372-5.711-1.396c-2.191-0.026-4.396,0.437-6.059,1.396L58.623,45.873c-3.236,1.869-5.885,6.455-5.885,10.192
	v71.757C52.738,131.558,55.387,136.144,58.623,138.013"/>
<path fill="#E95E29" d="M194.154,138.013c3.234-1.869,5.885-6.455,5.885-10.19V56.065c0-3.737-2.648-8.323-5.885-10.192
	L132.01,9.995c-1.458-0.842-3.335-1.296-5.252-1.379v166.656c1.917-0.084,3.794-0.538,5.252-1.382L194.154,138.013z"/>
<g opacity="0.4">
	<g>
		<g>
			<g>
				<defs>
					<rect id="SVGID_1_" x="48.74" y="4.08" width="155.818" height="175.72"/>
				</defs>
				<clipPath id="SVGID_2_">
					<use xlink:href="#SVGID_1_"  overflow="visible"/>
				</clipPath>
				<path clip-path="url(#SVGID_2_)" fill="#FFFFFF" d="M126.65,19.505l62.73,36.219v72.438l-62.73,36.219l-62.731-36.218V55.724
					L126.65,19.505 M126.648,4.085c-2.248,0-4.496,0.489-6.202,1.473l-65.506,37.82c-3.412,1.97-6.203,6.805-6.203,10.744v75.64
					c0,3.94,2.791,8.774,6.203,10.744l65.506,37.82c1.706,0.982,3.954,1.473,6.202,1.473c0.063,0,0.123,0,0.185-0.001
					c2.187-0.026,4.36-0.514,6.021-1.472l65.508-37.82c3.41-1.97,6.201-6.804,6.201-10.744v-75.64c0-3.939-2.789-8.774-6.201-10.744
					l-65.508-37.82c-1.658-0.958-3.834-1.446-6.021-1.472C126.771,4.085,126.71,4.085,126.648,4.085"/>
			</g>
		</g>
	</g>
</g>
<path fill="#1A1A19" d="M126.648,12.365h0.086c1.125,0.014,1.822,0.273,1.979,0.363l65.508,37.82c0.85,0.49,2.063,2.593,2.063,3.573
	v75.64c0,0.98-1.214,3.083-2.063,3.573l-65.506,37.819c-0.156,0.091-0.854,0.351-1.977,0.362h-0.088
	c-1.17,0-1.897-0.269-2.063-0.362l-65.507-37.819c-0.848-0.49-2.063-2.593-2.063-3.573v-75.64c0-0.98,1.215-3.083,2.063-3.573
	l65.507-37.82C124.751,12.635,125.48,12.365,126.648,12.365 M126.648,4.085c-2.248,0-4.496,0.489-6.202,1.473l-65.506,37.82
	c-3.412,1.97-6.203,6.805-6.203,10.744v75.64c0,3.94,2.791,8.774,6.203,10.744l65.506,37.82c1.706,0.982,3.954,1.473,6.202,1.473
	c0.063,0,0.123,0,0.185-0.001c2.187-0.026,4.36-0.514,6.021-1.472l65.508-37.82c3.41-1.97,6.201-6.804,6.201-10.744v-75.64
	c0-3.939-2.789-8.774-6.201-10.744l-65.508-37.82c-1.658-0.958-3.834-1.446-6.021-1.472C126.771,4.085,126.71,4.085,126.648,4.085"
	/>
<g>
	<g>
		<g>
			<defs>
				<path id="SVGID_3_" d="M120.448,5.558l-65.507,37.82c-3.412,1.97-6.203,6.805-6.203,10.744v75.639
					c0,3.941,2.791,8.774,6.203,10.744l65.507,37.82c1.752,1.013,4.075,1.501,6.385,1.474c2.187-0.025,4.358-0.514,6.021-1.474
					l65.508-37.82c3.41-1.97,6.201-6.803,6.201-10.744V54.122c0-3.939-2.789-8.774-6.201-10.744l-65.508-37.82
					c-1.66-0.957-3.834-1.444-6.021-1.472c-0.063-0.001-0.127-0.001-0.19-0.001C124.396,4.085,122.152,4.575,120.448,5.558"/>
			</defs>
			<clipPath id="SVGID_4_">
				<use xlink:href="#SVGID_3_"  overflow="visible"/>
			</clipPath>
			<path clip-path="url(#SVGID_4_)" fill="#FFFFFF" d="M125.832,58.03c0-4.603-3.732-8.333-8.334-8.333
				c-0.541,0-1.07,0.054-1.582,0.15c-1.76-4.521-6.152-7.727-11.297-7.727c-5.088,0-9.441,3.136-11.238,7.579
				c-0.041-0.002-0.084-0.004-0.125-0.004c-3.265,0-6.088,1.877-7.455,4.608c-0.287-0.041-0.58-0.063-0.879-0.063
				c-3.348,0-6.061,2.715-6.061,6.062c0,3.348,2.713,6.061,6.061,6.061h33.334v-0.034C122.502,65.945,125.832,62.378,125.832,58.03"
				/>
		</g>
	</g>
	<g>
		<g>
			<defs>
				<path id="SVGID_5_" d="M120.448,5.558l-65.507,37.82c-3.412,1.97-6.203,6.805-6.203,10.744v75.639
					c0,3.941,2.791,8.774,6.203,10.744l65.507,37.82c1.752,1.013,4.075,1.501,6.385,1.474c2.187-0.025,4.358-0.514,6.021-1.474
					l65.508-37.82c3.41-1.97,6.201-6.803,6.201-10.744V54.122c0-3.939-2.789-8.774-6.201-10.744l-65.508-37.82
					c-1.66-0.957-3.834-1.444-6.021-1.472c-0.063-0.001-0.127-0.001-0.19-0.001C124.396,4.085,122.152,4.575,120.448,5.558"/>
			</defs>
			<clipPath id="SVGID_6_">
				<use xlink:href="#SVGID_5_"  overflow="visible"/>
			</clipPath>
			<path clip-path="url(#SVGID_6_)" fill="#FFFFFF" d="M128.174,159.741L12.643,139.524L95.332,56.68
				c1.695-2.125,4.406-3.588,7.117-3.853l16.449-3.992l34.045,3.961c2.854,0.137,5.771,1.64,7.559,3.878l41.635,41.522
				l37.536,47.426l-81.774,2.832L128.174,159.741z M36.586,131.946l90.449,15.828l28.541-10.841l60.771-2.103l-22.88-28.908
				l-41.708-41.595l-32.142-3.74l-15.588,3.783l-0.209,0.212L36.586,131.946z"/>
		</g>
	</g>
	<g>
		<g>
			<defs>
				<path id="SVGID_7_" d="M120.448,5.558l-65.507,37.82c-3.412,1.97-6.203,6.805-6.203,10.744v75.639
					c0,3.941,2.791,8.774,6.203,10.744l65.507,37.82c1.752,1.013,4.075,1.501,6.385,1.474c2.187-0.025,4.358-0.514,6.021-1.474
					l65.508-37.82c3.41-1.97,6.201-6.803,6.201-10.744V54.122c0-3.939-2.789-8.774-6.201-10.744l-65.508-37.82
					c-1.66-0.957-3.834-1.444-6.021-1.472c-0.063-0.001-0.127-0.001-0.19-0.001C124.396,4.085,122.152,4.575,120.448,5.558"/>
			</defs>
			<clipPath id="SVGID_8_">
				<use xlink:href="#SVGID_7_"  overflow="visible"/>
			</clipPath>
			<polygon clip-path="url(#SVGID_8_)" fill="#EBB220" points="197.803,102.061 169.898,74.231 148.286,66.59 127.645,68.524 
				111.734,66.16 101.197,68.956 94.113,65.855 21.854,141.256 127.604,153.758 156.738,142.695 228.011,140.228 			"/>
		</g>
	</g>
	<g>
		<g>
			<defs>
				<path id="SVGID_9_" d="M120.448,5.558l-65.507,37.82c-3.412,1.97-6.203,6.805-6.203,10.744v75.639
					c0,3.941,2.791,8.774,6.203,10.744l65.507,37.82c1.752,1.013,4.075,1.501,6.385,1.474c2.187-0.025,4.358-0.514,6.021-1.474
					l65.508-37.82c3.41-1.97,6.201-6.803,6.201-10.744V54.122c0-3.939-2.789-8.774-6.201-10.744l-65.508-37.82
					c-1.66-0.957-3.834-1.444-6.021-1.472c-0.063-0.001-0.127-0.001-0.19-0.001C124.396,4.085,122.152,4.575,120.448,5.558"/>
			</defs>
			<clipPath id="SVGID_10_">
				<use xlink:href="#SVGID_9_"  overflow="visible"/>
			</clipPath>
			<path clip-path="url(#SVGID_10_)" fill="#FFFFFF" d="M114.734,79.361l14.523,4.79l18.322-3.911l10.012,2.911l14.445-2.724
				l9,0.583L156.118,60.49c-0.716-1.056-2.326-1.908-3.603-1.908l-33.26-3.87l-15.94,3.87c-1.273,0-2.885,0.854-3.6,1.908
				L79.061,76.907l-0.694,2.354l7.556-0.443l10.31-2.749l7.401,4.217L114.734,79.361z"/>
		</g>
	</g>
	<g>
		<g>
			<defs>
				<path id="SVGID_11_" d="M120.448,5.558l-65.507,37.82c-3.412,1.97-6.203,6.805-6.203,10.744v75.639
					c0,3.941,2.791,8.774,6.203,10.744l65.507,37.82c1.752,1.013,4.075,1.501,6.385,1.474c2.187-0.025,4.358-0.514,6.021-1.474
					l65.508-37.82c3.41-1.97,6.201-6.803,6.201-10.744V54.122c0-3.939-2.789-8.774-6.201-10.744l-65.508-37.82
					c-1.66-0.957-3.834-1.444-6.021-1.472c-0.063-0.001-0.127-0.001-0.19-0.001C124.396,4.085,122.152,4.575,120.448,5.558"/>
			</defs>
			<clipPath id="SVGID_12_">
				<use xlink:href="#SVGID_11_"  overflow="visible"/>
			</clipPath>
			<polygon clip-path="url(#SVGID_12_)" fill="#1A1A19" points="154.557,57.178 150.057,57.942 156.678,69.594 157.482,79.136 
				158.27,69.193 			"/>
		</g>
	</g>
	<g>
		<g>
			<defs>
				<path id="SVGID_13_" d="M120.448,5.558l-65.507,37.82c-3.412,1.97-6.203,6.805-6.203,10.744v75.639
					c0,3.941,2.791,8.774,6.203,10.744l65.507,37.82c1.752,1.013,4.075,1.501,6.385,1.474c2.187-0.025,4.358-0.514,6.021-1.474
					l65.508-37.82c3.41-1.97,6.201-6.803,6.201-10.744V54.122c0-3.939-2.789-8.774-6.201-10.744l-65.508-37.82
					c-1.66-0.957-3.834-1.444-6.021-1.472c-0.063-0.001-0.127-0.001-0.19-0.001C124.396,4.085,122.152,4.575,120.448,5.558"/>
			</defs>
			<clipPath id="SVGID_14_">
				<use xlink:href="#SVGID_13_"  overflow="visible"/>
			</clipPath>
			<polygon clip-path="url(#SVGID_14_)" fill="#1A1A19" points="123.891,56.289 128.305,57.334 126.1,68.535 116.686,77.998 
				123.449,68.037 			"/>
		</g>
	</g>
	<g>
		<g>
			<defs>
				<path id="SVGID_15_" d="M120.448,5.558l-65.507,37.82c-3.412,1.97-6.203,6.805-6.203,10.744v75.639
					c0,3.941,2.791,8.774,6.203,10.744l65.507,37.82c1.752,1.013,4.075,1.501,6.385,1.474c2.187-0.025,4.358-0.514,6.021-1.474
					l65.508-37.82c3.41-1.97,6.201-6.803,6.201-10.744V54.122c0-3.939-2.789-8.774-6.201-10.744l-65.508-37.82
					c-1.66-0.957-3.834-1.444-6.021-1.472c-0.063-0.001-0.127-0.001-0.19-0.001C124.396,4.085,122.152,4.575,120.448,5.558"/>
			</defs>
			<clipPath id="SVGID_16_">
				<use xlink:href="#SVGID_15_"  overflow="visible"/>
			</clipPath>
			<polygon clip-path="url(#SVGID_16_)" fill="#1A1A19" points="140.818,56.034 136.254,56.483 141.619,68.553 142.162,76.426 
				144.248,67.266 			"/>
		</g>
	</g>
	<g>
		<g>
			<defs>
				<path id="SVGID_17_" d="M120.448,5.558l-65.507,37.82c-3.412,1.97-6.203,6.805-6.203,10.744v75.639
					c0,3.941,2.791,8.774,6.203,10.744l65.507,37.82c1.752,1.013,4.075,1.501,6.385,1.474c2.187-0.025,4.358-0.514,6.021-1.474
					l65.508-37.82c3.41-1.97,6.201-6.803,6.201-10.744V54.122c0-3.939-2.789-8.774-6.201-10.744l-65.508-37.82
					c-1.66-0.957-3.834-1.444-6.021-1.472c-0.063-0.001-0.127-0.001-0.19-0.001C124.396,4.085,122.152,4.575,120.448,5.558"/>
			</defs>
			<clipPath id="SVGID_18_">
				<use xlink:href="#SVGID_17_"  overflow="visible"/>
			</clipPath>
			<polygon clip-path="url(#SVGID_18_)" fill="#1A1A19" points="110.388,56.79 101.424,72.65 116.406,56.564 			"/>
		</g>
	</g>
	<g>
		<g>
			<defs>
				<path id="SVGID_19_" d="M120.448,5.558l-65.507,37.82c-3.412,1.97-6.203,6.805-6.203,10.744v75.639
					c0,3.941,2.791,8.774,6.203,10.744l65.507,37.82c1.752,1.013,4.075,1.501,6.385,1.474c2.187-0.025,4.358-0.514,6.021-1.474
					l65.508-37.82c3.41-1.97,6.201-6.803,6.201-10.744V54.122c0-3.939-2.789-8.774-6.201-10.744l-65.508-37.82
					c-1.66-0.957-3.834-1.444-6.021-1.472c-0.063-0.001-0.127-0.001-0.19-0.001C124.396,4.085,122.152,4.575,120.448,5.558"/>
			</defs>
			<clipPath id="SVGID_20_">
				<use xlink:href="#SVGID_19_"  overflow="visible"/>
			</clipPath>
			<path clip-path="url(#SVGID_20_)" fill="#1A1A19" d="M127.809,155.896L20.338,137.088l77.797-77.941
				c1.089-1.462,3.078-2.526,4.904-2.627l16.09-3.906l33.525,3.899c1.863,0.052,3.93,1.133,5.047,2.632l41.725,41.633l32.75,41.377
				l-75.023,2.598L127.809,155.896z M28.89,134.382l98.512,17.239l28.922-10.982l67.521-2.338l-27.592-34.858l-41.735-41.625
				l-0.11-0.164c-0.33-0.486-1.3-0.999-1.888-0.999l-0.238-0.016l-32.894-3.827l-15.819,3.843h-0.248
				c-0.587,0-1.558,0.513-1.887,0.999l-0.248,0.299L28.89,134.382z"/>
		</g>
	</g>
	<g>
		<g>
			<defs>
				<path id="SVGID_21_" d="M120.448,5.558l-65.507,37.82c-3.412,1.97-6.203,6.805-6.203,10.744v75.639
					c0,3.941,2.791,8.774,6.203,10.744l65.507,37.82c1.752,1.013,4.075,1.501,6.385,1.474c2.187-0.025,4.358-0.514,6.021-1.474
					l65.508-37.82c3.41-1.97,6.201-6.803,6.201-10.744V54.122c0-3.939-2.789-8.774-6.201-10.744l-65.508-37.82
					c-1.66-0.957-3.834-1.444-6.021-1.472c-0.063-0.001-0.127-0.001-0.19-0.001C124.396,4.085,122.152,4.575,120.448,5.558"/>
			</defs>
			<clipPath id="SVGID_22_">
				<use xlink:href="#SVGID_21_"  overflow="visible"/>
			</clipPath>
			<path clip-path="url(#SVGID_22_)" fill="#FFFFFF" d="M215.821,54.597c0-4.276-3.468-7.745-7.746-7.745
				c-0.503,0-0.994,0.051-1.472,0.142c-1.637-4.203-5.721-7.185-10.5-7.185c-4.729,0-8.774,2.916-10.445,7.047
				c-0.039-0.002-0.077-0.004-0.117-0.004c-3.033,0-5.658,1.744-6.93,4.284c-0.268-0.039-0.538-0.06-0.815-0.06
				c-3.112,0-5.634,2.521-5.634,5.634c0,3.111,2.521,5.633,5.634,5.633h30.983v-0.032C212.727,61.954,215.821,58.637,215.821,54.597
				"/>
		</g>
	</g>
	<g>
		<g>
			<defs>
				<path id="SVGID_23_" d="M120.448,5.558l-65.507,37.82c-3.412,1.97-6.203,6.805-6.203,10.744v75.639
					c0,3.941,2.791,8.774,6.203,10.744l65.507,37.82c1.752,1.013,4.075,1.501,6.385,1.474c2.187-0.025,4.358-0.514,6.021-1.474
					l65.508-37.82c3.41-1.97,6.201-6.803,6.201-10.744V54.122c0-3.939-2.789-8.774-6.201-10.744l-65.508-37.82
					c-1.66-0.957-3.834-1.444-6.021-1.472c-0.063-0.001-0.127-0.001-0.19-0.001C124.396,4.085,122.152,4.575,120.448,5.558"/>
			</defs>
			<clipPath id="SVGID_24_">
				<use xlink:href="#SVGID_23_"  overflow="visible"/>
			</clipPath>
			<rect x="26.986" y="136.598" clip-path="url(#SVGID_24_)" fill="#9A9836" width="192.334" height="58.715"/>
		</g>
	</g>
	<g>
		<g>
			<defs>
				<path id="SVGID_25_" d="M120.448,5.558l-65.507,37.82c-3.412,1.97-6.203,6.805-6.203,10.744v75.639
					c0,3.941,2.791,8.774,6.203,10.744l65.507,37.82c1.752,1.013,4.075,1.501,6.385,1.474c2.187-0.025,4.358-0.514,6.021-1.474
					l65.508-37.82c3.41-1.97,6.201-6.803,6.201-10.744V54.122c0-3.939-2.789-8.774-6.201-10.744l-65.508-37.82
					c-1.66-0.957-3.834-1.444-6.021-1.472c-0.063-0.001-0.127-0.001-0.19-0.001C124.396,4.085,122.152,4.575,120.448,5.558"/>
			</defs>
			<clipPath id="SVGID_26_">
				<use xlink:href="#SVGID_25_"  overflow="visible"/>
			</clipPath>
			<g clip-path="url(#SVGID_26_)">
				<g>
					<g opacity="0.4">
						<g>
							<defs>
								<rect id="SVGID_27_" x="19.5" y="112.73" width="201.311" height="35.108"/>
							</defs>
							<clipPath id="SVGID_28_">
								<use xlink:href="#SVGID_27_"  overflow="visible"/>
							</clipPath>
							<rect x="19.499" y="112.73" clip-path="url(#SVGID_28_)" fill="#194A98" width="201.312" height="35.107"/>
						</g>
					</g>
					<g>
						<g>
							<defs>
								<path id="SVGID_29_" d="M120.448,5.558l-65.507,37.82c-3.412,1.97-6.203,6.805-6.203,10.744v75.639
									c0,3.941,2.791,8.774,6.203,10.744l65.507,37.82c1.752,1.013,4.075,1.501,6.385,1.474c2.187-0.025,4.358-0.514,6.021-1.474
									l65.508-37.82c3.41-1.97,6.201-6.803,6.201-10.744V54.122c0-3.939-2.789-8.774-6.201-10.744l-65.508-37.82
									c-1.66-0.957-3.834-1.444-6.021-1.472c-0.063-0.001-0.127-0.001-0.19-0.001C124.396,4.085,122.152,4.575,120.448,5.558"/>
							</defs>
							<clipPath id="SVGID_30_">
								<use xlink:href="#SVGID_29_"  overflow="visible"/>
							</clipPath>
							<rect x="-25.014" y="133.636" clip-path="url(#SVGID_30_)" fill="#1A1A19" width="290.334" height="2.979"/>
						</g>
						<g>
							<g>
								<defs>
									<path id="SVGID_31_" d="M120.448,5.558l-65.507,37.82c-3.412,1.97-6.203,6.805-6.203,10.744v75.639
										c0,3.941,2.791,8.774,6.203,10.744l65.507,37.82c1.752,1.013,4.075,1.501,6.385,1.474c2.187-0.025,4.358-0.514,6.021-1.474
										l65.508-37.82c3.41-1.97,6.201-6.803,6.201-10.744V54.122c0-3.939-2.789-8.774-6.201-10.744l-65.508-37.82
										c-1.66-0.957-3.834-1.444-6.021-1.472c-0.063-0.001-0.127-0.001-0.19-0.001C124.396,4.085,122.152,4.575,120.448,5.558"/>
								</defs>
								<clipPath id="SVGID_32_">
									<use xlink:href="#SVGID_31_"  overflow="visible"/>
								</clipPath>
								<path clip-path="url(#SVGID_32_)" fill="#1A1918" d="M42.3,116.521c0,0.098,0.008,0.193,0.015,0.291h5.524h7.354v4.23
									c0,1.401,0.822,3.12,1.914,3.998l6.553,5.271v2.696v1.841h2.576v-1.841v-3.931v-3.063c0-0.638,0.463-1.627,0.951-2.037
									l8.534-7.163h2.578h9.795c0.008-0.108,0.017-0.218,0.017-0.327c0-2.541-2.06-4.602-4.601-4.602
									c-0.237,0-0.467,0.022-0.694,0.059c-1.25-2.805-4.059-4.761-7.326-4.761c-0.053,0-0.105,0.003-0.158,0.005
									c-0.924-5.691-5.858-10.036-11.811-10.036c-5.453,0-10.051,3.647-11.494,8.635c-2.754,1.06-4.766,3.612-5.041,6.668
									c-0.188-0.027-0.379-0.046-0.574-0.046C44.142,112.407,42.3,114.248,42.3,116.521 M57.77,116.813h13.944l-6.185,5.189
									c-1.065,0.896-1.869,2.619-1.869,4.012v0.992l-4.938-3.972c-0.49-0.396-0.953-1.362-0.953-1.991L57.77,116.813
									L57.77,116.813z"/>
							</g>
							<g>
								<g>
									<defs>
										<path id="SVGID_33_" d="M120.448,5.558l-65.507,37.82c-3.412,1.97-6.203,6.805-6.203,10.744v75.639
											c0,3.941,2.791,8.774,6.203,10.744l65.507,37.82c1.752,1.013,4.075,1.501,6.385,1.474
											c2.187-0.025,4.358-0.514,6.021-1.474l65.508-37.82c3.41-1.97,6.201-6.803,6.201-10.744V54.122
											c0-3.939-2.789-8.774-6.201-10.744l-65.508-37.82c-1.66-0.957-3.834-1.444-6.021-1.472
											c-0.063-0.001-0.127-0.001-0.19-0.001C124.396,4.085,122.152,4.575,120.448,5.558"/>
									</defs>
									<clipPath id="SVGID_34_">
										<use xlink:href="#SVGID_33_"  overflow="visible"/>
									</clipPath>
									<path clip-path="url(#SVGID_34_)" fill="#1A1918" d="M77.484,122.005c0,0.067,0.006,0.134,0.011,0.199h3.772h5.021v2.89
										c0,0.957,0.562,2.13,1.308,2.729l4.474,3.599v1.841v1.257h1.759v-1.257v-2.684v-2.093c0-0.437,0.314-1.111,0.648-1.393
										l5.828-4.892h1.76h6.688c0.005-0.073,0.011-0.147,0.011-0.223c0-1.735-1.406-3.144-3.141-3.144
										c-0.162,0-0.318,0.016-0.475,0.039c-0.853-1.914-2.771-3.249-5.002-3.249c-0.036,0-0.072,0.002-0.107,0.002
										c-0.632-3.886-4.001-6.853-8.064-6.853c-3.723,0-6.862,2.49-7.849,5.896c-1.88,0.724-3.254,2.467-3.442,4.552
										c-0.127-0.019-0.258-0.03-0.391-0.03C78.742,119.196,77.484,120.453,77.484,122.005 M88.047,122.204h9.521l-4.223,3.544
										c-0.728,0.611-1.276,1.788-1.276,2.738v0.678l-3.371-2.712c-0.335-0.271-0.651-0.93-0.651-1.358V122.204z"/>
								</g>
								<g>
									<g>
										<defs>
											<path id="SVGID_35_" d="M120.448,5.558l-65.507,37.82c-3.412,1.97-6.203,6.805-6.203,10.744v75.639
												c0,3.941,2.791,8.774,6.203,10.744l65.507,37.82c1.752,1.013,4.075,1.501,6.385,1.474
												c2.187-0.025,4.358-0.514,6.021-1.474l65.508-37.82c3.41-1.97,6.201-6.803,6.201-10.744V54.122
												c0-3.939-2.789-8.774-6.201-10.744l-65.508-37.82c-1.66-0.957-3.834-1.444-6.021-1.472
												c-0.063-0.001-0.127-0.001-0.19-0.001C124.396,4.085,122.152,4.575,120.448,5.558"/>
										</defs>
										<clipPath id="SVGID_36_">
											<use xlink:href="#SVGID_35_"  overflow="visible"/>
										</clipPath>
										<path clip-path="url(#SVGID_36_)" fill="#1A1918" d="M207.313,108.597c-0.229,0-0.449,0.022-0.67,0.055
											c-0.32-3.573-2.676-6.562-5.896-7.801c-1.688-5.833-7.066-10.101-13.445-10.101c-6.961,0-12.732,5.083-13.814,11.74
											c-0.063-0.002-0.123-0.005-0.186-0.005c-3.822,0-7.107,2.286-8.57,5.566c-0.266-0.04-0.533-0.066-0.813-0.066
											c-2.971,0-5.381,2.408-5.381,5.383c0,0.129,0.01,0.256,0.02,0.382h11.459h3.016l9.982,8.381
											c0.572,0.479,1.111,1.637,1.111,2.383v3.584v4.6v2.151h3.016v-2.151v-3.153l7.663-6.165
											c1.276-1.027,2.239-3.038,2.239-4.678v-4.949h8.604h6.464c0.009-0.113,0.017-0.227,0.017-0.341
											C212.123,110.751,209.971,108.597,207.313,108.597 M194.027,118.699c0,0.735-0.543,1.867-1.115,2.328l-5.773,4.646v-1.159
											c0-1.629-0.939-3.645-2.188-4.689l-7.233-6.072h16.313v4.948L194.027,118.699L194.027,118.699z"/>
									</g>
								</g>
								<g>
									<defs>
										<path id="SVGID_37_" d="M120.448,5.558l-65.507,37.82c-3.412,1.97-6.203,6.805-6.203,10.744v75.639
											c0,3.941,2.791,8.774,6.203,10.744l65.507,37.82c1.752,1.013,4.075,1.501,6.385,1.474
											c2.187-0.025,4.358-0.514,6.021-1.474l65.508-37.82c3.41-1.97,6.201-6.803,6.201-10.744V54.122
											c0-3.939-2.789-8.774-6.201-10.744l-65.508-37.82c-1.66-0.957-3.834-1.444-6.021-1.472
											c-0.063-0.001-0.127-0.001-0.19-0.001C124.396,4.085,122.152,4.575,120.448,5.558"/>
									</defs>
									<clipPath id="SVGID_38_">
										<use xlink:href="#SVGID_37_"  overflow="visible"/>
									</clipPath>
									<path clip-path="url(#SVGID_38_)" fill="#1A1A19" d="M126.648,12.365h0.086c1.125,0.014,1.822,0.273,1.979,0.363
										l65.508,37.82c0.85,0.49,2.063,2.593,2.063,3.573v75.64c0,0.98-1.214,3.083-2.063,3.573l-65.506,37.819
										c-0.156,0.091-0.854,0.351-1.977,0.362h-0.088c-1.17,0-1.897-0.269-2.063-0.362l-65.507-37.819
										c-0.848-0.49-2.063-2.593-2.063-3.573v-75.64c0-0.98,1.215-3.083,2.063-3.573l65.507-37.82
										C124.751,12.635,125.48,12.365,126.648,12.365 M126.648,4.085c-2.248,0-4.496,0.489-6.202,1.473l-65.506,37.82
										c-3.412,1.97-6.203,6.805-6.203,10.744v75.64c0,3.94,2.791,8.774,6.203,10.744l65.506,37.82
										c1.706,0.982,3.954,1.473,6.202,1.473c0.063,0,0.123,0,0.185-0.001c2.187-0.026,4.36-0.514,6.021-1.472l65.508-37.82
										c3.41-1.97,6.201-6.804,6.201-10.744v-75.64c0-3.939-2.789-8.774-6.201-10.744l-65.508-37.82
										c-1.658-0.958-3.834-1.446-6.021-1.472C126.771,4.085,126.71,4.085,126.648,4.085"/>
								</g>
							</g>
						</g>
					</g>
				</g>
			</g>
		</g>
	</g>
</g>
</svg>
