<?xml version="1.0" encoding="utf-8"?>
<!-- Generator: Adobe Illustrator 16.0.0, SVG Export Plug-In . SVG Version: 6.00 Build 0)  -->
<!DOCTYPE svg PUBLIC "-//W3C//DTD SVG 1.1//EN" "http://www.w3.org/Graphics/SVG/1.1/DTD/svg11.dtd">
<svg version="1.1" id="Layer_1" xmlns="http://www.w3.org/2000/svg" xmlns:xlink="http://www.w3.org/1999/xlink" x="0px" y="0px"
	 width="612px" height="792px" viewBox="0 0 612 792" enable-background="new 0 0 612 792" xml:space="preserve">
<polygon fill="#A6A8AC" points="237.703,512.157 231.381,504.938 229.68,506.801 229.68,512.157 228.367,512.157 228.367,496.819 
	229.68,496.819 229.68,505.214 237.084,496.819 238.762,496.819 232.23,504.133 239.383,512.157 "/>
<rect x="244.605" y="496.82" fill="#A6A8AC" width="1.312" height="15.338"/>
<polygon fill="#A6A8AC" points="252.172,512.157 252.172,496.819 253.505,496.819 253.505,510.963 260.934,510.963 260.934,512.157 
	"/>
<rect x="266.387" y="496.82" fill="#A6A8AC" width="1.312" height="15.338"/>
<polygon fill="#A6A8AC" points="287.291,512.157 287.291,498.476 281.702,512.157 281.196,512.157 275.586,498.476 275.586,512.157 
	274.274,512.157 274.274,496.819 276.229,496.819 281.449,509.582 286.646,496.819 288.625,496.819 288.625,512.157 "/>
<path fill="#A6A8AC" d="M306.312,512.158l-1.519-3.771h-8.117l-1.518,3.771h-1.518l6.279-15.338h1.631l6.278,15.338H306.312z
	 M300.746,498.223l-3.633,8.969h7.243L300.746,498.223z"/>
<polygon fill="#A6A8AC" points="323.814,512.157 314.156,498.981 314.156,512.157 312.845,512.157 312.845,496.819 314.179,496.819 
	323.791,509.812 323.791,496.819 325.102,496.819 325.102,512.157 "/>
<path fill="#A6A8AC" d="M330.098,510.548l0.805-1.012c0.688,0.92,1.633,1.701,3.058,1.701c2.092,0,3.403-1.448,3.403-3.517v-10.901
	h1.311v10.901c0,3.195-2.093,4.714-4.645,4.714C332.373,512.435,331.109,511.859,330.098,510.548"/>
<path fill="#A6A8AC" d="M355.83,512.158l-1.518-3.771h-8.117l-1.519,3.771h-1.517l6.277-15.338h1.633l6.277,15.338H355.83z
	 M350.266,498.223l-3.634,8.969h7.243L350.266,498.223z"/>
<path fill="#A6A8AC" d="M371.355,512.158l-4.301-6.348h-3.379v6.348h-1.313V496.82h5.727c2.644,0,4.668,1.678,4.668,4.483
	c0,2.782-1.955,4.323-4.254,4.415l4.438,6.439H371.355z M371.379,501.304c0-1.932-1.357-3.288-3.404-3.288h-4.299v6.601h4.299
	C370.021,504.616,371.379,503.236,371.379,501.304"/>
<path fill="#A6A8AC" d="M378.211,504.5c0-4.483,2.943-7.934,7.451-7.934c4.483,0,7.449,3.45,7.449,7.934
	c0,4.484-2.966,7.935-7.449,7.935C381.154,512.435,378.211,508.984,378.211,504.5 M391.732,504.5c0-3.886-2.393-6.736-6.07-6.736
	c-3.703,0-6.071,2.851-6.071,6.736c0,3.863,2.368,6.737,6.071,6.737C389.34,511.237,391.732,508.363,391.732,504.5"/>
<path fill="#F47F53" d="M244.623,413.013l62.144,35.878c1.661,0.96,3.866,1.423,6.058,1.396c2.074-0.024,4.137-0.487,5.711-1.396
	l62.143-35.878c3.237-1.869,5.885-6.455,5.885-10.192v-71.757c0-3.737-2.647-8.323-5.885-10.192l-62.143-35.878
	c-1.574-0.909-3.637-1.372-5.711-1.396c-2.191-0.026-4.396,0.437-6.058,1.396l-62.144,35.878c-3.236,1.869-5.885,6.455-5.885,10.192
	v71.757C238.738,406.558,241.387,411.144,244.623,413.013"/>
<path fill="#E95C2A" d="M380.154,413.013c3.236-1.869,5.885-6.455,5.885-10.192v-71.757c0-3.737-2.648-8.323-5.885-10.192
	l-62.143-35.878c-1.458-0.842-3.335-1.296-5.252-1.379v166.656c1.917-0.084,3.794-0.538,5.252-1.38L380.154,413.013z"/>
<g opacity="0.4">
	<g>
		<defs>
			<rect id="SVGID_1_" x="234.74" y="279.08" width="155.82" height="175.72"/>
		</defs>
		<clipPath id="SVGID_2_">
			<use xlink:href="#SVGID_1_"  overflow="visible"/>
		</clipPath>
		<path clip-path="url(#SVGID_2_)" fill="#FFFFFF" d="M312.65,294.505l62.732,36.219v72.437l-62.732,36.219l-62.731-36.218v-72.438
			L312.65,294.505 M312.649,279.085c-2.248,0-4.496,0.489-6.202,1.473l-65.506,37.82c-3.412,1.97-6.203,6.805-6.203,10.744v75.64
			c0,3.94,2.791,8.774,6.203,10.744l65.506,37.82c1.706,0.984,3.954,1.473,6.202,1.473c0.062,0,0.122,0,0.184-0.001
			c2.187-0.026,4.36-0.514,6.021-1.472l65.506-37.82c3.412-1.97,6.203-6.804,6.203-10.744v-75.64c0-3.939-2.791-8.774-6.203-10.744
			l-65.506-37.82c-1.66-0.958-3.834-1.446-6.021-1.472C312.771,279.085,312.71,279.085,312.649,279.085"/>
	</g>
</g>
<path fill="#1A1A19" d="M312.649,287.365h0.085c1.125,0.014,1.824,0.273,1.979,0.363l65.508,37.82
	c0.848,0.49,2.062,2.593,2.062,3.573v75.64c0,0.98-1.214,3.083-2.063,3.573l-65.506,37.819c-0.156,0.091-0.854,0.351-1.976,0.364
	h-0.088c-1.169,0-1.898-0.269-2.062-0.364l-65.507-37.819c-0.848-0.49-2.063-2.593-2.063-3.573v-75.64
	c0-0.98,1.215-3.083,2.063-3.573l65.507-37.82C310.751,287.635,311.48,287.365,312.649,287.365 M312.649,279.085
	c-2.248,0-4.496,0.489-6.202,1.473l-65.506,37.82c-3.412,1.97-6.203,6.805-6.203,10.744v75.64c0,3.94,2.791,8.774,6.203,10.744
	l65.506,37.82c1.706,0.984,3.954,1.473,6.202,1.473c0.062,0,0.122,0,0.184-0.001c2.187-0.026,4.36-0.514,6.021-1.472l65.506-37.82
	c3.412-1.97,6.203-6.804,6.203-10.744v-75.64c0-3.939-2.791-8.774-6.203-10.744l-65.506-37.82c-1.66-0.958-3.834-1.446-6.021-1.472
	C312.771,279.085,312.71,279.085,312.649,279.085"/>
<g>
	<defs>
		<path id="SVGID_3_" d="M306.448,280.558l-65.507,37.82c-3.412,1.97-6.203,6.805-6.203,10.744v75.639
			c0,3.941,2.791,8.774,6.203,10.744l65.507,37.82c1.752,1.013,4.075,1.501,6.385,1.474c2.187-0.027,4.358-0.514,6.021-1.474
			l65.506-37.82c3.412-1.97,6.203-6.803,6.203-10.744v-75.639c0-3.939-2.791-8.774-6.203-10.744l-65.506-37.82
			c-1.662-0.957-3.834-1.444-6.021-1.472c-0.063-0.001-0.127-0.001-0.19-0.001C310.396,279.085,308.152,279.575,306.448,280.558"/>
	</defs>
	<clipPath id="SVGID_4_">
		<use xlink:href="#SVGID_3_"  overflow="visible"/>
	</clipPath>
	<path clip-path="url(#SVGID_4_)" fill="#FFFFFF" d="M311.832,333.03c0-4.602-3.732-8.333-8.334-8.333
		c-0.541,0-1.07,0.054-1.582,0.151c-1.76-4.521-6.152-7.727-11.297-7.727c-5.088,0-9.441,3.136-11.238,7.579
		c-0.041-0.002-0.084-0.004-0.125-0.004c-3.265,0-6.088,1.877-7.455,4.609c-0.287-0.041-0.58-0.064-0.879-0.064
		c-3.348,0-6.061,2.715-6.061,6.062s2.713,6.06,6.061,6.06h33.334v-0.034C308.502,340.945,311.832,337.378,311.832,333.03"/>
	<path clip-path="url(#SVGID_4_)" fill="#FFFFFF" d="M314.174,434.741l-115.531-20.217l82.689-82.844
		c1.695-2.125,4.406-3.588,7.117-3.853l16.449-3.992l34.045,3.961c2.854,0.137,5.771,1.64,7.559,3.878l41.635,41.522l37.536,47.426
		l-81.775,2.832L314.174,434.741z M222.586,406.946l90.449,15.828l28.541-10.839l60.772-2.103l-22.88-28.908l-41.708-41.595
		l-32.142-3.74l-15.588,3.783l-0.209,0.212L222.586,406.946z"/>
	<polygon clip-path="url(#SVGID_4_)" fill="#EBB220" points="383.803,377.061 355.898,349.231 334.286,341.59 313.645,343.524 
		297.734,341.16 287.197,343.956 280.113,340.855 207.854,416.256 313.604,428.758 342.738,417.695 414.011,415.228 	"/>
	<path clip-path="url(#SVGID_4_)" fill="#FFFFFF" d="M300.734,354.361l14.523,4.79l18.322-3.911l10.012,2.911l14.445-2.723l9,0.583
		l-24.918-20.521c-0.715-1.055-2.326-1.908-3.601-1.908l-33.26-3.87l-15.94,3.87c-1.273,0-2.885,0.854-3.6,1.908l-20.655,16.417
		l-0.694,2.354l7.556-0.444l10.31-2.749l7.401,4.217L300.734,354.361z"/>
	<polygon clip-path="url(#SVGID_4_)" fill="#1A1A19" points="340.557,332.178 336.057,332.942 342.678,344.594 343.483,354.136 
		344.27,344.193 	"/>
	<polygon clip-path="url(#SVGID_4_)" fill="#1A1A19" points="309.891,331.289 314.305,332.334 312.099,343.535 302.686,352.998 
		309.449,343.037 	"/>
	<polygon clip-path="url(#SVGID_4_)" fill="#1A1A19" points="326.818,331.034 322.254,331.483 327.619,343.553 328.162,351.426 
		330.248,342.266 	"/>
	<polygon clip-path="url(#SVGID_4_)" fill="#1A1A19" points="296.388,331.79 287.424,347.65 302.406,331.564 	"/>
	<path clip-path="url(#SVGID_4_)" fill="#1A1A19" d="M313.808,430.896l-107.47-18.807l77.797-77.941
		c1.089-1.462,3.078-2.527,4.904-2.627l16.09-3.907l33.526,3.9c1.863,0.052,3.929,1.133,5.046,2.632l41.725,41.632l32.75,41.377
		l-75.024,2.598L313.808,430.896z M214.89,409.382l98.512,17.239l28.922-10.982l67.522-2.338l-27.592-34.859l-41.736-41.625
		l-0.111-0.164c-0.33-0.486-1.3-0.999-1.887-0.999l-0.239-0.015l-32.894-3.827l-15.819,3.842h-0.248
		c-0.587,0-1.558,0.513-1.887,0.999l-0.248,0.299L214.89,409.382z"/>
	<path clip-path="url(#SVGID_4_)" fill="#FFFFFF" d="M401.821,329.597c0-4.277-3.468-7.745-7.746-7.745
		c-0.503,0-0.994,0.05-1.472,0.141c-1.635-4.203-5.719-7.184-10.5-7.184c-4.729,0-8.774,2.916-10.445,7.046
		c-0.039-0.001-0.077-0.003-0.117-0.003c-3.033,0-5.658,1.744-6.93,4.284c-0.266-0.039-0.538-0.06-0.815-0.06
		c-3.112,0-5.634,2.521-5.634,5.634c0,3.111,2.521,5.633,5.634,5.633h30.983v-0.032
		C398.727,336.954,401.821,333.637,401.821,329.597"/>
	<rect x="212.986" y="411.598" clip-path="url(#SVGID_4_)" fill="#9A9836" width="192.334" height="58.715"/>
	<g opacity="0.4" clip-path="url(#SVGID_4_)">
		<g>
			<defs>
				<rect id="SVGID_5_" x="205.5" y="387.73" width="201.311" height="35.109"/>
			</defs>
			<clipPath id="SVGID_6_">
				<use xlink:href="#SVGID_5_"  overflow="visible"/>
			</clipPath>
			<rect x="205.499" y="387.73" clip-path="url(#SVGID_6_)" fill="#174898" width="201.312" height="35.108"/>
		</g>
	</g>
	<rect x="160.986" y="408.636" clip-path="url(#SVGID_4_)" fill="#1A1A19" width="290.334" height="2.977"/>
	<path clip-path="url(#SVGID_4_)" fill="#1A1918" d="M228.3,391.521c0,0.098,0.008,0.194,0.015,0.292h5.524h7.354v4.23
		c0,1.401,0.822,3.12,1.914,3.998l6.553,5.271v2.696v1.841h2.576v-1.841v-3.931v-3.063c0-0.638,0.463-1.627,0.951-2.037l8.534-7.164
		h2.578h9.795c0.008-0.108,0.017-0.217,0.017-0.327c0-2.541-2.06-4.601-4.601-4.601c-0.237,0-0.467,0.022-0.694,0.058
		c-1.25-2.804-4.059-4.76-7.326-4.76c-0.053,0-0.105,0.003-0.158,0.004c-0.924-5.691-5.858-10.036-11.811-10.036
		c-5.453,0-10.051,3.648-11.494,8.635c-2.754,1.06-4.766,3.612-5.041,6.668c-0.188-0.027-0.379-0.046-0.574-0.046
		C230.142,387.407,228.3,389.248,228.3,391.521 M243.77,391.813h13.944l-6.185,5.189c-1.065,0.896-1.869,2.619-1.869,4.012v0.992
		l-4.938-3.972c-0.49-0.395-0.953-1.362-0.953-1.991V391.813z"/>
	<path clip-path="url(#SVGID_4_)" fill="#1A1918" d="M263.484,397.005c0,0.067,0.006,0.134,0.011,0.199h3.772h5.021v2.89
		c0,0.957,0.562,2.13,1.308,2.729l4.474,3.599v1.841v1.257h1.759v-1.257v-2.684v-2.093c0-0.435,0.314-1.111,0.648-1.391l5.828-4.892
		h1.76h6.688c0.005-0.073,0.011-0.147,0.011-0.223c0-1.735-1.406-3.142-3.141-3.142c-0.162,0-0.318,0.016-0.475,0.039
		c-0.853-1.914-2.771-3.249-5.002-3.249c-0.036,0-0.072,0.002-0.107,0.002c-0.632-3.886-4.001-6.853-8.064-6.853
		c-3.723,0-6.862,2.491-7.849,5.896c-1.88,0.723-3.254,2.467-3.442,4.552c-0.127-0.019-0.258-0.031-0.391-0.031
		C264.742,394.196,263.484,395.453,263.484,397.005 M274.047,397.204h9.521l-4.223,3.544c-0.728,0.611-1.276,1.788-1.276,2.738
		v0.678l-3.371-2.712c-0.335-0.269-0.651-0.93-0.651-1.358V397.204z"/>
	<path clip-path="url(#SVGID_4_)" fill="#1A1918" d="M393.313,383.597c-0.229,0-0.451,0.022-0.67,0.054
		c-0.322-3.573-2.676-6.561-5.898-7.8c-1.688-5.833-7.066-10.101-13.445-10.101c-6.961,0-12.734,5.083-13.815,11.74
		c-0.062-0.002-0.123-0.005-0.185-0.005c-3.822,0-7.109,2.287-8.571,5.567c-0.265-0.04-0.534-0.067-0.812-0.067
		c-2.971,0-5.381,2.409-5.381,5.383c0,0.129,0.01,0.256,0.019,0.382h11.459h3.015l9.984,8.381c0.572,0.479,1.111,1.637,1.111,2.383
		v3.584v4.598v2.153h3.015v-2.153v-3.153l7.664-6.165c1.276-1.027,2.239-3.038,2.239-4.678v-4.949h8.603h6.463
		c0.009-0.113,0.017-0.227,0.017-0.341C398.123,385.751,395.97,383.597,393.313,383.597 M380.027,393.699
		c0,0.736-0.542,1.867-1.115,2.328l-5.774,4.646v-1.159c0-1.629-0.94-3.645-2.188-4.691l-7.233-6.072h16.312V393.699z"/>
</g>
<path fill="#1A1A19" d="M312.649,287.365h0.085c1.125,0.014,1.824,0.273,1.979,0.363l65.508,37.82
	c0.848,0.49,2.062,2.593,2.062,3.573v75.64c0,0.98-1.214,3.083-2.063,3.573l-65.506,37.819c-0.156,0.091-0.854,0.351-1.976,0.364
	h-0.088c-1.169,0-1.898-0.269-2.062-0.364l-65.507-37.819c-0.848-0.49-2.063-2.593-2.063-3.573v-75.64
	c0-0.98,1.215-3.083,2.063-3.573l65.507-37.82C310.751,287.635,311.48,287.365,312.649,287.365 M312.649,279.085
	c-2.248,0-4.496,0.489-6.202,1.473l-65.506,37.82c-3.412,1.97-6.203,6.805-6.203,10.744v75.64c0,3.94,2.791,8.774,6.203,10.744
	l65.506,37.82c1.706,0.984,3.954,1.473,6.202,1.473c0.062,0,0.122,0,0.184-0.001c2.187-0.026,4.36-0.514,6.021-1.472l65.506-37.82
	c3.412-1.97,6.203-6.804,6.203-10.744v-75.64c0-3.939-2.791-8.774-6.203-10.744l-65.506-37.82c-1.66-0.958-3.834-1.446-6.021-1.472
	C312.771,279.085,312.71,279.085,312.649,279.085"/>
</svg>
