<?xml version="1.0" encoding="utf-8"?>
<!-- Generator: Adobe Illustrator 16.0.0, SVG Export Plug-In . SVG Version: 6.00 Build 0)  -->
<!DOCTYPE svg PUBLIC "-//W3C//DTD SVG 1.1//EN" "http://www.w3.org/Graphics/SVG/1.1/DTD/svg11.dtd">
<svg version="1.1" id="Layer_1" xmlns="http://www.w3.org/2000/svg" xmlns:xlink="http://www.w3.org/1999/xlink" x="0px" y="0px"
	 width="612px" height="792px" viewBox="0 0 612 792" enable-background="new 0 0 612 792" xml:space="preserve">
<polygon fill="#A6A8AC" points="249.174,498.157 249.174,482.819 250.506,482.819 250.506,496.963 257.934,496.963 257.934,498.157 
	"/>
<polygon fill="#A6A8AC" points="263.387,498.157 263.387,482.819 273.113,482.819 273.113,484.016 264.697,484.016 264.697,489.695 
	272.952,489.695 272.952,490.891 264.697,490.891 264.697,496.963 273.113,496.963 273.113,498.157 "/>
<polygon fill="#A6A8AC" points="290.086,498.157 280.43,484.981 280.43,498.157 279.117,498.157 279.117,482.819 280.451,482.819 
	290.064,495.812 290.064,482.819 291.374,482.819 291.374,498.157 "/>
<path fill="#A6A8AC" d="M297.381,490.5c0-4.736,3.449-7.934,7.772-7.934c2.53,0,4.368,1.013,5.772,2.622l-0.99,0.713
	c-1.08-1.288-2.828-2.138-4.782-2.138c-3.587,0-6.392,2.735-6.392,6.736c0,3.955,2.805,6.762,6.392,6.762
	c2.046,0,3.679-1.013,4.507-1.863v-3.679h-5.795v-1.174h7.105v5.358c-1.356,1.518-3.402,2.552-5.817,2.552
	C300.83,498.456,297.381,495.237,297.381,490.5"/>
<polygon fill="#A6A8AC" points="320.932,498.157 320.932,484.016 315.918,484.016 315.918,482.819 327.277,482.819 327.277,484.016 
	322.266,484.016 322.266,498.157 "/>
<polygon fill="#A6A8AC" points="343.791,498.157 343.791,490.868 334.064,490.868 334.064,498.157 332.754,498.157 332.754,482.819 
	334.064,482.819 334.064,489.673 343.791,489.673 343.791,482.819 345.102,482.819 345.102,498.157 "/>
<path fill="#A6A8AC" d="M359.824,490.5c0-4.483,2.945-7.934,7.451-7.934c4.484,0,7.451,3.45,7.451,7.934
	c0,4.484-2.967,7.935-7.451,7.935C362.77,498.435,359.824,494.984,359.824,490.5 M373.346,490.5c0-3.886-2.392-6.736-6.07-6.736
	c-3.701,0-6.07,2.851-6.07,6.736c0,3.863,2.369,6.737,6.07,6.737C370.954,497.237,373.346,494.363,373.346,490.5"/>
<polygon fill="#A6A8AC" points="380.732,498.157 380.732,482.819 390.459,482.819 390.459,484.016 382.043,484.016 382.043,489.695 
	390.298,489.695 390.298,490.891 382.043,490.891 382.043,498.157 "/>
<path fill="#A6A8AC" d="M213.512,518.1c0-4.483,2.943-7.934,7.451-7.934c4.483,0,7.449,3.45,7.449,7.934
	c0,4.484-2.966,7.935-7.449,7.935C216.455,526.034,213.512,522.584,213.512,518.1 M227.033,518.1c0-3.887-2.393-6.736-6.07-6.736
	c-3.703,0-6.071,2.85-6.071,6.736c0,3.863,2.368,6.737,6.071,6.737C224.641,524.837,227.033,521.963,227.033,518.1"/>
<path fill="#A6A8AC" d="M243.41,525.758l-4.301-6.348h-3.379v6.348h-1.313V510.42h5.727c2.644,0,4.668,1.678,4.668,4.483
	c0,2.782-1.955,4.323-4.254,4.415l4.438,6.439H243.41z M243.434,514.903c0-1.932-1.357-3.288-3.404-3.288h-4.299v6.601h4.299
	C242.076,518.216,243.434,516.836,243.434,514.903"/>
<rect x="250.84" y="510.419" fill="#A6A8AC" width="1.313" height="15.338"/>
<polygon fill="#A6A8AC" points="258.73,525.757 258.73,510.419 268.457,510.419 268.457,511.615 260.041,511.615 260.041,517.295 
	268.296,517.295 268.296,518.49 260.041,518.49 260.041,524.563 268.457,524.563 268.457,525.757 "/>
<polygon fill="#A6A8AC" points="285.43,525.757 275.773,512.581 275.773,525.757 274.461,525.757 274.461,510.419 275.795,510.419 
	285.408,523.411 285.408,510.419 286.718,510.419 286.718,525.757 "/>
<polygon fill="#A6A8AC" points="297.207,525.757 297.207,511.615 292.194,511.615 292.194,510.419 303.555,510.419 303.555,511.615 
	298.541,511.615 298.541,525.757 "/>
<polygon fill="#A6A8AC" points="317.748,525.757 317.748,510.419 327.475,510.419 327.475,511.615 319.059,511.615 319.059,517.295 
	327.313,517.295 327.313,518.49 319.059,518.49 319.059,524.563 327.475,524.563 327.475,525.757 "/>
<polygon fill="#A6A8AC" points="344.334,525.757 338.975,518.835 333.641,525.757 332.008,525.757 338.17,517.894 332.354,510.419 
	334.008,510.419 338.975,516.927 343.965,510.419 345.62,510.419 339.803,517.869 345.965,525.757 "/>
<path fill="#A6A8AC" d="M351.074,525.758V510.42h5.748c2.943,0,4.623,2.068,4.623,4.483c0,2.414-1.701,4.484-4.623,4.484h-4.438
	v6.37H351.074z M360.064,514.903c0-1.932-1.334-3.288-3.38-3.288h-4.3v6.576h4.3C358.73,518.191,360.064,516.812,360.064,514.903"/>
<path fill="#A6A8AC" d="M375.957,525.758l-4.299-6.348h-3.381v6.348h-1.312V510.42h5.728c2.643,0,4.668,1.678,4.668,4.483
	c0,2.782-1.955,4.323-4.256,4.415l4.438,6.439H375.957z M375.98,514.903c0-1.932-1.357-3.288-3.402-3.288h-4.301v6.601h4.301
	C374.623,518.216,375.98,516.836,375.98,514.903"/>
<polygon fill="#A6A8AC" points="383.389,525.757 383.389,510.419 393.117,510.419 393.117,511.615 384.701,511.615 384.701,517.295 
	392.955,517.295 392.955,518.49 384.701,518.49 384.701,524.563 393.117,524.563 393.117,525.757 "/>
<path fill="#A6A8AC" d="M398.27,523.596l0.852-0.988c0.988,1.127,2.598,2.229,4.806,2.229c3.127,0,4.024-1.747,4.024-3.058
	c0-4.508-9.198-2.162-9.198-7.52c0-2.507,2.253-4.094,5.036-4.094c2.277,0,4.023,0.805,5.197,2.162l-0.875,0.966
	c-1.104-1.334-2.666-1.931-4.392-1.931c-2.047,0-3.588,1.172-3.588,2.828c0,3.931,9.198,1.77,9.198,7.496
	c0,1.977-1.311,4.347-5.449,4.347C401.351,526.034,399.443,524.998,398.27,523.596"/>
<path fill="#A6A8AC" d="M414.393,523.596l0.852-0.988c0.988,1.127,2.598,2.229,4.806,2.229c3.127,0,4.024-1.747,4.024-3.058
	c0-4.508-9.198-2.162-9.198-7.52c0-2.507,2.253-4.094,5.036-4.094c2.277,0,4.023,0.805,5.197,2.162l-0.875,0.966
	c-1.104-1.334-2.666-1.931-4.392-1.931c-2.047,0-3.588,1.172-3.588,2.828c0,3.931,9.198,1.77,9.198,7.496
	c0,1.977-1.311,4.347-5.449,4.347C417.474,526.034,415.566,524.998,414.393,523.596"/>
<path fill="#E5CA51" d="M248.146,401.506l65.506,37.82c1.752,1.012,4.076,1.5,6.385,1.472c2.188-0.026,4.361-0.515,6.021-1.472
	l65.507-37.82c3.411-1.971,6.202-6.805,6.202-10.744v-75.64c0-3.939-2.791-8.774-6.202-10.743l-65.507-37.821
	c-1.659-0.958-3.833-1.446-6.021-1.472c-2.309-0.027-4.633,0.461-6.385,1.472l-65.506,37.821c-3.412,1.969-6.203,6.804-6.203,10.743
	v75.64C241.943,394.701,244.734,399.535,248.146,401.506"/>
<path fill="#E5CA51" d="M389.914,398.991c3.234-1.868,5.881-6.452,5.881-10.188V317.08c0-3.735-2.646-8.319-5.881-10.188
	l-62.115-35.861c-1.457-0.842-3.332-1.295-5.248-1.378V436.23c1.916-0.082,3.791-0.537,5.248-1.378L389.914,398.991z"/>
<g opacity="0.4">
	<g>
		<defs>
			<rect id="SVGID_1_" x="241.92" y="265.08" width="155.82" height="175.72"/>
		</defs>
		<clipPath id="SVGID_2_">
			<use xlink:href="#SVGID_1_"  overflow="visible"/>
		</clipPath>
		<path clip-path="url(#SVGID_2_)" fill="#FFFFFF" d="M319.826,281.143l62.181,35.9v71.799l-62.181,35.898l-62.18-35.898v-71.799
			L319.826,281.143 M319.825,265.085c-2.248,0-4.496,0.489-6.201,1.473l-65.507,37.82c-3.411,1.97-6.202,6.805-6.202,10.744v75.64
			c0,3.94,2.791,8.774,6.202,10.744l65.507,37.82c1.705,0.984,3.953,1.473,6.201,1.473c0.062,0,0.122,0,0.184-0.001
			c2.187-0.026,4.361-0.514,6.021-1.472l65.507-37.82c3.411-1.97,6.202-6.804,6.202-10.744v-75.64c0-3.939-2.791-8.774-6.202-10.744
			l-65.507-37.82c-1.659-0.958-3.834-1.446-6.021-1.472C319.947,265.085,319.886,265.085,319.825,265.085"/>
	</g>
</g>
<path fill="#1A1A19" d="M319.854,273.365h0.084c1.125,0.014,1.825,0.273,1.98,0.363l65.506,37.82
	c0.848,0.49,2.063,2.593,2.063,3.573v75.64c0,0.98-1.215,3.083-2.063,3.573l-65.506,37.819c-0.156,0.091-0.855,0.351-1.977,0.364
	h-0.088c-1.168,0-1.898-0.269-2.062-0.364l-65.507-37.819c-0.849-0.49-2.063-2.593-2.063-3.573v-75.64
	c0-0.98,1.214-3.083,2.063-3.573l65.507-37.82C317.955,273.635,318.686,273.365,319.854,273.365 M319.854,265.085
	c-2.248,0-4.496,0.489-6.201,1.473l-65.506,37.82c-3.412,1.97-6.203,6.805-6.203,10.744v75.64c0,3.94,2.791,8.774,6.203,10.744
	l65.506,37.82c1.705,0.984,3.953,1.473,6.201,1.473c0.061,0,0.122,0,0.184-0.001c2.188-0.026,4.361-0.514,6.021-1.472l65.507-37.82
	c3.411-1.97,6.202-6.804,6.202-10.744v-75.64c0-3.939-2.791-8.774-6.202-10.744l-65.507-37.82c-1.659-0.958-3.833-1.446-6.021-1.472
	C319.976,265.085,319.914,265.085,319.854,265.085"/>
<g>
	<defs>
		<path id="SVGID_3_" d="M313.652,266.558l-65.508,37.82c-3.41,1.97-6.201,6.805-6.201,10.744v75.639
			c0,3.941,2.791,8.774,6.201,10.744l65.508,37.82c1.752,1.013,4.076,1.501,6.385,1.474c2.188-0.027,4.361-0.514,6.021-1.474
			l65.504-37.82c3.414-1.97,6.205-6.803,6.205-10.744v-75.639c0-3.939-2.791-8.774-6.205-10.744l-65.504-37.82
			c-1.66-0.957-3.834-1.444-6.021-1.472c-0.064-0.001-0.127-0.001-0.191-0.001C317.6,265.085,315.355,265.575,313.652,266.558"/>
	</defs>
	<clipPath id="SVGID_4_">
		<use xlink:href="#SVGID_3_"  overflow="visible"/>
	</clipPath>
	<polygon clip-path="url(#SVGID_4_)" fill="#FFFFFF" points="282.464,288.975 301.783,279.314 301.231,304.154 	"/>
	<path clip-path="url(#SVGID_4_)" fill="#FFFFFF" d="M370.321,387.499c-3.91,0-7.091-3.181-7.091-7.091
		c0-3.911,3.181-7.092,7.091-7.092c3.909,0,7.092,3.181,7.092,7.092C377.413,384.318,374.23,387.499,370.321,387.499
		 M370.321,380.142c-0.146,0-0.267,0.119-0.267,0.267c0,0.296,0.533,0.294,0.533,0C370.588,380.261,370.469,380.142,370.321,380.142
		"/>
	<path clip-path="url(#SVGID_4_)" fill="#FFFFFF" d="M312.6,281.139c4.047,0,7.328,3.28,7.328,7.328v2.144
		c2.638-0.503,3.935-0.749,8.416-1.603c0.574-0.109,1.146-0.162,1.711-0.162c4.277,0,8.091,3.035,8.92,7.392
		c0.939,4.932-2.297,9.692-7.229,10.631c-6.031,1.148-6.295,1.199-11.818,2.251v2.707c3.345-0.378,7.08-0.789,11.308-1.244
		l0.011,0.129c0.717-0.092,1.442-0.14,2.178-0.14c11.301,0,20.461,11.128,20.461,24.857c0,6.81-2.256,12.979-5.906,17.469
		l6.703,16.536l10.568,4.783l10.092,24.591l-9.258,11.323l-42.345-0.798l-2.581-13.279l-2.074-0.475
		c-0.014,7.827-3.923,14.166-8.742,14.166c-4.828,0-8.744-6.36-8.744-14.208c0-1.344,0.115-2.644,0.33-3.877l-13.871-3.168
		c-0.146,6.134-3.252,11.035-7.061,11.035c-3.904,0-7.07-5.143-7.07-11.486c0-0.94,0.07-1.855,0.203-2.73l-11.951-2.73l-6.578,2.021
		c-1.473,3.451-3.561,5.605-5.879,5.605c-1.516,0-2.935-0.923-4.147-2.527l-1.182,0.362l-11.978-4.012
		c-0.486,0.254-0.992,0.389-1.513,0.389c-1.216,0-2.354-0.733-3.329-2.011l-32.464-10.874l3.349-38.517l4.547-1.914l1.195-7.416
		l21.771-13.013c5.436-0.852,10.611-1.19,15.404-1.19c6.957,0.001,13.109,0.714,18.088,1.606v-3.911c0-5.021,4.07-9.092,9.092-9.092
		c2.955,0,5.582,1.411,7.242,3.597c1.269-3.493,4.617-5.988,8.547-5.988c5.021,0,9.092,4.07,9.092,9.091v10.312
		c3.656-0.487,7.343-0.978,11.836-1.537v-25.094C305.271,284.419,308.553,281.139,312.6,281.139 M312.6,272.582
		c-8.758,0-15.883,7.125-15.883,15.885v3.746c-3.188-3.136-7.559-5.073-12.373-5.073c-3.743,0-7.299,1.195-10.227,3.277
		c-1.766-0.582-3.638-0.886-5.563-0.886c-7.717,0-14.293,4.979-16.684,11.893c-3.488-0.329-6.996-0.496-10.496-0.496
		c-5.623,0-11.252,0.436-16.729,1.294l-1.64,0.257l-1.426,0.852l-21.771,13.012l-3.423,2.046l-0.635,3.936l-0.44,2.734l-0.175,0.073
		l-4.756,2.002l-0.447,5.143l-3.35,38.517L186,377.506l6.391,2.141l30.482,10.21c2.32,2.028,5.092,3.118,8.028,3.118
		c0.375,0,0.748-0.019,1.119-0.055l9.653,3.234l0.713,0.238c2.214,1.549,4.717,2.37,7.334,2.37c2.34,0,7.648-0.765,11.74-7.013
		l1.041-0.318l3.17,0.724c1.4,9.318,7.521,15.928,15.324,15.928c5.135,0,9.59-2.944,12.413-7.654
		c1.61,10.468,8.354,17.872,16.933,17.872c2.189,0,4.26-0.483,6.156-1.377l0.162,0.834l6.918,0.13l42.344,0.798l4.155,0.078
		l2.63-3.217l9.258-11.323l3.228-3.947l-1.935-4.717l-10.092-24.591l-1.291-3.145l-3.097-1.402l-7.452-3.373l-3.701-9.132
		c3.129-5.435,4.815-11.834,4.815-18.488c0-13.216-6.696-24.663-16.388-30.08c1.502-3.234,2.043-6.95,1.328-10.712
		c-1.584-8.313-8.869-14.347-17.326-14.348c-1.105,0-2.221,0.105-3.312,0.313l-0.313,0.06
		C323.7,275.842,318.523,272.582,312.6,272.582"/>
	<path clip-path="url(#SVGID_4_)" fill="#FFFFFF" d="M354.826,362.229c0.314,0,0.632,0.018,0.951,0.054
		c6.031,0.678,6.031,0.678,12.061,1.356c4.619,0.521,7.941,4.687,7.422,9.306c-0.484,4.299-4.127,7.476-8.354,7.476
		c-0.313,0-0.631-0.018-0.951-0.054c-6.03-0.679-6.03-0.679-12.061-1.357c-4.619-0.52-7.941-4.686-7.422-9.305
		C346.957,365.404,350.6,362.229,354.826,362.229 M354.826,356.678c-7.11,0-13.072,5.333-13.868,12.405
		c-0.862,7.652,4.663,14.579,12.315,15.441l12.061,1.356c0.521,0.06,1.05,0.089,1.572,0.089c7.111,0,13.072-5.333,13.869-12.404
		c0.418-3.707-0.635-7.355-2.961-10.271c-2.326-2.917-5.648-4.753-9.355-5.17l-12.061-1.358
		C355.878,356.708,355.348,356.678,354.826,356.678"/>
	<path clip-path="url(#SVGID_4_)" fill="#D37B28" d="M239.501,417.565c0.553,0,0.553-0.858,0-0.858
		C238.947,416.707,238.947,417.565,239.501,417.565"/>
	<polygon clip-path="url(#SVGID_4_)" fill="#1A1A19" points="205.725,374.736 361.801,404.913 345.805,437.3 212.641,494.214 	"/>
	<path clip-path="url(#SVGID_4_)" fill="#FFFFFF" d="M302.594,288.438L302.594,288.438c-2.701,0-5.074-1.631-6.135-3.983
		c-2.14-1.365-3.584-3.956-3.765-6.348l-0.278-3.668l37.649-2.86l0.279,3.669c0.181,2.387-0.849,5.157-2.747,6.832
		c-0.26,0.955-0.729,1.842-1.387,2.608c-1.172,1.364-2.803,2.188-4.594,2.325l-18.511,1.406
		C302.934,288.434,302.764,288.438,302.594,288.438 M303.22,280.998v0.033l17.175-1.305l-0.004-0.033L303.22,280.998z"/>
	<path clip-path="url(#SVGID_4_)" fill="#706F72" d="M270.469,323.686l3.189-5.104c0,0,2.563-1.382-3.863-3.569
		c-3.166-1.077-5.418,2.522-10.78,1.566c-1.384-0.246-0.423-6.857-1.89-7.067c-8.465-1.215-22.877-0.135-31.155,1.162
		l-21.771,13.012l-1.195,7.416l-4.547,1.914l-3.349,38.519l49.283,16.507l27.272-8.373L270.469,323.686z"/>
	<path clip-path="url(#SVGID_4_)" fill="#1A1A19" d="M323.309,398.977c-0.708,7.896-5.891,13.886-11.574,13.375
		c-5.686-0.51-9.719-7.323-9.012-15.22c0.709-7.896,5.891-13.885,11.574-13.376C319.982,384.266,324.016,391.081,323.309,398.977"/>
	<path clip-path="url(#SVGID_4_)" fill="#706F72" d="M367.838,363.639c-6.029-0.679-6.029-0.679-12.061-1.357
		c-4.618-0.52-8.784,2.803-9.305,7.422c-0.52,4.619,2.804,8.785,7.422,9.305c6.031,0.68,6.031,0.68,12.061,1.358
		c4.619,0.521,8.785-2.803,9.305-7.422C375.78,368.325,372.457,364.159,367.838,363.639"/>
	<path clip-path="url(#SVGID_4_)" fill="#1A1A19" d="M366.906,381.377L366.906,381.377c-0.351,0-0.703-0.02-1.059-0.059
		l-12.06-1.359c-2.487-0.28-4.718-1.511-6.279-3.469c-1.562-1.957-2.267-4.406-1.987-6.895c0.575-5.094,5.157-8.849,10.364-8.265
		l12.06,1.356c5.136,0.579,8.844,5.229,8.266,10.364C375.677,377.798,371.677,381.377,366.906,381.377 M354.827,363.185
		c-3.796,0-6.978,2.85-7.403,6.626c-0.223,1.979,0.339,3.929,1.581,5.485c1.243,1.558,3.017,2.538,4.998,2.761l12.06,1.358
		c4.146,0.469,7.789-2.524,8.246-6.578c0.461-4.087-2.49-7.787-6.578-8.247l-12.06-1.357
		C355.388,363.201,355.105,363.185,354.827,363.185"/>
	<path clip-path="url(#SVGID_4_)" fill="#1A1A19" d="M375.441,371.537c0.137,4.347-2.802,7.967-6.564,8.086
		c-3.762,0.118-6.924-3.309-7.061-7.654c-0.139-4.346,2.801-7.966,6.563-8.085C372.142,363.765,375.304,367.191,375.441,371.537"/>
	<polygon clip-path="url(#SVGID_4_)" fill="#706F72" points="345.828,346.878 354.682,369.434 364.25,374.217 376.762,402.229 
		366.084,410.131 323.739,409.333 319.928,389.716 316.387,373.447 312.6,354.787 	"/>
	<path clip-path="url(#SVGID_4_)" fill="#1A1A19" d="M312.6,281.139c4.047,0,7.328,3.281,7.328,7.328v2.144
		c2.638-0.503,3.935-0.749,8.416-1.603c0.574-0.109,1.146-0.162,1.711-0.162c4.277,0,8.091,3.035,8.92,7.392
		c0.939,4.933-2.297,9.692-7.229,10.631c-6.031,1.148-6.295,1.199-11.818,2.251v2.707c3.345-0.378,7.08-0.789,11.308-1.244
		l0.011,0.129c0.717-0.092,1.442-0.141,2.178-0.141c11.301,0,20.461,11.129,20.461,24.858c0,6.81-2.256,12.979-5.906,17.469
		l6.703,16.536l9.568,4.784l12.236,27.734l-10.402,8.179l-42.345-0.798l-2.581-13.279l-2.074-0.475
		c-0.014,7.827-3.923,14.166-8.742,14.166c-4.828,0-8.744-6.36-8.744-14.208c0-1.344,0.115-2.644,0.33-3.877l-13.871-3.168
		c-0.146,6.134-3.252,11.035-7.061,11.035c-3.904,0-7.07-5.143-7.07-11.486c0-0.94,0.07-1.855,0.203-2.73l-15.914-3.523
		l-2.615,2.813c-1.473,3.45-3.561,5.605-5.879,5.605c-1.516,0-2.935-0.923-4.147-2.527l-1.182,0.362l-11.978-4.012
		c-0.486,0.254-0.992,0.389-1.513,0.389c-1.216,0-2.354-0.733-3.329-2.011l-32.464-10.874l3.349-38.517l4.547-1.914l1.195-7.417
		l21.771-13.012c5.436-0.852,10.611-1.19,15.404-1.19c6.957,0.001,13.109,0.714,18.088,1.606v-3.911c0-5.021,4.07-9.091,9.092-9.091
		c2.955,0,5.582,1.41,7.242,3.596c1.269-3.493,4.617-5.988,8.547-5.988c5.021,0,9.092,4.07,9.092,9.091v10.312
		c3.656-0.487,7.343-0.978,11.836-1.537v-25.094C305.271,284.42,308.553,281.139,312.6,281.139 M312.6,277.299
		c-6.157,0-11.168,5.01-11.168,11.168v21.709c-1.467,0.188-2.848,0.367-4.157,0.539v-5.929c0-7.13-5.8-12.93-12.931-12.93
		c-3.623,0-7.008,1.53-9.406,4.065c-1.913-1.088-4.098-1.674-6.383-1.674c-6.938,0-12.616,5.491-12.918,12.356
		c-4.717-0.638-9.496-0.96-14.262-0.96c-5.379,0-10.762,0.416-16,1.236l-0.734,0.115L224,307.379l-21.771,13.012l-1.536,0.918
		l-0.284,1.766l-0.856,5.316l-2.586,1.087l-2.133,0.898l-0.201,2.308l-3.35,38.518l-0.262,3.012l2.867,0.961l31.473,10.541
		c1.596,1.648,3.525,2.543,5.54,2.543c0.517,0,1.028-0.059,1.532-0.174l10.738,3.598l1.168,0.391l0.102-0.031
		c1.939,1.609,3.861,2.004,5.279,2.004c2.179,0,6.199-0.966,9.125-7.3l0.685-0.734l10.56,2.338
		c0.112,8.446,4.861,15.018,10.906,15.018c4.859,0,8.854-4.151,10.311-10.194l6.468,1.478c-0.011,0.296-0.015,0.592-0.015,0.888
		c0,10.12,5.526,18.047,12.582,18.047c3.672,0,6.934-2.152,9.215-5.646l0.414,2.128l0.592,3.048l3.104,0.059l42.346,0.798
		l1.367,0.024l1.076-0.846l10.404-8.178l2.343-1.842L380,400.403l-12.236-27.736l-0.559-1.265l-1.238-0.619l-8.272-4.136
		l-5.347-13.191c3.48-5.087,5.375-11.4,5.375-18.027c0-13.641-8.098-25.087-18.916-27.987c3.168-2.93,4.805-7.38,3.939-11.922
		c-1.16-6.091-6.498-10.514-12.691-10.514c-0.811,0-1.627,0.077-2.43,0.23l-4.129,0.786
		C322.379,281.036,317.918,277.299,312.6,277.299"/>
	<path clip-path="url(#SVGID_4_)" fill="#706F72" d="M259.464,307.179v12.838c0,4.902,3.881,8.897,8.737,9.083v-31.005
		C263.345,298.28,259.464,302.275,259.464,307.179"/>
	<path clip-path="url(#SVGID_4_)" fill="#BFBDC1" d="M268.555,298.088c-0.118,0-0.236,0.003-0.354,0.007V329.1
		c0.117,0.005,0.235,0.008,0.354,0.008c5.021,0,9.091-4.07,9.091-9.091v-12.838C277.646,302.157,273.576,298.088,268.555,298.088"/>
	<path clip-path="url(#SVGID_4_)" fill="#706F72" d="M284.345,295.695c-5.021,0-9.091,4.07-9.091,9.091v12.838
		c0,5.021,4.069,9.091,9.091,9.091c0.442,0,0.878-0.031,1.304-0.093v-30.833C285.223,295.728,284.787,295.695,284.345,295.695"/>
	<path clip-path="url(#SVGID_4_)" fill="#BFBDC1" d="M285.648,295.789v30.833c4.403-0.634,7.787-4.42,7.787-8.998v-12.837
		C293.436,300.209,290.052,296.422,285.648,295.789"/>
	<path clip-path="url(#SVGID_4_)" fill="#706F72" d="M312.6,281.139c-4.047,0-7.327,3.28-7.327,7.328v27.092
		c0,4.047,3.28,7.327,7.327,7.327s7.328-3.28,7.328-7.327v-27.092C319.928,284.419,316.646,281.139,312.6,281.139"/>
	<path clip-path="url(#SVGID_4_)" fill="#706F72" d="M353.885,335.428c0-13.728-9.16-24.856-20.46-24.856
		c-0.735,0-1.462,0.048-2.178,0.14l-0.011-0.129c-40.686,4.377-35.791,4.77-76.475,9.147l-5.107-0.831
		c-10.276,1.32-18.282,11.883-18.282,24.718c0,13.728,9.16,24.857,20.459,24.857c0.735,0,6.581,0.911,7.297,0.818l0.011,0.13
		c40.685-4.378,35.791-4.77,76.475-9.147l-0.012-0.129C345.878,358.824,353.885,348.264,353.885,335.428"/>
	<g opacity="0.5" clip-path="url(#SVGID_4_)">
		<g>
			<defs>
				<rect id="SVGID_5_" x="338.51" y="352.59" width="16.01" height="19.21"/>
			</defs>
			<clipPath id="SVGID_6_">
				<use xlink:href="#SVGID_5_"  overflow="visible"/>
			</clipPath>
			<polygon clip-path="url(#SVGID_6_)" fill="#F2F2F2" points="338.508,357.976 342.746,371.797 354.521,369.296 348.358,352.589 
							"/>
		</g>
	</g>
	<g opacity="0.5" clip-path="url(#SVGID_4_)">
		<g>
			<defs>
				<rect id="SVGID_7_" x="317.74" y="311.98" width="37" height="31.319"/>
			</defs>
			<clipPath id="SVGID_8_">
				<use xlink:href="#SVGID_7_"  overflow="visible"/>
			</clipPath>
			<path clip-path="url(#SVGID_8_)" fill="#F2F2F2" d="M318.77,343.304c0,0,2.363-6.98,7.175-8.395c0,0-0.118-14.57,9.592-13.961
				c9.71,0.611,17.479,2.358,18.861,7.578c1.381,5.22-0.964-16.994-16.13-16.54C323.102,312.441,314.678,329.666,318.77,343.304"/>
		</g>
	</g>
	<polygon clip-path="url(#SVGID_4_)" fill="#1A1A19" points="262.615,380.896 245.979,390.151 203.361,376.555 199.484,351.677 
		263.832,355.568 	"/>
	<path clip-path="url(#SVGID_4_)" fill="#1A1A19" d="M259.598,310.158c0,0-14.385-2.25-32.157,0l-22.704,14.323l9.107,14.421
		l37.252-10.689L259.598,310.158z"/>
	<path clip-path="url(#SVGID_4_)" fill="#706F72" d="M326.93,397.371l-70.226-16.042l2.76-29.652c0,0,57.767,2.008,60.463,1.367
		C322.624,352.401,326.93,397.371,326.93,397.371"/>
	<path clip-path="url(#SVGID_4_)" fill="#BDBEC0" d="M257.789,318.689c0,0-4.573-0.998-15.338,0.37
		c-10.766,1.368-11.668,20.942-11.668,20.942l88.236-10.895c2.633-13.872,16.516-17.12,16.516-17.12l-4.299-1.405l-64.117,8.478
		L257.789,318.689z"/>
	<path clip-path="url(#SVGID_4_)" fill="#706F72" d="M338.976,296.237c-0.939-4.932-5.181-8.268-9.472-7.451
		c-5.486,1.046-5.486,1.046-10.973,2.091c-4.292,0.816-7.009,5.478-6.07,10.409c0.939,4.933,5.18,8.269,9.471,7.451
		c5.486-1.045,5.486-1.045,10.974-2.09C337.197,305.83,339.914,301.17,338.976,296.237"/>
	<g opacity="0.5" clip-path="url(#SVGID_4_)">
		<g>
			<defs>
				<rect id="SVGID_9_" x="314.18" y="293.05" width="15.42" height="5.17"/>
			</defs>
			<clipPath id="SVGID_10_">
				<use xlink:href="#SVGID_9_"  overflow="visible"/>
			</clipPath>
			
				<rect x="320.814" y="287.986" transform="matrix(0.2006 0.9797 -0.9797 0.2006 546.9567 -79.0089)" clip-path="url(#SVGID_10_)" fill="#F2F2F2" width="2.152" height="15.295"/>
		</g>
	</g>
	<path clip-path="url(#SVGID_4_)" fill="#1A1A19" d="M314.084,301.242l14.521-3.154l5.423,8.23l-12.329,2.762
		C321.699,309.08,316.874,308.853,314.084,301.242"/>
	<polygon clip-path="url(#SVGID_4_)" fill="#1A1A19" points="318.73,390.729 361.6,398.818 370.197,383.146 	"/>
	<path clip-path="url(#SVGID_4_)" fill="#1A1A19" d="M321.477,395.537c0,7.848-3.914,14.208-8.742,14.208
		c-4.83,0-8.744-6.36-8.744-14.208c0-7.847,3.914-14.207,8.744-14.207C317.563,381.33,321.477,387.69,321.477,395.537"/>
	<path clip-path="url(#SVGID_4_)" fill="#706F72" d="M319.085,395.537c0,7.848-3.915,14.208-8.743,14.208
		c-4.829,0-8.743-6.36-8.743-14.208c0-7.847,3.914-14.207,8.743-14.207C315.17,381.33,319.085,387.69,319.085,395.537"/>
	<path clip-path="url(#SVGID_4_)" fill="#1A1A19" d="M288.063,388.041c0,6.344-3.165,11.486-7.068,11.486s-7.069-5.143-7.069-11.486
		s3.166-11.486,7.069-11.486S288.063,381.697,288.063,388.041"/>
	<path clip-path="url(#SVGID_4_)" fill="#706F72" d="M257.789,372.417c0,9.825-3.612,17.79-8.068,17.79
		c-4.455,0-8.066-7.965-8.066-17.79s3.611-17.79,8.066-17.79C254.177,354.627,257.789,362.592,257.789,372.417"/>
	<path clip-path="url(#SVGID_4_)" fill="#1A1A19" d="M259.982,370.822c0,11.136-4.094,20.164-9.145,20.164
		s-9.146-9.028-9.146-20.164s4.095-20.164,9.146-20.164S259.982,359.687,259.982,370.822"/>
	<path clip-path="url(#SVGID_4_)" fill="#BFBDC1" d="M338.171,296.679c0.595,4.07-1.638,7.766-4.988,8.255
		c-3.349,0.49-6.547-2.412-7.142-6.482c-0.596-4.069,1.638-7.766,4.988-8.255C334.379,289.707,337.576,292.608,338.171,296.679"/>
	<polygon clip-path="url(#SVGID_4_)" fill="#F2F2F2" points="233.092,328.526 323.954,319.06 338.205,311.601 328.605,309.483 
		274.063,319.06 269.98,315.459 241.654,319.06 	"/>
	<path clip-path="url(#SVGID_4_)" fill="#1A1A19" d="M331.77,290.143c3.067-0.001,5.85,2.768,6.401,6.536
		c0.595,4.07-1.638,7.767-4.988,8.255c-0.248,0.036-0.495,0.055-0.739,0.055c-3.069,0-5.852-2.768-6.403-6.536
		c-0.595-4.07,1.639-7.767,4.989-8.255C331.275,290.16,331.523,290.143,331.77,290.143 M331.77,288.229L331.77,288.229
		c-0.34,0-0.683,0.025-1.018,0.074c-4.389,0.643-7.352,5.319-6.605,10.426c0.682,4.659,4.248,8.174,8.297,8.174
		c0.338,0,0.681-0.025,1.017-0.074c4.388-0.643,7.351-5.319,6.604-10.426C339.383,291.743,335.816,288.229,331.77,288.229"/>
	<path clip-path="url(#SVGID_4_)" fill="#1A1A19" d="M239.988,373.224c0,7.949-3.563,14.394-7.956,14.394s-7.956-6.444-7.956-14.394
		c0-7.948,3.563-14.393,7.956-14.393S239.988,365.275,239.988,373.224"/>
	<path clip-path="url(#SVGID_4_)" fill="#1A1A19" d="M232.032,388.586c-5.005,0-8.925-6.748-8.925-15.361
		c0-8.614,3.92-15.362,8.925-15.362c5.004,0,8.925,6.748,8.925,15.362C240.957,381.838,237.036,388.586,232.032,388.586
		 M232.032,359.799c-3.787,0-6.986,6.147-6.986,13.426c0,7.276,3.199,13.425,6.986,13.425c3.788,0,6.987-6.148,6.987-13.425
		C239.02,365.946,235.82,359.799,232.032,359.799"/>
	<path clip-path="url(#SVGID_4_)" fill="#1A1A19" d="M231.221,384.098c-2.059,0-4.928-4.867-4.928-12.793
		c0-7.927,2.869-12.794,4.928-12.794c2.058,0,4.928,4.867,4.928,12.794C236.148,379.23,233.278,384.098,231.221,384.098"/>
	<path clip-path="url(#SVGID_4_)" fill="#706F72" d="M231.221,360.117c1.022,0.336,3.328,4.442,3.328,11.188
		c0,6.744-2.306,10.851-3.328,11.188c-1.021-0.337-3.328-4.443-3.328-11.188C227.893,364.56,230.199,360.453,231.221,360.117
		 M231.221,356.911c-3.605,0-6.527,6.444-6.527,14.394s2.922,14.394,6.527,14.394s6.527-6.444,6.527-14.394
		S234.826,356.911,231.221,356.911"/>
	<path clip-path="url(#SVGID_4_)" fill="#1A1A19" d="M335.536,312.202c10.118,0,18.352,10.186,18.352,22.707
		c0,12.521-8.233,22.708-18.352,22.708c-10.119,0-18.353-10.188-18.353-22.708C317.184,322.388,325.417,312.202,335.536,312.202
		 M335.536,310.288c-11.192,0-20.265,11.022-20.265,24.621c0,13.598,9.072,24.622,20.265,24.622s20.265-11.024,20.265-24.622
		C355.801,321.311,346.729,310.288,335.536,310.288"/>
	<path clip-path="url(#SVGID_4_)" fill="#1A1A19" d="M254.779,373.215c0,8.684-3.193,15.723-7.132,15.723s-7.13-7.039-7.13-15.723
		c0-8.685,3.191-15.724,7.13-15.724S254.779,364.53,254.779,373.215"/>
	<path clip-path="url(#SVGID_4_)" fill="#1A1A19" d="M223.352,369.385c0,7.949-2.922,14.394-6.527,14.394
		c-3.604,0-6.527-6.444-6.527-14.394s2.923-14.393,6.527-14.393C220.43,354.992,223.352,361.436,223.352,369.385"/>
	<path clip-path="url(#SVGID_4_)" fill="#1A1A19" d="M216.825,384.655c-4.152,0-7.404-6.707-7.404-15.27
		c0-8.564,3.252-15.271,7.404-15.271c4.151,0,7.403,6.707,7.403,15.271C224.229,377.948,220.977,384.655,216.825,384.655
		 M216.825,355.868c-2.673,0-5.65,5.552-5.65,13.518c0,7.965,2.978,13.516,5.65,13.516s5.649-5.551,5.649-13.516
		C222.475,361.42,219.498,355.868,216.825,355.868"/>
	<path clip-path="url(#SVGID_4_)" fill="#1A1A19" d="M214.585,380.579c-2.058,0-4.929-4.867-4.929-12.793
		c0-7.927,2.871-12.794,4.929-12.794s4.928,4.867,4.928,12.794C219.513,375.712,216.643,380.579,214.585,380.579"/>
	<path clip-path="url(#SVGID_4_)" fill="#706F72" d="M214.586,356.598c1.021,0.337,3.327,4.442,3.327,11.188
		s-2.306,10.851-3.327,11.188c-1.023-0.337-3.328-4.442-3.328-11.188S213.563,356.935,214.586,356.598 M214.586,353.393
		c-3.605,0-6.527,6.443-6.527,14.393c0,7.95,2.922,14.395,6.527,14.395c3.604,0,6.526-6.444,6.526-14.395
		C221.112,359.836,218.19,353.393,214.586,353.393"/>
	<path clip-path="url(#SVGID_4_)" fill="#1A1A19" d="M335.535,310.288c-11.191,0-20.265,11.022-20.265,24.622
		c0,0.776,0.03,1.546,0.088,2.306c0.957,12.516,9.625,22.315,20.177,22.315c11.193,0,20.267-11.023,20.267-24.621
		C355.802,321.311,346.729,310.288,335.535,310.288 M337.131,355.462c-9.342,0-16.916-9.202-16.916-20.552
		c0-11.352,7.574-20.554,16.916-20.554c9.343,0,16.917,9.202,16.917,20.554C354.048,346.26,346.474,355.462,337.131,355.462"/>
	<path clip-path="url(#SVGID_4_)" fill="#1A1A19" d="M323.004,309.592L323.004,309.592c-4.812,0-8.959-3.436-9.859-8.171
		c-1.036-5.44,2.548-10.713,7.99-11.75c2.414-0.459,3.078-0.627,3.209-0.686c0.33-0.185,0.518-0.288,3.822-0.918
		c0.623-0.119,1.258-0.18,1.889-0.18c4.812,0,8.959,3.437,9.861,8.171c0.502,2.637-0.053,5.31-1.563,7.529
		c-1.51,2.221-3.793,3.718-6.43,4.221c-2.414,0.459-3.076,0.627-3.209,0.687c-0.328,0.184-0.516,0.288-3.82,0.918
		C324.271,309.531,323.635,309.592,323.004,309.592 M330.055,289.802c-0.51,0-1.025,0.05-1.531,0.146
		c-2.414,0.458-3.077,0.626-3.208,0.686c-0.33,0.185-0.519,0.288-3.823,0.918c-4.404,0.839-7.307,5.105-6.467,9.513
		c0.729,3.832,4.085,6.613,7.979,6.613c0.512,0,1.026-0.049,1.533-0.146c2.414-0.459,3.076-0.626,3.207-0.687
		c0.33-0.184,0.518-0.287,3.822-0.918c2.135-0.405,3.982-1.619,5.205-3.416c1.221-1.797,1.671-3.961,1.264-6.096
		C337.306,292.584,333.949,289.802,330.055,289.802"/>
	<path clip-path="url(#SVGID_4_)" fill="#1A1A19" d="M245.597,367.084l-0.272-0.102c-4.626-1.728-14.251-5.322-15.734-23.028
		c-1.492-17.821,10.845-25.686,11.369-26.013l0.244-0.151l0.284-0.035l28.851-3.669l3.93,2.904l59.813-9.212l0.4,2.602
		l-60.895,9.378l-3.963-2.928l-27.502,3.496c-1.648,1.125-11.173,8.315-9.908,23.409c1.343,16.044,9.597,19.126,14.031,20.783
		l0.276,0.103L245.597,367.084z"/>
	<path clip-path="url(#SVGID_4_)" fill="#1A1A19" d="M275.379,319.06h-2.631v-14.519c0-6.395,5.201-11.596,11.597-11.596
		c6.394,0,11.596,5.201,11.596,11.596v11.813h-2.63v-11.813c0-4.943-4.023-8.965-8.966-8.965c-4.944,0-8.966,4.021-8.966,8.965
		V319.06z"/>
	<rect x="256.793" y="307.178" clip-path="url(#SVGID_4_)" fill="#1A1A19" width="2.631" height="9.617"/>
	<polygon clip-path="url(#SVGID_4_)" fill="#1A1A19" points="365.636,411.353 356.097,379.302 368.127,410.504 	"/>
	<polygon clip-path="url(#SVGID_4_)" fill="#1A1A19" points="370.537,404.993 362.427,378.505 373.014,404.104 	"/>
	<polygon clip-path="url(#SVGID_4_)" fill="#1A1A19" points="356.682,411.279 349.639,380.896 359.218,410.577 	"/>
	<polygon clip-path="url(#SVGID_4_)" fill="#1A1A19" points="348.864,411.266 342.382,381.693 351.407,410.591 	"/>
	<polygon clip-path="url(#SVGID_4_)" fill="#1A1A19" points="340.811,411.266 334.328,381.693 343.354,410.591 	"/>
	<polygon clip-path="url(#SVGID_4_)" fill="#1A1A19" points="332.758,411.266 326.275,381.693 335.301,410.591 	"/>
	<polygon clip-path="url(#SVGID_4_)" fill="#1A1A19" points="323.086,411.166 319.02,381.693 325.674,410.69 	"/>
	<path clip-path="url(#SVGID_4_)" fill="#706F72" d="M370.197,383.145l-55.382,7.266c-1.746,0.23-3.349-0.997-3.58-2.744
		l-1.209-9.145c-0.231-1.746,0.997-3.35,2.743-3.58l55.381-7.267c1.746-0.23,3.35,0.998,3.58,2.744l1.21,9.146
		C373.172,381.311,371.943,382.914,370.197,383.145"/>
	<path clip-path="url(#SVGID_4_)" fill="#1A1A19" d="M339.293,316.839c-8.214,0.104-14.771,8.279-14.644,18.259
		c0.127,9.98,6.889,17.986,15.103,17.882c8.215-0.104,14.771-8.279,14.645-18.26C354.27,324.74,347.508,316.734,339.293,316.839"/>
	<path clip-path="url(#SVGID_4_)" fill="#706F72" d="M286.209,384.463c0,7.929-2.916,14.355-6.511,14.355
		c-3.597,0-6.511-6.427-6.511-14.355c0-7.928,2.914-14.354,6.511-14.354C283.293,370.108,286.209,376.535,286.209,384.463"/>
	<path clip-path="url(#SVGID_4_)" fill="#706F72" d="M305.737,370.936c-7.21-1.041-17.248-2.195-24.458-3.237
		c-5.522-0.797-10.646,3.033-11.443,8.556s3.033,10.646,8.555,11.443c7.211,1.041,17.248,2.195,24.459,3.236
		c5.521,0.798,10.645-3.032,11.442-8.556C315.09,376.856,311.26,371.732,305.737,370.936"/>
	<g opacity="0.5" clip-path="url(#SVGID_4_)">
		<g>
			<defs>
				<rect id="SVGID_11_" x="276.84" y="368.21" width="30.62" height="8.8"/>
			</defs>
			<clipPath id="SVGID_12_">
				<use xlink:href="#SVGID_11_"  overflow="visible"/>
			</clipPath>
			<polygon clip-path="url(#SVGID_12_)" fill="#F2F2F2" points="276.84,373.525 301.229,377.01 307.465,371.691 284.725,368.208 			
				"/>
		</g>
	</g>
	<g opacity="0.5" clip-path="url(#SVGID_4_)">
		<g>
			<defs>
				<rect id="SVGID_13_" x="307.311" y="367.68" width="64.689" height="11.62"/>
			</defs>
			<clipPath id="SVGID_14_">
				<use xlink:href="#SVGID_13_"  overflow="visible"/>
			</clipPath>
			<polyline clip-path="url(#SVGID_14_)" fill="#F2F2F2" points="307.307,376.555 311.523,379.302 371.998,370.842 368.15,367.675 
				308.268,376.555 			"/>
		</g>
	</g>
	<path clip-path="url(#SVGID_4_)" fill="#1A1A19" d="M314.395,391.754c-2.25,0-4.168-1.684-4.465-3.915l-1.209-9.146
		c-0.158-1.193,0.159-2.376,0.891-3.332c0.732-0.955,1.793-1.567,2.986-1.725l55.381-7.267c2.465-0.331,4.735,1.449,5.058,3.876
		l1.209,9.146c0.157,1.192-0.158,2.376-0.892,3.33c-0.73,0.957-1.791,1.568-2.984,1.727l-55.383,7.266
		C314.789,391.741,314.591,391.754,314.395,391.754 M368.572,368.963c-0.083,0-0.166,0.005-0.25,0.018l-55.381,7.265
		c-0.496,0.066-0.937,0.321-1.24,0.718c-0.305,0.396-0.438,0.89-0.37,1.385l1.209,9.146c0.134,1.011,1.062,1.758,2.104,1.613
		l55.381-7.267c0.494-0.064,0.937-0.319,1.24-0.717c0.305-0.396,0.437-0.889,0.369-1.386l-1.209-9.146
		C370.303,369.663,369.507,368.963,368.572,368.963"/>
	<path clip-path="url(#SVGID_4_)" fill="#1A1A19" d="M304.305,391.995L304.305,391.995c-0.529,0-1.064-0.038-1.592-0.114
		c-3.597-0.52-7.979-1.077-12.213-1.617c-4.244-0.539-8.632-1.099-12.245-1.619c-2.924-0.422-5.508-1.958-7.278-4.324
		c-1.768-2.367-2.508-5.28-2.088-8.204c0.781-5.404,5.481-9.479,10.934-9.479c0.529,0,1.066,0.038,1.594,0.114
		c3.596,0.521,7.977,1.077,12.213,1.616c4.244,0.54,8.631,1.099,12.245,1.62c6.036,0.873,10.237,6.493,9.365,12.528
		C314.459,387.92,309.759,391.995,304.305,391.995 M279.822,368.55c-4.508,0-8.395,3.37-9.038,7.841
		c-0.351,2.418,0.264,4.826,1.726,6.783c1.463,1.957,3.6,3.228,6.018,3.575c3.598,0.521,7.979,1.077,12.214,1.617
		c4.243,0.54,8.632,1.099,12.245,1.621c0.437,0.063,0.881,0.095,1.318,0.095c4.508,0,8.396-3.371,9.039-7.841
		c0.723-4.991-2.752-9.638-7.744-10.359c-3.596-0.519-7.976-1.077-12.213-1.616c-4.244-0.539-8.631-1.099-12.244-1.619
		C280.705,368.582,280.26,368.55,279.822,368.55"/>
	<path clip-path="url(#SVGID_4_)" fill="#1A1A19" d="M303.119,384.635l-32.288-3.839c0,0-1.079,5.728,7.388,6.873
		c8.467,1.144,27.079,3.318,27.079,3.318L303.119,384.635z"/>
	<polygon clip-path="url(#SVGID_4_)" fill="#1A1A19" points="277.055,379.302 258.107,377.707 240.627,377.334 199.531,371.111 
		191.451,363.212 237.766,361.087 261.545,364.609 277.646,370.225 	"/>
	<path clip-path="url(#SVGID_4_)" fill="#1A1A19" d="M288.483,355.428c-4.866-6.349-7.585-19.324-3.491-29.216
		c3.97-9.594,12.896-12.765,13.273-12.896l0.858,2.487l-0.429-1.243l0.432,1.242c-0.082,0.028-8.199,2.947-11.703,11.415
		c-3.617,8.741-1.293,20.815,3.147,26.608L288.483,355.428z"/>
	<path clip-path="url(#SVGID_4_)" fill="#1A1A19" d="M263.591,359.415c-4.866-6.349-7.585-19.323-3.491-29.216
		c3.97-9.594,12.896-12.765,13.273-12.896l0.858,2.487l-0.429-1.244l0.432,1.243c-0.082,0.028-8.199,2.947-11.703,11.415
		c-3.617,8.741-1.293,20.815,3.147,26.608L263.591,359.415z"/>
	<path clip-path="url(#SVGID_4_)" fill="#706F72" d="M352.854,334.909c0-7.875-5.254-14.258-11.735-14.258
		c-3.888,0-7.333,2.297-9.469,5.834l20.64,12.802C352.654,337.907,352.854,336.437,352.854,334.909"/>
	<polygon clip-path="url(#SVGID_4_)" fill="#1A1A19" points="309.41,345.44 199.484,351.037 200.152,362.657 314.75,357.529 	"/>
	<g opacity="0.5" clip-path="url(#SVGID_4_)">
		<g>
			<defs>
				<rect id="SVGID_15_" x="199.51" y="354.97" width="119.26" height="10.29"/>
			</defs>
			<clipPath id="SVGID_16_">
				<use xlink:href="#SVGID_15_"  overflow="visible"/>
			</clipPath>
			<polygon clip-path="url(#SVGID_16_)" fill="#1A1A19" points="199.514,360.098 199.531,365.266 318.77,363.779 314.11,354.97 			
				"/>
		</g>
	</g>
	<path clip-path="url(#SVGID_4_)" fill="#1A1A19" d="M350.477,343.509c0.785-1.26,1.404-2.684,1.813-4.222l-20.639-12.803
		c-0.451,0.748-0.845,1.551-1.17,2.399C330.732,335.092,332.99,351.968,350.477,343.509"/>
	<path clip-path="url(#SVGID_4_)" fill="#1A1A19" d="M341.118,349.167c3.821,0,7.215-2.222,9.358-5.659
		c-17.486,8.459-19.744-8.416-19.996-14.625c-0.705,1.83-1.099,3.872-1.099,6.026C329.382,342.783,334.637,349.167,341.118,349.167"
		/>
	<path clip-path="url(#SVGID_4_)" fill="#1A1A19" d="M299.793,363.881l-2.69,5.519c0,0-5.839-0.081-10.336,0.298
		c-9.474,0.797-12.346,12.987-0.71,19.034l-11.992-1.19c0,0-12.512-6.067,2.627-23.762L299.793,363.881z"/>
	<path clip-path="url(#SVGID_4_)" fill="#1A1A19" d="M326.575,373.753c-1.276,0-4.386-0.366-6.097-3.723l-10.035-20.908
		c-0.088-0.281-1.021-2.858-5.015-2.374c-5.305,0.635-79.76,3.219-82.927,3.328l-0.092-2.629c0.773-0.027,77.511-2.69,82.705-3.313
		c4.965-0.598,7.26,2.387,7.822,4.147l9.898,20.58c1.282,2.513,3.895,2.259,4.006,2.248l29.611-3.303l0.291,2.614l-29.604,3.304
		C327.107,373.729,326.9,373.753,326.575,373.753"/>
	<path clip-path="url(#SVGID_4_)" fill="#1A1A19" d="M314.563,380.697c0.001,5.221-3.661,9.452-8.18,9.454
		c-4.519,0.001-8.184-4.229-8.185-9.449c-0.002-5.22,3.66-9.453,8.179-9.454C310.896,371.247,314.561,375.478,314.563,380.697"/>
	<path clip-path="url(#SVGID_4_)" fill="#706F72" d="M312.359,380.791c0.001,3.401-2.387,6.16-5.331,6.162
		c-2.945,0.001-5.334-2.758-5.335-6.159c-0.002-3.402,2.386-6.161,5.33-6.162C309.969,374.631,312.357,377.389,312.359,380.791"/>
	<polygon clip-path="url(#SVGID_4_)" fill="#1A1A19" points="243.58,330.408 243.698,349.167 218.727,351.678 215.982,329.969 
		221.666,327.643 	"/>
	
		<rect x="271.693" y="319.258" transform="matrix(0.0127 0.9999 -0.9999 0.0127 633.7762 86.2169)" clip-path="url(#SVGID_4_)" fill="#1A1A19" width="3.07" height="89.595"/>
	<polygon clip-path="url(#SVGID_4_)" fill="#1A1A19" points="277.22,372.097 282.188,364.645 244.928,364.645 	"/>
	<polygon clip-path="url(#SVGID_4_)" fill="#FFFFFF" points="327.406,281.424 329.744,275.371 335.796,279.498 335.934,282.523 	"/>
	<g opacity="0.5" clip-path="url(#SVGID_4_)">
		<g>
			<defs>
				<rect id="SVGID_17_" x="295.641" y="387.67" width="25.84" height="14.3"/>
			</defs>
			<clipPath id="SVGID_18_">
				<use xlink:href="#SVGID_17_"  overflow="visible"/>
			</clipPath>
			<path clip-path="url(#SVGID_18_)" fill="#1A1A19" d="M295.636,390.764c0,0,8.771,21.65,25.841,4.773l-1.549-5.821l-6.413,1.048
				l-2.279-3.098L295.636,390.764z"/>
		</g>
	</g>
	<g opacity="0.5" clip-path="url(#SVGID_4_)">
		<g>
			<defs>
				<rect id="SVGID_19_" x="271.23" y="384.37" width="15.24" height="8.43"/>
			</defs>
			<clipPath id="SVGID_20_">
				<use xlink:href="#SVGID_19_"  overflow="visible"/>
			</clipPath>
			<path clip-path="url(#SVGID_20_)" fill="#1A1A19" d="M271.229,386.192c0,0,5.174,12.771,15.241,2.816l-0.914-3.435l-3.782,0.618
				l-1.345-1.827L271.229,386.192z"/>
		</g>
	</g>
	<polygon clip-path="url(#SVGID_4_)" fill="#1A1A19" points="295.504,275.35 301.504,287.35 322.879,284.6 327.504,271.1 
		317.004,267.725 	"/>
</g>
<path fill="#1A1A19" d="M319.854,273.365h0.084c1.125,0.014,1.825,0.273,1.98,0.363l65.506,37.82
	c0.848,0.49,2.063,2.593,2.063,3.573v75.64c0,0.98-1.215,3.083-2.063,3.573l-65.506,37.819c-0.156,0.091-0.855,0.351-1.977,0.364
	h-0.088c-1.168,0-1.898-0.269-2.062-0.364l-65.507-37.819c-0.849-0.49-2.063-2.593-2.063-3.573v-75.64
	c0-0.98,1.214-3.083,2.063-3.573l65.507-37.82C317.955,273.635,318.686,273.365,319.854,273.365 M319.854,265.085
	c-2.248,0-4.496,0.489-6.201,1.473l-65.506,37.82c-3.412,1.97-6.203,6.805-6.203,10.744v75.64c0,3.94,2.791,8.774,6.203,10.744
	l65.506,37.82c1.705,0.984,3.953,1.473,6.201,1.473c0.061,0,0.122,0,0.184-0.001c2.188-0.026,4.361-0.514,6.021-1.472l65.507-37.82
	c3.411-1.97,6.202-6.804,6.202-10.744v-75.64c0-3.939-2.791-8.774-6.202-10.744l-65.507-37.82c-1.659-0.958-3.833-1.446-6.021-1.472
	C319.976,265.085,319.914,265.085,319.854,265.085"/>
<path fill="#1A1A19" d="M312.415,380.275c0,4.254-2.956,7.702-6.603,7.702c-3.646,0-6.601-3.448-6.601-7.702
	s2.955-7.702,6.601-7.702C309.459,372.573,312.415,376.021,312.415,380.275"/>
</svg>
