<?xml version="1.0" encoding="utf-8"?>
<!-- Generator: Adobe Illustrator 16.0.0, SVG Export Plug-In . SVG Version: 6.00 Build 0)  -->
<!DOCTYPE svg PUBLIC "-//W3C//DTD SVG 1.1//EN" "http://www.w3.org/Graphics/SVG/1.1/DTD/svg11.dtd">
<svg version="1.1" id="Layer_1" xmlns="http://www.w3.org/2000/svg" xmlns:xlink="http://www.w3.org/1999/xlink" x="0px" y="0px"
	 width="240px" height="195px" viewBox="0 0 240 195" enable-background="new 0 0 240 195" xml:space="preserve">
<path fill="none" d="M78.63-2257.76"/>
<path fill="none" d="M78.63,987.837"/>
<path fill="none" d="M51.764,1616.837"/>
<path fill="none" d="M51.764-1628.76"/>
<path fill="#E5CA51" d="M52.146,145.506l65.506,37.82c1.752,1.012,4.076,1.5,6.385,1.472c2.188-0.026,4.361-0.515,6.021-1.472
	l65.507-37.82c3.411-1.971,6.201-6.805,6.201-10.744v-75.64c0-3.939-2.79-8.774-6.201-10.743l-65.507-37.821
	c-1.659-0.958-3.833-1.446-6.021-1.472c-2.309-0.027-4.633,0.461-6.385,1.472L52.146,48.379c-3.412,1.969-6.203,6.804-6.203,10.743
	v75.64C45.943,138.701,48.734,143.535,52.146,145.506"/>
<path fill="#E5CA51" d="M193.914,142.991c3.234-1.868,5.881-6.452,5.881-10.188V61.08c0-3.735-2.646-8.319-5.881-10.188
	l-62.115-35.861c-1.457-0.842-3.332-1.295-5.248-1.378V180.23c1.916-0.082,3.791-0.537,5.248-1.378L193.914,142.991z"/>
<g opacity="0.4">
	<g>
		<defs>
			<rect id="SVGID_1_" x="45.92" y="9.08" width="155.82" height="175.72"/>
		</defs>
		<clipPath id="SVGID_2_">
			<use xlink:href="#SVGID_1_"  overflow="visible"/>
		</clipPath>
		<path clip-path="url(#SVGID_2_)" fill="#FFFFFF" d="M123.826,25.143l62.18,35.9v71.799l-62.18,35.898l-62.18-35.898V61.043
			L123.826,25.143 M123.825,9.085c-2.249,0-4.497,0.489-6.2,1.473l-65.508,37.82c-3.411,1.97-6.201,6.805-6.201,10.744v75.64
			c0,3.94,2.79,8.774,6.201,10.744l65.508,37.82c1.703,0.984,3.951,1.473,6.2,1.473c0.062,0,0.122,0,0.184-0.001
			c2.187-0.026,4.361-0.514,6.021-1.472l65.506-37.82c3.412-1.97,6.203-6.804,6.203-10.744v-75.64c0-3.939-2.791-8.774-6.203-10.744
			l-65.506-37.82c-1.659-0.958-3.834-1.446-6.021-1.472C123.947,9.085,123.885,9.085,123.825,9.085"/>
	</g>
</g>
<path fill="#1A1A19" d="M123.854,17.365h0.084c1.125,0.014,1.824,0.273,1.98,0.363l65.506,37.82c0.848,0.49,2.063,2.593,2.063,3.573
	v75.64c0,0.98-1.215,3.083-2.063,3.573l-65.506,37.819c-0.156,0.091-0.855,0.351-1.977,0.364h-0.088
	c-1.168,0-1.898-0.269-2.061-0.364l-65.508-37.819c-0.849-0.49-2.063-2.593-2.063-3.573v-75.64c0-0.98,1.214-3.083,2.063-3.573
	l65.508-37.82C121.955,17.635,122.686,17.365,123.854,17.365 M123.854,9.085c-2.248,0-4.496,0.489-6.201,1.473l-65.506,37.82
	c-3.412,1.97-6.203,6.805-6.203,10.744v75.64c0,3.94,2.791,8.774,6.203,10.744l65.506,37.82c1.705,0.984,3.953,1.473,6.201,1.473
	c0.061,0,0.122,0,0.184-0.001c2.188-0.026,4.361-0.514,6.021-1.472l65.507-37.82c3.411-1.97,6.201-6.804,6.201-10.744v-75.64
	c0-3.939-2.79-8.774-6.201-10.744l-65.507-37.82c-1.659-0.958-3.833-1.446-6.021-1.472C123.976,9.085,123.914,9.085,123.854,9.085"
	/>
<g>
	<defs>
		<path id="SVGID_3_" d="M117.652,10.558l-65.508,37.82c-3.41,1.97-6.201,6.805-6.201,10.744v75.639
			c0,3.941,2.791,8.774,6.201,10.744l65.508,37.82c1.752,1.013,4.076,1.501,6.385,1.474c2.188-0.027,4.361-0.514,6.021-1.474
			l65.504-37.82c3.414-1.97,6.205-6.803,6.205-10.744V59.122c0-3.939-2.791-8.774-6.205-10.744l-65.504-37.82
			c-1.66-0.957-3.834-1.444-6.021-1.472c-0.064-0.001-0.127-0.001-0.191-0.001C121.6,9.085,119.355,9.575,117.652,10.558"/>
	</defs>
	<clipPath id="SVGID_4_">
		<use xlink:href="#SVGID_3_"  overflow="visible"/>
	</clipPath>
	<polygon clip-path="url(#SVGID_4_)" fill="#FFFFFF" points="86.464,32.975 105.783,23.314 105.23,48.154 	"/>
	<path clip-path="url(#SVGID_4_)" fill="#FFFFFF" d="M174.321,131.499c-3.91,0-7.091-3.181-7.091-7.091
		c0-3.911,3.181-7.092,7.091-7.092c3.909,0,7.091,3.181,7.091,7.092C181.412,128.318,178.23,131.499,174.321,131.499
		 M174.321,124.142c-0.147,0-0.267,0.119-0.267,0.267c0,0.296,0.533,0.294,0.533,0C174.588,124.261,174.469,124.142,174.321,124.142
		"/>
	<path clip-path="url(#SVGID_4_)" fill="#FFFFFF" d="M116.6,25.139c4.047,0,7.328,3.28,7.328,7.328v2.144
		c2.638-0.503,3.935-0.749,8.416-1.603c0.574-0.109,1.146-0.162,1.711-0.162c4.277,0,8.091,3.035,8.92,7.392
		c0.939,4.932-2.297,9.692-7.229,10.631c-6.031,1.148-6.295,1.199-11.818,2.251v2.707c3.345-0.378,7.08-0.789,11.307-1.244
		l0.012,0.129c0.717-0.092,1.442-0.14,2.178-0.14c11.301,0,20.461,11.128,20.461,24.857c0,6.81-2.256,12.979-5.906,17.469
		l6.703,16.536l10.568,4.783l10.092,24.591l-9.258,11.323l-42.346-0.798l-2.58-13.279l-2.074-0.475
		c-0.014,7.827-3.924,14.166-8.742,14.166c-4.828,0-8.744-6.36-8.744-14.208c0-1.344,0.115-2.644,0.33-3.877l-13.871-3.168
		c-0.146,6.134-3.252,11.035-7.061,11.035c-3.904,0-7.07-5.143-7.07-11.486c0-0.94,0.07-1.855,0.203-2.73l-11.951-2.73l-6.578,2.021
		c-1.473,3.451-3.561,5.605-5.879,5.605c-1.516,0-2.935-0.923-4.148-2.527l-1.181,0.362l-11.978-4.012
		c-0.486,0.254-0.992,0.389-1.513,0.389c-1.216,0-2.354-0.733-3.329-2.011l-32.464-10.874l3.349-38.517l4.547-1.914l1.195-7.416
		l21.771-13.013c5.436-0.852,10.611-1.19,15.404-1.19c6.957,0.001,13.109,0.714,18.088,1.606v-3.911c0-5.021,4.07-9.092,9.092-9.092
		c2.955,0,5.582,1.411,7.242,3.597c1.269-3.493,4.617-5.988,8.547-5.988c5.021,0,9.092,4.07,9.092,9.091v10.312
		c3.656-0.487,7.343-0.978,11.836-1.537V32.467C109.271,28.419,112.553,25.139,116.6,25.139 M116.6,16.582
		c-8.758,0-15.883,7.125-15.883,15.885v3.746c-3.189-3.136-7.559-5.073-12.373-5.073c-3.743,0-7.299,1.195-10.227,3.277
		c-1.766-0.582-3.639-0.886-5.563-0.886c-7.717,0-14.293,4.979-16.684,11.893c-3.488-0.329-6.996-0.496-10.496-0.496
		c-5.623,0-11.252,0.436-16.729,1.294l-1.64,0.257L25.58,47.33L3.81,60.342l-3.423,2.046l-0.635,3.936l-0.441,2.734l-0.174,0.073
		l-4.756,2.002l-0.447,5.143l-3.35,38.517L-10,121.506l6.391,2.141l30.482,10.21c2.32,2.028,5.092,3.118,8.028,3.118
		c0.376,0,0.748-0.019,1.119-0.055l9.653,3.234l0.713,0.238c2.214,1.549,4.717,2.37,7.334,2.37c2.34,0,7.648-0.765,11.74-7.013
		l1.041-0.318l3.17,0.724c1.4,9.318,7.521,15.928,15.324,15.928c5.135,0,9.59-2.944,12.413-7.654
		c1.61,10.468,8.354,17.872,16.933,17.872c2.189,0,4.26-0.483,6.156-1.377l0.162,0.834l6.918,0.13l42.344,0.798l4.154,0.078
		l2.631-3.217l9.258-11.323l3.227-3.947l-1.934-4.717l-10.092-24.591l-1.291-3.145l-3.097-1.402l-7.452-3.373l-3.701-9.132
		c3.129-5.435,4.814-11.834,4.814-18.488c0-13.216-6.695-24.663-16.387-30.08c1.502-3.234,2.043-6.95,1.328-10.712
		c-1.584-8.313-8.869-14.347-17.326-14.348c-1.105,0-2.221,0.105-3.312,0.313l-0.313,0.06
		C127.699,19.842,122.523,16.582,116.6,16.582"/>
	<path clip-path="url(#SVGID_4_)" fill="#FFFFFF" d="M158.826,106.229c0.314,0,0.633,0.018,0.951,0.054
		c6.031,0.678,6.031,0.678,12.061,1.356c4.619,0.521,7.941,4.687,7.422,9.306c-0.484,4.299-4.127,7.476-8.354,7.476
		c-0.313,0-0.631-0.018-0.951-0.054c-6.03-0.679-6.03-0.679-12.061-1.357c-4.619-0.52-7.941-4.686-7.422-9.305
		C150.957,109.404,154.6,106.229,158.826,106.229 M158.826,100.678c-7.11,0-13.072,5.333-13.867,12.405
		c-0.863,7.652,4.662,14.579,12.314,15.441l12.061,1.356c0.521,0.06,1.05,0.089,1.572,0.089c7.111,0,13.072-5.333,13.869-12.404
		c0.418-3.707-0.635-7.355-2.961-10.271c-2.326-2.917-5.648-4.753-9.355-5.17l-12.061-1.358
		C159.877,100.708,159.348,100.678,158.826,100.678"/>
	<path clip-path="url(#SVGID_4_)" fill="#D37B28" d="M43.502,161.565c0.551,0,0.551-0.858,0-0.858
		C42.947,160.707,42.947,161.565,43.502,161.565"/>
	<polygon clip-path="url(#SVGID_4_)" fill="#1A1A19" points="9.725,118.736 165.801,148.913 149.805,181.3 16.641,238.214 	"/>
	<path clip-path="url(#SVGID_4_)" fill="#FFFFFF" d="M106.594,32.438L106.594,32.438c-2.701,0-5.074-1.631-6.135-3.983
		c-2.141-1.365-3.584-3.956-3.765-6.348l-0.278-3.668l37.649-2.86l0.279,3.669c0.181,2.387-0.849,5.157-2.747,6.832
		c-0.26,0.955-0.729,1.842-1.387,2.608c-1.172,1.364-2.803,2.188-4.594,2.325l-18.511,1.406
		C106.934,32.434,106.764,32.438,106.594,32.438 M107.22,24.998v0.033l17.175-1.305l-0.004-0.033L107.22,24.998z"/>
	<path clip-path="url(#SVGID_4_)" fill="#706F72" d="M74.469,67.686l3.189-5.104c0,0,2.563-1.382-3.863-3.569
		c-3.166-1.077-5.418,2.522-10.781,1.566c-1.383-0.246-0.422-6.857-1.889-7.067c-8.465-1.215-22.877-0.135-31.156,1.162
		L8.199,67.686l-1.195,7.416l-4.547,1.914l-3.349,38.519l49.283,16.507l27.272-8.373L74.469,67.686z"/>
	<path clip-path="url(#SVGID_4_)" fill="#1A1A19" d="M127.309,142.977c-0.708,7.896-5.891,13.886-11.574,13.375
		c-5.686-0.51-9.719-7.323-9.012-15.22c0.709-7.896,5.891-13.885,11.574-13.376C123.982,128.266,128.016,135.081,127.309,142.977"/>
	<path clip-path="url(#SVGID_4_)" fill="#706F72" d="M171.838,107.639c-6.029-0.679-6.029-0.679-12.061-1.357
		c-4.618-0.52-8.783,2.803-9.305,7.422c-0.52,4.619,2.805,8.785,7.422,9.305c6.031,0.68,6.031,0.68,12.061,1.358
		c4.619,0.521,8.785-2.803,9.305-7.422S176.457,108.159,171.838,107.639"/>
	<path clip-path="url(#SVGID_4_)" fill="#1A1A19" d="M170.906,125.377L170.906,125.377c-0.351,0-0.703-0.02-1.059-0.059
		l-12.061-1.359c-2.486-0.28-4.717-1.511-6.278-3.469c-1.562-1.957-2.267-4.406-1.987-6.895c0.575-5.094,5.156-8.849,10.363-8.265
		l12.061,1.356c5.135,0.579,8.844,5.229,8.266,10.364C179.677,121.798,175.677,125.377,170.906,125.377 M158.827,107.185
		c-3.796,0-6.978,2.85-7.403,6.626c-0.223,1.979,0.338,3.929,1.58,5.485c1.244,1.558,3.018,2.538,4.999,2.761l12.06,1.358
		c4.146,0.469,7.789-2.524,8.246-6.578c0.461-4.087-2.49-7.787-6.578-8.247l-12.06-1.357
		C159.388,107.201,159.105,107.185,158.827,107.185"/>
	<path clip-path="url(#SVGID_4_)" fill="#1A1A19" d="M179.441,115.537c0.137,4.347-2.802,7.967-6.564,8.086
		c-3.762,0.118-6.924-3.309-7.061-7.654c-0.139-4.346,2.801-7.966,6.563-8.085C176.142,107.765,179.304,111.191,179.441,115.537"/>
	<polygon clip-path="url(#SVGID_4_)" fill="#706F72" points="149.828,90.878 158.682,113.434 168.25,118.217 180.762,146.229 
		170.084,154.131 127.738,153.333 123.928,133.716 120.387,117.447 116.6,98.787 	"/>
	<path clip-path="url(#SVGID_4_)" fill="#1A1A19" d="M116.6,25.139c4.047,0,7.328,3.281,7.328,7.328v2.144
		c2.638-0.503,3.935-0.749,8.416-1.603c0.574-0.109,1.146-0.162,1.711-0.162c4.277,0,8.091,3.035,8.92,7.392
		c0.939,4.933-2.297,9.692-7.229,10.631c-6.031,1.148-6.295,1.199-11.818,2.251v2.707c3.345-0.378,7.08-0.789,11.307-1.244
		l0.012,0.129c0.717-0.092,1.442-0.141,2.178-0.141c11.301,0,20.461,11.129,20.461,24.858c0,6.81-2.256,12.979-5.906,17.469
		l6.703,16.536l9.568,4.784l12.236,27.734l-10.402,8.179l-42.346-0.798l-2.58-13.279l-2.074-0.475
		c-0.014,7.827-3.924,14.166-8.742,14.166c-4.828,0-8.744-6.36-8.744-14.208c0-1.344,0.115-2.644,0.33-3.877l-13.871-3.168
		c-0.146,6.134-3.252,11.035-7.061,11.035c-3.904,0-7.07-5.143-7.07-11.486c0-0.94,0.07-1.855,0.203-2.73l-15.914-3.523
		l-2.615,2.813c-1.473,3.45-3.561,5.605-5.879,5.605c-1.516,0-2.935-0.923-4.148-2.527l-1.181,0.362l-11.978-4.012
		c-0.486,0.254-0.992,0.389-1.513,0.389c-1.216,0-2.354-0.733-3.329-2.011l-32.464-10.874l3.349-38.517l4.547-1.914l1.195-7.417
		l21.771-13.012c5.436-0.852,10.611-1.19,15.404-1.19c6.957,0.001,13.109,0.714,18.088,1.606v-3.911c0-5.021,4.07-9.091,9.092-9.091
		c2.955,0,5.582,1.41,7.242,3.596c1.269-3.493,4.617-5.988,8.547-5.988c5.021,0,9.092,4.07,9.092,9.091v10.312
		c3.656-0.487,7.343-0.978,11.836-1.537V32.467C109.271,28.42,112.553,25.139,116.6,25.139 M116.6,21.299
		c-6.157,0-11.168,5.01-11.168,11.168v21.709c-1.467,0.188-2.848,0.367-4.157,0.539v-5.929c0-7.13-5.8-12.93-12.931-12.93
		c-3.623,0-7.008,1.53-9.406,4.065c-1.914-1.088-4.098-1.674-6.383-1.674c-6.938,0-12.617,5.491-12.918,12.356
		c-4.717-0.638-9.496-0.96-14.262-0.96c-5.379,0-10.762,0.416-16,1.236l-0.734,0.115L28,51.379L6.229,64.391l-1.536,0.918
		l-0.284,1.766l-0.856,5.316l-2.586,1.087l-2.133,0.898l-0.201,2.308l-3.35,38.518l-0.262,3.012l2.867,0.961l31.473,10.541
		c1.596,1.648,3.525,2.543,5.54,2.543c0.517,0,1.028-0.059,1.532-0.174l10.738,3.598l1.168,0.391l0.102-0.031
		c1.939,1.609,3.861,2.004,5.279,2.004c2.178,0,6.199-0.966,9.125-7.3l0.685-0.734l10.56,2.338
		c0.112,8.446,4.861,15.018,10.906,15.018c4.859,0,8.854-4.151,10.311-10.194l6.468,1.478c-0.011,0.296-0.015,0.592-0.015,0.888
		c0,10.12,5.526,18.047,12.582,18.047c3.672,0,6.934-2.152,9.215-5.646l0.414,2.128l0.592,3.048l3.104,0.059l42.346,0.798
		l1.367,0.024l1.076-0.846l10.404-8.178l2.343-1.842L184,144.403l-12.236-27.736l-0.559-1.265l-1.238-0.619l-8.272-4.136
		l-5.347-13.191c3.48-5.087,5.375-11.4,5.375-18.027c0-13.641-8.098-25.087-18.916-27.987c3.168-2.93,4.805-7.38,3.939-11.922
		c-1.16-6.091-6.498-10.514-12.691-10.514c-0.811,0-1.627,0.077-2.43,0.23l-4.129,0.786C126.379,25.036,121.918,21.299,116.6,21.299
		"/>
	<path clip-path="url(#SVGID_4_)" fill="#706F72" d="M63.464,51.179v12.838c0,4.902,3.881,8.897,8.737,9.083V42.095
		C67.345,42.28,63.464,46.275,63.464,51.179"/>
	<path clip-path="url(#SVGID_4_)" fill="#BFBDC1" d="M72.555,42.088c-0.118,0-0.236,0.003-0.354,0.007V73.1
		c0.117,0.005,0.235,0.008,0.354,0.008c5.021,0,9.091-4.07,9.091-9.091V51.179C81.646,46.157,77.576,42.088,72.555,42.088"/>
	<path clip-path="url(#SVGID_4_)" fill="#706F72" d="M88.345,39.695c-5.021,0-9.091,4.07-9.091,9.091v12.838
		c0,5.021,4.069,9.091,9.091,9.091c0.442,0,0.878-0.031,1.304-0.093V39.789C89.223,39.728,88.787,39.695,88.345,39.695"/>
	<path clip-path="url(#SVGID_4_)" fill="#BFBDC1" d="M89.648,39.789v30.833c4.403-0.634,7.787-4.42,7.787-8.998V48.787
		C97.436,44.209,94.052,40.422,89.648,39.789"/>
	<path clip-path="url(#SVGID_4_)" fill="#706F72" d="M116.6,25.139c-4.047,0-7.327,3.28-7.327,7.328v27.092
		c0,4.047,3.28,7.327,7.327,7.327s7.328-3.28,7.328-7.327V32.467C123.928,28.419,120.646,25.139,116.6,25.139"/>
	<path clip-path="url(#SVGID_4_)" fill="#706F72" d="M157.885,79.428c0-13.728-9.16-24.856-20.46-24.856
		c-0.735,0-1.462,0.048-2.178,0.14l-0.011-0.129c-40.686,4.377-35.791,4.77-76.475,9.147l-5.107-0.831
		c-10.277,1.32-18.283,11.883-18.283,24.718c0,13.728,9.16,24.857,20.46,24.857c0.735,0,6.581,0.911,7.297,0.818l0.011,0.13
		c40.685-4.378,35.791-4.77,76.475-9.147l-0.012-0.129C149.877,102.824,157.885,92.264,157.885,79.428"/>
	<g opacity="0.5" clip-path="url(#SVGID_4_)">
		<g>
			<defs>
				<rect id="SVGID_5_" x="142.51" y="96.59" width="16.01" height="19.21"/>
			</defs>
			<clipPath id="SVGID_6_">
				<use xlink:href="#SVGID_5_"  overflow="visible"/>
			</clipPath>
			<polygon clip-path="url(#SVGID_6_)" fill="#F2F2F2" points="142.508,101.976 146.746,115.797 158.521,113.296 152.358,96.589 			
				"/>
		</g>
	</g>
	<g opacity="0.5" clip-path="url(#SVGID_4_)">
		<g>
			<defs>
				<rect id="SVGID_7_" x="121.74" y="55.98" width="37" height="31.319"/>
			</defs>
			<clipPath id="SVGID_8_">
				<use xlink:href="#SVGID_7_"  overflow="visible"/>
			</clipPath>
			<path clip-path="url(#SVGID_8_)" fill="#F2F2F2" d="M122.77,87.304c0,0,2.363-6.98,7.174-8.395c0,0-0.117-14.57,9.592-13.961
				c9.711,0.611,17.48,2.358,18.862,7.578c1.381,5.22-0.964-16.994-16.13-16.54C127.102,56.441,118.678,73.666,122.77,87.304"/>
		</g>
	</g>
	<polygon clip-path="url(#SVGID_4_)" fill="#1A1A19" points="66.615,124.896 49.979,134.151 7.361,120.555 3.484,95.677 
		67.832,99.568 	"/>
	<path clip-path="url(#SVGID_4_)" fill="#1A1A19" d="M63.598,54.158c0,0-14.385-2.25-32.158,0L8.736,68.481l9.107,14.421
		l37.252-10.689L63.598,54.158z"/>
	<path clip-path="url(#SVGID_4_)" fill="#706F72" d="M130.93,141.371l-70.227-16.042l2.761-29.652c0,0,57.767,2.008,60.462,1.367
		C126.625,96.401,130.93,141.371,130.93,141.371"/>
	<path clip-path="url(#SVGID_4_)" fill="#BDBEC0" d="M61.789,62.689c0,0-4.573-0.998-15.338,0.37
		c-10.766,1.368-11.668,20.942-11.668,20.942l88.236-10.895c2.633-13.872,16.516-17.12,16.516-17.12l-4.299-1.405L71.119,63.06
		L61.789,62.689z"/>
	<path clip-path="url(#SVGID_4_)" fill="#706F72" d="M142.976,40.237c-0.94-4.932-5.181-8.268-9.472-7.451
		c-5.486,1.046-5.486,1.046-10.973,2.091c-4.293,0.816-7.01,5.478-6.07,10.409c0.939,4.933,5.18,8.269,9.471,7.451
		c5.486-1.045,5.486-1.045,10.974-2.09C141.197,49.83,143.914,45.17,142.976,40.237"/>
	<g opacity="0.5" clip-path="url(#SVGID_4_)">
		<g>
			<defs>
				<rect id="SVGID_9_" x="118.18" y="37.05" width="15.42" height="5.17"/>
			</defs>
			<clipPath id="SVGID_10_">
				<use xlink:href="#SVGID_9_"  overflow="visible"/>
			</clipPath>
			
				<rect x="124.814" y="31.986" transform="matrix(0.2006 0.9797 -0.9797 0.2006 139.4691 -91.647)" clip-path="url(#SVGID_10_)" fill="#F2F2F2" width="2.152" height="15.295"/>
		</g>
	</g>
	<path clip-path="url(#SVGID_4_)" fill="#1A1A19" d="M118.084,45.242l14.521-3.154l5.422,8.23l-12.328,2.762
		C125.699,53.08,120.875,52.853,118.084,45.242"/>
	<polygon clip-path="url(#SVGID_4_)" fill="#1A1A19" points="122.73,134.729 165.6,142.818 174.197,127.146 	"/>
	<path clip-path="url(#SVGID_4_)" fill="#1A1A19" d="M125.477,139.537c0,7.848-3.914,14.208-8.742,14.208
		c-4.83,0-8.744-6.36-8.744-14.208c0-7.847,3.914-14.207,8.744-14.207C121.563,125.33,125.477,131.69,125.477,139.537"/>
	<path clip-path="url(#SVGID_4_)" fill="#706F72" d="M123.086,139.537c0,7.848-3.916,14.208-8.744,14.208
		c-4.829,0-8.744-6.36-8.744-14.208c0-7.847,3.915-14.207,8.744-14.207C119.17,125.33,123.086,131.69,123.086,139.537"/>
	<path clip-path="url(#SVGID_4_)" fill="#1A1A19" d="M92.063,132.041c0,6.344-3.164,11.486-7.067,11.486s-7.069-5.143-7.069-11.486
		s3.166-11.486,7.069-11.486S92.063,125.697,92.063,132.041"/>
	<path clip-path="url(#SVGID_4_)" fill="#706F72" d="M61.789,116.417c0,9.825-3.612,17.79-8.068,17.79
		c-4.455,0-8.066-7.965-8.066-17.79s3.611-17.79,8.066-17.79C58.177,98.627,61.789,106.592,61.789,116.417"/>
	<path clip-path="url(#SVGID_4_)" fill="#1A1A19" d="M63.982,114.822c0,11.136-4.094,20.164-9.145,20.164s-9.146-9.028-9.146-20.164
		s4.095-20.164,9.146-20.164S63.982,103.687,63.982,114.822"/>
	<path clip-path="url(#SVGID_4_)" fill="#BFBDC1" d="M142.171,40.679c0.595,4.07-1.638,7.766-4.989,8.255
		c-3.348,0.49-6.546-2.412-7.141-6.482c-0.596-4.069,1.637-7.766,4.988-8.255C138.379,33.707,141.576,36.608,142.171,40.679"/>
	<polygon clip-path="url(#SVGID_4_)" fill="#F2F2F2" points="37.092,72.526 127.954,63.06 142.205,55.601 132.605,53.483 
		78.063,63.06 73.98,59.459 45.654,63.06 	"/>
	<path clip-path="url(#SVGID_4_)" fill="#1A1A19" d="M135.77,34.143c3.066-0.001,5.85,2.768,6.401,6.536
		c0.595,4.07-1.638,7.767-4.989,8.255c-0.248,0.036-0.494,0.055-0.738,0.055c-3.068,0-5.852-2.768-6.403-6.536
		c-0.595-4.07,1.638-7.767,4.989-8.255C135.275,34.16,135.523,34.143,135.77,34.143 M135.77,32.229L135.77,32.229
		c-0.34,0-0.683,0.025-1.018,0.074c-4.389,0.643-7.352,5.319-6.605,10.426c0.682,4.659,4.248,8.174,8.297,8.174
		c0.338,0,0.682-0.025,1.017-0.074c4.388-0.643,7.351-5.319,6.604-10.426C143.383,35.743,139.816,32.229,135.77,32.229"/>
	<path clip-path="url(#SVGID_4_)" fill="#1A1A19" d="M43.988,117.224c0,7.949-3.563,14.394-7.957,14.394
		c-4.393,0-7.955-6.444-7.955-14.394c0-7.948,3.563-14.393,7.955-14.393C40.426,102.831,43.988,109.275,43.988,117.224"/>
	<path clip-path="url(#SVGID_4_)" fill="#1A1A19" d="M36.031,132.586c-5.004,0-8.924-6.748-8.924-15.361
		c0-8.614,3.92-15.362,8.924-15.362s8.926,6.748,8.926,15.362C44.957,125.838,41.035,132.586,36.031,132.586 M36.031,103.799
		c-3.787,0-6.986,6.147-6.986,13.426c0,7.276,3.199,13.425,6.986,13.425c3.789,0,6.988-6.148,6.988-13.425
		C43.02,109.946,39.82,103.799,36.031,103.799"/>
	<path clip-path="url(#SVGID_4_)" fill="#1A1A19" d="M35.221,128.098c-2.059,0-4.928-4.867-4.928-12.793
		c0-7.927,2.869-12.794,4.928-12.794c2.058,0,4.928,4.867,4.928,12.794C40.148,123.23,37.278,128.098,35.221,128.098"/>
	<path clip-path="url(#SVGID_4_)" fill="#706F72" d="M35.221,104.117c1.022,0.336,3.328,4.442,3.328,11.188
		c0,6.744-2.306,10.851-3.328,11.188c-1.021-0.337-3.328-4.443-3.328-11.188C31.893,108.56,34.199,104.453,35.221,104.117
		 M35.221,100.911c-3.605,0-6.527,6.444-6.527,14.394s2.922,14.394,6.527,14.394s6.527-6.444,6.527-14.394
		S38.826,100.911,35.221,100.911"/>
	<path clip-path="url(#SVGID_4_)" fill="#1A1A19" d="M139.535,56.202c10.119,0,18.353,10.186,18.353,22.707
		c0,12.521-8.233,22.708-18.353,22.708c-10.117,0-18.352-10.188-18.352-22.708C121.184,66.388,129.418,56.202,139.535,56.202
		 M139.535,54.288c-11.191,0-20.264,11.022-20.264,24.621c0,13.598,9.072,24.622,20.264,24.622
		c11.193,0,20.266-11.024,20.266-24.622C159.801,65.311,150.729,54.288,139.535,54.288"/>
	<path clip-path="url(#SVGID_4_)" fill="#1A1A19" d="M58.779,117.215c0,8.684-3.193,15.723-7.133,15.723
		c-3.938,0-7.129-7.039-7.129-15.723c0-8.685,3.191-15.724,7.129-15.724C55.586,101.491,58.779,108.53,58.779,117.215"/>
	<path clip-path="url(#SVGID_4_)" fill="#1A1A19" d="M27.352,113.385c0,7.949-2.922,14.394-6.527,14.394
		c-3.604,0-6.527-6.444-6.527-14.394s2.923-14.393,6.527-14.393C24.43,98.992,27.352,105.436,27.352,113.385"/>
	<path clip-path="url(#SVGID_4_)" fill="#1A1A19" d="M20.825,128.655c-4.152,0-7.405-6.707-7.405-15.27
		c0-8.564,3.253-15.271,7.405-15.271c4.151,0,7.403,6.707,7.403,15.271C28.229,121.948,24.977,128.655,20.825,128.655
		 M20.825,99.868c-2.673,0-5.651,5.552-5.651,13.518c0,7.965,2.979,13.516,5.651,13.516s5.649-5.551,5.649-13.516
		C26.475,105.42,23.498,99.868,20.825,99.868"/>
	<path clip-path="url(#SVGID_4_)" fill="#1A1A19" d="M18.586,124.579c-2.059,0-4.93-4.867-4.93-12.793
		c0-7.927,2.871-12.794,4.93-12.794c2.057,0,4.927,4.867,4.927,12.794C23.513,119.712,20.643,124.579,18.586,124.579"/>
	<path clip-path="url(#SVGID_4_)" fill="#706F72" d="M18.586,100.598c1.021,0.337,3.326,4.442,3.326,11.188
		s-2.305,10.851-3.326,11.188c-1.023-0.337-3.328-4.442-3.328-11.188S17.563,100.935,18.586,100.598 M18.586,97.393
		c-3.605,0-6.527,6.443-6.527,14.393c0,7.95,2.922,14.395,6.527,14.395c3.604,0,6.525-6.444,6.525-14.395
		C25.111,103.836,22.19,97.393,18.586,97.393"/>
	<path clip-path="url(#SVGID_4_)" fill="#1A1A19" d="M139.535,54.288c-11.191,0-20.266,11.022-20.266,24.622
		c0,0.776,0.031,1.546,0.089,2.306c0.956,12.516,9.624,22.315,20.177,22.315c11.193,0,20.266-11.023,20.266-24.621
		C159.801,65.311,150.729,54.288,139.535,54.288 M141.131,99.462c-9.342,0-16.916-9.202-16.916-20.552
		c0-11.352,7.574-20.554,16.916-20.554c9.343,0,16.917,9.202,16.917,20.554C158.048,90.26,150.474,99.462,141.131,99.462"/>
	<path clip-path="url(#SVGID_4_)" fill="#1A1A19" d="M127.004,53.592L127.004,53.592c-4.813,0-8.959-3.436-9.859-8.171
		c-1.036-5.44,2.548-10.713,7.99-11.75c2.414-0.459,3.078-0.627,3.209-0.686c0.33-0.185,0.518-0.288,3.822-0.918
		c0.623-0.119,1.258-0.18,1.889-0.18c4.812,0,8.959,3.437,9.861,8.171c0.502,2.637-0.053,5.31-1.563,7.529
		c-1.51,2.221-3.793,3.718-6.43,4.221c-2.414,0.459-3.076,0.627-3.209,0.687c-0.328,0.184-0.516,0.288-3.82,0.918
		C128.27,53.531,127.635,53.592,127.004,53.592 M134.055,33.802c-0.51,0-1.025,0.05-1.531,0.146
		c-2.414,0.458-3.077,0.626-3.209,0.686c-0.329,0.185-0.518,0.288-3.822,0.918c-4.404,0.839-7.307,5.105-6.467,9.513
		c0.729,3.832,4.085,6.613,7.979,6.613c0.512,0,1.026-0.049,1.533-0.146c2.414-0.459,3.076-0.626,3.207-0.687
		c0.33-0.184,0.518-0.287,3.822-0.918c2.135-0.405,3.982-1.619,5.205-3.416c1.221-1.797,1.671-3.961,1.264-6.096
		C141.305,36.584,137.949,33.802,134.055,33.802"/>
	<path clip-path="url(#SVGID_4_)" fill="#1A1A19" d="M49.597,111.084l-0.272-0.102c-4.626-1.728-14.251-5.322-15.734-23.028
		c-1.492-17.821,10.844-25.686,11.369-26.013l0.244-0.151l0.283-0.035l28.852-3.669l3.93,2.904l59.813-9.212l0.4,2.602
		l-60.895,9.378l-3.963-2.928l-27.502,3.496c-1.648,1.125-11.174,8.315-9.908,23.409c1.343,16.044,9.597,19.126,14.031,20.783
		l0.276,0.103L49.597,111.084z"/>
	<path clip-path="url(#SVGID_4_)" fill="#1A1A19" d="M79.379,63.06h-2.631V48.541c0-6.395,5.201-11.596,11.597-11.596
		c6.394,0,11.596,5.201,11.596,11.596v11.813h-2.63V48.541c0-4.943-4.023-8.965-8.966-8.965c-4.944,0-8.966,4.021-8.966,8.965V63.06
		z"/>
	<rect x="60.793" y="51.178" clip-path="url(#SVGID_4_)" fill="#1A1A19" width="2.631" height="9.617"/>
	<polygon clip-path="url(#SVGID_4_)" fill="#1A1A19" points="169.636,155.353 160.097,123.302 172.127,154.504 	"/>
	<polygon clip-path="url(#SVGID_4_)" fill="#1A1A19" points="174.537,148.993 166.428,122.505 177.014,148.104 	"/>
	<polygon clip-path="url(#SVGID_4_)" fill="#1A1A19" points="160.682,155.279 153.639,124.896 163.217,154.577 	"/>
	<polygon clip-path="url(#SVGID_4_)" fill="#1A1A19" points="152.863,155.266 146.381,125.693 155.407,154.591 	"/>
	<polygon clip-path="url(#SVGID_4_)" fill="#1A1A19" points="144.811,155.266 138.328,125.693 147.354,154.591 	"/>
	<polygon clip-path="url(#SVGID_4_)" fill="#1A1A19" points="136.758,155.266 130.275,125.693 139.301,154.591 	"/>
	<polygon clip-path="url(#SVGID_4_)" fill="#1A1A19" points="127.086,155.166 123.02,125.693 129.674,154.69 	"/>
	<path clip-path="url(#SVGID_4_)" fill="#706F72" d="M174.197,127.145l-55.383,7.266c-1.745,0.23-3.348-0.997-3.58-2.744
		l-1.208-9.145c-0.231-1.746,0.997-3.35,2.743-3.58l55.381-7.267c1.746-0.23,3.35,0.998,3.58,2.744l1.21,9.146
		C177.172,125.311,175.943,126.914,174.197,127.145"/>
	<path clip-path="url(#SVGID_4_)" fill="#1A1A19" d="M143.293,60.839c-8.214,0.104-14.771,8.279-14.644,18.259
		c0.126,9.98,6.889,17.986,15.103,17.882c8.215-0.104,14.771-8.279,14.645-18.26C158.27,68.74,151.508,60.734,143.293,60.839"/>
	<path clip-path="url(#SVGID_4_)" fill="#706F72" d="M90.209,128.463c0,7.929-2.916,14.355-6.511,14.355
		c-3.597,0-6.511-6.427-6.511-14.355c0-7.928,2.914-14.354,6.511-14.354C87.293,114.108,90.209,120.535,90.209,128.463"/>
	<path clip-path="url(#SVGID_4_)" fill="#706F72" d="M109.737,114.936c-7.21-1.041-17.248-2.195-24.458-3.237
		c-5.522-0.797-10.646,3.033-11.443,8.556s3.033,10.646,8.555,11.443c7.211,1.041,17.248,2.195,24.459,3.236
		c5.521,0.798,10.645-3.032,11.443-8.556C119.09,120.856,115.26,115.732,109.737,114.936"/>
	<g opacity="0.5" clip-path="url(#SVGID_4_)">
		<g>
			<defs>
				<rect id="SVGID_11_" x="80.84" y="112.21" width="30.62" height="8.8"/>
			</defs>
			<clipPath id="SVGID_12_">
				<use xlink:href="#SVGID_11_"  overflow="visible"/>
			</clipPath>
			<polygon clip-path="url(#SVGID_12_)" fill="#F2F2F2" points="80.84,117.525 105.229,121.01 111.465,115.691 88.725,112.208 			
				"/>
		</g>
	</g>
	<g opacity="0.5" clip-path="url(#SVGID_4_)">
		<g>
			<defs>
				<rect id="SVGID_13_" x="111.311" y="111.68" width="64.689" height="11.62"/>
			</defs>
			<clipPath id="SVGID_14_">
				<use xlink:href="#SVGID_13_"  overflow="visible"/>
			</clipPath>
			<polyline clip-path="url(#SVGID_14_)" fill="#F2F2F2" points="111.307,120.555 115.523,123.302 175.998,114.842 172.15,111.675 
				112.268,120.555 			"/>
		</g>
	</g>
	<path clip-path="url(#SVGID_4_)" fill="#1A1A19" d="M118.395,135.754c-2.25,0-4.168-1.684-4.465-3.915l-1.209-9.146
		c-0.158-1.193,0.159-2.376,0.891-3.332c0.732-0.955,1.793-1.567,2.986-1.725l55.381-7.267c2.465-0.331,4.734,1.449,5.057,3.876
		l1.209,9.146c0.158,1.192-0.157,2.376-0.891,3.33c-0.73,0.957-1.791,1.568-2.984,1.727l-55.383,7.266
		C118.789,135.741,118.59,135.754,118.395,135.754 M172.572,112.963c-0.083,0-0.166,0.005-0.25,0.018l-55.381,7.265
		c-0.496,0.066-0.938,0.321-1.24,0.718c-0.305,0.396-0.438,0.89-0.37,1.385l1.209,9.146c0.134,1.011,1.062,1.758,2.104,1.613
		l55.381-7.267c0.494-0.064,0.936-0.319,1.24-0.717c0.305-0.396,0.437-0.889,0.369-1.386l-1.209-9.146
		C174.303,113.663,173.507,112.963,172.572,112.963"/>
	<path clip-path="url(#SVGID_4_)" fill="#1A1A19" d="M108.305,135.995L108.305,135.995c-0.529,0-1.064-0.038-1.592-0.114
		c-3.598-0.52-7.979-1.077-12.213-1.617c-4.244-0.539-8.633-1.099-12.245-1.619c-2.924-0.422-5.508-1.958-7.278-4.324
		c-1.768-2.367-2.508-5.28-2.088-8.204c0.781-5.404,5.481-9.479,10.934-9.479c0.529,0,1.066,0.038,1.594,0.114
		c3.596,0.521,7.977,1.077,12.213,1.616c4.244,0.54,8.631,1.099,12.246,1.62c6.035,0.873,10.236,6.493,9.363,12.528
		C118.459,131.92,113.758,135.995,108.305,135.995 M83.822,112.55c-4.508,0-8.395,3.37-9.039,7.841
		c-0.35,2.418,0.265,4.826,1.727,6.783c1.463,1.957,3.6,3.228,6.018,3.575c3.598,0.521,7.979,1.077,12.213,1.617
		c4.244,0.54,8.633,1.099,12.246,1.621c0.437,0.063,0.881,0.095,1.318,0.095c4.508,0,8.395-3.371,9.039-7.841
		c0.723-4.991-2.752-9.638-7.744-10.359c-3.596-0.519-7.975-1.077-12.213-1.616c-4.244-0.539-8.631-1.099-12.244-1.619
		C84.705,112.582,84.26,112.55,83.822,112.55"/>
	<path clip-path="url(#SVGID_4_)" fill="#1A1A19" d="M107.119,128.635l-32.288-3.839c0,0-1.079,5.728,7.388,6.873
		c8.467,1.144,27.078,3.318,27.078,3.318L107.119,128.635z"/>
	<polygon clip-path="url(#SVGID_4_)" fill="#1A1A19" points="81.055,123.302 62.107,121.707 44.627,121.334 3.531,115.111 
		-4.549,107.212 41.766,105.087 65.545,108.609 81.646,114.225 	"/>
	<path clip-path="url(#SVGID_4_)" fill="#1A1A19" d="M92.482,99.428c-4.865-6.349-7.584-19.324-3.49-29.216
		c3.969-9.594,12.896-12.765,13.273-12.896l0.859,2.487l-0.43-1.243l0.432,1.242c-0.082,0.028-8.199,2.947-11.703,11.415
		c-3.617,8.741-1.293,20.815,3.146,26.608L92.482,99.428z"/>
	<path clip-path="url(#SVGID_4_)" fill="#1A1A19" d="M67.59,103.415c-4.865-6.349-7.584-19.323-3.49-29.216
		c3.97-9.594,12.896-12.765,13.273-12.896l0.857,2.487l-0.428-1.244l0.432,1.243c-0.082,0.028-8.199,2.947-11.703,11.415
		c-3.617,8.741-1.293,20.815,3.146,26.608L67.59,103.415z"/>
	<path clip-path="url(#SVGID_4_)" fill="#706F72" d="M156.854,78.909c0-7.875-5.254-14.258-11.735-14.258
		c-3.888,0-7.333,2.297-9.469,5.834l20.64,12.802C156.654,81.907,156.854,80.437,156.854,78.909"/>
	<polygon clip-path="url(#SVGID_4_)" fill="#1A1A19" points="113.41,89.44 3.484,95.037 4.152,106.657 118.75,101.529 	"/>
	<g opacity="0.5" clip-path="url(#SVGID_4_)">
		<g>
			<defs>
				<rect id="SVGID_15_" x="3.51" y="98.97" width="119.26" height="10.29"/>
			</defs>
			<clipPath id="SVGID_16_">
				<use xlink:href="#SVGID_15_"  overflow="visible"/>
			</clipPath>
			<polygon clip-path="url(#SVGID_16_)" fill="#1A1A19" points="3.514,104.098 3.531,109.266 122.77,107.779 118.11,98.97 			"/>
		</g>
	</g>
	<path clip-path="url(#SVGID_4_)" fill="#1A1A19" d="M154.477,87.509c0.785-1.26,1.404-2.684,1.813-4.222L135.65,70.484
		c-0.451,0.748-0.846,1.551-1.17,2.399C134.732,79.092,136.99,95.968,154.477,87.509"/>
	<path clip-path="url(#SVGID_4_)" fill="#1A1A19" d="M145.118,93.167c3.821,0,7.216-2.222,9.358-5.659
		c-17.486,8.459-19.744-8.416-19.996-14.625c-0.705,1.83-1.1,3.872-1.1,6.026C133.381,86.783,138.637,93.167,145.118,93.167"/>
	<path clip-path="url(#SVGID_4_)" fill="#1A1A19" d="M103.793,107.881l-2.691,5.519c0,0-5.838-0.081-10.336,0.298
		c-9.473,0.797-12.346,12.987-0.709,19.034l-11.992-1.19c0,0-12.512-6.067,2.627-23.762L103.793,107.881z"/>
	<path clip-path="url(#SVGID_4_)" fill="#1A1A19" d="M130.575,117.753c-1.276,0-4.386-0.366-6.097-3.723l-10.035-20.908
		c-0.088-0.281-1.021-2.858-5.015-2.374c-5.304,0.635-79.761,3.219-82.927,3.328l-0.092-2.629c0.773-0.027,77.51-2.69,82.705-3.313
		c4.965-0.598,7.26,2.387,7.822,4.147l9.898,20.58c1.282,2.513,3.895,2.259,4.006,2.248l29.611-3.303l0.291,2.614l-29.604,3.304
		C131.107,117.729,130.9,117.753,130.575,117.753"/>
	<path clip-path="url(#SVGID_4_)" fill="#1A1A19" d="M118.563,124.697c0,5.221-3.661,9.452-8.18,9.454
		c-4.52,0.001-8.184-4.229-8.185-9.449c-0.003-5.22,3.66-9.453,8.179-9.454C114.896,115.247,118.561,119.478,118.563,124.697"/>
	<path clip-path="url(#SVGID_4_)" fill="#706F72" d="M116.359,124.791c0,3.401-2.387,6.16-5.332,6.162
		c-2.943,0.001-5.333-2.758-5.334-6.159c-0.002-3.402,2.386-6.161,5.33-6.162C113.969,118.631,116.357,121.389,116.359,124.791"/>
	<polygon clip-path="url(#SVGID_4_)" fill="#1A1A19" points="47.58,74.408 47.698,93.167 22.727,95.678 19.982,73.969 
		25.666,71.643 	"/>
	
		<rect x="75.693" y="63.258" transform="matrix(0.0127 0.9999 -0.9999 0.0127 184.2912 29.4588)" clip-path="url(#SVGID_4_)" fill="#1A1A19" width="3.07" height="89.595"/>
	<polygon clip-path="url(#SVGID_4_)" fill="#1A1A19" points="81.22,116.097 86.188,108.645 48.928,108.645 	"/>
	<polygon clip-path="url(#SVGID_4_)" fill="#FFFFFF" points="131.406,25.424 133.744,19.371 139.796,23.498 139.934,26.523 	"/>
	<g opacity="0.5" clip-path="url(#SVGID_4_)">
		<g>
			<defs>
				<rect id="SVGID_17_" x="99.641" y="131.67" width="25.84" height="14.3"/>
			</defs>
			<clipPath id="SVGID_18_">
				<use xlink:href="#SVGID_17_"  overflow="visible"/>
			</clipPath>
			<path clip-path="url(#SVGID_18_)" fill="#1A1A19" d="M99.636,134.764c0,0,8.771,21.65,25.841,4.773l-1.549-5.821l-6.414,1.048
				l-2.279-3.098L99.636,134.764z"/>
		</g>
	</g>
	<g opacity="0.5" clip-path="url(#SVGID_4_)">
		<g>
			<defs>
				<rect id="SVGID_19_" x="75.23" y="128.37" width="15.24" height="8.43"/>
			</defs>
			<clipPath id="SVGID_20_">
				<use xlink:href="#SVGID_19_"  overflow="visible"/>
			</clipPath>
			<path clip-path="url(#SVGID_20_)" fill="#1A1A19" d="M75.229,130.192c0,0,5.174,12.771,15.24,2.816l-0.913-3.435l-3.782,0.618
				l-1.345-1.827L75.229,130.192z"/>
		</g>
	</g>
	<polygon clip-path="url(#SVGID_4_)" fill="#1A1A19" points="99.504,19.35 105.504,31.35 126.879,28.6 131.504,15.1 121.004,11.725 
			"/>
</g>
<path fill="#1A1A19" d="M123.854,17.365h0.084c1.125,0.014,1.824,0.273,1.98,0.363l65.506,37.82c0.848,0.49,2.063,2.593,2.063,3.573
	v75.64c0,0.98-1.215,3.083-2.063,3.573l-65.506,37.819c-0.156,0.091-0.855,0.351-1.977,0.364h-0.088
	c-1.168,0-1.898-0.269-2.061-0.364l-65.508-37.819c-0.849-0.49-2.063-2.593-2.063-3.573v-75.64c0-0.98,1.214-3.083,2.063-3.573
	l65.508-37.82C121.955,17.635,122.686,17.365,123.854,17.365 M123.854,9.085c-2.248,0-4.496,0.489-6.201,1.473l-65.506,37.82
	c-3.412,1.97-6.203,6.805-6.203,10.744v75.64c0,3.94,2.791,8.774,6.203,10.744l65.506,37.82c1.705,0.984,3.953,1.473,6.201,1.473
	c0.061,0,0.122,0,0.184-0.001c2.188-0.026,4.361-0.514,6.021-1.472l65.507-37.82c3.411-1.97,6.201-6.804,6.201-10.744v-75.64
	c0-3.939-2.79-8.774-6.201-10.744l-65.507-37.82c-1.659-0.958-3.833-1.446-6.021-1.472C123.976,9.085,123.914,9.085,123.854,9.085"
	/>
<path fill="#1A1A19" d="M116.416,124.275c0,4.254-2.957,7.702-6.604,7.702c-3.645,0-6.601-3.448-6.601-7.702
	s2.956-7.702,6.601-7.702C113.459,116.573,116.416,120.021,116.416,124.275"/>
</svg>
