<?xml version="1.0" encoding="utf-8"?>
<!-- Generator: Adobe Illustrator 16.0.0, SVG Export Plug-In . SVG Version: 6.00 Build 0)  -->
<!DOCTYPE svg PUBLIC "-//W3C//DTD SVG 1.1//EN" "http://www.w3.org/Graphics/SVG/1.1/DTD/svg11.dtd">
<svg version="1.1" id="Layer_1" xmlns="http://www.w3.org/2000/svg" xmlns:xlink="http://www.w3.org/1999/xlink" x="0px" y="0px"
	 width="240px" height="195px" viewBox="0 0 240 195" enable-background="new 0 0 240 195" xml:space="preserve">
<path fill="none" d="M78.63-2257.76"/>
<path fill="none" d="M78.63,987.837"/>
<path fill="#1A1A19" d="M141.525,165.772c-10.387,6.445-19.063,10.537-20.966,11.415c-1.905-0.878-10.58-4.97-20.967-11.416v0.492
	c-0.003-0.002,0.004-0.005,0-0.007v15.051c11.415,7.015,20.568,11.112,20.568,11.112l0.399-0.001l0.399,0.001
	c0,0,9.151-4.099,20.565-11.112v-15.051c-0.004,0.002,0.004,0.005,0,0.007v-0.491H141.525z"/>
<path fill="#1A1A19" d="M96.277,164.636c-9.748-6.171-20.759-14.313-29.014-23.745v15.052c8.118,9.568,19.145,17.857,29.014,24.17
	v-15.052c-0.004-0.002,0.003-0.005,0-0.007V164.636z"/>
<path fill="#1A1A19" d="M144.842,164.636v0.418c-0.004,0.002,0.004,0.005,0,0.007v15.052c9.869-6.313,20.896-14.602,29.016-24.17
	v-15.052C165.6,150.322,154.59,158.465,144.842,164.636"/>
<path fill="#020202" d="M44.785,142.381c0.916-0.017,1.783-0.025,2.638,0.016c-3.211-4.571-2.29-10.164-4.058-15.119l0.017-0.22
	c5.329,2.009,8.124,6.7,10.731,11.657c1.862,3.592,3.683,7.273,6.339,9.993c-1.109,0.08-2.153,0.229-3.234,0.389
	c-1.122,0.163-2.275,0.387-3.436,0.691c-2.306,0.136-4.581,0.238-6.731,0.167c-4.035-0.171-7.795-0.854-11.037-2.605
	c-1.502-0.798-2.902-1.85-4.131-3.16c0.949-0.154,1.992-0.343,3.028-0.524C38.176,143.109,41.609,142.539,44.785,142.381"/>
<path fill="#020202" d="M34.729,124.835c1.062,1.399,2.535,2.593,3.517,4.192c0.274,0.794,0.599,1.55,0.922,2.329
	c0.784,2.099,1.378,4.127,0.792,5.83c-2.665-1.04-5.366-2.282-7.721-4.482c-1.341-1.616-2.338-3.36-3.036-5.244
	c-1.11-2.954-1.453-6.194-1.075-9.59c0.008-0.114,0.033-0.178,0.025-0.252l0.3-0.285c0.113,0.265,0.263,0.539,0.409,0.824
	C30.289,120.756,32.375,122.635,34.729,124.835"/>
<path fill="#020202" d="M194.909,142.381c-0.916-0.017-1.783-0.025-2.638,0.016c3.211-4.571,2.289-10.164,4.058-15.119l-0.017-0.22
	c-5.33,2.009-8.125,6.7-10.731,11.657c-1.86,3.592-3.683,7.273-6.339,9.993c1.107,0.08,2.152,0.229,3.232,0.389
	c1.123,0.163,2.275,0.387,3.437,0.691c2.306,0.136,4.581,0.238,6.731,0.167c4.035-0.171,7.795-0.854,11.037-2.605
	c1.502-0.798,2.901-1.85,4.131-3.16c-0.949-0.154-1.992-0.343-3.027-0.524C201.518,143.109,198.085,142.539,194.909,142.381"/>
<path fill="#020202" d="M206.391,124.835c-1.063,1.399-2.535,2.593-3.518,4.192c-0.273,0.794-0.6,1.55-0.922,2.329
	c-0.784,2.099-1.379,4.127-0.793,5.83c2.666-1.04,5.367-2.282,7.722-4.482c1.341-1.616,2.338-3.36,3.036-5.244
	c1.109-2.954,1.453-6.194,1.074-9.59c-0.008-0.114-0.032-0.178-0.024-0.252l-0.3-0.285c-0.113,0.265-0.264,0.539-0.409,0.824
	C210.831,120.756,208.745,122.635,206.391,124.835"/>
<path fill="#A08EC3" d="M57.164,40.412v19.921l0.008,48.847c0,35.008,63.388,63.389,63.388,63.389s63.388-28.381,63.388-63.389
	l0.008-48.847V40.412H57.164L57.164,40.412z"/>
<g opacity="0.5">
	<g>
		<g>
			<defs>
				<rect id="SVGID_1_" x="83.48" y="40.43" width="97.7" height="127.58"/>
			</defs>
			<clipPath id="SVGID_2_">
				<use xlink:href="#SVGID_1_"  overflow="visible"/>
			</clipPath>
			<path clip-path="url(#SVGID_2_)" fill="#5C65AE" d="M121.15,40.432v22.024c-20.803,0.188-37.669,17.169-37.669,38.016
				c0,20.848,16.866,37.826,37.669,38.018v29.453c0.041,0.021,0.086,0.044,0.127,0.063c5.591-2.753,17.619-9.048,29.469-17.652
				c9.191-6.674,16.454-13.391,21.588-19.967c5.867-7.513,8.842-14.722,8.842-21.427V61.736V40.431L121.15,40.432L121.15,40.432z"/>
		</g>
	</g>
</g>
<g opacity="0.4">
	<g>
		<g>
			<defs>
				<rect id="SVGID_3_" x="55.95" y="36.64" width="129.22" height="137.19"/>
			</defs>
			<clipPath id="SVGID_4_">
				<use xlink:href="#SVGID_3_"  overflow="visible"/>
			</clipPath>
			<path clip-path="url(#SVGID_4_)" fill="#FFFFFF" d="M171.371,50.438v9.011l-0.008,49.784c0,18.229-31.246,39.336-50.803,49.295
				c-19.566-9.965-50.805-31.069-50.805-49.299l-0.008-49.777v-9.015L171.371,50.438 M185.168,36.64H55.951v22.812l0.009,49.781
				c0,35.677,64.6,64.6,64.6,64.6s64.601-28.923,64.601-64.6l0.008-49.781L185.168,36.64L185.168,36.64z"/>
		</g>
	</g>
</g>
<path fill="#1A1A19" d="M185.169,36.639V24.287c0-3.459-2.804-6.262-6.263-6.262H160.07L121.004,7.072L83.243,18.025h-21.03
	c-3.459,0-6.262,2.803-6.262,6.262v12.352v16.529v6.282l0.008,49.78c0,35.679,64.601,64.602,64.601,64.602
	s64.601-28.923,64.601-64.602l0.009-49.78L185.169,36.639L185.169,36.639z M177.635,109.23c0,8.39-5.031,22.043-28.996,39.444
	c-11.289,8.198-22.75,14.196-28.079,16.82c-5.33-2.625-16.79-8.623-28.078-16.82c-23.966-17.401-28.997-31.056-28.997-39.444
	l-0.008-49.78v-6.282h114.166v6.281L177.635,109.23z"/>
<path fill="#FFFFFF" d="M152.432,100.472c0,16.843-13.654,30.495-30.496,30.495c-16.84,0-30.494-13.652-30.494-30.495
	c0-16.842,13.653-30.495,30.494-30.495C138.777,69.977,152.432,83.63,152.432,100.472"/>
<path fill="#A08EC3" d="M121.501,77.001c12.942,0,23.472,10.529,23.472,23.471c0,12.942-10.529,23.473-23.472,23.473
	c-12.942,0-23.471-10.529-23.471-23.473C98.03,87.53,108.56,77.001,121.501,77.001 M121.501,69.977
	c-16.842,0-30.495,13.653-30.495,30.495c0,16.844,13.653,30.495,30.495,30.495s30.495-13.651,30.495-30.495
	C151.996,83.63,138.344,69.977,121.501,69.977"/>
<path fill="#191818" d="M121.501,132.974c-17.921,0-32.502-14.581-32.502-32.502c0-17.922,14.581-32.502,32.502-32.502
	c17.92,0,32.5,14.58,32.5,32.502C154.002,118.393,139.422,132.974,121.501,132.974 M121.501,71.983
	c-15.708,0-28.488,12.779-28.488,28.487s12.78,28.488,28.488,28.488s28.488-12.78,28.488-28.488S137.209,71.983,121.501,71.983"/>
<path fill="#191818" d="M130.616,93.636c0-5.034-4.081-9.114-9.115-9.114s-9.115,4.08-9.115,9.114c0,3.373,1.834,6.315,4.558,7.893
	v12.362c0,1.398,1.133,2.532,2.532,2.532h4.051c1.397,0,2.531-1.134,2.531-2.532v-12.362
	C128.782,99.951,130.616,97.009,130.616,93.636"/>
<g>
	<g>
		<defs>
			<path id="SVGID_5_" d="M65.203,130.498l56.372,2.085V98.904c2.671-0.184,4.782-2.399,4.782-5.115s-2.111-4.934-4.782-5.115
				v-27.94l-56.372-2.084V130.498z"/>
		</defs>
		<clipPath id="SVGID_6_">
			<use xlink:href="#SVGID_5_"  overflow="visible"/>
		</clipPath>
		<path clip-path="url(#SVGID_6_)" fill="#FFFFFF" d="M145.335,91.275h-36.426c-3.508-8.112-5.375-11.722-14.775-11.722
			c-12.618,0-16.642,8.162-16.642,20.78c-0.001,12.618,4.024,20.779,16.642,20.779c8.636,0,9.947-2.725,13.832-9.793l20.253-0.001
			v-4.461h-4.092l2.068,4.461h4.965v-4.461h4.343l2.069,4.461h3.625l8.453-8.194V94.63L145.335,91.275z"/>
	</g>
	<g>
		<defs>
			<path id="SVGID_7_" d="M65.203,130.498l56.372,2.085V98.904c2.671-0.184,4.782-2.399,4.782-5.115s-2.111-4.934-4.782-5.115
				v-27.94l-56.372-2.084V130.498z"/>
		</defs>
		<clipPath id="SVGID_8_">
			<use xlink:href="#SVGID_7_"  overflow="visible"/>
		</clipPath>
		<path clip-path="url(#SVGID_8_)" fill="#A08EC3" d="M144.23,92.204h-35.424c-3.411-7.888-5.227-11.397-14.368-11.397
			c-12.066,0-15.85,7.605-16.176,19.594h70.165v-4.932L144.23,92.204z"/>
	</g>
	<g>
		<defs>
			<path id="SVGID_9_" d="M65.203,130.498l56.372,2.085V98.904c2.671-0.184,4.782-2.399,4.782-5.115s-2.111-4.934-4.782-5.115
				v-27.94l-56.372-2.084V130.498z"/>
		</defs>
		<clipPath id="SVGID_10_">
			<use xlink:href="#SVGID_9_"  overflow="visible"/>
		</clipPath>
		<path clip-path="url(#SVGID_10_)" fill="#191818" d="M94.134,123.121L94.134,123.121c-6.666,0-11.607-2.187-14.687-6.498
			c-2.666-3.734-3.962-9.063-3.962-16.289c0-15.332,6.1-22.785,18.649-22.785c10.022,0,12.688,4.014,16.088,11.72h35.801
			l5.634,4.383v10.325l-9.646,9.352h-5.721l-2.069-4.462h-1.055v4.462h-24.013C105.566,119.849,103.493,123.121,94.134,123.121
			 M94.134,81.563c-10.259,0-14.636,5.613-14.636,18.771c0,6.361,1.052,10.927,3.216,13.956c2.315,3.242,6.05,4.817,11.42,4.817
			c7.269,0,8.235-1.763,11.833-8.316l0.813-1.479h18.123l5.322-11.738v7.277h6.562l2.067,4.461h1.531l7.26-7.036v-6.663
			l-2.998-2.331H107.59l-0.523-1.211C103.539,83.914,102.164,81.563,94.134,81.563"/>
	</g>
	<g>
		<defs>
			<path id="SVGID_11_" d="M65.203,130.498l56.372,2.085V98.904c2.671-0.184,4.782-2.399,4.782-5.115s-2.111-4.934-4.782-5.115
				v-27.94l-56.372-2.084V130.498z"/>
		</defs>
		<clipPath id="SVGID_12_">
			<use xlink:href="#SVGID_11_"  overflow="visible"/>
		</clipPath>
		<path clip-path="url(#SVGID_12_)" fill="#231F20" d="M87.066,109.25c-1.524,0-2.759-1.234-2.759-2.759v-13.03
			c0-1.523,1.235-2.76,2.759-2.76s2.759,1.234,2.759,2.76v13.03C89.825,108.016,88.59,109.25,87.066,109.25"/>
	</g>
</g>
<rect x="120.628" y="109.223" fill="#191818" width="2.215" height="2.867"/>
<rect x="124.831" y="90.457" fill="#191818" width="2.215" height="2.867"/>
<path fill="#FFFFFF" d="M98.18,43.619v-3.251c7.346-7.136,8.881-8.73,8.881-11.02c0-1.536-1.174-2.528-2.679-2.528
	c-1.776,0-3.191,0.813-4.275,2.258l-2.408-2.528c1.625-2.167,4.003-3.313,6.743-3.313c3.884,0,6.714,2.349,6.714,6.082
	c0,3.04-2.048,5.63-7.015,10.747h7.105v3.553H98.18z"/>
<path fill="#FFFFFF" d="M113.2,33.594c0-5.178,2.138-10.354,7.104-10.354c4.998,0,7.105,5.178,7.105,10.354
	c0,5.148-2.077,10.389-7.105,10.389C115.338,43.981,113.2,38.742,113.2,33.594 M123.316,33.594c0-3.883-0.662-6.771-3.011-6.771
	c-2.318,0-2.979,2.89-2.979,6.771c0,3.854,0.662,6.806,2.979,6.806C122.654,40.398,123.316,37.448,123.316,33.594"/>
<path fill="#FFFFFF" d="M129.063,33.594c0-5.178,2.139-10.354,7.104-10.354c4.998,0,7.104,5.178,7.104,10.354
	c0,5.148-2.076,10.389-7.104,10.389C131.201,43.981,129.063,38.742,129.063,33.594 M139.18,33.594c0-3.883-0.664-6.771-3.012-6.771
	c-2.318,0-2.979,2.89-2.979,6.771c0,3.854,0.66,6.806,2.979,6.806C138.516,40.398,139.18,37.448,139.18,33.594"/>
<polygon fill="#FFFFFF" points="91.505,32.315 84.046,31.185 80.727,24.087 77.406,31.185 69.947,32.315 75.336,37.85 
	73.989,45.645 80.727,41.964 87.463,45.645 86.116,37.85 "/>
<polygon fill="#FFFFFF" points="171.172,32.315 163.714,31.185 160.393,24.087 157.072,31.185 149.613,32.315 155.004,37.85 
	153.656,45.645 160.393,41.964 167.13,45.645 165.783,37.85 "/>
</svg>
