<?xml version="1.0" encoding="utf-8"?>
<!-- Generator: Adobe Illustrator 16.0.0, SVG Export Plug-In . SVG Version: 6.00 Build 0)  -->
<!DOCTYPE svg PUBLIC "-//W3C//DTD SVG 1.1//EN" "http://www.w3.org/Graphics/SVG/1.1/DTD/svg11.dtd">
<svg version="1.1" id="Layer_1" xmlns="http://www.w3.org/2000/svg" xmlns:xlink="http://www.w3.org/1999/xlink" x="0px" y="0px"
	 width="240px" height="195px" viewBox="0 0 240 195" enable-background="new 0 0 240 195" xml:space="preserve">
<path fill="none" d="M78.63-2257.76"/>
<path fill="none" d="M78.63,987.837"/>
<path fill="#A08EC3" d="M56.752,40.545v19.881l0.008,48.748c0,34.938,63.261,63.261,63.261,63.261s63.26-28.322,63.26-63.261
	l0.008-48.748V40.545H56.752z"/>
<g opacity="0.5">
	<g>
		<g>
			<defs>
				<rect id="SVGID_1_" x="82.942" y="40.43" width="97.695" height="127.58"/>
			</defs>
			<clipPath id="SVGID_2_">
				<use xlink:href="#SVGID_1_"  overflow="visible"/>
			</clipPath>
			<path clip-path="url(#SVGID_2_)" fill="#5C65AE" d="M120.611,40.432v22.024c-20.803,0.188-37.669,17.169-37.669,38.016
				c0,20.848,16.866,37.826,37.669,38.018v29.453c0.042,0.021,0.087,0.044,0.128,0.063c5.59-2.753,17.619-9.048,29.468-17.652
				c9.191-6.674,16.454-13.391,21.588-19.967c5.867-7.513,8.842-14.722,8.842-21.427V61.736V40.431L120.611,40.432L120.611,40.432z"
				/>
		</g>
	</g>
</g>
<g opacity="0.4">
	<g>
		<g>
			<defs>
				<rect id="SVGID_3_" x="55.412" y="36.64" width="129.218" height="137.19"/>
			</defs>
			<clipPath id="SVGID_4_">
				<use xlink:href="#SVGID_3_"  overflow="visible"/>
			</clipPath>
			<path clip-path="url(#SVGID_4_)" fill="#FFFFFF" d="M170.832,50.438v9.011l-0.008,49.784c0,18.229-31.246,39.336-50.803,49.295
				c-19.566-9.965-50.805-31.069-50.805-49.299l-0.008-49.777v-9.015L170.832,50.438 M184.629,36.64H55.412v22.812l0.009,49.781
				c0,35.677,64.6,64.6,64.6,64.6s64.601-28.923,64.601-64.6l0.008-49.781L184.629,36.64L184.629,36.64z"/>
		</g>
	</g>
</g>
<path fill="#1A1A19" d="M178.368,18.025h-18.839L120.465,7.072L82.704,18.025H61.673c-3.458,0-6.261,2.803-6.261,6.261v28.882
	h129.217V24.286C184.629,20.828,181.826,18.025,178.368,18.025"/>
<path fill="#1A1A19" d="M177.104,44.164v15.284l-0.008,49.783c0,8.39-5.031,22.042-28.998,39.444
	c-11.289,8.196-22.75,14.194-28.078,16.818c-5.329-2.625-16.79-8.622-28.078-16.818c-23.966-17.402-28.997-31.056-28.997-39.447
	L62.937,59.45V44.164H177.104 M184.629,36.64H55.412v22.812l0.009,49.781c0,35.677,64.6,64.6,64.6,64.6s64.601-28.923,64.601-64.6
	l0.008-49.781L184.629,36.64L184.629,36.64z"/>
<path fill="#FFFFFF" d="M151.893,100.472c0,16.843-13.653,30.495-30.496,30.495c-16.84,0-30.494-13.652-30.494-30.495
	c0-16.842,13.653-30.495,30.494-30.495C138.238,69.977,151.893,83.63,151.893,100.472"/>
<path fill="#A08EC3" d="M120.962,77.001c12.942,0,23.472,10.529,23.472,23.471c0,12.942-10.529,23.473-23.472,23.473
	c-12.942,0-23.471-10.529-23.471-23.473C97.491,87.53,108.021,77.001,120.962,77.001 M120.962,69.977
	c-16.842,0-30.495,13.653-30.495,30.495c0,16.844,13.653,30.495,30.495,30.495c16.843,0,30.495-13.651,30.495-30.495
	C151.457,83.63,137.805,69.977,120.962,69.977"/>
<path fill="#191818" d="M120.962,132.974c-17.921,0-32.502-14.581-32.502-32.502c0-17.922,14.581-32.502,32.502-32.502
	c17.92,0,32.5,14.58,32.5,32.502C153.463,118.393,138.883,132.974,120.962,132.974 M120.962,71.983
	c-15.708,0-28.488,12.779-28.488,28.487s12.78,28.488,28.488,28.488s28.489-12.78,28.489-28.488S136.67,71.983,120.962,71.983"/>
<path fill="#191818" d="M130.077,93.636c0-5.034-4.081-9.114-9.115-9.114c-5.034,0-9.115,4.08-9.115,9.114
	c0,3.373,1.834,6.315,4.558,7.893v12.362c0,1.398,1.133,2.532,2.532,2.532h4.051c1.398,0,2.531-1.134,2.531-2.532v-12.362
	C128.243,99.951,130.077,97.009,130.077,93.636"/>
<g>
	<g>
		<defs>
			<path id="SVGID_5_" d="M64.665,130.498l56.372,2.085V98.904c2.67-0.184,4.781-2.399,4.781-5.115s-2.111-4.934-4.781-5.115v-27.94
				l-56.372-2.084V130.498L64.665,130.498z"/>
		</defs>
		<clipPath id="SVGID_6_">
			<use xlink:href="#SVGID_5_"  overflow="visible"/>
		</clipPath>
		<path clip-path="url(#SVGID_6_)" fill="#FFFFFF" d="M144.796,91.275H108.37c-3.508-8.112-5.375-11.722-14.775-11.722
			c-12.618,0-16.642,8.162-16.642,20.78s4.024,20.779,16.642,20.779c8.636,0,9.947-2.725,13.832-9.793l20.253-0.001v-4.461h-4.092
			l2.068,4.461h4.965v-4.461h4.343l2.069,4.461h3.625l8.453-8.194V94.63L144.796,91.275z"/>
	</g>
	<g>
		<defs>
			<path id="SVGID_7_" d="M64.665,130.498l56.372,2.085V98.904c2.67-0.184,4.781-2.399,4.781-5.115s-2.111-4.934-4.781-5.115v-27.94
				l-56.372-2.084V130.498L64.665,130.498z"/>
		</defs>
		<clipPath id="SVGID_8_">
			<use xlink:href="#SVGID_7_"  overflow="visible"/>
		</clipPath>
		<path clip-path="url(#SVGID_8_)" fill="#A08EC3" d="M143.691,92.204h-35.423c-3.411-7.888-5.227-11.397-14.368-11.397
			c-12.066,0-15.85,7.605-16.176,19.594h70.165v-4.932L143.691,92.204z"/>
	</g>
	<g>
		<defs>
			<path id="SVGID_9_" d="M64.665,130.498l56.372,2.085V98.904c2.67-0.184,4.781-2.399,4.781-5.115s-2.111-4.934-4.781-5.115v-27.94
				l-56.372-2.084V130.498L64.665,130.498z"/>
		</defs>
		<clipPath id="SVGID_10_">
			<use xlink:href="#SVGID_9_"  overflow="visible"/>
		</clipPath>
		<path clip-path="url(#SVGID_10_)" fill="#191818" d="M93.595,123.121L93.595,123.121c-6.666,0-11.607-2.187-14.687-6.498
			c-2.666-3.734-3.962-9.063-3.962-16.289c0-15.332,6.1-22.785,18.649-22.785c10.022,0,12.688,4.014,16.088,11.72h35.801
			l5.634,4.383v10.325l-9.646,9.352h-5.722l-2.069-4.462h-1.055v4.462h-24.013C105.027,119.849,102.954,123.121,93.595,123.121
			 M93.595,81.563c-10.259,0-14.636,5.613-14.636,18.771c0,6.361,1.052,10.927,3.216,13.956c2.315,3.242,6.05,4.817,11.42,4.817
			c7.269,0,8.235-1.763,11.833-8.316l0.812-1.479h18.123l5.322-11.738v7.277h6.562l2.067,4.461h1.531l7.26-7.036v-6.663
			l-2.998-2.331h-37.057l-0.523-1.211C103,83.914,101.625,81.563,93.595,81.563"/>
	</g>
	<g>
		<defs>
			<path id="SVGID_11_" d="M64.665,130.498l56.372,2.085V98.904c2.67-0.184,4.781-2.399,4.781-5.115s-2.111-4.934-4.781-5.115
				v-27.94l-56.372-2.084V130.498L64.665,130.498z"/>
		</defs>
		<clipPath id="SVGID_12_">
			<use xlink:href="#SVGID_11_"  overflow="visible"/>
		</clipPath>
		<path clip-path="url(#SVGID_12_)" fill="#231F20" d="M86.527,109.25c-1.524,0-2.759-1.234-2.759-2.759v-13.03
			c0-1.523,1.235-2.76,2.759-2.76s2.759,1.234,2.759,2.76v13.03C89.287,108.016,88.052,109.25,86.527,109.25"/>
	</g>
</g>
<rect x="120.089" y="109.223" fill="#191818" width="2.216" height="2.867"/>
<rect x="124.292" y="90.457" fill="#191818" width="2.215" height="2.867"/>
<path fill="#FFFFFF" d="M107.785,43.619v-3.251c7.346-7.136,8.881-8.73,8.881-11.02c0-1.536-1.174-2.528-2.679-2.528
	c-1.776,0-3.191,0.813-4.275,2.258l-2.408-2.528c1.625-2.167,4.003-3.313,6.743-3.313c3.884,0,6.714,2.349,6.714,6.082
	c0,3.04-2.047,5.63-7.015,10.747h7.105v3.553H107.785z"/>
<polygon fill="#FFFFFF" points="127.742,43.619 127.742,28.748 124.702,31.908 122.384,29.471 128.285,23.54 131.807,23.54 
	131.807,43.619 "/>
<path fill="#FFFFFF" d="M141.264,165.772c-10.387,6.445-19.063,10.537-20.967,11.415c-1.905-0.878-10.58-4.97-20.967-11.416v0.492
	c-0.003-0.002,0.004-0.005,0-0.007v15.051c11.415,7.015,20.568,11.112,20.568,11.112l0.399-0.001l0.399,0.001
	c0,0,9.152-4.099,20.567-11.112v-15.051c-0.005,0.002,0.005,0.005,0,0.007L141.264,165.772L141.264,165.772z"/>
<path fill="#FFFFFF" d="M96.014,164.636c-9.748-6.171-20.759-14.313-29.014-23.745v15.052c8.118,9.568,19.145,17.857,29.014,24.17
	v-15.052c-0.004-0.002,0.003-0.005,0-0.007V164.636z"/>
<path fill="#FFFFFF" d="M144.579,164.636v0.418c-0.005,0.002,0.003,0.005,0,0.007v15.052c9.868-6.313,20.896-14.602,29.014-24.17
	v-15.052C165.337,150.322,154.327,158.465,144.579,164.636"/>
<polygon fill="#FFFFFF" points="89.127,31.957 77.387,34.666 66.551,31.957 66.551,25.636 77.387,28.345 89.127,25.636 "/>
<polygon fill="#FFFFFF" points="89.127,40.987 77.387,43.696 66.551,40.987 66.551,34.666 77.387,37.375 89.127,34.666 "/>
<polygon fill="#A08EC3" points="173.491,31.957 161.751,34.666 150.915,31.957 150.915,25.636 161.751,28.345 173.491,25.636 "/>
<polygon fill="#A08EC3" points="173.491,40.987 161.751,43.696 150.915,40.987 150.915,34.666 161.751,37.375 173.491,34.666 "/>
</svg>
