<?xml version="1.0" encoding="utf-8"?>
<!-- Generator: Adobe Illustrator 16.0.0, SVG Export Plug-In . SVG Version: 6.00 Build 0)  -->
<!DOCTYPE svg PUBLIC "-//W3C//DTD SVG 1.1//EN" "http://www.w3.org/Graphics/SVG/1.1/DTD/svg11.dtd">
<svg version="1.1" id="Layer_1" xmlns="http://www.w3.org/2000/svg" xmlns:xlink="http://www.w3.org/1999/xlink" x="0px" y="0px"
	 width="240px" height="195px" viewBox="0 0 240 195" enable-background="new 0 0 240 195" xml:space="preserve">
<path fill="none" d="M78.63-2257.76"/>
<path fill="none" d="M78.63,987.837"/>
<path fill="#1A1A19" d="M120.344,192.421c0,0,9.152-4.099,20.566-11.112v-15.051c-0.004,0.002,0.004,0.005,0,0.007v-0.491
	c-10.387,6.445-19.063,10.537-20.966,11.416c-1.905-0.879-10.58-4.971-20.967-11.416v0.491c-0.003-0.002,0.004-0.005,0-0.007v15.051
	c11.415,7.015,20.568,11.112,20.568,11.112"/>
<path fill="#1A1A19" d="M95.662,164.636c-9.748-6.171-20.759-14.313-29.014-23.745v15.052c8.118,9.568,19.145,17.857,29.014,24.17
	v-15.052c-0.004-0.002,0.003-0.005,0-0.007V164.636z"/>
<path fill="#1A1A19" d="M144.227,164.636v0.418c-0.004,0.002,0.004,0.005,0,0.007v15.052c9.869-6.313,20.896-14.602,29.016-24.17
	v-15.052C164.984,150.322,153.975,158.465,144.227,164.636"/>
<path fill="#020202" d="M194.311,139.497c-0.916-0.017-1.783-0.026-2.639,0.015c3.211-4.57,2.291-10.164,4.059-15.119l-0.018-0.22
	c-5.329,2.009-8.124,6.7-10.73,11.657c-1.86,3.592-3.684,7.274-6.34,9.994c1.109,0.08,2.153,0.229,3.234,0.388
	c1.122,0.164,2.273,0.386,3.436,0.692c2.306,0.135,4.58,0.237,6.731,0.167c4.034-0.171,7.795-0.855,11.037-2.606
	c1.502-0.798,2.901-1.849,4.131-3.161c-0.948-0.152-1.991-0.342-3.028-0.522C200.919,140.225,197.484,139.655,194.311,139.497"/>
<path fill="#020202" d="M207.311,121.666c-1.494-5.036-4.274-10.122-3.865-15.641l-0.143-0.221l-0.373,0.165
	c-0.046,0.036-0.098,0.108-0.102,0.146c-0.293,0.5-0.602,0.785-1.137,1.3c-3.805,6.707-3.229,14.78-1.275,21.92
	c0.32,1.176,0.652,2.296,1.063,3.425c3.424-2.676,7.646-3.358,11.443-5.306c0.342-0.207,0.676-0.37,1.029-0.582
	c3.659-2.642,5.886-7.007,6.841-11.183c-2.373,0.756-4.7,1.366-6.876,2.186C211.57,118.721,209.309,119.863,207.311,121.666"/>
<path fill="#020202" d="M31.225,98.778c0.117,1.752,0.69,3.56,0.63,5.435c-0.208,0.814-0.353,1.625-0.512,2.453
	c-0.499,2.185-1.119,4.204-2.547,5.305c-1.651-2.336-3.224-4.857-3.98-7.992c-0.23-2.088-0.103-4.092,0.351-6.048
	c0.698-3.078,2.194-5.974,4.379-8.601c0.069-0.091,0.125-0.13,0.158-0.195l0.408-0.074c-0.051,0.283-0.077,0.596-0.112,0.913
	C29.761,92.929,30.469,95.645,31.225,98.778"/>
<path fill="#020202" d="M209.055,98.778c-0.117,1.752-0.688,3.56-0.63,5.435c0.208,0.814,0.354,1.625,0.513,2.453
	c0.498,2.185,1.119,4.204,2.547,5.305c1.65-2.336,3.225-4.857,3.979-7.992c0.23-2.088,0.104-4.092-0.351-6.048
	c-0.698-3.078-2.194-5.974-4.379-8.601c-0.069-0.091-0.125-0.13-0.158-0.195l-0.408-0.074c0.051,0.283,0.077,0.596,0.111,0.913
	C210.52,92.929,209.811,95.645,209.055,98.778"/>
<path fill="#020202" d="M45.579,139.497c0.916-0.017,1.783-0.026,2.638,0.015c-3.211-4.57-2.291-10.164-4.058-15.119l0.017-0.22
	c5.329,2.009,8.124,6.7,10.731,11.657c1.861,3.592,3.683,7.274,6.339,9.994c-1.109,0.08-2.153,0.229-3.234,0.388
	c-1.122,0.164-2.276,0.386-3.435,0.692c-2.306,0.135-4.581,0.237-6.733,0.167c-4.034-0.171-7.794-0.855-11.036-2.606
	c-1.502-0.798-2.902-1.849-4.131-3.161c0.949-0.152,1.992-0.342,3.028-0.522C38.969,140.225,42.403,139.655,45.579,139.497"/>
<path fill="#020202" d="M32.579,121.666c1.494-5.036,4.274-10.122,3.865-15.641l0.142-0.221l0.374,0.165
	c0.045,0.036,0.097,0.108,0.102,0.146c0.292,0.5,0.601,0.785,1.136,1.3c3.805,6.707,3.23,14.78,1.275,21.92
	c-0.32,1.176-0.653,2.296-1.062,3.425c-3.423-2.676-7.644-3.358-11.443-5.306c-0.341-0.207-0.676-0.37-1.029-0.582
	c-3.66-2.642-5.886-7.007-6.842-11.183c2.373,0.756,4.701,1.366,6.877,2.186C28.318,118.721,30.581,119.863,32.579,121.666"/>
<path fill="#A08EC3" d="M56.618,40.484v19.898l0.008,48.793c0,34.971,63.319,63.318,63.319,63.318s63.319-28.35,63.319-63.318
	l0.008-48.793V40.484H56.618z"/>
<g opacity="0.5">
	<g>
		<g>
			<defs>
				<rect id="SVGID_1_" x="82.87" y="40.43" width="97.69" height="127.58"/>
			</defs>
			<clipPath id="SVGID_2_">
				<use xlink:href="#SVGID_1_"  overflow="visible"/>
			</clipPath>
			<path clip-path="url(#SVGID_2_)" fill="#5C65AE" d="M120.535,40.432v22.024c-20.803,0.188-37.669,17.169-37.669,38.016
				c0,20.848,16.866,37.826,37.669,38.018v29.453c0.042,0.021,0.087,0.044,0.128,0.063c5.591-2.753,17.619-9.048,29.468-17.652
				c9.191-6.674,16.454-13.391,21.588-19.967c5.867-7.513,8.842-14.722,8.842-21.427V61.736V40.431L120.535,40.432L120.535,40.432z"
				/>
		</g>
	</g>
</g>
<g opacity="0.4">
	<g>
		<g>
			<defs>
				<rect id="SVGID_3_" x="55.34" y="36.64" width="129.21" height="137.19"/>
			</defs>
			<clipPath id="SVGID_4_">
				<use xlink:href="#SVGID_3_"  overflow="visible"/>
			</clipPath>
			<path clip-path="url(#SVGID_4_)" fill="#FFFFFF" d="M170.756,50.438v9.011l-0.008,49.784c0,18.229-31.246,39.336-50.803,49.295
				c-19.566-9.965-50.805-31.069-50.805-49.299l-0.008-49.777v-9.015L170.756,50.438 M184.553,36.64H55.335v22.812l0.009,49.781
				c0,35.677,64.601,64.6,64.601,64.6s64.601-28.923,64.601-64.6l0.009-49.781V36.64H184.553z"/>
		</g>
	</g>
</g>
<path fill="#1A1A19" d="M178.292,18.025h-18.839L120.389,7.072L82.628,18.025H61.597c-3.458,0-6.261,2.804-6.261,6.262V36.64v16.528
	v6.282l0.008,49.78c0,35.679,64.601,64.602,64.601,64.602s64.6-28.923,64.6-64.602l0.008-49.78v-6.282V36.64V24.287
	C184.553,20.829,181.75,18.025,178.292,18.025 M177.027,59.449l-0.008,49.781c0,8.39-5.031,22.043-28.998,39.445
	c-11.289,8.197-22.75,14.195-28.078,16.819c-5.33-2.625-16.79-8.622-28.079-16.819c-23.966-17.402-28.996-31.057-28.996-39.446
	L62.86,59.45v-6.282h114.167V59.449L177.027,59.449z"/>
<path fill="#FFFFFF" d="M151.814,100.472c0,16.843-13.652,30.495-30.494,30.495c-16.842,0-30.495-13.652-30.495-30.495
	c0-16.842,13.653-30.495,30.495-30.495C138.162,69.977,151.814,83.63,151.814,100.472"/>
<path fill="#A08EC3" d="M120.886,77.001c12.942,0,23.472,10.529,23.472,23.471c0,12.942-10.528,23.473-23.472,23.473
	c-12.942,0-23.471-10.529-23.471-23.473C97.415,87.53,107.944,77.001,120.886,77.001 M120.886,69.977
	c-16.842,0-30.495,13.653-30.495,30.495c0,16.844,13.653,30.495,30.495,30.495c16.843,0,30.495-13.651,30.495-30.495
	C151.381,83.63,137.729,69.977,120.886,69.977"/>
<path fill="#191818" d="M120.886,132.974c-17.921,0-32.502-14.581-32.502-32.502c0-17.922,14.581-32.502,32.502-32.502
	s32.5,14.58,32.5,32.502C153.387,118.393,138.807,132.974,120.886,132.974 M120.886,71.983c-15.708,0-28.488,12.779-28.488,28.487
	s12.78,28.488,28.488,28.488s28.488-12.78,28.488-28.488S136.594,71.983,120.886,71.983"/>
<path fill="#191818" d="M130.001,93.636c0-5.034-4.081-9.114-9.115-9.114c-5.034,0-9.115,4.08-9.115,9.114
	c0,3.373,1.834,6.315,4.558,7.893v12.362c0,1.398,1.133,2.532,2.531,2.532h4.051c1.399,0,2.532-1.134,2.532-2.532v-12.362
	C128.167,99.951,130.001,97.009,130.001,93.636"/>
<g>
	<g>
		<defs>
			<path id="SVGID_5_" d="M64.588,130.498l56.373,2.085V98.904c2.669-0.184,4.78-2.399,4.78-5.115s-2.111-4.934-4.78-5.115v-27.94
				l-56.373-2.084V130.498z"/>
		</defs>
		<clipPath id="SVGID_6_">
			<use xlink:href="#SVGID_5_"  overflow="visible"/>
		</clipPath>
		<path clip-path="url(#SVGID_6_)" fill="#FFFFFF" d="M144.721,91.275h-36.428c-3.507-8.112-5.374-11.722-14.774-11.722
			c-12.618,0-16.644,8.162-16.644,20.78s4.025,20.779,16.644,20.779c8.637,0,9.947-2.725,13.832-9.793l20.252-0.001v-4.461h-4.092
			l2.067,4.461h4.964v-4.461h4.346l2.067,4.461h3.626l8.453-8.194V94.63L144.721,91.275z"/>
	</g>
	<g>
		<defs>
			<path id="SVGID_7_" d="M64.588,130.498l56.373,2.085V98.904c2.669-0.184,4.78-2.399,4.78-5.115s-2.111-4.934-4.78-5.115v-27.94
				l-56.373-2.084V130.498z"/>
		</defs>
		<clipPath id="SVGID_8_">
			<use xlink:href="#SVGID_7_"  overflow="visible"/>
		</clipPath>
		<path clip-path="url(#SVGID_8_)" fill="#A08EC3" d="M143.615,92.204h-35.424c-3.411-7.888-5.227-11.397-14.368-11.397
			c-12.064,0-15.85,7.605-16.176,19.594h70.166v-4.932L143.615,92.204z"/>
	</g>
	<g>
		<defs>
			<path id="SVGID_9_" d="M64.588,130.498l56.373,2.085V98.904c2.669-0.184,4.78-2.399,4.78-5.115s-2.111-4.934-4.78-5.115v-27.94
				l-56.373-2.084V130.498z"/>
		</defs>
		<clipPath id="SVGID_10_">
			<use xlink:href="#SVGID_9_"  overflow="visible"/>
		</clipPath>
		<path clip-path="url(#SVGID_10_)" fill="#191818" d="M93.519,123.121L93.519,123.121c-6.666,0-11.607-2.187-14.687-6.498
			c-2.666-3.734-3.962-9.063-3.962-16.289c0-15.332,6.101-22.785,18.649-22.785c10.022,0,12.688,4.014,16.088,11.72h35.801
			l5.634,4.383v10.325l-9.646,9.352h-5.723l-2.068-4.462h-1.055v4.462h-24.014C104.95,119.849,102.877,123.121,93.519,123.121
			 M93.519,81.563c-10.259,0-14.636,5.613-14.636,18.771c0,6.361,1.052,10.927,3.216,13.956c2.314,3.242,6.05,4.817,11.42,4.817
			c7.269,0,8.235-1.763,11.833-8.316l0.812-1.479h18.123l5.322-11.738v7.277h6.562l2.067,4.461h1.531l7.26-7.036v-6.663
			l-2.998-2.331h-37.056l-0.523-1.211C102.923,83.914,101.548,81.563,93.519,81.563"/>
	</g>
	<g>
		<defs>
			<path id="SVGID_11_" d="M64.588,130.498l56.373,2.085V98.904c2.669-0.184,4.78-2.399,4.78-5.115s-2.111-4.934-4.78-5.115v-27.94
				l-56.373-2.084V130.498z"/>
		</defs>
		<clipPath id="SVGID_12_">
			<use xlink:href="#SVGID_11_"  overflow="visible"/>
		</clipPath>
		<path clip-path="url(#SVGID_12_)" fill="#231F20" d="M86.451,109.25c-1.524,0-2.759-1.234-2.759-2.759v-13.03
			c0-1.523,1.234-2.76,2.759-2.76c1.524,0,2.759,1.234,2.759,2.76v13.03C89.21,108.016,87.975,109.25,86.451,109.25"/>
	</g>
</g>
<rect x="120.013" y="109.223" fill="#191818" width="2.215" height="2.867"/>
<rect x="124.214" y="90.457" fill="#191818" width="2.216" height="2.867"/>
<path fill="#FFFFFF" d="M96.993,40.729l2.408-2.528c1.024,1.325,2.619,2.198,4.305,2.198c2.108,0,3.071-1.114,3.071-2.68
	c0-1.867-1.294-2.529-3.251-2.529c-0.662,0-1.566,0-1.867,0.061v-3.643c0.301,0.029,1.295,0.029,1.776,0.029
	c1.837,0,3.071-0.753,3.071-2.317c0-1.687-1.204-2.499-2.95-2.499c-1.565,0-2.98,0.723-4.004,2.018l-2.288-2.349
	c1.445-2.018,3.733-3.252,6.623-3.252c3.974,0,6.593,1.896,6.593,5.45c0,2.287-1.716,4.153-3.793,4.575
	c2.047,0.302,4.094,2.106,4.094,4.816c0,3.492-2.679,5.9-6.894,5.9C100.695,43.98,98.257,42.565,96.993,40.729"/>
<path fill="#FFFFFF" d="M112.795,33.624c0-6.021,2.861-10.387,8.038-10.387c2.138,0,3.974,0.844,5.149,2.168l-1.957,3.011
	c-0.783-1.054-1.717-1.596-3.131-1.596c-2.439,0-4.004,2.8-4.004,5.991v0.361c0.752-1.386,2.378-2.561,4.275-2.561
	c3.01,0,5.629,2.258,5.629,6.533c0,3.884-2.649,6.835-6.593,6.835C114.872,43.981,112.795,39.193,112.795,33.624 M122.7,37.297
	c0-2.348-1.386-3.221-2.8-3.221c-1.294,0-2.318,0.902-3.01,2.047c0.15,1.896,0.843,4.275,3.07,4.275
	C121.797,40.398,122.7,38.803,122.7,37.297"/>
<path fill="#FFFFFF" d="M128.779,40.819l2.438-2.589c1.055,1.385,2.471,2.168,4.188,2.168c1.926,0,3.039-1.476,3.039-3.162
	c0-1.985-1.055-3.16-2.859-3.16c-1.354,0-2.378,0.48-3.313,1.655l-2.92-0.782V23.54h12.041v3.551h-8.008v5.149
	c0.783-0.964,2.139-1.656,3.674-1.656c3.041,0,5.479,2.379,5.479,6.533c0,4.033-2.739,6.863-7.015,6.863
	C132.422,43.98,130.284,42.837,128.779,40.819"/>
<polygon fill="#FFFFFF" points="91.203,32.315 83.745,31.185 80.424,24.087 77.104,31.185 69.645,32.315 75.035,37.85 
	73.687,45.645 80.424,41.964 87.161,45.645 85.813,37.85 "/>
<polygon fill="#FFFFFF" points="170.869,32.315 163.412,31.185 160.091,24.087 156.771,31.185 149.313,32.315 154.701,37.85 
	153.354,45.645 160.091,41.964 166.827,45.645 165.48,37.85 "/>
</svg>
