<?xml version="1.0" encoding="utf-8"?>
<!-- Generator: Adobe Illustrator 16.0.0, SVG Export Plug-In . SVG Version: 6.00 Build 0)  -->
<!DOCTYPE svg PUBLIC "-//W3C//DTD SVG 1.1//EN" "http://www.w3.org/Graphics/SVG/1.1/DTD/svg11.dtd">
<svg version="1.1" id="Layer_1" xmlns="http://www.w3.org/2000/svg" xmlns:xlink="http://www.w3.org/1999/xlink" x="0px" y="0px"
	 width="612px" height="792px" viewBox="0 0 612 792" enable-background="new 0 0 612 792" xml:space="preserve">
<path fill="none" d="M346.63,60"/>
<path fill="none" d="M346.63,3305.597"/>
<path fill="#1A1A19" d="M303.344,485.421c0,0,9.152-4.099,20.566-11.112v-15.051c-0.004,0.002,0.004,0.005,0,0.007v-0.492
	c-10.386,6.446-19.062,10.538-20.966,11.416c-1.905-0.878-10.58-4.97-20.967-11.416v0.492c-0.003-0.002,0.004-0.005,0-0.007v15.051
	c11.415,7.014,20.568,11.112,20.568,11.112"/>
<path fill="#1A1A19" d="M278.662,457.636c-9.748-6.171-20.759-14.313-29.014-23.745v15.051c8.118,9.569,19.145,17.858,29.014,24.17
	v-15.051c-0.004-0.002,0.003-0.005,0-0.007V457.636z"/>
<path fill="#1A1A19" d="M327.227,457.636v0.418c-0.004,0.002,0.004,0.005,0,0.007v15.051c9.869-6.312,20.896-14.601,29.015-24.17
	v-15.051C347.984,443.322,336.975,451.465,327.227,457.636"/>
<path fill="#010101" d="M377.31,432.497c-0.916-0.017-1.783-0.026-2.638,0.015c3.211-4.571,2.291-10.164,4.058-15.119l-0.017-0.22
	c-5.329,2.009-8.124,6.7-10.731,11.657c-1.86,3.592-3.683,7.274-6.339,9.994c1.109,0.08,2.153,0.229,3.234,0.388
	c1.122,0.164,2.274,0.386,3.435,0.692c2.306,0.135,4.581,0.238,6.732,0.167c4.034-0.171,7.795-0.855,11.037-2.606
	c1.502-0.798,2.901-1.849,4.131-3.161c-0.949-0.153-1.992-0.342-3.028-0.523C383.919,433.225,380.485,432.655,377.31,432.497"/>
<path fill="#010101" d="M390.31,414.666c-1.494-5.036-4.274-10.122-3.865-15.641l-0.142-0.22l-0.374,0.165
	c-0.045,0.036-0.097,0.108-0.101,0.145c-0.293,0.5-0.602,0.785-1.137,1.3c-3.805,6.707-3.229,14.78-1.275,21.92
	c0.32,1.176,0.653,2.296,1.063,3.425c3.423-2.676,7.645-3.359,11.443-5.306c0.341-0.207,0.676-0.37,1.029-0.582
	c3.659-2.642,5.886-7.007,6.841-11.183c-2.373,0.756-4.7,1.367-6.876,2.186C394.57,411.721,392.308,412.863,390.31,414.666"/>
<path fill="#010101" d="M214.225,391.778c0.117,1.752,0.69,3.56,0.63,5.435c-0.208,0.814-0.353,1.625-0.512,2.453
	c-0.499,2.185-1.119,4.204-2.547,5.305c-1.651-2.336-3.224-4.858-3.98-7.992c-0.23-2.088-0.103-4.092,0.351-6.048
	c0.698-3.078,2.194-5.974,4.379-8.601c0.069-0.091,0.125-0.13,0.158-0.195l0.408-0.074c-0.051,0.283-0.077,0.595-0.112,0.913
	C212.761,385.929,213.469,388.645,214.225,391.778"/>
<path fill="#010101" d="M392.055,391.778c-0.117,1.752-0.689,3.56-0.63,5.435c0.208,0.814,0.354,1.625,0.513,2.453
	c0.498,2.185,1.119,4.204,2.547,5.305c1.65-2.336,3.224-4.858,3.979-7.992c0.23-2.088,0.104-4.092-0.351-6.048
	c-0.698-3.078-2.194-5.974-4.379-8.601c-0.069-0.091-0.125-0.13-0.158-0.195l-0.408-0.074c0.051,0.283,0.077,0.595,0.112,0.913
	C393.52,385.929,392.811,388.645,392.055,391.778"/>
<path fill="#010101" d="M228.579,432.497c0.916-0.017,1.783-0.026,2.638,0.015c-3.211-4.571-2.291-10.164-4.058-15.119l0.017-0.22
	c5.329,2.009,8.124,6.7,10.731,11.657c1.861,3.592,3.683,7.274,6.339,9.994c-1.109,0.08-2.153,0.229-3.234,0.388
	c-1.122,0.164-2.276,0.386-3.435,0.692c-2.306,0.135-4.581,0.238-6.733,0.167c-4.034-0.171-7.794-0.855-11.036-2.606
	c-1.502-0.798-2.902-1.849-4.131-3.161c0.949-0.153,1.992-0.342,3.028-0.523C221.969,433.225,225.403,432.655,228.579,432.497"/>
<path fill="#010101" d="M215.579,414.666c1.494-5.036,4.274-10.122,3.865-15.641l0.142-0.22l0.374,0.165
	c0.045,0.036,0.097,0.108,0.102,0.145c0.292,0.5,0.601,0.785,1.136,1.3c3.805,6.707,3.23,14.78,1.275,21.92
	c-0.32,1.176-0.653,2.296-1.062,3.425c-3.423-2.676-7.644-3.359-11.443-5.306c-0.341-0.207-0.676-0.37-1.029-0.582
	c-3.66-2.642-5.886-7.007-6.842-11.183c2.373,0.756,4.701,1.367,6.877,2.186C211.318,411.721,213.581,412.863,215.579,414.666"/>
<path fill="#A18EC4" d="M239.618,333.484v19.899l0.008,48.793c0,34.97,63.319,63.318,63.319,63.318s63.318-28.349,63.318-63.318
	l0.008-48.793v-19.899H239.618z"/>
<g opacity="0.5">
	<g>
		<defs>
			<rect id="SVGID_1_" x="265.87" y="333.43" width="97.69" height="127.58"/>
		</defs>
		<clipPath id="SVGID_2_">
			<use xlink:href="#SVGID_1_"  overflow="visible"/>
		</clipPath>
		<path clip-path="url(#SVGID_2_)" fill="#5C64AE" d="M303.535,333.432v22.024c-20.803,0.189-37.669,17.169-37.669,38.016
			s16.866,37.826,37.669,38.017v29.453c0.042,0.021,0.087,0.044,0.128,0.064c5.591-2.753,17.619-9.048,29.468-17.652
			c9.191-6.674,16.454-13.391,21.588-19.967c5.867-7.513,8.842-14.722,8.842-21.427v-47.224v-21.305H303.535z"/>
	</g>
</g>
<g opacity="0.4">
	<g>
		<defs>
			<rect id="SVGID_3_" x="238.34" y="329.64" width="129.21" height="137.19"/>
		</defs>
		<clipPath id="SVGID_4_">
			<use xlink:href="#SVGID_3_"  overflow="visible"/>
		</clipPath>
		<path clip-path="url(#SVGID_4_)" fill="#FFFFFF" d="M353.756,343.437v9.011l-0.008,49.784c0,18.229-31.246,39.336-50.803,49.295
			c-19.566-9.964-50.805-31.069-50.805-49.298l-0.008-49.778v-9.014H353.756 M367.553,329.64H238.335v22.811l0.009,49.781
			c0,35.677,64.601,64.6,64.601,64.6s64.601-28.923,64.601-64.6l0.008-49.781V329.64z"/>
	</g>
</g>
<path fill="#1A1A19" d="M361.292,311.025h-18.839l-39.064-10.953l-37.761,10.953h-21.031c-3.458,0-6.261,2.804-6.261,6.262v12.353
	v16.528v6.282l0.008,49.78c0,35.679,64.601,64.602,64.601,64.602s64.6-28.923,64.6-64.602l0.008-49.78v-6.282V329.64v-12.353
	C367.553,313.829,364.75,311.025,361.292,311.025 M360.027,352.449l-0.008,49.781c0,8.39-5.031,22.043-28.997,39.446
	c-11.289,8.197-22.75,14.195-28.078,16.819c-5.33-2.625-16.79-8.622-28.079-16.819c-23.966-17.403-28.996-31.057-28.996-39.447
	l-0.009-49.779v-6.282h114.167V352.449z"/>
<path fill="#FFFFFF" d="M334.815,393.472c0,16.842-13.653,30.495-30.495,30.495s-30.495-13.653-30.495-30.495
	s13.653-30.495,30.495-30.495S334.815,376.63,334.815,393.472"/>
<path fill="#A18EC4" d="M303.886,370.001c12.942,0,23.472,10.529,23.472,23.471c0,12.942-10.529,23.472-23.472,23.472
	c-12.942,0-23.471-10.529-23.471-23.472C280.415,380.53,290.944,370.001,303.886,370.001 M303.886,362.977
	c-16.842,0-30.495,13.653-30.495,30.495c0,16.843,13.653,30.495,30.495,30.495s30.495-13.652,30.495-30.495
	C334.381,376.63,320.728,362.977,303.886,362.977"/>
<path fill="#191818" d="M303.886,425.974c-17.921,0-32.502-14.581-32.502-32.502c0-17.922,14.581-32.502,32.502-32.502
	c17.92,0,32.5,14.58,32.5,32.502C336.387,411.393,321.807,425.974,303.886,425.974 M303.886,364.983
	c-15.708,0-28.488,12.78-28.488,28.488s12.78,28.488,28.488,28.488c15.708,0,28.488-12.78,28.488-28.488
	S319.594,364.983,303.886,364.983"/>
<path fill="#191818" d="M313.001,386.636c0-5.034-4.081-9.115-9.115-9.115c-5.034,0-9.115,4.081-9.115,9.115
	c0,3.373,1.834,6.315,4.558,7.892v12.363c0,1.398,1.133,2.532,2.531,2.532h4.051c1.399,0,2.532-1.134,2.532-2.532v-12.363
	C311.167,392.951,313.001,390.009,313.001,386.636"/>
<g>
	<defs>
		<path id="SVGID_5_" d="M247.588,423.498l56.373,2.085v-33.679c2.669-0.183,4.78-2.399,4.78-5.115s-2.111-4.934-4.78-5.115v-27.941
			l-56.373-2.084V423.498z"/>
	</defs>
	<clipPath id="SVGID_6_">
		<use xlink:href="#SVGID_5_"  overflow="visible"/>
	</clipPath>
	<path clip-path="url(#SVGID_6_)" fill="#FFFFFF" d="M327.72,384.275h-36.427c-3.507-8.112-5.374-11.721-14.774-11.721
		c-12.618,0-16.644,8.162-16.644,20.78s4.025,20.779,16.644,20.779c8.637,0,9.947-2.724,13.832-9.793l20.253-0.001v-4.461h-4.092
		l2.067,4.461h4.964v-4.461h4.345l2.068,4.461h3.626l8.453-8.194v-8.495L327.72,384.275z"/>
	<path clip-path="url(#SVGID_6_)" fill="#A18EC4" d="M326.615,385.204h-35.424c-3.411-7.888-5.227-11.397-14.368-11.397
		c-12.064,0-15.85,7.605-16.176,19.593h70.165v-4.931L326.615,385.204z"/>
	<path clip-path="url(#SVGID_6_)" fill="#191818" d="M276.519,416.121L276.519,416.121c-6.666,0-11.607-2.186-14.687-6.498
		c-2.666-3.734-3.962-9.062-3.962-16.289c0-15.332,6.101-22.785,18.649-22.785c10.022,0,12.688,4.013,16.088,11.72h35.801
		l5.634,4.382v10.326l-9.646,9.351h-5.722l-2.068-4.462h-1.055v4.462h-24.014C287.95,412.849,285.877,416.121,276.519,416.121
		 M276.519,374.563c-10.259,0-14.636,5.613-14.636,18.771c0,6.361,1.052,10.927,3.216,13.956c2.314,3.242,6.05,4.817,11.42,4.817
		c7.269,0,8.235-1.762,11.833-8.316l0.812-1.478h18.123l5.323-11.739v7.278h6.561l2.067,4.461h1.532l7.259-7.037v-6.663
		l-2.998-2.331h-37.056l-0.523-1.211C285.923,376.914,284.548,374.563,276.519,374.563"/>
	<path clip-path="url(#SVGID_6_)" fill="#231F20" d="M269.451,402.25c-1.524,0-2.759-1.234-2.759-2.759v-13.03
		c0-1.524,1.234-2.76,2.759-2.76c1.524,0,2.759,1.235,2.759,2.76v13.03C272.21,401.016,270.975,402.25,269.451,402.25"/>
</g>
<rect x="303.013" y="402.223" fill="#191818" width="2.215" height="2.867"/>
<rect x="307.214" y="383.457" fill="#191818" width="2.216" height="2.867"/>
<path fill="#FFFFFF" d="M279.993,333.729l2.408-2.529c1.024,1.325,2.619,2.198,4.305,2.198c2.108,0,3.071-1.114,3.071-2.679
	c0-1.867-1.294-2.53-3.251-2.53c-0.662,0-1.566,0-1.867,0.061v-3.643c0.301,0.03,1.295,0.03,1.776,0.03
	c1.837,0,3.071-0.753,3.071-2.318c0-1.686-1.204-2.499-2.95-2.499c-1.565,0-2.98,0.723-4.004,2.018l-2.288-2.349
	c1.445-2.017,3.733-3.252,6.623-3.252c3.974,0,6.593,1.897,6.593,5.45c0,2.288-1.716,4.154-3.793,4.576
	c2.047,0.301,4.094,2.106,4.094,4.816c0,3.492-2.679,5.9-6.894,5.9C283.695,336.98,281.257,335.565,279.993,333.729"/>
<path fill="#FFFFFF" d="M295.795,326.624c0-6.021,2.861-10.387,8.038-10.387c2.138,0,3.974,0.844,5.149,2.168l-1.957,3.011
	c-0.783-1.054-1.716-1.596-3.131-1.596c-2.439,0-4.004,2.8-4.004,5.992v0.361c0.752-1.386,2.378-2.561,4.275-2.561
	c3.01,0,5.629,2.258,5.629,6.534c0,3.883-2.649,6.834-6.593,6.834C297.872,336.981,295.795,332.193,295.795,326.624 M305.7,330.297
	c0-2.348-1.385-3.221-2.8-3.221c-1.294,0-2.318,0.903-3.01,2.047c0.15,1.897,0.843,4.275,3.07,4.275
	C304.797,333.398,305.7,331.803,305.7,330.297"/>
<path fill="#FFFFFF" d="M311.779,333.819l2.438-2.589c1.055,1.385,2.47,2.168,4.187,2.168c1.926,0,3.04-1.475,3.04-3.162
	c0-1.985-1.055-3.16-2.86-3.16c-1.354,0-2.378,0.481-3.312,1.655l-2.92-0.782V316.54h12.041v3.551h-8.008v5.149
	c0.783-0.964,2.139-1.656,3.674-1.656c3.041,0,5.479,2.379,5.479,6.533c0,4.033-2.739,6.863-7.014,6.863
	C315.422,336.98,313.284,335.837,311.779,333.819"/>
<polygon fill="#FFFFFF" points="274.203,325.315 266.745,324.185 263.424,317.087 260.104,324.185 252.645,325.315 258.035,330.85 
	256.687,338.645 263.424,334.964 270.161,338.645 268.813,330.85 "/>
<polygon fill="#FFFFFF" points="353.869,325.315 346.412,324.185 343.091,317.087 339.771,324.185 332.312,325.315 337.701,330.85 
	336.354,338.645 343.091,334.964 349.827,338.645 348.48,330.85 "/>
</svg>
