<?xml version="1.0" encoding="utf-8"?>
<!-- Generator: Adobe Illustrator 16.0.0, SVG Export Plug-In . SVG Version: 6.00 Build 0)  -->
<!DOCTYPE svg PUBLIC "-//W3C//DTD SVG 1.1//EN" "http://www.w3.org/Graphics/SVG/1.1/DTD/svg11.dtd">
<svg version="1.1" id="Layer_1" xmlns="http://www.w3.org/2000/svg" xmlns:xlink="http://www.w3.org/1999/xlink" x="0px" y="0px"
	 width="240px" height="195px" viewBox="0 0 240 195" enable-background="new 0 0 240 195" xml:space="preserve">
<path fill="none" d="M78.63-2257.76"/>
<path fill="none" d="M78.63,987.837"/>
<path fill="#A08EC3" d="M57.061,40.705v19.834l0.008,48.629c0,34.852,63.106,63.105,63.106,63.105s63.106-28.255,63.106-63.105
	l0.008-48.629V40.705H57.061L57.061,40.705z"/>
<g opacity="0.5">
	<g>
		<g>
			<defs>
				<rect id="SVGID_1_" x="83.1" y="40.43" width="97.69" height="127.58"/>
			</defs>
			<clipPath id="SVGID_2_">
				<use xlink:href="#SVGID_1_"  overflow="visible"/>
			</clipPath>
			<path clip-path="url(#SVGID_2_)" fill="#5C65AE" d="M120.766,40.432v22.024c-20.803,0.188-37.669,17.169-37.669,38.016
				c0,20.848,16.866,37.826,37.669,38.018v29.453c0.042,0.021,0.087,0.044,0.128,0.063c5.59-2.753,17.62-9.048,29.467-17.652
				c9.191-6.674,16.455-13.391,21.589-19.967c5.866-7.513,8.842-14.722,8.842-21.427V61.736V40.431L120.766,40.432L120.766,40.432z"
				/>
		</g>
	</g>
</g>
<g opacity="0.4">
	<g>
		<g>
			<defs>
				<rect id="SVGID_3_" x="55.57" y="36.64" width="129.21" height="137.19"/>
			</defs>
			<clipPath id="SVGID_4_">
				<use xlink:href="#SVGID_3_"  overflow="visible"/>
			</clipPath>
			<path clip-path="url(#SVGID_4_)" fill="#FFFFFF" d="M170.986,50.438v9.011l-0.008,49.784c0,18.229-31.246,39.336-50.804,49.295
				c-19.566-9.965-50.805-31.069-50.805-49.299l-0.008-49.777v-9.015L170.986,50.438 M184.783,36.64H55.566v22.812l0.009,49.781
				c0,35.677,64.6,64.6,64.6,64.6s64.601-28.923,64.601-64.6l0.009-49.781L184.783,36.64L184.783,36.64z"/>
		</g>
	</g>
</g>
<path fill="#1A1A19" d="M184.784,36.639V24.287c0-3.459-2.804-6.262-6.263-6.262h-18.836L120.619,7.072L82.858,18.025h-21.03
	c-3.459,0-6.262,2.803-6.262,6.262v12.352v16.529v6.282l0.008,49.78c0,35.679,64.601,64.602,64.601,64.602
	s64.601-28.923,64.601-64.602l0.01-49.78L184.784,36.639L184.784,36.639z M177.25,109.23c0,8.39-5.031,22.043-28.997,39.444
	c-11.289,8.198-22.75,14.196-28.078,16.82c-5.33-2.625-16.79-8.623-28.078-16.82C68.131,131.273,63.1,117.62,63.1,109.23
	l-0.008-49.78v-6.282h114.166v6.281L177.25,109.23z"/>
<path fill="#FFFFFF" d="M152.046,100.472c0,16.843-13.653,30.495-30.495,30.495c-16.841,0-30.495-13.652-30.495-30.495
	c0-16.842,13.654-30.495,30.495-30.495C138.393,69.977,152.046,83.63,152.046,100.472"/>
<path fill="#A08EC3" d="M121.117,77.001c12.941,0,23.471,10.529,23.471,23.471c0,12.942-10.529,23.473-23.471,23.473
	c-12.942,0-23.471-10.529-23.471-23.473C97.646,87.53,108.175,77.001,121.117,77.001 M121.117,69.977
	c-16.842,0-30.495,13.653-30.495,30.495c0,16.844,13.653,30.495,30.495,30.495c16.842,0,30.494-13.651,30.494-30.495
	C151.611,83.63,137.959,69.977,121.117,69.977"/>
<path fill="#191818" d="M121.117,132.974c-17.921,0-32.502-14.581-32.502-32.502c0-17.922,14.581-32.502,32.502-32.502
	c17.92,0,32.5,14.58,32.5,32.502C153.617,118.393,139.037,132.974,121.117,132.974 M121.117,71.983
	c-15.708,0-28.488,12.779-28.488,28.487s12.78,28.488,28.488,28.488s28.488-12.78,28.488-28.488S136.824,71.983,121.117,71.983"/>
<path fill="#191818" d="M130.23,93.636c0-5.034-4.08-9.114-9.114-9.114s-9.115,4.08-9.115,9.114c0,3.373,1.834,6.315,4.558,7.893
	v12.362c0,1.398,1.133,2.532,2.532,2.532h4.052c1.397,0,2.531-1.134,2.531-2.532v-12.362
	C128.396,99.951,130.23,97.009,130.23,93.636"/>
<g>
	<g>
		<defs>
			<path id="SVGID_5_" d="M64.818,130.498l56.372,2.085V98.904c2.672-0.184,4.783-2.399,4.783-5.115s-2.111-4.934-4.783-5.115
				v-27.94l-56.372-2.084V130.498z"/>
		</defs>
		<clipPath id="SVGID_6_">
			<use xlink:href="#SVGID_5_"  overflow="visible"/>
		</clipPath>
		<path clip-path="url(#SVGID_6_)" fill="#FFFFFF" d="M144.95,91.275h-36.426c-3.508-8.112-5.375-11.722-14.775-11.722
			c-12.618,0-16.642,8.162-16.642,20.78c-0.001,12.618,4.024,20.779,16.642,20.779c8.636,0,9.947-2.725,13.832-9.793l20.253-0.001
			v-4.461h-4.092l2.068,4.461h4.963l0.002-4.461h4.343l2.069,4.461h3.625l8.453-8.194V94.63L144.95,91.275z"/>
	</g>
	<g>
		<defs>
			<path id="SVGID_7_" d="M64.818,130.498l56.372,2.085V98.904c2.672-0.184,4.783-2.399,4.783-5.115s-2.111-4.934-4.783-5.115
				v-27.94l-56.372-2.084V130.498z"/>
		</defs>
		<clipPath id="SVGID_8_">
			<use xlink:href="#SVGID_7_"  overflow="visible"/>
		</clipPath>
		<path clip-path="url(#SVGID_8_)" fill="#A08EC3" d="M143.846,92.204h-35.424c-3.411-7.888-5.227-11.397-14.368-11.397
			c-12.066,0-15.85,7.605-16.176,19.594h70.165v-4.932L143.846,92.204z"/>
	</g>
	<g>
		<defs>
			<path id="SVGID_9_" d="M64.818,130.498l56.372,2.085V98.904c2.672-0.184,4.783-2.399,4.783-5.115s-2.111-4.934-4.783-5.115
				v-27.94l-56.372-2.084V130.498z"/>
		</defs>
		<clipPath id="SVGID_10_">
			<use xlink:href="#SVGID_9_"  overflow="visible"/>
		</clipPath>
		<path clip-path="url(#SVGID_10_)" fill="#191818" d="M93.749,123.121L93.749,123.121c-6.666,0-11.607-2.187-14.687-6.498
			c-2.666-3.734-3.962-9.063-3.962-16.289c0-15.332,6.1-22.785,18.649-22.785c10.022,0,12.688,4.014,16.088,11.72h35.802
			l5.633,4.383v10.325l-9.646,9.352h-5.722l-2.068-4.462h-1.055v4.462h-24.013C105.181,119.849,103.108,123.121,93.749,123.121
			 M93.749,81.563c-10.259,0-14.636,5.613-14.636,18.771c0,6.361,1.052,10.927,3.216,13.956c2.315,3.242,6.05,4.817,11.42,4.817
			c7.269,0,8.235-1.763,11.833-8.316l0.812-1.479h18.124l5.322-11.738v7.277h6.561l2.068,4.461H140l7.259-7.036v-6.663l-2.997-2.331
			h-37.057l-0.523-1.211C103.154,83.914,101.779,81.563,93.749,81.563"/>
	</g>
	<g>
		<defs>
			<path id="SVGID_11_" d="M64.818,130.498l56.372,2.085V98.904c2.672-0.184,4.783-2.399,4.783-5.115s-2.111-4.934-4.783-5.115
				v-27.94l-56.372-2.084V130.498z"/>
		</defs>
		<clipPath id="SVGID_12_">
			<use xlink:href="#SVGID_11_"  overflow="visible"/>
		</clipPath>
		<path clip-path="url(#SVGID_12_)" fill="#231F20" d="M86.682,109.25c-1.524,0-2.759-1.234-2.759-2.759v-13.03
			c0-1.523,1.235-2.76,2.759-2.76s2.759,1.234,2.759,2.76v13.03C89.44,108.016,88.206,109.25,86.682,109.25"/>
	</g>
</g>
<rect x="120.243" y="109.223" fill="#191818" width="2.215" height="2.867"/>
<rect x="124.445" y="90.457" fill="#191818" width="2.216" height="2.867"/>
<path fill="#1A1A19" d="M141.141,165.772c-10.386,6.445-19.062,10.537-20.966,11.415c-1.905-0.878-10.58-4.97-20.967-11.416v0.492
	c-0.003-0.002,0.004-0.005,0-0.007v15.051c11.415,7.015,20.568,11.112,20.568,11.112l0.399-0.001l0.399,0.001
	c0,0,9.153-4.099,20.567-11.112v-15.051c-0.005,0.002,0.004,0.005,0,0.007V165.772L141.141,165.772z"/>
<path fill="#1A1A19" d="M95.893,164.636c-9.748-6.171-20.759-14.313-29.014-23.745v15.052c8.118,9.568,19.145,17.857,29.014,24.17
	v-15.052c-0.004-0.002,0.003-0.005,0-0.007V164.636z"/>
<path fill="#1A1A19" d="M144.457,164.636v0.418c-0.004,0.002,0.004,0.005,0,0.007v15.052c9.869-6.313,20.896-14.602,29.016-24.17
	v-15.052C165.215,150.322,154.205,158.465,144.457,164.636"/>
<polygon fill="#FFFFFF" points="104.433,43.619 104.433,28.748 101.392,31.908 99.074,29.471 104.975,23.54 108.497,23.54 
	108.497,43.619 "/>
<path fill="#FFFFFF" d="M111.295,43.619v-3.251c7.346-7.136,8.881-8.73,8.881-11.02c0-1.536-1.174-2.528-2.679-2.528
	c-1.777,0-3.191,0.813-4.275,2.258l-2.409-2.528c1.626-2.167,4.004-3.313,6.744-3.313c3.884,0,6.714,2.349,6.714,6.082
	c0,3.04-2.049,5.63-7.016,10.747h7.105v3.553H111.295z"/>
<path fill="#FFFFFF" d="M126.316,33.594c0-5.178,2.137-10.354,7.104-10.354c4.996,0,7.104,5.178,7.104,10.354
	c0,5.148-2.077,10.389-7.104,10.389C128.453,43.981,126.316,38.742,126.316,33.594 M136.432,33.594c0-3.883-0.662-6.771-3.01-6.771
	c-2.32,0-2.98,2.89-2.98,6.771c0,3.854,0.66,6.806,2.98,6.806C135.77,40.398,136.432,37.448,136.432,33.594"/>
<polygon fill="#FFFFFF" points="91.121,32.315 83.662,31.185 80.342,24.087 77.021,31.185 69.563,32.315 74.952,37.85 
	73.604,45.645 80.342,41.964 87.079,45.645 85.731,37.85 "/>
<polygon fill="#FFFFFF" points="170.787,32.315 163.329,31.185 160.008,24.087 156.688,31.185 149.229,32.315 154.619,37.85 
	153.271,45.645 160.008,41.964 166.745,45.645 165.398,37.85 "/>
</svg>
