<?xml version="1.0" encoding="utf-8"?>
<!-- Generator: Adobe Illustrator 16.0.0, SVG Export Plug-In . SVG Version: 6.00 Build 0)  -->
<!DOCTYPE svg PUBLIC "-//W3C//DTD SVG 1.1//EN" "http://www.w3.org/Graphics/SVG/1.1/DTD/svg11.dtd">
<svg version="1.1" id="Layer_1" xmlns="http://www.w3.org/2000/svg" xmlns:xlink="http://www.w3.org/1999/xlink" x="0px" y="0px"
	 width="240px" height="195px" viewBox="0 0 240 195" enable-background="new 0 0 240 195" xml:space="preserve">
<path fill="none" d="M78.63-2257.76"/>
<path fill="none" d="M78.63,987.837"/>
<path fill="#A08EC3" d="M57.31,49.484v19.898l0.008,48.793c0,34.971,63.319,63.318,63.319,63.318s63.318-28.35,63.318-63.318
	l0.009-48.793V49.484H57.31z"/>
<g opacity="0.5">
	<g>
		<g>
			<defs>
				<rect id="SVGID_1_" x="83.557" y="49.43" width="97.695" height="127.58"/>
			</defs>
			<clipPath id="SVGID_2_">
				<use xlink:href="#SVGID_1_"  overflow="visible"/>
			</clipPath>
			<path clip-path="url(#SVGID_2_)" fill="#5C65AE" d="M121.227,49.432v22.024c-20.803,0.188-37.668,17.169-37.668,38.016
				c0,20.848,16.866,37.826,37.668,38.018v29.453c0.043,0.021,0.088,0.044,0.129,0.063c5.59-2.753,17.619-9.048,29.467-17.652
				c9.191-6.674,16.455-13.391,21.589-19.967c5.866-7.513,8.842-14.722,8.842-21.427V70.736V49.431L121.227,49.432L121.227,49.432z"
				/>
		</g>
	</g>
</g>
<g opacity="0.4">
	<g>
		<g>
			<defs>
				<rect id="SVGID_3_" x="56.027" y="45.64" width="129.218" height="137.19"/>
			</defs>
			<clipPath id="SVGID_4_">
				<use xlink:href="#SVGID_3_"  overflow="visible"/>
			</clipPath>
			<path clip-path="url(#SVGID_4_)" fill="#FFFFFF" d="M171.447,59.438v9.011l-0.008,49.784c0,18.229-31.246,39.336-50.804,49.295
				c-19.566-9.965-50.805-31.069-50.805-49.299l-0.008-49.777v-9.015L171.447,59.438 M185.244,45.64H56.027v22.812l0.009,49.781
				c0,35.677,64.6,64.6,64.6,64.6s64.601-28.923,64.601-64.6l0.009-49.781L185.244,45.64L185.244,45.64z"/>
		</g>
	</g>
</g>
<path fill="#1A1A19" d="M185.245,45.639V33.287c0-3.459-2.804-6.262-6.263-6.262h-18.836L121.08,16.072L83.319,27.025h-21.03
	c-3.459,0-6.262,2.803-6.262,6.262v28.881v6.282l0.008,49.78c0,35.679,64.601,64.602,64.601,64.602s64.601-28.923,64.601-64.602
	l0.009-49.78V45.639z M177.711,118.23c0,8.39-5.031,22.043-28.997,39.444c-11.288,8.198-22.75,14.196-28.078,16.82
	c-5.33-2.625-16.79-8.623-28.078-16.82c-23.966-17.401-28.997-31.056-28.997-39.444l-0.008-49.78v-6.282h114.166v6.281
	L177.711,118.23z"/>
<path fill="#FFFFFF" d="M152.507,109.472c0,16.843-13.653,30.495-30.495,30.495c-16.841,0-30.494-13.652-30.494-30.495
	c0-16.842,13.653-30.495,30.494-30.495C138.854,78.977,152.507,92.63,152.507,109.472"/>
<path fill="#A08EC3" d="M121.578,86.001c12.941,0,23.471,10.529,23.471,23.471c0,12.942-10.529,23.473-23.471,23.473
	c-12.942,0-23.471-10.529-23.471-23.473C98.106,96.53,108.636,86.001,121.578,86.001 M121.578,78.977
	c-16.842,0-30.495,13.653-30.495,30.495c0,16.844,13.653,30.495,30.495,30.495c16.842,0,30.495-13.651,30.495-30.495
	C152.072,92.63,138.42,78.977,121.578,78.977"/>
<path fill="#191818" d="M121.578,141.974c-17.921,0-32.502-14.581-32.502-32.502c0-17.922,14.581-32.502,32.502-32.502
	s32.5,14.58,32.5,32.502C154.078,127.393,139.499,141.974,121.578,141.974 M121.578,80.983c-15.708,0-28.488,12.779-28.488,28.487
	s12.78,28.488,28.488,28.488s28.488-12.78,28.488-28.488S137.285,80.983,121.578,80.983"/>
<path fill="#191818" d="M130.691,102.636c0-5.034-4.08-9.114-9.114-9.114s-9.115,4.08-9.115,9.114c0,3.373,1.834,6.315,4.558,7.893
	v12.362c0,1.398,1.133,2.532,2.532,2.532h4.051c1.397,0,2.531-1.134,2.531-2.532v-12.362
	C128.857,108.951,130.691,106.009,130.691,102.636"/>
<g>
	<g>
		<defs>
			<path id="SVGID_5_" d="M65.28,139.498l56.373,2.085v-33.679c2.671-0.184,4.781-2.399,4.781-5.115s-2.109-4.934-4.781-5.115
				v-27.94L65.28,67.649V139.498z"/>
		</defs>
		<clipPath id="SVGID_6_">
			<use xlink:href="#SVGID_5_"  overflow="visible"/>
		</clipPath>
		<path clip-path="url(#SVGID_6_)" fill="#FFFFFF" d="M145.411,100.275h-36.426c-3.508-8.112-5.375-11.722-14.775-11.722
			c-12.618,0-16.642,8.162-16.642,20.78s4.024,20.779,16.642,20.779c8.636,0,9.947-2.725,13.832-9.793l20.253-0.001v-4.461h-4.092
			l2.068,4.461h4.965v-4.461h4.343l2.069,4.461h3.625l8.453-8.194v-8.495L145.411,100.275z"/>
	</g>
	<g>
		<defs>
			<path id="SVGID_7_" d="M65.28,139.498l56.373,2.085v-33.679c2.671-0.184,4.781-2.399,4.781-5.115s-2.109-4.934-4.781-5.115
				v-27.94L65.28,67.649V139.498z"/>
		</defs>
		<clipPath id="SVGID_8_">
			<use xlink:href="#SVGID_7_"  overflow="visible"/>
		</clipPath>
		<path clip-path="url(#SVGID_8_)" fill="#A08EC3" d="M144.307,101.204h-35.423c-3.411-7.888-5.227-11.397-14.368-11.397
			c-12.066,0-15.85,7.605-16.176,19.594h70.165v-4.932L144.307,101.204z"/>
	</g>
	<g>
		<defs>
			<path id="SVGID_9_" d="M65.28,139.498l56.373,2.085v-33.679c2.671-0.184,4.781-2.399,4.781-5.115s-2.109-4.934-4.781-5.115
				v-27.94L65.28,67.649V139.498z"/>
		</defs>
		<clipPath id="SVGID_10_">
			<use xlink:href="#SVGID_9_"  overflow="visible"/>
		</clipPath>
		<path clip-path="url(#SVGID_10_)" fill="#191818" d="M94.21,132.121L94.21,132.121c-6.666,0-11.607-2.187-14.687-6.498
			c-2.666-3.734-3.962-9.063-3.962-16.289c0-15.332,6.1-22.785,18.649-22.785c10.022,0,12.688,4.014,16.088,11.72H146.1l5.633,4.383
			v10.325l-9.646,9.352h-5.721l-2.069-4.462h-1.055v4.462h-24.013C105.642,128.849,103.569,132.121,94.21,132.121 M94.21,90.563
			c-10.259,0-14.636,5.613-14.636,18.771c0,6.361,1.052,10.927,3.216,13.956c2.315,3.242,6.05,4.817,11.42,4.817
			c7.269,0,8.235-1.763,11.833-8.316l0.812-1.479h18.124l5.322-11.738v7.277h6.561l2.068,4.461h1.531l7.26-7.036v-6.663
			l-2.998-2.331h-37.057l-0.523-1.211C103.615,92.914,102.24,90.563,94.21,90.563"/>
	</g>
	<g>
		<defs>
			<path id="SVGID_11_" d="M65.28,139.498l56.373,2.085v-33.679c2.671-0.184,4.781-2.399,4.781-5.115s-2.109-4.934-4.781-5.115
				v-27.94L65.28,67.649V139.498z"/>
		</defs>
		<clipPath id="SVGID_12_">
			<use xlink:href="#SVGID_11_"  overflow="visible"/>
		</clipPath>
		<path clip-path="url(#SVGID_12_)" fill="#231F20" d="M87.143,118.25c-1.524,0-2.759-1.234-2.759-2.759v-13.03
			c0-1.523,1.235-2.76,2.759-2.76s2.759,1.234,2.759,2.76v13.03C89.902,117.016,88.667,118.25,87.143,118.25"/>
	</g>
</g>
<rect x="120.704" y="118.223" fill="#191818" width="2.215" height="2.867"/>
<rect x="124.907" y="99.457" fill="#191818" width="2.215" height="2.867"/>
<polygon fill="#FFFFFF" points="116.513,52.619 122.534,36.092 114.225,36.092 114.225,32.54 127.109,32.54 127.109,35.34 
	120.879,52.619 "/>
<polygon fill="#A08EC3" points="89.742,40.957 78.002,43.666 67.166,40.957 67.166,34.636 78.002,37.345 89.742,34.636 "/>
<polygon fill="#A08EC3" points="89.742,49.987 78.002,52.696 67.166,49.987 67.166,43.666 78.002,46.375 89.742,43.666 "/>
<polygon fill="#A08EC3" points="174.105,40.957 162.366,43.666 151.529,40.957 151.529,34.636 162.366,37.345 174.105,34.636 "/>
<polygon fill="#A08EC3" points="174.105,49.987 162.366,52.696 151.529,49.987 151.529,43.666 162.366,46.375 174.105,43.666 "/>
</svg>
