<?xml version="1.0" encoding="utf-8"?>
<!-- Generator: Adobe Illustrator 16.0.0, SVG Export Plug-In . SVG Version: 6.00 Build 0)  -->
<!DOCTYPE svg PUBLIC "-//W3C//DTD SVG 1.1//EN" "http://www.w3.org/Graphics/SVG/1.1/DTD/svg11.dtd">
<svg version="1.1" id="Layer_1" xmlns="http://www.w3.org/2000/svg" xmlns:xlink="http://www.w3.org/1999/xlink" x="0px" y="0px"
	 width="240px" height="195px" viewBox="0 0 240 195" enable-background="new 0 0 240 195" xml:space="preserve">
<path fill="none" d="M78.63-2257.76"/>
<path fill="none" d="M78.63,987.837"/>
<path fill="#A08EC3" d="M57.188,40.598v19.865l0.008,48.709c0,34.909,63.209,63.209,63.209,63.209s63.209-28.3,63.209-63.209
	l0.008-48.709V40.598H57.188L57.188,40.598z"/>
<g opacity="0.5">
	<g>
		<g>
			<defs>
				<rect id="SVGID_1_" x="83.33" y="40.43" width="97.689" height="127.58"/>
			</defs>
			<clipPath id="SVGID_2_">
				<use xlink:href="#SVGID_1_"  overflow="visible"/>
			</clipPath>
			<path clip-path="url(#SVGID_2_)" fill="#5C65AE" d="M120.996,40.432v22.024c-20.803,0.188-37.669,17.169-37.669,38.016
				c0,20.848,16.866,37.826,37.669,38.018v29.453c0.042,0.021,0.087,0.044,0.128,0.063c5.59-2.753,17.619-9.048,29.468-17.652
				c9.191-6.674,16.454-13.391,21.588-19.967c5.867-7.513,8.842-14.722,8.842-21.427V61.736V40.431L120.996,40.432L120.996,40.432z"
				/>
		</g>
	</g>
</g>
<g opacity="0.4">
	<g>
		<g>
			<defs>
				<rect id="SVGID_3_" x="55.8" y="36.64" width="129.21" height="137.19"/>
			</defs>
			<clipPath id="SVGID_4_">
				<use xlink:href="#SVGID_3_"  overflow="visible"/>
			</clipPath>
			<path clip-path="url(#SVGID_4_)" fill="#FFFFFF" d="M171.217,50.438v9.011l-0.008,49.784c0,18.229-31.246,39.336-50.803,49.295
				c-19.566-9.965-50.805-31.069-50.805-49.299l-0.008-49.777v-9.015L171.217,50.438 M185.014,36.64H55.796v22.812l0.009,49.781
				c0,35.677,64.6,64.6,64.6,64.6s64.601-28.923,64.601-64.6l0.008-49.781V36.64L185.014,36.64z"/>
		</g>
	</g>
</g>
<path fill="#1A1A19" d="M185.016,36.639V24.287c0-3.459-2.805-6.262-6.264-6.262h-18.836L120.85,7.072L83.089,18.025h-21.03
	c-3.459,0-6.262,2.803-6.262,6.262v28.881v6.282l0.008,49.78c0,35.679,64.601,64.602,64.601,64.602s64.601-28.923,64.601-64.602
	l0.009-49.78V36.639L185.016,36.639z M177.48,109.23c0,8.39-5.031,22.043-28.998,39.444c-11.289,8.198-22.75,14.196-28.078,16.82
	c-5.33-2.625-16.79-8.623-28.078-16.82C68.361,131.273,63.33,117.619,63.33,109.23l-0.008-49.78v-6.282h114.167v6.281L177.48,109.23
	z"/>
<path fill="#FFFFFF" d="M152.275,100.472c0,16.843-13.652,30.495-30.494,30.495c-16.842,0-30.495-13.652-30.495-30.495
	c0-16.842,13.653-30.495,30.495-30.495C138.623,69.977,152.275,83.63,152.275,100.472"/>
<path fill="#A08EC3" d="M121.348,77.001c12.941,0,23.471,10.529,23.471,23.471c0,12.942-10.529,23.473-23.471,23.473
	c-12.943,0-23.472-10.529-23.472-23.473C97.876,87.53,108.405,77.001,121.348,77.001 M121.348,69.977
	c-16.843,0-30.496,13.653-30.496,30.495c0,16.844,13.653,30.495,30.496,30.495c16.842,0,30.494-13.651,30.494-30.495
	C151.842,83.63,138.189,69.977,121.348,69.977"/>
<path fill="#191818" d="M121.348,132.974c-17.922,0-32.503-14.581-32.503-32.502c0-17.922,14.581-32.502,32.503-32.502
	c17.92,0,32.5,14.58,32.5,32.502C153.848,118.393,139.268,132.974,121.348,132.974 M121.348,71.983
	c-15.708,0-28.489,12.779-28.489,28.487s12.78,28.488,28.489,28.488c15.707,0,28.487-12.78,28.487-28.488
	S137.055,71.983,121.348,71.983"/>
<path fill="#191818" d="M130.462,93.636c0-5.034-4.081-9.114-9.114-9.114c-5.035,0-9.116,4.08-9.116,9.114
	c0,3.373,1.834,6.315,4.558,7.893v12.362c0,1.398,1.133,2.532,2.532,2.532h4.051c1.398,0,2.532-1.134,2.532-2.532v-12.362
	C128.628,99.951,130.462,97.009,130.462,93.636"/>
<g>
	<g>
		<defs>
			<path id="SVGID_5_" d="M65.049,130.498l56.372,2.085V98.904c2.671-0.184,4.782-2.399,4.782-5.115s-2.111-4.934-4.782-5.115
				v-27.94l-56.372-2.084V130.498L65.049,130.498z"/>
		</defs>
		<clipPath id="SVGID_6_">
			<use xlink:href="#SVGID_5_"  overflow="visible"/>
		</clipPath>
		<path clip-path="url(#SVGID_6_)" fill="#FFFFFF" d="M145.182,91.275h-36.427c-3.508-8.112-5.375-11.722-14.775-11.722
			c-12.618,0-16.642,8.162-16.643,20.78c0,12.618,4.025,20.779,16.643,20.779c8.636,0,9.947-2.725,13.832-9.793l20.252-0.001v-4.461
			h-4.092l2.068,4.461h4.963v-4.461h4.346l2.068,4.461h3.625l8.453-8.194V94.63L145.182,91.275z"/>
	</g>
	<g>
		<defs>
			<path id="SVGID_7_" d="M65.049,130.498l56.372,2.085V98.904c2.671-0.184,4.782-2.399,4.782-5.115s-2.111-4.934-4.782-5.115
				v-27.94l-56.372-2.084V130.498L65.049,130.498z"/>
		</defs>
		<clipPath id="SVGID_8_">
			<use xlink:href="#SVGID_7_"  overflow="visible"/>
		</clipPath>
		<path clip-path="url(#SVGID_8_)" fill="#A08EC3" d="M144.076,92.204h-35.424c-3.411-7.888-5.227-11.397-14.368-11.397
			c-12.066,0-15.85,7.605-16.176,19.594h70.166v-4.932L144.076,92.204z"/>
	</g>
	<g>
		<defs>
			<path id="SVGID_9_" d="M65.049,130.498l56.372,2.085V98.904c2.671-0.184,4.782-2.399,4.782-5.115s-2.111-4.934-4.782-5.115
				v-27.94l-56.372-2.084V130.498L65.049,130.498z"/>
		</defs>
		<clipPath id="SVGID_10_">
			<use xlink:href="#SVGID_9_"  overflow="visible"/>
		</clipPath>
		<path clip-path="url(#SVGID_10_)" fill="#191818" d="M93.979,123.121L93.979,123.121c-6.666,0-11.607-2.187-14.687-6.498
			c-2.666-3.734-3.962-9.063-3.962-16.289c0-15.332,6.1-22.785,18.649-22.785c10.022,0,12.688,4.014,16.088,11.72h35.802
			l5.633,4.383v10.325l-9.646,9.352h-5.721l-2.068-4.462h-1.056v4.462h-24.013C105.412,119.849,103.338,123.121,93.979,123.121
			 M93.979,81.563c-10.259,0-14.636,5.613-14.636,18.771c0,6.361,1.052,10.927,3.216,13.956c2.315,3.242,6.05,4.817,11.42,4.817
			c7.269,0,8.235-1.763,11.833-8.316l0.812-1.479h18.123l5.323-11.738v7.277h6.561l2.068,4.461h1.531l7.259-7.036v-6.663
			l-2.997-2.331h-37.057l-0.523-1.211C103.385,83.914,102.01,81.563,93.979,81.563"/>
	</g>
	<g>
		<defs>
			<path id="SVGID_11_" d="M65.049,130.498l56.372,2.085V98.904c2.671-0.184,4.782-2.399,4.782-5.115s-2.111-4.934-4.782-5.115
				v-27.94l-56.372-2.084V130.498L65.049,130.498z"/>
		</defs>
		<clipPath id="SVGID_12_">
			<use xlink:href="#SVGID_11_"  overflow="visible"/>
		</clipPath>
		<path clip-path="url(#SVGID_12_)" fill="#231F20" d="M86.912,109.25c-1.524,0-2.759-1.234-2.759-2.759v-13.03
			c0-1.523,1.235-2.76,2.759-2.76s2.759,1.234,2.759,2.76v13.03C89.671,108.016,88.436,109.25,86.912,109.25"/>
	</g>
</g>
<rect x="120.473" y="109.223" fill="#191818" width="2.214" height="2.867"/>
<rect x="124.676" y="90.457" fill="#191818" width="2.215" height="2.867"/>
<path fill="#FFFFFF" d="M113.528,43.619v-4.275h-8.188v-3.371l7.044-12.434h5.178v12.253h2.017v3.552h-2.017v4.275H113.528z
	 M113.528,27.633l-4.546,8.159h4.546V27.633z"/>
<path fill="#FFFFFF" d="M121.354,40.819l2.438-2.589c1.054,1.385,2.469,2.168,4.187,2.168c1.926,0,3.039-1.476,3.039-3.162
	c0-1.985-1.054-3.16-2.858-3.16c-1.354,0-2.38,0.48-3.313,1.655l-2.92-0.782V23.54h12.042v3.551h-8.009v5.149
	c0.783-0.964,2.139-1.656,3.674-1.656c3.041,0,5.479,2.379,5.479,6.533c0,4.033-2.737,6.863-7.014,6.863
	C124.997,43.98,122.857,42.837,121.354,40.819"/>
<path fill="#1A1A19" d="M141.371,165.772c-10.387,6.445-19.063,10.537-20.966,11.415c-1.905-0.878-10.58-4.97-20.967-11.416v0.492
	c-0.003-0.002,0.004-0.005,0-0.007v15.051c11.415,7.015,20.568,11.112,20.568,11.112l0.399-0.001l0.399,0.001
	c0,0,9.152-4.099,20.566-11.112v-15.051c-0.004,0.002,0.004,0.005,0,0.007L141.371,165.772L141.371,165.772z"/>
<path fill="#FFFFFF" d="M96.123,164.636c-9.748-6.171-20.759-14.313-29.014-23.745v15.052c8.118,9.568,19.145,17.857,29.014,24.17
	v-15.052c-0.004-0.002,0.003-0.005,0-0.007V164.636z"/>
<path fill="#FFFFFF" d="M144.688,164.636v0.418c-0.004,0.002,0.004,0.005,0,0.007v15.052c9.869-6.313,20.896-14.602,29.016-24.17
	v-15.052C165.445,150.322,154.436,158.465,144.688,164.636"/>
<polygon fill="#FFFFFF" points="89.512,31.957 77.771,34.666 66.936,31.957 66.936,25.636 77.771,28.345 89.512,25.636 "/>
<polygon fill="#FFFFFF" points="89.512,40.987 77.771,43.696 66.936,40.987 66.936,34.666 77.771,37.375 89.512,34.666 "/>
<polygon fill="#FFFFFF" points="173.876,31.957 162.136,34.666 151.3,31.957 151.3,25.636 162.136,28.345 173.876,25.636 "/>
<polygon fill="#FFFFFF" points="173.876,40.987 162.136,43.696 151.3,40.987 151.3,34.666 162.136,37.375 173.876,34.666 "/>
</svg>
