<?xml version="1.0" encoding="utf-8"?>
<!-- Generator: Adobe Illustrator 16.0.0, SVG Export Plug-In . SVG Version: 6.00 Build 0)  -->
<!DOCTYPE svg PUBLIC "-//W3C//DTD SVG 1.1//EN" "http://www.w3.org/Graphics/SVG/1.1/DTD/svg11.dtd">
<svg version="1.1" id="Layer_1" xmlns="http://www.w3.org/2000/svg" xmlns:xlink="http://www.w3.org/1999/xlink" x="0px" y="0px"
	 width="240px" height="195px" viewBox="0 0 240 195" enable-background="new 0 0 240 195" xml:space="preserve">
<path fill="none" d="M78.63-2257.76"/>
<path fill="none" d="M78.63,987.837"/>
<path fill="none" d="M51.764,1616.837"/>
<path fill="none" d="M51.764-1628.76"/>
<path fill="#A08EC3" d="M58.546,51.175v19.391l0.008,47.543c0,34.073,61.697,61.696,61.697,61.696s61.697-27.623,61.697-61.696
	l0.008-47.543V51.175H58.546z"/>
<g opacity="0.5">
	<g>
		<g>
			<defs>
				<rect id="SVGID_1_" x="83.173" y="49.43" width="97.694" height="127.58"/>
			</defs>
			<clipPath id="SVGID_2_">
				<use xlink:href="#SVGID_1_"  overflow="visible"/>
			</clipPath>
			<path clip-path="url(#SVGID_2_)" fill="#5C65AE" d="M120.842,49.432v22.024c-20.803,0.188-37.669,17.169-37.669,38.016
				c0,20.848,16.866,37.826,37.669,38.018v29.453c0.042,0.021,0.088,0.044,0.129,0.063c5.59-2.753,17.618-9.048,29.467-17.652
				c9.191-6.674,16.455-13.391,21.588-19.967c5.867-7.513,8.843-14.722,8.843-21.427V70.736V49.431L120.842,49.432L120.842,49.432z"
				/>
		</g>
	</g>
</g>
<g opacity="0.4">
	<g>
		<g>
			<defs>
				<rect id="SVGID_3_" x="55.642" y="45.64" width="129.217" height="137.19"/>
			</defs>
			<clipPath id="SVGID_4_">
				<use xlink:href="#SVGID_3_"  overflow="visible"/>
			</clipPath>
			<path clip-path="url(#SVGID_4_)" fill="#FFFFFF" d="M171.063,59.438v9.011l-0.008,49.784c0,18.229-31.246,39.336-50.803,49.295
				c-19.566-9.965-50.805-31.069-50.805-49.299l-0.008-49.777v-9.015L171.063,59.438 M184.859,45.64H55.642v22.812l0.009,49.781
				c0,35.677,64.6,64.6,64.6,64.6s64.601-28.923,64.601-64.6l0.008-49.781V45.64L184.859,45.64z"/>
		</g>
	</g>
</g>
<path fill="#1A1A19" d="M184.859,45.639V33.287c0-3.459-2.803-6.262-6.262-6.262h-18.837l-39.065-10.953L82.934,27.025h-21.03
	c-3.459,0-6.262,2.803-6.262,6.262v28.881v6.282l0.008,49.78c0,35.679,64.601,64.602,64.601,64.602s64.601-28.923,64.601-64.602
	l0.008-49.78V45.639z M177.326,118.23c0,8.39-5.031,22.043-28.997,39.444c-11.289,8.198-22.75,14.196-28.078,16.82
	c-5.33-2.625-16.79-8.623-28.078-16.82c-23.966-17.401-28.997-31.056-28.997-39.444l-0.008-49.78v-6.282h114.166v6.281
	L177.326,118.23z"/>
<path fill="#FFFFFF" d="M152.122,109.472c0,16.843-13.653,30.495-30.495,30.495s-30.494-13.652-30.494-30.495
	c0-16.842,13.652-30.495,30.494-30.495S152.122,92.63,152.122,109.472"/>
<path fill="#A08EC3" d="M121.193,86.001c12.94,0,23.471,10.529,23.471,23.471c0,12.942-10.529,23.473-23.471,23.473
	c-12.943,0-23.472-10.529-23.472-23.473C97.722,96.53,108.25,86.001,121.193,86.001 M121.193,78.977
	c-16.843,0-30.497,13.653-30.497,30.495c0,16.844,13.653,30.495,30.497,30.495c16.842,0,30.494-13.651,30.494-30.495
	C151.688,92.63,138.035,78.977,121.193,78.977"/>
<path fill="#191818" d="M121.193,141.974c-17.921,0-32.502-14.581-32.502-32.502c0-17.922,14.581-32.502,32.502-32.502
	c17.92,0,32.5,14.58,32.5,32.502C153.693,127.393,139.113,141.974,121.193,141.974 M121.193,80.983
	c-15.708,0-28.488,12.779-28.488,28.487s12.78,28.488,28.488,28.488c15.707,0,28.488-12.78,28.488-28.488
	S136.9,80.983,121.193,80.983"/>
<path fill="#191818" d="M130.309,102.636c0-5.034-4.082-9.114-9.115-9.114c-5.034,0-9.115,4.08-9.115,9.114
	c0,3.373,1.834,6.315,4.558,7.893v12.362c0,1.398,1.133,2.532,2.532,2.532h4.051c1.398,0,2.531-1.134,2.531-2.532v-12.362
	C128.475,108.951,130.309,106.009,130.309,102.636"/>
</svg>
