<?xml version="1.0" encoding="utf-8"?>
<!-- Generator: Adobe Illustrator 16.0.0, SVG Export Plug-In . SVG Version: 6.00 Build 0)  -->
<!DOCTYPE svg PUBLIC "-//W3C//DTD SVG 1.1//EN" "http://www.w3.org/Graphics/SVG/1.1/DTD/svg11.dtd">
<svg version="1.1" id="Layer_1" xmlns="http://www.w3.org/2000/svg" xmlns:xlink="http://www.w3.org/1999/xlink" x="0px" y="0px"
	 width="612px" height="792px" viewBox="0 0 612 792" enable-background="new 0 0 612 792" xml:space="preserve">
<path fill="none" d="M346.63,60"/>
<path fill="none" d="M346.63,3305.597"/>
<path fill="#1A1A19" d="M323.525,458.772c-10.386,6.446-19.062,10.538-20.966,11.416c-1.905-0.878-10.58-4.97-20.967-11.416v0.492
	c-0.003-0.002,0.004-0.005,0-0.007v15.051c11.415,7.014,20.568,11.112,20.568,11.112l0.399-0.001l0.399,0.001
	c0,0,9.152-4.099,20.566-11.112v-15.051c-0.004,0.002,0.004,0.005,0,0.007V458.772z"/>
<path fill="#1A1A19" d="M278.277,457.636c-9.748-6.171-20.759-14.313-29.014-23.745v15.051c8.118,9.569,19.145,17.858,29.014,24.17
	v-15.051c-0.004-0.002,0.003-0.005,0-0.007V457.636z"/>
<path fill="#1A1A19" d="M326.842,457.636v0.418c-0.004,0.002,0.004,0.005,0,0.007v15.051c9.869-6.312,20.896-14.601,29.015-24.17
	v-15.051C347.6,443.322,336.59,451.465,326.842,457.636"/>
<path fill="#010101" d="M226.785,435.381c0.916-0.017,1.783-0.026,2.638,0.015c-3.211-4.571-2.29-10.164-4.058-15.119l0.017-0.219
	c5.329,2.008,8.124,6.7,10.731,11.657c1.862,3.592,3.683,7.273,6.339,9.993c-1.109,0.08-2.153,0.229-3.234,0.389
	c-1.122,0.163-2.275,0.386-3.436,0.691c-2.306,0.136-4.581,0.238-6.731,0.167c-4.035-0.171-7.795-0.854-11.037-2.605
	c-1.502-0.798-2.902-1.85-4.131-3.161c0.949-0.154,1.992-0.342,3.028-0.524C220.176,436.109,223.609,435.539,226.785,435.381"/>
<path fill="#010101" d="M216.729,417.835c1.062,1.399,2.535,2.593,3.517,4.192c0.274,0.794,0.599,1.55,0.922,2.329
	c0.784,2.099,1.378,4.127,0.792,5.831c-2.665-1.041-5.366-2.283-7.721-4.483c-1.341-1.616-2.338-3.36-3.036-5.244
	c-1.11-2.954-1.453-6.194-1.075-9.59c0.008-0.114,0.033-0.178,0.025-0.252l0.3-0.285c0.113,0.265,0.263,0.539,0.409,0.824
	C212.289,413.756,214.375,415.635,216.729,417.835"/>
<path fill="#010101" d="M376.909,435.381c-0.916-0.017-1.783-0.026-2.638,0.015c3.211-4.571,2.289-10.164,4.058-15.119l-0.017-0.219
	c-5.33,2.008-8.125,6.7-10.731,11.657c-1.861,3.592-3.683,7.273-6.339,9.993c1.108,0.08,2.152,0.229,3.233,0.389
	c1.122,0.163,2.275,0.386,3.436,0.691c2.306,0.136,4.581,0.238,6.731,0.167c4.035-0.171,7.795-0.854,11.037-2.605
	c1.502-0.798,2.902-1.85,4.131-3.161c-0.949-0.154-1.992-0.342-3.027-0.524C383.518,436.109,380.085,435.539,376.909,435.381"/>
<path fill="#010101" d="M388.39,417.835c-1.062,1.399-2.534,2.593-3.517,4.192c-0.274,0.794-0.6,1.55-0.922,2.329
	c-0.784,2.099-1.379,4.127-0.793,5.831c2.666-1.041,5.367-2.283,7.722-4.483c1.341-1.616,2.338-3.36,3.036-5.244
	c1.109-2.954,1.453-6.194,1.074-9.59c-0.008-0.114-0.032-0.178-0.024-0.252l-0.3-0.285c-0.113,0.265-0.264,0.539-0.409,0.824
	C392.831,413.756,390.745,415.635,388.39,417.835"/>
<path fill="#A18EC4" d="M239.164,333.412v19.921l0.008,48.847c0,35.008,63.388,63.388,63.388,63.388s63.388-28.38,63.388-63.388
	l0.008-48.847v-19.921H239.164z"/>
<g opacity="0.5">
	<g>
		<defs>
			<rect id="SVGID_1_" x="265.48" y="333.43" width="97.7" height="127.58"/>
		</defs>
		<clipPath id="SVGID_2_">
			<use xlink:href="#SVGID_1_"  overflow="visible"/>
		</clipPath>
		<path clip-path="url(#SVGID_2_)" fill="#5C64AE" d="M303.15,333.432v22.024c-20.803,0.189-37.669,17.169-37.669,38.016
			s16.866,37.826,37.669,38.017v29.453c0.042,0.021,0.087,0.044,0.128,0.064c5.59-2.753,17.619-9.048,29.468-17.652
			c9.191-6.674,16.454-13.391,21.588-19.967c5.867-7.513,8.842-14.722,8.842-21.427v-47.224v-21.305H303.15z"/>
	</g>
</g>
<g opacity="0.4">
	<g>
		<defs>
			<rect id="SVGID_3_" x="237.95" y="329.64" width="129.22" height="137.19"/>
		</defs>
		<clipPath id="SVGID_4_">
			<use xlink:href="#SVGID_3_"  overflow="visible"/>
		</clipPath>
		<path clip-path="url(#SVGID_4_)" fill="#FFFFFF" d="M353.371,343.437v9.011l-0.008,49.784c0,18.229-31.246,39.336-50.803,49.295
			c-19.566-9.964-50.805-31.069-50.805-49.298l-0.008-49.778v-9.014H353.371 M367.168,329.64H237.951v22.811l0.009,49.781
			c0,35.677,64.6,64.6,64.6,64.6s64.601-28.923,64.601-64.6l0.008-49.781V329.64z"/>
	</g>
</g>
<path fill="#1A1A19" d="M367.169,329.639v-12.352c0-3.459-2.804-6.262-6.263-6.262H342.07l-39.066-10.953l-37.761,10.953h-21.03
	c-3.459,0-6.262,2.803-6.262,6.262v12.352v16.529v6.282l0.008,49.78c0,35.679,64.601,64.602,64.601,64.602
	s64.601-28.923,64.601-64.602l0.009-49.78V329.639z M359.635,402.23c0,8.39-5.031,22.043-28.997,39.445
	c-11.289,8.198-22.75,14.196-28.078,16.82c-5.33-2.625-16.79-8.623-28.078-16.82c-23.966-17.402-28.997-31.056-28.997-39.445
	l-0.008-49.78v-6.282h114.166v6.281L359.635,402.23z"/>
<path fill="#FFFFFF" d="M334.431,393.472c0,16.842-13.653,30.495-30.495,30.495c-16.841,0-30.494-13.653-30.494-30.495
	s13.653-30.495,30.494-30.495C320.777,362.977,334.431,376.63,334.431,393.472"/>
<path fill="#A18EC4" d="M303.501,370.001c12.942,0,23.471,10.529,23.471,23.471c0,12.942-10.529,23.472-23.471,23.472
	s-23.471-10.529-23.471-23.472C280.03,380.53,290.56,370.001,303.501,370.001 M303.501,362.977
	c-16.842,0-30.495,13.653-30.495,30.495c0,16.843,13.653,30.495,30.495,30.495s30.495-13.652,30.495-30.495
	C333.996,376.63,320.344,362.977,303.501,362.977"/>
<path fill="#191818" d="M303.501,425.974c-17.921,0-32.502-14.581-32.502-32.502c0-17.922,14.581-32.502,32.502-32.502
	c17.92,0,32.5,14.58,32.5,32.502C336.002,411.393,321.422,425.974,303.501,425.974 M303.501,364.983
	c-15.708,0-28.488,12.78-28.488,28.488s12.78,28.488,28.488,28.488c15.708,0,28.488-12.78,28.488-28.488
	S319.209,364.983,303.501,364.983"/>
<path fill="#191818" d="M312.616,386.636c0-5.034-4.081-9.115-9.115-9.115c-5.034,0-9.115,4.081-9.115,9.115
	c0,3.373,1.834,6.315,4.558,7.892v12.363c0,1.398,1.133,2.532,2.532,2.532h4.051c1.398,0,2.532-1.134,2.532-2.532v-12.363
	C310.782,392.951,312.616,390.009,312.616,386.636"/>
<g>
	<defs>
		<path id="SVGID_5_" d="M247.203,423.498l56.372,2.085v-33.679c2.671-0.183,4.782-2.399,4.782-5.115s-2.111-4.934-4.782-5.115
			v-27.941l-56.372-2.084V423.498z"/>
	</defs>
	<clipPath id="SVGID_6_">
		<use xlink:href="#SVGID_5_"  overflow="visible"/>
	</clipPath>
	<path clip-path="url(#SVGID_6_)" fill="#FFFFFF" d="M327.335,384.275h-36.426c-3.508-8.112-5.375-11.721-14.775-11.721
		c-12.618,0-16.642,8.162-16.642,20.78c-0.001,12.618,4.024,20.779,16.642,20.779c8.636,0,9.947-2.724,13.832-9.793l20.253-0.001
		v-4.461h-4.092l2.068,4.461h4.965v-4.461h4.343l2.069,4.461h3.625l8.453-8.194v-8.495L327.335,384.275z"/>
	<path clip-path="url(#SVGID_6_)" fill="#A18EC4" d="M326.23,385.204h-35.424c-3.411-7.888-5.227-11.397-14.368-11.397
		c-12.066,0-15.85,7.605-16.176,19.593h70.165v-4.931L326.23,385.204z"/>
	<path clip-path="url(#SVGID_6_)" fill="#191818" d="M276.134,416.121L276.134,416.121c-6.666,0-11.607-2.186-14.687-6.498
		c-2.666-3.734-3.962-9.062-3.962-16.289c0-15.332,6.1-22.785,18.649-22.785c10.022,0,12.688,4.013,16.088,11.72h35.802l5.633,4.382
		v10.326l-9.646,9.351h-5.721l-2.069-4.462h-1.055v4.462h-24.013C287.566,412.849,285.493,416.121,276.134,416.121 M276.134,374.563
		c-10.259,0-14.636,5.613-14.636,18.771c0,6.361,1.052,10.927,3.216,13.956c2.315,3.242,6.05,4.817,11.42,4.817
		c7.269,0,8.235-1.762,11.833-8.316l0.812-1.478h18.123l5.323-11.739v7.278h6.561l2.068,4.461h1.531l7.259-7.037v-6.663
		l-2.997-2.331H289.59l-0.523-1.211C285.539,376.914,284.164,374.563,276.134,374.563"/>
	<path clip-path="url(#SVGID_6_)" fill="#231F20" d="M269.066,402.25c-1.524,0-2.759-1.234-2.759-2.759v-13.03
		c0-1.524,1.235-2.76,2.759-2.76s2.759,1.235,2.759,2.76v13.03C271.825,401.016,270.59,402.25,269.066,402.25"/>
</g>
<rect x="302.628" y="402.223" fill="#191818" width="2.215" height="2.867"/>
<rect x="306.831" y="383.457" fill="#191818" width="2.215" height="2.867"/>
<path fill="#FFFFFF" d="M280.18,336.619v-3.251c7.346-7.136,8.881-8.73,8.881-11.019c0-1.536-1.174-2.529-2.679-2.529
	c-1.776,0-3.191,0.813-4.275,2.258l-2.408-2.528c1.625-2.167,4.003-3.313,6.743-3.313c3.884,0,6.714,2.349,6.714,6.082
	c0,3.04-2.048,5.63-7.015,10.747h7.105v3.553H280.18z"/>
<path fill="#FFFFFF" d="M295.2,326.594c0-5.178,2.138-10.355,7.104-10.355c4.998,0,7.105,5.178,7.105,10.355
	c0,5.148-2.077,10.388-7.105,10.388C297.338,336.981,295.2,331.742,295.2,326.594 M305.316,326.594c0-3.883-0.662-6.772-3.011-6.772
	c-2.318,0-2.979,2.89-2.979,6.772c0,3.854,0.662,6.805,2.979,6.805C304.654,333.398,305.316,330.448,305.316,326.594"/>
<path fill="#FFFFFF" d="M311.063,326.594c0-5.178,2.138-10.355,7.104-10.355c4.998,0,7.105,5.178,7.105,10.355
	c0,5.148-2.077,10.388-7.105,10.388C313.201,336.981,311.063,331.742,311.063,326.594 M321.18,326.594
	c0-3.883-0.664-6.772-3.012-6.772c-2.318,0-2.979,2.89-2.979,6.772c0,3.854,0.661,6.805,2.979,6.805
	C320.516,333.398,321.18,330.448,321.18,326.594"/>
<polygon fill="#FFFFFF" points="273.505,325.315 266.046,324.185 262.727,317.087 259.406,324.185 251.947,325.315 257.336,330.85 
	255.989,338.645 262.727,334.964 269.463,338.645 268.116,330.85 "/>
<polygon fill="#FFFFFF" points="353.172,325.315 345.714,324.185 342.393,317.087 339.072,324.185 331.613,325.315 337.004,330.85 
	335.656,338.645 342.393,334.964 349.13,338.645 347.783,330.85 "/>
</svg>
