<?xml version="1.0" encoding="utf-8"?>
<!-- Generator: Adobe Illustrator 16.0.0, SVG Export Plug-In . SVG Version: 6.00 Build 0)  -->
<!DOCTYPE svg PUBLIC "-//W3C//DTD SVG 1.1//EN" "http://www.w3.org/Graphics/SVG/1.1/DTD/svg11.dtd">
<svg version="1.1" id="Layer_1" xmlns="http://www.w3.org/2000/svg" xmlns:xlink="http://www.w3.org/1999/xlink" x="0px" y="0px"
	 width="612px" height="792px" viewBox="0 0 612 792" enable-background="new 0 0 612 792" xml:space="preserve">
<path fill="none" d="M346.63,60"/>
<path fill="none" d="M346.63,3305.597"/>
<path fill="#A18EC4" d="M238.752,333.545v19.881l0.008,48.748c0,34.938,63.261,63.261,63.261,63.261s63.26-28.323,63.26-63.261
	l0.008-48.748v-19.881H238.752z"/>
<g opacity="0.5">
	<g>
		<defs>
			<rect id="SVGID_1_" x="264.942" y="333.43" width="97.695" height="127.58"/>
		</defs>
		<clipPath id="SVGID_2_">
			<use xlink:href="#SVGID_1_"  overflow="visible"/>
		</clipPath>
		<path clip-path="url(#SVGID_2_)" fill="#5C64AE" d="M302.611,333.432v22.024c-20.803,0.189-37.669,17.169-37.669,38.016
			s16.866,37.826,37.669,38.017v29.453c0.042,0.021,0.087,0.044,0.128,0.064c5.59-2.753,17.619-9.048,29.468-17.652
			c9.191-6.674,16.454-13.391,21.588-19.967c5.867-7.513,8.842-14.722,8.842-21.427v-47.224v-21.305H302.611z"/>
	</g>
</g>
<g opacity="0.4">
	<g>
		<defs>
			<rect id="SVGID_3_" x="237.412" y="329.64" width="129.218" height="137.19"/>
		</defs>
		<clipPath id="SVGID_4_">
			<use xlink:href="#SVGID_3_"  overflow="visible"/>
		</clipPath>
		<path clip-path="url(#SVGID_4_)" fill="#FFFFFF" d="M352.832,343.437v9.011l-0.008,49.784c0,18.229-31.246,39.336-50.803,49.295
			c-19.566-9.964-50.805-31.069-50.805-49.298l-0.008-49.778v-9.014H352.832 M366.629,329.64H237.412v22.811l0.009,49.781
			c0,35.677,64.6,64.6,64.6,64.6s64.601-28.923,64.601-64.6l0.008-49.781V329.64z"/>
	</g>
</g>
<path fill="#1A1A19" d="M360.368,311.025h-18.839l-39.064-10.953l-37.761,10.953h-21.031c-3.458,0-6.261,2.803-6.261,6.261v28.882
	h129.217v-28.882C366.629,313.828,363.826,311.025,360.368,311.025"/>
<path fill="#1A1A19" d="M359.104,337.164v15.284l-0.009,49.783c0,8.39-5.03,22.042-28.997,39.445
	c-11.289,8.196-22.75,14.194-28.078,16.818c-5.329-2.625-16.79-8.622-28.078-16.818c-23.966-17.403-28.997-31.056-28.997-39.447
	l-0.008-49.779v-15.286H359.104 M366.629,329.64H237.412v22.811l0.009,49.781c0,35.677,64.6,64.6,64.6,64.6
	s64.601-28.923,64.601-64.6l0.008-49.781V329.64z"/>
<path fill="#FFFFFF" d="M333.892,393.472c0,16.842-13.653,30.495-30.495,30.495c-16.841,0-30.494-13.653-30.494-30.495
	s13.653-30.495,30.494-30.495C320.238,362.977,333.892,376.63,333.892,393.472"/>
<path fill="#A18EC4" d="M302.962,370.001c12.942,0,23.471,10.529,23.471,23.471c0,12.942-10.529,23.472-23.471,23.472
	s-23.471-10.529-23.471-23.472C279.491,380.53,290.021,370.001,302.962,370.001 M302.962,362.977
	c-16.842,0-30.495,13.653-30.495,30.495c0,16.843,13.653,30.495,30.495,30.495s30.495-13.652,30.495-30.495
	C333.457,376.63,319.805,362.977,302.962,362.977"/>
<path fill="#191818" d="M302.962,425.974c-17.921,0-32.502-14.581-32.502-32.502c0-17.922,14.581-32.502,32.502-32.502
	c17.92,0,32.5,14.58,32.5,32.502C335.463,411.393,320.883,425.974,302.962,425.974 M302.962,364.983
	c-15.708,0-28.488,12.78-28.488,28.488s12.78,28.488,28.488,28.488c15.708,0,28.489-12.78,28.489-28.488
	S318.67,364.983,302.962,364.983"/>
<path fill="#191818" d="M312.077,386.636c0-5.034-4.081-9.115-9.115-9.115c-5.034,0-9.115,4.081-9.115,9.115
	c0,3.373,1.834,6.315,4.558,7.892v12.363c0,1.398,1.133,2.532,2.532,2.532h4.051c1.398,0,2.532-1.134,2.532-2.532v-12.363
	C310.243,392.951,312.077,390.009,312.077,386.636"/>
<g>
	<defs>
		<path id="SVGID_5_" d="M246.665,423.498l56.372,2.085v-33.679c2.67-0.183,4.781-2.399,4.781-5.115s-2.111-4.934-4.781-5.115
			v-27.941l-56.372-2.084V423.498z"/>
	</defs>
	<clipPath id="SVGID_6_">
		<use xlink:href="#SVGID_5_"  overflow="visible"/>
	</clipPath>
	<path clip-path="url(#SVGID_6_)" fill="#FFFFFF" d="M326.796,384.275H290.37c-3.508-8.112-5.375-11.721-14.775-11.721
		c-12.618,0-16.642,8.162-16.642,20.78s4.024,20.779,16.642,20.779c8.636,0,9.947-2.724,13.832-9.793l20.253-0.001v-4.461h-4.092
		l2.068,4.461h4.965v-4.461h4.343l2.069,4.461h3.625l8.453-8.194v-8.495L326.796,384.275z"/>
	<path clip-path="url(#SVGID_6_)" fill="#A18EC4" d="M325.691,385.204h-35.423c-3.411-7.888-5.227-11.397-14.368-11.397
		c-12.066,0-15.85,7.605-16.176,19.593h70.165v-4.931L325.691,385.204z"/>
	<path clip-path="url(#SVGID_6_)" fill="#191818" d="M275.595,416.121L275.595,416.121c-6.666,0-11.607-2.186-14.687-6.498
		c-2.666-3.734-3.962-9.062-3.962-16.289c0-15.332,6.1-22.785,18.649-22.785c10.022,0,12.688,4.013,16.088,11.72h35.802l5.633,4.382
		v10.326l-9.646,9.351h-5.721l-2.069-4.462h-1.055v4.462h-24.013C287.027,412.849,284.954,416.121,275.595,416.121 M275.595,374.563
		c-10.259,0-14.636,5.613-14.636,18.771c0,6.361,1.052,10.927,3.216,13.956c2.315,3.242,6.05,4.817,11.42,4.817
		c7.269,0,8.235-1.762,11.833-8.316l0.812-1.478h18.123l5.323-11.739v7.278h6.561l2.068,4.461h1.531l7.259-7.037v-6.663
		l-2.997-2.331h-37.057l-0.523-1.211C285,376.914,283.625,374.563,275.595,374.563"/>
	<path clip-path="url(#SVGID_6_)" fill="#231F20" d="M268.527,402.25c-1.524,0-2.759-1.234-2.759-2.759v-13.03
		c0-1.524,1.235-2.76,2.759-2.76c1.524,0,2.759,1.235,2.759,2.76v13.03C271.287,401.016,270.052,402.25,268.527,402.25"/>
</g>
<rect x="302.089" y="402.223" fill="#191818" width="2.215" height="2.867"/>
<rect x="306.292" y="383.457" fill="#191818" width="2.215" height="2.867"/>
<path fill="#FFFFFF" d="M289.785,336.619v-3.251c7.346-7.136,8.881-8.73,8.881-11.019c0-1.536-1.174-2.529-2.679-2.529
	c-1.776,0-3.191,0.813-4.275,2.258l-2.408-2.528c1.625-2.167,4.003-3.313,6.743-3.313c3.884,0,6.714,2.349,6.714,6.082
	c0,3.04-2.047,5.63-7.015,10.747h7.105v3.553H289.785z"/>
<polygon fill="#FFFFFF" points="309.742,336.619 309.742,321.748 306.702,324.908 304.384,322.471 310.285,316.54 313.807,316.54 
	313.807,336.619 "/>
<path fill="#FFFFFF" d="M323.263,458.772c-10.386,6.446-19.062,10.538-20.966,11.416c-1.905-0.878-10.58-4.97-20.967-11.416v0.492
	c-0.003-0.002,0.004-0.005,0-0.007v15.051c11.415,7.014,20.568,11.112,20.568,11.112l0.399-0.001l0.399,0.001
	c0,0,9.152-4.099,20.567-11.112v-15.051c-0.005,0.002,0.004,0.005,0,0.007V458.772z"/>
<path fill="#FFFFFF" d="M278.014,457.636c-9.748-6.171-20.759-14.313-29.014-23.745v15.051c8.118,9.569,19.145,17.858,29.014,24.17
	v-15.051c-0.004-0.002,0.003-0.005,0-0.007V457.636z"/>
<path fill="#FFFFFF" d="M326.579,457.636v0.418c-0.005,0.002,0.003,0.005,0,0.007v15.051c9.868-6.312,20.895-14.601,29.014-24.17
	v-15.051C347.337,443.322,336.327,451.465,326.579,457.636"/>
<polygon fill="#FFFFFF" points="271.127,324.957 259.387,327.666 248.551,324.957 248.551,318.636 259.387,321.345 271.127,318.636 
	"/>
<polygon fill="#FFFFFF" points="271.127,333.987 259.387,336.696 248.551,333.987 248.551,327.666 259.387,330.375 271.127,327.666 
	"/>
<polygon fill="#A18EC4" points="355.491,324.957 343.751,327.666 332.915,324.957 332.915,318.636 343.751,321.345 355.491,318.636 
	"/>
<polygon fill="#A18EC4" points="355.491,333.987 343.751,336.696 332.915,333.987 332.915,327.666 343.751,330.375 355.491,327.666 
	"/>
</svg>
