<?xml version="1.0" encoding="utf-8"?>
<!-- Generator: Adobe Illustrator 16.0.0, SVG Export Plug-In . SVG Version: 6.00 Build 0)  -->
<!DOCTYPE svg PUBLIC "-//W3C//DTD SVG 1.1//EN" "http://www.w3.org/Graphics/SVG/1.1/DTD/svg11.dtd">
<svg version="1.1" id="Layer_1" xmlns="http://www.w3.org/2000/svg" xmlns:xlink="http://www.w3.org/1999/xlink" x="0px" y="0px"
	 width="612px" height="792px" viewBox="0 0 612 792" enable-background="new 0 0 612 792" xml:space="preserve">
<path fill="none" d="M346.63,60"/>
<path fill="none" d="M346.63,3305.597"/>
<line fill="none" x1="234.764" y1="-1300.76" x2="234.764" y2="1944.837"/>
<path fill="#A18EC4" d="M244.546,380.175v19.39l0.008,47.543c0,34.074,61.697,61.697,61.697,61.697s61.697-27.623,61.697-61.697
	l0.008-47.543v-19.39H244.546z"/>
<g opacity="0.5">
	<g>
		<defs>
			<rect id="SVGID_1_" x="269.173" y="378.43" width="97.694" height="127.58"/>
		</defs>
		<clipPath id="SVGID_2_">
			<use xlink:href="#SVGID_1_"  overflow="visible"/>
		</clipPath>
		<path clip-path="url(#SVGID_2_)" fill="#5C64AE" d="M306.842,378.432v22.024c-20.803,0.189-37.669,17.169-37.669,38.016
			s16.866,37.826,37.669,38.017v29.453c0.042,0.021,0.087,0.044,0.128,0.064c5.591-2.753,17.619-9.048,29.468-17.652
			c9.191-6.674,16.455-13.391,21.588-19.967c5.867-7.513,8.842-14.722,8.842-21.427v-47.224v-21.305H306.842z"/>
	</g>
</g>
<g opacity="0.4">
	<g>
		<defs>
			<rect id="SVGID_3_" x="241.642" y="374.64" width="129.217" height="137.19"/>
		</defs>
		<clipPath id="SVGID_4_">
			<use xlink:href="#SVGID_3_"  overflow="visible"/>
		</clipPath>
		<path clip-path="url(#SVGID_4_)" fill="#FFFFFF" d="M357.063,388.437v9.011l-0.008,49.784c0,18.229-31.246,39.336-50.803,49.295
			c-19.566-9.964-50.805-31.069-50.805-49.298l-0.008-49.778v-9.014H357.063 M370.859,374.64H241.642v22.811l0.009,49.781
			c0,35.677,64.6,64.6,64.6,64.6s64.601-28.923,64.601-64.6l0.008-49.781V374.64z"/>
	</g>
</g>
<path fill="#1A1A19" d="M370.86,374.639v-12.352c0-3.459-2.804-6.262-6.263-6.262h-18.836l-39.066-10.953l-37.761,10.953h-21.03
	c-3.459,0-6.262,2.803-6.262,6.262v28.881v6.282l0.008,49.78c0,35.679,64.601,64.602,64.601,64.602s64.6-28.923,64.6-64.602
	l0.009-49.78V374.639z M363.326,447.23c0,8.39-5.031,22.043-28.997,39.445c-11.289,8.198-22.75,14.196-28.078,16.82
	c-5.33-2.625-16.79-8.623-28.078-16.82c-23.966-17.402-28.997-31.056-28.997-39.445l-0.008-49.78v-6.282h114.166v6.281
	L363.326,447.23z"/>
<path fill="#FFFFFF" d="M338.122,438.472c0,16.842-13.653,30.495-30.495,30.495s-30.494-13.653-30.494-30.495
	s13.652-30.495,30.494-30.495S338.122,421.63,338.122,438.472"/>
<path fill="#A18EC4" d="M307.193,415.001c12.941,0,23.471,10.529,23.471,23.471c0,12.942-10.529,23.472-23.471,23.472
	c-12.943,0-23.472-10.529-23.472-23.472C283.722,425.53,294.25,415.001,307.193,415.001 M307.193,407.977
	c-16.843,0-30.496,13.653-30.496,30.495c0,16.843,13.653,30.495,30.496,30.495c16.842,0,30.494-13.652,30.494-30.495
	C337.688,421.63,324.035,407.977,307.193,407.977"/>
<path fill="#191818" d="M307.193,470.974c-17.921,0-32.502-14.581-32.502-32.502c0-17.922,14.581-32.502,32.502-32.502
	c17.92,0,32.5,14.58,32.5,32.502C339.693,456.393,325.113,470.974,307.193,470.974 M307.193,409.983
	c-15.708,0-28.488,12.78-28.488,28.488s12.78,28.488,28.488,28.488c15.707,0,28.488-12.78,28.488-28.488
	S322.9,409.983,307.193,409.983"/>
<path fill="#191818" d="M316.308,431.636c0-5.034-4.081-9.115-9.114-9.115c-5.035,0-9.116,4.081-9.116,9.115
	c0,3.373,1.834,6.315,4.558,7.892v12.363c0,1.398,1.133,2.532,2.532,2.532h4.051c1.398,0,2.531-1.134,2.531-2.532v-12.363
	C314.474,437.951,316.308,435.009,316.308,431.636"/>
<g>
	<defs>
		<path id="SVGID_5_" d="M250.896,468.498l56.372,2.085v-33.679c2.67-0.183,4.782-2.399,4.782-5.115s-2.112-4.934-4.782-5.115
			v-27.941l-56.372-2.084V468.498z"/>
	</defs>
	<clipPath id="SVGID_6_">
		<use xlink:href="#SVGID_5_"  overflow="visible"/>
	</clipPath>
	<path clip-path="url(#SVGID_6_)" fill="#FFFFFF" d="M331.026,429.275H294.6c-3.508-8.112-5.375-11.721-14.775-11.721
		c-12.618,0-16.642,8.162-16.642,20.78c-0.001,12.618,4.024,20.779,16.642,20.779c8.636,0,9.947-2.724,13.832-9.793l20.253-0.001
		v-4.461h-4.092l2.068,4.461h4.963v-4.461h4.345l2.069,4.461h3.625l8.453-8.194v-8.495L331.026,429.275z"/>
	<path clip-path="url(#SVGID_6_)" fill="#A18EC4" d="M329.922,430.204h-35.423c-3.411-7.888-5.227-11.397-14.368-11.397
		c-12.066,0-15.85,7.605-16.176,19.593h70.165v-4.931L329.922,430.204z"/>
	<path clip-path="url(#SVGID_6_)" fill="#191818" d="M279.825,461.121L279.825,461.121c-6.666,0-11.607-2.186-14.687-6.498
		c-2.666-3.734-3.962-9.062-3.962-16.289c0-15.332,6.1-22.785,18.649-22.785c10.022,0,12.688,4.013,16.088,11.72h35.802l5.633,4.382
		v10.326l-9.646,9.351h-5.721l-2.069-4.462h-1.055v4.462h-24.013C291.257,457.849,289.184,461.121,279.825,461.121 M279.825,419.563
		c-10.259,0-14.636,5.613-14.636,18.771c0,6.361,1.052,10.927,3.216,13.956c2.315,3.242,6.05,4.817,11.42,4.817
		c7.269,0,8.235-1.762,11.833-8.316l0.812-1.478h18.124l5.322-11.739v7.278h6.561l2.068,4.461h1.531l7.26-7.037v-6.663l-2.998-2.331
		h-37.057l-0.523-1.211C289.23,421.914,287.855,419.563,279.825,419.563"/>
	<path clip-path="url(#SVGID_6_)" fill="#231F20" d="M272.758,447.25c-1.524,0-2.759-1.234-2.759-2.759v-13.03
		c0-1.524,1.235-2.76,2.759-2.76s2.759,1.235,2.759,2.76v13.03C275.517,446.016,274.282,447.25,272.758,447.25"/>
</g>
<rect x="306.319" y="447.223" fill="#191818" width="2.215" height="2.867"/>
<rect x="310.521" y="428.457" fill="#191818" width="2.215" height="2.867"/>
<path fill="#FFFFFF" d="M299.132,378.729l2.408-2.529c1.024,1.325,2.62,2.198,4.305,2.198c2.108,0,3.071-1.114,3.071-2.679
	c0-1.867-1.293-2.53-3.25-2.53c-0.662,0-1.566,0-1.866,0.061v-3.643c0.3,0.03,1.294,0.03,1.775,0.03
	c1.837,0,3.071-0.753,3.071-2.318c0-1.687-1.204-2.499-2.95-2.499c-1.565,0-2.98,0.723-4.004,2.018l-2.288-2.349
	c1.445-2.017,3.733-3.252,6.623-3.252c3.974,0,6.593,1.897,6.593,5.45c0,2.288-1.716,4.154-3.793,4.576
	c2.047,0.301,4.094,2.106,4.094,4.816c0,3.492-2.679,5.9-6.894,5.9C302.835,381.98,300.397,380.565,299.132,378.729"/>
<polygon fill="#A18EC4" points="275.357,369.957 263.617,372.666 252.781,369.957 252.781,363.636 263.617,366.345 275.357,363.636 
	"/>
<polygon fill="#A18EC4" points="275.357,378.987 263.617,381.696 252.781,378.987 252.781,372.666 263.617,375.375 275.357,372.666 
	"/>
<polygon fill="#676767" points="359.721,369.957 347.981,372.666 337.146,369.957 337.146,363.636 347.981,366.345 359.721,363.636 
	"/>
<polygon fill="#676767" points="359.721,378.987 347.981,381.696 337.146,378.987 337.146,372.666 347.981,375.375 359.721,372.666 
	"/>
</svg>
