<?xml version="1.0" encoding="utf-8"?>
<!-- Generator: Adobe Illustrator 16.0.0, SVG Export Plug-In . SVG Version: 6.00 Build 0)  -->
<!DOCTYPE svg PUBLIC "-//W3C//DTD SVG 1.1//EN" "http://www.w3.org/Graphics/SVG/1.1/DTD/svg11.dtd">
<svg version="1.1" id="Layer_1" xmlns="http://www.w3.org/2000/svg" xmlns:xlink="http://www.w3.org/1999/xlink" x="0px" y="0px"
	 width="240px" height="195px" viewBox="0 0 240 195" enable-background="new 0 0 240 195" xml:space="preserve">
<path fill="none" d="M78.63-2257.76"/>
<path fill="none" d="M78.63,987.837"/>
<line fill="none" x1="51.764" y1="-1628.76" x2="51.764" y2="1616.837"/>
<path fill="#A08EC3" d="M61.546,52.175v19.391l0.008,47.543c0,34.073,61.697,61.696,61.697,61.696s61.697-27.623,61.697-61.696
	l0.008-47.543V52.175H61.546z"/>
<g opacity="0.5">
	<g>
		<g>
			<defs>
				<rect id="SVGID_1_" x="86.173" y="50.43" width="97.694" height="127.58"/>
			</defs>
			<clipPath id="SVGID_2_">
				<use xlink:href="#SVGID_1_"  overflow="visible"/>
			</clipPath>
			<path clip-path="url(#SVGID_2_)" fill="#5C65AE" d="M123.842,50.432v22.024c-20.803,0.188-37.669,17.169-37.669,38.016
				c0,20.848,16.866,37.826,37.669,38.018v29.453c0.042,0.021,0.088,0.044,0.129,0.063c5.59-2.753,17.618-9.048,29.467-17.652
				c9.191-6.674,16.455-13.391,21.588-19.967c5.867-7.513,8.843-14.722,8.843-21.427V71.736V50.431L123.842,50.432L123.842,50.432z"
				/>
		</g>
	</g>
</g>
<g opacity="0.4">
	<g>
		<g>
			<defs>
				<rect id="SVGID_3_" x="58.642" y="46.64" width="129.217" height="137.19"/>
			</defs>
			<clipPath id="SVGID_4_">
				<use xlink:href="#SVGID_3_"  overflow="visible"/>
			</clipPath>
			<path clip-path="url(#SVGID_4_)" fill="#FFFFFF" d="M174.063,60.438v9.011l-0.008,49.784c0,18.229-31.246,39.336-50.803,49.295
				c-19.566-9.965-50.805-31.069-50.805-49.299l-0.008-49.777v-9.015L174.063,60.438 M187.859,46.64H58.642v22.812l0.009,49.781
				c0,35.677,64.6,64.6,64.6,64.6s64.601-28.923,64.601-64.6l0.008-49.781V46.64L187.859,46.64z"/>
		</g>
	</g>
</g>
<path fill="#1A1A19" d="M187.859,46.639V34.287c0-3.459-2.803-6.262-6.262-6.262h-18.837l-39.065-10.953L85.934,28.025h-21.03
	c-3.459,0-6.262,2.803-6.262,6.262v28.881v6.282l0.008,49.78c0,35.679,64.601,64.602,64.601,64.602s64.601-28.923,64.601-64.602
	l0.008-49.78V46.639z M180.326,119.23c0,8.39-5.031,22.043-28.997,39.444c-11.289,8.198-22.75,14.196-28.078,16.82
	c-5.33-2.625-16.79-8.623-28.078-16.82c-23.966-17.401-28.997-31.056-28.997-39.444l-0.008-49.78v-6.282h114.166v6.281
	L180.326,119.23z"/>
<path fill="#FFFFFF" d="M155.122,110.472c0,16.843-13.653,30.495-30.495,30.495s-30.494-13.652-30.494-30.495
	c0-16.842,13.652-30.495,30.494-30.495S155.122,93.63,155.122,110.472"/>
<path fill="#A08EC3" d="M124.193,87.001c12.94,0,23.471,10.529,23.471,23.471c0,12.942-10.529,23.473-23.471,23.473
	c-12.943,0-23.472-10.529-23.472-23.473C100.722,97.53,111.25,87.001,124.193,87.001 M124.193,79.977
	c-16.843,0-30.497,13.653-30.497,30.495c0,16.844,13.653,30.495,30.497,30.495c16.842,0,30.494-13.651,30.494-30.495
	C154.688,93.63,141.035,79.977,124.193,79.977"/>
<path fill="#191818" d="M124.193,142.974c-17.921,0-32.502-14.581-32.502-32.502c0-17.922,14.581-32.502,32.502-32.502
	c17.92,0,32.5,14.58,32.5,32.502C156.693,128.393,142.113,142.974,124.193,142.974 M124.193,81.983
	c-15.708,0-28.488,12.779-28.488,28.487s12.78,28.488,28.488,28.488c15.707,0,28.488-12.78,28.488-28.488
	S139.9,81.983,124.193,81.983"/>
<path fill="#191818" d="M133.309,103.636c0-5.034-4.082-9.114-9.115-9.114c-5.034,0-9.115,4.08-9.115,9.114
	c0,3.373,1.834,6.315,4.558,7.893v12.362c0,1.398,1.133,2.532,2.532,2.532h4.051c1.398,0,2.531-1.134,2.531-2.532v-12.362
	C131.475,109.951,133.309,107.009,133.309,103.636"/>
<g>
	<g>
		<defs>
			<path id="SVGID_5_" d="M67.896,140.498l56.372,2.085v-33.679c2.67-0.184,4.782-2.399,4.782-5.115s-2.112-4.934-4.782-5.115
				v-27.94l-56.372-2.084V140.498z"/>
		</defs>
		<clipPath id="SVGID_6_">
			<use xlink:href="#SVGID_5_"  overflow="visible"/>
		</clipPath>
		<path clip-path="url(#SVGID_6_)" fill="#FFFFFF" d="M148.025,101.275H111.6c-3.508-8.112-5.375-11.722-14.775-11.722
			c-12.618,0-16.642,8.162-16.642,20.78c-0.001,12.618,4.024,20.779,16.642,20.779c8.636,0,9.947-2.725,13.832-9.793l20.253-0.001
			v-4.461h-4.092l2.067,4.461h4.964v-4.461h4.344l2.07,4.461h3.625l8.452-8.194v-8.495L148.025,101.275z"/>
	</g>
	<g>
		<defs>
			<path id="SVGID_7_" d="M67.896,140.498l56.372,2.085v-33.679c2.67-0.184,4.782-2.399,4.782-5.115s-2.112-4.934-4.782-5.115
				v-27.94l-56.372-2.084V140.498z"/>
		</defs>
		<clipPath id="SVGID_8_">
			<use xlink:href="#SVGID_7_"  overflow="visible"/>
		</clipPath>
		<path clip-path="url(#SVGID_8_)" fill="#A08EC3" d="M146.922,102.204h-35.423c-3.411-7.888-5.227-11.397-14.368-11.397
			c-12.066,0-15.85,7.605-16.176,19.594h70.165v-4.932L146.922,102.204z"/>
	</g>
	<g>
		<defs>
			<path id="SVGID_9_" d="M67.896,140.498l56.372,2.085v-33.679c2.67-0.184,4.782-2.399,4.782-5.115s-2.112-4.934-4.782-5.115
				v-27.94l-56.372-2.084V140.498z"/>
		</defs>
		<clipPath id="SVGID_10_">
			<use xlink:href="#SVGID_9_"  overflow="visible"/>
		</clipPath>
		<path clip-path="url(#SVGID_10_)" fill="#191818" d="M96.825,133.121L96.825,133.121c-6.666,0-11.607-2.187-14.687-6.498
			c-2.666-3.734-3.962-9.063-3.962-16.289c0-15.332,6.1-22.785,18.649-22.785c10.022,0,12.688,4.014,16.088,11.72h35.802
			l5.633,4.383v10.325l-9.646,9.352h-5.722l-2.068-4.462h-1.055v4.462h-24.014C108.257,129.849,106.184,133.121,96.825,133.121
			 M96.825,91.563c-10.259,0-14.636,5.613-14.636,18.771c0,6.361,1.052,10.927,3.216,13.956c2.315,3.242,6.05,4.817,11.42,4.817
			c7.269,0,8.235-1.763,11.833-8.316l0.812-1.479h18.124l5.322-11.738v7.277h6.561l2.068,4.461h1.531l7.26-7.036v-6.663
			l-2.998-2.331h-37.057l-0.523-1.211C106.23,93.914,104.855,91.563,96.825,91.563"/>
	</g>
	<g>
		<defs>
			<path id="SVGID_11_" d="M67.896,140.498l56.372,2.085v-33.679c2.67-0.184,4.782-2.399,4.782-5.115s-2.112-4.934-4.782-5.115
				v-27.94l-56.372-2.084V140.498z"/>
		</defs>
		<clipPath id="SVGID_12_">
			<use xlink:href="#SVGID_11_"  overflow="visible"/>
		</clipPath>
		<path clip-path="url(#SVGID_12_)" fill="#231F20" d="M89.758,119.25c-1.524,0-2.759-1.234-2.759-2.759v-13.03
			c0-1.523,1.235-2.76,2.759-2.76c1.524,0,2.759,1.234,2.759,2.76v13.03C92.517,118.016,91.282,119.25,89.758,119.25"/>
	</g>
</g>
<rect x="123.318" y="119.223" fill="#191818" width="2.216" height="2.867"/>
<rect x="127.521" y="100.457" fill="#191818" width="2.215" height="2.867"/>
<path fill="#FFFFFF" d="M116.132,50.729l2.408-2.528c1.024,1.325,2.62,2.198,4.305,2.198c2.108,0,3.071-1.114,3.071-2.68
	c0-1.867-1.293-2.529-3.25-2.529c-0.662,0-1.566,0-1.866,0.061v-3.643c0.3,0.029,1.294,0.029,1.775,0.029
	c1.837,0,3.071-0.753,3.071-2.317c0-1.688-1.205-2.499-2.951-2.499c-1.564,0-2.979,0.723-4.003,2.018l-2.288-2.349
	c1.445-2.018,3.733-3.252,6.624-3.252c3.974,0,6.593,1.896,6.593,5.45c0,2.287-1.716,4.153-3.793,4.575
	c2.047,0.302,4.094,2.106,4.094,4.816c0,3.492-2.679,5.9-6.894,5.9C119.835,53.98,117.397,52.565,116.132,50.729"/>
<polygon fill="#A08EC3" points="92.357,41.957 80.617,44.666 69.781,41.957 69.781,35.636 80.617,38.345 92.357,35.636 "/>
<polygon fill="#A08EC3" points="92.357,50.987 80.617,53.696 69.781,50.987 69.781,44.666 80.617,47.375 92.357,44.666 "/>
<polygon fill="#676868" points="176.721,41.957 164.98,44.666 154.146,41.957 154.146,35.636 164.98,38.345 176.721,35.636 "/>
<polygon fill="#676868" points="176.721,50.987 164.98,53.696 154.146,50.987 154.146,44.666 164.98,47.375 176.721,44.666 "/>
</svg>
