<?xml version="1.0" encoding="utf-8"?>
<!-- Generator: Adobe Illustrator 16.0.0, SVG Export Plug-In . SVG Version: 6.00 Build 0)  -->
<!DOCTYPE svg PUBLIC "-//W3C//DTD SVG 1.1//EN" "http://www.w3.org/Graphics/SVG/1.1/DTD/svg11.dtd">
<svg version="1.1" id="Layer_1" xmlns="http://www.w3.org/2000/svg" xmlns:xlink="http://www.w3.org/1999/xlink" x="0px" y="0px"
	 width="240px" height="195px" viewBox="0 0 240 195" enable-background="new 0 0 240 195" xml:space="preserve">
<path fill="none" d="M78.63-2257.76"/>
<path fill="none" d="M78.63,987.837"/>
<path fill="#A08EC3" d="M56.291,40.305v19.953l0.008,48.926c0,35.064,63.491,63.491,63.491,63.491s63.491-28.427,63.491-63.491
	l0.008-48.926V40.305H56.291z"/>
<g opacity="0.5">
	<g>
		<g>
			<defs>
				<rect id="SVGID_1_" x="82.71" y="40.43" width="97.7" height="127.58"/>
			</defs>
			<clipPath id="SVGID_2_">
				<use xlink:href="#SVGID_1_"  overflow="visible"/>
			</clipPath>
			<path clip-path="url(#SVGID_2_)" fill="#5C65AE" d="M120.381,40.432v22.024c-20.803,0.188-37.669,17.169-37.669,38.016
				c0,20.848,16.866,37.826,37.669,38.018v29.453c0.042,0.021,0.087,0.044,0.128,0.063c5.591-2.753,17.619-9.048,29.468-17.652
				c9.191-6.674,16.455-13.391,21.588-19.967c5.867-7.513,8.843-14.722,8.843-21.427V61.736V40.431L120.381,40.432L120.381,40.432z"
				/>
		</g>
	</g>
</g>
<g opacity="0.4">
	<g>
		<g>
			<defs>
				<rect id="SVGID_3_" x="55.18" y="36.64" width="129.22" height="137.19"/>
			</defs>
			<clipPath id="SVGID_4_">
				<use xlink:href="#SVGID_3_"  overflow="visible"/>
			</clipPath>
			<path clip-path="url(#SVGID_4_)" fill="#FFFFFF" d="M170.602,50.438v9.011l-0.008,49.784c0,18.229-31.246,39.336-50.803,49.295
				c-19.566-9.965-50.805-31.069-50.805-49.299l-0.008-49.777v-9.015L170.602,50.438 M184.398,36.64H55.181v22.812l0.009,49.781
				c0,35.677,64.6,64.6,64.6,64.6s64.601-28.923,64.601-64.6l0.008-49.781V36.64L184.398,36.64z"/>
		</g>
	</g>
</g>
<path fill="#1A1A19" d="M184.398,36.639V24.287c0-3.459-2.803-6.262-6.263-6.262H159.3L120.234,7.072L82.473,18.025h-21.03
	c-3.459,0-6.262,2.803-6.262,6.262v12.352v16.529v6.282l0.008,49.78c0,35.679,64.601,64.602,64.601,64.602
	s64.601-28.923,64.601-64.602l0.01-49.78V36.639H184.398z M176.865,109.23c0,8.39-5.031,22.043-28.997,39.444
	c-11.289,8.198-22.75,14.196-28.078,16.82c-5.33-2.625-16.79-8.623-28.078-16.82c-23.966-17.401-28.997-31.056-28.997-39.444
	l-0.008-49.78v-6.282h114.166v6.281L176.865,109.23z"/>
<path fill="#FFFFFF" d="M151.661,100.472c0,16.843-13.653,30.495-30.495,30.495c-16.841,0-30.495-13.652-30.495-30.495
	c0-16.842,13.654-30.495,30.495-30.495C138.008,69.977,151.661,83.63,151.661,100.472"/>
<path fill="#A08EC3" d="M120.732,77.001c12.942,0,23.471,10.529,23.471,23.471c0,12.942-10.529,23.473-23.471,23.473
	s-23.471-10.529-23.471-23.473C97.261,87.53,107.79,77.001,120.732,77.001 M120.732,69.977c-16.842,0-30.495,13.653-30.495,30.495
	c0,16.844,13.653,30.495,30.495,30.495c16.842,0,30.495-13.651,30.495-30.495C151.227,83.63,137.574,69.977,120.732,69.977"/>
<path fill="#191818" d="M120.732,132.974c-17.921,0-32.502-14.581-32.502-32.502c0-17.922,14.581-32.502,32.502-32.502
	c17.92,0,32.5,14.58,32.5,32.502C153.232,118.393,138.652,132.974,120.732,132.974 M120.732,71.983
	c-15.708,0-28.488,12.779-28.488,28.487s12.78,28.488,28.488,28.488c15.708,0,28.489-12.78,28.489-28.488
	S136.439,71.983,120.732,71.983"/>
<path fill="#191818" d="M129.848,93.636c0-5.034-4.082-9.114-9.116-9.114s-9.115,4.08-9.115,9.114c0,3.373,1.834,6.315,4.558,7.893
	v12.362c0,1.398,1.133,2.532,2.532,2.532h4.051c1.398,0,2.532-1.134,2.532-2.532v-12.362
	C128.014,99.951,129.848,97.009,129.848,93.636"/>
<g>
	<g>
		<defs>
			<path id="SVGID_5_" d="M64.434,130.498l56.372,2.085V98.904c2.67-0.184,4.782-2.399,4.782-5.115s-2.111-4.934-4.782-5.115v-27.94
				l-56.372-2.084V130.498L64.434,130.498z"/>
		</defs>
		<clipPath id="SVGID_6_">
			<use xlink:href="#SVGID_5_"  overflow="visible"/>
		</clipPath>
		<path clip-path="url(#SVGID_6_)" fill="#FFFFFF" d="M144.564,91.275h-36.425c-3.508-8.112-5.375-11.722-14.775-11.722
			c-12.618,0-16.642,8.162-16.642,20.78c-0.001,12.618,4.024,20.779,16.642,20.779c8.636,0,9.947-2.725,13.832-9.793l20.253-0.001
			v-4.461h-4.092l2.067,4.461h4.964v-4.461h4.344l2.069,4.461h3.625l8.453-8.194V94.63L144.564,91.275z"/>
	</g>
	<g>
		<defs>
			<path id="SVGID_7_" d="M64.434,130.498l56.372,2.085V98.904c2.67-0.184,4.782-2.399,4.782-5.115s-2.111-4.934-4.782-5.115v-27.94
				l-56.372-2.084V130.498L64.434,130.498z"/>
		</defs>
		<clipPath id="SVGID_8_">
			<use xlink:href="#SVGID_7_"  overflow="visible"/>
		</clipPath>
		<path clip-path="url(#SVGID_8_)" fill="#A08EC3" d="M143.461,92.204h-35.424c-3.411-7.888-5.227-11.397-14.368-11.397
			c-12.066,0-15.85,7.605-16.176,19.594h70.165v-4.932L143.461,92.204z"/>
	</g>
	<g>
		<defs>
			<path id="SVGID_9_" d="M64.434,130.498l56.372,2.085V98.904c2.67-0.184,4.782-2.399,4.782-5.115s-2.111-4.934-4.782-5.115v-27.94
				l-56.372-2.084V130.498L64.434,130.498z"/>
		</defs>
		<clipPath id="SVGID_10_">
			<use xlink:href="#SVGID_9_"  overflow="visible"/>
		</clipPath>
		<path clip-path="url(#SVGID_10_)" fill="#191818" d="M93.364,123.121L93.364,123.121c-6.666,0-11.607-2.187-14.688-6.498
			c-2.666-3.734-3.962-9.063-3.962-16.289c0-15.332,6.1-22.785,18.649-22.785c10.022,0,12.688,4.014,16.088,11.72h35.802
			l5.633,4.383v10.325l-9.646,9.352h-5.722l-2.068-4.462h-1.055v4.462h-24.014C104.796,119.849,102.723,123.121,93.364,123.121
			 M93.364,81.563c-10.259,0-14.636,5.613-14.636,18.771c0,6.361,1.052,10.927,3.216,13.956c2.315,3.242,6.05,4.817,11.42,4.817
			c7.269,0,8.235-1.763,11.833-8.316l0.812-1.479h18.124l5.322-11.738v7.277h6.561l2.068,4.461h1.531l7.259-7.036v-6.663
			l-2.997-2.331H106.82l-0.523-1.211C102.77,83.914,101.395,81.563,93.364,81.563"/>
	</g>
	<g>
		<defs>
			<path id="SVGID_11_" d="M64.434,130.498l56.372,2.085V98.904c2.67-0.184,4.782-2.399,4.782-5.115s-2.111-4.934-4.782-5.115
				v-27.94l-56.372-2.084V130.498L64.434,130.498z"/>
		</defs>
		<clipPath id="SVGID_12_">
			<use xlink:href="#SVGID_11_"  overflow="visible"/>
		</clipPath>
		<path clip-path="url(#SVGID_12_)" fill="#231F20" d="M86.297,109.25c-1.524,0-2.759-1.234-2.759-2.759v-13.03
			c0-1.523,1.235-2.76,2.759-2.76s2.759,1.234,2.759,2.76v13.03C89.056,108.016,87.821,109.25,86.297,109.25"/>
	</g>
</g>
<rect x="119.858" y="109.223" fill="#191818" width="2.215" height="2.867"/>
<rect x="124.061" y="90.457" fill="#191818" width="2.215" height="2.867"/>
<path fill="#FFFFFF" d="M104.921,33.624c0-6.021,2.86-10.387,8.038-10.387c2.138,0,3.974,0.844,5.147,2.168l-1.956,3.011
	c-0.783-1.054-1.717-1.596-3.131-1.596c-2.439,0-4.005,2.8-4.005,5.991v0.361c0.753-1.386,2.379-2.561,4.276-2.561
	c3.01,0,5.629,2.258,5.629,6.533c0,3.884-2.649,6.835-6.593,6.835C106.998,43.981,104.921,39.193,104.921,33.624 M114.826,37.297
	c0-2.348-1.385-3.221-2.8-3.221c-1.294,0-2.318,0.902-3.011,2.047c0.151,1.896,0.844,4.275,3.071,4.275
	C113.923,40.398,114.826,38.803,114.826,37.297"/>
<path fill="#FFFFFF" d="M120.424,33.594c0-5.178,2.137-10.354,7.104-10.354c4.998,0,7.105,5.178,7.105,10.354
	c0,5.148-2.076,10.389-7.105,10.389C122.561,43.981,120.424,38.742,120.424,33.594 M130.539,33.594c0-3.883-0.662-6.771-3.012-6.771
	c-2.318,0-2.979,2.89-2.979,6.771c0,3.854,0.661,6.806,2.979,6.806C129.877,40.398,130.539,37.448,130.539,33.594"/>
<path fill="#1A1A19" d="M140.756,165.772c-10.386,6.445-19.063,10.537-20.966,11.415c-1.905-0.878-10.58-4.97-20.967-11.416v0.492
	c-0.003-0.002,0.004-0.005,0-0.007v15.051c11.415,7.015,20.568,11.112,20.568,11.112l0.399-0.001l0.399,0.001
	c0,0,9.152-4.099,20.566-11.112v-15.051c-0.004,0.002,0.004,0.005,0,0.007L140.756,165.772L140.756,165.772z"/>
<path fill="#1A1A19" d="M95.508,164.636c-9.748-6.171-20.759-14.313-29.014-23.745v15.052c8.118,9.568,19.145,17.857,29.014,24.17
	v-15.052c-0.004-0.002,0.003-0.005,0-0.007V164.636z"/>
<path fill="#FFFFFF" d="M144.072,164.636v0.418c-0.004,0.002,0.004,0.005,0,0.007v15.052c9.869-6.313,20.896-14.602,29.015-24.17
	v-15.052C164.83,150.322,153.82,158.465,144.072,164.636"/>
<polygon fill="#FFFFFF" points="172.323,32.482 160.583,35.191 149.747,32.482 149.747,26.162 160.583,28.871 172.323,26.162 "/>
<polygon fill="#FFFFFF" points="172.323,41.514 160.583,44.223 149.747,41.514 149.747,35.192 160.583,37.901 172.323,35.192 "/>
<polygon fill="#FFFFFF" points="88.815,32.115 81.357,30.984 78.036,23.887 74.716,30.984 67.257,32.115 72.647,37.649 
	71.299,45.444 78.036,41.764 84.773,45.444 83.426,37.649 "/>
</svg>
