<?xml version="1.0" encoding="utf-8"?>
<!-- Generator: Adobe Illustrator 16.0.0, SVG Export Plug-In . SVG Version: 6.00 Build 0)  -->
<!DOCTYPE svg PUBLIC "-//W3C//DTD SVG 1.1//EN" "http://www.w3.org/Graphics/SVG/1.1/DTD/svg11.dtd">
<svg version="1.1" id="Layer_1" xmlns="http://www.w3.org/2000/svg" xmlns:xlink="http://www.w3.org/1999/xlink" x="0px" y="0px"
	 width="612px" height="792px" viewBox="0 0 612 792" enable-background="new 0 0 612 792" xml:space="preserve">
<path fill="#A18EC4" d="M244.546,347.175v19.39l0.008,47.543c0,34.074,61.697,61.697,61.697,61.697s61.697-27.623,61.697-61.697
	l0.008-47.543v-19.39H244.546z"/>
<g opacity="0.5">
	<g>
		<defs>
			<rect id="SVGID_1_" x="269.173" y="345.43" width="97.694" height="127.58"/>
		</defs>
		<clipPath id="SVGID_2_">
			<use xlink:href="#SVGID_1_"  overflow="visible"/>
		</clipPath>
		<path clip-path="url(#SVGID_2_)" fill="#5C64AE" d="M306.842,345.432v22.024c-20.803,0.189-37.669,17.169-37.669,38.016
			s16.866,37.826,37.669,38.017v29.453c0.042,0.021,0.087,0.044,0.128,0.064c5.591-2.753,17.619-9.048,29.468-17.652
			c9.191-6.674,16.455-13.391,21.588-19.967c5.867-7.513,8.842-14.722,8.842-21.427v-47.224v-21.305H306.842z"/>
	</g>
</g>
<g opacity="0.4">
	<g>
		<defs>
			<rect id="SVGID_3_" x="241.642" y="341.64" width="129.217" height="137.19"/>
		</defs>
		<clipPath id="SVGID_4_">
			<use xlink:href="#SVGID_3_"  overflow="visible"/>
		</clipPath>
		<path clip-path="url(#SVGID_4_)" fill="#FFFFFF" d="M357.063,355.437v9.011l-0.008,49.784c0,18.229-31.246,39.336-50.803,49.295
			c-19.566-9.964-50.805-31.069-50.805-49.298l-0.008-49.778v-9.014H357.063 M370.859,341.64H241.642v22.811l0.009,49.781
			c0,35.677,64.6,64.6,64.6,64.6s64.601-28.923,64.601-64.6l0.008-49.781V341.64z"/>
	</g>
</g>
<path fill="#1A1A19" d="M370.86,341.639v-12.352c0-3.459-2.804-6.262-6.263-6.262h-18.836l-39.066-10.953l-37.761,10.953h-21.03
	c-3.459,0-6.262,2.803-6.262,6.262v28.881v6.282l0.008,49.78c0,35.679,64.601,64.602,64.601,64.602s64.6-28.923,64.6-64.602
	l0.009-49.78V341.639z M363.326,414.23c0,8.39-5.031,22.043-28.997,39.445c-11.289,8.198-22.75,14.196-28.078,16.82
	c-5.33-2.625-16.79-8.623-28.078-16.82c-23.966-17.402-28.997-31.056-28.997-39.445l-0.008-49.78v-6.282h114.166v6.281
	L363.326,414.23z"/>
<path fill="#FFFFFF" d="M338.122,405.472c0,16.842-13.653,30.495-30.495,30.495s-30.494-13.653-30.494-30.495
	s13.652-30.495,30.494-30.495S338.122,388.63,338.122,405.472"/>
<path fill="#A18EC4" d="M307.193,382.001c12.941,0,23.471,10.529,23.471,23.471c0,12.942-10.529,23.472-23.471,23.472
	c-12.943,0-23.472-10.529-23.472-23.472C283.722,392.53,294.25,382.001,307.193,382.001 M307.193,374.977
	c-16.843,0-30.496,13.653-30.496,30.495c0,16.843,13.653,30.495,30.496,30.495c16.842,0,30.494-13.652,30.494-30.495
	C337.688,388.63,324.035,374.977,307.193,374.977"/>
<path fill="#191818" d="M307.193,437.974c-17.921,0-32.502-14.581-32.502-32.502c0-17.922,14.581-32.502,32.502-32.502
	c17.92,0,32.5,14.58,32.5,32.502C339.693,423.393,325.113,437.974,307.193,437.974 M307.193,376.983
	c-15.708,0-28.488,12.78-28.488,28.488s12.78,28.488,28.488,28.488c15.707,0,28.488-12.78,28.488-28.488
	S322.9,376.983,307.193,376.983"/>
<path fill="#191818" d="M316.308,398.636c0-5.034-4.081-9.115-9.114-9.115c-5.035,0-9.116,4.081-9.116,9.115
	c0,3.373,1.834,6.315,4.558,7.892v12.363c0,1.398,1.133,2.532,2.532,2.532h4.051c1.398,0,2.531-1.134,2.531-2.532v-12.363
	C314.474,404.951,316.308,402.009,316.308,398.636"/>
</svg>
