<?xml version="1.0" encoding="utf-8"?>
<!-- Generator: Adobe Illustrator 16.0.0, SVG Export Plug-In . SVG Version: 6.00 Build 0)  -->
<!DOCTYPE svg PUBLIC "-//W3C//DTD SVG 1.1//EN" "http://www.w3.org/Graphics/SVG/1.1/DTD/svg11.dtd">
<svg version="1.1" id="Layer_1" xmlns="http://www.w3.org/2000/svg" xmlns:xlink="http://www.w3.org/1999/xlink" x="0px" y="0px"
	 width="240px" height="195px" viewBox="0 0 240 195" enable-background="new 0 0 240 195" xml:space="preserve">
<g>
	<g>
		<g>
			<defs>
				<path id="SVGID_1_" d="M300.655,53.723c2.09-3.329,2.297-8.896,0.46-12.368"/>
			</defs>
			<clipPath id="SVGID_2_">
				<use xlink:href="#SVGID_1_"  overflow="visible"/>
			</clipPath>
		</g>
	</g>
</g>
<path fill="none" d="M78.63-2257.76"/>
<path fill="none" d="M78.63,987.837"/>
<path fill="#FFC942" d="M189.906,52.972l-63.825-36.849c-1.497-0.865-3.424-1.331-5.394-1.417c-0.156-0.007-0.314-0.017-0.473-0.019
	c-2.25-0.026-4.514,0.449-6.221,1.436L50.168,52.972c-3.322,1.919-6.043,6.63-6.043,10.468v73.698c0,3.839,2.721,8.549,6.043,10.468
	l63.826,36.85c1.707,0.985,3.971,1.462,6.221,1.435c0.158-0.002,0.316-0.011,0.473-0.018c1.97-0.085,3.896-0.553,5.394-1.417
	l63.825-36.85c3.324-1.919,6.043-6.629,6.043-10.468V63.439C195.949,59.602,193.23,54.891,189.906,52.972"/>
<path fill="#D39729" d="M191.747,148.853c3.411-1.97,6.202-6.804,6.202-10.744v-75.64c0-3.939-2.791-8.774-6.202-10.743
	L126.24,13.904c-1.537-0.887-3.515-1.366-5.535-1.453v175.676c2.021-0.089,3.998-0.567,5.535-1.454L191.747,148.853z"/>
<g opacity="0.4">
	<g>
		<defs>
			<rect id="SVGID_3_" x="42.13" y="12.43" width="155.82" height="175.721"/>
		</defs>
		<clipPath id="SVGID_4_">
			<use xlink:href="#SVGID_3_"  overflow="visible"/>
		</clipPath>
		<path clip-path="url(#SVGID_4_)" fill="#FFFFFF" d="M120.037,27.852L182.77,64.07v72.437l-62.732,36.219l-62.731-36.218V64.07
			L120.037,27.852 M120.035,12.432c-2.247,0-4.495,0.489-6.199,1.473l-65.508,37.82c-3.41,1.97-6.203,6.805-6.203,10.744v75.64
			c0,3.939,2.793,8.774,6.203,10.744l65.508,37.82c1.704,0.985,3.952,1.473,6.199,1.473c0.063,0,0.123,0,0.184-0.001
			c2.188-0.025,4.362-0.514,6.021-1.472l65.507-37.82c3.411-1.97,6.202-6.805,6.202-10.744v-75.64c0-3.939-2.791-8.774-6.202-10.744
			l-65.507-37.82c-1.659-0.958-3.834-1.445-6.021-1.472C120.158,12.432,120.097,12.432,120.035,12.432"/>
	</g>
</g>
<g>
	<defs>
		<path id="SVGID_5_" d="M113.836,12.905L48.328,50.724c-3.412,1.972-6.203,6.805-6.203,10.745v75.64
			c0,3.938,2.791,8.773,6.203,10.743l65.508,37.82c1.75,1.012,4.075,1.5,6.385,1.473c2.187-0.027,4.361-0.516,6.02-1.473
			l65.507-37.82c3.412-1.97,6.203-6.805,6.203-10.743v-75.64c0-3.94-2.791-8.773-6.203-10.745L126.24,12.905
			c-1.658-0.96-3.833-1.448-6.02-1.473c-0.064-0.001-0.129-0.001-0.193-0.001C117.783,11.432,115.539,11.92,113.836,12.905"/>
	</defs>
	<clipPath id="SVGID_6_">
		<use xlink:href="#SVGID_5_"  overflow="visible"/>
	</clipPath>
	<g clip-path="url(#SVGID_6_)">
		<g>
			<defs>
				<rect id="SVGID_7_" x="142.08" y="185.04" width="10.74" height="11.57"/>
			</defs>
			<clipPath id="SVGID_8_">
				<use xlink:href="#SVGID_7_"  overflow="visible"/>
			</clipPath>
			<polygon clip-path="url(#SVGID_8_)" fill="#FFC942" points="142.496,185.868 150.758,185.042 152.822,193.303 142.084,196.608 
							"/>
		</g>
	</g>
	<g clip-path="url(#SVGID_6_)">
		<g>
			<defs>
				<rect id="SVGID_9_" x="23.07" y="103.98" width="167.279" height="110.979"/>
			</defs>
			<clipPath id="SVGID_10_">
				<use xlink:href="#SVGID_9_"  overflow="visible"/>
			</clipPath>
			<polygon clip-path="url(#SVGID_10_)" fill="#FFC942" points="190.348,201.834 142.877,154.363 133.745,153.986 125.17,149.843 
				110.732,149.567 103.574,140.525 82.598,139.671 73.146,130.261 64.809,127.972 58.111,121.535 38.021,110.408 37.217,103.979 
				32.96,132.188 24.247,132.136 23.072,213.89 23.086,213.889 23.072,214.961 			"/>
		</g>
	</g>
	<path clip-path="url(#SVGID_6_)" fill="#FFFFFF" d="M115.91,44.396c0.426,0,0.848,0.094,1.209,0.288l7.584,4.102
		c0.98,0.529,2.213,1.75,2.752,2.725l6.855,12.388c0.539,0.977,1.801,2.138,2.816,2.595l5.102,2.818
		c1.016,0.457,2.328,1.588,2.93,2.527l6.582,11.696c0.602,0.938,1.148,1.924,1.223,2.2c0.072,0.277,0.967,0.848,1.996,1.274
		l25.443,4.498c1.021,0.424,5.117,5.465,6.266,5.465c0.008,0,0.017-0.001,0.017-0.001l34.379,2.794l5.062,2.958l-4.516,7.005
		c-0.512-0.197-4.83-0.829-7.368-0.829c-1.052,0-1.799,0.109-1.84,0.402l6.966,43.505c-0.154,1.104-1.096,2.388-2.102,2.869
		l-40.301,11.578c-0.717,0.343-1.785,0.542-2.735,0.542c-0.382,0-0.744-0.032-1.056-0.099L65.711,200.648
		c-1.088-0.236-2.73-0.92-3.666-1.524l-27.49-74.102c-0.937-0.605-1.537-1.986-1.342-3.084l5.955-33.564
		c0.114-0.644,0.42-0.98,0.799-0.98c0.27,0,0.576,0.168,0.879,0.517c0,0,1.701,1.778,2.714,2.246l20.88,13.275
		c0.031,0.014,0.078,0.021,0.139,0.021c1.906,0,17.791-6.866,17.791-6.866c1.094-0.219,2.35-1.219,2.809-2.236l15.531-34.487
		c0.457-1.016,1.457-2.489,2.23-3.291l11.003-11.396C114.432,44.671,115.178,44.396,115.91,44.396 M221.609,109.729
		c0.074,0.028,0.068,0.047-0.035,0.055L221.609,109.729 M115.91,37.795L115.91,37.795c-2.553,0-5.001,1.019-6.717,2.797
		L98.19,51.985c-1.295,1.343-2.733,3.467-3.5,5.166L79.637,90.576c-5.002,2.159-10.928,4.591-14.09,5.736L47.102,84.585
		l-0.373-0.238l-0.074-0.034c-0.252-0.204-0.67-0.59-0.986-0.912c-1.543-1.684-3.559-2.608-5.701-2.608
		c-3.625,0-6.627,2.643-7.299,6.429l-5.955,33.565c-0.494,2.782,0.367,5.739,2.164,7.908l26.979,72.726l0.763,2.055l1.841,1.191
		c1.592,1.031,3.998,2.031,5.851,2.434l1.687,0.366l1.65-0.506l106.207-32.567c0.125,0.003,0.25,0.005,0.376,0.005
		c1.714,0,3.478-0.327,4.946-0.91l39.912-11.467l0.529-0.153l0.497-0.236c2.998-1.434,5.325-4.608,5.791-7.898l0.14-0.986
		l-0.158-0.983l-5.648-35.272l0.475-0.032l3.535,1.361l2.409-3.736c0.399-0.462,0.734-0.98,0.993-1.543l4.023-6.239l3.736-5.797
		l-5.955-3.48l-5.061-2.958l-1.299-0.758l-1.498-0.122l-32.637-2.652c-0.455-0.444-0.983-0.983-1.363-1.371
		c-1.801-1.84-2.989-3.057-4.666-3.752l-0.668-0.277l-0.713-0.126l-23.729-4.195c-0.127-0.211-0.267-0.435-0.417-0.673
		l-6.494-11.538l-0.092-0.165l-0.104-0.16c-1.223-1.908-3.389-3.817-5.469-4.839l-4.926-2.722l-0.236-0.131l-0.031-0.015
		c-0.027-0.022-0.055-0.049-0.08-0.072l-6.742-12.183c-1.143-2.067-3.309-4.213-5.387-5.337l-7.584-4.1
		C118.947,38.17,117.444,37.795,115.91,37.795"/>
	<path clip-path="url(#SVGID_6_)" fill="#B0C14E" d="M180.402,91.508l-25.443-4.498c-1.029-0.427-1.924-0.997-1.997-1.275
		c-0.073-0.276-0.62-1.262-1.222-2.199l-6.582-11.696c-0.602-0.938-1.913-2.07-2.93-2.528l-5.101-2.817
		c-1.017-0.457-2.278-1.618-2.817-2.595l-6.855-12.388c-0.539-0.975-1.771-2.196-2.752-2.726l-7.584-4.101
		c-0.98-0.529-2.402-0.31-3.178,0.492l-11.002,11.396c-0.773,0.802-1.771,2.274-2.23,3.292L85.178,94.351
		c-0.459,1.017-1.716,2.018-2.809,2.236l-4.542,0.908c-1.093,0.219-2.573,1.076-3.308,1.915c0,0-9.068,4.488-10.08,4.021
		L43.561,90.156c-1.012-0.468-2.426-1.528-3.158-2.369l0.443,0.123c-0.732-0.842-1.482-0.633-1.678,0.464l-5.955,33.564
		c-0.195,1.098,0.406,2.479,1.342,3.083l27.49,74.103c0.936,0.604,2.577,1.288,3.666,1.524l107.463-32.952
		c1.088,0.236,2.786,0.038,3.791-0.442l40.301-11.579c1.006-0.479,1.947-1.765,2.104-2.868l-6.969-43.505
		c0.156-1.104,10.285,1.613,9.174,1.688l3.77-8.188l-3.767-2.615l-34.884-3.215C185.581,97.047,181.432,91.935,180.402,91.508"/>
	<path clip-path="url(#SVGID_6_)" fill="#231F20" d="M65.807,202.929l-0.564-0.123c-1.348-0.293-3.237-1.079-4.396-1.827
		l-0.615-0.398l-27.535-74.22c-1.279-1.195-1.961-3.095-1.656-4.809l5.955-33.563c0.367-2.07,1.832-2.803,2.974-2.803
		c0.907,0,1.793,0.436,2.501,1.228c0.73,0.756,1.684,1.58,2.016,1.738l0.26,0.141l20.207,12.849
		c2.293-0.633,9.875-3.698,16.543-6.58l0.441-0.14c0.396-0.079,1.063-0.608,1.229-0.977l15.531-34.487
		c0.563-1.248,1.703-2.932,2.656-3.919l11.002-11.396c0.893-0.925,2.189-1.454,3.557-1.454c0.807,0,1.588,0.191,2.26,0.555
		l7.582,4.1c1.357,0.733,2.888,2.246,3.635,3.6l6.855,12.388c0.309,0.556,1.211,1.388,1.791,1.649l0.162,0.081l5.031,2.779
		c1.393,0.655,2.973,2.031,3.791,3.308l0.064,0.107l6.553,11.644c0.35,0.548,0.863,1.39,1.191,2.08
		c0.17,0.105,0.436,0.253,0.77,0.401l25.428,4.496l0.225,0.092c0.812,0.337,1.613,1.137,3.209,2.767
		c0.744,0.761,2.074,2.12,2.687,2.558l34.599,2.814l7.488,4.376l-5.438,8.434l-0.217,1.429l-0.74,0.058l-0.344,0.533l-1.105-0.427
		l-4.051,0.274l0.587-0.911c-0.983-0.115-2.06-0.214-2.994-0.25l6.673,41.664l-0.046,0.33c-0.261,1.838-1.664,3.752-3.339,4.551
		l-0.342,0.13l-40.145,11.535c-1.22,0.529-2.984,0.783-4.396,0.624L65.807,202.929z M63.836,197.604
		c0.561,0.283,1.254,0.567,1.832,0.75l107.41-32.938l0.565,0.124c0.086,0.018,0.274,0.049,0.587,0.049
		c0.723,0,1.444-0.164,1.783-0.326l0.344-0.13l40.059-11.51c0.262-0.182,0.568-0.582,0.701-0.907l-6.949-43.393l0.047-0.33
		c0.326-2.301,3.014-2.301,4.025-2.301c1.703,0,4.451,0.285,6.324,0.583l2.455-3.809l-2.636-1.54l-33.78-2.747
		c-1.496-0.033-2.789-1.288-5.303-3.855c-0.547-0.561-1.332-1.361-1.748-1.724l-25.217-4.457l-0.223-0.093
		c-2.65-1.099-3.111-2.147-3.256-2.639c-0.104-0.223-0.463-0.885-0.977-1.687l-0.064-0.106l-6.547-11.631
		c-0.389-0.576-1.336-1.388-1.949-1.663l-0.16-0.08l-5.031-2.781c-1.43-0.673-2.994-2.128-3.75-3.495l-6.855-12.387
		c-0.335-0.606-1.261-1.524-1.869-1.852l-7.586-4.103c-0.012-0.005-0.068-0.022-0.158-0.022c-0.188,0-0.342,0.069-0.381,0.107
		l-11,11.395c-0.596,0.614-1.457,1.885-1.806,2.663L87.191,95.257c-0.715,1.586-2.42,2.992-4.127,3.435
		c-7.408,3.199-16.551,6.971-18.486,6.971c-0.383,0-0.74-0.076-1.063-0.225l-0.261-0.143L42.477,92.082
		c-0.5-0.256-1.039-0.65-1.535-1.062l-5.555,31.305c-0.039,0.224,0.177,0.72,0.367,0.843l0.615,0.399L63.836,197.604z"/>
	<g opacity="0.5" clip-path="url(#SVGID_6_)">
		<g>
			<defs>
				<rect id="SVGID_11_" x="81.699" y="44.689" width="36.431" height="67.75"/>
			</defs>
			<clipPath id="SVGID_12_">
				<use xlink:href="#SVGID_11_"  overflow="visible"/>
			</clipPath>
			<path clip-path="url(#SVGID_12_)" fill="#231F20" d="M114.951,45.177l-13.232,14.688L88.826,85.854l-7.125,12.643
				c3.008-0.633,5.986,0.554,8.746,2.653l4.348,6.374c0,0,2.746,4.744,5.316,4.896c4.915,0.291,7.411-2.765,8.01-10.231l1.086-13.52
				l6.703-10.86l2.219-33.123L114.951,45.177z"/>
		</g>
	</g>
	<polygon clip-path="url(#SVGID_6_)" fill="#231F20" points="119.877,44.79 117.018,77.979 116.984,78.373 116.831,78.568 
		108.785,88.822 114.879,77.301 114.692,77.891 114.361,44.58 	"/>
	<polygon clip-path="url(#SVGID_6_)" fill="#231F20" points="83.938,93.731 90.711,98.286 91.256,98.652 91.363,98.854 
		98.135,111.539 88.334,101.018 88.986,101.586 81.381,98.624 	"/>
	<polygon clip-path="url(#SVGID_6_)" fill="#231F20" points="150.367,85.781 166.857,134.553 217.811,150.883 212.4,109.302 
		221.574,110.99 226.125,102.724 221.063,99.766 186.693,96.972 180.402,91.508 	"/>
	<polygon clip-path="url(#SVGID_6_)" fill="#231F20" points="138.196,64.681 138.605,73.226 138.479,72.843 143.277,84.104 
		143.4,84.395 143.363,84.615 140.313,102.194 141.549,84.395 141.635,84.905 135.712,74.193 135.584,73.811 132.777,65.73 	"/>
	<g clip-path="url(#SVGID_6_)">
		<g>
			<defs>
				<rect id="SVGID_13_" x="67.369" y="119.51" width="120.511" height="57.12"/>
			</defs>
			<clipPath id="SVGID_14_">
				<use xlink:href="#SVGID_13_"  overflow="visible"/>
			</clipPath>
			<polygon clip-path="url(#SVGID_14_)" fill="#B0C14E" points="116.85,119.508 67.373,133.988 81.854,175.017 147.42,176.626 
				187.879,160.537 149.668,135.598 			"/>
		</g>
	</g>
	<polygon clip-path="url(#SVGID_6_)" fill="#FFC942" points="117.379,125.612 118.537,130.574 128.659,133.478 129.895,137.91 
		141.018,140.401 147.002,146.797 161.131,149.676 164.752,154.302 181.609,157.721 183.219,164.357 186.551,166.68 
		189.021,167.033 191.436,170.916 195.199,173.387 202.436,178.329 208.79,189.096 216.732,188.919 224.145,161.914 
		214.438,151.501 211.614,145.676 201.906,141.439 196.045,139.285 190.081,130.85 173.666,128.731 166.725,122.674 
		152.741,121.516 148.074,116.554 126.018,116.201 105.402,117.912 102.771,123.593 	"/>
	<polygon clip-path="url(#SVGID_6_)" fill="#D39729" points="115.347,125.435 148.875,118.246 153.459,123.198 128.152,132.732 
		118.537,130.575 	"/>
	<polygon clip-path="url(#SVGID_6_)" fill="#D39729" points="177.254,158.68 193.354,148.406 198.338,138.966 188.686,130.921 
		186.57,131.618 160.989,148.948 	"/>
	<polygon clip-path="url(#SVGID_6_)" fill="#D39729" points="140.807,139.519 145.939,146.12 174.73,129.982 168.496,123.197 	"/>
	<path clip-path="url(#SVGID_6_)" fill="#231F20" d="M207.549,191.323l-6.758-11.454l-6.834-4.666l-4.135-2.715l-2.127-3.422
		l-2.035-0.291l-4.763-3.71l-1.526-4.966l-8.625-2.9l-10.771-5.341l-14.111-3.057l-5.99-6.4l-11.746-2.632l-1.258-4.517
		l-9.787-2.807l-2.213-3.784l-16.871-3.603l6.183-9.021l21.752-2.041l23.106,0.369l4.727,5.026l13.861,1.146l6.984,6.097
		l16.709,2.155l6.125,8.664l5.34,1.969l10.453,4.562l3.036,6.257l10.318,11.071l-8.173,29.768L207.549,191.323z M193.049,169.342
		l3.357,2.205l7.676,5.24l5.947,10.079l5.014-0.11l6.654-24.239l-9.096-9.759l-2.613-5.391l-8.902-3.884l-6.442-2.37l-5.802-8.205
		l-16.119-2.08l-6.9-6.021l-14.105-1.168l-4.608-4.901l-21.005-0.335l-19.458,1.826l-1.302,1.897l12.345,2.638l2.302,3.938
		l10.457,2.998l1.213,4.351l10.5,2.353l5.979,6.388l13.3,2.881l11.126,5.518l10.347,3.453l1.783,5.804l2.746,2.137l2.908,0.416
		L193.049,169.342z"/>
	<g opacity="0.5" clip-path="url(#SVGID_6_)">
		<g>
			<defs>
				<rect id="SVGID_15_" x="91.98" y="124.2" width="93.119" height="42.64"/>
			</defs>
			<clipPath id="SVGID_16_">
				<use xlink:href="#SVGID_15_"  overflow="visible"/>
			</clipPath>
			<polygon clip-path="url(#SVGID_16_)" fill="#231F20" points="91.982,126.405 108.761,132.457 117.258,139.221 134.682,145.921 
				142.994,149.944 171.152,166.838 185.096,164.961 180.201,157.921 170.289,154.502 161.533,148.67 157.275,150.014 
				149.431,147.798 141.018,140.401 129.895,137.91 128.658,133.478 118.537,130.575 117.379,125.613 103.576,124.2 			"/>
		</g>
	</g>
	<polygon clip-path="url(#SVGID_6_)" fill="#FFC942" points="190.348,201.834 142.877,154.363 133.745,153.986 125.17,149.843 
		110.732,149.567 103.574,140.525 82.598,139.671 73.146,130.261 64.809,127.972 58.111,124.836 38.021,114.809 32.96,132.188 
		24.247,132.136 23.072,213.89 23.086,213.889 23.072,214.961 	"/>
	<polygon clip-path="url(#SVGID_6_)" fill="#D39729" points="190.348,201.834 142.877,154.363 133.745,153.986 125.17,149.843 
		110.732,149.567 103.574,140.525 82.598,139.671 73.322,130.533 38.021,114.809 32.96,132.188 24.247,132.136 23.072,213.89 
		23.086,213.889 23.072,214.961 	"/>
	<polygon clip-path="url(#SVGID_6_)" fill="#FFC942" points="74.239,131.083 35.203,156.423 8.416,142.762 14.309,117.314 
		25.827,111.298 55.534,121.364 	"/>
	<polygon clip-path="url(#SVGID_6_)" fill="#FFC942" points="141.734,154.449 133.424,154.771 123.15,207.866 150.811,203.687 	"/>
	<polygon clip-path="url(#SVGID_6_)" fill="#FFC942" points="124.643,150.073 110.656,150.52 66.836,212.276 102.715,207.571 	"/>
	<polygon clip-path="url(#SVGID_6_)" fill="#FFC942" points="103.189,140.955 81.963,141.401 5.965,203.158 49.084,198.453 	"/>
	<path clip-path="url(#SVGID_6_)" fill="#231F20" d="M20.838,217.344l0.017-1.102h-0.003l0.02-2.385l1.207-83.936l9.264,0.056
		l5.291-17.012l37.754,15.425l9.156,9.116l21.129,0.862l7.141,9.019l13.881,0.263l8.598,4.157l9.535,0.394l0.606,0.606
		l50.848,50.846L20.838,217.344z M25.303,211.787l-0.006,0.792l160.117-12.565l-43.486-43.487l-8.729-0.359l-8.552-4.134
		l-14.994-0.284l-7.177-9.066l-20.823-0.848l-9.746-9.704L39.41,118.854l-4.834,15.546l-8.16-0.051L25.303,211.787z"/>
	<polygon clip-path="url(#SVGID_6_)" fill="#231F20" points="67.309,101.713 70.896,115.123 70.593,114.708 79.201,123.183 
		69.256,116.326 69.137,116.245 68.951,115.911 62.191,103.786 	"/>
</g>
<path fill="#1A1A19" d="M120.035,20.712l0.087,0.001c1.124,0.013,1.823,0.272,1.978,0.363l65.508,37.819
	c0.848,0.49,2.061,2.593,2.061,3.573v75.64c0,0.98-1.213,3.083-2.061,3.573l-65.508,37.82c-0.156,0.09-0.854,0.35-1.975,0.363h-0.09
	c-1.168,0-1.898-0.269-2.061-0.363l-65.506-37.82c-0.85-0.49-2.063-2.593-2.063-3.573v-75.64c0-0.98,1.213-3.083,2.062-3.573
	l65.507-37.819C118.137,20.981,118.867,20.712,120.035,20.712 M120.035,12.432c-2.247,0-4.495,0.489-6.199,1.473l-65.508,37.82
	c-3.41,1.97-6.203,6.805-6.203,10.744v75.64c0,3.939,2.793,8.774,6.203,10.744l65.508,37.82c1.704,0.985,3.952,1.473,6.199,1.473
	c0.063,0,0.123,0,0.184-0.001c2.188-0.025,4.362-0.514,6.021-1.472l65.507-37.82c3.411-1.97,6.202-6.805,6.202-10.744v-75.64
	c0-3.939-2.791-8.774-6.202-10.744l-65.507-37.82c-1.659-0.958-3.834-1.445-6.021-1.472
	C120.158,12.432,120.098,12.432,120.035,12.432"/>
<polygon fill="#231F20" points="102.236,126.281 74.893,132.619 100.91,122.086 "/>
</svg>
