<?xml version="1.0" encoding="utf-8"?>
<!-- Generator: Adobe Illustrator 16.0.0, SVG Export Plug-In . SVG Version: 6.00 Build 0)  -->
<!DOCTYPE svg PUBLIC "-//W3C//DTD SVG 1.1//EN" "http://www.w3.org/Graphics/SVG/1.1/DTD/svg11.dtd">
<svg version="1.1" id="Layer_1" xmlns="http://www.w3.org/2000/svg" xmlns:xlink="http://www.w3.org/1999/xlink" x="0px" y="0px"
	 width="612px" height="792px" viewBox="0 0 612 792" enable-background="new 0 0 612 792" xml:space="preserve">
<line fill="none" x1="274.63" y1="1297.837" x2="274.63" y2="-1947.76"/>
<polygon fill="#A6A8AC" points="233.965,556.157 233.965,542.476 228.377,556.157 227.871,556.157 222.262,542.476 222.262,556.157 
	220.949,556.157 220.949,540.819 222.904,540.819 228.124,553.582 233.321,540.819 235.299,540.819 235.299,556.157 "/>
<path fill="#A6A8AC" d="M252.986,556.158l-1.518-3.771h-8.117l-1.519,3.771h-1.517l6.277-15.338h1.633l6.277,15.338H252.986z
	 M247.422,542.223l-3.634,8.969h7.243L247.422,542.223z"/>
<path fill="#A6A8AC" d="M258.049,548.5c0-4.714,3.426-7.934,7.772-7.934c2.438,0,4.3,1.081,5.587,2.714l-1.104,0.713
	c-0.966-1.334-2.645-2.229-4.483-2.229c-3.587,0-6.392,2.735-6.392,6.736c0,3.955,2.805,6.737,6.392,6.737
	c1.839,0,3.518-0.896,4.483-2.229l1.127,0.689c-1.379,1.679-3.172,2.737-5.61,2.737C261.475,556.435,258.049,553.215,258.049,548.5"
	/>
<polygon fill="#A6A8AC" points="287.855,556.157 287.855,548.868 278.128,548.868 278.128,556.157 276.816,556.157 276.816,540.819 
	278.128,540.819 278.128,547.673 287.855,547.673 287.855,540.819 289.166,540.819 289.166,556.157 "/>
<path fill="#A6A8AC" d="M295.746,550.271v-9.45h1.334v9.429c0,3.104,1.633,4.989,4.645,4.989s4.645-1.886,4.645-4.989v-9.429h1.334
	v9.45c0,3.794-2.023,6.163-5.979,6.163C297.793,556.434,295.746,554.042,295.746,550.271"/>
<path fill="#A6A8AC" d="M323,556.158V540.82h5.748c2.943,0,4.623,2.069,4.623,4.483c0,2.415-1.701,4.484-4.623,4.484h-4.438v6.37
	H323z M331.99,545.304c0-1.932-1.332-3.288-3.38-3.288h-4.3v6.576h4.3C330.658,548.592,331.99,547.213,331.99,545.304"/>
<rect x="338.893" y="540.82" fill="#A6A8AC" width="1.313" height="15.338"/>
<path fill="#A6A8AC" d="M346.207,548.5c0-4.714,3.426-7.934,7.772-7.934c2.438,0,4.3,1.081,5.587,2.714l-1.104,0.713
	c-0.966-1.334-2.645-2.229-4.483-2.229c-3.587,0-6.392,2.735-6.392,6.736c0,3.955,2.805,6.737,6.392,6.737
	c1.839,0,3.518-0.896,4.483-2.229l1.127,0.689c-1.379,1.679-3.172,2.737-5.61,2.737C349.633,556.435,346.207,553.215,346.207,548.5"
	/>
<path fill="#A6A8AC" d="M364.4,548.5c0-4.714,3.426-7.934,7.771-7.934c2.438,0,4.3,1.081,5.587,2.714l-1.103,0.713
	c-0.967-1.334-2.646-2.229-4.484-2.229c-3.588,0-6.393,2.735-6.393,6.736c0,3.955,2.805,6.737,6.393,6.737
	c1.839,0,3.518-0.896,4.484-2.229l1.127,0.689c-1.381,1.679-3.174,2.737-5.611,2.737C367.826,556.435,364.4,553.215,364.4,548.5"/>
<polygon fill="#A6A8AC" points="394.205,556.157 394.205,548.868 384.478,548.868 384.478,556.157 383.166,556.157 383.166,540.819 
	384.478,540.819 384.478,547.673 394.205,547.673 394.205,540.819 395.516,540.819 395.516,556.157 "/>
<path fill="#A6A8AC" d="M402.096,550.271v-9.45h1.334v9.429c0,3.104,1.633,4.989,4.645,4.989c3.013,0,4.646-1.886,4.646-4.989
	v-9.429h1.334v9.45c0,3.794-2.022,6.163-5.979,6.163C404.143,556.434,402.096,554.042,402.096,550.271"/>
<path fill="#FFC942" d="M385.906,362.972l-63.825-36.849c-1.497-0.865-3.424-1.331-5.394-1.417
	c-0.156-0.007-0.314-0.017-0.473-0.019c-2.249-0.026-4.514,0.449-6.221,1.436l-63.825,36.849c-3.323,1.919-6.044,6.63-6.044,10.468
	v73.698c0,3.839,2.721,8.549,6.044,10.468l63.825,36.85c1.707,0.985,3.972,1.462,6.221,1.435c0.158-0.002,0.316-0.011,0.473-0.018
	c1.97-0.085,3.896-0.553,5.394-1.417l63.825-36.85c3.324-1.919,6.043-6.629,6.043-10.468v-73.698
	C391.949,369.602,389.23,364.891,385.906,362.972"/>
<path fill="#D39729" d="M387.747,458.853c3.411-1.97,6.202-6.804,6.202-10.744v-75.64c0-3.939-2.791-8.774-6.202-10.743
	l-65.507-37.821c-1.537-0.887-3.515-1.366-5.535-1.453v175.676c2.021-0.089,3.998-0.567,5.535-1.454L387.747,458.853z"/>
<g opacity="0.4">
	<g>
		<defs>
			<rect id="SVGID_1_" x="238.13" y="322.43" width="155.82" height="175.721"/>
		</defs>
		<clipPath id="SVGID_2_">
			<use xlink:href="#SVGID_1_"  overflow="visible"/>
		</clipPath>
		<path clip-path="url(#SVGID_2_)" fill="#FFFFFF" d="M316.037,337.852l62.732,36.219v72.437l-62.732,36.219l-62.731-36.218V374.07
			L316.037,337.852 M316.036,322.432c-2.248,0-4.496,0.489-6.201,1.473l-65.507,37.82c-3.411,1.97-6.203,6.805-6.203,10.744v75.64
			c0,3.939,2.792,8.774,6.203,10.744l65.507,37.82c1.705,0.985,3.953,1.473,6.201,1.473c0.062,0,0.122,0,0.184-0.001
			c2.187-0.025,4.361-0.514,6.021-1.472l65.507-37.82c3.411-1.97,6.202-6.805,6.202-10.744v-75.64c0-3.939-2.791-8.774-6.202-10.744
			l-65.507-37.82c-1.659-0.958-3.834-1.445-6.021-1.472C316.158,322.432,316.097,322.432,316.036,322.432"/>
	</g>
</g>
<g>
	<defs>
		<path id="SVGID_3_" d="M309.835,322.905l-65.507,37.818c-3.412,1.972-6.203,6.805-6.203,10.745v75.64
			c0,3.938,2.791,8.773,6.203,10.743l65.507,37.82c1.752,1.012,4.076,1.5,6.386,1.473c2.187-0.027,4.361-0.516,6.02-1.473
			l65.507-37.82c3.412-1.97,6.203-6.805,6.203-10.743v-75.64c0-3.94-2.791-8.773-6.203-10.745l-65.507-37.818
			c-1.658-0.96-3.833-1.448-6.02-1.473c-0.064-0.001-0.129-0.001-0.193-0.001C313.783,321.432,311.539,321.92,309.835,322.905"/>
	</defs>
	<clipPath id="SVGID_4_">
		<use xlink:href="#SVGID_3_"  overflow="visible"/>
	</clipPath>
	<g clip-path="url(#SVGID_4_)">
		<g>
			<defs>
				<rect id="SVGID_5_" x="338.08" y="495.04" width="10.74" height="11.57"/>
			</defs>
			<clipPath id="SVGID_6_">
				<use xlink:href="#SVGID_5_"  overflow="visible"/>
			</clipPath>
			<polygon clip-path="url(#SVGID_6_)" fill="#FFC942" points="338.496,495.868 346.758,495.042 348.822,503.303 338.084,506.608 
							"/>
		</g>
	</g>
	<g clip-path="url(#SVGID_4_)">
		<g>
			<defs>
				<rect id="SVGID_7_" x="219.07" y="413.98" width="167.279" height="110.979"/>
			</defs>
			<clipPath id="SVGID_8_">
				<use xlink:href="#SVGID_7_"  overflow="visible"/>
			</clipPath>
			<polygon clip-path="url(#SVGID_8_)" fill="#FFC942" points="386.348,511.834 338.877,464.363 329.745,463.986 321.17,459.843 
				306.732,459.567 299.574,450.525 278.598,449.671 269.146,440.261 260.809,437.972 254.111,431.535 234.021,420.408 
				233.218,413.979 228.96,442.188 220.247,442.136 219.072,523.89 219.087,523.889 219.072,524.961 			"/>
		</g>
	</g>
	<path clip-path="url(#SVGID_4_)" fill="#FFFFFF" d="M311.91,354.396c0.426,0,0.848,0.094,1.209,0.288l7.584,4.102
		c0.98,0.529,2.213,1.75,2.752,2.725l6.855,12.388c0.539,0.977,1.801,2.138,2.816,2.595l5.102,2.818
		c1.016,0.457,2.328,1.588,2.93,2.527l6.582,11.696c0.602,0.938,1.148,1.924,1.223,2.2c0.072,0.277,0.967,0.848,1.996,1.274
		l25.443,4.498c1.021,0.424,5.118,5.465,6.266,5.465c0.008,0,0.017-0.001,0.017-0.001l34.379,2.794l5.062,2.958l-4.516,7.005
		c-0.511-0.197-4.83-0.829-7.368-0.829c-1.052,0-1.799,0.109-1.84,0.402l6.967,43.505c-0.155,1.104-1.097,2.388-2.103,2.869
		l-40.301,11.578c-0.717,0.343-1.785,0.542-2.735,0.542c-0.382,0-0.744-0.032-1.056-0.099l-107.463,32.951
		c-1.088-0.236-2.73-0.92-3.666-1.524l-27.49-74.102c-0.937-0.605-1.536-1.986-1.342-3.084l5.955-33.564
		c0.114-0.644,0.42-0.98,0.799-0.98c0.27,0,0.576,0.168,0.879,0.517c0,0,1.701,1.778,2.714,2.246l20.88,13.275
		c0.031,0.014,0.078,0.021,0.139,0.021c1.906,0,17.791-6.866,17.791-6.866c1.094-0.219,2.35-1.219,2.809-2.236l15.531-34.487
		c0.457-1.016,1.457-2.489,2.23-3.291l11.003-11.396C310.432,354.671,311.178,354.396,311.91,354.396 M417.609,419.729
		c0.074,0.028,0.068,0.047-0.035,0.055L417.609,419.729 M311.91,347.795L311.91,347.795c-2.553,0-5.001,1.019-6.717,2.797
		l-11.003,11.394c-1.295,1.343-2.733,3.467-3.5,5.166l-15.054,33.425c-5.002,2.159-10.928,4.591-14.09,5.736l-18.445-11.728
		l-0.373-0.238l-0.074-0.034c-0.252-0.204-0.67-0.59-0.986-0.912c-1.543-1.684-3.559-2.608-5.701-2.608
		c-3.625,0-6.627,2.643-7.299,6.429l-5.955,33.565c-0.494,2.782,0.367,5.739,2.164,7.908l26.979,72.726l0.763,2.055l1.841,1.191
		c1.592,1.031,3.998,2.031,5.851,2.434l1.687,0.366l1.65-0.506l106.207-32.567c0.125,0.003,0.25,0.005,0.376,0.005
		c1.714,0,3.478-0.327,4.946-0.91l39.912-11.467l0.529-0.153l0.497-0.236c2.998-1.434,5.325-4.608,5.791-7.898l0.14-0.986
		l-0.158-0.983l-5.648-35.272l0.475-0.032l3.535,1.361l2.409-3.736c0.399-0.462,0.734-0.98,0.994-1.543l4.022-6.239l3.736-5.797
		l-5.955-3.48l-5.061-2.958l-1.299-0.758l-1.497-0.122l-32.638-2.652c-0.455-0.444-0.983-0.983-1.362-1.371
		c-1.802-1.84-2.99-3.057-4.667-3.752l-0.668-0.277l-0.713-0.126l-23.729-4.195c-0.127-0.211-0.267-0.435-0.417-0.673l-6.494-11.538
		l-0.092-0.165l-0.104-0.16c-1.223-1.908-3.389-3.817-5.469-4.839l-4.926-2.722l-0.236-0.131l-0.031-0.015
		c-0.027-0.022-0.055-0.049-0.08-0.072l-6.741-12.183c-1.144-2.067-3.31-4.213-5.388-5.337l-7.584-4.1
		C314.948,348.17,313.444,347.795,311.91,347.795"/>
	<path clip-path="url(#SVGID_4_)" fill="#B0C14E" d="M376.402,401.508l-25.443-4.498c-1.029-0.427-1.924-0.997-1.997-1.275
		c-0.073-0.276-0.62-1.262-1.222-2.199l-6.582-11.696c-0.602-0.938-1.913-2.07-2.93-2.528l-5.101-2.817
		c-1.017-0.457-2.278-1.618-2.817-2.595l-6.855-12.388c-0.539-0.975-1.771-2.196-2.752-2.726l-7.584-4.101
		c-0.98-0.529-2.402-0.31-3.178,0.492l-11.002,11.396c-0.774,0.802-1.772,2.274-2.23,3.292l-15.531,34.486
		c-0.459,1.017-1.716,2.018-2.809,2.236l-4.542,0.908c-1.093,0.219-2.573,1.076-3.308,1.915c0,0-9.068,4.488-10.08,4.021
		l-20.879-13.275c-1.012-0.468-2.426-1.528-3.157-2.369l0.442,0.123c-0.732-0.842-1.482-0.633-1.678,0.464l-5.955,33.564
		c-0.195,1.098,0.406,2.479,1.342,3.083l27.49,74.103c0.936,0.604,2.577,1.288,3.666,1.524l107.463-32.952
		c1.088,0.236,2.786,0.038,3.791-0.442l40.301-11.579c1.006-0.479,1.947-1.765,2.104-2.868l-6.969-43.505
		c0.156-1.104,10.285,1.613,9.174,1.688l3.77-8.188l-3.767-2.615l-34.884-3.215C381.581,407.047,377.432,401.935,376.402,401.508"/>
	<path clip-path="url(#SVGID_4_)" fill="#231F20" d="M261.807,512.929l-0.564-0.123c-1.348-0.293-3.237-1.079-4.396-1.827
		l-0.615-0.398l-27.535-74.22c-1.279-1.195-1.961-3.095-1.656-4.809l5.955-33.563c0.367-2.07,1.832-2.803,2.974-2.803
		c0.907,0,1.793,0.436,2.501,1.228c0.73,0.756,1.684,1.58,2.016,1.738l0.26,0.141l20.207,12.849
		c2.293-0.633,9.875-3.698,16.543-6.58l0.442-0.14c0.396-0.079,1.062-0.608,1.228-0.977l15.531-34.487
		c0.563-1.248,1.703-2.932,2.657-3.919l11.001-11.396c0.893-0.925,2.189-1.454,3.557-1.454c0.808,0,1.588,0.191,2.26,0.555
		l7.583,4.1c1.356,0.733,2.887,2.246,3.635,3.6l6.854,12.388c0.309,0.556,1.211,1.388,1.791,1.649l0.162,0.081l5.031,2.779
		c1.393,0.655,2.973,2.031,3.791,3.308l0.064,0.107l6.553,11.644c0.35,0.548,0.863,1.39,1.191,2.08
		c0.17,0.105,0.436,0.253,0.77,0.401l25.428,4.496l0.225,0.092c0.812,0.337,1.613,1.137,3.209,2.767
		c0.744,0.761,2.074,2.12,2.687,2.558l34.599,2.814l7.488,4.376l-5.438,8.434l-0.217,1.429l-0.74,0.058l-0.344,0.533l-1.105-0.427
		l-4.051,0.274l0.587-0.911c-0.983-0.115-2.06-0.214-2.994-0.25l6.674,41.664l-0.047,0.33c-0.261,1.838-1.664,3.752-3.338,4.551
		l-0.343,0.13l-40.145,11.535c-1.22,0.529-2.984,0.783-4.396,0.624L261.807,512.929z M259.836,507.604
		c0.561,0.283,1.254,0.567,1.832,0.75l107.41-32.938l0.565,0.124c0.086,0.018,0.274,0.049,0.587,0.049
		c0.723,0,1.444-0.164,1.783-0.326l0.344-0.13l40.059-11.51c0.262-0.182,0.568-0.582,0.701-0.907l-6.949-43.393l0.047-0.33
		c0.326-2.301,3.014-2.301,4.025-2.301c1.703,0,4.451,0.285,6.324,0.583l2.455-3.809l-2.636-1.54l-33.779-2.747
		c-1.497-0.033-2.79-1.288-5.304-3.855c-0.547-0.561-1.331-1.361-1.748-1.724l-25.216-4.457l-0.224-0.093
		c-2.65-1.099-3.111-2.147-3.256-2.639c-0.104-0.223-0.463-0.885-0.976-1.687l-0.065-0.106l-6.546-11.631
		c-0.39-0.576-1.337-1.388-1.95-1.663l-0.16-0.08l-5.031-2.781c-1.43-0.673-2.993-2.128-3.75-3.495l-6.855-12.387
		c-0.335-0.606-1.261-1.524-1.869-1.852l-7.586-4.103c-0.012-0.005-0.068-0.022-0.158-0.022c-0.188,0-0.342,0.069-0.381,0.107
		l-11,11.395c-0.596,0.614-1.457,1.885-1.806,2.663l-15.532,34.487c-0.715,1.586-2.42,2.992-4.127,3.435
		c-7.408,3.199-16.55,6.971-18.486,6.971c-0.383,0-0.74-0.076-1.063-0.225l-0.261-0.143l-20.778-13.213
		c-0.5-0.256-1.039-0.65-1.535-1.062l-5.554,31.305c-0.04,0.224,0.176,0.72,0.366,0.843l0.615,0.399L259.836,507.604z"/>
	<g opacity="0.5" clip-path="url(#SVGID_4_)">
		<g>
			<defs>
				<rect id="SVGID_9_" x="277.7" y="354.689" width="36.43" height="67.75"/>
			</defs>
			<clipPath id="SVGID_10_">
				<use xlink:href="#SVGID_9_"  overflow="visible"/>
			</clipPath>
			<path clip-path="url(#SVGID_10_)" fill="#231F20" d="M310.951,355.177l-13.232,14.688l-12.893,25.989l-7.125,12.643
				c3.008-0.633,5.986,0.554,8.747,2.653l4.347,6.374c0,0,2.746,4.744,5.316,4.896c4.915,0.291,7.411-2.765,8.01-10.231l1.086-13.52
				l6.703-10.86l2.219-33.123L310.951,355.177z"/>
		</g>
	</g>
	<polygon clip-path="url(#SVGID_4_)" fill="#231F20" points="315.877,354.79 313.018,387.979 312.984,388.373 312.831,388.568 
		304.785,398.822 310.879,387.301 310.692,387.891 310.361,354.58 	"/>
	<polygon clip-path="url(#SVGID_4_)" fill="#231F20" points="279.938,403.731 286.711,408.286 287.256,408.652 287.363,408.854 
		294.135,421.539 284.334,411.018 284.986,411.586 277.381,408.624 	"/>
	<polygon clip-path="url(#SVGID_4_)" fill="#231F20" points="346.367,395.781 362.857,444.553 413.811,460.883 408.4,419.302 
		417.574,420.99 422.125,412.724 417.063,409.766 382.693,406.972 376.402,401.508 	"/>
	<polygon clip-path="url(#SVGID_4_)" fill="#231F20" points="334.196,374.681 334.605,383.226 334.479,382.843 339.277,394.104 
		339.4,394.395 339.363,394.615 336.313,412.194 337.55,394.395 337.635,394.905 331.712,384.193 331.584,383.811 328.777,375.73 	
		"/>
	<g clip-path="url(#SVGID_4_)">
		<g>
			<defs>
				<rect id="SVGID_11_" x="263.37" y="429.51" width="120.51" height="57.12"/>
			</defs>
			<clipPath id="SVGID_12_">
				<use xlink:href="#SVGID_11_"  overflow="visible"/>
			</clipPath>
			<polygon clip-path="url(#SVGID_12_)" fill="#B0C14E" points="312.85,429.508 263.373,443.988 277.854,485.017 343.42,486.626 
				383.879,470.537 345.668,445.598 			"/>
		</g>
	</g>
	<polygon clip-path="url(#SVGID_4_)" fill="#FFC942" points="313.379,435.612 314.537,440.574 324.659,443.478 325.895,447.91 
		337.018,450.401 343.002,456.797 357.131,459.676 360.751,464.302 377.609,467.721 379.219,474.357 382.551,476.68 
		385.021,477.033 387.436,480.916 391.199,483.387 398.436,488.329 404.79,499.096 412.732,498.919 420.145,471.914 
		410.438,461.501 407.614,455.676 397.906,451.439 392.045,449.285 386.081,440.85 369.666,438.731 362.725,432.674 
		348.741,431.516 344.074,426.554 322.018,426.201 301.402,427.912 298.771,433.593 	"/>
	<polygon clip-path="url(#SVGID_4_)" fill="#D39729" points="311.347,435.435 344.875,428.246 349.459,433.198 324.152,442.732 
		314.537,440.575 	"/>
	<polygon clip-path="url(#SVGID_4_)" fill="#D39729" points="373.254,468.68 389.354,458.406 394.338,448.966 384.686,440.921 
		382.57,441.618 356.989,458.948 	"/>
	<polygon clip-path="url(#SVGID_4_)" fill="#D39729" points="336.807,449.519 341.939,456.12 370.73,439.982 364.496,433.197 	"/>
	<path clip-path="url(#SVGID_4_)" fill="#231F20" d="M403.55,501.323l-6.759-11.454l-6.834-4.666l-4.135-2.715l-2.127-3.422
		l-2.035-0.291l-4.763-3.71l-1.526-4.966l-8.625-2.9l-10.771-5.341l-14.111-3.057l-5.99-6.4l-11.746-2.632l-1.258-4.517
		l-9.787-2.807l-2.213-3.784l-16.871-3.603l6.183-9.021l21.752-2.041l23.106,0.369l4.727,5.026l13.861,1.146l6.984,6.097
		l16.709,2.155l6.125,8.664l5.34,1.969l10.453,4.562l3.036,6.257l10.318,11.071l-8.173,29.768L403.55,501.323z M389.049,479.342
		l3.357,2.205l7.676,5.24l5.947,10.079l5.014-0.11l6.654-24.239l-9.095-9.759l-2.614-5.391l-8.902-3.884l-6.442-2.37l-5.802-8.205
		l-16.119-2.08l-6.9-6.021l-14.105-1.168l-4.608-4.901l-21.004-0.335l-19.459,1.826l-1.302,1.897l12.345,2.638l2.302,3.938
		l10.457,2.998l1.213,4.351l10.5,2.353l5.979,6.388l13.3,2.881l11.126,5.518l10.347,3.453l1.783,5.804l2.746,2.137l2.908,0.416
		L389.049,479.342z"/>
	<g opacity="0.5" clip-path="url(#SVGID_4_)">
		<g>
			<defs>
				<rect id="SVGID_13_" x="287.98" y="434.2" width="93.119" height="42.64"/>
			</defs>
			<clipPath id="SVGID_14_">
				<use xlink:href="#SVGID_13_"  overflow="visible"/>
			</clipPath>
			<polygon clip-path="url(#SVGID_14_)" fill="#231F20" points="287.982,436.405 304.761,442.457 313.258,449.221 330.682,455.921 
				338.994,459.944 367.152,476.838 381.096,474.961 376.201,467.921 366.289,464.502 357.533,458.67 353.275,460.014 
				345.431,457.798 337.018,450.401 325.895,447.91 324.658,443.478 314.537,440.575 313.379,435.613 299.576,434.2 			"/>
		</g>
	</g>
	<polygon clip-path="url(#SVGID_4_)" fill="#FFC942" points="386.348,511.834 338.877,464.363 329.745,463.986 321.17,459.843 
		306.732,459.567 299.574,450.525 278.598,449.671 269.146,440.261 260.809,437.972 254.111,434.836 234.021,424.809 
		228.96,442.188 220.247,442.136 219.072,523.89 219.087,523.889 219.072,524.961 	"/>
	<polygon clip-path="url(#SVGID_4_)" fill="#D39729" points="386.348,511.834 338.877,464.363 329.745,463.986 321.17,459.843 
		306.732,459.567 299.574,450.525 278.598,449.671 269.322,440.533 234.021,424.809 228.96,442.188 220.247,442.136 219.072,523.89 
		219.087,523.889 219.072,524.961 	"/>
	<polygon clip-path="url(#SVGID_4_)" fill="#FFC942" points="270.239,441.083 231.203,466.423 204.416,452.762 210.309,427.314 
		221.827,421.298 251.534,431.364 	"/>
	<polygon clip-path="url(#SVGID_4_)" fill="#FFC942" points="337.734,464.449 329.424,464.771 319.151,517.866 346.811,513.687 	"/>
	<polygon clip-path="url(#SVGID_4_)" fill="#FFC942" points="320.643,460.073 306.656,460.52 262.837,522.276 298.715,517.571 	"/>
	<polygon clip-path="url(#SVGID_4_)" fill="#FFC942" points="299.189,450.955 277.963,451.401 201.965,513.158 245.083,508.453 	"/>
	<path clip-path="url(#SVGID_4_)" fill="#231F20" d="M216.838,527.344l0.017-1.102h-0.002l0.019-2.385l1.207-83.936l9.264,0.056
		l5.291-17.012l37.754,15.425l9.156,9.116l21.129,0.862l7.141,9.019l13.881,0.263l8.598,4.157l9.535,0.394l0.606,0.606
		l50.848,50.846L216.838,527.344z M221.304,521.787l-0.007,0.792l160.117-12.565l-43.486-43.487l-8.729-0.359l-8.552-4.134
		l-14.994-0.284l-7.177-9.066l-20.823-0.848l-9.746-9.704l-32.496-13.277l-4.834,15.546l-8.16-0.051L221.304,521.787z"/>
	<polygon clip-path="url(#SVGID_4_)" fill="#231F20" points="263.309,411.713 266.896,425.123 266.593,424.708 275.201,433.183 
		265.256,426.326 265.137,426.245 264.951,425.911 258.191,413.786 	"/>
</g>
<path fill="#1A1A19" d="M316.036,330.712l0.086,0.001c1.124,0.013,1.823,0.272,1.978,0.363l65.508,37.819
	c0.848,0.49,2.062,2.593,2.062,3.573v75.64c0,0.98-1.214,3.083-2.062,3.573l-65.508,37.82c-0.156,0.09-0.854,0.35-1.976,0.363
	h-0.088c-1.169,0-1.898-0.269-2.062-0.363l-65.506-37.82c-0.849-0.49-2.063-2.593-2.063-3.573v-75.64
	c0-0.98,1.214-3.083,2.062-3.573l65.507-37.819C314.138,330.981,314.867,330.712,316.036,330.712 M316.036,322.432
	c-2.248,0-4.496,0.489-6.201,1.473l-65.507,37.82c-3.411,1.97-6.203,6.805-6.203,10.744v75.64c0,3.939,2.792,8.774,6.203,10.744
	l65.507,37.82c1.705,0.985,3.953,1.473,6.201,1.473c0.062,0,0.122,0,0.184-0.001c2.187-0.025,4.361-0.514,6.021-1.472l65.507-37.82
	c3.411-1.97,6.202-6.805,6.202-10.744v-75.64c0-3.939-2.791-8.774-6.202-10.744l-65.507-37.82c-1.659-0.958-3.834-1.445-6.021-1.472
	C316.158,322.432,316.098,322.432,316.036,322.432"/>
<polygon fill="#231F20" points="298.237,436.281 270.893,442.619 296.91,432.086 "/>
</svg>
