<?xml version="1.0" encoding="utf-8"?>
<!-- Generator: Adobe Illustrator 16.0.0, SVG Export Plug-In . SVG Version: 6.00 Build 0)  -->
<!DOCTYPE svg PUBLIC "-//W3C//DTD SVG 1.1//EN" "http://www.w3.org/Graphics/SVG/1.1/DTD/svg11.dtd">
<svg version="1.1" id="Layer_1" xmlns="http://www.w3.org/2000/svg" xmlns:xlink="http://www.w3.org/1999/xlink" x="0px" y="0px"
	 width="240px" height="195px" viewBox="0 0 240 195" enable-background="new 0 0 240 195" xml:space="preserve">
<g>
	<g>
		<g>
			<defs>
				<path id="SVGID_1_" d="M300.655,53.723c2.09-3.329,2.297-8.896,0.46-12.368"/>
			</defs>
			<clipPath id="SVGID_2_">
				<use xlink:href="#SVGID_1_"  overflow="visible"/>
			</clipPath>
		</g>
	</g>
</g>
<path fill="#A1A7D4" d="M195.135,50.929l-64.76-37.391c-1.52-0.877-3.475-1.35-5.473-1.437c-0.16-0.007-0.32-0.016-0.48-0.019
	c-2.283-0.026-4.58,0.455-6.313,1.455L53.35,50.929c-3.373,1.946-6.133,6.727-6.133,10.621v74.779c0,3.895,2.76,8.675,6.133,10.621
	l64.76,37.39c1.732,1,4.029,1.482,6.313,1.455c0.16-0.002,0.32-0.011,0.48-0.018c1.998-0.087,3.953-0.56,5.473-1.438l64.76-37.39
	c3.373-1.946,6.133-6.727,6.133-10.621V61.55C201.268,57.655,198.508,52.875,195.135,50.929"/>
<g opacity="0.4">
	<g>
		<defs>
			<rect id="SVGID_3_" x="124.9" y="12.1" width="76.369" height="173.681"/>
		</defs>
		<clipPath id="SVGID_4_">
			<use xlink:href="#SVGID_3_"  overflow="visible"/>
		</clipPath>
		<path clip-path="url(#SVGID_4_)" fill="#646CB2" d="M195.135,146.95c3.373-1.947,6.133-6.727,6.133-10.621v-74.78
			c0-3.894-2.76-8.674-6.133-10.621l-64.76-37.39c-1.52-0.877-3.475-1.35-5.473-1.437v173.676c1.998-0.087,3.953-0.561,5.473-1.438
			L195.135,146.95z"/>
	</g>
</g>
<g opacity="0.4">
	<g>
		<defs>
			<rect id="SVGID_5_" x="46.33" y="11.08" width="155.82" height="175.72"/>
		</defs>
		<clipPath id="SVGID_6_">
			<use xlink:href="#SVGID_5_"  overflow="visible"/>
		</clipPath>
		<path clip-path="url(#SVGID_6_)" fill="#FFFFFF" d="M124.241,26.502l62.731,36.22v72.436l-62.731,36.218L61.51,135.157V62.721
			L124.241,26.502 M124.239,11.082c-2.248,0-4.495,0.489-6.2,1.474L52.531,50.375c-3.41,1.971-6.201,6.805-6.201,10.744v75.641
			c0,3.938,2.791,8.773,6.201,10.743l65.508,37.82c1.705,0.984,3.953,1.474,6.201,1.474c0.063,0,0.123,0,0.184-0.002
			c2.188-0.025,4.361-0.514,6.021-1.472l65.506-37.82c3.412-1.97,6.203-6.805,6.203-10.743V61.119c0-3.939-2.791-8.773-6.203-10.744
			l-65.506-37.819c-1.66-0.958-3.834-1.446-6.021-1.473C124.363,11.082,124.301,11.082,124.239,11.082"/>
	</g>
</g>
<g>
	<defs>
		<path id="SVGID_7_" d="M118.039,12.556l-65.508,37.82c-3.409,1.97-6.2,6.803-6.2,10.744v75.639c0,3.941,2.791,8.774,6.2,10.744
			l65.508,37.82c1.752,1.013,4.074,1.5,6.385,1.472c2.188-0.023,4.361-0.515,6.021-1.472l65.506-37.82
			c3.41-1.97,6.203-6.803,6.203-10.744V61.12c0-3.941-2.793-8.774-6.203-10.744l-65.506-37.82c-1.66-0.959-3.834-1.446-6.021-1.472
			c-0.064-0.001-0.128-0.001-0.191-0.001C121.986,11.083,119.742,11.572,118.039,12.556"/>
	</defs>
	<clipPath id="SVGID_8_">
		<use xlink:href="#SVGID_7_"  overflow="visible"/>
	</clipPath>
	<path clip-path="url(#SVGID_8_)" fill="#FFFFFF" d="M75.57,85.097c0.975-1.48,3.152-3.06,4.863-3.526l6.881-1.876l14.647-17.218
		c1.429-1.052,14.378-5.324,14.378-5.324l7.547-6.519c1.342-1.159,3.584-1.239,5.006-0.18l20.763,21.493
		c0,0,14.397,5.567,15.632,6.841l26.338,30.385l35.223,85.006l-203.619,4.358L59.57,109.29L75.57,85.097z"/>
	<path clip-path="url(#SVGID_8_)" fill="#FFFFFF" d="M126.518,49.709c0.854,0,1.705,0.246,2.375,0.745l20.763,21.493
		c0,0,14.397,5.568,15.632,6.841l26.338,30.385l35.223,85.006l-203.618,4.358l36.341-89.248l15.998-24.191
		c0.977-1.481,3.154-3.062,4.865-3.527l6.88-1.876l14.649-17.217c1.428-1.053,14.377-5.325,14.377-5.325l7.547-6.519
		C124.598,50.021,125.559,49.709,126.518,49.709 M126.518,43.361c-2.528,0-4.936,0.876-6.781,2.468l-6.591,5.694
		c-12.796,4.256-14.243,5.322-14.949,5.843l-0.593,0.437l-0.477,0.561L83.75,74.086l-4.986,1.359
		c-3.185,0.869-6.678,3.402-8.495,6.16l-15.992,24.183l-0.347,0.525l-0.238,0.582L17.35,196.143l-3.643,8.947l9.658-0.207
		l203.617-4.356l9.283-0.199l-3.555-8.578l-35.222-85.006l-0.394-0.951l-0.674-0.776L170.084,74.63l-0.115-0.134l-0.123-0.126
		c-0.903-0.932-2.131-2.199-16.594-7.837l-19.795-20.489l-0.357-0.371l-0.414-0.308C130.951,44.073,128.762,43.361,126.518,43.361"
		/>
	<polygon clip-path="url(#SVGID_8_)" fill="#669DD4" points="87.314,79.693 105.234,90.296 118.402,112.775 128.484,130.114 
		127.476,145.977 144.988,172.658 149.816,167.317 215.962,130.761 191.625,109.173 165.287,78.789 149.656,71.946 128.892,50.455 
		123.887,50.634 116.34,57.151 101.962,62.477 	"/>
	<polygon clip-path="url(#SVGID_8_)" fill="#669DD4" points="81.148,81.303 101.441,113.79 109.976,157.611 91.807,149.82 
		69.336,115.978 60.022,111.161 76.974,84.515 	"/>
	<g clip-path="url(#SVGID_8_)">
		<g>
			<defs>
				<rect id="SVGID_9_" x="103.71" y="56.41" width="26.25" height="42.56"/>
			</defs>
			<clipPath id="SVGID_10_">
				<use xlink:href="#SVGID_9_"  overflow="visible"/>
			</clipPath>
			<polygon clip-path="url(#SVGID_10_)" fill="#669DD4" points="103.713,61.471 109.601,78.215 117.438,82.908 129.964,98.966 
				124.068,78.116 123.861,69.902 117.438,56.414 			"/>
		</g>
	</g>
	<g clip-path="url(#SVGID_8_)">
		<g>
			<defs>
				<rect id="SVGID_11_" x="134.9" y="73.76" width="32.34" height="92.801"/>
			</defs>
			<clipPath id="SVGID_12_">
				<use xlink:href="#SVGID_11_"  overflow="visible"/>
			</clipPath>
			<polygon clip-path="url(#SVGID_12_)" fill="#669DD4" points="150.744,73.764 134.902,110.724 147.491,166.564 167.236,138.895 
				145.416,112.487 			"/>
		</g>
	</g>
	<polygon clip-path="url(#SVGID_8_)" fill="#FFFFFF" points="61.918,114.527 80.086,87.554 91.164,82.736 105.294,66.358 
		121.27,61.06 118.861,56.002 103.207,62.023 85.965,81.303 77.916,83.459 58.693,110.266 	"/>
	<polygon clip-path="url(#SVGID_8_)" fill="#FFFFFF" points="157.046,88.9 165.77,140.911 186.166,122.41 195.422,111.31 
		165.287,78.788 	"/>
	<polygon clip-path="url(#SVGID_8_)" fill="#FFFFFF" points="125.184,48.327 116.34,57.151 122.623,70.406 124.345,78.116 
		126.477,66.713 	"/>
	<path clip-path="url(#SVGID_8_)" fill="#191818" d="M31.219,189.778l26.374-81.441l16.161-24.44
		c1.264-1.917,3.89-3.821,6.107-4.426l6.231-1.699l14.376-16.896l0.203-0.15c1.445-1.064,9.566-3.845,14.572-5.503l7.221-6.234
		c1.086-0.937,2.525-1.454,4.053-1.454c1.352,0,2.656,0.418,3.675,1.176l0.265,0.233l20.43,21.148
		c9.57,3.711,14.939,6.128,15.963,7.183l0.083,0.09l26.53,30.608l36.793,77.305L31.219,189.778z M61.549,110.242l-24.303,75.046
		l186.192-4.211l-33.651-70.702L163.76,80.347c-1.254-0.863-8.625-3.948-14.891-6.371l-0.445-0.172l-20.942-21.679
		c-0.599-0.354-1.667-0.28-2.173,0.156l-7.875,6.801l-0.412,0.137c-5.729,1.889-12.184,4.184-13.63,4.937l-14.856,17.46
		l-7.529,2.055c-1.205,0.328-2.932,1.58-3.619,2.623L61.549,110.242z"/>
	<path clip-path="url(#SVGID_8_)" fill="#191818" d="M106.77,139.69c-1.026-1.447-3.258-2.95-4.984-3.357l-6.939-1.638
		l-15.234-16.701c-1.463-1.002-14.553-4.825-14.553-4.825l-12.676-15.88c-1.383-1.111-15.121,2.743-16.506,3.852l-3.603,27.965
		c0,0-14.197,6.062-15.388,7.377l-25.272,31.276l-33.786,42.187l192.651-2.295l-26.886-44.334L106.77,139.69z"/>
	<path clip-path="url(#SVGID_8_)" fill="#191818" d="M150.305,154.347c0.536-1.69,2.203-3.802,3.723-4.717l6.109-3.675l9.418-20.551
		c1.088-1.401,14.586-7.668,14.586-7.668l11.553-17.88c0.977-1.479,10.172-2.834,11.828-2.199l10.504,23.896
		c0,0,15.369,1.444,16.904,2.334l33.604,22.081l45.041,29.876l-184.176,56.554l12.086-50.42L150.305,154.347z"/>
	<polygon clip-path="url(#SVGID_8_)" fill="#191818" points="119.004,56.918 122.277,69.868 114.539,58.98 	"/>
	<polygon clip-path="url(#SVGID_8_)" fill="#191818" points="167.391,79.583 157.046,89.038 163.486,76.591 	"/>
	<polygon clip-path="url(#SVGID_8_)" fill="#191818" points="88.576,77.17 105.621,89.799 86.127,81.436 	"/>
	<polygon clip-path="url(#SVGID_8_)" fill="#191818" points="152.762,73.105 136.596,106.704 148.199,71.27 	"/>
</g>
<path fill="#1A1A19" d="M124.239,19.362l0.087,0.001c1.124,0.013,1.822,0.272,1.979,0.363l65.506,37.819
	c0.849,0.49,2.064,2.595,2.064,3.573v75.64c0,0.98-1.216,3.083-2.064,3.573l-65.506,37.821c-0.156,0.09-0.854,0.349-1.977,0.362
	h-0.088c-1.168,0-1.897-0.269-2.061-0.363l-65.507-37.82c-0.849-0.49-2.063-2.593-2.063-3.573v-75.64
	c0-0.979,1.215-3.083,2.063-3.573l65.507-37.819C122.343,19.632,123.072,19.362,124.239,19.362 M124.239,11.082
	c-2.248,0-4.495,0.489-6.2,1.473l-65.508,37.82c-3.41,1.97-6.201,6.805-6.201,10.744v75.64c0,3.94,2.791,8.774,6.201,10.744
	l65.508,37.82c1.705,0.985,3.953,1.473,6.201,1.473c0.063,0,0.123,0,0.184-0.001c2.188-0.025,4.361-0.514,6.021-1.472l65.506-37.82
	c3.412-1.97,6.203-6.804,6.203-10.744v-75.64c0-3.939-2.791-8.774-6.203-10.744l-65.506-37.82c-1.66-0.958-3.834-1.445-6.021-1.472
	C124.363,11.082,124.301,11.082,124.239,11.082"/>
</svg>
