<?xml version="1.0" encoding="utf-8"?>
<!-- Generator: Adobe Illustrator 16.0.0, SVG Export Plug-In . SVG Version: 6.00 Build 0)  -->
<!DOCTYPE svg PUBLIC "-//W3C//DTD SVG 1.1//EN" "http://www.w3.org/Graphics/SVG/1.1/DTD/svg11.dtd">
<svg version="1.1" id="Layer_1" xmlns="http://www.w3.org/2000/svg" xmlns:xlink="http://www.w3.org/1999/xlink" x="0px" y="0px"
	 width="240px" height="195px" viewBox="0 0 240 195" enable-background="new 0 0 240 195" xml:space="preserve">
<g>
	<g>
		<g>
			<defs>
				<path id="SVGID_1_" d="M303.38,40.179c3.481-1.818,6.471-6.518,6.639-10.445l3.214-75.398c0.166-3.926-2.41-8.864-5.727-10.971
					l-63.69-40.483c-1.705-1.083-4-1.668-6.303-1.74c-2.181-0.067-4.369,0.33-6.064,1.213l-66.903,34.917
					c-3.484,1.817-6.472,6.517-6.639,10.444"/>
			</defs>
			<clipPath id="SVGID_2_">
				<use xlink:href="#SVGID_1_"  overflow="visible"/>
			</clipPath>
		</g>
	</g>
	<g>
		<g>
			<defs>
				<path id="SVGID_3_" d="M179.93-34.739"/>
			</defs>
			<defs>
				<path id="SVGID_4_" d="M300.655,53.723c2.09-3.329,2.297-8.896,0.46-12.368"/>
			</defs>
			<clipPath id="SVGID_5_">
				<use xlink:href="#SVGID_3_"  overflow="visible"/>
			</clipPath>
			<clipPath id="SVGID_6_" clip-path="url(#SVGID_5_)">
				<use xlink:href="#SVGID_4_"  overflow="visible"/>
			</clipPath>
		</g>
	</g>
</g>
<path fill="#C4D9E1" d="M192.146,43.383L129.563,7.249c-1.586-0.915-3.664-1.381-5.752-1.405h-0.006
	c-2.207-0.025-4.424,0.44-6.096,1.405L55.125,43.383c-3.26,1.883-5.927,6.502-5.927,10.265v23.146h74.603h74.272V53.647
	C198.073,49.885,195.406,45.266,192.146,43.383"/>
<path fill="#9EBBC6" d="M198.073,53.647c0-3.764-2.667-8.383-5.927-10.264L129.563,7.25c-1.586-0.915-3.662-1.383-5.752-1.406
	h-0.006l-0.004,70.951h74.272V53.647z"/>
<path fill="#29AAE1" d="M53.613,139.234l63.966,36.931c1.711,0.987,3.979,1.464,6.235,1.438c2.136-0.025,4.258-0.502,5.879-1.438
	l63.965-36.931c3.332-1.923,6.058-6.645,6.058-10.491V78.539H47.557v44.232v5.972C47.557,132.59,50.282,137.312,53.613,139.234"/>
<g opacity="0.4">
	<g>
		<defs>
			<rect id="SVGID_7_" x="45.529" y="3.08" width="155.83" height="175.72"/>
		</defs>
		<clipPath id="SVGID_8_">
			<use xlink:href="#SVGID_7_"  overflow="visible"/>
		</clipPath>
		<path clip-path="url(#SVGID_8_)" fill="#FFFFFF" d="M123.446,18.502l62.731,36.22v72.436l-62.731,36.218l-62.731-36.218V54.721
			L123.446,18.502 M123.443,3.082c-2.248,0-4.496,0.489-6.2,1.474L51.736,42.375c-3.411,1.971-6.202,6.805-6.202,10.744v75.641
			c0,3.938,2.791,8.773,6.202,10.743l65.507,37.82c1.704,0.984,3.952,1.474,6.2,1.474c0.063,0,0.123,0,0.186-0.002
			c2.188-0.025,4.36-0.514,6.02-1.472l65.506-37.82c3.412-1.97,6.203-6.805,6.203-10.743V53.119c0-3.939-2.791-8.773-6.203-10.744
			L129.648,4.556c-1.659-0.958-3.832-1.446-6.02-1.473C123.566,3.082,123.504,3.082,123.443,3.082"/>
	</g>
</g>
<g>
	<defs>
		<path id="SVGID_9_" d="M117.848,7.907L54.88,44.258c-3.276,1.896-5.962,6.543-5.962,10.328v72.707
			c0,3.785,2.686,8.433,5.962,10.326l62.968,36.353c1.682,0.973,3.918,1.442,6.135,1.415c2.104-0.023,4.191-0.494,5.789-1.415
			l62.965-36.353c3.279-1.894,5.963-6.541,5.963-10.326V54.586c0-3.785-2.684-8.433-5.963-10.328L129.771,7.907
			c-1.598-0.921-3.686-1.392-5.789-1.415c-0.06-0.001-0.119-0.001-0.178-0.001C121.646,6.491,119.484,6.961,117.848,7.907"/>
	</defs>
	<clipPath id="SVGID_10_">
		<use xlink:href="#SVGID_9_"  overflow="visible"/>
	</clipPath>
	<path clip-path="url(#SVGID_10_)" fill="#FFD767" d="M16.818,61.972c4.689-0.293,14.222-0.136,32.492,2.239l39.592-8.763
		l17.087,3.397c0,0,13.972-12.121,16.978-12.859c26.068-6.398,45.838-11.698,53.48-10.3c17.449,3.189,32.48,4.058,32.48,4.058
		l17.844,34.266l1.656,22.415c-29.992,0.726-66.92,4.6-87.318,5.042c-29.012,0.631-52.977-3.152-54.237-6.306
		c-1.262-3.154,5.675-8.199-18.288-6.938C44.617,89.485,6.03,85.07,6.03,85.07L16.818,61.972z"/>
	<g clip-path="url(#SVGID_10_)">
		<g>
			<defs>
				<rect id="SVGID_11_" x="112.37" y="34.12" width="66.63" height="21.13"/>
			</defs>
			<clipPath id="SVGID_12_">
				<use xlink:href="#SVGID_11_"  overflow="visible"/>
			</clipPath>
			<polygon clip-path="url(#SVGID_12_)" fill="#FFFFFF" points="179.002,41.572 112.369,55.248 122.08,45.995 172.654,34.12 			"/>
		</g>
	</g>
	<g clip-path="url(#SVGID_10_)">
		<g>
			<defs>
				<rect id="SVGID_13_" x="39.08" y="58.87" width="109.82" height="44.09"/>
			</defs>
			<clipPath id="SVGID_14_">
				<use xlink:href="#SVGID_13_"  overflow="visible"/>
			</clipPath>
			<polygon clip-path="url(#SVGID_14_)" fill="#AA8B3D" points="43.769,88.332 94.729,58.868 81.113,86.102 129.604,95.784 
				148.9,80.878 146.693,102.958 125.465,102.685 87.102,96.889 79.924,89.988 39.076,89.988 			"/>
		</g>
	</g>
	<path clip-path="url(#SVGID_10_)" fill="#FFFFFF" d="M173.514,35.46c1.118,0,2.098,0.073,2.934,0.227
		c17.449,3.189,32.48,4.058,32.48,4.058l17.844,34.266l1.656,22.415c-29.992,0.726-66.919,4.6-87.318,5.042
		c-2.164,0.047-4.303,0.07-6.402,0.07c-26.059,0-46.668-3.458-47.835-6.376c-1.126-2.813,4.276-7.136-11.583-7.136
		c-1.911,0-4.129,0.063-6.707,0.197c-2.996,0.158-6.221,0.228-9.568,0.228c-23.441,0-52.984-3.38-52.984-3.38l10.789-23.098
		c1.059-0.066,2.363-0.109,3.959-0.109c5.477,0,14.384,0.509,28.533,2.348l39.592-8.763l17.086,3.397
		c0,0,13.973-12.121,16.977-12.858C146.184,40.288,164.406,35.46,173.514,35.46 M173.514,29.112c-8.75,0-23.395,3.623-43.662,8.637
		c-2.719,0.673-5.52,1.366-8.398,2.072c-1.162,0.286-4.145,1.018-17.26,12.196l-14.053-2.795l-1.309-0.261l-1.301,0.288
		l-38.51,8.523c-11.744-1.499-21.242-2.258-28.244-2.258c-1.598,0-3.063,0.041-4.354,0.12l-3.762,0.235l-1.595,3.415L0.279,82.383
		l-3.733,7.991l8.763,1.003c1.221,0.141,30.172,3.421,53.705,3.421c3.602,0,6.934-0.079,9.902-0.234
		c2.391-0.126,4.533-0.19,6.371-0.19c2.365,0,3.982,0.104,5.072,0.229c0.039,0.878,0.201,1.87,0.619,2.915
		c1.449,3.627,5.117,6.132,19.573,8.21c9.687,1.391,21.817,2.157,34.155,2.157c2.173,0,4.373-0.023,6.539-0.07
		c9.506-0.207,22.624-1.152,36.512-2.152c16.277-1.173,34.725-2.502,50.822-2.891l6.67-0.162l-0.492-6.652l-1.654-22.414
		l-0.098-1.305l-0.604-1.16l-17.844-34.266l-1.666-3.197l-3.6-0.208c-0.145-0.009-14.877-0.89-31.703-3.966
		C176.379,29.22,175.045,29.112,173.514,29.112"/>
	<path clip-path="url(#SVGID_10_)" fill="#191818" d="M134.706,103.521c-18.026,0-47.454-2.069-49.676-7.623
		c-0.455-1.137-0.313-2.247-0.2-3.139c0.104-0.815,0.125-1.183-0.016-1.342c-0.291-0.33-1.838-1.408-9.523-1.408
		c-1.916,0-4.137,0.067-6.604,0.196c-2.893,0.151-6.145,0.229-9.67,0.229c-23.287,0-52.916-3.357-53.213-3.392l-2.738-0.314
		L15.52,60.065l1.175-0.073c1.202-0.074,2.575-0.112,4.081-0.112c6.965,0,16.533,0.78,28.445,2.319l39.66-8.777l16.545,3.29
		c4.025-3.47,14.053-11.912,17.068-12.652c2.881-0.707,5.684-1.399,8.403-2.073c19.218-4.755,34.397-8.51,42.616-8.51
		c1.266,0,2.342,0.084,3.291,0.258c17.115,3.13,32.088,4.021,32.236,4.029l1.125,0.066l18.555,35.627l1.84,24.9l-2.084,0.051
		c-16.205,0.392-34.713,1.725-51.04,2.9c-13.829,0.996-26.89,1.938-36.284,2.143C139.016,103.496,136.848,103.52,134.706,103.521
		 M88.686,94.278c2.396,1.901,19.726,5.274,46.021,5.274c2.112,0,4.253-0.023,6.36-0.069c9.295-0.202,22.309-1.14,36.084-2.132
		c15.68-1.129,33.361-2.403,49.146-2.854l-1.473-19.935l-17.141-32.914c-3.84-0.271-16.945-1.334-31.592-4.013
		c-0.701-0.128-1.568-0.193-2.578-0.193c-7.734,0-22.707,3.704-41.664,8.396c-2.721,0.672-5.526,1.366-8.41,2.075
		c-1.649,0.455-9.67,6.807-16.15,12.43l-0.734,0.637l-17.631-3.505L49.4,66.223l-0.346-0.045
		c-11.904-1.546-21.418-2.332-28.279-2.332c-0.952,0-1.844,0.017-2.665,0.048L9.002,83.396c7.858,0.822,31.08,3.071,50.016,3.071
		c3.455,0,6.639-0.075,9.461-0.223c11.557-0.609,17.136,0.079,19.312,2.551c1.349,1.529,1.126,3.296,0.976,4.465
		C88.723,93.594,88.668,94.027,88.686,94.278"/>
	<path clip-path="url(#SVGID_10_)" fill="#2075BC" d="M145.297,103.17c-32.142,0.699-58.693-3.218-60.091-6.711
		c-1.397-3.494,6.288-7.704-20.264-6.306C38.391,91.55-4.361,86.659-4.361,86.659l6.285-13.458
		c-2.797-0.055-4.941-0.002-6.563,0.099l-11.953,25.592c0,0,42.752,4.891,69.304,3.493c26.551-1.397,18.865,4.192,20.264,7.686
		c1.397,3.494,27.949,7.686,60.09,6.988c22.602-0.492,63.515-4.784,96.744-5.588l-0.869-13.697
		C198.625,99.149,165.002,102.742,145.297,103.17"/>
	<path clip-path="url(#SVGID_10_)" fill="#FCF8C5" d="M106.232,91.269c0,0,3.873-11.172,0.234-52.208
		c-5.43,8.232-32.454,53.384-32.454,53.384l5.409,9.173L106.232,91.269z"/>
	<g opacity="0.5" clip-path="url(#SVGID_10_)">
		<g>
			<defs>
				<rect id="SVGID_15_" x="72.45" y="111.67" width="27.22" height="12.641"/>
			</defs>
			<clipPath id="SVGID_16_">
				<use xlink:href="#SVGID_15_"  overflow="visible"/>
			</clipPath>
			<polygon clip-path="url(#SVGID_16_)" fill="#191818" points="72.453,122.369 86.135,124.311 99.666,122.498 97.689,114.434 
				85.978,111.674 73.975,114.434 			"/>
		</g>
	</g>
	<polygon clip-path="url(#SVGID_10_)" fill="#BBA079" points="74.478,105.61 86.125,103.669 97.643,105.481 95.959,113.546 
		85.99,116.307 75.771,113.546 	"/>
	<polygon clip-path="url(#SVGID_10_)" fill="#6E512A" points="95.926,113.853 85.852,116.612 75.226,113.853 75.226,109.988 
		95.926,109.988 	"/>
	<polygon clip-path="url(#SVGID_10_)" fill="#FFFFFF" points="106.283,41.273 107.801,52.728 78.131,100.062 73.576,93.3 	"/>
	<path clip-path="url(#SVGID_10_)" fill="#191818" d="M85.995,118.325l-11.943-3.227l-1.808-11.089l13.871-2.313l13.85,2.178
		l-2.342,11.23L85.995,118.325z M77.491,111.994l8.491,2.294l8.314-2.302l1.021-4.9l-9.186-1.445l-9.422,1.572L77.491,111.994z"/>
	<g opacity="0.3" clip-path="url(#SVGID_10_)">
		<g>
			<defs>
				<rect id="SVGID_17_" x="76.75" y="51.46" width="32" height="48.95"/>
			</defs>
			<clipPath id="SVGID_18_">
				<use xlink:href="#SVGID_17_"  overflow="visible"/>
			</clipPath>
			
				<rect x="91.615" y="47.717" transform="matrix(0.8461 0.5331 -0.5331 0.8461 54.7578 -37.755)" clip-path="url(#SVGID_18_)" fill="#191818" width="2.272" height="56.435"/>
		</g>
	</g>
	<rect x="83.844" y="72.452" clip-path="url(#SVGID_10_)" fill="#231F20" width="4.551" height="32.399"/>
	<path clip-path="url(#SVGID_10_)" fill="#191818" d="M78.584,104.026l-6.834-11.59l0.592-0.992
		c1.105-1.845,27.107-45.281,32.5-53.456l3.07-4.656l0.494,5.558c3.635,40.979-0.172,52.545-0.336,53.017l-0.297,0.854
		L78.584,104.026z M76.278,92.452l3.981,6.754l24.342-9.396c0.686-3.039,2.686-15.05,0.404-44.805
		C97.045,57.813,79.709,86.727,76.278,92.452"/>
	<g clip-path="url(#SVGID_10_)">
		<g>
			<defs>
				<rect id="SVGID_19_" x="150.029" y="47.74" width="63.75" height="52.64"/>
			</defs>
			<clipPath id="SVGID_20_">
				<use xlink:href="#SVGID_19_"  overflow="visible"/>
			</clipPath>
			<polygon clip-path="url(#SVGID_20_)" fill="#AA8B3D" points="213.712,50.691 213.783,95.83 150.029,100.384 193.934,47.74 			"/>
		</g>
	</g>
	<path clip-path="url(#SVGID_10_)" fill="#FCF8C5" d="M168.008,19.898c0.027-0.896-0.359-1.025-0.873-0.291l-53.488,72.615
		l3.56,8.559l49.202-65.899C167.174,27.602,167.941,21.935,168.008,19.898"/>
	<path clip-path="url(#SVGID_10_)" fill="#FFFFFF" d="M167.711,19.132c0.195,0,0.312,0.262,0.295,0.767
		c-0.156,4.861-4.311,30.417-2.905,49.237c1.405,18.821,5.61,30.906,5.61,30.906l-44.797,5.37l-3.965,0.336l-8.303-13.525
		l53.489-72.615C167.359,19.287,167.559,19.132,167.711,19.132"/>
	<g opacity="0.5" clip-path="url(#SVGID_10_)">
		<g>
			<defs>
				<rect id="SVGID_21_" x="116.95" y="121.08" width="62.021" height="19.73"/>
			</defs>
			<clipPath id="SVGID_22_">
				<use xlink:href="#SVGID_21_"  overflow="visible"/>
			</clipPath>
			<path clip-path="url(#SVGID_22_)" fill="#191818" d="M178.152,129.048c-7.223,0.163-36.758,4.487-59.92,11.687
				c-0.855,0.266-1.414-0.222-1.252-1.103l4.73-15.924c0,0,29.098-2.65,49.164-2.627l7.688,6.858
				C179.23,128.537,179.048,129.028,178.152,129.048"/>
		</g>
	</g>
	<path clip-path="url(#SVGID_10_)" fill="#FCF8C5" d="M165.102,69.136c-0.818-10.938,0.244-24.15,1.307-34.254l-49.202,65.899
		l4.743,4.967l3.963-0.335l44.798-5.371C170.71,100.042,166.506,87.956,165.102,69.136"/>
	<path clip-path="url(#SVGID_10_)" fill="#9B9B9B" d="M115.488,98.228c0,0,36.156,2.208,52.717-11.316l3.588,14.076l-50.785,5.796
		L115.488,98.228z"/>
	<path clip-path="url(#SVGID_10_)" fill="#6E512A" d="M122.432,123.721c0,0,29.213-0.545,49.157-2.762l2.985-3.317
		c-27.543-0.083-45.602-2.516-56.618-4.847L122.432,123.721z"/>
	<path clip-path="url(#SVGID_10_)" fill="#BBA079" d="M115.523,106.855l2.432,5.939c11.018,2.332,29.076,4.764,56.619,4.846
		l4.992-5.546C179.566,112.095,143.002,112.618,115.523,106.855"/>
	<path clip-path="url(#SVGID_10_)" fill="#191818" d="M121.148,125.692l-7.023-16.723c-0.291-0.969-0.148-1.94,0.391-2.668
		c0.521-0.7,1.356-1.104,2.289-1.104c0.213,0,0.439,0.021,0.68,0.067c19.63,3.813,43.652,5.195,55.01,5.195
		c2.285,0,4.115-0.054,5.288-0.156c0.125-0.011,0.241-0.016,0.353-0.016c1.121,0,2.027,0.533,2.426,1.426
		c0.195,0.44,0.525,1.601-0.631,2.889l-7.39,8.21l-0.737,0.081c-19.803,2.199-49.043,2.768-49.336,2.772L121.148,125.692z
		 M118.529,109.426l5.184,12.319c5.828-0.135,29.736-0.787,46.926-2.64l4.295-4.774c-0.746,0.016-1.562,0.024-2.439,0.024
		C161.328,114.355,138.079,113.035,118.529,109.426"/>
	<path clip-path="url(#SVGID_10_)" fill="#191818" d="M121.148,125.692l-7.023-16.723c-0.291-0.969-0.148-1.94,0.391-2.668
		c0.521-0.7,1.356-1.104,2.289-1.104c0.213,0,0.439,0.021,0.68,0.067c19.63,3.813,43.652,5.195,55.01,5.195
		c2.285,0,4.115-0.054,5.288-0.156c0.125-0.011,0.241-0.016,0.353-0.016c1.121,0,2.027,0.533,2.426,1.426
		c0.195,0.44,0.525,1.601-0.631,2.889l-7.39,8.21l-0.737,0.081c-19.803,2.199-49.043,2.768-49.336,2.772L121.148,125.692z
		 M118.529,109.426l5.184,12.319c5.828-0.135,29.736-0.787,46.926-2.64l4.295-4.774c-0.746,0.016-1.562,0.024-2.439,0.024
		C161.328,114.355,138.079,113.035,118.529,109.426"/>
	<path clip-path="url(#SVGID_10_)" fill="#191818" d="M120.918,107.789l-9.615-15.664l54.266-73.672
		c0.578-0.828,1.309-1.269,2.143-1.269c0.588,0,1.137,0.235,1.548,0.658c0.491,0.506,0.724,1.219,0.692,2.12
		c-0.041,1.302-0.332,3.826-0.735,7.319c-1.123,9.719-3.212,27.808-2.173,41.709c1.369,18.354,5.466,30.292,5.506,30.41l0.796,2.284
		l-47.2,5.659L120.918,107.789z M115.992,92.321l6.988,11.387l2.77-0.235l42.404-5.086c-1.284-4.385-3.926-14.777-4.995-29.106
		c-1.065-14.271,0.972-31.907,2.188-42.444c0.072-0.627,0.141-1.229,0.207-1.799L115.992,92.321z"/>
	
		<rect x="128.55" y="68.663" transform="matrix(1 0.0037 -0.0037 1 0.3358 -0.4898)" clip-path="url(#SVGID_10_)" fill="#191818" width="4.691" height="41.403"/>
	<g opacity="0.3" clip-path="url(#SVGID_10_)">
		<g>
			<defs>
				<rect id="SVGID_23_" x="117.141" y="33.53" width="50.029" height="65.93"/>
			</defs>
			<clipPath id="SVGID_24_">
				<use xlink:href="#SVGID_23_"  overflow="visible"/>
			</clipPath>
			
				<rect x="141.023" y="26.2" transform="matrix(0.8014 0.5981 -0.5981 0.8014 67.9955 -71.8177)" clip-path="url(#SVGID_24_)" fill="#191818" width="2.271" height="80.59"/>
		</g>
	</g>
	<g opacity="0.3" clip-path="url(#SVGID_10_)">
		<g>
			<defs>
				<rect id="SVGID_25_" x="131.221" y="56.3" width="35.27" height="41.61"/>
			</defs>
			<clipPath id="SVGID_26_">
				<use xlink:href="#SVGID_25_"  overflow="visible"/>
			</clipPath>
			
				<rect x="147.718" y="50.945" transform="matrix(0.7679 0.6406 -0.6406 0.7679 83.9458 -77.4592)" clip-path="url(#SVGID_26_)" fill="#191818" width="2.271" height="52.315"/>
		</g>
	</g>
	<g clip-path="url(#SVGID_10_)">
		<g>
			<defs>
				<rect id="SVGID_27_" x="40.92" y="55.3" width="52.62" height="17.48"/>
			</defs>
			<clipPath id="SVGID_28_">
				<use xlink:href="#SVGID_27_"  overflow="visible"/>
			</clipPath>
			<polygon clip-path="url(#SVGID_28_)" fill="#FFFFFF" points="43.677,72.784 89.761,59.973 93.541,56.04 88.02,55.304 
				40.916,67.08 			"/>
		</g>
	</g>
</g>
<path fill="#1A1A19" d="M123.443,11.362l0.087,0.001c1.124,0.013,1.821,0.272,1.979,0.363l65.506,37.819
	c0.848,0.49,2.063,2.595,2.063,3.573v75.64c0,0.98-1.215,3.083-2.063,3.573l-65.508,37.821c-0.156,0.09-0.854,0.349-1.975,0.362
	h-0.088c-1.168,0-1.898-0.269-2.063-0.363l-65.506-37.82c-0.849-0.49-2.063-2.593-2.063-3.573v-75.64
	c0-0.979,1.214-3.083,2.063-3.573l65.506-37.819C121.547,11.632,122.275,11.362,123.443,11.362 M123.443,3.082
	c-2.248,0-4.496,0.489-6.2,1.473l-65.507,37.82c-3.411,1.97-6.202,6.805-6.202,10.744v75.64c0,3.94,2.791,8.774,6.202,10.744
	l65.507,37.82c1.706,0.985,3.954,1.473,6.202,1.473c0.061,0,0.121,0,0.184-0.001c2.188-0.025,4.36-0.514,6.02-1.472l65.506-37.82
	c3.412-1.97,6.203-6.804,6.203-10.744v-75.64c0-3.939-2.791-8.774-6.203-10.744l-65.506-37.82c-1.659-0.958-3.832-1.445-6.02-1.472
	C123.566,3.082,123.504,3.082,123.443,3.082"/>
<polygon fill="#191818" points="194.82,51.547 175.967,70.082 191.247,48.506 "/>
</svg>
