<?xml version="1.0" encoding="utf-8"?>
<!-- Generator: Adobe Illustrator 16.0.0, SVG Export Plug-In . SVG Version: 6.00 Build 0)  -->
<!DOCTYPE svg PUBLIC "-//W3C//DTD SVG 1.1//EN" "http://www.w3.org/Graphics/SVG/1.1/DTD/svg11.dtd">
<svg version="1.1" id="Layer_1" xmlns="http://www.w3.org/2000/svg" xmlns:xlink="http://www.w3.org/1999/xlink" x="0px" y="0px"
	 width="612px" height="792px" viewBox="0 0 612 792" enable-background="new 0 0 612 792" xml:space="preserve">
<polygon fill="#A6A8AC" points="265.641,512.157 255.984,498.981 255.984,512.157 254.672,512.157 254.672,496.819 256.006,496.819 
	265.619,509.812 265.619,496.819 266.93,496.819 266.93,512.157 "/>
<rect x="273.51" y="496.82" fill="#A6A8AC" width="1.311" height="15.338"/>
<polygon fill="#A6A8AC" points="281.076,512.157 281.076,496.819 282.41,496.819 282.41,510.963 289.838,510.963 289.838,512.157 
	"/>
<polygon fill="#A6A8AC" points="295.291,512.157 295.291,496.819 305.018,496.819 305.018,498.016 296.602,498.016 296.602,503.695 
	304.857,503.695 304.857,504.891 296.602,504.891 296.602,510.963 305.018,510.963 305.018,512.157 "/>
<path fill="#A6A8AC" d="M328.73,512.158l-4.301-6.348h-3.379v6.348h-1.313V496.82h5.727c2.645,0,4.668,1.678,4.668,4.483
	c0,2.782-1.955,4.323-4.254,4.415l4.438,6.439H328.73z M328.754,501.304c0-1.932-1.357-3.288-3.404-3.288h-4.299v6.601h4.299
	C327.396,504.616,328.754,503.236,328.754,501.304"/>
<rect x="336.161" y="496.82" fill="#A6A8AC" width="1.312" height="15.338"/>
<polygon fill="#A6A8AC" points="348.766,512.157 342.486,496.819 344.004,496.819 349.592,510.686 355.158,496.819 356.676,496.819 
	350.396,512.157 "/>
<polygon fill="#A6A8AC" points="361.691,512.157 361.691,496.819 371.418,496.819 371.418,498.016 363.002,498.016 363.002,503.695 
	371.258,503.695 371.258,504.891 363.002,504.891 363.002,510.963 371.418,510.963 371.418,512.157 "/>
<path fill="#A6A8AC" d="M386.414,512.158l-4.301-6.348h-3.379v6.348h-1.313V496.82h5.727c2.645,0,4.668,1.678,4.668,4.483
	c0,2.782-1.955,4.323-4.254,4.415l4.438,6.439H386.414z M386.438,501.304c0-1.932-1.357-3.288-3.404-3.288h-4.299v6.601h4.299
	C385.08,504.616,386.438,503.236,386.438,501.304"/>
<path fill="#C4D9E1" d="M389.147,319.383l-62.585-36.134c-1.586-0.915-3.663-1.381-5.752-1.405h-0.006
	c-2.207-0.025-4.424,0.44-6.096,1.405l-62.584,36.134c-3.26,1.883-5.927,6.502-5.927,10.265v23.146h74.603h74.272v-23.146
	C395.073,325.885,392.406,321.266,389.147,319.383"/>
<path fill="#9EBBC6" d="M395.073,329.647c0-3.764-2.667-8.383-5.927-10.264l-62.584-36.134c-1.586-0.915-3.662-1.383-5.752-1.406
	h-0.006l-0.003,70.951h74.271V329.647z"/>
<path fill="#29AAE1" d="M250.613,415.234l63.966,36.931c1.711,0.987,3.979,1.464,6.235,1.438c2.136-0.025,4.258-0.502,5.879-1.438
	l63.965-36.931c3.332-1.923,6.058-6.645,6.058-10.491v-50.204H244.557v44.232v5.972C244.557,408.59,247.282,413.312,250.613,415.234
	"/>
<g opacity="0.4">
	<g>
		<defs>
			<rect id="SVGID_1_" x="242.529" y="279.08" width="155.83" height="175.72"/>
		</defs>
		<clipPath id="SVGID_2_">
			<use xlink:href="#SVGID_1_"  overflow="visible"/>
		</clipPath>
		<path clip-path="url(#SVGID_2_)" fill="#FFFFFF" d="M320.446,294.502l62.731,36.22v72.436l-62.731,36.218l-62.731-36.218v-72.437
			L320.446,294.502 M320.443,279.082c-2.248,0-4.495,0.489-6.2,1.474l-65.507,37.819c-3.411,1.971-6.202,6.805-6.202,10.744v75.641
			c0,3.938,2.791,8.773,6.202,10.743l65.507,37.82c1.705,0.984,3.953,1.474,6.201,1.474c0.062,0,0.122,0,0.185-0.002
			c2.188-0.025,4.36-0.514,6.02-1.472l65.507-37.82c3.411-1.97,6.202-6.805,6.202-10.743v-75.641c0-3.939-2.791-8.773-6.202-10.744
			l-65.507-37.819c-1.659-0.958-3.832-1.446-6.02-1.473C320.566,279.082,320.505,279.082,320.443,279.082"/>
	</g>
</g>
<g>
	<defs>
		<path id="SVGID_3_" d="M314.848,283.907l-62.968,36.351c-3.276,1.896-5.961,6.543-5.961,10.328v72.707
			c0,3.785,2.685,8.433,5.961,10.326l62.968,36.353c1.682,0.973,3.918,1.442,6.135,1.415c2.104-0.023,4.192-0.494,5.789-1.415
			l62.965-36.353c3.279-1.894,5.963-6.541,5.963-10.326v-72.707c0-3.785-2.684-8.433-5.963-10.328l-62.965-36.351
			c-1.597-0.921-3.686-1.392-5.789-1.415c-0.06-0.001-0.119-0.001-0.178-0.001C318.646,282.491,316.484,282.961,314.848,283.907"/>
	</defs>
	<clipPath id="SVGID_4_">
		<use xlink:href="#SVGID_3_"  overflow="visible"/>
	</clipPath>
	<path clip-path="url(#SVGID_4_)" fill="#FFD767" d="M213.818,337.972c4.689-0.293,14.222-0.136,32.492,2.239l39.592-8.763
		l17.087,3.397c0,0,13.972-12.121,16.978-12.859c26.068-6.398,45.838-11.698,53.481-10.3c17.448,3.189,32.479,4.058,32.479,4.058
		l17.844,34.266l1.656,22.415c-29.992,0.726-66.92,4.6-87.318,5.042c-29.012,0.631-52.977-3.152-54.237-6.306
		c-1.262-3.154,5.675-8.199-18.289-6.938c-23.966,1.263-62.553-3.152-62.553-3.152L213.818,337.972z"/>
	<g clip-path="url(#SVGID_4_)">
		<g>
			<defs>
				<rect id="SVGID_5_" x="309.37" y="310.12" width="66.63" height="21.13"/>
			</defs>
			<clipPath id="SVGID_6_">
				<use xlink:href="#SVGID_5_"  overflow="visible"/>
			</clipPath>
			<polygon clip-path="url(#SVGID_6_)" fill="#FFFFFF" points="376.002,317.572 309.369,331.248 319.08,321.995 369.654,310.12 			
				"/>
		</g>
	</g>
	<g clip-path="url(#SVGID_4_)">
		<g>
			<defs>
				<rect id="SVGID_7_" x="236.08" y="334.87" width="109.82" height="44.09"/>
			</defs>
			<clipPath id="SVGID_8_">
				<use xlink:href="#SVGID_7_"  overflow="visible"/>
			</clipPath>
			<polygon clip-path="url(#SVGID_8_)" fill="#AA8B3D" points="240.769,364.332 291.729,334.868 278.113,362.102 326.604,371.784 
				345.9,356.878 343.692,378.958 322.465,378.685 284.102,372.889 276.924,365.988 236.076,365.988 			"/>
		</g>
	</g>
	<path clip-path="url(#SVGID_4_)" fill="#FFFFFF" d="M370.514,311.46c1.118,0,2.098,0.073,2.934,0.227
		c17.449,3.189,32.48,4.058,32.48,4.058l17.844,34.266l1.656,22.415c-29.992,0.726-66.919,4.6-87.318,5.042
		c-2.164,0.047-4.303,0.07-6.402,0.07c-26.059,0-46.668-3.458-47.835-6.376c-1.126-2.813,4.276-7.136-11.583-7.136
		c-1.911,0-4.129,0.063-6.707,0.197c-2.995,0.158-6.221,0.228-9.568,0.228c-23.441,0-52.984-3.38-52.984-3.38l10.789-23.098
		c1.058-0.066,2.363-0.109,3.959-0.109c5.477,0,14.384,0.509,28.533,2.348l39.592-8.763l17.086,3.397
		c0,0,13.973-12.121,16.978-12.858C343.184,316.288,361.406,311.46,370.514,311.46 M370.514,305.112
		c-8.75,0-23.395,3.623-43.662,8.637c-2.718,0.673-5.52,1.366-8.398,2.072c-1.162,0.286-4.145,1.018-17.26,12.196l-14.053-2.795
		l-1.309-0.261l-1.301,0.288l-38.51,8.523c-11.744-1.499-21.242-2.258-28.244-2.258c-1.598,0-3.063,0.041-4.354,0.12l-3.762,0.235
		l-1.595,3.415l-10.787,23.097l-3.733,7.991l8.763,1.003c1.221,0.141,30.172,3.421,53.705,3.421c3.602,0,6.934-0.079,9.902-0.234
		c2.391-0.126,4.533-0.19,6.372-0.19c2.364,0,3.981,0.104,5.071,0.229c0.039,0.878,0.201,1.87,0.619,2.915
		c1.449,3.627,5.117,6.132,19.573,8.21c9.687,1.391,21.817,2.157,34.155,2.157c2.173,0,4.373-0.023,6.539-0.07
		c9.507-0.207,22.624-1.152,36.512-2.152c16.277-1.173,34.725-2.502,50.823-2.891l6.669-0.162l-0.491-6.652l-1.655-22.414
		l-0.098-1.305l-0.604-1.16l-17.844-34.266l-1.666-3.197l-3.599-0.208c-0.146-0.009-14.879-0.89-31.704-3.966
		C373.379,305.22,372.046,305.112,370.514,305.112"/>
	<path clip-path="url(#SVGID_4_)" fill="#191818" d="M331.706,379.521c-18.026,0-47.454-2.069-49.676-7.623
		c-0.455-1.137-0.313-2.247-0.2-3.139c0.104-0.815,0.125-1.183-0.016-1.342c-0.291-0.33-1.838-1.408-9.523-1.408
		c-1.916,0-4.137,0.067-6.604,0.196c-2.893,0.151-6.145,0.229-9.67,0.229c-23.286,0-52.916-3.357-53.213-3.392l-2.738-0.314
		l12.453-26.662l1.175-0.073c1.202-0.074,2.575-0.112,4.081-0.112c6.965,0,16.533,0.78,28.445,2.319l39.66-8.777l16.545,3.29
		c4.026-3.47,14.054-11.912,17.068-12.652c2.881-0.707,5.684-1.399,8.403-2.073c19.219-4.755,34.397-8.51,42.616-8.51
		c1.266,0,2.343,0.084,3.291,0.258c17.115,3.13,32.088,4.021,32.236,4.029l1.125,0.066l18.555,35.627l1.84,24.9l-2.084,0.051
		c-16.205,0.392-34.713,1.725-51.04,2.9c-13.828,0.996-26.89,1.938-36.284,2.143C336.016,379.496,333.848,379.52,331.706,379.521
		 M285.687,370.278c2.396,1.901,19.725,5.274,46.02,5.274c2.113,0,4.253-0.023,6.36-0.069c9.295-0.202,22.309-1.14,36.085-2.132
		c15.679-1.129,33.36-2.403,49.146-2.854l-1.473-19.935l-17.141-32.914c-3.84-0.271-16.945-1.334-31.592-4.013
		c-0.701-0.128-1.568-0.193-2.578-0.193c-7.734,0-22.707,3.704-41.664,8.396c-2.721,0.672-5.526,1.366-8.41,2.075
		c-1.649,0.455-9.669,6.807-16.15,12.43l-0.734,0.637l-17.631-3.505l-39.523,8.747l-0.346-0.045
		c-11.903-1.546-21.418-2.332-28.279-2.332c-0.952,0-1.844,0.017-2.665,0.048l-9.108,19.502c7.858,0.822,31.08,3.071,50.016,3.071
		c3.455,0,6.639-0.075,9.461-0.223c11.557-0.609,17.136,0.079,19.312,2.551c1.349,1.529,1.125,3.296,0.976,4.465
		C285.723,369.594,285.668,370.027,285.687,370.278"/>
	<path clip-path="url(#SVGID_4_)" fill="#2075BC" d="M342.297,379.17c-32.142,0.699-58.693-3.218-60.091-6.711
		c-1.397-3.494,6.288-7.704-20.264-6.306c-26.552,1.396-69.304-3.494-69.304-3.494l6.285-13.458
		c-2.797-0.055-4.941-0.002-6.563,0.099l-11.953,25.592c0,0,42.752,4.891,69.304,3.493c26.551-1.397,18.865,4.192,20.264,7.686
		c1.397,3.494,27.949,7.686,60.09,6.988c22.602-0.492,63.515-4.784,96.744-5.588l-0.869-13.697
		C395.624,375.149,362.001,378.742,342.297,379.17"/>
	<path clip-path="url(#SVGID_4_)" fill="#FCF8C5" d="M303.232,367.269c0,0,3.873-11.172,0.234-52.208
		c-5.43,8.232-32.454,53.384-32.454,53.384l5.409,9.173L303.232,367.269z"/>
	<g opacity="0.5" clip-path="url(#SVGID_4_)">
		<g>
			<defs>
				<rect id="SVGID_9_" x="269.45" y="387.67" width="27.22" height="12.641"/>
			</defs>
			<clipPath id="SVGID_10_">
				<use xlink:href="#SVGID_9_"  overflow="visible"/>
			</clipPath>
			<polygon clip-path="url(#SVGID_10_)" fill="#191818" points="269.453,398.369 283.135,400.311 296.666,398.498 294.689,390.434 
				282.978,387.674 270.975,390.434 			"/>
		</g>
	</g>
	<polygon clip-path="url(#SVGID_4_)" fill="#BBA079" points="271.478,381.61 283.125,379.669 294.643,381.481 292.959,389.546 
		282.99,392.307 272.771,389.546 	"/>
	<polygon clip-path="url(#SVGID_4_)" fill="#6E512A" points="292.926,389.853 282.853,392.612 272.226,389.853 272.226,385.988 
		292.926,385.988 	"/>
	<polygon clip-path="url(#SVGID_4_)" fill="#FFFFFF" points="303.283,317.273 304.801,328.728 275.131,376.062 270.576,369.3 	"/>
	<path clip-path="url(#SVGID_4_)" fill="#191818" d="M282.995,394.325l-11.943-3.227l-1.808-11.089l13.872-2.313l13.85,2.178
		l-2.343,11.23L282.995,394.325z M274.491,387.994l8.491,2.294l8.314-2.302l1.021-4.9l-9.185-1.445l-9.423,1.572L274.491,387.994z"
		/>
	<g opacity="0.3" clip-path="url(#SVGID_4_)">
		<g>
			<defs>
				<rect id="SVGID_11_" x="273.75" y="327.46" width="32" height="48.95"/>
			</defs>
			<clipPath id="SVGID_12_">
				<use xlink:href="#SVGID_11_"  overflow="visible"/>
			</clipPath>
			
				<rect x="288.615" y="323.717" transform="matrix(0.8461 0.5331 -0.5331 0.8461 232.2158 -100.2858)" clip-path="url(#SVGID_12_)" fill="#191818" width="2.272" height="56.435"/>
		</g>
	</g>
	<rect x="280.844" y="348.452" clip-path="url(#SVGID_4_)" fill="#231F20" width="4.551" height="32.399"/>
	<path clip-path="url(#SVGID_4_)" fill="#191818" d="M275.583,380.026l-6.834-11.59l0.593-0.992
		c1.105-1.845,27.107-45.281,32.5-53.456l3.071-4.656l0.493,5.558c3.635,40.979-0.172,52.545-0.336,53.017l-0.297,0.854
		L275.583,380.026z M273.278,368.452l3.981,6.754l24.342-9.396c0.686-3.039,2.687-15.05,0.404-44.805
		C294.045,333.813,276.708,362.727,273.278,368.452"/>
	<g clip-path="url(#SVGID_4_)">
		<g>
			<defs>
				<rect id="SVGID_13_" x="347.029" y="323.74" width="63.75" height="52.64"/>
			</defs>
			<clipPath id="SVGID_14_">
				<use xlink:href="#SVGID_13_"  overflow="visible"/>
			</clipPath>
			<polygon clip-path="url(#SVGID_14_)" fill="#AA8B3D" points="410.712,326.691 410.783,371.83 347.029,376.384 390.935,323.74 			
				"/>
		</g>
	</g>
	<path clip-path="url(#SVGID_4_)" fill="#FCF8C5" d="M365.008,295.898c0.028-0.896-0.359-1.025-0.873-0.291l-53.488,72.615
		l3.56,8.559l49.202-65.899C364.174,303.602,364.941,297.935,365.008,295.898"/>
	<path clip-path="url(#SVGID_4_)" fill="#FFFFFF" d="M364.711,295.132c0.195,0,0.312,0.262,0.296,0.767
		c-0.157,4.861-4.312,30.417-2.906,49.237c1.405,18.821,5.61,30.906,5.61,30.906l-44.797,5.37l-3.965,0.336l-8.302-13.525
		l53.488-72.615C364.359,295.287,364.559,295.132,364.711,295.132"/>
	<g opacity="0.5" clip-path="url(#SVGID_4_)">
		<g>
			<defs>
				<rect id="SVGID_15_" x="313.95" y="397.08" width="62.021" height="19.73"/>
			</defs>
			<clipPath id="SVGID_16_">
				<use xlink:href="#SVGID_15_"  overflow="visible"/>
			</clipPath>
			<path clip-path="url(#SVGID_16_)" fill="#191818" d="M375.152,405.048c-7.223,0.163-36.757,4.487-59.92,11.687
				c-0.855,0.266-1.414-0.222-1.252-1.103l4.73-15.924c0,0,29.098-2.65,49.164-2.627l7.688,6.858
				C376.231,404.537,376.048,405.028,375.152,405.048"/>
		</g>
	</g>
	<path clip-path="url(#SVGID_4_)" fill="#FCF8C5" d="M362.102,345.136c-0.818-10.938,0.244-24.15,1.307-34.254l-49.202,65.899
		l4.743,4.967l3.963-0.335l44.798-5.371C367.71,376.042,363.506,363.956,362.102,345.136"/>
	<path clip-path="url(#SVGID_4_)" fill="#9B9B9B" d="M312.488,374.228c0,0,36.156,2.208,52.717-11.316l3.588,14.076l-50.785,5.796
		L312.488,374.228z"/>
	<path clip-path="url(#SVGID_4_)" fill="#6E512A" d="M319.432,399.721c0,0,29.213-0.545,49.157-2.762l2.985-3.317
		c-27.543-0.083-45.602-2.516-56.618-4.847L319.432,399.721z"/>
	<path clip-path="url(#SVGID_4_)" fill="#BBA079" d="M312.523,382.855l2.432,5.939c11.018,2.332,29.076,4.764,56.619,4.846
		l4.992-5.546C376.566,388.095,340.002,388.618,312.523,382.855"/>
	<path clip-path="url(#SVGID_4_)" fill="#191818" d="M318.148,401.692l-7.023-16.723c-0.292-0.969-0.148-1.94,0.391-2.668
		c0.521-0.7,1.356-1.104,2.289-1.104c0.213,0,0.44,0.021,0.68,0.067c19.63,3.813,43.652,5.195,55.01,5.195
		c2.286,0,4.115-0.054,5.288-0.156c0.125-0.011,0.241-0.016,0.353-0.016c1.121,0,2.027,0.533,2.426,1.426
		c0.195,0.44,0.525,1.601-0.631,2.889l-7.39,8.21l-0.737,0.081c-19.803,2.199-49.043,2.768-49.336,2.772L318.148,401.692z
		 M315.529,385.426l5.184,12.319c5.828-0.135,29.736-0.787,46.926-2.64l4.295-4.774c-0.746,0.016-1.562,0.024-2.439,0.024
		C358.329,390.355,335.079,389.035,315.529,385.426"/>
	<path clip-path="url(#SVGID_4_)" fill="#191818" d="M318.148,401.692l-7.023-16.723c-0.292-0.969-0.148-1.94,0.391-2.668
		c0.521-0.7,1.356-1.104,2.289-1.104c0.213,0,0.44,0.021,0.68,0.067c19.63,3.813,43.652,5.195,55.01,5.195
		c2.286,0,4.115-0.054,5.288-0.156c0.125-0.011,0.241-0.016,0.353-0.016c1.121,0,2.027,0.533,2.426,1.426
		c0.195,0.44,0.525,1.601-0.631,2.889l-7.39,8.21l-0.737,0.081c-19.803,2.199-49.043,2.768-49.336,2.772L318.148,401.692z
		 M315.529,385.426l5.184,12.319c5.828-0.135,29.736-0.787,46.926-2.64l4.295-4.774c-0.746,0.016-1.562,0.024-2.439,0.024
		C358.329,390.355,335.079,389.035,315.529,385.426"/>
	<path clip-path="url(#SVGID_4_)" fill="#191818" d="M317.918,383.789l-9.615-15.664l54.266-73.672
		c0.578-0.828,1.309-1.269,2.143-1.269c0.588,0,1.137,0.235,1.548,0.658c0.49,0.506,0.724,1.219,0.693,2.12
		c-0.042,1.302-0.333,3.826-0.736,7.319c-1.123,9.719-3.212,27.808-2.174,41.709c1.37,18.354,5.467,30.292,5.508,30.41l0.795,2.284
		l-47.2,5.659L317.918,383.789z M312.992,368.321l6.988,11.387l2.77-0.235l42.404-5.086c-1.284-4.385-3.926-14.777-4.995-29.106
		c-1.065-14.271,0.972-31.907,2.188-42.444c0.072-0.627,0.141-1.229,0.207-1.799L312.992,368.321z"/>
	
		<rect x="325.55" y="344.663" transform="matrix(1 0.0037 -0.0037 1 1.3713 -1.226)" clip-path="url(#SVGID_4_)" fill="#191818" width="4.691" height="41.403"/>
	<g opacity="0.3" clip-path="url(#SVGID_4_)">
		<g>
			<defs>
				<rect id="SVGID_17_" x="314.141" y="309.53" width="50.029" height="65.93"/>
			</defs>
			<clipPath id="SVGID_18_">
				<use xlink:href="#SVGID_17_"  overflow="visible"/>
			</clipPath>
			
				<rect x="338.023" y="302.2" transform="matrix(0.8014 0.5981 -0.5981 0.8014 272.1792 -134.8361)" clip-path="url(#SVGID_18_)" fill="#191818" width="2.271" height="80.59"/>
		</g>
	</g>
	<g opacity="0.3" clip-path="url(#SVGID_4_)">
		<g>
			<defs>
				<rect id="SVGID_19_" x="328.221" y="332.3" width="35.27" height="41.61"/>
			</defs>
			<clipPath id="SVGID_20_">
				<use xlink:href="#SVGID_19_"  overflow="visible"/>
			</clipPath>
			
				<rect x="344.718" y="326.945" transform="matrix(0.7679 0.6406 -0.6406 0.7679 306.4832 -139.5906)" clip-path="url(#SVGID_20_)" fill="#191818" width="2.271" height="52.315"/>
		</g>
	</g>
	<g clip-path="url(#SVGID_4_)">
		<g>
			<defs>
				<rect id="SVGID_21_" x="237.92" y="331.3" width="52.62" height="17.48"/>
			</defs>
			<clipPath id="SVGID_22_">
				<use xlink:href="#SVGID_21_"  overflow="visible"/>
			</clipPath>
			<polygon clip-path="url(#SVGID_22_)" fill="#FFFFFF" points="240.677,348.784 286.761,335.973 290.541,332.04 285.021,331.304 
				237.916,343.08 			"/>
		</g>
	</g>
</g>
<path fill="#1A1A19" d="M320.443,287.362l0.087,0.001c1.124,0.013,1.821,0.272,1.979,0.363l65.506,37.819
	c0.848,0.49,2.063,2.595,2.063,3.573v75.64c0,0.98-1.215,3.083-2.063,3.573l-65.508,37.821c-0.156,0.09-0.854,0.349-1.975,0.362
	h-0.088c-1.168,0-1.898-0.269-2.063-0.363l-65.506-37.82c-0.849-0.49-2.063-2.593-2.063-3.573v-75.64
	c0-0.979,1.214-3.083,2.063-3.573l65.506-37.819C318.547,287.632,319.275,287.362,320.443,287.362 M320.443,279.082
	c-2.248,0-4.495,0.489-6.2,1.473l-65.507,37.82c-3.411,1.97-6.202,6.805-6.202,10.744v75.64c0,3.94,2.791,8.774,6.202,10.744
	l65.507,37.82c1.706,0.985,3.954,1.473,6.202,1.473c0.061,0,0.121,0,0.184-0.001c2.188-0.025,4.36-0.514,6.02-1.472l65.507-37.82
	c3.411-1.97,6.202-6.804,6.202-10.744v-75.64c0-3.939-2.791-8.774-6.202-10.744l-65.507-37.82c-1.659-0.958-3.832-1.445-6.02-1.472
	C320.566,279.082,320.505,279.082,320.443,279.082"/>
<polygon fill="#191818" points="391.82,327.547 372.967,346.082 388.247,324.506 "/>
</svg>
