<?xml version="1.0" encoding="utf-8"?>
<!-- Generator: Adobe Illustrator 16.0.0, SVG Export Plug-In . SVG Version: 6.00 Build 0)  -->
<!DOCTYPE svg PUBLIC "-//W3C//DTD SVG 1.1//EN" "http://www.w3.org/Graphics/SVG/1.1/DTD/svg11.dtd">
<svg version="1.1" id="Layer_1" xmlns="http://www.w3.org/2000/svg" xmlns:xlink="http://www.w3.org/1999/xlink" x="0px" y="0px"
	 width="612px" height="792px" viewBox="0 0 612 792" enable-background="new 0 0 612 792" xml:space="preserve">
<path fill="none" d="M311.63-1226.76"/>
<path fill="none" d="M311.63,2018.837"/>
<path fill="none" d="M312.63-1225.76"/>
<path fill="none" d="M312.63,2019.837"/>
<path fill="#5F9AD2" d="M185.246,519.479"/>
<path fill="#FFFFFF" d="M185.246,519.729"/>
<path fill="#231F20" d="M185.246,519.73"/>
<path fill="#A6A8AC" d="M189.391,575.82h5.748c2.943,0,4.623,2.068,4.623,4.483s-1.701,4.484-4.623,4.484h-4.438"/>
<path fill="#A6A8AC" d="M190.701,583.592h4.3c2.048,0,3.38-1.379,3.38-3.288"/>
<path fill="#A6A8AC" d="M198.381,580.304c0-1.932-1.332-3.289-3.38-3.289h-4.3"/>
<path fill="#A6A8AC" d="M214.573,591.157l-1.519-3.771h-8.117l-1.518,3.771h-1.518l6.279-15.338h1.631l6.278,15.338H214.573z
	 M209.008,577.223l-3.633,8.968h7.243L209.008,577.223z"/>
<polygon fill="#A6A8AC" points="232.076,591.157 222.418,577.981 222.418,591.157 221.106,591.157 221.106,575.819 222.44,575.819 
	232.053,588.812 232.053,575.819 233.363,575.819 233.363,591.157 "/>
<path fill="#A6A8AC" d="M251.052,591.157l-1.519-3.771h-8.117l-1.518,3.771h-1.518l6.279-15.338h1.631l6.278,15.338H251.052z
	 M245.486,577.223l-3.633,8.968h7.243L245.486,577.223z"/>
<polygon fill="#A6A8AC" points="270.602,591.157 270.602,577.476 265.013,591.157 264.507,591.157 258.896,577.476 258.896,591.157 
	257.585,591.157 257.585,575.819 259.54,575.819 264.76,588.582 269.957,575.819 271.936,575.819 271.936,591.157 "/>
<path fill="#A6A8AC" d="M289.622,591.157l-1.519-3.771h-8.117l-1.518,3.771h-1.518l6.279-15.338h1.631l6.278,15.338H289.622z
	 M284.057,577.223l-3.633,8.968h7.243L284.057,577.223z"/>
<path fill="#A6A8AC" d="M304.299,583.5c0-4.714,3.426-7.934,7.772-7.934c2.438,0,4.3,1.081,5.587,2.714l-1.104,0.713
	c-0.966-1.334-2.645-2.23-4.483-2.23c-3.587,0-6.392,2.736-6.392,6.737c0,3.955,2.805,6.737,6.392,6.737
	c1.839,0,3.518-0.896,4.483-2.229l1.127,0.689c-1.379,1.678-3.172,2.736-5.61,2.736C307.725,591.434,304.299,588.215,304.299,583.5"
	/>
<path fill="#A6A8AC" d="M334.126,591.157l-1.519-3.771h-8.117l-1.518,3.771h-1.518l6.279-15.338h1.631l6.278,15.338H334.126z
	 M328.561,577.223l-3.633,8.968h7.243L328.561,577.223z"/>
<polygon fill="#A6A8AC" points="351.629,591.157 341.971,577.981 341.971,591.157 340.659,591.157 340.659,575.819 341.993,575.819 
	351.605,588.812 351.605,575.819 352.916,575.819 352.916,591.157 "/>
<path fill="#A6A8AC" d="M370.604,591.157l-1.518-3.771h-8.117l-1.519,3.771h-1.517l6.277-15.338h1.633l6.277,15.338H370.604z
	 M365.039,577.223l-3.634,8.968h7.243L365.039,577.223z"/>
<polygon fill="#A6A8AC" points="376.816,591.157 376.816,575.819 378.149,575.819 378.149,589.962 385.578,589.962 385.578,591.157 
	"/>
<path fill="#7BAE42" d="M355.6,402.851l-65.352-37.731c-1.656-0.956-3.824-1.443-6.007-1.469c-0.153-0.001-0.305,0.005-0.457,0.008
	c-2.151,0.038-4.28,0.519-5.913,1.461l-65.353,37.731c-3.403,1.965-6.188,6.788-6.188,10.718v75.463
	c0,3.93,2.785,8.754,6.188,10.718l65.353,37.73c1.633,0.943,3.762,1.425,5.913,1.462c0.152,0.003,0.304,0.01,0.457,0.008
	c2.183-0.026,4.351-0.514,6.007-1.47l65.352-37.73c3.402-1.964,6.188-6.788,6.188-10.718v-75.463
	C361.787,409.639,359.002,404.815,355.6,402.851"/>
<path fill="#4F833C" d="M355.6,402.851l-65.352-37.731c-1.656-0.956-3.824-1.443-6.007-1.469c-0.153-0.001-0.305,0.005-0.457,0.008
	v175.283c0.152,0.003,0.304,0.01,0.457,0.008c2.183-0.026,4.351-0.514,6.007-1.47l65.352-37.73
	c3.402-1.964,6.188-6.788,6.188-10.718v-75.463C361.787,409.639,359.002,404.815,355.6,402.851"/>
<g opacity="0.4">
	<g>
		<defs>
			<rect id="SVGID_1_" x="206.33" y="363.65" width="155.46" height="175.3"/>
		</defs>
		<clipPath id="SVGID_2_">
			<use xlink:href="#SVGID_1_"  overflow="visible"/>
		</clipPath>
		<path clip-path="url(#SVGID_2_)" fill="#FFFFFF" d="M284.06,379.034l62.584,36.133v72.266l-62.584,36.133l-62.584-36.133v-72.266
			L284.06,379.034 M284.058,363.649c-2.243,0-4.485,0.488-6.187,1.471l-65.353,37.73c-3.403,1.965-6.188,6.788-6.188,10.718v75.463
			c0,3.93,2.785,8.754,6.188,10.718l65.353,37.73c1.701,0.982,3.943,1.47,6.187,1.47c0.062,0,0.122,0,0.184,0
			c2.183-0.026,4.351-0.514,6.007-1.47l65.352-37.73c3.402-1.964,6.188-6.788,6.188-10.718v-75.463c0-3.93-2.785-8.753-6.188-10.718
			l-65.352-37.73c-1.656-0.956-3.824-1.443-6.007-1.469C284.18,363.649,284.118,363.649,284.058,363.649"/>
	</g>
</g>
<g opacity="0.6">
	<g>
		<defs>
			<rect id="SVGID_3_" x="209.08" y="374.66" width="110.76" height="71.21"/>
		</defs>
		<clipPath id="SVGID_4_">
			<use xlink:href="#SVGID_3_"  overflow="visible"/>
		</clipPath>
		<path clip-path="url(#SVGID_4_)" fill="#768F3A" d="M282.677,413.3c10.378-10.625,26.157-17.701,37.159-21.673L293,376.134
			c-1.654-0.956-3.823-1.443-6.006-1.469c-2.303-0.027-4.621,0.46-6.369,1.469l-65.353,37.731
			c-3.403,1.965-6.188,6.788-6.188,10.718v21.286c7.388-2.668,14.957-4.706,22.072-5.436
			C260.586,437.417,265.33,431.059,282.677,413.3"/>
	</g>
</g>
<path fill="#59BA49" d="M279.924,402.286c10.377-10.625,26.156-17.701,37.159-21.673l-26.836-15.494
	c-1.655-0.955-3.823-1.442-6.006-1.468c-2.304-0.028-4.622,0.459-6.37,1.468l-65.352,37.731c-3.404,1.966-6.188,6.788-6.188,10.719
	v21.286c7.388-2.668,14.956-4.706,22.072-5.437C257.833,426.403,262.577,420.045,279.924,402.286"/>
<path fill="#D1CC29" d="M206.332,419.084v15.771c7.387-2.669,14.955-4.707,22.071-5.436c29.429-3.016,34.174-9.374,51.521-27.134
	c10.377-10.625,26.156-17.701,37.16-21.672l-11.354-6.555c-4.362,2.823-9.511,6.474-15.591,11.162
	C259.92,408.533,221.6,416.652,206.332,419.084"/>
<g opacity="0.6">
	<g>
		<defs>
			<rect id="SVGID_5_" x="206.33" y="374.06" width="110.75" height="60.79"/>
		</defs>
		<clipPath id="SVGID_6_">
			<use xlink:href="#SVGID_5_"  overflow="visible"/>
		</clipPath>
		<path clip-path="url(#SVGID_6_)" fill="#768F3A" d="M206.332,419.084v15.771c7.387-2.669,14.955-4.707,22.071-5.436
			c29.429-3.016,34.174-9.374,51.521-27.134c10.377-10.625,26.156-17.701,37.16-21.672l-11.354-6.555
			c-4.362,2.823-9.511,6.474-15.591,11.162C259.92,408.533,221.6,416.652,206.332,419.084"/>
	</g>
</g>
<path fill="#D1CC29" d="M284.241,363.651c-2.304-0.027-4.622,0.46-6.37,1.469l-65.352,37.731c-3.403,1.965-6.188,6.787-6.188,10.718
	v5.515c15.269-2.432,53.589-10.551,83.808-33.863c6.08-4.688,11.229-8.339,15.592-11.162l-15.483-8.939
	C288.592,364.164,286.423,363.677,284.241,363.651"/>
<path fill="#1A1A19" d="M284.058,369.157l0.118,0.001c1.312,0.015,2.552,0.289,3.318,0.731l17.047,9.842
	c-9.818,4.395-20.588,10.548-28.558,18.708c-0.896,0.917-1.759,1.804-2.593,2.661c-15.075,15.505-19.625,20.186-45.549,22.842
	c-4.905,0.502-10.266,1.61-16.004,3.307v-13.68c0-1.964,1.733-4.967,3.435-5.948l65.353-37.731
	C281.237,369.535,282.461,369.157,284.058,369.157 M284.058,363.649c-2.243,0-4.485,0.488-6.187,1.471l-65.353,37.73
	c-3.403,1.965-6.188,6.788-6.188,10.718l1.002,21.286c7.387-2.668,13.954-4.706,21.071-5.435
	c29.429-3.016,34.174-9.374,51.521-27.134c10.377-10.625,26.156-17.701,37.16-21.672l-26.836-15.494
	c-1.656-0.956-3.824-1.443-6.007-1.469C284.18,363.649,284.119,363.649,284.058,363.649"/>
<g>
	<defs>
		<path id="SVGID_7_" d="M277.87,365.12l-65.353,37.731c-3.401,1.965-6.187,6.787-6.187,10.718v75.462
			c0,3.93,2.785,8.753,6.187,10.717l65.353,37.732c1.75,1.009,4.067,1.496,6.371,1.47c2.182-0.026,4.351-0.515,6.007-1.47
			l65.352-37.732c3.403-1.964,6.188-6.787,6.188-10.717v-75.462c0-3.931-2.784-8.753-6.188-10.718l-65.352-37.731
			c-1.656-0.956-3.825-1.444-6.007-1.468c-0.064-0.001-0.128-0.001-0.192-0.001C281.811,363.65,279.57,364.139,277.87,365.12"/>
	</defs>
	<clipPath id="SVGID_8_">
		<use xlink:href="#SVGID_7_"  overflow="visible"/>
	</clipPath>
	<path clip-path="url(#SVGID_8_)" fill="#FFFFFF" d="M265.465,492.343h-0.004c-4.559,0-8.373-1.081-11.334-3.214
		c-2.926-2.106-4.527-5.121-4.632-8.717c-0.453-15.609,30.213-40.974,33.711-43.814l0.476-0.387l94.875-36.468
		c3.731-2.097,12.244-6.602,16.482-6.602c2.297,0,4.1,1.15,4.819,3.077c1.06,2.838-0.47,5.893-5.847,11.676
		c-4.547,4.894-12.062,11.896-22.336,20.815C325.094,469.148,286.381,492.343,265.465,492.343 M287.605,442.981
		c-12.086,9.908-30.643,28.413-30.387,37.206c0.035,1.193,0.448,1.967,1.424,2.67c1.619,1.166,3.914,1.758,6.82,1.758
		c18.799,0.002,56.612-23.079,101.147-61.741c10.493-9.11,16.748-15.041,20.473-18.884c-1.624,0.799-3.333,1.694-4.976,2.623
		l-0.514,0.242L287.605,442.981z"/>
	<path clip-path="url(#SVGID_8_)" fill="#231F20" d="M285.642,439.598c0,0-44.032,35.758-29.257,46.396
		c14.776,10.64,58.974-13.51,112.758-60.202c53.785-46.69,11.064-22.543,11.064-22.543L285.642,439.598z"/>
	<path clip-path="url(#SVGID_8_)" fill="#205228" d="M340.322,365.096l-36.957,17.584h-4.173c-1.233,0-3.146,0.418-4.267,0.933
		l-13.842,6.355c-2.18,1.16-3.723,2.399-3.351,4.187c0.22,1.051,1.49,1.64,1.49,1.64l-0.298,5.663l-11.027,2.385l-1.49,7.152
		l2.832,2.086l-0.597,2.086l-5.812,2.684l-5.067,13.71c-28.313,14.306-18.181,27.867-18.181,27.867l34.117,12.188l46.617-16.009
		c3.087-1.06,7.667-3.559,10.229-5.582l51.51-40.665l-0.781-12.172l-2.505-25.832L340.322,365.096z"/>
	<path clip-path="url(#SVGID_8_)" fill="#FFFFFF" d="M302.695,439.904l4.471-14.306l11.064-6.595l5.924-14.529l54.971-29.453
		l-0.354-3.667l-38.448-6.259l-36.957,17.585h-4.173c-1.235,0-3.146,0.417-4.267,0.932l-13.842,6.355
		c-2.18,1.161-3.723,2.398-3.351,4.187c0.22,1.051,1.49,1.64,1.49,1.64l-0.298,5.662l-11.027,2.386l-1.49,7.152l2.832,2.086
		l-0.597,2.086l-5.812,2.684l-5.067,13.71c-28.313,14.306-18.181,27.867-18.181,27.867s0.738,0.31,1.891,0.786
		C250.105,460.709,269.988,458.902,302.695,439.904"/>
	<path clip-path="url(#SVGID_8_)" fill="#A8AAAD" d="M323.957,404.277l-5.924,14.53l-11.064,6.594l-4.471,14.306
		c-32.706,18.998-54.249,20.288-62.881,19.791c2.562,2.758,7.093,3.94,10.5,4.053c8.703-0.813,29.664-5.379,55.846-19.262
		c29.581-15.684,67.094-41.681,75.115-47.3l-2.149-22.165L323.957,404.277z"/>
	<path clip-path="url(#SVGID_8_)" fill="#231F20" d="M337.014,394.527v-3.576l-14.529,8.27c0.445-0.01-38.111,0.449-44.93-6.369
		c0,0-1.678,1.788,1.229,3.241c8.54,4.27,38.672,6.259,45.042,5.476L337.014,394.527z"/>
	<path clip-path="url(#SVGID_8_)" fill="#231F20" d="M323.483,403.692c0,0-4.583,1.341-8.159,1.006l-1.564,4.359
		c0,0-24.029,0-33.529-4.024l1.005-5.029l-2.347-1.564l0.037,3.018l-12.125,1.428l1.098,0.957c0,0,2.384,3.315,15.796,5.774
		c17.838,3.271,32.636,1.452,32.636,1.452l5.924-3.688L323.483,403.692z"/>
	<path clip-path="url(#SVGID_8_)" fill="#231F20" d="M267.488,408.833c0,0,0.656,0.365,1.855,0.87
		c0.596,0.262,1.338,0.532,2.182,0.848c0.859,0.283,1.813,0.633,2.884,0.927c1.06,0.325,2.226,0.61,3.457,0.916
		c1.229,0.308,2.551,0.539,3.901,0.828c1.367,0.213,2.767,0.501,4.213,0.668c1.439,0.194,2.899,0.409,4.375,0.51
		c0.735,0.075,1.471,0.149,2.203,0.225c0.732,0.068,1.467,0.091,2.193,0.138c1.454,0.071,2.883,0.216,4.273,0.219
		c1.389,0.02,2.731,0.111,4.007,0.119c1.276-0.01,2.483,0.003,3.6,0.017c1.116,0.023,2.14,0.011,3.048-0.012
		c0.909-0.01,1.702-0.019,2.355-0.025c1.311,0.009,2.059,0.013,2.059,0.013s-0.736,0.125-2.027,0.343
		c-0.649,0.097-1.437,0.216-2.34,0.352c-0.902,0.14-1.924,0.28-3.045,0.356c-1.121,0.099-2.336,0.204-3.623,0.292
		c-1.285,0.081-2.647,0.097-4.056,0.121c-1.409,0.042-2.864,0.002-4.344-0.07c-1.481-0.037-2.981-0.163-4.481-0.308
		c-1.5-0.124-2.99-0.362-4.457-0.583c-0.736-0.095-1.461-0.228-2.171-0.392c-0.712-0.149-1.415-0.299-2.106-0.445
		c-1.375-0.338-2.698-0.684-3.934-1.082c-0.615-0.203-1.214-0.401-1.793-0.593c-0.574-0.206-1.119-0.437-1.646-0.641
		c-1.059-0.394-1.987-0.872-2.814-1.265c-0.818-0.418-1.517-0.81-2.076-1.16c-0.564-0.337-0.981-0.647-1.266-0.854
		C267.63,408.954,267.488,408.833,267.488,408.833"/>
	<path clip-path="url(#SVGID_8_)" fill="#231F20" d="M262.832,417.85c0,0,6.78,6.408,26.227,7.86
		c19.447,1.453,18.107-0.112,18.107-0.112l12.873-7.293l-1.25-1.983l-0.314,0.144l-7.397,1.98l-4.056,4.773
		c0,0-28.612,0.895-39.23-5.812l0.77-2.32L262.832,417.85z"/>
	<path clip-path="url(#SVGID_8_)" fill="#A8AAAD" d="M257.393,435.285c0,0-16.989,8.867-15.871,19.373
		c0,0,10.804,5.364,48.953-11.922c0,0-13.538,0.72-23.471-1.49C261.834,440.095,258.659,437.967,257.393,435.285"/>
	<path clip-path="url(#SVGID_8_)" fill="#231F20" d="M336.002,393.745c-0.329,0-0.646-0.183-0.803-0.497
		c-0.219-0.442-0.039-0.979,0.404-1.198c1.418-0.706,2.948-1.957,2.874-2.575c-0.01-0.081-0.179-0.816-3.008-1.452
		c-9.774-2.197-39.595-4.723-39.894-4.748c-0.492-0.041-0.857-0.474-0.815-0.966c0.041-0.492,0.472-0.861,0.966-0.816
		c1.23,0.104,30.242,2.563,40.135,4.785c2.789,0.627,4.226,1.604,4.392,2.985c0.268,2.226-3.164,4.046-3.854,4.389
		C336.271,393.716,336.135,393.745,336.002,393.745"/>
	
		<rect x="335.946" y="392.739" transform="matrix(0.9998 0.0213 -0.0213 0.9998 8.5004 -7.0872)" clip-path="url(#SVGID_8_)" fill="#111715" width="1.788" height="5.254"/>
	<path clip-path="url(#SVGID_8_)" fill="#A8AAAD" d="M311.189,403.99c0,0-17.66-0.745-27.793-3.576l-0.895,3.278
		c0,0,7.525,3.725,27.867,3.65L311.189,403.99z"/>
	<path clip-path="url(#SVGID_8_)" fill="#A8AAAD" d="M257.951,436.663c0,0-15.2,5.253-16.43,17.547"/>
	<path clip-path="url(#SVGID_8_)" fill="#231F20" d="M258.404,437.926c-0.019,0.009-0.351,0.097-0.97,0.32
		c-0.624,0.214-1.51,0.57-2.562,1.035c-0.513,0.254-1.09,0.498-1.666,0.817c-0.584,0.306-1.197,0.636-1.807,1.019
		c-0.629,0.357-1.232,0.789-1.857,1.217c-0.629,0.426-1.203,0.934-1.816,1.403c-0.55,0.532-1.15,1.027-1.658,1.589
		c-0.484,0.577-1.046,1.094-1.436,1.703c-0.411,0.594-0.866,1.142-1.152,1.743c-0.298,0.593-0.679,1.119-0.852,1.679
		c-0.211,0.548-0.405,1.05-0.577,1.496c-0.127,0.457-0.206,0.868-0.287,1.203c-0.155,0.674-0.243,1.061-0.243,1.061
		s0.047-0.394,0.129-1.08c0.047-0.344,0.082-0.768,0.161-1.246c0.127-0.471,0.269-1,0.425-1.578
		c0.119-0.597,0.443-1.168,0.689-1.816c0.234-0.657,0.637-1.268,1.003-1.934c0.344-0.683,0.86-1.275,1.31-1.938
		c0.471-0.646,1.037-1.227,1.562-1.852c0.585-0.557,1.14-1.16,1.75-1.677c0.606-0.519,1.198-1.043,1.817-1.488
		c0.601-0.472,1.209-0.888,1.791-1.276c0.573-0.402,1.151-0.724,1.668-1.053c1.062-0.609,1.965-1.09,2.621-1.396
		c0.319-0.157,0.594-0.278,0.781-0.36c0.176-0.076,0.27-0.116,0.27-0.116L258.404,437.926z"/>
	<path clip-path="url(#SVGID_8_)" fill="#231F20" d="M258.021,435.033c0,0,0.014,0.031,0.045,0.093
		c0.018,0.03,0.045,0.077,0.08,0.137c0.092,0.14,0.268,0.409,0.549,0.714c0.125,0.162,0.297,0.327,0.487,0.506
		c0.187,0.181,0.386,0.379,0.638,0.563c0.467,0.403,1.065,0.788,1.723,1.211c0.695,0.368,1.425,0.824,2.285,1.159
		c0.424,0.177,0.851,0.38,1.306,0.551c0.461,0.157,0.933,0.318,1.412,0.482c0.95,0.357,1.996,0.553,3.028,0.849
		c1.049,0.246,2.133,0.422,3.211,0.64c1.086,0.167,2.183,0.291,3.26,0.438c1.078,0.139,2.152,0.176,3.186,0.265
		c1.036,0.095,2.041,0.133,2.993,0.144c0.954,0.021,1.856,0.043,2.69,0.062c0.832,0.015,1.596-0.026,2.273-0.034
		c0.678-0.016,1.27-0.029,1.756-0.04c0.975-0.021,1.531-0.034,1.531-0.034s-0.554,0.054-1.523,0.149
		c-0.485,0.047-1.074,0.106-1.75,0.172c-0.676,0.06-1.438,0.158-2.273,0.206c-0.836,0.044-1.742,0.091-2.7,0.141
		c-0.959,0.063-1.972,0.102-3.021,0.084c-1.049-0.012-2.137,0.032-3.24-0.025c-1.104-0.065-2.227-0.107-3.35-0.194
		c-1.119-0.139-2.246-0.237-3.348-0.409c-1.095-0.225-2.191-0.347-3.225-0.647c-0.521-0.135-1.032-0.269-1.532-0.397
		c-0.498-0.146-0.978-0.328-1.448-0.485c-0.949-0.293-1.805-0.731-2.609-1.087c-0.783-0.422-1.502-0.814-2.103-1.254
		c-0.311-0.197-0.583-0.424-0.835-0.634c-0.254-0.204-0.484-0.397-0.68-0.604c-0.406-0.387-0.686-0.734-0.9-1.018
		c-0.105-0.16-0.186-0.281-0.24-0.363c-0.033-0.059-0.051-0.088-0.051-0.088L258.021,435.033z"/>
	<polygon clip-path="url(#SVGID_8_)" fill="#111715" points="378.889,373.567 322.484,406.204 323.043,400.057 373.492,371.017 	"/>
	
		<rect x="319.258" y="404.839" transform="matrix(0.961 0.2767 -0.2767 0.961 126.3871 -72.6486)" clip-path="url(#SVGID_8_)" fill="#111715" width="2.76" height="13.427"/>
	<polygon clip-path="url(#SVGID_8_)" fill="#231F20" points="326.017,411.594 375.789,382.608 374.896,386.632 325.793,415.17 	"/>
	<polygon clip-path="url(#SVGID_8_)" fill="#231F20" points="326.017,417.853 375.789,388.867 374.896,392.892 325.793,421.429 	"/>
	<polygon clip-path="url(#SVGID_8_)" fill="#231F20" points="326.017,424.2 375.789,395.215 374.896,399.239 325.793,427.777 	"/>
	<path clip-path="url(#SVGID_8_)" fill="#FFFFFF" d="M340.322,365.095l38.447,6.259l2.506,25.832l0.781,12.172l-51.509,37.905
		c-2.562,2.022-7.142,4.521-10.229,5.582l-46.617,18.769l-34.117-12.188c0,0-10.133-13.561,18.181-27.867l5.066-13.709l5.812-2.683
		l0.596-2.087l-2.83-2.086l1.49-7.152l11.027-2.385l0.299-5.663c0,0-1.271-0.589-1.492-1.64c-0.371-1.788,1.172-3.026,3.352-4.186
		l13.842-6.355c1.122-0.515,3.032-0.933,4.268-0.933h4.172L340.322,365.095 M339.182,357.08l-2.18,1.037l-35.382,16.835h-2.427
		c-2.348,0-5.358,0.658-7.492,1.637l-13.842,6.356l-0.207,0.094l-0.199,0.107c-7.522,4.004-7.879,9.321-7.34,12.309l-3.849,0.833
		l-4.909,1.062l-1.023,4.916l-1.49,7.152l-0.406,1.948l-1.744,0.806l-1.108,2.998l-4.041,10.933
		c-11.903,6.532-18.929,14.086-20.899,22.478c-1.555,6.622,0.51,12.473,2.752,15.473l1.395,1.866l2.195,0.785l34.117,12.188
		l2.764,0.986l2.722-1.096l46.448-18.7c3.834-1.354,9.002-4.179,12.189-6.666l51.412-37.834l3.403-2.504l-0.271-4.216l-0.783-12.172
		l-0.008-0.126l-0.012-0.125l-2.505-25.832l-0.574-5.925l-5.876-0.957l-38.447-6.258L339.182,357.08z"/>
	<path clip-path="url(#SVGID_8_)" fill="#231F20" d="M340.322,365.096l38.447,6.258l2.506,25.832l0.781,12.174l-51.51,37.904
		c-2.562,2.023-7.141,4.522-10.229,5.582L273.7,471.614l-34.116-12.188c0,0-10.134-13.561,18.18-27.867l5.067-13.71l5.812-2.682
		l0.597-2.087l-2.831-2.086l1.49-7.153l11.027-2.384l0.299-5.663c0,0-1.272-0.589-1.492-1.639c-0.371-1.788,1.172-3.027,3.352-4.188
		l13.842-6.354c1.121-0.516,3.032-0.934,4.266-0.934h4.174L340.322,365.096 M339.756,361.111l-1.084,0.516l-36.174,17.211h-3.307
		c-1.78,0-4.25,0.54-5.868,1.283l-13.843,6.355l-0.103,0.048l-0.1,0.053c-1.569,0.835-6.345,3.377-5.306,8.361
		c0.224,1.074,0.736,1.929,1.313,2.587l-0.042,0.797l-8.157,1.764l-2.439,0.528l-0.51,2.443l-1.49,7.153l-0.502,2.414l1.094,0.806
		l-2.018,0.931l-1.442,0.666l-0.55,1.489l-4.551,12.313c-11.666,6.142-18.478,13.081-20.252,20.639
		c-1.645,7.007,1.694,11.741,2.08,12.259l0.694,0.928l1.092,0.39l34.116,12.188l1.374,0.49l1.353-0.545l46.531-18.732
		c3.455-1.206,8.34-3.874,11.209-6.124l51.459-37.868l1.691-1.245l-0.135-2.096l-0.781-12.172l-0.004-0.062l-0.008-0.062
		l-2.504-25.832l-0.285-2.946l-2.922-0.475l-38.447-6.259L339.756,361.111z"/>
	<path clip-path="url(#SVGID_8_)" fill="#231F20" d="M300.89,427.043c-29.636,0-39.94-8.332-40.39-8.709l1.148-1.371l-0.574,0.686
		l0.572-0.688c0.113,0.095,11.712,9.358,45.041,8.19l0.063,1.788C304.717,427.01,302.765,427.043,300.89,427.043"/>
	<path clip-path="url(#SVGID_8_)" fill="#231F20" d="M267.898,441.916c-0.107,0-0.217-0.02-0.322-0.061
		c-0.461-0.178-0.689-0.695-0.512-1.156l6.482-16.764c0.176-0.462,0.696-0.692,1.156-0.512c0.461,0.178,0.689,0.695,0.512,1.155
		l-6.482,16.766C268.596,441.699,268.256,441.916,267.898,441.916"/>
	<polygon clip-path="url(#SVGID_8_)" fill="#231F20" points="307.068,426.246 304.036,435.434 305.325,425.845 	"/>
	<polygon clip-path="url(#SVGID_8_)" fill="#231F20" points="305.425,425.622 313.052,421.91 306.373,427.139 	"/>
	<path clip-path="url(#SVGID_8_)" fill="#A8AAAD" d="M297.051,385.138l-6.789,4.028c-2.621,1.555-2.295,3.121,0.73,3.498
		l22.303,2.776c3.025,0.376,7.484-0.492,9.963-1.94c2.477-1.448,2.139-3.396-0.758-4.351l-15.459-5.098
		C304.146,383.096,299.673,383.583,297.051,385.138"/>
	<path clip-path="url(#SVGID_8_)" fill="#D1CC29" d="M328.45,509.43c-1.933,14.728-10.483,22.893-16.906,32.669l30.767-3.695
		c1.897-0.228,3.924-1.139,5.687-2.427c1.858-1.36,3.423-3.141,4.217-4.996l29.667-69.385c1.545-3.614,0.88-9.145-1.477-12.289
		l-12.766-17.033c-4.312,6.564-5.367-3.04-10.623,1.812C335.273,454.148,331.68,484.816,328.45,509.43"/>
	<path clip-path="url(#SVGID_8_)" fill="#1A1A19" d="M360.391,437.163c1.083,1.302,2.705,2.521,5.12,2.521
		c0.263,0,0.519-0.015,0.767-0.044l9.721,12.97c1.178,1.572,1.591,5.015,0.818,6.82l-29.666,69.385
		c-0.289,0.674-1.072,1.742-2.404,2.717c-1.059,0.773-2.215,1.299-3.094,1.403l-19.543,2.349
		c5.221-9.404,10.148-20.787,11.633-32.097C336.828,479.661,342.24,455.469,360.391,437.163 M361.229,429.656
		c-0.578,0-1.275,0.316-2.144,1.117c-21.741,20.063-27.573,47.082-30.804,71.696c-1.933,14.728-10.314,29.853-16.738,39.629
		l30.767-3.696c1.898-0.228,3.925-1.139,5.687-2.427c1.859-1.358,3.424-3.14,4.217-4.995l29.667-69.386
		c1.545-3.614,0.881-9.143-1.476-12.288l-12.766-17.033c-0.91,1.386-1.583,1.903-2.128,1.903
		C363.902,434.177,363.412,429.656,361.229,429.656"/>
</g>
<path fill="#1A1A19" d="M284.058,371.93l0.085,0.001c1.117,0.014,1.811,0.271,1.965,0.359l65.352,37.731
	c0.842,0.486,2.049,2.575,2.049,3.548v75.462c0,0.973-1.207,3.061-2.049,3.547l-65.352,37.73c-0.155,0.09-0.848,0.348-1.962,0.36
	l-0.088,0.001c-1.074,0-1.843-0.243-2.046-0.361l-65.353-37.73c-0.843-0.486-2.048-2.574-2.048-3.547v-75.462
	c0-0.974,1.206-3.062,2.048-3.548l65.353-37.73C282.215,372.173,282.983,371.93,284.058,371.93 M284.058,363.65
	c-2.243,0-4.485,0.488-6.187,1.47l-65.353,37.731c-3.403,1.965-6.188,6.787-6.188,10.718v75.462c0,3.93,2.785,8.753,6.188,10.718
	l65.353,37.731c1.701,0.981,3.943,1.47,6.187,1.47c0.062,0,0.122,0,0.184-0.001c2.183-0.026,4.351-0.514,6.007-1.469l65.352-37.731
	c3.402-1.965,6.188-6.788,6.188-10.718v-75.462c0-3.931-2.785-8.753-6.188-10.718l-65.352-37.731
	c-1.656-0.956-3.824-1.443-6.007-1.469C284.18,363.65,284.119,363.65,284.058,363.65"/>
<polygon fill="#231F20" points="253.774,466.548 256.811,476.3 273.83,479.612 329.399,456.888 357.551,436.556 356.447,431.036 
	327.375,451.828 283.766,471.148 275.118,473.54 267.758,472.804 259.479,469.676 "/>
<path fill="#231F20" d="M265.299,482.798l7.729-6.624l62.375-26.772c0,0,0.736,5.244-11.59,11.408
	c-12.328,6.164-43.793,20.332-43.793,20.332L265.299,482.798z"/>
<polygon fill="#231F20" points="253.432,467.434 255.179,474.701 259.688,475.162 "/>
</svg>
