<?xml version="1.0" encoding="utf-8"?>
<!-- Generator: Adobe Illustrator 16.0.0, SVG Export Plug-In . SVG Version: 6.00 Build 0)  -->
<!DOCTYPE svg PUBLIC "-//W3C//DTD SVG 1.1//EN" "http://www.w3.org/Graphics/SVG/1.1/DTD/svg11.dtd">
<svg version="1.1" id="Layer_1" xmlns="http://www.w3.org/2000/svg" xmlns:xlink="http://www.w3.org/1999/xlink" x="0px" y="0px"
	 width="240px" height="195px" viewBox="0 0 240 195" enable-background="new 0 0 240 195" xml:space="preserve">
<path fill="#609AD2" d="M27.246,166.479"/>
<path fill="#FFFFFF" d="M27.246,166.729"/>
<path fill="#231F20" d="M27.246,166.73"/>
<path fill="#7CAE42" d="M197.6,49.851l-65.352-37.729c-1.656-0.956-3.824-1.443-6.007-1.469c-0.153-0.001-0.306,0.005-0.457,0.008
	c-2.151,0.038-4.28,0.519-5.913,1.461L54.518,49.851c-3.403,1.967-6.188,6.788-6.188,10.72v75.463c0,3.93,2.785,8.754,6.188,10.718
	l65.353,37.73c1.633,0.941,3.762,1.425,5.913,1.462c0.151,0.003,0.304,0.01,0.457,0.008c2.183-0.026,4.351-0.516,6.007-1.47
	l65.352-37.73c3.402-1.964,6.188-6.788,6.188-10.718V60.57C203.787,56.639,201.002,51.815,197.6,49.851"/>
<path fill="#50833C" d="M197.6,49.851l-65.352-37.729c-1.656-0.956-3.824-1.443-6.007-1.469c-0.153-0.001-0.306,0.005-0.457,0.008
	v175.283c0.151,0.003,0.304,0.01,0.457,0.008c2.183-0.026,4.351-0.516,6.007-1.47l65.352-37.73
	c3.402-1.964,6.188-6.788,6.188-10.718V60.57C203.787,56.639,201.002,51.815,197.6,49.851"/>
<g opacity="0.4">
	<g>
		<g>
			<g>
				<defs>
					<rect id="SVGID_1_" x="48.33" y="10.65" width="155.46" height="175.3"/>
				</defs>
				<clipPath id="SVGID_2_">
					<use xlink:href="#SVGID_1_"  overflow="visible"/>
				</clipPath>
				<path clip-path="url(#SVGID_2_)" fill="#FFFFFF" d="M126.061,26.034l62.582,36.133v72.266l-62.582,36.135l-62.584-36.135V62.167
					L126.061,26.034 M126.059,10.649c-2.244,0-4.485,0.487-6.188,1.471L54.518,49.849c-3.403,1.967-6.188,6.788-6.188,10.72v75.463
					c0,3.93,2.785,8.754,6.188,10.718l65.353,37.729c1.701,0.982,3.943,1.472,6.188,1.472c0.062,0,0.121,0,0.184,0
					c2.183-0.026,4.351-0.516,6.007-1.472l65.353-37.729c3.401-1.964,6.188-6.788,6.188-10.718V60.568
					c0-3.932-2.785-8.753-6.188-10.72L132.249,12.12c-1.656-0.956-3.824-1.443-6.007-1.469
					C126.18,10.649,126.118,10.649,126.059,10.649"/>
			</g>
		</g>
	</g>
</g>
<g opacity="0.6">
	<g>
		<g>
			<g>
				<defs>
					<rect id="SVGID_3_" x="51.08" y="21.66" width="110.76" height="71.21"/>
				</defs>
				<clipPath id="SVGID_4_">
					<use xlink:href="#SVGID_3_"  overflow="visible"/>
				</clipPath>
				<path clip-path="url(#SVGID_4_)" fill="#768F3B" d="M124.677,60.3c10.378-10.625,26.157-17.701,37.159-21.673L135,23.134
					c-1.654-0.956-3.823-1.442-6.006-1.469c-2.303-0.027-4.621,0.46-6.369,1.469L57.272,60.865
					c-3.403,1.965-6.188,6.788-6.188,10.718v21.286c7.388-2.668,14.957-4.706,22.072-5.438
					C102.586,84.417,107.33,78.059,124.677,60.3"/>
			</g>
		</g>
	</g>
</g>
<path fill="#5ABA49" d="M121.924,49.286c10.377-10.625,26.156-17.701,37.159-21.673l-26.836-15.494
	c-1.655-0.955-3.823-1.442-6.006-1.468c-2.304-0.028-4.622,0.459-6.37,1.468L54.519,49.849c-3.404,1.968-6.188,6.788-6.188,10.721
	v21.286c7.388-2.668,14.956-4.706,22.072-5.438C99.833,73.403,104.577,67.045,121.924,49.286"/>
<path fill="#D1CB29" d="M48.332,66.084v15.771c7.387-2.671,14.955-4.707,22.071-5.438c29.429-3.016,34.174-9.374,51.521-27.134
	c10.377-10.625,26.156-17.701,37.16-21.672l-11.354-6.556c-4.362,2.823-9.512,6.475-15.592,11.162
	C101.92,55.533,63.6,63.652,48.332,66.084"/>
<g opacity="0.6">
	<g>
		<g>
			<g>
				<defs>
					<rect id="SVGID_5_" x="48.33" y="21.06" width="110.75" height="60.79"/>
				</defs>
				<clipPath id="SVGID_6_">
					<use xlink:href="#SVGID_5_"  overflow="visible"/>
				</clipPath>
				<path clip-path="url(#SVGID_6_)" fill="#768F3B" d="M48.332,66.084v15.771c7.387-2.671,14.955-4.707,22.071-5.438
					c29.429-3.016,34.174-9.374,51.521-27.134c10.377-10.625,26.156-17.701,37.16-21.672l-11.354-6.556
					c-4.362,2.823-9.512,6.475-15.592,11.162C101.92,55.533,63.6,63.652,48.332,66.084"/>
			</g>
		</g>
	</g>
</g>
<path fill="#D1CB29" d="M126.241,10.651c-2.304-0.027-4.622,0.46-6.37,1.469L54.519,49.85c-3.403,1.967-6.188,6.787-6.188,10.72
	v5.515c15.269-2.432,53.589-10.551,83.808-33.863c6.08-4.688,11.229-8.339,15.592-11.162l-15.482-8.938
	C130.592,11.164,128.423,10.677,126.241,10.651"/>
<path fill="#1A1A19" d="M126.059,16.157l0.117,0.001c1.313,0.015,2.553,0.289,3.318,0.73l17.047,9.843
	c-9.818,4.395-20.588,10.548-28.558,18.708c-0.896,0.917-1.759,1.804-2.593,2.659c-15.075,15.507-19.625,20.188-45.549,22.844
	c-4.905,0.502-10.266,1.608-16.004,3.307v-13.68c0-1.964,1.733-4.969,3.435-5.948l65.353-37.731
	C123.236,16.535,124.461,16.157,126.059,16.157 M126.059,10.649c-2.244,0-4.485,0.487-6.188,1.471L54.518,49.849
	c-3.403,1.967-6.188,6.788-6.188,10.72l1.002,21.284c7.387-2.668,13.954-4.704,21.071-5.435
	c29.429-3.016,34.174-9.374,51.521-27.134c10.377-10.625,26.156-17.701,37.16-21.672l-26.836-15.494
	c-1.656-0.956-3.824-1.443-6.007-1.469C126.18,10.649,126.119,10.649,126.059,10.649"/>
<g>
	<g>
		<g>
			<defs>
				<path id="SVGID_7_" d="M119.87,12.12L54.517,49.85c-3.401,1.967-6.187,6.787-6.187,10.72v75.462
					c0,3.93,2.785,8.753,6.187,10.717l65.353,37.732c1.75,1.009,4.067,1.494,6.371,1.47c2.182-0.026,4.351-0.517,6.007-1.47
					l65.352-37.732c3.403-1.964,6.188-6.787,6.188-10.717V60.569c0-3.933-2.784-8.753-6.188-10.72L132.248,12.12
					c-1.656-0.956-3.825-1.444-6.007-1.468c-0.064-0.001-0.128-0.001-0.192-0.001C123.811,10.65,121.57,11.139,119.87,12.12"/>
			</defs>
			<clipPath id="SVGID_8_">
				<use xlink:href="#SVGID_7_"  overflow="visible"/>
			</clipPath>
			<path clip-path="url(#SVGID_8_)" fill="#FFFFFF" d="M107.465,139.343h-0.004c-4.559,0-8.373-1.081-11.334-3.214
				c-2.926-2.104-4.527-5.121-4.632-8.717c-0.453-15.609,30.213-40.976,33.711-43.814l0.476-0.387l94.875-36.468
				c3.731-2.097,12.244-6.603,16.482-6.603c2.297,0,4.1,1.15,4.819,3.077c1.06,2.838-0.472,5.895-5.849,11.676
				c-4.547,4.896-12.062,11.896-22.336,20.815C167.094,116.148,128.381,139.343,107.465,139.343 M129.605,89.981
				c-12.086,9.906-30.644,28.411-30.388,37.204c0.035,1.193,0.448,1.969,1.424,2.672c1.619,1.166,3.914,1.758,6.82,1.758
				c18.8,0.002,56.612-23.079,101.147-61.741c10.492-9.11,16.748-15.041,20.473-18.884c-1.624,0.799-3.333,1.692-4.977,2.623
				l-0.515,0.241L129.605,89.981z"/>
		</g>
	</g>
	<g>
		<g>
			<defs>
				<path id="SVGID_9_" d="M119.87,12.12L54.517,49.85c-3.401,1.967-6.187,6.787-6.187,10.72v75.462
					c0,3.93,2.785,8.753,6.187,10.717l65.353,37.732c1.75,1.009,4.067,1.494,6.371,1.47c2.182-0.026,4.351-0.517,6.007-1.47
					l65.352-37.732c3.403-1.964,6.188-6.787,6.188-10.717V60.569c0-3.933-2.784-8.753-6.188-10.72L132.248,12.12
					c-1.656-0.956-3.825-1.444-6.007-1.468c-0.064-0.001-0.128-0.001-0.192-0.001C123.811,10.65,121.57,11.139,119.87,12.12"/>
			</defs>
			<clipPath id="SVGID_10_">
				<use xlink:href="#SVGID_9_"  overflow="visible"/>
			</clipPath>
			<path clip-path="url(#SVGID_10_)" fill="#231F20" d="M127.643,86.598c0,0-44.033,35.76-29.258,46.396
				c14.776,10.64,58.975-13.51,112.758-60.202c53.785-46.69,11.064-22.543,11.064-22.543L127.643,86.598z"/>
		</g>
	</g>
	<g>
		<g>
			<defs>
				<path id="SVGID_11_" d="M119.87,12.12L54.517,49.85c-3.401,1.967-6.187,6.787-6.187,10.72v75.462
					c0,3.93,2.785,8.753,6.187,10.717l65.353,37.732c1.75,1.009,4.067,1.494,6.371,1.47c2.182-0.026,4.351-0.517,6.007-1.47
					l65.352-37.732c3.403-1.964,6.188-6.787,6.188-10.717V60.569c0-3.933-2.784-8.753-6.188-10.72L132.248,12.12
					c-1.656-0.956-3.825-1.444-6.007-1.468c-0.064-0.001-0.128-0.001-0.192-0.001C123.811,10.65,121.57,11.139,119.87,12.12"/>
			</defs>
			<clipPath id="SVGID_12_">
				<use xlink:href="#SVGID_11_"  overflow="visible"/>
			</clipPath>
			<path clip-path="url(#SVGID_12_)" fill="#235329" d="M182.322,12.096L145.365,29.68h-4.174c-1.232,0-3.146,0.418-4.267,0.934
				l-13.842,6.354c-2.18,1.16-3.723,2.399-3.351,4.188c0.22,1.051,1.491,1.64,1.491,1.64l-0.299,5.663l-11.027,2.385l-1.49,7.152
				l2.832,2.086l-0.597,2.086l-5.812,2.684l-5.067,13.711c-28.313,14.307-18.181,27.866-18.181,27.866l34.117,12.188l46.617-16.009
				c3.086-1.062,7.666-3.561,10.229-5.582l51.51-40.665l-0.779-12.172l-2.506-25.833L182.322,12.096z"/>
		</g>
	</g>
	<g>
		<g>
			<defs>
				<path id="SVGID_13_" d="M119.87,12.12L54.517,49.85c-3.401,1.967-6.187,6.787-6.187,10.72v75.462
					c0,3.93,2.785,8.753,6.187,10.717l65.353,37.732c1.75,1.009,4.067,1.494,6.371,1.47c2.182-0.026,4.351-0.517,6.007-1.47
					l65.352-37.732c3.403-1.964,6.188-6.787,6.188-10.717V60.569c0-3.933-2.784-8.753-6.188-10.72L132.248,12.12
					c-1.656-0.956-3.825-1.444-6.007-1.468c-0.064-0.001-0.128-0.001-0.192-0.001C123.811,10.65,121.57,11.139,119.87,12.12"/>
			</defs>
			<clipPath id="SVGID_14_">
				<use xlink:href="#SVGID_13_"  overflow="visible"/>
			</clipPath>
			<path clip-path="url(#SVGID_14_)" fill="#FFFFFF" d="M144.695,86.904l4.471-14.308l11.064-6.595l5.924-14.529l54.971-29.453
				l-0.354-3.667l-38.448-6.259l-36.957,17.585h-4.173c-1.235,0-3.146,0.417-4.268,0.933l-13.842,6.354
				c-2.18,1.161-3.723,2.398-3.351,4.188c0.22,1.051,1.49,1.64,1.49,1.64l-0.298,5.662l-11.027,2.386l-1.49,7.152l2.832,2.086
				l-0.597,2.086l-5.812,2.684l-5.067,13.71c-28.313,14.308-18.181,27.867-18.181,27.867s0.738,0.312,1.891,0.786
				C92.105,107.709,111.988,105.902,144.695,86.904"/>
		</g>
	</g>
	<g>
		<g>
			<defs>
				<path id="SVGID_15_" d="M119.87,12.12L54.517,49.85c-3.401,1.967-6.187,6.787-6.187,10.72v75.462
					c0,3.93,2.785,8.753,6.187,10.717l65.353,37.732c1.75,1.009,4.067,1.494,6.371,1.47c2.182-0.026,4.351-0.517,6.007-1.47
					l65.352-37.732c3.403-1.964,6.188-6.787,6.188-10.717V60.569c0-3.933-2.784-8.753-6.188-10.72L132.248,12.12
					c-1.656-0.956-3.825-1.444-6.007-1.468c-0.064-0.001-0.128-0.001-0.192-0.001C123.811,10.65,121.57,11.139,119.87,12.12"/>
			</defs>
			<clipPath id="SVGID_16_">
				<use xlink:href="#SVGID_15_"  overflow="visible"/>
			</clipPath>
			<path clip-path="url(#SVGID_16_)" fill="#A9ABAE" d="M165.957,51.277l-5.924,14.528l-11.064,6.596l-4.471,14.306
				c-32.706,18.998-54.249,20.288-62.881,19.791c2.562,2.758,7.093,3.938,10.5,4.053c8.703-0.813,29.664-5.379,55.846-19.262
				c29.581-15.684,67.094-41.681,75.115-47.3l-2.148-22.165L165.957,51.277z"/>
		</g>
	</g>
	<g>
		<g>
			<defs>
				<path id="SVGID_17_" d="M119.87,12.12L54.517,49.85c-3.401,1.967-6.187,6.787-6.187,10.72v75.462
					c0,3.93,2.785,8.753,6.187,10.717l65.353,37.732c1.75,1.009,4.067,1.494,6.371,1.47c2.182-0.026,4.351-0.517,6.007-1.47
					l65.352-37.732c3.403-1.964,6.188-6.787,6.188-10.717V60.569c0-3.933-2.784-8.753-6.188-10.72L132.248,12.12
					c-1.656-0.956-3.825-1.444-6.007-1.468c-0.064-0.001-0.128-0.001-0.192-0.001C123.811,10.65,121.57,11.139,119.87,12.12"/>
			</defs>
			<clipPath id="SVGID_18_">
				<use xlink:href="#SVGID_17_"  overflow="visible"/>
			</clipPath>
			<path clip-path="url(#SVGID_18_)" fill="#231F20" d="M179.014,41.527v-3.576l-14.527,8.27c0.443-0.01-38.111,0.449-44.93-6.369
				c0,0-1.678,1.788,1.229,3.241c8.54,4.271,38.672,6.259,45.042,5.478L179.014,41.527z"/>
		</g>
	</g>
	<g>
		<g>
			<defs>
				<path id="SVGID_19_" d="M119.87,12.12L54.517,49.85c-3.401,1.967-6.187,6.787-6.187,10.72v75.462
					c0,3.93,2.785,8.753,6.187,10.717l65.353,37.732c1.75,1.009,4.067,1.494,6.371,1.47c2.182-0.026,4.351-0.517,6.007-1.47
					l65.352-37.732c3.403-1.964,6.188-6.787,6.188-10.717V60.569c0-3.933-2.784-8.753-6.188-10.72L132.248,12.12
					c-1.656-0.956-3.825-1.444-6.007-1.468c-0.064-0.001-0.128-0.001-0.192-0.001C123.811,10.65,121.57,11.139,119.87,12.12"/>
			</defs>
			<clipPath id="SVGID_20_">
				<use xlink:href="#SVGID_19_"  overflow="visible"/>
			</clipPath>
			<path clip-path="url(#SVGID_20_)" fill="#231F20" d="M165.482,50.692c0,0-4.582,1.341-8.158,1.006l-1.564,4.357
				c0,0-24.029,0-33.529-4.022l1.006-5.029l-2.347-1.563l0.037,3.018l-12.125,1.428l1.098,0.957c0,0,2.384,3.315,15.796,5.774
				c17.838,3.271,32.636,1.452,32.636,1.452l5.924-3.688L165.482,50.692z"/>
		</g>
	</g>
	<g>
		<g>
			<defs>
				<path id="SVGID_21_" d="M119.87,12.12L54.517,49.85c-3.401,1.967-6.187,6.787-6.187,10.72v75.462
					c0,3.93,2.785,8.753,6.187,10.717l65.353,37.732c1.75,1.009,4.067,1.494,6.371,1.47c2.182-0.026,4.351-0.517,6.007-1.47
					l65.352-37.732c3.403-1.964,6.188-6.787,6.188-10.717V60.569c0-3.933-2.784-8.753-6.188-10.72L132.248,12.12
					c-1.656-0.956-3.825-1.444-6.007-1.468c-0.064-0.001-0.128-0.001-0.192-0.001C123.811,10.65,121.57,11.139,119.87,12.12"/>
			</defs>
			<clipPath id="SVGID_22_">
				<use xlink:href="#SVGID_21_"  overflow="visible"/>
			</clipPath>
			<path clip-path="url(#SVGID_22_)" fill="#231F20" d="M109.488,55.833c0,0,0.656,0.365,1.855,0.87
				c0.596,0.262,1.338,0.532,2.182,0.848c0.859,0.283,1.813,0.633,2.884,0.927c1.06,0.325,2.226,0.61,3.457,0.916
				c1.229,0.31,2.551,0.539,3.901,0.828c1.366,0.213,2.767,0.501,4.213,0.668c1.438,0.194,2.898,0.409,4.375,0.512
				c0.734,0.073,1.471,0.147,2.203,0.225c0.731,0.068,1.467,0.091,2.192,0.138c1.454,0.071,2.883,0.217,4.272,0.221
				c1.39,0.02,2.731,0.109,4.008,0.117c1.275-0.01,2.482,0.004,3.6,0.019c1.116,0.021,2.141,0.011,3.049-0.012
				c0.908-0.012,1.701-0.021,2.354-0.025c1.312,0.009,2.06,0.013,2.06,0.013s-0.736,0.125-2.027,0.344
				c-0.648,0.098-1.438,0.217-2.34,0.353c-0.901,0.14-1.924,0.28-3.045,0.355c-1.121,0.1-2.336,0.203-3.623,0.292
				c-1.285,0.08-2.647,0.098-4.057,0.12c-1.408,0.042-2.863,0.003-4.344-0.068c-1.48-0.037-2.98-0.163-4.48-0.31
				c-1.5-0.124-2.99-0.36-4.457-0.583c-0.736-0.095-1.461-0.228-2.172-0.392c-0.712-0.149-1.414-0.299-2.105-0.445
				c-1.375-0.338-2.698-0.684-3.934-1.082c-0.615-0.203-1.214-0.399-1.793-0.593c-0.574-0.206-1.119-0.438-1.646-0.641
				c-1.059-0.396-1.987-0.872-2.814-1.267c-0.818-0.418-1.517-0.81-2.076-1.16c-0.564-0.337-0.981-0.646-1.266-0.854
				C109.63,55.954,109.488,55.833,109.488,55.833"/>
		</g>
	</g>
	<g>
		<g>
			<defs>
				<path id="SVGID_23_" d="M119.87,12.12L54.517,49.85c-3.401,1.967-6.187,6.787-6.187,10.72v75.462
					c0,3.93,2.785,8.753,6.187,10.717l65.353,37.732c1.75,1.009,4.067,1.494,6.371,1.47c2.182-0.026,4.351-0.517,6.007-1.47
					l65.352-37.732c3.403-1.964,6.188-6.787,6.188-10.717V60.569c0-3.933-2.784-8.753-6.188-10.72L132.248,12.12
					c-1.656-0.956-3.825-1.444-6.007-1.468c-0.064-0.001-0.128-0.001-0.192-0.001C123.811,10.65,121.57,11.139,119.87,12.12"/>
			</defs>
			<clipPath id="SVGID_24_">
				<use xlink:href="#SVGID_23_"  overflow="visible"/>
			</clipPath>
			<path clip-path="url(#SVGID_24_)" fill="#231F20" d="M104.832,64.85c0,0,6.78,6.408,26.227,7.86
				c19.447,1.453,18.107-0.112,18.107-0.112l12.873-7.293l-1.25-1.981l-0.314,0.144l-7.396,1.98l-4.058,4.771
				c0,0-28.61,0.896-39.229-5.812l0.77-2.32L104.832,64.85z"/>
		</g>
	</g>
	<g>
		<g>
			<defs>
				<path id="SVGID_25_" d="M119.87,12.12L54.517,49.85c-3.401,1.967-6.187,6.787-6.187,10.72v75.462
					c0,3.93,2.785,8.753,6.187,10.717l65.353,37.732c1.75,1.009,4.067,1.494,6.371,1.47c2.182-0.026,4.351-0.517,6.007-1.47
					l65.352-37.732c3.403-1.964,6.188-6.787,6.188-10.717V60.569c0-3.933-2.784-8.753-6.188-10.72L132.248,12.12
					c-1.656-0.956-3.825-1.444-6.007-1.468c-0.064-0.001-0.128-0.001-0.192-0.001C123.811,10.65,121.57,11.139,119.87,12.12"/>
			</defs>
			<clipPath id="SVGID_26_">
				<use xlink:href="#SVGID_25_"  overflow="visible"/>
			</clipPath>
			<path clip-path="url(#SVGID_26_)" fill="#A9ABAE" d="M99.393,82.285c0,0-16.989,8.867-15.871,19.373
				c0,0,10.804,5.364,48.953-11.922c0,0-13.538,0.72-23.471-1.49C103.834,87.095,100.659,84.967,99.393,82.285"/>
		</g>
	</g>
	<g>
		<g>
			<defs>
				<path id="SVGID_27_" d="M119.87,12.12L54.517,49.85c-3.401,1.967-6.187,6.787-6.187,10.72v75.462
					c0,3.93,2.785,8.753,6.187,10.717l65.353,37.732c1.75,1.009,4.067,1.494,6.371,1.47c2.182-0.026,4.351-0.517,6.007-1.47
					l65.352-37.732c3.403-1.964,6.188-6.787,6.188-10.717V60.569c0-3.933-2.784-8.753-6.188-10.72L132.248,12.12
					c-1.656-0.956-3.825-1.444-6.007-1.468c-0.064-0.001-0.128-0.001-0.192-0.001C123.811,10.65,121.57,11.139,119.87,12.12"/>
			</defs>
			<clipPath id="SVGID_28_">
				<use xlink:href="#SVGID_27_"  overflow="visible"/>
			</clipPath>
			<path clip-path="url(#SVGID_28_)" fill="#231F20" d="M178.002,40.745c-0.329,0-0.646-0.184-0.803-0.497
				c-0.219-0.442-0.039-0.979,0.402-1.198c1.42-0.706,2.948-1.957,2.875-2.575c-0.011-0.081-0.18-0.815-3.009-1.451
				c-9.772-2.197-39.595-4.724-39.894-4.748c-0.492-0.041-0.857-0.475-0.815-0.967c0.041-0.491,0.472-0.86,0.966-0.815
				c1.23,0.104,30.242,2.563,40.135,4.785c2.789,0.627,4.227,1.604,4.393,2.984c0.27,2.227-3.164,4.046-3.854,4.39
				C178.271,40.716,178.135,40.745,178.002,40.745"/>
		</g>
	</g>
	<g>
		<g>
			<defs>
				<path id="SVGID_29_" d="M236.476,75.094l66.904-34.915c3.481-1.818,6.471-6.518,6.639-10.445l3.214-75.398
					c0.166-3.926-2.41-8.864-5.727-10.971l-63.69-40.483c-1.705-1.083-4-1.668-6.303-1.74c-2.181-0.067-4.369,0.33-6.064,1.213
					l-66.903,34.917c-3.484,1.817-6.472,6.517-6.639,10.444l-3.215,75.397c-0.166,3.928,2.41,8.864,5.728,10.973l63.688,40.482
					c1.613,1.025,3.76,1.605,5.939,1.723c0.063,0.004,0.127,0.007,0.191,0.01C232.476,76.395,234.736,76.001,236.476,75.094"/>
			</defs>
			<clipPath id="SVGID_30_">
				<use xlink:href="#SVGID_29_"  overflow="visible"/>
			</clipPath>
			
				<rect x="177.951" y="39.735" transform="matrix(0.9998 0.0213 -0.0213 0.9998 0.9427 -3.7989)" clip-path="url(#SVGID_30_)" fill="#121816" width="1.788" height="5.254"/>
		</g>
	</g>
	<g>
		<g>
			<defs>
				<path id="SVGID_31_" d="M119.87,12.12L54.517,49.85c-3.401,1.967-6.187,6.787-6.187,10.72v75.462
					c0,3.93,2.785,8.753,6.187,10.717l65.353,37.732c1.75,1.009,4.067,1.494,6.371,1.47c2.182-0.026,4.351-0.517,6.007-1.47
					l65.352-37.732c3.403-1.964,6.188-6.787,6.188-10.717V60.569c0-3.933-2.784-8.753-6.188-10.72L132.248,12.12
					c-1.656-0.956-3.825-1.444-6.007-1.468c-0.064-0.001-0.128-0.001-0.192-0.001C123.811,10.65,121.57,11.139,119.87,12.12"/>
			</defs>
			<clipPath id="SVGID_32_">
				<use xlink:href="#SVGID_31_"  overflow="visible"/>
			</clipPath>
			<path clip-path="url(#SVGID_32_)" fill="#A9ABAE" d="M153.189,50.99c0,0-17.662-0.745-27.793-3.576l-0.896,3.278
				c0,0,7.524,3.725,27.867,3.648L153.189,50.99z"/>
		</g>
	</g>
	<g>
		<g>
			<defs>
				<path id="SVGID_33_" d="M119.87,12.12L54.517,49.85c-3.401,1.967-6.187,6.787-6.187,10.72v75.462
					c0,3.93,2.785,8.753,6.187,10.717l65.353,37.732c1.75,1.009,4.067,1.494,6.371,1.47c2.182-0.026,4.351-0.517,6.007-1.47
					l65.352-37.732c3.403-1.964,6.188-6.787,6.188-10.717V60.569c0-3.933-2.784-8.753-6.188-10.72L132.248,12.12
					c-1.656-0.956-3.825-1.444-6.007-1.468c-0.064-0.001-0.128-0.001-0.192-0.001C123.811,10.65,121.57,11.139,119.87,12.12"/>
			</defs>
			<clipPath id="SVGID_34_">
				<use xlink:href="#SVGID_33_"  overflow="visible"/>
			</clipPath>
			<path clip-path="url(#SVGID_34_)" fill="#A9ABAE" d="M99.951,83.663c0,0-15.2,5.253-16.43,17.547"/>
		</g>
	</g>
	<g>
		<g>
			<defs>
				<path id="SVGID_35_" d="M119.87,12.12L54.517,49.85c-3.401,1.967-6.187,6.787-6.187,10.72v75.462
					c0,3.93,2.785,8.753,6.187,10.717l65.353,37.732c1.75,1.009,4.067,1.494,6.371,1.47c2.182-0.026,4.351-0.517,6.007-1.47
					l65.352-37.732c3.403-1.964,6.188-6.787,6.188-10.717V60.569c0-3.933-2.784-8.753-6.188-10.72L132.248,12.12
					c-1.656-0.956-3.825-1.444-6.007-1.468c-0.064-0.001-0.128-0.001-0.192-0.001C123.811,10.65,121.57,11.139,119.87,12.12"/>
			</defs>
			<clipPath id="SVGID_36_">
				<use xlink:href="#SVGID_35_"  overflow="visible"/>
			</clipPath>
			<path clip-path="url(#SVGID_36_)" fill="#231F20" d="M100.404,84.926c-0.019,0.009-0.351,0.099-0.97,0.32
				c-0.624,0.214-1.51,0.57-2.562,1.035c-0.513,0.254-1.09,0.498-1.666,0.815c-0.584,0.308-1.197,0.638-1.807,1.021
				c-0.629,0.355-1.232,0.789-1.857,1.217c-0.629,0.426-1.203,0.934-1.816,1.403c-0.55,0.532-1.15,1.025-1.658,1.589
				c-0.484,0.577-1.046,1.094-1.436,1.703c-0.411,0.594-0.866,1.142-1.152,1.743c-0.298,0.593-0.679,1.117-0.852,1.679
				c-0.211,0.548-0.405,1.05-0.577,1.496c-0.127,0.457-0.206,0.868-0.287,1.203c-0.155,0.674-0.243,1.061-0.243,1.061
				s0.047-0.394,0.129-1.08c0.047-0.344,0.082-0.768,0.161-1.246c0.127-0.471,0.269-1,0.425-1.578
				c0.119-0.597,0.443-1.168,0.689-1.814c0.234-0.657,0.637-1.27,1.003-1.936c0.344-0.683,0.86-1.273,1.31-1.938
				c0.471-0.646,1.037-1.229,1.562-1.854c0.585-0.557,1.14-1.158,1.75-1.677c0.606-0.519,1.198-1.043,1.817-1.488
				c0.601-0.472,1.209-0.888,1.791-1.274c0.573-0.402,1.151-0.726,1.668-1.053c1.062-0.609,1.965-1.092,2.621-1.396
				c0.319-0.157,0.594-0.278,0.781-0.36c0.176-0.074,0.27-0.114,0.27-0.114L100.404,84.926z"/>
		</g>
	</g>
	<g>
		<g>
			<defs>
				<path id="SVGID_37_" d="M119.87,12.12L54.517,49.85c-3.401,1.967-6.187,6.787-6.187,10.72v75.462
					c0,3.93,2.785,8.753,6.187,10.717l65.353,37.732c1.75,1.009,4.067,1.494,6.371,1.47c2.182-0.026,4.351-0.517,6.007-1.47
					l65.352-37.732c3.403-1.964,6.188-6.787,6.188-10.717V60.569c0-3.933-2.784-8.753-6.188-10.72L132.248,12.12
					c-1.656-0.956-3.825-1.444-6.007-1.468c-0.064-0.001-0.128-0.001-0.192-0.001C123.811,10.65,121.57,11.139,119.87,12.12"/>
			</defs>
			<clipPath id="SVGID_38_">
				<use xlink:href="#SVGID_37_"  overflow="visible"/>
			</clipPath>
			<path clip-path="url(#SVGID_38_)" fill="#231F20" d="M100.021,82.033c0,0,0.014,0.031,0.045,0.093
				c0.018,0.03,0.045,0.077,0.08,0.137c0.092,0.142,0.268,0.409,0.549,0.714c0.125,0.162,0.297,0.327,0.487,0.508
				c0.187,0.181,0.386,0.379,0.638,0.563c0.467,0.403,1.065,0.788,1.723,1.211c0.695,0.368,1.425,0.824,2.285,1.159
				c0.424,0.177,0.851,0.38,1.306,0.551c0.461,0.157,0.933,0.318,1.412,0.482c0.95,0.355,1.996,0.553,3.028,0.849
				c1.049,0.246,2.133,0.422,3.211,0.64c1.086,0.167,2.183,0.291,3.26,0.438c1.078,0.139,2.152,0.176,3.186,0.265
				c1.037,0.097,2.041,0.135,2.994,0.146c0.953,0.021,1.855,0.043,2.689,0.062c0.832,0.017,1.596-0.024,2.273-0.034
				c0.678-0.016,1.27-0.027,1.756-0.038c0.975-0.021,1.531-0.034,1.531-0.034s-0.555,0.054-1.523,0.147
				c-0.485,0.047-1.074,0.106-1.75,0.172c-0.676,0.062-1.438,0.158-2.273,0.206c-0.836,0.044-1.742,0.093-2.699,0.143
				c-0.959,0.063-1.973,0.102-3.021,0.084c-1.049-0.014-2.137,0.032-3.24-0.025c-1.104-0.063-2.227-0.105-3.35-0.193
				c-1.119-0.14-2.246-0.236-3.348-0.408c-1.095-0.227-2.191-0.349-3.225-0.647c-0.521-0.135-1.032-0.269-1.532-0.396
				c-0.498-0.146-0.978-0.328-1.448-0.485c-0.949-0.293-1.805-0.73-2.609-1.087c-0.783-0.422-1.502-0.814-2.103-1.254
				c-0.311-0.197-0.583-0.424-0.835-0.634c-0.254-0.204-0.484-0.397-0.68-0.604c-0.406-0.387-0.686-0.733-0.9-1.018
				c-0.105-0.16-0.186-0.281-0.24-0.363c-0.033-0.059-0.051-0.088-0.051-0.088L100.021,82.033z"/>
		</g>
	</g>
	<g>
		<g>
			<defs>
				<path id="SVGID_39_" d="M119.87,12.12L54.517,49.85c-3.401,1.967-6.187,6.787-6.187,10.72v75.462
					c0,3.93,2.785,8.753,6.187,10.717l65.353,37.732c1.75,1.009,4.067,1.494,6.371,1.47c2.182-0.026,4.351-0.517,6.007-1.47
					l65.352-37.732c3.403-1.964,6.188-6.787,6.188-10.717V60.569c0-3.933-2.784-8.753-6.188-10.72L132.248,12.12
					c-1.656-0.956-3.825-1.444-6.007-1.468c-0.064-0.001-0.128-0.001-0.192-0.001C123.811,10.65,121.57,11.139,119.87,12.12"/>
			</defs>
			<clipPath id="SVGID_40_">
				<use xlink:href="#SVGID_39_"  overflow="visible"/>
			</clipPath>
			<polygon clip-path="url(#SVGID_40_)" fill="#121816" points="220.889,20.567 164.484,53.204 165.043,47.057 215.492,18.017 			
				"/>
		</g>
	</g>
	<g>
		<g>
			<defs>
				<path id="SVGID_41_" d="M174.166,120.623l75.418,2.8c3.926,0.145,8.851-2.458,10.939-5.787l40.132-63.913
					c2.09-3.329,2.297-8.896,0.46-12.368L265.83-25.358c-0.944-1.785-2.648-3.43-4.613-4.633c-1.861-1.139-3.959-1.878-5.869-1.951
					l-75.418-2.797c-3.926-0.146-8.85,2.458-10.939,5.786l-40.133,63.914c-2.09,3.328-2.297,8.895-0.459,12.368l35.285,66.712
					c0.894,1.69,2.471,3.257,4.306,4.438c0.055,0.035,0.108,0.068,0.163,0.104C170.048,119.772,172.205,120.55,174.166,120.623"/>
			</defs>
			<clipPath id="SVGID_42_">
				<use xlink:href="#SVGID_41_"  overflow="visible"/>
			</clipPath>
			
				<rect x="161.257" y="51.838" transform="matrix(0.961 0.2767 -0.2767 0.961 22.5496 -42.7132)" clip-path="url(#SVGID_42_)" fill="#121816" width="2.76" height="13.428"/>
		</g>
	</g>
	<g>
		<g>
			<defs>
				<path id="SVGID_43_" d="M119.87,12.12L54.517,49.85c-3.401,1.967-6.187,6.787-6.187,10.72v75.462
					c0,3.93,2.785,8.753,6.187,10.717l65.353,37.732c1.75,1.009,4.067,1.494,6.371,1.47c2.182-0.026,4.351-0.517,6.007-1.47
					l65.352-37.732c3.403-1.964,6.188-6.787,6.188-10.717V60.569c0-3.933-2.784-8.753-6.188-10.72L132.248,12.12
					c-1.656-0.956-3.825-1.444-6.007-1.468c-0.064-0.001-0.128-0.001-0.192-0.001C123.811,10.65,121.57,11.139,119.87,12.12"/>
			</defs>
			<clipPath id="SVGID_44_">
				<use xlink:href="#SVGID_43_"  overflow="visible"/>
			</clipPath>
			<polygon clip-path="url(#SVGID_44_)" fill="#231F20" points="168.018,58.594 217.789,29.608 216.896,33.632 167.793,62.17 			"/>
		</g>
	</g>
	<g>
		<g>
			<defs>
				<path id="SVGID_45_" d="M119.87,12.12L54.517,49.85c-3.401,1.967-6.187,6.787-6.187,10.72v75.462
					c0,3.93,2.785,8.753,6.187,10.717l65.353,37.732c1.75,1.009,4.067,1.494,6.371,1.47c2.182-0.026,4.351-0.517,6.007-1.47
					l65.352-37.732c3.403-1.964,6.188-6.787,6.188-10.717V60.569c0-3.933-2.784-8.753-6.188-10.72L132.248,12.12
					c-1.656-0.956-3.825-1.444-6.007-1.468c-0.064-0.001-0.128-0.001-0.192-0.001C123.811,10.65,121.57,11.139,119.87,12.12"/>
			</defs>
			<clipPath id="SVGID_46_">
				<use xlink:href="#SVGID_45_"  overflow="visible"/>
			</clipPath>
			<polygon clip-path="url(#SVGID_46_)" fill="#231F20" points="168.018,64.853 217.789,35.867 216.896,39.892 167.793,68.429 			
				"/>
		</g>
	</g>
	<g>
		<g>
			<defs>
				<path id="SVGID_47_" d="M119.87,12.12L54.517,49.85c-3.401,1.967-6.187,6.787-6.187,10.72v75.462
					c0,3.93,2.785,8.753,6.187,10.717l65.353,37.732c1.75,1.009,4.067,1.494,6.371,1.47c2.182-0.026,4.351-0.517,6.007-1.47
					l65.352-37.732c3.403-1.964,6.188-6.787,6.188-10.717V60.569c0-3.933-2.784-8.753-6.188-10.72L132.248,12.12
					c-1.656-0.956-3.825-1.444-6.007-1.468c-0.064-0.001-0.128-0.001-0.192-0.001C123.811,10.65,121.57,11.139,119.87,12.12"/>
			</defs>
			<clipPath id="SVGID_48_">
				<use xlink:href="#SVGID_47_"  overflow="visible"/>
			</clipPath>
			<polygon clip-path="url(#SVGID_48_)" fill="#231F20" points="168.018,71.2 217.789,42.215 216.896,46.239 167.793,74.777 			"/>
		</g>
	</g>
	<g>
		<g>
			<defs>
				<path id="SVGID_49_" d="M119.87,12.12L54.517,49.85c-3.401,1.967-6.187,6.787-6.187,10.72v75.462
					c0,3.93,2.785,8.753,6.187,10.717l65.353,37.732c1.75,1.009,4.067,1.494,6.371,1.47c2.182-0.026,4.351-0.517,6.007-1.47
					l65.352-37.732c3.403-1.964,6.188-6.787,6.188-10.717V60.569c0-3.933-2.784-8.753-6.188-10.72L132.248,12.12
					c-1.656-0.956-3.825-1.444-6.007-1.468c-0.064-0.001-0.128-0.001-0.192-0.001C123.811,10.65,121.57,11.139,119.87,12.12"/>
			</defs>
			<clipPath id="SVGID_50_">
				<use xlink:href="#SVGID_49_"  overflow="visible"/>
			</clipPath>
			<path clip-path="url(#SVGID_50_)" fill="#FFFFFF" d="M182.322,12.095l38.445,6.259l2.508,25.832l0.779,12.174l-51.509,37.903
				c-2.562,2.022-7.142,4.521-10.229,5.582L115.7,118.615l-34.117-12.188c0,0-10.133-13.561,18.181-27.867l5.066-13.709l5.812-2.683
				l0.596-2.087l-2.83-2.086l1.49-7.152l11.027-2.385l0.3-5.663c0,0-1.271-0.589-1.493-1.64c-0.371-1.788,1.172-3.026,3.352-4.187
				l13.842-6.354c1.122-0.516,3.032-0.934,4.268-0.934h4.173L182.322,12.095 M181.182,4.08l-2.18,1.037L143.62,21.952h-2.427
				c-2.348,0-5.358,0.658-7.492,1.637l-13.842,6.356l-0.207,0.094l-0.199,0.106c-7.522,4.005-7.879,9.321-7.34,12.31l-3.849,0.833
				l-4.909,1.062l-1.023,4.916l-1.49,7.152l-0.406,1.948l-1.744,0.806l-1.108,2.998l-4.041,10.933
				C81.64,79.635,74.614,87.188,72.644,95.582c-1.555,6.622,0.51,12.473,2.752,15.473l1.395,1.866l2.195,0.785l34.117,12.188
				l2.764,0.986l2.722-1.096l46.448-18.7c3.834-1.354,9.002-4.179,12.188-6.666l51.412-37.834l3.403-2.504l-0.271-4.216
				l-0.783-12.173l-0.008-0.127l-0.013-0.125l-2.505-25.832l-0.574-5.925l-5.876-0.957l-38.446-6.258L181.182,4.08z"/>
		</g>
	</g>
	<g>
		<g>
			<defs>
				<path id="SVGID_51_" d="M119.87,12.12L54.517,49.85c-3.401,1.967-6.187,6.787-6.187,10.72v75.462
					c0,3.93,2.785,8.753,6.187,10.717l65.353,37.732c1.75,1.009,4.067,1.494,6.371,1.47c2.182-0.026,4.351-0.517,6.007-1.47
					l65.352-37.732c3.403-1.964,6.188-6.787,6.188-10.717V60.569c0-3.933-2.784-8.753-6.188-10.72L132.248,12.12
					c-1.656-0.956-3.825-1.444-6.007-1.468c-0.064-0.001-0.128-0.001-0.192-0.001C123.811,10.65,121.57,11.139,119.87,12.12"/>
			</defs>
			<clipPath id="SVGID_52_">
				<use xlink:href="#SVGID_51_"  overflow="visible"/>
			</clipPath>
			<path clip-path="url(#SVGID_52_)" fill="#231F20" d="M182.322,12.096l38.445,6.258l2.508,25.832l0.779,12.176l-51.51,37.902
				c-2.563,2.023-7.141,4.522-10.229,5.582L115.7,118.614l-34.116-12.188c0,0-10.134-13.561,18.18-27.867l5.067-13.71l5.812-2.682
				l0.597-2.087l-2.831-2.086l1.49-7.153l11.027-2.384l0.299-5.663c0,0-1.271-0.589-1.492-1.639
				c-0.371-1.788,1.172-3.027,3.352-4.188l13.842-6.354c1.121-0.517,3.032-0.935,4.267-0.935h4.174L182.322,12.096 M181.756,8.111
				l-1.084,0.516l-36.174,17.211h-3.307c-1.78,0-4.25,0.54-5.869,1.283l-13.842,6.354l-0.104,0.049l-0.1,0.053
				c-1.569,0.835-6.345,3.377-5.306,8.36c0.224,1.074,0.736,1.93,1.313,2.588l-0.042,0.797l-8.157,1.764l-2.439,0.528l-0.51,2.441
				l-1.49,7.153l-0.502,2.414l1.094,0.806l-2.018,0.933l-1.442,0.666l-0.55,1.487l-4.551,12.313
				C85.011,81.97,78.199,88.909,76.425,96.467c-1.645,7.007,1.694,11.741,2.08,12.259l0.694,0.93l1.092,0.39l34.116,12.188
				l1.374,0.488l1.353-0.545l46.531-18.73c3.455-1.206,8.34-3.874,11.209-6.124l51.459-37.868l1.69-1.245l-0.135-2.096
				l-0.781-12.172l-0.004-0.063l-0.009-0.062l-2.504-25.833l-0.284-2.946l-2.923-0.476l-38.446-6.259L181.756,8.111z"/>
		</g>
	</g>
	<g>
		<g>
			<defs>
				<path id="SVGID_53_" d="M119.87,12.12L54.517,49.85c-3.401,1.967-6.187,6.787-6.187,10.72v75.462
					c0,3.93,2.785,8.753,6.187,10.717l65.353,37.732c1.75,1.009,4.067,1.494,6.371,1.47c2.182-0.026,4.351-0.517,6.007-1.47
					l65.352-37.732c3.403-1.964,6.188-6.787,6.188-10.717V60.569c0-3.933-2.784-8.753-6.188-10.72L132.248,12.12
					c-1.656-0.956-3.825-1.444-6.007-1.468c-0.064-0.001-0.128-0.001-0.192-0.001C123.811,10.65,121.57,11.139,119.87,12.12"/>
			</defs>
			<clipPath id="SVGID_54_">
				<use xlink:href="#SVGID_53_"  overflow="visible"/>
			</clipPath>
			<path clip-path="url(#SVGID_54_)" fill="#231F20" d="M142.891,74.043c-29.637,0-39.94-8.332-40.391-8.709l1.148-1.371
				l-0.574,0.688l0.572-0.688c0.113,0.095,11.712,9.358,45.042,8.19l0.063,1.788C146.717,74.01,144.766,74.043,142.891,74.043"/>
		</g>
	</g>
	<g>
		<g>
			<defs>
				<path id="SVGID_55_" d="M119.87,12.12L54.517,49.85c-3.401,1.967-6.187,6.787-6.187,10.72v75.462
					c0,3.93,2.785,8.753,6.187,10.717l65.353,37.732c1.75,1.009,4.067,1.494,6.371,1.47c2.182-0.026,4.351-0.517,6.007-1.47
					l65.352-37.732c3.403-1.964,6.188-6.787,6.188-10.717V60.569c0-3.933-2.784-8.753-6.188-10.72L132.248,12.12
					c-1.656-0.956-3.825-1.444-6.007-1.468c-0.064-0.001-0.128-0.001-0.192-0.001C123.811,10.65,121.57,11.139,119.87,12.12"/>
			</defs>
			<clipPath id="SVGID_56_">
				<use xlink:href="#SVGID_55_"  overflow="visible"/>
			</clipPath>
			<path clip-path="url(#SVGID_56_)" fill="#231F20" d="M109.898,88.916c-0.107,0-0.217-0.02-0.322-0.061
				c-0.461-0.18-0.689-0.695-0.512-1.156l6.482-16.766c0.176-0.462,0.696-0.69,1.156-0.512c0.461,0.178,0.689,0.695,0.512,1.155
				l-6.482,16.766C110.596,88.699,110.256,88.916,109.898,88.916"/>
		</g>
	</g>
	<g>
		<g>
			<defs>
				<path id="SVGID_57_" d="M119.87,12.12L54.517,49.85c-3.401,1.967-6.187,6.787-6.187,10.72v75.462
					c0,3.93,2.785,8.753,6.187,10.717l65.353,37.732c1.75,1.009,4.067,1.494,6.371,1.47c2.182-0.026,4.351-0.517,6.007-1.47
					l65.352-37.732c3.403-1.964,6.188-6.787,6.188-10.717V60.569c0-3.933-2.784-8.753-6.188-10.72L132.248,12.12
					c-1.656-0.956-3.825-1.444-6.007-1.468c-0.064-0.001-0.128-0.001-0.192-0.001C123.811,10.65,121.57,11.139,119.87,12.12"/>
			</defs>
			<clipPath id="SVGID_58_">
				<use xlink:href="#SVGID_57_"  overflow="visible"/>
			</clipPath>
			<polygon clip-path="url(#SVGID_58_)" fill="#231F20" points="149.068,73.246 146.036,82.434 147.325,72.845 			"/>
		</g>
	</g>
	<g>
		<g>
			<defs>
				<path id="SVGID_59_" d="M119.87,12.12L54.517,49.85c-3.401,1.967-6.187,6.787-6.187,10.72v75.462
					c0,3.93,2.785,8.753,6.187,10.717l65.353,37.732c1.75,1.009,4.067,1.494,6.371,1.47c2.182-0.026,4.351-0.517,6.007-1.47
					l65.352-37.732c3.403-1.964,6.188-6.787,6.188-10.717V60.569c0-3.933-2.784-8.753-6.188-10.72L132.248,12.12
					c-1.656-0.956-3.825-1.444-6.007-1.468c-0.064-0.001-0.128-0.001-0.192-0.001C123.811,10.65,121.57,11.139,119.87,12.12"/>
			</defs>
			<clipPath id="SVGID_60_">
				<use xlink:href="#SVGID_59_"  overflow="visible"/>
			</clipPath>
			<polygon clip-path="url(#SVGID_60_)" fill="#231F20" points="147.425,72.622 155.052,68.91 148.373,74.139 			"/>
		</g>
	</g>
	<g>
		<g>
			<defs>
				<path id="SVGID_61_" d="M119.87,12.12L54.517,49.85c-3.401,1.967-6.187,6.787-6.187,10.72v75.462
					c0,3.93,2.785,8.753,6.187,10.717l65.353,37.732c1.75,1.009,4.067,1.494,6.371,1.47c2.182-0.026,4.351-0.517,6.007-1.47
					l65.352-37.732c3.403-1.964,6.188-6.787,6.188-10.717V60.569c0-3.933-2.784-8.753-6.188-10.72L132.248,12.12
					c-1.656-0.956-3.825-1.444-6.007-1.468c-0.064-0.001-0.128-0.001-0.192-0.001C123.811,10.65,121.57,11.139,119.87,12.12"/>
			</defs>
			<clipPath id="SVGID_62_">
				<use xlink:href="#SVGID_61_"  overflow="visible"/>
			</clipPath>
			<path clip-path="url(#SVGID_62_)" fill="#A9ABAE" d="M139.051,32.138l-6.789,4.028c-2.621,1.555-2.295,3.121,0.73,3.498
				l22.303,2.776c3.025,0.376,7.484-0.492,9.963-1.94s2.141-3.396-0.758-4.351l-15.459-5.099
				C146.146,30.096,141.673,30.583,139.051,32.138"/>
		</g>
	</g>
	<g>
		<g>
			<defs>
				<path id="SVGID_63_" d="M119.87,12.12L54.517,49.85c-3.401,1.967-6.187,6.787-6.187,10.72v75.462
					c0,3.93,2.785,8.753,6.187,10.717l65.353,37.732c1.75,1.009,4.067,1.494,6.371,1.47c2.182-0.026,4.351-0.517,6.007-1.47
					l65.352-37.732c3.403-1.964,6.188-6.787,6.188-10.717V60.569c0-3.933-2.784-8.753-6.188-10.72L132.248,12.12
					c-1.656-0.956-3.825-1.444-6.007-1.468c-0.064-0.001-0.128-0.001-0.192-0.001C123.811,10.65,121.57,11.139,119.87,12.12"/>
			</defs>
			<clipPath id="SVGID_64_">
				<use xlink:href="#SVGID_63_"  overflow="visible"/>
			</clipPath>
			<path clip-path="url(#SVGID_64_)" fill="#D1CB29" d="M170.45,156.43c-1.935,14.729-10.483,22.895-16.906,32.669l30.767-3.693
				c1.897-0.229,3.926-1.141,5.688-2.429c1.858-1.358,3.423-3.141,4.217-4.994l29.667-69.387c1.545-3.612,0.881-9.145-1.477-12.289
				l-12.768-17.031c-4.312,6.563-5.365-3.04-10.623,1.812C177.273,101.148,173.68,131.816,170.45,156.43"/>
		</g>
	</g>
	<g>
		<g>
			<defs>
				<path id="SVGID_65_" d="M119.87,12.12L54.517,49.85c-3.401,1.967-6.187,6.787-6.187,10.72v75.462
					c0,3.93,2.785,8.753,6.187,10.717l65.353,37.732c1.75,1.009,4.067,1.494,6.371,1.47c2.182-0.026,4.351-0.517,6.007-1.47
					l65.352-37.732c3.403-1.964,6.188-6.787,6.188-10.717V60.569c0-3.933-2.784-8.753-6.188-10.72L132.248,12.12
					c-1.656-0.956-3.825-1.444-6.007-1.468c-0.064-0.001-0.128-0.001-0.192-0.001C123.811,10.65,121.57,11.139,119.87,12.12"/>
			</defs>
			<clipPath id="SVGID_66_">
				<use xlink:href="#SVGID_65_"  overflow="visible"/>
			</clipPath>
			<path clip-path="url(#SVGID_66_)" fill="#1A1A19" d="M202.391,84.163c1.084,1.302,2.705,2.521,5.12,2.521
				c0.265,0,0.521-0.015,0.769-0.044L218,99.611c1.178,1.57,1.591,5.015,0.818,6.818l-29.666,69.387
				c-0.289,0.674-1.072,1.74-2.404,2.717c-1.059,0.771-2.215,1.299-3.094,1.401l-19.543,2.351
				c5.221-9.404,10.146-20.787,11.633-32.098C178.828,126.661,184.24,102.469,202.391,84.163 M203.229,76.656
				c-0.576,0-1.273,0.314-2.144,1.117c-21.741,20.063-27.573,47.082-30.804,71.694c-1.934,14.729-10.314,29.854-16.738,39.629
				l30.768-3.694c1.897-0.229,3.926-1.141,5.688-2.429c1.859-1.356,3.424-3.14,4.217-4.993l29.667-69.388
				c1.545-3.612,0.882-9.143-1.476-12.288l-12.768-17.031c-0.91,1.386-1.582,1.901-2.128,1.901
				C205.902,81.177,205.412,76.656,203.229,76.656"/>
		</g>
	</g>
</g>
<path fill="#1A1A19" d="M126.059,18.93l0.084,0.001c1.117,0.015,1.812,0.271,1.965,0.359l65.353,37.731
	c0.842,0.484,2.049,2.573,2.049,3.548v75.462c0,0.973-1.207,3.061-2.049,3.547l-65.353,37.729c-0.154,0.092-0.848,0.35-1.961,0.36
	l-0.088,0.001c-1.074,0-1.844-0.243-2.047-0.361l-65.353-37.729c-0.843-0.486-2.048-2.574-2.048-3.547V60.569
	c0-0.976,1.206-3.063,2.048-3.55l65.353-37.729C124.215,19.173,124.982,18.93,126.059,18.93 M126.059,10.65
	c-2.244,0-4.485,0.487-6.188,1.47L54.518,49.85c-3.403,1.967-6.188,6.787-6.188,10.72v75.462c0,3.93,2.785,8.753,6.188,10.718
	l65.353,37.731c1.701,0.979,3.943,1.47,6.188,1.47c0.062,0,0.121,0,0.184-0.001c2.183-0.026,4.351-0.516,6.007-1.469l65.353-37.731
	c3.401-1.965,6.188-6.788,6.188-10.718V60.569c0-3.933-2.785-8.753-6.188-10.72L132.249,12.12c-1.656-0.956-3.824-1.443-6.007-1.469
	C126.18,10.65,126.119,10.65,126.059,10.65"/>
<polygon fill="#231F20" points="95.774,113.548 98.811,123.3 115.83,126.612 171.398,103.888 199.551,83.556 198.447,78.036 
	169.375,98.828 125.766,118.148 117.118,120.54 109.758,119.804 101.479,116.676 "/>
<path fill="#231F20" d="M107.299,129.798l7.729-6.624l62.375-26.771c0,0,0.736,5.244-11.59,11.406
	c-12.328,6.164-43.793,20.332-43.793,20.332L107.299,129.798z"/>
<polygon fill="#231F20" points="95.432,114.434 97.179,121.701 101.688,122.162 "/>
</svg>
