<?xml version="1.0" encoding="utf-8"?>
<!-- Generator: Adobe Illustrator 16.0.0, SVG Export Plug-In . SVG Version: 6.00 Build 0)  -->
<!DOCTYPE svg PUBLIC "-//W3C//DTD SVG 1.1//EN" "http://www.w3.org/Graphics/SVG/1.1/DTD/svg11.dtd">
<svg version="1.1" id="Layer_1" xmlns="http://www.w3.org/2000/svg" xmlns:xlink="http://www.w3.org/1999/xlink" x="0px" y="0px"
	 width="612px" height="792px" viewBox="0 0 612 792" enable-background="new 0 0 612 792" xml:space="preserve">
<path fill="#FBAA33" d="M306.139,349.752h-65.454c0,0.089,0.002,0.177,0.002,0.268v70.508c0,0,2.709,27.535,32.506,35.895
	c28.807,8.081,32.718,17.54,32.946,18.16c0.008,0.021,0.012,0.033,0.012,0.033s3.16-9.834,32.957-18.193
	s32.506-35.895,32.506-35.895v-70.47c0-0.013,0.002-0.025,0.002-0.038c0-0.091,0.002-0.179,0.002-0.268H306.139z"/>
<g opacity="0.7">
	<g>
		<defs>
			<rect id="SVGID_1_" x="306.14" y="348.48" width="66.811" height="127.399"/>
		</defs>
		<clipPath id="SVGID_2_">
			<use xlink:href="#SVGID_1_"  overflow="visible"/>
		</clipPath>
		<path clip-path="url(#SVGID_2_)" fill="#E46C25" d="M339.777,457.32c30.402-8.529,33.166-36.624,33.166-36.624v-71.901
			c0.001-0.013,0.002-0.025,0.002-0.039c0-0.092,0.002-0.181,0.002-0.272h-66.809V475.85c0.008,0.021,0.012,0.034,0.012,0.034
			S309.375,465.85,339.777,457.32"/>
	</g>
</g>
<g opacity="0.4">
	<g>
		<defs>
			<rect id="SVGID_3_" x="230.14" y="315.34" width="152.021" height="160.54"/>
		</defs>
		<clipPath id="SVGID_4_">
			<use xlink:href="#SVGID_3_"  overflow="visible"/>
		</clipPath>
		<path clip-path="url(#SVGID_4_)" fill="#FFFFFF" d="M364.154,329.138c-2.639,4.35-4.924,10.589-5.002,19.196l-0.002,0.03
			l-0.003,0.321v0.055v0.056v70.95c-0.224,1.224-1.069,5.082-3.448,9.367c-4.105,7.397-10.717,12.417-19.648,14.924
			c-13.943,3.911-23.451,8.354-29.929,12.658c-6.466-4.301-15.954-8.755-29.872-12.658c-8.596-2.412-15.051-7.16-19.183-14.113
			c-2.71-4.56-3.653-8.787-3.913-10.227v-70.94l-0.003-0.376c-0.065-8.624-2.356-14.881-5.003-19.243h24.605h23.781h9.198h33.814
			H364.154 M372.124,315.341h-32.576h-33.814h-9.198h-23.781h-32.576l-10.034,15.454c0,0,9.1,2.806,9.21,17.688
			c0.001,0.091,0.003,0.182,0.003,0.273v71.939c0,0,2.764,28.096,33.166,36.624c29.393,8.245,33.383,17.896,33.615,18.529
			c0.008,0.021,0.012,0.033,0.012,0.033s3.225-10.033,33.627-18.563c30.402-8.528,33.167-36.624,33.167-36.624v-71.9
			c0-0.014,0.001-0.026,0.001-0.039c0-0.092,0.002-0.183,0.002-0.273c0.111-14.883,9.211-17.688,9.211-17.688L372.124,315.341z"/>
	</g>
</g>
<path fill="#1A1A19" d="M382.158,330.794l-10.034-15.454h-32.576h-33.814h-9.198h-23.781h-32.576l-10.034,15.454
	c0,0,9.1,2.808,9.211,17.69v7.525h133.593v-7.525C373.059,333.602,382.158,330.794,382.158,330.794"/>
<path fill="#191818" d="M367.581,323.707l3.394,5.225c-2.297,2.725-4.317,6.396-5.445,11.186H246.773
	c-1.128-4.789-3.149-8.461-5.444-11.186l3.392-5.225h28.033h23.781h9.198h33.814H367.581 M372.124,315.341h-32.576h-33.814h-9.198
	h-23.781h-32.576l-10.034,15.454c0,0,9.1,2.806,9.21,17.688h133.593c0.111-14.883,9.211-17.688,9.211-17.688L372.124,315.341z"/>
<g>
	<defs>
		<path id="SVGID_5_" d="M339.549,312.341h-33.816h-9.198h-23.782h-32.574l-10.034,15.453c0,0,9.099,2.808,9.209,17.689
			c0.002,0.092,0.004,0.182,0.004,0.273v71.939c0,0,2.763,28.096,33.166,36.625c29.391,8.245,33.383,17.896,33.616,18.527
			c0.006,0.022,0.01,0.034,0.01,0.034s3.226-10.033,33.627-18.562c30.403-8.529,33.166-36.625,33.166-36.625v-71.901
			c0-0.012,0.002-0.025,0.002-0.038c0-0.092,0.003-0.182,0.003-0.273c0.11-14.882,9.21-17.689,9.21-17.689l-10.033-15.453H339.549z"
			/>
	</defs>
	<clipPath id="SVGID_6_">
		<use xlink:href="#SVGID_5_"  overflow="visible"/>
	</clipPath>
	<polygon clip-path="url(#SVGID_6_)" fill="#FFFFFF" points="295.388,455.167 285.239,455.167 286.9,447.45 284.894,456.182 
		295.852,456.196 295.271,455.711 	"/>
	<path clip-path="url(#SVGID_6_)" fill="#FFFFFF" d="M303.935,401.742l2.149,0.619l6.399,14.175l-2.539,20.265
		c4.516,5.928,10.16,11.01,14.676,7.622c0.396-0.296,0.782-0.538,1.16-0.734l-1.267-11.658c0,0,1.192-3.049,4.871-8.354
		c3.679-5.305,1.271-14.472,1.271-14.472l8.816-17.827c1.228-2.484,0.439-5.861-1.761-7.545l-14.953-11.433l-22.151-8.067
		c-2.604-0.948-5.484,0.395-6.434,2.997l-6.425,17.612c0,0-1.583-0.562-3.536-1.254c-1.953-0.693-4.256,0.873-5.145,3.498
		l-4.764,14.074c-0.888,2.625-0.888,2.625,0,0l4.241-12.529l16.356,13.735L303.935,401.742z"/>
	<g opacity="0.4" clip-path="url(#SVGID_6_)">
		<g>
			<defs>
				<rect id="SVGID_7_" x="274.46" y="408.36" width="16.45" height="39.09"/>
			</defs>
			<clipPath id="SVGID_8_">
				<use xlink:href="#SVGID_7_"  overflow="visible"/>
			</clipPath>
			<path clip-path="url(#SVGID_8_)" fill="#E46C25" d="M275.693,410.034c5.106,6.851,14.946,20.048,14.946,20.048l-3.739,17.367
				l4.012-17.454l-15.184-19.987C274.053,407.802,274.037,407.813,275.693,410.034"/>
		</g>
	</g>
	<path clip-path="url(#SVGID_6_)" fill="#FFFFFF" d="M324.62,444.424c-4.517,3.387-10.161-1.695-14.677-7.622l2.539-20.266
		l-6.398-14.175l-2.149-0.619l-9.035,0.725l-16.355-13.736l-4.241,12.53c-0.888,2.624-0.25,6.541,1.426,8.747l15.186,19.987
		l-4.014,17.454l-1.662,27.786h10.149l0.464,1.028l31.291,0.04l-1.363-32.615C325.402,443.886,325.016,444.126,324.62,444.424"/>
	<polygon clip-path="url(#SVGID_6_)" fill="#FBAA33" points="289.302,383.759 333.906,402.841 329.293,409.426 306.416,400.245 
		307.556,394.307 289.302,383.174 	"/>
	
		<rect x="325.546" y="378.353" transform="matrix(0.8828 0.4697 -0.4697 0.8828 222.942 -107.3809)" clip-path="url(#SVGID_6_)" fill="#191818" width="2.258" height="29.517"/>
	
		<rect x="315.252" y="370.679" transform="matrix(0.9087 0.4175 -0.4175 0.9087 190.4728 -96.7577)" clip-path="url(#SVGID_6_)" fill="#191818" width="2.257" height="32.554"/>
	
		<rect x="303.989" y="367.67" transform="matrix(0.9185 0.3954 -0.3954 0.9185 175.0569 -89.6972)" clip-path="url(#SVGID_6_)" fill="#191818" width="2.257" height="24.274"/>
	<path clip-path="url(#SVGID_6_)" fill="#191818" d="M296.575,389.166c0,0-0.011,0.047-0.032,0.135
		c-0.017,0.046-0.039,0.16-0.063,0.332c-0.038,0.328-0.094,0.832-0.026,1.433c0.012,0.305,0.091,0.622,0.159,0.967
		c0.1,0.332,0.195,0.696,0.371,1.041c0.133,0.372,0.383,0.691,0.593,1.058c0.271,0.315,0.521,0.679,0.852,0.971
		c0.336,0.283,0.647,0.618,1.039,0.841c0.377,0.242,0.737,0.517,1.143,0.686c0.398,0.182,0.771,0.403,1.157,0.536
		c0.388,0.135,0.755,0.264,1.094,0.381c0.682,0.244,1.284,0.325,1.696,0.441c0.416,0.097,0.654,0.153,0.654,0.153
		s-0.243-0.005-0.67-0.014c-0.425-0.025-1.048,0.021-1.782-0.075c-0.371-0.047-0.773-0.097-1.197-0.149
		c-0.428-0.054-0.863-0.197-1.33-0.301c-0.471-0.09-0.925-0.297-1.404-0.48c-0.49-0.16-0.931-0.454-1.401-0.71
		c-0.465-0.264-0.874-0.63-1.298-0.965c-0.37-0.391-0.78-0.756-1.069-1.198c-0.333-0.415-0.574-0.864-0.809-1.298
		c-0.201-0.441-0.399-0.87-0.515-1.282c-0.274-0.818-0.361-1.541-0.412-2.058c-0.02-0.254-0.029-0.473-0.023-0.653
		c0.003-0.139,0.004-0.213,0.004-0.213L296.575,389.166z"/>
	<path clip-path="url(#SVGID_6_)" fill="#FBAA33" d="M324.184,453.386c-8.459-2.396-12.896-5.159-15.217-7.481
		c1.703-12.445,3.702-27.121,3.845-28.474c0.251-2.383-0.501-0.376-2.132-7.524c-0.784-3.44-2.207-6.152-3.474-8.042l-14.462-0.487
		l-13.128-12.041l-4.561,11.172c-0.888,2.624-0.5,6.039,1.176,8.245l15.184,19.988l-6.176,49.002l21.5,0.553l-0.181-13.35
		l1.737,0.981L324.184,453.386z"/>
	<path clip-path="url(#SVGID_6_)" fill="#191818" d="M300.473,400.042c0,0,0.07,0.003,0.207,0.009
		c0.143,0.008,0.315,0.02,0.542,0.046c0.45,0.05,1.084,0.147,1.866,0.354c1.543,0.406,3.761,1.28,5.813,3.168
		c1.019,0.935,1.967,2.108,2.728,3.456c0.761,1.35,1.315,2.867,1.696,4.44c0.378,1.575,0.604,3.217,0.654,4.862
		c0.076,1.649,0.009,3.307-0.15,4.94c-0.154,1.635-0.404,3.25-0.734,4.812c-0.079,0.392-0.158,0.78-0.237,1.168
		c-0.069,0.362-0.138,0.723-0.205,1.08c-0.142,0.751-0.281,1.493-0.418,2.224c-0.548,2.92-1.062,5.645-1.5,7.979
		c-0.226,1.167-0.404,2.241-0.615,3.186c-0.192,0.946-0.435,1.761-0.667,2.426c-0.204,0.67-0.423,1.188-0.58,1.539
		c-0.144,0.354-0.254,0.538-0.254,0.538s0.102-0.785,0.279-2.159c0.18-1.374,0.441-3.336,0.695-5.7
		c0.267-2.36,0.578-5.116,0.912-8.067c0.084-0.737,0.168-1.487,0.254-2.248c0.045-0.387,0.09-0.776,0.135-1.168
		c0.053-0.379,0.104-0.76,0.158-1.142c0.224-1.524,0.363-3.084,0.408-4.638c0.051-1.553,0.012-3.102-0.154-4.598
		c-0.142-1.5-0.442-2.941-0.854-4.271c-0.416-1.328-0.959-2.545-1.632-3.57c-0.675-1.022-1.458-1.854-2.263-2.492
		c-1.615-1.282-3.277-1.797-4.418-2.011c-0.574-0.107-1.026-0.141-1.316-0.151c-0.134-0.002-0.236-0.002-0.305-0.002
		c-0.055,0.004-0.084,0.005-0.084,0.005L300.473,400.042z"/>
	<path clip-path="url(#SVGID_6_)" fill="#191818" d="M293.609,401.964c0,0,0.006,0.055,0.016,0.158
		c0.015,0.125,0.033,0.305,0.04,0.495c0.024,0.397,0.028,0.947-0.002,1.602c-0.042,0.653-0.108,1.407-0.272,2.202
		c-0.149,0.793-0.39,1.626-0.709,2.42c-0.178,0.394-0.324,0.787-0.548,1.148c-0.2,0.368-0.406,0.719-0.652,1.03
		c-0.221,0.325-0.458,0.617-0.715,0.869c-0.24,0.262-0.465,0.502-0.715,0.686c-0.239,0.19-0.449,0.37-0.644,0.513
		c-0.209,0.126-0.391,0.236-0.541,0.326c-0.294,0.176-0.462,0.276-0.462,0.276s0.128-0.148,0.352-0.408
		c0.109-0.128,0.242-0.283,0.394-0.461c0.135-0.191,0.272-0.42,0.425-0.655c0.165-0.229,0.292-0.509,0.422-0.8
		c0.146-0.282,0.263-0.595,0.354-0.926c0.117-0.319,0.188-0.666,0.249-1.015c0.084-0.339,0.091-0.708,0.13-1.057
		c0.041-0.712,0.011-1.42-0.081-2.076c-0.078-0.655-0.227-1.258-0.36-1.761c-0.145-0.503-0.285-0.91-0.396-1.176
		c-0.055-0.144-0.096-0.224-0.122-0.275c-0.033-0.073-0.051-0.112-0.051-0.112L293.609,401.964z"/>
	<polygon clip-path="url(#SVGID_6_)" fill="#191818" points="289.893,403.235 285.239,394.307 293.011,400.708 	"/>
	<path clip-path="url(#SVGID_6_)" fill="#191818" d="M297.37,404.36c-3.832,0-7.283-0.954-7.503-1.016l1.087-3.863
		c1.913,0.534,7.587,1.597,10.828,0.108c3.298-1.516,3.641-4.059,3.555-5.432L287,386.804l1.495-3.724l20.299,8.14l0.271,0.946
		c0.742,2.597,0.525,8.254-5.607,11.07C301.617,404.084,299.438,404.36,297.37,404.36"/>
	
		<rect x="303.3" y="402.499" transform="matrix(0.9294 0.369 -0.369 0.9294 171.6668 -88.6061)" clip-path="url(#SVGID_6_)" fill="#191818" width="28.373" height="4.013"/>
	<path clip-path="url(#SVGID_6_)" fill="#191818" d="M329.289,473.296l-46.717-0.06l6.233-42.697l-14.675-19.318
		c-2.063-2.716-2.822-7.373-1.729-10.604l4.764-14.076c1.018-3.005,3.465-5.025,6.088-5.025c0.558,0,1.106,0.096,1.628,0.279
		l1.662,0.59l5.744-15.744c1.008-2.764,3.661-4.62,6.602-4.62c0.82,0,1.628,0.145,2.403,0.427l22.439,8.172l15.196,11.619
		c2.972,2.271,3.999,6.676,2.343,10.027l-8.5,17.186c0.524,2.459,1.802,10.263-1.738,15.369c-2.745,3.957-4.055,6.614-4.486,7.562
		L329.289,473.296z M287.214,469.229l37.783,0.049l-2.517-37.561l0.164-0.417c0.052-0.134,1.32-3.332,5.091-8.767
		c3.101-4.473,1-12.738,0.979-12.821l-0.188-0.724l9.147-18.502c0.81-1.635,0.269-3.951-1.182-5.06l-14.709-11.248l-21.862-7.961
		c-1.538-0.562-3.309,0.285-3.862,1.798l-7.107,19.483l-5.411-1.92c-0.759-0.277-2.019,0.614-2.573,2.25l-4.763,14.075
		c-0.675,1.993-0.15,5.214,1.123,6.889l15.694,20.66L287.214,469.229z"/>
</g>
<g>
	<defs>
		<path id="SVGID_9_" d="M339.549,312.341h-33.816h-9.198h-23.782h-32.574l-10.034,15.453c0,0,9.099,2.808,9.209,17.689
			c0.002,0.092,0.004,0.182,0.004,0.273v71.939c0,0,2.763,28.096,33.166,36.625c29.391,8.245,33.383,17.896,33.616,18.527
			c0.006,0.022,0.01,0.034,0.01,0.034s3.226-10.033,33.627-18.562c30.403-8.529,33.166-36.625,33.166-36.625v-71.901
			c0-0.012,0.002-0.025,0.002-0.038c0-0.092,0.003-0.182,0.003-0.273c0.11-14.882,9.21-17.689,9.21-17.689l-10.033-15.453H339.549z"
			/>
	</defs>
	<clipPath id="SVGID_10_">
		<use xlink:href="#SVGID_9_"  overflow="visible"/>
	</clipPath>
	<polygon clip-path="url(#SVGID_10_)" fill="#FFFFFF" points="295.388,455.167 285.239,455.167 286.9,447.45 284.894,456.182 
		295.852,456.196 295.271,455.711 	"/>
	<path clip-path="url(#SVGID_10_)" fill="#FFFFFF" d="M303.935,401.742l2.149,0.619l6.399,14.175l-2.539,20.265
		c4.516,5.928,10.16,11.01,14.676,7.622c0.396-0.296,0.782-0.538,1.16-0.734l-1.267-11.658c0,0,1.192-3.049,4.871-8.354
		c3.679-5.305,1.271-14.472,1.271-14.472l8.816-17.827c1.228-2.484,0.439-5.861-1.761-7.545l-14.953-11.433l-22.151-8.067
		c-2.604-0.948-5.484,0.395-6.434,2.997l-6.425,17.612c0,0-1.583-0.562-3.536-1.254c-1.953-0.693-4.256,0.873-5.145,3.498
		l-4.764,14.074c-0.888,2.625-0.888,2.625,0,0l4.241-12.529l16.356,13.735L303.935,401.742z"/>
	<g opacity="0.4" clip-path="url(#SVGID_10_)">
		<g>
			<defs>
				<rect id="SVGID_11_" x="274.46" y="408.36" width="16.45" height="39.09"/>
			</defs>
			<clipPath id="SVGID_12_">
				<use xlink:href="#SVGID_11_"  overflow="visible"/>
			</clipPath>
			<path clip-path="url(#SVGID_12_)" fill="#E46C25" d="M275.693,410.034c5.106,6.851,14.946,20.048,14.946,20.048l-3.739,17.367
				l4.012-17.454l-15.184-19.987C274.053,407.802,274.037,407.813,275.693,410.034"/>
		</g>
	</g>
	<path clip-path="url(#SVGID_10_)" fill="#FFFFFF" d="M324.62,444.424c-4.517,3.387-10.161-1.695-14.677-7.622l2.539-20.266
		l-6.398-14.175l-2.149-0.619l-9.035,0.725l-16.355-13.736l-4.241,12.53c-0.888,2.624-0.25,6.541,1.426,8.747l15.186,19.987
		l-4.014,17.454l-1.662,27.786h10.149l0.464,1.028l31.291,0.04l-1.363-32.615C325.402,443.886,325.016,444.126,324.62,444.424"/>
	<polygon clip-path="url(#SVGID_10_)" fill="#FBAA33" points="289.302,383.759 333.906,402.841 329.293,409.426 306.416,400.245 
		307.556,394.307 289.302,383.174 	"/>
	
		<rect x="325.546" y="378.353" transform="matrix(0.8828 0.4697 -0.4697 0.8828 222.942 -107.3809)" clip-path="url(#SVGID_10_)" fill="#191818" width="2.258" height="29.517"/>
	
		<rect x="315.252" y="370.679" transform="matrix(0.9087 0.4175 -0.4175 0.9087 190.4728 -96.7577)" clip-path="url(#SVGID_10_)" fill="#191818" width="2.257" height="32.554"/>
	
		<rect x="303.989" y="367.67" transform="matrix(0.9185 0.3954 -0.3954 0.9185 175.0569 -89.6972)" clip-path="url(#SVGID_10_)" fill="#191818" width="2.257" height="24.274"/>
	<path clip-path="url(#SVGID_10_)" fill="#191818" d="M296.575,389.166c0,0-0.011,0.047-0.032,0.135
		c-0.017,0.046-0.039,0.16-0.063,0.332c-0.038,0.328-0.094,0.832-0.026,1.433c0.012,0.305,0.091,0.622,0.159,0.967
		c0.1,0.332,0.195,0.696,0.371,1.041c0.133,0.372,0.383,0.691,0.593,1.058c0.271,0.315,0.521,0.679,0.852,0.971
		c0.336,0.283,0.647,0.618,1.039,0.841c0.377,0.242,0.737,0.517,1.143,0.686c0.398,0.182,0.771,0.403,1.157,0.536
		c0.388,0.135,0.755,0.264,1.094,0.381c0.682,0.244,1.284,0.325,1.696,0.441c0.416,0.097,0.654,0.153,0.654,0.153
		s-0.243-0.005-0.67-0.014c-0.425-0.025-1.048,0.021-1.782-0.075c-0.371-0.047-0.773-0.097-1.197-0.149
		c-0.428-0.054-0.863-0.197-1.33-0.301c-0.471-0.09-0.925-0.297-1.404-0.48c-0.49-0.16-0.931-0.454-1.401-0.71
		c-0.465-0.264-0.874-0.63-1.298-0.965c-0.37-0.391-0.78-0.756-1.069-1.198c-0.333-0.415-0.574-0.864-0.809-1.298
		c-0.201-0.441-0.399-0.87-0.515-1.282c-0.274-0.818-0.361-1.541-0.412-2.058c-0.02-0.254-0.029-0.473-0.023-0.653
		c0.003-0.139,0.004-0.213,0.004-0.213L296.575,389.166z"/>
	<path clip-path="url(#SVGID_10_)" fill="#FBAA33" d="M324.184,453.386c-8.459-2.396-12.896-5.159-15.217-7.481
		c1.703-12.445,3.702-27.121,3.845-28.474c0.251-2.383-0.501-0.376-2.132-7.524c-0.784-3.44-2.207-6.152-3.474-8.042l-14.462-0.487
		l-13.128-12.041l-4.561,11.172c-0.888,2.624-0.5,6.039,1.176,8.245l15.184,19.988l-6.176,49.002l21.5,0.553l-0.181-13.35
		l1.737,0.981L324.184,453.386z"/>
	<path clip-path="url(#SVGID_10_)" fill="#191818" d="M300.473,400.042c0,0,0.07,0.003,0.207,0.009
		c0.143,0.008,0.315,0.02,0.542,0.046c0.45,0.05,1.084,0.147,1.866,0.354c1.543,0.406,3.761,1.28,5.813,3.168
		c1.019,0.935,1.967,2.108,2.728,3.456c0.761,1.35,1.315,2.867,1.696,4.44c0.378,1.575,0.604,3.217,0.654,4.862
		c0.076,1.649,0.009,3.307-0.15,4.94c-0.154,1.635-0.404,3.25-0.734,4.812c-0.079,0.392-0.158,0.78-0.237,1.168
		c-0.069,0.362-0.138,0.723-0.205,1.08c-0.142,0.751-0.281,1.493-0.418,2.224c-0.548,2.92-1.062,5.645-1.5,7.979
		c-0.226,1.167-0.404,2.241-0.615,3.186c-0.192,0.946-0.435,1.761-0.667,2.426c-0.204,0.67-0.423,1.188-0.58,1.539
		c-0.144,0.354-0.254,0.538-0.254,0.538s0.102-0.785,0.279-2.159c0.18-1.374,0.441-3.336,0.695-5.7
		c0.267-2.36,0.578-5.116,0.912-8.067c0.084-0.737,0.168-1.487,0.254-2.248c0.045-0.387,0.09-0.776,0.135-1.168
		c0.053-0.379,0.104-0.76,0.158-1.142c0.224-1.524,0.363-3.084,0.408-4.638c0.051-1.553,0.012-3.102-0.154-4.598
		c-0.142-1.5-0.442-2.941-0.854-4.271c-0.416-1.328-0.959-2.545-1.632-3.57c-0.675-1.022-1.458-1.854-2.263-2.492
		c-1.615-1.282-3.277-1.797-4.418-2.011c-0.574-0.107-1.026-0.141-1.316-0.151c-0.134-0.002-0.236-0.002-0.305-0.002
		c-0.055,0.004-0.084,0.005-0.084,0.005L300.473,400.042z"/>
	<path clip-path="url(#SVGID_10_)" fill="#191818" d="M293.609,401.964c0,0,0.006,0.055,0.016,0.158
		c0.015,0.125,0.033,0.305,0.04,0.495c0.024,0.397,0.028,0.947-0.002,1.602c-0.042,0.653-0.108,1.407-0.272,2.202
		c-0.149,0.793-0.39,1.626-0.709,2.42c-0.178,0.394-0.324,0.787-0.548,1.148c-0.2,0.368-0.406,0.719-0.652,1.03
		c-0.221,0.325-0.458,0.617-0.715,0.869c-0.24,0.262-0.465,0.502-0.715,0.686c-0.239,0.19-0.449,0.37-0.644,0.513
		c-0.209,0.126-0.391,0.236-0.541,0.326c-0.294,0.176-0.462,0.276-0.462,0.276s0.128-0.148,0.352-0.408
		c0.109-0.128,0.242-0.283,0.394-0.461c0.135-0.191,0.272-0.42,0.425-0.655c0.165-0.229,0.292-0.509,0.422-0.8
		c0.146-0.282,0.263-0.595,0.354-0.926c0.117-0.319,0.188-0.666,0.249-1.015c0.084-0.339,0.091-0.708,0.13-1.057
		c0.041-0.712,0.011-1.42-0.081-2.076c-0.078-0.655-0.227-1.258-0.36-1.761c-0.145-0.503-0.285-0.91-0.396-1.176
		c-0.055-0.144-0.096-0.224-0.122-0.275c-0.033-0.073-0.051-0.112-0.051-0.112L293.609,401.964z"/>
	<polygon clip-path="url(#SVGID_10_)" fill="#191818" points="289.893,403.235 285.239,394.307 293.011,400.708 	"/>
	<path clip-path="url(#SVGID_10_)" fill="#191818" d="M297.37,404.36c-3.832,0-7.283-0.954-7.503-1.016l1.087-3.863
		c1.913,0.534,7.587,1.597,10.828,0.108c3.298-1.516,3.641-4.059,3.555-5.432L287,386.804l1.495-3.724l20.299,8.14l0.271,0.946
		c0.742,2.597,0.525,8.254-5.607,11.07C301.617,404.084,299.438,404.36,297.37,404.36"/>
	
		<rect x="303.3" y="402.499" transform="matrix(0.9294 0.369 -0.369 0.9294 171.6668 -88.6061)" clip-path="url(#SVGID_10_)" fill="#191818" width="28.373" height="4.013"/>
	<path clip-path="url(#SVGID_10_)" fill="#191818" d="M329.289,473.296l-46.717-0.06l6.233-42.697l-14.675-19.318
		c-2.063-2.716-2.822-7.373-1.729-10.604l4.764-14.076c1.018-3.005,3.465-5.025,6.088-5.025c0.558,0,1.106,0.096,1.628,0.279
		l1.662,0.59l5.744-15.744c1.008-2.764,3.661-4.62,6.602-4.62c0.82,0,1.628,0.145,2.403,0.427l22.439,8.172l15.196,11.619
		c2.972,2.271,3.999,6.676,2.343,10.027l-8.5,17.186c0.524,2.459,1.802,10.263-1.738,15.369c-2.745,3.957-4.055,6.614-4.486,7.562
		L329.289,473.296z M287.214,469.229l37.783,0.049l-2.517-37.561l0.164-0.417c0.052-0.134,1.32-3.332,5.091-8.767
		c3.101-4.473,1-12.738,0.979-12.821l-0.188-0.724l9.147-18.502c0.81-1.635,0.269-3.951-1.182-5.06l-14.709-11.248l-21.862-7.961
		c-1.538-0.562-3.309,0.285-3.862,1.798l-7.107,19.483l-5.411-1.92c-0.759-0.277-2.019,0.614-2.573,2.25l-4.763,14.075
		c-0.675,1.993-0.15,5.214,1.123,6.889l15.694,20.66L287.214,469.229z"/>
</g>
<g>
	<defs>
		<path id="SVGID_13_" d="M339.549,312.341h-33.816h-9.198h-23.782h-32.574l-10.034,15.453c0,0,9.099,2.808,9.209,17.689
			c0.002,0.092,0.004,0.182,0.004,0.273v71.939c0,0,2.763,28.096,33.166,36.625c29.391,8.245,33.383,17.896,33.616,18.527
			c0.006,0.022,0.01,0.034,0.01,0.034s3.226-10.033,33.627-18.562c30.403-8.529,33.166-36.625,33.166-36.625v-71.901
			c0-0.012,0.002-0.025,0.002-0.038c0-0.092,0.003-0.182,0.003-0.273c0.11-14.882,9.21-17.689,9.21-17.689l-10.033-15.453H339.549z"
			/>
	</defs>
	<clipPath id="SVGID_14_">
		<use xlink:href="#SVGID_13_"  overflow="visible"/>
	</clipPath>
	<polygon clip-path="url(#SVGID_14_)" fill="#FFFFFF" points="295.388,455.167 285.239,455.167 286.9,447.45 284.894,456.182 
		295.852,456.196 295.271,455.711 	"/>
	<path clip-path="url(#SVGID_14_)" fill="#FFFFFF" d="M303.935,401.742l2.149,0.619l6.399,14.175l-2.539,20.265
		c4.516,5.928,10.16,11.01,14.676,7.622c0.396-0.296,0.782-0.538,1.16-0.734l-1.267-11.658c0,0,1.192-3.049,4.871-8.354
		c3.679-5.305,1.271-14.472,1.271-14.472l8.816-17.827c1.228-2.484,0.439-5.861-1.761-7.545l-14.953-11.433l-22.151-8.067
		c-2.604-0.948-5.484,0.395-6.434,2.997l-6.425,17.612c0,0-1.583-0.562-3.536-1.254c-1.953-0.693-4.256,0.873-5.145,3.498
		l-4.764,14.074c-0.888,2.625-0.888,2.625,0,0l4.241-12.529l16.356,13.735L303.935,401.742z"/>
	<g opacity="0.4" clip-path="url(#SVGID_14_)">
		<g>
			<defs>
				<rect id="SVGID_15_" x="274.46" y="408.36" width="16.45" height="39.09"/>
			</defs>
			<clipPath id="SVGID_16_">
				<use xlink:href="#SVGID_15_"  overflow="visible"/>
			</clipPath>
			<path clip-path="url(#SVGID_16_)" fill="#E46C25" d="M275.693,410.034c5.106,6.851,14.946,20.048,14.946,20.048l-3.739,17.367
				l4.012-17.454l-15.184-19.987C274.053,407.802,274.037,407.813,275.693,410.034"/>
		</g>
	</g>
	<path clip-path="url(#SVGID_14_)" fill="#FFFFFF" d="M324.62,444.424c-4.517,3.387-10.161-1.695-14.677-7.622l2.539-20.266
		l-6.398-14.175l-2.149-0.619l-9.035,0.725l-16.355-13.736l-4.241,12.53c-0.888,2.624-0.25,6.541,1.426,8.747l15.186,19.987
		l-4.014,17.454l-1.662,27.786h10.149l0.464,1.028l31.291,0.04l-1.363-32.615C325.402,443.886,325.016,444.126,324.62,444.424"/>
	<polygon clip-path="url(#SVGID_14_)" fill="#FBAA33" points="289.302,383.759 333.906,402.841 329.293,409.426 306.416,400.245 
		307.556,394.307 289.302,383.174 	"/>
	
		<rect x="325.546" y="378.353" transform="matrix(0.8828 0.4697 -0.4697 0.8828 222.942 -107.3809)" clip-path="url(#SVGID_14_)" fill="#191818" width="2.258" height="29.517"/>
	
		<rect x="315.252" y="370.679" transform="matrix(0.9087 0.4175 -0.4175 0.9087 190.4728 -96.7577)" clip-path="url(#SVGID_14_)" fill="#191818" width="2.257" height="32.554"/>
	
		<rect x="303.989" y="367.67" transform="matrix(0.9185 0.3954 -0.3954 0.9185 175.0569 -89.6972)" clip-path="url(#SVGID_14_)" fill="#191818" width="2.257" height="24.274"/>
	<path clip-path="url(#SVGID_14_)" fill="#191818" d="M296.575,389.166c0,0-0.011,0.047-0.032,0.135
		c-0.017,0.046-0.039,0.16-0.063,0.332c-0.038,0.328-0.094,0.832-0.026,1.433c0.012,0.305,0.091,0.622,0.159,0.967
		c0.1,0.332,0.195,0.696,0.371,1.041c0.133,0.372,0.383,0.691,0.593,1.058c0.271,0.315,0.521,0.679,0.852,0.971
		c0.336,0.283,0.647,0.618,1.039,0.841c0.377,0.242,0.737,0.517,1.143,0.686c0.398,0.182,0.771,0.403,1.157,0.536
		c0.388,0.135,0.755,0.264,1.094,0.381c0.682,0.244,1.284,0.325,1.696,0.441c0.416,0.097,0.654,0.153,0.654,0.153
		s-0.243-0.005-0.67-0.014c-0.425-0.025-1.048,0.021-1.782-0.075c-0.371-0.047-0.773-0.097-1.197-0.149
		c-0.428-0.054-0.863-0.197-1.33-0.301c-0.471-0.09-0.925-0.297-1.404-0.48c-0.49-0.16-0.931-0.454-1.401-0.71
		c-0.465-0.264-0.874-0.63-1.298-0.965c-0.37-0.391-0.78-0.756-1.069-1.198c-0.333-0.415-0.574-0.864-0.809-1.298
		c-0.201-0.441-0.399-0.87-0.515-1.282c-0.274-0.818-0.361-1.541-0.412-2.058c-0.02-0.254-0.029-0.473-0.023-0.653
		c0.003-0.139,0.004-0.213,0.004-0.213L296.575,389.166z"/>
	<path clip-path="url(#SVGID_14_)" fill="#FBAA33" d="M324.184,453.386c-8.459-2.396-12.896-5.159-15.217-7.481
		c1.703-12.445,3.702-27.121,3.845-28.474c0.251-2.383-0.501-0.376-2.132-7.524c-0.784-3.44-2.207-6.152-3.474-8.042l-14.462-0.487
		l-13.128-12.041l-4.561,11.172c-0.888,2.624-0.5,6.039,1.176,8.245l15.184,19.988l-6.176,49.002l21.5,0.553l-0.181-13.35
		l1.737,0.981L324.184,453.386z"/>
	<path clip-path="url(#SVGID_14_)" fill="#191818" d="M300.473,400.042c0,0,0.07,0.003,0.207,0.009
		c0.143,0.008,0.315,0.02,0.542,0.046c0.45,0.05,1.084,0.147,1.866,0.354c1.543,0.406,3.761,1.28,5.813,3.168
		c1.019,0.935,1.967,2.108,2.728,3.456c0.761,1.35,1.315,2.867,1.696,4.44c0.378,1.575,0.604,3.217,0.654,4.862
		c0.076,1.649,0.009,3.307-0.15,4.94c-0.154,1.635-0.404,3.25-0.734,4.812c-0.079,0.392-0.158,0.78-0.237,1.168
		c-0.069,0.362-0.138,0.723-0.205,1.08c-0.142,0.751-0.281,1.493-0.418,2.224c-0.548,2.92-1.062,5.645-1.5,7.979
		c-0.226,1.167-0.404,2.241-0.615,3.186c-0.192,0.946-0.435,1.761-0.667,2.426c-0.204,0.67-0.423,1.188-0.58,1.539
		c-0.144,0.354-0.254,0.538-0.254,0.538s0.102-0.785,0.279-2.159c0.18-1.374,0.441-3.336,0.695-5.7
		c0.267-2.36,0.578-5.116,0.912-8.067c0.084-0.737,0.168-1.487,0.254-2.248c0.045-0.387,0.09-0.776,0.135-1.168
		c0.053-0.379,0.104-0.76,0.158-1.142c0.224-1.524,0.363-3.084,0.408-4.638c0.051-1.553,0.012-3.102-0.154-4.598
		c-0.142-1.5-0.442-2.941-0.854-4.271c-0.416-1.328-0.959-2.545-1.632-3.57c-0.675-1.022-1.458-1.854-2.263-2.492
		c-1.615-1.282-3.277-1.797-4.418-2.011c-0.574-0.107-1.026-0.141-1.316-0.151c-0.134-0.002-0.236-0.002-0.305-0.002
		c-0.055,0.004-0.084,0.005-0.084,0.005L300.473,400.042z"/>
	<path clip-path="url(#SVGID_14_)" fill="#191818" d="M293.609,401.964c0,0,0.006,0.055,0.016,0.158
		c0.015,0.125,0.033,0.305,0.04,0.495c0.024,0.397,0.028,0.947-0.002,1.602c-0.042,0.653-0.108,1.407-0.272,2.202
		c-0.149,0.793-0.39,1.626-0.709,2.42c-0.178,0.394-0.324,0.787-0.548,1.148c-0.2,0.368-0.406,0.719-0.652,1.03
		c-0.221,0.325-0.458,0.617-0.715,0.869c-0.24,0.262-0.465,0.502-0.715,0.686c-0.239,0.19-0.449,0.37-0.644,0.513
		c-0.209,0.126-0.391,0.236-0.541,0.326c-0.294,0.176-0.462,0.276-0.462,0.276s0.128-0.148,0.352-0.408
		c0.109-0.128,0.242-0.283,0.394-0.461c0.135-0.191,0.272-0.42,0.425-0.655c0.165-0.229,0.292-0.509,0.422-0.8
		c0.146-0.282,0.263-0.595,0.354-0.926c0.117-0.319,0.188-0.666,0.249-1.015c0.084-0.339,0.091-0.708,0.13-1.057
		c0.041-0.712,0.011-1.42-0.081-2.076c-0.078-0.655-0.227-1.258-0.36-1.761c-0.145-0.503-0.285-0.91-0.396-1.176
		c-0.055-0.144-0.096-0.224-0.122-0.275c-0.033-0.073-0.051-0.112-0.051-0.112L293.609,401.964z"/>
	<polygon clip-path="url(#SVGID_14_)" fill="#191818" points="289.893,403.235 285.239,394.307 293.011,400.708 	"/>
	<path clip-path="url(#SVGID_14_)" fill="#191818" d="M297.37,404.36c-3.832,0-7.283-0.954-7.503-1.016l1.087-3.863
		c1.913,0.534,7.587,1.597,10.828,0.108c3.298-1.516,3.641-4.059,3.555-5.432L287,386.804l1.495-3.724l20.299,8.14l0.271,0.946
		c0.742,2.597,0.525,8.254-5.607,11.07C301.617,404.084,299.438,404.36,297.37,404.36"/>
	
		<rect x="303.3" y="402.499" transform="matrix(0.9294 0.369 -0.369 0.9294 171.6668 -88.6061)" clip-path="url(#SVGID_14_)" fill="#191818" width="28.373" height="4.013"/>
	<path clip-path="url(#SVGID_14_)" fill="#191818" d="M329.289,473.296l-46.717-0.06l6.233-42.697l-14.675-19.318
		c-2.063-2.716-2.822-7.373-1.729-10.604l4.764-14.076c1.018-3.005,3.465-5.025,6.088-5.025c0.558,0,1.106,0.096,1.628,0.279
		l1.662,0.59l5.744-15.744c1.008-2.764,3.661-4.62,6.602-4.62c0.82,0,1.628,0.145,2.403,0.427l22.439,8.172l15.196,11.619
		c2.972,2.271,3.999,6.676,2.343,10.027l-8.5,17.186c0.524,2.459,1.802,10.263-1.738,15.369c-2.745,3.957-4.055,6.614-4.486,7.562
		L329.289,473.296z M287.214,469.229l37.783,0.049l-2.517-37.561l0.164-0.417c0.052-0.134,1.32-3.332,5.091-8.767
		c3.101-4.473,1-12.738,0.979-12.821l-0.188-0.724l9.147-18.502c0.81-1.635,0.269-3.951-1.182-5.06l-14.709-11.248l-21.862-7.961
		c-1.538-0.562-3.309,0.285-3.862,1.798l-7.107,19.483l-5.411-1.92c-0.759-0.277-2.019,0.614-2.573,2.25l-4.763,14.075
		c-0.675,1.993-0.15,5.214,1.123,6.889l15.694,20.66L287.214,469.229z"/>
</g>
<path fill="#191818" d="M367.581,323.707l3.394,5.225c-3.477,4.129-6.325,10.429-6.393,19.499l-0.001,0.059v0.018l-0.002,0.036
	l-0.001,0.199l-0.001,0.027v0.026v71.391c-0.392,2.726-4.037,22.62-27.06,29.079c-5.879,1.649-21.528,6.528-31.393,14.107
	c-5.685-4.469-15.25-9.594-31.342-14.107c-22.9-6.425-26.624-26.117-27.06-29.098v-71.411l-0.002-0.268l-0.001-0.067
	c-0.067-9.065-2.915-15.362-6.391-19.49l3.392-5.225h28.033h23.781h9.198h33.814H367.581 M372.124,315.341h-32.576h-33.814h-9.198
	h-23.781h-32.576l-10.034,15.454c0,0,9.1,2.806,9.21,17.688c0.001,0.091,0.003,0.182,0.003,0.273v71.939
	c0,0,2.764,28.096,33.166,36.624c29.393,8.245,33.383,17.896,33.615,18.529c0.008,0.021,0.012,0.033,0.012,0.033
	s3.225-10.033,33.627-18.563c30.402-8.528,33.167-36.624,33.167-36.624v-71.9c0-0.014,0.001-0.026,0.001-0.039
	c0-0.092,0.002-0.183,0.002-0.273c0.111-14.883,9.211-17.688,9.211-17.688L372.124,315.341z"/>
<path fill="#FFFFFF" d="M263.836,336.487c0-6.021,2.86-10.387,8.039-10.387c2.137,0,3.973,0.843,5.147,2.168l-1.957,3.01
	c-0.782-1.054-1.716-1.596-3.131-1.596c-2.438,0-4.004,2.801-4.004,5.992v0.36c0.752-1.385,2.378-2.559,4.274-2.559
	c3.012,0,5.631,2.258,5.631,6.533c0,3.883-2.65,6.834-6.594,6.834C265.914,346.844,263.836,342.057,263.836,336.487 M273.74,340.159
	c0-2.348-1.385-3.221-2.8-3.221c-1.294,0-2.317,0.904-3.01,2.047c0.149,1.897,0.843,4.276,3.071,4.276
	C272.838,343.262,273.74,341.666,273.74,340.159"/>
<path fill="#FFFFFF" d="M286.773,346.481v-20.08h6.473c5.539,0,8.73,4.155,8.73,10.056s-3.162,10.024-8.73,10.024H286.773z
	 M297.852,336.457c0-3.974-1.564-6.503-4.605-6.503h-2.438v12.977h2.438C296.227,342.931,297.852,340.28,297.852,336.457"/>
<path fill="#FFFFFF" d="M314.678,346.481l-0.933-3.552h-6.172l-0.933,3.552h-4.365l5.961-20.08h4.876l5.961,20.08H314.678z
	 M310.674,330.646l-2.287,8.73h4.575L310.674,330.646z"/>
<polygon fill="#FFFFFF" points="323.678,346.481 323.678,338.204 317.477,326.401 321.932,326.401 325.695,334.47 329.457,326.401 
	333.913,326.401 327.711,338.204 327.711,346.481 "/>
<path fill="#FFFFFF" d="M333.881,344.254l1.987-3.101c1.114,1.235,2.86,2.138,4.847,2.138c1.776,0,2.74-0.993,2.74-2.227
	c0-3.524-8.971-2.319-8.971-9.123c0-3.161,2.468-5.871,6.623-5.871c2.438,0,4.545,0.783,6.08,2.228l-1.926,3.012
	c-1.205-1.145-2.74-1.687-4.306-1.687c-1.444,0-2.349,0.813-2.349,2.047c0,3.131,8.941,2.288,8.941,9.063
	c0,3.521-2.408,6.111-6.804,6.111C337.705,346.844,335.477,345.851,333.881,344.254"/>
<path fill="#1A1A19" d="M305.983,480.426c0,0-0.003-0.012-0.013-0.033c-0.193-0.528-3.011-7.319-20.953-14.34v16.474
	c11.414,7.013,20.567,9.112,20.567,9.112h0.798c0,0,9.152-2.1,20.567-9.112v-16.476
	C308.262,473.362,305.983,480.426,305.983,480.426"/>
<path fill="#1A1A19" d="M252.688,450.063v8.096c8.119,9.57,19.146,15.857,29.014,22.171v-16.513
	c-2.79-0.993-5.886-1.983-9.345-2.953C263.791,458.46,257.422,454.505,252.688,450.063"/>
<path fill="#1A1A19" d="M330.267,463.816v16.513c9.868-6.313,20.895-12.602,29.014-22.17v-8.099
	c-4.733,4.443-11.104,8.399-19.67,10.803C336.15,461.834,333.059,462.824,330.267,463.816"/>
<path fill="#010101" d="M398.855,406.133c-1.818-3.576-5.514-6.851-6.38-10.245l-0.532-0.223c-1.336,3.336-1.192,7.327-0.168,10.951
	c1.108,4.704,3.424,8.369,4.508,12.994c0.193,0.89,0.354,1.774,0.459,2.742c6.955-5.05,13.369-10.809,15.182-19.897l-12.193,6.129
	C399.566,407.737,399.236,406.898,398.855,406.133"/>
<path fill="#010101" d="M395.719,364.351c0.578,1.657,0.758,3.546,1.549,5.248c0.51,0.668,0.959,1.356,1.43,2.057
	c1.314,1.813,2.677,3.43,4.421,3.884c0.606-2.796,1.065-5.732,0.534-8.912c-0.605-2.012-1.508-3.807-2.69-5.429
	c-1.849-2.559-4.358-4.637-7.396-6.199c-0.1-0.057-0.166-0.071-0.224-0.119l-0.403,0.094c0.156,0.239,0.303,0.516,0.459,0.796
	C394.775,358.395,395.188,361.171,395.719,364.351"/>
<path fill="#010101" d="M400.354,381.517c-2.654-3.01-7.05-5.257-8.736-8.326l-0.571-0.084c-0.461,3.565,0.675,7.394,2.573,10.646
	c2.248,4.277,5.406,7.249,7.611,11.456c0.409,0.813,0.785,1.631,1.127,2.54c5.476-6.626,10.246-13.806,9.731-23.059l-10.276,8.981
	C401.443,382.892,400.914,382.162,400.354,381.517"/>
<path fill="#010101" d="M213.113,406.133c1.817-3.576,5.513-6.851,6.379-10.245l0.532-0.223c1.337,3.336,1.193,7.327,0.168,10.951
	c-1.107,4.704-3.423,8.369-4.507,12.994c-0.193,0.89-0.354,1.774-0.458,2.742c-6.957-5.05-13.37-10.809-15.183-19.897l12.193,6.129
	C212.401,407.737,212.73,406.898,213.113,406.133"/>
<path fill="#010101" d="M216.249,364.351c-0.578,1.657-0.758,3.546-1.548,5.248c-0.51,0.668-0.96,1.356-1.431,2.057
	c-1.314,1.813-2.677,3.43-4.421,3.884c-0.605-2.796-1.064-5.732-0.533-8.912c0.605-2.012,1.507-3.807,2.689-5.429
	c1.849-2.559,4.358-4.637,7.396-6.199c0.099-0.057,0.167-0.071,0.223-0.119l0.404,0.094c-0.157,0.239-0.303,0.516-0.46,0.796
	C217.192,358.395,216.78,361.171,216.249,364.351"/>
<path fill="#010101" d="M211.615,381.517c2.653-3.01,7.049-5.257,8.736-8.326l0.57-0.084c0.461,3.565-0.675,7.394-2.572,10.646
	c-2.248,4.277-5.406,7.249-7.611,11.456c-0.409,0.813-0.785,1.631-1.128,2.54c-5.476-6.626-10.246-13.806-9.729-23.059l10.275,8.981
	C210.525,382.892,211.054,382.162,211.615,381.517"/>
<path fill="#010101" d="M379.252,447.291c-0.916-0.018-1.783-0.027-2.638,0.014c3.211-4.57,2.29-10.164,4.058-15.119l-0.017-0.219
	c-5.329,2.008-8.124,6.701-10.731,11.657c-1.861,3.592-3.683,7.274-6.339,9.994c1.109,0.08,2.153,0.229,3.234,0.388
	c1.122,0.164,2.274,0.386,3.435,0.692c2.307,0.135,4.581,0.237,6.732,0.167c4.035-0.171,7.795-0.855,11.037-2.606
	c1.501-0.798,2.902-1.849,4.131-3.161c-0.949-0.153-1.992-0.342-3.028-0.523C385.861,448.019,382.428,447.449,379.252,447.291"/>
<path fill="#010101" d="M392.252,431.717c-1.494-5.035-4.274-10.121-3.864-15.641l-0.144-0.219l-0.373,0.165
	c-0.045,0.036-0.098,0.108-0.101,0.144c-0.293,0.501-0.602,0.786-1.137,1.301c-3.806,6.707-3.229,14.779-1.274,21.92
	c0.319,1.176,0.652,2.295,1.062,3.425c3.423-2.676,7.644-3.359,11.442-5.306c0.342-0.207,0.678-0.37,1.03-0.582
	c3.659-2.642,5.886-7.008,6.841-11.184c-2.373,0.757-4.701,1.368-6.875,2.187C396.513,428.772,394.25,429.914,392.252,431.717"/>
<path fill="#010101" d="M232.779,447.291c0.916-0.018,1.783-0.027,2.638,0.014c-3.211-4.57-2.29-10.164-4.058-15.119l0.017-0.219
	c5.329,2.008,8.124,6.701,10.731,11.657c1.861,3.592,3.683,7.274,6.339,9.994c-1.109,0.08-2.153,0.229-3.234,0.388
	c-1.122,0.164-2.274,0.386-3.435,0.692c-2.307,0.135-4.581,0.237-6.732,0.167c-4.035-0.171-7.795-0.855-11.037-2.606
	c-1.501-0.798-2.901-1.849-4.131-3.161c0.949-0.153,1.992-0.342,3.028-0.523C226.17,448.019,229.604,447.449,232.779,447.291"/>
<path fill="#010101" d="M219.779,431.717c1.494-5.035,4.274-10.121,3.864-15.641l0.143-0.219l0.374,0.165
	c0.045,0.036,0.098,0.108,0.102,0.144c0.292,0.501,0.601,0.786,1.136,1.301c3.805,6.707,3.229,14.779,1.274,21.92
	c-0.319,1.176-0.652,2.295-1.062,3.425c-3.423-2.676-7.644-3.359-11.442-5.306c-0.342-0.207-0.677-0.37-1.029-0.582
	c-3.66-2.642-5.887-7.008-6.842-11.184c2.373,0.757,4.7,1.368,6.875,2.187C215.519,428.772,217.78,429.914,219.779,431.717"/>
</svg>
