<?xml version="1.0" encoding="utf-8"?>
<!-- Generator: Adobe Illustrator 16.0.0, SVG Export Plug-In . SVG Version: 6.00 Build 0)  -->
<!DOCTYPE svg PUBLIC "-//W3C//DTD SVG 1.1//EN" "http://www.w3.org/Graphics/SVG/1.1/DTD/svg11.dtd">
<svg version="1.1" id="Layer_1" xmlns="http://www.w3.org/2000/svg" xmlns:xlink="http://www.w3.org/1999/xlink" x="0px" y="0px"
	 width="240px" height="195px" viewBox="0 0 240 195" enable-background="new 0 0 240 195" xml:space="preserve">
<path fill="#020202" d="M71.725,96.827L71.725,96.827c-0.924,0-1.84-0.16-2.719-0.477L35.248,84.222
	C9.299,74.896,12.5,42.348,12.535,42.02c0.376-3.482,2.879-5.917,6.086-5.917c1.135,0,2.273,0.3,3.385,0.888l56.875,30.107
	c3.812,2.018,5.795,6.825,4.515,10.945l-4.099,13.181C78.254,94.575,75.211,96.827,71.725,96.827 M18.621,41.873
	c-0.264,0-0.347,0.735-0.35,0.768c-0.008,0.068-0.74,7.354,1.337,15.483c2.681,10.482,8.599,17.438,17.591,20.668l33.758,12.13
	c1.186,0.427,2.465-0.234,2.83-1.411l4.1-13.18c0.451-1.452-0.362-3.423-1.705-4.134L19.307,42.09
	C18.938,41.895,18.704,41.873,18.621,41.873"/>
<path fill="#020202" d="M168.16,96.827c-3.487,0-6.53-2.252-7.573-5.603l-4.099-13.182c-1.28-4.12,0.703-8.929,4.516-10.945
	l56.875-30.107c1.111-0.588,2.249-0.888,3.385-0.888c3.207,0,5.709,2.435,6.086,5.917c0.034,0.328,3.236,32.877-22.713,42.202
	l-33.758,12.129C169.999,96.667,169.084,96.827,168.16,96.827 M221.264,41.873c-0.084,0-0.315,0.021-0.686,0.217l-56.875,30.107
	c-1.344,0.711-2.157,2.682-1.705,4.134l4.1,13.181c0.365,1.175,1.646,1.837,2.83,1.41l33.758-12.13
	c21.727-7.807,18.957-35.87,18.929-36.151C221.609,42.608,221.527,41.873,221.264,41.873"/>
<path fill="#FBAA33" d="M120.139,55.752H54.685c0,0.089,0.002,0.177,0.002,0.268v70.509c0,0,2.709,27.535,32.506,35.895
	c28.807,8.081,32.718,17.54,32.946,18.16c0.008,0.021,0.012,0.033,0.012,0.033s3.16-9.834,32.957-18.193
	c29.797-8.358,32.506-35.895,32.506-35.895V56.058c0-0.013,0.003-0.024,0.003-0.038c0-0.091,0.002-0.179,0.002-0.268H120.139z"/>
<g opacity="0.7">
	<g>
		<g>
			<defs>
				<rect id="SVGID_1_" x="120.14" y="54.48" width="66.811" height="127.398"/>
			</defs>
			<clipPath id="SVGID_2_">
				<use xlink:href="#SVGID_1_"  overflow="visible"/>
			</clipPath>
			<path clip-path="url(#SVGID_2_)" fill="#E46C25" d="M153.777,163.32c30.402-8.529,33.166-36.624,33.166-36.624V54.795
				c0-0.013,0.002-0.025,0.002-0.039c0-0.092,0.002-0.181,0.002-0.271h-66.809V181.85c0.008,0.021,0.012,0.034,0.012,0.034
				S123.375,171.85,153.777,163.32"/>
		</g>
	</g>
</g>
<g opacity="0.4">
	<g>
		<g>
			<defs>
				<rect id="SVGID_3_" x="44.14" y="21.34" width="152.021" height="160.54"/>
			</defs>
			<clipPath id="SVGID_4_">
				<use xlink:href="#SVGID_3_"  overflow="visible"/>
			</clipPath>
			<path clip-path="url(#SVGID_4_)" fill="#FFFFFF" d="M178.154,35.138c-2.639,4.351-4.924,10.589-5.002,19.196l-0.002,0.03
				l-0.004,0.32v0.056v0.056v70.95c-0.224,1.224-1.068,5.082-3.447,9.367c-4.105,7.396-10.717,12.417-19.648,14.924
				c-13.943,3.911-23.451,8.354-29.929,12.658c-6.466-4.302-15.954-8.755-29.872-12.658c-8.596-2.412-15.051-7.16-19.183-14.113
				c-2.71-4.56-3.653-8.787-3.913-10.227v-70.94l-0.003-0.376c-0.065-8.624-2.356-14.881-5.003-19.243h24.605h23.781h9.198h33.814
				H178.154 M186.124,21.341h-32.576h-33.814h-9.198H86.755H54.179L44.145,36.795c0,0,9.1,2.806,9.21,17.688
				c0.001,0.091,0.003,0.182,0.003,0.272v71.939c0,0,2.764,28.096,33.166,36.624c29.393,8.245,33.383,17.896,33.615,18.528
				c0.008,0.021,0.012,0.033,0.012,0.033s3.225-10.033,33.626-18.563c30.402-8.528,33.168-36.624,33.168-36.624v-71.9
				c0-0.014,0-0.026,0-0.039c0-0.092,0.003-0.183,0.003-0.272c0.11-14.884,9.211-17.688,9.211-17.688L186.124,21.341z"/>
		</g>
	</g>
</g>
<path fill="#1A1A19" d="M196.158,36.794L186.124,21.34h-32.576h-33.814h-9.198H86.755H54.179L44.145,36.794
	c0,0,9.1,2.808,9.211,17.69v7.524h133.593v-7.524C187.059,39.602,196.158,36.794,196.158,36.794"/>
<path fill="#191818" d="M181.581,29.707l3.394,5.225c-2.297,2.726-4.316,6.396-5.445,11.187H60.773
	c-1.128-4.789-3.149-8.461-5.444-11.187l3.392-5.225h28.033h23.781h9.198h33.814H181.581 M186.124,21.341h-32.576h-33.814h-9.198
	H86.755H54.179L44.145,36.795c0,0,9.1,2.806,9.21,17.688h133.593c0.11-14.884,9.211-17.688,9.211-17.688L186.124,21.341z"/>
<g>
	<g>
		<defs>
			<path id="SVGID_5_" d="M153.549,18.341h-33.816h-9.198H86.753H54.179L44.145,33.794c0,0,9.099,2.808,9.209,17.689
				c0.002,0.092,0.004,0.182,0.004,0.272v71.939c0,0,2.763,28.096,33.166,36.625c29.391,8.245,33.383,17.896,33.616,18.526
				c0.006,0.022,0.01,0.034,0.01,0.034s3.226-10.033,33.627-18.562c30.402-8.529,33.166-36.625,33.166-36.625V51.793
				c0-0.012,0.002-0.025,0.002-0.038c0-0.092,0.003-0.182,0.003-0.272c0.11-14.883,9.21-17.689,9.21-17.689L186.125,18.34
				L153.549,18.341L153.549,18.341z"/>
		</defs>
		<clipPath id="SVGID_6_">
			<use xlink:href="#SVGID_5_"  overflow="visible"/>
		</clipPath>
		<polygon clip-path="url(#SVGID_6_)" fill="#FFFFFF" points="109.388,161.167 99.239,161.167 100.9,153.45 98.894,162.182 
			109.852,162.196 109.271,161.711 		"/>
	</g>
	<g>
		<defs>
			<path id="SVGID_7_" d="M153.549,18.341h-33.816h-9.198H86.753H54.179L44.145,33.794c0,0,9.099,2.808,9.209,17.689
				c0.002,0.092,0.004,0.182,0.004,0.272v71.939c0,0,2.763,28.096,33.166,36.625c29.391,8.245,33.383,17.896,33.616,18.526
				c0.006,0.022,0.01,0.034,0.01,0.034s3.226-10.033,33.627-18.562c30.402-8.529,33.166-36.625,33.166-36.625V51.793
				c0-0.012,0.002-0.025,0.002-0.038c0-0.092,0.003-0.182,0.003-0.272c0.11-14.883,9.21-17.689,9.21-17.689L186.125,18.34
				L153.549,18.341L153.549,18.341z"/>
		</defs>
		<clipPath id="SVGID_8_">
			<use xlink:href="#SVGID_7_"  overflow="visible"/>
		</clipPath>
		<path clip-path="url(#SVGID_8_)" fill="#FFFFFF" d="M117.935,107.742l2.149,0.619l6.398,14.175l-2.539,20.265
			c4.517,5.928,10.16,11.01,14.677,7.622c0.396-0.296,0.782-0.538,1.159-0.733l-1.266-11.658c0,0,1.191-3.049,4.87-8.354
			c3.679-5.305,1.271-14.472,1.271-14.472l8.816-17.827c1.229-2.484,0.439-5.861-1.761-7.545L136.757,78.4l-22.151-8.067
			c-2.604-0.948-5.484,0.395-6.434,2.997l-6.425,17.612c0,0-1.583-0.563-3.536-1.255s-4.256,0.873-5.145,3.498l-4.764,14.074
			c-0.888,2.625-0.888,2.625,0,0l4.241-12.529l16.356,13.735L117.935,107.742z"/>
	</g>
	<g>
		<defs>
			<path id="SVGID_9_" d="M153.549,18.341h-33.816h-9.198H86.753H54.179L44.145,33.794c0,0,9.099,2.808,9.209,17.689
				c0.002,0.092,0.004,0.182,0.004,0.272v71.939c0,0,2.763,28.096,33.166,36.625c29.391,8.245,33.383,17.896,33.616,18.526
				c0.006,0.022,0.01,0.034,0.01,0.034s3.226-10.033,33.627-18.562c30.402-8.529,33.166-36.625,33.166-36.625V51.793
				c0-0.012,0.002-0.025,0.002-0.038c0-0.092,0.003-0.182,0.003-0.272c0.11-14.883,9.21-17.689,9.21-17.689L186.125,18.34
				L153.549,18.341L153.549,18.341z"/>
		</defs>
		<clipPath id="SVGID_10_">
			<use xlink:href="#SVGID_9_"  overflow="visible"/>
		</clipPath>
		<g clip-path="url(#SVGID_10_)">
			<g opacity="0.4">
				<g>
					<defs>
						<rect id="SVGID_11_" x="88.46" y="114.36" width="16.45" height="39.09"/>
					</defs>
					<clipPath id="SVGID_12_">
						<use xlink:href="#SVGID_11_"  overflow="visible"/>
					</clipPath>
					<path clip-path="url(#SVGID_12_)" fill="#E46C25" d="M89.693,116.034c5.106,6.851,14.946,20.048,14.946,20.048l-3.739,17.367
						l4.012-17.454l-15.184-19.987C88.053,113.802,88.037,113.813,89.693,116.034"/>
				</g>
			</g>
			<g>
				<defs>
					<path id="SVGID_13_" d="M153.549,18.341h-33.816h-9.198H86.753H54.179L44.145,33.794c0,0,9.099,2.808,9.209,17.689
						c0.002,0.092,0.004,0.182,0.004,0.272v71.939c0,0,2.763,28.096,33.166,36.625c29.391,8.245,33.383,17.896,33.616,18.526
						c0.006,0.022,0.01,0.034,0.01,0.034s3.226-10.033,33.627-18.562c30.402-8.529,33.166-36.625,33.166-36.625V51.793
						c0-0.012,0.002-0.025,0.002-0.038c0-0.092,0.003-0.182,0.003-0.272c0.11-14.883,9.21-17.689,9.21-17.689L186.125,18.34
						L153.549,18.341L153.549,18.341z"/>
				</defs>
				<clipPath id="SVGID_14_">
					<use xlink:href="#SVGID_13_"  overflow="visible"/>
				</clipPath>
				<path clip-path="url(#SVGID_14_)" fill="#FFFFFF" d="M138.62,150.424c-4.517,3.387-10.161-1.695-14.677-7.622l2.539-20.266
					l-6.398-14.175l-2.149-0.619l-9.035,0.725L92.545,94.731l-4.241,12.529c-0.888,2.624-0.25,6.541,1.426,8.747l15.186,19.987
					l-4.014,17.454l-1.662,27.786h10.149l0.464,1.027l31.292,0.04l-1.363-32.614C139.402,149.886,139.016,150.126,138.62,150.424"/>
			</g>
			<g>
				<defs>
					<path id="SVGID_15_" d="M153.549,18.341h-33.816h-9.198H86.753H54.179L44.145,33.794c0,0,9.099,2.808,9.209,17.689
						c0.002,0.092,0.004,0.182,0.004,0.272v71.939c0,0,2.763,28.096,33.166,36.625c29.391,8.245,33.383,17.896,33.616,18.526
						c0.006,0.022,0.01,0.034,0.01,0.034s3.226-10.033,33.627-18.562c30.402-8.529,33.166-36.625,33.166-36.625V51.793
						c0-0.012,0.002-0.025,0.002-0.038c0-0.092,0.003-0.182,0.003-0.272c0.11-14.883,9.21-17.689,9.21-17.689L186.125,18.34
						L153.549,18.341L153.549,18.341z"/>
				</defs>
				<clipPath id="SVGID_16_">
					<use xlink:href="#SVGID_15_"  overflow="visible"/>
				</clipPath>
				<polygon clip-path="url(#SVGID_16_)" fill="#FBAA33" points="103.302,89.759 147.906,108.841 143.293,115.426 120.416,106.245 
					121.557,100.307 103.302,89.174 				"/>
			</g>
			<g>
				<defs>
					<path id="SVGID_17_" d="M189.989,33.84l-29.853-15.884l-8.12-4.319L131.021,2.466l-28.756-15.3L86.149-3.905
						c0,0,6.714,6.753-0.179,19.941c-0.042,0.082-0.082,0.162-0.125,0.243l-33.79,63.508c0,0-10.757,26.101,12.076,47.91
						c22.074,21.084,21.065,31.479,20.974,32.146c-0.005,0.021-0.007,0.034-0.007,0.034s7.56-7.342,38.405-0.592
						c30.846,6.751,46.481-16.755,46.481-16.755l33.772-63.474c0.005-0.011,0.013-0.021,0.02-0.033
						c0.043-0.081,0.088-0.159,0.131-0.239c7.087-13.086,16.438-11.29,16.438-11.29l-1.599-18.354L189.989,33.84L189.989,33.84z"/>
				</defs>
				<clipPath id="SVGID_18_">
					<use xlink:href="#SVGID_17_"  overflow="visible"/>
				</clipPath>
				
					<rect x="139.557" y="84.339" transform="matrix(-0.8829 -0.4696 0.4696 -0.8829 218.3665 252.6503)" clip-path="url(#SVGID_18_)" fill="#191818" width="2.259" height="29.516"/>
			</g>
			<g>
				<defs>
					<path id="SVGID_19_" d="M182.619,34.828L151.891,20.71l-8.359-3.84l-21.61-9.929l-29.6-13.6l-15.57,9.853
						c0,0,7.096,6.351,0.983,19.919c-0.036,0.084-0.072,0.167-0.11,0.249L47.59,88.733c0,0-9.219,26.685,14.847,47.128
						c23.266,19.764,22.864,30.2,22.812,30.87c-0.004,0.022-0.005,0.035-0.005,0.035s7.12-7.77,38.306-2.828
						c31.188,4.943,45.429-19.434,45.429-19.434l30.02-65.337c0.004-0.011,0.012-0.021,0.018-0.033
						c0.038-0.084,0.078-0.164,0.116-0.247c6.313-13.478,15.754-12.229,15.754-12.229l-2.665-18.231L182.619,34.828L182.619,34.828z
						"/>
				</defs>
				<clipPath id="SVGID_20_">
					<use xlink:href="#SVGID_19_"  overflow="visible"/>
				</clipPath>
				
					<rect x="129.285" y="76.681" transform="matrix(-0.9087 -0.4175 0.4175 -0.9087 210.1 231.8787)" clip-path="url(#SVGID_20_)" fill="#191818" width="2.257" height="32.554"/>
			</g>
			<g>
				<defs>
					<path id="SVGID_21_" d="M177.434,37.445l-31.061-13.37l-8.448-3.638l-21.844-9.403L86.162-1.845L70.835,8.381
						c0,0,7.247,6.177,1.464,19.889c-0.035,0.085-0.068,0.169-0.104,0.252L43.75,94.598c0,0-8.571,26.898,15.981,46.754
						c23.736,19.194,23.586,29.638,23.551,30.309c-0.003,0.023-0.004,0.035-0.004,0.035s6.93-7.939,38.226-3.753
						c31.298,4.188,44.945-20.526,44.945-20.526l28.43-66.041c0.004-0.011,0.012-0.021,0.017-0.034
						c0.036-0.084,0.075-0.166,0.11-0.249c5.985-13.626,15.453-12.605,15.453-12.605l-3.104-18.161L177.434,37.445L177.434,37.445z"
						/>
				</defs>
				<clipPath id="SVGID_22_">
					<use xlink:href="#SVGID_21_"  overflow="visible"/>
				</clipPath>
				
					<rect x="118.004" y="73.662" transform="matrix(-0.9184 -0.3956 0.3956 -0.9184 194.6046 211.7262)" clip-path="url(#SVGID_22_)" fill="#191818" width="2.256" height="24.273"/>
			</g>
			<g>
				<defs>
					<path id="SVGID_23_" d="M153.549,18.341h-33.816h-9.198H86.753H54.179L44.145,33.794c0,0,9.099,2.808,9.209,17.689
						c0.002,0.092,0.004,0.182,0.004,0.272v71.939c0,0,2.763,28.096,33.166,36.625c29.391,8.245,33.383,17.896,33.616,18.526
						c0.006,0.022,0.01,0.034,0.01,0.034s3.226-10.033,33.627-18.562c30.402-8.529,33.166-36.625,33.166-36.625V51.793
						c0-0.012,0.002-0.025,0.002-0.038c0-0.092,0.003-0.182,0.003-0.272c0.11-14.883,9.21-17.689,9.21-17.689L186.125,18.34
						L153.549,18.341L153.549,18.341z"/>
				</defs>
				<clipPath id="SVGID_24_">
					<use xlink:href="#SVGID_23_"  overflow="visible"/>
				</clipPath>
				<path clip-path="url(#SVGID_24_)" fill="#191818" d="M110.575,95.166c0,0-0.011,0.047-0.032,0.135
					c-0.017,0.046-0.039,0.16-0.063,0.332c-0.038,0.328-0.094,0.832-0.026,1.434c0.012,0.305,0.091,0.622,0.159,0.967
					c0.1,0.332,0.195,0.696,0.371,1.041c0.133,0.372,0.383,0.69,0.593,1.058c0.271,0.315,0.521,0.679,0.852,0.972
					c0.336,0.282,0.647,0.617,1.039,0.841c0.377,0.241,0.737,0.517,1.143,0.686c0.398,0.183,0.771,0.403,1.157,0.536
					c0.388,0.135,0.755,0.264,1.094,0.381c0.682,0.244,1.284,0.325,1.696,0.441c0.416,0.097,0.654,0.152,0.654,0.152
					s-0.243-0.005-0.67-0.014c-0.425-0.024-1.048,0.021-1.782-0.075c-0.371-0.047-0.773-0.097-1.197-0.148
					c-0.428-0.055-0.863-0.197-1.33-0.301c-0.471-0.091-0.925-0.298-1.404-0.48c-0.49-0.16-0.931-0.454-1.401-0.71
					c-0.465-0.264-0.874-0.63-1.298-0.965c-0.37-0.392-0.78-0.756-1.069-1.198c-0.333-0.415-0.574-0.864-0.809-1.298
					c-0.201-0.441-0.399-0.87-0.515-1.282c-0.274-0.817-0.361-1.541-0.412-2.058c-0.02-0.254-0.029-0.474-0.023-0.653
					c0.003-0.139,0.004-0.213,0.004-0.213L110.575,95.166z"/>
			</g>
			<g>
				<defs>
					<path id="SVGID_25_" d="M153.549,18.341h-33.816h-9.198H86.753H54.179L44.145,33.794c0,0,9.099,2.808,9.209,17.689
						c0.002,0.092,0.004,0.182,0.004,0.272v71.939c0,0,2.763,28.096,33.166,36.625c29.391,8.245,33.383,17.896,33.616,18.526
						c0.006,0.022,0.01,0.034,0.01,0.034s3.226-10.033,33.627-18.562c30.402-8.529,33.166-36.625,33.166-36.625V51.793
						c0-0.012,0.002-0.025,0.002-0.038c0-0.092,0.003-0.182,0.003-0.272c0.11-14.883,9.21-17.689,9.21-17.689L186.125,18.34
						L153.549,18.341L153.549,18.341z"/>
				</defs>
				<clipPath id="SVGID_26_">
					<use xlink:href="#SVGID_25_"  overflow="visible"/>
				</clipPath>
				<path clip-path="url(#SVGID_26_)" fill="#FBAA33" d="M138.184,159.386c-8.459-2.396-12.896-5.159-15.217-7.48
					c1.703-12.445,3.702-27.121,3.846-28.475c0.25-2.383-0.502-0.376-2.133-7.523c-0.783-3.44-2.207-6.152-3.474-8.042
					l-14.462-0.487L93.616,95.337l-4.561,11.172c-0.888,2.624-0.5,6.039,1.176,8.245l15.184,19.988l-6.176,49.002l21.5,0.553
					l-0.18-13.35l1.736,0.98L138.184,159.386z"/>
			</g>
			<g>
				<defs>
					<path id="SVGID_27_" d="M153.549,18.341h-33.816h-9.198H86.753H54.179L44.145,33.794c0,0,9.099,2.808,9.209,17.689
						c0.002,0.092,0.004,0.182,0.004,0.272v71.939c0,0,2.763,28.096,33.166,36.625c29.391,8.245,33.383,17.896,33.616,18.526
						c0.006,0.022,0.01,0.034,0.01,0.034s3.226-10.033,33.627-18.562c30.402-8.529,33.166-36.625,33.166-36.625V51.793
						c0-0.012,0.002-0.025,0.002-0.038c0-0.092,0.003-0.182,0.003-0.272c0.11-14.883,9.21-17.689,9.21-17.689L186.125,18.34
						L153.549,18.341L153.549,18.341z"/>
				</defs>
				<clipPath id="SVGID_28_">
					<use xlink:href="#SVGID_27_"  overflow="visible"/>
				</clipPath>
				<path clip-path="url(#SVGID_28_)" fill="#191818" d="M114.473,106.042c0,0,0.07,0.003,0.207,0.009
					c0.143,0.008,0.315,0.021,0.542,0.046c0.45,0.05,1.084,0.147,1.866,0.354c1.543,0.406,3.762,1.28,5.813,3.168
					c1.02,0.935,1.968,2.107,2.729,3.456c0.762,1.35,1.314,2.867,1.696,4.439c0.378,1.575,0.604,3.218,0.653,4.862
					c0.076,1.649,0.01,3.307-0.149,4.94c-0.154,1.635-0.404,3.25-0.734,4.812c-0.079,0.393-0.157,0.78-0.237,1.168
					c-0.068,0.362-0.138,0.723-0.205,1.08c-0.142,0.751-0.28,1.493-0.418,2.224c-0.547,2.921-1.062,5.646-1.5,7.979
					c-0.226,1.167-0.403,2.241-0.614,3.186c-0.192,0.946-0.435,1.762-0.667,2.427c-0.204,0.67-0.424,1.188-0.58,1.539
					c-0.145,0.354-0.254,0.537-0.254,0.537s0.102-0.784,0.279-2.158c0.18-1.374,0.44-3.336,0.694-5.7
					c0.267-2.36,0.578-5.116,0.912-8.067c0.084-0.736,0.168-1.486,0.254-2.248c0.046-0.387,0.091-0.775,0.136-1.168
					c0.053-0.379,0.104-0.76,0.157-1.142c0.224-1.524,0.363-3.084,0.408-4.638c0.051-1.554,0.013-3.103-0.153-4.599
					c-0.143-1.5-0.442-2.94-0.854-4.271c-0.416-1.328-0.959-2.545-1.632-3.57c-0.676-1.022-1.459-1.854-2.264-2.492
					c-1.615-1.282-3.277-1.797-4.417-2.011c-0.574-0.107-1.026-0.141-1.316-0.151c-0.134-0.002-0.236-0.002-0.305-0.002
					c-0.055,0.004-0.084,0.005-0.084,0.005L114.473,106.042z"/>
			</g>
			<g>
				<defs>
					<path id="SVGID_29_" d="M153.549,18.341h-33.816h-9.198H86.753H54.179L44.145,33.794c0,0,9.099,2.808,9.209,17.689
						c0.002,0.092,0.004,0.182,0.004,0.272v71.939c0,0,2.763,28.096,33.166,36.625c29.391,8.245,33.383,17.896,33.616,18.526
						c0.006,0.022,0.01,0.034,0.01,0.034s3.226-10.033,33.627-18.562c30.402-8.529,33.166-36.625,33.166-36.625V51.793
						c0-0.012,0.002-0.025,0.002-0.038c0-0.092,0.003-0.182,0.003-0.272c0.11-14.883,9.21-17.689,9.21-17.689L186.125,18.34
						L153.549,18.341L153.549,18.341z"/>
				</defs>
				<clipPath id="SVGID_30_">
					<use xlink:href="#SVGID_29_"  overflow="visible"/>
				</clipPath>
				<path clip-path="url(#SVGID_30_)" fill="#191818" d="M107.609,107.964c0,0,0.006,0.055,0.016,0.158
					c0.015,0.125,0.033,0.305,0.04,0.495c0.024,0.396,0.028,0.947-0.002,1.602c-0.042,0.653-0.108,1.407-0.272,2.202
					c-0.149,0.793-0.39,1.626-0.709,2.42c-0.178,0.395-0.324,0.787-0.548,1.148c-0.2,0.368-0.406,0.719-0.652,1.029
					c-0.221,0.325-0.458,0.617-0.715,0.869c-0.24,0.263-0.465,0.502-0.715,0.687c-0.239,0.189-0.449,0.37-0.644,0.513
					c-0.209,0.126-0.391,0.236-0.541,0.326c-0.294,0.176-0.462,0.276-0.462,0.276s0.128-0.148,0.352-0.408
					c0.109-0.128,0.242-0.283,0.394-0.461c0.135-0.191,0.272-0.42,0.425-0.655c0.165-0.229,0.292-0.509,0.422-0.8
					c0.146-0.282,0.263-0.596,0.354-0.926c0.117-0.319,0.188-0.666,0.249-1.016c0.084-0.339,0.091-0.708,0.13-1.057
					c0.041-0.712,0.011-1.42-0.081-2.076c-0.078-0.655-0.227-1.258-0.36-1.761c-0.145-0.503-0.285-0.91-0.396-1.177
					c-0.055-0.144-0.096-0.224-0.122-0.274c-0.033-0.073-0.051-0.112-0.051-0.112L107.609,107.964z"/>
			</g>
			<g>
				<defs>
					<path id="SVGID_31_" d="M153.549,18.341h-33.816h-9.198H86.753H54.179L44.145,33.794c0,0,9.099,2.808,9.209,17.689
						c0.002,0.092,0.004,0.182,0.004,0.272v71.939c0,0,2.763,28.096,33.166,36.625c29.391,8.245,33.383,17.896,33.616,18.526
						c0.006,0.022,0.01,0.034,0.01,0.034s3.226-10.033,33.627-18.562c30.402-8.529,33.166-36.625,33.166-36.625V51.793
						c0-0.012,0.002-0.025,0.002-0.038c0-0.092,0.003-0.182,0.003-0.272c0.11-14.883,9.21-17.689,9.21-17.689L186.125,18.34
						L153.549,18.341L153.549,18.341z"/>
				</defs>
				<clipPath id="SVGID_32_">
					<use xlink:href="#SVGID_31_"  overflow="visible"/>
				</clipPath>
				<polygon clip-path="url(#SVGID_32_)" fill="#191818" points="103.893,109.235 99.239,100.307 107.011,106.708 				"/>
			</g>
			<g>
				<defs>
					<path id="SVGID_33_" d="M153.549,18.341h-33.816h-9.198H86.753H54.179L44.145,33.794c0,0,9.099,2.808,9.209,17.689
						c0.002,0.092,0.004,0.182,0.004,0.272v71.939c0,0,2.763,28.096,33.166,36.625c29.391,8.245,33.383,17.896,33.616,18.526
						c0.006,0.022,0.01,0.034,0.01,0.034s3.226-10.033,33.627-18.562c30.402-8.529,33.166-36.625,33.166-36.625V51.793
						c0-0.012,0.002-0.025,0.002-0.038c0-0.092,0.003-0.182,0.003-0.272c0.11-14.883,9.21-17.689,9.21-17.689L186.125,18.34
						L153.549,18.341L153.549,18.341z"/>
				</defs>
				<clipPath id="SVGID_34_">
					<use xlink:href="#SVGID_33_"  overflow="visible"/>
				</clipPath>
				<path clip-path="url(#SVGID_34_)" fill="#191818" d="M111.37,110.36c-3.832,0-7.283-0.954-7.503-1.017l1.087-3.862
					c1.913,0.533,7.587,1.597,10.828,0.107c3.298-1.516,3.641-4.059,3.555-5.432L101,92.804l1.495-3.724l20.299,8.14l0.271,0.946
					c0.742,2.597,0.525,8.254-5.606,11.07C115.617,110.084,113.438,110.36,111.37,110.36"/>
			</g>
			<g>
				<defs>
					<path id="SVGID_35_" d="M185.99,32.978l-31.43-12.479l-8.548-3.394L123.91,8.33L93.635-3.69L78.607,6.969
						c0,0,7.42,5.967,2.032,19.838c-0.032,0.086-0.063,0.171-0.097,0.255l-26.545,66.86c0,0-7.799,27.132,17.31,46.277
						c24.273,18.508,24.422,28.951,24.406,29.623c-0.002,0.023-0.003,0.035-0.003,0.035s6.701-8.134,38.103-4.843
						c31.403,3.292,44.338-21.801,44.338-21.801l26.532-66.825c0.005-0.011,0.011-0.022,0.016-0.034
						c0.034-0.086,0.069-0.168,0.104-0.253c5.594-13.791,15.087-13.042,15.087-13.042l-3.622-18.063L185.99,32.978L185.99,32.978z"
						/>
				</defs>
				<clipPath id="SVGID_36_">
					<use xlink:href="#SVGID_35_"  overflow="visible"/>
				</clipPath>
				
					<rect x="117.29" y="108.488" transform="matrix(-0.9294 -0.369 0.369 -0.9294 212.8994 261.7068)" clip-path="url(#SVGID_36_)" fill="#191818" width="28.372" height="4.013"/>
			</g>
			<g>
				<defs>
					<path id="SVGID_37_" d="M153.549,18.341h-33.816h-9.198H86.753H54.179L44.145,33.794c0,0,9.099,2.808,9.209,17.689
						c0.002,0.092,0.004,0.182,0.004,0.272v71.939c0,0,2.763,28.096,33.166,36.625c29.391,8.245,33.383,17.896,33.616,18.526
						c0.006,0.022,0.01,0.034,0.01,0.034s3.226-10.033,33.627-18.562c30.402-8.529,33.166-36.625,33.166-36.625V51.793
						c0-0.012,0.002-0.025,0.002-0.038c0-0.092,0.003-0.182,0.003-0.272c0.11-14.883,9.21-17.689,9.21-17.689L186.125,18.34
						L153.549,18.341L153.549,18.341z"/>
				</defs>
				<clipPath id="SVGID_38_">
					<use xlink:href="#SVGID_37_"  overflow="visible"/>
				</clipPath>
				<path clip-path="url(#SVGID_38_)" fill="#191818" d="M143.289,179.296l-46.717-0.06l6.233-42.697L88.13,117.221
					c-2.063-2.716-2.822-7.373-1.729-10.604l4.764-14.076c1.018-3.005,3.465-5.025,6.088-5.025c0.558,0,1.106,0.097,1.628,0.279
					l1.662,0.59l5.744-15.744c1.008-2.764,3.661-4.619,6.602-4.619c0.82,0,1.628,0.145,2.403,0.427l22.438,8.172l15.196,11.619
					c2.972,2.271,3.999,6.676,2.343,10.026l-8.5,17.187c0.524,2.459,1.803,10.263-1.737,15.369
					c-2.745,3.957-4.056,6.613-4.486,7.562L143.289,179.296z M101.214,175.229l37.783,0.05l-2.517-37.562l0.164-0.417
					c0.051-0.134,1.319-3.332,5.09-8.767c3.102-4.474,1-12.738,0.979-12.821l-0.188-0.724l9.147-18.502
					c0.81-1.636,0.269-3.951-1.182-5.061l-14.709-11.248l-21.862-7.961c-1.538-0.562-3.309,0.285-3.862,1.798l-7.107,19.483
					l-5.411-1.92c-0.759-0.277-2.019,0.614-2.573,2.25l-4.763,14.075c-0.675,1.993-0.15,5.214,1.123,6.889l15.694,20.66
					L101.214,175.229z"/>
			</g>
		</g>
		<g clip-path="url(#SVGID_10_)">
			<g>
				<defs>
					<path id="SVGID_39_" d="M153.549,18.341h-33.816h-9.198H86.753H54.179L44.145,33.794c0,0,9.099,2.808,9.209,17.689
						c0.002,0.092,0.004,0.182,0.004,0.272v71.939c0,0,2.763,28.096,33.166,36.625c29.391,8.245,33.383,17.896,33.616,18.526
						c0.006,0.022,0.01,0.034,0.01,0.034s3.226-10.033,33.627-18.562c30.402-8.529,33.166-36.625,33.166-36.625V51.793
						c0-0.012,0.002-0.025,0.002-0.038c0-0.092,0.003-0.182,0.003-0.272c0.11-14.883,9.21-17.689,9.21-17.689L186.125,18.34
						L153.549,18.341L153.549,18.341z"/>
				</defs>
				<clipPath id="SVGID_40_">
					<use xlink:href="#SVGID_39_"  overflow="visible"/>
				</clipPath>
				<polygon clip-path="url(#SVGID_40_)" fill="#FFFFFF" points="109.388,161.167 99.239,161.167 100.9,153.45 98.894,162.182 
					109.852,162.196 109.271,161.711 				"/>
			</g>
			<g>
				<defs>
					<path id="SVGID_41_" d="M153.549,18.341h-33.816h-9.198H86.753H54.179L44.145,33.794c0,0,9.099,2.808,9.209,17.689
						c0.002,0.092,0.004,0.182,0.004,0.272v71.939c0,0,2.763,28.096,33.166,36.625c29.391,8.245,33.383,17.896,33.616,18.526
						c0.006,0.022,0.01,0.034,0.01,0.034s3.226-10.033,33.627-18.562c30.402-8.529,33.166-36.625,33.166-36.625V51.793
						c0-0.012,0.002-0.025,0.002-0.038c0-0.092,0.003-0.182,0.003-0.272c0.11-14.883,9.21-17.689,9.21-17.689L186.125,18.34
						L153.549,18.341L153.549,18.341z"/>
				</defs>
				<clipPath id="SVGID_42_">
					<use xlink:href="#SVGID_41_"  overflow="visible"/>
				</clipPath>
				<path clip-path="url(#SVGID_42_)" fill="#FFFFFF" d="M117.935,107.742l2.149,0.619l6.398,14.175l-2.539,20.265
					c4.517,5.928,10.16,11.01,14.677,7.622c0.396-0.296,0.782-0.538,1.159-0.733l-1.266-11.658c0,0,1.191-3.049,4.87-8.354
					c3.679-5.305,1.271-14.472,1.271-14.472l8.816-17.827c1.229-2.484,0.439-5.861-1.761-7.545L136.757,78.4l-22.151-8.067
					c-2.604-0.948-5.484,0.395-6.434,2.997l-6.425,17.612c0,0-1.583-0.563-3.536-1.255s-4.256,0.873-5.145,3.498l-4.764,14.074
					c-0.888,2.625-0.888,2.625,0,0l4.241-12.529l16.356,13.735L117.935,107.742z"/>
			</g>
			<g>
				<defs>
					<path id="SVGID_43_" d="M153.549,18.341h-33.816h-9.198H86.753H54.179L44.145,33.794c0,0,9.099,2.808,9.209,17.689
						c0.002,0.092,0.004,0.182,0.004,0.272v71.939c0,0,2.763,28.096,33.166,36.625c29.391,8.245,33.383,17.896,33.616,18.526
						c0.006,0.022,0.01,0.034,0.01,0.034s3.226-10.033,33.627-18.562c30.402-8.529,33.166-36.625,33.166-36.625V51.793
						c0-0.012,0.002-0.025,0.002-0.038c0-0.092,0.003-0.182,0.003-0.272c0.11-14.883,9.21-17.689,9.21-17.689L186.125,18.34
						L153.549,18.341L153.549,18.341z"/>
				</defs>
				<clipPath id="SVGID_44_">
					<use xlink:href="#SVGID_43_"  overflow="visible"/>
				</clipPath>
				<g clip-path="url(#SVGID_44_)">
					<g opacity="0.4">
						<g>
							<defs>
								<rect id="SVGID_45_" x="88.46" y="114.36" width="16.45" height="39.09"/>
							</defs>
							<clipPath id="SVGID_46_">
								<use xlink:href="#SVGID_45_"  overflow="visible"/>
							</clipPath>
							<path clip-path="url(#SVGID_46_)" fill="#E46C25" d="M89.693,116.034c5.106,6.851,14.946,20.048,14.946,20.048l-3.739,17.367
								l4.012-17.454l-15.184-19.987C88.053,113.802,88.037,113.813,89.693,116.034"/>
						</g>
					</g>
					<g>
						<defs>
							<path id="SVGID_47_" d="M153.549,18.341h-33.816h-9.198H86.753H54.179L44.145,33.794c0,0,9.099,2.808,9.209,17.689
								c0.002,0.092,0.004,0.182,0.004,0.272v71.939c0,0,2.763,28.096,33.166,36.625c29.391,8.245,33.383,17.896,33.616,18.526
								c0.006,0.022,0.01,0.034,0.01,0.034s3.226-10.033,33.627-18.562c30.402-8.529,33.166-36.625,33.166-36.625V51.793
								c0-0.012,0.002-0.025,0.002-0.038c0-0.092,0.003-0.182,0.003-0.272c0.11-14.883,9.21-17.689,9.21-17.689L186.125,18.34
								L153.549,18.341L153.549,18.341z"/>
						</defs>
						<clipPath id="SVGID_48_">
							<use xlink:href="#SVGID_47_"  overflow="visible"/>
						</clipPath>
						<path clip-path="url(#SVGID_48_)" fill="#FFFFFF" d="M138.62,150.424c-4.517,3.387-10.161-1.695-14.677-7.622l2.539-20.266
							l-6.398-14.175l-2.149-0.619l-9.035,0.725L92.545,94.731l-4.241,12.529c-0.888,2.624-0.25,6.541,1.426,8.747l15.186,19.987
							l-4.014,17.454l-1.662,27.786h10.149l0.464,1.027l31.292,0.04l-1.363-32.614C139.402,149.886,139.016,150.126,138.62,150.424"
							/>
					</g>
					<g>
						<defs>
							<path id="SVGID_49_" d="M153.549,18.341h-33.816h-9.198H86.753H54.179L44.145,33.794c0,0,9.099,2.808,9.209,17.689
								c0.002,0.092,0.004,0.182,0.004,0.272v71.939c0,0,2.763,28.096,33.166,36.625c29.391,8.245,33.383,17.896,33.616,18.526
								c0.006,0.022,0.01,0.034,0.01,0.034s3.226-10.033,33.627-18.562c30.402-8.529,33.166-36.625,33.166-36.625V51.793
								c0-0.012,0.002-0.025,0.002-0.038c0-0.092,0.003-0.182,0.003-0.272c0.11-14.883,9.21-17.689,9.21-17.689L186.125,18.34
								L153.549,18.341L153.549,18.341z"/>
						</defs>
						<clipPath id="SVGID_50_">
							<use xlink:href="#SVGID_49_"  overflow="visible"/>
						</clipPath>
						<polygon clip-path="url(#SVGID_50_)" fill="#FBAA33" points="103.302,89.759 147.906,108.841 143.293,115.426 
							120.416,106.245 121.557,100.307 103.302,89.174 						"/>
					</g>
					<g>
						<defs>
							<path id="SVGID_51_" d="M189.989,33.84l-29.853-15.884l-8.12-4.319L131.021,2.466l-28.756-15.3L86.149-3.905
								c0,0,6.714,6.753-0.179,19.941c-0.042,0.082-0.082,0.162-0.125,0.243l-33.79,63.508c0,0-10.757,26.101,12.076,47.91
								c22.074,21.084,21.065,31.479,20.974,32.146c-0.005,0.021-0.007,0.034-0.007,0.034s7.56-7.342,38.405-0.592
								c30.846,6.751,46.481-16.755,46.481-16.755l33.772-63.474c0.005-0.011,0.013-0.021,0.02-0.033
								c0.043-0.081,0.088-0.159,0.131-0.239c7.087-13.086,16.438-11.29,16.438-11.29l-1.599-18.354L189.989,33.84L189.989,33.84z"
								/>
						</defs>
						<clipPath id="SVGID_52_">
							<use xlink:href="#SVGID_51_"  overflow="visible"/>
						</clipPath>
						
							<rect x="139.557" y="84.339" transform="matrix(-0.8829 -0.4696 0.4696 -0.8829 218.3665 252.6503)" clip-path="url(#SVGID_52_)" fill="#191818" width="2.259" height="29.516"/>
					</g>
					<g>
						<defs>
							<path id="SVGID_53_" d="M182.619,34.828L151.891,20.71l-8.359-3.84l-21.61-9.929l-29.6-13.6l-15.57,9.853
								c0,0,7.096,6.351,0.983,19.919c-0.036,0.084-0.072,0.167-0.11,0.249L47.59,88.733c0,0-9.219,26.685,14.847,47.128
								c23.266,19.764,22.864,30.2,22.812,30.87c-0.004,0.022-0.005,0.035-0.005,0.035s7.12-7.77,38.306-2.828
								c31.188,4.943,45.429-19.434,45.429-19.434l30.02-65.337c0.004-0.011,0.012-0.021,0.018-0.033
								c0.038-0.084,0.078-0.164,0.116-0.247c6.313-13.478,15.754-12.229,15.754-12.229l-2.665-18.231L182.619,34.828
								L182.619,34.828z"/>
						</defs>
						<clipPath id="SVGID_54_">
							<use xlink:href="#SVGID_53_"  overflow="visible"/>
						</clipPath>
						
							<rect x="129.285" y="76.681" transform="matrix(-0.9087 -0.4175 0.4175 -0.9087 210.1 231.8787)" clip-path="url(#SVGID_54_)" fill="#191818" width="2.257" height="32.554"/>
					</g>
					<g>
						<defs>
							<path id="SVGID_55_" d="M177.434,37.445l-31.061-13.37l-8.448-3.638l-21.844-9.403L86.162-1.845L70.835,8.381
								c0,0,7.247,6.177,1.464,19.889c-0.035,0.085-0.068,0.169-0.104,0.252L43.75,94.598c0,0-8.571,26.898,15.981,46.754
								c23.736,19.194,23.586,29.638,23.551,30.309c-0.003,0.023-0.004,0.035-0.004,0.035s6.93-7.939,38.226-3.753
								c31.298,4.188,44.945-20.526,44.945-20.526l28.43-66.041c0.004-0.011,0.012-0.021,0.017-0.034
								c0.036-0.084,0.075-0.166,0.11-0.249c5.985-13.626,15.453-12.605,15.453-12.605l-3.104-18.161L177.434,37.445L177.434,37.445
								z"/>
						</defs>
						<clipPath id="SVGID_56_">
							<use xlink:href="#SVGID_55_"  overflow="visible"/>
						</clipPath>
						
							<rect x="118.004" y="73.662" transform="matrix(-0.9184 -0.3956 0.3956 -0.9184 194.6046 211.7262)" clip-path="url(#SVGID_56_)" fill="#191818" width="2.256" height="24.273"/>
					</g>
					<g>
						<defs>
							<path id="SVGID_57_" d="M153.549,18.341h-33.816h-9.198H86.753H54.179L44.145,33.794c0,0,9.099,2.808,9.209,17.689
								c0.002,0.092,0.004,0.182,0.004,0.272v71.939c0,0,2.763,28.096,33.166,36.625c29.391,8.245,33.383,17.896,33.616,18.526
								c0.006,0.022,0.01,0.034,0.01,0.034s3.226-10.033,33.627-18.562c30.402-8.529,33.166-36.625,33.166-36.625V51.793
								c0-0.012,0.002-0.025,0.002-0.038c0-0.092,0.003-0.182,0.003-0.272c0.11-14.883,9.21-17.689,9.21-17.689L186.125,18.34
								L153.549,18.341L153.549,18.341z"/>
						</defs>
						<clipPath id="SVGID_58_">
							<use xlink:href="#SVGID_57_"  overflow="visible"/>
						</clipPath>
						<path clip-path="url(#SVGID_58_)" fill="#191818" d="M110.575,95.166c0,0-0.011,0.047-0.032,0.135
							c-0.017,0.046-0.039,0.16-0.063,0.332c-0.038,0.328-0.094,0.832-0.026,1.434c0.012,0.305,0.091,0.622,0.159,0.967
							c0.1,0.332,0.195,0.696,0.371,1.041c0.133,0.372,0.383,0.69,0.593,1.058c0.271,0.315,0.521,0.679,0.852,0.972
							c0.336,0.282,0.647,0.617,1.039,0.841c0.377,0.241,0.737,0.517,1.143,0.686c0.398,0.183,0.771,0.403,1.157,0.536
							c0.388,0.135,0.755,0.264,1.094,0.381c0.682,0.244,1.284,0.325,1.696,0.441c0.416,0.097,0.654,0.152,0.654,0.152
							s-0.243-0.005-0.67-0.014c-0.425-0.024-1.048,0.021-1.782-0.075c-0.371-0.047-0.773-0.097-1.197-0.148
							c-0.428-0.055-0.863-0.197-1.33-0.301c-0.471-0.091-0.925-0.298-1.404-0.48c-0.49-0.16-0.931-0.454-1.401-0.71
							c-0.465-0.264-0.874-0.63-1.298-0.965c-0.37-0.392-0.78-0.756-1.069-1.198c-0.333-0.415-0.574-0.864-0.809-1.298
							c-0.201-0.441-0.399-0.87-0.515-1.282c-0.274-0.817-0.361-1.541-0.412-2.058c-0.02-0.254-0.029-0.474-0.023-0.653
							c0.003-0.139,0.004-0.213,0.004-0.213L110.575,95.166z"/>
					</g>
					<g>
						<defs>
							<path id="SVGID_59_" d="M153.549,18.341h-33.816h-9.198H86.753H54.179L44.145,33.794c0,0,9.099,2.808,9.209,17.689
								c0.002,0.092,0.004,0.182,0.004,0.272v71.939c0,0,2.763,28.096,33.166,36.625c29.391,8.245,33.383,17.896,33.616,18.526
								c0.006,0.022,0.01,0.034,0.01,0.034s3.226-10.033,33.627-18.562c30.402-8.529,33.166-36.625,33.166-36.625V51.793
								c0-0.012,0.002-0.025,0.002-0.038c0-0.092,0.003-0.182,0.003-0.272c0.11-14.883,9.21-17.689,9.21-17.689L186.125,18.34
								L153.549,18.341L153.549,18.341z"/>
						</defs>
						<clipPath id="SVGID_60_">
							<use xlink:href="#SVGID_59_"  overflow="visible"/>
						</clipPath>
						<path clip-path="url(#SVGID_60_)" fill="#FBAA33" d="M138.184,159.386c-8.459-2.396-12.896-5.159-15.217-7.48
							c1.703-12.445,3.702-27.121,3.846-28.475c0.25-2.383-0.502-0.376-2.133-7.523c-0.783-3.44-2.207-6.152-3.474-8.042
							l-14.462-0.487L93.616,95.337l-4.561,11.172c-0.888,2.624-0.5,6.039,1.176,8.245l15.184,19.988l-6.176,49.002l21.5,0.553
							l-0.18-13.35l1.736,0.98L138.184,159.386z"/>
					</g>
					<g>
						<defs>
							<path id="SVGID_61_" d="M153.549,18.341h-33.816h-9.198H86.753H54.179L44.145,33.794c0,0,9.099,2.808,9.209,17.689
								c0.002,0.092,0.004,0.182,0.004,0.272v71.939c0,0,2.763,28.096,33.166,36.625c29.391,8.245,33.383,17.896,33.616,18.526
								c0.006,0.022,0.01,0.034,0.01,0.034s3.226-10.033,33.627-18.562c30.402-8.529,33.166-36.625,33.166-36.625V51.793
								c0-0.012,0.002-0.025,0.002-0.038c0-0.092,0.003-0.182,0.003-0.272c0.11-14.883,9.21-17.689,9.21-17.689L186.125,18.34
								L153.549,18.341L153.549,18.341z"/>
						</defs>
						<clipPath id="SVGID_62_">
							<use xlink:href="#SVGID_61_"  overflow="visible"/>
						</clipPath>
						<path clip-path="url(#SVGID_62_)" fill="#191818" d="M114.473,106.042c0,0,0.07,0.003,0.207,0.009
							c0.143,0.008,0.315,0.021,0.542,0.046c0.45,0.05,1.084,0.147,1.866,0.354c1.543,0.406,3.762,1.28,5.813,3.168
							c1.02,0.935,1.968,2.107,2.729,3.456c0.762,1.35,1.314,2.867,1.696,4.439c0.378,1.575,0.604,3.218,0.653,4.862
							c0.076,1.649,0.01,3.307-0.149,4.94c-0.154,1.635-0.404,3.25-0.734,4.812c-0.079,0.393-0.157,0.78-0.237,1.168
							c-0.068,0.362-0.138,0.723-0.205,1.08c-0.142,0.751-0.28,1.493-0.418,2.224c-0.547,2.921-1.062,5.646-1.5,7.979
							c-0.226,1.167-0.403,2.241-0.614,3.186c-0.192,0.946-0.435,1.762-0.667,2.427c-0.204,0.67-0.424,1.188-0.58,1.539
							c-0.145,0.354-0.254,0.537-0.254,0.537s0.102-0.784,0.279-2.158c0.18-1.374,0.44-3.336,0.694-5.7
							c0.267-2.36,0.578-5.116,0.912-8.067c0.084-0.736,0.168-1.486,0.254-2.248c0.046-0.387,0.091-0.775,0.136-1.168
							c0.053-0.379,0.104-0.76,0.157-1.142c0.224-1.524,0.363-3.084,0.408-4.638c0.051-1.554,0.013-3.103-0.153-4.599
							c-0.143-1.5-0.442-2.94-0.854-4.271c-0.416-1.328-0.959-2.545-1.632-3.57c-0.676-1.022-1.459-1.854-2.264-2.492
							c-1.615-1.282-3.277-1.797-4.417-2.011c-0.574-0.107-1.026-0.141-1.316-0.151c-0.134-0.002-0.236-0.002-0.305-0.002
							c-0.055,0.004-0.084,0.005-0.084,0.005L114.473,106.042z"/>
					</g>
					<g>
						<defs>
							<path id="SVGID_63_" d="M153.549,18.341h-33.816h-9.198H86.753H54.179L44.145,33.794c0,0,9.099,2.808,9.209,17.689
								c0.002,0.092,0.004,0.182,0.004,0.272v71.939c0,0,2.763,28.096,33.166,36.625c29.391,8.245,33.383,17.896,33.616,18.526
								c0.006,0.022,0.01,0.034,0.01,0.034s3.226-10.033,33.627-18.562c30.402-8.529,33.166-36.625,33.166-36.625V51.793
								c0-0.012,0.002-0.025,0.002-0.038c0-0.092,0.003-0.182,0.003-0.272c0.11-14.883,9.21-17.689,9.21-17.689L186.125,18.34
								L153.549,18.341L153.549,18.341z"/>
						</defs>
						<clipPath id="SVGID_64_">
							<use xlink:href="#SVGID_63_"  overflow="visible"/>
						</clipPath>
						<path clip-path="url(#SVGID_64_)" fill="#191818" d="M107.609,107.964c0,0,0.006,0.055,0.016,0.158
							c0.015,0.125,0.033,0.305,0.04,0.495c0.024,0.396,0.028,0.947-0.002,1.602c-0.042,0.653-0.108,1.407-0.272,2.202
							c-0.149,0.793-0.39,1.626-0.709,2.42c-0.178,0.395-0.324,0.787-0.548,1.148c-0.2,0.368-0.406,0.719-0.652,1.029
							c-0.221,0.325-0.458,0.617-0.715,0.869c-0.24,0.263-0.465,0.502-0.715,0.687c-0.239,0.189-0.449,0.37-0.644,0.513
							c-0.209,0.126-0.391,0.236-0.541,0.326c-0.294,0.176-0.462,0.276-0.462,0.276s0.128-0.148,0.352-0.408
							c0.109-0.128,0.242-0.283,0.394-0.461c0.135-0.191,0.272-0.42,0.425-0.655c0.165-0.229,0.292-0.509,0.422-0.8
							c0.146-0.282,0.263-0.596,0.354-0.926c0.117-0.319,0.188-0.666,0.249-1.016c0.084-0.339,0.091-0.708,0.13-1.057
							c0.041-0.712,0.011-1.42-0.081-2.076c-0.078-0.655-0.227-1.258-0.36-1.761c-0.145-0.503-0.285-0.91-0.396-1.177
							c-0.055-0.144-0.096-0.224-0.122-0.274c-0.033-0.073-0.051-0.112-0.051-0.112L107.609,107.964z"/>
					</g>
					<g>
						<defs>
							<path id="SVGID_65_" d="M153.549,18.341h-33.816h-9.198H86.753H54.179L44.145,33.794c0,0,9.099,2.808,9.209,17.689
								c0.002,0.092,0.004,0.182,0.004,0.272v71.939c0,0,2.763,28.096,33.166,36.625c29.391,8.245,33.383,17.896,33.616,18.526
								c0.006,0.022,0.01,0.034,0.01,0.034s3.226-10.033,33.627-18.562c30.402-8.529,33.166-36.625,33.166-36.625V51.793
								c0-0.012,0.002-0.025,0.002-0.038c0-0.092,0.003-0.182,0.003-0.272c0.11-14.883,9.21-17.689,9.21-17.689L186.125,18.34
								L153.549,18.341L153.549,18.341z"/>
						</defs>
						<clipPath id="SVGID_66_">
							<use xlink:href="#SVGID_65_"  overflow="visible"/>
						</clipPath>
						<polygon clip-path="url(#SVGID_66_)" fill="#191818" points="103.893,109.235 99.239,100.307 107.011,106.708 						"/>
					</g>
					<g>
						<defs>
							<path id="SVGID_67_" d="M153.549,18.341h-33.816h-9.198H86.753H54.179L44.145,33.794c0,0,9.099,2.808,9.209,17.689
								c0.002,0.092,0.004,0.182,0.004,0.272v71.939c0,0,2.763,28.096,33.166,36.625c29.391,8.245,33.383,17.896,33.616,18.526
								c0.006,0.022,0.01,0.034,0.01,0.034s3.226-10.033,33.627-18.562c30.402-8.529,33.166-36.625,33.166-36.625V51.793
								c0-0.012,0.002-0.025,0.002-0.038c0-0.092,0.003-0.182,0.003-0.272c0.11-14.883,9.21-17.689,9.21-17.689L186.125,18.34
								L153.549,18.341L153.549,18.341z"/>
						</defs>
						<clipPath id="SVGID_68_">
							<use xlink:href="#SVGID_67_"  overflow="visible"/>
						</clipPath>
						<path clip-path="url(#SVGID_68_)" fill="#191818" d="M111.37,110.36c-3.832,0-7.283-0.954-7.503-1.017l1.087-3.862
							c1.913,0.533,7.587,1.597,10.828,0.107c3.298-1.516,3.641-4.059,3.555-5.432L101,92.804l1.495-3.724l20.299,8.14l0.271,0.946
							c0.742,2.597,0.525,8.254-5.606,11.07C115.617,110.084,113.438,110.36,111.37,110.36"/>
					</g>
					<g>
						<defs>
							<path id="SVGID_69_" d="M185.99,32.978l-31.43-12.479l-8.548-3.394L123.91,8.33L93.635-3.69L78.607,6.969
								c0,0,7.42,5.967,2.032,19.838c-0.032,0.086-0.063,0.171-0.097,0.255l-26.545,66.86c0,0-7.799,27.132,17.31,46.277
								c24.273,18.508,24.422,28.951,24.406,29.623c-0.002,0.023-0.003,0.035-0.003,0.035s6.701-8.134,38.103-4.843
								c31.403,3.292,44.338-21.801,44.338-21.801l26.532-66.825c0.005-0.011,0.011-0.022,0.016-0.034
								c0.034-0.086,0.069-0.168,0.104-0.253c5.594-13.791,15.087-13.042,15.087-13.042l-3.622-18.063L185.99,32.978L185.99,32.978z
								"/>
						</defs>
						<clipPath id="SVGID_70_">
							<use xlink:href="#SVGID_69_"  overflow="visible"/>
						</clipPath>
						
							<rect x="117.29" y="108.488" transform="matrix(-0.9294 -0.369 0.369 -0.9294 212.8994 261.7068)" clip-path="url(#SVGID_70_)" fill="#191818" width="28.372" height="4.013"/>
					</g>
					<g>
						<defs>
							<path id="SVGID_71_" d="M153.549,18.341h-33.816h-9.198H86.753H54.179L44.145,33.794c0,0,9.099,2.808,9.209,17.689
								c0.002,0.092,0.004,0.182,0.004,0.272v71.939c0,0,2.763,28.096,33.166,36.625c29.391,8.245,33.383,17.896,33.616,18.526
								c0.006,0.022,0.01,0.034,0.01,0.034s3.226-10.033,33.627-18.562c30.402-8.529,33.166-36.625,33.166-36.625V51.793
								c0-0.012,0.002-0.025,0.002-0.038c0-0.092,0.003-0.182,0.003-0.272c0.11-14.883,9.21-17.689,9.21-17.689L186.125,18.34
								L153.549,18.341L153.549,18.341z"/>
						</defs>
						<clipPath id="SVGID_72_">
							<use xlink:href="#SVGID_71_"  overflow="visible"/>
						</clipPath>
						<path clip-path="url(#SVGID_72_)" fill="#191818" d="M143.289,179.296l-46.717-0.06l6.233-42.697L88.13,117.221
							c-2.063-2.716-2.822-7.373-1.729-10.604l4.764-14.076c1.018-3.005,3.465-5.025,6.088-5.025c0.558,0,1.106,0.097,1.628,0.279
							l1.662,0.59l5.744-15.744c1.008-2.764,3.661-4.619,6.602-4.619c0.82,0,1.628,0.145,2.403,0.427l22.438,8.172l15.196,11.619
							c2.972,2.271,3.999,6.676,2.343,10.026l-8.5,17.187c0.524,2.459,1.803,10.263-1.737,15.369
							c-2.745,3.957-4.056,6.613-4.486,7.562L143.289,179.296z M101.214,175.229l37.783,0.05l-2.517-37.562l0.164-0.417
							c0.051-0.134,1.319-3.332,5.09-8.767c3.102-4.474,1-12.738,0.979-12.821l-0.188-0.724l9.147-18.502
							c0.81-1.636,0.269-3.951-1.182-5.061l-14.709-11.248l-21.862-7.961c-1.538-0.562-3.309,0.285-3.862,1.798l-7.107,19.483
							l-5.411-1.92c-0.759-0.277-2.019,0.614-2.573,2.25l-4.763,14.075c-0.675,1.993-0.15,5.214,1.123,6.889l15.694,20.66
							L101.214,175.229z"/>
					</g>
				</g>
				<g clip-path="url(#SVGID_44_)">
					<g>
						<defs>
							<path id="SVGID_73_" d="M153.549,18.341h-33.816h-9.198H86.753H54.179L44.145,33.794c0,0,9.099,2.808,9.209,17.689
								c0.002,0.092,0.004,0.182,0.004,0.272v71.939c0,0,2.763,28.096,33.166,36.625c29.391,8.245,33.383,17.896,33.616,18.526
								c0.006,0.022,0.01,0.034,0.01,0.034s3.226-10.033,33.627-18.562c30.402-8.529,33.166-36.625,33.166-36.625V51.793
								c0-0.012,0.002-0.025,0.002-0.038c0-0.092,0.003-0.182,0.003-0.272c0.11-14.883,9.21-17.689,9.21-17.689L186.125,18.34
								L153.549,18.341L153.549,18.341z"/>
						</defs>
						<clipPath id="SVGID_74_">
							<use xlink:href="#SVGID_73_"  overflow="visible"/>
						</clipPath>
						<polygon clip-path="url(#SVGID_74_)" fill="#FFFFFF" points="109.388,161.167 99.239,161.167 100.9,153.45 98.894,162.182 
							109.852,162.196 109.271,161.711 						"/>
					</g>
					<g>
						<defs>
							<path id="SVGID_75_" d="M153.549,18.341h-33.816h-9.198H86.753H54.179L44.145,33.794c0,0,9.099,2.808,9.209,17.689
								c0.002,0.092,0.004,0.182,0.004,0.272v71.939c0,0,2.763,28.096,33.166,36.625c29.391,8.245,33.383,17.896,33.616,18.526
								c0.006,0.022,0.01,0.034,0.01,0.034s3.226-10.033,33.627-18.562c30.402-8.529,33.166-36.625,33.166-36.625V51.793
								c0-0.012,0.002-0.025,0.002-0.038c0-0.092,0.003-0.182,0.003-0.272c0.11-14.883,9.21-17.689,9.21-17.689L186.125,18.34
								L153.549,18.341L153.549,18.341z"/>
						</defs>
						<clipPath id="SVGID_76_">
							<use xlink:href="#SVGID_75_"  overflow="visible"/>
						</clipPath>
						<path clip-path="url(#SVGID_76_)" fill="#FFFFFF" d="M117.935,107.742l2.149,0.619l6.398,14.175l-2.539,20.265
							c4.517,5.928,10.16,11.01,14.677,7.622c0.396-0.296,0.782-0.538,1.159-0.733l-1.266-11.658c0,0,1.191-3.049,4.87-8.354
							c3.679-5.305,1.271-14.472,1.271-14.472l8.816-17.827c1.229-2.484,0.439-5.861-1.761-7.545L136.757,78.4l-22.151-8.067
							c-2.604-0.948-5.484,0.395-6.434,2.997l-6.425,17.612c0,0-1.583-0.563-3.536-1.255s-4.256,0.873-5.145,3.498l-4.764,14.074
							c-0.888,2.625-0.888,2.625,0,0l4.241-12.529l16.356,13.735L117.935,107.742z"/>
					</g>
					<g>
						<defs>
							<path id="SVGID_77_" d="M153.549,18.341h-33.816h-9.198H86.753H54.179L44.145,33.794c0,0,9.099,2.808,9.209,17.689
								c0.002,0.092,0.004,0.182,0.004,0.272v71.939c0,0,2.763,28.096,33.166,36.625c29.391,8.245,33.383,17.896,33.616,18.526
								c0.006,0.022,0.01,0.034,0.01,0.034s3.226-10.033,33.627-18.562c30.402-8.529,33.166-36.625,33.166-36.625V51.793
								c0-0.012,0.002-0.025,0.002-0.038c0-0.092,0.003-0.182,0.003-0.272c0.11-14.883,9.21-17.689,9.21-17.689L186.125,18.34
								L153.549,18.341L153.549,18.341z"/>
						</defs>
						<clipPath id="SVGID_78_">
							<use xlink:href="#SVGID_77_"  overflow="visible"/>
						</clipPath>
						<g clip-path="url(#SVGID_78_)">
							<g opacity="0.4">
								<g>
									<defs>
										<rect id="SVGID_79_" x="88.46" y="114.36" width="16.45" height="39.09"/>
									</defs>
									<clipPath id="SVGID_80_">
										<use xlink:href="#SVGID_79_"  overflow="visible"/>
									</clipPath>
									<path clip-path="url(#SVGID_80_)" fill="#E46C25" d="M89.693,116.034c5.106,6.851,14.946,20.048,14.946,20.048
										l-3.739,17.367l4.012-17.454l-15.184-19.987C88.053,113.802,88.037,113.813,89.693,116.034"/>
								</g>
							</g>
							<g>
								<defs>
									<path id="SVGID_81_" d="M153.549,18.341h-33.816h-9.198H86.753H54.179L44.145,33.794c0,0,9.099,2.808,9.209,17.689
										c0.002,0.092,0.004,0.182,0.004,0.272v71.939c0,0,2.763,28.096,33.166,36.625c29.391,8.245,33.383,17.896,33.616,18.526
										c0.006,0.022,0.01,0.034,0.01,0.034s3.226-10.033,33.627-18.562c30.402-8.529,33.166-36.625,33.166-36.625V51.793
										c0-0.012,0.002-0.025,0.002-0.038c0-0.092,0.003-0.182,0.003-0.272c0.11-14.883,9.21-17.689,9.21-17.689L186.125,18.34
										L153.549,18.341L153.549,18.341z"/>
								</defs>
								<clipPath id="SVGID_82_">
									<use xlink:href="#SVGID_81_"  overflow="visible"/>
								</clipPath>
								<path clip-path="url(#SVGID_82_)" fill="#FFFFFF" d="M138.62,150.424c-4.517,3.387-10.161-1.695-14.677-7.622l2.539-20.266
									l-6.398-14.175l-2.149-0.619l-9.035,0.725L92.545,94.731l-4.241,12.529c-0.888,2.624-0.25,6.541,1.426,8.747l15.186,19.987
									l-4.014,17.454l-1.662,27.786h10.149l0.464,1.027l31.292,0.04l-1.363-32.614
									C139.402,149.886,139.016,150.126,138.62,150.424"/>
							</g>
							<g>
								<defs>
									<path id="SVGID_83_" d="M153.549,18.341h-33.816h-9.198H86.753H54.179L44.145,33.794c0,0,9.099,2.808,9.209,17.689
										c0.002,0.092,0.004,0.182,0.004,0.272v71.939c0,0,2.763,28.096,33.166,36.625c29.391,8.245,33.383,17.896,33.616,18.526
										c0.006,0.022,0.01,0.034,0.01,0.034s3.226-10.033,33.627-18.562c30.402-8.529,33.166-36.625,33.166-36.625V51.793
										c0-0.012,0.002-0.025,0.002-0.038c0-0.092,0.003-0.182,0.003-0.272c0.11-14.883,9.21-17.689,9.21-17.689L186.125,18.34
										L153.549,18.341L153.549,18.341z"/>
								</defs>
								<clipPath id="SVGID_84_">
									<use xlink:href="#SVGID_83_"  overflow="visible"/>
								</clipPath>
								<polygon clip-path="url(#SVGID_84_)" fill="#FBAA33" points="103.302,89.759 147.906,108.841 143.293,115.426 
									120.416,106.245 121.557,100.307 103.302,89.174 								"/>
							</g>
							<g>
								<defs>
									<path id="SVGID_85_" d="M189.989,33.84l-29.853-15.884l-8.12-4.319L131.021,2.466l-28.756-15.3L86.149-3.905
										c0,0,6.714,6.753-0.179,19.941c-0.042,0.082-0.082,0.162-0.125,0.243l-33.79,63.508c0,0-10.757,26.101,12.076,47.91
										c22.074,21.084,21.065,31.479,20.974,32.146c-0.005,0.021-0.007,0.034-0.007,0.034s7.56-7.342,38.405-0.592
										c30.846,6.751,46.481-16.755,46.481-16.755l33.772-63.474c0.005-0.011,0.013-0.021,0.02-0.033
										c0.043-0.081,0.088-0.159,0.131-0.239c7.087-13.086,16.438-11.29,16.438-11.29l-1.599-18.354L189.989,33.84L189.989,33.84z
										"/>
								</defs>
								<clipPath id="SVGID_86_">
									<use xlink:href="#SVGID_85_"  overflow="visible"/>
								</clipPath>
								
									<rect x="139.557" y="84.339" transform="matrix(-0.8829 -0.4696 0.4696 -0.8829 218.3665 252.6503)" clip-path="url(#SVGID_86_)" fill="#191818" width="2.259" height="29.516"/>
							</g>
							<g>
								<defs>
									<path id="SVGID_87_" d="M182.619,34.828L151.891,20.71l-8.359-3.84l-21.61-9.929l-29.6-13.6l-15.57,9.853
										c0,0,7.096,6.351,0.983,19.919c-0.036,0.084-0.072,0.167-0.11,0.249L47.59,88.733c0,0-9.219,26.685,14.847,47.128
										c23.266,19.764,22.864,30.2,22.812,30.87c-0.004,0.022-0.005,0.035-0.005,0.035s7.12-7.77,38.306-2.828
										c31.188,4.943,45.429-19.434,45.429-19.434l30.02-65.337c0.004-0.011,0.012-0.021,0.018-0.033
										c0.038-0.084,0.078-0.164,0.116-0.247c6.313-13.478,15.754-12.229,15.754-12.229l-2.665-18.231L182.619,34.828
										L182.619,34.828z"/>
								</defs>
								<clipPath id="SVGID_88_">
									<use xlink:href="#SVGID_87_"  overflow="visible"/>
								</clipPath>
								
									<rect x="129.285" y="76.681" transform="matrix(-0.9087 -0.4175 0.4175 -0.9087 210.1 231.8787)" clip-path="url(#SVGID_88_)" fill="#191818" width="2.257" height="32.554"/>
							</g>
							<g>
								<defs>
									<path id="SVGID_89_" d="M177.434,37.445l-31.061-13.37l-8.448-3.638l-21.844-9.403L86.162-1.845L70.835,8.381
										c0,0,7.247,6.177,1.464,19.889c-0.035,0.085-0.068,0.169-0.104,0.252L43.75,94.598c0,0-8.571,26.898,15.981,46.754
										c23.736,19.194,23.586,29.638,23.551,30.309c-0.003,0.023-0.004,0.035-0.004,0.035s6.93-7.939,38.226-3.753
										c31.298,4.188,44.945-20.526,44.945-20.526l28.43-66.041c0.004-0.011,0.012-0.021,0.017-0.034
										c0.036-0.084,0.075-0.166,0.11-0.249c5.985-13.626,15.453-12.605,15.453-12.605l-3.104-18.161L177.434,37.445
										L177.434,37.445z"/>
								</defs>
								<clipPath id="SVGID_90_">
									<use xlink:href="#SVGID_89_"  overflow="visible"/>
								</clipPath>
								
									<rect x="118.004" y="73.662" transform="matrix(-0.9184 -0.3956 0.3956 -0.9184 194.6046 211.7262)" clip-path="url(#SVGID_90_)" fill="#191818" width="2.256" height="24.273"/>
							</g>
							<g>
								<defs>
									<path id="SVGID_91_" d="M153.549,18.341h-33.816h-9.198H86.753H54.179L44.145,33.794c0,0,9.099,2.808,9.209,17.689
										c0.002,0.092,0.004,0.182,0.004,0.272v71.939c0,0,2.763,28.096,33.166,36.625c29.391,8.245,33.383,17.896,33.616,18.526
										c0.006,0.022,0.01,0.034,0.01,0.034s3.226-10.033,33.627-18.562c30.402-8.529,33.166-36.625,33.166-36.625V51.793
										c0-0.012,0.002-0.025,0.002-0.038c0-0.092,0.003-0.182,0.003-0.272c0.11-14.883,9.21-17.689,9.21-17.689L186.125,18.34
										L153.549,18.341L153.549,18.341z"/>
								</defs>
								<clipPath id="SVGID_92_">
									<use xlink:href="#SVGID_91_"  overflow="visible"/>
								</clipPath>
								<path clip-path="url(#SVGID_92_)" fill="#191818" d="M110.575,95.166c0,0-0.011,0.047-0.032,0.135
									c-0.017,0.046-0.039,0.16-0.063,0.332c-0.038,0.328-0.094,0.832-0.026,1.434c0.012,0.305,0.091,0.622,0.159,0.967
									c0.1,0.332,0.195,0.696,0.371,1.041c0.133,0.372,0.383,0.69,0.593,1.058c0.271,0.315,0.521,0.679,0.852,0.972
									c0.336,0.282,0.647,0.617,1.039,0.841c0.377,0.241,0.737,0.517,1.143,0.686c0.398,0.183,0.771,0.403,1.157,0.536
									c0.388,0.135,0.755,0.264,1.094,0.381c0.682,0.244,1.284,0.325,1.696,0.441c0.416,0.097,0.654,0.152,0.654,0.152
									s-0.243-0.005-0.67-0.014c-0.425-0.024-1.048,0.021-1.782-0.075c-0.371-0.047-0.773-0.097-1.197-0.148
									c-0.428-0.055-0.863-0.197-1.33-0.301c-0.471-0.091-0.925-0.298-1.404-0.48c-0.49-0.16-0.931-0.454-1.401-0.71
									c-0.465-0.264-0.874-0.63-1.298-0.965c-0.37-0.392-0.78-0.756-1.069-1.198c-0.333-0.415-0.574-0.864-0.809-1.298
									c-0.201-0.441-0.399-0.87-0.515-1.282c-0.274-0.817-0.361-1.541-0.412-2.058c-0.02-0.254-0.029-0.474-0.023-0.653
									c0.003-0.139,0.004-0.213,0.004-0.213L110.575,95.166z"/>
							</g>
							<g>
								<defs>
									<path id="SVGID_93_" d="M153.549,18.341h-33.816h-9.198H86.753H54.179L44.145,33.794c0,0,9.099,2.808,9.209,17.689
										c0.002,0.092,0.004,0.182,0.004,0.272v71.939c0,0,2.763,28.096,33.166,36.625c29.391,8.245,33.383,17.896,33.616,18.526
										c0.006,0.022,0.01,0.034,0.01,0.034s3.226-10.033,33.627-18.562c30.402-8.529,33.166-36.625,33.166-36.625V51.793
										c0-0.012,0.002-0.025,0.002-0.038c0-0.092,0.003-0.182,0.003-0.272c0.11-14.883,9.21-17.689,9.21-17.689L186.125,18.34
										L153.549,18.341L153.549,18.341z"/>
								</defs>
								<clipPath id="SVGID_94_">
									<use xlink:href="#SVGID_93_"  overflow="visible"/>
								</clipPath>
								<path clip-path="url(#SVGID_94_)" fill="#FBAA33" d="M138.184,159.386c-8.459-2.396-12.896-5.159-15.217-7.48
									c1.703-12.445,3.702-27.121,3.846-28.475c0.25-2.383-0.502-0.376-2.133-7.523c-0.783-3.44-2.207-6.152-3.474-8.042
									l-14.462-0.487L93.616,95.337l-4.561,11.172c-0.888,2.624-0.5,6.039,1.176,8.245l15.184,19.988l-6.176,49.002l21.5,0.553
									l-0.18-13.35l1.736,0.98L138.184,159.386z"/>
							</g>
							<g>
								<defs>
									<path id="SVGID_95_" d="M153.549,18.341h-33.816h-9.198H86.753H54.179L44.145,33.794c0,0,9.099,2.808,9.209,17.689
										c0.002,0.092,0.004,0.182,0.004,0.272v71.939c0,0,2.763,28.096,33.166,36.625c29.391,8.245,33.383,17.896,33.616,18.526
										c0.006,0.022,0.01,0.034,0.01,0.034s3.226-10.033,33.627-18.562c30.402-8.529,33.166-36.625,33.166-36.625V51.793
										c0-0.012,0.002-0.025,0.002-0.038c0-0.092,0.003-0.182,0.003-0.272c0.11-14.883,9.21-17.689,9.21-17.689L186.125,18.34
										L153.549,18.341L153.549,18.341z"/>
								</defs>
								<clipPath id="SVGID_96_">
									<use xlink:href="#SVGID_95_"  overflow="visible"/>
								</clipPath>
								<path clip-path="url(#SVGID_96_)" fill="#191818" d="M114.473,106.042c0,0,0.07,0.003,0.207,0.009
									c0.143,0.008,0.315,0.021,0.542,0.046c0.45,0.05,1.084,0.147,1.866,0.354c1.543,0.406,3.762,1.28,5.813,3.168
									c1.02,0.935,1.968,2.107,2.729,3.456c0.762,1.35,1.314,2.867,1.696,4.439c0.378,1.575,0.604,3.218,0.653,4.862
									c0.076,1.649,0.01,3.307-0.149,4.94c-0.154,1.635-0.404,3.25-0.734,4.812c-0.079,0.393-0.157,0.78-0.237,1.168
									c-0.068,0.362-0.138,0.723-0.205,1.08c-0.142,0.751-0.28,1.493-0.418,2.224c-0.547,2.921-1.062,5.646-1.5,7.979
									c-0.226,1.167-0.403,2.241-0.614,3.186c-0.192,0.946-0.435,1.762-0.667,2.427c-0.204,0.67-0.424,1.188-0.58,1.539
									c-0.145,0.354-0.254,0.537-0.254,0.537s0.102-0.784,0.279-2.158c0.18-1.374,0.44-3.336,0.694-5.7
									c0.267-2.36,0.578-5.116,0.912-8.067c0.084-0.736,0.168-1.486,0.254-2.248c0.046-0.387,0.091-0.775,0.136-1.168
									c0.053-0.379,0.104-0.76,0.157-1.142c0.224-1.524,0.363-3.084,0.408-4.638c0.051-1.554,0.013-3.103-0.153-4.599
									c-0.143-1.5-0.442-2.94-0.854-4.271c-0.416-1.328-0.959-2.545-1.632-3.57c-0.676-1.022-1.459-1.854-2.264-2.492
									c-1.615-1.282-3.277-1.797-4.417-2.011c-0.574-0.107-1.026-0.141-1.316-0.151c-0.134-0.002-0.236-0.002-0.305-0.002
									c-0.055,0.004-0.084,0.005-0.084,0.005L114.473,106.042z"/>
							</g>
							<g>
								<defs>
									<path id="SVGID_97_" d="M153.549,18.341h-33.816h-9.198H86.753H54.179L44.145,33.794c0,0,9.099,2.808,9.209,17.689
										c0.002,0.092,0.004,0.182,0.004,0.272v71.939c0,0,2.763,28.096,33.166,36.625c29.391,8.245,33.383,17.896,33.616,18.526
										c0.006,0.022,0.01,0.034,0.01,0.034s3.226-10.033,33.627-18.562c30.402-8.529,33.166-36.625,33.166-36.625V51.793
										c0-0.012,0.002-0.025,0.002-0.038c0-0.092,0.003-0.182,0.003-0.272c0.11-14.883,9.21-17.689,9.21-17.689L186.125,18.34
										L153.549,18.341L153.549,18.341z"/>
								</defs>
								<clipPath id="SVGID_98_">
									<use xlink:href="#SVGID_97_"  overflow="visible"/>
								</clipPath>
								<path clip-path="url(#SVGID_98_)" fill="#191818" d="M107.609,107.964c0,0,0.006,0.055,0.016,0.158
									c0.015,0.125,0.033,0.305,0.04,0.495c0.024,0.396,0.028,0.947-0.002,1.602c-0.042,0.653-0.108,1.407-0.272,2.202
									c-0.149,0.793-0.39,1.626-0.709,2.42c-0.178,0.395-0.324,0.787-0.548,1.148c-0.2,0.368-0.406,0.719-0.652,1.029
									c-0.221,0.325-0.458,0.617-0.715,0.869c-0.24,0.263-0.465,0.502-0.715,0.687c-0.239,0.189-0.449,0.37-0.644,0.513
									c-0.209,0.126-0.391,0.236-0.541,0.326c-0.294,0.176-0.462,0.276-0.462,0.276s0.128-0.148,0.352-0.408
									c0.109-0.128,0.242-0.283,0.394-0.461c0.135-0.191,0.272-0.42,0.425-0.655c0.165-0.229,0.292-0.509,0.422-0.8
									c0.146-0.282,0.263-0.596,0.354-0.926c0.117-0.319,0.188-0.666,0.249-1.016c0.084-0.339,0.091-0.708,0.13-1.057
									c0.041-0.712,0.011-1.42-0.081-2.076c-0.078-0.655-0.227-1.258-0.36-1.761c-0.145-0.503-0.285-0.91-0.396-1.177
									c-0.055-0.144-0.096-0.224-0.122-0.274c-0.033-0.073-0.051-0.112-0.051-0.112L107.609,107.964z"/>
							</g>
							<g>
								<defs>
									<path id="SVGID_99_" d="M153.549,18.341h-33.816h-9.198H86.753H54.179L44.145,33.794c0,0,9.099,2.808,9.209,17.689
										c0.002,0.092,0.004,0.182,0.004,0.272v71.939c0,0,2.763,28.096,33.166,36.625c29.391,8.245,33.383,17.896,33.616,18.526
										c0.006,0.022,0.01,0.034,0.01,0.034s3.226-10.033,33.627-18.562c30.402-8.529,33.166-36.625,33.166-36.625V51.793
										c0-0.012,0.002-0.025,0.002-0.038c0-0.092,0.003-0.182,0.003-0.272c0.11-14.883,9.21-17.689,9.21-17.689L186.125,18.34
										L153.549,18.341L153.549,18.341z"/>
								</defs>
								<clipPath id="SVGID_100_">
									<use xlink:href="#SVGID_99_"  overflow="visible"/>
								</clipPath>
								<polygon clip-path="url(#SVGID_100_)" fill="#191818" points="103.893,109.235 99.239,100.307 107.011,106.708 								"/>
							</g>
							<g>
								<defs>
									<path id="SVGID_101_" d="M153.549,18.341h-33.816h-9.198H86.753H54.179L44.145,33.794c0,0,9.099,2.808,9.209,17.689
										c0.002,0.092,0.004,0.182,0.004,0.272v71.939c0,0,2.763,28.096,33.166,36.625c29.391,8.245,33.383,17.896,33.616,18.526
										c0.006,0.022,0.01,0.034,0.01,0.034s3.226-10.033,33.627-18.562c30.402-8.529,33.166-36.625,33.166-36.625V51.793
										c0-0.012,0.002-0.025,0.002-0.038c0-0.092,0.003-0.182,0.003-0.272c0.11-14.883,9.21-17.689,9.21-17.689L186.125,18.34
										L153.549,18.341L153.549,18.341z"/>
								</defs>
								<clipPath id="SVGID_102_">
									<use xlink:href="#SVGID_101_"  overflow="visible"/>
								</clipPath>
								<path clip-path="url(#SVGID_102_)" fill="#191818" d="M111.37,110.36c-3.832,0-7.283-0.954-7.503-1.017l1.087-3.862
									c1.913,0.533,7.587,1.597,10.828,0.107c3.298-1.516,3.641-4.059,3.555-5.432L101,92.804l1.495-3.724l20.299,8.14
									l0.271,0.946c0.742,2.597,0.525,8.254-5.606,11.07C115.617,110.084,113.438,110.36,111.37,110.36"/>
							</g>
							<g>
								<defs>
									<path id="SVGID_103_" d="M185.99,32.978l-31.43-12.479l-8.548-3.394L123.91,8.33L93.635-3.69L78.607,6.969
										c0,0,7.42,5.967,2.032,19.838c-0.032,0.086-0.063,0.171-0.097,0.255l-26.545,66.86c0,0-7.799,27.132,17.31,46.277
										c24.273,18.508,24.422,28.951,24.406,29.623c-0.002,0.023-0.003,0.035-0.003,0.035s6.701-8.134,38.103-4.843
										c31.403,3.292,44.338-21.801,44.338-21.801l26.532-66.825c0.005-0.011,0.011-0.022,0.016-0.034
										c0.034-0.086,0.069-0.168,0.104-0.253c5.594-13.791,15.087-13.042,15.087-13.042l-3.622-18.063L185.99,32.978
										L185.99,32.978z"/>
								</defs>
								<clipPath id="SVGID_104_">
									<use xlink:href="#SVGID_103_"  overflow="visible"/>
								</clipPath>
								
									<rect x="117.29" y="108.488" transform="matrix(-0.9294 -0.369 0.369 -0.9294 212.8994 261.7068)" clip-path="url(#SVGID_104_)" fill="#191818" width="28.372" height="4.013"/>
							</g>
							<g>
								<defs>
									<path id="SVGID_105_" d="M153.549,18.341h-33.816h-9.198H86.753H54.179L44.145,33.794c0,0,9.099,2.808,9.209,17.689
										c0.002,0.092,0.004,0.182,0.004,0.272v71.939c0,0,2.763,28.096,33.166,36.625c29.391,8.245,33.383,17.896,33.616,18.526
										c0.006,0.022,0.01,0.034,0.01,0.034s3.226-10.033,33.627-18.562c30.402-8.529,33.166-36.625,33.166-36.625V51.793
										c0-0.012,0.002-0.025,0.002-0.038c0-0.092,0.003-0.182,0.003-0.272c0.11-14.883,9.21-17.689,9.21-17.689L186.125,18.34
										L153.549,18.341L153.549,18.341z"/>
								</defs>
								<clipPath id="SVGID_106_">
									<use xlink:href="#SVGID_105_"  overflow="visible"/>
								</clipPath>
								<path clip-path="url(#SVGID_106_)" fill="#191818" d="M143.289,179.296l-46.717-0.06l6.233-42.697L88.13,117.221
									c-2.063-2.716-2.822-7.373-1.729-10.604l4.764-14.076c1.018-3.005,3.465-5.025,6.088-5.025c0.558,0,1.106,0.097,1.628,0.279
									l1.662,0.59l5.744-15.744c1.008-2.764,3.661-4.619,6.602-4.619c0.82,0,1.628,0.145,2.403,0.427l22.438,8.172l15.196,11.619
									c2.972,2.271,3.999,6.676,2.343,10.026l-8.5,17.187c0.524,2.459,1.803,10.263-1.737,15.369
									c-2.745,3.957-4.056,6.613-4.486,7.562L143.289,179.296z M101.214,175.229l37.783,0.05l-2.517-37.562l0.164-0.417
									c0.051-0.134,1.319-3.332,5.09-8.767c3.102-4.474,1-12.738,0.979-12.821l-0.188-0.724l9.147-18.502
									c0.81-1.636,0.269-3.951-1.182-5.061l-14.709-11.248l-21.862-7.961c-1.538-0.562-3.309,0.285-3.862,1.798l-7.107,19.483
									l-5.411-1.92c-0.759-0.277-2.019,0.614-2.573,2.25l-4.763,14.075c-0.675,1.993-0.15,5.214,1.123,6.889l15.694,20.66
									L101.214,175.229z"/>
							</g>
						</g>
						<path clip-path="url(#SVGID_78_)" fill="#FFFFFF" d="M78.486,50.646l1.927-2.981c0.813,1.024,1.746,1.566,3.161,1.566
							c2.561,0,4.004-2.83,4.004-5.963v-0.392c-0.782,1.385-2.408,2.561-4.273,2.561c-3.012,0-5.631-2.26-5.631-6.532
							c0-3.884,2.649-6.834,6.594-6.834c5.299,0,7.375,4.787,7.375,10.386c0,5.992-2.83,10.357-8.037,10.357
							C81.497,52.814,79.661,51.97,78.486,50.646 M87.549,39.928c-0.121-1.896-0.783-4.272-3.041-4.272
							c-1.837,0-2.74,1.625-2.74,3.1c0,2.351,1.385,3.223,2.801,3.223C85.862,41.977,86.887,41.073,87.549,39.928"/>
						<path clip-path="url(#SVGID_78_)" fill="#FFFFFF" d="M100.732,52.481v-20.08h6.473c5.539,0,8.729,4.154,8.729,10.056
							s-3.161,10.024-8.729,10.024H100.732z M111.811,42.457c0-3.974-1.566-6.503-4.605-6.503h-2.439v12.977h2.439
							C110.185,48.931,111.811,46.28,111.811,42.457"/>
						<path clip-path="url(#SVGID_78_)" fill="#FFFFFF" d="M128.637,52.481l-0.934-3.553h-6.172l-0.932,3.553h-4.366l5.961-20.08
							h4.875l5.962,20.08H128.637z M124.633,36.646l-2.287,8.729h4.575L124.633,36.646z"/>
						<polygon clip-path="url(#SVGID_78_)" fill="#FFFFFF" points="137.637,52.481 137.637,44.204 131.434,32.401 135.891,32.401 
							139.652,40.47 143.416,32.401 147.872,32.401 141.67,44.204 141.67,52.481 						"/>
						<path clip-path="url(#SVGID_78_)" fill="#191818" d="M181.581,29.707l3.394,5.225c-3.477,4.129-6.324,10.43-6.393,19.499
							l-0.001,0.06v0.018l-0.002,0.036l-0.001,0.199l-0.001,0.026v0.026v71.392c-0.392,2.726-4.037,22.619-27.06,29.078
							c-5.879,1.649-21.529,6.528-31.394,14.107c-5.685-4.469-15.25-9.594-31.342-14.107c-22.9-6.425-26.624-26.116-27.06-29.098
							V54.757l-0.002-0.268l-0.001-0.067c-0.067-9.064-2.915-15.362-6.391-19.49l3.392-5.225h28.033h23.781h9.198h33.814H181.581
							 M186.124,21.341h-32.576h-33.814h-9.198H86.755H54.179L44.145,36.795c0,0,9.1,2.806,9.21,17.688
							c0.001,0.091,0.003,0.182,0.003,0.272v71.939c0,0,2.764,28.096,33.166,36.624c29.393,8.245,33.383,17.896,33.615,18.528
							c0.008,0.021,0.012,0.033,0.012,0.033s3.225-10.033,33.626-18.563c30.402-8.528,33.168-36.624,33.168-36.624v-71.9
							c0-0.014,0-0.026,0-0.039c0-0.092,0.003-0.183,0.003-0.272c0.11-14.884,9.211-17.688,9.211-17.688L186.124,21.341z"/>
						<path clip-path="url(#SVGID_78_)" fill="#FFFFFF" d="M147.84,50.254l1.987-3.101c1.114,1.234,2.86,2.138,4.847,2.138
							c1.776,0,2.739-0.993,2.739-2.227c0-3.524-8.972-2.319-8.972-9.123c0-3.161,2.469-5.871,6.625-5.871
							c2.438,0,4.545,0.782,6.08,2.228l-1.926,3.012c-1.205-1.145-2.74-1.687-4.307-1.687c-1.443,0-2.35,0.813-2.35,2.047
							c0,3.131,8.941,2.288,8.941,9.063c0,3.521-2.408,6.11-6.804,6.11C151.663,52.844,149.436,51.851,147.84,50.254"/>
						<path clip-path="url(#SVGID_78_)" fill="#020202" d="M212.584,107.292c0.146,1.75-0.152,3.623,0.186,5.469
							c0.328,0.773,0.593,1.555,0.873,2.35c0.82,2.085,1.734,3.989,3.311,4.864c1.285-2.557,2.464-5.284,2.744-8.496
							c-0.084-2.1-0.51-4.063-1.249-5.928c-1.15-2.939-3.062-5.579-5.613-7.852c-0.082-0.079-0.143-0.109-0.186-0.17l-0.415-0.013
							c0.093,0.271,0.165,0.577,0.247,0.887C213.157,101.289,212.863,104.081,212.584,107.292"/>
						<path clip-path="url(#SVGID_78_)" fill="#020202" d="M212.781,124.072c-1.816-3.577-5.514-6.853-6.379-10.245l-0.531-0.224
							c-1.338,3.337-1.193,7.326-0.17,10.95c1.109,4.704,3.424,8.369,4.508,12.994c0.193,0.892,0.354,1.775,0.459,2.742
							c6.957-5.049,13.369-10.808,15.183-19.896l-12.193,6.13C213.494,125.676,213.164,124.837,212.781,124.072"/>
						<path clip-path="url(#SVGID_78_)" fill="#020202" d="M193.18,165.229c-0.916-0.017-1.783-0.025-2.639,0.016
							c3.211-4.571,2.29-10.164,4.059-15.119l-0.018-0.219c-5.329,2.008-8.124,6.701-10.73,11.656
							c-1.86,3.593-3.684,7.273-6.34,9.993c1.109,0.08,2.153,0.229,3.234,0.39c1.122,0.164,2.275,0.386,3.436,0.69
							c2.305,0.136,4.58,0.238,6.731,0.167c4.034-0.171,7.795-0.854,11.037-2.604c1.501-0.798,2.901-1.851,4.131-3.161
							c-0.949-0.154-1.992-0.342-3.028-0.524C199.788,165.958,196.354,165.388,193.18,165.229"/>
						<path clip-path="url(#SVGID_78_)" fill="#020202" d="M206.18,149.656c-1.496-5.036-4.275-10.122-3.865-15.642l-0.143-0.22
							l-0.374,0.165c-0.045,0.036-0.098,0.108-0.101,0.146c-0.293,0.501-0.602,0.785-1.137,1.3
							c-3.806,6.707-3.229,14.779-1.275,21.92c0.32,1.176,0.654,2.295,1.063,3.425c3.422-2.676,7.646-3.358,11.442-5.306
							c0.342-0.207,0.677-0.37,1.03-0.582c3.66-2.642,5.886-7.007,6.841-11.184c-2.373,0.757-4.7,1.367-6.876,2.187
							C210.439,146.711,208.177,147.854,206.18,149.656"/>
						<path clip-path="url(#SVGID_78_)" fill="#020202" d="M27.379,106.422c-0.24,1.74-0.044,3.626-0.482,5.45
							c-0.368,0.755-0.674,1.521-0.996,2.299c-0.932,2.037-1.947,3.892-3.568,4.681c-1.145-2.621-2.175-5.41-2.281-8.633
							c0.197-2.091,0.727-4.027,1.566-5.853c1.307-2.873,3.357-5.406,6.027-7.536c0.086-0.075,0.149-0.104,0.195-0.161l0.414,0.011
							c-0.107,0.269-0.195,0.567-0.294,0.872C27.129,100.397,27.271,103.2,27.379,106.422"/>
						<path clip-path="url(#SVGID_78_)" fill="#020202" d="M27.104,124.072c1.816-3.577,5.512-6.853,6.379-10.245l0.531-0.224
							c1.338,3.337,1.193,7.326,0.17,10.95c-1.109,4.704-3.424,8.369-4.508,12.994c-0.194,0.892-0.354,1.775-0.459,2.742
							c-6.957-5.049-13.369-10.808-15.183-19.896l12.194,6.13C26.391,125.676,26.721,124.837,27.104,124.072"/>
						<path clip-path="url(#SVGID_78_)" fill="#020202" d="M46.706,165.229c0.915-0.017,1.782-0.025,2.638,0.016
							c-3.211-4.571-2.29-10.164-4.059-15.119l0.018-0.219c5.329,2.008,8.124,6.701,10.73,11.656
							c1.861,3.593,3.684,7.273,6.34,9.993c-1.109,0.08-2.153,0.229-3.234,0.39c-1.122,0.164-2.275,0.386-3.436,0.69
							c-2.305,0.136-4.58,0.238-6.731,0.167c-4.034-0.171-7.795-0.854-11.037-2.604c-1.501-0.798-2.901-1.851-4.131-3.161
							c0.949-0.154,1.992-0.342,3.028-0.524C40.097,165.958,43.531,165.388,46.706,165.229"/>
						<path clip-path="url(#SVGID_78_)" fill="#020202" d="M33.706,149.656c1.495-5.036,4.274-10.122,3.864-15.642l0.143-0.22
							l0.374,0.165c0.045,0.036,0.098,0.108,0.101,0.146c0.293,0.501,0.602,0.785,1.137,1.3c3.805,6.707,3.229,14.779,1.275,21.92
							c-0.32,1.176-0.654,2.295-1.063,3.425c-3.424-2.676-7.645-3.358-11.442-5.306c-0.342-0.207-0.677-0.37-1.03-0.582
							c-3.66-2.642-5.886-7.007-6.841-11.184c2.373,0.757,4.7,1.367,6.876,2.187C29.445,146.711,31.708,147.854,33.706,149.656"/>
						<polygon clip-path="url(#SVGID_78_)" fill="#020202" points="149.421,171.505 175.258,162.525 162.184,152.744 
							120.922,177.828 						"/>
						<path clip-path="url(#SVGID_78_)" fill="#020202" d="M120.641,209.449l-54.552-13.334V162.44l54.552,13.334l54.551-13.334
							v33.675L120.641,209.449z M70.605,192.57l50.034,12.229l50.036-12.229v-24.378l-50.036,12.23l-50.034-12.23V192.57z"/>
						<polygon clip-path="url(#SVGID_78_)" fill="#020202" points="112.588,175.662 65.982,162.525 79.055,152.745 113.421,172.829 
													"/>
						<polygon clip-path="url(#SVGID_78_)" fill="#020202" points="92.49,181.931 89.9,176.394 87.311,181.931 81.492,182.813 
							85.696,187.13 84.646,193.211 89.9,190.339 95.155,193.211 94.104,187.13 98.309,182.813 						"/>
						<polygon clip-path="url(#SVGID_78_)" fill="#020202" points="123.178,188.008 120.318,181.896 117.46,188.008 111.039,188.98 
							115.678,193.746 114.518,200.457 120.318,197.288 126.118,200.457 124.958,193.746 129.598,188.98 						"/>
						<polygon clip-path="url(#SVGID_78_)" fill="#020202" points="153.516,181.931 150.924,176.394 148.334,181.931 
							142.518,182.813 146.721,187.13 145.67,193.211 150.924,190.339 156.18,193.211 155.129,187.13 159.332,182.813 						"/>
					</g>
				</g>
			</g>
		</g>
	</g>
</g>
</svg>
