<?xml version="1.0" encoding="utf-8"?>
<!-- Generator: Adobe Illustrator 16.0.0, SVG Export Plug-In . SVG Version: 6.00 Build 0)  -->
<!DOCTYPE svg PUBLIC "-//W3C//DTD SVG 1.1//EN" "http://www.w3.org/Graphics/SVG/1.1/DTD/svg11.dtd">
<svg version="1.1" id="Layer_1" xmlns="http://www.w3.org/2000/svg" xmlns:xlink="http://www.w3.org/1999/xlink" x="0px" y="0px"
	 width="215px" height="195px" viewBox="0 0 215 195" enable-background="new 0 0 215 195" xml:space="preserve">
<path fill="#61C4E8" d="M34.191,149.283l63.824,36.852c1.707,0.983,3.973,1.461,6.221,1.435c2.131-0.025,4.25-0.501,5.866-1.435
	l63.825-36.852c3.324-1.919,6.044-6.63,6.044-10.468V65.116c0-3.838-2.72-8.548-6.044-10.467l-63.825-36.85
	c-1.615-0.934-3.734-1.409-5.866-1.435c-2.248-0.026-4.514,0.449-6.221,1.435l-63.824,36.85c-3.324,1.919-6.044,6.629-6.044,10.467
	v73.699C28.147,142.653,30.867,147.364,34.191,149.283"/>
<path fill="#2DA9E1" d="M173.391,149.283c3.323-1.919,6.043-6.63,6.043-10.468V65.117c0-3.839-2.72-8.549-6.043-10.468
	l-63.826-36.85c-1.496-0.864-3.423-1.331-5.393-1.416v171.167c1.969-0.086,3.896-0.555,5.393-1.418L173.391,149.283z"/>
<g opacity="0.4">
	<g>
		<g>
			<g>
				<defs>
					<rect id="SVGID_1_" x="26.15" y="14.104" width="155.821" height="175.72"/>
				</defs>
				<clipPath id="SVGID_2_">
					<use xlink:href="#SVGID_1_"  overflow="visible"/>
				</clipPath>
				<path clip-path="url(#SVGID_2_)" fill="#FFFFFF" d="M104.059,29.529l62.732,36.219v72.438l-62.732,36.219l-62.73-36.218V65.748
					L104.059,29.529 M104.059,14.109c-2.248,0-4.496,0.489-6.201,1.473L32.35,53.402c-3.41,1.97-6.203,6.805-6.203,10.744v75.64
					c0,3.94,2.793,8.774,6.203,10.744l65.508,37.82c1.705,0.982,3.953,1.473,6.201,1.473c0.061,0,0.122,0,0.184-0.001
					c2.187-0.026,4.358-0.514,6.021-1.472l65.504-37.82c3.412-1.97,6.205-6.804,6.205-10.744v-75.64
					c0-3.939-2.793-8.774-6.205-10.744l-65.504-37.82c-1.66-0.958-3.833-1.446-6.021-1.472
					C104.181,14.109,104.119,14.109,104.059,14.109"/>
			</g>
		</g>
	</g>
</g>
<path fill="#1A1A19" d="M104.059,22.39h0.084c1.125,0.014,1.824,0.273,1.979,0.363l65.507,37.82c0.848,0.49,2.063,2.593,2.063,3.573
	v75.64c0,0.98-1.215,3.083-2.063,3.573l-65.507,37.819c-0.156,0.091-0.854,0.351-1.976,0.362h-0.088
	c-1.168,0-1.898-0.269-2.063-0.362l-65.506-37.819c-0.848-0.49-2.063-2.593-2.063-3.573v-75.64c0-0.98,1.215-3.083,2.063-3.573
	l65.506-37.82C102.16,22.659,102.89,22.39,104.059,22.39 M104.059,14.109c-2.248,0-4.496,0.489-6.201,1.473L32.35,53.402
	c-3.41,1.97-6.203,6.805-6.203,10.744v75.64c0,3.94,2.793,8.774,6.203,10.744l65.508,37.82c1.705,0.982,3.953,1.473,6.201,1.473
	c0.061,0,0.122,0,0.184-0.001c2.187-0.026,4.358-0.514,6.021-1.472l65.504-37.82c3.412-1.97,6.205-6.804,6.205-10.744v-75.64
	c0-3.939-2.793-8.774-6.205-10.744l-65.504-37.82c-1.66-0.958-3.833-1.446-6.021-1.472
	C104.181,14.109,104.119,14.109,104.059,14.109"/>
<g>
	<g>
		<g>
			<defs>
				<path id="SVGID_3_" d="M97.857,15.583l-65.506,37.82c-3.414,1.97-6.205,6.805-6.205,10.744v75.639
					c0,3.941,2.791,8.774,6.205,10.744l65.506,37.82c1.752,1.013,4.076,1.501,6.384,1.474c2.188-0.025,4.36-0.514,6.021-1.474
					l65.508-37.82c3.41-1.97,6.203-6.803,6.203-10.744V64.146c0-3.939-2.793-8.774-6.203-10.744l-65.508-37.82
					c-1.66-0.957-3.832-1.444-6.021-1.472c-0.064-0.001-0.128-0.001-0.191-0.001C101.807,14.109,99.563,14.6,97.857,15.583"/>
			</defs>
			<clipPath id="SVGID_4_">
				<use xlink:href="#SVGID_3_"  overflow="visible"/>
			</clipPath>
			<path clip-path="url(#SVGID_4_)" fill="#FFFFFF" d="M56.395,70.523c0.313,0,0.648,0.051,1.003,0.156l42.163,14.063l23.73-5.002
				l1.279-4.224c0,0,5.326-3.672,14.469-3.671c3.047,0,6.52,0.407,10.357,1.495l0.768,3.454l28.245-2.083
				c0,0,1.146,0.097,1.097,0.802l-0.422,6.528l-6.91,1.792l0.258,3.944c5.305,1.646,13,4.433,23.949,9.146v18.669l2.155,0.645
				l0.563,6.95l1.739,25.297l-137.65,8.19l-6.95-67.144l-2.101-16.14C53.947,71.657,54.909,70.523,56.395,70.523 M56.395,62.52
				c-2.944,0-5.731,1.226-7.646,3.362c-2.003,2.234-2.914,5.215-2.566,8.389l0.01,0.08l0.01,0.079l2.087,16.035l6.938,67.036
				l0.789,7.621l7.648-0.455l137.649-8.188l8.063-0.479l-0.555-8.061l-1.74-25.296l-0.003-0.049l-0.004-0.05l-0.563-6.949
				l-0.441-5.455l-1.688-0.504V96.928v-5.269l-4.84-2.083c-4.504-1.939-8.709-3.663-12.592-5.16l0.118-1.856l0.422-6.53
				c0.313-4.793-3.375-8.869-8.417-9.291l-0.628-0.053l-0.629,0.046l-21.344,1.575l-0.304-1.363l-4.596-1.302
				c-4.211-1.192-8.431-1.798-12.537-1.798c-11.31-0.001-18.258,4.563-19.013,5.085l-2.308,1.589l-0.717,2.369l-16.973,3.577
				L59.924,63.087l-0.119-0.04l-0.121-0.035C58.598,62.685,57.49,62.52,56.395,62.52"/>
		</g>
	</g>
	<g>
		<g>
			<defs>
				<path id="SVGID_5_" d="M97.857,15.583l-65.506,37.82c-3.414,1.97-6.205,6.805-6.205,10.744v75.639
					c0,3.941,2.791,8.774,6.205,10.744l65.506,37.82c1.752,1.013,4.076,1.501,6.384,1.474c2.188-0.025,4.36-0.514,6.021-1.474
					l65.508-37.82c3.41-1.97,6.203-6.803,6.203-10.744V64.146c0-3.939-2.793-8.774-6.203-10.744l-65.508-37.82
					c-1.66-0.957-3.832-1.444-6.021-1.472c-0.064-0.001-0.128-0.001-0.191-0.001C101.807,14.109,99.563,14.6,97.857,15.583"/>
			</defs>
			<clipPath id="SVGID_6_">
				<use xlink:href="#SVGID_5_"  overflow="visible"/>
			</clipPath>
			<path clip-path="url(#SVGID_6_)" fill="#FFFFFF" d="M146.225,48.255c3.221,0,7.197,1.094,11.314,4.879v4.117v29.496
				l-18.716-9.438V61.16V50.303C138.823,50.303,141.814,48.255,146.225,48.255 M146.225,42.735c-5.945,0-10.066,2.703-10.52,3.012
				l-2.402,1.645v2.912v10.857v16.149v3.398l3.035,1.53l18.717,9.438l8.004,4.035v-8.965V57.251v-4.117v-2.425l-1.781-1.64
				C156.768,44.926,151.563,42.735,146.225,42.735"/>
		</g>
	</g>
	<g>
		<g>
			<defs>
				<path id="SVGID_7_" d="M97.857,15.583l-65.506,37.82c-3.414,1.97-6.205,6.805-6.205,10.744v75.639
					c0,3.941,2.791,8.774,6.205,10.744l65.506,37.82c1.752,1.013,4.076,1.501,6.384,1.474c2.188-0.025,4.36-0.514,6.021-1.474
					l65.508-37.82c3.41-1.97,6.203-6.803,6.203-10.744V64.146c0-3.939-2.793-8.774-6.203-10.744l-65.508-37.82
					c-1.66-0.957-3.832-1.444-6.021-1.472c-0.064-0.001-0.128-0.001-0.191-0.001C101.807,14.109,99.563,14.6,97.857,15.583"/>
			</defs>
			<clipPath id="SVGID_8_">
				<use xlink:href="#SVGID_7_"  overflow="visible"/>
			</clipPath>
			<path clip-path="url(#SVGID_8_)" fill="#191818" d="M138.823,50.303v10.856v10.575l18.716,9.438V65.614v-12.48
				C147.788,44.169,138.823,50.303,138.823,50.303"/>
		</g>
	</g>
	<g>
		<g>
			<defs>
				<path id="SVGID_9_" d="M97.857,15.583l-65.506,37.82c-3.414,1.97-6.205,6.805-6.205,10.744v75.639
					c0,3.941,2.791,8.774,6.205,10.744l65.506,37.82c1.752,1.013,4.076,1.501,6.384,1.474c2.188-0.025,4.36-0.514,6.021-1.474
					l65.508-37.82c3.41-1.97,6.203-6.803,6.203-10.744V64.146c0-3.939-2.793-8.774-6.203-10.744l-65.508-37.82
					c-1.66-0.957-3.832-1.444-6.021-1.472c-0.064-0.001-0.128-0.001-0.191-0.001C101.807,14.109,99.563,14.6,97.857,15.583"/>
			</defs>
			<clipPath id="SVGID_10_">
				<use xlink:href="#SVGID_9_"  overflow="visible"/>
			</clipPath>
			<path clip-path="url(#SVGID_10_)" fill="#C7343F" d="M138.823,61.16v10.575l18.716,9.438v-15.56
				C151.146,60.396,143.488,60.451,138.823,61.16"/>
		</g>
	</g>
	<g>
		<g>
			<defs>
				<path id="SVGID_11_" d="M97.857,15.583l-65.506,37.82c-3.414,1.97-6.205,6.805-6.205,10.744v75.639
					c0,3.941,2.791,8.774,6.205,10.744l65.506,37.82c1.752,1.013,4.076,1.501,6.384,1.474c2.188-0.025,4.36-0.514,6.021-1.474
					l65.508-37.82c3.41-1.97,6.203-6.803,6.203-10.744V64.146c0-3.939-2.793-8.774-6.203-10.744l-65.508-37.82
					c-1.66-0.957-3.832-1.444-6.021-1.472c-0.064-0.001-0.128-0.001-0.191-0.001C101.807,14.109,99.563,14.6,97.857,15.583"/>
			</defs>
			<clipPath id="SVGID_12_">
				<use xlink:href="#SVGID_11_"  overflow="visible"/>
			</clipPath>
			<path clip-path="url(#SVGID_12_)" fill="#191818" d="M178.316,91.244l0.377-11.592c0,0,3.914-2.937,8.582,1.354V95.76
				L178.316,91.244z"/>
		</g>
	</g>
	<g>
		<g>
			<defs>
				<path id="SVGID_13_" d="M97.857,15.583l-65.506,37.82c-3.414,1.97-6.205,6.805-6.205,10.744v75.639
					c0,3.941,2.791,8.774,6.205,10.744l65.506,37.82c1.752,1.013,4.076,1.501,6.384,1.474c2.188-0.025,4.36-0.514,6.021-1.474
					l65.508-37.82c3.41-1.97,6.203-6.803,6.203-10.744V64.146c0-3.939-2.793-8.774-6.203-10.744l-65.508-37.82
					c-1.66-0.957-3.832-1.444-6.021-1.472c-0.064-0.001-0.128-0.001-0.191-0.001C101.807,14.109,99.563,14.6,97.857,15.583"/>
			</defs>
			<clipPath id="SVGID_14_">
				<use xlink:href="#SVGID_13_"  overflow="visible"/>
			</clipPath>
			<path clip-path="url(#SVGID_14_)" fill="#191818" d="M158.916,83.409l-21.471-10.826V49.576l0.601-0.41
				c0.136-0.092,3.399-2.287,8.179-2.287c4.344,0,8.463,1.763,12.246,5.24l0.445,0.41V83.409z M140.2,70.888l15.962,8.049V53.748
				c-3.131-2.731-6.473-4.115-9.938-4.115c-2.848,0-5.024,0.937-6.023,1.46L140.2,70.888L140.2,70.888z"/>
		</g>
	</g>
	<g>
		<g>
			<defs>
				<path id="SVGID_15_" d="M97.857,15.583l-65.506,37.82c-3.414,1.97-6.205,6.805-6.205,10.744v75.639
					c0,3.941,2.791,8.774,6.205,10.744l65.506,37.82c1.752,1.013,4.076,1.501,6.384,1.474c2.188-0.025,4.36-0.514,6.021-1.474
					l65.508-37.82c3.41-1.97,6.203-6.803,6.203-10.744V64.146c0-3.939-2.793-8.774-6.203-10.744l-65.508-37.82
					c-1.66-0.957-3.832-1.444-6.021-1.472c-0.064-0.001-0.128-0.001-0.191-0.001C101.807,14.109,99.563,14.6,97.857,15.583"/>
			</defs>
			<clipPath id="SVGID_16_">
				<use xlink:href="#SVGID_15_"  overflow="visible"/>
			</clipPath>
			<path clip-path="url(#SVGID_16_)" fill="#191818" d="M158.916,83.409l-21.471-10.826V49.576l0.601-0.41
				c0.136-0.092,3.399-2.287,8.179-2.287c4.344,0,8.463,1.763,12.246,5.24l0.445,0.41V83.409z M140.2,70.888l15.962,8.049V53.748
				c-3.131-2.731-6.473-4.115-9.938-4.115c-2.848,0-5.024,0.937-6.023,1.46L140.2,70.888L140.2,70.888z"/>
		</g>
	</g>
	<g>
		<g>
			<defs>
				<path id="SVGID_17_" d="M97.857,15.583l-65.506,37.82c-3.414,1.97-6.205,6.805-6.205,10.744v75.639
					c0,3.941,2.791,8.774,6.205,10.744l65.506,37.82c1.752,1.013,4.076,1.501,6.384,1.474c2.188-0.025,4.36-0.514,6.021-1.474
					l65.508-37.82c3.41-1.97,6.203-6.803,6.203-10.744V64.146c0-3.939-2.793-8.774-6.203-10.744l-65.508-37.82
					c-1.66-0.957-3.832-1.444-6.021-1.472c-0.064-0.001-0.128-0.001-0.191-0.001C101.807,14.109,99.563,14.6,97.857,15.583"/>
			</defs>
			<clipPath id="SVGID_18_">
				<use xlink:href="#SVGID_17_"  overflow="visible"/>
			</clipPath>
			<path clip-path="url(#SVGID_18_)" fill="#D3D4D5" d="M134.844,101.682l61.537,13.44V96.927c-10.949-4.715-13.07-7.5-18.373-9.147
				l-0.258-3.944l1.334-1.79l0.422-6.529c0.051-0.705-1.096-0.801-1.096-0.801l-13.846,1.021
				c-0.713,5.669-2.369,16.858-4.635,19.535C156.865,98.894,134.844,101.682,134.844,101.682"/>
		</g>
	</g>
	<g>
		<g>
			<defs>
				<path id="SVGID_19_" d="M97.857,15.583l-65.506,37.82c-3.414,1.97-6.205,6.805-6.205,10.744v75.639
					c0,3.941,2.791,8.774,6.205,10.744l65.506,37.82c1.752,1.013,4.076,1.501,6.384,1.474c2.188-0.025,4.36-0.514,6.021-1.474
					l65.508-37.82c3.41-1.97,6.203-6.803,6.203-10.744V64.146c0-3.939-2.793-8.774-6.203-10.744l-65.508-37.82
					c-1.66-0.957-3.832-1.444-6.021-1.472c-0.064-0.001-0.128-0.001-0.191-0.001C101.807,14.109,99.563,14.6,97.857,15.583"/>
			</defs>
			<clipPath id="SVGID_20_">
				<use xlink:href="#SVGID_19_"  overflow="visible"/>
			</clipPath>
			<path clip-path="url(#SVGID_20_)" fill="#FFFFFF" d="M134.844,101.682c0,0,22.021-2.788,25.088-6.411
				c2.267-2.677,3.922-13.866,4.635-19.535l-14.4,1.063l-0.768-3.455c-15.355-4.353-24.825,2.175-24.825,2.175l-1.28,4.223
				l-26.957,5.685l4.691,9.545l9.469,3.839l50.918,18.671l-0.354,3.637l35.322,7.294v-13.286L134.844,101.682z"/>
		</g>
	</g>
	<g>
		<g>
			<defs>
				<path id="SVGID_21_" d="M97.857,15.583l-65.506,37.82c-3.414,1.97-6.205,6.805-6.205,10.744v75.639
					c0,3.941,2.791,8.774,6.205,10.744l65.506,37.82c1.752,1.013,4.076,1.501,6.384,1.474c2.188-0.025,4.36-0.514,6.021-1.474
					l65.508-37.82c3.41-1.97,6.203-6.803,6.203-10.744V64.146c0-3.939-2.793-8.774-6.203-10.744l-65.508-37.82
					c-1.66-0.957-3.832-1.444-6.021-1.472c-0.064-0.001-0.128-0.001-0.191-0.001C101.807,14.109,99.563,14.6,97.857,15.583"/>
			</defs>
			<clipPath id="SVGID_22_">
				<use xlink:href="#SVGID_21_"  overflow="visible"/>
			</clipPath>
			<path clip-path="url(#SVGID_22_)" fill="#191818" d="M197.758,130.1l-38.188-7.887l0.369-3.809L110.023,100.1l-10-4.054
				L94.32,84.439l27.893-5.88l1.184-3.902l0.396-0.273c0.231-0.16,5.787-3.914,15.25-3.914c3.498,0,7.108,0.521,10.731,1.547
				l0.791,0.226l0.688,3.095l27.166-2.004l0.108,0.01c1.472,0.123,2.438,1.056,2.354,2.27l-0.445,6.929l-1.275,1.712l0.164,2.515
				c2.252,0.802,4.014,1.828,6.178,3.089c2.6,1.516,5.834,3.399,11.428,5.808l0.832,0.358V130.1H197.758L197.758,130.1z
				 M162.549,120.016l32.455,6.703V97.828c-5.238-2.301-8.359-4.12-10.893-5.596c-2.383-1.389-4.105-2.392-6.514-3.139l-0.902-0.281
				l-0.354-5.396l1.396-1.87l0.35-5.43l-29.008,2.14l-0.846-3.806c-3.113-0.815-6.203-1.229-9.193-1.229
				c-7.213,0-11.961,2.415-13.301,3.191l-1.365,4.504l-26.021,5.486l3.678,7.482l8.983,3.644l51.873,19.02L162.549,120.016z"/>
		</g>
	</g>
	<g>
		<g>
			<defs>
				<path id="SVGID_23_" d="M97.857,15.583l-65.506,37.82c-3.414,1.97-6.205,6.805-6.205,10.744v75.639
					c0,3.941,2.791,8.774,6.205,10.744l65.506,37.82c1.752,1.013,4.076,1.501,6.384,1.474c2.188-0.025,4.36-0.514,6.021-1.474
					l65.508-37.82c3.41-1.97,6.203-6.803,6.203-10.744V64.146c0-3.939-2.793-8.774-6.203-10.744l-65.508-37.82
					c-1.66-0.957-3.832-1.444-6.021-1.472c-0.064-0.001-0.128-0.001-0.191-0.001C101.807,14.109,99.563,14.6,97.857,15.583"/>
			</defs>
			<clipPath id="SVGID_24_">
				<use xlink:href="#SVGID_23_"  overflow="visible"/>
			</clipPath>
			<path clip-path="url(#SVGID_24_)" fill="#191818" d="M108.361,92.069l-1.363-2.393c0.657-0.375,16.54-9.104,56.216-3.729
				l-0.37,2.729C124.083,83.427,108.514,91.983,108.361,92.069"/>
		</g>
	</g>
	<g>
		<g>
			<defs>
				<path id="SVGID_25_" d="M97.857,15.583l-65.506,37.82c-3.414,1.97-6.205,6.805-6.205,10.744v75.639
					c0,3.941,2.791,8.774,6.205,10.744l65.506,37.82c1.752,1.013,4.076,1.501,6.384,1.474c2.188-0.025,4.36-0.514,6.021-1.474
					l65.508-37.82c3.41-1.97,6.203-6.803,6.203-10.744V64.146c0-3.939-2.793-8.774-6.203-10.744l-65.508-37.82
					c-1.66-0.957-3.832-1.444-6.021-1.472c-0.064-0.001-0.128-0.001-0.191-0.001C101.807,14.109,99.563,14.6,97.857,15.583"/>
			</defs>
			<clipPath id="SVGID_26_">
				<use xlink:href="#SVGID_25_"  overflow="visible"/>
			</clipPath>
			<path clip-path="url(#SVGID_26_)" fill="#191818" d="M108.471,98.399l-1.588-2.252c0.565-0.398,14.305-9.746,54.051-4.356
				l-0.367,2.729C122.102,89.311,108.602,98.308,108.471,98.399"/>
		</g>
	</g>
	<g>
		<g>
			<defs>
				<path id="SVGID_27_" d="M97.857,15.583l-65.506,37.82c-3.414,1.97-6.205,6.805-6.205,10.744v75.639
					c0,3.941,2.791,8.774,6.205,10.744l65.506,37.82c1.752,1.013,4.076,1.501,6.384,1.474c2.188-0.025,4.36-0.514,6.021-1.474
					l65.508-37.82c3.41-1.97,6.203-6.803,6.203-10.744V64.146c0-3.939-2.793-8.774-6.203-10.744l-65.508-37.82
					c-1.66-0.957-3.832-1.444-6.021-1.472c-0.064-0.001-0.128-0.001-0.191-0.001C101.807,14.109,99.563,14.6,97.857,15.583"/>
			</defs>
			<clipPath id="SVGID_28_">
				<use xlink:href="#SVGID_27_"  overflow="visible"/>
			</clipPath>
			<path clip-path="url(#SVGID_28_)" fill="#FFFFFF" d="M198.536,116.24l-85.704-26.755L57.398,70.681
				c-2.031-0.607-3.492,0.607-3.26,2.717l2.1,16.139L199.1,123.191L198.536,116.24z"/>
		</g>
	</g>
	<g>
		<g>
			<defs>
				<path id="SVGID_29_" d="M97.857,15.583l-65.506,37.82c-3.414,1.97-6.205,6.805-6.205,10.744v75.639
					c0,3.941,2.791,8.774,6.205,10.744l65.506,37.82c1.752,1.013,4.076,1.501,6.384,1.474c2.188-0.025,4.36-0.514,6.021-1.474
					l65.508-37.82c3.41-1.97,6.203-6.803,6.203-10.744V64.146c0-3.939-2.793-8.774-6.203-10.744l-65.508-37.82
					c-1.66-0.957-3.832-1.444-6.021-1.472c-0.064-0.001-0.128-0.001-0.191-0.001C101.807,14.109,99.563,14.6,97.857,15.583"/>
			</defs>
			<clipPath id="SVGID_30_">
				<use xlink:href="#SVGID_29_"  overflow="visible"/>
			</clipPath>
			<path clip-path="url(#SVGID_30_)" fill="#191818" d="M200.625,124.966l-1.841-0.437L54.997,90.656l-2.224-17.083
				c-0.145-1.305,0.181-2.456,0.91-3.27c0.951-1.061,2.502-1.423,4.109-0.944l55.481,18.821l86.559,27.021L200.625,124.966z
				 M57.481,88.413l140.093,33.003l-0.336-4.139L112.422,90.8L56.956,71.983c-0.44-0.128-0.987-0.102-1.221,0.159
				c-0.198,0.22-0.281,0.623-0.228,1.104L57.481,88.413z"/>
		</g>
	</g>
	<g>
		<g>
			<defs>
				<path id="SVGID_31_" d="M97.857,15.583l-65.506,37.82c-3.414,1.97-6.205,6.805-6.205,10.744v75.639
					c0,3.941,2.791,8.774,6.205,10.744l65.506,37.82c1.752,1.013,4.076,1.501,6.384,1.474c2.188-0.025,4.36-0.514,6.021-1.474
					l65.508-37.82c3.41-1.97,6.203-6.803,6.203-10.744V64.146c0-3.939-2.793-8.774-6.203-10.744l-65.508-37.82
					c-1.66-0.957-3.832-1.444-6.021-1.472c-0.064-0.001-0.128-0.001-0.191-0.001C101.807,14.109,99.563,14.6,97.857,15.583"/>
			</defs>
			<clipPath id="SVGID_32_">
				<use xlink:href="#SVGID_31_"  overflow="visible"/>
			</clipPath>
			<polygon clip-path="url(#SVGID_32_)" fill="#1B2022" points="56.239,89.536 63.189,156.678 200.839,148.487 199.1,123.19 			"/>
		</g>
	</g>
	<g>
		<g>
			<defs>
				<path id="SVGID_33_" d="M97.857,15.583l-65.506,37.82c-3.414,1.97-6.205,6.805-6.205,10.744v75.639
					c0,3.941,2.791,8.774,6.205,10.744l65.506,37.82c1.752,1.013,4.076,1.501,6.384,1.474c2.188-0.025,4.36-0.514,6.021-1.474
					l65.508-37.82c3.41-1.97,6.203-6.803,6.203-10.744V64.146c0-3.939-2.793-8.774-6.203-10.744l-65.508-37.82
					c-1.66-0.957-3.832-1.444-6.021-1.472c-0.064-0.001-0.128-0.001-0.191-0.001C101.807,14.109,99.563,14.6,97.857,15.583"/>
			</defs>
			<clipPath id="SVGID_34_">
				<use xlink:href="#SVGID_33_"  overflow="visible"/>
			</clipPath>
			<polygon clip-path="url(#SVGID_34_)" fill="#C7343F" points="59.892,145.452 202.402,139.171 203.75,150.837 61.687,159.363 			
				"/>
		</g>
	</g>
	<g>
		<g>
			<defs>
				<path id="SVGID_35_" d="M97.857,15.583l-65.506,37.82c-3.414,1.97-6.205,6.805-6.205,10.744v75.639
					c0,3.941,2.791,8.774,6.205,10.744l65.506,37.82c1.752,1.013,4.076,1.501,6.384,1.474c2.188-0.025,4.36-0.514,6.021-1.474
					l65.508-37.82c3.41-1.97,6.203-6.803,6.203-10.744V64.146c0-3.939-2.793-8.774-6.203-10.744l-65.508-37.82
					c-1.66-0.957-3.832-1.444-6.021-1.472c-0.064-0.001-0.128-0.001-0.191-0.001C101.807,14.109,99.563,14.6,97.857,15.583"/>
			</defs>
			<clipPath id="SVGID_36_">
				<use xlink:href="#SVGID_35_"  overflow="visible"/>
			</clipPath>
			<path clip-path="url(#SVGID_36_)" fill="#191818" d="M56.395,70.524c0.313,0,0.65,0.05,1.003,0.156l42.163,14.063l23.73-5.003
				l1.279-4.223c0,0,5.326-3.671,14.469-3.671c3.047,0,6.52,0.407,10.357,1.496l0.768,3.454l28.245-2.084
				c0,0,1.146,0.097,1.097,0.802l-0.422,6.527l-1.334,1.792l0.258,3.944c5.303,1.647,7.424,4.434,18.373,9.147v18.67l2.155,0.644
				l0.563,6.95l1.739,25.297l-137.65,8.189l-6.95-67.144l-2.101-16.138C53.947,71.656,54.909,70.523,56.395,70.524 M56.395,66.97
				L56.395,66.97c-1.706,0-3.245,0.668-4.332,1.882c-1.148,1.28-1.666,3.032-1.457,4.934l0.004,0.035l0.004,0.035l2.094,16.093
				l6.946,67.095l0.351,3.388l3.396-0.202l137.65-8.19l3.58-0.213l-0.246-3.58l-1.738-25.296l-0.565-6.994l-0.196-2.423
				l-1.947-0.582V96.93v-2.34l-2.147-0.926c-5.474-2.355-8.646-4.204-11.192-5.688c-1.762-1.027-3.351-1.953-5.188-2.732
				l-0.021-0.332l0.555-0.741l0.629-0.845l0.066-1.051l0.42-6.529c0.17-2.375-1.697-4.351-4.348-4.571l-0.277-0.022l-0.277,0.021
				l-25.184,1.857l-0.101-0.455l-0.46-2.07l-2.041-0.578c-3.816-1.081-7.627-1.63-11.324-1.63
				c-10.135-0.001-16.232,4.122-16.488,4.299l-1.021,0.706l-0.36,1.188l-0.67,2.21l-20.729,4.37L58.531,67.313l-0.054-0.02
				l-0.053-0.016C57.738,67.072,57.059,66.97,56.395,66.97"/>
		</g>
	</g>
	<g>
		<g>
			<defs>
				<path id="SVGID_37_" d="M109.202,153.583l75.638,0.771c3.941,0.041,8.805-2.7,10.809-6.092l38.486-65.116
					c2.006-3.394,2.063-8.974,0.125-12.407L197.111,4.849c-0.994-1.763-2.746-3.365-4.748-4.517
					c-1.896-1.091-4.014-1.775-5.932-1.795l-75.641-0.774c-3.938-0.039-8.8,2.701-10.806,6.094L61.499,68.974
					c-2.004,3.392-2.061,8.975-0.128,12.405l37.152,65.892c0.942,1.668,2.563,3.193,4.434,4.33c0.055,0.034,0.109,0.066,0.165,0.099
					C105.053,152.842,107.234,153.562,109.202,153.583"/>
			</defs>
			<clipPath id="SVGID_38_">
				<use xlink:href="#SVGID_37_"  overflow="visible"/>
			</clipPath>
			
				<rect x="121.02" y="79.63" transform="matrix(0.9646 0.2637 -0.2637 0.9646 26.2347 -29.3417)" clip-path="url(#SVGID_38_)" fill="#191818" width="2.755" height="6.813"/>
		</g>
	</g>
	<g>
		<g>
			<defs>
				<path id="SVGID_39_" d="M97.857,15.583l-65.506,37.82c-3.414,1.97-6.205,6.805-6.205,10.744v75.639
					c0,3.941,2.791,8.774,6.205,10.744l65.506,37.82c1.752,1.013,4.076,1.501,6.384,1.474c2.188-0.025,4.36-0.514,6.021-1.474
					l65.508-37.82c3.41-1.97,6.203-6.803,6.203-10.744V64.146c0-3.939-2.793-8.774-6.203-10.744l-65.508-37.82
					c-1.66-0.957-3.832-1.444-6.021-1.472c-0.064-0.001-0.128-0.001-0.191-0.001C101.807,14.109,99.563,14.6,97.857,15.583"/>
			</defs>
			<clipPath id="SVGID_40_">
				<use xlink:href="#SVGID_39_"  overflow="visible"/>
			</clipPath>
			<path clip-path="url(#SVGID_40_)" fill="#191818" d="M128.792,80.989c-0.696,0-1.294-0.524-1.367-1.232
				c-0.079-0.758,0.47-1.436,1.228-1.514l14.717-1.534c0.748-0.087,1.436,0.47,1.513,1.227c0.079,0.756-0.47,1.434-1.228,1.512
				l-14.717,1.535C128.889,80.987,128.84,80.989,128.792,80.989"/>
		</g>
	</g>
	<g>
		<g>
			<defs>
				<path id="SVGID_41_" d="M97.857,15.583l-65.506,37.82c-3.414,1.97-6.205,6.805-6.205,10.744v75.639
					c0,3.941,2.791,8.774,6.205,10.744l65.506,37.82c1.752,1.013,4.076,1.501,6.384,1.474c2.188-0.025,4.36-0.514,6.021-1.474
					l65.508-37.82c3.41-1.97,6.203-6.803,6.203-10.744V64.146c0-3.939-2.793-8.774-6.203-10.744l-65.508-37.82
					c-1.66-0.957-3.832-1.444-6.021-1.472c-0.064-0.001-0.128-0.001-0.191-0.001C101.807,14.109,99.563,14.6,97.857,15.583"/>
			</defs>
			<clipPath id="SVGID_42_">
				<use xlink:href="#SVGID_41_"  overflow="visible"/>
			</clipPath>
			<path clip-path="url(#SVGID_42_)" fill="#191818" d="M145.467,97.979c0,0,0.373-0.002,1.076-0.038
				c0.695-0.036,1.695-0.107,2.889-0.249c1.191-0.145,2.578-0.36,4.029-0.709c1.447-0.351,2.969-0.836,4.334-1.574
				c0.682-0.37,1.318-0.809,1.842-1.332c0.543-0.528,0.875-1.107,1.221-1.837c0.355-0.688,0.686-1.354,0.944-1.994
				c0.292-0.632,0.521-1.254,0.728-1.831c0.227-0.57,0.354-1.116,0.514-1.592c0.119-0.482,0.236-0.904,0.301-1.256
				c0.148-0.703,0.178-1.115,0.178-1.115s0.016,0.413-0.063,1.132c-0.027,0.361-0.102,0.793-0.172,1.293
				c-0.105,0.491-0.184,1.061-0.352,1.659c-0.146,0.604-0.313,1.258-0.545,1.938c-0.203,0.694-0.465,1.397-0.746,2.112
				c-0.238,0.692-0.613,1.566-1.18,2.229c-0.555,0.686-1.23,1.263-1.945,1.758c-1.438,0.984-3.02,1.674-4.518,2.211
				c-1.502,0.534-2.936,0.914-4.17,1.198c-1.234,0.282-2.275,0.467-3.01,0.585c-0.729,0.115-1.174,0.166-1.174,0.166l-0.023,0.003
				c-0.758,0.085-1.441-0.462-1.527-1.22c-0.085-0.761,0.461-1.443,1.221-1.528C145.367,97.982,145.418,97.979,145.467,97.979"/>
		</g>
	</g>
	<g>
		<g>
			<defs>
				<path id="SVGID_43_" d="M97.857,15.583l-65.506,37.82c-3.414,1.97-6.205,6.805-6.205,10.744v75.639
					c0,3.941,2.791,8.774,6.205,10.744l65.506,37.82c1.752,1.013,4.076,1.501,6.384,1.474c2.188-0.025,4.36-0.514,6.021-1.474
					l65.508-37.82c3.41-1.97,6.203-6.803,6.203-10.744V64.146c0-3.939-2.793-8.774-6.203-10.744l-65.508-37.82
					c-1.66-0.957-3.832-1.444-6.021-1.472c-0.064-0.001-0.128-0.001-0.191-0.001C101.807,14.109,99.563,14.6,97.857,15.583"/>
			</defs>
			<clipPath id="SVGID_44_">
				<use xlink:href="#SVGID_43_"  overflow="visible"/>
			</clipPath>
			<g clip-path="url(#SVGID_44_)">
				<g>
					<g opacity="0.3">
						<g>
							<defs>
								<rect id="SVGID_45_" x="127.721" y="100.564" width="51.34" height="53.271"/>
							</defs>
							<clipPath id="SVGID_46_">
								<use xlink:href="#SVGID_45_"  overflow="visible"/>
							</clipPath>
							<path clip-path="url(#SVGID_46_)" fill="#1B2022" d="M147.873,100.565c0,0-0.277,28.98-20.148,53.269l29.81-0.274
								l21.526-10.766l-0.274-34.225L147.873,100.565z"/>
						</g>
					</g>
					<g>
						<g>
							<defs>
								<path id="SVGID_47_" d="M97.857,15.583l-65.506,37.82c-3.414,1.97-6.205,6.805-6.205,10.744v75.639
									c0,3.941,2.791,8.774,6.205,10.744l65.506,37.82c1.752,1.013,4.076,1.501,6.384,1.474c2.188-0.025,4.36-0.514,6.021-1.474
									l65.508-37.82c3.41-1.97,6.203-6.803,6.203-10.744V64.146c0-3.939-2.793-8.774-6.203-10.744l-65.508-37.82
									c-1.66-0.957-3.832-1.444-6.021-1.472c-0.064-0.001-0.128-0.001-0.191-0.001C101.807,14.109,99.563,14.6,97.857,15.583"/>
							</defs>
							<clipPath id="SVGID_48_">
								<use xlink:href="#SVGID_47_"  overflow="visible"/>
							</clipPath>
							<polygon clip-path="url(#SVGID_48_)" fill="#1A1A19" points="151.486,194 57.926,194 57.926,159.64 168.045,151.358 							
								"/>
						</g>
					</g>
					<g>
						<defs>
							<path id="SVGID_49_" d="M97.857,15.583l-65.506,37.82c-3.414,1.97-6.205,6.805-6.205,10.744v75.639
								c0,3.941,2.791,8.774,6.205,10.744l65.506,37.82c1.752,1.013,4.076,1.501,6.384,1.474c2.188-0.025,4.36-0.514,6.021-1.474
								l65.508-37.82c3.41-1.97,6.203-6.803,6.203-10.744V64.146c0-3.939-2.793-8.774-6.203-10.744l-65.508-37.82
								c-1.66-0.957-3.832-1.444-6.021-1.472c-0.064-0.001-0.128-0.001-0.191-0.001C101.807,14.109,99.563,14.6,97.857,15.583"/>
						</defs>
						<clipPath id="SVGID_50_">
							<use xlink:href="#SVGID_49_"  overflow="visible"/>
						</clipPath>
						<path clip-path="url(#SVGID_50_)" fill="#1A1A19" d="M104.059,22.39h0.084c1.125,0.014,1.824,0.273,1.979,0.363l65.507,37.82
							c0.848,0.49,2.063,2.593,2.063,3.573v75.64c0,0.98-1.215,3.083-2.063,3.573l-65.507,37.819
							c-0.156,0.091-0.854,0.351-1.976,0.362h-0.088c-1.168,0-1.898-0.269-2.063-0.362l-65.506-37.819
							c-0.848-0.49-2.063-2.593-2.063-3.573v-75.64c0-0.98,1.215-3.083,2.063-3.573l65.506-37.82
							C102.16,22.659,102.89,22.39,104.059,22.39 M104.059,14.109c-2.248,0-4.496,0.489-6.201,1.473L32.35,53.402
							c-3.41,1.97-6.203,6.805-6.203,10.744v75.64c0,3.94,2.793,8.774,6.203,10.744l65.508,37.82
							c1.705,0.982,3.953,1.473,6.201,1.473c0.061,0,0.122,0,0.184-0.001c2.187-0.026,4.358-0.514,6.021-1.472l65.504-37.82
							c3.412-1.97,6.205-6.804,6.205-10.744v-75.64c0-3.939-2.793-8.774-6.205-10.744l-65.504-37.82
							c-1.66-0.958-3.833-1.446-6.021-1.472C104.181,14.109,104.119,14.109,104.059,14.109"/>
					</g>
				</g>
			</g>
		</g>
	</g>
</g>
</svg>
