<?xml version="1.0" encoding="utf-8"?>
<!-- Generator: Adobe Illustrator 16.0.0, SVG Export Plug-In . SVG Version: 6.00 Build 0)  -->
<!DOCTYPE svg PUBLIC "-//W3C//DTD SVG 1.1//EN" "http://www.w3.org/Graphics/SVG/1.1/DTD/svg11.dtd">
<svg version="1.1" id="Layer_1" xmlns="http://www.w3.org/2000/svg" xmlns:xlink="http://www.w3.org/1999/xlink" x="0px" y="0px"
	 width="612px" height="792px" viewBox="0 0 612 792" enable-background="new 0 0 612 792" xml:space="preserve">
<path fill="#A6A8AC" d="M213.881,504.5c0-4.484,2.943-7.933,7.45-7.933c4.485,0,7.45,3.448,7.45,7.933
	c0,2.323-0.805,4.346-2.184,5.771l1.608,1.68l-0.896,0.828l-1.634-1.68c-1.173,0.852-2.646,1.334-4.346,1.334
	C216.824,512.434,213.881,508.985,213.881,504.5 M224.803,510.18l-2.367-2.46l0.92-0.852l2.367,2.485
	c1.059-1.22,1.68-2.898,1.68-4.854c0-3.885-2.393-6.737-6.071-6.737c-3.702,0-6.07,2.853-6.07,6.737c0,3.864,2.368,6.738,6.07,6.738
	C222.665,511.238,223.861,510.847,224.803,510.18"/>
<path fill="#A6A8AC" d="M234.787,506.271v-9.45h1.334v9.429c0,3.104,1.633,4.989,4.645,4.989c3.013,0,4.646-1.886,4.646-4.989
	v-9.429h1.334v9.45c0,3.794-2.022,6.163-5.979,6.163C236.834,512.434,234.787,510.042,234.787,506.271"/>
<polygon fill="#A6A8AC" points="253.324,512.157 253.324,496.819 263.053,496.819 263.053,498.016 254.637,498.016 254.637,503.695 
	262.891,503.695 262.891,504.891 254.637,504.891 254.637,510.963 263.053,510.963 263.053,512.157 "/>
<polygon fill="#A6A8AC" points="269.057,512.157 269.057,496.819 278.785,496.819 278.785,498.016 270.369,498.016 270.369,503.695 
	278.623,503.695 278.623,504.891 270.369,504.891 270.369,510.963 278.785,510.963 278.785,512.157 "/>
<polygon fill="#A6A8AC" points="295.758,512.157 286.1,498.981 286.1,512.157 284.788,512.157 284.788,496.819 286.122,496.819 
	295.734,509.812 295.734,496.819 297.045,496.819 297.045,512.157 "/>
<polygon fill="#A6A8AC" points="325.357,512.157 325.357,498.476 319.77,512.157 319.264,512.157 313.654,498.476 313.654,512.157 
	312.342,512.157 312.342,496.819 314.297,496.819 319.517,509.582 324.714,496.819 326.691,496.819 326.691,512.157 "/>
<path fill="#A6A8AC" d="M344.38,512.158l-1.519-3.771h-8.117l-1.518,3.771h-1.518l6.279-15.338h1.631l6.278,15.338H344.38z
	 M338.814,498.223l-3.633,8.969h7.243L338.814,498.223z"/>
<path fill="#A6A8AC" d="M359.904,512.158l-4.299-6.348h-3.381v6.348h-1.312V496.82h5.728c2.643,0,4.668,1.678,4.668,4.483
	c0,2.782-1.955,4.323-4.256,4.415l4.438,6.439H359.904z M359.928,501.304c0-1.932-1.355-3.288-3.402-3.288h-4.301v6.601h4.301
	C358.572,504.616,359.928,503.236,359.928,501.304"/>
<polygon fill="#A6A8AC" points="371.521,512.157 371.521,505.604 365.427,496.819 367.014,496.819 372.188,504.362 377.361,496.819 
	378.949,496.819 372.855,505.604 372.855,512.157 "/>
<path fill="#5FC4E8" d="M223.191,414.259l63.824,36.85c1.707,0.985,3.973,1.461,6.221,1.435c2.131-0.025,4.25-0.501,5.866-1.435
	l63.825-36.85c3.324-1.919,6.044-6.63,6.044-10.468v-73.699c0-3.838-2.72-8.548-6.044-10.467l-63.825-36.85
	c-1.616-0.934-3.735-1.409-5.866-1.435c-2.248-0.026-4.514,0.449-6.221,1.435l-63.824,36.85c-3.324,1.919-6.044,6.629-6.044,10.467
	v73.699C217.147,407.629,219.867,412.34,223.191,414.259"/>
<path fill="#29AAE1" d="M362.391,414.259c3.323-1.919,6.043-6.63,6.043-10.468v-73.698c0-3.839-2.72-8.549-6.043-10.468
	l-63.826-36.85c-1.496-0.864-3.424-1.331-5.393-1.416v171.166c1.969-0.086,3.896-0.553,5.393-1.418L362.391,414.259z"/>
<g opacity="0.4">
	<g>
		<defs>
			<rect id="SVGID_1_" x="215.15" y="279.08" width="155.82" height="175.72"/>
		</defs>
		<clipPath id="SVGID_2_">
			<use xlink:href="#SVGID_1_"  overflow="visible"/>
		</clipPath>
		<path clip-path="url(#SVGID_2_)" fill="#FFFFFF" d="M293.059,294.505l62.732,36.219v72.437l-62.732,36.219l-62.73-36.218v-72.438
			L293.059,294.505 M293.059,279.085c-2.248,0-4.496,0.489-6.201,1.473l-65.508,37.82c-3.41,1.97-6.203,6.805-6.203,10.744v75.64
			c0,3.94,2.793,8.774,6.203,10.744l65.508,37.82c1.705,0.984,3.953,1.473,6.201,1.473c0.061,0,0.122,0,0.184-0.001
			c2.187-0.026,4.359-0.514,6.02-1.472l65.506-37.82c3.412-1.97,6.204-6.804,6.204-10.744v-75.64c0-3.939-2.792-8.774-6.204-10.744
			l-65.506-37.82c-1.66-0.958-3.833-1.446-6.02-1.472C293.181,279.085,293.119,279.085,293.059,279.085"/>
	</g>
</g>
<path fill="#1A1A19" d="M293.059,287.365h0.084c1.125,0.014,1.824,0.273,1.979,0.363l65.507,37.82
	c0.848,0.49,2.063,2.593,2.063,3.573v75.64c0,0.98-1.215,3.083-2.063,3.573l-65.507,37.819c-0.156,0.091-0.854,0.351-1.976,0.364
	h-0.088c-1.168,0-1.898-0.269-2.063-0.364l-65.506-37.819c-0.848-0.49-2.063-2.593-2.063-3.573v-75.64
	c0-0.98,1.215-3.083,2.063-3.573l65.506-37.82C291.16,287.635,291.89,287.365,293.059,287.365 M293.059,279.085
	c-2.248,0-4.496,0.489-6.201,1.473l-65.508,37.82c-3.41,1.97-6.203,6.805-6.203,10.744v75.64c0,3.94,2.793,8.774,6.203,10.744
	l65.508,37.82c1.705,0.984,3.953,1.473,6.201,1.473c0.061,0,0.122,0,0.184-0.001c2.187-0.026,4.359-0.514,6.02-1.472l65.506-37.82
	c3.412-1.97,6.204-6.804,6.204-10.744v-75.64c0-3.939-2.792-8.774-6.204-10.744l-65.506-37.82c-1.66-0.958-3.833-1.446-6.02-1.472
	C293.181,279.085,293.119,279.085,293.059,279.085"/>
<g>
	<defs>
		<path id="SVGID_3_" d="M286.857,280.558l-65.506,37.82c-3.414,1.97-6.205,6.805-6.205,10.744v75.639
			c0,3.941,2.791,8.774,6.205,10.744l65.506,37.82c1.752,1.013,4.076,1.501,6.384,1.474c2.188-0.027,4.36-0.514,6.021-1.474
			l65.508-37.82c3.41-1.97,6.203-6.803,6.203-10.744v-75.639c0-3.939-2.793-8.774-6.203-10.744l-65.508-37.82
			c-1.66-0.957-3.832-1.444-6.021-1.472c-0.064-0.001-0.128-0.001-0.191-0.001C290.807,279.085,288.563,279.575,286.857,280.558"/>
	</defs>
	<clipPath id="SVGID_4_">
		<use xlink:href="#SVGID_3_"  overflow="visible"/>
	</clipPath>
	<path clip-path="url(#SVGID_4_)" fill="#FFFFFF" d="M245.395,335.499c0.313,0,0.648,0.051,1.003,0.156l42.163,14.063l23.73-5.002
		l1.28-4.224c0,0,5.325-3.672,14.468-3.671c3.047,0,6.52,0.408,10.357,1.495l0.768,3.455l28.245-2.083c0,0,1.147,0.096,1.097,0.801
		l-0.422,6.529l-6.91,1.792l0.258,3.944c5.304,1.646,13,4.433,23.949,9.146v18.669l2.155,0.645l0.563,6.95l1.74,25.297l-137.65,8.19
		l-6.95-67.142l-2.101-16.14C242.947,336.633,243.909,335.499,245.395,335.499 M245.395,327.495c-2.944,0-5.731,1.226-7.646,3.362
		c-2.003,2.235-2.914,5.215-2.566,8.389l0.01,0.08l0.01,0.079l2.087,16.035l6.938,67.037l0.789,7.621l7.648-0.455l137.65-8.19
		l8.064-0.479l-0.555-8.061l-1.74-25.296l-0.003-0.049l-0.004-0.049l-0.563-6.95l-0.442-5.455l-1.687-0.504v-12.708v-5.268
		l-4.84-2.083c-4.504-1.94-8.709-3.663-12.592-5.16l0.119-1.857l0.421-6.53c0.312-4.793-3.375-8.869-8.417-9.291l-0.628-0.053
		l-0.628,0.046l-21.344,1.575l-0.303-1.363l-4.596-1.302c-4.211-1.192-8.43-1.798-12.537-1.798
		c-11.31-0.001-18.258,4.564-19.013,5.085l-2.306,1.589l-0.717,2.369l-16.973,3.578l-40.104-13.377l-0.119-0.04l-0.121-0.036
		C247.598,327.66,246.49,327.495,245.395,327.495"/>
	<path clip-path="url(#SVGID_4_)" fill="#FFFFFF" d="M335.224,313.23c3.221,0,7.198,1.094,11.315,4.879v4.118v29.496l-18.716-9.438
		v-16.149v-10.858C327.823,315.278,330.815,313.23,335.224,313.23 M335.224,307.711c-5.945,0-10.067,2.703-10.519,3.012
		l-2.402,1.644v2.912v10.858v16.149v3.399l3.035,1.53l18.717,9.437l8.004,4.036v-8.965v-29.496v-4.118v-2.424l-1.783-1.64
		C345.767,309.901,340.563,307.711,335.224,307.711"/>
	<path clip-path="url(#SVGID_4_)" fill="#191818" d="M327.823,315.278v10.857v10.575l18.716,9.438v-15.558v-12.481
		C336.788,309.145,327.823,315.278,327.823,315.278"/>
	<path clip-path="url(#SVGID_4_)" fill="#C7333E" d="M327.823,326.136v10.575l18.716,9.438V330.59
		C340.146,325.372,332.488,325.427,327.823,326.136"/>
	<path clip-path="url(#SVGID_4_)" fill="#191818" d="M367.317,356.22l0.376-11.592c0,0,3.914-2.937,8.582,1.354v14.753
		L367.317,356.22z"/>
	<path clip-path="url(#SVGID_4_)" fill="#191818" d="M347.916,348.385l-21.471-10.826v-23.007l0.601-0.41
		c0.136-0.092,3.399-2.288,8.179-2.288c4.342,0,8.463,1.763,12.246,5.241l0.445,0.41V348.385z M329.2,335.863l15.962,8.049v-25.188
		c-3.131-2.732-6.473-4.116-9.938-4.116c-2.847,0-5.025,0.937-6.024,1.46V335.863z"/>
	<path clip-path="url(#SVGID_4_)" fill="#191818" d="M347.916,348.385l-21.471-10.826v-23.007l0.601-0.41
		c0.136-0.092,3.399-2.288,8.179-2.288c4.342,0,8.463,1.763,12.246,5.241l0.445,0.41V348.385z M329.2,335.863l15.962,8.049v-25.188
		c-3.131-2.732-6.473-4.116-9.938-4.116c-2.847,0-5.025,0.937-6.024,1.46V335.863z"/>
	<path clip-path="url(#SVGID_4_)" fill="#D2D3D4" d="M323.844,366.657l61.537,13.441v-18.196c-10.95-4.715-13.07-7.5-18.373-9.147
		l-0.258-3.944l1.334-1.791l0.422-6.529c0.05-0.705-1.096-0.801-1.096-0.801l-13.846,1.021c-0.712,5.669-2.368,16.858-4.633,19.535
		C345.865,363.869,323.844,366.657,323.844,366.657"/>
	<path clip-path="url(#SVGID_4_)" fill="#FFFFFF" d="M323.844,366.657c0,0,22.021-2.788,25.088-6.411
		c2.265-2.677,3.921-13.866,4.633-19.535l-14.4,1.063l-0.768-3.455c-15.355-4.352-24.825,2.175-24.825,2.175l-1.28,4.223
		l-26.957,5.684l4.691,9.545l9.469,3.839l50.918,18.671l-0.354,3.637l35.323,7.294v-13.286L323.844,366.657z"/>
	<path clip-path="url(#SVGID_4_)" fill="#191818" d="M386.758,395.075l-38.189-7.887l0.37-3.808l-49.917-18.305l-10-4.054
		l-5.703-11.606l27.893-5.88l1.183-3.902l0.396-0.274c0.232-0.16,5.787-3.914,15.25-3.914c3.498,0,7.108,0.521,10.732,1.547
		l0.791,0.226l0.688,3.094l27.166-2.003l0.108,0.009c1.472,0.123,2.44,1.056,2.354,2.27l-0.446,6.929l-1.276,1.711l0.164,2.515
		c2.252,0.802,4.014,1.828,6.178,3.089c2.6,1.516,5.834,3.399,11.428,5.808l0.832,0.358V395.075z M351.549,384.991l32.455,6.703
		v-28.89c-5.239-2.301-8.36-4.12-10.893-5.596c-2.383-1.389-4.105-2.392-6.512-3.139l-0.904-0.281l-0.353-5.395l1.394-1.871
		l0.35-5.429l-29.008,2.139l-0.846-3.805c-3.113-0.816-6.203-1.229-9.193-1.229c-7.213,0-11.961,2.415-13.301,3.192l-1.365,4.504
		l-26.021,5.486l3.678,7.482l8.983,3.644l51.873,19.019L351.549,384.991z"/>
	<path clip-path="url(#SVGID_4_)" fill="#191818" d="M297.361,357.045l-1.363-2.393c0.657-0.375,16.54-9.104,56.216-3.728
		l-0.37,2.729C313.083,348.402,297.514,356.959,297.361,357.045"/>
	<path clip-path="url(#SVGID_4_)" fill="#191818" d="M297.47,363.375l-1.587-2.252c0.565-0.398,14.305-9.746,54.051-4.356
		l-0.369,2.728C311.102,354.286,297.602,363.283,297.47,363.375"/>
	<path clip-path="url(#SVGID_4_)" fill="#FFFFFF" d="M387.536,381.216l-85.704-26.755l-55.434-18.805
		c-2.031-0.607-3.492,0.608-3.26,2.717l2.1,16.139L388.1,388.167L387.536,381.216z"/>
	<path clip-path="url(#SVGID_4_)" fill="#191818" d="M389.625,389.941l-1.841-0.436l-143.787-33.873l-2.224-17.083
		c-0.145-1.305,0.181-2.456,0.91-3.27c0.951-1.06,2.502-1.423,4.109-0.944l55.481,18.821l86.559,27.021L389.625,389.941z
		 M246.481,353.389l140.093,33.003l-0.336-4.139l-84.816-26.478l-55.466-18.816c-0.44-0.128-0.987-0.102-1.221,0.159
		c-0.198,0.22-0.281,0.623-0.228,1.104L246.481,353.389z"/>
	<polygon clip-path="url(#SVGID_4_)" fill="#1B2022" points="245.239,354.512 252.189,421.653 389.839,413.463 388.1,388.166 	"/>
	<polygon clip-path="url(#SVGID_4_)" fill="#C7333E" points="248.892,410.428 391.403,404.146 392.75,415.813 250.687,424.339 	"/>
	<path clip-path="url(#SVGID_4_)" fill="#191818" d="M245.395,335.5c0.313,0,0.65,0.05,1.003,0.156l42.163,14.063l23.73-5.003
		l1.28-4.223c0,0,5.325-3.671,14.468-3.671c3.047,0,6.52,0.407,10.357,1.496l0.768,3.454l28.245-2.084c0,0,1.147,0.097,1.097,0.802
		l-0.422,6.528l-1.334,1.792l0.258,3.944c5.303,1.647,7.424,4.433,18.373,9.147v18.67l2.155,0.644l0.563,6.95l1.74,25.297
		l-137.65,8.189l-6.95-67.142l-2.101-16.138C242.947,336.632,243.909,335.499,245.395,335.5 M245.395,331.945L245.395,331.945
		c-1.706,0-3.245,0.668-4.332,1.882c-1.148,1.28-1.666,3.032-1.457,4.934l0.004,0.035l0.004,0.035l2.094,16.093l6.946,67.095
		l0.351,3.386l3.396-0.202l137.65-8.19l3.58-0.213l-0.246-3.58l-1.739-25.296l-0.566-6.994l-0.196-2.423l-1.947-0.582v-16.021v-2.34
		l-2.149-0.925c-5.473-2.356-8.644-4.204-11.192-5.688c-1.762-1.027-3.351-1.953-5.189-2.732l-0.021-0.332l0.553-0.742l0.629-0.844
		l0.068-1.051l0.42-6.529c0.17-2.375-1.699-4.351-4.348-4.572l-0.277-0.022l-0.279,0.02l-25.182,1.858l-0.101-0.455l-0.46-2.071
		l-2.041-0.578c-3.816-1.081-7.627-1.63-11.324-1.63c-10.135-0.001-16.232,4.123-16.488,4.299l-1.022,0.706l-0.36,1.189l-0.67,2.21
		l-20.729,4.37l-41.248-13.758l-0.054-0.019l-0.053-0.016C246.738,332.048,246.059,331.945,245.395,331.945"/>
	
		<rect x="310.016" y="344.595" transform="matrix(0.9646 0.2638 -0.2638 0.9646 102.8494 -69.8265)" clip-path="url(#SVGID_4_)" fill="#191818" width="2.754" height="6.813"/>
	<path clip-path="url(#SVGID_4_)" fill="#191818" d="M317.792,345.965c-0.696,0-1.294-0.525-1.367-1.233
		c-0.079-0.757,0.47-1.435,1.226-1.513l14.717-1.534c0.748-0.087,1.435,0.469,1.513,1.226c0.079,0.756-0.47,1.434-1.228,1.512
		l-14.716,1.535C317.889,345.963,317.84,345.965,317.792,345.965"/>
	<path clip-path="url(#SVGID_4_)" fill="#191818" d="M334.467,362.955c0,0,0.373-0.002,1.076-0.038
		c0.695-0.036,1.695-0.107,2.888-0.249c1.192-0.145,2.579-0.36,4.03-0.709c1.447-0.351,2.969-0.836,4.334-1.574
		c0.681-0.37,1.318-0.809,1.841-1.332c0.543-0.529,0.875-1.108,1.221-1.837c0.356-0.688,0.685-1.354,0.945-1.994
		c0.292-0.632,0.519-1.254,0.727-1.831c0.226-0.571,0.355-1.117,0.513-1.592c0.119-0.483,0.236-0.904,0.301-1.256
		c0.148-0.703,0.177-1.115,0.177-1.115s0.015,0.413-0.062,1.132c-0.027,0.361-0.101,0.793-0.172,1.293
		c-0.106,0.491-0.182,1.06-0.35,1.659c-0.148,0.603-0.314,1.258-0.545,1.938c-0.204,0.695-0.465,1.398-0.746,2.113
		c-0.24,0.692-0.615,1.566-1.18,2.229c-0.555,0.686-1.231,1.263-1.946,1.758c-1.438,0.984-3.019,1.674-4.517,2.211
		c-1.502,0.534-2.935,0.914-4.17,1.198c-1.235,0.282-2.275,0.467-3.01,0.585c-0.727,0.115-1.174,0.166-1.174,0.166l-0.023,0.003
		c-0.758,0.085-1.442-0.462-1.527-1.22c-0.085-0.76,0.461-1.443,1.22-1.528C334.367,362.958,334.418,362.955,334.467,362.955"/>
	<g opacity="0.3" clip-path="url(#SVGID_4_)">
		<g>
			<defs>
				<rect id="SVGID_5_" x="316.721" y="365.54" width="51.34" height="53.271"/>
			</defs>
			<clipPath id="SVGID_6_">
				<use xlink:href="#SVGID_5_"  overflow="visible"/>
			</clipPath>
			<path clip-path="url(#SVGID_6_)" fill="#1B2022" d="M336.873,365.541c0,0-0.277,28.98-20.148,53.269l29.808-0.276l21.528-10.764
				l-0.276-34.225L336.873,365.541z"/>
		</g>
	</g>
	<polygon clip-path="url(#SVGID_4_)" fill="#1A1A19" points="340.486,458.976 246.926,458.976 246.926,424.615 357.045,416.334 	"/>
</g>
<path fill="#1A1A19" d="M293.059,287.365h0.084c1.125,0.014,1.824,0.273,1.979,0.363l65.507,37.82
	c0.848,0.49,2.063,2.593,2.063,3.573v75.64c0,0.98-1.215,3.083-2.063,3.573l-65.507,37.819c-0.156,0.091-0.854,0.351-1.976,0.364
	h-0.088c-1.168,0-1.898-0.269-2.063-0.364l-65.506-37.819c-0.848-0.49-2.063-2.593-2.063-3.573v-75.64
	c0-0.98,1.215-3.083,2.063-3.573l65.506-37.82C291.16,287.635,291.89,287.365,293.059,287.365 M293.059,279.085
	c-2.248,0-4.496,0.489-6.201,1.473l-65.508,37.82c-3.41,1.97-6.203,6.805-6.203,10.744v75.64c0,3.94,2.793,8.774,6.203,10.744
	l65.508,37.82c1.705,0.984,3.953,1.473,6.201,1.473c0.061,0,0.122,0,0.184-0.001c2.187-0.026,4.359-0.514,6.02-1.472l65.506-37.82
	c3.412-1.97,6.204-6.804,6.204-10.744v-75.64c0-3.939-2.792-8.774-6.204-10.744l-65.506-37.82c-1.66-0.958-3.833-1.446-6.02-1.472
	C293.181,279.085,293.119,279.085,293.059,279.085"/>
</svg>
