<?xml version="1.0" encoding="utf-8"?>
<!-- Generator: Adobe Illustrator 16.0.0, SVG Export Plug-In . SVG Version: 6.00 Build 0)  -->
<!DOCTYPE svg PUBLIC "-//W3C//DTD SVG 1.1//EN" "http://www.w3.org/Graphics/SVG/1.1/DTD/svg11.dtd">
<svg version="1.1" id="Layer_1" xmlns="http://www.w3.org/2000/svg" xmlns:xlink="http://www.w3.org/1999/xlink" x="0px" y="0px"
	 width="215px" height="195px" viewBox="0 0 215 195" enable-background="new 0 0 215 195" xml:space="preserve">
<path fill="#1A1A19" d="M128.373,165.387c-10.387,6.445-19.063,10.538-20.966,11.416c-1.905-0.878-10.58-4.971-20.967-11.416v0.492
	c-0.003-0.002,0.004-0.006,0-0.008v15.052c11.415,7.013,20.568,11.111,20.568,11.111l0.399-0.001l0.399,0.001
	c0,0,9.152-4.1,20.566-11.111v-15.052c-0.004,0.002,0.004,0.006,0,0.008L128.373,165.387L128.373,165.387z"/>
<path fill="#FFFFFF" d="M83.125,164.249c-9.748-6.171-20.759-14.313-29.014-23.745v15.052c8.118,9.568,19.145,17.857,29.014,24.17
	v-15.052c-0.004-0.002,0.003-0.005,0-0.007V164.249z"/>
<path fill="#FFFFFF" d="M131.689,164.249v0.418c-0.004,0.002,0.004,0.005,0,0.007v15.052c9.869-6.313,20.896-14.602,29.015-24.17
	v-15.052C152.447,149.938,141.438,158.078,131.689,164.249"/>
<path fill="#CE96C3" d="M43.767,39.817v19.998l0.008,49.034c0,35.143,63.632,63.633,63.632,63.633s63.632-28.49,63.632-63.633
	l0.008-49.034V39.817H43.767z"/>
<g opacity="0.5">
	<g>
		<g>
			<defs>
				<rect id="SVGID_1_" x="107.998" y="40.09" width="60.025" height="127.58"/>
			</defs>
			<clipPath id="SVGID_2_">
				<use xlink:href="#SVGID_1_"  overflow="visible"/>
			</clipPath>
			<path clip-path="url(#SVGID_2_)" fill="#944299" d="M108.126,167.666c5.59-2.753,17.62-9.048,29.468-17.652
				c9.19-6.674,16.454-13.391,21.588-19.966c5.866-7.514,8.842-14.723,8.842-21.427V61.396V40.091h-60.025v127.511
				C108.041,167.623,108.085,167.646,108.126,167.666"/>
		</g>
	</g>
</g>
<g opacity="0.4">
	<g>
		<g>
			<defs>
				<rect id="SVGID_3_" x="42.799" y="36.3" width="129.217" height="137.19"/>
			</defs>
			<clipPath id="SVGID_4_">
				<use xlink:href="#SVGID_3_"  overflow="visible"/>
			</clipPath>
			<path clip-path="url(#SVGID_4_)" fill="#FFFFFF" d="M158.219,50.097v9.013l-0.008,49.782c0,18.216-31.199,39.306-50.76,49.273
				c-5.696-2.925-14.985-8.062-24.254-14.771c-17.149-12.412-26.594-24.667-26.594-34.505L56.595,59.11v-9.015L158.219,50.097
				 M172.016,36.3H42.798v22.812l0.009,49.78c0,35.678,64.6,64.601,64.6,64.601s64.601-28.923,64.601-64.601l0.008-49.78V36.3z"/>
		</g>
	</g>
</g>
<g>
	<g>
		<defs>
			<path id="SVGID_5_" d="M42.799,35.798V58.61l0.008,49.779c0,35.68,64.601,64.603,64.601,64.603s64.6-28.923,64.6-64.603
				l0.008-49.779V35.798H42.799z"/>
		</defs>
		<clipPath id="SVGID_6_">
			<use xlink:href="#SVGID_5_"  overflow="visible"/>
		</clipPath>
		<path clip-path="url(#SVGID_6_)" fill="#944299" d="M154.419,126.058c-4.862-2.862-8.028-8.628-15.662-11.615
			c-1.932,2.166-4.39,3.569-7.315,3.569c-2.942,0-5.416-1.424-7.354-3.615c-7.646,2.974-10.893,8.783-15.779,11.661
			c-1.069,0.631-1.894,2.216-1.894,3.457l3.371,30.5h42.481l4.045-30.5C156.313,128.272,155.488,126.688,154.419,126.058"/>
	</g>
	<g>
		<defs>
			<path id="SVGID_7_" d="M42.799,35.798V58.61l0.008,49.779c0,35.68,64.601,64.603,64.601,64.603s64.6-28.923,64.6-64.603
				l0.008-49.779V35.798H42.799z"/>
		</defs>
		<clipPath id="SVGID_8_">
			<use xlink:href="#SVGID_7_"  overflow="visible"/>
		</clipPath>
		<path clip-path="url(#SVGID_8_)" fill="#191818" d="M154.025,162.022h-46.039l-3.581-32.51c0-1.986,1.239-4.218,2.883-5.186
			c1.711-1.008,3.294-2.508,4.971-4.095c2.846-2.696,6.069-5.751,11.1-7.707l1.305-0.51l0.927,1.051
			c1.724,1.949,3.692,2.938,5.853,2.938c2.144,0,4.101-0.976,5.816-2.898l0.93-1.041l1.299,0.508c5.017,1.963,8.205,5,11.021,7.681
			c1.658,1.58,3.228,3.072,4.931,4.075c1.643,0.969,2.881,3.198,2.881,5.186l-0.017,0.266L154.025,162.022z M111.583,158.008h38.926
			l3.793-28.594c-0.05-0.569-0.493-1.387-0.901-1.627c-2.1-1.237-3.83-2.883-5.659-4.628c-2.412-2.297-4.899-4.665-8.513-6.336
			c-2.271,2.096-4.938,3.195-7.785,3.195c-2.87,0-5.555-1.114-7.836-3.24c-3.629,1.67-6.146,4.055-8.586,6.369
			c-1.847,1.749-3.59,3.399-5.695,4.64c-0.411,0.242-0.861,1.075-0.902,1.645L111.583,158.008z"/>
	</g>
	<g>
		<defs>
			<path id="SVGID_9_" d="M42.799,35.798V58.61l0.008,49.779c0,35.68,64.601,64.603,64.601,64.603s64.6-28.923,64.6-64.603
				l0.008-49.779V35.798H42.799z"/>
		</defs>
		<clipPath id="SVGID_10_">
			<use xlink:href="#SVGID_9_"  overflow="visible"/>
		</clipPath>
		<path clip-path="url(#SVGID_10_)" fill="#FFFFFF" d="M143.59,98.674c-0.066-0.746-0.177-1.473-0.326-2.178
			c-1.259-5.914-5.44-10.245-11.899-10.245s-10.642,4.331-11.899,10.245c-0.148,0.705-0.262,1.432-0.326,2.178
			c-1.699,0.479-2.945,2.038-2.945,3.892c0,2.124,1.64,3.862,3.722,4.028c1.647,6.073,5.625,11.644,11.45,11.644
			c5.826,0,9.803-5.569,11.451-11.644c2.082-0.166,3.721-1.904,3.721-4.028C146.535,100.712,145.289,99.153,143.59,98.674"/>
	</g>
	<g>
		<defs>
			<path id="SVGID_11_" d="M42.799,35.798V58.61l0.008,49.779c0,35.68,64.601,64.603,64.601,64.603s64.6-28.923,64.6-64.603
				l0.008-49.779V35.798H42.799z"/>
		</defs>
		<clipPath id="SVGID_12_">
			<use xlink:href="#SVGID_11_"  overflow="visible"/>
		</clipPath>
		<path clip-path="url(#SVGID_12_)" fill="#FFFFFF" d="M119.137,98.674c0.066-0.746,0.178-1.473,0.327-2.178
			c0.733-3.451,2.466-6.361,5.063-8.188c2.627,10.412,14.547,11.438,20.66,11.25c0.826,0.739,1.348,1.811,1.348,3.008
			c0,2.124-1.641,3.862-3.723,4.028c-1.646,6.073-5.625,11.644-11.449,11.644c-5.826,0-9.803-5.569-11.451-11.644
			c-2.082-0.166-3.721-1.904-3.721-4.028C116.191,100.712,117.438,99.153,119.137,98.674"/>
	</g>
	<g>
		<defs>
			<path id="SVGID_13_" d="M42.799,35.798V58.61l0.008,49.779c0,35.68,64.601,64.603,64.601,64.603s64.6-28.923,64.6-64.603
				l0.008-49.779V35.798H42.799z"/>
		</defs>
		<clipPath id="SVGID_14_">
			<use xlink:href="#SVGID_13_"  overflow="visible"/>
		</clipPath>
		<path clip-path="url(#SVGID_14_)" fill="#944299" d="M124.025,88.308c1.854-1.304,4.146-2.057,6.836-2.057
			c6.459,0,10.643,4.33,11.899,10.244c0.15,0.706,0.263,1.433,0.326,2.179c0.603,0.17,1.146,0.478,1.599,0.883
			C138.574,99.744,126.652,98.72,124.025,88.308"/>
	</g>
	<g>
		<defs>
			<path id="SVGID_15_" d="M42.799,35.798V58.61l0.008,49.779c0,35.68,64.601,64.603,64.601,64.603s64.6-28.923,64.6-64.603
				l0.008-49.779V35.798H42.799z"/>
		</defs>
		<clipPath id="SVGID_16_">
			<use xlink:href="#SVGID_15_"  overflow="visible"/>
		</clipPath>
		<path clip-path="url(#SVGID_16_)" fill="#191818" d="M131.363,120.243c-6.795,0-11.105-5.964-13.036-11.94
			c-2.409-0.809-4.144-3.103-4.144-5.737c0-2.214,1.223-4.225,3.096-5.277c1.162-7.853,6.697-13.043,14.084-13.043
			s12.921,5.19,14.082,13.043c1.875,1.054,3.098,3.063,3.098,5.277c0,2.636-1.732,4.93-4.145,5.737
			C142.469,114.279,138.158,120.243,131.363,120.243 M131.363,88.258c-6.854,0-9.777,5.474-10.229,10.592l-0.12,1.381l-1.332,0.377
			c-0.873,0.246-1.483,1.051-1.483,1.958c0,1.054,0.823,1.944,1.874,2.028l1.406,0.111l0.371,1.364
			c1.332,4.912,4.532,10.161,9.514,10.161c4.98,0,8.182-5.249,9.514-10.161l0.371-1.364l1.406-0.111
			c1.051-0.084,1.873-0.976,1.873-2.028c0-0.907-0.609-1.712-1.482-1.958l-1.332-0.377l-0.121-1.381
			C141.141,93.73,138.217,88.258,131.363,88.258"/>
	</g>
	<g>
		<defs>
			<path id="SVGID_17_" d="M42.799,35.798V58.61l0.008,49.779c0,35.68,64.601,64.603,64.601,64.603s64.6-28.923,64.6-64.603
				l0.008-49.779V35.798H42.799z"/>
		</defs>
		<clipPath id="SVGID_18_">
			<use xlink:href="#SVGID_17_"  overflow="visible"/>
		</clipPath>
		<path clip-path="url(#SVGID_18_)" fill="#944299" d="M106.507,126.058c-4.862-2.862-8.029-8.628-15.662-11.615
			c-1.932,2.166-4.39,3.569-7.315,3.569c-2.944,0-5.417-1.424-7.355-3.615c-7.648,2.974-10.892,8.783-15.779,11.661
			c-1.07,0.631-1.894,2.216-1.894,3.457l3.371,33.01h42.482l4.045-33.01C108.4,128.272,107.577,126.688,106.507,126.058"/>
	</g>
	<g>
		<defs>
			<path id="SVGID_19_" d="M42.799,35.798V58.61l0.008,49.779c0,35.68,64.601,64.603,64.601,64.603s64.6-28.923,64.6-64.603
				l0.008-49.779V35.798H42.799z"/>
		</defs>
		<clipPath id="SVGID_20_">
			<use xlink:href="#SVGID_19_"  overflow="visible"/>
		</clipPath>
		<path clip-path="url(#SVGID_20_)" fill="#191818" d="M106.113,162.022H60.076l-3.581-32.51c0-1.986,1.239-4.218,2.883-5.186
			c1.711-1.008,3.294-2.508,4.97-4.094c2.845-2.697,6.071-5.752,11.1-7.708l1.304-0.51l0.927,1.051
			c1.723,1.949,3.692,2.938,5.851,2.938c2.144,0,4.101-0.976,5.818-2.898l0.929-1.041l1.3,0.508c5.014,1.963,8.204,5,11.018,7.681
			c1.66,1.58,3.228,3.072,4.93,4.075c1.644,0.968,2.883,3.198,2.883,5.186l-0.018,0.266L106.113,162.022z M63.671,158.008h38.926
			l3.793-28.594c-0.049-0.569-0.494-1.387-0.901-1.627c-2.101-1.237-3.83-2.883-5.661-4.628c-2.413-2.297-4.899-4.665-8.511-6.336
			c-2.271,2.096-4.938,3.195-7.787,3.195c-2.87,0-5.553-1.114-7.834-3.24c-3.629,1.67-6.146,4.055-8.587,6.369
			c-1.847,1.749-3.59,3.399-5.694,4.64c-0.412,0.242-0.862,1.075-0.903,1.645L63.671,158.008z"/>
	</g>
	<g>
		<defs>
			<path id="SVGID_21_" d="M42.799,35.798V58.61l0.008,49.779c0,35.68,64.601,64.603,64.601,64.603s64.6-28.923,64.6-64.603
				l0.008-49.779V35.798H42.799z"/>
		</defs>
		<clipPath id="SVGID_22_">
			<use xlink:href="#SVGID_21_"  overflow="visible"/>
		</clipPath>
		<path clip-path="url(#SVGID_22_)" fill="#FFFFFF" d="M95.678,98.674c-0.066-0.746-0.177-1.473-0.327-2.178
			c-1.258-5.914-5.441-10.245-11.9-10.245c-6.458,0-10.641,4.331-11.899,10.245c-0.15,0.705-0.262,1.432-0.327,2.178
			c-1.699,0.479-2.946,2.038-2.946,3.892c0,2.124,1.64,3.862,3.722,4.028c1.648,6.073,5.625,11.644,11.45,11.644
			c5.826,0,9.803-5.569,11.451-11.644c2.082-0.166,3.721-1.904,3.721-4.028C98.623,100.712,97.377,99.153,95.678,98.674"/>
	</g>
	<g>
		<defs>
			<path id="SVGID_23_" d="M42.799,35.798V58.61l0.008,49.779c0,35.68,64.601,64.603,64.601,64.603s64.6-28.923,64.6-64.603
				l0.008-49.779V35.798H42.799z"/>
		</defs>
		<clipPath id="SVGID_24_">
			<use xlink:href="#SVGID_23_"  overflow="visible"/>
		</clipPath>
		<path clip-path="url(#SVGID_24_)" fill="#FFFFFF" d="M71.225,98.674c0.066-0.746,0.177-1.473,0.327-2.178
			c0.734-3.451,2.466-6.361,5.063-8.188c2.628,10.412,14.548,11.438,20.662,11.25c0.825,0.739,1.347,1.811,1.347,3.008
			c0,2.124-1.64,3.862-3.722,4.028c-1.648,6.073-5.625,11.644-11.45,11.644c-5.826,0-9.803-5.569-11.451-11.644
			c-2.082-0.166-3.721-1.904-3.721-4.028C68.28,100.712,69.526,99.153,71.225,98.674"/>
	</g>
	<g>
		<defs>
			<path id="SVGID_25_" d="M42.799,35.798V58.61l0.008,49.779c0,35.68,64.601,64.603,64.601,64.603s64.6-28.923,64.6-64.603
				l0.008-49.779V35.798H42.799z"/>
		</defs>
		<clipPath id="SVGID_26_">
			<use xlink:href="#SVGID_25_"  overflow="visible"/>
		</clipPath>
		<path clip-path="url(#SVGID_26_)" fill="#944299" d="M91.256,88.308c-1.854-1.304-4.147-2.057-6.837-2.057
			c-6.459,0-10.642,4.33-11.9,10.244c-0.15,0.706-0.261,1.433-0.326,2.179c-0.603,0.17-1.146,0.478-1.599,0.883
			C76.707,99.744,88.628,98.72,91.256,88.308"/>
	</g>
	<g>
		<defs>
			<path id="SVGID_27_" d="M42.799,35.798V58.61l0.008,49.779c0,35.68,64.601,64.603,64.601,64.603s64.6-28.923,64.6-64.603
				l0.008-49.779V35.798H42.799z"/>
		</defs>
		<clipPath id="SVGID_28_">
			<use xlink:href="#SVGID_27_"  overflow="visible"/>
		</clipPath>
		<path clip-path="url(#SVGID_28_)" fill="#191818" d="M83.451,120.243c-6.796,0-11.106-5.964-13.036-11.94
			c-2.41-0.809-4.143-3.103-4.143-5.737c0-2.214,1.222-4.225,3.096-5.277c1.162-7.853,6.697-13.043,14.083-13.043
			c7.386,0,12.921,5.19,14.083,13.043c1.874,1.054,3.096,3.063,3.096,5.277c0,2.636-1.733,4.93-4.143,5.737
			C94.558,114.279,90.247,120.243,83.451,120.243 M83.451,88.258c-6.854,0-9.777,5.474-10.228,10.592l-0.121,1.381l-1.333,0.377
			c-0.873,0.246-1.483,1.051-1.483,1.958c0,1.054,0.823,1.944,1.874,2.028l1.408,0.111l0.369,1.364
			c1.333,4.912,4.533,10.161,9.514,10.161c4.982,0,8.181-5.249,9.514-10.161l0.37-1.364l1.407-0.111
			c1.051-0.084,1.875-0.976,1.875-2.028c0-0.907-0.611-1.712-1.484-1.958l-1.333-0.376l-0.121-1.382
			C93.229,93.73,90.305,88.258,83.451,88.258"/>
	</g>
	<g>
		<defs>
			<path id="SVGID_29_" d="M42.799,35.798V58.61l0.008,49.779c0,35.68,64.601,64.603,64.601,64.603s64.6-28.923,64.6-64.603
				l0.008-49.779V35.798H42.799z"/>
		</defs>
		<clipPath id="SVGID_30_">
			<use xlink:href="#SVGID_29_"  overflow="visible"/>
		</clipPath>
		<path clip-path="url(#SVGID_30_)" fill="#CE96C3" d="M139.396,127.699c-6.746-3.973-11.142-11.973-21.73-16.116
			c-2.682,3.006-6.092,4.953-10.148,4.953c-4.086,0-7.516-1.977-10.206-5.019C86.7,115.645,82.2,123.706,75.419,127.699
			c-1.484,0.875-2.628,3.074-2.628,4.797l4.678,44.576h58.942l5.614-44.576C142.023,130.773,140.881,128.574,139.396,127.699"/>
	</g>
	<g>
		<defs>
			<path id="SVGID_31_" d="M42.799,35.798V58.61l0.008,49.779c0,35.68,64.601,64.603,64.601,64.603s64.6-28.923,64.6-64.603
				l0.008-49.779V35.798H42.799z"/>
		</defs>
		<clipPath id="SVGID_32_">
			<use xlink:href="#SVGID_31_"  overflow="visible"/>
		</clipPath>
		<path clip-path="url(#SVGID_32_)" fill="#191818" d="M138.199,179.101H75.643l-4.88-46.604c0-2.513,1.559-5.325,3.627-6.543
			c2.449-1.44,4.675-3.552,7.033-5.785c3.897-3.691,8.314-7.878,15.154-10.538l1.317-0.512l0.936,1.059
			c2.542,2.875,5.465,4.334,8.687,4.334c3.2,0,6.106-1.438,8.637-4.276l0.938-1.052l1.313,0.514
			c6.82,2.669,11.188,6.83,15.041,10.498c2.336,2.224,4.541,4.324,6.979,5.76c2.067,1.218,3.627,4.031,3.627,6.543l-0.017,0.253
			L138.199,179.101z M79.294,175.045h55.329l5.372-42.655c-0.052-1.048-0.832-2.476-1.627-2.942
			c-2.841-1.672-5.209-3.929-7.718-6.317c-3.496-3.329-7.104-6.765-12.481-9.143c-3.088,3-6.744,4.578-10.652,4.578
			c-3.936,0-7.615-1.601-10.716-4.642c-5.401,2.375-9.051,5.834-12.59,9.188c-2.529,2.396-4.918,4.661-7.764,6.336
			c-0.799,0.471-1.585,1.911-1.628,2.96L79.294,175.045z"/>
	</g>
	<g>
		<defs>
			<path id="SVGID_33_" d="M42.799,35.798V58.61l0.008,49.779c0,35.68,64.601,64.603,64.601,64.603s64.6-28.923,64.6-64.603
				l0.008-49.779V35.798H42.799z"/>
		</defs>
		<clipPath id="SVGID_34_">
			<use xlink:href="#SVGID_33_"  overflow="visible"/>
		</clipPath>
		<polygon clip-path="url(#SVGID_34_)" fill="#FFFFFF" points="98.377,115.363 116.438,115.363 107.408,133.425 		"/>
	</g>
	<g>
		<defs>
			<path id="SVGID_35_" d="M42.799,35.798V58.61l0.008,49.779c0,35.68,64.601,64.603,64.601,64.603s64.6-28.923,64.6-64.603
				l0.008-49.779V35.798H42.799z"/>
		</defs>
		<clipPath id="SVGID_36_">
			<use xlink:href="#SVGID_35_"  overflow="visible"/>
		</clipPath>
		<path clip-path="url(#SVGID_36_)" fill="#FFFFFF" d="M124.371,89.705c-0.092-1.035-0.244-2.043-0.453-3.022
			c-1.746-8.206-7.549-14.214-16.511-14.214c-8.961,0-14.765,6.008-16.511,14.214c-0.208,0.979-0.362,1.987-0.453,3.022
			c-2.357,0.666-4.087,2.828-4.087,5.397c0,2.947,2.274,5.36,5.164,5.592c2.286,8.425,7.804,16.152,15.887,16.152
			c8.082,0,13.601-7.729,15.888-16.152c2.889-0.23,5.164-2.645,5.164-5.592C128.459,92.533,126.729,90.371,124.371,89.705"/>
	</g>
	<g>
		<defs>
			<path id="SVGID_37_" d="M42.799,35.798V58.61l0.008,49.779c0,35.68,64.601,64.603,64.601,64.603s64.6-28.923,64.6-64.603
				l0.008-49.779V35.798H42.799z"/>
		</defs>
		<clipPath id="SVGID_38_">
			<use xlink:href="#SVGID_37_"  overflow="visible"/>
		</clipPath>
		<path clip-path="url(#SVGID_38_)" fill="#FFFFFF" d="M124.371,89.705c-0.092-1.035-0.244-2.043-0.453-3.022
			c-1.02-4.788-3.422-8.824-7.023-11.358c-3.647,14.445-20.187,15.867-28.668,15.606c-1.145,1.026-1.869,2.514-1.869,4.173
			c0,2.947,2.274,5.36,5.164,5.592c2.286,8.425,7.804,16.152,15.887,16.152c8.082,0,13.601-7.729,15.888-16.152
			c2.89-0.23,5.164-2.645,5.164-5.592C128.459,92.533,126.729,90.371,124.371,89.705"/>
	</g>
	<g>
		<defs>
			<path id="SVGID_39_" d="M42.799,35.798V58.61l0.008,49.779c0,35.68,64.601,64.603,64.601,64.603s64.6-28.923,64.6-64.603
				l0.008-49.779V35.798H42.799z"/>
		</defs>
		<clipPath id="SVGID_40_">
			<use xlink:href="#SVGID_39_"  overflow="visible"/>
		</clipPath>
		<path clip-path="url(#SVGID_40_)" fill="#CE96C3" d="M116.895,75.322c-2.572-1.81-5.754-2.854-9.486-2.854
			c-8.961,0-14.765,6.008-16.511,14.214c-0.208,0.979-0.362,1.987-0.453,3.022c-0.835,0.235-1.589,0.662-2.218,1.226
			C96.708,91.189,113.246,89.77,116.895,75.322"/>
	</g>
	<g>
		<defs>
			<path id="SVGID_41_" d="M42.799,35.798V58.61l0.008,49.779c0,35.68,64.601,64.603,64.601,64.603s64.6-28.923,64.6-64.603
				l0.008-49.779V35.798H42.799z"/>
		</defs>
		<clipPath id="SVGID_42_">
			<use xlink:href="#SVGID_41_"  overflow="visible"/>
		</clipPath>
		<path clip-path="url(#SVGID_42_)" fill="#191818" d="M107.407,118.875c-9.162,0-14.952-8.262-17.484-16.416
			c-3.231-0.904-5.594-3.896-5.594-7.356c0-2.919,1.685-5.558,4.233-6.833c1.432-10.875,8.718-17.827,18.845-17.827
			c10.127,0,17.413,6.951,18.847,17.827c2.547,1.275,4.23,3.914,4.23,6.833c0,3.46-2.362,6.452-5.594,7.356
			C122.359,110.613,116.568,118.875,107.407,118.875 M107.407,74.496c-8.256,0-14.123,6.039-14.944,15.388l-0.123,1.394l-1.347,0.38
			c-1.536,0.435-2.609,1.852-2.609,3.446c0,1.854,1.447,3.423,3.296,3.57l1.423,0.111l0.373,1.377
			c1.923,7.087,6.592,14.658,13.931,14.658c7.339,0,12.008-7.571,13.931-14.658l0.373-1.377l1.424-0.111
			c1.85-0.147,3.295-1.716,3.295-3.57c0-1.596-1.07-3.013-2.607-3.446l-1.348-0.38l-0.123-1.394
			C121.529,80.535,115.663,74.496,107.407,74.496"/>
	</g>
</g>
<path fill="#1A1A19" d="M165.755,17.686h-18.838L107.852,6.733L70.091,17.686H49.06c-3.458,0-6.261,2.805-6.261,6.263V36.3v16.529
	v6.282l0.008,49.78c0,35.679,64.601,64.602,64.601,64.602s64.6-28.923,64.6-64.602l0.008-49.78v-6.282V36.3V23.948
	C172.016,20.489,169.213,17.686,165.755,17.686 M164.49,59.109l-0.008,49.781c0,8.39-5.031,22.042-28.996,39.444
	c-11.291,8.199-22.754,14.198-28.083,16.821c-5.288-2.602-16.619-8.527-27.885-16.684c-24.124-17.463-29.187-31.163-29.187-39.584
	l-0.009-49.779v-6.282H164.49V59.109z"/>
<path fill="#FFFFFF" d="M100.891,43.698v-3.251c7.345-7.136,8.88-8.729,8.88-11.02c0-1.535-1.174-2.528-2.679-2.528
	c-1.776,0-3.191,0.813-4.275,2.258l-2.408-2.527c1.625-2.168,4.003-3.313,6.743-3.313c3.884,0,6.714,2.349,6.714,6.081
	c0,3.041-2.049,5.63-7.016,10.747h7.105v3.553H100.891L100.891,43.698z"/>
<polygon fill="#CE96C3" points="76.514,31.659 64.773,34.368 53.938,31.659 53.938,25.338 64.773,28.047 76.514,25.338 "/>
<polygon fill="#CE96C3" points="76.514,40.689 64.773,43.398 53.938,40.689 53.938,34.369 64.773,37.078 76.514,34.369 "/>
<polygon fill="#FFFFFF" points="160.878,31.659 149.139,34.368 138.302,31.659 138.302,25.338 149.139,28.047 160.878,25.338 "/>
<polygon fill="#FFFFFF" points="160.878,40.689 149.139,43.398 138.302,40.689 138.302,34.369 149.139,37.078 160.878,34.369 "/>
</svg>
