<?xml version="1.0" encoding="utf-8"?>
<!-- Generator: Adobe Illustrator 16.0.0, SVG Export Plug-In . SVG Version: 6.00 Build 0)  -->
<!DOCTYPE svg PUBLIC "-//W3C//DTD SVG 1.1//EN" "http://www.w3.org/Graphics/SVG/1.1/DTD/svg11.dtd">
<svg version="1.1" id="Layer_1" xmlns="http://www.w3.org/2000/svg" xmlns:xlink="http://www.w3.org/1999/xlink" x="0px" y="0px"
	 width="612px" height="792px" viewBox="0 0 612 792" enable-background="new 0 0 612 792" xml:space="preserve">
<path fill="none" d="M346.63,60"/>
<path fill="none" d="M346.63,3305.597"/>
<path fill="#1A1A19" d="M323.373,458.387c-10.386,6.445-19.062,10.538-20.966,11.416c-1.905-0.878-10.58-4.971-20.967-11.416v0.492
	c-0.003-0.002,0.004-0.006,0-0.008v15.052c11.415,7.013,20.568,11.111,20.568,11.111l0.399-0.001l0.399,0.001
	c0,0,9.152-4.099,20.566-11.111v-15.052c-0.004,0.002,0.004,0.006,0,0.008V458.387z"/>
<path fill="#FFFFFF" d="M278.125,457.249c-9.748-6.171-20.759-14.313-29.014-23.745v15.052c8.118,9.568,19.145,17.857,29.014,24.17
	v-15.052c-0.004-0.002,0.003-0.005,0-0.007V457.249z"/>
<path fill="#FFFFFF" d="M326.689,457.249v0.418c-0.004,0.002,0.004,0.005,0,0.007v15.052c9.869-6.313,20.896-14.602,29.015-24.17
	v-15.052C347.447,442.937,336.438,451.078,326.689,457.249"/>
<path fill="#CE96C3" d="M238.767,332.817v19.998l0.008,49.035c0,35.142,63.632,63.632,63.632,63.632s63.632-28.49,63.632-63.632
	l0.008-49.035v-19.998H238.767z"/>
<g opacity="0.5">
	<g>
		<defs>
			<rect id="SVGID_1_" x="302.998" y="333.09" width="60.025" height="127.58"/>
		</defs>
		<clipPath id="SVGID_2_">
			<use xlink:href="#SVGID_1_"  overflow="visible"/>
		</clipPath>
		<path clip-path="url(#SVGID_2_)" fill="#944098" d="M303.126,460.666c5.59-2.753,17.62-9.048,29.468-17.652
			c9.19-6.674,16.454-13.391,21.588-19.966c5.866-7.514,8.841-14.723,8.841-21.427v-47.225v-21.305h-60.025v127.511
			C303.041,460.623,303.085,460.646,303.126,460.666"/>
	</g>
</g>
<g opacity="0.4">
	<g>
		<defs>
			<rect id="SVGID_3_" x="237.799" y="329.3" width="129.217" height="137.19"/>
		</defs>
		<clipPath id="SVGID_4_">
			<use xlink:href="#SVGID_3_"  overflow="visible"/>
		</clipPath>
		<path clip-path="url(#SVGID_4_)" fill="#FFFFFF" d="M353.219,343.097v9.012l-0.008,49.783c0,18.215-31.199,39.305-50.76,49.273
			c-5.696-2.925-14.985-8.061-24.254-14.771c-17.149-12.413-26.594-24.667-26.594-34.505l-0.008-49.779v-9.014H353.219
			 M367.016,329.3H237.798v22.811l0.009,49.781c0,35.677,64.6,64.6,64.6,64.6s64.601-28.923,64.601-64.6l0.008-49.781V329.3z"/>
	</g>
</g>
<g>
	<defs>
		<path id="SVGID_5_" d="M237.799,328.798v22.812l0.008,49.78c0,35.679,64.601,64.602,64.601,64.602s64.6-28.923,64.6-64.602
			l0.008-49.78v-22.812H237.799z"/>
	</defs>
	<clipPath id="SVGID_6_">
		<use xlink:href="#SVGID_5_"  overflow="visible"/>
	</clipPath>
	<path clip-path="url(#SVGID_6_)" fill="#944098" d="M349.419,419.058c-4.862-2.863-8.028-8.628-15.662-11.616
		c-1.932,2.166-4.39,3.57-7.315,3.57c-2.943,0-5.416-1.424-7.354-3.616c-7.647,2.974-10.892,8.784-15.779,11.662
		c-1.07,0.63-1.894,2.215-1.894,3.457l3.371,30.5h42.482l4.045-30.5C351.313,421.272,350.488,419.688,349.419,419.058"/>
	<path clip-path="url(#SVGID_6_)" fill="#191818" d="M349.025,455.022h-46.038l-3.581-32.509c0-1.987,1.239-4.218,2.883-5.186
		c1.711-1.008,3.294-2.508,4.971-4.095c2.845-2.696,6.069-5.751,11.099-7.707l1.305-0.509l0.927,1.05
		c1.724,1.95,3.692,2.938,5.852,2.938c2.144,0,4.101-0.976,5.817-2.898l0.929-1.042l1.3,0.508c5.016,1.963,8.204,5,11.02,7.681
		c1.658,1.58,3.227,3.072,4.93,4.075c1.643,0.969,2.882,3.198,2.882,5.186l-0.017,0.265L349.025,455.022z M306.583,451.008h38.926
		l3.793-28.594c-0.05-0.569-0.494-1.387-0.901-1.627c-2.1-1.237-3.83-2.883-5.66-4.628c-2.412-2.297-4.899-4.665-8.512-6.336
		c-2.271,2.096-4.938,3.196-7.786,3.196c-2.87,0-5.554-1.115-7.835-3.241c-3.629,1.67-6.146,4.055-8.587,6.369
		c-1.846,1.749-3.59,3.4-5.695,4.64c-0.411,0.242-0.861,1.075-0.902,1.645L306.583,451.008z"/>
	<path clip-path="url(#SVGID_6_)" fill="#FFFFFF" d="M338.59,391.674c-0.066-0.746-0.177-1.473-0.326-2.178
		c-1.259-5.914-5.441-10.245-11.9-10.245s-10.641,4.331-11.899,10.245c-0.149,0.705-0.262,1.432-0.327,2.178
		c-1.699,0.479-2.945,2.038-2.945,3.891c0,2.124,1.64,3.863,3.722,4.029c1.647,6.073,5.625,11.643,11.45,11.643
		c5.826,0,9.803-5.569,11.451-11.643c2.082-0.166,3.721-1.905,3.721-4.029C341.535,393.712,340.289,392.153,338.59,391.674"/>
	<path clip-path="url(#SVGID_6_)" fill="#FFFFFF" d="M314.137,391.674c0.066-0.746,0.177-1.473,0.327-2.178
		c0.733-3.451,2.466-6.361,5.063-8.188c2.627,10.412,14.547,11.437,20.661,11.25c0.825,0.739,1.347,1.81,1.347,3.007
		c0,2.124-1.64,3.863-3.722,4.029c-1.647,6.073-5.625,11.643-11.45,11.643c-5.826,0-9.803-5.569-11.451-11.643
		c-2.082-0.166-3.721-1.905-3.721-4.029C311.191,393.712,312.438,392.153,314.137,391.674"/>
	<path clip-path="url(#SVGID_6_)" fill="#944098" d="M319.025,381.308c1.854-1.304,4.146-2.057,6.836-2.057
		c6.459,0,10.643,4.33,11.9,10.244c0.15,0.706,0.262,1.433,0.326,2.179c0.602,0.17,1.146,0.477,1.599,0.883
		C333.574,392.744,321.652,391.72,319.025,381.308"/>
	<path clip-path="url(#SVGID_6_)" fill="#191818" d="M326.363,413.243c-6.795,0-11.105-5.964-13.036-11.94
		c-2.409-0.809-4.143-3.103-4.143-5.738c0-2.213,1.222-4.224,3.096-5.277c1.162-7.852,6.697-13.043,14.083-13.043
		c7.387,0,12.921,5.191,14.083,13.043c1.874,1.054,3.097,3.064,3.097,5.277c0,2.636-1.733,4.93-4.144,5.738
		C337.469,407.279,333.158,413.243,326.363,413.243 M326.363,381.258c-6.854,0-9.777,5.473-10.229,10.592l-0.121,1.38l-1.332,0.377
		c-0.873,0.246-1.483,1.051-1.483,1.958c0,1.054,0.823,1.945,1.874,2.029l1.407,0.111l0.37,1.364
		c1.333,4.912,4.533,10.161,9.514,10.161s8.182-5.249,9.514-10.161l0.371-1.364l1.406-0.111c1.051-0.084,1.874-0.976,1.874-2.029
		c0-0.907-0.61-1.712-1.483-1.958l-1.332-0.377l-0.121-1.38C336.141,386.73,333.217,381.258,326.363,381.258"/>
	<path clip-path="url(#SVGID_6_)" fill="#944098" d="M301.507,419.058c-4.862-2.863-8.029-8.628-15.662-11.616
		c-1.932,2.166-4.39,3.57-7.315,3.57c-2.944,0-5.417-1.424-7.355-3.616c-7.648,2.974-10.892,8.784-15.779,11.662
		c-1.07,0.63-1.894,2.215-1.894,3.457l3.371,33.009h42.482l4.046-33.009C303.401,421.272,302.577,419.688,301.507,419.058"/>
	<path clip-path="url(#SVGID_6_)" fill="#191818" d="M301.113,455.022h-46.037l-3.581-32.509c0-1.987,1.239-4.218,2.883-5.186
		c1.711-1.008,3.294-2.508,4.97-4.094c2.845-2.697,6.071-5.752,11.1-7.708l1.304-0.509l0.927,1.05
		c1.723,1.95,3.692,2.938,5.851,2.938c2.144,0,4.101-0.976,5.818-2.898l0.929-1.042l1.3,0.508c5.014,1.963,8.204,5,11.018,7.681
		c1.66,1.58,3.228,3.072,4.93,4.075c1.644,0.968,2.883,3.198,2.883,5.186l-0.018,0.265L301.113,455.022z M258.671,451.008h38.926
		l3.793-28.594c-0.049-0.569-0.494-1.387-0.901-1.627c-2.101-1.237-3.83-2.883-5.661-4.628c-2.413-2.297-4.899-4.665-8.511-6.336
		c-2.271,2.096-4.938,3.196-7.787,3.196c-2.87,0-5.553-1.115-7.834-3.241c-3.629,1.67-6.146,4.055-8.587,6.369
		c-1.847,1.749-3.59,3.4-5.694,4.64c-0.412,0.242-0.862,1.075-0.903,1.645L258.671,451.008z"/>
	<path clip-path="url(#SVGID_6_)" fill="#FFFFFF" d="M290.678,391.674c-0.066-0.746-0.177-1.473-0.327-2.178
		c-1.258-5.914-5.441-10.245-11.9-10.245c-6.458,0-10.641,4.331-11.899,10.245c-0.15,0.705-0.262,1.432-0.327,2.178
		c-1.699,0.479-2.946,2.038-2.946,3.891c0,2.124,1.64,3.863,3.722,4.029c1.648,6.073,5.625,11.643,11.45,11.643
		c5.826,0,9.803-5.569,11.451-11.643c2.082-0.166,3.721-1.905,3.721-4.029C293.623,393.712,292.377,392.153,290.678,391.674"/>
	<path clip-path="url(#SVGID_6_)" fill="#FFFFFF" d="M266.225,391.674c0.066-0.746,0.177-1.473,0.327-2.178
		c0.734-3.451,2.466-6.361,5.063-8.188c2.628,10.412,14.548,11.437,20.662,11.25c0.825,0.739,1.347,1.81,1.347,3.007
		c0,2.124-1.64,3.863-3.722,4.029c-1.648,6.073-5.625,11.643-11.45,11.643c-5.826,0-9.803-5.569-11.451-11.643
		c-2.082-0.166-3.721-1.905-3.721-4.029C263.28,393.712,264.526,392.153,266.225,391.674"/>
	<path clip-path="url(#SVGID_6_)" fill="#944098" d="M286.256,381.308c-1.854-1.304-4.147-2.057-6.837-2.057
		c-6.459,0-10.642,4.33-11.9,10.244c-0.15,0.706-0.261,1.433-0.326,2.179c-0.603,0.17-1.146,0.477-1.599,0.883
		C271.707,392.744,283.628,391.72,286.256,381.308"/>
	<path clip-path="url(#SVGID_6_)" fill="#191818" d="M278.451,413.243c-6.796,0-11.106-5.964-13.036-11.94
		c-2.41-0.809-4.143-3.103-4.143-5.738c0-2.213,1.222-4.224,3.096-5.277c1.162-7.852,6.697-13.043,14.083-13.043
		c7.386,0,12.921,5.191,14.083,13.043c1.874,1.054,3.096,3.064,3.096,5.277c0,2.636-1.733,4.93-4.143,5.738
		C289.558,407.279,285.247,413.243,278.451,413.243 M278.451,381.258c-6.854,0-9.777,5.473-10.228,10.592l-0.121,1.38l-1.333,0.377
		c-0.873,0.246-1.483,1.051-1.483,1.958c0,1.054,0.823,1.945,1.874,2.029l1.408,0.111l0.369,1.364
		c1.333,4.912,4.533,10.161,9.514,10.161c4.982,0,8.181-5.249,9.514-10.161l0.37-1.364l1.407-0.111
		c1.051-0.084,1.875-0.976,1.875-2.029c0-0.907-0.611-1.712-1.484-1.958l-1.333-0.376l-0.121-1.381
		C288.229,386.73,285.305,381.258,278.451,381.258"/>
	<path clip-path="url(#SVGID_6_)" fill="#CE96C3" d="M334.396,420.699c-6.746-3.972-11.141-11.972-21.73-16.116
		c-2.681,3.006-6.092,4.953-10.148,4.953c-4.086,0-7.516-1.976-10.206-5.018c-10.612,4.127-15.112,12.188-21.893,16.181
		c-1.484,0.875-2.628,3.074-2.628,4.797l4.678,44.576h58.942l5.614-44.576C337.024,423.773,335.881,421.574,334.396,420.699"/>
	<path clip-path="url(#SVGID_6_)" fill="#191818" d="M333.199,472.101h-62.556l-4.88-46.605c0-2.513,1.559-5.325,3.627-6.543
		c2.449-1.44,4.675-3.552,7.033-5.785c3.897-3.691,8.314-7.878,15.154-10.538l1.317-0.512l0.936,1.059
		c2.542,2.875,5.465,4.334,8.687,4.334c3.2,0,6.106-1.439,8.637-4.277l0.938-1.051l1.313,0.513
		c6.819,2.669,11.187,6.83,15.041,10.498c2.335,2.224,4.541,4.325,6.979,5.76c2.067,1.218,3.627,4.031,3.627,6.543l-0.017,0.253
		L333.199,472.101z M274.294,468.045h55.329l5.372-42.655c-0.051-1.048-0.832-2.476-1.627-2.943
		c-2.84-1.672-5.209-3.928-7.718-6.317c-3.496-3.329-7.104-6.765-12.481-9.143c-3.088,3-6.744,4.578-10.652,4.578
		c-3.936,0-7.615-1.6-10.716-4.641c-5.401,2.375-9.051,5.834-12.59,9.187c-2.529,2.396-4.918,4.661-7.764,6.336
		c-0.799,0.471-1.585,1.911-1.628,2.96L274.294,468.045z"/>
	<polygon clip-path="url(#SVGID_6_)" fill="#FFFFFF" points="293.377,408.363 311.438,408.363 302.408,426.425 	"/>
	<path clip-path="url(#SVGID_6_)" fill="#FFFFFF" d="M319.371,382.705c-0.091-1.035-0.244-2.043-0.453-3.022
		c-1.746-8.206-7.549-14.214-16.511-14.214c-8.961,0-14.765,6.008-16.511,14.214c-0.208,0.979-0.362,1.987-0.453,3.022
		c-2.357,0.666-4.087,2.828-4.087,5.398c0,2.947,2.274,5.36,5.164,5.591c2.286,8.425,7.804,16.153,15.887,16.153
		c8.082,0,13.601-7.729,15.888-16.153c2.889-0.23,5.164-2.644,5.164-5.591C323.459,385.533,321.729,383.371,319.371,382.705"/>
	<path clip-path="url(#SVGID_6_)" fill="#FFFFFF" d="M319.371,382.705c-0.091-1.035-0.244-2.043-0.453-3.022
		c-1.019-4.788-3.422-8.825-7.024-11.359c-3.647,14.446-20.186,15.867-28.668,15.607c-1.145,1.026-1.869,2.513-1.869,4.173
		c0,2.947,2.274,5.36,5.164,5.591c2.286,8.425,7.804,16.153,15.887,16.153c8.082,0,13.601-7.729,15.888-16.153
		c2.89-0.23,5.164-2.644,5.164-5.591C323.459,385.533,321.729,383.371,319.371,382.705"/>
	<path clip-path="url(#SVGID_6_)" fill="#CE96C3" d="M311.894,368.322c-2.572-1.809-5.754-2.854-9.486-2.854
		c-8.961,0-14.765,6.008-16.511,14.214c-0.208,0.979-0.362,1.987-0.453,3.022c-0.835,0.235-1.589,0.662-2.218,1.226
		C291.708,384.189,308.246,382.77,311.894,368.322"/>
	<path clip-path="url(#SVGID_6_)" fill="#191818" d="M302.407,411.875c-9.162,0-14.952-8.262-17.484-16.416
		c-3.231-0.904-5.594-3.896-5.594-7.356c0-2.919,1.685-5.558,4.233-6.833c1.432-10.875,8.718-17.828,18.845-17.828
		s17.414,6.952,18.847,17.828c2.547,1.275,4.231,3.914,4.231,6.833c0,3.46-2.363,6.452-5.595,7.356
		C317.359,403.613,311.569,411.875,302.407,411.875 M302.407,367.496c-8.256,0-14.123,6.039-14.944,15.388l-0.123,1.393l-1.347,0.38
		c-1.536,0.435-2.609,1.852-2.609,3.446c0,1.855,1.447,3.423,3.296,3.571l1.423,0.111l0.373,1.377
		c1.923,7.087,6.592,14.658,13.931,14.658s12.008-7.571,13.931-14.658l0.373-1.377l1.424-0.111c1.849-0.148,3.295-1.716,3.295-3.571
		c0-1.595-1.071-3.012-2.608-3.446l-1.347-0.38l-0.123-1.393C316.53,373.535,310.663,367.496,302.407,367.496"/>
</g>
<path fill="#1A1A19" d="M360.755,310.686h-18.838l-39.065-10.953l-37.761,10.953H244.06c-3.458,0-6.261,2.804-6.261,6.262v12.352
	v16.529v6.282l0.008,49.781c0,35.678,64.601,64.601,64.601,64.601s64.6-28.923,64.6-64.601l0.008-49.781v-6.282v-16.529v-12.352
	C367.016,313.489,364.213,310.686,360.755,310.686 M359.49,352.109l-0.008,49.782c0,8.389-5.031,22.042-28.996,39.444
	c-11.291,8.199-22.754,14.198-28.082,16.821c-5.288-2.601-16.619-8.527-27.885-16.683c-24.124-17.463-29.187-31.163-29.187-39.584
	l-0.009-49.78v-6.282H359.49V352.109z"/>
<path fill="#FFFFFF" d="M295.891,336.698v-3.251c7.346-7.135,8.881-8.729,8.881-11.019c0-1.535-1.174-2.529-2.679-2.529
	c-1.776,0-3.191,0.814-4.275,2.258l-2.408-2.527c1.625-2.168,4.003-3.313,6.743-3.313c3.884,0,6.714,2.349,6.714,6.081
	c0,3.041-2.048,5.63-7.016,10.748h7.105v3.552H295.891z"/>
<polygon fill="#CE96C3" points="271.514,324.659 259.773,327.368 248.938,324.659 248.938,318.338 259.773,321.047 271.514,318.338 
	"/>
<polygon fill="#CE96C3" points="271.514,333.689 259.773,336.398 248.938,333.689 248.938,327.369 259.773,330.078 271.514,327.369 
	"/>
<polygon fill="#FFFFFF" points="355.878,324.659 344.138,327.368 333.302,324.659 333.302,318.338 344.138,321.047 355.878,318.338 
	"/>
<polygon fill="#FFFFFF" points="355.878,333.689 344.138,336.398 333.302,333.689 333.302,327.369 344.138,330.078 355.878,327.369 
	"/>
</svg>
