<?xml version="1.0" encoding="utf-8"?>
<!-- Generator: Adobe Illustrator 16.0.0, SVG Export Plug-In . SVG Version: 6.00 Build 0)  -->
<!DOCTYPE svg PUBLIC "-//W3C//DTD SVG 1.1//EN" "http://www.w3.org/Graphics/SVG/1.1/DTD/svg11.dtd">
<svg version="1.1" id="Layer_1" xmlns="http://www.w3.org/2000/svg" xmlns:xlink="http://www.w3.org/1999/xlink" x="0px" y="0px"
	 width="215px" height="195px" viewBox="0 0 215 195" enable-background="new 0 0 215 195" xml:space="preserve">
<line fill="none" x1="39.764" y1="-2411.76" x2="39.764" y2="833.837"/>
<path fill="#FFFFFF" d="M86.969,171.249c-9.748-6.171-20.759-14.313-29.014-23.745v15.052c8.118,9.568,19.145,17.857,29.014,24.17
	v-15.052c-0.004-0.002,0.003-0.005,0-0.007V171.249z"/>
<path fill="#FFFFFF" d="M135.533,171.249v0.418c-0.004,0.002,0.004,0.005,0,0.007v15.052c9.869-6.313,20.896-14.602,29.014-24.17
	v-15.052C156.291,156.938,145.281,165.078,135.533,171.249"/>
<path fill="#CE96C3" d="M46.643,45.809v20.303l0.008,49.779c0,35.68,64.601,64.603,64.601,64.603s64.6-28.923,64.6-64.603
	l0.01-49.779V45.809H46.643z"/>
<g opacity="0.5">
	<g>
		<g>
			<defs>
				<rect id="SVGID_1_" x="111.842" y="47.09" width="60.025" height="127.58"/>
			</defs>
			<clipPath id="SVGID_2_">
				<use xlink:href="#SVGID_1_"  overflow="visible"/>
			</clipPath>
			<path clip-path="url(#SVGID_2_)" fill="#944299" d="M111.971,174.666c5.59-2.753,17.619-9.048,29.467-17.652
				c9.19-6.674,16.455-13.391,21.588-19.966c5.867-7.514,8.842-14.723,8.842-21.427V68.396V47.091h-60.025v127.511
				C111.884,174.623,111.93,174.646,111.971,174.666"/>
		</g>
	</g>
</g>
<g opacity="0.4">
	<g>
		<g>
			<defs>
				<rect id="SVGID_3_" x="46.642" y="43.3" width="129.217" height="137.19"/>
			</defs>
			<clipPath id="SVGID_4_">
				<use xlink:href="#SVGID_3_"  overflow="visible"/>
			</clipPath>
			<path clip-path="url(#SVGID_4_)" fill="#FFFFFF" d="M162.063,57.097v9.013l-0.008,49.782c0,18.216-31.199,39.306-50.76,49.273
				c-5.696-2.925-14.985-8.062-24.254-14.771c-17.149-12.412-26.594-24.667-26.594-34.505L60.439,66.11v-9.015L162.063,57.097
				 M175.859,43.3H46.642v22.812l0.009,49.78c0,35.678,64.6,64.601,64.6,64.601s64.601-28.923,64.601-64.601l0.008-49.78V43.3
				L175.859,43.3z"/>
		</g>
	</g>
</g>
<g>
	<g>
		<defs>
			<path id="SVGID_5_" d="M46.642,42.798V65.61l0.008,49.779c0,35.68,64.601,64.603,64.601,64.603s64.601-28.923,64.601-64.603
				l0.008-49.779V42.798H46.642z"/>
		</defs>
		<clipPath id="SVGID_6_">
			<use xlink:href="#SVGID_5_"  overflow="visible"/>
		</clipPath>
		<path clip-path="url(#SVGID_6_)" fill="#944299" d="M158.264,133.058c-4.863-2.862-8.029-8.628-15.662-11.615
			c-1.934,2.166-4.391,3.569-7.315,3.569c-2.943,0-5.416-1.424-7.354-3.615c-7.646,2.974-10.892,8.783-15.777,11.661
			c-1.071,0.631-1.896,2.216-1.896,3.457l3.371,30.5h42.481l4.046-30.5C160.156,135.272,159.332,133.688,158.264,133.058"/>
	</g>
	<g>
		<defs>
			<path id="SVGID_7_" d="M46.642,42.798V65.61l0.008,49.779c0,35.68,64.601,64.603,64.601,64.603s64.601-28.923,64.601-64.603
				l0.008-49.779V42.798H46.642z"/>
		</defs>
		<clipPath id="SVGID_8_">
			<use xlink:href="#SVGID_7_"  overflow="visible"/>
		</clipPath>
		<path clip-path="url(#SVGID_8_)" fill="#191818" d="M157.869,169.022h-46.038l-3.581-32.51c0-1.986,1.239-4.218,2.883-5.186
			c1.71-1.008,3.294-2.508,4.971-4.095c2.846-2.696,6.069-5.751,11.1-7.707l1.305-0.51l0.928,1.051
			c1.724,1.949,3.691,2.938,5.852,2.938c2.145,0,4.102-0.976,5.816-2.898l0.93-1.041l1.3,0.508c5.015,1.963,8.204,5,11.019,7.68
			c1.659,1.581,3.228,3.073,4.93,4.076c1.645,0.969,2.885,3.198,2.885,5.186l-0.018,0.266L157.869,169.022z M115.426,165.008h38.928
			l3.793-28.594c-0.051-0.569-0.494-1.387-0.901-1.627c-2.101-1.237-3.83-2.884-5.66-4.628c-2.414-2.297-4.899-4.665-8.512-6.336
			c-2.271,2.096-4.938,3.195-7.786,3.195c-2.87,0-5.555-1.114-7.835-3.24c-3.629,1.67-6.146,4.055-8.587,6.369
			c-1.846,1.749-3.59,3.399-5.694,4.64c-0.412,0.242-0.86,1.075-0.901,1.645L115.426,165.008z"/>
	</g>
	<g>
		<defs>
			<path id="SVGID_9_" d="M46.642,42.798V65.61l0.008,49.779c0,35.68,64.601,64.603,64.601,64.603s64.601-28.923,64.601-64.603
				l0.008-49.779V42.798H46.642z"/>
		</defs>
		<clipPath id="SVGID_10_">
			<use xlink:href="#SVGID_9_"  overflow="visible"/>
		</clipPath>
		<path clip-path="url(#SVGID_10_)" fill="#FFFFFF" d="M147.434,105.674c-0.065-0.746-0.177-1.473-0.326-2.178
			c-1.258-5.914-5.44-10.245-11.899-10.245s-10.642,4.331-11.899,10.245c-0.148,0.705-0.262,1.432-0.326,2.178
			c-1.699,0.479-2.945,2.038-2.945,3.892c0,2.124,1.641,3.862,3.722,4.028c1.647,6.073,5.625,11.644,11.45,11.644
			c5.826,0,9.803-5.569,11.451-11.644c2.082-0.166,3.721-1.904,3.721-4.028C150.379,107.712,149.133,106.153,147.434,105.674"/>
	</g>
	<g>
		<defs>
			<path id="SVGID_11_" d="M46.642,42.798V65.61l0.008,49.779c0,35.68,64.601,64.603,64.601,64.603s64.601-28.923,64.601-64.603
				l0.008-49.779V42.798H46.642z"/>
		</defs>
		<clipPath id="SVGID_12_">
			<use xlink:href="#SVGID_11_"  overflow="visible"/>
		</clipPath>
		<path clip-path="url(#SVGID_12_)" fill="#FFFFFF" d="M122.98,105.674c0.065-0.746,0.178-1.473,0.326-2.178
			c0.733-3.451,2.467-6.361,5.063-8.188c2.627,10.412,14.547,11.438,20.662,11.25c0.823,0.739,1.346,1.811,1.346,3.008
			c0,2.124-1.64,3.862-3.721,4.028c-1.648,6.073-5.625,11.644-11.451,11.644s-9.804-5.569-11.451-11.644
			c-2.081-0.166-3.721-1.904-3.721-4.028C120.035,107.712,121.281,106.153,122.98,105.674"/>
	</g>
	<g>
		<defs>
			<path id="SVGID_13_" d="M46.642,42.798V65.61l0.008,49.779c0,35.68,64.601,64.603,64.601,64.603s64.601-28.923,64.601-64.603
				l0.008-49.779V42.798H46.642z"/>
		</defs>
		<clipPath id="SVGID_14_">
			<use xlink:href="#SVGID_13_"  overflow="visible"/>
		</clipPath>
		<path clip-path="url(#SVGID_14_)" fill="#944299" d="M127.869,95.308c1.854-1.304,4.146-2.057,6.836-2.057
			c6.459,0,10.643,4.33,11.9,10.244c0.149,0.706,0.262,1.433,0.326,2.179c0.602,0.17,1.146,0.478,1.598,0.883
			C142.418,106.744,130.496,105.72,127.869,95.308"/>
	</g>
	<g>
		<defs>
			<path id="SVGID_15_" d="M46.642,42.798V65.61l0.008,49.779c0,35.68,64.601,64.603,64.601,64.603s64.601-28.923,64.601-64.603
				l0.008-49.779V42.798H46.642z"/>
		</defs>
		<clipPath id="SVGID_16_">
			<use xlink:href="#SVGID_15_"  overflow="visible"/>
		</clipPath>
		<path clip-path="url(#SVGID_16_)" fill="#191818" d="M135.207,127.243c-6.795,0-11.105-5.964-13.035-11.94
			c-2.41-0.809-4.145-3.103-4.145-5.737c0-2.214,1.223-4.225,3.097-5.277c1.162-7.853,6.696-13.043,14.083-13.043
			s12.922,5.19,14.083,13.043c1.874,1.054,3.097,3.063,3.097,5.277c0,2.636-1.732,4.93-4.144,5.737
			C146.313,121.279,142.004,127.243,135.207,127.243 M135.207,95.258c-6.854,0-9.777,5.474-10.229,10.592l-0.121,1.382l-1.332,0.376
			c-0.873,0.246-1.483,1.051-1.483,1.958c0,1.054,0.823,1.944,1.874,2.028l1.407,0.111l0.37,1.364
			c1.332,4.912,4.533,10.161,9.514,10.161s8.182-5.249,9.514-10.161l0.369-1.364l1.408-0.111c1.051-0.084,1.874-0.976,1.874-2.028
			c0-0.907-0.61-1.712-1.483-1.958l-1.332-0.377l-0.121-1.381C144.984,100.73,142.061,95.258,135.207,95.258"/>
	</g>
	<g>
		<defs>
			<path id="SVGID_17_" d="M46.642,42.798V65.61l0.008,49.779c0,35.68,64.601,64.603,64.601,64.603s64.601-28.923,64.601-64.603
				l0.008-49.779V42.798H46.642z"/>
		</defs>
		<clipPath id="SVGID_18_">
			<use xlink:href="#SVGID_17_"  overflow="visible"/>
		</clipPath>
		<path clip-path="url(#SVGID_18_)" fill="#944299" d="M110.352,133.058c-4.862-2.862-8.029-8.628-15.663-11.615
			c-1.932,2.166-4.39,3.569-7.315,3.569c-2.944,0-5.417-1.424-7.355-3.615c-7.648,2.974-10.892,8.783-15.779,11.661
			c-1.07,0.631-1.894,2.216-1.894,3.457l3.371,33.01h42.482l4.045-33.01C112.244,135.272,111.421,133.688,110.352,133.058"/>
	</g>
	<g>
		<defs>
			<path id="SVGID_19_" d="M46.642,42.798V65.61l0.008,49.779c0,35.68,64.601,64.603,64.601,64.603s64.601-28.923,64.601-64.603
				l0.008-49.779V42.798H46.642z"/>
		</defs>
		<clipPath id="SVGID_20_">
			<use xlink:href="#SVGID_19_"  overflow="visible"/>
		</clipPath>
		<path clip-path="url(#SVGID_20_)" fill="#191818" d="M109.957,169.022H63.92l-3.581-32.51c0-1.986,1.239-4.218,2.882-5.186
			c1.712-1.008,3.295-2.508,4.971-4.095c2.845-2.697,6.071-5.751,11.099-7.707l1.305-0.51l0.926,1.051
			c1.724,1.949,3.693,2.938,5.852,2.938c2.144,0,4.101-0.976,5.818-2.898l0.929-1.041l1.3,0.508c5.014,1.963,8.204,5,11.018,7.681
			c1.661,1.58,3.227,3.072,4.93,4.075c1.645,0.968,2.883,3.198,2.883,5.186l-0.018,0.266L109.957,169.022z M67.515,165.008h38.926
			l3.793-28.594c-0.049-0.569-0.494-1.387-0.901-1.627c-2.101-1.237-3.83-2.883-5.661-4.628c-2.413-2.297-4.899-4.665-8.511-6.336
			c-2.271,2.096-4.938,3.195-7.787,3.195c-2.87,0-5.553-1.114-7.835-3.24c-3.628,1.67-6.145,4.055-8.586,6.368
			c-1.847,1.75-3.59,3.4-5.695,4.641c-0.411,0.242-0.861,1.075-0.902,1.645L67.515,165.008z"/>
	</g>
	<g>
		<defs>
			<path id="SVGID_21_" d="M46.642,42.798V65.61l0.008,49.779c0,35.68,64.601,64.603,64.601,64.603s64.601-28.923,64.601-64.603
				l0.008-49.779V42.798H46.642z"/>
		</defs>
		<clipPath id="SVGID_22_">
			<use xlink:href="#SVGID_21_"  overflow="visible"/>
		</clipPath>
		<path clip-path="url(#SVGID_22_)" fill="#FFFFFF" d="M99.522,105.674c-0.066-0.746-0.177-1.473-0.327-2.178
			c-1.258-5.914-5.441-10.245-11.9-10.245c-6.458,0-10.641,4.331-11.899,10.245c-0.15,0.705-0.262,1.432-0.327,2.178
			c-1.699,0.479-2.946,2.038-2.946,3.892c0,2.124,1.64,3.862,3.722,4.028c1.648,6.073,5.625,11.644,11.45,11.644
			c5.826,0,9.803-5.569,11.451-11.644c2.082-0.166,3.721-1.904,3.721-4.028C102.467,107.712,101.221,106.153,99.522,105.674"/>
	</g>
	<g>
		<defs>
			<path id="SVGID_23_" d="M46.642,42.798V65.61l0.008,49.779c0,35.68,64.601,64.603,64.601,64.603s64.601-28.923,64.601-64.603
				l0.008-49.779V42.798H46.642z"/>
		</defs>
		<clipPath id="SVGID_24_">
			<use xlink:href="#SVGID_23_"  overflow="visible"/>
		</clipPath>
		<path clip-path="url(#SVGID_24_)" fill="#FFFFFF" d="M75.069,105.674c0.066-0.746,0.177-1.473,0.327-2.178
			c0.734-3.451,2.466-6.361,5.063-8.188c2.628,10.412,14.548,11.438,20.662,11.25c0.825,0.739,1.347,1.811,1.347,3.008
			c0,2.124-1.64,3.862-3.722,4.028c-1.648,6.073-5.625,11.644-11.45,11.644c-5.826,0-9.803-5.569-11.451-11.644
			c-2.082-0.166-3.721-1.904-3.721-4.028C72.124,107.712,73.37,106.153,75.069,105.674"/>
	</g>
	<g>
		<defs>
			<path id="SVGID_25_" d="M46.642,42.798V65.61l0.008,49.779c0,35.68,64.601,64.603,64.601,64.603s64.601-28.923,64.601-64.603
				l0.008-49.779V42.798H46.642z"/>
		</defs>
		<clipPath id="SVGID_26_">
			<use xlink:href="#SVGID_25_"  overflow="visible"/>
		</clipPath>
		<path clip-path="url(#SVGID_26_)" fill="#944299" d="M95.1,95.308c-1.854-1.304-4.147-2.057-6.837-2.057
			c-6.459,0-10.642,4.33-11.9,10.244c-0.15,0.706-0.261,1.433-0.326,2.179c-0.603,0.17-1.146,0.478-1.599,0.883
			C80.551,106.744,92.471,105.72,95.1,95.308"/>
	</g>
	<g>
		<defs>
			<path id="SVGID_27_" d="M46.642,42.798V65.61l0.008,49.779c0,35.68,64.601,64.603,64.601,64.603s64.601-28.923,64.601-64.603
				l0.008-49.779V42.798H46.642z"/>
		</defs>
		<clipPath id="SVGID_28_">
			<use xlink:href="#SVGID_27_"  overflow="visible"/>
		</clipPath>
		<path clip-path="url(#SVGID_28_)" fill="#191818" d="M87.295,127.243c-6.796,0-11.106-5.964-13.036-11.94
			c-2.41-0.809-4.143-3.103-4.143-5.737c0-2.214,1.222-4.225,3.096-5.277c1.162-7.853,6.697-13.043,14.083-13.043
			c7.386,0,12.921,5.19,14.083,13.043c1.874,1.054,3.096,3.063,3.096,5.277c0,2.636-1.733,4.93-4.143,5.737
			C98.401,121.279,94.09,127.243,87.295,127.243 M87.295,95.258c-6.854,0-9.777,5.474-10.228,10.592l-0.121,1.381l-1.333,0.377
			c-0.873,0.246-1.483,1.051-1.483,1.958c0,1.054,0.823,1.944,1.874,2.028l1.408,0.111l0.369,1.364
			c1.333,4.912,4.533,10.161,9.514,10.161s8.181-5.249,9.514-10.161l0.37-1.364l1.407-0.111c1.051-0.084,1.875-0.976,1.875-2.028
			c0-0.907-0.611-1.712-1.484-1.958l-1.333-0.376l-0.121-1.382C97.072,100.73,94.149,95.258,87.295,95.258"/>
	</g>
	<g>
		<defs>
			<path id="SVGID_29_" d="M46.642,42.798V65.61l0.008,49.779c0,35.68,64.601,64.603,64.601,64.603s64.601-28.923,64.601-64.603
				l0.008-49.779V42.798H46.642z"/>
		</defs>
		<clipPath id="SVGID_30_">
			<use xlink:href="#SVGID_29_"  overflow="visible"/>
		</clipPath>
		<path clip-path="url(#SVGID_30_)" fill="#CE96C3" d="M143.24,134.699c-6.746-3.973-11.141-11.973-21.73-16.116
			c-2.681,3.006-6.092,4.953-10.148,4.953c-4.085,0-7.515-1.977-10.206-5.019c-10.612,4.127-15.112,12.188-21.893,16.182
			c-1.484,0.875-2.628,3.074-2.628,4.797l4.678,44.576h58.941l5.614-44.576C145.868,137.773,144.725,135.574,143.24,134.699"/>
	</g>
	<g>
		<defs>
			<path id="SVGID_31_" d="M46.642,42.798V65.61l0.008,49.779c0,35.68,64.601,64.603,64.601,64.603s64.601-28.923,64.601-64.603
				l0.008-49.779V42.798H46.642z"/>
		</defs>
		<clipPath id="SVGID_32_">
			<use xlink:href="#SVGID_31_"  overflow="visible"/>
		</clipPath>
		<path clip-path="url(#SVGID_32_)" fill="#191818" d="M142.043,186.101H79.487l-4.88-46.604c0-2.513,1.559-5.325,3.626-6.543
			c2.449-1.44,4.676-3.552,7.033-5.785c3.898-3.691,8.315-7.878,15.155-10.538l1.317-0.512l0.936,1.059
			c2.542,2.875,5.465,4.334,8.688,4.334c3.199,0,6.105-1.438,8.637-4.276l0.938-1.052l1.313,0.514
			c6.819,2.669,11.187,6.83,15.04,10.498c2.336,2.224,4.541,4.324,6.979,5.76c2.068,1.218,3.629,4.031,3.629,6.543l-0.018,0.253
			L142.043,186.101z M83.138,182.045h55.329l5.372-42.655c-0.052-1.048-0.832-2.476-1.627-2.942
			c-2.841-1.672-5.209-3.929-7.718-6.317c-3.496-3.329-7.104-6.765-12.48-9.143c-3.089,3-6.744,4.578-10.652,4.578
			c-3.937,0-7.615-1.601-10.716-4.642c-5.401,2.375-9.051,5.834-12.59,9.188c-2.529,2.396-4.918,4.661-7.764,6.336
			c-0.799,0.471-1.585,1.911-1.628,2.96L83.138,182.045z"/>
	</g>
	<g>
		<defs>
			<path id="SVGID_33_" d="M46.642,42.798V65.61l0.008,49.779c0,35.68,64.601,64.603,64.601,64.603s64.601-28.923,64.601-64.603
				l0.008-49.779V42.798H46.642z"/>
		</defs>
		<clipPath id="SVGID_34_">
			<use xlink:href="#SVGID_33_"  overflow="visible"/>
		</clipPath>
		<polygon clip-path="url(#SVGID_34_)" fill="#FFFFFF" points="102.221,122.363 120.281,122.363 111.251,140.425 		"/>
	</g>
	<g>
		<defs>
			<path id="SVGID_35_" d="M46.642,42.798V65.61l0.008,49.779c0,35.68,64.601,64.603,64.601,64.603s64.601-28.923,64.601-64.603
				l0.008-49.779V42.798H46.642z"/>
		</defs>
		<clipPath id="SVGID_36_">
			<use xlink:href="#SVGID_35_"  overflow="visible"/>
		</clipPath>
		<path clip-path="url(#SVGID_36_)" fill="#FFFFFF" d="M128.215,96.705c-0.091-1.035-0.244-2.043-0.453-3.022
			c-1.746-8.206-7.549-14.214-16.511-14.214c-8.961,0-14.765,6.008-16.511,14.214c-0.208,0.979-0.362,1.987-0.453,3.022
			c-2.357,0.666-4.087,2.828-4.087,5.397c0,2.947,2.274,5.36,5.164,5.592c2.286,8.425,7.804,16.152,15.887,16.152
			c8.082,0,13.601-7.729,15.888-16.152c2.891-0.23,5.164-2.645,5.164-5.592C132.303,99.533,130.572,97.371,128.215,96.705"/>
	</g>
	<g>
		<defs>
			<path id="SVGID_37_" d="M46.642,42.798V65.61l0.008,49.779c0,35.68,64.601,64.603,64.601,64.603s64.601-28.923,64.601-64.603
				l0.008-49.779V42.798H46.642z"/>
		</defs>
		<clipPath id="SVGID_38_">
			<use xlink:href="#SVGID_37_"  overflow="visible"/>
		</clipPath>
		<path clip-path="url(#SVGID_38_)" fill="#FFFFFF" d="M128.215,96.705c-0.091-1.035-0.244-2.043-0.453-3.022
			c-1.019-4.788-3.422-8.824-7.023-11.358c-3.647,14.445-20.187,15.867-28.668,15.606c-1.145,1.026-1.869,2.514-1.869,4.173
			c0,2.947,2.274,5.36,5.164,5.592c2.286,8.425,7.804,16.152,15.887,16.152c8.082,0,13.602-7.729,15.889-16.152
			c2.89-0.23,5.164-2.645,5.164-5.592C132.303,99.533,130.572,97.371,128.215,96.705"/>
	</g>
	<g>
		<defs>
			<path id="SVGID_39_" d="M46.642,42.798V65.61l0.008,49.779c0,35.68,64.601,64.603,64.601,64.603s64.601-28.923,64.601-64.603
				l0.008-49.779V42.798H46.642z"/>
		</defs>
		<clipPath id="SVGID_40_">
			<use xlink:href="#SVGID_39_"  overflow="visible"/>
		</clipPath>
		<path clip-path="url(#SVGID_40_)" fill="#CE96C3" d="M120.736,82.322c-2.571-1.81-5.754-2.854-9.485-2.854
			c-8.961,0-14.765,6.008-16.511,14.214c-0.208,0.979-0.362,1.987-0.453,3.022c-0.835,0.235-1.589,0.662-2.218,1.226
			C100.551,98.189,117.09,96.77,120.736,82.322"/>
	</g>
	<g>
		<defs>
			<path id="SVGID_41_" d="M46.642,42.798V65.61l0.008,49.779c0,35.68,64.601,64.603,64.601,64.603s64.601-28.923,64.601-64.603
				l0.008-49.779V42.798H46.642z"/>
		</defs>
		<clipPath id="SVGID_42_">
			<use xlink:href="#SVGID_41_"  overflow="visible"/>
		</clipPath>
		<path clip-path="url(#SVGID_42_)" fill="#191818" d="M111.251,125.875c-9.162,0-14.952-8.262-17.484-16.416
			c-3.231-0.904-5.594-3.896-5.594-7.356c0-2.919,1.685-5.558,4.233-6.833c1.432-10.875,8.718-17.827,18.845-17.827
			s17.413,6.952,18.845,17.827c2.549,1.275,4.233,3.914,4.233,6.833c0,3.46-2.362,6.452-5.595,7.356
			C126.203,117.613,120.413,125.875,111.251,125.875 M111.251,81.496c-8.256,0-14.123,6.039-14.944,15.388l-0.123,1.394l-1.347,0.38
			c-1.536,0.435-2.609,1.852-2.609,3.446c0,1.854,1.447,3.423,3.296,3.57l1.423,0.111l0.373,1.377
			c1.923,7.087,6.592,14.658,13.931,14.658s12.009-7.571,13.931-14.658l0.373-1.377l1.424-0.111c1.85-0.147,3.295-1.716,3.295-3.57
			c0-1.596-1.071-3.013-2.607-3.446l-1.348-0.38l-0.122-1.394C125.374,87.535,119.507,81.496,111.251,81.496"/>
	</g>
</g>
<path fill="#1A1A19" d="M175.859,43.3V30.947c0-3.459-2.803-6.263-6.262-6.263h-18.837l-39.065-10.952L73.934,24.685h-21.03
	c-3.459,0-6.262,2.804-6.262,6.263v28.881v6.282l0.008,49.78c0,35.678,64.601,64.601,64.601,64.601s64.601-28.923,64.601-64.601
	l0.008-49.78V43.3z M168.326,115.892c0,8.39-5.031,22.042-28.997,39.444c-11.291,8.199-22.753,14.198-28.08,16.821
	c-5.288-2.602-16.62-8.528-27.886-16.684C59.24,138.012,54.176,124.31,54.176,115.89L54.168,66.11v-6.282h114.166v6.281
	L168.326,115.892z"/>
<polygon fill="#FFFFFF" points="111.131,50.698 111.131,35.827 108.09,38.987 105.773,36.55 111.673,30.618 115.195,30.618 
	115.195,50.698 "/>
<polygon fill="#CE96C3" points="80.357,38.659 68.617,41.368 57.781,38.659 57.781,32.338 68.617,35.047 80.357,32.338 "/>
<polygon fill="#CE96C3" points="80.357,47.689 68.617,50.398 57.781,47.689 57.781,41.369 68.617,44.078 80.357,41.369 "/>
<polygon fill="#CE96C3" points="164.721,38.659 152.98,41.368 142.146,38.659 142.146,32.338 152.98,35.047 164.721,32.338 "/>
<polygon fill="#CE96C3" points="164.721,47.689 152.98,50.398 142.146,47.689 142.146,41.369 152.98,44.078 164.721,41.369 "/>
</svg>
