<?xml version="1.0" encoding="utf-8"?>
<!-- Generator: Adobe Illustrator 16.0.0, SVG Export Plug-In . SVG Version: 6.00 Build 0)  -->
<!DOCTYPE svg PUBLIC "-//W3C//DTD SVG 1.1//EN" "http://www.w3.org/Graphics/SVG/1.1/DTD/svg11.dtd">
<svg version="1.1" id="Layer_1" xmlns="http://www.w3.org/2000/svg" xmlns:xlink="http://www.w3.org/1999/xlink" x="0px" y="0px"
	 width="215px" height="195px" viewBox="0 0 215 195" enable-background="new 0 0 215 195" xml:space="preserve">
<path fill="#1A1A19" d="M128.529,165.387c-10.387,6.445-19.063,10.538-20.965,11.416c-1.905-0.878-10.58-4.971-20.967-11.416v0.492
	c-0.003-0.002,0.004-0.006,0-0.008v15.052c11.415,7.013,20.568,11.111,20.568,11.111l0.399-0.001l0.399,0.001
	c0,0,9.152-4.1,20.566-11.111v-15.052c-0.004,0.002,0.004,0.006,0,0.008V165.387L128.529,165.387z"/>
<path fill="#1A1A19" d="M83.281,164.249c-9.748-6.171-20.759-14.313-29.014-23.745v15.052c8.118,9.568,19.145,17.857,29.014,24.17
	v-15.052c-0.004-0.002,0.003-0.005,0-0.007V164.249z"/>
<path fill="#FFFFFF" d="M131.846,164.249v0.418c-0.004,0.002,0.004,0.005,0,0.007v15.052c9.869-6.313,20.896-14.602,29.016-24.17
	v-15.052C152.604,149.938,141.594,158.078,131.846,164.249"/>
<path fill="#CE96C3" d="M44.243,40.151v19.896l0.008,48.789c0,34.966,63.313,63.313,63.313,63.313s63.313-28.348,63.313-63.313
	l0.008-48.789V40.151H44.243z"/>
<g opacity="0.5">
	<g>
		<g>
			<defs>
				<rect id="SVGID_1_" x="108.154" y="40.09" width="60.025" height="127.58"/>
			</defs>
			<clipPath id="SVGID_2_">
				<use xlink:href="#SVGID_1_"  overflow="visible"/>
			</clipPath>
			<path clip-path="url(#SVGID_2_)" fill="#944299" d="M108.283,167.666c5.59-2.753,17.619-9.048,29.468-17.652
				c9.19-6.674,16.454-13.391,21.588-19.966c5.866-7.514,8.841-14.723,8.841-21.427V61.396V40.091h-60.025v127.511
				C108.197,167.623,108.242,167.646,108.283,167.666"/>
		</g>
	</g>
</g>
<g opacity="0.4">
	<g>
		<g>
			<defs>
				<rect id="SVGID_3_" x="42.955" y="36.3" width="129.217" height="137.19"/>
			</defs>
			<clipPath id="SVGID_4_">
				<use xlink:href="#SVGID_3_"  overflow="visible"/>
			</clipPath>
			<path clip-path="url(#SVGID_4_)" fill="#FFFFFF" d="M158.375,50.097v9.013l-0.008,49.782c0,18.216-31.199,39.306-50.76,49.273
				c-5.696-2.925-14.985-8.062-24.254-14.771c-17.149-12.412-26.594-24.667-26.594-34.505L56.751,59.11v-9.015L158.375,50.097
				 M172.172,36.3H42.955v22.812l0.009,49.78c0,35.678,64.6,64.601,64.6,64.601s64.601-28.923,64.601-64.601l0.008-49.78
				L172.172,36.3L172.172,36.3z"/>
		</g>
	</g>
</g>
<g>
	<g>
		<defs>
			<path id="SVGID_5_" d="M42.956,35.798V58.61l0.008,49.779c0,35.68,64.601,64.603,64.601,64.603s64.6-28.923,64.6-64.603
				l0.008-49.779V35.798H42.956z"/>
		</defs>
		<clipPath id="SVGID_6_">
			<use xlink:href="#SVGID_5_"  overflow="visible"/>
		</clipPath>
		<path clip-path="url(#SVGID_6_)" fill="#944299" d="M154.575,126.058c-4.862-2.862-8.028-8.628-15.662-11.615
			c-1.933,2.166-4.39,3.569-7.315,3.569c-2.942,0-5.416-1.424-7.354-3.615c-7.646,2.974-10.893,8.783-15.779,11.661
			c-1.07,0.631-1.894,2.216-1.894,3.457l3.371,30.5h42.482l4.045-30.5C156.469,128.272,155.646,126.688,154.575,126.058"/>
	</g>
	<g>
		<defs>
			<path id="SVGID_7_" d="M42.956,35.798V58.61l0.008,49.779c0,35.68,64.601,64.603,64.601,64.603s64.6-28.923,64.6-64.603
				l0.008-49.779V35.798H42.956z"/>
		</defs>
		<clipPath id="SVGID_8_">
			<use xlink:href="#SVGID_7_"  overflow="visible"/>
		</clipPath>
		<path clip-path="url(#SVGID_8_)" fill="#191818" d="M154.182,162.022h-46.037l-3.582-32.51c0-1.986,1.239-4.218,2.883-5.186
			c1.711-1.008,3.294-2.508,4.971-4.095c2.845-2.697,6.069-5.751,11.099-7.707l1.305-0.51l0.928,1.051
			c1.725,1.949,3.691,2.938,5.852,2.938c2.145,0,4.102-0.976,5.817-2.898l0.929-1.041l1.301,0.508c5.016,1.963,8.203,5,11.02,7.681
			c1.658,1.58,3.227,3.072,4.93,4.075c1.643,0.968,2.883,3.198,2.883,5.186l-0.018,0.266L154.182,162.022z M111.739,158.008h38.926
			l3.793-28.594c-0.05-0.569-0.493-1.387-0.901-1.627c-2.1-1.237-3.83-2.883-5.66-4.628c-2.412-2.297-4.898-4.665-8.512-6.336
			c-2.271,2.096-4.938,3.195-7.785,3.195c-2.871,0-5.555-1.114-7.836-3.24c-3.629,1.67-6.145,4.055-8.587,6.368
			c-1.846,1.75-3.59,3.4-5.694,4.641c-0.412,0.242-0.861,1.075-0.902,1.645L111.739,158.008z"/>
	</g>
	<g>
		<defs>
			<path id="SVGID_9_" d="M42.956,35.798V58.61l0.008,49.779c0,35.68,64.601,64.603,64.601,64.603s64.6-28.923,64.6-64.603
				l0.008-49.779V35.798H42.956z"/>
		</defs>
		<clipPath id="SVGID_10_">
			<use xlink:href="#SVGID_9_"  overflow="visible"/>
		</clipPath>
		<path clip-path="url(#SVGID_10_)" fill="#FFFFFF" d="M143.746,98.674c-0.066-0.746-0.178-1.473-0.327-2.178
			c-1.258-5.914-5.44-10.245-11.899-10.245s-10.642,4.331-11.898,10.245c-0.148,0.705-0.262,1.432-0.327,2.178
			c-1.698,0.479-2.944,2.038-2.944,3.892c0,2.124,1.64,3.862,3.721,4.028c1.647,6.073,5.625,11.644,11.451,11.644
			s9.803-5.569,11.451-11.644c2.082-0.166,3.721-1.904,3.721-4.028C146.691,100.712,145.445,99.153,143.746,98.674"/>
	</g>
	<g>
		<defs>
			<path id="SVGID_11_" d="M42.956,35.798V58.61l0.008,49.779c0,35.68,64.601,64.603,64.601,64.603s64.6-28.923,64.6-64.603
				l0.008-49.779V35.798H42.956z"/>
		</defs>
		<clipPath id="SVGID_12_">
			<use xlink:href="#SVGID_11_"  overflow="visible"/>
		</clipPath>
		<path clip-path="url(#SVGID_12_)" fill="#FFFFFF" d="M119.293,98.674c0.066-0.746,0.178-1.473,0.327-2.178
			c0.733-3.451,2.466-6.361,5.063-8.188c2.627,10.412,14.547,11.438,20.661,11.25c0.824,0.739,1.347,1.811,1.347,3.008
			c0,2.124-1.64,3.862-3.722,4.028c-1.647,6.073-5.625,11.644-11.45,11.644c-5.826,0-9.804-5.569-11.451-11.644
			c-2.082-0.166-3.721-1.904-3.721-4.028C116.348,100.712,117.594,99.153,119.293,98.674"/>
	</g>
	<g>
		<defs>
			<path id="SVGID_13_" d="M42.956,35.798V58.61l0.008,49.779c0,35.68,64.601,64.603,64.601,64.603s64.6-28.923,64.6-64.603
				l0.008-49.779V35.798H42.956z"/>
		</defs>
		<clipPath id="SVGID_14_">
			<use xlink:href="#SVGID_13_"  overflow="visible"/>
		</clipPath>
		<path clip-path="url(#SVGID_14_)" fill="#944299" d="M124.182,88.308c1.854-1.304,4.146-2.057,6.836-2.057
			c6.459,0,10.644,4.33,11.9,10.244c0.15,0.706,0.262,1.433,0.326,2.179c0.604,0.17,1.146,0.478,1.6,0.883
			C138.73,99.744,126.809,98.72,124.182,88.308"/>
	</g>
	<g>
		<defs>
			<path id="SVGID_15_" d="M42.956,35.798V58.61l0.008,49.779c0,35.68,64.601,64.603,64.601,64.603s64.6-28.923,64.6-64.603
				l0.008-49.779V35.798H42.956z"/>
		</defs>
		<clipPath id="SVGID_16_">
			<use xlink:href="#SVGID_15_"  overflow="visible"/>
		</clipPath>
		<path clip-path="url(#SVGID_16_)" fill="#191818" d="M131.52,120.243c-6.795,0-11.104-5.964-13.035-11.94
			c-2.409-0.809-4.144-3.103-4.144-5.737c0-2.214,1.222-4.225,3.097-5.277c1.162-7.853,6.696-13.043,14.082-13.043
			c7.388,0,12.922,5.19,14.084,13.043c1.873,1.054,3.097,3.063,3.097,5.277c0,2.636-1.733,4.93-4.144,5.737
			C142.625,114.279,138.314,120.243,131.52,120.243 M131.52,88.258c-6.854,0-9.776,5.474-10.229,10.592l-0.12,1.381l-1.333,0.377
			c-0.873,0.246-1.482,1.051-1.482,1.958c0,1.054,0.822,1.944,1.873,2.028l1.407,0.111l0.37,1.364
			c1.333,4.912,4.533,10.161,9.514,10.161c4.981,0,8.183-5.249,9.515-10.161l0.37-1.364l1.406-0.111
			c1.051-0.084,1.875-0.976,1.875-2.028c0-0.907-0.61-1.712-1.483-1.958l-1.332-0.377l-0.121-1.381
			C141.297,93.73,138.373,88.258,131.52,88.258"/>
	</g>
	<g>
		<defs>
			<path id="SVGID_17_" d="M42.956,35.798V58.61l0.008,49.779c0,35.68,64.601,64.603,64.601,64.603s64.6-28.923,64.6-64.603
				l0.008-49.779V35.798H42.956z"/>
		</defs>
		<clipPath id="SVGID_18_">
			<use xlink:href="#SVGID_17_"  overflow="visible"/>
		</clipPath>
		<path clip-path="url(#SVGID_18_)" fill="#944299" d="M106.664,126.058c-4.862-2.862-8.029-8.628-15.661-11.615
			c-1.933,2.166-4.391,3.569-7.316,3.569c-2.944,0-5.417-1.424-7.355-3.615c-7.648,2.974-10.892,8.783-15.779,11.661
			c-1.07,0.631-1.894,2.216-1.894,3.457l3.371,33.01h42.482l4.047-33.01C108.559,128.272,107.733,126.688,106.664,126.058"/>
	</g>
	<g>
		<defs>
			<path id="SVGID_19_" d="M42.956,35.798V58.61l0.008,49.779c0,35.68,64.601,64.603,64.601,64.603s64.6-28.923,64.6-64.603
				l0.008-49.779V35.798H42.956z"/>
		</defs>
		<clipPath id="SVGID_20_">
			<use xlink:href="#SVGID_19_"  overflow="visible"/>
		</clipPath>
		<path clip-path="url(#SVGID_20_)" fill="#191818" d="M106.269,162.022H60.232l-3.581-32.51c0-1.986,1.239-4.218,2.883-5.186
			c1.711-1.008,3.294-2.508,4.97-4.094c2.845-2.697,6.071-5.752,11.1-7.708l1.304-0.51l0.927,1.051
			c1.723,1.949,3.692,2.938,5.851,2.938c2.144,0,4.102-0.976,5.818-2.898l0.929-1.04l1.3,0.507c5.014,1.963,8.204,5,11.018,7.681
			c1.66,1.58,3.228,3.072,4.93,4.075c1.644,0.968,2.883,3.198,2.883,5.186l-0.019,0.266L106.269,162.022z M63.827,158.008h38.926
			l3.793-28.594c-0.049-0.569-0.494-1.387-0.901-1.627c-2.101-1.237-3.83-2.883-5.661-4.628c-2.413-2.297-4.899-4.665-8.511-6.336
			c-2.271,2.096-4.938,3.195-7.787,3.195c-2.87,0-5.553-1.114-7.834-3.24c-3.629,1.67-6.146,4.055-8.587,6.369
			c-1.847,1.749-3.59,3.399-5.694,4.64c-0.412,0.242-0.862,1.075-0.903,1.645L63.827,158.008z"/>
	</g>
	<g>
		<defs>
			<path id="SVGID_21_" d="M42.956,35.798V58.61l0.008,49.779c0,35.68,64.601,64.603,64.601,64.603s64.6-28.923,64.6-64.603
				l0.008-49.779V35.798H42.956z"/>
		</defs>
		<clipPath id="SVGID_22_">
			<use xlink:href="#SVGID_21_"  overflow="visible"/>
		</clipPath>
		<path clip-path="url(#SVGID_22_)" fill="#FFFFFF" d="M95.834,98.674c-0.066-0.746-0.177-1.473-0.327-2.178
			c-1.258-5.914-5.441-10.245-11.9-10.245c-6.458,0-10.641,4.331-11.899,10.245c-0.15,0.705-0.262,1.432-0.327,2.178
			c-1.699,0.479-2.946,2.038-2.946,3.892c0,2.124,1.64,3.862,3.722,4.028c1.648,6.073,5.625,11.644,11.45,11.644
			c5.826,0,9.803-5.569,11.451-11.644c2.082-0.166,3.721-1.904,3.721-4.028C98.779,100.712,97.533,99.153,95.834,98.674"/>
	</g>
	<g>
		<defs>
			<path id="SVGID_23_" d="M42.956,35.798V58.61l0.008,49.779c0,35.68,64.601,64.603,64.601,64.603s64.6-28.923,64.6-64.603
				l0.008-49.779V35.798H42.956z"/>
		</defs>
		<clipPath id="SVGID_24_">
			<use xlink:href="#SVGID_23_"  overflow="visible"/>
		</clipPath>
		<path clip-path="url(#SVGID_24_)" fill="#FFFFFF" d="M71.381,98.674c0.066-0.746,0.177-1.473,0.327-2.178
			c0.734-3.451,2.466-6.361,5.063-8.188c2.628,10.412,14.548,11.438,20.662,11.25c0.825,0.739,1.347,1.811,1.347,3.008
			c0,2.124-1.639,3.862-3.722,4.028c-1.648,6.073-5.625,11.644-11.45,11.644c-5.826,0-9.803-5.569-11.451-11.644
			c-2.082-0.166-3.721-1.904-3.721-4.028C68.436,100.712,69.682,99.153,71.381,98.674"/>
	</g>
	<g>
		<defs>
			<path id="SVGID_25_" d="M42.956,35.798V58.61l0.008,49.779c0,35.68,64.601,64.603,64.601,64.603s64.6-28.923,64.6-64.603
				l0.008-49.779V35.798H42.956z"/>
		</defs>
		<clipPath id="SVGID_26_">
			<use xlink:href="#SVGID_25_"  overflow="visible"/>
		</clipPath>
		<path clip-path="url(#SVGID_26_)" fill="#944299" d="M91.413,88.308c-1.854-1.304-4.147-2.057-6.837-2.057
			c-6.459,0-10.642,4.33-11.9,10.244c-0.15,0.706-0.261,1.433-0.326,2.179c-0.603,0.17-1.146,0.478-1.599,0.883
			C76.864,99.744,88.784,98.72,91.413,88.308"/>
	</g>
	<g>
		<defs>
			<path id="SVGID_27_" d="M42.956,35.798V58.61l0.008,49.779c0,35.68,64.601,64.603,64.601,64.603s64.6-28.923,64.6-64.603
				l0.008-49.779V35.798H42.956z"/>
		</defs>
		<clipPath id="SVGID_28_">
			<use xlink:href="#SVGID_27_"  overflow="visible"/>
		</clipPath>
		<path clip-path="url(#SVGID_28_)" fill="#191818" d="M83.608,120.243c-6.796,0-11.107-5.964-13.036-11.94
			c-2.41-0.809-4.143-3.103-4.143-5.737c0-2.214,1.222-4.225,3.096-5.277c1.162-7.853,6.697-13.043,14.083-13.043
			c7.386,0,12.921,5.19,14.083,13.043c1.874,1.054,3.096,3.063,3.096,5.277c0,2.636-1.733,4.93-4.143,5.737
			C94.714,114.279,90.404,120.243,83.608,120.243 M83.608,88.258c-6.854,0-9.777,5.474-10.228,10.592l-0.121,1.382l-1.333,0.376
			c-0.873,0.246-1.484,1.051-1.484,1.958c0,1.054,0.824,1.944,1.875,2.028l1.407,0.111l0.37,1.364
			c1.333,4.912,4.532,10.161,9.514,10.161c4.981,0,8.181-5.249,9.514-10.161l0.369-1.364l1.408-0.111
			c1.051-0.084,1.874-0.976,1.874-2.028c0-0.907-0.61-1.712-1.484-1.958l-1.333-0.376l-0.121-1.382
			C93.385,93.73,90.462,88.258,83.608,88.258"/>
	</g>
	<g>
		<defs>
			<path id="SVGID_29_" d="M42.956,35.798V58.61l0.008,49.779c0,35.68,64.601,64.603,64.601,64.603s64.6-28.923,64.6-64.603
				l0.008-49.779V35.798H42.956z"/>
		</defs>
		<clipPath id="SVGID_30_">
			<use xlink:href="#SVGID_29_"  overflow="visible"/>
		</clipPath>
		<path clip-path="url(#SVGID_30_)" fill="#CE96C3" d="M139.553,127.699c-6.746-3.973-11.14-11.973-21.729-16.116
			c-2.681,3.006-6.091,4.953-10.148,4.953c-4.086,0-7.516-1.977-10.206-5.019c-10.612,4.127-15.112,12.188-21.893,16.182
			c-1.484,0.875-2.628,3.074-2.628,4.797l4.678,44.576h58.94l5.615-44.576C142.182,130.773,141.037,128.574,139.553,127.699"/>
	</g>
	<g>
		<defs>
			<path id="SVGID_31_" d="M42.956,35.798V58.61l0.008,49.779c0,35.68,64.601,64.603,64.601,64.603s64.6-28.923,64.6-64.603
				l0.008-49.779V35.798H42.956z"/>
		</defs>
		<clipPath id="SVGID_32_">
			<use xlink:href="#SVGID_31_"  overflow="visible"/>
		</clipPath>
		<path clip-path="url(#SVGID_32_)" fill="#191818" d="M138.355,179.101H75.799l-4.88-46.604c0-2.513,1.559-5.325,3.627-6.543
			c2.449-1.44,4.675-3.552,7.033-5.785c3.897-3.691,8.314-7.878,15.154-10.538l1.317-0.512l0.936,1.059
			c2.542,2.875,5.465,4.334,8.687,4.334c3.2,0,6.106-1.438,8.638-4.276l0.938-1.052l1.313,0.514
			c6.819,2.669,11.188,6.83,15.041,10.499c2.336,2.223,4.541,4.323,6.979,5.759c2.067,1.218,3.628,4.031,3.628,6.543l-0.018,0.253
			L138.355,179.101z M79.45,175.045h55.329l5.371-42.655c-0.051-1.048-0.832-2.476-1.627-2.942c-2.84-1.672-5.209-3.929-7.717-6.317
			c-3.496-3.329-7.104-6.764-12.481-9.143c-3.087,3.001-6.744,4.578-10.652,4.578c-3.936,0-7.615-1.601-10.716-4.642
			c-5.401,2.375-9.051,5.834-12.59,9.188c-2.529,2.396-4.918,4.661-7.764,6.336c-0.799,0.471-1.585,1.911-1.628,2.96L79.45,175.045z
			"/>
	</g>
	<g>
		<defs>
			<path id="SVGID_33_" d="M42.956,35.798V58.61l0.008,49.779c0,35.68,64.601,64.603,64.601,64.603s64.6-28.923,64.6-64.603
				l0.008-49.779V35.798H42.956z"/>
		</defs>
		<clipPath id="SVGID_34_">
			<use xlink:href="#SVGID_33_"  overflow="visible"/>
		</clipPath>
		<polygon clip-path="url(#SVGID_34_)" fill="#FFFFFF" points="98.533,115.363 116.594,115.363 107.564,133.425 		"/>
	</g>
	<g>
		<defs>
			<path id="SVGID_35_" d="M42.956,35.798V58.61l0.008,49.779c0,35.68,64.601,64.603,64.601,64.603s64.6-28.923,64.6-64.603
				l0.008-49.779V35.798H42.956z"/>
		</defs>
		<clipPath id="SVGID_36_">
			<use xlink:href="#SVGID_35_"  overflow="visible"/>
		</clipPath>
		<path clip-path="url(#SVGID_36_)" fill="#FFFFFF" d="M124.527,89.705c-0.092-1.035-0.244-2.043-0.453-3.022
			c-1.746-8.206-7.549-14.214-16.511-14.214c-8.961,0-14.765,6.008-16.511,14.214c-0.208,0.979-0.362,1.987-0.453,3.022
			c-2.357,0.666-4.087,2.828-4.087,5.397c0,2.947,2.274,5.36,5.164,5.592c2.286,8.425,7.804,16.152,15.887,16.152
			c8.082,0,13.601-7.729,15.888-16.152c2.89-0.23,5.164-2.645,5.164-5.592C128.615,92.533,126.885,90.371,124.527,89.705"/>
	</g>
	<g>
		<defs>
			<path id="SVGID_37_" d="M42.956,35.798V58.61l0.008,49.779c0,35.68,64.601,64.603,64.601,64.603s64.6-28.923,64.6-64.603
				l0.008-49.779V35.798H42.956z"/>
		</defs>
		<clipPath id="SVGID_38_">
			<use xlink:href="#SVGID_37_"  overflow="visible"/>
		</clipPath>
		<path clip-path="url(#SVGID_38_)" fill="#FFFFFF" d="M124.527,89.705c-0.092-1.035-0.244-2.043-0.453-3.022
			c-1.02-4.788-3.422-8.824-7.024-11.358c-3.647,14.445-20.186,15.867-28.668,15.606c-1.145,1.026-1.869,2.514-1.869,4.173
			c0,2.947,2.274,5.36,5.164,5.592c2.286,8.425,7.804,16.152,15.887,16.152c8.083,0,13.601-7.729,15.888-16.152
			c2.889-0.23,5.164-2.645,5.164-5.592C128.615,92.533,126.885,90.371,124.527,89.705"/>
	</g>
	<g>
		<defs>
			<path id="SVGID_39_" d="M42.956,35.798V58.61l0.008,49.779c0,35.68,64.601,64.603,64.601,64.603s64.6-28.923,64.6-64.603
				l0.008-49.779V35.798H42.956z"/>
		</defs>
		<clipPath id="SVGID_40_">
			<use xlink:href="#SVGID_39_"  overflow="visible"/>
		</clipPath>
		<path clip-path="url(#SVGID_40_)" fill="#CE96C3" d="M117.05,75.322c-2.571-1.81-5.754-2.854-9.486-2.854
			c-8.961,0-14.765,6.008-16.511,14.214c-0.208,0.979-0.362,1.987-0.453,3.022c-0.835,0.235-1.589,0.662-2.218,1.226
			C96.864,91.189,113.402,89.77,117.05,75.322"/>
	</g>
	<g>
		<defs>
			<path id="SVGID_41_" d="M42.956,35.798V58.61l0.008,49.779c0,35.68,64.601,64.603,64.601,64.603s64.6-28.923,64.6-64.603
				l0.008-49.779V35.798H42.956z"/>
		</defs>
		<clipPath id="SVGID_42_">
			<use xlink:href="#SVGID_41_"  overflow="visible"/>
		</clipPath>
		<path clip-path="url(#SVGID_42_)" fill="#191818" d="M107.563,118.875c-9.162,0-14.952-8.262-17.484-16.416
			c-3.231-0.904-5.594-3.896-5.594-7.356c0-2.919,1.685-5.56,4.233-6.833c1.432-10.875,8.719-17.827,18.845-17.827
			c10.126,0,17.414,6.951,18.847,17.827c2.547,1.275,4.23,3.914,4.23,6.833c0,3.46-2.363,6.452-5.595,7.356
			C122.516,110.613,116.727,118.875,107.563,118.875 M107.563,74.496c-8.256,0-14.122,6.039-14.944,15.388l-0.123,1.394l-1.347,0.38
			c-1.536,0.435-2.609,1.852-2.609,3.446c0,1.854,1.447,3.423,3.296,3.57l1.423,0.111l0.373,1.377
			c1.923,7.087,6.592,14.658,13.931,14.658c7.339,0,12.009-7.571,13.931-14.658l0.373-1.377l1.424-0.111
			c1.85-0.147,3.295-1.716,3.295-3.57c0-1.596-1.07-3.013-2.607-3.446l-1.347-0.38l-0.123-1.394
			C121.688,80.535,115.818,74.496,107.563,74.496"/>
	</g>
</g>
<path fill="#1A1A19" d="M172.172,23.947c0-3.458-2.803-6.263-6.261-6.263h-18.838L108.008,6.732L70.247,17.685H49.216
	c-3.458,0-6.261,2.805-6.261,6.263v12.352v22.813l0.008,49.78c0,35.679,64.601,64.602,64.601,64.602s64.6-28.923,64.6-64.602
	l0.008-49.78v-6.282V23.947z M164.646,59.109l-0.008,49.781c0,8.39-5.031,22.042-28.996,39.444
	c-11.291,8.199-22.754,14.198-28.083,16.821c-5.288-2.602-16.619-8.527-27.885-16.684c-24.124-17.463-29.187-31.163-29.187-39.584
	l-0.009-49.779v-6.282h114.167V59.109z"/>
<path fill="#FFFFFF" d="M100.445,40.809l2.408-2.526c1.024,1.323,2.619,2.195,4.305,2.195c2.107,0,3.07-1.112,3.07-2.68
	c0-1.866-1.293-2.529-3.25-2.529c-0.662,0-1.566,0-1.866,0.063v-3.644c0.3,0.029,1.294,0.029,1.775,0.029
	c1.837,0,3.071-0.753,3.071-2.317c0-1.687-1.204-2.498-2.95-2.498c-1.565,0-2.98,0.722-4.004,2.017l-2.288-2.349
	c1.445-2.018,3.733-3.25,6.623-3.25c3.974,0,6.593,1.896,6.593,5.447c0,2.288-1.716,4.154-3.793,4.576
	c2.047,0.301,4.094,2.108,4.094,4.817c0,3.492-2.678,5.898-6.894,5.898C104.148,44.06,101.709,42.646,100.445,40.809"/>
<polygon fill="#FFFFFF" points="76.67,31.992 64.93,34.702 54.094,31.992 54.094,25.672 64.93,28.381 76.67,25.672 "/>
<polygon fill="#FFFFFF" points="76.67,41.023 64.93,43.732 54.094,41.023 54.094,34.702 64.93,37.411 76.67,34.702 "/>
<polygon fill="#FFFFFF" points="161.034,31.992 149.294,34.702 138.458,31.992 138.458,25.672 149.294,28.381 161.034,25.672 "/>
<polygon fill="#FFFFFF" points="161.034,41.023 149.294,43.732 138.458,41.023 138.458,34.702 149.294,37.411 161.034,34.702 "/>
</svg>
