<?xml version="1.0" encoding="utf-8"?>
<!-- Generator: Adobe Illustrator 16.0.0, SVG Export Plug-In . SVG Version: 6.00 Build 0)  -->
<!DOCTYPE svg PUBLIC "-//W3C//DTD SVG 1.1//EN" "http://www.w3.org/Graphics/SVG/1.1/DTD/svg11.dtd">
<svg version="1.1" id="Layer_1" xmlns="http://www.w3.org/2000/svg" xmlns:xlink="http://www.w3.org/1999/xlink" x="0px" y="0px"
	 width="215px" height="195px" viewBox="0 0 215 195" enable-background="new 0 0 215 195" xml:space="preserve">
<path fill="#1A1A19" d="M128.686,165.387c-10.386,6.445-19.062,10.538-20.965,11.416c-1.905-0.878-10.58-4.971-20.967-11.416v0.492
	c-0.003-0.002,0.004-0.006,0-0.008v15.052c11.415,7.013,20.568,11.111,20.568,11.111l0.399-0.001l0.399,0.001
	c0,0,9.152-4.1,20.566-11.111v-15.052c-0.004,0.002,0.004,0.006,0,0.008V165.387L128.686,165.387z"/>
<path fill="#1A1A19" d="M83.438,164.249c-9.748-6.171-20.759-14.313-29.014-23.745v15.052c8.118,9.568,19.145,17.857,29.014,24.17
	v-15.052c-0.004-0.002,0.003-0.005,0-0.007V164.249z"/>
<path fill="#1A1A19" d="M132.002,164.249v0.418c-0.004,0.002,0.004,0.005,0,0.007v15.052c9.869-6.313,20.896-14.602,29.016-24.17
	v-15.052C152.76,149.938,141.75,158.078,132.002,164.249"/>
<path fill="#CE96C3" d="M43.111,38.809v20.303l0.008,49.779c0,35.68,64.601,64.603,64.601,64.603s64.601-28.923,64.601-64.603
	l0.008-49.779V38.809H43.111z"/>
<g opacity="0.5">
	<g>
		<g>
			<defs>
				<rect id="SVGID_1_" x="108.311" y="40.09" width="60.029" height="127.58"/>
			</defs>
			<clipPath id="SVGID_2_">
				<use xlink:href="#SVGID_1_"  overflow="visible"/>
			</clipPath>
			<path clip-path="url(#SVGID_2_)" fill="#944299" d="M108.439,167.666c5.59-2.753,17.619-9.048,29.468-17.652
				c9.19-6.674,16.454-13.391,21.588-19.966c5.866-7.514,8.841-14.723,8.841-21.427V61.396V40.091h-60.025v127.511
				C108.354,167.623,108.398,167.646,108.439,167.666"/>
		</g>
	</g>
</g>
<g opacity="0.4">
	<g>
		<g>
			<defs>
				<rect id="SVGID_3_" x="43.11" y="36.3" width="129.22" height="137.19"/>
			</defs>
			<clipPath id="SVGID_4_">
				<use xlink:href="#SVGID_3_"  overflow="visible"/>
			</clipPath>
			<path clip-path="url(#SVGID_4_)" fill="#FFFFFF" d="M158.531,50.097v9.013l-0.008,49.782c0,18.216-31.199,39.306-50.76,49.273
				c-5.696-2.925-14.985-8.062-24.254-14.771c-17.149-12.412-26.594-24.667-26.594-34.505L56.907,59.11v-9.015L158.531,50.097
				 M172.328,36.3H43.111v22.812l0.009,49.78c0,35.678,64.6,64.601,64.6,64.601s64.6-28.923,64.6-64.601l0.009-49.78L172.328,36.3
				L172.328,36.3z"/>
		</g>
	</g>
</g>
<g>
	<g>
		<defs>
			<path id="SVGID_5_" d="M43.111,35.798V58.61l0.008,49.779c0,35.68,64.6,64.603,64.6,64.603s64.602-28.923,64.602-64.603
				l0.009-49.779V35.798H43.111z"/>
		</defs>
		<clipPath id="SVGID_6_">
			<use xlink:href="#SVGID_5_"  overflow="visible"/>
		</clipPath>
		<path clip-path="url(#SVGID_6_)" fill="#944299" d="M154.73,126.058c-4.861-2.862-8.027-8.628-15.66-11.615
			c-1.934,2.166-4.391,3.569-7.316,3.569c-2.943,0-5.416-1.424-7.354-3.615c-7.647,2.974-10.893,8.783-15.779,11.661
			c-1.07,0.631-1.894,2.216-1.894,3.457l3.371,30.5h42.482l4.045-30.5C156.625,128.272,155.802,126.688,154.73,126.058"/>
	</g>
	<g>
		<defs>
			<path id="SVGID_7_" d="M43.111,35.798V58.61l0.008,49.779c0,35.68,64.6,64.603,64.6,64.603s64.602-28.923,64.602-64.603
				l0.009-49.779V35.798H43.111z"/>
		</defs>
		<clipPath id="SVGID_8_">
			<use xlink:href="#SVGID_7_"  overflow="visible"/>
		</clipPath>
		<path clip-path="url(#SVGID_8_)" fill="#191818" d="M154.338,162.022H108.3l-3.581-32.51c0-1.986,1.239-4.218,2.883-5.186
			c1.71-1.008,3.294-2.508,4.971-4.095c2.845-2.697,6.069-5.751,11.099-7.707l1.305-0.51l0.928,1.051
			c1.724,1.949,3.691,2.938,5.852,2.938c2.145,0,4.102-0.976,5.816-2.898l0.93-1.041l1.3,0.508c5.017,1.963,8.204,5,11.021,7.681
			c1.658,1.58,3.227,3.072,4.93,4.075c1.643,0.968,2.882,3.198,2.882,5.186l-0.017,0.266L154.338,162.022z M111.895,158.008h38.926
			l3.793-28.594c-0.049-0.569-0.492-1.387-0.9-1.627c-2.1-1.237-3.83-2.883-5.66-4.628c-2.412-2.297-4.898-4.665-8.512-6.336
			c-2.271,2.096-4.938,3.195-7.786,3.195c-2.87,0-5.554-1.114-7.835-3.24c-3.629,1.67-6.145,4.055-8.587,6.368
			c-1.847,1.75-3.59,3.4-5.694,4.641c-0.412,0.242-0.861,1.075-0.902,1.645L111.895,158.008z"/>
	</g>
	<g>
		<defs>
			<path id="SVGID_9_" d="M43.111,35.798V58.61l0.008,49.779c0,35.68,64.6,64.603,64.6,64.603s64.602-28.923,64.602-64.603
				l0.009-49.779V35.798H43.111z"/>
		</defs>
		<clipPath id="SVGID_10_">
			<use xlink:href="#SVGID_9_"  overflow="visible"/>
		</clipPath>
		<path clip-path="url(#SVGID_10_)" fill="#FFFFFF" d="M143.902,98.674c-0.066-0.746-0.178-1.473-0.326-2.178
			c-1.26-5.914-5.441-10.245-11.9-10.245c-6.458,0-10.643,4.331-11.898,10.245c-0.149,0.705-0.262,1.432-0.327,2.178
			c-1.699,0.479-2.945,2.038-2.945,3.892c0,2.124,1.64,3.862,3.722,4.028c1.647,6.073,5.625,11.644,11.451,11.644
			c5.825,0,9.803-5.569,11.45-11.644c2.082-0.166,3.722-1.904,3.722-4.028C146.848,100.712,145.602,99.153,143.902,98.674"/>
	</g>
	<g>
		<defs>
			<path id="SVGID_11_" d="M43.111,35.798V58.61l0.008,49.779c0,35.68,64.6,64.603,64.6,64.603s64.602-28.923,64.602-64.603
				l0.009-49.779V35.798H43.111z"/>
		</defs>
		<clipPath id="SVGID_12_">
			<use xlink:href="#SVGID_11_"  overflow="visible"/>
		</clipPath>
		<path clip-path="url(#SVGID_12_)" fill="#FFFFFF" d="M119.449,98.674c0.066-0.746,0.178-1.473,0.326-2.178
			c0.733-3.451,2.467-6.361,5.063-8.188c2.627,10.412,14.548,11.438,20.662,11.25c0.824,0.739,1.347,1.811,1.347,3.008
			c0,2.124-1.64,3.862-3.722,4.028c-1.647,6.073-5.625,11.644-11.451,11.644c-5.825,0-9.803-5.569-11.45-11.644
			c-2.082-0.166-3.722-1.904-3.722-4.028C116.504,100.712,117.75,99.153,119.449,98.674"/>
	</g>
	<g>
		<defs>
			<path id="SVGID_13_" d="M43.111,35.798V58.61l0.008,49.779c0,35.68,64.6,64.603,64.6,64.603s64.602-28.923,64.602-64.603
				l0.009-49.779V35.798H43.111z"/>
		</defs>
		<clipPath id="SVGID_14_">
			<use xlink:href="#SVGID_13_"  overflow="visible"/>
		</clipPath>
		<path clip-path="url(#SVGID_14_)" fill="#944299" d="M124.338,88.308c1.854-1.304,4.146-2.057,6.836-2.057
			c6.459,0,10.643,4.33,11.9,10.244c0.15,0.706,0.262,1.433,0.326,2.179c0.604,0.17,1.146,0.478,1.6,0.883
			C138.887,99.744,126.967,98.72,124.338,88.308"/>
	</g>
	<g>
		<defs>
			<path id="SVGID_15_" d="M43.111,35.798V58.61l0.008,49.779c0,35.68,64.6,64.603,64.6,64.603s64.602-28.923,64.602-64.603
				l0.009-49.779V35.798H43.111z"/>
		</defs>
		<clipPath id="SVGID_16_">
			<use xlink:href="#SVGID_15_"  overflow="visible"/>
		</clipPath>
		<path clip-path="url(#SVGID_16_)" fill="#191818" d="M131.676,120.243c-6.796,0-11.105-5.964-13.035-11.94
			c-2.41-0.809-4.144-3.103-4.144-5.737c0-2.214,1.222-4.225,3.096-5.277c1.162-7.853,6.697-13.043,14.083-13.043
			c7.387,0,12.922,5.19,14.083,13.043c1.874,1.054,3.097,3.063,3.097,5.277c0,2.636-1.732,4.93-4.144,5.737
			C142.781,114.279,138.471,120.243,131.676,120.243 M131.676,88.258c-6.854,0-9.777,5.474-10.229,10.592l-0.121,1.381l-1.332,0.377
			c-0.873,0.246-1.483,1.051-1.483,1.958c0,1.054,0.823,1.944,1.874,2.028l1.408,0.111l0.369,1.364
			c1.333,4.912,4.533,10.161,9.514,10.161c4.981,0,8.182-5.249,9.514-10.161l0.371-1.364l1.406-0.111
			c1.051-0.084,1.875-0.976,1.875-2.028c0-0.907-0.611-1.712-1.484-1.958l-1.332-0.376l-0.121-1.382
			C141.453,93.73,138.529,88.258,131.676,88.258"/>
	</g>
	<g>
		<defs>
			<path id="SVGID_17_" d="M43.111,35.798V58.61l0.008,49.779c0,35.68,64.6,64.603,64.6,64.603s64.602-28.923,64.602-64.603
				l0.009-49.779V35.798H43.111z"/>
		</defs>
		<clipPath id="SVGID_18_">
			<use xlink:href="#SVGID_17_"  overflow="visible"/>
		</clipPath>
		<path clip-path="url(#SVGID_18_)" fill="#944299" d="M106.82,126.058c-4.862-2.862-8.029-8.628-15.661-11.615
			c-1.933,2.166-4.391,3.569-7.316,3.569c-2.944,0-5.417-1.424-7.355-3.615c-7.648,2.974-10.892,8.783-15.779,11.661
			c-1.07,0.631-1.894,2.216-1.894,3.457l3.371,33.01h42.482l4.046-33.01C108.714,128.272,107.89,126.688,106.82,126.058"/>
	</g>
	<g>
		<defs>
			<path id="SVGID_19_" d="M43.111,35.798V58.61l0.008,49.779c0,35.68,64.6,64.603,64.6,64.603s64.602-28.923,64.602-64.603
				l0.009-49.779V35.798H43.111z"/>
		</defs>
		<clipPath id="SVGID_20_">
			<use xlink:href="#SVGID_19_"  overflow="visible"/>
		</clipPath>
		<path clip-path="url(#SVGID_20_)" fill="#191818" d="M106.425,162.022H60.388l-3.581-32.51c0-1.986,1.239-4.218,2.883-5.186
			c1.711-1.008,3.294-2.508,4.971-4.095c2.845-2.696,6.07-5.751,11.099-7.707l1.304-0.51l0.927,1.051
			c1.723,1.949,3.692,2.938,5.851,2.938c2.145,0,4.102-0.976,5.818-2.898l0.929-1.041l1.3,0.508c5.014,1.963,8.204,5,11.018,7.68
			c1.66,1.581,3.228,3.073,4.93,4.076c1.644,0.968,2.883,3.198,2.883,5.186l-0.018,0.266L106.425,162.022z M63.983,158.008h38.926
			l3.793-28.594c-0.049-0.569-0.494-1.387-0.901-1.627c-2.101-1.237-3.83-2.884-5.662-4.628c-2.412-2.297-4.899-4.665-8.51-6.336
			c-2.271,2.096-4.938,3.195-7.787,3.195c-2.87,0-5.553-1.114-7.834-3.24c-3.629,1.67-6.146,4.055-8.587,6.369
			c-1.846,1.749-3.59,3.399-5.695,4.64c-0.411,0.242-0.861,1.075-0.902,1.645L63.983,158.008z"/>
	</g>
	<g>
		<defs>
			<path id="SVGID_21_" d="M43.111,35.798V58.61l0.008,49.779c0,35.68,64.6,64.603,64.6,64.603s64.602-28.923,64.602-64.603
				l0.009-49.779V35.798H43.111z"/>
		</defs>
		<clipPath id="SVGID_22_">
			<use xlink:href="#SVGID_21_"  overflow="visible"/>
		</clipPath>
		<path clip-path="url(#SVGID_22_)" fill="#FFFFFF" d="M95.991,98.674c-0.066-0.746-0.177-1.473-0.327-2.178
			c-1.258-5.914-5.441-10.245-11.9-10.245c-6.458,0-10.641,4.331-11.899,10.245c-0.149,0.705-0.261,1.432-0.327,2.178
			c-1.699,0.479-2.946,2.038-2.946,3.892c0,2.124,1.64,3.862,3.722,4.028c1.648,6.073,5.625,11.644,11.45,11.644
			c5.826,0,9.803-5.569,11.451-11.644c2.082-0.166,3.722-1.904,3.722-4.028C98.937,100.712,97.689,99.153,95.991,98.674"/>
	</g>
	<g>
		<defs>
			<path id="SVGID_23_" d="M43.111,35.798V58.61l0.008,49.779c0,35.68,64.6,64.603,64.6,64.603s64.602-28.923,64.602-64.603
				l0.009-49.779V35.798H43.111z"/>
		</defs>
		<clipPath id="SVGID_24_">
			<use xlink:href="#SVGID_23_"  overflow="visible"/>
		</clipPath>
		<path clip-path="url(#SVGID_24_)" fill="#FFFFFF" d="M71.538,98.674c0.066-0.746,0.177-1.473,0.327-2.178
			c0.734-3.451,2.466-6.361,5.063-8.188c2.628,10.412,14.548,11.438,20.662,11.25c0.825,0.739,1.347,1.811,1.347,3.008
			c0,2.124-1.64,3.862-3.722,4.028c-1.648,6.073-5.625,11.644-11.45,11.644c-5.826,0-9.803-5.569-11.451-11.644
			c-2.082-0.166-3.722-1.904-3.722-4.028C68.592,100.712,69.838,99.153,71.538,98.674"/>
	</g>
	<g>
		<defs>
			<path id="SVGID_25_" d="M43.111,35.798V58.61l0.008,49.779c0,35.68,64.6,64.603,64.6,64.603s64.602-28.923,64.602-64.603
				l0.009-49.779V35.798H43.111z"/>
		</defs>
		<clipPath id="SVGID_26_">
			<use xlink:href="#SVGID_25_"  overflow="visible"/>
		</clipPath>
		<path clip-path="url(#SVGID_26_)" fill="#944299" d="M91.569,88.308c-1.854-1.304-4.147-2.057-6.837-2.057
			c-6.459,0-10.642,4.33-11.9,10.244c-0.15,0.706-0.261,1.433-0.326,2.179c-0.603,0.17-1.146,0.478-1.599,0.883
			C77.02,99.744,88.941,98.72,91.569,88.308"/>
	</g>
	<g>
		<defs>
			<path id="SVGID_27_" d="M43.111,35.798V58.61l0.008,49.779c0,35.68,64.6,64.603,64.6,64.603s64.602-28.923,64.602-64.603
				l0.009-49.779V35.798H43.111z"/>
		</defs>
		<clipPath id="SVGID_28_">
			<use xlink:href="#SVGID_27_"  overflow="visible"/>
		</clipPath>
		<path clip-path="url(#SVGID_28_)" fill="#191818" d="M83.764,120.243c-6.796,0-11.107-5.964-13.036-11.94
			c-2.41-0.809-4.144-3.103-4.144-5.737c0-2.214,1.222-4.225,3.096-5.277c1.162-7.853,6.697-13.043,14.083-13.043
			c7.386,0,12.921,5.19,14.083,13.043c1.874,1.054,3.096,3.063,3.096,5.277c0,2.636-1.733,4.93-4.143,5.737
			C94.87,114.279,90.56,120.243,83.764,120.243 M83.764,88.258c-6.854,0-9.777,5.474-10.228,10.592l-0.121,1.382l-1.333,0.376
			c-0.873,0.246-1.484,1.051-1.484,1.958c0,1.054,0.824,1.944,1.875,2.028l1.407,0.111l0.37,1.364
			c1.333,4.912,4.532,10.161,9.514,10.161c4.981,0,8.181-5.249,9.514-10.161l0.369-1.364l1.408-0.111
			c1.051-0.084,1.874-0.976,1.874-2.028c0-0.907-0.61-1.712-1.483-1.958l-1.333-0.377l-0.121-1.381
			C93.541,93.73,90.618,88.258,83.764,88.258"/>
	</g>
	<g>
		<defs>
			<path id="SVGID_29_" d="M43.111,35.798V58.61l0.008,49.779c0,35.68,64.6,64.603,64.6,64.603s64.602-28.923,64.602-64.603
				l0.009-49.779V35.798H43.111z"/>
		</defs>
		<clipPath id="SVGID_30_">
			<use xlink:href="#SVGID_29_"  overflow="visible"/>
		</clipPath>
		<path clip-path="url(#SVGID_30_)" fill="#CE96C3" d="M139.709,127.699c-6.746-3.973-11.141-11.973-21.73-16.116
			c-2.681,3.006-6.09,4.953-10.147,4.953c-4.086,0-7.516-1.977-10.206-5.019c-10.612,4.127-15.112,12.188-21.893,16.182
			c-1.484,0.875-2.628,3.074-2.628,4.797l4.678,44.576h58.94l5.614-44.576C142.337,130.773,141.193,128.574,139.709,127.699"/>
	</g>
	<g>
		<defs>
			<path id="SVGID_31_" d="M43.111,35.798V58.61l0.008,49.779c0,35.68,64.6,64.603,64.6,64.603s64.602-28.923,64.602-64.603
				l0.009-49.779V35.798H43.111z"/>
		</defs>
		<clipPath id="SVGID_32_">
			<use xlink:href="#SVGID_31_"  overflow="visible"/>
		</clipPath>
		<path clip-path="url(#SVGID_32_)" fill="#191818" d="M138.512,179.101H75.956l-4.88-46.604c0-2.513,1.559-5.325,3.627-6.543
			c2.449-1.44,4.675-3.552,7.033-5.785c3.897-3.691,8.314-7.878,15.154-10.538l1.317-0.512l0.936,1.059
			c2.542,2.875,5.465,4.334,8.687,4.334c3.199,0,6.105-1.438,8.637-4.276l0.938-1.052l1.313,0.514
			c6.819,2.669,11.187,6.83,15.041,10.499c2.335,2.223,4.541,4.323,6.979,5.759c2.068,1.218,3.627,4.03,3.627,6.543l-0.016,0.253
			L138.512,179.101z M79.606,175.045h55.33l5.371-42.655c-0.052-1.048-0.832-2.476-1.627-2.942
			c-2.841-1.672-5.209-3.929-7.718-6.317c-3.496-3.329-7.104-6.764-12.481-9.143c-3.086,3.001-6.744,4.578-10.651,4.578
			c-3.936,0-7.615-1.601-10.716-4.642c-5.401,2.375-9.051,5.834-12.59,9.188c-2.529,2.396-4.918,4.661-7.764,6.336
			c-0.799,0.471-1.585,1.911-1.628,2.96L79.606,175.045z"/>
	</g>
	<g>
		<defs>
			<path id="SVGID_33_" d="M43.111,35.798V58.61l0.008,49.779c0,35.68,64.6,64.603,64.6,64.603s64.602-28.923,64.602-64.603
				l0.009-49.779V35.798H43.111z"/>
		</defs>
		<clipPath id="SVGID_34_">
			<use xlink:href="#SVGID_33_"  overflow="visible"/>
		</clipPath>
		<polygon clip-path="url(#SVGID_34_)" fill="#FFFFFF" points="98.689,115.363 116.75,115.363 107.72,133.425 		"/>
	</g>
	<g>
		<defs>
			<path id="SVGID_35_" d="M43.111,35.798V58.61l0.008,49.779c0,35.68,64.6,64.603,64.6,64.603s64.602-28.923,64.602-64.603
				l0.009-49.779V35.798H43.111z"/>
		</defs>
		<clipPath id="SVGID_36_">
			<use xlink:href="#SVGID_35_"  overflow="visible"/>
		</clipPath>
		<path clip-path="url(#SVGID_36_)" fill="#FFFFFF" d="M124.684,89.705c-0.091-1.035-0.244-2.043-0.453-3.022
			c-1.746-8.206-7.549-14.214-16.51-14.214c-8.962,0-14.765,6.008-16.511,14.214c-0.208,0.979-0.362,1.987-0.453,3.022
			c-2.357,0.666-4.087,2.828-4.087,5.397c0,2.947,2.274,5.36,5.164,5.592c2.286,8.425,7.804,16.152,15.887,16.152
			c8.082,0,13.602-7.729,15.887-16.152c2.89-0.23,5.164-2.645,5.164-5.592C128.771,92.533,127.041,90.371,124.684,89.705"/>
	</g>
	<g>
		<defs>
			<path id="SVGID_37_" d="M43.111,35.798V58.61l0.008,49.779c0,35.68,64.6,64.603,64.6,64.603s64.602-28.923,64.602-64.603
				l0.009-49.779V35.798H43.111z"/>
		</defs>
		<clipPath id="SVGID_38_">
			<use xlink:href="#SVGID_37_"  overflow="visible"/>
		</clipPath>
		<path clip-path="url(#SVGID_38_)" fill="#FFFFFF" d="M124.684,89.705c-0.091-1.035-0.244-2.043-0.453-3.022
			c-1.019-4.788-3.422-8.824-7.023-11.358c-3.646,14.445-20.186,15.867-28.668,15.606c-1.145,1.026-1.869,2.514-1.869,4.173
			c0,2.947,2.274,5.36,5.164,5.592c2.286,8.425,7.804,16.152,15.887,16.152c8.082,0,13.602-7.729,15.888-16.152
			c2.889-0.23,5.164-2.645,5.164-5.592C128.771,92.533,127.041,90.371,124.684,89.705"/>
	</g>
	<g>
		<defs>
			<path id="SVGID_39_" d="M43.111,35.798V58.61l0.008,49.779c0,35.68,64.6,64.603,64.6,64.603s64.602-28.923,64.602-64.603
				l0.009-49.779V35.798H43.111z"/>
		</defs>
		<clipPath id="SVGID_40_">
			<use xlink:href="#SVGID_39_"  overflow="visible"/>
		</clipPath>
		<path clip-path="url(#SVGID_40_)" fill="#CE96C3" d="M117.206,75.322c-2.572-1.81-5.754-2.854-9.486-2.854
			c-8.961,0-14.765,6.008-16.511,14.214c-0.208,0.979-0.362,1.987-0.453,3.022c-0.835,0.235-1.589,0.662-2.218,1.226
			C97.02,91.189,113.559,89.77,117.206,75.322"/>
	</g>
	<g>
		<defs>
			<path id="SVGID_41_" d="M43.111,35.798V58.61l0.008,49.779c0,35.68,64.6,64.603,64.6,64.603s64.602-28.923,64.602-64.603
				l0.009-49.779V35.798H43.111z"/>
		</defs>
		<clipPath id="SVGID_42_">
			<use xlink:href="#SVGID_41_"  overflow="visible"/>
		</clipPath>
		<path clip-path="url(#SVGID_42_)" fill="#191818" d="M107.72,118.875c-9.162,0-14.952-8.262-17.484-16.416
			c-3.231-0.904-5.594-3.896-5.594-7.356c0-2.919,1.685-5.56,4.233-6.833c1.432-10.875,8.719-17.827,18.845-17.827
			c10.127,0,17.414,6.951,18.846,17.827c2.548,1.275,4.232,3.914,4.232,6.833c0,3.46-2.363,6.452-5.594,7.356
			C122.672,110.613,116.883,118.875,107.72,118.875 M107.72,74.496c-8.256,0-14.122,6.039-14.944,15.388l-0.123,1.394l-1.347,0.38
			c-1.536,0.435-2.609,1.852-2.609,3.446c0,1.854,1.447,3.423,3.296,3.57l1.423,0.111l0.373,1.377
			c1.923,7.087,6.592,14.658,13.931,14.658c7.338,0,12.008-7.571,13.93-14.658l0.375-1.377l1.423-0.111
			c1.849-0.147,3.297-1.716,3.297-3.57c0-1.596-1.073-3.013-2.61-3.446l-1.346-0.38l-0.123-1.394
			C121.843,80.535,115.977,74.496,107.72,74.496"/>
	</g>
</g>
<path fill="#1A1A19" d="M172.328,23.947c0-3.458-2.803-6.263-6.262-6.263h-18.838L108.164,6.732L70.403,17.685H49.372
	c-3.458,0-6.261,2.805-6.261,6.263v12.352v22.813l0.008,49.78c0,35.679,64.601,64.602,64.601,64.602s64.6-28.923,64.6-64.602
	l0.008-49.78v-6.282V23.947z M164.803,59.109l-0.008,49.781c0,8.39-5.031,22.042-28.996,39.444
	c-11.291,8.199-22.754,14.198-28.082,16.821c-5.288-2.602-16.619-8.527-27.885-16.684c-24.124-17.463-29.187-31.163-29.187-39.584
	l-0.009-49.779v-6.282h114.167V59.109z"/>
<path fill="#FFFFFF" d="M108.775,43.698v-4.274h-8.188v-3.371l7.044-12.435h5.178v12.253h2.019v3.553h-2.019v4.274H108.775z
	 M108.775,27.713l-4.546,8.158h4.546V27.713z"/>
<polygon fill="#FFFFFF" points="159.533,31.992 147.793,34.702 136.957,31.992 136.957,25.672 147.793,28.381 159.533,25.672 "/>
<polygon fill="#FFFFFF" points="159.533,41.023 147.793,43.732 136.957,41.023 136.957,34.702 147.793,37.411 159.533,34.702 "/>
<polygon fill="#FFFFFF" points="77.464,32.151 70.006,31.021 66.685,23.923 63.365,31.021 55.906,32.151 61.296,37.686 
	59.948,45.48 66.685,41.8 73.422,45.48 72.075,37.686 "/>
</svg>
