<?xml version="1.0" encoding="utf-8"?>
<!-- Generator: Adobe Illustrator 16.0.0, SVG Export Plug-In . SVG Version: 6.00 Build 0)  -->
<!DOCTYPE svg PUBLIC "-//W3C//DTD SVG 1.1//EN" "http://www.w3.org/Graphics/SVG/1.1/DTD/svg11.dtd">
<svg version="1.1" id="Layer_1" xmlns="http://www.w3.org/2000/svg" xmlns:xlink="http://www.w3.org/1999/xlink" x="0px" y="0px"
	 width="215px" height="195px" viewBox="0 0 215 195" enable-background="new 0 0 215 195" xml:space="preserve">
<path fill="#1A1A19" d="M128.843,165.387c-10.386,6.445-19.063,10.538-20.966,11.416c-1.905-0.878-10.58-4.971-20.967-11.416v0.492
	c-0.003-0.002,0.004-0.006,0-0.008v15.052c11.415,7.013,20.568,11.111,20.568,11.111l0.399-0.001l0.398,0.001
	c0,0,9.152-4.1,20.567-11.111v-15.052c-0.005,0.002,0.004,0.006,0,0.008V165.387L128.843,165.387z"/>
<path fill="#1A1A19" d="M83.594,164.249c-9.748-6.171-20.759-14.313-29.014-23.745v15.052c8.118,9.568,19.145,17.857,29.014,24.17
	v-15.052c-0.004-0.002,0.003-0.005,0-0.007V164.249z"/>
<path fill="#1A1A19" d="M132.158,164.249v0.418c-0.004,0.002,0.004,0.005,0,0.007v15.052c9.869-6.313,20.896-14.602,29.015-24.17
	v-15.052C152.917,149.938,141.906,158.078,132.158,164.249"/>
<path fill="#020202" d="M32.101,141.995c0.916-0.018,1.783-0.027,2.638,0.014c-3.211-4.569-2.29-10.163-4.058-15.118l0.017-0.22
	c5.329,2.009,8.124,6.701,10.731,11.657c1.861,3.592,3.683,7.273,6.339,9.994c-1.109,0.08-2.153,0.229-3.234,0.388
	c-1.122,0.164-2.275,0.386-3.435,0.692c-2.306,0.135-4.581,0.237-6.732,0.167c-4.035-0.171-7.795-0.855-11.037-2.606
	c-1.502-0.798-2.902-1.849-4.131-3.161c0.949-0.152,1.992-0.342,3.028-0.522C25.492,142.723,28.925,142.153,32.101,141.995"/>
<path fill="#020202" d="M22.046,124.449c1.062,1.397,2.535,2.592,3.517,4.19c0.274,0.795,0.599,1.553,0.922,2.329
	c0.784,2.101,1.378,4.127,0.792,5.831c-2.665-1.042-5.366-2.283-7.721-4.481c-1.341-1.617-2.338-3.361-3.035-5.244
	c-1.111-2.954-1.454-6.195-1.076-9.59c0.008-0.114,0.033-0.18,0.025-0.252l0.3-0.285c0.113,0.264,0.263,0.539,0.409,0.824
	C17.605,120.37,19.691,122.248,22.046,124.449"/>
<path fill="#020202" d="M182.227,141.995c-0.916-0.018-1.783-0.027-2.639,0.014c3.211-4.569,2.289-10.163,4.059-15.118l-0.018-0.22
	c-5.33,2.009-8.125,6.701-10.73,11.657c-1.861,3.592-3.684,7.273-6.34,9.994c1.109,0.08,2.152,0.229,3.234,0.388
	c1.121,0.164,2.273,0.386,3.436,0.692c2.306,0.135,4.58,0.237,6.73,0.167c4.035-0.171,7.795-0.855,11.037-2.606
	c1.502-0.798,2.902-1.849,4.131-3.161c-0.949-0.152-1.992-0.342-3.027-0.522C188.834,142.723,185.4,142.153,182.227,141.995"/>
<path fill="#020202" d="M193.707,124.449c-1.063,1.397-2.535,2.592-3.518,4.19c-0.273,0.795-0.601,1.553-0.922,2.329
	c-0.785,2.101-1.379,4.127-0.793,5.831c2.666-1.042,5.366-2.283,7.721-4.481c1.342-1.617,2.339-3.361,3.035-5.244
	c1.111-2.954,1.455-6.195,1.076-9.59c-0.009-0.114-0.033-0.18-0.024-0.252l-0.3-0.285c-0.113,0.264-0.264,0.539-0.409,0.824
	C198.146,120.37,196.063,122.248,193.707,124.449"/>
<path fill="#CE96C3" d="M44.463,40.055v19.927l0.008,48.859c0,35.018,63.405,63.405,63.405,63.405s63.405-28.389,63.405-63.405
	l0.008-48.859V40.055H44.463L44.463,40.055z"/>
<g opacity="0.5">
	<g>
		<g>
			<defs>
				<rect id="SVGID_1_" x="108.471" y="40.09" width="60.021" height="127.58"/>
			</defs>
			<clipPath id="SVGID_2_">
				<use xlink:href="#SVGID_1_"  overflow="visible"/>
			</clipPath>
			<path clip-path="url(#SVGID_2_)" fill="#944299" d="M108.596,167.666c5.59-2.753,17.619-9.048,29.469-17.652
				c9.189-6.674,16.453-13.391,21.588-19.966c5.865-7.514,8.841-14.723,8.841-21.427V61.396V40.091h-60.025v127.511
				C108.509,167.623,108.555,167.646,108.596,167.666"/>
		</g>
	</g>
</g>
<g opacity="0.4">
	<g>
		<g>
			<defs>
				<rect id="SVGID_3_" x="43.27" y="36.3" width="129.22" height="137.19"/>
			</defs>
			<clipPath id="SVGID_4_">
				<use xlink:href="#SVGID_3_"  overflow="visible"/>
			</clipPath>
			<path clip-path="url(#SVGID_4_)" fill="#FFFFFF" d="M158.688,50.097v9.013l-0.008,49.782c0,18.216-31.199,39.306-50.76,49.273
				c-5.696-2.925-14.985-8.062-24.254-14.771c-17.149-12.412-26.594-24.667-26.594-34.505L57.064,59.11v-9.015L158.688,50.097
				 M172.484,36.3H43.267v22.812l0.009,49.78c0,35.678,64.6,64.601,64.6,64.601s64.601-28.923,64.601-64.601l0.01-49.78V36.3
				H172.484z"/>
		</g>
	</g>
</g>
<g>
	<g>
		<defs>
			<path id="SVGID_5_" d="M43.267,35.798V58.61l0.009,49.779c0,35.68,64.6,64.603,64.6,64.603s64.601-28.923,64.601-64.603
				l0.008-49.779V35.798H43.267z"/>
		</defs>
		<clipPath id="SVGID_6_">
			<use xlink:href="#SVGID_5_"  overflow="visible"/>
		</clipPath>
		<path clip-path="url(#SVGID_6_)" fill="#944299" d="M154.889,126.058c-4.863-2.862-8.029-8.628-15.662-11.615
			c-1.933,2.166-4.391,3.569-7.314,3.569c-2.944,0-5.417-1.424-7.355-3.615c-7.646,2.974-10.892,8.783-15.779,11.661
			c-1.069,0.631-1.894,2.216-1.894,3.457l3.371,30.5h42.481l4.046-30.5C156.781,128.272,155.958,126.688,154.889,126.058"/>
	</g>
	<g>
		<defs>
			<path id="SVGID_7_" d="M43.267,35.798V58.61l0.009,49.779c0,35.68,64.6,64.603,64.6,64.603s64.601-28.923,64.601-64.603
				l0.008-49.779V35.798H43.267z"/>
		</defs>
		<clipPath id="SVGID_8_">
			<use xlink:href="#SVGID_7_"  overflow="visible"/>
		</clipPath>
		<path clip-path="url(#SVGID_8_)" fill="#191818" d="M154.494,162.022h-46.037l-3.581-32.51c0-1.986,1.239-4.218,2.882-5.186
			c1.713-1.008,3.295-2.508,4.971-4.095c2.847-2.697,6.071-5.751,11.101-7.707l1.305-0.51l0.927,1.051
			c1.725,1.949,3.692,2.938,5.852,2.938c2.145,0,4.102-0.976,5.818-2.898l0.93-1.041l1.3,0.508c5.015,1.963,8.204,5,11.019,7.681
			c1.66,1.58,3.228,3.072,4.931,4.075c1.644,0.968,2.883,3.198,2.883,5.186l-0.019,0.266L154.494,162.022z M112.052,158.008h38.927
			l3.793-28.594c-0.049-0.569-0.494-1.387-0.9-1.627c-2.102-1.237-3.83-2.883-5.661-4.628c-2.413-2.297-4.899-4.665-8.512-6.336
			c-2.271,2.096-4.938,3.195-7.787,3.195c-2.869,0-5.554-1.114-7.834-3.24c-3.629,1.67-6.146,4.055-8.586,6.368
			c-1.849,1.75-3.591,3.4-5.695,4.641c-0.411,0.242-0.86,1.075-0.901,1.645L112.052,158.008z"/>
	</g>
	<g>
		<defs>
			<path id="SVGID_9_" d="M43.267,35.798V58.61l0.009,49.779c0,35.68,64.6,64.603,64.6,64.603s64.601-28.923,64.601-64.603
				l0.008-49.779V35.798H43.267z"/>
		</defs>
		<clipPath id="SVGID_10_">
			<use xlink:href="#SVGID_9_"  overflow="visible"/>
		</clipPath>
		<path clip-path="url(#SVGID_10_)" fill="#FFFFFF" d="M144.059,98.674c-0.065-0.746-0.177-1.473-0.326-2.178
			c-1.258-5.914-5.44-10.245-11.899-10.245c-6.458,0-10.642,4.331-11.899,10.245c-0.148,0.705-0.261,1.432-0.326,2.178
			c-1.699,0.479-2.945,2.038-2.945,3.892c0,2.124,1.641,3.862,3.722,4.028c1.647,6.073,5.625,11.644,11.45,11.644
			c5.826,0,9.803-5.569,11.451-11.644c2.082-0.166,3.722-1.904,3.722-4.028C147.005,100.712,145.758,99.153,144.059,98.674"/>
	</g>
	<g>
		<defs>
			<path id="SVGID_11_" d="M43.267,35.798V58.61l0.009,49.779c0,35.68,64.6,64.603,64.6,64.603s64.601-28.923,64.601-64.603
				l0.008-49.779V35.798H43.267z"/>
		</defs>
		<clipPath id="SVGID_12_">
			<use xlink:href="#SVGID_11_"  overflow="visible"/>
		</clipPath>
		<path clip-path="url(#SVGID_12_)" fill="#FFFFFF" d="M119.605,98.674c0.065-0.746,0.178-1.473,0.326-2.178
			c0.734-3.451,2.467-6.361,5.063-8.188c2.628,10.412,14.548,11.438,20.662,11.25c0.823,0.739,1.347,1.811,1.347,3.008
			c0,2.124-1.641,3.862-3.722,4.028c-1.648,6.073-5.625,11.644-11.45,11.644c-5.826,0-9.805-5.569-11.451-11.644
			c-2.082-0.166-3.722-1.904-3.722-4.028C116.66,100.712,117.906,99.153,119.605,98.674"/>
	</g>
	<g>
		<defs>
			<path id="SVGID_13_" d="M43.267,35.798V58.61l0.009,49.779c0,35.68,64.6,64.603,64.6,64.603s64.601-28.923,64.601-64.603
				l0.008-49.779V35.798H43.267z"/>
		</defs>
		<clipPath id="SVGID_14_">
			<use xlink:href="#SVGID_13_"  overflow="visible"/>
		</clipPath>
		<path clip-path="url(#SVGID_14_)" fill="#944299" d="M124.494,88.308c1.854-1.304,4.146-2.057,6.836-2.057
			c6.459,0,10.643,4.33,11.9,10.244c0.149,0.706,0.262,1.433,0.326,2.179c0.604,0.17,1.146,0.478,1.6,0.883
			C139.043,99.744,127.121,98.72,124.494,88.308"/>
	</g>
	<g>
		<defs>
			<path id="SVGID_15_" d="M43.267,35.798V58.61l0.009,49.779c0,35.68,64.6,64.603,64.6,64.603s64.601-28.923,64.601-64.603
				l0.008-49.779V35.798H43.267z"/>
		</defs>
		<clipPath id="SVGID_16_">
			<use xlink:href="#SVGID_15_"  overflow="visible"/>
		</clipPath>
		<path clip-path="url(#SVGID_16_)" fill="#191818" d="M131.832,120.243c-6.796,0-11.105-5.964-13.036-11.94
			c-2.409-0.809-4.144-3.103-4.144-5.737c0-2.214,1.223-4.225,3.097-5.277c1.162-7.853,6.696-13.043,14.083-13.043
			s12.921,5.19,14.083,13.043c1.874,1.054,3.097,3.063,3.097,5.277c0,2.636-1.732,4.93-4.144,5.737
			C142.938,114.279,138.627,120.243,131.832,120.243 M131.832,88.258c-6.854,0-9.777,5.474-10.229,10.592l-0.121,1.381l-1.332,0.377
			c-0.873,0.246-1.483,1.051-1.483,1.958c0,1.054,0.823,1.944,1.874,2.028l1.408,0.111l0.369,1.364
			c1.332,4.912,4.533,10.161,9.514,10.161s8.182-5.249,9.514-10.161l0.37-1.364l1.407-0.111c1.051-0.084,1.875-0.976,1.875-2.028
			c0-0.907-0.611-1.712-1.484-1.958l-1.332-0.376l-0.121-1.382C141.609,93.73,138.686,88.258,131.832,88.258"/>
	</g>
	<g>
		<defs>
			<path id="SVGID_17_" d="M43.267,35.798V58.61l0.009,49.779c0,35.68,64.6,64.603,64.6,64.603s64.601-28.923,64.601-64.603
				l0.008-49.779V35.798H43.267z"/>
		</defs>
		<clipPath id="SVGID_18_">
			<use xlink:href="#SVGID_17_"  overflow="visible"/>
		</clipPath>
		<path clip-path="url(#SVGID_18_)" fill="#944299" d="M106.976,126.058c-4.862-2.862-8.029-8.628-15.661-11.615
			c-1.933,2.166-4.391,3.569-7.316,3.569c-2.944,0-5.417-1.424-7.355-3.615c-7.648,2.974-10.892,8.783-15.779,11.661
			c-1.07,0.631-1.894,2.216-1.894,3.457l3.371,33.01h42.482l4.046-33.01C108.87,128.272,108.046,126.688,106.976,126.058"/>
	</g>
	<g>
		<defs>
			<path id="SVGID_19_" d="M43.267,35.798V58.61l0.009,49.779c0,35.68,64.6,64.603,64.6,64.603s64.601-28.923,64.601-64.603
				l0.008-49.779V35.798H43.267z"/>
		</defs>
		<clipPath id="SVGID_20_">
			<use xlink:href="#SVGID_19_"  overflow="visible"/>
		</clipPath>
		<path clip-path="url(#SVGID_20_)" fill="#191818" d="M106.583,162.022H60.545l-3.581-32.51c0-1.986,1.239-4.218,2.883-5.186
			c1.711-1.008,3.294-2.508,4.971-4.095c2.845-2.696,6.07-5.751,11.099-7.707l1.304-0.51l0.927,1.051
			c1.724,1.949,3.693,2.938,5.853,2.938c2.144,0,4.101-0.976,5.816-2.898l0.929-1.041l1.3,0.508c5.014,1.963,8.204,5,11.018,7.68
			c1.66,1.581,3.228,3.073,4.93,4.076c1.645,0.969,2.883,3.198,2.883,5.186l-0.018,0.266L106.583,162.022z M64.14,158.008h38.926
			l3.793-28.594c-0.049-0.569-0.494-1.387-0.901-1.627c-2.101-1.237-3.83-2.884-5.661-4.628c-2.413-2.297-4.899-4.665-8.511-6.336
			c-2.271,2.096-4.938,3.195-7.786,3.195c-2.87,0-5.554-1.114-7.835-3.24c-3.629,1.67-6.146,4.055-8.587,6.369
			c-1.846,1.749-3.59,3.399-5.695,4.64c-0.411,0.242-0.861,1.075-0.902,1.645L64.14,158.008z"/>
	</g>
	<g>
		<defs>
			<path id="SVGID_21_" d="M43.267,35.798V58.61l0.009,49.779c0,35.68,64.6,64.603,64.6,64.603s64.601-28.923,64.601-64.603
				l0.008-49.779V35.798H43.267z"/>
		</defs>
		<clipPath id="SVGID_22_">
			<use xlink:href="#SVGID_21_"  overflow="visible"/>
		</clipPath>
		<path clip-path="url(#SVGID_22_)" fill="#FFFFFF" d="M96.147,98.674c-0.066-0.746-0.177-1.473-0.327-2.178
			c-1.258-5.914-5.441-10.245-11.9-10.245c-6.458,0-10.641,4.331-11.899,10.245c-0.15,0.705-0.261,1.432-0.327,2.178
			c-1.699,0.479-2.946,2.038-2.946,3.892c0,2.124,1.64,3.862,3.722,4.028c1.648,6.073,5.625,11.644,11.45,11.644
			c5.826,0,9.803-5.569,11.451-11.644c2.082-0.166,3.722-1.904,3.722-4.028C99.093,100.712,97.846,99.153,96.147,98.674"/>
	</g>
	<g>
		<defs>
			<path id="SVGID_23_" d="M43.267,35.798V58.61l0.009,49.779c0,35.68,64.6,64.603,64.6,64.603s64.601-28.923,64.601-64.603
				l0.008-49.779V35.798H43.267z"/>
		</defs>
		<clipPath id="SVGID_24_">
			<use xlink:href="#SVGID_23_"  overflow="visible"/>
		</clipPath>
		<path clip-path="url(#SVGID_24_)" fill="#FFFFFF" d="M71.694,98.674c0.066-0.746,0.177-1.473,0.327-2.178
			c0.734-3.451,2.466-6.361,5.063-8.188c2.628,10.412,14.548,11.438,20.662,11.25c0.825,0.739,1.347,1.811,1.347,3.008
			c0,2.124-1.639,3.862-3.722,4.028c-1.648,6.073-5.625,11.644-11.45,11.644c-5.826,0-9.803-5.569-11.451-11.644
			c-2.082-0.166-3.721-1.904-3.721-4.028C68.749,100.712,69.995,99.153,71.694,98.674"/>
	</g>
	<g>
		<defs>
			<path id="SVGID_25_" d="M43.267,35.798V58.61l0.009,49.779c0,35.68,64.6,64.603,64.6,64.603s64.601-28.923,64.601-64.603
				l0.008-49.779V35.798H43.267z"/>
		</defs>
		<clipPath id="SVGID_26_">
			<use xlink:href="#SVGID_25_"  overflow="visible"/>
		</clipPath>
		<path clip-path="url(#SVGID_26_)" fill="#944299" d="M91.725,88.308c-1.854-1.304-4.147-2.057-6.837-2.057
			c-6.459,0-10.642,4.33-11.9,10.244c-0.15,0.706-0.261,1.433-0.326,2.179c-0.603,0.17-1.146,0.478-1.599,0.883
			C77.176,99.744,89.097,98.72,91.725,88.308"/>
	</g>
	<g>
		<defs>
			<path id="SVGID_27_" d="M43.267,35.798V58.61l0.009,49.779c0,35.68,64.6,64.603,64.6,64.603s64.601-28.923,64.601-64.603
				l0.008-49.779V35.798H43.267z"/>
		</defs>
		<clipPath id="SVGID_28_">
			<use xlink:href="#SVGID_27_"  overflow="visible"/>
		</clipPath>
		<path clip-path="url(#SVGID_28_)" fill="#191818" d="M83.92,120.243c-6.795,0-11.106-5.964-13.036-11.94
			c-2.41-0.809-4.144-3.103-4.144-5.737c0-2.214,1.222-4.225,3.096-5.277c1.162-7.853,6.697-13.043,14.083-13.043
			c7.386,0,12.921,5.19,14.083,13.043c1.874,1.054,3.096,3.063,3.096,5.277c0,2.636-1.733,4.93-4.143,5.737
			C95.026,114.279,90.716,120.243,83.92,120.243 M83.92,88.258c-6.854,0-9.777,5.474-10.228,10.592l-0.121,1.382l-1.333,0.376
			c-0.873,0.246-1.484,1.051-1.484,1.958c0,1.054,0.824,1.944,1.875,2.028l1.407,0.111l0.37,1.364
			c1.333,4.912,4.533,10.161,9.514,10.161s8.181-5.249,9.514-10.161l0.369-1.364l1.408-0.111c1.051-0.084,1.874-0.976,1.874-2.028
			c0-0.907-0.61-1.712-1.483-1.958l-1.333-0.377l-0.121-1.381C93.697,93.73,90.774,88.258,83.92,88.258"/>
	</g>
	<g>
		<defs>
			<path id="SVGID_29_" d="M43.267,35.798V58.61l0.009,49.779c0,35.68,64.6,64.603,64.6,64.603s64.601-28.923,64.601-64.603
				l0.008-49.779V35.798H43.267z"/>
		</defs>
		<clipPath id="SVGID_30_">
			<use xlink:href="#SVGID_29_"  overflow="visible"/>
		</clipPath>
		<path clip-path="url(#SVGID_30_)" fill="#CE96C3" d="M139.865,127.699c-6.746-3.973-11.141-11.973-21.73-16.116
			c-2.68,3.006-6.092,4.953-10.148,4.953c-4.086,0-7.516-1.977-10.206-5.019c-10.612,4.127-15.112,12.188-21.893,16.182
			c-1.484,0.875-2.628,3.074-2.628,4.797l4.678,44.576h58.941l5.614-44.576C142.493,130.773,141.35,128.574,139.865,127.699"/>
	</g>
	<g>
		<defs>
			<path id="SVGID_31_" d="M43.267,35.798V58.61l0.009,49.779c0,35.68,64.6,64.603,64.6,64.603s64.601-28.923,64.601-64.603
				l0.008-49.779V35.798H43.267z"/>
		</defs>
		<clipPath id="SVGID_32_">
			<use xlink:href="#SVGID_31_"  overflow="visible"/>
		</clipPath>
		<path clip-path="url(#SVGID_32_)" fill="#191818" d="M138.668,179.101H76.112l-4.88-46.604c0-2.513,1.559-5.325,3.627-6.543
			c2.448-1.44,4.675-3.552,7.032-5.785c3.898-3.691,8.315-7.878,15.155-10.538l1.317-0.512l0.937,1.059
			c2.541,2.875,5.463,4.334,8.686,4.334c3.2,0,6.105-1.438,8.636-4.276l0.938-1.052l1.313,0.514
			c6.819,2.669,11.188,6.83,15.041,10.499c2.335,2.224,4.541,4.323,6.979,5.759c2.065,1.218,3.625,4.03,3.625,6.543l-0.017,0.253
			L138.668,179.101z M79.763,175.045h55.329l5.371-42.655c-0.051-1.048-0.83-2.476-1.625-2.942
			c-2.841-1.672-5.209-3.929-7.718-6.316c-3.497-3.33-7.104-6.765-12.481-9.144c-3.088,3.001-6.744,4.578-10.652,4.578
			c-3.937,0-7.616-1.601-10.717-4.642c-5.401,2.375-9.05,5.834-12.589,9.188c-2.529,2.396-4.918,4.661-7.764,6.336
			c-0.8,0.471-1.585,1.911-1.628,2.96L79.763,175.045z"/>
	</g>
	<g>
		<defs>
			<path id="SVGID_33_" d="M43.267,35.798V58.61l0.009,49.779c0,35.68,64.6,64.603,64.6,64.603s64.601-28.923,64.601-64.603
				l0.008-49.779V35.798H43.267z"/>
		</defs>
		<clipPath id="SVGID_34_">
			<use xlink:href="#SVGID_33_"  overflow="visible"/>
		</clipPath>
		<polygon clip-path="url(#SVGID_34_)" fill="#FFFFFF" points="98.846,115.363 116.906,115.363 107.877,133.425 		"/>
	</g>
	<g>
		<defs>
			<path id="SVGID_35_" d="M43.267,35.798V58.61l0.009,49.779c0,35.68,64.6,64.603,64.6,64.603s64.601-28.923,64.601-64.603
				l0.008-49.779V35.798H43.267z"/>
		</defs>
		<clipPath id="SVGID_36_">
			<use xlink:href="#SVGID_35_"  overflow="visible"/>
		</clipPath>
		<path clip-path="url(#SVGID_36_)" fill="#FFFFFF" d="M124.84,89.705c-0.09-1.035-0.244-2.043-0.451-3.022
			c-1.746-8.206-7.551-14.214-16.512-14.214c-8.962,0-14.765,6.008-16.511,14.214c-0.208,0.979-0.362,1.987-0.453,3.022
			c-2.356,0.666-4.087,2.828-4.087,5.397c0,2.947,2.274,5.36,5.164,5.592c2.286,8.425,7.804,16.152,15.887,16.152
			s13.602-7.729,15.887-16.152c2.889-0.23,5.164-2.645,5.164-5.592C128.928,92.533,127.197,90.371,124.84,89.705"/>
	</g>
	<g>
		<defs>
			<path id="SVGID_37_" d="M43.267,35.798V58.61l0.009,49.779c0,35.68,64.6,64.603,64.6,64.603s64.601-28.923,64.601-64.603
				l0.008-49.779V35.798H43.267z"/>
		</defs>
		<clipPath id="SVGID_38_">
			<use xlink:href="#SVGID_37_"  overflow="visible"/>
		</clipPath>
		<path clip-path="url(#SVGID_38_)" fill="#FFFFFF" d="M124.84,89.705c-0.09-1.035-0.244-2.043-0.451-3.022
			c-1.021-4.788-3.424-8.824-7.025-11.358c-3.647,14.445-20.187,15.867-28.668,15.606c-1.145,1.026-1.869,2.514-1.869,4.173
			c0,2.947,2.274,5.36,5.164,5.592c2.286,8.425,7.804,16.152,15.887,16.152s13.602-7.729,15.887-16.152
			c2.889-0.23,5.164-2.645,5.164-5.592C128.928,92.533,127.197,90.371,124.84,89.705"/>
	</g>
	<g>
		<defs>
			<path id="SVGID_39_" d="M43.267,35.798V58.61l0.009,49.779c0,35.68,64.6,64.603,64.6,64.603s64.601-28.923,64.601-64.603
				l0.008-49.779V35.798H43.267z"/>
		</defs>
		<clipPath id="SVGID_40_">
			<use xlink:href="#SVGID_39_"  overflow="visible"/>
		</clipPath>
		<path clip-path="url(#SVGID_40_)" fill="#CE96C3" d="M117.361,75.322c-2.57-1.81-5.754-2.854-9.485-2.854
			c-8.961,0-14.765,6.008-16.511,14.214c-0.208,0.979-0.362,1.987-0.453,3.022c-0.835,0.235-1.589,0.662-2.218,1.226
			C97.176,91.189,113.715,89.77,117.361,75.322"/>
	</g>
	<g>
		<defs>
			<path id="SVGID_41_" d="M43.267,35.798V58.61l0.009,49.779c0,35.68,64.6,64.603,64.6,64.603s64.601-28.923,64.601-64.603
				l0.008-49.779V35.798H43.267z"/>
		</defs>
		<clipPath id="SVGID_42_">
			<use xlink:href="#SVGID_41_"  overflow="visible"/>
		</clipPath>
		<path clip-path="url(#SVGID_42_)" fill="#191818" d="M107.876,118.875c-9.162,0-14.952-8.262-17.485-16.416
			c-3.231-0.904-5.594-3.896-5.594-7.356c0-2.919,1.685-5.558,4.233-6.833c1.432-10.876,8.719-17.827,18.846-17.827
			c10.125,0,17.413,6.952,18.845,17.827c2.549,1.273,4.233,3.914,4.233,6.833c0,3.46-2.363,6.452-5.595,7.356
			C122.828,110.613,117.039,118.875,107.876,118.875 M107.876,74.496c-8.256,0-14.123,6.039-14.945,15.388l-0.123,1.394l-1.346,0.38
			c-1.537,0.435-2.61,1.852-2.61,3.446c0,1.854,1.448,3.423,3.297,3.57l1.422,0.111l0.374,1.377
			c1.923,7.087,6.593,14.658,13.931,14.658c7.339,0,12.008-7.571,13.931-14.658l0.373-1.377l1.424-0.111
			c1.85-0.147,3.295-1.716,3.295-3.57c0-1.596-1.072-3.013-2.607-3.446l-1.348-0.38l-0.123-1.394
			C121.998,80.535,116.133,74.496,107.876,74.496"/>
	</g>
</g>
<path fill="#1A1A19" d="M172.484,36.3V23.947c0-3.459-2.803-6.263-6.262-6.263h-18.838L108.32,6.732L70.559,17.685H49.528
	c-3.458,0-6.261,2.804-6.261,6.263v28.881v6.282l0.008,49.78c0,35.678,64.601,64.601,64.601,64.601s64.601-28.923,64.601-64.601
	l0.008-49.78V36.3L172.484,36.3z M164.951,108.892c0,8.39-5.031,22.042-28.996,39.444c-11.289,8.198-22.75,14.196-28.079,16.82
	c-5.33-2.625-16.79-8.623-28.078-16.82c-23.966-17.402-28.997-31.056-28.997-39.445l-0.008-49.779v-6.282h114.166v6.281
	L164.951,108.892z"/>
<path fill="#FFFFFF" d="M101.089,40.899l2.438-2.591c1.054,1.386,2.469,2.168,4.185,2.168c1.927,0,3.041-1.475,3.041-3.16
	c0-1.986-1.054-3.16-2.86-3.16c-1.355,0-2.379,0.479-3.312,1.654l-2.92-0.782V23.619h12.042v3.552h-8.008v5.148
	c0.783-0.964,2.138-1.655,3.673-1.655c3.041,0,5.479,2.378,5.479,6.533c0,4.031-2.74,6.861-7.015,6.861
	C104.732,44.06,102.594,42.917,101.089,40.899"/>
<polygon fill="#FFFFFF" points="78.822,31.151 71.363,30.021 68.043,22.923 64.723,30.021 57.264,31.151 62.653,36.686 
	61.306,44.48 68.043,40.8 74.78,44.48 73.433,36.686 "/>
<polygon fill="#FFFFFF" points="158.488,31.151 151.029,30.021 147.709,22.923 144.391,30.021 136.932,31.151 142.318,36.686 
	140.973,44.48 147.709,40.8 154.445,44.48 153.1,36.686 "/>
</svg>
