<?xml version="1.0" encoding="utf-8"?>
<!-- Generator: Adobe Illustrator 16.0.0, SVG Export Plug-In . SVG Version: 6.00 Build 0)  -->
<!DOCTYPE svg PUBLIC "-//W3C//DTD SVG 1.1//EN" "http://www.w3.org/Graphics/SVG/1.1/DTD/svg11.dtd">
<svg version="1.1" id="Layer_1" xmlns="http://www.w3.org/2000/svg" xmlns:xlink="http://www.w3.org/1999/xlink" x="0px" y="0px"
	 width="612px" height="792px" viewBox="0 0 612 792" enable-background="new 0 0 612 792" xml:space="preserve">
<path fill="none" d="M346.63,60"/>
<path fill="none" d="M346.63,3305.597"/>
<path fill="#1A1A19" d="M323.843,458.387c-10.386,6.445-19.063,10.538-20.966,11.416c-1.905-0.878-10.58-4.971-20.967-11.416v0.492
	c-0.003-0.002,0.004-0.006,0-0.008v15.052c11.415,7.013,20.568,11.111,20.568,11.111l0.399-0.001l0.399,0.001
	c0,0,9.152-4.099,20.567-11.111v-15.052c-0.005,0.002,0.004,0.006,0,0.008V458.387z"/>
<path fill="#1A1A19" d="M278.594,457.249c-9.748-6.171-20.759-14.313-29.014-23.745v15.052c8.118,9.568,19.145,17.857,29.014,24.17
	v-15.052c-0.004-0.002,0.003-0.005,0-0.007V457.249z"/>
<path fill="#1A1A19" d="M327.158,457.249v0.418c-0.004,0.002,0.004,0.005,0,0.007v15.052c9.869-6.313,20.896-14.602,29.015-24.17
	v-15.052C347.917,442.937,336.906,451.078,327.158,457.249"/>
<path fill="#010101" d="M227.101,434.995c0.916-0.017,1.783-0.027,2.638,0.014c-3.211-4.57-2.29-10.163-4.058-15.118l0.017-0.22
	c5.329,2.009,8.124,6.701,10.731,11.657c1.861,3.592,3.683,7.274,6.339,9.994c-1.109,0.08-2.153,0.229-3.234,0.388
	c-1.122,0.164-2.275,0.386-3.435,0.692c-2.306,0.135-4.581,0.238-6.732,0.167c-4.035-0.171-7.795-0.855-11.037-2.606
	c-1.502-0.798-2.902-1.849-4.131-3.161c0.949-0.153,1.992-0.342,3.028-0.523C220.492,435.723,223.925,435.153,227.101,434.995"/>
<path fill="#010101" d="M217.046,417.449c1.062,1.398,2.535,2.592,3.517,4.191c0.274,0.795,0.599,1.552,0.922,2.329
	c0.784,2.1,1.378,4.127,0.792,5.831c-2.665-1.042-5.366-2.283-7.721-4.482c-1.341-1.617-2.338-3.361-3.035-5.244
	c-1.111-2.954-1.454-6.195-1.076-9.59c0.008-0.114,0.033-0.179,0.025-0.252l0.3-0.285c0.113,0.264,0.263,0.539,0.409,0.824
	C212.605,413.37,214.691,415.248,217.046,417.449"/>
<path fill="#010101" d="M377.226,434.995c-0.916-0.017-1.783-0.027-2.638,0.014c3.211-4.57,2.289-10.163,4.058-15.118l-0.017-0.22
	c-5.33,2.009-8.125,6.701-10.731,11.657c-1.861,3.592-3.683,7.274-6.339,9.994c1.109,0.08,2.152,0.229,3.234,0.388
	c1.121,0.164,2.274,0.386,3.435,0.692c2.306,0.135,4.581,0.238,6.731,0.167c4.035-0.171,7.795-0.855,11.037-2.606
	c1.502-0.798,2.902-1.849,4.131-3.161c-0.949-0.153-1.992-0.342-3.027-0.523C383.834,435.723,380.401,435.153,377.226,434.995"/>
<path fill="#010101" d="M388.707,417.449c-1.063,1.398-2.535,2.592-3.518,4.191c-0.273,0.795-0.6,1.552-0.922,2.329
	c-0.784,2.1-1.378,4.127-0.792,5.831c2.665-1.042,5.366-2.283,7.721-4.482c1.341-1.617,2.338-3.361,3.035-5.244
	c1.111-2.954,1.454-6.195,1.075-9.59c-0.008-0.114-0.032-0.179-0.024-0.252l-0.3-0.285c-0.113,0.264-0.263,0.539-0.409,0.824
	C393.147,413.37,391.062,415.248,388.707,417.449"/>
<path fill="#CE96C3" d="M239.463,333.055v19.926l0.008,48.86c0,35.017,63.405,63.405,63.405,63.405s63.405-28.389,63.405-63.405
	l0.008-48.86v-19.926H239.463z"/>
<g opacity="0.5">
	<g>
		<defs>
			<rect id="SVGID_1_" x="303.47" y="333.09" width="60.021" height="127.58"/>
		</defs>
		<clipPath id="SVGID_2_">
			<use xlink:href="#SVGID_1_"  overflow="visible"/>
		</clipPath>
		<path clip-path="url(#SVGID_2_)" fill="#944098" d="M303.596,460.666c5.59-2.753,17.619-9.048,29.468-17.652
			c9.19-6.674,16.454-13.391,21.588-19.966c5.866-7.514,8.841-14.723,8.841-21.427v-47.225v-21.305h-60.025v127.511
			C303.509,460.623,303.555,460.646,303.596,460.666"/>
	</g>
</g>
<g opacity="0.4">
	<g>
		<defs>
			<rect id="SVGID_3_" x="238.27" y="329.3" width="129.22" height="137.19"/>
		</defs>
		<clipPath id="SVGID_4_">
			<use xlink:href="#SVGID_3_"  overflow="visible"/>
		</clipPath>
		<path clip-path="url(#SVGID_4_)" fill="#FFFFFF" d="M353.688,343.097v9.012l-0.008,49.783c0,18.215-31.199,39.305-50.76,49.273
			c-5.696-2.925-14.985-8.061-24.254-14.771c-17.149-12.413-26.594-24.667-26.594-34.505l-0.008-49.779v-9.014H353.688
			 M367.485,329.3H238.267v22.811l0.009,49.781c0,35.677,64.6,64.6,64.6,64.6s64.601-28.923,64.601-64.6l0.009-49.781V329.3z"/>
	</g>
</g>
<g>
	<defs>
		<path id="SVGID_5_" d="M238.267,328.798v22.812l0.009,49.78c0,35.679,64.6,64.602,64.6,64.602s64.601-28.923,64.601-64.602
			l0.008-49.78v-22.812H238.267z"/>
	</defs>
	<clipPath id="SVGID_6_">
		<use xlink:href="#SVGID_5_"  overflow="visible"/>
	</clipPath>
	<path clip-path="url(#SVGID_6_)" fill="#944098" d="M349.888,419.058c-4.862-2.863-8.028-8.628-15.661-11.616
		c-1.933,2.166-4.391,3.57-7.315,3.57c-2.944,0-5.417-1.424-7.355-3.616c-7.647,2.974-10.892,8.784-15.779,11.662
		c-1.07,0.63-1.894,2.215-1.894,3.457l3.371,30.5h42.482l4.045-30.5C351.781,421.272,350.958,419.688,349.888,419.058"/>
	<path clip-path="url(#SVGID_6_)" fill="#191818" d="M349.494,455.022h-46.037l-3.581-32.509c0-1.987,1.239-4.218,2.882-5.186
		c1.712-1.008,3.295-2.508,4.971-4.095c2.846-2.697,6.071-5.751,11.1-7.707l1.305-0.509l0.926,1.05
		c1.725,1.95,3.693,2.938,5.852,2.938c2.145,0,4.102-0.976,5.818-2.898l0.93-1.042l1.3,0.508c5.014,1.963,8.204,5,11.018,7.681
		c1.66,1.58,3.228,3.072,4.931,4.075c1.644,0.968,2.883,3.198,2.883,5.186l-0.018,0.265L349.494,455.022z M307.052,451.008h38.926
		l3.794-28.594c-0.05-0.569-0.494-1.387-0.901-1.627c-2.102-1.237-3.83-2.883-5.661-4.628c-2.413-2.297-4.899-4.665-8.512-6.336
		c-2.271,2.096-4.938,3.196-7.787,3.196c-2.869,0-5.553-1.115-7.834-3.241c-3.629,1.67-6.146,4.055-8.586,6.368
		c-1.848,1.75-3.59,3.401-5.695,4.641c-0.411,0.242-0.861,1.075-0.902,1.645L307.052,451.008z"/>
	<path clip-path="url(#SVGID_6_)" fill="#FFFFFF" d="M339.059,391.674c-0.066-0.746-0.177-1.473-0.326-2.178
		c-1.259-5.914-5.441-10.245-11.9-10.245c-6.458,0-10.641,4.331-11.899,10.245c-0.149,0.705-0.261,1.432-0.327,2.178
		c-1.699,0.479-2.945,2.038-2.945,3.891c0,2.124,1.64,3.863,3.722,4.029c1.647,6.073,5.625,11.643,11.45,11.643
		c5.826,0,9.803-5.569,11.451-11.643c2.082-0.166,3.722-1.905,3.722-4.029C342.005,393.712,340.758,392.153,339.059,391.674"/>
	<path clip-path="url(#SVGID_6_)" fill="#FFFFFF" d="M314.605,391.674c0.066-0.746,0.178-1.473,0.327-2.178
		c0.734-3.451,2.466-6.361,5.063-8.188c2.628,10.412,14.548,11.437,20.662,11.25c0.824,0.739,1.347,1.81,1.347,3.007
		c0,2.124-1.64,3.863-3.722,4.029c-1.648,6.073-5.625,11.643-11.45,11.643c-5.826,0-9.804-5.569-11.451-11.643
		c-2.082-0.166-3.722-1.905-3.722-4.029C311.66,393.712,312.906,392.153,314.605,391.674"/>
	<path clip-path="url(#SVGID_6_)" fill="#944098" d="M319.494,381.308c1.854-1.304,4.146-2.057,6.836-2.057
		c6.459,0,10.643,4.33,11.9,10.244c0.15,0.706,0.262,1.433,0.326,2.179c0.604,0.17,1.146,0.477,1.6,0.883
		C334.043,392.744,322.121,391.72,319.494,381.308"/>
	<path clip-path="url(#SVGID_6_)" fill="#191818" d="M326.832,413.243c-6.796,0-11.105-5.964-13.036-11.94
		c-2.409-0.809-4.143-3.103-4.143-5.738c0-2.213,1.222-4.224,3.096-5.277c1.162-7.852,6.697-13.043,14.083-13.043
		c7.387,0,12.921,5.191,14.083,13.043c1.874,1.054,3.097,3.064,3.097,5.277c0,2.636-1.733,4.93-4.144,5.738
		C337.938,407.279,333.627,413.243,326.832,413.243 M326.832,381.258c-6.854,0-9.777,5.473-10.229,10.592l-0.121,1.38l-1.332,0.377
		c-0.873,0.246-1.483,1.051-1.483,1.958c0,1.054,0.823,1.945,1.874,2.029l1.408,0.111l0.369,1.364
		c1.333,4.912,4.533,10.161,9.514,10.161s8.182-5.249,9.514-10.161l0.37-1.364l1.407-0.111c1.051-0.084,1.875-0.976,1.875-2.029
		c0-0.907-0.611-1.712-1.484-1.958l-1.332-0.376l-0.121-1.381C336.609,386.73,333.686,381.258,326.832,381.258"/>
	<path clip-path="url(#SVGID_6_)" fill="#944098" d="M301.976,419.058c-4.862-2.863-8.029-8.628-15.661-11.616
		c-1.933,2.166-4.391,3.57-7.316,3.57c-2.944,0-5.417-1.424-7.355-3.616c-7.648,2.974-10.892,8.784-15.779,11.662
		c-1.07,0.63-1.894,2.215-1.894,3.457l3.371,33.009h42.482l4.046-33.009C303.87,421.272,303.046,419.688,301.976,419.058"/>
	<path clip-path="url(#SVGID_6_)" fill="#191818" d="M301.583,455.022h-46.038l-3.581-32.509c0-1.987,1.239-4.218,2.883-5.186
		c1.711-1.008,3.294-2.508,4.971-4.095c2.845-2.696,6.07-5.751,11.099-7.707l1.304-0.509l0.927,1.05
		c1.724,1.95,3.693,2.938,5.853,2.938c2.144,0,4.101-0.976,5.816-2.898l0.929-1.042l1.3,0.508c5.014,1.963,8.204,5,11.018,7.68
		c1.66,1.581,3.228,3.073,4.93,4.076c1.644,0.969,2.883,3.198,2.883,5.186l-0.017,0.265L301.583,455.022z M259.14,451.008h38.926
		l3.793-28.594c-0.049-0.569-0.494-1.387-0.901-1.627c-2.101-1.237-3.83-2.884-5.661-4.628c-2.413-2.297-4.899-4.665-8.511-6.336
		c-2.271,2.096-4.938,3.196-7.786,3.196c-2.87,0-5.554-1.115-7.835-3.241c-3.629,1.67-6.146,4.055-8.587,6.369
		c-1.846,1.749-3.59,3.4-5.695,4.64c-0.411,0.242-0.861,1.075-0.902,1.645L259.14,451.008z"/>
	<path clip-path="url(#SVGID_6_)" fill="#FFFFFF" d="M291.147,391.674c-0.066-0.746-0.177-1.473-0.327-2.178
		c-1.258-5.914-5.441-10.245-11.9-10.245c-6.458,0-10.641,4.331-11.899,10.245c-0.15,0.705-0.261,1.432-0.327,2.178
		c-1.699,0.479-2.946,2.038-2.946,3.891c0,2.124,1.64,3.863,3.722,4.029c1.648,6.073,5.625,11.643,11.45,11.643
		c5.826,0,9.803-5.569,11.451-11.643c2.082-0.166,3.722-1.905,3.722-4.029C294.093,393.712,292.846,392.153,291.147,391.674"/>
	<path clip-path="url(#SVGID_6_)" fill="#FFFFFF" d="M266.694,391.674c0.066-0.746,0.177-1.473,0.327-2.178
		c0.734-3.451,2.466-6.361,5.063-8.188c2.628,10.412,14.548,11.437,20.662,11.25c0.825,0.739,1.347,1.81,1.347,3.007
		c0,2.124-1.639,3.863-3.722,4.029c-1.648,6.073-5.625,11.643-11.45,11.643c-5.826,0-9.803-5.569-11.451-11.643
		c-2.082-0.166-3.721-1.905-3.721-4.029C263.749,393.712,264.995,392.153,266.694,391.674"/>
	<path clip-path="url(#SVGID_6_)" fill="#944098" d="M286.725,381.308c-1.854-1.304-4.147-2.057-6.837-2.057
		c-6.459,0-10.642,4.33-11.9,10.244c-0.15,0.706-0.261,1.433-0.326,2.179c-0.603,0.17-1.146,0.477-1.599,0.883
		C272.176,392.744,284.097,391.72,286.725,381.308"/>
	<path clip-path="url(#SVGID_6_)" fill="#191818" d="M278.92,413.243c-6.795,0-11.106-5.964-13.036-11.94
		c-2.41-0.809-4.144-3.103-4.144-5.738c0-2.213,1.222-4.224,3.096-5.277c1.162-7.852,6.697-13.043,14.083-13.043
		s12.921,5.191,14.083,13.043c1.874,1.054,3.096,3.064,3.096,5.277c0,2.636-1.733,4.93-4.143,5.738
		C290.026,407.279,285.716,413.243,278.92,413.243 M278.92,381.258c-6.854,0-9.777,5.473-10.228,10.592l-0.121,1.381l-1.333,0.376
		c-0.873,0.246-1.484,1.051-1.484,1.958c0,1.054,0.824,1.945,1.875,2.029l1.407,0.111l0.37,1.364
		c1.333,4.912,4.533,10.161,9.514,10.161s8.181-5.249,9.514-10.161l0.369-1.364l1.408-0.111c1.051-0.084,1.874-0.976,1.874-2.029
		c0-0.907-0.61-1.712-1.483-1.958l-1.333-0.377l-0.121-1.38C288.697,386.73,285.774,381.258,278.92,381.258"/>
	<path clip-path="url(#SVGID_6_)" fill="#CE96C3" d="M334.865,420.699c-6.746-3.972-11.14-11.972-21.73-16.116
		c-2.68,3.006-6.092,4.953-10.148,4.953c-4.086,0-7.516-1.976-10.206-5.018c-10.612,4.127-15.112,12.188-21.893,16.181
		c-1.484,0.875-2.628,3.074-2.628,4.797l4.678,44.576h58.941l5.614-44.576C337.493,423.773,336.35,421.574,334.865,420.699"/>
	<path clip-path="url(#SVGID_6_)" fill="#191818" d="M333.668,472.101h-62.556l-4.88-46.605c0-2.513,1.559-5.325,3.627-6.543
		c2.448-1.44,4.675-3.552,7.032-5.785c3.898-3.691,8.315-7.878,15.155-10.538l1.317-0.512l0.937,1.059
		c2.541,2.875,5.463,4.334,8.686,4.334c3.2,0,6.105-1.439,8.636-4.277l0.939-1.051l1.313,0.513
		c6.819,2.669,11.188,6.83,15.041,10.499c2.335,2.224,4.541,4.324,6.979,5.759c2.066,1.218,3.626,4.03,3.626,6.543l-0.017,0.253
		L333.668,472.101z M274.763,468.045h55.329l5.371-42.655c-0.051-1.048-0.83-2.476-1.625-2.943
		c-2.841-1.672-5.209-3.928-7.718-6.316c-3.497-3.33-7.104-6.765-12.481-9.144c-3.088,3.001-6.744,4.578-10.652,4.578
		c-3.937,0-7.616-1.6-10.717-4.641c-5.401,2.375-9.05,5.834-12.589,9.187c-2.529,2.396-4.918,4.661-7.764,6.336
		c-0.8,0.471-1.585,1.911-1.628,2.96L274.763,468.045z"/>
	<polygon clip-path="url(#SVGID_6_)" fill="#FFFFFF" points="293.846,408.363 311.906,408.363 302.877,426.425 	"/>
	<path clip-path="url(#SVGID_6_)" fill="#FFFFFF" d="M319.84,382.705c-0.09-1.035-0.244-2.043-0.452-3.022
		c-1.746-8.206-7.55-14.214-16.511-14.214c-8.962,0-14.765,6.008-16.511,14.214c-0.208,0.979-0.362,1.987-0.453,3.022
		c-2.356,0.666-4.087,2.828-4.087,5.398c0,2.947,2.274,5.36,5.164,5.591c2.286,8.425,7.804,16.153,15.887,16.153
		c8.083,0,13.601-7.729,15.887-16.153c2.889-0.23,5.164-2.644,5.164-5.591C323.928,385.533,322.197,383.371,319.84,382.705"/>
	<path clip-path="url(#SVGID_6_)" fill="#FFFFFF" d="M319.84,382.705c-0.09-1.035-0.244-2.043-0.452-3.022
		c-1.02-4.788-3.423-8.825-7.025-11.359c-3.647,14.446-20.186,15.867-28.668,15.607c-1.145,1.026-1.869,2.513-1.869,4.173
		c0,2.947,2.274,5.36,5.164,5.591c2.286,8.425,7.804,16.153,15.887,16.153c8.083,0,13.601-7.729,15.887-16.153
		c2.889-0.23,5.164-2.644,5.164-5.591C323.928,385.533,322.197,383.371,319.84,382.705"/>
	<path clip-path="url(#SVGID_6_)" fill="#CE96C3" d="M312.362,368.322c-2.571-1.809-5.754-2.854-9.486-2.854
		c-8.961,0-14.765,6.008-16.511,14.214c-0.208,0.979-0.362,1.987-0.453,3.022c-0.835,0.235-1.589,0.662-2.218,1.226
		C292.176,384.189,308.715,382.77,312.362,368.322"/>
	<path clip-path="url(#SVGID_6_)" fill="#191818" d="M302.876,411.875c-9.162,0-14.952-8.262-17.485-16.416
		c-3.231-0.904-5.594-3.896-5.594-7.356c0-2.919,1.685-5.558,4.233-6.833c1.432-10.876,8.719-17.828,18.846-17.828
		c10.125,0,17.413,6.953,18.845,17.828c2.548,1.273,4.233,3.914,4.233,6.833c0,3.46-2.363,6.452-5.595,7.356
		C317.828,403.613,312.039,411.875,302.876,411.875 M302.876,367.496c-8.256,0-14.123,6.039-14.945,15.388l-0.123,1.393l-1.346,0.38
		c-1.537,0.435-2.61,1.852-2.61,3.446c0,1.855,1.448,3.423,3.297,3.571l1.422,0.111l0.374,1.377
		c1.923,7.087,6.593,14.658,13.931,14.658c7.339,0,12.008-7.571,13.931-14.658l0.373-1.377l1.423-0.111
		c1.85-0.148,3.296-1.716,3.296-3.571c0-1.595-1.073-3.012-2.608-3.446l-1.348-0.38l-0.123-1.393
		C316.998,373.535,311.133,367.496,302.876,367.496"/>
</g>
<path fill="#1A1A19" d="M367.485,329.3v-12.353c0-3.459-2.804-6.262-6.262-6.262h-18.838l-39.065-10.953l-37.761,10.953h-21.031
	c-3.458,0-6.261,2.803-6.261,6.262v28.881v6.282l0.008,49.781c0,35.677,64.601,64.6,64.601,64.6s64.6-28.923,64.6-64.6l0.009-49.781
	V329.3z M359.951,401.892c0,8.389-5.031,22.042-28.996,39.444c-11.289,8.198-22.75,14.196-28.079,16.82
	c-5.33-2.625-16.79-8.623-28.078-16.82c-23.966-17.402-28.997-31.056-28.997-39.445l-0.008-49.78v-6.282h114.166v6.281
	L359.951,401.892z"/>
<path fill="#FFFFFF" d="M296.089,333.899l2.438-2.59c1.054,1.385,2.469,2.168,4.185,2.168c1.927,0,3.041-1.475,3.041-3.161
	c0-1.986-1.054-3.16-2.86-3.16c-1.355,0-2.379,0.48-3.312,1.655l-2.92-0.783v-11.409h12.042v3.552h-8.008v5.148
	c0.783-0.964,2.138-1.655,3.673-1.655c3.041,0,5.479,2.378,5.479,6.533c0,4.032-2.739,6.862-7.014,6.862
	C299.732,337.06,297.594,335.917,296.089,333.899"/>
<polygon fill="#FFFFFF" points="273.822,324.151 266.363,323.021 263.043,315.923 259.723,323.021 252.264,324.151 257.653,329.686 
	256.306,337.48 263.043,333.8 269.78,337.48 268.433,329.686 "/>
<polygon fill="#FFFFFF" points="353.488,324.151 346.029,323.021 342.709,315.923 339.39,323.021 331.931,324.151 337.319,329.686 
	335.973,337.48 342.709,333.8 349.446,337.48 348.1,329.686 "/>
</svg>
