<?xml version="1.0" encoding="utf-8"?>
<!-- Generator: Adobe Illustrator 16.0.0, SVG Export Plug-In . SVG Version: 6.00 Build 0)  -->
<!DOCTYPE svg PUBLIC "-//W3C//DTD SVG 1.1//EN" "http://www.w3.org/Graphics/SVG/1.1/DTD/svg11.dtd">
<svg version="1.1" id="Layer_1" xmlns="http://www.w3.org/2000/svg" xmlns:xlink="http://www.w3.org/1999/xlink" x="0px" y="0px"
	 width="215px" height="195px" viewBox="0 0 215 195" enable-background="new 0 0 215 195" xml:space="preserve">
<polygon fill="#1A1A19" points="107.257,61.324 56.145,30.982 108.136,15.902 159.238,30.23 "/>
<path fill="#68CDF4" d="M45.261,50.248v19.618l0.008,48.103c0,34.476,62.423,62.423,62.423,62.423s62.424-27.947,62.424-62.423
	l0.008-48.103V50.248H45.261z"/>
<g opacity="0.5">
	<g>
		<g>
			<defs>
				<rect id="SVGID_1_" x="108.282" y="49.26" width="60.026" height="127.58"/>
			</defs>
			<clipPath id="SVGID_2_">
				<use xlink:href="#SVGID_1_"  overflow="visible"/>
			</clipPath>
			<path clip-path="url(#SVGID_2_)" fill="#1D6CA4" d="M108.411,176.836c5.589-2.753,17.618-9.048,29.468-17.652
				c9.189-6.674,16.453-13.391,21.588-19.967c5.865-7.513,8.842-14.722,8.842-21.427V70.566V49.261h-60.025v127.511
				C108.325,176.793,108.37,176.815,108.411,176.836"/>
		</g>
	</g>
</g>
<g opacity="0.4">
	<g>
		<g>
			<defs>
				<rect id="SVGID_3_" x="43.083" y="45.47" width="129.217" height="137.19"/>
			</defs>
			<clipPath id="SVGID_4_">
				<use xlink:href="#SVGID_3_"  overflow="visible"/>
			</clipPath>
			<path clip-path="url(#SVGID_4_)" fill="#FFFFFF" d="M158.504,59.267v9.012l-0.009,49.783c0,18.216-31.2,39.306-50.76,49.273
				c-5.696-2.925-14.985-8.061-24.254-14.771c-17.149-12.413-26.594-24.667-26.594-34.506L56.879,68.28v-9.015L158.504,59.267
				 M172.301,45.47H43.083v22.812l0.009,49.781c0,35.677,64.6,64.6,64.6,64.6s64.602-28.923,64.602-64.6l0.008-49.781L172.301,45.47
				L172.301,45.47z"/>
		</g>
	</g>
</g>
<path fill="#1A1A19" d="M164.775,52.994v15.284l-0.01,49.782c0,8.39-5.029,22.042-28.996,39.445
	c-11.291,8.198-22.754,14.196-28.081,16.82c-5.288-2.603-16.619-8.527-27.885-16.684c-24.124-17.462-29.188-31.164-29.188-39.584
	l-0.008-49.779V52.993L164.775,52.994 M172.301,45.47H43.083v22.812l0.009,49.781c0,35.677,64.6,64.6,64.6,64.6
	s64.602-28.923,64.602-64.6l0.008-49.781L172.301,45.47L172.301,45.47z"/>
<path fill="#FFFFFF" d="M148.082,97.389c-4.219,7.229-13.499,9.671-20.729,5.451c-7.229-4.218-9.67-13.499-5.451-20.728
	c4.219-7.23,13.498-9.67,20.729-5.452C149.859,80.879,152.301,90.16,148.082,97.389"/>
<g opacity="0.5">
	<g>
		<g>
			<defs>
				<rect id="SVGID_5_" x="121.082" y="89.75" width="17.184" height="14.05"/>
			</defs>
			<clipPath id="SVGID_6_">
				<use xlink:href="#SVGID_5_"  overflow="visible"/>
			</clipPath>
			<polygon clip-path="url(#SVGID_6_)" fill="#1D6CA4" points="138.266,91.66 128.99,103.795 121.082,94.794 134.992,89.75 			"/>
		</g>
	</g>
</g>
<path fill="#FFFFFF" d="M121.348,143.204c-4.22,7.229-13.5,9.67-20.729,5.451c-7.229-4.218-9.67-13.499-5.451-20.729
	c4.219-7.229,13.499-9.67,20.729-5.452C123.125,126.694,125.566,135.975,121.348,143.204"/>
<path fill="#191818" d="M134.979,107.081c-3.055,0-6.068-0.817-8.721-2.364c-3.998-2.333-6.848-6.083-8.023-10.559
	c-1.178-4.479-0.541-9.146,1.793-13.143c3.095-5.304,8.834-8.598,14.979-8.598c3.055,0,6.069,0.818,8.721,2.365
	c3.998,2.333,6.848,6.083,8.025,10.559c1.178,4.479,0.539,9.146-1.793,13.143C146.864,103.787,141.125,107.081,134.979,107.081
	 M135.006,76.765c-4.605,0-8.908,2.471-11.229,6.441c-1.746,2.997-2.223,6.493-1.342,9.846c0.883,3.354,3.018,6.163,6.013,7.911
	c1.987,1.159,4.245,1.773,6.53,1.773c4.604,0,8.907-2.471,11.227-6.442c1.748-2.996,2.227-6.492,1.344-9.845
	c-0.883-3.354-3.02-6.163-6.014-7.912C139.549,77.378,137.291,76.765,135.006,76.765"/>
<g opacity="0.5">
	<g>
		<g>
			<defs>
				<rect id="SVGID_7_" x="90.393" y="123.97" width="21.136" height="25.642"/>
			</defs>
			<clipPath id="SVGID_8_">
				<use xlink:href="#SVGID_7_"  overflow="visible"/>
			</clipPath>
			<polygon clip-path="url(#SVGID_8_)" fill="#1D6CA4" points="111.529,137.475 102.254,149.61 90.393,136.108 99.667,123.973 			
				"/>
		</g>
	</g>
</g>
<path fill="#191818" d="M108.243,152.896c-3.054,0-6.069-0.817-8.72-2.364c-8.252-4.815-11.048-15.448-6.232-23.7
	c3.094-5.304,8.834-8.598,14.98-8.598c3.054,0,6.068,0.817,8.72,2.364c8.252,4.814,11.048,15.447,6.233,23.7
	C120.129,149.603,114.389,152.896,108.243,152.896 M108.271,122.58c-4.606,0-8.91,2.47-11.229,6.441
	c-3.607,6.184-1.513,14.147,4.67,17.757c1.987,1.158,4.245,1.772,6.53,1.772c4.606,0,8.909-2.47,11.228-6.441
	c3.607-6.184,1.512-14.149-4.67-17.758C112.813,123.193,110.557,122.58,108.271,122.58"/>
<path fill="#68CDF4" d="M106.238,139.019c-0.591-0.345-1.101-0.846-1.462-1.484L75.499,85.742l59.493,0.011c2.21,0,4,1.791,4,4
	s-1.791,3.998-4,3.998L89.21,93.743l22.528,39.854c1.088,1.924,0.41,4.363-1.514,5.45
	C108.941,139.773,107.426,139.712,106.238,139.019"/>
<path fill="#191818" d="M108.26,141.07c-0.976,0-1.938-0.261-2.781-0.752c-0.839-0.49-1.535-1.197-2.014-2.045L72.919,84.235
	l62.074,0.011c1.47,0,2.853,0.572,3.892,1.612c1.041,1.04,1.612,2.423,1.611,3.893c0,3.035-2.471,5.505-5.504,5.505L91.79,95.248
	l21.259,37.608c1.493,2.643,0.559,6.008-2.083,7.501C110.141,140.824,109.204,141.07,108.26,141.07 M78.079,87.247l28.006,49.546
	c0.218,0.385,0.533,0.704,0.912,0.927c0.749,0.438,1.722,0.45,2.487,0.018c1.197-0.677,1.621-2.201,0.943-3.398L86.63,92.237
	l48.362,0.009c1.375,0,2.494-1.119,2.494-2.494c0-0.667-0.26-1.293-0.73-1.765c-0.471-0.471-1.097-0.73-1.763-0.73L78.079,87.247z"
	/>
<path fill="#FFFFFF" d="M95.445,97.381c-4.219,7.229-13.499,9.67-20.729,5.451c-7.229-4.219-9.67-13.499-5.451-20.729
	c4.219-7.229,13.499-9.67,20.729-5.45C97.223,80.871,99.664,90.152,95.445,97.381"/>
<path fill="#191818" d="M82.341,107.073c-3.054,0-6.069-0.817-8.72-2.364c-8.252-4.815-11.048-15.448-6.232-23.7
	c3.094-5.304,8.834-8.598,14.98-8.598c3.054,0,6.069,0.817,8.72,2.365c3.997,2.333,6.847,6.082,8.025,10.559
	c1.177,4.478,0.541,9.145-1.792,13.142C94.227,103.779,88.487,107.073,82.341,107.073 M82.369,76.757
	c-4.606,0-8.909,2.47-11.228,6.441c-3.607,6.184-1.513,14.148,4.67,17.757c1.987,1.159,4.245,1.772,6.53,1.772
	c4.607,0,8.909-2.47,11.228-6.441c1.747-2.996,2.224-6.492,1.342-9.846c-0.882-3.354-3.018-6.163-6.012-7.911
	C86.911,77.37,84.654,76.757,82.369,76.757"/>
<path fill="#1A1A19" d="M166.039,26.855H49.344c-3.458,0-6.261,2.803-6.261,6.261v28.882H172.3V33.116
	C172.3,29.658,169.497,26.855,166.039,26.855"/>
<path fill="#FFFFFF" d="M100.904,49.048l2.438-2.589c1.054,1.385,2.469,2.167,4.185,2.167c1.927,0,3.042-1.474,3.042-3.16
	c0-1.985-1.055-3.161-2.86-3.161c-1.355,0-2.379,0.481-3.312,1.655l-2.92-0.783V31.769h12.042v3.552h-8.008v5.147
	c0.783-0.963,2.138-1.654,3.674-1.654c3.041,0,5.479,2.379,5.479,6.532c0,4.033-2.739,6.863-7.014,6.863
	C104.547,52.209,102.409,51.066,100.904,49.048"/>
<polygon fill="#68CDF4" points="76.798,41.952 65.058,44.661 54.222,41.952 54.222,35.631 65.058,38.34 76.798,35.631 "/>
<polygon fill="#68CDF4" points="76.798,50.982 65.058,53.691 54.222,50.982 54.222,44.662 65.058,47.371 76.798,44.662 "/>
<polygon fill="#68CDF4" points="161.162,41.952 149.422,44.661 138.586,41.952 138.586,35.631 149.422,38.34 161.162,35.631 "/>
<polygon fill="#68CDF4" points="161.162,50.982 149.422,53.691 138.586,50.982 138.586,44.662 149.422,47.371 161.162,44.662 "/>
</svg>
