<?xml version="1.0" encoding="utf-8"?>
<!-- Generator: Adobe Illustrator 16.0.0, SVG Export Plug-In . SVG Version: 6.00 Build 0)  -->
<!DOCTYPE svg PUBLIC "-//W3C//DTD SVG 1.1//EN" "http://www.w3.org/Graphics/SVG/1.1/DTD/svg11.dtd">
<svg version="1.1" id="Layer_1" xmlns="http://www.w3.org/2000/svg" xmlns:xlink="http://www.w3.org/1999/xlink" x="0px" y="0px"
	 width="215px" height="195px" viewBox="0 0 215 195" enable-background="new 0 0 215 195" xml:space="preserve">
<path fill="#1A1A19" d="M127.979,165.557c-10.386,6.446-19.062,10.539-20.964,11.416c-1.905-0.877-10.58-4.97-20.967-11.416v0.492
	c-0.003-0.002,0.004-0.005,0-0.007v15.051c11.415,7.015,20.568,11.112,20.568,11.112l0.399-0.001l0.399,0.001
	c0,0,9.151-4.099,20.565-11.112v-15.051c-0.004,0.002,0.004,0.005,0,0.007V165.557L127.979,165.557z"/>
<path fill="#1A1A19" d="M82.73,164.42c-9.748-6.171-20.759-14.313-29.014-23.745v15.051c8.118,9.569,19.145,17.858,29.014,24.172
	v-15.053c-0.004-0.002,0.003-0.005,0-0.007V164.42z"/>
<path fill="#FFFFFF" d="M131.295,164.42v0.418c-0.004,0.002,0.004,0.005,0,0.007v15.053c9.869-6.313,20.896-14.603,29.016-24.172
	v-15.051C152.055,150.107,141.043,158.249,131.295,164.42"/>
<polygon fill="#1A1A19" points="106.579,52.324 55.466,21.982 107.458,6.902 158.561,21.23 "/>
<path fill="#68CDF4" d="M43.903,40.541v19.831l0.008,48.626c0,34.85,63.102,63.101,63.102,63.101s63.101-28.251,63.101-63.101
	l0.009-48.626V40.541H43.903z"/>
<g opacity="0.5">
	<g>
		<g>
			<defs>
				<rect id="SVGID_1_" x="107.6" y="40.26" width="60.03" height="127.58"/>
			</defs>
			<clipPath id="SVGID_2_">
				<use xlink:href="#SVGID_1_"  overflow="visible"/>
			</clipPath>
			<path clip-path="url(#SVGID_2_)" fill="#1D6CA4" d="M107.732,167.836c5.59-2.753,17.62-9.048,29.468-17.652
				c9.19-6.674,16.454-13.391,21.588-19.967c5.866-7.513,8.841-14.722,8.841-21.427V61.566V40.261h-60.025v127.511
				C107.646,167.793,107.691,167.815,107.732,167.836"/>
		</g>
	</g>
</g>
<g opacity="0.4">
	<g>
		<g>
			<defs>
				<rect id="SVGID_3_" x="42.4" y="36.47" width="129.22" height="137.19"/>
			</defs>
			<clipPath id="SVGID_4_">
				<use xlink:href="#SVGID_3_"  overflow="visible"/>
			</clipPath>
			<path clip-path="url(#SVGID_4_)" fill="#FFFFFF" d="M157.824,50.267v9.012l-0.008,49.783c0,18.216-31.199,39.306-50.76,49.273
				c-5.696-2.925-14.985-8.061-24.254-14.771c-17.149-12.413-26.594-24.667-26.594-34.506L56.2,59.28v-9.015L157.824,50.267
				 M171.622,36.47H42.404v22.812l0.009,49.781c0,35.677,64.6,64.6,64.6,64.6s64.601-28.923,64.601-64.6l0.009-49.781L171.622,36.47
				L171.622,36.47z"/>
		</g>
	</g>
</g>
<path fill="#1A1A19" d="M164.098,43.994v15.284l-0.01,49.782c0,8.39-5.029,22.042-28.997,39.445
	c-11.289,8.198-22.75,14.194-28.078,16.818c-5.329-2.625-16.79-8.622-28.078-16.818c-23.966-17.403-28.997-31.057-28.997-39.446
	L49.93,59.28V43.994H164.098 M171.622,36.47H42.404v22.812l0.009,49.781c0,35.677,64.6,64.6,64.6,64.6s64.601-28.923,64.601-64.6
	l0.009-49.781L171.622,36.47L171.622,36.47z"/>
<path fill="#FFFFFF" d="M147.404,88.389c-4.221,7.229-13.5,9.671-20.729,5.451c-7.229-4.218-9.67-13.499-5.45-20.728
	c4.219-7.23,13.498-9.67,20.729-5.452C149.182,71.879,151.623,81.16,147.404,88.389"/>
<g opacity="0.5">
	<g>
		<g>
			<defs>
				<rect id="SVGID_5_" x="120.4" y="80.75" width="17.188" height="14.05"/>
			</defs>
			<clipPath id="SVGID_6_">
				<use xlink:href="#SVGID_5_"  overflow="visible"/>
			</clipPath>
			<polygon clip-path="url(#SVGID_6_)" fill="#1D6CA4" points="137.586,82.66 128.311,94.795 120.402,85.794 134.314,80.75 			"/>
		</g>
	</g>
</g>
<path fill="#FFFFFF" d="M120.668,134.204c-4.219,7.229-13.499,9.67-20.729,5.451c-7.229-4.218-9.67-13.499-5.451-20.729
	c4.219-7.229,13.499-9.67,20.729-5.452C122.445,117.694,124.889,126.975,120.668,134.204"/>
<path fill="#191818" d="M134.3,98.081c-3.054,0-6.069-0.817-8.72-2.364c-8.252-4.814-11.049-15.448-6.232-23.7
	c3.094-5.304,8.834-8.598,14.98-8.598c3.054,0,6.068,0.818,8.72,2.365c8.252,4.813,11.048,15.448,6.233,23.7
	C146.186,94.787,140.445,98.081,134.3,98.081 M134.328,67.765c-4.605,0-8.909,2.471-11.229,6.441
	c-3.607,6.184-1.514,14.149,4.67,17.757c1.986,1.159,4.244,1.773,6.529,1.773c4.605,0,8.909-2.471,11.229-6.442
	c3.606-6.183,1.512-14.148-4.672-17.757C138.869,68.378,136.613,67.765,134.328,67.765"/>
<g opacity="0.5">
	<g>
		<g>
			<defs>
				<rect id="SVGID_7_" x="89.71" y="114.97" width="21.14" height="25.642"/>
			</defs>
			<clipPath id="SVGID_8_">
				<use xlink:href="#SVGID_7_"  overflow="visible"/>
			</clipPath>
			<polygon clip-path="url(#SVGID_8_)" fill="#1D6CA4" points="110.852,128.475 101.576,140.61 89.714,127.108 98.989,114.973 			
				"/>
		</g>
	</g>
</g>
<path fill="#191818" d="M107.565,143.896c-3.054,0-6.069-0.817-8.72-2.364c-8.252-4.814-11.048-15.448-6.233-23.7
	c3.094-5.304,8.835-8.598,14.981-8.598c3.054,0,6.069,0.817,8.72,2.364c8.252,4.815,11.049,15.447,6.232,23.7
	C119.451,140.603,113.711,143.896,107.565,143.896 M107.593,113.58c-4.607,0-8.909,2.47-11.228,6.441
	c-3.607,6.184-1.513,14.149,4.67,17.757c1.987,1.158,4.245,1.772,6.53,1.772c4.606,0,8.908-2.47,11.227-6.441
	c3.608-6.184,1.513-14.148-4.67-17.758C112.135,114.193,109.878,113.58,107.593,113.58"/>
<path fill="#68CDF4" d="M105.56,130.019c-0.591-0.345-1.102-0.846-1.463-1.484L74.821,76.742l59.494,0.011c2.209,0,4,1.791,4,4
	s-1.791,3.998-4,3.998l-45.783-0.008l22.529,39.854c1.088,1.924,0.409,4.363-1.514,5.45
	C108.262,130.773,106.747,130.712,105.56,130.019"/>
<path fill="#191818" d="M107.582,132.07c-0.976,0-1.938-0.261-2.781-0.752c-0.839-0.491-1.535-1.197-2.014-2.044L72.241,75.235
	l62.073,0.011c1.471,0,2.853,0.572,3.893,1.612c1.039,1.04,1.611,2.423,1.611,3.893c0,3.035-2.471,5.505-5.506,5.505l-43.202-0.008
	l21.258,37.608c1.492,2.643,0.559,6.008-2.083,7.501C109.461,131.824,108.525,132.07,107.582,132.07 M77.401,78.247l28.006,49.546
	c0.218,0.385,0.533,0.705,0.912,0.928c0.748,0.436,1.722,0.449,2.488,0.017c1.196-0.677,1.619-2.201,0.943-3.398L85.952,83.237
	l48.362,0.009c1.375,0,2.494-1.119,2.494-2.494c0-0.667-0.261-1.293-0.73-1.765c-0.471-0.471-1.098-0.73-1.764-0.73L77.401,78.247z"
	/>
<path fill="#FFFFFF" d="M94.766,88.381c-4.219,7.229-13.499,9.67-20.729,5.451c-7.229-4.219-9.67-13.499-5.451-20.729
	c4.219-7.229,13.499-9.67,20.729-5.45C96.544,71.871,98.985,81.152,94.766,88.381"/>
<path fill="#191818" d="M81.663,98.073c-3.054,0-6.069-0.817-8.72-2.364c-8.252-4.814-11.048-15.448-6.233-23.7
	c3.094-5.304,8.835-8.598,14.981-8.598c3.054,0,6.069,0.817,8.72,2.365c3.997,2.333,6.847,6.083,8.025,10.559
	c1.177,4.478,0.54,9.145-1.793,13.142C93.548,94.779,87.809,98.073,81.663,98.073 M81.69,67.757c-4.607,0-8.909,2.47-11.228,6.441
	c-3.607,6.184-1.513,14.148,4.67,17.757c1.987,1.159,4.245,1.772,6.53,1.772c4.606,0,8.908-2.47,11.227-6.441
	c1.748-2.996,2.225-6.492,1.343-9.846c-0.882-3.354-3.018-6.163-6.013-7.911C86.232,68.37,83.976,67.757,81.69,67.757"/>
<path fill="#1A1A19" d="M165.359,17.855H48.666c-3.458,0-6.261,2.803-6.261,6.261v28.882h129.217V24.116
	C171.621,20.658,168.818,17.855,165.359,17.855"/>
<path fill="#FFFFFF" d="M92.144,40.048l2.438-2.589c1.054,1.385,2.469,2.167,4.186,2.167c1.926,0,3.04-1.474,3.04-3.16
	c0-1.985-1.054-3.161-2.86-3.161c-1.355,0-2.378,0.481-3.312,1.655l-2.92-0.783V22.769h12.042v3.552H96.75v5.147
	c0.783-0.963,2.138-1.654,3.673-1.654c3.041,0,5.479,2.379,5.479,6.532c0,4.033-2.739,6.863-7.014,6.863
	C95.787,43.209,93.648,42.066,92.144,40.048"/>
<path fill="#FFFFFF" d="M107.827,32.822c0-5.179,2.137-10.355,7.104-10.355c4.998,0,7.104,5.178,7.104,10.355
	c0,5.147-2.077,10.388-7.104,10.388C109.964,43.21,107.827,37.971,107.827,32.822 M117.941,32.822c0-3.885-0.662-6.772-3.012-6.772
	c-2.316,0-2.979,2.89-2.979,6.772c0,3.854,0.662,6.805,2.979,6.805C117.279,39.627,117.941,36.677,117.941,32.822"/>
<polygon fill="#FFFFFF" points="159.546,33.334 147.807,36.043 136.971,33.334 136.971,27.013 147.807,29.722 159.546,27.013 "/>
<polygon fill="#FFFFFF" points="159.546,42.364 147.807,45.073 136.971,42.364 136.971,36.044 147.807,38.753 159.546,36.044 "/>
<polygon fill="#FFFFFF" points="76.038,31.967 68.579,30.836 65.259,23.738 61.939,30.836 54.48,31.967 59.869,37.501 
	58.522,45.296 65.259,41.615 71.996,45.296 70.649,37.501 "/>
</svg>
