<?xml version="1.0" encoding="utf-8"?>
<!-- Generator: Adobe Illustrator 16.0.0, SVG Export Plug-In . SVG Version: 6.00 Build 0)  -->
<!DOCTYPE svg PUBLIC "-//W3C//DTD SVG 1.1//EN" "http://www.w3.org/Graphics/SVG/1.1/DTD/svg11.dtd">
<svg version="1.1" id="Layer_1" xmlns="http://www.w3.org/2000/svg" xmlns:xlink="http://www.w3.org/1999/xlink" x="0px" y="0px"
	 width="612px" height="792px" viewBox="0 0 612 792" enable-background="new 0 0 612 792" xml:space="preserve">
<path fill="none" d="M346.63,60"/>
<path fill="none" d="M346.63,3305.597"/>
<path fill="#1A1A19" d="M323.86,458.557c-10.386,6.446-19.063,10.539-20.966,11.416c-1.905-0.877-10.58-4.97-20.967-11.416v0.492
	c-0.003-0.002,0.004-0.005,0-0.007v15.051c11.415,7.014,20.568,11.112,20.568,11.112l0.399-0.001l0.399,0.001
	c0,0,9.152-4.099,20.567-11.112v-15.051c-0.005,0.002,0.004,0.005,0,0.007V458.557z"/>
<path fill="#1A1A19" d="M278.611,457.42c-9.748-6.171-20.759-14.313-29.014-23.745v15.051c8.118,9.569,19.145,17.858,29.014,24.171
	v-15.052c-0.004-0.002,0.003-0.005,0-0.007V457.42z"/>
<path fill="#1A1A19" d="M327.177,457.42v0.418c-0.005,0.002,0.003,0.005,0,0.007v15.052c9.868-6.313,20.895-14.602,29.014-24.171
	v-15.051C347.935,443.107,336.924,451.249,327.177,457.42"/>
<path fill="#010101" d="M227.119,435.166c0.916-0.018,1.783-0.027,2.638,0.014c-3.211-4.571-2.29-10.164-4.058-15.119l0.017-0.219
	c5.329,2.008,8.124,6.701,10.731,11.657c1.862,3.592,3.683,7.273,6.339,9.993c-1.109,0.08-2.153,0.229-3.234,0.389
	c-1.122,0.164-2.275,0.386-3.435,0.691c-2.306,0.136-4.581,0.238-6.732,0.168c-4.035-0.172-7.795-0.855-11.037-2.606
	c-1.502-0.798-2.902-1.849-4.131-3.161c0.949-0.154,1.992-0.342,3.028-0.523C220.51,435.894,223.943,435.324,227.119,435.166"/>
<path fill="#010101" d="M217.064,417.619c1.062,1.399,2.535,2.593,3.517,4.192c0.274,0.794,0.599,1.551,0.922,2.329
	c0.784,2.099,1.378,4.127,0.792,5.831c-2.665-1.041-5.366-2.283-7.721-4.483c-1.341-1.617-2.338-3.36-3.036-5.244
	c-1.11-2.953-1.453-6.194-1.075-9.59c0.008-0.113,0.033-0.178,0.025-0.252l0.3-0.285c0.113,0.265,0.263,0.539,0.409,0.824
	C212.623,413.541,214.709,415.419,217.064,417.619"/>
<path fill="#010101" d="M377.243,435.166c-0.916-0.018-1.783-0.027-2.638,0.014c3.211-4.571,2.29-10.164,4.058-15.119l-0.017-0.219
	c-5.329,2.008-8.124,6.701-10.731,11.657c-1.862,3.592-3.683,7.273-6.339,9.993c1.109,0.08,2.153,0.229,3.234,0.389
	c1.121,0.164,2.274,0.386,3.435,0.691c2.306,0.136,4.581,0.238,6.731,0.168c4.035-0.172,7.796-0.855,11.037-2.606
	c1.502-0.798,2.902-1.849,4.132-3.161c-0.949-0.154-1.992-0.342-3.028-0.523C383.852,435.894,380.418,435.324,377.243,435.166"/>
<path fill="#010101" d="M388.725,417.619c-1.063,1.399-2.535,2.593-3.518,4.192c-0.273,0.794-0.599,1.551-0.922,2.329
	c-0.784,2.099-1.378,4.127-0.792,5.831c2.665-1.041,5.366-2.283,7.722-4.483c1.34-1.617,2.338-3.36,3.034-5.244
	c1.111-2.953,1.454-6.194,1.076-9.59c-0.008-0.113-0.033-0.178-0.024-0.252L395,410.117c-0.113,0.265-0.263,0.539-0.408,0.824
	C393.165,413.541,391.079,415.419,388.725,417.619"/>
<polygon fill="#1A1A19" points="302.459,345.324 251.348,314.982 303.338,299.902 354.44,314.23 "/>
<path fill="#66CDF4" d="M239.666,333.416v19.868l0.008,48.719c0,34.916,63.221,63.221,63.221,63.221s63.22-28.305,63.22-63.221
	l0.009-48.719v-19.868H239.666z"/>
<g opacity="0.5">
	<g>
		<defs>
			<rect id="SVGID_1_" x="303.48" y="333.26" width="60.03" height="127.58"/>
		</defs>
		<clipPath id="SVGID_2_">
			<use xlink:href="#SVGID_1_"  overflow="visible"/>
		</clipPath>
		<path clip-path="url(#SVGID_2_)" fill="#1B6BA4" d="M303.613,460.836c5.59-2.753,17.619-9.048,29.468-17.652
			c9.19-6.674,16.454-13.391,21.588-19.967c5.866-7.513,8.841-14.722,8.841-21.427v-47.224v-21.305h-60.025v127.511
			C303.527,460.793,303.572,460.815,303.613,460.836"/>
	</g>
</g>
<g opacity="0.4">
	<g>
		<defs>
			<rect id="SVGID_3_" x="238.29" y="329.47" width="129.21" height="137.19"/>
		</defs>
		<clipPath id="SVGID_4_">
			<use xlink:href="#SVGID_3_"  overflow="visible"/>
		</clipPath>
		<path clip-path="url(#SVGID_4_)" fill="#FFFFFF" d="M353.705,343.267v9.011l-0.008,49.784c0,18.215-31.199,39.305-50.76,49.273
			c-5.696-2.925-14.985-8.061-24.254-14.771c-17.149-12.413-26.594-24.667-26.594-34.505l-0.008-49.779v-9.014H353.705
			 M367.503,329.47H238.285v22.811l0.009,49.781c0,35.677,64.6,64.6,64.6,64.6s64.601-28.923,64.601-64.6l0.009-49.781V329.47z"/>
	</g>
</g>
<path fill="#1A1A19" d="M359.978,336.994v15.284l-0.009,49.783c0,8.389-5.03,22.042-28.997,39.445
	c-11.289,8.198-22.75,14.194-28.078,16.818c-5.329-2.625-16.79-8.622-28.078-16.818c-23.966-17.403-28.997-31.057-28.997-39.446
	l-0.008-49.78v-15.286H359.978 M367.503,329.47H238.285v22.811l0.009,49.781c0,35.677,64.6,64.6,64.6,64.6
	s64.601-28.923,64.601-64.6l0.009-49.781V329.47z"/>
<path fill="#FFFFFF" d="M343.285,381.389c-4.22,7.229-13.5,9.671-20.729,5.451c-7.229-4.218-9.67-13.499-5.451-20.728
	c4.22-7.23,13.499-9.67,20.729-5.452C345.063,364.879,347.504,374.16,343.285,381.389"/>
<g opacity="0.5">
	<g>
		<defs>
			<rect id="SVGID_5_" x="316.28" y="373.75" width="17.189" height="14.05"/>
		</defs>
		<clipPath id="SVGID_6_">
			<use xlink:href="#SVGID_5_"  overflow="visible"/>
		</clipPath>
		<polygon clip-path="url(#SVGID_6_)" fill="#1B6BA4" points="333.467,375.66 324.192,387.795 316.284,378.794 330.195,373.75 		"/>
	</g>
</g>
<path fill="#FFFFFF" d="M316.55,427.204c-4.22,7.229-13.499,9.67-20.729,5.451c-7.229-4.218-9.67-13.499-5.451-20.729
	c4.219-7.229,13.499-9.67,20.729-5.452C318.328,410.694,320.769,419.975,316.55,427.204"/>
<path fill="#191818" d="M330.181,391.081c-3.054,0-6.069-0.817-8.72-2.364c-3.998-2.333-6.848-6.083-8.024-10.559
	c-1.178-4.478-0.541-9.145,1.792-13.142c3.094-5.304,8.834-8.598,14.98-8.598c3.054,0,6.068,0.818,8.72,2.365
	c3.997,2.333,6.847,6.083,8.024,10.559c1.178,4.478,0.541,9.145-1.791,13.142C342.066,387.787,336.326,391.081,330.181,391.081
	 M330.209,360.765c-4.606,0-8.909,2.47-11.229,6.441c-1.747,2.996-2.224,6.493-1.342,9.846c0.882,3.354,3.018,6.163,6.013,7.911
	c1.986,1.159,4.244,1.773,6.529,1.773c4.606,0,8.909-2.47,11.228-6.442c1.747-2.995,2.225-6.492,1.342-9.845
	c-0.881-3.354-3.018-6.163-6.013-7.912C334.752,361.378,332.494,360.765,330.209,360.765"/>
<g opacity="0.5">
	<g>
		<defs>
			<rect id="SVGID_7_" x="285.6" y="407.97" width="21.13" height="25.641"/>
		</defs>
		<clipPath id="SVGID_8_">
			<use xlink:href="#SVGID_7_"  overflow="visible"/>
		</clipPath>
		<polygon clip-path="url(#SVGID_8_)" fill="#1B6BA4" points="306.732,421.475 297.457,433.61 285.595,420.108 294.87,407.973 		"/>
	</g>
</g>
<path fill="#191818" d="M303.446,436.896c-3.054,0-6.069-0.817-8.72-2.364c-3.998-2.333-6.848-6.083-8.025-10.559
	c-1.177-4.478-0.54-9.145,1.793-13.142c3.094-5.304,8.834-8.598,14.98-8.598c3.054,0,6.069,0.818,8.72,2.365
	c3.997,2.333,6.848,6.083,8.025,10.559c1.177,4.478,0.54,9.145-1.793,13.142C315.332,433.603,309.592,436.896,303.446,436.896
	 M303.474,406.58c-4.606,0-8.909,2.47-11.228,6.441c-1.747,2.997-2.224,6.493-1.342,9.846c0.882,3.354,3.017,6.163,6.012,7.911
	c1.987,1.159,4.245,1.773,6.53,1.773c4.606,0,8.908-2.47,11.227-6.442c1.748-2.996,2.225-6.492,1.343-9.845
	c-0.882-3.354-3.018-6.163-6.013-7.912C308.016,407.193,305.759,406.58,303.474,406.58"/>
<path fill="#66CDF4" d="M301.44,423.019c-0.591-0.345-1.101-0.846-1.463-1.485l-29.276-51.792l59.494,0.011
	c2.209,0,3.999,1.791,3.999,4s-1.791,3.998-4,3.998l-45.782-0.008l22.529,39.855c1.087,1.923,0.408,4.363-1.514,5.45
	C304.143,423.773,302.628,423.712,301.44,423.019"/>
<path fill="#191818" d="M303.463,425.07c-0.976,0-1.938-0.26-2.781-0.752c-0.839-0.491-1.535-1.197-2.014-2.044l-30.546-54.039
	l62.073,0.011c1.471,0,2.853,0.572,3.893,1.612c1.039,1.04,1.611,2.423,1.611,3.893c0,3.035-2.469,5.505-5.506,5.505l-43.201-0.008
	l21.259,37.608c1.492,2.643,0.558,6.008-2.083,7.501C305.343,424.824,304.407,425.07,303.463,425.07 M273.282,371.247l28.006,49.546
	c0.218,0.385,0.533,0.705,0.912,0.928c0.749,0.437,1.723,0.449,2.488,0.016c1.197-0.676,1.62-2.201,0.943-3.398l-23.798-42.102
	l48.362,0.009c1.375,0,2.494-1.119,2.494-2.494c0-0.667-0.26-1.293-0.73-1.765c-0.471-0.47-1.098-0.73-1.764-0.73L273.282,371.247z"
	/>
<path fill="#FFFFFF" d="M290.647,381.381c-4.219,7.229-13.499,9.67-20.729,5.451c-7.229-4.219-9.67-13.499-5.451-20.729
	c4.219-7.229,13.499-9.67,20.729-5.451C292.425,364.871,294.866,374.152,290.647,381.381"/>
<path fill="#191818" d="M277.543,391.073c-3.054,0-6.069-0.817-8.72-2.364c-3.998-2.333-6.848-6.083-8.025-10.559
	c-1.177-4.478-0.54-9.145,1.793-13.142c3.094-5.304,8.834-8.598,14.98-8.598c3.054,0,6.069,0.818,8.72,2.365
	c3.997,2.333,6.847,6.082,8.025,10.559c1.177,4.478,0.54,9.145-1.793,13.142C289.429,387.779,283.689,391.073,277.543,391.073
	 M277.571,360.757c-4.606,0-8.909,2.47-11.228,6.441c-1.747,2.997-2.224,6.493-1.342,9.846c0.882,3.354,3.017,6.163,6.012,7.911
	c1.987,1.159,4.245,1.773,6.53,1.773c4.606,0,8.908-2.47,11.227-6.442c1.748-2.996,2.225-6.492,1.343-9.846
	c-0.882-3.354-3.018-6.163-6.012-7.911C282.113,361.37,279.856,360.757,277.571,360.757"/>
<path fill="#1A1A19" d="M361.241,310.855H244.546c-3.458,0-6.261,2.803-6.261,6.261v28.882h129.217v-28.882
	C367.502,313.658,364.699,310.855,361.241,310.855"/>
<polygon fill="#FFFFFF" points="286.61,335.848 286.61,320.976 283.569,324.137 281.251,321.699 287.152,315.768 290.674,315.768 
	290.674,335.848 "/>
<path fill="#FFFFFF" d="M293.413,325.822c0-5.178,2.137-10.355,7.104-10.355c4.998,0,7.105,5.178,7.105,10.355
	c0,5.148-2.077,10.388-7.105,10.388C295.55,336.21,293.413,330.971,293.413,325.822 M303.528,325.822
	c0-3.884-0.662-6.772-3.011-6.772c-2.318,0-2.979,2.889-2.979,6.772c0,3.854,0.662,6.805,2.979,6.805
	C302.866,332.627,303.528,329.677,303.528,325.822"/>
<path fill="#FFFFFF" d="M309.577,325.822c0-5.178,2.137-10.355,7.104-10.355c4.997,0,7.105,5.178,7.105,10.355
	c0,5.148-2.078,10.388-7.105,10.388C311.714,336.21,309.577,330.971,309.577,325.822 M319.691,325.822
	c0-3.884-0.662-6.772-3.01-6.772c-2.318,0-2.98,2.889-2.98,6.772c0,3.854,0.662,6.805,2.98,6.805
	C319.029,332.627,319.691,329.677,319.691,325.822"/>
<polygon fill="#FFFFFF" points="273.84,324.967 266.382,323.836 263.061,316.738 259.74,323.836 252.281,324.967 257.671,330.501 
	256.323,338.296 263.061,334.615 269.797,338.296 268.451,330.501 "/>
<polygon fill="#FFFFFF" points="353.506,324.967 346.047,323.836 342.728,316.738 339.407,323.836 331.948,324.967 337.338,330.501 
	335.99,338.296 342.728,334.615 349.465,338.296 348.117,330.501 "/>
</svg>
