<?xml version="1.0" encoding="utf-8"?>
<!-- Generator: Adobe Illustrator 16.0.0, SVG Export Plug-In . SVG Version: 6.00 Build 0)  -->
<!DOCTYPE svg PUBLIC "-//W3C//DTD SVG 1.1//EN" "http://www.w3.org/Graphics/SVG/1.1/DTD/svg11.dtd">
<svg version="1.1" id="Layer_1" xmlns="http://www.w3.org/2000/svg" xmlns:xlink="http://www.w3.org/1999/xlink" x="0px" y="0px"
	 width="215px" height="195px" viewBox="0 0 215 195" enable-background="new 0 0 215 195" xml:space="preserve">
<path fill="#1A1A19" d="M128.859,165.557c-10.385,6.446-19.063,10.539-20.965,11.416c-1.905-0.877-10.58-4.97-20.967-11.416v0.492
	c-0.003-0.002,0.004-0.005,0-0.007v15.051c11.415,7.015,20.568,11.112,20.568,11.112l0.399-0.001l0.399,0.001
	c0,0,9.152-4.099,20.566-11.112v-15.051c-0.004,0.002,0.004,0.005,0,0.007V165.557L128.859,165.557z"/>
<path fill="#1A1A19" d="M83.611,164.42c-9.748-6.171-20.759-14.313-29.014-23.745v15.051c8.118,9.569,19.145,17.858,29.014,24.172
	v-15.053c-0.004-0.002,0.003-0.005,0-0.007V164.42z"/>
<path fill="#1A1A19" d="M132.177,164.42v0.418c-0.005,0.002,0.003,0.005,0,0.007v15.053c9.868-6.313,20.896-14.603,29.015-24.172
	v-15.051C152.936,150.107,141.924,158.249,132.177,164.42"/>
<path fill="#020202" d="M32.119,142.166c0.916-0.018,1.783-0.027,2.638,0.014c-3.211-4.57-2.29-10.164-4.058-15.119l0.017-0.219
	c5.329,2.008,8.124,6.701,10.731,11.657c1.862,3.592,3.683,7.273,6.339,9.993c-1.109,0.08-2.153,0.229-3.234,0.389
	c-1.122,0.164-2.275,0.386-3.435,0.691c-2.306,0.136-4.581,0.238-6.732,0.168c-4.035-0.172-7.795-0.855-11.037-2.606
	c-1.502-0.798-2.902-1.849-4.131-3.161c0.949-0.153,1.992-0.342,3.028-0.522C25.51,142.894,28.943,142.324,32.119,142.166"/>
<path fill="#020202" d="M22.064,124.619c1.062,1.398,2.535,2.593,3.517,4.191c0.274,0.795,0.599,1.552,0.922,2.329
	c0.784,2.1,1.378,4.127,0.792,5.831c-2.665-1.041-5.366-2.283-7.721-4.482c-1.341-1.617-2.338-3.36-3.036-5.244
	c-1.11-2.953-1.453-6.194-1.075-9.59c0.008-0.113,0.033-0.179,0.025-0.252l0.3-0.285c0.113,0.265,0.263,0.539,0.409,0.824
	C17.623,120.541,19.709,122.419,22.064,124.619"/>
<path fill="#020202" d="M182.243,142.166c-0.916-0.018-1.783-0.027-2.638,0.014c3.211-4.57,2.289-10.164,4.058-15.119l-0.017-0.219
	c-5.33,2.008-8.125,6.701-10.731,11.657c-1.862,3.592-3.683,7.273-6.339,9.993c1.109,0.08,2.152,0.229,3.234,0.389
	c1.121,0.164,2.273,0.386,3.435,0.691c2.306,0.136,4.581,0.238,6.731,0.168c4.035-0.172,7.795-0.855,11.037-2.606
	c1.502-0.798,2.901-1.849,4.131-3.161c-0.949-0.153-1.992-0.342-3.027-0.522C188.852,142.894,185.418,142.324,182.243,142.166"/>
<path fill="#020202" d="M193.725,124.619c-1.063,1.398-2.535,2.593-3.518,4.191c-0.273,0.795-0.6,1.552-0.922,2.329
	c-0.784,2.1-1.378,4.127-0.792,5.831c2.665-1.041,5.366-2.283,7.722-4.482c1.34-1.617,2.338-3.36,3.034-5.244
	c1.11-2.953,1.454-6.194,1.076-9.59c-0.009-0.113-0.033-0.179-0.024-0.252L200,117.117c-0.113,0.265-0.264,0.539-0.408,0.824
	C198.165,120.541,196.079,122.419,193.725,124.619"/>
<polygon fill="#1A1A19" points="107.459,52.324 56.348,21.982 108.338,6.902 159.439,21.23 "/>
<path fill="#68CDF4" d="M44.666,40.416v19.868l0.008,48.719c0,34.916,63.221,63.221,63.221,63.221s63.22-28.305,63.22-63.221
	l0.009-48.719V40.416H44.666z"/>
<g opacity="0.5">
	<g>
		<g>
			<defs>
				<rect id="SVGID_1_" x="108.48" y="40.26" width="60.029" height="127.58"/>
			</defs>
			<clipPath id="SVGID_2_">
				<use xlink:href="#SVGID_1_"  overflow="visible"/>
			</clipPath>
			<path clip-path="url(#SVGID_2_)" fill="#1D6CA4" d="M108.613,167.836c5.59-2.753,17.619-9.048,29.468-17.652
				c9.19-6.674,16.454-13.391,21.588-19.967c5.866-7.513,8.841-14.722,8.841-21.427V61.566V40.261h-60.025v127.511
				C108.527,167.793,108.572,167.815,108.613,167.836"/>
		</g>
	</g>
</g>
<g opacity="0.4">
	<g>
		<g>
			<defs>
				<rect id="SVGID_3_" x="43.29" y="36.47" width="129.21" height="137.19"/>
			</defs>
			<clipPath id="SVGID_4_">
				<use xlink:href="#SVGID_3_"  overflow="visible"/>
			</clipPath>
			<path clip-path="url(#SVGID_4_)" fill="#FFFFFF" d="M158.705,50.267v9.012l-0.008,49.783c0,18.216-31.199,39.306-50.76,49.273
				c-5.696-2.925-14.985-8.061-24.254-14.771c-17.149-12.413-26.594-24.667-26.594-34.506L57.081,59.28v-9.015L158.705,50.267
				 M172.503,36.47H43.285v22.812l0.009,49.781c0,35.677,64.6,64.6,64.6,64.6s64.601-28.923,64.601-64.6l0.009-49.781L172.503,36.47
				L172.503,36.47z"/>
		</g>
	</g>
</g>
<path fill="#1A1A19" d="M164.979,43.994v15.284l-0.01,49.782c0,8.39-5.029,22.042-28.996,39.445
	c-11.289,8.198-22.75,14.194-28.079,16.818c-5.329-2.625-16.79-8.622-28.078-16.818c-23.966-17.403-28.997-31.057-28.997-39.446
	L50.811,59.28V43.994H164.979 M172.503,36.47H43.285v22.812l0.009,49.781c0,35.677,64.6,64.6,64.6,64.6s64.601-28.923,64.601-64.6
	l0.009-49.781L172.503,36.47L172.503,36.47z"/>
<path fill="#FFFFFF" d="M148.285,88.389c-4.221,7.229-13.5,9.671-20.729,5.451c-7.229-4.218-9.671-13.499-5.451-20.728
	c4.22-7.23,13.498-9.67,20.729-5.452C150.063,71.879,152.504,81.16,148.285,88.389"/>
<g opacity="0.5">
	<g>
		<g>
			<defs>
				<rect id="SVGID_5_" x="121.279" y="80.75" width="17.189" height="14.05"/>
			</defs>
			<clipPath id="SVGID_6_">
				<use xlink:href="#SVGID_5_"  overflow="visible"/>
			</clipPath>
			<polygon clip-path="url(#SVGID_6_)" fill="#1D6CA4" points="138.467,82.66 129.191,94.795 121.284,85.794 135.195,80.75 			"/>
		</g>
	</g>
</g>
<path fill="#FFFFFF" d="M121.55,134.204c-4.22,7.229-13.499,9.67-20.729,5.451c-7.229-4.218-9.67-13.499-5.451-20.729
	c4.219-7.229,13.499-9.67,20.729-5.452C123.328,117.694,125.77,126.975,121.55,134.204"/>
<path fill="#191818" d="M135.182,98.081c-3.055,0-6.07-0.817-8.721-2.364c-3.998-2.333-6.848-6.083-8.023-10.559
	c-1.179-4.479-0.541-9.146,1.791-13.143c3.095-5.304,8.834-8.598,14.98-8.598c3.055,0,6.068,0.818,8.721,2.365
	c3.996,2.333,6.846,6.083,8.023,10.559c1.178,4.479,0.541,9.146-1.791,13.143C147.066,94.787,141.326,98.081,135.182,98.081
	 M135.209,67.765c-4.605,0-8.909,2.471-11.229,6.441c-1.748,2.996-2.225,6.493-1.342,9.846c0.881,3.354,3.018,6.163,6.012,7.911
	c1.986,1.159,4.244,1.773,6.529,1.773c4.606,0,8.909-2.471,11.229-6.442c1.746-2.995,2.225-6.492,1.342-9.845
	c-0.881-3.354-3.018-6.163-6.014-7.912C139.752,68.378,137.494,67.765,135.209,67.765"/>
<g opacity="0.5">
	<g>
		<g>
			<defs>
				<rect id="SVGID_7_" x="90.6" y="114.97" width="21.13" height="25.642"/>
			</defs>
			<clipPath id="SVGID_8_">
				<use xlink:href="#SVGID_7_"  overflow="visible"/>
			</clipPath>
			<polygon clip-path="url(#SVGID_8_)" fill="#1D6CA4" points="111.732,128.475 102.457,140.61 90.595,127.108 99.87,114.973 			"/>
		</g>
	</g>
</g>
<path fill="#191818" d="M108.445,143.896c-3.053,0-6.068-0.817-8.719-2.364c-3.998-2.333-6.848-6.083-8.025-10.56
	c-1.177-4.478-0.54-9.145,1.793-13.142c3.094-5.304,8.834-8.598,14.98-8.598c3.053,0,6.068,0.817,8.719,2.364
	c3.998,2.333,6.849,6.083,8.025,10.56c1.178,4.478,0.54,9.145-1.793,13.142C120.332,140.603,114.592,143.896,108.445,143.896
	 M108.475,113.58c-4.606,0-8.91,2.47-11.229,6.441c-1.747,2.996-2.224,6.492-1.342,9.846c0.882,3.354,3.017,6.163,6.012,7.911
	c1.987,1.159,4.245,1.772,6.529,1.772c4.606,0,8.908-2.47,11.228-6.441c1.748-2.996,2.226-6.492,1.343-9.846
	c-0.882-3.354-3.018-6.163-6.013-7.912C113.016,114.193,110.759,113.58,108.475,113.58"/>
<path fill="#68CDF4" d="M106.44,130.019c-0.591-0.345-1.101-0.846-1.463-1.484L75.701,76.742l59.494,0.011
	c2.209,0,3.998,1.791,3.998,4s-1.791,3.998-4,3.998l-45.781-0.008l22.529,39.854c1.086,1.924,0.408,4.363-1.515,5.45
	C109.143,130.773,107.628,130.712,106.44,130.019"/>
<path fill="#191818" d="M108.463,132.07c-0.976,0-1.938-0.261-2.781-0.752c-0.839-0.491-1.535-1.197-2.014-2.044L73.122,75.235
	l62.073,0.011c1.471,0,2.853,0.572,3.893,1.612c1.039,1.04,1.611,2.423,1.611,3.893c0,3.035-2.469,5.505-5.506,5.505l-43.201-0.008
	l21.259,37.608c1.492,2.643,0.558,6.008-2.083,7.501C110.343,131.824,109.407,132.07,108.463,132.07 M78.282,78.247l28.006,49.546
	c0.218,0.385,0.533,0.705,0.912,0.928c0.749,0.438,1.723,0.449,2.487,0.017c1.197-0.677,1.621-2.201,0.943-3.398L86.833,83.237
	l48.362,0.009c1.375,0,2.494-1.119,2.494-2.494c0-0.667-0.26-1.293-0.73-1.765c-0.471-0.471-1.098-0.73-1.764-0.73L78.282,78.247z"
	/>
<path fill="#FFFFFF" d="M95.647,88.381c-4.219,7.229-13.499,9.67-20.729,5.451c-7.229-4.219-9.67-13.499-5.451-20.729
	c4.219-7.229,13.499-9.67,20.729-5.45C97.425,71.871,99.866,81.152,95.647,88.381"/>
<path fill="#191818" d="M82.543,98.073c-3.054,0-6.069-0.817-8.72-2.364c-3.998-2.333-6.848-6.083-8.025-10.559
	c-1.177-4.479-0.54-9.146,1.793-13.143c3.094-5.304,8.834-8.598,14.98-8.598c3.054,0,6.069,0.817,8.72,2.365
	c3.997,2.333,6.847,6.082,8.025,10.559c1.177,4.478,0.54,9.145-1.793,13.142C94.429,94.779,88.689,98.073,82.543,98.073
	 M82.571,67.757c-4.606,0-8.909,2.47-11.228,6.441c-1.747,2.997-2.224,6.493-1.342,9.846c0.882,3.354,3.017,6.163,6.012,7.911
	c1.987,1.159,4.245,1.773,6.53,1.773c4.606,0,8.908-2.471,11.227-6.442c1.748-2.996,2.225-6.492,1.343-9.846
	c-0.882-3.354-3.018-6.163-6.012-7.911C87.113,68.37,84.856,67.757,82.571,67.757"/>
<path fill="#1A1A19" d="M166.241,17.855H49.546c-3.458,0-6.261,2.803-6.261,6.261v28.882h129.217V24.116
	C172.502,20.658,169.699,17.855,166.241,17.855"/>
<polygon fill="#FFFFFF" points="91.61,42.848 91.61,27.976 88.569,31.137 86.251,28.699 92.152,22.768 95.674,22.768 95.674,42.848 
	"/>
<path fill="#FFFFFF" d="M98.413,32.822c0-5.179,2.137-10.355,7.104-10.355c4.999,0,7.105,5.178,7.105,10.355
	c0,5.147-2.077,10.388-7.105,10.388C100.55,43.21,98.413,37.971,98.413,32.822 M108.527,32.822c0-3.885-0.661-6.772-3.01-6.772
	c-2.318,0-2.979,2.89-2.979,6.772c0,3.854,0.662,6.805,2.979,6.805C107.866,39.627,108.527,36.677,108.527,32.822"/>
<path fill="#FFFFFF" d="M114.577,32.822c0-5.179,2.137-10.355,7.104-10.355c4.996,0,7.104,5.178,7.104,10.355
	c0,5.147-2.078,10.388-7.104,10.388C116.714,43.21,114.577,37.971,114.577,32.822 M124.691,32.822c0-3.885-0.662-6.772-3.01-6.772
	c-2.318,0-2.98,2.89-2.98,6.772c0,3.854,0.662,6.805,2.98,6.805C124.029,39.627,124.691,36.677,124.691,32.822"/>
<polygon fill="#FFFFFF" points="78.84,31.967 71.382,30.836 68.061,23.738 64.74,30.836 57.281,31.967 62.671,37.501 61.323,45.296 
	68.061,41.615 74.797,45.296 73.451,37.501 "/>
<polygon fill="#FFFFFF" points="158.506,31.967 151.047,30.836 147.729,23.738 144.407,30.836 136.948,31.967 142.338,37.501 
	140.99,45.296 147.729,41.615 154.465,45.296 153.117,37.501 "/>
</svg>
