<?xml version="1.0" encoding="utf-8"?>
<!-- Generator: Adobe Illustrator 16.0.0, SVG Export Plug-In . SVG Version: 6.00 Build 0)  -->
<!DOCTYPE svg PUBLIC "-//W3C//DTD SVG 1.1//EN" "http://www.w3.org/Graphics/SVG/1.1/DTD/svg11.dtd">
<svg version="1.1" id="Layer_1" xmlns="http://www.w3.org/2000/svg" xmlns:xlink="http://www.w3.org/1999/xlink" x="0px" y="0px"
	 width="215px" height="195px" viewBox="0 0 215 195" enable-background="new 0 0 215 195" xml:space="preserve">
<path fill="#68CDF4" d="M45.089,41.317v19.598l0.008,48.051c0,34.438,62.355,62.355,62.355,62.355s62.356-27.918,62.356-62.355
	l0.008-48.051V41.317H45.089z"/>
<g opacity="0.5">
	<g>
		<g>
			<defs>
				<rect id="SVGID_1_" x="108.04" y="40.26" width="60.03" height="127.58"/>
			</defs>
			<clipPath id="SVGID_2_">
				<use xlink:href="#SVGID_1_"  overflow="visible"/>
			</clipPath>
			<path clip-path="url(#SVGID_2_)" fill="#1D6CA4" d="M108.173,167.836c5.591-2.753,17.618-9.048,29.468-17.652
				c9.191-6.674,16.455-13.391,21.588-19.967c5.867-7.513,8.842-14.722,8.842-21.427V61.566V40.261h-60.025v127.511
				C108.086,167.793,108.132,167.815,108.173,167.836"/>
		</g>
	</g>
</g>
<g opacity="0.4">
	<g>
		<g>
			<defs>
				<rect id="SVGID_3_" x="42.84" y="36.47" width="129.221" height="137.19"/>
			</defs>
			<clipPath id="SVGID_4_">
				<use xlink:href="#SVGID_3_"  overflow="visible"/>
			</clipPath>
			<path clip-path="url(#SVGID_4_)" fill="#FFFFFF" d="M158.266,50.267v9.012l-0.008,49.783c0,18.216-31.199,39.306-50.761,49.273
				c-5.696-2.925-14.985-8.061-24.254-14.771c-17.149-12.413-26.594-24.667-26.594-34.506L56.641,59.28v-9.015L158.266,50.267
				 M172.063,36.47H42.844v22.812l0.009,49.781c0,35.677,64.6,64.6,64.6,64.6s64.602-28.923,64.602-64.6l0.008-49.781V36.47z"/>
		</g>
	</g>
</g>
<path fill="#1A1A19" d="M164.537,43.994v15.284l-0.01,49.782c0,8.39-5.029,22.042-28.996,39.445
	c-11.289,8.198-22.75,14.194-28.078,16.818c-5.329-2.625-16.79-8.622-28.078-16.818c-23.966-17.403-28.997-31.057-28.997-39.446
	L50.37,59.28V43.994H164.537 M172.063,36.47H42.844v22.812l0.009,49.781c0,35.677,64.6,64.6,64.6,64.6s64.602-28.923,64.602-64.6
	l0.008-49.781V36.47z"/>
<path fill="#FFFFFF" d="M147.844,88.389c-4.219,7.229-13.498,9.671-20.729,5.451c-7.229-4.218-9.67-13.499-5.451-20.728
	c4.219-7.23,13.499-9.67,20.729-5.452C149.622,71.879,152.063,81.16,147.844,88.389"/>
<g opacity="0.5">
	<g>
		<g>
			<defs>
				<rect id="SVGID_5_" x="120.84" y="80.75" width="17.189" height="14.05"/>
			</defs>
			<clipPath id="SVGID_6_">
				<use xlink:href="#SVGID_5_"  overflow="visible"/>
			</clipPath>
			<polygon clip-path="url(#SVGID_6_)" fill="#1D6CA4" points="138.027,82.66 128.752,94.795 120.844,85.794 134.754,80.75 			"/>
		</g>
	</g>
</g>
<path fill="#FFFFFF" d="M121.109,134.204c-4.221,7.229-13.5,9.67-20.729,5.451c-7.229-4.218-9.67-13.499-5.451-20.729
	c4.219-7.229,13.499-9.67,20.729-5.452C122.887,117.694,125.328,126.975,121.109,134.204"/>
<path fill="#191818" d="M134.74,98.081c-3.055,0-6.069-0.817-8.721-2.364c-8.252-4.814-11.047-15.448-6.231-23.7
	c3.094-5.304,8.834-8.598,14.979-8.598c3.055,0,6.068,0.818,8.721,2.365c3.996,2.333,6.847,6.083,8.025,10.559
	c1.176,4.479,0.541,9.146-1.793,13.143C146.626,94.787,140.887,98.081,134.74,98.081 M134.768,67.765
	c-4.604,0-8.908,2.471-11.228,6.441c-3.606,6.184-1.513,14.149,4.67,17.757c1.987,1.159,4.245,1.773,6.53,1.773
	c4.607,0,8.908-2.471,11.229-6.442c1.746-2.995,2.225-6.492,1.342-9.845c-0.883-3.354-3.019-6.163-6.014-7.912
	C139.311,68.378,137.053,67.765,134.768,67.765"/>
<g opacity="0.5">
	<g>
		<g>
			<defs>
				<rect id="SVGID_7_" x="90.15" y="114.97" width="21.14" height="25.642"/>
			</defs>
			<clipPath id="SVGID_8_">
				<use xlink:href="#SVGID_7_"  overflow="visible"/>
			</clipPath>
			<polygon clip-path="url(#SVGID_8_)" fill="#1D6CA4" points="111.292,128.475 102.017,140.61 90.154,127.108 99.43,114.973 			"/>
		</g>
	</g>
</g>
<path fill="#191818" d="M108.005,143.896c-3.054,0-6.069-0.817-8.72-2.364c-3.998-2.333-6.848-6.083-8.025-10.56
	c-1.177-4.478-0.54-9.145,1.793-13.142c3.093-5.304,8.834-8.598,14.98-8.598c3.054,0,6.068,0.817,8.721,2.364
	c8.252,4.815,11.047,15.447,6.23,23.7C119.891,140.603,114.15,143.896,108.005,143.896 M108.033,113.58
	c-4.607,0-8.909,2.47-11.227,6.441c-1.748,2.996-2.225,6.492-1.343,9.846c0.882,3.354,3.017,6.163,6.012,7.911
	c1.987,1.159,4.245,1.772,6.53,1.772c4.606,0,8.908-2.47,11.228-6.441c3.606-6.184,1.513-14.148-4.67-17.758
	C112.575,114.193,110.318,113.58,108.033,113.58"/>
<path fill="#68CDF4" d="M106,130.019c-0.591-0.345-1.102-0.846-1.462-1.484L75.261,76.742l59.494,0.011c2.209,0,3.999,1.791,3.999,4
	s-1.791,3.998-4,3.998l-45.782-0.008l22.529,39.854c1.087,1.924,0.409,4.363-1.515,5.45
	C108.703,130.773,107.188,130.712,106,130.019"/>
<path fill="#191818" d="M108.021,132.07c-0.976,0-1.938-0.261-2.78-0.752c-0.839-0.491-1.535-1.197-2.014-2.044L72.681,75.235
	l62.074,0.011c1.47,0,2.853,0.572,3.892,1.612s1.61,2.423,1.61,3.893c0,3.035-2.469,5.505-5.504,5.505l-43.202-0.008l21.258,37.608
	c1.492,2.643,0.56,6.008-2.082,7.501C109.9,131.824,108.966,132.07,108.021,132.07 M77.841,78.247l28.006,49.546
	c0.218,0.385,0.533,0.705,0.912,0.928c0.748,0.436,1.722,0.449,2.487,0.017c1.197-0.677,1.62-2.201,0.943-3.398L86.392,83.237
	l48.361,0.009c1.375,0,2.494-1.119,2.494-2.494c0-0.667-0.259-1.293-0.729-1.765c-0.472-0.471-1.097-0.73-1.763-0.73L77.841,78.247z
	"/>
<path fill="#FFFFFF" d="M95.207,88.381c-4.219,7.229-13.499,9.67-20.729,5.451c-7.229-4.219-9.67-13.499-5.451-20.729
	c4.219-7.229,13.499-9.67,20.729-5.45C96.984,71.871,99.426,81.152,95.207,88.381"/>
<path fill="#191818" d="M82.103,98.073c-3.054,0-6.069-0.817-8.72-2.364c-3.998-2.333-6.848-6.083-8.025-10.559
	c-1.177-4.479-0.54-9.146,1.793-13.143c3.093-5.304,8.834-8.598,14.98-8.598c3.054,0,6.069,0.817,8.72,2.365
	c3.997,2.333,6.847,6.083,8.025,10.559c1.177,4.478,0.54,9.145-1.793,13.142C93.989,94.779,88.249,98.073,82.103,98.073
	 M82.131,67.757c-4.607,0-8.909,2.47-11.227,6.441c-1.748,2.997-2.225,6.493-1.343,9.846c0.882,3.354,3.017,6.163,6.012,7.911
	c1.987,1.159,4.245,1.773,6.53,1.773c4.606,0,8.908-2.471,11.227-6.442c1.748-2.996,2.225-6.492,1.343-9.846
	c-0.882-3.354-3.018-6.163-6.013-7.911C86.673,68.37,84.416,67.757,82.131,67.757"/>
<path fill="#1A1A19" d="M128.42,165.557c-10.387,6.446-19.063,10.539-20.966,11.416c-1.905-0.877-10.58-4.97-20.967-11.416v0.492
	c-0.003-0.002,0.004-0.005,0-0.007v15.051c11.415,7.015,20.568,11.112,20.568,11.112l0.399-0.001l0.399,0.001
	c0,0,9.152-4.099,20.567-11.112v-15.051c-0.004,0.002,0.004,0.005,0,0.007V165.557L128.42,165.557z"/>
<path fill="#1A1A19" d="M83.171,164.42c-9.748-6.171-20.759-14.313-29.014-23.745v15.051c8.118,9.569,19.145,17.858,29.014,24.172
	v-15.053c-0.004-0.002,0.003-0.005,0-0.007V164.42z"/>
<path fill="#1A1A19" d="M131.736,164.42v0.418c-0.004,0.002,0.002,0.005,0,0.007v15.053c9.869-6.313,20.895-14.603,29.014-24.172
	v-15.051C152.494,150.107,141.484,158.249,131.736,164.42"/>
<polygon fill="#1A1A19" points="107.019,52.324 55.907,21.982 107.898,6.902 159,21.23 "/>
<path fill="#1A1A19" d="M165.801,17.855H49.106c-3.458,0-6.261,2.803-6.261,6.261v28.882h129.217V24.116
	C172.063,20.658,169.259,17.855,165.801,17.855"/>
<polygon fill="#FFFFFF" points="95.398,42.848 101.419,26.32 93.11,26.32 93.11,22.768 105.996,22.768 105.996,25.568 
	99.764,42.848 "/>
<path fill="#FFFFFF" d="M107.709,40.048l2.438-2.589c1.055,1.385,2.471,2.167,4.186,2.167c1.928,0,3.041-1.474,3.041-3.16
	c0-1.985-1.055-3.161-2.859-3.161c-1.354,0-2.379,0.481-3.312,1.655l-2.921-0.783V22.769h12.043v3.552h-8.008v5.147
	c0.783-0.963,2.138-1.654,3.672-1.654c3.041,0,5.479,2.379,5.479,6.532c0,4.033-2.739,6.863-7.015,6.863
	C111.354,43.209,109.214,42.066,107.709,40.048"/>
<polygon fill="#FFFFFF" points="78.399,31.967 70.941,30.836 67.62,23.738 64.3,30.836 56.841,31.967 62.23,37.501 60.883,45.296 
	67.62,41.615 74.357,45.296 73.01,37.501 "/>
<polygon fill="#FFFFFF" points="158.066,31.967 150.607,30.836 147.287,23.738 143.967,30.836 136.508,31.967 141.896,37.501 
	140.55,45.296 147.287,41.615 154.023,45.296 152.677,37.501 "/>
</svg>
