<?xml version="1.0" encoding="utf-8"?>
<!-- Generator: Adobe Illustrator 16.0.0, SVG Export Plug-In . SVG Version: 6.00 Build 0)  -->
<!DOCTYPE svg PUBLIC "-//W3C//DTD SVG 1.1//EN" "http://www.w3.org/Graphics/SVG/1.1/DTD/svg11.dtd">
<svg version="1.1" id="Layer_1" xmlns="http://www.w3.org/2000/svg" xmlns:xlink="http://www.w3.org/1999/xlink" x="0px" y="0px"
	 width="612px" height="792px" viewBox="0 0 612 792" enable-background="new 0 0 612 792" xml:space="preserve">
<path fill="none" d="M346.63,60"/>
<path fill="none" d="M346.63,3305.597"/>
<path fill="#1A1A19" d="M322.979,458.557c-10.386,6.446-19.062,10.539-20.965,11.416c-1.905-0.877-10.58-4.97-20.967-11.416v0.492
	c-0.003-0.002,0.004-0.005,0-0.007v15.051c11.415,7.014,20.568,11.112,20.568,11.112l0.399-0.001l0.399,0.001
	c0,0,9.152-4.099,20.566-11.112v-15.051c-0.004,0.002,0.004,0.005,0,0.007V458.557z"/>
<path fill="#1A1A19" d="M277.73,457.42c-9.748-6.171-20.759-14.313-29.014-23.745v15.051c8.118,9.569,19.145,17.858,29.014,24.171
	v-15.052c-0.004-0.002,0.003-0.005,0-0.007V457.42z"/>
<path fill="#FFFFFF" d="M326.295,457.42v0.418c-0.004,0.002,0.004,0.005,0,0.007v15.052c9.869-6.313,20.896-14.602,29.015-24.171
	v-15.051C347.054,443.107,336.043,451.249,326.295,457.42"/>
<polygon fill="#1A1A19" points="301.579,345.324 250.466,314.982 302.458,299.902 353.56,314.23 "/>
<path fill="#66CDF4" d="M238.903,333.541v19.831l0.008,48.626c0,34.85,63.102,63.101,63.102,63.101s63.101-28.251,63.101-63.101
	l0.009-48.626v-19.831H238.903z"/>
<g opacity="0.5">
	<g>
		<defs>
			<rect id="SVGID_1_" x="302.6" y="333.26" width="60.03" height="127.58"/>
		</defs>
		<clipPath id="SVGID_2_">
			<use xlink:href="#SVGID_1_"  overflow="visible"/>
		</clipPath>
		<path clip-path="url(#SVGID_2_)" fill="#1B6BA4" d="M302.732,460.836c5.59-2.753,17.62-9.048,29.468-17.652
			c9.19-6.674,16.454-13.391,21.588-19.967c5.866-7.513,8.841-14.722,8.841-21.427v-47.224v-21.305h-60.025v127.511
			C302.646,460.793,302.691,460.815,302.732,460.836"/>
	</g>
</g>
<g opacity="0.4">
	<g>
		<defs>
			<rect id="SVGID_3_" x="237.4" y="329.47" width="129.22" height="137.19"/>
		</defs>
		<clipPath id="SVGID_4_">
			<use xlink:href="#SVGID_3_"  overflow="visible"/>
		</clipPath>
		<path clip-path="url(#SVGID_4_)" fill="#FFFFFF" d="M352.824,343.267v9.011l-0.008,49.784c0,18.215-31.199,39.305-50.76,49.273
			c-5.696-2.925-14.985-8.061-24.254-14.771c-17.149-12.413-26.594-24.667-26.594-34.505l-0.008-49.779v-9.014H352.824
			 M366.622,329.47H237.404v22.811l0.009,49.781c0,35.677,64.6,64.6,64.6,64.6s64.601-28.923,64.601-64.6l0.009-49.781V329.47z"/>
	</g>
</g>
<path fill="#1A1A19" d="M359.097,336.994v15.284l-0.009,49.783c0,8.389-5.03,22.042-28.997,39.445
	c-11.289,8.198-22.75,14.194-28.078,16.818c-5.329-2.625-16.79-8.622-28.078-16.818c-23.966-17.403-28.997-31.057-28.997-39.446
	l-0.008-49.78v-15.286H359.097 M366.622,329.47H237.404v22.811l0.009,49.781c0,35.677,64.6,64.6,64.6,64.6
	s64.601-28.923,64.601-64.6l0.009-49.781V329.47z"/>
<path fill="#FFFFFF" d="M342.404,381.389c-4.22,7.229-13.5,9.671-20.729,5.451c-7.229-4.218-9.67-13.499-5.451-20.728
	c4.219-7.23,13.499-9.67,20.729-5.452C344.182,364.879,346.623,374.16,342.404,381.389"/>
<g opacity="0.5">
	<g>
		<defs>
			<rect id="SVGID_5_" x="315.4" y="373.75" width="17.189" height="14.05"/>
		</defs>
		<clipPath id="SVGID_6_">
			<use xlink:href="#SVGID_5_"  overflow="visible"/>
		</clipPath>
		<polygon clip-path="url(#SVGID_6_)" fill="#1B6BA4" points="332.586,375.66 323.311,387.795 315.403,378.794 329.314,373.75 		"/>
	</g>
</g>
<path fill="#FFFFFF" d="M315.668,427.204c-4.219,7.229-13.499,9.67-20.729,5.451c-7.229-4.218-9.67-13.499-5.451-20.729
	c4.219-7.229,13.499-9.67,20.729-5.452C317.446,410.694,319.888,419.975,315.668,427.204"/>
<path fill="#191818" d="M329.3,391.081c-3.054,0-6.069-0.817-8.72-2.364c-8.252-4.815-11.049-15.448-6.232-23.7
	c3.094-5.304,8.834-8.598,14.98-8.598c3.054,0,6.068,0.818,8.72,2.365c8.252,4.814,11.048,15.448,6.233,23.7
	C341.186,387.787,335.445,391.081,329.3,391.081 M329.328,360.765c-4.606,0-8.909,2.47-11.229,6.441
	c-3.607,6.184-1.513,14.149,4.67,17.757c1.987,1.159,4.245,1.773,6.53,1.773c4.606,0,8.909-2.47,11.228-6.442
	c3.607-6.183,1.512-14.149-4.671-17.757C333.869,361.378,331.613,360.765,329.328,360.765"/>
<g opacity="0.5">
	<g>
		<defs>
			<rect id="SVGID_7_" x="284.71" y="407.97" width="21.14" height="25.641"/>
		</defs>
		<clipPath id="SVGID_8_">
			<use xlink:href="#SVGID_7_"  overflow="visible"/>
		</clipPath>
		<polygon clip-path="url(#SVGID_8_)" fill="#1B6BA4" points="305.851,421.475 296.576,433.61 284.714,420.108 293.989,407.973 		
			"/>
	</g>
</g>
<path fill="#191818" d="M302.565,436.896c-3.054,0-6.069-0.817-8.72-2.364c-8.252-4.814-11.048-15.448-6.233-23.7
	c3.094-5.304,8.835-8.598,14.981-8.598c3.054,0,6.069,0.818,8.72,2.365c8.252,4.815,11.049,15.447,6.232,23.7
	C314.451,433.603,308.711,436.896,302.565,436.896 M302.593,406.58c-4.607,0-8.909,2.47-11.228,6.441
	c-3.607,6.184-1.513,14.15,4.67,17.757c1.987,1.159,4.245,1.773,6.53,1.773c4.606,0,8.908-2.47,11.227-6.442
	c3.608-6.183,1.513-14.148-4.67-17.757C307.135,407.193,304.878,406.58,302.593,406.58"/>
<path fill="#66CDF4" d="M300.56,423.019c-0.591-0.345-1.102-0.846-1.463-1.485l-29.276-51.792l59.494,0.011
	c2.209,0,3.999,1.791,3.999,4s-1.791,3.998-4,3.998l-45.782-0.008l22.529,39.855c1.087,1.923,0.409,4.363-1.514,5.45
	C303.262,423.773,301.747,423.712,300.56,423.019"/>
<path fill="#191818" d="M302.582,425.07c-0.976,0-1.938-0.26-2.781-0.752c-0.839-0.491-1.535-1.197-2.014-2.044l-30.546-54.039
	l62.073,0.011c1.471,0,2.853,0.572,3.893,1.612c1.039,1.04,1.611,2.423,1.611,3.893c0,3.035-2.471,5.505-5.506,5.505l-43.201-0.008
	l21.258,37.608c1.493,2.643,0.559,6.008-2.083,7.501C304.461,424.824,303.526,425.07,302.582,425.07 M272.401,371.247l28.006,49.546
	c0.218,0.385,0.533,0.705,0.912,0.928c0.748,0.435,1.722,0.449,2.487,0.016c1.197-0.676,1.62-2.201,0.944-3.398l-23.798-42.102
	l48.362,0.009c1.375,0,2.494-1.119,2.494-2.494c0-0.667-0.26-1.293-0.73-1.765c-0.471-0.47-1.098-0.73-1.764-0.73L272.401,371.247z"
	/>
<path fill="#FFFFFF" d="M289.766,381.381c-4.219,7.229-13.499,9.67-20.729,5.451c-7.229-4.219-9.67-13.499-5.451-20.729
	c4.219-7.229,13.499-9.67,20.729-5.451C291.544,364.871,293.985,374.152,289.766,381.381"/>
<path fill="#191818" d="M276.663,391.073c-3.054,0-6.069-0.817-8.72-2.364c-8.252-4.814-11.048-15.448-6.233-23.7
	c3.094-5.304,8.835-8.598,14.981-8.598c3.054,0,6.069,0.818,8.72,2.365c3.997,2.333,6.847,6.083,8.025,10.559
	c1.177,4.478,0.54,9.145-1.793,13.142C288.548,387.779,282.809,391.073,276.663,391.073 M276.69,360.757
	c-4.607,0-8.909,2.47-11.228,6.441c-3.607,6.184-1.513,14.149,4.67,17.757c1.987,1.159,4.245,1.773,6.53,1.773
	c4.606,0,8.908-2.47,11.227-6.442c1.748-2.996,2.225-6.492,1.343-9.846c-0.882-3.354-3.018-6.163-6.013-7.911
	C281.232,361.37,278.976,360.757,276.69,360.757"/>
<path fill="#1A1A19" d="M360.36,310.855H243.666c-3.458,0-6.261,2.803-6.261,6.261v28.882h129.217v-28.882
	C366.621,313.658,363.818,310.855,360.36,310.855"/>
<path fill="#FFFFFF" d="M287.144,333.048l2.438-2.589c1.054,1.385,2.469,2.167,4.186,2.167c1.926,0,3.04-1.474,3.04-3.16
	c0-1.986-1.054-3.161-2.86-3.161c-1.355,0-2.378,0.481-3.312,1.655l-2.92-0.783v-11.408h12.042v3.551h-8.008v5.148
	c0.783-0.963,2.138-1.655,3.673-1.655c3.041,0,5.479,2.379,5.479,6.533c0,4.033-2.739,6.863-7.014,6.863
	C290.787,336.209,288.648,335.066,287.144,333.048"/>
<path fill="#FFFFFF" d="M302.827,325.822c0-5.178,2.137-10.355,7.104-10.355c4.998,0,7.105,5.178,7.105,10.355
	c0,5.148-2.077,10.388-7.105,10.388C304.964,336.21,302.827,330.971,302.827,325.822 M312.941,325.822
	c0-3.884-0.662-6.772-3.011-6.772c-2.317,0-2.979,2.889-2.979,6.772c0,3.854,0.662,6.805,2.979,6.805
	C312.279,332.627,312.941,329.677,312.941,325.822"/>
<polygon fill="#FFFFFF" points="354.546,326.334 342.806,329.043 331.97,326.334 331.97,320.013 342.806,322.722 354.546,320.013 
	"/>
<polygon fill="#FFFFFF" points="354.546,335.364 342.806,338.073 331.97,335.364 331.97,329.044 342.806,331.753 354.546,329.044 
	"/>
<polygon fill="#FFFFFF" points="271.038,324.967 263.579,323.836 260.259,316.738 256.939,323.836 249.48,324.967 254.869,330.501 
	253.522,338.296 260.259,334.615 266.996,338.296 265.649,330.501 "/>
</svg>
