<?xml version="1.0" encoding="utf-8"?>
<!-- Generator: Adobe Illustrator 16.0.0, SVG Export Plug-In . SVG Version: 6.00 Build 0)  -->
<!DOCTYPE svg PUBLIC "-//W3C//DTD SVG 1.1//EN" "http://www.w3.org/Graphics/SVG/1.1/DTD/svg11.dtd">
<svg version="1.1" id="Layer_1" xmlns="http://www.w3.org/2000/svg" xmlns:xlink="http://www.w3.org/1999/xlink" x="0px" y="0px"
	 width="612px" height="792px" viewBox="0 0 612 792" enable-background="new 0 0 612 792" xml:space="preserve">
<path fill="none" d="M346.63,60"/>
<path fill="none" d="M346.63,3305.597"/>
<path fill="#FFFFFF" d="M323.098,458.557c-10.386,6.446-19.062,10.539-20.965,11.416c-1.905-0.877-10.58-4.97-20.967-11.416v0.492
	c-0.003-0.002,0.004-0.005,0-0.007v15.051c11.415,7.014,20.568,11.112,20.568,11.112l0.399-0.001l0.399,0.001
	c0,0,9.152-4.099,20.566-11.112v-15.051c-0.004,0.002,0.004,0.005,0,0.007V458.557z"/>
<path fill="#FFFFFF" d="M277.85,457.42c-9.748-6.171-20.759-14.313-29.014-23.745v15.051c8.118,9.569,19.145,17.858,29.014,24.171
	v-15.052c-0.004-0.002,0.003-0.005,0-0.007V457.42z"/>
<path fill="#FFFFFF" d="M326.414,457.42v0.418c-0.004,0.002,0.004,0.005,0,0.007v15.052c9.869-6.313,20.896-14.602,29.015-24.171
	v-15.051C347.173,443.107,336.162,451.249,326.414,457.42"/>
<polygon fill="#1A1A19" points="301.697,345.324 250.585,314.982 302.577,299.902 353.679,314.23 "/>
<path fill="#66CDF4" d="M239.642,334.186v19.638l0.008,48.148c0,34.507,62.483,62.482,62.483,62.482s62.482-27.976,62.482-62.482
	l0.008-48.148v-19.638H239.642z"/>
<g opacity="0.5">
	<g>
		<defs>
			<rect id="SVGID_1_" x="302.723" y="333.26" width="60.025" height="127.58"/>
		</defs>
		<clipPath id="SVGID_2_">
			<use xlink:href="#SVGID_1_"  overflow="visible"/>
		</clipPath>
		<path clip-path="url(#SVGID_2_)" fill="#1B6BA4" d="M302.851,460.836c5.59-2.753,17.62-9.048,29.467-17.652
			c9.191-6.674,16.455-13.391,21.589-19.967c5.866-7.513,8.841-14.722,8.841-21.427v-47.224v-21.305h-60.025v127.511
			C302.765,460.793,302.81,460.815,302.851,460.836"/>
	</g>
</g>
<g opacity="0.4">
	<g>
		<defs>
			<rect id="SVGID_3_" x="237.523" y="329.47" width="129.218" height="137.19"/>
		</defs>
		<clipPath id="SVGID_4_">
			<use xlink:href="#SVGID_3_"  overflow="visible"/>
		</clipPath>
		<path clip-path="url(#SVGID_4_)" fill="#FFFFFF" d="M352.943,343.267v9.011l-0.008,49.784c0,18.215-31.199,39.305-50.76,49.273
			c-5.696-2.925-14.985-8.061-24.254-14.771c-17.149-12.413-26.594-24.667-26.594-34.505l-0.008-49.779v-9.014H352.943
			 M366.74,329.47H237.523v22.811l0.009,49.781c0,35.677,64.6,64.6,64.6,64.6s64.601-28.923,64.601-64.6l0.008-49.781V329.47z"/>
	</g>
</g>
<path fill="#1A1A19" d="M359.216,336.994v15.284l-0.009,49.783c0,8.389-5.03,22.042-28.997,39.445
	c-11.291,8.198-22.753,14.196-28.08,16.82c-5.288-2.602-16.619-8.527-27.885-16.683c-24.124-17.462-29.188-31.164-29.188-39.584
	l-0.008-49.78v-15.286H359.216 M366.74,329.47H237.523v22.811l0.009,49.781c0,35.677,64.6,64.6,64.6,64.6s64.601-28.923,64.601-64.6
	l0.008-49.781V329.47z"/>
<path fill="#FFFFFF" d="M342.522,381.389c-4.219,7.229-13.499,9.671-20.729,5.451c-7.229-4.218-9.671-13.499-5.451-20.728
	c4.219-7.23,13.499-9.67,20.729-5.452C344.301,364.879,346.742,374.16,342.522,381.389"/>
<g opacity="0.5">
	<g>
		<defs>
			<rect id="SVGID_5_" x="315.523" y="373.75" width="17.182" height="14.05"/>
		</defs>
		<clipPath id="SVGID_6_">
			<use xlink:href="#SVGID_5_"  overflow="visible"/>
		</clipPath>
		<polygon clip-path="url(#SVGID_6_)" fill="#1B6BA4" points="332.705,375.66 323.43,387.795 315.522,378.794 329.432,373.75 		"/>
	</g>
</g>
<path fill="#FFFFFF" d="M315.787,427.204c-4.219,7.229-13.499,9.67-20.729,5.451c-7.229-4.218-9.67-13.499-5.451-20.729
	c4.219-7.229,13.499-9.67,20.729-5.452C317.565,410.694,320.007,419.975,315.787,427.204"/>
<path fill="#191818" d="M329.419,391.081c-3.054,0-6.069-0.817-8.72-2.364c-3.998-2.333-6.848-6.083-8.025-10.559
	c-1.177-4.478-0.54-9.145,1.793-13.142c3.094-5.304,8.834-8.598,14.98-8.598c3.054,0,6.068,0.818,8.72,2.365
	c3.997,2.333,6.847,6.083,8.024,10.559c1.178,4.478,0.541,9.145-1.793,13.142C341.305,387.787,335.564,391.081,329.419,391.081
	 M329.447,360.765c-4.606,0-8.909,2.47-11.229,6.441c-1.747,2.997-2.224,6.493-1.342,9.846c0.882,3.354,3.018,6.163,6.012,7.911
	c1.987,1.159,4.245,1.773,6.53,1.773c4.606,0,8.907-2.47,11.228-6.442c1.748-2.996,2.225-6.492,1.342-9.845
	c-0.881-3.354-3.018-6.163-6.012-7.912C333.988,361.378,331.732,360.765,329.447,360.765"/>
<g opacity="0.5">
	<g>
		<defs>
			<rect id="SVGID_7_" x="284.833" y="407.97" width="21.137" height="25.641"/>
		</defs>
		<clipPath id="SVGID_8_">
			<use xlink:href="#SVGID_7_"  overflow="visible"/>
		</clipPath>
		<polygon clip-path="url(#SVGID_8_)" fill="#1B6BA4" points="305.97,421.475 296.695,433.61 284.833,420.108 294.108,407.973 		"/>
	</g>
</g>
<path fill="#191818" d="M302.684,436.896c-3.054,0-6.069-0.817-8.72-2.364c-3.997-2.333-6.847-6.083-8.024-10.559
	c-1.178-4.478-0.541-9.145,1.792-13.142c3.094-5.304,8.834-8.598,14.98-8.598c3.054,0,6.069,0.818,8.72,2.365
	c3.997,2.333,6.847,6.083,8.025,10.559c1.176,4.478,0.541,9.145-1.793,13.142C314.569,433.603,308.83,436.896,302.684,436.896
	 M302.711,406.58c-4.606,0-8.909,2.47-11.228,6.441c-1.747,2.996-2.224,6.493-1.342,9.846c0.882,3.354,3.018,6.163,6.013,7.911
	c1.986,1.159,4.244,1.773,6.529,1.773c4.607,0,8.908-2.47,11.229-6.442c1.746-2.995,2.223-6.492,1.342-9.845
	c-0.883-3.354-3.019-6.163-6.014-7.912C307.254,407.193,304.997,406.58,302.711,406.58"/>
<path fill="#66CDF4" d="M300.678,423.019c-0.591-0.345-1.101-0.846-1.462-1.485l-29.277-51.792l59.494,0.011
	c2.209,0,3.998,1.791,3.998,4s-1.791,3.998-4,3.998l-45.781-0.008l22.529,39.855c1.086,1.923,0.409,4.363-1.514,5.45
	C303.381,423.773,301.866,423.712,300.678,423.019"/>
<path fill="#191818" d="M302.701,425.07c-0.976,0-1.938-0.26-2.781-0.752c-0.84-0.491-1.536-1.198-2.014-2.045l-30.546-54.038
	l62.074,0.011c1.471,0,2.854,0.572,3.893,1.612s1.611,2.423,1.61,3.893c0,3.035-2.47,5.505-5.504,5.505l-43.202-0.008l21.26,37.608
	c1.492,2.643,0.558,6.008-2.083,7.501C304.581,424.824,303.645,425.07,302.701,425.07 M272.52,371.247l28.006,49.546
	c0.218,0.385,0.533,0.704,0.913,0.928c0.748,0.435,1.721,0.449,2.487,0.016c1.197-0.676,1.62-2.201,0.943-3.398l-23.798-42.102
	l48.362,0.009c1.375,0,2.494-1.119,2.495-2.494c0-0.667-0.26-1.293-0.73-1.765c-0.472-0.47-1.098-0.73-1.764-0.73L272.52,371.247z"
	/>
<path fill="#FFFFFF" d="M289.885,381.381c-4.219,7.229-13.499,9.67-20.729,5.451c-7.229-4.219-9.67-13.499-5.451-20.729
	c4.219-7.229,13.499-9.67,20.729-5.451C291.663,364.871,294.104,374.152,289.885,381.381"/>
<path fill="#191818" d="M276.781,391.073c-3.054,0-6.069-0.817-8.72-2.364c-3.997-2.333-6.847-6.083-8.024-10.559
	c-1.178-4.478-0.541-9.145,1.792-13.142c3.094-5.304,8.834-8.598,14.98-8.598c3.054,0,6.069,0.818,8.72,2.365
	c3.997,2.333,6.847,6.082,8.025,10.559c1.177,4.478,0.541,9.145-1.792,13.142C288.667,387.779,282.927,391.073,276.781,391.073
	 M276.809,360.757c-4.606,0-8.909,2.47-11.228,6.441c-1.747,2.996-2.224,6.493-1.342,9.846c0.882,3.354,3.018,6.163,6.013,7.911
	c1.986,1.159,4.244,1.773,6.529,1.773c4.607,0,8.909-2.47,11.228-6.442c1.747-2.996,2.224-6.492,1.342-9.846
	c-0.882-3.354-3.017-6.163-6.012-7.911C281.352,361.37,279.094,360.757,276.809,360.757"/>
<path fill="#1A1A19" d="M360.479,310.855H243.785c-3.458,0-6.261,2.803-6.261,6.261v28.882H366.74v-28.882
	C366.74,313.658,363.938,310.855,360.479,310.855"/>
<polygon fill="#FFFFFF" points="293.931,335.848 293.931,320.976 290.89,324.137 288.572,321.699 294.473,315.768 297.995,315.768 
	297.995,335.848 "/>
<path fill="#FFFFFF" d="M300.733,325.822c0-5.178,2.137-10.355,7.104-10.355c4.998,0,7.105,5.178,7.105,10.355
	c0,5.148-2.078,10.388-7.105,10.388C302.87,336.21,300.733,330.971,300.733,325.822 M310.848,325.822
	c0-3.884-0.661-6.772-3.01-6.772c-2.318,0-2.98,2.889-2.98,6.772c0,3.854,0.662,6.805,2.98,6.805
	C310.187,332.627,310.848,329.677,310.848,325.822"/>
<polygon fill="#FFFFFF" points="271.238,325.952 259.498,328.661 248.662,325.952 248.662,319.631 259.498,322.34 271.238,319.631 
	"/>
<polygon fill="#FFFFFF" points="271.238,334.982 259.498,337.691 248.662,334.982 248.662,328.662 259.498,331.371 271.238,328.662 
	"/>
<polygon fill="#66CDF4" points="355.603,325.952 343.862,328.661 333.026,325.952 333.026,319.631 343.862,322.34 355.603,319.631 
	"/>
<polygon fill="#66CDF4" points="355.603,334.982 343.862,337.691 333.026,334.982 333.026,328.662 343.862,331.371 355.603,328.662 
	"/>
</svg>
