<?xml version="1.0" encoding="utf-8"?>
<!-- Generator: Adobe Illustrator 16.0.0, SVG Export Plug-In . SVG Version: 6.00 Build 0)  -->
<!DOCTYPE svg PUBLIC "-//W3C//DTD SVG 1.1//EN" "http://www.w3.org/Graphics/SVG/1.1/DTD/svg11.dtd">
<svg version="1.1" id="Layer_1" xmlns="http://www.w3.org/2000/svg" xmlns:xlink="http://www.w3.org/1999/xlink" x="0px" y="0px"
	 width="215px" height="195px" viewBox="0 0 215 195" enable-background="new 0 0 215 195" xml:space="preserve">
<path fill="#FFFFFF" d="M128.098,165.557c-10.386,6.446-19.062,10.539-20.965,11.416c-1.905-0.877-10.58-4.97-20.967-11.416v0.492
	c-0.003-0.002,0.004-0.005,0-0.007v15.051c11.415,7.015,20.568,11.112,20.568,11.112l0.399-0.001l0.399,0.001
	c0,0,9.152-4.099,20.566-11.112v-15.051c-0.004,0.002,0.004,0.005,0,0.007V165.557L128.098,165.557z"/>
<path fill="#FFFFFF" d="M82.85,164.42c-9.748-6.171-20.759-14.313-29.014-23.745v15.051c8.118,9.569,19.145,17.858,29.014,24.172
	v-15.053c-0.004-0.002,0.003-0.005,0-0.007V164.42z"/>
<path fill="#FFFFFF" d="M131.414,164.42v0.418c-0.004,0.002,0.004,0.005,0,0.007v15.053c9.869-6.313,20.896-14.603,29.016-24.172
	v-15.051C152.173,150.107,141.162,158.249,131.414,164.42"/>
<polygon fill="#1A1A19" points="106.697,52.324 55.585,21.982 107.577,6.902 158.68,21.23 "/>
<path fill="#68CDF4" d="M44.642,41.186v19.639l0.008,48.147c0,34.507,62.483,62.482,62.483,62.482s62.482-27.977,62.482-62.482
	l0.008-48.147V41.186H44.642z"/>
<g opacity="0.5">
	<g>
		<g>
			<defs>
				<rect id="SVGID_1_" x="107.723" y="40.26" width="60.025" height="127.58"/>
			</defs>
			<clipPath id="SVGID_2_">
				<use xlink:href="#SVGID_1_"  overflow="visible"/>
			</clipPath>
			<path clip-path="url(#SVGID_2_)" fill="#1D6CA4" d="M107.851,167.836c5.59-2.753,17.62-9.048,29.467-17.652
				c9.19-6.674,16.455-13.391,21.589-19.967c5.866-7.513,8.841-14.722,8.841-21.427V61.566V40.261h-60.025v127.511
				C107.765,167.793,107.81,167.815,107.851,167.836"/>
		</g>
	</g>
</g>
<g opacity="0.4">
	<g>
		<g>
			<defs>
				<rect id="SVGID_3_" x="42.523" y="36.47" width="129.218" height="137.19"/>
			</defs>
			<clipPath id="SVGID_4_">
				<use xlink:href="#SVGID_3_"  overflow="visible"/>
			</clipPath>
			<path clip-path="url(#SVGID_4_)" fill="#FFFFFF" d="M157.943,50.267v9.012l-0.008,49.783c0,18.216-31.199,39.306-50.761,49.273
				c-5.696-2.925-14.985-8.061-24.254-14.771c-17.149-12.413-26.594-24.667-26.594-34.506L56.319,59.28v-9.015L157.943,50.267
				 M171.74,36.47H42.523v22.812l0.009,49.781c0,35.677,64.6,64.6,64.6,64.6s64.601-28.923,64.601-64.6l0.009-49.781L171.74,36.47
				L171.74,36.47z"/>
		</g>
	</g>
</g>
<path fill="#1A1A19" d="M164.216,43.994v15.284l-0.009,49.782c0,8.39-5.03,22.042-28.997,39.445
	c-11.291,8.198-22.753,14.196-28.08,16.82c-5.288-2.603-16.619-8.527-27.885-16.684c-24.124-17.462-29.188-31.164-29.188-39.584
	l-0.008-49.779V43.993L164.216,43.994 M171.74,36.47H42.523v22.812l0.009,49.781c0,35.677,64.6,64.6,64.6,64.6
	s64.601-28.923,64.601-64.6l0.009-49.781L171.74,36.47L171.74,36.47z"/>
<path fill="#FFFFFF" d="M147.521,88.389c-4.219,7.229-13.498,9.671-20.729,5.451c-7.229-4.218-9.671-13.499-5.451-20.728
	c4.219-7.23,13.499-9.67,20.729-5.452C149.301,71.879,151.742,81.16,147.521,88.389"/>
<g opacity="0.5">
	<g>
		<g>
			<defs>
				<rect id="SVGID_5_" x="120.523" y="80.75" width="17.182" height="14.05"/>
			</defs>
			<clipPath id="SVGID_6_">
				<use xlink:href="#SVGID_5_"  overflow="visible"/>
			</clipPath>
			<polygon clip-path="url(#SVGID_6_)" fill="#1D6CA4" points="137.705,82.66 128.43,94.795 120.521,85.794 134.432,80.75 			"/>
		</g>
	</g>
</g>
<path fill="#FFFFFF" d="M120.787,134.204c-4.219,7.229-13.499,9.67-20.729,5.451c-7.229-4.218-9.67-13.499-5.451-20.729
	c4.219-7.229,13.499-9.67,20.729-5.452C122.564,117.694,125.007,126.975,120.787,134.204"/>
<path fill="#191818" d="M134.419,98.081c-3.054,0-6.069-0.817-8.72-2.364c-3.998-2.333-6.848-6.083-8.025-10.559
	c-1.177-4.479-0.54-9.146,1.793-13.143c3.094-5.304,8.834-8.598,14.98-8.598c3.054,0,6.068,0.818,8.72,2.365
	c3.997,2.333,6.847,6.083,8.024,10.559c1.178,4.479,0.541,9.146-1.793,13.143C146.305,94.787,140.564,98.081,134.419,98.081
	 M134.447,67.765c-4.606,0-8.909,2.471-11.229,6.441c-1.747,2.997-2.224,6.493-1.342,9.846c0.882,3.354,3.019,6.163,6.013,7.911
	c1.986,1.159,4.244,1.773,6.529,1.773c4.605,0,8.907-2.471,11.229-6.442c1.748-2.996,2.225-6.492,1.342-9.845
	c-0.881-3.354-3.019-6.163-6.012-7.912C138.988,68.378,136.732,67.765,134.447,67.765"/>
<g opacity="0.5">
	<g>
		<g>
			<defs>
				<rect id="SVGID_7_" x="89.833" y="114.97" width="21.138" height="25.642"/>
			</defs>
			<clipPath id="SVGID_8_">
				<use xlink:href="#SVGID_7_"  overflow="visible"/>
			</clipPath>
			<polygon clip-path="url(#SVGID_8_)" fill="#1D6CA4" points="110.971,128.475 101.695,140.61 89.833,127.108 99.108,114.973 			
				"/>
		</g>
	</g>
</g>
<path fill="#191818" d="M107.684,143.896c-3.054,0-6.069-0.817-8.72-2.364c-3.997-2.333-6.847-6.083-8.024-10.56
	c-1.178-4.478-0.541-9.145,1.792-13.142c3.094-5.304,8.834-8.598,14.98-8.598c3.054,0,6.069,0.817,8.72,2.364
	c3.998,2.333,6.848,6.083,8.025,10.56c1.176,4.478,0.541,9.145-1.793,13.142C119.568,140.603,113.83,143.896,107.684,143.896
	 M107.711,113.58c-4.606,0-8.909,2.47-11.228,6.441c-1.747,2.995-2.224,6.492-1.342,9.846c0.882,3.354,3.018,6.163,6.013,7.911
	c1.986,1.159,4.244,1.772,6.529,1.772c4.607,0,8.908-2.47,11.229-6.441c1.746-2.995,2.223-6.492,1.342-9.846
	c-0.883-3.354-3.02-6.163-6.014-7.912C112.254,114.193,109.997,113.58,107.711,113.58"/>
<path fill="#68CDF4" d="M105.678,130.019c-0.591-0.345-1.101-0.846-1.462-1.484L74.939,76.742l59.495,0.011
	c2.209,0,3.998,1.791,3.998,4s-1.791,3.998-4,3.998L88.65,84.743l22.529,39.854c1.087,1.924,0.409,4.363-1.514,5.45
	C108.381,130.773,106.866,130.712,105.678,130.019"/>
<path fill="#191818" d="M107.701,132.07c-0.976,0-1.938-0.261-2.781-0.752c-0.84-0.491-1.536-1.198-2.014-2.045L72.36,75.235
	l62.074,0.011c1.471,0,2.854,0.572,3.894,1.612s1.61,2.423,1.61,3.893c0,3.035-2.471,5.505-5.504,5.505l-43.203-0.008l21.26,37.608
	c1.491,2.643,0.558,6.008-2.083,7.501C109.581,131.824,108.645,132.07,107.701,132.07 M77.52,78.247l28.006,49.546
	c0.218,0.385,0.533,0.704,0.913,0.928c0.748,0.436,1.721,0.449,2.487,0.017c1.197-0.677,1.62-2.201,0.943-3.398L86.071,83.237
	l48.363,0.009c1.375,0,2.493-1.119,2.494-2.494c0-0.667-0.26-1.293-0.73-1.765c-0.471-0.471-1.098-0.73-1.764-0.73L77.52,78.247z"/>
<path fill="#FFFFFF" d="M94.885,88.381c-4.219,7.229-13.499,9.67-20.729,5.451c-7.229-4.219-9.67-13.499-5.451-20.729
	c4.219-7.229,13.499-9.67,20.729-5.45C96.663,71.871,99.104,81.152,94.885,88.381"/>
<path fill="#191818" d="M81.781,98.073c-3.054,0-6.069-0.817-8.72-2.364c-3.997-2.333-6.847-6.083-8.024-10.559
	c-1.178-4.479-0.541-9.146,1.792-13.143c3.094-5.304,8.834-8.598,14.98-8.598c3.054,0,6.069,0.817,8.72,2.365
	c3.997,2.333,6.847,6.082,8.025,10.559c1.177,4.478,0.541,9.145-1.792,13.142C93.667,94.779,87.927,98.073,81.781,98.073
	 M81.809,67.757c-4.606,0-8.909,2.47-11.228,6.441c-1.747,2.996-2.224,6.493-1.342,9.846c0.882,3.354,3.018,6.163,6.013,7.911
	c1.986,1.159,4.244,1.773,6.529,1.773c4.607,0,8.909-2.471,11.228-6.442c1.747-2.996,2.224-6.492,1.342-9.846
	c-0.882-3.354-3.017-6.163-6.012-7.911C86.352,68.37,84.094,67.757,81.809,67.757"/>
<path fill="#1A1A19" d="M165.479,17.855H48.785c-3.458,0-6.261,2.803-6.261,6.261v28.882H171.74V24.116
	C171.74,20.658,168.938,17.855,165.479,17.855"/>
<polygon fill="#FFFFFF" points="98.931,42.848 98.931,27.976 95.89,31.137 93.572,28.699 99.473,22.768 102.995,22.768 
	102.995,42.848 "/>
<path fill="#FFFFFF" d="M105.733,32.822c0-5.179,2.137-10.355,7.104-10.355c4.998,0,7.104,5.178,7.104,10.355
	c0,5.147-2.077,10.388-7.104,10.388C107.87,43.21,105.733,37.971,105.733,32.822 M115.848,32.822c0-3.885-0.66-6.772-3.01-6.772
	c-2.318,0-2.98,2.89-2.98,6.772c0,3.854,0.662,6.805,2.98,6.805C115.188,39.627,115.848,36.677,115.848,32.822"/>
<polygon fill="#FFFFFF" points="76.238,32.952 64.498,35.661 53.662,32.952 53.662,26.631 64.498,29.34 76.238,26.631 "/>
<polygon fill="#FFFFFF" points="76.238,41.982 64.498,44.691 53.662,41.982 53.662,35.662 64.498,38.371 76.238,35.662 "/>
<polygon fill="#68CDF4" points="160.604,32.952 148.861,35.661 138.025,32.952 138.025,26.631 148.861,29.34 160.604,26.631 "/>
<polygon fill="#68CDF4" points="160.604,41.982 148.861,44.691 138.025,41.982 138.025,35.662 148.861,38.371 160.604,35.662 "/>
</svg>
