<?xml version="1.0" encoding="utf-8"?>
<!-- Generator: Adobe Illustrator 16.0.0, SVG Export Plug-In . SVG Version: 6.00 Build 0)  -->
<!DOCTYPE svg PUBLIC "-//W3C//DTD SVG 1.1//EN" "http://www.w3.org/Graphics/SVG/1.1/DTD/svg11.dtd">
<svg version="1.1" id="Layer_1" xmlns="http://www.w3.org/2000/svg" xmlns:xlink="http://www.w3.org/1999/xlink" x="0px" y="0px"
	 width="612px" height="792px" viewBox="0 0 612 792" enable-background="new 0 0 612 792" xml:space="preserve">
<path fill="none" d="M346.63,60"/>
<path fill="none" d="M346.63,3305.597"/>
<line fill="none" x1="234.764" y1="-1732.76" x2="234.764" y2="1512.837"/>
<path fill="#66CDF4" d="M242.936,341.326v19.896l0.008,48.783c0,34.965,63.307,63.308,63.307,63.308s63.308-28.343,63.308-63.308
	l0.008-48.783v-19.896H242.936z"/>
<g opacity="0.5">
	<g>
		<defs>
			<rect id="SVGID_1_" x="306.842" y="341.26" width="60.025" height="127.58"/>
		</defs>
		<clipPath id="SVGID_2_">
			<use xlink:href="#SVGID_1_"  overflow="visible"/>
		</clipPath>
		<path clip-path="url(#SVGID_2_)" fill="#1B6BA4" d="M306.97,468.836c5.59-2.753,17.62-9.048,29.467-17.652
			c9.191-6.674,16.455-13.391,21.589-19.967c5.866-7.513,8.841-14.722,8.841-21.427v-47.224v-21.305h-60.025v127.511
			C306.884,468.793,306.929,468.815,306.97,468.836"/>
	</g>
</g>
<polygon fill="#1A1A19" points="305.816,353.324 254.705,322.982 306.696,307.902 357.797,322.23 "/>
<g opacity="0.4">
	<g>
		<defs>
			<rect id="SVGID_3_" x="241.642" y="337.47" width="129.217" height="137.19"/>
		</defs>
		<clipPath id="SVGID_4_">
			<use xlink:href="#SVGID_3_"  overflow="visible"/>
		</clipPath>
		<path clip-path="url(#SVGID_4_)" fill="#FFFFFF" d="M357.063,351.267v9.011l-0.008,49.784c0,18.215-31.199,39.305-50.76,49.273
			c-5.696-2.925-14.985-8.061-24.254-14.771c-17.149-12.413-26.594-24.667-26.594-34.505l-0.008-49.779v-9.014H357.063
			 M370.859,337.47H241.642v22.811l0.009,49.781c0,35.677,64.6,64.6,64.6,64.6s64.601-28.923,64.601-64.6l0.008-49.781V337.47z"/>
	</g>
</g>
<path fill="#1A1A19" d="M363.335,344.994v15.284l-0.009,49.783c0,8.389-5.03,22.042-28.997,39.445
	c-11.291,8.198-22.753,14.196-28.08,16.82c-5.288-2.602-16.619-8.527-27.885-16.683c-24.124-17.462-29.188-31.164-29.188-39.584
	l-0.008-49.78v-15.286H363.335 M370.859,337.47H241.642v22.811l0.009,49.781c0,35.677,64.6,64.6,64.6,64.6
	s64.601-28.923,64.601-64.6l0.008-49.781V337.47z"/>
<path fill="#FFFFFF" d="M346.642,389.389c-4.219,7.229-13.499,9.671-20.729,5.451c-7.229-4.218-9.67-13.499-5.45-20.728
	c4.219-7.23,13.499-9.67,20.729-5.452C348.42,372.879,350.861,382.16,346.642,389.389"/>
<g opacity="0.5">
	<g>
		<defs>
			<rect id="SVGID_5_" x="319.643" y="381.75" width="17.182" height="14.05"/>
		</defs>
		<clipPath id="SVGID_6_">
			<use xlink:href="#SVGID_5_"  overflow="visible"/>
		</clipPath>
		<polygon clip-path="url(#SVGID_6_)" fill="#1B6BA4" points="336.824,383.66 327.549,395.795 319.641,386.794 333.553,381.75 		"/>
	</g>
</g>
<path fill="#FFFFFF" d="M319.906,435.204c-4.219,7.229-13.499,9.67-20.729,5.451c-7.229-4.218-9.67-13.499-5.451-20.729
	s13.499-9.67,20.729-5.452C321.685,418.694,324.125,427.975,319.906,435.204"/>
<path fill="#191818" d="M333.538,399.081c-3.054,0-6.069-0.817-8.72-2.364c-3.998-2.333-6.848-6.083-8.025-10.559
	c-1.177-4.478-0.54-9.145,1.793-13.142c3.094-5.304,8.834-8.598,14.98-8.598c3.054,0,6.068,0.818,8.72,2.365
	c8.252,4.815,11.048,15.448,6.231,23.7C345.424,395.787,339.684,399.081,333.538,399.081 M333.566,368.765
	c-4.607,0-8.909,2.47-11.228,6.441c-1.748,2.997-2.226,6.493-1.343,9.846c0.882,3.354,3.018,6.163,6.012,7.911
	c1.987,1.159,4.245,1.773,6.53,1.773c4.606,0,8.907-2.47,11.228-6.442c3.607-6.183,1.512-14.147-4.67-17.757
	C338.107,369.378,335.852,368.765,333.566,368.765"/>
<g opacity="0.5">
	<g>
		<defs>
			<rect id="SVGID_7_" x="288.953" y="415.97" width="21.136" height="25.641"/>
		</defs>
		<clipPath id="SVGID_8_">
			<use xlink:href="#SVGID_7_"  overflow="visible"/>
		</clipPath>
		<polygon clip-path="url(#SVGID_8_)" fill="#1B6BA4" points="310.089,429.475 300.814,441.61 288.952,428.108 298.227,415.973 		
			"/>
	</g>
</g>
<path fill="#191818" d="M306.803,444.896c-3.054,0-6.069-0.817-8.72-2.364c-8.252-4.815-11.048-15.448-6.232-23.7
	c3.094-5.304,8.834-8.598,14.98-8.598c3.054,0,6.069,0.818,8.72,2.365c3.997,2.333,6.847,6.083,8.025,10.559
	c1.177,4.478,0.539,9.145-1.793,13.142C318.688,441.603,312.949,444.896,306.803,444.896 M306.831,414.58
	c-4.606,0-8.909,2.47-11.228,6.441c-3.607,6.184-1.513,14.148,4.67,17.757c1.987,1.159,4.245,1.773,6.53,1.773
	c4.607,0,8.908-2.47,11.227-6.442c1.748-2.996,2.226-6.492,1.344-9.845c-0.883-3.354-3.019-6.163-6.014-7.912
	C311.373,415.193,309.115,414.58,306.831,414.58"/>
<path fill="#66CDF4" d="M304.797,431.019c-0.591-0.345-1.101-0.846-1.462-1.485l-29.277-51.792l59.494,0.011
	c2.209,0,3.998,1.791,3.998,4s-1.791,3.998-4,3.998l-45.781-0.008l22.529,39.855c1.086,1.923,0.408,4.363-1.515,5.45
	C307.5,431.773,305.985,431.712,304.797,431.019"/>
<path fill="#191818" d="M306.82,433.07c-0.976,0-1.938-0.26-2.781-0.752c-0.839-0.49-1.535-1.197-2.014-2.045l-30.546-54.038
	l62.074,0.011c1.471,0,2.854,0.572,3.893,1.612s1.611,2.423,1.61,3.894c0,3.034-2.469,5.504-5.505,5.504l-43.201-0.008l21.26,37.608
	c1.492,2.643,0.558,6.008-2.084,7.501C308.699,432.824,307.764,433.07,306.82,433.07 M276.639,379.247l28.006,49.546
	c0.218,0.385,0.533,0.704,0.912,0.927c0.75,0.438,1.723,0.45,2.488,0.017c1.197-0.676,1.62-2.201,0.943-3.398l-23.798-42.102
	l48.362,0.009c1.375,0,2.494-1.119,2.494-2.494c0-0.667-0.259-1.293-0.729-1.765c-0.472-0.47-1.098-0.73-1.764-0.73L276.639,379.247
	z"/>
<path fill="#FFFFFF" d="M294.004,389.381c-4.219,7.229-13.499,9.67-20.729,5.451c-7.229-4.219-9.67-13.499-5.451-20.729
	c4.219-7.229,13.499-9.67,20.729-5.451C295.782,372.871,298.223,382.152,294.004,389.381"/>
<path fill="#191818" d="M280.9,399.073c-3.054,0-6.069-0.817-8.72-2.364c-8.252-4.815-11.048-15.448-6.232-23.7
	c3.094-5.304,8.834-8.598,14.98-8.598c3.054,0,6.069,0.818,8.72,2.365c3.997,2.333,6.847,6.082,8.025,10.559
	c1.177,4.478,0.54,9.145-1.793,13.142C292.786,395.779,287.046,399.073,280.9,399.073 M280.928,368.757
	c-4.606,0-8.909,2.47-11.228,6.441c-3.607,6.184-1.513,14.149,4.67,17.757c1.987,1.159,4.245,1.773,6.53,1.773
	c4.607,0,8.908-2.47,11.227-6.442c1.748-2.996,2.225-6.492,1.343-9.846c-0.882-3.354-3.018-6.163-6.012-7.911
	C285.47,369.37,283.213,368.757,280.928,368.757"/>
<path fill="#1A1A19" d="M364.599,318.855H247.903c-3.458,0-6.261,2.803-6.261,6.261v28.882h129.217v-28.882
	C370.859,321.658,368.057,318.855,364.599,318.855"/>
<polygon fill="#FFFFFF" points="306.33,343.848 306.33,328.976 303.289,332.137 300.972,329.699 306.872,323.768 310.394,323.768 
	310.394,343.848 "/>
<polygon fill="#66CDF4" points="275.555,333.952 263.815,336.661 252.979,333.952 252.979,327.631 263.815,330.34 275.555,327.631 
	"/>
<polygon fill="#66CDF4" points="275.555,342.982 263.815,345.691 252.979,342.982 252.979,336.662 263.815,339.371 275.555,336.662 
	"/>
<polygon fill="#676767" points="359.92,333.952 348.18,336.661 337.344,333.952 337.344,327.631 348.18,330.34 359.92,327.631 "/>
<polygon fill="#676767" points="359.92,342.982 348.18,345.691 337.344,342.982 337.344,336.662 348.18,339.371 359.92,336.662 "/>
</svg>
