<?xml version="1.0" encoding="utf-8"?>
<!-- Generator: Adobe Illustrator 16.0.0, SVG Export Plug-In . SVG Version: 6.00 Build 0)  -->
<!DOCTYPE svg PUBLIC "-//W3C//DTD SVG 1.1//EN" "http://www.w3.org/Graphics/SVG/1.1/DTD/svg11.dtd">
<svg version="1.1" id="Layer_1" xmlns="http://www.w3.org/2000/svg" xmlns:xlink="http://www.w3.org/1999/xlink" x="0px" y="0px"
	 width="215px" height="195px" viewBox="0 0 215 195" enable-background="new 0 0 215 195" xml:space="preserve">
<path fill="#1A1A19" d="M128.539,165.557c-10.387,6.446-19.063,10.539-20.966,11.416c-1.905-0.877-10.58-4.97-20.967-11.416v0.492
	c-0.003-0.002,0.004-0.005,0-0.007v15.051c11.415,7.015,20.568,11.112,20.568,11.112l0.399-0.001l0.399,0.001
	c0,0,9.151-4.099,20.567-11.112v-15.051c-0.004,0.002,0.004,0.005,0,0.007V165.557L128.539,165.557z"/>
<path fill="#FFFFFF" d="M83.29,164.42c-9.748-6.171-20.759-14.313-29.014-23.745v15.051c8.118,9.569,19.145,17.858,29.014,24.172
	v-15.053c-0.004-0.002,0.003-0.005,0-0.007V164.42z"/>
<path fill="#FFFFFF" d="M131.855,164.42v0.418c-0.004,0.002,0.002,0.005,0,0.007v15.053c9.869-6.313,20.895-14.603,29.014-24.172
	v-15.051C152.613,150.107,141.604,158.249,131.855,164.42"/>
<polygon fill="#1A1A19" points="107.138,52.324 56.026,21.982 108.018,6.902 159.119,21.23 "/>
<path fill="#68CDF4" d="M45.022,41.124v19.655l0.008,48.193c0,34.541,62.542,62.542,62.542,62.542s62.542-28.001,62.542-62.542
	l0.01-48.193V41.124H45.022z"/>
<g opacity="0.5">
	<g>
		<g>
			<defs>
				<rect id="SVGID_1_" x="108.16" y="40.26" width="60.029" height="127.58"/>
			</defs>
			<clipPath id="SVGID_2_">
				<use xlink:href="#SVGID_1_"  overflow="visible"/>
			</clipPath>
			<path clip-path="url(#SVGID_2_)" fill="#1D6CA4" d="M108.292,167.836c5.59-2.753,17.619-9.048,29.468-17.652
				c9.191-6.674,16.454-13.391,21.588-19.967c5.866-7.513,8.842-14.722,8.842-21.427V61.566V40.261h-60.025v127.511
				C108.206,167.793,108.25,167.815,108.292,167.836"/>
		</g>
	</g>
</g>
<g opacity="0.4">
	<g>
		<g>
			<defs>
				<rect id="SVGID_3_" x="42.96" y="36.47" width="129.22" height="137.19"/>
			</defs>
			<clipPath id="SVGID_4_">
				<use xlink:href="#SVGID_3_"  overflow="visible"/>
			</clipPath>
			<path clip-path="url(#SVGID_4_)" fill="#FFFFFF" d="M158.385,50.267v9.012l-0.009,49.783c0,18.216-31.2,39.306-50.76,49.273
				c-5.696-2.925-14.985-8.061-24.254-14.771c-17.149-12.413-26.594-24.667-26.594-34.506L56.76,59.28v-9.015L158.385,50.267
				 M172.182,36.47H42.963v22.812l0.009,49.781c0,35.677,64.6,64.6,64.6,64.6s64.602-28.923,64.602-64.6l0.008-49.781V36.47
				L172.182,36.47z"/>
		</g>
	</g>
</g>
<path fill="#1A1A19" d="M164.656,43.994v15.284l-0.008,49.782c0,8.39-5.031,22.042-28.998,39.445
	c-11.291,8.198-22.754,14.196-28.081,16.82c-5.288-2.603-16.619-8.527-27.885-16.684c-24.124-17.462-29.188-31.164-29.188-39.584
	l-0.008-49.779V43.993L164.656,43.994 M172.182,36.47H42.963v22.812l0.009,49.781c0,35.677,64.6,64.6,64.6,64.6
	s64.602-28.923,64.602-64.6l0.008-49.781V36.47L172.182,36.47z"/>
<path fill="#FFFFFF" d="M147.963,88.389c-4.219,7.229-13.498,9.671-20.729,5.451c-7.229-4.218-9.67-13.499-5.451-20.728
	c4.219-7.23,13.499-9.67,20.729-5.452C149.741,71.879,152.182,81.16,147.963,88.389"/>
<g opacity="0.5">
	<g>
		<g>
			<defs>
				<rect id="SVGID_5_" x="120.96" y="80.75" width="17.19" height="14.05"/>
			</defs>
			<clipPath id="SVGID_6_">
				<use xlink:href="#SVGID_5_"  overflow="visible"/>
			</clipPath>
			<polygon clip-path="url(#SVGID_6_)" fill="#1D6CA4" points="138.146,82.66 128.871,94.795 120.963,85.794 134.873,80.75 			"/>
		</g>
	</g>
</g>
<path fill="#FFFFFF" d="M121.229,134.204c-4.22,7.229-13.5,9.67-20.729,5.451c-7.229-4.218-9.67-13.499-5.451-20.729
	c4.219-7.229,13.499-9.67,20.729-5.452C123.006,117.694,125.447,126.975,121.229,134.204"/>
<path fill="#191818" d="M134.859,98.081c-3.055,0-6.069-0.817-8.721-2.364c-3.998-2.333-6.849-6.083-8.024-10.559
	c-1.177-4.479-0.54-9.146,1.793-13.143c3.094-5.304,8.834-8.598,14.979-8.598c3.055,0,6.068,0.818,8.721,2.365
	c3.996,2.333,6.847,6.083,8.024,10.559c1.177,4.479,0.539,9.146-1.793,13.143C146.745,94.787,141.006,98.081,134.859,98.081
	 M134.887,67.765c-4.604,0-8.908,2.471-11.228,6.441c-1.747,2.997-2.224,6.493-1.343,9.846c0.883,3.354,3.018,6.163,6.013,7.911
	c1.987,1.159,4.245,1.773,6.53,1.773c4.606,0,8.908-2.471,11.227-6.442c1.748-2.996,2.227-6.492,1.344-9.845
	c-0.883-3.354-3.019-6.163-6.014-7.912C139.43,68.378,137.172,67.765,134.887,67.765"/>
<g opacity="0.5">
	<g>
		<g>
			<defs>
				<rect id="SVGID_7_" x="90.27" y="114.97" width="21.14" height="25.642"/>
			</defs>
			<clipPath id="SVGID_8_">
				<use xlink:href="#SVGID_7_"  overflow="visible"/>
			</clipPath>
			<polygon clip-path="url(#SVGID_8_)" fill="#1D6CA4" points="111.411,128.475 102.136,140.61 90.273,127.108 99.548,114.973 			
				"/>
		</g>
	</g>
</g>
<path fill="#191818" d="M108.124,143.896c-3.054,0-6.069-0.817-8.72-2.364c-3.997-2.333-6.847-6.083-8.024-10.56
	c-1.178-4.478-0.541-9.145,1.792-13.142c3.094-5.304,8.834-8.598,14.98-8.598c3.054,0,6.068,0.817,8.72,2.364
	c3.997,2.333,6.847,6.083,8.024,10.56c1.178,4.478,0.541,9.145-1.791,13.142C120.01,140.603,114.27,143.896,108.124,143.896
	 M108.152,113.58c-4.606,0-8.909,2.47-11.229,6.441c-1.747,2.995-2.224,6.492-1.342,9.846s3.018,6.163,6.013,7.911
	c1.986,1.159,4.244,1.772,6.529,1.772c4.606,0,8.909-2.47,11.228-6.441c1.748-2.995,2.226-6.492,1.342-9.846
	c-0.881-3.354-3.018-6.163-6.012-7.912C112.695,114.193,110.438,113.58,108.152,113.58"/>
<path fill="#68CDF4" d="M106.119,130.019c-0.591-0.345-1.101-0.846-1.462-1.484L75.38,76.742l59.493,0.011c2.21,0,4,1.791,4,4
	s-1.791,3.998-4,3.998l-45.781-0.008l22.528,39.854c1.087,1.924,0.409,4.363-1.515,5.45
	C108.822,130.773,107.307,130.712,106.119,130.019"/>
<path fill="#191818" d="M108.141,132.07c-0.976,0-1.938-0.261-2.781-0.752c-0.84-0.491-1.536-1.198-2.014-2.045L72.8,75.235
	l62.074,0.011c1.47,0,2.853,0.572,3.892,1.612c1.041,1.04,1.612,2.423,1.611,3.893c0,3.035-2.47,5.505-5.504,5.505l-43.202-0.008
	l21.259,37.608c1.493,2.643,0.559,6.008-2.082,7.501C110.021,131.824,109.085,132.07,108.141,132.07 M77.96,78.247l28.006,49.546
	c0.218,0.385,0.533,0.704,0.913,0.928c0.748,0.436,1.721,0.449,2.487,0.017c1.196-0.677,1.62-2.201,0.942-3.398L86.511,83.237
	l48.362,0.009c1.375,0,2.494-1.119,2.495-2.494c0-0.667-0.261-1.293-0.731-1.765c-0.471-0.471-1.097-0.73-1.763-0.73L77.96,78.247z"
	/>
<path fill="#FFFFFF" d="M95.326,88.381c-4.219,7.229-13.499,9.67-20.729,5.451c-7.229-4.219-9.67-13.499-5.451-20.729
	c4.219-7.229,13.499-9.67,20.729-5.45C97.104,71.871,99.545,81.152,95.326,88.381"/>
<path fill="#191818" d="M82.222,98.073c-3.054,0-6.069-0.817-8.72-2.364c-3.997-2.333-6.847-6.083-8.024-10.559
	c-1.178-4.479-0.541-9.146,1.792-13.143c3.094-5.304,8.834-8.598,14.98-8.598c3.054,0,6.069,0.817,8.72,2.365
	c3.997,2.333,6.847,6.082,8.025,10.559c1.177,4.478,0.541,9.145-1.792,13.142C94.107,94.779,88.368,98.073,82.222,98.073
	 M82.25,67.757c-4.606,0-8.909,2.47-11.228,6.441c-1.747,2.996-2.224,6.493-1.342,9.846c0.882,3.354,3.018,6.163,6.013,7.911
	c1.986,1.159,4.244,1.773,6.529,1.773c4.607,0,8.909-2.471,11.228-6.442c1.747-2.996,2.224-6.492,1.342-9.846
	c-0.882-3.354-3.017-6.163-6.012-7.911C86.792,68.37,84.535,67.757,82.25,67.757"/>
<path fill="#1A1A19" d="M165.92,17.855H49.225c-3.458,0-6.261,2.803-6.261,6.261v28.882h129.218V24.116
	C172.182,20.658,169.378,17.855,165.92,17.855"/>
<path fill="#FFFFFF" d="M93.125,42.848v-3.251c7.346-7.136,8.881-8.729,8.881-11.02c0-1.535-1.174-2.528-2.679-2.528
	c-1.777,0-3.192,0.813-4.275,2.258l-2.409-2.526c1.626-2.168,4.004-3.313,6.744-3.313c3.884,0,6.713,2.35,6.713,6.082
	c0,3.04-2.047,5.629-7.014,10.747h7.104v3.553L93.125,42.848L93.125,42.848z"/>
<path fill="#FFFFFF" d="M108.626,40.048l2.438-2.589c1.055,1.385,2.469,2.167,4.186,2.167c1.927,0,3.041-1.474,3.041-3.16
	c0-1.985-1.055-3.161-2.859-3.161c-1.354,0-2.379,0.481-3.313,1.655l-2.921-0.783V22.769h12.042v3.552h-8.008v5.147
	c0.783-0.963,2.139-1.654,3.672-1.654c3.041,0,5.479,2.379,5.479,6.532c0,4.033-2.739,6.863-7.014,6.863
	C112.27,43.209,110.131,42.066,108.626,40.048"/>
<polygon fill="#FFFFFF" points="76.679,32.952 64.938,35.661 54.103,32.952 54.103,26.631 64.938,29.34 76.679,26.631 "/>
<polygon fill="#FFFFFF" points="76.679,41.982 64.938,44.691 54.103,41.982 54.103,35.662 64.938,38.371 76.679,35.662 "/>
<polygon fill="#FFFFFF" points="161.043,32.952 149.303,35.661 138.467,32.952 138.467,26.631 149.303,29.34 161.043,26.631 "/>
<polygon fill="#FFFFFF" points="161.043,41.982 149.303,44.691 138.467,41.982 138.467,35.662 149.303,38.371 161.043,35.662 "/>
</svg>
