<?xml version="1.0" encoding="utf-8"?>
<!-- Generator: Adobe Illustrator 16.0.0, SVG Export Plug-In . SVG Version: 6.00 Build 0)  -->
<!DOCTYPE svg PUBLIC "-//W3C//DTD SVG 1.1//EN" "http://www.w3.org/Graphics/SVG/1.1/DTD/svg11.dtd">
<svg version="1.1" id="Layer_1" xmlns="http://www.w3.org/2000/svg" xmlns:xlink="http://www.w3.org/1999/xlink" x="0px" y="0px"
	 width="612px" height="792px" viewBox="0 0 612 792" enable-background="new 0 0 612 792" xml:space="preserve">
<path fill="none" d="M346.63,60"/>
<path fill="none" d="M346.63,3305.597"/>
<path fill="#1A1A19" d="M323.539,458.557c-10.387,6.446-19.063,10.539-20.966,11.416c-1.905-0.877-10.58-4.97-20.967-11.416v0.492
	c-0.003-0.002,0.004-0.005,0-0.007v15.051c11.415,7.014,20.568,11.112,20.568,11.112l0.399-0.001l0.399,0.001
	c0,0,9.151-4.099,20.567-11.112v-15.051c-0.004,0.002,0.004,0.005,0,0.007V458.557z"/>
<path fill="#FFFFFF" d="M278.29,457.42c-9.748-6.171-20.759-14.313-29.014-23.745v15.051c8.118,9.569,19.145,17.858,29.014,24.171
	v-15.052c-0.004-0.002,0.003-0.005,0-0.007V457.42z"/>
<path fill="#FFFFFF" d="M326.855,457.42v0.418c-0.004,0.002,0.002,0.005,0,0.007v15.052c9.869-6.313,20.895-14.602,29.014-24.171
	v-15.051C347.613,443.107,336.604,451.249,326.855,457.42"/>
<polygon fill="#1A1A19" points="302.138,345.324 251.026,314.982 303.017,299.902 354.119,314.23 "/>
<path fill="#66CDF4" d="M240.022,334.124v19.655l0.008,48.194c0,34.541,62.542,62.542,62.542,62.542s62.542-28.001,62.542-62.542
	l0.009-48.194v-19.655H240.022z"/>
<g opacity="0.5">
	<g>
		<defs>
			<rect id="SVGID_1_" x="303.16" y="333.26" width="60.029" height="127.58"/>
		</defs>
		<clipPath id="SVGID_2_">
			<use xlink:href="#SVGID_1_"  overflow="visible"/>
		</clipPath>
		<path clip-path="url(#SVGID_2_)" fill="#1B6BA4" d="M303.292,460.836c5.59-2.753,17.619-9.048,29.468-17.652
			c9.191-6.674,16.454-13.391,21.588-19.967c5.866-7.513,8.841-14.722,8.841-21.427v-47.224v-21.305h-60.025v127.511
			C303.206,460.793,303.25,460.815,303.292,460.836"/>
	</g>
</g>
<g opacity="0.4">
	<g>
		<defs>
			<rect id="SVGID_3_" x="237.96" y="329.47" width="129.22" height="137.19"/>
		</defs>
		<clipPath id="SVGID_4_">
			<use xlink:href="#SVGID_3_"  overflow="visible"/>
		</clipPath>
		<path clip-path="url(#SVGID_4_)" fill="#FFFFFF" d="M353.385,343.267v9.011l-0.009,49.784c0,18.215-31.2,39.305-50.76,49.273
			c-5.696-2.925-14.985-8.061-24.254-14.771c-17.149-12.413-26.594-24.667-26.594-34.505l-0.008-49.779v-9.014H353.385
			 M367.182,329.47H237.963v22.811l0.009,49.781c0,35.677,64.6,64.6,64.6,64.6s64.602-28.923,64.602-64.6l0.008-49.781V329.47z"/>
	</g>
</g>
<path fill="#1A1A19" d="M359.656,336.994v15.284l-0.008,49.783c0,8.389-5.031,22.042-28.997,39.445
	c-11.292,8.198-22.754,14.196-28.081,16.82c-5.288-2.602-16.619-8.527-27.885-16.683c-24.124-17.462-29.188-31.164-29.188-39.584
	l-0.008-49.78v-15.286H359.656 M367.182,329.47H237.963v22.811l0.009,49.781c0,35.677,64.6,64.6,64.6,64.6
	s64.602-28.923,64.602-64.6l0.008-49.781V329.47z"/>
<path fill="#FFFFFF" d="M342.963,381.389c-4.219,7.229-13.498,9.671-20.729,5.451c-7.229-4.218-9.67-13.499-5.451-20.728
	c4.219-7.23,13.499-9.67,20.729-5.452C344.741,364.879,347.182,374.16,342.963,381.389"/>
<g opacity="0.5">
	<g>
		<defs>
			<rect id="SVGID_5_" x="315.96" y="373.75" width="17.19" height="14.05"/>
		</defs>
		<clipPath id="SVGID_6_">
			<use xlink:href="#SVGID_5_"  overflow="visible"/>
		</clipPath>
		<polygon clip-path="url(#SVGID_6_)" fill="#1B6BA4" points="333.146,375.66 323.871,387.795 315.963,378.794 329.873,373.75 		"/>
	</g>
</g>
<path fill="#FFFFFF" d="M316.229,427.204c-4.22,7.229-13.5,9.67-20.729,5.451c-7.229-4.218-9.67-13.499-5.451-20.729
	c4.219-7.229,13.499-9.67,20.729-5.452C318.006,410.694,320.447,419.975,316.229,427.204"/>
<path fill="#191818" d="M329.859,391.081c-3.055,0-6.069-0.817-8.721-2.364c-3.998-2.333-6.848-6.083-8.024-10.559
	c-1.177-4.478-0.54-9.145,1.793-13.142c3.094-5.304,8.834-8.598,14.979-8.598c3.055,0,6.069,0.818,8.721,2.365
	c3.997,2.333,6.847,6.083,8.025,10.559c1.177,4.478,0.539,9.145-1.793,13.142C341.745,387.787,336.006,391.081,329.859,391.081
	 M329.887,360.765c-4.605,0-8.908,2.47-11.228,6.441c-1.747,2.997-2.224,6.493-1.342,9.846c0.882,3.354,3.017,6.163,6.012,7.911
	c1.987,1.159,4.245,1.773,6.53,1.773c4.607,0,8.908-2.47,11.227-6.442c1.748-2.996,2.226-6.492,1.344-9.845
	c-0.883-3.354-3.019-6.163-6.014-7.912C334.43,361.378,332.172,360.765,329.887,360.765"/>
<g opacity="0.5">
	<g>
		<defs>
			<rect id="SVGID_7_" x="285.27" y="407.97" width="21.14" height="25.641"/>
		</defs>
		<clipPath id="SVGID_8_">
			<use xlink:href="#SVGID_7_"  overflow="visible"/>
		</clipPath>
		<polygon clip-path="url(#SVGID_8_)" fill="#1B6BA4" points="306.411,421.475 297.136,433.61 285.273,420.108 294.548,407.973 		
			"/>
	</g>
</g>
<path fill="#191818" d="M303.124,436.896c-3.054,0-6.069-0.817-8.72-2.364c-3.997-2.333-6.847-6.083-8.024-10.559
	c-1.178-4.478-0.541-9.145,1.792-13.142c3.094-5.304,8.834-8.598,14.98-8.598c3.054,0,6.069,0.818,8.72,2.365
	c3.997,2.333,6.847,6.083,8.024,10.559c1.178,4.478,0.541,9.145-1.791,13.142C315.01,433.603,309.27,436.896,303.124,436.896
	 M303.152,406.58c-4.606,0-8.909,2.47-11.228,6.441c-1.747,2.996-2.224,6.493-1.342,9.846c0.882,3.354,3.018,6.163,6.013,7.911
	c1.986,1.159,4.244,1.773,6.529,1.773c4.606,0,8.909-2.47,11.228-6.442c1.747-2.995,2.225-6.492,1.342-9.845
	c-0.881-3.354-3.018-6.163-6.013-7.912C307.695,407.193,305.437,406.58,303.152,406.58"/>
<path fill="#66CDF4" d="M301.119,423.019c-0.591-0.345-1.101-0.846-1.462-1.485l-29.277-51.792l59.493,0.011c2.21,0,4,1.791,4,4
	s-1.791,3.998-4,3.998l-45.781-0.008l22.528,39.855c1.087,1.923,0.41,4.363-1.514,5.45
	C303.822,423.773,302.307,423.712,301.119,423.019"/>
<path fill="#191818" d="M303.141,425.07c-0.976,0-1.938-0.26-2.781-0.752c-0.84-0.491-1.536-1.198-2.014-2.045L267.8,368.235
	l62.074,0.011c1.47,0,2.853,0.572,3.892,1.612c1.041,1.04,1.612,2.423,1.611,3.893c0,3.035-2.47,5.505-5.504,5.505l-43.202-0.008
	l21.259,37.608c1.493,2.643,0.559,6.008-2.083,7.501C305.021,424.824,304.085,425.07,303.141,425.07 M272.96,371.247l28.006,49.546
	c0.218,0.385,0.533,0.704,0.913,0.928c0.748,0.435,1.721,0.449,2.487,0.016c1.197-0.676,1.62-2.201,0.943-3.398l-23.798-42.102
	l48.362,0.009c1.375,0,2.494-1.119,2.495-2.494c0-0.667-0.261-1.293-0.731-1.765c-0.471-0.47-1.097-0.73-1.763-0.73L272.96,371.247z
	"/>
<path fill="#FFFFFF" d="M290.326,381.381c-4.219,7.229-13.499,9.67-20.729,5.451c-7.229-4.219-9.67-13.499-5.451-20.729
	c4.219-7.229,13.499-9.67,20.729-5.451C292.104,364.871,294.545,374.152,290.326,381.381"/>
<path fill="#191818" d="M277.222,391.073c-3.054,0-6.069-0.817-8.72-2.364c-3.997-2.333-6.847-6.083-8.024-10.559
	c-1.178-4.478-0.541-9.145,1.792-13.142c3.094-5.304,8.834-8.598,14.98-8.598c3.054,0,6.069,0.818,8.72,2.365
	c3.997,2.333,6.847,6.082,8.025,10.559c1.177,4.478,0.541,9.145-1.792,13.142C289.107,387.779,283.368,391.073,277.222,391.073
	 M277.25,360.757c-4.606,0-8.909,2.47-11.228,6.441c-1.747,2.996-2.224,6.493-1.342,9.846c0.882,3.354,3.018,6.163,6.013,7.911
	c1.986,1.159,4.244,1.773,6.529,1.773c4.607,0,8.909-2.47,11.228-6.442c1.747-2.996,2.224-6.492,1.342-9.846
	c-0.882-3.354-3.017-6.163-6.012-7.911C281.792,361.37,279.535,360.757,277.25,360.757"/>
<path fill="#1A1A19" d="M360.92,310.855H244.225c-3.458,0-6.261,2.803-6.261,6.261v28.882h129.217v-28.882
	C367.181,313.658,364.378,310.855,360.92,310.855"/>
<path fill="#FFFFFF" d="M288.125,335.848v-3.251c7.346-7.136,8.881-8.729,8.881-11.02c0-1.535-1.174-2.528-2.679-2.528
	c-1.777,0-3.192,0.813-4.275,2.258l-2.409-2.527c1.626-2.168,4.004-3.313,6.744-3.313c3.884,0,6.713,2.349,6.713,6.082
	c0,3.04-2.047,5.629-7.014,10.747h7.104v3.553H288.125z"/>
<path fill="#FFFFFF" d="M303.626,333.048l2.438-2.589c1.055,1.385,2.469,2.167,4.186,2.167c1.927,0,3.041-1.474,3.041-3.16
	c0-1.986-1.055-3.161-2.86-3.161c-1.354,0-2.378,0.481-3.312,1.655l-2.921-0.783v-11.408h12.042v3.551h-8.008v5.148
	c0.783-0.963,2.139-1.655,3.673-1.655c3.041,0,5.479,2.379,5.479,6.533c0,4.033-2.739,6.863-7.014,6.863
	C307.27,336.209,305.131,335.066,303.626,333.048"/>
<polygon fill="#FFFFFF" points="271.679,325.952 259.938,328.661 249.103,325.952 249.103,319.631 259.938,322.34 271.679,319.631 
	"/>
<polygon fill="#FFFFFF" points="271.679,334.982 259.938,337.691 249.103,334.982 249.103,328.662 259.938,331.371 271.679,328.662 
	"/>
<polygon fill="#FFFFFF" points="356.043,325.952 344.303,328.661 333.467,325.952 333.467,319.631 344.303,322.34 356.043,319.631 
	"/>
<polygon fill="#FFFFFF" points="356.043,334.982 344.303,337.691 333.467,334.982 333.467,328.662 344.303,331.371 356.043,328.662 
	"/>
</svg>
