<?xml version="1.0" encoding="utf-8"?>
<!-- Generator: Adobe Illustrator 16.0.0, SVG Export Plug-In . SVG Version: 6.00 Build 0)  -->
<!DOCTYPE svg PUBLIC "-//W3C//DTD SVG 1.1//EN" "http://www.w3.org/Graphics/SVG/1.1/DTD/svg11.dtd">
<svg version="1.1" id="Layer_1" xmlns="http://www.w3.org/2000/svg" xmlns:xlink="http://www.w3.org/1999/xlink" x="0px" y="0px"
	 width="612px" height="792px" viewBox="0 0 612 792" enable-background="new 0 0 612 792" xml:space="preserve">
<path fill="none" d="M346.63,60"/>
<path fill="none" d="M346.63,3305.597"/>
<polygon fill="#1A1A19" points="302.257,354.324 251.145,323.982 303.136,308.902 354.238,323.23 "/>
<path fill="#66CDF4" d="M240.261,343.248v19.618l0.008,48.103c0,34.475,62.423,62.423,62.423,62.423s62.424-27.948,62.424-62.423
	l0.008-48.103v-19.618H240.261z"/>
<g opacity="0.5">
	<g>
		<defs>
			<rect id="SVGID_1_" x="303.282" y="342.26" width="60.026" height="127.58"/>
		</defs>
		<clipPath id="SVGID_2_">
			<use xlink:href="#SVGID_1_"  overflow="visible"/>
		</clipPath>
		<path clip-path="url(#SVGID_2_)" fill="#1B6BA4" d="M303.411,469.836c5.589-2.753,17.619-9.048,29.468-17.652
			c9.19-6.674,16.453-13.391,21.588-19.967c5.865-7.513,8.841-14.722,8.841-21.427v-47.224v-21.305h-60.025v127.511
			C303.325,469.793,303.37,469.815,303.411,469.836"/>
	</g>
</g>
<g opacity="0.4">
	<g>
		<defs>
			<rect id="SVGID_3_" x="238.083" y="338.47" width="129.217" height="137.19"/>
		</defs>
		<clipPath id="SVGID_4_">
			<use xlink:href="#SVGID_3_"  overflow="visible"/>
		</clipPath>
		<path clip-path="url(#SVGID_4_)" fill="#FFFFFF" d="M353.504,352.267v9.011l-0.009,49.784c0,18.215-31.2,39.305-50.76,49.273
			c-5.696-2.925-14.985-8.061-24.254-14.771c-17.149-12.413-26.594-24.667-26.594-34.505l-0.008-49.779v-9.014H353.504
			 M367.301,338.47H238.083v22.811l0.009,49.781c0,35.677,64.6,64.6,64.6,64.6s64.602-28.923,64.602-64.6l0.008-49.781V338.47z"/>
	</g>
</g>
<path fill="#1A1A19" d="M359.775,345.994v15.284l-0.009,49.783c0,8.389-5.03,22.042-28.997,39.445
	c-11.291,8.198-22.753,14.196-28.08,16.82c-5.288-2.602-16.619-8.527-27.885-16.683c-24.124-17.462-29.188-31.164-29.188-39.584
	l-0.008-49.78v-15.286H359.775 M367.301,338.47H238.083v22.811l0.009,49.781c0,35.677,64.6,64.6,64.6,64.6
	s64.602-28.923,64.602-64.6l0.008-49.781V338.47z"/>
<path fill="#FFFFFF" d="M343.082,390.389c-4.219,7.229-13.499,9.671-20.729,5.451c-7.229-4.218-9.67-13.499-5.451-20.728
	c4.219-7.23,13.499-9.67,20.729-5.452C344.86,373.879,347.301,383.16,343.082,390.389"/>
<g opacity="0.5">
	<g>
		<defs>
			<rect id="SVGID_5_" x="316.082" y="382.75" width="17.184" height="14.05"/>
		</defs>
		<clipPath id="SVGID_6_">
			<use xlink:href="#SVGID_5_"  overflow="visible"/>
		</clipPath>
		<polygon clip-path="url(#SVGID_6_)" fill="#1B6BA4" points="333.265,384.66 323.99,396.795 316.082,387.794 329.992,382.75 		"/>
	</g>
</g>
<path fill="#FFFFFF" d="M316.348,436.204c-4.22,7.229-13.5,9.67-20.729,5.451c-7.229-4.218-9.67-13.499-5.451-20.729
	c4.219-7.229,13.499-9.67,20.729-5.452C318.125,419.694,320.566,428.975,316.348,436.204"/>
<path fill="#191818" d="M329.979,400.081c-3.055,0-6.069-0.817-8.721-2.364c-3.998-2.333-6.848-6.083-8.024-10.559
	c-1.177-4.478-0.54-9.145,1.793-13.142c3.095-5.304,8.834-8.598,14.979-8.598c3.055,0,6.069,0.818,8.721,2.365
	c3.997,2.333,6.847,6.083,8.025,10.559c1.177,4.478,0.539,9.145-1.793,13.142C341.864,396.787,336.125,400.081,329.979,400.081
	 M330.006,369.765c-4.605,0-8.908,2.47-11.228,6.441c-1.747,2.997-2.224,6.493-1.342,9.846c0.882,3.354,3.017,6.163,6.012,7.911
	c1.987,1.159,4.245,1.773,6.53,1.773c4.605,0,8.908-2.47,11.227-6.442c1.748-2.996,2.226-6.492,1.344-9.845
	c-0.883-3.354-3.019-6.163-6.014-7.912C334.549,370.378,332.291,369.765,330.006,369.765"/>
<g opacity="0.5">
	<g>
		<defs>
			<rect id="SVGID_7_" x="285.393" y="416.97" width="21.137" height="25.641"/>
		</defs>
		<clipPath id="SVGID_8_">
			<use xlink:href="#SVGID_7_"  overflow="visible"/>
		</clipPath>
		<polygon clip-path="url(#SVGID_8_)" fill="#1B6BA4" points="306.53,430.475 297.254,442.61 285.393,429.108 294.667,416.973 		"/>
	</g>
</g>
<path fill="#191818" d="M303.243,445.896c-3.054,0-6.069-0.817-8.72-2.364c-8.252-4.815-11.048-15.448-6.232-23.7
	c3.094-5.304,8.834-8.598,14.98-8.598c3.054,0,6.069,0.818,8.72,2.365c8.252,4.814,11.048,15.447,6.233,23.7
	C315.129,442.603,309.389,445.896,303.243,445.896 M303.271,415.58c-4.606,0-8.909,2.47-11.228,6.441
	c-3.607,6.184-1.513,14.148,4.67,17.757c1.987,1.159,4.245,1.773,6.53,1.773c4.606,0,8.909-2.47,11.228-6.442
	c3.607-6.183,1.512-14.149-4.67-17.757C307.813,416.193,305.556,415.58,303.271,415.58"/>
<path fill="#66CDF4" d="M301.238,432.019c-0.591-0.345-1.101-0.846-1.462-1.485l-29.277-51.792l59.493,0.011c2.21,0,4,1.791,4,4
	s-1.791,3.998-4,3.998l-45.782-0.008l22.529,39.855c1.087,1.923,0.41,4.363-1.514,5.45
	C303.941,432.773,302.426,432.712,301.238,432.019"/>
<path fill="#191818" d="M303.26,434.07c-0.976,0-1.938-0.26-2.781-0.752c-0.839-0.49-1.535-1.197-2.014-2.045l-30.546-54.038
	l62.074,0.011c1.47,0,2.853,0.572,3.892,1.612c1.041,1.04,1.612,2.423,1.611,3.893c0,3.035-2.47,5.505-5.504,5.505l-43.202-0.008
	l21.259,37.608c1.493,2.643,0.559,6.008-2.083,7.501C305.14,433.824,304.204,434.07,303.26,434.07 M273.079,380.247l28.006,49.546
	c0.218,0.385,0.533,0.704,0.912,0.927c0.749,0.437,1.722,0.45,2.488,0.017c1.197-0.676,1.62-2.201,0.943-3.398l-23.798-42.102
	l48.362,0.009c1.375,0,2.494-1.119,2.495-2.494c0-0.667-0.261-1.293-0.731-1.765c-0.471-0.47-1.097-0.73-1.763-0.73L273.079,380.247
	z"/>
<path fill="#FFFFFF" d="M290.445,390.381c-4.219,7.229-13.499,9.67-20.729,5.451c-7.229-4.219-9.67-13.499-5.451-20.729
	c4.219-7.229,13.499-9.67,20.729-5.451C292.223,373.871,294.664,383.152,290.445,390.381"/>
<path fill="#191818" d="M277.341,400.073c-3.054,0-6.069-0.817-8.72-2.364c-8.252-4.815-11.048-15.448-6.232-23.7
	c3.094-5.304,8.834-8.598,14.98-8.598c3.054,0,6.069,0.818,8.72,2.365c3.997,2.333,6.847,6.082,8.025,10.559
	c1.177,4.478,0.541,9.145-1.792,13.142C289.227,396.779,283.487,400.073,277.341,400.073 M277.369,369.757
	c-4.606,0-8.909,2.47-11.228,6.441c-3.607,6.184-1.513,14.149,4.67,17.757c1.987,1.159,4.245,1.773,6.53,1.773
	c4.607,0,8.909-2.47,11.228-6.442c1.747-2.996,2.224-6.492,1.342-9.846c-0.882-3.354-3.018-6.163-6.012-7.911
	C281.911,370.37,279.654,369.757,277.369,369.757"/>
<path fill="#1A1A19" d="M361.039,319.855H244.344c-3.458,0-6.261,2.803-6.261,6.261v28.882H367.3v-28.882
	C367.3,322.658,364.497,319.855,361.039,319.855"/>
<path fill="#FFFFFF" d="M295.904,342.048l2.438-2.589c1.054,1.385,2.469,2.167,4.185,2.167c1.927,0,3.041-1.474,3.041-3.16
	c0-1.986-1.054-3.161-2.86-3.161c-1.355,0-2.379,0.481-3.312,1.655l-2.92-0.783v-11.408h12.042v3.551h-8.008v5.148
	c0.783-0.963,2.138-1.655,3.673-1.655c3.041,0,5.479,2.379,5.479,6.533c0,4.033-2.739,6.863-7.014,6.863
	C299.547,345.209,297.409,344.066,295.904,342.048"/>
<polygon fill="#66CDF4" points="271.798,334.952 260.058,337.661 249.222,334.952 249.222,328.631 260.058,331.34 271.798,328.631 
	"/>
<polygon fill="#66CDF4" points="271.798,343.982 260.058,346.691 249.222,343.982 249.222,337.662 260.058,340.371 271.798,337.662 
	"/>
<polygon fill="#66CDF4" points="356.162,334.952 344.422,337.661 333.586,334.952 333.586,328.631 344.422,331.34 356.162,328.631 
	"/>
<polygon fill="#66CDF4" points="356.162,343.982 344.422,346.691 333.586,343.982 333.586,337.662 344.422,340.371 356.162,337.662 
	"/>
</svg>
