<?xml version="1.0" encoding="utf-8"?>
<!-- Generator: Adobe Illustrator 16.0.0, SVG Export Plug-In . SVG Version: 6.00 Build 0)  -->
<!DOCTYPE svg PUBLIC "-//W3C//DTD SVG 1.1//EN" "http://www.w3.org/Graphics/SVG/1.1/DTD/svg11.dtd">
<svg version="1.1" id="Layer_1" xmlns="http://www.w3.org/2000/svg" xmlns:xlink="http://www.w3.org/1999/xlink" x="0px" y="0px"
	 width="215px" height="195px" viewBox="0 0 215 195" enable-background="new 0 0 215 195" xml:space="preserve">
<path fill="#68CDF4" d="M43.936,49.326v19.896l0.008,48.783c0,34.965,63.307,63.308,63.307,63.308s63.308-28.343,63.308-63.308
	l0.008-48.783V49.326H43.936L43.936,49.326z"/>
<g opacity="0.5">
	<g>
		<g>
			<defs>
				<rect id="SVGID_1_" x="107.842" y="49.26" width="60.025" height="127.58"/>
			</defs>
			<clipPath id="SVGID_2_">
				<use xlink:href="#SVGID_1_"  overflow="visible"/>
			</clipPath>
			<path clip-path="url(#SVGID_2_)" fill="#1D6CA4" d="M107.971,176.836c5.59-2.753,17.619-9.048,29.467-17.652
				c9.19-6.674,16.455-13.391,21.588-19.967c5.867-7.513,8.842-14.722,8.842-21.427V70.566V49.261h-60.025v127.511
				C107.884,176.793,107.93,176.815,107.971,176.836"/>
		</g>
	</g>
</g>
<polygon fill="#1A1A19" points="106.816,61.324 55.705,30.982 107.695,15.902 158.797,30.23 "/>
<g opacity="0.4">
	<g>
		<g>
			<defs>
				<rect id="SVGID_3_" x="42.642" y="45.47" width="129.217" height="137.19"/>
			</defs>
			<clipPath id="SVGID_4_">
				<use xlink:href="#SVGID_3_"  overflow="visible"/>
			</clipPath>
			<path clip-path="url(#SVGID_4_)" fill="#FFFFFF" d="M158.063,59.267v9.012l-0.008,49.783c0,18.216-31.199,39.306-50.76,49.273
				c-5.696-2.925-14.985-8.061-24.254-14.771c-17.149-12.413-26.594-24.667-26.594-34.506L56.439,68.28v-9.015L158.063,59.267
				 M171.859,45.47H42.642v22.812l0.009,49.781c0,35.677,64.6,64.6,64.6,64.6s64.601-28.923,64.601-64.6l0.008-49.781V45.47
				L171.859,45.47z"/>
		</g>
	</g>
</g>
<path fill="#1A1A19" d="M164.335,52.994v15.284l-0.009,49.782c0,8.39-5.03,22.042-28.997,39.445
	c-11.291,8.198-22.753,14.196-28.08,16.82c-5.288-2.603-16.619-8.527-27.885-16.684c-24.124-17.462-29.188-31.164-29.188-39.584
	l-0.008-49.779V52.993L164.335,52.994 M171.859,45.47H42.642v22.812l0.009,49.781c0,35.677,64.6,64.6,64.6,64.6
	s64.601-28.923,64.601-64.6l0.008-49.781V45.47L171.859,45.47z"/>
<path fill="#FFFFFF" d="M147.643,97.389c-4.22,7.229-13.5,9.671-20.729,5.451c-7.229-4.218-9.67-13.499-5.45-20.728
	c4.219-7.23,13.499-9.67,20.729-5.452C149.42,80.879,151.861,90.16,147.643,97.389"/>
<g opacity="0.5">
	<g>
		<g>
			<defs>
				<rect id="SVGID_5_" x="120.643" y="89.75" width="17.183" height="14.05"/>
			</defs>
			<clipPath id="SVGID_6_">
				<use xlink:href="#SVGID_5_"  overflow="visible"/>
			</clipPath>
			<polygon clip-path="url(#SVGID_6_)" fill="#1D6CA4" points="137.824,91.66 128.549,103.795 120.641,94.794 134.553,89.75 			"/>
		</g>
	</g>
</g>
<path fill="#FFFFFF" d="M120.906,143.204c-4.219,7.229-13.499,9.67-20.729,5.451c-7.229-4.218-9.67-13.499-5.451-20.729
	c4.219-7.229,13.499-9.67,20.729-5.452C122.686,126.694,125.125,135.975,120.906,143.204"/>
<path fill="#191818" d="M134.538,107.081c-3.054,0-6.069-0.817-8.72-2.364c-3.998-2.333-6.848-6.083-8.025-10.559
	c-1.177-4.479-0.54-9.146,1.793-13.143c3.094-5.304,8.834-8.598,14.98-8.598c3.054,0,6.067,0.818,8.72,2.365
	c8.252,4.814,11.048,15.448,6.231,23.7C146.424,103.787,140.684,107.081,134.538,107.081 M134.566,76.765
	c-4.607,0-8.909,2.471-11.229,6.441c-1.748,2.997-2.227,6.493-1.343,9.846c0.882,3.354,3.019,6.163,6.012,7.911
	c1.987,1.159,4.245,1.773,6.53,1.773c4.605,0,8.906-2.471,11.229-6.442c3.606-6.183,1.512-14.146-4.67-17.757
	C139.107,77.378,136.852,76.765,134.566,76.765"/>
<g opacity="0.5">
	<g>
		<g>
			<defs>
				<rect id="SVGID_7_" x="89.953" y="123.97" width="21.136" height="25.642"/>
			</defs>
			<clipPath id="SVGID_8_">
				<use xlink:href="#SVGID_7_"  overflow="visible"/>
			</clipPath>
			<polygon clip-path="url(#SVGID_8_)" fill="#1D6CA4" points="111.089,137.475 101.814,149.61 89.952,136.108 99.227,123.973 			
				"/>
		</g>
	</g>
</g>
<path fill="#191818" d="M107.803,152.896c-3.054,0-6.069-0.817-8.72-2.364c-8.252-4.815-11.048-15.448-6.232-23.7
	c3.094-5.304,8.834-8.598,14.98-8.598c3.054,0,6.069,0.817,8.72,2.364c3.997,2.333,6.848,6.083,8.025,10.56
	c1.177,4.478,0.539,9.145-1.793,13.142C119.688,149.603,113.949,152.896,107.803,152.896 M107.831,122.58
	c-4.606,0-8.909,2.47-11.228,6.441c-3.607,6.184-1.513,14.147,4.67,17.757c1.987,1.158,4.245,1.772,6.53,1.772
	c4.607,0,8.908-2.47,11.227-6.441c1.748-2.996,2.227-6.492,1.345-9.846c-0.883-3.354-3.019-6.163-6.015-7.912
	C112.373,123.193,110.115,122.58,107.831,122.58"/>
<path fill="#68CDF4" d="M105.797,139.019c-0.591-0.345-1.101-0.846-1.462-1.484L75.058,85.742l59.494,0.011
	c2.209,0,3.998,1.791,3.998,4s-1.791,3.998-4,3.998l-45.781-0.008l22.529,39.854c1.086,1.924,0.408,4.363-1.515,5.45
	C108.5,139.773,106.985,139.712,105.797,139.019"/>
<path fill="#191818" d="M107.82,141.07c-0.977,0-1.938-0.261-2.781-0.752c-0.839-0.49-1.535-1.197-2.014-2.045L72.479,84.235
	l62.074,0.011c1.471,0,2.854,0.572,3.893,1.612c1.039,1.04,1.611,2.423,1.611,3.894c0,3.034-2.47,5.504-5.506,5.504L91.35,95.248
	l21.259,37.608c1.492,2.643,0.559,6.008-2.084,7.501C109.699,140.824,108.764,141.07,107.82,141.07 M77.639,87.247l28.006,49.546
	c0.218,0.385,0.533,0.704,0.912,0.927c0.75,0.438,1.722,0.45,2.488,0.018c1.197-0.677,1.62-2.201,0.943-3.398L86.19,92.237
	l48.362,0.009c1.375,0,2.494-1.119,2.494-2.494c0-0.667-0.259-1.293-0.729-1.765c-0.471-0.471-1.098-0.73-1.764-0.73L77.639,87.247z
	"/>
<path fill="#FFFFFF" d="M95.004,97.381c-4.219,7.229-13.499,9.67-20.729,5.451c-7.229-4.219-9.67-13.499-5.451-20.729
	c4.219-7.229,13.499-9.67,20.729-5.45C96.782,80.871,99.223,90.152,95.004,97.381"/>
<path fill="#191818" d="M81.9,107.073c-3.054,0-6.069-0.817-8.72-2.364c-8.252-4.815-11.048-15.448-6.232-23.7
	c3.094-5.304,8.834-8.598,14.98-8.598c3.054,0,6.069,0.817,8.72,2.365c3.997,2.333,6.847,6.082,8.025,10.559
	c1.177,4.478,0.54,9.145-1.793,13.142C93.786,103.779,88.046,107.073,81.9,107.073 M81.928,76.757c-4.606,0-8.909,2.47-11.228,6.441
	c-3.607,6.184-1.513,14.148,4.67,17.757c1.987,1.159,4.245,1.772,6.53,1.772c4.607,0,8.908-2.47,11.227-6.441
	c1.748-2.996,2.225-6.492,1.343-9.846c-0.882-3.354-3.018-6.163-6.012-7.911C86.47,77.37,84.213,76.757,81.928,76.757"/>
<path fill="#1A1A19" d="M165.6,26.855H48.903c-3.458,0-6.261,2.803-6.261,6.261v28.882h129.217V33.116
	C171.859,29.658,169.057,26.855,165.6,26.855"/>
<polygon fill="#FFFFFF" points="107.33,51.848 107.33,36.976 104.289,40.137 101.972,37.699 107.872,31.768 111.395,31.768 
	111.395,51.848 "/>
<polygon fill="#68CDF4" points="76.555,41.952 64.815,44.661 53.979,41.952 53.979,35.631 64.815,38.34 76.555,35.631 "/>
<polygon fill="#68CDF4" points="76.555,50.982 64.815,53.691 53.979,50.982 53.979,44.662 64.815,47.371 76.555,44.662 "/>
<polygon fill="#676868" points="160.92,41.952 149.18,44.661 138.344,41.952 138.344,35.631 149.18,38.34 160.92,35.631 "/>
<polygon fill="#676868" points="160.92,50.982 149.18,53.691 138.344,50.982 138.344,44.662 149.18,47.371 160.92,44.662 "/>
</svg>
