<?xml version="1.0" encoding="utf-8"?>
<!-- Generator: Adobe Illustrator 16.0.0, SVG Export Plug-In . SVG Version: 6.00 Build 0)  -->
<!DOCTYPE svg PUBLIC "-//W3C//DTD SVG 1.1//EN" "http://www.w3.org/Graphics/SVG/1.1/DTD/svg11.dtd">
<svg version="1.1" id="Layer_1" xmlns="http://www.w3.org/2000/svg" xmlns:xlink="http://www.w3.org/1999/xlink" x="0px" y="0px"
	 width="612px" height="792px" viewBox="0 0 612 792" enable-background="new 0 0 612 792" xml:space="preserve">
<path fill="none" d="M346.63,60"/>
<path fill="none" d="M346.63,3305.597"/>
<path fill="#66CDF4" d="M240.089,334.317v19.598l0.008,48.051c0,34.438,62.355,62.355,62.355,62.355s62.356-27.918,62.356-62.355
	l0.008-48.051v-19.598H240.089z"/>
<g opacity="0.5">
	<g>
		<defs>
			<rect id="SVGID_1_" x="303.04" y="333.26" width="60.03" height="127.58"/>
		</defs>
		<clipPath id="SVGID_2_">
			<use xlink:href="#SVGID_1_"  overflow="visible"/>
		</clipPath>
		<path clip-path="url(#SVGID_2_)" fill="#1B6BA4" d="M303.173,460.836c5.59-2.753,17.618-9.048,29.468-17.652
			c9.191-6.674,16.454-13.391,21.588-19.967c5.866-7.513,8.841-14.722,8.841-21.427v-47.224v-21.305h-60.025v127.511
			C303.086,460.793,303.132,460.815,303.173,460.836"/>
	</g>
</g>
<g opacity="0.4">
	<g>
		<defs>
			<rect id="SVGID_3_" x="237.84" y="329.47" width="129.221" height="137.19"/>
		</defs>
		<clipPath id="SVGID_4_">
			<use xlink:href="#SVGID_3_"  overflow="visible"/>
		</clipPath>
		<path clip-path="url(#SVGID_4_)" fill="#FFFFFF" d="M353.266,343.267v9.011l-0.008,49.784c0,18.215-31.2,39.305-50.761,49.273
			c-5.696-2.925-14.985-8.061-24.254-14.771c-17.149-12.413-26.594-24.667-26.594-34.505l-0.008-49.779v-9.014H353.266
			 M367.063,329.47H237.844v22.811l0.009,49.781c0,35.677,64.6,64.6,64.6,64.6s64.602-28.923,64.602-64.6l0.008-49.781V329.47z"/>
	</g>
</g>
<path fill="#1A1A19" d="M359.537,336.994v15.284l-0.009,49.783c0,8.389-5.03,22.042-28.997,39.445
	c-11.289,8.198-22.75,14.194-28.078,16.818c-5.329-2.625-16.79-8.622-28.078-16.818c-23.966-17.403-28.997-31.057-28.997-39.446
	l-0.008-49.78v-15.286H359.537 M367.063,329.47H237.844v22.811l0.009,49.781c0,35.677,64.6,64.6,64.6,64.6
	s64.602-28.923,64.602-64.6l0.008-49.781V329.47z"/>
<path fill="#FFFFFF" d="M342.844,381.389c-4.219,7.229-13.498,9.671-20.729,5.451c-7.229-4.218-9.67-13.499-5.451-20.728
	c4.219-7.23,13.499-9.67,20.729-5.452C344.622,364.879,347.063,374.16,342.844,381.389"/>
<g opacity="0.5">
	<g>
		<defs>
			<rect id="SVGID_5_" x="315.84" y="373.75" width="17.19" height="14.05"/>
		</defs>
		<clipPath id="SVGID_6_">
			<use xlink:href="#SVGID_5_"  overflow="visible"/>
		</clipPath>
		<polygon clip-path="url(#SVGID_6_)" fill="#1B6BA4" points="333.027,375.66 323.752,387.795 315.844,378.794 329.754,373.75 		"/>
	</g>
</g>
<path fill="#FFFFFF" d="M316.109,427.204c-4.22,7.229-13.5,9.67-20.729,5.451c-7.229-4.218-9.67-13.499-5.451-20.729
	c4.219-7.229,13.499-9.67,20.729-5.452C317.887,410.694,320.328,419.975,316.109,427.204"/>
<path fill="#191818" d="M329.74,391.081c-3.055,0-6.069-0.817-8.721-2.364c-8.252-4.815-11.047-15.448-6.231-23.7
	c3.094-5.304,8.834-8.598,14.979-8.598c3.055,0,6.069,0.818,8.721,2.365c3.997,2.333,6.847,6.083,8.025,10.559
	c1.177,4.478,0.541,9.145-1.793,13.142C341.626,387.787,335.887,391.081,329.74,391.081 M329.768,360.765
	c-4.605,0-8.908,2.47-11.228,6.441c-3.606,6.184-1.513,14.149,4.67,17.757c1.987,1.159,4.245,1.773,6.53,1.773
	c4.607,0,8.909-2.47,11.229-6.442c1.746-2.995,2.224-6.492,1.342-9.845c-0.883-3.354-3.019-6.163-6.014-7.912
	C334.311,361.378,332.053,360.765,329.768,360.765"/>
<g opacity="0.5">
	<g>
		<defs>
			<rect id="SVGID_7_" x="285.15" y="407.97" width="21.14" height="25.641"/>
		</defs>
		<clipPath id="SVGID_8_">
			<use xlink:href="#SVGID_7_"  overflow="visible"/>
		</clipPath>
		<polygon clip-path="url(#SVGID_8_)" fill="#1B6BA4" points="306.292,421.475 297.017,433.61 285.154,420.108 294.43,407.973 		"/>
	</g>
</g>
<path fill="#191818" d="M303.005,436.896c-3.054,0-6.069-0.817-8.72-2.364c-3.998-2.333-6.848-6.083-8.025-10.559
	c-1.177-4.478-0.54-9.145,1.793-13.142c3.093-5.304,8.834-8.598,14.98-8.598c3.054,0,6.069,0.818,8.721,2.365
	c8.252,4.815,11.047,15.447,6.231,23.7C314.891,433.603,309.151,436.896,303.005,436.896 M303.033,406.58
	c-4.607,0-8.909,2.47-11.227,6.441c-1.748,2.997-2.225,6.493-1.343,9.846c0.882,3.354,3.017,6.163,6.012,7.911
	c1.987,1.159,4.245,1.773,6.53,1.773c4.606,0,8.908-2.47,11.227-6.442c3.607-6.183,1.513-14.148-4.67-17.757
	C307.575,407.193,305.318,406.58,303.033,406.58"/>
<path fill="#66CDF4" d="M301,423.019c-0.591-0.345-1.102-0.846-1.462-1.485l-29.277-51.792l59.494,0.011
	c2.209,0,3.999,1.791,3.999,4s-1.791,3.998-4,3.998l-45.782-0.008l22.529,39.855c1.087,1.923,0.409,4.363-1.514,5.45
	C303.703,423.773,302.188,423.712,301,423.019"/>
<path fill="#191818" d="M303.022,425.07c-0.976,0-1.938-0.26-2.781-0.752c-0.839-0.491-1.535-1.197-2.014-2.044l-30.546-54.039
	l62.074,0.011c1.47,0,2.852,0.572,3.892,1.612c1.039,1.04,1.61,2.423,1.61,3.893c0,3.035-2.469,5.505-5.504,5.505l-43.202-0.008
	l21.258,37.608c1.492,2.643,0.559,6.008-2.083,7.501C304.901,424.824,303.966,425.07,303.022,425.07 M272.841,371.247l28.006,49.546
	c0.218,0.385,0.533,0.705,0.912,0.928c0.748,0.435,1.722,0.449,2.487,0.016c1.197-0.676,1.62-2.201,0.944-3.398l-23.798-42.102
	l48.361,0.009c1.375,0,2.494-1.119,2.494-2.494c0-0.667-0.259-1.293-0.729-1.765c-0.472-0.47-1.097-0.73-1.763-0.73L272.841,371.247
	z"/>
<path fill="#FFFFFF" d="M290.207,381.381c-4.219,7.229-13.499,9.67-20.729,5.451c-7.229-4.219-9.67-13.499-5.451-20.729
	c4.219-7.229,13.499-9.67,20.729-5.451C291.984,364.871,294.426,374.152,290.207,381.381"/>
<path fill="#191818" d="M277.103,391.073c-3.054,0-6.069-0.817-8.72-2.364c-3.998-2.333-6.848-6.083-8.025-10.559
	c-1.177-4.478-0.54-9.145,1.793-13.142c3.093-5.304,8.834-8.598,14.98-8.598c3.054,0,6.069,0.818,8.72,2.365
	c3.997,2.333,6.847,6.083,8.025,10.559c1.177,4.478,0.54,9.145-1.793,13.142C288.989,387.779,283.249,391.073,277.103,391.073
	 M277.131,360.757c-4.607,0-8.909,2.47-11.227,6.441c-1.748,2.997-2.225,6.493-1.343,9.846c0.882,3.354,3.017,6.163,6.012,7.911
	c1.987,1.159,4.245,1.773,6.53,1.773c4.606,0,8.908-2.47,11.227-6.442c1.748-2.996,2.225-6.492,1.343-9.846
	c-0.882-3.354-3.018-6.163-6.013-7.911C281.673,361.37,279.416,360.757,277.131,360.757"/>
<path fill="#1A1A19" d="M323.42,458.557c-10.387,6.446-19.063,10.539-20.966,11.416c-1.905-0.877-10.58-4.97-20.967-11.416v0.492
	c-0.003-0.002,0.004-0.005,0-0.007v15.051c11.415,7.014,20.568,11.112,20.568,11.112l0.399-0.001l0.399,0.001
	c0,0,9.152-4.099,20.567-11.112v-15.051c-0.004,0.002,0.004,0.005,0,0.007V458.557z"/>
<path fill="#1A1A19" d="M278.171,457.42c-9.748-6.171-20.759-14.313-29.014-23.745v15.051c8.118,9.569,19.145,17.858,29.014,24.171
	v-15.052c-0.004-0.002,0.003-0.005,0-0.007V457.42z"/>
<path fill="#1A1A19" d="M326.736,457.42v0.418c-0.004,0.002,0.003,0.005,0,0.007v15.052c9.869-6.313,20.895-14.602,29.014-24.171
	v-15.051C347.494,443.107,336.484,451.249,326.736,457.42"/>
<polygon fill="#1A1A19" points="302.019,345.324 250.907,314.982 302.898,299.902 354,314.23 "/>
<path fill="#1A1A19" d="M360.801,310.855H244.106c-3.458,0-6.261,2.803-6.261,6.261v28.882h129.218v-28.882
	C367.063,313.658,364.259,310.855,360.801,310.855"/>
<polygon fill="#FFFFFF" points="290.398,335.848 296.419,319.32 288.11,319.32 288.11,315.768 300.996,315.768 300.996,318.568 
	294.764,335.848 "/>
<path fill="#FFFFFF" d="M302.709,333.048l2.438-2.589c1.054,1.385,2.47,2.167,4.185,2.167c1.928,0,3.041-1.474,3.041-3.16
	c0-1.986-1.054-3.161-2.859-3.161c-1.355,0-2.379,0.481-3.312,1.655l-2.92-0.783v-11.408h12.042v3.551h-8.008v5.148
	c0.783-0.963,2.138-1.655,3.673-1.655c3.04,0,5.479,2.379,5.479,6.533c0,4.033-2.739,6.863-7.015,6.863
	C306.353,336.209,304.214,335.066,302.709,333.048"/>
<polygon fill="#FFFFFF" points="273.399,324.967 265.941,323.836 262.62,316.738 259.3,323.836 251.841,324.967 257.23,330.501 
	255.883,338.296 262.62,334.615 269.357,338.296 268.01,330.501 "/>
<polygon fill="#FFFFFF" points="353.066,324.967 345.607,323.836 342.287,316.738 338.967,323.836 331.508,324.967 336.897,330.501 
	335.55,338.296 342.287,334.615 349.023,338.296 347.677,330.501 "/>
</svg>
