<?xml version="1.0" encoding="utf-8"?>
<!-- Generator: Adobe Illustrator 16.0.0, SVG Export Plug-In . SVG Version: 6.00 Build 0)  -->
<!DOCTYPE svg PUBLIC "-//W3C//DTD SVG 1.1//EN" "http://www.w3.org/Graphics/SVG/1.1/DTD/svg11.dtd">
<svg version="1.1" id="Layer_1" xmlns="http://www.w3.org/2000/svg" xmlns:xlink="http://www.w3.org/1999/xlink" x="0px" y="0px"
	 width="215px" height="195px" viewBox="0 0 215 195" enable-background="new 0 0 215 195" xml:space="preserve">
<path fill="#1A1A19" d="M107.533,189.833l0.399-0.001l0.399,0.001"/>
<path fill="#EF862C" d="M43.475,143.813l64.105,37.011c1.715,0.99,3.989,1.469,6.248,1.441c2.141-0.025,4.268-0.503,5.893-1.441
	l64.105-37.011c3.338-1.927,6.068-6.659,6.068-10.514V59.277c0-3.854-2.73-8.586-6.068-10.514l-64.105-37.011
	c-1.625-0.938-3.752-1.415-5.893-1.441c-2.259-0.026-4.533,0.451-6.248,1.441L43.475,48.764c-3.338,1.928-6.069,6.659-6.069,10.514
	V133.3C37.405,137.154,40.137,141.887,43.475,143.813"/>
<path fill="#D39729" d="M184.809,144.853c3.411-1.97,6.201-6.804,6.201-10.744v-75.64c0-3.939-2.79-8.774-6.201-10.743
	L119.301,9.904c-1.536-0.887-3.514-1.366-5.535-1.453v175.676c2.021-0.089,3.999-0.567,5.535-1.454L184.809,144.853z"/>
<g opacity="0.4">
	<g>
		<defs>
			<rect id="SVGID_1_" x="35.74" y="8.43" width="155.82" height="175.721"/>
		</defs>
		<clipPath id="SVGID_2_">
			<use xlink:href="#SVGID_1_"  overflow="visible"/>
		</clipPath>
		<path clip-path="url(#SVGID_2_)" fill="#FFFFFF" d="M113.65,23.852l62.732,36.219v72.437l-62.732,36.219l-62.731-36.218V60.07
			L113.65,23.852 M113.649,8.432c-2.248,0-4.496,0.489-6.202,1.473l-65.506,37.82c-3.412,1.97-6.203,6.805-6.203,10.744v75.64
			c0,3.939,2.791,8.774,6.203,10.744l65.506,37.82c1.706,0.985,3.954,1.473,6.202,1.473c0.061,0,0.122,0,0.185-0.001
			c2.186-0.025,4.359-0.514,6.02-1.472l65.506-37.82c3.412-1.97,6.203-6.805,6.203-10.744v-75.64c0-3.939-2.791-8.774-6.203-10.744
			l-65.506-37.82c-1.66-0.958-3.834-1.445-6.02-1.472C113.771,8.432,113.71,8.432,113.649,8.432"/>
	</g>
</g>
<rect x="175.076" y="78.154" fill="#FFFFFF" width="12.221" height="36.269"/>
<g>
	<defs>
		<path id="SVGID_3_" d="M107.367,12.619L43.919,49.25c-3.306,1.909-6.008,6.591-6.008,10.408v73.262
			c0,3.816,2.702,8.498,6.008,10.407l63.448,36.631c1.695,0.979,3.947,1.452,6.184,1.426c2.117-0.024,4.225-0.499,5.832-1.426
			l63.447-36.631c3.303-1.909,6.006-6.591,6.006-10.407V59.658c0-3.817-2.703-8.499-6.006-10.408l-63.447-36.631
			c-1.607-0.927-3.715-1.401-5.832-1.425c-0.059-0.001-0.119-0.001-0.178-0.001C111.195,11.193,109.018,11.665,107.367,12.619"/>
	</defs>
	<clipPath id="SVGID_4_">
		<use xlink:href="#SVGID_3_"  overflow="visible"/>
	</clipPath>
	<path clip-path="url(#SVGID_4_)" fill="#FFFFFF" d="M100.194,83.475c0-4.252-3.447-7.698-7.698-7.698
		c-0.5,0-0.988,0.049-1.462,0.14c-1.626-4.177-5.683-7.139-10.435-7.139c-4.701,0-8.723,2.897-10.383,7.002
		c-0.039-0.001-0.076-0.003-0.115-0.003c-3.015,0-5.623,1.734-6.887,4.258c-0.266-0.038-0.535-0.059-0.813-0.059
		c-3.092,0-5.598,2.506-5.598,5.598c0,3.093,2.506,5.6,5.598,5.6h30.793V91.14C97.119,90.785,100.194,87.49,100.194,83.475"/>
	<path clip-path="url(#SVGID_4_)" fill="#FFFFFF" d="M129.605,13.664l9.052,2.278l0.771,1.38c0,0,16.213,1.963,20.986,7.333
		l4.49,1.405c1.305,0,5.519,1.838,6.213,2.94l15.471,33.324c1.449,2.166,2.248,5.748,0.618,8.386
		c-1.631,2.639-4.409,4.807-7.433,8.516c-3.025,3.711-2.832,8.496-2.832,8.496s1.801,1.06,4.248,1.652
		c8.49,2.058,8.533,13.707,8.533,13.707l42.334,8.716l21.566,32.548l-46.089-4.884l12.511,20.74c1.279,2.271,0.26,4.59-2.279,5.18
		l-45.152-0.453c0,0-12.346,9.784-21.838,13.511c-3.662,1.437-6.885,2.014-9.684,2.014c-4.455,0-7.838-1.462-10.213-3.243
		c-0.807,0.043-3.072,0.866-5.729,0.866c-2.402,0-5.125-0.674-7.377-3.208c0,0-3.166,0.867-6.631,0.867
		c-2.886,0-5.98-0.603-7.617-2.813c-1.918,0.527-3.646,0.737-5.174,0.737c-4.765,0-7.562-2.045-7.944-2.882l0.978-7.736
		l-23.222,4.513l-8.797,3.753c-6.831,2.173-12.171,2.919-16.284,2.919c-9.074,0-12.186-3.635-12.186-3.635
		c-2.361,0.494-4.349,0.691-6.018,0.691c-6.676,0-8.257-3.162-8.257-3.162c-1.91,0.597-3.47,0.831-4.741,0.831
		c-4.574,0-5.416-3.027-5.416-3.027c-6.588,0-5.49-3.294-4.941-11.803c0.549-8.51,7.137-25.488,7.137-25.488h67.508
		c0,0,10.311-25.507,12.251-29.411c1.938-3.902,9.032-5.927,9.032-5.927s-1.061-5.785-3.613-11.448
		c-2.266-5.027-4.096-7.22-6.057-10.011c-1.961-2.79-0.555-7.011,0.807-9.233l16.605-33.564c0,0,3.953-3.055,5.738-3.819
		C111.509,21.939,129.605,13.664,129.605,13.664 M128.969,6.699l-2.107,0.964c-0.193,0.088-4.775,2.188-9.508,4.741
		c-5.916,3.19-9.35,5.558-11.199,7.913c-1.938,1.182-4.002,2.732-4.995,3.5l-1.204,0.931l-0.676,1.365L82.79,59.441
		c-2.513,4.28-4.075,10.971-0.407,16.19c0.322,0.459,0.643,0.903,0.959,1.345c1.525,2.119,2.844,3.949,4.48,7.582
		c0.75,1.663,1.354,3.356,1.826,4.863c-2.715,1.5-5.578,3.721-7.14,6.865c-1.567,3.157-7.713,18.186-10.786,25.749H8.66H4.145
		l-1.635,4.211c-0.713,1.835-6.975,18.193-7.57,27.45c-0.061,0.936-0.129,1.808-0.189,2.617c-0.391,5.042-0.727,9.396,2.48,12.86
		c1.676,1.811,3.73,2.654,5.674,3.04c1.902,1.835,4.806,3.335,8.977,3.335c0.93,0,1.9-0.078,2.908-0.232
		c2.195,1.389,5.428,2.564,10.09,2.564c1.381,0,2.846-0.104,4.381-0.313c2.708,1.592,7.139,3.256,13.822,3.256
		c5.393,0,11.545-1.086,18.283-3.229l0.301-0.095l0.289-0.124l8.154-3.478l13.586-2.642l-0.07,0.557l0.781,1.707
		c1.814,3.967,7.548,6.737,13.945,6.737c1.104,0,2.229-0.08,3.367-0.237c2.168,1.32,5.201,2.313,9.424,2.313
		c1.744,0,3.404-0.168,4.781-0.374c2.65,1.786,5.779,2.715,9.227,2.715c1.703,0,3.234-0.225,4.449-0.463
		c3.418,1.865,7.334,2.84,11.492,2.84c3.848,0,7.918-0.832,12.096-2.471c8.076-3.17,17.639-10.025,21.637-13.031l42.875,0.431
		l0.791,0.008l0.77-0.18c3.254-0.756,5.848-2.844,7.117-5.729s1.057-6.209-0.584-9.119l-0.049-0.084l-0.049-0.083l-5.652-9.371
		l32.885,3.485l13.938,1.477l-7.74-11.684l-21.568-32.548l-1.502-2.27l-2.668-0.549l-37.75-7.772
		c-0.191-0.851-0.435-1.754-0.746-2.677c-1.877-5.548-5.439-9.491-10.148-11.301c0.047-0.063,0.094-0.127,0.145-0.188
		c1.148-1.407,2.284-2.591,3.383-3.734c1.678-1.747,3.262-3.396,4.549-5.482c3.068-4.963,2.025-11.012-0.428-15.026l-15.289-32.931
		l-0.176-0.379l-0.223-0.354c-1.953-3.109-7.061-5.267-10.258-5.863l-2.609-0.816c-5.32-4.469-14.645-6.618-20.238-7.551
		l-0.57-1.021l-2.76-0.695l-9.051-2.278L128.969,6.699z"/>
	<path clip-path="url(#SVGID_4_)" fill="#FFE164" d="M253.623,144.346l-22.184-31.622l-42.95-8.717l-0.235-3.775
		c-1.436-2.086-4.719-9.944-7.065-10.856s-4.247-1.651-4.247-1.651l2.359-6.372l8.377-10.641c0.848-2.465,0.36-6.22-1.09-8.386
		l-15.471-33.324c-0.693-1.103-2.313-1.998-3.615-1.998l-7.088-2.348c-3.828-2.551-13.152-7.766-24.148-7.729
		c-11.535,0.222-15.059,2.245-21.56,8.295c0,0-2.812,1.228-3.376,2.401L88.824,63.312c-1.361,2.223-1.828,6.04-1.043,8.525
		l7.928,14.167l-0.617,8.236l-6.365,4.656c-1.951,1.729-12.883,29.591-12.883,29.591L8.66,128.522c0,0-6.587,17.09-7.136,25.599
		c-0.55,8.51-1.647,11.805,4.94,11.805c0,0,1.373,4.94,10.157,2.195c0,0,2.47,4.941,14.272,2.471c0,0,6.574,7.678,28.472,0.717
		l8.797-3.753l20.462-4.514l-0.506,7.972c1.877,0.398,7.508,4.082,15.406,1.909c3.602,4.861,14.247,1.945,14.247,1.945
		c4.743,5.336,11.571,2.423,13.106,2.342c3.865,2.9,10.404,4.954,19.896,1.229s21.839-13.509,21.839-13.509l45.151,0.452
		c2.539-0.59,3.132-2.604,1.644-4.743c-1.481-2.129-3.237-5.115-4.562-8.777c-0.277-0.768-7.844-11.129-8.494-12.163
		L253.623,144.346z"/>
	<polygon clip-path="url(#SVGID_4_)" fill="#D3AC81" points="127.359,37.576 127.139,16.13 139.891,15.325 139.891,30.481 	"/>
	<path clip-path="url(#SVGID_4_)" fill="#A88056" d="M109.908,74.087l7.363,0.225l-2.66-40.201c0,0-5.144-11.694-10.793-3.761
		c-4.195,5.892-13.504,30.273-14.994,32.962c-2.184,3.941-1.145,6.931-0.059,8.618c0.652,1.012,1.32,1.556,1.32,1.556l0.199,0.006
		l4.14,8.281l3.5,12.75l15.375-2.875l2.5-8l-4.125-0.375L109.908,74.087z"/>
	<path clip-path="url(#SVGID_4_)" fill="#A88056" d="M111.594,26.088c1.193-5.023-6.883,34.753-5.994,38.131
		c2.211,8.402,7.076,18.694,7.076,18.694s24.076-0.014,43.658-3.795c0,0,4.48-8.582,3.498-18.999c0,0,11.793-3.145,9.827-8.648
		c-1.966-5.503-1.296-18.675-8.175-13.564l-0.197-13.893c0,0-13.619-8.257-26.986-6.881
		C108.186,19.822,111.279,26.42,111.594,26.088"/>
	<path clip-path="url(#SVGID_4_)" fill="#FFE164" d="M148.481,25.12c0,0-4.319,13.28-4.081,19.612
		c0.102,2.723,6.039-2.314,6.547-0.267l-2.668,3.22c0,0-7.846,4.313-8.569,10.304c-0.724,5.991-0.479,14.046-0.479,14.046
		l-10.381,4.928l-7.795,6.671l-2.36-1.233l-8.364,0.289c0,0-7.871-20.939-4.82-28.372s4.828-29.828,4.828-29.828l10.024-11.28
		l10.069-0.207l9.459,2.323l-0.424-1.476L148.481,25.12z"/>
	<polyline clip-path="url(#SVGID_4_)" fill="#A88056" points="154.477,25.209 170.568,28.802 192.84,47.358 188.957,68.222 
		186.461,88.153 151.705,88.153 155.951,57.606 152.195,25.209 	"/>
	<path clip-path="url(#SVGID_4_)" fill="#A88056" d="M129.168,77.253c9.009,26.22,21.281,20.905,21.281,20.905l21.313-11.832
		l-11.32-3.616l-2.838-13.724C157.604,68.986,130.039,75.813,129.168,77.253"/>
	<path clip-path="url(#SVGID_4_)" fill="#A88056" d="M129.168,77.253c9.009,26.22,21.281,20.905,21.281,20.905l21.313-11.832
		l-11.32-3.616l-2.838-13.724C157.604,68.986,130.039,75.813,129.168,77.253"/>
	<path clip-path="url(#SVGID_4_)" fill="#1A1A19" d="M117.926,81.852c1.301-0.032,2.619-0.029,3.904-0.095l3.879-0.154l1.941-0.077
		c0.648-0.016,1.293-0.086,1.939-0.128l3.885-0.289l3.889-0.289c1.3-0.08,2.572-0.312,3.863-0.458l7.734-1.007l-0.395,0.366
		l3.945-11.519L149.58,80.02l-0.073,0.297l-0.321,0.07l-7.682,1.688c-1.285,0.262-2.563,0.607-3.857,0.801l-3.883,0.632
		l-3.887,0.632c-0.65,0.099-1.295,0.227-1.949,0.299l-1.957,0.25l-3.918,0.499c-1.313,0.18-2.602,0.288-3.902,0.434L117.926,81.852z
		"/>
	<path clip-path="url(#SVGID_4_)" fill="#A88056" d="M118.93,42.271c-1.453-1.634-6.602-2.105-8.811-2.105
		c-4.301,0-7.822,3.959-7.822,8.26l13.572-0.406c1.104,2.117,2.342,4.312,2.342,4.312C118.771,49.402,120.381,43.906,118.93,42.271"
		/>
	<path clip-path="url(#SVGID_4_)" fill="#A88056" d="M113.619,68.862c0,0,1.854-4.988,3.01-5.493c1.156-0.504,2.826,0.4,2.826,0.4
		s4.76-1.967,6.575-1.255c1.815,0.713,4.478,5.594,4.478,5.594s-9.834-0.951-11.967-0.582
		C116.407,67.896,113.619,68.862,113.619,68.862"/>
	<path clip-path="url(#SVGID_4_)" fill="#A88056" d="M114.855,72.225c0,0,1.188-1.664,4.867-1.816
		c3.682-0.152,9.133,0.282,9.617,1.218c0.291,0.561-4.74,2.443-8.957,2.563C117.557,74.269,115.096,72.917,114.855,72.225"/>
	<path clip-path="url(#SVGID_4_)" fill="#A88056" d="M148.004,37.934c0,0-13.859,0.099-17.496,1.923
		c-2.998,1.503-6.951,12.428-8.053,15.734l-6.928,0.454l1.748,3.877l10.396,0.092l3.771-11.997h19.229
		c2.908,0.649,7.916,3.124,7.916,3.124L148.004,37.934z"/>
	<path clip-path="url(#SVGID_4_)" fill="#A88056" d="M155.106,89.56l20.864,6.519l18.83,43.822c0,0-34.193,3.282-41.554,6.777
		c-7.36,3.496-7.788,33.711-7.788,33.711l28.26-15.275l46.578-0.155l0.852-4.571l-28.004-26.836l-3.512-29.6l-1.857-9.943
		l-5.482-4.448H155.106z"/>
	<polygon clip-path="url(#SVGID_4_)" fill="#A88056" points="184.023,102.578 216.352,108.354 223.59,141.163 194.598,143.268 
		183.579,116.316 	"/>
	<polygon clip-path="url(#SVGID_4_)" fill="#1A1A19" points="209.67,145.959 190.24,137.738 187.734,102.326 191.5,102.061 
		193.844,135.162 211.141,142.482 	"/>
	<g opacity="0.5" clip-path="url(#SVGID_4_)">
		<g>
			<defs>
				<rect id="SVGID_5_" x="86.061" y="104.92" width="95.76" height="3.43"/>
			</defs>
			<clipPath id="SVGID_6_">
				<use xlink:href="#SVGID_5_"  overflow="visible"/>
			</clipPath>
			<rect x="86.059" y="104.916" clip-path="url(#SVGID_6_)" fill="#A88056" width="95.762" height="3.438"/>
		</g>
	</g>
	<polygon clip-path="url(#SVGID_4_)" fill="#A88056" points="116.468,88.81 115.738,100.042 88.652,99.469 92.446,95.543 	"/>
	<polygon clip-path="url(#SVGID_4_)" fill="#A88056" points="116.384,91.521 116.384,129.73 109.73,129.73 105.059,99.468 	"/>
	<polygon clip-path="url(#SVGID_4_)" fill="#A88056" points="160.572,93.695 158.879,129.73 153.063,129.73 148.391,96.707 	"/>
	<polygon clip-path="url(#SVGID_4_)" fill="#A88056" points="181.861,98.678 149.384,98.678 145.99,95.24 181.861,95.24 	"/>
	<g opacity="0.5" clip-path="url(#SVGID_4_)">
		<g>
			<defs>
				<rect id="SVGID_7_" x="81.34" y="114.08" width="104.709" height="3.91"/>
			</defs>
			<clipPath id="SVGID_8_">
				<use xlink:href="#SVGID_7_"  overflow="visible"/>
			</clipPath>
			<rect x="81.339" y="114.076" clip-path="url(#SVGID_8_)" fill="#A88056" width="104.71" height="3.909"/>
		</g>
	</g>
	<g opacity="0.5" clip-path="url(#SVGID_4_)">
		<g>
			<defs>
				<rect id="SVGID_9_" x="76.3" y="124.11" width="107.72" height="5.75"/>
			</defs>
			<clipPath id="SVGID_10_">
				<use xlink:href="#SVGID_9_"  overflow="visible"/>
			</clipPath>
			<polygon clip-path="url(#SVGID_10_)" fill="#A88056" points="184.023,129.855 81.803,129.855 76.301,128.271 78.336,124.113 
				184.023,124.113 			"/>
		</g>
	</g>
	<path clip-path="url(#SVGID_4_)" fill="#A88056" d="M149.254,96.959l34.611,0.236c0,0,4.27-6.566,0.154-6.48
		c-4.114,0.086-16.618-3.889-16.618-3.889L149.254,96.959z"/>
	<path clip-path="url(#SVGID_4_)" fill="#A88056" d="M88.625,163.042l2.543-17.639l7.625-6.702H25.232
		c-13.641,0-14.184,23.893-14.184,23.893l39.686,11.604c0,0,13.902,3.732,26.43-6.644L88.625,163.042z"/>
	<path clip-path="url(#SVGID_4_)" fill="#1A1A19" d="M97.508,95.094c-0.971,0-1.795-0.74-1.879-1.726
		c-0.09-1.038,0.68-1.953,1.719-2.043l15.738-1.36l1.205-4.631l-5.229-0.392l-0.328-1.327c-0.204-0.833-5.039-20.459-5.039-27.738
		c0-6.486,2.224-11.012,2.95-12.32l2.598-18.794c0.145-1.032,1.094-1.75,2.129-1.61c1.033,0.142,1.754,1.095,1.611,2.129
		l-2.703,19.565l-0.219,0.346c-0.023,0.036-2.59,4.245-2.59,10.685c0,5.788,3.514,20.93,4.607,25.504l7.006,0.525l-3.015,11.592
		l-18.397,1.589C97.617,95.092,97.563,95.094,97.508,95.094"/>
	<path clip-path="url(#SVGID_4_)" fill="#1A1A19" d="M180.668,91.189l-22.11-6.369l-0.067-24.783l3.791-1.26
		c0.289-0.089,5.926-1.866,6.268-6.744c0.238-3.388-2.385-11.496-4.926-12.52c-0.229-0.091-0.924-0.37-2.264,1.237l-3.523,4.224
		l0.691-20.385l3.773,0.129l-0.376,11.13c1.291-0.372,2.394-0.126,3.108,0.162c5.015,2.019,7.554,12.431,7.283,16.286
		c-0.527,7.502-8.56,9.98-8.902,10.082l-1.141,0.379l0.051,19.219l19.388,5.584L180.668,91.189z"/>
	<polygon clip-path="url(#SVGID_4_)" fill="#1A1A19" points="76.359,125.989 88.967,129.854 75.781,129.721 	"/>
	<path clip-path="url(#SVGID_4_)" fill="#1A1A19" d="M109.025,37.338c0,0,0.064,0.004,0.184,0.012
		c0.111,0.011,0.273,0.027,0.48,0.047c0.406,0.046,0.977,0.121,1.654,0.243c1.35,0.249,3.148,0.665,4.84,1.496
		c0.838,0.419,1.652,0.938,2.271,1.61c0.317,0.321,0.562,0.698,0.756,1.061c0.19,0.369,0.302,0.741,0.366,1.084
		c0.055,0.347,0.066,0.659,0.047,0.933c-0.016,0.272-0.068,0.504-0.096,0.691c-0.102,0.366-0.16,0.575-0.16,0.575
		s0-0.215-0.001-0.588c-0.024-0.186-0.035-0.409-0.091-0.654c-0.051-0.247-0.139-0.512-0.262-0.782
		c-0.135-0.266-0.305-0.531-0.529-0.771c-0.232-0.232-0.482-0.457-0.797-0.633c-0.602-0.371-1.355-0.599-2.123-0.744
		c-1.547-0.283-3.18-0.211-4.379-0.097c-0.6,0.06-1.098,0.132-1.438,0.189c-0.355,0.057-0.496,0.096-0.509,0.097L109.025,37.338z"/>
	<path clip-path="url(#SVGID_4_)" fill="#A88056" d="M133.967,149.521c0,0-4.667,7.5-16,6.833l-2,16.334l13,3.5L133.967,149.521z"/>
	<path clip-path="url(#SVGID_4_)" fill="#A88056" d="M150.633,149.521c0,0-4.928,7.922-16.899,7.219l-2.112,17.252l13.731,3.696
		L150.633,149.521z"/>
	<path clip-path="url(#SVGID_4_)" fill="#A88056" d="M119.301,149.521c0,0-4.668,7.5-16,6.833l-2,16.334l13,3.5L119.301,149.521z"/>
	<path clip-path="url(#SVGID_4_)" fill="#A88056" d="M105.133,149.521c0,0-4.666,7.5-16,6.833l-2,16.334l13,3.5L105.133,149.521z"/>
	<polygon clip-path="url(#SVGID_4_)" fill="#1A1A19" points="162.334,39.968 157.492,53.068 158.102,39.115 	"/>
	<path clip-path="url(#SVGID_4_)" fill="#1A1A19" d="M127.621,176.986l3.816-19.468c0.232-1.229,0.502-2.411,0.678-3.639
		c0.212-1.223,0.441-2.454,0.912-3.63c0.458-1.18,1.271-2.22,2.189-2.889c0.914-0.685,1.858-1.115,2.727-1.479
		c1.745-0.707,3.229-1.139,4.266-1.46c1.037-0.308,1.631-0.483,1.631-0.483s-0.57,0.241-1.565,0.663
		c-0.988,0.435-2.421,1.035-4.028,1.91c-0.796,0.443-1.642,0.961-2.359,1.644c-0.727,0.677-1.245,1.535-1.521,2.557
		c-0.282,1.02-0.375,2.18-0.442,3.367c-0.045,1.217-0.092,2.452-0.138,3.688c-0.339,9.901-0.677,19.801-0.677,19.801
		L127.621,176.986z"/>
	<path clip-path="url(#SVGID_4_)" fill="#1A1A19" d="M112.787,176.986c0,0,1.908-9.733,3.818-19.468
		c0.23-1.229,0.5-2.411,0.676-3.639c0.213-1.223,0.441-2.454,0.914-3.63c0.457-1.18,1.27-2.22,2.188-2.889
		c0.913-0.685,1.858-1.115,2.726-1.479c1.746-0.707,3.229-1.139,4.266-1.46c1.037-0.308,1.631-0.483,1.631-0.483
		s-0.568,0.241-1.564,0.663c-0.988,0.435-2.422,1.035-4.029,1.91c-0.795,0.443-1.641,0.961-2.359,1.644
		c-0.725,0.677-1.244,1.535-1.52,2.557c-0.283,1.02-0.375,2.18-0.442,3.367c-0.046,1.217-0.091,2.452-0.137,3.688
		c-0.339,9.901-0.679,19.801-0.679,19.801L112.787,176.986z"/>
	<path clip-path="url(#SVGID_4_)" fill="#1A1A19" d="M98.371,176.986l3.817-19.468c0.231-1.229,0.501-2.411,0.677-3.639
		c0.211-1.223,0.441-2.454,0.913-3.63c0.456-1.18,1.271-2.22,2.188-2.889c0.914-0.685,1.858-1.115,2.727-1.479
		c1.744-0.707,3.229-1.139,4.266-1.46c1.037-0.308,1.631-0.483,1.631-0.483s-0.569,0.241-1.566,0.663
		c-0.988,0.435-2.42,1.035-4.027,1.91c-0.797,0.443-1.643,0.961-2.359,1.644c-0.726,0.677-1.245,1.535-1.521,2.557
		c-0.281,1.02-0.375,2.18-0.441,3.367c-0.045,1.217-0.092,2.452-0.139,3.688c-0.337,9.901-0.676,19.801-0.676,19.801L98.371,176.986
		z"/>
	<polygon clip-path="url(#SVGID_4_)" fill="#A88056" points="138.014,5.463 134.703,38.482 157.058,38.207 166.166,5.484 	"/>
	<path clip-path="url(#SVGID_4_)" fill="#1A1A19" d="M145.23,42.734c-0.619-0.211-1.313-0.415-1.984-0.6
		c-0.68-0.188-1.363-0.359-2.052-0.516c-1.376-0.311-2.765-0.568-4.157-0.724c-1.393-0.159-2.793-0.224-4.16-0.1
		c-0.682,0.065-1.355,0.18-2,0.373c-0.322,0.097-0.63,0.22-0.934,0.358c-0.297,0.147-0.577,0.319-0.846,0.516l0.088-0.114
		l-3.676,5.762l2.855-6.209l0.018-0.037l0.068-0.075c0.271-0.298,0.568-0.569,0.887-0.813c0.322-0.234,0.658-0.45,1.01-0.635
		c0.701-0.371,1.438-0.647,2.183-0.87c1.493-0.436,3.021-0.658,4.538-0.78c1.521-0.125,3.039-0.14,4.557-0.096
		c0.756,0.022,1.514,0.063,2.271,0.12c0.764,0.059,1.501,0.125,2.305,0.233L145.23,42.734z"/>
	<path clip-path="url(#SVGID_4_)" fill="#1A1A19" d="M141.093,182.342c-4.866,0-8.402-1.607-10.664-3.136
		c-0.114,0.025-0.231,0.054-0.341,0.078c-1.168,0.271-2.932,0.681-4.938,0.681c-3.156,0-5.836-1.014-7.982-3.015
		c-1.297,0.276-3.58,0.673-6.023,0.673c-3.666,0-6.438-0.872-8.266-2.597c-1.58,0.347-3.194,0.522-4.813,0.522
		c-5.591,0-10.446-2.102-11.308-3.986l-0.193-0.423l0.315-5.726l-18.142,3.947l-8.801,3.745c-6.277,1.996-11.947,3.008-16.855,3.008
		c-7.342,0-11.172-2.224-12.754-3.485c-1.957,0.36-3.787,0.543-5.449,0.543c-5.043,0-7.672-1.652-8.936-2.896
		c-1.469,0.374-2.83,0.563-4.063,0.563c-3.834,0-5.713-1.763-6.575-3.061c-1.634-0.102-3.405-0.494-4.617-1.804
		c-1.81-1.955-1.584-4.876-1.243-9.298c0.064-0.828,0.133-1.72,0.195-2.678c0.559-8.683,6.975-26.271,7.248-27.016l0.455-1.242
		l67.574,0.172c2.104-4.969,10.172-23.99,11.787-27.483c1.881-4.065,6.02-5.836,8.504-6.558c-0.5-2.083-1.498-5.712-3.092-9.25
		c-1.832-4.064-3.348-6.171-4.953-8.398c-0.307-0.428-0.615-0.858-0.928-1.301c-2.58-3.674-0.797-8.748,0.696-11.231l16.782-33.922
		l0.395-0.277c0.359-0.254,3.17-2.218,5.166-3.287c1.93-8.04,8.42-12.205,19.309-12.382c0.281-0.005,0.502-0.006,0.65-0.015
		l0.362-0.095l10.312,2.595l0.705,1.264c3.76,0.528,15.975,2.575,20.834,7.426l3.826,1.197c1.84,0.224,5.961,1.9,7.277,3.569
		l20.917,20.835l-4.804,13.521c1.434,2.682,2.025,6.546,0.146,9.583c-0.035,0.273,0.396,0.973,0.654,1.391
		c0.906,1.469,2.597,4.205,0.051,7.327c-2.122,2.602-0.014,6.168,0.077,6.317l1.519,2.517l-2.916,0.344
		c-0.633,0.072-1.303,0.156-1.961,0.248c3.988,3.352,5.018,8.961,5.283,11.676l41.682,8.582l24.213,36.54l-46.299-4.906
		l10.547,17.488c0.934,1.653,1.072,3.442,0.405,4.957c-0.667,1.512-2.077,2.62-3.872,3.037l-0.22,0.051l-0.226-0.003l-44.492-0.446
		c-2.51,1.944-13.159,9.986-21.791,13.373C147.84,181.619,144.35,182.342,141.093,182.342 M131.463,175.288l0.549,0.411
		c1.743,1.309,4.734,2.865,9.081,2.865c2.782,0,5.808-0.633,8.993-1.883c9.115-3.578,21.234-13.137,21.355-13.232l0.523-0.415
		l45.566,0.457c0.533-0.162,0.912-0.452,1.078-0.829c0.186-0.421,0.111-0.965-0.209-1.531l-14.445-23.946l45.879,4.862
		l-18.922-28.557l-43.071-8.869l-0.007-1.533c0-0.098-0.156-10.196-7.09-11.878c-1.863-0.45-1.869-1.896-1.852-2.181
		c0.088-1.429,0.686-2.099,6.377-2.873c-0.654-2.155-0.961-5.324,1.32-8.122c0.773-0.949,0.637-1.377-0.338-2.956
		c-0.789-1.277-1.982-3.209-0.652-5.358c1.143-1.85,0.555-4.649-0.58-6.346l-0.527-0.788l4.617-12.998l-19.477-19.4l-0.115-0.182
		c-0.553-0.605-3.779-2.012-4.627-2.059h-0.289l-0.26-0.086l-4.99-1.561l-0.348-0.392c-3.521-3.961-15.488-6.188-19.803-6.714
		l-0.953-0.115l-0.842-1.507l-7.933-1.997c-0.219,0.014-0.483,0.019-0.827,0.024c-13.961,0.226-15.391,7.769-15.861,10.248
		l-0.188,0.987l-0.924,0.396c-1.176,0.504-3.727,2.199-5.004,3.079L90.199,63.588c-1.105,1.806-2.25,5.204-0.873,7.164
		c0.303,0.433,0.604,0.85,0.903,1.266c1.644,2.283,3.341,4.643,5.331,9.055c2.615,5.807,3.703,11.638,3.749,11.883l0.356,1.945
		l-1.959,0.267c-0.053,0.008-5.729,0.855-7.574,4.85c-1.797,3.882-12.123,28.28-12.229,28.524l-0.488,1.156L9.99,129.525
		c-1.477,4.179-6.139,17.841-6.582,24.717c-0.063,0.977-0.133,1.883-0.197,2.726c-0.236,3.058-0.441,5.698,0.248,6.441
		c0.264,0.286,1.002,0.628,3.006,0.628h1.434l0.387,1.383c0.045,0.12,0.662,1.644,3.596,1.644c1.191,0,2.598-0.251,4.178-0.744
		l1.533-0.479l0.719,1.437c0.021,0.03,1.336,2.119,6.568,2.119c1.67,0,3.564-0.218,5.631-0.651l1.094-0.229l0.727,0.849
		c0.006,0.004,2.836,2.976,10.752,2.976c4.496,0,9.754-0.944,15.627-2.805l9.053-3.824l23.161-5.041l-0.515,9.323
		c1.047,0.622,3.861,1.779,7.657,1.779c1.675,0,3.343-0.226,4.958-0.67l1.249-0.342l0.769,1.039
		c1.256,1.692,4.012,2.048,6.104,2.048c3.15,0,6.102-0.792,6.131-0.801l1.129-0.307l0.78,0.874c1.538,1.732,3.491,2.573,5.966,2.573
		c1.574,0,3.025-0.336,4.084-0.581c0.648-0.15,1.115-0.258,1.545-0.282L131.463,175.288z"/>
	<path clip-path="url(#SVGID_4_)" fill="#1A1A19" d="M132.217,170.355c0,0-9.168,3.167-14.417-0.25c0,0-9.251,1-13.665-2.583
		c0,0-11.335,1-15.086-3.25l-0.582,7.416l14.5,2.667l12.668,1.833l9,1.417l7,1.5L132.217,170.355z"/>
	<path clip-path="url(#SVGID_4_)" fill="#1A1A19" d="M90.504,166.591l-3.758-0.375l1.701-17.009
		c1.43-10.068,11.824-14.767,34.766-15.787c1.426-0.063,21.973-0.109,44.732-0.154c8.527-0.019,15.262-0.031,16.084-0.041
		l0.043,3.775c-0.84,0.01-7.584,0.024-16.119,0.04c-17.166,0.034-43.108,0.086-44.57,0.152
		c-26.237,1.167-30.449,7.275-31.188,12.468L90.504,166.591z"/>
	<polygon clip-path="url(#SVGID_4_)" fill="#010101" points="118.619,85.329 116.383,103.438 115.309,85.224 	"/>
</g>
<path fill="#1A1A19" d="M113.649,16.712l0.085,0.001c1.125,0.013,1.824,0.272,1.979,0.363l65.508,37.819
	c0.848,0.49,2.062,2.593,2.062,3.573v75.64c0,0.98-1.214,3.083-2.063,3.573l-65.506,37.82c-0.156,0.09-0.854,0.35-1.976,0.363
	h-0.088c-1.169,0-1.897-0.269-2.062-0.363l-65.508-37.82c-0.847-0.49-2.063-2.593-2.063-3.573v-75.64
	c0-0.98,1.215-3.083,2.063-3.573l65.508-37.819C111.752,16.981,112.48,16.712,113.649,16.712 M113.649,8.432
	c-2.248,0-4.496,0.489-6.202,1.473l-65.506,37.82c-3.412,1.97-6.203,6.805-6.203,10.744v75.64c0,3.939,2.791,8.774,6.203,10.744
	l65.506,37.82c1.706,0.985,3.954,1.473,6.202,1.473c0.062,0,0.122,0,0.185-0.001c2.186-0.025,4.359-0.514,6.02-1.472l65.506-37.82
	c3.412-1.97,6.203-6.805,6.203-10.744v-75.64c0-3.939-2.791-8.774-6.203-10.744l-65.506-37.82c-1.66-0.958-3.834-1.445-6.02-1.472
	C113.771,8.432,113.71,8.432,113.649,8.432"/>
<g>
	<g>
		<defs>
			<rect id="SVGID_11_" x="160.3" y="46.02" width="25" height="43.67"/>
		</defs>
		<clipPath id="SVGID_12_">
			<use xlink:href="#SVGID_11_"  overflow="visible"/>
		</clipPath>
		<path clip-path="url(#SVGID_12_)" fill="#A88056" d="M169.551,46.021c0,0,3.5,5,0,8.75s-9.17,6.626-9.17,6.626l-0.08,23.124
			l25,5.167l-0.25-35.917L169.551,46.021z"/>
	</g>
</g>
</svg>
