<?xml version="1.0" encoding="utf-8"?>
<!-- Generator: Adobe Illustrator 16.0.0, SVG Export Plug-In . SVG Version: 6.00 Build 0)  -->
<!DOCTYPE svg PUBLIC "-//W3C//DTD SVG 1.1//EN" "http://www.w3.org/Graphics/SVG/1.1/DTD/svg11.dtd">
<svg version="1.1" id="Layer_1" xmlns="http://www.w3.org/2000/svg" xmlns:xlink="http://www.w3.org/1999/xlink" x="0px" y="0px"
	 width="612px" height="792px" viewBox="0 0 612 792" enable-background="new 0 0 612 792" xml:space="preserve">
<path fill="#A6A8AC" d="M178.127,529.996l0.852-0.988c0.988,1.127,2.598,2.229,4.807,2.229c3.127,0,4.023-1.747,4.023-3.057
	c0-4.509-9.197-2.163-9.197-7.521c0-2.507,2.252-4.094,5.035-4.094c2.277,0,4.023,0.806,5.197,2.162l-0.875,0.966
	c-1.104-1.334-2.666-1.931-4.391-1.931c-2.047,0-3.588,1.172-3.588,2.828c0,3.932,9.197,1.77,9.197,7.496
	c0,1.977-1.311,4.347-5.449,4.347C181.209,532.435,179.301,531.398,178.127,529.996"/>
<polygon fill="#A6A8AC" points="198.941,532.157 198.941,518.016 193.93,518.016 193.93,516.819 205.289,516.819 205.289,518.016 
	200.275,518.016 200.275,532.157 "/>
<path fill="#A6A8AC" d="M220.285,532.158l-1.52-3.771h-8.117l-1.518,3.771h-1.518l6.279-15.338h1.631l6.279,15.338H220.285z
	 M214.719,518.223l-3.633,8.969h7.244L214.719,518.223z"/>
<polygon fill="#A6A8AC" points="229.141,532.157 229.141,518.016 224.129,518.016 224.129,516.819 235.488,516.819 235.488,518.016 
	230.475,518.016 230.475,532.157 "/>
<path fill="#A6A8AC" d="M240.963,526.271v-9.45h1.334v9.429c0,3.104,1.633,4.989,4.646,4.989c3.012,0,4.645-1.886,4.645-4.989
	v-9.429h1.334v9.45c0,3.794-2.023,6.163-5.979,6.163C243.01,532.434,240.963,530.042,240.963,526.271"/>
<polygon fill="#A6A8AC" points="259.5,532.157 259.5,516.819 269.229,516.819 269.229,518.016 260.813,518.016 260.813,523.695 
	269.066,523.695 269.066,524.891 260.813,524.891 260.813,530.963 269.229,530.963 269.229,532.157 "/>
<path fill="#A6A8AC" d="M283.375,524.5c0-4.483,2.943-7.934,7.451-7.934c4.484,0,7.449,3.45,7.449,7.934
	c0,4.484-2.965,7.935-7.449,7.935C286.318,532.435,283.375,528.984,283.375,524.5 M296.896,524.5c0-3.886-2.393-6.736-6.07-6.736
	c-3.703,0-6.07,2.851-6.07,6.736c0,3.863,2.367,6.737,6.07,6.737C294.504,531.237,296.896,528.363,296.896,524.5"/>
<polygon fill="#A6A8AC" points="304.281,532.157 304.281,516.819 314.01,516.819 314.01,518.016 305.594,518.016 305.594,523.695 
	313.848,523.695 313.848,524.891 305.594,524.891 305.594,532.157 "/>
<polygon fill="#A6A8AC" points="327.902,532.157 327.902,516.819 329.236,516.819 329.236,530.963 336.664,530.963 336.664,532.157 
	"/>
<rect x="342.118" y="516.82" fill="#A6A8AC" width="1.312" height="15.338"/>
<path fill="#A6A8AC" d="M350.006,532.157V516.82h6.301c2.574,0,4.23,1.495,4.23,3.908c0,1.932-1.311,3.243-2.689,3.519
	c1.633,0.253,2.988,1.955,2.988,3.772c0,2.553-1.654,4.138-4.391,4.138H350.006z M359.158,520.867c0-1.563-1.035-2.852-3.014-2.852
	h-4.828v5.681h4.828C358.123,523.696,359.158,522.453,359.158,520.867 M359.457,527.927c0-1.563-1.082-3.036-3.219-3.036h-4.922
	v6.071h4.922C358.262,530.962,359.457,529.789,359.457,527.927"/>
<polygon fill="#A6A8AC" points="366.91,532.157 366.91,516.819 376.637,516.819 376.637,518.016 368.221,518.016 368.221,523.695 
	376.477,523.695 376.477,524.891 368.221,524.891 368.221,530.963 376.637,530.963 376.637,532.157 "/>
<path fill="#A6A8AC" d="M391.633,532.158l-4.301-6.348h-3.379v6.348h-1.313V516.82h5.727c2.645,0,4.668,1.678,4.668,4.483
	c0,2.782-1.955,4.323-4.254,4.415l4.438,6.439H391.633z M391.656,521.304c0-1.932-1.357-3.288-3.404-3.288h-4.299v6.601h4.299
	C390.299,524.616,391.656,523.236,391.656,521.304"/>
<polygon fill="#A6A8AC" points="402.744,532.157 402.744,518.016 397.73,518.016 397.73,516.819 409.09,516.819 409.09,518.016 
	404.078,518.016 404.078,532.157 "/>
<polygon fill="#A6A8AC" points="419.096,532.157 419.096,525.604 413.002,516.819 414.59,516.819 419.764,524.362 424.938,516.819 
	426.523,516.819 420.43,525.604 420.43,532.157 "/>
<path fill="#D3DE32" d="M231.369,433.747l64.016,36.959c1.711,0.989,3.983,1.466,6.24,1.438c2.137-0.024,4.262-0.502,5.883-1.438
	l64.016-36.959c3.333-1.925,6.061-6.649,6.061-10.499V349.33c0-3.85-2.728-8.575-6.061-10.499l-64.016-36.96
	c-1.621-0.936-3.746-1.413-5.883-1.438c-2.257-0.026-4.529,0.45-6.24,1.438l-64.016,36.96c-3.334,1.924-6.062,6.649-6.062,10.499
	v73.918C225.308,427.098,228.035,431.822,231.369,433.747"/>
<path fill="#65BF72" d="M372.604,434.853c3.412-1.97,6.203-6.804,6.203-10.744v-75.64c0-3.939-2.791-8.774-6.203-10.743
	l-65.506-37.821c-1.537-0.887-3.516-1.366-5.537-1.453v175.676c2.021-0.089,4-0.567,5.537-1.454L372.604,434.853z"/>
<g opacity="0.7">
	<g>
		<defs>
			<rect id="SVGID_1_" x="223.529" y="298.43" width="155.83" height="175.721"/>
		</defs>
		<clipPath id="SVGID_2_">
			<use xlink:href="#SVGID_1_"  overflow="visible"/>
		</clipPath>
		<path clip-path="url(#SVGID_2_)" fill="#FFFFFF" d="M301.445,313.852l62.732,36.219v72.437l-62.732,36.219l-62.73-36.218V350.07
			L301.445,313.852 M301.445,298.432c-2.248,0-4.496,0.489-6.201,1.473l-65.508,37.82c-3.41,1.97-6.203,6.805-6.203,10.744v75.64
			c0,3.939,2.793,8.774,6.203,10.744l65.508,37.82c1.705,0.985,3.953,1.473,6.201,1.473c0.061,0,0.122,0,0.184-0.001
			c2.187-0.025,4.361-0.514,6.021-1.472l65.505-37.82c3.412-1.97,6.204-6.805,6.204-10.744v-75.64c0-3.939-2.792-8.774-6.204-10.744
			l-65.505-37.82c-1.659-0.958-3.834-1.445-6.021-1.472C301.567,298.432,301.506,298.432,301.445,298.432"/>
	</g>
</g>
<path fill="#1A1A19" d="M301.445,306.712l0.085,0.001c1.124,0.013,1.823,0.272,1.979,0.363l65.506,37.819
	c0.848,0.49,2.063,2.593,2.063,3.573v75.64c0,0.98-1.215,3.083-2.063,3.573l-65.506,37.82c-0.156,0.09-0.854,0.35-1.977,0.363
	h-0.088c-1.168,0-1.898-0.269-2.063-0.363l-65.506-37.82c-0.85-0.49-2.063-2.593-2.063-3.573v-75.64c0-0.98,1.213-3.083,2.063-3.573
	l65.506-37.819C299.547,306.981,300.277,306.712,301.445,306.712 M301.445,298.432c-2.248,0-4.496,0.489-6.202,1.473l-65.506,37.82
	c-3.412,1.97-6.203,6.805-6.203,10.744v75.64c0,3.939,2.791,8.774,6.203,10.744l65.506,37.82c1.706,0.985,3.954,1.473,6.202,1.473
	c0.061,0,0.121,0,0.184-0.001c2.188-0.025,4.36-0.514,6.02-1.472l65.507-37.82c3.411-1.97,6.202-6.805,6.202-10.744v-75.64
	c0-3.939-2.791-8.774-6.202-10.744l-65.507-37.82c-1.659-0.958-3.832-1.445-6.02-1.472
	C301.566,298.432,301.506,298.432,301.445,298.432"/>
<g>
	<defs>
		<path id="SVGID_3_" d="M295.29,300.561l-65.009,37.534c-3.387,1.954-6.156,6.752-6.156,10.66v75.067
			c0,3.908,2.77,8.707,6.156,10.663l65.009,37.531c1.739,1.005,4.046,1.488,6.337,1.462c2.171-0.026,4.327-0.511,5.975-1.462
			l65.01-37.531c3.386-1.956,6.156-6.755,6.156-10.663v-75.067c0-3.908-2.771-8.706-6.156-10.66l-65.01-37.534
			c-1.647-0.951-3.804-1.436-5.975-1.462c-0.059-0.001-0.119-0.001-0.178-0.001C299.217,299.098,296.984,299.582,295.29,300.561"/>
	</defs>
	<clipPath id="SVGID_4_">
		<use xlink:href="#SVGID_3_"  overflow="visible"/>
	</clipPath>
	<polygon clip-path="url(#SVGID_4_)" fill="#5E9E5A" points="293.721,351.396 238.35,367.695 295.326,364.582 	"/>
	<polygon clip-path="url(#SVGID_4_)" fill="#5E9E5A" points="293.405,329.945 239.055,310.511 286.936,341.55 	"/>
	<path clip-path="url(#SVGID_4_)" fill="#F1F7EA" d="M251.23,381.338l-6.904-6.904l-0.461-16.109c0,0-25.775-58.457-37.743-78.71
		s-36.823-0.46-36.823-0.46s24.396,98.962,30.84,106.326c6.443,7.364,5.522,4.603,5.522,4.603l15.649,36.824l34.063-34.522
		L251.23,381.338z"/>
	<path clip-path="url(#SVGID_4_)" fill="#A1CF9F" d="M235.27,397.128l13.723-16.153l-4.666-6.541l-0.461-16.11L221.974,311.5
		c0,0-8.577,24.729-1.715,41.026S235.27,397.128,235.27,397.128"/>
	<path clip-path="url(#SVGID_4_)" fill="#FFFFFF" d="M191.004,275.639c4.633,0,8.028,2.095,10.688,6.593
		c10.438,17.664,32.08,66.049,36.313,75.569c0.37,0.831,0.772,2.611,0.799,3.527l0.297,10.395c0.082,2.888,1.566,6.33,3.608,8.372
		l2.861,2.861c0.6,0.599,1.549,2.072,1.846,2.865l1.983,5.29l-26.355,26.712l-11.527-27.122c-0.936-2.201-2.478-3.556-3.604-4.545
		c-0.219-0.191-0.44-0.385-0.653-0.587c-0.539-0.51-1.529-1.518-3.203-3.428c-3.416-4.758-15.278-46.123-28.91-100.802
		C178.273,279.333,184.869,275.639,191.004,275.639 M191.004,270.491c-7.792,0-15.607,4.484-19.379,7
		c-1.314,0.876-2.02,2.905-1.638,4.438c4.008,16.09,24.351,96.923,30.151,103.552c1.609,1.84,2.76,3.048,3.578,3.824
		c1.147,1.086,2.445,1.957,3.063,3.41l13.414,31.561c0.359,0.848,0.986,1.291,1.664,1.291c0.486,0,1-0.227,1.462-0.695l30.045-30.45
		c1.11-1.125,1.56-3.234,1.005-4.713l-2.135-5.693c-0.555-1.478-1.909-3.582-3.026-4.698l-2.86-2.86
		c-1.117-1.117-2.059-3.303-2.104-4.88l-0.297-10.395c-0.045-1.579-0.6-4.029-1.24-5.472c-5.146-11.574-26.133-58.407-36.585-76.097
		C202.071,272.76,196.544,270.491,191.004,270.491"/>
	<path clip-path="url(#SVGID_4_)" fill="#1A1918" d="M221.857,427.178L221.857,427.178c-1.365,0-2.543-0.85-3.146-2.273
		l-13.414-31.56c-0.332-0.784-1.033-1.399-1.846-2.112c-0.282-0.246-0.564-0.496-0.841-0.758c-0.947-0.896-2.187-2.221-3.685-3.934
		c-5.887-6.728-24.836-81.475-30.502-104.223c-0.554-2.226,0.459-4.935,2.307-6.168c4.072-2.715,12.121-7.27,20.273-7.27
		c7.064,0,12.618,3.335,16.506,9.913c10.348,17.514,30.683,62.799,36.67,76.262c0.721,1.621,1.326,4.292,1.379,6.079l0.295,10.395
		c0.033,1.16,0.813,2.966,1.633,3.787l2.861,2.861c1.272,1.271,2.764,3.586,3.395,5.271l2.136,5.692
		c0.777,2.077,0.19,4.833-1.366,6.411l-30.045,30.45C223.719,426.761,222.793,427.178,221.857,427.178 M191.004,272.103
		c-7.304,0-14.717,4.216-18.486,6.729c-0.723,0.482-1.193,1.799-0.967,2.707c11.057,44.385,25.496,97.962,29.799,102.88
		c1.434,1.639,2.603,2.889,3.477,3.718c0.245,0.231,0.499,0.454,0.75,0.675c0.969,0.85,2.064,1.813,2.688,3.272l13.412,31.561
		c0.078,0.187,0.16,0.276,0.199,0.308c0.047-0.016,0.157-0.069,0.299-0.213l30.045-30.45c0.672-0.683,0.978-2.119,0.641-3.017
		l-2.135-5.691c-0.469-1.252-1.709-3.181-2.654-4.126l-2.861-2.861c-1.41-1.41-2.518-3.977-2.576-5.972l-0.296-10.396
		c-0.04-1.382-0.545-3.608-1.103-4.861c-5.969-13.424-26.238-58.567-36.499-75.932C201.469,274.906,196.848,272.103,191.004,272.103
		"/>
	<polygon clip-path="url(#SVGID_4_)" fill="#5E9E5A" points="296.484,374.474 243.504,397.379 299.68,387.368 	"/>
	<path clip-path="url(#SVGID_4_)" fill="#A1CF9F" d="M313.983,437.953l-9.206,8.593c0,0-16.264-3.375-15.957-11.968
		s14.729-29.766,14.729-29.766L313.983,437.953z"/>
	<path clip-path="url(#SVGID_4_)" fill="#F1F7EA" d="M309.15,420.232c0,0-3.529-4.603-6.444-9.206
		c-2.915-4.603-5.983-19.792-5.983-19.792l-0.461-3.683c0,0-10.586-16.11-4.603-23.475s12.888-17.952,22.554-18.411
		c9.666-0.461,27.157,11.507,27.157,11.507l11.968,25.315l5.063-4.603l7.825,1.381c0,0,10.586,11.047-8.285,17.951l11.507,48.331
		l-40.966,0.921l-21.174-3.223L309.15,420.232z"/>
	<polygon clip-path="url(#SVGID_4_)" fill="#5E9E5A" points="366.466,358.554 419.398,335.539 363.244,345.666 	"/>
	<polygon clip-path="url(#SVGID_4_)" fill="#5E9E5A" points="356.971,341.367 392.605,295.96 348.01,331.559 	"/>
	<polygon clip-path="url(#SVGID_4_)" fill="#5E9E5A" points="337.43,325.201 345.584,268.061 324.766,321.188 	"/>
	<polygon clip-path="url(#SVGID_4_)" fill="#5E9E5A" points="318.141,317.64 279.492,259.662 301.662,323.693 	"/>
	<path clip-path="url(#SVGID_4_)" fill="#5E9E5A" d="M345.82,365.688l-10.127-7.596c0,0-17.951,0-21.404,3.223
		c-3.451,3.222-3.84,15.588-3.84,15.588s-2.328,0.959-3.766,2.055c-1.438,1.095-0.479,6.163-0.479,6.163l11.076-4.934l-2.07-10.126
		l4.832,0.689c0,0,0.23-8.055,4.373-8.285c4.143-0.229,8.197,3.552,8.197,3.552l-3.813,3.353
		C332.252,369.141,345.82,365.688,345.82,365.688"/>
	<path clip-path="url(#SVGID_4_)" fill="#A1CF9F" d="M284.074,371.441c0,0-13.349-27.617,10.586-46.488
		c23.936-18.872,62.969-11.945,76.778,9.228c13.808,21.174,20.207,31.76,20.207,31.76l-18.276,8.264l-2.761,10.587L312.151,336
		L284.074,371.441z"/>
	<path clip-path="url(#SVGID_4_)" fill="#FFFFFF" d="M325.729,320.009c17.125,0,34.373,8.11,41.947,19.723
		c7.877,12.08,13.36,20.743,16.59,25.912l-12.346,3.622l-2.795,0.819l-0.734,2.819l-0.846,3.237l-52.341-38.567l-3.667-2.701
		l-3.127,3.311l-22.115,23.412c-1.744-8.392-1.816-22.062,11.553-32.603C305.303,323.116,314.943,320.009,325.729,320.009
		 M325.729,314.862c-11.1,0-22.168,3.072-31.068,10.09c-23.936,18.872-10.587,46.489-10.587,46.489l28.078-29.724l58.457,43.072
		l2.762-10.587l18.823-5.522c0,0-6.398-10.587-20.208-31.761C363.313,323.62,344.475,314.862,325.729,314.862"/>
	<path clip-path="url(#SVGID_4_)" fill="#1A1918" d="M371.68,387.974l-59.283-46.579l-28.76,33.374l-1.22-2.524
		c-0.142-0.29-13.706-29.178,11.103-48.737c8.701-6.86,19.188-10.485,30.328-10.485c17.449,0,34.584,8.986,43.654,22.893
		c13.9,21.315,14.982,32.154,15.021,32.606l0.088,1.016l-7.621,5.752L371.68,387.974z M311.905,336.324l57.632,45.282l2.212-8.487
		l6.944-5.24c-0.596-3.011-3.264-13.068-14.275-29.953c-8.409-12.892-24.333-21.222-40.57-21.222
		c-10.305,0-20.004,3.352-28.048,9.694c-18.251,14.391-13.61,34.352-11.133,41.534L311.905,336.324z"/>
	<path clip-path="url(#SVGID_4_)" fill="#5E9E5A" d="M303.473,377.579c2.328-3.352,2.912-5.394,2.649-6.845
		c0.007-0.002,0.014-0.007,0.021-0.01c-0.134-3.839-2.977-5.42-2.977-5.42s-1.227-0.307-6.443,5.216
		c-3.517,3.725-0.621,7.862,1.643,10.166c0.037-2.324,0.332-4.894,1.349-6.022c0.894-0.992,2.599-2.027,4.249-2.883
		C305.003,373.756,303.473,377.579,303.473,377.579"/>
	<path clip-path="url(#SVGID_4_)" fill="#A1CF9F" d="M300.174,405.963c0,0-8.055,3.223-10.586-1.61s1.61-16.57,1.61-16.57
		s-18.632-19.563,3.913-40.966c13.473-12.791,34.521-11.738,42.807-6.674c8.285,5.063,25.086,20.713,30.148,31.068
		c5.063,10.357,7.596,28.998,7.596,28.998l6.674,6.444l-2.07,7.365l8.744,8.285l-5.522,5.983l7.364,15.42l-21.403,9.437
		l-11.507-55.925c0,0,14.039-5.064,10.355-14.039c-3.682-8.977-9.896-5.294-9.896-5.294l-5.293,5.523l-9.993-17.321l-13.472-9.989
		l-21.183-7.901l-16.341,19.792c0,0-4.363,12.813,4.143,17.722c1.313,0.921,0.461,5.523,0.461,5.523L300.174,405.963z"/>
	<path clip-path="url(#SVGID_4_)" fill="#1A1918" d="M309.668,348.667c-2.485,2.846-4.95,5.729-7.377,8.629
		c-1.206,1.454-2.414,2.909-3.592,4.38c-1.18,1.468-2.345,2.949-3.432,4.443c-0.271,0.373-0.549,0.748-0.789,1.118
		c-0.254,0.373-0.511,0.748-0.695,1.089l-0.154,0.261l-0.039,0.065c0.003-0.01-0.034,0.066,0.002-0.013l-0.018,0.04l-0.074,0.162
		c-0.115,0.237-0.17,0.396-0.231,0.552c-0.128,0.349-0.248,0.752-0.332,1.152c-0.356,1.617-0.358,3.401-0.141,5.155
		c0.22,1.758,0.663,3.51,1.319,5.157c0.655,1.643,1.531,3.21,2.672,4.412l0.322,0.339l0.043,0.408
		c0.248,2.425,0.584,4.887,0.969,7.319c0.385,2.438,0.834,4.864,1.361,7.271c0.531,2.406,1.143,4.794,1.897,7.129
		c0.771,2.323,1.655,4.628,2.927,6.679l-0.881,0.587c-1.46-2.115-2.482-4.444-3.395-6.789c-0.893-2.354-1.636-4.755-2.299-7.173
		c-0.656-2.42-1.236-4.858-1.75-7.31c-0.514-2.456-0.974-4.901-1.357-7.407l0.363,0.746c-1.531-1.514-2.58-3.304-3.397-5.152
		c-0.813-1.856-1.375-3.799-1.696-5.803c-0.311-2-0.404-4.069-0.02-6.186c0.191-1.055,0.531-2.153,1.064-3.121
		c0.252-0.505,0.514-0.924,0.776-1.349c0.259-0.438,0.53-0.838,0.801-1.245c1.08-1.627,2.199-3.184,3.335-4.727
		c1.131-1.547,2.286-3.067,3.442-4.588c2.321-3.031,4.669-6.029,7.056-9.014L309.668,348.667z"/>
	<path clip-path="url(#SVGID_4_)" fill="#5E9E5A" d="M308.191,394.648c0,0-0.115-6.177,0.92-7.211
		c1.035-1.036,3.223-0.768,3.223-0.768s1.572-2.302,3.835-2.302s7.212,4.143,7.212,4.143s-8.593,0.537-10.74,1.841
		C310.492,391.656,308.191,394.648,308.191,394.648"/>
	<path clip-path="url(#SVGID_4_)" fill="#5E9E5A" d="M310.953,397.755c0,0,0.574-2.301,4.488-4.027
		c3.912-1.727,7.248-1.727,8.17-0.921C324.531,393.612,312.334,399.366,310.953,397.755"/>
	<path clip-path="url(#SVGID_4_)" fill="#1A1918" d="M350.574,379.903c0,0,0.145-0.104,0.417-0.301
		c0.262-0.182,0.64-0.436,1.132-0.735c0.986-0.593,2.416-1.4,4.331-2.059c0.958-0.324,2.041-0.613,3.262-0.718
		c1.21-0.111,2.583-0.023,3.914,0.483c1.335,0.49,2.515,1.439,3.36,2.535c0.199,0.293,0.39,0.54,0.593,0.874
		c0.151,0.275,0.291,0.482,0.452,0.82c0.328,0.632,0.568,1.235,0.77,1.887c0.397,1.287,0.523,2.67,0.357,3.975
		c-0.161,1.31-0.605,2.528-1.202,3.579c-0.588,1.059-1.334,1.948-2.097,2.705c-0.77,0.756-1.572,1.372-2.348,1.876
		c-1.555,1.006-2.978,1.579-3.979,1.924c-1.007,0.337-1.595,0.469-1.595,0.469s0.572-0.198,1.523-0.646
		c0.945-0.452,2.271-1.176,3.641-2.307c1.356-1.123,2.771-2.691,3.596-4.644c0.41-0.971,0.654-2.027,0.66-3.088
		c0.009-1.06-0.215-2.118-0.646-3.092c-0.21-0.482-0.481-0.976-0.757-1.381c-0.113-0.196-0.337-0.471-0.5-0.702l-0.477-0.555
		c-0.694-0.702-1.474-1.178-2.297-1.378c-1.648-0.423-3.451,0.132-4.883,0.8c-1.447,0.682-2.589,1.491-3.348,2.072
		c-0.38,0.293-0.667,0.534-0.854,0.697c-0.17,0.154-0.262,0.237-0.262,0.237L350.574,379.903z"/>
	<polygon clip-path="url(#SVGID_4_)" fill="#5E9E5A" points="345.59,436.727 321.041,421.383 308.152,420.77 306.619,417.087 
		310.607,411.257 326.718,405.58 358.785,416.32 	"/>
	<path clip-path="url(#SVGID_4_)" fill="#A1CF9F" d="M326.258,404.966l7.671-28.385c0,0,11.047-5.83,11.968-6.444
		c0.921-0.612,6.443,10.435,6.443,10.435s8.593-8.592,12.582-2.762c3.988,5.83,8.285,17.491-2.148,18.411l-5.086,2.893l8.922,48.353
		l-8.746-1.533l-26.631,0.427l9.71-35.793L326.258,404.966z"/>
	<path clip-path="url(#SVGID_4_)" fill="#F1F7EA" d="M288.207,383.332c0,0-3.375-8.592-1.534-14.729s15.956-23.015,15.956-23.015
		s24.855,0.614,34.063,4.909c9.205,4.297,21.172,25.47,21.172,25.47l12.275-3.989c0,0-10.74-16.57-15.65-19.946
		c-4.91-3.375-15.649-16.569-22.707-16.263c-7.059,0.307-18.412-2.762-30.072,4.296c-11.661,7.058-16.264,15.956-18.412,25.162
		S282.376,379.957,288.207,383.332"/>
	<path clip-path="url(#SVGID_4_)" fill="#1A1918" d="M322.018,336.527c6.563,0,12.397,1.475,15.9,3.615
		c8.285,5.063,25.086,20.713,30.148,31.069c5.063,10.356,7.596,28.997,7.596,28.997l6.674,6.444l-2.071,7.365l5.063,7.825
		l-3.223,8.285l8.746,13.578l-21.404,9.437l-1.557-7.566l-39.408,0.892l-21.174-3.223l1.842-23.014c0,0-3.529-4.603-6.444-9.206
		c-1.394-2.199-2.532-5.063-2.532-5.063s-0.814,0.12-1.993,0.12c-3.067,0-8.593-0.816-8.593-6.693
		c0-5.456,1.611-11.608,1.611-11.608s-17.713-19.563,3.912-40.966C302.732,339.272,313.056,336.527,322.018,336.527
		 M322.018,331.925c-6.875,0-19.93,1.51-30.145,11.62c-12.674,12.544-13.148,24.763-11.314,32.804
		c1.305,5.726,3.961,10.136,5.666,12.528c-0.521,2.478-1.24,6.61-1.24,10.514c0,6.592,4.78,10.943,12.264,11.275
		c0.449,0.903,0.984,1.898,1.57,2.823c2.023,3.196,4.299,6.349,5.604,8.112l-1.702,21.278l-0.342,4.272l4.238,0.646l21.173,3.222
		l0.396,0.06l0.4-0.009l35.57-0.805l0.783,3.805l1.149,5.584l5.216-2.3l21.403-9.435l4.932-2.175l-2.918-4.53l-7.476-11.605
		l2.371-6.098l0.854-2.193l-1.279-1.975l-3.933-6.08l1.509-5.363l0.744-2.648l-1.979-1.909l-5.545-5.355
		c-0.754-4.879-3.295-19.612-7.787-28.798c-5.455-11.16-22.832-27.443-31.883-32.975
		C335.857,333.487,329.186,331.925,322.018,331.925"/>
	<path clip-path="url(#SVGID_4_)" fill="#1A1918" d="M358.98,400.552c0,0-0.152-0.032-0.42-0.087
		c-0.139-0.03-0.307-0.066-0.499-0.108c-0.233-0.065-0.499-0.14-0.788-0.222c-0.294-0.078-0.533-0.209-0.822-0.324
		c-0.285-0.109-0.557-0.276-0.844-0.427c-0.568-0.314-1.119-0.707-1.639-1.115c-1.03-0.835-1.887-1.792-2.475-2.536
		c-0.588-0.747-0.908-1.283-0.908-1.283s0.478,0.406,1.25,0.913c0.771,0.505,1.842,1.105,2.943,1.515
		c0.555,0.194,1.105,0.36,1.621,0.451c0.258,0.039,0.5,0.1,0.733,0.104c0.226,0.008,0.46,0.051,0.626,0.029
		c0.168-0.01,0.32-0.018,0.457-0.024c0.182-0.021,0.342-0.038,0.472-0.053c0.271-0.033,0.427-0.052,0.427-0.052L358.98,400.552z"/>
	<path clip-path="url(#SVGID_4_)" fill="#1A1918" d="M304.391,420.191c0.363-1.167,0.751-2.255,1.187-3.363
		c0.437-1.103,0.911-2.196,1.468-3.285c0.28-0.545,0.586-1.088,0.92-1.631c0.354-0.543,0.723-1.084,1.213-1.625l0.383-0.402
		l0.049-0.05l0.092-0.089l0.021-0.017l0.082-0.065l0.166-0.136c0.175-0.131,0.369-0.271,0.539-0.382l0.447-0.265
		c0.588-0.323,1.15-0.569,1.713-0.804c2.238-0.897,4.439-1.514,6.658-2.104c2.221-0.58,4.432-1.092,6.678-1.556l0.365-0.076
		l0.266,0.116l14.048,6.165l-0.526,0.186l6.352-10.292l-5.61,10.715l-0.163,0.312l-0.363-0.125l-14.496-5.023l0.633,0.041
		c-2.133,0.656-4.272,1.371-6.368,2.137c-2.087,0.771-4.183,1.59-6.06,2.563c-0.461,0.245-0.912,0.5-1.293,0.761l-0.264,0.194
		c-0.063,0.053-0.092,0.085-0.143,0.121l-0.15,0.147l-0.076,0.074l-0.02,0.019l-0.004,0.004c0.137-0.129,0.037-0.033,0.066-0.061
		l-0.006,0.007l-0.021,0.03l-0.178,0.232c-0.24,0.32-0.478,0.737-0.703,1.164c-0.22,0.443-0.428,0.906-0.623,1.388
		c-0.387,0.964-0.725,1.981-1.027,3.014c-0.303,1.027-0.577,2.101-0.795,3.118L304.391,420.191z"/>
	<path clip-path="url(#SVGID_4_)" fill="#1A1918" d="M306.006,447.62c-7.728,0-13.346-1.907-16.699-5.668
		c-3.592-4.031-3.102-8.67-3.08-8.865l0.039-0.335l9.799-22.861l4.231,1.812l-9.507,22.18c-0.005,0.768,0.154,3.03,2.014,5.072
		c2.422,2.658,6.986,4.063,13.203,4.063V447.62z"/>
	<path clip-path="url(#SVGID_4_)" fill="#A1CF9F" d="M443.172,483.676c0,0-13.503-20.561-20.867-25.162
		c-7.365-4.603-40.199-12.889-40.199-12.889l-8.285,1.535l-9.819-3.989l-13.757,3.858l-10.191,2.132l-19.062-7.244l-13.151,1.716
		l-2.859-10.674l-7.568-2.983l-22.094-14.729l0.308-8.593l-15.344-25.775l-6.751-1.841c0,0-24.855,20.253-35.902,55.541
		c-11.047,35.289-12.582,39.585-12.582,39.585l13.502,3.376l0.922,4.296l19.024,6.443l197.925,11.968L443.172,483.676z"/>
	<path clip-path="url(#SVGID_4_)" fill="#FFFFFF" d="M254.867,384.735l2.057,0.562l13.504,22.688l-0.252,7.078l-0.102,2.872
		l2.389,1.594l22.095,14.729l0.457,0.305l0.511,0.201l5.154,2.031l2.188,8.17l1.166,4.354l4.471-0.582l11.869-1.548l17.852,6.783
		l1.406,0.535l1.475-0.309l10.191-2.131l0.17-0.035l0.168-0.047l12.061-3.384l8.188,3.326l1.396,0.565l1.479-0.273l7.176-1.328
		c12.521,3.198,32.919,9.033,37.643,11.985c4.231,2.645,12.566,13.695,17.797,21.389l-4.326,10.621l-193.553-11.703l-15.604-5.285
		l-0.308-1.438l-0.672-3.138l-3.113-0.778l-8.131-2.032c1.681-5.206,4.883-15.256,10.875-34.397
		C231.209,408.422,249,390.189,254.867,384.735 M253.531,379.036c0,0-24.855,20.253-35.902,55.542s-12.582,39.585-12.582,39.585
		l13.502,3.375l0.921,4.296l19.026,6.444l197.924,11.968l6.752-16.57c0,0-13.502-20.56-20.867-25.162
		c-7.365-4.604-40.199-12.889-40.199-12.889l-8.285,1.534l-9.818-3.989l-13.758,3.86l-10.191,2.13l-19.063-7.242l-13.15,1.715
		l-2.86-10.674l-7.567-2.983l-22.094-14.73l0.307-8.592l-15.342-25.776L253.531,379.036z"/>
	<path clip-path="url(#SVGID_4_)" fill="#5E9E5A" d="M351.808,452.242l-30.816-10.325c0,0-14.823-0.105-33.122,12.475
		c-18.299,12.581,17.727,26.877,17.727,26.877l46.318-0.572L351.808,452.242z"/>
	<polygon clip-path="url(#SVGID_4_)" fill="#1A1918" points="326.695,494.514 323.978,492.785 343.555,462.02 379.865,444.33 
		381.277,447.227 345.783,464.519 	"/>
	<path clip-path="url(#SVGID_4_)" fill="#5E9E5A" d="M260.571,382.261c0,0-25.832,16.102-38.126,60.133
		c-11.961,42.832-12.051,18.349-12.051,18.349l12.008-36.883l12.009-24.444l19.12-20.378L260.571,382.261z"/>
	<path clip-path="url(#SVGID_4_)" fill="#1A1918" d="M433.756,501.689L433.756,501.689c-0.096,0-0.192-0.002-0.287-0.008
		L241.254,490.06c-1.725-0.104-4.353-0.62-5.983-1.173l-13.608-4.609c-2.039-0.69-3.855-2.52-4.228-4.254
		c-0.101-0.47-1.006-1.354-2.049-1.615l-7.955-1.988c-1.175-0.294-2.136-1.026-2.708-2.06c-0.574-1.04-0.682-2.251-0.303-3.411
		c1.201-3.68,4.318-13.361,11.673-36.853c9.04-28.883,26.931-47.63,34.204-54.35c1.145-1.059,2.984-1.718,4.796-1.718
		c0.577,0,1.122,0.069,1.622,0.205l1.232,0.336c1.932,0.527,4.159,2.223,5.182,3.94l12.418,20.863
		c0.973,1.633,1.654,4.296,1.586,6.194l-0.104,2.877c-0.035,1.025,0.708,2.478,1.563,3.047l17.335,11.557
		c1.184,0.789,3.331,1.809,4.692,2.227l2.514,0.774c2.037,0.627,4.004,2.649,4.574,4.704l1.686,6.077
		c0.189,0.688,0.982,1.178,1.684,1.028l6.836-1.414c1.812-0.375,4.657-0.152,6.369,0.48l20.484,7.585l7.492,2.185
		c0.193,0.057,0.427,0.086,0.675,0.086c0.899,0,1.924-0.386,2.433-0.918l5.495-5.74c1.05-1.097,2.673-1.751,4.345-1.751
		c0.736,0,1.426,0.128,2.051,0.382l4.521,1.837c0.821,0.332,2.174,0.556,3.369,0.556c0.452,0,0.864-0.031,1.191-0.092l2.664-0.493
		c1.746-0.321,4.588-0.223,6.279,0.22c9.344,2.438,31.736,8.527,37.877,12.365c5.846,3.654,14.881,16.135,19.745,23.248
		c1.195,1.747,1.488,4.558,0.681,6.536l-4.594,11.275C438.183,500.191,435.932,501.689,433.756,501.689 M255.093,381.252
		c-0.972,0-2.07,0.361-2.61,0.861c-5.525,5.105-24.259,24.014-33.316,52.946c-7.358,23.508-10.479,33.203-11.685,36.89
		c-0.097,0.303-0.075,0.604,0.06,0.853c0.096,0.171,0.289,0.396,0.67,0.491l7.955,1.988c2.138,0.534,4.037,2.282,4.418,4.068
		c0.108,0.499,1.004,1.501,2.111,1.877l13.608,4.609c1.356,0.459,3.712,0.921,5.144,1.008l192.309,11.625
		c0.879,0,1.931-0.691,2.25-1.479l4.595-11.274c0.399-0.978,0.228-2.647-0.356-3.502c-2.967-4.339-13.09-18.769-18.793-22.334
		c-5.926-3.704-29.806-10.108-36.983-11.982c-0.748-0.194-1.859-0.312-2.974-0.312c-0.727,0-1.404,0.051-1.906,0.144l-2.664,0.493
		c-1.818,0.337-4.664,0.041-6.357-0.646l-4.523-1.838c-0.813-0.329-2.246-0.024-2.855,0.612l-5.495,5.74
		c-1.128,1.18-2.952,1.912-4.76,1.912c-0.558,0-1.088-0.071-1.576-0.214l-7.657-2.237l-20.537-7.604
		c-1.147-0.426-3.406-0.595-4.596-0.348l-6.837,1.415c-0.302,0.063-0.612,0.094-0.922,0.094c-2.104,0-3.964-1.404-4.521-3.418
		l-1.685-6.075c-0.276-0.996-1.429-2.182-2.418-2.485l-2.513-0.774c-1.658-0.51-4.09-1.664-5.532-2.626l-17.335-11.557
		c-1.783-1.188-3.07-3.7-2.994-5.841l0.104-2.878c0.043-1.27-0.485-3.341-1.136-4.434l-12.418-20.862
		c-0.591-0.992-2.144-2.174-3.261-2.479l-1.232-0.336C255.647,381.284,255.381,381.252,255.093,381.252"/>
	<polygon clip-path="url(#SVGID_4_)" fill="#5E9E5A" points="371.5,389.092 365.496,396.383 357.941,398.057 369.447,453.143 
		398.518,447.416 	"/>
	<path clip-path="url(#SVGID_4_)" fill="#1A1918" d="M369.295,456.135c-0.804-2.306-1.563-4.621-2.309-6.938
		c-0.76-2.315-1.456-4.645-2.186-6.964c-0.177-0.582-0.381-1.158-0.506-1.75c-0.13-0.592-0.216-1.192-0.337-1.785l-0.748-3.556
		l-1.503-7.108l-6.012-28.434l-0.329-1.559l1.578-0.353c0.763-0.171,1.628-0.419,2.427-0.688c0.811-0.272,1.605-0.58,2.375-0.927
		c1.531-0.693,2.979-1.55,4.076-2.614c1.102-1.067,1.738-2.31,1.723-3.635c0.01-0.348-0.041-0.639-0.105-1.054
		c-0.082-0.457-0.168-0.864-0.258-1.28c-0.185-0.845-0.403-1.679-0.653-2.496c-0.499-1.632-1.146-3.211-2.003-4.547
		c-0.852-1.338-1.952-2.372-3.154-2.667c-0.602-0.157-1.249-0.152-1.931-0.001c-0.679,0.143-1.384,0.441-2.067,0.838
		c-0.689,0.372-1.354,0.873-2.009,1.381l-0.958,0.825l-0.926,0.885l-1.447,1.381l-1.051-1.654c-0.385-0.604-0.766-1.209-1.182-1.793
		c-0.416-0.583-0.705-1.248-1.031-1.889l-1.924-3.863l-1.89-3.888c-0.628-1.297-1.228-2.611-1.842-3.917
		c0.923,1.109,1.86,2.208,2.771,3.325l2.725,3.355l2.688,3.378c0.443,0.565,0.924,1.108,1.277,1.731
		c0.352,0.624,0.74,1.226,1.125,1.828l-2.498-0.273l1.036-0.989l1.099-0.945c0.771-0.601,1.559-1.194,2.459-1.687
		c0.881-0.506,1.857-0.938,2.948-1.174c1.08-0.245,2.29-0.276,3.44,0.027c1.151,0.296,2.186,0.904,3.011,1.627
		c0.832,0.727,1.487,1.557,2.038,2.41c1.096,1.715,1.814,3.527,2.375,5.348c0.279,0.912,0.52,1.83,0.722,2.752
		c0.101,0.47,0.199,0.947,0.276,1.381c0.08,0.477,0.177,1.084,0.162,1.642c0.007,1.143-0.269,2.311-0.767,3.326
		c-0.495,1.02-1.181,1.887-1.93,2.618c-1.513,1.458-3.245,2.443-4.999,3.244c-0.88,0.397-1.773,0.741-2.678,1.046
		c-0.918,0.305-1.793,0.562-2.795,0.786l1.248-1.91l6.012,28.434l1.503,7.109l0.755,3.554c0.129,0.591,0.293,1.175,0.413,1.769
		c0.126,0.593,0.173,1.201,0.247,1.805c0.271,2.418,0.576,4.829,0.82,7.253C368.854,451.277,369.096,453.702,369.295,456.135"/>
	<path clip-path="url(#SVGID_4_)" fill="#1A1918" d="M305.969,338.354c0,0-0.012,0.081-0.031,0.232
		c-0.014,0.178-0.031,0.457-0.017,0.829c0.013,0.369,0.048,0.831,0.152,1.351c0.089,0.526,0.266,1.101,0.493,1.723
		c0.263,0.605,0.58,1.259,1.033,1.887c0.23,0.311,0.455,0.645,0.752,0.936l0.424,0.466l0.486,0.431l0.502,0.437l0.562,0.393
		l0.573,0.398l0.625,0.345c0.793,0.486,1.806,0.885,2.752,1.344c1.916,0.888,3.83,1.775,5.625,2.607
		c1.798,0.824,3.467,1.626,4.912,2.257c2.898,1.267,4.83,2.11,4.83,2.11s-2.028-0.592-5.072-1.479
		c-1.525-0.443-3.276-1.023-5.166-1.611c-1.889-0.596-3.901-1.232-5.914-1.867c-1.002-0.338-2.006-0.58-3.063-1.037l-0.777-0.311
		l-0.746-0.383c-0.247-0.132-0.493-0.261-0.737-0.39c-0.233-0.153-0.464-0.305-0.692-0.456c-0.229-0.154-0.455-0.31-0.679-0.463
		c-0.211-0.175-0.419-0.349-0.625-0.521c-0.426-0.332-0.786-0.724-1.144-1.101c-0.713-0.759-1.271-1.587-1.739-2.382
		c-0.435-0.812-0.782-1.591-1.009-2.311c-0.242-0.717-0.383-1.365-0.475-1.909c-0.095-0.543-0.129-0.989-0.147-1.305
		c-0.005-0.343-0.007-0.524-0.007-0.524L305.969,338.354z"/>
	<path clip-path="url(#SVGID_4_)" fill="#5E9E5A" d="M256.104,392.564l-4.748,16.069l3.738,1.043v9.038l11.094,5.341
		c0,0,0.41,23.829,1.231,26.705s-33.688,11.914-33.688,11.914l-8.217-16.434c0,0-3.195-1.962,7.215-21.721
		C243.142,404.762,256.104,392.564,256.104,392.564"/>
	<polygon clip-path="url(#SVGID_4_)" fill="#5E9E5A" points="259.381,430.854 284.033,440.716 302.341,449.938 336.166,473.218 
		325.119,470.298 290.606,480.706 257.736,483.993 	"/>
</g>
<path fill="#1A1A19" d="M301.445,306.712l0.085,0.001c1.124,0.013,1.823,0.272,1.979,0.363l65.506,37.819
	c0.848,0.49,2.063,2.593,2.063,3.573v75.64c0,0.98-1.215,3.083-2.063,3.573l-65.506,37.82c-0.156,0.09-0.854,0.35-1.977,0.363
	h-0.088c-1.168,0-1.898-0.269-2.063-0.363l-65.506-37.82c-0.85-0.49-2.063-2.593-2.063-3.573v-75.64c0-0.98,1.213-3.083,2.063-3.573
	l65.506-37.819C299.547,306.981,300.277,306.712,301.445,306.712 M301.445,298.432c-2.248,0-4.496,0.489-6.202,1.473l-65.506,37.82
	c-3.412,1.97-6.203,6.805-6.203,10.744v75.64c0,3.939,2.791,8.774,6.203,10.744l65.506,37.82c1.706,0.985,3.954,1.473,6.202,1.473
	c0.061,0,0.121,0,0.184-0.001c2.188-0.025,4.36-0.514,6.02-1.472l65.507-37.82c3.411-1.97,6.202-6.805,6.202-10.744v-75.64
	c0-3.939-2.791-8.774-6.202-10.744l-65.507-37.82c-1.659-0.958-3.832-1.445-6.02-1.472
	C301.566,298.432,301.506,298.432,301.445,298.432"/>
<polygon fill="#1A1918" points="354.928,380.649 349.941,388.103 351.946,379.362 "/>
<path fill="#5E9E5A" d="M359.855,386.432c0.563-0.652,1.268-0.947,2.275-0.355c2.227,1.309,2.652,1.534,2.652,1.534
	s0.061-2.239-3.461-4.308c-3.367-1.978-5.486,2.699-6.399,4.253c-1.368,2.33,1.808,4.335,3.237,1.901
	c0.054-0.092,0.106-0.188,0.158-0.286c0.674,0.923,1.145,1.87,0.02,2.604c-1.657,1.083-1.958,1.298-1.958,1.298
	s1.517,0.807,4.139-0.906C362.953,390.575,360.681,387.658,359.855,386.432"/>
</svg>
