<?xml version="1.0" encoding="utf-8"?>
<!-- Generator: Adobe Illustrator 16.0.0, SVG Export Plug-In . SVG Version: 6.00 Build 0)  -->
<!DOCTYPE svg PUBLIC "-//W3C//DTD SVG 1.1//EN" "http://www.w3.org/Graphics/SVG/1.1/DTD/svg11.dtd">
<svg version="1.1" id="Layer_1" xmlns="http://www.w3.org/2000/svg" xmlns:xlink="http://www.w3.org/1999/xlink" x="0px" y="0px"
	 width="215px" height="195px" viewBox="0 0 215 195" enable-background="new 0 0 215 195" xml:space="preserve">
<path fill="#1A1A19" d="M128.57,162.185c-10.387,6.446-19.063,10.538-20.966,11.416c-1.905-0.878-10.58-4.97-20.967-11.416v0.492
	c-0.003-0.002,0.004-0.005,0-0.007v15.051c11.415,7.015,20.568,11.112,20.568,11.112l0.399-0.001l0.399,0.001
	c0,0,9.151-4.099,20.565-11.112V162.67c-0.004,0.002,0.004,0.005,0,0.007v-0.492H128.57z"/>
<path fill="#1A1A19" d="M83.322,161.048c-9.748-6.171-20.759-14.313-29.014-23.745v15.051c8.118,9.569,19.145,17.858,29.014,24.171
	v-15.052c-0.004-0.002,0.003-0.005,0-0.007V161.048z"/>
<path fill="#1A1A19" d="M131.887,161.048v0.418c-0.004,0.002,0.004,0.005,0,0.007v15.052c9.869-6.313,20.896-14.602,29.016-24.171
	v-15.051C152.645,146.734,141.635,154.877,131.887,161.048"/>
<path fill="#020202" d="M31.83,138.794c0.916-0.019,1.783-0.027,2.638,0.014c-3.211-4.57-2.291-10.164-4.059-15.118l0.018-0.22
	c5.329,2.009,8.124,6.701,10.73,11.657c1.861,3.592,3.684,7.273,6.339,9.994c-1.109,0.079-2.153,0.229-3.234,0.388
	c-1.122,0.163-2.276,0.386-3.436,0.691c-2.306,0.136-4.581,0.238-6.732,0.167c-4.034-0.171-7.794-0.854-11.036-2.606
	c-1.502-0.797-2.902-1.849-4.131-3.16c0.949-0.153,1.992-0.342,3.028-0.523C25.22,139.521,28.653,138.951,31.83,138.794"/>
<path fill="#020202" d="M21.774,121.247c1.062,1.399,2.535,2.593,3.517,4.192c0.274,0.794,0.6,1.55,0.922,2.328
	c0.784,2.1,1.378,4.127,0.792,5.831c-2.665-1.042-5.366-2.282-7.721-4.482c-1.341-1.616-2.338-3.36-3.035-5.244
	c-1.109-2.954-1.454-6.194-1.076-9.59c0.008-0.113,0.033-0.179,0.025-0.252l0.3-0.285c0.113,0.265,0.263,0.539,0.409,0.824
	C17.333,117.168,19.419,119.047,21.774,121.247"/>
<path fill="#020202" d="M181.954,138.794c-0.916-0.019-1.783-0.027-2.64,0.014c3.213-4.57,2.291-10.164,4.06-15.118l-0.019-0.22
	c-5.328,2.009-8.123,6.701-10.729,11.657c-1.86,3.592-3.685,7.273-6.339,9.994c1.107,0.079,2.152,0.229,3.232,0.388
	c1.123,0.163,2.275,0.386,3.437,0.691c2.306,0.136,4.581,0.238,6.731,0.167c4.035-0.171,7.795-0.854,11.037-2.606
	c1.502-0.797,2.901-1.849,4.131-3.16c-0.949-0.153-1.992-0.342-3.027-0.523C188.563,139.521,185.13,138.951,181.954,138.794"/>
<path fill="#020202" d="M193.436,121.247c-1.063,1.399-2.535,2.593-3.518,4.192c-0.273,0.794-0.6,1.55-0.922,2.328
	c-0.784,2.1-1.379,4.127-0.791,5.831c2.664-1.042,5.363-2.282,7.72-4.482c1.341-1.616,2.339-3.36,3.035-5.244
	c1.11-2.954,1.454-6.194,1.075-9.59c-0.008-0.113-0.032-0.179-0.023-0.252l-0.301-0.285c-0.113,0.265-0.264,0.539-0.408,0.824
	C197.876,117.168,195.79,119.047,193.436,121.247"/>
<path fill="#96D5CF" d="M44.92,37.644v19.698l0.008,48.298c0,34.615,62.677,62.678,62.677,62.678s62.677-28.063,62.677-62.678
	l0.008-48.298V37.644H44.92z"/>
<g opacity="0.5">
	<g>
		<g>
			<defs>
				<rect id="SVGID_1_" x="108.2" y="36.922" width="60.021" height="127.574"/>
			</defs>
			<clipPath id="SVGID_2_">
				<use xlink:href="#SVGID_1_"  overflow="visible"/>
			</clipPath>
			<path clip-path="url(#SVGID_2_)" fill="#189995" d="M108.324,164.496c5.59-2.753,17.619-9.048,29.467-17.652
				c9.189-6.674,16.455-13.391,21.589-19.966c5.866-7.514,8.841-14.723,8.841-21.427V58.226V36.921h-60.025v127.511
				C108.236,164.453,108.283,164.476,108.324,164.496"/>
		</g>
	</g>
</g>
<g opacity="0.4">
	<g>
		<g>
			<defs>
				<rect id="SVGID_3_" x="43" y="33.13" width="129.21" height="137.192"/>
			</defs>
			<clipPath id="SVGID_4_">
				<use xlink:href="#SVGID_3_"  overflow="visible"/>
			</clipPath>
			<path clip-path="url(#SVGID_4_)" fill="#FFFFFF" d="M158.416,46.927v9.011l-0.008,49.784c0,18.215-31.2,39.307-50.76,49.273
				c-5.696-2.924-14.985-8.062-24.254-14.771C66.245,127.811,56.8,115.557,56.8,105.718l-0.008-49.776v-9.016L158.416,46.927
				 M172.213,33.13H42.995v22.813l0.009,49.779c0,35.678,64.601,64.602,64.601,64.602s64.601-28.924,64.601-64.602l0.008-49.779
				L172.213,33.13L172.213,33.13z"/>
		</g>
	</g>
</g>
<path fill="#1A1A19" d="M172.213,20.777c0-3.458-2.803-6.263-6.261-6.263h-18.839L108.049,3.562L70.288,14.515H49.257
	c-3.458,0-6.261,2.805-6.261,6.263V33.13v22.812l0.008,49.78c0,35.679,64.601,64.602,64.601,64.602s64.6-28.923,64.6-64.602
	l0.008-49.78v-6.282V20.777z M164.688,55.939l-0.008,49.781c0,8.39-5.031,22.043-28.996,39.445
	c-11.291,8.199-22.754,14.197-28.082,16.82c-5.288-2.602-16.619-8.527-27.885-16.683C55.593,127.842,50.53,114.14,50.53,105.719
	l-0.009-49.779v-6.282h114.167V55.939z"/>
<path fill="#FFFFFF" d="M83.544,38.271l2.438-2.591c1.054,1.386,2.469,2.168,4.185,2.168c1.927,0,3.041-1.475,3.041-3.161
	c0-1.985-1.054-3.159-2.86-3.159c-1.354,0-2.379,0.479-3.312,1.654l-2.92-0.782V20.99h12.042v3.552H88.15v5.148
	c0.783-0.965,2.138-1.655,3.673-1.655c3.041,0,5.479,2.378,5.479,6.533c0,4.031-2.739,6.861-7.014,6.861
	C87.187,41.431,85.049,40.288,83.544,38.271"/>
<path fill="#FFFFFF" d="M99.226,31.045c0-5.179,2.138-10.354,7.105-10.354c4.998,0,7.104,5.177,7.104,10.354
	c0,5.147-2.076,10.387-7.104,10.387C101.364,41.432,99.226,36.192,99.226,31.045 M109.342,31.045c0-3.884-0.662-6.772-3.011-6.772
	c-2.318,0-2.98,2.89-2.98,6.772c0,3.854,0.662,6.805,2.98,6.805C108.68,37.85,109.342,34.899,109.342,31.045"/>
<path fill="#FFFFFF" d="M115.391,31.045c0-5.179,2.139-10.354,7.104-10.354c4.998,0,7.104,5.177,7.104,10.354
	c0,5.147-2.076,10.387-7.104,10.387C117.527,41.432,115.391,36.192,115.391,31.045 M125.506,31.045c0-3.884-0.662-6.772-3.011-6.772
	c-2.317,0-2.979,2.89-2.979,6.772c0,3.854,0.662,6.805,2.979,6.805C124.844,37.85,125.506,34.899,125.506,31.045"/>
<path fill="#191818" d="M118.275,88.004c3.985,3.987,2.437,12-3.463,17.897c-5.896,5.897-13.911,7.446-17.896,3.461
	c-3.986-3.986-2.438-12,3.461-17.897C106.275,85.566,114.288,84.017,118.275,88.004"/>
<path fill="#FFFFFF" d="M136.6,70.08c-19.58-19.579-36.785,1.978-38.763,3.955C94.277,77.595,85.971,85.9,85.971,85.9l-0.791-3.955
	l-7.119,1.187v24.522h0.193h24.33l1.582-6.724l-4.352-1.187l13.646-13.646c0,0,3.36-2.57,8.306,2.373l13.807,0.434l0.636,0.021
	v15.821C154.141,86.813,137.189,70.544,136.6,70.08"/>
<path fill="#FFFFFF" d="M136.6,70.08c-19.58-19.579-36.785,1.978-38.763,3.955C94.277,77.595,85.971,85.9,85.971,85.9l-0.791-3.955
	l-7.119,1.187v24.522h0.193c8.183-8.184,26.646-26.646,28.946-28.945c7.713-7.713,16.81-9.295,24.522,1.384
	c2.185,3.025,3.33,6.041,3.851,8.813l0.636,0.021v15.821C154.141,86.813,137.189,70.544,136.6,70.08"/>
<path fill="#96D5CF" d="M107.2,78.709c-2.3,2.3-20.763,20.763-28.946,28.946h24.329l1.582-6.726l-4.35-1.186l13.645-13.646
	c0,0,3.362-2.57,8.306,2.373l13.808,0.435c-0.521-2.771-1.665-5.787-3.851-8.813C124.01,69.414,114.913,70.996,107.2,78.709"/>
<path fill="#191818" d="M133.971,110.146V91.092l-13.16-0.411l-0.625-0.627c-1.562-1.562-3.062-2.387-4.34-2.387
	c-0.494,0-0.836,0.128-0.992,0.203l-10.729,10.729l2.716,0.74l-2.484,10.552H75.824V81.235l11.126-1.854l0.396,1.98l8.91-8.909
	c0.108-0.107,0.269-0.286,0.479-0.517c7.436-8.13,15.115-12.253,22.826-12.253c6.508,0,12.772,2.966,18.621,8.813l-0.004,0.003
	c1.23,1.162,7.859,7.877,8.438,17.59c0.425,7.147-2.546,13.956-8.825,20.237L133.971,110.146z M80.298,105.417h20.513l0.682-2.896
	l-5.987-1.633l16.596-16.567c0.246-0.188,1.586-1.129,3.744-1.129c2.301,0,4.6,1.032,6.846,3.068l15.754,0.492V98.61
	c2.604-3.813,3.854-7.754,3.726-11.774c-0.282-8.754-6.94-14.981-7.007-15.042l-0.146-0.134c-4.979-4.979-10.179-7.502-15.457-7.502
	c-6.4,0-12.97,3.633-19.522,10.797c-0.27,0.296-0.478,0.521-0.617,0.661L84.599,90.438l-1.187-5.931l-3.113,0.52L80.298,105.417
	L80.298,105.417z"/>
<path fill="#FFFFFF" d="M77.806,126.363c19.579,19.579,36.784-1.979,38.762-3.955c3.56-3.561,11.865-11.866,11.865-11.866
	l0.791,3.955l7.119-1.187V88.788h-0.193c-8.183,8.184-26.646,26.646-28.945,28.946c-7.713,7.713-16.81,9.295-24.523-1.385
	c-2.185-3.024-3.329-6.041-3.849-8.813l-0.636-0.021v-15.82C60.264,109.632,77.215,125.899,77.806,126.363"/>
<path fill="#FFFFFF" d="M136.15,88.788h-24.33l-1.582,6.724l4.352,1.188l-13.646,13.645c0,0-3.362,2.571-8.306-2.373l-13.805-0.433
	l-0.636-0.02V91.698c-17.933,17.934-0.981,34.202-0.391,34.666c19.579,19.579,36.784-1.979,38.762-3.955
	c3.56-3.562,11.865-11.866,11.865-11.866l0.791,3.955l7.119-1.187V88.789L136.15,88.788L136.15,88.788z"/>
<path fill="#96D5CF" d="M107.204,117.734c2.3-2.301,20.763-20.764,28.946-28.946h-24.33l-1.581,6.725l4.35,1.187l-13.645,13.646
	c0,0-3.362,2.57-8.306-2.373l-13.806-0.434c0.521,2.771,1.665,5.787,3.849,8.813C90.395,127.029,99.491,125.447,107.204,117.734"/>
<path fill="#191818" d="M94.848,136.76h-0.003c-6.509-0.002-12.774-2.967-18.621-8.813l0.003-0.003
	c-1.232-1.163-7.859-7.878-8.438-17.59c-0.425-7.147,2.545-13.956,8.825-20.237l3.82-3.819v19.055l13.159,0.412l0.626,0.627
	c3.068,3.065,4.891,2.394,5.332,2.183l10.73-10.729l-2.716-0.74l2.483-10.552h28.533v28.654l-11.126,1.854l-0.396-1.979l-8.91,8.91
	c-0.108,0.109-0.271,0.287-0.481,0.52C110.232,132.638,102.556,136.76,94.848,136.76 M75.959,97.831
	c-2.605,3.813-3.855,7.754-3.725,11.774c0.283,8.754,6.94,14.983,7.007,15.041l0.146,0.135c4.978,4.979,10.178,7.502,15.457,7.503
	h0.002c6.4,0,12.967-3.632,19.519-10.796c0.271-0.297,0.48-0.521,0.619-0.662l14.822-14.822l1.187,5.931l3.112-0.52v-20.39h-20.515
	l-0.681,2.896l5.986,1.633l-16.595,16.566c-0.246,0.188-1.585,1.128-3.744,1.129c-2.3,0-4.599-1.031-6.845-3.068l-15.754-0.492
	L75.959,97.831L75.959,97.831z"/>
<polygon fill="#FFFFFF" points="78.55,28.538 71.092,27.406 67.771,20.309 64.451,27.406 56.992,28.538 62.382,34.072 
	61.034,41.867 67.771,38.186 74.508,41.867 73.161,34.072 "/>
<polygon fill="#FFFFFF" points="158.217,28.538 150.759,27.406 147.438,20.309 144.117,27.406 136.658,28.538 142.049,34.072 
	140.701,41.867 147.438,38.186 154.175,41.867 152.828,34.072 "/>
</svg>
