<?xml version="1.0" encoding="utf-8"?>
<!-- Generator: Adobe Illustrator 16.0.0, SVG Export Plug-In . SVG Version: 6.00 Build 0)  -->
<!DOCTYPE svg PUBLIC "-//W3C//DTD SVG 1.1//EN" "http://www.w3.org/Graphics/SVG/1.1/DTD/svg11.dtd">
<svg version="1.1" id="Layer_1" xmlns="http://www.w3.org/2000/svg" xmlns:xlink="http://www.w3.org/1999/xlink" x="0px" y="0px"
	 width="215px" height="195px" viewBox="0 0 215 195" enable-background="new 0 0 215 195" xml:space="preserve">
<path fill="#1A1A19" d="M107.099,188.833l0.399-0.001l0.399,0.001"/>
<path fill="#1A1A19" d="M107.533,189.833l0.399-0.001l0.399,0.001"/>
<path fill="#96D5CF" d="M43.897,50.938v19.91l0.008,48.821c0,34.989,63.355,63.354,63.355,63.354s63.355-28.365,63.355-63.354
	l0.008-48.821V50.938L43.897,50.938L43.897,50.938z"/>
<g opacity="0.5">
	<g>
		<g>
			<defs>
				<rect id="SVGID_1_" x="107.85" y="50.922" width="60.03" height="127.574"/>
			</defs>
			<clipPath id="SVGID_2_">
				<use xlink:href="#SVGID_1_"  overflow="visible"/>
			</clipPath>
			<path clip-path="url(#SVGID_2_)" fill="#189995" d="M107.979,178.496c5.589-2.753,17.619-9.048,29.468-17.652
				c9.189-6.674,16.453-13.391,21.588-19.966c5.865-7.514,8.841-14.723,8.841-21.427V72.226V50.921h-60.025v127.511
				C107.893,178.453,107.938,178.476,107.979,178.496"/>
		</g>
	</g>
</g>
<g opacity="0.4">
	<g>
		<g>
			<defs>
				<rect id="SVGID_3_" x="42.65" y="47.13" width="129.22" height="137.192"/>
			</defs>
			<clipPath id="SVGID_4_">
				<use xlink:href="#SVGID_3_"  overflow="visible"/>
			</clipPath>
			<path clip-path="url(#SVGID_4_)" fill="#FFFFFF" d="M158.07,60.927v9.011l-0.008,49.784c0,18.229-31.246,39.336-50.803,49.295
				c-19.566-9.964-50.805-31.067-50.805-49.298l-0.008-49.776v-9.016H158.07 M171.869,47.13H42.65v22.813l0.009,49.779
				c0,35.678,64.601,64.602,64.601,64.602s64.602-28.924,64.602-64.602l0.009-49.779L171.869,47.13L171.869,47.13z"/>
		</g>
	</g>
</g>
<path fill="#1A1A19" d="M171.869,34.777c0-3.458-2.805-6.263-6.262-6.263H146.77l-39.064-10.952L69.944,28.515H48.913
	c-3.458,0-6.261,2.805-6.261,6.263V47.13v22.812l0.008,49.78c0,35.679,64.601,64.602,64.601,64.602s64.601-28.923,64.601-64.602
	l0.008-49.78v-6.282h0.001L171.869,34.777L171.869,34.777z M164.344,69.939l-0.009,49.781c0,8.39-5.03,22.043-28.997,39.445
	c-11.291,8.199-22.754,14.197-28.081,16.82c-5.288-2.602-16.619-8.527-27.885-16.683c-24.124-17.462-29.187-31.164-29.187-39.585
	l-0.009-49.779v-6.282h114.168V69.939z"/>
<path fill="#FFFFFF" d="M91.281,52.27l2.438-2.589c1.054,1.386,2.469,2.168,4.185,2.168c1.927,0,3.041-1.475,3.041-3.161
	c0-1.985-1.054-3.16-2.86-3.16c-1.355,0-2.379,0.48-3.312,1.654l-2.92-0.781V34.99h12.042v3.551h-8.008v5.148
	c0.783-0.965,2.138-1.654,3.673-1.654c3.041,0,5.479,2.378,5.479,6.531c0,4.033-2.739,6.863-7.014,6.863
	C94.924,55.431,92.786,54.287,91.281,52.27"/>
<path fill="#FFFFFF" d="M106.964,45.044c0-5.178,2.138-10.354,7.104-10.354c4.998,0,7.104,5.178,7.104,10.354
	c0,5.148-2.077,10.388-7.104,10.388C109.102,55.432,106.964,50.192,106.964,45.044 M117.08,45.044c0-3.883-0.664-6.771-3.012-6.771
	c-2.318,0-2.979,2.89-2.979,6.771c0,3.854,0.662,6.806,2.979,6.806C116.416,51.85,117.08,48.898,117.08,45.044"/>
<path fill="#191818" d="M117.93,102.004c3.987,3.987,2.438,12-3.461,17.897c-5.896,5.897-13.911,7.446-17.897,3.461
	c-3.986-3.986-2.437-12,3.461-17.897C105.93,99.566,113.943,98.017,117.93,102.004"/>
<path fill="#FFFFFF" d="M136.254,84.08c-19.579-19.579-36.784,1.978-38.762,3.955C93.932,91.595,85.626,99.9,85.626,99.9
	l-0.791-3.955l-7.119,1.187v24.522h0.193h24.33l1.582-6.724l-4.351-1.187l13.646-13.646c0,0,3.362-2.57,8.306,2.373l13.805,0.434
	l0.637,0.021v15.821C153.796,100.813,136.846,84.544,136.254,84.08"/>
<path fill="#FFFFFF" d="M136.254,84.08c-19.579-19.579-36.784,1.978-38.762,3.955C93.932,91.595,85.626,99.9,85.626,99.9
	l-0.791-3.955l-7.119,1.187v24.522h0.193c8.183-8.184,26.646-26.646,28.946-28.945c7.713-7.713,16.81-9.295,24.523,1.384
	c2.185,3.025,3.329,6.041,3.849,8.813l0.638,0.021v15.821C153.796,100.813,136.844,84.544,136.254,84.08"/>
<path fill="#96D5CF" d="M106.855,92.709c-2.3,2.3-20.763,20.763-28.946,28.946h24.329l1.582-6.726l-4.35-1.186l13.645-13.646
	c0,0,3.361-2.57,8.307,2.373l13.807,0.435c-0.521-2.771-1.666-5.787-3.85-8.813C123.665,83.414,114.568,84.996,106.855,92.709"/>
<path fill="#191818" d="M133.625,124.146v-19.055l-13.158-0.411l-0.627-0.627c-1.563-1.562-3.063-2.387-4.339-2.387
	c-0.495,0-0.836,0.128-0.993,0.203l-10.729,10.729l2.716,0.74l-2.484,10.552H75.479V95.235l11.126-1.854l0.396,1.98l8.91-8.909
	c0.108-0.107,0.269-0.286,0.48-0.517c7.435-8.13,15.115-12.253,22.825-12.253c6.509,0,12.773,2.966,18.621,8.813l-0.003,0.003
	c1.229,1.161,7.861,7.882,8.438,17.596c0.424,7.146-2.545,13.952-8.824,20.231L133.625,124.146z M79.953,119.417h20.513l0.682-2.896
	l-5.987-1.633l16.595-16.567c0.247-0.188,1.585-1.129,3.745-1.129c2.3,0,4.599,1.032,6.845,3.068l15.754,0.492v11.857
	c2.604-3.812,3.854-7.753,3.727-11.772c-0.283-8.754-6.939-14.984-7.008-15.044l-0.146-0.134
	c-4.979-4.979-10.179-7.502-15.457-7.502c-6.401,0-12.97,3.633-19.522,10.797c-0.27,0.296-0.478,0.521-0.617,0.661l-14.823,14.821
	l-1.186-5.931l-3.113,0.52v20.391H79.953z"/>
<path fill="#FFFFFF" d="M77.461,140.363c19.579,19.579,36.783-1.979,38.762-3.955c3.562-3.561,11.866-11.866,11.866-11.866
	l0.791,3.955l7.119-1.187v-24.522h-0.192c-8.184,8.184-26.646,26.646-28.947,28.946c-7.713,7.713-16.81,9.295-24.523-1.385
	c-2.184-3.024-3.329-6.041-3.849-8.813l-0.636-0.021v-15.82C59.919,123.632,76.871,139.899,77.461,140.363"/>
<path fill="#FFFFFF" d="M135.807,102.788h-24.33l-1.582,6.724l4.352,1.188L100.6,124.345c0,0-3.362,2.571-8.306-2.373l-13.805-0.433
	l-0.636-0.02v-15.821c-17.933,17.934-0.981,34.202-0.391,34.666c19.579,19.579,36.784-1.979,38.763-3.955
	c3.561-3.562,11.865-11.866,11.865-11.866l0.791,3.955l7.119-1.187v-24.522L135.807,102.788L135.807,102.788z"/>
<path fill="#96D5CF" d="M106.859,131.734c2.3-2.301,20.764-20.764,28.946-28.946h-24.328l-1.582,6.725l4.35,1.187L100.6,124.345
	c0,0-3.362,2.57-8.306-2.373l-13.806-0.434c0.521,2.771,1.665,5.787,3.849,8.813C90.05,141.029,99.146,139.447,106.859,131.734"/>
<path fill="#191818" d="M94.503,150.76H94.5c-6.509-0.002-12.774-2.967-18.621-8.813l0.003-0.003
	c-1.232-1.163-7.859-7.878-8.437-17.59c-0.425-7.147,2.545-13.956,8.825-20.237l3.82-3.819v19.055l13.159,0.412l0.626,0.627
	c3.068,3.065,4.89,2.394,5.332,2.183l10.729-10.729l-2.715-0.74l2.483-10.552h28.531v28.654l-11.125,1.854l-0.396-1.979l-8.909,8.91
	c-0.109,0.109-0.271,0.287-0.482,0.52C109.889,146.638,102.211,150.76,94.503,150.76 M75.615,111.831
	c-2.605,3.813-3.855,7.754-3.725,11.774c0.283,8.754,6.94,14.983,7.007,15.041l0.146,0.135c4.978,4.979,10.178,7.502,15.457,7.503
	h0.003c6.4,0,12.966-3.632,19.519-10.796c0.271-0.297,0.479-0.521,0.619-0.662l14.822-14.822l1.186,5.931l3.113-0.52v-20.39h-20.514
	l-0.682,2.896l5.986,1.633l-16.596,16.566c-0.246,0.188-1.585,1.128-3.744,1.129c-2.3,0-4.599-1.031-6.845-3.068l-15.754-0.492
	v-11.857H75.615z"/>
<polygon fill="#FFFFFF" points="76.366,43.379 64.626,46.088 53.79,43.379 53.79,37.058 64.626,39.767 76.366,37.058 "/>
<polygon fill="#FFFFFF" points="76.366,52.409 64.626,55.118 53.79,52.409 53.79,46.089 64.626,48.798 76.366,46.089 "/>
<polygon fill="#FFFFFF" points="160.73,43.379 148.99,46.088 138.154,43.379 138.154,37.058 148.99,39.767 160.73,37.058 "/>
<polygon fill="#FFFFFF" points="160.73,52.409 148.99,55.118 138.154,52.409 138.154,46.089 148.99,48.798 160.73,46.089 "/>
</svg>
