<?xml version="1.0" encoding="utf-8"?>
<!-- Generator: Adobe Illustrator 16.0.0, SVG Export Plug-In . SVG Version: 6.00 Build 0)  -->
<!DOCTYPE svg PUBLIC "-//W3C//DTD SVG 1.1//EN" "http://www.w3.org/Graphics/SVG/1.1/DTD/svg11.dtd">
<svg version="1.1" id="Layer_1" xmlns="http://www.w3.org/2000/svg" xmlns:xlink="http://www.w3.org/1999/xlink" x="0px" y="0px"
	 width="215px" height="195px" viewBox="0 0 215 195" enable-background="new 0 0 215 195" xml:space="preserve">
<path fill="#1A1A19" d="M107.099,188.833l0.399-0.001l0.399,0.001"/>
<path fill="#1A1A19" d="M128.898,163.185c-10.387,6.446-19.063,10.538-20.966,11.416c-1.905-0.878-10.58-4.97-20.967-11.416v0.492
	c-0.003-0.002,0.004-0.005,0-0.007v15.051c11.415,7.015,20.568,11.112,20.568,11.112l0.399-0.001l0.399,0.001
	c0,0,9.151-4.099,20.567-11.112V163.67c-0.004,0.002,0.004,0.005,0,0.007V163.185L128.898,163.185z"/>
<path fill="#1A1A19" d="M83.65,162.048c-9.748-6.171-20.759-14.313-29.014-23.745v15.051c8.118,9.569,19.145,17.858,29.014,24.171
	v-15.052c-0.004-0.002,0.003-0.005,0-0.007V162.048z"/>
<path fill="#FFFFFF" d="M132.215,162.048v0.418c-0.004,0.002,0.003,0.005,0,0.007v15.052c9.869-6.313,20.895-14.602,29.014-24.171
	v-15.051C152.973,147.734,141.963,155.877,132.215,162.048"/>
<path fill="#96D5CF" d="M43.323,36.639v20.303l0.008,49.78c0,35.679,64.601,64.602,64.601,64.602s64.6-28.923,64.6-64.602
	l0.009-49.78V36.639H43.323L43.323,36.639z"/>
<g opacity="0.5">
	<g>
		<g>
			<defs>
				<rect id="SVGID_1_" x="108.52" y="37.922" width="60.03" height="127.574"/>
			</defs>
			<clipPath id="SVGID_2_">
				<use xlink:href="#SVGID_1_"  overflow="visible"/>
			</clipPath>
			<path clip-path="url(#SVGID_2_)" fill="#189995" d="M108.65,165.496c5.591-2.753,17.619-9.048,29.469-17.652
				c9.191-6.674,16.454-13.391,21.588-19.966c5.866-7.514,8.842-14.723,8.842-21.427V59.226V37.921h-60.025v127.511
				C108.564,165.453,108.609,165.476,108.65,165.496"/>
		</g>
	</g>
</g>
<g opacity="0.4">
	<g>
		<g>
			<defs>
				<rect id="SVGID_3_" x="43.32" y="34.13" width="129.22" height="137.192"/>
			</defs>
			<clipPath id="SVGID_4_">
				<use xlink:href="#SVGID_3_"  overflow="visible"/>
			</clipPath>
			<path clip-path="url(#SVGID_4_)" fill="#FFFFFF" d="M158.744,47.927v9.011l-0.008,49.784c0,18.229-31.246,39.336-50.803,49.295
				c-19.566-9.964-50.805-31.067-50.805-49.298L57.12,56.942v-9.016H158.744 M172.541,34.13H43.323v22.813l0.009,49.779
				c0,35.678,64.6,64.602,64.6,64.602s64.601-28.924,64.601-64.602l0.008-49.779V34.13L172.541,34.13z"/>
		</g>
	</g>
</g>
<path fill="#1A1A19" d="M172.541,34.129V21.777c0-3.459-2.805-6.263-6.262-6.263h-18.838L108.376,4.562L70.615,15.515h-21.03
	c-3.459,0-6.262,2.804-6.262,6.263v28.881v6.282l0.008,49.78c0,35.679,64.601,64.602,64.601,64.602s64.6-28.923,64.6-64.602
	l0.009-49.78V34.129L172.541,34.129z M165.008,106.722c0,8.39-5.031,22.042-28.998,39.444c-11.291,8.199-22.754,14.198-28.08,16.821
	c-5.288-2.602-16.619-8.527-27.885-16.684c-24.124-17.462-29.187-31.164-29.187-39.584L50.85,56.94v-6.282h114.166v6.281
	L165.008,106.722z"/>
<path fill="#FFFFFF" d="M84.142,42.069v-3.252c7.346-7.136,8.881-8.729,8.881-11.019c0-1.536-1.174-2.529-2.679-2.529
	c-1.776,0-3.191,0.813-4.275,2.259L83.661,25c1.625-2.167,4.003-3.313,6.743-3.313c3.884,0,6.714,2.35,6.714,6.081
	c0,3.04-2.047,5.631-7.015,10.747h7.105v3.554H84.142L84.142,42.069z"/>
<path fill="#FFFFFF" d="M99.464,32.044c0-5.178,2.137-10.354,7.104-10.354c4.999,0,7.105,5.178,7.105,10.354
	c0,5.148-2.077,10.388-7.105,10.388C101.601,42.432,99.464,37.192,99.464,32.044 M109.58,32.044c0-3.883-0.663-6.771-3.011-6.771
	c-2.318,0-2.979,2.89-2.979,6.771c0,3.854,0.662,6.806,2.979,6.806C108.917,38.85,109.58,35.898,109.58,32.044"/>
<path fill="#FFFFFF" d="M115.628,32.044c0-5.178,2.138-10.354,7.104-10.354c4.998,0,7.104,5.178,7.104,10.354
	c0,5.148-2.077,10.388-7.104,10.388C117.766,42.432,115.628,37.192,115.628,32.044 M125.744,32.044c0-3.883-0.664-6.771-3.012-6.771
	c-2.318,0-2.979,2.89-2.979,6.771c0,3.854,0.661,6.806,2.979,6.806C125.08,38.85,125.744,35.898,125.744,32.044"/>
<path fill="#191818" d="M118.604,89.004c3.986,3.987,2.437,12-3.461,17.897c-5.898,5.897-13.912,7.446-17.898,3.461
	c-3.986-3.986-2.437-12,3.461-17.897C106.603,86.566,114.615,85.017,118.604,89.004"/>
<path fill="#FFFFFF" d="M136.927,71.08c-19.579-19.579-36.784,1.978-38.762,3.955C94.605,78.595,86.299,86.9,86.299,86.9
	l-0.791-3.955l-7.119,1.187v24.522h0.193h24.329l1.583-6.724l-4.351-1.187l13.645-13.646c0,0,3.362-2.57,8.308,2.373l13.805,0.434
	l0.637,0.021v15.821C154.469,87.813,137.518,71.544,136.927,71.08"/>
<path fill="#FFFFFF" d="M136.927,71.08c-19.579-19.579-36.784,1.978-38.762,3.955C94.605,78.595,86.299,86.9,86.299,86.9
	l-0.791-3.955l-7.119,1.187v24.522h0.193c8.183-8.184,26.646-26.646,28.946-28.945c7.713-7.713,16.811-9.295,24.523,1.384
	c2.184,3.025,3.328,6.041,3.85,8.813l0.636,0.021v15.821C154.469,87.813,137.518,71.544,136.927,71.08"/>
<path fill="#96D5CF" d="M107.528,79.709c-2.3,2.3-20.763,20.763-28.946,28.946h24.329l1.582-6.726l-4.35-1.186l13.645-13.646
	c0,0,3.362-2.57,8.308,2.373l13.805,0.435c-0.52-2.771-1.664-5.787-3.848-8.813C124.338,70.414,115.24,71.996,107.528,79.709"/>
<path fill="#191818" d="M134.298,111.146V92.092l-13.159-0.411l-0.625-0.627c-1.563-1.562-3.063-2.387-4.34-2.387
	c-0.494,0-0.836,0.128-0.992,0.203l-10.73,10.729l2.716,0.74l-2.484,10.552H76.15V82.235l11.126-1.854l0.396,1.98l8.91-8.909
	c0.108-0.107,0.269-0.286,0.48-0.517c7.435-8.13,15.115-12.253,22.825-12.253c6.508,0,12.772,2.966,18.621,8.813l-0.003,0.003
	c1.229,1.162,7.858,7.877,8.437,17.59c0.426,7.147-2.545,13.956-8.824,20.237L134.298,111.146z M80.625,106.417h20.513l0.682-2.896
	l-5.987-1.633l16.597-16.567c0.245-0.188,1.584-1.129,3.743-1.129c2.302,0,4.599,1.032,6.845,3.068l15.754,0.492V99.61
	c2.604-3.813,3.854-7.754,3.727-11.773c-0.283-8.755-6.939-14.983-7.008-15.043l-0.146-0.134
	c-4.979-4.979-10.179-7.502-15.457-7.502c-6.402,0-12.97,3.633-19.522,10.797c-0.27,0.296-0.478,0.521-0.617,0.661L84.925,91.438
	l-1.188-5.931l-3.113,0.52L80.625,106.417L80.625,106.417z"/>
<path fill="#FFFFFF" d="M78.133,127.363c19.579,19.579,36.784-1.979,38.762-3.955c3.561-3.561,11.866-11.866,11.866-11.866
	l0.791,3.955l7.119-1.187V89.788h-0.192c-8.185,8.184-26.646,26.646-28.946,28.946c-7.713,7.713-16.81,9.295-24.523-1.385
	c-2.184-3.024-3.329-6.041-3.849-8.813l-0.636-0.021v-15.82C60.591,110.632,77.542,126.899,78.133,127.363"/>
<path fill="#FFFFFF" d="M136.479,89.788H112.15l-1.584,6.724l4.352,1.188l-13.646,13.645c0,0-3.361,2.571-8.306-2.373l-13.805-0.433
	l-0.636-0.02V92.698c-17.933,17.934-0.982,34.202-0.391,34.666c19.579,19.579,36.784-1.979,38.763-3.955
	c3.56-3.562,11.865-11.866,11.865-11.866l0.791,3.955l7.119-1.187V89.789L136.479,89.788L136.479,89.788z"/>
<path fill="#96D5CF" d="M107.532,118.734c2.3-2.301,20.763-20.764,28.946-28.946h-24.33l-1.584,6.725l4.352,1.187l-13.645,13.646
	c0,0-3.362,2.57-8.307-2.373l-13.805-0.434c0.52,2.771,1.665,5.787,3.849,8.813C90.722,128.029,99.819,126.447,107.532,118.734"/>
<path fill="#191818" d="M95.175,137.76h-0.003c-6.509-0.002-12.773-2.967-18.621-8.813l0.003-0.003
	c-1.232-1.163-7.86-7.878-8.437-17.59c-0.425-7.147,2.545-13.957,8.825-20.237l3.82-3.819v19.055l13.159,0.412l0.626,0.627
	c3.068,3.065,4.891,2.394,5.332,2.183l10.73-10.729l-2.716-0.74l2.483-10.552h28.533v28.654l-11.126,1.854l-0.396-1.979l-8.91,8.91
	c-0.107,0.109-0.27,0.287-0.48,0.52C110.561,133.638,102.883,137.76,95.175,137.76 M76.287,98.831
	c-2.605,3.813-3.855,7.754-3.725,11.772c0.283,8.756,6.94,14.985,7.007,15.044l0.146,0.134c4.978,4.979,10.178,7.502,15.457,7.503
	h0.003c6.4,0,12.966-3.632,19.519-10.796c0.271-0.297,0.479-0.521,0.619-0.662l14.821-14.822l1.187,5.931l3.113-0.52v-20.39H113.92
	l-0.681,2.896l5.987,1.634l-16.598,16.566c-0.246,0.188-1.585,1.128-3.744,1.129c-2.3,0-4.599-1.031-6.845-3.068l-15.754-0.492
	L76.287,98.831L76.287,98.831z"/>
<polygon fill="#FFFFFF" points="78.878,29.538 71.42,28.406 68.099,21.309 64.779,28.406 57.32,29.538 62.71,35.072 61.362,42.867 
	68.099,39.186 74.836,42.867 73.489,35.072 "/>
<polygon fill="#FFFFFF" points="158.545,29.538 151.086,28.406 147.766,21.309 144.445,28.406 136.986,29.538 142.375,35.072 
	141.027,42.867 147.766,39.186 154.502,42.867 153.154,35.072 "/>
</svg>
