<?xml version="1.0" encoding="utf-8"?>
<!-- Generator: Adobe Illustrator 16.0.0, SVG Export Plug-In . SVG Version: 6.00 Build 0)  -->
<!DOCTYPE svg PUBLIC "-//W3C//DTD SVG 1.1//EN" "http://www.w3.org/Graphics/SVG/1.1/DTD/svg11.dtd">
<svg version="1.1" id="Layer_1" xmlns="http://www.w3.org/2000/svg" xmlns:xlink="http://www.w3.org/1999/xlink" x="0px" y="0px"
	 width="612px" height="792px" viewBox="0 0 612 792" enable-background="new 0 0 612 792" xml:space="preserve">
<path fill="none" d="M346.63,60"/>
<path fill="none" d="M346.63,3305.597"/>
<path fill="#95D5CF" d="M239.552,343.278v19.808l0.008,48.568c0,34.809,63.027,63.027,63.027,63.027s63.027-28.219,63.027-63.027
	l0.008-48.568v-19.808H239.552z"/>
<g opacity="0.5">
	<g>
		<defs>
			<rect id="SVGID_1_" x="303.178" y="342.922" width="60.025" height="127.574"/>
		</defs>
		<clipPath id="SVGID_2_">
			<use xlink:href="#SVGID_1_"  overflow="visible"/>
		</clipPath>
		<path clip-path="url(#SVGID_2_)" fill="#189995" d="M303.307,470.496c5.59-2.753,17.619-9.048,29.468-17.652
			c9.19-6.674,16.454-13.391,21.588-19.966c5.866-7.514,8.841-14.723,8.841-21.427v-47.225v-21.305h-60.024v127.511
			C303.221,470.453,303.266,470.476,303.307,470.496"/>
	</g>
</g>
<g opacity="0.4">
	<g>
		<defs>
			<rect id="SVGID_3_" x="237.979" y="339.13" width="129.216" height="137.192"/>
		</defs>
		<clipPath id="SVGID_4_">
			<use xlink:href="#SVGID_3_"  overflow="visible"/>
		</clipPath>
		<path clip-path="url(#SVGID_4_)" fill="#FFFFFF" d="M353.399,352.927v9.011l-0.009,49.784c0,18.229-31.246,39.336-50.802,49.295
			c-19.566-9.964-50.805-31.068-50.805-49.298l-0.008-49.777v-9.015H353.399 M367.196,339.13H237.978v22.812l0.009,49.78
			c0,35.677,64.6,64.601,64.6,64.601s64.6-28.924,64.6-64.601l0.009-49.78V339.13z"/>
	</g>
</g>
<path fill="#1A1A19" d="M367.195,326.777c0-3.458-2.803-6.262-6.261-6.262h-18.838l-39.065-10.953l-37.761,10.953H244.24
	c-3.458,0-6.261,2.804-6.261,6.262v12.353v22.811l0.008,49.781c0,35.678,64.601,64.601,64.601,64.601s64.6-28.923,64.6-64.601
	l0.008-49.781v-6.282V326.777z M359.671,361.939l-0.009,49.782c0,8.389-5.03,22.043-28.996,39.445
	c-11.291,8.199-22.754,14.197-28.081,16.82c-5.288-2.601-16.619-8.527-27.885-16.682c-24.124-17.462-29.187-31.164-29.187-39.585
	l-0.009-49.78v-6.282h114.167V361.939z"/>
<polygon fill="#FFFFFF" points="293.653,347.069 293.653,332.197 290.612,335.358 288.294,332.921 294.195,326.989 297.717,326.989 
	297.717,347.069 "/>
<path fill="#FFFFFF" d="M299.703,337.044c0-5.178,2.138-10.355,7.105-10.355c4.998,0,7.104,5.178,7.104,10.355
	c0,5.148-2.076,10.388-7.104,10.388C301.84,347.432,299.703,342.192,299.703,337.044 M309.818,337.044
	c0-3.883-0.663-6.772-3.011-6.772c-2.318,0-2.98,2.89-2.98,6.772c0,3.854,0.662,6.806,2.98,6.806
	C309.155,343.85,309.818,340.898,309.818,337.044"/>
<path fill="#191818" d="M313.258,394.004c3.986,3.987,2.438,12-3.461,17.897c-5.898,5.898-13.911,7.447-17.898,3.461
	c-3.986-3.986-2.437-12,3.461-17.897C301.258,391.566,309.271,390.017,313.258,394.004"/>
<path fill="#FFFFFF" d="M331.582,376.08c-19.579-19.579-36.784,1.978-38.762,3.955c-3.56,3.56-11.866,11.865-11.866,11.865
	l-0.791-3.955l-7.119,1.187v24.522h0.193h24.33l1.582-6.723l-4.351-1.187l13.646-13.646c0,0,3.362-2.571,8.307,2.373l13.805,0.433
	l0.636,0.021v15.821C349.123,392.812,332.172,376.544,331.582,376.08"/>
<path fill="#FFFFFF" d="M331.582,376.08c-19.579-19.579-36.784,1.978-38.762,3.955c-3.56,3.56-11.866,11.865-11.866,11.865
	l-0.791-3.955l-7.119,1.187v24.522h0.193c8.183-8.183,26.646-26.646,28.946-28.945c7.713-7.713,16.81-9.295,24.522,1.384
	c2.185,3.025,3.33,6.041,3.85,8.812l0.636,0.021v15.821C349.123,392.812,332.173,376.544,331.582,376.08"/>
<path fill="#95D5CF" d="M302.183,384.709c-2.3,2.3-20.763,20.763-28.946,28.946h24.329l1.583-6.725l-4.351-1.186l13.646-13.646
	c0,0,3.361-2.571,8.306,2.373l13.806,0.434c-0.52-2.771-1.665-5.787-3.849-8.813C318.993,375.414,309.896,376.996,302.183,384.709"
	/>
<path fill="#191818" d="M328.953,416.146v-19.054l-13.16-0.411l-0.625-0.627c-1.562-1.562-3.062-2.387-4.34-2.387
	c-0.494,0-0.836,0.128-0.992,0.203l-10.729,10.729l2.715,0.74l-2.483,10.552h-28.533v-28.656l11.126-1.854l0.396,1.98l8.911-8.909
	c0.108-0.107,0.269-0.286,0.479-0.516c7.436-8.13,15.115-12.253,22.826-12.253c6.508,0,12.772,2.965,18.621,8.813l-0.004,0.003
	c1.23,1.161,7.862,7.882,8.438,17.596c0.424,7.145-2.545,13.952-8.825,20.231L328.953,416.146z M275.28,411.417h20.514l0.681-2.896
	l-5.987-1.632l16.596-16.568c0.246-0.188,1.586-1.129,3.744-1.129c2.301,0,4.6,1.033,6.846,3.069l15.754,0.492v11.857
	c2.604-3.811,3.854-7.753,3.726-11.772c-0.283-8.754-6.94-14.984-7.008-15.044L330,377.661c-4.979-4.978-10.179-7.502-15.457-7.502
	c-6.402,0-12.971,3.633-19.522,10.797c-0.271,0.296-0.478,0.522-0.618,0.661l-14.823,14.821l-1.186-5.93l-3.113,0.519V411.417z"/>
<path fill="#FFFFFF" d="M272.789,432.363c19.579,19.579,36.784-1.978,38.762-3.955c3.56-3.56,11.865-11.866,11.865-11.866
	l0.791,3.955l7.119-1.186v-24.523h-0.193l-28.945,28.946c-7.713,7.713-16.81,9.295-24.523-1.384
	c-2.184-3.025-3.329-6.041-3.849-8.813l-0.636-0.02v-15.821C255.247,415.632,272.197,431.899,272.789,432.363"/>
<path fill="#FFFFFF" d="M331.133,394.788h-24.329l-1.582,6.724l4.351,1.188l-13.646,13.645c0,0-3.362,2.571-8.306-2.373
	l-13.805-0.433l-0.636-0.019v-15.822c-17.933,17.934-0.981,34.202-0.391,34.666c19.579,19.579,36.784-1.978,38.762-3.955
	c3.56-3.561,11.865-11.866,11.865-11.866l0.791,3.955l7.119-1.186v-24.523H331.133z"/>
<path fill="#95D5CF" d="M302.188,423.734l28.945-28.946h-24.329l-1.583,6.725l4.351,1.186l-13.645,13.646
	c0,0-3.362,2.57-8.306-2.373l-13.806-0.434c0.52,2.771,1.665,5.787,3.849,8.813C285.377,433.029,294.474,431.447,302.188,423.734"/>
<path fill="#191818" d="M289.83,442.76h-0.003c-6.509-0.002-12.774-2.967-18.621-8.814l0.003-0.003
	c-1.229-1.161-7.861-7.882-8.437-17.594c-0.423-7.146,2.546-13.954,8.825-20.233l3.82-3.819v19.055l13.159,0.412l0.627,0.627
	c3.067,3.065,4.89,2.393,5.332,2.182l10.729-10.728l-2.715-0.741l2.483-10.551h28.532v28.654l-11.127,1.854l-0.396-1.98l-8.909,8.91
	c-0.109,0.11-0.271,0.287-0.482,0.52C305.216,438.638,297.538,442.76,289.83,442.76 M270.942,403.831
	c-2.604,3.812-3.854,7.753-3.725,11.772c0.283,8.754,6.94,14.986,7.007,15.044l0.146,0.134c4.978,4.979,10.178,7.502,15.458,7.503
	h0.002c6.4,0,12.967-3.632,19.52-10.796c0.271-0.297,0.479-0.521,0.618-0.662l14.822-14.822l1.187,5.931l3.112-0.52v-20.39h-20.513
	l-0.682,2.896l5.986,1.633l-16.595,16.566c-0.247,0.189-1.585,1.128-3.744,1.129c-2.301,0-4.6-1.031-6.846-3.068l-15.754-0.493
	V403.831z"/>
<polygon fill="#95D5CF" points="271.693,335.379 259.954,338.088 249.117,335.379 249.117,329.058 259.954,331.767 271.693,329.058 
	"/>
<polygon fill="#95D5CF" points="271.693,344.409 259.954,347.118 249.117,344.409 249.117,338.089 259.954,340.798 271.693,338.089 
	"/>
<polygon fill="#95D5CF" points="356.058,335.379 344.317,338.088 333.481,335.379 333.481,329.058 344.317,331.767 356.058,329.058 
	"/>
<polygon fill="#95D5CF" points="356.058,344.409 344.317,347.118 333.481,344.409 333.481,338.089 344.317,340.798 356.058,338.089 
	"/>
</svg>
