<?xml version="1.0" encoding="utf-8"?>
<!-- Generator: Adobe Illustrator 16.0.0, SVG Export Plug-In . SVG Version: 6.00 Build 0)  -->
<!DOCTYPE svg PUBLIC "-//W3C//DTD SVG 1.1//EN" "http://www.w3.org/Graphics/SVG/1.1/DTD/svg11.dtd">
<svg version="1.1" id="Layer_1" xmlns="http://www.w3.org/2000/svg" xmlns:xlink="http://www.w3.org/1999/xlink" x="0px" y="0px"
	 width="612px" height="792px" viewBox="0 0 612 792" enable-background="new 0 0 612 792" xml:space="preserve">
<path fill="none" d="M346.63,60"/>
<path fill="none" d="M346.63,3305.597"/>
<path fill="#95D5CF" d="M238.897,342.938v19.91l0.008,48.821c0,34.989,63.355,63.354,63.355,63.354s63.355-28.365,63.355-63.354
	l0.008-48.821v-19.91H238.897z"/>
<g opacity="0.5">
	<g>
		<defs>
			<rect id="SVGID_1_" x="302.85" y="342.922" width="60.03" height="127.574"/>
		</defs>
		<clipPath id="SVGID_2_">
			<use xlink:href="#SVGID_1_"  overflow="visible"/>
		</clipPath>
		<path clip-path="url(#SVGID_2_)" fill="#189995" d="M302.979,470.496c5.589-2.753,17.619-9.048,29.468-17.652
			c9.19-6.674,16.453-13.391,21.588-19.966c5.865-7.514,8.841-14.723,8.841-21.427v-47.225v-21.305h-60.025v127.511
			C302.893,470.453,302.938,470.476,302.979,470.496"/>
	</g>
</g>
<g opacity="0.4">
	<g>
		<defs>
			<rect id="SVGID_3_" x="237.65" y="339.13" width="129.22" height="137.192"/>
		</defs>
		<clipPath id="SVGID_4_">
			<use xlink:href="#SVGID_3_"  overflow="visible"/>
		</clipPath>
		<path clip-path="url(#SVGID_4_)" fill="#FFFFFF" d="M353.071,352.927v9.011l-0.008,49.784c0,18.229-31.246,39.336-50.803,49.295
			c-19.566-9.964-50.805-31.068-50.805-49.298l-0.008-49.777v-9.015H353.071 M366.869,339.13H237.65v22.812l0.009,49.78
			c0,35.677,64.601,64.601,64.601,64.601s64.601-28.924,64.601-64.601l0.009-49.78V339.13z"/>
	</g>
</g>
<path fill="#1A1A19" d="M366.869,326.777c0-3.458-2.805-6.262-6.262-6.262H341.77l-39.065-10.953l-37.761,10.953h-21.031
	c-3.458,0-6.261,2.804-6.261,6.262v12.353v22.811l0.008,49.781c0,35.678,64.601,64.601,64.601,64.601s64.6-28.923,64.6-64.601
	l0.008-49.781v-6.282h0.001V326.777z M359.344,361.939l-0.009,49.782c0,8.389-5.03,22.043-28.997,39.445
	c-11.291,8.199-22.754,14.197-28.081,16.82c-5.288-2.601-16.619-8.527-27.885-16.682c-24.124-17.462-29.187-31.164-29.187-39.585
	l-0.009-49.78v-6.282h114.168V361.939z"/>
<path fill="#FFFFFF" d="M286.281,344.27l2.438-2.589c1.054,1.385,2.469,2.168,4.185,2.168c1.927,0,3.041-1.475,3.041-3.162
	c0-1.985-1.054-3.16-2.86-3.16c-1.355,0-2.379,0.481-3.312,1.655l-2.92-0.782V326.99h12.042v3.551h-8.008v5.148
	c0.783-0.964,2.138-1.654,3.673-1.654c3.041,0,5.479,2.378,5.479,6.531c0,4.034-2.739,6.864-7.014,6.864
	C289.924,347.431,287.786,346.287,286.281,344.27"/>
<path fill="#FFFFFF" d="M301.964,337.044c0-5.178,2.137-10.355,7.104-10.355c4.998,0,7.105,5.178,7.105,10.355
	c0,5.148-2.077,10.388-7.105,10.388C304.101,347.432,301.964,342.192,301.964,337.044 M312.08,337.044
	c0-3.883-0.664-6.772-3.012-6.772c-2.318,0-2.979,2.89-2.979,6.772c0,3.854,0.662,6.806,2.979,6.806
	C311.416,343.85,312.08,340.898,312.08,337.044"/>
<path fill="#191818" d="M312.93,394.004c3.987,3.987,2.438,12-3.461,17.897c-5.897,5.898-13.911,7.447-17.897,3.461
	c-3.986-3.986-2.437-12,3.461-17.897C300.93,391.566,308.943,390.017,312.93,394.004"/>
<path fill="#FFFFFF" d="M331.254,376.08c-19.579-19.579-36.784,1.978-38.762,3.955c-3.56,3.56-11.866,11.865-11.866,11.865
	l-0.791-3.955l-7.119,1.187v24.522h0.193h24.33l1.582-6.723l-4.351-1.187l13.646-13.646c0,0,3.362-2.571,8.306,2.373l13.805,0.433
	l0.637,0.021v15.821C348.796,392.812,331.845,376.544,331.254,376.08"/>
<path fill="#FFFFFF" d="M331.254,376.08c-19.579-19.579-36.784,1.978-38.762,3.955c-3.56,3.56-11.866,11.865-11.866,11.865
	l-0.791-3.955l-7.119,1.187v24.522h0.193c8.183-8.183,26.646-26.646,28.946-28.945c7.713-7.713,16.81-9.295,24.523,1.384
	c2.185,3.025,3.329,6.041,3.849,8.812l0.637,0.021v15.821C348.796,392.812,331.844,376.544,331.254,376.08"/>
<path fill="#95D5CF" d="M301.855,384.709c-2.3,2.3-20.763,20.763-28.946,28.946h24.329l1.582-6.725l-4.35-1.186l13.645-13.646
	c0,0,3.362-2.571,8.307,2.373l13.806,0.434c-0.521-2.771-1.665-5.787-3.849-8.813C318.665,375.414,309.568,376.996,301.855,384.709"
	/>
<path fill="#191818" d="M328.625,416.146v-19.054l-13.158-0.411l-0.627-0.627c-1.562-1.562-3.062-2.387-4.339-2.387
	c-0.495,0-0.836,0.128-0.993,0.203l-10.729,10.729l2.716,0.74l-2.484,10.552h-28.532v-28.656l11.126-1.854l0.396,1.98l8.91-8.909
	c0.108-0.107,0.269-0.286,0.48-0.516c7.435-8.13,15.115-12.253,22.825-12.253c6.508,0,12.773,2.965,18.621,8.813l-0.003,0.003
	c1.229,1.161,7.862,7.882,8.437,17.596c0.425,7.145-2.545,13.952-8.824,20.231L328.625,416.146z M274.953,411.417h20.513
	l0.682-2.896l-5.987-1.632l16.595-16.568c0.247-0.188,1.585-1.129,3.745-1.129c2.3,0,4.599,1.033,6.845,3.069l15.754,0.492v11.857
	c2.604-3.811,3.854-7.753,3.726-11.772c-0.283-8.754-6.94-14.984-7.007-15.044l-0.146-0.134c-4.979-4.978-10.179-7.502-15.457-7.502
	c-6.401,0-12.97,3.633-19.522,10.797c-0.27,0.296-0.478,0.522-0.617,0.661l-14.823,14.821l-1.186-5.93l-3.113,0.519V411.417z"/>
<path fill="#FFFFFF" d="M272.461,432.363c19.579,19.579,36.783-1.978,38.762-3.955c3.561-3.56,11.866-11.866,11.866-11.866
	l0.791,3.955l7.119-1.186v-24.523h-0.193c-8.183,8.184-26.646,26.646-28.946,28.946c-7.713,7.713-16.81,9.295-24.523-1.384
	c-2.184-3.025-3.329-6.041-3.849-8.813l-0.636-0.02v-15.821C254.919,415.632,271.871,431.899,272.461,432.363"/>
<path fill="#FFFFFF" d="M330.806,394.788h-24.33l-1.582,6.724l4.352,1.188l-13.646,13.645c0,0-3.362,2.571-8.306-2.373
	l-13.805-0.433l-0.636-0.019v-15.822c-17.933,17.934-0.981,34.202-0.391,34.666c19.579,19.579,36.784-1.978,38.762-3.955
	c3.561-3.561,11.866-11.866,11.866-11.866l0.791,3.955l7.119-1.186v-24.523H330.806z"/>
<path fill="#95D5CF" d="M301.859,423.734c2.3-2.3,20.764-20.763,28.946-28.946h-24.329l-1.582,6.725l4.35,1.186L295.6,416.345
	c0,0-3.362,2.57-8.306-2.373l-13.806-0.434c0.521,2.771,1.665,5.787,3.849,8.813C285.05,433.029,294.146,431.447,301.859,423.734"/>
<path fill="#191818" d="M289.503,442.76H289.5c-6.509-0.002-12.774-2.967-18.621-8.814l0.003-0.003
	c-1.232-1.163-7.859-7.878-8.437-17.59c-0.425-7.147,2.545-13.956,8.825-20.237l3.82-3.819v19.055l13.159,0.412l0.626,0.627
	c3.068,3.065,4.89,2.393,5.332,2.182l10.729-10.728l-2.716-0.741l2.483-10.551h28.532v28.654l-11.125,1.854l-0.396-1.98l-8.91,8.91
	c-0.109,0.11-0.27,0.287-0.482,0.52C304.889,438.638,297.211,442.76,289.503,442.76 M270.615,403.831
	c-2.605,3.813-3.855,7.754-3.725,11.774c0.283,8.754,6.94,14.984,7.007,15.042l0.146,0.134c4.978,4.979,10.178,7.502,15.457,7.503
	h0.003c6.4,0,12.966-3.632,19.518-10.796c0.272-0.297,0.48-0.521,0.62-0.662l14.822-14.822l1.186,5.931l3.113-0.52v-20.39h-20.514
	l-0.682,2.896l5.987,1.633l-16.596,16.566c-0.246,0.189-1.585,1.128-3.744,1.129c-2.3,0-4.599-1.031-6.845-3.068l-15.754-0.493
	V403.831z"/>
<polygon fill="#FFFFFF" points="271.366,335.379 259.626,338.088 248.79,335.379 248.79,329.058 259.626,331.767 271.366,329.058 
	"/>
<polygon fill="#FFFFFF" points="271.366,344.409 259.626,347.118 248.79,344.409 248.79,338.089 259.626,340.798 271.366,338.089 
	"/>
<polygon fill="#FFFFFF" points="355.73,335.379 343.99,338.088 333.154,335.379 333.154,329.058 343.99,331.767 355.73,329.058 "/>
<polygon fill="#FFFFFF" points="355.73,344.409 343.99,347.118 333.154,344.409 333.154,338.089 343.99,340.798 355.73,338.089 "/>
</svg>
