<?xml version="1.0" encoding="utf-8"?>
<!-- Generator: Adobe Illustrator 16.0.0, SVG Export Plug-In . SVG Version: 6.00 Build 0)  -->
<!DOCTYPE svg PUBLIC "-//W3C//DTD SVG 1.1//EN" "http://www.w3.org/Graphics/SVG/1.1/DTD/svg11.dtd">
<svg version="1.1" id="Layer_1" xmlns="http://www.w3.org/2000/svg" xmlns:xlink="http://www.w3.org/1999/xlink" x="0px" y="0px"
	 width="612px" height="792px" viewBox="0 0 612 792" enable-background="new 0 0 612 792" xml:space="preserve">
<path fill="none" d="M346.63,60"/>
<path fill="none" d="M346.63,3305.597"/>
<path fill="#1A1A19" d="M323.563,458.185c-10.387,6.446-19.063,10.538-20.966,11.416c-1.905-0.878-10.58-4.97-20.967-11.416v0.492
	c-0.003-0.002,0.004-0.005,0-0.007v15.051c11.415,7.014,20.568,11.112,20.568,11.112l0.399-0.001l0.399,0.001
	c0,0,9.151-4.099,20.567-11.112V458.67c-0.004,0.002,0.004,0.005,0,0.007V458.185z"/>
<path fill="#FFFFFF" d="M278.313,457.048c-9.748-6.171-20.759-14.313-29.014-23.745v15.051c8.118,9.569,19.145,17.858,29.014,24.17
	v-15.051c-0.004-0.002,0.003-0.005,0-0.007V457.048z"/>
<path fill="#FFFFFF" d="M326.879,457.048v0.418c-0.004,0.002,0.002,0.005,0,0.007v15.051c9.869-6.312,20.895-14.601,29.014-24.17
	v-15.051C347.637,442.734,336.627,450.877,326.879,457.048"/>
<path fill="#95D5CF" d="M240.069,333.809v19.647l0.008,48.178c0,34.526,62.52,62.518,62.52,62.518s62.518-27.991,62.518-62.518
	l0.009-48.178v-19.647H240.069z"/>
<g opacity="0.5">
	<g>
		<defs>
			<rect id="SVGID_1_" x="303.19" y="332.922" width="60.02" height="127.574"/>
		</defs>
		<clipPath id="SVGID_2_">
			<use xlink:href="#SVGID_1_"  overflow="visible"/>
		</clipPath>
		<path clip-path="url(#SVGID_2_)" fill="#189995" d="M303.315,460.496c5.59-2.753,17.619-9.048,29.468-17.652
			c9.191-6.674,16.454-13.391,21.588-19.966c5.866-7.514,8.841-14.723,8.841-21.427v-47.225v-21.305h-60.025v127.511
			C303.229,460.453,303.274,460.476,303.315,460.496"/>
	</g>
</g>
<g opacity="0.4">
	<g>
		<defs>
			<rect id="SVGID_3_" x="237.99" y="329.13" width="129.21" height="137.192"/>
		</defs>
		<clipPath id="SVGID_4_">
			<use xlink:href="#SVGID_3_"  overflow="visible"/>
		</clipPath>
		<path clip-path="url(#SVGID_4_)" fill="#FFFFFF" d="M353.408,342.927v9.011l-0.009,49.784c0,18.229-31.245,39.336-50.803,49.295
			c-19.566-9.964-50.805-31.068-50.805-49.298l-0.008-49.777v-9.015H353.408 M367.205,329.13H237.987v22.812l0.009,49.78
			c0,35.677,64.6,64.601,64.6,64.601s64.602-28.924,64.602-64.601l0.008-49.78V329.13z"/>
	</g>
</g>
<path fill="#1A1A19" d="M367.204,316.777c0-3.458-2.803-6.262-6.261-6.262h-18.838l-39.065-10.953l-37.761,10.953h-21.031
	c-3.458,0-6.261,2.804-6.261,6.262v12.353v22.811l0.008,49.781c0,35.678,64.601,64.601,64.601,64.601s64.6-28.923,64.6-64.601
	l0.008-49.781v-6.282V316.777z M359.68,351.939l-0.008,49.782c0,8.389-5.031,22.043-28.998,39.445
	c-11.291,8.199-22.754,14.197-28.081,16.82c-5.288-2.601-16.619-8.527-27.885-16.682c-24.124-17.462-29.187-31.164-29.187-39.585
	l-0.009-49.78v-6.282H359.68V351.939z"/>
<polygon fill="#FFFFFF" points="285.204,337.069 285.204,322.197 282.163,325.358 279.845,322.921 285.746,316.989 289.268,316.989 
	289.268,337.069 "/>
<path fill="#FFFFFF" d="M292.005,327.044c0-5.178,2.138-10.355,7.106-10.355c4.997,0,7.104,5.178,7.104,10.355
	c0,5.148-2.077,10.388-7.104,10.388C294.143,337.432,292.005,332.192,292.005,327.044 M302.121,327.044
	c0-3.883-0.663-6.772-3.01-6.772c-2.319,0-2.981,2.89-2.981,6.772c0,3.854,0.662,6.806,2.981,6.806
	C301.458,333.85,302.121,330.898,302.121,327.044"/>
<path fill="#FFFFFF" d="M308.17,327.044c0-5.178,2.137-10.355,7.105-10.355c4.997,0,7.104,5.178,7.104,10.355
	c0,5.148-2.076,10.388-7.104,10.388C310.307,337.432,308.17,332.192,308.17,327.044 M318.285,327.044
	c0-3.883-0.662-6.772-3.01-6.772c-2.319,0-2.981,2.89-2.981,6.772c0,3.854,0.662,6.806,2.981,6.806
	C317.623,333.85,318.285,330.898,318.285,327.044"/>
<path fill="#191818" d="M313.267,384.004c3.987,3.987,2.437,12-3.462,17.897c-5.897,5.898-13.91,7.447-17.897,3.461
	c-3.986-3.986-2.437-12,3.461-17.897C301.267,381.566,309.279,380.017,313.267,384.004"/>
<path fill="#FFFFFF" d="M331.59,366.08c-19.578-19.579-36.784,1.978-38.762,3.955c-3.56,3.56-11.866,11.865-11.866,11.865
	l-0.791-3.955l-7.119,1.187v24.522h0.193h24.329l1.583-6.723l-4.351-1.187l13.645-13.646c0,0,3.362-2.571,8.307,2.373l13.806,0.433
	l0.636,0.021v15.821C349.133,382.812,332.18,366.544,331.59,366.08"/>
<path fill="#FFFFFF" d="M331.59,366.08c-19.578-19.579-36.784,1.978-38.762,3.955c-3.56,3.56-11.866,11.865-11.866,11.865
	l-0.791-3.955l-7.119,1.187v24.522h0.193c8.183-8.183,26.646-26.646,28.946-28.945c7.713-7.713,16.81-9.295,24.523,1.384
	c2.184,3.025,3.328,6.041,3.849,8.812l0.636,0.021v15.821C349.133,382.812,332.18,366.544,331.59,366.08"/>
<path fill="#95D5CF" d="M302.191,374.709c-2.3,2.3-20.763,20.763-28.946,28.946h24.329l1.582-6.725l-4.35-1.186l13.645-13.646
	c0,0,3.362-2.571,8.307,2.373l13.806,0.434c-0.521-2.771-1.665-5.787-3.849-8.813C319.002,365.414,309.904,366.996,302.191,374.709"
	/>
<path fill="#191818" d="M328.962,406.146v-19.054l-13.159-0.411l-0.627-0.627c-1.561-1.562-3.061-2.387-4.339-2.387
	c-0.493,0-0.836,0.128-0.993,0.203l-10.729,10.729l2.715,0.74l-2.483,10.552h-28.533v-28.656l11.126-1.854l0.396,1.98l8.91-8.909
	c0.108-0.107,0.269-0.286,0.48-0.516c7.435-8.13,15.115-12.253,22.825-12.253c6.508,0,12.773,2.965,18.621,8.813l-0.003,0.003
	c1.23,1.161,7.862,7.882,8.437,17.596c0.425,7.145-2.545,13.952-8.824,20.231L328.962,406.146z M275.289,401.417h20.514l0.681-2.896
	l-5.987-1.632l16.597-16.568c0.245-0.188,1.584-1.129,3.743-1.129c2.302,0,4.599,1.033,6.845,3.069l15.754,0.492v11.857
	c2.605-3.811,3.855-7.753,3.727-11.772c-0.283-8.754-6.939-14.984-7.008-15.044l-0.146-0.134
	c-4.978-4.978-10.178-7.502-15.457-7.502c-6.401,0-12.97,3.633-19.522,10.797c-0.27,0.296-0.478,0.522-0.617,0.661l-14.823,14.821
	l-1.186-5.93l-3.113,0.519V401.417z"/>
<path fill="#FFFFFF" d="M272.797,422.363c19.579,19.579,36.784-1.978,38.762-3.955c3.561-3.56,11.866-11.866,11.866-11.866
	l0.791,3.955l7.119-1.186v-24.523h-0.192c-8.184,8.184-26.646,26.646-28.947,28.946c-7.713,7.713-16.81,9.295-24.523-1.384
	c-2.184-3.025-3.329-6.041-3.849-8.813l-0.636-0.02v-15.821C255.255,405.632,272.207,421.899,272.797,422.363"/>
<path fill="#FFFFFF" d="M331.143,384.788h-24.331l-1.582,6.724l4.351,1.188l-13.646,13.645c0,0-3.361,2.571-8.306-2.373
	l-13.805-0.433l-0.636-0.019v-15.822c-17.933,17.934-0.982,34.202-0.391,34.666c19.579,19.579,36.784-1.978,38.762-3.955
	c3.561-3.561,11.866-11.866,11.866-11.866l0.791,3.955l7.119-1.186v-24.523H331.143z"/>
<path fill="#95D5CF" d="M302.196,413.734c2.3-2.3,20.763-20.763,28.946-28.946h-24.329l-1.582,6.725l4.35,1.186l-13.645,13.646
	c0,0-3.362,2.57-8.306-2.373l-13.806-0.434c0.52,2.771,1.665,5.787,3.849,8.813C285.386,423.029,294.483,421.447,302.196,413.734"/>
<path fill="#191818" d="M289.839,432.76h-0.003c-6.509-0.002-12.774-2.967-18.621-8.814l0.003-0.003
	c-1.23-1.161-7.862-7.882-8.437-17.594c-0.424-7.146,2.545-13.954,8.825-20.233l3.82-3.819v19.055l13.159,0.412l0.627,0.627
	c3.069,3.068,4.89,2.391,5.332,2.182l10.729-10.728l-2.715-0.741l2.483-10.551h28.531v28.654l-11.125,1.854l-0.396-1.98l-8.909,8.91
	c-0.11,0.11-0.271,0.287-0.483,0.521C305.224,428.639,297.546,432.76,289.839,432.76 M270.951,393.831
	c-2.604,3.812-3.854,7.753-3.725,11.772c0.283,8.754,6.94,14.986,7.007,15.044l0.146,0.134c4.978,4.979,10.178,7.502,15.457,7.503
	h0.002c6.401,0,12.967-3.632,19.519-10.795c0.272-0.297,0.481-0.522,0.62-0.663l14.822-14.822l1.186,5.931l3.113-0.52v-20.39
	h-20.513l-0.681,2.896l5.985,1.633l-16.595,16.566c-0.247,0.189-1.586,1.128-3.745,1.129c-2.3,0-4.599-1.031-6.845-3.068
	l-15.754-0.493V393.831z"/>
<polygon fill="#FFFFFF" points="355.129,325.905 343.389,328.614 332.553,325.905 332.553,319.584 343.389,322.293 355.129,319.584 
	"/>
<polygon fill="#FFFFFF" points="355.129,334.936 343.389,337.645 332.553,334.936 332.553,328.614 343.389,331.323 355.129,328.614 
	"/>
<polygon fill="#FFFFFF" points="271.621,324.538 264.163,323.406 260.842,316.309 257.522,323.406 250.063,324.538 255.453,330.072 
	254.105,337.867 260.842,334.186 267.579,337.867 266.232,330.072 "/>
</svg>
