<?xml version="1.0" encoding="utf-8"?>
<!-- Generator: Adobe Illustrator 16.0.0, SVG Export Plug-In . SVG Version: 6.00 Build 0)  -->
<!DOCTYPE svg PUBLIC "-//W3C//DTD SVG 1.1//EN" "http://www.w3.org/Graphics/SVG/1.1/DTD/svg11.dtd">
<svg version="1.1" id="Layer_1" xmlns="http://www.w3.org/2000/svg" xmlns:xlink="http://www.w3.org/1999/xlink" x="0px" y="0px"
	 width="215px" height="195px" viewBox="0 0 215 195" enable-background="new 0 0 215 195" xml:space="preserve">
<path fill="#1A1A19" d="M107.533,189.833l0.399-0.001l0.399,0.001"/>
<path fill="#96D5CF" d="M107.923,178.678"/>
<g opacity="0.4">
	<g>
		<g>
			<defs>
				<line id="SVGID_1_" x1="172.532" y1="180.322" x2="43.315" y2="180.322"/>
			</defs>
			<clipPath id="SVGID_2_">
				<use xlink:href="#SVGID_1_"  overflow="visible"/>
			</clipPath>
			<path clip-path="url(#SVGID_2_)" fill="#FFFFFF" d="M107.923,180.323"/>
		</g>
	</g>
</g>
<path fill="#1A1A19" d="M107.924,180.323"/>
<path fill="#96D5CF" d="M44.552,47.278v19.808l0.008,48.568c0,34.809,63.027,63.026,63.027,63.026s63.027-28.219,63.027-63.026
	l0.008-48.568V47.278H44.552z"/>
<g opacity="0.5">
	<g>
		<g>
			<defs>
				<rect id="SVGID_3_" x="108.178" y="46.922" width="60.025" height="127.574"/>
			</defs>
			<clipPath id="SVGID_4_">
				<use xlink:href="#SVGID_3_"  overflow="visible"/>
			</clipPath>
			<path clip-path="url(#SVGID_4_)" fill="#189995" d="M108.307,174.496c5.59-2.753,17.619-9.048,29.469-17.652
				c9.189-6.674,16.453-13.391,21.588-19.966c5.865-7.514,8.841-14.723,8.841-21.427V68.226V46.921H108.18v127.511
				C108.221,174.453,108.266,174.476,108.307,174.496"/>
		</g>
	</g>
</g>
<g opacity="0.4">
	<g>
		<g>
			<defs>
				<rect id="SVGID_5_" x="42.979" y="43.13" width="129.216" height="137.192"/>
			</defs>
			<clipPath id="SVGID_6_">
				<use xlink:href="#SVGID_5_"  overflow="visible"/>
			</clipPath>
			<path clip-path="url(#SVGID_6_)" fill="#FFFFFF" d="M158.398,56.927v9.011l-0.008,49.784c0,18.229-31.246,39.336-50.803,49.295
				c-19.566-9.964-50.805-31.067-50.805-49.298l-0.008-49.776v-9.016H158.398 M172.195,43.13H42.978v22.813l0.009,49.779
				c0,35.678,64.6,64.602,64.6,64.602s64.601-28.924,64.601-64.602l0.008-49.779V43.13z"/>
		</g>
	</g>
</g>
<path fill="#1A1A19" d="M172.195,30.777c0-3.458-2.803-6.263-6.262-6.263h-18.838l-39.064-10.952L70.27,24.515H49.24
	c-3.458,0-6.261,2.805-6.261,6.263V43.13v22.812l0.008,49.78c0,35.679,64.601,64.602,64.601,64.602s64.6-28.923,64.6-64.602
	l0.008-49.78v-6.282V30.777L172.195,30.777z M164.671,65.939l-0.009,49.781c0,8.39-5.03,22.043-28.996,39.445
	c-11.291,8.199-22.754,14.197-28.081,16.82c-5.288-2.602-16.619-8.527-27.885-16.683c-24.124-17.462-29.187-31.164-29.187-39.585
	l-0.009-49.779v-6.282h114.167V65.939z"/>
<polygon fill="#FFFFFF" points="98.653,51.069 98.653,36.197 95.612,39.358 93.294,36.921 99.195,30.989 102.717,30.989 
	102.717,51.069 "/>
<path fill="#FFFFFF" d="M104.703,41.044c0-5.178,2.138-10.354,7.105-10.354c4.998,0,7.104,5.178,7.104,10.354
	c0,5.148-2.076,10.388-7.104,10.388C106.84,51.432,104.703,46.192,104.703,41.044 M114.818,41.044c0-3.883-0.664-6.771-3.012-6.771
	c-2.317,0-2.979,2.89-2.979,6.771c0,3.854,0.661,6.806,2.979,6.806C114.154,47.85,114.818,44.898,114.818,41.044"/>
<path fill="#191818" d="M118.258,98.004c3.986,3.987,2.438,12-3.461,17.897s-13.911,7.446-17.898,3.461
	c-3.986-3.986-2.437-12,3.461-17.897C106.258,95.566,114.271,94.017,118.258,98.004"/>
<path fill="#FFFFFF" d="M136.582,80.08c-19.579-19.579-36.784,1.978-38.762,3.955C94.26,87.595,85.954,95.9,85.954,95.9
	l-0.791-3.955l-7.119,1.187v24.522h0.193h24.33l1.582-6.724l-4.351-1.187l13.646-13.646c0,0,3.363-2.57,8.308,2.373l13.806,0.434
	l0.635,0.021v15.821C154.123,96.813,137.172,80.544,136.582,80.08"/>
<path fill="#FFFFFF" d="M136.582,80.08c-19.579-19.579-36.784,1.978-38.762,3.955C94.26,87.595,85.954,95.9,85.954,95.9
	l-0.791-3.955l-7.119,1.187v24.522h0.193c8.183-8.184,26.646-26.646,28.946-28.945c7.713-7.713,16.81-9.295,24.522,1.384
	c2.186,3.025,3.33,6.041,3.85,8.813l0.637,0.021v15.821C154.123,96.813,137.173,80.544,136.582,80.08"/>
<path fill="#96D5CF" d="M107.183,88.709c-2.3,2.3-20.763,20.763-28.946,28.946h24.329l1.583-6.726l-4.351-1.186l13.646-13.646
	c0,0,3.361-2.57,8.307,2.373l13.807,0.435c-0.521-2.771-1.666-5.787-3.85-8.813C123.993,79.414,114.896,80.996,107.183,88.709"/>
<path fill="#191818" d="M133.953,120.146v-19.055l-13.16-0.411l-0.625-0.627c-1.563-1.562-3.063-2.387-4.34-2.387
	c-0.494,0-0.836,0.128-0.992,0.203l-10.729,10.729l2.715,0.74l-2.483,10.552H75.806V91.235l11.126-1.854l0.396,1.98l8.911-8.909
	c0.108-0.107,0.269-0.286,0.479-0.517c7.436-8.13,15.115-12.253,22.826-12.253c6.508,0,12.772,2.966,18.621,8.813l-0.004,0.003
	c1.229,1.161,7.862,7.882,8.438,17.596c0.424,7.146-2.545,13.952-8.826,20.231L133.953,120.146z M80.28,115.417h20.514l0.681-2.896
	l-5.987-1.633l16.596-16.567c0.246-0.188,1.586-1.129,3.744-1.129c2.301,0,4.6,1.032,6.846,3.068l15.754,0.492v11.857
	c2.604-3.812,3.854-7.753,3.727-11.772c-0.283-8.754-6.94-14.984-7.008-15.044L135,81.661c-4.979-4.979-10.18-7.502-15.457-7.502
	c-6.402,0-12.971,3.633-19.522,10.797c-0.271,0.296-0.478,0.521-0.618,0.661L84.58,100.438l-1.186-5.931l-3.113,0.52L80.28,115.417
	L80.28,115.417z"/>
<path fill="#FFFFFF" d="M77.789,136.363c19.579,19.579,36.784-1.979,38.762-3.955c3.561-3.561,11.865-11.866,11.865-11.866
	l0.791,3.955l7.119-1.187V98.788h-0.193l-28.945,28.946c-7.713,7.713-16.81,9.295-24.523-1.385
	c-2.184-3.024-3.329-6.041-3.849-8.813l-0.636-0.021v-15.82C60.247,119.632,77.197,135.899,77.789,136.363"/>
<path fill="#FFFFFF" d="M136.133,98.788h-24.328l-1.582,6.724l4.351,1.188l-13.646,13.645c0,0-3.362,2.571-8.306-2.373
	l-13.805-0.433l-0.636-0.02v-15.821c-17.933,17.934-0.981,34.202-0.391,34.666c19.579,19.579,36.784-1.979,38.762-3.955
	c3.561-3.562,11.865-11.866,11.865-11.866l0.791,3.955l7.119-1.187V98.789L136.133,98.788L136.133,98.788z"/>
<path fill="#96D5CF" d="M107.188,127.734l28.945-28.946h-24.328l-1.584,6.725l4.352,1.187l-13.646,13.646
	c0,0-3.362,2.57-8.306-2.373l-13.806-0.434c0.52,2.771,1.665,5.787,3.849,8.813C90.377,137.029,99.474,135.447,107.188,127.734"/>
<path fill="#191818" d="M94.83,146.76h-0.003c-6.509-0.002-12.774-2.967-18.621-8.813l0.003-0.003
	c-1.229-1.161-7.861-7.883-8.437-17.595c-0.423-7.146,2.546-13.954,8.825-20.232l3.82-3.819v19.055l13.159,0.412l0.627,0.627
	c3.067,3.065,4.89,2.394,5.332,2.183l10.729-10.729l-2.715-0.74l2.483-10.552h28.532v28.654l-11.127,1.854l-0.396-1.979l-8.909,8.91
	c-0.108,0.109-0.271,0.287-0.481,0.52C110.216,142.638,102.538,146.76,94.83,146.76 M75.942,107.831
	c-2.604,3.812-3.854,7.753-3.725,11.771c0.283,8.755,6.94,14.986,7.007,15.045l0.146,0.134c4.978,4.979,10.178,7.502,15.458,7.503
	h0.002c6.4,0,12.967-3.632,19.52-10.796c0.271-0.297,0.479-0.521,0.618-0.662l14.822-14.822l1.187,5.931l3.112-0.52v-20.39h-20.513
	l-0.682,2.896l5.985,1.633l-16.595,16.566c-0.247,0.188-1.585,1.128-3.744,1.129c-2.301,0-4.6-1.031-6.846-3.068l-15.754-0.492
	L75.942,107.831L75.942,107.831z"/>
<polygon fill="#96D5CF" points="76.693,39.379 64.954,42.088 54.117,39.379 54.117,33.058 64.954,35.767 76.693,33.058 "/>
<polygon fill="#96D5CF" points="76.693,48.409 64.954,51.118 54.117,48.409 54.117,42.089 64.954,44.798 76.693,42.089 "/>
<polygon fill="#96D5CF" points="161.059,39.379 149.316,42.088 138.48,39.379 138.48,33.058 149.316,35.767 161.059,33.058 "/>
<polygon fill="#96D5CF" points="161.059,48.409 149.316,51.118 138.48,48.409 138.48,42.089 149.316,44.798 161.059,42.089 "/>
</svg>
