<?xml version="1.0" encoding="utf-8"?>
<!-- Generator: Adobe Illustrator 16.0.0, SVG Export Plug-In . SVG Version: 6.00 Build 0)  -->
<!DOCTYPE svg PUBLIC "-//W3C//DTD SVG 1.1//EN" "http://www.w3.org/Graphics/SVG/1.1/DTD/svg11.dtd">
<svg version="1.1" id="Layer_1" xmlns="http://www.w3.org/2000/svg" xmlns:xlink="http://www.w3.org/1999/xlink" x="0px" y="0px"
	 width="612px" height="792px" viewBox="0 0 612 792" enable-background="new 0 0 612 792" xml:space="preserve">
<path fill="none" d="M346.63,60"/>
<path fill="none" d="M346.63,3305.597"/>
<path fill="#1A1A19" d="M323.57,458.185c-10.386,6.446-19.062,10.538-20.966,11.416c-1.905-0.878-10.58-4.97-20.967-11.416v0.492
	c-0.003-0.002,0.004-0.005,0-0.007v15.051c11.415,7.014,20.568,11.112,20.568,11.112l0.399-0.001l0.399,0.001
	c0,0,9.152-4.099,20.566-11.112V458.67c-0.004,0.002,0.004,0.005,0,0.007V458.185z"/>
<path fill="#1A1A19" d="M278.322,457.048c-9.748-6.171-20.759-14.313-29.014-23.745v15.051c8.118,9.569,19.145,17.858,29.014,24.17
	v-15.051c-0.004-0.002,0.003-0.005,0-0.007V457.048z"/>
<path fill="#1A1A19" d="M326.887,457.048v0.418c-0.004,0.002,0.004,0.005,0,0.007v15.051c9.869-6.312,20.896-14.601,29.015-24.17
	v-15.051C347.645,442.734,336.635,450.877,326.887,457.048"/>
<path fill="#010101" d="M226.83,434.794c0.916-0.019,1.783-0.027,2.638,0.014c-3.211-4.571-2.291-10.164-4.059-15.119l0.018-0.219
	c5.329,2.008,8.124,6.701,10.73,11.657c1.861,3.592,3.684,7.273,6.339,9.994c-1.109,0.079-2.153,0.229-3.234,0.388
	c-1.122,0.163-2.276,0.386-3.436,0.691c-2.306,0.136-4.581,0.238-6.732,0.167c-4.034-0.171-7.794-0.854-11.036-2.606
	c-1.502-0.797-2.902-1.849-4.131-3.16c0.949-0.154,1.992-0.342,3.028-0.524C220.22,435.521,223.653,434.951,226.83,434.794"/>
<path fill="#010101" d="M216.774,417.247c1.062,1.399,2.535,2.593,3.517,4.192c0.274,0.794,0.6,1.55,0.922,2.329
	c0.784,2.099,1.378,4.127,0.792,5.831c-2.665-1.042-5.366-2.283-7.721-4.483c-1.341-1.616-2.338-3.36-3.035-5.244
	c-1.109-2.954-1.454-6.194-1.076-9.59c0.008-0.113,0.033-0.178,0.025-0.252l0.3-0.285c0.113,0.265,0.263,0.539,0.409,0.824
	C212.333,413.168,214.419,415.047,216.774,417.247"/>
<path fill="#010101" d="M376.954,434.794c-0.916-0.019-1.783-0.027-2.639,0.014c3.212-4.571,2.29-10.164,4.059-15.119l-0.018-0.219
	c-5.329,2.008-8.124,6.701-10.73,11.657c-1.861,3.592-3.684,7.273-6.339,9.994c1.108,0.079,2.152,0.229,3.233,0.388
	c1.122,0.163,2.275,0.386,3.436,0.691c2.306,0.136,4.581,0.238,6.731,0.167c4.035-0.171,7.795-0.854,11.037-2.606
	c1.502-0.797,2.902-1.849,4.131-3.16c-0.949-0.154-1.992-0.342-3.027-0.524C383.563,435.521,380.13,434.951,376.954,434.794"/>
<path fill="#010101" d="M388.435,417.247c-1.062,1.399-2.535,2.593-3.517,4.192c-0.274,0.794-0.6,1.55-0.922,2.329
	c-0.784,2.099-1.379,4.127-0.791,5.831c2.664-1.042,5.364-2.283,7.72-4.483c1.341-1.616,2.338-3.36,3.035-5.244
	c1.11-2.954,1.454-6.194,1.075-9.59c-0.008-0.113-0.032-0.178-0.024-0.252l-0.3-0.285c-0.113,0.265-0.264,0.539-0.409,0.824
	C392.876,413.168,390.79,415.047,388.435,417.247"/>
<path fill="#95D5CF" d="M239.92,333.644v19.698l0.008,48.298c0,34.615,62.677,62.677,62.677,62.677s62.677-28.062,62.677-62.677
	l0.008-48.298v-19.698H239.92z"/>
<g opacity="0.5">
	<g>
		<defs>
			<rect id="SVGID_1_" x="303.2" y="332.922" width="60.02" height="127.574"/>
		</defs>
		<clipPath id="SVGID_2_">
			<use xlink:href="#SVGID_1_"  overflow="visible"/>
		</clipPath>
		<path clip-path="url(#SVGID_2_)" fill="#189995" d="M303.324,460.496c5.59-2.753,17.619-9.048,29.467-17.652
			c9.19-6.674,16.455-13.391,21.589-19.966c5.866-7.514,8.841-14.723,8.841-21.427v-47.225v-21.305h-60.025v127.511
			C303.237,460.453,303.283,460.476,303.324,460.496"/>
	</g>
</g>
<g opacity="0.4">
	<g>
		<defs>
			<rect id="SVGID_3_" x="238" y="329.13" width="129.21" height="137.192"/>
		</defs>
		<clipPath id="SVGID_4_">
			<use xlink:href="#SVGID_3_"  overflow="visible"/>
		</clipPath>
		<path clip-path="url(#SVGID_4_)" fill="#FFFFFF" d="M353.416,342.927v9.011l-0.008,49.784c0,18.215-31.2,39.306-50.76,49.273
			c-5.696-2.924-14.985-8.061-24.254-14.771c-17.149-12.413-26.594-24.667-26.594-34.506l-0.008-49.777v-9.015H353.416
			 M367.213,329.13H237.995v22.812l0.009,49.78c0,35.677,64.601,64.601,64.601,64.601s64.601-28.924,64.601-64.601l0.008-49.78
			V329.13z"/>
	</g>
</g>
<path fill="#1A1A19" d="M367.213,316.777c0-3.458-2.803-6.262-6.261-6.262h-18.839l-39.064-10.953l-37.761,10.953h-21.031
	c-3.458,0-6.261,2.804-6.261,6.262v12.353v22.811l0.008,49.781c0,35.678,64.601,64.601,64.601,64.601s64.6-28.923,64.6-64.601
	l0.008-49.781v-6.282V316.777z M359.688,351.939l-0.008,49.782c0,8.389-5.031,22.043-28.997,39.445
	c-11.291,8.199-22.754,14.197-28.081,16.82c-5.288-2.601-16.619-8.527-27.885-16.682c-24.124-17.462-29.187-31.164-29.187-39.585
	l-0.009-49.78v-6.282h114.167V351.939z"/>
<path fill="#FFFFFF" d="M278.544,334.271l2.438-2.59c1.054,1.385,2.469,2.168,4.185,2.168c1.927,0,3.041-1.475,3.041-3.161
	c0-1.986-1.054-3.16-2.86-3.16c-1.354,0-2.379,0.48-3.312,1.655l-2.92-0.783V316.99h12.042v3.552h-8.008v5.148
	c0.783-0.964,2.138-1.655,3.673-1.655c3.041,0,5.479,2.378,5.479,6.533c0,4.032-2.739,6.862-7.014,6.862
	C282.187,337.431,280.049,336.288,278.544,334.271"/>
<path fill="#FFFFFF" d="M294.226,327.045c0-5.179,2.138-10.355,7.105-10.355c4.998,0,7.105,5.177,7.105,10.355
	c0,5.147-2.077,10.387-7.105,10.387C296.364,337.432,294.226,332.192,294.226,327.045 M304.342,327.045
	c0-3.884-0.663-6.773-3.011-6.773c-2.318,0-2.98,2.89-2.98,6.773c0,3.854,0.662,6.805,2.98,6.805
	C303.679,333.85,304.342,330.899,304.342,327.045"/>
<path fill="#FFFFFF" d="M310.391,327.045c0-5.179,2.138-10.355,7.104-10.355c4.998,0,7.105,5.177,7.105,10.355
	c0,5.147-2.077,10.387-7.105,10.387C312.528,337.432,310.391,332.192,310.391,327.045 M320.506,327.045
	c0-3.884-0.662-6.773-3.011-6.773c-2.317,0-2.979,2.89-2.979,6.773c0,3.854,0.662,6.805,2.979,6.805
	C319.844,333.85,320.506,330.899,320.506,327.045"/>
<path fill="#191818" d="M313.275,384.004c3.986,3.987,2.437,12-3.462,17.897c-5.897,5.898-13.911,7.447-17.897,3.461
	c-3.986-3.986-2.438-12,3.461-17.897C301.275,381.566,309.288,380.017,313.275,384.004"/>
<path fill="#FFFFFF" d="M331.599,366.08c-19.579-19.579-36.784,1.978-38.762,3.955c-3.56,3.56-11.866,11.865-11.866,11.865
	l-0.791-3.955l-7.119,1.187v24.522h0.193h24.33l1.582-6.723l-4.352-1.187l13.646-13.646c0,0,3.361-2.571,8.306,2.373l13.806,0.433
	l0.636,0.021v15.821C349.141,382.812,332.189,366.544,331.599,366.08"/>
<path fill="#FFFFFF" d="M331.599,366.08c-19.579-19.579-36.784,1.978-38.762,3.955c-3.56,3.56-11.866,11.865-11.866,11.865
	l-0.791-3.955l-7.119,1.187v24.522h0.193c8.183-8.183,26.646-26.646,28.946-28.945c7.713-7.713,16.81-9.295,24.523,1.384
	c2.184,3.025,3.329,6.041,3.85,8.812l0.636,0.021v15.821C349.141,382.812,332.189,366.544,331.599,366.08"/>
<path fill="#95D5CF" d="M302.2,374.709c-2.3,2.3-20.763,20.763-28.946,28.946h24.329l1.582-6.725l-4.35-1.186l13.645-13.646
	c0,0,3.362-2.571,8.306,2.373l13.807,0.434c-0.521-2.771-1.665-5.787-3.85-8.813C319.01,365.414,309.913,366.996,302.2,374.709"/>
<path fill="#191818" d="M328.97,406.146v-19.054l-13.159-0.411l-0.626-0.627c-1.561-1.562-3.061-2.387-4.339-2.387
	c-0.494,0-0.836,0.128-0.993,0.203l-10.729,10.729l2.716,0.74l-2.484,10.552h-28.532v-28.656l11.126-1.854l0.396,1.98l8.91-8.909
	c0.108-0.107,0.269-0.286,0.479-0.516c7.436-8.13,15.115-12.253,22.825-12.253c6.508,0,12.773,2.965,18.621,8.813l-0.003,0.003
	c1.23,1.162,7.859,7.877,8.438,17.59c0.425,7.147-2.545,13.956-8.825,20.237L328.97,406.146z M275.298,401.417h20.513l0.682-2.896
	l-5.987-1.632l16.596-16.568c0.246-0.188,1.585-1.129,3.744-1.129c2.301,0,4.6,1.033,6.845,3.069l15.755,0.492v11.857
	c2.604-3.812,3.854-7.754,3.725-11.774c-0.283-8.754-6.94-14.982-7.007-15.042l-0.146-0.134c-4.979-4.978-10.179-7.502-15.457-7.502
	c-6.401,0-12.97,3.633-19.523,10.797c-0.27,0.296-0.478,0.522-0.617,0.661l-14.822,14.821l-1.187-5.93l-3.113,0.519V401.417z"/>
<path fill="#FFFFFF" d="M272.806,422.363c19.579,19.579,36.784-1.978,38.762-3.955c3.56-3.56,11.866-11.866,11.866-11.866
	l0.791,3.955l7.119-1.186v-24.523h-0.193c-8.183,8.184-26.646,26.646-28.946,28.946c-7.713,7.713-16.81,9.295-24.523-1.384
	c-2.185-3.025-3.329-6.041-3.849-8.813l-0.636-0.02v-15.821C255.264,405.632,272.215,421.899,272.806,422.363"/>
<path fill="#FFFFFF" d="M331.15,384.788h-24.33l-1.582,6.724l4.352,1.188l-13.646,13.645c0,0-3.362,2.571-8.306-2.373l-13.805-0.433
	l-0.636-0.019v-15.822c-17.933,17.934-0.981,34.202-0.391,34.666c19.579,19.579,36.784-1.978,38.762-3.955
	c3.56-3.561,11.866-11.866,11.866-11.866l0.791,3.955l7.119-1.186v-24.523H331.15z"/>
<path fill="#95D5CF" d="M302.204,413.734c2.3-2.3,20.763-20.763,28.946-28.946h-24.329l-1.582,6.725l4.35,1.186l-13.645,13.646
	c0,0-3.362,2.57-8.306-2.373l-13.806-0.434c0.521,2.771,1.665,5.787,3.849,8.813C285.395,423.029,294.491,421.447,302.204,413.734"
	/>
<path fill="#191818" d="M289.848,432.76h-0.003c-6.509-0.002-12.774-2.967-18.621-8.814l0.003-0.003
	c-1.232-1.163-7.859-7.878-8.438-17.59c-0.425-7.147,2.545-13.956,8.825-20.237l3.82-3.819v19.055l13.159,0.412l0.626,0.627
	c3.068,3.065,4.891,2.393,5.332,2.182l10.73-10.728l-2.716-0.741l2.483-10.551h28.533v28.654l-11.126,1.854l-0.396-1.98l-8.91,8.91
	c-0.109,0.11-0.271,0.287-0.482,0.52C305.233,428.638,297.556,432.76,289.848,432.76 M270.959,393.831
	c-2.605,3.813-3.855,7.754-3.725,11.774c0.283,8.754,6.94,14.984,7.007,15.042l0.146,0.134c4.978,4.979,10.178,7.502,15.457,7.503
	h0.002c6.4,0,12.967-3.632,19.519-10.796c0.272-0.297,0.48-0.521,0.62-0.662l14.821-14.822l1.187,5.931l3.113-0.52v-20.39h-20.515
	l-0.681,2.896l5.987,1.633l-16.596,16.566c-0.246,0.189-1.585,1.128-3.744,1.129c-2.3,0-4.599-1.031-6.845-3.068l-15.754-0.493
	V393.831z"/>
<polygon fill="#FFFFFF" points="273.55,324.538 266.092,323.406 262.771,316.309 259.451,323.406 251.992,324.538 257.382,330.072 
	256.034,337.867 262.771,334.186 269.508,337.867 268.161,330.072 "/>
<polygon fill="#FFFFFF" points="353.217,324.538 345.759,323.406 342.438,316.309 339.117,323.406 331.658,324.538 337.049,330.072 
	335.701,337.867 342.438,334.186 349.175,337.867 347.828,330.072 "/>
</svg>
