<?xml version="1.0" encoding="utf-8"?>
<!-- Generator: Adobe Illustrator 16.0.0, SVG Export Plug-In . SVG Version: 6.00 Build 0)  -->
<!DOCTYPE svg PUBLIC "-//W3C//DTD SVG 1.1//EN" "http://www.w3.org/Graphics/SVG/1.1/DTD/svg11.dtd">
<svg version="1.1" id="Layer_1" xmlns="http://www.w3.org/2000/svg" xmlns:xlink="http://www.w3.org/1999/xlink" x="0px" y="0px"
	 width="612px" height="792px" viewBox="0 0 612 792" enable-background="new 0 0 612 792" xml:space="preserve">
<path fill="none" d="M346.63,60"/>
<path fill="none" d="M346.63,3305.597"/>
<path fill="#95D5CF" d="M239.891,343.281v19.807l0.008,48.566c0,34.807,63.024,63.024,63.024,63.024s63.025-28.218,63.025-63.024
	l0.008-48.566v-19.807H239.891z"/>
<g opacity="0.5">
	<g>
		<defs>
			<rect id="SVGID_1_" x="303.514" y="342.922" width="60.026" height="127.574"/>
		</defs>
		<clipPath id="SVGID_2_">
			<use xlink:href="#SVGID_1_"  overflow="visible"/>
		</clipPath>
		<path clip-path="url(#SVGID_2_)" fill="#189995" d="M303.643,470.496c5.59-2.753,17.619-9.048,29.468-17.652
			c9.191-6.674,16.454-13.391,21.589-19.966c5.865-7.514,8.84-14.723,8.84-21.427v-47.225v-21.305h-60.024v127.511
			C303.557,470.453,303.602,470.476,303.643,470.496"/>
	</g>
</g>
<g opacity="0.4">
	<g>
		<defs>
			<rect id="SVGID_3_" x="238.315" y="339.13" width="129.217" height="137.192"/>
		</defs>
		<clipPath id="SVGID_4_">
			<use xlink:href="#SVGID_3_"  overflow="visible"/>
		</clipPath>
		<path clip-path="url(#SVGID_4_)" fill="#FFFFFF" d="M353.735,352.927v9.011l-0.009,49.784c0,18.229-31.245,39.336-50.802,49.295
			c-19.566-9.964-50.805-31.068-50.805-49.298l-0.008-49.777v-9.015H353.735 M367.532,339.13H238.314v22.812l0.009,49.78
			c0,35.677,64.6,64.601,64.6,64.601s64.601-28.924,64.601-64.601l0.008-49.78V339.13z"/>
	</g>
</g>
<path fill="#1A1A19" d="M367.532,326.777c0-3.458-2.804-6.262-6.261-6.262h-18.838l-39.065-10.953l-37.761,10.953h-21.031
	c-3.458,0-6.261,2.804-6.261,6.262v12.353v22.811l0.008,49.781c0,35.678,64.601,64.601,64.601,64.601s64.6-28.923,64.6-64.601
	l0.009-49.781v-6.282V326.777z M360.007,361.939l-0.008,49.782c0,8.389-5.031,22.043-28.997,39.445
	c-11.291,8.199-22.754,14.197-28.081,16.82c-5.288-2.601-16.619-8.527-27.885-16.682c-24.124-17.462-29.187-31.164-29.187-39.585
	l-0.009-49.78v-6.282h114.167V361.939z"/>
<path fill="#FFFFFF" d="M287.743,347.069v-3.252c7.346-7.135,8.881-8.729,8.881-11.018c0-1.536-1.174-2.529-2.679-2.529
	c-1.776,0-3.191,0.813-4.275,2.258L287.262,330c1.625-2.167,4.003-3.313,6.743-3.313c3.884,0,6.714,2.35,6.714,6.082
	c0,3.04-2.048,5.63-7.015,10.747h7.105v3.553H287.743z"/>
<path fill="#FFFFFF" d="M302.493,344.27l2.438-2.589c1.054,1.385,2.47,2.168,4.185,2.168c1.928,0,3.041-1.475,3.041-3.162
	c0-1.985-1.054-3.16-2.859-3.16c-1.355,0-2.379,0.481-3.312,1.655l-2.92-0.782V326.99h12.042v3.551h-8.009v5.148
	c0.783-0.964,2.138-1.654,3.673-1.654c3.04,0,5.479,2.378,5.479,6.531c0,4.034-2.739,6.864-7.015,6.864
	C306.136,347.431,303.998,346.287,302.493,344.27"/>
<path fill="#191818" d="M313.594,394.004c3.987,3.987,2.438,12-3.461,17.897c-5.898,5.898-13.911,7.447-17.898,3.461
	c-3.986-3.986-2.437-12,3.461-17.897C301.594,391.566,309.607,390.017,313.594,394.004"/>
<path fill="#FFFFFF" d="M331.918,376.08c-19.579-19.579-36.784,1.978-38.762,3.955c-3.56,3.56-11.866,11.865-11.866,11.865
	l-0.791-3.955l-7.119,1.187v24.522h0.193h24.33l1.582-6.723l-4.351-1.187l13.646-13.646c0,0,3.362-2.571,8.307,2.373l13.805,0.433
	l0.637,0.021v15.821C349.46,392.812,332.509,376.544,331.918,376.08"/>
<path fill="#FFFFFF" d="M331.918,376.08c-19.579-19.579-36.784,1.978-38.762,3.955c-3.56,3.56-11.866,11.865-11.866,11.865
	l-0.791-3.955l-7.119,1.187v24.522h0.193c8.183-8.183,26.646-26.646,28.946-28.945c7.713-7.713,16.81-9.295,24.523,1.384
	c2.185,3.025,3.329,6.041,3.849,8.812l0.637,0.021v15.821C349.46,392.812,332.508,376.544,331.918,376.08"/>
<path fill="#95D5CF" d="M302.519,384.709c-2.3,2.3-20.763,20.763-28.946,28.946h24.329l1.582-6.725l-4.35-1.186l13.645-13.646
	c0,0,3.361-2.571,8.306,2.373l13.806,0.434c-0.52-2.771-1.664-5.787-3.849-8.813C319.329,375.414,310.232,376.996,302.519,384.709"
	/>
<path fill="#191818" d="M329.29,416.146v-19.054l-13.16-0.411l-0.626-0.627c-1.561-1.562-3.061-2.387-4.339-2.387
	c-0.494,0-0.837,0.128-0.993,0.203l-10.73,10.729l2.716,0.74l-2.483,10.552h-28.533v-28.656l11.126-1.854l0.396,1.98l8.91-8.909
	c0.108-0.107,0.269-0.286,0.48-0.516c7.435-8.13,15.115-12.253,22.825-12.253c6.508,0,12.773,2.965,18.621,8.813l-0.004,0.003
	c1.23,1.161,7.863,7.882,8.438,17.596c0.424,7.145-2.546,13.952-8.824,20.231L329.29,416.146z M275.617,411.417h20.514l0.681-2.896
	l-5.987-1.632l16.596-16.568c0.246-0.188,1.585-1.129,3.744-1.129c2.301,0,4.599,1.033,6.845,3.069l15.754,0.492v11.857
	c2.605-3.811,3.855-7.753,3.725-11.772c-0.281-8.754-6.938-14.984-7.006-15.044l-0.146-0.134
	c-4.979-4.978-10.178-7.502-15.457-7.502c-6.402,0-12.97,3.633-19.523,10.797c-0.27,0.296-0.478,0.522-0.617,0.661l-14.823,14.821
	l-1.186-5.93l-3.113,0.519V411.417z"/>
<path fill="#FFFFFF" d="M273.125,432.363c19.579,19.579,36.784-1.978,38.762-3.955c3.56-3.56,11.865-11.866,11.865-11.866
	l0.791,3.955l7.119-1.186v-24.523h-0.192l-28.946,28.946c-7.713,7.713-16.81,9.295-24.523-1.384
	c-2.184-3.025-3.329-6.041-3.849-8.813l-0.636-0.02v-15.821C255.583,415.632,272.535,431.899,273.125,432.363"/>
<path fill="#FFFFFF" d="M331.47,394.788h-24.33l-1.582,6.724l4.351,1.188l-13.646,13.645c0,0-3.362,2.571-8.306-2.373l-13.805-0.433
	l-0.636-0.019v-15.822c-17.934,17.934-0.982,34.202-0.391,34.666c19.579,19.579,36.784-1.978,38.762-3.955
	c3.561-3.561,11.866-11.866,11.866-11.866l0.791,3.955l7.118-1.186v-24.523H331.47z"/>
<path fill="#95D5CF" d="M302.523,423.734l28.945-28.946h-24.328l-1.583,6.725l4.351,1.186l-13.645,13.646
	c0,0-3.362,2.57-8.306-2.373l-13.806-0.434c0.52,2.771,1.665,5.787,3.849,8.813C285.713,433.029,294.811,431.447,302.523,423.734"/>
<path fill="#191818" d="M290.167,442.76h-0.003c-6.509-0.002-12.774-2.967-18.621-8.814l0.003-0.003
	c-1.23-1.161-7.862-7.882-8.437-17.594c-0.424-7.146,2.545-13.954,8.825-20.233l3.82-3.819v19.055l13.159,0.412l0.627,0.627
	c3.069,3.068,4.89,2.391,5.332,2.182l10.729-10.728l-2.716-0.741l2.484-10.551H333.9v28.654l-11.126,1.854l-0.396-1.98l-8.91,8.91
	c-0.109,0.11-0.271,0.287-0.482,0.52C305.552,438.638,297.875,442.76,290.167,442.76 M271.278,403.831
	c-2.604,3.812-3.854,7.753-3.725,11.772c0.283,8.754,6.94,14.986,7.007,15.044l0.146,0.134c4.978,4.979,10.178,7.502,15.457,7.503
	h0.002c6.401,0,12.967-3.632,19.519-10.796c0.272-0.297,0.479-0.521,0.62-0.662l14.822-14.822l1.186,5.931l3.113-0.52v-20.39
	h-20.514l-0.682,2.896l5.986,1.633l-16.594,16.566c-0.247,0.189-1.586,1.128-3.745,1.129c-2.3,0-4.599-1.031-6.845-3.068
	l-15.754-0.493V403.831z"/>
<polygon fill="#95D5CF" points="272.03,335.379 260.29,338.088 249.454,335.379 249.454,329.058 260.29,331.767 272.03,329.058 "/>
<polygon fill="#95D5CF" points="272.03,344.409 260.29,347.118 249.454,344.409 249.454,338.089 260.29,340.798 272.03,338.089 "/>
<polygon fill="#FFFFFF" points="356.395,335.379 344.654,338.088 333.818,335.379 333.818,329.058 344.654,331.767 356.395,329.058 
	"/>
<polygon fill="#FFFFFF" points="356.395,344.409 344.654,347.118 333.818,344.409 333.818,338.089 344.654,340.798 356.395,338.089 
	"/>
</svg>
