<?xml version="1.0" encoding="utf-8"?>
<!-- Generator: Adobe Illustrator 16.0.0, SVG Export Plug-In . SVG Version: 6.00 Build 0)  -->
<!DOCTYPE svg PUBLIC "-//W3C//DTD SVG 1.1//EN" "http://www.w3.org/Graphics/SVG/1.1/DTD/svg11.dtd">
<svg version="1.1" id="Layer_1" xmlns="http://www.w3.org/2000/svg" xmlns:xlink="http://www.w3.org/1999/xlink" x="0px" y="0px"
	 width="215px" height="195px" viewBox="0 0 215 195" enable-background="new 0 0 215 195" xml:space="preserve">
<path fill="#1A1A19" d="M107.533,189.833l0.399-0.001l0.399,0.001"/>
<path fill="#96D5CF" d="M44.546,47.623v19.704l0.008,48.313c0,34.626,62.697,62.697,62.697,62.697s62.697-28.071,62.697-62.697
	l0.009-48.313V47.623H44.546z"/>
<g opacity="0.5">
	<g>
		<g>
			<defs>
				<rect id="SVGID_1_" x="107.842" y="46.922" width="60.025" height="127.574"/>
			</defs>
			<clipPath id="SVGID_2_">
				<use xlink:href="#SVGID_1_"  overflow="visible"/>
			</clipPath>
			<path clip-path="url(#SVGID_2_)" fill="#189995" d="M107.971,174.496c5.59-2.753,17.619-9.048,29.467-17.652
				c9.19-6.674,16.455-13.391,21.588-19.966c5.867-7.514,8.842-14.723,8.842-21.427V68.226V46.921h-60.025v127.511
				C107.884,174.453,107.93,174.476,107.971,174.496"/>
		</g>
	</g>
</g>
<g opacity="0.4">
	<g>
		<g>
			<defs>
				<rect id="SVGID_3_" x="42.642" y="43.13" width="129.217" height="137.192"/>
			</defs>
			<clipPath id="SVGID_4_">
				<use xlink:href="#SVGID_3_"  overflow="visible"/>
			</clipPath>
			<path clip-path="url(#SVGID_4_)" fill="#FFFFFF" d="M158.063,56.927v9.011l-0.008,49.784c0,18.229-31.246,39.336-50.803,49.295
				c-19.566-9.964-50.805-31.067-50.805-49.298l-0.008-49.776v-9.016H158.063 M171.859,43.13H42.642v22.813l0.009,49.779
				c0,35.678,64.6,64.602,64.6,64.602s64.601-28.924,64.601-64.602l0.008-49.779V43.13L171.859,43.13z"/>
		</g>
	</g>
</g>
<path fill="#1A1A19" d="M171.859,30.777c0-3.458-2.803-6.263-6.262-6.263H146.76l-39.064-10.952L69.934,24.515H48.903
	c-3.458,0-6.261,2.805-6.261,6.263V43.13v22.812l0.008,49.78c0,35.679,64.601,64.602,64.601,64.602s64.601-28.923,64.601-64.602
	l0.008-49.78v-6.282V30.777z M164.334,65.939l-0.008,49.781c0,8.39-5.031,22.043-28.996,39.445
	c-11.291,8.199-22.754,14.197-28.082,16.82c-5.288-2.602-16.619-8.527-27.885-16.683c-24.124-17.462-29.187-31.164-29.187-39.585
	l-0.009-49.779v-6.282h114.167V65.939z"/>
<path fill="#FFFFFF" d="M99.355,48.27l2.438-2.589c1.054,1.386,2.469,2.168,4.185,2.168c1.926,0,3.042-1.475,3.042-3.161
	c0-1.985-1.055-3.16-2.859-3.16c-1.355,0-2.379,0.48-3.312,1.654l-2.92-0.781V30.99h12.042v3.551h-8.008v5.148
	c0.783-0.965,2.137-1.654,3.673-1.654c3.04,0,5.479,2.378,5.479,6.531c0,4.033-2.738,6.863-7.014,6.863
	C102.998,51.431,100.86,50.287,99.355,48.27"/>
<path fill="#191818" d="M117.922,98.004c3.986,3.987,2.438,12-3.461,17.897s-13.912,7.446-17.898,3.461
	c-3.986-3.986-2.437-12,3.461-17.897C105.921,95.566,113.936,94.017,117.922,98.004"/>
<path fill="#FFFFFF" d="M136.246,80.08c-19.58-19.579-36.785,1.978-38.763,3.955C93.923,87.595,85.617,95.9,85.617,95.9
	l-0.791-3.955l-7.119,1.187v24.522H77.9h24.33l1.582-6.724l-4.351-1.187l13.646-13.646c0,0,3.361-2.57,8.307,2.373l13.805,0.434
	l0.637,0.021v15.821C153.787,96.813,136.836,80.544,136.246,80.08"/>
<path fill="#FFFFFF" d="M136.246,80.08c-19.58-19.579-36.785,1.978-38.763,3.955C93.923,87.595,85.617,95.9,85.617,95.9
	l-0.791-3.955l-7.119,1.187v24.522H77.9c8.183-8.184,26.646-26.646,28.946-28.945c7.712-7.713,16.81-9.295,24.522,1.384
	c2.185,3.025,3.329,6.041,3.85,8.813l0.636,0.021v15.821C153.787,96.813,136.836,80.544,136.246,80.08"/>
<path fill="#96D5CF" d="M106.847,88.709c-2.3,2.3-20.763,20.763-28.946,28.946h24.329l1.582-6.726l-4.35-1.186l13.646-13.646
	c0,0,3.361-2.57,8.306,2.373l13.808,0.435c-0.521-2.771-1.666-5.787-3.851-8.813C123.656,79.414,114.561,80.996,106.847,88.709"/>
<path fill="#191818" d="M133.617,120.146v-19.055l-13.16-0.411l-0.625-0.627c-1.563-1.562-3.063-2.387-4.34-2.387
	c-0.494,0-0.836,0.128-0.992,0.203l-10.73,10.729l2.716,0.74l-2.483,10.552H75.47V91.235l11.126-1.854l0.396,1.98l8.91-8.909
	c0.108-0.107,0.269-0.286,0.48-0.517c7.435-8.13,15.115-12.253,22.826-12.253c6.508,0,12.772,2.966,18.621,8.813l-0.004,0.003
	c1.229,1.161,7.862,7.882,8.438,17.596c0.424,7.146-2.548,13.952-8.826,20.231L133.617,120.146z M79.944,115.417h20.514l0.681-2.896
	l-5.987-1.633l16.596-16.567c0.246-0.188,1.586-1.129,3.744-1.129c2.301,0,4.6,1.032,6.846,3.068l15.754,0.492v11.857
	c2.604-3.812,3.854-7.753,3.725-11.772c-0.28-8.754-6.938-14.984-7.006-15.044l-0.146-0.134c-4.979-4.979-10.18-7.502-15.457-7.502
	c-6.402,0-12.971,3.633-19.523,10.797c-0.27,0.296-0.478,0.521-0.617,0.661l-14.823,14.821l-1.186-5.931l-3.113,0.52L79.944,115.417
	L79.944,115.417z"/>
<path fill="#FFFFFF" d="M77.452,136.363c19.579,19.579,36.784-1.979,38.763-3.955c3.561-3.561,11.865-11.866,11.865-11.866
	l0.791,3.955l7.119-1.187V98.788h-0.193l-28.946,28.946c-7.713,7.713-16.81,9.295-24.523-1.385
	c-2.184-3.024-3.329-6.041-3.849-8.813l-0.636-0.021v-15.82C59.91,119.632,76.862,135.899,77.452,136.363"/>
<path fill="#FFFFFF" d="M135.797,98.788h-24.33l-1.582,6.724l4.352,1.188l-13.646,13.645c0,0-3.362,2.571-8.306-2.373l-13.805-0.433
	l-0.636-0.02v-15.821c-17.934,17.934-0.982,34.202-0.391,34.666c19.579,19.579,36.783-1.979,38.763-3.955
	c3.56-3.562,11.865-11.866,11.865-11.866l0.791,3.955l7.119-1.187V98.789L135.797,98.788L135.797,98.788z"/>
<path fill="#96D5CF" d="M106.851,127.734l28.946-28.946h-24.329l-1.582,6.725l4.351,1.187l-13.646,13.646
	c0,0-3.362,2.57-8.306-2.373l-13.806-0.434c0.52,2.771,1.665,5.787,3.849,8.813C90.041,137.029,99.138,135.447,106.851,127.734"/>
<path fill="#191818" d="M94.494,146.76h-0.003c-6.509-0.002-12.774-2.967-18.621-8.813l0.003-0.003
	c-1.23-1.161-7.862-7.883-8.437-17.595c-0.424-7.146,2.545-13.954,8.825-20.232l3.82-3.819v19.055l13.159,0.412l0.627,0.627
	c3.069,3.068,4.89,2.392,5.332,2.183l10.729-10.729l-2.716-0.74l2.483-10.552h28.533v28.654l-11.127,1.854l-0.396-1.979l-8.91,8.91
	c-0.107,0.109-0.271,0.287-0.48,0.52C109.88,142.638,102.202,146.76,94.494,146.76 M75.606,107.831
	c-2.604,3.812-3.854,7.753-3.725,11.771c0.283,8.755,6.94,14.986,7.007,15.045l0.146,0.134c4.978,4.979,10.178,7.502,15.457,7.503
	h0.003c6.4,0,12.966-3.632,19.518-10.796c0.272-0.297,0.48-0.521,0.621-0.662l14.821-14.822l1.187,5.931l3.112-0.52v-20.39H113.24
	l-0.682,2.896l5.985,1.633l-16.595,16.566c-0.247,0.188-1.586,1.128-3.745,1.129c-2.3,0-4.599-1.031-6.845-3.068l-15.754-0.492
	L75.606,107.831L75.606,107.831z"/>
<polygon fill="#96D5CF" points="75.946,39.379 64.207,42.088 53.371,39.379 53.371,33.058 64.207,35.767 75.946,33.058 "/>
<polygon fill="#96D5CF" points="75.946,48.409 64.207,51.118 53.371,48.409 53.371,42.089 64.207,44.798 75.946,42.089 "/>
<polygon fill="#676868" points="160.311,39.379 148.57,42.088 137.734,39.379 137.734,33.058 148.57,35.767 160.311,33.058 "/>
<polygon fill="#676868" points="160.311,48.409 148.57,51.118 137.734,48.409 137.734,42.089 148.57,44.798 160.311,42.089 "/>
</svg>
