<?xml version="1.0" encoding="utf-8"?>
<!-- Generator: Adobe Illustrator 16.0.0, SVG Export Plug-In . SVG Version: 6.00 Build 0)  -->
<!DOCTYPE svg PUBLIC "-//W3C//DTD SVG 1.1//EN" "http://www.w3.org/Graphics/SVG/1.1/DTD/svg11.dtd">
<svg version="1.1" id="Layer_1" xmlns="http://www.w3.org/2000/svg" xmlns:xlink="http://www.w3.org/1999/xlink" x="0px" y="0px"
	 width="612px" height="792px" viewBox="0 0 612 792" enable-background="new 0 0 612 792" xml:space="preserve">
<path fill="none" d="M346.63,60"/>
<path fill="none" d="M346.63,3305.597"/>
<line fill="none" x1="234.764" y1="-2470.76" x2="234.764" y2="774.837"/>
<path fill="#95D5CF" d="M243.546,383.623v19.704l0.008,48.313c0,34.626,62.697,62.697,62.697,62.697s62.697-28.071,62.697-62.697
	l0.009-48.313v-19.704H243.546z"/>
<g opacity="0.5">
	<g>
		<defs>
			<rect id="SVGID_1_" x="306.842" y="382.922" width="60.025" height="127.574"/>
		</defs>
		<clipPath id="SVGID_2_">
			<use xlink:href="#SVGID_1_"  overflow="visible"/>
		</clipPath>
		<path clip-path="url(#SVGID_2_)" fill="#189995" d="M306.97,510.496c5.59-2.753,17.62-9.048,29.467-17.652
			c9.191-6.674,16.455-13.391,21.589-19.966c5.866-7.514,8.841-14.723,8.841-21.427v-47.225v-21.305h-60.025v127.511
			C306.884,510.453,306.929,510.476,306.97,510.496"/>
	</g>
</g>
<g opacity="0.4">
	<g>
		<defs>
			<rect id="SVGID_3_" x="241.642" y="379.13" width="129.217" height="137.192"/>
		</defs>
		<clipPath id="SVGID_4_">
			<use xlink:href="#SVGID_3_"  overflow="visible"/>
		</clipPath>
		<path clip-path="url(#SVGID_4_)" fill="#FFFFFF" d="M357.063,392.927v9.011l-0.008,49.784c0,18.229-31.246,39.336-50.803,49.295
			c-19.566-9.964-50.805-31.068-50.805-49.298l-0.008-49.777v-9.015H357.063 M370.859,379.13H241.642v22.812l0.009,49.78
			c0,35.677,64.6,64.601,64.6,64.601s64.601-28.924,64.601-64.601l0.008-49.78V379.13z"/>
	</g>
</g>
<path fill="#1A1A19" d="M370.859,366.777c0-3.458-2.803-6.262-6.261-6.262h-18.838l-39.065-10.953l-37.761,10.953h-21.031
	c-3.458,0-6.261,2.804-6.261,6.262v12.353v22.811l0.008,49.781c0,35.678,64.601,64.601,64.601,64.601s64.6-28.923,64.6-64.601
	l0.008-49.781v-6.282V366.777z M363.334,401.939l-0.008,49.782c0,8.389-5.031,22.043-28.996,39.445
	c-11.291,8.199-22.754,14.197-28.082,16.82c-5.288-2.601-16.619-8.527-27.885-16.682c-24.124-17.462-29.187-31.164-29.187-39.585
	l-0.009-49.78v-6.282h114.167V401.939z"/>
<path fill="#FFFFFF" d="M298.355,384.27l2.438-2.589c1.054,1.385,2.469,2.168,4.185,2.168c1.927,0,3.042-1.475,3.042-3.162
	c0-1.985-1.055-3.16-2.86-3.16c-1.355,0-2.379,0.481-3.312,1.655l-2.92-0.782V366.99h12.042v3.551h-8.008v5.148
	c0.783-0.964,2.137-1.654,3.673-1.654c3.04,0,5.479,2.378,5.479,6.531c0,4.034-2.739,6.864-7.015,6.864
	C301.998,387.431,299.86,386.287,298.355,384.27"/>
<path fill="#191818" d="M316.922,434.004c3.986,3.987,2.437,12-3.461,17.897c-5.898,5.898-13.912,7.447-17.898,3.461
	c-3.986-3.986-2.437-12,3.461-17.897C304.921,431.566,312.935,430.017,316.922,434.004"/>
<path fill="#FFFFFF" d="M335.246,416.08c-19.58-19.579-36.785,1.978-38.763,3.955c-3.56,3.56-11.866,11.865-11.866,11.865
	l-0.791-3.955l-7.119,1.187v24.522h0.193h24.33l1.582-6.723l-4.351-1.187l13.646-13.646c0,0,3.362-2.571,8.307,2.373l13.805,0.433
	l0.636,0.021v15.821C352.787,432.812,335.836,416.544,335.246,416.08"/>
<path fill="#FFFFFF" d="M335.246,416.08c-19.58-19.579-36.785,1.978-38.763,3.955c-3.56,3.56-11.866,11.865-11.866,11.865
	l-0.791-3.955l-7.119,1.187v24.522h0.193c8.183-8.183,26.646-26.646,28.946-28.945c7.713-7.713,16.81-9.295,24.522,1.384
	c2.185,3.025,3.329,6.041,3.85,8.812l0.636,0.021v15.821C352.787,432.812,335.836,416.544,335.246,416.08"/>
<path fill="#95D5CF" d="M305.847,424.709c-2.3,2.3-20.763,20.763-28.946,28.946h24.329l1.582-6.725l-4.35-1.186l13.645-13.646
	c0,0,3.362-2.571,8.306,2.373l13.807,0.434c-0.52-2.771-1.665-5.787-3.85-8.813C322.656,415.414,313.56,416.996,305.847,424.709"/>
<path fill="#191818" d="M332.617,456.146v-19.054l-13.16-0.411l-0.625-0.627c-1.562-1.562-3.062-2.387-4.34-2.387
	c-0.494,0-0.836,0.128-0.992,0.203l-10.73,10.729l2.716,0.74l-2.483,10.552H274.47v-28.656l11.126-1.854l0.396,1.98l8.91-8.909
	c0.108-0.107,0.269-0.286,0.48-0.516c7.435-8.13,15.115-12.253,22.826-12.253c6.508,0,12.772,2.965,18.621,8.813l-0.004,0.003
	c1.23,1.161,7.862,7.882,8.438,17.596c0.424,7.145-2.547,13.952-8.825,20.231L332.617,456.146z M278.944,451.417h20.514l0.681-2.896
	l-5.987-1.632l16.596-16.568c0.246-0.188,1.586-1.129,3.744-1.129c2.301,0,4.6,1.033,6.846,3.069l15.754,0.492v11.857
	c2.604-3.811,3.854-7.753,3.725-11.772c-0.281-8.754-6.939-14.984-7.007-15.044l-0.146-0.134
	c-4.979-4.978-10.179-7.502-15.457-7.502c-6.402,0-12.971,3.633-19.523,10.797c-0.27,0.296-0.478,0.522-0.617,0.661l-14.823,14.821
	l-1.186-5.93l-3.113,0.519V451.417z"/>
<path fill="#FFFFFF" d="M276.452,472.363c19.579,19.579,36.784-1.978,38.763-3.955c3.56-3.56,11.865-11.866,11.865-11.866
	l0.791,3.955l7.119-1.186v-24.523h-0.193l-28.946,28.946c-7.713,7.713-16.81,9.295-24.523-1.384
	c-2.184-3.025-3.329-6.041-3.849-8.813l-0.636-0.02v-15.821C258.91,455.632,275.862,471.899,276.452,472.363"/>
<path fill="#FFFFFF" d="M334.797,434.788h-24.33l-1.582,6.724l4.352,1.188l-13.646,13.645c0,0-3.362,2.571-8.306-2.373
	l-13.805-0.433l-0.636-0.019v-15.822c-17.934,17.934-0.982,34.202-0.391,34.666c19.579,19.579,36.784-1.978,38.763-3.955
	c3.56-3.561,11.865-11.866,11.865-11.866l0.791,3.955l7.119-1.186v-24.523H334.797z"/>
<path fill="#95D5CF" d="M305.851,463.734l28.946-28.946h-24.329l-1.582,6.725l4.351,1.186l-13.646,13.646
	c0,0-3.362,2.57-8.306-2.373l-13.806-0.434c0.52,2.771,1.665,5.787,3.849,8.813C289.041,473.029,298.138,471.447,305.851,463.734"/>
<path fill="#191818" d="M293.494,482.76h-0.003c-6.509-0.002-12.774-2.967-18.621-8.814l0.003-0.003
	c-1.23-1.161-7.862-7.882-8.437-17.594c-0.424-7.146,2.545-13.954,8.825-20.233l3.82-3.819v19.055l13.159,0.412l0.627,0.627
	c3.069,3.068,4.89,2.391,5.332,2.182l10.729-10.728l-2.716-0.741l2.484-10.551h28.532v28.654l-11.127,1.854l-0.396-1.98l-8.91,8.91
	c-0.108,0.11-0.271,0.287-0.481,0.52C308.88,478.638,301.202,482.76,293.494,482.76 M274.606,443.831
	c-2.604,3.812-3.854,7.753-3.725,11.772c0.283,8.754,6.94,14.986,7.007,15.044l0.146,0.134c4.978,4.979,10.178,7.502,15.457,7.503
	h0.003c6.4,0,12.966-3.632,19.518-10.796c0.272-0.297,0.48-0.521,0.621-0.662l14.821-14.822l1.187,5.931l3.112-0.52v-20.39H312.24
	l-0.682,2.896l5.986,1.633l-16.595,16.566c-0.247,0.189-1.586,1.128-3.745,1.129c-2.3,0-4.599-1.031-6.845-3.068l-15.754-0.493
	V443.831z"/>
<polygon fill="#95D5CF" points="274.946,375.379 263.207,378.088 252.371,375.379 252.371,369.058 263.207,371.767 274.946,369.058 
	"/>
<polygon fill="#95D5CF" points="274.946,384.409 263.207,387.118 252.371,384.409 252.371,378.089 263.207,380.798 274.946,378.089 
	"/>
<polygon fill="#676767" points="359.311,375.379 347.57,378.088 336.734,375.379 336.734,369.058 347.57,371.767 359.311,369.058 
	"/>
<polygon fill="#676767" points="359.311,384.409 347.57,387.118 336.734,384.409 336.734,378.089 347.57,380.798 359.311,378.089 
	"/>
</svg>
