<?xml version="1.0" encoding="utf-8"?>
<!-- Generator: Adobe Illustrator 16.0.0, SVG Export Plug-In . SVG Version: 6.00 Build 0)  -->
<!DOCTYPE svg PUBLIC "-//W3C//DTD SVG 1.1//EN" "http://www.w3.org/Graphics/SVG/1.1/DTD/svg11.dtd">
<svg version="1.1" id="Layer_1" xmlns="http://www.w3.org/2000/svg" xmlns:xlink="http://www.w3.org/1999/xlink" x="0px" y="0px"
	 width="612px" height="792px" viewBox="0 0 612 792" enable-background="new 0 0 612 792" xml:space="preserve">
<path fill="none" d="M346.63,60"/>
<path fill="none" d="M346.63,3305.597"/>
<path fill="#1A1A19" d="M323.898,458.185c-10.387,6.446-19.062,10.538-20.966,11.416c-1.905-0.878-10.58-4.97-20.967-11.416v0.492
	c-0.003-0.002,0.004-0.005,0-0.007v15.051c11.415,7.014,20.568,11.112,20.568,11.112l0.399-0.001l0.399,0.001
	c0,0,9.152-4.099,20.567-11.112V458.67c-0.004,0.002,0.004,0.005,0,0.007V458.185z"/>
<path fill="#1A1A19" d="M278.65,457.048c-9.748-6.171-20.759-14.313-29.014-23.745v15.051c8.118,9.569,19.145,17.858,29.014,24.17
	v-15.051c-0.004-0.002,0.003-0.005,0-0.007V457.048z"/>
<path fill="#FFFFFF" d="M327.215,457.048v0.418c-0.004,0.002,0.003,0.005,0,0.007v15.051c9.869-6.312,20.895-14.601,29.014-24.17
	v-15.051C347.973,442.734,336.963,450.877,327.215,457.048"/>
<path fill="#95D5CF" d="M238.323,331.639v20.302l0.008,49.781c0,35.678,64.601,64.601,64.601,64.601s64.6-28.923,64.6-64.601
	l0.009-49.781v-20.302H238.323z"/>
<g opacity="0.5">
	<g>
		<defs>
			<rect id="SVGID_1_" x="303.52" y="332.922" width="60.03" height="127.574"/>
		</defs>
		<clipPath id="SVGID_2_">
			<use xlink:href="#SVGID_1_"  overflow="visible"/>
		</clipPath>
		<path clip-path="url(#SVGID_2_)" fill="#189995" d="M303.651,460.496c5.59-2.753,17.618-9.048,29.468-17.652
			c9.191-6.674,16.454-13.391,21.588-19.966c5.866-7.514,8.842-14.723,8.842-21.427v-47.225v-21.305h-60.025v127.511
			C303.565,460.453,303.61,460.476,303.651,460.496"/>
	</g>
</g>
<g opacity="0.4">
	<g>
		<defs>
			<rect id="SVGID_3_" x="238.32" y="329.13" width="129.22" height="137.192"/>
		</defs>
		<clipPath id="SVGID_4_">
			<use xlink:href="#SVGID_3_"  overflow="visible"/>
		</clipPath>
		<path clip-path="url(#SVGID_4_)" fill="#FFFFFF" d="M353.744,342.927v9.011l-0.008,49.784c0,18.229-31.246,39.336-50.803,49.295
			c-19.566-9.964-50.805-31.068-50.805-49.298l-0.008-49.777v-9.015H353.744 M367.541,329.13H238.323v22.812l0.009,49.78
			c0,35.677,64.6,64.601,64.6,64.601s64.601-28.924,64.601-64.601l0.008-49.78V329.13z"/>
	</g>
</g>
<path fill="#1A1A19" d="M367.541,329.129v-12.352c0-3.459-2.804-6.262-6.262-6.262h-18.838l-39.065-10.953l-37.761,10.953h-21.03
	c-3.459,0-6.262,2.803-6.262,6.262v28.881v6.282l0.008,49.781c0,35.678,64.601,64.601,64.601,64.601s64.6-28.923,64.6-64.601
	l0.009-49.781V329.129z M360.008,401.722c0,8.389-5.031,22.042-28.998,39.444c-11.291,8.199-22.754,14.198-28.08,16.821
	c-5.288-2.601-16.619-8.527-27.885-16.683c-24.124-17.462-29.187-31.164-29.187-39.584l-0.008-49.78v-6.282h114.166v6.281
	L360.008,401.722z"/>
<path fill="#FFFFFF" d="M279.142,337.069v-3.252c7.346-7.135,8.881-8.729,8.881-11.018c0-1.536-1.174-2.529-2.679-2.529
	c-1.776,0-3.191,0.813-4.275,2.258L278.661,320c1.625-2.167,4.003-3.313,6.743-3.313c3.884,0,6.714,2.35,6.714,6.082
	c0,3.04-2.047,5.63-7.015,10.747h7.105v3.553H279.142z"/>
<path fill="#FFFFFF" d="M294.464,327.044c0-5.178,2.137-10.355,7.104-10.355c4.998,0,7.105,5.178,7.105,10.355
	c0,5.148-2.077,10.388-7.105,10.388C296.601,337.432,294.464,332.192,294.464,327.044 M304.58,327.044
	c0-3.883-0.663-6.772-3.011-6.772c-2.318,0-2.979,2.89-2.979,6.772c0,3.854,0.662,6.806,2.979,6.806
	C303.917,333.85,304.58,330.898,304.58,327.044"/>
<path fill="#FFFFFF" d="M310.628,327.044c0-5.178,2.138-10.355,7.104-10.355c4.998,0,7.105,5.178,7.105,10.355
	c0,5.148-2.077,10.388-7.105,10.388C312.766,337.432,310.628,332.192,310.628,327.044 M320.744,327.044
	c0-3.883-0.664-6.772-3.012-6.772c-2.318,0-2.979,2.89-2.979,6.772c0,3.854,0.661,6.806,2.979,6.806
	C320.08,333.85,320.744,330.898,320.744,327.044"/>
<path fill="#191818" d="M313.603,384.004c3.987,3.987,2.437,12-3.461,17.897c-5.898,5.898-13.911,7.447-17.898,3.461
	c-3.986-3.986-2.437-12,3.461-17.897C301.603,381.566,309.615,380.017,313.603,384.004"/>
<path fill="#FFFFFF" d="M331.927,366.08c-19.579-19.579-36.784,1.978-38.762,3.955c-3.56,3.56-11.866,11.865-11.866,11.865
	l-0.791-3.955l-7.119,1.187v24.522h0.193h24.329l1.583-6.723l-4.351-1.187l13.645-13.646c0,0,3.363-2.571,8.308,2.373l13.805,0.433
	l0.636,0.021v15.821C349.469,382.812,332.517,366.544,331.927,366.08"/>
<path fill="#FFFFFF" d="M331.927,366.08c-19.579-19.579-36.784,1.978-38.762,3.955c-3.56,3.56-11.866,11.865-11.866,11.865
	l-0.791-3.955l-7.119,1.187v24.522h0.193c8.183-8.183,26.646-26.646,28.946-28.945c7.713-7.713,16.811-9.295,24.523,1.384
	c2.184,3.025,3.328,6.041,3.849,8.812l0.636,0.021v15.821C349.469,382.812,332.517,366.544,331.927,366.08"/>
<path fill="#95D5CF" d="M302.528,374.709c-2.3,2.3-20.763,20.763-28.946,28.946h24.329l1.582-6.725l-4.35-1.186l13.645-13.646
	c0,0,3.362-2.571,8.307,2.373l13.806,0.434c-0.52-2.771-1.665-5.787-3.849-8.813C319.338,365.414,310.24,366.996,302.528,374.709"/>
<path fill="#191818" d="M329.298,406.146v-19.054l-13.159-0.411l-0.626-0.627c-1.562-1.562-3.062-2.387-4.339-2.387
	c-0.494,0-0.836,0.128-0.993,0.203l-10.73,10.729l2.716,0.74l-2.484,10.552H271.15v-28.656l11.126-1.854l0.396,1.98l8.91-8.909
	c0.108-0.107,0.269-0.286,0.48-0.516c7.435-8.13,15.115-12.253,22.825-12.253c6.508,0,12.772,2.965,18.621,8.813l-0.003,0.003
	c1.23,1.162,7.858,7.877,8.437,17.59c0.425,7.147-2.545,13.956-8.825,20.237L329.298,406.146z M275.625,401.417h20.513l0.682-2.896
	l-5.987-1.632l16.596-16.568c0.246-0.188,1.585-1.129,3.744-1.129c2.301,0,4.599,1.033,6.845,3.069l15.754,0.492v11.857
	c2.604-3.812,3.854-7.754,3.726-11.773c-0.283-8.755-6.94-14.983-7.008-15.043l-0.146-0.134c-4.979-4.978-10.179-7.502-15.457-7.502
	c-6.402,0-12.97,3.633-19.523,10.797c-0.27,0.296-0.478,0.522-0.617,0.661l-14.822,14.821l-1.188-5.93l-3.113,0.519V401.417z"/>
<path fill="#FFFFFF" d="M273.133,422.363c19.579,19.579,36.784-1.978,38.762-3.955c3.56-3.56,11.866-11.866,11.866-11.866
	l0.791,3.955l7.119-1.186v-24.523h-0.193c-8.184,8.184-26.646,26.646-28.946,28.946c-7.713,7.713-16.81,9.295-24.523-1.384
	c-2.184-3.025-3.329-6.041-3.849-8.813l-0.636-0.02v-15.821C255.591,405.632,272.542,421.899,273.133,422.363"/>
<path fill="#FFFFFF" d="M331.479,384.788h-24.329l-1.583,6.724l4.351,1.188l-13.646,13.645c0,0-3.361,2.571-8.306-2.373
	l-13.805-0.433l-0.636-0.019v-15.822c-17.933,17.934-0.982,34.202-0.391,34.666c19.579,19.579,36.784-1.978,38.762-3.955
	c3.56-3.561,11.866-11.866,11.866-11.866l0.791,3.955l7.119-1.186v-24.523H331.479z"/>
<path fill="#95D5CF" d="M302.532,413.734c2.3-2.3,20.763-20.763,28.946-28.946h-24.33l-1.583,6.725l4.351,1.186l-13.645,13.646
	c0,0-3.362,2.57-8.307-2.373l-13.805-0.434c0.52,2.771,1.665,5.787,3.849,8.813C285.722,423.029,294.819,421.447,302.532,413.734"/>
<path fill="#191818" d="M290.175,432.76h-0.003c-6.509-0.002-12.773-2.967-18.621-8.814l0.003-0.003
	c-1.232-1.163-7.86-7.878-8.437-17.59c-0.425-7.147,2.545-13.957,8.825-20.237l3.82-3.819v19.055l13.159,0.412l0.626,0.627
	c3.068,3.065,4.891,2.393,5.332,2.182l10.73-10.728l-2.716-0.741l2.483-10.551h28.533v28.654l-11.126,1.854l-0.396-1.98l-8.91,8.91
	c-0.108,0.11-0.27,0.287-0.481,0.52C305.561,428.638,297.883,432.76,290.175,432.76 M271.287,393.831
	c-2.605,3.813-3.855,7.754-3.725,11.773c0.283,8.755,6.94,14.985,7.007,15.043l0.146,0.134c4.978,4.979,10.178,7.502,15.457,7.503
	h0.003c6.4,0,12.966-3.632,19.518-10.796c0.271-0.297,0.48-0.521,0.62-0.662l14.821-14.822l1.187,5.931l3.112-0.52v-20.39H308.92
	l-0.681,2.896l5.987,1.634l-16.597,16.566c-0.246,0.189-1.585,1.128-3.744,1.129c-2.3,0-4.599-1.031-6.845-3.068l-15.754-0.493
	V393.831z"/>
<polygon fill="#FFFFFF" points="273.878,324.538 266.42,323.406 263.099,316.309 259.779,323.406 252.32,324.538 257.71,330.072 
	256.362,337.867 263.099,334.186 269.836,337.867 268.489,330.072 "/>
<polygon fill="#FFFFFF" points="353.545,324.538 346.086,323.406 342.766,316.309 339.445,323.406 331.986,324.538 337.375,330.072 
	336.028,337.867 342.766,334.186 349.502,337.867 348.155,330.072 "/>
</svg>
