<?xml version="1.0" encoding="utf-8"?>
<!-- Generator: Adobe Illustrator 16.0.0, SVG Export Plug-In . SVG Version: 6.00 Build 0)  -->
<!DOCTYPE svg PUBLIC "-//W3C//DTD SVG 1.1//EN" "http://www.w3.org/Graphics/SVG/1.1/DTD/svg11.dtd">
<svg version="1.1" id="Layer_1" xmlns="http://www.w3.org/2000/svg" xmlns:xlink="http://www.w3.org/1999/xlink" x="0px" y="0px"
	 width="612px" height="792px" viewBox="0 0 612 792" enable-background="new 0 0 612 792" xml:space="preserve">
<path fill="none" d="M346.63,60"/>
<path fill="none" d="M346.63,3305.597"/>
<path fill="#1A1A19" d="M323.464,458.185c-10.386,6.446-19.062,10.538-20.966,11.416c-1.905-0.878-10.58-4.97-20.967-11.416v0.492
	c-0.003-0.002,0.004-0.005,0-0.007v15.051c11.415,7.014,20.568,11.112,20.568,11.112l0.399-0.001l0.399,0.001
	c0,0,9.152-4.099,20.567-11.112V458.67c-0.004,0.002,0.004,0.005,0,0.007V458.185z"/>
<path fill="#1A1A19" d="M278.216,457.048c-9.748-6.171-20.759-14.313-29.014-23.745v15.051c8.118,9.569,19.145,17.858,29.014,24.17
	v-15.051c-0.004-0.002,0.003-0.005,0-0.007V457.048z"/>
<path fill="#1A1A19" d="M326.78,457.048v0.418c-0.004,0.002,0.003,0.005,0,0.007v15.051c9.869-6.312,20.896-14.601,29.015-24.17
	v-15.051C347.539,442.734,336.528,450.877,326.78,457.048"/>
<path fill="#95D5CF" d="M237.66,331.639v20.302l0.008,49.781c0,35.678,64.601,64.601,64.601,64.601s64.601-28.923,64.601-64.601
	l0.008-49.781v-20.302H237.66z"/>
<g opacity="0.5">
	<g>
		<defs>
			<rect id="SVGID_1_" x="302.86" y="332.922" width="60.02" height="127.574"/>
		</defs>
		<clipPath id="SVGID_2_">
			<use xlink:href="#SVGID_1_"  overflow="visible"/>
		</clipPath>
		<path clip-path="url(#SVGID_2_)" fill="#189995" d="M302.987,460.496c5.59-2.753,17.619-9.048,29.468-17.652
			c9.191-6.674,16.454-13.391,21.588-19.966c5.866-7.514,8.842-14.723,8.842-21.427v-47.225v-21.305h-60.025v127.511
			C302.901,460.453,302.946,460.476,302.987,460.496"/>
	</g>
</g>
<g opacity="0.4">
	<g>
		<defs>
			<rect id="SVGID_3_" x="237.66" y="329.13" width="129.22" height="137.192"/>
		</defs>
		<clipPath id="SVGID_4_">
			<use xlink:href="#SVGID_3_"  overflow="visible"/>
		</clipPath>
		<path clip-path="url(#SVGID_4_)" fill="#FFFFFF" d="M353.08,342.927v9.011l-0.008,49.784c0,18.215-31.2,39.306-50.76,49.273
			c-5.697-2.924-14.985-8.061-24.254-14.771c-17.149-12.413-26.594-24.667-26.594-34.506l-0.008-49.777v-9.015H353.08
			 M366.877,329.13H237.659v22.812l0.009,49.78c0,35.677,64.601,64.601,64.601,64.601s64.601-28.924,64.601-64.601l0.008-49.78
			V329.13z"/>
	</g>
</g>
<path fill="#1A1A19" d="M366.877,329.129v-12.352c0-3.459-2.803-6.262-6.262-6.262h-18.838l-39.065-10.953l-37.761,10.953H243.92
	c-3.458,0-6.261,2.803-6.261,6.262v28.881v6.282l0.008,49.781c0,35.678,64.601,64.601,64.601,64.601s64.601-28.923,64.601-64.601
	l0.008-49.781V329.129z M359.344,401.722c0,8.389-5.031,22.042-28.997,39.444c-11.291,8.199-22.754,14.198-28.081,16.821
	c-5.288-2.601-16.619-8.527-27.885-16.683c-24.123-17.462-29.188-31.164-29.188-39.584l-0.008-49.78v-6.282h114.166v6.281
	L359.344,401.722z"/>
<path fill="#FFFFFF" d="M278.208,334.179l2.408-2.527c1.024,1.325,2.62,2.197,4.306,2.197c2.106,0,3.07-1.113,3.07-2.68
	c0-1.867-1.294-2.529-3.251-2.529c-0.662,0-1.565,0-1.866,0.061v-3.643c0.301,0.029,1.294,0.029,1.775,0.029
	c1.837,0,3.072-0.752,3.072-2.317c0-1.687-1.205-2.498-2.951-2.498c-1.565,0-2.98,0.722-4.004,2.017l-2.288-2.348
	c1.445-2.019,3.733-3.252,6.624-3.252c3.973,0,6.592,1.896,6.592,5.448c0,2.288-1.716,4.155-3.793,4.576
	c2.047,0.302,4.095,2.108,4.095,4.818c0,3.492-2.68,5.899-6.894,5.899C281.911,337.431,279.473,336.016,278.208,334.179"/>
<path fill="#FFFFFF" d="M294.011,327.074c0-6.02,2.86-10.387,8.038-10.387c2.138,0,3.974,0.843,5.147,2.168l-1.957,3.011
	c-0.782-1.054-1.716-1.596-3.131-1.596c-2.438,0-4.004,2.8-4.004,5.992v0.36c0.753-1.386,2.379-2.56,4.275-2.56
	c3.011,0,5.63,2.258,5.63,6.534c0,3.883-2.649,6.834-6.593,6.834C296.088,337.432,294.011,332.644,294.011,327.074 M303.916,330.747
	c0-2.348-1.385-3.221-2.8-3.221c-1.295,0-2.318,0.903-3.011,2.047c0.151,1.897,0.843,4.276,3.071,4.276
	C303.013,333.85,303.916,332.253,303.916,330.747"/>
<path fill="#FFFFFF" d="M309.994,334.27l2.438-2.589c1.054,1.385,2.47,2.168,4.185,2.168c1.928,0,3.041-1.475,3.041-3.162
	c0-1.985-1.054-3.16-2.859-3.16c-1.355,0-2.379,0.481-3.313,1.655l-2.92-0.782V316.99h12.042v3.551h-8.008v5.148
	c0.783-0.964,2.138-1.654,3.673-1.654c3.04,0,5.479,2.378,5.479,6.531c0,4.034-2.739,6.864-7.015,6.864
	C313.638,337.431,311.5,336.287,309.994,334.27"/>
<path fill="#191818" d="M312.938,384.004c3.987,3.987,2.437,12-3.461,17.897c-5.898,5.898-13.911,7.447-17.898,3.461
	c-3.986-3.986-2.437-12,3.461-17.897C300.938,381.566,308.951,380.017,312.938,384.004"/>
<path fill="#FFFFFF" d="M331.263,366.08c-19.579-19.579-36.784,1.978-38.762,3.955c-3.56,3.56-11.866,11.865-11.866,11.865
	l-0.791-3.955l-7.119,1.187v24.522h0.193h24.329l1.583-6.723l-4.351-1.187l13.646-13.646c0,0,3.361-2.571,8.306,2.373l13.805,0.433
	l0.636,0.021v15.821C348.805,382.812,331.853,366.544,331.263,366.08"/>
<path fill="#FFFFFF" d="M331.263,366.08c-19.579-19.579-36.784,1.978-38.762,3.955c-3.56,3.56-11.866,11.865-11.866,11.865
	l-0.791-3.955l-7.119,1.187v24.522h0.193c8.183-8.183,26.646-26.646,28.946-28.945c7.712-7.713,16.81-9.295,24.523,1.384
	c2.184,3.025,3.329,6.041,3.849,8.812l0.636,0.021v15.821C348.805,382.812,331.853,366.544,331.263,366.08"/>
<path fill="#95D5CF" d="M301.864,374.709c-2.3,2.3-20.763,20.763-28.946,28.946h24.329l1.582-6.725l-4.35-1.186l13.645-13.646
	c0,0,3.362-2.571,8.306,2.373l13.807,0.434c-0.521-2.771-1.666-5.787-3.85-8.813C318.674,365.414,309.576,366.996,301.864,374.709"
	/>
<path fill="#191818" d="M328.635,406.146v-19.054l-13.16-0.411l-0.626-0.627c-1.562-1.562-3.062-2.387-4.339-2.387
	c-0.494,0-0.836,0.128-0.993,0.203l-10.729,10.729l2.715,0.74l-2.483,10.552h-28.533v-28.656l11.126-1.854l0.396,1.98l8.91-8.909
	c0.109-0.107,0.27-0.286,0.481-0.517c7.436-8.13,15.115-12.252,22.825-12.252c6.508,0,12.771,2.965,18.62,8.813l-0.003,0.003
	c1.229,1.161,7.861,7.882,8.437,17.596c0.425,7.145-2.545,13.952-8.825,20.231L328.635,406.146z M274.961,401.417h20.514
	l0.681-2.896l-5.987-1.632l16.596-16.568c0.246-0.188,1.585-1.129,3.744-1.129c2.301,0,4.599,1.033,6.845,3.069l15.754,0.492v11.857
	c2.604-3.811,3.854-7.753,3.726-11.772c-0.282-8.754-6.939-14.984-7.008-15.044l-0.146-0.134
	c-4.978-4.978-10.179-7.502-15.456-7.502c-6.402,0-12.971,3.632-19.523,10.797c-0.271,0.296-0.479,0.522-0.618,0.661l-14.823,14.821
	l-1.187-5.93l-3.113,0.519V401.417z"/>
<path fill="#FFFFFF" d="M272.47,422.363c19.579,19.579,36.784-1.978,38.762-3.955c3.56-3.56,11.866-11.866,11.866-11.866
	l0.791,3.955l7.119-1.186v-24.523h-0.193c-8.184,8.184-26.646,26.646-28.946,28.946c-7.713,7.713-16.81,9.295-24.522-1.384
	c-2.185-3.025-3.329-6.041-3.849-8.813l-0.636-0.02v-15.821C254.927,405.632,271.878,421.899,272.47,422.363"/>
<path fill="#FFFFFF" d="M330.814,384.788h-24.329l-1.583,6.724l4.352,1.188l-13.646,13.645c0,0-3.361,2.571-8.306-2.373
	l-13.805-0.433l-0.636-0.019v-15.822c-17.933,17.934-0.981,34.202-0.391,34.666c19.579,19.579,36.785-1.978,38.762-3.955
	c3.56-3.561,11.866-11.866,11.866-11.866l0.791,3.955l7.119-1.186v-24.523H330.814z"/>
<path fill="#95D5CF" d="M301.868,413.734c2.3-2.3,20.763-20.763,28.946-28.946h-24.329l-1.583,6.725l4.351,1.186l-13.645,13.646
	c0,0-3.362,2.57-8.307-2.373l-13.805-0.434c0.52,2.771,1.665,5.787,3.849,8.813C285.058,423.029,294.155,421.447,301.868,413.734"/>
<path fill="#191818" d="M289.511,432.76h-0.003c-6.509-0.002-12.773-2.967-18.621-8.814l0.003-0.003
	c-1.23-1.161-7.862-7.882-8.437-17.594c-0.424-7.146,2.545-13.954,8.825-20.233l3.82-3.819v19.055l13.159,0.412l0.627,0.627
	c3.069,3.068,4.89,2.391,5.332,2.182l10.729-10.728l-2.715-0.741l2.483-10.551h28.532v28.654l-11.126,1.854l-0.396-1.98l-8.908,8.91
	c-0.11,0.11-0.271,0.287-0.483,0.521C304.896,428.639,297.218,432.76,289.511,432.76 M270.623,393.831
	c-2.604,3.812-3.854,7.753-3.725,11.772c0.283,8.754,6.94,14.986,7.007,15.044l0.146,0.134c4.978,4.979,10.178,7.502,15.457,7.503
	h0.003c6.4,0,12.966-3.632,19.518-10.795c0.271-0.297,0.48-0.522,0.62-0.663l14.821-14.822l1.187,5.931l3.112-0.52v-20.39h-20.513
	l-0.681,2.896l5.986,1.633l-16.595,16.566c-0.247,0.189-1.586,1.128-3.745,1.129c-2.3,0-4.599-1.031-6.845-3.068l-15.754-0.493
	V393.831z"/>
<polygon fill="#FFFFFF" points="273.214,324.538 265.756,323.406 262.435,316.309 259.115,323.406 251.656,324.538 257.046,330.072 
	255.698,337.867 262.435,334.186 269.172,337.867 267.825,330.072 "/>
<polygon fill="#FFFFFF" points="352.881,324.538 345.422,323.406 342.102,316.309 338.781,323.406 331.322,324.538 336.712,330.072 
	335.365,337.867 342.102,334.186 348.839,337.867 347.492,330.072 "/>
</svg>
