<?xml version="1.0" encoding="utf-8"?>
<!-- Generator: Adobe Illustrator 16.0.0, SVG Export Plug-In . SVG Version: 6.00 Build 0)  -->
<!DOCTYPE svg PUBLIC "-//W3C//DTD SVG 1.1//EN" "http://www.w3.org/Graphics/SVG/1.1/DTD/svg11.dtd">
<svg version="1.1" id="Layer_1" xmlns="http://www.w3.org/2000/svg" xmlns:xlink="http://www.w3.org/1999/xlink" x="0px" y="0px"
	 width="215px" height="195px" viewBox="0 0 215 195" enable-background="new 0 0 215 195" xml:space="preserve">
<path fill="#1A1A19" d="M108.049,3.562"/>
<path fill="#1A1A19" d="M128.464,162.185c-10.386,6.446-19.062,10.538-20.966,11.416c-1.905-0.878-10.58-4.97-20.967-11.416v0.492
	c-0.003-0.002,0.004-0.005,0-0.007v15.051c11.415,7.015,20.568,11.112,20.568,11.112l0.399-0.001l0.399,0.001
	c0,0,9.152-4.099,20.567-11.112V162.67c-0.004,0.002,0.004,0.005,0,0.007V162.185L128.464,162.185z"/>
<path fill="#1A1A19" d="M83.216,161.048c-9.748-6.171-20.759-14.313-29.014-23.745v15.051c8.118,9.569,19.145,17.858,29.014,24.171
	v-15.052c-0.004-0.002,0.003-0.005,0-0.007V161.048z"/>
<path fill="#1A1A19" d="M131.779,161.048v0.418c-0.004,0.002,0.004,0.005,0,0.007v15.052c9.869-6.313,20.896-14.602,29.016-24.171
	v-15.051C152.539,146.734,141.527,154.877,131.779,161.048"/>
<path fill="#96D5CF" d="M42.66,35.639v20.303l0.008,49.78c0,35.679,64.601,64.602,64.601,64.602s64.601-28.923,64.601-64.602
	l0.008-49.78V35.639H42.66L42.66,35.639z"/>
<g opacity="0.5">
	<g>
		<g>
			<defs>
				<rect id="SVGID_1_" x="107.86" y="36.922" width="60.02" height="127.574"/>
			</defs>
			<clipPath id="SVGID_2_">
				<use xlink:href="#SVGID_1_"  overflow="visible"/>
			</clipPath>
			<path clip-path="url(#SVGID_2_)" fill="#189995" d="M107.987,164.496c5.59-2.753,17.619-9.048,29.468-17.652
				c9.191-6.674,16.454-13.391,21.588-19.966c5.866-7.514,8.842-14.723,8.842-21.427V58.226V36.921H107.86v127.511
				C107.901,164.453,107.946,164.476,107.987,164.496"/>
		</g>
	</g>
</g>
<g opacity="0.4">
	<g>
		<g>
			<defs>
				<rect id="SVGID_3_" x="42.66" y="33.13" width="129.22" height="137.192"/>
			</defs>
			<clipPath id="SVGID_4_">
				<use xlink:href="#SVGID_3_"  overflow="visible"/>
			</clipPath>
			<path clip-path="url(#SVGID_4_)" fill="#FFFFFF" d="M158.08,46.927v9.011l-0.008,49.784c0,18.215-31.2,39.307-50.76,49.273
				c-5.697-2.924-14.985-8.062-24.254-14.771c-17.149-12.413-26.594-24.667-26.594-34.506l-0.008-49.776v-9.016L158.08,46.927
				 M171.877,33.13H42.659v22.813l0.009,49.779c0,35.678,64.601,64.602,64.601,64.602s64.601-28.924,64.601-64.602l0.008-49.779
				L171.877,33.13L171.877,33.13z"/>
		</g>
	</g>
</g>
<path fill="#1A1A19" d="M171.877,33.129V20.777c0-3.459-2.803-6.263-6.262-6.263h-18.838L107.712,3.562L69.951,14.515H48.92
	c-3.458,0-6.261,2.804-6.261,6.263v28.881v6.282l0.008,49.78c0,35.679,64.601,64.602,64.601,64.602s64.601-28.923,64.601-64.602
	l0.008-49.78V33.129z M164.344,105.722c0,8.39-5.031,22.042-28.996,39.444c-11.291,8.199-22.755,14.198-28.082,16.821
	c-5.288-2.602-16.619-8.527-27.885-16.684c-24.123-17.462-29.188-31.164-29.188-39.584L50.185,55.94v-6.282h114.167v6.281
	L164.344,105.722z"/>
<path fill="#FFFFFF" d="M83.208,38.179l2.408-2.526c1.024,1.324,2.62,2.196,4.306,2.196c2.106,0,3.07-1.112,3.07-2.68
	c0-1.867-1.294-2.529-3.251-2.529c-0.662,0-1.565,0-1.866,0.062v-3.644c0.301,0.029,1.294,0.029,1.775,0.029
	c1.837,0,3.072-0.752,3.072-2.317c0-1.687-1.205-2.497-2.951-2.497c-1.565,0-2.98,0.722-4.004,2.017l-2.288-2.348
	c1.445-2.02,3.733-3.252,6.624-3.252c3.973,0,6.592,1.896,6.592,5.447c0,2.288-1.716,4.155-3.793,4.576
	c2.047,0.302,4.095,2.108,4.095,4.818c0,3.492-2.68,5.898-6.894,5.898C86.911,41.431,84.473,40.016,83.208,38.179"/>
<path fill="#FFFFFF" d="M99.011,31.074c0-6.021,2.86-10.387,8.038-10.387c2.139,0,3.975,0.843,5.146,2.168l-1.957,3.011
	c-0.781-1.054-1.715-1.597-3.13-1.597c-2.438,0-4.004,2.801-4.004,5.992v0.36c0.753-1.386,2.379-2.561,4.275-2.561
	c3.012,0,5.63,2.259,5.63,6.534c0,3.883-2.649,6.834-6.593,6.834C101.088,41.432,99.011,36.644,99.011,31.074 M108.916,34.747
	c0-2.348-1.385-3.221-2.8-3.221c-1.295,0-2.318,0.902-3.011,2.047c0.151,1.896,0.843,4.275,3.071,4.275
	C108.014,37.85,108.916,36.253,108.916,34.747"/>
<path fill="#FFFFFF" d="M114.994,38.27l2.438-2.589c1.055,1.386,2.471,2.168,4.186,2.168c1.928,0,3.041-1.475,3.041-3.161
	c0-1.985-1.055-3.16-2.859-3.16c-1.355,0-2.379,0.48-3.313,1.654l-2.92-0.781V20.99h12.041v3.551H119.6v5.148
	c0.783-0.965,2.139-1.654,3.674-1.654c3.039,0,5.479,2.378,5.479,6.531c0,4.033-2.739,6.863-7.016,6.863
	C118.639,41.431,116.5,40.287,114.994,38.27"/>
<path fill="#191818" d="M117.938,88.004c3.987,3.987,2.438,12-3.461,17.897c-5.897,5.897-13.911,7.446-17.897,3.461
	c-3.986-3.986-2.437-12,3.461-17.897C105.938,85.566,113.951,84.017,117.938,88.004"/>
<path fill="#FFFFFF" d="M136.264,70.08c-19.58-19.579-36.785,1.978-38.763,3.955C93.941,77.595,85.635,85.9,85.635,85.9
	l-0.791-3.955l-7.119,1.187v24.522h0.193h24.329l1.583-6.724l-4.351-1.187l13.646-13.646c0,0,3.361-2.57,8.307,2.373l13.805,0.434
	l0.636,0.021v15.821C153.805,86.813,136.854,70.544,136.264,70.08"/>
<path fill="#FFFFFF" d="M136.264,70.08c-19.58-19.579-36.785,1.978-38.763,3.955C93.941,77.595,85.635,85.9,85.635,85.9
	l-0.791-3.955l-7.119,1.187v24.522h0.193c8.183-8.184,26.646-26.646,28.946-28.945c7.712-7.713,16.81-9.295,24.522,1.384
	c2.184,3.025,3.329,6.041,3.85,8.813l0.636,0.021v15.821C153.805,86.813,136.854,70.544,136.264,70.08"/>
<path fill="#96D5CF" d="M106.864,78.709c-2.3,2.3-20.763,20.763-28.946,28.946h24.329l1.582-6.726l-4.35-1.186l13.645-13.646
	c0,0,3.362-2.57,8.306,2.373l13.807,0.435c-0.521-2.771-1.665-5.787-3.85-8.813C123.674,69.414,114.576,70.996,106.864,78.709"/>
<path fill="#191818" d="M133.635,110.146V91.092l-13.16-0.411l-0.625-0.627c-1.563-1.562-3.063-2.387-4.34-2.387
	c-0.494,0-0.836,0.128-0.992,0.203l-10.729,10.729l2.715,0.74l-2.483,10.552H75.487V81.235l11.126-1.854l0.396,1.98l8.91-8.909
	c0.109-0.107,0.27-0.286,0.481-0.518c7.436-8.13,15.116-12.252,22.825-12.252c6.508,0,12.771,2.966,18.621,8.813l-0.004,0.003
	c1.229,1.161,7.861,7.882,8.438,17.596c0.425,7.146-2.545,13.952-8.825,20.231L133.635,110.146z M79.961,105.417h20.514l0.681-2.896
	l-5.987-1.633l16.597-16.567c0.246-0.188,1.584-1.129,3.743-1.129c2.302,0,4.599,1.032,6.845,3.068l15.754,0.492V98.61
	c2.604-3.812,3.854-7.753,3.727-11.772c-0.282-8.754-6.939-14.984-7.008-15.044l-0.146-0.134
	c-4.978-4.979-10.179-7.502-15.455-7.502c-6.402,0-12.972,3.632-19.523,10.797c-0.271,0.296-0.479,0.521-0.618,0.661L84.26,90.438
	l-1.187-5.931l-3.113,0.52L79.961,105.417L79.961,105.417z"/>
<path fill="#FFFFFF" d="M77.47,126.363c19.579,19.579,36.784-1.979,38.762-3.955c3.56-3.561,11.865-11.866,11.865-11.866
	l0.791,3.955l7.119-1.187V88.788h-0.193c-8.184,8.184-26.646,26.646-28.945,28.946c-7.713,7.713-16.81,9.295-24.522-1.385
	c-2.185-3.024-3.329-6.041-3.849-8.813l-0.636-0.021v-15.82C59.927,109.632,76.878,125.899,77.47,126.363"/>
<path fill="#FFFFFF" d="M135.814,88.788h-24.33l-1.582,6.724l4.352,1.188l-13.646,13.645c0,0-3.361,2.571-8.306-2.373l-13.805-0.433
	l-0.636-0.02V91.698c-17.933,17.934-0.981,34.202-0.391,34.666c19.579,19.579,36.785-1.979,38.762-3.955
	c3.56-3.562,11.865-11.866,11.865-11.866l0.791,3.955l7.119-1.187V88.789L135.814,88.788L135.814,88.788z"/>
<path fill="#96D5CF" d="M106.868,117.734c2.3-2.301,20.763-20.764,28.946-28.946h-24.33l-1.582,6.725l4.351,1.187l-13.645,13.646
	c0,0-3.362,2.57-8.307-2.373l-13.805-0.434c0.52,2.771,1.665,5.787,3.849,8.813C90.058,127.029,99.155,125.447,106.868,117.734"/>
<path fill="#191818" d="M94.511,136.76h-0.003c-6.509-0.002-12.773-2.967-18.621-8.813l0.003-0.003
	c-1.23-1.161-7.862-7.883-8.437-17.595c-0.424-7.146,2.545-13.954,8.825-20.232l3.82-3.819v19.055l13.159,0.412l0.627,0.627
	c3.069,3.068,4.89,2.392,5.332,2.183l10.729-10.729l-2.715-0.74l2.483-10.552h28.532v28.654l-11.126,1.854l-0.396-1.979l-8.908,8.91
	c-0.109,0.109-0.271,0.287-0.482,0.521C109.896,132.639,102.218,136.76,94.511,136.76 M75.623,97.831
	c-2.604,3.812-3.854,7.753-3.725,11.771c0.283,8.755,6.94,14.986,7.007,15.045l0.146,0.134c4.978,4.979,10.178,7.502,15.457,7.503
	h0.003c6.4,0,12.966-3.632,19.519-10.795c0.271-0.297,0.479-0.522,0.619-0.663l14.821-14.822l1.188,5.931l3.112-0.52v-20.39h-20.514
	l-0.681,2.896l5.985,1.633l-16.595,16.566c-0.247,0.188-1.586,1.128-3.745,1.129c-2.3,0-4.599-1.031-6.845-3.068l-15.754-0.492
	L75.623,97.831L75.623,97.831z"/>
<polygon fill="#FFFFFF" points="78.214,28.538 70.756,27.406 67.435,20.309 64.115,27.406 56.656,28.538 62.046,34.072 
	60.698,41.867 67.435,38.186 74.172,41.867 72.825,34.072 "/>
<polygon fill="#FFFFFF" points="157.881,28.538 150.422,27.406 147.102,20.309 143.781,27.406 136.322,28.538 141.712,34.072 
	140.365,41.867 147.102,38.186 153.839,41.867 152.492,34.072 "/>
</svg>
