<?xml version="1.0" encoding="utf-8"?>
<!-- Generator: Adobe Illustrator 16.0.0, SVG Export Plug-In . SVG Version: 6.00 Build 0)  -->
<!DOCTYPE svg PUBLIC "-//W3C//DTD SVG 1.1//EN" "http://www.w3.org/Graphics/SVG/1.1/DTD/svg11.dtd">
<svg version="1.1" id="Layer_1" xmlns="http://www.w3.org/2000/svg" xmlns:xlink="http://www.w3.org/1999/xlink" x="0px" y="0px"
	 width="215px" height="195px" viewBox="0 0 215 195" enable-background="new 0 0 215 195" xml:space="preserve">
<path fill="#1A1A19" d="M107.533,189.833l0.399-0.001l0.399,0.001"/>
<path fill="#96D5CF" d="M44.891,47.281v19.807l0.008,48.566c0,34.807,63.024,63.023,63.024,63.023s63.025-28.218,63.025-63.023
	l0.008-48.566V47.281H44.891z"/>
<g opacity="0.5">
	<g>
		<g>
			<defs>
				<rect id="SVGID_1_" x="108.514" y="46.922" width="60.026" height="127.574"/>
			</defs>
			<clipPath id="SVGID_2_">
				<use xlink:href="#SVGID_1_"  overflow="visible"/>
			</clipPath>
			<path clip-path="url(#SVGID_2_)" fill="#189995" d="M108.643,174.496c5.59-2.753,17.619-9.048,29.469-17.652
				c9.19-6.674,16.453-13.391,21.589-19.966c5.864-7.514,8.84-14.723,8.84-21.427V68.226V46.921h-60.024v127.511
				C108.557,174.453,108.602,174.476,108.643,174.496"/>
		</g>
	</g>
</g>
<g opacity="0.4">
	<g>
		<g>
			<defs>
				<rect id="SVGID_3_" x="43.315" y="43.13" width="129.217" height="137.192"/>
			</defs>
			<clipPath id="SVGID_4_">
				<use xlink:href="#SVGID_3_"  overflow="visible"/>
			</clipPath>
			<path clip-path="url(#SVGID_4_)" fill="#FFFFFF" d="M158.734,56.927v9.011l-0.008,49.784c0,18.229-31.246,39.336-50.803,49.295
				c-19.566-9.964-50.805-31.067-50.805-49.298l-0.008-49.776v-9.016H158.734 M172.532,43.13H43.314v22.813l0.009,49.779
				c0,35.678,64.6,64.602,64.6,64.602s64.601-28.924,64.601-64.602l0.009-49.779V43.13L172.532,43.13z"/>
		</g>
	</g>
</g>
<path fill="#1A1A19" d="M172.532,30.777c0-3.458-2.804-6.263-6.261-6.263h-18.838l-39.065-10.952L70.607,24.515H49.576
	c-3.458,0-6.261,2.805-6.261,6.263V43.13v22.812l0.008,49.78c0,35.679,64.601,64.602,64.601,64.602s64.6-28.923,64.6-64.602
	l0.01-49.78v-6.282L172.532,30.777L172.532,30.777z M165.007,65.939l-0.008,49.781c0,8.39-5.031,22.043-28.997,39.445
	c-11.291,8.199-22.754,14.197-28.081,16.82c-5.288-2.602-16.619-8.527-27.885-16.683c-24.124-17.462-29.187-31.164-29.187-39.585
	L50.84,65.939v-6.282h114.167V65.939z"/>
<path fill="#FFFFFF" d="M92.743,51.069v-3.252c7.346-7.136,8.881-8.729,8.881-11.019c0-1.536-1.174-2.529-2.679-2.529
	c-1.776,0-3.191,0.813-4.275,2.259L92.262,34c1.625-2.167,4.003-3.313,6.743-3.313c3.884,0,6.714,2.35,6.714,6.081
	c0,3.04-2.048,5.631-7.015,10.747h7.105v3.554H92.743L92.743,51.069z"/>
<path fill="#FFFFFF" d="M107.493,48.27l2.438-2.589c1.053,1.386,2.469,2.168,4.185,2.168c1.928,0,3.041-1.475,3.041-3.161
	c0-1.985-1.054-3.16-2.859-3.16c-1.354,0-2.379,0.48-3.312,1.654l-2.92-0.781V30.99h12.041v3.551H112.1v5.148
	c0.782-0.965,2.137-1.654,3.672-1.654c3.041,0,5.479,2.378,5.479,6.531c0,4.033-2.739,6.863-7.015,6.863
	C111.136,51.431,108.998,50.287,107.493,48.27"/>
<path fill="#191818" d="M118.594,98.004c3.987,3.987,2.438,12-3.461,17.897c-5.898,5.897-13.911,7.446-17.898,3.461
	c-3.986-3.986-2.437-12,3.461-17.897C106.594,95.566,114.607,94.017,118.594,98.004"/>
<path fill="#FFFFFF" d="M136.918,80.08c-19.579-19.579-36.784,1.978-38.762,3.955C94.596,87.595,86.29,95.9,86.29,95.9l-0.791-3.955
	l-7.119,1.187v24.522h0.193h24.33l1.582-6.724l-4.351-1.187l13.646-13.646c0,0,3.363-2.57,8.308,2.373l13.806,0.434l0.637,0.021
	v15.821C154.46,96.813,137.509,80.544,136.918,80.08"/>
<path fill="#FFFFFF" d="M136.918,80.08c-19.579-19.579-36.784,1.978-38.762,3.955C94.596,87.595,86.29,95.9,86.29,95.9l-0.791-3.955
	l-7.119,1.187v24.522h0.193c8.183-8.184,26.646-26.646,28.946-28.945c7.713-7.713,16.81-9.295,24.523,1.384
	c2.185,3.025,3.329,6.041,3.849,8.813l0.637,0.021v15.821C154.46,96.813,137.508,80.544,136.918,80.08"/>
<path fill="#96D5CF" d="M107.519,88.709c-2.3,2.3-20.763,20.763-28.946,28.946h24.329l1.582-6.726l-4.35-1.186l13.646-13.646
	c0,0,3.361-2.57,8.306,2.373l13.806,0.435c-0.52-2.771-1.664-5.787-3.849-8.813C124.329,79.414,115.232,80.996,107.519,88.709"/>
<path fill="#191818" d="M134.29,120.146v-19.055l-13.16-0.411l-0.626-0.627c-1.561-1.562-3.061-2.387-4.339-2.387
	c-0.494,0-0.837,0.128-0.993,0.203l-10.73,10.729l2.716,0.74l-2.483,10.552H76.142V91.235l11.126-1.854l0.396,1.98l8.91-8.909
	c0.108-0.107,0.269-0.286,0.48-0.517c7.435-8.13,15.115-12.253,22.825-12.253c6.508,0,12.773,2.966,18.621,8.813l-0.004,0.003
	c1.23,1.161,7.863,7.882,8.438,17.596c0.424,7.146-2.545,13.952-8.824,20.231L134.29,120.146z M80.617,115.417h20.514l0.681-2.896
	l-5.987-1.633l16.596-16.567c0.246-0.188,1.585-1.129,3.744-1.129c2.301,0,4.599,1.032,6.845,3.068l15.754,0.492v11.857
	c2.605-3.812,3.855-7.753,3.726-11.772c-0.281-8.754-6.938-14.984-7.007-15.044l-0.146-0.134
	c-4.979-4.979-10.178-7.502-15.457-7.502c-6.401,0-12.97,3.633-19.523,10.797c-0.27,0.296-0.478,0.521-0.617,0.661l-14.823,14.821
	l-1.186-5.931l-3.113,0.52L80.617,115.417L80.617,115.417z"/>
<path fill="#FFFFFF" d="M78.125,136.363c19.579,19.579,36.784-1.979,38.762-3.955c3.561-3.561,11.865-11.866,11.865-11.866
	l0.791,3.955l7.119-1.187V98.788h-0.192l-28.946,28.946c-7.713,7.713-16.81,9.295-24.523-1.385
	c-2.184-3.024-3.329-6.041-3.849-8.813l-0.636-0.021v-15.82C60.583,119.632,77.535,135.899,78.125,136.363"/>
<path fill="#FFFFFF" d="M136.471,98.788h-24.33l-1.582,6.724l4.351,1.188l-13.646,13.645c0,0-3.362,2.571-8.306-2.373l-13.805-0.433
	l-0.636-0.02v-15.821c-17.934,17.934-0.982,34.202-0.391,34.666c19.579,19.579,36.784-1.979,38.762-3.955
	c3.562-3.562,11.866-11.866,11.866-11.866l0.791,3.955l7.118-1.187V98.789L136.471,98.788L136.471,98.788z"/>
<path fill="#96D5CF" d="M107.523,127.734l28.945-28.946h-24.327l-1.584,6.725l4.352,1.187l-13.645,13.646
	c0,0-3.362,2.57-8.306-2.373l-13.806-0.434c0.52,2.771,1.665,5.787,3.849,8.813C90.713,137.029,99.811,135.447,107.523,127.734"/>
<path fill="#191818" d="M95.167,146.76h-0.003c-6.509-0.002-12.774-2.967-18.621-8.813l0.003-0.003
	c-1.23-1.161-7.862-7.883-8.437-17.595c-0.424-7.146,2.545-13.954,8.825-20.232l3.82-3.819v19.055l13.159,0.412l0.627,0.627
	c3.069,3.068,4.89,2.392,5.332,2.183l10.729-10.729l-2.717-0.74l2.484-10.552H138.9v28.654l-11.127,1.854l-0.396-1.979l-8.91,8.91
	c-0.108,0.109-0.271,0.287-0.481,0.52C110.552,142.638,102.875,146.76,95.167,146.76 M76.278,107.831
	c-2.604,3.812-3.854,7.753-3.725,11.771c0.283,8.755,6.94,14.986,7.007,15.045l0.146,0.134c4.978,4.979,10.178,7.502,15.457,7.503
	h0.002c6.401,0,12.967-3.632,19.519-10.796c0.272-0.297,0.479-0.521,0.621-0.662l14.821-14.822l1.187,5.931l3.112-0.52v-20.39
	h-20.514l-0.683,2.896l5.986,1.633l-16.594,16.566c-0.247,0.188-1.586,1.128-3.745,1.129c-2.3,0-4.599-1.031-6.845-3.068
	l-15.754-0.492L76.278,107.831L76.278,107.831z"/>
<polygon fill="#96D5CF" points="77.03,39.379 65.29,42.088 54.454,39.379 54.454,33.058 65.29,35.767 77.03,33.058 "/>
<polygon fill="#96D5CF" points="77.03,48.409 65.29,51.118 54.454,48.409 54.454,42.089 65.29,44.798 77.03,42.089 "/>
<polygon fill="#FFFFFF" points="161.395,39.379 149.654,42.088 138.818,39.379 138.818,33.058 149.654,35.767 161.395,33.058 "/>
<polygon fill="#FFFFFF" points="161.395,48.409 149.654,51.118 138.818,48.409 138.818,42.089 149.654,44.798 161.395,42.089 "/>
</svg>
