<?xml version="1.0" encoding="utf-8"?>
<!-- Generator: Adobe Illustrator 16.0.0, SVG Export Plug-In . SVG Version: 6.00 Build 0)  -->
<!DOCTYPE svg PUBLIC "-//W3C//DTD SVG 1.1//EN" "http://www.w3.org/Graphics/SVG/1.1/DTD/svg11.dtd">
<svg version="1.1" id="Layer_1" xmlns="http://www.w3.org/2000/svg" xmlns:xlink="http://www.w3.org/1999/xlink" x="0px" y="0px"
	 width="215px" height="195px" viewBox="0 0 215 195" enable-background="new 0 0 215 195" xml:space="preserve">
<path fill="#1A1A19" d="M107.099,188.833l0.399-0.001l0.399,0.001"/>
<path fill="#1A1A19" d="M107.533,189.833l0.399-0.001l0.399,0.001"/>
<path fill="#1A1A19" d="M128.563,163.185c-10.387,6.446-19.063,10.538-20.965,11.416c-1.905-0.878-10.58-4.97-20.967-11.416v0.492
	c-0.003-0.002,0.004-0.005,0-0.007v15.051c11.415,7.015,20.568,11.112,20.568,11.112l0.399-0.001l0.399,0.001
	c0,0,9.15-4.099,20.566-11.112V163.67c-0.004,0.002,0.004,0.005,0,0.007V163.185L128.563,163.185z"/>
<path fill="#FFFFFF" d="M83.313,162.048c-9.748-6.171-20.759-14.313-29.014-23.745v15.051c8.118,9.569,19.145,17.858,29.014,24.171
	v-15.052c-0.004-0.002,0.003-0.005,0-0.007V162.048z"/>
<path fill="#FFFFFF" d="M131.879,162.048v0.418c-0.004,0.002,0.002,0.005,0,0.007v15.052c9.869-6.313,20.895-14.602,29.014-24.171
	v-15.051C152.637,147.734,141.627,155.877,131.879,162.048"/>
<path fill="#96D5CF" d="M45.069,38.809v19.647l0.008,48.178c0,34.526,62.52,62.519,62.52,62.519s62.518-27.991,62.518-62.519
	l0.009-48.178V38.809H45.069z"/>
<g opacity="0.5">
	<g>
		<g>
			<defs>
				<rect id="SVGID_1_" x="108.189" y="37.922" width="60.021" height="127.574"/>
			</defs>
			<clipPath id="SVGID_2_">
				<use xlink:href="#SVGID_1_"  overflow="visible"/>
			</clipPath>
			<path clip-path="url(#SVGID_2_)" fill="#189995" d="M108.314,165.496c5.59-2.753,17.619-9.048,29.469-17.652
				c9.191-6.674,16.453-13.391,21.588-19.966c5.865-7.514,8.841-14.723,8.841-21.427V59.226V37.921h-60.024v127.511
				C108.229,165.453,108.273,165.476,108.314,165.496"/>
		</g>
	</g>
</g>
<g opacity="0.4">
	<g>
		<g>
			<defs>
				<rect id="SVGID_3_" x="42.99" y="34.13" width="129.21" height="137.192"/>
			</defs>
			<clipPath id="SVGID_4_">
				<use xlink:href="#SVGID_3_"  overflow="visible"/>
			</clipPath>
			<path clip-path="url(#SVGID_4_)" fill="#FFFFFF" d="M158.408,47.927v9.011l-0.01,49.784c0,18.229-31.244,39.336-50.802,49.295
				c-19.566-9.964-50.805-31.067-50.805-49.298l-0.008-49.776v-9.016H158.408 M172.205,34.13H42.987v22.813l0.009,49.779
				c0,35.678,64.6,64.602,64.6,64.602s64.602-28.924,64.602-64.602l0.008-49.779L172.205,34.13L172.205,34.13z"/>
		</g>
	</g>
</g>
<path fill="#1A1A19" d="M172.204,21.777c0-3.458-2.804-6.263-6.261-6.263h-18.838L108.04,4.562L70.279,15.515H49.248
	c-3.458,0-6.261,2.805-6.261,6.263V34.13v22.812l0.008,49.78c0,35.679,64.601,64.602,64.601,64.602s64.599-28.923,64.599-64.602
	l0.009-49.78v-6.282V21.777L172.204,21.777z M164.68,56.939l-0.008,49.781c0,8.39-5.031,22.043-28.998,39.445
	c-11.291,8.199-22.754,14.197-28.081,16.82c-5.288-2.602-16.619-8.527-27.885-16.683c-24.124-17.462-29.187-31.164-29.187-39.585
	l-0.009-49.779v-6.282H164.68V56.939z"/>
<polygon fill="#FFFFFF" points="90.204,42.069 90.204,27.197 87.163,30.358 84.845,27.921 90.746,21.989 94.268,21.989 
	94.268,42.069 "/>
<path fill="#FFFFFF" d="M97.005,32.044c0-5.178,2.138-10.354,7.106-10.354c4.997,0,7.104,5.178,7.104,10.354
	c0,5.148-2.076,10.388-7.104,10.388C99.143,42.432,97.005,37.192,97.005,32.044 M107.121,32.044c0-3.883-0.663-6.771-3.01-6.771
	c-2.319,0-2.981,2.89-2.981,6.771c0,3.854,0.662,6.806,2.981,6.806C106.458,38.85,107.121,35.898,107.121,32.044"/>
<path fill="#FFFFFF" d="M113.17,32.044c0-5.178,2.137-10.354,7.105-10.354c4.996,0,7.104,5.178,7.104,10.354
	c0,5.148-2.076,10.388-7.104,10.388C115.307,42.432,113.17,37.192,113.17,32.044 M123.285,32.044c0-3.883-0.662-6.771-3.01-6.771
	c-2.319,0-2.981,2.89-2.981,6.771c0,3.854,0.662,6.806,2.981,6.806C122.623,38.85,123.285,35.898,123.285,32.044"/>
<path fill="#191818" d="M118.268,89.004c3.986,3.987,2.437,12-3.463,17.897c-5.896,5.897-13.91,7.446-17.896,3.461
	c-3.986-3.986-2.437-12,3.461-17.897C106.267,86.566,114.279,85.017,118.268,89.004"/>
<path fill="#FFFFFF" d="M136.59,71.08c-19.578-19.579-36.784,1.978-38.762,3.955C94.268,78.595,85.962,86.9,85.962,86.9
	l-0.791-3.955l-7.119,1.187v24.522h0.193h24.329l1.583-6.724l-4.351-1.187l13.645-13.646c0,0,3.361-2.57,8.307,2.373l13.807,0.434
	l0.636,0.021v15.821C154.133,87.813,137.18,71.544,136.59,71.08"/>
<path fill="#FFFFFF" d="M136.59,71.08c-19.578-19.579-36.784,1.978-38.762,3.955C94.268,78.595,85.962,86.9,85.962,86.9
	l-0.791-3.955l-7.119,1.187v24.522h0.193c8.183-8.184,26.646-26.646,28.946-28.945c7.713-7.713,16.81-9.295,24.523,1.384
	c2.185,3.025,3.328,6.041,3.849,8.813l0.637,0.021v15.821C154.133,87.813,137.18,71.544,136.59,71.08"/>
<path fill="#96D5CF" d="M107.191,79.709c-2.3,2.3-20.763,20.763-28.946,28.946h24.329l1.582-6.726l-4.35-1.186l13.645-13.646
	c0,0,3.361-2.57,8.307,2.373l13.807,0.435c-0.521-2.771-1.666-5.787-3.85-8.813C124.002,70.414,114.904,71.996,107.191,79.709"/>
<path fill="#191818" d="M133.962,111.146V92.092l-13.159-0.411l-0.627-0.627c-1.561-1.562-3.061-2.387-4.339-2.387
	c-0.493,0-0.836,0.128-0.993,0.203l-10.729,10.729l2.715,0.74l-2.483,10.552H75.814V82.235l11.126-1.854l0.396,1.98l8.91-8.909
	c0.108-0.107,0.269-0.286,0.48-0.517c7.435-8.13,15.115-12.253,22.825-12.253c6.508,0,12.773,2.966,18.621,8.813l-0.003,0.003
	c1.229,1.161,7.862,7.882,8.437,17.596c0.426,7.146-2.545,13.952-8.823,20.231L133.962,111.146z M80.289,106.417h20.514l0.681-2.896
	l-5.987-1.633l16.597-16.567c0.245-0.188,1.584-1.129,3.743-1.129c2.302,0,4.599,1.032,6.845,3.068l15.754,0.492V99.61
	c2.605-3.812,3.855-7.753,3.728-11.772c-0.283-8.754-6.938-14.984-7.009-15.044l-0.146-0.134
	c-4.978-4.979-10.178-7.502-15.457-7.502c-6.401,0-12.97,3.633-19.522,10.797c-0.27,0.296-0.478,0.521-0.617,0.661L84.59,91.438
	l-1.186-5.931l-3.113,0.52v20.391H80.289z"/>
<path fill="#FFFFFF" d="M77.797,127.363c19.579,19.579,36.784-1.979,38.762-3.955c3.562-3.561,11.866-11.866,11.866-11.866
	l0.791,3.955l7.119-1.187V89.788h-0.192c-8.184,8.184-26.646,26.646-28.947,28.946c-7.713,7.713-16.81,9.295-24.523-1.385
	c-2.184-3.024-3.329-6.041-3.849-8.813l-0.636-0.021v-15.82C60.255,110.632,77.207,126.899,77.797,127.363"/>
<path fill="#FFFFFF" d="M136.143,89.788h-24.33l-1.582,6.724l4.351,1.188l-13.646,13.645c0,0-3.361,2.571-8.306-2.373l-13.805-0.433
	l-0.636-0.02V92.698c-17.933,17.934-0.982,34.202-0.391,34.666c19.579,19.579,36.784-1.979,38.762-3.955
	c3.562-3.562,11.866-11.866,11.866-11.866l0.791,3.955l7.119-1.187V89.789L136.143,89.788L136.143,89.788z"/>
<path fill="#96D5CF" d="M107.196,118.734c2.3-2.301,20.763-20.764,28.947-28.946h-24.33l-1.582,6.725l4.351,1.187l-13.645,13.646
	c0,0-3.362,2.57-8.306-2.373l-13.806-0.434c0.52,2.771,1.665,5.787,3.849,8.813C90.386,128.029,99.483,126.447,107.196,118.734"/>
<path fill="#191818" d="M94.839,137.76h-0.003c-6.509-0.002-12.774-2.967-18.621-8.813l0.003-0.003
	c-1.23-1.161-7.862-7.883-8.437-17.595c-0.424-7.146,2.545-13.954,8.825-20.232l3.82-3.819v19.055l13.159,0.412l0.627,0.627
	c3.069,3.068,4.89,2.392,5.332,2.183l10.729-10.729l-2.715-0.74l2.483-10.552h28.531v28.654l-11.125,1.854l-0.396-1.979l-8.908,8.91
	c-0.11,0.109-0.271,0.287-0.483,0.521C110.225,133.639,102.546,137.76,94.839,137.76 M75.951,98.831
	c-2.604,3.812-3.854,7.753-3.725,11.771c0.283,8.755,6.94,14.986,7.007,15.045l0.146,0.134c4.978,4.979,10.178,7.502,15.457,7.503
	h0.002c6.401,0,12.967-3.632,19.52-10.795c0.271-0.297,0.48-0.522,0.619-0.663l14.822-14.822l1.186,5.931l3.113-0.52v-20.39h-20.513
	l-0.681,2.896l5.984,1.633l-16.595,16.566c-0.247,0.188-1.586,1.128-3.745,1.129c-2.3,0-4.599-1.031-6.845-3.068l-15.754-0.492
	L75.951,98.831L75.951,98.831z"/>
<polygon fill="#FFFFFF" points="160.129,30.905 148.389,33.614 137.553,30.905 137.553,24.584 148.389,27.293 160.129,24.584 "/>
<polygon fill="#FFFFFF" points="160.129,39.936 148.389,42.645 137.553,39.936 137.553,33.614 148.389,36.323 160.129,33.614 "/>
<polygon fill="#FFFFFF" points="76.621,29.538 69.163,28.406 65.842,21.309 62.522,28.406 55.063,29.538 60.453,35.072 
	59.105,42.867 65.842,39.186 72.579,42.867 71.232,35.072 "/>
</svg>
