<?xml version="1.0" encoding="utf-8"?>
<!-- Generator: Adobe Illustrator 16.0.0, SVG Export Plug-In . SVG Version: 6.00 Build 0)  -->
<!DOCTYPE svg PUBLIC "-//W3C//DTD SVG 1.1//EN" "http://www.w3.org/Graphics/SVG/1.1/DTD/svg11.dtd">
<svg version="1.1" id="Layer_1" xmlns="http://www.w3.org/2000/svg" xmlns:xlink="http://www.w3.org/1999/xlink" x="0px" y="0px"
	 width="612px" height="792px" viewBox="0 0 612 792" enable-background="new 0 0 612 792" xml:space="preserve">
<path fill="#86D4E9" d="M305.66,319.588c-42.45,0-76.862,34.412-76.862,76.861s34.412,76.862,76.862,76.862
	c0.091,0,0.18-0.003,0.271-0.004V319.591C305.84,319.591,305.751,319.588,305.66,319.588"/>
<path fill="#51C4D6" d="M382.521,396.449c0-42.358-34.266-76.712-76.591-76.857v153.716
	C348.256,473.161,382.521,438.809,382.521,396.449"/>
<g opacity="0.4">
	<g>
		<defs>
			<rect id="SVGID_1_" x="228.8" y="319.588" width="153.72" height="153.723"/>
		</defs>
		<clipPath id="SVGID_2_">
			<use xlink:href="#SVGID_1_"  overflow="visible"/>
		</clipPath>
		<path clip-path="url(#SVGID_2_)" fill="#FFFFFF" d="M305.66,330.414c36.412,0,66.035,29.622,66.035,66.035
			c0,36.412-29.623,66.036-66.035,66.036c-36.413,0-66.036-29.624-66.036-66.036C239.624,360.036,269.247,330.414,305.66,330.414
			 M305.66,319.588c-42.45,0-76.862,34.412-76.862,76.861c0,42.45,34.412,76.862,76.862,76.862
			c42.449,0,76.861-34.412,76.861-76.862C382.521,354,348.109,319.588,305.66,319.588"/>
	</g>
</g>
<path fill="#1A1A19" d="M305.66,477.372c-44.62,0-80.921-36.303-80.921-80.923c0-44.619,36.301-80.921,80.921-80.921
	c44.619,0,80.921,36.302,80.921,80.921C386.581,441.069,350.279,477.372,305.66,477.372 M305.66,323.647
	c-40.144,0-72.802,32.659-72.802,72.802c0,40.144,32.659,72.803,72.802,72.803c40.143,0,72.802-32.659,72.802-72.803
	C378.462,356.307,345.803,323.647,305.66,323.647"/>
<path fill="#51C4D6" d="M277.934,355.284c-3.205,0-5.802,2.599-5.802,5.802v70.727c0,3.204,2.597,5.802,5.802,5.802h55.452
	c3.204,0,5.802-2.598,5.802-5.802v-70.727c0-3.203-2.598-5.802-5.802-5.802H277.934z"/>
<g>
	<defs>
		<path id="SVGID_3_" d="M277.934,355.285c-3.205,0-5.803,2.598-5.803,5.801v70.727c0,3.203,2.598,5.804,5.803,5.804h55.451
			c3.206,0,5.803-2.601,5.803-5.804v-70.727c0-3.203-2.597-5.801-5.803-5.801H277.934z"/>
	</defs>
	<clipPath id="SVGID_4_">
		<use xlink:href="#SVGID_3_"  overflow="visible"/>
	</clipPath>
	<path clip-path="url(#SVGID_4_)" fill="#FFFFFF" d="M339.659,426.081c-7.093-4.177-11.714-12.587-22.848-16.946
		c-2.818,3.16-6.405,5.208-10.672,5.208c-4.295,0-7.902-2.077-10.729-5.274c-11.157,4.339-15.89,12.814-23.02,17.013
		c-1.56,0.919-2.763,3.231-2.763,5.043l4.919,15.219h61.973l5.902-15.219C342.422,429.313,341.219,427,339.659,426.081"/>
	<path clip-path="url(#SVGID_4_)" fill="#191818" d="M337.881,448.331H273.1l-5.46-16.895v-0.313c0-2.597,1.609-5.5,3.743-6.756
		c2.589-1.525,4.935-3.748,7.42-6.104c4.088-3.873,8.722-8.263,15.887-11.05l1.292-0.502l0.918,1.038
		c2.701,3.055,5.811,4.604,9.24,4.604c3.408,0,6.499-1.527,9.188-4.543l0.921-1.031l1.287,0.504
		c7.143,2.796,11.725,7.158,15.768,11.008c2.461,2.343,4.786,4.557,7.364,6.076c2.134,1.256,3.743,4.159,3.743,6.756v0.372
		L337.881,448.331z M275.994,444.354h59.164l5.255-13.55c-0.138-1.116-0.943-2.527-1.764-3.011
		c-2.971-1.749-5.456-4.116-8.089-6.622c-3.704-3.527-7.525-7.167-13.252-9.677c-3.232,3.171-7.068,4.838-11.169,4.838
		c-4.128,0-7.987-1.691-11.235-4.905c-5.75,2.508-9.618,6.173-13.367,9.725c-2.653,2.515-5.16,4.89-8.139,6.642
		c-0.832,0.491-1.649,1.938-1.768,3.063L275.994,444.354z"/>
	<polygon clip-path="url(#SVGID_4_)" fill="#191818" points="296.53,413.11 315.521,413.11 306.025,432.101 	"/>
	<path clip-path="url(#SVGID_4_)" fill="#1A1A19" d="M323.861,386.133c-0.096-1.088-0.258-2.149-0.477-3.178
		c-1.836-8.627-7.938-14.944-17.359-14.944s-15.525,6.317-17.36,14.944c-0.219,1.028-0.381,2.09-0.476,3.178
		c-2.479,0.7-4.297,2.973-4.297,5.675c0,3.101,2.391,5.637,5.429,5.879c2.404,8.859,8.206,16.984,16.704,16.984
		s14.3-8.125,16.704-16.984c3.038-0.242,5.429-2.778,5.429-5.879C328.158,389.105,326.34,386.833,323.861,386.133"/>
	<path clip-path="url(#SVGID_4_)" fill="#FFFFFF" d="M323.861,386.133c-0.096-1.088-0.258-2.149-0.477-3.178
		c-1.07-5.034-3.598-9.279-7.386-11.944c-3.835,15.19-21.224,16.683-30.142,16.411c-1.204,1.079-1.965,2.642-1.965,4.386
		c0,3.101,2.391,5.637,5.429,5.879c2.404,8.859,8.206,16.984,16.704,16.984s14.3-8.125,16.704-16.984
		c3.038-0.242,5.429-2.778,5.429-5.879C328.158,389.105,326.34,386.833,323.861,386.133"/>
	<path clip-path="url(#SVGID_4_)" fill="#51C4D6" d="M315.999,371.011c-2.704-1.901-6.05-3.001-9.974-3.001
		c-9.422,0-15.524,6.317-17.359,14.945c-0.219,1.029-0.381,2.089-0.477,3.178c-0.878,0.248-1.671,0.696-2.332,1.289
		C294.775,387.694,312.165,386.2,315.999,371.011"/>
	<path clip-path="url(#SVGID_4_)" fill="#191818" d="M306.025,416.659c-9.583,0-15.635-8.685-18.271-17.233
		c-3.375-0.909-5.851-4.02-5.851-7.617c0-3.041,1.77-5.788,4.438-7.09c1.473-11.403,9.089-18.697,19.683-18.697
		c10.593,0,18.209,7.294,19.683,18.697c2.669,1.302,4.438,4.049,4.438,7.09c0,3.598-2.477,6.708-5.852,7.617
		C321.66,407.975,315.607,416.659,306.025,416.659 M306.025,369.998c-8.762,0-14.984,6.401-15.855,16.31l-0.121,1.366l-1.32,0.372
		c-1.677,0.474-2.849,2.021-2.849,3.763c0,2.023,1.581,3.735,3.599,3.896l1.395,0.111l0.366,1.351
		c2.035,7.501,6.988,15.518,14.785,15.518c7.797,0,12.75-8.017,14.785-15.518l0.365-1.351l1.396-0.111
		c2.018-0.16,3.599-1.872,3.599-3.896c0-1.742-1.171-3.289-2.849-3.763l-1.32-0.372l-0.12-1.366
		C321.009,376.399,314.785,369.998,306.025,369.998"/>
</g>
<path fill="#191818" d="M333.386,439.779h-55.452c-4.393,0-7.967-3.574-7.967-7.967v-70.725c0-4.395,3.574-7.969,7.967-7.969h55.452
	c4.394,0,7.967,3.574,7.967,7.969v70.725C341.353,436.205,337.779,439.779,333.386,439.779 M277.934,357.449
	c-2.005,0-3.637,1.632-3.637,3.639v70.725c0,2.005,1.632,3.637,3.637,3.637h55.452c2.006,0,3.637-1.632,3.637-3.637v-70.725
	c0-2.007-1.631-3.639-3.637-3.639H277.934z"/>
</svg>
