<?xml version="1.0" encoding="utf-8"?>
<!-- Generator: Adobe Illustrator 16.0.0, SVG Export Plug-In . SVG Version: 6.00 Build 0)  -->
<!DOCTYPE svg PUBLIC "-//W3C//DTD SVG 1.1//EN" "http://www.w3.org/Graphics/SVG/1.1/DTD/svg11.dtd">
<svg version="1.1" id="Layer_1" xmlns="http://www.w3.org/2000/svg" xmlns:xlink="http://www.w3.org/1999/xlink" x="0px" y="0px"
	 width="215px" height="195px" viewBox="0 0 215 195" enable-background="new 0 0 215 195" xml:space="preserve">
<path fill="#87D4E9" d="M107.66,19.588c-42.45,0-76.862,34.412-76.862,76.861s34.412,76.861,76.862,76.861
	c0.091,0,0.18-0.003,0.271-0.004V19.591C107.84,19.591,107.751,19.588,107.66,19.588"/>
<path fill="#51C4D6" d="M184.521,96.449c0-42.358-34.267-76.712-76.591-76.857v153.716
	C150.256,173.161,184.521,138.809,184.521,96.449"/>
<g opacity="0.4">
	<g>
		<g>
			<defs>
				<rect id="SVGID_1_" x="30.8" y="19.588" width="153.72" height="153.723"/>
			</defs>
			<clipPath id="SVGID_2_">
				<use xlink:href="#SVGID_1_"  overflow="visible"/>
			</clipPath>
			<path clip-path="url(#SVGID_2_)" fill="#FFFFFF" d="M107.66,30.414c36.412,0,66.035,29.622,66.035,66.035
				c0,36.412-29.623,66.036-66.035,66.036c-36.413,0-66.036-29.624-66.036-66.036C41.624,60.036,71.247,30.414,107.66,30.414
				 M107.66,19.588c-42.45,0-76.862,34.412-76.862,76.861c0,42.45,34.412,76.861,76.862,76.861
				c42.449,0,76.861-34.411,76.861-76.861C184.521,54,150.109,19.588,107.66,19.588"/>
		</g>
	</g>
</g>
<path fill="#1A1A19" d="M107.66,177.372c-44.62,0-80.921-36.303-80.921-80.923c0-44.619,36.301-80.921,80.921-80.921
	c44.619,0,80.921,36.302,80.921,80.921C188.581,141.069,152.279,177.372,107.66,177.372 M107.66,23.647
	c-40.144,0-72.802,32.658-72.802,72.802s32.659,72.803,72.802,72.803c40.143,0,72.802-32.659,72.802-72.803
	C180.462,56.307,147.803,23.647,107.66,23.647"/>
<path fill="#51C4D6" d="M79.934,55.284c-3.205,0-5.802,2.599-5.802,5.802v70.727c0,3.204,2.597,5.803,5.802,5.803h55.452
	c3.204,0,5.802-2.599,5.802-5.803V61.086c0-3.203-2.598-5.802-5.802-5.802H79.934z"/>
<g>
	<g>
		<defs>
			<path id="SVGID_3_" d="M79.934,55.285c-3.205,0-5.803,2.598-5.803,5.801v70.727c0,3.203,2.598,5.805,5.803,5.805h55.451
				c3.206,0,5.803-2.602,5.803-5.805V61.086c0-3.203-2.597-5.801-5.803-5.801H79.934z"/>
		</defs>
		<clipPath id="SVGID_4_">
			<use xlink:href="#SVGID_3_"  overflow="visible"/>
		</clipPath>
		<path clip-path="url(#SVGID_4_)" fill="#FFFFFF" d="M141.659,126.081c-7.093-4.177-11.714-12.587-22.849-16.946
			c-2.817,3.16-6.404,5.208-10.672,5.208c-4.295,0-7.902-2.077-10.729-5.273c-11.157,4.339-15.89,12.813-23.02,17.013
			c-1.56,0.919-2.763,3.231-2.763,5.043l4.919,15.219h61.974l5.901-15.219C144.422,129.313,143.219,127,141.659,126.081"/>
	</g>
	<g>
		<defs>
			<path id="SVGID_5_" d="M79.934,55.285c-3.205,0-5.803,2.598-5.803,5.801v70.727c0,3.203,2.598,5.805,5.803,5.805h55.451
				c3.206,0,5.803-2.602,5.803-5.805V61.086c0-3.203-2.597-5.801-5.803-5.801H79.934z"/>
		</defs>
		<clipPath id="SVGID_6_">
			<use xlink:href="#SVGID_5_"  overflow="visible"/>
		</clipPath>
		<path clip-path="url(#SVGID_6_)" fill="#191818" d="M139.881,148.331H75.1l-5.46-16.896v-0.313c0-2.597,1.609-5.5,3.743-6.756
			c2.589-1.525,4.935-3.748,7.42-6.104c4.088-3.873,8.722-8.263,15.887-11.05l1.292-0.502l0.918,1.038
			c2.701,3.055,5.811,4.604,9.241,4.604c3.407,0,6.498-1.526,9.188-4.543l0.921-1.03l1.287,0.504
			c7.144,2.796,11.725,7.158,15.769,11.008c2.461,2.343,4.785,4.557,7.363,6.076c2.134,1.256,3.743,4.159,3.743,6.756v0.372
			L139.881,148.331z M77.994,144.354h59.164l5.255-13.55c-0.138-1.115-0.942-2.526-1.765-3.011
			c-2.971-1.749-5.455-4.116-8.088-6.622c-3.705-3.527-7.525-7.167-13.252-9.677c-3.232,3.171-7.068,4.838-11.17,4.838
			c-4.128,0-7.987-1.691-11.235-4.905c-5.75,2.508-9.618,6.173-13.367,9.726c-2.653,2.515-5.16,4.89-8.139,6.642
			c-0.832,0.491-1.649,1.938-1.768,3.063L77.994,144.354z"/>
	</g>
	<g>
		<defs>
			<path id="SVGID_7_" d="M79.934,55.285c-3.205,0-5.803,2.598-5.803,5.801v70.727c0,3.203,2.598,5.805,5.803,5.805h55.451
				c3.206,0,5.803-2.602,5.803-5.805V61.086c0-3.203-2.597-5.801-5.803-5.801H79.934z"/>
		</defs>
		<clipPath id="SVGID_8_">
			<use xlink:href="#SVGID_7_"  overflow="visible"/>
		</clipPath>
		<polygon clip-path="url(#SVGID_8_)" fill="#191818" points="98.53,113.11 117.521,113.11 108.025,132.101 		"/>
	</g>
	<g>
		<defs>
			<path id="SVGID_9_" d="M79.934,55.285c-3.205,0-5.803,2.598-5.803,5.801v70.727c0,3.203,2.598,5.805,5.803,5.805h55.451
				c3.206,0,5.803-2.602,5.803-5.805V61.086c0-3.203-2.597-5.801-5.803-5.801H79.934z"/>
		</defs>
		<clipPath id="SVGID_10_">
			<use xlink:href="#SVGID_9_"  overflow="visible"/>
		</clipPath>
		<path clip-path="url(#SVGID_10_)" fill="#1A1A19" d="M125.861,86.133c-0.096-1.088-0.258-2.148-0.478-3.178
			c-1.836-8.627-7.938-14.944-17.358-14.944c-9.421,0-15.525,6.317-17.36,14.944c-0.219,1.028-0.381,2.09-0.476,3.178
			c-2.479,0.7-4.297,2.974-4.297,5.675c0,3.102,2.391,5.638,5.429,5.879c2.404,8.859,8.206,16.984,16.705,16.984
			c8.498,0,14.3-8.125,16.703-16.984c3.039-0.241,5.43-2.777,5.43-5.879C130.158,89.105,128.34,86.833,125.861,86.133"/>
	</g>
	<g>
		<defs>
			<path id="SVGID_11_" d="M79.934,55.285c-3.205,0-5.803,2.598-5.803,5.801v70.727c0,3.203,2.598,5.805,5.803,5.805h55.451
				c3.206,0,5.803-2.602,5.803-5.805V61.086c0-3.203-2.597-5.801-5.803-5.801H79.934z"/>
		</defs>
		<clipPath id="SVGID_12_">
			<use xlink:href="#SVGID_11_"  overflow="visible"/>
		</clipPath>
		<path clip-path="url(#SVGID_12_)" fill="#FFFFFF" d="M125.861,86.133c-0.096-1.088-0.258-2.148-0.478-3.178
			c-1.069-5.034-3.598-9.279-7.386-11.944c-3.835,15.19-21.224,16.684-30.142,16.411c-1.204,1.079-1.965,2.643-1.965,4.386
			c0,3.102,2.391,5.638,5.429,5.879c2.404,8.859,8.206,16.984,16.704,16.984c8.498,0,14.301-8.125,16.705-16.984
			c3.037-0.241,5.429-2.777,5.429-5.879C130.158,89.105,128.34,86.833,125.861,86.133"/>
	</g>
	<g>
		<defs>
			<path id="SVGID_13_" d="M79.934,55.285c-3.205,0-5.803,2.598-5.803,5.801v70.727c0,3.203,2.598,5.805,5.803,5.805h55.451
				c3.206,0,5.803-2.602,5.803-5.805V61.086c0-3.203-2.597-5.801-5.803-5.801H79.934z"/>
		</defs>
		<clipPath id="SVGID_14_">
			<use xlink:href="#SVGID_13_"  overflow="visible"/>
		</clipPath>
		<path clip-path="url(#SVGID_14_)" fill="#51C4D6" d="M117.999,71.011c-2.704-1.9-6.05-3.001-9.974-3.001
			c-9.422,0-15.524,6.317-17.359,14.945c-0.219,1.029-0.381,2.089-0.477,3.178c-0.878,0.248-1.671,0.696-2.332,1.289
			C96.775,87.694,114.165,86.2,117.999,71.011"/>
	</g>
	<g>
		<defs>
			<path id="SVGID_15_" d="M79.934,55.285c-3.205,0-5.803,2.598-5.803,5.801v70.727c0,3.203,2.598,5.805,5.803,5.805h55.451
				c3.206,0,5.803-2.602,5.803-5.805V61.086c0-3.203-2.597-5.801-5.803-5.801H79.934z"/>
		</defs>
		<clipPath id="SVGID_16_">
			<use xlink:href="#SVGID_15_"  overflow="visible"/>
		</clipPath>
		<path clip-path="url(#SVGID_16_)" fill="#191818" d="M108.025,116.659c-9.583,0-15.635-8.686-18.271-17.233
			c-3.375-0.909-5.851-4.02-5.851-7.617c0-3.041,1.77-5.787,4.438-7.09c1.473-11.402,9.089-18.696,19.683-18.696
			c10.594,0,18.209,7.294,19.684,18.696c2.669,1.303,4.438,4.049,4.438,7.09c0,3.599-2.477,6.708-5.852,7.617
			C123.66,107.975,117.607,116.659,108.025,116.659 M108.025,69.998c-8.762,0-14.984,6.401-15.855,16.31l-0.121,1.366l-1.32,0.372
			c-1.677,0.474-2.849,2.021-2.849,3.763c0,2.023,1.581,3.735,3.599,3.896l1.395,0.111l0.366,1.351
			c2.035,7.501,6.988,15.518,14.786,15.518c7.797,0,12.75-8.017,14.785-15.518l0.364-1.351l1.396-0.111
			c2.019-0.16,3.6-1.872,3.6-3.896c0-1.741-1.171-3.289-2.85-3.763l-1.319-0.372l-0.12-1.366
			C123.009,76.399,116.785,69.998,108.025,69.998"/>
	</g>
</g>
<path fill="#191818" d="M135.386,139.779H79.934c-4.393,0-7.967-3.574-7.967-7.968V61.087c0-4.395,3.574-7.969,7.967-7.969h55.452
	c4.394,0,7.968,3.574,7.968,7.969v70.725C143.354,136.205,139.779,139.779,135.386,139.779 M79.934,57.449
	c-2.005,0-3.637,1.632-3.637,3.639v70.726c0,2.005,1.632,3.637,3.637,3.637h55.452c2.007,0,3.638-1.632,3.638-3.637V61.088
	c0-2.007-1.631-3.639-3.638-3.639H79.934z"/>
</svg>
