<?xml version="1.0" encoding="utf-8"?>
<!-- Generator: Adobe Illustrator 16.0.0, SVG Export Plug-In . SVG Version: 6.00 Build 0)  -->
<!DOCTYPE svg PUBLIC "-//W3C//DTD SVG 1.1//EN" "http://www.w3.org/Graphics/SVG/1.1/DTD/svg11.dtd">
<svg version="1.1" id="Layer_1" xmlns="http://www.w3.org/2000/svg" xmlns:xlink="http://www.w3.org/1999/xlink" x="0px" y="0px"
	 width="612px" height="792px" viewBox="0 0 612 792" enable-background="new 0 0 612 792" xml:space="preserve">
<path fill="#86D4E9" d="M305.987,319.588c-42.449,0-76.862,34.412-76.862,76.861s34.413,76.862,76.862,76.862
	c0.091,0,0.18-0.003,0.271-0.004V319.591C306.167,319.591,306.078,319.588,305.987,319.588"/>
<path fill="#51C4D6" d="M382.85,396.449c0-42.358-34.267-76.712-76.592-76.857v153.716
	C348.583,473.161,382.85,438.809,382.85,396.449"/>
<g opacity="0.4">
	<g>
		<defs>
			<rect id="SVGID_1_" x="229.13" y="319.588" width="153.72" height="153.723"/>
		</defs>
		<clipPath id="SVGID_2_">
			<use xlink:href="#SVGID_1_"  overflow="visible"/>
		</clipPath>
		<path clip-path="url(#SVGID_2_)" fill="#FFFFFF" d="M305.987,330.414c36.413,0,66.036,29.622,66.036,66.035
			c0,36.412-29.623,66.036-66.036,66.036c-36.412,0-66.036-29.624-66.036-66.036C239.951,360.036,269.575,330.414,305.987,330.414
			 M305.987,319.588c-42.45,0-76.862,34.412-76.862,76.861c0,42.45,34.412,76.862,76.862,76.862s76.862-34.412,76.862-76.862
			C382.85,354,348.438,319.588,305.987,319.588"/>
	</g>
</g>
<path fill="#1A1A19" d="M305.987,477.372c-44.62,0-80.921-36.303-80.921-80.923c0-44.619,36.301-80.921,80.921-80.921
	s80.921,36.302,80.921,80.921C386.908,441.069,350.607,477.372,305.987,477.372 M305.987,323.647
	c-40.143,0-72.802,32.659-72.802,72.802c0,40.144,32.659,72.803,72.802,72.803c40.144,0,72.802-32.659,72.802-72.803
	C378.789,356.307,346.131,323.647,305.987,323.647"/>
<path fill="#51C4D6" d="M328.787,423.55l-5.059,18.665c-0.255,1.503-1.697,2.721-3.222,2.721h-29.04
	c-1.524,0-2.966-1.218-3.221-2.721l-5.059-18.665H328.787z"/>
<path fill="#51C4D6" d="M283.188,366.5l5.059-15.815c0.254-1.503,1.697-2.721,3.221-2.721h29.041c1.523,0,2.966,1.218,3.221,2.721
	l5.059,15.815H283.188z"/>
<path fill="#191818" d="M320.508,447.102h-29.04c-2.534,0-4.853-1.928-5.335-4.408l-5.775-21.31h51.26l-5.775,21.31
	C325.359,445.174,323.041,447.102,320.508,447.102 M286.018,425.714l4.363,16.14c0.079,0.463,0.617,0.918,1.087,0.918h29.04
	c0.469,0,1.007-0.455,1.086-0.918l0.045-0.205l4.318-15.935H286.018z"/>
<path fill="#191818" d="M331.754,368.665h-51.532l5.922-18.515c0.505-2.454,2.809-4.353,5.324-4.353h29.04
	c2.515,0,4.818,1.898,5.322,4.353L331.754,368.665z M286.153,364.335h39.668l-4.228-13.289c-0.079-0.463-0.616-0.918-1.086-0.918
	h-29.04c-0.47,0-1.008,0.455-1.086,0.918l-0.073,0.298L286.153,364.335z"/>
<path fill="#191818" d="M328.775,424.519h-45.577c-3.048,0-5.519-2.472-5.519-5.521V372.02c0-3.048,2.471-5.52,5.519-5.52h45.577
	c3.049,0,5.52,2.472,5.52,5.52v46.979C334.295,422.047,331.824,424.519,328.775,424.519"/>
<path fill="#191818" d="M328.775,426.544h-45.576c-4.16,0-7.544-3.386-7.544-7.545V372.02c0-4.16,3.384-7.544,7.544-7.544h45.576
	c4.16,0,7.545,3.384,7.545,7.544v46.979C336.32,423.158,332.936,426.544,328.775,426.544 M283.199,368.524
	c-1.927,0-3.495,1.568-3.495,3.495v46.979c0,1.927,1.568,3.496,3.495,3.496h45.576c1.928,0,3.495-1.569,3.495-3.496V372.02
	c0-1.927-1.567-3.495-3.495-3.495H283.199z"/>
<path fill="#FFFFFF" d="M323.086,415.774h-34.175c-2.329,0-4.217-1.889-4.217-4.219v-31.69c0-2.33,1.888-4.218,4.217-4.218h34.175
	c2.329,0,4.218,1.888,4.218,4.218v31.69C327.304,413.886,325.415,415.774,323.086,415.774"/>
<path fill="#191818" d="M277.679,392.946c0,1.424-1.154,2.578-2.578,2.578c-1.423,0-2.578-1.154-2.578-2.578v-19.033
	c0-1.424,1.154-2.578,2.578-2.578c1.424,0,2.578,1.154,2.578,2.578V392.946z"/>
<path fill="#191818" d="M277.679,417.135c0,1.424-1.154,2.578-2.578,2.578c-1.423,0-2.578-1.154-2.578-2.578v-19.033
	c0-1.424,1.154-2.578,2.578-2.578c1.424,0,2.578,1.154,2.578,2.578V417.135z"/>
<path fill="#191818" d="M339.451,392.946c0,1.424-1.154,2.578-2.578,2.578s-2.578-1.154-2.578-2.578v-19.033
	c0-1.424,1.154-2.578,2.578-2.578s2.578,1.154,2.578,2.578V392.946z"/>
<path fill="#191818" d="M339.451,417.135c0,1.424-1.154,2.578-2.578,2.578s-2.578-1.154-2.578-2.578v-19.033
	c0-1.424,1.154-2.578,2.578-2.578s2.578,1.154,2.578,2.578V417.135z"/>
<path fill="#51C4D6" d="M319.868,395.284c0,7.66-6.21,13.869-13.87,13.869c-7.66,0-13.869-6.209-13.869-13.869
	s6.209-13.87,13.869-13.87C313.658,381.414,319.868,387.624,319.868,395.284"/>
<path fill="#231F20" d="M309.021,400.842l-6.513-6.943v6.333c0,0.51-0.413,0.923-0.922,0.923c-0.51,0-0.923-0.413-0.923-0.923
	v-11.038c0-0.51,0.413-0.922,0.923-0.922c0.509,0,0.922,0.412,0.922,0.922v2.752h8.287c0.509,0,0.922,0.413,0.922,0.922
	c0,0.51-0.413,0.923-0.922,0.923h-6.008l5.572,5.92l-0.059-0.063C311.187,400.502,309.813,401.785,309.021,400.842"/>
<path fill="#010101" d="M309.677,401.715c-0.406,0-0.787-0.188-1.071-0.526l-5.556-5.922v4.965c0,0.807-0.657,1.463-1.464,1.463
	s-1.464-0.656-1.464-1.463v-11.038c0-0.808,0.657-1.464,1.464-1.464s1.464,0.656,1.464,1.464v2.211h7.746
	c0.807,0,1.464,0.656,1.464,1.463c0,0.809-0.657,1.464-1.464,1.464h-4.755l4.649,4.94c0.426,0.419,0.553,0.983,0.339,1.51
	C310.806,401.331,310.25,401.715,309.677,401.715 M301.967,392.53l7.449,7.94c0.136,0.162,0.229,0.162,0.261,0.162
	c0.134,0,0.29-0.116,0.348-0.258c0.027-0.066,0.048-0.166-0.06-0.294v0.001v-0.001v-0.001c-0.012-0.013-0.024-0.027-0.039-0.041
	l0.322-0.338l-0.34,0.32l-6.375-6.771h7.262c0.209,0,0.381-0.173,0.381-0.383s-0.172-0.381-0.381-0.381h-8.828v-3.293
	c0-0.21-0.171-0.382-0.381-0.382s-0.381,0.172-0.381,0.382v11.038c0,0.21,0.171,0.381,0.381,0.381s0.381-0.171,0.381-0.381V392.53z"
	/>
</svg>
