<?xml version="1.0" encoding="utf-8"?>
<!-- Generator: Adobe Illustrator 16.0.0, SVG Export Plug-In . SVG Version: 6.00 Build 0)  -->
<!DOCTYPE svg PUBLIC "-//W3C//DTD SVG 1.1//EN" "http://www.w3.org/Graphics/SVG/1.1/DTD/svg11.dtd">
<svg version="1.1" id="Layer_1" xmlns="http://www.w3.org/2000/svg" xmlns:xlink="http://www.w3.org/1999/xlink" x="0px" y="0px"
	 width="215px" height="195px" viewBox="0 0 215 195" enable-background="new 0 0 215 195" xml:space="preserve">
<path fill="#87D4E9" d="M107.987,20.588c-42.449,0-76.862,34.412-76.862,76.861s34.413,76.861,76.862,76.861
	c0.091,0,0.18-0.003,0.271-0.004V20.591C108.167,20.591,108.078,20.588,107.987,20.588"/>
<path fill="#51C4D6" d="M184.85,97.449c0-42.358-34.267-76.712-76.592-76.857v153.716C150.583,174.161,184.85,139.809,184.85,97.449
	"/>
<g opacity="0.4">
	<g>
		<g>
			<defs>
				<rect id="SVGID_1_" x="31.13" y="20.588" width="153.72" height="153.723"/>
			</defs>
			<clipPath id="SVGID_2_">
				<use xlink:href="#SVGID_1_"  overflow="visible"/>
			</clipPath>
			<path clip-path="url(#SVGID_2_)" fill="#FFFFFF" d="M107.987,31.414c36.414,0,66.037,29.622,66.037,66.035
				c0,36.412-29.623,66.036-66.037,66.036c-36.412,0-66.036-29.624-66.036-66.036C41.951,61.036,71.575,31.414,107.987,31.414
				 M107.987,20.588c-42.45,0-76.862,34.412-76.862,76.861c0,42.45,34.412,76.861,76.862,76.861
				c42.451,0,76.863-34.411,76.863-76.861C184.85,55,150.438,20.588,107.987,20.588"/>
		</g>
	</g>
</g>
<path fill="#1A1A19" d="M107.987,178.372c-44.62,0-80.921-36.303-80.921-80.923c0-44.619,36.301-80.921,80.921-80.921
	c44.621,0,80.921,36.302,80.921,80.921C188.908,142.069,152.607,178.372,107.987,178.372 M107.987,24.647
	c-40.143,0-72.802,32.658-72.802,72.802s32.659,72.803,72.802,72.803c40.144,0,72.802-32.659,72.802-72.803
	C180.789,57.307,148.131,24.647,107.987,24.647"/>
<path fill="#51C4D6" d="M130.787,124.55l-5.059,18.665c-0.256,1.503-1.697,2.721-3.223,2.721h-29.04
	c-1.524,0-2.966-1.218-3.221-2.721l-5.059-18.665H130.787z"/>
<path fill="#51C4D6" d="M85.188,67.5l5.059-15.815c0.254-1.503,1.697-2.721,3.221-2.721h29.041c1.523,0,2.966,1.218,3.222,2.721
	l5.059,15.815H85.188z"/>
<path fill="#191818" d="M122.508,148.102h-29.04c-2.534,0-4.853-1.928-5.335-4.407l-5.775-21.311h51.26l-5.775,21.311
	C127.359,146.174,125.041,148.102,122.508,148.102 M88.018,126.714l4.363,16.14c0.079,0.464,0.617,0.919,1.087,0.919h29.04
	c0.469,0,1.008-0.455,1.086-0.919l0.045-0.204l4.318-15.936H88.018L88.018,126.714z"/>
<path fill="#191818" d="M133.754,69.665H82.222l5.922-18.515c0.505-2.454,2.809-4.354,5.324-4.354h29.04
	c2.516,0,4.818,1.898,5.322,4.354L133.754,69.665z M88.153,65.335h39.667l-4.228-13.289c-0.079-0.463-0.616-0.918-1.086-0.918
	h-29.04c-0.47,0-1.008,0.455-1.086,0.918l-0.073,0.298L88.153,65.335z"/>
<path fill="#191818" d="M130.775,125.519H85.198c-3.048,0-5.519-2.472-5.519-5.521V73.02c0-3.048,2.471-5.52,5.519-5.52h45.577
	c3.049,0,5.52,2.472,5.52,5.52v46.979C136.295,123.047,133.824,125.519,130.775,125.519"/>
<path fill="#191818" d="M130.775,127.544H85.199c-4.16,0-7.544-3.386-7.544-7.545V73.02c0-4.159,3.384-7.544,7.544-7.544h45.576
	c4.16,0,7.545,3.385,7.545,7.544v46.979C138.32,124.158,134.936,127.544,130.775,127.544 M85.199,69.524
	c-1.927,0-3.495,1.567-3.495,3.494v46.979c0,1.927,1.568,3.496,3.495,3.496h45.576c1.928,0,3.494-1.569,3.494-3.496V73.02
	c0-1.927-1.566-3.494-3.494-3.494L85.199,69.524L85.199,69.524z"/>
<path fill="#FFFFFF" d="M125.086,116.774H90.911c-2.329,0-4.217-1.89-4.217-4.22V80.865c0-2.33,1.888-4.218,4.217-4.218h34.175
	c2.329,0,4.219,1.888,4.219,4.218v31.689C129.305,114.886,127.415,116.774,125.086,116.774"/>
<path fill="#191818" d="M79.679,93.946c0,1.424-1.154,2.578-2.578,2.578c-1.423,0-2.578-1.154-2.578-2.578V74.913
	c0-1.424,1.154-2.578,2.578-2.578c1.424,0,2.578,1.154,2.578,2.578V93.946z"/>
<path fill="#191818" d="M79.679,118.135c0,1.424-1.154,2.578-2.578,2.578c-1.423,0-2.578-1.154-2.578-2.578V99.102
	c0-1.424,1.154-2.577,2.578-2.577c1.424,0,2.578,1.153,2.578,2.577V118.135z"/>
<path fill="#191818" d="M141.451,93.946c0,1.424-1.154,2.578-2.578,2.578s-2.578-1.154-2.578-2.578V74.913
	c0-1.424,1.154-2.578,2.578-2.578s2.578,1.154,2.578,2.578V93.946z"/>
<path fill="#191818" d="M141.451,118.135c0,1.424-1.154,2.578-2.578,2.578s-2.578-1.154-2.578-2.578V99.102
	c0-1.424,1.154-2.577,2.578-2.577s2.578,1.153,2.578,2.577V118.135z"/>
<path fill="#51C4D6" d="M121.868,96.284c0,7.66-6.21,13.869-13.87,13.869s-13.869-6.209-13.869-13.869s6.209-13.87,13.869-13.87
	S121.868,88.624,121.868,96.284"/>
<path fill="#231F20" d="M111.021,101.842l-6.514-6.942v6.333c0,0.51-0.413,0.923-0.922,0.923c-0.51,0-0.923-0.413-0.923-0.923
	V90.194c0-0.511,0.413-0.922,0.923-0.922c0.509,0,0.922,0.411,0.922,0.922v2.752h8.287c0.51,0,0.922,0.413,0.922,0.922
	c0,0.51-0.412,0.923-0.922,0.923h-6.008l5.572,5.92l-0.06-0.063C113.188,101.502,111.813,102.785,111.021,101.842"/>
<path fill="#020202" d="M111.677,102.715c-0.405,0-0.786-0.188-1.071-0.525l-5.556-5.923v4.966c0,0.807-0.657,1.463-1.464,1.463
	s-1.464-0.656-1.464-1.463V90.194c0-0.809,0.657-1.464,1.464-1.464s1.464,0.655,1.464,1.464v2.211h7.746
	c0.808,0,1.464,0.655,1.464,1.463c0,0.809-0.656,1.464-1.464,1.464h-4.755l4.648,4.94c0.427,0.419,0.554,0.982,0.34,1.51
	C112.807,102.331,112.25,102.715,111.677,102.715 M103.967,93.53l7.449,7.939c0.136,0.162,0.229,0.162,0.261,0.162
	c0.134,0,0.29-0.116,0.349-0.258c0.026-0.066,0.048-0.166-0.061-0.294v0.001v-0.001v-0.001c-0.012-0.013-0.023-0.027-0.039-0.041
	l0.322-0.338l-0.34,0.319l-6.375-6.771h7.262c0.209,0,0.381-0.173,0.381-0.383s-0.172-0.381-0.381-0.381h-8.828v-3.293
	c0-0.21-0.171-0.383-0.381-0.383s-0.381,0.173-0.381,0.383v11.038c0,0.21,0.171,0.381,0.381,0.381s0.381-0.171,0.381-0.381V93.53
	L103.967,93.53z"/>
</svg>
