<?xml version="1.0" encoding="utf-8"?>
<!-- Generator: Adobe Illustrator 16.0.0, SVG Export Plug-In . SVG Version: 6.00 Build 0)  -->
<!DOCTYPE svg PUBLIC "-//W3C//DTD SVG 1.1//EN" "http://www.w3.org/Graphics/SVG/1.1/DTD/svg11.dtd">
<svg version="1.1" id="Layer_1" xmlns="http://www.w3.org/2000/svg" xmlns:xlink="http://www.w3.org/1999/xlink" x="0px" y="0px"
	 width="215px" height="195px" viewBox="0 0 215 195" enable-background="new 0 0 215 195" xml:space="preserve">
<path fill="#87D4E9" d="M107.496,13.588c-42.449,0-76.862,34.412-76.862,76.861s34.413,76.861,76.862,76.861
	c0.091,0,0.18-0.003,0.271-0.004V13.591C107.676,13.591,107.587,13.588,107.496,13.588"/>
<path fill="#51C4D6" d="M184.357,90.449c0-42.358-34.267-76.712-76.591-76.857v153.716
	C150.092,167.161,184.357,132.809,184.357,90.449"/>
<g opacity="0.4">
	<g>
		<g>
			<defs>
				<rect id="SVGID_1_" x="30.63" y="13.588" width="153.729" height="153.723"/>
			</defs>
			<clipPath id="SVGID_2_">
				<use xlink:href="#SVGID_1_"  overflow="visible"/>
			</clipPath>
			<path clip-path="url(#SVGID_2_)" fill="#FFFFFF" d="M107.496,24.414c36.413,0,66.036,29.622,66.036,66.035
				c0,36.412-29.623,66.036-66.036,66.036S41.46,126.861,41.46,90.449C41.46,54.036,71.083,24.414,107.496,24.414 M107.496,13.588
				c-42.45,0-76.862,34.412-76.862,76.861c0,42.45,34.412,76.861,76.862,76.861c42.449,0,76.861-34.411,76.861-76.861
				C184.357,48,149.945,13.588,107.496,13.588"/>
		</g>
	</g>
</g>
<path fill="#51C4D6" d="M138.418,62.48c0,16.864-13.689,30.483-30.484,30.483c-16.865,0-30.483-13.619-30.483-30.483
	c0-16.795,13.619-30.483,30.483-30.483C124.729,31.997,138.418,45.688,138.418,62.48"/>
<path fill="#191818" d="M129.775,62.143c0,11.884-9.633,21.517-21.516,21.517c-11.882,0-21.515-9.633-21.515-21.517
	c0-11.882,9.633-21.515,21.515-21.515C120.143,40.628,129.775,50.261,129.775,62.143"/>
<path fill="#FFFFFF" d="M112.26,70.054l-9.245-9.854v8.987c0,0.725-0.586,1.312-1.309,1.312c-0.724,0-1.31-0.587-1.31-1.312V53.519
	c0-0.723,0.586-1.309,1.31-1.309c0.723,0,1.309,0.586,1.309,1.309v3.907h11.762c0.725,0,1.311,0.586,1.311,1.31
	s-0.586,1.31-1.311,1.31h-8.526l7.908,8.405l-0.084-0.09C115.335,69.571,113.384,71.394,112.26,70.054"/>
<path fill="#FFFFFF" d="M113.189,71.066c-0.508,0-0.985-0.236-1.344-0.665l-8.291-8.835v7.621c0,1.021-0.831,1.851-1.851,1.851
	s-1.851-0.83-1.851-1.851v-15.67c0-1.021,0.83-1.851,1.851-1.851s1.851,0.83,1.851,1.851v3.366h11.22
	c1.021,0,1.852,0.829,1.852,1.851c0,1.021-0.829,1.851-1.852,1.851h-7.274l6.963,7.398c0.539,0.529,0.701,1.238,0.435,1.9
	C114.616,70.58,113.913,71.066,113.189,71.066 M102.474,58.83l10.18,10.854c0.441,0.519,1.047,0.271,1.24-0.207
	c0.094-0.23,0.051-0.452-0.127-0.657l-0.002,0.001l-0.084-0.089l-8.685-9.229h9.78c0.424,0,0.768-0.345,0.768-0.769
	c0-0.425-0.344-0.769-0.768-0.769h-12.304v-4.448c0-0.423-0.345-0.769-0.769-0.769c-0.423,0-0.768,0.346-0.768,0.769v15.669
	c0,0.425,0.345,0.77,0.768,0.77c0.424,0,0.769-0.345,0.769-0.77L102.474,58.83L102.474,58.83z"/>
<g>
	<g>
		<defs>
			<path id="SVGID_3_" d="M30.634,90.449c0,42.451,34.411,76.86,76.862,76.86c42.449,0,76.861-34.409,76.861-76.86
				c0-42.45-34.412-76.862-76.861-76.862C65.045,13.587,30.634,47.999,30.634,90.449"/>
		</defs>
		<clipPath id="SVGID_4_">
			<use xlink:href="#SVGID_3_"  overflow="visible"/>
		</clipPath>
		<path clip-path="url(#SVGID_4_)" fill="#51C4D6" d="M92.608,124.447c-5.623-3.312-9.286-9.979-18.113-13.436
			c-2.235,2.506-5.079,4.129-8.46,4.129c-3.406,0-6.266-1.646-8.507-4.181c-8.846,3.438-12.598,10.158-18.25,13.486
			c-1.237,0.729-2.19,2.563-2.19,3.998l3.899,52.661h49.132l4.679-52.661C94.798,127.01,93.845,125.177,92.608,124.447"/>
	</g>
	<g>
		<defs>
			<path id="SVGID_5_" d="M30.634,90.449c0,42.451,34.411,76.86,76.862,76.86c42.449,0,76.861-34.409,76.861-76.86
				c0-42.45-34.412-76.862-76.861-76.862C65.045,13.587,30.634,47.999,30.634,90.449"/>
		</defs>
		<clipPath id="SVGID_6_">
			<use xlink:href="#SVGID_5_"  overflow="visible"/>
		</clipPath>
		<path clip-path="url(#SVGID_6_)" fill="#191818" d="M92.167,183.345H38.909l-4.059-54.898c0-2.272,1.416-4.821,3.293-5.927
			c1.987-1.171,3.822-2.908,5.764-4.748c3.285-3.112,7.008-6.641,12.809-8.896l1.454-0.565l1.034,1.169
			c2.01,2.272,4.308,3.427,6.83,3.427c2.506,0,4.79-1.139,6.79-3.381l1.036-1.162l1.45,0.567c5.784,2.265,9.466,5.771,12.715,8.864
			c1.924,1.831,3.74,3.562,5.718,4.727c1.878,1.104,3.293,3.653,3.293,5.926l-0.009,0.198L92.167,183.345z M43.065,178.869h45.007
			l4.487-50.499c-0.039-0.684-0.586-1.7-1.087-1.995c-2.421-1.426-4.418-3.326-6.532-5.341c-2.808-2.672-5.7-5.427-9.917-7.366
			c-2.618,2.435-5.698,3.711-8.989,3.711c-3.315,0-6.414-1.295-9.045-3.764c-4.236,1.938-7.164,4.713-10.005,7.403
			c-2.131,2.021-4.146,3.929-6.571,5.355c-0.503,0.298-1.054,1.325-1.087,2.009L43.065,178.869z"/>
	</g>
	<g>
		<defs>
			<path id="SVGID_7_" d="M30.634,90.449c0,42.451,34.411,76.86,76.862,76.86c42.449,0,76.861-34.409,76.861-76.86
				c0-42.45-34.412-76.862-76.861-76.862C65.045,13.587,30.634,47.999,30.634,90.449"/>
		</defs>
		<clipPath id="SVGID_8_">
			<use xlink:href="#SVGID_7_"  overflow="visible"/>
		</clipPath>
		<path clip-path="url(#SVGID_8_)" fill="#FFFFFF" d="M80.083,92.776c-0.076-0.862-0.204-1.703-0.378-2.52
			c-1.455-6.84-6.293-11.849-13.763-11.849c-7.469,0-12.307,5.009-13.762,11.849c-0.174,0.815-0.302,1.656-0.378,2.52
			c-1.965,0.556-3.407,2.356-3.407,4.499c0,2.458,1.896,4.469,4.304,4.66c1.906,7.023,6.506,13.466,13.243,13.466
			c6.738,0,11.338-6.441,13.244-13.466c2.408-0.191,4.304-2.202,4.304-4.66C83.49,95.134,82.048,93.332,80.083,92.776"/>
	</g>
	<g>
		<defs>
			<path id="SVGID_9_" d="M30.634,90.449c0,42.451,34.411,76.86,76.862,76.86c42.449,0,76.861-34.409,76.861-76.86
				c0-42.45-34.412-76.862-76.861-76.862C65.045,13.587,30.634,47.999,30.634,90.449"/>
		</defs>
		<clipPath id="SVGID_10_">
			<use xlink:href="#SVGID_9_"  overflow="visible"/>
		</clipPath>
		<path clip-path="url(#SVGID_10_)" fill="#FFFFFF" d="M51.803,92.776c0.076-0.862,0.204-1.703,0.378-2.52
			c0.849-3.992,2.852-7.356,5.854-9.47c3.04,12.043,16.827,13.227,23.897,13.011c0.955,0.854,1.558,2.094,1.558,3.478
			c0,2.458-1.896,4.469-4.304,4.66c-1.906,7.023-6.506,13.466-13.244,13.466c-6.737,0-11.337-6.441-13.243-13.466
			c-2.408-0.191-4.304-2.202-4.304-4.66C48.396,95.134,49.837,93.332,51.803,92.776"/>
	</g>
	<g>
		<defs>
			<path id="SVGID_11_" d="M30.634,90.449c0,42.451,34.411,76.86,76.862,76.86c42.449,0,76.861-34.409,76.861-76.86
				c0-42.45-34.412-76.862-76.861-76.862C65.045,13.587,30.634,47.999,30.634,90.449"/>
		</defs>
		<clipPath id="SVGID_12_">
			<use xlink:href="#SVGID_11_"  overflow="visible"/>
		</clipPath>
		<path clip-path="url(#SVGID_12_)" fill="#51C4D6" d="M57.456,80.788c2.144-1.508,4.796-2.379,7.907-2.379
			c7.47,0,12.308,5.008,13.763,11.848c0.174,0.816,0.302,1.657,0.378,2.521c0.696,0.194,1.325,0.552,1.848,1.021
			C74.281,94.014,60.495,92.83,57.456,80.788"/>
	</g>
	<g>
		<defs>
			<path id="SVGID_13_" d="M30.634,90.449c0,42.451,34.411,76.86,76.862,76.86c42.449,0,76.861-34.409,76.861-76.86
				c0-42.45-34.412-76.862-76.861-76.862C65.045,13.587,30.634,47.999,30.634,90.449"/>
		</defs>
		<clipPath id="SVGID_14_">
			<use xlink:href="#SVGID_13_"  overflow="visible"/>
		</clipPath>
		<path clip-path="url(#SVGID_14_)" fill="#191818" d="M65.943,117.639c-7.83,0-12.794-6.895-15.01-13.791
			c-2.776-0.913-4.775-3.545-4.775-6.571c0-2.543,1.412-4.853,3.574-6.051c1.325-9.061,7.7-15.054,16.211-15.054
			c8.51,0,14.886,5.993,16.211,15.054c2.162,1.198,3.573,3.508,3.573,6.051c0,3.026-1.999,5.658-4.774,6.571
			C78.737,110.744,73.773,117.639,65.943,117.639 M65.943,80.646c-7.983,0-11.389,6.366-11.912,12.325l-0.135,1.538l-1.486,0.419
			c-1.046,0.295-1.777,1.261-1.777,2.347c0,1.264,0.986,2.33,2.245,2.432l1.569,0.125l0.412,1.519
			c1.55,5.712,5.276,11.814,11.084,11.814s9.534-6.104,11.084-11.814l0.412-1.519l1.569-0.125c1.259-0.102,2.245-1.168,2.245-2.432
			c0-1.086-0.731-2.052-1.777-2.347L77.99,94.51l-0.135-1.538C77.33,87.014,73.926,80.646,65.943,80.646"/>
	</g>
	<g>
		<defs>
			<path id="SVGID_15_" d="M30.634,90.449c0,42.451,34.411,76.86,76.862,76.86c42.449,0,76.861-34.409,76.861-76.86
				c0-42.45-34.412-76.862-76.861-76.862C65.045,13.587,30.634,47.999,30.634,90.449"/>
		</defs>
		<clipPath id="SVGID_16_">
			<use xlink:href="#SVGID_15_"  overflow="visible"/>
		</clipPath>
		<path clip-path="url(#SVGID_16_)" fill="#51C4D6" d="M123.711,124.447c5.623-3.312,9.286-9.979,18.113-13.436
			c2.234,2.506,5.078,4.129,8.46,4.129c3.405,0,6.267-1.646,8.507-4.181c8.846,3.438,12.6,10.158,18.25,13.486
			c1.236,0.729,2.191,2.563,2.191,3.998l-3.9,52.661H126.2l-4.679-52.661C121.521,127.01,122.475,125.177,123.711,124.447"/>
	</g>
	<g>
		<defs>
			<path id="SVGID_17_" d="M30.634,90.449c0,42.451,34.411,76.86,76.862,76.86c42.449,0,76.861-34.409,76.861-76.86
				c0-42.45-34.412-76.862-76.861-76.862C65.045,13.587,30.634,47.999,30.634,90.449"/>
		</defs>
		<clipPath id="SVGID_18_">
			<use xlink:href="#SVGID_17_"  overflow="visible"/>
		</clipPath>
		<path clip-path="url(#SVGID_18_)" fill="#191818" d="M177.41,183.345h-53.258l-4.869-54.898c0-2.272,1.416-4.821,3.293-5.927
			c1.979-1.164,3.795-2.895,5.717-4.726c3.25-3.094,6.934-6.601,12.717-8.864l1.449-0.567l1.035,1.162
			c2,2.242,4.285,3.381,6.791,3.381c2.521,0,4.818-1.153,6.83-3.428l1.033-1.168l1.453,0.565c5.801,2.256,9.525,5.783,12.813,8.896
			c1.939,1.84,3.773,3.576,5.764,4.747c1.877,1.104,3.291,3.653,3.291,5.927l-0.006,0.165L177.41,183.345z M128.248,178.869h45.006
			l3.738-50.485c-0.032-0.684-0.584-1.711-1.086-2.009c-2.428-1.428-4.439-3.336-6.571-5.355c-2.841-2.69-5.769-5.465-10.005-7.403
			c-2.631,2.469-5.73,3.764-9.045,3.764c-3.291,0-6.37-1.276-8.989-3.711c-4.218,1.939-7.11,4.694-9.917,7.366
			c-2.113,2.015-4.111,3.915-6.531,5.341c-0.5,0.295-1.048,1.313-1.087,1.995L128.248,178.869z"/>
	</g>
	<g>
		<defs>
			<path id="SVGID_19_" d="M30.634,90.449c0,42.451,34.411,76.86,76.862,76.86c42.449,0,76.861-34.409,76.861-76.86
				c0-42.45-34.412-76.862-76.861-76.862C65.045,13.587,30.634,47.999,30.634,90.449"/>
		</defs>
		<clipPath id="SVGID_20_">
			<use xlink:href="#SVGID_19_"  overflow="visible"/>
		</clipPath>
		<path clip-path="url(#SVGID_20_)" fill="#FFFFFF" d="M136.236,92.776c0.074-0.862,0.203-1.703,0.377-2.52
			c1.455-6.84,6.293-11.849,13.764-11.849s12.307,5.009,13.762,11.849c0.174,0.815,0.303,1.656,0.379,2.52
			c1.965,0.556,3.406,2.356,3.406,4.499c0,2.458-1.896,4.469-4.305,4.66c-1.905,7.023-6.506,13.466-13.242,13.466
			c-6.738,0-11.338-6.441-13.243-13.466c-2.409-0.191-4.306-2.202-4.306-4.66C132.828,95.134,134.271,93.332,136.236,92.776"/>
	</g>
	<g>
		<defs>
			<path id="SVGID_21_" d="M30.634,90.449c0,42.451,34.411,76.86,76.862,76.86c42.449,0,76.861-34.409,76.861-76.86
				c0-42.45-34.412-76.862-76.861-76.862C65.045,13.587,30.634,47.999,30.634,90.449"/>
		</defs>
		<clipPath id="SVGID_22_">
			<use xlink:href="#SVGID_21_"  overflow="visible"/>
		</clipPath>
		<path clip-path="url(#SVGID_22_)" fill="#FFFFFF" d="M164.518,92.776c-0.076-0.862-0.205-1.703-0.379-2.52
			c-0.849-3.992-2.852-7.356-5.854-9.47c-3.04,12.043-16.827,13.227-23.896,13.011c-0.955,0.854-1.559,2.094-1.559,3.478
			c0,2.458,1.896,4.469,4.304,4.66c1.906,7.023,6.507,13.466,13.243,13.466s11.338-6.441,13.243-13.466
			c2.409-0.191,4.304-2.202,4.304-4.66C167.923,95.134,166.482,93.332,164.518,92.776"/>
	</g>
	<g>
		<defs>
			<path id="SVGID_23_" d="M30.634,90.449c0,42.451,34.411,76.86,76.862,76.86c42.449,0,76.861-34.409,76.861-76.86
				c0-42.45-34.412-76.862-76.861-76.862C65.045,13.587,30.634,47.999,30.634,90.449"/>
		</defs>
		<clipPath id="SVGID_24_">
			<use xlink:href="#SVGID_23_"  overflow="visible"/>
		</clipPath>
		<path clip-path="url(#SVGID_24_)" fill="#51C4D6" d="M158.863,80.788c-2.145-1.508-4.797-2.379-7.906-2.379
			c-7.471,0-12.309,5.008-13.764,11.848c-0.174,0.816-0.303,1.657-0.379,2.521c-0.695,0.194-1.324,0.552-1.848,1.021
			C142.037,94.014,155.824,92.83,158.863,80.788"/>
	</g>
	<g>
		<defs>
			<path id="SVGID_25_" d="M30.634,90.449c0,42.451,34.411,76.86,76.862,76.86c42.449,0,76.861-34.409,76.861-76.86
				c0-42.45-34.412-76.862-76.861-76.862C65.045,13.587,30.634,47.999,30.634,90.449"/>
		</defs>
		<clipPath id="SVGID_26_">
			<use xlink:href="#SVGID_25_"  overflow="visible"/>
		</clipPath>
		<path clip-path="url(#SVGID_26_)" fill="#191818" d="M150.376,117.639c-7.83,0-12.794-6.895-15.01-13.791
			c-2.775-0.913-4.774-3.545-4.774-6.571c0-2.543,1.411-4.853,3.573-6.051c1.325-9.061,7.701-15.054,16.211-15.054
			c8.511,0,14.886,5.993,16.211,15.054c2.162,1.198,3.574,3.508,3.574,6.051c0,3.026-1.999,5.658-4.774,6.571
			C163.17,110.744,158.206,117.639,150.376,117.639 M150.376,80.646c-7.983,0-11.387,6.366-11.911,12.325l-0.135,1.538l-1.486,0.419
			c-1.047,0.295-1.777,1.261-1.777,2.347c0,1.264,0.986,2.33,2.246,2.432l1.567,0.125l0.413,1.519
			c1.549,5.712,5.273,11.814,11.083,11.814c5.808,0,9.534-6.104,11.084-11.814l0.412-1.519l1.569-0.125
			c1.259-0.102,2.244-1.168,2.244-2.432c0-1.086-0.73-2.052-1.776-2.347l-1.486-0.419l-0.135-1.538
			C161.764,87.014,158.359,80.646,150.376,80.646"/>
	</g>
</g>
<path fill="#1A1A19" d="M107.496,171.372c-44.62,0-80.921-36.303-80.921-80.923c0-44.619,36.301-80.921,80.921-80.921
	s80.921,36.302,80.921,80.921C188.417,135.069,152.116,171.372,107.496,171.372 M107.496,17.647
	c-40.143,0-72.802,32.658-72.802,72.802s32.659,72.803,72.802,72.803c40.143,0,72.803-32.659,72.803-72.803
	C180.299,50.307,147.639,17.647,107.496,17.647"/>
</svg>
