<?xml version="1.0" encoding="utf-8"?>
<!-- Generator: Adobe Illustrator 16.0.0, SVG Export Plug-In . SVG Version: 6.00 Build 0)  -->
<!DOCTYPE svg PUBLIC "-//W3C//DTD SVG 1.1//EN" "http://www.w3.org/Graphics/SVG/1.1/DTD/svg11.dtd">
<svg version="1.1" id="Layer_1" xmlns="http://www.w3.org/2000/svg" xmlns:xlink="http://www.w3.org/1999/xlink" x="0px" y="0px"
	 width="612px" height="792px" viewBox="0 0 612 792" enable-background="new 0 0 612 792" xml:space="preserve">
<path fill="#86D4E9" d="M305.496,313.588c-42.449,0-76.862,34.412-76.862,76.861s34.413,76.862,76.862,76.862
	c0.091,0,0.18-0.003,0.271-0.004V313.591C305.676,313.591,305.587,313.588,305.496,313.588"/>
<path fill="#51C4D6" d="M382.357,390.449c0-42.358-34.266-76.712-76.591-76.857v153.716
	C348.092,467.161,382.357,432.809,382.357,390.449"/>
<g opacity="0.4">
	<g>
		<defs>
			<rect id="SVGID_1_" x="228.63" y="313.588" width="153.73" height="153.723"/>
		</defs>
		<clipPath id="SVGID_2_">
			<use xlink:href="#SVGID_1_"  overflow="visible"/>
		</clipPath>
		<path clip-path="url(#SVGID_2_)" fill="#FFFFFF" d="M305.496,324.414c36.413,0,66.036,29.622,66.036,66.035
			c0,36.412-29.623,66.036-66.036,66.036s-66.036-29.624-66.036-66.036C239.46,354.036,269.083,324.414,305.496,324.414
			 M305.496,313.588c-42.45,0-76.862,34.412-76.862,76.861c0,42.45,34.412,76.862,76.862,76.862s76.861-34.412,76.861-76.862
			C382.357,348,347.946,313.588,305.496,313.588"/>
	</g>
</g>
<path fill="#51C4D6" d="M336.418,362.48c0,16.865-13.689,30.484-30.484,30.484c-16.865,0-30.483-13.619-30.483-30.484
	c0-16.794,13.619-30.483,30.483-30.483C322.729,331.997,336.418,345.687,336.418,362.48"/>
<path fill="#191818" d="M327.775,362.143c0,11.883-9.633,21.516-21.515,21.516c-11.882,0-21.515-9.633-21.515-21.516
	c0-11.882,9.633-21.515,21.515-21.515C318.143,340.628,327.775,350.261,327.775,362.143"/>
<path fill="#FFFFFF" d="M310.26,370.054l-9.245-9.854v8.988c0,0.724-0.586,1.311-1.309,1.311c-0.724,0-1.31-0.587-1.31-1.311
	v-15.669c0-0.723,0.586-1.309,1.31-1.309c0.723,0,1.309,0.586,1.309,1.309v3.907h11.763c0.724,0,1.31,0.586,1.31,1.309
	c0,0.724-0.586,1.31-1.31,1.31h-8.527l7.908,8.405l-0.084-0.09C313.335,369.571,311.384,371.394,310.26,370.054"/>
<path fill="#FFFFFF" d="M311.19,371.066c-0.509,0-0.986-0.236-1.345-0.665l-8.29-8.835v7.621c0,1.021-0.831,1.851-1.851,1.851
	s-1.851-0.83-1.851-1.851v-15.669c0-1.021,0.83-1.851,1.851-1.851s1.851,0.83,1.851,1.851v3.366h11.221
	c1.021,0,1.851,0.829,1.851,1.85s-0.829,1.851-1.851,1.851h-7.275l6.963,7.398c0.539,0.53,0.701,1.239,0.434,1.901
	C312.616,370.58,311.913,371.066,311.19,371.066 M300.474,358.83l10.181,10.854c0.441,0.518,1.046,0.271,1.24-0.207
	c0.094-0.231,0.051-0.453-0.128-0.658l-0.001,0.001l-0.084-0.089l-8.685-9.229h9.78c0.424,0,0.768-0.345,0.768-0.769
	s-0.344-0.768-0.768-0.768h-12.304v-4.448c0-0.423-0.345-0.769-0.769-0.769c-0.423,0-0.768,0.346-0.768,0.769v15.669
	c0,0.424,0.345,0.769,0.768,0.769c0.424,0,0.769-0.345,0.769-0.769V358.83z"/>
<g>
	<defs>
		<path id="SVGID_3_" d="M228.634,390.449c0,42.451,34.411,76.861,76.862,76.861c42.45,0,76.861-34.41,76.861-76.861
			c0-42.45-34.411-76.862-76.861-76.862C263.045,313.587,228.634,347.999,228.634,390.449"/>
	</defs>
	<clipPath id="SVGID_4_">
		<use xlink:href="#SVGID_3_"  overflow="visible"/>
	</clipPath>
	<path clip-path="url(#SVGID_4_)" fill="#51C4D6" d="M290.608,424.447c-5.623-3.311-9.286-9.979-18.113-13.435
		c-2.235,2.506-5.079,4.129-8.46,4.129c-3.406,0-6.266-1.646-8.507-4.181c-8.846,3.438-12.598,10.158-18.25,13.486
		c-1.237,0.729-2.19,2.563-2.19,3.998l3.899,52.662h49.132l4.679-52.662C292.798,427.01,291.845,425.177,290.608,424.447"/>
	<path clip-path="url(#SVGID_4_)" fill="#191818" d="M290.167,483.345h-53.258l-4.059-54.899c0-2.272,1.416-4.821,3.293-5.926
		c1.987-1.171,3.822-2.909,5.764-4.749c3.285-3.112,7.008-6.64,12.809-8.896l1.454-0.565l1.034,1.168
		c2.01,2.273,4.308,3.427,6.83,3.427c2.506,0,4.79-1.138,6.79-3.381l1.036-1.162l1.45,0.568c5.784,2.264,9.466,5.77,12.715,8.864
		c1.924,1.831,3.74,3.561,5.718,4.726c1.878,1.105,3.293,3.654,3.293,5.926l-0.009,0.198L290.167,483.345z M241.065,478.869h45.007
		l4.487-50.499c-0.039-0.683-0.586-1.7-1.087-1.995c-2.421-1.426-4.418-3.326-6.532-5.341c-2.808-2.672-5.7-5.427-9.917-7.366
		c-2.618,2.435-5.698,3.711-8.989,3.711c-3.315,0-6.414-1.295-9.045-3.764c-4.236,1.939-7.164,4.713-10.005,7.404
		c-2.131,2.02-4.146,3.928-6.571,5.355c-0.503,0.298-1.054,1.325-1.087,2.009L241.065,478.869z"/>
	<path clip-path="url(#SVGID_4_)" fill="#FFFFFF" d="M278.083,392.776c-0.076-0.862-0.204-1.703-0.378-2.519
		c-1.455-6.84-6.293-11.849-13.763-11.849c-7.469,0-12.307,5.009-13.762,11.849c-0.174,0.815-0.302,1.656-0.378,2.519
		c-1.965,0.556-3.407,2.357-3.407,4.499c0,2.458,1.896,4.469,4.304,4.661c1.906,7.023,6.506,13.465,13.243,13.465
		c6.738,0,11.338-6.441,13.244-13.465c2.408-0.192,4.304-2.203,4.304-4.661C281.49,395.134,280.048,393.332,278.083,392.776"/>
	<path clip-path="url(#SVGID_4_)" fill="#FFFFFF" d="M249.803,392.776c0.076-0.862,0.204-1.703,0.378-2.519
		c0.849-3.992,2.852-7.357,5.854-9.47c3.04,12.043,16.827,13.227,23.897,13.011c0.955,0.854,1.558,2.094,1.558,3.477
		c0,2.458-1.896,4.469-4.304,4.661c-1.906,7.023-6.506,13.465-13.244,13.465c-6.737,0-11.337-6.441-13.243-13.465
		c-2.408-0.192-4.304-2.203-4.304-4.661C246.396,395.134,247.837,393.332,249.803,392.776"/>
	<path clip-path="url(#SVGID_4_)" fill="#51C4D6" d="M255.456,380.788c2.144-1.508,4.796-2.379,7.907-2.379
		c7.47,0,12.308,5.008,13.763,11.848c0.174,0.816,0.302,1.657,0.378,2.521c0.696,0.195,1.325,0.552,1.848,1.021
		C272.281,394.014,258.495,392.83,255.456,380.788"/>
	<path clip-path="url(#SVGID_4_)" fill="#191818" d="M263.943,417.639c-7.83,0-12.794-6.895-15.01-13.791
		c-2.776-0.913-4.775-3.545-4.775-6.572c0-2.543,1.412-4.852,3.574-6.05c1.325-9.061,7.7-15.054,16.211-15.054
		c8.51,0,14.886,5.993,16.211,15.054c2.162,1.198,3.573,3.507,3.573,6.05c0,3.027-1.999,5.659-4.774,6.572
		C276.737,410.744,271.773,417.639,263.943,417.639 M263.943,380.646c-7.983,0-11.389,6.367-11.912,12.326l-0.135,1.538
		l-1.486,0.419c-1.046,0.295-1.777,1.26-1.777,2.346c0,1.264,0.986,2.33,2.245,2.432l1.569,0.125l0.412,1.519
		c1.55,5.711,5.276,11.814,11.084,11.814c5.808,0,9.534-6.104,11.084-11.814l0.412-1.519l1.569-0.125
		c1.259-0.102,2.245-1.168,2.245-2.432c0-1.086-0.731-2.051-1.777-2.346l-1.486-0.419l-0.135-1.538
		C275.33,387.014,271.926,380.646,263.943,380.646"/>
	<path clip-path="url(#SVGID_4_)" fill="#51C4D6" d="M321.711,424.447c5.623-3.311,9.286-9.979,18.113-13.435
		c2.235,2.506,5.079,4.129,8.46,4.129c3.406,0,6.267-1.646,8.507-4.181c8.846,3.438,12.599,10.158,18.25,13.486
		c1.237,0.729,2.191,2.563,2.191,3.998l-3.9,52.662H324.2l-4.679-52.662C319.521,427.01,320.475,425.177,321.711,424.447"/>
	<path clip-path="url(#SVGID_4_)" fill="#191818" d="M375.41,483.345h-53.258l-4.869-54.899c0-2.272,1.416-4.821,3.293-5.926
		c1.978-1.165,3.795-2.895,5.717-4.726c3.25-3.094,6.933-6.601,12.717-8.864l1.449-0.568l1.035,1.162
		c2,2.243,4.285,3.381,6.791,3.381c2.521,0,4.819-1.153,6.83-3.427l1.033-1.168l1.454,0.565c5.801,2.256,9.525,5.783,12.812,8.896
		c1.94,1.84,3.774,3.577,5.763,4.748c1.877,1.104,3.292,3.653,3.292,5.926l-0.006,0.165L375.41,483.345z M326.248,478.869h45.006
		l3.738-50.485c-0.032-0.684-0.584-1.711-1.086-2.009c-2.427-1.428-4.439-3.336-6.571-5.355c-2.841-2.691-5.769-5.465-10.005-7.404
		c-2.631,2.469-5.73,3.764-9.045,3.764c-3.291,0-6.37-1.276-8.989-3.711c-4.218,1.939-7.11,4.694-9.917,7.366
		c-2.114,2.015-4.111,3.915-6.532,5.341c-0.5,0.295-1.047,1.313-1.086,1.995L326.248,478.869z"/>
	<path clip-path="url(#SVGID_4_)" fill="#FFFFFF" d="M334.236,392.776c0.075-0.862,0.203-1.703,0.377-2.519
		c1.455-6.84,6.293-11.849,13.764-11.849c7.47,0,12.307,5.009,13.762,11.849c0.174,0.815,0.302,1.656,0.378,2.519
		c1.965,0.556,3.407,2.357,3.407,4.499c0,2.458-1.896,4.469-4.305,4.661c-1.905,7.023-6.506,13.465-13.242,13.465
		c-6.738,0-11.338-6.441-13.243-13.465c-2.409-0.192-4.306-2.203-4.306-4.661C330.828,395.134,332.271,393.332,334.236,392.776"/>
	<path clip-path="url(#SVGID_4_)" fill="#FFFFFF" d="M362.518,392.776c-0.076-0.862-0.205-1.703-0.379-2.519
		c-0.849-3.992-2.852-7.357-5.854-9.47c-3.04,12.043-16.827,13.227-23.897,13.011c-0.955,0.854-1.558,2.094-1.558,3.477
		c0,2.458,1.896,4.469,4.304,4.661c1.906,7.023,6.506,13.465,13.243,13.465s11.338-6.441,13.243-13.465
		c2.409-0.192,4.304-2.203,4.304-4.661C365.923,395.134,364.482,393.332,362.518,392.776"/>
	<path clip-path="url(#SVGID_4_)" fill="#51C4D6" d="M356.863,380.788c-2.144-1.508-4.796-2.379-7.906-2.379
		c-7.471,0-12.309,5.008-13.764,11.848c-0.173,0.816-0.302,1.657-0.378,2.521c-0.696,0.195-1.325,0.552-1.848,1.021
		C340.037,394.014,353.824,392.83,356.863,380.788"/>
	<path clip-path="url(#SVGID_4_)" fill="#191818" d="M348.376,417.639c-7.83,0-12.794-6.895-15.01-13.791
		c-2.775-0.913-4.774-3.545-4.774-6.572c0-2.543,1.411-4.852,3.573-6.05c1.325-9.061,7.701-15.054,16.211-15.054
		c8.511,0,14.886,5.993,16.211,15.054c2.162,1.198,3.574,3.507,3.574,6.05c0,3.027-1.999,5.659-4.775,6.572
		C361.17,410.744,356.206,417.639,348.376,417.639 M348.376,380.646c-7.983,0-11.387,6.367-11.911,12.326l-0.135,1.538l-1.486,0.419
		c-1.047,0.295-1.777,1.26-1.777,2.346c0,1.264,0.986,2.33,2.246,2.432l1.567,0.125l0.413,1.519
		c1.549,5.711,5.274,11.814,11.083,11.814c5.808,0,9.534-6.104,11.084-11.814l0.412-1.519l1.569-0.125
		c1.259-0.102,2.244-1.168,2.244-2.432c0-1.086-0.73-2.051-1.776-2.346l-1.486-0.419l-0.135-1.538
		C359.764,387.014,356.359,380.646,348.376,380.646"/>
</g>
<path fill="#1A1A19" d="M305.496,471.372c-44.62,0-80.921-36.303-80.921-80.923c0-44.619,36.301-80.921,80.921-80.921
	s80.921,36.302,80.921,80.921C386.417,435.069,350.116,471.372,305.496,471.372 M305.496,317.647
	c-40.143,0-72.802,32.659-72.802,72.802c0,40.144,32.659,72.803,72.802,72.803s72.803-32.659,72.803-72.803
	C378.299,350.307,345.639,317.647,305.496,317.647"/>
</svg>
