<?xml version="1.0" encoding="utf-8"?>
<!-- Generator: Adobe Illustrator 16.0.0, SVG Export Plug-In . SVG Version: 6.00 Build 0)  -->
<!DOCTYPE svg PUBLIC "-//W3C//DTD SVG 1.1//EN" "http://www.w3.org/Graphics/SVG/1.1/DTD/svg11.dtd">
<svg version="1.1" id="Layer_1" xmlns="http://www.w3.org/2000/svg" xmlns:xlink="http://www.w3.org/1999/xlink" x="0px" y="0px"
	 width="612px" height="792px" viewBox="0 0 612 792" enable-background="new 0 0 612 792" xml:space="preserve">
<path fill="#86D4E9" d="M305.823,319.588c-42.449,0-76.862,34.412-76.862,76.861s34.413,76.862,76.862,76.862
	c0.091,0,0.18-0.003,0.271-0.004V319.591C306.003,319.591,305.914,319.588,305.823,319.588"/>
<path fill="#51C4D6" d="M382.686,396.449c0-42.358-34.268-76.712-76.591-76.857v153.716
	C348.418,473.161,382.686,438.809,382.686,396.449"/>
<g opacity="0.4">
	<g>
		<defs>
			<rect id="SVGID_1_" x="228.96" y="319.588" width="153.729" height="153.723"/>
		</defs>
		<clipPath id="SVGID_2_">
			<use xlink:href="#SVGID_1_"  overflow="visible"/>
		</clipPath>
		<path clip-path="url(#SVGID_2_)" fill="#FFFFFF" d="M305.823,330.414c36.413,0,66.036,29.622,66.036,66.035
			c0,36.412-29.623,66.036-66.036,66.036c-36.412,0-66.036-29.624-66.036-66.036C239.787,360.036,269.411,330.414,305.823,330.414
			 M305.823,319.588c-42.449,0-76.862,34.412-76.862,76.861c0,42.45,34.413,76.862,76.862,76.862
			c42.45,0,76.862-34.412,76.862-76.862C382.686,354,348.273,319.588,305.823,319.588"/>
	</g>
</g>
<path fill="#1A1A19" d="M305.823,477.372c-44.62,0-80.921-36.303-80.921-80.923c0-44.619,36.301-80.921,80.921-80.921
	s80.921,36.302,80.921,80.921C386.744,441.069,350.443,477.372,305.823,477.372 M305.823,323.647
	c-40.143,0-72.802,32.659-72.802,72.802c0,40.144,32.659,72.803,72.802,72.803c40.144,0,72.802-32.659,72.802-72.803
	C378.625,356.307,345.967,323.647,305.823,323.647"/>
<path fill="#51C4D6" d="M328.902,442.117h-45.32c-2.859,0-5.176-2.316-5.176-5.176v-80.983c0-2.858,2.317-5.176,5.176-5.176h45.32
	c2.857,0,5.176,2.317,5.176,5.176v80.983C334.078,439.801,331.76,442.117,328.902,442.117"/>
<path fill="#191818" d="M328.902,444.282h-45.32c-4.048,0-7.341-3.293-7.341-7.341v-80.982c0-4.049,3.293-7.343,7.341-7.343h45.32
	c4.048,0,7.341,3.294,7.341,7.343v80.982C336.243,440.989,332.95,444.282,328.902,444.282 M283.582,352.946
	c-1.66,0-3.011,1.353-3.011,3.013v80.982c0,1.66,1.351,3.011,3.011,3.011h45.32c1.66,0,3.011-1.351,3.011-3.011v-80.982
	c0-1.66-1.351-3.013-3.011-3.013H283.582z"/>
<path fill="#191818" d="M309.543,432.296c0,1.823-1.479,3.301-3.301,3.301c-1.822,0-3.3-1.478-3.3-3.301s1.479-3.3,3.3-3.3
	C308.064,428.996,309.543,430.473,309.543,432.296"/>
<rect x="285.837" y="359.209" fill="#191818" width="40.81" height="60.601"/>
<path fill="#FFFFFF" d="M320.111,388.972c0,7.66-6.21,13.87-13.87,13.87s-13.869-6.21-13.869-13.87s6.209-13.869,13.869-13.869
	S320.111,381.312,320.111,388.972"/>
<path fill="#231F20" d="M309.443,394.889l-6.513-6.943v6.333c0,0.51-0.413,0.923-0.922,0.923c-0.51,0-0.923-0.413-0.923-0.923
	V383.24c0-0.51,0.413-0.922,0.923-0.922c0.509,0,0.922,0.412,0.922,0.922v2.752h8.287c0.509,0,0.922,0.413,0.922,0.922
	c0,0.511-0.413,0.924-0.922,0.924h-6.008l5.572,5.92l-0.059-0.063C311.609,394.55,310.235,395.832,309.443,394.889"/>
<path fill="#010101" d="M310.099,395.763c-0.406,0-0.786-0.188-1.069-0.526l-5.557-5.923v4.965c0,0.808-0.657,1.464-1.464,1.464
	s-1.464-0.656-1.464-1.464V383.24c0-0.808,0.657-1.464,1.464-1.464s1.464,0.656,1.464,1.464v2.211h7.745
	c0.808,0,1.465,0.656,1.465,1.463c0,0.809-0.657,1.465-1.465,1.465h-4.754l4.638,4.928c0.434,0.42,0.564,0.988,0.351,1.52
	C311.229,395.377,310.674,395.763,310.099,395.763 M302.39,386.577l7.448,7.941c0.137,0.161,0.229,0.161,0.261,0.161
	c0.135,0,0.291-0.116,0.349-0.257c0.027-0.068,0.047-0.169-0.059-0.294h-0.002l-6.43-6.832h7.26c0.211,0,0.382-0.173,0.382-0.383
	s-0.171-0.381-0.382-0.381h-8.827v-3.293c0-0.21-0.171-0.382-0.381-0.382s-0.381,0.172-0.381,0.382v11.038
	c0,0.21,0.171,0.382,0.381,0.382s0.381-0.172,0.381-0.382V386.577z"/>
</svg>
