<?xml version="1.0" encoding="utf-8"?>
<!-- Generator: Adobe Illustrator 16.0.0, SVG Export Plug-In . SVG Version: 6.00 Build 0)  -->
<!DOCTYPE svg PUBLIC "-//W3C//DTD SVG 1.1//EN" "http://www.w3.org/Graphics/SVG/1.1/DTD/svg11.dtd">
<svg version="1.1" id="Layer_1" xmlns="http://www.w3.org/2000/svg" xmlns:xlink="http://www.w3.org/1999/xlink" x="0px" y="0px"
	 width="215px" height="195px" viewBox="0 0 215 195" enable-background="new 0 0 215 195" xml:space="preserve">
<path fill="#87D4E9" d="M107.332,20.588c-42.449,0-76.861,34.412-76.861,76.861s34.412,76.861,76.861,76.861
	c0.09,0,0.18-0.003,0.271-0.004V20.591C107.512,20.591,107.422,20.588,107.332,20.588"/>
<path fill="#51C4D6" d="M184.193,97.449c0-42.358-34.267-76.712-76.59-76.857v153.716
	C149.928,174.161,184.193,139.809,184.193,97.449"/>
<g opacity="0.4">
	<g>
		<g>
			<defs>
				<rect id="SVGID_1_" x="30.471" y="20.588" width="153.718" height="153.723"/>
			</defs>
			<clipPath id="SVGID_2_">
				<use xlink:href="#SVGID_1_"  overflow="visible"/>
			</clipPath>
			<path clip-path="url(#SVGID_2_)" fill="#FFFFFF" d="M107.332,31.414c36.413,0,66.036,29.623,66.036,66.035
				s-29.623,66.036-66.036,66.036c-36.412,0-66.035-29.624-66.035-66.036S70.92,31.414,107.332,31.414 M107.332,20.588
				c-42.449,0-76.861,34.412-76.861,76.861c0,42.45,34.412,76.861,76.861,76.861c42.45,0,76.861-34.411,76.861-76.861
				C184.193,55,149.782,20.588,107.332,20.588"/>
		</g>
	</g>
</g>
<path fill="#1A1A19" d="M107.332,178.372c-44.621,0-80.922-36.303-80.922-80.923c0-44.619,36.301-80.921,80.922-80.921
	c44.62,0,80.922,36.302,80.922,80.921C188.254,142.069,151.952,178.372,107.332,178.372 M107.332,24.647
	c-40.144,0-72.803,32.658-72.803,72.802s32.659,72.803,72.803,72.803c40.143,0,72.803-32.659,72.803-72.803
	C180.135,57.307,147.475,24.647,107.332,24.647"/>
<path fill="#FFFFFF" d="M87.35,89.6l1.809-7.403L83.41,89.6c1.073-12.213,11.351-21.825,23.839-21.825
	c13.198,0,23.937,10.736,23.937,23.937v4.854l6.385-4.89c-2.158-17.664-14.396-29.679-30.305-29.679
	c-16.863,0-30.534,13.671-30.534,30.534v7.862l0.104,0.128L87.35,89.6z"/>
<path fill="#FFFFFF" d="M87.35,89.6l1.809-7.403L83.41,89.6c1.073-12.213,11.351-21.825,23.839-21.825
	c13.198,0,23.937,10.736,23.937,23.937v4.854l6.385-4.89c-2.158-17.664-14.396-29.679-30.305-29.679
	c-16.863,0-30.534,13.671-30.534,30.534v7.862l0.104,0.128L87.35,89.6z"/>
<path fill="#51C4D6" d="M107.264,61.996c15.91,0,28.146,12.015,30.306,29.679l0.091-0.11l6.478,5V91.71
	c0-20.341-16.549-36.89-36.891-36.89c-19.632,0-35.729,15.417-36.828,34.778l-5.14-5.553l1.041,5.553l10.41,10.794V92.53
	C76.73,75.667,90.4,61.996,107.264,61.996"/>
<path fill="#51C4D6" d="M107.264,61.996c15.91,0,28.146,12.015,30.306,29.679l0.091-0.11l6.478,5V91.71
	c0-20.341-16.549-36.89-36.891-36.89c-19.632,0-35.729,15.417-36.828,34.778l-5.14-5.553l1.041,5.553l10.41,10.794V92.53
	C76.73,75.667,90.4,61.996,107.264,61.996"/>
<path fill="#FFFFFF" d="M107.264,61.996c15.91,0,28.146,12.015,30.306,29.679l0.091-0.11l6.478,5V91.71
	c0-20.341-16.549-36.89-36.891-36.89c-19.632,0-35.729,15.417-36.828,34.778l-5.14-5.553l1.041,5.553l10.41,10.794V92.53
	C76.73,75.667,90.4,61.996,107.264,61.996"/>
<path fill="#51C4D6" d="M107.264,61.996c15.91,0,28.146,12.015,30.306,29.679l0.091-0.11l6.478,5V91.71
	c0-20.341-16.549-36.89-36.891-36.89c-19.632,0-35.729,15.417-36.828,34.778l-5.14-5.553l1.041,5.553l10.41,10.794V92.53
	C76.73,75.667,90.4,61.996,107.264,61.996"/>
<path fill="#191818" d="M107.248,54.819c1.271,0,2.527,0.064,3.766,0.19c0.877,0.089,1.746,0.211,2.604,0.361
	c1.975,0.345,3.896,0.849,5.75,1.496c0.36,0.125,0.717,0.257,1.071,0.393c0.223,0.085,0.441,0.172,0.662,0.262
	c0.32,0.131,0.639,0.266,0.953,0.403c0.529,0.233,1.055,0.479,1.57,0.736c0.572,0.283,1.137,0.583,1.689,0.896
	c0.246,0.141,0.492,0.281,0.733,0.426c3.422,2.034,6.488,4.605,9.082,7.6c0.388,0.445,0.763,0.901,1.129,1.367
	c1.097,1.394,2.095,2.867,2.983,4.412c0.146,0.259,0.293,0.518,0.435,0.778c0.285,0.522,0.558,1.053,0.816,1.59
	c0.129,0.271,0.256,0.539,0.379,0.813c0.862,1.906,1.569,3.896,2.103,5.958c0.303,1.178,0.549,2.379,0.735,3.599
	c0.094,0.61,0.172,1.226,0.235,1.845c0.125,1.237,0.189,2.494,0.189,3.767v4.854l-6.566-5.369l-6.387,5.369v-4.854
	c0-1.031-0.064-2.047-0.191-3.044c-0.051-0.399-0.112-0.795-0.184-1.188c-0.035-0.194-0.072-0.391-0.111-0.586
	c-0.08-0.389-0.17-0.773-0.27-1.156c-0.246-0.954-0.549-1.889-0.906-2.793c-0.215-0.543-0.449-1.076-0.701-1.601
	c-0.168-0.349-0.346-0.692-0.528-1.032c-0.277-0.509-0.572-1.006-0.884-1.491c-0.52-0.81-1.086-1.587-1.696-2.324
	c-0.608-0.739-1.265-1.441-1.957-2.104c-0.14-0.132-0.278-0.263-0.42-0.392c-4.254-3.866-9.899-6.227-16.086-6.227
	c-2.732,0-5.357,0.461-7.805,1.308c-0.175,0.061-0.35,0.123-0.521,0.188c-0.346,0.129-0.688,0.267-1.026,0.409
	c-1.522,0.649-2.962,1.45-4.304,2.386c-0.299,0.208-0.592,0.424-0.879,0.646c-0.865,0.662-1.682,1.382-2.447,2.154
	c-0.51,0.515-0.997,1.053-1.461,1.61c-0.114,0.142-0.229,0.28-0.342,0.423c-2.811,3.561-4.635,7.935-5.054,12.704l1.97-1.851
	c0.545-0.511,1.037-0.769,1.394-0.769s0.577,0.258,0.577,0.769v1.851l-10.516,10.921l-0.104-0.127l-10.41-10.794V87.75
	c0-0.511,0.229-0.769,0.601-0.769s0.883,0.258,1.449,0.769c1.133,1.021,2.051,1.851,2.051,1.851
	c0.668-11.799,6.907-22.133,16.121-28.405c0.237-0.16,0.475-0.318,0.715-0.476c0.48-0.311,0.969-0.611,1.465-0.899
	c0.246-0.145,0.496-0.285,0.748-0.425C94.744,56.479,100.805,54.819,107.248,54.819 M107.248,50.345
	c-6.97,0-13.865,1.775-19.943,5.133c-0.281,0.155-0.562,0.314-0.84,0.479c-0.552,0.32-1.104,0.661-1.641,1.008
	c-0.268,0.174-0.535,0.352-0.799,0.53c-8.67,5.9-14.77,14.946-17.096,25.014h-0.01c-2.894,0-5.076,2.254-5.076,5.242v1.851v1.809
	l1.254,1.3l10.287,10.664l3.184,3.879l3.49-3.625l10.515-10.921l1.251-1.3V89.6v-1.851c0-1.857-0.839-3.431-2.165-4.355
	c0.625-1.313,1.399-2.563,2.315-3.724c0.095-0.119,0.188-0.234,0.281-0.348c0.373-0.45,0.773-0.894,1.187-1.311
	c0.623-0.628,1.293-1.219,1.993-1.756c0.234-0.179,0.473-0.354,0.715-0.522c1.098-0.767,2.275-1.418,3.499-1.939
	c0.276-0.118,0.555-0.229,0.835-0.333c0.137-0.051,0.279-0.103,0.424-0.152c2.032-0.704,4.166-1.06,6.34-1.06
	c4.84,0,9.484,1.797,13.075,5.062c0.114,0.105,0.229,0.213,0.345,0.32c0.561,0.536,1.098,1.112,1.592,1.711
	c0.496,0.602,0.961,1.238,1.381,1.894c0.254,0.395,0.496,0.804,0.719,1.215c0.15,0.273,0.293,0.555,0.431,0.838
	c0.205,0.424,0.396,0.86,0.569,1.299c0.291,0.737,0.539,1.5,0.736,2.267c0.08,0.312,0.152,0.623,0.217,0.939
	c0.033,0.157,0.063,0.315,0.093,0.475c0.057,0.319,0.104,0.643,0.147,0.965c0.104,0.815,0.156,1.649,0.156,2.479v4.854v9.609
	l7.354-6.185l3.547-2.982l3.695,3.021l7.308,5.976v-9.438v-4.854c0-1.407-0.071-2.826-0.214-4.22
	c-0.07-0.689-0.159-1.386-0.264-2.068c-0.207-1.354-0.486-2.713-0.828-4.038c-0.588-2.285-1.384-4.535-2.356-6.687
	c-0.14-0.309-0.28-0.611-0.427-0.912c-0.289-0.6-0.596-1.199-0.914-1.783c-0.159-0.292-0.321-0.583-0.488-0.871
	c-0.99-1.722-2.115-3.386-3.346-4.949c-0.406-0.518-0.832-1.033-1.264-1.53c-2.921-3.369-6.345-6.233-10.177-8.515
	c-0.271-0.161-0.545-0.319-0.819-0.476c-0.623-0.352-1.261-0.689-1.897-1.006c-0.58-0.288-1.173-0.566-1.763-0.825
	c-0.353-0.156-0.711-0.308-1.069-0.453c-0.243-0.1-0.491-0.197-0.739-0.293c-0.4-0.154-0.802-0.301-1.205-0.441
	c-2.101-0.731-4.271-1.298-6.453-1.679c-0.979-0.171-1.961-0.307-2.922-0.405C110.074,50.417,108.654,50.345,107.248,50.345"/>
<path fill="#FFFFFF" d="M127.314,105.299l-1.81,7.404l5.748-7.404c-1.071,12.214-11.351,21.826-23.837,21.826
	c-13.198,0-23.937-10.736-23.937-23.936v-4.854l-6.385,4.89c2.158,17.664,14.395,29.68,30.305,29.68
	c16.863,0,30.535-13.671,30.535-30.534v-7.864l-0.104-0.127L127.314,105.299z"/>
<path fill="#FFFFFF" d="M127.314,105.299l-1.81,7.404l5.748-7.404c-1.071,12.214-11.351,21.826-23.837,21.826
	c-13.198,0-23.937-10.736-23.937-23.936v-4.854l-6.385,4.89c2.158,17.664,14.395,29.68,30.305,29.68
	c16.863,0,30.535-13.671,30.535-30.534v-7.864l-0.104-0.127L127.314,105.299z"/>
<path fill="#51C4D6" d="M107.4,132.903c-15.91,0-28.146-12.016-30.306-29.68l-0.091,0.11l-6.477-5v4.854
	c0,20.342,16.549,36.891,36.889,36.891c19.634,0,35.731-15.417,36.828-34.78l5.142,5.554l-1.041-5.554l-10.41-10.794v7.864
	C137.936,119.232,124.264,132.903,107.4,132.903"/>
<path fill="#51C4D6" d="M107.4,132.903c-15.91,0-28.146-12.016-30.306-29.68l-0.091,0.11l-6.477-5v4.854
	c0,20.342,16.549,36.891,36.889,36.891c19.634,0,35.731-15.417,36.828-34.78l5.142,5.554l-1.041-5.554l-10.41-10.794v7.864
	C137.936,119.232,124.264,132.903,107.4,132.903"/>
<path fill="#FFFFFF" d="M107.4,132.903c-15.91,0-28.146-12.016-30.306-29.68l-0.091,0.11l-6.477-5v4.854
	c0,20.342,16.549,36.891,36.889,36.891c19.634,0,35.731-15.417,36.828-34.78l5.142,5.554l-1.041-5.554l-10.41-10.794v7.864
	C137.936,119.232,124.264,132.903,107.4,132.903"/>
<path fill="#51C4D6" d="M107.4,132.903c-15.91,0-28.146-12.016-30.306-29.68l-0.091,0.11l-6.477-5v4.854
	c0,20.342,16.549,36.891,36.889,36.891c19.634,0,35.731-15.417,36.828-34.78l5.142,5.554l-1.041-5.554l-10.41-10.794v7.864
	C137.936,119.232,124.264,132.903,107.4,132.903"/>
<path fill="#191818" d="M137.83,94.379l0.104,0.127l10.412,10.794v1.852c0,0.511-0.23,0.768-0.603,0.768s-0.884-0.257-1.449-0.768
	c-1.133-1.021-2.051-1.852-2.051-1.852c-0.668,11.799-6.906,22.133-16.121,28.405c-0.235,0.161-0.476,0.319-0.715,0.476
	c-0.48,0.312-0.97,0.61-1.464,0.898c-0.248,0.146-0.498,0.287-0.748,0.426c-5.276,2.915-11.338,4.574-17.78,4.574
	c-1.271,0-2.527-0.064-3.766-0.19c-0.877-0.09-1.745-0.211-2.604-0.36c-1.975-0.347-3.896-0.85-5.75-1.496
	c-0.359-0.125-0.717-0.257-1.072-0.394c-0.221-0.085-0.442-0.172-0.661-0.262c-0.321-0.131-0.638-0.265-0.954-0.403
	c-0.529-0.232-1.053-0.479-1.57-0.735c-0.572-0.285-1.136-0.583-1.69-0.896c-0.246-0.139-0.49-0.279-0.733-0.425
	c-3.421-2.035-6.488-4.604-9.082-7.599c-0.386-0.446-0.763-0.901-1.128-1.366c-1.096-1.396-2.094-2.87-2.983-4.414
	c-0.148-0.258-0.293-0.517-0.436-0.778c-0.285-0.521-0.557-1.054-0.816-1.59c-0.129-0.27-0.256-0.539-0.379-0.813
	c-0.863-1.906-1.569-3.896-2.101-5.959c-0.304-1.178-0.551-2.378-0.737-3.599c-0.094-0.609-0.172-1.225-0.234-1.845
	c-0.127-1.237-0.191-2.494-0.191-3.766v-4.854l6.568,5.369l6.385-5.369v4.854c0,1.03,0.066,2.047,0.193,3.044
	c0.051,0.398,0.111,0.795,0.182,1.188c0.035,0.196,0.072,0.393,0.113,0.587c0.078,0.39,0.168,0.774,0.267,1.156
	c0.247,0.955,0.55,1.889,0.908,2.793c0.215,0.544,0.448,1.077,0.702,1.601c0.168,0.35,0.344,0.693,0.529,1.032
	c0.275,0.509,0.57,1.006,0.883,1.491c0.519,0.81,1.086,1.587,1.695,2.325c0.61,0.739,1.264,1.44,1.957,2.103
	c0.139,0.132,0.279,0.264,0.422,0.392c4.252,3.867,9.898,6.227,16.084,6.227c2.732,0,5.357-0.46,7.807-1.308
	c0.174-0.061,0.348-0.122,0.521-0.188c0.346-0.129,0.688-0.266,1.026-0.409c1.521-0.648,2.963-1.45,4.305-2.386
	c0.298-0.208,0.591-0.424,0.878-0.645c0.864-0.662,1.682-1.384,2.448-2.155c0.511-0.514,0.996-1.052,1.459-1.61
	c0.115-0.141,0.229-0.28,0.342-0.423c2.813-3.56,4.636-7.934,5.054-12.704l-1.969,1.852c-0.544,0.511-1.037,0.768-1.394,0.768
	s-0.576-0.257-0.576-0.768V105.3L137.83,94.379 M138.098,87.649l-3.49,3.625l-10.516,10.921l-1.252,1.3v1.805v1.852
	c0,1.856,0.84,3.43,2.164,4.354c-0.623,1.314-1.398,2.563-2.314,3.725c-0.092,0.115-0.184,0.23-0.276,0.344
	c-0.377,0.455-0.777,0.896-1.19,1.313c-0.621,0.628-1.294,1.218-1.994,1.756c-0.232,0.18-0.472,0.354-0.715,0.524
	c-1.097,0.764-2.272,1.417-3.498,1.938c-0.273,0.117-0.554,0.229-0.834,0.333c-0.142,0.053-0.281,0.104-0.425,0.152
	c-2.032,0.703-4.166,1.061-6.34,1.061c-4.841,0-9.484-1.799-13.074-5.063c-0.116-0.104-0.23-0.212-0.344-0.32
	c-0.562-0.534-1.099-1.11-1.594-1.712c-0.496-0.601-0.961-1.236-1.381-1.893c-0.253-0.395-0.495-0.802-0.718-1.213
	c-0.15-0.275-0.294-0.556-0.431-0.838c-0.205-0.426-0.396-0.861-0.569-1.301c-0.291-0.736-0.539-1.5-0.736-2.267
	c-0.08-0.311-0.153-0.623-0.218-0.939c-0.032-0.156-0.063-0.314-0.092-0.475c-0.057-0.319-0.105-0.641-0.147-0.964
	c-0.104-0.817-0.157-1.65-0.157-2.479v-4.854v-9.61l-7.354,6.186l-3.546,2.981l-3.695-3.021l-7.307-5.976v9.439v4.854
	c0,1.407,0.072,2.827,0.213,4.221c0.07,0.688,0.16,1.386,0.264,2.067c0.208,1.354,0.486,2.713,0.828,4.038
	c0.589,2.284,1.382,4.534,2.357,6.688c0.138,0.306,0.279,0.608,0.425,0.911c0.29,0.6,0.598,1.198,0.915,1.783
	c0.16,0.293,0.322,0.583,0.488,0.871c0.99,1.722,2.115,3.386,3.344,4.948c0.41,0.521,0.835,1.035,1.266,1.531
	c2.919,3.369,6.342,6.233,10.176,8.515c0.272,0.162,0.547,0.321,0.823,0.478c0.614,0.348,1.253,0.686,1.896,1.005
	c0.578,0.288,1.172,0.565,1.761,0.825c0.354,0.154,0.711,0.308,1.071,0.452c0.242,0.1,0.49,0.197,0.738,0.294
	c0.4,0.152,0.803,0.301,1.208,0.441c2.095,0.73,4.267,1.296,6.451,1.678c0.978,0.171,1.96,0.308,2.92,0.405
	c1.396,0.142,2.815,0.214,4.22,0.214c6.971,0,13.866-1.774,19.943-5.133c0.281-0.155,0.563-0.314,0.841-0.478
	c0.55-0.319,1.103-0.66,1.64-1.008c0.27-0.175,0.537-0.353,0.803-0.532c8.668-5.9,14.767-14.944,17.092-25.013h0.011
	c2.896,0,5.075-2.254,5.075-5.241V105.3v-1.807l-1.254-1.301l-10.285-10.664L138.098,87.649z"/>
</svg>
