<?xml version="1.0" encoding="utf-8"?>
<!-- Generator: Adobe Illustrator 16.0.0, SVG Export Plug-In . SVG Version: 6.00 Build 0)  -->
<!DOCTYPE svg PUBLIC "-//W3C//DTD SVG 1.1//EN" "http://www.w3.org/Graphics/SVG/1.1/DTD/svg11.dtd">
<svg version="1.1" id="Layer_1" xmlns="http://www.w3.org/2000/svg" xmlns:xlink="http://www.w3.org/1999/xlink" x="0px" y="0px"
	 width="240px" height="195px" viewBox="0 0 240 195" enable-background="new 0 0 240 195" xml:space="preserve">
<path fill="#FFFFFF" d="M194.664,115.197c2.359-0.212,5.646-2.306,4.914-10.46c-0.628-6.988-0.816-9.098,4.606-12.446
	c5.663-3.497,7.11-8.655,7.45-11.649c1.719-0.642,4.094-1.952,6.316-4.611c3.156-3.778,3.566-7.447,3.438-10.649
	c2.506-0.756,4.605-2.247,6.156-4.396c5.914-8.197,2.291-23.957,2.135-24.623c-0.295-1.242-1.402-2.121-2.68-2.123
	c-0.084,0.002-0.166,0.005-0.25,0.013c-1.17,0.104-2.158,0.948-2.432,2.108c-0.016,0.057-2.811,9.65-21.906,14.622
	c-22.945,5.975-34.434,28.754-34.445,28.983c-0.023,0.445,0.061,0.889,0.246,1.296c6.918,15.102,10.803,31.883,10.842,32.051
	C179.363,114.652,193.291,115.32,194.664,115.197"/>
<path fill="#1A1A19" d="M229.442,36.772c0,0,5.858,24.862-8.532,26.154c0.323,3.599,0.646,7.197-2.629,11.118
	c-3.275,3.92-6.873,4.243-6.873,4.243s0.646,7.196-6.227,11.439c-6.872,4.243-6.549,7.842-5.902,15.036
	c0.646,7.197-5.098,7.712-5.098,7.712s-7.145,2.145-11.643-4.277c-4.309-6.148-5.895-20.697-9.379-28.305
	c0,0,11.125-20.931,32.391-26.468C226.813,47.891,229.442,36.772,229.442,36.772 M228.953,31.112
	c-2.436,0.219-4.406,1.88-4.854,4.302c-0.327,0.859-3.633,8.438-19.938,12.683c-12.992,3.383-29.523,11.761-32.716,18.191
	c-3.347,6.748-3.751,12.658-3.784,13.311c-0.049,0.891,0.12,1.777,0.491,2.588c6.79,14.829,10.622,31.355,10.661,31.521
	c0.615,2.683,13.118,4.501,15.861,4.255c4.513-0.406,10.924-4.385,10.088-13.69c-0.613-6.843-0.664-7.401,3.313-9.856
	c5.342-3.3,7.684-8.119,8.502-12.076c1.822-0.905,3.936-2.376,5.93-4.763c3.1-3.711,3.961-7.335,4.086-10.519
	c2.229-1.029,4.132-2.606,5.629-4.681c6.527-9.051,3.004-25.069,2.58-26.867c-0.6-2.552-2.885-4.505-5.506-4.42
	C229.182,31.095,229.065,31.102,228.953,31.112"/>
<path fill="#1A1A19" d="M225.209,65.513c0,0-0.176-0.01-0.482-0.028c-0.293-0.01-0.816-0.09-1.381-0.158
	c-0.284-0.037-0.594-0.078-0.92-0.123c-0.326-0.041-0.633-0.14-0.967-0.212c-0.656-0.158-1.355-0.327-2.055-0.497
	c-0.699-0.14-1.363-0.418-1.992-0.623c-0.625-0.219-1.209-0.422-1.707-0.595c-0.99-0.346-1.649-0.577-1.649-0.577
	s0.701,0.021,1.752,0.051c0.521,0.014,1.126,0.029,1.776,0.048c0.322,0.008,0.654,0.017,0.994,0.025
	c0.336,0.022,0.681-0.011,1.022-0.034c0.679-0.049,1.356-0.097,1.992-0.142c0.312-0.03,0.627-0.028,0.896-0.082
	c0.268-0.048,0.521-0.093,0.754-0.135c0.471-0.092,0.813-0.127,1.123-0.214c0.295-0.075,0.465-0.118,0.465-0.118L225.209,65.513z"/>
<path fill="#1A1A19" d="M216.752,81.052c0,0-0.176-0.01-0.482-0.027c-0.293-0.011-0.818-0.09-1.382-0.158
	c-0.286-0.038-0.595-0.079-0.92-0.123c-0.326-0.041-0.632-0.14-0.966-0.212c-0.657-0.159-1.356-0.328-2.055-0.497
	c-0.699-0.14-1.363-0.418-1.994-0.624c-0.625-0.218-1.207-0.421-1.707-0.594c-0.989-0.347-1.648-0.577-1.648-0.577
	s0.699,0.02,1.751,0.05c0.521,0.014,1.126,0.03,1.778,0.048c0.32,0.008,0.654,0.018,0.992,0.026
	c0.338,0.021,0.682-0.011,1.023-0.035c0.678-0.048,1.355-0.096,1.992-0.141c0.311-0.03,0.627-0.028,0.895-0.082
	c0.268-0.049,0.52-0.094,0.754-0.136c0.473-0.092,0.814-0.127,1.123-0.213c0.295-0.075,0.465-0.118,0.465-0.118L216.752,81.052z"/>
<path fill="#FFFFFF" d="M45.121,115.197c-2.359-0.212-5.646-2.306-4.914-10.46c0.627-6.988,0.816-9.098-4.607-12.446
	c-5.662-3.497-7.109-8.655-7.45-11.649c-1.72-0.642-4.093-1.952-6.315-4.611c-3.156-3.778-3.568-7.447-3.439-10.649
	c-2.506-0.756-4.605-2.247-6.155-4.396c-5.913-8.197-2.292-23.957-2.134-24.623c0.293-1.242,1.402-2.121,2.68-2.123
	c0.082,0.002,0.166,0.005,0.249,0.013c1.169,0.104,2.157,0.948,2.431,2.108c0.018,0.057,2.813,9.65,21.908,14.622
	c22.945,5.975,34.432,28.754,34.445,28.983c0.023,0.445-0.063,0.889-0.246,1.296c-6.918,15.102-10.804,31.883-10.842,32.051
	C60.422,114.652,46.492,115.32,45.121,115.197"/>
<path fill="#1A1A19" d="M10.342,36.772c0,0,2.629,11.118,23.893,16.653C55.5,58.963,66.625,79.894,66.625,79.894
	c-3.484,7.607-5.072,22.156-9.379,28.305c-4.498,6.422-11.645,4.277-11.645,4.277s-5.742-0.515-5.096-7.712
	c0.645-7.194,0.969-10.793-5.902-15.036c-6.873-4.243-6.227-11.439-6.227-11.439s-3.599-0.323-6.873-4.243
	c-3.275-3.921-2.953-7.52-2.629-11.118C4.484,61.635,10.342,36.772,10.342,36.772 M10.832,31.112
	c-0.113-0.011-0.229-0.018-0.346-0.022c-2.621-0.085-4.904,1.868-5.505,4.42c-0.423,1.798-3.947,17.816,2.581,26.867
	c1.496,2.074,3.398,3.651,5.629,4.681c0.125,3.184,0.986,6.808,4.086,10.519c1.994,2.387,4.107,3.857,5.93,4.763
	c0.816,3.957,3.159,8.776,8.502,12.076c3.977,2.455,3.926,3.014,3.312,9.856c-0.835,9.306,5.575,13.284,10.089,13.69
	c2.742,0.246,15.246-1.572,15.861-4.255c0.037-0.165,3.869-16.691,10.66-31.521c0.371-0.811,0.541-1.697,0.492-2.588
	c-0.033-0.652-0.438-6.563-3.785-13.311c-3.191-6.431-19.724-14.809-32.716-18.191c-16.304-4.244-19.61-11.823-19.937-12.683
	C15.238,32.992,13.266,31.331,10.832,31.112"/>
<path fill="#1A1A19" d="M14.955,62.099c0,0,0.17,0.043,0.465,0.118c0.309,0.087,0.65,0.122,1.123,0.214
	c0.232,0.042,0.486,0.087,0.754,0.135c0.268,0.055,0.584,0.053,0.895,0.081c0.636,0.047,1.314,0.095,1.992,0.143
	c0.342,0.023,0.687,0.056,1.023,0.034c0.338-0.009,0.672-0.018,0.992-0.026c0.652-0.017,1.258-0.033,1.778-0.047
	c1.05-0.03,1.751-0.05,1.751-0.05s-0.659,0.23-1.648,0.575c-0.5,0.175-1.082,0.377-1.707,0.595
	c-0.631,0.207-1.294,0.484-1.994,0.625c-0.699,0.169-1.397,0.338-2.053,0.497c-0.335,0.071-0.643,0.171-0.968,0.212
	c-0.327,0.043-0.636,0.085-0.921,0.123c-0.563,0.067-1.088,0.147-1.381,0.156c-0.307,0.02-0.481,0.029-0.481,0.029L14.955,62.099z"
	/>
<path fill="#1A1A19" d="M23.414,77.639c0,0,0.168,0.043,0.465,0.117c0.307,0.088,0.65,0.122,1.123,0.215
	c0.232,0.042,0.484,0.087,0.752,0.135c0.269,0.054,0.584,0.052,0.896,0.081c0.636,0.046,1.313,0.094,1.993,0.142
	c0.34,0.024,0.686,0.057,1.021,0.034c0.34-0.008,0.672-0.017,0.995-0.026c0.65-0.017,1.257-0.032,1.776-0.047
	c1.051-0.029,1.75-0.05,1.75-0.05s-0.658,0.231-1.646,0.576c-0.5,0.174-1.084,0.377-1.707,0.594
	c-0.633,0.207-1.295,0.485-1.994,0.625c-0.699,0.169-1.398,0.338-2.055,0.497c-0.334,0.072-0.641,0.171-0.966,0.212
	c-0.327,0.043-0.636,0.085-0.921,0.123c-0.564,0.068-1.088,0.148-1.381,0.157c-0.307,0.019-0.481,0.029-0.481,0.029L23.414,77.639z"
	/>
<path fill="#F26C7C" d="M184.68,21.982h-63.213H58.252c-4.053,0-7.341,3.287-7.341,7.342v107.657c0,3.568,2.528,7.946,5.616,9.729
	l59.322,34.25c1.545,0.891,3.58,1.33,5.617,1.33c0.055,0,0.109,0.003,0.165,0.003c1.981-0.024,3.948-0.466,5.452-1.333l59.32-34.25
	c3.09-1.783,5.617-6.161,5.617-9.729V29.324C192.021,25.27,188.734,21.982,184.68,21.982"/>
<g>
	<defs>
		<path id="SVGID_1_" d="M56.676,19.982c-4.156,0-7.525,3.368-7.525,7.525v110.343c0,3.657,2.59,8.146,5.758,9.973l60.801,35.104
			c1.627,0.939,3.783,1.394,5.928,1.366c2.029-0.025,4.047-0.476,5.588-1.366l60.801-35.104c3.166-1.827,5.758-6.315,5.758-9.973
			V27.508c0-4.157-3.371-7.525-7.526-7.525H56.676z"/>
	</defs>
	<clipPath id="SVGID_2_">
		<use xlink:href="#SVGID_1_"  overflow="visible"/>
	</clipPath>
	<g opacity="0.5" clip-path="url(#SVGID_2_)">
		<g>
			<defs>
				<rect id="SVGID_3_" x="89.359" y="3.811" width="64.221" height="187.635"/>
			</defs>
			<clipPath id="SVGID_4_">
				<use xlink:href="#SVGID_3_"  overflow="visible"/>
			</clipPath>
			<rect x="89.358" y="3.811" clip-path="url(#SVGID_4_)" fill="#DF2E54" width="64.217" height="187.635"/>
		</g>
	</g>
</g>
<g opacity="0.5">
	<g>
		<defs>
			<rect id="SVGID_5_" x="49.15" y="19.983" width="144.629" height="164.311"/>
		</defs>
		<clipPath id="SVGID_6_">
			<use xlink:href="#SVGID_5_"  overflow="visible"/>
		</clipPath>
		<path clip-path="url(#SVGID_6_)" fill="#FFFFFF" d="M179.986,33.779v102.754l-58.52,33.786l-58.52-33.786V33.779H179.986
			 M186.258,19.982H56.676c-4.156,0-7.525,3.369-7.525,7.525v110.344c0,3.656,2.59,8.143,5.757,9.972l60.802,35.104
			c1.584,0.914,3.67,1.368,5.756,1.368c0.057,0,0.114,0,0.172-0.001c2.029-0.024,4.047-0.478,5.588-1.367l60.801-35.104
			c3.166-1.829,5.757-6.315,5.757-9.972V27.508C193.782,23.352,190.412,19.982,186.258,19.982"/>
	</g>
</g>
<path fill="#1A1A19" d="M186.258,27.188c0.176,0,0.32,0.145,0.32,0.32v110.344c0,1.093-1.209,3.185-2.155,3.732l-60.802,35.104
	c-0.23,0.133-0.961,0.389-2.073,0.401l-0.083,0.001c-1.068,0-1.873-0.241-2.154-0.402L58.51,141.584
	c-0.945-0.547-2.154-2.64-2.154-3.732V27.508c0-0.176,0.145-0.32,0.32-0.32H186.258 M186.258,19.982H56.676
	c-4.156,0-7.525,3.369-7.525,7.525v110.344c0,3.656,2.59,8.143,5.757,9.972l60.802,35.104c1.584,0.914,3.67,1.368,5.756,1.368
	c0.057,0,0.114,0,0.172-0.001c2.029-0.024,4.047-0.478,5.588-1.367l60.801-35.104c3.166-1.829,5.757-6.315,5.757-9.972V27.508
	C193.782,23.352,190.412,19.982,186.258,19.982"/>
<rect x="52.604" y="24.999" fill="#191818" width="137.729" height="33.868"/>
<path fill="#FFFFFF" d="M93.076,47.517V30.174h5.59c4.784,0,7.54,3.588,7.54,8.685s-2.729,8.658-7.54,8.658H93.076z M102.645,38.858
	c0-3.433-1.354-5.616-3.979-5.616h-2.107v11.206h2.107C101.24,44.448,102.645,42.16,102.645,38.858"/>
<path fill="#FFFFFF" d="M117.438,47.518l-0.807-3.069h-5.33l-0.806,3.069h-3.771l5.15-17.344h4.211l5.148,17.344H117.438z
	 M113.979,33.84l-1.975,7.54h3.952L113.979,33.84z"/>
<rect x="122.977" y="30.174" fill="#FFFFFF" width="3.483" height="17.343"/>
<polygon fill="#FFFFFF" points="129.787,47.517 129.787,30.174 133.271,30.174 133.271,44.449 139.096,44.449 139.096,47.517 "/>
<polygon fill="#FFFFFF" points="142.657,47.517 142.657,40.367 137.301,30.174 141.148,30.174 144.398,37.142 147.648,30.174 
	151.498,30.174 146.141,40.367 146.141,47.517 "/>
<path fill="#FFFFFF" d="M135.688,142.444c-18.671,7.772-40.107-1.062-47.882-19.732c-7.772-18.671,1.062-40.108,19.731-47.882
	c18.672-7.773,40.108,1.061,47.883,19.731C163.193,113.232,154.359,134.671,135.688,142.444"/>
<path fill="#191818" d="M121.057,82.086c0,0-0.002,0.022-0.005,0.059h0.011C121.059,82.108,121.057,82.086,121.057,82.086"/>
<path fill="#191818" d="M136.455,73.888l2.838-3.358c0.982-1.161,2.719-1.306,3.879-0.325l13.199,11.159
	c1.162,0.981,1.307,2.719,0.326,3.879l-2.84,3.358L136.455,73.888z"/>
<path fill="#F26C7C" d="M157.768,109.488l-0.693-2.687l0.033-1.954l-0.578-0.167l-3.533-13.725
	c-6.28-11.016-18.926-18.269-31.191-17.98l-0.07,3.163l0.115,31.992L90.875,91.946l-5.361,11.448v9.085l3.271,12.538l5.633,9.267
	l7.086,6.178l10.177,4.543l9.448,1.272l9.449-1.454l10.902-5.451l8.358-6.359l5.815-8.54l1.271-8.723l0.105-6.27L157.768,109.488z"
	/>
<path fill="#F26C7C" d="M157.768,109.488l-0.693-2.687l0.033-1.954l-0.578-0.167l-3.533-13.725
	c-6.28-11.016-18.926-18.269-31.191-17.98l-0.07,3.163l0.115,31.992L90.875,91.946l-5.361,11.448v9.085l3.271,12.538l5.633,9.267
	l7.086,6.178l10.177,4.543l9.448,1.272l9.449-1.454l10.902-5.451l8.358-6.359l5.815-8.54l1.271-8.723l0.105-6.27L157.768,109.488z"
	/>
<path fill="#FFFFFF" d="M121.306,72.54v6.723c12.118,0,22.958,7.229,27.614,18.416c3.069,7.372,3.084,15.498,0.041,22.881
	s-8.777,13.14-16.15,16.209c-3.674,1.53-7.536,2.306-11.475,2.306c-12.119,0-22.959-7.228-27.615-18.414
	c-3.07-7.372-3.084-15.5-0.041-22.883s8.777-13.139,16.15-16.209c3.676-1.529,7.536-2.306,11.476-2.306V72.54 M121.306,72.54
	c-4.69,0-9.46,0.906-14.06,2.821c-18.672,7.773-27.506,29.211-19.732,47.883c5.857,14.069,19.476,22.554,33.822,22.554
	c4.69,0,9.459-0.907,14.059-2.822c18.672-7.772,27.506-29.211,19.732-47.882C149.27,81.023,135.65,72.54,121.306,72.54"/>
<path fill="#191818" d="M121.336,148.071c-15.764,0-29.863-9.402-35.922-23.953c-3.992-9.592-4.012-20.162-0.053-29.769
	c3.957-9.604,11.42-17.095,21.01-21.087c4.777-1.989,9.801-2.997,14.935-2.997c15.763,0,29.862,9.402,35.921,23.954
	c8.242,19.799-1.16,42.613-20.957,50.854C131.494,147.063,126.469,148.071,121.336,148.071 M121.306,74.813
	c-4.53,0-8.966,0.892-13.187,2.647C99.65,80.986,93.062,87.6,89.565,96.083c-3.495,8.481-3.479,17.816,0.048,26.287
	c5.35,12.851,17.801,21.154,31.723,21.154c4.529,0,8.965-0.891,13.186-2.648c17.482-7.278,25.785-27.424,18.506-44.908
	C147.678,83.117,135.227,74.813,121.306,74.813"/>
<path fill="#191818" d="M103.379,77.892c-0.658,0.38-0.884,1.223-0.504,1.88l3.127,5.414c0.379,0.658,1.223,0.888,1.883,0.512
	c0.662-0.377,0.889-1.215,0.508-1.872l-3.133-5.43C104.879,77.738,104.037,77.512,103.379,77.892"/>
<path fill="#191818" d="M90.182,91.089c-0.379,0.657-0.154,1.5,0.504,1.88l5.341,3.083c0.658,0.38,1.496,0.151,1.871-0.508v-0.001
	c0.376-0.66,0.146-1.505-0.513-1.885l-5.322-3.073C91.404,90.204,90.563,90.431,90.182,91.089"/>
<path fill="#191818" d="M90.182,127.143c0.381,0.658,1.223,0.884,1.881,0.504l5.178-2.99c0.657-0.38,0.881-1.22,0.5-1.878
	c-0.382-0.657-1.225-0.881-1.883-0.501l-5.172,2.985C90.027,125.643,89.803,126.484,90.182,127.143"/>
<path fill="#191818" d="M103.379,140.339c0.658,0.38,1.5,0.154,1.881-0.504l2.973-5.149c0.379-0.658,0.152-1.497-0.506-1.875
	c-0.66-0.378-1.502-0.15-1.883,0.508l-2.969,5.141C102.495,139.117,102.721,139.959,103.379,140.339"/>
<path fill="#191818" d="M139.434,140.339c0.657-0.38,0.883-1.222,0.504-1.88l-3.013-5.216c-0.38-0.658-1.224-0.887-1.884-0.511
	c-0.661,0.375-0.889,1.214-0.508,1.872l3.02,5.23C137.934,140.493,138.775,140.719,139.434,140.339"/>
<path fill="#191818" d="M152.629,127.143c0.381-0.658,0.154-1.5-0.504-1.88l-5.32-3.072c-0.658-0.38-1.496-0.153-1.872,0.508
	c-0.375,0.661-0.146,1.505,0.513,1.886l5.305,3.063C151.408,128.026,152.25,127.801,152.629,127.143"/>
<path fill="#191818" d="M152.629,91.089c-0.379-0.658-1.221-0.885-1.879-0.504l-5.475,3.16c-0.658,0.381-0.883,1.222-0.501,1.878
	c0.382,0.657,1.226,0.883,1.884,0.503l5.467-3.157C152.783,92.589,153.01,91.746,152.629,91.089"/>
<path fill="#191818" d="M139.434,77.892c-0.658-0.38-1.5-0.153-1.881,0.504l-3.178,5.504c-0.381,0.659-0.154,1.498,0.506,1.876
	c0.66,0.377,1.503,0.15,1.883-0.508l3.174-5.496C140.316,79.114,140.091,78.271,139.434,77.892"/>
<path fill="#191818" d="M121.059,82.115c0.002,0.016,0.59,0.029,1.313,0.029s1.309-0.616,1.309-1.377v-6.329
	c0-0.761-0.617-1.378-1.377-1.378h-1.795c-0.76,0-1.375,0.617-1.375,1.378v6.329c0,0.761,0.429,1.377,0.959,1.377
	c0.531,0,0.961-0.014,0.961-0.029C121.055,82.099,121.057,82.099,121.059,82.115"/>
<path fill="#191818" d="M157.461,110.014v-1.796c0-0.76-0.617-1.377-1.377-1.377h-6.238c-0.76,0-1.377,0.617-1.377,1.377v1.796
	c0,0.76,0.617,1.376,1.377,1.376h6.238C156.844,111.39,157.461,110.773,157.461,110.014"/>
<path fill="#191818" d="M85.352,108.218v1.795c0,0.76,0.616,1.377,1.377,1.377h6.055c0.76,0,1.375-0.617,1.375-1.377v-1.795
	c0-0.76-0.615-1.376-1.375-1.376h-6.055C85.968,106.842,85.352,107.458,85.352,108.218"/>
<path fill="#191818" d="M120.509,145.169h1.795c0.759,0,1.376-0.615,1.376-1.376v-5.963c0-0.76-0.617-1.376-1.376-1.376h-1.795
	c-0.761,0-1.376,0.616-1.376,1.376v5.963C119.133,144.554,119.748,145.169,120.509,145.169"/>
<path fill="#191818" d="M140.3,108.481c0,10.286-8.339,18.625-18.625,18.625c-10.287,0-18.626-8.339-18.626-18.625
	c0-10.285,8.339-18.625,18.626-18.625C131.961,89.856,140.3,98.196,140.3,108.481"/>
<polygon fill="#F26C7C" points="113.895,117.578 113.895,104.146 111.148,107.002 109.055,104.8 114.383,99.442 117.565,99.442 
	117.565,117.578 "/>
<path fill="#F26C7C" d="M119.357,108.523c0-4.677,1.93-9.354,6.416-9.354c4.514,0,6.418,4.677,6.418,9.354
	c0,4.649-1.877,9.382-6.418,9.382C121.287,117.905,119.357,113.173,119.357,108.523 M128.494,108.523c0-3.507-0.6-6.118-2.721-6.118
	c-2.093,0-2.689,2.611-2.689,6.118c0,3.48,0.597,6.146,2.689,6.146C127.895,114.67,128.494,112.004,128.494,108.523"/>
<polygon fill="#F26C7C" points="71.301,31.607 63.301,38.607 71.301,45.607 79.301,38.607 "/>
<polygon fill="#F26C7C" points="171.633,31.607 163.633,38.607 171.633,45.607 179.633,38.607 "/>
<path fill="#F26C7C" d="M204.57,26.834c0,12.149-9.851,22-22,22c-12.15,0-22-9.851-22-22c0-12.15,9.85-22,22-22
	C194.72,4.834,204.57,14.684,204.57,26.834"/>
<g opacity="0.5">
	<g>
		<defs>
			<rect id="SVGID_7_" x="160.57" y="4.834" width="44" height="44"/>
		</defs>
		<clipPath id="SVGID_8_">
			<use xlink:href="#SVGID_7_"  overflow="visible"/>
		</clipPath>
		<path clip-path="url(#SVGID_8_)" fill="#FFFFFF" d="M182.57,8.834c9.924,0,18,8.074,18,18c0,9.925-8.076,18-18,18
			c-9.926,0-18-8.075-18-18C164.57,16.908,172.645,8.834,182.57,8.834 M182.57,4.834c-12.15,0-22,9.85-22,22c0,12.149,9.85,22,22,22
			c12.149,0,22-9.851,22-22C204.57,14.684,194.72,4.834,182.57,4.834"/>
	</g>
</g>
<path fill="#191818" d="M182.569,50.833c-13.233,0-24-10.767-24-24c0-13.232,10.767-24,24-24s24,10.768,24,24
	C206.569,40.066,195.803,50.833,182.569,50.833 M182.569,6.833c-11.028,0-20,8.973-20,20c0,11.028,8.972,20,20,20s20-8.972,20-20
	C202.569,15.806,193.598,6.833,182.569,6.833"/>
<polygon fill="#1A1A19" points="176.972,33.833 174.672,30.186 172.297,33.833 168.098,33.833 172.224,27.636 168.349,21.762 
	172.572,21.762 174.646,25.035 176.695,21.762 180.92,21.762 177.07,27.636 181.195,33.833 "/>
<path fill="#1A1A19" d="M182.148,33.833v-3.349c7.223-5.223,8.572-6.374,8.572-8.047c0-1.125-1.074-1.726-2.299-1.726
	c-1.85,0-3.25,0.699-4.449,1.824l-2.375-2.849c1.775-1.95,4.424-2.775,6.748-2.775c3.924,0,6.748,2.2,6.748,5.525
	c0,2.574-1.824,4.748-5.972,7.646h6.097v3.749H182.148z"/>
</svg>
