<?xml version="1.0" encoding="utf-8"?>
<!-- Generator: Adobe Illustrator 16.0.0, SVG Export Plug-In . SVG Version: 6.00 Build 0)  -->
<!DOCTYPE svg PUBLIC "-//W3C//DTD SVG 1.1//EN" "http://www.w3.org/Graphics/SVG/1.1/DTD/svg11.dtd">
<svg version="1.1" id="Layer_1" xmlns="http://www.w3.org/2000/svg" xmlns:xlink="http://www.w3.org/1999/xlink" x="0px" y="0px"
	 width="612px" height="792px" viewBox="0 0 612 792" enable-background="new 0 0 612 792" xml:space="preserve">
<polygon fill="#A6A8AC" points="206.424,498.229 202.744,485.053 199.066,498.229 197.594,498.229 193.201,482.892 194.673,482.892 
	198.375,496.39 202.146,482.892 203.344,482.892 207.092,496.39 210.793,482.892 212.266,482.892 207.896,498.229 "/>
<path fill="#A6A8AC" d="M227.354,498.23l-1.518-3.772h-8.117l-1.519,3.772h-1.517l6.277-15.338h1.633l6.277,15.338H227.354z
	 M221.789,484.294l-3.634,8.97h7.243L221.789,484.294z"/>
<polygon fill="#A6A8AC" points="233.566,498.229 233.566,482.892 234.898,482.892 234.898,497.033 242.326,497.033 242.326,498.229 
	"/>
<polygon fill="#A6A8AC" points="257.115,498.229 250.793,491.009 249.092,492.872 249.092,498.229 247.779,498.229 247.779,482.892 
	249.092,482.892 249.092,491.286 256.496,482.892 258.174,482.892 251.643,490.205 258.795,498.229 "/>
<path fill="#A6A8AC" d="M283.841,498.23l-1.519-3.772h-8.117l-1.518,3.772h-1.518l6.277-15.338h1.633l6.278,15.338H283.841z
	 M278.275,484.294l-3.633,8.97h7.243L278.275,484.294z"/>
<polygon fill="#A6A8AC" points="292.697,498.229 292.697,484.087 287.684,484.087 287.684,482.892 299.043,482.892 299.043,484.087 
	294.031,484.087 294.031,498.229 "/>
<polygon fill="#A6A8AC" points="312.916,498.229 312.916,482.892 314.248,482.892 314.248,497.033 321.676,497.033 321.676,498.229 
	"/>
<polygon fill="#A6A8AC" points="327.129,498.229 327.129,482.892 336.855,482.892 336.855,484.087 328.439,484.087 328.439,489.768 
	336.694,489.768 336.694,490.963 328.439,490.963 328.439,497.033 336.855,497.033 336.855,498.229 "/>
<path fill="#A6A8AC" d="M353.967,498.23l-1.518-3.772h-8.117l-1.519,3.772h-1.517l6.277-15.338h1.633l6.277,15.338H353.967z
	 M348.402,484.294l-3.634,8.97h7.243L348.402,484.294z"/>
<path fill="#A6A8AC" d="M359.26,496.067l0.852-0.987c0.988,1.127,2.598,2.229,4.806,2.229c3.127,0,4.024-1.748,4.024-3.058
	c0-4.508-9.198-2.162-9.198-7.521c0-2.506,2.253-4.093,5.036-4.093c2.277,0,4.023,0.805,5.197,2.161l-0.875,0.966
	c-1.104-1.333-2.666-1.931-4.392-1.931c-2.047,0-3.588,1.172-3.588,2.829c0,3.931,9.198,1.77,9.198,7.496
	c0,1.977-1.311,4.346-5.449,4.346C362.341,498.506,360.434,497.471,359.26,496.067"/>
<polygon fill="#A6A8AC" points="380.074,498.229 380.074,484.087 375.062,484.087 375.062,482.892 386.422,482.892 386.422,484.087 
	381.408,484.087 381.408,498.229 "/>
<polygon fill="#A6A8AC" points="402.568,498.229 402.568,484.686 400.107,487.307 399.303,486.457 402.684,482.892 403.879,482.892 
	403.879,498.229 "/>
<path fill="#A6A8AC" d="M409.884,490.572c0-3.655,1.54-7.91,5.68-7.91c4.093,0,5.656,4.255,5.656,7.91
	c0,3.633-1.563,7.934-5.656,7.934C411.424,498.506,409.884,494.205,409.884,490.572 M419.818,490.572
	c0-3.174-1.035-6.715-4.255-6.715c-3.241,0-4.3,3.541-4.3,6.715c0,3.15,1.059,6.737,4.3,6.737
	C418.76,497.31,419.818,493.723,419.818,490.572"/>
<polygon fill="#A6A8AC" points="229.264,525.829 229.264,518.54 219.536,518.54 219.536,525.829 218.225,525.829 218.225,510.491 
	219.536,510.491 219.536,517.345 229.264,517.345 229.264,510.491 230.574,510.491 230.574,525.829 "/>
<path fill="#A6A8AC" d="M236.578,518.172c0-4.483,2.945-7.934,7.451-7.934c4.484,0,7.451,3.45,7.451,7.934
	c0,4.484-2.967,7.935-7.451,7.935C239.523,526.106,236.578,522.656,236.578,518.172 M250.1,518.172c0-3.887-2.392-6.736-6.07-6.736
	c-3.701,0-6.07,2.85-6.07,6.736c0,3.863,2.369,6.737,6.07,6.737C247.708,524.909,250.1,522.035,250.1,518.172"/>
<path fill="#A6A8AC" d="M257.486,519.942v-9.451h1.334v9.429c0,3.104,1.633,4.99,4.645,4.99s4.645-1.887,4.645-4.99v-9.429h1.334
	v9.451c0,3.794-2.023,6.163-5.979,6.163C259.533,526.105,257.486,523.714,257.486,519.942"/>
<path fill="#A6A8AC" d="M285.016,525.83l-4.301-6.348h-3.379v6.348h-1.313v-15.338h5.727c2.644,0,4.668,1.678,4.668,4.483
	c0,2.782-1.955,4.323-4.254,4.415l4.438,6.439H285.016z M285.039,514.976c0-1.932-1.357-3.288-3.404-3.288h-4.299v6.601h4.299
	C283.682,518.288,285.039,516.908,285.039,514.976"/>
<path fill="#A6A8AC" d="M291.596,523.668l0.85-0.988c0.99,1.127,2.599,2.229,4.807,2.229c3.127,0,4.023-1.747,4.023-3.058
	c0-4.508-9.197-2.162-9.197-7.52c0-2.507,2.253-4.094,5.035-4.094c2.277,0,4.025,0.805,5.197,2.162l-0.873,0.966
	c-1.104-1.334-2.668-1.931-4.393-1.931c-2.047,0-3.588,1.172-3.588,2.828c0,3.931,9.199,1.77,9.199,7.495
	c0,1.978-1.311,4.348-5.45,4.348C294.676,526.106,292.768,525.07,291.596,523.668"/>
<polygon fill="#A6A8AC" points="321.195,525.829 321.195,511.688 316.182,511.688 316.182,510.491 327.541,510.491 327.541,511.688 
	322.529,511.688 322.529,525.829 "/>
<path fill="#A6A8AC" d="M331.775,518.172c0-4.483,2.945-7.934,7.451-7.934c4.484,0,7.451,3.45,7.451,7.934
	c0,4.484-2.967,7.935-7.451,7.935C334.721,526.106,331.775,522.656,331.775,518.172 M345.297,518.172
	c0-3.887-2.392-6.736-6.07-6.736c-3.701,0-6.07,2.85-6.07,6.736c0,3.863,2.369,6.737,6.07,6.737
	C342.905,524.909,345.297,522.035,345.297,518.172"/>
<path fill="#A6A8AC" d="M352.683,525.829v-15.338h4.899c4.76,0,7.748,3.473,7.748,7.681c0,4.254-2.988,7.657-7.748,7.657H352.683z
	 M363.951,518.172c0-3.587-2.3-6.483-6.369-6.483h-3.588v12.945h3.588C361.629,524.634,363.951,521.759,363.951,518.172"/>
<path fill="#A6A8AC" d="M381.569,525.83l-1.519-3.772h-8.117l-1.518,3.772h-1.518l6.277-15.338h1.633l6.278,15.338H381.569z
	 M376.004,511.895l-3.633,8.969h7.243L376.004,511.895z"/>
<polygon fill="#A6A8AC" points="391.207,525.829 391.207,519.275 385.113,510.491 386.7,510.491 391.875,518.034 397.049,510.491 
	398.635,510.491 392.541,519.275 392.541,525.829 "/>
<path fill="#FFFFFF" d="M377.664,371.197c2.359-0.212,5.646-2.306,4.914-10.46c-0.628-6.988-0.816-9.098,4.606-12.446
	c5.663-3.497,7.11-8.655,7.45-11.649c1.72-0.642,4.094-1.952,6.316-4.611c3.156-3.778,3.567-7.447,3.438-10.649
	c2.507-0.756,4.605-2.247,6.156-4.396c5.914-8.197,2.291-23.957,2.135-24.623c-0.295-1.242-1.402-2.121-2.68-2.123
	c-0.084,0.002-0.166,0.005-0.25,0.013c-1.17,0.104-2.158,0.948-2.431,2.108c-0.017,0.057-2.812,9.65-21.907,14.622
	c-22.945,5.975-34.433,28.754-34.445,28.983c-0.023,0.445,0.061,0.889,0.246,1.296c6.918,15.102,10.803,31.883,10.842,32.051
	C362.363,370.652,376.291,371.32,377.664,371.197"/>
<path fill="#1A1A19" d="M412.442,292.772c0,0,5.858,24.862-8.532,26.154c0.323,3.599,0.646,7.197-2.629,11.118
	c-3.275,3.92-6.873,4.243-6.873,4.243s0.646,7.196-6.227,11.439c-6.872,4.243-6.549,7.842-5.902,15.036
	c0.646,7.197-5.097,7.712-5.097,7.712s-7.146,2.145-11.644-4.277c-4.308-6.148-5.895-20.697-9.379-28.305
	c0,0,11.125-20.931,32.391-26.468C409.813,303.891,412.442,292.772,412.442,292.772 M411.953,287.112
	c-2.435,0.219-4.406,1.88-4.854,4.302c-0.327,0.859-3.633,8.438-19.938,12.683c-12.992,3.383-29.523,11.761-32.716,18.191
	c-3.347,6.748-3.751,12.658-3.784,13.311c-0.049,0.891,0.12,1.777,0.491,2.588c6.791,14.829,10.623,31.355,10.661,31.521
	c0.615,2.683,13.118,4.501,15.861,4.255c4.513-0.406,10.924-4.385,10.088-13.69c-0.613-6.843-0.664-7.401,3.313-9.856
	c5.342-3.3,7.684-8.119,8.502-12.076c1.822-0.905,3.936-2.376,5.93-4.763c3.1-3.711,3.961-7.335,4.086-10.519
	c2.229-1.029,4.132-2.606,5.629-4.681c6.527-9.051,3.004-25.069,2.58-26.867c-0.6-2.552-2.885-4.505-5.506-4.42
	C412.182,287.095,412.065,287.102,411.953,287.112"/>
<path fill="#1A1A19" d="M408.209,321.513c0,0-0.176-0.01-0.481-0.028c-0.293-0.01-0.817-0.09-1.381-0.158
	c-0.285-0.037-0.595-0.078-0.921-0.123c-0.326-0.041-0.632-0.14-0.967-0.212c-0.656-0.158-1.355-0.327-2.055-0.497
	c-0.699-0.14-1.363-0.418-1.992-0.623c-0.625-0.219-1.209-0.422-1.707-0.595c-0.99-0.346-1.649-0.577-1.649-0.577
	s0.701,0.021,1.752,0.051c0.521,0.014,1.126,0.029,1.776,0.048c0.322,0.008,0.654,0.017,0.994,0.025
	c0.336,0.022,0.681-0.011,1.022-0.034c0.679-0.049,1.356-0.097,1.992-0.142c0.312-0.03,0.627-0.028,0.896-0.082
	c0.268-0.048,0.521-0.093,0.754-0.135c0.472-0.092,0.813-0.127,1.123-0.214c0.295-0.075,0.465-0.118,0.465-0.118L408.209,321.513z"
	/>
<path fill="#1A1A19" d="M399.751,337.052c0,0-0.175-0.01-0.481-0.027c-0.293-0.011-0.818-0.09-1.382-0.158
	c-0.285-0.038-0.594-0.079-0.92-0.123c-0.326-0.041-0.633-0.14-0.967-0.212c-0.656-0.159-1.355-0.328-2.054-0.497
	c-0.699-0.14-1.363-0.418-1.994-0.624c-0.625-0.218-1.207-0.421-1.707-0.594c-0.989-0.347-1.648-0.577-1.648-0.577
	s0.7,0.02,1.751,0.05c0.521,0.014,1.127,0.03,1.777,0.048c0.321,0.008,0.655,0.018,0.993,0.026c0.338,0.021,0.682-0.011,1.023-0.035
	c0.678-0.048,1.355-0.096,1.992-0.141c0.311-0.03,0.627-0.028,0.895-0.082c0.268-0.049,0.521-0.094,0.754-0.136
	c0.473-0.092,0.814-0.127,1.123-0.213c0.295-0.075,0.465-0.118,0.465-0.118L399.751,337.052z"/>
<path fill="#FFFFFF" d="M228.121,371.197c-2.359-0.212-5.646-2.306-4.914-10.46c0.627-6.988,0.816-9.098-4.607-12.446
	c-5.662-3.497-7.109-8.655-7.45-11.649c-1.72-0.642-4.093-1.952-6.315-4.611c-3.156-3.778-3.568-7.447-3.438-10.649
	c-2.507-0.756-4.606-2.247-6.156-4.396c-5.913-8.197-2.291-23.957-2.134-24.623c0.294-1.242,1.402-2.121,2.68-2.123
	c0.083,0.002,0.166,0.005,0.249,0.013c1.17,0.104,2.158,0.948,2.431,2.108c0.018,0.057,2.813,9.65,21.908,14.622
	c22.945,5.975,34.432,28.754,34.445,28.983c0.023,0.445-0.063,0.889-0.246,1.296c-6.918,15.102-10.804,31.883-10.842,32.051
	C243.422,370.652,229.493,371.32,228.121,371.197"/>
<path fill="#1A1A19" d="M193.342,292.772c0,0,2.629,11.118,23.893,16.653c21.266,5.537,32.391,26.468,32.391,26.468
	c-3.484,7.607-5.072,22.156-9.379,28.305c-4.498,6.422-11.645,4.277-11.645,4.277s-5.742-0.515-5.096-7.712
	c0.646-7.194,0.969-10.793-5.902-15.036c-6.873-4.243-6.227-11.439-6.227-11.439s-3.599-0.323-6.873-4.243
	c-3.275-3.921-2.953-7.52-2.629-11.118C187.484,317.635,193.342,292.772,193.342,292.772 M193.832,287.112
	c-0.113-0.011-0.229-0.018-0.345-0.022c-2.622-0.085-4.905,1.868-5.506,4.42c-0.423,1.798-3.947,17.816,2.581,26.867
	c1.496,2.074,3.398,3.651,5.629,4.681c0.125,3.184,0.986,6.808,4.085,10.519c1.995,2.387,4.108,3.857,5.931,4.763
	c0.817,3.957,3.159,8.776,8.502,12.076c3.977,2.455,3.926,3.014,3.312,9.856c-0.835,9.306,5.575,13.284,10.089,13.69
	c2.742,0.246,15.246-1.572,15.861-4.255c0.037-0.165,3.869-16.691,10.66-31.521c0.371-0.811,0.541-1.697,0.492-2.588
	c-0.033-0.652-0.438-6.563-3.785-13.311c-3.191-6.431-19.724-14.809-32.716-18.191c-16.304-4.244-19.61-11.823-19.937-12.683
	C198.238,288.992,196.266,287.331,193.832,287.112"/>
<path fill="#1A1A19" d="M197.955,318.099c0,0,0.17,0.043,0.465,0.118c0.309,0.087,0.65,0.122,1.123,0.214
	c0.233,0.042,0.486,0.087,0.754,0.135c0.268,0.055,0.584,0.053,0.895,0.081c0.636,0.047,1.314,0.095,1.992,0.143
	c0.342,0.023,0.687,0.056,1.023,0.034c0.338-0.009,0.672-0.018,0.993-0.026c0.651-0.017,1.257-0.033,1.777-0.047
	c1.051-0.03,1.751-0.05,1.751-0.05s-0.659,0.23-1.648,0.575c-0.5,0.175-1.082,0.377-1.707,0.595
	c-0.631,0.207-1.294,0.484-1.994,0.625c-0.699,0.169-1.397,0.338-2.053,0.497c-0.335,0.071-0.643,0.171-0.968,0.212
	c-0.326,0.043-0.636,0.085-0.92,0.123c-0.563,0.067-1.089,0.147-1.382,0.156c-0.307,0.02-0.481,0.029-0.481,0.029L197.955,318.099z"
	/>
<path fill="#1A1A19" d="M206.414,333.639c0,0,0.168,0.043,0.465,0.117c0.308,0.088,0.65,0.122,1.123,0.215
	c0.232,0.042,0.485,0.087,0.752,0.135c0.269,0.054,0.584,0.052,0.896,0.081c0.636,0.046,1.313,0.094,1.993,0.142
	c0.341,0.024,0.686,0.057,1.021,0.034c0.34-0.008,0.672-0.017,0.995-0.026c0.65-0.017,1.257-0.032,1.776-0.047
	c1.051-0.029,1.751-0.05,1.751-0.05s-0.659,0.231-1.647,0.576c-0.5,0.174-1.084,0.377-1.707,0.594
	c-0.632,0.207-1.295,0.485-1.994,0.625c-0.699,0.169-1.398,0.338-2.054,0.497c-0.335,0.072-0.642,0.171-0.967,0.212
	c-0.327,0.043-0.636,0.085-0.921,0.123c-0.564,0.068-1.088,0.148-1.381,0.157c-0.307,0.019-0.481,0.029-0.481,0.029L206.414,333.639
	z"/>
<path fill="#F26C7C" d="M367.68,277.982h-63.213h-63.214c-4.054,0-7.342,3.287-7.342,7.342v107.657c0,3.568,2.528,7.946,5.616,9.729
	l59.322,34.25c1.545,0.891,3.58,1.33,5.617,1.33c0.055,0,0.11,0.003,0.165,0.003c1.981-0.024,3.949-0.466,5.452-1.333l59.32-34.25
	c3.09-1.783,5.617-6.161,5.617-9.729V285.324C375.021,281.27,371.734,277.982,367.68,277.982"/>
<g>
	<defs>
		<path id="SVGID_1_" d="M239.676,275.982c-4.156,0-7.525,3.368-7.525,7.525v110.343c0,3.657,2.591,8.146,5.758,9.973l60.8,35.104
			c1.628,0.939,3.784,1.394,5.929,1.366c2.029-0.025,4.047-0.476,5.588-1.366l60.801-35.104c3.166-1.827,5.759-6.315,5.759-9.973
			V283.508c0-4.157-3.371-7.525-7.527-7.525H239.676z"/>
	</defs>
	<clipPath id="SVGID_2_">
		<use xlink:href="#SVGID_1_"  overflow="visible"/>
	</clipPath>
	<g opacity="0.5" clip-path="url(#SVGID_2_)">
		<g>
			<defs>
				<rect id="SVGID_3_" x="272.359" y="259.811" width="64.221" height="187.635"/>
			</defs>
			<clipPath id="SVGID_4_">
				<use xlink:href="#SVGID_3_"  overflow="visible"/>
			</clipPath>
			<rect x="272.358" y="259.811" clip-path="url(#SVGID_4_)" fill="#DF2E54" width="64.217" height="187.635"/>
		</g>
	</g>
</g>
<g opacity="0.5">
	<g>
		<defs>
			<rect id="SVGID_5_" x="232.15" y="275.983" width="144.629" height="164.311"/>
		</defs>
		<clipPath id="SVGID_6_">
			<use xlink:href="#SVGID_5_"  overflow="visible"/>
		</clipPath>
		<path clip-path="url(#SVGID_6_)" fill="#FFFFFF" d="M362.986,289.779v102.754l-58.52,33.786l-58.52-33.786V289.779H362.986
			 M369.258,275.982H239.676c-4.156,0-7.525,3.369-7.525,7.525v110.344c0,3.656,2.591,8.143,5.757,9.972l60.802,35.104
			c1.583,0.914,3.67,1.368,5.756,1.368c0.057,0,0.114,0,0.172-0.001c2.029-0.024,4.047-0.478,5.588-1.367l60.801-35.104
			c3.166-1.829,5.757-6.315,5.757-9.972V283.508C376.782,279.352,373.413,275.982,369.258,275.982"/>
	</g>
</g>
<path fill="#1A1A19" d="M369.258,283.188c0.176,0,0.32,0.145,0.32,0.32v110.344c0,1.093-1.209,3.185-2.155,3.732l-60.802,35.104
	c-0.23,0.133-0.96,0.389-2.073,0.401l-0.083,0.001c-1.068,0-1.873-0.241-2.154-0.402l-60.801-35.104
	c-0.945-0.547-2.154-2.64-2.154-3.732V283.508c0-0.176,0.144-0.32,0.32-0.32H369.258 M369.258,275.982H239.676
	c-4.156,0-7.525,3.369-7.525,7.525v110.344c0,3.656,2.591,8.143,5.757,9.972l60.802,35.104c1.583,0.914,3.67,1.368,5.756,1.368
	c0.057,0,0.114,0,0.172-0.001c2.029-0.024,4.047-0.478,5.588-1.367l60.801-35.104c3.166-1.829,5.757-6.315,5.757-9.972V283.508
	C376.782,279.352,373.413,275.982,369.258,275.982"/>
<rect x="235.604" y="280.999" fill="#191818" width="137.729" height="33.868"/>
<path fill="#FFFFFF" d="M276.076,303.517v-17.343h5.59c4.784,0,7.54,3.588,7.54,8.685s-2.729,8.658-7.54,8.658H276.076z
	 M285.645,294.858c0-3.433-1.354-5.616-3.979-5.616h-2.107v11.206h2.107C284.24,300.448,285.645,298.16,285.645,294.858"/>
<path fill="#FFFFFF" d="M300.438,303.518l-0.808-3.069h-5.33l-0.806,3.069h-3.771l5.149-17.344h4.212l5.148,17.344H300.438z
	 M296.979,289.84l-1.976,7.54h3.952L296.979,289.84z"/>
<rect x="305.977" y="286.174" fill="#FFFFFF" width="3.483" height="17.343"/>
<polygon fill="#FFFFFF" points="312.787,303.517 312.787,286.174 316.271,286.174 316.271,300.449 322.096,300.449 322.096,303.517 
	"/>
<polygon fill="#FFFFFF" points="325.657,303.517 325.657,296.367 320.302,286.174 324.148,286.174 327.398,293.142 330.648,286.174 
	334.498,286.174 329.141,296.367 329.141,303.517 "/>
<path fill="#FFFFFF" d="M318.688,398.444c-18.671,7.772-40.107-1.062-47.882-19.732c-7.772-18.671,1.062-40.108,19.731-47.882
	c18.672-7.773,40.108,1.061,47.883,19.731C346.193,369.232,337.359,390.671,318.688,398.444"/>
<path fill="#191818" d="M304.057,338.086c0,0-0.002,0.022-0.005,0.059h0.011C304.059,338.108,304.057,338.086,304.057,338.086"/>
<path fill="#191818" d="M319.455,329.888l2.839-3.358c0.981-1.161,2.718-1.306,3.878-0.325l13.2,11.159
	c1.161,0.981,1.306,2.719,0.325,3.879l-2.84,3.358L319.455,329.888z"/>
<path fill="#F26C7C" d="M340.768,365.488l-0.693-2.687l0.033-1.954l-0.578-0.167l-3.533-13.725
	c-6.28-11.016-18.926-18.269-31.191-17.98l-0.07,3.163l0.115,31.992l-30.975-16.185l-5.36,11.448v9.085l3.271,12.538l5.633,9.267
	l7.087,6.178l10.176,4.543l9.449,1.272l9.448-1.454l10.902-5.451l8.358-6.359l5.815-8.54l1.271-8.723l0.105-6.27L340.768,365.488z"
	/>
<path fill="#F26C7C" d="M340.768,365.488l-0.693-2.687l0.033-1.954l-0.578-0.167l-3.533-13.725
	c-6.28-11.016-18.926-18.269-31.191-17.98l-0.07,3.163l0.115,31.992l-30.975-16.185l-5.36,11.448v9.085l3.271,12.538l5.633,9.267
	l7.087,6.178l10.176,4.543l9.449,1.272l9.448-1.454l10.902-5.451l8.358-6.359l5.815-8.54l1.271-8.723l0.105-6.27L340.768,365.488z"
	/>
<path fill="#FFFFFF" d="M304.306,328.54v6.723c12.118,0,22.958,7.229,27.614,18.416c3.069,7.372,3.084,15.498,0.041,22.881
	s-8.777,13.14-16.15,16.209c-3.674,1.53-7.536,2.306-11.475,2.306c-12.119,0-22.959-7.228-27.615-18.414
	c-3.069-7.372-3.084-15.5-0.041-22.883s8.777-13.139,16.15-16.209c3.676-1.529,7.536-2.306,11.476-2.306V328.54 M304.306,328.54
	c-4.69,0-9.46,0.906-14.06,2.821c-18.672,7.773-27.506,29.211-19.732,47.883c5.857,14.069,19.476,22.554,33.822,22.554
	c4.69,0,9.459-0.907,14.06-2.822c18.671-7.772,27.505-29.211,19.731-47.882C332.27,337.023,318.651,328.54,304.306,328.54"/>
<path fill="#191818" d="M304.336,404.071c-15.763,0-29.863-9.402-35.922-23.953c-3.992-9.592-4.012-20.162-0.053-29.769
	c3.958-9.604,11.42-17.095,21.01-21.087c4.777-1.989,9.801-2.997,14.935-2.997c15.763,0,29.862,9.402,35.921,23.954
	c8.242,19.799-1.159,42.613-20.957,50.854C314.494,403.063,309.469,404.071,304.336,404.071 M304.306,330.813
	c-4.529,0-8.966,0.892-13.187,2.647c-8.469,3.526-15.058,10.14-18.554,18.623c-3.495,8.481-3.479,17.816,0.048,26.287
	c5.35,12.851,17.801,21.154,31.723,21.154c4.529,0,8.965-0.891,13.186-2.648c17.482-7.278,25.785-27.424,18.507-44.908
	C330.678,339.117,318.227,330.813,304.306,330.813"/>
<path fill="#191818" d="M286.379,333.892c-0.658,0.38-0.884,1.223-0.504,1.88l3.126,5.414c0.38,0.658,1.224,0.888,1.884,0.512
	c0.662-0.377,0.889-1.215,0.508-1.872l-3.133-5.43C287.879,333.738,287.037,333.512,286.379,333.892"/>
<path fill="#191818" d="M273.183,347.089c-0.38,0.657-0.155,1.5,0.503,1.88l5.341,3.083c0.658,0.38,1.496,0.151,1.871-0.508v-0.001
	c0.376-0.66,0.146-1.505-0.513-1.885l-5.322-3.073C274.404,346.204,273.563,346.431,273.183,347.089"/>
<path fill="#191818" d="M273.183,383.143c0.38,0.658,1.222,0.884,1.88,0.504l5.178-2.99c0.657-0.38,0.881-1.22,0.5-1.878
	c-0.382-0.657-1.225-0.881-1.883-0.501l-5.172,2.985C273.027,381.643,272.803,382.484,273.183,383.143"/>
<path fill="#191818" d="M286.379,396.339c0.658,0.38,1.5,0.154,1.881-0.504l2.973-5.149c0.38-0.658,0.152-1.497-0.506-1.875
	c-0.66-0.378-1.502-0.15-1.883,0.508l-2.969,5.141C285.495,395.117,285.721,395.959,286.379,396.339"/>
<path fill="#191818" d="M322.434,396.339c0.657-0.38,0.883-1.222,0.504-1.88l-3.013-5.216c-0.38-0.658-1.224-0.887-1.884-0.511
	c-0.661,0.375-0.889,1.214-0.508,1.872l3.021,5.23C320.934,396.493,321.775,396.719,322.434,396.339"/>
<path fill="#191818" d="M335.63,383.143c0.38-0.658,0.153-1.5-0.505-1.88l-5.32-3.072c-0.658-0.38-1.496-0.153-1.872,0.508
	c-0.375,0.661-0.146,1.505,0.513,1.886l5.305,3.063C334.408,384.026,335.25,383.801,335.63,383.143"/>
<path fill="#191818" d="M335.63,347.089c-0.38-0.658-1.222-0.885-1.88-0.504l-5.475,3.16c-0.658,0.381-0.883,1.222-0.501,1.878
	c0.382,0.657,1.226,0.883,1.884,0.503l5.467-3.157C335.783,348.589,336.01,347.746,335.63,347.089"/>
<path fill="#191818" d="M322.434,333.892c-0.658-0.38-1.5-0.153-1.881,0.504l-3.178,5.504c-0.381,0.659-0.153,1.498,0.506,1.876
	c0.66,0.377,1.503,0.15,1.883-0.508l3.174-5.496C323.316,335.114,323.091,334.271,322.434,333.892"/>
<path fill="#191818" d="M304.06,338.115c0.001,0.016,0.589,0.029,1.312,0.029s1.309-0.616,1.309-1.377v-6.329
	c0-0.761-0.616-1.378-1.377-1.378h-1.795c-0.76,0-1.375,0.617-1.375,1.378v6.329c0,0.761,0.429,1.377,0.959,1.377
	c0.531,0,0.961-0.014,0.961-0.029C304.055,338.099,304.057,338.099,304.06,338.115"/>
<path fill="#191818" d="M340.461,366.014v-1.796c0-0.76-0.617-1.377-1.377-1.377h-6.238c-0.76,0-1.377,0.617-1.377,1.377v1.796
	c0,0.76,0.617,1.376,1.377,1.376h6.238C339.844,367.39,340.461,366.773,340.461,366.014"/>
<path fill="#191818" d="M268.352,364.218v1.795c0,0.76,0.616,1.377,1.377,1.377h6.055c0.76,0,1.375-0.617,1.375-1.377v-1.795
	c0-0.76-0.615-1.376-1.375-1.376h-6.055C268.968,362.842,268.352,363.458,268.352,364.218"/>
<path fill="#191818" d="M303.509,401.169h1.795c0.76,0,1.376-0.615,1.376-1.376v-5.963c0-0.76-0.616-1.376-1.376-1.376h-1.795
	c-0.761,0-1.376,0.616-1.376,1.376v5.963C302.133,400.554,302.748,401.169,303.509,401.169"/>
<path fill="#191818" d="M323.3,364.481c0,10.286-8.339,18.625-18.625,18.625c-10.287,0-18.625-8.339-18.625-18.625
	c0-10.285,8.338-18.625,18.625-18.625C314.961,345.856,323.3,354.196,323.3,364.481"/>
<polygon fill="#F26C7C" points="296.896,373.578 296.896,360.146 294.148,363.002 292.055,360.8 297.383,355.442 300.565,355.442 
	300.565,373.578 "/>
<path fill="#F26C7C" d="M302.357,364.523c0-4.677,1.931-9.354,6.416-9.354c4.515,0,6.418,4.677,6.418,9.354
	c0,4.649-1.877,9.382-6.418,9.382C304.288,373.905,302.357,369.173,302.357,364.523 M311.494,364.523c0-3.507-0.6-6.118-2.721-6.118
	c-2.093,0-2.69,2.611-2.69,6.118c0,3.48,0.598,6.146,2.69,6.146C310.895,370.67,311.494,368.004,311.494,364.523"/>
<polygon fill="#F26C7C" points="254.301,287.607 246.301,294.607 254.301,301.607 262.301,294.607 "/>
<polygon fill="#F26C7C" points="354.633,287.607 346.633,294.607 354.633,301.607 362.633,294.607 "/>
<path fill="#F26C7C" d="M387.57,282.834c0,12.149-9.851,22-22,22c-12.15,0-22-9.851-22-22c0-12.15,9.85-22,22-22
	C377.72,260.834,387.57,270.684,387.57,282.834"/>
<g opacity="0.5">
	<g>
		<defs>
			<rect id="SVGID_7_" x="343.57" y="260.834" width="44" height="44"/>
		</defs>
		<clipPath id="SVGID_8_">
			<use xlink:href="#SVGID_7_"  overflow="visible"/>
		</clipPath>
		<path clip-path="url(#SVGID_8_)" fill="#FFFFFF" d="M365.57,264.834c9.924,0,18,8.074,18,18c0,9.925-8.076,18-18,18
			c-9.926,0-18-8.075-18-18C347.57,272.908,355.645,264.834,365.57,264.834 M365.57,260.834c-12.15,0-22,9.85-22,22
			c0,12.149,9.85,22,22,22c12.149,0,22-9.851,22-22C387.57,270.684,377.72,260.834,365.57,260.834"/>
	</g>
</g>
<path fill="#191818" d="M365.569,306.833c-13.233,0-24-10.767-24-24c0-13.232,10.767-24,24-24s24,10.768,24,24
	C389.569,296.066,378.803,306.833,365.569,306.833 M365.569,262.833c-11.028,0-20,8.973-20,20c0,11.028,8.972,20,20,20
	s20-8.972,20-20C385.569,271.806,376.598,262.833,365.569,262.833"/>
<polygon fill="#1A1A19" points="359.972,289.833 357.672,286.186 355.297,289.833 351.099,289.833 355.224,283.636 351.349,277.762 
	355.573,277.762 357.647,281.035 359.696,277.762 363.92,277.762 360.071,283.636 364.196,289.833 "/>
<path fill="#1A1A19" d="M365.148,289.833v-3.349c7.224-5.223,8.572-6.374,8.572-8.047c0-1.125-1.074-1.726-2.299-1.726
	c-1.85,0-3.25,0.699-4.449,1.824l-2.375-2.849c1.775-1.95,4.424-2.775,6.748-2.775c3.924,0,6.748,2.2,6.748,5.525
	c0,2.574-1.824,4.748-5.972,7.646h6.097v3.749H365.148z"/>
</svg>
