<?xml version="1.0" encoding="utf-8"?>
<!-- Generator: Adobe Illustrator 16.0.0, SVG Export Plug-In . SVG Version: 6.00 Build 0)  -->
<!DOCTYPE svg PUBLIC "-//W3C//DTD SVG 1.1//EN" "http://www.w3.org/Graphics/SVG/1.1/DTD/svg11.dtd">
<svg version="1.1" id="Layer_1" xmlns="http://www.w3.org/2000/svg" xmlns:xlink="http://www.w3.org/1999/xlink" x="0px" y="0px"
	 width="612px" height="792px" viewBox="0 0 612 792" enable-background="new 0 0 612 792" xml:space="preserve">
<polygon fill="#A6A8AC" points="217.379,496.229 213.698,483.053 210.02,496.229 208.549,496.229 204.155,480.892 205.627,480.892 
	209.329,494.39 213.102,480.892 214.297,480.892 218.045,494.39 221.747,480.892 223.219,480.892 218.85,496.229 "/>
<path fill="#A6A8AC" d="M238.308,496.23l-1.519-3.772h-8.117l-1.518,3.772h-1.518l6.279-15.338h1.631l6.278,15.338H238.308z
	 M232.742,482.294l-3.633,8.97h7.243L232.742,482.294z"/>
<polygon fill="#A6A8AC" points="244.52,496.229 244.52,480.892 245.853,480.892 245.853,495.033 253.281,495.033 253.281,496.229 
	"/>
<polygon fill="#A6A8AC" points="268.07,496.229 261.746,489.009 260.045,490.872 260.045,496.229 258.733,496.229 258.733,480.892 
	260.045,480.892 260.045,489.286 267.449,480.892 269.129,480.892 262.597,488.205 269.748,496.229 "/>
<polygon fill="#A6A8AC" points="285.643,496.229 285.643,482.686 283.182,485.307 282.377,484.457 285.758,480.892 286.953,480.892 
	286.953,496.229 "/>
<path fill="#A6A8AC" d="M293.324,493.999l0.874-0.874c0.989,1.402,2.322,2.186,4.302,2.186c2.229,0,3.84-1.61,3.84-3.703
	c0-2.322-1.61-3.748-3.818-3.748c-1.402,0-2.598,0.46-3.725,1.494l-0.989-0.414v-8.047h8.854v1.194h-7.543v6.003
	c0.758-0.736,2.068-1.427,3.655-1.427c2.575,0,4.899,1.702,4.899,4.898c0,3.058-2.346,4.944-5.174,4.944
	C295.946,496.506,294.383,495.518,293.324,493.999"/>
<polygon fill="#A6A8AC" points="319.014,496.229 312.691,489.009 310.99,490.872 310.99,496.229 309.678,496.229 309.678,480.892 
	310.99,480.892 310.99,489.286 318.395,480.892 320.072,480.892 313.541,488.205 320.693,496.229 "/>
<path fill="#A6A8AC" d="M333.781,494.067l0.852-0.987c0.988,1.127,2.598,2.229,4.806,2.229c3.127,0,4.024-1.748,4.024-3.058
	c0-4.508-9.198-2.162-9.198-7.521c0-2.506,2.253-4.093,5.036-4.093c2.277,0,4.023,0.805,5.197,2.161l-0.875,0.966
	c-1.104-1.333-2.666-1.931-4.392-1.931c-2.047,0-3.588,1.172-3.588,2.829c0,3.931,9.198,1.77,9.198,7.496
	c0,1.977-1.311,4.346-5.449,4.346C336.862,496.506,334.955,495.471,333.781,494.067"/>
<polygon fill="#A6A8AC" points="354.596,496.229 354.596,482.087 349.583,482.087 349.583,480.892 360.943,480.892 360.943,482.087 
	355.93,482.087 355.93,496.229 "/>
<polygon fill="#A6A8AC" points="366.42,496.229 366.42,480.892 376.146,480.892 376.146,482.087 367.73,482.087 367.73,487.768 
	375.985,487.768 375.985,488.963 367.73,488.963 367.73,495.033 376.146,495.033 376.146,496.229 "/>
<path fill="#A6A8AC" d="M382.15,496.23v-15.338h5.75c2.942,0,4.621,2.068,4.621,4.483c0,2.414-1.701,4.483-4.621,4.483h-4.438v6.371
	H382.15z M391.143,485.376c0-1.932-1.335-3.289-3.381-3.289h-4.3v6.577h4.3C389.808,488.664,391.143,487.284,391.143,485.376"/>
<path fill="#A6A8AC" d="M397.193,494.067l0.85-0.987c0.99,1.127,2.599,2.229,4.807,2.229c3.127,0,4.023-1.748,4.023-3.058
	c0-4.508-9.197-2.162-9.197-7.521c0-2.506,2.253-4.093,5.035-4.093c2.277,0,4.025,0.805,5.197,2.161l-0.873,0.966
	c-1.104-1.333-2.668-1.931-4.393-1.931c-2.047,0-3.588,1.172-3.588,2.829c0,3.931,9.199,1.77,9.199,7.496
	c0,1.977-1.311,4.346-5.45,4.346C400.273,496.506,398.365,495.471,397.193,494.067"/>
<polygon fill="#A6A8AC" points="270.623,523.829 270.623,509.688 265.61,509.688 265.61,508.491 276.971,508.491 276.971,509.688 
	271.957,509.688 271.957,523.829 "/>
<path fill="#A6A8AC" d="M281.203,516.172c0-4.483,2.945-7.934,7.451-7.934c4.484,0,7.451,3.45,7.451,7.934
	c0,4.484-2.967,7.935-7.451,7.935C284.148,524.106,281.203,520.656,281.203,516.172 M294.725,516.172
	c0-3.887-2.392-6.736-6.07-6.736c-3.701,0-6.07,2.85-6.07,6.736c0,3.863,2.369,6.737,6.07,6.737
	C292.333,522.909,294.725,520.035,294.725,516.172"/>
<path fill="#A6A8AC" d="M302.11,523.829v-15.338h4.899c4.76,0,7.748,3.473,7.748,7.681c0,4.254-2.988,7.657-7.748,7.657H302.11z
	 M313.379,516.172c0-3.587-2.3-6.483-6.369-6.483h-3.588v12.945h3.588C311.057,522.634,313.379,519.759,313.379,516.172"/>
<path fill="#A6A8AC" d="M330.998,523.83l-1.518-3.772h-8.117l-1.519,3.772h-1.517l6.277-15.338h1.633l6.277,15.338H330.998z
	 M325.434,509.895l-3.634,8.969h7.243L325.434,509.895z"/>
<polygon fill="#A6A8AC" points="340.637,523.829 340.637,517.275 334.542,508.491 336.129,508.491 341.303,516.034 346.477,508.491 
	348.064,508.491 341.971,517.275 341.971,523.829 "/>
<path fill="#FFFFFF" d="M377.202,369.712c2.36-0.212,5.647-2.306,4.915-10.46c-0.629-6.989-0.817-9.098,4.605-12.447
	c5.663-3.497,7.11-8.654,7.451-11.648c1.719-0.643,4.094-1.952,6.316-4.611c3.156-3.779,3.566-7.448,3.438-10.65
	c2.506-0.756,4.605-2.246,6.156-4.396c5.913-8.198,2.29-23.957,2.134-24.623c-0.294-1.243-1.401-2.122-2.68-2.123
	c-0.083,0.001-0.166,0.004-0.249,0.012c-1.17,0.105-2.158,0.948-2.432,2.11c-0.017,0.055-2.812,9.649-21.906,14.621
	c-22.946,5.974-34.434,28.754-34.446,28.982c-0.022,0.445,0.062,0.891,0.246,1.297c6.918,15.102,10.804,31.883,10.842,32.051
	C361.902,369.167,375.83,369.835,377.202,369.712"/>
<path fill="#1A1A19" d="M411.98,291.288c0,0,5.858,24.861-8.531,26.153c0.322,3.598,0.646,7.197-2.629,11.118
	c-3.275,3.92-6.873,4.243-6.873,4.243s0.646,7.195-6.228,11.439c-6.872,4.243-6.548,7.841-5.901,15.036
	c0.646,7.197-5.098,7.712-5.098,7.712s-7.146,2.145-11.644-4.278c-4.308-6.147-5.894-20.696-9.378-28.304
	c0,0,11.125-20.931,32.39-26.468C409.352,302.405,411.98,291.288,411.98,291.288 M411.491,285.626
	c-2.435,0.22-4.406,1.88-4.853,4.303c-0.328,0.859-3.634,8.438-19.938,12.683c-12.992,3.383-29.524,11.76-32.717,18.191
	c-3.346,6.748-3.75,12.657-3.784,13.311c-0.048,0.89,0.12,1.777,0.491,2.588c6.791,14.829,10.623,31.355,10.662,31.521
	c0.614,2.683,13.117,4.501,15.86,4.255c4.513-0.406,10.925-4.385,10.089-13.69c-0.613-6.843-0.664-7.401,3.313-9.856
	c5.342-3.301,7.684-8.119,8.501-12.076c1.823-0.905,3.936-2.376,5.931-4.762c3.1-3.713,3.96-7.337,4.085-10.52
	c2.229-1.03,4.132-2.607,5.629-4.681c6.528-9.052,3.005-25.069,2.581-26.867c-0.601-2.552-2.885-4.505-5.506-4.42
	C411.72,285.609,411.604,285.616,411.491,285.626"/>
<path fill="#1A1A19" d="M407.748,320.027c0,0-0.176-0.011-0.482-0.028c-0.293-0.01-0.816-0.09-1.381-0.158
	c-0.285-0.038-0.594-0.079-0.92-0.123c-0.326-0.041-0.633-0.14-0.967-0.212c-0.656-0.159-1.355-0.328-2.055-0.497
	c-0.699-0.14-1.363-0.418-1.993-0.624c-0.625-0.218-1.208-0.42-1.707-0.594c-0.989-0.346-1.649-0.577-1.649-0.577
	s0.701,0.021,1.752,0.05c0.521,0.015,1.127,0.03,1.777,0.048c0.321,0.009,0.654,0.018,0.993,0.026
	c0.337,0.022,0.681-0.011,1.022-0.035c0.679-0.048,1.357-0.096,1.992-0.141c0.312-0.03,0.627-0.028,0.896-0.081
	c0.269-0.049,0.521-0.094,0.754-0.136c0.472-0.093,0.813-0.127,1.123-0.213c0.296-0.076,0.465-0.119,0.465-0.119L407.748,320.027z"
	/>
<path fill="#1A1A19" d="M399.289,335.566c0,0-0.175-0.01-0.48-0.028c-0.293-0.01-0.818-0.09-1.383-0.157
	c-0.285-0.038-0.594-0.079-0.92-0.123c-0.326-0.041-0.633-0.141-0.967-0.213c-0.656-0.158-1.355-0.327-2.054-0.496
	c-0.699-0.141-1.363-0.418-1.993-0.624c-0.625-0.218-1.208-0.42-1.708-0.595c-0.989-0.346-1.647-0.576-1.647-0.576
	s0.699,0.02,1.75,0.05c0.521,0.014,1.127,0.029,1.777,0.048c0.322,0.008,0.655,0.017,0.994,0.025
	c0.337,0.022,0.682-0.011,1.023-0.034c0.678-0.048,1.355-0.097,1.992-0.142c0.311-0.029,0.627-0.027,0.895-0.081
	c0.268-0.049,0.52-0.094,0.754-0.136c0.473-0.092,0.814-0.127,1.122-0.213c0.296-0.076,0.465-0.119,0.465-0.119L399.289,335.566z"/>
<path fill="#FFFFFF" d="M227.66,369.712c-2.36-0.212-5.647-2.306-4.915-10.46c0.627-6.989,0.817-9.098-4.606-12.447
	c-5.662-3.497-7.109-8.654-7.451-11.648c-1.719-0.643-4.093-1.952-6.315-4.611c-3.156-3.779-3.567-7.448-3.438-10.65
	c-2.507-0.756-4.604-2.246-6.156-4.396c-5.912-8.198-2.291-23.957-2.133-24.623c0.293-1.243,1.401-2.122,2.68-2.123
	c0.082,0.001,0.166,0.004,0.248,0.012c1.17,0.105,2.158,0.948,2.432,2.11c0.018,0.055,2.813,9.649,21.907,14.621
	c22.946,5.974,34.433,28.754,34.446,28.982c0.022,0.445-0.063,0.891-0.246,1.297c-6.918,15.102-10.805,31.883-10.842,32.051
	C242.96,369.167,229.031,369.835,227.66,369.712"/>
<path fill="#1A1A19" d="M192.881,291.288c0,0,2.629,11.117,23.893,16.652c21.265,5.537,32.39,26.468,32.39,26.468
	c-3.484,7.607-5.071,22.156-9.378,28.304c-4.498,6.423-11.645,4.278-11.645,4.278s-5.742-0.515-5.097-7.712
	c0.646-7.195,0.969-10.793-5.901-15.036c-6.873-4.244-6.228-11.439-6.228-11.439s-3.599-0.323-6.873-4.243
	c-3.274-3.921-2.952-7.521-2.629-11.118C187.023,316.149,192.881,291.288,192.881,291.288 M193.371,285.626
	c-0.113-0.01-0.229-0.017-0.346-0.021c-2.621-0.085-4.904,1.868-5.506,4.42c-0.423,1.798-3.947,17.815,2.582,26.867
	c1.496,2.073,3.398,3.65,5.629,4.681c0.125,3.183,0.985,6.807,4.084,10.52c1.996,2.386,4.108,3.856,5.932,4.762
	c0.816,3.957,3.158,8.775,8.501,12.076c3.977,2.455,3.926,3.014,3.312,9.856c-0.835,9.306,5.576,13.284,10.09,13.69
	c2.742,0.246,15.246-1.572,15.86-4.255c0.038-0.165,3.87-16.691,10.661-31.521c0.371-0.811,0.54-1.698,0.492-2.588
	c-0.034-0.653-0.438-6.563-3.785-13.311c-3.191-6.432-19.725-14.809-32.717-18.191c-16.303-4.244-19.609-11.823-19.937-12.683
	C197.777,287.506,195.805,285.846,193.371,285.626"/>
<path fill="#1A1A19" d="M197.494,316.613c0,0,0.169,0.043,0.465,0.118c0.309,0.087,0.65,0.122,1.122,0.214
	c0.233,0.042,0.487,0.087,0.754,0.136c0.269,0.053,0.584,0.051,0.896,0.08c0.635,0.046,1.313,0.094,1.991,0.142
	c0.343,0.024,0.687,0.058,1.023,0.034c0.339-0.008,0.672-0.017,0.993-0.026c0.652-0.017,1.258-0.032,1.777-0.047
	c1.051-0.029,1.752-0.05,1.752-0.05l-1.648,0.576c-0.5,0.175-1.083,0.377-1.708,0.595c-0.63,0.206-1.294,0.484-1.993,0.624
	c-0.699,0.169-1.398,0.338-2.053,0.497c-0.336,0.072-0.643,0.171-0.969,0.212c-0.326,0.043-0.635,0.085-0.92,0.123
	c-0.563,0.068-1.088,0.148-1.381,0.157c-0.307,0.019-0.482,0.029-0.482,0.029L197.494,316.613z"/>
<path fill="#1A1A19" d="M205.952,332.152c0,0,0.169,0.043,0.465,0.118c0.308,0.087,0.651,0.122,1.123,0.214
	c0.233,0.042,0.485,0.087,0.753,0.137c0.268,0.053,0.584,0.051,0.895,0.079c0.637,0.047,1.314,0.095,1.993,0.143
	c0.341,0.023,0.687,0.057,1.022,0.034c0.339-0.009,0.672-0.018,0.994-0.026c0.65-0.017,1.257-0.033,1.777-0.047
	c1.051-0.03,1.75-0.05,1.75-0.05s-0.658,0.23-1.647,0.577c-0.5,0.174-1.083,0.376-1.707,0.594c-0.632,0.206-1.294,0.483-1.993,0.624
	c-0.699,0.169-1.398,0.338-2.055,0.497c-0.334,0.071-0.642,0.171-0.967,0.212c-0.326,0.044-0.636,0.085-0.92,0.123
	c-0.564,0.067-1.089,0.147-1.382,0.156c-0.307,0.02-0.481,0.029-0.481,0.029L205.952,332.152z"/>
<path fill="#FECF0A" d="M365.43,276.255h-62.999h-62.998c-4.042,0-7.317,3.275-7.317,7.316v107.292c0,3.556,2.52,7.918,5.598,9.696
	l59.119,34.133c1.541,0.89,3.569,1.326,5.599,1.326c0.055,0,0.11,0.003,0.165,0.003c1.974-0.023,3.936-0.464,5.434-1.329
	l59.119-34.133c3.079-1.778,5.598-6.141,5.598-9.696V283.571C372.746,279.53,369.472,276.255,365.43,276.255"/>
<g opacity="0.4">
	<g>
		<defs>
			<rect id="SVGID_1_" x="230.109" y="273.983" width="144.641" height="164.311"/>
		</defs>
		<clipPath id="SVGID_2_">
			<use xlink:href="#SVGID_1_"  overflow="visible"/>
		</clipPath>
		<path clip-path="url(#SVGID_2_)" fill="#FFFFFF" d="M360.95,287.779v102.755l-58.52,33.785l-58.519-33.785V287.779H360.95
			 M367.222,273.982H237.64c-4.155,0-7.525,3.369-7.525,7.525v110.343c0,3.657,2.591,8.145,5.757,9.972l60.803,35.104
			c1.582,0.914,3.67,1.368,5.756,1.368c0.057,0,0.113,0,0.17-0.001c2.031-0.024,4.048-0.479,5.589-1.367l60.801-35.104
			c3.167-1.827,5.757-6.314,5.757-9.972V281.508C374.746,277.352,371.377,273.982,367.222,273.982"/>
	</g>
</g>
<path fill="#1A1A19" d="M367.222,281.188c0.177,0,0.321,0.145,0.321,0.32v110.343c0,1.093-1.209,3.187-2.156,3.733l-60.801,35.104
	c-0.231,0.133-0.961,0.389-2.074,0.401l-0.082,0.001c-1.069,0-1.874-0.241-2.154-0.402l-60.801-35.104
	c-0.947-0.547-2.155-2.641-2.155-3.733V281.508c0-0.176,0.144-0.32,0.32-0.32H367.222 M367.222,273.982H237.64
	c-4.155,0-7.525,3.369-7.525,7.525v110.343c0,3.657,2.591,8.145,5.757,9.972l60.803,35.104c1.582,0.914,3.67,1.368,5.756,1.368
	c0.057,0,0.113,0,0.17-0.001c2.031-0.024,4.048-0.479,5.589-1.367l60.801-35.104c3.167-1.827,5.757-6.314,5.757-9.972V281.508
	C374.746,277.352,371.377,273.982,367.222,273.982"/>
<g>
	<defs>
		<path id="SVGID_3_" d="M237.641,273.731c-4.156,0-7.525,3.37-7.525,7.525V391.6c0,3.657,2.59,8.146,5.757,9.973l60.802,35.104
			c1.625,0.939,3.784,1.393,5.926,1.366c2.029-0.023,4.049-0.476,5.588-1.366l60.801-35.104c3.168-1.827,5.759-6.315,5.759-9.973
			V281.257c0-4.155-3.369-7.525-7.526-7.525H237.641z"/>
	</defs>
	<clipPath id="SVGID_4_">
		<use xlink:href="#SVGID_3_"  overflow="visible"/>
	</clipPath>
	<g opacity="0.6" clip-path="url(#SVGID_4_)">
		<g>
			<defs>
				<rect id="SVGID_5_" x="270.311" y="261.783" width="64.219" height="187.634"/>
			</defs>
			<clipPath id="SVGID_6_">
				<use xlink:href="#SVGID_5_"  overflow="visible"/>
			</clipPath>
			<rect x="270.309" y="261.783" clip-path="url(#SVGID_6_)" fill="#FECF0A" width="64.217" height="187.634"/>
		</g>
	</g>
</g>
<rect x="233.566" y="278.999" fill="#191818" width="137.729" height="33.868"/>
<path fill="#FFFFFF" d="M274.04,301.517v-17.343h5.589c4.785,0,7.541,3.589,7.541,8.685c0,5.098-2.73,8.658-7.541,8.658H274.04z
	 M283.608,292.858c0-3.432-1.353-5.616-3.979-5.616h-2.105v11.206h2.105C282.204,298.448,283.608,296.162,283.608,292.858"/>
<path fill="#FFFFFF" d="M298.4,301.518l-0.805-3.069h-5.33l-0.806,3.069h-3.771l5.148-17.344h4.211l5.149,17.344H298.4z
	 M294.944,287.841l-1.978,7.54h3.953L294.944,287.841z"/>
<rect x="303.938" y="284.174" fill="#FFFFFF" width="3.484" height="17.343"/>
<polygon fill="#FFFFFF" points="310.751,301.517 310.751,284.174 314.234,284.174 314.234,298.449 320.06,298.449 320.06,301.517 
	"/>
<polygon fill="#FFFFFF" points="323.621,301.517 323.621,294.367 318.265,284.174 322.113,284.174 325.363,291.143 328.613,284.174 
	332.462,284.174 327.105,294.367 327.105,301.517 "/>
<path fill="#FFFFFF" d="M340.098,376.287c0,10.886-8.825,19.71-19.711,19.71h-35.912c-10.885,0-19.71-8.824-19.71-19.71v-30.556
	c0-10.886,8.825-19.71,19.71-19.71h35.912c10.886,0,19.711,8.824,19.711,19.71V376.287z"/>
<path fill="#231F20" d="M320.387,398.223h-35.912c-12.096,0-21.936-9.84-21.936-21.936V345.73c0-12.094,9.84-21.934,21.936-21.934
	h35.912c12.096,0,21.936,9.84,21.936,21.934v30.557C342.322,388.383,332.482,398.223,320.387,398.223 M284.475,328.245
	c-9.643,0-17.485,7.845-17.485,17.485v30.557c0,9.643,7.843,17.485,17.485,17.485h35.912c9.643,0,17.486-7.843,17.486-17.485V345.73
	c0-9.641-7.844-17.485-17.486-17.485H284.475z"/>
<path fill="#FECF0A" d="M330.98,370.2c0,8.429-6.832,15.26-15.261,15.26l-41.838-15.26v-20.892c0-8.428,6.832-15.26,15.26-15.26
	h26.578c8.429,0,15.261,6.832,15.261,15.26V370.2z"/>
<path fill="#FECF0A" d="M330.98,370.2c0,8.429-6.832,15.26-15.261,15.26l-41.838-15.26v-20.892c0-8.428,6.832-15.26,15.26-15.26
	h26.578c8.429,0,15.261,6.832,15.261,15.26V370.2z"/>
<g opacity="0.6">
	<g>
		<defs>
			<rect id="SVGID_7_" x="273.88" y="334.048" width="57.101" height="51.412"/>
		</defs>
		<clipPath id="SVGID_8_">
			<use xlink:href="#SVGID_7_"  overflow="visible"/>
		</clipPath>
		<path clip-path="url(#SVGID_8_)" fill="#FECF0A" d="M330.98,370.2c0,8.429-6.832,15.26-15.261,15.26l-41.838-15.26v-20.892
			c0-8.428,6.832-15.26,15.26-15.26h26.578c8.429,0,15.261,6.832,15.261,15.26V370.2z"/>
	</g>
</g>
<path fill="#191818" d="M284.078,368.665c-1.443,0-2.617-1.174-2.617-2.617v-21.193c0-1.442,1.174-2.617,2.617-2.617h37.067
	c1.444,0,2.618,1.175,2.618,2.617v21.193c0,1.443-1.174,2.617-2.618,2.617H284.078z"/>
<path fill="#FECF0A" d="M285.178,383.025c0,2.359-1.912,4.271-4.271,4.271c-2.358,0-4.271-1.912-4.271-4.271
	c0-2.358,1.912-4.271,4.271-4.271C283.266,378.755,285.178,380.667,285.178,383.025"/>
<path fill="#191818" d="M284.722,397.638v3.302c0,1.535,1.245,2.78,2.78,2.78h29.597c1.536,0,2.78-1.245,2.78-2.78v-3.302H284.722z"
	/>
<path fill="#FECF0A" d="M296.38,381.648h-5.511c-1.559,0-2.824,1.265-2.824,2.824c0,1.561,1.266,2.824,2.824,2.824h5.511
	c1.56,0,2.823-1.264,2.823-2.824C299.203,382.913,297.939,381.648,296.38,381.648"/>
<polygon fill="#FECF0A" points="289.388,364.36 289.388,351.916 286.844,354.561 284.903,352.52 289.84,347.557 292.789,347.557 
	292.789,364.36 "/>
<path fill="#FECF0A" d="M294.601,362.018l2.04-2.167c0.882,1.159,2.066,1.814,3.502,1.814c1.611,0,2.545-1.234,2.545-2.646
	c0-1.663-0.883-2.646-2.395-2.646c-1.133,0-1.99,0.403-2.771,1.386l-2.443-0.655v-9.548h10.077v2.974h-6.702v4.307
	c0.656-0.805,1.789-1.384,3.074-1.384c2.545,0,4.585,1.99,4.585,5.466c0,3.375-2.292,5.744-5.87,5.744
	C297.649,364.663,295.86,363.705,294.601,362.018"/>
<polygon fill="#FECF0A" points="316.213,364.36 312.332,357.785 311.149,359.649 311.149,364.36 307.773,364.36 307.773,347.557 
	311.149,347.557 311.149,355.19 315.886,347.557 319.815,347.557 314.449,355.468 320.193,364.36 "/>
<polygon fill="#FECF0A" points="252.265,285.607 244.265,292.607 252.265,299.607 260.265,292.607 "/>
<polygon fill="#FECF0A" points="352.598,285.607 344.598,292.607 352.598,299.607 360.598,292.607 "/>
</svg>
