<?xml version="1.0" encoding="utf-8"?>
<!-- Generator: Adobe Illustrator 16.0.0, SVG Export Plug-In . SVG Version: 6.00 Build 0)  -->
<!DOCTYPE svg PUBLIC "-//W3C//DTD SVG 1.1//EN" "http://www.w3.org/Graphics/SVG/1.1/DTD/svg11.dtd">
<svg version="1.1" id="Layer_1" xmlns="http://www.w3.org/2000/svg" xmlns:xlink="http://www.w3.org/1999/xlink" x="0px" y="0px"
	 width="215px" height="195px" viewBox="0 0 215 195" enable-background="new 0 0 215 195" xml:space="preserve">
<path fill="#61C7CA" d="M37.506,141.932l64.264,37.104c1.719,0.992,4,1.472,6.265,1.442c2.146-0.024,4.277-0.504,5.904-1.442
	l64.266-37.104c3.347-1.933,6.085-6.676,6.085-10.54V57.188c0-3.865-2.738-8.608-6.085-10.54L113.939,9.543
	c-1.627-0.939-3.76-1.419-5.904-1.443c-2.265-0.027-4.546,0.451-6.265,1.443L37.506,46.647c-3.347,1.932-6.085,6.675-6.085,10.54
	v74.204C31.421,135.256,34.159,139.999,37.506,141.932"/>
<path fill="#46B8D4" d="M177.662,141.932c3.348-1.933,6.086-6.676,6.086-10.54V57.188c0-3.865-2.738-8.608-6.086-10.54
	L113.398,9.543c-1.51-0.87-3.447-1.34-5.432-1.426V180.46c1.982-0.086,3.922-0.556,5.432-1.426L177.662,141.932z"/>
<g opacity="0.4">
	<g>
		<g>
			<g>
				<defs>
					<rect id="SVGID_1_" x="31.42" y="8.1" width="152.87" height="172.381"/>
				</defs>
				<clipPath id="SVGID_2_">
					<use xlink:href="#SVGID_1_"  overflow="visible"/>
				</clipPath>
				<path clip-path="url(#SVGID_2_)" fill="#FFFFFF" d="M107.855,23.227l61.541,35.531v71.063l-61.541,35.53l-61.543-35.53V58.758
					L107.855,23.227 M107.854,8.099c-2.205,0-4.41,0.479-6.083,1.444L37.507,46.647c-3.348,1.932-6.085,6.675-6.085,10.54v74.204
					c0,3.864,2.737,8.607,6.085,10.54l64.264,37.104c1.674,0.966,3.879,1.445,6.083,1.445c0.063,0,0.121,0,0.182-0.001
					c2.146-0.026,4.277-0.506,5.906-1.444l64.264-37.104c3.348-1.933,6.086-6.676,6.086-10.54V57.188
					c0-3.865-2.738-8.608-6.086-10.54L113.941,9.543c-1.629-0.939-3.762-1.419-5.906-1.443
					C107.975,8.099,107.914,8.099,107.854,8.099"/>
			</g>
		</g>
	</g>
</g>
<g>
	<g>
		<g>
			<defs>
				<path id="SVGID_3_" d="M101.771,9.543L37.506,46.647c-3.349,1.933-6.087,6.675-6.087,10.538v74.205
					c0,3.866,2.738,8.607,6.087,10.541l64.265,37.104c1.717,0.993,3.998,1.471,6.264,1.442c2.145-0.023,4.277-0.505,5.904-1.239
					l64.265-37.104c3.346-2.136,6.085-6.877,6.085-10.743V57.188c0-3.864-2.739-8.606-6.085-10.539L113.939,9.544
					c-1.629-0.939-3.762-1.419-5.904-1.444c-0.063,0-0.119-0.001-0.18-0.001C105.648,8.098,103.441,8.577,101.771,9.543"/>
			</defs>
			<clipPath id="SVGID_4_">
				<use xlink:href="#SVGID_3_"  overflow="visible"/>
			</clipPath>
			<path clip-path="url(#SVGID_4_)" fill="#FFFFFF" d="M128.137,8.008c3.566,0,6.828,2.75,7.436,6.264l6.672,36.84
				c4.246,1.1,7.453,4.799,7.816,9.29c0.26-0.061,0.527-0.095,0.807-0.095c1.978,0,3.58,1.604,3.58,3.58v26.435
				c0,1.978-1.604,3.58-3.58,3.58c-0.266,0-0.521-0.031-0.77-0.085v0.17c0.248-0.055,0.504-0.085,0.77-0.085
				c1.978,0,3.58,1.604,3.58,3.58v26.435c0,1.977-1.604,3.579-3.58,3.579c-0.278,0-0.549-0.034-0.811-0.095
				c-0.386,4.523-3.654,8.235-7.961,9.283l-6.521,43.342c-0.599,3.522-3.864,6.282-7.438,6.282H87.803
				c-3.572,0-6.84-2.76-7.438-6.281l-0.01-0.058l-6.512-43.285c-4.305-1.047-7.576-4.76-7.961-9.283
				c-0.26,0.061-0.529,0.095-0.809,0.095c-1.977,0-3.58-1.604-3.58-3.579V97.482c0-1.978,1.604-3.58,3.58-3.58
				c0.264,0,0.52,0.03,0.768,0.085v-0.17c-0.248,0.054-0.504,0.085-0.768,0.085c-1.977,0-3.58-1.604-3.58-3.58V63.888
				c0-1.978,1.604-3.58,3.58-3.58c0.277,0,0.546,0.034,0.806,0.095c0.365-4.491,3.572-8.19,7.817-9.29l6.671-36.84
				c0.606-3.514,3.868-6.264,7.435-6.264H128.137 M86.365,15.056c0.461-0.167,0.945-0.263,1.438-0.263h40.334
				c0.492,0,0.979,0.096,1.438,0.263c-0.228-0.552-0.869-1.034-1.438-1.034H87.803C87.232,14.021,86.59,14.504,86.365,15.056
				 M128.137,3.903H87.803c-5.592,0-10.527,4.157-11.478,9.67l-6.249,34.506c-3.596,1.705-6.34,4.815-7.59,8.573
				c-2.967,1.063-5.096,3.905-5.096,7.234v26.435c0,1.292,0.32,2.511,0.887,3.58c-0.566,1.069-0.887,2.288-0.887,3.58v26.435
				c0,3.334,2.135,6.179,5.108,7.239c1.265,3.771,4.03,6.874,7.651,8.562l6.148,40.863l0.014,0.092
				c0.945,5.57,5.883,9.74,11.49,9.74h40.334c5.609,0,10.547-4.171,11.483-9.701l0.007-0.037l0.006-0.038l6.156-40.919
				c3.622-1.688,6.386-4.79,7.65-8.562c2.976-1.062,5.107-3.905,5.107-7.239V97.481c0-1.292-0.32-2.511-0.886-3.58
				c0.563-1.069,0.886-2.288,0.886-3.58V63.887c0-3.329-2.128-6.171-5.096-7.234c-1.251-3.758-3.994-6.868-7.59-8.573l-6.254-34.54
				C138.664,8.061,133.729,3.903,128.137,3.903"/>
		</g>
	</g>
	<g>
		<g>
			<defs>
				<path id="SVGID_5_" d="M101.771,9.543L37.506,46.647c-3.349,1.933-6.087,6.675-6.087,10.538v74.205
					c0,3.866,2.738,8.607,6.087,10.541l64.265,37.104c1.717,0.993,3.998,1.471,6.264,1.442c2.145-0.023,4.277-0.505,5.904-1.239
					l64.265-37.104c3.346-2.136,6.085-6.877,6.085-10.743V57.188c0-3.864-2.739-8.606-6.085-10.539L113.939,9.544
					c-1.629-0.939-3.762-1.419-5.904-1.444c-0.063,0-0.119-0.001-0.18-0.001C105.648,8.098,103.441,8.577,101.771,9.543"/>
			</defs>
			<clipPath id="SVGID_6_">
				<use xlink:href="#SVGID_5_"  overflow="visible"/>
			</clipPath>
			<path clip-path="url(#SVGID_6_)" fill="#61C7CA" d="M139.635,132.824l-7.023,46.698c-0.354,2.087-2.356,3.777-4.475,3.777H87.804
				c-2.115,0-4.119-1.69-4.473-3.777l-7.025-46.698H139.635z"/>
		</g>
	</g>
	<g>
		<g>
			<defs>
				<path id="SVGID_7_" d="M101.771,9.543L37.506,46.647c-3.349,1.933-6.087,6.675-6.087,10.538v74.205
					c0,3.866,2.738,8.607,6.087,10.541l64.265,37.104c1.717,0.993,3.998,1.471,6.264,1.442c2.145-0.023,4.277-0.505,5.904-1.239
					l64.265-37.104c3.346-2.136,6.085-6.877,6.085-10.743V57.188c0-3.864-2.739-8.606-6.085-10.539L113.939,9.544
					c-1.629-0.939-3.762-1.419-5.904-1.444c-0.063,0-0.119-0.001-0.18-0.001C105.648,8.098,103.441,8.577,101.771,9.543"/>
			</defs>
			<clipPath id="SVGID_8_">
				<use xlink:href="#SVGID_7_"  overflow="visible"/>
			</clipPath>
			<path clip-path="url(#SVGID_8_)" fill="#FFFFFF" d="M128.137,183.438H87.803c-2.176,0-4.242-1.744-4.605-3.892l-7.051-46.855
				h63.646l-0.021,0.154l-7.024,46.698C132.379,181.691,130.313,183.438,128.137,183.438 M76.461,132.959l7.004,46.543
				c0.342,2.021,2.289,3.664,4.338,3.664h40.333c2.049,0,3.995-1.645,4.34-3.666l7.002-46.541H76.461L76.461,132.959z"/>
		</g>
	</g>
	<g>
		<g>
			<defs>
				<path id="SVGID_9_" d="M101.771,9.543L37.506,46.647c-3.349,1.933-6.087,6.675-6.087,10.538v74.205
					c0,3.866,2.738,8.607,6.087,10.541l64.265,37.104c1.717,0.993,3.998,1.471,6.264,1.442c2.145-0.023,4.277-0.505,5.904-1.239
					l64.265-37.104c3.346-2.136,6.085-6.877,6.085-10.743V57.188c0-3.864-2.739-8.606-6.085-10.539L113.939,9.544
					c-1.629-0.939-3.762-1.419-5.904-1.444c-0.063,0-0.119-0.001-0.18-0.001C105.648,8.098,103.441,8.577,101.771,9.543"/>
			</defs>
			<clipPath id="SVGID_10_">
				<use xlink:href="#SVGID_9_"  overflow="visible"/>
			</clipPath>
			<g clip-path="url(#SVGID_10_)">
				<g>
					<g>
						<g>
							<defs>
								<rect id="SVGID_11_" x="75.689" y="134.17" width="63.931" height="27.11"/>
							</defs>
							<clipPath id="SVGID_12_">
								<use xlink:href="#SVGID_11_"  overflow="visible"/>
							</clipPath>
							<polygon clip-path="url(#SVGID_12_)" fill="#61C7CA" points="75.695,140.563 135.26,161.276 139.619,136.982 78.396,134.171 
															"/>
						</g>
					</g>
					<g>
						<g>
							<defs>
								<path id="SVGID_13_" d="M101.771,9.543L37.506,46.647c-3.349,1.933-6.087,6.675-6.087,10.538v74.205
									c0,3.866,2.738,8.607,6.087,10.541l64.265,37.104c1.717,0.993,3.998,1.471,6.264,1.442c2.145-0.023,4.277-0.505,5.904-1.239
									l64.265-37.104c3.346-2.136,6.085-6.877,6.085-10.743V57.188c0-3.864-2.739-8.606-6.085-10.539L113.939,9.544
									c-1.629-0.939-3.762-1.419-5.904-1.444c-0.063,0-0.119-0.001-0.18-0.001C105.648,8.098,103.441,8.577,101.771,9.543"/>
							</defs>
							<clipPath id="SVGID_14_">
								<use xlink:href="#SVGID_13_"  overflow="visible"/>
							</clipPath>
							<path clip-path="url(#SVGID_14_)" fill="#61C7CA" d="M76.305,53.592l7.025-35.02c0.354-2.087,2.356-3.779,4.473-3.779h40.334
								c2.115,0,4.119,1.692,4.475,3.779l7.023,35.02H76.305z"/>
						</g>
						<g>
							<g>
								<defs>
									<path id="SVGID_15_" d="M101.771,9.543L37.506,46.647c-3.349,1.933-6.087,6.675-6.087,10.538v74.205
										c0,3.866,2.738,8.607,6.087,10.541l64.265,37.104c1.717,0.993,3.998,1.471,6.264,1.442
										c2.145-0.023,4.277-0.505,5.904-1.239l64.265-37.104c3.346-2.136,6.085-6.877,6.085-10.743V57.188
										c0-3.864-2.739-8.606-6.085-10.539L113.939,9.544c-1.629-0.939-3.762-1.419-5.904-1.444c-0.063,0-0.119-0.001-0.18-0.001
										C105.648,8.098,103.441,8.577,101.771,9.543"/>
								</defs>
								<clipPath id="SVGID_16_">
									<use xlink:href="#SVGID_15_"  overflow="visible"/>
								</clipPath>
								<g clip-path="url(#SVGID_16_)">
									<g>
										<g opacity="0.3">
											<g>
												<defs>
													<rect id="SVGID_17_" x="75.3" y="10.05" width="32.261" height="165.17"/>
												</defs>
												<clipPath id="SVGID_18_">
													<use xlink:href="#SVGID_17_"  overflow="visible"/>
												</clipPath>
												<polygon clip-path="url(#SVGID_18_)" fill="#191818" points="82.796,175.217 107.559,175.217 107.559,10.05 
													82.344,10.05 75.296,50.401 75.322,130.443 												"/>
											</g>
										</g>
										<g>
											<g>
												<defs>
													<path id="SVGID_19_" d="M101.771,9.543L37.506,46.647c-3.349,1.933-6.087,6.675-6.087,10.538v74.205
														c0,3.866,2.738,8.607,6.087,10.541l64.265,37.104c1.717,0.993,3.998,1.471,6.264,1.442
														c2.145-0.023,4.277-0.505,5.904-1.239l64.265-37.104c3.346-2.136,6.085-6.877,6.085-10.743V57.188
														c0-3.864-2.739-8.606-6.085-10.539L113.939,9.544c-1.629-0.939-3.762-1.419-5.904-1.444
														c-0.063,0-0.119-0.001-0.18-0.001C105.648,8.098,103.441,8.577,101.771,9.543"/>
												</defs>
												<clipPath id="SVGID_20_">
													<use xlink:href="#SVGID_19_"  overflow="visible"/>
												</clipPath>
												<path clip-path="url(#SVGID_20_)" fill="#191818" d="M128.137,186.31H87.803c-3.572,0-6.84-2.762-7.438-6.282
													l-0.01-0.057l-7.545-50.152h70.317l-7.555,50.208C134.977,183.548,131.71,186.31,128.137,186.31 M86.299,179.038
													c0.119,0.638,0.858,1.256,1.504,1.256h40.333c0.646,0,1.385-0.618,1.504-1.256l6.502-43.207H79.798L86.299,179.038z"/>
											</g>
											<g>
												<g>
													<defs>
														<path id="SVGID_21_" d="M101.771,9.543L37.506,46.647c-3.349,1.933-6.087,6.675-6.087,10.538v74.205
															c0,3.866,2.738,8.607,6.087,10.541l64.265,37.104c1.717,0.993,3.998,1.471,6.264,1.442
															c2.145-0.023,4.277-0.505,5.904-1.239l64.265-37.104c3.346-2.136,6.085-6.877,6.085-10.743V57.188
															c0-3.864-2.739-8.606-6.085-10.539L113.939,9.544c-1.629-0.939-3.762-1.419-5.904-1.444
															c-0.063,0-0.119-0.001-0.18-0.001C105.648,8.098,103.441,8.577,101.771,9.543"/>
													</defs>
													<clipPath id="SVGID_22_">
														<use xlink:href="#SVGID_21_"  overflow="visible"/>
													</clipPath>
													<path clip-path="url(#SVGID_22_)" fill="#191818" d="M143.236,56.599H72.704l7.665-42.327
														c0.605-3.514,3.867-6.264,7.434-6.264h40.334c3.566,0,6.828,2.749,7.436,6.264L143.236,56.599z M79.905,50.584h56.129
														l-6.392-35.288c-0.106-0.644-0.854-1.274-1.508-1.274H87.801c-0.652,0-1.398,0.631-1.508,1.275l-0.006,0.033
														L79.905,50.584z"/>
												</g>
												<g>
													<g>
														<defs>
															<path id="SVGID_23_" d="M101.771,9.543L37.506,46.647c-3.349,1.933-6.087,6.675-6.087,10.538v74.205
																c0,3.866,2.738,8.607,6.087,10.541l64.265,37.104c1.717,0.993,3.998,1.471,6.264,1.442
																c2.145-0.023,4.277-0.505,5.904-1.239l64.265-37.104c3.346-2.136,6.085-6.877,6.085-10.743V57.188
																c0-3.864-2.739-8.606-6.085-10.539L113.939,9.544c-1.629-0.939-3.762-1.419-5.904-1.444
																c-0.063,0-0.119-0.001-0.18-0.001C105.648,8.098,103.441,8.577,101.771,9.543"/>
														</defs>
														<clipPath id="SVGID_24_">
															<use xlink:href="#SVGID_23_"  overflow="visible"/>
														</clipPath>
														<path clip-path="url(#SVGID_24_)" fill="#191818" d="M139.619,134.17H76.32c-4.234,0-7.666-3.432-7.666-7.666V61.258
															c0-4.232,3.432-7.667,7.666-7.667h63.299c4.234,0,7.666,3.435,7.666,7.667v65.246
															C147.285,130.738,143.854,134.17,139.619,134.17"/>
													</g>
													<g>
														<g>
															<defs>
																<path id="SVGID_25_" d="M101.771,9.543L37.506,46.647c-3.349,1.933-6.087,6.675-6.087,10.538v74.205
																	c0,3.866,2.738,8.607,6.087,10.541l64.265,37.104c1.717,0.993,3.998,1.471,6.264,1.442
																	c2.145-0.023,4.277-0.505,5.904-1.239l64.265-37.104c3.346-2.136,6.085-6.877,6.085-10.743V57.188
																	c0-3.864-2.739-8.606-6.085-10.539L113.939,9.544c-1.629-0.939-3.762-1.419-5.904-1.444
																	c-0.063,0-0.119-0.001-0.18-0.001C105.648,8.098,103.441,8.577,101.771,9.543"/>
															</defs>
															<clipPath id="SVGID_26_">
																<use xlink:href="#SVGID_25_"  overflow="visible"/>
															</clipPath>
															<path clip-path="url(#SVGID_26_)" fill="#191818" d="M139.619,136.982H76.32c-5.777,0-10.479-4.701-10.479-10.479
																V61.257c0-5.778,4.701-10.479,10.479-10.479h63.299c5.777,0,10.479,4.699,10.479,10.479v65.246
																C150.098,132.281,145.396,136.982,139.619,136.982 M76.32,56.403c-2.677,0-4.854,2.179-4.854,4.854v65.246
																c0,2.677,2.177,4.854,4.854,4.854h63.299c2.676,0,4.854-2.178,4.854-4.854V61.257c0-2.676-2.179-4.854-4.854-4.854
																H76.32z"/>
														</g>
														<g>
															<g>
																<defs>
																	<path id="SVGID_27_" d="M101.771,9.543L37.506,46.647c-3.349,1.933-6.087,6.675-6.087,10.538v74.205
																		c0,3.866,2.738,8.607,6.087,10.541l64.265,37.104c1.717,0.993,3.998,1.471,6.264,1.442
																		c2.145-0.023,4.277-0.505,5.904-1.239l64.265-37.104c3.346-2.136,6.085-6.877,6.085-10.743V57.188
																		c0-3.864-2.739-8.606-6.085-10.539L113.939,9.544c-1.629-0.939-3.762-1.419-5.904-1.444
																		c-0.063,0-0.119-0.001-0.18-0.001C105.648,8.098,103.441,8.577,101.771,9.543"/>
																</defs>
																<clipPath id="SVGID_28_">
																	<use xlink:href="#SVGID_27_"  overflow="visible"/>
																</clipPath>
																<path clip-path="url(#SVGID_28_)" fill="#FFFFFF" d="M131.718,122.025H84.254c-3.235,0-5.857-2.623-5.857-5.857
																	V72.154c0-3.236,2.622-5.858,5.857-5.858h47.464c3.235,0,5.856,2.622,5.856,5.858v44.014
																	C137.574,119.402,134.953,122.025,131.718,122.025"/>
															</g>
															<g>
																<g>
																	<defs>
																		<path id="SVGID_29_" d="M101.771,9.543L37.506,46.647c-3.349,1.933-6.087,6.675-6.087,10.538v74.205
																			c0,3.866,2.738,8.607,6.087,10.541l64.265,37.104c1.717,0.993,3.998,1.471,6.264,1.442
																			c2.145-0.023,4.277-0.505,5.904-1.239l64.265-37.104c3.346-2.136,6.085-6.877,6.085-10.743V57.188
																			c0-3.864-2.739-8.606-6.085-10.539L113.939,9.544c-1.629-0.939-3.762-1.419-5.904-1.444
																			c-0.063,0-0.119-0.001-0.18-0.001C105.648,8.098,103.441,8.577,101.771,9.543"/>
																	</defs>
																	<clipPath id="SVGID_30_">
																		<use xlink:href="#SVGID_29_"  overflow="visible"/>
																	</clipPath>
																	<path clip-path="url(#SVGID_30_)" fill="#FFFFFF" d="M131.717,122.16H84.254c-3.305,0-5.992-2.688-5.992-5.992
																		V72.152c0-3.305,2.688-5.992,5.992-5.992h47.463c3.307,0,5.993,2.688,5.993,5.992v44.016
																		C137.71,119.473,135.021,122.16,131.717,122.16 M84.254,66.431c-3.154,0-5.723,2.568-5.723,5.723v44.016
																		c0,3.154,2.568,5.723,5.723,5.723h47.463c3.155,0,5.725-2.567,5.725-5.723V72.153c0-3.153-2.567-5.723-5.725-5.723
																		H84.254L84.254,66.431z"/>
																</g>
																<g>
																	<g>
																		<defs>
																			<path id="SVGID_31_" d="M101.771,9.543L37.506,46.647c-3.349,1.933-6.087,6.675-6.087,10.538v74.205
																				c0,3.866,2.738,8.607,6.087,10.541l64.265,37.104c1.717,0.993,3.998,1.471,6.264,1.442
																				c2.145-0.023,4.277-0.505,5.904-1.239l64.265-37.104c3.346-2.136,6.085-6.877,6.085-10.743V57.188
																				c0-3.864-2.739-8.606-6.085-10.539L113.939,9.544c-1.629-0.939-3.762-1.419-5.904-1.444
																				c-0.063,0-0.119-0.001-0.18-0.001C105.648,8.098,103.441,8.577,101.771,9.543"/>
																		</defs>
																		<clipPath id="SVGID_32_">
																			<use xlink:href="#SVGID_31_"  overflow="visible"/>
																		</clipPath>
																		<path clip-path="url(#SVGID_32_)" fill="#191818" d="M68.654,90.321c0,1.978-1.604,3.58-3.58,3.58
																			c-1.976,0-3.58-1.604-3.58-3.58V63.887c0-1.978,1.604-3.58,3.58-3.58c1.976,0,3.58,1.604,3.58,3.58V90.321z"/>
																	</g>
																	<g>
																		<g>
																			<defs>
																				<path id="SVGID_33_" d="M101.771,9.543L37.506,46.647c-3.349,1.933-6.087,6.675-6.087,10.538v74.205
																					c0,3.866,2.738,8.607,6.087,10.541l64.265,37.104c1.717,0.993,3.998,1.471,6.264,1.442
																					c2.145-0.023,4.277-0.505,5.904-1.239l64.265-37.104c3.346-2.136,6.085-6.877,6.085-10.743V57.188
																					c0-3.864-2.739-8.606-6.085-10.539L113.939,9.544c-1.629-0.939-3.762-1.419-5.904-1.444
																					c-0.063,0-0.119-0.001-0.18-0.001C105.648,8.098,103.441,8.577,101.771,9.543"/>
																			</defs>
																			<clipPath id="SVGID_34_">
																				<use xlink:href="#SVGID_33_"  overflow="visible"/>
																			</clipPath>
																			<path clip-path="url(#SVGID_34_)" fill="#191818" d="M68.654,123.915c0,1.978-1.604,3.58-3.58,3.58
																				c-1.976,0-3.58-1.604-3.58-3.58V97.481c0-1.978,1.604-3.58,3.58-3.58c1.976,0,3.58,1.604,3.58,3.58V123.915z"/>
																		</g>
																		<g>
																			<g>
																				<defs>
																					<path id="SVGID_35_" d="M101.771,9.543L37.506,46.647c-3.349,1.933-6.087,6.675-6.087,10.538v74.205
																						c0,3.866,2.738,8.607,6.087,10.541l64.265,37.104c1.717,0.993,3.998,1.471,6.264,1.442
																						c2.145-0.023,4.277-0.505,5.904-1.239l64.265-37.104c3.346-2.136,6.085-6.877,6.085-10.743V57.188
																						c0-3.864-2.739-8.606-6.085-10.539L113.939,9.544c-1.629-0.939-3.762-1.419-5.904-1.444
																						c-0.063,0-0.119-0.001-0.18-0.001C105.648,8.098,103.441,8.577,101.771,9.543"/>
																				</defs>
																				<clipPath id="SVGID_36_">
																					<use xlink:href="#SVGID_35_"  overflow="visible"/>
																				</clipPath>
																				<path clip-path="url(#SVGID_36_)" fill="#191818" d="M154.445,90.321c0,1.978-1.604,3.58-3.58,3.58
																					c-1.979,0-3.58-1.604-3.58-3.58V63.887c0-1.978,1.604-3.58,3.58-3.58c1.978,0,3.58,1.604,3.58,3.58V90.321z"/>
																			</g>
																			<g>
																				<g>
																					<defs>
																						<path id="SVGID_37_" d="M101.771,9.543L37.506,46.647c-3.349,1.933-6.087,6.675-6.087,10.538v74.205
																							c0,3.866,2.738,8.607,6.087,10.541l64.265,37.104c1.717,0.993,3.998,1.471,6.264,1.442
																							c2.145-0.023,4.277-0.505,5.904-1.239l64.265-37.104c3.346-2.136,6.085-6.877,6.085-10.743V57.188
																							c0-3.864-2.739-8.606-6.085-10.539L113.939,9.544c-1.629-0.939-3.762-1.419-5.904-1.444
																							c-0.063,0-0.119-0.001-0.18-0.001C105.648,8.098,103.441,8.577,101.771,9.543"/>
																					</defs>
																					<clipPath id="SVGID_38_">
																						<use xlink:href="#SVGID_37_"  overflow="visible"/>
																					</clipPath>
																					<path clip-path="url(#SVGID_38_)" fill="#191818" d="M154.445,123.915c0,1.978-1.604,3.58-3.58,3.58
																						c-1.979,0-3.58-1.604-3.58-3.58V97.481c0-1.979,1.604-3.58,3.58-3.58c1.978,0,3.58,1.603,3.58,3.58V123.915z"
																						/>
																				</g>
																			</g>
																			<g>
																				<defs>
																					<path id="SVGID_39_" d="M101.771,9.543L37.506,46.647c-3.349,1.933-6.087,6.675-6.087,10.538v74.205
																						c0,3.866,2.738,8.607,6.087,10.541l64.265,37.104c1.717,0.993,3.998,1.471,6.264,1.442
																						c2.145-0.023,4.277-0.505,5.904-1.239l64.265-37.104c3.346-2.136,6.085-6.877,6.085-10.743V57.188
																						c0-3.864-2.739-8.606-6.085-10.539L113.939,9.544c-1.629-0.939-3.762-1.419-5.904-1.444
																						c-0.063,0-0.119-0.001-0.18-0.001C105.648,8.098,103.441,8.577,101.771,9.543"/>
																				</defs>
																				<defs>
																					<path id="SVGID_40_" d="M101.771,9.543L37.506,46.647c-3.349,1.933-6.087,6.675-6.087,10.538v74.205
																						c0,3.866,2.738,8.607,6.087,10.541l64.265,37.104c1.717,0.993,3.998,1.471,6.264,1.442
																						c2.145-0.023,4.277-0.505,5.904-1.239l64.265-37.104c3.346-2.136,6.085-6.877,6.085-10.743V57.188
																						c0-3.864-2.739-8.606-6.085-10.539L113.939,9.544c-1.629-0.939-3.762-1.419-5.904-1.444
																						c-0.063,0-0.119-0.001-0.18-0.001C105.648,8.098,103.441,8.577,101.771,9.543"/>
																				</defs>
																				<defs>
																					<path id="SVGID_41_" d="M101.771,9.543L37.506,46.647c-3.349,1.933-6.087,6.675-6.087,10.538v74.205
																						c0,3.866,2.738,8.607,6.087,10.541l64.265,37.104c1.717,0.993,3.998,1.471,6.264,1.442
																						c2.145-0.023,4.277-0.505,5.904-1.239l64.265-37.104c3.346-2.136,6.085-6.877,6.085-10.743V57.188
																						c0-3.864-2.739-8.606-6.085-10.539L113.939,9.544c-1.629-0.939-3.762-1.419-5.904-1.444
																						c-0.063,0-0.119-0.001-0.18-0.001C105.648,8.098,103.441,8.577,101.771,9.543"/>
																				</defs>
																				<defs>
																					<path id="SVGID_42_" d="M101.771,9.543L37.506,46.647c-3.349,1.933-6.087,6.675-6.087,10.538v74.205
																						c0,3.866,2.738,8.607,6.087,10.541l64.265,37.104c1.717,0.993,3.998,1.471,6.264,1.442
																						c2.145-0.023,4.277-0.505,5.904-1.239l64.265-37.104c3.346-2.136,6.085-6.877,6.085-10.743V57.188
																						c0-3.864-2.739-8.606-6.085-10.539L113.939,9.544c-1.629-0.939-3.762-1.419-5.904-1.444
																						c-0.063,0-0.119-0.001-0.18-0.001C105.648,8.098,103.441,8.577,101.771,9.543"/>
																				</defs>
																				<defs>
																					<path id="SVGID_43_" d="M101.771,9.543L37.506,46.647c-3.349,1.933-6.087,6.675-6.087,10.538v74.205
																						c0,3.866,2.738,8.607,6.087,10.541l64.265,37.104c1.717,0.993,3.998,1.471,6.264,1.442
																						c2.145-0.023,4.277-0.505,5.904-1.239l64.265-37.104c3.346-2.136,6.085-6.877,6.085-10.743V57.188
																						c0-3.864-2.739-8.606-6.085-10.539L113.939,9.544c-1.629-0.939-3.762-1.419-5.904-1.444
																						c-0.063,0-0.119-0.001-0.18-0.001C105.648,8.098,103.441,8.577,101.771,9.543"/>
																				</defs>
																				<defs>
																					<path id="SVGID_44_" d="M101.771,9.543L37.506,46.647c-3.349,1.933-6.087,6.675-6.087,10.538v74.205
																						c0,3.866,2.738,8.607,6.087,10.541l64.265,37.104c1.717,0.993,3.998,1.471,6.264,1.442
																						c2.145-0.023,4.277-0.505,5.904-1.239l64.265-37.104c3.346-2.136,6.085-6.877,6.085-10.743V57.188
																						c0-3.864-2.739-8.606-6.085-10.539L113.939,9.544c-1.629-0.939-3.762-1.419-5.904-1.444
																						c-0.063,0-0.119-0.001-0.18-0.001C105.648,8.098,103.441,8.577,101.771,9.543"/>
																				</defs>
																				<defs>
																					<path id="SVGID_45_" d="M101.771,9.543L37.506,46.647c-3.349,1.933-6.087,6.675-6.087,10.538v74.205
																						c0,3.866,2.738,8.607,6.087,10.541l64.265,37.104c1.717,0.993,3.998,1.471,6.264,1.442
																						c2.145-0.023,4.277-0.505,5.904-1.239l64.265-37.104c3.346-2.136,6.085-6.877,6.085-10.743V57.188
																						c0-3.864-2.739-8.606-6.085-10.539L113.939,9.544c-1.629-0.939-3.762-1.419-5.904-1.444
																						c-0.063,0-0.119-0.001-0.18-0.001C105.648,8.098,103.441,8.577,101.771,9.543"/>
																				</defs>
																				<clipPath id="SVGID_46_">
																					<use xlink:href="#SVGID_39_"  overflow="visible"/>
																				</clipPath>
																				<clipPath id="SVGID_47_" clip-path="url(#SVGID_46_)">
																					<use xlink:href="#SVGID_40_"  overflow="visible"/>
																				</clipPath>
																				<clipPath id="SVGID_48_" clip-path="url(#SVGID_47_)">
																					<use xlink:href="#SVGID_41_"  overflow="visible"/>
																				</clipPath>
																				<clipPath id="SVGID_49_" clip-path="url(#SVGID_48_)">
																					<use xlink:href="#SVGID_42_"  overflow="visible"/>
																				</clipPath>
																				<clipPath id="SVGID_50_" clip-path="url(#SVGID_49_)">
																					<use xlink:href="#SVGID_43_"  overflow="visible"/>
																				</clipPath>
																				<clipPath id="SVGID_51_" clip-path="url(#SVGID_50_)">
																					<use xlink:href="#SVGID_44_"  overflow="visible"/>
																				</clipPath>
																				<clipPath id="SVGID_52_" clip-path="url(#SVGID_51_)">
																					<use xlink:href="#SVGID_45_"  overflow="visible"/>
																				</clipPath>
																				<path clip-path="url(#SVGID_52_)" fill="#020202" d="M86.169,94.146v-3.142
																					c7.093-6.889,8.575-8.43,8.575-10.639c0-1.482-1.133-2.441-2.588-2.441c-1.715,0-3.08,0.784-4.127,2.181
																					l-2.326-2.441c1.57-2.093,3.867-3.197,6.512-3.197c3.75,0,6.482,2.269,6.482,5.871
																					c0,2.938-1.977,5.438-6.772,10.379h6.86v3.43H86.169L86.169,94.146z"/>
																				<path clip-path="url(#SVGID_52_)" fill="#1A1A19" d="M107.854,14.712l0.088,0.001
																					c1.121,0.013,1.82,0.272,1.979,0.363l65.507,37.818c0.849,0.49,2.063,2.594,2.063,3.573v75.641
																					c0,0.979-1.215,3.083-2.063,3.572l-65.506,37.82c-0.155,0.09-0.854,0.35-1.978,0.363h-0.088
																					c-1.167,0-1.897-0.271-2.063-0.363l-65.507-37.82c-0.849-0.489-2.063-2.593-2.063-3.572V56.468
																					c0-0.979,1.214-3.083,2.063-3.573l65.507-37.818C105.955,14.981,106.686,14.712,107.854,14.712 M107.854,6.432
																					c-2.248,0-4.496,0.489-6.201,1.473l-65.506,37.82c-3.412,1.97-6.203,6.805-6.203,10.744v75.641
																					c0,3.938,2.791,8.773,6.203,10.743l65.506,37.82c1.705,0.985,3.953,1.475,6.201,1.475
																					c0.063,0,0.123,0,0.186-0.003c2.188-0.023,4.361-0.514,6.021-1.472l65.508-37.82
																					c3.41-1.97,6.201-6.805,6.201-10.743V56.469c0-3.938-2.791-8.773-6.201-10.744l-65.508-37.82
																					c-1.658-0.958-3.834-1.445-6.021-1.472C107.977,6.432,107.914,6.432,107.854,6.432"/>
																				<path clip-path="url(#SVGID_52_)" fill="#020202" d="M101.141,91.443l2.354-2.5
																					c1.018,1.337,2.385,2.093,4.041,2.093c1.858,0,2.937-1.425,2.937-3.052c0-1.92-1.019-3.054-2.763-3.054
																					c-1.308,0-2.295,0.465-3.197,1.6l-2.819-0.757V74.756h11.628v3.43h-7.732v4.973
																					c0.756-0.932,2.063-1.601,3.547-1.601c2.938,0,5.291,2.297,5.291,6.31c0,3.896-2.646,6.628-6.773,6.628
																					C104.657,94.495,102.594,93.391,101.141,91.443"/>
																				<polygon clip-path="url(#SVGID_52_)" fill="#61C7CA" points="99.631,114.6 99.631,109.173 95.408,109.173 
																					95.408,114.6 92.85,114.6 92.85,101.854 95.408,101.854 95.408,106.918 99.631,106.918 99.631,101.854 
																					102.211,101.854 102.211,114.6 																				"/>
																				<path clip-path="url(#SVGID_52_)" fill="#020202" d="M116.285,84.466c0-5,2.063-10,6.859-10
																					c4.826,0,6.859,5,6.859,10c0,4.972-2.006,10.029-6.859,10.029C118.35,94.495,116.285,89.438,116.285,84.466
																					 M126.053,84.466c0-3.75-0.641-6.54-2.906-6.54c-2.236,0-2.879,2.79-2.879,6.54c0,3.722,0.643,6.57,2.879,6.57
																					C125.412,91.036,126.053,88.188,126.053,84.466"/>
																				<path clip-path="url(#SVGID_52_)" fill="#61C7CA" d="M114.188,113.186l1.262-1.969
																					c0.707,0.784,1.814,1.357,3.076,1.357c1.127,0,1.738-0.631,1.738-1.414c0-2.236-5.693-1.472-5.693-5.79
																					c0-2.007,1.564-3.727,4.203-3.727c1.549,0,2.885,0.496,3.858,1.414l-1.222,1.91
																					c-0.768-0.727-1.74-1.068-2.733-1.068c-0.918,0-1.489,0.515-1.489,1.299c0,1.986,5.676,1.452,5.676,5.752
																					c0,2.234-1.528,3.879-4.318,3.879C116.613,114.829,115.197,114.198,114.188,113.186"/>
																				<path clip-path="url(#SVGID_52_)" fill="#61C7CA" d="M110.357,114.6l-1.947-4.604h-1.378v4.604h-2.56v-12.744
																					h4.758c2.33,0,3.879,1.681,3.879,4.031c0,2.197-1.166,3.306-2.219,3.648l2.313,5.063L110.357,114.6
																					L110.357,114.6z M110.492,105.925c0-1.108-0.65-1.815-1.645-1.815h-1.815v3.631h1.815
																					C109.842,107.739,110.492,107.032,110.492,105.925"/>
																			</g>
																		</g>
																	</g>
																</g>
															</g>
														</g>
													</g>
												</g>
											</g>
										</g>
									</g>
								</g>
							</g>
						</g>
					</g>
				</g>
			</g>
		</g>
	</g>
</g>
</svg>
