<?xml version="1.0" encoding="utf-8"?>
<!-- Generator: Adobe Illustrator 16.0.0, SVG Export Plug-In . SVG Version: 6.00 Build 0)  -->
<!DOCTYPE svg PUBLIC "-//W3C//DTD SVG 1.1//EN" "http://www.w3.org/Graphics/SVG/1.1/DTD/svg11.dtd">
<svg version="1.1" id="Layer_1" xmlns="http://www.w3.org/2000/svg" xmlns:xlink="http://www.w3.org/1999/xlink" x="0px" y="0px"
	 width="612px" height="792px" viewBox="0 0 612 792" enable-background="new 0 0 612 792" xml:space="preserve">
<polygon fill="#A6A8AC" points="206.824,500.157 203.144,486.981 199.465,500.157 197.994,500.157 193.601,484.819 195.072,484.819 
	198.774,498.317 202.547,484.819 203.742,484.819 207.49,498.317 211.192,484.819 212.664,484.819 208.295,500.157 "/>
<polygon fill="#A6A8AC" points="217.773,500.157 217.773,484.819 227.5,484.819 227.5,486.016 219.084,486.016 219.084,491.695 
	227.339,491.695 227.339,492.891 219.084,492.891 219.084,498.963 227.5,498.963 227.5,500.157 "/>
<path fill="#A6A8AC" d="M244.611,500.158l-1.518-3.771h-8.117l-1.519,3.771h-1.517l6.277-15.338h1.633l6.277,15.338H244.611z
	 M239.047,486.223l-3.634,8.969h7.243L239.047,486.223z"/>
<path fill="#A6A8AC" d="M260.137,500.158l-4.299-6.348h-3.381v6.348h-1.312V484.82h5.728c2.643,0,4.668,1.678,4.668,4.483
	c0,2.782-1.955,4.323-4.256,4.415l4.438,6.439H260.137z M260.16,489.304c0-1.932-1.357-3.288-3.402-3.288h-4.301v6.601h4.301
	C258.803,492.616,260.16,491.236,260.16,489.304"/>
<path fill="#A6A8AC" d="M275.664,500.157v-1.08c5.221-4.209,8.715-7.197,8.715-10.163c0-2.209-1.816-3.129-3.494-3.129
	c-1.91,0-3.381,0.828-4.209,2.001l-0.897-0.827c1.081-1.473,2.944-2.368,5.106-2.368c2.252,0,4.828,1.288,4.828,4.323
	c0,3.38-3.564,6.461-8.002,10.049h8.07v1.194H275.664z"/>
<path fill="#A6A8AC" d="M292.223,497.927l0.874-0.874c0.989,1.403,2.322,2.186,4.302,2.186c2.229,0,3.84-1.61,3.84-3.703
	c0-2.322-1.61-3.748-3.818-3.748c-1.402,0-2.598,0.46-3.725,1.495l-0.989-0.414v-8.048h8.853v1.195h-7.541v6.002
	c0.758-0.736,2.068-1.426,3.655-1.426c2.575,0,4.899,1.701,4.899,4.897c0,3.059-2.346,4.944-5.174,4.944
	C294.845,500.434,293.281,499.445,292.223,497.927"/>
<path fill="#A6A8AC" d="M308.002,492.5c0-3.655,1.54-7.91,5.68-7.91c4.094,0,5.656,4.255,5.656,7.91
	c0,3.635-1.563,7.935-5.656,7.935C309.542,500.435,308.002,496.135,308.002,492.5 M317.936,492.5c0-3.173-1.035-6.715-4.254-6.715
	c-3.242,0-4.3,3.542-4.3,6.715c0,3.15,1.058,6.737,4.3,6.737C316.878,499.237,317.936,495.65,317.936,492.5"/>
<polygon fill="#A6A8AC" points="345.074,500.157 345.074,492.868 335.348,492.868 335.348,500.157 334.037,500.157 334.037,484.819 
	335.348,484.819 335.348,491.673 345.074,491.673 345.074,484.819 346.385,484.819 346.385,500.157 "/>
<path fill="#A6A8AC" d="M352.391,492.5c0-4.483,2.943-7.934,7.451-7.934c4.483,0,7.449,3.45,7.449,7.934
	c0,4.484-2.966,7.935-7.449,7.935C355.334,500.435,352.391,496.984,352.391,492.5 M365.912,492.5c0-3.886-2.393-6.736-6.07-6.736
	c-3.703,0-6.071,2.851-6.071,6.736c0,3.863,2.368,6.737,6.071,6.737C363.52,499.237,365.912,496.363,365.912,492.5"/>
<path fill="#A6A8AC" d="M373.299,494.271v-9.45h1.334v9.429c0,3.104,1.633,4.989,4.645,4.989s4.645-1.886,4.645-4.989v-9.429h1.334
	v9.45c0,3.794-2.023,6.163-5.979,6.163C375.346,500.434,373.299,498.042,373.299,494.271"/>
<path fill="#A6A8AC" d="M400.826,500.158l-4.299-6.348h-3.381v6.348h-1.312V484.82h5.728c2.643,0,4.668,1.678,4.668,4.483
	c0,2.782-1.955,4.323-4.256,4.415l4.438,6.439H400.826z M400.85,489.304c0-1.932-1.357-3.288-3.402-3.288h-4.301v6.601h4.301
	C399.492,492.616,400.85,491.236,400.85,489.304"/>
<path fill="#A6A8AC" d="M407.406,497.996l0.852-0.988c0.988,1.127,2.598,2.229,4.806,2.229c3.127,0,4.024-1.747,4.024-3.057
	c0-4.509-9.198-2.163-9.198-7.521c0-2.507,2.253-4.094,5.036-4.094c2.277,0,4.023,0.806,5.197,2.162l-0.875,0.966
	c-1.104-1.334-2.666-1.931-4.392-1.931c-2.047,0-3.588,1.172-3.588,2.828c0,3.932,9.198,1.77,9.198,7.496
	c0,1.977-1.311,4.347-5.449,4.347C410.487,500.435,408.58,499.398,407.406,497.996"/>
<rect x="231.447" y="512.419" fill="#A6A8AC" width="1.312" height="15.338"/>
<polygon fill="#A6A8AC" points="250.305,527.757 240.646,514.581 240.646,527.757 239.335,527.757 239.335,512.419 240.669,512.419 
	250.281,525.411 250.281,512.419 251.592,512.419 251.592,527.757 "/>
<path fill="#A6A8AC" d="M277.997,527.758l-1.519-3.772h-8.117l-1.518,3.772h-1.518l6.277-15.338h1.633l6.278,15.338H277.997z
	 M272.432,513.822l-3.633,8.969h7.243L272.432,513.822z"/>
<polygon fill="#A6A8AC" points="306.264,527.757 306.264,514.075 300.675,527.757 300.169,527.757 294.559,514.075 294.559,527.757 
	293.247,527.757 293.247,512.419 295.202,512.419 300.422,525.182 305.619,512.419 307.598,512.419 307.598,527.757 "/>
<path fill="#A6A8AC" d="M313.602,520.1c0-4.483,2.945-7.934,7.451-7.934c4.484,0,7.451,3.45,7.451,7.934
	c0,4.484-2.967,7.935-7.451,7.935C316.547,528.034,313.602,524.584,313.602,520.1 M327.123,520.1c0-3.887-2.392-6.736-6.07-6.736
	c-3.701,0-6.07,2.85-6.07,6.736c0,3.863,2.369,6.737,6.07,6.737C324.731,526.837,327.123,523.963,327.123,520.1"/>
<polygon fill="#A6A8AC" points="345.479,527.757 335.822,514.581 335.822,527.757 334.51,527.757 334.51,512.419 335.844,512.419 
	345.457,525.411 345.457,512.419 346.767,512.419 346.767,527.757 "/>
<polygon fill="#A6A8AC" points="357.256,527.757 357.256,513.615 352.243,513.615 352.243,512.419 363.604,512.419 363.604,513.615 
	358.59,513.615 358.59,527.757 "/>
<polygon fill="#A6A8AC" points="380.117,527.757 380.117,520.468 370.39,520.468 370.39,527.757 369.078,527.757 369.078,512.419 
	370.39,512.419 370.39,519.272 380.117,519.272 380.117,512.419 381.428,512.419 381.428,527.757 "/>
<path fill="#60C7CA" d="M236.506,401.932l64.264,37.103c1.719,0.992,4,1.472,6.265,1.444c2.146-0.026,4.278-0.504,5.905-1.444
	l64.265-37.103c3.347-1.933,6.085-6.676,6.085-10.54v-74.205c0-3.865-2.738-8.608-6.085-10.54l-64.265-37.104
	c-1.627-0.939-3.76-1.419-5.905-1.443c-2.265-0.027-4.546,0.451-6.265,1.443l-64.264,37.104c-3.347,1.932-6.085,6.675-6.085,10.54
	v74.205C230.421,395.256,233.159,399.999,236.506,401.932"/>
<path fill="#45B8D4" d="M376.662,401.932c3.348-1.933,6.086-6.676,6.086-10.54v-74.205c0-3.865-2.738-8.608-6.086-10.54
	l-64.264-37.104c-1.508-0.87-3.447-1.34-5.43-1.426V440.46c1.982-0.086,3.922-0.556,5.43-1.426L376.662,401.932z"/>
<g opacity="0.4">
	<g>
		<defs>
			<rect id="SVGID_1_" x="230.42" y="268.1" width="152.87" height="172.381"/>
		</defs>
		<clipPath id="SVGID_2_">
			<use xlink:href="#SVGID_1_"  overflow="visible"/>
		</clipPath>
		<path clip-path="url(#SVGID_2_)" fill="#FFFFFF" d="M306.855,283.227l61.541,35.531v71.063l-61.541,35.531l-61.543-35.531v-71.063
			L306.855,283.227 M306.854,268.099c-2.205,0-4.41,0.479-6.084,1.444l-64.264,37.104c-3.348,1.932-6.085,6.675-6.085,10.54v74.205
			c0,3.864,2.737,8.607,6.085,10.54l64.264,37.103c1.674,0.966,3.879,1.445,6.084,1.445c0.061,0,0.12,0,0.18-0.001
			c2.146-0.026,4.278-0.504,5.906-1.444l64.264-37.103c3.348-1.933,6.086-6.676,6.086-10.54v-74.205
			c0-3.865-2.738-8.608-6.086-10.54l-64.264-37.104c-1.628-0.939-3.76-1.419-5.906-1.443
			C306.974,268.099,306.914,268.099,306.854,268.099"/>
	</g>
</g>
<g>
	<defs>
		<path id="SVGID_3_" d="M300.771,269.543l-64.265,37.104c-3.349,1.933-6.087,6.675-6.087,10.539v74.205
			c0,3.866,2.738,8.607,6.087,10.541l64.265,37.103c1.717,0.993,3.998,1.471,6.264,1.444c2.145-0.025,4.277-0.505,5.904-1.241
			l64.265-37.104c3.346-2.136,6.085-6.877,6.085-10.743v-74.205c0-3.864-2.739-8.606-6.085-10.539l-64.265-37.104
			c-1.627-0.939-3.76-1.419-5.904-1.444c-0.061,0-0.119-0.001-0.18-0.001C304.648,268.098,302.441,268.577,300.771,269.543"/>
	</defs>
	<clipPath id="SVGID_4_">
		<use xlink:href="#SVGID_3_"  overflow="visible"/>
	</clipPath>
	<path clip-path="url(#SVGID_4_)" fill="#FFFFFF" d="M327.137,268.008c3.566,0,6.828,2.75,7.434,6.264l6.672,36.84
		c4.246,1.1,7.453,4.799,7.818,9.29c0.258-0.06,0.527-0.094,0.805-0.094c1.978,0,3.58,1.603,3.58,3.58v26.434
		c0,1.978-1.603,3.58-3.58,3.58c-0.264,0-0.52-0.031-0.768-0.085v0.17c0.248-0.054,0.504-0.085,0.768-0.085
		c1.978,0,3.58,1.604,3.58,3.58v26.435c0,1.977-1.603,3.579-3.58,3.579c-0.278,0-0.549-0.034-0.809-0.095
		c-0.386,4.524-3.656,8.236-7.961,9.284l-6.521,43.34c-0.598,3.524-3.864,6.284-7.438,6.284h-40.334c-3.572,0-6.84-2.76-7.438-6.283
		l-0.01-0.056l-6.512-43.285c-4.305-1.048-7.576-4.76-7.961-9.284c-0.26,0.061-0.529,0.095-0.809,0.095
		c-1.977,0-3.58-1.603-3.58-3.579v-26.435c0-1.977,1.604-3.58,3.58-3.58c0.264,0,0.52,0.031,0.768,0.085v-0.17
		c-0.248,0.054-0.504,0.085-0.768,0.085c-1.977,0-3.58-1.603-3.58-3.58v-26.434c0-1.978,1.604-3.58,3.58-3.58
		c0.277,0,0.546,0.034,0.806,0.094c0.365-4.491,3.572-8.19,7.817-9.29l6.671-36.84c0.606-3.514,3.868-6.264,7.435-6.264H327.137
		 M285.365,275.056c0.461-0.167,0.945-0.263,1.438-0.263h40.334c0.492,0,0.977,0.096,1.438,0.263
		c-0.226-0.552-0.869-1.034-1.438-1.034h-40.334C286.232,274.021,285.59,274.504,285.365,275.056 M327.137,263.903h-40.334
		c-5.592,0-10.527,4.157-11.478,9.67l-6.249,34.506c-3.596,1.705-6.34,4.815-7.59,8.573c-2.967,1.064-5.096,3.906-5.096,7.235
		v26.434c0,1.292,0.32,2.511,0.887,3.58c-0.566,1.07-0.887,2.288-0.887,3.58v26.435c0,3.334,2.135,6.179,5.108,7.239
		c1.265,3.771,4.03,6.873,7.651,8.562l6.148,40.863l0.014,0.092c0.945,5.57,5.883,9.74,11.49,9.74h40.334
		c5.609,0,10.547-4.171,11.483-9.701l0.007-0.037l0.006-0.038l6.156-40.919c3.622-1.688,6.386-4.79,7.65-8.562
		c2.976-1.061,5.109-3.905,5.109-7.239v-26.435c0-1.292-0.32-2.51-0.886-3.58c0.565-1.069,0.886-2.288,0.886-3.58v-26.434
		c0-3.329-2.128-6.171-5.096-7.235c-1.251-3.758-3.994-6.868-7.59-8.573l-6.254-34.54
		C337.664,268.061,332.729,263.903,327.137,263.903"/>
	<path clip-path="url(#SVGID_4_)" fill="#60C7CA" d="M338.635,392.824l-7.025,46.698c-0.354,2.087-2.356,3.779-4.473,3.779h-40.334
		c-2.115,0-4.119-1.692-4.473-3.779l-7.025-46.698H338.635z"/>
	<path clip-path="url(#SVGID_4_)" fill="#FFFFFF" d="M327.137,443.437h-40.334c-2.176,0-4.242-1.745-4.605-3.891l-7.051-46.856
		h63.646l-0.022,0.155l-7.025,46.698C331.379,441.691,329.313,443.437,327.137,443.437 M275.461,392.959l7.004,46.543
		c0.342,2.02,2.289,3.664,4.338,3.664h40.334c2.049,0,3.996-1.645,4.34-3.666l7.002-46.541H275.461z"/>
	<g clip-path="url(#SVGID_4_)">
		<g>
			<defs>
				<rect id="SVGID_5_" x="274.689" y="394.17" width="63.931" height="27.11"/>
			</defs>
			<clipPath id="SVGID_6_">
				<use xlink:href="#SVGID_5_"  overflow="visible"/>
			</clipPath>
			<polygon clip-path="url(#SVGID_6_)" fill="#60C7CA" points="274.695,400.563 334.26,421.276 338.619,396.982 277.396,394.171 			
				"/>
		</g>
	</g>
	<path clip-path="url(#SVGID_4_)" fill="#60C7CA" d="M275.305,313.592l7.025-35.02c0.354-2.087,2.356-3.779,4.473-3.779h40.334
		c2.115,0,4.119,1.692,4.473,3.779l7.025,35.02H275.305z"/>
	<g opacity="0.3" clip-path="url(#SVGID_4_)">
		<g>
			<defs>
				<rect id="SVGID_7_" x="274.3" y="270.05" width="32.261" height="165.17"/>
			</defs>
			<clipPath id="SVGID_8_">
				<use xlink:href="#SVGID_7_"  overflow="visible"/>
			</clipPath>
			<polygon clip-path="url(#SVGID_8_)" fill="#191818" points="281.796,435.217 306.559,435.217 306.559,270.05 281.344,270.05 
				274.296,310.401 274.322,390.443 			"/>
		</g>
	</g>
	<path clip-path="url(#SVGID_4_)" fill="#191818" d="M327.137,446.31h-40.334c-3.572,0-6.84-2.762-7.438-6.284l-0.01-0.055
		l-7.545-50.153h70.317l-7.554,50.208C333.977,443.548,330.71,446.31,327.137,446.31 M285.299,439.038
		c0.119,0.638,0.858,1.256,1.504,1.256h40.334c0.646,0,1.385-0.618,1.504-1.256l6.502-43.207h-56.344L285.299,439.038z"/>
	<path clip-path="url(#SVGID_4_)" fill="#191818" d="M342.236,316.599h-70.532l7.665-42.327c0.605-3.514,3.867-6.264,7.434-6.264
		h40.334c3.566,0,6.828,2.749,7.434,6.264L342.236,316.599z M278.905,310.584h56.129l-6.39-35.288
		c-0.108-0.644-0.856-1.274-1.508-1.274h-40.334c-0.652,0-1.398,0.631-1.508,1.275l-0.006,0.033L278.905,310.584z"/>
	<path clip-path="url(#SVGID_4_)" fill="#191818" d="M338.619,394.17H275.32c-4.234,0-7.666-3.432-7.666-7.666v-65.246
		c0-4.233,3.432-7.667,7.666-7.667h63.299c4.234,0,7.666,3.434,7.666,7.667v65.246C346.285,390.738,342.854,394.17,338.619,394.17"
		/>
	<path clip-path="url(#SVGID_4_)" fill="#191818" d="M338.619,396.982H275.32c-5.777,0-10.479-4.701-10.479-10.479v-65.246
		c0-5.778,4.701-10.479,10.479-10.479h63.299c5.777,0,10.479,4.7,10.479,10.479v65.246
		C349.098,392.281,344.396,396.982,338.619,396.982 M275.32,316.403c-2.677,0-4.854,2.179-4.854,4.854v65.246
		c0,2.677,2.177,4.854,4.854,4.854h63.299c2.676,0,4.854-2.177,4.854-4.854v-65.246c0-2.676-2.179-4.854-4.854-4.854H275.32z"/>
	<path clip-path="url(#SVGID_4_)" fill="#FFFFFF" d="M330.718,382.025h-47.464c-3.235,0-5.857-2.623-5.857-5.857v-44.014
		c0-3.236,2.622-5.858,5.857-5.858h47.464c3.235,0,5.856,2.622,5.856,5.858v44.014C336.574,379.402,333.953,382.025,330.718,382.025
		"/>
	<path clip-path="url(#SVGID_4_)" fill="#FFFFFF" d="M330.717,382.16h-47.463c-3.305,0-5.992-2.688-5.992-5.992v-44.016
		c0-3.304,2.688-5.992,5.992-5.992h47.463c3.305,0,5.993,2.688,5.993,5.992v44.016C336.71,379.473,334.021,382.16,330.717,382.16
		 M283.254,326.431c-3.154,0-5.723,2.568-5.723,5.722v44.016c0,3.154,2.568,5.723,5.723,5.723h47.463
		c3.155,0,5.723-2.568,5.723-5.723v-44.016c0-3.153-2.567-5.722-5.723-5.722H283.254z"/>
	<path clip-path="url(#SVGID_4_)" fill="#191818" d="M267.654,350.321c0,1.978-1.604,3.58-3.58,3.58s-3.58-1.603-3.58-3.58v-26.434
		c0-1.978,1.604-3.58,3.58-3.58s3.58,1.603,3.58,3.58V350.321z"/>
	<path clip-path="url(#SVGID_4_)" fill="#191818" d="M267.654,383.915c0,1.978-1.604,3.58-3.58,3.58s-3.58-1.603-3.58-3.58v-26.434
		c0-1.977,1.604-3.58,3.58-3.58s3.58,1.604,3.58,3.58V383.915z"/>
	<path clip-path="url(#SVGID_4_)" fill="#191818" d="M353.445,350.321c0,1.978-1.603,3.58-3.58,3.58c-1.977,0-3.58-1.603-3.58-3.58
		v-26.434c0-1.978,1.604-3.58,3.58-3.58c1.978,0,3.58,1.603,3.58,3.58V350.321z"/>
	<path clip-path="url(#SVGID_4_)" fill="#191818" d="M353.445,383.915c0,1.978-1.603,3.58-3.58,3.58c-1.977,0-3.58-1.603-3.58-3.58
		v-26.434c0-1.978,1.604-3.58,3.58-3.58c1.978,0,3.58,1.603,3.58,3.58V383.915z"/>
</g>
<path fill="#1A1A19" d="M306.854,274.712l0.086,0.001c1.123,0.013,1.822,0.272,1.979,0.363l65.507,37.819
	c0.847,0.49,2.062,2.593,2.062,3.573v75.64c0,0.98-1.215,3.083-2.063,3.573l-65.506,37.82c-0.156,0.09-0.854,0.35-1.977,0.363
	h-0.088c-1.168,0-1.898-0.269-2.062-0.363l-65.507-37.82c-0.849-0.49-2.063-2.593-2.063-3.573v-75.64
	c0-0.98,1.214-3.083,2.063-3.573l65.507-37.819C304.955,274.981,305.686,274.712,306.854,274.712 M306.854,266.432
	c-2.248,0-4.496,0.489-6.201,1.473l-65.506,37.82c-3.412,1.97-6.203,6.805-6.203,10.744v75.64c0,3.939,2.791,8.774,6.203,10.744
	l65.506,37.82c1.705,0.985,3.953,1.473,6.201,1.473c0.061,0,0.122,0,0.184-0.001c2.188-0.025,4.361-0.514,6.021-1.472l65.507-37.82
	c3.411-1.97,6.202-6.805,6.202-10.744v-75.64c0-3.939-2.791-8.774-6.202-10.744l-65.507-37.82c-1.659-0.958-3.833-1.445-6.021-1.472
	C306.976,266.432,306.914,266.432,306.854,266.432"/>
<path fill="#010101" d="M285.169,354.146v-3.141c7.093-6.889,8.575-8.43,8.575-10.639c0-1.482-1.133-2.441-2.588-2.441
	c-1.715,0-3.08,0.784-4.127,2.18l-2.326-2.441c1.57-2.093,3.867-3.197,6.512-3.197c3.75,0,6.482,2.268,6.482,5.871
	c0,2.937-1.977,5.437-6.772,10.379h6.86v3.43H285.169z"/>
<path fill="#010101" d="M300.141,351.443l2.354-2.5c1.018,1.337,2.385,2.093,4.041,2.093c1.86,0,2.936-1.425,2.936-3.052
	c0-1.92-1.018-3.053-2.762-3.053c-1.308,0-2.295,0.465-3.197,1.599l-2.819-0.757v-11.017h11.628v3.43h-7.732v4.972
	c0.756-0.931,2.063-1.6,3.547-1.6c2.936,0,5.291,2.297,5.291,6.309c0,3.896-2.646,6.628-6.774,6.628
	C303.657,354.495,301.594,353.391,300.141,351.443"/>
<path fill="#010101" d="M315.285,344.466c0-5,2.064-10,6.86-10c4.826,0,6.86,5,6.86,10c0,4.972-2.006,10.029-6.86,10.029
	C317.35,354.495,315.285,349.438,315.285,344.466 M325.053,344.466c0-3.75-0.641-6.54-2.907-6.54c-2.237,0-2.878,2.79-2.878,6.54
	c0,3.722,0.641,6.57,2.878,6.57C324.412,351.036,325.053,348.188,325.053,344.466"/>
<polygon fill="#60C7CA" points="298.631,374.6 298.631,369.173 294.408,369.173 294.408,374.6 291.85,374.6 291.85,361.854 
	294.408,361.854 294.408,366.918 298.631,366.918 298.631,361.854 301.211,361.854 301.211,374.6 "/>
<path fill="#60C7CA" d="M309.357,374.6l-1.947-4.605h-1.378v4.605h-2.56v-12.745h4.759c2.33,0,3.879,1.681,3.879,4.032
	c0,2.197-1.166,3.305-2.218,3.648l2.313,5.064H309.357z M309.492,365.925c0-1.109-0.65-1.816-1.644-1.816h-1.816v3.631h1.816
	C308.842,367.739,309.492,367.032,309.492,365.925"/>
<path fill="#60C7CA" d="M313.188,373.186l1.26-1.969c0.707,0.784,1.815,1.357,3.076,1.357c1.127,0,1.739-0.631,1.739-1.414
	c0-2.236-5.694-1.472-5.694-5.79c0-2.007,1.566-3.726,4.203-3.726c1.549,0,2.885,0.496,3.86,1.414l-1.222,1.91
	c-0.766-0.727-1.74-1.069-2.733-1.069c-0.918,0-1.489,0.515-1.489,1.299c0,1.987,5.674,1.452,5.674,5.752
	c0,2.235-1.528,3.879-4.318,3.879C315.613,374.829,314.197,374.198,313.188,373.186"/>
</svg>
